$MeshFormat
2.2 0 8
$EndMeshFormat
$Nodes
745
1 4.3137247779927188e-05 3.6312090828581229e-05 1.0292949037704903e-03
2 4.9410874119679149e-05 -3.7400196247273024e-05 -1.0278415243643625e-03
3 1.3478637629632848e-04 2.5049025436785142e-05 -1.0191361112192828e-03
4 2.4349620903613465e-04 3.7998277354272291e-05 -9.9714848701217690e-04
5 3.7033090644621983e-04 5.0908973839075279e-05 -9.5309534849691280e-04
6 4.9849695988936772e-04 1.3090425768101811e-07 -8.8736967477049159e-04
7 6.2277796900872550e-04 -1.1794470510476738e-05 -7.9679214927400749e-04
8 7.3538671408467126e-04 -9.5702364393901747e-06 -6.8431580333425937e-04
9 8.3683006217303635e-04 -3.4690938617185211e-06 -5.4365743614997358e-04
10 9.0421565962079526e-04 7.4833715187629294e-07 -4.1082495018902979e-04
11 9.5002234479269095e-04 4.4898609386138917e-06 -2.7778565303559122e-04
12 9.7752875082986949e-04 3.1336353511909144e-06 -1.4195307371127371e-04
13 9.8700664983742900e-04 -1.6244041452589466e-06 7.6985560754726474e-07
14 9.7729104877981605e-04 9.8106545422283495e-06 1.4174289492569579e-04
15 9.5047593193956122e-04 1.2428597215000716e-05 2.7530438403847087e-04
16 9.0289302500269500e-04 8.1389693695527276e-06 4.1424655711792856e-04
17 8.3327610422779348e-04 1.7862357999592192e-06 5.4985716915130196e-04
18 7.3417434037126067e-04 7.9002979012509228e-07 6.8638721051401453e-04
19 6.2487127979326336e-04 4.9401536160638206e-06 7.9576243555908889e-04
20 5.0384128195472919e-04 5.8651682497531636e-07 8.8467435711833838e-04
21 3.8589624989181134e-04 -6.3603180173384078e-06 9.4752823649956548e-04
22 2.6165145829189820e-04 1.0647462965095009e-05 9.9313155079600013e-04
23 1.3953677839941293e-04 -4.6738680497894676e-06 1.0192607151830832e-03
24 1.7363050573970608e-04 1.2560892624470142e-04 -1.0054629504137153e-03
25 1.6580721170306634e-04 1.0316825617227970e-04 1.0105189330833339e-03
26 5.7525450243361682e-04 1.0696569820242562e-04 -8.2701178362532815e-04
27 5.7050004611393021e-04 -1.1122016330629795e-04 8.3108481326746222e-04
28 9.5743673576151724e-04 1.3536357993309596e-04 -2.0539413680978181e-04
29 8.5593833724476617e-04 1.4560516559613255e-04 4.8932375710313719e-04
30 9.2553341724792911e-04 -1.1135830107163355e-04 3.3662889107718069e-04
31 9.5837431537669189e-04 -1.1668709887639049e-04 -2.1249736005273312e-04
32 5.3890535734337408e-04 -1.2159721127236135e-04 -8.5203224305624708e-04
33 5.5362437608888352e-04 1.1611507824989832e-04 8.4249423122075950e-04
34 1.6058822582975130e-04 -8.6750593889822270e-05 -1.0127956144834051e-03
35 1.9162109152568010e-04 -1.0085114515883626e-04 1.0048934538510973e-03
36 7.8615636532596565e-04 -1.1156217735804967e-04 6.0974617244456827e-04
37 7.8038375738953341e-04 1.1774884783218611e-04 -6.1564663935691547e-04
38 9.7842797429707230e-04 -1.0696957778516780e-04 7.2806073872376959e-05
39 9.5881838397048275e-04 1.2622895927345376e-04 2.0331672486214770e-04
40 8.6383199658088793e-04 -1.2649343216231159e-04 -4.7834828321873462e-04
41 2.9185692913246791e-04 1.3655925298279668e-04 -9.7299982430850069e-04
42 2.0072838051736491e-04 2.5670276561876666e-04 -9.7147223907939899e-04
43 3.3478981620598013e-04 2.5466048057931157e-04 -9.3002116236563944e-04
44 3.0799831590829115e-04 1.1031978203389367e-04 9.7179770711900652e-04
45 6.7821283108406396e-04 1.0957648166961372e-04 -7.3677541725921411e-04
46 7.2148268292743830e-04 2.2717514751516163e-04 -6.5862214404419485e-04
47 2.7663152055840340e-04 3.6744443618940900e-04 -9.0944384791905345e-04
48 3.9853662207096013e-04 3.5607193145466287e-04 -8.6343123077547057e-04
49 3.3152727828542945e-04 4.7122951480151732e-04 -8.3351408155735184e-04
50 8.0586278234558194e-04 2.4309138583204589e-04 -5.3473981176563714e-04
51 7.3076981661641526e-04 3.6269549373053861e-04 -5.7666157138131836e-04
52 8.0887806185375916e-04 3.6560991655520513e-04 -4.4711544766858476e-04
53 7.2233867541179767e-04 4.8899661071952433e-04 -4.7872064520973451e-04
54 7.9630184960382394e-04 4.7890793037894759e-04 -3.4392762169181202e-04
55 7.0845968866543960e-04 5.9022176674529902e-04 -3.6380192259874937e-04
56 7.7167406388185822e-04 5.7278829218388773e-04 -2.3134932611057699e-04
57 6.2827204649414472e-04 5.9680503610247252e-04 -4.8926192743837052e-04
58 6.0564497141970207e-04 6.8778581670824596e-04 -3.7842783723188677e-04
59 5.1718003725094420e-04 6.9120555019509984e-04 -4.9520555405925830e-04
60 4.8715938820375438e-04 7.7058036136767134e-04 -3.9044809012360042e-04
61 3.9641873242998753e-04 7.5948923224477356e-04 -5.0773724837498168e-04
62 3.6080561190729790e-04 8.3647402681555621e-04 -3.9218631391760517e-04
63 2.1197739646800534e-04 4.6004873746484517e-04 -8.8186616311939649e-04
64 4.4940370851044364e-04 8.3380617706701001e-04 -2.8399215871878622e-04
65 2.5749859550014956e-04 8.1697700054945261e-04 -5.0823976801223807e-04
66 2.2794280887851202e-04 8.8931495899574468e-04 -3.7407259495905455e-04
67 1.2499587523967756e-04 8.6314660131300001e-04 -4.7869847951961103e-04
68 9.8228725622922082e-05 2.4785652600845155e-04 -9.9101689432854801e-04
69 1.4416209841292823e-04 7.7205537375062507e-04 -6.2180709922368693e-04
70 8.4768800187252306e-04 4.6030993347219939e-04 -2.1425606033330277e-04
71 8.1913265707690968e-04 5.4148669450409582e-04 -1.0078223992189237e-04
72 7.2784496133477010e-04 6.5519860139090112e-04 -1.2367166124913008e-04
73 7.6485659135569462e-04 6.2334833028928986e-04 9.7709150271634637e-07
74 6.6190326517853184e-04 7.3098118842735327e-04 -2.5770861348575282e-05
75 6.8755987950170217e-04 7.0078949667802179e-04 9.8908749636007399e-05
76 5.7818510051374787e-04 7.9621636206753154e-04 7.0741035050002715e-05
77 6.0662274912507460e-04 7.5303572849739629e-04 2.0192204909564890e-04
78 4.9592177442688186e-04 8.3562806429693490e-04 1.7585217655591092e-04
79 9.2938084232902632e-05 9.2660023892655386e-04 -3.3709731213482560e-04
80 -1.2676334375978468e-05 8.9508177743358565e-04 -4.2962896154429594e-04
81 2.3829368863705671e-04 2.1834213705951871e-04 9.7308952418841729e-04
82 5.1578461696018003e-04 7.8567097914615481e-04 3.1125334055757975e-04
83 -4.2472859780835770e-05 9.4200090130994922e-04 -2.9876003024701959e-04
84 4.0108254708562429e-04 8.5971126422103110e-04 2.8029098009259274e-04
85 4.1479190052367079e-04 8.0484265603990724e-04 4.0625590590309782e-04
86 2.9303281355023487e-04 8.6968642797409057e-04 3.7497593583320140e-04
87 2.9959349088364907e-04 8.0560150306719996e-04 5.0209904325932645e-04
88 1.8084868007097517e-04 8.5885187256444387e-04 4.6717885865501168e-04
89 1.6611304034716868e-04 9.1678533550633467e-04 3.3552684444393351e-04
90 5.1743954701090945e-05 8.9673425953968157e-04 4.2259281965191531e-04
91 6.8930370508900557e-05 8.2837468822803358e-04 5.5148271634805884e-04
92 -5.8310936026163522e-05 8.5662264323950769e-04 5.0335726694763811e-04
93 -8.9524657815905919e-05 9.1265756485924584e-04 3.7604248341132382e-04
94 -1.9100720279468578e-04 8.6396340806476767e-04 4.5149805773331763e-04
95 -1.6656326470821024e-04 7.9932893923562881e-04 5.7289472450583728e-04
96 -2.2062167406939552e-04 9.0786645528455681e-04 3.2693642066997520e-04
97 1.1957577875779332e-04 2.2090136744122441e-04 9.9594956393481778e-04
98 5.3878142656560641e-04 7.0563251049752520e-04 4.4886581186391947e-04
99 1.7020166052580715e-04 3.4218068794174500e-04 9.4893080226319247e-04
100 4.3480010535044608e-05 3.3494193559686870e-04 9.6718817405203376e-04
101 -5.1715497694593747e-06 2.2041969042203572e-04 1.0038285150741515e-03
102 -8.9730113988403145e-05 3.2645810764493215e-04 9.6680796285676554e-04
103 1.9603634368075792e-04 9.3817918021951892e-04 -2.4090657513759753e-04
104 -1.1270812992688127e-04 9.5064582674422729e-04 2.4500430017822651e-04
105 -2.4342191782937515e-04 9.3403757179596450e-04 2.0853071798602538e-04
106 -3.5074158870718495e-04 8.8151477866829989e-04 2.7832538189765754e-04
107 -1.5188689220237310e-04 9.0395452823763939e-04 -3.7716023501221517e-04
108 -1.2853656764705615e-04 8.4476176978728532e-04 -5.1126613144193635e-04
109 -3.7556743687962643e-04 8.9983096219760350e-04 1.5130460879512838e-04
110 -2.6062025195501483e-04 8.4508057863519662e-04 -4.5297495571357965e-04
111 -2.3115109721204844e-04 7.7566644724029650e-04 -5.8553356379061506e-04
112 -3.6773027194070160e-04 7.6723549745006021e-04 -5.1802467334792620e-04
113 -3.3761694036341078e-04 6.9183342516071207e-04 -6.4094355663813526e-04
114 -4.6428889770279007e-04 6.7509021546958200e-04 -5.7040399560753081e-04
115 -4.2694099901479792e-04 5.9434402442150932e-04 -6.8769249324357896e-04
116 -4.9530153522659966e-04 7.3747452814757061e-04 -4.4470861996504099e-04
117 -2.8830883825246080e-04 8.9254442827307098e-04 -3.1542260030083475e-04
118 -2.8432800159859688e-04 7.8361947733983849e-04 5.4829563224887583e-04
119 6.9885482301051288e-04 6.6115817524419265e-04 2.2493473688755072e-04
120 -2.9631723601101996e-04 5.9370260785020440e-04 -7.5956600365103904e-04
121 -3.8090803971239435e-04 4.9364054409767354e-04 -7.9574042063287572e-04
122 -5.0473275233249711e-04 4.7632666660167670e-04 -7.2912156079220478e-04
123 -4.5296832923287901e-04 3.7229717742909697e-04 -8.2604680609508563e-04
124 -5.8385469571774358e-04 6.3714127675315005e-04 -4.9348533516316805e-04
125 -6.0881192819174906e-04 6.9375059725486452e-04 -3.6042920413532144e-04
126 -6.9228319862644052e-04 5.8576255552717665e-04 -4.0220581171475616e-04
127 -4.7915117882218371e-04 8.3463095883780955e-04 2.2225301612433193e-04
128 -5.7506167164899508e-04 3.4852705597718736e-04 -7.5083356930631760e-04
129 -5.1645979642377918e-04 2.3908184418338713e-04 -8.3918589047473800e-04
130 -6.3439965910162181e-04 2.2264024545669698e-04 -7.5103739063621887e-04
131 -5.6817011844101308e-04 1.1024557198968888e-04 -8.3206828245886754e-04
132 -6.8491420208964136e-04 9.2047252654151759e-05 -7.3246105303887820e-04
133 -6.1700564711127158e-04 -1.8733768623178151e-05 -8.0133297965902760e-04
134 -7.2598675614285121e-04 -4.1023492250796504e-05 -6.9352358967085536e-04
135 -6.5049563496630345e-04 -1.4973504675506045e-04 -7.5621070122591967e-04
136 -7.8830293810213379e-04 7.6142600066856980e-05 -6.1142208702458201e-04
137 -8.1895608046205675e-04 -6.6521765836118123e-05 -5.6716912415745414e-04
138 -8.6818120040833401e-04 5.3873997332878878e-05 -4.8306275118892284e-04
139 -8.8745172985844130e-04 -9.2860932045532363e-05 -4.3630858299090062e-04
140 -9.2765740534415204e-04 2.0909466704351905e-05 -3.4653460187349789e-04
141 -9.3639737292465540e-04 -1.1537829065152541e-04 -2.9788357732011829e-04
142 -9.6477947556570642e-04 -1.3073559311348965e-05 -2.1085837451113596e-04
143 -9.6278275602821109e-04 -1.4528051181737767e-04 -1.6225477797066434e-04
144 -9.8241694050142138e-04 -4.0638773862387704e-05 -7.6839983400985062e-05
145 -9.7051534562622537e-04 -1.7350221809619306e-04 -2.5459231844355717e-05
146 -9.8277148991960284e-04 -6.1651619012743092e-05 5.3587298453337030e-05
147 -9.6237798663227170e-04 -1.8989637699147683e-04 1.0645804478393298e-04
148 -9.3833828169960780e-04 -3.0321793462209775e-04 2.5125025236572293e-05
149 -9.2319101064862062e-04 -3.1242649772303123e-04 1.5817669619252499e-04
150 -9.3925415877681216e-04 -1.9596227733091623e-04 2.3760155156779181e-04
151 -8.9201878925243626e-04 -3.1487521269553306e-04 2.9062013815255310e-04
152 -8.9667237404541405e-04 -1.9647406219192343e-04 3.7522756598045337e-04
153 -8.4037690882855483e-04 -3.1881168871059155e-04 4.2231260736524435e-04
154 -8.8925558463956878e-04 -2.2112068502456111e-04 -3.7842288596862881e-04
155 -8.3057158019252543e-04 -2.0168346193991213e-04 5.1184570499473168e-04
156 -7.6304595049035099e-04 -3.2996990886915577e-04 5.5198256617890369e-04
157 -8.7814837595040929e-04 -6.8230151344390798e-05 4.6154262768656213e-04
158 -7.4315964293752469e-04 -2.1509989185020012e-04 6.3634870362520727e-04
159 -6.6293288741416741e-04 -3.3644302200663752e-04 6.7465616485854407e-04
160 -9.8347619133038237e-04 7.0157587036091855e-05 4.5990832970365211e-06
161 -6.3824181825879319e-04 -2.1940078189751160e-04 7.4879731353057720e-04
162 -5.5161181880880562e-04 -3.2771261829490092e-04 7.8057212864032267e-04
163 -5.2846695311796672e-04 -1.2052777671940812e-04 -8.5903173343206054e-04
164 -5.5390805391347848e-04 -2.5406228905581633e-04 -8.0820269108108998e-04
165 -7.0932762876864083e-04 6.3393260193512536e-04 -2.6925501634145698e-04
166 -1.4228106581307115e-04 2.2364179489561521e-04 9.9181117399928112e-04
167 -2.2667301894535412e-04 3.1667194233608127e-04 9.4537667693618305e-04
168 -4.2433115467541306e-04 -2.1496147514919251e-04 -9.0132741673446329e-04
169 -4.3948958219565474e-04 -3.5074027258793366e-04 -8.4487568733634803e-04
170 -5.5840857895036945e-04 -3.8560418720952957e-04 -7.4557823185028853e-04
171 -4.4437143017485569e-04 -4.7852902546313176e-04 -7.7022464733541099e-04
172 -5.5713587597489987e-04 -5.1204464812601100e-04 -6.5863287199155278e-04
173 -4.4238918139137025e-04 -5.9738564145649174e-04 -6.7499469338929904e-04
174 -5.4068994415479646e-04 -6.2700613775295926e-04 -5.5782987603653273e-04
175 -4.2966678104418618e-04 -7.0573745943406535e-04 -5.6064043780829607e-04
176 -7.6810894004586676e-04 -4.3132042234604492e-04 4.6094611064046841e-04
177 -5.1865470624075090e-04 -7.2170944236965584e-04 -4.4498729491555328e-04
178 -4.0611418049904085e-04 -7.9534196314054093e-04 -4.3589536681125840e-04
179 -3.1210710419120308e-04 -7.7813980319763607e-04 -5.4045672324241662e-04
180 -2.8012008782980720e-04 -8.5731050303805816e-04 -4.1599408200304779e-04
181 -1.7990258222479863e-04 -8.3050811023640181e-04 -5.2115465348046106e-04
182 -1.4259425108170915e-04 -8.9757531856628518e-04 -3.9984375855614995e-04
183 -4.5743585864142829e-05 -8.5631594076048922e-04 -5.0796262707323192e-04
184 -1.4812698743859148e-05 -9.1722028456173686e-04 -3.7828544151352378e-04
185 -1.0210601240185484e-04 -9.4715212594551469e-04 -2.6824223789104228e-04
186 3.3630956430541097e-05 -9.5777828052945584e-04 -2.4499683549360885e-04
187 -5.5127722982768423e-05 -9.7621551105848991e-04 -1.4002315582497979e-04
188 8.6918652944890129e-05 -9.7643853250903041e-04 -1.1995166053440962e-04
189 -8.8311120435297147e-06 -9.8679906885637829e-04 -1.5717874243644382e-05
190 1.2904510380668644e-04 -9.7850876723917291e-04 9.8742763485029078e-06
191 2.9304960994715939e-05 -9.8086453644240755e-04 1.0972834233111826e-04
192 1.6408824494701461e-04 -9.6457211822126038e-04 1.3548251149631145e-04
193 6.5129366175199679e-05 -9.5911629722889339e-04 2.3278295199519902e-04
194 2.1982232877457879e-04 -9.5809950250969620e-04 -9.1274195476189320e-05
195 1.9905161599873618e-04 -9.3388252758624295e-04 2.6023899548696509e-04
196 9.6806582884477035e-05 -9.1790679025570594e-04 3.6384241886782645e-04
197 1.0769949221970181e-04 -8.6906784451170260e-04 -4.7463030153784079e-04
198 -9.7012403714203288e-05 -9.7905914353044535e-04 7.7820279842993637e-05
199 2.3289104979736736e-04 -8.8340278722654386e-04 3.8868296824114503e-04
200 3.3205154423693127e-04 -8.8848843839284860e-04 2.8416067755728837e-04
201 3.6151152254565428e-04 -8.2813838268735052e-04 4.1291380113801183e-04
202 1.2944594921230967e-04 -8.5564606849751501e-04 4.9381876241858869e-04
203 4.5403659879487474e-04 -8.2647885349828871e-04 3.0319198360516945e-04
204 -4.7337106189246265e-06 -8.8221798532873421e-04 4.6034518428980024e-04
205 2.9338991942094513e-05 -8.0714439990498368e-04 5.9030425063097446e-04
206 -8.8925135085020617e-04 -4.2143081640046604e-04 7.2692471683070953e-05
207 -8.7529515405806841e-05 -7.7430632693755255e-04 -6.3044947911078397e-04
208 -1.0399830667592783e-04 -8.2521271034891519e-04 5.5272986529746396e-04
209 -7.0709192814257565e-05 -7.3775244346220429e-04 6.7850645313012365e-04
210 4.8074948931324545e-04 -7.5651731511804630e-04 4.2943747613308084e-04
211 5.6633379693381584e-04 -7.5052726612170797e-04 3.1185953076911653e-04
212 -4.8952427408190775e-04 -7.9848610518730781e-04 -3.2194574806608637e-04
213 5.7852789095569107e-05 -7.1270659153722514e-04 7.0839830884864138e-04
214 -3.9087333482553455e-05 -6.3235915338985310e-04 7.8840400390821764e-04
215 -3.1705142224761854e-04 -3.0152362893743815e-04 -9.2231338277600405e-04
216 -2.0419561959550279e-04 -7.4959821344265187e-04 6.3332176211773400e-04
217 -2.3636031122670548e-04 -8.2802749304710494e-04 5.0141496278362978e-04
218 5.3996377374286510e-04 -8.0581204189843268e-04 1.9066456570342939e-04
219 6.5238313800950604e-04 -7.1327315917078099e-04 2.0915221541302652e-04
220 6.1522393862079765e-04 -7.6772859700401487e-04 8.5620779545914091e-05
221 -6.2562051978497972e-04 -6.3753630824660735e-04 -4.3491052570330570e-04
222 7.1574272664804350e-04 -6.7278131688527064e-04 1.0437682585036415e-04
223 6.7800364138930272e-04 -7.1726478668972108e-04 -2.4549726415572247e-05
224 -2.9332665404694893e-04 -1.6551415455632075e-04 -9.6767330074941415e-04
225 -9.5050892963720269e-04 1.1130948111416439e-04 -2.4556024102804152e-04
226 8.3451694503874004e-05 -5.9795257376526383e-04 8.1372353006409952e-04
227 -7.9070451023712590e-06 -5.1208372704822673e-04 8.7973001522864995e-04
228 -5.2339231137014421e-04 -1.9864823286313839e-04 8.4649114724210425e-04
229 -5.9741683383223376e-04 -9.7254080791137168e-05 8.1092506804490250e-04
230 6.6603885296590199e-04 -6.5140024075040193e-04 3.3879166048726874e-04
231 3.9102269187578739e-04 -7.5031910000171659e-04 5.2842108972867474e-04
232 5.1548383587519768e-04 -6.5821683098789003e-04 5.4708492178205583e-04
233 7.6555962548858765e-04 -6.2306707257829704e-04 -1.6179153213806292e-05
234 7.2678343766435175e-04 -6.5448128126330816e-04 -1.3928060168169016e-04
235 -3.9135328391454838e-04 2.5953648803802757e-04 -9.0415370188099559e-04
236 2.9615038825189582e-04 3.4034407731907076e-04 9.1508416038899336e-04
237 -4.3612795506741097e-04 -3.0026841387431700e-04 8.6800524502617365e-04
238 -8.3503857121013515e-04 1.9746732905848272e-04 -5.0663184713661629e-04
239 6.3393429500020510e-04 -7.4288614396733838e-04 -1.5004348661603345e-04
240 6.7458942307077195e-04 -6.7269044002707227e-04 -2.6883825762231148e-04
241 -5.7811352119006539e-04 -4.4015540820390499e-04 6.9458039011599082e-04
242 5.6931813526914352e-04 -7.6257140609628136e-04 -2.7263100691878609e-04
243 6.0335335590445656e-04 -6.8224117826247714e-04 -3.9563525775808596e-04
244 7.0423920009418965e-04 -5.8750307678515578e-04 -3.7942914151442559e-04
245 6.2479511055350584e-04 -5.8824039209302392e-04 -5.0706963331073379e-04
246 -1.9159387354826567e-04 -2.5299002761382423e-04 -9.7489463292086212e-04
247 8.0330012348606096e-04 -5.6520787024993871e-04 1.0390091085158065e-04
248 2.3333822120543673e-04 4.4687091455094006e-04 8.8396974400552133e-04
249 -3.9596140575188913e-04 -1.5782888804365049e-04 9.2819295831543644e-04
250 3.6168867616992011e-04 4.3764175033224903e-04 8.4064814662800113e-04
251 -2.2158622776749992e-04 -3.6485067460191237e-04 -9.2774007687146094e-04
252 -9.3637957144820146e-05 -3.3850728586405789e-04 -9.6209806410913498e-04
253 3.7200955888791904e-04 9.0240196713507509e-04 1.4703871137537589e-04
254 -6.1720217708528466e-04 7.3664540071868660e-04 -2.2892902598135024e-04
255 -7.0755344155344537e-04 6.7330403452600315e-04 -1.3947261518096012e-04
256 -7.9029512506316099e-04 5.6578900994269589e-04 -1.7229264130537238e-04
257 -7.7704550808085752e-04 6.0532598693378967e-04 -4.3127621728413736e-05
258 -2.7907331471534427e-05 4.3818242045244842e-04 9.2111032896931982e-04
259 -3.0702008573881017e-04 -2.3862355599716019e-04 9.4620669559502602e-04
260 -2.7699722991793443e-04 2.0789337521186319e-04 9.6382136317999607e-04
261 -3.5818169031555949e-04 3.1052795014642259e-04 9.0193103151586589e-04
262 -2.6794541135463060e-04 -1.1078137320414538e-04 9.8433904621045049e-04
263 -1.7506422442899099e-04 -1.8531436242217174e-04 9.9522241692906140e-04
264 -8.5220703848719521e-04 4.9006646275381838e-04 -7.8780530943919067e-05
265 -8.2676105894284395e-04 5.3470494074196588e-04 5.2011746642884002e-05
266 -3.3946995735708446e-04 -7.4729880937243808e-04 5.6981043176572801e-04
267 -3.6803153469828196e-04 -8.1441709919020282e-04 4.3472785890181625e-04
268 5.1105678807267317e-04 -6.8253947347532071e-04 -5.1684750677358682e-04
269 5.2168541723614497e-04 -5.7972340392955016e-04 -6.2920305459635071e-04
270 6.3399318148340156e-04 -4.8027660765926792e-04 -6.0781252939529301e-04
271 5.1892745860098583e-04 -4.6481737972856729e-04 -7.2773430729005902e-04
272 4.0231438586804609e-04 -5.5755379586732844e-04 -7.3715677466329140e-04
273 -3.0415539582095714e-04 4.1892045665837879e-04 8.7497450189038639e-04
274 -4.3293904870070479e-04 4.1530664557388596e-04 8.1547938840727122e-04
275 3.9602123587850492e-04 -4.3496889597445938e-04 -8.2574490651447471e-04
276 2.8335471900269412e-04 -5.2545720458830919e-04 -8.1884915122103815e-04
277 -3.3572801875824884e-04 -3.7449836470424095e-04 8.8503423101055436e-04
278 -1.2775655031475254e-04 9.6986115256870965e-04 1.2777972252372876e-04
279 8.0399190156691801e-04 -5.5880950426598157e-04 -1.2845893580837027e-04
280 -2.3920533298827127e-04 4.7803503662261100e-04 -8.6386907756532360e-04
281 -1.5054284058757530e-04 5.7608436762036962e-04 -8.1910238379733760e-04
282 8.5794963049185783e-04 4.8837830563841467e-04 2.2861336917363580e-05
283 1.1812849597308699e-04 -4.6823478398317898e-04 8.9769803595915758e-04
284 -9.7739234737958831e-04 5.0600421456564008e-05 1.2278464638772703e-04
285 -8.9786055529406680e-04 -4.0354411628270285e-04 -6.6549518009538912e-05
286 -8.3875947211978458e-04 -5.1909849381699040e-04 -1.9731986557129025e-05
287 -8.2471516237495241e-04 -5.2988335491117931e-04 1.1578321198494072e-04
288 -7.6047701568377325e-04 -6.2808326000823140e-04 2.6015569088633884e-05
289 -7.3962462861335433e-04 -6.3545352620829505e-04 1.5599511421526496e-04
290 -6.6812732998329440e-04 -7.2293119414110153e-04 6.8776738459873336e-05
291 -1.9638764457177130e-04 -9.5482109310232957e-04 -1.6093080617747706e-04
292 -2.6838642586365469e-04 -8.8180926919622683e-04 3.6660550642363820e-04
293 -3.3893191732436160e-04 -5.5332930683294130e-04 -7.7433396690073676e-04
294 -9.8706338380013164e-05 -4.7430211024218361e-04 -8.9705558686530473e-04
295 -4.9159572365456959e-04 3.0267957290273733e-04 8.3333515376082313e-04
296 -5.5880417988015112e-04 4.0211474180497603e-04 7.3511342812260455e-04
297 -8.6080867780234096e-04 4.3977731646470088e-04 -2.0244335450576433e-04
298 -6.1766054642395536e-04 2.7098357373381049e-04 7.4931170595995825e-04
299 -6.7402712326858989e-04 3.7305694607874158e-04 6.4039501325579391e-04
300 -6.0867486370259926e-04 4.9698934583863234e-04 6.1964610333751645e-04
301 -7.1646752433397189e-04 4.6049130985831559e-04 5.1651353294955961e-04
302 -7.7383575982549447e-04 3.3515040094731440e-04 5.3111866698685856e-04
303 -3.0545461078657689e-04 -6.6094836879115849e-04 6.9342334225121031e-04
304 -6.3605747734067327e-04 5.8913260307123252e-04 4.8838236507520161e-04
305 -8.0306552672820461e-04 4.1444108019123358e-04 4.0970459900209558e-04
306 2.0715886006144476e-04 -5.5344842415559000e-04 8.2388952931985407e-04
307 2.4383045154259238e-04 -4.2725304014625502e-04 8.9231091671783456e-04
308 3.4702186675190293e-04 -5.0194419528751927e-04 8.0849904174671975e-04
309 -4.5607596428527913e-04 -7.3367032735243906e-04 4.9476520219732462e-04
310 -8.5430346332727926e-04 2.8043752963988883e-04 4.2018614518337142e-04
311 -3.9980448904012298e-04 -8.5576802530582105e-04 2.9712551903445758e-04
312 -7.5430721404779236e-04 6.3003375839036657e-04 7.8923703950424567e-05
313 -8.3992458183369573e-04 -4.9566479687528748e-04 -1.5374341737555824e-04
314 -7.6996432600480319e-05 1.1750260031930557e-04 1.0198749462504923e-03
315 -8.7726199562514131e-04 3.5042361828444062e-04 2.9421208920284647e-04
316 -9.6510286417052357e-04 1.8324803838443116e-04 8.6156903347555118e-05
317 -1.0635345234587067e-04 7.6853614468446938e-04 -6.3266310253703528e-04
318 2.7295206566138369e-04 -3.9613947600219772e-04 -8.9848002878267384e-04
319 -6.8248464412278985e-04 -7.0981041373249418e-04 -6.4249167624755440e-05
320 -5.9667467846951793e-04 -7.8547142355880558e-04 -6.2665418105305407e-06
321 -6.6325911399037847e-04 -4.1068808183817251e-04 -6.2795952426362457e-04
322 -5.9462966694355208e-05 -2.1887168457334599e-04 -1.0023160942650646e-03
323 5.0571479084807961e-04 -8.4482161998170426e-04 7.3873374790357877e-05
324 -6.1154710513552089e-04 7.6733531512246768e-04 -9.8864183739587666e-05
325 2.8810164887944797e-04 5.4504784841648811e-04 8.0189715101124603e-04
326 2.7878249942113529e-04 -6.4267961784848652e-04 -7.2361786471872443e-04
327 1.5675767559723860e-04 -6.0527620321212754e-04 -7.9548458003920715e-04
328 4.2550649836466250e-04 5.3641122376448577e-04 7.3910395940232068e-04
329 4.8856523308808176e-04 4.1863951759908360e-04 7.7877715115583451e-04
330 4.5056256224465654e-04 4.4696717299274149e-04 -7.8556756693655948e-04
331 7.5571330073080786e-06 9.7344560975307288e-04 1.6265628437750780e-04
332 -1.4783190346411371e-05 9.8509150838830260e-04 4.0289575888183319e-05
333 -1.4918024098827581e-04 9.7449822174171122e-04 4.0573244532145837e-06
334 1.1734507202830908e-04 9.7602660442752101e-04 7.9578863927660221e-05
335 3.6682894766631741e-04 -3.6300751539123505e-04 8.7724780337506889e-04
336 4.6382600367934397e-04 -4.3059746809847069e-04 7.8880607092660180e-04
337 -8.1350501524363509e-04 2.1049225536010557e-04 5.3580444732164508e-04
338 -3.5884668085856220e-04 5.2268282469801778e-04 7.8645722908888172e-04
339 -1.1188174887302752e-04 4.6284403353987640e-04 -9.0042266726125429e-04
340 3.6723381079193057e-04 -3.0134021887795313e-04 -9.0200303615716815e-04
341 1.7907811816050327e-05 -2.8487983840153139e-04 -9.8593235626339218e-04
342 -9.1927862763302112e-04 3.4593075175704322e-04 -9.8626797356893606e-05
343 1.8713118522934531e-05 -3.8366024240842040e-04 9.4870094673703113e-04
344 -5.2259973172129955e-04 6.1299712585718774e-04 5.9135697891723321e-04
345 -5.3289708518539439e-04 7.0545872102856526e-04 4.5557031025397022e-04
346 -6.5051510724634348e-04 6.5829599867011355e-04 3.5319679264286666e-04
347 6.1388070121572397e-04 -3.6563353384013467e-04 -7.0850235893906203e-04
348 7.2352053102323316e-04 -3.7175399391710194e-04 -5.8128816163826528e-04
349 5.4473863722728723e-04 5.1977812141981564e-04 6.6285949669253673e-04
350 6.0703762280635818e-04 4.0038633647733745e-04 6.9353657775865528e-04
351 6.5692844616935568e-04 4.8903608969955289e-04 5.7166043899662604e-04
352 7.1343820160148089e-04 3.5566229865902147e-04 6.0450353178216534e-04
353 7.5101143485128887e-04 4.4711456116704776e-04 4.7585501467533323e-04
354 -6.3724331584989887e-04 -7.2833701347534737e-04 1.9962101882631177e-04
355 2.6117667966365327e-04 5.5737805957192267e-04 -8.0208320891827058e-04
356 1.3975299003288609e-04 5.6603562400383471e-04 -8.2855353887327087e-04
357 -6.7800616956741901e-04 3.2367373961040581e-04 -6.6395221259574731e-04
358 5.2260960555789804e-04 -8.2450757148299530e-04 -1.5211787462227560e-04
359 4.4889600353033803e-04 -8.3955619452691658e-04 -2.7061126907168445e-04
360 -8.1678077080699454e-04 4.8362581990299728e-04 2.7669717577993023e-04
361 -1.2816755785223323e-04 -5.3568215251574146e-04 8.5358654038107857e-04
362 -1.9078822590919879e-04 3.5770863741994868e-04 -9.3784796777610427e-04
363 -2.3473022011769086e-04 5.2092018560549670e-04 8.3712642009921344e-04
364 -5.1523060645301019e-04 8.2270160946831328e-04 -1.7935111200706553e-04
365 1.6468660603381481e-04 5.5161225389440847e-04 8.3448518438947194e-04
366 -3.7211359025069156e-04 -3.0177304804944786e-05 9.5267723733731395e-04
367 -6.9793157312587201e-04 -6.3819956628577174e-04 2.9190784602103653e-04
368 2.1347039670421093e-04 6.7187716509555851e-04 7.1880957086299224e-04
369 8.2762702663066287e-05 6.3924686121058657e-04 7.7608386973798248e-04
370 7.0088865930794644e-04 -2.5448652727400880e-04 -6.7258481902358316e-04
371 -5.4245839234851696e-04 1.6601215721415315e-04 8.4094319534178000e-04
372 -6.6227765735214523e-04 1.3617544000861723e-04 7.4836253892582869e-04
373 5.4697727687926640e-04 8.1917356362258044e-04 -5.1980611459649027e-05
374 -1.5341972694805786e-04 -7.2962299012102795e-05 1.0149794580780343e-03
375 -4.0926587543544193e-05 -1.6586251744322644e-04 1.0148073119833516e-03
376 -2.9951480478397570e-04 -9.1406784549820169e-04 2.2965498784551218e-04
377 -4.2756966582024219e-04 -8.7676464939854767e-04 1.5974017194971639e-04
378 -9.2025567721265816e-04 1.9249268147043781e-04 3.1123352837133752e-04
379 4.2636643096394890e-04 6.6029607197054269e-04 -6.2024788977347841e-04
380 1.5533917243822572e-04 -7.1477480900981611e-04 -6.8928548243204850e-04
381 2.7933846961076224e-04 -7.4277766355511636e-04 -6.0987136619568825e-04
382 -8.9166614854934779e-04 -3.7525015655557210e-04 -1.9936903070457489e-04
383 -8.2616768151892652e-04 -4.6538897602722476e-04 -2.8144543185221795e-04
384 -7.6229702031301396e-04 -5.8106115556259309e-04 -2.4211266889579729e-04
385 -1.6465154402295535e-04 -9.3339404564731345e-04 2.8607967463993692e-04
386 -6.5942864110697208e-04 5.2513661597220168e-04 -5.3153841149175399e-04
387 -7.5732304890295586e-04 4.7206229757364832e-04 -4.3543259002700737e-04
388 8.7302727090890866e-04 2.4636650698655607e-04 -4.0288398851142130e-04
389 -9.0284194434956809e-04 3.2400044988468329e-04 -2.3656867173415567e-04
390 -5.0652214524070642e-04 8.4473349566253453e-04 -4.3650266281069294e-05
391 -4.0210681818753026e-04 8.9291509239365955e-04 -1.1861865856054383e-04
392 -6.0057806845707838e-04 7.8090785943131882e-04 3.1285730661588155e-05
393 -5.8705264858557806e-04 -7.8368473228244159e-04 -1.2541471755207574e-04
394 -4.9661181326555960e-04 -8.5009220734201562e-04 -6.2805096443177316e-05
395 9.1316046607947717e-05 9.8057153045563467e-04 -4.7906422312755490e-05
396 2.2486167092070184e-04 9.6001821053542122e-04 -1.0807073355516607e-05
397 5.2820604700063085e-04 3.2584264019503437e-04 -7.9861032062510324e-04
398 2.5525995907580155e-04 -2.9692800639278237e-04 9.4512766846048546e-04
399 3.7798749671275300e-04 -2.2491722383437051e-04 9.2209876563510490e-04
400 -2.8825503913714075e-04 6.0852447888884345e-04 7.4951575548176067e-04
401 -1.6836662756231031e-04 6.1953180072728113e-04 7.7800785545462960e-04
402 3.1386588921637835e-04 -6.1748543054921084e-04 7.3212751252703758e-04
403 6.6120251036172256e-04 2.7084824489736608e-04 7.0784378574119161e-04
404 6.6526701378160193e-04 5.9137317344755912e-04 4.4398902903624752e-04
405 -3.1115784406653976e-04 -9.3170421265110874e-04 9.7749218228543149e-05
406 2.3374938662644402e-04 -2.6290495047347743e-04 -9.6171551407331325e-04
407 3.3973212328038631e-04 -1.8536756023431394e-04 -9.4660707267044120e-04
408 9.4434318512724981e-05 4.6305091167744166e-04 -9.0225013182655125e-04
409 -8.7835114207868473e-04 4.2345784853997588e-04 1.5771353584401694e-04
410 -4.5036034328598565e-04 8.0779882052414015e-04 3.5477604892884341e-04
411 5.5865020640233375e-04 4.2242133422251812e-04 -7.2114396853750079e-04
412 4.6493596543899495e-04 6.5295746045121092e-04 5.9899632640280709e-04
413 8.1049366892803842e-04 2.9131362261662440e-04 5.0070634346067913e-04
414 8.3306661961734499e-04 3.8918774096438277e-04 3.7117721092778705e-04
415 5.0920678789142042e-05 -1.3686696763820519e-04 -1.0188000864390361e-03
416 -9.6326314391759974e-04 2.0713383456803780e-04 -4.2297422431935811e-05
417 -6.1040103697032147e-05 3.4312374302478398e-04 -9.6238241393120248e-04
418 -1.2330013174694101e-04 2.2700302302796203e-04 -9.9366165711835784e-04
419 5.7107744977036929e-05 1.7027050546288106e-04 -1.0117817147330924e-03
420 -7.3985309512732153e-05 -8.3904553285232261e-05 -1.0233003457035322e-03
421 -9.3466924944631826e-04 3.1076426967532146e-04 4.8463830660061243e-05
422 8.0011665624772513e-04 -2.5207349269225875e-04 -5.4059524403926877e-04
423 8.0808026167925170e-04 -3.6966378071716518e-04 -4.4661034982269724e-04
424 2.5301587437009823e-04 9.4632842087316940e-04 1.1850662807072757e-04
425 3.3322739735986425e-05 -6.8387216944872076e-04 -7.4090098661558769e-04
426 2.3533947285625809e-05 -5.4852775656582967e-04 -8.5489706827277152e-04
427 -8.4291343109175996e-05 -5.9304890115309105e-04 -8.1635700558664972e-04
428 4.0955558838437375e-04 -8.8455563807444059e-04 -1.5973711347981796e-04
429 3.2636388766871282e-04 -8.9511801588247424e-04 -2.6730567355913746e-04
430 3.6333695063939827e-04 -8.4035213140411420e-04 -3.8302901001824828e-04
431 -6.0265584015173400e-04 -7.1628784621314634e-04 3.2317757922078062e-04
432 -6.4269671029625140e-04 -6.2097357981225759e-04 4.3525475393647086e-04
433 1.4001703985029140e-04 -3.5449572787920946e-04 -9.4952739799605682e-04
434 -7.4867653279147178e-06 5.6476191525108054e-04 -8.4333794165704086e-04
435 7.3506239335950253e-05 6.6972802959981573e-04 -7.4984615524888577e-04
436 8.7938193707000930e-04 2.4778902920398753e-04 3.8676011836991277e-04
437 8.9535469014759002e-04 3.2783688160602931e-04 2.6267407301733866e-04
438 8.4905037688651024e-04 4.4411705831092483e-04 2.4243377120105716e-04
439 7.6173671251574362e-04 2.1244706130488908e-04 6.1401942243294446e-04
440 -5.7848372085484833e-04 7.4665222652060695e-04 2.9456719618596475e-04
441 -6.9343981691725553e-04 6.7137988325553062e-04 2.1175047817475914e-04
442 6.8551074505249817e-04 -1.1763962501388253e-04 7.2915718083024956e-04
443 7.2248515912899549e-04 -2.4042672147082348e-04 6.5357173410073943e-04
444 8.1734951915095506e-04 -2.4056670661554901e-04 5.1805470094470982e-04
445 7.4894933232692732e-04 -3.6122798293285635e-04 5.5283099769112940e-04
446 8.2198084462641312e-04 -3.6307566352877270e-04 4.2447474530341668e-04
447 7.4517352333822791e-04 -4.6851175863199188e-04 4.6406839303927993e-04
448 6.6818877441164875e-04 -4.6753638324556376e-04 5.7792162340647218e-04
449 8.0660341425326464e-04 -4.7224090609010970e-04 3.3000067559562729e-04
450 8.7497929395114913e-04 -3.5805884409968410e-04 2.9488427980487857e-04
451 6.4462676089647802e-04 -5.8704956583845169e-04 4.8221318359424365e-04
452 6.7533809125210151e-04 1.3346674123469005e-04 7.3694304433557047e-04
453 -5.6670595856087036e-04 -7.9922909308232227e-04 1.2093914217103076e-04
454 2.5826383010952940e-05 -4.2244003250804742e-04 -9.2997159409536419e-04
455 9.0040952837060109e-04 3.8207538297716339e-04 1.3382378357068686e-04
456 4.5403665481830136e-04 -2.1823923272245029e-04 -8.8461238212449817e-04
457 4.9986501075471651e-04 5.3839596230204068e-04 -6.8400579484782125e-04
458 6.1052861336816642e-04 -2.4363088466266501e-04 7.6748503354011788e-04
459 1.4617625853695135e-04 9.5437422408370018e-04 2.0826764127416906e-04
460 6.1717858984961578e-04 6.9983808554793889e-04 3.3215683218737262e-04
461 3.8762417410465657e-04 5.6099690867162180e-04 -7.4105251417710516e-04
462 -4.1853711538981665e-04 7.0607789112890791e-04 5.6750100814512855e-04
463 7.8029658341226900e-04 -1.3392299729113969e-04 -6.1268635317755890e-04
464 8.7177566283387913e-04 -2.4696616095581041e-04 -4.0673942690306637e-04
465 8.6907301783156266e-04 -3.6230585386410068e-04 -3.0783707295620248e-04
466 1.1135450611777214e-05 8.2912236907575028e-04 -5.5465259206176473e-04
467 9.2084977822829697e-04 -2.4186131964805844e-04 -2.6992134592073076e-04
468 9.0959860038233528e-04 -3.4826259688944310e-04 -1.6875312929684878e-04
469 1.4862060785709785e-04 3.5002502674432671e-04 -9.4919593267942567e-04
470 8.4442923033220627e-04 -4.7137946399306024e-04 2.0633051305156530e-04
471 9.0878235852525746e-04 -3.4514089893823442e-04 1.7727259971739832e-04
472 1.9670969964393701e-04 7.7393628964019130e-04 6.0185671537455159e-04
473 1.3807596150922487e-04 -2.2300020452783594e-04 -9.9264744553176202e-04
474 2.2692063766918569e-04 -8.9345262109539569e-04 -3.6627658240353926e-04
475 5.6697070731933426e-04 7.6381863560639075e-04 -2.6993494672993820e-04
476 3.1436335651886376e-04 7.1862355133683160e-04 6.2148549364610464e-04
477 2.8921495380081143e-04 7.3104925793412079e-04 -6.1927543593002902e-04
478 -1.9128164587060950e-04 -5.6447283494894245e-04 -8.1828893336874386e-04
479 -1.8341221694011194e-04 -6.7775298381856557e-04 -7.2124176747251085e-04
480 -3.9391629685615892e-04 8.2447568623920237e-04 -3.8495318431714705e-04
481 1.9272163100122536e-04 6.6254658653100819e-04 -7.3318024034612240e-04
482 7.5259767625636604e-04 -5.9928604138000888e-04 2.3413034839034908e-04
483 8.7832466003402764e-04 -4.4214089019211793e-04 8.8329915674372684e-05
484 9.3115008430819058e-04 -3.2041995410493043e-04 6.4794166411610488e-05
485 5.7839587511004280e-04 -2.4427281061180188e-04 -7.9303701094664183e-04
486 4.0049871049460683e-04 1.4911687373444349e-04 -9.2696673278912505e-04
487 9.7609674183709032e-04 1.2717655262836961e-04 -7.3091717599450858e-05
488 9.4409181898315200e-04 2.6615925042572781e-04 -1.1828483153175985e-04
489 9.5876010683998685e-04 2.3016117106899471e-04 1.1301204244465440e-05
490 8.9182110903026778e-04 4.1421048111220930e-04 -8.5553201346703537e-05
491 3.4223623646571425e-04 9.2483072784948865e-04 1.6840807884945999e-05
492 3.1252425094706001e-04 9.2782299878339781e-04 -1.2717098271728509e-04
493 4.3341971042551816e-04 8.8279970997941497e-04 -7.4775523173129562e-05
494 9.0428675726050302e-04 -3.9403183173264704e-04 -2.9703220549187156e-05
495 9.4452155951378614e-04 -2.7955134325845498e-04 -6.0566501560674160e-05
496 -3.9047653828802131e-04 9.0507639318264453e-04 2.0119092687484568e-05
497 9.7608305011199657e-04 1.2827471153394540e-04 7.0458266418083811e-05
498 6.7650220667876410e-04 6.7490171775931075e-04 -2.5379645935644511e-04
499 9.7722404735265571e-04 -1.2612319627424183e-04 -6.7697471062941556e-05
500 9.6006507188446059e-04 -1.0899403425939875e-04 2.0819029050556494e-04
501 9.2118842877630871e-04 -1.1919932463006203e-04 -3.4662350567040188e-04
502 8.6383553694645450e-04 1.2397810858406509e-04 -4.7846596926570906e-04
503 8.6912783146924559e-04 -1.1470469150890113e-04 4.7131256878841376e-04
504 4.3734836031613495e-04 1.0852075768659369e-04 9.1556718517457169e-04
505 4.2270693561243682e-04 3.2201352829596292e-04 8.6642125210360484e-04
506 6.5495383715288857e-04 -3.5219054438640450e-04 6.7503368508728791e-04
507 3.2966521847943055e-04 -1.2602924132259558e-04 9.6166296458591793e-04
508 8.3475134025416317e-05 -1.2425517739336818e-04 1.0189601261074992e-03
509 1.5185619483806532e-04 -2.2957306755928979e-04 9.8910141267266193e-04
510 2.5969484126080292e-04 -2.0380389105906544e-04 9.6968571914270900e-04
511 -1.9852260891542968e-04 6.8531222638189998e-04 -7.0831328043014831e-04
512 2.7520245311527441e-04 9.1710759793535261e-04 2.4530816229750905e-04
513 5.7817969033985457e-04 -7.9948881061634618e-04 -3.4493466062686392e-05
514 2.6468797257127671e-04 -9.5023502687343274e-04 3.6105591392546155e-05
515 2.9813221764168809e-04 -9.2856857919433112e-04 1.5853030237591436e-04
516 -5.4604514957875465e-04 5.6731825592580868e-04 -6.1722646562226331e-04
517 7.6376885366285130e-04 -5.7740567148659291e-04 -2.4941696060259044e-04
518 -1.4446781567644060e-04 -9.7535015155904542e-04 -4.2367079552372972e-05
519 -2.8381126281752769e-04 -9.4468425708979942e-04 -4.5316650689123233e-05
520 -3.2691440822936051e-04 -9.1462679611830310e-04 -1.8146453826994470e-04
521 -7.8471683410130774e-04 5.2062419202367682e-04 -3.0353325734441545e-04
522 -9.7458725973373654e-04 9.1187699377720009e-05 -1.2257301361367058e-04
523 7.7599962180063874e-04 5.9832372424543521e-04 1.1725101006683621e-04
524 -7.9391748845775547e-04 -5.3529072871124066e-04 2.4670623517986681e-04
525 7.7465465904444852e-04 5.0704283774761561e-04 3.5321555913021911e-04
526 4.8912296337849160e-04 -7.6953771847778111e-04 -3.9274542347960068e-04
527 -9.3993713889675950e-04 -2.7856734326711581e-04 -1.1238308865117898e-04
528 -9.3606102109005838e-04 -7.1249814555657620e-05 3.1427638333585427e-04
529 -9.1118687927938403e-04 5.2589900282318693e-05 3.8821281608801924e-04
530 -8.3864677937733824e-04 5.3285834945801966e-05 5.3778361079813951e-04
531 -7.6517054414021652e-04 -6.1381071869006667e-04 -1.0992458088949030e-04
532 -9.6793474360036980e-04 -7.1556800307430831e-05 1.8132266655489275e-04
533 -7.3357175881369160e-04 5.4112041491530651e-04 3.9006787800740400e-04
534 -6.9464534752755060e-04 6.9902692747236816e-04 -1.7843759463251641e-05
535 -2.4255034793309316e-04 -9.1532292015488099e-04 -2.8907402582869498e-04
536 6.2222460221076411e-04 7.5180256702366075e-04 -1.4817768160615494e-04
537 -1.3634607737610875e-04 -8.9016613080815127e-04 4.2000773199983468e-04
538 -3.8222258002890707e-05 9.8204505965912396e-04 -8.0155549758896034e-05
539 -1.7803587602998111e-04 9.3952612913036969e-04 -2.4814132965551568e-04
540 6.1832434722834689e-05 9.6752237023663037e-04 -1.8945871259275833e-04
541 -9.2826123875432078e-04 2.8124456756420727e-04 1.8391601475609005e-04
542 -8.6786245452898580e-04 -4.2572377950531780e-04 2.0456092504024620e-04
543 -7.9847634795950388e-04 -8.0910055183633307e-05 5.9621227461242648e-04
544 -7.4954160536769678e-04 1.9875002372652007e-05 6.6616357387293008e-04
545 -6.5524917943426237e-04 -5.2814765730486025e-04 -5.3515986680032065e-04
546 -7.4633587880684196e-04 -4.2303931949707718e-04 -5.0555521927325513e-04
547 -7.5518311359563559e-04 -2.9812686857035243e-04 -5.8218440865024615e-04
548 -6.6200376577188881e-04 -2.7902753527645380e-04 -7.0351247282000949e-04
549 2.6214934171539219e-04 -8.1244229389993035e-04 5.1524033155275404e-04
550 5.8258392915035281e-04 6.0234440650018550e-04 5.3955257684184111e-04
551 8.6551462090519039e-04 3.6031295707441668e-04 -3.1835720446453494e-04
552 8.8368838894171693e-04 -2.3891327428615574e-04 3.8351255476584738e-04
553 1.5991637511600701e-04 -7.7297637808026488e-04 6.1663925796550713e-04
554 -4.4134722109330401e-04 -6.4703120640125769e-04 6.2539718306327122e-04
555 -3.8359395184928889e-04 -5.5992471764550883e-04 7.4548778903376408e-04
556 -8.2755890217859100e-04 -4.2863944419911599e-04 3.3576940599239051e-04
557 -5.9802608855007643e-04 -7.1547834919193727e-04 -3.3379880058718352e-04
558 -7.2077270144602459e-04 2.4766234941673253e-04 6.5080472174602953e-04
559 -6.7958963662418932e-04 -4.4315264689825977e-04 5.8335703351856689e-04
560 -5.8809799436468130e-04 -5.6077984669203340e-04 5.8295057810482090e-04
561 6.2975429955857364e-04 4.8191898976184374e-04 -6.1090945250910536e-04
562 -3.2423277403859741e-04 -6.8123430004867272e-04 -6.6187419741500319e-04
563 -4.8625320097797788e-04 5.1541239716722069e-04 7.1376613054751085e-04
564 7.2618244084996181e-04 -4.8295214949126716e-04 -4.8054110402780836e-04
565 -8.4113845980687425e-05 -2.8524177301563543e-04 9.8216379345284865e-04
566 -1.0618674927714231e-04 -4.1366006450629657e-04 9.2811988207069007e-04
567 -2.0857956474741905e-04 -3.2651915645885590e-04 9.4693181732045267e-04
568 -1.6765014591715765e-04 -6.5302874858400039e-04 7.5060480368580301e-04
569 3.9962333534771205e-04 -6.6916127044661599e-04 -6.2976609521736570e-04
570 -7.0771016868921251e-04 -1.0362884875197412e-04 7.0628637227681233e-04
571 5.4292120038788546e-04 3.1502754188540775e-04 7.9250480350323798e-04
572 4.9314070689969014e-04 -3.4179249587915588e-04 -8.1633614647204041e-04
573 1.3473317516538702e-04 -3.4644223736917068e-04 9.5393264030359790e-04
574 -7.4041106507631007e-04 1.9608079997783203e-04 -6.4591818897027811e-04
575 1.5485652240800188e-04 -4.7859448051869812e-04 -8.8527080929918383e-04
576 -4.4843835492870769e-04 -4.2632446876727061e-04 8.0154918345621737e-04
577 -3.2824060412841937e-04 3.7509506291912703e-04 -8.8722459178518795e-04
578 -2.6355597181757531e-04 2.4577368834423423e-04 -9.5796008676610916e-04
579 -3.2632286064791820e-04 1.6136105141089781e-04 -9.5616395103169578e-04
580 -4.9367410509003676e-04 9.4886803267689207e-06 -8.9014999719923618e-04
581 4.5461721501312388e-04 -5.6011660624204673e-04 7.0255283727911025e-04
582 4.7899794981818005e-04 -2.9659031613157741e-04 8.4445337296152733e-04
583 -4.4645312755937401e-04 1.3722656241659835e-04 -9.0569934707988322e-04
584 -4.1407740808186984e-04 1.9709183821348944e-04 9.1074925903034164e-04
585 -4.5652179498131942e-04 6.1300419399347959e-05 9.0963247684598941e-04
586 -3.3786075070149190e-04 -4.2844958201063838e-04 -8.5650652582953935e-04
587 2.8530270297138380e-05 9.4419653993983060e-04 2.9360913218627241e-04
588 -4.0159022948289992e-04 -7.6966657666066742e-05 -9.3641463585457916e-04
589 -2.6964245290385315e-04 -4.7273862824805248e-05 -9.8915535355790694e-04
590 -1.6069904529619124e-04 -1.3463257134931471e-04 -1.0064565765005586e-03
591 -1.6410302267760662e-04 4.2863823672148834e-04 9.1025383890491773e-04
592 -5.1160485589155579e-04 7.8755191441468378e-04 -3.1215459827496254e-04
593 -2.4459832826626113e-04 5.4780014733694263e-06 9.9748067045922636e-04
594 3.6326075579206984e-04 2.1609138159511460e-04 9.3002616127117385e-04
595 -7.9347892132816634e-04 5.6166306954290519e-04 1.7079652517795887e-04
596 4.2291229600197630e-04 -8.7556552196665937e-04 1.7691536059000678e-04
597 1.0369349456159212e-04 4.4170389842959629e-04 9.1346587318403161e-04
598 3.2451944268432279e-04 8.9338158267017627e-04 -2.7203413791064313e-04
599 1.8638426968264359e-04 -6.7301180725307976e-04 7.2629458087235450e-04
600 -5.2054919688422326e-04 -8.0395911967785783e-04 2.4641150037448104e-04
601 -8.3999022478184807e-04 4.0007493033670280e-04 -3.3881536248688769e-04
602 -8.0826144392600848e-04 3.4723920682760203e-04 -4.6239188346174249e-04
603 -7.4045755491905843e-04 -5.3286014006899787e-04 -3.9148429402777500e-04
604 -9.0297811178065041e-04 1.5245954048205421e-04 -3.7948521035688408e-04
605 -4.0221435475629343e-04 -9.0049410834938724e-04 2.6483036509560820e-05
606 -3.1239192324442641e-04 8.4891436126041176e-04 4.0706629885731090e-04
607 3.7304873003501433e-05 1.3682514549159358e-04 1.0189623496784869e-03
608 -5.8061644696362740e-05 7.7068062740950514e-04 6.3698300350693501e-04
609 -7.4980884188656917e-04 -1.7123335079606583e-04 -6.4229736300737276e-04
610 9.4368818639092259e-04 2.5806850948956167e-04 1.3799108056624621e-04
611 4.1715818752878194e-04 -9.2212220677032275e-05 -9.2772328061015976e-04
612 9.2070160328710442e-04 1.1945930071534642e-04 3.4708044588969180e-04
613 -3.7713098615812130e-04 -8.6297029447891479e-04 -3.0627302211985209e-04
614 4.6707510664249777e-05 -7.9457081364452391e-04 -6.0680519810065489e-04
615 4.6419362617496497e-04 -8.7023631567364926e-04 -4.0123520311733709e-05
616 -6.7592468453058429e-04 -6.9362520827067427e-04 -1.9809852238131077e-04
617 -9.2507887618055993e-04 -2.4573970942532797e-04 -2.4653605787746454e-04
618 -6.2034601482081463e-04 4.4577166735058313e-04 -6.4838211881407639e-04
619 1.8047551984017301e-04 -9.4591153763832071e-04 -2.2746582931807246e-04
620 -3.6328654069396079e-05 -9.3323273220952650e-04 3.3203144690702511e-04
621 3.9132378495770887e-04 -7.6221607123744034e-04 -5.0915266993006327e-04
622 -2.1876098458651640e-04 -4.4444889272541075e-04 8.8970375174025895e-04
623 7.9392237158373890e-04 -4.8082467831220206e-04 -3.4904357695727980e-04
624 9.2025990649082922e-04 1.2805403880742009e-04 -3.4515123995790227e-04
625 -4.0765135174641886e-04 6.1257552163972748e-04 6.8241585579872184e-04
626 -2.5380823715863378e-04 -5.5891762260892950e-04 8.0477023489098091e-04
627 -9.0137083266595693e-05 5.3726654157315904e-04 8.5671177044697490e-04
628 4.6363990560136621e-04 8.6945029378386021e-04 4.4775783251617154e-05
629 -9.5407229581434409e-04 4.7338062452392758e-05 2.5399189001370891e-04
630 -5.9104914167002972e-04 7.7378974575560092e-04 1.5967228079435757e-04
631 -8.3100613017469136e-04 -1.9447873371524670e-04 -5.1359385283336959e-04
632 -4.0668546509952768e-04 8.6451550110442515e-04 -2.5302914653594125e-04
633 9.2087335946493059e-04 2.4092912072084871e-04 -2.6939091968134534e-04
634 -3.2911268314059509e-04 1.0371705906935921e-04 9.6425459494795158e-04
635 3.8946823304851426e-04 -9.0525365595510139e-04 5.8478113441450472e-05
636 -6.8048891574662510e-05 -9.6538392955019701e-04 2.0099378397006124e-04
637 -4.9016932155905091e-04 -6.6519993343530117e-05 8.8973401478381836e-04
638 4.4673061738858232e-04 2.6716881358452481e-04 -8.7180956103525295e-04
639 4.4529138063005206e-04 -1.0480868230986959e-04 9.1191336302956559e-04
640 -6.4671067085365872e-05 6.6876837870717991e-04 -7.5134377176238351e-04
641 -9.4905810002340765e-04 2.1731206456209614e-04 -1.6084511215092525e-04
642 -8.7464944972955397e-04 2.7749735387996963e-04 -3.7441866242519532e-04
643 2.8283039632362770e-04 -7.2401886070556974e-04 6.3270423222066229e-04
644 5.6821176248470536e-04 -4.5525453651756875e-04 6.9314138488587923e-04
645 6.1700867372539042e-04 2.2546896225364692e-04 -7.6584752464577024e-04
646 -2.0603474441208480e-04 1.2527246021753075e-04 9.9831976039711150e-04
647 2.4919855901269482e-05 5.5165728287800541e-04 8.5155419806153779e-04
648 -7.4363459159736145e-04 5.8933926269096244e-04 2.7494088873888998e-04
649 -2.5954219390972831e-04 9.4777124184354901e-04 8.2613346297693500e-05
650 9.2602792598374861e-04 -2.3224004736755618e-04 2.5978402953487508e-04
651 -4.6611901784331393e-04 -8.5161711981767882e-04 -1.8619219372480834e-04
652 -8.6995387104227718e-04 -3.4123165725569800e-04 -3.2663267486087095e-04
653 -1.8888067977715795e-04 1.2216604826810405e-04 -1.0025239465920807e-03
654 8.4312654299973776e-04 -4.6633212666888298e-04 -2.2214432757949653e-04
655 -7.1733774539879528e-04 4.1031290038953601e-04 -5.5859926803033622e-04
656 6.6291607321999717e-04 -1.3470542860496843e-04 -7.4797765659381581e-04
657 -7.4555564829287399e-04 -5.4054391887022025e-04 3.6707928040626713e-04
658 -3.7901825111607011e-04 3.8840562612769341e-05 -9.4886781032464652e-04
659 -1.3668881949627435e-04 5.5494825931016743e-06 -1.0205023721692418e-03
660 -4.1756090951536387e-05 3.3555793211996899e-05 -1.0278411550960851e-03
661 8.4129158839457002e-04 -5.1577013487735823e-04 -1.2756927284073468e-05
662 5.1251335571665718e-05 -2.3692020546144286e-04 9.9890514910816464e-04
663 5.1582677427400856e-04 8.2499141388312142e-04 -1.6563012724210072e-04
664 -2.8125348114530461e-04 9.4346296483669996e-04 -5.3742550421515950e-05
665 -2.9205742936303587e-04 9.2475712595699181e-04 -1.8400004237163094e-04
666 -6.3353562704054239e-05 1.2241044836052692e-04 -1.0202943822282308e-03
667 2.6302593969936629e-04 -8.2869741509806766e-04 -4.8513916921469677e-04
668 -5.7281446584159473e-04 3.3142739648067812e-05 8.3579457437759849e-04
669 -8.2407800851490916e-04 -3.1260924922448560e-04 -4.5916996138836897e-04
670 -5.0088051459408088e-04 8.4446275067519944e-04 9.2084024492814238e-05
671 -9.5577094057921867e-04 1.5402041990799170e-04 1.8934117993291805e-04
672 5.5865928748065471e-04 -3.5853239835060804e-04 7.5921701507842686e-04
673 -7.0205870410456382e-06 2.3899386516153042e-04 -9.9867815971253402e-04
674 -1.9233205260715881e-04 -9.5486390508218685e-04 1.6373034340228291e-04
675 4.1137956296777452e-04 7.4514489701757111e-04 5.1605601386139552e-04
676 8.0216180010847570e-05 7.3767475078182778e-04 6.7586913208448089e-04
677 4.7211162441892774e-04 2.2247892290667022e-04 8.7261104579780047e-04
678 -4.8215832809441134e-04 -7.8448456848165423e-04 3.6756758523737019e-04
679 3.1721483704704530e-04 -7.7224106646374936e-05 -9.7153677300278293e-04
680 3.9807958523317385e-04 -6.6705854064570539e-04 6.3190289105549365e-04
681 -8.7612880796010702e-04 1.5633057763314947e-04 4.3905829018835895e-04
682 -8.8803798130363974e-04 4.2632583717999262e-04 1.5279340271478976e-05
683 -6.9946084017125977e-05 1.8558976206033935e-05 1.0264573396223408e-03
684 3.4799435101557090e-04 -9.2202880389400440e-04 -5.2933226985658022e-05
685 4.0806065446874148e-04 8.7880836955793852e-04 -1.8533551234323225e-04
686 1.6859492327724911e-04 -7.9617129612012281e-04 -5.7859252699414240e-04
687 1.8204072484209711e-04 9.6060746621924402e-04 -1.2621913357538137e-04
688 -8.0745613020593730e-04 -4.1929774657972145e-04 -3.9278171316923529e-04
689 -5.4279141940294427e-04 -6.5154422840315543e-04 5.2194086103445362e-04
690 5.7707691811723690e-04 -6.8468808658398307e-04 4.2953511239735562e-04
691 9.5103460314675619e-04 -2.2488813306270418e-04 1.4131663300856779e-04
692 -6.8405274481017956e-04 -5.3178768842404469e-04 4.8832741286701140e-04
693 9.2505658755716465e-04 2.1981974636173189e-04 2.7026354525651878e-04
694 -1.7481781090050442e-04 9.6305820391295177e-04 -1.2028566110536458e-04
695 9.0312463048123812e-04 3.4661218721382901e-04 -1.9679550842394646e-04
696 -4.1422154171109999e-05 6.6482726969853585e-04 7.5823921013877050e-04
697 -3.3379320747892578e-04 -4.7714122696694561e-04 8.2890132205834998e-04
698 9.2370494041402521e-04 3.4708755159911322e-04 1.7266677502574652e-05
699 -4.9275033149510851e-04 -5.3433610815115681e-04 6.9307122312995762e-04
700 -6.6345267793190216e-04 -1.9984209123354219e-06 7.5821293574329098e-04
701 5.7221922348660369e-04 -5.5573507258575318e-04 6.0303159284553532e-04
702 -6.8475402139509401e-04 -6.3835602231546206e-04 -3.2012626550589109e-04
703 -7.6089404743237110e-04 2.9750226040642185e-04 -5.7202444848700759e-04
704 5.1096578789771190e-05 3.5013694044207602e-04 -9.6024657981225495e-04
705 3.1659797912092041e-04 6.4309158661181136e-04 -7.0310532585541805e-04
706 -3.1946467454875804e-04 6.9678583801585149e-04 6.4325809581714834e-04
707 1.1344358582036763e-04 -9.2432720963966420e-04 -3.3694183231703035e-04
708 -6.7575872311171812e-04 7.1093508944764970e-04 9.2777140967709195e-05
709 1.0731390758452379e-05 7.5109534311253157e-04 -6.6295807306190066e-04
710 -4.0180162266424701e-04 7.8017785284544949e-04 4.6483755912392908e-04
711 -9.2326323947872126e-04 2.2127515722235636e-04 -2.7242230318315466e-04
712 7.7722649350531745e-04 1.0761573465093315e-04 6.2113387586744851e-04
713 -2.2169820526351576e-04 -7.5301373993309263e-04 -6.1996728772676507e-04
714 6.3813664659639240e-04 3.4496137234337534e-04 -6.9526620760943121e-04
715 -2.0892735289554119e-04 -9.6225257851845637e-04 5.3479099487620318e-05
716 -2.4680861111651335e-04 4.4472637294412897e-05 -9.9500447213610199e-04
717 -3.9643930457357697e-04 -8.9849622365528715e-04 -9.0550453068834842e-05
718 5.0238811744233959e-04 -2.0472833010391626e-04 8.5841168417651569e-04
719 7.2664192159886101e-04 -5.6247367203427867e-04 3.7228798575845236e-04
720 8.3879624603891347e-04 4.9671255458254000e-04 1.5024740329107182e-04
721 2.4225348575091269e-04 -1.6349792452939740e-04 -9.8245017235189941e-04
722 -5.6904154055047445e-04 -7.7362043589317771e-04 -2.3106287886575671e-04
723 5.1585425159356148e-05 7.1723238958899750e-05 -1.0254681556533976e-03
724 -1.8373900132361148e-04 7.2000438742624820e-04 6.7538221094750445e-04
725 8.6539660113286315e-04 -4.6034363296282332e-04 -1.1203762021233014e-04
726 5.7985038567063087e-04 2.1711863089302516e-04 7.9894379072862460e-04
727 7.8237630973079341e-04 5.5591157749693241e-04 2.3411767869380720e-04
728 5.4313625110991915e-04 5.9959776754808553e-04 -5.8456681868672162e-04
729 4.5073399294346718e-04 1.0474524502072272e-04 -9.0742971766682122e-04
730 7.1509239821338692e-04 6.0526128180284989e-04 3.1733458268737096e-04
731 -2.6467771772781799e-04 -6.1421972460138057e-04 -7.5225143913864657e-04
732 3.4508300973219941e-04 6.3426434499684755e-04 6.9760439364135562e-04
733 -7.3322564161610508e-05 9.6598166277500836e-04 -1.8465250255251826e-04
734 -2.4367002382988214e-04 -4.7862632061168613e-04 -8.6140284366319718e-04
735 9.4925650107271977e-04 -2.2166069410840309e-04 -1.5472617251548613e-04
736 9.6137735555038343e-04 -2.1644733911242977e-04 3.3898561630034403e-05
737 -3.0654106091905160e-05 -8.7015696259633993e-05 1.0249907055791283e-03
738 -5.0162512639792631e-04 -8.4737005575024043e-04 4.7437558150906827e-05
739 5.1045219369759323e-04 1.9580642506344037e-04 -8.5471716514438022e-04
740 -7.6241751289480848e-04 1.3494521952649087e-04 6.3358071464770507e-04
741 -1.5024460088253265e-04 3.6772380455212446e-05 1.0163362726179014e-03
742 -5.4344008825544935e-04 -7.1070445556011236e-04 4.2927484801557784e-04
743 -2.2439890076885659e-06 4.3584541831780983e-04 -9.2159551744696146e-04
744 2.9496372771654742e-04 -9.2842285304133259e-04 -1.5892646902752999e-04
745 -7.7449408389377664e-05 -6.8552242962113309e-04 -7.3123540109277076e-04
$EndNodes
$Elements
1486
1 2 2 0 0 410 440 345
2 2 2 0 0 421 541 409
3 2 2 0 0 409 682 421
4 2 2 0 0 545 603 546
5 2 2 0 0 426 427 294
6 2 2 0 0 294 454 426
7 2 2 0 0 265 682 409
8 2 2 0 0 24 41 4
9 2 2 0 0 3 24 4
10 2 2 0 0 238 642 602
11 2 2 0 0 520 651 613
12 2 2 0 0 653 666 659
13 2 2 0 0 404 460 98
14 2 2 0 0 222 482 219
15 2 2 0 0 40 463 9
16 2 2 0 0 608 724 696
17 2 2 0 0 435 709 69
18 2 2 0 0 413 439 29
19 2 2 0 0 345 710 410
20 2 2 0 0 422 463 40
21 2 2 0 0 98 550 404
22 2 2 0 0 95 724 608
23 2 2 0 0 4 41 5
24 2 2 0 0 232 701 581
25 2 2 0 0 490 698 488
26 2 2 0 0 29 436 413
27 2 2 0 0 416 421 342
28 2 2 0 0 312 595 441
29 2 2 0 0 41 486 5
30 2 2 0 0 405 605 519
31 2 2 0 0 409 595 265
32 2 2 0 0 69 481 435
33 2 2 0 0 434 743 339
34 2 2 0 0 342 641 416
35 2 2 0 0 485 656 370
36 2 2 0 0 89 587 90
37 2 2 0 0 108 466 317
38 2 2 0 0 378 629 529
39 2 2 0 0 581 680 232
40 2 2 0 0 281 434 339
41 2 2 0 0 638 739 486
42 2 2 0 0 659 666 660
43 2 2 0 0 345 440 346
44 2 2 0 0 22 44 25
45 2 2 0 0 9 463 8
46 2 2 0 0 44 81 25
47 2 2 0 0 459 587 89
48 2 2 0 0 127 670 630
49 2 2 0 0 508 662 509
50 2 2 0 0 375 662 508
51 2 2 0 0 492 598 103
52 2 2 0 0 604 642 238
53 2 2 0 0 507 510 399
54 2 2 0 0 488 698 489
55 2 2 0 0 34 473 415
56 2 2 0 0 399 639 507
57 2 2 0 0 603 688 546
58 2 2 0 0 316 541 421
59 2 2 0 0 647 696 627
60 2 2 0 0 403 439 352
61 2 2 0 0 221 603 545
62 2 2 0 0 595 648 441
63 2 2 0 0 412 550 98
64 2 2 0 0 411 714 397
65 2 2 0 0 486 739 729
66 2 2 0 0 696 724 401
67 2 2 0 0 247 482 222
68 2 2 0 0 397 714 645
69 2 2 0 0 613 651 212
70 2 2 0 0 207 745 425
71 2 2 0 0 98 675 412
72 2 2 0 0 219 482 230
73 2 2 0 0 560 692 432
74 2 2 0 0 432 689 560
75 2 2 0 0 454 575 426
76 2 2 0 0 352 439 413
77 2 2 0 0 415 420 2
78 2 2 0 0 40 464 422
79 2 2 0 0 89 512 459
80 2 2 0 0 425 614 207
81 2 2 0 0 377 600 453
82 2 2 0 0 89 90 88
83 2 2 0 0 80 466 108
84 2 2 0 0 520 717 651
85 2 2 0 0 602 703 238
86 2 2 0 0 103 687 492
87 2 2 0 0 253 491 424
88 2 2 0 0 69 709 466
89 2 2 0 0 424 512 253
90 2 2 0 0 369 696 647
91 2 2 0 0 581 701 644
92 2 2 0 0 630 670 392
93 2 2 0 0 32 656 485
94 2 2 0 0 459 512 424
95 2 2 0 0 90 91 88
96 2 2 0 0 427 478 294
97 2 2 0 0 488 695 490
98 2 2 0 0 554 699 560
99 2 2 0 0 67 80 79
100 2 2 0 0 252 454 294
101 2 2 0 0 253 628 491
102 2 2 0 0 529 681 378
103 2 2 0 0 519 715 405
104 2 2 0 0 440 441 346
105 2 2 0 0 605 717 519
106 2 2 0 0 403 452 439
107 2 2 0 0 507 639 21
108 2 2 0 0 565 567 566
109 2 2 0 0 433 454 341
110 2 2 0 0 67 466 80
111 2 2 0 0 555 697 576
112 2 2 0 0 491 628 493
113 2 2 0 0 389 641 342
114 2 2 0 0 429 619 474
115 2 2 0 0 40 501 464
116 2 2 0 0 576 699 555
117 2 2 0 0 311 600 377
118 2 2 0 0 567 622 566
119 2 2 0 0 433 575 454
120 2 2 0 0 378 671 629
121 2 2 0 0 79 540 103
122 2 2 0 0 341 473 433
123 2 2 0 0 673 704 68
124 2 2 0 0 462 710 345
125 2 2 0 0 557 722 616
126 2 2 0 0 573 662 343
127 2 2 0 0 370 656 463
128 2 2 0 0 341 454 252
129 2 2 0 0 616 702 557
130 2 2 0 0 6 26 7
131 2 2 0 0 464 501 467
132 2 2 0 0 433 473 406
133 2 2 0 0 8 45 37
134 2 2 0 0 466 709 317
135 2 2 0 0 457 461 379
136 2 2 0 0 84 512 86
137 2 2 0 0 19 452 33
138 2 2 0 0 380 614 425
139 2 2 0 0 83 540 79
140 2 2 0 0 398 510 509
141 2 2 0 0 609 631 137
142 2 2 0 0 18 442 36
143 2 2 0 0 26 45 7
144 2 2 0 0 565 566 343
145 2 2 0 0 80 83 79
146 2 2 0 0 560 689 554
147 2 2 0 0 134 137 136
148 2 2 0 0 68 469 42
149 2 2 0 0 659 716 653
150 2 2 0 0 619 707 474
151 2 2 0 0 497 610 39
152 2 2 0 0 137 138 136
153 2 2 0 0 283 573 343
154 2 2 0 0 506 644 448
155 2 2 0 0 499 735 31
156 2 2 0 0 81 97 25
157 2 2 0 0 45 46 37
158 2 2 0 0 585 668 637
159 2 2 0 0 495 735 499
160 2 2 0 0 399 510 398
161 2 2 0 0 509 573 398
162 2 2 0 0 442 443 36
163 2 2 0 0 1 607 314
164 2 2 0 0 29 612 436
165 2 2 0 0 547 631 609
166 2 2 0 0 360 595 409
167 2 2 0 0 421 682 342
168 2 2 0 0 426 575 327
169 2 2 0 0 123 577 235
170 2 2 0 0 339 743 417
171 2 2 0 0 7 45 8
172 2 2 0 0 3 723 24
173 2 2 0 0 418 666 653
174 2 2 0 0 59 60 58
175 2 2 0 0 620 636 193
176 2 2 0 0 42 469 47
177 2 2 0 0 65 67 66
178 2 2 0 0 509 662 573
179 2 2 0 0 470 482 247
180 2 2 0 0 368 476 472
181 2 2 0 0 530 740 337
182 2 2 0 0 253 512 84
183 2 2 0 0 455 698 282
184 2 2 0 0 61 65 62
185 2 2 0 0 59 61 60
186 2 2 0 0 91 472 88
187 2 2 0 0 90 92 91
188 2 2 0 0 19 442 18
189 2 2 0 0 464 465 423
190 2 2 0 0 706 724 118
191 2 2 0 0 456 611 32
192 2 2 0 0 379 477 61
193 2 2 0 0 417 743 704
194 2 2 0 0 314 683 1
195 2 2 0 0 442 458 443
196 2 2 0 0 11 28 12
197 2 2 0 0 61 62 60
198 2 2 0 0 118 724 95
199 2 2 0 0 22 25 23
200 2 2 0 0 247 483 470
201 2 2 0 0 281 640 434
202 2 2 0 0 197 667 474
203 2 2 0 0 86 512 89
204 2 2 0 0 417 704 673
205 2 2 0 0 451 690 230
206 2 2 0 0 27 442 19
207 2 2 0 0 637 668 229
208 2 2 0 0 60 475 58
209 2 2 0 0 489 610 497
210 2 2 0 0 307 573 283
211 2 2 0 0 61 477 65
212 2 2 0 0 65 66 62
213 2 2 0 0 544 740 530
214 2 2 0 0 230 719 451
215 2 2 0 0 18 452 19
216 2 2 0 0 268 569 269
217 2 2 0 0 32 485 456
218 2 2 0 0 627 696 401
219 2 2 0 0 24 42 41
220 2 2 0 0 20 27 19
221 2 2 0 0 330 461 457
222 2 2 0 0 506 672 644
223 2 2 0 0 472 476 87
224 2 2 0 0 468 495 494
225 2 2 0 0 88 472 87
226 2 2 0 0 121 577 123
227 2 2 0 0 327 575 276
228 2 2 0 0 422 464 423
229 2 2 0 0 47 63 49
230 2 2 0 0 458 506 443
231 2 2 0 0 232 690 451
232 2 2 0 0 28 487 12
233 2 2 0 0 80 107 83
234 2 2 0 0 608 696 676
235 2 2 0 0 356 481 355
236 2 2 0 0 138 238 136
237 2 2 0 0 137 139 138
238 2 2 0 0 729 739 26
239 2 2 0 0 81 99 97
240 2 2 0 0 46 50 37
241 2 2 0 0 463 656 8
242 2 2 0 0 443 444 36
243 2 2 0 0 68 704 469
244 2 2 0 0 24 68 42
245 2 2 0 0 16 503 30
246 2 2 0 0 65 69 67
247 2 2 0 0 67 79 66
248 2 2 0 0 676 696 369
249 2 2 0 0 59 379 61
250 2 2 0 0 90 93 92
251 2 2 0 0 464 467 465
252 2 2 0 0 441 708 312
253 2 2 0 0 483 484 471
254 2 2 0 0 427 479 478
255 2 2 0 0 245 564 244
256 2 2 0 0 470 483 471
257 2 2 0 0 473 721 406
258 2 2 0 0 555 699 554
259 2 2 0 0 47 469 63
260 2 2 0 0 63 355 49
261 2 2 0 0 62 64 60
262 2 2 0 0 80 108 107
263 2 2 0 0 107 539 83
264 2 2 0 0 139 140 138
265 2 2 0 0 99 100 97
266 2 2 0 0 81 236 99
267 2 2 0 0 46 51 50
268 2 2 0 0 443 445 444
269 2 2 0 0 24 419 68
270 2 2 0 0 69 466 67
271 2 2 0 0 79 103 66
272 2 2 0 0 65 477 69
273 2 2 0 0 547 548 321
274 2 2 0 0 93 94 92
275 2 2 0 0 467 468 465
276 2 2 0 0 333 664 649
277 2 2 0 0 55 498 56
278 2 2 0 0 56 498 72
279 2 2 0 0 12 499 31
280 2 2 0 0 63 356 355
281 2 2 0 0 108 110 107
282 2 2 0 0 139 141 140
283 2 2 0 0 100 101 97
284 2 2 0 0 236 248 99
285 2 2 0 0 81 594 236
286 2 2 0 0 51 52 50
287 2 2 0 0 192 515 195
288 2 2 0 0 445 446 444
289 2 2 0 0 477 481 69
290 2 2 0 0 94 95 92
291 2 2 0 0 93 96 94
292 2 2 0 0 63 408 356
293 2 2 0 0 108 111 110
294 2 2 0 0 110 117 107
295 2 2 0 0 139 154 141
296 2 2 0 0 141 142 140
297 2 2 0 0 51 53 52
298 2 2 0 0 100 102 101
299 2 2 0 0 236 250 248
300 2 2 0 0 445 447 446
301 2 2 0 0 52 388 50
302 2 2 0 0 277 622 567
303 2 2 0 0 95 608 92
304 2 2 0 0 94 118 95
305 2 2 0 0 93 104 96
306 2 2 0 0 51 561 53
307 2 2 0 0 408 434 356
308 2 2 0 0 53 54 52
309 2 2 0 0 445 448 447
310 2 2 0 0 108 317 111
311 2 2 0 0 141 143 142
312 2 2 0 0 142 225 140
313 2 2 0 0 102 166 101
314 2 2 0 0 250 325 248
315 2 2 0 0 100 258 102
316 2 2 0 0 53 55 54
317 2 2 0 0 447 449 446
318 2 2 0 0 236 505 250
319 2 2 0 0 104 105 96
320 2 2 0 0 53 57 55
321 2 2 0 0 55 56 54
322 2 2 0 0 448 451 447
323 2 2 0 0 14 39 15
324 2 2 0 0 317 511 111
325 2 2 0 0 10 40 9
326 2 2 0 0 143 144 142
327 2 2 0 0 57 58 55
328 2 2 0 0 8 37 9
329 2 2 0 0 14 38 13
330 2 2 0 0 166 314 101
331 2 2 0 0 18 36 17
332 2 2 0 0 16 29 17
333 2 2 0 0 33 504 20
334 2 2 0 0 325 365 248
335 2 2 0 0 199 202 196
336 2 2 0 0 7 32 6
337 2 2 0 0 434 435 356
338 2 2 0 0 74 75 73
339 2 2 0 0 223 239 234
340 2 2 0 0 74 76 75
341 2 2 0 0 72 74 73
342 2 2 0 0 231 549 201
343 2 2 0 0 202 205 204
344 2 2 0 0 226 227 214
345 2 2 0 0 272 275 271
346 2 2 0 0 276 318 275
347 2 2 0 0 213 214 209
348 2 2 0 0 76 77 75
349 2 2 0 0 210 231 201
350 2 2 0 0 16 30 15
351 2 2 0 0 205 209 208
352 2 2 0 0 202 204 196
353 2 2 0 0 318 406 340
354 2 2 0 0 195 196 193
355 2 2 0 0 322 420 415
356 2 2 0 0 239 240 234
357 2 2 0 0 163 588 168
358 2 2 0 0 12 31 11
359 2 2 0 0 56 72 71
360 2 2 0 0 425 426 327
361 2 2 0 0 19 33 20
362 2 2 0 0 168 224 215
363 2 2 0 0 209 568 216
364 2 2 0 0 318 433 406
365 2 2 0 0 269 271 270
366 2 2 0 0 268 269 245
367 2 2 0 0 21 639 20
368 2 2 0 0 84 85 82
369 2 2 0 0 181 207 183
370 2 2 0 0 269 272 271
371 2 2 0 0 272 276 275
372 2 2 0 0 242 243 240
373 2 2 0 0 102 167 166
374 2 2 0 0 223 234 233
375 2 2 0 0 283 343 227
376 2 2 0 0 205 208 204
377 2 2 0 0 213 226 214
378 2 2 0 0 271 572 347
379 2 2 0 0 243 268 245
380 2 2 0 0 335 398 307
381 2 2 0 0 303 555 554
382 2 2 0 0 226 283 227
383 2 2 0 0 347 485 370
384 2 2 0 0 195 199 196
385 2 2 0 0 205 213 209
386 2 2 0 0 246 322 252
387 2 2 0 0 76 78 77
388 2 2 0 0 133 163 135
389 2 2 0 0 163 168 164
390 2 2 0 0 322 415 341
391 2 2 0 0 227 361 214
392 2 2 0 0 191 198 189
393 2 2 0 0 78 84 82
394 2 2 0 0 209 216 208
395 2 2 0 0 78 82 77
396 2 2 0 0 216 303 266
397 2 2 0 0 417 418 362
398 2 2 0 0 314 607 101
399 2 2 0 0 339 362 280
400 2 2 0 0 243 245 244
401 2 2 0 0 187 291 185
402 2 2 0 0 429 430 359
403 2 2 0 0 143 145 144
404 2 2 0 0 202 553 205
405 2 2 0 0 339 417 362
406 2 2 0 0 131 580 133
407 2 2 0 0 239 242 240
408 2 2 0 0 57 59 58
409 2 2 0 0 224 246 215
410 2 2 0 0 84 86 85
411 2 2 0 0 303 554 266
412 2 2 0 0 72 73 71
413 2 2 0 0 437 438 414
414 2 2 0 0 318 340 275
415 2 2 0 0 269 270 245
416 2 2 0 0 86 87 85
417 2 2 0 0 192 193 191
418 2 2 0 0 123 235 129
419 2 2 0 0 263 374 262
420 2 2 0 0 425 427 426
421 2 2 0 0 149 150 147
422 2 2 0 0 210 232 231
423 2 2 0 0 74 373 76
424 2 2 0 0 168 215 169
425 2 2 0 0 259 262 249
426 2 2 0 0 145 146 144
427 2 2 0 0 367 524 289
428 2 2 0 0 271 347 270
429 2 2 0 0 406 407 340
430 2 2 0 0 334 459 424
431 2 2 0 0 429 474 430
432 2 2 0 0 250 328 325
433 2 2 0 0 431 432 367
434 2 2 0 0 104 278 105
435 2 2 0 0 145 147 146
436 2 2 0 0 151 152 150
437 2 2 0 0 235 583 129
438 2 2 0 0 237 249 228
439 2 2 0 0 149 151 150
440 2 2 0 0 159 161 158
441 2 2 0 0 153 155 152
442 2 2 0 0 156 158 155
443 2 2 0 0 354 367 289
444 2 2 0 0 259 263 262
445 2 2 0 0 190 191 189
446 2 2 0 0 177 221 174
447 2 2 0 0 162 228 161
448 2 2 0 0 124 516 386
449 2 2 0 0 418 653 578
450 2 2 0 0 371 584 295
451 2 2 0 0 151 153 152
452 2 2 0 0 153 156 155
453 2 2 0 0 159 162 161
454 2 2 0 0 374 593 262
455 2 2 0 0 156 159 158
456 2 2 0 0 237 259 249
457 2 2 0 0 146 284 160
458 2 2 0 0 266 309 267
459 2 2 0 0 264 265 257
460 2 2 0 0 86 88 87
461 2 2 0 0 265 312 257
462 2 2 0 0 162 237 228
463 2 2 0 0 21 44 22
464 2 2 0 0 324 392 390
465 2 2 0 0 371 585 584
466 2 2 0 0 262 366 249
467 2 2 0 0 192 195 193
468 2 2 0 0 263 375 374
469 2 2 0 0 216 266 217
470 2 2 0 0 326 327 276
471 2 2 0 0 260 646 166
472 2 2 0 0 220 223 222
473 2 2 0 0 322 341 252
474 2 2 0 0 256 257 255
475 2 2 0 0 78 253 84
476 2 2 0 0 358 359 242
477 2 2 0 0 188 189 187
478 2 2 0 0 281 339 280
479 2 2 0 0 146 160 144
480 2 2 0 0 123 129 128
481 2 2 0 0 255 324 254
482 2 2 0 0 228 229 161
483 2 2 0 0 354 431 367
484 2 2 0 0 163 164 135
485 2 2 0 0 155 157 152
486 2 2 0 0 243 244 240
487 2 2 0 0 256 264 257
488 2 2 0 0 284 316 160
489 2 2 0 0 380 425 327
490 2 2 0 0 148 149 147
491 2 2 0 0 335 399 398
492 2 2 0 0 418 578 362
493 2 2 0 0 334 424 396
494 2 2 0 0 167 260 166
495 2 2 0 0 325 368 365
496 2 2 0 0 428 429 359
497 2 2 0 0 165 255 254
498 2 2 0 0 297 342 264
499 2 2 0 0 298 371 295
500 2 2 0 0 218 323 220
501 2 2 0 0 310 337 302
502 2 2 0 0 165 256 255
503 2 2 0 0 186 187 185
504 2 2 0 0 56 71 70
505 2 2 0 0 165 254 125
506 2 2 0 0 200 201 199
507 2 2 0 0 148 206 149
508 2 2 0 0 324 390 364
509 2 2 0 0 190 192 191
510 2 2 0 0 368 369 365
511 2 2 0 0 353 404 351
512 2 2 0 0 104 331 278
513 2 2 0 0 256 297 264
514 2 2 0 0 316 421 416
515 2 2 0 0 239 358 242
516 2 2 0 0 169 586 171
517 2 2 0 0 286 287 206
518 2 2 0 0 324 364 254
519 2 2 0 0 241 576 162
520 2 2 0 0 168 169 164
521 2 2 0 0 121 123 122
522 2 2 0 0 266 267 217
523 2 2 0 0 129 131 130
524 2 2 0 0 216 217 208
525 2 2 0 0 285 382 313
526 2 2 0 0 172 321 170
527 2 2 0 0 390 391 364
528 2 2 0 0 296 563 300
529 2 2 0 0 246 252 251
530 2 2 0 0 285 286 206
531 2 2 0 0 288 289 287
532 2 2 0 0 298 372 371
533 2 2 0 0 23 35 22
534 2 2 0 0 300 344 304
535 2 2 0 0 344 462 345
536 2 2 0 0 123 128 122
537 2 2 0 0 297 389 342
538 2 2 0 0 237 277 259
539 2 2 0 0 148 285 206
540 2 2 0 0 86 89 88
541 2 2 0 0 306 307 283
542 2 2 0 0 234 279 233
543 2 2 0 0 316 416 160
544 2 2 0 0 188 190 189
545 2 2 0 0 85 98 82
546 2 2 0 0 358 428 359
547 2 2 0 0 437 455 438
548 2 2 0 0 203 210 201
549 2 2 0 0 382 383 313
550 2 2 0 0 153 176 156
551 2 2 0 0 290 354 289
552 2 2 0 0 159 241 162
553 2 2 0 0 386 387 126
554 2 2 0 0 273 363 338
555 2 2 0 0 272 326 276
556 2 2 0 0 171 293 173
557 2 2 0 0 145 148 147
558 2 2 0 0 274 295 261
559 2 2 0 0 285 313 286
560 2 2 0 0 383 384 313
561 2 2 0 0 301 302 299
562 2 2 0 0 131 133 132
563 2 2 0 0 296 298 295
564 2 2 0 0 305 310 302
565 2 2 0 0 349 412 328
566 2 2 0 0 344 345 304
567 2 2 0 0 77 119 75
568 2 2 0 0 315 378 310
569 2 2 0 0 363 401 400
570 2 2 0 0 332 333 278
571 2 2 0 0 223 233 222
572 2 2 0 0 331 334 332
573 2 2 0 0 186 188 187
574 2 2 0 0 178 212 177
575 2 2 0 0 305 360 315
576 2 2 0 0 334 396 395
577 2 2 0 0 246 251 215
578 2 2 0 0 167 261 260
579 2 2 0 0 175 179 178
580 2 2 0 0 345 346 304
581 2 2 0 0 124 386 126
582 2 2 0 0 286 288 287
583 2 2 0 0 331 332 278
584 2 2 0 0 179 181 180
585 2 2 0 0 301 305 302
586 2 2 0 0 300 304 301
587 2 2 0 0 296 300 299
588 2 2 0 0 305 315 310
589 2 2 0 0 296 299 298
590 2 2 0 0 320 453 290
591 2 2 0 0 274 296 295
592 2 2 0 0 313 531 286
593 2 2 0 0 120 281 280
594 2 2 0 0 360 409 315
595 2 2 0 0 363 400 338
596 2 2 0 0 129 130 128
597 2 2 0 0 300 301 299
598 2 2 0 0 1 508 23
599 2 2 0 0 167 273 261
600 2 2 0 0 133 135 134
601 2 2 0 0 173 174 172
602 2 2 0 0 311 377 376
603 2 2 0 0 273 274 261
604 2 2 0 0 273 338 274
605 2 2 0 0 334 395 332
606 2 2 0 0 183 197 184
607 2 2 0 0 319 393 320
608 2 2 0 0 449 450 446
609 2 2 0 0 288 290 289
610 2 2 0 0 226 306 283
611 2 2 0 0 326 380 327
612 2 2 0 0 175 177 174
613 2 2 0 0 181 183 182
614 2 2 0 0 219 230 211
615 2 2 0 0 308 335 307
616 2 2 0 0 267 311 292
617 2 2 0 0 169 170 164
618 2 2 0 0 288 319 290
619 2 2 0 0 126 165 125
620 2 2 0 0 120 280 121
621 2 2 0 0 130 357 128
622 2 2 0 0 195 200 199
623 2 2 0 0 169 171 170
624 2 2 0 0 171 172 170
625 2 2 0 0 184 186 185
626 2 2 0 0 73 282 71
627 2 2 0 0 252 294 251
628 2 2 0 0 319 320 290
629 2 2 0 0 131 132 130
630 2 2 0 0 393 394 320
631 2 2 0 0 171 173 172
632 2 2 0 0 4 34 3
633 2 2 0 0 218 220 219
634 2 2 0 0 267 292 217
635 2 2 0 0 184 185 182
636 2 2 0 0 188 194 190
637 2 2 0 0 56 70 54
638 2 2 0 0 377 405 376
639 2 2 0 0 449 470 450
640 2 2 0 0 179 180 178
641 2 2 0 0 173 175 174
642 2 2 0 0 175 178 177
643 2 2 0 0 250 329 328
644 2 2 0 0 311 376 292
645 2 2 0 0 329 571 350
646 2 2 0 0 347 370 348
647 2 2 0 0 220 222 219
648 2 2 0 0 376 385 292
649 2 2 0 0 133 134 132
650 2 2 0 0 134 136 132
651 2 2 0 0 306 308 307
652 2 2 0 0 200 203 201
653 2 2 0 0 233 247 222
654 2 2 0 0 98 460 82
655 2 2 0 0 329 349 328
656 2 2 0 0 326 381 380
657 2 2 0 0 347 348 270
658 2 2 0 0 181 182 180
659 2 2 0 0 121 122 115
660 2 2 0 0 350 351 349
661 2 2 0 0 308 336 335
662 2 2 0 0 350 403 352
663 2 2 0 0 470 471 450
664 2 2 0 0 203 211 210
665 2 2 0 0 218 219 211
666 2 2 0 0 183 184 182
667 2 2 0 0 370 463 422
668 2 2 0 0 306 402 308
669 2 2 0 0 203 218 211
670 2 2 0 0 71 490 70
671 2 2 0 0 329 350 349
672 2 2 0 0 436 437 414
673 2 2 0 0 124 126 125
674 2 2 0 0 413 414 353
675 2 2 0 0 422 423 348
676 2 2 0 0 352 353 351
677 2 2 0 0 370 422 348
678 2 2 0 0 350 352 351
679 2 2 0 0 413 436 414
680 2 2 0 0 352 413 353
681 2 2 0 0 120 121 115
682 2 2 0 0 110 480 117
683 2 2 0 0 124 125 116
684 2 2 0 0 126 521 165
685 2 2 0 0 113 120 115
686 2 2 0 0 127 440 410
687 2 2 0 0 114 124 116
688 2 2 0 0 543 544 530
689 2 2 0 0 488 489 487
690 2 2 0 0 585 637 366
691 2 2 0 0 543 570 544
692 2 2 0 0 113 115 114
693 2 2 0 0 127 410 106
694 2 2 0 0 114 116 112
695 2 2 0 0 195 515 200
696 2 2 0 0 491 493 492
697 2 2 0 0 12 487 13
698 2 2 0 0 546 547 321
699 2 2 0 0 330 457 411
700 2 2 0 0 157 543 530
701 2 2 0 0 519 520 291
702 2 2 0 0 28 488 487
703 2 2 0 0 111 112 110
704 2 2 0 0 312 534 257
705 2 2 0 0 476 732 412
706 2 2 0 0 27 458 442
707 2 2 0 0 385 636 620
708 2 2 0 0 176 559 156
709 2 2 0 0 593 634 366
710 2 2 0 0 589 590 224
711 2 2 0 0 113 114 112
712 2 2 0 0 109 127 106
713 2 2 0 0 270 564 245
714 2 2 0 0 443 506 445
715 2 2 0 0 491 492 396
716 2 2 0 0 388 624 502
717 2 2 0 0 445 506 448
718 2 2 0 0 30 500 15
719 2 2 0 0 20 504 21
720 2 2 0 0 64 475 60
721 2 2 0 0 287 542 206
722 2 2 0 0 23 508 35
723 2 2 0 0 302 558 299
724 2 2 0 0 70 551 54
725 2 2 0 0 62 598 64
726 2 2 0 0 424 491 396
727 2 2 0 0 407 456 340
728 2 2 0 0 545 546 321
729 2 2 0 0 330 411 397
730 2 2 0 0 72 536 74
731 2 2 0 0 238 574 136
732 2 2 0 0 659 660 420
733 2 2 0 0 395 538 332
734 2 2 0 0 143 527 145
735 2 2 0 0 412 675 476
736 2 2 0 0 239 513 358
737 2 2 0 0 157 530 529
738 2 2 0 0 518 519 291
739 2 2 0 0 449 482 470
740 2 2 0 0 207 713 479
741 2 2 0 0 119 523 75
742 2 2 0 0 109 670 127
743 2 2 0 0 10 501 40
744 2 2 0 0 508 509 35
745 2 2 0 0 96 606 94
746 2 2 0 0 331 459 334
747 2 2 0 0 286 531 288
748 2 2 0 0 290 453 354
749 2 2 0 0 282 490 71
750 2 2 0 0 384 531 313
751 2 2 0 0 289 524 287
752 2 2 0 0 349 550 412
753 2 2 0 0 165 521 256
754 2 2 0 0 82 460 77
755 2 2 0 0 155 543 157
756 2 2 0 0 201 549 199
757 2 2 0 0 273 591 363
758 2 2 0 0 387 521 126
759 2 2 0 0 114 516 124
760 2 2 0 0 53 561 57
761 2 2 0 0 266 554 309
762 2 2 0 0 257 534 255
763 2 2 0 0 205 553 213
764 2 2 0 0 142 522 225
765 2 2 0 0 435 481 356
766 2 2 0 0 216 568 303
767 2 2 0 0 300 563 344
768 2 2 0 0 214 568 209
769 2 2 0 0 112 480 110
770 2 2 0 0 350 571 403
771 2 2 0 0 347 572 485
772 2 2 0 0 275 572 271
773 2 2 0 0 274 563 296
774 2 2 0 0 171 586 293
775 2 2 0 0 162 576 237
776 2 2 0 0 133 580 163
777 2 2 0 0 11 501 10
778 2 2 0 0 295 584 261
779 2 2 0 0 129 583 131
780 2 2 0 0 215 586 169
781 2 2 0 0 250 505 329
782 2 2 0 0 168 588 224
783 2 2 0 0 321 548 170
784 2 2 0 0 262 593 366
785 2 2 0 0 166 646 314
786 2 2 0 0 520 535 291
787 2 2 0 0 373 663 493
788 2 2 0 0 291 535 185
789 2 2 0 0 101 607 97
790 2 2 0 0 130 574 357
791 2 2 0 0 158 570 543
792 2 2 0 0 31 501 11
793 2 2 0 0 444 552 503
794 2 2 0 0 156 559 159
795 2 2 0 0 236 594 505
796 2 2 0 0 206 542 149
797 2 2 0 0 54 551 52
798 2 2 0 0 74 536 373
799 2 2 0 0 337 558 302
800 2 2 0 0 150 532 147
801 2 2 0 0 379 728 457
802 2 2 0 0 299 558 298
803 2 2 0 0 332 538 333
804 2 2 0 0 145 527 148
805 2 2 0 0 514 515 192
806 2 2 0 0 15 500 14
807 2 2 0 0 75 523 73
808 2 2 0 0 467 501 31
809 2 2 0 0 254 592 125
810 2 2 0 0 172 545 321
811 2 2 0 0 144 522 142
812 2 2 0 0 528 532 150
813 2 2 0 0 187 518 291
814 2 2 0 0 553 599 213
815 2 2 0 0 383 603 384
816 2 2 0 0 282 698 490
817 2 2 0 0 244 517 240
818 2 2 0 0 353 525 404
819 2 2 0 0 395 540 538
820 2 2 0 0 94 606 118
821 2 2 0 0 117 539 107
822 2 2 0 0 185 535 182
823 2 2 0 0 388 502 50
824 2 2 0 0 167 591 273
825 2 2 0 0 147 532 146
826 2 2 0 0 92 608 91
827 2 2 0 0 472 676 368
828 2 2 0 0 364 592 254
829 2 2 0 0 21 504 44
830 2 2 0 0 365 597 248
831 2 2 0 0 125 592 116
832 2 2 0 0 588 589 224
833 2 2 0 0 111 113 112
834 2 2 0 0 63 469 408
835 2 2 0 0 105 109 106
836 2 2 0 0 242 526 243
837 2 2 0 0 439 712 29
838 2 2 0 0 240 517 234
839 2 2 0 0 346 533 304
840 2 2 0 0 14 500 38
841 2 2 0 0 494 495 484
842 2 2 0 0 127 630 440
843 2 2 0 0 208 537 204
844 2 2 0 0 175 562 179
845 2 2 0 0 303 626 555
846 2 2 0 0 359 526 242
847 2 2 0 0 243 526 268
848 2 2 0 0 217 537 208
849 2 2 0 0 58 498 55
850 2 2 0 0 503 552 30
851 2 2 0 0 13 499 12
852 2 2 0 0 268 621 569
853 2 2 0 0 489 497 487
854 2 2 0 0 475 498 58
855 2 2 0 0 430 526 359
856 2 2 0 0 248 597 99
857 2 2 0 0 292 537 217
858 2 2 0 0 26 645 45
859 2 2 0 0 234 517 279
860 2 2 0 0 14 497 39
861 2 2 0 0 385 537 292
862 2 2 0 0 305 533 360
863 2 2 0 0 304 533 301
864 2 2 0 0 146 532 284
865 2 2 0 0 483 494 484
866 2 2 0 0 173 562 175
867 2 2 0 0 116 480 112
868 2 2 0 0 224 590 246
869 2 2 0 0 189 518 187
870 2 2 0 0 498 536 72
871 2 2 0 0 414 525 353
872 2 2 0 0 160 522 144
873 2 2 0 0 547 609 548
874 2 2 0 0 182 535 180
875 2 2 0 0 297 601 389
876 2 2 0 0 44 594 81
877 2 2 0 0 301 533 305
878 2 2 0 0 105 106 96
879 2 2 0 0 515 596 200
880 2 2 0 0 293 562 173
881 2 2 0 0 73 523 282
882 2 2 0 0 148 527 285
883 2 2 0 0 174 545 172
884 2 2 0 0 218 596 323
885 2 2 0 0 200 596 203
886 2 2 0 0 149 542 151
887 2 2 0 0 446 552 444
888 2 2 0 0 49 461 330
889 2 2 0 0 330 397 48
890 2 2 0 0 453 738 377
891 2 2 0 0 255 534 324
892 2 2 0 0 52 551 388
893 2 2 0 0 634 646 260
894 2 2 0 0 513 615 358
895 2 2 0 0 438 525 414
896 2 2 0 0 516 618 386
897 2 2 0 0 198 518 189
898 2 2 0 0 227 566 361
899 2 2 0 0 559 560 241
900 2 2 0 0 90 587 93
901 2 2 0 0 416 522 160
902 2 2 0 0 102 591 167
903 2 2 0 0 134 609 137
904 2 2 0 0 298 558 372
905 2 2 0 0 132 574 130
906 2 2 0 0 106 606 96
907 2 2 0 0 159 559 241
908 2 2 0 0 32 611 6
909 2 2 0 0 158 543 155
910 2 2 0 0 223 513 239
911 2 2 0 0 288 531 319
912 2 2 0 0 323 513 220
913 2 2 0 0 115 516 114
914 2 2 0 0 521 601 297
915 2 2 0 0 610 698 455
916 2 2 0 0 354 600 431
917 2 2 0 0 351 550 349
918 2 2 0 0 256 521 297
919 2 2 0 0 140 604 138
920 2 2 0 0 77 460 119
921 2 2 0 0 17 503 16
922 2 2 0 0 9 502 10
923 2 2 0 0 104 587 331
924 2 2 0 0 152 528 150
925 2 2 0 0 315 541 378
926 2 2 0 0 170 548 164
927 2 2 0 0 590 659 420
928 2 2 0 0 11 624 28
929 2 2 0 0 199 549 202
930 2 2 0 0 502 624 10
931 2 2 0 0 453 600 354
932 2 2 0 0 42 43 41
933 2 2 0 0 38 499 13
934 2 2 0 0 285 527 382
935 2 2 0 0 190 514 192
936 2 2 0 0 157 529 528
937 2 2 0 0 231 643 549
938 2 2 0 0 331 587 459
939 2 2 0 0 451 701 232
940 2 2 0 0 99 597 100
941 2 2 0 0 361 568 214
942 2 2 0 0 372 740 544
943 2 2 0 0 221 545 174
944 2 2 0 0 138 604 238
945 2 2 0 0 340 572 275
946 2 2 0 0 338 563 274
947 2 2 0 0 524 542 287
948 2 2 0 0 265 595 312
949 2 2 0 0 111 511 113
950 2 2 0 0 580 658 588
951 2 2 0 0 580 588 163
952 2 2 0 0 237 576 277
953 2 2 0 0 444 503 36
954 2 2 0 0 131 583 580
955 2 2 0 0 505 571 329
956 2 2 0 0 203 596 218
957 2 2 0 0 584 634 260
958 2 2 0 0 261 584 260
959 2 2 0 0 369 647 365
960 2 2 0 0 251 586 215
961 2 2 0 0 348 564 270
962 2 2 0 0 450 552 446
963 2 2 0 0 390 496 391
964 2 2 0 0 66 598 62
965 2 2 0 0 465 623 423
966 2 2 0 0 258 591 102
967 2 2 0 0 343 566 227
968 2 2 0 0 564 623 244
969 2 2 0 0 154 617 141
970 2 2 0 0 324 534 392
971 2 2 0 0 50 502 37
972 2 2 0 0 524 556 542
973 2 2 0 0 544 700 372
974 2 2 0 0 122 516 115
975 2 2 0 0 177 557 221
976 2 2 0 0 489 698 610
977 2 2 0 0 93 587 104
978 2 2 0 0 136 574 132
979 2 2 0 0 593 646 634
980 2 2 0 0 116 592 480
981 2 2 0 0 143 617 527
982 2 2 0 0 225 604 140
983 2 2 0 0 137 631 139
984 2 2 0 0 549 553 202
985 2 2 0 0 164 548 135
986 2 2 0 0 404 550 351
987 2 2 0 0 34 721 473
988 2 2 0 0 220 513 223
989 2 2 0 0 317 640 511
990 2 2 0 0 100 597 258
991 2 2 0 0 588 658 589
992 2 2 0 0 323 615 513
993 2 2 0 0 568 626 303
994 2 2 0 0 377 605 405
995 2 2 0 0 178 613 212
996 2 2 0 0 493 628 373
997 2 2 0 0 157 528 152
998 2 2 0 0 591 627 363
999 2 2 0 0 409 541 315
1000 2 2 0 0 183 614 197
1001 2 2 0 0 103 598 66
1002 2 2 0 0 188 619 194
1003 2 2 0 0 213 599 226
1004 2 2 0 0 306 599 402
1005 2 2 0 0 97 607 25
1006 2 2 0 0 194 514 190
1007 2 2 0 0 373 628 76
1008 2 2 0 0 78 628 253
1009 2 2 0 0 42 47 43
1010 2 2 0 0 39 612 15
1011 2 2 0 0 16 612 29
1012 2 2 0 0 437 610 455
1013 2 2 0 0 487 497 13
1014 2 2 0 0 440 630 441
1015 2 2 0 0 479 713 562
1016 2 2 0 0 196 620 193
1017 2 2 0 0 456 572 340
1018 2 2 0 0 120 511 281
1019 2 2 0 0 577 578 235
1020 2 2 0 0 335 582 399
1021 2 2 0 0 314 741 683
1022 2 2 0 0 520 613 535
1023 2 2 0 0 585 634 584
1024 2 2 0 0 423 564 348
1025 2 2 0 0 457 561 411
1026 2 2 0 0 6 611 5
1027 2 2 0 0 385 620 537
1028 2 2 0 0 228 637 229
1029 2 2 0 0 366 637 249
1030 2 2 0 0 161 570 158
1031 2 2 0 0 434 640 435
1032 2 2 0 0 193 636 191
1033 2 2 0 0 410 606 106
1034 2 2 0 0 37 502 9
1035 2 2 0 0 36 503 17
1036 2 2 0 0 141 617 143
1037 2 2 0 0 363 627 401
1038 2 2 0 0 322 590 420
1039 2 2 0 0 357 618 128
1040 2 2 0 0 430 621 526
1041 2 2 0 0 540 687 103
1042 2 2 0 0 280 577 121
1043 2 2 0 0 276 575 318
1044 2 2 0 0 362 578 577
1045 2 2 0 0 109 649 496
1046 2 2 0 0 246 590 322
1047 2 2 0 0 326 569 381
1048 2 2 0 0 569 621 381
1049 2 2 0 0 269 569 272
1050 2 2 0 0 139 631 154
1051 2 2 0 0 649 664 496
1052 2 2 0 0 537 620 204
1053 2 2 0 0 355 461 49
1054 2 2 0 0 663 685 493
1055 2 2 0 0 479 745 207
1056 2 2 0 0 343 662 565
1057 2 2 0 0 212 557 177
1058 2 2 0 0 45 645 46
1059 2 2 0 0 496 670 109
1060 2 2 0 0 366 634 585
1061 2 2 0 0 384 616 531
1062 2 2 0 0 535 613 180
1063 2 2 0 0 391 632 364
1064 2 2 0 0 308 581 336
1065 2 2 0 0 344 625 462
1066 2 2 0 0 563 625 344
1067 2 2 0 0 13 497 14
1068 2 2 0 0 480 632 117
1069 2 2 0 0 371 668 585
1070 2 2 0 0 333 649 278
1071 2 2 0 0 387 601 521
1072 2 2 0 0 47 49 48
1073 2 2 0 0 358 615 428
1074 2 2 0 0 113 511 120
1075 2 2 0 0 527 617 382
1076 2 2 0 0 105 649 109
1077 2 2 0 0 398 573 307
1078 2 2 0 0 368 676 369
1079 2 2 0 0 180 613 178
1080 2 2 0 0 153 556 176
1081 2 2 0 0 432 657 367
1082 2 2 0 0 458 718 582
1083 2 2 0 0 207 614 183
1084 2 2 0 0 407 611 456
1085 2 2 0 0 244 623 517
1086 2 2 0 0 20 639 27
1087 2 2 0 0 476 675 87
1088 2 2 0 0 319 616 393
1089 2 2 0 0 474 707 197
1090 2 2 0 0 226 599 306
1091 2 2 0 0 47 48 43
1092 2 2 0 0 186 619 188
1093 2 2 0 0 412 732 328
1094 2 2 0 0 316 671 541
1095 2 2 0 0 293 734 478
1096 2 2 0 0 492 685 598
1097 2 2 0 0 528 629 532
1098 2 2 0 0 514 635 515
1099 2 2 0 0 531 616 319
1100 2 2 0 0 8 656 7
1101 2 2 0 0 387 602 601
1102 2 2 0 0 76 628 78
1103 2 2 0 0 122 618 516
1104 2 2 0 0 651 717 394
1105 2 2 0 0 423 623 564
1106 2 2 0 0 546 669 547
1107 2 2 0 0 4 679 34
1108 2 2 0 0 542 556 151
1109 2 2 0 0 548 609 135
1110 2 2 0 0 204 620 196
1111 2 2 0 0 529 629 528
1112 2 2 0 0 482 719 230
1113 2 2 0 0 258 627 591
1114 2 2 0 0 336 582 335
1115 2 2 0 0 197 686 667
1116 2 2 0 0 583 658 580
1117 2 2 0 0 85 675 98
1118 2 2 0 0 59 728 379
1119 2 2 0 0 400 625 338
1120 2 2 0 0 394 717 605
1121 2 2 0 0 471 650 450
1122 2 2 0 0 596 635 323
1123 2 2 0 0 249 637 228
1124 2 2 0 0 515 635 596
1125 2 2 0 0 338 625 563
1126 2 2 0 0 28 633 488
1127 2 2 0 0 566 622 361
1128 2 2 0 0 229 570 161
1129 2 2 0 0 468 654 465
1130 2 2 0 0 118 710 462
1131 2 2 0 0 15 612 16
1132 2 2 0 0 589 659 590
1133 2 2 0 0 526 621 268
1134 2 2 0 0 365 647 597
1135 2 2 0 0 579 583 235
1136 2 2 0 0 22 507 21
1137 2 2 0 0 342 682 264
1138 2 2 0 0 441 648 346
1139 2 2 0 0 191 636 198
1140 2 2 0 0 578 653 579
1141 2 2 0 0 135 609 134
1142 2 2 0 0 128 618 122
1143 2 2 0 0 378 681 310
1144 2 2 0 0 230 690 211
1145 2 2 0 0 210 690 232
1146 2 2 0 0 549 643 553
1147 2 2 0 0 233 661 247
1148 2 2 0 0 10 624 11
1149 2 2 0 0 640 709 435
1150 2 2 0 0 449 719 482
1151 2 2 0 0 452 726 33
1152 2 2 0 0 362 577 280
1153 2 2 0 0 318 575 433
1154 2 2 0 0 492 687 396
1155 2 2 0 0 586 734 293
1156 2 2 0 0 357 655 618
1157 2 2 0 0 277 567 259
1158 2 2 0 0 522 641 225
1159 2 2 0 0 511 640 281
1160 2 2 0 0 247 661 483
1161 2 2 0 0 610 693 39
1162 2 2 0 0 272 569 326
1163 2 2 0 0 490 695 70
1164 2 2 0 0 553 643 599
1165 2 2 0 0 532 629 284
1166 2 2 0 0 29 712 17
1167 2 2 0 0 632 665 117
1168 2 2 0 0 618 655 386
1169 2 2 0 0 241 699 576
1170 2 2 0 0 457 728 561
1171 2 2 0 0 485 572 456
1172 2 2 0 0 430 667 621
1173 2 2 0 0 582 672 458
1174 2 2 0 0 395 687 540
1175 2 2 0 0 504 594 44
1176 2 2 0 0 181 713 207
1177 2 2 0 0 197 707 184
1178 2 2 0 0 524 657 556
1179 2 2 0 0 475 536 498
1180 2 2 0 0 394 738 320
1181 2 2 0 0 51 714 561
1182 2 2 0 0 151 556 153
1183 2 2 0 0 437 693 610
1184 2 2 0 0 361 626 568
1185 2 2 0 0 611 679 5
1186 2 2 0 0 231 680 643
1187 2 2 0 0 462 706 118
1188 2 2 0 0 390 670 496
1189 2 2 0 0 602 642 601
1190 2 2 0 0 49 330 48
1191 2 2 0 0 391 665 632
1192 2 2 0 0 508 737 375
1193 2 2 0 0 450 650 552
1194 2 2 0 0 368 732 476
1195 2 2 0 0 578 579 235
1196 2 2 0 0 402 581 308
1197 2 2 0 0 43 486 41
1198 2 2 0 0 562 713 179
1199 2 2 0 0 592 632 480
1200 2 2 0 0 416 641 522
1201 2 2 0 0 372 668 371
1202 2 2 0 0 452 712 439
1203 2 2 0 0 282 720 455
1204 2 2 0 0 556 657 176
1205 2 2 0 0 364 632 592
1206 2 2 0 0 403 726 452
1207 2 2 0 0 465 654 623
1208 2 2 0 0 278 649 105
1209 2 2 0 0 154 652 617
1210 2 2 0 0 383 688 603
1211 2 2 0 0 451 719 447
1212 2 2 0 0 317 709 640
1213 2 2 0 0 604 711 642
1214 2 2 0 0 382 652 383
1215 2 2 0 0 601 642 389
1216 2 2 0 0 284 671 316
1217 2 2 0 0 599 643 402
1218 2 2 0 0 388 633 624
1219 2 2 0 0 267 678 311
1220 2 2 0 0 337 681 530
1221 2 2 0 0 279 661 233
1222 2 2 0 0 605 738 394
1223 2 2 0 0 33 677 504
1224 2 2 0 0 386 655 387
1225 2 2 0 0 547 669 631
1226 2 2 0 0 562 731 479
1227 2 2 0 0 360 648 595
1228 2 2 0 0 432 692 657
1229 2 2 0 0 367 657 524
1230 2 2 0 0 633 695 488
1231 2 2 0 0 415 473 341
1232 2 2 0 0 644 672 336
1233 2 2 0 0 551 633 388
1234 2 2 0 0 533 648 360
1235 2 2 0 0 407 679 611
1236 2 2 0 0 323 635 615
1237 2 2 0 0 530 681 529
1238 2 2 0 0 393 651 394
1239 2 2 0 0 387 655 602
1240 2 2 0 0 238 703 574
1241 2 2 0 0 594 677 505
1242 2 2 0 0 559 692 560
1243 2 2 0 0 621 667 381
1244 2 2 0 0 405 674 376
1245 2 2 0 0 325 732 368
1246 2 2 0 0 623 654 517
1247 2 2 0 0 581 644 336
1248 2 2 0 0 346 648 533
1249 2 2 0 0 517 654 279
1250 2 2 0 0 477 705 481
1251 2 2 0 0 481 705 355
1252 2 2 0 0 561 728 57
1253 2 2 0 0 379 705 477
1254 2 2 0 0 617 652 382
1255 2 2 0 0 30 650 500
1256 2 2 0 0 376 674 385
1257 2 2 0 0 518 715 519
1258 2 2 0 0 474 667 430
1259 2 2 0 0 478 734 294
1260 2 2 0 0 624 633 28
1261 2 2 0 0 186 707 619
1262 2 2 0 0 64 663 475
1263 2 2 0 0 597 647 258
1264 2 2 0 0 377 738 605
1265 2 2 0 0 31 735 467
1266 2 2 0 0 27 718 458
1267 2 2 0 0 419 673 68
1268 2 2 0 0 616 722 393
1269 2 2 0 0 24 723 419
1270 2 2 0 0 397 638 48
1271 2 2 0 0 404 730 460
1272 2 2 0 0 91 676 472
1273 2 2 0 0 622 626 361
1274 2 2 0 0 7 656 32
1275 2 2 0 0 576 697 277
1276 2 2 0 0 471 691 650
1277 2 2 0 0 536 663 373
1278 2 2 0 0 484 691 471
1279 2 2 0 0 552 650 30
1280 2 2 0 0 311 678 600
1281 2 2 0 0 486 729 5
1282 2 2 0 0 418 673 666
1283 2 2 0 0 232 680 231
1284 2 2 0 0 5 679 4
1285 2 2 0 0 117 665 539
1286 2 2 0 0 384 702 616
1287 2 2 0 0 557 702 221
1288 2 2 0 0 87 675 85
1289 2 2 0 0 225 711 604
1290 2 2 0 0 505 677 571
1291 2 2 0 0 483 661 494
1292 2 2 0 0 263 565 375
1293 2 2 0 0 504 677 594
1294 2 2 0 0 582 718 399
1295 2 2 0 0 645 714 46
1296 2 2 0 0 534 708 392
1297 2 2 0 0 643 680 402
1298 2 2 0 0 18 712 452
1299 2 2 0 0 392 670 390
1300 2 2 0 0 221 702 603
1301 2 2 0 0 496 664 391
1302 2 2 0 0 606 710 118
1303 2 2 0 0 655 703 602
1304 2 2 0 0 608 676 91
1305 2 2 0 0 194 684 514
1306 2 2 0 0 541 671 378
1307 2 2 0 0 154 669 652
1308 2 2 0 0 399 718 639
1309 2 2 0 0 405 715 674
1310 2 2 0 0 33 726 677
1311 2 2 0 0 629 671 284
1312 2 2 0 0 468 735 495
1313 2 2 0 0 469 704 408
1314 2 2 0 0 427 745 479
1315 2 2 0 0 294 734 251
1316 2 2 0 0 461 705 379
1317 2 2 0 0 385 674 636
1318 2 2 0 0 657 692 176
1319 2 2 0 0 561 714 411
1320 2 2 0 0 631 669 154
1321 2 2 0 0 264 682 265
1322 2 2 0 0 43 638 486
1323 2 2 0 0 48 638 43
1324 2 2 0 0 194 744 684
1325 2 2 0 0 381 686 380
1326 2 2 0 0 658 716 589
1327 2 2 0 0 263 567 565
1328 2 2 0 0 310 681 337
1329 2 2 0 0 493 685 492
1330 2 2 0 0 64 685 663
1331 2 2 0 0 309 678 267
1332 2 2 0 0 600 678 431
1333 2 2 0 0 538 694 333
1334 2 2 0 0 598 685 64
1335 2 2 0 0 551 695 633
1336 2 2 0 0 560 699 241
1337 2 2 0 0 211 690 210
1338 2 2 0 0 2 723 3
1339 2 2 0 0 630 708 441
1340 2 2 0 0 467 735 468
1341 2 2 0 0 396 687 395
1342 2 2 0 0 35 507 22
1343 2 2 0 0 259 567 263
1344 2 2 0 0 417 673 418
1345 2 2 0 0 614 686 197
1346 2 2 0 0 392 708 630
1347 2 2 0 0 5 729 6
1348 2 2 0 0 279 725 661
1349 2 2 0 0 6 729 26
1350 2 2 0 0 357 703 655
1351 2 2 0 0 514 684 635
1352 2 2 0 0 540 733 538
1353 2 2 0 0 374 741 593
1354 2 2 0 0 176 692 559
1355 2 2 0 0 650 691 500
1356 2 2 0 0 484 736 691
1357 2 2 0 0 83 733 540
1358 2 2 0 0 558 740 372
1359 2 2 0 0 626 697 555
1360 2 2 0 0 436 693 437
1361 2 2 0 0 375 737 374
1362 2 2 0 0 475 663 536
1363 2 2 0 0 636 674 198
1364 2 2 0 0 674 715 198
1365 2 2 0 0 70 695 551
1366 2 2 0 0 406 721 407
1367 2 2 0 0 677 726 571
1368 2 2 0 0 258 647 627
1369 2 2 0 0 448 701 451
1370 2 2 0 0 458 672 506
1371 2 2 0 0 229 700 570
1372 2 2 0 0 684 744 428
1373 2 2 0 0 570 700 544
1374 2 2 0 0 678 742 431
1375 2 2 0 0 646 741 314
1376 2 2 0 0 603 702 384
1377 2 2 0 0 478 731 293
1378 2 2 0 0 309 742 678
1379 2 2 0 0 380 686 614
1380 2 2 0 0 494 725 468
1381 2 2 0 0 500 691 38
1382 2 2 0 0 635 684 615
1383 2 2 0 0 661 725 494
1384 2 2 0 0 679 721 34
1385 2 2 0 0 509 510 35
1386 2 2 0 0 46 714 51
1387 2 2 0 0 615 684 428
1388 2 2 0 0 432 742 689
1389 2 2 0 0 179 713 181
1390 2 2 0 0 26 739 645
1391 2 2 0 0 35 510 507
1392 2 2 0 0 574 703 357
1393 2 2 0 0 184 707 186
1394 2 2 0 0 39 693 612
1395 2 2 0 0 665 694 539
1396 2 2 0 0 312 708 534
1397 2 2 0 0 554 689 309
1398 2 2 0 0 1 737 508
1399 2 2 0 0 519 717 520
1400 2 2 0 0 277 697 622
1401 2 2 0 0 389 711 641
1402 2 2 0 0 495 736 484
1403 2 2 0 0 17 712 18
1404 2 2 0 0 212 722 557
1405 2 2 0 0 455 720 438
1406 2 2 0 0 622 697 626
1407 2 2 0 0 664 694 665
1408 2 2 0 0 447 719 449
1409 2 2 0 0 669 688 652
1410 2 2 0 0 612 693 436
1411 2 2 0 0 619 744 194
1412 2 2 0 0 57 728 59
1413 2 2 0 0 579 658 583
1414 2 2 0 0 438 727 525
1415 2 2 0 0 539 733 83
1416 2 2 0 0 479 731 478
1417 2 2 0 0 691 736 38
1418 2 2 0 0 401 724 400
1419 2 2 0 0 420 660 2
1420 2 2 0 0 328 732 325
1421 2 2 0 0 320 738 453
1422 2 2 0 0 428 744 429
1423 2 2 0 0 431 742 432
1424 2 2 0 0 425 745 427
1425 2 2 0 0 408 743 434
1426 2 2 0 0 571 726 403
1427 2 2 0 0 119 727 523
1428 2 2 0 0 625 706 462
1429 2 2 0 0 525 730 404
1430 2 2 0 0 499 736 495
1431 2 2 0 0 468 725 654
1432 2 2 0 0 336 672 582
1433 2 2 0 0 198 715 518
1434 2 2 0 0 400 724 706
1435 2 2 0 0 402 680 581
1436 2 2 0 0 589 716 659
1437 2 2 0 0 727 730 525
1438 2 2 0 0 664 665 391
1439 2 2 0 0 337 740 558
1440 2 2 0 0 293 731 562
1441 2 2 0 0 523 720 282
1442 2 2 0 0 460 730 119
1443 2 2 0 0 641 711 225
1444 2 2 0 0 429 744 619
1445 2 2 0 0 119 730 727
1446 2 2 0 0 651 722 212
1447 2 2 0 0 38 736 499
1448 2 2 0 0 667 686 381
1449 2 2 0 0 652 688 383
1450 2 2 0 0 410 710 606
1451 2 2 0 0 644 701 448
1452 2 2 0 0 666 673 419
1453 2 2 0 0 704 743 408
1454 2 2 0 0 251 734 586
1455 2 2 0 0 400 706 625
1456 2 2 0 0 546 688 669
1457 2 2 0 0 668 700 229
1458 2 2 0 0 538 733 694
1459 2 2 0 0 333 694 664
1460 2 2 0 0 565 662 375
1461 2 2 0 0 720 727 438
1462 2 2 0 0 372 700 668
1463 2 2 0 0 579 716 658
1464 2 2 0 0 642 711 389
1465 2 2 0 0 355 705 461
1466 2 2 0 0 407 721 679
1467 2 2 0 0 523 727 720
1468 2 2 0 0 654 725 279
1469 2 2 0 0 639 718 27
1470 2 2 0 0 694 733 539
1471 2 2 0 0 393 722 651
1472 2 2 0 0 645 739 397
1473 2 2 0 0 683 741 374
1474 2 2 0 0 397 739 638
1475 2 2 0 0 653 716 579
1476 2 2 0 0 666 723 660
1477 2 2 0 0 419 723 666
1478 2 2 0 0 374 737 683
1479 2 2 0 0 593 741 646
1480 2 2 0 0 683 737 1
1481 2 2 0 0 689 742 309
1482 2 2 0 0 660 723 2
1483 2 2 0 0 23 25 1
1484 2 2 0 0 25 607 1
1485 2 2 0 0 3 34 2
1486 2 2 0 0 34 415 2
$EndElements
