$MeshFormat
2.2 0 8
$EndMeshFormat
$Nodes
745
1 3.4099655878680123e-05 2.5168950671835223e-05 9.7409488376727193e-04
2 5.5937228943852717e-05 -5.0955517049401513e-05 -9.7118655399829241e-04
3 1.3613816418578861e-04 3.3579194462854719e-05 -9.6377548339485468e-04
4 2.4631189008339710e-04 1.9317904004732062e-05 -9.4451520292107788e-04
5 3.9108291058519910e-04 3.0841732624573100e-05 -8.9886114513695198e-04
6 5.2625464862429716e-04 -9.4616995628221847e-07 -8.3223374973266369e-04
7 6.3411227321921466e-04 2.1724357863023007e-06 -7.5976575377266161e-04
8 7.4064686247642412e-04 1.4124284696420474e-06 -6.6510937135479304e-04
9 8.3372021997495907e-04 -5.9143191823803629e-07 -5.5358093251347401e-04
10 9.0983838931754570e-04 -9.4269431575875477e-07 -4.2913022011021256e-04
11 9.6648417180869009e-04 3.0151400639631412e-06 -2.9413309917633091e-04
12 1.0017817192300013e-03 3.0022490377291096e-06 -1.5106045773414633e-04
13 1.0138890016161311e-03 1.7890178868421060e-06 -3.6445601164324319e-06
14 1.0024536379404821e-03 6.1942976762140865e-06 1.4582488889106640e-04
15 9.6831994743440224e-04 4.2376716906144476e-06 2.8843449280545211e-04
16 9.1185898913304249e-04 5.0624046736002172e-06 4.2555203355773092e-04
17 8.3822969356860848e-04 -1.7094126229590790e-06 5.4787085423491501e-04
18 7.4378492934191944e-04 -4.4560106864204699e-06 6.6197644200874243e-04
19 6.3877516334268579e-04 3.1177002943301008e-06 7.5656895952282469e-04
20 5.2012972214768435e-04 2.5401238920412123e-06 8.3616647498774180e-04
21 3.9326822045276206e-04 5.1808064393366716e-06 8.9804823623844214e-04
22 2.5920976428864847e-04 5.8395043140232722e-06 9.4174171050842223e-04
23 1.4417182022902802e-04 -1.9334720112208136e-05 9.6407197309696818e-04
24 1.5524173037336503e-04 1.3952583865963286e-04 -9.5343567813954732e-04
25 1.5720949433561398e-04 1.0583647509494930e-04 9.5818125081157432e-04
26 5.8597149635107332e-04 1.1543975790822358e-04 -7.8658505920376170e-04
27 5.7556685354766637e-04 -1.1367388334926352e-04 7.9405616376098179e-04
28 9.8018803697900959e-04 1.3568149604540670e-04 -2.1225598832487092e-04
29 8.6476432000526877e-04 1.4926648747830444e-04 4.8911940114328221e-04
30 9.3727505592307043e-04 -1.1888666506806112e-04 3.5306941632062285e-04
31 9.7657845311976185e-04 -1.1967174142898177e-04 -2.3395921629136443e-04
32 5.6730631215808948e-04 -1.2185584377023758e-04 -7.9855980061089139e-04
33 5.7625847013586520e-04 1.1577270080760910e-04 7.9350476902035358e-04
34 1.5163653678939711e-04 -9.4984788298241351e-05 -9.5959753970948226e-04
35 1.9258124136785983e-04 -1.1005490860076880e-04 9.5069427325087644e-04
36 7.8637186784817972e-04 -1.2346906041013744e-04 6.0326053592898771e-04
37 7.8386995928571756e-04 1.2857673163929649e-04 -6.0465161600694282e-04
38 1.0054418890921171e-03 -1.0801066919908352e-04 6.8728164029968492e-05
39 9.8104301678044077e-04 1.2445987921476189e-04 2.1344518727243149e-04
40 8.6204905438467963e-04 -1.3329726414434308e-04 -4.9621635130472604e-04
41 2.9993603811316887e-04 1.3749839742377101e-04 -9.2067518534201987e-04
42 2.1361862624264501e-04 2.6428067095171301e-04 -9.1699449885066409e-04
43 3.4112377412449588e-04 2.6239300722932476e-04 -8.8110648772717754e-04
44 3.1613883890176250e-04 1.2205490505970285e-04 9.1821951219983188e-04
45 6.8451687753688845e-04 1.2780604806798858e-04 -7.0759722041861676e-04
46 7.2300311341093825e-04 2.4889299606971490e-04 -6.3859236084196417e-04
47 2.8012016741613886e-04 3.7441528489307350e-04 -8.6332342701876989e-04
48 4.0872170050879514e-04 3.6286385586466646e-04 -8.1972963680676850e-04
49 3.4441282340338258e-04 4.7446008497162073e-04 -7.9352107017054217e-04
50 8.1280505687653223e-04 2.5076745001629045e-04 -5.2940684990300361e-04
51 7.4166165951517480e-04 3.7049205175782246e-04 -5.5954203201745792e-04
52 8.2322480784661675e-04 3.6750213052199194e-04 -4.4468249040927125e-04
53 7.4176857710994823e-04 4.8610464245060921e-04 -4.7101938447225333e-04
54 8.1563214743159238e-04 4.7884100568455643e-04 -3.4949225169899478e-04
55 7.2682227991014445e-04 5.9156093995040167e-04 -3.7020336126088643e-04
56 7.9217204254023235e-04 5.7874651372033178e-04 -2.4403742701425938e-04
57 6.4784994899520017e-04 5.9647217400496453e-04 -4.8106548400901839e-04
58 6.2123706668023443e-04 6.9365024779319121e-04 -3.8342606351305590e-04
59 5.3488476138246891e-04 6.9132921434006791e-04 -4.9157348061407396e-04
60 5.0186603062119591e-04 7.7962603727958378e-04 -3.9141681004355259e-04
61 4.1008579434390345e-04 7.6466223220653118e-04 -5.0217449599701666e-04
62 3.7356486157426853e-04 8.4924737444211807e-04 -3.9037052117011430e-04
63 2.1515595716519836e-04 4.8818785086884707e-04 -8.2718909413167965e-04
64 4.6060548328097465e-04 8.5228788574106336e-04 -2.8219879265454150e-04
65 2.7143221983362038e-04 8.2599658180066500e-04 -4.9982946666153681e-04
66 2.3803483614973038e-04 9.0343752579407786e-04 -3.7608093802796638e-04
67 1.3098917938338104e-04 8.7277158171919858e-04 -4.7750416801558833e-04
68 8.7963428869552635e-05 2.7870454076319459e-04 -9.3226424569897899e-04
69 1.5354788779661655e-04 7.8267110421423498e-04 -6.0134972214041695e-04
70 8.6967204482466442e-04 4.6527286093688144e-04 -2.2338272302240922e-04
71 8.4288503204224248e-04 5.5140423303713453e-04 -1.0863820179531422e-04
72 7.5135087648230863e-04 6.6555544492137618e-04 -1.3263315885517492e-04
73 7.9219142568539766e-04 6.3195306613876231e-04 2.9339113291836231e-06
74 6.9214209894088259e-04 7.3971152656901993e-04 -2.0269225834130078e-05
75 7.2114772212376302e-04 7.0184622195612156e-04 1.1419738367175598e-04
76 6.1489713999713486e-04 7.9967815605404269e-04 9.1033936161355312e-05
77 6.3789375899096822e-04 7.5145914239838204e-04 2.2497681947109978e-04
78 5.2460012195494502e-04 8.4167021361608054e-04 1.9829062423909000e-04
79 9.8221333401008224e-05 9.4070185031122839e-04 -3.4828038217221582e-04
80 -1.1328253748222764e-05 9.0251679122071494e-04 -4.4093958000097487e-04
81 2.4379247988126008e-04 2.3569512142365768e-04 9.1816674930588708e-04
82 5.4218869299375817e-04 7.8308190389563893e-04 3.3192854989595060e-04
83 -4.2568605071974563e-05 9.5528531599268097e-04 -3.1957255721359819e-04
84 4.2078834205660820e-04 8.6785224152561896e-04 2.9799604585501485e-04
85 4.3416666473667916e-04 8.0288205905104497e-04 4.2266661081279220e-04
86 3.0747262353289506e-04 8.7514742785022601e-04 3.9158571712592295e-04
87 3.1665823367389012e-04 8.0263863947511570e-04 5.0988392687549013e-04
88 1.8912460196750819e-04 8.6075783891241477e-04 4.8040621719648699e-04
89 1.6426239370881981e-04 9.2909784902586213e-04 3.5414515946926510e-04
90 4.9586950839540942e-05 9.0166954570369796e-04 4.4124957029666162e-04
91 7.1424048210832854e-05 8.2683758096335281e-04 5.5821811343174856e-04
92 -6.2648594860727978e-05 8.5772680633454162e-04 5.1396707068193377e-04
93 -9.5512892191165974e-05 9.2025517189226987e-04 3.9608732931015433e-04
94 -2.0216542605811853e-04 8.6459961189636330e-04 4.6818491760675308e-04
95 -1.6998374660080978e-04 8.0372175710074492e-04 5.6796994729111587e-04
96 -2.3274046597325762e-04 9.1853373803194949e-04 3.4405145469294638e-04
97 1.0669396058025716e-04 2.4026349133264791e-04 9.4100405078403491e-04
98 5.5168815348198390e-04 6.9801592017007714e-04 4.6761763610378573e-04
99 1.7056837775127230e-04 3.5575793904394737e-04 8.9730764353747490e-04
100 3.2498582998027390e-05 3.5449510973713472e-04 9.1203047822846755e-04
101 -3.3242868205056504e-05 2.3911570503299735e-04 9.4649019033270221e-04
102 -1.0418943352548362e-04 3.4854337071111641e-04 9.0931239703590362e-04
103 2.0139246785364648e-04 9.5932980796768958e-04 -2.4559179323224088e-04
104 -1.2639428116945024e-04 9.6772889139287927e-04 2.6074884527994081e-04
105 -2.5886445599985390e-04 9.5528620000433391e-04 2.0764547912952434e-04
106 -3.6476081892976775e-04 8.9617128400657311e-04 2.8799843163881803e-04
107 -1.5289365845940839e-04 9.1180009083481465e-04 -3.9656786967574159e-04
108 -1.3026608606102116e-04 8.4841766204122107e-04 -5.1615838120206868e-04
109 -3.8630401391902047e-04 9.2321804108368610e-04 1.4986642775756181e-04
110 -2.6446444216517286e-04 8.4852124786218887e-04 -4.6604283989702916e-04
111 -2.3861382387461985e-04 7.7429425581256354e-04 -5.8347865569847307e-04
112 -3.6982275774071708e-04 7.6634342177159438e-04 -5.2733258401583259e-04
113 -3.3848582188769746e-04 6.8308759226650383e-04 -6.4057481850437602e-04
114 -4.6466540631175151e-04 6.6950011355071349e-04 -5.7747911066414006e-04
115 -4.2607046218569322e-04 5.8082238166051172e-04 -6.8413939555928894e-04
116 -4.9475636146985064e-04 7.4419846498383546e-04 -4.5797476324712820e-04
117 -2.8625800247337248e-04 9.0470435086762379e-04 -3.3965046517236058e-04
118 -3.0136867406371488e-04 7.8512596724778384e-04 5.4384978135041493e-04
119 7.3050848047371110e-04 6.5675101815687348e-04 2.3750692654428564e-04
120 -2.9786575935142264e-04 5.8800044693225204e-04 -7.3908078321076136e-04
121 -3.8078659914461048e-04 4.8199560383533512e-04 -7.7400752941282852e-04
122 -5.0550304151413547e-04 4.6748777271757346e-04 -7.1383780611953738e-04
123 -4.5542965856290785e-04 3.6642202601347104e-04 -7.9496049262046389e-04
124 -5.8446848344155316e-04 6.4046708569938154e-04 -5.0258329470225047e-04
125 -6.0955467284956057e-04 7.0784298834548941e-04 -3.7611438016362127e-04
126 -6.9366436424629445e-04 5.9670790406815642e-04 -4.1694507981329096e-04
127 -4.9104454069614741e-04 8.5269787047003809e-04 2.3111637771978212e-04
128 -5.7587284583394364e-04 3.4601855295958249e-04 -7.2838151314821853e-04
129 -5.2147989739401786e-04 2.4258783077960239e-04 -8.0121625571164521e-04
130 -6.3613260173740716e-04 2.1846507592105242e-04 -7.2756013718299948e-04
131 -5.7409584375091142e-04 1.1399767467991096e-04 -7.9435271958092416e-04
132 -6.8601243405738840e-04 8.6782394743828401e-05 -7.1135540784785249e-04
133 -6.1582491068698378e-04 -1.7800534592974210e-05 -7.7274510229831416e-04
134 -7.2287496403890977e-04 -4.6115740324759282e-05 -6.8064714303428693e-04
135 -6.4455227992949956e-04 -1.4994924852803758e-04 -7.3720290184768915e-04
136 -7.8934216519850131e-04 6.3205098118745756e-05 -6.0717828518080247e-04
137 -8.1693128729174455e-04 -7.5962720510892203e-05 -5.7081442677112300e-04
138 -8.7262441785919171e-04 3.6446746574423352e-05 -4.9321574899796638e-04
139 -8.9244485912238396e-04 -1.0509262452008990e-04 -4.4956091027732736e-04
140 -9.3827989379464515e-04 3.5658872746829616e-06 -3.6679244111738666e-04
141 -9.4863787619468300e-04 -1.3008487549017700e-04 -3.1747400184614161e-04
142 -9.8371717891490964e-04 -1.9721256576527832e-05 -2.3140955133852303e-04
143 -9.8422103015243390e-04 -1.5299102952161402e-04 -1.7778536014137808e-04
144 -1.0081926902743264e-03 -3.9165905870434703e-05 -8.9176426116320385e-05
145 -9.9788343422781427e-04 -1.7471756604209450e-04 -3.3196901316868063e-05
146 -1.0099626570242049e-03 -5.8710401541784915e-05 5.4927026081373577e-05
147 -9.8812557187691959e-04 -1.9286407921401846e-04 1.1233278924375537e-04
148 -9.6540512186136856e-04 -3.0778621379742768e-04 2.2999017123155617e-05
149 -9.4482656856594927e-04 -3.2192235110162530e-04 1.6794441961318098e-04
150 -9.5615173298840676e-04 -2.0494714651709200e-04 2.5523667084873382e-04
151 -9.0285385680054329e-04 -3.2909416188523259e-04 3.0870058530279925e-04
152 -9.0315998201556734e-04 -2.1027945440760159e-04 3.9251138634296284e-04
153 -8.4046142607927920e-04 -3.3068131470013654e-04 4.4111616664823912e-04
154 -8.9598419559492421e-04 -2.3417940277982427e-04 -3.9507743455192832e-04
155 -8.3109446008583184e-04 -2.0999760247722847e-04 5.1887583592781549e-04
156 -7.5974507495925575e-04 -3.2687574993159514e-04 5.6214617450433451e-04
157 -8.8443600350925056e-04 -8.2855813409034402e-05 4.6855929944407507e-04
158 -7.4246573310511967e-04 -2.0569745098069329e-04 6.3220020802315163e-04
159 -6.6388502156248109e-04 -3.1728356953527763e-04 6.6916741617136367e-04
160 -1.0100503379024297e-03 7.8024366732417353e-05 -6.7691610827963249e-07
161 -6.4086192216355412e-04 -1.9652746003859193e-04 7.3029413048250971e-04
162 -5.5538956345263589e-04 -3.0488878085450130e-04 7.6004434683069196e-04
163 -5.3244194544457249e-04 -1.2019272281964201e-04 -8.2046858435103650e-04
164 -5.5418420792075569e-04 -2.5112257625814558e-04 -7.7867057312551316e-04
165 -7.1214005549950126e-04 6.5580150515918013e-04 -2.8529697307338900e-04
166 -1.6765303233738402e-04 2.3030907540504657e-04 9.3510649828412262e-04
167 -2.3882232076826359e-04 3.3887530529600455e-04 8.8892050625515094e-04
168 -4.3886766224888698e-04 -2.1721326835301690e-04 -8.5272534131139183e-04
169 -4.5447684940680584e-04 -3.4643485329295806e-04 -8.0424290628685030e-04
170 -5.6510389071200119e-04 -3.7945466589208105e-04 -7.2139617173589722e-04
171 -4.5893045694944315e-04 -4.7225548785033455e-04 -7.4034211945913427e-04
172 -5.6716133255620149e-04 -5.0286447352368457e-04 -6.4630520678554844e-04
173 -4.5203905702235239e-04 -5.9081338510141791e-04 -6.6144258967525333e-04
174 -5.5471814502526431e-04 -6.1629132773986372e-04 -5.5984920672279227e-04
175 -4.3659068437092483e-04 -6.9926840909150629e-04 -5.6632282798274483e-04
176 -7.6399471019316875e-04 -4.3663025473375961e-04 4.8200707421385854e-04
177 -5.3364292218909416e-04 -7.1630866479206875e-04 -4.6014589515695553e-04
178 -4.1133796925379935e-04 -7.9388803904390057e-04 -4.5863903950647919e-04
179 -3.1258578685046081e-04 -7.7262140883584129e-04 -5.5348590740243373e-04
180 -2.7828760004360524e-04 -8.5656750998040494e-04 -4.4649236246275165e-04
181 -1.7518710589496799e-04 -8.2474425621413571e-04 -5.4009177265523540e-04
182 -1.3717152640432722e-04 -8.9881532421595396e-04 -4.3025166367245292e-04
183 -3.4740706705948010e-05 -8.5343669236558203e-04 -5.2423610189451060e-04
184 -3.2431647293810831e-06 -9.2250683782678421e-04 -4.0311575811996752e-04
185 -9.8750573277228777e-05 -9.5781149879153784e-04 -3.0448954847444399e-04
186 3.7412660923078887e-05 -9.7301514636050025e-04 -2.7069310216698241e-04
187 -5.5827242160059474e-05 -9.9679854126562707e-04 -1.6979377926806013e-04
188 8.5296172984278924e-05 -1.0005962899645132e-03 -1.3633482026398494e-04
189 -1.0253846778804517e-05 -1.0133423334688309e-03 -3.0897905282559161e-05
190 1.2738604262540573e-04 -1.0058821340040984e-03 6.6433278660977625e-06
191 3.1265949053482679e-05 -1.0067376809948280e-03 1.1037685091546447e-04
192 1.6969223064498831e-04 -9.8781025163070281e-04 1.4697767332911614e-04
193 6.9364005868611243e-05 -9.7753664761013152e-04 2.4925458247768362e-04
194 2.1507670948429306e-04 -9.8562255567255421e-04 -9.5758555484660846e-05
195 2.0828193337725393e-04 -9.4752936220631064e-04 2.8332160212771488e-04
196 1.0316086209588765e-04 -9.2613444131235743e-04 3.8378044722333537e-04
197 1.1225050915770592e-04 -8.7247197380050691e-04 -4.8552101875719202e-04
198 -1.0067393443148983e-04 -1.0056842357697617e-03 7.1065679013053126e-05
199 2.4109922975198579e-04 -8.8613288473950082e-04 4.1254923880791806e-04
200 3.4452039298480086e-04 -8.9741899376937254e-04 3.0954297056774184e-04
201 3.7230822940301163e-04 -8.2830155239476397e-04 4.3289660896760008e-04
202 1.3360925858510046e-04 -8.5451244916078287e-04 5.0771970498363311e-04
203 4.7254169014839041e-04 -8.3032563201815637e-04 3.2588658898931468e-04
204 -3.6958988450508287e-06 -8.8515775675457591e-04 4.7472022365639596e-04
205 2.7450727983789854e-05 -8.0362678692648068e-04 5.9264076431611850e-04
206 -9.1221038701495957e-04 -4.3425815089223228e-04 7.7754823890137484e-05
207 -7.7823535868051203e-05 -7.6603907855968853e-04 -6.3393112662180192e-04
208 -1.1053782549776918e-04 -8.2512278078215623e-04 5.5524311581748339e-04
209 -7.7374943367833986e-05 -7.3600621199984681e-04 6.6505827954422539e-04
210 4.9229948784891130e-04 -7.5552820568284922e-04 4.4494516784387658e-04
211 5.8786570643860100e-04 -7.4945711922271084e-04 3.3318609807396173e-04
212 -5.0321961090275347e-04 -8.0030810702167202e-04 -3.5111723905434161e-04
213 5.8464009353971158e-05 -7.0691717139164582e-04 6.9556057552402027e-04
214 -4.3662647982441728e-05 -6.3372889580155475e-04 7.5881762090485255e-04
215 -3.3710604365668617e-04 -3.0784021064679307e-04 -8.6963436288923850e-04
216 -2.1407139246310732e-04 -7.4896881761311450e-04 6.2260054665065135e-04
217 -2.4605326982024355e-04 -8.2984734707314592e-04 5.0627370013650716e-04
218 5.6574092029465560e-04 -8.1239532118126392e-04 2.1135472180279692e-04
219 6.8265484433785027e-04 -7.1282764381313038e-04 2.2440339450832984e-04
220 6.4470989739142651e-04 -7.7700023893738823e-04 9.2191195640279244e-05
221 -6.4275156035267442e-04 -6.3096112544022448e-04 -4.4578756032185159e-04
222 7.5413917532932042e-04 -6.6939867040922648e-04 1.0491711324792124e-04
223 7.0509699499756644e-04 -7.2793873707612715e-04 -3.2035135161799112e-05
224 -3.1892332631529226e-04 -1.7989610777025323e-04 -9.0801792769035054e-04
225 -9.6558259003247761e-04 1.0819486464617785e-04 -2.7470095236644022e-04
226 8.9438698638329622e-05 -5.9757414095486662e-04 7.8199244341968749e-04
227 -1.2443856279303706e-05 -5.2005752633168308e-04 8.3600058318460363e-04
228 -5.2890080852148653e-04 -1.7789564172433119e-04 8.1317361187434247e-04
229 -6.0869286452387391e-04 -7.6098098747017469e-05 7.7485498212112526e-04
230 6.8539130446054752e-04 -6.4991987889136192e-04 3.5356018009262684e-04
231 3.9466732042032170e-04 -7.4553024599342225e-04 5.4018608819289863e-04
232 5.1492660738967791e-04 -6.5732015664387818e-04 5.5341406520069284e-04
233 8.0194522971003992e-04 -6.1955846715337380e-04 -2.7675272573483988e-05
234 7.4747953095383722e-04 -6.6476647592902569e-04 -1.5728246657687494e-04
235 -4.0000817348371745e-04 2.5996236954183558e-04 -8.5899110766656851e-04
236 3.0560033329634902e-04 3.5021934972439731e-04 8.6576127968956919e-04
237 -4.4127490564143193e-04 -2.8578575620469260e-04 8.3276486924430842e-04
238 -8.3865070513056681e-04 1.8657682380227632e-04 -5.1641894997718864e-04
239 6.4317091462203163e-04 -7.6476903471521562e-04 -1.6326216319043104e-04
240 6.7982155606805558e-04 -6.9098380124760770e-04 -2.8513463148777953e-04
241 -5.7839420552611889e-04 -4.2346798442027562e-04 6.8818640824964148e-04
242 5.6753912565725168e-04 -7.8449538660674886e-04 -2.8868552432531163e-04
243 5.9804970455141246e-04 -7.0123090507089936e-04 -4.0583128418030879e-04
244 7.0251208990776165e-04 -6.0195596480891250e-04 -3.9838430805176704e-04
245 6.1362355121601998e-04 -6.0420318658754011e-04 -5.1395922564024317e-04
246 -2.1459590760806470e-04 -2.6694771149296797e-04 -9.1690799956269445e-04
247 8.4425400486252099e-04 -5.5185714416627180e-04 1.0002211711867115e-04
248 2.3064456562090952e-04 4.6205721179547643e-04 8.3810286968071868e-04
249 -4.0797253763450375e-04 -1.5455954574988492e-04 8.7952907189326032e-04
250 3.6390128681223149e-04 4.5285149824221072e-04 7.9818280248511583e-04
251 -2.2958349718394769e-04 -3.8703889366346482e-04 -8.7287589095827055e-04
252 -1.0001047569470303e-04 -3.5427712417125798e-04 -9.0818603529727059e-04
253 3.8811657415051065e-04 9.1990916018562681e-04 1.6401188615155690e-04
254 -6.1995719027065706e-04 7.6059992641187434e-04 -2.4042836293465688e-04
255 -7.1549104210573292e-04 7.0008438118203777e-04 -1.4774968952525842e-04
256 -8.0001296372077919e-04 5.8887483609578394e-04 -1.8921854271335020e-04
257 -7.9538540656295281e-04 6.2525559339460018e-04 -4.8325637179335081e-05
258 -3.9782346713870978e-05 4.6230449617073939e-04 8.6600826003497514e-04
259 -3.1670996932963591e-04 -2.5255569765248104e-04 8.9330836295694509e-04
260 -2.9954689108743196e-04 2.1835421324019593e-04 9.0654761897244237e-04
261 -3.7051143719590921e-04 3.2314135689719804e-04 8.5158203199127609e-04
262 -2.8403615386553938e-04 -1.3026793916019294e-04 9.2726806008109990e-04
263 -1.8976777809213499e-04 -2.2339126671584402e-04 9.3304940788941379e-04
264 -8.7118685187210414e-04 5.0818461674251563e-04 -9.0241646044411400e-05
265 -8.5424361557172779e-04 5.4176901331528821e-04 5.5924846591634099e-05
266 -3.4741190432795600e-04 -7.4282762685037016e-04 5.7189054805431084e-04
267 -3.7274116279508666e-04 -8.1737339209582047e-04 4.5058440280844271e-04
268 5.0337330012544272e-04 -6.9693568989721822e-04 -5.1592034622673154e-04
269 5.1203070875987080e-04 -5.9409258222159879e-04 -6.1750328432150193e-04
270 6.1642130793438494e-04 -4.9542690851376247e-04 -6.0970727489699679e-04
271 5.0882770992184223e-04 -4.8015616649125918e-04 -7.0516342695506470e-04
272 4.0059971677555689e-04 -5.7221595418356305e-04 -7.0623768507459045e-04
273 -3.0581016899027631e-04 4.4216485787817566e-04 8.2517669542437418e-04
274 -4.3556058598700852e-04 4.2338938213115580e-04 7.7915995429358065e-04
275 3.9422768830089678e-04 -4.5452730600698850e-04 -7.8405182698259917e-04
276 2.8327791416627514e-04 -5.4015784861122305e-04 -7.7820855074736987e-04
277 -3.4431677124306610e-04 -3.7483734071987450e-04 8.4234979384365807e-04
278 -1.4918564091255385e-04 9.9396885598752351e-04 1.2051962102893116e-04
279 8.3110428683538936e-04 -5.5759759183480800e-04 -1.5229882692651469e-04
280 -2.4973831759195978e-04 4.8649496123007966e-04 -8.1945417239938606e-04
281 -1.6035180578255590e-04 5.8976295505777133e-04 -7.7616387384041449e-04
282 8.8141779002656945e-04 5.0099424221228912e-04 2.7678077800721528e-05
283 1.1917659468957506e-04 -4.7961473941229225e-04 8.5079720957083804e-04
284 -1.0012122231026546e-03 5.4475853088885702e-05 1.3822261951728742e-04
285 -9.2145884866202878e-04 -4.1580005694734189e-04 -6.7662798363674680e-05
286 -8.5887621406118063e-04 -5.3810633409153569e-04 -1.3458941373284169e-05
287 -8.3963178493205715e-04 -5.5123003917871192e-04 1.3110160372296653e-04
288 -7.7706706046989644e-04 -6.4926091252627614e-04 4.0339908534220236e-05
289 -7.4884802714477252e-04 -6.5555859233362918e-04 1.8364954203318944e-04
290 -6.7998952782268095e-04 -7.4515778378982783e-04 9.3149924789663629e-05
291 -1.9925893393230073e-04 -9.7246327984596380e-04 -1.9760299656839650e-04
292 -2.7420833927865960e-04 -8.9282592867968239e-04 3.7831190327255321e-04
293 -3.4454615234533859e-04 -5.4937561522610352e-04 -7.4892186578085992e-04
294 -1.0512113869250449e-04 -4.8853459210962901e-04 -8.4825640494311846e-04
295 -4.9748254495428346e-04 2.9952185952623135e-04 7.9796346325721596e-04
296 -5.5951591005394779e-04 3.9700966344398213e-04 7.1642474421392465e-04
297 -8.7081130053625060e-04 4.6112979419389387e-04 -2.2495849070588533e-04
298 -6.1972492708336688e-04 2.6834448291550257e-04 7.2617220315124460e-04
299 -6.7389767882750063e-04 3.6453809348548170e-04 6.3706258082200430e-04
300 -6.0992584130544435e-04 4.8958087976815729e-04 6.1877801144156314e-04
301 -7.1855086387135280e-04 4.5082664394800151e-04 5.3219738135622306e-04
302 -7.7570865969961965e-04 3.2336663062236114e-04 5.4334750934322787e-04
303 -3.1374230971403739e-04 -6.5861185042602498e-04 6.7600226241552907e-04
304 -6.4359841677930128e-04 5.8081721844628501e-04 5.0377174709241004e-04
305 -8.1340175195619919e-04 4.0236696398997967e-04 4.3307543937627755e-04
306 2.2172379859111531e-04 -5.5083530627088144e-04 7.8950388957015744e-04
307 2.4852760726481299e-04 -4.3144679463160448e-04 8.4860744530543134e-04
308 3.5381644478557731e-04 -4.9935284692984711e-04 7.7670992137805078e-04
309 -4.5737202682939986e-04 -7.2921150212137758e-04 5.1304450687185855e-04
310 -8.6139429852233774e-04 2.7172095955438867e-04 4.4068371503481216e-04
311 -4.0389696786304334e-04 -8.6886417903885883e-04 3.1858307911531483e-04
312 -7.7302485878955691e-04 6.4795587174691161e-04 8.9859351714126283e-05
313 -8.5904876080309398e-04 -5.1286859807020185e-04 -1.5585049482709444e-04
314 -9.2450470322317669e-05 1.1075405750693677e-04 9.6494808892927549e-04
315 -8.9409135399460236e-04 3.4562758245270222e-04 3.1654409520617523e-04
316 -9.9082406236243505e-04 1.9031101633970932e-04 8.9424969716787612e-05
317 -1.1012455258542360e-04 7.7008400131322804e-04 -6.2278615959492458e-04
318 2.7553349811490675e-04 -4.2032474901248807e-04 -8.4607912951907246e-04
319 -6.9887120305620520e-04 -7.3204034399707680e-04 -5.4347747352404578e-05
320 -6.0459614162276375e-04 -8.1294041387205550e-04 4.7684463234949319e-06
321 -6.6612780062886982e-04 -4.0638633848728031e-04 -6.2091495368671692e-04
322 -8.9230190277417911e-05 -2.2049401644161541e-04 -9.4708472156971256e-04
323 5.2414738177744319e-04 -8.6387095306020506e-04 8.2699568709672483e-05
324 -6.1769028143976402e-04 7.9560379642538612e-04 -1.0223807329088322e-04
325 2.8677586740549348e-04 5.5741563304348017e-04 7.6521987240842602e-04
326 2.8461408436858702e-04 -6.5196580070760364e-04 -6.9398496332471560e-04
327 1.6221305475897790e-04 -6.1507543727073457e-04 -7.5856792731185049e-04
328 4.2017593281843589e-04 5.4417582142101436e-04 7.1498737949278804e-04
329 4.9164612066207613e-04 4.3512799323746130e-04 7.4183346210255545e-04
330 4.6927762243621421e-04 4.5540422540915322e-04 -7.4304417864686531e-04
331 -1.3558402834455251e-05 9.9690000607328619e-04 1.7106537908784578e-04
332 -3.6706651431214998e-05 1.0115209112751043e-03 3.1119016884735029e-05
333 -1.6745102798491931e-04 9.9861864931149254e-04 -1.8322220669126271e-05
334 1.0008322694030089e-04 1.0044409530758562e-03 8.0740994308928910e-05
335 3.7059581527510170e-04 -3.7058620440590893e-04 8.3386819880596321e-04
336 4.6453326196768045e-04 -4.3749373817878444e-04 7.5666751347727116e-04
337 -8.1714498164040406e-04 1.9599276526773249e-04 5.4289957983739978e-04
338 -3.6468928536613108e-04 5.3833218231567372e-04 7.4620702164910203e-04
339 -1.2585545717840236e-04 4.9277311946308835e-04 -8.4192271909670714e-04
340 3.8381109251698281e-04 -3.3376898255228348e-04 -8.4255788576120230e-04
341 2.3872327269866627e-05 -3.0021130778844430e-04 -9.3024088114957045e-04
342 -9.3964191046800498e-04 3.6211867558634352e-04 -1.1424765179259695e-04
343 1.3013534969394305e-05 -3.9971831456607910e-04 8.9532419680424431e-04
344 -5.3269277857324914e-04 6.1045365266470142e-04 5.8471092478097240e-04
345 -5.4957021317231670e-04 7.0635217146902956e-04 4.5779259278783460e-04
346 -6.6943186234947856e-04 6.5213043891868547e-04 3.7599293794972870e-04
347 6.0724469561956873e-04 -3.7706850846669295e-04 -6.9067386016369227e-04
348 7.1014544290409114e-04 -3.8549241369503496e-04 -5.8831017569489297e-04
349 5.4209800371609739e-04 5.2399627451260513e-04 6.5013704068414384e-04
350 6.1239927834335847e-04 4.0568806361897930e-04 6.7079125025227117e-04
351 6.5933144847884410e-04 4.8994034908972849e-04 5.6990212415163120e-04
352 7.2267053211244484e-04 3.6122173803351842e-04 5.8827854008667517e-04
353 7.6022045198413202e-04 4.4839581799338720e-04 4.7842651765206493e-04
354 -6.4386731023911045e-04 -7.4399923155973804e-04 2.3329302198738333e-04
355 2.7321620805240637e-04 5.7768737893216994e-04 -7.5460041310287268e-04
356 1.3863598987087566e-04 5.9498464881433180e-04 -7.7610703489703866e-04
357 -6.8196482318750142e-04 3.1757846702133301e-04 -6.5104710273212291e-04
358 5.2430062269159903e-04 -8.5004990107881017e-04 -1.6707607223631903e-04
359 4.4363613399669928e-04 -8.6095242974603824e-04 -2.8777840526358651e-04
360 -8.3551778991136074e-04 4.7624343241951578e-04 3.0695307565001159e-04
361 -1.4316485971464793e-04 -5.4994794690473416e-04 8.0633234322337235e-04
362 -2.0581014635889675e-04 3.8187743679340047e-04 -8.7992561432897716e-04
363 -2.3871357911192838e-04 5.4992150018840522e-04 7.8457144656495414e-04
364 -5.1628623672169457e-04 8.4818939032686377e-04 -1.8996031276701243e-04
365 1.5623717957212926e-04 5.6572037950204451e-04 7.9383716777005266e-04
366 -3.7989142539400083e-04 -2.9354166675177367e-05 9.0272302635158207e-04
367 -7.0255165347551506e-04 -6.4733361158484108e-04 3.2469682873996925e-04
368 2.1153961365518370e-04 6.7253680182049677e-04 7.0052399146297269e-04
369 8.0829485553648932e-05 6.5043799103811000e-04 7.4130959830024615e-04
370 7.0006301558366783e-04 -2.5997534350729386e-04 -6.5884546993703126e-04
371 -5.5246674775298664e-04 1.7099593050910928e-04 7.9958222529473216e-04
372 -6.7168625068849352e-04 1.3708897393250203e-04 7.1748578920223277e-04
373 5.7703038688366743e-04 8.3166179119873590e-04 -4.1150866741618477e-05
374 -1.6206789498855774e-04 -9.6686243255716801e-05 9.5749926298847377e-04
375 -6.3290401120956111e-05 -1.9741990900463627e-04 9.5384387052502772e-04
376 -3.0432804649112283e-04 -9.3477410741866552e-04 2.3790381661633635e-04
377 -4.3504828726580755e-04 -8.9912155149858271e-04 1.6950675344565622e-04
378 -9.3343298626927967e-04 1.8863584102754493e-04 3.3485460986860206e-04
379 4.4213672030191949e-04 6.6017099888254565e-04 -6.0441015689776344e-04
380 1.6639627590472788e-04 -7.1918443836775062e-04 -6.6714212452405059e-04
381 2.8308688387040199e-04 -7.4920874091701807e-04 -5.9664602207123605e-04
382 -9.1023944458443337e-04 -3.8924085439487961e-04 -2.0732244522020095e-04
383 -8.4035085944000312e-04 -4.7872262736741762e-04 -2.9045850775680600e-04
384 -7.8140841889775409e-04 -5.9168985189361506e-04 -2.4867671238626904e-04
385 -1.7029309015048158e-04 -9.4978400397945431e-04 2.9811013388292789e-04
386 -6.6118432143023940e-04 5.2556313447540677e-04 -5.3634005393689581e-04
387 -7.6214288708249507e-04 4.7483930656471693e-04 -4.4940275348586453e-04
388 8.8681344476991975e-04 2.4759476112720994e-04 -4.0690522682175587e-04
389 -9.1505018343156642e-04 3.3577932711298153e-04 -2.6420958632921489e-04
390 -5.1103869682747941e-04 8.7286998524925487e-04 -4.9726483877368368e-05
391 -4.0516303641194881e-04 9.1734694113661686e-04 -1.3335209112323818e-04
392 -6.0732391500896801e-04 8.0968680912655102e-04 3.3330301172111977e-05
393 -6.0190306769655278e-04 -8.0346826640306616e-04 -1.3426624712249303e-04
394 -5.0999587910770055e-04 -8.7242184260056556e-04 -7.2630649189447643e-05
395 7.2679893228480113e-05 1.0083922966636941e-03 -5.8399234198397073e-05
396 2.1250759406371496e-04 9.9036919211701246e-04 -9.2702786870083825e-06
397 5.3794457261053359e-04 3.3809966259100254e-04 -7.5906019034128059e-04
398 2.5767180831032948e-04 -3.0802960705023731e-04 8.9471087582074021e-04
399 3.8135957316822865e-04 -2.3222271188713672e-04 8.7530161878206887e-04
400 -2.9066529143771983e-04 6.3440158386543163e-04 7.0502585147197341e-04
401 -1.7529862870068388e-04 6.3871658656988631e-04 7.3560464205450044e-04
402 3.2131468118412702e-04 -6.1168224974992279e-04 7.1262067679944631e-04
403 6.7090878410859100e-04 2.7732119634140995e-04 6.7952821133117596e-04
404 6.7947872468611663e-04 5.8553714793039223e-04 4.5453420286588098e-04
405 -3.1863714077861167e-04 -9.5759644619578606e-04 8.9948895114099853e-05
406 2.6108432619781395e-04 -2.9761526850149918e-04 -8.9663757637271934e-04
407 3.6719343449341594e-04 -2.1264778655134310e-04 -8.8435829197837346e-04
408 8.8857539760364544e-05 4.9845655720749844e-04 -8.4296924874050004e-04
409 -9.0233935772180719e-04 4.2795655700246694e-04 1.7030502898658805e-04
410 -4.6512465416847772e-04 8.1583219272603766e-04 3.6469473144912256e-04
411 5.7397855273990587e-04 4.3706375008508417e-04 -6.8214742905191609e-04
412 4.6464586502207184e-04 6.4469436074681070e-04 6.0497942883633348e-04
413 8.2112373290942997e-04 3.0170476252270039e-04 4.9225235059643577e-04
414 8.4880948836270776e-04 3.9052242802567553e-04 3.7670037412847315e-04
415 3.4327714922353690e-05 -1.6076249977666859e-04 -9.6154370767479965e-04
416 -9.8790777123203689e-04 2.1844763789056118e-04 -5.3937228156719397e-05
417 -8.4989340234884831e-05 3.8773089137540722e-04 -8.9566228602159202e-04
418 -1.5602424993006966e-04 2.7275578218464904e-04 -9.2594829284787790e-04
419 2.5399536102248208e-05 1.9258420684151696e-04 -9.5468965861959082e-04
420 -8.4801483369595940e-05 -8.2915115257524595e-05 -9.6716636689148517e-04
421 -9.5938067555213747e-04 3.2290367006814939e-04 5.0408283470281620e-05
422 7.9440792305073254e-04 -2.6287123677288382e-04 -5.5010735957523188e-04
423 7.9967682883905645e-04 -3.8332373914115857e-04 -4.7207372568065635e-04
424 2.5013591519280497e-04 9.7260987347499593e-04 1.2797964199887880e-04
425 3.9591825297576882e-05 -6.8488269966982039e-04 -7.1770590516772681e-04
426 2.9209462690405474e-05 -5.5781453609572880e-04 -8.1302519513322359e-04
427 -7.8564208045482455e-05 -6.0604209930812205e-04 -7.7642280964449969e-04
428 4.0352605763238560e-04 -9.1237042810101148e-04 -1.7131006712710497e-04
429 3.1829505242146405e-04 -9.1618888074038857e-04 -2.8259600002362583e-04
430 3.5470909196718369e-04 -8.5521378972767297e-04 -3.9635442008280689e-04
431 -6.0184590607634356e-04 -7.2395746402883327e-04 3.5964927062417278e-04
432 -6.4030816734418085e-04 -6.2069576823551198e-04 4.6275045255880423e-04
433 1.4843359184778609e-04 -3.7130959886322399e-04 -8.9534845853782850e-04
434 -1.3433233662654048e-05 5.8853032045052785e-04 -7.9286384039940771e-04
435 7.2427917970292448e-05 6.8835653714846665e-04 -7.1070088647065565e-04
436 8.9486334075089536e-04 2.5613671101155444e-04 3.8494510837031726e-04
437 9.1547678967244639e-04 3.3712045870918131e-04 2.6328258530165555e-04
438 8.6543089156537994e-04 4.5143522620243003e-04 2.6005422732488506e-04
439 7.7002345280054239e-04 2.2316587512405650e-04 5.9610424324563790e-04
440 -5.9094582942784146e-04 7.5737794071309298e-04 3.0952466339970240e-04
441 -7.0945645977459255e-04 6.8386917067812521e-04 2.2979951005285332e-04
442 6.8545961871358896e-04 -1.2456628401278318e-04 7.0766270449643684e-04
443 7.2020384809107999e-04 -2.4733340814064468e-04 6.4311865809618055e-04
444 8.1409538553470391e-04 -2.4623815531710154e-04 5.3033188520300377e-04
445 7.4235830913891871e-04 -3.6610793499542306e-04 5.6247621468016699e-04
446 8.2530525330766252e-04 -3.6263344068876511e-04 4.4628459904397596e-04
447 7.4665665529841043e-04 -4.7314842191466933e-04 4.7744540511217260e-04
448 6.6045096889599613e-04 -4.7544121791127535e-04 5.8054641104066725e-04
449 8.2267242083867379e-04 -4.6775725699342233e-04 3.4977403618719404e-04
450 8.9164911155386489e-04 -3.5443597280935396e-04 3.1464974570667324e-04
451 6.4806935819391835e-04 -5.8862234158033879e-04 4.9212779512783963e-04
452 6.9450442960434762e-04 1.3205336190737893e-04 6.9904043409388774e-04
453 -5.7239514360391940e-04 -8.2284288116712435e-04 1.4321929411333149e-04
454 2.5744565215647031e-05 -4.3232065707314788e-04 -8.8142880939288623e-04
455 9.1985743979861685e-04 3.9923613209141845e-04 1.3991947331500282e-04
456 4.8196642546106591e-04 -2.3230086013301585e-04 -8.2717753819940996e-04
457 5.2159694770613659e-04 5.4118320374060207e-04 -6.5171498485733703e-04
458 6.0984982382811899e-04 -2.4821289671875154e-04 7.4141861223199490e-04
459 1.3486953023590114e-04 9.7710450373467129e-04 2.2145930264902568e-04
460 6.4609748693358025e-04 6.9022987995171641e-04 3.5038102064227818e-04
461 4.0371676071559434e-04 5.6271656646757705e-04 -7.0974033622912391e-04
462 -4.3400045823886778e-04 7.0740499200588414e-04 5.5795147153338504e-04
463 7.7646245891138969e-04 -1.3468383540696946e-04 -6.1298713672057361e-04
464 8.7267103243066297e-04 -2.5744150856234671e-04 -4.2947166222797456e-04
465 8.7194261928588528e-04 -3.7147199495769480e-04 -3.4603039896065850e-04
466 1.0739957929174595e-05 8.3233016825850754e-04 -5.5397226399061280e-04
467 9.3119505424544213e-04 -2.4651790947394393e-04 -3.0300494994021270e-04
468 9.2664000668933534e-04 -3.5126119631569922e-04 -2.0728964374968492e-04
469 1.5240384703772811e-04 3.8560329512768015e-04 -8.8784456485761971e-04
470 8.7567247088250061e-04 -4.6038238521668072e-04 2.1336105536585306e-04
471 9.3756484018507808e-04 -3.3881066251986280e-04 1.7716230674148729e-04
472 2.0269722495039829e-04 7.7446887101100177e-04 5.9679809956659959e-04
473 1.4988962974438400e-04 -2.4595998532818446e-04 -9.3393151852408460e-04
474 2.2361626859826391e-04 -9.0527867006286568e-04 -3.8190499094303100e-04
475 5.8201765420666236e-04 7.7767360888332646e-04 -2.7573644721734888e-04
476 3.2503903700907642e-04 7.1421478353589092e-04 6.1565588214176046e-04
477 3.0497477562101019e-04 7.3751917066838390e-04 -5.9934987998999764e-04
478 -1.9958186846444240e-04 -5.6805028831861308e-04 -7.8269546637863160e-04
479 -1.8075134705858775e-04 -6.7586320672877490e-04 -7.0460019362715229e-04
480 -3.9350696882848397e-04 8.3364744189951283e-04 -4.0266077799564664e-04
481 2.0680809158655879e-04 6.8108818415282834e-04 -6.9222442866742953e-04
482 7.8556224498652939e-04 -5.8979323799330694e-04 2.4561120610378114e-04
483 9.1482501393258336e-04 -4.3004956946372390e-04 7.3907896176278730e-05
484 9.6228533465391028e-04 -3.1451978370388822e-04 4.2023314725248386e-05
485 5.9358596955961834e-04 -2.4887130941369156e-04 -7.5247758552680530e-04
486 4.1478047823039529e-04 1.5746852395926770e-04 -8.7523681820606827e-04
487 1.0024463189446315e-03 1.2992689765275835e-04 -7.2659289920277317e-05
488 9.6917543083109776e-04 2.7136999714274596e-04 -1.2220452791570903e-04
489 9.8501805402626658e-04 2.3372621656342677e-04 8.9321244077923499e-06
490 9.1551302965483291e-04 4.2303419332368142e-04 -9.5641490724982962e-05
491 3.5308513302229581e-04 9.4910338049505600e-04 2.9041436291768770e-05
492 3.0968837905571398e-04 9.5715175747221456e-04 -1.2057298719484170e-04
493 4.4899347349531947e-04 9.0564132555662723e-04 -6.3079448111490538e-05
494 9.3407697264091501e-04 -3.8760244597152329e-04 -6.1704096408402126e-05
495 9.7044227297308485e-04 -2.7632016580903668e-04 -8.9320862252799223e-05
496 -3.9839815792928407e-04 9.3088738805224120e-04 8.2352234462389015e-06
497 1.0024269443750762e-03 1.2762489995512083e-04 7.5684113751644784e-05
498 6.9440396331862247e-04 6.8487399833162734e-04 -2.6379671921140441e-04
499 1.0024785764093139e-03 -1.2723964252723063e-04 -8.4290010107609053e-05
500 9.8231265475257415e-04 -1.1367913880523202e-04 2.1468859145811728e-04
501 9.2938891242397216e-04 -1.2658361749190333e-04 -3.6911585286074784e-04
502 8.6964889894207615e-04 1.2674228400021441e-04 -4.8481015546279061e-04
503 8.7161362866781554e-04 -1.2224071865148277e-04 4.8356066322020414e-04
504 4.5400611030415797e-04 1.1935177653590034e-04 8.6346154904467457e-04
505 4.3634787373146729e-04 3.4011387363642548e-04 8.1603913008885848e-04
506 6.4947627642413723e-04 -3.6367508868264135e-04 6.6087138098132152e-04
507 3.2725972079390117e-04 -1.1113322768660844e-04 9.1575458622724900e-04
508 6.1515362558679445e-05 -1.3904150973812493e-04 9.6407453452860886e-04
509 1.5475294750845543e-04 -2.3769681331015403e-04 9.3551317232370556e-04
510 2.6629865827125949e-04 -2.0296484913323145e-04 9.1910630013922472e-04
511 -2.0603989998226337e-04 6.8594365455967681e-04 -6.8808364026811428e-04
512 2.7873007782010473e-04 9.3520763812756313e-04 2.6143083561463130e-04
513 5.9187664660991846e-04 -8.2222921961753364e-04 -3.9325366014365281e-05
514 2.6414112221998833e-04 -9.7783036384306208e-04 4.2467349850113511e-05
515 3.0783913968366808e-04 -9.4828336538018353e-04 1.7786599211080199e-04
516 -5.4835901596050473e-04 5.6032897500467164e-04 -6.1561662979723252e-04
517 7.7566458035771915e-04 -5.8595051683255376e-04 -2.7564144905867986e-04
518 -1.4838805191641117e-04 -1.0001232659119870e-03 -6.6776057477565864e-05
519 -2.9476758197120086e-04 -9.6744437922529041e-04 -7.3231477876753743e-05
520 -3.3540892097897270e-04 -9.2863588400536753e-04 -2.2067704795161627e-04
521 -7.8898984766093356e-04 5.3770595909015623e-04 -3.2414618488672695e-04
522 -9.9757716726659590e-04 9.6215815582143257e-05 -1.4159437920682527e-04
523 8.0528116979724053e-04 5.9994316359657056e-04 1.2937518993322666e-04
524 -8.0082504898761487e-04 -5.5304581329473023e-04 2.7103994301954406e-04
525 7.8926300261110416e-04 5.0759001900053643e-04 3.6656831976120553e-04
526 4.8074109832475938e-04 -7.8706564627370435e-04 -4.0448987353069413e-04
527 -9.6374778934164276e-04 -2.8632991426472105e-04 -1.2186960457920656e-04
528 -9.4745337289999692e-04 -8.3237315331622307e-05 3.3574103604909337e-04
529 -9.2101910913130905e-04 4.1630724662053732e-05 4.0347813860161849e-04
530 -8.4561957494500343e-04 4.5810379787736535e-05 5.3532893251032521e-04
531 -7.8545626278070770e-04 -6.3119478049944553e-04 -1.0706402196279480e-04
532 -9.8913704860398234e-04 -7.4718563343940708e-05 1.9826074293445705e-04
533 -7.4733695085307382e-04 5.2814939896850060e-04 4.1725574759182672e-04
534 -7.0672029571855813e-04 7.2523242243848168e-04 -1.3515075480500675e-05
535 -2.4014874402160922e-04 -9.2326954258678399e-04 -3.2963767080245159e-04
536 6.4502533206205615e-04 7.6496160854284576e-04 -1.5230514869168165e-04
537 -1.4120104331902161e-04 -8.9736881102933262e-04 4.3173412279298685e-04
538 -5.4707270905312157e-05 1.0051578239829598e-03 -1.0333084023897307e-04
539 -1.7730482011855744e-04 9.5451506335532811e-04 -2.7520637552823677e-04
540 5.5481436466565980e-05 9.8854067120910066e-04 -2.0866770158030904e-04
541 -9.5072475646516504e-04 2.8213283079520627e-04 2.0083860453286992e-04
542 -8.8214430885144091e-04 -4.4308804735500280e-04 2.2025077565981601e-04
543 -8.0416196075305162e-04 -8.4053155356876360e-05 5.8653644354968648e-04
544 -7.5624821441402175e-04 2.7080996321406326e-05 6.4671976023011543e-04
545 -6.6482359349375342e-04 -5.2358230395955520e-04 -5.3549207485562782e-04
546 -7.5095077348243566e-04 -4.2691183793532907e-04 -5.0815646342289278e-04
547 -7.5348213139394638e-04 -3.0519929666923559e-04 -5.8066489402552142e-04
548 -6.5976756064289454e-04 -2.7944727051908277e-04 -6.8827311665658401e-04
549 2.6795742900546492e-04 -8.0753310783584261e-04 5.2923366106849199e-04
550 5.8354651750078582e-04 5.9680353005292215e-04 5.5037828299169987e-04
551 8.8444813635353602e-04 3.6242431328931400e-04 -3.2302033843832178e-04
552 8.8941274602001824e-04 -2.4229907037929659e-04 4.0523904893313597e-04
553 1.6222616249199627e-04 -7.6610921120182204e-04 6.1810520883540056e-04
554 -4.4799864127302390e-04 -6.3590187627593974e-04 6.2498834664341605e-04
555 -3.9347737470207773e-04 -5.5308464553010248e-04 7.2303476872954226e-04
556 -8.3136196188031560e-04 -4.4435037369371463e-04 3.5649762218183144e-04
557 -6.1652638562588848e-04 -7.1896108571729779e-04 -3.4547144839050249e-04
558 -7.2496971576044549e-04 2.4063754880535710e-04 6.3930253260594937e-04
559 -6.7529983904989150e-04 -4.3217019260124474e-04 5.9485603191110380e-04
560 -5.8396877671517702e-04 -5.4661981151167072e-04 5.9860422960963781e-04
561 6.4909762912120734e-04 4.8643762391759044e-04 -5.8419755822248988e-04
562 -3.2698271574427783e-04 -6.7317774775558050e-04 -6.5730688706153780e-04
563 -4.9177249662098730e-04 5.1740564268803178e-04 6.9088277994228814e-04
564 7.1282220528622433e-04 -4.9900297171528714e-04 -4.9977412102574555e-04
565 -9.2523130754370000e-05 -3.1798695509688442e-04 9.2087791325888070e-04
566 -1.1731156904346376e-04 -4.3380459912420943e-04 8.7321971955013568e-04
567 -2.1873947915766051e-04 -3.4792021381062788e-04 8.9057416364226043e-04
568 -1.7765988926134288e-04 -6.5618886066774599e-04 7.2234292423530456e-04
569 3.9913260226203870e-04 -6.7987565995102051e-04 -6.1246303366558556e-04
570 -7.1186980984099132e-04 -8.8664284706610260e-05 6.8712985779481898e-04
571 5.5550767771498971e-04 3.2296356342043829e-04 7.5291940407892126e-04
572 4.9714830809387169e-04 -3.5853277783597250e-04 -7.7584283114763932e-04
573 1.3856456400019080e-04 -3.6033596925045099e-04 9.0112121062111512e-04
574 -7.4078767187800453e-04 1.8947303691657947e-04 -6.3801108519912560e-04
575 1.5608257124360940e-04 -4.9415434593332627e-04 -8.3756280623878898e-04
576 -4.5941425042952288e-04 -4.1720813758438461e-04 7.7075286558391930e-04
577 -3.3042791579582015e-04 3.7579733520595531e-04 -8.4669052001695244e-04
578 -2.7878062829412122e-04 2.6529532277730144e-04 -9.0083783111150691e-04
579 -3.4496686334701675e-04 1.5634429903537764e-04 -9.0303527430475605e-04
580 -5.0162801191317092e-04 1.0426818061556296e-05 -8.4607788223401066e-04
581 4.5612934383923806e-04 -5.6196031394182113e-04 6.8294850227877495e-04
582 4.8407098211001242e-04 -3.0987927559902390e-04 8.0211797528918001e-04
583 -4.5902473473692559e-04 1.3793798957546411e-04 -8.5788104606157351e-04
584 -4.2703384890515489e-04 1.9807831561954409e-04 8.6256894503592915e-04
585 -4.6750394984684817e-04 7.0532877546622413e-05 8.6148043640179792e-04
586 -3.5156377009319055e-04 -4.2751399625431458e-04 -8.1565291559303232e-04
587 1.8969476480531281e-05 9.5934534104638472e-04 3.1161060433898422e-04
588 -4.1588951123077360e-04 -8.7661318404411845e-05 -8.8402683215245198e-04
589 -2.9926419181060005e-04 -5.6432763387264173e-05 -9.2872093219931379e-04
590 -1.9896151388754774e-04 -1.3500238737274570e-04 -9.4627028159947337e-04
591 -1.7190864047510399e-04 4.5520363560437078e-04 8.5434454885118514e-04
592 -5.1213731580192342e-04 8.0438918055689558e-04 -3.2720716658910551e-04
593 -2.6153527729814389e-04 -6.6821055657294094e-06 9.4098137616199947e-04
594 3.8196232223836968e-04 2.3497764814687239e-04 8.7355638123677679e-04
595 -8.1677016063364059e-04 5.6547864086181317e-04 1.9235548648004471e-04
596 4.4047048486530404e-04 -8.8941738480187221e-04 1.9929006670262741e-04
597 9.4978079886839627e-05 4.6347189476362807e-04 8.6130923422605055e-04
598 3.3280483495873558e-04 9.1456896573756310e-04 -2.6844561168406784e-04
599 1.9201583901451888e-04 -6.6454226349498674e-04 7.1182666697857983e-04
600 -5.2630882310447506e-04 -8.1825237627021301e-04 2.7342206885925337e-04
601 -8.4659645509280938e-04 4.1055467882648741e-04 -3.5974020838257784e-04
602 -8.1363820471059807e-04 3.4181141559928960e-04 -4.7649967678205099e-04
603 -7.5232853197640186e-04 -5.3768542323688313e-04 -3.9955750165850731e-04
604 -9.1192204330118893e-04 1.3818498192522908e-04 -4.0236954811218072e-04
605 -4.1323116780457217e-04 -9.2515100056284874e-04 1.4095411397401441e-05
606 -3.3152426882196852e-04 8.5325382290296148e-04 4.1651288439705007e-04
607 2.8945819834614091e-05 1.4756038692324987e-04 9.6336962679096218e-04
608 -5.5696329368634285e-05 7.7560810821182113e-04 6.2374172337946497e-04
609 -7.4519507396014816e-04 -1.7818526388341382e-04 -6.3658761535889295e-04
610 9.6858197379556354e-04 2.6226411164812527e-04 1.4157098705957198e-04
611 4.4920614959349775e-04 -1.0824986019580690e-04 -8.6696943698054711e-04
612 9.3590731155403651e-04 1.2309883086863705e-04 3.5418251772898076e-04
613 -3.7994610392850668e-04 -8.7015609812346494e-04 -3.4140255619179117e-04
614 5.8809762466431293e-05 -7.9075425877532057e-04 -6.0659943332209618e-04
615 4.6927743340038886e-04 -8.9745683155113636e-04 -4.6029321507417073e-05
616 -6.9463572564830466e-04 -7.0789435445167237e-04 -2.0492031214577842e-04
617 -9.4035996467751678e-04 -2.6028815272805764e-04 -2.6193565349103925e-04
618 -6.2181725010064417e-04 4.4184669707929617e-04 -6.3989668568558149e-04
619 1.8121203896820205e-04 -9.6518281968331458e-04 -2.4446830171306682e-04
620 -3.5069067046279904e-05 -9.4687760470064583e-04 3.4607001948451207e-04
621 3.8439637828749097e-04 -7.7451709044018633e-04 -5.0799867112240815e-04
622 -2.3852402116320771e-04 -4.6062024456379680e-04 8.3659785766891756e-04
623 7.9349159396193455e-04 -4.9120697483221799e-04 -3.8035995747521915e-04
624 9.3555656146648370e-04 1.2746008714842891e-04 -3.5428157976410404e-04
625 -4.1463824409380989e-04 6.2179716607330419e-04 6.5667921068893653e-04
626 -2.6870352660511175e-04 -5.6717447736639548e-04 7.6445994864066460e-04
627 -1.0477768724863123e-04 5.6328304775916048e-04 8.0301427424426207e-04
628 4.9038890615161102e-04 8.8388982937477112e-04 6.4666408471684286e-05
629 -9.7001687013495734e-04 4.4453466218378034e-05 2.7727490518687775e-04
630 -6.0305550470935105e-04 7.9354831917105302e-04 1.7309363543619507e-04
631 -8.3026824114884633e-04 -2.0628568911648686e-04 -5.2159875038999533e-04
632 -4.0574251662801170e-04 8.8378395079329877e-04 -2.7091414048377113e-04
633 9.4076448188707101e-04 2.4655292902740978e-04 -2.7426075959790147e-04
634 -3.4752681877958566e-04 9.7847802264044192e-05 9.1012172067271601e-04
635 3.9676549879119681e-04 -9.3045653614796009e-04 6.8427254631440147e-05
636 -6.8037006800337907e-05 -9.8764791362308075e-04 2.0912621208702678e-04
637 -4.9873679705895351e-04 -5.1559854431046951e-05 8.4653731568767117e-04
638 4.5179224801814504e-04 2.7425790511875965e-04 -8.2987091510918170e-04
639 4.4840221090903257e-04 -1.0941332771596816e-04 8.6724777150192899e-04
640 -7.1718494287394062e-05 6.8173922007132108e-04 -7.1638518606482202e-04
641 -9.6701588520527746e-04 2.2723188802255175e-04 -1.8975739795397046e-04
642 -8.8257936565742023e-04 2.7633601520752721e-04 -3.9636456672297645e-04
643 2.8863468360123623e-04 -7.1648352880036490e-04 6.3036229092277240e-04
644 5.6281288626953768e-04 -4.6777971099055103e-04 6.7336530447454279e-04
645 6.2154777506983803e-04 2.3992948190766877e-04 -7.3371909130015415e-04
646 -2.2895636387616427e-04 1.1901200220924875e-04 9.4194481344823445e-04
647 1.8599721259638815e-05 5.7165796784256471e-04 8.0372563577901465e-04
648 -7.6194390624864975e-04 5.8579447469424295e-04 3.0472368248906138e-04
649 -2.7716783087561347e-04 9.7173764192268165e-04 6.6125598720654511e-05
650 9.4514259519396697e-04 -2.3383866755281453e-04 2.7105079707009894e-04
651 -4.8027298874486095e-04 -8.6435045400240300e-04 -2.1790353645340162e-04
652 -8.8119143944789889e-04 -3.5548648703191720e-04 -3.3768977556898426e-04
653 -2.2171794818348392e-04 1.5132813330927020e-04 -9.3916555718626268e-04
654 8.5567806077335620e-04 -4.7150517013230906e-04 -2.5906660688283480e-04
655 -7.2286801715805188e-04 4.0447424861944761e-04 -5.5876244930476015e-04
656 6.7644837740039377e-04 -1.2953580931277412e-04 -7.1501175906059540e-04
657 -7.4496150836214354e-04 -5.4541372896698640e-04 4.0015732158202002e-04
658 -3.9016673696466860e-04 3.4348276570254109e-05 -8.9798074910989840e-04
659 -1.8035388543244539e-04 1.8771248502292319e-05 -9.5881390641220255e-04
660 -6.2928108073712107e-05 2.7854889833160296e-05 -9.7133422173024920e-04
661 8.7744856491952649e-04 -5.0583383286336727e-04 -3.3359967413153671e-05
662 3.8092636390357316e-05 -2.6666616408551626e-04 9.3964568371242957e-04
663 5.3086916893175465e-04 8.4513707849648116e-04 -1.6452087780928186e-04
664 -2.9008628167253485e-04 9.6709502388691302e-04 -7.3466338738779544e-05
665 -2.9464754769031491e-04 9.4403032585972972e-04 -2.0861123828975605e-04
666 -1.0201345056672874e-04 1.4377659969485598e-04 -9.5963495035691893e-04
667 2.5853882341565852e-04 -8.3628044374315594e-04 -4.9082974704105296e-04
668 -5.8191172180100596e-04 4.7052226982599887e-05 7.9564401260342121e-04
669 -8.2775485500910875e-04 -3.2644343692674911e-04 -4.6532073589572437e-04
670 -5.0585620957753366e-04 8.7215204593229481e-04 9.3720243315763592e-05
671 -9.7554827260243338e-04 1.5475415370754705e-04 2.1193750955176657e-04
672 5.5830840949577744e-04 -3.6910517799301247e-04 7.3043324402711899e-04
673 -3.6659078741080431e-05 2.8150095389010819e-04 -9.3485762287546983e-04
674 -1.9742695399695091e-04 -9.7948367343632641e-04 1.6241533731428049e-04
675 4.2501349737576256e-04 7.3612994208345852e-04 5.2771527618721437e-04
676 7.9929304543818901e-05 7.3906972591331630e-04 6.6151629223845610e-04
677 5.0224166519735754e-04 2.2672258863207226e-04 8.1713599294608731e-04
678 -4.8742646935872355e-04 -7.8579859090874174e-04 3.9794818347988934e-04
679 3.2548352816967678e-04 -9.7492858221672637e-05 -9.1759837794141031e-04
680 3.9981574080127886e-04 -6.6200390041011917e-04 6.2850629698405522e-04
681 -8.8252059267845864e-04 1.4779959880808355e-04 4.5411573877683105e-04
682 -9.1365397671501957e-04 4.3584774011026567e-04 1.3611301893410108e-05
683 -8.8298822719791288e-05 -3.4984585699208138e-06 9.7018945235323852e-04
684 3.4433889327364794e-04 -9.5119421861196820e-04 -5.8427296375228709e-05
685 4.1693149596799985e-04 9.0291629766353783e-04 -1.7819553843246408e-04
686 1.7510224998937355e-04 -7.9992689664942524e-04 -5.7241565922144084e-04
687 1.7125453610374971e-04 9.8790023618044011e-04 -1.3161174994999529e-04
688 -8.1558671589011908e-04 -4.2986056860524590e-04 -4.0191446108040678e-04
689 -5.3942310777930537e-04 -6.4434008028940401e-04 5.4261729245479856e-04
690 5.8932937380816398e-04 -6.8224816615115424e-04 4.4369806432133609e-04
691 9.7873146456632100e-04 -2.2235343683847921e-04 1.3480446639993707e-04
692 -6.8195606461672847e-04 -5.2405269728084288e-04 5.1312451560147222e-04
693 9.4603020445871054e-04 2.2243003240522021e-04 2.7311713721952840e-04
694 -1.8256744638771977e-04 9.8368469123526984e-04 -1.4793553482245211e-04
695 9.2387207448183406e-04 3.5453390342743727e-04 -2.0607528646629075e-04
696 -5.0149603424109661e-05 6.8020483168426443e-04 7.2094780483059268e-04
697 -3.4652052149717184e-04 -4.7836112495831595e-04 7.9057863767718558e-04
698 9.4832823041483718e-04 3.5750942837172903e-04 1.6314737980855733e-05
699 -4.9644837557503009e-04 -5.2169143774505647e-04 6.8434759678604221e-04
700 -6.7172229920532147e-04 1.3205790327720109e-05 7.2730039993365602e-04
701 5.6915346102116057e-04 -5.5924043599504889e-04 5.9988795912533526e-04
702 -7.0313014884417651e-04 -6.4264502612778511e-04 -3.2991877737231843e-04
703 -7.6565392151507099e-04 2.8878340032752013e-04 -5.7139737849082350e-04
704 3.2148497853391797e-05 3.8930561183892246e-04 -8.9804822344166158e-04
705 3.2979390666558321e-04 6.4974501338783822e-04 -6.7455230861802103e-04
706 -3.2865114702203084e-04 7.0488945505669230e-04 6.2291470206332752e-04
707 1.1446427386961779e-04 -9.3393314067501598e-04 -3.5994777444146788e-04
708 -6.8625559604378755e-04 7.3564622314361975e-04 1.0548980122434523e-04
709 1.3336327614079388e-05 7.5665341582074311e-04 -6.4560600395339584e-04
710 -4.2143228641245036e-04 7.7959179665682379e-04 4.6966405148477278e-04
711 -9.3474950083419347e-04 2.2007885007602592e-04 -3.0669667859221402e-04
712 7.8861349012627081e-04 1.0074966056410624e-04 6.0261671332437542e-04
713 -2.1553282578553142e-04 -7.4583240611566886e-04 -6.2447839153467158e-04
714 6.5045231095548905e-04 3.5829384881704083e-04 -6.6209758999904100e-04
715 -2.1570968089807736e-04 -9.8855904064369129e-04 3.5753522109759237e-05
716 -2.8670822323318638e-04 5.7572486472942980e-05 -9.3156649228566969e-04
717 -4.0988048515713940e-04 -9.1796921585230319e-04 -1.1762194878043916e-04
718 5.0450659197029499e-04 -2.0776579346839239e-04 8.2012189711260831e-04
719 7.4174659455782240e-04 -5.5931983851543804e-04 3.8846545131144872e-04
720 8.6069973831201605e-04 5.0603158493450816e-04 1.6033236420736214e-04
721 2.5256184287117292e-04 -1.9618364865569670e-04 -9.2355298901749812e-04
722 -5.8494396479219003e-04 -7.8419842062023228e-04 -2.5141238958278374e-04
723 3.1743182594559817e-05 8.4793430844022906e-05 -9.6983620528389022e-04
724 -1.9115680465587060e-04 7.2983953332857805e-04 6.5041973462889706e-04
725 8.9134027365542310e-04 -4.5609108698399530e-04 -1.4642750217990080e-04
726 6.0668257640570332e-04 2.1521610748555630e-04 7.5139336815549030e-04
727 8.0455052931390067e-04 5.5757858271578522e-04 2.4946580203602357e-04
728 5.6309161297875873e-04 5.9843459256178632e-04 -5.6779360150467043e-04
729 4.8099990628973116e-04 1.1128059003030365e-04 -8.4951367579536637e-04
730 7.3569496576356814e-04 6.0165543834162991e-04 3.3481142412226218e-04
731 -2.6550628999313816e-04 -6.1671128534530818e-04 -7.2701383652818341e-04
732 3.4313888803880557e-04 6.3297949197819135e-04 6.8428627524035046e-04
733 -7.9323534581534109e-05 9.8409013382598910e-04 -2.1210189263652388e-04
734 -2.4715563030345444e-04 -4.8626724147734986e-04 -8.1975628245308234e-04
735 9.6844737528680304e-04 -2.2491847445607521e-04 -1.8548398081851377e-04
736 9.9009849655554865e-04 -2.1249393983252416e-04 1.2988497163819827e-05
737 -4.2463684998504699e-05 -8.9970153293099223e-05 9.6899771199700343e-04
738 -5.0836158492828000e-04 -8.7396074051259538e-04 5.3709351105487488e-05
739 5.1675719925361877e-04 2.0645193652751116e-04 -8.1335122688011184e-04
740 -7.6958310303766012e-04 1.2944089952321355e-04 6.1934847462487958e-04
741 -1.7313659306651352e-04 2.2214222535702859e-05 9.5928261367751407e-04
742 -5.4786123518769621e-04 -7.0418885789345876e-04 4.5964309251420705e-04
743 -1.8514356924348424e-05 4.7642038080534648e-04 -8.5784471417306039e-04
744 2.9092033040160518e-04 -9.5363854876025103e-04 -1.7138048192148056e-04
745 -7.5050668184477727e-05 -6.8759185090734554e-04 -7.0921327732884358e-04
$EndNodes
$Elements
1486
1 2 2 0 0 410 440 345
2 2 2 0 0 421 541 409
3 2 2 0 0 409 682 421
4 2 2 0 0 545 603 546
5 2 2 0 0 426 427 294
6 2 2 0 0 294 454 426
7 2 2 0 0 265 682 409
8 2 2 0 0 24 41 4
9 2 2 0 0 3 24 4
10 2 2 0 0 238 642 602
11 2 2 0 0 520 651 613
12 2 2 0 0 653 666 659
13 2 2 0 0 404 460 98
14 2 2 0 0 222 482 219
15 2 2 0 0 40 463 9
16 2 2 0 0 608 724 696
17 2 2 0 0 435 709 69
18 2 2 0 0 413 439 29
19 2 2 0 0 345 710 410
20 2 2 0 0 422 463 40
21 2 2 0 0 98 550 404
22 2 2 0 0 95 724 608
23 2 2 0 0 4 41 5
24 2 2 0 0 232 701 581
25 2 2 0 0 490 698 488
26 2 2 0 0 29 436 413
27 2 2 0 0 416 421 342
28 2 2 0 0 312 595 441
29 2 2 0 0 41 486 5
30 2 2 0 0 405 605 519
31 2 2 0 0 409 595 265
32 2 2 0 0 69 481 435
33 2 2 0 0 434 743 339
34 2 2 0 0 342 641 416
35 2 2 0 0 485 656 370
36 2 2 0 0 89 587 90
37 2 2 0 0 108 466 317
38 2 2 0 0 378 629 529
39 2 2 0 0 581 680 232
40 2 2 0 0 281 434 339
41 2 2 0 0 638 739 486
42 2 2 0 0 659 666 660
43 2 2 0 0 345 440 346
44 2 2 0 0 22 44 25
45 2 2 0 0 9 463 8
46 2 2 0 0 44 81 25
47 2 2 0 0 459 587 89
48 2 2 0 0 127 670 630
49 2 2 0 0 508 662 509
50 2 2 0 0 375 662 508
51 2 2 0 0 492 598 103
52 2 2 0 0 604 642 238
53 2 2 0 0 507 510 399
54 2 2 0 0 488 698 489
55 2 2 0 0 34 473 415
56 2 2 0 0 399 639 507
57 2 2 0 0 603 688 546
58 2 2 0 0 316 541 421
59 2 2 0 0 647 696 627
60 2 2 0 0 403 439 352
61 2 2 0 0 221 603 545
62 2 2 0 0 595 648 441
63 2 2 0 0 412 550 98
64 2 2 0 0 411 714 397
65 2 2 0 0 486 739 729
66 2 2 0 0 696 724 401
67 2 2 0 0 247 482 222
68 2 2 0 0 397 714 645
69 2 2 0 0 613 651 212
70 2 2 0 0 207 745 425
71 2 2 0 0 98 675 412
72 2 2 0 0 219 482 230
73 2 2 0 0 560 692 432
74 2 2 0 0 432 689 560
75 2 2 0 0 454 575 426
76 2 2 0 0 352 439 413
77 2 2 0 0 415 420 2
78 2 2 0 0 40 464 422
79 2 2 0 0 89 512 459
80 2 2 0 0 425 614 207
81 2 2 0 0 377 600 453
82 2 2 0 0 89 90 88
83 2 2 0 0 80 466 108
84 2 2 0 0 520 717 651
85 2 2 0 0 602 703 238
86 2 2 0 0 103 687 492
87 2 2 0 0 253 491 424
88 2 2 0 0 69 709 466
89 2 2 0 0 424 512 253
90 2 2 0 0 369 696 647
91 2 2 0 0 581 701 644
92 2 2 0 0 630 670 392
93 2 2 0 0 32 656 485
94 2 2 0 0 459 512 424
95 2 2 0 0 90 91 88
96 2 2 0 0 427 478 294
97 2 2 0 0 488 695 490
98 2 2 0 0 554 699 560
99 2 2 0 0 67 80 79
100 2 2 0 0 252 454 294
101 2 2 0 0 253 628 491
102 2 2 0 0 529 681 378
103 2 2 0 0 519 715 405
104 2 2 0 0 440 441 346
105 2 2 0 0 605 717 519
106 2 2 0 0 403 452 439
107 2 2 0 0 507 639 21
108 2 2 0 0 565 567 566
109 2 2 0 0 433 454 341
110 2 2 0 0 67 466 80
111 2 2 0 0 555 697 576
112 2 2 0 0 491 628 493
113 2 2 0 0 389 641 342
114 2 2 0 0 429 619 474
115 2 2 0 0 40 501 464
116 2 2 0 0 576 699 555
117 2 2 0 0 311 600 377
118 2 2 0 0 567 622 566
119 2 2 0 0 433 575 454
120 2 2 0 0 378 671 629
121 2 2 0 0 79 540 103
122 2 2 0 0 341 473 433
123 2 2 0 0 673 704 68
124 2 2 0 0 462 710 345
125 2 2 0 0 557 722 616
126 2 2 0 0 573 662 343
127 2 2 0 0 370 656 463
128 2 2 0 0 341 454 252
129 2 2 0 0 616 702 557
130 2 2 0 0 6 26 7
131 2 2 0 0 464 501 467
132 2 2 0 0 433 473 406
133 2 2 0 0 8 45 37
134 2 2 0 0 466 709 317
135 2 2 0 0 457 461 379
136 2 2 0 0 84 512 86
137 2 2 0 0 19 452 33
138 2 2 0 0 380 614 425
139 2 2 0 0 83 540 79
140 2 2 0 0 398 510 509
141 2 2 0 0 609 631 137
142 2 2 0 0 18 442 36
143 2 2 0 0 26 45 7
144 2 2 0 0 565 566 343
145 2 2 0 0 80 83 79
146 2 2 0 0 560 689 554
147 2 2 0 0 134 137 136
148 2 2 0 0 68 469 42
149 2 2 0 0 659 716 653
150 2 2 0 0 619 707 474
151 2 2 0 0 497 610 39
152 2 2 0 0 137 138 136
153 2 2 0 0 283 573 343
154 2 2 0 0 506 644 448
155 2 2 0 0 499 735 31
156 2 2 0 0 81 97 25
157 2 2 0 0 45 46 37
158 2 2 0 0 585 668 637
159 2 2 0 0 495 735 499
160 2 2 0 0 399 510 398
161 2 2 0 0 509 573 398
162 2 2 0 0 442 443 36
163 2 2 0 0 1 607 314
164 2 2 0 0 29 612 436
165 2 2 0 0 547 631 609
166 2 2 0 0 360 595 409
167 2 2 0 0 421 682 342
168 2 2 0 0 426 575 327
169 2 2 0 0 123 577 235
170 2 2 0 0 339 743 417
171 2 2 0 0 7 45 8
172 2 2 0 0 3 723 24
173 2 2 0 0 418 666 653
174 2 2 0 0 59 60 58
175 2 2 0 0 620 636 193
176 2 2 0 0 42 469 47
177 2 2 0 0 65 67 66
178 2 2 0 0 509 662 573
179 2 2 0 0 470 482 247
180 2 2 0 0 368 476 472
181 2 2 0 0 530 740 337
182 2 2 0 0 253 512 84
183 2 2 0 0 455 698 282
184 2 2 0 0 61 65 62
185 2 2 0 0 59 61 60
186 2 2 0 0 91 472 88
187 2 2 0 0 90 92 91
188 2 2 0 0 19 442 18
189 2 2 0 0 464 465 423
190 2 2 0 0 706 724 118
191 2 2 0 0 456 611 32
192 2 2 0 0 379 477 61
193 2 2 0 0 417 743 704
194 2 2 0 0 314 683 1
195 2 2 0 0 442 458 443
196 2 2 0 0 11 28 12
197 2 2 0 0 61 62 60
198 2 2 0 0 118 724 95
199 2 2 0 0 22 25 23
200 2 2 0 0 247 483 470
201 2 2 0 0 281 640 434
202 2 2 0 0 197 667 474
203 2 2 0 0 86 512 89
204 2 2 0 0 417 704 673
205 2 2 0 0 451 690 230
206 2 2 0 0 27 442 19
207 2 2 0 0 637 668 229
208 2 2 0 0 60 475 58
209 2 2 0 0 489 610 497
210 2 2 0 0 307 573 283
211 2 2 0 0 61 477 65
212 2 2 0 0 65 66 62
213 2 2 0 0 544 740 530
214 2 2 0 0 230 719 451
215 2 2 0 0 18 452 19
216 2 2 0 0 268 569 269
217 2 2 0 0 32 485 456
218 2 2 0 0 627 696 401
219 2 2 0 0 24 42 41
220 2 2 0 0 20 27 19
221 2 2 0 0 330 461 457
222 2 2 0 0 506 672 644
223 2 2 0 0 472 476 87
224 2 2 0 0 468 495 494
225 2 2 0 0 88 472 87
226 2 2 0 0 121 577 123
227 2 2 0 0 327 575 276
228 2 2 0 0 422 464 423
229 2 2 0 0 47 63 49
230 2 2 0 0 458 506 443
231 2 2 0 0 232 690 451
232 2 2 0 0 28 487 12
233 2 2 0 0 80 107 83
234 2 2 0 0 608 696 676
235 2 2 0 0 356 481 355
236 2 2 0 0 138 238 136
237 2 2 0 0 137 139 138
238 2 2 0 0 729 739 26
239 2 2 0 0 81 99 97
240 2 2 0 0 46 50 37
241 2 2 0 0 463 656 8
242 2 2 0 0 443 444 36
243 2 2 0 0 68 704 469
244 2 2 0 0 24 68 42
245 2 2 0 0 16 503 30
246 2 2 0 0 65 69 67
247 2 2 0 0 67 79 66
248 2 2 0 0 676 696 369
249 2 2 0 0 59 379 61
250 2 2 0 0 90 93 92
251 2 2 0 0 464 467 465
252 2 2 0 0 441 708 312
253 2 2 0 0 483 484 471
254 2 2 0 0 427 479 478
255 2 2 0 0 245 564 244
256 2 2 0 0 470 483 471
257 2 2 0 0 473 721 406
258 2 2 0 0 555 699 554
259 2 2 0 0 47 469 63
260 2 2 0 0 63 355 49
261 2 2 0 0 62 64 60
262 2 2 0 0 80 108 107
263 2 2 0 0 107 539 83
264 2 2 0 0 139 140 138
265 2 2 0 0 99 100 97
266 2 2 0 0 81 236 99
267 2 2 0 0 46 51 50
268 2 2 0 0 443 445 444
269 2 2 0 0 24 419 68
270 2 2 0 0 69 466 67
271 2 2 0 0 79 103 66
272 2 2 0 0 65 477 69
273 2 2 0 0 547 548 321
274 2 2 0 0 93 94 92
275 2 2 0 0 467 468 465
276 2 2 0 0 333 664 649
277 2 2 0 0 55 498 56
278 2 2 0 0 56 498 72
279 2 2 0 0 12 499 31
280 2 2 0 0 63 356 355
281 2 2 0 0 108 110 107
282 2 2 0 0 139 141 140
283 2 2 0 0 100 101 97
284 2 2 0 0 236 248 99
285 2 2 0 0 81 594 236
286 2 2 0 0 51 52 50
287 2 2 0 0 192 515 195
288 2 2 0 0 445 446 444
289 2 2 0 0 477 481 69
290 2 2 0 0 94 95 92
291 2 2 0 0 93 96 94
292 2 2 0 0 63 408 356
293 2 2 0 0 108 111 110
294 2 2 0 0 110 117 107
295 2 2 0 0 139 154 141
296 2 2 0 0 141 142 140
297 2 2 0 0 51 53 52
298 2 2 0 0 100 102 101
299 2 2 0 0 236 250 248
300 2 2 0 0 445 447 446
301 2 2 0 0 52 388 50
302 2 2 0 0 277 622 567
303 2 2 0 0 95 608 92
304 2 2 0 0 94 118 95
305 2 2 0 0 93 104 96
306 2 2 0 0 51 561 53
307 2 2 0 0 408 434 356
308 2 2 0 0 53 54 52
309 2 2 0 0 445 448 447
310 2 2 0 0 108 317 111
311 2 2 0 0 141 143 142
312 2 2 0 0 142 225 140
313 2 2 0 0 102 166 101
314 2 2 0 0 250 325 248
315 2 2 0 0 100 258 102
316 2 2 0 0 53 55 54
317 2 2 0 0 447 449 446
318 2 2 0 0 236 505 250
319 2 2 0 0 104 105 96
320 2 2 0 0 53 57 55
321 2 2 0 0 55 56 54
322 2 2 0 0 448 451 447
323 2 2 0 0 14 39 15
324 2 2 0 0 317 511 111
325 2 2 0 0 10 40 9
326 2 2 0 0 143 144 142
327 2 2 0 0 57 58 55
328 2 2 0 0 8 37 9
329 2 2 0 0 14 38 13
330 2 2 0 0 166 314 101
331 2 2 0 0 18 36 17
332 2 2 0 0 16 29 17
333 2 2 0 0 33 504 20
334 2 2 0 0 325 365 248
335 2 2 0 0 199 202 196
336 2 2 0 0 7 32 6
337 2 2 0 0 434 435 356
338 2 2 0 0 74 75 73
339 2 2 0 0 223 239 234
340 2 2 0 0 74 76 75
341 2 2 0 0 72 74 73
342 2 2 0 0 231 549 201
343 2 2 0 0 202 205 204
344 2 2 0 0 226 227 214
345 2 2 0 0 272 275 271
346 2 2 0 0 276 318 275
347 2 2 0 0 213 214 209
348 2 2 0 0 76 77 75
349 2 2 0 0 210 231 201
350 2 2 0 0 16 30 15
351 2 2 0 0 205 209 208
352 2 2 0 0 202 204 196
353 2 2 0 0 318 406 340
354 2 2 0 0 195 196 193
355 2 2 0 0 322 420 415
356 2 2 0 0 239 240 234
357 2 2 0 0 163 588 168
358 2 2 0 0 12 31 11
359 2 2 0 0 56 72 71
360 2 2 0 0 425 426 327
361 2 2 0 0 19 33 20
362 2 2 0 0 168 224 215
363 2 2 0 0 209 568 216
364 2 2 0 0 318 433 406
365 2 2 0 0 269 271 270
366 2 2 0 0 268 269 245
367 2 2 0 0 21 639 20
368 2 2 0 0 84 85 82
369 2 2 0 0 181 207 183
370 2 2 0 0 269 272 271
371 2 2 0 0 272 276 275
372 2 2 0 0 242 243 240
373 2 2 0 0 102 167 166
374 2 2 0 0 223 234 233
375 2 2 0 0 283 343 227
376 2 2 0 0 205 208 204
377 2 2 0 0 213 226 214
378 2 2 0 0 271 572 347
379 2 2 0 0 243 268 245
380 2 2 0 0 335 398 307
381 2 2 0 0 303 555 554
382 2 2 0 0 226 283 227
383 2 2 0 0 347 485 370
384 2 2 0 0 195 199 196
385 2 2 0 0 205 213 209
386 2 2 0 0 246 322 252
387 2 2 0 0 76 78 77
388 2 2 0 0 133 163 135
389 2 2 0 0 163 168 164
390 2 2 0 0 322 415 341
391 2 2 0 0 227 361 214
392 2 2 0 0 191 198 189
393 2 2 0 0 78 84 82
394 2 2 0 0 209 216 208
395 2 2 0 0 78 82 77
396 2 2 0 0 216 303 266
397 2 2 0 0 417 418 362
398 2 2 0 0 314 607 101
399 2 2 0 0 339 362 280
400 2 2 0 0 243 245 244
401 2 2 0 0 187 291 185
402 2 2 0 0 429 430 359
403 2 2 0 0 143 145 144
404 2 2 0 0 202 553 205
405 2 2 0 0 339 417 362
406 2 2 0 0 131 580 133
407 2 2 0 0 239 242 240
408 2 2 0 0 57 59 58
409 2 2 0 0 224 246 215
410 2 2 0 0 84 86 85
411 2 2 0 0 303 554 266
412 2 2 0 0 72 73 71
413 2 2 0 0 437 438 414
414 2 2 0 0 318 340 275
415 2 2 0 0 269 270 245
416 2 2 0 0 86 87 85
417 2 2 0 0 192 193 191
418 2 2 0 0 123 235 129
419 2 2 0 0 263 374 262
420 2 2 0 0 425 427 426
421 2 2 0 0 149 150 147
422 2 2 0 0 210 232 231
423 2 2 0 0 74 373 76
424 2 2 0 0 168 215 169
425 2 2 0 0 259 262 249
426 2 2 0 0 145 146 144
427 2 2 0 0 367 524 289
428 2 2 0 0 271 347 270
429 2 2 0 0 406 407 340
430 2 2 0 0 334 459 424
431 2 2 0 0 429 474 430
432 2 2 0 0 250 328 325
433 2 2 0 0 431 432 367
434 2 2 0 0 104 278 105
435 2 2 0 0 145 147 146
436 2 2 0 0 151 152 150
437 2 2 0 0 235 583 129
438 2 2 0 0 237 249 228
439 2 2 0 0 149 151 150
440 2 2 0 0 159 161 158
441 2 2 0 0 153 155 152
442 2 2 0 0 156 158 155
443 2 2 0 0 354 367 289
444 2 2 0 0 259 263 262
445 2 2 0 0 190 191 189
446 2 2 0 0 177 221 174
447 2 2 0 0 162 228 161
448 2 2 0 0 124 516 386
449 2 2 0 0 418 653 578
450 2 2 0 0 371 584 295
451 2 2 0 0 151 153 152
452 2 2 0 0 153 156 155
453 2 2 0 0 159 162 161
454 2 2 0 0 374 593 262
455 2 2 0 0 156 159 158
456 2 2 0 0 237 259 249
457 2 2 0 0 146 284 160
458 2 2 0 0 266 309 267
459 2 2 0 0 264 265 257
460 2 2 0 0 86 88 87
461 2 2 0 0 265 312 257
462 2 2 0 0 162 237 228
463 2 2 0 0 21 44 22
464 2 2 0 0 324 392 390
465 2 2 0 0 371 585 584
466 2 2 0 0 262 366 249
467 2 2 0 0 192 195 193
468 2 2 0 0 263 375 374
469 2 2 0 0 216 266 217
470 2 2 0 0 326 327 276
471 2 2 0 0 260 646 166
472 2 2 0 0 220 223 222
473 2 2 0 0 322 341 252
474 2 2 0 0 256 257 255
475 2 2 0 0 78 253 84
476 2 2 0 0 358 359 242
477 2 2 0 0 188 189 187
478 2 2 0 0 281 339 280
479 2 2 0 0 146 160 144
480 2 2 0 0 123 129 128
481 2 2 0 0 255 324 254
482 2 2 0 0 228 229 161
483 2 2 0 0 354 431 367
484 2 2 0 0 163 164 135
485 2 2 0 0 155 157 152
486 2 2 0 0 243 244 240
487 2 2 0 0 256 264 257
488 2 2 0 0 284 316 160
489 2 2 0 0 380 425 327
490 2 2 0 0 148 149 147
491 2 2 0 0 335 399 398
492 2 2 0 0 418 578 362
493 2 2 0 0 334 424 396
494 2 2 0 0 167 260 166
495 2 2 0 0 325 368 365
496 2 2 0 0 428 429 359
497 2 2 0 0 165 255 254
498 2 2 0 0 297 342 264
499 2 2 0 0 298 371 295
500 2 2 0 0 218 323 220
501 2 2 0 0 310 337 302
502 2 2 0 0 165 256 255
503 2 2 0 0 186 187 185
504 2 2 0 0 56 71 70
505 2 2 0 0 165 254 125
506 2 2 0 0 200 201 199
507 2 2 0 0 148 206 149
508 2 2 0 0 324 390 364
509 2 2 0 0 190 192 191
510 2 2 0 0 368 369 365
511 2 2 0 0 353 404 351
512 2 2 0 0 104 331 278
513 2 2 0 0 256 297 264
514 2 2 0 0 316 421 416
515 2 2 0 0 239 358 242
516 2 2 0 0 169 586 171
517 2 2 0 0 286 287 206
518 2 2 0 0 324 364 254
519 2 2 0 0 241 576 162
520 2 2 0 0 168 169 164
521 2 2 0 0 121 123 122
522 2 2 0 0 266 267 217
523 2 2 0 0 129 131 130
524 2 2 0 0 216 217 208
525 2 2 0 0 285 382 313
526 2 2 0 0 172 321 170
527 2 2 0 0 390 391 364
528 2 2 0 0 296 563 300
529 2 2 0 0 246 252 251
530 2 2 0 0 285 286 206
531 2 2 0 0 288 289 287
532 2 2 0 0 298 372 371
533 2 2 0 0 23 35 22
534 2 2 0 0 300 344 304
535 2 2 0 0 344 462 345
536 2 2 0 0 123 128 122
537 2 2 0 0 297 389 342
538 2 2 0 0 237 277 259
539 2 2 0 0 148 285 206
540 2 2 0 0 86 89 88
541 2 2 0 0 306 307 283
542 2 2 0 0 234 279 233
543 2 2 0 0 316 416 160
544 2 2 0 0 188 190 189
545 2 2 0 0 85 98 82
546 2 2 0 0 358 428 359
547 2 2 0 0 437 455 438
548 2 2 0 0 203 210 201
549 2 2 0 0 382 383 313
550 2 2 0 0 153 176 156
551 2 2 0 0 290 354 289
552 2 2 0 0 159 241 162
553 2 2 0 0 386 387 126
554 2 2 0 0 273 363 338
555 2 2 0 0 272 326 276
556 2 2 0 0 171 293 173
557 2 2 0 0 145 148 147
558 2 2 0 0 274 295 261
559 2 2 0 0 285 313 286
560 2 2 0 0 383 384 313
561 2 2 0 0 301 302 299
562 2 2 0 0 131 133 132
563 2 2 0 0 296 298 295
564 2 2 0 0 305 310 302
565 2 2 0 0 349 412 328
566 2 2 0 0 344 345 304
567 2 2 0 0 77 119 75
568 2 2 0 0 315 378 310
569 2 2 0 0 363 401 400
570 2 2 0 0 332 333 278
571 2 2 0 0 223 233 222
572 2 2 0 0 331 334 332
573 2 2 0 0 186 188 187
574 2 2 0 0 178 212 177
575 2 2 0 0 305 360 315
576 2 2 0 0 334 396 395
577 2 2 0 0 246 251 215
578 2 2 0 0 167 261 260
579 2 2 0 0 175 179 178
580 2 2 0 0 345 346 304
581 2 2 0 0 124 386 126
582 2 2 0 0 286 288 287
583 2 2 0 0 331 332 278
584 2 2 0 0 179 181 180
585 2 2 0 0 301 305 302
586 2 2 0 0 300 304 301
587 2 2 0 0 296 300 299
588 2 2 0 0 305 315 310
589 2 2 0 0 296 299 298
590 2 2 0 0 320 453 290
591 2 2 0 0 274 296 295
592 2 2 0 0 313 531 286
593 2 2 0 0 120 281 280
594 2 2 0 0 360 409 315
595 2 2 0 0 363 400 338
596 2 2 0 0 129 130 128
597 2 2 0 0 300 301 299
598 2 2 0 0 1 508 23
599 2 2 0 0 167 273 261
600 2 2 0 0 133 135 134
601 2 2 0 0 173 174 172
602 2 2 0 0 311 377 376
603 2 2 0 0 273 274 261
604 2 2 0 0 273 338 274
605 2 2 0 0 334 395 332
606 2 2 0 0 183 197 184
607 2 2 0 0 319 393 320
608 2 2 0 0 449 450 446
609 2 2 0 0 288 290 289
610 2 2 0 0 226 306 283
611 2 2 0 0 326 380 327
612 2 2 0 0 175 177 174
613 2 2 0 0 181 183 182
614 2 2 0 0 219 230 211
615 2 2 0 0 308 335 307
616 2 2 0 0 267 311 292
617 2 2 0 0 169 170 164
618 2 2 0 0 288 319 290
619 2 2 0 0 126 165 125
620 2 2 0 0 120 280 121
621 2 2 0 0 130 357 128
622 2 2 0 0 195 200 199
623 2 2 0 0 169 171 170
624 2 2 0 0 171 172 170
625 2 2 0 0 184 186 185
626 2 2 0 0 73 282 71
627 2 2 0 0 252 294 251
628 2 2 0 0 319 320 290
629 2 2 0 0 131 132 130
630 2 2 0 0 393 394 320
631 2 2 0 0 171 173 172
632 2 2 0 0 4 34 3
633 2 2 0 0 218 220 219
634 2 2 0 0 267 292 217
635 2 2 0 0 184 185 182
636 2 2 0 0 188 194 190
637 2 2 0 0 56 70 54
638 2 2 0 0 377 405 376
639 2 2 0 0 449 470 450
640 2 2 0 0 179 180 178
641 2 2 0 0 173 175 174
642 2 2 0 0 175 178 177
643 2 2 0 0 250 329 328
644 2 2 0 0 311 376 292
645 2 2 0 0 329 571 350
646 2 2 0 0 347 370 348
647 2 2 0 0 220 222 219
648 2 2 0 0 376 385 292
649 2 2 0 0 133 134 132
650 2 2 0 0 134 136 132
651 2 2 0 0 306 308 307
652 2 2 0 0 200 203 201
653 2 2 0 0 233 247 222
654 2 2 0 0 98 460 82
655 2 2 0 0 329 349 328
656 2 2 0 0 326 381 380
657 2 2 0 0 347 348 270
658 2 2 0 0 181 182 180
659 2 2 0 0 121 122 115
660 2 2 0 0 350 351 349
661 2 2 0 0 308 336 335
662 2 2 0 0 350 403 352
663 2 2 0 0 470 471 450
664 2 2 0 0 203 211 210
665 2 2 0 0 218 219 211
666 2 2 0 0 183 184 182
667 2 2 0 0 370 463 422
668 2 2 0 0 306 402 308
669 2 2 0 0 203 218 211
670 2 2 0 0 71 490 70
671 2 2 0 0 329 350 349
672 2 2 0 0 436 437 414
673 2 2 0 0 124 126 125
674 2 2 0 0 413 414 353
675 2 2 0 0 422 423 348
676 2 2 0 0 352 353 351
677 2 2 0 0 370 422 348
678 2 2 0 0 350 352 351
679 2 2 0 0 413 436 414
680 2 2 0 0 352 413 353
681 2 2 0 0 120 121 115
682 2 2 0 0 110 480 117
683 2 2 0 0 124 125 116
684 2 2 0 0 126 521 165
685 2 2 0 0 113 120 115
686 2 2 0 0 127 440 410
687 2 2 0 0 114 124 116
688 2 2 0 0 543 544 530
689 2 2 0 0 488 489 487
690 2 2 0 0 585 637 366
691 2 2 0 0 543 570 544
692 2 2 0 0 113 115 114
693 2 2 0 0 127 410 106
694 2 2 0 0 114 116 112
695 2 2 0 0 195 515 200
696 2 2 0 0 491 493 492
697 2 2 0 0 12 487 13
698 2 2 0 0 546 547 321
699 2 2 0 0 330 457 411
700 2 2 0 0 157 543 530
701 2 2 0 0 519 520 291
702 2 2 0 0 28 488 487
703 2 2 0 0 111 112 110
704 2 2 0 0 312 534 257
705 2 2 0 0 476 732 412
706 2 2 0 0 27 458 442
707 2 2 0 0 385 636 620
708 2 2 0 0 176 559 156
709 2 2 0 0 593 634 366
710 2 2 0 0 589 590 224
711 2 2 0 0 113 114 112
712 2 2 0 0 109 127 106
713 2 2 0 0 270 564 245
714 2 2 0 0 443 506 445
715 2 2 0 0 491 492 396
716 2 2 0 0 388 624 502
717 2 2 0 0 445 506 448
718 2 2 0 0 30 500 15
719 2 2 0 0 20 504 21
720 2 2 0 0 64 475 60
721 2 2 0 0 287 542 206
722 2 2 0 0 23 508 35
723 2 2 0 0 302 558 299
724 2 2 0 0 70 551 54
725 2 2 0 0 62 598 64
726 2 2 0 0 424 491 396
727 2 2 0 0 407 456 340
728 2 2 0 0 545 546 321
729 2 2 0 0 330 411 397
730 2 2 0 0 72 536 74
731 2 2 0 0 238 574 136
732 2 2 0 0 659 660 420
733 2 2 0 0 395 538 332
734 2 2 0 0 143 527 145
735 2 2 0 0 412 675 476
736 2 2 0 0 239 513 358
737 2 2 0 0 157 530 529
738 2 2 0 0 518 519 291
739 2 2 0 0 449 482 470
740 2 2 0 0 207 713 479
741 2 2 0 0 119 523 75
742 2 2 0 0 109 670 127
743 2 2 0 0 10 501 40
744 2 2 0 0 508 509 35
745 2 2 0 0 96 606 94
746 2 2 0 0 331 459 334
747 2 2 0 0 286 531 288
748 2 2 0 0 290 453 354
749 2 2 0 0 282 490 71
750 2 2 0 0 384 531 313
751 2 2 0 0 289 524 287
752 2 2 0 0 349 550 412
753 2 2 0 0 165 521 256
754 2 2 0 0 82 460 77
755 2 2 0 0 155 543 157
756 2 2 0 0 201 549 199
757 2 2 0 0 273 591 363
758 2 2 0 0 387 521 126
759 2 2 0 0 114 516 124
760 2 2 0 0 53 561 57
761 2 2 0 0 266 554 309
762 2 2 0 0 257 534 255
763 2 2 0 0 205 553 213
764 2 2 0 0 142 522 225
765 2 2 0 0 435 481 356
766 2 2 0 0 216 568 303
767 2 2 0 0 300 563 344
768 2 2 0 0 214 568 209
769 2 2 0 0 112 480 110
770 2 2 0 0 350 571 403
771 2 2 0 0 347 572 485
772 2 2 0 0 275 572 271
773 2 2 0 0 274 563 296
774 2 2 0 0 171 586 293
775 2 2 0 0 162 576 237
776 2 2 0 0 133 580 163
777 2 2 0 0 11 501 10
778 2 2 0 0 295 584 261
779 2 2 0 0 129 583 131
780 2 2 0 0 215 586 169
781 2 2 0 0 250 505 329
782 2 2 0 0 168 588 224
783 2 2 0 0 321 548 170
784 2 2 0 0 262 593 366
785 2 2 0 0 166 646 314
786 2 2 0 0 520 535 291
787 2 2 0 0 373 663 493
788 2 2 0 0 291 535 185
789 2 2 0 0 101 607 97
790 2 2 0 0 130 574 357
791 2 2 0 0 158 570 543
792 2 2 0 0 31 501 11
793 2 2 0 0 444 552 503
794 2 2 0 0 156 559 159
795 2 2 0 0 236 594 505
796 2 2 0 0 206 542 149
797 2 2 0 0 54 551 52
798 2 2 0 0 74 536 373
799 2 2 0 0 337 558 302
800 2 2 0 0 150 532 147
801 2 2 0 0 379 728 457
802 2 2 0 0 299 558 298
803 2 2 0 0 332 538 333
804 2 2 0 0 145 527 148
805 2 2 0 0 514 515 192
806 2 2 0 0 15 500 14
807 2 2 0 0 75 523 73
808 2 2 0 0 467 501 31
809 2 2 0 0 254 592 125
810 2 2 0 0 172 545 321
811 2 2 0 0 144 522 142
812 2 2 0 0 528 532 150
813 2 2 0 0 187 518 291
814 2 2 0 0 553 599 213
815 2 2 0 0 383 603 384
816 2 2 0 0 282 698 490
817 2 2 0 0 244 517 240
818 2 2 0 0 353 525 404
819 2 2 0 0 395 540 538
820 2 2 0 0 94 606 118
821 2 2 0 0 117 539 107
822 2 2 0 0 185 535 182
823 2 2 0 0 388 502 50
824 2 2 0 0 167 591 273
825 2 2 0 0 147 532 146
826 2 2 0 0 92 608 91
827 2 2 0 0 472 676 368
828 2 2 0 0 364 592 254
829 2 2 0 0 21 504 44
830 2 2 0 0 365 597 248
831 2 2 0 0 125 592 116
832 2 2 0 0 588 589 224
833 2 2 0 0 111 113 112
834 2 2 0 0 63 469 408
835 2 2 0 0 105 109 106
836 2 2 0 0 242 526 243
837 2 2 0 0 439 712 29
838 2 2 0 0 240 517 234
839 2 2 0 0 346 533 304
840 2 2 0 0 14 500 38
841 2 2 0 0 494 495 484
842 2 2 0 0 127 630 440
843 2 2 0 0 208 537 204
844 2 2 0 0 175 562 179
845 2 2 0 0 303 626 555
846 2 2 0 0 359 526 242
847 2 2 0 0 243 526 268
848 2 2 0 0 217 537 208
849 2 2 0 0 58 498 55
850 2 2 0 0 503 552 30
851 2 2 0 0 13 499 12
852 2 2 0 0 268 621 569
853 2 2 0 0 489 497 487
854 2 2 0 0 475 498 58
855 2 2 0 0 430 526 359
856 2 2 0 0 248 597 99
857 2 2 0 0 292 537 217
858 2 2 0 0 26 645 45
859 2 2 0 0 234 517 279
860 2 2 0 0 14 497 39
861 2 2 0 0 385 537 292
862 2 2 0 0 305 533 360
863 2 2 0 0 304 533 301
864 2 2 0 0 146 532 284
865 2 2 0 0 483 494 484
866 2 2 0 0 173 562 175
867 2 2 0 0 116 480 112
868 2 2 0 0 224 590 246
869 2 2 0 0 189 518 187
870 2 2 0 0 498 536 72
871 2 2 0 0 414 525 353
872 2 2 0 0 160 522 144
873 2 2 0 0 547 609 548
874 2 2 0 0 182 535 180
875 2 2 0 0 297 601 389
876 2 2 0 0 44 594 81
877 2 2 0 0 301 533 305
878 2 2 0 0 105 106 96
879 2 2 0 0 515 596 200
880 2 2 0 0 293 562 173
881 2 2 0 0 73 523 282
882 2 2 0 0 148 527 285
883 2 2 0 0 174 545 172
884 2 2 0 0 218 596 323
885 2 2 0 0 200 596 203
886 2 2 0 0 149 542 151
887 2 2 0 0 446 552 444
888 2 2 0 0 49 461 330
889 2 2 0 0 330 397 48
890 2 2 0 0 453 738 377
891 2 2 0 0 255 534 324
892 2 2 0 0 52 551 388
893 2 2 0 0 634 646 260
894 2 2 0 0 513 615 358
895 2 2 0 0 438 525 414
896 2 2 0 0 516 618 386
897 2 2 0 0 198 518 189
898 2 2 0 0 227 566 361
899 2 2 0 0 559 560 241
900 2 2 0 0 90 587 93
901 2 2 0 0 416 522 160
902 2 2 0 0 102 591 167
903 2 2 0 0 134 609 137
904 2 2 0 0 298 558 372
905 2 2 0 0 132 574 130
906 2 2 0 0 106 606 96
907 2 2 0 0 159 559 241
908 2 2 0 0 32 611 6
909 2 2 0 0 158 543 155
910 2 2 0 0 223 513 239
911 2 2 0 0 288 531 319
912 2 2 0 0 323 513 220
913 2 2 0 0 115 516 114
914 2 2 0 0 521 601 297
915 2 2 0 0 610 698 455
916 2 2 0 0 354 600 431
917 2 2 0 0 351 550 349
918 2 2 0 0 256 521 297
919 2 2 0 0 140 604 138
920 2 2 0 0 77 460 119
921 2 2 0 0 17 503 16
922 2 2 0 0 9 502 10
923 2 2 0 0 104 587 331
924 2 2 0 0 152 528 150
925 2 2 0 0 315 541 378
926 2 2 0 0 170 548 164
927 2 2 0 0 590 659 420
928 2 2 0 0 11 624 28
929 2 2 0 0 199 549 202
930 2 2 0 0 502 624 10
931 2 2 0 0 453 600 354
932 2 2 0 0 42 43 41
933 2 2 0 0 38 499 13
934 2 2 0 0 285 527 382
935 2 2 0 0 190 514 192
936 2 2 0 0 157 529 528
937 2 2 0 0 231 643 549
938 2 2 0 0 331 587 459
939 2 2 0 0 451 701 232
940 2 2 0 0 99 597 100
941 2 2 0 0 361 568 214
942 2 2 0 0 372 740 544
943 2 2 0 0 221 545 174
944 2 2 0 0 138 604 238
945 2 2 0 0 340 572 275
946 2 2 0 0 338 563 274
947 2 2 0 0 524 542 287
948 2 2 0 0 265 595 312
949 2 2 0 0 111 511 113
950 2 2 0 0 580 658 588
951 2 2 0 0 580 588 163
952 2 2 0 0 237 576 277
953 2 2 0 0 444 503 36
954 2 2 0 0 131 583 580
955 2 2 0 0 505 571 329
956 2 2 0 0 203 596 218
957 2 2 0 0 584 634 260
958 2 2 0 0 261 584 260
959 2 2 0 0 369 647 365
960 2 2 0 0 251 586 215
961 2 2 0 0 348 564 270
962 2 2 0 0 450 552 446
963 2 2 0 0 390 496 391
964 2 2 0 0 66 598 62
965 2 2 0 0 465 623 423
966 2 2 0 0 258 591 102
967 2 2 0 0 343 566 227
968 2 2 0 0 564 623 244
969 2 2 0 0 154 617 141
970 2 2 0 0 324 534 392
971 2 2 0 0 50 502 37
972 2 2 0 0 524 556 542
973 2 2 0 0 544 700 372
974 2 2 0 0 122 516 115
975 2 2 0 0 177 557 221
976 2 2 0 0 489 698 610
977 2 2 0 0 93 587 104
978 2 2 0 0 136 574 132
979 2 2 0 0 593 646 634
980 2 2 0 0 116 592 480
981 2 2 0 0 143 617 527
982 2 2 0 0 225 604 140
983 2 2 0 0 137 631 139
984 2 2 0 0 549 553 202
985 2 2 0 0 164 548 135
986 2 2 0 0 404 550 351
987 2 2 0 0 34 721 473
988 2 2 0 0 220 513 223
989 2 2 0 0 317 640 511
990 2 2 0 0 100 597 258
991 2 2 0 0 588 658 589
992 2 2 0 0 323 615 513
993 2 2 0 0 568 626 303
994 2 2 0 0 377 605 405
995 2 2 0 0 178 613 212
996 2 2 0 0 493 628 373
997 2 2 0 0 157 528 152
998 2 2 0 0 591 627 363
999 2 2 0 0 409 541 315
1000 2 2 0 0 183 614 197
1001 2 2 0 0 103 598 66
1002 2 2 0 0 188 619 194
1003 2 2 0 0 213 599 226
1004 2 2 0 0 306 599 402
1005 2 2 0 0 97 607 25
1006 2 2 0 0 194 514 190
1007 2 2 0 0 373 628 76
1008 2 2 0 0 78 628 253
1009 2 2 0 0 42 47 43
1010 2 2 0 0 39 612 15
1011 2 2 0 0 16 612 29
1012 2 2 0 0 437 610 455
1013 2 2 0 0 487 497 13
1014 2 2 0 0 440 630 441
1015 2 2 0 0 479 713 562
1016 2 2 0 0 196 620 193
1017 2 2 0 0 456 572 340
1018 2 2 0 0 120 511 281
1019 2 2 0 0 577 578 235
1020 2 2 0 0 335 582 399
1021 2 2 0 0 314 741 683
1022 2 2 0 0 520 613 535
1023 2 2 0 0 585 634 584
1024 2 2 0 0 423 564 348
1025 2 2 0 0 457 561 411
1026 2 2 0 0 6 611 5
1027 2 2 0 0 385 620 537
1028 2 2 0 0 228 637 229
1029 2 2 0 0 366 637 249
1030 2 2 0 0 161 570 158
1031 2 2 0 0 434 640 435
1032 2 2 0 0 193 636 191
1033 2 2 0 0 410 606 106
1034 2 2 0 0 37 502 9
1035 2 2 0 0 36 503 17
1036 2 2 0 0 141 617 143
1037 2 2 0 0 363 627 401
1038 2 2 0 0 322 590 420
1039 2 2 0 0 357 618 128
1040 2 2 0 0 430 621 526
1041 2 2 0 0 540 687 103
1042 2 2 0 0 280 577 121
1043 2 2 0 0 276 575 318
1044 2 2 0 0 362 578 577
1045 2 2 0 0 109 649 496
1046 2 2 0 0 246 590 322
1047 2 2 0 0 326 569 381
1048 2 2 0 0 569 621 381
1049 2 2 0 0 269 569 272
1050 2 2 0 0 139 631 154
1051 2 2 0 0 649 664 496
1052 2 2 0 0 537 620 204
1053 2 2 0 0 355 461 49
1054 2 2 0 0 663 685 493
1055 2 2 0 0 479 745 207
1056 2 2 0 0 343 662 565
1057 2 2 0 0 212 557 177
1058 2 2 0 0 45 645 46
1059 2 2 0 0 496 670 109
1060 2 2 0 0 366 634 585
1061 2 2 0 0 384 616 531
1062 2 2 0 0 535 613 180
1063 2 2 0 0 391 632 364
1064 2 2 0 0 308 581 336
1065 2 2 0 0 344 625 462
1066 2 2 0 0 563 625 344
1067 2 2 0 0 13 497 14
1068 2 2 0 0 480 632 117
1069 2 2 0 0 371 668 585
1070 2 2 0 0 333 649 278
1071 2 2 0 0 387 601 521
1072 2 2 0 0 47 49 48
1073 2 2 0 0 358 615 428
1074 2 2 0 0 113 511 120
1075 2 2 0 0 527 617 382
1076 2 2 0 0 105 649 109
1077 2 2 0 0 398 573 307
1078 2 2 0 0 368 676 369
1079 2 2 0 0 180 613 178
1080 2 2 0 0 153 556 176
1081 2 2 0 0 432 657 367
1082 2 2 0 0 458 718 582
1083 2 2 0 0 207 614 183
1084 2 2 0 0 407 611 456
1085 2 2 0 0 244 623 517
1086 2 2 0 0 20 639 27
1087 2 2 0 0 476 675 87
1088 2 2 0 0 319 616 393
1089 2 2 0 0 474 707 197
1090 2 2 0 0 226 599 306
1091 2 2 0 0 47 48 43
1092 2 2 0 0 186 619 188
1093 2 2 0 0 412 732 328
1094 2 2 0 0 316 671 541
1095 2 2 0 0 293 734 478
1096 2 2 0 0 492 685 598
1097 2 2 0 0 528 629 532
1098 2 2 0 0 514 635 515
1099 2 2 0 0 531 616 319
1100 2 2 0 0 8 656 7
1101 2 2 0 0 387 602 601
1102 2 2 0 0 76 628 78
1103 2 2 0 0 122 618 516
1104 2 2 0 0 651 717 394
1105 2 2 0 0 423 623 564
1106 2 2 0 0 546 669 547
1107 2 2 0 0 4 679 34
1108 2 2 0 0 542 556 151
1109 2 2 0 0 548 609 135
1110 2 2 0 0 204 620 196
1111 2 2 0 0 529 629 528
1112 2 2 0 0 482 719 230
1113 2 2 0 0 258 627 591
1114 2 2 0 0 336 582 335
1115 2 2 0 0 197 686 667
1116 2 2 0 0 583 658 580
1117 2 2 0 0 85 675 98
1118 2 2 0 0 59 728 379
1119 2 2 0 0 400 625 338
1120 2 2 0 0 394 717 605
1121 2 2 0 0 471 650 450
1122 2 2 0 0 596 635 323
1123 2 2 0 0 249 637 228
1124 2 2 0 0 515 635 596
1125 2 2 0 0 338 625 563
1126 2 2 0 0 28 633 488
1127 2 2 0 0 566 622 361
1128 2 2 0 0 229 570 161
1129 2 2 0 0 468 654 465
1130 2 2 0 0 118 710 462
1131 2 2 0 0 15 612 16
1132 2 2 0 0 589 659 590
1133 2 2 0 0 526 621 268
1134 2 2 0 0 365 647 597
1135 2 2 0 0 579 583 235
1136 2 2 0 0 22 507 21
1137 2 2 0 0 342 682 264
1138 2 2 0 0 441 648 346
1139 2 2 0 0 191 636 198
1140 2 2 0 0 578 653 579
1141 2 2 0 0 135 609 134
1142 2 2 0 0 128 618 122
1143 2 2 0 0 378 681 310
1144 2 2 0 0 230 690 211
1145 2 2 0 0 210 690 232
1146 2 2 0 0 549 643 553
1147 2 2 0 0 233 661 247
1148 2 2 0 0 10 624 11
1149 2 2 0 0 640 709 435
1150 2 2 0 0 449 719 482
1151 2 2 0 0 452 726 33
1152 2 2 0 0 362 577 280
1153 2 2 0 0 318 575 433
1154 2 2 0 0 492 687 396
1155 2 2 0 0 586 734 293
1156 2 2 0 0 357 655 618
1157 2 2 0 0 277 567 259
1158 2 2 0 0 522 641 225
1159 2 2 0 0 511 640 281
1160 2 2 0 0 247 661 483
1161 2 2 0 0 610 693 39
1162 2 2 0 0 272 569 326
1163 2 2 0 0 490 695 70
1164 2 2 0 0 553 643 599
1165 2 2 0 0 532 629 284
1166 2 2 0 0 29 712 17
1167 2 2 0 0 632 665 117
1168 2 2 0 0 618 655 386
1169 2 2 0 0 241 699 576
1170 2 2 0 0 457 728 561
1171 2 2 0 0 485 572 456
1172 2 2 0 0 430 667 621
1173 2 2 0 0 582 672 458
1174 2 2 0 0 395 687 540
1175 2 2 0 0 504 594 44
1176 2 2 0 0 181 713 207
1177 2 2 0 0 197 707 184
1178 2 2 0 0 524 657 556
1179 2 2 0 0 475 536 498
1180 2 2 0 0 394 738 320
1181 2 2 0 0 51 714 561
1182 2 2 0 0 151 556 153
1183 2 2 0 0 437 693 610
1184 2 2 0 0 361 626 568
1185 2 2 0 0 611 679 5
1186 2 2 0 0 231 680 643
1187 2 2 0 0 462 706 118
1188 2 2 0 0 390 670 496
1189 2 2 0 0 602 642 601
1190 2 2 0 0 49 330 48
1191 2 2 0 0 391 665 632
1192 2 2 0 0 508 737 375
1193 2 2 0 0 450 650 552
1194 2 2 0 0 368 732 476
1195 2 2 0 0 578 579 235
1196 2 2 0 0 402 581 308
1197 2 2 0 0 43 486 41
1198 2 2 0 0 562 713 179
1199 2 2 0 0 592 632 480
1200 2 2 0 0 416 641 522
1201 2 2 0 0 372 668 371
1202 2 2 0 0 452 712 439
1203 2 2 0 0 282 720 455
1204 2 2 0 0 556 657 176
1205 2 2 0 0 364 632 592
1206 2 2 0 0 403 726 452
1207 2 2 0 0 465 654 623
1208 2 2 0 0 278 649 105
1209 2 2 0 0 154 652 617
1210 2 2 0 0 383 688 603
1211 2 2 0 0 451 719 447
1212 2 2 0 0 317 709 640
1213 2 2 0 0 604 711 642
1214 2 2 0 0 382 652 383
1215 2 2 0 0 601 642 389
1216 2 2 0 0 284 671 316
1217 2 2 0 0 599 643 402
1218 2 2 0 0 388 633 624
1219 2 2 0 0 267 678 311
1220 2 2 0 0 337 681 530
1221 2 2 0 0 279 661 233
1222 2 2 0 0 605 738 394
1223 2 2 0 0 33 677 504
1224 2 2 0 0 386 655 387
1225 2 2 0 0 547 669 631
1226 2 2 0 0 562 731 479
1227 2 2 0 0 360 648 595
1228 2 2 0 0 432 692 657
1229 2 2 0 0 367 657 524
1230 2 2 0 0 633 695 488
1231 2 2 0 0 415 473 341
1232 2 2 0 0 644 672 336
1233 2 2 0 0 551 633 388
1234 2 2 0 0 533 648 360
1235 2 2 0 0 407 679 611
1236 2 2 0 0 323 635 615
1237 2 2 0 0 530 681 529
1238 2 2 0 0 393 651 394
1239 2 2 0 0 387 655 602
1240 2 2 0 0 238 703 574
1241 2 2 0 0 594 677 505
1242 2 2 0 0 559 692 560
1243 2 2 0 0 621 667 381
1244 2 2 0 0 405 674 376
1245 2 2 0 0 325 732 368
1246 2 2 0 0 623 654 517
1247 2 2 0 0 581 644 336
1248 2 2 0 0 346 648 533
1249 2 2 0 0 517 654 279
1250 2 2 0 0 477 705 481
1251 2 2 0 0 481 705 355
1252 2 2 0 0 561 728 57
1253 2 2 0 0 379 705 477
1254 2 2 0 0 617 652 382
1255 2 2 0 0 30 650 500
1256 2 2 0 0 376 674 385
1257 2 2 0 0 518 715 519
1258 2 2 0 0 474 667 430
1259 2 2 0 0 478 734 294
1260 2 2 0 0 624 633 28
1261 2 2 0 0 186 707 619
1262 2 2 0 0 64 663 475
1263 2 2 0 0 597 647 258
1264 2 2 0 0 377 738 605
1265 2 2 0 0 31 735 467
1266 2 2 0 0 27 718 458
1267 2 2 0 0 419 673 68
1268 2 2 0 0 616 722 393
1269 2 2 0 0 24 723 419
1270 2 2 0 0 397 638 48
1271 2 2 0 0 404 730 460
1272 2 2 0 0 91 676 472
1273 2 2 0 0 622 626 361
1274 2 2 0 0 7 656 32
1275 2 2 0 0 576 697 277
1276 2 2 0 0 471 691 650
1277 2 2 0 0 536 663 373
1278 2 2 0 0 484 691 471
1279 2 2 0 0 552 650 30
1280 2 2 0 0 311 678 600
1281 2 2 0 0 486 729 5
1282 2 2 0 0 418 673 666
1283 2 2 0 0 232 680 231
1284 2 2 0 0 5 679 4
1285 2 2 0 0 117 665 539
1286 2 2 0 0 384 702 616
1287 2 2 0 0 557 702 221
1288 2 2 0 0 87 675 85
1289 2 2 0 0 225 711 604
1290 2 2 0 0 505 677 571
1291 2 2 0 0 483 661 494
1292 2 2 0 0 263 565 375
1293 2 2 0 0 504 677 594
1294 2 2 0 0 582 718 399
1295 2 2 0 0 645 714 46
1296 2 2 0 0 534 708 392
1297 2 2 0 0 643 680 402
1298 2 2 0 0 18 712 452
1299 2 2 0 0 392 670 390
1300 2 2 0 0 221 702 603
1301 2 2 0 0 496 664 391
1302 2 2 0 0 606 710 118
1303 2 2 0 0 655 703 602
1304 2 2 0 0 608 676 91
1305 2 2 0 0 194 684 514
1306 2 2 0 0 541 671 378
1307 2 2 0 0 154 669 652
1308 2 2 0 0 399 718 639
1309 2 2 0 0 405 715 674
1310 2 2 0 0 33 726 677
1311 2 2 0 0 629 671 284
1312 2 2 0 0 468 735 495
1313 2 2 0 0 469 704 408
1314 2 2 0 0 427 745 479
1315 2 2 0 0 294 734 251
1316 2 2 0 0 461 705 379
1317 2 2 0 0 385 674 636
1318 2 2 0 0 657 692 176
1319 2 2 0 0 561 714 411
1320 2 2 0 0 631 669 154
1321 2 2 0 0 264 682 265
1322 2 2 0 0 43 638 486
1323 2 2 0 0 48 638 43
1324 2 2 0 0 194 744 684
1325 2 2 0 0 381 686 380
1326 2 2 0 0 658 716 589
1327 2 2 0 0 263 567 565
1328 2 2 0 0 310 681 337
1329 2 2 0 0 493 685 492
1330 2 2 0 0 64 685 663
1331 2 2 0 0 309 678 267
1332 2 2 0 0 600 678 431
1333 2 2 0 0 538 694 333
1334 2 2 0 0 598 685 64
1335 2 2 0 0 551 695 633
1336 2 2 0 0 560 699 241
1337 2 2 0 0 211 690 210
1338 2 2 0 0 2 723 3
1339 2 2 0 0 630 708 441
1340 2 2 0 0 467 735 468
1341 2 2 0 0 396 687 395
1342 2 2 0 0 35 507 22
1343 2 2 0 0 259 567 263
1344 2 2 0 0 417 673 418
1345 2 2 0 0 614 686 197
1346 2 2 0 0 392 708 630
1347 2 2 0 0 5 729 6
1348 2 2 0 0 279 725 661
1349 2 2 0 0 6 729 26
1350 2 2 0 0 357 703 655
1351 2 2 0 0 514 684 635
1352 2 2 0 0 540 733 538
1353 2 2 0 0 374 741 593
1354 2 2 0 0 176 692 559
1355 2 2 0 0 650 691 500
1356 2 2 0 0 484 736 691
1357 2 2 0 0 83 733 540
1358 2 2 0 0 558 740 372
1359 2 2 0 0 626 697 555
1360 2 2 0 0 436 693 437
1361 2 2 0 0 375 737 374
1362 2 2 0 0 475 663 536
1363 2 2 0 0 636 674 198
1364 2 2 0 0 674 715 198
1365 2 2 0 0 70 695 551
1366 2 2 0 0 406 721 407
1367 2 2 0 0 677 726 571
1368 2 2 0 0 258 647 627
1369 2 2 0 0 448 701 451
1370 2 2 0 0 458 672 506
1371 2 2 0 0 229 700 570
1372 2 2 0 0 684 744 428
1373 2 2 0 0 570 700 544
1374 2 2 0 0 678 742 431
1375 2 2 0 0 646 741 314
1376 2 2 0 0 603 702 384
1377 2 2 0 0 478 731 293
1378 2 2 0 0 309 742 678
1379 2 2 0 0 380 686 614
1380 2 2 0 0 494 725 468
1381 2 2 0 0 500 691 38
1382 2 2 0 0 635 684 615
1383 2 2 0 0 661 725 494
1384 2 2 0 0 679 721 34
1385 2 2 0 0 509 510 35
1386 2 2 0 0 46 714 51
1387 2 2 0 0 615 684 428
1388 2 2 0 0 432 742 689
1389 2 2 0 0 179 713 181
1390 2 2 0 0 26 739 645
1391 2 2 0 0 35 510 507
1392 2 2 0 0 574 703 357
1393 2 2 0 0 184 707 186
1394 2 2 0 0 39 693 612
1395 2 2 0 0 665 694 539
1396 2 2 0 0 312 708 534
1397 2 2 0 0 554 689 309
1398 2 2 0 0 1 737 508
1399 2 2 0 0 519 717 520
1400 2 2 0 0 277 697 622
1401 2 2 0 0 389 711 641
1402 2 2 0 0 495 736 484
1403 2 2 0 0 17 712 18
1404 2 2 0 0 212 722 557
1405 2 2 0 0 455 720 438
1406 2 2 0 0 622 697 626
1407 2 2 0 0 664 694 665
1408 2 2 0 0 447 719 449
1409 2 2 0 0 669 688 652
1410 2 2 0 0 612 693 436
1411 2 2 0 0 619 744 194
1412 2 2 0 0 57 728 59
1413 2 2 0 0 579 658 583
1414 2 2 0 0 438 727 525
1415 2 2 0 0 539 733 83
1416 2 2 0 0 479 731 478
1417 2 2 0 0 691 736 38
1418 2 2 0 0 401 724 400
1419 2 2 0 0 420 660 2
1420 2 2 0 0 328 732 325
1421 2 2 0 0 320 738 453
1422 2 2 0 0 428 744 429
1423 2 2 0 0 431 742 432
1424 2 2 0 0 425 745 427
1425 2 2 0 0 408 743 434
1426 2 2 0 0 571 726 403
1427 2 2 0 0 119 727 523
1428 2 2 0 0 625 706 462
1429 2 2 0 0 525 730 404
1430 2 2 0 0 499 736 495
1431 2 2 0 0 468 725 654
1432 2 2 0 0 336 672 582
1433 2 2 0 0 198 715 518
1434 2 2 0 0 400 724 706
1435 2 2 0 0 402 680 581
1436 2 2 0 0 589 716 659
1437 2 2 0 0 727 730 525
1438 2 2 0 0 664 665 391
1439 2 2 0 0 337 740 558
1440 2 2 0 0 293 731 562
1441 2 2 0 0 523 720 282
1442 2 2 0 0 460 730 119
1443 2 2 0 0 641 711 225
1444 2 2 0 0 429 744 619
1445 2 2 0 0 119 730 727
1446 2 2 0 0 651 722 212
1447 2 2 0 0 38 736 499
1448 2 2 0 0 667 686 381
1449 2 2 0 0 652 688 383
1450 2 2 0 0 410 710 606
1451 2 2 0 0 644 701 448
1452 2 2 0 0 666 673 419
1453 2 2 0 0 704 743 408
1454 2 2 0 0 251 734 586
1455 2 2 0 0 400 706 625
1456 2 2 0 0 546 688 669
1457 2 2 0 0 668 700 229
1458 2 2 0 0 538 733 694
1459 2 2 0 0 333 694 664
1460 2 2 0 0 565 662 375
1461 2 2 0 0 720 727 438
1462 2 2 0 0 372 700 668
1463 2 2 0 0 579 716 658
1464 2 2 0 0 642 711 389
1465 2 2 0 0 355 705 461
1466 2 2 0 0 407 721 679
1467 2 2 0 0 523 727 720
1468 2 2 0 0 654 725 279
1469 2 2 0 0 639 718 27
1470 2 2 0 0 694 733 539
1471 2 2 0 0 393 722 651
1472 2 2 0 0 645 739 397
1473 2 2 0 0 683 741 374
1474 2 2 0 0 397 739 638
1475 2 2 0 0 653 716 579
1476 2 2 0 0 666 723 660
1477 2 2 0 0 419 723 666
1478 2 2 0 0 374 737 683
1479 2 2 0 0 593 741 646
1480 2 2 0 0 683 737 1
1481 2 2 0 0 689 742 309
1482 2 2 0 0 660 723 2
1483 2 2 0 0 23 25 1
1484 2 2 0 0 25 607 1
1485 2 2 0 0 3 34 2
1486 2 2 0 0 34 415 2
$EndElements
