$MeshFormat
2.2 0 8
$EndMeshFormat
$Nodes
745
1 4.9352272586730028e-05 3.5636623984344421e-05 1.0088571753549044e-03
2 6.2399042177759722e-05 -3.5387376772101296e-05 -1.0071175669601588e-03
3 1.3019263693504147e-04 2.6222549521938838e-05 -1.0000348588066253e-03
4 2.4567699901764808e-04 3.4775058862499197e-05 -9.7823482011864457e-04
5 3.7140184950392867e-04 4.5832148723284513e-05 -9.3676902527865900e-04
6 4.8768722543767682e-04 5.3763012876327311e-07 -8.8096465986667164e-04
7 6.1915939375907752e-04 -9.9982763798472714e-06 -7.9155228699672830e-04
8 7.2988662757284938e-04 -8.7413884469490992e-06 -6.8754816083689042e-04
9 8.3746474303617556e-04 -3.8950019362809517e-06 -5.4660314445740079e-04
10 9.0976169814135975e-04 7.6638449407320022e-07 -4.0985064066037833e-04
11 9.5676540745503363e-04 6.8381928326650584e-06 -2.7729552472805869e-04
12 9.8478903778056776e-04 3.5236279649230379e-06 -1.4335917778236448e-04
13 9.9475886065804537e-04 9.8160957432132010e-07 1.2077803195212499e-06
14 9.8450064152516190e-04 1.0077741348497692e-05 1.4422782913722855e-04
15 9.5627124929167277e-04 9.9190946693143963e-06 2.7900675071389978e-04
16 9.0625769782861991e-04 7.9080138329965712e-06 4.1836042044483362e-04
17 8.3430387533698605e-04 2.7699994184268470e-06 5.5191308359119529e-04
18 7.3066422156924820e-04 1.0452039323543292e-06 6.8719144767302178e-04
19 6.2000464257594022e-04 7.1668069658660102e-06 7.9137285801111044e-04
20 4.9790207284409018e-04 1.0246475447217184e-06 8.7548282228521097e-04
21 3.7942328979171790e-04 -5.8241583030596448e-06 9.3440864582040775e-04
22 2.5443839612110180e-04 7.7530309310511233e-06 9.7684333324645758e-04
23 1.3331410833872595e-04 -8.3882105939241996e-06 1.0005593982806084e-03
24 1.7183008663091898e-04 1.2131893663073831e-04 -9.8736462468733519e-04
25 1.6088726859176194e-04 1.0262345895284115e-04 9.9226036998639852e-04
26 5.6451949150655180e-04 1.0650005414178546e-04 -8.2504356343709854e-04
27 5.6453742240828971e-04 -1.0811914406060531e-04 8.2569480439800532e-04
28 9.6469252143859430e-04 1.3634548306271248e-04 -2.0442636922903958e-04
29 8.5775827986291574e-04 1.4490463022231773e-04 4.9319206148325386e-04
30 9.3073734192997983e-04 -1.1286861266417089e-04 3.3905775664710362e-04
31 9.6494564147169145e-04 -1.1842150586245588e-04 -2.1413211926785150e-04
32 5.3535684571021395e-04 -1.1957184740037071e-04 -8.4361550641269870e-04
33 5.5114525281444739e-04 1.1363702079572083e-04 8.3392273043942364e-04
34 1.5238706158354203e-04 -8.9106969284929362e-05 -9.9459095149367666e-04
35 1.8499049066500331e-04 -9.7024990095388676e-05 9.8768966250141130e-04
36 7.8516512307219078e-04 -1.1336714869155285e-04 6.1131000050951409e-04
37 7.7666239050653023e-04 1.1966359056676992e-04 -6.2048364805178792e-04
38 9.8595026630473627e-04 -1.0797040735672645e-04 7.4636961054041316e-05
39 9.6554241553436441e-04 1.2597717998986770e-04 2.0645643840045924e-04
40 8.6826103670430415e-04 -1.2731521491185434e-04 -4.7727416727725045e-04
41 2.9156923877209751e-04 1.2908057055035344e-04 -9.5700398794213598e-04
42 1.9594333864428673e-04 2.4688488531520651e-04 -9.5802625938903180e-04
43 3.2856478547212700e-04 2.4330643670681862e-04 -9.2066548649170638e-04
44 3.0226726992017020e-04 1.0958773850330459e-04 9.5664199292534735e-04
45 6.7479626164406619e-04 1.1194658926203304e-04 -7.3432392382488058e-04
46 7.1928333882085812e-04 2.3024625494988960e-04 -6.5838604516562759e-04
47 2.7046908494422783e-04 3.5814602797621298e-04 -9.0147399612687149e-04
48 3.9739983844867219e-04 3.5040816199631173e-04 -8.5499909316794043e-04
49 3.2922878469197951e-04 4.6138427671026393e-04 -8.3022473473564826e-04
50 8.0771664625084102e-04 2.4283060690783321e-04 -5.3640027122255269e-04
51 7.3109158083993215e-04 3.6142498663329530e-04 -5.7936369675284797e-04
52 8.1158182720754565e-04 3.6573837514450736e-04 -4.5122363877514183e-04
53 7.2635030974975228e-04 4.8788801499004080e-04 -4.8106435625525486e-04
54 8.0028523306997573e-04 4.8009525306744129e-04 -3.4925457286811684e-04
55 7.1216915146535211e-04 5.9210584741166059e-04 -3.6818415224577314e-04
56 7.7633351839906796e-04 5.7659388383005106e-04 -2.3526304938523515e-04
57 6.2869940403405679e-04 5.9817923429099265e-04 -4.9382863229464966e-04
58 6.0659590932564942e-04 6.9217428330617631e-04 -3.8262310006160767e-04
59 5.1687109795846265e-04 6.9315233584122565e-04 -4.9932457506095631e-04
60 4.8852835066024423e-04 7.7436038076178146e-04 -3.9417234290535594e-04
61 3.9706418606966725e-04 7.6127365984457159e-04 -5.1032353958860755e-04
62 3.6172301699497351e-04 8.3977759217208881e-04 -3.9697919404362990e-04
63 2.0773939681859672e-04 4.5328911405460696e-04 -8.7414030911909645e-04
64 4.5076039284904033e-04 8.3962970874805346e-04 -2.8700852812858600e-04
65 2.5842991878427041e-04 8.1785552406954398e-04 -5.1187265093236348e-04
66 2.2963122583111078e-04 8.9304339680313890e-04 -3.7796621310646849e-04
67 1.2461464208111676e-04 8.6616224729022873e-04 -4.8029938717627076e-04
68 9.5938483455398506e-05 2.4581217699454579e-04 -9.7362270205668129e-04
69 1.4441258217779120e-04 7.7043196692550692e-04 -6.2363634323248822e-04
70 8.5344066940209714e-04 4.6371743207743860e-04 -2.1574752854738245e-04
71 8.2462083131413426e-04 5.4629824402595154e-04 -1.0354764649970483e-04
72 7.3210896626934913e-04 6.6111507066118598e-04 -1.2646859161683280e-04
73 7.6999970837655972e-04 6.2916859929487798e-04 3.7082385777324645e-06
74 6.6720504869132390e-04 7.3655097585504205e-04 -2.6462468834235501e-05
75 6.9180607132033668e-04 7.0645903379191262e-04 1.0415939842617953e-04
76 5.8688679760167059e-04 7.9926163987048050e-04 7.1887394481242239e-05
77 6.1142791766730369e-04 7.5739801092699417e-04 2.0568525426311999e-04
78 5.0109342094891622e-04 8.4122062572393171e-04 1.7510032056299718e-04
79 9.4002045669736383e-05 9.3181101140312980e-04 -3.3908383500595794e-04
80 -1.2947729517600794e-05 8.9935257976329593e-04 -4.3039156926946037e-04
81 2.3546303406633915e-04 2.1155097380786737e-04 9.5826421400835055e-04
82 5.1936263379887622e-04 7.8993759974603896e-04 3.1381438172959112e-04
83 -4.2162425758667932e-05 9.4806770516954908e-04 -2.9978502062570297e-04
84 4.0399109491404470e-04 8.6638316507894441e-04 2.7779922213255520e-04
85 4.2029756693799761e-04 8.0775401709058670e-04 4.0626839544564318e-04
86 2.9423766247035319e-04 8.7548194420220384e-04 3.7417419145281959e-04
87 3.0154358660926532e-04 8.0748602928039468e-04 5.0379684000450252e-04
88 1.8390382843111856e-04 8.6190296040932932e-04 4.6811945666978578e-04
89 1.6663009227197990e-04 9.2166456461385685e-04 3.3884485237598098e-04
90 5.3268539537006610e-05 9.0020073479218650e-04 4.2554643784959150e-04
91 6.9989318372747189e-05 8.2872923136453739e-04 5.5424225743492248e-04
92 -5.8953757540876690e-05 8.5770748863849477e-04 5.0741873508772521e-04
93 -8.9144813449101561e-05 9.1651000732204091e-04 3.8067479971669375e-04
94 -1.9151898183837295e-04 8.6570212897321079e-04 4.5696305648877330e-04
95 -1.6612365635629999e-04 7.9944029608978128e-04 5.7533798511243497e-04
96 -2.2097529058698177e-04 9.1300676117098210e-04 3.3041139199774505e-04
97 1.1765588323794357e-04 2.1739887560400352e-04 9.7868269907044479e-04
98 5.3788120712182374e-04 7.1074879192976859e-04 4.5089070668715320e-04
99 1.7163416164486515e-04 3.3653774684288455e-04 9.3502962783665342e-04
100 4.6151053397003899e-05 3.2402683930692630e-04 9.5429170017330737e-04
101 -7.2833524773705616e-06 2.1442921906162125e-04 9.8654588166936482e-04
102 -8.5607064200202116e-05 3.1657407217858008e-04 9.5403561131212006e-04
103 1.9920542099732957e-04 9.4404387283433518e-04 -2.4307516459062421e-04
104 -1.1359705900921873e-04 9.5662699852662957e-04 2.4877957586298921e-04
105 -2.4548367033116184e-04 9.4120621714167344e-04 2.0753259242560211e-04
106 -3.5129013353422549e-04 8.8832010486716633e-04 2.7919977281989428e-04
107 -1.5353013280683099e-04 9.0856072192772831e-04 -3.7868172382108289e-04
108 -1.2924287551049728e-04 8.4796204586719075e-04 -5.1082869243516038e-04
109 -3.7752353640098531e-04 9.0716973107141466e-04 1.5132766449026699e-04
110 -2.6163851767370552e-04 8.4925815329282709e-04 -4.5283409648775165e-04
111 -2.3304885924961538e-04 7.7525668261868965e-04 -5.8684990280357795e-04
112 -3.6712338996597695e-04 7.7021536031236294e-04 -5.1871127996072435e-04
113 -3.3526212267285654e-04 6.8995737491011613e-04 -6.4320785654093597e-04
114 -4.6508817740619065e-04 6.7614715266043420e-04 -5.7056261476299208e-04
115 -4.2569876156384044e-04 5.9260778560605773e-04 -6.8672329222364511e-04
116 -4.9794491326679558e-04 7.4004228337692371e-04 -4.4601623661911718e-04
117 -2.8912607446141317e-04 8.9853791149544599e-04 -3.1598768924478353e-04
118 -2.8543527871281932e-04 7.8322245269267217e-04 5.5214965117949286e-04
119 7.0220788366063679e-04 6.6690642246429585e-04 2.2778149977254004e-04
120 -2.9091580209280070e-04 5.8642322395509002e-04 -7.6102975071673301e-04
121 -3.7462751686434542e-04 4.8812225198480093e-04 -7.9407534265630935e-04
122 -5.0216931843633742e-04 4.7543370789609091e-04 -7.2626025206705956e-04
123 -4.4799008829545900e-04 3.6871263262945489e-04 -8.2067726729657107e-04
124 -5.8653596789550897e-04 6.3794937868769835e-04 -4.9505997654410248e-04
125 -6.1373647786903864e-04 6.9573133478798683e-04 -3.6229990131371773e-04
126 -6.9566586931913538e-04 5.8740441736075428e-04 -4.0509316232235134e-04
127 -4.8271070784131656e-04 8.4021478868204604e-04 2.2495763765146664e-04
128 -5.7097056257100699e-04 3.4832402820684789e-04 -7.4777066426747808e-04
129 -5.1011404894559366e-04 2.3969642546993542e-04 -8.3247548143881660e-04
130 -6.3028342714685688e-04 2.2121192910900134e-04 -7.4861997016176587e-04
131 -5.6122826556829922e-04 1.1134718501111673e-04 -8.2658382813960418e-04
132 -6.8089259771998809e-04 9.1390016203487693e-05 -7.3084905593744055e-04
133 -6.0960308190143118e-04 -1.7735998429285211e-05 -7.9848034619791404e-04
134 -7.2349559999980711e-04 -4.0211471725643721e-05 -6.9254007636944479e-04
135 -6.4476166769036848e-04 -1.4775422150073986e-04 -7.5514650871702700e-04
136 -7.8895509547665017e-04 7.5724986833986728e-05 -6.1069928405271118e-04
137 -8.2076188951834541e-04 -6.4048911996195083e-05 -5.6718355280511057e-04
138 -8.7169746802116073e-04 5.4020742469036489e-05 -4.8327422580264222e-04
139 -8.9164894421530304e-04 -9.2496053525367288e-05 -4.3740153150477815e-04
140 -9.3263664336460804e-04 2.0564741333279369e-05 -3.4923289710693496e-04
141 -9.4240650073679720e-04 -1.1541514790503364e-04 -2.9989631881517507e-04
142 -9.7167690508415789e-04 -1.3783542547600428e-05 -2.1280706547378037e-04
143 -9.7018775253718042e-04 -1.4525677132827037e-04 -1.6406862850679803e-04
144 -9.9031690543379498e-04 -4.0241297565903826e-05 -7.7680863610227196e-05
145 -9.7842288668001961e-04 -1.7451080707398374e-04 -2.5580483860555446e-05
146 -9.9063828284652860e-04 -6.2444570564125759e-05 5.4647613107511965e-05
147 -9.6991133406979359e-04 -1.9095518027432946e-04 1.0771934472919001e-04
148 -9.4606456681123644e-04 -3.0502595352487939e-04 2.4229386323643395e-05
149 -9.3065675626525634e-04 -3.1327105375106567e-04 1.5869013563759712e-04
150 -9.4594964587336951e-04 -1.9614902311591140e-04 2.3899340767309196e-04
151 -8.9796909126539854e-04 -3.1611688157901651e-04 2.9186584038993064e-04
152 -9.0114633418822648e-04 -1.9584841591705293e-04 3.7820472331288532e-04
153 -8.4386199033008812e-04 -3.2130910693427023e-04 4.2353712082878050e-04
154 -8.9420447325407688e-04 -2.2189552557653816e-04 -3.8005829564194171e-04
155 -8.3190015139790398e-04 -2.0306125477467343e-04 5.1420637821545973e-04
156 -7.6314098044310392e-04 -3.3326668248987969e-04 5.5293992951866594e-04
157 -8.8076263821189652e-04 -6.8908579883895945e-05 4.6438035641639225e-04
158 -7.4277257863569204e-04 -2.1618976254124178e-04 6.3549483018448898e-04
159 -6.6122180981978711e-04 -3.3576975328881769e-04 6.7401459209474217e-04
160 -9.9142474749725710e-04 7.2102104905165875e-05 5.4328079774663115e-06
161 -6.3364619002452246e-04 -2.1752611644826268e-04 7.4727505313045266e-04
162 -5.4889967627891822e-04 -3.2526409558276254e-04 7.7590772931616263e-04
163 -5.2026150346020045e-04 -1.1834055886777399e-04 -8.5310081563555896e-04
164 -5.4545025926041484e-04 -2.5167453321637173e-04 -8.0599540327474606e-04
165 -7.1388220260607243e-04 6.3796650211309233e-04 -2.7059102879198170e-04
166 -1.3821191996956684e-04 2.1681687378173362e-04 9.7603644776362219e-04
167 -2.2058172762881765e-04 3.1101498909091071e-04 9.3336201449596083e-04
168 -4.1521573150154155e-04 -2.1184564798634991e-04 -8.9302741449192452e-04
169 -4.3298033039744515e-04 -3.4815079423119978e-04 -8.3880280782330200e-04
170 -5.5356289619300247e-04 -3.8415091554175107e-04 -7.4414651766481694e-04
171 -4.4213723401639117e-04 -4.7675828654046662e-04 -7.6560314606217766e-04
172 -5.5498120957161762e-04 -5.1127583806133772e-04 -6.5935427767745006e-04
173 -4.4038380138786452e-04 -5.9803003502880087e-04 -6.7326167279570476e-04
174 -5.4213332720091185e-04 -6.2764573545917698e-04 -5.5883102941207160e-04
175 -4.2966416072818658e-04 -7.0784152416832990e-04 -5.6091238719717504e-04
176 -7.6914240201983604e-04 -4.3662452612859776e-04 4.6205715790168504e-04
177 -5.1961523228163660e-04 -7.2568029468088595e-04 -4.4669014606913131e-04
178 -4.0944566786211786e-04 -7.9863454275448946e-04 -4.3649350167495411e-04
179 -3.1183862805610961e-04 -7.8143401298845451e-04 -5.3976345109447933e-04
180 -2.8124512487366318e-04 -8.6175457810848042e-04 -4.1699983230362081e-04
181 -1.7990050329654055e-04 -8.3337861309687705e-04 -5.2149427883690068e-04
182 -1.4199955181260710e-04 -9.0204867494000430e-04 -4.0202467045788215e-04
183 -4.4251147700957781e-05 -8.5993998566428293e-04 -5.0752939644727979e-04
184 -1.2097450819823126e-05 -9.2255436190721678e-04 -3.7888771720616230e-04
185 -1.0186386096315488e-04 -9.5396276308189079e-04 -2.6830625302533186e-04
186 3.4903985677376580e-05 -9.6457731749305874e-04 -2.4541669825960675e-04
187 -5.3615733819226617e-05 -9.8401399082801789e-04 -1.3946308795835294e-04
188 8.7856725099475519e-05 -9.8419406256249390e-04 -1.1915819716601749e-04
189 -7.5118127859032081e-06 -9.9482464354671792e-04 -1.4366098099814353e-05
190 1.3053835371335440e-04 -9.8636210787905374e-04 1.1005364072208437e-05
191 2.9422997856234545e-05 -9.8855540834129991e-04 1.1135309206388709e-04
192 1.6560438781471743e-04 -9.7213383387005864e-04 1.3590177473532671e-04
193 6.4383496353679265e-05 -9.6617273823553136e-04 2.3375558240710268e-04
194 2.2162845782086631e-04 -9.6561345396755554e-04 -9.2307331083182309e-05
195 2.0021671715782078e-04 -9.4039628268707733e-04 2.6167432250117636e-04
196 9.7268492917296814e-05 -9.2322296262543598e-04 3.6514010402577195e-04
197 1.0690547165734956e-04 -8.7210540641881134e-04 -4.7661138744401892e-04
198 -9.7537779557000195e-05 -9.8692553284475946e-04 7.8675077424825735e-05
199 2.3339394814541752e-04 -8.8793267668856133e-04 3.9103936170857513e-04
200 3.3385470521421430e-04 -8.9403104554691443e-04 2.8754253385557748e-04
201 3.6336018891799482e-04 -8.3214866418527796e-04 4.1459116088716672e-04
202 1.2996790278563565e-04 -8.5832166677747622e-04 4.9521098691009775e-04
203 4.5598910451850140e-04 -8.3200302691230452e-04 3.0592540113922922e-04
204 -4.3360719783347411e-06 -8.8525954783665170e-04 4.6268412734666510e-04
205 2.9056337792963944e-05 -8.0777217532366585e-04 5.9060695286349593e-04
206 -8.9746828247609721e-04 -4.2247879737345920e-04 7.1236016609631944e-05
207 -8.7778778173980154e-05 -7.7423188005623493e-04 -6.3020717933840354e-04
208 -1.0308793435402445e-04 -8.2650739868011169e-04 5.5403628718969850e-04
209 -6.9681500381504067e-05 -7.3587260761365778e-04 6.7762610333669919e-04
210 4.8149216581809729e-04 -7.6132657083898025e-04 4.3044776061756696e-04
211 5.6953052751130032e-04 -7.5462469497269383e-04 3.1591990826653973e-04
212 -4.9249237540053962e-04 -8.0368167492492985e-04 -3.2295556229382304e-04
213 5.8422362952368129e-05 -7.0993480987375829e-04 7.0674223659858719e-04
214 -3.7818884065305055e-05 -6.2617690462229991e-04 7.8528823785433864e-04
215 -3.1384338250705837e-04 -2.9308266690078862e-04 -9.1177705116905598e-04
216 -2.0500628660921155e-04 -7.4944159869005738e-04 6.3231348616207860e-04
217 -2.3823343179796131e-04 -8.2954502634634340e-04 5.0381229536205965e-04
218 5.4372204496526487e-04 -8.1189273111969163e-04 1.9250892156599784e-04
219 6.5536294336792289e-04 -7.1966875229575100e-04 2.1191687506881077e-04
220 6.1914329533473687e-04 -7.7457575571886238e-04 8.6537097716683000e-05
221 -6.2958181633483040e-04 -6.3910838609272094e-04 -4.3683269973870882e-04
222 7.2047191030285825e-04 -6.7888330393812263e-04 1.0547875662667938e-04
223 6.8268802998232834e-04 -7.2366123391642107e-04 -2.4148846488336660e-05
224 -2.8703929837543791e-04 -1.6316790645135452e-04 -9.5319080795855675e-04
225 -9.5698302832082183e-04 1.1277040233429002e-04 -2.4711501314626940e-04
226 8.5262537628240088e-05 -5.9137718239640421e-04 8.0908931509357854e-04
227 -8.4577048681417143e-06 -5.0415337013364489e-04 8.7188985915769262e-04
228 -5.1510363548623475e-04 -1.9653604447303298e-04 8.4148627636835953e-04
229 -5.9214764972119092e-04 -9.5829639173866335e-05 8.0605069805675931e-04
230 6.6763722566449946e-04 -6.5708488349782617e-04 3.4170008220384075e-04
231 3.9186003393228028e-04 -7.5228654638796267e-04 5.2946847060840387e-04
232 5.1415883768206729e-04 -6.5886984039572292e-04 5.5130250674057446e-04
233 7.7165430469675197e-04 -6.2794331926743427e-04 -1.5852381049891618e-05
234 7.3193540711044753e-04 -6.5977840535561298e-04 -1.4005439567738422e-04
235 -3.8608732294689928e-04 2.5583022866137566e-04 -8.9392974958373787e-04
236 2.9410471377294467e-04 3.3531951106996412e-04 9.0368000462940062e-04
237 -4.3067237236084301e-04 -2.9528481824920926e-04 8.6064807485538371e-04
238 -8.3706295981015569e-04 1.9812285371449307e-04 -5.0821523007360189e-04
239 6.3761622782001386e-04 -7.4917741094013236e-04 -1.5210084639458019e-04
240 6.8040896990478363e-04 -6.7598278098782432e-04 -2.6951350307086310e-04
241 -5.7639428887674515e-04 -4.4150440096843847e-04 6.9146260295137232e-04
242 5.7240335171287137e-04 -7.6814651671878661e-04 -2.7380917625412498e-04
243 6.0797784898953557e-04 -6.8401462420078344e-04 -3.9751153226676031e-04
244 7.1017212807721042e-04 -5.8859840099697637e-04 -3.7976632287711602e-04
245 6.2849215857232218e-04 -5.8712076612640537e-04 -5.0918685445954653e-04
246 -1.8810011168513173e-04 -2.4721118715330550e-04 -9.5999931783158289e-04
247 8.0968720957307451e-04 -5.6909044496471293e-04 1.0609559943919362e-04
248 2.2961985809246950e-04 4.4099302173263667e-04 8.7567085325222045e-04
249 -3.8803695130305979e-04 -1.5623022114189900e-04 9.1702571874546909e-04
250 3.5737648066250889e-04 4.3209936756050528e-04 8.3525412249101539e-04
251 -2.1731006083629641e-04 -3.6029755189811064e-04 -9.1592117113157786e-04
252 -9.2285250970900259e-05 -3.3584352963751663e-04 -9.4669409286397301e-04
253 3.7470196054836314e-04 9.0910710208688553e-04 1.4857624778290016e-04
254 -6.2202439529433003e-04 7.4135626200062246e-04 -2.2912013239842350e-04
255 -7.1274907430985725e-04 6.7874902662563808e-04 -1.3816501581581978e-04
256 -7.9574911726864217e-04 5.7020521451610600e-04 -1.7360943449348313e-04
257 -7.8314732726548499e-04 6.0997015921211944e-04 -4.4867823199291993e-05
258 -2.5126597822161068e-05 4.3010422787185225e-04 9.1097868946819717e-04
259 -2.9864398998445489e-04 -2.3267646439030553e-04 9.3466250195041196e-04
260 -2.7232566461467245e-04 2.0604467380569202e-04 9.4910096907080150e-04
261 -3.5223084672810059e-04 3.0522211784338193e-04 8.9291147203479616e-04
262 -2.5991367809745738e-04 -1.0630046156929062e-04 9.6929709164483423e-04
263 -1.6931279423863826e-04 -1.8203368827150989e-04 9.7845451234018104e-04
264 -8.5928295155535833e-04 4.9288260598199249e-04 -8.1392308525969010e-05
265 -8.3476922356261261e-04 5.3690320154878247e-04 5.1601328047342616e-05
266 -3.4082884968567381e-04 -7.4811011370124229e-04 5.7005746278110988e-04
267 -3.6997133005004488e-04 -8.1742271294782030e-04 4.3713649450608996e-04
268 5.1333127436187481e-04 -6.8194529546934429e-04 -5.2033406435095068e-04
269 5.2150810988916651e-04 -5.7730507439742579e-04 -6.3114425018363969e-04
270 6.3198177310256752e-04 -4.7998175895716777e-04 -6.1073945186464890e-04
271 5.1407234049456014e-04 -4.6208071016032141e-04 -7.2809739839696096e-04
272 4.0285349305245672e-04 -5.5399097767186575e-04 -7.3412926961692409e-04
273 -2.9735612471349737e-04 4.1551358376947249e-04 8.6717114159640118e-04
274 -4.2586790196410071e-04 4.1192987767945299e-04 8.1205242391975386e-04
275 3.9416982090333775e-04 -4.2800834083022468e-04 -8.2072428228377003e-04
276 2.8389704684453652e-04 -5.1968539420184617e-04 -8.1311137687199611e-04
277 -3.3002254635478782e-04 -3.6831498003641466e-04 8.7704688792556481e-04
278 -1.3218011342380209e-04 9.7708481705760151e-04 1.2658565926122783e-04
279 8.1035009771617201e-04 -5.6275221452447611e-04 -1.2861626233986697e-04
280 -2.3435206694603553e-04 4.6943396637886967e-04 -8.5851376693194881e-04
281 -1.5001583231230871e-04 5.6985404185981039e-04 -8.1426453926409040e-04
282 8.6398785318876441e-04 4.9321334671983952e-04 2.3440961392400669e-05
283 1.1796648381020382e-04 -4.6353139370485527e-04 8.8676023419008085e-04
284 -9.8500041889693188e-04 5.1404074801892427e-05 1.2422977464807445e-04
285 -9.0551756068766556e-04 -4.0535493816555416e-04 -6.8788510047170954e-05
286 -8.4575895896629261e-04 -5.2279523622588092e-04 -2.2131059242755892e-05
287 -8.3192687954522157e-04 -5.3313767336952533e-04 1.1459764062397713e-04
288 -7.6611645307992954e-04 -6.3382746630343532e-04 2.4651939649486748e-05
289 -7.4378620551603667e-04 -6.4199116312403529e-04 1.5702524621008073e-04
290 -6.7508729324258234e-04 -7.2738453812973335e-04 6.7960692575228687e-05
291 -1.9643564018922207e-04 -9.6236469164372510e-04 -1.6191621414615950e-04
292 -2.7021181413755166e-04 -8.8689952884448873e-04 3.6764043479813881e-04
293 -3.3534051832656526e-04 -5.5062628545779761e-04 -7.7081746692916973e-04
294 -9.8385363109493036e-05 -4.6741660650429526e-04 -8.8769888215346781e-04
295 -4.8788132029289362e-04 2.9799826712350555e-04 8.2732947332783636e-04
296 -5.5559141135585967e-04 3.9756416590598854e-04 7.3489196473603303e-04
297 -8.6658668129257208e-04 4.4337486632213595e-04 -2.0432320555672075e-04
298 -6.1418428269962482e-04 2.7076767077085378e-04 7.4626111408682540e-04
299 -6.7365942688088877e-04 3.7056230136725408e-04 6.4140356762171268e-04
300 -6.0863502760163642e-04 4.9581895042462190e-04 6.2088610973143245e-04
301 -7.1670534431244519e-04 4.6163594459112034e-04 5.2062151578226225e-04
302 -7.7552427682793903e-04 3.3564800809749291e-04 5.3282520254520935e-04
303 -3.0415770652592299e-04 -6.6060230086955110e-04 6.9048903466378841e-04
304 -6.3621868905998271e-04 5.9299767087469092e-04 4.9053187271498459e-04
305 -8.0697289377348966e-04 4.1658791602477725e-04 4.1167136439246635e-04
306 2.0893344927328504e-04 -5.4851754980145024e-04 8.1702939430634814e-04
307 2.4483340733802677e-04 -4.2095901374408686e-04 8.8201181243740179e-04
308 3.4629705756380780e-04 -4.9697802707348313e-04 8.0299350208036134e-04
309 -4.5774999570833796e-04 -7.3378187190944056e-04 4.9918930494077839e-04
310 -8.5775363034041750e-04 2.8332441722250952e-04 4.2222416146663148e-04
311 -4.0039019808574229e-04 -8.6217306970187149e-04 2.9900169457016941e-04
312 -7.6133131210872642e-04 6.3362716305271087e-04 8.0222733600382405e-05
313 -8.4567019223132978e-04 -5.0067334414370299e-04 -1.5479653280236214e-04
314 -7.9792395513151064e-05 1.1008783015071060e-04 1.0010078845918882e-03
315 -8.8248701442306566e-04 3.5347017908615567e-04 2.9687271384481919e-04
316 -9.7258311319883286e-04 1.8596688566346580e-04 8.7762739955068712e-05
317 -1.0748466956071602e-04 7.6750114682395791e-04 -6.3298384253600922e-04
318 2.6946524406182786e-04 -3.8522617769612432e-04 -8.9119461703487544e-04
319 -6.8872596775479140e-04 -7.1483245617656125e-04 -6.4582242169034052e-05
320 -6.0198044281436049e-04 -7.9148512567768644e-04 -6.2582640910721597e-06
321 -6.6371455840723997e-04 -4.0746347992238189e-04 -6.2929911467308748e-04
322 -6.2307087518641583e-05 -2.1410091088610225e-04 -9.8461001305982375e-04
323 5.0790340383342219e-04 -8.5276173713923838e-04 7.3945216722383106e-05
324 -6.1628405613967639e-04 7.7319183785384295e-04 -9.8263925011064264e-05
325 2.8418604724934405e-04 5.3989554350906239e-04 7.9857291469879251e-04
326 2.8039165372486120e-04 -6.3978983728055726e-04 -7.2075587358307893e-04
327 1.5660414199452347e-04 -5.9990398513381517e-04 -7.9153332847730381e-04
328 4.2247383269717709e-04 5.3429964225613859e-04 7.3707270270196191e-04
329 4.8391007797090289e-04 4.1545453336200620e-04 7.7616817821801894e-04
330 4.4945638097785678e-04 4.4265300117878796e-04 -7.8113916587795366e-04
331 5.3110544712041438e-06 9.8073601252638754e-04 1.6351327376653018e-04
332 -1.8083148661978076e-05 9.9288027696561670e-04 3.7821546173246091e-05
333 -1.4897425369700274e-04 9.8241133924587367e-04 3.9560061142006391e-06
334 1.1851244666697598e-04 9.8363003862949358e-04 7.9422451260032447e-05
335 3.6404512119433860e-04 -3.5720078213245901e-04 8.6861301651544424e-04
336 4.6198771552212372e-04 -4.2751948962073546e-04 7.8363695534821329e-04
337 -8.1510302453223634e-04 2.1008917080371492e-04 5.3770177117785521e-04
338 -3.5621386014208513e-04 5.1735632975549533e-04 7.8368843176826247e-04
339 -1.0640952928448422e-04 4.5775929833930884e-04 -8.9032725582845554e-04
340 3.5953350998812577e-04 -2.9567040975087060e-04 -8.9369982675126312e-04
341 2.0663782663893678e-05 -2.7217093327178274e-04 -9.7179798929586652e-04
342 -9.2659951510774515e-04 3.4850305440461033e-04 -9.9211695679994239e-05
343 1.7373703594268915e-05 -3.7229643158472644e-04 9.3744097123606325e-04
344 -5.2320800794256332e-04 6.1331846526171496e-04 5.9213490865236127e-04
345 -5.3349736666039548e-04 7.0968550321876380e-04 4.5730683119607897e-04
346 -6.5295981578562725e-04 6.6280174523568206e-04 3.5644529701053221e-04
347 6.0791326391377264e-04 -3.6444875023558141e-04 -7.1039190894505073e-04
348 7.2312049396418580e-04 -3.7305670427087331e-04 -5.8281574015578701e-04
349 5.4212102243455748e-04 5.1821290557797469e-04 6.6442822807673654e-04
350 6.0465197123117794e-04 3.9819852546556147e-04 6.9359775109009421e-04
351 6.5566881812670385e-04 4.9033668576217953e-04 5.7444525131851356e-04
352 7.1475661134680194e-04 3.5369473951141358e-04 6.0489753942643849e-04
353 7.5380388651085555e-04 4.4807606946536895e-04 4.7787550334211251e-04
354 -6.4241710999202552e-04 -7.3331875964444083e-04 2.0055685737381583e-04
355 2.5713663821954171e-04 5.5183937773904354e-04 -7.9887346183797007e-04
356 1.3579914236252520e-04 5.6218562868452131e-04 -8.2205274230694625e-04
357 -6.7636132950346585e-04 3.2236406709320014e-04 -6.6384631099474910e-04
358 5.2509609497650362e-04 -8.3143847847627346e-04 -1.5440209288499320e-04
359 4.5295831622272552e-04 -8.4428126793646143e-04 -2.7288795051803573e-04
360 -8.2259700496110509e-04 4.8654333109808258e-04 2.7833475946412655e-04
361 -1.2490211231722950e-04 -5.2732954409965725e-04 8.4810783024804302e-04
362 -1.8282759228691937e-04 3.4905042488775437e-04 -9.2748877700480671e-04
363 -2.2905838395534140e-04 5.1584770297894138e-04 8.3202215737578425e-04
364 -5.1778022060231215e-04 8.2937706673021365e-04 -1.7988092398939606e-04
365 1.6191845822707723e-04 5.4542860169993330e-04 8.2937592588934049e-04
366 -3.6337018197394471e-04 -3.0251071550504486e-05 9.4009929129512627e-04
367 -7.0330462056097552e-04 -6.4154157033952379e-04 2.9306440948093164e-04
368 2.1279376468487797e-04 6.6678880720424038e-04 7.1946601459453932e-04
369 8.3220292007179117e-05 6.3615522098366465e-04 7.7151590310230113e-04
370 6.9760996726717659e-04 -2.5554896685579288e-04 -6.7329512065804982e-04
371 -5.3813410431676498e-04 1.6357819800947961e-04 8.3386965089282043e-04
372 -6.5925250469738451e-04 1.3514268189017195e-04 7.4521368262369910e-04
373 5.5109241030547882e-04 8.2561680963252979e-04 -5.3586644615354413e-05
374 -1.4680515164475810e-04 -7.4710509834183017e-05 9.9646346584990287e-04
375 -4.5646197058602742e-05 -1.6419116115428995e-04 9.9537408521101125e-04
376 -3.0125472841609755e-04 -9.2077378041369412e-04 2.3117146168658616e-04
377 -4.3020231898315312e-04 -8.8357566916915330e-04 1.6215437677261497e-04
378 -9.2503281158039241e-04 1.9582685250871980e-04 3.1496314483196806e-04
379 4.2443142994305405e-04 6.5950459528374666e-04 -6.2266993706010850e-04
380 1.5717654646826276e-04 -7.1339304667921571e-04 -6.8711359128401615e-04
381 2.7853259582070328e-04 -7.4275581965373616e-04 -6.1070067488562475e-04
382 -8.9810197247724858e-04 -3.7823241937778537e-04 -2.0094090011400529e-04
383 -8.3208211711279228e-04 -4.6818121139544371e-04 -2.8243917248745791e-04
384 -7.6798940695262336e-04 -5.8389629685517942e-04 -2.4578219289963978e-04
385 -1.6601010484266579e-04 -9.3914038669149543e-04 2.8905052777079219e-04
386 -6.6080397856758011e-04 5.2700005200801195e-04 -5.3176114841507630e-04
387 -7.6008646584417648e-04 4.7317955661954500e-04 -4.3847085110977895e-04
388 8.7663199447806251e-04 2.4913154504272540e-04 -4.0524839755520445e-04
389 -9.0840153701667980e-04 3.2734035009707635e-04 -2.3912996184510195e-04
390 -5.1041432383278074e-04 8.5138498078878749e-04 -4.2641182097313730e-05
391 -4.0322806252313754e-04 9.0071503178267519e-04 -1.1779632385269696e-04
392 -6.0538740730100671e-04 7.8694522427823969e-04 3.1719132872858216e-05
393 -5.9188745824693165e-04 -7.8977188735286457e-04 -1.2537055553171265e-04
394 -5.0095193298561023e-04 -8.5661700808401181e-04 -6.4657270627401241e-05
395 9.0051047235943424e-05 9.8835322297842585e-04 -4.9977556972421234e-05
396 2.2540281857788035e-04 9.6787056442025339e-04 -1.0361544375579697e-05
397 5.2643212917674717e-04 3.2545693016316617e-04 -7.9166570741134054e-04
398 2.4773102248181123e-04 -2.9088963857803053e-04 9.3337850786366834e-04
399 3.7029985846025144e-04 -2.2422578983705252e-04 9.1089143963454008e-04
400 -2.8449816650347610e-04 6.0709612521132384e-04 7.4629140196428570e-04
401 -1.6509959459646672e-04 6.1701723584091806e-04 7.7366562737927168e-04
402 3.1256441574475528e-04 -6.1432089920526419e-04 7.2999188125930309e-04
403 6.5652047224427565e-04 2.6968908174305805e-04 7.0868392309801739e-04
404 6.6528295591301910e-04 5.9695682517338562e-04 4.4579623635634263e-04
405 -3.1310393736045923e-04 -9.3944397011474633e-04 9.7425003398335456e-05
406 2.3252378522281136e-04 -2.5796846135990110e-04 -9.4678793903041987e-04
407 3.3844988930188696e-04 -1.8952288140007653e-04 -9.3046462239700209e-04
408 9.4654222712274287e-05 4.5866135706272945e-04 -8.9098658489674104e-04
409 -8.8465575182531460e-04 4.2789485196952906e-04 1.5858496030168504e-04
410 -4.5261933142943714e-04 8.1254766255125263e-04 3.5694025482113157e-04
411 5.5549407954163436e-04 4.2271290344861009e-04 -7.1892309857497718e-04
412 4.6460553751978453e-04 6.5350125747771332e-04 5.9985964337696304e-04
413 8.1194172884716486e-04 2.9593167947458910e-04 5.0161705778427887e-04
414 8.3685046126365714e-04 3.9294368730412375e-04 3.7284469941143263e-04
415 4.7868677409835497e-05 -1.3343848898421086e-04 -9.9976743339008200e-04
416 -9.7109973633918462e-04 2.0876852934953598e-04 -4.3043356452351083e-05
417 -5.9831057555481469e-05 3.3585076665827344e-04 -9.4848028047770044e-04
418 -1.2019266929411255e-04 2.2285847965788455e-04 -9.7667129234834532e-04
419 5.1996254879944090e-05 1.6991711210674417e-04 -9.9284205657299267e-04
420 -7.5956088296040471e-05 -7.7357911698854864e-05 -1.0039329763141236e-03
421 -9.4175858807787275e-04 3.1504871025851824e-04 4.7780996836178631e-05
422 8.0243589237458948e-04 -2.5361605049774034e-04 -5.4024587736006011e-04
423 8.1152185849965434e-04 -3.7182261866988806e-04 -4.4737991297053096e-04
424 2.5465857566041344e-04 9.5393529435975591e-04 1.1658471200486249e-04
425 3.3359154942350274e-05 -6.8107269833794044e-04 -7.3805712327189809e-04
426 2.3643376350471255e-05 -5.4202113634863958e-04 -8.4818628797215514e-04
427 -8.2084274652688988e-05 -5.8679412422205101e-04 -8.1211508179476397e-04
428 4.1199497872156977e-04 -8.9119126473320297e-04 -1.6271440555131958e-04
429 3.2546063884411760e-04 -9.0195811587943757e-04 -2.6957074340554856e-04
430 3.6485613969202687e-04 -8.4490931633696685e-04 -3.8462540643565557e-04
431 -6.0815059488481579e-04 -7.1888161232839458e-04 3.2530254849097754e-04
432 -6.4586374220503213e-04 -6.2215611150740553e-04 4.3847692807650425e-04
433 1.3548912781530197e-04 -3.4673990810422787e-04 -9.3725834069591446e-04
434 -6.9205811758149671e-06 5.5878615042726854e-04 -8.3683150656602883e-04
435 7.3047189118244076e-05 6.6609584953288589e-04 -7.4708125838645505e-04
436 8.8280381317184836e-04 2.5432159072339919e-04 3.8777449854204078e-04
437 9.0018323330214381e-04 3.3314201951003538e-04 2.6441175180409759e-04
438 8.5555399728481029e-04 4.4657610694513484e-04 2.4254320954330132e-04
439 7.6025790265942092e-04 2.1042995895049856e-04 6.1697301198744591e-04
440 -5.8156794867962711e-04 7.5199696459029523e-04 2.9660064168359710e-04
441 -6.9770505236831201e-04 6.7705678163848732e-04 2.1329895759828425e-04
442 6.8244228137891985e-04 -1.1597722695614266e-04 7.2730915982592028e-04
443 7.2326588298436830e-04 -2.3990002483149930e-04 6.5132248693144620e-04
444 8.1820134295520607e-04 -2.4103412374681875e-04 5.2168812771996728e-04
445 7.4863490898477989e-04 -3.6218347878596695e-04 5.5602387584474330e-04
446 8.2510151725267956e-04 -3.6220925651850522e-04 4.2971795372269937e-04
447 7.4629104889376344e-04 -4.7105206895477572e-04 4.6780246423530186e-04
448 6.6689656974350676e-04 -4.7016766557310993e-04 5.7935905458733822e-04
449 8.0987177941293283e-04 -4.7643561871832694e-04 3.3362450713596829e-04
450 8.8068414968931852e-04 -3.5903172538783031e-04 2.9782397332277168e-04
451 6.4604978360213760e-04 -5.8958644140714512e-04 4.8435637229466371e-04
452 6.7096050106643516e-04 1.3377484608003567e-04 7.3548902439457770e-04
453 -5.6765215301335446e-04 -8.0779835302540902e-04 1.2287492297995996e-04
454 2.5139738820760916e-05 -4.1564480682275027e-04 -9.1836275315486599e-04
455 9.0650908963739018e-04 3.8761563736906633e-04 1.3160506915752064e-04
456 4.4886895520072152e-04 -2.1613061635361252e-04 -8.7527206490512388e-04
457 4.9926597177098067e-04 5.3527898997112887e-04 -6.8416520184121186e-04
458 6.0982871729117793e-04 -2.4143142455008160e-04 7.6181752579125139e-04
459 1.4725802474615613e-04 9.6189591861389062e-04 2.0609638596854883e-04
460 6.1862482464687240e-04 7.0480921834511416e-04 3.3632506275500405e-04
461 3.8565278972122087e-04 5.5532250004981072e-04 -7.4104686334868159e-04
462 -4.1953731397220565e-04 7.0698871688236974e-04 5.6842040804652022e-04
463 7.7876492576717173e-04 -1.3314449505590244e-04 -6.1534088850666497e-04
464 8.7621964131550593e-04 -2.4962384887931664e-04 -4.0692806409088411e-04
465 8.7459207272458871e-04 -3.6467293542536084e-04 -3.0868951873620841e-04
466 1.0252815147920341e-05 8.2922986663464557e-04 -5.5744470103800264e-04
467 9.2699270706183591e-04 -2.4468126778577203e-04 -2.6989344936378560e-04
468 9.1569124041724411e-04 -3.5211777789837705e-04 -1.7021635100885035e-04
469 1.4118889227684062e-04 3.4554997436915899e-04 -9.3614753490895548e-04
470 8.5027123557116500e-04 -4.7475926314235952e-04 2.0860834948843246e-04
471 9.1529695417207969e-04 -3.4823670506387911e-04 1.7830087779383287e-04
472 1.9772101967130244e-04 7.7383929138792325e-04 6.0259980740231297e-04
473 1.4121380780472771e-04 -2.1521094331071935e-04 -9.7577810013646472e-04
474 2.2814866478496532e-04 -8.9779188566771072e-04 -3.6936650989217366e-04
475 5.6829203048000630e-04 7.6971777875810721e-04 -2.7441659770726382e-04
476 3.1501251513952732e-04 7.1681548559028672e-04 6.2331012804989173e-04
477 2.8761074546910533e-04 7.2824943115947416e-04 -6.2352395660861314e-04
478 -1.9014462718698131e-04 -5.5981526878003747e-04 -8.1260848955379402e-04
479 -1.8123792695288131e-04 -6.7381353637421002e-04 -7.2104932380349809e-04
480 -3.9520547440733555e-04 8.2937363210976937e-04 -3.8555875004043350e-04
481 1.8901708663038796e-04 6.5763284463378285e-04 -7.3342850152490662e-04
482 7.5762126053727870e-04 -6.0317640099798631e-04 2.3727283480212466e-04
483 8.8586532747822607e-04 -4.4420148379302303e-04 8.8547340519506585e-05
484 9.3722058116116455e-04 -3.2640050433931691e-04 6.5252903688806476e-05
485 5.7218215515548207e-04 -2.4285643261146397e-04 -7.9014035610296281e-04
486 3.9095716182662425e-04 1.4670761786676897e-04 -9.1686798166254132e-04
487 9.8380109911366852e-04 1.2841969995122527e-04 -7.1376318749067507e-05
488 9.5028633977668189e-04 2.7142478086945279e-04 -1.1935283988785714e-04
489 9.6580155223155396e-04 2.3394809238566980e-04 1.1102532514049529e-05
490 8.9826333246251309e-04 4.1814616257856936e-04 -8.6021960435943458e-05
491 3.4589643132464440e-04 9.3180394121147598e-04 1.4852665183474879e-05
492 3.1170378903419300e-04 9.3604554785189594e-04 -1.2756069231267461e-04
493 4.3476113698793194e-04 8.9054483364017951e-04 -7.7038520305167064e-05
494 9.1095721309256974e-04 -3.9803439972123004e-04 -3.0344330582104056e-05
495 9.5204366735216546e-04 -2.8088571192383415e-04 -6.1977305490565807e-05
496 -3.9195344468162660e-04 9.1286335382200542e-04 2.1689113468120433e-05
497 9.8391133353264949e-04 1.2705419620131391e-04 7.2023318931738236e-05
498 6.7952876891504989e-04 6.7945522827150546e-04 -2.5945509280943447e-04
499 9.8457637394203925e-04 -1.2971978001578437e-04 -6.6739424007202408e-05
500 9.6715570524826520e-04 -1.0993575300554417e-04 2.0864728007989139e-04
501 9.2692197825378357e-04 -1.2176311290846430e-04 -3.4636574823987474e-04
502 8.6516552342270046e-04 1.2694759799476466e-04 -4.8270214446284642e-04
503 8.7121777194000603e-04 -1.1756075288888950e-04 4.7460567479994754e-04
504 4.3432451952777885e-04 1.0586516737022363e-04 9.0316996666063164e-04
505 4.1745405308725946e-04 3.2084935604808241e-04 8.5784859545227953e-04
506 6.5328681711033143e-04 -3.5289113022012297e-04 6.7371547957783141e-04
507 3.2031671186868278e-04 -1.2186610300739930e-04 9.4888504913447427e-04
508 7.5888081536807988e-05 -1.2161186228929918e-04 1.0002606149926865e-03
509 1.5222615051038829e-04 -2.2284961486328044e-04 9.7263178067688897e-04
510 2.5382921346955487e-04 -1.9416762494765924e-04 9.5637920849468857e-04
511 -1.9795901500818726e-04 6.7967477132555704e-04 -7.0986021806085039e-04
512 2.7659331542481734e-04 9.2266903866992369e-04 2.4992664302006697e-04
513 5.8018708824266200e-04 -8.0772763516529737e-04 -3.6066566925947278e-05
514 2.6667443699094414e-04 -9.5802527638789558e-04 3.4646859465742214e-05
515 3.0021934746080211e-04 -9.3587364195735169e-04 1.5907514789000100e-04
516 -5.4727675588439888e-04 5.6699972416020218e-04 -6.1623691806527835e-04
517 7.7068713659700014e-04 -5.7947118535336083e-04 -2.4945435969358452e-04
518 -1.4664450970753098e-04 -9.8308343554686880e-04 -4.2128940026121668e-05
519 -2.8893688323885895e-04 -9.5145759268739131e-04 -4.5789016733704806e-05
520 -3.3061514325976649e-04 -9.2123870594429641e-04 -1.8139492111300827e-04
521 -7.8955432615055267e-04 5.2321483157683889e-04 -3.0582335498674040e-04
522 -9.8242530899985293e-04 9.0699350323913928e-05 -1.2282034711714955e-04
523 7.8185457076904716e-04 6.0308838273625729e-04 1.1672843549859216e-04
524 -7.9884226192868005e-04 -5.4069087652670292e-04 2.4591839448672901e-04
525 7.7669799148434560e-04 5.1235726071662772e-04 3.5655799852365430e-04
526 4.9125442135004057e-04 -7.7345165665751502e-04 -3.9470582664997696e-04
527 -9.4744535993079491e-04 -2.7968527863580887e-04 -1.1478797681459297e-04
528 -9.4139558099142579e-04 -7.1435878582502442e-05 3.1720707846253054e-04
529 -9.1532550440178080e-04 5.3203785162522617e-05 3.9130572001540016e-04
530 -8.4112237874733669e-04 5.4080814552551776e-05 5.3764975055722473e-04
531 -7.7181973504906293e-04 -6.1770531239136329e-04 -1.1189471584872048e-04
532 -9.7523633780752304e-04 -7.1361218991548687e-05 1.8222380098761613e-04
533 -7.3665461424453306e-04 5.4416198216811814e-04 3.9331716757461387e-04
534 -7.0014613564470371e-04 7.0448846451510484e-04 -1.6316445681786809e-05
535 -2.4235198336047863e-04 -9.2197535970161009e-04 -2.8983997730895036e-04
536 6.2606593725662472e-04 7.5749312879919877e-04 -1.5231472510694719e-04
537 -1.3582064447686064e-04 -8.9403728118817645e-04 4.2275216045832467e-04
538 -3.8288021445567805e-05 9.8957496326346878e-04 -8.2067681752033650e-05
539 -1.7951633074116623e-04 9.4635605332175096e-04 -2.4737154751176452e-04
540 6.2609264999131643e-05 9.7413171182271507e-04 -1.9267788818901784e-04
541 -9.3510881543602614e-04 2.8397403733622904e-04 1.8547429832947354e-04
542 -8.7504420769473105e-04 -4.2714208687816605e-04 2.0495994825098953e-04
543 -7.9944662495647968e-04 -8.0741214267640501e-05 5.9583190228999175e-04
544 -7.4873527605316670e-04 2.6305012134460754e-05 6.6451919521229763e-04
545 -6.5707335901868836e-04 -5.2780559579273503e-04 -5.3763857950351582e-04
546 -7.4850252868206325e-04 -4.2494333611838665e-04 -5.0660341245551603e-04
547 -7.5568682601707829e-04 -3.0077274072689289e-04 -5.8196139616317885e-04
548 -6.5940795212629164e-04 -2.7712678996162914e-04 -7.0280217890325060e-04
549 2.6361938046623679e-04 -8.1427232181054317e-04 5.1667739008352321e-04
550 5.8128944730486591e-04 6.0456934102902414e-04 5.4250569465647035e-04
551 8.7008202618986147e-04 3.6255344420075652e-04 -3.2178311100010485e-04
552 8.8729102827926176e-04 -2.4021162891710087e-04 3.8781467254861321e-04
553 1.5885565041307717e-04 -7.7352447630536347e-04 6.1610730261910628e-04
554 -4.4109441837540859e-04 -6.4743605554405984e-04 6.2453051826900181e-04
555 -3.8201858273219515e-04 -5.5906343476652123e-04 7.4067155579483500e-04
556 -8.3235667694144856e-04 -4.3181469084873486e-04 3.3642712123805370e-04
557 -6.0117639094733237e-04 -7.2099782123187636e-04 -3.3371010671685820e-04
558 -7.1961778203439469e-04 2.4924779395685802e-04 6.5003609298077509e-04
559 -6.7933083011428668e-04 -4.4562976660367796e-04 5.8331687241331375e-04
560 -5.8630174479520913e-04 -5.6342631299647131e-04 5.8378212264756097e-04
561 6.3025324741389395e-04 4.8090560513214215e-04 -6.1187479873101394e-04
562 -3.2371681936520398e-04 -6.8059389955034020e-04 -6.6099460599776730e-04
563 -4.8348453069633682e-04 5.1353626642381648e-04 7.1285023081715847e-04
564 7.2899431042432433e-04 -4.8430892036524964e-04 -4.8173317949028486e-04
565 -7.7325850659718754e-05 -2.7908539819050768e-04 9.6686042122235316e-04
566 -1.0545020493867542e-04 -4.0728621836975368e-04 9.1609757088264774e-04
567 -2.0536685346967464e-04 -3.1912680450847029e-04 9.3428827060144080e-04
568 -1.6630771894485182e-04 -6.4871339438535422e-04 7.4828227015474879e-04
569 3.9971276600628459e-04 -6.6666883790687359e-04 -6.3190421948206813e-04
570 -7.0616084962677112e-04 -1.0329698125883532e-04 7.0375922501938158e-04
571 5.3844294588922695e-04 3.1153111329936087e-04 7.8903388878797200e-04
572 4.8634368982096801e-04 -3.3685434004368699e-04 -8.1353406011547757e-04
573 1.2685293511387121e-04 -3.4269141636384873e-04 9.4021993590513297e-04
574 -7.4118657908624067e-04 1.9636057500768705e-04 -6.4326409041902735e-04
575 1.5251046458958736e-04 -4.7305640909632584e-04 -8.7616320151719237e-04
576 -4.4583850807754661e-04 -4.2555526333616791e-04 7.9463843004671630e-04
577 -3.2201234559079165e-04 3.6503035151390904e-04 -8.8117801391799451e-04
578 -2.5319201993033598e-04 2.3756111030916429e-04 -9.4659528395819208e-04
579 -3.1837371081456589e-04 1.5515136888317338e-04 -9.4368747158248792e-04
580 -4.8798616652683522e-04 1.1160007190327106e-05 -8.8037090248245617e-04
581 4.5306209499831131e-04 -5.5924952331673483e-04 7.0035273712922073e-04
582 4.7695688217847383e-04 -2.9342929277685891e-04 8.3610115954630174e-04
583 -4.4089691775823662e-04 1.3788967111352590e-04 -8.9462665485072425e-04
584 -4.0990057721235559e-04 1.9179694560593995e-04 9.0004226462803160e-04
585 -4.4910570559337934e-04 6.2222407548389311e-05 8.9957449078375618e-04
586 -3.3568335788577909e-04 -4.2156404699792300e-04 -8.4979245994369244e-04
587 2.7602795315986745e-05 9.4991916133442534e-04 2.9633651660634875e-04
588 -3.9481667683643616e-04 -7.6702715138061249e-05 -9.2413560643378066e-04
589 -2.5706350951018218e-04 -5.1565609631721215e-05 -9.7444016775376252e-04
590 -1.6188495955707987e-04 -1.2816147638442324e-04 -9.8828389190987252e-04
591 -1.6013384008442809e-04 4.2158227157557392e-04 9.0080028279713835e-04
592 -5.1560712315366626e-04 7.9142301149117658e-04 -3.1401029986472028e-04
593 -2.3412797182736903e-04 4.5170499277556157e-06 9.8173868700985743e-04
594 3.6049535909874131e-04 2.1464484396185483e-04 9.1657317657157285e-04
595 -8.0066513997148394e-04 5.6522457651141372e-04 1.6874857504211601e-04
596 4.2512086137807604e-04 -8.8255266984549417e-04 1.7890449170946922e-04
597 9.9686019343655157e-05 4.3518361668907287e-04 9.0335656858861284e-04
598 3.2585870202861509e-04 9.0001463979843123e-04 -2.7214778963178317e-04
599 1.8525275207858068e-04 -6.6980217928324845e-04 7.2439161646391693e-04
600 -5.2394875519950091e-04 -8.0969054634273392e-04 2.4810429176251884e-04
601 -8.4466028985922148e-04 4.0270803738326157e-04 -3.4023503551823027e-04
602 -8.1246723284780092e-04 3.4708349729961667e-04 -4.6256979558905885e-04
603 -7.4288018133730651e-04 -5.3600067393531534e-04 -3.9569897748318434e-04
604 -9.0735462901527127e-04 1.5306412196343345e-04 -3.8194362115959326e-04
605 -4.0496623808226775e-04 -9.0800373268494039e-04 2.8005487790992430e-05
606 -3.1153818241120976e-04 8.5293619663275879e-04 4.1123726020977089e-04
607 3.5354884704991653e-05 1.3949137275943207e-04 9.9913315602180456e-04
608 -5.6840929872679803e-05 7.7026286578678641e-04 6.3702216701593862e-04
609 -7.4906637540562450e-04 -1.7201775153377299e-04 -6.4178512932810202e-04
610 9.5092289861065842e-04 2.5964447764642139e-04 1.3923901019970982e-04
611 4.2107346017929858e-04 -8.6085667987414622e-05 -9.1166637495763189e-04
612 9.2526199506888171e-04 1.1937243216678368e-04 3.5143447497513596e-04
613 -3.7912326341531233e-04 -8.6917129579613787e-04 -3.0622874534348997e-04
614 4.5989944753101153e-05 -7.9545835890647960e-04 -6.0644412599327889e-04
615 4.6698655551673566e-04 -8.7765881541112438e-04 -4.2037294705907157e-05
616 -6.8075024501558132e-04 -6.9920754260331555e-04 -1.9857286075083464e-04
617 -9.3152476807199834e-04 -2.4768381859883299e-04 -2.4789481860767386e-04
618 -6.2006683043199168e-04 4.4612329331361432e-04 -6.4669765546139816e-04
619 1.8338087533562589e-04 -9.5192350670712670e-04 -2.3021795220819061e-04
620 -3.5679825069633818e-05 -9.3860340317247098e-04 3.3469153957491207e-04
621 3.9171139328458393e-04 -7.6357447268904604e-04 -5.1219012904464014e-04
622 -2.1880824782207698e-04 -4.3774217557078786e-04 8.7998218259648152e-04
623 7.9947324685393159e-04 -4.8232940082675561e-04 -3.4975932392175324e-04
624 9.2541886348089205e-04 1.2945467878320435e-04 -3.4706292134653865e-04
625 -4.0717439842036381e-04 6.1047409896439458e-04 6.8194085779246945e-04
626 -2.5053056276053398e-04 -5.5491330201048832e-04 7.9960074166416251e-04
627 -8.9233820594887753e-05 5.3201210259313505e-04 8.4926006548181399e-04
628 4.6732614182775056e-04 8.7623487968546720e-04 4.5251881676941719e-05
629 -9.5985840702936969e-04 4.9212194541434566e-05 2.5831121843477016e-04
630 -5.9463686189304831e-04 7.8023708444451749e-04 1.6108033597852866e-04
631 -8.3302913417933767e-04 -1.9494282882690701e-04 -5.1539704724488748e-04
632 -4.0898808876960397e-04 8.7063443006462390e-04 -2.5352187095463593e-04
633 9.2633030875790298e-04 2.4322004930833033e-04 -2.7231309297541274e-04
634 -3.1907701447375463e-04 9.9661510654169768e-05 9.5162296413862522e-04
635 3.9206338888828968e-04 -9.1278553631268106e-04 5.9100283692387161e-05
636 -6.8293180231859579e-05 -9.7243031942002324e-04 2.0296605219834654e-04
637 -4.8272552451525494e-04 -6.4917980349770901e-05 8.8119926250916625e-04
638 4.4273568896671450e-04 2.6072312171410015e-04 -8.6415268682704660e-04
639 4.3958036863220643e-04 -1.0473370767065947e-04 9.0075096936457989e-04
640 -6.5539256418179845e-05 6.6312600566380698e-04 -7.5019669975153608e-04
641 -9.5648666258438275e-04 2.1960271634033213e-04 -1.5962753148666782e-04
642 -8.7867742700848447e-04 2.8019291332961427e-04 -3.7637051856666449e-04
643 2.8197162782416744e-04 -7.2357334707106116e-04 6.3282437392660261e-04
644 5.6650093068204733e-04 -4.5437593521854201e-04 6.9168789333293027e-04
645 6.1103784087663399e-04 2.2565839785727474e-04 -7.6408774947784967e-04
646 -2.0495414157702051e-04 1.2340083725610032e-04 9.8040312488065435e-04
647 2.5037902433782125e-05 5.4476573459667993e-04 8.4546432127208682e-04
648 -7.4848487690585934e-04 5.9222365622132686e-04 2.7946709700671851e-04
649 -2.6042580420833084e-04 9.5558730850582271e-04 8.2130721599712846e-05
650 9.3167489552092137e-04 -2.3503354323224936e-04 2.6250989668272814e-04
651 -4.6925678763956694e-04 -8.5784846005392782e-04 -1.8882196393172224e-04
652 -8.7487525477006019e-04 -3.4319226299654639e-04 -3.2968752185248110e-04
653 -1.8539832644290862e-04 1.1642886980907625e-04 -9.8511269566118557e-04
654 8.5001203988029257e-04 -4.6867172265300237e-04 -2.2128555650065377e-04
655 -7.1816365422169436e-04 4.1237720146944579e-04 -5.5842745354860624e-04
656 6.5692505653548771e-04 -1.3194147836517977e-04 -7.4807693132522427e-04
657 -7.5031636360066878e-04 -5.4326523152681630e-04 3.6746706216323708e-04
658 -3.7033340106134427e-04 3.6317026526862221e-05 -9.3661503001873838e-04
659 -1.4012850262584296e-04 8.8495801644158775e-06 -1.0003311359438397e-03
660 -4.3939211243343388e-05 2.5057647514746595e-05 -1.0078399773857448e-03
661 8.4886755594425103e-04 -5.1828254198197363e-04 -1.0577350024230563e-05
662 5.3832050598684607e-05 -2.3344259244173141e-04 9.8095328513783621e-04
663 5.1675259718375176e-04 8.3266920488774530e-04 -1.6807938859977236e-04
664 -2.8037235177012435e-04 9.5183243570198534e-04 -5.2655292161307920e-05
665 -2.9445409485442193e-04 9.3142065547658812e-04 -1.8467833884073655e-04
666 -6.5546882894865994e-05 1.2202017264405885e-04 -1.0003579262188088e-03
667 2.6288499232760405e-04 -8.3111810017329440e-04 -4.8777041341436031e-04
668 -5.6742993324666641e-04 3.4365859097175892e-05 8.2932026409313780e-04
669 -8.2705601220545849e-04 -3.1349749551980643e-04 -4.6163497811578785e-04
670 -5.0181396389854934e-04 8.5286760656284259e-04 9.1757762883620068e-05
671 -9.6248154725342904e-04 1.5603205156702754e-04 1.9237435379143434e-04
672 5.5552483138200204e-04 -3.5877844795705678e-04 7.5485912443010086e-04
673 -9.1679917209433937e-06 2.3511547580068261e-04 -9.8101713914828907e-04
674 -1.9574075079868561e-04 -9.6135917386978235e-04 1.6747596579215471e-04
675 4.1245622434994293e-04 7.4483146880848557e-04 5.2089919923121617e-04
676 7.8248714439651604e-05 7.3456320194133175e-04 6.7713554815417834e-04
677 4.6898478219112836e-04 2.1782249966647687e-04 8.6352573800801567e-04
678 -4.8689976304407004e-04 -7.8804674651341666e-04 3.6806129144396313e-04
679 3.1109071439322885e-04 -7.6413136043073388e-05 -9.5659886455459948e-04
680 3.9659326798802597e-04 -6.6685526096650052e-04 6.3242933478884530e-04
681 -8.7887518722941697e-04 1.5530704177682154e-04 4.4354429928527281e-04
682 -8.9540954860740690e-04 4.2937016876226435e-04 1.6052966361388244e-05
683 -7.1083050277594056e-05 2.0375650556618901e-05 1.0064680531280837e-03
684 3.5151864170118746e-04 -9.2917864331324351e-04 -5.2793562766831848e-05
685 4.1071716534019223e-04 8.8579060793798437e-04 -1.8457977612622569e-04
686 1.6749993255976863e-04 -7.9692455694449320e-04 -5.7982447108337028e-04
687 1.8220491191283918e-04 9.6789731083849774e-04 -1.2894385181968032e-04
688 -8.1139459647082803e-04 -4.2111916251609354e-04 -3.9549339844768399e-04
689 -5.4546955089926992e-04 -6.5063626322360687e-04 5.2495223776173833e-04
690 5.8046000560507162e-04 -6.8785071325760765e-04 4.3009467519315411e-04
691 9.5804189548074465e-04 -2.2641210077468577e-04 1.4385077019594419e-04
692 -6.8670995142119180e-04 -5.3304680705326939e-04 4.8958879453457496e-04
693 9.3049270619638294e-04 2.2190292859264771e-04 2.7385587235253064e-04
694 -1.7578634849770616e-04 9.7085378387273900e-04 -1.1769832026200378e-04
695 9.0959542147150919e-04 3.4894157066776632e-04 -1.9800637320418839e-04
696 -4.2972153817052595e-05 6.6024892824722810e-04 7.5607778734797508e-04
697 -3.3133772456136421e-04 -4.7491326779007151e-04 8.2097016409344323e-04
698 9.3099725119526210e-04 3.4977303943444340e-04 1.5614683984352016e-05
699 -4.8868708003436164e-04 -5.3490970721355841e-04 6.9184481548669353e-04
700 -6.6088379119751475e-04 -6.5333626188197135e-07 7.5392963980335718e-04
701 5.6958258567759519e-04 -5.5883631550630137e-04 6.0351921154690581e-04
702 -6.8927356790640453e-04 -6.4221747824968350e-04 -3.2153050846890841e-04
703 -7.6329469156763267e-04 3.0004236218979480e-04 -5.6911548464801543e-04
704 5.1449319043387488e-05 3.4314099540055189e-04 -9.4638461324382745e-04
705 3.1210427934308665e-04 6.3863388337471821e-04 -7.0551297160411774e-04
706 -3.1565223927895449e-04 6.9614289127529040e-04 6.4503883541883634e-04
707 1.1486685250158105e-04 -9.2907464085118679e-04 -3.4020724018565319e-04
708 -6.8179430644737713e-04 7.1552560467712299e-04 9.5161481843362877e-05
709 1.0354773761614166e-05 7.4574655042599475e-04 -6.6695886878864340e-04
710 -4.0261419928798908e-04 7.8281217958138386e-04 4.6797933143168352e-04
711 -9.2894306432400868e-04 2.2421705982729747e-04 -2.7399984824495494e-04
712 7.7480769134485221e-04 1.0695755038470393e-04 6.2438145664876364e-04
713 -2.2149867687640493e-04 -7.5239411801588762e-04 -6.2091519973563134e-04
714 6.3419059205773950e-04 3.4493180791089068e-04 -6.9565857636160031e-04
715 -2.1187429649296803e-04 -9.6954608721800089e-04 5.7557124047830023e-05
716 -2.3588430575129617e-04 3.9355373259497338e-05 -9.7977446533863057e-04
717 -4.0158695966200823e-04 -9.0490707491203387e-04 -8.9597728220331709e-05
718 4.9509493661684893e-04 -2.0319673241778714e-04 8.5183861645903177e-04
719 7.2920167567386296e-04 -5.6630742749914714e-04 3.7562975782093572e-04
720 8.4360026835996642e-04 5.0224671008620558e-04 1.5321040330892126e-04
721 2.3901451434465534e-04 -1.6061925923512257e-04 -9.6609369459606860e-04
722 -5.7388477059468754e-04 -7.7869930587501390e-04 -2.3187613216715344e-04
723 4.3479036612089996e-05 7.3911416681982935e-05 -1.0056479820966719e-03
724 -1.8372814596943698e-04 7.1712011196067870e-04 6.7615915904622895e-04
725 8.7254075909366487e-04 -4.6353973608764576e-04 -1.0955526311691193e-04
726 5.7193122917170464e-04 2.1449930492548614e-04 7.9717424469172391e-04
727 7.8787405463760535e-04 5.5999260706028956e-04 2.3432801599944847e-04
728 5.4122892742416355e-04 5.9832859417451999e-04 -5.8961612505993555e-04
729 4.4535129083660829e-04 1.0353619380416761e-04 -8.9665479755376618e-04
730 7.1925837929016489e-04 6.1099493904073418e-04 3.1539711063928677e-04
731 -2.6410970053768120e-04 -6.1226984525385706e-04 -7.4799930464629718e-04
732 3.4279229952815740e-04 6.3292123414961977e-04 6.9655613739076389e-04
733 -7.3535945809378265e-05 9.7355538221149029e-04 -1.8285005078607652e-04
734 -2.3776411488282833e-04 -4.7265309892161685e-04 -8.5517359737041733e-04
735 9.5608078622925379e-04 -2.2510314033011365e-04 -1.5449140146085001e-04
736 9.6785743022473499e-04 -2.2276910571592757e-04 3.4868658973901927e-05
737 -2.4985161078201577e-05 -8.2608957872616897e-05 1.0056612772977643e-03
738 -5.0440388235856051e-04 -8.5507766794638894e-04 4.6031026277968998e-05
739 5.0037227713911191e-04 1.9713047346152466e-04 -8.4968086745909599e-04
740 -7.6318140258225533e-04 1.3567527922580562e-04 6.3175168139293953e-04
741 -1.4421661248262014e-04 3.2730870486568739e-05 9.9808186866129161e-04
742 -5.4817159391214816e-04 -7.1147017843874172e-04 4.3183730625677289e-04
743 -1.5420187361904884e-06 4.2936129946036678e-04 -9.1023649172134737e-04
744 2.9780064822873542e-04 -9.3556265189530035e-04 -1.5807176016709203e-04
745 -8.1523963388538444e-05 -6.7839439143686851e-04 -7.3255089959974485e-04
$EndNodes
$Elements
1486
1 2 2 0 0 410 440 345
2 2 2 0 0 421 541 409
3 2 2 0 0 409 682 421
4 2 2 0 0 545 603 546
5 2 2 0 0 426 427 294
6 2 2 0 0 294 454 426
7 2 2 0 0 265 682 409
8 2 2 0 0 24 41 4
9 2 2 0 0 3 24 4
10 2 2 0 0 238 642 602
11 2 2 0 0 520 651 613
12 2 2 0 0 653 666 659
13 2 2 0 0 404 460 98
14 2 2 0 0 222 482 219
15 2 2 0 0 40 463 9
16 2 2 0 0 608 724 696
17 2 2 0 0 435 709 69
18 2 2 0 0 413 439 29
19 2 2 0 0 345 710 410
20 2 2 0 0 422 463 40
21 2 2 0 0 98 550 404
22 2 2 0 0 95 724 608
23 2 2 0 0 4 41 5
24 2 2 0 0 232 701 581
25 2 2 0 0 490 698 488
26 2 2 0 0 29 436 413
27 2 2 0 0 416 421 342
28 2 2 0 0 312 595 441
29 2 2 0 0 41 486 5
30 2 2 0 0 405 605 519
31 2 2 0 0 409 595 265
32 2 2 0 0 69 481 435
33 2 2 0 0 434 743 339
34 2 2 0 0 342 641 416
35 2 2 0 0 485 656 370
36 2 2 0 0 89 587 90
37 2 2 0 0 108 466 317
38 2 2 0 0 378 629 529
39 2 2 0 0 581 680 232
40 2 2 0 0 281 434 339
41 2 2 0 0 638 739 486
42 2 2 0 0 659 666 660
43 2 2 0 0 345 440 346
44 2 2 0 0 22 44 25
45 2 2 0 0 9 463 8
46 2 2 0 0 44 81 25
47 2 2 0 0 459 587 89
48 2 2 0 0 127 670 630
49 2 2 0 0 508 662 509
50 2 2 0 0 375 662 508
51 2 2 0 0 492 598 103
52 2 2 0 0 604 642 238
53 2 2 0 0 507 510 399
54 2 2 0 0 488 698 489
55 2 2 0 0 34 473 415
56 2 2 0 0 399 639 507
57 2 2 0 0 603 688 546
58 2 2 0 0 316 541 421
59 2 2 0 0 647 696 627
60 2 2 0 0 403 439 352
61 2 2 0 0 221 603 545
62 2 2 0 0 595 648 441
63 2 2 0 0 412 550 98
64 2 2 0 0 411 714 397
65 2 2 0 0 486 739 729
66 2 2 0 0 696 724 401
67 2 2 0 0 247 482 222
68 2 2 0 0 397 714 645
69 2 2 0 0 613 651 212
70 2 2 0 0 207 745 425
71 2 2 0 0 98 675 412
72 2 2 0 0 219 482 230
73 2 2 0 0 560 692 432
74 2 2 0 0 432 689 560
75 2 2 0 0 454 575 426
76 2 2 0 0 352 439 413
77 2 2 0 0 415 420 2
78 2 2 0 0 40 464 422
79 2 2 0 0 89 512 459
80 2 2 0 0 425 614 207
81 2 2 0 0 377 600 453
82 2 2 0 0 89 90 88
83 2 2 0 0 80 466 108
84 2 2 0 0 520 717 651
85 2 2 0 0 602 703 238
86 2 2 0 0 103 687 492
87 2 2 0 0 253 491 424
88 2 2 0 0 69 709 466
89 2 2 0 0 424 512 253
90 2 2 0 0 369 696 647
91 2 2 0 0 581 701 644
92 2 2 0 0 630 670 392
93 2 2 0 0 32 656 485
94 2 2 0 0 459 512 424
95 2 2 0 0 90 91 88
96 2 2 0 0 427 478 294
97 2 2 0 0 488 695 490
98 2 2 0 0 554 699 560
99 2 2 0 0 67 80 79
100 2 2 0 0 252 454 294
101 2 2 0 0 253 628 491
102 2 2 0 0 529 681 378
103 2 2 0 0 519 715 405
104 2 2 0 0 440 441 346
105 2 2 0 0 605 717 519
106 2 2 0 0 403 452 439
107 2 2 0 0 507 639 21
108 2 2 0 0 565 567 566
109 2 2 0 0 433 454 341
110 2 2 0 0 67 466 80
111 2 2 0 0 555 697 576
112 2 2 0 0 491 628 493
113 2 2 0 0 389 641 342
114 2 2 0 0 429 619 474
115 2 2 0 0 40 501 464
116 2 2 0 0 576 699 555
117 2 2 0 0 311 600 377
118 2 2 0 0 567 622 566
119 2 2 0 0 433 575 454
120 2 2 0 0 378 671 629
121 2 2 0 0 79 540 103
122 2 2 0 0 341 473 433
123 2 2 0 0 673 704 68
124 2 2 0 0 462 710 345
125 2 2 0 0 557 722 616
126 2 2 0 0 573 662 343
127 2 2 0 0 370 656 463
128 2 2 0 0 341 454 252
129 2 2 0 0 616 702 557
130 2 2 0 0 6 26 7
131 2 2 0 0 464 501 467
132 2 2 0 0 433 473 406
133 2 2 0 0 8 45 37
134 2 2 0 0 466 709 317
135 2 2 0 0 457 461 379
136 2 2 0 0 84 512 86
137 2 2 0 0 19 452 33
138 2 2 0 0 380 614 425
139 2 2 0 0 83 540 79
140 2 2 0 0 398 510 509
141 2 2 0 0 609 631 137
142 2 2 0 0 18 442 36
143 2 2 0 0 26 45 7
144 2 2 0 0 565 566 343
145 2 2 0 0 80 83 79
146 2 2 0 0 560 689 554
147 2 2 0 0 134 137 136
148 2 2 0 0 68 469 42
149 2 2 0 0 659 716 653
150 2 2 0 0 619 707 474
151 2 2 0 0 497 610 39
152 2 2 0 0 137 138 136
153 2 2 0 0 283 573 343
154 2 2 0 0 506 644 448
155 2 2 0 0 499 735 31
156 2 2 0 0 81 97 25
157 2 2 0 0 45 46 37
158 2 2 0 0 585 668 637
159 2 2 0 0 495 735 499
160 2 2 0 0 399 510 398
161 2 2 0 0 509 573 398
162 2 2 0 0 442 443 36
163 2 2 0 0 1 607 314
164 2 2 0 0 29 612 436
165 2 2 0 0 547 631 609
166 2 2 0 0 360 595 409
167 2 2 0 0 421 682 342
168 2 2 0 0 426 575 327
169 2 2 0 0 123 577 235
170 2 2 0 0 339 743 417
171 2 2 0 0 7 45 8
172 2 2 0 0 3 723 24
173 2 2 0 0 418 666 653
174 2 2 0 0 59 60 58
175 2 2 0 0 620 636 193
176 2 2 0 0 42 469 47
177 2 2 0 0 65 67 66
178 2 2 0 0 509 662 573
179 2 2 0 0 470 482 247
180 2 2 0 0 368 476 472
181 2 2 0 0 530 740 337
182 2 2 0 0 253 512 84
183 2 2 0 0 455 698 282
184 2 2 0 0 61 65 62
185 2 2 0 0 59 61 60
186 2 2 0 0 91 472 88
187 2 2 0 0 90 92 91
188 2 2 0 0 19 442 18
189 2 2 0 0 464 465 423
190 2 2 0 0 706 724 118
191 2 2 0 0 456 611 32
192 2 2 0 0 379 477 61
193 2 2 0 0 417 743 704
194 2 2 0 0 314 683 1
195 2 2 0 0 442 458 443
196 2 2 0 0 11 28 12
197 2 2 0 0 61 62 60
198 2 2 0 0 118 724 95
199 2 2 0 0 22 25 23
200 2 2 0 0 247 483 470
201 2 2 0 0 281 640 434
202 2 2 0 0 197 667 474
203 2 2 0 0 86 512 89
204 2 2 0 0 417 704 673
205 2 2 0 0 451 690 230
206 2 2 0 0 27 442 19
207 2 2 0 0 637 668 229
208 2 2 0 0 60 475 58
209 2 2 0 0 489 610 497
210 2 2 0 0 307 573 283
211 2 2 0 0 61 477 65
212 2 2 0 0 65 66 62
213 2 2 0 0 544 740 530
214 2 2 0 0 230 719 451
215 2 2 0 0 18 452 19
216 2 2 0 0 268 569 269
217 2 2 0 0 32 485 456
218 2 2 0 0 627 696 401
219 2 2 0 0 24 42 41
220 2 2 0 0 20 27 19
221 2 2 0 0 330 461 457
222 2 2 0 0 506 672 644
223 2 2 0 0 472 476 87
224 2 2 0 0 468 495 494
225 2 2 0 0 88 472 87
226 2 2 0 0 121 577 123
227 2 2 0 0 327 575 276
228 2 2 0 0 422 464 423
229 2 2 0 0 47 63 49
230 2 2 0 0 458 506 443
231 2 2 0 0 232 690 451
232 2 2 0 0 28 487 12
233 2 2 0 0 80 107 83
234 2 2 0 0 608 696 676
235 2 2 0 0 356 481 355
236 2 2 0 0 138 238 136
237 2 2 0 0 137 139 138
238 2 2 0 0 729 739 26
239 2 2 0 0 81 99 97
240 2 2 0 0 46 50 37
241 2 2 0 0 463 656 8
242 2 2 0 0 443 444 36
243 2 2 0 0 68 704 469
244 2 2 0 0 24 68 42
245 2 2 0 0 16 503 30
246 2 2 0 0 65 69 67
247 2 2 0 0 67 79 66
248 2 2 0 0 676 696 369
249 2 2 0 0 59 379 61
250 2 2 0 0 90 93 92
251 2 2 0 0 464 467 465
252 2 2 0 0 441 708 312
253 2 2 0 0 483 484 471
254 2 2 0 0 427 479 478
255 2 2 0 0 245 564 244
256 2 2 0 0 470 483 471
257 2 2 0 0 473 721 406
258 2 2 0 0 555 699 554
259 2 2 0 0 47 469 63
260 2 2 0 0 63 355 49
261 2 2 0 0 62 64 60
262 2 2 0 0 80 108 107
263 2 2 0 0 107 539 83
264 2 2 0 0 139 140 138
265 2 2 0 0 99 100 97
266 2 2 0 0 81 236 99
267 2 2 0 0 46 51 50
268 2 2 0 0 443 445 444
269 2 2 0 0 24 419 68
270 2 2 0 0 69 466 67
271 2 2 0 0 79 103 66
272 2 2 0 0 65 477 69
273 2 2 0 0 547 548 321
274 2 2 0 0 93 94 92
275 2 2 0 0 467 468 465
276 2 2 0 0 333 664 649
277 2 2 0 0 55 498 56
278 2 2 0 0 56 498 72
279 2 2 0 0 12 499 31
280 2 2 0 0 63 356 355
281 2 2 0 0 108 110 107
282 2 2 0 0 139 141 140
283 2 2 0 0 100 101 97
284 2 2 0 0 236 248 99
285 2 2 0 0 81 594 236
286 2 2 0 0 51 52 50
287 2 2 0 0 192 515 195
288 2 2 0 0 445 446 444
289 2 2 0 0 477 481 69
290 2 2 0 0 94 95 92
291 2 2 0 0 93 96 94
292 2 2 0 0 63 408 356
293 2 2 0 0 108 111 110
294 2 2 0 0 110 117 107
295 2 2 0 0 139 154 141
296 2 2 0 0 141 142 140
297 2 2 0 0 51 53 52
298 2 2 0 0 100 102 101
299 2 2 0 0 236 250 248
300 2 2 0 0 445 447 446
301 2 2 0 0 52 388 50
302 2 2 0 0 277 622 567
303 2 2 0 0 95 608 92
304 2 2 0 0 94 118 95
305 2 2 0 0 93 104 96
306 2 2 0 0 51 561 53
307 2 2 0 0 408 434 356
308 2 2 0 0 53 54 52
309 2 2 0 0 445 448 447
310 2 2 0 0 108 317 111
311 2 2 0 0 141 143 142
312 2 2 0 0 142 225 140
313 2 2 0 0 102 166 101
314 2 2 0 0 250 325 248
315 2 2 0 0 100 258 102
316 2 2 0 0 53 55 54
317 2 2 0 0 447 449 446
318 2 2 0 0 236 505 250
319 2 2 0 0 104 105 96
320 2 2 0 0 53 57 55
321 2 2 0 0 55 56 54
322 2 2 0 0 448 451 447
323 2 2 0 0 14 39 15
324 2 2 0 0 317 511 111
325 2 2 0 0 10 40 9
326 2 2 0 0 143 144 142
327 2 2 0 0 57 58 55
328 2 2 0 0 8 37 9
329 2 2 0 0 14 38 13
330 2 2 0 0 166 314 101
331 2 2 0 0 18 36 17
332 2 2 0 0 16 29 17
333 2 2 0 0 33 504 20
334 2 2 0 0 325 365 248
335 2 2 0 0 199 202 196
336 2 2 0 0 7 32 6
337 2 2 0 0 434 435 356
338 2 2 0 0 74 75 73
339 2 2 0 0 223 239 234
340 2 2 0 0 74 76 75
341 2 2 0 0 72 74 73
342 2 2 0 0 231 549 201
343 2 2 0 0 202 205 204
344 2 2 0 0 226 227 214
345 2 2 0 0 272 275 271
346 2 2 0 0 276 318 275
347 2 2 0 0 213 214 209
348 2 2 0 0 76 77 75
349 2 2 0 0 210 231 201
350 2 2 0 0 16 30 15
351 2 2 0 0 205 209 208
352 2 2 0 0 202 204 196
353 2 2 0 0 318 406 340
354 2 2 0 0 195 196 193
355 2 2 0 0 322 420 415
356 2 2 0 0 239 240 234
357 2 2 0 0 163 588 168
358 2 2 0 0 12 31 11
359 2 2 0 0 56 72 71
360 2 2 0 0 425 426 327
361 2 2 0 0 19 33 20
362 2 2 0 0 168 224 215
363 2 2 0 0 209 568 216
364 2 2 0 0 318 433 406
365 2 2 0 0 269 271 270
366 2 2 0 0 268 269 245
367 2 2 0 0 21 639 20
368 2 2 0 0 84 85 82
369 2 2 0 0 181 207 183
370 2 2 0 0 269 272 271
371 2 2 0 0 272 276 275
372 2 2 0 0 242 243 240
373 2 2 0 0 102 167 166
374 2 2 0 0 223 234 233
375 2 2 0 0 283 343 227
376 2 2 0 0 205 208 204
377 2 2 0 0 213 226 214
378 2 2 0 0 271 572 347
379 2 2 0 0 243 268 245
380 2 2 0 0 335 398 307
381 2 2 0 0 303 555 554
382 2 2 0 0 226 283 227
383 2 2 0 0 347 485 370
384 2 2 0 0 195 199 196
385 2 2 0 0 205 213 209
386 2 2 0 0 246 322 252
387 2 2 0 0 76 78 77
388 2 2 0 0 133 163 135
389 2 2 0 0 163 168 164
390 2 2 0 0 322 415 341
391 2 2 0 0 227 361 214
392 2 2 0 0 191 198 189
393 2 2 0 0 78 84 82
394 2 2 0 0 209 216 208
395 2 2 0 0 78 82 77
396 2 2 0 0 216 303 266
397 2 2 0 0 417 418 362
398 2 2 0 0 314 607 101
399 2 2 0 0 339 362 280
400 2 2 0 0 243 245 244
401 2 2 0 0 187 291 185
402 2 2 0 0 429 430 359
403 2 2 0 0 143 145 144
404 2 2 0 0 202 553 205
405 2 2 0 0 339 417 362
406 2 2 0 0 131 580 133
407 2 2 0 0 239 242 240
408 2 2 0 0 57 59 58
409 2 2 0 0 224 246 215
410 2 2 0 0 84 86 85
411 2 2 0 0 303 554 266
412 2 2 0 0 72 73 71
413 2 2 0 0 437 438 414
414 2 2 0 0 318 340 275
415 2 2 0 0 269 270 245
416 2 2 0 0 86 87 85
417 2 2 0 0 192 193 191
418 2 2 0 0 123 235 129
419 2 2 0 0 263 374 262
420 2 2 0 0 425 427 426
421 2 2 0 0 149 150 147
422 2 2 0 0 210 232 231
423 2 2 0 0 74 373 76
424 2 2 0 0 168 215 169
425 2 2 0 0 259 262 249
426 2 2 0 0 145 146 144
427 2 2 0 0 367 524 289
428 2 2 0 0 271 347 270
429 2 2 0 0 406 407 340
430 2 2 0 0 334 459 424
431 2 2 0 0 429 474 430
432 2 2 0 0 250 328 325
433 2 2 0 0 431 432 367
434 2 2 0 0 104 278 105
435 2 2 0 0 145 147 146
436 2 2 0 0 151 152 150
437 2 2 0 0 235 583 129
438 2 2 0 0 237 249 228
439 2 2 0 0 149 151 150
440 2 2 0 0 159 161 158
441 2 2 0 0 153 155 152
442 2 2 0 0 156 158 155
443 2 2 0 0 354 367 289
444 2 2 0 0 259 263 262
445 2 2 0 0 190 191 189
446 2 2 0 0 177 221 174
447 2 2 0 0 162 228 161
448 2 2 0 0 124 516 386
449 2 2 0 0 418 653 578
450 2 2 0 0 371 584 295
451 2 2 0 0 151 153 152
452 2 2 0 0 153 156 155
453 2 2 0 0 159 162 161
454 2 2 0 0 374 593 262
455 2 2 0 0 156 159 158
456 2 2 0 0 237 259 249
457 2 2 0 0 146 284 160
458 2 2 0 0 266 309 267
459 2 2 0 0 264 265 257
460 2 2 0 0 86 88 87
461 2 2 0 0 265 312 257
462 2 2 0 0 162 237 228
463 2 2 0 0 21 44 22
464 2 2 0 0 324 392 390
465 2 2 0 0 371 585 584
466 2 2 0 0 262 366 249
467 2 2 0 0 192 195 193
468 2 2 0 0 263 375 374
469 2 2 0 0 216 266 217
470 2 2 0 0 326 327 276
471 2 2 0 0 260 646 166
472 2 2 0 0 220 223 222
473 2 2 0 0 322 341 252
474 2 2 0 0 256 257 255
475 2 2 0 0 78 253 84
476 2 2 0 0 358 359 242
477 2 2 0 0 188 189 187
478 2 2 0 0 281 339 280
479 2 2 0 0 146 160 144
480 2 2 0 0 123 129 128
481 2 2 0 0 255 324 254
482 2 2 0 0 228 229 161
483 2 2 0 0 354 431 367
484 2 2 0 0 163 164 135
485 2 2 0 0 155 157 152
486 2 2 0 0 243 244 240
487 2 2 0 0 256 264 257
488 2 2 0 0 284 316 160
489 2 2 0 0 380 425 327
490 2 2 0 0 148 149 147
491 2 2 0 0 335 399 398
492 2 2 0 0 418 578 362
493 2 2 0 0 334 424 396
494 2 2 0 0 167 260 166
495 2 2 0 0 325 368 365
496 2 2 0 0 428 429 359
497 2 2 0 0 165 255 254
498 2 2 0 0 297 342 264
499 2 2 0 0 298 371 295
500 2 2 0 0 218 323 220
501 2 2 0 0 310 337 302
502 2 2 0 0 165 256 255
503 2 2 0 0 186 187 185
504 2 2 0 0 56 71 70
505 2 2 0 0 165 254 125
506 2 2 0 0 200 201 199
507 2 2 0 0 148 206 149
508 2 2 0 0 324 390 364
509 2 2 0 0 190 192 191
510 2 2 0 0 368 369 365
511 2 2 0 0 353 404 351
512 2 2 0 0 104 331 278
513 2 2 0 0 256 297 264
514 2 2 0 0 316 421 416
515 2 2 0 0 239 358 242
516 2 2 0 0 169 586 171
517 2 2 0 0 286 287 206
518 2 2 0 0 324 364 254
519 2 2 0 0 241 576 162
520 2 2 0 0 168 169 164
521 2 2 0 0 121 123 122
522 2 2 0 0 266 267 217
523 2 2 0 0 129 131 130
524 2 2 0 0 216 217 208
525 2 2 0 0 285 382 313
526 2 2 0 0 172 321 170
527 2 2 0 0 390 391 364
528 2 2 0 0 296 563 300
529 2 2 0 0 246 252 251
530 2 2 0 0 285 286 206
531 2 2 0 0 288 289 287
532 2 2 0 0 298 372 371
533 2 2 0 0 23 35 22
534 2 2 0 0 300 344 304
535 2 2 0 0 344 462 345
536 2 2 0 0 123 128 122
537 2 2 0 0 297 389 342
538 2 2 0 0 237 277 259
539 2 2 0 0 148 285 206
540 2 2 0 0 86 89 88
541 2 2 0 0 306 307 283
542 2 2 0 0 234 279 233
543 2 2 0 0 316 416 160
544 2 2 0 0 188 190 189
545 2 2 0 0 85 98 82
546 2 2 0 0 358 428 359
547 2 2 0 0 437 455 438
548 2 2 0 0 203 210 201
549 2 2 0 0 382 383 313
550 2 2 0 0 153 176 156
551 2 2 0 0 290 354 289
552 2 2 0 0 159 241 162
553 2 2 0 0 386 387 126
554 2 2 0 0 273 363 338
555 2 2 0 0 272 326 276
556 2 2 0 0 171 293 173
557 2 2 0 0 145 148 147
558 2 2 0 0 274 295 261
559 2 2 0 0 285 313 286
560 2 2 0 0 383 384 313
561 2 2 0 0 301 302 299
562 2 2 0 0 131 133 132
563 2 2 0 0 296 298 295
564 2 2 0 0 305 310 302
565 2 2 0 0 349 412 328
566 2 2 0 0 344 345 304
567 2 2 0 0 77 119 75
568 2 2 0 0 315 378 310
569 2 2 0 0 363 401 400
570 2 2 0 0 332 333 278
571 2 2 0 0 223 233 222
572 2 2 0 0 331 334 332
573 2 2 0 0 186 188 187
574 2 2 0 0 178 212 177
575 2 2 0 0 305 360 315
576 2 2 0 0 334 396 395
577 2 2 0 0 246 251 215
578 2 2 0 0 167 261 260
579 2 2 0 0 175 179 178
580 2 2 0 0 345 346 304
581 2 2 0 0 124 386 126
582 2 2 0 0 286 288 287
583 2 2 0 0 331 332 278
584 2 2 0 0 179 181 180
585 2 2 0 0 301 305 302
586 2 2 0 0 300 304 301
587 2 2 0 0 296 300 299
588 2 2 0 0 305 315 310
589 2 2 0 0 296 299 298
590 2 2 0 0 320 453 290
591 2 2 0 0 274 296 295
592 2 2 0 0 313 531 286
593 2 2 0 0 120 281 280
594 2 2 0 0 360 409 315
595 2 2 0 0 363 400 338
596 2 2 0 0 129 130 128
597 2 2 0 0 300 301 299
598 2 2 0 0 1 508 23
599 2 2 0 0 167 273 261
600 2 2 0 0 133 135 134
601 2 2 0 0 173 174 172
602 2 2 0 0 311 377 376
603 2 2 0 0 273 274 261
604 2 2 0 0 273 338 274
605 2 2 0 0 334 395 332
606 2 2 0 0 183 197 184
607 2 2 0 0 319 393 320
608 2 2 0 0 449 450 446
609 2 2 0 0 288 290 289
610 2 2 0 0 226 306 283
611 2 2 0 0 326 380 327
612 2 2 0 0 175 177 174
613 2 2 0 0 181 183 182
614 2 2 0 0 219 230 211
615 2 2 0 0 308 335 307
616 2 2 0 0 267 311 292
617 2 2 0 0 169 170 164
618 2 2 0 0 288 319 290
619 2 2 0 0 126 165 125
620 2 2 0 0 120 280 121
621 2 2 0 0 130 357 128
622 2 2 0 0 195 200 199
623 2 2 0 0 169 171 170
624 2 2 0 0 171 172 170
625 2 2 0 0 184 186 185
626 2 2 0 0 73 282 71
627 2 2 0 0 252 294 251
628 2 2 0 0 319 320 290
629 2 2 0 0 131 132 130
630 2 2 0 0 393 394 320
631 2 2 0 0 171 173 172
632 2 2 0 0 4 34 3
633 2 2 0 0 218 220 219
634 2 2 0 0 267 292 217
635 2 2 0 0 184 185 182
636 2 2 0 0 188 194 190
637 2 2 0 0 56 70 54
638 2 2 0 0 377 405 376
639 2 2 0 0 449 470 450
640 2 2 0 0 179 180 178
641 2 2 0 0 173 175 174
642 2 2 0 0 175 178 177
643 2 2 0 0 250 329 328
644 2 2 0 0 311 376 292
645 2 2 0 0 329 571 350
646 2 2 0 0 347 370 348
647 2 2 0 0 220 222 219
648 2 2 0 0 376 385 292
649 2 2 0 0 133 134 132
650 2 2 0 0 134 136 132
651 2 2 0 0 306 308 307
652 2 2 0 0 200 203 201
653 2 2 0 0 233 247 222
654 2 2 0 0 98 460 82
655 2 2 0 0 329 349 328
656 2 2 0 0 326 381 380
657 2 2 0 0 347 348 270
658 2 2 0 0 181 182 180
659 2 2 0 0 121 122 115
660 2 2 0 0 350 351 349
661 2 2 0 0 308 336 335
662 2 2 0 0 350 403 352
663 2 2 0 0 470 471 450
664 2 2 0 0 203 211 210
665 2 2 0 0 218 219 211
666 2 2 0 0 183 184 182
667 2 2 0 0 370 463 422
668 2 2 0 0 306 402 308
669 2 2 0 0 203 218 211
670 2 2 0 0 71 490 70
671 2 2 0 0 329 350 349
672 2 2 0 0 436 437 414
673 2 2 0 0 124 126 125
674 2 2 0 0 413 414 353
675 2 2 0 0 422 423 348
676 2 2 0 0 352 353 351
677 2 2 0 0 370 422 348
678 2 2 0 0 350 352 351
679 2 2 0 0 413 436 414
680 2 2 0 0 352 413 353
681 2 2 0 0 120 121 115
682 2 2 0 0 110 480 117
683 2 2 0 0 124 125 116
684 2 2 0 0 126 521 165
685 2 2 0 0 113 120 115
686 2 2 0 0 127 440 410
687 2 2 0 0 114 124 116
688 2 2 0 0 543 544 530
689 2 2 0 0 488 489 487
690 2 2 0 0 585 637 366
691 2 2 0 0 543 570 544
692 2 2 0 0 113 115 114
693 2 2 0 0 127 410 106
694 2 2 0 0 114 116 112
695 2 2 0 0 195 515 200
696 2 2 0 0 491 493 492
697 2 2 0 0 12 487 13
698 2 2 0 0 546 547 321
699 2 2 0 0 330 457 411
700 2 2 0 0 157 543 530
701 2 2 0 0 519 520 291
702 2 2 0 0 28 488 487
703 2 2 0 0 111 112 110
704 2 2 0 0 312 534 257
705 2 2 0 0 476 732 412
706 2 2 0 0 27 458 442
707 2 2 0 0 385 636 620
708 2 2 0 0 176 559 156
709 2 2 0 0 593 634 366
710 2 2 0 0 589 590 224
711 2 2 0 0 113 114 112
712 2 2 0 0 109 127 106
713 2 2 0 0 270 564 245
714 2 2 0 0 443 506 445
715 2 2 0 0 491 492 396
716 2 2 0 0 388 624 502
717 2 2 0 0 445 506 448
718 2 2 0 0 30 500 15
719 2 2 0 0 20 504 21
720 2 2 0 0 64 475 60
721 2 2 0 0 287 542 206
722 2 2 0 0 23 508 35
723 2 2 0 0 302 558 299
724 2 2 0 0 70 551 54
725 2 2 0 0 62 598 64
726 2 2 0 0 424 491 396
727 2 2 0 0 407 456 340
728 2 2 0 0 545 546 321
729 2 2 0 0 330 411 397
730 2 2 0 0 72 536 74
731 2 2 0 0 238 574 136
732 2 2 0 0 659 660 420
733 2 2 0 0 395 538 332
734 2 2 0 0 143 527 145
735 2 2 0 0 412 675 476
736 2 2 0 0 239 513 358
737 2 2 0 0 157 530 529
738 2 2 0 0 518 519 291
739 2 2 0 0 449 482 470
740 2 2 0 0 207 713 479
741 2 2 0 0 119 523 75
742 2 2 0 0 109 670 127
743 2 2 0 0 10 501 40
744 2 2 0 0 508 509 35
745 2 2 0 0 96 606 94
746 2 2 0 0 331 459 334
747 2 2 0 0 286 531 288
748 2 2 0 0 290 453 354
749 2 2 0 0 282 490 71
750 2 2 0 0 384 531 313
751 2 2 0 0 289 524 287
752 2 2 0 0 349 550 412
753 2 2 0 0 165 521 256
754 2 2 0 0 82 460 77
755 2 2 0 0 155 543 157
756 2 2 0 0 201 549 199
757 2 2 0 0 273 591 363
758 2 2 0 0 387 521 126
759 2 2 0 0 114 516 124
760 2 2 0 0 53 561 57
761 2 2 0 0 266 554 309
762 2 2 0 0 257 534 255
763 2 2 0 0 205 553 213
764 2 2 0 0 142 522 225
765 2 2 0 0 435 481 356
766 2 2 0 0 216 568 303
767 2 2 0 0 300 563 344
768 2 2 0 0 214 568 209
769 2 2 0 0 112 480 110
770 2 2 0 0 350 571 403
771 2 2 0 0 347 572 485
772 2 2 0 0 275 572 271
773 2 2 0 0 274 563 296
774 2 2 0 0 171 586 293
775 2 2 0 0 162 576 237
776 2 2 0 0 133 580 163
777 2 2 0 0 11 501 10
778 2 2 0 0 295 584 261
779 2 2 0 0 129 583 131
780 2 2 0 0 215 586 169
781 2 2 0 0 250 505 329
782 2 2 0 0 168 588 224
783 2 2 0 0 321 548 170
784 2 2 0 0 262 593 366
785 2 2 0 0 166 646 314
786 2 2 0 0 520 535 291
787 2 2 0 0 373 663 493
788 2 2 0 0 291 535 185
789 2 2 0 0 101 607 97
790 2 2 0 0 130 574 357
791 2 2 0 0 158 570 543
792 2 2 0 0 31 501 11
793 2 2 0 0 444 552 503
794 2 2 0 0 156 559 159
795 2 2 0 0 236 594 505
796 2 2 0 0 206 542 149
797 2 2 0 0 54 551 52
798 2 2 0 0 74 536 373
799 2 2 0 0 337 558 302
800 2 2 0 0 150 532 147
801 2 2 0 0 379 728 457
802 2 2 0 0 299 558 298
803 2 2 0 0 332 538 333
804 2 2 0 0 145 527 148
805 2 2 0 0 514 515 192
806 2 2 0 0 15 500 14
807 2 2 0 0 75 523 73
808 2 2 0 0 467 501 31
809 2 2 0 0 254 592 125
810 2 2 0 0 172 545 321
811 2 2 0 0 144 522 142
812 2 2 0 0 528 532 150
813 2 2 0 0 187 518 291
814 2 2 0 0 553 599 213
815 2 2 0 0 383 603 384
816 2 2 0 0 282 698 490
817 2 2 0 0 244 517 240
818 2 2 0 0 353 525 404
819 2 2 0 0 395 540 538
820 2 2 0 0 94 606 118
821 2 2 0 0 117 539 107
822 2 2 0 0 185 535 182
823 2 2 0 0 388 502 50
824 2 2 0 0 167 591 273
825 2 2 0 0 147 532 146
826 2 2 0 0 92 608 91
827 2 2 0 0 472 676 368
828 2 2 0 0 364 592 254
829 2 2 0 0 21 504 44
830 2 2 0 0 365 597 248
831 2 2 0 0 125 592 116
832 2 2 0 0 588 589 224
833 2 2 0 0 111 113 112
834 2 2 0 0 63 469 408
835 2 2 0 0 105 109 106
836 2 2 0 0 242 526 243
837 2 2 0 0 439 712 29
838 2 2 0 0 240 517 234
839 2 2 0 0 346 533 304
840 2 2 0 0 14 500 38
841 2 2 0 0 494 495 484
842 2 2 0 0 127 630 440
843 2 2 0 0 208 537 204
844 2 2 0 0 175 562 179
845 2 2 0 0 303 626 555
846 2 2 0 0 359 526 242
847 2 2 0 0 243 526 268
848 2 2 0 0 217 537 208
849 2 2 0 0 58 498 55
850 2 2 0 0 503 552 30
851 2 2 0 0 13 499 12
852 2 2 0 0 268 621 569
853 2 2 0 0 489 497 487
854 2 2 0 0 475 498 58
855 2 2 0 0 430 526 359
856 2 2 0 0 248 597 99
857 2 2 0 0 292 537 217
858 2 2 0 0 26 645 45
859 2 2 0 0 234 517 279
860 2 2 0 0 14 497 39
861 2 2 0 0 385 537 292
862 2 2 0 0 305 533 360
863 2 2 0 0 304 533 301
864 2 2 0 0 146 532 284
865 2 2 0 0 483 494 484
866 2 2 0 0 173 562 175
867 2 2 0 0 116 480 112
868 2 2 0 0 224 590 246
869 2 2 0 0 189 518 187
870 2 2 0 0 498 536 72
871 2 2 0 0 414 525 353
872 2 2 0 0 160 522 144
873 2 2 0 0 547 609 548
874 2 2 0 0 182 535 180
875 2 2 0 0 297 601 389
876 2 2 0 0 44 594 81
877 2 2 0 0 301 533 305
878 2 2 0 0 105 106 96
879 2 2 0 0 515 596 200
880 2 2 0 0 293 562 173
881 2 2 0 0 73 523 282
882 2 2 0 0 148 527 285
883 2 2 0 0 174 545 172
884 2 2 0 0 218 596 323
885 2 2 0 0 200 596 203
886 2 2 0 0 149 542 151
887 2 2 0 0 446 552 444
888 2 2 0 0 49 461 330
889 2 2 0 0 330 397 48
890 2 2 0 0 453 738 377
891 2 2 0 0 255 534 324
892 2 2 0 0 52 551 388
893 2 2 0 0 634 646 260
894 2 2 0 0 513 615 358
895 2 2 0 0 438 525 414
896 2 2 0 0 516 618 386
897 2 2 0 0 198 518 189
898 2 2 0 0 227 566 361
899 2 2 0 0 559 560 241
900 2 2 0 0 90 587 93
901 2 2 0 0 416 522 160
902 2 2 0 0 102 591 167
903 2 2 0 0 134 609 137
904 2 2 0 0 298 558 372
905 2 2 0 0 132 574 130
906 2 2 0 0 106 606 96
907 2 2 0 0 159 559 241
908 2 2 0 0 32 611 6
909 2 2 0 0 158 543 155
910 2 2 0 0 223 513 239
911 2 2 0 0 288 531 319
912 2 2 0 0 323 513 220
913 2 2 0 0 115 516 114
914 2 2 0 0 521 601 297
915 2 2 0 0 610 698 455
916 2 2 0 0 354 600 431
917 2 2 0 0 351 550 349
918 2 2 0 0 256 521 297
919 2 2 0 0 140 604 138
920 2 2 0 0 77 460 119
921 2 2 0 0 17 503 16
922 2 2 0 0 9 502 10
923 2 2 0 0 104 587 331
924 2 2 0 0 152 528 150
925 2 2 0 0 315 541 378
926 2 2 0 0 170 548 164
927 2 2 0 0 590 659 420
928 2 2 0 0 11 624 28
929 2 2 0 0 199 549 202
930 2 2 0 0 502 624 10
931 2 2 0 0 453 600 354
932 2 2 0 0 42 43 41
933 2 2 0 0 38 499 13
934 2 2 0 0 285 527 382
935 2 2 0 0 190 514 192
936 2 2 0 0 157 529 528
937 2 2 0 0 231 643 549
938 2 2 0 0 331 587 459
939 2 2 0 0 451 701 232
940 2 2 0 0 99 597 100
941 2 2 0 0 361 568 214
942 2 2 0 0 372 740 544
943 2 2 0 0 221 545 174
944 2 2 0 0 138 604 238
945 2 2 0 0 340 572 275
946 2 2 0 0 338 563 274
947 2 2 0 0 524 542 287
948 2 2 0 0 265 595 312
949 2 2 0 0 111 511 113
950 2 2 0 0 580 658 588
951 2 2 0 0 580 588 163
952 2 2 0 0 237 576 277
953 2 2 0 0 444 503 36
954 2 2 0 0 131 583 580
955 2 2 0 0 505 571 329
956 2 2 0 0 203 596 218
957 2 2 0 0 584 634 260
958 2 2 0 0 261 584 260
959 2 2 0 0 369 647 365
960 2 2 0 0 251 586 215
961 2 2 0 0 348 564 270
962 2 2 0 0 450 552 446
963 2 2 0 0 390 496 391
964 2 2 0 0 66 598 62
965 2 2 0 0 465 623 423
966 2 2 0 0 258 591 102
967 2 2 0 0 343 566 227
968 2 2 0 0 564 623 244
969 2 2 0 0 154 617 141
970 2 2 0 0 324 534 392
971 2 2 0 0 50 502 37
972 2 2 0 0 524 556 542
973 2 2 0 0 544 700 372
974 2 2 0 0 122 516 115
975 2 2 0 0 177 557 221
976 2 2 0 0 489 698 610
977 2 2 0 0 93 587 104
978 2 2 0 0 136 574 132
979 2 2 0 0 593 646 634
980 2 2 0 0 116 592 480
981 2 2 0 0 143 617 527
982 2 2 0 0 225 604 140
983 2 2 0 0 137 631 139
984 2 2 0 0 549 553 202
985 2 2 0 0 164 548 135
986 2 2 0 0 404 550 351
987 2 2 0 0 34 721 473
988 2 2 0 0 220 513 223
989 2 2 0 0 317 640 511
990 2 2 0 0 100 597 258
991 2 2 0 0 588 658 589
992 2 2 0 0 323 615 513
993 2 2 0 0 568 626 303
994 2 2 0 0 377 605 405
995 2 2 0 0 178 613 212
996 2 2 0 0 493 628 373
997 2 2 0 0 157 528 152
998 2 2 0 0 591 627 363
999 2 2 0 0 409 541 315
1000 2 2 0 0 183 614 197
1001 2 2 0 0 103 598 66
1002 2 2 0 0 188 619 194
1003 2 2 0 0 213 599 226
1004 2 2 0 0 306 599 402
1005 2 2 0 0 97 607 25
1006 2 2 0 0 194 514 190
1007 2 2 0 0 373 628 76
1008 2 2 0 0 78 628 253
1009 2 2 0 0 42 47 43
1010 2 2 0 0 39 612 15
1011 2 2 0 0 16 612 29
1012 2 2 0 0 437 610 455
1013 2 2 0 0 487 497 13
1014 2 2 0 0 440 630 441
1015 2 2 0 0 479 713 562
1016 2 2 0 0 196 620 193
1017 2 2 0 0 456 572 340
1018 2 2 0 0 120 511 281
1019 2 2 0 0 577 578 235
1020 2 2 0 0 335 582 399
1021 2 2 0 0 314 741 683
1022 2 2 0 0 520 613 535
1023 2 2 0 0 585 634 584
1024 2 2 0 0 423 564 348
1025 2 2 0 0 457 561 411
1026 2 2 0 0 6 611 5
1027 2 2 0 0 385 620 537
1028 2 2 0 0 228 637 229
1029 2 2 0 0 366 637 249
1030 2 2 0 0 161 570 158
1031 2 2 0 0 434 640 435
1032 2 2 0 0 193 636 191
1033 2 2 0 0 410 606 106
1034 2 2 0 0 37 502 9
1035 2 2 0 0 36 503 17
1036 2 2 0 0 141 617 143
1037 2 2 0 0 363 627 401
1038 2 2 0 0 322 590 420
1039 2 2 0 0 357 618 128
1040 2 2 0 0 430 621 526
1041 2 2 0 0 540 687 103
1042 2 2 0 0 280 577 121
1043 2 2 0 0 276 575 318
1044 2 2 0 0 362 578 577
1045 2 2 0 0 109 649 496
1046 2 2 0 0 246 590 322
1047 2 2 0 0 326 569 381
1048 2 2 0 0 569 621 381
1049 2 2 0 0 269 569 272
1050 2 2 0 0 139 631 154
1051 2 2 0 0 649 664 496
1052 2 2 0 0 537 620 204
1053 2 2 0 0 355 461 49
1054 2 2 0 0 663 685 493
1055 2 2 0 0 479 745 207
1056 2 2 0 0 343 662 565
1057 2 2 0 0 212 557 177
1058 2 2 0 0 45 645 46
1059 2 2 0 0 496 670 109
1060 2 2 0 0 366 634 585
1061 2 2 0 0 384 616 531
1062 2 2 0 0 535 613 180
1063 2 2 0 0 391 632 364
1064 2 2 0 0 308 581 336
1065 2 2 0 0 344 625 462
1066 2 2 0 0 563 625 344
1067 2 2 0 0 13 497 14
1068 2 2 0 0 480 632 117
1069 2 2 0 0 371 668 585
1070 2 2 0 0 333 649 278
1071 2 2 0 0 387 601 521
1072 2 2 0 0 47 49 48
1073 2 2 0 0 358 615 428
1074 2 2 0 0 113 511 120
1075 2 2 0 0 527 617 382
1076 2 2 0 0 105 649 109
1077 2 2 0 0 398 573 307
1078 2 2 0 0 368 676 369
1079 2 2 0 0 180 613 178
1080 2 2 0 0 153 556 176
1081 2 2 0 0 432 657 367
1082 2 2 0 0 458 718 582
1083 2 2 0 0 207 614 183
1084 2 2 0 0 407 611 456
1085 2 2 0 0 244 623 517
1086 2 2 0 0 20 639 27
1087 2 2 0 0 476 675 87
1088 2 2 0 0 319 616 393
1089 2 2 0 0 474 707 197
1090 2 2 0 0 226 599 306
1091 2 2 0 0 47 48 43
1092 2 2 0 0 186 619 188
1093 2 2 0 0 412 732 328
1094 2 2 0 0 316 671 541
1095 2 2 0 0 293 734 478
1096 2 2 0 0 492 685 598
1097 2 2 0 0 528 629 532
1098 2 2 0 0 514 635 515
1099 2 2 0 0 531 616 319
1100 2 2 0 0 8 656 7
1101 2 2 0 0 387 602 601
1102 2 2 0 0 76 628 78
1103 2 2 0 0 122 618 516
1104 2 2 0 0 651 717 394
1105 2 2 0 0 423 623 564
1106 2 2 0 0 546 669 547
1107 2 2 0 0 4 679 34
1108 2 2 0 0 542 556 151
1109 2 2 0 0 548 609 135
1110 2 2 0 0 204 620 196
1111 2 2 0 0 529 629 528
1112 2 2 0 0 482 719 230
1113 2 2 0 0 258 627 591
1114 2 2 0 0 336 582 335
1115 2 2 0 0 197 686 667
1116 2 2 0 0 583 658 580
1117 2 2 0 0 85 675 98
1118 2 2 0 0 59 728 379
1119 2 2 0 0 400 625 338
1120 2 2 0 0 394 717 605
1121 2 2 0 0 471 650 450
1122 2 2 0 0 596 635 323
1123 2 2 0 0 249 637 228
1124 2 2 0 0 515 635 596
1125 2 2 0 0 338 625 563
1126 2 2 0 0 28 633 488
1127 2 2 0 0 566 622 361
1128 2 2 0 0 229 570 161
1129 2 2 0 0 468 654 465
1130 2 2 0 0 118 710 462
1131 2 2 0 0 15 612 16
1132 2 2 0 0 589 659 590
1133 2 2 0 0 526 621 268
1134 2 2 0 0 365 647 597
1135 2 2 0 0 579 583 235
1136 2 2 0 0 22 507 21
1137 2 2 0 0 342 682 264
1138 2 2 0 0 441 648 346
1139 2 2 0 0 191 636 198
1140 2 2 0 0 578 653 579
1141 2 2 0 0 135 609 134
1142 2 2 0 0 128 618 122
1143 2 2 0 0 378 681 310
1144 2 2 0 0 230 690 211
1145 2 2 0 0 210 690 232
1146 2 2 0 0 549 643 553
1147 2 2 0 0 233 661 247
1148 2 2 0 0 10 624 11
1149 2 2 0 0 640 709 435
1150 2 2 0 0 449 719 482
1151 2 2 0 0 452 726 33
1152 2 2 0 0 362 577 280
1153 2 2 0 0 318 575 433
1154 2 2 0 0 492 687 396
1155 2 2 0 0 586 734 293
1156 2 2 0 0 357 655 618
1157 2 2 0 0 277 567 259
1158 2 2 0 0 522 641 225
1159 2 2 0 0 511 640 281
1160 2 2 0 0 247 661 483
1161 2 2 0 0 610 693 39
1162 2 2 0 0 272 569 326
1163 2 2 0 0 490 695 70
1164 2 2 0 0 553 643 599
1165 2 2 0 0 532 629 284
1166 2 2 0 0 29 712 17
1167 2 2 0 0 632 665 117
1168 2 2 0 0 618 655 386
1169 2 2 0 0 241 699 576
1170 2 2 0 0 457 728 561
1171 2 2 0 0 485 572 456
1172 2 2 0 0 430 667 621
1173 2 2 0 0 582 672 458
1174 2 2 0 0 395 687 540
1175 2 2 0 0 504 594 44
1176 2 2 0 0 181 713 207
1177 2 2 0 0 197 707 184
1178 2 2 0 0 524 657 556
1179 2 2 0 0 475 536 498
1180 2 2 0 0 394 738 320
1181 2 2 0 0 51 714 561
1182 2 2 0 0 151 556 153
1183 2 2 0 0 437 693 610
1184 2 2 0 0 361 626 568
1185 2 2 0 0 611 679 5
1186 2 2 0 0 231 680 643
1187 2 2 0 0 462 706 118
1188 2 2 0 0 390 670 496
1189 2 2 0 0 602 642 601
1190 2 2 0 0 49 330 48
1191 2 2 0 0 391 665 632
1192 2 2 0 0 508 737 375
1193 2 2 0 0 450 650 552
1194 2 2 0 0 368 732 476
1195 2 2 0 0 578 579 235
1196 2 2 0 0 402 581 308
1197 2 2 0 0 43 486 41
1198 2 2 0 0 562 713 179
1199 2 2 0 0 592 632 480
1200 2 2 0 0 416 641 522
1201 2 2 0 0 372 668 371
1202 2 2 0 0 452 712 439
1203 2 2 0 0 282 720 455
1204 2 2 0 0 556 657 176
1205 2 2 0 0 364 632 592
1206 2 2 0 0 403 726 452
1207 2 2 0 0 465 654 623
1208 2 2 0 0 278 649 105
1209 2 2 0 0 154 652 617
1210 2 2 0 0 383 688 603
1211 2 2 0 0 451 719 447
1212 2 2 0 0 317 709 640
1213 2 2 0 0 604 711 642
1214 2 2 0 0 382 652 383
1215 2 2 0 0 601 642 389
1216 2 2 0 0 284 671 316
1217 2 2 0 0 599 643 402
1218 2 2 0 0 388 633 624
1219 2 2 0 0 267 678 311
1220 2 2 0 0 337 681 530
1221 2 2 0 0 279 661 233
1222 2 2 0 0 605 738 394
1223 2 2 0 0 33 677 504
1224 2 2 0 0 386 655 387
1225 2 2 0 0 547 669 631
1226 2 2 0 0 562 731 479
1227 2 2 0 0 360 648 595
1228 2 2 0 0 432 692 657
1229 2 2 0 0 367 657 524
1230 2 2 0 0 633 695 488
1231 2 2 0 0 415 473 341
1232 2 2 0 0 644 672 336
1233 2 2 0 0 551 633 388
1234 2 2 0 0 533 648 360
1235 2 2 0 0 407 679 611
1236 2 2 0 0 323 635 615
1237 2 2 0 0 530 681 529
1238 2 2 0 0 393 651 394
1239 2 2 0 0 387 655 602
1240 2 2 0 0 238 703 574
1241 2 2 0 0 594 677 505
1242 2 2 0 0 559 692 560
1243 2 2 0 0 621 667 381
1244 2 2 0 0 405 674 376
1245 2 2 0 0 325 732 368
1246 2 2 0 0 623 654 517
1247 2 2 0 0 581 644 336
1248 2 2 0 0 346 648 533
1249 2 2 0 0 517 654 279
1250 2 2 0 0 477 705 481
1251 2 2 0 0 481 705 355
1252 2 2 0 0 561 728 57
1253 2 2 0 0 379 705 477
1254 2 2 0 0 617 652 382
1255 2 2 0 0 30 650 500
1256 2 2 0 0 376 674 385
1257 2 2 0 0 518 715 519
1258 2 2 0 0 474 667 430
1259 2 2 0 0 478 734 294
1260 2 2 0 0 624 633 28
1261 2 2 0 0 186 707 619
1262 2 2 0 0 64 663 475
1263 2 2 0 0 597 647 258
1264 2 2 0 0 377 738 605
1265 2 2 0 0 31 735 467
1266 2 2 0 0 27 718 458
1267 2 2 0 0 419 673 68
1268 2 2 0 0 616 722 393
1269 2 2 0 0 24 723 419
1270 2 2 0 0 397 638 48
1271 2 2 0 0 404 730 460
1272 2 2 0 0 91 676 472
1273 2 2 0 0 622 626 361
1274 2 2 0 0 7 656 32
1275 2 2 0 0 576 697 277
1276 2 2 0 0 471 691 650
1277 2 2 0 0 536 663 373
1278 2 2 0 0 484 691 471
1279 2 2 0 0 552 650 30
1280 2 2 0 0 311 678 600
1281 2 2 0 0 486 729 5
1282 2 2 0 0 418 673 666
1283 2 2 0 0 232 680 231
1284 2 2 0 0 5 679 4
1285 2 2 0 0 117 665 539
1286 2 2 0 0 384 702 616
1287 2 2 0 0 557 702 221
1288 2 2 0 0 87 675 85
1289 2 2 0 0 225 711 604
1290 2 2 0 0 505 677 571
1291 2 2 0 0 483 661 494
1292 2 2 0 0 263 565 375
1293 2 2 0 0 504 677 594
1294 2 2 0 0 582 718 399
1295 2 2 0 0 645 714 46
1296 2 2 0 0 534 708 392
1297 2 2 0 0 643 680 402
1298 2 2 0 0 18 712 452
1299 2 2 0 0 392 670 390
1300 2 2 0 0 221 702 603
1301 2 2 0 0 496 664 391
1302 2 2 0 0 606 710 118
1303 2 2 0 0 655 703 602
1304 2 2 0 0 608 676 91
1305 2 2 0 0 194 684 514
1306 2 2 0 0 541 671 378
1307 2 2 0 0 154 669 652
1308 2 2 0 0 399 718 639
1309 2 2 0 0 405 715 674
1310 2 2 0 0 33 726 677
1311 2 2 0 0 629 671 284
1312 2 2 0 0 468 735 495
1313 2 2 0 0 469 704 408
1314 2 2 0 0 427 745 479
1315 2 2 0 0 294 734 251
1316 2 2 0 0 461 705 379
1317 2 2 0 0 385 674 636
1318 2 2 0 0 657 692 176
1319 2 2 0 0 561 714 411
1320 2 2 0 0 631 669 154
1321 2 2 0 0 264 682 265
1322 2 2 0 0 43 638 486
1323 2 2 0 0 48 638 43
1324 2 2 0 0 194 744 684
1325 2 2 0 0 381 686 380
1326 2 2 0 0 658 716 589
1327 2 2 0 0 263 567 565
1328 2 2 0 0 310 681 337
1329 2 2 0 0 493 685 492
1330 2 2 0 0 64 685 663
1331 2 2 0 0 309 678 267
1332 2 2 0 0 600 678 431
1333 2 2 0 0 538 694 333
1334 2 2 0 0 598 685 64
1335 2 2 0 0 551 695 633
1336 2 2 0 0 560 699 241
1337 2 2 0 0 211 690 210
1338 2 2 0 0 2 723 3
1339 2 2 0 0 630 708 441
1340 2 2 0 0 467 735 468
1341 2 2 0 0 396 687 395
1342 2 2 0 0 35 507 22
1343 2 2 0 0 259 567 263
1344 2 2 0 0 417 673 418
1345 2 2 0 0 614 686 197
1346 2 2 0 0 392 708 630
1347 2 2 0 0 5 729 6
1348 2 2 0 0 279 725 661
1349 2 2 0 0 6 729 26
1350 2 2 0 0 357 703 655
1351 2 2 0 0 514 684 635
1352 2 2 0 0 540 733 538
1353 2 2 0 0 374 741 593
1354 2 2 0 0 176 692 559
1355 2 2 0 0 650 691 500
1356 2 2 0 0 484 736 691
1357 2 2 0 0 83 733 540
1358 2 2 0 0 558 740 372
1359 2 2 0 0 626 697 555
1360 2 2 0 0 436 693 437
1361 2 2 0 0 375 737 374
1362 2 2 0 0 475 663 536
1363 2 2 0 0 636 674 198
1364 2 2 0 0 674 715 198
1365 2 2 0 0 70 695 551
1366 2 2 0 0 406 721 407
1367 2 2 0 0 677 726 571
1368 2 2 0 0 258 647 627
1369 2 2 0 0 448 701 451
1370 2 2 0 0 458 672 506
1371 2 2 0 0 229 700 570
1372 2 2 0 0 684 744 428
1373 2 2 0 0 570 700 544
1374 2 2 0 0 678 742 431
1375 2 2 0 0 646 741 314
1376 2 2 0 0 603 702 384
1377 2 2 0 0 478 731 293
1378 2 2 0 0 309 742 678
1379 2 2 0 0 380 686 614
1380 2 2 0 0 494 725 468
1381 2 2 0 0 500 691 38
1382 2 2 0 0 635 684 615
1383 2 2 0 0 661 725 494
1384 2 2 0 0 679 721 34
1385 2 2 0 0 509 510 35
1386 2 2 0 0 46 714 51
1387 2 2 0 0 615 684 428
1388 2 2 0 0 432 742 689
1389 2 2 0 0 179 713 181
1390 2 2 0 0 26 739 645
1391 2 2 0 0 35 510 507
1392 2 2 0 0 574 703 357
1393 2 2 0 0 184 707 186
1394 2 2 0 0 39 693 612
1395 2 2 0 0 665 694 539
1396 2 2 0 0 312 708 534
1397 2 2 0 0 554 689 309
1398 2 2 0 0 1 737 508
1399 2 2 0 0 519 717 520
1400 2 2 0 0 277 697 622
1401 2 2 0 0 389 711 641
1402 2 2 0 0 495 736 484
1403 2 2 0 0 17 712 18
1404 2 2 0 0 212 722 557
1405 2 2 0 0 455 720 438
1406 2 2 0 0 622 697 626
1407 2 2 0 0 664 694 665
1408 2 2 0 0 447 719 449
1409 2 2 0 0 669 688 652
1410 2 2 0 0 612 693 436
1411 2 2 0 0 619 744 194
1412 2 2 0 0 57 728 59
1413 2 2 0 0 579 658 583
1414 2 2 0 0 438 727 525
1415 2 2 0 0 539 733 83
1416 2 2 0 0 479 731 478
1417 2 2 0 0 691 736 38
1418 2 2 0 0 401 724 400
1419 2 2 0 0 420 660 2
1420 2 2 0 0 328 732 325
1421 2 2 0 0 320 738 453
1422 2 2 0 0 428 744 429
1423 2 2 0 0 431 742 432
1424 2 2 0 0 425 745 427
1425 2 2 0 0 408 743 434
1426 2 2 0 0 571 726 403
1427 2 2 0 0 119 727 523
1428 2 2 0 0 625 706 462
1429 2 2 0 0 525 730 404
1430 2 2 0 0 499 736 495
1431 2 2 0 0 468 725 654
1432 2 2 0 0 336 672 582
1433 2 2 0 0 198 715 518
1434 2 2 0 0 400 724 706
1435 2 2 0 0 402 680 581
1436 2 2 0 0 589 716 659
1437 2 2 0 0 727 730 525
1438 2 2 0 0 664 665 391
1439 2 2 0 0 337 740 558
1440 2 2 0 0 293 731 562
1441 2 2 0 0 523 720 282
1442 2 2 0 0 460 730 119
1443 2 2 0 0 641 711 225
1444 2 2 0 0 429 744 619
1445 2 2 0 0 119 730 727
1446 2 2 0 0 651 722 212
1447 2 2 0 0 38 736 499
1448 2 2 0 0 667 686 381
1449 2 2 0 0 652 688 383
1450 2 2 0 0 410 710 606
1451 2 2 0 0 644 701 448
1452 2 2 0 0 666 673 419
1453 2 2 0 0 704 743 408
1454 2 2 0 0 251 734 586
1455 2 2 0 0 400 706 625
1456 2 2 0 0 546 688 669
1457 2 2 0 0 668 700 229
1458 2 2 0 0 538 733 694
1459 2 2 0 0 333 694 664
1460 2 2 0 0 565 662 375
1461 2 2 0 0 720 727 438
1462 2 2 0 0 372 700 668
1463 2 2 0 0 579 716 658
1464 2 2 0 0 642 711 389
1465 2 2 0 0 355 705 461
1466 2 2 0 0 407 721 679
1467 2 2 0 0 523 727 720
1468 2 2 0 0 654 725 279
1469 2 2 0 0 639 718 27
1470 2 2 0 0 694 733 539
1471 2 2 0 0 393 722 651
1472 2 2 0 0 645 739 397
1473 2 2 0 0 683 741 374
1474 2 2 0 0 397 739 638
1475 2 2 0 0 653 716 579
1476 2 2 0 0 666 723 660
1477 2 2 0 0 419 723 666
1478 2 2 0 0 374 737 683
1479 2 2 0 0 593 741 646
1480 2 2 0 0 683 737 1
1481 2 2 0 0 689 742 309
1482 2 2 0 0 660 723 2
1483 2 2 0 0 23 25 1
1484 2 2 0 0 25 607 1
1485 2 2 0 0 3 34 2
1486 2 2 0 0 34 415 2
$EndElements
