$MeshFormat
2.2 0 8
$EndMeshFormat
$Nodes
745
1 4.9032294764820951e-05 3.5822251056097830e-05 1.0113306472464146e-03
2 6.1666060277060336e-05 -3.5558425585770117e-05 -1.0096116248685060e-03
3 1.3060691615231933e-04 2.6207475631028142e-05 -1.0023626178906639e-03
4 2.4574160659945519e-04 3.5133312634251661e-05 -9.8039624482193347e-04
5 3.7157652676078536e-04 4.6340244627981880e-05 -9.3854413824962814e-04
6 4.8864610746170753e-04 5.0624318842259436e-07 -8.8189144098835823e-04
7 6.1960941673698891e-04 -1.0136591548675891e-05 -7.9212609954605032e-04
8 7.3031633609450287e-04 -8.7949229755085106e-06 -6.8743651408571186e-04
9 8.3740004611891541e-04 -3.8603958147895598e-06 -5.4628394920180922e-04
10 9.0919360007234802e-04 7.5769681396373317e-07 -4.0978932246294039e-04
11 9.5599911452413618e-04 6.6680576802280852e-06 -2.7723677894796677e-04
12 9.8391447584736738e-04 3.4995323055715959e-06 -1.4322978676135255e-04
13 9.9382943683580353e-04 7.5768149903480297e-07 1.1874449895917274e-06
14 9.8363609710185691e-04 1.0067312380095795e-05 1.4401968467804208e-04
15 9.5558296062446687e-04 1.0122458784484018e-05 2.7864754811745640e-04
16 9.0585436496326761e-04 7.9108672583510413e-06 4.1796824277685321e-04
17 8.3420434413200247e-04 2.6831349015713814e-06 5.5169667504834498e-04
18 7.3096779438759673e-04 1.0150161845298145e-06 6.8725413764232884e-04
19 6.2051976234340372e-04 7.0270470346306600e-06 7.9193151990384258e-04
20 4.9853743106121283e-04 9.9282461812546632e-07 8.7657605424134092e-04
21 3.8015829095732352e-04 -5.9046495067270109e-06 9.3595316056920745e-04
22 2.5518411301241501e-04 8.0519203210415227e-06 9.7882352504464923e-04
23 1.3382756491702531e-04 -8.1204826804544741e-06 1.0028702076051407e-03
24 1.7221912543746146e-04 1.2166333423161538e-04 -9.8952353510057254e-04
25 1.6136986136736154e-04 1.0273696628376704e-04 9.9448200144658340e-04
26 5.6551231337680660e-04 1.0658840129290071e-04 -8.2546792797357806e-04
27 5.6516035786504813e-04 -1.0836498575993862e-04 8.2638050396331177e-04
28 9.6384876854614231e-04 1.3625335194456328e-04 -2.0442458685336712e-04
29 8.5753509278145047e-04 1.4494492439202485e-04 4.9283166487358652e-04
30 9.3014460278430472e-04 -1.1272167095390929e-04 3.3878039485323117e-04
31 9.6415798181733446e-04 -1.1827276435435826e-04 -2.1395470238266072e-04
32 5.3577887144915816e-04 -1.1977594826468689e-04 -8.4456035915957540e-04
33 5.5152694588965067e-04 1.1386708998945690e-04 8.3485135528952117e-04
34 1.5297869416550973e-04 -8.9085623305169799e-05 -9.9684169731008559e-04
35 1.8555568797852870e-04 -9.7320409033399514e-05 9.8983088533303987e-04
36 7.8523165643450447e-04 -1.1317910654346259e-04 6.1122577206811925e-04
37 7.7691912764781901e-04 1.1955134693197686e-04 -6.2019198237763190e-04
38 9.8505897099613010e-04 -1.0784687940315987e-04 7.4454607782413769e-05
39 9.6475120562052367e-04 1.2595257502206854e-04 2.0614402246540579e-04
40 8.6782951840201400e-04 -1.2723151091060812e-04 -4.7723295913493550e-04
41 2.9188632405445389e-04 1.2960231025997622e-04 -9.5885963223134329e-04
42 1.9629449562607514e-04 2.4780846536785371e-04 -9.5974219882860991e-04
43 3.2922901753286400e-04 2.4423891225245161e-04 -9.2192251897387802e-04
44 3.0290112854933237e-04 1.0975060152965520e-04 9.5843734319949912e-04
45 6.7513122897542134e-04 1.1180849887897056e-04 -7.3464803220683189e-04
46 7.1951533764188765e-04 2.2999420787506655e-04 -6.5844117074111738e-04
47 2.7106999070770140e-04 3.5905419760631346e-04 -9.0254323671826685e-04
48 3.9766610147040182e-04 3.5095082322161598e-04 -8.5596263152353663e-04
49 3.2950655997261453e-04 4.6230498565496278e-04 -8.3076757023062904e-04
50 8.0753356331219218e-04 2.4281955498737647e-04 -5.3623881189370870e-04
51 7.3105932541698724e-04 3.6148312050311270e-04 -5.7915821385029563e-04
52 8.1126909523364756e-04 3.6564374837561031e-04 -4.5085518284661362e-04
53 7.2595116484073152e-04 4.8791643600509707e-04 -4.8082023313153878e-04
54 7.9980085721733588e-04 4.7988416766734802e-04 -3.4877606874875671e-04
55 7.1173320188599207e-04 5.9183293379047272e-04 -3.6776764324845880e-04
56 7.7575828284568457e-04 5.7613676389079284e-04 -2.3488763499889171e-04
57 6.2856933661596627e-04 5.9802625349197067e-04 -4.9344466135842538e-04
58 6.0639527389455929e-04 6.9171393643686278e-04 -3.8222711943530161e-04
59 5.1682126524950594e-04 6.9295521310109350e-04 -4.9895853045443263e-04
60 4.8833046755743313e-04 7.7393927490888869e-04 -3.9382051000361477e-04
61 3.9700546470635166e-04 7.6106858449330071e-04 -5.1005893270618754e-04
62 3.6160227042544634e-04 8.3937914119887574e-04 -3.9655052130110863e-04
63 2.0817099127025775e-04 4.5397655639979769e-04 -8.7512872239993227e-04
64 4.5054893784031810e-04 8.3898611926212937e-04 -2.8671472790919519e-04
65 2.5833755645676649e-04 8.1769260660062234e-04 -5.1157968503658807e-04
66 2.2946634342425667e-04 8.9259684348439881e-04 -3.7760077782249247e-04
67 1.2463215866794907e-04 8.6583118482531983e-04 -4.8011826308536206e-04
68 9.6108006078660330e-05 2.4622736244862581e-04 -9.7565162843473525e-04
69 1.4441359057107368e-04 7.7055237074162770e-04 -6.2352621145504792e-04
70 8.5274956538322296e-04 4.6333189138395746e-04 -2.1556641733653145e-04
71 8.2393877806317235e-04 5.4576817980050616e-04 -1.0329810898705771e-04
72 7.3154183543837012e-04 6.6046510248840573e-04 -1.2620681145507866e-04
73 7.6935465483228516e-04 6.2852507704696820e-04 3.5214034560124159e-06
74 6.6658192122616758e-04 7.3588253730516150e-04 -2.6412248873982221e-05
75 6.9126317530363870e-04 7.0579221092063730e-04 1.0377665638837314e-04
76 5.8604490743346819e-04 7.9876223822798872e-04 7.1756586017215475e-05
77 6.1090802766668000e-04 7.5681971433074673e-04 2.0534805603702642e-04
78 5.0056929920299091e-04 8.4053435179168128e-04 1.7507200399249947e-04
79 9.3899766709820527e-05 9.3121985769872731e-04 -3.3885193665504599e-04
80 -1.2906209221450955e-05 8.9890037842308009e-04 -4.3025472600042550e-04
81 2.3584673759278178e-04 2.1215225706933192e-04 9.6006413940392390e-04
82 5.1896341695998596e-04 7.8942170571671228e-04 3.1355025024519751e-04
83 -4.2173316370589744e-05 9.4738614653810992e-04 -2.9963526597470203e-04
84 4.0367704953693382e-04 8.6565153062444905e-04 2.7788608238748510e-04
85 4.1983208944808292e-04 8.0738171258709255e-04 4.0616312401395548e-04
86 2.9407280748642645e-04 8.7486922189149066e-04 3.7412216590088624e-04
87 3.0134026249144810e-04 8.0725120236840582e-04 5.0361846861209070e-04
88 1.8366427859337008e-04 8.6155773257256120e-04 4.6794414264940545e-04
89 1.6656696135399255e-04 9.2107764394804481e-04 3.3851395172365136e-04
90 5.3170031240556170e-05 8.9978535812608928e-04 4.2524490022328006e-04
91 6.9938027660397024e-05 8.2866509694472950e-04 5.5396746827668136e-04
92 -5.8886101589809825e-05 8.5754161170813615e-04 5.0705472097273979e-04
93 -8.9189370636669118e-05 9.1602646399350596e-04 3.8026181511018758e-04
94 -1.9144862270138033e-04 8.6545363024916901e-04 4.5646379146270435e-04
95 -1.6621062175557028e-04 7.9935233197151335e-04 5.7518214183733402e-04
96 -2.2090191132720830e-04 9.1239834789604837e-04 3.3006646987868350e-04
97 1.1792804409916384e-04 2.1779452470125930e-04 9.8076212597066384e-04
98 5.3787327561890998e-04 7.1026560614908965e-04 4.5064673794771506e-04
99 1.7164242158536019e-04 3.3721725004972459e-04 9.3663320876489402e-04
100 4.6001620797222285e-05 3.2505652680425311e-04 9.5594849920667586e-04
101 -7.0694619156221870e-06 2.1501433405984668e-04 9.8868904965564207e-04
102 -8.5970292264957372e-05 3.1751024277069798e-04 9.5569535410657957e-04
103 1.9888388314668625e-04 9.4335239962867223e-04 -2.4285234411148724e-04
104 -1.1354079843192989e-04 9.5591215262268527e-04 2.4840977687125553e-04
105 -2.4524640760529843e-04 9.4038202075435084e-04 2.0756491776189259e-04
106 -3.5112387452324799e-04 8.8759003002846990e-04 2.7903443051635482e-04
107 -1.5337332241664123e-04 9.0804650278297782e-04 -3.7847841424693788e-04
108 -1.2919355433816193e-04 8.4764759646423291e-04 -5.1081353904558003e-04
109 -3.7725475938330737e-04 9.0633623146290862e-04 1.5127278125390113e-04
110 -2.6150191363828691e-04 8.4883186696904493e-04 -4.5276249528360346e-04
111 -2.3288395511257971e-04 7.7528197811846660e-04 -5.8676313874671693e-04
112 -3.6712359434843967e-04 7.6992947873325446e-04 -5.1861069688506330e-04
113 -3.3546817525614272e-04 6.9015327108099000e-04 -6.4306773035947742e-04
114 -4.6500787003000055e-04 6.7604993010971686e-04 -5.7051233468809800e-04
115 -4.2584716525012340e-04 5.9283216768483634e-04 -6.8684032243350923e-04
116 -4.9767854561980952e-04 7.3971245475885667e-04 -4.4584694407097294e-04
117 -2.8901526507092023e-04 8.9787260023687135e-04 -3.1582472801453925e-04
118 -2.8532648262748585e-04 7.8319243831740325e-04 5.5183811661184748e-04
119 7.0170426912214486e-04 6.6630594244882597e-04 2.2756400227627252e-04
120 -2.9138682374805613e-04 5.8709275782391885e-04 -7.6112188283104570e-04
121 -3.7520134230232979e-04 4.8869429596395681e-04 -7.9441642605313184e-04
122 -5.0242841839989456e-04 4.7558851072911188e-04 -7.2657936394250665e-04
123 -4.4848483209335399e-04 3.6911318638857944e-04 -8.2133906020297989e-04
124 -5.8626183411673968e-04 6.3779718752678290e-04 -4.9489260423677317e-04
125 -6.1324316853223035e-04 6.9541577151297602e-04 -3.6207228016547395e-04
126 -6.9528431483504671e-04 5.8715469428796501e-04 -4.0481168236181531e-04
127 -4.8230810022959928e-04 8.3955595030111750e-04 2.2467933787072750e-04
128 -5.7138668849092313e-04 3.4839937739125111e-04 -7.4812463775110905e-04
129 -5.1074056435930796e-04 2.3971387855099824e-04 -8.3326526103510263e-04
130 -6.3069911626160362e-04 2.2137867278565783e-04 -7.4893656211555176e-04
131 -5.6188570419995598e-04 1.1128524944162621e-04 -8.2728657526954456e-04
132 -6.8128493107459870e-04 9.1458671796718939e-05 -7.3110807999876581e-04
133 -6.1030697059520395e-04 -1.7818243438113575e-05 -7.9892147827129081e-04
134 -7.2375572493741259e-04 -4.0284926564777143e-05 -6.9270847569866492e-04
135 -6.4533436525914694e-04 -1.4792297393248215e-04 -7.5536530040877612e-04
136 -7.8891503999187944e-04 7.5765882502570550e-05 -6.1075337489525710e-04
137 -8.2060720675596109e-04 -6.4249845664044529e-05 -5.6714194753081104e-04
138 -8.7131595205443269e-04 5.4037660808414787e-05 -4.8319765124866403e-04
139 -8.9117997430933403e-04 -9.2548865977292217e-05 -4.3724710255608373e-04
140 -9.3204890253057923e-04 2.0618991511080828e-05 -3.4895041294451918e-04
141 -9.4172126593125170e-04 -1.1537171337841473e-04 -2.9965754433759637e-04
142 -9.7088079588102138e-04 -1.3720415188221420e-05 -2.1260505002595366e-04
143 -9.6934565721197422e-04 -1.4519819615213688e-04 -1.6389036896282831e-04
144 -9.8941952958526806e-04 -4.0251935239514154e-05 -7.7594320847291582e-05
145 -9.7752013467791070e-04 -1.7438405993174544e-04 -2.5545591019136396e-05
146 -9.8973787710884267e-04 -6.2372168593361634e-05 5.4568031506197238e-05
147 -9.6904018870740106e-04 -1.9082046691343884e-04 1.0760127030140428e-04
148 -9.4516811507836917e-04 -3.0481261966136877e-04 2.4301647716844654e-05
149 -9.2980548035762707e-04 -3.1310616448784696e-04 1.5860439504525764e-04
150 -9.4518088199948246e-04 -1.9608171536284762e-04 2.3879826081769437e-04
151 -8.9728661697501075e-04 -3.1593358466241203e-04 2.9168083423023502e-04
152 -9.0061774721094420e-04 -1.9584520138457662e-04 3.7788945053754701e-04
153 -8.4345181847349942e-04 -3.2107021121068996e-04 4.2333824025783597e-04
154 -8.9365099234166626e-04 -2.2180968037669075e-04 -3.7982636780396496e-04
155 -8.3170443671685295e-04 -2.0293092774757205e-04 5.1397685555965814e-04
156 -7.6307562386824818e-04 -3.3303542575761761e-04 5.5281549959888105e-04
157 -8.8042302579287518e-04 -6.8809498160613466e-05 4.6411935039515021e-04
158 -7.4282605582248024e-04 -2.1611969368662645e-04 6.3556224428365493e-04
159 -6.6137464163729088e-04 -3.3586620388751645e-04 6.7413085567581102e-04
160 -9.9050829352153929e-04 7.1929601818723798e-05 5.3808168881432634e-06
161 -6.3409718230043616e-04 -2.1771130710418745e-04 7.4753166024568273e-04
162 -5.4921201652500769e-04 -3.2552871184788116e-04 7.7640919972071895e-04
163 -5.2104559816771191e-04 -1.1853844619419414e-04 -8.5387949051118613e-04
164 -5.4623803243733840e-04 -2.5192244263284879e-04 -8.0637730577904287e-04
165 -7.1336230023652828e-04 6.3748623553264703e-04 -2.7041087211355830e-04
166 -1.3859607758752503e-04 2.1750174669970949e-04 9.7801131811485454e-04
167 -2.2117670544187490e-04 3.1160465441832156e-04 9.3487377869811447e-04
168 -4.1605291246225244e-04 -2.1218015114976080e-04 -8.9409680299104132e-04
169 -4.3356295977537660e-04 -3.4849246556228707e-04 -8.3955435002434789e-04
170 -5.5399267396740348e-04 -3.8432963828858365e-04 -7.4439677093359434e-04
171 -4.4234890540808749e-04 -4.7699381732187304e-04 -7.6612234377352630e-04
172 -5.5515729054134448e-04 -5.1136783775494385e-04 -6.5934241100008904e-04
173 -4.4054105258333577e-04 -5.9801747990789072e-04 -6.7346476071047565e-04
174 -5.4197633113431420e-04 -6.2758367039573071e-04 -5.5872503231134798e-04
175 -4.2964367430783603e-04 -7.0765102210480898e-04 -5.6087077583650028e-04
176 -7.6895374093028269e-04 -4.3616753776147798e-04 4.6189536164272269e-04
177 -5.1944845313637049e-04 -7.2528651543404745e-04 -4.4649800938708549e-04
178 -4.0915642091877416e-04 -7.9825850601802331e-04 -4.3637038732647970e-04
179 -3.1182483859923182e-04 -7.8114374089155144e-04 -5.3977519588788224e-04
180 -2.8111328672984130e-04 -8.6128000689374487e-04 -4.1683614084208915e-04
181 -1.7986911978740353e-04 -8.3309275977768381e-04 -5.2141423433764086e-04
182 -1.4198522221691687e-04 -9.0153588054765093e-04 -4.0179528470192559e-04
183 -4.4359831555455895e-05 -8.5956854666295688e-04 -5.0749396649193165e-04
184 -1.2329279117807206e-05 -9.2195247805122260e-04 -3.7874988551776719e-04
185 -1.0183108391173868e-04 -9.5319066031223797e-04 -2.6820024886215713e-04
186 3.4797443413815010e-05 -9.6378299786821812e-04 -2.4530579311612065e-04
187 -5.3693998199669138e-05 -9.8311401547020736e-04 -1.3943009177775988e-04
188 8.7771853126850045e-05 -9.8328574239183223e-04 -1.1916571985567976e-04
189 -7.6052635597225050e-06 -9.9389272661232100e-04 -1.4435711320324896e-05
190 1.3039746144538839e-04 -9.8544360234912426e-04 1.0925938795758637e-05
191 2.9381337515998320e-05 -9.8766491203416333e-04 1.1121480408580061e-04
192 1.6542941460895717e-04 -9.7126525699321037e-04 1.3582581954105487e-04
193 6.4412784178560472e-05 -9.6537653702491260e-04 2.3358677213784857e-04
194 2.2144265954602901e-04 -9.6472711833645074e-04 -9.2244598027859309e-05
195 2.0006912840698430e-04 -9.3965881242981863e-04 2.6147331767920978e-04
196 9.7195732562846559e-05 -9.2262443970898324e-04 3.6494888127827321e-04
197 1.0694087368812028e-04 -8.7173683133178349e-04 -4.7641357834360144e-04
198 -9.7469399737450346e-05 -9.8602962395425028e-04 7.8572253405336800e-05
199 2.3330916995434228e-04 -8.8741831048922619e-04 3.9076557942027712e-04
200 3.3364355039883431e-04 -8.9338618017671841e-04 2.8721508908139179e-04
201 3.6316275910150750e-04 -8.3169642458485397e-04 4.1439761782421404e-04
202 1.2990425083817445e-04 -8.5801617904142152e-04 4.9504753625918016e-04
203 4.5572447449663639e-04 -8.3139772581540571e-04 3.0564832757960737e-04
204 -4.3744571017455164e-06 -8.8491839825563892e-04 4.6242637655903812e-04
205 2.9081687961624187e-05 -8.0772052335912768e-04 5.9057567827368004e-04
206 -8.9656336362202048e-04 -4.2225639655199142e-04 7.1330063825052648e-05
207 -8.7792684371851835e-05 -7.7428208499691386e-04 -6.3019172652146278e-04
208 -1.0313631464673336e-04 -8.2638854753899879e-04 5.5391303271331974e-04
209 -6.9752277205659976e-05 -7.3608852907184003e-04 6.7776929834533948e-04
210 4.8135605332092835e-04 -7.6085529221652675e-04 4.3030690685617878e-04
211 5.6916124165386477e-04 -7.5415408710675686e-04 3.1553443688859075e-04
212 -4.9213807791658121e-04 -8.0312078060458785e-04 -3.2277123383358706e-04
213 5.8384158634321955e-05 -7.1024970352697022e-04 7.0695903816712425e-04
214 -3.7919274811112852e-05 -6.2679221573726652e-04 7.8573547296962448e-04
215 -3.1424743904590155e-04 -2.9386821740153251e-04 -9.1306366843463770e-04
216 -2.0494989917527255e-04 -7.4949013042812133e-04 6.3242092741567330e-04
217 -2.3806454650031279e-04 -8.2936850787156753e-04 5.0359502527229664e-04
218 5.4327306792504475e-04 -8.1121188378018288e-04 1.9228356505606768e-04
219 6.5495067278221531e-04 -7.1899092249411384e-04 2.1163298884877739e-04
220 6.1862651464056535e-04 -7.7382312315177934e-04 8.6429475227685731e-05
221 -6.2916279834405954e-04 -6.3892500465006748e-04 -4.3659005804052610e-04
222 7.1986259873375381e-04 -6.7822539624420365e-04 1.0537220702102366e-04
223 6.8209797208111341e-04 -7.2294386756088509e-04 -2.4168085065892098e-05
224 -2.8767923655033460e-04 -1.6342513453618300e-04 -9.5495464959659444e-04
225 -9.5623401249458190e-04 1.1262625886577386e-04 -2.4689344830932476e-04
226 8.5139321827257226e-05 -5.9204021739117521e-04 8.0970217980753717e-04
227 -8.4147067100461617e-06 -5.0497054520609662e-04 8.7285461843578853e-04
228 -5.1588007726011294e-04 -1.9675489496170714e-04 8.4214798335509019e-04
229 -5.9266378538497309e-04 -9.5957797253258274e-05 8.0667158064994871e-04
230 6.6739117241732362e-04 -6.5649714651977008e-04 3.4140421033005016e-04
231 3.9179197817591012e-04 -7.5208708615764083e-04 5.2932445246323936e-04
232 5.1426575165938434e-04 -6.5879458574511927e-04 5.5092910897731797e-04
233 7.7092816965947401e-04 -6.2738388802935884e-04 -1.5885608534034355e-05
234 7.3132288782961252e-04 -6.5916500451168169e-04 -1.3994189977087769e-04
235 -3.8665483054614922e-04 2.5621981774583255e-04 -8.9514072415986347e-04
236 2.9440673616269589e-04 3.3592542495914637e-04 9.0498225638590104e-04
237 -4.3126221000399528e-04 -2.9580469624412582e-04 8.6146191500925695e-04
238 -8.3682881602814389e-04 1.9804788026014564e-04 -5.0802600164798423e-04
239 6.3715411059995510e-04 -7.4845613057334824e-04 -1.5190121008549641e-04
240 6.7980927702635105e-04 -6.7552612419963340e-04 -2.6938805296694687e-04
241 -5.7658902941619058e-04 -4.4142980334768874e-04 6.9175109303992082e-04
242 5.7201945918259516e-04 -7.6752725006652711e-04 -2.7362561417496305e-04
243 6.0753766211254178e-04 -6.8371787955344107e-04 -3.9730184083091208e-04
244 7.0958943864265264e-04 -5.8838609210800600e-04 -3.7964568338811261e-04
245 6.2818300108485555e-04 -5.8712389910853735e-04 -5.0897524363652106e-04
246 -1.8848421658051941e-04 -2.4781455806892512e-04 -9.6181818363348182e-04
247 8.0893166633994409e-04 -5.6864009690466867e-04 1.0590025072532209e-04
248 2.2999801994814774e-04 4.4163029867320220e-04 8.7668107188333514e-04
249 -3.8879504095483088e-04 -1.5641444280350226e-04 9.1834340967877621e-04
250 3.5780962367341001e-04 4.3263370048066146e-04 8.3597994042112491e-04
251 -2.1779355878751206e-04 -3.6074160700165600e-04 -9.1734924221923764e-04
252 -9.2480683062436957e-05 -3.3627513585802522e-04 -9.4847332456949077e-04
253 3.7434774283483788e-04 9.0832987894881221e-04 1.4840993278399412e-04
254 -6.2148890420583663e-04 7.4078636343154962e-04 -2.2903104629890504e-04
255 -7.1214279344440840e-04 6.7812929916586089e-04 -1.3819174571725842e-04
256 -7.9510355612930051e-04 5.6971494308753117e-04 -1.7343917499723586e-04
257 -7.8241757529179054e-04 6.0944955331257672e-04 -4.4705607631038767e-05
258 -2.5330434009698172e-05 4.3094476426650257e-04 9.1225000282217606e-04
259 -2.9940171615877776e-04 -2.3319565066104046e-04 9.3607701783428960e-04
260 -2.7283356526834152e-04 2.0629992986444864e-04 9.5086857958976540e-04
261 -3.5281723907527965e-04 3.0575523607929506e-04 8.9406610587847775e-04
262 -2.6063153622284411e-04 -1.0666974837991351e-04 9.7114232463743459e-04
263 -1.6982857628046718e-04 -1.8231633416568500e-04 9.8047380601217903e-04
264 -8.5847238301270618e-04 4.9251965349518013e-04 -8.1191372334634996e-05
265 -8.3386660112867402e-04 5.3660505961102781e-04 5.1601056087260490e-05
266 -3.4073416523095834e-04 -7.4803136347385705e-04 5.7001201062920894e-04
267 -3.6979170683130899e-04 -8.1707139547083669e-04 4.3687738973686920e-04
268 5.1312631737248683e-04 -6.8191074861973205e-04 -5.2004167460050030e-04
269 5.2154409308305546e-04 -5.7748530968997785e-04 -6.3104115253164968e-04
270 6.3216261973700609e-04 -4.8000312408261073e-04 -6.1052487506297118e-04
271 5.1450164033096338e-04 -4.6235062966026939e-04 -7.2821547084261256e-04
272 4.0287181127023145e-04 -5.5432538486122258e-04 -7.3448406390373927e-04
273 -2.9801406879569059e-04 4.1595724348892282e-04 8.6813271794883068e-04
274 -4.2650980663362875e-04 4.1232701907095080e-04 8.1258086862124083e-04
275 3.9444305166428306e-04 -4.2863799799177738e-04 -8.2135820893747984e-04
276 2.8398029125602822e-04 -5.2026176787557741e-04 -8.1375624549081117e-04
277 -3.3058357725852968e-04 -3.6894322782329272e-04 8.7795837962934388e-04
278 -1.3182033756044530e-04 9.7623048108683413e-04 1.2663056456818441e-04
279 8.0961029326016929e-04 -5.6229021942239671e-04 -1.2857385358011232e-04
280 -2.3475571164564141e-04 4.7023283517524462e-04 -8.5931217145265198e-04
281 -1.5008410874749553e-04 5.7046134313182902e-04 -8.1491715235303900e-04
282 8.6327356279315064e-04 4.9266103612026014e-04 2.3338547165000282e-05
283 1.1807681435473410e-04 -4.6407150735348901e-04 8.8802551797076607e-04
284 -9.8412641456314129e-04 5.1322877363134422e-05 1.2405836501682137e-04
285 -9.0464657460864468e-04 -4.0508181645702976e-04 -6.8621480984120648e-05
286 -8.4496980841032457e-04 -5.2233356259754704e-04 -2.1957612650388835e-05
287 -8.3114866165223439e-04 -5.3269748574845724e-04 1.1464210835400070e-04
288 -7.6544025858691310e-04 -6.3321379118283212e-04 2.4741094464132028e-05
289 -7.4325005709853606e-04 -6.4131956446180976e-04 1.5688200613700123e-04
290 -6.7435592204885032e-04 -7.2682779820358590e-04 6.7959527304340414e-05
291 -1.9636819920877492e-04 -9.6149895448737941e-04 -1.6178679036267223e-04
292 -2.7001068668938553e-04 -8.8634606027608901e-04 3.6748504565986496e-04
293 -3.3570876846001371e-04 -5.5093448849282301e-04 -7.7124900844060889e-04
294 -9.8391350759765905e-05 -4.6816103045461944e-04 -8.8883335692038388e-04
295 -4.8832065082856561e-04 2.9847241636210434e-04 8.2805613947166759e-04
296 -5.5592383501748208e-04 3.9796436910312187e-04 7.3505200845324628e-04
297 -8.6591728803068601e-04 4.4293345752791042e-04 -2.0411171240395984e-04
298 -6.1457901925981691e-04 2.7083232480881942e-04 7.4661194072910670e-04
299 -6.7372191573378411e-04 3.7074413168159038e-04 6.4135475309834867e-04
300 -6.0866220061122289e-04 4.9589552210649909e-04 6.2080985380943304e-04
301 -7.1663845322941257e-04 4.6148486612618831e-04 5.2027169269017203e-04
302 -7.7534558278125043e-04 3.3558380726620720e-04 5.3263858446075583e-04
303 -3.0429903817431935e-04 -6.6070652655980135e-04 6.9075313632006472e-04
304 -6.3613419600700631e-04 5.9267179193286544e-04 4.9028611990030598e-04
305 -8.0652375696883241e-04 4.1635283354559793e-04 4.1145860844121312e-04
306 2.0883159270772804e-04 -5.4905933742357418e-04 8.1782296488953671e-04
307 2.4492372560963534e-04 -4.2162933685277015e-04 8.8318614948672302e-04
308 3.4646533977124674e-04 -4.9750860436551620e-04 8.0361929559318154e-04
309 -4.5760511887842119e-04 -7.3368286595736673e-04 4.9880671910244173e-04
310 -8.5734347332194782e-04 2.8305622955160831e-04 4.2199487955559874e-04
311 -4.0024584744324977e-04 -8.6148159028184498e-04 2.9875430384322774e-04
312 -7.6058172209257917e-04 6.3311900219511412e-04 8.0090038528244398e-05
313 -8.4497840643295047e-04 -5.0013080416538467e-04 -1.5466788616250467e-04
314 -7.9732338634678961e-05 1.1072219160756665e-04 1.0033303662313980e-03
315 -8.8185798505582857e-04 3.5316932171569534e-04 2.9659337629199582e-04
316 -9.7170012746995086e-04 1.8571351614394359e-04 8.7637112120185506e-05
317 -1.0743817526621403e-04 7.6762441340778029e-04 -6.3296991432614815e-04
318 2.6989630974370247e-04 -3.8617612239789798e-04 -8.9217649105736963e-04
319 -6.8803505113592604e-04 -7.1423464556635862e-04 -6.4561972963041332e-05
320 -6.0143579314651764e-04 -7.9075183095975578e-04 -6.2694263075416719e-06
321 -6.6370954050245937e-04 -4.0769681818709119e-04 -6.2920767963042822e-04
322 -6.2106060071404141e-05 -2.1469403629712563e-04 -9.8675431356114065e-04
323 5.0755435545566838e-04 -8.5189998255830169e-04 7.3912698743910503e-05
324 -6.1573130661864801e-04 7.7250271039214062e-04 -9.8275249273929179e-05
325 2.8452337430902032e-04 5.4037352034427865e-04 7.9908667698489041e-04
326 2.8030003255752887e-04 -6.4008422395525979e-04 -7.2106533793078341e-04
327 1.5666677937017036e-04 -6.0044532968559503e-04 -7.9202608834008778e-04
328 4.2277614569199767e-04 5.3449750450089428e-04 7.3738462094963123e-04
329 4.8435331003753251e-04 4.1573371875805497e-04 7.7660070319288794e-04
330 4.4964304479128375e-04 4.4306483327105346e-04 -7.8167822817537980e-04
331 5.4632073947767173e-06 9.7989870038978620e-04 1.6336168788472398e-04
332 -1.7846798621113652e-05 9.9197353950056808e-04 3.7959031259480749e-05
333 -1.4889757315965664e-04 9.8149863027273887e-04 3.9843371636176966e-06
334 1.1837741965951788e-04 9.8273999759308935e-04 7.9408278603325722e-05
335 3.6444150081064942e-04 -3.5775002589071367e-04 8.6963206020437540e-04
336 4.6225400660259125e-04 -4.2784567305823425e-04 7.8420928370564948e-04
337 -8.1493331007238476e-04 2.1013312240058746e-04 5.3749974846398197e-04
338 -3.5648394873529507e-04 5.1790236734048679e-04 7.8411614835857213e-04
339 -1.0685046720121934e-04 4.5836735110533084e-04 -8.9151108787758682e-04
340 3.6024918912817697e-04 -2.9615244219011367e-04 -8.9479075941310598e-04
341 2.0424664168962730e-05 -2.7329933322127920e-04 -9.7363889191092888e-04
342 -9.2574649514798996e-04 3.4816931612395758e-04 -9.9158218725607235e-05
343 1.7477622908276289e-05 -3.7337637753359008e-04 9.3888411348451667e-04
344 -5.2314862555927720e-04 6.1329761370642157e-04 5.9206901121295111e-04
345 -5.3336219740630149e-04 7.0926558744605908e-04 4.5714338061869343e-04
346 -6.5260835594409575e-04 6.6237743071846753e-04 3.5609338505791359e-04
347 6.0840966594452746e-04 -3.6459201475879359e-04 -7.1039191811762717e-04
348 7.2314800062926005e-04 -3.7295600204844548e-04 -5.8267662325909393e-04
349 5.4236767044018263e-04 5.1834960407770038e-04 6.6436584101934031e-04
350 6.0487668045316112e-04 3.9839402283416760e-04 6.9369692867635353e-04
351 6.5573564905719033e-04 4.9023024494230876e-04 5.7420823859851246e-04
352 7.1463828211477704e-04 3.5381890083887804e-04 6.0489636286332115e-04
353 7.5350030698617058e-04 4.4795304508226584e-04 4.7763035481379466e-04
354 -6.4183483675155268e-04 -7.3274303056438208e-04 2.0040454747069294e-04
355 2.5748880980891540e-04 5.5236944353401413e-04 -7.9940005231039584e-04
356 1.3614101091243848e-04 5.6266078801553226e-04 -8.2281737775919328e-04
357 -6.7651424367483131e-04 3.2248041504277905e-04 -6.6391397762963537e-04
358 5.2472757910500896e-04 -8.3067493357862337e-04 -1.5416293343516500e-04
359 4.5252407982943554e-04 -8.4371397574522806e-04 -2.7262173979386253e-04
360 -8.2194881203920657e-04 4.8621679141026982e-04 2.7807735534015926e-04
361 -1.2515272508581649e-04 -5.2807475966407428e-04 8.4887329483626379e-04
362 -1.8350270995971541e-04 3.4990961278892369e-04 -9.2882729799242264e-04
363 -2.2957825859639129e-04 5.1639100450000719e-04 8.3271741552973200e-04
364 -5.1742909319526175e-04 8.2862121523698609e-04 -1.7979820846263163e-04
365 1.6218477983657677e-04 5.4603422902846106e-04 8.3005442418612122e-04
366 -3.6426374783208871e-04 -3.0288882359377765e-05 9.4160380952121152e-04
367 -7.0271087511200342e-04 -6.4113765680808661e-04 2.9291051725925747e-04
368 2.1289090049034416e-04 6.6727179754946765e-04 7.1948502862406890e-04
369 8.3174011493741194e-05 6.3651979834396298e-04 7.7202519139704575e-04
370 6.9790900513196693e-04 -2.5550810758873967e-04 -6.7329864802514333e-04
371 -5.3865098681345257e-04 1.6378524837952762e-04 8.3468441118245097e-04
372 -6.5957211512559155e-04 1.3527549111533622e-04 7.4560790661933301e-04
373 5.5055904643189994e-04 8.2488787776239516e-04 -5.3475653172097605e-05
374 -1.4746819385909690e-04 -7.4641229048907817e-05 9.9869705424583135e-04
375 -4.5320748299573293e-05 -1.6447985842441145e-04 9.9767492704215532e-04
376 -3.0104423643513551e-04 -9.2002194296225421e-04 2.3098164007578055e-04
377 -4.2983390896130294e-04 -8.8281230185751074e-04 1.6193883497835627e-04
378 -9.2444363930164271e-04 1.9553819972062517e-04 3.1460891301671211e-04
379 4.2457338617252324e-04 6.5959774027875501e-04 -6.2249288881633020e-04
380 1.5705001184066649e-04 -7.1355239370911859e-04 -6.8733089174844331e-04
381 2.7856480271650635e-04 -7.4275526105565821e-04 -6.1064401171422912e-04
382 -8.9734140144116239e-04 -3.7789929090015228e-04 -2.0076615066760232e-04
383 -8.3142389423846504e-04 -4.6783728364975042e-04 -2.8226032631905484e-04
384 -7.6734141267608726e-04 -5.8352646747285688e-04 -2.4545101587217488e-04
385 -1.6583368037207950e-04 -9.3849265545994714e-04 2.8874313966712308e-04
386 -6.6064515745238692e-04 5.2681509139051509e-04 -5.3169557247394455e-04
387 -7.5974456587440606e-04 4.7302435615603755e-04 -4.3818402345432327e-04
388 8.7619908580738185e-04 2.4889225914440815e-04 -4.0499269633104330e-04
389 -9.0771377160998444e-04 3.2700838603991547e-04 -2.3885306083040823e-04
390 -5.0995601173026053e-04 8.5060418452278770e-04 -4.2700777841083937e-05
391 -4.0299214555125895e-04 8.9984637861079825e-04 -1.1782974221240316e-04
392 -6.0483775257493216e-04 7.8622376344865061e-04 3.1689033261739121e-05
393 -5.9134683958285807e-04 -7.8906963505383752e-04 -1.2531225936555950e-04
394 -5.0047602578747569e-04 -8.5584789469986017e-04 -6.4549967930856175e-05
395 9.0115193130465912e-05 9.8744166784443398e-04 -4.9823106602134401e-05
396 2.2531291558637370e-04 9.6694853442817156e-04 -1.0369371846772263e-05
397 5.2672306592776085e-04 3.2557948254172592e-04 -7.9235948458630237e-04
398 2.4839743769809015e-04 -2.9147125144464485e-04 9.3488236743128662e-04
399 3.7104873486385972e-04 -2.2437981310864641e-04 9.1223575196413263e-04
400 -2.8486977477238333e-04 6.0725060734405562e-04 7.4673018804379497e-04
401 -1.6537936867291682e-04 6.1738685486649513e-04 7.7414593063279398e-04
402 3.1270817452516323e-04 -6.1465594929128791e-04 7.3028123062203487e-04
403 6.5696751672474074e-04 2.6978905925456007e-04 7.0872306168679215e-04
404 6.6511864441773166e-04 5.9649559508328294e-04 4.4559454925876825e-04
405 -3.1286683097375240e-04 -9.3858194352407958e-04 9.7383966010921604e-05
406 2.3268750809806476e-04 -2.5840893768262665e-04 -9.4856358247392362e-04
407 3.3872806451556178e-04 -1.8936132591113313e-04 -9.3219340549716069e-04
408 9.4722976274940832e-05 4.5922975128416527e-04 -8.9225167019236942e-04
409 -8.8389826891041286e-04 4.2742880671856802e-04 1.5850043999868419e-04
410 -4.5234460032573300e-04 8.1201808968063940e-04 3.5669270304502636e-04
411 5.5582685151486344e-04 4.2270765397407572e-04 -7.1920477756648189e-04
412 4.6464468595942539e-04 6.5350878155473794e-04 5.9971222043194447e-04
413 8.1175256783763705e-04 2.9550353528727113e-04 5.0150876684327856e-04
414 8.3637780626785187e-04 3.9263897747637312e-04 3.7259229620782046e-04
415 4.8177357043232128e-05 -1.3370708692000494e-04 -1.0021192373821288e-03
416 -9.7018467944388930e-04 2.0856627700464902e-04 -4.2986933422145517e-05
417 -5.9911013906669005e-05 3.3658509927562974e-04 -9.5016235338589309e-04
418 -1.2045616830060167e-04 2.2326749783767815e-04 -9.7872121246344711e-04
419 5.2463621306342375e-05 1.7016491532933372e-04 -9.9508292958993866e-04
420 -7.6054169693228016e-05 -7.7865760250553619e-05 -1.0063100944800228e-03
421 -9.4091708461989073e-04 3.1460378820583870e-04 4.7778584154098285e-05
422 8.0221091105902708e-04 -2.5347986894284355e-04 -5.4020720133830704e-04
423 8.1115060761139963e-04 -3.7160393938987782e-04 -4.4723106547004630e-04
424 2.5448569408335436e-04 9.5304585840262602e-04 1.1668412791975679e-04
425 3.3411473961938052e-05 -6.8138662768676376e-04 -7.3839315679469664e-04
426 2.3594043505338605e-05 -5.4267854813548795e-04 -8.4903145680973553e-04
427 -8.2277161024891539e-05 -5.8736911149278237e-04 -8.1274388003137199e-04
428 4.1170274472931349e-04 -8.9041092207556988e-04 -1.6246218306857673e-04
429 3.2545668447458368e-04 -9.0119273887452568e-04 -2.6933855133921516e-04
430 3.6467450234668356e-04 -8.4440247174678601e-04 -3.8439861650089313e-04
431 -6.0764820938616739e-04 -7.1847613677767232e-04 3.2503759569039032e-04
432 -6.4553698556470346e-04 -6.2193017384610399e-04 4.3819496252112659e-04
433 1.3589046713210543e-04 -3.4755443996778239e-04 -9.3876442296049695e-04
434 -6.9848874476554101e-06 5.5945275075233920e-04 -8.3760564001395248e-04
435 7.3095289346030131e-05 6.6648776536806504e-04 -7.4744380067472572e-04
436 8.8236129489537170e-04 2.5379782781122934e-04 3.8762988341565314e-04
437 8.9956009363950022e-04 3.3267811165515581e-04 2.6422917476310627e-04
438 8.5486670135666244e-04 4.4623574369971467e-04 2.4236579423791518e-04
439 7.6038653523692623e-04 2.1053865519210009e-04 6.1677096740654364e-04
440 -5.8122121318282495e-04 7.5139905707658232e-04 2.9634901491796986e-04
441 -6.9719727828486692e-04 6.7641210870313410e-04 2.1314660366760020e-04
442 6.8279336807273918e-04 -1.1609856048494901e-04 7.2755220433073605e-04
443 7.2322516065753228e-04 -2.3994807996370412e-04 6.5152509828102050e-04
444 8.1807185577299822e-04 -2.4097678738154598e-04 5.2135137898800979e-04
445 7.4860637133174136e-04 -3.6211737241032352e-04 5.5572927686173767e-04
446 8.2472602853905059e-04 -3.6221235163876969e-04 4.2925105859604096e-04
447 7.4610227974885213e-04 -4.7076505100913002e-04 4.6747623419479624e-04
448 6.6698308119285540e-04 -4.6996253950813845e-04 5.7920077452618232e-04
449 8.0944493767712658e-04 -4.7598975989055062e-04 3.3327366499163156e-04
450 8.8004850197024253e-04 -3.5885953903900511e-04 2.9750614450273639e-04
451 6.4585446074397375e-04 -5.8934111093746923e-04 4.8413223204148961e-04
452 6.7138056162912576e-04 1.3378806118496915e-04 7.3575310282345734e-04
453 -5.6741689659060000e-04 -8.0689844204635580e-04 1.2268050001892276e-04
454 2.5215314518047581e-05 -4.1641933319378827e-04 -9.1974027191279615e-04
455 9.0579247976489599e-04 3.8702470985913829e-04 1.3169700519434580e-04
456 4.4939497107410111e-04 -2.1639731196316061e-04 -8.7636188786147193e-04
457 4.9934848174395358e-04 5.3556919684770270e-04 -6.8423048895819877e-04
458 6.1002794744718870e-04 -2.4165643520467750e-04 7.6236476798025575e-04
459 1.4716972705998435e-04 9.6104661566935232e-04 2.0616620934724961e-04
460 6.1830058435191528e-04 7.0432582917664510e-04 3.3594071930523285e-04
461 3.8587090302843324e-04 5.5584328016781027e-04 -7.4120684743079611e-04
462 -4.1944051774946384e-04 7.0689741545628055e-04 5.6832117665101608e-04
463 7.7890691294780373e-04 -1.3320941996854287e-04 -6.1510651539027660e-04
464 8.7570954432778078e-04 -2.4937515597666689e-04 -4.0685079997789019e-04
465 8.7397649442292442e-04 -3.6440451616675737e-04 -3.0850688947523587e-04
466 1.0337513740549653e-05 8.2919151915813571e-04 -5.5720106797811587e-04
467 9.2628042838500979e-04 -2.4442553917082343e-04 -2.6979936317138542e-04
468 9.1496320977510145e-04 -3.5172109964562773e-04 -1.7005277755075525e-04
469 1.4175698734763845e-04 3.4606154436933758e-04 -9.3773945732754751e-04
470 8.4958695617868023e-04 -4.7436738483963055e-04 2.0836680304922486e-04
471 9.1454585180104724e-04 -3.4789772587072931e-04 1.7814685392835556e-04
472 1.9766811417222250e-04 7.7380061883118188e-04 6.0255558659009915e-04
473 1.4114042751553265e-04 -2.1595885618320567e-04 -9.7779845365053228e-04
474 2.2799481722417380e-04 -8.9726840070085282e-04 -3.6905396166976665e-04
475 5.6803489621381120e-04 7.6908552100316213e-04 -2.7400617231765763e-04
476 3.1491094375734523e-04 7.1692738196213414e-04 6.2323699722978410e-04
477 2.8772906247943284e-04 7.2846686166588891e-04 -6.2324043352886477e-04
478 -1.9027000805866461e-04 -5.6035245862159672e-04 -8.1327732240857559e-04
479 -1.8144661171329065e-04 -6.7420748158496171e-04 -7.2117772531872580e-04
480 -3.9503025554160517e-04 8.2883836666546929e-04 -3.8540889942643758e-04
481 1.8925662568709180e-04 6.5807936962245265e-04 -7.3360515121271782e-04
482 7.5701027830016548e-04 -6.0274195334301982e-04 2.3695993749769191e-04
483 8.8503422071513989e-04 -4.4388362018981612e-04 8.8498905710524908e-05
484 9.3646612617592220e-04 -3.2585423748275659e-04 6.5226202117582736e-05
485 5.7273541347706313e-04 -2.4303393182673966e-04 -7.9060533532543105e-04
486 3.9183982263498146e-04 1.4684169485305540e-04 -9.1819524186037311e-04
487 9.8288313686917912e-04 1.2828734746623722e-04 -7.1498551840306184e-05
488 9.4950483182528389e-04 2.7097211647580575e-04 -1.1924535969199997e-04
489 9.6493645915061142e-04 2.3362488876728016e-04 1.1144278148333022e-05
490 8.9749170041229635e-04 4.1772530182774973e-04 -8.5898853764453188e-05
491 3.4549422647362919e-04 9.3096867039819595e-04 1.4986030885921855e-05
492 3.1170069042320964e-04 9.3511855428013218e-04 -1.2747259720153901e-04
493 4.3450437247743675e-04 8.8967713177599719e-04 -7.6857846912689731e-05
494 9.1017713682967213e-04 -3.9759445486844378e-04 -3.0271400411049941e-05
495 9.5116129282683099e-04 -2.8073358662779519e-04 -6.1897298221060294e-05
496 -3.9170197333381258e-04 9.1197809023327542e-04 2.1575236982542449e-05
497 9.8298938668818481e-04 1.2710621286403216e-04 7.1879299587638017e-05
498 6.7911352787705778e-04 6.7891399732555077e-04 -2.5897998780761403e-04
499 9.8369238136433116e-04 -1.2940162090975706e-04 -6.6780564904341669e-05
500 9.6633901775231977e-04 -1.0983332781037362e-04 2.0854410630494281e-04
501 9.2627475224953744e-04 -1.2153010648384238e-04 -3.4629911673759626e-04
502 8.6496661407162428e-04 1.2674261109223796e-04 -4.8232255614285321e-04
503 8.7096122405284275e-04 -1.1732526295982920e-04 4.7428657172914176e-04
504 4.3482089392840844e-04 1.0610747439253915e-04 9.0453745917776294e-04
505 4.1801057224875372e-04 3.2105433669580132e-04 8.5884114191633930e-04
506 6.5344096531450881e-04 -3.5284406278561134e-04 6.7388729400871166e-04
507 3.2127347235683958e-04 -1.2238533022336764e-04 9.5044814907446838e-04
508 7.6547258638990729e-05 -1.2200345825216415e-04 1.0025484471406169e-03
509 1.5230717583430793e-04 -2.2358722668532638e-04 9.7460853833364737e-04
510 2.5442507571943443e-04 -1.9501912765895602e-04 9.5806530024902749e-04
511 -1.9801253934884850e-04 6.8018872621432964e-04 -7.0987996298411862e-04
512 2.7641015888779289e-04 9.2198571893586489e-04 2.4953188357228000e-04
513 5.7983880331547799e-04 -8.0684017191109362e-04 -3.5940205993477265e-05
514 2.6647846428796539e-04 -9.5711969624294371e-04 3.4716519211551863e-05
515 2.9998013178798318e-04 -9.3504278551980054e-04 1.5896735399913124e-04
516 -5.4717596440503012e-04 5.6703776641898009e-04 -6.1630994114806269e-04
517 7.6995886540853916e-04 -5.7915127955480083e-04 -2.4936010558913705e-04
518 -1.4645470219468425e-04 -9.8218551963316593e-04 -4.2132238090964122e-05
519 -2.8847723136177380e-04 -9.5064419157549662e-04 -4.5739570947995503e-05
520 -3.3022953578800156e-04 -9.2046762337932419e-04 -1.8131868789080923e-04
521 -7.8900461539848483e-04 5.2288162356223429e-04 -3.0557369785178722e-04
522 -9.8152496768002129e-04 9.0699357156165896e-05 -1.2276912154673633e-04
523 7.8114920068895663e-04 6.0255975147718746e-04 1.1672118418481417e-04
524 -7.9826109463434017e-04 -5.4012603399887027e-04 2.4589742913463269e-04
525 7.7635859699866729e-04 5.1185641432130902e-04 3.5622644608987491e-04
526 4.9100688292419729e-04 -7.7300829237736933e-04 -3.9445821133180040e-04
527 -9.4657879361532775e-04 -2.7951882835924196e-04 -1.1458213331263777e-04
528 -9.4077610460944008e-04 -7.1385083106347699e-05 3.1686809525463018e-04
529 -9.1483194223302149e-04 5.3157836113574900e-05 3.9099032054383678e-04
530 -8.4087558064460904e-04 5.3998891677258777e-05 5.3761490670607248e-04
531 -7.7106618344351867e-04 -6.1723743364720015e-04 -1.1171848892147895e-04
532 -9.7440331991322556e-04 -7.1351661192188825e-05 1.8208233740844523e-04
533 -7.3626888047378610e-04 5.4385986596738553e-04 3.9298851854887478e-04
534 -6.9950979700115275e-04 7.0383838230237490e-04 -1.6423544405611325e-05
535 -2.4230741623869912e-04 -9.2123775980083031e-04 -2.8968158585618249e-04
536 6.2556136877676418e-04 7.5684377160074520e-04 -1.5197144550689525e-04
537 -1.3581784413686321e-04 -8.9361297660109373e-04 4.2247686193773551e-04
538 -3.8237903952105965e-05 9.8869435011107037e-04 -8.1895959917143617e-05
539 -1.7938803802512290e-04 9.4558921174055580e-04 -2.4732657502269978e-04
540 6.2545219597386423e-05 9.7334706408924308e-04 -1.9237041377210867e-04
541 -9.3430397928508731e-04 2.8369418619302007e-04 1.8529611694102465e-04
542 -8.7426015910674023e-04 -4.2687868883338720e-04 2.0486007914890400e-04
543 -7.9934045789464164e-04 -8.0713177069655092e-05 5.9587575786512227e-04
544 -7.4885493570889109e-04 2.5844227884492281e-05 6.6468269046041052e-04
545 -6.5689823895185911e-04 -5.2775890665571884e-04 -5.3742730043787915e-04
546 -7.4826338001236054e-04 -4.2475708605887926e-04 -5.0646334022288087e-04
547 -7.5564395355495599e-04 -3.0056377862502063e-04 -5.8194594700683010e-04
548 -6.5967756587226572e-04 -2.7727055126556432e-04 -7.0295190588653229e-04
549 2.6349270855169767e-04 -8.1405409025264350e-04 5.1650939729954088e-04
550 5.8136167898480227e-04 6.0439236946873147e-04 5.4219441365243042e-04
551 8.6952005538239738e-04 3.6229352126665416e-04 -3.2146436521613043e-04
552 8.8685882355930335e-04 -2.4006478969162615e-04 3.8739930795461962e-04
553 1.5893228583815545e-04 -7.7349474376571319e-04 6.1614629079752596e-04
554 -4.4108594599577008e-04 -6.4743257386007586e-04 6.2459902616482041e-04
555 -3.8218617984086769e-04 -5.5921112633574774e-04 7.4113559132760708e-04
556 -8.3180429727169826e-04 -4.3145663326583532e-04 3.3629636891747381e-04
557 -6.0079014208493445e-04 -7.2041047632749871e-04 -3.3366489016726386e-04
558 -7.1971585521207119e-04 2.4915928579795815e-04 6.5014856458874579e-04
559 -6.7932350562520535e-04 -4.4544311610086114e-04 5.8329766788582638e-04
560 -5.8642477764461981e-04 -5.6322797412715873e-04 5.8367848261832401e-04
561 6.3021137537362909e-04 4.8096560737832382e-04 -6.1182726863605883e-04
562 -3.2376755217858284e-04 -6.8070803499040340e-04 -6.6108788652992280e-04
563 -4.8373380225232997e-04 5.1375350690317605e-04 7.1304606718469688e-04
564 7.2871856383294143e-04 -4.8413417359678587e-04 -4.8156003100857192e-04
565 -7.7890487994187148e-05 -2.7972567068318296e-04 9.6870709280847615e-04
566 -1.0558715612277673e-04 -4.0796867976121637e-04 9.1747544392892949e-04
567 -2.0573261242428061e-04 -3.1987446140501662e-04 9.3574805366684346e-04
568 -1.6643645452123467e-04 -6.4915790634335283e-04 7.4859700046915828e-04
569 3.9969435486332186e-04 -6.6686350526418375e-04 -6.3178813842133114e-04
570 -7.0638150466847298e-04 -1.0333555109053817e-04 7.0400938412216291e-04
571 5.3890499119308181e-04 3.1187591777094732e-04 7.8951649108201867e-04
572 4.8697648637934329e-04 -3.3729229849334115e-04 -8.1402120667650605e-04
573 1.2743927824300182e-04 -3.4320699703548340e-04 9.4187140502694563e-04
574 -7.4117067772068879e-04 1.9633479418316313e-04 -6.4347338522930558e-04
575 1.5275867970093634e-04 -4.7366009814856218e-04 -8.7722841650531903e-04
576 -4.4609566140448628e-04 -4.2567317748226028e-04 7.9535659090400085e-04
577 -3.2266156634954389e-04 3.6594014557061522e-04 -8.8204379929615856e-04
578 -2.5410067494956797e-04 2.3826462505887599e-04 -9.4811293613164386e-04
579 -3.1920388184017407e-04 1.5580339008669703e-04 -9.4522040031584100e-04
580 -4.8860959946293511e-04 1.1046852692042670e-05 -8.8149994331794415e-04
581 4.5320046946754260e-04 -5.5935853870745888e-04 7.0063808934652980e-04
582 4.7726560024153198e-04 -2.9372095999760590e-04 8.3703008287753990e-04
583 -4.4150828874326385e-04 1.3792471892369498e-04 -8.9589304487326454e-04
584 -4.1043462086617503e-04 1.9228198301559626e-04 9.0130115159044340e-04
585 -4.4987476752722332e-04 6.2152615354897758e-05 9.0077447039766322e-04
586 -3.3598149197495758e-04 -4.2223954522448734e-04 -8.5060534254380175e-04
587 2.7660048022987337e-05 9.4925122992087837e-04 2.9606227469175045e-04
588 -3.9554992740416098e-04 -7.6724357324037417e-05 -9.2559478140665083e-04
589 -2.5815764059938334e-04 -5.1314497247231329e-05 -9.7633266422030485e-04
590 -1.6189517898860140e-04 -1.2879156033768059e-04 -9.9049119957515569e-04
591 -1.6051448077002473e-04 4.2233155961363854e-04 9.0199246636994939e-04
592 -5.1518082683002845e-04 7.9092394724800997e-04 -3.1379741940983509e-04
593 -2.3500798412545156e-04 4.5792388610524571e-06 9.8372469173761668e-04
594 3.6093207260128550e-04 2.1485079691927787e-04 9.1807924901880279e-04
595 -7.9987224916193693e-04 5.6480145476372253e-04 1.6881335451013874e-04
596 4.2482231859285565e-04 -8.8177545248653805e-04 1.7868088148408794e-04
597 1.0002891351247026e-04 4.3585661066263096e-04 9.0461133177868898e-04
598 3.2567452205302090e-04 8.9929385999233918e-04 -2.7205683862053213e-04
599 1.8537039315894634e-04 -6.7016556307927539e-04 7.2463715108553133e-04
600 -5.2352145077669537e-04 -8.0904444885980032e-04 2.4790923647117835e-04
601 -8.4411409396434941e-04 4.0240192749815948e-04 -3.4004667716228522e-04
602 -8.1204877368221096e-04 3.4703888616931364e-04 -4.6245362930423490e-04
603 -7.4256166799342325e-04 -5.3564716207055521e-04 -3.9530394335655781e-04
604 -9.0682292989654621e-04 1.5302430289795406e-04 -3.8168988997746499e-04
605 -4.0462246495465170e-04 -9.0715695672457998e-04 2.7939379621357632e-05
606 -3.1147675245067911e-04 8.5248956639201001e-04 4.1086097356248945e-04
607 3.5426882032993474e-05 1.3945773891784101e-04 1.0015127430655938e-03
608 -5.6989995626831013e-05 7.7029472966826020e-04 6.3705358522318345e-04
609 -7.4916556426421173e-04 -1.7196264429452450e-04 -6.4185093929610554e-04
610 9.5007275414127161e-04 2.5945901881113426e-04 1.3909562289279683e-04
611 4.2103513985059876e-04 -8.6551810303133787e-05 -9.1331589007126435e-04
612 9.2471414083325162e-04 1.1930658340400014e-04 3.5104304959202704e-04
613 -3.7890626494075307e-04 -8.6848208102775597e-04 -3.0613756282472883e-04
614 4.6020664431404586e-05 -7.9539488291581072e-04 -6.0643068977872723e-04
615 4.6661965916350149e-04 -8.7681801342564007e-04 -4.1863445078030884e-05
616 -6.8018921652802488e-04 -6.9858595287088251e-04 -1.9844468531661112e-04
617 -9.3078338416375779e-04 -2.4745867758099656e-04 -2.4771795152257829e-04
618 -6.2013116758924684e-04 4.4610652349285024e-04 -6.4683711952898777e-04
619 1.8308604805550104e-04 -9.5119702382534521e-04 -2.2993992153118350e-04
620 -3.5721417169595078e-05 -9.3798012417668688e-04 3.3443050457166807e-04
621 3.9164896583096238e-04 -7.6338246920518670e-04 -5.1192973474433726e-04
622 -2.1886634580022552e-04 -4.3837031285319386e-04 8.8108737236900078e-04
623 7.9888340339567213e-04 -4.8211337062078596e-04 -3.4960527931329451e-04
624 9.2481381180457790e-04 1.2934172713726237e-04 -3.4684694851667503e-04
625 -4.0726380044259783e-04 6.1067833864474833e-04 6.8205548226999704e-04
626 -2.5080002998190593e-04 -5.5531198112880435e-04 8.0021461191389818e-04
627 -8.9286955685462515e-05 5.3257800730775891e-04 8.5017319119529730e-04
628 4.6687619699413869e-04 8.7544158968373600e-04 4.5175232880923767e-05
629 -9.5916586246470826e-04 4.9040441931146298e-05 2.5791183320752104e-04
630 -5.9416864179830825e-04 7.7953108462802700e-04 1.6089453683939205e-04
631 -8.3280858338766618e-04 -1.9488700155851488e-04 -5.1520463121234596e-04
632 -4.0870781338346341e-04 8.6992280886000585e-04 -2.5341815212733481e-04
633 9.2567063974350282e-04 2.4295535388801077e-04 -2.7204579125066259e-04
634 -3.1999566209013782e-04 1.0007622777720788e-04 9.5323425749304735e-04
635 3.9176127789961789e-04 -9.1192022937481416e-04 5.9019562302155391e-05
636 -6.8267751122492169e-05 -9.7162695710439407e-04 2.0274736673263862e-04
637 -4.8348540696498262e-04 -6.5061979045778144e-05 8.8221615374456733e-04
638 4.4329914787629858e-04 2.6137309474594581e-04 -8.6502717064868093e-04
639 4.4021102121450262e-04 -1.0476132890708072e-04 9.0205167189364691e-04
640 -6.5487103536988910e-05 6.6363543568762171e-04 -7.5048503581864271e-04
641 -9.5562952474560531e-04 2.1934473986268390e-04 -1.5962582531763844e-04
642 -8.7817684155319610e-04 2.7994438942339112e-04 -3.7614305391351190e-04
643 2.8201717440641078e-04 -7.2362508270911114e-04 6.3285113358449430e-04
644 5.6669882729514735e-04 -4.5444043819533317e-04 6.9189043271020352e-04
645 6.1160449676703752e-04 2.2571309317531287e-04 -7.6438697809459591e-04
646 -2.0523244974800724e-04 1.2369446095879637e-04 9.8252071916734782e-04
647 2.5018383284090095e-05 5.4549532819561761e-04 8.4622837339971152e-04
648 -7.4795100074625945e-04 5.9184549877901507e-04 2.7901675992351408e-04
649 -2.6022214393760706e-04 9.5469549725734520e-04 8.2164689498187476e-05
650 9.3100345761674725e-04 -2.3477165904574562e-04 2.6223801558640606e-04
651 -4.6887723501708427e-04 -8.5713169863887171e-04 -1.8854433981792168e-04
652 -8.7428700825540641e-04 -3.4295950038741829e-04 -3.2938793243245145e-04
653 -1.8579663735008694e-04 1.1686908102936691e-04 -9.8724132796872035e-04
654 8.4927037793730586e-04 -4.6834759246238897e-04 -2.2126019383391553e-04
655 -7.1803490269866743e-04 4.1222687627833442e-04 -5.5842184176921024e-04
656 6.5742783793620082e-04 -1.3217927916085479e-04 -7.4827675781879142e-04
657 -7.4980922831784644e-04 -5.4296830496596547e-04 3.6729533477815009e-04
658 -3.7126676805271944e-04 3.6525409492715683e-05 -9.3810394296538896e-04
659 -1.3995348345249327e-04 8.6593281844571911e-06 -1.0027538285626255e-03
660 -4.3887693085192105e-05 2.5779985999306072e-05 -1.0102814427925730e-03
661 8.4802525345440696e-04 -5.1792952921240988e-04 -1.0729025646083840e-05
662 5.3772880427226681e-05 -2.3375868020925763e-04 9.8311379067101117e-04
663 5.1653100915871435e-04 8.3184495348529570e-04 -1.6782941842590865e-04
664 -2.8031486249388663e-04 9.5089561978094368e-04 -5.2731255314352153e-05
665 -2.9418247846365724e-04 9.3063974983951310e-04 -1.8455639508687272e-04
666 -6.5470127454314838e-05 1.2216379389578231e-04 -1.0027321574516358e-03
667 2.6287643585106059e-04 -8.3083203636366402e-04 -4.8749840749269914e-04
668 -5.6801333505811116e-04 3.4270256375376904e-05 8.3007957842953371e-04
669 -8.2671078340729621e-04 -3.1335462048353435e-04 -4.6140789610960513e-04
670 -5.0160403359948648e-04 8.5194678756252585e-04 9.1745200865140503e-05
671 -9.6169251725821813e-04 1.5583964544628313e-04 1.9207411299945797e-04
672 5.5585790114476090e-04 -3.5886262862733968e-04 7.5531960600582035e-04
673 -9.0219082661258692e-06 2.3555416404672538e-04 -9.8311902759085209e-04
674 -1.9543603641012492e-04 -9.6059351244622102e-04 1.6717677060059053e-04
675 4.1233580820202381e-04 7.4479167649387705e-04 5.2048891378570644e-04
676 7.8408792123768676e-05 7.3485157831753884e-04 6.7708779841358215e-04
677 4.6936451241558555e-04 2.1827480237928288e-04 8.6458846309056406e-04
678 -4.8643717673363141e-04 -7.8762185034828285e-04 3.6791210321333179e-04
679 3.1189340006106765e-04 -7.6586054944961289e-05 -9.5831679800889016e-04
680 3.9672651417453040e-04 -6.6689879801612863e-04 6.3240333405696766e-04
681 -8.7853403308892715e-04 1.5533480339840068e-04 4.4314779322974916e-04
682 -8.9455126841962837e-04 4.2901509622984314e-04 1.5988920878288887e-05
683 -7.1087701288601902e-05 2.0378163783770570e-05 1.0088914259503688e-03
684 3.5118062140168036e-04 -9.2832874037833250e-04 -5.2758238739422856e-05
685 4.1039747920329896e-04 8.8500932627380709e-04 -1.8456120379871325e-04
686 1.6754898433379232e-04 -7.9682116019579258e-04 -5.7972672486825865e-04
687 1.8215171389953730e-04 9.6703638923573143e-04 -1.2871983595647213e-04
688 -8.1094223937461728e-04 -4.2089426118161691e-04 -3.9520057723952361e-04
689 -5.4526099051812531e-04 -6.5061040458225705e-04 5.2468971888875013e-04
690 5.8011880044163844e-04 -6.8750272520277499e-04 4.2999499040044590e-04
691 9.5721629953769184e-04 -2.2624630023157846e-04 1.4362849816612383e-04
692 -6.8639543831769943e-04 -5.3292422227677353e-04 4.8944177745468805e-04
693 9.2982399151213995e-04 2.2170352646851051e-04 2.7354212532609460e-04
694 -1.7567074250591442e-04 9.6996323956079591e-04 -1.1781743148052844e-04
695 9.0885373571165766e-04 3.4863587776316394e-04 -1.9782851992501007e-04
696 -4.2845113076196553e-05 6.6070735456559798e-04 7.5640436249981512e-04
697 -3.3163622005701125e-04 -4.7522251304297813e-04 8.2174995812445768e-04
698 9.3014546074881937e-04 3.4944806985173332e-04 1.5717313534137074e-05
699 -4.8900903257273866e-04 -5.3494891757686794e-04 6.9198519526137033e-04
700 -6.6121606528411910e-04 -7.5528086628152055e-07 7.5438762058133700e-04
701 5.6974506212434460e-04 -5.5864466266445593e-04 6.0347640415606206e-04
702 -6.8875692192723215e-04 -6.4179266270618460e-04 -3.2133240017799390e-04
703 -7.6307523023739772e-04 2.9986952389047687e-04 -5.6928732382205719e-04
704 5.1485093726395425e-05 3.4390095074451172e-04 -9.4803847774167901e-04
705 3.1247873275757395e-04 6.3907782650398791e-04 -7.0542423130589248e-04
706 -3.1594145123087290e-04 6.9625556011787418e-04 6.4491066917921828e-04
707 1.1477722610565928e-04 -9.2849193446087710e-04 -3.3986048623105655e-04
708 -6.8116005319609086e-04 7.1491254420633836e-04 9.4947703775682070e-05
709 1.0380356295794450e-05 7.4620191893005558e-04 -6.6673511331728069e-04
710 -4.0247465738945065e-04 7.8252952714870903e-04 4.6765475828509581e-04
711 -9.2826313043802499e-04 2.2397050354331464e-04 -2.7375427033875672e-04
712 7.7499189341820860e-04 1.0702552385228996e-04 6.2418385264087755e-04
713 -2.2154167176873671e-04 -7.5244183621622578e-04 -6.2086578078613959e-04
714 6.3451842432082092e-04 3.4498453580212424e-04 -6.9574216284165266e-04
715 -2.1160108900195068e-04 -9.6869742077420923e-04 5.7289328490200278e-05
716 -2.3673189834292818e-04 3.9649169386676424e-05 -9.8176521879808436e-04
717 -4.0109544006368170e-04 -9.0413122648232353e-04 -8.9629090110777217e-05
718 4.9583363682495084e-04 -2.0340777744266682e-04 8.5265065641132367e-04
719 7.2883306265091193e-04 -5.6592756167515434e-04 3.7531346981850946e-04
720 8.4295370950847087e-04 5.0171015855253822e-04 1.5298271723689595e-04
721 2.3947867576643944e-04 -1.6092072030405764e-04 -9.6800573508941292e-04
722 -5.7337388026041389e-04 -7.7809020268991981e-04 -2.3173799439862172e-04
723 4.4048433125623396e-05 7.3801528370292919e-05 -1.0080643209194769e-03
724 -1.8370685443170866e-04 7.1741806067073335e-04 6.7614769439429347e-04
725 8.7173145292483939e-04 -4.6317364848745058e-04 -1.0967115719038747e-04
726 5.7262942734314889e-04 2.1477954270746202e-04 7.9757922542387930e-04
727 7.8724496020530273e-04 5.5951556476695349e-04 2.3422830893764720e-04
728 5.4133257164464704e-04 5.9842100409542574e-04 -5.8926349813145679e-04
729 4.4585068486452340e-04 1.0373667141994034e-04 -8.9796903947064548e-04
730 7.1880983311843670e-04 6.1038624109896553e-04 3.1539601976686774e-04
731 -2.6422571172364425e-04 -6.1250054016093256e-04 -7.4847563337569832e-04
732 3.4299457012425537e-04 6.3312842152102138e-04 6.9666494642073491e-04
733 -7.3503918744943151e-05 9.7270857239446372e-04 -1.8288227014710831e-04
734 -2.3829491356799998e-04 -4.7326642609238421e-04 -8.5599646734938015e-04
735 9.5527844724386407e-04 -2.2476199474866508e-04 -1.5443563179990950e-04
736 9.6703888195308438e-04 -2.2229226322036788e-04 3.4826703753751551e-05
737 -2.5440271560776548e-05 -8.3122173998931076e-05 1.0080236114991656e-03
738 -5.0401700454738053e-04 -8.5424071379122115e-04 4.6090086262002615e-05
739 5.0126396042355595e-04 1.9706115035633955e-04 -8.5043359405799024e-04
740 -7.6315632938091758e-04 1.3563646474322916e-04 6.3189281217773891e-04
741 -1.4475410749360845e-04 3.3009753571643280e-05 1.0003390436749576e-03
742 -5.4769258638709851e-04 -7.1131266086669987e-04 4.3158217162295030e-04
743 -1.5597089470006376e-06 4.3001609558549619e-04 -9.1161003702540963e-04
744 2.9748983351431905e-04 -9.3474731715704248e-04 -1.5804227314160805e-04
745 -8.1257507308212499e-05 -6.7900639441711638e-04 -7.3261759186722111e-04
$EndNodes
$Elements
1486
1 2 2 0 0 410 440 345
2 2 2 0 0 421 541 409
3 2 2 0 0 409 682 421
4 2 2 0 0 545 603 546
5 2 2 0 0 426 427 294
6 2 2 0 0 294 454 426
7 2 2 0 0 265 682 409
8 2 2 0 0 24 41 4
9 2 2 0 0 3 24 4
10 2 2 0 0 238 642 602
11 2 2 0 0 520 651 613
12 2 2 0 0 653 666 659
13 2 2 0 0 404 460 98
14 2 2 0 0 222 482 219
15 2 2 0 0 40 463 9
16 2 2 0 0 608 724 696
17 2 2 0 0 435 709 69
18 2 2 0 0 413 439 29
19 2 2 0 0 345 710 410
20 2 2 0 0 422 463 40
21 2 2 0 0 98 550 404
22 2 2 0 0 95 724 608
23 2 2 0 0 4 41 5
24 2 2 0 0 232 701 581
25 2 2 0 0 490 698 488
26 2 2 0 0 29 436 413
27 2 2 0 0 416 421 342
28 2 2 0 0 312 595 441
29 2 2 0 0 41 486 5
30 2 2 0 0 405 605 519
31 2 2 0 0 409 595 265
32 2 2 0 0 69 481 435
33 2 2 0 0 434 743 339
34 2 2 0 0 342 641 416
35 2 2 0 0 485 656 370
36 2 2 0 0 89 587 90
37 2 2 0 0 108 466 317
38 2 2 0 0 378 629 529
39 2 2 0 0 581 680 232
40 2 2 0 0 281 434 339
41 2 2 0 0 638 739 486
42 2 2 0 0 659 666 660
43 2 2 0 0 345 440 346
44 2 2 0 0 22 44 25
45 2 2 0 0 9 463 8
46 2 2 0 0 44 81 25
47 2 2 0 0 459 587 89
48 2 2 0 0 127 670 630
49 2 2 0 0 508 662 509
50 2 2 0 0 375 662 508
51 2 2 0 0 492 598 103
52 2 2 0 0 604 642 238
53 2 2 0 0 507 510 399
54 2 2 0 0 488 698 489
55 2 2 0 0 34 473 415
56 2 2 0 0 399 639 507
57 2 2 0 0 603 688 546
58 2 2 0 0 316 541 421
59 2 2 0 0 647 696 627
60 2 2 0 0 403 439 352
61 2 2 0 0 221 603 545
62 2 2 0 0 595 648 441
63 2 2 0 0 412 550 98
64 2 2 0 0 411 714 397
65 2 2 0 0 486 739 729
66 2 2 0 0 696 724 401
67 2 2 0 0 247 482 222
68 2 2 0 0 397 714 645
69 2 2 0 0 613 651 212
70 2 2 0 0 207 745 425
71 2 2 0 0 98 675 412
72 2 2 0 0 219 482 230
73 2 2 0 0 560 692 432
74 2 2 0 0 432 689 560
75 2 2 0 0 454 575 426
76 2 2 0 0 352 439 413
77 2 2 0 0 415 420 2
78 2 2 0 0 40 464 422
79 2 2 0 0 89 512 459
80 2 2 0 0 425 614 207
81 2 2 0 0 377 600 453
82 2 2 0 0 89 90 88
83 2 2 0 0 80 466 108
84 2 2 0 0 520 717 651
85 2 2 0 0 602 703 238
86 2 2 0 0 103 687 492
87 2 2 0 0 253 491 424
88 2 2 0 0 69 709 466
89 2 2 0 0 424 512 253
90 2 2 0 0 369 696 647
91 2 2 0 0 581 701 644
92 2 2 0 0 630 670 392
93 2 2 0 0 32 656 485
94 2 2 0 0 459 512 424
95 2 2 0 0 90 91 88
96 2 2 0 0 427 478 294
97 2 2 0 0 488 695 490
98 2 2 0 0 554 699 560
99 2 2 0 0 67 80 79
100 2 2 0 0 252 454 294
101 2 2 0 0 253 628 491
102 2 2 0 0 529 681 378
103 2 2 0 0 519 715 405
104 2 2 0 0 440 441 346
105 2 2 0 0 605 717 519
106 2 2 0 0 403 452 439
107 2 2 0 0 507 639 21
108 2 2 0 0 565 567 566
109 2 2 0 0 433 454 341
110 2 2 0 0 67 466 80
111 2 2 0 0 555 697 576
112 2 2 0 0 491 628 493
113 2 2 0 0 389 641 342
114 2 2 0 0 429 619 474
115 2 2 0 0 40 501 464
116 2 2 0 0 576 699 555
117 2 2 0 0 311 600 377
118 2 2 0 0 567 622 566
119 2 2 0 0 433 575 454
120 2 2 0 0 378 671 629
121 2 2 0 0 79 540 103
122 2 2 0 0 341 473 433
123 2 2 0 0 673 704 68
124 2 2 0 0 462 710 345
125 2 2 0 0 557 722 616
126 2 2 0 0 573 662 343
127 2 2 0 0 370 656 463
128 2 2 0 0 341 454 252
129 2 2 0 0 616 702 557
130 2 2 0 0 6 26 7
131 2 2 0 0 464 501 467
132 2 2 0 0 433 473 406
133 2 2 0 0 8 45 37
134 2 2 0 0 466 709 317
135 2 2 0 0 457 461 379
136 2 2 0 0 84 512 86
137 2 2 0 0 19 452 33
138 2 2 0 0 380 614 425
139 2 2 0 0 83 540 79
140 2 2 0 0 398 510 509
141 2 2 0 0 609 631 137
142 2 2 0 0 18 442 36
143 2 2 0 0 26 45 7
144 2 2 0 0 565 566 343
145 2 2 0 0 80 83 79
146 2 2 0 0 560 689 554
147 2 2 0 0 134 137 136
148 2 2 0 0 68 469 42
149 2 2 0 0 659 716 653
150 2 2 0 0 619 707 474
151 2 2 0 0 497 610 39
152 2 2 0 0 137 138 136
153 2 2 0 0 283 573 343
154 2 2 0 0 506 644 448
155 2 2 0 0 499 735 31
156 2 2 0 0 81 97 25
157 2 2 0 0 45 46 37
158 2 2 0 0 585 668 637
159 2 2 0 0 495 735 499
160 2 2 0 0 399 510 398
161 2 2 0 0 509 573 398
162 2 2 0 0 442 443 36
163 2 2 0 0 1 607 314
164 2 2 0 0 29 612 436
165 2 2 0 0 547 631 609
166 2 2 0 0 360 595 409
167 2 2 0 0 421 682 342
168 2 2 0 0 426 575 327
169 2 2 0 0 123 577 235
170 2 2 0 0 339 743 417
171 2 2 0 0 7 45 8
172 2 2 0 0 3 723 24
173 2 2 0 0 418 666 653
174 2 2 0 0 59 60 58
175 2 2 0 0 620 636 193
176 2 2 0 0 42 469 47
177 2 2 0 0 65 67 66
178 2 2 0 0 509 662 573
179 2 2 0 0 470 482 247
180 2 2 0 0 368 476 472
181 2 2 0 0 530 740 337
182 2 2 0 0 253 512 84
183 2 2 0 0 455 698 282
184 2 2 0 0 61 65 62
185 2 2 0 0 59 61 60
186 2 2 0 0 91 472 88
187 2 2 0 0 90 92 91
188 2 2 0 0 19 442 18
189 2 2 0 0 464 465 423
190 2 2 0 0 706 724 118
191 2 2 0 0 456 611 32
192 2 2 0 0 379 477 61
193 2 2 0 0 417 743 704
194 2 2 0 0 314 683 1
195 2 2 0 0 442 458 443
196 2 2 0 0 11 28 12
197 2 2 0 0 61 62 60
198 2 2 0 0 118 724 95
199 2 2 0 0 22 25 23
200 2 2 0 0 247 483 470
201 2 2 0 0 281 640 434
202 2 2 0 0 197 667 474
203 2 2 0 0 86 512 89
204 2 2 0 0 417 704 673
205 2 2 0 0 451 690 230
206 2 2 0 0 27 442 19
207 2 2 0 0 637 668 229
208 2 2 0 0 60 475 58
209 2 2 0 0 489 610 497
210 2 2 0 0 307 573 283
211 2 2 0 0 61 477 65
212 2 2 0 0 65 66 62
213 2 2 0 0 544 740 530
214 2 2 0 0 230 719 451
215 2 2 0 0 18 452 19
216 2 2 0 0 268 569 269
217 2 2 0 0 32 485 456
218 2 2 0 0 627 696 401
219 2 2 0 0 24 42 41
220 2 2 0 0 20 27 19
221 2 2 0 0 330 461 457
222 2 2 0 0 506 672 644
223 2 2 0 0 472 476 87
224 2 2 0 0 468 495 494
225 2 2 0 0 88 472 87
226 2 2 0 0 121 577 123
227 2 2 0 0 327 575 276
228 2 2 0 0 422 464 423
229 2 2 0 0 47 63 49
230 2 2 0 0 458 506 443
231 2 2 0 0 232 690 451
232 2 2 0 0 28 487 12
233 2 2 0 0 80 107 83
234 2 2 0 0 608 696 676
235 2 2 0 0 356 481 355
236 2 2 0 0 138 238 136
237 2 2 0 0 137 139 138
238 2 2 0 0 729 739 26
239 2 2 0 0 81 99 97
240 2 2 0 0 46 50 37
241 2 2 0 0 463 656 8
242 2 2 0 0 443 444 36
243 2 2 0 0 68 704 469
244 2 2 0 0 24 68 42
245 2 2 0 0 16 503 30
246 2 2 0 0 65 69 67
247 2 2 0 0 67 79 66
248 2 2 0 0 676 696 369
249 2 2 0 0 59 379 61
250 2 2 0 0 90 93 92
251 2 2 0 0 464 467 465
252 2 2 0 0 441 708 312
253 2 2 0 0 483 484 471
254 2 2 0 0 427 479 478
255 2 2 0 0 245 564 244
256 2 2 0 0 470 483 471
257 2 2 0 0 473 721 406
258 2 2 0 0 555 699 554
259 2 2 0 0 47 469 63
260 2 2 0 0 63 355 49
261 2 2 0 0 62 64 60
262 2 2 0 0 80 108 107
263 2 2 0 0 107 539 83
264 2 2 0 0 139 140 138
265 2 2 0 0 99 100 97
266 2 2 0 0 81 236 99
267 2 2 0 0 46 51 50
268 2 2 0 0 443 445 444
269 2 2 0 0 24 419 68
270 2 2 0 0 69 466 67
271 2 2 0 0 79 103 66
272 2 2 0 0 65 477 69
273 2 2 0 0 547 548 321
274 2 2 0 0 93 94 92
275 2 2 0 0 467 468 465
276 2 2 0 0 333 664 649
277 2 2 0 0 55 498 56
278 2 2 0 0 56 498 72
279 2 2 0 0 12 499 31
280 2 2 0 0 63 356 355
281 2 2 0 0 108 110 107
282 2 2 0 0 139 141 140
283 2 2 0 0 100 101 97
284 2 2 0 0 236 248 99
285 2 2 0 0 81 594 236
286 2 2 0 0 51 52 50
287 2 2 0 0 192 515 195
288 2 2 0 0 445 446 444
289 2 2 0 0 477 481 69
290 2 2 0 0 94 95 92
291 2 2 0 0 93 96 94
292 2 2 0 0 63 408 356
293 2 2 0 0 108 111 110
294 2 2 0 0 110 117 107
295 2 2 0 0 139 154 141
296 2 2 0 0 141 142 140
297 2 2 0 0 51 53 52
298 2 2 0 0 100 102 101
299 2 2 0 0 236 250 248
300 2 2 0 0 445 447 446
301 2 2 0 0 52 388 50
302 2 2 0 0 277 622 567
303 2 2 0 0 95 608 92
304 2 2 0 0 94 118 95
305 2 2 0 0 93 104 96
306 2 2 0 0 51 561 53
307 2 2 0 0 408 434 356
308 2 2 0 0 53 54 52
309 2 2 0 0 445 448 447
310 2 2 0 0 108 317 111
311 2 2 0 0 141 143 142
312 2 2 0 0 142 225 140
313 2 2 0 0 102 166 101
314 2 2 0 0 250 325 248
315 2 2 0 0 100 258 102
316 2 2 0 0 53 55 54
317 2 2 0 0 447 449 446
318 2 2 0 0 236 505 250
319 2 2 0 0 104 105 96
320 2 2 0 0 53 57 55
321 2 2 0 0 55 56 54
322 2 2 0 0 448 451 447
323 2 2 0 0 14 39 15
324 2 2 0 0 317 511 111
325 2 2 0 0 10 40 9
326 2 2 0 0 143 144 142
327 2 2 0 0 57 58 55
328 2 2 0 0 8 37 9
329 2 2 0 0 14 38 13
330 2 2 0 0 166 314 101
331 2 2 0 0 18 36 17
332 2 2 0 0 16 29 17
333 2 2 0 0 33 504 20
334 2 2 0 0 325 365 248
335 2 2 0 0 199 202 196
336 2 2 0 0 7 32 6
337 2 2 0 0 434 435 356
338 2 2 0 0 74 75 73
339 2 2 0 0 223 239 234
340 2 2 0 0 74 76 75
341 2 2 0 0 72 74 73
342 2 2 0 0 231 549 201
343 2 2 0 0 202 205 204
344 2 2 0 0 226 227 214
345 2 2 0 0 272 275 271
346 2 2 0 0 276 318 275
347 2 2 0 0 213 214 209
348 2 2 0 0 76 77 75
349 2 2 0 0 210 231 201
350 2 2 0 0 16 30 15
351 2 2 0 0 205 209 208
352 2 2 0 0 202 204 196
353 2 2 0 0 318 406 340
354 2 2 0 0 195 196 193
355 2 2 0 0 322 420 415
356 2 2 0 0 239 240 234
357 2 2 0 0 163 588 168
358 2 2 0 0 12 31 11
359 2 2 0 0 56 72 71
360 2 2 0 0 425 426 327
361 2 2 0 0 19 33 20
362 2 2 0 0 168 224 215
363 2 2 0 0 209 568 216
364 2 2 0 0 318 433 406
365 2 2 0 0 269 271 270
366 2 2 0 0 268 269 245
367 2 2 0 0 21 639 20
368 2 2 0 0 84 85 82
369 2 2 0 0 181 207 183
370 2 2 0 0 269 272 271
371 2 2 0 0 272 276 275
372 2 2 0 0 242 243 240
373 2 2 0 0 102 167 166
374 2 2 0 0 223 234 233
375 2 2 0 0 283 343 227
376 2 2 0 0 205 208 204
377 2 2 0 0 213 226 214
378 2 2 0 0 271 572 347
379 2 2 0 0 243 268 245
380 2 2 0 0 335 398 307
381 2 2 0 0 303 555 554
382 2 2 0 0 226 283 227
383 2 2 0 0 347 485 370
384 2 2 0 0 195 199 196
385 2 2 0 0 205 213 209
386 2 2 0 0 246 322 252
387 2 2 0 0 76 78 77
388 2 2 0 0 133 163 135
389 2 2 0 0 163 168 164
390 2 2 0 0 322 415 341
391 2 2 0 0 227 361 214
392 2 2 0 0 191 198 189
393 2 2 0 0 78 84 82
394 2 2 0 0 209 216 208
395 2 2 0 0 78 82 77
396 2 2 0 0 216 303 266
397 2 2 0 0 417 418 362
398 2 2 0 0 314 607 101
399 2 2 0 0 339 362 280
400 2 2 0 0 243 245 244
401 2 2 0 0 187 291 185
402 2 2 0 0 429 430 359
403 2 2 0 0 143 145 144
404 2 2 0 0 202 553 205
405 2 2 0 0 339 417 362
406 2 2 0 0 131 580 133
407 2 2 0 0 239 242 240
408 2 2 0 0 57 59 58
409 2 2 0 0 224 246 215
410 2 2 0 0 84 86 85
411 2 2 0 0 303 554 266
412 2 2 0 0 72 73 71
413 2 2 0 0 437 438 414
414 2 2 0 0 318 340 275
415 2 2 0 0 269 270 245
416 2 2 0 0 86 87 85
417 2 2 0 0 192 193 191
418 2 2 0 0 123 235 129
419 2 2 0 0 263 374 262
420 2 2 0 0 425 427 426
421 2 2 0 0 149 150 147
422 2 2 0 0 210 232 231
423 2 2 0 0 74 373 76
424 2 2 0 0 168 215 169
425 2 2 0 0 259 262 249
426 2 2 0 0 145 146 144
427 2 2 0 0 367 524 289
428 2 2 0 0 271 347 270
429 2 2 0 0 406 407 340
430 2 2 0 0 334 459 424
431 2 2 0 0 429 474 430
432 2 2 0 0 250 328 325
433 2 2 0 0 431 432 367
434 2 2 0 0 104 278 105
435 2 2 0 0 145 147 146
436 2 2 0 0 151 152 150
437 2 2 0 0 235 583 129
438 2 2 0 0 237 249 228
439 2 2 0 0 149 151 150
440 2 2 0 0 159 161 158
441 2 2 0 0 153 155 152
442 2 2 0 0 156 158 155
443 2 2 0 0 354 367 289
444 2 2 0 0 259 263 262
445 2 2 0 0 190 191 189
446 2 2 0 0 177 221 174
447 2 2 0 0 162 228 161
448 2 2 0 0 124 516 386
449 2 2 0 0 418 653 578
450 2 2 0 0 371 584 295
451 2 2 0 0 151 153 152
452 2 2 0 0 153 156 155
453 2 2 0 0 159 162 161
454 2 2 0 0 374 593 262
455 2 2 0 0 156 159 158
456 2 2 0 0 237 259 249
457 2 2 0 0 146 284 160
458 2 2 0 0 266 309 267
459 2 2 0 0 264 265 257
460 2 2 0 0 86 88 87
461 2 2 0 0 265 312 257
462 2 2 0 0 162 237 228
463 2 2 0 0 21 44 22
464 2 2 0 0 324 392 390
465 2 2 0 0 371 585 584
466 2 2 0 0 262 366 249
467 2 2 0 0 192 195 193
468 2 2 0 0 263 375 374
469 2 2 0 0 216 266 217
470 2 2 0 0 326 327 276
471 2 2 0 0 260 646 166
472 2 2 0 0 220 223 222
473 2 2 0 0 322 341 252
474 2 2 0 0 256 257 255
475 2 2 0 0 78 253 84
476 2 2 0 0 358 359 242
477 2 2 0 0 188 189 187
478 2 2 0 0 281 339 280
479 2 2 0 0 146 160 144
480 2 2 0 0 123 129 128
481 2 2 0 0 255 324 254
482 2 2 0 0 228 229 161
483 2 2 0 0 354 431 367
484 2 2 0 0 163 164 135
485 2 2 0 0 155 157 152
486 2 2 0 0 243 244 240
487 2 2 0 0 256 264 257
488 2 2 0 0 284 316 160
489 2 2 0 0 380 425 327
490 2 2 0 0 148 149 147
491 2 2 0 0 335 399 398
492 2 2 0 0 418 578 362
493 2 2 0 0 334 424 396
494 2 2 0 0 167 260 166
495 2 2 0 0 325 368 365
496 2 2 0 0 428 429 359
497 2 2 0 0 165 255 254
498 2 2 0 0 297 342 264
499 2 2 0 0 298 371 295
500 2 2 0 0 218 323 220
501 2 2 0 0 310 337 302
502 2 2 0 0 165 256 255
503 2 2 0 0 186 187 185
504 2 2 0 0 56 71 70
505 2 2 0 0 165 254 125
506 2 2 0 0 200 201 199
507 2 2 0 0 148 206 149
508 2 2 0 0 324 390 364
509 2 2 0 0 190 192 191
510 2 2 0 0 368 369 365
511 2 2 0 0 353 404 351
512 2 2 0 0 104 331 278
513 2 2 0 0 256 297 264
514 2 2 0 0 316 421 416
515 2 2 0 0 239 358 242
516 2 2 0 0 169 586 171
517 2 2 0 0 286 287 206
518 2 2 0 0 324 364 254
519 2 2 0 0 241 576 162
520 2 2 0 0 168 169 164
521 2 2 0 0 121 123 122
522 2 2 0 0 266 267 217
523 2 2 0 0 129 131 130
524 2 2 0 0 216 217 208
525 2 2 0 0 285 382 313
526 2 2 0 0 172 321 170
527 2 2 0 0 390 391 364
528 2 2 0 0 296 563 300
529 2 2 0 0 246 252 251
530 2 2 0 0 285 286 206
531 2 2 0 0 288 289 287
532 2 2 0 0 298 372 371
533 2 2 0 0 23 35 22
534 2 2 0 0 300 344 304
535 2 2 0 0 344 462 345
536 2 2 0 0 123 128 122
537 2 2 0 0 297 389 342
538 2 2 0 0 237 277 259
539 2 2 0 0 148 285 206
540 2 2 0 0 86 89 88
541 2 2 0 0 306 307 283
542 2 2 0 0 234 279 233
543 2 2 0 0 316 416 160
544 2 2 0 0 188 190 189
545 2 2 0 0 85 98 82
546 2 2 0 0 358 428 359
547 2 2 0 0 437 455 438
548 2 2 0 0 203 210 201
549 2 2 0 0 382 383 313
550 2 2 0 0 153 176 156
551 2 2 0 0 290 354 289
552 2 2 0 0 159 241 162
553 2 2 0 0 386 387 126
554 2 2 0 0 273 363 338
555 2 2 0 0 272 326 276
556 2 2 0 0 171 293 173
557 2 2 0 0 145 148 147
558 2 2 0 0 274 295 261
559 2 2 0 0 285 313 286
560 2 2 0 0 383 384 313
561 2 2 0 0 301 302 299
562 2 2 0 0 131 133 132
563 2 2 0 0 296 298 295
564 2 2 0 0 305 310 302
565 2 2 0 0 349 412 328
566 2 2 0 0 344 345 304
567 2 2 0 0 77 119 75
568 2 2 0 0 315 378 310
569 2 2 0 0 363 401 400
570 2 2 0 0 332 333 278
571 2 2 0 0 223 233 222
572 2 2 0 0 331 334 332
573 2 2 0 0 186 188 187
574 2 2 0 0 178 212 177
575 2 2 0 0 305 360 315
576 2 2 0 0 334 396 395
577 2 2 0 0 246 251 215
578 2 2 0 0 167 261 260
579 2 2 0 0 175 179 178
580 2 2 0 0 345 346 304
581 2 2 0 0 124 386 126
582 2 2 0 0 286 288 287
583 2 2 0 0 331 332 278
584 2 2 0 0 179 181 180
585 2 2 0 0 301 305 302
586 2 2 0 0 300 304 301
587 2 2 0 0 296 300 299
588 2 2 0 0 305 315 310
589 2 2 0 0 296 299 298
590 2 2 0 0 320 453 290
591 2 2 0 0 274 296 295
592 2 2 0 0 313 531 286
593 2 2 0 0 120 281 280
594 2 2 0 0 360 409 315
595 2 2 0 0 363 400 338
596 2 2 0 0 129 130 128
597 2 2 0 0 300 301 299
598 2 2 0 0 1 508 23
599 2 2 0 0 167 273 261
600 2 2 0 0 133 135 134
601 2 2 0 0 173 174 172
602 2 2 0 0 311 377 376
603 2 2 0 0 273 274 261
604 2 2 0 0 273 338 274
605 2 2 0 0 334 395 332
606 2 2 0 0 183 197 184
607 2 2 0 0 319 393 320
608 2 2 0 0 449 450 446
609 2 2 0 0 288 290 289
610 2 2 0 0 226 306 283
611 2 2 0 0 326 380 327
612 2 2 0 0 175 177 174
613 2 2 0 0 181 183 182
614 2 2 0 0 219 230 211
615 2 2 0 0 308 335 307
616 2 2 0 0 267 311 292
617 2 2 0 0 169 170 164
618 2 2 0 0 288 319 290
619 2 2 0 0 126 165 125
620 2 2 0 0 120 280 121
621 2 2 0 0 130 357 128
622 2 2 0 0 195 200 199
623 2 2 0 0 169 171 170
624 2 2 0 0 171 172 170
625 2 2 0 0 184 186 185
626 2 2 0 0 73 282 71
627 2 2 0 0 252 294 251
628 2 2 0 0 319 320 290
629 2 2 0 0 131 132 130
630 2 2 0 0 393 394 320
631 2 2 0 0 171 173 172
632 2 2 0 0 4 34 3
633 2 2 0 0 218 220 219
634 2 2 0 0 267 292 217
635 2 2 0 0 184 185 182
636 2 2 0 0 188 194 190
637 2 2 0 0 56 70 54
638 2 2 0 0 377 405 376
639 2 2 0 0 449 470 450
640 2 2 0 0 179 180 178
641 2 2 0 0 173 175 174
642 2 2 0 0 175 178 177
643 2 2 0 0 250 329 328
644 2 2 0 0 311 376 292
645 2 2 0 0 329 571 350
646 2 2 0 0 347 370 348
647 2 2 0 0 220 222 219
648 2 2 0 0 376 385 292
649 2 2 0 0 133 134 132
650 2 2 0 0 134 136 132
651 2 2 0 0 306 308 307
652 2 2 0 0 200 203 201
653 2 2 0 0 233 247 222
654 2 2 0 0 98 460 82
655 2 2 0 0 329 349 328
656 2 2 0 0 326 381 380
657 2 2 0 0 347 348 270
658 2 2 0 0 181 182 180
659 2 2 0 0 121 122 115
660 2 2 0 0 350 351 349
661 2 2 0 0 308 336 335
662 2 2 0 0 350 403 352
663 2 2 0 0 470 471 450
664 2 2 0 0 203 211 210
665 2 2 0 0 218 219 211
666 2 2 0 0 183 184 182
667 2 2 0 0 370 463 422
668 2 2 0 0 306 402 308
669 2 2 0 0 203 218 211
670 2 2 0 0 71 490 70
671 2 2 0 0 329 350 349
672 2 2 0 0 436 437 414
673 2 2 0 0 124 126 125
674 2 2 0 0 413 414 353
675 2 2 0 0 422 423 348
676 2 2 0 0 352 353 351
677 2 2 0 0 370 422 348
678 2 2 0 0 350 352 351
679 2 2 0 0 413 436 414
680 2 2 0 0 352 413 353
681 2 2 0 0 120 121 115
682 2 2 0 0 110 480 117
683 2 2 0 0 124 125 116
684 2 2 0 0 126 521 165
685 2 2 0 0 113 120 115
686 2 2 0 0 127 440 410
687 2 2 0 0 114 124 116
688 2 2 0 0 543 544 530
689 2 2 0 0 488 489 487
690 2 2 0 0 585 637 366
691 2 2 0 0 543 570 544
692 2 2 0 0 113 115 114
693 2 2 0 0 127 410 106
694 2 2 0 0 114 116 112
695 2 2 0 0 195 515 200
696 2 2 0 0 491 493 492
697 2 2 0 0 12 487 13
698 2 2 0 0 546 547 321
699 2 2 0 0 330 457 411
700 2 2 0 0 157 543 530
701 2 2 0 0 519 520 291
702 2 2 0 0 28 488 487
703 2 2 0 0 111 112 110
704 2 2 0 0 312 534 257
705 2 2 0 0 476 732 412
706 2 2 0 0 27 458 442
707 2 2 0 0 385 636 620
708 2 2 0 0 176 559 156
709 2 2 0 0 593 634 366
710 2 2 0 0 589 590 224
711 2 2 0 0 113 114 112
712 2 2 0 0 109 127 106
713 2 2 0 0 270 564 245
714 2 2 0 0 443 506 445
715 2 2 0 0 491 492 396
716 2 2 0 0 388 624 502
717 2 2 0 0 445 506 448
718 2 2 0 0 30 500 15
719 2 2 0 0 20 504 21
720 2 2 0 0 64 475 60
721 2 2 0 0 287 542 206
722 2 2 0 0 23 508 35
723 2 2 0 0 302 558 299
724 2 2 0 0 70 551 54
725 2 2 0 0 62 598 64
726 2 2 0 0 424 491 396
727 2 2 0 0 407 456 340
728 2 2 0 0 545 546 321
729 2 2 0 0 330 411 397
730 2 2 0 0 72 536 74
731 2 2 0 0 238 574 136
732 2 2 0 0 659 660 420
733 2 2 0 0 395 538 332
734 2 2 0 0 143 527 145
735 2 2 0 0 412 675 476
736 2 2 0 0 239 513 358
737 2 2 0 0 157 530 529
738 2 2 0 0 518 519 291
739 2 2 0 0 449 482 470
740 2 2 0 0 207 713 479
741 2 2 0 0 119 523 75
742 2 2 0 0 109 670 127
743 2 2 0 0 10 501 40
744 2 2 0 0 508 509 35
745 2 2 0 0 96 606 94
746 2 2 0 0 331 459 334
747 2 2 0 0 286 531 288
748 2 2 0 0 290 453 354
749 2 2 0 0 282 490 71
750 2 2 0 0 384 531 313
751 2 2 0 0 289 524 287
752 2 2 0 0 349 550 412
753 2 2 0 0 165 521 256
754 2 2 0 0 82 460 77
755 2 2 0 0 155 543 157
756 2 2 0 0 201 549 199
757 2 2 0 0 273 591 363
758 2 2 0 0 387 521 126
759 2 2 0 0 114 516 124
760 2 2 0 0 53 561 57
761 2 2 0 0 266 554 309
762 2 2 0 0 257 534 255
763 2 2 0 0 205 553 213
764 2 2 0 0 142 522 225
765 2 2 0 0 435 481 356
766 2 2 0 0 216 568 303
767 2 2 0 0 300 563 344
768 2 2 0 0 214 568 209
769 2 2 0 0 112 480 110
770 2 2 0 0 350 571 403
771 2 2 0 0 347 572 485
772 2 2 0 0 275 572 271
773 2 2 0 0 274 563 296
774 2 2 0 0 171 586 293
775 2 2 0 0 162 576 237
776 2 2 0 0 133 580 163
777 2 2 0 0 11 501 10
778 2 2 0 0 295 584 261
779 2 2 0 0 129 583 131
780 2 2 0 0 215 586 169
781 2 2 0 0 250 505 329
782 2 2 0 0 168 588 224
783 2 2 0 0 321 548 170
784 2 2 0 0 262 593 366
785 2 2 0 0 166 646 314
786 2 2 0 0 520 535 291
787 2 2 0 0 373 663 493
788 2 2 0 0 291 535 185
789 2 2 0 0 101 607 97
790 2 2 0 0 130 574 357
791 2 2 0 0 158 570 543
792 2 2 0 0 31 501 11
793 2 2 0 0 444 552 503
794 2 2 0 0 156 559 159
795 2 2 0 0 236 594 505
796 2 2 0 0 206 542 149
797 2 2 0 0 54 551 52
798 2 2 0 0 74 536 373
799 2 2 0 0 337 558 302
800 2 2 0 0 150 532 147
801 2 2 0 0 379 728 457
802 2 2 0 0 299 558 298
803 2 2 0 0 332 538 333
804 2 2 0 0 145 527 148
805 2 2 0 0 514 515 192
806 2 2 0 0 15 500 14
807 2 2 0 0 75 523 73
808 2 2 0 0 467 501 31
809 2 2 0 0 254 592 125
810 2 2 0 0 172 545 321
811 2 2 0 0 144 522 142
812 2 2 0 0 528 532 150
813 2 2 0 0 187 518 291
814 2 2 0 0 553 599 213
815 2 2 0 0 383 603 384
816 2 2 0 0 282 698 490
817 2 2 0 0 244 517 240
818 2 2 0 0 353 525 404
819 2 2 0 0 395 540 538
820 2 2 0 0 94 606 118
821 2 2 0 0 117 539 107
822 2 2 0 0 185 535 182
823 2 2 0 0 388 502 50
824 2 2 0 0 167 591 273
825 2 2 0 0 147 532 146
826 2 2 0 0 92 608 91
827 2 2 0 0 472 676 368
828 2 2 0 0 364 592 254
829 2 2 0 0 21 504 44
830 2 2 0 0 365 597 248
831 2 2 0 0 125 592 116
832 2 2 0 0 588 589 224
833 2 2 0 0 111 113 112
834 2 2 0 0 63 469 408
835 2 2 0 0 105 109 106
836 2 2 0 0 242 526 243
837 2 2 0 0 439 712 29
838 2 2 0 0 240 517 234
839 2 2 0 0 346 533 304
840 2 2 0 0 14 500 38
841 2 2 0 0 494 495 484
842 2 2 0 0 127 630 440
843 2 2 0 0 208 537 204
844 2 2 0 0 175 562 179
845 2 2 0 0 303 626 555
846 2 2 0 0 359 526 242
847 2 2 0 0 243 526 268
848 2 2 0 0 217 537 208
849 2 2 0 0 58 498 55
850 2 2 0 0 503 552 30
851 2 2 0 0 13 499 12
852 2 2 0 0 268 621 569
853 2 2 0 0 489 497 487
854 2 2 0 0 475 498 58
855 2 2 0 0 430 526 359
856 2 2 0 0 248 597 99
857 2 2 0 0 292 537 217
858 2 2 0 0 26 645 45
859 2 2 0 0 234 517 279
860 2 2 0 0 14 497 39
861 2 2 0 0 385 537 292
862 2 2 0 0 305 533 360
863 2 2 0 0 304 533 301
864 2 2 0 0 146 532 284
865 2 2 0 0 483 494 484
866 2 2 0 0 173 562 175
867 2 2 0 0 116 480 112
868 2 2 0 0 224 590 246
869 2 2 0 0 189 518 187
870 2 2 0 0 498 536 72
871 2 2 0 0 414 525 353
872 2 2 0 0 160 522 144
873 2 2 0 0 547 609 548
874 2 2 0 0 182 535 180
875 2 2 0 0 297 601 389
876 2 2 0 0 44 594 81
877 2 2 0 0 301 533 305
878 2 2 0 0 105 106 96
879 2 2 0 0 515 596 200
880 2 2 0 0 293 562 173
881 2 2 0 0 73 523 282
882 2 2 0 0 148 527 285
883 2 2 0 0 174 545 172
884 2 2 0 0 218 596 323
885 2 2 0 0 200 596 203
886 2 2 0 0 149 542 151
887 2 2 0 0 446 552 444
888 2 2 0 0 49 461 330
889 2 2 0 0 330 397 48
890 2 2 0 0 453 738 377
891 2 2 0 0 255 534 324
892 2 2 0 0 52 551 388
893 2 2 0 0 634 646 260
894 2 2 0 0 513 615 358
895 2 2 0 0 438 525 414
896 2 2 0 0 516 618 386
897 2 2 0 0 198 518 189
898 2 2 0 0 227 566 361
899 2 2 0 0 559 560 241
900 2 2 0 0 90 587 93
901 2 2 0 0 416 522 160
902 2 2 0 0 102 591 167
903 2 2 0 0 134 609 137
904 2 2 0 0 298 558 372
905 2 2 0 0 132 574 130
906 2 2 0 0 106 606 96
907 2 2 0 0 159 559 241
908 2 2 0 0 32 611 6
909 2 2 0 0 158 543 155
910 2 2 0 0 223 513 239
911 2 2 0 0 288 531 319
912 2 2 0 0 323 513 220
913 2 2 0 0 115 516 114
914 2 2 0 0 521 601 297
915 2 2 0 0 610 698 455
916 2 2 0 0 354 600 431
917 2 2 0 0 351 550 349
918 2 2 0 0 256 521 297
919 2 2 0 0 140 604 138
920 2 2 0 0 77 460 119
921 2 2 0 0 17 503 16
922 2 2 0 0 9 502 10
923 2 2 0 0 104 587 331
924 2 2 0 0 152 528 150
925 2 2 0 0 315 541 378
926 2 2 0 0 170 548 164
927 2 2 0 0 590 659 420
928 2 2 0 0 11 624 28
929 2 2 0 0 199 549 202
930 2 2 0 0 502 624 10
931 2 2 0 0 453 600 354
932 2 2 0 0 42 43 41
933 2 2 0 0 38 499 13
934 2 2 0 0 285 527 382
935 2 2 0 0 190 514 192
936 2 2 0 0 157 529 528
937 2 2 0 0 231 643 549
938 2 2 0 0 331 587 459
939 2 2 0 0 451 701 232
940 2 2 0 0 99 597 100
941 2 2 0 0 361 568 214
942 2 2 0 0 372 740 544
943 2 2 0 0 221 545 174
944 2 2 0 0 138 604 238
945 2 2 0 0 340 572 275
946 2 2 0 0 338 563 274
947 2 2 0 0 524 542 287
948 2 2 0 0 265 595 312
949 2 2 0 0 111 511 113
950 2 2 0 0 580 658 588
951 2 2 0 0 580 588 163
952 2 2 0 0 237 576 277
953 2 2 0 0 444 503 36
954 2 2 0 0 131 583 580
955 2 2 0 0 505 571 329
956 2 2 0 0 203 596 218
957 2 2 0 0 584 634 260
958 2 2 0 0 261 584 260
959 2 2 0 0 369 647 365
960 2 2 0 0 251 586 215
961 2 2 0 0 348 564 270
962 2 2 0 0 450 552 446
963 2 2 0 0 390 496 391
964 2 2 0 0 66 598 62
965 2 2 0 0 465 623 423
966 2 2 0 0 258 591 102
967 2 2 0 0 343 566 227
968 2 2 0 0 564 623 244
969 2 2 0 0 154 617 141
970 2 2 0 0 324 534 392
971 2 2 0 0 50 502 37
972 2 2 0 0 524 556 542
973 2 2 0 0 544 700 372
974 2 2 0 0 122 516 115
975 2 2 0 0 177 557 221
976 2 2 0 0 489 698 610
977 2 2 0 0 93 587 104
978 2 2 0 0 136 574 132
979 2 2 0 0 593 646 634
980 2 2 0 0 116 592 480
981 2 2 0 0 143 617 527
982 2 2 0 0 225 604 140
983 2 2 0 0 137 631 139
984 2 2 0 0 549 553 202
985 2 2 0 0 164 548 135
986 2 2 0 0 404 550 351
987 2 2 0 0 34 721 473
988 2 2 0 0 220 513 223
989 2 2 0 0 317 640 511
990 2 2 0 0 100 597 258
991 2 2 0 0 588 658 589
992 2 2 0 0 323 615 513
993 2 2 0 0 568 626 303
994 2 2 0 0 377 605 405
995 2 2 0 0 178 613 212
996 2 2 0 0 493 628 373
997 2 2 0 0 157 528 152
998 2 2 0 0 591 627 363
999 2 2 0 0 409 541 315
1000 2 2 0 0 183 614 197
1001 2 2 0 0 103 598 66
1002 2 2 0 0 188 619 194
1003 2 2 0 0 213 599 226
1004 2 2 0 0 306 599 402
1005 2 2 0 0 97 607 25
1006 2 2 0 0 194 514 190
1007 2 2 0 0 373 628 76
1008 2 2 0 0 78 628 253
1009 2 2 0 0 42 47 43
1010 2 2 0 0 39 612 15
1011 2 2 0 0 16 612 29
1012 2 2 0 0 437 610 455
1013 2 2 0 0 487 497 13
1014 2 2 0 0 440 630 441
1015 2 2 0 0 479 713 562
1016 2 2 0 0 196 620 193
1017 2 2 0 0 456 572 340
1018 2 2 0 0 120 511 281
1019 2 2 0 0 577 578 235
1020 2 2 0 0 335 582 399
1021 2 2 0 0 314 741 683
1022 2 2 0 0 520 613 535
1023 2 2 0 0 585 634 584
1024 2 2 0 0 423 564 348
1025 2 2 0 0 457 561 411
1026 2 2 0 0 6 611 5
1027 2 2 0 0 385 620 537
1028 2 2 0 0 228 637 229
1029 2 2 0 0 366 637 249
1030 2 2 0 0 161 570 158
1031 2 2 0 0 434 640 435
1032 2 2 0 0 193 636 191
1033 2 2 0 0 410 606 106
1034 2 2 0 0 37 502 9
1035 2 2 0 0 36 503 17
1036 2 2 0 0 141 617 143
1037 2 2 0 0 363 627 401
1038 2 2 0 0 322 590 420
1039 2 2 0 0 357 618 128
1040 2 2 0 0 430 621 526
1041 2 2 0 0 540 687 103
1042 2 2 0 0 280 577 121
1043 2 2 0 0 276 575 318
1044 2 2 0 0 362 578 577
1045 2 2 0 0 109 649 496
1046 2 2 0 0 246 590 322
1047 2 2 0 0 326 569 381
1048 2 2 0 0 569 621 381
1049 2 2 0 0 269 569 272
1050 2 2 0 0 139 631 154
1051 2 2 0 0 649 664 496
1052 2 2 0 0 537 620 204
1053 2 2 0 0 355 461 49
1054 2 2 0 0 663 685 493
1055 2 2 0 0 479 745 207
1056 2 2 0 0 343 662 565
1057 2 2 0 0 212 557 177
1058 2 2 0 0 45 645 46
1059 2 2 0 0 496 670 109
1060 2 2 0 0 366 634 585
1061 2 2 0 0 384 616 531
1062 2 2 0 0 535 613 180
1063 2 2 0 0 391 632 364
1064 2 2 0 0 308 581 336
1065 2 2 0 0 344 625 462
1066 2 2 0 0 563 625 344
1067 2 2 0 0 13 497 14
1068 2 2 0 0 480 632 117
1069 2 2 0 0 371 668 585
1070 2 2 0 0 333 649 278
1071 2 2 0 0 387 601 521
1072 2 2 0 0 47 49 48
1073 2 2 0 0 358 615 428
1074 2 2 0 0 113 511 120
1075 2 2 0 0 527 617 382
1076 2 2 0 0 105 649 109
1077 2 2 0 0 398 573 307
1078 2 2 0 0 368 676 369
1079 2 2 0 0 180 613 178
1080 2 2 0 0 153 556 176
1081 2 2 0 0 432 657 367
1082 2 2 0 0 458 718 582
1083 2 2 0 0 207 614 183
1084 2 2 0 0 407 611 456
1085 2 2 0 0 244 623 517
1086 2 2 0 0 20 639 27
1087 2 2 0 0 476 675 87
1088 2 2 0 0 319 616 393
1089 2 2 0 0 474 707 197
1090 2 2 0 0 226 599 306
1091 2 2 0 0 47 48 43
1092 2 2 0 0 186 619 188
1093 2 2 0 0 412 732 328
1094 2 2 0 0 316 671 541
1095 2 2 0 0 293 734 478
1096 2 2 0 0 492 685 598
1097 2 2 0 0 528 629 532
1098 2 2 0 0 514 635 515
1099 2 2 0 0 531 616 319
1100 2 2 0 0 8 656 7
1101 2 2 0 0 387 602 601
1102 2 2 0 0 76 628 78
1103 2 2 0 0 122 618 516
1104 2 2 0 0 651 717 394
1105 2 2 0 0 423 623 564
1106 2 2 0 0 546 669 547
1107 2 2 0 0 4 679 34
1108 2 2 0 0 542 556 151
1109 2 2 0 0 548 609 135
1110 2 2 0 0 204 620 196
1111 2 2 0 0 529 629 528
1112 2 2 0 0 482 719 230
1113 2 2 0 0 258 627 591
1114 2 2 0 0 336 582 335
1115 2 2 0 0 197 686 667
1116 2 2 0 0 583 658 580
1117 2 2 0 0 85 675 98
1118 2 2 0 0 59 728 379
1119 2 2 0 0 400 625 338
1120 2 2 0 0 394 717 605
1121 2 2 0 0 471 650 450
1122 2 2 0 0 596 635 323
1123 2 2 0 0 249 637 228
1124 2 2 0 0 515 635 596
1125 2 2 0 0 338 625 563
1126 2 2 0 0 28 633 488
1127 2 2 0 0 566 622 361
1128 2 2 0 0 229 570 161
1129 2 2 0 0 468 654 465
1130 2 2 0 0 118 710 462
1131 2 2 0 0 15 612 16
1132 2 2 0 0 589 659 590
1133 2 2 0 0 526 621 268
1134 2 2 0 0 365 647 597
1135 2 2 0 0 579 583 235
1136 2 2 0 0 22 507 21
1137 2 2 0 0 342 682 264
1138 2 2 0 0 441 648 346
1139 2 2 0 0 191 636 198
1140 2 2 0 0 578 653 579
1141 2 2 0 0 135 609 134
1142 2 2 0 0 128 618 122
1143 2 2 0 0 378 681 310
1144 2 2 0 0 230 690 211
1145 2 2 0 0 210 690 232
1146 2 2 0 0 549 643 553
1147 2 2 0 0 233 661 247
1148 2 2 0 0 10 624 11
1149 2 2 0 0 640 709 435
1150 2 2 0 0 449 719 482
1151 2 2 0 0 452 726 33
1152 2 2 0 0 362 577 280
1153 2 2 0 0 318 575 433
1154 2 2 0 0 492 687 396
1155 2 2 0 0 586 734 293
1156 2 2 0 0 357 655 618
1157 2 2 0 0 277 567 259
1158 2 2 0 0 522 641 225
1159 2 2 0 0 511 640 281
1160 2 2 0 0 247 661 483
1161 2 2 0 0 610 693 39
1162 2 2 0 0 272 569 326
1163 2 2 0 0 490 695 70
1164 2 2 0 0 553 643 599
1165 2 2 0 0 532 629 284
1166 2 2 0 0 29 712 17
1167 2 2 0 0 632 665 117
1168 2 2 0 0 618 655 386
1169 2 2 0 0 241 699 576
1170 2 2 0 0 457 728 561
1171 2 2 0 0 485 572 456
1172 2 2 0 0 430 667 621
1173 2 2 0 0 582 672 458
1174 2 2 0 0 395 687 540
1175 2 2 0 0 504 594 44
1176 2 2 0 0 181 713 207
1177 2 2 0 0 197 707 184
1178 2 2 0 0 524 657 556
1179 2 2 0 0 475 536 498
1180 2 2 0 0 394 738 320
1181 2 2 0 0 51 714 561
1182 2 2 0 0 151 556 153
1183 2 2 0 0 437 693 610
1184 2 2 0 0 361 626 568
1185 2 2 0 0 611 679 5
1186 2 2 0 0 231 680 643
1187 2 2 0 0 462 706 118
1188 2 2 0 0 390 670 496
1189 2 2 0 0 602 642 601
1190 2 2 0 0 49 330 48
1191 2 2 0 0 391 665 632
1192 2 2 0 0 508 737 375
1193 2 2 0 0 450 650 552
1194 2 2 0 0 368 732 476
1195 2 2 0 0 578 579 235
1196 2 2 0 0 402 581 308
1197 2 2 0 0 43 486 41
1198 2 2 0 0 562 713 179
1199 2 2 0 0 592 632 480
1200 2 2 0 0 416 641 522
1201 2 2 0 0 372 668 371
1202 2 2 0 0 452 712 439
1203 2 2 0 0 282 720 455
1204 2 2 0 0 556 657 176
1205 2 2 0 0 364 632 592
1206 2 2 0 0 403 726 452
1207 2 2 0 0 465 654 623
1208 2 2 0 0 278 649 105
1209 2 2 0 0 154 652 617
1210 2 2 0 0 383 688 603
1211 2 2 0 0 451 719 447
1212 2 2 0 0 317 709 640
1213 2 2 0 0 604 711 642
1214 2 2 0 0 382 652 383
1215 2 2 0 0 601 642 389
1216 2 2 0 0 284 671 316
1217 2 2 0 0 599 643 402
1218 2 2 0 0 388 633 624
1219 2 2 0 0 267 678 311
1220 2 2 0 0 337 681 530
1221 2 2 0 0 279 661 233
1222 2 2 0 0 605 738 394
1223 2 2 0 0 33 677 504
1224 2 2 0 0 386 655 387
1225 2 2 0 0 547 669 631
1226 2 2 0 0 562 731 479
1227 2 2 0 0 360 648 595
1228 2 2 0 0 432 692 657
1229 2 2 0 0 367 657 524
1230 2 2 0 0 633 695 488
1231 2 2 0 0 415 473 341
1232 2 2 0 0 644 672 336
1233 2 2 0 0 551 633 388
1234 2 2 0 0 533 648 360
1235 2 2 0 0 407 679 611
1236 2 2 0 0 323 635 615
1237 2 2 0 0 530 681 529
1238 2 2 0 0 393 651 394
1239 2 2 0 0 387 655 602
1240 2 2 0 0 238 703 574
1241 2 2 0 0 594 677 505
1242 2 2 0 0 559 692 560
1243 2 2 0 0 621 667 381
1244 2 2 0 0 405 674 376
1245 2 2 0 0 325 732 368
1246 2 2 0 0 623 654 517
1247 2 2 0 0 581 644 336
1248 2 2 0 0 346 648 533
1249 2 2 0 0 517 654 279
1250 2 2 0 0 477 705 481
1251 2 2 0 0 481 705 355
1252 2 2 0 0 561 728 57
1253 2 2 0 0 379 705 477
1254 2 2 0 0 617 652 382
1255 2 2 0 0 30 650 500
1256 2 2 0 0 376 674 385
1257 2 2 0 0 518 715 519
1258 2 2 0 0 474 667 430
1259 2 2 0 0 478 734 294
1260 2 2 0 0 624 633 28
1261 2 2 0 0 186 707 619
1262 2 2 0 0 64 663 475
1263 2 2 0 0 597 647 258
1264 2 2 0 0 377 738 605
1265 2 2 0 0 31 735 467
1266 2 2 0 0 27 718 458
1267 2 2 0 0 419 673 68
1268 2 2 0 0 616 722 393
1269 2 2 0 0 24 723 419
1270 2 2 0 0 397 638 48
1271 2 2 0 0 404 730 460
1272 2 2 0 0 91 676 472
1273 2 2 0 0 622 626 361
1274 2 2 0 0 7 656 32
1275 2 2 0 0 576 697 277
1276 2 2 0 0 471 691 650
1277 2 2 0 0 536 663 373
1278 2 2 0 0 484 691 471
1279 2 2 0 0 552 650 30
1280 2 2 0 0 311 678 600
1281 2 2 0 0 486 729 5
1282 2 2 0 0 418 673 666
1283 2 2 0 0 232 680 231
1284 2 2 0 0 5 679 4
1285 2 2 0 0 117 665 539
1286 2 2 0 0 384 702 616
1287 2 2 0 0 557 702 221
1288 2 2 0 0 87 675 85
1289 2 2 0 0 225 711 604
1290 2 2 0 0 505 677 571
1291 2 2 0 0 483 661 494
1292 2 2 0 0 263 565 375
1293 2 2 0 0 504 677 594
1294 2 2 0 0 582 718 399
1295 2 2 0 0 645 714 46
1296 2 2 0 0 534 708 392
1297 2 2 0 0 643 680 402
1298 2 2 0 0 18 712 452
1299 2 2 0 0 392 670 390
1300 2 2 0 0 221 702 603
1301 2 2 0 0 496 664 391
1302 2 2 0 0 606 710 118
1303 2 2 0 0 655 703 602
1304 2 2 0 0 608 676 91
1305 2 2 0 0 194 684 514
1306 2 2 0 0 541 671 378
1307 2 2 0 0 154 669 652
1308 2 2 0 0 399 718 639
1309 2 2 0 0 405 715 674
1310 2 2 0 0 33 726 677
1311 2 2 0 0 629 671 284
1312 2 2 0 0 468 735 495
1313 2 2 0 0 469 704 408
1314 2 2 0 0 427 745 479
1315 2 2 0 0 294 734 251
1316 2 2 0 0 461 705 379
1317 2 2 0 0 385 674 636
1318 2 2 0 0 657 692 176
1319 2 2 0 0 561 714 411
1320 2 2 0 0 631 669 154
1321 2 2 0 0 264 682 265
1322 2 2 0 0 43 638 486
1323 2 2 0 0 48 638 43
1324 2 2 0 0 194 744 684
1325 2 2 0 0 381 686 380
1326 2 2 0 0 658 716 589
1327 2 2 0 0 263 567 565
1328 2 2 0 0 310 681 337
1329 2 2 0 0 493 685 492
1330 2 2 0 0 64 685 663
1331 2 2 0 0 309 678 267
1332 2 2 0 0 600 678 431
1333 2 2 0 0 538 694 333
1334 2 2 0 0 598 685 64
1335 2 2 0 0 551 695 633
1336 2 2 0 0 560 699 241
1337 2 2 0 0 211 690 210
1338 2 2 0 0 2 723 3
1339 2 2 0 0 630 708 441
1340 2 2 0 0 467 735 468
1341 2 2 0 0 396 687 395
1342 2 2 0 0 35 507 22
1343 2 2 0 0 259 567 263
1344 2 2 0 0 417 673 418
1345 2 2 0 0 614 686 197
1346 2 2 0 0 392 708 630
1347 2 2 0 0 5 729 6
1348 2 2 0 0 279 725 661
1349 2 2 0 0 6 729 26
1350 2 2 0 0 357 703 655
1351 2 2 0 0 514 684 635
1352 2 2 0 0 540 733 538
1353 2 2 0 0 374 741 593
1354 2 2 0 0 176 692 559
1355 2 2 0 0 650 691 500
1356 2 2 0 0 484 736 691
1357 2 2 0 0 83 733 540
1358 2 2 0 0 558 740 372
1359 2 2 0 0 626 697 555
1360 2 2 0 0 436 693 437
1361 2 2 0 0 375 737 374
1362 2 2 0 0 475 663 536
1363 2 2 0 0 636 674 198
1364 2 2 0 0 674 715 198
1365 2 2 0 0 70 695 551
1366 2 2 0 0 406 721 407
1367 2 2 0 0 677 726 571
1368 2 2 0 0 258 647 627
1369 2 2 0 0 448 701 451
1370 2 2 0 0 458 672 506
1371 2 2 0 0 229 700 570
1372 2 2 0 0 684 744 428
1373 2 2 0 0 570 700 544
1374 2 2 0 0 678 742 431
1375 2 2 0 0 646 741 314
1376 2 2 0 0 603 702 384
1377 2 2 0 0 478 731 293
1378 2 2 0 0 309 742 678
1379 2 2 0 0 380 686 614
1380 2 2 0 0 494 725 468
1381 2 2 0 0 500 691 38
1382 2 2 0 0 635 684 615
1383 2 2 0 0 661 725 494
1384 2 2 0 0 679 721 34
1385 2 2 0 0 509 510 35
1386 2 2 0 0 46 714 51
1387 2 2 0 0 615 684 428
1388 2 2 0 0 432 742 689
1389 2 2 0 0 179 713 181
1390 2 2 0 0 26 739 645
1391 2 2 0 0 35 510 507
1392 2 2 0 0 574 703 357
1393 2 2 0 0 184 707 186
1394 2 2 0 0 39 693 612
1395 2 2 0 0 665 694 539
1396 2 2 0 0 312 708 534
1397 2 2 0 0 554 689 309
1398 2 2 0 0 1 737 508
1399 2 2 0 0 519 717 520
1400 2 2 0 0 277 697 622
1401 2 2 0 0 389 711 641
1402 2 2 0 0 495 736 484
1403 2 2 0 0 17 712 18
1404 2 2 0 0 212 722 557
1405 2 2 0 0 455 720 438
1406 2 2 0 0 622 697 626
1407 2 2 0 0 664 694 665
1408 2 2 0 0 447 719 449
1409 2 2 0 0 669 688 652
1410 2 2 0 0 612 693 436
1411 2 2 0 0 619 744 194
1412 2 2 0 0 57 728 59
1413 2 2 0 0 579 658 583
1414 2 2 0 0 438 727 525
1415 2 2 0 0 539 733 83
1416 2 2 0 0 479 731 478
1417 2 2 0 0 691 736 38
1418 2 2 0 0 401 724 400
1419 2 2 0 0 420 660 2
1420 2 2 0 0 328 732 325
1421 2 2 0 0 320 738 453
1422 2 2 0 0 428 744 429
1423 2 2 0 0 431 742 432
1424 2 2 0 0 425 745 427
1425 2 2 0 0 408 743 434
1426 2 2 0 0 571 726 403
1427 2 2 0 0 119 727 523
1428 2 2 0 0 625 706 462
1429 2 2 0 0 525 730 404
1430 2 2 0 0 499 736 495
1431 2 2 0 0 468 725 654
1432 2 2 0 0 336 672 582
1433 2 2 0 0 198 715 518
1434 2 2 0 0 400 724 706
1435 2 2 0 0 402 680 581
1436 2 2 0 0 589 716 659
1437 2 2 0 0 727 730 525
1438 2 2 0 0 664 665 391
1439 2 2 0 0 337 740 558
1440 2 2 0 0 293 731 562
1441 2 2 0 0 523 720 282
1442 2 2 0 0 460 730 119
1443 2 2 0 0 641 711 225
1444 2 2 0 0 429 744 619
1445 2 2 0 0 119 730 727
1446 2 2 0 0 651 722 212
1447 2 2 0 0 38 736 499
1448 2 2 0 0 667 686 381
1449 2 2 0 0 652 688 383
1450 2 2 0 0 410 710 606
1451 2 2 0 0 644 701 448
1452 2 2 0 0 666 673 419
1453 2 2 0 0 704 743 408
1454 2 2 0 0 251 734 586
1455 2 2 0 0 400 706 625
1456 2 2 0 0 546 688 669
1457 2 2 0 0 668 700 229
1458 2 2 0 0 538 733 694
1459 2 2 0 0 333 694 664
1460 2 2 0 0 565 662 375
1461 2 2 0 0 720 727 438
1462 2 2 0 0 372 700 668
1463 2 2 0 0 579 716 658
1464 2 2 0 0 642 711 389
1465 2 2 0 0 355 705 461
1466 2 2 0 0 407 721 679
1467 2 2 0 0 523 727 720
1468 2 2 0 0 654 725 279
1469 2 2 0 0 639 718 27
1470 2 2 0 0 694 733 539
1471 2 2 0 0 393 722 651
1472 2 2 0 0 645 739 397
1473 2 2 0 0 683 741 374
1474 2 2 0 0 397 739 638
1475 2 2 0 0 653 716 579
1476 2 2 0 0 666 723 660
1477 2 2 0 0 419 723 666
1478 2 2 0 0 374 737 683
1479 2 2 0 0 593 741 646
1480 2 2 0 0 683 737 1
1481 2 2 0 0 689 742 309
1482 2 2 0 0 660 723 2
1483 2 2 0 0 23 25 1
1484 2 2 0 0 25 607 1
1485 2 2 0 0 3 34 2
1486 2 2 0 0 34 415 2
$EndElements
