$MeshFormat
2.2 0 8
$EndMeshFormat
$Nodes
745
1 2.2852524315755706e-05 2.1170978691441060e-05 9.7329516699622739e-04
2 1.7597829061117366e-05 -3.8826172279446186e-05 -9.7189834620079580e-04
3 1.3094811099387992e-04 1.5619910005291367e-05 -9.6402484654752247e-04
4 2.1823726478993746e-04 3.1966218437655942e-05 -9.4952936510377779e-04
5 3.4436561969130919e-04 4.1080788495473022e-05 -9.1442046105309088e-04
6 4.9136813624236825e-04 -1.0547609547766211e-06 -8.5037191549107969e-04
7 6.1051727528558435e-04 -1.5027401317081865e-05 -7.7586249418253603e-04
8 7.3989622908549654e-04 -1.3192184878194876e-05 -6.6460812049862325e-04
9 8.3638100272092849e-04 -4.5901903409746459e-06 -5.5013331572962665e-04
10 9.1162264392366586e-04 6.9311517382029039e-07 -4.2708102553215945e-04
11 9.6892162982861838e-04 1.5408919619105662e-06 -2.8972918723679932e-04
12 1.0040337412680635e-03 2.8161149385067605e-06 -1.4408205118169814e-04
13 1.0152207947119280e-03 8.6984076826625845e-07 -2.0640419808641611e-06
14 1.0045243190314390e-03 9.0361784893943813e-06 1.3964342243235914e-04
15 9.7226467341706194e-04 1.3939018107006183e-05 2.7882297280848803e-04
16 9.1634237789773123e-04 1.1770342647123888e-05 4.1783389571791455e-04
17 8.3521659261776059e-04 3.7112404473327061e-06 5.5161584252953039e-04
18 7.3463473547823860e-04 1.4695364052104052e-06 6.6993419514333363e-04
19 6.1510337160436412e-04 -1.0525294680509044e-06 7.7286111926892710e-04
20 4.9079596763371386e-04 2.7064459151035474e-07 8.5091048555484587e-04
21 3.6905144772896926e-04 -1.0517854024380177e-06 9.0604803174900491e-04
22 2.5393005100841080e-04 1.9521513222827980e-06 9.4199652605395155e-04
23 1.4739220829105423e-04 -1.8870032160072465e-06 9.6230014119760160e-04
24 1.5163774511778194e-04 1.3393918756565343e-04 -9.5331964134562114e-04
25 1.6259873493211551e-04 9.7465685970875429e-05 9.5666950806663233e-04
26 5.6806961338705874e-04 1.0010421036679515e-04 -7.9885951015245475e-04
27 5.5746597511263814e-04 -1.1333951230703881e-04 8.0471450968126312e-04
28 9.8093291947517753e-04 1.3379925076570267e-04 -2.1512407619787076e-04
29 8.6399529764425722e-04 1.4676685131374833e-04 4.9134618374342893e-04
30 9.4285254523761015e-04 -1.1230165867248604e-04 3.4350966181551865e-04
31 9.8239441746821965e-04 -1.1562988714768081e-04 -2.1808240129287952e-04
32 5.2563240357856905e-04 -1.1769298502101149e-04 -8.2393692898040068e-04
33 5.3591187756240482e-04 1.1311797070817437e-04 8.1816264586576592e-04
34 1.7173609227048696e-04 -7.0641943652833612e-05 -9.5703346200442109e-04
35 1.9994977342443617e-04 -1.0897632968603491e-04 9.4806138425273785e-04
36 7.8781275119835757e-04 -1.1672711822013702e-04 6.0197948123914650e-04
37 7.8943535885141853e-04 1.1133881441373831e-04 -6.0083499366166279e-04
38 1.0059318063809215e-03 -1.1031701827552386e-04 7.5551872406489628e-05
39 9.8298859720107046e-04 1.3162845541521680e-04 2.0649350815788163e-04
40 8.6570115189618115e-04 -1.2705940902061279e-04 -4.9227568398889170e-04
41 2.6273104082810483e-04 1.5513841069197013e-04 -9.2740900037894397e-04
42 2.1300314392462964e-04 2.5353840781416073e-04 -9.1881846963990288e-04
43 3.2309253430763327e-04 2.6454980603479863e-04 -8.8529672687461978e-04
44 2.9437150534601875e-04 1.0093250157535315e-04 9.2613732299796415e-04
45 6.7655082436763225e-04 1.0005212435302980e-04 -7.1726194807108991e-04
46 7.1734043690802583e-04 2.2665478740413537e-04 -6.5143992254540993e-04
47 2.7189100557666637e-04 3.6064166733313908e-04 -8.6973059137327607e-04
48 3.7949829735921893e-04 3.5467404805739576e-04 -8.3388878258790363e-04
49 3.2426862584481776e-04 4.6572672305199991e-04 -8.0439180433374653e-04
50 8.0983039879496948e-04 2.4685730695118334e-04 -5.3522504405684244e-04
51 7.3171068570606116e-04 3.6895407039893186e-04 -5.7244670829537905e-04
52 8.1797381250949149e-04 3.7662379239660989e-04 -4.4737420067504982e-04
53 7.2862736578530529e-04 4.9653915744075319e-04 -4.8020529421929925e-04
54 8.1100610687381651e-04 4.9157725001711507e-04 -3.4513990696947126e-04
55 7.2174111244071172e-04 6.0212488839798018e-04 -3.6516832023509026e-04
56 7.9079340446678551e-04 5.8691322336078993e-04 -2.3390397118386170e-04
57 6.3994639345135880e-04 6.0069209300431421e-04 -4.8614781491046851e-04
58 6.2022490595762690e-04 6.9749185602712717e-04 -3.7971211846128981e-04
59 5.2743827818545837e-04 6.9489790953449545e-04 -4.9443353229989607e-04
60 4.9820086131255467e-04 7.8204940209244023e-04 -3.9284526715325266e-04
61 3.9771564724711553e-04 7.6582036130388737e-04 -5.0951173543751452e-04
62 3.6645952374288334e-04 8.5094271356738035e-04 -3.9426473887316222e-04
63 2.0625166546762441e-04 4.5157328648468931e-04 -8.4680817965646386e-04
64 4.6235585607247215e-04 8.5084896070995817e-04 -2.8751852804460582e-04
65 2.5914895302247518e-04 8.2743294815693623e-04 -5.0320755640351677e-04
66 2.3038374100304646e-04 9.0529772652081356e-04 -3.7735678278623316e-04
67 1.2638388019244718e-04 8.7138294022561099e-04 -4.8126201690157128e-04
68 1.0352982920371992e-04 2.2966168407110608e-04 -9.4165276262388816e-04
69 1.4179866541619884e-04 7.7360695521341567e-04 -6.1363362359700610e-04
70 8.6926774141611140e-04 4.7060358989034436e-04 -2.1891768708883028e-04
71 8.4382209329420595e-04 5.5357013267760596e-04 -1.0294557956422797e-04
72 7.5077535937531658e-04 6.6995237710899748e-04 -1.2509136027766079e-04
73 7.8839476843459654e-04 6.3899610293569281e-04 -5.1366856654391335e-06
74 6.8113829366720261e-04 7.5159123233056496e-04 -2.4042526424824415e-05
75 7.0683141142182195e-04 7.2185988540224776e-04 8.9389875808942520e-05
76 5.8934034558313464e-04 8.2206678088067543e-04 7.4877794540203617e-05
77 6.1876377208041559e-04 7.7577733330980224e-04 2.0198873512953548e-04
78 5.0333677234648360e-04 8.5888874436742678e-04 1.8692115142301383e-04
79 9.3875158054106171e-05 9.4356694760681177e-04 -3.4384777599825799e-04
80 -1.4676380430509853e-05 9.0453093646013509e-04 -4.3771133002222583e-04
81 2.2398294317587555e-04 2.1852804461011853e-04 9.2553457635348923e-04
82 5.2650421864628750e-04 8.0134460413535118e-04 3.1737861373239769e-04
83 -4.3178149915522378e-05 9.6052025864427155e-04 -3.0709421733401466e-04
84 4.0649456314852860e-04 8.7698840317391275e-04 2.9443520460564288e-04
85 4.1557951771767078e-04 8.1563614823913712e-04 4.1805679731993082e-04
86 2.9710963609051716e-04 8.8119811806748583e-04 3.8752680877064471e-04
87 3.0126256708173400e-04 8.1208822198226317e-04 5.0456124542576190e-04
88 1.7673372625502521e-04 8.6619491135195618e-04 4.7566583050926792e-04
89 1.6823689759241665e-04 9.3449496532927844e-04 3.4129387714395719e-04
90 4.7704285614856773e-05 9.0982662558093685e-04 4.2626864639914899e-04
91 6.2959456970132461e-05 8.3048836505716060e-04 5.5374035344474455e-04
92 -6.0425616534594467e-05 8.6470206965593929e-04 5.0335684190341932e-04
93 -8.7471518378922839e-05 9.3091153646469860e-04 3.7562669261890315e-04
94 -1.9432273056493318e-04 8.7538628335950212e-04 4.5281158245134287e-04
95 -1.5964422381231373e-04 8.0926647427931482e-04 5.6285504639877286e-04
96 -2.2561233655565827e-04 9.2640394584520361e-04 3.3033815385306555e-04
97 1.0666277015625656e-04 2.1629722195827035e-04 9.4507422456083104e-04
98 5.4854597383090730e-04 7.0957037048621763e-04 4.5564694567219434e-04
99 1.5649316208462560e-04 3.2456709774939256e-04 9.0920510074315737e-04
100 3.4853314778542404e-05 3.3124329816368916e-04 9.1872771002978967e-04
101 -1.1876429369836292e-05 2.2213631285597068e-04 9.4921661310683528e-04
102 -9.1651102329629302e-05 3.2413730167997137e-04 9.1738521126894087e-04
103 2.0323140450839670e-04 9.6010459156249174e-04 -2.4431824301350866e-04
104 -1.0816535196653947e-04 9.7382222264459032e-04 2.5028000146837080e-04
105 -2.5096545002956393e-04 9.5683221609383414e-04 2.1349231359462807e-04
106 -3.6492793690858926e-04 8.9702309293647291e-04 2.8787939018292931e-04
107 -1.5388121044722760e-04 9.1628048256589989e-04 -3.8759351965585436e-04
108 -1.2645150892208411e-04 8.4864532244064415e-04 -5.1632558887841509e-04
109 -3.8775275592988222e-04 9.2250866871995327e-04 1.5722778971783316e-04
110 -2.6578952882116004e-04 8.5055617124633214e-04 -4.6206968618975596e-04
111 -2.3256265834249178e-04 7.7726331859676707e-04 -5.8142769299648325e-04
112 -3.7219332933698297e-04 7.6897643941791502e-04 -5.2185769839554769e-04
113 -3.3673786693476523e-04 6.8938423426010038e-04 -6.3395546216191612e-04
114 -4.6428306474358963e-04 6.7329498647511097e-04 -5.7284663563711056e-04
115 -4.2246409148571354e-04 5.8448688834777181e-04 -6.8180896336802088e-04
116 -4.9745181989052265e-04 7.4752877279560422e-04 -4.4984961990624900e-04
117 -2.9160403682353234e-04 9.0734017987744754e-04 -3.3009733930800499e-04
118 -2.8639332010059780e-04 7.9055551192503987e-04 5.4340822980546253e-04
119 7.2285407134242859e-04 6.7341498444863481e-04 2.1956934712428689e-04
120 -2.9573981161702250e-04 5.9233713075203644e-04 -7.3505787395034537e-04
121 -3.7848408044820821e-04 4.8355982222453845e-04 -7.7243816219452297e-04
122 -4.9889376303330975e-04 4.6529441291111632e-04 -7.1776428643837277e-04
123 -4.4552111895176098e-04 3.6032399940926586e-04 -8.0106272292357100e-04
124 -5.8624422644038042e-04 6.4448249532385868e-04 -4.9552826758940383e-04
125 -6.1427913456876468e-04 7.0914976000821083e-04 -3.6719532184413767e-04
126 -7.0035050788404729e-04 5.9782135318011385e-04 -4.0547187218832901e-04
127 -4.9172217045559549e-04 8.5435791576541817e-04 2.2816596220027368e-04
128 -5.6492746399372594e-04 3.3975100202465530e-04 -7.3726524284894784e-04
129 -5.0620702050755827e-04 2.3025926015741481e-04 -8.1206833493624561e-04
130 -6.2484011281893604e-04 2.1593888347264478e-04 -7.3581299740949839e-04
131 -5.6098737829515485e-04 1.0591907325473065e-04 -8.0260397625287329e-04
132 -6.7835157606441676e-04 8.9845492058933046e-05 -7.1621334593221370e-04
133 -6.0829147093391920e-04 -1.9386119362390574e-05 -7.7674066993173763e-04
134 -7.2032952112504201e-04 -4.0343773990928650e-05 -6.8205227427221501e-04
135 -6.4032975014536415e-04 -1.4957460795377955e-04 -7.3922214052454284e-04
136 -7.8441114300755745e-04 7.4683967926425523e-05 -6.1072825158494477e-04
137 -8.1723564460019075e-04 -6.6493447904586727e-05 -5.7097162291385557e-04
138 -8.7476623741402466e-04 4.9537529223852306e-05 -4.8851303770773276e-04
139 -8.9806954047602454e-04 -8.9506647027689829e-05 -4.4261891913684805e-04
140 -9.4469427556295846e-04 1.6937589803245886e-05 -3.5256206775943332e-04
141 -9.5529621238619306e-04 -1.1990546287568313e-04 -3.0559154555088899e-04
142 -9.8911137036492079e-04 -1.4129282437153138e-05 -2.1486241060827627e-04
143 -9.8803568597559985e-04 -1.5274878762996610e-04 -1.6526983496729789e-04
144 -1.0102369764690997e-03 -4.3161868417109310e-05 -7.9471480382511261e-05
145 -9.9838560194520057e-04 -1.7874549621975150e-04 -2.8428725586285401e-05
146 -1.0112046223941422e-03 -6.2743147015723616e-05 5.2063332772580568e-05
147 -9.8936895678092621e-04 -1.9522703581066340e-04 1.0772340631317492e-04
148 -9.6569064016716890e-04 -3.1075956043937223e-04 2.6070532070625239e-05
149 -9.4660026685004686e-04 -3.2354291281758136e-04 1.6308608537697717e-04
150 -9.6049019008239301e-04 -2.0224971785426970e-04 2.4597029161625304e-04
151 -9.0930384141086305e-04 -3.2392001429109874e-04 2.9910657174220967e-04
152 -9.1093396905985488e-04 -2.0218761501567060e-04 3.8104720543878548e-04
153 -8.5040651205950488e-04 -3.1955656603882847e-04 4.3189884129147795e-04
154 -9.0226405310767554e-04 -2.2262234980343940e-04 -3.8872087706476116e-04
155 -8.3713092164831122e-04 -2.0146741140257795e-04 5.1307490449882412e-04
156 -7.6733112523366968e-04 -3.2075558002317851e-04 5.5556184969293232e-04
157 -8.8926537179127027e-04 -7.3768771661118578e-05 4.6178986208005550e-04
158 -7.3860713706011777e-04 -2.1089802204861966e-04 6.3385252343808949e-04
159 -6.6081762817929999e-04 -3.2901986062768934e-04 6.6588656193966892e-04
160 -1.0119754131350930e-03 7.1623689363277266e-05 1.3296435095947136e-06
161 -6.3047355387166641e-04 -2.1563563087274659e-04 7.3207443684690304e-04
162 -5.4018338564233508e-04 -3.1809734083701241e-04 7.6386459238054214e-04
163 -5.2035369467723380e-04 -1.1945186229727656e-04 -8.2602129129258578e-04
164 -5.4658483889134639e-04 -2.4834983683602531e-04 -7.8291515627608508e-04
165 -7.2244023353741410e-04 6.4967612524310188e-04 -2.7715112593544014e-04
166 -1.4148858865351821e-04 2.1916467222602882e-04 9.4011572344758650e-04
167 -2.2239422908579168e-04 3.1070129904411643e-04 9.0072049313650324e-04
168 -4.2105572560435935e-04 -2.0843333560202553e-04 -8.6141365722739306e-04
169 -4.3747789964414767e-04 -3.3584545338824273e-04 -8.1555543699697662e-04
170 -5.5583674779854085e-04 -3.7826047234873684e-04 -7.2720447691018654e-04
171 -4.4240701878167638e-04 -4.6580214946618110e-04 -7.5188518862776986e-04
172 -5.5644564422825270e-04 -5.0734496086402058e-04 -6.5071639998608621e-04
173 -4.4338554150318281e-04 -5.9019228549171568e-04 -6.6624713495008541e-04
174 -5.4415214747322233e-04 -6.2597532399607712e-04 -5.5916661276807992e-04
175 -4.3206609775200397e-04 -7.0533693934763005e-04 -5.6239719874888233e-04
176 -7.7739054244692373e-04 -4.2969254074230805e-04 4.6842183594582450e-04
177 -5.2769431617200057e-04 -7.2722427880388791e-04 -4.5107859089868729e-04
178 -4.0709652426429904e-04 -8.0470690170542493e-04 -4.4521641055650341e-04
179 -3.1558154728338571e-04 -7.7754002958889661e-04 -5.4562627614954703e-04
180 -2.8410083449963413e-04 -8.6634325151298448e-04 -4.2655016316756246e-04
181 -1.8345901232677357e-04 -8.3238798458083274e-04 -5.2665107699418170e-04
182 -1.5090989494074032e-04 -9.0970653446126705e-04 -4.0577228002884743e-04
183 -4.7369246944667955e-05 -8.5934966827961809e-04 -5.1470462292162622e-04
184 -1.4805452694210102e-05 -9.3032676163883716e-04 -3.8794995801976834e-04
185 -1.0968725441489479e-04 -9.6576414738759565e-04 -2.8031569895145021e-04
186 3.2055312657138187e-05 -9.7925120056117812e-04 -2.5414527006017323e-04
187 -6.1416331005261892e-05 -1.0010184758470232e-03 -1.5116280998552138e-04
188 8.5807999703582571e-05 -1.0029383336639186e-03 -1.2748176760047790e-04
189 -1.0542615529248592e-05 -1.0149175912303741e-03 -2.2700345531066602e-05
190 1.2992074211766667e-04 -1.0069684019897995e-03 7.2565619340012226e-06
191 3.3420387752330063e-05 -1.0082624563714422e-03 1.0900058273740380e-04
192 1.6951855013852381e-04 -9.9022165654147560e-04 1.4052380571490266e-04
193 6.9247091646095819e-05 -9.8050258437294485e-04 2.4270698837186081e-04
194 2.2205881326575348e-04 -9.8637303731463144e-04 -8.8103951592751002e-05
195 2.0499375010940200e-04 -9.5349348188594665e-04 2.6967394478205804e-04
196 1.0093109710355720e-04 -9.3198278069923284e-04 3.7232321735307730e-04
197 1.1065574122595239e-04 -8.7845044249031199e-04 -4.7614100622196036e-04
198 -9.8543390192756857e-05 -1.0067366212383546e-03 7.9590309483374531e-05
199 2.3747002057858483e-04 -8.9573007494509155e-04 3.9628893134758245e-04
200 3.3946369372694684e-04 -9.0791825989913560e-04 2.8883635451608391e-04
201 3.6663952530007512e-04 -8.3978739443479097e-04 4.1767621840769207e-04
202 1.3176557086776224e-04 -8.6144004031731176e-04 4.9759693837496920e-04
203 4.6634925653363468e-04 -8.4215737377533995e-04 3.0846725048295462e-04
204 -4.5560539619827027e-06 -8.9005436370588923e-04 4.6641939611015171e-04
205 2.8785904593820768e-05 -8.0560779655518744e-04 5.8970034361880666e-04
206 -9.1225331132933137e-04 -4.3743115576185519e-04 7.7188906099337400e-05
207 -8.2340805069967899e-05 -7.6604751387905504e-04 -6.3251407184195159e-04
208 -1.0728758234843162e-04 -8.2668650765609737e-04 5.5352897654736626e-04
209 -7.3045124889592404e-05 -7.3168041850310323e-04 6.6917018453349240e-04
210 4.8954225264038716e-04 -7.6431675279759251e-04 4.3460213039811117e-04
211 5.7990043229377386e-04 -7.6438578557008502e-04 3.1696323996010812e-04
212 -5.0032274335546419e-04 -8.1077583244914349e-04 -3.3443798707888340e-04
213 5.6591806284702003e-05 -7.0322992474746110e-04 6.9805620857298100e-04
214 -4.0807938970703671e-05 -6.2251596564191390e-04 7.6628909117358330e-04
215 -3.0613660721677831e-04 -2.9587711763422566e-04 -8.8252900306429833e-04
216 -2.0332152824968427e-04 -7.4519589006618475e-04 6.2960324433237590e-04
217 -2.3802018669942393e-04 -8.3396802152104963e-04 5.0396637747216302e-04
218 5.5681782066550130e-04 -8.2339154816894028e-04 1.9832990995150338e-04
219 6.7160905247613692e-04 -7.2801352512944038e-04 2.1425121000877772e-04
220 6.3779213975342539e-04 -7.8469248211582862e-04 8.9160610312220311e-05
221 -6.3518708870600961e-04 -6.4094915724086999e-04 -4.4371483022630519e-04
222 7.4007181491929223e-04 -6.8687487725696474e-04 1.0453030767261879e-04
223 7.0046629176261012e-04 -7.3473897359392745e-04 -2.6050863357850821e-05
224 -2.8848823501018752e-04 -1.6269667363075281e-04 -9.1923872964283959e-04
225 -9.7133757692636255e-04 1.1303983038920361e-04 -2.5641105739107123e-04
226 8.0358166758226672e-05 -5.8691425908137540e-04 7.8899813896935529e-04
227 -9.1324475668933995e-06 -4.9946854058510650e-04 8.4619181308146667e-04
228 -5.1472821122120502e-04 -1.9367991215658246e-04 8.1651607260526608e-04
229 -5.8934796091132061e-04 -9.6976508492776858e-05 7.8481088912367859e-04
230 6.7912917283055130e-04 -6.6342839721542481e-04 3.4377947097262624e-04
231 3.9062462296147679e-04 -7.5243251688268838e-04 5.3354820178105888e-04
232 5.1665900407659663e-04 -6.5897106085724552e-04 5.5001293441969202e-04
233 7.8927044633567904e-04 -6.3852525836254666e-04 -1.6543768544359349e-05
234 7.4555997126909068e-04 -6.7228736828945279e-04 -1.4547881416566500e-04
235 -3.8220380644882955e-04 2.5257791539022985e-04 -8.6680295827649544e-04
236 2.8360286590620008e-04 3.2262632366532003e-04 8.8093134255443398e-04
237 -4.2065972678486725e-04 -2.8610650225042447e-04 8.4108854217541864e-04
238 -8.3825511898697684e-04 1.9892124970850809e-04 -5.1280884823011550e-04
239 6.5063811356128303e-04 -7.6301464251100871e-04 -1.5295689313677877e-04
240 6.8420915763608558e-04 -6.9222654108786418e-04 -2.7643405821638174e-04
241 -5.7026272767612420e-04 -4.3248492324223913e-04 6.8825112114974407e-04
242 5.8154451856246622e-04 -7.7844432996025410e-04 -2.8152805975247051e-04
243 6.0602158035325980e-04 -6.9866214246250703e-04 -4.0037985220754636e-04
244 7.0971156304269658e-04 -6.0067015076765745e-04 -3.8985232374678561e-04
245 6.2252271144440309e-04 -5.9950100997099886e-04 -5.0940500147226956e-04
246 -1.8406846486526313e-04 -2.4470366185012010e-04 -9.2736239954052592e-04
247 8.2779355581457412e-04 -5.7800367704934237e-04 1.0391091005274666e-04
248 2.2777966688771947e-04 4.3361077004130569e-04 8.5119834912650836e-04
249 -3.9140640536329720e-04 -1.5422899556949668e-04 8.8487817150036455e-04
250 3.5613390893956686e-04 4.3177081630934184e-04 8.1041188569111477e-04
251 -2.0846260999061837e-04 -3.6405565192128807e-04 -8.8525837731514927e-04
252 -8.5211958562906928e-05 -3.2163117659539012e-04 -9.1907142757608308e-04
253 3.8642846282196556e-04 9.2434675199633211e-04 1.5242791025788237e-04
254 -6.2954695837240708e-04 7.5479001511875095e-04 -2.3780067101120025e-04
255 -7.2551007490408788e-04 6.9079037813851555e-04 -1.5008669644730587e-04
256 -8.1101229358779519e-04 5.7931604064481300e-04 -1.7901623818161185e-04
257 -8.0078189395141135e-04 6.2048454882398423e-04 -4.5824951852133795e-05
258 -3.2613114630350345e-05 4.2831002448643306e-04 8.8069907702687021e-04
259 -3.0358559347743813e-04 -2.3951033874918017e-04 8.9919341040281542e-04
260 -2.7034317046785200e-04 2.0268925876997632e-04 9.1705298626878226e-04
261 -3.5291623098345257e-04 3.0474492521963921e-04 8.6326274009866438e-04
262 -2.7171166062816724e-04 -1.1434352286415296e-04 9.3089911756237174e-04
263 -1.7673782303712166e-04 -1.8969853455090330e-04 9.4084014773872682e-04
264 -8.7632399665201822e-04 5.0442796738795501e-04 -7.6008134793631113e-05
265 -8.5204777364808048e-04 5.4699871648750250e-04 5.7722416894695598e-05
266 -3.3609824141891210e-04 -7.4745912107276370e-04 5.7235583408715089e-04
267 -3.6798567737135744e-04 -8.2530951832277314e-04 4.4142395923228072e-04
268 5.1093579247142205e-04 -6.9278627623667874e-04 -5.1464689415772064e-04
269 5.1834356434234867e-04 -5.8384458631735592e-04 -6.2072145160276123e-04
270 6.3308372616421805e-04 -4.8203521924397748e-04 -6.0307342992517627e-04
271 5.1734518536578468e-04 -4.6266643535420075e-04 -7.0892504982732478e-04
272 3.9340730676544716e-04 -5.5415293371668961e-04 -7.2165203060756155e-04
273 -2.9884181787445853e-04 4.0509640715792340e-04 8.4362223947892869e-04
274 -4.3045500065964942e-04 4.0495896700440615e-04 7.8932232517299266e-04
275 3.8332999869097152e-04 -4.3313366581587714e-04 -7.9876743227581739e-04
276 2.6598826340106039e-04 -5.1633205949546746e-04 -7.9712606038457852e-04
277 -3.2369229243471543e-04 -3.6066666177321619e-04 8.5406103899196843e-04
278 -1.2685549889018000e-04 9.9623982542475058e-04 1.3462960004525414e-04
279 8.2597085509217392e-04 -5.7322362915180540e-04 -1.3368402897519444e-04
280 -2.4484279549706140e-04 4.7658134350478788e-04 -8.2458989261869687e-04
281 -1.5015586521047725e-04 5.7124320376896419e-04 -7.8931749834747547e-04
282 8.8107095154569388e-04 5.0444330389899758e-04 3.0598841675525413e-05
283 1.0731787695163963e-04 -4.5661602469964014e-04 8.6229576313440887e-04
284 -1.0042106697625279e-03 5.1256630233565800e-05 1.2774532747028777e-04
285 -9.2271752464546421e-04 -4.1755205108241582e-04 -6.2396434301546972e-05
286 -8.6101528709647661e-04 -5.3724056236507543e-04 -1.5300155598893927e-05
287 -8.4359825630933485e-04 -5.4927827282248080e-04 1.2362047791670400e-04
288 -7.8368469061873330e-04 -6.4433226571884012e-04 3.0159650673991348e-05
289 -7.6053439577438082e-04 -6.4968017141803767e-04 1.6449293681455467e-04
290 -6.8665963289305475e-04 -7.4302420075168644e-04 7.7799586496208172e-05
291 -2.0331324916733027e-04 -9.7917747563643748e-04 -1.6794430433981491e-04
292 -2.7465391173225168e-04 -8.9570388700890402e-04 3.7328418360004287e-04
293 -3.3092148936753865e-04 -5.4352239164098749e-04 -7.5687718787063884e-04
294 -1.0248880976219583e-04 -4.5900295363865358e-04 -8.6222248384428956e-04
295 -4.7996158826072685e-04 2.9562319419257067e-04 8.0773592276077205e-04
296 -5.5312923647352834e-04 4.0083882923065651e-04 7.1759682550032677e-04
297 -8.7974143030737054e-04 4.5540345283582732e-04 -2.0804720701739400e-04
298 -6.0533926871738904e-04 2.6677874154167839e-04 7.3618524075990722e-04
299 -6.6929581883857136e-04 3.7649272187725516e-04 6.3400964002948215e-04
300 -6.0588410787566814e-04 5.0006690457398545e-04 6.1377200523625929e-04
301 -7.2130097180275125e-04 4.6697298491535513e-04 5.1558215983604674e-04
302 -7.7638619159606725e-04 3.3702177956839612e-04 5.3463128301104140e-04
303 -3.0060904511428093e-04 -6.4928465900869438e-04 6.8861163085954125e-04
304 -6.4440211862603941e-04 5.8852784439095932e-04 4.9462379225800272e-04
305 -8.1638750082114542e-04 4.1907461106446353e-04 4.1343979830130981e-04
306 2.0146315936727722e-04 -5.4077197616069590e-04 7.9939080007475252e-04
307 2.2494125804682744e-04 -4.1514675786269000e-04 8.6069180588072241e-04
308 3.3289433305688099e-04 -4.8943050819032143e-04 7.8950483858289476e-04
309 -4.5391196322796542e-04 -7.4364269591809375e-04 4.9669479078837001e-04
310 -8.6686778137404013e-04 2.8302859784603153e-04 4.2470270970309984e-04
311 -4.0966601049284405e-04 -8.7137094924443837e-04 3.0702812510881110e-04
312 -7.7017330441014051e-04 6.5434286074206305e-04 8.1674584760396807e-05
313 -8.6226111491253155e-04 -5.0942764036071737e-04 -1.5706148989332451e-04
314 -5.8945007669605821e-05 1.2282068810720649e-04 9.6450710237467154e-04
315 -8.9788366799850258e-04 3.5382769955544794e-04 2.9968919647289509e-04
316 -9.9341666106874857e-04 1.8511375522436510e-04 8.4236960195231185e-05
317 -9.9158163244857046e-05 7.6553701462431332e-04 -6.2852847428664744e-04
318 2.5865103420773033e-04 -3.9677075636368529e-04 -8.5999847013659638e-04
319 -7.0178912859208216e-04 -7.3059061957984341e-04 -6.2187697015516735e-05
320 -6.0803322257178740e-04 -8.1247241164332930e-04 -4.5762206053095961e-06
321 -6.5856821723301239e-04 -4.1432261000527189e-04 -6.2285863444508979e-04
322 -5.9268070308782345e-05 -2.0475159111141189e-04 -9.5122464576952940e-04
323 5.2546211988762823e-04 -8.6518146680347882e-04 7.7037367553157209e-05
324 -6.2813725293469193e-04 7.8837709970181694e-04 -1.0452606179811569e-04
325 2.8821088628897803e-04 5.4238576573519914e-04 7.7293805427108278e-04
326 2.7215462119847014e-04 -6.3487242439567711e-04 -7.1174752135804136e-04
327 1.4906220196599776e-04 -5.9386505356778970e-04 -7.7512350384625244e-04
328 4.2085426662082418e-04 5.3442042089985281e-04 7.2031854700277083e-04
329 4.8445108947901740e-04 4.1945303178353248e-04 7.5303668068296681e-04
330 4.3958669859502731e-04 4.4306216389293680e-04 -7.6477797234982632e-04
331 1.4138962456010705e-05 9.9780779889832019e-04 1.7317870061364483e-04
332 -1.0254628850280502e-05 1.0127351320894549e-03 4.9151420969905179e-05
333 -1.5973898580169433e-04 1.0012295401168334e-03 1.7290593216796629e-06
334 1.2368115682491701e-04 1.0027676397483007e-03 8.4319944933596610e-05
335 3.4876657563813013e-04 -3.5857776548090420e-04 8.4592953749268701e-04
336 4.4944670424577497e-04 -4.2237048791289762e-04 7.7144758294539701e-04
337 -8.1629867795317388e-04 2.0815325245545138e-04 5.3974798402371736e-04
338 -3.5701065189035181e-04 5.1290679158335619e-04 7.6468481498295586e-04
339 -1.1688384485546831e-04 4.4753536372962611e-04 -8.6452210156114854e-04
340 3.6245167169829829e-04 -3.0375923061701395e-04 -8.6034648454746563e-04
341 2.2107536789062676e-05 -2.8438024528745851e-04 -9.3363912532605595e-04
342 -9.4411122186276305e-04 3.5877079005458958e-04 -9.8486729791980203e-05
343 1.8568253371583858e-05 -3.7449002663255760e-04 9.0393501664062694e-04
344 -5.2368061666479323e-04 6.1205300897541209e-04 5.8966633018767112e-04
345 -5.4385894643097963e-04 7.1211616424306993e-04 4.5645318190509087e-04
346 -6.6841923455826589e-04 6.6224466595334172e-04 3.6246609471911226e-04
347 6.1812457529893973e-04 -3.6075168346490764e-04 -6.8887123494466569e-04
348 7.2504113873852419e-04 -3.6962872785503974e-04 -5.8050894447765535e-04
349 5.4272140469012464e-04 5.1953810382337768e-04 6.5221008116920804e-04
350 6.0530912773844932e-04 4.0011982613976976e-04 6.7847555558190427e-04
351 6.6070569730449131e-04 4.8792509573817921e-04 5.6970603492986045e-04
352 7.1439966340825195e-04 3.6050361556161337e-04 5.9680879141189966e-04
353 7.5849037927441213e-04 4.4705648704729132e-04 4.8261200867306237e-04
354 -6.5395393010854691e-04 -7.4486250263998746e-04 2.0848772803586907e-04
355 2.6269140970606531e-04 5.5503187323357604e-04 -7.7205857129524359e-04
356 1.4012358570130039e-04 5.5199778583662389e-04 -8.0337879120515694e-04
357 -6.7367317775564458e-04 3.2132442912744154e-04 -6.5603458007248733e-04
358 5.4124883710340692e-04 -8.4320980643868616e-04 -1.5724462920343145e-04
359 4.6020103353142246e-04 -8.5666362566456749e-04 -2.7884403689374120e-04
360 -8.3380047995568727e-04 4.9131666699551502e-04 2.9066148384600791e-04
361 -1.3146912264486339e-04 -5.3254427469124515e-04 8.1761726407197704e-04
362 -1.9589860497796853e-04 3.4992146253914918e-04 -8.9265763073441992e-04
363 -2.3224114264612224e-04 5.1061939266011560e-04 8.0902819495554839e-04
364 -5.2960541773345931e-04 8.4278483018513316e-04 -1.8421154076248710e-04
365 1.6221145225645396e-04 5.4466754498387409e-04 8.0468141066421370e-04
366 -3.6092963543939008e-04 -2.5691890793835927e-05 9.0858307374686162e-04
367 -7.1308538899682165e-04 -6.5122659631004299e-04 2.9823263665520078e-04
368 2.0922033020364633e-04 6.6425121996268753e-04 7.0682962825856417e-04
369 8.4643122783468745e-05 6.2774721439029090e-04 7.5750362985500016e-04
370 6.9889481506685953e-04 -2.4834197698292377e-04 -6.6315059287139807e-04
371 -5.2494451591415900e-04 1.6666229401027350e-04 8.1602360319743496e-04
372 -6.5411775730546667e-04 1.2865792575969624e-04 7.3257787895062950e-04
373 5.6841059508299079e-04 8.3870963590544590e-04 -4.7188256153245834e-05
374 -1.4837097216716637e-04 -6.6615099299626029e-05 9.6080887983181987e-04
375 -3.9430650958013174e-05 -1.5212556072008977e-04 9.6163264068803867e-04
376 -3.0757541762386440e-04 -9.3532783381191492e-04 2.3634503118935633e-04
377 -4.4614015634449240e-04 -8.9702796250913240e-04 1.6075634763759199e-04
378 -9.4113695688913582e-04 1.9265545910764572e-04 3.1391626869851225e-04
379 4.3048656496682576e-04 6.5813982287706919e-04 -6.1317982810615780e-04
380 1.5223033321203853e-04 -7.0663735531952215e-04 -6.8160626719793031e-04
381 2.8278163263761679e-04 -7.4102081589699721e-04 -6.0560052700685035e-04
382 -9.1492133103358115e-04 -3.8396840520415381e-04 -2.0307919775611779e-04
383 -8.4253297368714285e-04 -4.7644942950363632e-04 -2.9079044141471741e-04
384 -7.8147356323122227e-04 -5.9510124781069547e-04 -2.4415396306120022e-04
385 -1.7249310301157373e-04 -9.5255757985246827e-04 2.9184328267204172e-04
386 -6.6136356010909408e-04 5.2659630354571715e-04 -5.3482935976568004e-04
387 -7.6737846530779846e-04 4.7824323107728951e-04 -4.3814026987619052e-04
388 8.8734569639852662e-04 2.4671576677435842e-04 -4.0769966468158492e-04
389 -9.2456933257974952e-04 3.2894501033600649e-04 -2.4407563756538033e-04
390 -5.2168057775656054e-04 8.6805552198226271e-04 -4.7202646220952007e-05
391 -4.1863884362376149e-04 9.1427287024918244e-04 -1.2384586658042941e-04
392 -6.1617611899888428e-04 8.0458921320641691e-04 2.9015206886973139e-05
393 -6.0185392396093290e-04 -8.0551441466866140e-04 -1.3258494877996168e-04
394 -5.0956778564863127e-04 -8.7548820060769355e-04 -5.7856079670830320e-05
395 9.5847927174595840e-05 1.0083861087516227e-03 -4.4396735692607162e-05
396 2.3030093349154420e-04 9.8757600522646552e-04 -1.3115853251137484e-05
397 5.1075944638993170e-04 3.1483088769053213e-04 -7.8339918485914150e-04
398 2.5655090135367055e-04 -2.9337877106421954e-04 8.9800819312240961e-04
399 3.7141980416186004e-04 -2.1692972660122158e-04 8.8121267807857249e-04
400 -2.8230254558734040e-04 6.0765300304186363e-04 7.2831965835446356e-04
401 -1.6872828180271421e-04 6.0229662753874958e-04 7.6330858497371116e-04
402 3.0934759884804658e-04 -6.0869446783917962e-04 7.1844391758965609e-04
403 6.5630023100453317e-04 2.7283736799397975e-04 6.9273082335113707e-04
404 6.8427795607162059e-04 5.8716861388470772e-04 4.4669350643704206e-04
405 -3.1953807209736406e-04 -9.5728133912553661e-04 1.0435414122496519e-04
406 2.3323585842534517e-04 -2.6732263227795998e-04 -9.1112496274109000e-04
407 3.1976822699655752e-04 -1.6728131703710276e-04 -9.0897109085354166e-04
408 8.5583945822527487e-05 4.4279446693567685e-04 -8.7004430863663756e-04
409 -9.0291963016098987e-04 4.3402608464859196e-04 1.5862378497793131e-04
410 -4.6150985492126901e-04 8.2030976268473294e-04 3.6116941932390242e-04
411 5.4963060214077524e-04 4.2074785327572299e-04 -7.0807230455117325e-04
412 4.6291340166229486e-04 6.4498023705259735e-04 6.0528383370225531e-04
413 8.1634662264536107e-04 2.9690621749959575e-04 5.0197124672914084e-04
414 8.4971132175991478e-04 3.8308287407223785e-04 3.8351575574620256e-04
415 4.4539064199944462e-05 -1.5113232304680662e-04 -9.6113219073563005e-04
416 -9.9068781260701778e-04 2.1422227710540549e-04 -4.1719596498420846e-05
417 -6.6916631928442904e-05 3.3474815281200817e-04 -9.1504398456408492e-04
418 -1.2788745366239672e-04 2.2838910144972699e-04 -9.3944551754753382e-04
419 5.6080681621067144e-05 1.4635828706123570e-04 -9.6028216777352502e-04
420 -4.3115727713200114e-05 -9.1509333571405762e-05 -9.6814254124385167e-04
421 -9.6102808778402186e-04 3.2004011303228097e-04 5.5323635737608267e-05
422 8.0087819207804421e-04 -2.5125072840601840e-04 -5.4618033235201283e-04
423 8.1508043189578740e-04 -3.7242487311901887e-04 -4.5624642254385830e-04
424 2.5536076544030141e-04 9.7284957020900514e-04 1.2575533993834648e-04
425 2.6398375057245959e-05 -6.7405935017584868e-04 -7.2663925061195042e-04
426 2.8689644404465548e-05 -5.3826407007396225e-04 -8.2383653465483353e-04
427 -8.4290288207368257e-05 -5.9100064006653932e-04 -7.8525199832007184e-04
428 4.1992788229920723e-04 -9.0907582944988244e-04 -1.5905737650081885e-04
429 3.3395650116321341e-04 -9.1572609951789193e-04 -2.7124491025613340e-04
430 3.6877329271020652e-04 -8.5221584145301005e-04 -3.9222544743478866e-04
431 -6.0373387902288829e-04 -7.3745369897908056e-04 3.3262503152251384e-04
432 -6.4691134700213440e-04 -6.3601705043353875e-04 4.3571841094702590e-04
433 1.3931116581957770e-04 -3.4206673631206582e-04 -9.0597590773400683e-04
434 -5.8902094193891298e-06 5.4775807518603510e-04 -8.1804136995643542e-04
435 7.3467531409984572e-05 6.6156702287890586e-04 -7.3219778834362006e-04
436 8.9605027404301529e-04 2.4407240664293611e-04 3.9110324359721468e-04
437 9.1898082246645195e-04 3.2709568060093782e-04 2.6756038031131046e-04
438 8.6381053093850183e-04 4.5568980881313876e-04 2.6230572575126687e-04
439 7.6182583766823343e-04 2.2011269174934892e-04 6.0599949942217481e-04
440 -5.8852289843528403e-04 7.6314384847134590e-04 3.0333463507946882e-04
441 -7.0925638557986373e-04 6.9101272683496642e-04 2.1354608527537349e-04
442 6.7437511506316370e-04 -1.2079724700705129e-04 7.1668852339519561e-04
443 7.1695877421981604e-04 -2.3895517370010715e-04 6.4840567453801486e-04
444 8.2271417455508306e-04 -2.4223346478631987e-04 5.1955749140659166e-04
445 7.5396611535110379e-04 -3.5727763648303596e-04 5.5283733060664355e-04
446 8.3454033912175513e-04 -3.6960548620226455e-04 4.2509161649345991e-04
447 7.5538666287721865e-04 -4.7540841986495462e-04 4.6222104171360850e-04
448 6.7003488852824763e-04 -4.6245374583786444e-04 5.7956897383556409e-04
449 8.2267993644254611e-04 -4.8287684021521064e-04 3.3234374962890753e-04
450 8.9260622867915536e-04 -3.6728062164430059e-04 3.0120212965089541e-04
451 6.5414104244823255e-04 -5.8814721156445174e-04 4.8568862789914990e-04
452 6.7170447245523495e-04 1.2861494324563138e-04 7.1841346401093308e-04
453 -5.8357704378156382e-04 -8.1992536792903977e-04 1.2567312841003789e-04
454 2.3790299177237032e-05 -4.0562431235517996e-04 -8.9134711263896859e-04
455 9.2176578088696767e-04 3.9630547361183411e-04 1.4577738429900636e-04
456 4.4559567553115469e-04 -2.1086733366043069e-04 -8.4973276301326050e-04
457 4.9723160772411994e-04 5.3545173019842575e-04 -6.7245976493346643e-04
458 5.9118899909077797e-04 -2.3863194957692751e-04 7.5662290917032429e-04
459 1.4590123656994607e-04 9.7680605198316971e-04 2.2095718225047554e-04
460 6.4126809997513078e-04 7.0421262022394486e-04 3.3419258530108882e-04
461 3.8406604126316738e-04 5.5933293949848026e-04 -7.2080192448157005e-04
462 -4.2020979317586554e-04 7.0700540242425182e-04 5.6728900068576385e-04
463 7.7723224668960688e-04 -1.3237386091014379e-04 -6.1164765717982867e-04
464 8.8395691004558726e-04 -2.4803247952411749e-04 -4.1432158447562821e-04
465 8.8394944214305793e-04 -3.6876352562056544e-04 -3.2202782735000536e-04
466 1.0060245260501758e-05 8.3206529213311435e-04 -5.5381560183086654e-04
467 9.4075006278484055e-04 -2.4171370347078819e-04 -2.8200620161640728e-04
468 9.3372166318563292e-04 -3.5570298321158062e-04 -1.7505716152847912e-04
469 1.5925266753047228e-04 3.4079382692825681e-04 -9.0244361591879996e-04
470 8.6574755330294940e-04 -4.8289436276851996e-04 2.1032242767271249e-04
471 9.3191629183859254e-04 -3.5342223913151905e-04 1.8443124671614283e-04
472 1.9171608734959523e-04 7.7788880085441611e-04 5.9528080209702314e-04
473 1.1936303818937496e-04 -2.1606673118251097e-04 -9.4358133578217364e-04
474 2.3276860270425432e-04 -9.0909889524452446e-04 -3.7026779076631031e-04
475 5.8517869581544725e-04 7.7822699478015021e-04 -2.7160530478315267e-04
476 3.2055450454441809e-04 7.2230988373113577e-04 6.0820124106468812e-04
477 2.9263849191807080e-04 7.3465472312703444e-04 -6.0709013614907185e-04
478 -1.8967407720039918e-04 -5.5035161970716571e-04 -7.9520690235314903e-04
479 -1.7997545910575712e-04 -6.7150710786329968e-04 -7.0728363422919278e-04
480 -3.9931098711240738e-04 8.3466242404872919e-04 -3.9592912414237330e-04
481 2.0424159773589138e-04 6.6197334181680343e-04 -7.0842604897093989e-04
482 7.7454096782137002e-04 -6.0896982373023908e-04 2.3811954702158115e-04
483 9.0141465245801645e-04 -4.5725917842961728e-04 9.0610119920404026e-05
484 9.5925430692938326e-04 -3.2488581203284452e-04 6.2945005502567411e-05
485 5.7756302115944476e-04 -2.3857033644840190e-04 -7.6565002248450286e-04
486 3.9515478478923473e-04 1.6258131033727473e-04 -8.8117107688692969e-04
487 1.0038635988754467e-03 1.2806962241964872e-04 -7.5499298768380685e-05
488 9.7241093642790142e-04 2.6620239515156148e-04 -1.1917552898930739e-04
489 9.8798013076890575e-04 2.2920055435480209e-04 7.8749867718169484e-06
490 9.1756775890596638e-04 4.2225455515195837e-04 -9.5351687462131508e-05
491 3.5277179722014985e-04 9.5088313250216844e-04 2.0856235352966291e-05
492 3.2078819873387497e-04 9.5264984096242477e-04 -1.3364080763928190e-04
493 4.5021835301093494e-04 9.0557257274483723e-04 -7.2961913586765790e-05
494 9.2967102839598649e-04 -4.0594618356091860e-04 -3.2862608252975105e-05
495 9.7362695653666217e-04 -2.8046035126654369e-04 -5.6619059497918583e-05
496 -4.0613521439794733e-04 9.2893634176327458e-04 1.7669924965922520e-05
497 1.0036878708790085e-03 1.3281109647515066e-04 6.9992037755617267e-05
498 6.9471141240485352e-04 6.9148625557277047e-04 -2.5024667148248618e-04
499 1.0047968372576400e-03 -1.2748010061912926e-04 -7.3222509627405365e-05
500 9.8400249101284355e-04 -1.1042390815721217e-04 2.1382271374563309e-04
501 9.3586252347150950e-04 -1.2037596079235232e-04 -3.5812498385641894e-04
502 8.7438131829679032e-04 1.1878982192836152e-04 -4.7972761441707331e-04
503 8.7846636938849749e-04 -1.1415470410707107e-04 4.7416326086187918e-04
504 4.1107987841342431e-04 1.0760155874475827e-04 8.8312288623174074e-04
505 4.1115905277349491e-04 3.1196022846830066e-04 8.3681106551296736e-04
506 6.5188070866978320e-04 -3.4856006863313123e-04 6.6513180072120572e-04
507 3.1651699381678606e-04 -1.0647104637418352e-04 9.1847985463750100e-04
508 8.4757610631516802e-05 -1.0555186600580698e-04 9.6503399845136219e-04
509 1.4608139572301853e-04 -2.1567073945019346e-04 9.4023678161645103e-04
510 2.5490848970067073e-04 -2.0373938176656200e-04 9.2032110891528129e-04
511 -1.9874423816963204e-04 6.8451850530219414e-04 -6.9000893742596518e-04
512 2.8304122746309192e-04 9.3931989595273711e-04 2.4683086076969491e-04
513 5.9894246843107484e-04 -8.1929254609035230e-04 -3.3376302827005422e-05
514 2.6694041212083525e-04 -9.7859371955801955e-04 4.2679114816075107e-05
515 3.0554459874515316e-04 -9.5259866567129578e-04 1.6598447230632595e-04
516 -5.4344649812262187e-04 5.6330967385570139e-04 -6.1621576976309976e-04
517 7.7714995727275150e-04 -5.9336637336086578e-04 -2.6127290091681890e-04
518 -1.4435987098202857e-04 -1.0036556174329203e-03 -4.6213623716269570e-05
519 -2.8670596275875683e-04 -9.7333821372917186e-04 -4.7219262720397957e-05
520 -3.3497874694529087e-04 -9.3716312718955129e-04 -1.9196373033314465e-04
521 -7.9926021286600367e-04 5.3344820564986265e-04 -3.0934995224318643e-04
522 -1.0011496055690886e-03 9.6014827838880297e-05 -1.2629366602531875e-04
523 7.9997594807948403e-04 6.1085884845351452e-04 1.2128336010804618e-04
524 -8.1045603352912466e-04 -5.4767679723373127e-04 2.5830460779664911e-04
525 7.9199811772501629e-04 5.1019179828514535e-04 3.5976959482572629e-04
526 4.9481948547821272e-04 -7.8133408734982590e-04 -4.0035602895380315e-04
527 -9.6611746757503062e-04 -2.8736969920823281e-04 -1.1212957197179212e-04
528 -9.5340407535895154e-04 -7.6098246416616728e-05 3.2381365614450949e-04
529 -9.2612590445053104e-04 5.1572774295699010e-05 3.9305444358069853e-04
530 -8.4091202944078453e-04 5.5077697958042871e-05 5.4119174787063109e-04
531 -7.8786794972530126e-04 -6.2964683949643372e-04 -1.1029946523689627e-04
532 -9.9246476958648132e-04 -7.5361540841456688e-05 1.8824001679938878e-04
533 -7.4838429038387455e-04 5.4555306243258390e-04 3.9543878822462708e-04
534 -7.1271305862674801e-04 7.2074829267576048e-04 -2.1897075470356934e-05
535 -2.4930987816979179e-04 -9.3258284263089881e-04 -3.0054325231348696e-04
536 6.4391949858694187e-04 7.6914615050738201e-04 -1.4469892664540252e-04
537 -1.4180160715903680e-04 -9.0165779425800576e-04 4.2443566412788661e-04
538 -4.3052877216196750e-05 1.0093099534013517e-03 -8.0902670819970013e-05
539 -1.7801435769099642e-04 9.5901131094202718e-04 -2.6308096558307845e-04
540 6.1352706405875477e-05 9.9246783600918042e-04 -1.9296315248203073e-04
541 -9.5355317022690310e-04 2.8508629156908288e-04 1.8814518882680195e-04
542 -8.8582826357522129e-04 -4.4219749458901522e-04 2.1295597828756765e-04
543 -7.9910233534303968e-04 -8.6856228618745215e-05 5.9193050164814051e-04
544 -7.4082737366373743e-04 1.0364849402886000e-05 6.6263583307125820e-04
545 -6.5668732659425715e-04 -5.3667366650994011e-04 -5.3296523980040679e-04
546 -7.5074413591684160e-04 -4.2565046183849824e-04 -5.0987253140258109e-04
547 -7.5323469542281382e-04 -2.9688056272155237e-04 -5.8451258359367537e-04
548 -6.5593183674733180e-04 -2.8112667212661221e-04 -6.8987652718166157e-04
549 2.6197023781922616e-04 -8.1675922908719812e-04 5.1889201011042190e-04
550 5.8738988637336989e-04 5.9779738500156064e-04 5.4541221520806231e-04
551 8.8434698991327705e-04 3.6774712031678342e-04 -3.2026017169072468e-04
552 8.9839106755919772e-04 -2.4261086637091149e-04 3.8818836941204423e-04
553 1.6099989838645423e-04 -7.6841836849906350e-04 6.1516797415633818e-04
554 -4.4413849200640557e-04 -6.3993443392743542e-04 6.2311262555046504e-04
555 -3.7809487052943206e-04 -5.4536208590337152e-04 7.3453849270908736e-04
556 -8.4151698272632279e-04 -4.3727435941103991e-04 3.4487193208332514e-04
557 -6.1106554477381714e-04 -7.2809402556914618e-04 -3.3947893947714418e-04
558 -7.1942690633039323e-04 2.4220248975097375e-04 6.4350294618672793e-04
559 -6.8167617090975541e-04 -4.3693055446312155e-04 5.8457114336917730e-04
560 -5.9041446271352520e-04 -5.5545797067601025e-04 5.8476201908859047e-04
561 6.2922596678692652e-04 4.8527838525081623e-04 -6.0416774638505485e-04
562 -3.2346082337192486e-04 -6.7173755517958877e-04 -6.5902119319519073e-04
563 -4.8531532988651854e-04 5.1008700555344344e-04 6.9863759628726425e-04
564 7.2820727167197553e-04 -4.8974942424945202e-04 -4.8813364648347046e-04
565 -8.6077618282826761e-05 -2.7755174908169333e-04 9.3230801490316482e-04
566 -9.7921074439677106e-05 -4.0293667225755275e-04 8.8763165344419887e-04
567 -2.0039254517328694e-04 -3.1546478926845430e-04 9.0429676545813282e-04
568 -1.6679829360624401e-04 -6.4346661030447740e-04 7.3386728361805376e-04
569 3.9983376072206097e-04 -6.7091716006186907e-04 -6.2027892432116175e-04
570 -6.9518603176329304e-04 -1.0367041173994714e-04 6.9961970191748340e-04
571 5.3701168948175359e-04 3.1104193812596257e-04 7.6821841079605915e-04
572 4.9064948307772031e-04 -3.4065726131788418e-04 -7.8574475446728986e-04
573 1.4400599830031839e-04 -3.2837483726976620e-04 9.1001046038844552e-04
574 -7.3180882507034204e-04 1.9544880827845364e-04 -6.4468932332903861e-04
575 1.4796980322298042e-04 -4.6632704848008051e-04 -8.5198640561352464e-04
576 -4.4136427280423149e-04 -4.1663316577932486e-04 7.7926904049609245e-04
577 -3.1903823570037936e-04 3.7420865874671994e-04 -8.4953872747064497e-04
578 -2.6570165073541274e-04 2.5299683581285606e-04 -9.0623005114213648e-04
579 -3.1452779811206357e-04 1.5211769512305635e-04 -9.1245059182737181e-04
580 -4.8101138083301030e-04 5.3987139166432450e-06 -8.5534540687673671e-04
581 4.5434784471013140e-04 -5.5540475662027870e-04 6.8799705317619194e-04
582 4.6274146428968024e-04 -2.9514290402002423e-04 8.1730954248058357e-04
583 -4.3420245119892985e-04 1.2706332036924414e-04 -8.6964027347371001e-04
584 -3.9753344647369145e-04 1.9536176463171617e-04 8.7463140443113123e-04
585 -4.4407060064704872e-04 6.2419479662352480e-05 8.7200932200588526e-04
586 -3.2563472539152538e-04 -4.1875700562808612e-04 -8.2833990526157424e-04
587 3.0805559451180214e-05 9.6466416067685827e-04 2.9814714142886500e-04
588 -3.9029834565315223e-04 -7.9425946647459456e-05 -8.9401312047337957e-04
589 -2.7178277226999788e-04 -3.5449047263844584e-05 -9.3630907721560823e-04
590 -1.5436549391161127e-04 -1.2784982263237447e-04 -9.5380858491636946e-04
591 -1.6350903831936975e-04 4.1768965319512316e-04 8.7179174124679833e-04
592 -5.1898489211811864e-04 8.0482095936088970e-04 -3.1797578674358984e-04
593 -2.5445745333020463e-04 8.6795627857903816e-06 9.4153600912495891e-04
594 3.4086832544722611e-04 2.0932558432983656e-04 8.9376785360801355e-04
595 -8.1390962123598619e-04 5.7437793756117382e-04 1.8337941736606874e-04
596 4.3672283697939108e-04 -8.9644302759093303e-04 1.8313105629336044e-04
597 1.0343346863551943e-04 4.3466912718583483e-04 8.7277732395866592e-04
598 3.3277268653260605e-04 9.1171404907709123e-04 -2.8069367906135092e-04
599 1.8362551232424052e-04 -6.6115963484665227e-04 7.1551753965562372e-04
600 -5.3591334100836494e-04 -8.2083964267923065e-04 2.5130635641085566e-04
601 -8.5482835998918979e-04 4.0835086155972269e-04 -3.4536694629890040e-04
602 -8.1186524084053636e-04 3.5138152029893632e-04 -4.7317782310221375e-04
603 -7.5191941598966663e-04 -5.4283392039713183e-04 -3.9556897123905929e-04
604 -9.1874575776119494e-04 1.4901557681745151e-04 -3.8452637366412611e-04
605 -4.1437637403585561e-04 -9.2628047452068200e-04 1.8890669230548972e-05
606 -3.2845476812784502e-04 8.5952748677984735e-04 4.0760279358049924e-04
607 5.0001802329457068e-05 1.1821131277034957e-04 9.6471539167663600e-04
608 -5.1663875327502867e-05 7.7084660557077283e-04 6.2878711612123156e-04
609 -7.4467754564947733e-04 -1.7057070695823855e-04 -6.3831738062286982e-04
610 9.6976501763682411e-04 2.6303148470079181e-04 1.4135958447542937e-04
611 3.8342703216196335e-04 -9.4953796015539085e-05 -8.9582501286047749e-04
612 9.3909010453476004e-04 1.2781339296850602e-04 3.4744253788198868e-04
613 -3.8204612721416702e-04 -8.7989335769588623e-04 -3.1771907978924699e-04
614 5.0459320528277686e-05 -7.8889676620575182e-04 -6.0905849032515200e-04
615 4.8028307479092819e-04 -8.9356054661756811e-04 -4.1277151343639408e-05
616 -6.9228902513727389e-04 -7.1038347877109284e-04 -2.0868579581984805e-04
617 -9.4629316009098492e-04 -2.5276504751685412e-04 -2.5292002862025608e-04
618 -6.1281839242564677e-04 4.4209803097092643e-04 -6.4641716887785467e-04
619 1.8658728326061518e-04 -9.6852973385563748e-04 -2.3275407727335430e-04
620 -3.7706961377585302e-05 -9.5175115652189129e-04 3.3545183677795065e-04
621 3.9382356977177237e-04 -7.7056849385937062e-04 -5.0742281049193506e-04
622 -2.1145881373192649e-04 -4.3724248351712007e-04 8.5331496908661877e-04
623 8.0475635776732825e-04 -4.9024463043193596e-04 -3.6123593542288803e-04
624 9.3797486107771830e-04 1.2583614874505517e-04 -3.5094512207832246e-04
625 -4.0338016969153031e-04 6.1003472823028572e-04 6.7198475105755971e-04
626 -2.5368067598019597e-04 -5.4891921681208189e-04 7.7998711203203328e-04
627 -9.5375419925673052e-05 5.2760314561437545e-04 8.2468424873044478e-04
628 4.7802731446970181e-04 8.9320550571175567e-04 5.0131742919618671e-05
629 -9.7697794405599914e-04 4.8431226975192755e-05 2.5710526689823353e-04
630 -6.0948497085837067e-04 7.9138787995293967e-04 1.6757421680273763e-04
631 -8.3483474130042665e-04 -1.9601348370147263e-04 -5.1802169583404947e-04
632 -4.1482908529257299e-04 8.8408145181784355e-04 -2.6010699808633045e-04
633 9.4235483776966892e-04 2.4857375870988418e-04 -2.7085236473919189e-04
634 -3.2742618575704496e-04 9.7141262953711699e-05 9.1582360153275358e-04
635 3.9943974261335337e-04 -9.3123338884025313e-04 6.2274882298441942e-05
636 -6.7435972102537756e-05 -9.8958802082902775e-04 2.0632144263109191e-04
637 -4.7726507388739213e-04 -6.5912698704580414e-05 8.5532784286604510e-04
638 4.2136408859229293e-04 2.5751404808156382e-04 -8.4751612130574841e-04
639 4.3302516387379411e-04 -1.0259586394522459e-04 8.7378302326288082e-04
640 -6.0833991680448241e-05 6.6763563069661253e-04 -7.2795045174053690e-04
641 -9.7220968752966897e-04 2.2443768885052186e-04 -1.7322119153226931e-04
642 -8.8975189368253405e-04 2.7879093936668086e-04 -3.8061446598194307e-04
643 2.8587830529226780e-04 -7.2043868874086979e-04 6.2647740294031963e-04
644 5.6157465732248855e-04 -4.5373634031023821e-04 6.8218201696361685e-04
645 6.1195541009029589e-04 2.1584591646237191e-04 -7.4621103654891015e-04
646 -1.9102751522284358e-04 1.1280633830833588e-04 9.4937333860572722e-04
647 2.6754343835585568e-05 5.3664419752198636e-04 8.2408530439782130e-04
648 -7.5797174246677054e-04 6.0377408013801283e-04 2.8380875118423231e-04
649 -2.7466765755374147e-04 9.7220214752796947e-04 8.3394441881807154e-05
650 9.4823400664365096e-04 -2.3495932905830090e-04 2.6402657610005145e-04
651 -4.7787604728825568e-04 -8.7297628107948209e-04 -1.9418313734223251e-04
652 -8.8777142728830119e-04 -3.4814662748841211e-04 -3.3049417302615181e-04
653 -1.8355515914207418e-04 1.3496989751704658e-04 -9.4765916691300479e-04
654 8.5976767446841406e-04 -4.8024198313994902e-04 -2.3537990086743008e-04
655 -7.2104193552864095e-04 4.0643868304225352e-04 -5.5930235734331175e-04
656 6.6448011491123760e-04 -1.3361000983613746e-04 -7.2313416637042422e-04
657 -7.5509300770470957e-04 -5.4566596066539768e-04 3.8409611167683337e-04
658 -3.6299275024898032e-04 4.1799926249489825e-05 -9.0666425010693978e-04
659 -1.3010417333824759e-04 -2.6847609244603538e-06 -9.6527378634284826e-04
660 -2.6797437104093373e-05 2.7983961563884617e-05 -9.7159069751932077e-04
661 8.6486517139809530e-04 -5.3100515752774419e-04 -1.7903420142825635e-05
662 3.3651889354296106e-05 -2.4363679526609989e-04 9.4423088423739739e-04
663 5.3292600157961792e-04 8.4437989434942517e-04 -1.6935425368740908e-04
664 -2.9721813011009287e-04 9.6747248803225137e-04 -5.6921130406166998e-05
665 -2.9996880524136259e-04 9.4698186070886307e-04 -1.9321779079135997e-04
666 -5.0434995180749831e-05 1.1213389212362773e-04 -9.6596233211901947e-04
667 2.6520184785194486e-04 -8.3557181316620799e-04 -4.8909670380513186e-04
668 -5.5815110818151854e-04 3.2730140468515332e-05 8.1048908055104724e-04
669 -8.3332781204188298e-04 -3.2012889991265528e-04 -4.6029697004777937e-04
670 -5.1469412045402067e-04 8.6799246067669855e-04 9.5979991099622982e-05
671 -9.8093115982648927e-04 1.5566306125578826e-04 1.9316592405277584e-04
672 5.4832959486712362e-04 -3.4510748051375491e-04 7.4651273201137638e-04
673 -3.5005549415165490e-06 2.3042745152079721e-04 -9.4675259834805679e-04
674 -1.9481163859380720e-04 -9.8174330957929881e-04 1.6083203786094463e-04
675 4.1477045133868524e-04 7.5171728935492072e-04 5.1503531559785878e-04
676 8.0298538605231700e-05 7.3332969572856483e-04 6.6626285289278140e-04
677 4.6193154018620957e-04 2.1741560160259607e-04 8.3982749464781752e-04
678 -4.8713313504506194e-04 -7.9697656116444902e-04 3.7841624342273663e-04
679 2.8365893504861715e-04 -6.4284367332693651e-05 -9.3182290916091984e-04
680 3.9731293448321627e-04 -6.6250224212597230e-04 6.2830574887917765e-04
681 -8.8806728987889669e-04 1.6203862207502030e-04 4.4041770963593966e-04
682 -9.1428049755403883e-04 4.3717762377737672e-04 1.6481302436330960e-05
683 -6.2172790193267821e-05 2.3702848582185852e-06 9.7078114204055238e-04
684 3.5225813925884240e-04 -9.5010860619580641e-04 -5.8362348942916501e-05
685 4.2099735412649050e-04 8.9891156902306322e-04 -1.9437118213773671e-04
686 1.7410422417313796e-04 -7.9708872902717928e-04 -5.7575893575026070e-04
687 1.8660003126743331e-04 9.8731283182010971e-04 -1.2473373561433090e-04
688 -8.1921177387309476e-04 -4.2650139702176136e-04 -3.9911750079137413e-04
689 -5.3904281701602156e-04 -6.6342943737227858e-04 5.2063962958217983e-04
690 5.8528175277762051e-04 -6.9335450478021489e-04 4.3338632627423497e-04
691 9.7802667072811726e-04 -2.2691489296001888e-04 1.4185051430554209e-04
692 -6.9419175754056883e-04 -5.2932156246004644e-04 4.9254112409133951e-04
693 9.4862890814995701e-04 2.2165465469293282e-04 2.6923650120175318e-04
694 -1.7832452263356595e-04 9.8792799197564506e-04 -1.3342480817254889e-04
695 9.2398017409355839e-04 3.5801506159588366e-04 -2.0532768873590137e-04
696 -4.1613119774867538e-05 6.5654505157330208e-04 7.4008724847631608e-04
697 -3.2032101869192858e-04 -4.5835617689668105e-04 8.0987031874432778e-04
698 9.5028000176004303e-04 3.5651928023037771e-04 2.0926883265683842e-05
699 -4.9348216797490921e-04 -5.1889607610140851e-04 6.8679589774955799e-04
700 -6.4815494265540378e-04 -4.3266603644481484e-06 7.4563617678739054e-04
701 5.7934813046154698e-04 -5.4548603737733265e-04 6.0139657205461735e-04
702 -6.9966247547216716e-04 -6.4814699199729382e-04 -3.2910424580419540e-04
703 -7.5863207337719557e-04 2.9074592706729681e-04 -5.7832193363562662e-04
704 4.4138149406279988e-05 3.3420585049009899e-04 -9.1639934460325894e-04
705 3.1918577718598645e-04 6.3807232600877667e-04 -6.8806407235231387e-04
706 -3.2229703232066132e-04 6.9021637623838876e-04 6.3908244713875963e-04
707 1.0841874051642615e-04 -9.4187993757341112e-04 -3.4450543341972052e-04
708 -6.8839109148443071e-04 7.3712719303751172e-04 9.3290214334857340e-05
709 1.2585485915485189e-05 7.5226818793599083e-04 -6.4882420168067975e-04
710 -4.1068674230130853e-04 7.8516164816085326e-04 4.6997107178104337e-04
711 -9.4274725587678468e-04 2.1911239905101986e-04 -2.8588477449499551e-04
712 7.8129260668278956e-04 1.0637362140886815e-04 6.0996115911676697e-04
713 -2.1837841730649096e-04 -7.5192075091504065e-04 -6.1601641917790923e-04
714 6.3856388193638165e-04 3.3871674824119955e-04 -6.8104738560043055e-04
715 -2.1099004732725351e-04 -9.9102519857796742e-04 4.3533359143275630e-05
716 -2.6189143142598174e-04 6.2721186584340017e-05 -9.3687181001043019e-04
717 -4.0189889959866236e-04 -9.2573867481011399e-04 -9.6763293078847603e-05
718 4.8806990856549535e-04 -1.9421838921336278e-04 8.3080111645078374e-04
719 7.4479755196521741e-04 -5.6694903683921622e-04 3.7371648873712180e-04
720 8.6540218278471556e-04 5.0437246312694554e-04 1.4888317687045520e-04
721 2.2056759375791427e-04 -1.5655667674744123e-04 -9.3681887239911710e-04
722 -5.8013970218584129e-04 -7.9292301693038489e-04 -2.4035941861971319e-04
723 6.7689261614864993e-05 6.4516748111022733e-05 -9.6826314614249678e-04
724 -1.8739049907641955e-04 7.1318424450500094e-04 6.6728199826522594e-04
725 8.8872663135926571e-04 -4.7094634193475354e-04 -1.2461929234410608e-04
726 5.7815813200934232e-04 2.1198208720679570e-04 7.7095110988888583e-04
727 8.0004646781319151e-04 5.6886104092794337e-04 2.4341069312369933e-04
728 5.5158637568245125e-04 6.0226991647227947e-04 -5.7359517600300382e-04
729 4.5549855919709584e-04 9.5089470261631784e-05 -8.6258073089881537e-04
730 7.2571361609595519e-04 6.1462162821728330e-04 3.3493178007502027e-04
731 -2.5706305986595364e-04 -6.0684736273444956e-04 -7.3606327916256396e-04
732 3.4388864695634319e-04 6.2230397375395762e-04 6.9120792549799454e-04
733 -7.4937416619458744e-05 9.8807724638591186e-04 -2.0008998819814221e-04
734 -2.3985210663245708e-04 -4.6829188533326798e-04 -8.3011754931246564e-04
735 9.7389443286716789e-04 -2.2562492973095269e-04 -1.6380000611875204e-04
736 9.9228022004617671e-04 -2.0746250237513295e-04 2.7640581074883309e-05
737 -2.9893735162865303e-05 -7.3581412154835515e-05 9.6971530126778351e-04
738 -5.1972532216030415e-04 -8.6898752521510317e-04 5.3703972032958760e-05
739 5.1117004822275459e-04 1.9056777648565268e-04 -8.1844245814186782e-04
740 -7.5623154782161772e-04 1.3034516609556701e-04 6.3315111229897208e-04
741 -1.5080844374749515e-04 4.5496756679886032e-05 9.6060355012543813e-04
742 -5.5039374833160874e-04 -7.2128341373346434e-04 4.3179142635408875e-04
743 -9.3686640084206853e-06 4.2762991763175287e-04 -8.8006671061424734e-04
744 3.0364275358796868e-04 -9.5129359307335234e-04 -1.7016468550837084e-04
745 -6.8774431519102110e-05 -6.8318747902067504e-04 -7.1275999379613380e-04
$EndNodes
$Elements
1486
1 2 2 0 0 410 440 345
2 2 2 0 0 421 541 409
3 2 2 0 0 409 682 421
4 2 2 0 0 545 603 546
5 2 2 0 0 426 427 294
6 2 2 0 0 294 454 426
7 2 2 0 0 265 682 409
8 2 2 0 0 24 41 4
9 2 2 0 0 3 24 4
10 2 2 0 0 238 642 602
11 2 2 0 0 520 651 613
12 2 2 0 0 653 666 659
13 2 2 0 0 404 460 98
14 2 2 0 0 222 482 219
15 2 2 0 0 40 463 9
16 2 2 0 0 608 724 696
17 2 2 0 0 435 709 69
18 2 2 0 0 413 439 29
19 2 2 0 0 345 710 410
20 2 2 0 0 422 463 40
21 2 2 0 0 98 550 404
22 2 2 0 0 95 724 608
23 2 2 0 0 4 41 5
24 2 2 0 0 232 701 581
25 2 2 0 0 490 698 488
26 2 2 0 0 29 436 413
27 2 2 0 0 416 421 342
28 2 2 0 0 312 595 441
29 2 2 0 0 41 486 5
30 2 2 0 0 405 605 519
31 2 2 0 0 409 595 265
32 2 2 0 0 69 481 435
33 2 2 0 0 434 743 339
34 2 2 0 0 342 641 416
35 2 2 0 0 485 656 370
36 2 2 0 0 89 587 90
37 2 2 0 0 108 466 317
38 2 2 0 0 378 629 529
39 2 2 0 0 581 680 232
40 2 2 0 0 281 434 339
41 2 2 0 0 638 739 486
42 2 2 0 0 659 666 660
43 2 2 0 0 345 440 346
44 2 2 0 0 22 44 25
45 2 2 0 0 9 463 8
46 2 2 0 0 44 81 25
47 2 2 0 0 459 587 89
48 2 2 0 0 127 670 630
49 2 2 0 0 508 662 509
50 2 2 0 0 375 662 508
51 2 2 0 0 492 598 103
52 2 2 0 0 604 642 238
53 2 2 0 0 507 510 399
54 2 2 0 0 488 698 489
55 2 2 0 0 34 473 415
56 2 2 0 0 399 639 507
57 2 2 0 0 603 688 546
58 2 2 0 0 316 541 421
59 2 2 0 0 647 696 627
60 2 2 0 0 403 439 352
61 2 2 0 0 221 603 545
62 2 2 0 0 595 648 441
63 2 2 0 0 412 550 98
64 2 2 0 0 411 714 397
65 2 2 0 0 486 739 729
66 2 2 0 0 696 724 401
67 2 2 0 0 247 482 222
68 2 2 0 0 397 714 645
69 2 2 0 0 613 651 212
70 2 2 0 0 207 745 425
71 2 2 0 0 98 675 412
72 2 2 0 0 219 482 230
73 2 2 0 0 560 692 432
74 2 2 0 0 432 689 560
75 2 2 0 0 454 575 426
76 2 2 0 0 352 439 413
77 2 2 0 0 415 420 2
78 2 2 0 0 40 464 422
79 2 2 0 0 89 512 459
80 2 2 0 0 425 614 207
81 2 2 0 0 377 600 453
82 2 2 0 0 89 90 88
83 2 2 0 0 80 466 108
84 2 2 0 0 520 717 651
85 2 2 0 0 602 703 238
86 2 2 0 0 103 687 492
87 2 2 0 0 253 491 424
88 2 2 0 0 69 709 466
89 2 2 0 0 424 512 253
90 2 2 0 0 369 696 647
91 2 2 0 0 581 701 644
92 2 2 0 0 630 670 392
93 2 2 0 0 32 656 485
94 2 2 0 0 459 512 424
95 2 2 0 0 90 91 88
96 2 2 0 0 427 478 294
97 2 2 0 0 488 695 490
98 2 2 0 0 554 699 560
99 2 2 0 0 67 80 79
100 2 2 0 0 252 454 294
101 2 2 0 0 253 628 491
102 2 2 0 0 529 681 378
103 2 2 0 0 519 715 405
104 2 2 0 0 440 441 346
105 2 2 0 0 605 717 519
106 2 2 0 0 403 452 439
107 2 2 0 0 507 639 21
108 2 2 0 0 565 567 566
109 2 2 0 0 433 454 341
110 2 2 0 0 67 466 80
111 2 2 0 0 555 697 576
112 2 2 0 0 491 628 493
113 2 2 0 0 389 641 342
114 2 2 0 0 429 619 474
115 2 2 0 0 40 501 464
116 2 2 0 0 576 699 555
117 2 2 0 0 311 600 377
118 2 2 0 0 567 622 566
119 2 2 0 0 433 575 454
120 2 2 0 0 378 671 629
121 2 2 0 0 79 540 103
122 2 2 0 0 341 473 433
123 2 2 0 0 673 704 68
124 2 2 0 0 462 710 345
125 2 2 0 0 557 722 616
126 2 2 0 0 573 662 343
127 2 2 0 0 370 656 463
128 2 2 0 0 341 454 252
129 2 2 0 0 616 702 557
130 2 2 0 0 6 26 7
131 2 2 0 0 464 501 467
132 2 2 0 0 433 473 406
133 2 2 0 0 8 45 37
134 2 2 0 0 466 709 317
135 2 2 0 0 457 461 379
136 2 2 0 0 84 512 86
137 2 2 0 0 19 452 33
138 2 2 0 0 380 614 425
139 2 2 0 0 83 540 79
140 2 2 0 0 398 510 509
141 2 2 0 0 609 631 137
142 2 2 0 0 18 442 36
143 2 2 0 0 26 45 7
144 2 2 0 0 565 566 343
145 2 2 0 0 80 83 79
146 2 2 0 0 560 689 554
147 2 2 0 0 134 137 136
148 2 2 0 0 68 469 42
149 2 2 0 0 659 716 653
150 2 2 0 0 619 707 474
151 2 2 0 0 497 610 39
152 2 2 0 0 137 138 136
153 2 2 0 0 283 573 343
154 2 2 0 0 506 644 448
155 2 2 0 0 499 735 31
156 2 2 0 0 81 97 25
157 2 2 0 0 45 46 37
158 2 2 0 0 585 668 637
159 2 2 0 0 495 735 499
160 2 2 0 0 399 510 398
161 2 2 0 0 509 573 398
162 2 2 0 0 442 443 36
163 2 2 0 0 1 607 314
164 2 2 0 0 29 612 436
165 2 2 0 0 547 631 609
166 2 2 0 0 360 595 409
167 2 2 0 0 421 682 342
168 2 2 0 0 426 575 327
169 2 2 0 0 123 577 235
170 2 2 0 0 339 743 417
171 2 2 0 0 7 45 8
172 2 2 0 0 3 723 24
173 2 2 0 0 418 666 653
174 2 2 0 0 59 60 58
175 2 2 0 0 620 636 193
176 2 2 0 0 42 469 47
177 2 2 0 0 65 67 66
178 2 2 0 0 509 662 573
179 2 2 0 0 470 482 247
180 2 2 0 0 368 476 472
181 2 2 0 0 530 740 337
182 2 2 0 0 253 512 84
183 2 2 0 0 455 698 282
184 2 2 0 0 61 65 62
185 2 2 0 0 59 61 60
186 2 2 0 0 91 472 88
187 2 2 0 0 90 92 91
188 2 2 0 0 19 442 18
189 2 2 0 0 464 465 423
190 2 2 0 0 706 724 118
191 2 2 0 0 456 611 32
192 2 2 0 0 379 477 61
193 2 2 0 0 417 743 704
194 2 2 0 0 314 683 1
195 2 2 0 0 442 458 443
196 2 2 0 0 11 28 12
197 2 2 0 0 61 62 60
198 2 2 0 0 118 724 95
199 2 2 0 0 22 25 23
200 2 2 0 0 247 483 470
201 2 2 0 0 281 640 434
202 2 2 0 0 197 667 474
203 2 2 0 0 86 512 89
204 2 2 0 0 417 704 673
205 2 2 0 0 451 690 230
206 2 2 0 0 27 442 19
207 2 2 0 0 637 668 229
208 2 2 0 0 60 475 58
209 2 2 0 0 489 610 497
210 2 2 0 0 307 573 283
211 2 2 0 0 61 477 65
212 2 2 0 0 65 66 62
213 2 2 0 0 544 740 530
214 2 2 0 0 230 719 451
215 2 2 0 0 18 452 19
216 2 2 0 0 268 569 269
217 2 2 0 0 32 485 456
218 2 2 0 0 627 696 401
219 2 2 0 0 24 42 41
220 2 2 0 0 20 27 19
221 2 2 0 0 330 461 457
222 2 2 0 0 506 672 644
223 2 2 0 0 472 476 87
224 2 2 0 0 468 495 494
225 2 2 0 0 88 472 87
226 2 2 0 0 121 577 123
227 2 2 0 0 327 575 276
228 2 2 0 0 422 464 423
229 2 2 0 0 47 63 49
230 2 2 0 0 458 506 443
231 2 2 0 0 232 690 451
232 2 2 0 0 28 487 12
233 2 2 0 0 80 107 83
234 2 2 0 0 608 696 676
235 2 2 0 0 356 481 355
236 2 2 0 0 138 238 136
237 2 2 0 0 137 139 138
238 2 2 0 0 729 739 26
239 2 2 0 0 81 99 97
240 2 2 0 0 46 50 37
241 2 2 0 0 463 656 8
242 2 2 0 0 443 444 36
243 2 2 0 0 68 704 469
244 2 2 0 0 24 68 42
245 2 2 0 0 16 503 30
246 2 2 0 0 65 69 67
247 2 2 0 0 67 79 66
248 2 2 0 0 676 696 369
249 2 2 0 0 59 379 61
250 2 2 0 0 90 93 92
251 2 2 0 0 464 467 465
252 2 2 0 0 441 708 312
253 2 2 0 0 483 484 471
254 2 2 0 0 427 479 478
255 2 2 0 0 245 564 244
256 2 2 0 0 470 483 471
257 2 2 0 0 473 721 406
258 2 2 0 0 555 699 554
259 2 2 0 0 47 469 63
260 2 2 0 0 63 355 49
261 2 2 0 0 62 64 60
262 2 2 0 0 80 108 107
263 2 2 0 0 107 539 83
264 2 2 0 0 139 140 138
265 2 2 0 0 99 100 97
266 2 2 0 0 81 236 99
267 2 2 0 0 46 51 50
268 2 2 0 0 443 445 444
269 2 2 0 0 24 419 68
270 2 2 0 0 69 466 67
271 2 2 0 0 79 103 66
272 2 2 0 0 65 477 69
273 2 2 0 0 547 548 321
274 2 2 0 0 93 94 92
275 2 2 0 0 467 468 465
276 2 2 0 0 333 664 649
277 2 2 0 0 55 498 56
278 2 2 0 0 56 498 72
279 2 2 0 0 12 499 31
280 2 2 0 0 63 356 355
281 2 2 0 0 108 110 107
282 2 2 0 0 139 141 140
283 2 2 0 0 100 101 97
284 2 2 0 0 236 248 99
285 2 2 0 0 81 594 236
286 2 2 0 0 51 52 50
287 2 2 0 0 192 515 195
288 2 2 0 0 445 446 444
289 2 2 0 0 477 481 69
290 2 2 0 0 94 95 92
291 2 2 0 0 93 96 94
292 2 2 0 0 63 408 356
293 2 2 0 0 108 111 110
294 2 2 0 0 110 117 107
295 2 2 0 0 139 154 141
296 2 2 0 0 141 142 140
297 2 2 0 0 51 53 52
298 2 2 0 0 100 102 101
299 2 2 0 0 236 250 248
300 2 2 0 0 445 447 446
301 2 2 0 0 52 388 50
302 2 2 0 0 277 622 567
303 2 2 0 0 95 608 92
304 2 2 0 0 94 118 95
305 2 2 0 0 93 104 96
306 2 2 0 0 51 561 53
307 2 2 0 0 408 434 356
308 2 2 0 0 53 54 52
309 2 2 0 0 445 448 447
310 2 2 0 0 108 317 111
311 2 2 0 0 141 143 142
312 2 2 0 0 142 225 140
313 2 2 0 0 102 166 101
314 2 2 0 0 250 325 248
315 2 2 0 0 100 258 102
316 2 2 0 0 53 55 54
317 2 2 0 0 447 449 446
318 2 2 0 0 236 505 250
319 2 2 0 0 104 105 96
320 2 2 0 0 53 57 55
321 2 2 0 0 55 56 54
322 2 2 0 0 448 451 447
323 2 2 0 0 14 39 15
324 2 2 0 0 317 511 111
325 2 2 0 0 10 40 9
326 2 2 0 0 143 144 142
327 2 2 0 0 57 58 55
328 2 2 0 0 8 37 9
329 2 2 0 0 14 38 13
330 2 2 0 0 166 314 101
331 2 2 0 0 18 36 17
332 2 2 0 0 16 29 17
333 2 2 0 0 33 504 20
334 2 2 0 0 325 365 248
335 2 2 0 0 199 202 196
336 2 2 0 0 7 32 6
337 2 2 0 0 434 435 356
338 2 2 0 0 74 75 73
339 2 2 0 0 223 239 234
340 2 2 0 0 74 76 75
341 2 2 0 0 72 74 73
342 2 2 0 0 231 549 201
343 2 2 0 0 202 205 204
344 2 2 0 0 226 227 214
345 2 2 0 0 272 275 271
346 2 2 0 0 276 318 275
347 2 2 0 0 213 214 209
348 2 2 0 0 76 77 75
349 2 2 0 0 210 231 201
350 2 2 0 0 16 30 15
351 2 2 0 0 205 209 208
352 2 2 0 0 202 204 196
353 2 2 0 0 318 406 340
354 2 2 0 0 195 196 193
355 2 2 0 0 322 420 415
356 2 2 0 0 239 240 234
357 2 2 0 0 163 588 168
358 2 2 0 0 12 31 11
359 2 2 0 0 56 72 71
360 2 2 0 0 425 426 327
361 2 2 0 0 19 33 20
362 2 2 0 0 168 224 215
363 2 2 0 0 209 568 216
364 2 2 0 0 318 433 406
365 2 2 0 0 269 271 270
366 2 2 0 0 268 269 245
367 2 2 0 0 21 639 20
368 2 2 0 0 84 85 82
369 2 2 0 0 181 207 183
370 2 2 0 0 269 272 271
371 2 2 0 0 272 276 275
372 2 2 0 0 242 243 240
373 2 2 0 0 102 167 166
374 2 2 0 0 223 234 233
375 2 2 0 0 283 343 227
376 2 2 0 0 205 208 204
377 2 2 0 0 213 226 214
378 2 2 0 0 271 572 347
379 2 2 0 0 243 268 245
380 2 2 0 0 335 398 307
381 2 2 0 0 303 555 554
382 2 2 0 0 226 283 227
383 2 2 0 0 347 485 370
384 2 2 0 0 195 199 196
385 2 2 0 0 205 213 209
386 2 2 0 0 246 322 252
387 2 2 0 0 76 78 77
388 2 2 0 0 133 163 135
389 2 2 0 0 163 168 164
390 2 2 0 0 322 415 341
391 2 2 0 0 227 361 214
392 2 2 0 0 191 198 189
393 2 2 0 0 78 84 82
394 2 2 0 0 209 216 208
395 2 2 0 0 78 82 77
396 2 2 0 0 216 303 266
397 2 2 0 0 417 418 362
398 2 2 0 0 314 607 101
399 2 2 0 0 339 362 280
400 2 2 0 0 243 245 244
401 2 2 0 0 187 291 185
402 2 2 0 0 429 430 359
403 2 2 0 0 143 145 144
404 2 2 0 0 202 553 205
405 2 2 0 0 339 417 362
406 2 2 0 0 131 580 133
407 2 2 0 0 239 242 240
408 2 2 0 0 57 59 58
409 2 2 0 0 224 246 215
410 2 2 0 0 84 86 85
411 2 2 0 0 303 554 266
412 2 2 0 0 72 73 71
413 2 2 0 0 437 438 414
414 2 2 0 0 318 340 275
415 2 2 0 0 269 270 245
416 2 2 0 0 86 87 85
417 2 2 0 0 192 193 191
418 2 2 0 0 123 235 129
419 2 2 0 0 263 374 262
420 2 2 0 0 425 427 426
421 2 2 0 0 149 150 147
422 2 2 0 0 210 232 231
423 2 2 0 0 74 373 76
424 2 2 0 0 168 215 169
425 2 2 0 0 259 262 249
426 2 2 0 0 145 146 144
427 2 2 0 0 367 524 289
428 2 2 0 0 271 347 270
429 2 2 0 0 406 407 340
430 2 2 0 0 334 459 424
431 2 2 0 0 429 474 430
432 2 2 0 0 250 328 325
433 2 2 0 0 431 432 367
434 2 2 0 0 104 278 105
435 2 2 0 0 145 147 146
436 2 2 0 0 151 152 150
437 2 2 0 0 235 583 129
438 2 2 0 0 237 249 228
439 2 2 0 0 149 151 150
440 2 2 0 0 159 161 158
441 2 2 0 0 153 155 152
442 2 2 0 0 156 158 155
443 2 2 0 0 354 367 289
444 2 2 0 0 259 263 262
445 2 2 0 0 190 191 189
446 2 2 0 0 177 221 174
447 2 2 0 0 162 228 161
448 2 2 0 0 124 516 386
449 2 2 0 0 418 653 578
450 2 2 0 0 371 584 295
451 2 2 0 0 151 153 152
452 2 2 0 0 153 156 155
453 2 2 0 0 159 162 161
454 2 2 0 0 374 593 262
455 2 2 0 0 156 159 158
456 2 2 0 0 237 259 249
457 2 2 0 0 146 284 160
458 2 2 0 0 266 309 267
459 2 2 0 0 264 265 257
460 2 2 0 0 86 88 87
461 2 2 0 0 265 312 257
462 2 2 0 0 162 237 228
463 2 2 0 0 21 44 22
464 2 2 0 0 324 392 390
465 2 2 0 0 371 585 584
466 2 2 0 0 262 366 249
467 2 2 0 0 192 195 193
468 2 2 0 0 263 375 374
469 2 2 0 0 216 266 217
470 2 2 0 0 326 327 276
471 2 2 0 0 260 646 166
472 2 2 0 0 220 223 222
473 2 2 0 0 322 341 252
474 2 2 0 0 256 257 255
475 2 2 0 0 78 253 84
476 2 2 0 0 358 359 242
477 2 2 0 0 188 189 187
478 2 2 0 0 281 339 280
479 2 2 0 0 146 160 144
480 2 2 0 0 123 129 128
481 2 2 0 0 255 324 254
482 2 2 0 0 228 229 161
483 2 2 0 0 354 431 367
484 2 2 0 0 163 164 135
485 2 2 0 0 155 157 152
486 2 2 0 0 243 244 240
487 2 2 0 0 256 264 257
488 2 2 0 0 284 316 160
489 2 2 0 0 380 425 327
490 2 2 0 0 148 149 147
491 2 2 0 0 335 399 398
492 2 2 0 0 418 578 362
493 2 2 0 0 334 424 396
494 2 2 0 0 167 260 166
495 2 2 0 0 325 368 365
496 2 2 0 0 428 429 359
497 2 2 0 0 165 255 254
498 2 2 0 0 297 342 264
499 2 2 0 0 298 371 295
500 2 2 0 0 218 323 220
501 2 2 0 0 310 337 302
502 2 2 0 0 165 256 255
503 2 2 0 0 186 187 185
504 2 2 0 0 56 71 70
505 2 2 0 0 165 254 125
506 2 2 0 0 200 201 199
507 2 2 0 0 148 206 149
508 2 2 0 0 324 390 364
509 2 2 0 0 190 192 191
510 2 2 0 0 368 369 365
511 2 2 0 0 353 404 351
512 2 2 0 0 104 331 278
513 2 2 0 0 256 297 264
514 2 2 0 0 316 421 416
515 2 2 0 0 239 358 242
516 2 2 0 0 169 586 171
517 2 2 0 0 286 287 206
518 2 2 0 0 324 364 254
519 2 2 0 0 241 576 162
520 2 2 0 0 168 169 164
521 2 2 0 0 121 123 122
522 2 2 0 0 266 267 217
523 2 2 0 0 129 131 130
524 2 2 0 0 216 217 208
525 2 2 0 0 285 382 313
526 2 2 0 0 172 321 170
527 2 2 0 0 390 391 364
528 2 2 0 0 296 563 300
529 2 2 0 0 246 252 251
530 2 2 0 0 285 286 206
531 2 2 0 0 288 289 287
532 2 2 0 0 298 372 371
533 2 2 0 0 23 35 22
534 2 2 0 0 300 344 304
535 2 2 0 0 344 462 345
536 2 2 0 0 123 128 122
537 2 2 0 0 297 389 342
538 2 2 0 0 237 277 259
539 2 2 0 0 148 285 206
540 2 2 0 0 86 89 88
541 2 2 0 0 306 307 283
542 2 2 0 0 234 279 233
543 2 2 0 0 316 416 160
544 2 2 0 0 188 190 189
545 2 2 0 0 85 98 82
546 2 2 0 0 358 428 359
547 2 2 0 0 437 455 438
548 2 2 0 0 203 210 201
549 2 2 0 0 382 383 313
550 2 2 0 0 153 176 156
551 2 2 0 0 290 354 289
552 2 2 0 0 159 241 162
553 2 2 0 0 386 387 126
554 2 2 0 0 273 363 338
555 2 2 0 0 272 326 276
556 2 2 0 0 171 293 173
557 2 2 0 0 145 148 147
558 2 2 0 0 274 295 261
559 2 2 0 0 285 313 286
560 2 2 0 0 383 384 313
561 2 2 0 0 301 302 299
562 2 2 0 0 131 133 132
563 2 2 0 0 296 298 295
564 2 2 0 0 305 310 302
565 2 2 0 0 349 412 328
566 2 2 0 0 344 345 304
567 2 2 0 0 77 119 75
568 2 2 0 0 315 378 310
569 2 2 0 0 363 401 400
570 2 2 0 0 332 333 278
571 2 2 0 0 223 233 222
572 2 2 0 0 331 334 332
573 2 2 0 0 186 188 187
574 2 2 0 0 178 212 177
575 2 2 0 0 305 360 315
576 2 2 0 0 334 396 395
577 2 2 0 0 246 251 215
578 2 2 0 0 167 261 260
579 2 2 0 0 175 179 178
580 2 2 0 0 345 346 304
581 2 2 0 0 124 386 126
582 2 2 0 0 286 288 287
583 2 2 0 0 331 332 278
584 2 2 0 0 179 181 180
585 2 2 0 0 301 305 302
586 2 2 0 0 300 304 301
587 2 2 0 0 296 300 299
588 2 2 0 0 305 315 310
589 2 2 0 0 296 299 298
590 2 2 0 0 320 453 290
591 2 2 0 0 274 296 295
592 2 2 0 0 313 531 286
593 2 2 0 0 120 281 280
594 2 2 0 0 360 409 315
595 2 2 0 0 363 400 338
596 2 2 0 0 129 130 128
597 2 2 0 0 300 301 299
598 2 2 0 0 1 508 23
599 2 2 0 0 167 273 261
600 2 2 0 0 133 135 134
601 2 2 0 0 173 174 172
602 2 2 0 0 311 377 376
603 2 2 0 0 273 274 261
604 2 2 0 0 273 338 274
605 2 2 0 0 334 395 332
606 2 2 0 0 183 197 184
607 2 2 0 0 319 393 320
608 2 2 0 0 449 450 446
609 2 2 0 0 288 290 289
610 2 2 0 0 226 306 283
611 2 2 0 0 326 380 327
612 2 2 0 0 175 177 174
613 2 2 0 0 181 183 182
614 2 2 0 0 219 230 211
615 2 2 0 0 308 335 307
616 2 2 0 0 267 311 292
617 2 2 0 0 169 170 164
618 2 2 0 0 288 319 290
619 2 2 0 0 126 165 125
620 2 2 0 0 120 280 121
621 2 2 0 0 130 357 128
622 2 2 0 0 195 200 199
623 2 2 0 0 169 171 170
624 2 2 0 0 171 172 170
625 2 2 0 0 184 186 185
626 2 2 0 0 73 282 71
627 2 2 0 0 252 294 251
628 2 2 0 0 319 320 290
629 2 2 0 0 131 132 130
630 2 2 0 0 393 394 320
631 2 2 0 0 171 173 172
632 2 2 0 0 4 34 3
633 2 2 0 0 218 220 219
634 2 2 0 0 267 292 217
635 2 2 0 0 184 185 182
636 2 2 0 0 188 194 190
637 2 2 0 0 56 70 54
638 2 2 0 0 377 405 376
639 2 2 0 0 449 470 450
640 2 2 0 0 179 180 178
641 2 2 0 0 173 175 174
642 2 2 0 0 175 178 177
643 2 2 0 0 250 329 328
644 2 2 0 0 311 376 292
645 2 2 0 0 329 571 350
646 2 2 0 0 347 370 348
647 2 2 0 0 220 222 219
648 2 2 0 0 376 385 292
649 2 2 0 0 133 134 132
650 2 2 0 0 134 136 132
651 2 2 0 0 306 308 307
652 2 2 0 0 200 203 201
653 2 2 0 0 233 247 222
654 2 2 0 0 98 460 82
655 2 2 0 0 329 349 328
656 2 2 0 0 326 381 380
657 2 2 0 0 347 348 270
658 2 2 0 0 181 182 180
659 2 2 0 0 121 122 115
660 2 2 0 0 350 351 349
661 2 2 0 0 308 336 335
662 2 2 0 0 350 403 352
663 2 2 0 0 470 471 450
664 2 2 0 0 203 211 210
665 2 2 0 0 218 219 211
666 2 2 0 0 183 184 182
667 2 2 0 0 370 463 422
668 2 2 0 0 306 402 308
669 2 2 0 0 203 218 211
670 2 2 0 0 71 490 70
671 2 2 0 0 329 350 349
672 2 2 0 0 436 437 414
673 2 2 0 0 124 126 125
674 2 2 0 0 413 414 353
675 2 2 0 0 422 423 348
676 2 2 0 0 352 353 351
677 2 2 0 0 370 422 348
678 2 2 0 0 350 352 351
679 2 2 0 0 413 436 414
680 2 2 0 0 352 413 353
681 2 2 0 0 120 121 115
682 2 2 0 0 110 480 117
683 2 2 0 0 124 125 116
684 2 2 0 0 126 521 165
685 2 2 0 0 113 120 115
686 2 2 0 0 127 440 410
687 2 2 0 0 114 124 116
688 2 2 0 0 543 544 530
689 2 2 0 0 488 489 487
690 2 2 0 0 585 637 366
691 2 2 0 0 543 570 544
692 2 2 0 0 113 115 114
693 2 2 0 0 127 410 106
694 2 2 0 0 114 116 112
695 2 2 0 0 195 515 200
696 2 2 0 0 491 493 492
697 2 2 0 0 12 487 13
698 2 2 0 0 546 547 321
699 2 2 0 0 330 457 411
700 2 2 0 0 157 543 530
701 2 2 0 0 519 520 291
702 2 2 0 0 28 488 487
703 2 2 0 0 111 112 110
704 2 2 0 0 312 534 257
705 2 2 0 0 476 732 412
706 2 2 0 0 27 458 442
707 2 2 0 0 385 636 620
708 2 2 0 0 176 559 156
709 2 2 0 0 593 634 366
710 2 2 0 0 589 590 224
711 2 2 0 0 113 114 112
712 2 2 0 0 109 127 106
713 2 2 0 0 270 564 245
714 2 2 0 0 443 506 445
715 2 2 0 0 491 492 396
716 2 2 0 0 388 624 502
717 2 2 0 0 445 506 448
718 2 2 0 0 30 500 15
719 2 2 0 0 20 504 21
720 2 2 0 0 64 475 60
721 2 2 0 0 287 542 206
722 2 2 0 0 23 508 35
723 2 2 0 0 302 558 299
724 2 2 0 0 70 551 54
725 2 2 0 0 62 598 64
726 2 2 0 0 424 491 396
727 2 2 0 0 407 456 340
728 2 2 0 0 545 546 321
729 2 2 0 0 330 411 397
730 2 2 0 0 72 536 74
731 2 2 0 0 238 574 136
732 2 2 0 0 659 660 420
733 2 2 0 0 395 538 332
734 2 2 0 0 143 527 145
735 2 2 0 0 412 675 476
736 2 2 0 0 239 513 358
737 2 2 0 0 157 530 529
738 2 2 0 0 518 519 291
739 2 2 0 0 449 482 470
740 2 2 0 0 207 713 479
741 2 2 0 0 119 523 75
742 2 2 0 0 109 670 127
743 2 2 0 0 10 501 40
744 2 2 0 0 508 509 35
745 2 2 0 0 96 606 94
746 2 2 0 0 331 459 334
747 2 2 0 0 286 531 288
748 2 2 0 0 290 453 354
749 2 2 0 0 282 490 71
750 2 2 0 0 384 531 313
751 2 2 0 0 289 524 287
752 2 2 0 0 349 550 412
753 2 2 0 0 165 521 256
754 2 2 0 0 82 460 77
755 2 2 0 0 155 543 157
756 2 2 0 0 201 549 199
757 2 2 0 0 273 591 363
758 2 2 0 0 387 521 126
759 2 2 0 0 114 516 124
760 2 2 0 0 53 561 57
761 2 2 0 0 266 554 309
762 2 2 0 0 257 534 255
763 2 2 0 0 205 553 213
764 2 2 0 0 142 522 225
765 2 2 0 0 435 481 356
766 2 2 0 0 216 568 303
767 2 2 0 0 300 563 344
768 2 2 0 0 214 568 209
769 2 2 0 0 112 480 110
770 2 2 0 0 350 571 403
771 2 2 0 0 347 572 485
772 2 2 0 0 275 572 271
773 2 2 0 0 274 563 296
774 2 2 0 0 171 586 293
775 2 2 0 0 162 576 237
776 2 2 0 0 133 580 163
777 2 2 0 0 11 501 10
778 2 2 0 0 295 584 261
779 2 2 0 0 129 583 131
780 2 2 0 0 215 586 169
781 2 2 0 0 250 505 329
782 2 2 0 0 168 588 224
783 2 2 0 0 321 548 170
784 2 2 0 0 262 593 366
785 2 2 0 0 166 646 314
786 2 2 0 0 520 535 291
787 2 2 0 0 373 663 493
788 2 2 0 0 291 535 185
789 2 2 0 0 101 607 97
790 2 2 0 0 130 574 357
791 2 2 0 0 158 570 543
792 2 2 0 0 31 501 11
793 2 2 0 0 444 552 503
794 2 2 0 0 156 559 159
795 2 2 0 0 236 594 505
796 2 2 0 0 206 542 149
797 2 2 0 0 54 551 52
798 2 2 0 0 74 536 373
799 2 2 0 0 337 558 302
800 2 2 0 0 150 532 147
801 2 2 0 0 379 728 457
802 2 2 0 0 299 558 298
803 2 2 0 0 332 538 333
804 2 2 0 0 145 527 148
805 2 2 0 0 514 515 192
806 2 2 0 0 15 500 14
807 2 2 0 0 75 523 73
808 2 2 0 0 467 501 31
809 2 2 0 0 254 592 125
810 2 2 0 0 172 545 321
811 2 2 0 0 144 522 142
812 2 2 0 0 528 532 150
813 2 2 0 0 187 518 291
814 2 2 0 0 553 599 213
815 2 2 0 0 383 603 384
816 2 2 0 0 282 698 490
817 2 2 0 0 244 517 240
818 2 2 0 0 353 525 404
819 2 2 0 0 395 540 538
820 2 2 0 0 94 606 118
821 2 2 0 0 117 539 107
822 2 2 0 0 185 535 182
823 2 2 0 0 388 502 50
824 2 2 0 0 167 591 273
825 2 2 0 0 147 532 146
826 2 2 0 0 92 608 91
827 2 2 0 0 472 676 368
828 2 2 0 0 364 592 254
829 2 2 0 0 21 504 44
830 2 2 0 0 365 597 248
831 2 2 0 0 125 592 116
832 2 2 0 0 588 589 224
833 2 2 0 0 111 113 112
834 2 2 0 0 63 469 408
835 2 2 0 0 105 109 106
836 2 2 0 0 242 526 243
837 2 2 0 0 439 712 29
838 2 2 0 0 240 517 234
839 2 2 0 0 346 533 304
840 2 2 0 0 14 500 38
841 2 2 0 0 494 495 484
842 2 2 0 0 127 630 440
843 2 2 0 0 208 537 204
844 2 2 0 0 175 562 179
845 2 2 0 0 303 626 555
846 2 2 0 0 359 526 242
847 2 2 0 0 243 526 268
848 2 2 0 0 217 537 208
849 2 2 0 0 58 498 55
850 2 2 0 0 503 552 30
851 2 2 0 0 13 499 12
852 2 2 0 0 268 621 569
853 2 2 0 0 489 497 487
854 2 2 0 0 475 498 58
855 2 2 0 0 430 526 359
856 2 2 0 0 248 597 99
857 2 2 0 0 292 537 217
858 2 2 0 0 26 645 45
859 2 2 0 0 234 517 279
860 2 2 0 0 14 497 39
861 2 2 0 0 385 537 292
862 2 2 0 0 305 533 360
863 2 2 0 0 304 533 301
864 2 2 0 0 146 532 284
865 2 2 0 0 483 494 484
866 2 2 0 0 173 562 175
867 2 2 0 0 116 480 112
868 2 2 0 0 224 590 246
869 2 2 0 0 189 518 187
870 2 2 0 0 498 536 72
871 2 2 0 0 414 525 353
872 2 2 0 0 160 522 144
873 2 2 0 0 547 609 548
874 2 2 0 0 182 535 180
875 2 2 0 0 297 601 389
876 2 2 0 0 44 594 81
877 2 2 0 0 301 533 305
878 2 2 0 0 105 106 96
879 2 2 0 0 515 596 200
880 2 2 0 0 293 562 173
881 2 2 0 0 73 523 282
882 2 2 0 0 148 527 285
883 2 2 0 0 174 545 172
884 2 2 0 0 218 596 323
885 2 2 0 0 200 596 203
886 2 2 0 0 149 542 151
887 2 2 0 0 446 552 444
888 2 2 0 0 49 461 330
889 2 2 0 0 330 397 48
890 2 2 0 0 453 738 377
891 2 2 0 0 255 534 324
892 2 2 0 0 52 551 388
893 2 2 0 0 634 646 260
894 2 2 0 0 513 615 358
895 2 2 0 0 438 525 414
896 2 2 0 0 516 618 386
897 2 2 0 0 198 518 189
898 2 2 0 0 227 566 361
899 2 2 0 0 559 560 241
900 2 2 0 0 90 587 93
901 2 2 0 0 416 522 160
902 2 2 0 0 102 591 167
903 2 2 0 0 134 609 137
904 2 2 0 0 298 558 372
905 2 2 0 0 132 574 130
906 2 2 0 0 106 606 96
907 2 2 0 0 159 559 241
908 2 2 0 0 32 611 6
909 2 2 0 0 158 543 155
910 2 2 0 0 223 513 239
911 2 2 0 0 288 531 319
912 2 2 0 0 323 513 220
913 2 2 0 0 115 516 114
914 2 2 0 0 521 601 297
915 2 2 0 0 610 698 455
916 2 2 0 0 354 600 431
917 2 2 0 0 351 550 349
918 2 2 0 0 256 521 297
919 2 2 0 0 140 604 138
920 2 2 0 0 77 460 119
921 2 2 0 0 17 503 16
922 2 2 0 0 9 502 10
923 2 2 0 0 104 587 331
924 2 2 0 0 152 528 150
925 2 2 0 0 315 541 378
926 2 2 0 0 170 548 164
927 2 2 0 0 590 659 420
928 2 2 0 0 11 624 28
929 2 2 0 0 199 549 202
930 2 2 0 0 502 624 10
931 2 2 0 0 453 600 354
932 2 2 0 0 42 43 41
933 2 2 0 0 38 499 13
934 2 2 0 0 285 527 382
935 2 2 0 0 190 514 192
936 2 2 0 0 157 529 528
937 2 2 0 0 231 643 549
938 2 2 0 0 331 587 459
939 2 2 0 0 451 701 232
940 2 2 0 0 99 597 100
941 2 2 0 0 361 568 214
942 2 2 0 0 372 740 544
943 2 2 0 0 221 545 174
944 2 2 0 0 138 604 238
945 2 2 0 0 340 572 275
946 2 2 0 0 338 563 274
947 2 2 0 0 524 542 287
948 2 2 0 0 265 595 312
949 2 2 0 0 111 511 113
950 2 2 0 0 580 658 588
951 2 2 0 0 580 588 163
952 2 2 0 0 237 576 277
953 2 2 0 0 444 503 36
954 2 2 0 0 131 583 580
955 2 2 0 0 505 571 329
956 2 2 0 0 203 596 218
957 2 2 0 0 584 634 260
958 2 2 0 0 261 584 260
959 2 2 0 0 369 647 365
960 2 2 0 0 251 586 215
961 2 2 0 0 348 564 270
962 2 2 0 0 450 552 446
963 2 2 0 0 390 496 391
964 2 2 0 0 66 598 62
965 2 2 0 0 465 623 423
966 2 2 0 0 258 591 102
967 2 2 0 0 343 566 227
968 2 2 0 0 564 623 244
969 2 2 0 0 154 617 141
970 2 2 0 0 324 534 392
971 2 2 0 0 50 502 37
972 2 2 0 0 524 556 542
973 2 2 0 0 544 700 372
974 2 2 0 0 122 516 115
975 2 2 0 0 177 557 221
976 2 2 0 0 489 698 610
977 2 2 0 0 93 587 104
978 2 2 0 0 136 574 132
979 2 2 0 0 593 646 634
980 2 2 0 0 116 592 480
981 2 2 0 0 143 617 527
982 2 2 0 0 225 604 140
983 2 2 0 0 137 631 139
984 2 2 0 0 549 553 202
985 2 2 0 0 164 548 135
986 2 2 0 0 404 550 351
987 2 2 0 0 34 721 473
988 2 2 0 0 220 513 223
989 2 2 0 0 317 640 511
990 2 2 0 0 100 597 258
991 2 2 0 0 588 658 589
992 2 2 0 0 323 615 513
993 2 2 0 0 568 626 303
994 2 2 0 0 377 605 405
995 2 2 0 0 178 613 212
996 2 2 0 0 493 628 373
997 2 2 0 0 157 528 152
998 2 2 0 0 591 627 363
999 2 2 0 0 409 541 315
1000 2 2 0 0 183 614 197
1001 2 2 0 0 103 598 66
1002 2 2 0 0 188 619 194
1003 2 2 0 0 213 599 226
1004 2 2 0 0 306 599 402
1005 2 2 0 0 97 607 25
1006 2 2 0 0 194 514 190
1007 2 2 0 0 373 628 76
1008 2 2 0 0 78 628 253
1009 2 2 0 0 42 47 43
1010 2 2 0 0 39 612 15
1011 2 2 0 0 16 612 29
1012 2 2 0 0 437 610 455
1013 2 2 0 0 487 497 13
1014 2 2 0 0 440 630 441
1015 2 2 0 0 479 713 562
1016 2 2 0 0 196 620 193
1017 2 2 0 0 456 572 340
1018 2 2 0 0 120 511 281
1019 2 2 0 0 577 578 235
1020 2 2 0 0 335 582 399
1021 2 2 0 0 314 741 683
1022 2 2 0 0 520 613 535
1023 2 2 0 0 585 634 584
1024 2 2 0 0 423 564 348
1025 2 2 0 0 457 561 411
1026 2 2 0 0 6 611 5
1027 2 2 0 0 385 620 537
1028 2 2 0 0 228 637 229
1029 2 2 0 0 366 637 249
1030 2 2 0 0 161 570 158
1031 2 2 0 0 434 640 435
1032 2 2 0 0 193 636 191
1033 2 2 0 0 410 606 106
1034 2 2 0 0 37 502 9
1035 2 2 0 0 36 503 17
1036 2 2 0 0 141 617 143
1037 2 2 0 0 363 627 401
1038 2 2 0 0 322 590 420
1039 2 2 0 0 357 618 128
1040 2 2 0 0 430 621 526
1041 2 2 0 0 540 687 103
1042 2 2 0 0 280 577 121
1043 2 2 0 0 276 575 318
1044 2 2 0 0 362 578 577
1045 2 2 0 0 109 649 496
1046 2 2 0 0 246 590 322
1047 2 2 0 0 326 569 381
1048 2 2 0 0 569 621 381
1049 2 2 0 0 269 569 272
1050 2 2 0 0 139 631 154
1051 2 2 0 0 649 664 496
1052 2 2 0 0 537 620 204
1053 2 2 0 0 355 461 49
1054 2 2 0 0 663 685 493
1055 2 2 0 0 479 745 207
1056 2 2 0 0 343 662 565
1057 2 2 0 0 212 557 177
1058 2 2 0 0 45 645 46
1059 2 2 0 0 496 670 109
1060 2 2 0 0 366 634 585
1061 2 2 0 0 384 616 531
1062 2 2 0 0 535 613 180
1063 2 2 0 0 391 632 364
1064 2 2 0 0 308 581 336
1065 2 2 0 0 344 625 462
1066 2 2 0 0 563 625 344
1067 2 2 0 0 13 497 14
1068 2 2 0 0 480 632 117
1069 2 2 0 0 371 668 585
1070 2 2 0 0 333 649 278
1071 2 2 0 0 387 601 521
1072 2 2 0 0 47 49 48
1073 2 2 0 0 358 615 428
1074 2 2 0 0 113 511 120
1075 2 2 0 0 527 617 382
1076 2 2 0 0 105 649 109
1077 2 2 0 0 398 573 307
1078 2 2 0 0 368 676 369
1079 2 2 0 0 180 613 178
1080 2 2 0 0 153 556 176
1081 2 2 0 0 432 657 367
1082 2 2 0 0 458 718 582
1083 2 2 0 0 207 614 183
1084 2 2 0 0 407 611 456
1085 2 2 0 0 244 623 517
1086 2 2 0 0 20 639 27
1087 2 2 0 0 476 675 87
1088 2 2 0 0 319 616 393
1089 2 2 0 0 474 707 197
1090 2 2 0 0 226 599 306
1091 2 2 0 0 47 48 43
1092 2 2 0 0 186 619 188
1093 2 2 0 0 412 732 328
1094 2 2 0 0 316 671 541
1095 2 2 0 0 293 734 478
1096 2 2 0 0 492 685 598
1097 2 2 0 0 528 629 532
1098 2 2 0 0 514 635 515
1099 2 2 0 0 531 616 319
1100 2 2 0 0 8 656 7
1101 2 2 0 0 387 602 601
1102 2 2 0 0 76 628 78
1103 2 2 0 0 122 618 516
1104 2 2 0 0 651 717 394
1105 2 2 0 0 423 623 564
1106 2 2 0 0 546 669 547
1107 2 2 0 0 4 679 34
1108 2 2 0 0 542 556 151
1109 2 2 0 0 548 609 135
1110 2 2 0 0 204 620 196
1111 2 2 0 0 529 629 528
1112 2 2 0 0 482 719 230
1113 2 2 0 0 258 627 591
1114 2 2 0 0 336 582 335
1115 2 2 0 0 197 686 667
1116 2 2 0 0 583 658 580
1117 2 2 0 0 85 675 98
1118 2 2 0 0 59 728 379
1119 2 2 0 0 400 625 338
1120 2 2 0 0 394 717 605
1121 2 2 0 0 471 650 450
1122 2 2 0 0 596 635 323
1123 2 2 0 0 249 637 228
1124 2 2 0 0 515 635 596
1125 2 2 0 0 338 625 563
1126 2 2 0 0 28 633 488
1127 2 2 0 0 566 622 361
1128 2 2 0 0 229 570 161
1129 2 2 0 0 468 654 465
1130 2 2 0 0 118 710 462
1131 2 2 0 0 15 612 16
1132 2 2 0 0 589 659 590
1133 2 2 0 0 526 621 268
1134 2 2 0 0 365 647 597
1135 2 2 0 0 579 583 235
1136 2 2 0 0 22 507 21
1137 2 2 0 0 342 682 264
1138 2 2 0 0 441 648 346
1139 2 2 0 0 191 636 198
1140 2 2 0 0 578 653 579
1141 2 2 0 0 135 609 134
1142 2 2 0 0 128 618 122
1143 2 2 0 0 378 681 310
1144 2 2 0 0 230 690 211
1145 2 2 0 0 210 690 232
1146 2 2 0 0 549 643 553
1147 2 2 0 0 233 661 247
1148 2 2 0 0 10 624 11
1149 2 2 0 0 640 709 435
1150 2 2 0 0 449 719 482
1151 2 2 0 0 452 726 33
1152 2 2 0 0 362 577 280
1153 2 2 0 0 318 575 433
1154 2 2 0 0 492 687 396
1155 2 2 0 0 586 734 293
1156 2 2 0 0 357 655 618
1157 2 2 0 0 277 567 259
1158 2 2 0 0 522 641 225
1159 2 2 0 0 511 640 281
1160 2 2 0 0 247 661 483
1161 2 2 0 0 610 693 39
1162 2 2 0 0 272 569 326
1163 2 2 0 0 490 695 70
1164 2 2 0 0 553 643 599
1165 2 2 0 0 532 629 284
1166 2 2 0 0 29 712 17
1167 2 2 0 0 632 665 117
1168 2 2 0 0 618 655 386
1169 2 2 0 0 241 699 576
1170 2 2 0 0 457 728 561
1171 2 2 0 0 485 572 456
1172 2 2 0 0 430 667 621
1173 2 2 0 0 582 672 458
1174 2 2 0 0 395 687 540
1175 2 2 0 0 504 594 44
1176 2 2 0 0 181 713 207
1177 2 2 0 0 197 707 184
1178 2 2 0 0 524 657 556
1179 2 2 0 0 475 536 498
1180 2 2 0 0 394 738 320
1181 2 2 0 0 51 714 561
1182 2 2 0 0 151 556 153
1183 2 2 0 0 437 693 610
1184 2 2 0 0 361 626 568
1185 2 2 0 0 611 679 5
1186 2 2 0 0 231 680 643
1187 2 2 0 0 462 706 118
1188 2 2 0 0 390 670 496
1189 2 2 0 0 602 642 601
1190 2 2 0 0 49 330 48
1191 2 2 0 0 391 665 632
1192 2 2 0 0 508 737 375
1193 2 2 0 0 450 650 552
1194 2 2 0 0 368 732 476
1195 2 2 0 0 578 579 235
1196 2 2 0 0 402 581 308
1197 2 2 0 0 43 486 41
1198 2 2 0 0 562 713 179
1199 2 2 0 0 592 632 480
1200 2 2 0 0 416 641 522
1201 2 2 0 0 372 668 371
1202 2 2 0 0 452 712 439
1203 2 2 0 0 282 720 455
1204 2 2 0 0 556 657 176
1205 2 2 0 0 364 632 592
1206 2 2 0 0 403 726 452
1207 2 2 0 0 465 654 623
1208 2 2 0 0 278 649 105
1209 2 2 0 0 154 652 617
1210 2 2 0 0 383 688 603
1211 2 2 0 0 451 719 447
1212 2 2 0 0 317 709 640
1213 2 2 0 0 604 711 642
1214 2 2 0 0 382 652 383
1215 2 2 0 0 601 642 389
1216 2 2 0 0 284 671 316
1217 2 2 0 0 599 643 402
1218 2 2 0 0 388 633 624
1219 2 2 0 0 267 678 311
1220 2 2 0 0 337 681 530
1221 2 2 0 0 279 661 233
1222 2 2 0 0 605 738 394
1223 2 2 0 0 33 677 504
1224 2 2 0 0 386 655 387
1225 2 2 0 0 547 669 631
1226 2 2 0 0 562 731 479
1227 2 2 0 0 360 648 595
1228 2 2 0 0 432 692 657
1229 2 2 0 0 367 657 524
1230 2 2 0 0 633 695 488
1231 2 2 0 0 415 473 341
1232 2 2 0 0 644 672 336
1233 2 2 0 0 551 633 388
1234 2 2 0 0 533 648 360
1235 2 2 0 0 407 679 611
1236 2 2 0 0 323 635 615
1237 2 2 0 0 530 681 529
1238 2 2 0 0 393 651 394
1239 2 2 0 0 387 655 602
1240 2 2 0 0 238 703 574
1241 2 2 0 0 594 677 505
1242 2 2 0 0 559 692 560
1243 2 2 0 0 621 667 381
1244 2 2 0 0 405 674 376
1245 2 2 0 0 325 732 368
1246 2 2 0 0 623 654 517
1247 2 2 0 0 581 644 336
1248 2 2 0 0 346 648 533
1249 2 2 0 0 517 654 279
1250 2 2 0 0 477 705 481
1251 2 2 0 0 481 705 355
1252 2 2 0 0 561 728 57
1253 2 2 0 0 379 705 477
1254 2 2 0 0 617 652 382
1255 2 2 0 0 30 650 500
1256 2 2 0 0 376 674 385
1257 2 2 0 0 518 715 519
1258 2 2 0 0 474 667 430
1259 2 2 0 0 478 734 294
1260 2 2 0 0 624 633 28
1261 2 2 0 0 186 707 619
1262 2 2 0 0 64 663 475
1263 2 2 0 0 597 647 258
1264 2 2 0 0 377 738 605
1265 2 2 0 0 31 735 467
1266 2 2 0 0 27 718 458
1267 2 2 0 0 419 673 68
1268 2 2 0 0 616 722 393
1269 2 2 0 0 24 723 419
1270 2 2 0 0 397 638 48
1271 2 2 0 0 404 730 460
1272 2 2 0 0 91 676 472
1273 2 2 0 0 622 626 361
1274 2 2 0 0 7 656 32
1275 2 2 0 0 576 697 277
1276 2 2 0 0 471 691 650
1277 2 2 0 0 536 663 373
1278 2 2 0 0 484 691 471
1279 2 2 0 0 552 650 30
1280 2 2 0 0 311 678 600
1281 2 2 0 0 486 729 5
1282 2 2 0 0 418 673 666
1283 2 2 0 0 232 680 231
1284 2 2 0 0 5 679 4
1285 2 2 0 0 117 665 539
1286 2 2 0 0 384 702 616
1287 2 2 0 0 557 702 221
1288 2 2 0 0 87 675 85
1289 2 2 0 0 225 711 604
1290 2 2 0 0 505 677 571
1291 2 2 0 0 483 661 494
1292 2 2 0 0 263 565 375
1293 2 2 0 0 504 677 594
1294 2 2 0 0 582 718 399
1295 2 2 0 0 645 714 46
1296 2 2 0 0 534 708 392
1297 2 2 0 0 643 680 402
1298 2 2 0 0 18 712 452
1299 2 2 0 0 392 670 390
1300 2 2 0 0 221 702 603
1301 2 2 0 0 496 664 391
1302 2 2 0 0 606 710 118
1303 2 2 0 0 655 703 602
1304 2 2 0 0 608 676 91
1305 2 2 0 0 194 684 514
1306 2 2 0 0 541 671 378
1307 2 2 0 0 154 669 652
1308 2 2 0 0 399 718 639
1309 2 2 0 0 405 715 674
1310 2 2 0 0 33 726 677
1311 2 2 0 0 629 671 284
1312 2 2 0 0 468 735 495
1313 2 2 0 0 469 704 408
1314 2 2 0 0 427 745 479
1315 2 2 0 0 294 734 251
1316 2 2 0 0 461 705 379
1317 2 2 0 0 385 674 636
1318 2 2 0 0 657 692 176
1319 2 2 0 0 561 714 411
1320 2 2 0 0 631 669 154
1321 2 2 0 0 264 682 265
1322 2 2 0 0 43 638 486
1323 2 2 0 0 48 638 43
1324 2 2 0 0 194 744 684
1325 2 2 0 0 381 686 380
1326 2 2 0 0 658 716 589
1327 2 2 0 0 263 567 565
1328 2 2 0 0 310 681 337
1329 2 2 0 0 493 685 492
1330 2 2 0 0 64 685 663
1331 2 2 0 0 309 678 267
1332 2 2 0 0 600 678 431
1333 2 2 0 0 538 694 333
1334 2 2 0 0 598 685 64
1335 2 2 0 0 551 695 633
1336 2 2 0 0 560 699 241
1337 2 2 0 0 211 690 210
1338 2 2 0 0 2 723 3
1339 2 2 0 0 630 708 441
1340 2 2 0 0 467 735 468
1341 2 2 0 0 396 687 395
1342 2 2 0 0 35 507 22
1343 2 2 0 0 259 567 263
1344 2 2 0 0 417 673 418
1345 2 2 0 0 614 686 197
1346 2 2 0 0 392 708 630
1347 2 2 0 0 5 729 6
1348 2 2 0 0 279 725 661
1349 2 2 0 0 6 729 26
1350 2 2 0 0 357 703 655
1351 2 2 0 0 514 684 635
1352 2 2 0 0 540 733 538
1353 2 2 0 0 374 741 593
1354 2 2 0 0 176 692 559
1355 2 2 0 0 650 691 500
1356 2 2 0 0 484 736 691
1357 2 2 0 0 83 733 540
1358 2 2 0 0 558 740 372
1359 2 2 0 0 626 697 555
1360 2 2 0 0 436 693 437
1361 2 2 0 0 375 737 374
1362 2 2 0 0 475 663 536
1363 2 2 0 0 636 674 198
1364 2 2 0 0 674 715 198
1365 2 2 0 0 70 695 551
1366 2 2 0 0 406 721 407
1367 2 2 0 0 677 726 571
1368 2 2 0 0 258 647 627
1369 2 2 0 0 448 701 451
1370 2 2 0 0 458 672 506
1371 2 2 0 0 229 700 570
1372 2 2 0 0 684 744 428
1373 2 2 0 0 570 700 544
1374 2 2 0 0 678 742 431
1375 2 2 0 0 646 741 314
1376 2 2 0 0 603 702 384
1377 2 2 0 0 478 731 293
1378 2 2 0 0 309 742 678
1379 2 2 0 0 380 686 614
1380 2 2 0 0 494 725 468
1381 2 2 0 0 500 691 38
1382 2 2 0 0 635 684 615
1383 2 2 0 0 661 725 494
1384 2 2 0 0 679 721 34
1385 2 2 0 0 509 510 35
1386 2 2 0 0 46 714 51
1387 2 2 0 0 615 684 428
1388 2 2 0 0 432 742 689
1389 2 2 0 0 179 713 181
1390 2 2 0 0 26 739 645
1391 2 2 0 0 35 510 507
1392 2 2 0 0 574 703 357
1393 2 2 0 0 184 707 186
1394 2 2 0 0 39 693 612
1395 2 2 0 0 665 694 539
1396 2 2 0 0 312 708 534
1397 2 2 0 0 554 689 309
1398 2 2 0 0 1 737 508
1399 2 2 0 0 519 717 520
1400 2 2 0 0 277 697 622
1401 2 2 0 0 389 711 641
1402 2 2 0 0 495 736 484
1403 2 2 0 0 17 712 18
1404 2 2 0 0 212 722 557
1405 2 2 0 0 455 720 438
1406 2 2 0 0 622 697 626
1407 2 2 0 0 664 694 665
1408 2 2 0 0 447 719 449
1409 2 2 0 0 669 688 652
1410 2 2 0 0 612 693 436
1411 2 2 0 0 619 744 194
1412 2 2 0 0 57 728 59
1413 2 2 0 0 579 658 583
1414 2 2 0 0 438 727 525
1415 2 2 0 0 539 733 83
1416 2 2 0 0 479 731 478
1417 2 2 0 0 691 736 38
1418 2 2 0 0 401 724 400
1419 2 2 0 0 420 660 2
1420 2 2 0 0 328 732 325
1421 2 2 0 0 320 738 453
1422 2 2 0 0 428 744 429
1423 2 2 0 0 431 742 432
1424 2 2 0 0 425 745 427
1425 2 2 0 0 408 743 434
1426 2 2 0 0 571 726 403
1427 2 2 0 0 119 727 523
1428 2 2 0 0 625 706 462
1429 2 2 0 0 525 730 404
1430 2 2 0 0 499 736 495
1431 2 2 0 0 468 725 654
1432 2 2 0 0 336 672 582
1433 2 2 0 0 198 715 518
1434 2 2 0 0 400 724 706
1435 2 2 0 0 402 680 581
1436 2 2 0 0 589 716 659
1437 2 2 0 0 727 730 525
1438 2 2 0 0 664 665 391
1439 2 2 0 0 337 740 558
1440 2 2 0 0 293 731 562
1441 2 2 0 0 523 720 282
1442 2 2 0 0 460 730 119
1443 2 2 0 0 641 711 225
1444 2 2 0 0 429 744 619
1445 2 2 0 0 119 730 727
1446 2 2 0 0 651 722 212
1447 2 2 0 0 38 736 499
1448 2 2 0 0 667 686 381
1449 2 2 0 0 652 688 383
1450 2 2 0 0 410 710 606
1451 2 2 0 0 644 701 448
1452 2 2 0 0 666 673 419
1453 2 2 0 0 704 743 408
1454 2 2 0 0 251 734 586
1455 2 2 0 0 400 706 625
1456 2 2 0 0 546 688 669
1457 2 2 0 0 668 700 229
1458 2 2 0 0 538 733 694
1459 2 2 0 0 333 694 664
1460 2 2 0 0 565 662 375
1461 2 2 0 0 720 727 438
1462 2 2 0 0 372 700 668
1463 2 2 0 0 579 716 658
1464 2 2 0 0 642 711 389
1465 2 2 0 0 355 705 461
1466 2 2 0 0 407 721 679
1467 2 2 0 0 523 727 720
1468 2 2 0 0 654 725 279
1469 2 2 0 0 639 718 27
1470 2 2 0 0 694 733 539
1471 2 2 0 0 393 722 651
1472 2 2 0 0 645 739 397
1473 2 2 0 0 683 741 374
1474 2 2 0 0 397 739 638
1475 2 2 0 0 653 716 579
1476 2 2 0 0 666 723 660
1477 2 2 0 0 419 723 666
1478 2 2 0 0 374 737 683
1479 2 2 0 0 593 741 646
1480 2 2 0 0 683 737 1
1481 2 2 0 0 689 742 309
1482 2 2 0 0 660 723 2
1483 2 2 0 0 23 25 1
1484 2 2 0 0 25 607 1
1485 2 2 0 0 3 34 2
1486 2 2 0 0 34 415 2
$EndElements
