$MeshFormat
2.2 0 8
$EndMeshFormat
$Nodes
745
1 1.8092378985097369e-05 1.5366298164907571e-05 9.7362445984318336e-04
2 3.1463846221793938e-05 -2.7689915231357307e-05 -9.7218825782702072e-04
3 1.3634372190965993e-04 2.1437409673936561e-05 -9.6391880628253956e-04
4 2.5545069962971473e-04 1.1025973003105459e-05 -9.4202644894636597e-04
5 3.9355376487598638e-04 1.8498113449806361e-05 -8.9730096201845249e-04
6 5.2436663989973407e-04 7.8698959574992263e-07 -8.3301633768210635e-04
7 6.3543672879977570e-04 3.0817320916102979e-06 -7.5886900003059902e-04
8 7.4183549577455296e-04 2.4915920109468770e-06 -6.6396655724867189e-04
9 8.3456345614166998e-04 1.3385062182044605e-06 -5.5314697973196062e-04
10 9.1019778046016130e-04 1.0201527188179577e-06 -4.2878179494205932e-04
11 9.6663924972673575e-04 3.1392199617946010e-06 -2.9363376708903906e-04
12 1.0014514605818151e-03 3.1904472747959028e-06 -1.5021132054749775e-04
13 1.0136026590334766e-03 2.2765412695629451e-06 -2.6439110582776425e-06
14 1.0020163285946186e-03 4.9294169320492979e-06 1.4630978669969609e-04
15 9.6806794274116083e-04 3.8843687231807219e-06 2.8946496000354716e-04
16 9.1190401848854571e-04 4.1595485852356845e-06 4.2605708587187941e-04
17 8.3733299369500539e-04 3.9949729384175156e-07 5.4924593737690295e-04
18 7.4402913622339964e-04 -9.3476384728000682e-07 6.6176210476070617e-04
19 6.3883324824060635e-04 3.2163097121321300e-06 7.5662097680590803e-04
20 5.2131907870755655e-04 2.8437420228140043e-06 8.3536462949948488e-04
21 3.9546466172624335e-04 4.2139529488458638e-06 8.9626347606147725e-04
22 2.6285438620633875e-04 4.6329718957783536e-06 9.4008975358257554e-04
23 1.4031545616035549e-04 -8.6668465318591388e-06 9.6390251096127144e-04
24 1.4900787408440394e-04 1.4069107481748752e-04 -9.5326586142669280e-04
25 1.5928475395782474e-04 1.1032867865926994e-04 9.5637477982954758e-04
26 5.7642873847453665e-04 1.2398663465879359e-04 -7.9183979600118382e-04
27 5.7687408188822461e-04 -1.1702211091766441e-04 7.9330516763237967e-04
28 9.7927663575437585e-04 1.3623530206655540e-04 -2.1628618270927986e-04
29 8.6593476470005898e-04 1.4344395588968055e-04 4.8913766452287526e-04
30 9.3693707458630143e-04 -1.1971687667311150e-04 3.5400723603630063e-04
31 9.7647778903639320e-04 -1.2058998899536692e-04 -2.3401621094600714e-04
32 5.6914221989142757e-04 -1.2141115864073569e-04 -7.9736897883774481e-04
33 5.7669580140110282e-04 1.2005110360012137e-04 7.9269289781654150e-04
34 1.7080337490716187e-04 -1.0317043822196345e-04 -9.5500123461435965e-04
35 1.9520644520096964e-04 -1.1167595979275615e-04 9.4893159290520158e-04
36 7.8723500190241080e-04 -1.2360797615477889e-04 6.0297442797667953e-04
37 7.8474181368449645e-04 1.3015899028307314e-04 -6.0346176206665741e-04
38 1.0045087816366320e-03 -1.1264893409186580e-04 7.0398575260709293e-05
39 9.8006703104476013e-04 1.2749832764351890e-04 2.1529131134572288e-04
40 8.6245411707734513e-04 -1.3292227879291261e-04 -4.9562617868654580e-04
41 2.9266898727708067e-04 1.4056117288211920e-04 -9.2208312153141002e-04
42 2.1488011229484408e-04 2.6341135161078727e-04 -9.1668949156280515e-04
43 3.4231655107805120e-04 2.6074839910875423e-04 -8.8098465986319427e-04
44 3.2325812648836675e-04 1.2217709516712196e-04 9.1534568994036528e-04
45 6.8084512282433883e-04 1.2987196472571705e-04 -7.1033231909931342e-04
46 7.2089552779442821e-04 2.5022465766672090e-04 -6.4090527828620310e-04
47 2.8199773037153515e-04 3.7470477193743705e-04 -8.6273530039397586e-04
48 4.0919771196920579e-04 3.6335584770112207e-04 -8.1918169473374719e-04
49 3.4613349601035821e-04 4.7507939589959603e-04 -7.9263409561340084e-04
50 8.1174795902428493e-04 2.5042586136666796e-04 -5.3084830524564278e-04
51 7.4301984873548557e-04 3.6998650362676615e-04 -5.5875515340708345e-04
52 8.2361331940720224e-04 3.6750350910590233e-04 -4.4444653850660994e-04
53 7.4139525214333458e-04 4.8541421272970628e-04 -4.7212303717251872e-04
54 8.1610228415345074e-04 4.7782184393890885e-04 -3.5016764276520540e-04
55 7.2641910549647718e-04 5.9100877028118483e-04 -3.7194073798543136e-04
56 7.9213228119271654e-04 5.7814877265697747e-04 -2.4416876189849981e-04
57 6.4750719421527111e-04 5.9595029558309222e-04 -4.8254220832271225e-04
58 6.2104978287994537e-04 6.9332208659196007e-04 -3.8475795128652368e-04
59 5.3517330807917318e-04 6.9111570468832523e-04 -4.9229270110650388e-04
60 5.0230671377078781e-04 7.8003173670224287e-04 -3.9105495196019562e-04
61 4.0993461436877643e-04 7.6436304610709579e-04 -5.0357266423208609e-04
62 3.7406284069186978e-04 8.4961107038864522e-04 -3.8925973201507950e-04
63 2.1401590740593882e-04 4.8801577597013641e-04 -8.2740143038024063e-04
64 4.6075858656707277e-04 8.5330627607940886e-04 -2.7984571086740235e-04
65 2.7419641732450085e-04 8.2587435001861271e-04 -4.9895237712131507e-04
66 2.3878793453507179e-04 9.0306179548082697e-04 -3.7615093602293300e-04
67 1.3511319698695539e-04 8.7153766659332158e-04 -4.7868853108197723e-04
68 8.4338347423579710e-05 2.7863892835176845e-04 -9.3197888024297614e-04
69 1.5150867805152591e-04 7.8215979881428820e-04 -6.0216734092820789e-04
70 8.7063929233989923e-04 4.6343262048591363e-04 -2.2179182559232044e-04
71 8.4224252083239359e-04 5.5158736508122814e-04 -1.0850248493889851e-04
72 7.5089092229936366e-04 6.6575968428637434e-04 -1.3373567528734905e-04
73 7.9158455014970402e-04 6.3252582692989359e-04 3.4028759304291067e-06
74 6.9158798035795607e-04 7.3995371531293010e-04 -2.1261049787235544e-05
75 7.2173723008204951e-04 7.0080392305328035e-04 1.1558534790548892e-04
76 6.1539807112697472e-04 7.9920585917629282e-04 9.0715635723585483e-05
77 6.3850421296280952e-04 7.5093968414843414e-04 2.2635305104075766e-04
78 5.2548893195506548e-04 8.4138040142632076e-04 1.9887414974784431e-04
79 9.7510194125956229e-05 9.4016468439562888e-04 -3.4960684935691008e-04
80 -1.1688899181896385e-05 9.0216882534229425e-04 -4.4209469539031583e-04
81 2.4968399751155274e-04 2.4185318424973574e-04 9.1471711334554378e-04
82 5.4268776694520388e-04 7.8349121792764152e-04 3.3210773650109107e-04
83 -4.2935526265184556e-05 9.5599044498220504e-04 -3.1793453467541155e-04
84 4.2216434559972082e-04 8.6713875672622784e-04 2.9888363762151354e-04
85 4.3409468742101794e-04 8.0200053055279514e-04 4.2453552110403750e-04
86 3.1003930623519824e-04 8.7422524694418240e-04 3.9255404304430107e-04
87 3.1831115400354732e-04 8.0082125368939388e-04 5.1237226793115218e-04
88 1.9266088136577216e-04 8.5880263994611268e-04 4.8234682503297540e-04
89 1.6706466750496116e-04 9.2924328263925993e-04 3.5398905561762056e-04
90 4.9128923378971187e-05 9.0182214917447858e-04 4.4084766006380262e-04
91 7.1611028988912984e-05 8.2588539813276444e-04 5.5976024571241891e-04
92 -6.3931917923412161e-05 8.5534553260799881e-04 5.1762355416382381e-04
93 -9.6685982542855725e-05 9.2008753044451588e-04 3.9674910877855431e-04
94 -2.0258554333764598e-04 8.6224136318893273e-04 4.7226401067342017e-04
95 -1.6938471643843537e-04 8.0470258098087606e-04 5.6770342325941593e-04
96 -2.3357480863453413e-04 9.1801069049689103e-04 3.4524999320780468e-04
97 1.0624310735416351e-04 2.4366973120338824e-04 9.3954332472462548e-04
98 5.5051147583520116e-04 7.0122649281340087e-04 4.6537525211837850e-04
99 1.6984811024558266e-04 3.5500345786386298e-04 8.9716289306687041e-04
100 3.2357051514012391e-05 3.5473682892428346e-04 9.1154510241210152e-04
101 -3.3316684131098937e-05 2.3914459761270468e-04 9.4545719845528630e-04
102 -1.0454328319576312e-04 3.4945212718492100e-04 9.0857399158233293e-04
103 2.0233209533502338e-04 9.5932405241398180e-04 -2.4426018523893692e-04
104 -1.2671680380277171e-04 9.6784216161741174e-04 2.6081540912481331e-04
105 -2.6067227158257006e-04 9.5489023628790950e-04 2.0779162833179185e-04
106 -3.6487030043112209e-04 8.9567223102014022e-04 2.8928829239996775e-04
107 -1.5372662966603266e-04 9.1277817173654615e-04 -3.9484698797512957e-04
108 -1.2822112796403746e-04 8.4833808813588750e-04 -5.1678673899604598e-04
109 -3.8432929322536336e-04 9.2407720060431586e-04 1.4926159035239388e-04
110 -2.6504337208930844e-04 8.4900626998094984e-04 -4.6573659113214883e-04
111 -2.3937129569627567e-04 7.7363723649108993e-04 -5.8446435738246318e-04
112 -3.7016685472170249e-04 7.6643380447574585e-04 -5.2796758221541971e-04
113 -3.3860182640398675e-04 6.8359015933054917e-04 -6.4012400231949805e-04
114 -4.6481629479183765e-04 6.6958647937574245e-04 -5.7796776719123456e-04
115 -4.2644045625682436e-04 5.8104540555750509e-04 -6.8381710555012168e-04
116 -4.9448630641627759e-04 7.4420740319200809e-04 -4.5845892808348481e-04
117 -2.8621636811375438e-04 9.0533957700201411e-04 -3.3864564324543521e-04
118 -3.0324847078384539e-04 7.8559157271614597e-04 5.4239561890221343e-04
119 7.3306620302771703e-04 6.5224050048030293e-04 2.4328327984558953e-04
120 -2.9772314352312682e-04 5.8819459998698479e-04 -7.3875499761829168e-04
121 -3.8137829755025107e-04 4.8228034472498133e-04 -7.7346623397346343e-04
122 -5.0648928208521190e-04 4.6809134867351130e-04 -7.1282584039114984e-04
123 -4.5631083398550790e-04 3.6665842332281431e-04 -7.9440083310490148e-04
124 -5.8453032016487572e-04 6.4064208743303246e-04 -5.0327293372634183e-04
125 -6.0927093362538574e-04 7.0786385556372282e-04 -3.7686556789649853e-04
126 -6.9406529889330150e-04 5.9681819093665618e-04 -4.1755775130283574e-04
127 -4.8965361814349673e-04 8.5329431625866400e-04 2.3072392000864452e-04
128 -5.7714531553530821e-04 3.4683001889253701e-04 -7.2708286890629879e-04
129 -5.2178820460112947e-04 2.4299208170346841e-04 -8.0085908103565021e-04
130 -6.3726617765871559e-04 2.1937164429953926e-04 -7.2677181719431945e-04
131 -5.7465800029273212e-04 1.1437884248166369e-04 -7.9407966918917331e-04
132 -6.8599558891893988e-04 8.7457290015368152e-05 -7.1144951615386960e-04
133 -6.1619813975535777e-04 -1.7579138943327423e-05 -7.7304267957588010e-04
134 -7.2415851969899058e-04 -4.6303051483788655e-05 -6.7954966199182214e-04
135 -6.4512177368828251e-04 -1.5025241899194582e-04 -7.3737994651046107e-04
136 -7.8845428510628543e-04 6.1537538351354669e-05 -6.0893948724806044e-04
137 -8.1675205739475606e-04 -7.8942926088021459e-05 -5.7162823450038148e-04
138 -8.7248885756025364e-04 3.3368379942022020e-05 -4.9472157475022836e-04
139 -8.9261985140754927e-04 -1.0633114832926362e-04 -4.4944766149697044e-04
140 -9.3761790200728090e-04 4.0944216861418130e-06 -3.6850795684708156e-04
141 -9.4807811403072181e-04 -1.3086572095849177e-04 -3.1857798440755472e-04
142 -9.8331805540607703e-04 -1.8813244859948182e-05 -2.3244672796402579e-04
143 -9.8399774450081898e-04 -1.5324144933506325e-04 -1.7816256080674121e-04
144 -1.0080749177609467e-03 -3.8955730128331142e-05 -8.9290360451710032e-05
145 -9.9740450763726547e-04 -1.7471223983126608e-04 -3.3237644104136598e-05
146 -1.0098253106805778e-03 -5.8246904853672788e-05 5.5581361792270576e-05
147 -9.8787637795764082e-04 -1.9244490630496432e-04 1.1254835983152880e-04
148 -9.6513496544086113e-04 -3.0759316381063530e-04 2.2895312990165215e-05
149 -9.4477194822449519e-04 -3.2210361554282609e-04 1.6850092946257364e-04
150 -9.5600362045657129e-04 -2.0468987344182012e-04 2.5598820938713487e-04
151 -9.0272059093821381e-04 -3.2944730788287590e-04 3.0924055853977418e-04
152 -9.0334463024936869e-04 -2.1035248577004425e-04 3.9254503088826076e-04
153 -8.4017501304544512e-04 -3.3155525871758076e-04 4.4175888004664178e-04
154 -8.9504534854653031e-04 -2.3703183963612486e-04 -3.9562060657961494e-04
155 -8.3129206780492028e-04 -2.1007778706337308e-04 5.1949084567250994e-04
156 -7.5972862717298226e-04 -3.2749596547439728e-04 5.6261837484250542e-04
157 -8.8467192743928288e-04 -8.4141320396329577e-05 4.6819630510705891e-04
158 -7.4270190886456934e-04 -2.0475863602992492e-04 6.3288607120848002e-04
159 -6.6496013205697790e-04 -3.1777564402776299e-04 6.6873816445810923e-04
160 -1.0100283075862653e-03 7.8276864500573105e-05 -5.3318429169068847e-07
161 -6.4225714099235161e-04 -1.9494533010237227e-04 7.2983376126760249e-04
162 -5.5618173688374824e-04 -3.0337631940386756e-04 7.6051198338718479e-04
163 -5.3319321111506602e-04 -1.2014345438883295e-04 -8.2022766487191672e-04
164 -5.5464856093442167e-04 -2.5155572436856934e-04 -7.7875155752318707e-04
165 -7.1241732491139317e-04 6.5613451044092233e-04 -2.8575826194400294e-04
166 -1.6860877488371207e-04 2.3126934332747093e-04 9.3412568417506508e-04
167 -2.3962285472579068e-04 3.3955237084695413e-04 8.8804742516342225e-04
168 -4.3977197502700368e-04 -2.1760961214845609e-04 -8.5189735128890335e-04
169 -4.5507065083027636e-04 -3.4715377288006350e-04 -8.0366440814075377e-04
170 -5.6530221560261058e-04 -3.7968857572709923e-04 -7.2141070519756941e-04
171 -4.5951906435413712e-04 -4.7260704002204123e-04 -7.3995831361032465e-04
172 -5.6657671329658267e-04 -5.0259792801907134e-04 -6.4752830652238264e-04
173 -4.5319054492521917e-04 -5.9084370053179920e-04 -6.6138530574596024e-04
174 -5.5460150092224850e-04 -6.1585280348250813e-04 -5.6056895057845894e-04
175 -4.3680662838392994e-04 -6.9900894950625030e-04 -5.6726078401092724e-04
176 -7.6249948917652560e-04 -4.4051738787817275e-04 4.8162825088407356e-04
177 -5.3303060979342895e-04 -7.1641259983694599e-04 -4.6018841732323705e-04
178 -4.0989508361892544e-04 -7.9357633318645471e-04 -4.6025638437964495e-04
179 -3.1295796258065553e-04 -7.7304117516159077e-04 -5.5396575757106037e-04
180 -2.7698467324472411e-04 -8.5650318081702877e-04 -4.4804251340225875e-04
181 -1.7569395541393965e-04 -8.2545184624441303e-04 -5.3985665090751183e-04
182 -1.3685119923101684e-04 -8.9921985938522470e-04 -4.3009394724830322e-04
183 -3.5128080709691561e-05 -8.5318237416343761e-04 -5.2627665358595988e-04
184 1.0394259450227262e-07 -9.2171016477232335e-04 -4.0559724351409886e-04
185 -9.7647586920823258e-05 -9.5751510350534073e-04 -3.0535537417082328e-04
186 3.8400724676072505e-05 -9.7262958109047579e-04 -2.7172828430119809e-04
187 -5.5756752193670983e-05 -9.9657966469819084e-04 -1.7001465464031159e-04
188 8.6146850980663538e-05 -1.0000693521979851e-03 -1.3617780935186157e-04
189 -1.1725984582324894e-05 -1.0131508276343543e-03 -3.0430292539997020e-05
190 1.2879606181802705e-04 -1.0053271952779864e-03 5.9195994676192344e-06
191 2.9965834559316889e-05 -1.0065242053673401e-03 1.1051235940262202e-04
192 1.7016094176823665e-04 -9.8730165181345250e-04 1.4661991835663636e-04
193 6.8160950267867051e-05 -9.7708894559952477e-04 2.5068226656702969e-04
194 2.1744495378485973e-04 -9.8485853659740618e-04 -9.5122953323141350e-05
195 2.0818404443425441e-04 -9.4712193537044125e-04 2.8372288276705247e-04
196 1.0339778944044766e-04 -9.2605584698313593e-04 3.8427839325750441e-04
197 1.1281164016962055e-04 -8.7284098073416440e-04 -4.8512488655168479e-04
198 -1.0408881683408084e-04 -1.0050523252797543e-03 7.1988965631194785e-05
199 2.4102257012837224e-04 -8.8567013244758195e-04 4.1352893076219781e-04
200 3.4477986955195510e-04 -8.9713525264869555e-04 3.0959754590391701e-04
201 3.7264494259882337e-04 -8.2709914084472681e-04 4.3458616035506705e-04
202 1.3402648320939381e-04 -8.5470837043013224e-04 5.0824191675765535e-04
203 4.7307559863030396e-04 -8.2926776561980851e-04 3.2748852645619929e-04
204 -4.0304016376663552e-06 -8.8494718439208328e-04 4.7586754419979877e-04
205 2.7460649100786445e-05 -8.0405631284917684e-04 5.9328043186883828e-04
206 -9.1190811380708931e-04 -4.3428040667251234e-04 7.8031254371301216e-05
207 -7.5591890527685693e-05 -7.6507970028020914e-04 -6.3601877395899620e-04
208 -1.1068958738804142e-04 -8.2533451530600592e-04 5.5602150216864583e-04
209 -7.7467553258885139e-05 -7.3678700379387367e-04 6.6551248576019991e-04
210 4.9354514863640707e-04 -7.5447014281515752e-04 4.4537885178393171e-04
211 5.8886478541384521e-04 -7.4819113969185785e-04 3.3394214237703323e-04
212 -5.0507974725813294e-04 -7.9878455605171994e-04 -3.5097323997826488e-04
213 5.8762144008810049e-05 -7.0760757489580779e-04 6.9554601081546952e-04
214 -4.4120622463856634e-05 -6.3449210203119887e-04 7.5885958891133123e-04
215 -3.3783723010703744e-04 -3.0901811082726819e-04 -8.6852307802257555e-04
216 -2.1407471162970620e-04 -7.4945239592517302e-04 6.2306746720483042e-04
217 -2.4662343609144075e-04 -8.2976000349732333e-04 5.0677681083139629e-04
218 5.6480779925332885e-04 -8.1268727217741752e-04 2.1154594415327680e-04
219 6.8207361697681268e-04 -7.1309696973881505e-04 2.2391078950408544e-04
220 6.4374592673686220e-04 -7.7776247925198053e-04 9.1604759156425100e-05
221 -6.4381571039295741e-04 -6.2866841298310863e-04 -4.4709257477571157e-04
222 7.5384480348116294e-04 -6.6980939807576186e-04 1.0354059377343078e-04
223 7.0527630585373146e-04 -7.2775285268952784e-04 -3.2494031321182855e-05
224 -3.1982345285745624e-04 -1.7955863933552424e-04 -9.0742125446668183e-04
225 -9.6478707048482939e-04 1.0995531354896702e-04 -2.7643754274063909e-04
226 8.9715742044827620e-05 -5.9872554317218457e-04 7.8171295600306572e-04
227 -1.2635763194575984e-05 -5.2095541863217908e-04 8.3568555566993830e-04
228 -5.2980451749840322e-04 -1.7703015504667581e-04 8.1284558167138963e-04
229 -6.1271223348232046e-04 -7.4663324700858757e-05 7.7249695704030270e-04
230 6.8433592413772067e-04 -6.4957739739711579e-04 3.5591231483886034e-04
231 3.9434648082777528e-04 -7.4409240230674154e-04 5.4252353397854893e-04
232 5.1286919317725154e-04 -6.5642138767221521e-04 5.5667499576230329e-04
233 8.0237752650826955e-04 -6.1915186596288969e-04 -2.7525122916400106e-05
234 7.4865722722954910e-04 -6.6361674765254275e-04 -1.5786381772849985e-04
235 -4.0105047175338231e-04 2.6082817322484468e-04 -8.5756267183775901e-04
236 3.0709701325636008e-04 3.5159915774925248e-04 8.6432261399666237e-04
237 -4.4089832348062635e-04 -2.8389733078036796e-04 8.3378079707760770e-04
238 -8.3871971878678869e-04 1.8831969877083175e-04 -5.1715364304720870e-04
239 6.4338849360042177e-04 -7.6489222319891528e-04 -1.6374051837869013e-04
240 6.8020026146196259e-04 -6.9051903762869140e-04 -2.8577312935033395e-04
241 -5.7611543368605081e-04 -4.2387925477603176e-04 6.9022129854457315e-04
242 5.6734404929471914e-04 -7.8453373660915292e-04 -2.8940962918429399e-04
243 5.9784278461732111e-04 -7.0125129399588630e-04 -4.0678187231021131e-04
244 7.0275132205790860e-04 -6.0092544297948023e-04 -3.9960330041669277e-04
245 6.1328589438125220e-04 -6.0418895163773093e-04 -5.1477055569772645e-04
246 -2.1574188697915070e-04 -2.6753878980494806e-04 -9.1597663277627689e-04
247 8.4491671168739904e-04 -5.5098127077615755e-04 9.9596617932261268e-05
248 2.3037442149143733e-04 4.6244713491445819e-04 8.3789124362405767e-04
249 -4.0752424412883752e-04 -1.5407882386019996e-04 8.7931013047698231e-04
250 3.6456195672727147e-04 4.5417511840097953e-04 7.9709687028338254e-04
251 -2.3062795596976397e-04 -3.9122710833335852e-04 -8.7050638787296308e-04
252 -1.0358350002444557e-04 -3.5243786727607597e-04 -9.0762213892002681e-04
253 3.9390695252124072e-04 9.1747971202348880e-04 1.6487397188052856e-04
254 -6.1957792130610894e-04 7.6089779948404859e-04 -2.4103134979386800e-04
255 -7.1494673807453145e-04 7.0066540923753747e-04 -1.4738906954875244e-04
256 -8.0019155136371338e-04 5.8866596248880983e-04 -1.8950007535962454e-04
257 -7.9460468799023908e-04 6.2567237046820589e-04 -4.8098965032217358e-05
258 -3.9328261318550715e-05 4.6277264294656108e-04 8.6518783272235538e-04
259 -3.1874318165768273e-04 -2.5562688056512766e-04 8.9111742414396005e-04
260 -3.0103963425048700e-04 2.1843696798361776e-04 9.0562371241903331e-04
261 -3.7142479490071835e-04 3.2380135092563016e-04 8.5062508145105698e-04
262 -2.8235725294157584e-04 -1.2942443147330852e-04 9.2678098470209080e-04
263 -1.8861232937430388e-04 -2.2542390712516363e-04 9.3184681749184609e-04
264 -8.7022211148802609e-04 5.0934557956718073e-04 -9.0947153493179655e-05
265 -8.5435375599290919e-04 5.4073182666725063e-04 5.6959714677587843e-05
266 -3.4803711304571151e-04 -7.4478217025577534e-04 5.7008873095844097e-04
267 -3.7444149598652408e-04 -8.1781145405622566e-04 4.4905481529074973e-04
268 5.0365959966604701e-04 -6.9730149592294789e-04 -5.1614653424152622e-04
269 5.1185565802287965e-04 -5.9421237086105432e-04 -6.1784428134750431e-04
270 6.1641126602655580e-04 -4.9573597333691212e-04 -6.0960220849820698e-04
271 5.0912365226445154e-04 -4.8053848199295366e-04 -7.0520551207848019e-04
272 4.0079717975242930e-04 -5.7257491902696364e-04 -7.0620300555439904e-04
273 -3.0624536632992068e-04 4.4316470952730189e-04 8.2455716518275871e-04
274 -4.3622683231475938e-04 4.2401452906959939e-04 7.7837508685315335e-04
275 3.9450383581634180e-04 -4.5470939864493913e-04 -7.8392491943795098e-04
276 2.8363164116408315e-04 -5.4046348957299231e-04 -7.7797576377329773e-04
277 -3.4586889209576574e-04 -3.7675403024251702e-04 8.4056267187088769e-04
278 -1.4957057211477119e-04 9.9408181222282281e-04 1.2035370306365770e-04
279 8.3244694228174789e-04 -5.5601722093110198e-04 -1.5266898185652128e-04
280 -2.5034506087021080e-04 4.8644694096725808e-04 -8.1883152519072414e-04
281 -1.6147755251386369e-04 5.8758878483326424e-04 -7.7745025010747017e-04
282 8.8033074824335022e-04 5.0227027341796663e-04 3.0532286401380773e-05
283 1.1949245067110734e-04 -4.8035534129652632e-04 8.5018602093282216e-04
284 -1.0007157420763959e-03 5.5544849381460845e-05 1.3985648056138186e-04
285 -9.2111481439608009e-04 -4.1550077117490244e-04 -6.7901438668998965e-05
286 -8.5857765450945717e-04 -5.3788524504458845e-04 -1.3390894514436398e-05
287 -8.3959437409737985e-04 -5.5070572236747028e-04 1.3176871666724076e-04
288 -7.7713736113985371e-04 -6.4894630261797220e-04 4.0294462752976438e-05
289 -7.4894362206383107e-04 -6.5508563656385308e-04 1.8444161609778510e-04
290 -6.7874469158859174e-04 -7.4578681255905749e-04 9.3056901420886243e-05
291 -1.9861640126823084e-04 -9.7223120492733578e-04 -1.9914005516548142e-04
292 -2.7409931856943025e-04 -8.9303618778515943e-04 3.7833712624473674e-04
293 -3.4277204205391187e-04 -5.5185341568891259e-04 -7.4804761062453309e-04
294 -1.1124652453902659e-04 -4.8314655681240223e-04 -8.5004341731958447e-04
295 -4.9811226236105746e-04 3.0011922495332426e-04 7.9748895512056365e-04
296 -5.6015214291753280e-04 3.9750458501504619e-04 7.1647678245668903e-04
297 -8.6971336282530218e-04 4.6252837642647574e-04 -2.2743280306747755e-04
298 -6.1864991139022672e-04 2.6847768689722767e-04 7.2704554523918611e-04
299 -6.7417606197393289e-04 3.6378928143837564e-04 6.3786100310592631e-04
300 -6.1035874873875380e-04 4.8944493626391851e-04 6.1938467053681884e-04
301 -7.1856198898628918e-04 4.5025186614946003e-04 5.3275544795489127e-04
302 -7.7578647189352696e-04 3.2102380093424236e-04 5.4530994665729271e-04
303 -3.1238463844271002e-04 -6.5891543515932507e-04 6.7694861646407534e-04
304 -6.4524641009259392e-04 5.7739206115715446e-04 5.0604740307316699e-04
305 -8.1293613528554437e-04 4.0185761805891794e-04 4.3406295482310983e-04
306 2.2217559002125312e-04 -5.5197231158101909e-04 7.8896103025015050e-04
307 2.4892631986455353e-04 -4.3082141557918973e-04 8.4896102829296017e-04
308 3.5272541773240609e-04 -4.9792919091507892e-04 7.7803586096520988e-04
309 -4.6021759846090444e-04 -7.2806827350685921e-04 5.1221960088848335e-04
310 -8.6143348044534268e-04 2.7015977853862952e-04 4.4201089701447231e-04
311 -4.0207799726887130e-04 -8.6879382778073564e-04 3.1993725711408936e-04
312 -7.7156783213890175e-04 6.4872430488361547e-04 9.2315604460804435e-05
313 -8.5827763660149478e-04 -5.1287353433169484e-04 -1.5744588962371373e-04
314 -9.4831328487795654e-05 1.1472751476374732e-04 9.6300898642385352e-04
315 -8.9274272953519145e-04 3.4512523680722032e-04 3.2078504459697956e-04
316 -9.9037751146560053e-04 1.9014108151381621e-04 8.9848979787955979e-05
317 -1.0760475667789843e-04 7.6925275431800064e-04 -6.2419708273848420e-04
318 2.7679720962000697e-04 -4.2114116212977411e-04 -8.4504232279175974e-04
319 -6.9819749123993817e-04 -7.3196027602545014e-04 -5.3946209437972880e-05
320 -6.0182568560365626e-04 -8.1469515430025350e-04 2.6473928264493957e-06
321 -6.6621036454110919e-04 -4.0515319334320782e-04 -6.2221047894432679e-04
322 -9.0863656127667078e-05 -2.2033090711882282e-04 -9.4617963577833786e-04
323 5.2375767367277655e-04 -8.6391926504160205e-04 8.2738252211559031e-05
324 -6.1618833789212546e-04 7.9692474585941716e-04 -1.0090713630806694e-04
325 2.8659010916083421e-04 5.6073307566815327e-04 7.6317336164821010e-04
326 2.8465176689286754e-04 -6.5295695945962080e-04 -6.9355426971590107e-04
327 1.6386529239973541e-04 -6.1507442565124284e-04 -7.5835540691991318e-04
328 4.2058013006878039e-04 5.4663677413140761e-04 7.1353158953131764e-04
329 4.9130291159093901e-04 4.3442968454284939e-04 7.4223312984750029e-04
330 4.7051556678280853e-04 4.5486413535573419e-04 -7.4296078039934614e-04
331 -1.4221194091773766e-05 9.9697075571618474e-04 1.7106196258304766e-04
332 -3.7569208494267612e-05 1.0114797277601360e-03 2.8919672345844257e-05
333 -1.6877322466874576e-04 9.9822571058139336e-04 -2.0194984029114798e-05
334 9.9498062210226474e-05 1.0044227453472124e-03 7.9435562894568997e-05
335 3.7211296282832441e-04 -3.6978528854335005e-04 8.3377793435645154e-04
336 4.6654499385438372e-04 -4.3656617478981451e-04 7.5624533005667785e-04
337 -8.1743530204731558e-04 1.9391114027144890e-04 5.4414802931204958e-04
338 -3.6559652135227579e-04 5.4014047706695640e-04 7.4490261408963958e-04
339 -1.2172535435038793e-04 4.9045453614458411e-04 -8.4333725474069229e-04
340 3.8297367357968692e-04 -3.3211231529554675e-04 -8.4333630895866147e-04
341 2.2927756124681157e-05 -3.0467642220353774e-04 -9.2876086759138767e-04
342 -9.3936457322367863e-04 3.6225546147463365e-04 -1.1571315871073646e-04
343 1.4712477941004653e-05 -3.9968581545991156e-04 8.9489002034188450e-04
344 -5.3281449857903943e-04 6.0835961661876217e-04 5.8705238834318749e-04
345 -5.4886543018571132e-04 7.0725174481368327e-04 4.5740637306480473e-04
346 -6.7073284958743507e-04 6.5018456639610791e-04 3.7659827886137411e-04
347 6.0678272537042415e-04 -3.7758308374379312e-04 -6.9122270168628787e-04
348 7.0897771000935617e-04 -3.8610581297567965e-04 -5.8954365011175294e-04
349 5.4251145888655373e-04 5.2520561604971888e-04 6.4946585273527562e-04
350 6.1166226432605010e-04 4.0464976901389329e-04 6.7203113287932789e-04
351 6.5895237662007072e-04 4.9073265276979700e-04 5.7034501968222535e-04
352 7.2203516730389773e-04 3.6175337842763025e-04 5.8861676955102677e-04
353 7.6053952686787264e-04 4.4787947360514375e-04 4.7873214734879419e-04
354 -6.4264951285354362e-04 -7.4421189368406311e-04 2.3481370763076383e-04
355 2.7406790490352203e-04 5.7946842096270618e-04 -7.5308896799658931e-04
356 1.3841544224395849e-04 5.9468958593340664e-04 -7.7661210299820110e-04
357 -6.8462649314505564e-04 3.1836226529846721e-04 -6.4854141221263586e-04
358 5.2343604209026395e-04 -8.5056919559836186e-04 -1.6668172043953698e-04
359 4.4230245407800913e-04 -8.6144030119339606e-04 -2.8832847389553687e-04
360 -8.3362334774199668e-04 4.7685108587125578e-04 3.0987996227915766e-04
361 -1.4410424900491105e-04 -5.5198617301842638e-04 8.0516321428519757e-04
362 -2.0356614982524639e-04 3.7750702126702445e-04 -8.8123460709488006e-04
363 -2.3607783188610171e-04 5.5259830323162672e-04 7.8360139246970342e-04
364 -5.1542105239821279e-04 8.4879345251663747e-04 -1.9069720465056690e-04
365 1.5362366628906207e-04 5.6762400121043569e-04 7.9304300472095854e-04
366 -3.7449242532925964e-04 -2.6963884329618136e-05 9.0447444872551080e-04
367 -7.0367953708790466e-04 -6.4705529703411378e-04 3.2372274647233195e-04
368 2.0776240367374486e-04 6.6962363596545483e-04 7.0383330887625244e-04
369 8.1123642406765359e-05 6.5198388559405834e-04 7.4045887557453523e-04
370 6.9681613913104073e-04 -2.6263854884591375e-04 -6.6139073661494730e-04
371 -5.5130574478605649e-04 1.7079716888432919e-04 8.0057615588723498e-04
372 -6.7599882692719537e-04 1.3597202812796626e-04 7.1443299737184102e-04
373 5.7805647660261238e-04 8.3072967432050524e-04 -4.1983713026144639e-05
374 -1.5685538715196591e-04 -9.7365316170348041e-05 9.5732748433080431e-04
375 -5.9959404157847122e-05 -1.9723382122199817e-04 9.5294410707376105e-04
376 -3.0050014736503401e-04 -9.3555451413544820e-04 2.3982273736913816e-04
377 -4.3650575749222157e-04 -8.9820208516461718e-04 1.6945978237897837e-04
378 -9.3314846634968127e-04 1.8677011600654056e-04 3.3572911554913981e-04
379 4.4286661263444414e-04 6.5989863685379552e-04 -6.0432178982229253e-04
380 1.6463994292594805e-04 -7.2084484105143639e-04 -6.6677149923958048e-04
381 2.8233660327768058e-04 -7.5022947611147364e-04 -5.9627380518741428e-04
382 -9.0995535867070094e-04 -3.8772848432507727e-04 -2.0979520094035345e-04
383 -8.3980766110846130e-04 -4.7867770577811509e-04 -2.9125081266040490e-04
384 -7.8066223935837058e-04 -5.9321002000922534e-04 -2.4634218121557378e-04
385 -1.6967659300624709e-04 -9.4968812943063523e-04 2.9918467034947675e-04
386 -6.6123085035351260e-04 5.2491443779891672e-04 -5.3810493427930938e-04
387 -7.6263042510934154e-04 4.7494280265346730e-04 -4.5003235005296519e-04
388 8.8730546893257042e-04 2.4553017368188332e-04 -4.0805471340405331e-04
389 -9.1539396476255871e-04 3.3376090939174442e-04 -2.6623555786374476e-04
390 -5.0791921895956100e-04 8.7441098781180398e-04 -5.0571131922709187e-05
391 -4.0413155838108959e-04 9.1772080630695297e-04 -1.3536489174459170e-04
392 -6.0845083703326243e-04 8.0872629160615682e-04 3.3732636712509283e-05
393 -6.0247392795430808e-04 -8.0209744473750582e-04 -1.3569561141666043e-04
394 -5.1090314591538378e-04 -8.7137434402463762e-04 -6.9972689648925085e-05
395 7.3354381633815088e-05 1.0080674464150133e-03 -6.0009339261554716e-05
396 2.1166272977157292e-04 9.9030656694577856e-04 -9.7373953885081740e-06
397 5.4024032646047605e-04 3.3739588791845419e-04 -7.5755431590243303e-04
398 2.6169508628222588e-04 -3.1036439243171390e-04 8.9249142189671790e-04
399 3.8469078964202237e-04 -2.3353041953658244e-04 8.7336252039163791e-04
400 -2.9024328298814077e-04 6.4118332136096695e-04 7.0014862225750599e-04
401 -1.7475344029489401e-04 6.3852930120910961e-04 7.3606674960354445e-04
402 3.2108058772940264e-04 -6.1297582641648026e-04 7.1197372164192815e-04
403 6.7087372508808495e-04 2.7657574593079970e-04 6.8006564386947899e-04
404 6.8211528165273408e-04 5.8508251736295706e-04 4.5249382093506276e-04
405 -3.1671265285888135e-04 -9.5780170488431399e-04 9.1020742802320865e-05
406 2.6568682838723587e-04 -3.0281010608503522e-04 -8.9314697724329609e-04
407 3.6994367142206879e-04 -2.1192793559443444e-04 -8.8307387374975024e-04
408 8.6675511745849221e-05 5.0223503508832305e-04 -8.4046279293434974e-04
409 -9.0203037582570764e-04 4.2880935982047799e-04 1.6776440625227085e-04
410 -4.6311736916851941e-04 8.1708697708255784e-04 3.6462691986459048e-04
411 5.7708797036327259e-04 4.3674209478746358e-04 -6.8026847992485467e-04
412 4.6362361438965957e-04 6.4410011655698313e-04 6.0623689153269317e-04
413 8.1907766143359938e-04 3.0623852987693450e-04 4.9327806321429306e-04
414 8.4891474326430165e-04 3.9157151718231153e-04 3.7624892074819137e-04
415 3.3210028612704961e-05 -1.6286692175687028e-04 -9.6014607539309340e-04
416 -9.8790810907773254e-04 2.1689122136643791e-04 -5.4866075045544993e-05
417 -8.2395534369914393e-05 3.9300714676508599e-04 -8.9316782971209823e-04
418 -1.5832230849711530e-04 2.7442195891597311e-04 -9.2413173497192318e-04
419 2.1982662765881514e-05 1.8899830428680149e-04 -9.5477200649297575e-04
420 -8.2430981132303638e-05 -8.3757536020840403e-05 -9.6686695163142160e-04
421 -9.5887584991507298e-04 3.2310254486073029e-04 4.9790160744677398e-05
422 7.9244296233676927e-04 -2.6551682551316448e-04 -5.5173026230048976e-04
423 7.9925060634983248e-04 -3.8446021713553838e-04 -4.7228211100899852e-04
424 2.4376235754754362e-04 9.7386306829021425e-04 1.2876181473084656e-04
425 3.8654642459716902e-05 -6.8674338097884403e-04 -7.1643060779329648e-04
426 3.6272638498472790e-05 -5.5999404348402548e-04 -8.1148395795194379e-04
427 -7.8293401600746694e-05 -6.1072067304250447e-04 -7.7335585435583921e-04
428 3.9935150047147074e-04 -9.1460376950339834e-04 -1.6871925878665634e-04
429 3.1383199704364376e-04 -9.1778055793058019e-04 -2.8289489229901815e-04
430 3.5397040021258437e-04 -8.5489082985581012e-04 -3.9860549028641602e-04
431 -5.9811818854298864e-04 -7.2440778902186254e-04 3.6471282511803932e-04
432 -6.3898706729375774e-04 -6.2109778948326070e-04 4.6479993486434718e-04
433 1.5011940335527918e-04 -3.7398236293978746e-04 -8.9369879445184140e-04
434 -1.2586985370363456e-05 5.8957917620168997e-04 -7.9196622320330801e-04
435 6.9786355510652017e-05 6.9031135389766842e-04 -7.0907399330391965e-04
436 8.9558520377630015e-04 2.5510727794526437e-04 3.8507923694650932e-04
437 9.1604670231130482e-04 3.3552264066385231e-04 2.6346934169213125e-04
438 8.6478081248757071e-04 4.5637621267409278e-04 2.5564707903671534e-04
439 7.7135129545101812e-04 2.2111744724944549e-04 5.9585448211723084e-04
440 -5.8847870783613684e-04 7.5908123014743810e-04 3.0993468626927631e-04
441 -7.1022512515482995e-04 6.8297467326205465e-04 2.2752818051612877e-04
442 6.8527668125577853e-04 -1.2490734087498907e-04 7.0816670120296015e-04
443 7.2077012155070041e-04 -2.4702358773672216e-04 6.4302022390974167e-04
444 8.1387580119653580e-04 -2.4557341192710968e-04 5.3145605531753183e-04
445 7.4136402695298195e-04 -3.6602891713022345e-04 5.6432795853655839e-04
446 8.2470425567360978e-04 -3.6263330469237160e-04 4.4699321033901662e-04
447 7.4451111131568768e-04 -4.7606479965842346e-04 4.7723625237524253e-04
448 6.5786543396521542e-04 -4.7742719049975794e-04 5.8218591730209771e-04
449 8.2197362566899517e-04 -4.6772225176564658e-04 3.5081540383670120e-04
450 8.9150374960261455e-04 -3.5351320655277501e-04 3.1548016482432106e-04
451 6.4688237240563150e-04 -5.8813616948518322e-04 4.9403283921222254e-04
452 6.9550040412528244e-04 1.3059948600808438e-04 6.9837299323227047e-04
453 -5.6886273927079535e-04 -8.2459011565644768e-04 1.4369853224561918e-04
454 2.5730259386141597e-05 -4.3305941632028344e-04 -8.8027044999560030e-04
455 9.2034374307040296e-04 3.9942883798731990e-04 1.3760093885800771e-04
456 4.8158848038651830e-04 -2.3343240941157655e-04 -8.2701071436270667e-04
457 5.2319647314067732e-04 5.4114185513641109e-04 -6.5124516012586683e-04
458 6.0910952138590953e-04 -2.4935289289877965e-04 7.4136819115954377e-04
459 1.2859853866908973e-04 9.7792792728284834e-04 2.2185474865230758e-04
460 6.4714962642440114e-04 6.8792186544194573e-04 3.5307289536786423e-04
461 4.0424981970539115e-04 5.6547937611879000e-04 -7.0776227713544189e-04
462 -4.3339708834145229e-04 7.0808662885547900e-04 5.5812686487220124e-04
463 7.7801643862674688e-04 -1.3406066322994229e-04 -6.1149252868224983e-04
464 8.7256968760464327e-04 -2.5845464472210630e-04 -4.2928431332786478e-04
465 8.7112787189190814e-04 -3.7275360249973855e-04 -3.4715820255987764e-04
466 1.0335039415239334e-05 8.3251664116560330e-04 -5.5388614544599538e-04
467 9.3046395390138732e-04 -2.4603726802793904e-04 -3.0542150607763759e-04
468 9.2646218111863893e-04 -3.5122018259599769e-04 -2.0861635059328713e-04
469 1.5059913591840781e-04 3.8925044520120479e-04 -8.8671523757509376e-04
470 8.7638642905401513e-04 -4.5859386108538483e-04 2.1352705016347822e-04
471 9.3747350020584536e-04 -3.3702598156741287e-04 1.7808531878261421e-04
472 2.0387108997656548e-04 7.7516732236681900e-04 5.9602968575551063e-04
473 1.3941396325963028e-04 -2.4457374656206368e-04 -9.3502861964289653e-04
474 2.2376823041797794e-04 -9.0596734241512808e-04 -3.8096927649692192e-04
475 5.8211306810718340e-04 7.7729132639512907e-04 -2.7644082445243100e-04
476 3.2768003749695363e-04 7.1517378911850800e-04 6.1369053824102322e-04
477 3.0500538383587645e-04 7.3729591652119000e-04 -6.0022628628189710e-04
478 -2.0357936341964722e-04 -5.6509098392826587e-04 -7.8403762062532599e-04
479 -1.8074778218771318e-04 -6.7674043810627684e-04 -7.0419232592623920e-04
480 -3.9426438864607031e-04 8.3293560023389138e-04 -4.0419685872734428e-04
481 2.0888326476984790e-04 6.8237504494444968e-04 -6.9071809125493796e-04
482 7.8780857106911472e-04 -5.8555846993291465e-04 2.4749282573830193e-04
483 9.1475385214052701e-04 -4.2936335745187327e-04 7.3612133342992192e-05
484 9.6307947825322331e-04 -3.1240256143156572e-04 3.9807040732876931e-05
485 5.9138957137188611e-04 -2.5164067167397905e-04 -7.5317089789507757e-04
486 4.2035649368531424e-04 1.6259056032843458e-04 -8.7154181433085707e-04
487 1.0021627780410494e-03 1.3146688561005022e-04 -7.2885878509338671e-05
488 9.6832983267014386e-04 2.7292765722232161e-04 -1.2145240893736332e-04
489 9.8518937465673579e-04 2.3463540168787661e-04 9.0453633737056732e-06
490 9.1511327419942451e-04 4.2310086252399405e-04 -9.7846279489642162e-05
491 3.5156512709637577e-04 9.4944615019885092e-04 3.1224619803040893e-05
492 3.0911859515938368e-04 9.5679780694056873e-04 -1.2132352197262233e-04
493 4.4904050771943480e-04 9.0545097581180639e-04 -6.1025741963901491e-05
494 9.3389420603427634e-04 -3.8789334438564163e-04 -6.2996679167250154e-05
495 9.7121914019956609e-04 -2.7382500134828021e-04 -8.8839792510717622e-05
496 -3.9622565234903210e-04 9.3202898461757226e-04 6.5321884189497908e-06
497 1.0020298199974031e-03 1.2915672553634087e-04 7.5436190622239104e-05
498 6.9373763073707286e-04 6.8497699923371737e-04 -2.6409094979043654e-04
499 1.0015447915370165e-03 -1.3131425591393303e-04 -8.6037970023285644e-05
500 9.8186318124513037e-04 -1.1488125695847578e-04 2.1583306217818742e-04
501 9.2978075597900396e-04 -1.2743457050620085e-04 -3.6818304201968288e-04
502 8.7057885970221827e-04 1.2753804871514372e-04 -4.8366127981888679e-04
503 8.7166712299284769e-04 -1.2226877414415582e-04 4.8382837310510216e-04
504 4.5521766803585667e-04 1.2093399147389835e-04 8.6223224190930053e-04
505 4.3515588974387390e-04 3.3758974238115152e-04 8.1764968469516541e-04
506 6.4948203134969362e-04 -3.6718004718944581e-04 6.5964364508744333e-04
507 3.1831812466039463e-04 -1.0653769980514844e-04 9.1907225806027427e-04
508 6.2769029759082820e-05 -1.2862791309774504e-04 9.6431644542533160e-04
509 1.4804302656150551e-04 -2.3850341971108646e-04 9.3557022231376542e-04
510 2.5793970852678162e-04 -2.0964180284705389e-04 9.1932512441460798e-04
511 -2.0874696330179079e-04 6.8333519727810529e-04 -6.8969701010005704e-04
512 2.8338706760499746e-04 9.3441821359720753e-04 2.5982373069036695e-04
513 5.9124757787698491e-04 -8.2276374396895796e-04 -3.9242726047528815e-05
514 2.6537583791874674e-04 -9.7695329789220832e-04 4.2654168605482930e-05
515 3.0814981949068171e-04 -9.4756685690566790e-04 1.7772925166147029e-04
516 -5.4759199893323035e-04 5.6094801726193290e-04 -6.1649018093667724e-04
517 7.7637905001017667e-04 -5.8562374179903438e-04 -2.7611220215872099e-04
518 -1.4875063943140684e-04 -9.9988648486589392e-04 -6.6018289585054887e-05
519 -2.9479119383444570e-04 -9.6695132087641189e-04 -7.3953018051123382e-05
520 -3.3628394335535796e-04 -9.2751501669368296e-04 -2.2415311186130092e-04
521 -7.8949802369416785e-04 5.3749479554600918e-04 -3.2462093521233224e-04
522 -9.9751684342985411e-04 9.6093602056571484e-05 -1.4237339253201373e-04
523 8.0790538503801648e-04 5.9528471845526703e-04 1.3365078975604715e-04
524 -8.0176885872348686e-04 -5.5211344888111231e-04 2.7115663274384082e-04
525 7.8813246934039672e-04 5.1310570902352145e-04 3.6268464506948687e-04
526 4.8059338488084288e-04 -7.8685984608121550e-04 -4.0553954627618689e-04
527 -9.6330525521118229e-04 -2.8596922302762730e-04 -1.2237019775097833e-04
528 -9.4705560045271189e-04 -8.4071796794462280e-05 3.3681913341297411e-04
529 -9.2102103159291226e-04 4.0751729673720544e-05 4.0382123840481364e-04
530 -8.4493757398436983e-04 4.9688586247175285e-05 5.3604153105705457e-04
531 -7.8582616095006013e-04 -6.3047048522109719e-04 -1.0564716368933121e-04
532 -9.8899401317709698e-04 -7.4789511315850776e-05 1.9861577250378571e-04
533 -7.4827531481271351e-04 5.2839026286253296e-04 4.1559668867671869e-04
534 -7.0642740994129741e-04 7.2528677282093909e-04 -1.1479332979479237e-05
535 -2.3860447468697688e-04 -9.2260630841250817e-04 -3.3183940505370814e-04
536 6.4502993466994591e-04 7.6449160901142404e-04 -1.5310902976019730e-04
537 -1.4100629815420808e-04 -8.9765848632786943e-04 4.3214411118865770e-04
538 -5.6585458511261214e-05 1.0051002217170474e-03 -1.0474815397550632e-04
539 -1.7673088598792175e-04 9.5535745400646967e-04 -2.7379803099548646e-04
540 5.3038683366222011e-05 9.8824268053825820e-04 -2.0926082127762892e-04
541 -9.4975654042958959e-04 2.8158211823733448e-04 2.0413483682690646e-04
542 -8.8205132466467970e-04 -4.4276078671635428e-04 2.2117456160919050e-04
543 -8.0432134670869700e-04 -8.5476056449209110e-05 5.8699021494899558e-04
544 -7.5583561552471405e-04 2.8838874764319473e-05 6.4816306689261395e-04
545 -6.6528150196531772e-04 -5.2567242737574214e-04 -5.3338311908304834e-04
546 -7.5273049933585485e-04 -4.2335563301503312e-04 -5.0966412808366591e-04
547 -7.5359720450074268e-04 -3.0104246515300754e-04 -5.8350161316426518e-04
548 -6.6103461511506740e-04 -2.7962760231780252e-04 -6.8761934151167375e-04
549 2.6681401277504918e-04 -8.0719475244953433e-04 5.3081988732119230e-04
550 5.8429015306566995e-04 5.9698118358783548e-04 5.4994926643827725e-04
551 8.8643751235457327e-04 3.5932814923068820e-04 -3.2193228819568561e-04
552 8.8965435000004851e-04 -2.4254723791906712e-04 4.0511079719588935e-04
553 1.6288374148432105e-04 -7.6621302003420614e-04 6.1854131528031998e-04
554 -4.5021838393897648e-04 -6.3629834888879729e-04 6.2384903227087445e-04
555 -3.9487873403793843e-04 -5.5301265534236780e-04 7.2276867221363875e-04
556 -8.3194962371432402e-04 -4.4473010089583596e-04 3.5613565817597308e-04
557 -6.1755728404985278e-04 -7.1934771683255009e-04 -3.4316907095916036e-04
558 -7.2807437015136583e-04 2.3968727175426033e-04 6.3708228585623004e-04
559 -6.7404531449021920e-04 -4.3458630126351391e-04 5.9550472085527159e-04
560 -5.8170113950236713e-04 -5.4495302429658388e-04 6.0258345253886702e-04
561 6.4883253997997622e-04 4.8805725202179408e-04 -5.8298721976852617e-04
562 -3.2899619900221783e-04 -6.7133452961408750e-04 -6.5856600198679644e-04
563 -4.9140273492764191e-04 5.1790852990388745e-04 6.9097766167876501e-04
564 7.1287370121199704e-04 -4.9926002643278962e-04 -4.9968379341645006e-04
565 -9.3952156912985329e-05 -3.1739064436912725e-04 9.2039716433115469e-04
566 -1.1456638890438487e-04 -4.3462772797463303e-04 8.7276326800652955e-04
567 -2.2422584703767919e-04 -3.4558294166139631e-04 8.8962943075117601e-04
568 -1.7785712190658773e-04 -6.5566006095145305e-04 7.2307941498585932e-04
569 3.9919856122849762e-04 -6.8025320039378525e-04 -6.1218568587880558e-04
570 -7.1058469837969706e-04 -8.5986104115631182e-05 6.8950441618590005e-04
571 5.5783491933480099e-04 3.2147182082964865e-04 7.5182172163747933e-04
572 4.9591499440138499e-04 -3.5914573173623731e-04 -7.7615247370812004e-04
573 1.4510866334742820e-04 -3.5883483588969425e-04 9.0023757125059297e-04
574 -7.4123245184273031e-04 1.8978179522194987e-04 -6.3776156492973063e-04
575 1.6141949312262880e-04 -4.9645052209984833e-04 -8.3497911591592694e-04
576 -4.6258566074540094e-04 -4.2198085452292239e-04 7.6666462075997523e-04
577 -3.2681230143290923e-04 3.7850697991250555e-04 -8.4595001852135864e-04
578 -2.8057213798380248e-04 2.6430497716267031e-04 -8.9970121565047961e-04
579 -3.4486097598505130e-04 1.5139004731549969e-04 -9.0324216462328501e-04
580 -5.0102602771191068e-04 1.0174556766054924e-05 -8.4583043599451013e-04
581 4.5896802735236042e-04 -5.6540250068524880e-04 6.7869135624983674e-04
582 4.8674219301927366e-04 -3.0989444805729115e-04 8.0077345185117308e-04
583 -4.5787191094253695e-04 1.3673436599255653e-04 -8.5786151736821957e-04
584 -4.2709955602300348e-04 1.9910526461625660e-04 8.6174768016390941e-04
585 -4.6970564705302900e-04 6.9884105739564982e-05 8.6006082807406131e-04
586 -3.4971155854770402e-04 -4.3113360917230477e-04 -8.1467130480893546e-04
587 1.3757464769615149e-05 9.5992494776451023e-04 3.1093671128407628e-04
588 -4.1576821599057418e-04 -8.6796663691378101e-05 -8.8364142201169079e-04
589 -3.0025130900008981e-04 -5.3042472840675127e-05 -9.2789532477635564e-04
590 -1.9741506640636738e-04 -1.3821225995286584e-04 -9.4528079797991463e-04
591 -1.7249297808717392e-04 4.5654492141958779e-04 8.5343621324029994e-04
592 -5.1229162929109884e-04 8.0423932026879683e-04 -3.2789268862226938e-04
593 -2.6550889570644843e-04 -3.0354347816812242e-06 9.3900253493996231e-04
594 3.8246147085057647e-04 2.3543214694420425e-04 8.7298134986230969e-04
595 -8.1769440403653513e-04 5.6324324103602789e-04 1.9246189309646001e-04
596 4.4049639044504844e-04 -8.8917929178689893e-04 1.9954235200505819e-04
597 9.5560044726685083e-05 4.6665166907378390e-04 8.5931068565094451e-04
598 3.3148162224512224e-04 9.1516011806020976e-04 -2.6828506604190187e-04
599 1.9163263471459155e-04 -6.6449209710352567e-04 7.1260296454213475e-04
600 -5.2580379771121743e-04 -8.1760453605042084e-04 2.7539928587558352e-04
601 -8.4684388163824625e-04 4.1021094573312630e-04 -3.6064043598080529e-04
602 -8.1230206868023824e-04 3.4263269148143954e-04 -4.7954985215358588e-04
603 -7.5247625786714807e-04 -5.3840468829809856e-04 -3.9836885214051269e-04
604 -9.1327056196474892e-04 1.4032063916769188e-04 -3.9896362946566260e-04
605 -4.1422365646181440e-04 -9.2424241886181896e-04 1.1059234730592685e-05
606 -3.3215402712878590e-04 8.5315694149424518e-04 4.1673745080402852e-04
607 3.2983799989318678e-05 1.3824545320999774e-04 9.6348173481306399e-04
608 -5.2671920463112466e-05 7.7724833462770654e-04 6.2237556956836555e-04
609 -7.4595935422580508e-04 -1.7813252130431521e-04 -6.3654738660152868e-04
610 9.6779078340438417e-04 2.6216844254715687e-04 1.4390120704159702e-04
611 4.5282098894403782e-04 -1.0974148160156090e-04 -8.6473239236151231e-04
612 9.3650171215748268e-04 1.2355096353404367e-04 3.5383376657025932e-04
613 -3.8086811407312809e-04 -8.6941080693738154e-04 -3.4241372323101367e-04
614 5.8364984510325008e-05 -7.9058883380734516e-04 -6.0797756371501217e-04
615 4.6874598599252001e-04 -8.9736596316447917e-04 -4.5055203638572139e-05
616 -6.9301768973573845e-04 -7.0815701157018953e-04 -2.0731261287548403e-04
617 -9.3978586133528494e-04 -2.6089486264790565e-04 -2.6260067984839957e-04
618 -6.2117182665064996e-04 4.4255728336181274e-04 -6.4038347737337251e-04
619 1.8275801561337045e-04 -9.6441236398176877e-04 -2.4563692942606620e-04
620 -3.5228207541062002e-05 -9.4734440840826568e-04 3.4523144857154107e-04
621 3.8470802429876850e-04 -7.7546530334682339e-04 -5.0736577387605673e-04
622 -2.4001389396202734e-04 -4.6255803112659887e-04 8.3499428774359884e-04
623 7.9400314438219603e-04 -4.9180546590710434e-04 -3.7963105146440306e-04
624 9.3566252964386260e-04 1.2752731874081453e-04 -3.5465386359743924e-04
625 -4.1460398146065259e-04 6.2425195386502043e-04 6.5534907655269003e-04
626 -2.7096705541604767e-04 -5.6798321606520738e-04 7.6351276383811639e-04
627 -1.0494309513908399e-04 5.6740791322381582e-04 8.0025745657601156e-04
628 4.9121100723973743e-04 8.8356877925398506e-04 6.4665173644252492e-05
629 -9.7023424461312245e-04 4.5605895069067822e-05 2.7632485606979463e-04
630 -6.0816263840886623e-04 7.8896835361696061e-04 1.7508774549566280e-04
631 -8.3070024411312443e-04 -2.0905222245410501e-04 -5.2046306542188696e-04
632 -4.0574163463185563e-04 8.8401398562230004e-04 -2.7074943885575326e-04
633 9.4029035720254379e-04 2.4838060485515129e-04 -2.7416465302252546e-04
634 -3.5126209015987661e-04 9.5922067701782271e-05 9.0849563150800989e-04
635 3.9714638969252193e-04 -9.2953060782522540e-04 6.9316456667206341e-05
636 -6.8476965598309535e-05 -9.8732573608939413e-04 2.0982451472217596e-04
637 -4.9845983900001121e-04 -5.3022861553861397e-05 8.4646965881398349e-04
638 4.5212461812317334e-04 2.6610448203305759e-04 -8.3202753508747904e-04
639 4.5244973643651252e-04 -1.1305579638395949e-04 8.6472718507135790e-04
640 -7.2352170974253108e-05 6.8375669542602025e-04 -7.1450116587748393e-04
641 -9.6677689591890702e-04 2.2666731786997373e-04 -1.9279093496322772e-04
642 -8.8364581684865194e-04 2.7868628615885399e-04 -3.9381255445523693e-04
643 2.9125055487026861e-04 -7.1725096082356590e-04 6.2908578608463070e-04
644 5.6230425121647765e-04 -4.7218901717902971e-04 6.7119849595223026e-04
645 6.1997434964768615e-04 2.4462118725390795e-04 -7.3321910750918679e-04
646 -2.2907677281549775e-04 1.1463713378396862e-04 9.4134902038690697e-04
647 1.9561289334119744e-05 5.6991692200493395e-04 8.0473063033662038e-04
648 -7.6070479058407971e-04 5.8793905802837756e-04 3.0399097901531513e-04
649 -2.7696861824267949e-04 9.7201500092943558e-04 6.6088559501033674e-05
650 9.4513528888244883e-04 -2.3390983800405178e-04 2.7092807323266568e-04
651 -4.8129084194812493e-04 -8.6331244241065442e-04 -2.1762179082638846e-04
652 -8.8026545122362734e-04 -3.5674422345285408e-04 -3.3820156032332951e-04
653 -2.2502913284905119e-04 1.4780344562033334e-04 -9.3810493726188544e-04
654 8.5554583605816159e-04 -4.7192367831139383e-04 -2.5981814487245739e-04
655 -7.2513575869037215e-04 4.0348916176674484e-04 -5.5811145825579889e-04
656 6.7997443631508331e-04 -1.3072588905597144e-04 -7.1166274334149855e-04
657 -7.4462385031583611e-04 -5.4522844879971108e-04 4.0220489007424979e-04
658 -3.8933489582007212e-04 3.8719224732552520e-05 -8.9746714797499249e-04
659 -1.8304419639316835e-04 7.1806642288204742e-06 -9.5768727685659910e-04
660 -6.3007135806783247e-05 3.6972804351549753e-05 -9.6972320447992629e-04
661 8.7810443910442556e-04 -5.0455523804311621e-04 -3.5589294899443225e-05
662 3.1378720081949224e-05 -2.7908310425819372e-04 9.3573334153589603e-04
663 5.2899847951395288e-04 8.4620720684913024e-04 -1.6491926961979602e-04
664 -2.9002709252724806e-04 9.6717529844552461e-04 -7.3870067826987539e-05
665 -2.9397127831244375e-04 9.4449918239976945e-04 -2.0796687650527550e-04
666 -1.0077507042400815e-04 1.4873950972523798e-04 -9.5851898745621630e-04
667 2.5846286836289921e-04 -8.3639111647907055e-04 -4.9138771526123439e-04
668 -5.8605554683507151e-04 4.8480660358584665e-05 7.9307663060682368e-04
669 -8.2852262381877392e-04 -3.2751174709138263e-04 -4.6399909759587630e-04
670 -5.0513632223765940e-04 8.7229613191445554e-04 9.2868489172750910e-05
671 -9.7508557296257744e-04 1.5531198685965505e-04 2.1391260894922958e-04
672 5.5950047004543703e-04 -3.6603563364230048e-04 7.3108691789185892e-04
673 -3.9266182841549118e-05 2.8787116727722867e-04 -9.3208189353791767e-04
674 -1.9706405727917153e-04 -9.7970643863842409e-04 1.6088160691636301e-04
675 4.2492278348114985e-04 7.3841337618233175e-04 5.2654373705876838e-04
676 8.0400772930154155e-05 7.4048527885344796e-04 6.5980242649836052e-04
677 5.0592435292703681e-04 2.2918931231601737e-04 8.1472569938937430e-04
678 -4.8959387827126829e-04 -7.8371380758715178e-04 3.9943144537209647e-04
679 3.2961714314703880e-04 -9.6434649842494057e-05 -9.1636717828635895e-04
680 4.0145367400262522e-04 -6.6242946081119906e-04 6.2809437601579570e-04
681 -8.8293110824175691e-04 1.4819562220712450e-04 4.5439677039410076e-04
682 -9.1264354764054401e-04 4.3678240472132224e-04 1.0851549661405670e-05
683 -9.2369017738220394e-05 -1.5789426059166813e-05 9.6868224400285157e-04
684 3.4362590850237415e-04 -9.5105905102996311e-04 -6.0194258314927452e-05
685 4.1739583256424160e-04 9.0298364811747397e-04 -1.7860671143570409e-04
686 1.7571291653002900e-04 -8.0119139890249484e-04 -5.7196499148799360e-04
687 1.7131220178191010e-04 9.8821053164116642e-04 -1.3121953628681183e-04
688 -8.1643583113989347e-04 -4.2876156502596389e-04 -4.0195753751019834e-04
689 -5.3897375120602587e-04 -6.4318946250238303e-04 5.4443876939232487e-04
690 5.9001962130537607e-04 -6.8260030774295948e-04 4.4290810564566767e-04
691 9.7892955636948078e-04 -2.2159825985972845e-04 1.3435065045458086e-04
692 -6.8295094359578613e-04 -5.2392581548671077e-04 5.1285628771801587e-04
693 9.4620552197088317e-04 2.2273236895645641e-04 2.7358874255174775e-04
694 -1.8111182009624479e-04 9.8375294018482025e-04 -1.4964027940896776e-04
695 9.2357174703774816e-04 3.5506326405828633e-04 -2.0695999395824754e-04
696 -4.9735198325463458e-05 6.8279263863511104e-04 7.1824257840819527e-04
697 -3.4642979237096890e-04 -4.7865340796826724e-04 7.9026009624165732e-04
698 9.4874652155672770e-04 3.5669696487771363e-04 1.6822186017154418e-05
699 -4.9696648584294763e-04 -5.1903445950818295e-04 6.8629345343401043e-04
700 -6.7400394229789635e-04 1.7225392660041006e-05 7.2603339350302471e-04
701 5.7038055380643539e-04 -5.5928321595442323e-04 5.9906170495182566e-04
702 -7.0340869257827889e-04 -6.4260440009942111e-04 -3.2989718560065556e-04
703 -7.6704417849647317e-04 2.8604859527731307e-04 -5.7238590305604240e-04
704 2.9964992763005839e-05 3.9840183350439175e-04 -8.9415224459609267e-04
705 3.2886105345905891e-04 6.4893132757548599e-04 -6.7640295718452142e-04
706 -3.3017354902212232e-04 7.0393231342701828e-04 6.2297212299576099e-04
707 1.1211956071647790e-04 -9.3396557388107388e-04 -3.6205858735535739e-04
708 -6.8787519980515431e-04 7.3389932327200442e-04 1.0706561802333357e-04
709 1.1859886835760400e-05 7.5956804275349797e-04 -6.4267140359715509e-04
710 -4.1928585276555607e-04 7.8098651232265523e-04 4.7000534611672730e-04
711 -9.3504928007557273e-04 2.2013064447919998e-04 -3.0660406487302403e-04
712 7.9065871731495165e-04 1.0038887937332144e-04 6.0126486841885843e-04
713 -2.1537370482354039e-04 -7.4844994345302555e-04 -6.2287360425494266e-04
714 6.5576201837641980e-04 3.5653833762788208e-04 -6.5824249351267947e-04
715 -2.1696468941441688e-04 -9.8838401964033290e-04 3.2736324272205319e-05
716 -2.9633898374642985e-04 5.9904514897505744e-05 -9.2789092492256812e-04
717 -4.0824112474405672e-04 -9.1834313675610249e-04 -1.1871081089564147e-04
718 5.0670834708301535e-04 -2.0601978492773757e-04 8.1928857083521779e-04
719 7.4331970239809757e-04 -5.5586242999066684e-04 3.9036112940660114e-04
720 8.6478471328276592e-04 5.0188318814589031e-04 1.5190231113515311e-04
721 2.6073694020510178e-04 -1.9542612825369007e-04 -9.2129676494282788e-04
722 -5.8551525866132402e-04 -7.8377667332497425e-04 -2.5137201320979413e-04
723 3.1206094922636218e-05 9.4803365107946203e-05 -9.6847213953462252e-04
724 -1.9746103317800560e-04 7.2705235288379137e-04 6.5189075974017075e-04
725 8.9231662984790895e-04 -4.5322884465635757e-04 -1.4983228590224738e-04
726 6.0833958499043040e-04 2.1730415114466683e-04 7.4971884202509995e-04
727 8.0434555002116689e-04 5.5798190868930613e-04 2.4996891204440716e-04
728 5.6418350450687139e-04 5.9977351335656760e-04 -5.6620425195243694e-04
729 4.8997209254314077e-04 1.1001476969181558e-04 -8.4445259615572904e-04
730 7.3029623297590231e-04 6.0318833507939809e-04 3.4355003642393513e-04
731 -2.6701914018884503e-04 -6.1634431201395060e-04 -7.2723834561897545e-04
732 3.4222351962382775e-04 6.2991985545752366e-04 6.8768518277482788e-04
733 -8.0460701287474501e-05 9.8364415196054646e-04 -2.1392720264333236e-04
734 -2.5042437686558525e-04 -4.8387914232703177e-04 -8.2034222748937245e-04
735 9.6726938911864354e-04 -2.2667909584332211e-04 -1.8883190124883964e-04
736 9.9057071933436060e-04 -2.0902975980036540e-04 8.2300446053812587e-06
737 -3.7756959357372232e-05 -9.6495713636717703e-05 9.6750381004732174e-04
738 -5.1074044757544815e-04 -8.7204350921834780e-04 5.4598897874543298e-05
739 5.2325124509173377e-04 2.1298170217560301e-04 -8.0798568855025446e-04
740 -7.7101327696165150e-04 1.3075693822860971e-04 6.1787554717009779e-04
741 -1.7428143745864831e-04 2.4211098288663083e-05 9.5800336125298295e-04
742 -5.5297219077502023e-04 -6.9850170419949117e-04 4.6204122070080919e-04
743 -1.7083164976584462e-05 4.8807446248183654e-04 -8.5110806412384767e-04
744 2.9059819991772168e-04 -9.5260665710779617e-04 -1.7569463496450223e-04
745 -6.9477326584619441e-05 -6.9008956789129623e-04 -7.0837792343301348e-04
$EndNodes
$Elements
1486
1 2 2 0 0 410 440 345
2 2 2 0 0 421 541 409
3 2 2 0 0 409 682 421
4 2 2 0 0 545 603 546
5 2 2 0 0 426 427 294
6 2 2 0 0 294 454 426
7 2 2 0 0 265 682 409
8 2 2 0 0 24 41 4
9 2 2 0 0 3 24 4
10 2 2 0 0 238 642 602
11 2 2 0 0 520 651 613
12 2 2 0 0 653 666 659
13 2 2 0 0 404 460 98
14 2 2 0 0 222 482 219
15 2 2 0 0 40 463 9
16 2 2 0 0 608 724 696
17 2 2 0 0 435 709 69
18 2 2 0 0 413 439 29
19 2 2 0 0 345 710 410
20 2 2 0 0 422 463 40
21 2 2 0 0 98 550 404
22 2 2 0 0 95 724 608
23 2 2 0 0 4 41 5
24 2 2 0 0 232 701 581
25 2 2 0 0 490 698 488
26 2 2 0 0 29 436 413
27 2 2 0 0 416 421 342
28 2 2 0 0 312 595 441
29 2 2 0 0 41 486 5
30 2 2 0 0 405 605 519
31 2 2 0 0 409 595 265
32 2 2 0 0 69 481 435
33 2 2 0 0 434 743 339
34 2 2 0 0 342 641 416
35 2 2 0 0 485 656 370
36 2 2 0 0 89 587 90
37 2 2 0 0 108 466 317
38 2 2 0 0 378 629 529
39 2 2 0 0 581 680 232
40 2 2 0 0 281 434 339
41 2 2 0 0 638 739 486
42 2 2 0 0 659 666 660
43 2 2 0 0 345 440 346
44 2 2 0 0 22 44 25
45 2 2 0 0 9 463 8
46 2 2 0 0 44 81 25
47 2 2 0 0 459 587 89
48 2 2 0 0 127 670 630
49 2 2 0 0 508 662 509
50 2 2 0 0 375 662 508
51 2 2 0 0 492 598 103
52 2 2 0 0 604 642 238
53 2 2 0 0 507 510 399
54 2 2 0 0 488 698 489
55 2 2 0 0 34 473 415
56 2 2 0 0 399 639 507
57 2 2 0 0 603 688 546
58 2 2 0 0 316 541 421
59 2 2 0 0 647 696 627
60 2 2 0 0 403 439 352
61 2 2 0 0 221 603 545
62 2 2 0 0 595 648 441
63 2 2 0 0 412 550 98
64 2 2 0 0 411 714 397
65 2 2 0 0 486 739 729
66 2 2 0 0 696 724 401
67 2 2 0 0 247 482 222
68 2 2 0 0 397 714 645
69 2 2 0 0 613 651 212
70 2 2 0 0 207 745 425
71 2 2 0 0 98 675 412
72 2 2 0 0 219 482 230
73 2 2 0 0 560 692 432
74 2 2 0 0 432 689 560
75 2 2 0 0 454 575 426
76 2 2 0 0 352 439 413
77 2 2 0 0 415 420 2
78 2 2 0 0 40 464 422
79 2 2 0 0 89 512 459
80 2 2 0 0 425 614 207
81 2 2 0 0 377 600 453
82 2 2 0 0 89 90 88
83 2 2 0 0 80 466 108
84 2 2 0 0 520 717 651
85 2 2 0 0 602 703 238
86 2 2 0 0 103 687 492
87 2 2 0 0 253 491 424
88 2 2 0 0 69 709 466
89 2 2 0 0 424 512 253
90 2 2 0 0 369 696 647
91 2 2 0 0 581 701 644
92 2 2 0 0 630 670 392
93 2 2 0 0 32 656 485
94 2 2 0 0 459 512 424
95 2 2 0 0 90 91 88
96 2 2 0 0 427 478 294
97 2 2 0 0 488 695 490
98 2 2 0 0 554 699 560
99 2 2 0 0 67 80 79
100 2 2 0 0 252 454 294
101 2 2 0 0 253 628 491
102 2 2 0 0 529 681 378
103 2 2 0 0 519 715 405
104 2 2 0 0 440 441 346
105 2 2 0 0 605 717 519
106 2 2 0 0 403 452 439
107 2 2 0 0 507 639 21
108 2 2 0 0 565 567 566
109 2 2 0 0 433 454 341
110 2 2 0 0 67 466 80
111 2 2 0 0 555 697 576
112 2 2 0 0 491 628 493
113 2 2 0 0 389 641 342
114 2 2 0 0 429 619 474
115 2 2 0 0 40 501 464
116 2 2 0 0 576 699 555
117 2 2 0 0 311 600 377
118 2 2 0 0 567 622 566
119 2 2 0 0 433 575 454
120 2 2 0 0 378 671 629
121 2 2 0 0 79 540 103
122 2 2 0 0 341 473 433
123 2 2 0 0 673 704 68
124 2 2 0 0 462 710 345
125 2 2 0 0 557 722 616
126 2 2 0 0 573 662 343
127 2 2 0 0 370 656 463
128 2 2 0 0 341 454 252
129 2 2 0 0 616 702 557
130 2 2 0 0 6 26 7
131 2 2 0 0 464 501 467
132 2 2 0 0 433 473 406
133 2 2 0 0 8 45 37
134 2 2 0 0 466 709 317
135 2 2 0 0 457 461 379
136 2 2 0 0 84 512 86
137 2 2 0 0 19 452 33
138 2 2 0 0 380 614 425
139 2 2 0 0 83 540 79
140 2 2 0 0 398 510 509
141 2 2 0 0 609 631 137
142 2 2 0 0 18 442 36
143 2 2 0 0 26 45 7
144 2 2 0 0 565 566 343
145 2 2 0 0 80 83 79
146 2 2 0 0 560 689 554
147 2 2 0 0 134 137 136
148 2 2 0 0 68 469 42
149 2 2 0 0 659 716 653
150 2 2 0 0 619 707 474
151 2 2 0 0 497 610 39
152 2 2 0 0 137 138 136
153 2 2 0 0 283 573 343
154 2 2 0 0 506 644 448
155 2 2 0 0 499 735 31
156 2 2 0 0 81 97 25
157 2 2 0 0 45 46 37
158 2 2 0 0 585 668 637
159 2 2 0 0 495 735 499
160 2 2 0 0 399 510 398
161 2 2 0 0 509 573 398
162 2 2 0 0 442 443 36
163 2 2 0 0 1 607 314
164 2 2 0 0 29 612 436
165 2 2 0 0 547 631 609
166 2 2 0 0 360 595 409
167 2 2 0 0 421 682 342
168 2 2 0 0 426 575 327
169 2 2 0 0 123 577 235
170 2 2 0 0 339 743 417
171 2 2 0 0 7 45 8
172 2 2 0 0 3 723 24
173 2 2 0 0 418 666 653
174 2 2 0 0 59 60 58
175 2 2 0 0 620 636 193
176 2 2 0 0 42 469 47
177 2 2 0 0 65 67 66
178 2 2 0 0 509 662 573
179 2 2 0 0 470 482 247
180 2 2 0 0 368 476 472
181 2 2 0 0 530 740 337
182 2 2 0 0 253 512 84
183 2 2 0 0 455 698 282
184 2 2 0 0 61 65 62
185 2 2 0 0 59 61 60
186 2 2 0 0 91 472 88
187 2 2 0 0 90 92 91
188 2 2 0 0 19 442 18
189 2 2 0 0 464 465 423
190 2 2 0 0 706 724 118
191 2 2 0 0 456 611 32
192 2 2 0 0 379 477 61
193 2 2 0 0 417 743 704
194 2 2 0 0 314 683 1
195 2 2 0 0 442 458 443
196 2 2 0 0 11 28 12
197 2 2 0 0 61 62 60
198 2 2 0 0 118 724 95
199 2 2 0 0 22 25 23
200 2 2 0 0 247 483 470
201 2 2 0 0 281 640 434
202 2 2 0 0 197 667 474
203 2 2 0 0 86 512 89
204 2 2 0 0 417 704 673
205 2 2 0 0 451 690 230
206 2 2 0 0 27 442 19
207 2 2 0 0 637 668 229
208 2 2 0 0 60 475 58
209 2 2 0 0 489 610 497
210 2 2 0 0 307 573 283
211 2 2 0 0 61 477 65
212 2 2 0 0 65 66 62
213 2 2 0 0 544 740 530
214 2 2 0 0 230 719 451
215 2 2 0 0 18 452 19
216 2 2 0 0 268 569 269
217 2 2 0 0 32 485 456
218 2 2 0 0 627 696 401
219 2 2 0 0 24 42 41
220 2 2 0 0 20 27 19
221 2 2 0 0 330 461 457
222 2 2 0 0 506 672 644
223 2 2 0 0 472 476 87
224 2 2 0 0 468 495 494
225 2 2 0 0 88 472 87
226 2 2 0 0 121 577 123
227 2 2 0 0 327 575 276
228 2 2 0 0 422 464 423
229 2 2 0 0 47 63 49
230 2 2 0 0 458 506 443
231 2 2 0 0 232 690 451
232 2 2 0 0 28 487 12
233 2 2 0 0 80 107 83
234 2 2 0 0 608 696 676
235 2 2 0 0 356 481 355
236 2 2 0 0 138 238 136
237 2 2 0 0 137 139 138
238 2 2 0 0 729 739 26
239 2 2 0 0 81 99 97
240 2 2 0 0 46 50 37
241 2 2 0 0 463 656 8
242 2 2 0 0 443 444 36
243 2 2 0 0 68 704 469
244 2 2 0 0 24 68 42
245 2 2 0 0 16 503 30
246 2 2 0 0 65 69 67
247 2 2 0 0 67 79 66
248 2 2 0 0 676 696 369
249 2 2 0 0 59 379 61
250 2 2 0 0 90 93 92
251 2 2 0 0 464 467 465
252 2 2 0 0 441 708 312
253 2 2 0 0 483 484 471
254 2 2 0 0 427 479 478
255 2 2 0 0 245 564 244
256 2 2 0 0 470 483 471
257 2 2 0 0 473 721 406
258 2 2 0 0 555 699 554
259 2 2 0 0 47 469 63
260 2 2 0 0 63 355 49
261 2 2 0 0 62 64 60
262 2 2 0 0 80 108 107
263 2 2 0 0 107 539 83
264 2 2 0 0 139 140 138
265 2 2 0 0 99 100 97
266 2 2 0 0 81 236 99
267 2 2 0 0 46 51 50
268 2 2 0 0 443 445 444
269 2 2 0 0 24 419 68
270 2 2 0 0 69 466 67
271 2 2 0 0 79 103 66
272 2 2 0 0 65 477 69
273 2 2 0 0 547 548 321
274 2 2 0 0 93 94 92
275 2 2 0 0 467 468 465
276 2 2 0 0 333 664 649
277 2 2 0 0 55 498 56
278 2 2 0 0 56 498 72
279 2 2 0 0 12 499 31
280 2 2 0 0 63 356 355
281 2 2 0 0 108 110 107
282 2 2 0 0 139 141 140
283 2 2 0 0 100 101 97
284 2 2 0 0 236 248 99
285 2 2 0 0 81 594 236
286 2 2 0 0 51 52 50
287 2 2 0 0 192 515 195
288 2 2 0 0 445 446 444
289 2 2 0 0 477 481 69
290 2 2 0 0 94 95 92
291 2 2 0 0 93 96 94
292 2 2 0 0 63 408 356
293 2 2 0 0 108 111 110
294 2 2 0 0 110 117 107
295 2 2 0 0 139 154 141
296 2 2 0 0 141 142 140
297 2 2 0 0 51 53 52
298 2 2 0 0 100 102 101
299 2 2 0 0 236 250 248
300 2 2 0 0 445 447 446
301 2 2 0 0 52 388 50
302 2 2 0 0 277 622 567
303 2 2 0 0 95 608 92
304 2 2 0 0 94 118 95
305 2 2 0 0 93 104 96
306 2 2 0 0 51 561 53
307 2 2 0 0 408 434 356
308 2 2 0 0 53 54 52
309 2 2 0 0 445 448 447
310 2 2 0 0 108 317 111
311 2 2 0 0 141 143 142
312 2 2 0 0 142 225 140
313 2 2 0 0 102 166 101
314 2 2 0 0 250 325 248
315 2 2 0 0 100 258 102
316 2 2 0 0 53 55 54
317 2 2 0 0 447 449 446
318 2 2 0 0 236 505 250
319 2 2 0 0 104 105 96
320 2 2 0 0 53 57 55
321 2 2 0 0 55 56 54
322 2 2 0 0 448 451 447
323 2 2 0 0 14 39 15
324 2 2 0 0 317 511 111
325 2 2 0 0 10 40 9
326 2 2 0 0 143 144 142
327 2 2 0 0 57 58 55
328 2 2 0 0 8 37 9
329 2 2 0 0 14 38 13
330 2 2 0 0 166 314 101
331 2 2 0 0 18 36 17
332 2 2 0 0 16 29 17
333 2 2 0 0 33 504 20
334 2 2 0 0 325 365 248
335 2 2 0 0 199 202 196
336 2 2 0 0 7 32 6
337 2 2 0 0 434 435 356
338 2 2 0 0 74 75 73
339 2 2 0 0 223 239 234
340 2 2 0 0 74 76 75
341 2 2 0 0 72 74 73
342 2 2 0 0 231 549 201
343 2 2 0 0 202 205 204
344 2 2 0 0 226 227 214
345 2 2 0 0 272 275 271
346 2 2 0 0 276 318 275
347 2 2 0 0 213 214 209
348 2 2 0 0 76 77 75
349 2 2 0 0 210 231 201
350 2 2 0 0 16 30 15
351 2 2 0 0 205 209 208
352 2 2 0 0 202 204 196
353 2 2 0 0 318 406 340
354 2 2 0 0 195 196 193
355 2 2 0 0 322 420 415
356 2 2 0 0 239 240 234
357 2 2 0 0 163 588 168
358 2 2 0 0 12 31 11
359 2 2 0 0 56 72 71
360 2 2 0 0 425 426 327
361 2 2 0 0 19 33 20
362 2 2 0 0 168 224 215
363 2 2 0 0 209 568 216
364 2 2 0 0 318 433 406
365 2 2 0 0 269 271 270
366 2 2 0 0 268 269 245
367 2 2 0 0 21 639 20
368 2 2 0 0 84 85 82
369 2 2 0 0 181 207 183
370 2 2 0 0 269 272 271
371 2 2 0 0 272 276 275
372 2 2 0 0 242 243 240
373 2 2 0 0 102 167 166
374 2 2 0 0 223 234 233
375 2 2 0 0 283 343 227
376 2 2 0 0 205 208 204
377 2 2 0 0 213 226 214
378 2 2 0 0 271 572 347
379 2 2 0 0 243 268 245
380 2 2 0 0 335 398 307
381 2 2 0 0 303 555 554
382 2 2 0 0 226 283 227
383 2 2 0 0 347 485 370
384 2 2 0 0 195 199 196
385 2 2 0 0 205 213 209
386 2 2 0 0 246 322 252
387 2 2 0 0 76 78 77
388 2 2 0 0 133 163 135
389 2 2 0 0 163 168 164
390 2 2 0 0 322 415 341
391 2 2 0 0 227 361 214
392 2 2 0 0 191 198 189
393 2 2 0 0 78 84 82
394 2 2 0 0 209 216 208
395 2 2 0 0 78 82 77
396 2 2 0 0 216 303 266
397 2 2 0 0 417 418 362
398 2 2 0 0 314 607 101
399 2 2 0 0 339 362 280
400 2 2 0 0 243 245 244
401 2 2 0 0 187 291 185
402 2 2 0 0 429 430 359
403 2 2 0 0 143 145 144
404 2 2 0 0 202 553 205
405 2 2 0 0 339 417 362
406 2 2 0 0 131 580 133
407 2 2 0 0 239 242 240
408 2 2 0 0 57 59 58
409 2 2 0 0 224 246 215
410 2 2 0 0 84 86 85
411 2 2 0 0 303 554 266
412 2 2 0 0 72 73 71
413 2 2 0 0 437 438 414
414 2 2 0 0 318 340 275
415 2 2 0 0 269 270 245
416 2 2 0 0 86 87 85
417 2 2 0 0 192 193 191
418 2 2 0 0 123 235 129
419 2 2 0 0 263 374 262
420 2 2 0 0 425 427 426
421 2 2 0 0 149 150 147
422 2 2 0 0 210 232 231
423 2 2 0 0 74 373 76
424 2 2 0 0 168 215 169
425 2 2 0 0 259 262 249
426 2 2 0 0 145 146 144
427 2 2 0 0 367 524 289
428 2 2 0 0 271 347 270
429 2 2 0 0 406 407 340
430 2 2 0 0 334 459 424
431 2 2 0 0 429 474 430
432 2 2 0 0 250 328 325
433 2 2 0 0 431 432 367
434 2 2 0 0 104 278 105
435 2 2 0 0 145 147 146
436 2 2 0 0 151 152 150
437 2 2 0 0 235 583 129
438 2 2 0 0 237 249 228
439 2 2 0 0 149 151 150
440 2 2 0 0 159 161 158
441 2 2 0 0 153 155 152
442 2 2 0 0 156 158 155
443 2 2 0 0 354 367 289
444 2 2 0 0 259 263 262
445 2 2 0 0 190 191 189
446 2 2 0 0 177 221 174
447 2 2 0 0 162 228 161
448 2 2 0 0 124 516 386
449 2 2 0 0 418 653 578
450 2 2 0 0 371 584 295
451 2 2 0 0 151 153 152
452 2 2 0 0 153 156 155
453 2 2 0 0 159 162 161
454 2 2 0 0 374 593 262
455 2 2 0 0 156 159 158
456 2 2 0 0 237 259 249
457 2 2 0 0 146 284 160
458 2 2 0 0 266 309 267
459 2 2 0 0 264 265 257
460 2 2 0 0 86 88 87
461 2 2 0 0 265 312 257
462 2 2 0 0 162 237 228
463 2 2 0 0 21 44 22
464 2 2 0 0 324 392 390
465 2 2 0 0 371 585 584
466 2 2 0 0 262 366 249
467 2 2 0 0 192 195 193
468 2 2 0 0 263 375 374
469 2 2 0 0 216 266 217
470 2 2 0 0 326 327 276
471 2 2 0 0 260 646 166
472 2 2 0 0 220 223 222
473 2 2 0 0 322 341 252
474 2 2 0 0 256 257 255
475 2 2 0 0 78 253 84
476 2 2 0 0 358 359 242
477 2 2 0 0 188 189 187
478 2 2 0 0 281 339 280
479 2 2 0 0 146 160 144
480 2 2 0 0 123 129 128
481 2 2 0 0 255 324 254
482 2 2 0 0 228 229 161
483 2 2 0 0 354 431 367
484 2 2 0 0 163 164 135
485 2 2 0 0 155 157 152
486 2 2 0 0 243 244 240
487 2 2 0 0 256 264 257
488 2 2 0 0 284 316 160
489 2 2 0 0 380 425 327
490 2 2 0 0 148 149 147
491 2 2 0 0 335 399 398
492 2 2 0 0 418 578 362
493 2 2 0 0 334 424 396
494 2 2 0 0 167 260 166
495 2 2 0 0 325 368 365
496 2 2 0 0 428 429 359
497 2 2 0 0 165 255 254
498 2 2 0 0 297 342 264
499 2 2 0 0 298 371 295
500 2 2 0 0 218 323 220
501 2 2 0 0 310 337 302
502 2 2 0 0 165 256 255
503 2 2 0 0 186 187 185
504 2 2 0 0 56 71 70
505 2 2 0 0 165 254 125
506 2 2 0 0 200 201 199
507 2 2 0 0 148 206 149
508 2 2 0 0 324 390 364
509 2 2 0 0 190 192 191
510 2 2 0 0 368 369 365
511 2 2 0 0 353 404 351
512 2 2 0 0 104 331 278
513 2 2 0 0 256 297 264
514 2 2 0 0 316 421 416
515 2 2 0 0 239 358 242
516 2 2 0 0 169 586 171
517 2 2 0 0 286 287 206
518 2 2 0 0 324 364 254
519 2 2 0 0 241 576 162
520 2 2 0 0 168 169 164
521 2 2 0 0 121 123 122
522 2 2 0 0 266 267 217
523 2 2 0 0 129 131 130
524 2 2 0 0 216 217 208
525 2 2 0 0 285 382 313
526 2 2 0 0 172 321 170
527 2 2 0 0 390 391 364
528 2 2 0 0 296 563 300
529 2 2 0 0 246 252 251
530 2 2 0 0 285 286 206
531 2 2 0 0 288 289 287
532 2 2 0 0 298 372 371
533 2 2 0 0 23 35 22
534 2 2 0 0 300 344 304
535 2 2 0 0 344 462 345
536 2 2 0 0 123 128 122
537 2 2 0 0 297 389 342
538 2 2 0 0 237 277 259
539 2 2 0 0 148 285 206
540 2 2 0 0 86 89 88
541 2 2 0 0 306 307 283
542 2 2 0 0 234 279 233
543 2 2 0 0 316 416 160
544 2 2 0 0 188 190 189
545 2 2 0 0 85 98 82
546 2 2 0 0 358 428 359
547 2 2 0 0 437 455 438
548 2 2 0 0 203 210 201
549 2 2 0 0 382 383 313
550 2 2 0 0 153 176 156
551 2 2 0 0 290 354 289
552 2 2 0 0 159 241 162
553 2 2 0 0 386 387 126
554 2 2 0 0 273 363 338
555 2 2 0 0 272 326 276
556 2 2 0 0 171 293 173
557 2 2 0 0 145 148 147
558 2 2 0 0 274 295 261
559 2 2 0 0 285 313 286
560 2 2 0 0 383 384 313
561 2 2 0 0 301 302 299
562 2 2 0 0 131 133 132
563 2 2 0 0 296 298 295
564 2 2 0 0 305 310 302
565 2 2 0 0 349 412 328
566 2 2 0 0 344 345 304
567 2 2 0 0 77 119 75
568 2 2 0 0 315 378 310
569 2 2 0 0 363 401 400
570 2 2 0 0 332 333 278
571 2 2 0 0 223 233 222
572 2 2 0 0 331 334 332
573 2 2 0 0 186 188 187
574 2 2 0 0 178 212 177
575 2 2 0 0 305 360 315
576 2 2 0 0 334 396 395
577 2 2 0 0 246 251 215
578 2 2 0 0 167 261 260
579 2 2 0 0 175 179 178
580 2 2 0 0 345 346 304
581 2 2 0 0 124 386 126
582 2 2 0 0 286 288 287
583 2 2 0 0 331 332 278
584 2 2 0 0 179 181 180
585 2 2 0 0 301 305 302
586 2 2 0 0 300 304 301
587 2 2 0 0 296 300 299
588 2 2 0 0 305 315 310
589 2 2 0 0 296 299 298
590 2 2 0 0 320 453 290
591 2 2 0 0 274 296 295
592 2 2 0 0 313 531 286
593 2 2 0 0 120 281 280
594 2 2 0 0 360 409 315
595 2 2 0 0 363 400 338
596 2 2 0 0 129 130 128
597 2 2 0 0 300 301 299
598 2 2 0 0 1 508 23
599 2 2 0 0 167 273 261
600 2 2 0 0 133 135 134
601 2 2 0 0 173 174 172
602 2 2 0 0 311 377 376
603 2 2 0 0 273 274 261
604 2 2 0 0 273 338 274
605 2 2 0 0 334 395 332
606 2 2 0 0 183 197 184
607 2 2 0 0 319 393 320
608 2 2 0 0 449 450 446
609 2 2 0 0 288 290 289
610 2 2 0 0 226 306 283
611 2 2 0 0 326 380 327
612 2 2 0 0 175 177 174
613 2 2 0 0 181 183 182
614 2 2 0 0 219 230 211
615 2 2 0 0 308 335 307
616 2 2 0 0 267 311 292
617 2 2 0 0 169 170 164
618 2 2 0 0 288 319 290
619 2 2 0 0 126 165 125
620 2 2 0 0 120 280 121
621 2 2 0 0 130 357 128
622 2 2 0 0 195 200 199
623 2 2 0 0 169 171 170
624 2 2 0 0 171 172 170
625 2 2 0 0 184 186 185
626 2 2 0 0 73 282 71
627 2 2 0 0 252 294 251
628 2 2 0 0 319 320 290
629 2 2 0 0 131 132 130
630 2 2 0 0 393 394 320
631 2 2 0 0 171 173 172
632 2 2 0 0 4 34 3
633 2 2 0 0 218 220 219
634 2 2 0 0 267 292 217
635 2 2 0 0 184 185 182
636 2 2 0 0 188 194 190
637 2 2 0 0 56 70 54
638 2 2 0 0 377 405 376
639 2 2 0 0 449 470 450
640 2 2 0 0 179 180 178
641 2 2 0 0 173 175 174
642 2 2 0 0 175 178 177
643 2 2 0 0 250 329 328
644 2 2 0 0 311 376 292
645 2 2 0 0 329 571 350
646 2 2 0 0 347 370 348
647 2 2 0 0 220 222 219
648 2 2 0 0 376 385 292
649 2 2 0 0 133 134 132
650 2 2 0 0 134 136 132
651 2 2 0 0 306 308 307
652 2 2 0 0 200 203 201
653 2 2 0 0 233 247 222
654 2 2 0 0 98 460 82
655 2 2 0 0 329 349 328
656 2 2 0 0 326 381 380
657 2 2 0 0 347 348 270
658 2 2 0 0 181 182 180
659 2 2 0 0 121 122 115
660 2 2 0 0 350 351 349
661 2 2 0 0 308 336 335
662 2 2 0 0 350 403 352
663 2 2 0 0 470 471 450
664 2 2 0 0 203 211 210
665 2 2 0 0 218 219 211
666 2 2 0 0 183 184 182
667 2 2 0 0 370 463 422
668 2 2 0 0 306 402 308
669 2 2 0 0 203 218 211
670 2 2 0 0 71 490 70
671 2 2 0 0 329 350 349
672 2 2 0 0 436 437 414
673 2 2 0 0 124 126 125
674 2 2 0 0 413 414 353
675 2 2 0 0 422 423 348
676 2 2 0 0 352 353 351
677 2 2 0 0 370 422 348
678 2 2 0 0 350 352 351
679 2 2 0 0 413 436 414
680 2 2 0 0 352 413 353
681 2 2 0 0 120 121 115
682 2 2 0 0 110 480 117
683 2 2 0 0 124 125 116
684 2 2 0 0 126 521 165
685 2 2 0 0 113 120 115
686 2 2 0 0 127 440 410
687 2 2 0 0 114 124 116
688 2 2 0 0 543 544 530
689 2 2 0 0 488 489 487
690 2 2 0 0 585 637 366
691 2 2 0 0 543 570 544
692 2 2 0 0 113 115 114
693 2 2 0 0 127 410 106
694 2 2 0 0 114 116 112
695 2 2 0 0 195 515 200
696 2 2 0 0 491 493 492
697 2 2 0 0 12 487 13
698 2 2 0 0 546 547 321
699 2 2 0 0 330 457 411
700 2 2 0 0 157 543 530
701 2 2 0 0 519 520 291
702 2 2 0 0 28 488 487
703 2 2 0 0 111 112 110
704 2 2 0 0 312 534 257
705 2 2 0 0 476 732 412
706 2 2 0 0 27 458 442
707 2 2 0 0 385 636 620
708 2 2 0 0 176 559 156
709 2 2 0 0 593 634 366
710 2 2 0 0 589 590 224
711 2 2 0 0 113 114 112
712 2 2 0 0 109 127 106
713 2 2 0 0 270 564 245
714 2 2 0 0 443 506 445
715 2 2 0 0 491 492 396
716 2 2 0 0 388 624 502
717 2 2 0 0 445 506 448
718 2 2 0 0 30 500 15
719 2 2 0 0 20 504 21
720 2 2 0 0 64 475 60
721 2 2 0 0 287 542 206
722 2 2 0 0 23 508 35
723 2 2 0 0 302 558 299
724 2 2 0 0 70 551 54
725 2 2 0 0 62 598 64
726 2 2 0 0 424 491 396
727 2 2 0 0 407 456 340
728 2 2 0 0 545 546 321
729 2 2 0 0 330 411 397
730 2 2 0 0 72 536 74
731 2 2 0 0 238 574 136
732 2 2 0 0 659 660 420
733 2 2 0 0 395 538 332
734 2 2 0 0 143 527 145
735 2 2 0 0 412 675 476
736 2 2 0 0 239 513 358
737 2 2 0 0 157 530 529
738 2 2 0 0 518 519 291
739 2 2 0 0 449 482 470
740 2 2 0 0 207 713 479
741 2 2 0 0 119 523 75
742 2 2 0 0 109 670 127
743 2 2 0 0 10 501 40
744 2 2 0 0 508 509 35
745 2 2 0 0 96 606 94
746 2 2 0 0 331 459 334
747 2 2 0 0 286 531 288
748 2 2 0 0 290 453 354
749 2 2 0 0 282 490 71
750 2 2 0 0 384 531 313
751 2 2 0 0 289 524 287
752 2 2 0 0 349 550 412
753 2 2 0 0 165 521 256
754 2 2 0 0 82 460 77
755 2 2 0 0 155 543 157
756 2 2 0 0 201 549 199
757 2 2 0 0 273 591 363
758 2 2 0 0 387 521 126
759 2 2 0 0 114 516 124
760 2 2 0 0 53 561 57
761 2 2 0 0 266 554 309
762 2 2 0 0 257 534 255
763 2 2 0 0 205 553 213
764 2 2 0 0 142 522 225
765 2 2 0 0 435 481 356
766 2 2 0 0 216 568 303
767 2 2 0 0 300 563 344
768 2 2 0 0 214 568 209
769 2 2 0 0 112 480 110
770 2 2 0 0 350 571 403
771 2 2 0 0 347 572 485
772 2 2 0 0 275 572 271
773 2 2 0 0 274 563 296
774 2 2 0 0 171 586 293
775 2 2 0 0 162 576 237
776 2 2 0 0 133 580 163
777 2 2 0 0 11 501 10
778 2 2 0 0 295 584 261
779 2 2 0 0 129 583 131
780 2 2 0 0 215 586 169
781 2 2 0 0 250 505 329
782 2 2 0 0 168 588 224
783 2 2 0 0 321 548 170
784 2 2 0 0 262 593 366
785 2 2 0 0 166 646 314
786 2 2 0 0 520 535 291
787 2 2 0 0 373 663 493
788 2 2 0 0 291 535 185
789 2 2 0 0 101 607 97
790 2 2 0 0 130 574 357
791 2 2 0 0 158 570 543
792 2 2 0 0 31 501 11
793 2 2 0 0 444 552 503
794 2 2 0 0 156 559 159
795 2 2 0 0 236 594 505
796 2 2 0 0 206 542 149
797 2 2 0 0 54 551 52
798 2 2 0 0 74 536 373
799 2 2 0 0 337 558 302
800 2 2 0 0 150 532 147
801 2 2 0 0 379 728 457
802 2 2 0 0 299 558 298
803 2 2 0 0 332 538 333
804 2 2 0 0 145 527 148
805 2 2 0 0 514 515 192
806 2 2 0 0 15 500 14
807 2 2 0 0 75 523 73
808 2 2 0 0 467 501 31
809 2 2 0 0 254 592 125
810 2 2 0 0 172 545 321
811 2 2 0 0 144 522 142
812 2 2 0 0 528 532 150
813 2 2 0 0 187 518 291
814 2 2 0 0 553 599 213
815 2 2 0 0 383 603 384
816 2 2 0 0 282 698 490
817 2 2 0 0 244 517 240
818 2 2 0 0 353 525 404
819 2 2 0 0 395 540 538
820 2 2 0 0 94 606 118
821 2 2 0 0 117 539 107
822 2 2 0 0 185 535 182
823 2 2 0 0 388 502 50
824 2 2 0 0 167 591 273
825 2 2 0 0 147 532 146
826 2 2 0 0 92 608 91
827 2 2 0 0 472 676 368
828 2 2 0 0 364 592 254
829 2 2 0 0 21 504 44
830 2 2 0 0 365 597 248
831 2 2 0 0 125 592 116
832 2 2 0 0 588 589 224
833 2 2 0 0 111 113 112
834 2 2 0 0 63 469 408
835 2 2 0 0 105 109 106
836 2 2 0 0 242 526 243
837 2 2 0 0 439 712 29
838 2 2 0 0 240 517 234
839 2 2 0 0 346 533 304
840 2 2 0 0 14 500 38
841 2 2 0 0 494 495 484
842 2 2 0 0 127 630 440
843 2 2 0 0 208 537 204
844 2 2 0 0 175 562 179
845 2 2 0 0 303 626 555
846 2 2 0 0 359 526 242
847 2 2 0 0 243 526 268
848 2 2 0 0 217 537 208
849 2 2 0 0 58 498 55
850 2 2 0 0 503 552 30
851 2 2 0 0 13 499 12
852 2 2 0 0 268 621 569
853 2 2 0 0 489 497 487
854 2 2 0 0 475 498 58
855 2 2 0 0 430 526 359
856 2 2 0 0 248 597 99
857 2 2 0 0 292 537 217
858 2 2 0 0 26 645 45
859 2 2 0 0 234 517 279
860 2 2 0 0 14 497 39
861 2 2 0 0 385 537 292
862 2 2 0 0 305 533 360
863 2 2 0 0 304 533 301
864 2 2 0 0 146 532 284
865 2 2 0 0 483 494 484
866 2 2 0 0 173 562 175
867 2 2 0 0 116 480 112
868 2 2 0 0 224 590 246
869 2 2 0 0 189 518 187
870 2 2 0 0 498 536 72
871 2 2 0 0 414 525 353
872 2 2 0 0 160 522 144
873 2 2 0 0 547 609 548
874 2 2 0 0 182 535 180
875 2 2 0 0 297 601 389
876 2 2 0 0 44 594 81
877 2 2 0 0 301 533 305
878 2 2 0 0 105 106 96
879 2 2 0 0 515 596 200
880 2 2 0 0 293 562 173
881 2 2 0 0 73 523 282
882 2 2 0 0 148 527 285
883 2 2 0 0 174 545 172
884 2 2 0 0 218 596 323
885 2 2 0 0 200 596 203
886 2 2 0 0 149 542 151
887 2 2 0 0 446 552 444
888 2 2 0 0 49 461 330
889 2 2 0 0 330 397 48
890 2 2 0 0 453 738 377
891 2 2 0 0 255 534 324
892 2 2 0 0 52 551 388
893 2 2 0 0 634 646 260
894 2 2 0 0 513 615 358
895 2 2 0 0 438 525 414
896 2 2 0 0 516 618 386
897 2 2 0 0 198 518 189
898 2 2 0 0 227 566 361
899 2 2 0 0 559 560 241
900 2 2 0 0 90 587 93
901 2 2 0 0 416 522 160
902 2 2 0 0 102 591 167
903 2 2 0 0 134 609 137
904 2 2 0 0 298 558 372
905 2 2 0 0 132 574 130
906 2 2 0 0 106 606 96
907 2 2 0 0 159 559 241
908 2 2 0 0 32 611 6
909 2 2 0 0 158 543 155
910 2 2 0 0 223 513 239
911 2 2 0 0 288 531 319
912 2 2 0 0 323 513 220
913 2 2 0 0 115 516 114
914 2 2 0 0 521 601 297
915 2 2 0 0 610 698 455
916 2 2 0 0 354 600 431
917 2 2 0 0 351 550 349
918 2 2 0 0 256 521 297
919 2 2 0 0 140 604 138
920 2 2 0 0 77 460 119
921 2 2 0 0 17 503 16
922 2 2 0 0 9 502 10
923 2 2 0 0 104 587 331
924 2 2 0 0 152 528 150
925 2 2 0 0 315 541 378
926 2 2 0 0 170 548 164
927 2 2 0 0 590 659 420
928 2 2 0 0 11 624 28
929 2 2 0 0 199 549 202
930 2 2 0 0 502 624 10
931 2 2 0 0 453 600 354
932 2 2 0 0 42 43 41
933 2 2 0 0 38 499 13
934 2 2 0 0 285 527 382
935 2 2 0 0 190 514 192
936 2 2 0 0 157 529 528
937 2 2 0 0 231 643 549
938 2 2 0 0 331 587 459
939 2 2 0 0 451 701 232
940 2 2 0 0 99 597 100
941 2 2 0 0 361 568 214
942 2 2 0 0 372 740 544
943 2 2 0 0 221 545 174
944 2 2 0 0 138 604 238
945 2 2 0 0 340 572 275
946 2 2 0 0 338 563 274
947 2 2 0 0 524 542 287
948 2 2 0 0 265 595 312
949 2 2 0 0 111 511 113
950 2 2 0 0 580 658 588
951 2 2 0 0 580 588 163
952 2 2 0 0 237 576 277
953 2 2 0 0 444 503 36
954 2 2 0 0 131 583 580
955 2 2 0 0 505 571 329
956 2 2 0 0 203 596 218
957 2 2 0 0 584 634 260
958 2 2 0 0 261 584 260
959 2 2 0 0 369 647 365
960 2 2 0 0 251 586 215
961 2 2 0 0 348 564 270
962 2 2 0 0 450 552 446
963 2 2 0 0 390 496 391
964 2 2 0 0 66 598 62
965 2 2 0 0 465 623 423
966 2 2 0 0 258 591 102
967 2 2 0 0 343 566 227
968 2 2 0 0 564 623 244
969 2 2 0 0 154 617 141
970 2 2 0 0 324 534 392
971 2 2 0 0 50 502 37
972 2 2 0 0 524 556 542
973 2 2 0 0 544 700 372
974 2 2 0 0 122 516 115
975 2 2 0 0 177 557 221
976 2 2 0 0 489 698 610
977 2 2 0 0 93 587 104
978 2 2 0 0 136 574 132
979 2 2 0 0 593 646 634
980 2 2 0 0 116 592 480
981 2 2 0 0 143 617 527
982 2 2 0 0 225 604 140
983 2 2 0 0 137 631 139
984 2 2 0 0 549 553 202
985 2 2 0 0 164 548 135
986 2 2 0 0 404 550 351
987 2 2 0 0 34 721 473
988 2 2 0 0 220 513 223
989 2 2 0 0 317 640 511
990 2 2 0 0 100 597 258
991 2 2 0 0 588 658 589
992 2 2 0 0 323 615 513
993 2 2 0 0 568 626 303
994 2 2 0 0 377 605 405
995 2 2 0 0 178 613 212
996 2 2 0 0 493 628 373
997 2 2 0 0 157 528 152
998 2 2 0 0 591 627 363
999 2 2 0 0 409 541 315
1000 2 2 0 0 183 614 197
1001 2 2 0 0 103 598 66
1002 2 2 0 0 188 619 194
1003 2 2 0 0 213 599 226
1004 2 2 0 0 306 599 402
1005 2 2 0 0 97 607 25
1006 2 2 0 0 194 514 190
1007 2 2 0 0 373 628 76
1008 2 2 0 0 78 628 253
1009 2 2 0 0 42 47 43
1010 2 2 0 0 39 612 15
1011 2 2 0 0 16 612 29
1012 2 2 0 0 437 610 455
1013 2 2 0 0 487 497 13
1014 2 2 0 0 440 630 441
1015 2 2 0 0 479 713 562
1016 2 2 0 0 196 620 193
1017 2 2 0 0 456 572 340
1018 2 2 0 0 120 511 281
1019 2 2 0 0 577 578 235
1020 2 2 0 0 335 582 399
1021 2 2 0 0 314 741 683
1022 2 2 0 0 520 613 535
1023 2 2 0 0 585 634 584
1024 2 2 0 0 423 564 348
1025 2 2 0 0 457 561 411
1026 2 2 0 0 6 611 5
1027 2 2 0 0 385 620 537
1028 2 2 0 0 228 637 229
1029 2 2 0 0 366 637 249
1030 2 2 0 0 161 570 158
1031 2 2 0 0 434 640 435
1032 2 2 0 0 193 636 191
1033 2 2 0 0 410 606 106
1034 2 2 0 0 37 502 9
1035 2 2 0 0 36 503 17
1036 2 2 0 0 141 617 143
1037 2 2 0 0 363 627 401
1038 2 2 0 0 322 590 420
1039 2 2 0 0 357 618 128
1040 2 2 0 0 430 621 526
1041 2 2 0 0 540 687 103
1042 2 2 0 0 280 577 121
1043 2 2 0 0 276 575 318
1044 2 2 0 0 362 578 577
1045 2 2 0 0 109 649 496
1046 2 2 0 0 246 590 322
1047 2 2 0 0 326 569 381
1048 2 2 0 0 569 621 381
1049 2 2 0 0 269 569 272
1050 2 2 0 0 139 631 154
1051 2 2 0 0 649 664 496
1052 2 2 0 0 537 620 204
1053 2 2 0 0 355 461 49
1054 2 2 0 0 663 685 493
1055 2 2 0 0 479 745 207
1056 2 2 0 0 343 662 565
1057 2 2 0 0 212 557 177
1058 2 2 0 0 45 645 46
1059 2 2 0 0 496 670 109
1060 2 2 0 0 366 634 585
1061 2 2 0 0 384 616 531
1062 2 2 0 0 535 613 180
1063 2 2 0 0 391 632 364
1064 2 2 0 0 308 581 336
1065 2 2 0 0 344 625 462
1066 2 2 0 0 563 625 344
1067 2 2 0 0 13 497 14
1068 2 2 0 0 480 632 117
1069 2 2 0 0 371 668 585
1070 2 2 0 0 333 649 278
1071 2 2 0 0 387 601 521
1072 2 2 0 0 47 49 48
1073 2 2 0 0 358 615 428
1074 2 2 0 0 113 511 120
1075 2 2 0 0 527 617 382
1076 2 2 0 0 105 649 109
1077 2 2 0 0 398 573 307
1078 2 2 0 0 368 676 369
1079 2 2 0 0 180 613 178
1080 2 2 0 0 153 556 176
1081 2 2 0 0 432 657 367
1082 2 2 0 0 458 718 582
1083 2 2 0 0 207 614 183
1084 2 2 0 0 407 611 456
1085 2 2 0 0 244 623 517
1086 2 2 0 0 20 639 27
1087 2 2 0 0 476 675 87
1088 2 2 0 0 319 616 393
1089 2 2 0 0 474 707 197
1090 2 2 0 0 226 599 306
1091 2 2 0 0 47 48 43
1092 2 2 0 0 186 619 188
1093 2 2 0 0 412 732 328
1094 2 2 0 0 316 671 541
1095 2 2 0 0 293 734 478
1096 2 2 0 0 492 685 598
1097 2 2 0 0 528 629 532
1098 2 2 0 0 514 635 515
1099 2 2 0 0 531 616 319
1100 2 2 0 0 8 656 7
1101 2 2 0 0 387 602 601
1102 2 2 0 0 76 628 78
1103 2 2 0 0 122 618 516
1104 2 2 0 0 651 717 394
1105 2 2 0 0 423 623 564
1106 2 2 0 0 546 669 547
1107 2 2 0 0 4 679 34
1108 2 2 0 0 542 556 151
1109 2 2 0 0 548 609 135
1110 2 2 0 0 204 620 196
1111 2 2 0 0 529 629 528
1112 2 2 0 0 482 719 230
1113 2 2 0 0 258 627 591
1114 2 2 0 0 336 582 335
1115 2 2 0 0 197 686 667
1116 2 2 0 0 583 658 580
1117 2 2 0 0 85 675 98
1118 2 2 0 0 59 728 379
1119 2 2 0 0 400 625 338
1120 2 2 0 0 394 717 605
1121 2 2 0 0 471 650 450
1122 2 2 0 0 596 635 323
1123 2 2 0 0 249 637 228
1124 2 2 0 0 515 635 596
1125 2 2 0 0 338 625 563
1126 2 2 0 0 28 633 488
1127 2 2 0 0 566 622 361
1128 2 2 0 0 229 570 161
1129 2 2 0 0 468 654 465
1130 2 2 0 0 118 710 462
1131 2 2 0 0 15 612 16
1132 2 2 0 0 589 659 590
1133 2 2 0 0 526 621 268
1134 2 2 0 0 365 647 597
1135 2 2 0 0 579 583 235
1136 2 2 0 0 22 507 21
1137 2 2 0 0 342 682 264
1138 2 2 0 0 441 648 346
1139 2 2 0 0 191 636 198
1140 2 2 0 0 578 653 579
1141 2 2 0 0 135 609 134
1142 2 2 0 0 128 618 122
1143 2 2 0 0 378 681 310
1144 2 2 0 0 230 690 211
1145 2 2 0 0 210 690 232
1146 2 2 0 0 549 643 553
1147 2 2 0 0 233 661 247
1148 2 2 0 0 10 624 11
1149 2 2 0 0 640 709 435
1150 2 2 0 0 449 719 482
1151 2 2 0 0 452 726 33
1152 2 2 0 0 362 577 280
1153 2 2 0 0 318 575 433
1154 2 2 0 0 492 687 396
1155 2 2 0 0 586 734 293
1156 2 2 0 0 357 655 618
1157 2 2 0 0 277 567 259
1158 2 2 0 0 522 641 225
1159 2 2 0 0 511 640 281
1160 2 2 0 0 247 661 483
1161 2 2 0 0 610 693 39
1162 2 2 0 0 272 569 326
1163 2 2 0 0 490 695 70
1164 2 2 0 0 553 643 599
1165 2 2 0 0 532 629 284
1166 2 2 0 0 29 712 17
1167 2 2 0 0 632 665 117
1168 2 2 0 0 618 655 386
1169 2 2 0 0 241 699 576
1170 2 2 0 0 457 728 561
1171 2 2 0 0 485 572 456
1172 2 2 0 0 430 667 621
1173 2 2 0 0 582 672 458
1174 2 2 0 0 395 687 540
1175 2 2 0 0 504 594 44
1176 2 2 0 0 181 713 207
1177 2 2 0 0 197 707 184
1178 2 2 0 0 524 657 556
1179 2 2 0 0 475 536 498
1180 2 2 0 0 394 738 320
1181 2 2 0 0 51 714 561
1182 2 2 0 0 151 556 153
1183 2 2 0 0 437 693 610
1184 2 2 0 0 361 626 568
1185 2 2 0 0 611 679 5
1186 2 2 0 0 231 680 643
1187 2 2 0 0 462 706 118
1188 2 2 0 0 390 670 496
1189 2 2 0 0 602 642 601
1190 2 2 0 0 49 330 48
1191 2 2 0 0 391 665 632
1192 2 2 0 0 508 737 375
1193 2 2 0 0 450 650 552
1194 2 2 0 0 368 732 476
1195 2 2 0 0 578 579 235
1196 2 2 0 0 402 581 308
1197 2 2 0 0 43 486 41
1198 2 2 0 0 562 713 179
1199 2 2 0 0 592 632 480
1200 2 2 0 0 416 641 522
1201 2 2 0 0 372 668 371
1202 2 2 0 0 452 712 439
1203 2 2 0 0 282 720 455
1204 2 2 0 0 556 657 176
1205 2 2 0 0 364 632 592
1206 2 2 0 0 403 726 452
1207 2 2 0 0 465 654 623
1208 2 2 0 0 278 649 105
1209 2 2 0 0 154 652 617
1210 2 2 0 0 383 688 603
1211 2 2 0 0 451 719 447
1212 2 2 0 0 317 709 640
1213 2 2 0 0 604 711 642
1214 2 2 0 0 382 652 383
1215 2 2 0 0 601 642 389
1216 2 2 0 0 284 671 316
1217 2 2 0 0 599 643 402
1218 2 2 0 0 388 633 624
1219 2 2 0 0 267 678 311
1220 2 2 0 0 337 681 530
1221 2 2 0 0 279 661 233
1222 2 2 0 0 605 738 394
1223 2 2 0 0 33 677 504
1224 2 2 0 0 386 655 387
1225 2 2 0 0 547 669 631
1226 2 2 0 0 562 731 479
1227 2 2 0 0 360 648 595
1228 2 2 0 0 432 692 657
1229 2 2 0 0 367 657 524
1230 2 2 0 0 633 695 488
1231 2 2 0 0 415 473 341
1232 2 2 0 0 644 672 336
1233 2 2 0 0 551 633 388
1234 2 2 0 0 533 648 360
1235 2 2 0 0 407 679 611
1236 2 2 0 0 323 635 615
1237 2 2 0 0 530 681 529
1238 2 2 0 0 393 651 394
1239 2 2 0 0 387 655 602
1240 2 2 0 0 238 703 574
1241 2 2 0 0 594 677 505
1242 2 2 0 0 559 692 560
1243 2 2 0 0 621 667 381
1244 2 2 0 0 405 674 376
1245 2 2 0 0 325 732 368
1246 2 2 0 0 623 654 517
1247 2 2 0 0 581 644 336
1248 2 2 0 0 346 648 533
1249 2 2 0 0 517 654 279
1250 2 2 0 0 477 705 481
1251 2 2 0 0 481 705 355
1252 2 2 0 0 561 728 57
1253 2 2 0 0 379 705 477
1254 2 2 0 0 617 652 382
1255 2 2 0 0 30 650 500
1256 2 2 0 0 376 674 385
1257 2 2 0 0 518 715 519
1258 2 2 0 0 474 667 430
1259 2 2 0 0 478 734 294
1260 2 2 0 0 624 633 28
1261 2 2 0 0 186 707 619
1262 2 2 0 0 64 663 475
1263 2 2 0 0 597 647 258
1264 2 2 0 0 377 738 605
1265 2 2 0 0 31 735 467
1266 2 2 0 0 27 718 458
1267 2 2 0 0 419 673 68
1268 2 2 0 0 616 722 393
1269 2 2 0 0 24 723 419
1270 2 2 0 0 397 638 48
1271 2 2 0 0 404 730 460
1272 2 2 0 0 91 676 472
1273 2 2 0 0 622 626 361
1274 2 2 0 0 7 656 32
1275 2 2 0 0 576 697 277
1276 2 2 0 0 471 691 650
1277 2 2 0 0 536 663 373
1278 2 2 0 0 484 691 471
1279 2 2 0 0 552 650 30
1280 2 2 0 0 311 678 600
1281 2 2 0 0 486 729 5
1282 2 2 0 0 418 673 666
1283 2 2 0 0 232 680 231
1284 2 2 0 0 5 679 4
1285 2 2 0 0 117 665 539
1286 2 2 0 0 384 702 616
1287 2 2 0 0 557 702 221
1288 2 2 0 0 87 675 85
1289 2 2 0 0 225 711 604
1290 2 2 0 0 505 677 571
1291 2 2 0 0 483 661 494
1292 2 2 0 0 263 565 375
1293 2 2 0 0 504 677 594
1294 2 2 0 0 582 718 399
1295 2 2 0 0 645 714 46
1296 2 2 0 0 534 708 392
1297 2 2 0 0 643 680 402
1298 2 2 0 0 18 712 452
1299 2 2 0 0 392 670 390
1300 2 2 0 0 221 702 603
1301 2 2 0 0 496 664 391
1302 2 2 0 0 606 710 118
1303 2 2 0 0 655 703 602
1304 2 2 0 0 608 676 91
1305 2 2 0 0 194 684 514
1306 2 2 0 0 541 671 378
1307 2 2 0 0 154 669 652
1308 2 2 0 0 399 718 639
1309 2 2 0 0 405 715 674
1310 2 2 0 0 33 726 677
1311 2 2 0 0 629 671 284
1312 2 2 0 0 468 735 495
1313 2 2 0 0 469 704 408
1314 2 2 0 0 427 745 479
1315 2 2 0 0 294 734 251
1316 2 2 0 0 461 705 379
1317 2 2 0 0 385 674 636
1318 2 2 0 0 657 692 176
1319 2 2 0 0 561 714 411
1320 2 2 0 0 631 669 154
1321 2 2 0 0 264 682 265
1322 2 2 0 0 43 638 486
1323 2 2 0 0 48 638 43
1324 2 2 0 0 194 744 684
1325 2 2 0 0 381 686 380
1326 2 2 0 0 658 716 589
1327 2 2 0 0 263 567 565
1328 2 2 0 0 310 681 337
1329 2 2 0 0 493 685 492
1330 2 2 0 0 64 685 663
1331 2 2 0 0 309 678 267
1332 2 2 0 0 600 678 431
1333 2 2 0 0 538 694 333
1334 2 2 0 0 598 685 64
1335 2 2 0 0 551 695 633
1336 2 2 0 0 560 699 241
1337 2 2 0 0 211 690 210
1338 2 2 0 0 2 723 3
1339 2 2 0 0 630 708 441
1340 2 2 0 0 467 735 468
1341 2 2 0 0 396 687 395
1342 2 2 0 0 35 507 22
1343 2 2 0 0 259 567 263
1344 2 2 0 0 417 673 418
1345 2 2 0 0 614 686 197
1346 2 2 0 0 392 708 630
1347 2 2 0 0 5 729 6
1348 2 2 0 0 279 725 661
1349 2 2 0 0 6 729 26
1350 2 2 0 0 357 703 655
1351 2 2 0 0 514 684 635
1352 2 2 0 0 540 733 538
1353 2 2 0 0 374 741 593
1354 2 2 0 0 176 692 559
1355 2 2 0 0 650 691 500
1356 2 2 0 0 484 736 691
1357 2 2 0 0 83 733 540
1358 2 2 0 0 558 740 372
1359 2 2 0 0 626 697 555
1360 2 2 0 0 436 693 437
1361 2 2 0 0 375 737 374
1362 2 2 0 0 475 663 536
1363 2 2 0 0 636 674 198
1364 2 2 0 0 674 715 198
1365 2 2 0 0 70 695 551
1366 2 2 0 0 406 721 407
1367 2 2 0 0 677 726 571
1368 2 2 0 0 258 647 627
1369 2 2 0 0 448 701 451
1370 2 2 0 0 458 672 506
1371 2 2 0 0 229 700 570
1372 2 2 0 0 684 744 428
1373 2 2 0 0 570 700 544
1374 2 2 0 0 678 742 431
1375 2 2 0 0 646 741 314
1376 2 2 0 0 603 702 384
1377 2 2 0 0 478 731 293
1378 2 2 0 0 309 742 678
1379 2 2 0 0 380 686 614
1380 2 2 0 0 494 725 468
1381 2 2 0 0 500 691 38
1382 2 2 0 0 635 684 615
1383 2 2 0 0 661 725 494
1384 2 2 0 0 679 721 34
1385 2 2 0 0 509 510 35
1386 2 2 0 0 46 714 51
1387 2 2 0 0 615 684 428
1388 2 2 0 0 432 742 689
1389 2 2 0 0 179 713 181
1390 2 2 0 0 26 739 645
1391 2 2 0 0 35 510 507
1392 2 2 0 0 574 703 357
1393 2 2 0 0 184 707 186
1394 2 2 0 0 39 693 612
1395 2 2 0 0 665 694 539
1396 2 2 0 0 312 708 534
1397 2 2 0 0 554 689 309
1398 2 2 0 0 1 737 508
1399 2 2 0 0 519 717 520
1400 2 2 0 0 277 697 622
1401 2 2 0 0 389 711 641
1402 2 2 0 0 495 736 484
1403 2 2 0 0 17 712 18
1404 2 2 0 0 212 722 557
1405 2 2 0 0 455 720 438
1406 2 2 0 0 622 697 626
1407 2 2 0 0 664 694 665
1408 2 2 0 0 447 719 449
1409 2 2 0 0 669 688 652
1410 2 2 0 0 612 693 436
1411 2 2 0 0 619 744 194
1412 2 2 0 0 57 728 59
1413 2 2 0 0 579 658 583
1414 2 2 0 0 438 727 525
1415 2 2 0 0 539 733 83
1416 2 2 0 0 479 731 478
1417 2 2 0 0 691 736 38
1418 2 2 0 0 401 724 400
1419 2 2 0 0 420 660 2
1420 2 2 0 0 328 732 325
1421 2 2 0 0 320 738 453
1422 2 2 0 0 428 744 429
1423 2 2 0 0 431 742 432
1424 2 2 0 0 425 745 427
1425 2 2 0 0 408 743 434
1426 2 2 0 0 571 726 403
1427 2 2 0 0 119 727 523
1428 2 2 0 0 625 706 462
1429 2 2 0 0 525 730 404
1430 2 2 0 0 499 736 495
1431 2 2 0 0 468 725 654
1432 2 2 0 0 336 672 582
1433 2 2 0 0 198 715 518
1434 2 2 0 0 400 724 706
1435 2 2 0 0 402 680 581
1436 2 2 0 0 589 716 659
1437 2 2 0 0 727 730 525
1438 2 2 0 0 664 665 391
1439 2 2 0 0 337 740 558
1440 2 2 0 0 293 731 562
1441 2 2 0 0 523 720 282
1442 2 2 0 0 460 730 119
1443 2 2 0 0 641 711 225
1444 2 2 0 0 429 744 619
1445 2 2 0 0 119 730 727
1446 2 2 0 0 651 722 212
1447 2 2 0 0 38 736 499
1448 2 2 0 0 667 686 381
1449 2 2 0 0 652 688 383
1450 2 2 0 0 410 710 606
1451 2 2 0 0 644 701 448
1452 2 2 0 0 666 673 419
1453 2 2 0 0 704 743 408
1454 2 2 0 0 251 734 586
1455 2 2 0 0 400 706 625
1456 2 2 0 0 546 688 669
1457 2 2 0 0 668 700 229
1458 2 2 0 0 538 733 694
1459 2 2 0 0 333 694 664
1460 2 2 0 0 565 662 375
1461 2 2 0 0 720 727 438
1462 2 2 0 0 372 700 668
1463 2 2 0 0 579 716 658
1464 2 2 0 0 642 711 389
1465 2 2 0 0 355 705 461
1466 2 2 0 0 407 721 679
1467 2 2 0 0 523 727 720
1468 2 2 0 0 654 725 279
1469 2 2 0 0 639 718 27
1470 2 2 0 0 694 733 539
1471 2 2 0 0 393 722 651
1472 2 2 0 0 645 739 397
1473 2 2 0 0 683 741 374
1474 2 2 0 0 397 739 638
1475 2 2 0 0 653 716 579
1476 2 2 0 0 666 723 660
1477 2 2 0 0 419 723 666
1478 2 2 0 0 374 737 683
1479 2 2 0 0 593 741 646
1480 2 2 0 0 683 737 1
1481 2 2 0 0 689 742 309
1482 2 2 0 0 660 723 2
1483 2 2 0 0 23 25 1
1484 2 2 0 0 25 607 1
1485 2 2 0 0 3 34 2
1486 2 2 0 0 34 415 2
$EndElements
