$MeshFormat
2.2 0 8
$EndMeshFormat
$Nodes
745
1 4.8917575636565832e-05 2.0201899520885240e-05 1.0282099544153165e-03
2 4.2677984191913790e-05 -5.2576985244459740e-05 -1.0259151311088994e-03
3 1.2742833401892665e-04 8.8182377681265199e-06 -1.0191072879400060e-03
4 2.3902977777396297e-04 3.2036323841413473e-05 -9.9731519101875455e-04
5 3.8441853774637302e-04 3.0976234100289761e-05 -9.4665271909612713e-04
6 5.2466522697056561e-04 -4.9758440594855876e-06 -8.6961147841909964e-04
7 6.3995987143287698e-04 1.2927209001338237e-06 -7.8092306670682105e-04
8 7.2731829177214693e-04 5.0826700227167834e-06 -6.9329057044257463e-04
9 8.1847935153062459e-04 -2.2639191806153268e-06 -5.7321713614377301e-04
10 8.8994881345033844e-04 -3.0022731543941937e-06 -4.4418355638028534e-04
11 9.4805640551164473e-04 2.4151562777292950e-07 -2.8725142781539219e-04
12 9.7971928321349193e-04 5.7970506010763793e-06 -1.3034082481524326e-04
13 9.8760358072662140e-04 -2.3475590230056229e-06 1.4498374299140755e-05
14 9.7567767465027314e-04 6.8785499979644193e-07 1.5853827282252619e-04
15 9.4322254256013231e-04 7.5412823376958535e-06 3.0371856371155933e-04
16 8.8831236874678922e-04 1.1882237033748904e-05 4.4812089419744107e-04
17 8.2266565107833847e-04 9.3538870033791507e-07 5.6728310698796441e-04
18 7.3336709745278875e-04 -1.0140228587482313e-05 6.8687733771653639e-04
19 6.3385539957794214e-04 -8.1086079931899305e-06 7.8723158598300311e-04
20 5.0707527506780074e-04 -3.9373488879412090e-06 8.8169052248911780e-04
21 3.8365176269809635e-04 3.3135746973688553e-06 9.4739553529436284e-04
22 2.6329294005111067e-04 9.0961837209539866e-06 9.9141866549402511e-04
23 1.4646124923456644e-04 -1.8392631545545104e-05 1.0168105817259573e-03
24 1.6884280559282392e-04 1.1819786891988614e-04 -1.0060543700266425e-03
25 1.7352557513678515e-04 9.7942847661611169e-05 1.0084297642220946e-03
26 5.8994339528455389e-04 1.1619235875337353e-04 -8.1319603747399708e-04
27 5.6806017559247297e-04 -1.1901099098866891e-04 8.3083951333108455e-04
28 9.5883961660003835e-04 1.3271681038408293e-04 -2.0351436945837678e-04
29 8.4249688954859622e-04 1.6036807751399973e-04 5.1002338744396793e-04
30 9.1207553570766663e-04 -1.2043640297277074e-04 3.7310565790996093e-04
31 9.6034026930824320e-04 -1.1603639039580866e-04 -2.0683717623394725e-04
32 5.6444901136617489e-04 -1.1076920158030924e-04 -8.3434880484182855e-04
33 5.6339911088196216e-04 1.0253098426938736e-04 8.3642040396328670e-04
34 1.6915557491261438e-04 -9.5613473707217327e-05 -1.0089764483536237e-03
35 2.0236892951385176e-04 -1.0962480714330272e-04 1.0003048351108624e-03
36 7.7254585723030304e-04 -1.2353376467769933e-04 6.2601731292549452e-04
37 7.6952889627202828e-04 1.2922181820106205e-04 -6.2773221014766033e-04
38 9.7813667818091019e-04 -1.1021971424632984e-04 8.2540128648356527e-05
39 9.5640052690663013e-04 1.2622784855852303e-04 2.1873278060640850e-04
40 8.4761202827535339e-04 -1.3003314113658478e-04 -5.0837624986581472e-04
41 2.9138975362412602e-04 1.2408435843601112e-04 -9.7352223389235383e-04
42 2.2327200750362535e-04 2.3923352004534524e-04 -9.6947796890095226e-04
43 3.3959287232411761e-04 2.4318086408837760e-04 -9.3018199544194229e-04
44 3.1045057955964500e-04 1.1426726601680373e-04 9.6913330725504634e-04
45 6.7490766316958964e-04 1.2488165223366728e-04 -7.3680229466147734e-04
46 7.0275870944635946e-04 2.4415008302588976e-04 -6.7347595874172445e-04
47 2.8058725362805460e-04 3.5233448671736009e-04 -9.1341848455585349e-04
48 3.8678714138187738e-04 3.4746594315536097e-04 -8.7196346174129235e-04
49 3.2064761830500097e-04 4.4449605119018236e-04 -8.5293359132969447e-04
50 7.9047599871038849e-04 2.5330547926239366e-04 -5.5444117547204382e-04
51 7.1815791571726534e-04 3.7243036195874893e-04 -5.8694970733681371e-04
52 7.9924245461111614e-04 3.6847418351562575e-04 -4.6366542736677450e-04
53 7.1467371177871917e-04 4.8369584027438666e-04 -4.9697536903514855e-04
54 7.8540266121640816e-04 4.7904330983160429e-04 -3.7080478585143131e-04
55 6.9831363290152133e-04 5.8324911676959767e-04 -3.9650042662831442e-04
56 7.6032850743638198e-04 5.7524351442831876e-04 -2.6482982652152083e-04
57 6.2538593410151543e-04 5.8129164832351385e-04 -5.1303809794758695e-04
58 5.9330353599752771e-04 6.7695870812617409e-04 -4.1918751852112389e-04
59 5.0794234060266515e-04 6.6762213370345910e-04 -5.3878837299898359e-04
60 4.6906997994042841e-04 7.6070563320654663e-04 -4.3351613696263107e-04
61 3.8021056596074829e-04 7.4198291688318545e-04 -5.4765255674490911e-04
62 3.4606097753225152e-04 8.2957440063667967e-04 -4.2185198917631334e-04
63 2.1191972721104402e-04 4.4956803030434005e-04 -8.8653985358520240e-04
64 4.3406288305005715e-04 8.3310877446094486e-04 -3.1177622352858300e-04
65 2.4254994401116291e-04 8.0915883590502329e-04 -5.2919731534728357e-04
66 2.1824929877365586e-04 8.8382056363248986e-04 -3.9447532278816168e-04
67 1.1311234378962291e-04 8.5487048418257216e-04 -4.9757754553970013e-04
68 1.0313615009957396e-04 2.4412666493282508e-04 -9.8993690097389409e-04
69 1.3281365484913324e-04 7.6411801559403414e-04 -6.3445032001043975e-04
70 8.3534185369823480e-04 4.7083041651799738e-04 -2.4234574731329370e-04
71 8.1070017722761803e-04 5.5000983110507805e-04 -1.2668906342214385e-04
72 7.2142343088008401e-04 6.5739272684232886e-04 -1.5237597633977750e-04
73 7.6166932058938141e-04 6.2759507357296456e-04 -2.1801123473792490e-05
74 6.6373839515644563e-04 7.2950881473992171e-04 -3.7404663849823951e-05
75 6.9231990190100521e-04 6.9822206032026698e-04 8.7659042606391216e-05
76 5.8347945596478928e-04 7.9241840285139810e-04 7.7022318626220984e-05
77 6.1201705096400284e-04 7.4879026552635692e-04 2.0428589896088066e-04
78 4.9864947252853452e-04 8.3164063989912167e-04 1.9012551207634026e-04
79 8.9815236654259645e-05 9.2006529644838252e-04 -3.5757026217817281e-04
80 -1.8610891853933549e-05 8.8578458732832197e-04 -4.4991501263019496e-04
81 2.4121137771176884e-04 2.2306308502035142e-04 9.6991372632940188e-04
82 5.2039552406248329e-04 7.7495164692374598e-04 3.3277727694522508e-04
83 -3.7457059624576073e-05 9.3626942530330092e-04 -3.1904988609869595e-04
84 3.9992317734639793e-04 8.5806675630684267e-04 2.8894237760095418e-04
85 4.1586285931598488e-04 7.9822284668464190e-04 4.1967699233526540e-04
86 2.9109195533288381e-04 8.6712988297957217e-04 3.8379752948221985e-04
87 3.0121840924347441e-04 7.9751956207782179e-04 5.1501400335554680e-04
88 1.8123499807532798e-04 8.4961777517147572e-04 4.8518027681989349e-04
89 1.6571379499097312e-04 9.1257157619505590e-04 3.4891543747576302e-04
90 5.6229177016524573e-05 8.8481504681661249e-04 4.4878743451735203e-04
91 7.5707653877050106e-05 8.1175918091534239e-04 5.7650960640518345e-04
92 -4.5549537105416438e-05 8.4288111898649966e-04 5.2934254065533412e-04
93 -7.9533053679160643e-05 9.0409282552575193e-04 4.0077430140292476e-04
94 -1.8378734756515285e-04 8.5365965190010605e-04 4.7571397353546660e-04
95 -1.4720861724393372e-04 7.9071991415918124e-04 5.9118220100947392e-04
96 -2.1614812564262610e-04 9.0134775671220336e-04 3.4984704324802856e-04
97 1.1334486444793372e-04 2.2036355612446186e-04 9.9569102420226014e-04
98 5.3490251407847203e-04 6.8887894208656054e-04 4.8148199064914249e-04
99 1.7200338353260306e-04 3.3883525126926787e-04 9.4869324645748161e-04
100 4.0712562276775534e-05 3.4461982902476892e-04 9.6233370303787412e-04
101 -1.2342720967800988e-05 2.2603727072600266e-04 1.0010606882938432e-03
102 -9.1250101721872051e-05 3.3040865616416014e-04 9.6389214338497473e-04
103 1.8699931346690500e-04 9.3591832175782047e-04 -2.5895499888232732e-04
104 -1.0787550547402146e-04 9.4766704571286298e-04 2.6094973092094195e-04
105 -2.3927996038250170e-04 9.3393355283180959e-04 2.1605971525081374e-04
106 -3.4430841342228803e-04 8.7920707602508750e-04 2.9584928871651943e-04
107 -1.4924585486487756e-04 8.9771110995898304e-04 -3.9439807860589655e-04
108 -1.3507838269622002e-04 8.3317775942901321e-04 -5.2950115421566914e-04
109 -3.6779199928972634e-04 9.0265597309457382e-04 1.5651171032281879e-04
110 -2.6388554233952837e-04 8.3609418090952869e-04 -4.6872053831977461e-04
111 -2.3817824211167370e-04 7.6434156817522007e-04 -5.9794972158098677e-04
112 -3.7110212369420923e-04 7.5197278364860321e-04 -5.3890390594113079e-04
113 -3.3591104159932825e-04 6.7119714195060687e-04 -6.6453300053744902e-04
114 -4.6231266155095658e-04 6.5590119537742200e-04 -5.9544741448061794e-04
115 -4.1760015720505037e-04 5.6214593483994537e-04 -7.2166340332934474e-04
116 -4.9039396490852764e-04 7.3707207995174267e-04 -4.5124810984597304e-04
117 -2.8032044317512380e-04 8.9201433939037930e-04 -3.2539024775604561e-04
118 -2.8137689896285908e-04 7.7350581224896792e-04 5.6517407651300198e-04
119 7.0044395757801127e-04 6.6132103418863259e-04 2.2115906701695502e-04
120 -2.8874841510718937e-04 5.7514344929765916e-04 -7.7698814063368736e-04
121 -3.6779721675032602e-04 4.6103112933894996e-04 -8.2221551005777038e-04
122 -4.9167272574216533e-04 4.6188076120051399e-04 -7.4777150628402517e-04
123 -4.3242643069750660e-04 3.5571028457702023e-04 -8.4477710844150611e-04
124 -5.7941123213236352e-04 6.3874954566125878e-04 -4.9659806208224235e-04
125 -5.9888804230846836e-04 7.0339400909530110e-04 -3.5853848162823842e-04
126 -6.8672362198007734e-04 5.9234021048810677e-04 -4.0237684266385609e-04
127 -4.6407422544676697e-04 8.3999028449997489e-04 2.3661180933970391e-04
128 -5.6549933582698603e-04 3.5231618724751137e-04 -7.5575971450677585e-04
129 -5.0540996856598020e-04 2.4095190835800152e-04 -8.4475099219716190e-04
130 -6.3143393027104892e-04 2.3597611372348152e-04 -7.4830983338027197e-04
131 -5.6874678664572292e-04 1.1902520461686462e-04 -8.2913563535417329e-04
132 -6.8569278253487729e-04 9.9751202934004373e-05 -7.2966468177120545e-04
133 -6.0782629475777364e-04 -7.1532405326793226e-06 -8.0812032191057562e-04
134 -7.1564429323909098e-04 -3.4715678374325520e-05 -7.0482813853866330e-04
135 -6.3252779727911602e-04 -1.4368961228780649e-04 -7.7301687287157630e-04
136 -7.8477875413939739e-04 7.6772865027851625e-05 -6.1586039088796065e-04
137 -8.0860985889360311e-04 -6.3625063496985950e-05 -5.8335841486323531e-04
138 -8.6541613511768162e-04 4.7504320327181126e-05 -4.8948016266113037e-04
139 -8.8151742046669083e-04 -8.8969123187594817e-05 -4.5066121538933054e-04
140 -9.2656955122546504e-04 1.1087870487571732e-05 -3.5145106990832535e-04
141 -9.3326257554622745e-04 -1.1813772592206604e-04 -3.0916109560711539e-04
142 -9.6474927784506921e-04 -1.2281247386514661e-05 -2.1425461874998689e-04
143 -9.6213178156931303e-04 -1.4254424242129954e-04 -1.7315825633977268e-04
144 -9.8299301771859150e-04 -2.9577762725916620e-05 -8.3949465064317303e-05
145 -9.7378890019683359e-04 -1.5660058804847280e-04 -3.6652042711672111e-05
146 -9.8418009712211187e-04 -4.4504337219326769e-05 5.8292929294100090e-05
147 -9.6673619806241992e-04 -1.7086687745738010e-04 1.0573251375352984e-04
148 -9.4476326166864611e-04 -2.8580520439767270e-04 1.2046785365964221e-05
149 -9.2741048297936271e-04 -3.0513352483111885e-04 1.5141010249004568e-04
150 -9.3748782054100827e-04 -1.9230526260612980e-04 2.5076412661142702e-04
151 -8.8839341027995998e-04 -3.2437327925259965e-04 2.9355076896957390e-04
152 -8.8905979464043807e-04 -2.1112716828957311e-04 3.8730466571656373e-04
153 -8.3237985250104161e-04 -3.2991374624529677e-04 4.3113397920919576e-04
154 -8.8287588152590293e-04 -2.1763062051614009e-04 -3.9756065609567755e-04
155 -8.2381377118054765e-04 -2.1243422421488720e-04 5.1923811865872476e-04
156 -7.5723812098712714e-04 -3.2703303854671461e-04 5.6247864899454478e-04
157 -8.7412928302584459e-04 -7.9335176214620856e-05 4.6850798927222269e-04
158 -7.3780086483521249e-04 -2.1049037460073026e-04 6.4440321052657576e-04
159 -6.5654492855024647e-04 -3.3249440321694862e-04 6.8303981272118395e-04
160 -9.8306157736964702e-04 8.3734184507602388e-05 4.4424602128204119e-06
161 -6.3328011789873814e-04 -2.0940794432971970e-04 7.5567999225485195e-04
162 -5.4097370783554076e-04 -3.2280208731985839e-04 7.8999705915549481e-04
163 -5.1713693076201647e-04 -1.1191453794989283e-04 -8.6663374334912933e-04
164 -5.4618282177353896e-04 -2.4592206787544347e-04 -8.1560835342987391e-04
165 -7.0067532149215765e-04 6.4194472238870385e-04 -2.7431521149480037e-04
166 -1.5127236581111923e-04 2.1363382653799833e-04 9.9151101573274458e-04
167 -2.2253825131014835e-04 3.1706954005165618e-04 9.4515778542267684e-04
168 -4.2876071334053452e-04 -2.1523149811049385e-04 -8.9761599815363531e-04
169 -4.4580013800437398e-04 -3.4089671597498355e-04 -8.4450500519066664e-04
170 -5.5447527928197962e-04 -3.7955167563685316e-04 -7.5133323748865783e-04
171 -4.4926980247039962e-04 -4.7090993348149028e-04 -7.7146240981414865e-04
172 -5.5737731593298817e-04 -5.0752011721051204e-04 -6.6194268709705655e-04
173 -4.4482557713587570e-04 -5.9648766260897294e-04 -6.7395225802800078e-04
174 -5.4452637434438593e-04 -6.2117051825340372e-04 -5.6113636286453990e-04
175 -4.3105644588517544e-04 -7.0702665000020137e-04 -5.5818480207930226e-04
176 -7.6490329933516575e-04 -4.2906970814636324e-04 4.6962346531863428e-04
177 -5.2655981214714360e-04 -7.1362124146897145e-04 -4.5016270741885536e-04
178 -4.0014788304340766e-04 -7.9696692729110379e-04 -4.3999961686491196e-04
179 -3.0441996431707915e-04 -7.7818130957892377e-04 -5.4570129734001643e-04
180 -2.6752395719667726e-04 -8.5813531871415164e-04 -4.2450522305539559e-04
181 -1.6732908708906463e-04 -8.2875590395673849e-04 -5.2932374801816255e-04
182 -1.3279521816636090e-04 -8.9793991977158945e-04 -4.0411452390225265e-04
183 -3.4646838802723677e-05 -8.5199894308033396e-04 -5.1735728083611269e-04
184 -5.4454452864616860e-06 -9.1614169387545436e-04 -3.8297910198035822e-04
185 -9.3929606664558881e-05 -9.4731424031989494e-04 -2.7371514430943897e-04
186 4.1259332082035128e-05 -9.5714289483481347e-04 -2.4970471630096928e-04
187 -5.3229643831667892e-05 -9.7589319299663877e-04 -1.4930662132329374e-04
188 8.5234268003194009e-05 -9.7693354183197960e-04 -1.2465242919230081e-04
189 -8.5910045222507968e-06 -9.8763114658465510e-04 -2.0607100902343895e-05
190 1.1964559900517686e-04 -9.8057849890015834e-04 1.2095500493411545e-05
191 3.3253131553308985e-05 -9.8095419824966367e-04 1.1654080883719040e-04
192 1.6140072552407121e-04 -9.6408622461790312e-04 1.4929815906070446e-04
193 7.2626995950317110e-05 -9.5567616456974198e-04 2.4916983126607283e-04
194 2.0414519662510515e-04 -9.6259012906795200e-04 -8.9480923020359408e-05
195 2.0046444395883470e-04 -9.2960641208220118e-04 2.7843949070452981e-04
196 1.0179075169495017e-04 -9.1167408757189354e-04 3.8101477500850523e-04
197 1.1270065095494411e-04 -8.6432947516733684e-04 -4.8347167850071673e-04
198 -9.1044870708463721e-05 -9.8031748518588309e-04 8.1307063723980437e-05
199 2.3287629412678312e-04 -8.7809829335247838e-04 4.0327394692867816e-04
200 3.2776742740519465e-04 -8.8666758634209299e-04 2.9847952956939039e-04
201 3.5369273488527147e-04 -8.2603533295807824e-04 4.2627967996079497e-04
202 1.3209514863643331e-04 -8.4726208923273469e-04 5.0946255568780504e-04
203 4.4734994868274536e-04 -8.2477566336810646e-04 3.2129734265043083e-04
204 -4.0334213762436429e-06 -8.7505726261037772e-04 4.7617660117854832e-04
205 3.2536749497378123e-05 -7.9628632074415433e-04 6.0624566918102542e-04
206 -8.9263441168830097e-04 -4.1778627908499103e-04 6.0161541539684503e-05
207 -7.3098326765911622e-05 -7.6952292781299551e-04 -6.3862882855204286e-04
208 -1.0697218994134070e-04 -8.1719387785064474e-04 5.6548123842750696e-04
209 -7.0316838317803409e-05 -7.3038989839784246e-04 6.8694349446578090e-04
210 4.6575777767231464e-04 -7.5792878806159054e-04 4.4585690006626822e-04
211 5.5681591182909140e-04 -7.5083421502155853e-04 3.3166664862427819e-04
212 -4.8863054342392369e-04 -7.9481670808980137e-04 -3.3521561776488377e-04
213 6.5502537667716743e-05 -7.0314547019443554e-04 7.1764236377983731e-04
214 -3.6618070522123027e-05 -6.2958824243364666e-04 7.9020752118881760e-04
215 -3.2147097428021187e-04 -3.1498073869868948e-04 -9.1435334692448677e-04
216 -2.0520585881156442e-04 -7.4554109520236971e-04 6.3813479591527666e-04
217 -2.3887531193852719e-04 -8.2042056272847524e-04 5.1435637469664979e-04
218 5.3814018046633794e-04 -8.0404223241730939e-04 2.0845447680769151e-04
219 6.5275192719701288e-04 -7.0887056083270927e-04 2.2764496836023799e-04
220 6.1804254616630854e-04 -7.6531796093798799e-04 9.7848952182091789e-05
221 -6.2968804446356639e-04 -6.2809810713527103e-04 -4.4435126656575753e-04
222 7.2373697738072561e-04 -6.6367638703217701e-04 1.1648508505764765e-04
223 6.7975402538668882e-04 -7.1700625900438994e-04 -1.9516189453772915e-05
224 -3.0946497324471108e-04 -1.7749417357539369e-04 -9.5836202846488760e-04
225 -9.4813131080177392e-04 1.0731531129188581e-04 -2.5913145632281608e-04
226 9.6810812053289971e-05 -5.9421173092892923e-04 8.1427819240073053e-04
227 -2.5511908170930380e-06 -5.2097157785946716e-04 8.7295663258323052e-04
228 -5.2004867593441007e-04 -1.8573659064752783e-04 8.5079631615460338e-04
229 -5.9544160603334042e-04 -7.9362964946677673e-05 8.1366413175482859e-04
230 6.5526701550274043e-04 -6.5395762403611839e-04 3.5796921231571013e-04
231 3.7671829641455166e-04 -7.5036507847985165e-04 5.4020028655518953e-04
232 4.9815327179060899e-04 -6.6358262573594973e-04 5.5782428693718143e-04
233 7.7296339298046869e-04 -6.1545167215795466e-04 -5.3102359023809476e-06
234 7.2948918920106318e-04 -6.5342362972867316e-04 -1.3579077100668916e-04
235 -3.7656046070769298e-04 2.4237752959093317e-04 -9.1506218174273351e-04
236 3.1018566591823097e-04 3.4316474676429371e-04 9.0765923256241302e-04
237 -4.2727395240817174e-04 -2.9523695657134740e-04 8.7347951980861090e-04
238 -8.3203057707385863e-04 1.9221366623405561e-04 -5.1416020826689033e-04
239 6.2721281656661970e-04 -7.4833944746127473e-04 -1.5702116981899049e-04
240 6.7032556732995303e-04 -6.7599876020788376e-04 -2.7426111117764991e-04
241 -5.7486620210787725e-04 -4.3816419196951272e-04 6.9835123534557565e-04
242 5.6192712301668781e-04 -7.6178912017910508e-04 -2.9346579337301732e-04
243 5.9828309049589931e-04 -6.8227784234079641e-04 -4.0525753726792954e-04
244 6.9727269332099000e-04 -5.8963194225354707e-04 -3.9123754962014687e-04
245 6.1601168163054158e-04 -5.9137961549373850e-04 -5.1536976900461618e-04
246 -2.0319965178828498e-04 -2.5687305135306266e-04 -9.6992583233353657e-04
247 8.0905594586395361e-04 -5.5530830768772959e-04 1.2102934346712106e-04
248 2.3954482978582128e-04 4.4433638616609453e-04 8.8242822377601799e-04
249 -3.9839595083257778e-04 -1.5353455741549599e-04 9.2647855841403344e-04
250 3.6250978803139682e-04 4.4509576605296396e-04 8.3489328940463325e-04
251 -2.1336532856789826e-04 -3.7787145539994638e-04 -9.2290256186364260e-04
252 -8.9516036180683857e-05 -3.2911899606690971e-04 -9.6506365182796286e-04
253 3.7650753689780230e-04 9.0143457332397781e-04 1.4424319144263850e-04
254 -6.0902675908210829e-04 7.4474308443754134e-04 -2.2558505326326629e-04
255 -7.0439491879889797e-04 6.7642909135467695e-04 -1.4341338080888996e-04
256 -7.8628047389728902e-04 5.6947188633512573e-04 -1.8122045947783691e-04
257 -7.7992177009921242e-04 6.0211335403018520e-04 -4.6903530793963512e-05
258 -2.1786942839617890e-05 4.4174666902275567e-04 9.1825214353906176e-04
259 -3.0364487035397346e-04 -2.5550069681680952e-04 9.4117715414228885e-04
260 -2.8199019175922485e-04 1.9561321714003992e-04 9.6380233649721750e-04
261 -3.5040491960392081e-04 3.0930844512836136e-04 9.0465524493046142e-04
262 -2.7072196106476247e-04 -1.3978599620173790e-04 9.7814567245364283e-04
263 -1.7660039208611941e-04 -2.2111903807993361e-04 9.8545488921303413e-04
264 -8.5126929802596207e-04 4.9189326472791166e-04 -8.3622959581776147e-05
265 -8.3183036175637495e-04 5.2704280302666700e-04 5.9827209901335823e-05
266 -3.3615841631048178e-04 -7.4135518007228214e-04 5.8055445475510906e-04
267 -3.6693744202302779e-04 -8.0639145976202267e-04 4.5278148373344065e-04
268 5.1225774791979002e-04 -6.7982162615206265e-04 -5.2007661111243069e-04
269 5.2095265303127682e-04 -5.7628147339277148e-04 -6.3331286265690557e-04
270 6.2089401497579988e-04 -4.7959440069319907e-04 -6.2298917929460326e-04
271 5.1214454755255199e-04 -4.6147530871498888e-04 -7.3465894502262592e-04
272 4.0253754927056622e-04 -5.5213496371812171e-04 -7.4087513678236332e-04
273 -2.9020240363698124e-04 4.2212219978865164e-04 8.7744924973508687e-04
274 -4.2270663283810545e-04 4.1164905875403201e-04 8.2242202736302825e-04
275 3.9079555000883778e-04 -4.4455371815453571e-04 -8.2185890454532185e-04
276 2.7442535387519750e-04 -5.2536295085103086e-04 -8.2129535609128698e-04
277 -3.3073664728660359e-04 -3.7529013715878598e-04 8.8544873884875198e-04
278 -1.3329750561604493e-04 9.6974811634345525e-04 1.2570677110940683e-04
279 8.0979854318014521e-04 -5.5259886809824450e-04 -1.2504065502395704e-04
280 -2.3393103914079647e-04 4.7369223587153373e-04 -8.6666927532869412e-04
281 -1.5034208969845388e-04 5.7696832338505102e-04 -8.1716715995709915e-04
282 8.4942159817998791e-04 5.0447295026491608e-04 1.6235107095189440e-05
283 1.3299369078518996e-04 -4.6907550100144552e-04 8.9394308781540915e-04
284 -9.7484930029212923e-04 6.3730119195937315e-05 1.4214156712018299e-04
285 -9.0090891837186062e-04 -3.9699952048601625e-04 -7.5433212961513679e-05
286 -8.4056930658600289e-04 -5.1721958536276040e-04 -2.8977803313366700e-05
287 -8.2477433497049927e-04 -5.3288107605958758e-04 1.0707138763666767e-04
288 -7.6076695264298540e-04 -6.2904269594019221e-04 2.5108560668051964e-05
289 -7.4149421569415675e-04 -6.3333556786657110e-04 1.6090103741840165e-04
290 -6.6864457743141489e-04 -7.2221906887698307e-04 8.2536385247724398e-05
291 -1.9261483686976272e-04 -9.5545196261123070e-04 -1.6720407535662072e-04
292 -2.7587657029080453e-04 -8.7413689741495818e-04 3.8220236605305890e-04
293 -3.3824330653117854e-04 -5.5464273022575253e-04 -7.7283383297039438e-04
294 -8.9216791119408001e-05 -4.7926212289837290e-04 -8.9423972821950804e-04
295 -4.8506950716464451e-04 2.9391309757862246e-04 8.3997907310786159e-04
296 -5.4851374900566265e-04 3.9468389066974748e-04 7.4718096099792464e-04
297 -8.5453660961000747e-04 4.4888071024405907e-04 -2.1160679231462017e-04
298 -6.1392879281469445e-04 2.6827464074553507e-04 7.5297969689792649e-04
299 -6.5967332446138793e-04 3.7559192036415115e-04 6.5454522370089849e-04
300 -5.9332448765017816e-04 4.9274194864089814e-04 6.3902921730223496e-04
301 -7.0313380117348291e-04 4.5779705025177650e-04 5.3879063809343663e-04
302 -7.6005667709457556e-04 3.3808529069555727e-04 5.5055071782824554e-04
303 -3.0528817170149143e-04 -6.6100955437363906e-04 6.9296559120663977e-04
304 -6.2665102312525311e-04 5.7790857626712486e-04 5.1576315551235042e-04
305 -7.9523846356433989e-04 4.0798565303477678e-04 4.3348826634878254e-04
306 2.2119513932251613e-04 -5.4880222182867645e-04 8.2244421424532024e-04
307 2.4904685308437793e-04 -4.3338636831641460e-04 8.8650108952080357e-04
308 3.5097357932352272e-04 -5.0179449285195929e-04 8.0591680781626988e-04
309 -4.5045886598054204e-04 -7.2883362048400122e-04 5.0857714253907513e-04
310 -8.4434276997883665e-04 2.8586305246513659e-04 4.3858843059651115e-04
311 -4.0841856244292667e-04 -8.4638431583814074e-04 3.1567678060138917e-04
312 -7.5108207360226852e-04 6.3346318045623580e-04 8.8657000270350977e-05
313 -8.4211726585399895e-04 -4.8959685246100578e-04 -1.6649506470546739e-04
314 -5.8482482713278488e-05 1.1628451767453754e-04 1.0201290959081820e-03
315 -8.7284059997644325e-04 3.4975450029488627e-04 3.1074429307440850e-04
316 -9.6342540577441880e-04 1.9136111335527851e-04 9.4419114472303806e-05
317 -1.1158310982102678e-04 7.5867080950765560e-04 -6.4381666246554484e-04
318 2.7549705922072336e-04 -4.1112229509337951e-04 -8.8905226871613527e-04
319 -6.8137513794347653e-04 -7.1255512760079822e-04 -5.8257676567161881e-05
320 -5.9066592068848583e-04 -7.9105606062254252e-04 6.3276949615429145e-06
321 -6.4969660387913957e-04 -4.1392518395871913e-04 -6.4070657823920749e-04
322 -7.0323419193036142e-05 -2.0637949728441010e-04 -1.0031954547107334e-03
323 5.0091829368528816e-04 -8.4817125304822451e-04 8.0726714338714305e-05
324 -6.0495072683720299e-04 7.7395691135109725e-04 -9.0825094337095697e-05
325 2.8030279573907144e-04 5.4670255442011684e-04 8.0270974266264934e-04
326 2.9245634227950635e-04 -6.2994341484659371e-04 -7.2935988547999039e-04
327 1.6184184147477953e-04 -5.9765286416530480e-04 -7.9983697138352240e-04
328 4.0885438597916009e-04 5.3565516034600178e-04 7.4909981198296679e-04
329 4.8235661243574857e-04 4.3702066846570286e-04 7.7102612740895086e-04
330 4.3894596222575106e-04 4.2893845639975698e-04 -8.0270079576858660e-04
331 1.2699761093938047e-07 9.7225795968310525e-04 1.7289253861691836e-04
332 -2.8973704091952482e-05 9.8522547920494629e-04 3.7343430534807666e-05
333 -1.5858941521073152e-04 9.7330859952671884e-04 -1.1713043186688590e-05
334 9.7467094570799509e-05 9.7870982235938493e-04 7.8550777182637512e-05
335 3.6864512549405001e-04 -3.7366510017204408e-04 8.7047838323149748e-04
336 4.6026086004017410e-04 -4.3985621650491894e-04 7.8475040518136629e-04
337 -8.0616466974921296e-04 2.1166283571497218e-04 5.4751821314195199e-04
338 -3.4476335279974471e-04 5.2186262174681050e-04 7.9303961485379553e-04
339 -1.2107136536304381e-04 4.7039440932743681e-04 -8.9335625780505442e-04
340 3.9792082773903656e-04 -3.1790138762556131e-04 -8.7991250217466540e-04
341 2.2944490090885002e-05 -2.8705919582209681e-04 -9.8372541574035682e-04
342 -9.1615859523886940e-04 3.5446114285902326e-04 -1.0323554919454913e-04
343 2.8374198260667882e-05 -4.0147137608641210e-04 9.3902720188258524e-04
344 -5.0974864002566243e-04 6.0864445571017130e-04 6.0817602540864577e-04
345 -5.3202170607545530e-04 6.9657374714011261e-04 4.7181102305190634e-04
346 -6.4912499863216855e-04 6.4613073492092964e-04 3.8050662394596658e-04
347 6.1812975680021964e-04 -3.5510433456923556e-04 -7.0993395613424388e-04
348 7.1152023670398236e-04 -3.6793665557642444e-04 -5.9984123671945008e-04
349 5.2647140519786596e-04 5.2259379322643356e-04 6.7591427773726679e-04
350 5.9587396260557144e-04 4.1151993785497733e-04 6.9659588959851719e-04
351 6.3705315506802304e-04 4.9222047257130059e-04 5.9282132877700301e-04
352 6.9752383008437452e-04 3.7590559883355089e-04 6.1132591098795599e-04
353 7.3639219292412697e-04 4.5201181165048542e-04 4.9562467307950138e-04
354 -6.3879130291006844e-04 -7.2386603354936715e-04 2.1527261015285139e-04
355 2.6031788667770758e-04 5.4267985925341930e-04 -8.1224150624771313e-04
356 1.3793164199484885e-04 5.6175137328155560e-04 -8.3095674642652637e-04
357 -6.7481010713026004e-04 3.3009532326211405e-04 -6.6331005342079206e-04
358 5.1364245061895244e-04 -8.2733856019786688e-04 -1.7286571862144999e-04
359 4.4040712691536469e-04 -8.3553296844257325e-04 -3.0018746829432513e-04
360 -8.1282235867818854e-04 4.7643681624720161e-04 3.0350005026263445e-04
361 -1.3771250435047567e-04 -5.4753717694978042e-04 8.4259636215895260e-04
362 -1.9675803232546449e-04 3.7081938217783559e-04 -9.2934557446401373e-04
363 -2.1930176361531321e-04 5.2256290104023978e-04 8.3964246552775917e-04
364 -5.0911969153718867e-04 8.2910938641342466e-04 -1.6776630394169274e-04
365 1.6419769015238838e-04 5.5077795370784774e-04 8.3415843168043488e-04
366 -3.7035762807661316e-04 -3.2486907833686881e-05 9.5213291761802796e-04
367 -6.9774195883463505e-04 -6.3697289795369336e-04 2.9772225952352831e-04
368 2.1252735341419806e-04 6.6524619816786415e-04 7.2501106230489596e-04
369 8.1288345651880502e-05 6.2845558070422536e-04 7.8502459974370397e-04
370 7.0494908778350731e-04 -2.4341679259913502e-04 -6.7218666977035774e-04
371 -5.3672648678292512e-04 1.6823897736011113e-04 8.4349942755576298e-04
372 -6.6418914636348506e-04 1.3463181808336978e-04 7.4612503149385878e-04
373 5.5487238669844636e-04 8.1416994650741238e-04 -5.4917231987769289e-05
374 -1.6086263358637055e-04 -9.7519295958531404e-05 1.0100917313279080e-03
375 -4.8124003337703156e-05 -1.8330144453042405e-04 1.0098973921889784e-03
376 -3.0659963981186848e-04 -9.0923192133306988e-04 2.4396901465930499e-04
377 -4.3389894185129373e-04 -8.7311915301729361e-04 1.6852960694635296e-04
378 -9.1348725245151969e-04 1.9810485792208339e-04 3.3007487785927689e-04
379 4.1861371831779964e-04 6.3078730103893743e-04 -6.5778969062231822e-04
380 1.7197879550492998e-04 -7.0477053530276985e-04 -6.9575766662007574e-04
381 2.9655879194673312e-04 -7.2990842859549062e-04 -6.1780746784603194e-04
382 -8.9100544240125696e-04 -3.7250660811248348e-04 -2.1145501678989149e-04
383 -8.2295929318736052e-04 -4.6294054560259317e-04 -2.9794865992447637e-04
384 -7.6444098303942527e-04 -5.7415900347064931e-04 -2.5558207556540167e-04
385 -1.6991635126543307e-04 -9.2943873672449910e-04 2.9946642902006608e-04
386 -6.6064683428696306e-04 5.2344147353935826e-04 -5.3143631046512988e-04
387 -7.5671174004522234e-04 4.7351987787505210e-04 -4.3517939500191822e-04
388 8.6718577218187446e-04 2.4589186120465228e-04 -4.1771052471456087e-04
389 -8.9706425198642754e-04 3.3117022148887400e-04 -2.5086041566899482e-04
390 -4.9883235388344018e-04 8.5014141534443669e-04 -3.4525843524756255e-05
391 -3.9990727025360982e-04 8.9457374702381711e-04 -1.1592918545610741e-04
392 -5.8567743503451692e-04 7.9227667101397395e-04 4.1641235345262338e-05
393 -5.8728539087087397e-04 -7.8429432619025845e-04 -1.2729802553315260e-04
394 -4.9723391289884324e-04 -8.5064201540769420e-04 -6.3659307825123757e-05
395 6.7843067867557813e-05 9.8244143635702963e-04 -5.6427873424129402e-05
396 2.0350022764378768e-04 9.6504478616034892e-04 -2.0758688857155596e-05
397 5.1225828843538086e-04 3.2865173229321512e-04 -8.0769059047643707e-04
398 2.7041215753701765e-04 -2.9620080533097583e-04 9.3959848506693783e-04
399 3.8873630821684076e-04 -2.2274715434181212e-04 9.1666631567521167e-04
400 -2.7280937326348864e-04 6.0928263923823466e-04 7.5438916512423032e-04
401 -1.5800014643933474e-04 6.1777593560812601e-04 7.8118452764080765e-04
402 3.2485237030326959e-04 -6.1190583712849200e-04 7.3152298619257288e-04
403 6.6130768834243121e-04 2.8411806592653754e-04 7.0169200842018823e-04
404 6.5524310410189010e-04 5.8188273013665040e-04 4.7298463529295412e-04
405 -3.1399321041198199e-04 -9.3149204509861583e-04 1.0039887081439280e-04
406 2.7091513523849867e-04 -2.8015346954317658e-04 -9.4419970279646496e-04
407 3.6749266933212426e-04 -1.9546394500402032e-04 -9.3168513283206839e-04
408 8.6611194708056035e-05 4.5107436109013710e-04 -9.0861656971802786e-04
409 -8.7740864227722976e-04 4.2224170942358873e-04 1.7060623659858698e-04
410 -4.4705219753701363e-04 8.0253917295080625e-04 3.7270269343815448e-04
411 5.5272360202220582e-04 4.2256070121286869e-04 -7.2545380037691148e-04
412 4.4695753471165153e-04 6.3929767441092981e-04 6.2861137949557510e-04
413 7.9707107095433572e-04 3.0923290894294711e-04 5.1286835203904178e-04
414 8.2370584396908384e-04 3.9200877614469463e-04 3.9139391284818308e-04
415 5.9271716749450260e-05 -1.5222884390982738e-04 -1.0145481647595880e-03
416 -9.6047912964354056e-04 2.2222908522417082e-04 -4.1424451284335783e-05
417 -7.8116032939712598e-05 3.5979549610125203e-04 -9.5277860012375759e-04
418 -1.3636605762071805e-04 2.5245798022093603e-04 -9.8339633407155480e-04
419 4.8191675964088645e-05 1.5277365366610891e-04 -1.0137807295037527e-03
420 -7.9277872827838576e-05 -9.2630291465262257e-05 -1.0207000849486124e-03
421 -9.3354919342056959e-04 3.1514171705066668e-04 5.4669929592680916e-05
422 7.8905060842770960e-04 -2.5334454634972454e-04 -5.5763706727520216e-04
423 7.9350850788582287e-04 -3.7127019298565912e-04 -4.7357442489217688e-04
424 2.3666374443059404e-04 9.5168975633704326e-04 1.1236480325923826e-04
425 4.1677543964693223e-05 -6.7804282105009338e-04 -7.4559037396414478e-04
426 3.4633009733588778e-05 -5.4342444587623527e-04 -8.5704392199117388e-04
427 -7.8615892349550472e-05 -6.0332638802980257e-04 -8.0775381968589894e-04
428 3.9822582269116816e-04 -8.8748781162002689e-04 -1.7741878463030459e-04
429 3.2460420342323646e-04 -8.9032750209044008e-04 -2.8873508585569097e-04
430 3.5594429864201072e-04 -8.3298611484622885e-04 -4.0850319774264469e-04
431 -5.9590644187417711e-04 -7.1738172743975503e-04 3.3590354540656309e-04
432 -6.3626511803400619e-04 -6.2555045624932684e-04 4.3944565544734587e-04
433 1.5858622157008723e-04 -3.4956305961762122e-04 -9.4721637186411846e-04
434 -1.2793550399953154e-05 5.6546882647094904e-04 -8.4149177609008530e-04
435 6.8685405340222986e-05 6.6659165884530255e-04 -7.5228408327235124e-04
436 8.7380536104929925e-04 2.5624024363074337e-04 3.9592601825954492e-04
437 8.8914484370136585e-04 3.3765791616228915e-04 2.7429259233633426e-04
438 8.3220467205159191e-04 4.6192700531606247e-04 2.7026819910075389e-04
439 7.4945273543150569e-04 2.4071793557080577e-04 6.1900441480664404e-04
440 -5.6648885190079738e-04 7.4961903150526170e-04 3.1247474612295837e-04
441 -6.8313190060475724e-04 6.7699682073519033e-04 2.3077918892416843e-04
442 6.7984360092327139e-04 -1.2855624430713959e-04 7.3241625406870331e-04
443 7.0764892422893455e-04 -2.4818530003741190e-04 6.6773559512256790e-04
444 7.9905319902667208e-04 -2.5123186829225427e-04 5.4345584754546565e-04
445 7.3207770256554917e-04 -3.6774686602678919e-04 5.7272630889233323e-04
446 8.0190991148011378e-04 -3.7285756957403928e-04 4.5688178872168390e-04
447 7.2652175617078489e-04 -4.7685425033673449e-04 4.8740395915745016e-04
448 6.5396770809877307e-04 -4.7407469985688718e-04 5.9004155013985275e-04
449 7.9422664186868806e-04 -4.7506537912463728e-04 3.5895406755837646e-04
450 8.6169260417737052e-04 -3.6336893474434197e-04 3.3056127053012998e-04
451 6.2623030617365194e-04 -5.9444348854055312e-04 4.9936056854039924e-04
452 6.8667523409736192e-04 1.2765684242662751e-04 7.2618854413704912e-04
453 -5.6851038006228128e-04 -7.9624037135464531e-04 1.3866335301215390e-04
454 3.4419128895482561e-05 -4.1731886958360501e-04 -9.3102548407144909e-04
455 8.8665272095985338e-04 4.0863012873810551e-04 1.5213327444650512e-04
456 4.9031489983159405e-04 -2.2208479329548746e-04 -8.6079890710624837e-04
457 4.9909394788663760e-04 5.1893545311104705e-04 -7.0020237440697355e-04
458 6.0166716616974405e-04 -2.5089867247973661e-04 7.7185975357320802e-04
459 1.3119378413686399e-04 9.5568338293313922e-04 2.1448313661895753e-04
460 6.2727303810994209e-04 6.8528889525952595e-04 3.4569605478096204e-04
461 3.8110080964436673e-04 5.2778366314538820e-04 -7.6994039000907060e-04
462 -4.1777018080005633e-04 6.9491414399944088e-04 5.8291222391299740e-04
463 7.7067234938239359e-04 -1.2736572174637704e-04 -6.2715228518941003e-04
464 8.6365831443282451e-04 -2.4917138624684963e-04 -4.2480798264745925e-04
465 8.6249985292404516e-04 -3.6525182100936821e-04 -3.2583116465627495e-04
466 -9.0763539438527279e-07 8.1877817389499718e-04 -5.7083365505813065e-04
467 9.2037358015224541e-04 -2.4153573981897604e-04 -2.7462328421612632e-04
468 9.0879793244678117e-04 -3.4955207919174370e-04 -1.7556150432853913e-04
469 1.7195746406516494e-04 3.3659683799162047e-04 -9.4882591781886706e-04
470 8.4084269959157744e-04 -4.6818010034631687e-04 2.3257150135713142e-04
471 9.0481726665376247e-04 -3.4865160913232087e-04 1.9555624520288257e-04
472 2.0183976780049014e-04 7.6392911314470833e-04 6.1345644998542584e-04
473 1.5616267205668339e-04 -2.3373970520773794e-04 -9.8565573623738529e-04
474 2.2723484444106296e-04 -8.9051534064144261e-04 -3.7544775153221233e-04
475 5.5332174777709183e-04 7.6177953585450256e-04 -3.0578646515620636e-04
476 3.1522566251058597e-04 7.0920307548529493e-04 6.3235697454555714e-04
477 2.8350773214804402e-04 7.1890290313010477e-04 -6.3669832006647419e-04
478 -1.8754282967753893e-04 -5.7324024289704463e-04 -8.1176811188658413e-04
479 -1.7230571984742628e-04 -6.8283294624311920e-04 -7.1844916718816524e-04
480 -3.9040109549802910e-04 8.2300676389421041e-04 -3.9244502690676794e-04
481 1.9874516904046263e-04 6.5603671722655260e-04 -7.3691341416312888e-04
482 7.5201929407810327e-04 -5.9344346060320123e-04 2.5509749486898572e-04
483 8.8001173981645570e-04 -4.3872212474560540e-04 9.8401364942806967e-05
484 9.3292714894145764e-04 -3.1747712705839319e-04 6.6142035039984997e-05
485 6.0656849831330331e-04 -2.3130247521073298e-04 -7.7318562126632454e-04
486 4.0893065106878011e-04 1.4528652460218128e-04 -9.2205231930015319e-04
487 9.7766422287056840e-04 1.2641833942621014e-04 -6.0708697810535181e-05
488 9.4418453904394277e-04 2.6948286305152346e-04 -1.1551436298990290e-04
489 9.5876225050514153e-04 2.3233384148555535e-04 1.6744646800379285e-05
490 8.8503334841933149e-04 4.2566978194824156e-04 -1.0580791643420584e-04
491 3.3931508038904522e-04 9.2643321392651360e-04 1.3303962552667268e-05
492 2.9905626762315792e-04 9.3124233549801857e-04 -1.3860392418095854e-04
493 4.3433562742004658e-04 8.8240111548845040e-04 -7.9563112466022440e-05
494 9.0549823452941262e-04 -3.9332866786827059e-04 -2.9877852222414114e-05
495 9.4635191389042818e-04 -2.7613721945314872e-04 -6.0574747250108016e-05
496 -3.9237357479389798e-04 9.0466155318397201e-04 1.9307636820920049e-05
497 9.7594613271605125e-04 1.2643334281970626e-04 8.4451014505458800e-05
498 6.6432686247272911e-04 6.7462907428293901e-04 -2.8859559851737639e-04
499 9.7846095743324619e-04 -1.2490264027447003e-04 -6.1526347602437523e-05
500 9.5474681937824225e-04 -1.2176766420450593e-04 2.2991791611058832e-04
501 9.1485953879378895e-04 -1.2084185162668313e-04 -3.6520063085533015e-04
502 8.5555361956750114e-04 1.2177182363108739e-04 -4.9551856659349079e-04
503 8.5224866545025122e-04 -1.1985374136091719e-04 5.0308008860791055e-04
504 4.3813605340995354e-04 1.1265682396377403e-04 9.1354453815314127e-04
505 4.3826629502363398e-04 3.3091249064974787e-04 8.5313866683260262e-04
506 6.4397319528912249e-04 -3.5751435814413942e-04 6.8321891008711676e-04
507 3.3494691892142900e-04 -1.1446366623888865e-04 9.5999055419327263e-04
508 8.2780770371355036e-05 -1.2993093443957519e-04 1.0169570382820188e-03
509 1.5709075285362970e-04 -2.3038210441813495e-04 9.8671475019161421e-04
510 2.7119961271137054e-04 -2.0465748279377801e-04 9.6481420763301650e-04
511 -2.0184021367519628e-04 6.7854333355855533e-04 -7.1342082156488371e-04
512 2.7076764852241718e-04 9.2013758586746057e-04 2.4013630075999092e-04
513 5.7192738749815885e-04 -8.0498647779681843e-04 -3.6838553281546929e-05
514 2.4789016074043638e-04 -9.5527547228503107e-04 4.6651729454970797e-05
515 2.9122028883392067e-04 -9.2914071156972617e-04 1.7420911312539670e-04
516 -5.3982908212926088e-04 5.5890645651909062e-04 -6.3070689379468668e-04
517 7.6344598157522797e-04 -5.7682639465294401e-04 -2.5504985993699892e-04
518 -1.3774476773512211e-04 -9.7707846439322845e-04 -4.6094343673409144e-05
519 -2.7906932357435617e-04 -9.4694412573011948e-04 -4.8548386452894733e-05
520 -3.2203927600500654e-04 -9.1505959101598688e-04 -1.9324233239870190e-04
521 -7.7725137555575302e-04 5.2886499795482271e-04 -3.0986241647872271e-04
522 -9.7277108959839792e-04 1.0709880823662620e-04 -1.2945081120507967e-04
523 7.7359072923984516e-04 6.0248473194083598e-04 1.1559869109509401e-04
524 -7.9244968661083077e-04 -5.3816794445608635e-04 2.4803823953251677e-04
525 7.5959689102073091e-04 5.1172179036444167e-04 3.8129521811079128e-04
526 4.8267037610302425e-04 -7.6419067948612122e-04 -4.1353822881883700e-04
527 -9.4152987351664203e-04 -2.7071183370898052e-04 -1.2468235829966417e-04
528 -9.2920372712825114e-04 -7.2929097092588207e-05 3.3667282675188152e-04
529 -9.0496797005870688e-04 5.5117704988562896e-05 4.0433030506677121e-04
530 -8.3644120104272072e-04 5.1229318714025400e-05 5.4194375943257740e-04
531 -7.6848794458541693e-04 -6.0995588639625460e-04 -1.1604189384082003e-04
532 -9.6541362890461820e-04 -6.0604875300403899e-05 2.0263588673483779e-04
533 -7.2673014862780394e-04 5.2904762490802869e-04 4.2155055197023701e-04
534 -6.8960249535587360e-04 7.0468880984488611e-04 -1.4871220239561897e-05
535 -2.3381135989004081e-04 -9.1644208939039684e-04 -2.9571751457455904e-04
536 6.1730838299320194e-04 7.5234300456241624e-04 -1.6924983097705781e-04
537 -1.4086350488957654e-04 -8.8382997008610740e-04 4.3424677637470953e-04
538 -4.7231093273071648e-05 9.8077813656309229e-04 -9.4883102416039184e-05
539 -1.6882655616461438e-04 9.3686262615119730e-04 -2.6643486617977582e-04
540 5.5805537145239846e-05 9.6535372762250734e-04 -2.0500359841821615e-04
541 -9.2606039246406031e-04 2.8193973337922517e-04 1.9795486098108582e-04
542 -8.6751326662135616e-04 -4.3232613297252288e-04 1.9468599924343642e-04
543 -7.9885334041308333e-04 -9.0342794200642287e-05 5.9408725447974043e-04
544 -7.4995687080883701e-04 1.3012048738015011e-05 6.6541453416089132e-04
545 -6.5116416925124353e-04 -5.2644456002556319e-04 -5.4264315229558412e-04
546 -7.3350119917295993e-04 -4.2351945172999707e-04 -5.2553419201789152e-04
547 -7.4010024403295361e-04 -2.9642424191228284e-04 -6.0372493465395637e-04
548 -6.4383674345944923e-04 -2.7953258255582105e-04 -7.2083526729811059e-04
549 2.5593794036488153e-04 -8.0754871728732497e-04 5.2760439413358025e-04
550 5.6711824591611215e-04 5.8627631446591289e-04 5.7548699162190541e-04
551 8.5728529998552779e-04 3.6458797595501048e-04 -3.3800924554889969e-04
552 8.6696112177322841e-04 -2.4724310798583259e-04 4.1907425306983654e-04
553 1.6481094614519522e-04 -7.6167912815614403e-04 6.3046092963468770e-04
554 -4.4126899516395805e-04 -6.4283200472118305e-04 6.3007533741622638e-04
555 -3.8595783583380894e-04 -5.5696345861849979e-04 7.4582001034021784e-04
556 -8.2348258750025217e-04 -4.3634228794131011e-04 3.3771686091334577e-04
557 -6.0613826559386482e-04 -7.0523797534833893e-04 -3.4354034419824112e-04
558 -7.1554583430448752e-04 2.4630642362455510e-04 6.5726172559466358e-04
559 -6.7652096318978922e-04 -4.3968263708197658e-04 5.8998827656548704e-04
560 -5.8834618389173431e-04 -5.6046781403042633e-04 5.8318621663139758e-04
561 6.2328876514177053e-04 4.7972369084767989e-04 -6.1942640819974447e-04
562 -3.1704654509982967e-04 -6.8086995484808045e-04 -6.6593133596462789e-04
563 -4.7361475676102019e-04 5.1135453652471951e-04 7.2551290030749001e-04
564 7.0963418127541818e-04 -4.8573241749280541e-04 -5.0444925457284677e-04
565 -8.7143625230314437e-05 -3.1376347731077630e-04 9.7095428745165330e-04
566 -1.0297047344992071e-04 -4.3728408367424898e-04 9.1526701931592873e-04
567 -2.0755808123219344e-04 -3.5485952818565153e-04 9.3456393566868675e-04
568 -1.7128984295788292e-04 -6.5844685918269778e-04 7.4384937350318887e-04
569 4.1390855801735606e-04 -6.5982926611098211e-04 -6.3038418568467142e-04
570 -7.0698716869912364e-04 -9.5456120620555457e-05 7.0776982345582481e-04
571 5.5156539440507051e-04 3.2335258792242142e-04 7.8136852017780800e-04
572 5.1479688615723687e-04 -3.4362796791154941e-04 -7.9982997140485255e-04
573 1.5400498831769847e-04 -3.4160056398397303e-04 9.5151279512521660e-04
574 -7.3690158410341287e-04 2.0038375473028751e-04 -6.4827414738528085e-04
575 1.5320287613854289e-04 -4.7148998028169031e-04 -8.8867762335159933e-04
576 -4.4544576496681389e-04 -4.2404062549586304e-04 8.0366224196510823e-04
577 -3.0988334081743162e-04 3.6499950243121883e-04 -8.9761061332551783e-04
578 -2.6452884867821883e-04 2.5996724927841312e-04 -9.5190867822979406e-04
579 -3.2922906527811343e-04 1.5675155288303580e-04 -9.5452252290521736e-04
580 -4.8177570699037422e-04 1.1450743270175268e-05 -8.9607445166028563e-04
581 4.5247807787066903e-04 -5.6549070407235444e-04 6.9888094900174354e-04
582 4.7681465948881701e-04 -3.1307486182718887e-04 8.3825734627888959e-04
583 -4.3916987365636979e-04 1.2827293057934139e-04 -9.0974115188443422e-04
584 -4.0913826191277741e-04 1.9164854435487944e-04 9.1328975138205257e-04
585 -4.5315891241493750e-04 6.7794338247026750e-05 9.0978730706014642e-04
586 -3.3824331690984061e-04 -4.3285325928336379e-04 -8.5288972823874124e-04
587 2.9275918149848143e-05 9.3841235384920277e-04 3.1411752868883955e-04
588 -4.0494518076382907e-04 -8.7121283311053621e-05 -9.3247702156163792e-04
589 -2.9817486610437855e-04 -4.2463019495095428e-05 -9.7887783819049896e-04
590 -1.8220535648758216e-04 -1.3115291840416486e-04 -1.0015792200294546e-03
591 -1.5089253506004100e-04 4.3421868942329026e-04 9.0876504023161303e-04
592 -5.0257960814868697e-04 7.9621637769400192e-04 -3.0482658994437873e-04
593 -2.5075436684852135e-04 -1.5660027834404336e-05 9.9434141778111888e-04
594 3.7525201418892219e-04 2.1847027611038346e-04 9.2303481540843347e-04
595 -7.9159295073757995e-04 5.5788935871303876e-04 1.9531993226578432e-04
596 4.1848857369280903e-04 -8.7608550324566766e-04 1.9046306832266378e-04
597 1.1323842454328211e-04 4.4197176580824775e-04 9.1088488659954588e-04
598 3.0975370370475475e-04 8.9318678694094939e-04 -2.9196943319131056e-04
599 2.0148711222766068e-04 -6.6151629854908878e-04 7.3288073581690772e-04
600 -5.2339332650607904e-04 -7.9869555695525772e-04 2.6131802992294782e-04
601 -8.3601399488891922e-04 4.0360763210065399e-04 -3.4576354108063322e-04
602 -8.0688792071240828e-04 3.4241123804432626e-04 -4.6908767668919093e-04
603 -7.3658594486618204e-04 -5.2875805534338596e-04 -4.0643998448580194e-04
604 -9.0072637140366002e-04 1.3655408540193007e-04 -3.9229583390094973e-04
605 -4.0189915265565244e-04 -9.0168196141649989e-04 2.4940275336077294e-05
606 -3.1763662214186986e-04 8.3691309218705389e-04 4.2948992833133950e-04
607 5.3422342412967342e-05 1.2444083207240289e-04 1.0185647358237954e-03
608 -4.2338372415103774e-05 7.5763582032840513e-04 6.5451560423345769e-04
609 -7.3139454548577798e-04 -1.6633322755664918e-04 -6.6595753206417127e-04
610 9.4135091606098583e-04 2.6766970726469175e-04 1.4105569957752431e-04
611 4.3301901155672160e-04 -1.0923062485274115e-04 -9.1637781137382914e-04
612 9.1220535412699609e-04 1.2950245481497315e-04 3.6859215357733449e-04
613 -3.6795901607388268e-04 -8.6426162627310104e-04 -3.1677754135174790e-04
614 6.3516724468528875e-05 -7.8556275444675665e-04 -6.1785122865296873e-04
615 4.5085524495695485e-04 -8.7771758066221913e-04 -5.0379159207802059e-05
616 -6.8047251686299923e-04 -6.8844200293808667e-04 -2.0518559767809200e-04
617 -9.2231668811104000e-04 -2.4455880393913794e-04 -2.6127652763073398e-04
618 -6.1580917523432026e-04 4.4565359174971359e-04 -6.5239810349309972e-04
619 1.8513071970579457e-04 -9.4469958649342275e-04 -2.3268960675241565e-04
620 -3.6162969016952905e-05 -9.2904179242278236e-04 3.4695951938311793e-04
621 3.9262295029994379e-04 -7.5488167925127241e-04 -5.2035822446581048e-04
622 -2.2419646664819455e-04 -4.6070025551774919e-04 8.7789234779238963e-04
623 7.8367909526736595e-04 -4.8248179269319010e-04 -3.7257008606784439e-04
624 9.1740275548025257e-04 1.2663148819843452e-04 -3.5544399565890736e-04
625 -3.9531634703159112e-04 6.0665876091061950e-04 6.9548930336486760e-04
626 -2.6334621746094299e-04 -5.6646153639384675e-04 7.9459469384778308e-04
627 -8.2247931318722554e-05 5.3815593887484702e-04 8.5591759856178064e-04
628 4.7421445643237587e-04 8.6401831845675482e-04 4.9502134620095908e-05
629 -9.4743405082399078e-04 5.3713856308881474e-05 2.8027993303223831e-04
630 -5.7311459461517166e-04 7.8406024875978387e-04 1.7817324019889076e-04
631 -8.1936689014501767e-04 -1.8940855155590814e-04 -5.3575286664396180e-04
632 -3.9714186739194061e-04 8.7064524483024806e-04 -2.4775036347133688e-04
633 9.1793739983516733e-04 2.5025564536662614e-04 -2.7329767461386958e-04
634 -3.2934949484310648e-04 9.3381087134051296e-05 9.6415227342474847e-04
635 3.7541003303855183e-04 -9.1196030831769024e-04 6.1778632482747603e-05
636 -6.3309154012939879e-05 -9.6410394254636128e-04 2.1375437649755666e-04
637 -4.8596127482266444e-04 -5.0470376197697685e-05 8.9228185547043806e-04
638 4.2335007375495843e-04 2.6332514119083443e-04 -8.8472843538931942e-04
639 4.4567227837884768e-04 -1.0137946206281708e-04 9.1105415089506652e-04
640 -6.5659264373100251e-05 6.6633983027814686e-04 -7.5255020559878143e-04
641 -9.4381730159913467e-04 2.2770144594789658e-04 -1.8083233773792242e-04
642 -8.7286533773989683e-04 2.7117155682200952e-04 -3.8455047625627091e-04
643 2.8249908813745542e-04 -7.1766477962494524e-04 6.4071895929086525e-04
644 5.5863147726856156e-04 -4.6513991376180715e-04 6.9414056799234792e-04
645 6.0117020968014330e-04 2.3885476626073546e-04 -7.7425808673138889e-04
646 -1.9721386670741738e-04 1.0302706516701127e-04 1.0018473862898000e-03
647 2.5831197618466090e-05 5.4493720646841041e-04 8.5525638687789581e-04
648 -7.3933935955720008e-04 5.8087801535714346e-04 3.0655017513224545e-04
649 -2.6662774271974402e-04 9.4694031141349120e-04 7.3009248722470061e-05
650 9.1704683934236506e-04 -2.4190209756106703e-04 2.8650319375238411e-04
651 -4.6442331229819186e-04 -8.5096550238157338e-04 -1.9853013689045637e-04
652 -8.6685255036815663e-04 -3.4024994643527736e-04 -3.3829305935456682e-04
653 -2.0302811998309375e-04 1.4858534659407407e-04 -9.9400824416918726e-04
654 8.4002596668196266e-04 -4.6772541976026322e-04 -2.3484894340674138e-04
655 -7.1885225922211965e-04 4.0732484680174844e-04 -5.5854248338825930e-04
656 6.7701230494416611e-04 -1.1705144999412207e-04 -7.3659225349617902e-04
657 -7.4128432603811072e-04 -5.4109001995583021e-04 3.7708753540836761e-04
658 -3.8459899511197881e-04 3.7024735720115557e-05 -9.4520538559058622e-04
659 -1.6102837347289033e-04 9.3431096380513183e-06 -1.0151626008959073e-03
660 -4.2964602377145246e-05 3.4066837280725460e-05 -1.0261689525605557e-03
661 8.4575724390776078e-04 -5.1016800701661859e-04 -5.9836020523943337e-06
662 4.0287156930450347e-05 -2.5760943087615881e-04 9.9243928932482594e-04
663 5.0866475655542728e-04 8.2604266439691425e-04 -1.8518181969995022e-04
664 -2.8899919471490551e-04 9.4081601277491060e-04 -6.4854392991218194e-05
665 -2.8383428042313101e-04 9.2649851432438418e-04 -1.9004480444917164e-04
666 -7.6033474392169030e-05 1.2709249213457244e-04 -1.0172753938384161e-03
667 2.6342654764733697e-04 -8.2063820184923963e-04 -5.0030618610579023e-04
668 -5.6907116619637013e-04 4.9770905678184636e-05 8.3660879256173767e-04
669 -8.1538193571816702e-04 -3.1643744020839532e-04 -4.7372490793985120e-04
670 -4.8743270145471641e-04 8.5165597798306410e-04 1.0273828175043696e-04
671 -9.5084778023461975e-04 1.6256173592248032e-04 2.1039795623650090e-04
672 5.5636077202789592e-04 -3.6763051049436453e-04 7.5574377239637930e-04
673 -2.3567475883304740e-05 2.4513595054492343e-04 -9.9522310244203830e-04
674 -1.9123998949495126e-04 -9.5532001190296902e-04 1.6829584937686233e-04
675 4.1266935407526721e-04 7.3420871865031816e-04 5.3167951232650041e-04
676 8.6951059036511548e-05 7.2176168439685366e-04 6.9279835459069719e-04
677 4.9421289979955686e-04 2.2144536270452629e-04 8.5837090155807517e-04
678 -4.8104451388175038e-04 -7.7663170118608506e-04 3.8837408247261108e-04
679 3.2536067184702340e-04 -9.0844485030544929e-05 -9.6600215724571990e-04
680 3.9273470883626659e-04 -6.6749345912881517e-04 6.3530720323557702e-04
681 -8.6795543123955525e-04 1.6577563031394343e-04 4.5346920209371580e-04
682 -8.9038391391946345e-04 4.2256649053775016e-04 1.9623218168235900e-05
683 -6.3355208896561852e-05 -7.9892098449857170e-06 1.0258191275297238e-03
684 3.2528975975083536e-04 -9.3073054058578041e-04 -6.1419420779973327e-05
685 3.9306411861313384e-04 8.8209573038783144e-04 -2.0406455210001873e-04
686 1.8409233066195215e-04 -7.8612811141584517e-04 -5.8850928169502644e-04
687 1.6246925558305422e-04 9.6286177150667557e-04 -1.3910479745632241e-04
688 -7.9897229771651692e-04 -4.2189968802782671e-04 -4.0951121399981124e-04
689 -5.4002499895882436e-04 -6.5250616863788812e-04 5.2445000357259012e-04
690 5.5898873177480217e-04 -6.9030834069804025e-04 4.4694333588678664e-04
691 9.4970611465058658e-04 -2.3036163412362684e-04 1.4727423521105980e-04
692 -6.8195060069919423e-04 -5.2843465717502223e-04 4.9596974472157463e-04
693 9.2309174525819306e-04 2.2636695092564639e-04 2.7392923449445094e-04
694 -1.7560154561421050e-04 9.6071948532513659e-04 -1.4035886379094634e-04
695 8.9434005134506414e-04 3.6006902301050444e-04 -2.1558467232576567e-04
696 -3.7376568297270607e-05 6.5628280232868244e-04 7.6559143189779881e-04
697 -3.3887550454789992e-04 -4.7489266299734971e-04 8.2696080175635191e-04
698 9.1772144418895388e-04 3.6416460990266233e-04 1.7140117469898722e-05
699 -4.9488782043759715e-04 -5.2911068357286710e-04 6.9530832541174015e-04
700 -6.6287844564058248e-04 1.2130390029821915e-05 7.5784111845671794e-04
701 5.6117073651029583e-04 -5.6099816473183077e-04 6.0939304601491829e-04
702 -6.8910970082149082e-04 -6.2870462980015235e-04 -3.3274314329842113e-04
703 -7.5905694285283349e-04 2.9023206437436150e-04 -5.7842397461259983e-04
704 3.8475875405995868e-05 3.4634586513939813e-04 -9.6083262984190531e-04
705 3.1614767072718209e-04 6.2397902785151513e-04 -7.2109645045008127e-04
706 -3.1328054951719600e-04 6.8850187766189108e-04 6.5585097292090977e-04
707 1.1734120991994807e-04 -9.2289665964898624e-04 -3.4185370757647667e-04
708 -6.6001080488134673e-04 7.2462698800368909e-04 1.0438518407484561e-04
709 2.8966795621258444e-06 7.4528912155961036e-04 -6.6953956355983316e-04
710 -4.0530130309346997e-04 7.6619866945253621e-04 4.8663331162255397e-04
711 -9.1853046217566382e-04 2.1280980202085777e-04 -2.9731309723896715e-04
712 7.7533693540992102e-04 1.0639339846989935e-04 6.2381055871706668e-04
713 -2.0834309722389608e-04 -7.5246715807233153e-04 -6.2576227242968187e-04
714 6.2356057463069372e-04 3.5447648071780562e-04 -7.0384640671543493e-04
715 -2.0320618525250864e-04 -9.6461144045225267e-04 4.9081837842937837e-05
716 -2.7408664430471786e-04 6.1330775954560640e-05 -9.8448266510097675e-04
717 -3.9295311980092957e-04 -8.9982932730136537e-04 -1.0195819144096188e-04
718 5.0290235296913228e-04 -2.0428972368482102e-04 8.5715954008545728e-04
719 7.1477994482957170e-04 -5.6535759574114018e-04 3.9375844682933874e-04
720 8.2671240459169420e-04 5.1323975791783209e-04 1.6560811713777464e-04
721 2.6317604377348657e-04 -1.7772049622738321e-04 -9.7250309166606297e-04
722 -5.7160161309917508e-04 -7.6937113591768057e-04 -2.4254729185748969e-04
723 4.8855403460758691e-05 5.2235111691624933e-05 -1.0255654369435089e-03
724 -1.7161019558505856e-04 7.1567739223759848e-04 6.8323268602054666e-04
725 8.6716129844220300e-04 -4.5781990431048624e-04 -1.1592639956163537e-04
726 6.0217538163253388e-04 2.1006239322048258e-04 7.8190809107309676e-04
727 7.6988070779886002e-04 5.6639141906862406e-04 2.5335911032256335e-04
728 5.4144192238209565e-04 5.8145603841344565e-04 -6.0571475532960738e-04
729 4.8474849789741130e-04 9.3083984484747470e-05 -8.8787309755253730e-04
730 7.0956300817283770e-04 6.0165863731637603e-04 3.3885808725503771e-04
731 -2.4957956323305735e-04 -6.2293977052256554e-04 -7.4942913633259942e-04
732 3.3533827215801907e-04 6.2453050462950863e-04 7.1178903122211007e-04
733 -7.2818795280338254e-05 9.6198966273363057e-04 -2.0781365367123175e-04
734 -2.3879674778867172e-04 -4.8767364339049701e-04 -8.5627543270928017e-04
735 9.5043420230029642e-04 -2.2348000535643846e-04 -1.4932393727575788e-04
736 9.6418870567063916e-04 -2.0720362073767932e-04 3.3715048196161524e-05
737 -3.2885494871301274e-05 -9.7662235293205941e-05 1.0226241281995636e-03
738 -5.0059424468853889e-04 -8.4838810764473888e-04 5.7453021082236780e-05
739 5.1391671366626942e-04 1.9823964617996488e-04 -8.5089681937515688e-04
740 -7.6355112171980460e-04 1.2899707715053861e-04 6.3318076237833603e-04
741 -1.3740159359983521e-04 1.4190410081140018e-05 1.0176413032587509e-03
742 -5.3926142457549680e-04 -7.0863463863196023e-04 4.3995143062965211e-04
743 -2.1275794158534150e-05 4.3982816145813150e-04 -9.1783913190223831e-04
744 2.8385098785004150e-04 -9.3046268368976589e-04 -1.7260457007196631e-04
745 -6.4812682733462906e-05 -6.8519309020096026e-04 -7.3253676780259038e-04
$EndNodes
$Elements
1486
1 2 2 0 0 410 440 345
2 2 2 0 0 421 541 409
3 2 2 0 0 409 682 421
4 2 2 0 0 545 603 546
5 2 2 0 0 426 427 294
6 2 2 0 0 294 454 426
7 2 2 0 0 265 682 409
8 2 2 0 0 24 41 4
9 2 2 0 0 3 24 4
10 2 2 0 0 238 642 602
11 2 2 0 0 520 651 613
12 2 2 0 0 653 666 659
13 2 2 0 0 404 460 98
14 2 2 0 0 222 482 219
15 2 2 0 0 40 463 9
16 2 2 0 0 608 724 696
17 2 2 0 0 435 709 69
18 2 2 0 0 413 439 29
19 2 2 0 0 345 710 410
20 2 2 0 0 422 463 40
21 2 2 0 0 98 550 404
22 2 2 0 0 95 724 608
23 2 2 0 0 4 41 5
24 2 2 0 0 232 701 581
25 2 2 0 0 490 698 488
26 2 2 0 0 29 436 413
27 2 2 0 0 416 421 342
28 2 2 0 0 312 595 441
29 2 2 0 0 41 486 5
30 2 2 0 0 405 605 519
31 2 2 0 0 409 595 265
32 2 2 0 0 69 481 435
33 2 2 0 0 434 743 339
34 2 2 0 0 342 641 416
35 2 2 0 0 485 656 370
36 2 2 0 0 89 587 90
37 2 2 0 0 108 466 317
38 2 2 0 0 378 629 529
39 2 2 0 0 581 680 232
40 2 2 0 0 281 434 339
41 2 2 0 0 638 739 486
42 2 2 0 0 659 666 660
43 2 2 0 0 345 440 346
44 2 2 0 0 22 44 25
45 2 2 0 0 9 463 8
46 2 2 0 0 44 81 25
47 2 2 0 0 459 587 89
48 2 2 0 0 127 670 630
49 2 2 0 0 508 662 509
50 2 2 0 0 375 662 508
51 2 2 0 0 492 598 103
52 2 2 0 0 604 642 238
53 2 2 0 0 507 510 399
54 2 2 0 0 488 698 489
55 2 2 0 0 34 473 415
56 2 2 0 0 399 639 507
57 2 2 0 0 603 688 546
58 2 2 0 0 316 541 421
59 2 2 0 0 647 696 627
60 2 2 0 0 403 439 352
61 2 2 0 0 221 603 545
62 2 2 0 0 595 648 441
63 2 2 0 0 412 550 98
64 2 2 0 0 411 714 397
65 2 2 0 0 486 739 729
66 2 2 0 0 696 724 401
67 2 2 0 0 247 482 222
68 2 2 0 0 397 714 645
69 2 2 0 0 613 651 212
70 2 2 0 0 207 745 425
71 2 2 0 0 98 675 412
72 2 2 0 0 219 482 230
73 2 2 0 0 560 692 432
74 2 2 0 0 432 689 560
75 2 2 0 0 454 575 426
76 2 2 0 0 352 439 413
77 2 2 0 0 415 420 2
78 2 2 0 0 40 464 422
79 2 2 0 0 89 512 459
80 2 2 0 0 425 614 207
81 2 2 0 0 377 600 453
82 2 2 0 0 89 90 88
83 2 2 0 0 80 466 108
84 2 2 0 0 520 717 651
85 2 2 0 0 602 703 238
86 2 2 0 0 103 687 492
87 2 2 0 0 253 491 424
88 2 2 0 0 69 709 466
89 2 2 0 0 424 512 253
90 2 2 0 0 369 696 647
91 2 2 0 0 581 701 644
92 2 2 0 0 630 670 392
93 2 2 0 0 32 656 485
94 2 2 0 0 459 512 424
95 2 2 0 0 90 91 88
96 2 2 0 0 427 478 294
97 2 2 0 0 488 695 490
98 2 2 0 0 554 699 560
99 2 2 0 0 67 80 79
100 2 2 0 0 252 454 294
101 2 2 0 0 253 628 491
102 2 2 0 0 529 681 378
103 2 2 0 0 519 715 405
104 2 2 0 0 440 441 346
105 2 2 0 0 605 717 519
106 2 2 0 0 403 452 439
107 2 2 0 0 507 639 21
108 2 2 0 0 565 567 566
109 2 2 0 0 433 454 341
110 2 2 0 0 67 466 80
111 2 2 0 0 555 697 576
112 2 2 0 0 491 628 493
113 2 2 0 0 389 641 342
114 2 2 0 0 429 619 474
115 2 2 0 0 40 501 464
116 2 2 0 0 576 699 555
117 2 2 0 0 311 600 377
118 2 2 0 0 567 622 566
119 2 2 0 0 433 575 454
120 2 2 0 0 378 671 629
121 2 2 0 0 79 540 103
122 2 2 0 0 341 473 433
123 2 2 0 0 673 704 68
124 2 2 0 0 462 710 345
125 2 2 0 0 557 722 616
126 2 2 0 0 573 662 343
127 2 2 0 0 370 656 463
128 2 2 0 0 341 454 252
129 2 2 0 0 616 702 557
130 2 2 0 0 6 26 7
131 2 2 0 0 464 501 467
132 2 2 0 0 433 473 406
133 2 2 0 0 8 45 37
134 2 2 0 0 466 709 317
135 2 2 0 0 457 461 379
136 2 2 0 0 84 512 86
137 2 2 0 0 19 452 33
138 2 2 0 0 380 614 425
139 2 2 0 0 83 540 79
140 2 2 0 0 398 510 509
141 2 2 0 0 609 631 137
142 2 2 0 0 18 442 36
143 2 2 0 0 26 45 7
144 2 2 0 0 565 566 343
145 2 2 0 0 80 83 79
146 2 2 0 0 560 689 554
147 2 2 0 0 134 137 136
148 2 2 0 0 68 469 42
149 2 2 0 0 659 716 653
150 2 2 0 0 619 707 474
151 2 2 0 0 497 610 39
152 2 2 0 0 137 138 136
153 2 2 0 0 283 573 343
154 2 2 0 0 506 644 448
155 2 2 0 0 499 735 31
156 2 2 0 0 81 97 25
157 2 2 0 0 45 46 37
158 2 2 0 0 585 668 637
159 2 2 0 0 495 735 499
160 2 2 0 0 399 510 398
161 2 2 0 0 509 573 398
162 2 2 0 0 442 443 36
163 2 2 0 0 1 607 314
164 2 2 0 0 29 612 436
165 2 2 0 0 547 631 609
166 2 2 0 0 360 595 409
167 2 2 0 0 421 682 342
168 2 2 0 0 426 575 327
169 2 2 0 0 123 577 235
170 2 2 0 0 339 743 417
171 2 2 0 0 7 45 8
172 2 2 0 0 3 723 24
173 2 2 0 0 418 666 653
174 2 2 0 0 59 60 58
175 2 2 0 0 620 636 193
176 2 2 0 0 42 469 47
177 2 2 0 0 65 67 66
178 2 2 0 0 509 662 573
179 2 2 0 0 470 482 247
180 2 2 0 0 368 476 472
181 2 2 0 0 530 740 337
182 2 2 0 0 253 512 84
183 2 2 0 0 455 698 282
184 2 2 0 0 61 65 62
185 2 2 0 0 59 61 60
186 2 2 0 0 91 472 88
187 2 2 0 0 90 92 91
188 2 2 0 0 19 442 18
189 2 2 0 0 464 465 423
190 2 2 0 0 706 724 118
191 2 2 0 0 456 611 32
192 2 2 0 0 379 477 61
193 2 2 0 0 417 743 704
194 2 2 0 0 314 683 1
195 2 2 0 0 442 458 443
196 2 2 0 0 11 28 12
197 2 2 0 0 61 62 60
198 2 2 0 0 118 724 95
199 2 2 0 0 22 25 23
200 2 2 0 0 247 483 470
201 2 2 0 0 281 640 434
202 2 2 0 0 197 667 474
203 2 2 0 0 86 512 89
204 2 2 0 0 417 704 673
205 2 2 0 0 451 690 230
206 2 2 0 0 27 442 19
207 2 2 0 0 637 668 229
208 2 2 0 0 60 475 58
209 2 2 0 0 489 610 497
210 2 2 0 0 307 573 283
211 2 2 0 0 61 477 65
212 2 2 0 0 65 66 62
213 2 2 0 0 544 740 530
214 2 2 0 0 230 719 451
215 2 2 0 0 18 452 19
216 2 2 0 0 268 569 269
217 2 2 0 0 32 485 456
218 2 2 0 0 627 696 401
219 2 2 0 0 24 42 41
220 2 2 0 0 20 27 19
221 2 2 0 0 330 461 457
222 2 2 0 0 506 672 644
223 2 2 0 0 472 476 87
224 2 2 0 0 468 495 494
225 2 2 0 0 88 472 87
226 2 2 0 0 121 577 123
227 2 2 0 0 327 575 276
228 2 2 0 0 422 464 423
229 2 2 0 0 47 63 49
230 2 2 0 0 458 506 443
231 2 2 0 0 232 690 451
232 2 2 0 0 28 487 12
233 2 2 0 0 80 107 83
234 2 2 0 0 608 696 676
235 2 2 0 0 356 481 355
236 2 2 0 0 138 238 136
237 2 2 0 0 137 139 138
238 2 2 0 0 729 739 26
239 2 2 0 0 81 99 97
240 2 2 0 0 46 50 37
241 2 2 0 0 463 656 8
242 2 2 0 0 443 444 36
243 2 2 0 0 68 704 469
244 2 2 0 0 24 68 42
245 2 2 0 0 16 503 30
246 2 2 0 0 65 69 67
247 2 2 0 0 67 79 66
248 2 2 0 0 676 696 369
249 2 2 0 0 59 379 61
250 2 2 0 0 90 93 92
251 2 2 0 0 464 467 465
252 2 2 0 0 441 708 312
253 2 2 0 0 483 484 471
254 2 2 0 0 427 479 478
255 2 2 0 0 245 564 244
256 2 2 0 0 470 483 471
257 2 2 0 0 473 721 406
258 2 2 0 0 555 699 554
259 2 2 0 0 47 469 63
260 2 2 0 0 63 355 49
261 2 2 0 0 62 64 60
262 2 2 0 0 80 108 107
263 2 2 0 0 107 539 83
264 2 2 0 0 139 140 138
265 2 2 0 0 99 100 97
266 2 2 0 0 81 236 99
267 2 2 0 0 46 51 50
268 2 2 0 0 443 445 444
269 2 2 0 0 24 419 68
270 2 2 0 0 69 466 67
271 2 2 0 0 79 103 66
272 2 2 0 0 65 477 69
273 2 2 0 0 547 548 321
274 2 2 0 0 93 94 92
275 2 2 0 0 467 468 465
276 2 2 0 0 333 664 649
277 2 2 0 0 55 498 56
278 2 2 0 0 56 498 72
279 2 2 0 0 12 499 31
280 2 2 0 0 63 356 355
281 2 2 0 0 108 110 107
282 2 2 0 0 139 141 140
283 2 2 0 0 100 101 97
284 2 2 0 0 236 248 99
285 2 2 0 0 81 594 236
286 2 2 0 0 51 52 50
287 2 2 0 0 192 515 195
288 2 2 0 0 445 446 444
289 2 2 0 0 477 481 69
290 2 2 0 0 94 95 92
291 2 2 0 0 93 96 94
292 2 2 0 0 63 408 356
293 2 2 0 0 108 111 110
294 2 2 0 0 110 117 107
295 2 2 0 0 139 154 141
296 2 2 0 0 141 142 140
297 2 2 0 0 51 53 52
298 2 2 0 0 100 102 101
299 2 2 0 0 236 250 248
300 2 2 0 0 445 447 446
301 2 2 0 0 52 388 50
302 2 2 0 0 277 622 567
303 2 2 0 0 95 608 92
304 2 2 0 0 94 118 95
305 2 2 0 0 93 104 96
306 2 2 0 0 51 561 53
307 2 2 0 0 408 434 356
308 2 2 0 0 53 54 52
309 2 2 0 0 445 448 447
310 2 2 0 0 108 317 111
311 2 2 0 0 141 143 142
312 2 2 0 0 142 225 140
313 2 2 0 0 102 166 101
314 2 2 0 0 250 325 248
315 2 2 0 0 100 258 102
316 2 2 0 0 53 55 54
317 2 2 0 0 447 449 446
318 2 2 0 0 236 505 250
319 2 2 0 0 104 105 96
320 2 2 0 0 53 57 55
321 2 2 0 0 55 56 54
322 2 2 0 0 448 451 447
323 2 2 0 0 14 39 15
324 2 2 0 0 317 511 111
325 2 2 0 0 10 40 9
326 2 2 0 0 143 144 142
327 2 2 0 0 57 58 55
328 2 2 0 0 8 37 9
329 2 2 0 0 14 38 13
330 2 2 0 0 166 314 101
331 2 2 0 0 18 36 17
332 2 2 0 0 16 29 17
333 2 2 0 0 33 504 20
334 2 2 0 0 325 365 248
335 2 2 0 0 199 202 196
336 2 2 0 0 7 32 6
337 2 2 0 0 434 435 356
338 2 2 0 0 74 75 73
339 2 2 0 0 223 239 234
340 2 2 0 0 74 76 75
341 2 2 0 0 72 74 73
342 2 2 0 0 231 549 201
343 2 2 0 0 202 205 204
344 2 2 0 0 226 227 214
345 2 2 0 0 272 275 271
346 2 2 0 0 276 318 275
347 2 2 0 0 213 214 209
348 2 2 0 0 76 77 75
349 2 2 0 0 210 231 201
350 2 2 0 0 16 30 15
351 2 2 0 0 205 209 208
352 2 2 0 0 202 204 196
353 2 2 0 0 318 406 340
354 2 2 0 0 195 196 193
355 2 2 0 0 322 420 415
356 2 2 0 0 239 240 234
357 2 2 0 0 163 588 168
358 2 2 0 0 12 31 11
359 2 2 0 0 56 72 71
360 2 2 0 0 425 426 327
361 2 2 0 0 19 33 20
362 2 2 0 0 168 224 215
363 2 2 0 0 209 568 216
364 2 2 0 0 318 433 406
365 2 2 0 0 269 271 270
366 2 2 0 0 268 269 245
367 2 2 0 0 21 639 20
368 2 2 0 0 84 85 82
369 2 2 0 0 181 207 183
370 2 2 0 0 269 272 271
371 2 2 0 0 272 276 275
372 2 2 0 0 242 243 240
373 2 2 0 0 102 167 166
374 2 2 0 0 223 234 233
375 2 2 0 0 283 343 227
376 2 2 0 0 205 208 204
377 2 2 0 0 213 226 214
378 2 2 0 0 271 572 347
379 2 2 0 0 243 268 245
380 2 2 0 0 335 398 307
381 2 2 0 0 303 555 554
382 2 2 0 0 226 283 227
383 2 2 0 0 347 485 370
384 2 2 0 0 195 199 196
385 2 2 0 0 205 213 209
386 2 2 0 0 246 322 252
387 2 2 0 0 76 78 77
388 2 2 0 0 133 163 135
389 2 2 0 0 163 168 164
390 2 2 0 0 322 415 341
391 2 2 0 0 227 361 214
392 2 2 0 0 191 198 189
393 2 2 0 0 78 84 82
394 2 2 0 0 209 216 208
395 2 2 0 0 78 82 77
396 2 2 0 0 216 303 266
397 2 2 0 0 417 418 362
398 2 2 0 0 314 607 101
399 2 2 0 0 339 362 280
400 2 2 0 0 243 245 244
401 2 2 0 0 187 291 185
402 2 2 0 0 429 430 359
403 2 2 0 0 143 145 144
404 2 2 0 0 202 553 205
405 2 2 0 0 339 417 362
406 2 2 0 0 131 580 133
407 2 2 0 0 239 242 240
408 2 2 0 0 57 59 58
409 2 2 0 0 224 246 215
410 2 2 0 0 84 86 85
411 2 2 0 0 303 554 266
412 2 2 0 0 72 73 71
413 2 2 0 0 437 438 414
414 2 2 0 0 318 340 275
415 2 2 0 0 269 270 245
416 2 2 0 0 86 87 85
417 2 2 0 0 192 193 191
418 2 2 0 0 123 235 129
419 2 2 0 0 263 374 262
420 2 2 0 0 425 427 426
421 2 2 0 0 149 150 147
422 2 2 0 0 210 232 231
423 2 2 0 0 74 373 76
424 2 2 0 0 168 215 169
425 2 2 0 0 259 262 249
426 2 2 0 0 145 146 144
427 2 2 0 0 367 524 289
428 2 2 0 0 271 347 270
429 2 2 0 0 406 407 340
430 2 2 0 0 334 459 424
431 2 2 0 0 429 474 430
432 2 2 0 0 250 328 325
433 2 2 0 0 431 432 367
434 2 2 0 0 104 278 105
435 2 2 0 0 145 147 146
436 2 2 0 0 151 152 150
437 2 2 0 0 235 583 129
438 2 2 0 0 237 249 228
439 2 2 0 0 149 151 150
440 2 2 0 0 159 161 158
441 2 2 0 0 153 155 152
442 2 2 0 0 156 158 155
443 2 2 0 0 354 367 289
444 2 2 0 0 259 263 262
445 2 2 0 0 190 191 189
446 2 2 0 0 177 221 174
447 2 2 0 0 162 228 161
448 2 2 0 0 124 516 386
449 2 2 0 0 418 653 578
450 2 2 0 0 371 584 295
451 2 2 0 0 151 153 152
452 2 2 0 0 153 156 155
453 2 2 0 0 159 162 161
454 2 2 0 0 374 593 262
455 2 2 0 0 156 159 158
456 2 2 0 0 237 259 249
457 2 2 0 0 146 284 160
458 2 2 0 0 266 309 267
459 2 2 0 0 264 265 257
460 2 2 0 0 86 88 87
461 2 2 0 0 265 312 257
462 2 2 0 0 162 237 228
463 2 2 0 0 21 44 22
464 2 2 0 0 324 392 390
465 2 2 0 0 371 585 584
466 2 2 0 0 262 366 249
467 2 2 0 0 192 195 193
468 2 2 0 0 263 375 374
469 2 2 0 0 216 266 217
470 2 2 0 0 326 327 276
471 2 2 0 0 260 646 166
472 2 2 0 0 220 223 222
473 2 2 0 0 322 341 252
474 2 2 0 0 256 257 255
475 2 2 0 0 78 253 84
476 2 2 0 0 358 359 242
477 2 2 0 0 188 189 187
478 2 2 0 0 281 339 280
479 2 2 0 0 146 160 144
480 2 2 0 0 123 129 128
481 2 2 0 0 255 324 254
482 2 2 0 0 228 229 161
483 2 2 0 0 354 431 367
484 2 2 0 0 163 164 135
485 2 2 0 0 155 157 152
486 2 2 0 0 243 244 240
487 2 2 0 0 256 264 257
488 2 2 0 0 284 316 160
489 2 2 0 0 380 425 327
490 2 2 0 0 148 149 147
491 2 2 0 0 335 399 398
492 2 2 0 0 418 578 362
493 2 2 0 0 334 424 396
494 2 2 0 0 167 260 166
495 2 2 0 0 325 368 365
496 2 2 0 0 428 429 359
497 2 2 0 0 165 255 254
498 2 2 0 0 297 342 264
499 2 2 0 0 298 371 295
500 2 2 0 0 218 323 220
501 2 2 0 0 310 337 302
502 2 2 0 0 165 256 255
503 2 2 0 0 186 187 185
504 2 2 0 0 56 71 70
505 2 2 0 0 165 254 125
506 2 2 0 0 200 201 199
507 2 2 0 0 148 206 149
508 2 2 0 0 324 390 364
509 2 2 0 0 190 192 191
510 2 2 0 0 368 369 365
511 2 2 0 0 353 404 351
512 2 2 0 0 104 331 278
513 2 2 0 0 256 297 264
514 2 2 0 0 316 421 416
515 2 2 0 0 239 358 242
516 2 2 0 0 169 586 171
517 2 2 0 0 286 287 206
518 2 2 0 0 324 364 254
519 2 2 0 0 241 576 162
520 2 2 0 0 168 169 164
521 2 2 0 0 121 123 122
522 2 2 0 0 266 267 217
523 2 2 0 0 129 131 130
524 2 2 0 0 216 217 208
525 2 2 0 0 285 382 313
526 2 2 0 0 172 321 170
527 2 2 0 0 390 391 364
528 2 2 0 0 296 563 300
529 2 2 0 0 246 252 251
530 2 2 0 0 285 286 206
531 2 2 0 0 288 289 287
532 2 2 0 0 298 372 371
533 2 2 0 0 23 35 22
534 2 2 0 0 300 344 304
535 2 2 0 0 344 462 345
536 2 2 0 0 123 128 122
537 2 2 0 0 297 389 342
538 2 2 0 0 237 277 259
539 2 2 0 0 148 285 206
540 2 2 0 0 86 89 88
541 2 2 0 0 306 307 283
542 2 2 0 0 234 279 233
543 2 2 0 0 316 416 160
544 2 2 0 0 188 190 189
545 2 2 0 0 85 98 82
546 2 2 0 0 358 428 359
547 2 2 0 0 437 455 438
548 2 2 0 0 203 210 201
549 2 2 0 0 382 383 313
550 2 2 0 0 153 176 156
551 2 2 0 0 290 354 289
552 2 2 0 0 159 241 162
553 2 2 0 0 386 387 126
554 2 2 0 0 273 363 338
555 2 2 0 0 272 326 276
556 2 2 0 0 171 293 173
557 2 2 0 0 145 148 147
558 2 2 0 0 274 295 261
559 2 2 0 0 285 313 286
560 2 2 0 0 383 384 313
561 2 2 0 0 301 302 299
562 2 2 0 0 131 133 132
563 2 2 0 0 296 298 295
564 2 2 0 0 305 310 302
565 2 2 0 0 349 412 328
566 2 2 0 0 344 345 304
567 2 2 0 0 77 119 75
568 2 2 0 0 315 378 310
569 2 2 0 0 363 401 400
570 2 2 0 0 332 333 278
571 2 2 0 0 223 233 222
572 2 2 0 0 331 334 332
573 2 2 0 0 186 188 187
574 2 2 0 0 178 212 177
575 2 2 0 0 305 360 315
576 2 2 0 0 334 396 395
577 2 2 0 0 246 251 215
578 2 2 0 0 167 261 260
579 2 2 0 0 175 179 178
580 2 2 0 0 345 346 304
581 2 2 0 0 124 386 126
582 2 2 0 0 286 288 287
583 2 2 0 0 331 332 278
584 2 2 0 0 179 181 180
585 2 2 0 0 301 305 302
586 2 2 0 0 300 304 301
587 2 2 0 0 296 300 299
588 2 2 0 0 305 315 310
589 2 2 0 0 296 299 298
590 2 2 0 0 320 453 290
591 2 2 0 0 274 296 295
592 2 2 0 0 313 531 286
593 2 2 0 0 120 281 280
594 2 2 0 0 360 409 315
595 2 2 0 0 363 400 338
596 2 2 0 0 129 130 128
597 2 2 0 0 300 301 299
598 2 2 0 0 1 508 23
599 2 2 0 0 167 273 261
600 2 2 0 0 133 135 134
601 2 2 0 0 173 174 172
602 2 2 0 0 311 377 376
603 2 2 0 0 273 274 261
604 2 2 0 0 273 338 274
605 2 2 0 0 334 395 332
606 2 2 0 0 183 197 184
607 2 2 0 0 319 393 320
608 2 2 0 0 449 450 446
609 2 2 0 0 288 290 289
610 2 2 0 0 226 306 283
611 2 2 0 0 326 380 327
612 2 2 0 0 175 177 174
613 2 2 0 0 181 183 182
614 2 2 0 0 219 230 211
615 2 2 0 0 308 335 307
616 2 2 0 0 267 311 292
617 2 2 0 0 169 170 164
618 2 2 0 0 288 319 290
619 2 2 0 0 126 165 125
620 2 2 0 0 120 280 121
621 2 2 0 0 130 357 128
622 2 2 0 0 195 200 199
623 2 2 0 0 169 171 170
624 2 2 0 0 171 172 170
625 2 2 0 0 184 186 185
626 2 2 0 0 73 282 71
627 2 2 0 0 252 294 251
628 2 2 0 0 319 320 290
629 2 2 0 0 131 132 130
630 2 2 0 0 393 394 320
631 2 2 0 0 171 173 172
632 2 2 0 0 4 34 3
633 2 2 0 0 218 220 219
634 2 2 0 0 267 292 217
635 2 2 0 0 184 185 182
636 2 2 0 0 188 194 190
637 2 2 0 0 56 70 54
638 2 2 0 0 377 405 376
639 2 2 0 0 449 470 450
640 2 2 0 0 179 180 178
641 2 2 0 0 173 175 174
642 2 2 0 0 175 178 177
643 2 2 0 0 250 329 328
644 2 2 0 0 311 376 292
645 2 2 0 0 329 571 350
646 2 2 0 0 347 370 348
647 2 2 0 0 220 222 219
648 2 2 0 0 376 385 292
649 2 2 0 0 133 134 132
650 2 2 0 0 134 136 132
651 2 2 0 0 306 308 307
652 2 2 0 0 200 203 201
653 2 2 0 0 233 247 222
654 2 2 0 0 98 460 82
655 2 2 0 0 329 349 328
656 2 2 0 0 326 381 380
657 2 2 0 0 347 348 270
658 2 2 0 0 181 182 180
659 2 2 0 0 121 122 115
660 2 2 0 0 350 351 349
661 2 2 0 0 308 336 335
662 2 2 0 0 350 403 352
663 2 2 0 0 470 471 450
664 2 2 0 0 203 211 210
665 2 2 0 0 218 219 211
666 2 2 0 0 183 184 182
667 2 2 0 0 370 463 422
668 2 2 0 0 306 402 308
669 2 2 0 0 203 218 211
670 2 2 0 0 71 490 70
671 2 2 0 0 329 350 349
672 2 2 0 0 436 437 414
673 2 2 0 0 124 126 125
674 2 2 0 0 413 414 353
675 2 2 0 0 422 423 348
676 2 2 0 0 352 353 351
677 2 2 0 0 370 422 348
678 2 2 0 0 350 352 351
679 2 2 0 0 413 436 414
680 2 2 0 0 352 413 353
681 2 2 0 0 120 121 115
682 2 2 0 0 110 480 117
683 2 2 0 0 124 125 116
684 2 2 0 0 126 521 165
685 2 2 0 0 113 120 115
686 2 2 0 0 127 440 410
687 2 2 0 0 114 124 116
688 2 2 0 0 543 544 530
689 2 2 0 0 488 489 487
690 2 2 0 0 585 637 366
691 2 2 0 0 543 570 544
692 2 2 0 0 113 115 114
693 2 2 0 0 127 410 106
694 2 2 0 0 114 116 112
695 2 2 0 0 195 515 200
696 2 2 0 0 491 493 492
697 2 2 0 0 12 487 13
698 2 2 0 0 546 547 321
699 2 2 0 0 330 457 411
700 2 2 0 0 157 543 530
701 2 2 0 0 519 520 291
702 2 2 0 0 28 488 487
703 2 2 0 0 111 112 110
704 2 2 0 0 312 534 257
705 2 2 0 0 476 732 412
706 2 2 0 0 27 458 442
707 2 2 0 0 385 636 620
708 2 2 0 0 176 559 156
709 2 2 0 0 593 634 366
710 2 2 0 0 589 590 224
711 2 2 0 0 113 114 112
712 2 2 0 0 109 127 106
713 2 2 0 0 270 564 245
714 2 2 0 0 443 506 445
715 2 2 0 0 491 492 396
716 2 2 0 0 388 624 502
717 2 2 0 0 445 506 448
718 2 2 0 0 30 500 15
719 2 2 0 0 20 504 21
720 2 2 0 0 64 475 60
721 2 2 0 0 287 542 206
722 2 2 0 0 23 508 35
723 2 2 0 0 302 558 299
724 2 2 0 0 70 551 54
725 2 2 0 0 62 598 64
726 2 2 0 0 424 491 396
727 2 2 0 0 407 456 340
728 2 2 0 0 545 546 321
729 2 2 0 0 330 411 397
730 2 2 0 0 72 536 74
731 2 2 0 0 238 574 136
732 2 2 0 0 659 660 420
733 2 2 0 0 395 538 332
734 2 2 0 0 143 527 145
735 2 2 0 0 412 675 476
736 2 2 0 0 239 513 358
737 2 2 0 0 157 530 529
738 2 2 0 0 518 519 291
739 2 2 0 0 449 482 470
740 2 2 0 0 207 713 479
741 2 2 0 0 119 523 75
742 2 2 0 0 109 670 127
743 2 2 0 0 10 501 40
744 2 2 0 0 508 509 35
745 2 2 0 0 96 606 94
746 2 2 0 0 331 459 334
747 2 2 0 0 286 531 288
748 2 2 0 0 290 453 354
749 2 2 0 0 282 490 71
750 2 2 0 0 384 531 313
751 2 2 0 0 289 524 287
752 2 2 0 0 349 550 412
753 2 2 0 0 165 521 256
754 2 2 0 0 82 460 77
755 2 2 0 0 155 543 157
756 2 2 0 0 201 549 199
757 2 2 0 0 273 591 363
758 2 2 0 0 387 521 126
759 2 2 0 0 114 516 124
760 2 2 0 0 53 561 57
761 2 2 0 0 266 554 309
762 2 2 0 0 257 534 255
763 2 2 0 0 205 553 213
764 2 2 0 0 142 522 225
765 2 2 0 0 435 481 356
766 2 2 0 0 216 568 303
767 2 2 0 0 300 563 344
768 2 2 0 0 214 568 209
769 2 2 0 0 112 480 110
770 2 2 0 0 350 571 403
771 2 2 0 0 347 572 485
772 2 2 0 0 275 572 271
773 2 2 0 0 274 563 296
774 2 2 0 0 171 586 293
775 2 2 0 0 162 576 237
776 2 2 0 0 133 580 163
777 2 2 0 0 11 501 10
778 2 2 0 0 295 584 261
779 2 2 0 0 129 583 131
780 2 2 0 0 215 586 169
781 2 2 0 0 250 505 329
782 2 2 0 0 168 588 224
783 2 2 0 0 321 548 170
784 2 2 0 0 262 593 366
785 2 2 0 0 166 646 314
786 2 2 0 0 520 535 291
787 2 2 0 0 373 663 493
788 2 2 0 0 291 535 185
789 2 2 0 0 101 607 97
790 2 2 0 0 130 574 357
791 2 2 0 0 158 570 543
792 2 2 0 0 31 501 11
793 2 2 0 0 444 552 503
794 2 2 0 0 156 559 159
795 2 2 0 0 236 594 505
796 2 2 0 0 206 542 149
797 2 2 0 0 54 551 52
798 2 2 0 0 74 536 373
799 2 2 0 0 337 558 302
800 2 2 0 0 150 532 147
801 2 2 0 0 379 728 457
802 2 2 0 0 299 558 298
803 2 2 0 0 332 538 333
804 2 2 0 0 145 527 148
805 2 2 0 0 514 515 192
806 2 2 0 0 15 500 14
807 2 2 0 0 75 523 73
808 2 2 0 0 467 501 31
809 2 2 0 0 254 592 125
810 2 2 0 0 172 545 321
811 2 2 0 0 144 522 142
812 2 2 0 0 528 532 150
813 2 2 0 0 187 518 291
814 2 2 0 0 553 599 213
815 2 2 0 0 383 603 384
816 2 2 0 0 282 698 490
817 2 2 0 0 244 517 240
818 2 2 0 0 353 525 404
819 2 2 0 0 395 540 538
820 2 2 0 0 94 606 118
821 2 2 0 0 117 539 107
822 2 2 0 0 185 535 182
823 2 2 0 0 388 502 50
824 2 2 0 0 167 591 273
825 2 2 0 0 147 532 146
826 2 2 0 0 92 608 91
827 2 2 0 0 472 676 368
828 2 2 0 0 364 592 254
829 2 2 0 0 21 504 44
830 2 2 0 0 365 597 248
831 2 2 0 0 125 592 116
832 2 2 0 0 588 589 224
833 2 2 0 0 111 113 112
834 2 2 0 0 63 469 408
835 2 2 0 0 105 109 106
836 2 2 0 0 242 526 243
837 2 2 0 0 439 712 29
838 2 2 0 0 240 517 234
839 2 2 0 0 346 533 304
840 2 2 0 0 14 500 38
841 2 2 0 0 494 495 484
842 2 2 0 0 127 630 440
843 2 2 0 0 208 537 204
844 2 2 0 0 175 562 179
845 2 2 0 0 303 626 555
846 2 2 0 0 359 526 242
847 2 2 0 0 243 526 268
848 2 2 0 0 217 537 208
849 2 2 0 0 58 498 55
850 2 2 0 0 503 552 30
851 2 2 0 0 13 499 12
852 2 2 0 0 268 621 569
853 2 2 0 0 489 497 487
854 2 2 0 0 475 498 58
855 2 2 0 0 430 526 359
856 2 2 0 0 248 597 99
857 2 2 0 0 292 537 217
858 2 2 0 0 26 645 45
859 2 2 0 0 234 517 279
860 2 2 0 0 14 497 39
861 2 2 0 0 385 537 292
862 2 2 0 0 305 533 360
863 2 2 0 0 304 533 301
864 2 2 0 0 146 532 284
865 2 2 0 0 483 494 484
866 2 2 0 0 173 562 175
867 2 2 0 0 116 480 112
868 2 2 0 0 224 590 246
869 2 2 0 0 189 518 187
870 2 2 0 0 498 536 72
871 2 2 0 0 414 525 353
872 2 2 0 0 160 522 144
873 2 2 0 0 547 609 548
874 2 2 0 0 182 535 180
875 2 2 0 0 297 601 389
876 2 2 0 0 44 594 81
877 2 2 0 0 301 533 305
878 2 2 0 0 105 106 96
879 2 2 0 0 515 596 200
880 2 2 0 0 293 562 173
881 2 2 0 0 73 523 282
882 2 2 0 0 148 527 285
883 2 2 0 0 174 545 172
884 2 2 0 0 218 596 323
885 2 2 0 0 200 596 203
886 2 2 0 0 149 542 151
887 2 2 0 0 446 552 444
888 2 2 0 0 49 461 330
889 2 2 0 0 330 397 48
890 2 2 0 0 453 738 377
891 2 2 0 0 255 534 324
892 2 2 0 0 52 551 388
893 2 2 0 0 634 646 260
894 2 2 0 0 513 615 358
895 2 2 0 0 438 525 414
896 2 2 0 0 516 618 386
897 2 2 0 0 198 518 189
898 2 2 0 0 227 566 361
899 2 2 0 0 559 560 241
900 2 2 0 0 90 587 93
901 2 2 0 0 416 522 160
902 2 2 0 0 102 591 167
903 2 2 0 0 134 609 137
904 2 2 0 0 298 558 372
905 2 2 0 0 132 574 130
906 2 2 0 0 106 606 96
907 2 2 0 0 159 559 241
908 2 2 0 0 32 611 6
909 2 2 0 0 158 543 155
910 2 2 0 0 223 513 239
911 2 2 0 0 288 531 319
912 2 2 0 0 323 513 220
913 2 2 0 0 115 516 114
914 2 2 0 0 521 601 297
915 2 2 0 0 610 698 455
916 2 2 0 0 354 600 431
917 2 2 0 0 351 550 349
918 2 2 0 0 256 521 297
919 2 2 0 0 140 604 138
920 2 2 0 0 77 460 119
921 2 2 0 0 17 503 16
922 2 2 0 0 9 502 10
923 2 2 0 0 104 587 331
924 2 2 0 0 152 528 150
925 2 2 0 0 315 541 378
926 2 2 0 0 170 548 164
927 2 2 0 0 590 659 420
928 2 2 0 0 11 624 28
929 2 2 0 0 199 549 202
930 2 2 0 0 502 624 10
931 2 2 0 0 453 600 354
932 2 2 0 0 42 43 41
933 2 2 0 0 38 499 13
934 2 2 0 0 285 527 382
935 2 2 0 0 190 514 192
936 2 2 0 0 157 529 528
937 2 2 0 0 231 643 549
938 2 2 0 0 331 587 459
939 2 2 0 0 451 701 232
940 2 2 0 0 99 597 100
941 2 2 0 0 361 568 214
942 2 2 0 0 372 740 544
943 2 2 0 0 221 545 174
944 2 2 0 0 138 604 238
945 2 2 0 0 340 572 275
946 2 2 0 0 338 563 274
947 2 2 0 0 524 542 287
948 2 2 0 0 265 595 312
949 2 2 0 0 111 511 113
950 2 2 0 0 580 658 588
951 2 2 0 0 580 588 163
952 2 2 0 0 237 576 277
953 2 2 0 0 444 503 36
954 2 2 0 0 131 583 580
955 2 2 0 0 505 571 329
956 2 2 0 0 203 596 218
957 2 2 0 0 584 634 260
958 2 2 0 0 261 584 260
959 2 2 0 0 369 647 365
960 2 2 0 0 251 586 215
961 2 2 0 0 348 564 270
962 2 2 0 0 450 552 446
963 2 2 0 0 390 496 391
964 2 2 0 0 66 598 62
965 2 2 0 0 465 623 423
966 2 2 0 0 258 591 102
967 2 2 0 0 343 566 227
968 2 2 0 0 564 623 244
969 2 2 0 0 154 617 141
970 2 2 0 0 324 534 392
971 2 2 0 0 50 502 37
972 2 2 0 0 524 556 542
973 2 2 0 0 544 700 372
974 2 2 0 0 122 516 115
975 2 2 0 0 177 557 221
976 2 2 0 0 489 698 610
977 2 2 0 0 93 587 104
978 2 2 0 0 136 574 132
979 2 2 0 0 593 646 634
980 2 2 0 0 116 592 480
981 2 2 0 0 143 617 527
982 2 2 0 0 225 604 140
983 2 2 0 0 137 631 139
984 2 2 0 0 549 553 202
985 2 2 0 0 164 548 135
986 2 2 0 0 404 550 351
987 2 2 0 0 34 721 473
988 2 2 0 0 220 513 223
989 2 2 0 0 317 640 511
990 2 2 0 0 100 597 258
991 2 2 0 0 588 658 589
992 2 2 0 0 323 615 513
993 2 2 0 0 568 626 303
994 2 2 0 0 377 605 405
995 2 2 0 0 178 613 212
996 2 2 0 0 493 628 373
997 2 2 0 0 157 528 152
998 2 2 0 0 591 627 363
999 2 2 0 0 409 541 315
1000 2 2 0 0 183 614 197
1001 2 2 0 0 103 598 66
1002 2 2 0 0 188 619 194
1003 2 2 0 0 213 599 226
1004 2 2 0 0 306 599 402
1005 2 2 0 0 97 607 25
1006 2 2 0 0 194 514 190
1007 2 2 0 0 373 628 76
1008 2 2 0 0 78 628 253
1009 2 2 0 0 42 47 43
1010 2 2 0 0 39 612 15
1011 2 2 0 0 16 612 29
1012 2 2 0 0 437 610 455
1013 2 2 0 0 487 497 13
1014 2 2 0 0 440 630 441
1015 2 2 0 0 479 713 562
1016 2 2 0 0 196 620 193
1017 2 2 0 0 456 572 340
1018 2 2 0 0 120 511 281
1019 2 2 0 0 577 578 235
1020 2 2 0 0 335 582 399
1021 2 2 0 0 314 741 683
1022 2 2 0 0 520 613 535
1023 2 2 0 0 585 634 584
1024 2 2 0 0 423 564 348
1025 2 2 0 0 457 561 411
1026 2 2 0 0 6 611 5
1027 2 2 0 0 385 620 537
1028 2 2 0 0 228 637 229
1029 2 2 0 0 366 637 249
1030 2 2 0 0 161 570 158
1031 2 2 0 0 434 640 435
1032 2 2 0 0 193 636 191
1033 2 2 0 0 410 606 106
1034 2 2 0 0 37 502 9
1035 2 2 0 0 36 503 17
1036 2 2 0 0 141 617 143
1037 2 2 0 0 363 627 401
1038 2 2 0 0 322 590 420
1039 2 2 0 0 357 618 128
1040 2 2 0 0 430 621 526
1041 2 2 0 0 540 687 103
1042 2 2 0 0 280 577 121
1043 2 2 0 0 276 575 318
1044 2 2 0 0 362 578 577
1045 2 2 0 0 109 649 496
1046 2 2 0 0 246 590 322
1047 2 2 0 0 326 569 381
1048 2 2 0 0 569 621 381
1049 2 2 0 0 269 569 272
1050 2 2 0 0 139 631 154
1051 2 2 0 0 649 664 496
1052 2 2 0 0 537 620 204
1053 2 2 0 0 355 461 49
1054 2 2 0 0 663 685 493
1055 2 2 0 0 479 745 207
1056 2 2 0 0 343 662 565
1057 2 2 0 0 212 557 177
1058 2 2 0 0 45 645 46
1059 2 2 0 0 496 670 109
1060 2 2 0 0 366 634 585
1061 2 2 0 0 384 616 531
1062 2 2 0 0 535 613 180
1063 2 2 0 0 391 632 364
1064 2 2 0 0 308 581 336
1065 2 2 0 0 344 625 462
1066 2 2 0 0 563 625 344
1067 2 2 0 0 13 497 14
1068 2 2 0 0 480 632 117
1069 2 2 0 0 371 668 585
1070 2 2 0 0 333 649 278
1071 2 2 0 0 387 601 521
1072 2 2 0 0 47 49 48
1073 2 2 0 0 358 615 428
1074 2 2 0 0 113 511 120
1075 2 2 0 0 527 617 382
1076 2 2 0 0 105 649 109
1077 2 2 0 0 398 573 307
1078 2 2 0 0 368 676 369
1079 2 2 0 0 180 613 178
1080 2 2 0 0 153 556 176
1081 2 2 0 0 432 657 367
1082 2 2 0 0 458 718 582
1083 2 2 0 0 207 614 183
1084 2 2 0 0 407 611 456
1085 2 2 0 0 244 623 517
1086 2 2 0 0 20 639 27
1087 2 2 0 0 476 675 87
1088 2 2 0 0 319 616 393
1089 2 2 0 0 474 707 197
1090 2 2 0 0 226 599 306
1091 2 2 0 0 47 48 43
1092 2 2 0 0 186 619 188
1093 2 2 0 0 412 732 328
1094 2 2 0 0 316 671 541
1095 2 2 0 0 293 734 478
1096 2 2 0 0 492 685 598
1097 2 2 0 0 528 629 532
1098 2 2 0 0 514 635 515
1099 2 2 0 0 531 616 319
1100 2 2 0 0 8 656 7
1101 2 2 0 0 387 602 601
1102 2 2 0 0 76 628 78
1103 2 2 0 0 122 618 516
1104 2 2 0 0 651 717 394
1105 2 2 0 0 423 623 564
1106 2 2 0 0 546 669 547
1107 2 2 0 0 4 679 34
1108 2 2 0 0 542 556 151
1109 2 2 0 0 548 609 135
1110 2 2 0 0 204 620 196
1111 2 2 0 0 529 629 528
1112 2 2 0 0 482 719 230
1113 2 2 0 0 258 627 591
1114 2 2 0 0 336 582 335
1115 2 2 0 0 197 686 667
1116 2 2 0 0 583 658 580
1117 2 2 0 0 85 675 98
1118 2 2 0 0 59 728 379
1119 2 2 0 0 400 625 338
1120 2 2 0 0 394 717 605
1121 2 2 0 0 471 650 450
1122 2 2 0 0 596 635 323
1123 2 2 0 0 249 637 228
1124 2 2 0 0 515 635 596
1125 2 2 0 0 338 625 563
1126 2 2 0 0 28 633 488
1127 2 2 0 0 566 622 361
1128 2 2 0 0 229 570 161
1129 2 2 0 0 468 654 465
1130 2 2 0 0 118 710 462
1131 2 2 0 0 15 612 16
1132 2 2 0 0 589 659 590
1133 2 2 0 0 526 621 268
1134 2 2 0 0 365 647 597
1135 2 2 0 0 579 583 235
1136 2 2 0 0 22 507 21
1137 2 2 0 0 342 682 264
1138 2 2 0 0 441 648 346
1139 2 2 0 0 191 636 198
1140 2 2 0 0 578 653 579
1141 2 2 0 0 135 609 134
1142 2 2 0 0 128 618 122
1143 2 2 0 0 378 681 310
1144 2 2 0 0 230 690 211
1145 2 2 0 0 210 690 232
1146 2 2 0 0 549 643 553
1147 2 2 0 0 233 661 247
1148 2 2 0 0 10 624 11
1149 2 2 0 0 640 709 435
1150 2 2 0 0 449 719 482
1151 2 2 0 0 452 726 33
1152 2 2 0 0 362 577 280
1153 2 2 0 0 318 575 433
1154 2 2 0 0 492 687 396
1155 2 2 0 0 586 734 293
1156 2 2 0 0 357 655 618
1157 2 2 0 0 277 567 259
1158 2 2 0 0 522 641 225
1159 2 2 0 0 511 640 281
1160 2 2 0 0 247 661 483
1161 2 2 0 0 610 693 39
1162 2 2 0 0 272 569 326
1163 2 2 0 0 490 695 70
1164 2 2 0 0 553 643 599
1165 2 2 0 0 532 629 284
1166 2 2 0 0 29 712 17
1167 2 2 0 0 632 665 117
1168 2 2 0 0 618 655 386
1169 2 2 0 0 241 699 576
1170 2 2 0 0 457 728 561
1171 2 2 0 0 485 572 456
1172 2 2 0 0 430 667 621
1173 2 2 0 0 582 672 458
1174 2 2 0 0 395 687 540
1175 2 2 0 0 504 594 44
1176 2 2 0 0 181 713 207
1177 2 2 0 0 197 707 184
1178 2 2 0 0 524 657 556
1179 2 2 0 0 475 536 498
1180 2 2 0 0 394 738 320
1181 2 2 0 0 51 714 561
1182 2 2 0 0 151 556 153
1183 2 2 0 0 437 693 610
1184 2 2 0 0 361 626 568
1185 2 2 0 0 611 679 5
1186 2 2 0 0 231 680 643
1187 2 2 0 0 462 706 118
1188 2 2 0 0 390 670 496
1189 2 2 0 0 602 642 601
1190 2 2 0 0 49 330 48
1191 2 2 0 0 391 665 632
1192 2 2 0 0 508 737 375
1193 2 2 0 0 450 650 552
1194 2 2 0 0 368 732 476
1195 2 2 0 0 578 579 235
1196 2 2 0 0 402 581 308
1197 2 2 0 0 43 486 41
1198 2 2 0 0 562 713 179
1199 2 2 0 0 592 632 480
1200 2 2 0 0 416 641 522
1201 2 2 0 0 372 668 371
1202 2 2 0 0 452 712 439
1203 2 2 0 0 282 720 455
1204 2 2 0 0 556 657 176
1205 2 2 0 0 364 632 592
1206 2 2 0 0 403 726 452
1207 2 2 0 0 465 654 623
1208 2 2 0 0 278 649 105
1209 2 2 0 0 154 652 617
1210 2 2 0 0 383 688 603
1211 2 2 0 0 451 719 447
1212 2 2 0 0 317 709 640
1213 2 2 0 0 604 711 642
1214 2 2 0 0 382 652 383
1215 2 2 0 0 601 642 389
1216 2 2 0 0 284 671 316
1217 2 2 0 0 599 643 402
1218 2 2 0 0 388 633 624
1219 2 2 0 0 267 678 311
1220 2 2 0 0 337 681 530
1221 2 2 0 0 279 661 233
1222 2 2 0 0 605 738 394
1223 2 2 0 0 33 677 504
1224 2 2 0 0 386 655 387
1225 2 2 0 0 547 669 631
1226 2 2 0 0 562 731 479
1227 2 2 0 0 360 648 595
1228 2 2 0 0 432 692 657
1229 2 2 0 0 367 657 524
1230 2 2 0 0 633 695 488
1231 2 2 0 0 415 473 341
1232 2 2 0 0 644 672 336
1233 2 2 0 0 551 633 388
1234 2 2 0 0 533 648 360
1235 2 2 0 0 407 679 611
1236 2 2 0 0 323 635 615
1237 2 2 0 0 530 681 529
1238 2 2 0 0 393 651 394
1239 2 2 0 0 387 655 602
1240 2 2 0 0 238 703 574
1241 2 2 0 0 594 677 505
1242 2 2 0 0 559 692 560
1243 2 2 0 0 621 667 381
1244 2 2 0 0 405 674 376
1245 2 2 0 0 325 732 368
1246 2 2 0 0 623 654 517
1247 2 2 0 0 581 644 336
1248 2 2 0 0 346 648 533
1249 2 2 0 0 517 654 279
1250 2 2 0 0 477 705 481
1251 2 2 0 0 481 705 355
1252 2 2 0 0 561 728 57
1253 2 2 0 0 379 705 477
1254 2 2 0 0 617 652 382
1255 2 2 0 0 30 650 500
1256 2 2 0 0 376 674 385
1257 2 2 0 0 518 715 519
1258 2 2 0 0 474 667 430
1259 2 2 0 0 478 734 294
1260 2 2 0 0 624 633 28
1261 2 2 0 0 186 707 619
1262 2 2 0 0 64 663 475
1263 2 2 0 0 597 647 258
1264 2 2 0 0 377 738 605
1265 2 2 0 0 31 735 467
1266 2 2 0 0 27 718 458
1267 2 2 0 0 419 673 68
1268 2 2 0 0 616 722 393
1269 2 2 0 0 24 723 419
1270 2 2 0 0 397 638 48
1271 2 2 0 0 404 730 460
1272 2 2 0 0 91 676 472
1273 2 2 0 0 622 626 361
1274 2 2 0 0 7 656 32
1275 2 2 0 0 576 697 277
1276 2 2 0 0 471 691 650
1277 2 2 0 0 536 663 373
1278 2 2 0 0 484 691 471
1279 2 2 0 0 552 650 30
1280 2 2 0 0 311 678 600
1281 2 2 0 0 486 729 5
1282 2 2 0 0 418 673 666
1283 2 2 0 0 232 680 231
1284 2 2 0 0 5 679 4
1285 2 2 0 0 117 665 539
1286 2 2 0 0 384 702 616
1287 2 2 0 0 557 702 221
1288 2 2 0 0 87 675 85
1289 2 2 0 0 225 711 604
1290 2 2 0 0 505 677 571
1291 2 2 0 0 483 661 494
1292 2 2 0 0 263 565 375
1293 2 2 0 0 504 677 594
1294 2 2 0 0 582 718 399
1295 2 2 0 0 645 714 46
1296 2 2 0 0 534 708 392
1297 2 2 0 0 643 680 402
1298 2 2 0 0 18 712 452
1299 2 2 0 0 392 670 390
1300 2 2 0 0 221 702 603
1301 2 2 0 0 496 664 391
1302 2 2 0 0 606 710 118
1303 2 2 0 0 655 703 602
1304 2 2 0 0 608 676 91
1305 2 2 0 0 194 684 514
1306 2 2 0 0 541 671 378
1307 2 2 0 0 154 669 652
1308 2 2 0 0 399 718 639
1309 2 2 0 0 405 715 674
1310 2 2 0 0 33 726 677
1311 2 2 0 0 629 671 284
1312 2 2 0 0 468 735 495
1313 2 2 0 0 469 704 408
1314 2 2 0 0 427 745 479
1315 2 2 0 0 294 734 251
1316 2 2 0 0 461 705 379
1317 2 2 0 0 385 674 636
1318 2 2 0 0 657 692 176
1319 2 2 0 0 561 714 411
1320 2 2 0 0 631 669 154
1321 2 2 0 0 264 682 265
1322 2 2 0 0 43 638 486
1323 2 2 0 0 48 638 43
1324 2 2 0 0 194 744 684
1325 2 2 0 0 381 686 380
1326 2 2 0 0 658 716 589
1327 2 2 0 0 263 567 565
1328 2 2 0 0 310 681 337
1329 2 2 0 0 493 685 492
1330 2 2 0 0 64 685 663
1331 2 2 0 0 309 678 267
1332 2 2 0 0 600 678 431
1333 2 2 0 0 538 694 333
1334 2 2 0 0 598 685 64
1335 2 2 0 0 551 695 633
1336 2 2 0 0 560 699 241
1337 2 2 0 0 211 690 210
1338 2 2 0 0 2 723 3
1339 2 2 0 0 630 708 441
1340 2 2 0 0 467 735 468
1341 2 2 0 0 396 687 395
1342 2 2 0 0 35 507 22
1343 2 2 0 0 259 567 263
1344 2 2 0 0 417 673 418
1345 2 2 0 0 614 686 197
1346 2 2 0 0 392 708 630
1347 2 2 0 0 5 729 6
1348 2 2 0 0 279 725 661
1349 2 2 0 0 6 729 26
1350 2 2 0 0 357 703 655
1351 2 2 0 0 514 684 635
1352 2 2 0 0 540 733 538
1353 2 2 0 0 374 741 593
1354 2 2 0 0 176 692 559
1355 2 2 0 0 650 691 500
1356 2 2 0 0 484 736 691
1357 2 2 0 0 83 733 540
1358 2 2 0 0 558 740 372
1359 2 2 0 0 626 697 555
1360 2 2 0 0 436 693 437
1361 2 2 0 0 375 737 374
1362 2 2 0 0 475 663 536
1363 2 2 0 0 636 674 198
1364 2 2 0 0 674 715 198
1365 2 2 0 0 70 695 551
1366 2 2 0 0 406 721 407
1367 2 2 0 0 677 726 571
1368 2 2 0 0 258 647 627
1369 2 2 0 0 448 701 451
1370 2 2 0 0 458 672 506
1371 2 2 0 0 229 700 570
1372 2 2 0 0 684 744 428
1373 2 2 0 0 570 700 544
1374 2 2 0 0 678 742 431
1375 2 2 0 0 646 741 314
1376 2 2 0 0 603 702 384
1377 2 2 0 0 478 731 293
1378 2 2 0 0 309 742 678
1379 2 2 0 0 380 686 614
1380 2 2 0 0 494 725 468
1381 2 2 0 0 500 691 38
1382 2 2 0 0 635 684 615
1383 2 2 0 0 661 725 494
1384 2 2 0 0 679 721 34
1385 2 2 0 0 509 510 35
1386 2 2 0 0 46 714 51
1387 2 2 0 0 615 684 428
1388 2 2 0 0 432 742 689
1389 2 2 0 0 179 713 181
1390 2 2 0 0 26 739 645
1391 2 2 0 0 35 510 507
1392 2 2 0 0 574 703 357
1393 2 2 0 0 184 707 186
1394 2 2 0 0 39 693 612
1395 2 2 0 0 665 694 539
1396 2 2 0 0 312 708 534
1397 2 2 0 0 554 689 309
1398 2 2 0 0 1 737 508
1399 2 2 0 0 519 717 520
1400 2 2 0 0 277 697 622
1401 2 2 0 0 389 711 641
1402 2 2 0 0 495 736 484
1403 2 2 0 0 17 712 18
1404 2 2 0 0 212 722 557
1405 2 2 0 0 455 720 438
1406 2 2 0 0 622 697 626
1407 2 2 0 0 664 694 665
1408 2 2 0 0 447 719 449
1409 2 2 0 0 669 688 652
1410 2 2 0 0 612 693 436
1411 2 2 0 0 619 744 194
1412 2 2 0 0 57 728 59
1413 2 2 0 0 579 658 583
1414 2 2 0 0 438 727 525
1415 2 2 0 0 539 733 83
1416 2 2 0 0 479 731 478
1417 2 2 0 0 691 736 38
1418 2 2 0 0 401 724 400
1419 2 2 0 0 420 660 2
1420 2 2 0 0 328 732 325
1421 2 2 0 0 320 738 453
1422 2 2 0 0 428 744 429
1423 2 2 0 0 431 742 432
1424 2 2 0 0 425 745 427
1425 2 2 0 0 408 743 434
1426 2 2 0 0 571 726 403
1427 2 2 0 0 119 727 523
1428 2 2 0 0 625 706 462
1429 2 2 0 0 525 730 404
1430 2 2 0 0 499 736 495
1431 2 2 0 0 468 725 654
1432 2 2 0 0 336 672 582
1433 2 2 0 0 198 715 518
1434 2 2 0 0 400 724 706
1435 2 2 0 0 402 680 581
1436 2 2 0 0 589 716 659
1437 2 2 0 0 727 730 525
1438 2 2 0 0 664 665 391
1439 2 2 0 0 337 740 558
1440 2 2 0 0 293 731 562
1441 2 2 0 0 523 720 282
1442 2 2 0 0 460 730 119
1443 2 2 0 0 641 711 225
1444 2 2 0 0 429 744 619
1445 2 2 0 0 119 730 727
1446 2 2 0 0 651 722 212
1447 2 2 0 0 38 736 499
1448 2 2 0 0 667 686 381
1449 2 2 0 0 652 688 383
1450 2 2 0 0 410 710 606
1451 2 2 0 0 644 701 448
1452 2 2 0 0 666 673 419
1453 2 2 0 0 704 743 408
1454 2 2 0 0 251 734 586
1455 2 2 0 0 400 706 625
1456 2 2 0 0 546 688 669
1457 2 2 0 0 668 700 229
1458 2 2 0 0 538 733 694
1459 2 2 0 0 333 694 664
1460 2 2 0 0 565 662 375
1461 2 2 0 0 720 727 438
1462 2 2 0 0 372 700 668
1463 2 2 0 0 579 716 658
1464 2 2 0 0 642 711 389
1465 2 2 0 0 355 705 461
1466 2 2 0 0 407 721 679
1467 2 2 0 0 523 727 720
1468 2 2 0 0 654 725 279
1469 2 2 0 0 639 718 27
1470 2 2 0 0 694 733 539
1471 2 2 0 0 393 722 651
1472 2 2 0 0 645 739 397
1473 2 2 0 0 683 741 374
1474 2 2 0 0 397 739 638
1475 2 2 0 0 653 716 579
1476 2 2 0 0 666 723 660
1477 2 2 0 0 419 723 666
1478 2 2 0 0 374 737 683
1479 2 2 0 0 593 741 646
1480 2 2 0 0 683 737 1
1481 2 2 0 0 689 742 309
1482 2 2 0 0 660 723 2
1483 2 2 0 0 23 25 1
1484 2 2 0 0 25 607 1
1485 2 2 0 0 3 34 2
1486 2 2 0 0 34 415 2
$EndElements
