$MeshFormat
2.2 0 8
$EndMeshFormat
$Nodes
745
1 4.7974530005203860e-05 3.6271510399940220e-05 1.0182462220243830e-03
2 5.9294901785983545e-05 -3.6065156433503529e-05 -1.0165704338834637e-03
3 1.3183674441506648e-04 2.6108352552956194e-05 -1.0088354507427535e-03
4 2.4581662090515595e-04 3.6099592458164974e-05 -9.8644669091636815e-04
5 3.7195002584431932e-04 4.7744815962432179e-05 -9.4350796381558822e-04
6 4.9141330104648809e-04 4.1423542264827566e-07 -8.8431174518999590e-04
7 6.2078313733297146e-04 -1.0540622584250388e-05 -7.9367307837879288e-04
8 7.3155482340498139e-04 -8.9579737084714835e-06 -6.8697394905446990e-04
9 8.3716319610824556e-04 -3.7582559582604421e-06 -5.4539020650500860e-04
10 9.0756169611371602e-04 7.3913847541397567e-07 -4.0969116385428767e-04
11 9.5389624675953357e-04 6.1571517577059083e-06 -2.7712911609806712e-04
12 9.8157375932747797e-04 3.4225238930788647e-06 -1.4286020856098359e-04
13 9.9133396760451675e-04 1.1529480251207827e-07 1.1170991958636448e-06
14 9.8129256439555453e-04 1.0026467880487468e-05 1.4341477735128904e-04
15 9.5369417612005012e-04 1.0710549710002463e-05 2.7763787078505611e-04
16 9.0471926457127603e-04 7.9288519091041829e-06 4.1685050145181212e-04
17 8.3385688394722716e-04 2.4334742903551755e-06 5.5106985773574859e-04
18 7.3180158345468259e-04 9.3400457937721719e-07 6.8730445271899089e-04
19 6.2193016509128974e-04 6.5895279182123817e-06 7.9340279459285768e-04
20 5.0031169811520912e-04 8.9743998195751077e-07 8.7954795921807167e-04
21 3.8219055180378569e-04 -6.1107962346771288e-06 9.4019919226399364e-04
22 2.5729158094705808e-04 8.8729426057618151e-06 9.8429726466846192e-04
23 1.3536425717677587e-04 -7.3200182788733933e-06 1.0092913535236182e-03
24 1.7320728125430854e-04 1.2270712364011245e-04 -9.9553065807353176e-04
25 1.6276486424355419e-04 1.0304808600690272e-04 1.0006612354452858e-03
26 5.6831184865097941e-04 1.0681006316435703e-04 -8.2650573235456355e-04
27 5.6688450703634512e-04 -1.0908762522775268e-04 8.2820469538698207e-04
28 9.6157681977426931e-04 1.3599503952604634e-04 -2.0447708214276072e-04
29 8.5690320039193558e-04 1.4507031930858691e-04 4.9180307732144500e-04
30 9.2851245614145115e-04 -1.1231126596910862e-04 3.3802682595932866e-04
31 9.6202369246541823e-04 -1.1784254941382418e-04 -2.1346289795382551e-04
32 5.3691178723132651e-04 -1.2033868448474174e-04 -8.4710518576700455e-04
33 5.5252469720431532e-04 1.1451851890086020e-04 8.3740245203619754e-04
34 1.5481973332279425e-04 -8.8916545925676315e-05 -1.0030867156411113e-03
35 1.8723772779124498e-04 -9.8220019001652063e-05 9.9574788604940155e-04
36 7.8538035982483715e-04 -1.1265768171867588e-04 6.1090793108568647e-04
37 7.7765543711530557e-04 1.1918689797427478e-04 -6.1923541184120696e-04
38 9.8265670261809233e-04 -1.0751885107103885e-04 7.3949684846643973e-05
39 9.6257324433856846e-04 1.2590516050094733e-04 2.0527219579093053e-04
40 8.6656799025731945e-04 -1.2699312447003727e-04 -4.7718260714454372e-04
41 2.9264334058071238e-04 1.3121234538589449e-04 -9.6400531704153082e-04
42 1.9739134795110941e-04 2.5044096296548729e-04 -9.6441947054660634e-04
43 3.3107755141911809e-04 2.4696782709637111e-04 -9.2528667358308036e-04
44 3.0467819698782271e-04 1.1016681157994461e-04 9.6339076356531867e-04
45 6.7604148971992363e-04 1.1136705715448457e-04 -7.3548025055512141e-04
46 7.2009931972806366e-04 2.2925134625687853e-04 -6.5853677773727642e-04
47 2.7276137088075970e-04 3.6160054236397107e-04 -9.0539813092616994e-04
48 3.9832743084464644e-04 3.5247427873555365e-04 -8.5858895672773878e-04
49 3.3024884672258294e-04 4.6488862548331846e-04 -8.3214339400797461e-04
50 8.0697844601615605e-04 2.4279909537760415e-04 -5.3576408792431018e-04
51 7.3091922042959159e-04 3.6166182092378413e-04 -5.7851485055535360e-04
52 8.1039427695977573e-04 3.6541503712301637e-04 -4.4979576364492221e-04
53 7.2480897197401621e-04 4.8801801530746369e-04 -4.8013327640273088e-04
54 7.9848971902617366e-04 4.7934059891717814e-04 -3.4741386047527635e-04
55 7.1054645011725298e-04 5.9111235677446400e-04 -3.6660014327523848e-04
56 7.7421145219439273e-04 5.7490278718001482e-04 -2.3383986979316895e-04
57 6.2822493759351664e-04 5.9757367964339951e-04 -4.9231401650692180e-04
58 6.0588309159296584e-04 6.9043025439734338e-04 -3.8111278578078475e-04
59 5.1669770672003025e-04 6.9236516299320445e-04 -4.9789463525163192e-04
60 4.8779590474599661e-04 7.7276582590673354e-04 -3.9282321395031611e-04
61 3.9681431032859203e-04 7.6047355826111931e-04 -5.0931138920654560e-04
62 3.6126946092385892e-04 8.3828380691683673e-04 -3.9532215000024983e-04
63 2.0936777703416123e-04 4.5589566340683321e-04 -8.7776794275123016e-04
64 4.4998794052650444e-04 8.3720825304524230e-04 -2.8588909756846551e-04
65 2.5807218398191887e-04 8.1726098186137280e-04 -5.1071375081045394e-04
66 2.2900043731646533e-04 8.9137481003782730e-04 -3.7656680323512696e-04
67 1.2468858627530459e-04 8.6490318087622772e-04 -4.7961892836015385e-04
68 9.6640801678535008e-05 2.4730095142742306e-04 -9.8129968068671612e-04
69 1.4439396191738780e-04 7.7088133176721142e-04 -6.2315659124230244e-04
70 8.5089679469856820e-04 4.6228592251177655e-04 -2.1508596684562548e-04
71 8.2212352421616756e-04 5.4432785765988045e-04 -1.0259197522724697e-04
72 7.3004569726426469e-04 6.5869233013339328e-04 -1.2547417870763472e-04
73 7.6764708229458249e-04 6.2678215452156470e-04 2.9517137948239499e-06
74 6.6489977770318521e-04 7.3408433624465124e-04 -2.6261688085328117e-05
75 6.8982318395896514e-04 7.0399621410476238e-04 1.0263114519087687e-04
76 5.8368703239336289e-04 7.9748093164820296e-04 7.1405189189224913e-05
77 6.0947855648156753e-04 7.5528925988157082e-04 2.0439049462350493e-04
78 4.9911564802156746e-04 8.3869578734322857e-04 1.7505466615038028e-04
79 9.3613812959098002e-05 9.2960765929125998e-04 -3.3822674451845514e-04
80 -1.2800899732536782e-05 8.9762793190296454e-04 -4.2989789973392256e-04
81 2.3689848620526865e-04 2.1391095500329982e-04 9.6501387270717055e-04
82 5.1786899401450341e-04 7.8802519086879368e-04 3.1281508108107385e-04
83 -4.2214904589231055e-05 9.4551821835866157e-04 -2.9924171574157110e-04
84 4.0281494715634921e-04 8.6364766791623344e-04 2.7821934010900033e-04
85 4.1847611647083719e-04 8.0637654749595637e-04 4.0592277875808853e-04
86 2.9364153036540630e-04 8.7317516416847191e-04 3.7405303827350617e-04
87 3.0078231107154990e-04 8.0661366776822816e-04 5.0312097211444463e-04
88 1.8295902717308719e-04 8.6060658585895974e-04 4.6750349135302942e-04
89 1.6639394952431286e-04 9.1949364546364592e-04 3.3759190461367074e-04
90 5.2863035841663288e-05 8.9864805732894990e-04 4.2440684125449575e-04
91 6.9759835345926797e-05 8.2845754244795634e-04 5.5318250065382942e-04
92 -5.8696199972002704e-05 8.5706338363121808e-04 5.0599721986522065e-04
93 -8.9303955719672031e-05 9.1472235582936811e-04 3.7908416987799998e-04
94 -1.9125679866989544e-04 8.6476959338606895e-04 4.5504078696323544e-04
95 -1.6641387052661959e-04 7.9911215928562629e-04 5.7466906999713264e-04
96 -2.2071570178617379e-04 9.1075428794412444e-04 3.2910958426852913e-04
97 1.1866646326483892e-04 2.1892660944666749e-04 9.8653695836934644e-04
98 5.3787440710312674e-04 7.0886665263445543e-04 4.4997578100220131e-04
99 1.7159953432876985e-04 3.3906980002747770e-04 9.4105168522914202e-04
100 4.5525831542517469e-05 3.2800546901555125e-04 9.6046786604419708e-04
101 -6.4839830061463322e-06 2.1670876128074141e-04 9.9462926243361273e-04
102 -8.7020490058097540e-05 3.2019884668681999e-04 9.6022488066725112e-04
103 1.9799503784380775e-04 9.4148722982004046e-04 -2.4223936995376263e-04
104 -1.1336349593079204e-04 9.5398611774806096e-04 2.4738127925399598e-04
105 -2.4460179531743317e-04 9.3814369718074272e-04 2.0768902827731405e-04
106 -3.5071496517256526e-04 8.8555969346908582e-04 2.7861509865440779e-04
107 -1.5292874936476781e-04 9.0662177377677272e-04 -3.7793311954120132e-04
108 -1.2903925340232208e-04 8.4673966594952903e-04 -5.1078834035019082e-04
109 -3.7653673593716620e-04 9.0404940094855949e-04 1.5114659568574897e-04
110 -2.6113906178566341e-04 8.4763566288163761e-04 -4.5260648772475499e-04
111 -2.3240251460441750e-04 7.7532665386102360e-04 -5.8647312606741595e-04
112 -3.6714662329840643e-04 7.6909867605077012e-04 -5.1833220810667299e-04
113 -3.3603485080171611e-04 6.9064315024336507e-04 -6.4259429237955744e-04
114 -4.6475734845766669e-04 6.7573466795422187e-04 -5.7036356488719697e-04
115 -4.2620823840621759e-04 5.9337502525487788e-04 -6.8710723572622289e-04
116 -4.9691889897517799e-04 7.3880954930003481e-04 -4.4538229104990165e-04
117 -2.8871462990372334e-04 8.9604039958907729e-04 -3.1542924742851240e-04
118 -2.8501109541001474e-04 7.8312004942671586e-04 5.5091419187675299e-04
119 7.0039739327893813e-04 6.6464092587333132e-04 2.2691354473876058e-04
120 -2.9271412350755609e-04 5.8894182591207880e-04 -7.6118999004097694e-04
121 -3.7680211365419687e-04 4.9023938920157446e-04 -7.9522271269289672e-04
122 -5.0310962218751544e-04 4.7594549423058178e-04 -7.2739621777290133e-04
123 -4.4985482323817426e-04 3.7019661968242776e-04 -8.2309066082716389e-04
124 -5.8548128515061883e-04 6.3739064149676233e-04 -4.9441415588545254e-04
125 -6.1186823887826190e-04 6.9460038510358582e-04 -3.6146273775961485e-04
126 -6.9424503453492095e-04 5.8650602036622453e-04 -4.0402337413994569e-04
127 -4.8119117810362837e-04 8.3774512440955426e-04 2.2390260547237013e-04
128 -5.7250435380172310e-04 3.4855863747869652e-04 -7.4903813029470368e-04
129 -5.1249170397875681e-04 2.3972307507614198e-04 -8.3538998153419276e-04
130 -6.3181168109516109e-04 2.2181305744668335e-04 -7.4972501457401780e-04
131 -5.6373644194002604e-04 1.1108920367287676e-04 -8.2914137541406738e-04
132 -6.8233952555686616e-04 9.1642491375093624e-05 -7.3172467101813754e-04
133 -6.1227114333179842e-04 -1.8054975666739488e-05 -8.0003791593014572e-04
134 -7.2444104135850347e-04 -4.0490754163532609e-05 -6.9310739555790825e-04
135 -6.4689951812021312e-04 -1.4840375036592689e-04 -7.5588555542201522e-04
136 -7.8876394479235475e-04 7.5878477199718862e-05 -6.1089605835131422e-04
137 -8.2014251628694543e-04 -6.4831227587947758e-05 -5.6703950633627117e-04
138 -8.7026805054526177e-04 5.4063748918633171e-05 -4.8301364797587637e-04
139 -8.8988745399467813e-04 -9.2680530434698633e-05 -4.3683638661515722e-04
140 -9.3043485861028460e-04 2.0754927390671278e-05 -3.4816216317255577e-04
141 -9.3983036708511123e-04 -1.1527088798950849e-04 -2.9900789247457184e-04
142 -9.6869956961811402e-04 -1.3539868774660937e-05 -2.1204326467295822e-04
143 -9.6703648338227963e-04 -1.4506708481293811e-04 -1.6338978299486204e-04
144 -9.8698085838947965e-04 -4.0298319480995179e-05 -7.7354914401582696e-05
145 -9.7506923469509209e-04 -1.7404394934498704e-04 -2.5464556938976290e-05
146 -9.8730339556584649e-04 -6.2165554515158304e-05 5.4330399827963025e-05
147 -9.6669382294882510e-04 -1.9046274537151914e-04 1.0726840893658042e-04
148 -9.4272960279672790e-04 -3.0422791403531067e-04 2.4508365378618278e-05
149 -9.2751900761760980e-04 -3.1269864883955905e-04 1.5838830770151041e-04
150 -9.4311928403518336e-04 -1.9592460177158543e-04 2.3829669583294143e-04
151 -8.9546702306731243e-04 -3.1546656605648270e-04 2.9121205940739697e-04
152 -8.9919528304284891e-04 -1.9587517952642400e-04 3.7702727427571612e-04
153 -8.4232883446908242e-04 -3.2039531244238339e-04 4.2282574495461920e-04
154 -8.9211686002697746e-04 -2.2156634135789077e-04 -3.7921474586047397e-04
155 -8.3116980671091843e-04 -2.0256068344257341e-04 5.1332067857156097e-04
156 -7.6287178409789136e-04 -3.3231341905169470e-04 5.5245138469299624e-04
157 -8.7950787414615625e-04 -6.8554154710462765e-05 4.6337204229744125e-04
158 -7.4292960274116809e-04 -2.1589301599152491e-04 6.3573368311818602e-04
159 -6.6176563580415035e-04 -3.3609482593556587e-04 6.7437666659010448e-04
160 -9.8801136138228609e-04 7.1436535743353189e-05 5.2180744168017247e-06
161 -6.3532381752526691e-04 -2.1821583752600825e-04 7.4814808344982357e-04
162 -5.5003263406323464e-04 -3.2623914356057812e-04 7.7774933112557693e-04
163 -5.2325281512426050e-04 -1.1910251557125699e-04 -8.5594205013816429e-04
164 -5.4844482742084466e-04 -2.5260065962567408e-04 -8.0733066743073295e-04
165 -7.1196000093187392e-04 6.3620084578088149e-04 -2.6994073715268040e-04
166 -1.3971217826129660e-04 2.1944898252448274e-04 9.8345250863378060e-04
167 -2.2286695226732706e-04 3.1327481978056873e-04 9.3899911516131911e-04
168 -4.1844208092888197e-04 -2.1310551373620787e-04 -8.9695754451180672e-04
169 -4.3522059494626033e-04 -3.4939027584603318e-04 -8.4154830490213697e-04
170 -5.5520371304651191e-04 -3.8479591267718470e-04 -7.4500970206561954e-04
171 -4.4293795635456853e-04 -4.7760803387868005e-04 -7.6751402059913607e-04
172 -5.5564622815300942e-04 -5.1159191130900812e-04 -6.5924722142333058e-04
173 -4.4099017629202519e-04 -5.9793692869885022e-04 -6.7398717998415748e-04
174 -5.4151353826733454e-04 -6.2736830549597791e-04 -5.5840026913846241e-04
175 -4.2958514767961356e-04 -7.0709060392614039e-04 -5.6074621257495394e-04
176 -7.6843769233715848e-04 -4.3483495974960194e-04 4.6145373113231199e-04
177 -5.1900478286880797e-04 -7.2415759442855348e-04 -4.4595778766740528e-04
178 -4.0832302424265269e-04 -7.9723849530723297e-04 -4.3606304651715302e-04
179 -3.1180690651523693e-04 -7.8030423995431933e-04 -5.3983444186342204e-04
180 -2.8075475266452085e-04 -8.5997081199019746e-04 -4.1641451937542243e-04
181 -1.7979310517721698e-04 -8.3226767004212230e-04 -5.2120083879377390e-04
182 -1.4198225827657973e-04 -9.0011320661419387e-04 -4.0114706158417035e-04
183 -4.4682425980986105e-05 -8.5850006176707138e-04 -5.0741763790092688e-04
184 -1.2991126547587049e-05 -9.2028598631398281e-04 -3.7839798045355655e-04
185 -1.0176826824179952e-04 -9.5106610345989417e-04 -2.6795705209844528e-04
186 3.4491590072669965e-05 -9.6163103632162725e-04 -2.4503494151336807e-04
187 -5.3952592957129694e-05 -9.8066960860393134e-04 -1.3938938070271229e-04
188 8.7532856276098829e-05 -9.8084817415672689e-04 -1.1922984918591629e-04
189 -7.8869130428015010e-06 -9.9137864932143560e-04 -1.4667857199176265e-05
190 1.3000018790034035e-04 -9.8296780271143872e-04 1.0685887175304268e-05
191 2.9284845433993073e-05 -9.8525031063939530e-04 1.1081485038279511e-04
192 1.6495348855243092e-04 -9.6889162423649522e-04 1.3563140059216712e-04
193 6.4519060537477900e-05 -9.6318198610385538e-04 2.3315489190252456e-04
194 2.2092718983936894e-04 -9.6233873061836949e-04 -9.2042613346428128e-05
195 1.9966946759885460e-04 -9.3762320687151672e-04 2.6094156484890441e-04
196 9.7006895224074151e-05 -9.2096723862313294e-04 3.6444321770269571e-04
197 1.0706205014588226e-04 -8.7072189804189755e-04 -4.7584814348703060e-04
198 -9.7287854048625920e-05 -9.8358682896666446e-04 7.8299443027680951e-05
199 2.3308743181281330e-04 -8.8600220836321491e-04 3.9002156475538807e-04
200 3.3306110844158725e-04 -8.9161564397989156e-04 2.8629192397227704e-04
201 3.6260781870224839e-04 -8.3044236626275247e-04 4.1386267727477855e-04
202 1.2973160234914960e-04 -8.5716855935237535e-04 4.9459631838261631e-04
203 4.5501528887755710e-04 -8.2972034248099001e-04 3.0487324640600952e-04
204 -4.4795365471675141e-06 -8.8396025862049908e-04 4.6171237588369198e-04
205 2.9153604646650406e-05 -8.0755150621104920e-04 5.9047716391264296e-04
206 -8.9408669559180398e-04 -4.2169946386294370e-04 7.1616292619190895e-05
207 -8.7800908687685650e-05 -7.7434852797921819e-04 -6.3014072418735565e-04
208 -1.0329397488669660e-04 -8.2603072001702338e-04 5.5355550619995506e-04
209 -6.9965131280437352e-05 -7.3664822510383435e-04 6.7811463054671972e-04
210 4.8099551619300339e-04 -7.5950972863931307e-04 4.2992513356120170e-04
211 5.6814265987790405e-04 -7.5285770026228078e-04 3.1444546226553943e-04
212 -4.9118796824620383e-04 -8.0158502687584427e-04 -3.2231036112888870e-04
213 5.8266855159200696e-05 -7.1107950597546171e-04 7.0751180176280618e-04
214 -3.8211149221454302e-05 -6.2849415846108416e-04 7.8688521155935074e-04
215 -3.1534365764212147e-04 -2.9610355757153141e-04 -9.1654909569249896e-04
216 -2.0477242633824591e-04 -7.4958183963957556e-04 6.3269616403498078e-04
217 -2.3757755753556556e-04 -8.2886408946666250e-04 5.0296250756856154e-04
218 5.4205366569262149e-04 -8.0934335372302734e-04 1.9168240678563899e-04
219 6.5385777226863488e-04 -7.1711659324607462e-04 2.1084935550535786e-04
220 6.1725345519775092e-04 -7.7176104279030454e-04 8.6140443906304901e-05
221 -6.2796615430707340e-04 -6.3838141544389352e-04 -4.3591923156698661e-04
222 7.1824272996623547e-04 -6.7641716068779186e-04 1.0507437092323119e-04
223 6.8051785493075353e-04 -7.2098634819755419e-04 -2.4233864713858711e-05
224 -2.8949348600084015e-04 -1.6415383382085223e-04 -9.5978139230230017e-04
225 -9.5418005809751226e-04 1.1222204039290846e-04 -2.4631350843436580e-04
226 8.4766149406415457e-05 -5.9387879799468546e-04 8.1130959930987199e-04
227 -8.2872450608282843e-06 -5.0724524814875233e-04 8.7545967180283762e-04
228 -5.1806499455479100e-04 -1.9735803780797275e-04 8.4388583558822497e-04
229 -5.9409551581590236e-04 -9.6319054864769599e-05 8.0829552967611991e-04
230 6.6673623652939646e-04 -6.5485878577110760e-04 3.4057978055169829e-04
231 3.9157226762716606e-04 -7.5150128465757584e-04 5.2892821016485786e-04
232 5.1455818173694410e-04 -6.5857351301753749e-04 5.4985433836308040e-04
233 7.6896708533851106e-04 -6.2585949029937140e-04 -1.5974491007160830e-05
234 7.2966123626804803e-04 -6.5749557674356937e-04 -1.3964757110692281e-04
235 -3.8823505597924312e-04 2.5731260681634228e-04 -8.9845241161491435e-04
236 2.9520628289153648e-04 3.3755999482712424e-04 9.0854285632229902e-04
237 -4.3287385315320299e-04 -2.9723589404976572e-04 8.6368650869177166e-04
238 -8.3619587855352472e-04 1.9784471775193693e-04 -5.0751895012220497e-04
239 6.3590617340668863e-04 -7.4648926322722119e-04 -1.5134046286473092e-04
240 6.7813410751173752e-04 -6.7431337465112214e-04 -2.6906625898596027e-04
241 -5.7708096430684498e-04 -4.4116591624021530e-04 6.9252604387744872e-04
242 5.7098539000444192e-04 -7.6582547548857075e-04 -2.7315276226776630e-04
243 6.0628845611896429e-04 -6.8294824140537362e-04 -3.9672424634500011e-04
244 7.0795178629001114e-04 -5.8784200354255632e-04 -3.7935470484078316e-04
245 6.2727078449730726e-04 -5.8717919086971658e-04 -5.0837697128814350e-04
246 -1.8956629783217562e-04 -2.4951828250686220e-04 -9.6681143991784080e-04
247 8.0688984788664282e-04 -5.6741373110391277e-04 1.0534436497144186e-04
248 2.3104742373954756e-04 4.4337728747469315e-04 8.7938582545514987e-04
249 -3.9095302285512668e-04 -1.5692517654034141e-04 9.2195167860472001e-04
250 3.5900888356688862e-04 4.3412980657456013e-04 8.3787152623513730e-04
251 -2.1912183330760802e-04 -3.6202143556337467e-04 -9.2123431204463942e-04
252 -9.3001342453909156e-05 -3.3743369920874694e-04 -9.5340927812416097e-04
253 3.7341080131776813e-04 9.0622072350550172e-04 1.4795286225901137e-04
254 -6.2004469849281073e-04 7.3927531960058413e-04 -2.2882855399517697e-04
255 -7.1052390378334559e-04 6.7646643911074085e-04 -1.3833101467654942e-04
256 -7.9335283364556598e-04 5.6837008104775586e-04 -1.7298932679588733e-04
257 -7.8045369869558594e-04 6.0802611431086937e-04 -4.4249970536772757e-05
258 -2.5941269498910402e-05 4.3329102631677730e-04 9.1568795383745161e-04
259 -3.0159009266286687e-04 -2.3471305384031730e-04 9.3994028972251475e-04
260 -2.7426537004759791e-04 2.0700089936516200e-04 9.5572401870207073e-04
261 -3.5447487124738974e-04 3.0725383686545991e-04 8.9716299335497625e-04
262 -2.6273113206635155e-04 -1.0776727838204410e-04 9.7622809871077349e-04
263 -1.7133542400618186e-04 -1.8318143383751898e-04 9.8606605579644457e-04
264 -8.5624505318853479e-04 4.9153764689811744e-04 -8.0595103339408248e-05
265 -8.3140075985008036e-04 5.3580337207113557e-04 5.1620938090207934e-05
266 -3.4043888039438281e-04 -7.4779353361782935e-04 5.6988632407323648e-04
267 -3.6927229632916783e-04 -8.1609781059153823e-04 4.3615718494790438e-04
268 5.1253688401793065e-04 -6.8185854410516937e-04 -5.1919131690762385e-04
269 5.2161584482602631e-04 -5.7800040240540214e-04 -6.3068013083868721e-04
270 6.3263981413115079e-04 -4.8004084955522678e-04 -6.0985701084656887e-04
271 5.1569974519357828e-04 -4.6307535573929617e-04 -7.2841509571688467e-04
272 4.0287263062776624e-04 -5.5525010046084252e-04 -7.3541822372143477e-04
273 -2.9986205056772733e-04 4.1714808373192384e-04 8.7073035014902632e-04
274 -4.2832283705600098e-04 4.1338596186935814e-04 8.1392241616097733e-04
275 3.9514137086044885e-04 -4.3041413365564775e-04 -8.2302235261544311e-04
276 2.8412607006559866e-04 -5.2184995981146838e-04 -8.1549092534619451e-04
277 -3.3215848231499235e-04 -3.7069020677136860e-04 8.8044544080188457e-04
278 -1.3076954392681779e-04 9.7391617602802345e-04 1.2679449589768341e-04
279 8.0760926302977237e-04 -5.6103846086015378e-04 -1.2846677570742089e-04
280 -2.3592846680823930e-04 4.7249310945853489e-04 -8.6138344144592752e-04
281 -1.5026160604275879e-04 5.7214935270350192e-04 -8.1661385603006204e-04
282 8.6135956689900671e-04 4.9117512269287490e-04 2.3083107867609826e-05
283 1.1833342844742648e-04 -4.6556615433707762e-04 8.9148534100256009e-04
284 -9.8173300452634484e-04 5.1098145268514033e-05 1.2359947204200917e-04
285 -9.0224989047281716e-04 -4.0435831576443414e-04 -6.8122783927692952e-05
286 -8.4280578538246259e-04 -5.2109004982172843e-04 -2.1438090257962393e-05
287 -8.2900809581242419e-04 -5.3153714625058565e-04 1.1480517737918791e-04
288 -7.6360901989423638e-04 -6.3151307452617646e-04 2.5013739842561024e-05
289 -7.4181085593532725e-04 -6.3944653535943452e-04 1.5650387605282195e-04
290 -6.7231513410299004e-04 -7.2531743588686280e-04 6.8005382053598255e-05
291 -1.9621248018569581e-04 -9.5913687963804152e-04 -1.6144115963624540e-04
292 -2.6945212403350059e-04 -8.8479988747306804e-04 3.6707299457463741e-04
293 -3.3671389886593127e-04 -5.5175380025871876e-04 -7.7237691767246847e-04
294 -9.8433910083339145e-05 -4.7022582944595610e-04 -8.9190878903610009e-04
295 -4.8949074173224743e-04 2.9977589247179282e-04 8.2998303053831955e-04
296 -5.5681786857742453e-04 3.9909220692464466e-04 7.3538826349339227e-04
297 -8.6408943826532319e-04 4.4174810518453431e-04 -2.0353662131522690e-04
298 -6.1562578426647963e-04 2.7097666660644011e-04 7.4753707903114127e-04
299 -6.7386273746084956e-04 3.7127927141575984e-04 6.4117486642416071e-04
300 -6.0869889252753849e-04 4.9611310519093134e-04 6.2055010873096150e-04
301 -7.1643504439316955e-04 4.6106191716650428e-04 5.1924025671821084e-04
302 -7.7482084580346845e-04 3.3539984877486404e-04 5.3211111818500946e-04
303 -3.0467339460408789e-04 -6.6093315959694530e-04 6.9148268806551417e-04
304 -6.3590826479921448e-04 5.9170255888644553e-04 4.8960658325674560e-04
305 -8.0526925523332965e-04 4.1569149757348636e-04 4.1085917259267698e-04
306 2.0851073507664457e-04 -5.5053433112923296e-04 8.1995435137564008e-04
307 2.4507522889696056e-04 -4.2349101244945305e-04 8.8640562283364224e-04
308 3.4687615307630638e-04 -4.9895345661163219e-04 8.0530033325826604e-04
309 -4.5717806430968082e-04 -7.3344039762009616e-04 4.9769860091222458e-04
310 -8.5620851584640478e-04 2.8228881952414191e-04 4.2136124425763087e-04
311 -3.9988578172124416e-04 -8.5957100232174593e-04 2.9810035541441191e-04
312 -7.5852780415076252e-04 6.3179579155970775e-04 7.9724077907291456e-05
313 -8.4311062603124149e-04 -4.9864004097027184e-04 -1.5432401575055083e-04
314 -7.9454147785922296e-05 1.1257781250423151e-04 1.0097858042007720e-03
315 -8.8015304927039359e-04 3.5232399885945216e-04 2.9582039097046398e-04
316 -9.6926980285071249e-04 1.8498932448102258e-04 8.7261913672214930e-05
317 -1.0726452860912926e-04 7.6791654644982050e-04 -6.3289870236085536e-04
318 2.7105886480353219e-04 -3.8892267375477933e-04 -8.9479823757942763e-04
319 -6.8614273195192284e-04 -7.1261545899238131e-04 -6.4495685568937515e-05
320 -5.9990475249077602e-04 -7.8876407250445834e-04 -6.2925929339689796e-06
321 -6.6363065659871422e-04 -4.0837353080179484e-04 -6.2889719448144322e-04
322 -6.1518629001906214e-05 -2.1631322455180907e-04 -9.9269859587519096e-04
323 5.0664553586203802e-04 -8.4952169315562231e-04 7.3835336622091326e-05
324 -6.1426149378660401e-04 7.7067436931695175e-04 -9.8336661327841707e-05
325 2.8548754666274303e-04 5.4171452173971339e-04 8.0038471235524978e-04
326 2.7999223168494880e-04 -6.4086042409750791e-04 -7.2187004962765387e-04
327 1.5680815367313848e-04 -6.0192111178767173e-04 -7.9330072143629095e-04
328 4.2359540635447527e-04 5.3503663383977994e-04 7.3815205411432864e-04
329 4.8558529168939445e-04 4.1652565950251862e-04 7.7767374646508158e-04
330 4.5010912690975719e-04 4.4420982929765809e-04 -7.8309713020299483e-04
331 5.9248804397202750e-06 9.7762204685047536e-04 1.6297940843200097e-04
332 -1.7135432613397601e-05 9.8951182494349328e-04 3.8405426857015157e-05
333 -1.4874035993631918e-04 9.7900498114514983e-04 4.0487204841535045e-06
334 1.1800790915290995e-04 9.8032585476758288e-04 7.9382558110496762e-05
335 3.6548586085522063e-04 -3.5930983125124621e-04 8.7239393358654537e-04
336 4.6292612631067915e-04 -4.2872416113054972e-04 7.8573060542987767e-04
337 -8.1443569906416578e-04 2.1024451281441295e-04 5.3693048387856485e-04
338 -3.5721847388364334e-04 5.1939612163848334e-04 7.8519259005650614e-04
339 -1.0814208130000322e-04 4.6002362932815707e-04 -8.9474012042251657e-04
340 3.6228798403640540e-04 -2.9756200922112898e-04 -8.9769130699706161e-04
341 1.9749015728633629e-05 -2.7658310195578773e-04 -9.7867996667632047e-04
342 -9.2341246846601747e-04 3.4727617054938379e-04 -9.9001798660295880e-05
343 1.7788316564946867e-05 -3.7645933241658416e-04 9.4280617781404823e-04
344 -5.2296357577891444e-04 6.1320985000108653e-04 5.9185967390291917e-04
345 -5.3300744203107098e-04 7.0806946646137286e-04 4.5666332109185325e-04
346 -6.5165820465331421e-04 6.6114361322654669e-04 3.5511808634769681e-04
347 6.0980279371626806e-04 -3.6495046023913023e-04 -7.1023259367214127e-04
348 7.2319213364726404e-04 -3.7264221934782074e-04 -5.8226014893894508e-04
349 5.4301705438020446e-04 5.1870154047229376e-04 6.6409241263378589e-04
350 6.0547789041889095e-04 3.9892974673637913e-04 6.9387484185017023e-04
351 6.5591242917693664e-04 4.8988889876395742e-04 5.7349429194495402e-04
352 7.1427451480429185e-04 3.5419363578740595e-04 6.0484702790580261e-04
353 7.5264606221337946e-04 4.4761776405887220e-04 4.7696737899962651e-04
354 -6.4022994832513963e-04 -7.3115958495632545e-04 2.0001084684739652e-04
355 2.5849006020359336e-04 5.5384199747945864e-04 -8.0071811603032777e-04
356 1.3711914387536708e-04 5.6392293627268093e-04 -8.2486246752253977e-04
357 -6.7690685291023063e-04 3.2279437479636609e-04 -6.6402780609176623e-04
358 5.2376104989580762e-04 -8.2857598498553358e-04 -1.5350651411370785e-04
359 4.5132307333967694e-04 -8.4217437007559311e-04 -2.7190387026401010e-04
360 -8.2016460533491920e-04 4.8531567619916453e-04 2.7741708215498606e-04
361 -1.2589765487622031e-04 -5.3020801043854651e-04 8.5086947340924938e-04
362 -1.8546847609838982e-04 3.5233981456369396e-04 -9.3246338409412686e-04
363 -2.3104743741359882e-04 5.1788456772373752e-04 8.3453833607911128e-04
364 -5.1650756721995528e-04 8.2657153883959936e-04 -1.7958302849473956e-04
365 1.6292593433036068e-04 5.4771526673147908e-04 8.3181911446349849e-04
366 -3.6677421502487865e-04 -3.0369028221977686e-05 9.4573922558632232e-04
367 -7.0107983255812895e-04 -6.4004123951337977e-04 2.9250020881044816e-04
368 2.1313090896431044e-04 6.6859403629712167e-04 7.1946039192466872e-04
369 8.3042032511229449e-05 6.3746322019842178e-04 7.7336656012793616e-04
370 6.9871873398410350e-04 -2.5534233477943430e-04 -6.7323377023277564e-04
371 -5.4003643056467834e-04 1.6438288207157285e-04 8.3687518436054544e-04
372 -6.6043644188262568e-04 1.3562434058882119e-04 7.4663327889734296e-04
373 5.4913496097549867e-04 8.2288556186091519e-04 -5.3137139682301468e-05
374 -1.4934011620483783e-04 -7.4407658921620657e-05 1.0049160001380367e-03
375 -4.4342443642177733e-05 -1.6526336392759977e-04 1.0040926176447555e-03
376 -3.0047222374835533e-04 -9.1795668951100704e-04 2.3047352611713469e-04
377 -4.2886402562534320e-04 -8.8072463987139723e-04 1.6132241759376687e-04
378 -9.2282322687557814e-04 1.9470153047214994e-04 3.1360305508764931e-04
379 4.2496627632820726e-04 6.5979733562338330e-04 -6.2192981035003047e-04
380 1.5665380188023540e-04 -7.1392712532395276e-04 -6.8788406882781231e-04
381 2.7867009602695273e-04 -7.4271438042850706e-04 -6.1044025587067227e-04
382 -8.9526786507848882e-04 -3.7698202370987666e-04 -2.0028610533412636e-04
383 -8.2962446739024635e-04 -4.6691607027177641e-04 -2.8181270004540331e-04
384 -7.6558184654816576e-04 -5.8254402046069135e-04 -2.4451117969985178e-04
385 -1.6536231182748360e-04 -9.3669404497124696e-04 2.8788834357219688e-04
386 -6.6019242150920383e-04 5.2628078203861655e-04 -5.3152040597202635e-04
387 -7.5882295066402963e-04 4.7261021454805894e-04 -4.3737161767833636e-04
388 8.7501866085222036e-04 2.4820022936584616e-04 -4.0428880287880678e-04
389 -9.0586201961536457e-04 3.2607777019165224e-04 -2.3809436173581681e-04
390 -5.0872133603542188e-04 8.4850452378690809e-04 -4.2889319865764012e-05
391 -4.0239870917776945e-04 8.9746555849831288e-04 -1.1794495867276325e-04
392 -6.0336356644729097e-04 7.8430813617380189e-04 3.1599465299081756e-05
393 -5.8987170368540124e-04 -7.8716513176556465e-04 -1.2518775889670337e-04
394 -4.9916549600925373e-04 -8.5376080495536025e-04 -6.4200506472341688e-05
395 9.0327144074126697e-05 9.8498141846271501e-04 -4.9364931748070080e-05
396 2.2507426476004304e-04 9.6444565234098188e-04 -1.0416286310701970e-05
397 5.2746222268459692e-04 3.2587030994936898e-04 -7.9428230579538944e-04
398 2.5033474599321095e-04 -2.9314412434112860e-04 9.3896403894454185e-04
399 3.7317689951928969e-04 -2.2478315452560912e-04 9.1590771423819667e-04
400 -2.8588785980201672e-04 6.0765248127240580e-04 7.4784677651340613e-04
401 -1.6617400222130929e-04 6.1831146478582785e-04 7.7541725611771962e-04
402 3.1308591582972575e-04 -6.1554728642141006e-04 7.3100448793389115e-04
403 6.5819622426168051e-04 2.7006620198176032e-04 7.0873805121689074e-04
404 6.6472046475323453e-04 5.9512180752667291e-04 4.4502597080258940e-04
405 -3.1222390178360459e-04 -9.3621097496093841e-04 9.7314277973001927e-05
406 2.3317066851817790e-04 -2.5972109604885851e-04 -9.5347974132264717e-04
407 3.3946846278480760e-04 -1.8878652112141455e-04 -9.3703403361255794e-04
408 9.4861794265457087e-05 4.6075880642217938e-04 -8.9572437971487280e-04
409 -8.8185215965768662e-04 4.2613835176376423e-04 1.5825942127903369e-04
410 -4.5158178398602622e-04 8.1053342682771900e-04 3.5600630218402549e-04
411 5.5671368664149705e-04 4.2266203161828544e-04 -7.1991559385397371e-04
412 4.6471133060073454e-04 6.5343657695437520e-04 5.9930461448015940e-04
413 8.1123462454236171e-04 2.9429261905153316e-04 5.0120746590612590e-04
414 8.3509472428784843e-04 3.9173972538723373e-04 3.7193720426837205e-04
415 4.9042943492107232e-05 -1.3454446978047716e-04 -1.0086418113434803e-03
416 -9.6767928691571118e-04 2.0802021315258668e-04 -4.2816429243062743e-05
417 -6.0171103739445240e-05 3.3868019391304405e-04 -9.5479418355989192e-04
418 -1.2125183733404126e-04 2.2446851787521848e-04 -9.8441305709188022e-04
419 5.3796951810104336e-05 1.7077091722119390e-04 -1.0013422758141887e-03
420 -7.6158267389468597e-05 -7.9387309476300913e-05 -1.0129080329250451e-03
421 -9.3861173017240290e-04 3.1336565290374937e-04 4.7814279442695708e-05
422 8.0155356158728632e-04 -2.5308431007692019e-04 -5.4012953964178122e-04
423 8.1011946136049504e-04 -3.7099254161615286e-04 -4.4685480619324975e-04
424 2.5400415191658115e-04 9.5063186206801394e-04 1.1701112836260696e-04
425 3.3517874106636117e-05 -6.8218350418979316e-04 -7.3923916693657940e-04
426 2.3483658618109376e-05 -5.4450888214327962e-04 -8.5127316443700594e-04
427 -8.2826680847186582e-05 -5.8897870283028647e-04 -8.1433498404491543e-04
428 4.1090562132879482e-04 -8.8828900822425342e-04 -1.6173247699908898e-04
429 3.2549740731518858e-04 -8.9910573129676607e-04 -2.6869624500349630e-04
430 3.6417945671019452e-04 -8.4300783597790496e-04 -3.8380671316167966e-04
431 -6.0620627163044435e-04 -7.1741500880527975e-04 3.2432669853881360e-04
432 -6.4461555859141495e-04 -6.2134491562568629e-04 4.3737389218381583e-04
433 1.3706060294203657e-04 -3.4984630177116829e-04 -9.4291485563374473e-04
434 -7.1563450873336329e-06 5.6126253216413544e-04 -8.3967952381113148e-04
435 7.3225583742133872e-05 6.6753882841485252e-04 -7.4837769641523965e-04
436 8.8116219912782556e-04 2.5226074848241621e-04 3.8724242005347420e-04
437 8.9787974370674839e-04 3.3134075249252072e-04 2.6371425505795600e-04
438 8.5295707721056173e-04 4.4534202746411458e-04 2.4197763022084826e-04
439 7.6073054173739544e-04 2.1089000289900198e-04 6.1614091968782865e-04
440 -5.8024277055357897e-04 7.4973188729615919e-04 2.9566769025141294e-04
441 -6.9581977980703532e-04 6.7465423942191904e-04 2.1271836841380544e-04
442 6.8370678116611938e-04 -1.1645593185919480e-04 7.2815822560231365e-04
443 7.2304627251173201e-04 -2.4007006715357377e-04 6.5206075590095412e-04
444 8.1770804304247366e-04 -2.4081610722223091e-04 5.2038927283980653e-04
445 7.4852598932809633e-04 -3.6189919418372796e-04 5.5487807685653185e-04
446 8.2370071499568063e-04 -3.6226237477240150e-04 4.2791810176409303e-04
447 7.4559213801649504e-04 -4.6997140541205583e-04 4.6652770286424901e-04
448 6.6720833116189020e-04 -4.6933649250680551e-04 5.7874572040408022e-04
449 8.0829161484714536e-04 -4.7475324561235219e-04 3.3228958019139779e-04
450 8.7830431537481697e-04 -3.5842061599575481e-04 2.9663993463163474e-04
451 6.4531444852425921e-04 -5.8863222663125441e-04 4.8349843552122608e-04
452 6.7254176444741425e-04 1.3379639752397751e-04 7.3639723251982486e-04
453 -5.6681986282028991e-04 -8.0438816115053732e-04 1.2213621966810688e-04
454 2.5424121344801092e-05 -4.1855897958584655e-04 -9.2353681155729606e-04
455 9.0384810261872207e-04 3.8540529465748685e-04 1.3202806344981223e-04
456 4.5086280981876593e-04 -2.1710454329978702e-04 -8.7929399145605588e-04
457 4.9952517688411696e-04 5.3634355128766341e-04 -6.8431531046435812e-04
458 6.1047350696977730e-04 -2.4226347545744121e-04 7.6385567108565506e-04
459 1.4690721302077834e-04 9.5873286817177493e-04 2.0644553233049141e-04
460 6.1748729015764314e-04 7.0294855662344081e-04 3.3484581400753955e-04
461 3.8643669548382893e-04 5.5727548052224188e-04 -7.4151072640055334e-04
462 -4.1915570899992170e-04 7.0661733229086777e-04 5.6803522732565043e-04
463 7.7927676830730165e-04 -1.3339311687813135e-04 -6.1442462948854346e-04
464 8.7430017106322256e-04 -2.4866758349653255e-04 -4.0665294526664482e-04
465 8.7230770318117389e-04 -3.6368033868195316e-04 -3.0806139271056002e-04
466 1.0571874844269177e-05 8.2906457165021384e-04 -5.5648602792705316e-04
467 9.2434308973795990e-04 -2.4369677364098209e-04 -2.6959091052819299e-04
468 9.1302007456688409e-04 -3.5063134001430237e-04 -1.6961014350472440e-04
469 1.4346130118069060e-04 3.4749260495051066e-04 -9.4208698633504800e-04
470 8.4772305639049296e-04 -4.7329822039691581e-04 2.0770313250101198e-04
471 9.1250101284408151e-04 -3.4696847265110198e-04 1.7774938115994318e-04
472 1.9748658029981647e-04 7.7369912142243437e-04 6.0239892852728303e-04
473 1.4082574267373322e-04 -2.1810890147734379e-04 -9.8342710165351074e-04
474 2.2758422440266265e-04 -8.9586330144171978e-04 -3.6819003024434236e-04
475 5.6737393463026102e-04 7.6733175467809443e-04 -2.7284287257290963e-04
476 3.1464387453592017e-04 7.1726112800313963e-04 6.2295054977462561e-04
477 2.8806619497567180e-04 7.2906878326234814e-04 -6.2234516891349133e-04
478 -1.9060142725320115e-04 -5.6178180565664656e-04 -8.1504774093061325e-04
479 -1.8201594654832800e-04 -6.7525353026481460e-04 -7.2142673178862650e-04
480 -3.9455833707088080e-04 8.2735379934894952e-04 -3.8503548218635480e-04
481 1.8999277588997436e-04 6.5932141793237408e-04 -7.3394568721817837e-04
482 7.5537115043673329e-04 -6.0155723648135984e-04 2.3609270164470436e-04
483 8.8274756979268680e-04 -4.4305756144786038e-04 8.8379402937575926e-05
484 9.3444275044536650e-04 -3.2430262276376178e-04 6.5136291914833703e-05
485 5.7427954869104510e-04 -2.4348911658468638e-04 -7.9174089194830957e-04
486 3.9437568992104920e-04 1.4730041719613682e-04 -9.2176108414143720e-04
487 9.8041059286188797e-04 1.2792532311404366e-04 -7.1862887646737591e-05
488 9.4742225549903053e-04 2.6966868207787355e-04 -1.1894766032229080e-04
489 9.6260648831780814e-04 2.3268749163950700e-04 1.1244481601233244e-05
490 8.9543163190206596e-04 4.1657896602665078e-04 -8.5609513409866866e-05
491 3.4438878413012601e-04 9.2870226972652258e-04 1.5393227671993136e-05
492 3.1172739653007216e-04 9.3258198945357965e-04 -1.2725497774163710e-04
493 4.3384862280702603e-04 8.8729381632461234e-04 -7.6327827464788952e-05
494 9.0806596019415888e-04 -3.9639194398382720e-04 -3.0076090026566762e-05
495 9.4878199714311699e-04 -2.8032304049307717e-04 -6.1634810398619359e-05
496 -3.9105116184859654e-04 9.0955735610246064e-04 2.1232181670909117e-05
497 9.8047773765445228e-04 1.2728730296955956e-04 7.1472888523147089e-05
498 6.7801229920247939e-04 6.7745082152192754e-04 -2.5760916517684248e-04
499 9.8132548084708276e-04 -1.2849401943244507e-04 -6.6926099585291120e-05
500 9.6411808769447009e-04 -1.0955358668886573e-04 2.0829071312246150e-04
501 9.2446165381814297e-04 -1.2086330072871893e-04 -3.4614425402136297e-04
502 8.6440252537760070e-04 1.2611079376989093e-04 -4.8122351028508120e-04
503 8.7022616130634023e-04 -1.1663727792218372e-04 4.7337589837234673e-04
504 4.3611873693354277e-04 1.0680281312640373e-04 9.0831868547813755e-04
505 4.1954955227492958e-04 3.2158114980734902e-04 8.6152768284908355e-04
506 6.5382943079506442e-04 -3.5267722736321910e-04 6.7428984126481867e-04
507 3.2395745116333243e-04 -1.2377259098064199e-04 9.5474072581881123e-04
508 7.8452832507407060e-05 -1.2304710781450281e-04 1.0089092055268190e-03
509 1.5249449570031631e-04 -2.2563948950207277e-04 9.8008221731611797e-04
510 2.5611972527727012e-04 -1.9747737450306367e-04 9.6267618930053150e-04
511 -1.9815266961182898e-04 6.8160567475785176e-04 -7.0979669592191000e-04
512 2.7592221338012689e-04 9.2015290623504559e-04 2.4839188826142534e-04
513 5.7894412155174086e-04 -8.0439874990524500e-04 -3.5571998109907247e-05
514 2.6592113908073257e-04 -9.5464949010750895e-04 3.4954941788106199e-05
515 2.9931995583207130e-04 -9.3275496140498280e-04 1.5869525200602077e-04
516 -5.4684846444983510e-04 5.6710189773332830e-04 -6.1648929358548146e-04
517 7.6794824288352846e-04 -5.7831906328000655e-04 -2.4914833763536263e-04
518 -1.4590640587069508e-04 -9.7973994515243644e-04 -4.2150646438723678e-05
519 -2.8716197037835099e-04 -9.4843842817509511e-04 -4.5602348290909766e-05
520 -3.2916613502872208e-04 -9.1838595410830611e-04 -1.8115619912025346e-04
521 -7.8750731448590651e-04 5.2199457287574697e-04 -3.0489231811057290e-04
522 -9.7907203401296160e-04 9.0726514222877168e-05 -1.2263976580736223e-04
523 7.7926662029428764e-04 6.0112677393272921e-04 1.1673999495896870e-04
524 -7.9669617550495156e-04 -5.3857057665124654e-04 2.4589473588369006e-04
525 7.7547563576164686e-04 5.1043596659273408e-04 3.5529534995046953e-04
526 4.9033153596934507e-04 -7.7179332305050367e-04 -3.9380034434170769e-04
527 -9.4420155802727118e-04 -2.7907503315793771e-04 -1.1398721258754222e-04
528 -9.3908696841638669e-04 -7.1261852277253336e-05 3.1595560263136319e-04
529 -9.1347682249246940e-04 5.3019079418006929e-05 3.9011055904899833e-04
530 -8.4017089435521326e-04 5.3772298010687314e-05 5.3753507344937680e-04
531 -7.6901657128004570e-04 -6.1597507372368433e-04 -1.1121764207241687e-04
532 -9.7214184530069873e-04 -7.1340205920365386e-05 1.8172229543546417e-04
533 -7.3520036253468650e-04 5.4298513566957698e-04 3.9206216907825968e-04
534 -6.9781216558997123e-04 7.0211260601393669e-04 -1.6745785117905066e-05
535 -2.4221553228558282e-04 -9.1921863021138435e-04 -2.8928734917988937e-04
536 6.2421133143740471e-04 7.5506581993165271e-04 -1.5097783375737803e-04
537 -1.3583702324561873e-04 -8.9241226960385311e-04 4.2169649117161699e-04
538 -3.8126335118763008e-05 9.8630688973253174e-04 -8.1409314405039891e-05
539 -1.7901161387900920e-04 9.4348072232201146e-04 -2.4726663361491526e-04
540 6.2359650751204066e-05 9.7124866731714173e-04 -1.9151405760197386e-04
541 -9.3210066080241436e-04 2.8291021901361273e-04 1.8480965443446961e-04
542 -8.7213493361864897e-04 -4.2622652881994945e-04 2.0462001367268002e-04
543 -7.9902665603459892e-04 -8.0660607156181699e-05 5.9597270681926355e-04
544 -7.4914082247600259e-04 2.4458800590265850e-05 6.6511160164109070e-04
545 -6.5634906659011772e-04 -5.2763053058084582e-04 -5.3677661489812990e-04
546 -7.4756255086655865e-04 -4.2420999136256126e-04 -5.0606642674668367e-04
547 -7.5548237389199714e-04 -2.9993694486850640e-04 -5.8190117228985546e-04
548 -6.6039372754379138e-04 -2.7768776678063631e-04 -7.0329751952264612e-04
549 2.6311832724738637e-04 -8.1343839852273747e-04 5.1604028184187422e-04
550 5.8154379607000225e-04 6.0382663517048209e-04 5.4130841891658719e-04
551 8.6801676483325098e-04 3.6159219865890491e-04 -3.2056607200550404e-04
552 8.8568725111242916e-04 -2.3966503395677353e-04 3.8623986956190780e-04
553 1.5915732533529854e-04 -7.7337091964071471e-04 6.1624311373934654e-04
554 -4.4108018357214479e-04 -6.4739776233299997e-04 6.2479717978847140e-04
555 -3.8263042549434024e-04 -5.5956806040115194e-04 7.4240180016967602e-04
556 -8.3031253671005405e-04 -4.3048898340318986e-04 3.3596978432935400e-04
557 -5.9974384949801189e-04 -7.1878069181675484e-04 -3.3355928050381287e-04
558 -7.1998528153498925e-04 2.4886614934223626e-04 6.5042393238756214e-04
559 -6.7927098934383032e-04 -4.4485812530175830e-04 5.8321646535363281e-04
560 -5.8677107532441710e-04 -5.6261321305956370e-04 5.8337904406796160e-04
561 6.3004742465961249e-04 4.8112283769878497e-04 -6.1162563411994099e-04
562 -3.2389679078367195e-04 -6.8097078284240628e-04 -6.6132091118671231e-04
563 -4.8442499086499217e-04 5.1431788725187389e-04 7.1349995945905889e-04
564 7.2793150048654492e-04 -4.8366095148029246e-04 -4.8110509278281432e-04
565 -7.9540225375494174e-05 -2.8154395694376022e-04 9.7380317722966484e-04
566 -1.0593933730656434e-04 -4.0987294711104474e-04 9.2127263218702321e-04
567 -2.0674326295946815e-04 -3.2197961416335734e-04 9.3978041419189820e-04
568 -1.6678925054983487e-04 -6.5035919782459610e-04 7.4939590952627605e-04
569 3.9963840407874221e-04 -6.6741189113287737e-04 -6.3138682690435483e-04
570 -7.0692733627613876e-04 -1.0343251354872296e-04 7.0468025572983646e-04
571 5.4017090913716494e-04 3.1283096414090562e-04 7.9076629715448227e-04
572 4.8873387919089975e-04 -3.3852563058400841e-04 -8.1520871663536844e-04
573 1.2921357086240315e-04 -3.4460839757337227e-04 9.4640826598289449e-04
574 -7.4105449277668100e-04 1.9625340884805848e-04 -6.4405807827733847e-04
575 1.5345039717973541e-04 -4.7533439875490789e-04 -8.8013657833644460e-04
576 -4.4679824676171559e-04 -4.2596567966206073e-04 7.9730112244523000e-04
577 -3.2445531121388216e-04 3.6853361910250493e-04 -8.8432571553084794e-04
578 -2.5673723731668761e-04 2.4032652424038818e-04 -9.5222926493239261e-04
579 -3.2153054962421354e-04 1.5760499269315556e-04 -9.4943098096526672e-04
580 -4.9033646853076254e-04 1.0702836958812891e-05 -8.8458624911939713e-04
581 4.5356824064959807e-04 -5.5961627806159575e-04 7.0134593301449208e-04
582 4.7806432844728857e-04 -2.9454756626229490e-04 8.3954843533861820e-04
583 -4.4320950702141787e-04 1.3797428697100557e-04 -8.9937659859940639e-04
584 -4.1187113576591090e-04 1.9366382525722161e-04 9.0472434032728586e-04
585 -4.5201989443380378e-04 6.1952408753785233e-05 9.0403483205320624e-04
586 -3.3676143298227756e-04 -4.2412047413810020e-04 -8.5277492499083321e-04
587 2.7840569918974255e-05 9.4744326249689734e-04 2.9530085046549238e-04
588 -3.9758914405022493e-04 -7.6797931283496408e-05 -9.2958869559896587e-04
589 -2.6135240000194196e-04 -5.0523280887821727e-05 -9.8149771114654965e-04
590 -1.6189414991444858e-04 -1.3058004925440339e-04 -9.9659618410809399e-04
591 -1.6158988765929358e-04 4.2442267087778424e-04 9.0522438819075790e-04
592 -5.1400365377146943e-04 7.8958952364126885e-04 -3.1321693345658823e-04
593 -2.3760927720376974e-04 4.7716962041710369e-06 9.8918838703322795e-04
594 3.6208662889349844e-04 2.1540879075342525e-04 9.2223508512750876e-04
595 -7.9770232081916178e-04 5.6365627763535280e-04 1.6907621348445070e-04
596 4.2402288221324850e-04 -8.7963134732508934e-04 1.7807247938003115e-04
597 1.0102174654307183e-04 4.3773930257650035e-04 9.0798784004728615e-04
598 3.2518379575080422e-04 8.9730291743725041e-04 -2.7184679492567407e-04
599 1.8568772150121213e-04 -6.7112270110205924e-04 7.2525933402538582e-04
600 -5.2237233618632564e-04 -8.0726865812708580e-04 2.4737750337829587e-04
601 -8.4263227854458362e-04 4.0157392269400270e-04 -3.3954864707207947e-04
602 -8.1087724733296400e-04 3.4694845343500246e-04 -4.6218702133656904e-04
603 -7.4168729969751137e-04 -5.3466393303052741e-04 -3.9417724379035347e-04
604 -9.0537747251873862e-04 1.5289509367781800e-04 -3.8098034666321729e-04
605 -4.0369862817454729e-04 -9.0483410605395683e-04 2.7700284075675363e-05
606 -3.1138636289219392e-04 8.5124903645749067e-04 4.0978533114544512e-04
607 3.5716452819918716e-05 1.3927143249973180e-04 1.0081619269739436e-03
608 -5.7379615653262861e-05 7.7033637538531381e-04 6.3708060370028393e-04
609 -7.4939571173178389e-04 -1.7178883847388597e-04 -6.4200270928635884e-04
610 9.4774797827797347e-04 2.5894974363856313e-04 1.3870448975184164e-04
611 4.2076743063744764e-04 -8.7946686463568824e-05 -9.1794145477485571e-04
612 9.2319773102869001e-04 1.1916521714555036e-04 3.4991774703679022e-04
613 -3.7831552624681636e-04 -8.6662036636113535e-04 -3.0594550210395955e-04
614 4.6128769951931079e-05 -7.9515264835725930e-04 -6.0638994175143870e-04
615 4.6563334401403744e-04 -8.7451132761399519e-04 -4.1373327370547864e-05
616 -6.7868192929092220e-04 -6.9690024295222743e-04 -1.9814054795201086e-04
617 -9.2874326400268668e-04 -2.4684194857309348e-04 -2.4724386644431394e-04
618 -6.2024755251575785e-04 4.4602189882715897e-04 -6.4720211048852592e-04
619 1.8227331610821246e-04 -9.4926227662599152e-04 -2.2917328488333041e-04
620 -3.5848143349086778e-05 -9.3625500758991469e-04 3.3368826362475978e-04
621 3.9147861655892014e-04 -7.6286153142165493e-04 -5.1117007803300684e-04
622 -2.1900436650136270e-04 -4.4016200641795825e-04 8.8410182037259775e-04
623 7.9726119401273693e-04 -4.8154662883286085e-04 -3.4922457272540630e-04
624 9.2316128558771887e-04 1.2900903046359557e-04 -3.4625311120055861e-04
625 -4.0746785754169093e-04 6.1122422779739016e-04 6.8230813176851132e-04
626 -2.5157895710296039e-04 -5.5640962649222334e-04 8.0183260513758277e-04
627 -8.9456565487878615e-05 5.3412706925769942e-04 8.5260154953343257e-04
628 4.6567059451996224e-04 8.7328919851776762e-04 4.4980508117079282e-05
629 -9.5726744943221240e-04 4.8554917629816320e-05 2.5677804069464409e-04
630 -5.9292466520593124e-04 7.7759751314304150e-04 1.6040610996906414e-04
631 -8.3217978492145677e-04 -1.9473121787286389e-04 -5.1466386096893336e-04
632 -4.0794706631065963e-04 8.6798303553784211e-04 -2.5315502218211961e-04
633 9.2390589010568082e-04 2.4224435180224030e-04 -2.7128819429128272e-04
634 -3.2264555529183295e-04 1.0123143335689171e-04 9.5761410263829193e-04
635 3.9092780774354773e-04 -9.0954536118332760e-04 5.8804701856815973e-05
636 -6.8195633924093022e-05 -9.6942355374031496e-04 2.0215018534442081e-04
637 -4.8560316027492005e-04 -6.5472733043951074e-05 8.8496948378484594e-04
638 4.4477748475310581e-04 2.6317632087906757e-04 -8.6741640147858928e-04
639 4.4196479992793068e-04 -1.0483862614567764e-04 9.0561708596346015e-04
640 -6.5322246785608492e-05 6.6506228320280670e-04 -7.5115501844287016e-04
641 -9.5328828940175055e-04 2.1864075924549439e-04 -1.5969274581708356e-04
642 -8.7682894689979389e-04 2.7923592873962602e-04 -3.7552617207610764e-04
643 2.8215494867001424e-04 -7.2372909778877696e-04 6.3287124129589680e-04
644 5.6719011627848225e-04 -4.5460687273766683e-04 6.9236762282558293e-04
645 6.1317433699199255e-04 2.2581546475132440e-04 -7.6512256779926618e-04
646 -2.0594884778403914e-04 1.2446920366762824e-04 9.8840184266432945e-04
647 2.4967870234823052e-05 5.4748512609050816e-04 8.4823529837575881e-04
648 -7.4646639492065379e-04 5.9082616298135608e-04 2.7775989776855701e-04
649 -2.5972069875735196e-04 9.5225872140454340e-04 8.2260666210625595e-05
650 9.2919392594184027e-04 -2.3403222732692395e-04 2.6148289661001394e-04
651 -4.6786314926557961e-04 -8.5519453499182882e-04 -1.8778550492242542e-04
652 -8.7268494205570784e-04 -3.4232481955504142e-04 -3.2854564223516497e-04
653 -1.8692313251935719e-04 1.1820726072283224e-04 -9.9313763410814192e-04
654 8.4724597663326769e-04 -4.6750315146864912e-04 -2.2125674136248090e-04
655 -7.1768591773614123e-04 4.1176183108899940e-04 -5.5840186681826911e-04
656 6.5885017033915185e-04 -1.3285400896233964e-04 -7.4866388482743907e-04
657 -7.4840389318360620e-04 -5.4214730235913956e-04 3.6689432114597379e-04
658 -3.7385837159638547e-04 3.7130155043137968e-05 -9.4218480670278269e-04
659 -1.3941465875492271e-04 8.0478298929197413e-06 -1.0094946987402543e-03
660 -4.3656017729891303e-05 2.7864131144154018e-05 -1.0170790891272405e-03
661 8.4572014692741316e-04 -5.1699887811348488e-04 -1.1186756230526612e-05
662 5.3497163013389970e-05 -2.3472089287451459e-04 9.8909761172758718e-04
663 5.1596728534668811e-04 8.2955597470416292e-04 -1.6713726089175707e-04
664 -2.8023078692348196e-04 9.4832203674644457e-04 -5.2956692473611397e-05
665 -2.9343642528535343e-04 9.2851063235840220e-04 -1.8424378219628586e-04
666 -6.5195674353814843e-05 1.2254298190021698e-04 -1.0093719613357677e-03
667 2.6285510489236453e-04 -8.3003512839646871e-04 -4.8673726569702249e-04
668 -5.6960431399158309e-04 3.3992062080481051e-05 8.3211319331778560e-04
669 -8.2574758947620108e-04 -3.1297976663786947e-04 -4.6074807179285202e-04
670 -5.0107938143656146e-04 8.4942707110539873e-04 9.1736773240835880e-05
671 -9.5951549975157766e-04 1.5529231046472946e-04 1.9123387205630587e-04
672 5.5673907187769867e-04 -3.5900853074194650e-04 7.5653557662086468e-04
673 -8.5806797750756213e-06 2.3680819509405758e-04 -9.8897028815298480e-04
674 -1.9456192579457701e-04 -9.5850389339972159e-04 1.6629737510948352e-04
675 4.1199023782486835e-04 7.4468798600799840e-04 5.1928886215885876e-04
676 7.8868321634545052e-05 7.3561218423940592e-04 6.7686571066217713e-04
677 4.7040626663220078e-04 2.1954613557899154e-04 8.6747417185635827e-04
678 -4.8513492556917823e-04 -7.8646039821853335e-04 3.6755360779047806e-04
679 3.1406013564219367e-04 -7.7022933240179900e-05 -9.6311262502944413e-04
680 3.9708190677098277e-04 -6.6697165451668904e-04 6.3228647177253372e-04
681 -8.7759082085840103e-04 1.5545254182706072e-04 4.4200182219238717e-04
682 -8.9220016005248884e-04 4.2803732026268137e-04 1.5801136333370527e-05
683 -7.1047656059494992e-05 2.0268760716661223e-05 1.0156497945685444e-03
684 3.5021754750116766e-04 -9.2601561723241695e-04 -5.2690586141878319e-05
685 4.0952313205989645e-04 8.8286011282719427e-04 -1.8456110749408384e-04
686 1.6771188991861999e-04 -7.9650804336982826e-04 -5.7940907290568542e-04
687 1.8202036918125032e-04 9.6471587321806979e-04 -1.2806841415444829e-04
688 -8.0969194317574733e-04 -4.2028115510610894e-04 -3.9439096092763439e-04
689 -5.4462952976763604e-04 -6.5058977605287423e-04 5.2392809776508845e-04
690 5.7914998038227443e-04 -6.8653273072085991e-04 4.2973243323620499e-04
691 9.5498731299097040e-04 -2.2579334253842068e-04 1.4299177296141761e-04
692 -6.8551800916491002e-04 -5.3255722576633208e-04 4.8902236066763907e-04
693 9.2799485278126186e-04 2.2113463707816358e-04 2.7263196305194116e-04
694 -1.7535414592511755e-04 9.6752330669627317e-04 -1.1822740107173151e-04
695 9.0685108927784995e-04 3.4783457078318389e-04 -1.9737242210846490e-04
696 -4.2474249267726482e-05 6.6192859489274964e-04 7.5718785667487588e-04
697 -3.3242715986688611e-04 -4.7602347141258031e-04 8.2390577535952072e-04
698 9.2784577339558234e-04 3.4857934543677783e-04 1.6039260232181947e-05
699 -4.8993183120912506e-04 -5.3497904603148027e-04 6.9233533816141953e-04
700 -6.6207523889875454e-04 -1.0551104054345980e-06 7.5561788454774526e-04
701 5.7022772052287354e-04 -5.5801568014017522e-04 6.0332700761579815e-04
702 -6.8734115074608245e-04 -6.4061640476564558e-04 -3.2080996634482840e-04
703 -7.6243952256938605e-04 2.9933508578312151e-04 -5.6982325887956786e-04
704 5.1548862626481803e-05 3.4603008033117454e-04 -9.5259254279931422e-04
705 3.1353957156631662e-04 6.4026271260393794e-04 -7.0505102471490996e-04
706 -3.1678538372746136e-04 6.9650634019201264e-04 6.4450442761595800e-04
707 1.1449525059391832e-04 -9.2692689080048167e-04 -3.3891014432755289e-04
708 -6.7942189326347094e-04 7.1331190427818293e-04 9.4343402604302369e-05
709 1.0456793389033809e-05 7.4747676911989728e-04 -6.6598398166445945e-04
710 -4.0210411768867318e-04 7.8172152369702539e-04 4.6674693687002690e-04
711 -9.2641460640010913e-04 2.2325064504005040e-04 -2.7312307402070917e-04
712 7.7549878557268742e-04 1.0720878149227707e-04 6.2353396342504613e-04
713 -2.2163487615260938e-04 -7.5255194533526239e-04 -6.2067632107957668e-04
714 6.3542996496913950e-04 3.4508218415419621e-04 -6.9585879190529572e-04
715 -2.1082460630712229e-04 -9.6638174166688079e-04 5.6459283995551037e-05
716 -2.3929700409291242e-04 4.0609857752408425e-05 -9.8720023851658271e-04
717 -3.9971088037745275e-04 -9.0203927560114487e-04 -8.9753847270436176e-05
718 4.9789268672281045e-04 -2.0396646962846148e-04 8.5482302659625785e-04
719 7.2785188782344091e-04 -5.6485346338903269e-04 3.7441586062244555e-04
720 8.4125328073565101e-04 5.0020809147709362e-04 1.5230636437291024e-04
721 2.4074374945957531e-04 -1.6179022033861604e-04 -9.7334023067429884e-04
722 -5.7196765472499009e-04 -7.7645706456139132e-04 -2.3138813897112710e-04
723 4.5787777306191066e-05 7.3461004988560421e-05 -1.0147956479511324e-03
724 -1.8365146556619547e-04 7.1819814744209680e-04 6.7604177459727440e-04
725 8.6953676654510058e-04 -4.6218089720540261e-04 -1.1006988497605386e-04
726 5.7462810342217554e-04 2.1554390750424759e-04 7.9856074149730109e-04
727 7.8553541666178707e-04 5.5822765147685316e-04 2.3399661989663824e-04
728 5.4162787606877583e-04 5.9864739733056168e-04 -5.8815276919888806e-04
729 4.4730629715868575e-04 1.0424954777311250e-04 -9.0153047159780139e-04
730 7.1755719603423882e-04 6.0870519705031798e-04 3.1550421871138172e-04
731 -2.6449886986577262e-04 -6.1309702229908050e-04 -7.4973686396952416e-04
732 3.4355605972609290e-04 6.3362727549909847e-04 6.9694243858177667e-04
733 -7.3419318422407416e-05 9.7039185533511353e-04 -1.8305773768680786e-04
734 -2.3980711906495579e-04 -4.7496426696452663e-04 -8.5815716954635885e-04
735 9.5311283833463933e-04 -2.2381465628507183e-04 -1.5432772936324875e-04
736 9.6485887310866758e-04 -2.2087314412646934e-04 3.4675872948181733e-05
737 -2.6780675444989854e-05 -8.4510974423286392e-05 1.0146003828311661e-03
738 -5.0298716218765489e-04 -8.5192474595215584e-04 4.6304798520624131e-05
739 5.0381799780262052e-04 1.9684301752543595e-04 -8.5238952798952889e-04
740 -7.6303410102672897e-04 1.3550602577973176e-04 6.3229410374667991e-04
741 -1.4633205706537100e-04 3.3871186918520370e-05 1.0065959751764065e-03
742 -5.4635628679138059e-04 -7.1089978960413064e-04 4.3086437899690291e-04
743 -1.6409306011478849e-06 4.3187765700136266e-04 -9.1534670278610214e-04
744 2.9663805729051137e-04 -9.3252941384327668e-04 -1.5802985180001359e-04
745 -8.0429160875511086e-05 -6.8071959638872496e-04 -7.3262851842122818e-04
$EndNodes
$Elements
1486
1 2 2 0 0 410 440 345
2 2 2 0 0 421 541 409
3 2 2 0 0 409 682 421
4 2 2 0 0 545 603 546
5 2 2 0 0 426 427 294
6 2 2 0 0 294 454 426
7 2 2 0 0 265 682 409
8 2 2 0 0 24 41 4
9 2 2 0 0 3 24 4
10 2 2 0 0 238 642 602
11 2 2 0 0 520 651 613
12 2 2 0 0 653 666 659
13 2 2 0 0 404 460 98
14 2 2 0 0 222 482 219
15 2 2 0 0 40 463 9
16 2 2 0 0 608 724 696
17 2 2 0 0 435 709 69
18 2 2 0 0 413 439 29
19 2 2 0 0 345 710 410
20 2 2 0 0 422 463 40
21 2 2 0 0 98 550 404
22 2 2 0 0 95 724 608
23 2 2 0 0 4 41 5
24 2 2 0 0 232 701 581
25 2 2 0 0 490 698 488
26 2 2 0 0 29 436 413
27 2 2 0 0 416 421 342
28 2 2 0 0 312 595 441
29 2 2 0 0 41 486 5
30 2 2 0 0 405 605 519
31 2 2 0 0 409 595 265
32 2 2 0 0 69 481 435
33 2 2 0 0 434 743 339
34 2 2 0 0 342 641 416
35 2 2 0 0 485 656 370
36 2 2 0 0 89 587 90
37 2 2 0 0 108 466 317
38 2 2 0 0 378 629 529
39 2 2 0 0 581 680 232
40 2 2 0 0 281 434 339
41 2 2 0 0 638 739 486
42 2 2 0 0 659 666 660
43 2 2 0 0 345 440 346
44 2 2 0 0 22 44 25
45 2 2 0 0 9 463 8
46 2 2 0 0 44 81 25
47 2 2 0 0 459 587 89
48 2 2 0 0 127 670 630
49 2 2 0 0 508 662 509
50 2 2 0 0 375 662 508
51 2 2 0 0 492 598 103
52 2 2 0 0 604 642 238
53 2 2 0 0 507 510 399
54 2 2 0 0 488 698 489
55 2 2 0 0 34 473 415
56 2 2 0 0 399 639 507
57 2 2 0 0 603 688 546
58 2 2 0 0 316 541 421
59 2 2 0 0 647 696 627
60 2 2 0 0 403 439 352
61 2 2 0 0 221 603 545
62 2 2 0 0 595 648 441
63 2 2 0 0 412 550 98
64 2 2 0 0 411 714 397
65 2 2 0 0 486 739 729
66 2 2 0 0 696 724 401
67 2 2 0 0 247 482 222
68 2 2 0 0 397 714 645
69 2 2 0 0 613 651 212
70 2 2 0 0 207 745 425
71 2 2 0 0 98 675 412
72 2 2 0 0 219 482 230
73 2 2 0 0 560 692 432
74 2 2 0 0 432 689 560
75 2 2 0 0 454 575 426
76 2 2 0 0 352 439 413
77 2 2 0 0 415 420 2
78 2 2 0 0 40 464 422
79 2 2 0 0 89 512 459
80 2 2 0 0 425 614 207
81 2 2 0 0 377 600 453
82 2 2 0 0 89 90 88
83 2 2 0 0 80 466 108
84 2 2 0 0 520 717 651
85 2 2 0 0 602 703 238
86 2 2 0 0 103 687 492
87 2 2 0 0 253 491 424
88 2 2 0 0 69 709 466
89 2 2 0 0 424 512 253
90 2 2 0 0 369 696 647
91 2 2 0 0 581 701 644
92 2 2 0 0 630 670 392
93 2 2 0 0 32 656 485
94 2 2 0 0 459 512 424
95 2 2 0 0 90 91 88
96 2 2 0 0 427 478 294
97 2 2 0 0 488 695 490
98 2 2 0 0 554 699 560
99 2 2 0 0 67 80 79
100 2 2 0 0 252 454 294
101 2 2 0 0 253 628 491
102 2 2 0 0 529 681 378
103 2 2 0 0 519 715 405
104 2 2 0 0 440 441 346
105 2 2 0 0 605 717 519
106 2 2 0 0 403 452 439
107 2 2 0 0 507 639 21
108 2 2 0 0 565 567 566
109 2 2 0 0 433 454 341
110 2 2 0 0 67 466 80
111 2 2 0 0 555 697 576
112 2 2 0 0 491 628 493
113 2 2 0 0 389 641 342
114 2 2 0 0 429 619 474
115 2 2 0 0 40 501 464
116 2 2 0 0 576 699 555
117 2 2 0 0 311 600 377
118 2 2 0 0 567 622 566
119 2 2 0 0 433 575 454
120 2 2 0 0 378 671 629
121 2 2 0 0 79 540 103
122 2 2 0 0 341 473 433
123 2 2 0 0 673 704 68
124 2 2 0 0 462 710 345
125 2 2 0 0 557 722 616
126 2 2 0 0 573 662 343
127 2 2 0 0 370 656 463
128 2 2 0 0 341 454 252
129 2 2 0 0 616 702 557
130 2 2 0 0 6 26 7
131 2 2 0 0 464 501 467
132 2 2 0 0 433 473 406
133 2 2 0 0 8 45 37
134 2 2 0 0 466 709 317
135 2 2 0 0 457 461 379
136 2 2 0 0 84 512 86
137 2 2 0 0 19 452 33
138 2 2 0 0 380 614 425
139 2 2 0 0 83 540 79
140 2 2 0 0 398 510 509
141 2 2 0 0 609 631 137
142 2 2 0 0 18 442 36
143 2 2 0 0 26 45 7
144 2 2 0 0 565 566 343
145 2 2 0 0 80 83 79
146 2 2 0 0 560 689 554
147 2 2 0 0 134 137 136
148 2 2 0 0 68 469 42
149 2 2 0 0 659 716 653
150 2 2 0 0 619 707 474
151 2 2 0 0 497 610 39
152 2 2 0 0 137 138 136
153 2 2 0 0 283 573 343
154 2 2 0 0 506 644 448
155 2 2 0 0 499 735 31
156 2 2 0 0 81 97 25
157 2 2 0 0 45 46 37
158 2 2 0 0 585 668 637
159 2 2 0 0 495 735 499
160 2 2 0 0 399 510 398
161 2 2 0 0 509 573 398
162 2 2 0 0 442 443 36
163 2 2 0 0 1 607 314
164 2 2 0 0 29 612 436
165 2 2 0 0 547 631 609
166 2 2 0 0 360 595 409
167 2 2 0 0 421 682 342
168 2 2 0 0 426 575 327
169 2 2 0 0 123 577 235
170 2 2 0 0 339 743 417
171 2 2 0 0 7 45 8
172 2 2 0 0 3 723 24
173 2 2 0 0 418 666 653
174 2 2 0 0 59 60 58
175 2 2 0 0 620 636 193
176 2 2 0 0 42 469 47
177 2 2 0 0 65 67 66
178 2 2 0 0 509 662 573
179 2 2 0 0 470 482 247
180 2 2 0 0 368 476 472
181 2 2 0 0 530 740 337
182 2 2 0 0 253 512 84
183 2 2 0 0 455 698 282
184 2 2 0 0 61 65 62
185 2 2 0 0 59 61 60
186 2 2 0 0 91 472 88
187 2 2 0 0 90 92 91
188 2 2 0 0 19 442 18
189 2 2 0 0 464 465 423
190 2 2 0 0 706 724 118
191 2 2 0 0 456 611 32
192 2 2 0 0 379 477 61
193 2 2 0 0 417 743 704
194 2 2 0 0 314 683 1
195 2 2 0 0 442 458 443
196 2 2 0 0 11 28 12
197 2 2 0 0 61 62 60
198 2 2 0 0 118 724 95
199 2 2 0 0 22 25 23
200 2 2 0 0 247 483 470
201 2 2 0 0 281 640 434
202 2 2 0 0 197 667 474
203 2 2 0 0 86 512 89
204 2 2 0 0 417 704 673
205 2 2 0 0 451 690 230
206 2 2 0 0 27 442 19
207 2 2 0 0 637 668 229
208 2 2 0 0 60 475 58
209 2 2 0 0 489 610 497
210 2 2 0 0 307 573 283
211 2 2 0 0 61 477 65
212 2 2 0 0 65 66 62
213 2 2 0 0 544 740 530
214 2 2 0 0 230 719 451
215 2 2 0 0 18 452 19
216 2 2 0 0 268 569 269
217 2 2 0 0 32 485 456
218 2 2 0 0 627 696 401
219 2 2 0 0 24 42 41
220 2 2 0 0 20 27 19
221 2 2 0 0 330 461 457
222 2 2 0 0 506 672 644
223 2 2 0 0 472 476 87
224 2 2 0 0 468 495 494
225 2 2 0 0 88 472 87
226 2 2 0 0 121 577 123
227 2 2 0 0 327 575 276
228 2 2 0 0 422 464 423
229 2 2 0 0 47 63 49
230 2 2 0 0 458 506 443
231 2 2 0 0 232 690 451
232 2 2 0 0 28 487 12
233 2 2 0 0 80 107 83
234 2 2 0 0 608 696 676
235 2 2 0 0 356 481 355
236 2 2 0 0 138 238 136
237 2 2 0 0 137 139 138
238 2 2 0 0 729 739 26
239 2 2 0 0 81 99 97
240 2 2 0 0 46 50 37
241 2 2 0 0 463 656 8
242 2 2 0 0 443 444 36
243 2 2 0 0 68 704 469
244 2 2 0 0 24 68 42
245 2 2 0 0 16 503 30
246 2 2 0 0 65 69 67
247 2 2 0 0 67 79 66
248 2 2 0 0 676 696 369
249 2 2 0 0 59 379 61
250 2 2 0 0 90 93 92
251 2 2 0 0 464 467 465
252 2 2 0 0 441 708 312
253 2 2 0 0 483 484 471
254 2 2 0 0 427 479 478
255 2 2 0 0 245 564 244
256 2 2 0 0 470 483 471
257 2 2 0 0 473 721 406
258 2 2 0 0 555 699 554
259 2 2 0 0 47 469 63
260 2 2 0 0 63 355 49
261 2 2 0 0 62 64 60
262 2 2 0 0 80 108 107
263 2 2 0 0 107 539 83
264 2 2 0 0 139 140 138
265 2 2 0 0 99 100 97
266 2 2 0 0 81 236 99
267 2 2 0 0 46 51 50
268 2 2 0 0 443 445 444
269 2 2 0 0 24 419 68
270 2 2 0 0 69 466 67
271 2 2 0 0 79 103 66
272 2 2 0 0 65 477 69
273 2 2 0 0 547 548 321
274 2 2 0 0 93 94 92
275 2 2 0 0 467 468 465
276 2 2 0 0 333 664 649
277 2 2 0 0 55 498 56
278 2 2 0 0 56 498 72
279 2 2 0 0 12 499 31
280 2 2 0 0 63 356 355
281 2 2 0 0 108 110 107
282 2 2 0 0 139 141 140
283 2 2 0 0 100 101 97
284 2 2 0 0 236 248 99
285 2 2 0 0 81 594 236
286 2 2 0 0 51 52 50
287 2 2 0 0 192 515 195
288 2 2 0 0 445 446 444
289 2 2 0 0 477 481 69
290 2 2 0 0 94 95 92
291 2 2 0 0 93 96 94
292 2 2 0 0 63 408 356
293 2 2 0 0 108 111 110
294 2 2 0 0 110 117 107
295 2 2 0 0 139 154 141
296 2 2 0 0 141 142 140
297 2 2 0 0 51 53 52
298 2 2 0 0 100 102 101
299 2 2 0 0 236 250 248
300 2 2 0 0 445 447 446
301 2 2 0 0 52 388 50
302 2 2 0 0 277 622 567
303 2 2 0 0 95 608 92
304 2 2 0 0 94 118 95
305 2 2 0 0 93 104 96
306 2 2 0 0 51 561 53
307 2 2 0 0 408 434 356
308 2 2 0 0 53 54 52
309 2 2 0 0 445 448 447
310 2 2 0 0 108 317 111
311 2 2 0 0 141 143 142
312 2 2 0 0 142 225 140
313 2 2 0 0 102 166 101
314 2 2 0 0 250 325 248
315 2 2 0 0 100 258 102
316 2 2 0 0 53 55 54
317 2 2 0 0 447 449 446
318 2 2 0 0 236 505 250
319 2 2 0 0 104 105 96
320 2 2 0 0 53 57 55
321 2 2 0 0 55 56 54
322 2 2 0 0 448 451 447
323 2 2 0 0 14 39 15
324 2 2 0 0 317 511 111
325 2 2 0 0 10 40 9
326 2 2 0 0 143 144 142
327 2 2 0 0 57 58 55
328 2 2 0 0 8 37 9
329 2 2 0 0 14 38 13
330 2 2 0 0 166 314 101
331 2 2 0 0 18 36 17
332 2 2 0 0 16 29 17
333 2 2 0 0 33 504 20
334 2 2 0 0 325 365 248
335 2 2 0 0 199 202 196
336 2 2 0 0 7 32 6
337 2 2 0 0 434 435 356
338 2 2 0 0 74 75 73
339 2 2 0 0 223 239 234
340 2 2 0 0 74 76 75
341 2 2 0 0 72 74 73
342 2 2 0 0 231 549 201
343 2 2 0 0 202 205 204
344 2 2 0 0 226 227 214
345 2 2 0 0 272 275 271
346 2 2 0 0 276 318 275
347 2 2 0 0 213 214 209
348 2 2 0 0 76 77 75
349 2 2 0 0 210 231 201
350 2 2 0 0 16 30 15
351 2 2 0 0 205 209 208
352 2 2 0 0 202 204 196
353 2 2 0 0 318 406 340
354 2 2 0 0 195 196 193
355 2 2 0 0 322 420 415
356 2 2 0 0 239 240 234
357 2 2 0 0 163 588 168
358 2 2 0 0 12 31 11
359 2 2 0 0 56 72 71
360 2 2 0 0 425 426 327
361 2 2 0 0 19 33 20
362 2 2 0 0 168 224 215
363 2 2 0 0 209 568 216
364 2 2 0 0 318 433 406
365 2 2 0 0 269 271 270
366 2 2 0 0 268 269 245
367 2 2 0 0 21 639 20
368 2 2 0 0 84 85 82
369 2 2 0 0 181 207 183
370 2 2 0 0 269 272 271
371 2 2 0 0 272 276 275
372 2 2 0 0 242 243 240
373 2 2 0 0 102 167 166
374 2 2 0 0 223 234 233
375 2 2 0 0 283 343 227
376 2 2 0 0 205 208 204
377 2 2 0 0 213 226 214
378 2 2 0 0 271 572 347
379 2 2 0 0 243 268 245
380 2 2 0 0 335 398 307
381 2 2 0 0 303 555 554
382 2 2 0 0 226 283 227
383 2 2 0 0 347 485 370
384 2 2 0 0 195 199 196
385 2 2 0 0 205 213 209
386 2 2 0 0 246 322 252
387 2 2 0 0 76 78 77
388 2 2 0 0 133 163 135
389 2 2 0 0 163 168 164
390 2 2 0 0 322 415 341
391 2 2 0 0 227 361 214
392 2 2 0 0 191 198 189
393 2 2 0 0 78 84 82
394 2 2 0 0 209 216 208
395 2 2 0 0 78 82 77
396 2 2 0 0 216 303 266
397 2 2 0 0 417 418 362
398 2 2 0 0 314 607 101
399 2 2 0 0 339 362 280
400 2 2 0 0 243 245 244
401 2 2 0 0 187 291 185
402 2 2 0 0 429 430 359
403 2 2 0 0 143 145 144
404 2 2 0 0 202 553 205
405 2 2 0 0 339 417 362
406 2 2 0 0 131 580 133
407 2 2 0 0 239 242 240
408 2 2 0 0 57 59 58
409 2 2 0 0 224 246 215
410 2 2 0 0 84 86 85
411 2 2 0 0 303 554 266
412 2 2 0 0 72 73 71
413 2 2 0 0 437 438 414
414 2 2 0 0 318 340 275
415 2 2 0 0 269 270 245
416 2 2 0 0 86 87 85
417 2 2 0 0 192 193 191
418 2 2 0 0 123 235 129
419 2 2 0 0 263 374 262
420 2 2 0 0 425 427 426
421 2 2 0 0 149 150 147
422 2 2 0 0 210 232 231
423 2 2 0 0 74 373 76
424 2 2 0 0 168 215 169
425 2 2 0 0 259 262 249
426 2 2 0 0 145 146 144
427 2 2 0 0 367 524 289
428 2 2 0 0 271 347 270
429 2 2 0 0 406 407 340
430 2 2 0 0 334 459 424
431 2 2 0 0 429 474 430
432 2 2 0 0 250 328 325
433 2 2 0 0 431 432 367
434 2 2 0 0 104 278 105
435 2 2 0 0 145 147 146
436 2 2 0 0 151 152 150
437 2 2 0 0 235 583 129
438 2 2 0 0 237 249 228
439 2 2 0 0 149 151 150
440 2 2 0 0 159 161 158
441 2 2 0 0 153 155 152
442 2 2 0 0 156 158 155
443 2 2 0 0 354 367 289
444 2 2 0 0 259 263 262
445 2 2 0 0 190 191 189
446 2 2 0 0 177 221 174
447 2 2 0 0 162 228 161
448 2 2 0 0 124 516 386
449 2 2 0 0 418 653 578
450 2 2 0 0 371 584 295
451 2 2 0 0 151 153 152
452 2 2 0 0 153 156 155
453 2 2 0 0 159 162 161
454 2 2 0 0 374 593 262
455 2 2 0 0 156 159 158
456 2 2 0 0 237 259 249
457 2 2 0 0 146 284 160
458 2 2 0 0 266 309 267
459 2 2 0 0 264 265 257
460 2 2 0 0 86 88 87
461 2 2 0 0 265 312 257
462 2 2 0 0 162 237 228
463 2 2 0 0 21 44 22
464 2 2 0 0 324 392 390
465 2 2 0 0 371 585 584
466 2 2 0 0 262 366 249
467 2 2 0 0 192 195 193
468 2 2 0 0 263 375 374
469 2 2 0 0 216 266 217
470 2 2 0 0 326 327 276
471 2 2 0 0 260 646 166
472 2 2 0 0 220 223 222
473 2 2 0 0 322 341 252
474 2 2 0 0 256 257 255
475 2 2 0 0 78 253 84
476 2 2 0 0 358 359 242
477 2 2 0 0 188 189 187
478 2 2 0 0 281 339 280
479 2 2 0 0 146 160 144
480 2 2 0 0 123 129 128
481 2 2 0 0 255 324 254
482 2 2 0 0 228 229 161
483 2 2 0 0 354 431 367
484 2 2 0 0 163 164 135
485 2 2 0 0 155 157 152
486 2 2 0 0 243 244 240
487 2 2 0 0 256 264 257
488 2 2 0 0 284 316 160
489 2 2 0 0 380 425 327
490 2 2 0 0 148 149 147
491 2 2 0 0 335 399 398
492 2 2 0 0 418 578 362
493 2 2 0 0 334 424 396
494 2 2 0 0 167 260 166
495 2 2 0 0 325 368 365
496 2 2 0 0 428 429 359
497 2 2 0 0 165 255 254
498 2 2 0 0 297 342 264
499 2 2 0 0 298 371 295
500 2 2 0 0 218 323 220
501 2 2 0 0 310 337 302
502 2 2 0 0 165 256 255
503 2 2 0 0 186 187 185
504 2 2 0 0 56 71 70
505 2 2 0 0 165 254 125
506 2 2 0 0 200 201 199
507 2 2 0 0 148 206 149
508 2 2 0 0 324 390 364
509 2 2 0 0 190 192 191
510 2 2 0 0 368 369 365
511 2 2 0 0 353 404 351
512 2 2 0 0 104 331 278
513 2 2 0 0 256 297 264
514 2 2 0 0 316 421 416
515 2 2 0 0 239 358 242
516 2 2 0 0 169 586 171
517 2 2 0 0 286 287 206
518 2 2 0 0 324 364 254
519 2 2 0 0 241 576 162
520 2 2 0 0 168 169 164
521 2 2 0 0 121 123 122
522 2 2 0 0 266 267 217
523 2 2 0 0 129 131 130
524 2 2 0 0 216 217 208
525 2 2 0 0 285 382 313
526 2 2 0 0 172 321 170
527 2 2 0 0 390 391 364
528 2 2 0 0 296 563 300
529 2 2 0 0 246 252 251
530 2 2 0 0 285 286 206
531 2 2 0 0 288 289 287
532 2 2 0 0 298 372 371
533 2 2 0 0 23 35 22
534 2 2 0 0 300 344 304
535 2 2 0 0 344 462 345
536 2 2 0 0 123 128 122
537 2 2 0 0 297 389 342
538 2 2 0 0 237 277 259
539 2 2 0 0 148 285 206
540 2 2 0 0 86 89 88
541 2 2 0 0 306 307 283
542 2 2 0 0 234 279 233
543 2 2 0 0 316 416 160
544 2 2 0 0 188 190 189
545 2 2 0 0 85 98 82
546 2 2 0 0 358 428 359
547 2 2 0 0 437 455 438
548 2 2 0 0 203 210 201
549 2 2 0 0 382 383 313
550 2 2 0 0 153 176 156
551 2 2 0 0 290 354 289
552 2 2 0 0 159 241 162
553 2 2 0 0 386 387 126
554 2 2 0 0 273 363 338
555 2 2 0 0 272 326 276
556 2 2 0 0 171 293 173
557 2 2 0 0 145 148 147
558 2 2 0 0 274 295 261
559 2 2 0 0 285 313 286
560 2 2 0 0 383 384 313
561 2 2 0 0 301 302 299
562 2 2 0 0 131 133 132
563 2 2 0 0 296 298 295
564 2 2 0 0 305 310 302
565 2 2 0 0 349 412 328
566 2 2 0 0 344 345 304
567 2 2 0 0 77 119 75
568 2 2 0 0 315 378 310
569 2 2 0 0 363 401 400
570 2 2 0 0 332 333 278
571 2 2 0 0 223 233 222
572 2 2 0 0 331 334 332
573 2 2 0 0 186 188 187
574 2 2 0 0 178 212 177
575 2 2 0 0 305 360 315
576 2 2 0 0 334 396 395
577 2 2 0 0 246 251 215
578 2 2 0 0 167 261 260
579 2 2 0 0 175 179 178
580 2 2 0 0 345 346 304
581 2 2 0 0 124 386 126
582 2 2 0 0 286 288 287
583 2 2 0 0 331 332 278
584 2 2 0 0 179 181 180
585 2 2 0 0 301 305 302
586 2 2 0 0 300 304 301
587 2 2 0 0 296 300 299
588 2 2 0 0 305 315 310
589 2 2 0 0 296 299 298
590 2 2 0 0 320 453 290
591 2 2 0 0 274 296 295
592 2 2 0 0 313 531 286
593 2 2 0 0 120 281 280
594 2 2 0 0 360 409 315
595 2 2 0 0 363 400 338
596 2 2 0 0 129 130 128
597 2 2 0 0 300 301 299
598 2 2 0 0 1 508 23
599 2 2 0 0 167 273 261
600 2 2 0 0 133 135 134
601 2 2 0 0 173 174 172
602 2 2 0 0 311 377 376
603 2 2 0 0 273 274 261
604 2 2 0 0 273 338 274
605 2 2 0 0 334 395 332
606 2 2 0 0 183 197 184
607 2 2 0 0 319 393 320
608 2 2 0 0 449 450 446
609 2 2 0 0 288 290 289
610 2 2 0 0 226 306 283
611 2 2 0 0 326 380 327
612 2 2 0 0 175 177 174
613 2 2 0 0 181 183 182
614 2 2 0 0 219 230 211
615 2 2 0 0 308 335 307
616 2 2 0 0 267 311 292
617 2 2 0 0 169 170 164
618 2 2 0 0 288 319 290
619 2 2 0 0 126 165 125
620 2 2 0 0 120 280 121
621 2 2 0 0 130 357 128
622 2 2 0 0 195 200 199
623 2 2 0 0 169 171 170
624 2 2 0 0 171 172 170
625 2 2 0 0 184 186 185
626 2 2 0 0 73 282 71
627 2 2 0 0 252 294 251
628 2 2 0 0 319 320 290
629 2 2 0 0 131 132 130
630 2 2 0 0 393 394 320
631 2 2 0 0 171 173 172
632 2 2 0 0 4 34 3
633 2 2 0 0 218 220 219
634 2 2 0 0 267 292 217
635 2 2 0 0 184 185 182
636 2 2 0 0 188 194 190
637 2 2 0 0 56 70 54
638 2 2 0 0 377 405 376
639 2 2 0 0 449 470 450
640 2 2 0 0 179 180 178
641 2 2 0 0 173 175 174
642 2 2 0 0 175 178 177
643 2 2 0 0 250 329 328
644 2 2 0 0 311 376 292
645 2 2 0 0 329 571 350
646 2 2 0 0 347 370 348
647 2 2 0 0 220 222 219
648 2 2 0 0 376 385 292
649 2 2 0 0 133 134 132
650 2 2 0 0 134 136 132
651 2 2 0 0 306 308 307
652 2 2 0 0 200 203 201
653 2 2 0 0 233 247 222
654 2 2 0 0 98 460 82
655 2 2 0 0 329 349 328
656 2 2 0 0 326 381 380
657 2 2 0 0 347 348 270
658 2 2 0 0 181 182 180
659 2 2 0 0 121 122 115
660 2 2 0 0 350 351 349
661 2 2 0 0 308 336 335
662 2 2 0 0 350 403 352
663 2 2 0 0 470 471 450
664 2 2 0 0 203 211 210
665 2 2 0 0 218 219 211
666 2 2 0 0 183 184 182
667 2 2 0 0 370 463 422
668 2 2 0 0 306 402 308
669 2 2 0 0 203 218 211
670 2 2 0 0 71 490 70
671 2 2 0 0 329 350 349
672 2 2 0 0 436 437 414
673 2 2 0 0 124 126 125
674 2 2 0 0 413 414 353
675 2 2 0 0 422 423 348
676 2 2 0 0 352 353 351
677 2 2 0 0 370 422 348
678 2 2 0 0 350 352 351
679 2 2 0 0 413 436 414
680 2 2 0 0 352 413 353
681 2 2 0 0 120 121 115
682 2 2 0 0 110 480 117
683 2 2 0 0 124 125 116
684 2 2 0 0 126 521 165
685 2 2 0 0 113 120 115
686 2 2 0 0 127 440 410
687 2 2 0 0 114 124 116
688 2 2 0 0 543 544 530
689 2 2 0 0 488 489 487
690 2 2 0 0 585 637 366
691 2 2 0 0 543 570 544
692 2 2 0 0 113 115 114
693 2 2 0 0 127 410 106
694 2 2 0 0 114 116 112
695 2 2 0 0 195 515 200
696 2 2 0 0 491 493 492
697 2 2 0 0 12 487 13
698 2 2 0 0 546 547 321
699 2 2 0 0 330 457 411
700 2 2 0 0 157 543 530
701 2 2 0 0 519 520 291
702 2 2 0 0 28 488 487
703 2 2 0 0 111 112 110
704 2 2 0 0 312 534 257
705 2 2 0 0 476 732 412
706 2 2 0 0 27 458 442
707 2 2 0 0 385 636 620
708 2 2 0 0 176 559 156
709 2 2 0 0 593 634 366
710 2 2 0 0 589 590 224
711 2 2 0 0 113 114 112
712 2 2 0 0 109 127 106
713 2 2 0 0 270 564 245
714 2 2 0 0 443 506 445
715 2 2 0 0 491 492 396
716 2 2 0 0 388 624 502
717 2 2 0 0 445 506 448
718 2 2 0 0 30 500 15
719 2 2 0 0 20 504 21
720 2 2 0 0 64 475 60
721 2 2 0 0 287 542 206
722 2 2 0 0 23 508 35
723 2 2 0 0 302 558 299
724 2 2 0 0 70 551 54
725 2 2 0 0 62 598 64
726 2 2 0 0 424 491 396
727 2 2 0 0 407 456 340
728 2 2 0 0 545 546 321
729 2 2 0 0 330 411 397
730 2 2 0 0 72 536 74
731 2 2 0 0 238 574 136
732 2 2 0 0 659 660 420
733 2 2 0 0 395 538 332
734 2 2 0 0 143 527 145
735 2 2 0 0 412 675 476
736 2 2 0 0 239 513 358
737 2 2 0 0 157 530 529
738 2 2 0 0 518 519 291
739 2 2 0 0 449 482 470
740 2 2 0 0 207 713 479
741 2 2 0 0 119 523 75
742 2 2 0 0 109 670 127
743 2 2 0 0 10 501 40
744 2 2 0 0 508 509 35
745 2 2 0 0 96 606 94
746 2 2 0 0 331 459 334
747 2 2 0 0 286 531 288
748 2 2 0 0 290 453 354
749 2 2 0 0 282 490 71
750 2 2 0 0 384 531 313
751 2 2 0 0 289 524 287
752 2 2 0 0 349 550 412
753 2 2 0 0 165 521 256
754 2 2 0 0 82 460 77
755 2 2 0 0 155 543 157
756 2 2 0 0 201 549 199
757 2 2 0 0 273 591 363
758 2 2 0 0 387 521 126
759 2 2 0 0 114 516 124
760 2 2 0 0 53 561 57
761 2 2 0 0 266 554 309
762 2 2 0 0 257 534 255
763 2 2 0 0 205 553 213
764 2 2 0 0 142 522 225
765 2 2 0 0 435 481 356
766 2 2 0 0 216 568 303
767 2 2 0 0 300 563 344
768 2 2 0 0 214 568 209
769 2 2 0 0 112 480 110
770 2 2 0 0 350 571 403
771 2 2 0 0 347 572 485
772 2 2 0 0 275 572 271
773 2 2 0 0 274 563 296
774 2 2 0 0 171 586 293
775 2 2 0 0 162 576 237
776 2 2 0 0 133 580 163
777 2 2 0 0 11 501 10
778 2 2 0 0 295 584 261
779 2 2 0 0 129 583 131
780 2 2 0 0 215 586 169
781 2 2 0 0 250 505 329
782 2 2 0 0 168 588 224
783 2 2 0 0 321 548 170
784 2 2 0 0 262 593 366
785 2 2 0 0 166 646 314
786 2 2 0 0 520 535 291
787 2 2 0 0 373 663 493
788 2 2 0 0 291 535 185
789 2 2 0 0 101 607 97
790 2 2 0 0 130 574 357
791 2 2 0 0 158 570 543
792 2 2 0 0 31 501 11
793 2 2 0 0 444 552 503
794 2 2 0 0 156 559 159
795 2 2 0 0 236 594 505
796 2 2 0 0 206 542 149
797 2 2 0 0 54 551 52
798 2 2 0 0 74 536 373
799 2 2 0 0 337 558 302
800 2 2 0 0 150 532 147
801 2 2 0 0 379 728 457
802 2 2 0 0 299 558 298
803 2 2 0 0 332 538 333
804 2 2 0 0 145 527 148
805 2 2 0 0 514 515 192
806 2 2 0 0 15 500 14
807 2 2 0 0 75 523 73
808 2 2 0 0 467 501 31
809 2 2 0 0 254 592 125
810 2 2 0 0 172 545 321
811 2 2 0 0 144 522 142
812 2 2 0 0 528 532 150
813 2 2 0 0 187 518 291
814 2 2 0 0 553 599 213
815 2 2 0 0 383 603 384
816 2 2 0 0 282 698 490
817 2 2 0 0 244 517 240
818 2 2 0 0 353 525 404
819 2 2 0 0 395 540 538
820 2 2 0 0 94 606 118
821 2 2 0 0 117 539 107
822 2 2 0 0 185 535 182
823 2 2 0 0 388 502 50
824 2 2 0 0 167 591 273
825 2 2 0 0 147 532 146
826 2 2 0 0 92 608 91
827 2 2 0 0 472 676 368
828 2 2 0 0 364 592 254
829 2 2 0 0 21 504 44
830 2 2 0 0 365 597 248
831 2 2 0 0 125 592 116
832 2 2 0 0 588 589 224
833 2 2 0 0 111 113 112
834 2 2 0 0 63 469 408
835 2 2 0 0 105 109 106
836 2 2 0 0 242 526 243
837 2 2 0 0 439 712 29
838 2 2 0 0 240 517 234
839 2 2 0 0 346 533 304
840 2 2 0 0 14 500 38
841 2 2 0 0 494 495 484
842 2 2 0 0 127 630 440
843 2 2 0 0 208 537 204
844 2 2 0 0 175 562 179
845 2 2 0 0 303 626 555
846 2 2 0 0 359 526 242
847 2 2 0 0 243 526 268
848 2 2 0 0 217 537 208
849 2 2 0 0 58 498 55
850 2 2 0 0 503 552 30
851 2 2 0 0 13 499 12
852 2 2 0 0 268 621 569
853 2 2 0 0 489 497 487
854 2 2 0 0 475 498 58
855 2 2 0 0 430 526 359
856 2 2 0 0 248 597 99
857 2 2 0 0 292 537 217
858 2 2 0 0 26 645 45
859 2 2 0 0 234 517 279
860 2 2 0 0 14 497 39
861 2 2 0 0 385 537 292
862 2 2 0 0 305 533 360
863 2 2 0 0 304 533 301
864 2 2 0 0 146 532 284
865 2 2 0 0 483 494 484
866 2 2 0 0 173 562 175
867 2 2 0 0 116 480 112
868 2 2 0 0 224 590 246
869 2 2 0 0 189 518 187
870 2 2 0 0 498 536 72
871 2 2 0 0 414 525 353
872 2 2 0 0 160 522 144
873 2 2 0 0 547 609 548
874 2 2 0 0 182 535 180
875 2 2 0 0 297 601 389
876 2 2 0 0 44 594 81
877 2 2 0 0 301 533 305
878 2 2 0 0 105 106 96
879 2 2 0 0 515 596 200
880 2 2 0 0 293 562 173
881 2 2 0 0 73 523 282
882 2 2 0 0 148 527 285
883 2 2 0 0 174 545 172
884 2 2 0 0 218 596 323
885 2 2 0 0 200 596 203
886 2 2 0 0 149 542 151
887 2 2 0 0 446 552 444
888 2 2 0 0 49 461 330
889 2 2 0 0 330 397 48
890 2 2 0 0 453 738 377
891 2 2 0 0 255 534 324
892 2 2 0 0 52 551 388
893 2 2 0 0 634 646 260
894 2 2 0 0 513 615 358
895 2 2 0 0 438 525 414
896 2 2 0 0 516 618 386
897 2 2 0 0 198 518 189
898 2 2 0 0 227 566 361
899 2 2 0 0 559 560 241
900 2 2 0 0 90 587 93
901 2 2 0 0 416 522 160
902 2 2 0 0 102 591 167
903 2 2 0 0 134 609 137
904 2 2 0 0 298 558 372
905 2 2 0 0 132 574 130
906 2 2 0 0 106 606 96
907 2 2 0 0 159 559 241
908 2 2 0 0 32 611 6
909 2 2 0 0 158 543 155
910 2 2 0 0 223 513 239
911 2 2 0 0 288 531 319
912 2 2 0 0 323 513 220
913 2 2 0 0 115 516 114
914 2 2 0 0 521 601 297
915 2 2 0 0 610 698 455
916 2 2 0 0 354 600 431
917 2 2 0 0 351 550 349
918 2 2 0 0 256 521 297
919 2 2 0 0 140 604 138
920 2 2 0 0 77 460 119
921 2 2 0 0 17 503 16
922 2 2 0 0 9 502 10
923 2 2 0 0 104 587 331
924 2 2 0 0 152 528 150
925 2 2 0 0 315 541 378
926 2 2 0 0 170 548 164
927 2 2 0 0 590 659 420
928 2 2 0 0 11 624 28
929 2 2 0 0 199 549 202
930 2 2 0 0 502 624 10
931 2 2 0 0 453 600 354
932 2 2 0 0 42 43 41
933 2 2 0 0 38 499 13
934 2 2 0 0 285 527 382
935 2 2 0 0 190 514 192
936 2 2 0 0 157 529 528
937 2 2 0 0 231 643 549
938 2 2 0 0 331 587 459
939 2 2 0 0 451 701 232
940 2 2 0 0 99 597 100
941 2 2 0 0 361 568 214
942 2 2 0 0 372 740 544
943 2 2 0 0 221 545 174
944 2 2 0 0 138 604 238
945 2 2 0 0 340 572 275
946 2 2 0 0 338 563 274
947 2 2 0 0 524 542 287
948 2 2 0 0 265 595 312
949 2 2 0 0 111 511 113
950 2 2 0 0 580 658 588
951 2 2 0 0 580 588 163
952 2 2 0 0 237 576 277
953 2 2 0 0 444 503 36
954 2 2 0 0 131 583 580
955 2 2 0 0 505 571 329
956 2 2 0 0 203 596 218
957 2 2 0 0 584 634 260
958 2 2 0 0 261 584 260
959 2 2 0 0 369 647 365
960 2 2 0 0 251 586 215
961 2 2 0 0 348 564 270
962 2 2 0 0 450 552 446
963 2 2 0 0 390 496 391
964 2 2 0 0 66 598 62
965 2 2 0 0 465 623 423
966 2 2 0 0 258 591 102
967 2 2 0 0 343 566 227
968 2 2 0 0 564 623 244
969 2 2 0 0 154 617 141
970 2 2 0 0 324 534 392
971 2 2 0 0 50 502 37
972 2 2 0 0 524 556 542
973 2 2 0 0 544 700 372
974 2 2 0 0 122 516 115
975 2 2 0 0 177 557 221
976 2 2 0 0 489 698 610
977 2 2 0 0 93 587 104
978 2 2 0 0 136 574 132
979 2 2 0 0 593 646 634
980 2 2 0 0 116 592 480
981 2 2 0 0 143 617 527
982 2 2 0 0 225 604 140
983 2 2 0 0 137 631 139
984 2 2 0 0 549 553 202
985 2 2 0 0 164 548 135
986 2 2 0 0 404 550 351
987 2 2 0 0 34 721 473
988 2 2 0 0 220 513 223
989 2 2 0 0 317 640 511
990 2 2 0 0 100 597 258
991 2 2 0 0 588 658 589
992 2 2 0 0 323 615 513
993 2 2 0 0 568 626 303
994 2 2 0 0 377 605 405
995 2 2 0 0 178 613 212
996 2 2 0 0 493 628 373
997 2 2 0 0 157 528 152
998 2 2 0 0 591 627 363
999 2 2 0 0 409 541 315
1000 2 2 0 0 183 614 197
1001 2 2 0 0 103 598 66
1002 2 2 0 0 188 619 194
1003 2 2 0 0 213 599 226
1004 2 2 0 0 306 599 402
1005 2 2 0 0 97 607 25
1006 2 2 0 0 194 514 190
1007 2 2 0 0 373 628 76
1008 2 2 0 0 78 628 253
1009 2 2 0 0 42 47 43
1010 2 2 0 0 39 612 15
1011 2 2 0 0 16 612 29
1012 2 2 0 0 437 610 455
1013 2 2 0 0 487 497 13
1014 2 2 0 0 440 630 441
1015 2 2 0 0 479 713 562
1016 2 2 0 0 196 620 193
1017 2 2 0 0 456 572 340
1018 2 2 0 0 120 511 281
1019 2 2 0 0 577 578 235
1020 2 2 0 0 335 582 399
1021 2 2 0 0 314 741 683
1022 2 2 0 0 520 613 535
1023 2 2 0 0 585 634 584
1024 2 2 0 0 423 564 348
1025 2 2 0 0 457 561 411
1026 2 2 0 0 6 611 5
1027 2 2 0 0 385 620 537
1028 2 2 0 0 228 637 229
1029 2 2 0 0 366 637 249
1030 2 2 0 0 161 570 158
1031 2 2 0 0 434 640 435
1032 2 2 0 0 193 636 191
1033 2 2 0 0 410 606 106
1034 2 2 0 0 37 502 9
1035 2 2 0 0 36 503 17
1036 2 2 0 0 141 617 143
1037 2 2 0 0 363 627 401
1038 2 2 0 0 322 590 420
1039 2 2 0 0 357 618 128
1040 2 2 0 0 430 621 526
1041 2 2 0 0 540 687 103
1042 2 2 0 0 280 577 121
1043 2 2 0 0 276 575 318
1044 2 2 0 0 362 578 577
1045 2 2 0 0 109 649 496
1046 2 2 0 0 246 590 322
1047 2 2 0 0 326 569 381
1048 2 2 0 0 569 621 381
1049 2 2 0 0 269 569 272
1050 2 2 0 0 139 631 154
1051 2 2 0 0 649 664 496
1052 2 2 0 0 537 620 204
1053 2 2 0 0 355 461 49
1054 2 2 0 0 663 685 493
1055 2 2 0 0 479 745 207
1056 2 2 0 0 343 662 565
1057 2 2 0 0 212 557 177
1058 2 2 0 0 45 645 46
1059 2 2 0 0 496 670 109
1060 2 2 0 0 366 634 585
1061 2 2 0 0 384 616 531
1062 2 2 0 0 535 613 180
1063 2 2 0 0 391 632 364
1064 2 2 0 0 308 581 336
1065 2 2 0 0 344 625 462
1066 2 2 0 0 563 625 344
1067 2 2 0 0 13 497 14
1068 2 2 0 0 480 632 117
1069 2 2 0 0 371 668 585
1070 2 2 0 0 333 649 278
1071 2 2 0 0 387 601 521
1072 2 2 0 0 47 49 48
1073 2 2 0 0 358 615 428
1074 2 2 0 0 113 511 120
1075 2 2 0 0 527 617 382
1076 2 2 0 0 105 649 109
1077 2 2 0 0 398 573 307
1078 2 2 0 0 368 676 369
1079 2 2 0 0 180 613 178
1080 2 2 0 0 153 556 176
1081 2 2 0 0 432 657 367
1082 2 2 0 0 458 718 582
1083 2 2 0 0 207 614 183
1084 2 2 0 0 407 611 456
1085 2 2 0 0 244 623 517
1086 2 2 0 0 20 639 27
1087 2 2 0 0 476 675 87
1088 2 2 0 0 319 616 393
1089 2 2 0 0 474 707 197
1090 2 2 0 0 226 599 306
1091 2 2 0 0 47 48 43
1092 2 2 0 0 186 619 188
1093 2 2 0 0 412 732 328
1094 2 2 0 0 316 671 541
1095 2 2 0 0 293 734 478
1096 2 2 0 0 492 685 598
1097 2 2 0 0 528 629 532
1098 2 2 0 0 514 635 515
1099 2 2 0 0 531 616 319
1100 2 2 0 0 8 656 7
1101 2 2 0 0 387 602 601
1102 2 2 0 0 76 628 78
1103 2 2 0 0 122 618 516
1104 2 2 0 0 651 717 394
1105 2 2 0 0 423 623 564
1106 2 2 0 0 546 669 547
1107 2 2 0 0 4 679 34
1108 2 2 0 0 542 556 151
1109 2 2 0 0 548 609 135
1110 2 2 0 0 204 620 196
1111 2 2 0 0 529 629 528
1112 2 2 0 0 482 719 230
1113 2 2 0 0 258 627 591
1114 2 2 0 0 336 582 335
1115 2 2 0 0 197 686 667
1116 2 2 0 0 583 658 580
1117 2 2 0 0 85 675 98
1118 2 2 0 0 59 728 379
1119 2 2 0 0 400 625 338
1120 2 2 0 0 394 717 605
1121 2 2 0 0 471 650 450
1122 2 2 0 0 596 635 323
1123 2 2 0 0 249 637 228
1124 2 2 0 0 515 635 596
1125 2 2 0 0 338 625 563
1126 2 2 0 0 28 633 488
1127 2 2 0 0 566 622 361
1128 2 2 0 0 229 570 161
1129 2 2 0 0 468 654 465
1130 2 2 0 0 118 710 462
1131 2 2 0 0 15 612 16
1132 2 2 0 0 589 659 590
1133 2 2 0 0 526 621 268
1134 2 2 0 0 365 647 597
1135 2 2 0 0 579 583 235
1136 2 2 0 0 22 507 21
1137 2 2 0 0 342 682 264
1138 2 2 0 0 441 648 346
1139 2 2 0 0 191 636 198
1140 2 2 0 0 578 653 579
1141 2 2 0 0 135 609 134
1142 2 2 0 0 128 618 122
1143 2 2 0 0 378 681 310
1144 2 2 0 0 230 690 211
1145 2 2 0 0 210 690 232
1146 2 2 0 0 549 643 553
1147 2 2 0 0 233 661 247
1148 2 2 0 0 10 624 11
1149 2 2 0 0 640 709 435
1150 2 2 0 0 449 719 482
1151 2 2 0 0 452 726 33
1152 2 2 0 0 362 577 280
1153 2 2 0 0 318 575 433
1154 2 2 0 0 492 687 396
1155 2 2 0 0 586 734 293
1156 2 2 0 0 357 655 618
1157 2 2 0 0 277 567 259
1158 2 2 0 0 522 641 225
1159 2 2 0 0 511 640 281
1160 2 2 0 0 247 661 483
1161 2 2 0 0 610 693 39
1162 2 2 0 0 272 569 326
1163 2 2 0 0 490 695 70
1164 2 2 0 0 553 643 599
1165 2 2 0 0 532 629 284
1166 2 2 0 0 29 712 17
1167 2 2 0 0 632 665 117
1168 2 2 0 0 618 655 386
1169 2 2 0 0 241 699 576
1170 2 2 0 0 457 728 561
1171 2 2 0 0 485 572 456
1172 2 2 0 0 430 667 621
1173 2 2 0 0 582 672 458
1174 2 2 0 0 395 687 540
1175 2 2 0 0 504 594 44
1176 2 2 0 0 181 713 207
1177 2 2 0 0 197 707 184
1178 2 2 0 0 524 657 556
1179 2 2 0 0 475 536 498
1180 2 2 0 0 394 738 320
1181 2 2 0 0 51 714 561
1182 2 2 0 0 151 556 153
1183 2 2 0 0 437 693 610
1184 2 2 0 0 361 626 568
1185 2 2 0 0 611 679 5
1186 2 2 0 0 231 680 643
1187 2 2 0 0 462 706 118
1188 2 2 0 0 390 670 496
1189 2 2 0 0 602 642 601
1190 2 2 0 0 49 330 48
1191 2 2 0 0 391 665 632
1192 2 2 0 0 508 737 375
1193 2 2 0 0 450 650 552
1194 2 2 0 0 368 732 476
1195 2 2 0 0 578 579 235
1196 2 2 0 0 402 581 308
1197 2 2 0 0 43 486 41
1198 2 2 0 0 562 713 179
1199 2 2 0 0 592 632 480
1200 2 2 0 0 416 641 522
1201 2 2 0 0 372 668 371
1202 2 2 0 0 452 712 439
1203 2 2 0 0 282 720 455
1204 2 2 0 0 556 657 176
1205 2 2 0 0 364 632 592
1206 2 2 0 0 403 726 452
1207 2 2 0 0 465 654 623
1208 2 2 0 0 278 649 105
1209 2 2 0 0 154 652 617
1210 2 2 0 0 383 688 603
1211 2 2 0 0 451 719 447
1212 2 2 0 0 317 709 640
1213 2 2 0 0 604 711 642
1214 2 2 0 0 382 652 383
1215 2 2 0 0 601 642 389
1216 2 2 0 0 284 671 316
1217 2 2 0 0 599 643 402
1218 2 2 0 0 388 633 624
1219 2 2 0 0 267 678 311
1220 2 2 0 0 337 681 530
1221 2 2 0 0 279 661 233
1222 2 2 0 0 605 738 394
1223 2 2 0 0 33 677 504
1224 2 2 0 0 386 655 387
1225 2 2 0 0 547 669 631
1226 2 2 0 0 562 731 479
1227 2 2 0 0 360 648 595
1228 2 2 0 0 432 692 657
1229 2 2 0 0 367 657 524
1230 2 2 0 0 633 695 488
1231 2 2 0 0 415 473 341
1232 2 2 0 0 644 672 336
1233 2 2 0 0 551 633 388
1234 2 2 0 0 533 648 360
1235 2 2 0 0 407 679 611
1236 2 2 0 0 323 635 615
1237 2 2 0 0 530 681 529
1238 2 2 0 0 393 651 394
1239 2 2 0 0 387 655 602
1240 2 2 0 0 238 703 574
1241 2 2 0 0 594 677 505
1242 2 2 0 0 559 692 560
1243 2 2 0 0 621 667 381
1244 2 2 0 0 405 674 376
1245 2 2 0 0 325 732 368
1246 2 2 0 0 623 654 517
1247 2 2 0 0 581 644 336
1248 2 2 0 0 346 648 533
1249 2 2 0 0 517 654 279
1250 2 2 0 0 477 705 481
1251 2 2 0 0 481 705 355
1252 2 2 0 0 561 728 57
1253 2 2 0 0 379 705 477
1254 2 2 0 0 617 652 382
1255 2 2 0 0 30 650 500
1256 2 2 0 0 376 674 385
1257 2 2 0 0 518 715 519
1258 2 2 0 0 474 667 430
1259 2 2 0 0 478 734 294
1260 2 2 0 0 624 633 28
1261 2 2 0 0 186 707 619
1262 2 2 0 0 64 663 475
1263 2 2 0 0 597 647 258
1264 2 2 0 0 377 738 605
1265 2 2 0 0 31 735 467
1266 2 2 0 0 27 718 458
1267 2 2 0 0 419 673 68
1268 2 2 0 0 616 722 393
1269 2 2 0 0 24 723 419
1270 2 2 0 0 397 638 48
1271 2 2 0 0 404 730 460
1272 2 2 0 0 91 676 472
1273 2 2 0 0 622 626 361
1274 2 2 0 0 7 656 32
1275 2 2 0 0 576 697 277
1276 2 2 0 0 471 691 650
1277 2 2 0 0 536 663 373
1278 2 2 0 0 484 691 471
1279 2 2 0 0 552 650 30
1280 2 2 0 0 311 678 600
1281 2 2 0 0 486 729 5
1282 2 2 0 0 418 673 666
1283 2 2 0 0 232 680 231
1284 2 2 0 0 5 679 4
1285 2 2 0 0 117 665 539
1286 2 2 0 0 384 702 616
1287 2 2 0 0 557 702 221
1288 2 2 0 0 87 675 85
1289 2 2 0 0 225 711 604
1290 2 2 0 0 505 677 571
1291 2 2 0 0 483 661 494
1292 2 2 0 0 263 565 375
1293 2 2 0 0 504 677 594
1294 2 2 0 0 582 718 399
1295 2 2 0 0 645 714 46
1296 2 2 0 0 534 708 392
1297 2 2 0 0 643 680 402
1298 2 2 0 0 18 712 452
1299 2 2 0 0 392 670 390
1300 2 2 0 0 221 702 603
1301 2 2 0 0 496 664 391
1302 2 2 0 0 606 710 118
1303 2 2 0 0 655 703 602
1304 2 2 0 0 608 676 91
1305 2 2 0 0 194 684 514
1306 2 2 0 0 541 671 378
1307 2 2 0 0 154 669 652
1308 2 2 0 0 399 718 639
1309 2 2 0 0 405 715 674
1310 2 2 0 0 33 726 677
1311 2 2 0 0 629 671 284
1312 2 2 0 0 468 735 495
1313 2 2 0 0 469 704 408
1314 2 2 0 0 427 745 479
1315 2 2 0 0 294 734 251
1316 2 2 0 0 461 705 379
1317 2 2 0 0 385 674 636
1318 2 2 0 0 657 692 176
1319 2 2 0 0 561 714 411
1320 2 2 0 0 631 669 154
1321 2 2 0 0 264 682 265
1322 2 2 0 0 43 638 486
1323 2 2 0 0 48 638 43
1324 2 2 0 0 194 744 684
1325 2 2 0 0 381 686 380
1326 2 2 0 0 658 716 589
1327 2 2 0 0 263 567 565
1328 2 2 0 0 310 681 337
1329 2 2 0 0 493 685 492
1330 2 2 0 0 64 685 663
1331 2 2 0 0 309 678 267
1332 2 2 0 0 600 678 431
1333 2 2 0 0 538 694 333
1334 2 2 0 0 598 685 64
1335 2 2 0 0 551 695 633
1336 2 2 0 0 560 699 241
1337 2 2 0 0 211 690 210
1338 2 2 0 0 2 723 3
1339 2 2 0 0 630 708 441
1340 2 2 0 0 467 735 468
1341 2 2 0 0 396 687 395
1342 2 2 0 0 35 507 22
1343 2 2 0 0 259 567 263
1344 2 2 0 0 417 673 418
1345 2 2 0 0 614 686 197
1346 2 2 0 0 392 708 630
1347 2 2 0 0 5 729 6
1348 2 2 0 0 279 725 661
1349 2 2 0 0 6 729 26
1350 2 2 0 0 357 703 655
1351 2 2 0 0 514 684 635
1352 2 2 0 0 540 733 538
1353 2 2 0 0 374 741 593
1354 2 2 0 0 176 692 559
1355 2 2 0 0 650 691 500
1356 2 2 0 0 484 736 691
1357 2 2 0 0 83 733 540
1358 2 2 0 0 558 740 372
1359 2 2 0 0 626 697 555
1360 2 2 0 0 436 693 437
1361 2 2 0 0 375 737 374
1362 2 2 0 0 475 663 536
1363 2 2 0 0 636 674 198
1364 2 2 0 0 674 715 198
1365 2 2 0 0 70 695 551
1366 2 2 0 0 406 721 407
1367 2 2 0 0 677 726 571
1368 2 2 0 0 258 647 627
1369 2 2 0 0 448 701 451
1370 2 2 0 0 458 672 506
1371 2 2 0 0 229 700 570
1372 2 2 0 0 684 744 428
1373 2 2 0 0 570 700 544
1374 2 2 0 0 678 742 431
1375 2 2 0 0 646 741 314
1376 2 2 0 0 603 702 384
1377 2 2 0 0 478 731 293
1378 2 2 0 0 309 742 678
1379 2 2 0 0 380 686 614
1380 2 2 0 0 494 725 468
1381 2 2 0 0 500 691 38
1382 2 2 0 0 635 684 615
1383 2 2 0 0 661 725 494
1384 2 2 0 0 679 721 34
1385 2 2 0 0 509 510 35
1386 2 2 0 0 46 714 51
1387 2 2 0 0 615 684 428
1388 2 2 0 0 432 742 689
1389 2 2 0 0 179 713 181
1390 2 2 0 0 26 739 645
1391 2 2 0 0 35 510 507
1392 2 2 0 0 574 703 357
1393 2 2 0 0 184 707 186
1394 2 2 0 0 39 693 612
1395 2 2 0 0 665 694 539
1396 2 2 0 0 312 708 534
1397 2 2 0 0 554 689 309
1398 2 2 0 0 1 737 508
1399 2 2 0 0 519 717 520
1400 2 2 0 0 277 697 622
1401 2 2 0 0 389 711 641
1402 2 2 0 0 495 736 484
1403 2 2 0 0 17 712 18
1404 2 2 0 0 212 722 557
1405 2 2 0 0 455 720 438
1406 2 2 0 0 622 697 626
1407 2 2 0 0 664 694 665
1408 2 2 0 0 447 719 449
1409 2 2 0 0 669 688 652
1410 2 2 0 0 612 693 436
1411 2 2 0 0 619 744 194
1412 2 2 0 0 57 728 59
1413 2 2 0 0 579 658 583
1414 2 2 0 0 438 727 525
1415 2 2 0 0 539 733 83
1416 2 2 0 0 479 731 478
1417 2 2 0 0 691 736 38
1418 2 2 0 0 401 724 400
1419 2 2 0 0 420 660 2
1420 2 2 0 0 328 732 325
1421 2 2 0 0 320 738 453
1422 2 2 0 0 428 744 429
1423 2 2 0 0 431 742 432
1424 2 2 0 0 425 745 427
1425 2 2 0 0 408 743 434
1426 2 2 0 0 571 726 403
1427 2 2 0 0 119 727 523
1428 2 2 0 0 625 706 462
1429 2 2 0 0 525 730 404
1430 2 2 0 0 499 736 495
1431 2 2 0 0 468 725 654
1432 2 2 0 0 336 672 582
1433 2 2 0 0 198 715 518
1434 2 2 0 0 400 724 706
1435 2 2 0 0 402 680 581
1436 2 2 0 0 589 716 659
1437 2 2 0 0 727 730 525
1438 2 2 0 0 664 665 391
1439 2 2 0 0 337 740 558
1440 2 2 0 0 293 731 562
1441 2 2 0 0 523 720 282
1442 2 2 0 0 460 730 119
1443 2 2 0 0 641 711 225
1444 2 2 0 0 429 744 619
1445 2 2 0 0 119 730 727
1446 2 2 0 0 651 722 212
1447 2 2 0 0 38 736 499
1448 2 2 0 0 667 686 381
1449 2 2 0 0 652 688 383
1450 2 2 0 0 410 710 606
1451 2 2 0 0 644 701 448
1452 2 2 0 0 666 673 419
1453 2 2 0 0 704 743 408
1454 2 2 0 0 251 734 586
1455 2 2 0 0 400 706 625
1456 2 2 0 0 546 688 669
1457 2 2 0 0 668 700 229
1458 2 2 0 0 538 733 694
1459 2 2 0 0 333 694 664
1460 2 2 0 0 565 662 375
1461 2 2 0 0 720 727 438
1462 2 2 0 0 372 700 668
1463 2 2 0 0 579 716 658
1464 2 2 0 0 642 711 389
1465 2 2 0 0 355 705 461
1466 2 2 0 0 407 721 679
1467 2 2 0 0 523 727 720
1468 2 2 0 0 654 725 279
1469 2 2 0 0 639 718 27
1470 2 2 0 0 694 733 539
1471 2 2 0 0 393 722 651
1472 2 2 0 0 645 739 397
1473 2 2 0 0 683 741 374
1474 2 2 0 0 397 739 638
1475 2 2 0 0 653 716 579
1476 2 2 0 0 666 723 660
1477 2 2 0 0 419 723 666
1478 2 2 0 0 374 737 683
1479 2 2 0 0 593 741 646
1480 2 2 0 0 683 737 1
1481 2 2 0 0 689 742 309
1482 2 2 0 0 660 723 2
1483 2 2 0 0 23 25 1
1484 2 2 0 0 25 607 1
1485 2 2 0 0 3 34 2
1486 2 2 0 0 34 415 2
$EndElements
