$MeshFormat
2.2 0 8
$EndMeshFormat
$Nodes
745
1 4.9743471083003343e-05 2.1783884166015299e-05 1.0203060965299578e-03
2 6.4359961693238212e-05 -3.4566268827188612e-05 -1.0178510132077745e-03
3 1.4292871368373411e-04 2.2133991671850075e-05 -1.0093920112241668e-03
4 2.6018771704506541e-04 6.9922046988483768e-06 -9.8567130022092866e-04
5 3.8929449063757884e-04 1.4348883160683857e-05 -9.3969763280855585e-04
6 5.0190518763235830e-04 9.9507972908489818e-07 -8.8067757859403505e-04
7 6.1401954304062846e-04 -6.8771404368900922e-07 -8.0164199955162709e-04
8 7.2818386087788978e-04 -4.7091022978740742e-06 -6.9237443034997999e-04
9 8.2363268074132359e-04 -3.5952453578110438e-06 -5.6666002615902945e-04
10 9.0427045618772387e-04 2.6518570171908583e-06 -4.1513686948225521e-04
11 9.5370911415469824e-04 1.0231411906432266e-05 -2.7278971898079369e-04
12 9.8114233331410110e-04 3.0550211207879070e-06 -1.3521960200459511e-04
13 9.8977509573457394e-04 1.0062766404219723e-05 1.7176091633390637e-06
14 9.7975168835255600e-04 6.8083945973136331e-06 1.4418843072339679e-04
15 9.4966832914097237e-04 -1.4755975315399830e-06 2.8770781567027601e-04
16 8.9831826503761572e-04 7.3804838834796154e-06 4.2937583424551719e-04
17 8.2542686977324440e-04 4.1144018574775235e-06 5.6433407227793764e-04
18 7.3373357505641056e-04 2.3230199632289116e-06 6.8653754421478508e-04
19 6.2479086121710562e-04 8.8380937028632760e-06 7.9329905051873342e-04
20 5.0665271678215296e-04 1.2684442164747957e-06 8.7829475614142677e-04
21 3.7507774533683335e-04 2.8258514868072096e-06 9.4581763110206118e-04
22 2.4481212561764499e-04 -9.5295026946219312e-06 9.9002209172625345e-04
23 1.3921334823403176e-04 -2.0558529078893264e-05 1.0106566371012491e-03
24 1.5498218374137754e-04 1.2963594249542720e-04 -1.0002111300502067e-03
25 1.6563230403139037e-04 1.0852738170104160e-04 1.0016233007051731e-03
26 5.5341929889990459e-04 1.0833180382546286e-04 -8.3960002694597618e-04
27 5.6613475525080345e-04 -1.0625714684570645e-04 8.3163364644387166e-04
28 9.6169281768781415e-04 1.3412604559783818e-04 -1.9779032082858222e-04
29 8.4958261530778680e-04 1.4556914117955176e-04 5.0438205402816188e-04
30 9.2351687927021641e-04 -1.1872328642783044e-04 3.4689234488537640e-04
31 9.6167864161109465e-04 -1.1838360388947554e-04 -2.0801266296768361e-04
32 5.5289691059726425e-04 -1.1298795086599458e-04 -8.3968746321045902e-04
33 5.6035475058560907e-04 1.0772772815955747e-04 8.3531558330460351e-04
34 1.7188589278055460e-04 -8.5475832419746879e-05 -1.0023415131156423e-03
35 1.9183947808462689e-04 -1.0452331729647019e-04 9.9634625834945202e-04
36 7.8268609160404997e-04 -1.2705466149175951e-04 6.1239363281797069e-04
37 7.7262322499634453e-04 1.2193117493831345e-04 -6.2615771876537211e-04
38 9.8037440961664139e-04 -1.1047137286788485e-04 8.0313818087069714e-05
39 9.5940148560180424e-04 1.2112740860833004e-04 2.1652424011586057e-04
40 8.6253914003539892e-04 -1.2982767201765081e-04 -4.8294133472241588e-04
41 2.9233903516093652e-04 1.2948508557811934e-04 -9.6662617450801725e-04
42 2.2277931528932426e-04 2.2651517873945558e-04 -9.6730498512238991e-04
43 3.2799096439418464e-04 2.3472319831805512e-04 -9.3257549524242611e-04
44 3.0561860445163947e-04 1.0809146574166963e-04 9.6565110306172906e-04
45 6.7283802654538583e-04 1.2090487567406762e-04 -7.3911655104338904e-04
46 7.0869573531773668e-04 2.4832203183795077e-04 -6.6564894685617031e-04
47 2.6464522125744291e-04 3.3493886600925374e-04 -9.2135605980194564e-04
48 3.9920513155859157e-04 3.3975275163186506e-04 -8.6629187154521039e-04
49 3.3347131212835583e-04 4.3797446414651613e-04 -8.4869179548894538e-04
50 8.0261228718607794e-04 2.4444590556911951e-04 -5.4167249398018910e-04
51 7.2606318327537523e-04 3.6245872783342289e-04 -5.8468534526898142e-04
52 8.0541833269652822e-04 3.6491067844076009e-04 -4.5812967157981513e-04
53 7.2774130188927037e-04 4.7545174358337087e-04 -4.8772626250185994e-04
54 7.9550968411442658e-04 4.7405040539887333e-04 -3.5896385271817495e-04
55 7.0716410513550299e-04 5.8477936521351764e-04 -3.8112486439399545e-04
56 7.6920902087716065e-04 5.7343593570227886e-04 -2.4850850832495308e-04
57 6.2764150659119832e-04 5.8956791735080354e-04 -5.0228437988185522e-04
58 5.9757488788845744e-04 6.8875126992974298e-04 -3.9515468159249717e-04
59 5.1115296456890821e-04 6.8493056652454509e-04 -5.1368559864192124e-04
60 4.8125915093790984e-04 7.7019305948326940e-04 -4.0371151737226239e-04
61 3.8711246694605051e-04 7.5540201553234469e-04 -5.2411749533521170e-04
62 3.5452880848570390e-04 8.3539320440618070e-04 -4.0521460989730344e-04
63 1.9846275364133415e-04 4.5603907110073342e-04 -8.8293936216075745e-04
64 4.4106285642219611e-04 8.3820516857133513e-04 -2.9195150574027224e-04
65 2.5624918487326818e-04 8.1416832554462683e-04 -5.1581600855950477e-04
66 2.2970317811478257e-04 8.8649710022195452e-04 -3.8482020943697950e-04
67 1.2058445064925492e-04 8.6250823747300264e-04 -4.8368642529000188e-04
68 1.0706651295198350e-04 2.4066114947175226e-04 -9.8408290807123632e-04
69 1.4102809435011707e-04 7.6777404955280320e-04 -6.2847755560902093e-04
70 8.4845769976812089e-04 4.6122602646664785e-04 -2.2065784704528255e-04
71 8.1768632882498490e-04 5.4672109205045082e-04 -1.1052272459711912e-04
72 7.2549496283579365e-04 6.5931686467452107e-04 -1.3651110425844118e-04
73 7.6338634845230739e-04 6.2944187085348753e-04 4.7064959149964648e-06
74 6.6499424354220769e-04 7.3177202286308285e-04 -2.6599487909724061e-05
75 6.8657765684268643e-04 7.0433158706463810e-04 1.0735605684719837e-04
76 5.9442653269601079e-04 7.8683905393546331e-04 7.8277369279246921e-05
77 6.0614064503437272e-04 7.5407677375136182e-04 2.1154830617666872e-04
78 5.0169284355326238e-04 8.3518588023462792e-04 1.7523452589542248e-04
79 9.6841047893686673e-05 9.2671787627362568e-04 -3.4147542453593239e-04
80 -1.7345988329511172e-05 8.9635470206031757e-04 -4.3016721567899573e-04
81 2.4323731779188096e-04 2.1722499755599730e-04 9.6479737318616674e-04
82 5.1952016986998709e-04 7.8525963392255460e-04 3.1284175709093086e-04
83 -4.0807626047218499e-05 9.4462392901098675e-04 -2.9743120876207817e-04
84 4.0255635298225149e-04 8.6463357811984070e-04 2.6969250397353254e-04
85 4.2223724406033970e-04 8.0412882657527555e-04 4.0385217483021206e-04
86 2.9717161468849215e-04 8.7189085148550803e-04 3.7111794757083589e-04
87 3.1113202289840132e-04 8.0320317292908723e-04 5.0134069553663195e-04
88 1.8808058810405065e-04 8.5569297940669422e-04 4.7337863834827739e-04
89 1.6145715188795447e-04 9.1771106435719111e-04 3.4128234478325700e-04
90 5.3208509332387785e-05 8.9355667206230467e-04 4.3345231647959359e-04
91 6.9328761741748682e-05 8.1963175995614893e-04 5.6687237599388311e-04
92 -5.9221544851384266e-05 8.4973813661744951e-04 5.1806650109602456e-04
93 -7.9415048669733606e-05 9.1033564220824802e-04 3.8949399916492732e-04
94 -1.9010203892536108e-04 8.5517138874756913e-04 4.7290348811245757e-04
95 -1.5269138115769044e-04 8.0115697717199786e-04 5.7569584594776972e-04
96 -2.1439843622848837e-04 9.0786996990159139e-04 3.3786781506799644e-04
97 1.1356609349311020e-04 2.3122941151456760e-04 9.8636922548309722e-04
98 5.2534746038724396e-04 7.1089017350007774e-04 4.6052249497707489e-04
99 1.8438940150014316e-04 3.2689102110504496e-04 9.4533195254734199e-04
100 5.4625430231251768e-05 3.1508518487038094e-04 9.6672439731680974e-04
101 -2.3969198310758640e-05 2.1858714628617795e-04 9.9582153511241383e-04
102 -7.7516009385997575e-05 3.1253038649551142e-04 9.6588868282471141e-04
103 2.0734585876153354e-04 9.3675569879620130e-04 -2.4652828336529101e-04
104 -1.0784947770185441e-04 9.5048565973436603e-04 2.5771354482562663e-04
105 -2.4484462977590349e-04 9.3871568541069002e-04 1.9662247663814958e-04
106 -3.4844293904902091e-04 8.8411061118246219e-04 2.8136057084655121e-04
107 -1.5494030517672398e-04 9.0508417354823948e-04 -3.7772289384314087e-04
108 -1.2908785011243599e-04 8.4768478503432598e-04 -5.0799467669834775e-04
109 -3.7227491982947373e-04 9.0445273891963537e-04 1.4866281380580143e-04
110 -2.6411197045452401e-04 8.4680723090999022e-04 -4.5054355430945822e-04
111 -2.3962537556611858e-04 7.7115998184153201e-04 -5.8913685308864235e-04
112 -3.6564716812454714e-04 7.6881364931781525e-04 -5.1915568740180419e-04
113 -3.2929721154594525e-04 6.8048008997945565e-04 -6.5847509714118350e-04
114 -4.6413179585059420e-04 6.7320582331038673e-04 -5.7407070418475791e-04
115 -4.2033252642431390e-04 5.8335494602686287e-04 -7.0135733140089902e-04
116 -4.9585310841470070e-04 7.3986110134895817e-04 -4.4310144537705896e-04
117 -2.8104016611333574e-04 8.9622890890853665e-04 -3.1786665918024661e-04
118 -2.8544754366066145e-04 7.7697256920572369e-04 5.5952095735291730e-04
119 7.0265542811740909e-04 6.6298298231859810e-04 2.1787800437116409e-04
120 -2.8115118693036945e-04 5.7514398043700282e-04 -7.7880997948226503e-04
121 -3.6274647960557531e-04 4.7390672530394181e-04 -8.1478204920338660e-04
122 -5.0004389999635385e-04 4.7579144465053334e-04 -7.3150023208963554e-04
123 -4.4524906254239817e-04 3.6720477454779433e-04 -8.2960283327474036e-04
124 -5.8813272583732004e-04 6.3608552461232027e-04 -4.9195584845126256e-04
125 -6.1410266437797543e-04 6.9076345369457730e-04 -3.6222025831503853e-04
126 -6.9425228745879420e-04 5.8496195442795556e-04 -4.0406737973877822e-04
127 -4.7736916073410794e-04 8.3699722001228565e-04 2.2834451278412794e-04
128 -5.6632927595638173e-04 3.5515828071861941e-04 -7.5271406231394592e-04
129 -5.0995437759701211e-04 2.5377228985198690e-04 -8.3511286806863981e-04
130 -6.3026201101190268e-04 2.1943713999406276e-04 -7.5386880824199404e-04
131 -5.6512328374916702e-04 1.2314608152858838e-04 -8.2873394560063220e-04
132 -6.8290583389474095e-04 9.1544432415233425e-05 -7.3296953240924439e-04
133 -6.0528870994926425e-04 -1.3013244677797423e-05 -8.0801740732907494e-04
134 -7.2269223387687385e-04 -3.6448492958834079e-05 -6.9660389649842656e-04
135 -6.3380675079836878e-04 -1.4562129753072970e-04 -7.7004956300878366e-04
136 -7.9011191406806736e-04 7.5044762734721813e-05 -6.0973567169261172e-04
137 -8.1908547342210338e-04 -5.3895968181897154e-05 -5.6987374623473019e-04
138 -8.7232368289715261e-04 4.8938715772998141e-05 -4.7852090022763871e-04
139 -8.9071629845035845e-04 -8.2855069395932487e-05 -4.3532952637632548e-04
140 -9.2920459099061895e-04 1.3423128198614874e-05 -3.4877514276237235e-04
141 -9.3760250878994740e-04 -1.1589374928450941e-04 -3.0171214437014593e-04
142 -9.6695343248765820e-04 -1.5359021422277041e-05 -2.1311448992609994e-04
143 -9.6536022957824808e-04 -1.4399188421619315e-04 -1.6489760824978168e-04
144 -9.8536384863026042e-04 -3.8500204200204909e-05 -7.7870390711294289e-05
145 -9.7400139663939261e-04 -1.6979540208038381e-04 -3.0576319825999262e-05
146 -9.8593006303003073e-04 -5.9538778007767089e-05 5.2505301000292385e-05
147 -9.6611859185697952e-04 -1.8621903196687782e-04 1.0529797666866374e-04
148 -9.4414705345955850e-04 -2.9489612134381076e-04 1.5867077521526053e-05
149 -9.2871237898821846e-04 -3.0635803451433346e-04 1.5410899664740457e-04
150 -9.4166410464160066e-04 -1.9034212295821463e-04 2.4315012183502867e-04
151 -8.9480741124871939e-04 -3.1307408035662515e-04 2.9173149587121165e-04
152 -8.9627509365170182e-04 -1.9401518903625179e-04 3.8286257639543717e-04
153 -8.3800632632169089e-04 -3.2452207685621616e-04 4.2683379454191365e-04
154 -8.9000040576164938e-04 -2.1556655816536898e-04 -3.8533407835520886e-04
155 -8.2818690883661693e-04 -2.0846173290628285e-04 5.1546120399423463e-04
156 -7.5905680325072313e-04 -3.3620640299452677e-04 5.5551504412319525e-04
157 -8.7855398897224743e-04 -7.6780765811782037e-05 4.6266142193110286e-04
158 -7.4032614135039843e-04 -2.1848465610816009e-04 6.3904639157489436e-04
159 -6.6468189900302803e-04 -3.3444162277150406e-04 6.7356234240630334e-04
160 -9.8597479273523718e-04 7.6278388662802548e-05 5.6471844318135504e-06
161 -6.3150204774250942e-04 -2.1369244131250726e-04 7.5512783851683092e-04
162 -5.5062133894865153e-04 -3.2397158701379146e-04 7.8074305659843804e-04
163 -5.1498542454920452e-04 -1.1685954939626881e-04 -8.6396976006982026e-04
164 -5.3111257094177599e-04 -2.5007040155010737e-04 -8.2267855687540503e-04
165 -7.0949883829682294e-04 6.3671726725899594e-04 -2.7022144577121211e-04
166 -1.4528586430477398e-04 2.0783769067421186e-04 9.8730173301979514e-04
167 -2.1331096885853957e-04 3.1715581058619599e-04 9.4221872152256455e-04
168 -4.1272101845779606e-04 -2.1037713593403606e-04 -9.0279853993043772e-04
169 -4.3569123508871411e-04 -3.4444249397124979e-04 -8.4581858272662360e-04
170 -5.5153569651083167e-04 -3.8357664126105814e-04 -7.5031030013115725e-04
171 -4.4964228386740012e-04 -4.7966220723206858e-04 -7.6394255556301864e-04
172 -5.5494237722789009e-04 -5.0909616395940997e-04 -6.6292216174285840e-04
173 -4.4077792775715403e-04 -6.0588167169492826e-04 -6.6792846311018207e-04
174 -5.4645496612133271e-04 -6.2237364655100974e-04 -5.5905746603441804e-04
175 -4.2737453213739058e-04 -7.1152739648019481e-04 -5.5643434005372256e-04
176 -7.6185750543260539e-04 -4.4498199401627115e-04 4.6155297859538534e-04
177 -5.2017186629014524e-04 -7.2327352079884120e-04 -4.4425180092582669e-04
178 -4.0721319315199111e-04 -7.9876602264904466e-04 -4.3229433624458443e-04
179 -3.1103222267320858e-04 -7.8297314063416616e-04 -5.3587972135028859e-04
180 -2.7863895091403897e-04 -8.6032756177357040e-04 -4.1496111014388797e-04
181 -1.7842085381990130e-04 -8.3308405731175104e-04 -5.1974653906285508e-04
182 -1.4060470642190102e-04 -9.0088861055718833e-04 -3.9737242853903819e-04
183 -3.9069671419569168e-05 -8.6059089842096821e-04 -5.0342814035700813e-04
184 1.9446421112605947e-06 -9.2116916549702158e-04 -3.7365370510775294e-04
185 -9.9152361209070740e-05 -9.5008123862929035e-04 -2.6751375463851393e-04
186 4.0248516774585816e-05 -9.6082299653099440e-04 -2.4159400778696406e-04
187 -5.0147365745789333e-05 -9.7933469837552440e-04 -1.3926873491126616e-04
188 8.8304818931886049e-05 -9.7956287833930386e-04 -1.1664651701203280e-04
189 -4.1761400291708939e-06 -9.8980622697996627e-04 -1.4706867491137478e-05
190 1.2818417716193087e-04 -9.8160645245072109e-04 1.2146720406149352e-05
191 3.3796184490648107e-05 -9.8364604733161727e-04 1.0968853044313301e-04
192 1.6697658693930754e-04 -9.6712500059990055e-04 1.3477655000784751e-04
193 6.4325305721436195e-05 -9.6094956795531690e-04 2.3665671146372503e-04
194 2.1622545218270820e-04 -9.6247349499079134e-04 -8.4523014923347582e-05
195 1.9983172332039203e-04 -9.3527157226855014e-04 2.6444097076814134e-04
196 1.0010858076160048e-04 -9.1920611393745647e-04 3.6529120083137677e-04
197 1.0596238582899062e-04 -8.7137136431411242e-04 -4.7365111671055513e-04
198 -9.6582585148696022e-05 -9.8157476030217889e-04 8.3648958787233427e-05
199 2.3097818935449807e-04 -8.8349453227920917e-04 3.9495705173249636e-04
200 3.2898691613815706e-04 -8.9023212934997964e-04 2.9121048596944944e-04
201 3.6069427967392578e-04 -8.3078933199084081e-04 4.1291390988208531e-04
202 1.3172461079355370e-04 -8.5659715045497103e-04 4.9424431382141538e-04
203 4.5308699059087171e-04 -8.2835406347473979e-04 3.0763165002436083e-04
204 -1.5840407487576459e-07 -8.8046908102262528e-04 4.6730634327037368e-04
205 2.8822478967743064e-05 -8.0625439480075422e-04 5.9269267731507720e-04
206 -8.9658486810826157e-04 -4.1413313737679008e-04 6.0602638253079471e-05
207 -8.2373185333573689e-05 -7.6891028260274387e-04 -6.3871229819571188e-04
208 -1.0356263030629222e-04 -8.2345458811544539e-04 5.5731631636950468e-04
209 -6.9237077928757632e-05 -7.3486503257798644e-04 6.8148444540008096e-04
210 4.7776945715930928e-04 -7.6044294203938168e-04 4.3022724686585842e-04
211 5.6405851600100905e-04 -7.5086208711135408e-04 3.2319143025460480e-04
212 -4.9267126841423460e-04 -7.9810370828613199e-04 -3.2503373602980261e-04
213 6.2280966749045055e-05 -7.0680808919238076e-04 7.1329168531056341e-04
214 -3.3617994443290701e-05 -6.2369936739736125e-04 7.9345024323404848e-04
215 -3.1956638559755895e-04 -2.8468473905473018e-04 -9.2117833156763547e-04
216 -2.0767986742406904e-04 -7.4943200090817183e-04 6.3265145389146730e-04
217 -2.4271276235928881e-04 -8.2578670606113817e-04 5.0474951454756143e-04
218 5.4013294212101870e-04 -8.0671087728516615e-04 2.0080442981749294e-04
219 6.4776591906797333e-04 -7.1827310167026082e-04 2.1925285239401761e-04
220 6.1526021675811034e-04 -7.7099840539147121e-04 8.9456031580113150e-05
221 -6.3317431093056929e-04 -6.2824087999999601e-04 -4.4158338907751825e-04
222 7.1888258194500304e-04 -6.7327472102099331e-04 1.0621618710335453e-04
223 6.7737684489046384e-04 -7.2178435815467925e-04 -2.3595645217432156e-05
224 -2.9228078333264518e-04 -1.7287488668822705e-04 -9.5929505104326855e-04
225 -9.5080667431360908e-04 1.1454608734024964e-04 -2.5303130894549394e-04
226 9.5953801729632424e-05 -5.9131261709455198e-04 8.1429823599449410e-04
227 -7.7894260486268755e-06 -4.9800683626036136e-04 8.8369966731113132e-04
228 -5.0859610149403610e-04 -1.9529017433131225e-04 8.5317805869092366e-04
229 -5.9904427878101332e-04 -9.2504285774087209e-05 8.0731325557647159e-04
230 6.5550564711189577e-04 -6.6185840144468531e-04 3.4600216001737602e-04
231 3.8413093168522267e-04 -7.5162655988686390e-04 5.3423208519326362e-04
232 5.0068757915229653e-04 -6.5878157582721956e-04 5.6312305308817286e-04
233 7.7085261283011644e-04 -6.2110836399052586e-04 -1.0215556049212317e-05
234 7.2706797611427358e-04 -6.5813602697548080e-04 -1.3932851620767370e-04
235 -3.8218526665341707e-04 2.5442030475209888e-04 -9.0476109932106040e-04
236 3.0321757589636244e-04 3.2431657610833682e-04 9.1327139363118126e-04
237 -4.2095123530206378e-04 -2.8431361700265585e-04 8.7742477347040829e-04
238 -8.3470358176040884e-04 1.9791171158428693e-04 -5.0945543191031699e-04
239 6.2792778568493055e-04 -7.5081517091176581e-04 -1.5333944235977842e-04
240 6.7798944128604833e-04 -6.7387841759314023e-04 -2.6543969435483976e-04
241 -5.7336859095187423e-04 -4.5197622532995525e-04 6.9006514326229961e-04
242 5.6849544428965013e-04 -7.6435819299433441e-04 -2.7780134092181833e-04
243 6.0730496586526485e-04 -6.8150216373995731e-04 -3.9518340056831307e-04
244 7.1317391132727850e-04 -5.8124237841160179e-04 -3.7698441798694125e-04
245 6.2814580485481364e-04 -5.8228078952224285e-04 -5.1231697279311968e-04
246 -1.9385865979889695e-04 -2.4778758662301196e-04 -9.6854280503162250e-04
247 8.0974071245035130e-04 -5.5961880831820914e-04 1.1068844586581806e-04
248 2.2808465683797722e-04 4.3992347104054641e-04 8.8434485832420524e-04
249 -3.8635704467701392e-04 -1.5828721897658677e-04 9.2648404143992526e-04
250 3.5814226400427627e-04 4.3880823712818092e-04 8.3790762795475995e-04
251 -2.0901379326607024e-04 -3.8019100378971040e-04 -9.1834629505318838e-04
252 -8.5288565178298585e-05 -3.4141281822655886e-04 -9.5509274667541783e-04
253 3.7804598814427190e-04 9.0263124591100747e-04 1.4686319268474512e-04
254 -6.1986514305419505e-04 7.3864849624596311e-04 -2.2495354524270348e-04
255 -7.0820915249915708e-04 6.7687305846055479e-04 -1.3668010239243131e-04
256 -7.9072371308884319e-04 5.6771830988605523e-04 -1.7831502866702865e-04
257 -7.8336538270845320e-04 6.0098819935197547e-04 -5.0982885813324229e-05
258 -2.0977924277401081e-05 4.2496018682765464e-04 9.2230112341352706e-04
259 -2.9578644463069232e-04 -2.3781303182246420e-04 9.4381807574756872e-04
260 -2.8000305030650779e-04 2.1461265510288666e-04 9.5423806777404164e-04
261 -3.5585448922181731e-04 3.0702027722041961e-04 8.9896243312903806e-04
262 -2.6347682263053981e-04 -1.1168692568855588e-04 9.7804675021078737e-04
263 -1.7036344880549630e-04 -2.0723148252783469e-04 9.8353488311998761e-04
264 -8.5645122330564594e-04 4.8733099195962220e-04 -8.3208660937887421e-05
265 -8.3978023862700784e-04 5.1980775502686162e-04 4.7469941895013254e-05
266 -3.4084454004136962e-04 -7.4624677266094835e-04 5.7184714829001341e-04
267 -3.6779390870026157e-04 -8.1355694112315836e-04 4.4070516453909595e-04
268 5.1456666346708048e-04 -6.7653779919502619e-04 -5.2380208244560207e-04
269 5.2316725341447674e-04 -5.7324051961355979e-04 -6.3465440218603720e-04
270 6.2143160064876996e-04 -4.7914884085049556e-04 -6.2318672890502040e-04
271 5.1027546639949555e-04 -4.5958570041606649e-04 -7.3637162614390451e-04
272 4.1167676251243116e-04 -5.5023480639684820e-04 -7.3599766635482121e-04
273 -2.8100302528309814e-04 4.1911412526211817e-04 8.7859291016329259e-04
274 -4.2030098304370050e-04 4.1015604772566132e-04 8.2220724555339298e-04
275 3.9396194294418548e-04 -4.2325082163363462e-04 -8.2981131999485642e-04
276 2.8588449008792671e-04 -5.1281328979894340e-04 -8.2322025034898432e-04
277 -3.2729953671956899e-04 -3.5962820551786891e-04 8.9019440150876609e-04
278 -1.3775880481604229e-04 9.7215260610426313e-04 1.1910029994022020e-04
279 8.1044954057468992e-04 -5.5587297967524968e-04 -1.2055862962851963e-04
280 -2.3359478175044381e-04 4.6249099050240451e-04 -8.7018966658418450e-04
281 -1.5277772852718250e-04 5.7160001223578499e-04 -8.1874151443153231e-04
282 8.5414693663694982e-04 5.0003925355859575e-04 3.0211574735275484e-05
283 1.1536708507297223e-04 -4.7433319969178612e-04 8.8962056830521000e-04
284 -9.7881808660216663e-04 5.5188822455577744e-05 1.3254359910559710e-04
285 -9.0252603463909656e-04 -3.9920518783500555e-04 -7.1287624185924786e-05
286 -8.4113796066705257e-04 -5.2034003485589367e-04 -2.7106347841153099e-05
287 -8.2634665650342903e-04 -5.3420925967829537e-04 1.0686418628935365e-04
288 -7.6411626338891920e-04 -6.2835993846201751e-04 1.9836861690273115e-05
289 -7.3808570187514771e-04 -6.4119373139328163e-04 1.5683625245201168e-04
290 -6.7286859538612698e-04 -7.2205441882058051e-04 7.3189066120616381e-05
291 -1.9251382418927713e-04 -9.5850310714032708e-04 -1.6007345794624161e-04
292 -2.7101340414909355e-04 -8.8295274549883595e-04 3.6741672193501206e-04
293 -3.2783390627807313e-04 -5.5446736539386198e-04 -7.7646984990073758e-04
294 -1.0954737955124471e-04 -4.6912200160361458e-04 -8.9352721668228699e-04
295 -4.8920720425715044e-04 2.8644359444694164e-04 8.3739561396573004e-04
296 -5.5333962503312489e-04 3.9199942045623864e-04 7.4393465038405913e-04
297 -8.5756243074135857e-04 4.4931052291498173e-04 -2.0745511719665754e-04
298 -6.1026284696771523e-04 2.7214128918820035e-04 7.5349883425126726e-04
299 -6.7141144775343601e-04 3.6799236097190074e-04 6.4669146435971205e-04
300 -6.0397342636739674e-04 4.9497556395282892e-04 6.2690867435988924e-04
301 -7.0711849169358587e-04 4.6430804733016537e-04 5.2889893645922937e-04
302 -7.7082282938502138e-04 3.3568170047742872e-04 5.3749315246949645e-04
303 -3.0101273576523977e-04 -6.6331237934129112e-04 6.9227339533519576e-04
304 -6.2793564780055109e-04 5.9085682817974425e-04 5.0022679955776829e-04
305 -8.0380094477626202e-04 4.1538425803931060e-04 4.1183988072674788e-04
306 2.3017156454308891e-04 -5.4866243047764886e-04 8.1760713292872980e-04
307 2.4731712213987264e-04 -4.1994095328963435e-04 8.9015497845587154e-04
308 3.5473812602949175e-04 -4.9140527467621189e-04 8.0904976666452066e-04
309 -4.5505629671077142e-04 -7.2938611148494676e-04 5.0533591909820671e-04
310 -8.5213430054710711e-04 2.8681356953723104e-04 4.2473532715757526e-04
311 -3.9470376129620424e-04 -8.5837493619458916e-04 3.0460451344625929e-04
312 -7.5725419419160568e-04 6.3037984058794433e-04 8.1907757385262024e-05
313 -8.3938762138545528e-04 -5.0133057565484597e-04 -1.5603829995180683e-04
314 -7.3750474725844427e-05 9.7683158675809369e-05 1.0139097788268850e-03
315 -8.7809314163752943e-04 3.5267813033923879e-04 2.9713122433973170e-04
316 -9.6709051246729667e-04 1.8859912207110264e-04 8.5478173247287973e-05
317 -1.0745594785386344e-04 7.6133104148447489e-04 -6.4172032951463967e-04
318 2.6243235085454214e-04 -3.8216957685246002e-04 -9.0308045539403998e-04
319 -6.8819028437871717e-04 -7.0870912579909279e-04 -5.9532609802265736e-05
320 -5.9241678869171558e-04 -7.9227165086923328e-04 -2.1785071845690475e-06
321 -6.6020393083670746e-04 -4.0288734030380038e-04 -6.3708984856061140e-04
322 -8.6239550063198507e-05 -1.9628496549274735e-04 -9.9717326075938724e-04
323 5.0226628521647253e-04 -8.5030903461859970e-04 7.3248022348128367e-05
324 -6.1262202060945485e-04 7.7056954185484737e-04 -9.2725695278492756e-05
325 2.8500427693689767e-04 5.4636395886902185e-04 7.9922608567320919e-04
326 2.9184741857329519e-04 -6.3674408559667110e-04 -7.2246658725388328e-04
327 1.5991470725531891e-04 -5.9951550856716940e-04 -7.9681802904242333e-04
328 4.1522838157067855e-04 5.4439916948249964e-04 7.3750756940579019e-04
329 4.8366822177811077e-04 4.2794471255089739e-04 7.7416255874928664e-04
330 4.5647646972062100e-04 4.4091664952388657e-04 -7.8337234581669706e-04
331 -1.5254503507051350e-06 9.7532149915192630e-04 1.6705994598362742e-04
332 -2.4515745883614789e-05 9.8765070406137611e-04 3.6363568616330796e-05
333 -1.5250442594546648e-04 9.7668582399080823e-04 -3.0003664932082973e-06
334 1.1509768872640691e-04 9.7931270026249337e-04 7.4444215047208781e-05
335 3.6397544186504320e-04 -3.6127800033879359e-04 8.7481834584566089e-04
336 4.6401957736658952e-04 -4.3095489959110597e-04 7.8615639333188235e-04
337 -8.1133258536826547e-04 2.0476475660489521e-04 5.4381014585175834e-04
338 -3.5539994044936303e-04 5.1332019853298492e-04 7.9215834751435003e-04
339 -9.8974980980264364e-05 4.6021612413038479e-04 -8.9826791863996359e-04
340 3.6330369777246116e-04 -3.0872205376780742e-04 -8.9555306160271967e-04
341 3.9099310584522625e-05 -2.6442510104897462e-04 -9.8369161352496377e-04
342 -9.2050681262691603e-04 3.5152342163089536e-04 -9.4790980193877879e-05
343 1.9057727896014727e-05 -3.6873186409366079e-04 9.4851323256389523e-04
344 -5.2311647488117975e-04 6.1163959123664176e-04 5.9364515183849909e-04
345 -5.2980629539326764e-04 7.1250898095658814e-04 4.5140859408041603e-04
346 -6.5117067249641756e-04 6.5392531066989061e-04 3.6645256898206483e-04
347 6.0270040007635666e-04 -3.6440851921215302e-04 -7.1850845983698617e-04
348 7.1437186390898764e-04 -3.7545229635846795e-04 -5.9195551532231674e-04
349 5.3253975649165096e-04 5.1967048685714592e-04 6.7330971989618842e-04
350 6.0528192431364130e-04 3.9732360711041971e-04 6.9656187084167812e-04
351 6.4805159932954299e-04 4.9052082759765310e-04 5.8262896914632956e-04
352 7.1750713704531698e-04 3.5352725515618179e-04 6.0180651413674975e-04
353 7.4678019643757091e-04 4.4795124200296648e-04 4.8526126468368633e-04
354 -6.4148738929242592e-04 -7.2716011748104846e-04 2.0312925731111935e-04
355 2.5495266677686763e-04 5.5339781940311748e-04 -8.0441816760227689e-04
356 1.2818939852705724e-04 5.6641318435723508e-04 -8.2690036357068722e-04
357 -6.7865027284355823e-04 3.2321020222276251e-04 -6.6314620115123042e-04
358 5.1979581079995786e-04 -8.2741119413843591e-04 -1.6356084222039576e-04
359 4.5256057670476426e-04 -8.3734160142019524e-04 -2.8036195932463532e-04
360 -8.1793538833315263e-04 4.7984920249119695e-04 2.8896962714905884e-04
361 -1.2922485610320151e-04 -5.3388702777117645e-04 8.5050309598302281e-04
362 -1.7237451452217984e-04 3.4328029944871659e-04 -9.4121951400334128e-04
363 -2.1573599794085123e-04 5.2232151656011073e-04 8.3815230577086760e-04
364 -5.1210238318476502e-04 8.2894900010333894e-04 -1.7232103554824048e-04
365 1.5624218022735259e-04 5.4844391802856107e-04 8.3482048719631552e-04
366 -3.5074935227470200e-04 -2.6917300928596773e-05 9.5489813630057448e-04
367 -7.0419046100325309e-04 -6.3542270665749767e-04 2.9055923597933798e-04
368 2.0890777224897742e-04 6.5730696109884696e-04 7.3353435265227607e-04
369 8.8811813267352849e-05 6.3610668332609731e-04 7.7585278868331402e-04
370 6.9343494667278307e-04 -2.5508948112613276e-04 -6.8038529058499339e-04
371 -5.4145239514050896e-04 1.6748177631580971e-04 8.3756301279588365e-04
372 -6.6656120874618199e-04 1.3310892724473342e-04 7.4311718863472574e-04
373 5.5526247008130651e-04 8.1672239356247512e-04 -5.2652888698271992e-05
374 -1.2700850607766107e-04 -8.5902096160024664e-05 1.0093879930930868e-03
375 -5.9642804928220867e-05 -1.7299252018243506e-04 1.0040098493906836e-03
376 -2.9888990556285543e-04 -9.1629062002642565e-04 2.3297052182387045e-04
377 -4.3029067682949696e-04 -8.7815117467216386e-04 1.6175794226516919e-04
378 -9.1765449728771823e-04 2.0072452897473245e-04 3.2131937600321655e-04
379 4.1823257340059669e-04 6.4891059557388680e-04 -6.3946423481787062e-04
380 1.6457777580515136e-04 -7.1328438917455641e-04 -6.8798829892224172e-04
381 2.8301256041545348e-04 -7.4025572524728822e-04 -6.1205881272325920e-04
382 -8.9388570692907775e-04 -3.7626853774917773e-04 -2.0055172030824923e-04
383 -8.2597012395652179e-04 -4.6736068715198207e-04 -2.8756762580450643e-04
384 -7.6667755647406226e-04 -5.7641311968741223e-04 -2.5014554113916609e-04
385 -1.7143396445008972e-04 -9.3183796199639414e-04 2.9563548984627838e-04
386 -6.6078603227551647e-04 5.2760198669616221e-04 -5.2894783264372609e-04
387 -7.5978398095539080e-04 4.6907022506355761e-04 -4.3796321676772783e-04
388 8.7162339284121786e-04 2.5050545772395546e-04 -4.0812829388027548e-04
389 -9.0239485252105738e-04 3.2740371245849366e-04 -2.4371114590163265e-04
390 -5.0462453724575609e-04 8.4921168080326099e-04 -3.8150206433716616e-05
391 -3.9757502165336590e-04 8.9897562112408261e-04 -1.0831666414647161e-04
392 -5.9844991955092393e-04 7.8590959023758331e-04 3.2603154425666251e-05
393 -5.8838031230229145e-04 -7.8622365625416880e-04 -1.2565824853800334e-04
394 -4.9724008153161439e-04 -8.5335818098465231e-04 -5.8359350447143494e-05
395 8.1290076934028988e-05 9.8379946753755407e-04 -5.3843412060360394e-05
396 2.1348619371225846e-04 9.6521624070501362e-04 -1.6025116787953237e-05
397 5.2522912650372860e-04 3.3049849426418305e-04 -7.9612972593216325e-04
398 2.5079575788709613e-04 -2.9980488214825389e-04 9.3907837980952702e-04
399 3.7033467154596130e-04 -2.3582914379054260e-04 9.1691130683879934e-04
400 -2.7002563808377182e-04 6.2209456464965788e-04 7.4304786855833077e-04
401 -1.5860850548301246e-04 6.1529139173972043e-04 7.8164868445154245e-04
402 3.1650779949539561e-04 -6.1440272457451422e-04 7.3236764840501299e-04
403 6.4850536567577987e-04 2.7298915743851910e-04 7.1876082236151475e-04
404 6.6296254549483465e-04 5.9412129187571563e-04 4.4745571355218064e-04
405 -3.1027052763921045e-04 -9.3471101661040572e-04 1.0096395383898905e-04
406 2.5823992082319293e-04 -2.7582678132045518e-04 -9.4416660556533949e-04
407 3.5889117448133478e-04 -1.9659513149124802e-04 -9.3015166359517864e-04
408 8.7979671883988515e-05 4.6147159537675877e-04 -8.9876855313656627e-04
409 -8.8045704981935878e-04 4.2716784997864454e-04 1.5276673262051279e-04
410 -4.4848524758298085e-04 8.0983161813914860e-04 3.5833545530360579e-04
411 5.5094557222741872e-04 4.3596100062197232e-04 -7.1799797585984395e-04
412 4.5733224412650945e-04 6.4142125572296915e-04 6.1899761900119908e-04
413 8.0543183223134992e-04 3.1294182876118697e-04 4.9847579482914170e-04
414 8.3175990093991192e-04 3.8913348682264318e-04 3.8010569129054113e-04
415 3.4972098891887453e-05 -1.5367389159397885e-04 -1.0082979972566106e-03
416 -9.6534980992050707e-04 2.1163261595561673e-04 -3.9958683480712490e-05
417 -6.9093395353125330e-05 3.4184066595740087e-04 -9.5545404199074444e-04
418 -1.3179474159365499e-04 2.3918709942244285e-04 -9.8145421677000937e-04
419 3.2474239428219541e-05 1.6597443846120806e-04 -1.0053908012124166e-03
420 -5.0871533691053910e-05 -7.2234445699240115e-05 -1.0171635101844929e-03
421 -9.3374989200499655e-04 3.2199020706818955e-04 5.2061180862997656e-05
422 7.9843948201148061e-04 -2.5698177031203463e-04 -5.4269502181867831e-04
423 8.0643048088191677e-04 -3.7331261339767190e-04 -4.5018592490536928e-04
424 2.4776534718916619e-04 9.5137178216244431e-04 1.0915922382526951e-04
425 2.6055072245128280e-05 -6.8173445630789970e-04 -7.4174738043356677e-04
426 3.4154873322564146e-05 -5.4722700992820253e-04 -8.5143354420126464e-04
427 -7.7519641412307871e-05 -5.9572123070821372e-04 -8.1170931589861182e-04
428 4.0417994678580146e-04 -8.8902249505325257e-04 -1.6543156648905183e-04
429 3.1654085367122304e-04 -9.0042795693217324e-04 -2.7035547427705270e-04
430 3.6046657808655550e-04 -8.4035344587731994e-04 -3.9109142930253253e-04
431 -6.0313746039159942e-04 -7.1640829852790539e-04 3.2899825545883502e-04
432 -6.4536721750913916e-04 -6.2110135556420361e-04 4.3490439568799122e-04
433 1.3794952157656357e-04 -3.3602114359037292e-04 -9.5047334291936767e-04
434 -1.9477980616306981e-06 5.5692826759303100e-04 -8.4507415364856850e-04
435 7.1418235534118359e-05 6.6643342400249210e-04 -7.5128707484495825e-04
436 8.7762517168146195e-04 2.6577853143636360e-04 3.8383362438596717e-04
437 8.9552082871057121e-04 3.3932781027733508e-04 2.5601001440459621e-04
438 8.4355281889834704e-04 4.5089930915693561e-04 2.5940148395726606e-04
439 7.5388175849231461e-04 2.1573266570033993e-04 6.2404331860117812e-04
440 -5.7092897118614513e-04 7.5226705514927527e-04 3.0281681855565953e-04
441 -6.8955839759623550e-04 6.7926369956476998e-04 2.1147325402245856e-04
442 6.7981731417811602e-04 -1.1628229745011897e-04 7.3392824157364879e-04
443 7.2787916098053865e-04 -2.3950525511308199e-04 6.4778227668689037e-04
444 8.1000560932381757e-04 -2.4146945592709652e-04 5.3244232747549696e-04
445 7.4153470565902120e-04 -3.5885578583046092e-04 5.6720854434054761e-04
446 8.1853061169797432e-04 -3.5640810745998498e-04 4.4194241627105622e-04
447 7.3769838813132294e-04 -4.7645990840283119e-04 4.7189424307572236e-04
448 6.5502502695913008e-04 -4.7602760910530343e-04 5.8827669584072520e-04
449 8.0007478512566545e-04 -4.7926522886435269e-04 3.4306478059453733e-04
450 8.7346605219745495e-04 -3.5707008673507428e-04 3.0905092272230671e-04
451 6.4138126704149970e-04 -5.8999888087708200e-04 4.8657303755897483e-04
452 6.7279554182535304e-04 1.3469148517113928e-04 7.3781928959015081e-04
453 -5.5682527647507303e-04 -8.0894275786723890e-04 1.2554469828925628e-04
454 2.3189997592414696e-05 -4.0535517496041539e-04 -9.3221175247469015e-04
455 8.9428251710289798e-04 4.0374246561592723e-04 1.3058758647380619e-04
456 4.6649409952115414e-04 -2.1426634346074255e-04 -8.7385879756791832e-04
457 5.0200229401704528e-04 5.2807354239766877e-04 -6.9068183335503543e-04
458 6.1436380677564047e-04 -2.3586127856198925e-04 7.6498695445202040e-04
459 1.3880820465815292e-04 9.5916702055928781e-04 2.0200995544947619e-04
460 6.2159273388943037e-04 6.9578359978780303e-04 3.3871919476925690e-04
461 3.8419721270677615e-04 5.4388063167229493e-04 -7.5517842176640144e-04
462 -4.2025280670460359e-04 7.0195644590059238e-04 5.7319367656037830e-04
463 7.6799481996617366e-04 -1.3025879382659391e-04 -6.3074291226947947e-04
464 8.7562781503607902e-04 -2.5435147314686651e-04 -3.9758469085415549e-04
465 8.6924608489389959e-04 -3.6458885828513990e-04 -3.1201133688654525e-04
466 3.2952673199981404e-06 8.2206567533040452e-04 -5.6710099112745860e-04
467 9.2334997575221813e-04 -2.4549095947690245e-04 -2.6661925940828592e-04
468 9.0975253771974308e-04 -3.5489519344738147e-04 -1.6950068356715793e-04
469 1.4696247170911249e-04 3.5371840766166993e-04 -9.4161662185694717e-04
470 8.4537728695531099e-04 -4.7176264414467160e-04 2.1445786115751442e-04
471 9.0916006519235781e-04 -3.4931678006538958e-04 1.8218081381648666e-04
472 1.9659523953745097e-04 7.7389315425565317e-04 6.0289668493690213e-04
473 1.4896576106457468e-04 -2.0680815140890741e-04 -9.8688398661953632e-04
474 2.2730587264620475e-04 -8.9301718532886496e-04 -3.7303560164403659e-04
475 5.5790044180929700e-04 7.6791785491925801e-04 -2.8592339099891867e-04
476 3.2379394327260131e-04 7.1611312492965862e-04 6.1998329749694066e-04
477 2.8352947496516450e-04 7.2036198254860735e-04 -6.3562302697844041e-04
478 -1.9098137185285277e-04 -5.5911928880845096e-04 -8.1910692106158096e-04
479 -1.7387662556370563e-04 -6.6983305113905859e-04 -7.3072236033031208e-04
480 -3.9120097551682289e-04 8.2814511896110352e-04 -3.8406712372263254e-04
481 1.9270425611968387e-04 6.5932352264649354e-04 -7.3481643541712467e-04
482 7.5524096492871529e-04 -5.9666433440910263e-04 2.4366371526938867e-04
483 8.8122679473809492e-04 -4.4255802988682193e-04 8.8612062775222884e-05
484 9.3042132901422349e-04 -3.3217766530324610e-04 5.8169247895428589e-05
485 5.7986782537092912e-04 -2.3980209204812529e-04 -7.9064586150233570e-04
486 3.9222119099619564e-04 1.6366802600270645e-04 -9.2213640950978377e-04
487 9.7937093176200243e-04 1.2977965301823360e-04 -6.0467192154565875e-05
488 9.4485228999706796e-04 2.7314539701356864e-04 -1.1861553531295812e-04
489 9.6136606058532035e-04 2.3119819022733281e-04 5.6178061674862832e-06
490 8.9115972806817919e-04 4.1933946433032741e-04 -9.8069465315588008e-05
491 3.4720701253459899e-04 9.2587546780448335e-04 1.0102220709354582e-05
492 2.9323773523227975e-04 9.3658111658404095e-04 -1.2838197600385391e-04
493 4.2928503178667974e-04 8.8743752214482080e-04 -7.8730392140590494e-05
494 9.0469092180470580e-04 -3.9975712078351425e-04 -3.5283501016696027e-05
495 9.4850206283379149e-04 -2.7716391129900422e-04 -5.5112970231004530e-05
496 -3.8576682761860094e-04 9.0994690990099452e-04 2.1483916419270053e-05
497 9.7924397486199547e-04 1.2141030902904715e-04 7.7345801862046379e-05
498 6.7007306399337254e-04 6.7846634157484357e-04 -2.7084201800867260e-04
499 9.7925213952402635e-04 -1.3460315656488347e-04 -6.3074969273675278e-05
500 9.6231159267292244e-04 -1.1184975947533075e-04 2.0906884017396363e-04
501 9.2523452872094760e-04 -1.2763944465606149e-04 -3.3806787478130414e-04
502 8.5692107187647685e-04 1.2775820534572827e-04 -4.9361682628686391e-04
503 8.6253883379615022e-04 -1.2467468033698891e-04 4.8498247845083289e-04
504 4.3692781140281482e-04 1.0638693890604018e-04 9.1052335760041217e-04
505 4.2116774985724077e-04 3.3112369050343932e-04 8.5916453224376560e-04
506 6.5504211949266641e-04 -3.6115899092311075e-04 6.6985988978539399e-04
507 3.0581493498028125e-04 -9.3188427168071860e-05 9.6722654577510248e-04
508 5.4651979583662872e-05 -1.1080918306625880e-04 1.0141476768066203e-03
509 1.6019065307018809e-04 -2.0743174876800086e-04 9.8536199076993238e-04
510 2.5743556882831597e-04 -1.7525885258529722e-04 9.6918856530687418e-04
511 -2.0077635250581436e-04 6.7346352734096811e-04 -7.1865031350684314e-04
512 2.7238487179378248e-04 9.1966271389336588e-04 2.4796819441717989e-04
513 5.6919651772581849e-04 -8.0919850228478930e-04 -3.9627803717231648e-05
514 2.5713733214735416e-04 -9.5541511758480164e-04 3.5684598961137537e-05
515 2.9616114656658295e-04 -9.3175354285306698e-04 1.6143190001690998e-04
516 -5.5167363676562181e-04 5.6409110456159828e-04 -6.1546290555869389e-04
517 7.7221324311682615e-04 -5.7138843327164028e-04 -2.4642472809595801e-04
518 -1.4434928824241282e-04 -9.7842120805679330e-04 -3.9254588482855464e-05
519 -2.9204392498553014e-04 -9.4517306831923883e-04 -4.5744376527203813e-05
520 -3.3197579420920072e-04 -9.1569629743016548e-04 -1.8135827627338769e-04
521 -7.8446068871863210e-04 5.2229892042306072e-04 -3.0826604409398299e-04
522 -9.7783958576579230e-04 9.0196883811341104e-05 -1.2007079288176583e-04
523 7.7894395324202659e-04 5.9878503859868784e-04 1.1717597488410385e-04
524 -7.9335594417032378e-04 -5.4416819125664294e-04 2.3807234885434353e-04
525 7.6859891251835905e-04 5.1650364124181081e-04 3.5857882792732465e-04
526 4.8762731991274714e-04 -7.6858056297962325e-04 -4.0147891130260085e-04
527 -9.4386930572406657e-04 -2.7302930133010257e-04 -1.1765417048509495e-04
528 -9.3350210162915605e-04 -7.2389932213278021e-05 3.2903477157221288e-04
529 -9.0969456222763853e-04 5.2824307020335615e-05 3.9694267763355686e-04
530 -8.4148433707813318e-04 5.7736624458250094e-05 5.3443238537008182e-04
531 -7.7160773897627015e-04 -6.0939991017046780e-04 -1.1502600943359763e-04
532 -9.6989361259329184e-04 -6.7586809445500400e-05 1.8731330229025727e-04
533 -7.3345621101617985e-04 5.3621077952888639e-04 4.0237598069775392e-04
534 -6.9593082766940457e-04 7.0175232292854820e-04 -1.0777098334019388e-05
535 -2.3451871079639141e-04 -9.1977303151133079e-04 -2.8937420464207592e-04
536 6.2169589408096228e-04 7.5303994163286104e-04 -1.6133838546499089e-04
537 -1.3638411119539553e-04 -8.8922027178086813e-04 4.2635738858444163e-04
538 -4.3057736782102374e-05 9.8385201817021177e-04 -8.7780987325469323e-05
539 -1.7257042418334959e-04 9.4358639230673327e-04 -2.4529163115512645e-04
540 6.1808329679668197e-05 9.6802621593219419e-04 -1.9988807065027725e-04
541 -9.2999479102741302e-04 2.8335441511308804e-04 1.8705013943978041e-04
542 -8.7157377973425627e-04 -4.2641378414138035e-04 1.9925076470373313e-04
543 -8.0377490372702436e-04 -8.5667148247244739e-05 5.8888574183355480e-04
544 -7.5256172151386082e-04 3.9544258388155293e-05 6.6141053004743159e-04
545 -6.5414875252830856e-04 -5.2591586081299408e-04 -5.4088604981008029e-04
546 -7.4412289018823275e-04 -4.2583405179533613e-04 -5.0908466493902835e-04
547 -7.5041094904718705e-04 -3.0658293450736213e-04 -5.8531219666204737e-04
548 -6.5457111362767970e-04 -2.7909314758411551e-04 -7.0994483370585934e-04
549 2.6287400724330244e-04 -8.1202104815964891e-04 5.1813963103722479e-04
550 5.6533636963039622e-04 6.0081608227215480e-04 5.6219332272033711e-04
551 8.6464091706985199e-04 3.6322617732072226e-04 -3.2432268615667086e-04
552 8.7804782366701683e-04 -2.4105006717116466e-04 4.0120353144330428e-04
553 1.5783336988568872e-04 -7.7347984187664249e-04 6.1718594705569203e-04
554 -4.4380313884500840e-04 -6.4639208104228906e-04 6.2468957051084819e-04
555 -3.8289319294145571e-04 -5.6754077043042047e-04 7.3800441859768939e-04
556 -8.2796370750262834e-04 -4.3673239409229944e-04 3.3010566783013518e-04
557 -6.0075248205125598e-04 -7.2069081046442990e-04 -3.2337661689145274e-04
558 -7.2266882403948757e-04 2.5065049959822119e-04 6.4749739225861667e-04
559 -6.7643792377538150e-04 -4.5002402144205146e-04 5.8287175709962257e-04
560 -5.7947528247985144e-04 -5.6676329660990100e-04 5.8733953617856941e-04
561 6.3206137481313404e-04 4.7953412150534484e-04 -6.1126115309664158e-04
562 -3.2321880008923619e-04 -6.8004607913078083e-04 -6.6389579188869379e-04
563 -4.8584243716539172e-04 5.1183844747954813e-04 7.1571927873647961e-04
564 7.2253340952683912e-04 -4.8403678787415597e-04 -4.8811772265310098e-04
565 -6.6457843024733508e-05 -2.8534357072707646e-04 9.7614862627801993e-04
566 -1.0474287837274438e-04 -4.0612406050814044e-04 9.2586969383101484e-04
567 -2.0038067911876654e-04 -3.1323929806612602e-04 9.4718048066108119e-04
568 -1.6491732136926664e-04 -6.4781476662724609e-04 7.5419754215837740e-04
569 4.0729013999972209e-04 -6.6137868209503595e-04 -6.3374896620215296e-04
570 -7.0643932544762328e-04 -9.9072311413624017e-05 7.0755898238773003e-04
571 5.3811075070861816e-04 3.0945675030271476e-04 7.9574293285041855e-04
572 4.8227884930201852e-04 -3.3734893160900279e-04 -8.2201637181112980e-04
573 1.3343650141622418e-04 -3.4625930778608971e-04 9.4772032151904423e-04
574 -7.4224573595003290e-04 2.0015219799901548e-04 -6.4232809407150867e-04
575 1.5174005804836042e-04 -4.7353625289482779e-04 -8.8395148084349600e-04
576 -4.5256728868275432e-04 -4.3687983362347222e-04 7.9016338483352592e-04
577 -3.0695990422412259e-04 3.4995476644795955e-04 -9.0135385009607982e-04
578 -2.4196239071550723e-04 2.3733296002337106e-04 -9.5939624740101368e-04
579 -3.0776963001931357e-04 1.2767345441685801e-04 -9.6137736800593629e-04
580 -4.8898094827917304e-04 1.6682710692021767e-05 -8.8776616818582097e-04
581 4.5701733460227795e-04 -5.6529335150336702e-04 6.9569153153628213e-04
582 4.8558217954521076e-04 -3.0177136819207654e-04 8.3480112110215676e-04
583 -4.4337324613243485e-04 1.4210774503966444e-04 -9.0110184296297976e-04
584 -4.1155103891441782e-04 1.8413015598486195e-04 9.0942026362071963e-04
585 -4.4640673775225213e-04 7.3750386684300984e-05 9.0856139096216846e-04
586 -3.3863793880144498e-04 -4.1421053697054857e-04 -8.5965155817066714e-04
587 2.6843000878834600e-05 9.4515332776939833e-04 2.9815673373150806e-04
588 -3.8939811914816378e-04 -8.7447667178978790e-05 -9.3462050059260463e-04
589 -2.5971474912480800e-04 -6.2818272729849671e-05 -9.8326307366806650e-04
590 -1.8490410862338796e-04 -1.1207693917717519e-04 -9.9675860961510616e-04
591 -1.4923193722505423e-04 4.1929171764504888e-04 9.1227095323257888e-04
592 -5.1522661965543604e-04 7.8838381111690544e-04 -3.1022532399950118e-04
593 -2.3382326212103243e-04 7.0008243558323110e-07 9.9238032204747675e-04
594 3.6819741365047191e-04 2.2313453036800615e-04 9.2018441294241876e-04
595 -7.9947451674191965e-04 5.5819943939598141e-04 1.6973646623983182e-04
596 4.2101589308374461e-04 -8.7799731041294138e-04 1.8530603090320859e-04
597 9.6974846776465864e-05 4.3981459965140309e-04 9.0968110018668346e-04
598 3.2179975072175429e-04 8.9712110298034112e-04 -2.7111654334378903e-04
599 1.8649481549417934e-04 -6.6677482301377656e-04 7.3116864239134197e-04
600 -5.2465233764189113e-04 -8.0410920216676012e-04 2.4772652282204925e-04
601 -8.3956039390233723e-04 4.0564079872816664e-04 -3.3900583438564524e-04
602 -8.1066616805955101e-04 3.4508544706602127e-04 -4.6281159214998750e-04
603 -7.3581309688182600e-04 -5.3574553202343975e-04 -4.0153007019977030e-04
604 -9.0552545113210803e-04 1.4488716560935469e-04 -3.8122046436524611e-04
605 -4.0504871701486065e-04 -9.0254216514454354e-04 2.1229018787603261e-05
606 -3.1556579435052049e-04 8.4506149957813714e-04 4.1753834649878329e-04
607 4.7992940993458681e-05 1.4530438095972277e-04 1.0085177283466378e-03
608 -4.3504799939390677e-05 7.6997718874047749e-04 6.3942356046576578e-04
609 -7.4567208067800124e-04 -1.7353918742250805e-04 -6.4697822949439125e-04
610 9.4673977411363186e-04 2.5649639389112674e-04 1.3965982010222274e-04
611 4.4237836523112047e-04 -8.5500228408580086e-05 -9.1008295637769361e-04
612 9.1820527293329170e-04 1.2622478379081014e-04 3.5788106642590189e-04
613 -3.7060354878933841e-04 -8.6908725655257340e-04 -3.0414833722017991e-04
614 4.9715528914903419e-05 -7.9126173008363246e-04 -6.1215232405904731e-04
615 4.5990028459661386e-04 -8.7523312132908556e-04 -5.1375847564650207e-05
616 -6.7786200707712426e-04 -6.9472317721974773e-04 -2.0114465478032444e-04
617 -9.2649140704155399e-04 -2.4808489989146503e-04 -2.4898285349814295e-04
618 -6.1814084144846721e-04 4.5035650583089644e-04 -6.4718679195344326e-04
619 1.9005668887958066e-04 -9.4568146828029722e-04 -2.3215075541958537e-04
620 -3.2872187196256495e-05 -9.3497035736117920e-04 3.3404762027577364e-04
621 3.8862634285186418e-04 -7.6147927157670906e-04 -5.1504370506721194e-04
622 -2.3212886099648067e-04 -4.4434707788762934e-04 8.8115206994315788e-04
623 7.9927819206526967e-04 -4.7564991495271681e-04 -3.4968015025432195e-04
624 9.2254371110564741e-04 1.2889529842401498e-04 -3.4466596255640185e-04
625 -4.0323698560227797e-04 6.1093674213032970e-04 6.8638241460206029e-04
626 -2.5473531979262144e-04 -5.6577158236593148e-04 7.9626180584265024e-04
627 -9.5049704464564188e-05 5.3679526455189771e-04 8.5230762121137049e-04
628 4.7179959468172526e-04 8.6781802972196341e-04 4.9345010255774097e-05
629 -9.5243370740635434e-04 5.6996201939074357e-05 2.6805541640477688e-04
630 -5.8852414590447794e-04 7.7765269887019662e-04 1.6635105444689127e-04
631 -8.2945213230821099e-04 -1.9394684585889230e-04 -5.1887334044228069e-04
632 -4.0403291855195045e-04 8.6980653688654107e-04 -2.4724632857014100e-04
633 9.2122394449955201e-04 2.5002161773001255e-04 -2.6827808597392779e-04
634 -3.1897758858383111e-04 8.5633478458089661e-05 9.6282438049151583e-04
635 3.8397829524735737e-04 -9.1066540835132927e-04 6.0747377036288359e-05
636 -6.5861200633770691e-05 -9.6703245992890556e-04 2.0722617023068244e-04
637 -4.7847705642591612e-04 -6.0988803537311504e-05 8.9214789942221773e-04
638 4.3776077948719336e-04 2.4897517517595406e-04 -8.7858795255559051e-04
639 4.4113968603288844e-04 -1.1462461982194803e-04 9.0738704870514653e-04
640 -7.0576418076959184e-05 6.6486578996328668e-04 -7.5253123877575565e-04
641 -9.5013427113148732e-04 2.2367921972211063e-04 -1.6219563179036318e-04
642 -8.7526643615462704e-04 2.7911147750558479e-04 -3.7676434719355952e-04
643 2.8446806518045702e-04 -7.2377646930500835e-04 6.3273769259815805e-04
644 5.6280876057092518e-04 -4.6776137921630785e-04 6.8850614459130212e-04
645 6.0386643233835088e-04 2.2839007351082110e-04 -7.7446849458518135e-04
646 -2.0646544425755066e-04 1.1287313847961283e-04 9.9185073642999236e-04
647 2.7687826406007910e-05 5.4310203693475382e-04 8.5339000525477002e-04
648 -7.4129386044026479e-04 5.8834726460452451e-04 2.9193876358404771e-04
649 -2.6485073725762616e-04 9.4999648416864858e-04 7.0963047648040385e-05
650 9.2616917266316980e-04 -2.3603141253929024e-04 2.6583315604795075e-04
651 -4.6792138122215616e-04 -8.5163233439572027e-04 -1.9599864566325988e-04
652 -8.7104578511231704e-04 -3.4136922679116859e-04 -3.3037925829242868e-04
653 -1.9213909765338055e-04 1.3050257274555130e-04 -9.9244668493695602e-04
654 8.4690013048670807e-04 -4.6638105485522630e-04 -2.1855776462339048e-04
655 -7.2270001275275236e-04 4.1017401410412717e-04 -5.5272509836069893e-04
656 6.6350915312117487e-04 -1.2454741799774731e-04 -7.4760765276285068e-04
657 -7.4726134093973330e-04 -5.3815880722755558e-04 3.7265831559037859e-04
658 -3.5274497599864800e-04 2.7219175882460886e-05 -9.5360260461408700e-04
659 -1.6524101143729957e-04 1.2498955030217592e-05 -1.0070420400583591e-03
660 -4.3446060674983379e-05 -5.0318274780281475e-06 -1.0194515950606869e-03
661 8.4737458140559383e-04 -5.1125429138272778e-04 -4.4993770497416423e-06
662 4.5442360834019974e-05 -2.5807514521474623e-04 9.8552092069397043e-04
663 5.0459230164980637e-04 8.3261981212241092e-04 -1.7690178110633405e-04
664 -2.7534215735669802e-04 9.4833012142161066e-04 -4.6122527734776821e-05
665 -2.9149226635498643e-04 9.2780453332507676e-04 -1.8221130321126655e-04
666 -7.6163661709781555e-05 1.2762485466005002e-04 -1.0099552218642055e-03
667 2.5653561535228389e-04 -8.2735841937619928e-04 -4.9426987539825462e-04
668 -5.6835842853425185e-04 4.3806947579714639e-05 8.3496211456899911e-04
669 -8.2434070034378938e-04 -3.1773402019065673e-04 -4.5844360095913603e-04
670 -4.8676969356587938e-04 8.5582196346042189e-04 9.1295596928186133e-05
671 -9.5534299003735698e-04 1.5825933092792867e-04 2.0214154723464928e-04
672 5.6005249507041816e-04 -3.5951001888813753e-04 7.5581737536777201e-04
673 -1.7621826877718680e-05 2.4784566608028827e-04 -9.8828648240602713e-04
674 -1.9785309288015295e-04 -9.5566003652950923e-04 1.6928122042366255e-04
675 4.1165224079297170e-04 7.3713784761167791e-04 5.3015123485932565e-04
676 7.3405883982648548e-05 7.2819344038229197e-04 6.8722181561101830e-04
677 4.8749834007382739e-04 2.0938057119833207e-04 8.6257049173421498e-04
678 -4.9046327261842904e-04 -7.7922344433705901e-04 3.7352464714350298e-04
679 2.9591491927503417e-04 -7.4031277913295482e-05 -9.7202155453660120e-04
680 3.8983423819251214e-04 -6.6703398695107429e-04 6.3829913784516177e-04
681 -8.7338394562710964e-04 1.5743146389333155e-04 4.4836077990756358e-04
682 -8.9344054857565399e-04 4.2186900833682711e-04 1.6146108667383622e-05
683 -6.6632081383371310e-05 2.1800278097753120e-06 1.0182341707520263e-03
684 3.4309350844448036e-04 -9.2670343596906702e-04 -5.7870888614016930e-05
685 4.0255560171108815e-04 8.8432471160740703e-04 -1.8386616698109231e-04
686 1.6815982841624397e-04 -7.9758736563071580e-04 -5.7794950985792445e-04
687 1.7228176838454020e-04 9.6462082774811443e-04 -1.2955712032756999e-04
688 -8.0597960233860040e-04 -4.2050866543630517e-04 -3.9963530319485309e-04
689 -5.4052111441319644e-04 -6.4895622585594160e-04 5.3041789701074871e-04
690 5.7587301523903873e-04 -6.8831298979201046e-04 4.2963854706541319e-04
691 9.5343227764117452e-04 -2.2560213412253427e-04 1.4368556455928447e-04
692 -6.8948839972249169e-04 -5.2837787414659020e-04 4.8706515978181372e-04
693 9.2651723519250010e-04 2.2237834004294047e-04 2.7184194774068312e-04
694 -1.7251988789214804e-04 9.6660504806904434e-04 -1.1575935557091021e-04
695 9.0134889933021691e-04 3.5446354998938705e-04 -2.0372964589398989e-04
696 -5.0625116121458820e-05 6.5976785220583814e-04 7.6043532795644711e-04
697 -3.3115848133013776e-04 -4.7941861448439214e-04 8.2492464448048861e-04
698 9.2488836938945664e-04 3.5200011387390276e-04 1.3193649985198232e-05
699 -4.8642331532656194e-04 -5.3811726447794471e-04 6.9424994219071648e-04
700 -6.6357553889431807e-04 6.1081510795044644e-06 7.5626806729011157e-04
701 5.6526327658665439e-04 -5.6087434855879635e-04 6.0644921368454576e-04
702 -6.8909613709057678e-04 -6.3602610827477883e-04 -3.2249123628345146e-04
703 -7.6678105423094939e-04 3.0028050476307551e-04 -5.6331197473545212e-04
704 4.8842052461344884e-05 3.4509382342096535e-04 -9.5553939184005155e-04
705 3.0332934971259918e-04 6.2488610708061755e-04 -7.2582030083427195e-04
706 -3.0977873697170911e-04 6.8857972583660657e-04 6.5798862928839459e-04
707 1.1124886049474057e-04 -9.2382804391110220e-04 -3.4586765036275088e-04
708 -6.7161073954123251e-04 7.1761993154385341e-04 1.0074994696729185e-04
709 9.1715290382574945e-06 7.3578993096684087e-04 -6.8077367863988460e-04
710 -4.0208699545009026e-04 7.7485303175441902e-04 4.7737363619769648e-04
711 -9.2247865418202985e-04 2.2115038355691055e-04 -2.8389994346085745e-04
712 7.7035462597861292e-04 1.0402669873942736e-04 6.3175430030899100e-04
713 -2.1426010944200632e-04 -7.5283400185650754e-04 -6.2367355868639266e-04
714 6.3420059915048283e-04 3.4898717842798223e-04 -6.9662293351417594e-04
715 -2.1336447316587151e-04 -9.6411168905641373e-04 5.5508695591098418e-05
716 -2.5224671986157689e-04 4.7144267743911963e-05 -9.8547237317409843e-04
717 -4.0313230022659375e-04 -8.9878135056183084e-04 -8.9628244855513594e-05
718 4.9582340351302741e-04 -2.0430184274872616e-04 8.5861958173890642e-04
719 7.2521231766996134e-04 -5.6466387109565662e-04 3.7772140980075743e-04
720 8.3860598720234588e-04 5.0255688969080739e-04 1.4947341339429762e-04
721 2.4355572345601800e-04 -1.6791478788393780e-04 -9.7400303727370981e-04
722 -5.7023658824957829e-04 -7.7597939318498803e-04 -2.3129984409798860e-04
723 3.4238622891617280e-05 8.6129465484033088e-05 -1.0162460328697917e-03
724 -1.8735613333978492e-04 7.1126542775940135e-04 6.8372670440039419e-04
725 8.7085465642069418e-04 -4.5754785521508754e-04 -1.0526233294210403e-04
726 5.7914754777605858e-04 2.0553369998485950e-04 8.0022211399344344e-04
727 7.8197683228587041e-04 5.6112838633020875e-04 2.3333894363541602e-04
728 5.3959166615958698e-04 5.8997168314088848e-04 -5.9972431952184089e-04
729 4.7241449098018326e-04 9.7505674565885676e-05 -8.9116907186389236e-04
730 7.0690891129940173e-04 6.1828713183365589e-04 3.1716746392755298e-04
731 -2.5645275215279779e-04 -6.1989471338855511e-04 -7.4875630567736769e-04
732 3.4032605648437242e-04 6.2283627249606910e-04 7.1042062115579121e-04
733 -7.1703069501450006e-05 9.6890817194135025e-04 -1.8312801398088881e-04
734 -2.3337664556262591e-04 -4.7664162019035397e-04 -8.6151141518282153e-04
735 9.4990375212909120e-04 -2.3154911794869159e-04 -1.5366088964557830e-04
736 9.6337370563212153e-04 -2.2138611815396961e-04 2.9900328819834905e-05
737 -1.4033047753578992e-05 -5.2424275548207886e-05 1.0193452171651206e-03
738 -4.9867506450203985e-04 -8.5242741797677689e-04 5.0384022392306180e-05
739 4.9120023487582410e-04 2.1227142439686757e-04 -8.5910728569240215e-04
740 -7.6359899165604980e-04 1.3749128108847888e-04 6.3212703985179473e-04
741 -1.4642740940303624e-04 3.0686557519758628e-05 1.0087330159006846e-03
742 -5.5942436016905126e-04 -6.9830925308803896e-04 4.3329890471984866e-04
743 -6.2925896526197933e-06 4.4268997948856872e-04 -9.1249395475848268e-04
744 2.9770818445590188e-04 -9.3019466110863590e-04 -1.6085118420233350e-04
745 -8.9469178598705778e-05 -6.7844364553864634e-04 -7.3594879860852018e-04
$EndNodes
$Elements
1486
1 2 2 0 0 410 440 345
2 2 2 0 0 421 541 409
3 2 2 0 0 409 682 421
4 2 2 0 0 545 603 546
5 2 2 0 0 426 427 294
6 2 2 0 0 294 454 426
7 2 2 0 0 265 682 409
8 2 2 0 0 24 41 4
9 2 2 0 0 3 24 4
10 2 2 0 0 238 642 602
11 2 2 0 0 520 651 613
12 2 2 0 0 653 666 659
13 2 2 0 0 404 460 98
14 2 2 0 0 222 482 219
15 2 2 0 0 40 463 9
16 2 2 0 0 608 724 696
17 2 2 0 0 435 709 69
18 2 2 0 0 413 439 29
19 2 2 0 0 345 710 410
20 2 2 0 0 422 463 40
21 2 2 0 0 98 550 404
22 2 2 0 0 95 724 608
23 2 2 0 0 4 41 5
24 2 2 0 0 232 701 581
25 2 2 0 0 490 698 488
26 2 2 0 0 29 436 413
27 2 2 0 0 416 421 342
28 2 2 0 0 312 595 441
29 2 2 0 0 41 486 5
30 2 2 0 0 405 605 519
31 2 2 0 0 409 595 265
32 2 2 0 0 69 481 435
33 2 2 0 0 434 743 339
34 2 2 0 0 342 641 416
35 2 2 0 0 485 656 370
36 2 2 0 0 89 587 90
37 2 2 0 0 108 466 317
38 2 2 0 0 378 629 529
39 2 2 0 0 581 680 232
40 2 2 0 0 281 434 339
41 2 2 0 0 638 739 486
42 2 2 0 0 659 666 660
43 2 2 0 0 345 440 346
44 2 2 0 0 22 44 25
45 2 2 0 0 9 463 8
46 2 2 0 0 44 81 25
47 2 2 0 0 459 587 89
48 2 2 0 0 127 670 630
49 2 2 0 0 508 662 509
50 2 2 0 0 375 662 508
51 2 2 0 0 492 598 103
52 2 2 0 0 604 642 238
53 2 2 0 0 507 510 399
54 2 2 0 0 488 698 489
55 2 2 0 0 34 473 415
56 2 2 0 0 399 639 507
57 2 2 0 0 603 688 546
58 2 2 0 0 316 541 421
59 2 2 0 0 647 696 627
60 2 2 0 0 403 439 352
61 2 2 0 0 221 603 545
62 2 2 0 0 595 648 441
63 2 2 0 0 412 550 98
64 2 2 0 0 411 714 397
65 2 2 0 0 486 739 729
66 2 2 0 0 696 724 401
67 2 2 0 0 247 482 222
68 2 2 0 0 397 714 645
69 2 2 0 0 613 651 212
70 2 2 0 0 207 745 425
71 2 2 0 0 98 675 412
72 2 2 0 0 219 482 230
73 2 2 0 0 560 692 432
74 2 2 0 0 432 689 560
75 2 2 0 0 454 575 426
76 2 2 0 0 352 439 413
77 2 2 0 0 415 420 2
78 2 2 0 0 40 464 422
79 2 2 0 0 89 512 459
80 2 2 0 0 425 614 207
81 2 2 0 0 377 600 453
82 2 2 0 0 89 90 88
83 2 2 0 0 80 466 108
84 2 2 0 0 520 717 651
85 2 2 0 0 602 703 238
86 2 2 0 0 103 687 492
87 2 2 0 0 253 491 424
88 2 2 0 0 69 709 466
89 2 2 0 0 424 512 253
90 2 2 0 0 369 696 647
91 2 2 0 0 581 701 644
92 2 2 0 0 630 670 392
93 2 2 0 0 32 656 485
94 2 2 0 0 459 512 424
95 2 2 0 0 90 91 88
96 2 2 0 0 427 478 294
97 2 2 0 0 488 695 490
98 2 2 0 0 554 699 560
99 2 2 0 0 67 80 79
100 2 2 0 0 252 454 294
101 2 2 0 0 253 628 491
102 2 2 0 0 529 681 378
103 2 2 0 0 519 715 405
104 2 2 0 0 440 441 346
105 2 2 0 0 605 717 519
106 2 2 0 0 403 452 439
107 2 2 0 0 507 639 21
108 2 2 0 0 565 567 566
109 2 2 0 0 433 454 341
110 2 2 0 0 67 466 80
111 2 2 0 0 555 697 576
112 2 2 0 0 491 628 493
113 2 2 0 0 389 641 342
114 2 2 0 0 429 619 474
115 2 2 0 0 40 501 464
116 2 2 0 0 576 699 555
117 2 2 0 0 311 600 377
118 2 2 0 0 567 622 566
119 2 2 0 0 433 575 454
120 2 2 0 0 378 671 629
121 2 2 0 0 79 540 103
122 2 2 0 0 341 473 433
123 2 2 0 0 673 704 68
124 2 2 0 0 462 710 345
125 2 2 0 0 557 722 616
126 2 2 0 0 573 662 343
127 2 2 0 0 370 656 463
128 2 2 0 0 341 454 252
129 2 2 0 0 616 702 557
130 2 2 0 0 6 26 7
131 2 2 0 0 464 501 467
132 2 2 0 0 433 473 406
133 2 2 0 0 8 45 37
134 2 2 0 0 466 709 317
135 2 2 0 0 457 461 379
136 2 2 0 0 84 512 86
137 2 2 0 0 19 452 33
138 2 2 0 0 380 614 425
139 2 2 0 0 83 540 79
140 2 2 0 0 398 510 509
141 2 2 0 0 609 631 137
142 2 2 0 0 18 442 36
143 2 2 0 0 26 45 7
144 2 2 0 0 565 566 343
145 2 2 0 0 80 83 79
146 2 2 0 0 560 689 554
147 2 2 0 0 134 137 136
148 2 2 0 0 68 469 42
149 2 2 0 0 659 716 653
150 2 2 0 0 619 707 474
151 2 2 0 0 497 610 39
152 2 2 0 0 137 138 136
153 2 2 0 0 283 573 343
154 2 2 0 0 506 644 448
155 2 2 0 0 499 735 31
156 2 2 0 0 81 97 25
157 2 2 0 0 45 46 37
158 2 2 0 0 585 668 637
159 2 2 0 0 495 735 499
160 2 2 0 0 399 510 398
161 2 2 0 0 509 573 398
162 2 2 0 0 442 443 36
163 2 2 0 0 1 607 314
164 2 2 0 0 29 612 436
165 2 2 0 0 547 631 609
166 2 2 0 0 360 595 409
167 2 2 0 0 421 682 342
168 2 2 0 0 426 575 327
169 2 2 0 0 123 577 235
170 2 2 0 0 339 743 417
171 2 2 0 0 7 45 8
172 2 2 0 0 3 723 24
173 2 2 0 0 418 666 653
174 2 2 0 0 59 60 58
175 2 2 0 0 620 636 193
176 2 2 0 0 42 469 47
177 2 2 0 0 65 67 66
178 2 2 0 0 509 662 573
179 2 2 0 0 470 482 247
180 2 2 0 0 368 476 472
181 2 2 0 0 530 740 337
182 2 2 0 0 253 512 84
183 2 2 0 0 455 698 282
184 2 2 0 0 61 65 62
185 2 2 0 0 59 61 60
186 2 2 0 0 91 472 88
187 2 2 0 0 90 92 91
188 2 2 0 0 19 442 18
189 2 2 0 0 464 465 423
190 2 2 0 0 706 724 118
191 2 2 0 0 456 611 32
192 2 2 0 0 379 477 61
193 2 2 0 0 417 743 704
194 2 2 0 0 314 683 1
195 2 2 0 0 442 458 443
196 2 2 0 0 11 28 12
197 2 2 0 0 61 62 60
198 2 2 0 0 118 724 95
199 2 2 0 0 22 25 23
200 2 2 0 0 247 483 470
201 2 2 0 0 281 640 434
202 2 2 0 0 197 667 474
203 2 2 0 0 86 512 89
204 2 2 0 0 417 704 673
205 2 2 0 0 451 690 230
206 2 2 0 0 27 442 19
207 2 2 0 0 637 668 229
208 2 2 0 0 60 475 58
209 2 2 0 0 489 610 497
210 2 2 0 0 307 573 283
211 2 2 0 0 61 477 65
212 2 2 0 0 65 66 62
213 2 2 0 0 544 740 530
214 2 2 0 0 230 719 451
215 2 2 0 0 18 452 19
216 2 2 0 0 268 569 269
217 2 2 0 0 32 485 456
218 2 2 0 0 627 696 401
219 2 2 0 0 24 42 41
220 2 2 0 0 20 27 19
221 2 2 0 0 330 461 457
222 2 2 0 0 506 672 644
223 2 2 0 0 472 476 87
224 2 2 0 0 468 495 494
225 2 2 0 0 88 472 87
226 2 2 0 0 121 577 123
227 2 2 0 0 327 575 276
228 2 2 0 0 422 464 423
229 2 2 0 0 47 63 49
230 2 2 0 0 458 506 443
231 2 2 0 0 232 690 451
232 2 2 0 0 28 487 12
233 2 2 0 0 80 107 83
234 2 2 0 0 608 696 676
235 2 2 0 0 356 481 355
236 2 2 0 0 138 238 136
237 2 2 0 0 137 139 138
238 2 2 0 0 729 739 26
239 2 2 0 0 81 99 97
240 2 2 0 0 46 50 37
241 2 2 0 0 463 656 8
242 2 2 0 0 443 444 36
243 2 2 0 0 68 704 469
244 2 2 0 0 24 68 42
245 2 2 0 0 16 503 30
246 2 2 0 0 65 69 67
247 2 2 0 0 67 79 66
248 2 2 0 0 676 696 369
249 2 2 0 0 59 379 61
250 2 2 0 0 90 93 92
251 2 2 0 0 464 467 465
252 2 2 0 0 441 708 312
253 2 2 0 0 483 484 471
254 2 2 0 0 427 479 478
255 2 2 0 0 245 564 244
256 2 2 0 0 470 483 471
257 2 2 0 0 473 721 406
258 2 2 0 0 555 699 554
259 2 2 0 0 47 469 63
260 2 2 0 0 63 355 49
261 2 2 0 0 62 64 60
262 2 2 0 0 80 108 107
263 2 2 0 0 107 539 83
264 2 2 0 0 139 140 138
265 2 2 0 0 99 100 97
266 2 2 0 0 81 236 99
267 2 2 0 0 46 51 50
268 2 2 0 0 443 445 444
269 2 2 0 0 24 419 68
270 2 2 0 0 69 466 67
271 2 2 0 0 79 103 66
272 2 2 0 0 65 477 69
273 2 2 0 0 547 548 321
274 2 2 0 0 93 94 92
275 2 2 0 0 467 468 465
276 2 2 0 0 333 664 649
277 2 2 0 0 55 498 56
278 2 2 0 0 56 498 72
279 2 2 0 0 12 499 31
280 2 2 0 0 63 356 355
281 2 2 0 0 108 110 107
282 2 2 0 0 139 141 140
283 2 2 0 0 100 101 97
284 2 2 0 0 236 248 99
285 2 2 0 0 81 594 236
286 2 2 0 0 51 52 50
287 2 2 0 0 192 515 195
288 2 2 0 0 445 446 444
289 2 2 0 0 477 481 69
290 2 2 0 0 94 95 92
291 2 2 0 0 93 96 94
292 2 2 0 0 63 408 356
293 2 2 0 0 108 111 110
294 2 2 0 0 110 117 107
295 2 2 0 0 139 154 141
296 2 2 0 0 141 142 140
297 2 2 0 0 51 53 52
298 2 2 0 0 100 102 101
299 2 2 0 0 236 250 248
300 2 2 0 0 445 447 446
301 2 2 0 0 52 388 50
302 2 2 0 0 277 622 567
303 2 2 0 0 95 608 92
304 2 2 0 0 94 118 95
305 2 2 0 0 93 104 96
306 2 2 0 0 51 561 53
307 2 2 0 0 408 434 356
308 2 2 0 0 53 54 52
309 2 2 0 0 445 448 447
310 2 2 0 0 108 317 111
311 2 2 0 0 141 143 142
312 2 2 0 0 142 225 140
313 2 2 0 0 102 166 101
314 2 2 0 0 250 325 248
315 2 2 0 0 100 258 102
316 2 2 0 0 53 55 54
317 2 2 0 0 447 449 446
318 2 2 0 0 236 505 250
319 2 2 0 0 104 105 96
320 2 2 0 0 53 57 55
321 2 2 0 0 55 56 54
322 2 2 0 0 448 451 447
323 2 2 0 0 14 39 15
324 2 2 0 0 317 511 111
325 2 2 0 0 10 40 9
326 2 2 0 0 143 144 142
327 2 2 0 0 57 58 55
328 2 2 0 0 8 37 9
329 2 2 0 0 14 38 13
330 2 2 0 0 166 314 101
331 2 2 0 0 18 36 17
332 2 2 0 0 16 29 17
333 2 2 0 0 33 504 20
334 2 2 0 0 325 365 248
335 2 2 0 0 199 202 196
336 2 2 0 0 7 32 6
337 2 2 0 0 434 435 356
338 2 2 0 0 74 75 73
339 2 2 0 0 223 239 234
340 2 2 0 0 74 76 75
341 2 2 0 0 72 74 73
342 2 2 0 0 231 549 201
343 2 2 0 0 202 205 204
344 2 2 0 0 226 227 214
345 2 2 0 0 272 275 271
346 2 2 0 0 276 318 275
347 2 2 0 0 213 214 209
348 2 2 0 0 76 77 75
349 2 2 0 0 210 231 201
350 2 2 0 0 16 30 15
351 2 2 0 0 205 209 208
352 2 2 0 0 202 204 196
353 2 2 0 0 318 406 340
354 2 2 0 0 195 196 193
355 2 2 0 0 322 420 415
356 2 2 0 0 239 240 234
357 2 2 0 0 163 588 168
358 2 2 0 0 12 31 11
359 2 2 0 0 56 72 71
360 2 2 0 0 425 426 327
361 2 2 0 0 19 33 20
362 2 2 0 0 168 224 215
363 2 2 0 0 209 568 216
364 2 2 0 0 318 433 406
365 2 2 0 0 269 271 270
366 2 2 0 0 268 269 245
367 2 2 0 0 21 639 20
368 2 2 0 0 84 85 82
369 2 2 0 0 181 207 183
370 2 2 0 0 269 272 271
371 2 2 0 0 272 276 275
372 2 2 0 0 242 243 240
373 2 2 0 0 102 167 166
374 2 2 0 0 223 234 233
375 2 2 0 0 283 343 227
376 2 2 0 0 205 208 204
377 2 2 0 0 213 226 214
378 2 2 0 0 271 572 347
379 2 2 0 0 243 268 245
380 2 2 0 0 335 398 307
381 2 2 0 0 303 555 554
382 2 2 0 0 226 283 227
383 2 2 0 0 347 485 370
384 2 2 0 0 195 199 196
385 2 2 0 0 205 213 209
386 2 2 0 0 246 322 252
387 2 2 0 0 76 78 77
388 2 2 0 0 133 163 135
389 2 2 0 0 163 168 164
390 2 2 0 0 322 415 341
391 2 2 0 0 227 361 214
392 2 2 0 0 191 198 189
393 2 2 0 0 78 84 82
394 2 2 0 0 209 216 208
395 2 2 0 0 78 82 77
396 2 2 0 0 216 303 266
397 2 2 0 0 417 418 362
398 2 2 0 0 314 607 101
399 2 2 0 0 339 362 280
400 2 2 0 0 243 245 244
401 2 2 0 0 187 291 185
402 2 2 0 0 429 430 359
403 2 2 0 0 143 145 144
404 2 2 0 0 202 553 205
405 2 2 0 0 339 417 362
406 2 2 0 0 131 580 133
407 2 2 0 0 239 242 240
408 2 2 0 0 57 59 58
409 2 2 0 0 224 246 215
410 2 2 0 0 84 86 85
411 2 2 0 0 303 554 266
412 2 2 0 0 72 73 71
413 2 2 0 0 437 438 414
414 2 2 0 0 318 340 275
415 2 2 0 0 269 270 245
416 2 2 0 0 86 87 85
417 2 2 0 0 192 193 191
418 2 2 0 0 123 235 129
419 2 2 0 0 263 374 262
420 2 2 0 0 425 427 426
421 2 2 0 0 149 150 147
422 2 2 0 0 210 232 231
423 2 2 0 0 74 373 76
424 2 2 0 0 168 215 169
425 2 2 0 0 259 262 249
426 2 2 0 0 145 146 144
427 2 2 0 0 367 524 289
428 2 2 0 0 271 347 270
429 2 2 0 0 406 407 340
430 2 2 0 0 334 459 424
431 2 2 0 0 429 474 430
432 2 2 0 0 250 328 325
433 2 2 0 0 431 432 367
434 2 2 0 0 104 278 105
435 2 2 0 0 145 147 146
436 2 2 0 0 151 152 150
437 2 2 0 0 235 583 129
438 2 2 0 0 237 249 228
439 2 2 0 0 149 151 150
440 2 2 0 0 159 161 158
441 2 2 0 0 153 155 152
442 2 2 0 0 156 158 155
443 2 2 0 0 354 367 289
444 2 2 0 0 259 263 262
445 2 2 0 0 190 191 189
446 2 2 0 0 177 221 174
447 2 2 0 0 162 228 161
448 2 2 0 0 124 516 386
449 2 2 0 0 418 653 578
450 2 2 0 0 371 584 295
451 2 2 0 0 151 153 152
452 2 2 0 0 153 156 155
453 2 2 0 0 159 162 161
454 2 2 0 0 374 593 262
455 2 2 0 0 156 159 158
456 2 2 0 0 237 259 249
457 2 2 0 0 146 284 160
458 2 2 0 0 266 309 267
459 2 2 0 0 264 265 257
460 2 2 0 0 86 88 87
461 2 2 0 0 265 312 257
462 2 2 0 0 162 237 228
463 2 2 0 0 21 44 22
464 2 2 0 0 324 392 390
465 2 2 0 0 371 585 584
466 2 2 0 0 262 366 249
467 2 2 0 0 192 195 193
468 2 2 0 0 263 375 374
469 2 2 0 0 216 266 217
470 2 2 0 0 326 327 276
471 2 2 0 0 260 646 166
472 2 2 0 0 220 223 222
473 2 2 0 0 322 341 252
474 2 2 0 0 256 257 255
475 2 2 0 0 78 253 84
476 2 2 0 0 358 359 242
477 2 2 0 0 188 189 187
478 2 2 0 0 281 339 280
479 2 2 0 0 146 160 144
480 2 2 0 0 123 129 128
481 2 2 0 0 255 324 254
482 2 2 0 0 228 229 161
483 2 2 0 0 354 431 367
484 2 2 0 0 163 164 135
485 2 2 0 0 155 157 152
486 2 2 0 0 243 244 240
487 2 2 0 0 256 264 257
488 2 2 0 0 284 316 160
489 2 2 0 0 380 425 327
490 2 2 0 0 148 149 147
491 2 2 0 0 335 399 398
492 2 2 0 0 418 578 362
493 2 2 0 0 334 424 396
494 2 2 0 0 167 260 166
495 2 2 0 0 325 368 365
496 2 2 0 0 428 429 359
497 2 2 0 0 165 255 254
498 2 2 0 0 297 342 264
499 2 2 0 0 298 371 295
500 2 2 0 0 218 323 220
501 2 2 0 0 310 337 302
502 2 2 0 0 165 256 255
503 2 2 0 0 186 187 185
504 2 2 0 0 56 71 70
505 2 2 0 0 165 254 125
506 2 2 0 0 200 201 199
507 2 2 0 0 148 206 149
508 2 2 0 0 324 390 364
509 2 2 0 0 190 192 191
510 2 2 0 0 368 369 365
511 2 2 0 0 353 404 351
512 2 2 0 0 104 331 278
513 2 2 0 0 256 297 264
514 2 2 0 0 316 421 416
515 2 2 0 0 239 358 242
516 2 2 0 0 169 586 171
517 2 2 0 0 286 287 206
518 2 2 0 0 324 364 254
519 2 2 0 0 241 576 162
520 2 2 0 0 168 169 164
521 2 2 0 0 121 123 122
522 2 2 0 0 266 267 217
523 2 2 0 0 129 131 130
524 2 2 0 0 216 217 208
525 2 2 0 0 285 382 313
526 2 2 0 0 172 321 170
527 2 2 0 0 390 391 364
528 2 2 0 0 296 563 300
529 2 2 0 0 246 252 251
530 2 2 0 0 285 286 206
531 2 2 0 0 288 289 287
532 2 2 0 0 298 372 371
533 2 2 0 0 23 35 22
534 2 2 0 0 300 344 304
535 2 2 0 0 344 462 345
536 2 2 0 0 123 128 122
537 2 2 0 0 297 389 342
538 2 2 0 0 237 277 259
539 2 2 0 0 148 285 206
540 2 2 0 0 86 89 88
541 2 2 0 0 306 307 283
542 2 2 0 0 234 279 233
543 2 2 0 0 316 416 160
544 2 2 0 0 188 190 189
545 2 2 0 0 85 98 82
546 2 2 0 0 358 428 359
547 2 2 0 0 437 455 438
548 2 2 0 0 203 210 201
549 2 2 0 0 382 383 313
550 2 2 0 0 153 176 156
551 2 2 0 0 290 354 289
552 2 2 0 0 159 241 162
553 2 2 0 0 386 387 126
554 2 2 0 0 273 363 338
555 2 2 0 0 272 326 276
556 2 2 0 0 171 293 173
557 2 2 0 0 145 148 147
558 2 2 0 0 274 295 261
559 2 2 0 0 285 313 286
560 2 2 0 0 383 384 313
561 2 2 0 0 301 302 299
562 2 2 0 0 131 133 132
563 2 2 0 0 296 298 295
564 2 2 0 0 305 310 302
565 2 2 0 0 349 412 328
566 2 2 0 0 344 345 304
567 2 2 0 0 77 119 75
568 2 2 0 0 315 378 310
569 2 2 0 0 363 401 400
570 2 2 0 0 332 333 278
571 2 2 0 0 223 233 222
572 2 2 0 0 331 334 332
573 2 2 0 0 186 188 187
574 2 2 0 0 178 212 177
575 2 2 0 0 305 360 315
576 2 2 0 0 334 396 395
577 2 2 0 0 246 251 215
578 2 2 0 0 167 261 260
579 2 2 0 0 175 179 178
580 2 2 0 0 345 346 304
581 2 2 0 0 124 386 126
582 2 2 0 0 286 288 287
583 2 2 0 0 331 332 278
584 2 2 0 0 179 181 180
585 2 2 0 0 301 305 302
586 2 2 0 0 300 304 301
587 2 2 0 0 296 300 299
588 2 2 0 0 305 315 310
589 2 2 0 0 296 299 298
590 2 2 0 0 320 453 290
591 2 2 0 0 274 296 295
592 2 2 0 0 313 531 286
593 2 2 0 0 120 281 280
594 2 2 0 0 360 409 315
595 2 2 0 0 363 400 338
596 2 2 0 0 129 130 128
597 2 2 0 0 300 301 299
598 2 2 0 0 1 508 23
599 2 2 0 0 167 273 261
600 2 2 0 0 133 135 134
601 2 2 0 0 173 174 172
602 2 2 0 0 311 377 376
603 2 2 0 0 273 274 261
604 2 2 0 0 273 338 274
605 2 2 0 0 334 395 332
606 2 2 0 0 183 197 184
607 2 2 0 0 319 393 320
608 2 2 0 0 449 450 446
609 2 2 0 0 288 290 289
610 2 2 0 0 226 306 283
611 2 2 0 0 326 380 327
612 2 2 0 0 175 177 174
613 2 2 0 0 181 183 182
614 2 2 0 0 219 230 211
615 2 2 0 0 308 335 307
616 2 2 0 0 267 311 292
617 2 2 0 0 169 170 164
618 2 2 0 0 288 319 290
619 2 2 0 0 126 165 125
620 2 2 0 0 120 280 121
621 2 2 0 0 130 357 128
622 2 2 0 0 195 200 199
623 2 2 0 0 169 171 170
624 2 2 0 0 171 172 170
625 2 2 0 0 184 186 185
626 2 2 0 0 73 282 71
627 2 2 0 0 252 294 251
628 2 2 0 0 319 320 290
629 2 2 0 0 131 132 130
630 2 2 0 0 393 394 320
631 2 2 0 0 171 173 172
632 2 2 0 0 4 34 3
633 2 2 0 0 218 220 219
634 2 2 0 0 267 292 217
635 2 2 0 0 184 185 182
636 2 2 0 0 188 194 190
637 2 2 0 0 56 70 54
638 2 2 0 0 377 405 376
639 2 2 0 0 449 470 450
640 2 2 0 0 179 180 178
641 2 2 0 0 173 175 174
642 2 2 0 0 175 178 177
643 2 2 0 0 250 329 328
644 2 2 0 0 311 376 292
645 2 2 0 0 329 571 350
646 2 2 0 0 347 370 348
647 2 2 0 0 220 222 219
648 2 2 0 0 376 385 292
649 2 2 0 0 133 134 132
650 2 2 0 0 134 136 132
651 2 2 0 0 306 308 307
652 2 2 0 0 200 203 201
653 2 2 0 0 233 247 222
654 2 2 0 0 98 460 82
655 2 2 0 0 329 349 328
656 2 2 0 0 326 381 380
657 2 2 0 0 347 348 270
658 2 2 0 0 181 182 180
659 2 2 0 0 121 122 115
660 2 2 0 0 350 351 349
661 2 2 0 0 308 336 335
662 2 2 0 0 350 403 352
663 2 2 0 0 470 471 450
664 2 2 0 0 203 211 210
665 2 2 0 0 218 219 211
666 2 2 0 0 183 184 182
667 2 2 0 0 370 463 422
668 2 2 0 0 306 402 308
669 2 2 0 0 203 218 211
670 2 2 0 0 71 490 70
671 2 2 0 0 329 350 349
672 2 2 0 0 436 437 414
673 2 2 0 0 124 126 125
674 2 2 0 0 413 414 353
675 2 2 0 0 422 423 348
676 2 2 0 0 352 353 351
677 2 2 0 0 370 422 348
678 2 2 0 0 350 352 351
679 2 2 0 0 413 436 414
680 2 2 0 0 352 413 353
681 2 2 0 0 120 121 115
682 2 2 0 0 110 480 117
683 2 2 0 0 124 125 116
684 2 2 0 0 126 521 165
685 2 2 0 0 113 120 115
686 2 2 0 0 127 440 410
687 2 2 0 0 114 124 116
688 2 2 0 0 543 544 530
689 2 2 0 0 488 489 487
690 2 2 0 0 585 637 366
691 2 2 0 0 543 570 544
692 2 2 0 0 113 115 114
693 2 2 0 0 127 410 106
694 2 2 0 0 114 116 112
695 2 2 0 0 195 515 200
696 2 2 0 0 491 493 492
697 2 2 0 0 12 487 13
698 2 2 0 0 546 547 321
699 2 2 0 0 330 457 411
700 2 2 0 0 157 543 530
701 2 2 0 0 519 520 291
702 2 2 0 0 28 488 487
703 2 2 0 0 111 112 110
704 2 2 0 0 312 534 257
705 2 2 0 0 476 732 412
706 2 2 0 0 27 458 442
707 2 2 0 0 385 636 620
708 2 2 0 0 176 559 156
709 2 2 0 0 593 634 366
710 2 2 0 0 589 590 224
711 2 2 0 0 113 114 112
712 2 2 0 0 109 127 106
713 2 2 0 0 270 564 245
714 2 2 0 0 443 506 445
715 2 2 0 0 491 492 396
716 2 2 0 0 388 624 502
717 2 2 0 0 445 506 448
718 2 2 0 0 30 500 15
719 2 2 0 0 20 504 21
720 2 2 0 0 64 475 60
721 2 2 0 0 287 542 206
722 2 2 0 0 23 508 35
723 2 2 0 0 302 558 299
724 2 2 0 0 70 551 54
725 2 2 0 0 62 598 64
726 2 2 0 0 424 491 396
727 2 2 0 0 407 456 340
728 2 2 0 0 545 546 321
729 2 2 0 0 330 411 397
730 2 2 0 0 72 536 74
731 2 2 0 0 238 574 136
732 2 2 0 0 659 660 420
733 2 2 0 0 395 538 332
734 2 2 0 0 143 527 145
735 2 2 0 0 412 675 476
736 2 2 0 0 239 513 358
737 2 2 0 0 157 530 529
738 2 2 0 0 518 519 291
739 2 2 0 0 449 482 470
740 2 2 0 0 207 713 479
741 2 2 0 0 119 523 75
742 2 2 0 0 109 670 127
743 2 2 0 0 10 501 40
744 2 2 0 0 508 509 35
745 2 2 0 0 96 606 94
746 2 2 0 0 331 459 334
747 2 2 0 0 286 531 288
748 2 2 0 0 290 453 354
749 2 2 0 0 282 490 71
750 2 2 0 0 384 531 313
751 2 2 0 0 289 524 287
752 2 2 0 0 349 550 412
753 2 2 0 0 165 521 256
754 2 2 0 0 82 460 77
755 2 2 0 0 155 543 157
756 2 2 0 0 201 549 199
757 2 2 0 0 273 591 363
758 2 2 0 0 387 521 126
759 2 2 0 0 114 516 124
760 2 2 0 0 53 561 57
761 2 2 0 0 266 554 309
762 2 2 0 0 257 534 255
763 2 2 0 0 205 553 213
764 2 2 0 0 142 522 225
765 2 2 0 0 435 481 356
766 2 2 0 0 216 568 303
767 2 2 0 0 300 563 344
768 2 2 0 0 214 568 209
769 2 2 0 0 112 480 110
770 2 2 0 0 350 571 403
771 2 2 0 0 347 572 485
772 2 2 0 0 275 572 271
773 2 2 0 0 274 563 296
774 2 2 0 0 171 586 293
775 2 2 0 0 162 576 237
776 2 2 0 0 133 580 163
777 2 2 0 0 11 501 10
778 2 2 0 0 295 584 261
779 2 2 0 0 129 583 131
780 2 2 0 0 215 586 169
781 2 2 0 0 250 505 329
782 2 2 0 0 168 588 224
783 2 2 0 0 321 548 170
784 2 2 0 0 262 593 366
785 2 2 0 0 166 646 314
786 2 2 0 0 520 535 291
787 2 2 0 0 373 663 493
788 2 2 0 0 291 535 185
789 2 2 0 0 101 607 97
790 2 2 0 0 130 574 357
791 2 2 0 0 158 570 543
792 2 2 0 0 31 501 11
793 2 2 0 0 444 552 503
794 2 2 0 0 156 559 159
795 2 2 0 0 236 594 505
796 2 2 0 0 206 542 149
797 2 2 0 0 54 551 52
798 2 2 0 0 74 536 373
799 2 2 0 0 337 558 302
800 2 2 0 0 150 532 147
801 2 2 0 0 379 728 457
802 2 2 0 0 299 558 298
803 2 2 0 0 332 538 333
804 2 2 0 0 145 527 148
805 2 2 0 0 514 515 192
806 2 2 0 0 15 500 14
807 2 2 0 0 75 523 73
808 2 2 0 0 467 501 31
809 2 2 0 0 254 592 125
810 2 2 0 0 172 545 321
811 2 2 0 0 144 522 142
812 2 2 0 0 528 532 150
813 2 2 0 0 187 518 291
814 2 2 0 0 553 599 213
815 2 2 0 0 383 603 384
816 2 2 0 0 282 698 490
817 2 2 0 0 244 517 240
818 2 2 0 0 353 525 404
819 2 2 0 0 395 540 538
820 2 2 0 0 94 606 118
821 2 2 0 0 117 539 107
822 2 2 0 0 185 535 182
823 2 2 0 0 388 502 50
824 2 2 0 0 167 591 273
825 2 2 0 0 147 532 146
826 2 2 0 0 92 608 91
827 2 2 0 0 472 676 368
828 2 2 0 0 364 592 254
829 2 2 0 0 21 504 44
830 2 2 0 0 365 597 248
831 2 2 0 0 125 592 116
832 2 2 0 0 588 589 224
833 2 2 0 0 111 113 112
834 2 2 0 0 63 469 408
835 2 2 0 0 105 109 106
836 2 2 0 0 242 526 243
837 2 2 0 0 439 712 29
838 2 2 0 0 240 517 234
839 2 2 0 0 346 533 304
840 2 2 0 0 14 500 38
841 2 2 0 0 494 495 484
842 2 2 0 0 127 630 440
843 2 2 0 0 208 537 204
844 2 2 0 0 175 562 179
845 2 2 0 0 303 626 555
846 2 2 0 0 359 526 242
847 2 2 0 0 243 526 268
848 2 2 0 0 217 537 208
849 2 2 0 0 58 498 55
850 2 2 0 0 503 552 30
851 2 2 0 0 13 499 12
852 2 2 0 0 268 621 569
853 2 2 0 0 489 497 487
854 2 2 0 0 475 498 58
855 2 2 0 0 430 526 359
856 2 2 0 0 248 597 99
857 2 2 0 0 292 537 217
858 2 2 0 0 26 645 45
859 2 2 0 0 234 517 279
860 2 2 0 0 14 497 39
861 2 2 0 0 385 537 292
862 2 2 0 0 305 533 360
863 2 2 0 0 304 533 301
864 2 2 0 0 146 532 284
865 2 2 0 0 483 494 484
866 2 2 0 0 173 562 175
867 2 2 0 0 116 480 112
868 2 2 0 0 224 590 246
869 2 2 0 0 189 518 187
870 2 2 0 0 498 536 72
871 2 2 0 0 414 525 353
872 2 2 0 0 160 522 144
873 2 2 0 0 547 609 548
874 2 2 0 0 182 535 180
875 2 2 0 0 297 601 389
876 2 2 0 0 44 594 81
877 2 2 0 0 301 533 305
878 2 2 0 0 105 106 96
879 2 2 0 0 515 596 200
880 2 2 0 0 293 562 173
881 2 2 0 0 73 523 282
882 2 2 0 0 148 527 285
883 2 2 0 0 174 545 172
884 2 2 0 0 218 596 323
885 2 2 0 0 200 596 203
886 2 2 0 0 149 542 151
887 2 2 0 0 446 552 444
888 2 2 0 0 49 461 330
889 2 2 0 0 330 397 48
890 2 2 0 0 453 738 377
891 2 2 0 0 255 534 324
892 2 2 0 0 52 551 388
893 2 2 0 0 634 646 260
894 2 2 0 0 513 615 358
895 2 2 0 0 438 525 414
896 2 2 0 0 516 618 386
897 2 2 0 0 198 518 189
898 2 2 0 0 227 566 361
899 2 2 0 0 559 560 241
900 2 2 0 0 90 587 93
901 2 2 0 0 416 522 160
902 2 2 0 0 102 591 167
903 2 2 0 0 134 609 137
904 2 2 0 0 298 558 372
905 2 2 0 0 132 574 130
906 2 2 0 0 106 606 96
907 2 2 0 0 159 559 241
908 2 2 0 0 32 611 6
909 2 2 0 0 158 543 155
910 2 2 0 0 223 513 239
911 2 2 0 0 288 531 319
912 2 2 0 0 323 513 220
913 2 2 0 0 115 516 114
914 2 2 0 0 521 601 297
915 2 2 0 0 610 698 455
916 2 2 0 0 354 600 431
917 2 2 0 0 351 550 349
918 2 2 0 0 256 521 297
919 2 2 0 0 140 604 138
920 2 2 0 0 77 460 119
921 2 2 0 0 17 503 16
922 2 2 0 0 9 502 10
923 2 2 0 0 104 587 331
924 2 2 0 0 152 528 150
925 2 2 0 0 315 541 378
926 2 2 0 0 170 548 164
927 2 2 0 0 590 659 420
928 2 2 0 0 11 624 28
929 2 2 0 0 199 549 202
930 2 2 0 0 502 624 10
931 2 2 0 0 453 600 354
932 2 2 0 0 42 43 41
933 2 2 0 0 38 499 13
934 2 2 0 0 285 527 382
935 2 2 0 0 190 514 192
936 2 2 0 0 157 529 528
937 2 2 0 0 231 643 549
938 2 2 0 0 331 587 459
939 2 2 0 0 451 701 232
940 2 2 0 0 99 597 100
941 2 2 0 0 361 568 214
942 2 2 0 0 372 740 544
943 2 2 0 0 221 545 174
944 2 2 0 0 138 604 238
945 2 2 0 0 340 572 275
946 2 2 0 0 338 563 274
947 2 2 0 0 524 542 287
948 2 2 0 0 265 595 312
949 2 2 0 0 111 511 113
950 2 2 0 0 580 658 588
951 2 2 0 0 580 588 163
952 2 2 0 0 237 576 277
953 2 2 0 0 444 503 36
954 2 2 0 0 131 583 580
955 2 2 0 0 505 571 329
956 2 2 0 0 203 596 218
957 2 2 0 0 584 634 260
958 2 2 0 0 261 584 260
959 2 2 0 0 369 647 365
960 2 2 0 0 251 586 215
961 2 2 0 0 348 564 270
962 2 2 0 0 450 552 446
963 2 2 0 0 390 496 391
964 2 2 0 0 66 598 62
965 2 2 0 0 465 623 423
966 2 2 0 0 258 591 102
967 2 2 0 0 343 566 227
968 2 2 0 0 564 623 244
969 2 2 0 0 154 617 141
970 2 2 0 0 324 534 392
971 2 2 0 0 50 502 37
972 2 2 0 0 524 556 542
973 2 2 0 0 544 700 372
974 2 2 0 0 122 516 115
975 2 2 0 0 177 557 221
976 2 2 0 0 489 698 610
977 2 2 0 0 93 587 104
978 2 2 0 0 136 574 132
979 2 2 0 0 593 646 634
980 2 2 0 0 116 592 480
981 2 2 0 0 143 617 527
982 2 2 0 0 225 604 140
983 2 2 0 0 137 631 139
984 2 2 0 0 549 553 202
985 2 2 0 0 164 548 135
986 2 2 0 0 404 550 351
987 2 2 0 0 34 721 473
988 2 2 0 0 220 513 223
989 2 2 0 0 317 640 511
990 2 2 0 0 100 597 258
991 2 2 0 0 588 658 589
992 2 2 0 0 323 615 513
993 2 2 0 0 568 626 303
994 2 2 0 0 377 605 405
995 2 2 0 0 178 613 212
996 2 2 0 0 493 628 373
997 2 2 0 0 157 528 152
998 2 2 0 0 591 627 363
999 2 2 0 0 409 541 315
1000 2 2 0 0 183 614 197
1001 2 2 0 0 103 598 66
1002 2 2 0 0 188 619 194
1003 2 2 0 0 213 599 226
1004 2 2 0 0 306 599 402
1005 2 2 0 0 97 607 25
1006 2 2 0 0 194 514 190
1007 2 2 0 0 373 628 76
1008 2 2 0 0 78 628 253
1009 2 2 0 0 42 47 43
1010 2 2 0 0 39 612 15
1011 2 2 0 0 16 612 29
1012 2 2 0 0 437 610 455
1013 2 2 0 0 487 497 13
1014 2 2 0 0 440 630 441
1015 2 2 0 0 479 713 562
1016 2 2 0 0 196 620 193
1017 2 2 0 0 456 572 340
1018 2 2 0 0 120 511 281
1019 2 2 0 0 577 578 235
1020 2 2 0 0 335 582 399
1021 2 2 0 0 314 741 683
1022 2 2 0 0 520 613 535
1023 2 2 0 0 585 634 584
1024 2 2 0 0 423 564 348
1025 2 2 0 0 457 561 411
1026 2 2 0 0 6 611 5
1027 2 2 0 0 385 620 537
1028 2 2 0 0 228 637 229
1029 2 2 0 0 366 637 249
1030 2 2 0 0 161 570 158
1031 2 2 0 0 434 640 435
1032 2 2 0 0 193 636 191
1033 2 2 0 0 410 606 106
1034 2 2 0 0 37 502 9
1035 2 2 0 0 36 503 17
1036 2 2 0 0 141 617 143
1037 2 2 0 0 363 627 401
1038 2 2 0 0 322 590 420
1039 2 2 0 0 357 618 128
1040 2 2 0 0 430 621 526
1041 2 2 0 0 540 687 103
1042 2 2 0 0 280 577 121
1043 2 2 0 0 276 575 318
1044 2 2 0 0 362 578 577
1045 2 2 0 0 109 649 496
1046 2 2 0 0 246 590 322
1047 2 2 0 0 326 569 381
1048 2 2 0 0 569 621 381
1049 2 2 0 0 269 569 272
1050 2 2 0 0 139 631 154
1051 2 2 0 0 649 664 496
1052 2 2 0 0 537 620 204
1053 2 2 0 0 355 461 49
1054 2 2 0 0 663 685 493
1055 2 2 0 0 479 745 207
1056 2 2 0 0 343 662 565
1057 2 2 0 0 212 557 177
1058 2 2 0 0 45 645 46
1059 2 2 0 0 496 670 109
1060 2 2 0 0 366 634 585
1061 2 2 0 0 384 616 531
1062 2 2 0 0 535 613 180
1063 2 2 0 0 391 632 364
1064 2 2 0 0 308 581 336
1065 2 2 0 0 344 625 462
1066 2 2 0 0 563 625 344
1067 2 2 0 0 13 497 14
1068 2 2 0 0 480 632 117
1069 2 2 0 0 371 668 585
1070 2 2 0 0 333 649 278
1071 2 2 0 0 387 601 521
1072 2 2 0 0 47 49 48
1073 2 2 0 0 358 615 428
1074 2 2 0 0 113 511 120
1075 2 2 0 0 527 617 382
1076 2 2 0 0 105 649 109
1077 2 2 0 0 398 573 307
1078 2 2 0 0 368 676 369
1079 2 2 0 0 180 613 178
1080 2 2 0 0 153 556 176
1081 2 2 0 0 432 657 367
1082 2 2 0 0 458 718 582
1083 2 2 0 0 207 614 183
1084 2 2 0 0 407 611 456
1085 2 2 0 0 244 623 517
1086 2 2 0 0 20 639 27
1087 2 2 0 0 476 675 87
1088 2 2 0 0 319 616 393
1089 2 2 0 0 474 707 197
1090 2 2 0 0 226 599 306
1091 2 2 0 0 47 48 43
1092 2 2 0 0 186 619 188
1093 2 2 0 0 412 732 328
1094 2 2 0 0 316 671 541
1095 2 2 0 0 293 734 478
1096 2 2 0 0 492 685 598
1097 2 2 0 0 528 629 532
1098 2 2 0 0 514 635 515
1099 2 2 0 0 531 616 319
1100 2 2 0 0 8 656 7
1101 2 2 0 0 387 602 601
1102 2 2 0 0 76 628 78
1103 2 2 0 0 122 618 516
1104 2 2 0 0 651 717 394
1105 2 2 0 0 423 623 564
1106 2 2 0 0 546 669 547
1107 2 2 0 0 4 679 34
1108 2 2 0 0 542 556 151
1109 2 2 0 0 548 609 135
1110 2 2 0 0 204 620 196
1111 2 2 0 0 529 629 528
1112 2 2 0 0 482 719 230
1113 2 2 0 0 258 627 591
1114 2 2 0 0 336 582 335
1115 2 2 0 0 197 686 667
1116 2 2 0 0 583 658 580
1117 2 2 0 0 85 675 98
1118 2 2 0 0 59 728 379
1119 2 2 0 0 400 625 338
1120 2 2 0 0 394 717 605
1121 2 2 0 0 471 650 450
1122 2 2 0 0 596 635 323
1123 2 2 0 0 249 637 228
1124 2 2 0 0 515 635 596
1125 2 2 0 0 338 625 563
1126 2 2 0 0 28 633 488
1127 2 2 0 0 566 622 361
1128 2 2 0 0 229 570 161
1129 2 2 0 0 468 654 465
1130 2 2 0 0 118 710 462
1131 2 2 0 0 15 612 16
1132 2 2 0 0 589 659 590
1133 2 2 0 0 526 621 268
1134 2 2 0 0 365 647 597
1135 2 2 0 0 579 583 235
1136 2 2 0 0 22 507 21
1137 2 2 0 0 342 682 264
1138 2 2 0 0 441 648 346
1139 2 2 0 0 191 636 198
1140 2 2 0 0 578 653 579
1141 2 2 0 0 135 609 134
1142 2 2 0 0 128 618 122
1143 2 2 0 0 378 681 310
1144 2 2 0 0 230 690 211
1145 2 2 0 0 210 690 232
1146 2 2 0 0 549 643 553
1147 2 2 0 0 233 661 247
1148 2 2 0 0 10 624 11
1149 2 2 0 0 640 709 435
1150 2 2 0 0 449 719 482
1151 2 2 0 0 452 726 33
1152 2 2 0 0 362 577 280
1153 2 2 0 0 318 575 433
1154 2 2 0 0 492 687 396
1155 2 2 0 0 586 734 293
1156 2 2 0 0 357 655 618
1157 2 2 0 0 277 567 259
1158 2 2 0 0 522 641 225
1159 2 2 0 0 511 640 281
1160 2 2 0 0 247 661 483
1161 2 2 0 0 610 693 39
1162 2 2 0 0 272 569 326
1163 2 2 0 0 490 695 70
1164 2 2 0 0 553 643 599
1165 2 2 0 0 532 629 284
1166 2 2 0 0 29 712 17
1167 2 2 0 0 632 665 117
1168 2 2 0 0 618 655 386
1169 2 2 0 0 241 699 576
1170 2 2 0 0 457 728 561
1171 2 2 0 0 485 572 456
1172 2 2 0 0 430 667 621
1173 2 2 0 0 582 672 458
1174 2 2 0 0 395 687 540
1175 2 2 0 0 504 594 44
1176 2 2 0 0 181 713 207
1177 2 2 0 0 197 707 184
1178 2 2 0 0 524 657 556
1179 2 2 0 0 475 536 498
1180 2 2 0 0 394 738 320
1181 2 2 0 0 51 714 561
1182 2 2 0 0 151 556 153
1183 2 2 0 0 437 693 610
1184 2 2 0 0 361 626 568
1185 2 2 0 0 611 679 5
1186 2 2 0 0 231 680 643
1187 2 2 0 0 462 706 118
1188 2 2 0 0 390 670 496
1189 2 2 0 0 602 642 601
1190 2 2 0 0 49 330 48
1191 2 2 0 0 391 665 632
1192 2 2 0 0 508 737 375
1193 2 2 0 0 450 650 552
1194 2 2 0 0 368 732 476
1195 2 2 0 0 578 579 235
1196 2 2 0 0 402 581 308
1197 2 2 0 0 43 486 41
1198 2 2 0 0 562 713 179
1199 2 2 0 0 592 632 480
1200 2 2 0 0 416 641 522
1201 2 2 0 0 372 668 371
1202 2 2 0 0 452 712 439
1203 2 2 0 0 282 720 455
1204 2 2 0 0 556 657 176
1205 2 2 0 0 364 632 592
1206 2 2 0 0 403 726 452
1207 2 2 0 0 465 654 623
1208 2 2 0 0 278 649 105
1209 2 2 0 0 154 652 617
1210 2 2 0 0 383 688 603
1211 2 2 0 0 451 719 447
1212 2 2 0 0 317 709 640
1213 2 2 0 0 604 711 642
1214 2 2 0 0 382 652 383
1215 2 2 0 0 601 642 389
1216 2 2 0 0 284 671 316
1217 2 2 0 0 599 643 402
1218 2 2 0 0 388 633 624
1219 2 2 0 0 267 678 311
1220 2 2 0 0 337 681 530
1221 2 2 0 0 279 661 233
1222 2 2 0 0 605 738 394
1223 2 2 0 0 33 677 504
1224 2 2 0 0 386 655 387
1225 2 2 0 0 547 669 631
1226 2 2 0 0 562 731 479
1227 2 2 0 0 360 648 595
1228 2 2 0 0 432 692 657
1229 2 2 0 0 367 657 524
1230 2 2 0 0 633 695 488
1231 2 2 0 0 415 473 341
1232 2 2 0 0 644 672 336
1233 2 2 0 0 551 633 388
1234 2 2 0 0 533 648 360
1235 2 2 0 0 407 679 611
1236 2 2 0 0 323 635 615
1237 2 2 0 0 530 681 529
1238 2 2 0 0 393 651 394
1239 2 2 0 0 387 655 602
1240 2 2 0 0 238 703 574
1241 2 2 0 0 594 677 505
1242 2 2 0 0 559 692 560
1243 2 2 0 0 621 667 381
1244 2 2 0 0 405 674 376
1245 2 2 0 0 325 732 368
1246 2 2 0 0 623 654 517
1247 2 2 0 0 581 644 336
1248 2 2 0 0 346 648 533
1249 2 2 0 0 517 654 279
1250 2 2 0 0 477 705 481
1251 2 2 0 0 481 705 355
1252 2 2 0 0 561 728 57
1253 2 2 0 0 379 705 477
1254 2 2 0 0 617 652 382
1255 2 2 0 0 30 650 500
1256 2 2 0 0 376 674 385
1257 2 2 0 0 518 715 519
1258 2 2 0 0 474 667 430
1259 2 2 0 0 478 734 294
1260 2 2 0 0 624 633 28
1261 2 2 0 0 186 707 619
1262 2 2 0 0 64 663 475
1263 2 2 0 0 597 647 258
1264 2 2 0 0 377 738 605
1265 2 2 0 0 31 735 467
1266 2 2 0 0 27 718 458
1267 2 2 0 0 419 673 68
1268 2 2 0 0 616 722 393
1269 2 2 0 0 24 723 419
1270 2 2 0 0 397 638 48
1271 2 2 0 0 404 730 460
1272 2 2 0 0 91 676 472
1273 2 2 0 0 622 626 361
1274 2 2 0 0 7 656 32
1275 2 2 0 0 576 697 277
1276 2 2 0 0 471 691 650
1277 2 2 0 0 536 663 373
1278 2 2 0 0 484 691 471
1279 2 2 0 0 552 650 30
1280 2 2 0 0 311 678 600
1281 2 2 0 0 486 729 5
1282 2 2 0 0 418 673 666
1283 2 2 0 0 232 680 231
1284 2 2 0 0 5 679 4
1285 2 2 0 0 117 665 539
1286 2 2 0 0 384 702 616
1287 2 2 0 0 557 702 221
1288 2 2 0 0 87 675 85
1289 2 2 0 0 225 711 604
1290 2 2 0 0 505 677 571
1291 2 2 0 0 483 661 494
1292 2 2 0 0 263 565 375
1293 2 2 0 0 504 677 594
1294 2 2 0 0 582 718 399
1295 2 2 0 0 645 714 46
1296 2 2 0 0 534 708 392
1297 2 2 0 0 643 680 402
1298 2 2 0 0 18 712 452
1299 2 2 0 0 392 670 390
1300 2 2 0 0 221 702 603
1301 2 2 0 0 496 664 391
1302 2 2 0 0 606 710 118
1303 2 2 0 0 655 703 602
1304 2 2 0 0 608 676 91
1305 2 2 0 0 194 684 514
1306 2 2 0 0 541 671 378
1307 2 2 0 0 154 669 652
1308 2 2 0 0 399 718 639
1309 2 2 0 0 405 715 674
1310 2 2 0 0 33 726 677
1311 2 2 0 0 629 671 284
1312 2 2 0 0 468 735 495
1313 2 2 0 0 469 704 408
1314 2 2 0 0 427 745 479
1315 2 2 0 0 294 734 251
1316 2 2 0 0 461 705 379
1317 2 2 0 0 385 674 636
1318 2 2 0 0 657 692 176
1319 2 2 0 0 561 714 411
1320 2 2 0 0 631 669 154
1321 2 2 0 0 264 682 265
1322 2 2 0 0 43 638 486
1323 2 2 0 0 48 638 43
1324 2 2 0 0 194 744 684
1325 2 2 0 0 381 686 380
1326 2 2 0 0 658 716 589
1327 2 2 0 0 263 567 565
1328 2 2 0 0 310 681 337
1329 2 2 0 0 493 685 492
1330 2 2 0 0 64 685 663
1331 2 2 0 0 309 678 267
1332 2 2 0 0 600 678 431
1333 2 2 0 0 538 694 333
1334 2 2 0 0 598 685 64
1335 2 2 0 0 551 695 633
1336 2 2 0 0 560 699 241
1337 2 2 0 0 211 690 210
1338 2 2 0 0 2 723 3
1339 2 2 0 0 630 708 441
1340 2 2 0 0 467 735 468
1341 2 2 0 0 396 687 395
1342 2 2 0 0 35 507 22
1343 2 2 0 0 259 567 263
1344 2 2 0 0 417 673 418
1345 2 2 0 0 614 686 197
1346 2 2 0 0 392 708 630
1347 2 2 0 0 5 729 6
1348 2 2 0 0 279 725 661
1349 2 2 0 0 6 729 26
1350 2 2 0 0 357 703 655
1351 2 2 0 0 514 684 635
1352 2 2 0 0 540 733 538
1353 2 2 0 0 374 741 593
1354 2 2 0 0 176 692 559
1355 2 2 0 0 650 691 500
1356 2 2 0 0 484 736 691
1357 2 2 0 0 83 733 540
1358 2 2 0 0 558 740 372
1359 2 2 0 0 626 697 555
1360 2 2 0 0 436 693 437
1361 2 2 0 0 375 737 374
1362 2 2 0 0 475 663 536
1363 2 2 0 0 636 674 198
1364 2 2 0 0 674 715 198
1365 2 2 0 0 70 695 551
1366 2 2 0 0 406 721 407
1367 2 2 0 0 677 726 571
1368 2 2 0 0 258 647 627
1369 2 2 0 0 448 701 451
1370 2 2 0 0 458 672 506
1371 2 2 0 0 229 700 570
1372 2 2 0 0 684 744 428
1373 2 2 0 0 570 700 544
1374 2 2 0 0 678 742 431
1375 2 2 0 0 646 741 314
1376 2 2 0 0 603 702 384
1377 2 2 0 0 478 731 293
1378 2 2 0 0 309 742 678
1379 2 2 0 0 380 686 614
1380 2 2 0 0 494 725 468
1381 2 2 0 0 500 691 38
1382 2 2 0 0 635 684 615
1383 2 2 0 0 661 725 494
1384 2 2 0 0 679 721 34
1385 2 2 0 0 509 510 35
1386 2 2 0 0 46 714 51
1387 2 2 0 0 615 684 428
1388 2 2 0 0 432 742 689
1389 2 2 0 0 179 713 181
1390 2 2 0 0 26 739 645
1391 2 2 0 0 35 510 507
1392 2 2 0 0 574 703 357
1393 2 2 0 0 184 707 186
1394 2 2 0 0 39 693 612
1395 2 2 0 0 665 694 539
1396 2 2 0 0 312 708 534
1397 2 2 0 0 554 689 309
1398 2 2 0 0 1 737 508
1399 2 2 0 0 519 717 520
1400 2 2 0 0 277 697 622
1401 2 2 0 0 389 711 641
1402 2 2 0 0 495 736 484
1403 2 2 0 0 17 712 18
1404 2 2 0 0 212 722 557
1405 2 2 0 0 455 720 438
1406 2 2 0 0 622 697 626
1407 2 2 0 0 664 694 665
1408 2 2 0 0 447 719 449
1409 2 2 0 0 669 688 652
1410 2 2 0 0 612 693 436
1411 2 2 0 0 619 744 194
1412 2 2 0 0 57 728 59
1413 2 2 0 0 579 658 583
1414 2 2 0 0 438 727 525
1415 2 2 0 0 539 733 83
1416 2 2 0 0 479 731 478
1417 2 2 0 0 691 736 38
1418 2 2 0 0 401 724 400
1419 2 2 0 0 420 660 2
1420 2 2 0 0 328 732 325
1421 2 2 0 0 320 738 453
1422 2 2 0 0 428 744 429
1423 2 2 0 0 431 742 432
1424 2 2 0 0 425 745 427
1425 2 2 0 0 408 743 434
1426 2 2 0 0 571 726 403
1427 2 2 0 0 119 727 523
1428 2 2 0 0 625 706 462
1429 2 2 0 0 525 730 404
1430 2 2 0 0 499 736 495
1431 2 2 0 0 468 725 654
1432 2 2 0 0 336 672 582
1433 2 2 0 0 198 715 518
1434 2 2 0 0 400 724 706
1435 2 2 0 0 402 680 581
1436 2 2 0 0 589 716 659
1437 2 2 0 0 727 730 525
1438 2 2 0 0 664 665 391
1439 2 2 0 0 337 740 558
1440 2 2 0 0 293 731 562
1441 2 2 0 0 523 720 282
1442 2 2 0 0 460 730 119
1443 2 2 0 0 641 711 225
1444 2 2 0 0 429 744 619
1445 2 2 0 0 119 730 727
1446 2 2 0 0 651 722 212
1447 2 2 0 0 38 736 499
1448 2 2 0 0 667 686 381
1449 2 2 0 0 652 688 383
1450 2 2 0 0 410 710 606
1451 2 2 0 0 644 701 448
1452 2 2 0 0 666 673 419
1453 2 2 0 0 704 743 408
1454 2 2 0 0 251 734 586
1455 2 2 0 0 400 706 625
1456 2 2 0 0 546 688 669
1457 2 2 0 0 668 700 229
1458 2 2 0 0 538 733 694
1459 2 2 0 0 333 694 664
1460 2 2 0 0 565 662 375
1461 2 2 0 0 720 727 438
1462 2 2 0 0 372 700 668
1463 2 2 0 0 579 716 658
1464 2 2 0 0 642 711 389
1465 2 2 0 0 355 705 461
1466 2 2 0 0 407 721 679
1467 2 2 0 0 523 727 720
1468 2 2 0 0 654 725 279
1469 2 2 0 0 639 718 27
1470 2 2 0 0 694 733 539
1471 2 2 0 0 393 722 651
1472 2 2 0 0 645 739 397
1473 2 2 0 0 683 741 374
1474 2 2 0 0 397 739 638
1475 2 2 0 0 653 716 579
1476 2 2 0 0 666 723 660
1477 2 2 0 0 419 723 666
1478 2 2 0 0 374 737 683
1479 2 2 0 0 593 741 646
1480 2 2 0 0 683 737 1
1481 2 2 0 0 689 742 309
1482 2 2 0 0 660 723 2
1483 2 2 0 0 23 25 1
1484 2 2 0 0 25 607 1
1485 2 2 0 0 3 34 2
1486 2 2 0 0 34 415 2
$EndElements
