$MeshFormat
2.2 0 8
$EndMeshFormat
$Nodes
745
1 5.0263654692806786e-05 2.2001413684880014e-05 1.0167426908663610e-03
2 6.5312353443266056e-05 -3.4404569290328845e-05 -1.0143258780065342e-03
3 1.4185413375416596e-04 2.2291430711770303e-05 -1.0061614969362009e-03
4 2.5963580472306003e-04 7.6519883388358839e-06 -9.8263756224821279e-04
5 3.8826293854752085e-04 1.4882220046233907e-05 -9.3739859589981017e-04
6 4.9970946824870216e-04 1.0731340524068075e-06 -8.7985115070026928e-04
7 6.1367646111857340e-04 -1.0447392282410147e-06 -8.0049610008755439e-04
8 7.2787158503868996e-04 -4.9339641887563714e-06 -6.9229293232296791e-04
9 8.2444158310453013e-04 -3.7055799777174431e-06 -5.6608808123957395e-04
10 9.0538226694883482e-04 2.5963631582841967e-06 -4.1470329260517923e-04
11 9.5476538699502858e-04 1.0403478352368314e-05 -2.7300733423693432e-04
12 9.8225564746094317e-04 3.0954738855905318e-06 -1.3588993551237117e-04
13 9.9100697416379651e-04 1.0103809360301286e-05 1.6547398944861417e-06
14 9.8093926686422506e-04 7.0365969377755899e-06 1.4436525756025573e-04
15 9.5080845660167783e-04 -1.2586757808620637e-06 2.8763431926617170e-04
16 8.9930135711442085e-04 7.4383777323432371e-06 4.2919764599447523e-04
17 8.2608793054794239e-04 4.3057147634916285e-06 5.6402757421198182e-04
18 7.3335346906448990e-04 2.3863710199733350e-06 6.8658460683456498e-04
19 6.2389848745728331e-04 9.0144897523162219e-06 7.9266535885063640e-04
20 5.0548342144491340e-04 1.3613940253462555e-06 8.7682715145216293e-04
21 3.7435031461126338e-04 2.4948239555693688e-06 9.4329160655179964e-04
22 2.4431234359304985e-04 -9.3638836363963316e-06 9.8690426750791668e-04
23 1.3827122801181186e-04 -2.0316695185659371e-05 1.0073669723921694e-03
24 1.5513573145182235e-04 1.2900410671538786e-04 -9.9695060120108688e-04
25 1.6466841173517048e-04 1.0821925244987745e-04 9.9846228779808277e-04
26 5.5237273924562270e-04 1.0803120010349628e-04 -8.3860318445631626e-04
27 5.6527563523348621e-04 -1.0599717771817848e-04 8.3055228036265770e-04
28 9.6279075023079105e-04 1.3425990699373073e-04 -1.9810829473175225e-04
29 8.5037840418606282e-04 1.4525885978408740e-04 5.0429230252387644e-04
30 9.2465801905344206e-04 -1.1857177597924348e-04 3.4667670554188552e-04
31 9.6271553071452631e-04 -1.1855778746602011e-04 -2.0860739223701200e-04
32 5.5146511810341605e-04 -1.1312212957309514e-04 -8.3887633629875047e-04
33 5.5953154788715063e-04 1.0776841566849061e-04 8.3412008402201498e-04
34 1.7032536912778471e-04 -8.5592979248123280e-05 -9.9926822650455295e-04
35 1.9092996724371682e-04 -1.0377812190382805e-04 9.9331156456417360e-04
36 7.8291274110832345e-04 -1.2675038379071505e-04 6.1242976113025415e-04
37 7.7261402279491583e-04 1.2193512280678130e-04 -6.2634862415840908e-04
38 9.8160435676149824e-04 -1.1051772209164325e-04 8.0325411341459579e-05
39 9.6058885834767729e-04 1.2140482962906819e-04 2.1637091519406462e-04
40 8.6352781043840747e-04 -1.2978963553365112e-04 -4.8250387521979427e-04
41 2.9184411679150098e-04 1.2915309011063967e-04 -9.6385013398481655e-04
42 2.2113932545345794e-04 2.2620635169124975e-04 -9.6478457725092252e-04
43 3.2703143144047572e-04 2.3373475524856755e-04 -9.3055283107662903e-04
44 3.0463000306580181e-04 1.0794809865790265e-04 9.6298173575506843e-04
45 6.7276223303217562e-04 1.2059102616353982e-04 -7.3841861867397177e-04
46 7.0909719081327176e-04 2.4784317991224160e-04 -6.6523499732096031e-04
47 2.6401991802569837e-04 3.3491389316904637e-04 -9.1900850938192316e-04
48 3.9900913811223023e-04 3.3975449828356035e-04 -8.6438075079050929e-04
49 3.3299744785475455e-04 4.3793672179766731e-04 -8.4705828256782985e-04
50 8.0332085885686665e-04 2.4432747400997761e-04 -5.4153531273351335e-04
51 7.2650295698350467e-04 3.6230359452943904e-04 -5.8476814998233259e-04
52 8.0616519854311518e-04 3.6509379294279387e-04 -4.5824215281753134e-04
53 7.2832907680404934e-04 4.7600316925675549e-04 -4.8761966878312324e-04
54 7.9630333441648089e-04 4.7457209197299463e-04 -3.5905593983795350e-04
55 7.0798565840398753e-04 5.8545361617619144e-04 -3.8084227139659855e-04
56 7.7020717397564495e-04 5.7407446646623504e-04 -2.4816330939106938e-04
57 6.2787567806451183e-04 5.9029927482984570e-04 -5.0233273766304152e-04
58 5.9826021450367186e-04 6.8957576795271520e-04 -3.9485017519265729e-04
59 5.1156591314388642e-04 6.8572720114465227e-04 -5.1329915610674574e-04
60 4.8198753657645700e-04 7.7096141089153371e-04 -4.0349033807543055e-04
61 3.8776705133333571e-04 7.5609536750496096e-04 -5.2361353323455029e-04
62 3.5507145109211683e-04 8.3611389280172077e-04 -4.0534669136635675e-04
63 1.9830124867061482e-04 4.5504084460426406e-04 -8.8132393126509514e-04
64 4.4186008366046926e-04 8.3902611112199874e-04 -2.9194471233794778e-04
65 2.5658210420059172e-04 8.1465345022362849e-04 -5.1591378741637169e-04
66 2.2993836246007371e-04 8.8737290829389223e-04 -3.8490743459737749e-04
67 1.2079954749358159e-04 8.6320230635567540e-04 -4.8365455916455773e-04
68 1.0641388011246472e-04 2.4030825375614999e-04 -9.8107568240116431e-04
69 1.4126542722611363e-04 7.6784523345381202e-04 -6.2841012323835814e-04
70 8.4953552903047601e-04 4.6170592405813331e-04 -2.2041148695957865e-04
71 8.1878524669449777e-04 5.4720493217641291e-04 -1.1047412207213307e-04
72 7.2639865346319204e-04 6.6011445491090284e-04 -1.3624485874015634e-04
73 7.6438008180943200e-04 6.3012625049876578e-04 5.0795246819991832e-06
74 6.6571759248554773e-04 7.3273387700209839e-04 -2.6608820107529542e-05
75 6.8731056162454614e-04 7.0521742588880551e-04 1.0778129546893834e-04
76 5.9512643193741766e-04 7.8782787088319819e-04 7.8092201415785347e-05
77 6.0693847091344291e-04 7.5488683529296627e-04 2.1166925557314920e-04
78 5.0223772591244907e-04 8.3624716001827362e-04 1.7514685720558266e-04
79 9.6813154626829701e-05 9.2769574711579997e-04 -3.4155169028930607e-04
80 -1.7186064317243312e-05 8.9715045269572573e-04 -4.3026397851312899e-04
81 2.4236365647096230e-04 2.1613756245660322e-04 9.6228519179590653e-04
82 5.2000022986320351e-04 7.8611255453920476e-04 3.1317173169160032e-04
83 -4.0854684658190160e-05 9.4562426234862270e-04 -2.9762513288552678e-04
84 4.0295837276045485e-04 8.6563890747083639e-04 2.6982613699007800e-04
85 4.2286424575750138e-04 8.0477681920035707e-04 4.0404453268125191e-04
86 2.9717984219103719e-04 8.7287880581466077e-04 3.7123840556357662e-04
87 3.1094411192484711e-04 8.0379724312518066e-04 5.0168860943325866e-04
88 1.8824341195142563e-04 8.5647101089764068e-04 4.7328696557992044e-04
89 1.6177254039594500e-04 9.1859121091266425e-04 3.4156487671720701e-04
90 5.3331954590195832e-05 8.9447599136430070e-04 4.3329156760657316e-04
91 6.9348145690008967e-05 8.2021496525479048e-04 5.6660209582419096e-04
92 -5.9446881814694107e-05 8.5038064503926438e-04 5.1799060811787189e-04
93 -7.9826149140192537e-05 9.1126535178389755e-04 3.8945063286124985e-04
94 -1.9030856251309530e-04 8.5597629411845251e-04 4.7275796222433615e-04
95 -1.5326536781010540e-04 8.0139767255025813e-04 5.7573569409090017e-04
96 -2.1480666578557896e-04 9.0884519295775397e-04 3.3782483285730859e-04
97 1.1350405837588940e-04 2.3009041796035159e-04 9.8345550642251877e-04
98 5.2589415106241546e-04 7.1172476950862409e-04 4.6016282208634346e-04
99 1.8387044843142111e-04 3.2644111359555626e-04 9.4280522348905247e-04
100 5.4415242683291113e-05 3.1400442814609643e-04 9.6410795688922548e-04
101 -2.3563291122984407e-05 2.1767023945284194e-04 9.9276269371257296e-04
102 -7.7416060475866128e-05 3.1144106999488389e-04 9.6327541732882610e-04
103 2.0750714858326698e-04 9.3785875173479124e-04 -2.4649474973197110e-04
104 -1.0813305622204380e-04 9.5157389144897328e-04 2.5774083691111187e-04
105 -2.4521623150665193e-04 9.3975924822543866e-04 1.9695805714388392e-04
106 -3.4878119321863829e-04 8.8515881722259909e-04 2.8136049260333191e-04
107 -1.5514381448101326e-04 9.0589499577250370e-04 -3.7803522797972687e-04
108 -1.2909227168761311e-04 8.4829157269091134e-04 -5.0802645525136966e-04
109 -3.7283807669403221e-04 9.0548725420155983e-04 1.4879233631866589e-04
110 -2.6420846611806189e-04 8.4756288895455022e-04 -4.5065660002799513e-04
111 -2.3966312983337865e-04 7.7144128775565523e-04 -5.8913471974806014e-04
112 -3.6567849055419246e-04 7.6945450466427341e-04 -5.1916622034208317e-04
113 -3.2924888423062853e-04 6.8085497269267917e-04 -6.5790918871802952e-04
114 -4.6438094325671614e-04 6.7362468710694377e-04 -5.7390221670896397e-04
115 -4.2051627940950515e-04 5.8370876124776811e-04 -7.0036201470412101e-04
116 -4.9635370714145428e-04 7.4032646219990782e-04 -4.4346631900389215e-04
117 -2.8155434831212865e-04 8.9714583599687482e-04 -3.1797049470029824e-04
118 -2.8565398706810403e-04 7.7737005927748396e-04 5.5954412435499801e-04
119 7.0323701953665994e-04 6.6381866183607167e-04 2.1861743590705204e-04
120 -2.8095051322498559e-04 5.7486476289396059e-04 -7.7785156625102803e-04
121 -3.6253961353880829e-04 4.7400553946547571e-04 -8.1322132105512046e-04
122 -4.9998100510445617e-04 4.7566860531763559e-04 -7.3077855304294365e-04
123 -4.4492697948650021e-04 3.6673139969195967e-04 -8.2825001366028188e-04
124 -5.8851472066969118e-04 6.3639203354256190e-04 -4.9236402092998476e-04
125 -6.1479602575453807e-04 6.9133457751641787e-04 -3.6253836527204056e-04
126 -6.9485450373239245e-04 5.8541020218282232e-04 -4.0453797636711856e-04
127 -4.7819697935132954e-04 8.3779710923292559e-04 2.2851326919740377e-04
128 -5.6602303315051946e-04 3.5475283732894230e-04 -7.5210130431616323e-04
129 -5.0918362093573010e-04 2.5310910538492274e-04 -8.3400575402823424e-04
130 -6.2976034629351561e-04 2.1918398370205622e-04 -7.5333095005149144e-04
131 -5.6408607429876483e-04 1.2264359398760487e-04 -8.2780145874874079e-04
132 -6.8236977470188820e-04 9.1394156553486279e-05 -7.3267594899819124e-04
133 -6.0456250996516504e-04 -1.3181923360867867e-05 -8.0703541180956984e-04
134 -7.2260691909292415e-04 -3.6540226990455043e-05 -6.9620743481041837e-04
135 -6.3362600507393930e-04 -1.4550861255002362e-04 -7.6904351374213668e-04
136 -7.9027878494714726e-04 7.4966743901137224e-05 -6.0981973503989749e-04
137 -8.1956731975467629e-04 -5.4043794852004281e-05 -5.6981405462787479e-04
138 -8.7293114932736381e-04 4.9103713880684500e-05 -4.7883951272174971e-04
139 -8.9148413753415475e-04 -8.3223200101187870e-05 -4.3555166405259764e-04
140 -9.3009505681228689e-04 1.3683919032607800e-05 -3.4921068615121779e-04
141 -9.3866814492551953e-04 -1.1587325836834944e-04 -3.0189093590717318e-04
142 -9.6809335546555494e-04 -1.5408064584677076e-05 -2.1331877101062087e-04
143 -9.6653727810266238e-04 -1.4410290355055578e-04 -1.6501158042959922e-04
144 -9.8658759593517982e-04 -3.8588621309009467e-05 -7.7954035101305969e-05
145 -9.7517603658283443e-04 -1.7024423715394075e-04 -3.0305352630423897e-05
146 -9.8712936691918536e-04 -5.9879744575470297e-05 5.2702740497262105e-05
147 -9.6722801376900210e-04 -1.8668909556354785e-04 1.0558474195301851e-04
148 -9.4517331811303494e-04 -2.9571010238854456e-04 1.6240373978228841e-05
149 -9.2973400932883175e-04 -3.0689504047884462e-04 1.5445005180392591e-04
150 -9.4276153623834124e-04 -1.9070409602402603e-04 2.4309887863100050e-04
151 -8.9578968777013004e-04 -3.1341028191460871e-04 2.9191918820141444e-04
152 -8.9723362434901823e-04 -1.9396783428612187e-04 3.8300132598057993e-04
153 -8.3890581258162517e-04 -3.2462553617549960e-04 4.2691053121288836e-04
154 -8.9093649633418864e-04 -2.1600356004888239e-04 -3.8529794858235681e-04
155 -8.2874815981493378e-04 -2.0833236146808613e-04 5.1576155917977529e-04
156 -7.5947405608822890e-04 -3.3642554969182006e-04 5.5562856004970340e-04
157 -8.7919454894893972e-04 -7.6539412803621195e-05 4.6308939433765695e-04
158 -7.4057282290846099e-04 -2.1856833081612825e-04 6.3883817749503297e-04
159 -6.6452468627966449e-04 -3.3440742952172938e-04 6.7355689647944554e-04
160 -9.8721797685033248e-04 7.6286006876464629e-05 5.7052092218181452e-06
161 -6.3112205536254226e-04 -2.1370521403310012e-04 7.5452431919962356e-04
162 -5.5030959072604590e-04 -3.2366296957257778e-04 7.7991508868379919e-04
163 -5.1427472346141903e-04 -1.1670891309269138e-04 -8.6234359227214822e-04
164 -5.3066153385072738e-04 -2.4982987907577113e-04 -8.2137083232697143e-04
165 -7.1037216801458653e-04 6.3736206206350683e-04 -2.7043132938189200e-04
166 -1.4430327876397529e-04 2.0742819724864039e-04 9.8434131875173520e-04
167 -2.1288528217977795e-04 3.1611853003950398e-04 9.3991261958123083e-04
168 -4.1170976972894986e-04 -2.1003511510243983e-04 -9.0091962985188725e-04
169 -4.3479537346622092e-04 -3.4425100661826974e-04 -8.4448741868061014e-04
170 -5.5110423358517081e-04 -3.8345589274268359e-04 -7.4971909995944375e-04
171 -4.4914586221987289e-04 -4.7931698124720494e-04 -7.6336079924375021e-04
172 -5.5471448836788399e-04 -5.0917894918039964e-04 -6.6288338420770348e-04
173 -4.4065223996517645e-04 -6.0567852189316357e-04 -6.6798718873782093e-04
174 -5.4653773302666957e-04 -6.2279478506762362e-04 -5.5925050569561349e-04
175 -4.2755250479649729e-04 -7.1170901003261529e-04 -5.5683014258479783e-04
176 -7.6246918998888887e-04 -4.4535787162192038e-04 4.6179147916194929e-04
177 -5.2027533071856630e-04 -7.2406085255704710e-04 -4.4463481106852442e-04
178 -4.0781235344842788e-04 -7.9925991832192076e-04 -4.3269656071716480e-04
179 -3.1114975594846830e-04 -7.8344704837074702e-04 -5.3603372283218939e-04
180 -2.7900455950178216e-04 -8.6103099611485330e-04 -4.1528466074567890e-04
181 -1.7864822420936852e-04 -8.3358382206523993e-04 -5.1992378234606916e-04
182 -1.4077346494145799e-04 -9.0161374129461565e-04 -3.9791532890321558e-04
183 -3.9174442562338293e-05 -8.6118135019552712e-04 -5.0362680217186384e-04
184 1.6434034698612332e-06 -9.2201354063553803e-04 -3.7407530626638760e-04
185 -9.9426071143228522e-05 -9.5116665408691303e-04 -2.6760448354329802e-04
186 4.0048225958432046e-05 -9.6191190020100106e-04 -2.4186921442581128e-04
187 -5.0183424321938477e-05 -9.8053860413778774e-04 -1.3925522082453994e-04
188 8.8304097093782992e-05 -9.8076943035815540e-04 -1.1665878402521935e-04
189 -4.1723024587793585e-06 -9.9102620853602384e-04 -1.4574426634072750e-05
190 1.2848932446691687e-04 -9.8278155278017174e-04 1.2206815638757445e-05
191 3.3609935690854580e-05 -9.8481917419897085e-04 1.0989524701549717e-04
192 1.6713423231128768e-04 -9.6827401232113519e-04 1.3480398634112061e-04
193 6.4154003022927987e-05 -9.6207953240803846e-04 2.3665426921301572e-04
194 2.1674150523909934e-04 -9.6355499413454046e-04 -8.4949709030836582e-05
195 2.0000193645089220e-04 -9.3633197425302850e-04 2.6445860726309974e-04
196 1.0003810617175348e-04 -9.2014538481387622e-04 3.6542238458956046e-04
197 1.0589560369028131e-04 -8.7198474356193015e-04 -4.7400676167376742e-04
198 -9.6708758888435054e-05 -9.8278877995869166e-04 8.3485469198802089e-05
199 2.3115717949715353e-04 -8.8434830769390060e-04 3.9506458748723576e-04
200 3.2947062080865248e-04 -8.9111504886964330e-04 2.9140206077134126e-04
201 3.6111939962726002e-04 -8.3145413597978551e-04 4.1315975164181467e-04
202 1.3173061970609849e-04 -8.5717363128442765e-04 4.9446530260921777e-04
203 4.5353061094763927e-04 -8.2923927346113130e-04 3.0781514574309410e-04
204 -3.1889557565552480e-07 -8.8119223083751896e-04 4.6742681917958382e-04
205 2.8745864376888357e-05 -8.0659834683234383e-04 5.9262324896307902e-04
206 -8.9764367656330890e-04 -4.1472000091395927e-04 6.1021125335119383e-05
207 -8.2632202563998348e-05 -7.6915144374263501e-04 -6.3841833991257690e-04
208 -1.0343547377708687e-04 -8.2392925507516080e-04 5.5735723544259605e-04
209 -6.9172339312636034e-05 -7.3483732111724045e-04 6.8115769653440291e-04
210 4.7815768547030383e-04 -7.6119320685269552e-04 4.3026148264473676e-04
211 5.6483440140695721e-04 -7.5152840460764514e-04 3.2329855370595654e-04
212 -4.9312952119227589e-04 -7.9904808836694376e-04 -3.2510090737922491e-04
213 6.2142349347120814e-05 -7.0671228985982957e-04 7.1275132288154742e-04
214 -3.3740112909064001e-05 -6.2309139967437648e-04 7.9255136398329051e-04
215 -3.1882554796242864e-04 -2.8385866995887359e-04 -9.1910420201053223e-04
216 -2.0772314936401168e-04 -7.4958688254666693e-04 6.3252581827639119e-04
217 -2.4278829649690038e-04 -8.2630415814874945e-04 5.0505101429194725e-04
218 5.4081771326322449e-04 -8.0767835150117218e-04 2.0058573484494895e-04
219 6.4848721626737228e-04 -7.1916979999455310e-04 2.1916807434651112e-04
220 6.1597521229407213e-04 -7.7196117460411593e-04 8.9395771773204203e-05
221 -6.3363400078400719e-04 -6.2895638687119433e-04 -4.4169694560183305e-04
222 7.1953336471424650e-04 -6.7432023557619479e-04 1.0619820579776917e-04
223 6.7825646067881900e-04 -7.2262130958232918e-04 -2.3573069571764680e-05
224 -2.9110603142378123e-04 -1.7206449121867819e-04 -9.5684959985440732e-04
225 -9.5195790209686739e-04 1.1469631359174548e-04 -2.5298504124991294e-04
226 9.5663078137882200e-05 -5.9051328412764294e-04 8.1337321144928597e-04
227 -8.0033421365399425e-06 -4.9717154573268173e-04 8.8196017566287833e-04
228 -5.0786703159742027e-04 -1.9517836310436307e-04 8.5175882777657850e-04
229 -5.9820573085008269e-04 -9.2613252660400200e-05 8.0650344041660474e-04
230 6.5631124148193961e-04 -6.6242138607963870e-04 3.4610347242076126e-04
231 3.8468866691349849e-04 -7.5198142773315498e-04 5.3419158447499211e-04
232 5.0120222551680810e-04 -6.5882306323002907e-04 5.6328669639108507e-04
233 7.7163623208226489e-04 -6.2207812822553379e-04 -1.0485358550083269e-05
234 7.2792787253160335e-04 -6.5893561675506708e-04 -1.3952647971249838e-04
235 -3.8190685378256851e-04 2.5421827820193898e-04 -9.0249039938252633e-04
236 3.0235344124145168e-04 3.2396002674054677e-04 9.1120769327916306e-04
237 -4.2061977895410668e-04 -2.8398055204952814e-04 8.7553605331534682e-04
238 -8.3518361945967580e-04 1.9809314212740600e-04 -5.0973968502561983e-04
239 6.2889606730278898e-04 -7.5152227379043327e-04 -1.5351516380551010e-04
240 6.7884486974803505e-04 -6.7450137616790280e-04 -2.6573363200424558e-04
241 -5.7335474960788899e-04 -4.5176867788627079e-04 6.8984907184639751e-04
242 5.6911920137118219e-04 -7.6531941127958361e-04 -2.7769335023842005e-04
243 6.0793573096706160e-04 -6.8203806105270005e-04 -3.9550569375240371e-04
244 7.1383330565051204e-04 -5.8183759933899085e-04 -3.7720664094168367e-04
245 6.2867263232588690e-04 -5.8249838754924506e-04 -5.1247659567054326e-04
246 -1.9302982089667539e-04 -2.4693015010041487e-04 -9.6590422952433017e-04
247 8.1053613653245455e-04 -5.6058387253585186e-04 1.1063301916660635e-04
248 2.2760135327779476e-04 4.3915234978523333e-04 8.8267935839142519e-04
249 -3.8544882019640384e-04 -1.5808483109966729e-04 9.2427431020974341e-04
250 3.5758496132130401e-04 4.3771850001422265e-04 8.3698976443040570e-04
251 -2.0872619867773226e-04 -3.7882620597623273e-04 -9.1643535677508609e-04
252 -8.5440656248006873e-05 -3.4087400502878735e-04 -9.5236911411695081e-04
253 3.7828015217090618e-04 9.0376192341205829e-04 1.4720800212389553e-04
254 -6.2066625134662089e-04 7.3940386696190116e-04 -2.2525432688740214e-04
255 -7.0911655313902707e-04 6.7767653682745802e-04 -1.3663571993695106e-04
256 -7.9174592548147916e-04 5.6837383739870501e-04 -1.7824282649153936e-04
257 -7.8410876178190703e-04 6.0199965020335837e-04 -5.0941307576513682e-05
258 -2.0889768261987609e-05 4.2406993419445146e-04 9.2017394810712020e-04
259 -2.9494395340616639e-04 -2.3688210583231305e-04 9.4152276101061550e-04
260 -2.7899694650003069e-04 2.1404880367379146e-04 9.5179019336146594e-04
261 -3.5501850744384055e-04 3.0621649940056864e-04 8.9723053854038498e-04
262 -2.6247829995325084e-04 -1.1075435494428526e-04 9.7529433217641705e-04
263 -1.6962007784748369e-04 -2.0562596025982277e-04 9.8081955326002977e-04
264 -8.5748211198225421e-04 4.8793623679217296e-04 -8.3350353249341365e-05
265 -8.4051539213623116e-04 5.2082265305663177e-04 4.7719340674122330e-05
266 -3.4103694126479085e-04 -7.4661137471954120e-04 5.7183203765196259e-04
267 -3.6810624451347819e-04 -8.1427535686255388e-04 4.4083241820375916e-04
268 5.1480322600312798e-04 -6.7689433742315608e-04 -5.2408047348485691e-04
269 5.2305426545309593e-04 -5.7329691214819763e-04 -6.3470764633221884e-04
270 6.2176234058079066e-04 -4.7923039745752255e-04 -6.2288766848800879e-04
271 5.0991857848986608e-04 -4.5942921542725131e-04 -7.3586058703751492e-04
272 4.1130519280135116e-04 -5.5014493175750614e-04 -7.3540169422370500e-04
273 -2.8096476681900470e-04 4.1839083960585227e-04 8.7680346146045318e-04
274 -4.1972534024719465e-04 4.0974797839767897e-04 8.2109495805374460e-04
275 3.9378690028677631e-04 -4.2253796752808912e-04 -8.2854783206982516e-04
276 2.8571996745580111e-04 -5.1243275145561621e-04 -8.2185281926543368e-04
277 -3.2653308663349931e-04 -3.5910952724230318e-04 8.8839825226804845e-04
278 -1.3800135557985444e-04 9.7330938186284517e-04 1.1936784122631858e-04
279 8.1124496425421340e-04 -5.5677306840936703e-04 -1.2104025483077117e-04
280 -2.3327481445306684e-04 4.6189073392876017e-04 -8.6850588588837307e-04
281 -1.5268748840500268e-04 5.7084594373944298e-04 -8.1768863726959734e-04
282 8.5539114111162070e-04 5.0029435023560970e-04 3.0177321596327421e-05
283 1.1529754532848309e-04 -4.7331605661195497e-04 8.8792241388517350e-04
284 -9.8007217279472429e-04 5.5014811252150613e-05 1.3226666277130970e-04
285 -9.0360683269067048e-04 -3.9978649730065341e-04 -7.1309818154193771e-05
286 -8.4219476945688839e-04 -5.2099078171665173e-04 -2.7082884470411105e-05
287 -8.2750450214999331e-04 -5.3461219075846920e-04 1.0720688241465318e-04
288 -7.6490742227190104e-04 -6.2934281849722276e-04 1.9933403600339012e-05
289 -7.3885981671439806e-04 -6.4208327322160213e-04 1.5707078448109121e-04
290 -6.7391694692632976e-04 -7.2278089784719158e-04 7.2807010086352620e-05
291 -1.9271225220053551e-04 -9.5964850199249305e-04 -1.6031550403911604e-04
292 -2.7125097504472270e-04 -8.8389441069758909e-04 3.6748259441123424e-04
293 -3.2762837870444183e-04 -5.5399982615810417e-04 -7.7568904463416201e-04
294 -1.0926786578212249e-04 -4.6793094031060778e-04 -8.9188457459111407e-04
295 -4.8868607625330066e-04 2.8639885101461342e-04 8.3593830698844664e-04
296 -5.5311561169387878e-04 3.9174904839470853e-04 7.4333213645763044e-04
297 -8.5875662636545626e-04 4.4954773900115667e-04 -2.0754874299211664e-04
298 -6.0993946261184997e-04 2.7211984082124182e-04 7.5277811772119527e-04
299 -6.7159277729388924e-04 3.6785181972953619e-04 6.4655425608426233e-04
300 -6.0432194021878488e-04 4.9500985598530741e-04 6.2668504344230876e-04
301 -7.0773074055308668e-04 4.6444125225279266e-04 5.2895311726217792e-04
302 -7.7142624102274904e-04 3.3572808153595473e-04 5.3751601659028691e-04
303 -3.0097927692921745e-04 -6.6314993986664006e-04 6.9197918315577029e-04
304 -6.2848942514033904e-04 5.9149289810168091e-04 4.9999189576722079e-04
305 -8.0461591899852415e-04 4.1576301574731370e-04 4.1192302732982955e-04
306 2.2932243119527326e-04 -5.4813587363081412e-04 8.1664412106273346e-04
307 2.4719690950639450e-04 -4.1906536277926451e-04 8.8835705314993811e-04
308 3.5407689939094848e-04 -4.9100236240119492e-04 8.0812123336174916e-04
309 -4.5537241405028717e-04 -7.2977090037865729e-04 5.0563415228154873e-04
310 -8.5300208429306325e-04 2.8702738575765507e-04 4.2479489842551626e-04
311 -3.9497205059474822e-04 -8.5943226310478203e-04 3.0455963510737276e-04
312 -7.5817588721285444e-04 6.3107473911886509e-04 8.2055407602363428e-05
313 -8.4036421301823274e-04 -5.0202129974097180e-04 -1.5603529408899706e-04
314 -7.4351621905482983e-05 9.7403023754579849e-05 1.0104279518718025e-03
315 -8.7901306710164628e-04 3.5303682172319815e-04 2.9744918683320481e-04
316 -9.6827847845584172e-04 1.8870741164559728e-04 8.5699606063315426e-05
317 -1.0743814221281661e-04 7.6157176940616015e-04 -6.4134840626556061e-04
318 2.6217139621537188e-04 -3.8081473706740797e-04 -9.0135739384703071e-04
319 -6.8899891762383609e-04 -7.0959759116931713e-04 -5.9775827196044541e-05
320 -5.9345950759684385e-04 -7.9299677153291906e-04 -2.4150756222191290e-06
321 -6.6056717026574576e-04 -4.0272808992098573e-04 -6.3687799792304150e-04
322 -8.5301784183319234e-05 -1.9643577738567586e-04 -9.9392924012164929e-04
323 5.0287108930347066e-04 -8.5133527710594273e-04 7.3246564437350764e-05
324 -6.1345819812229374e-04 7.7142011263210382e-04 -9.2994760632970520e-05
325 2.8459096963381815e-04 5.4553884223326407e-04 7.9857261241642313e-04
326 2.9141615606567321e-04 -6.3666646385355868e-04 -7.2196500759616445e-04
327 1.5962365656967299e-04 -5.9883421529814196e-04 -7.9599559455266543e-04
328 4.1536395742948669e-04 5.4384935642667919e-04 7.3702317272002487e-04
329 4.8320833404867620e-04 4.2696393556008116e-04 7.7385100766162761e-04
330 4.5606832397836503e-04 4.4061995764474671e-04 -7.8257396854231477e-04
331 -1.3673606280093976e-06 9.7649524061393868e-04 1.6709022829103031e-04
332 -2.4527857754805461e-05 9.8887598395707983e-04 3.6208150185395210e-05
333 -1.5235882852824588e-04 9.7796138112624803e-04 -2.6293366526442951e-06
334 1.1562107240845924e-04 9.8043352299011753e-04 7.4707156372564286e-05
335 3.6348903869980268e-04 -3.6034056489217883e-04 8.7332449869319652e-04
336 4.6367437473964195e-04 -4.3037402177154699e-04 7.8543109754606645e-04
337 -8.1185760348305208e-04 2.0490600525458630e-04 5.4385092964069333e-04
338 -3.5530118897404575e-04 5.1274019790958610e-04 7.9125570815508106e-04
339 -9.8618304274535645e-05 4.5929254879977253e-04 -8.9643346630358090e-04
340 3.6191338355711625e-04 -3.0747838090903606e-04 -8.9427029816716290e-04
341 3.8681410180155647e-05 -2.6316712614044382e-04 -9.8089367750627530e-04
342 -9.2171984488736796e-04 3.5167858299133892e-04 -9.4981377914840322e-05
343 1.8714065128862709e-05 -3.6713697583210040e-04 9.4633687110253579e-04
344 -5.2335933777481662e-04 6.1178650700545630e-04 5.9370314126499309e-04
345 -5.3018602893789839e-04 7.1305307114985625e-04 4.5181070176001926e-04
346 -6.5170261149572026e-04 6.5488126971816117e-04 3.6632243731120351e-04
347 6.0234407554393015e-04 -3.6431854640871236e-04 -7.1817749080899703e-04
348 7.1487375864818126e-04 -3.7553050513178672e-04 -5.9164407945981102e-04
349 5.3279111182547132e-04 5.1943749247429733e-04 6.7302064658184631e-04
350 6.0510964587245919e-04 3.9713591141094271e-04 6.9633498374432011e-04
351 6.4843050802642927e-04 4.9068410338542773e-04 5.8254637304154349e-04
352 7.1780060179008510e-04 3.5327629778487491e-04 6.0191479314906048e-04
353 7.4765321169666544e-04 4.4797356402709012e-04 4.8518481421003397e-04
354 -6.4221030134219582e-04 -7.2807363453951390e-04 2.0309882190733096e-04
355 2.5462962809699220e-04 5.5287483060896948e-04 -8.0344083926175503e-04
356 1.2803747073689478e-04 5.6568894141056036e-04 -8.2575164786415989e-04
357 -6.7845556401423582e-04 3.2298560987416324e-04 -6.6323356525987498e-04
358 5.2047301592208399e-04 -8.2842905563315118e-04 -1.6330518549374537e-04
359 4.5325638274004037e-04 -8.3827519701610057e-04 -2.8019084880410896e-04
360 -8.1888399433487839e-04 4.8051111115891474e-04 2.8869579970478883e-04
361 -1.2858598845314582e-04 -5.3264588103525527e-04 8.4949108264946579e-04
362 -1.7192561519218476e-04 3.4220878473735852e-04 -9.3893633669022466e-04
363 -2.1567227406278492e-04 5.2129182880797744e-04 8.3707692134602613e-04
364 -5.1276701011510300e-04 8.2983859018429700e-04 -1.7284379741644873e-04
365 1.5616738551648402e-04 5.4759612735130400e-04 8.3369960254900302e-04
366 -3.5012230913923745e-04 -2.7027739079828517e-05 9.5221907820606914e-04
367 -7.0490234441413857e-04 -6.3618014268058607e-04 2.9078385933963393e-04
368 2.0895323599124188e-04 6.5701729653038150e-04 7.3298996388172191e-04
369 8.8756948530480982e-05 6.3581508456626748e-04 7.7492022421490751e-04
370 6.9324763419489324e-04 -2.5529578672448428e-04 -6.8014541223589207e-04
371 -5.4066142755683510e-04 1.6703003046345327e-04 8.3641462234176249e-04
372 -6.6596435642850098e-04 1.3291434858069511e-04 7.4284926300055218e-04
373 5.5562491981824707e-04 8.1791245596351148e-04 -5.2827611486700224e-05
374 -1.2693416445872774e-04 -8.5417804948206911e-05 1.0060027494763362e-03
375 -5.9653216936418373e-05 -1.7223097158278696e-04 1.0007652191270199e-03
376 -2.9916690881440764e-04 -9.1737637168480394e-04 2.3304637860304054e-04
377 -4.3074318517633019e-04 -8.7918633757488320e-04 1.6200562564344626e-04
378 -9.1871541640292805e-04 2.0085142089288540e-04 3.2135239149189588e-04
379 4.1844235284640763e-04 6.4950786181768288e-04 -6.3873749830216234e-04
380 1.6439487762606397e-04 -7.1321842865667618e-04 -6.8767692765690596e-04
381 2.8267429547523722e-04 -7.4052750307179445e-04 -6.1209774240764917e-04
382 -8.9492335137093381e-04 -3.7672764833141149e-04 -2.0071503087565722e-04
383 -8.2705244145428653e-04 -4.6778340310503730e-04 -2.8737544863802081e-04
384 -7.6748871728104194e-04 -5.7714240073825931e-04 -2.5030299765555934e-04
385 -1.7141719726828584e-04 -9.3293851325116110e-04 2.9565426511575537e-04
386 -6.6103636270665566e-04 5.2793643350174417e-04 -5.2924379896987072e-04
387 -7.6030780625907664e-04 4.6947400408115886e-04 -4.3843346713929936e-04
388 8.7244647037460865e-04 2.5078435553099298e-04 -4.0826060717782925e-04
389 -9.0348371842616498e-04 3.2772076233144535e-04 -2.4381320734203531e-04
390 -5.0549982204997092e-04 8.5010742632282319e-04 -3.8302359299672792e-05
391 -3.9811012328863762e-04 9.0003044520218405e-04 -1.0873977684257596e-04
392 -5.9948379945331967e-04 7.8663833644370947e-04 3.2485620171836809e-05
393 -5.8915009181535901e-04 -7.8712469312207053e-04 -1.2568718356253977e-04
394 -4.9790822229003905e-04 -8.5433408028837057e-04 -5.8763769271078559e-05
395 8.1702903923978675e-05 9.8496503247374003e-04 -5.3810096594602164e-05
396 2.1420795201701874e-04 9.6627880467083723e-04 -1.5649281682548941e-05
397 5.2515110379114166e-04 3.3013063292971654e-04 -7.9500841020313246e-04
398 2.4965338863930928e-04 -2.9869811924583116e-04 9.3702415587692167e-04
399 3.6932278511667263e-04 -2.3525419580659176e-04 9.1495411652771515e-04
400 -2.7027093921089691e-04 6.2147989531249784e-04 7.4260427293961644e-04
401 -1.5855259939306996e-04 6.1490390868133946e-04 7.8073909140277133e-04
402 3.1608255589649976e-04 -6.1410526210305886e-04 7.3202228043073715e-04
403 6.4829749829761621e-04 2.7268254014570134e-04 7.1837286358940398e-04
404 6.6336148430249037e-04 5.9493068870740396e-04 4.4745515043483574e-04
405 -3.1057381026453426e-04 -9.3589506053714416e-04 1.0079798930704890e-04
406 2.5682633249319502e-04 -2.7447335796358451e-04 -9.4219824615617205e-04
407 3.5757890495248187e-04 -1.9679463735327392e-04 -9.2800322124648885e-04
408 8.8354391725657772e-05 4.6070396850188012e-04 -8.9677521480756111e-04
409 -8.8140407036625180e-04 4.2775985872544410e-04 1.5300073953804081e-04
410 -4.4908311176784533e-04 8.1059550443725857e-04 3.5849498444234703e-04
411 5.5077364956645147e-04 4.3550234156813878e-04 -7.1780916425681575e-04
412 4.5773773671755290e-04 6.4205589064555296e-04 6.1822673973827675e-04
413 8.0607723203745814e-04 3.1286908137083180e-04 4.9865979755567562e-04
414 8.3263209862726969e-04 3.8959359058077990e-04 3.8004408377035394e-04
415 3.5004232873114020e-05 -1.5245225518896184e-04 -1.0050933303858563e-03
416 -9.6660318687212087e-04 2.1157913351774234e-04 -4.0210429038398595e-05
417 -6.8564773141750304e-05 3.4052977900502504e-04 -9.5307738687690159e-04
418 -1.3090985302391129e-04 2.3789555297638876e-04 -9.7875518992340425e-04
419 3.2766319538202224e-05 1.6588845955551825e-04 -1.0020287235378920e-03
420 -5.1799978403101968e-05 -7.1816005101071426e-05 -1.0136645640869584e-03
421 -9.3495011163002373e-04 3.2219539853140617e-04 5.1795499858889822e-05
422 7.9906034080917373e-04 -2.5701919213142323e-04 -5.4253297442381386e-04
423 8.0726744621493324e-04 -3.7354377619929272e-04 -4.5009542066846330e-04
424 2.4827426262370538e-04 9.5244014335317800e-04 1.0933576665519814e-04
425 2.6243694768323100e-05 -6.8142042367530704e-04 -7.4115236061688826e-04
426 3.3757570335521827e-05 -5.4622220215908436e-04 -8.5020189949378498e-04
427 -7.7484887572716772e-05 -5.9466873854001107e-04 -8.1096819085102467e-04
428 4.0488312090570627e-04 -8.8998167323700128e-04 -1.6550437946000115e-04
429 3.1674062335949443e-04 -9.0149796710164911e-04 -2.7047759383962703e-04
430 3.6095000876201831e-04 -8.4124893323684268e-04 -3.9093094952033481e-04
431 -6.0396510334455116e-04 -7.1700154647134776e-04 3.2913842493881252e-04
432 -6.4582104187841673e-04 -6.2150547184128345e-04 4.3549572712910719e-04
433 1.3710435813910689e-04 -3.3553205723744887e-04 -9.4792791477848928e-04
434 -2.0318656253279060e-06 5.5605523767443717e-04 -8.4381268217796385e-04
435 7.1527336706669268e-05 6.6601020945715960e-04 -7.5066759987522057e-04
436 8.7846320851390971e-04 2.6599416975776918e-04 3.8409400773101220e-04
437 8.9648484762663069e-04 3.3954914702143525e-04 2.5663136393535776e-04
438 8.4498896608797608e-04 4.5097384050203740e-04 2.5870518716097977e-04
439 7.5411845861164195e-04 2.1512548028561660e-04 6.2411074592328894e-04
440 -5.7184419921065791e-04 7.5294747949859416e-04 3.0278728900649826e-04
441 -6.9049841379789385e-04 6.7989043428250812e-04 2.1154275363765643e-04
442 6.7955083539046059e-04 -1.1608492475414409e-04 7.3340418532733432e-04
443 7.2796765299728628e-04 -2.3948970630060631e-04 6.4763386300428164e-04
444 8.1064920613578789e-04 -2.4146701186488249e-04 5.3235145536364558e-04
445 7.4199109846170039e-04 -3.5903971163147799e-04 5.6706862025898252e-04
446 8.1941876705596555e-04 -3.5652145335224002e-04 4.4184423067134129e-04
447 7.3841289817448447e-04 -4.7662488409775245e-04 4.7197937958110724e-04
448 6.5554477668703856e-04 -4.7603726617296270e-04 5.8809899116609951e-04
449 8.0099659668708494e-04 -4.7978952390130330e-04 3.4287010202166130e-04
450 8.7462242792746780e-04 -3.5727974382970275e-04 3.0871585446131170e-04
451 6.4201608509495639e-04 -5.9024712986845260e-04 4.8670753086983611e-04
452 6.7221464800182741e-04 1.3469801646852768e-04 7.3750807226703470e-04
453 -5.5732542815126434e-04 -8.1002168582869686e-04 1.2563529590740009e-04
454 2.3156234630800892e-05 -4.0485507934939801e-04 -9.2974999657835749e-04
455 8.9566611657838240e-04 4.0366378127324994e-04 1.3030688277876080e-04
456 4.6482411611747026e-04 -2.1400254422175138e-04 -8.7274901847469446e-04
457 5.0186847547158912e-04 5.2812126695541502e-04 -6.9036020322923910e-04
458 6.1401995491439034e-04 -2.3584478402137590e-04 7.6418441703001577e-04
459 1.3936771395098649e-04 9.6025476639980680e-04 2.0197259174000422e-04
460 6.2180802971014001e-04 6.9678700344557773e-04 3.3914228926239693e-04
461 3.8408329949840699e-04 5.4397527008214353e-04 -7.5418568703424134e-04
462 -4.2042791871329383e-04 7.0244149536404269e-04 5.7302388269033931e-04
463 7.6832660361910788e-04 -1.3030650166964285e-04 -6.3038658171353534e-04
464 8.7638698633896259e-04 -2.5447032462112259e-04 -3.9803296358848465e-04
465 8.7027709799701266e-04 -3.6490337964089383e-04 -3.1205362402231967e-04
466 3.5301268540394655e-06 8.2254940728617354e-04 -5.6693081504346804e-04
467 9.2438091588691637e-04 -2.4573523400907510e-04 -2.6691387295094165e-04
468 9.1087083701270354e-04 -3.5527781883334882e-04 -1.6972852260498333e-04
469 1.4568167410971894e-04 3.5302558576631125e-04 -9.3934217257025726e-04
470 8.4637295494620650e-04 -4.7236899541559107e-04 2.1432486924058874e-04
471 9.1030490441443746e-04 -3.4965617818307550e-04 1.8210476898302986e-04
472 1.9669058197167828e-04 7.7414806627833352e-04 6.0283586602298414e-04
473 1.4866190771448143e-04 -2.0617852753666537e-04 -9.8388850355113182e-04
474 2.2757805136122626e-04 -8.9390728247552799e-04 -3.7317533736217666e-04
475 5.5872292959284963e-04 7.6873862279403470e-04 -2.8575090725068255e-04
476 3.2366915729705186e-04 7.1615749525748057e-04 6.2018509781698854e-04
477 2.8358594128482866e-04 7.2052683373901834e-04 -6.3544923924784664e-04
478 -1.9087816768049363e-04 -5.5840021539575171e-04 -8.1801360553404405e-04
479 -1.7391410889330670e-04 -6.6950465537411502e-04 -7.3022856808338369e-04
480 -3.9160676799607089e-04 8.2889883629708454e-04 -3.8433465701859877e-04
481 1.9223869363695022e-04 6.5880445366954315e-04 -7.3459755551699040e-04
482 7.5607885020773254e-04 -5.9738799914554690e-04 2.4368070742055662e-04
483 8.8239601929380074e-04 -4.4296287152116749e-04 8.8598983928278813e-05
484 9.3154576276925801e-04 -3.3267191676990119e-04 5.8495365677128031e-05
485 5.7870908749807243e-04 -2.3985251262900731e-04 -7.9019497434259557e-04
486 3.9100151780461590e-04 1.6316169473419085e-04 -9.2023315010174116e-04
487 9.8058877653997589e-04 1.2980299975086436e-04 -6.0765137094180313e-05
488 9.4593209286250113e-04 2.7369106520337645e-04 -1.1877074763746050e-04
489 9.6249890404629898e-04 2.3175881468578242e-04 5.7319944287307252e-06
490 8.9236469304046636e-04 4.1967307224953981e-04 -9.7591423469785030e-05
491 3.4765980328672116e-04 9.2698310176514496e-04 1.0133034027873333e-05
492 2.9401949245565321e-04 9.3756070586259758e-04 -1.2842013309689594e-04
493 4.2974254799025516e-04 8.8852905142714877e-04 -7.8879268794133166e-05
494 9.0584738863825579e-04 -4.0025759494054377e-04 -3.5143332854845180e-05
495 9.4972697481356008e-04 -2.7733682027510423e-04 -5.5504742010231059e-05
496 -3.8628443860299808e-04 9.1105819675935324e-04 2.1716591567148013e-05
497 9.8049481917579680e-04 1.2147160088079322e-04 7.7171577058513899e-05
498 6.7100960901141115e-04 6.7911807701648915e-04 -2.7072529648920058e-04
499 9.8044398526331593e-04 -1.3491402183603640e-04 -6.3196446013744881e-05
500 9.6351526222010952e-04 -1.1179271222968193e-04 2.0900592026176892e-04
501 9.2613916227249121e-04 -1.2775887501235208e-04 -3.3847188392008721e-04
502 8.5762672783808711e-04 1.2804694971429615e-04 -4.9359524177161780e-04
503 8.6339057442038931e-04 -1.2474155051293333e-04 4.8478403144926901e-04
504 4.3618152191081215e-04 1.0595512619206065e-04 9.0847116763878078e-04
505 4.2015232754613905e-04 3.3043843169226094e-04 8.5798185514599596e-04
506 6.5491938299962606e-04 -3.6094338753085313e-04 6.6985509297447861e-04
507 3.0495121286686083e-04 -9.3661554032779245e-05 9.6443544418737994e-04
508 5.4626832909050360e-05 -1.1066067316864480e-04 1.0106890514912639e-03
509 1.5991803872363863e-04 -2.0710317422917954e-04 9.8229933590447010e-04
510 2.5645758244344230e-04 -1.7498880173064156e-04 9.6648907271857721e-04
511 -2.0063203762961504e-04 6.7307080832182831e-04 -7.1835883840085752e-04
512 2.7283515874689538e-04 9.2050542949067388e-04 2.4872949592921566e-04
513 5.7001264774482344e-04 -8.1010209692149420e-04 -3.9613159839163899e-05
514 2.5782661764587190e-04 -9.5647130155374234e-04 3.5456103918007812e-05
515 2.9663043777391281e-04 -9.3282096301230705e-04 1.6132991461628273e-04
516 -5.5177330742679786e-04 5.6425271958686980e-04 -6.1540339345220749e-04
517 7.7301644712015640e-04 -5.7212452063701942e-04 -2.4667081052125379e-04
518 -1.4471406685170296e-04 -9.7960017215873254e-04 -3.9381437026328945e-05
519 -2.9252724153092856e-04 -9.4630262052442372e-04 -4.5793540013654758e-05
520 -3.3243706420340663e-04 -9.1678483617400202e-04 -1.8136537553990466e-04
521 -7.8547204486192977e-04 5.2269707945948784e-04 -3.0841806835865627e-04
522 -9.7906895918477266e-04 9.0067381734460235e-05 -1.2017672225152242e-04
523 7.7992755696032197e-04 5.9948460547907720e-04 1.1707334919350759e-04
524 -7.9426003854860439e-04 -5.4473973447918735e-04 2.3843016156478800e-04
525 7.6942463127058756e-04 5.1692065519477477e-04 3.5880023515051266e-04
526 4.8811125460124699e-04 -7.6945458132842435e-04 -4.0133971715753617e-04
527 -9.4497267812004967e-04 -2.7353479031586280e-04 -1.1772598120608543e-04
528 -9.3462650878491170e-04 -7.2456819380995575e-05 3.2883269443595512e-04
529 -9.1062525892518314e-04 5.2868161042024140e-05 3.9704078524532951e-04
530 -8.4196414216818137e-04 5.7740846021054583e-05 5.3466712381637280e-04
531 -7.7246967672408922e-04 -6.1025433849682634e-04 -1.1503427372900292e-04
532 -9.7110390134652841e-04 -6.7840616245098625e-05 1.8706321727695585e-04
533 -7.3414684366753078e-04 5.3700309154173316e-04 4.0218167568258046e-04
534 -6.9680816031158273e-04 7.0257061055368185e-04 -1.0896001197897366e-05
535 -2.3491768186674242e-04 -9.2075800024781970e-04 -2.8957027123796938e-04
536 6.2251428920312023e-04 7.5390042412414450e-04 -1.6124952800611843e-04
537 -1.3631846878968022e-04 -8.9007088691111927e-04 4.2649673735262650e-04
538 -4.2880837612739330e-05 9.8508001475742374e-04 -8.7644350517597467e-05
539 -1.7311019398033822e-04 9.4462540145452060e-04 -2.4535220465663127e-04
540 6.1891974172860971e-05 9.6915849094337506e-04 -1.9988493342113655e-04
541 -9.3109904201253582e-04 2.8363264793366269e-04 1.8712117658121707e-04
542 -8.7265238775125148e-04 -4.2666951010635572e-04 1.9972031471300643e-04
543 -8.0392555186780757e-04 -8.5526164701563688e-05 5.8924079709347433e-04
544 -7.5235070664995268e-04 3.9774872733218859e-05 6.6154958191218401e-04
545 -6.5461882071097004e-04 -5.2618411886305250e-04 -5.4096542078500712e-04
546 -7.4479949115821076e-04 -4.2608246122345509e-04 -5.0906465728181333e-04
547 -7.5088551746270427e-04 -3.0671947831202692e-04 -5.8515193044942748e-04
548 -6.5468895331077305e-04 -2.7886047608608112e-04 -7.0932556206126007e-04
549 2.6314644883605070e-04 -8.1247858134823631e-04 5.1828519297830527e-04
550 5.6609233959990324e-04 6.0130633064279300e-04 5.6153664652053628e-04
551 8.6560457046000678e-04 3.6346073258101963e-04 -3.2449482991771304e-04
552 8.7907998659821009e-04 -2.4116423272306327e-04 4.0095509766025433e-04
553 1.5773612661318387e-04 -7.7371023275820230e-04 6.1709836547383279e-04
554 -4.4384825690428604e-04 -6.4654833227626221e-04 6.2462011040414307e-04
555 -3.8274081636788905e-04 -5.6705619392399321e-04 7.3759861011901099e-04
556 -8.2888789541870581e-04 -4.3693087761765051e-04 3.3055218544298070e-04
557 -6.0120305867850847e-04 -7.2155713716005247e-04 -3.2373027627123917e-04
558 -7.2261162677249205e-04 2.5081658503904689e-04 6.4748481382936028e-04
559 -6.7673826008285605e-04 -4.5018148748719581e-04 5.8296495470242578e-04
560 -5.7963787310714586e-04 -5.6698483264890933e-04 5.8745353165963389e-04
561 6.3217649630876126e-04 4.7962136875967114e-04 -6.1140597718959474e-04
562 -3.2332603955701736e-04 -6.7995745216366114e-04 -6.6375007461753378e-04
563 -4.8551571934358898e-04 5.1177275715635114e-04 7.1535671626957273e-04
564 7.2332537653444190e-04 -4.8432037874867115e-04 -4.8789525070757765e-04
565 -6.5994155508231433e-05 -2.8403522503894887e-04 9.7346603090806168e-04
566 -1.0455979220143623e-04 -4.0527957752317515e-04 9.2362879360123097e-04
567 -2.0024064745540002e-04 -3.1227455230606311e-04 9.4467991683887839e-04
568 -1.6481664483019575e-04 -6.4726888836858529e-04 7.5368054611179072e-04
569 4.0691560694714238e-04 -6.6145547494162490e-04 -6.3393587872838863e-04
570 -7.0622395167079378e-04 -9.9374291368835811e-05 7.0723628147388909e-04
571 5.3756856311146272e-04 3.0902325320288109e-04 7.9491154502066980e-04
572 4.8156316544041512e-04 -3.3675729340464864e-04 -8.2108239324469950e-04
573 1.3211190667070219e-04 -3.4563757249787255e-04 9.4532824428588205e-04
574 -7.4243316982100039e-04 2.0003808561560782e-04 -6.4211108952037300e-04
575 1.5144626954707052e-04 -4.7288928666178149e-04 -8.8213443509559185e-04
576 -4.5211579506605748e-04 -4.3642861202513277e-04 7.8937850462778680e-04
577 -3.0683295262458798e-04 3.4941383719580207e-04 -8.9921169802716886e-04
578 -2.4121410835238849e-04 2.3642444205284913e-04 -9.5687939066701024e-04
579 -3.0706360227059570e-04 1.2793688568963829e-04 -9.5859080888278827e-04
580 -4.8832448368880347e-04 1.6563836768342547e-05 -8.8583025730761314e-04
581 4.5683251389377552e-04 -5.6506488193951653e-04 6.9557327101389351e-04
582 4.8494040369392914e-04 -3.0099129594807564e-04 8.3374692735691588e-04
583 -4.4259136831052112e-04 1.4195279191389097e-04 -8.9909863723281608e-04
584 -4.1088107416698292e-04 1.8389388651095869e-04 9.0731923002127651e-04
585 -4.4553941656787194e-04 7.3324893923794909e-05 9.0658712704358077e-04
586 -3.3809895627790392e-04 -4.1359236894544240e-04 -8.5817203189874974e-04
587 2.6742296621562638e-05 9.4618644252913596e-04 2.9831907160793195e-04
588 -3.8878788653309349e-04 -8.6908482715068860e-05 -9.3218633457131921e-04
589 -2.5773265447364937e-04 -6.2678937982476763e-05 -9.8063977223309816e-04
590 -1.8385336338847932e-04 -1.1197326509542193e-04 -9.9367255707492994e-04
591 -1.4941476369336782e-04 4.1839815943767048e-04 9.1019493099530246e-04
592 -5.1584073691022863e-04 7.8908097982770373e-04 -3.1072680136930191e-04
593 -2.3274401418287672e-04 9.6383954758130027e-07 9.8938193421462244e-04
594 3.6719286677758066e-04 2.2258208548362675e-04 9.1817201601384236e-04
595 -8.0045110788076886e-04 5.5889994411839736e-04 1.6930614116305020e-04
596 4.2151179057871746e-04 -8.7904291361444778e-04 1.8520279273781314e-04
597 9.6491611733899804e-05 4.3890617596216663e-04 9.0776462110835315e-04
598 3.2222464286977312e-04 8.9813792686180033e-04 -2.7111082251039510e-04
599 1.8616819971371037e-04 -6.6655477308309589e-04 7.3065938593508124e-04
600 -5.2510989320078271e-04 -8.0508751748042961e-04 2.4788378286364735e-04
601 -8.4053179621221838e-04 4.0588253672858886e-04 -3.3924751617421669e-04
602 -8.1138564002382568e-04 3.4522698460152425e-04 -4.6298287418853739e-04
603 -7.3650814646322174e-04 -5.3628532748079883e-04 -4.0173743962714452e-04
604 -9.0633806335090397e-04 1.4537641632150335e-04 -3.8149941289399421e-04
605 -4.0538240892924108e-04 -9.0371177042480118e-04 2.1614273945916577e-05
606 -3.1538675792119983e-04 8.4605773172966177e-04 4.1760389899516022e-04
607 4.7365509370527790e-05 1.4538798771577426e-04 1.0051309195688825e-03
608 -4.3886840842904953e-05 7.7017431675508341e-04 6.3916411077657997e-04
609 -7.4594704152672808e-04 -1.7367035567990958e-04 -6.4659701858682484e-04
610 9.4790283358626049e-04 2.5676316947162458e-04 1.3982476219715959e-04
611 4.4181048100021915e-04 -8.4639271704800383e-05 -9.0801718386115992e-04
612 9.1925686232806347e-04 1.2592252758864925e-04 3.5796070752520910e-04
613 -3.7130132449570699e-04 -8.6994042120103925e-04 -3.0424641267627395e-04
614 4.9392820818923041e-05 -7.9168667121312056e-04 -6.1187137699039967e-04
615 4.6069302783448556e-04 -8.7618825813164526e-04 -5.1120273353853013e-05
616 -6.7851850816774033e-04 -6.9570076025550194e-04 -2.0115090756135060e-04
617 -9.2758510194608339e-04 -2.4837234324781435e-04 -2.4903619970072840e-04
618 -6.1823114611786760e-04 4.5027633194686366e-04 -6.4705590861048492e-04
619 1.9018180214770182e-04 -9.4675958861911507e-04 -2.3242910166357386e-04
620 -3.2913739937609145e-05 -9.3591648477016267e-04 3.3430348419724359e-04
621 3.8885771381504965e-04 -7.6194025143674416e-04 -5.1522334239732575e-04
622 -2.3154097704366358e-04 -4.4323084860583911e-04 8.7967469469101358e-04
623 8.0007855949198374e-04 -4.7623623158886050e-04 -3.4976845535307879e-04
624 9.2346059664426695e-04 1.2901001939419606e-04 -3.4498199839163663e-04
625 -4.0346749371594808e-04 6.1076162154411850e-04 6.8602061311186615e-04
626 -2.5419051564214081e-04 -5.6477945163313135e-04 7.9576004700607640e-04
627 -9.4853093985977483e-05 5.3601816296327783e-04 8.5095599043364593e-04
628 4.7191394501253569e-04 8.6912943121871401e-04 4.9244308301169944e-05
629 -9.5359363917176844e-04 5.6861865227155706e-05 2.6796581107552754e-04
630 -5.8945877920946394e-04 7.7841911441463958e-04 1.6627901357718199e-04
631 -8.3004855869673027e-04 -1.9415539432878173e-04 -5.1894947322771114e-04
632 -4.0463539584944066e-04 8.7067870607558629e-04 -2.4766485014399321e-04
633 9.2223149210467897e-04 2.4998746213845800e-04 -2.6881273700053688e-04
634 -3.1771062045004195e-04 8.5660694786337448e-05 9.6028428184364862e-04
635 3.8471473369335339e-04 -9.1163863307076583e-04 6.0796279513495308e-05
636 -6.5968503701069748e-05 -9.6817663363780863e-04 2.0722522967740121e-04
637 -4.7771598096953740e-04 -6.1085714667071929e-05 8.9027401426148190e-04
638 4.3704747653853046e-04 2.4812741741786899e-04 -8.7708629739795642e-04
639 4.4043159972268240e-04 -1.1420758810681494e-04 9.0535765726273412e-04
640 -7.0441444280881736e-05 6.6428217907988426e-04 -7.5206190090002087e-04
641 -9.5139329006484186e-04 2.2375569825725357e-04 -1.6190958830419010e-04
642 -8.7609054469785100e-04 2.7954519025444032e-04 -3.7696373697424244e-04
643 2.8438037998562775e-04 -7.2387121548686192e-04 6.3272697363198213e-04
644 5.6289824033305970e-04 -4.6707990556431978e-04 6.8851197864672697e-04
645 6.0360177344707705e-04 2.2814763718519471e-04 -7.7361939171238325e-04
646 -2.0616639084869835e-04 1.1307544551052098e-04 9.8863441389816938e-04
647 2.7683289733739691e-05 5.4211705497235539e-04 8.5215615358858441e-04
648 -7.4218942947318388e-04 5.8896137174711111e-04 2.9189267996734987e-04
649 -2.6482406633707346e-04 9.5123710773548510e-04 7.1497437968339977e-05
650 9.2723591065046627e-04 -2.3630495438898254e-04 2.6589318927217715e-04
651 -4.6837530684479961e-04 -8.5271352176999825e-04 -1.9600245128049008e-04
652 -8.7192443502404201e-04 -3.4173822279931151e-04 -3.3070535886615043e-04
653 -1.9128368773317896e-04 1.2898653375228295e-04 -9.8957010292197232e-04
654 8.4794524616779731e-04 -4.6688553871555415e-04 -2.1864613182901208e-04
655 -7.2277883883465797e-04 4.1058190998760646e-04 -5.5305911400224043e-04
656 6.6260181559495948e-04 -1.2462040887870141e-04 -7.4751046000444377e-04
657 -7.4809678204939298e-04 -5.3871981080087859e-04 3.7263894908710579e-04
658 -3.5224618940787904e-04 2.7418299111748330e-05 -9.5086628882531758e-04
659 -1.6449083845217847e-04 1.2534840966323364e-05 -1.0037733961341072e-03
660 -4.3494380555963709e-05 -4.8224086822593959e-06 -1.0159560104658063e-03
661 8.4840682150472743e-04 -5.1194459336594206e-04 -4.5962863164354235e-06
662 4.6047646070739864e-05 -2.5677628338321019e-04 9.8264987100578870e-04
663 5.0531253663162775e-04 8.3359341566036256e-04 -1.7670346163012503e-04
664 -2.7549192743546257e-04 9.4957111400869459e-04 -4.6241786792468952e-05
665 -2.9206109293169411e-04 9.2882260157247818e-04 -1.8251200933106317e-04
666 -7.5632249143550175e-05 1.2732712565268389e-04 -1.0066122463694175e-03
667 2.5685290088338624e-04 -8.2796868137785962e-04 -4.9429212793406169e-04
668 -5.6763609437681436e-04 4.3435293943940071e-05 8.3376003714017311e-04
669 -8.2502282141469377e-04 -3.1773465970732562e-04 -4.5887162822052786e-04
670 -4.8759775754293874e-04 8.5673918938931827e-04 9.1223214019634918e-05
671 -9.5655141005291896e-04 1.5830512938819856e-04 2.0195101517062988e-04
672 5.5942301911156473e-04 -3.5940588622901149e-04 7.5535217176998174e-04
673 -1.7351288167542563e-05 2.4670974926589722e-04 -9.8537493568103050e-04
674 -1.9820139055033240e-04 -9.5674508837481533e-04 1.6954839201577013e-04
675 4.1187244207621193e-04 7.3753489234374770e-04 5.3037219087159510e-04
676 7.3302198825351715e-05 7.2820867036755058e-04 6.8680843188800714e-04
677 4.8619105495765759e-04 2.0916012419126722e-04 8.6137702234811032e-04
678 -4.9093449711579216e-04 -7.8018467650156501e-04 3.7325265982057998e-04
679 2.9505736294631497e-04 -7.3565393931448596e-05 -9.6928733152798778e-04
680 3.9005303826773096e-04 -6.6706706466212508e-04 6.3814021219805713e-04
681 -8.7416671252878012e-04 1.5716600332893498e-04 4.4866029574573078e-04
682 -8.9440061609737478e-04 4.2259621057159257e-04 1.6268630611589363e-05
683 -6.7152740822518805e-05 2.9994663399508455e-06 1.0146830038462841e-03
684 3.4397917346813293e-04 -9.2767011804106034e-04 -5.7609236733816547e-05
685 4.0347796921763477e-04 8.8520314510845822e-04 -1.8377258892263222e-04
686 1.6802112263460895e-04 -7.9782221398282940e-04 -5.7818243221561389e-04
687 1.7288204408422915e-04 9.6566901548898298e-04 -1.2975477823730445e-04
688 -8.0686110180825624e-04 -4.2076901842937829e-04 -3.9976303932364663e-04
689 -5.4110989514302211e-04 -6.4911875023827348e-04 5.3053685833713451e-04
690 5.7674913211225027e-04 -6.8874853850731165e-04 4.2954136483557432e-04
691 9.5460320972812619e-04 -2.2568922064487241e-04 1.4402853677744022e-04
692 -6.9000173447235141e-04 -5.2871726642888769e-04 4.8732782532474585e-04
693 9.2750047357764633e-04 2.2253240076740974e-04 2.7234288641959887e-04
694 -1.7275658518088472e-04 9.6782705740742537e-04 -1.1552561686517328e-04
695 9.0262755189314764e-04 3.5444553111135964e-04 -2.0353552849652887e-04
696 -5.0525813375987014e-05 6.5929595669208586e-04 7.5984012446356534e-04
697 -3.3065496502687514e-04 -4.7883228065326696e-04 8.2380355290179966e-04
698 9.2617454647612551e-04 3.5206220870926129e-04 1.3159284584345915e-05
699 -4.8611964924146064e-04 -5.3792928094584485e-04 6.9416886368366560e-04
700 -6.6312581008333459e-04 5.8436205097830498e-06 7.5570451465466703e-04
701 5.6538597947857318e-04 -5.6111494887912006e-04 6.0639162871136873e-04
702 -6.8971963840904903e-04 -6.3685892164665355e-04 -3.2261300647840020e-04
703 -7.6708816261361666e-04 3.0060838445207153e-04 -5.6334382599345387e-04
704 4.8995666396247179e-05 3.4389165714895383e-04 -9.5309312059178657e-04
705 3.0318596495851487e-04 6.2501919814845325e-04 -7.2501218911090665e-04
706 -3.0957168255131952e-04 6.8886220233534373e-04 6.5762490110159676e-04
707 1.1144639500200662e-04 -9.2475738433064631e-04 -3.4610595214025394e-04
708 -6.7286333358370146e-04 7.1805543324033379e-04 1.0073337708052879e-04
709 9.2081293721700599e-06 7.3566198174798421e-04 -6.8050671333562732e-04
710 -4.0228542534839675e-04 7.7564276911568856e-04 4.7729583754068874e-04
711 -9.2358882050351423e-04 2.2164007917488296e-04 -2.8361246664126933e-04
712 7.7043652792537648e-04 1.0408880060921573e-04 6.3172958106152055e-04
713 -2.1464875625881884e-04 -7.5288773815245164e-04 -6.2362405060514565e-04
714 6.3394104715946465e-04 3.4869068100169549e-04 -6.9660751712544307e-04
715 -2.1363957708746698e-04 -9.6526934611353089e-04 5.6027847259806670e-05
716 -2.5030636536920483e-04 4.6484710026424744e-05 -9.8282453162165336e-04
717 -4.0361684285811434e-04 -8.9990322327090650e-04 -8.9435855765047950e-05
718 4.9470021790375639e-04 -2.0395082700095768e-04 8.5741776384967987e-04
719 7.2592584145448810e-04 -5.6515359045897510e-04 3.7791933452420450e-04
720 8.3962466911095671e-04 5.0303921351103984e-04 1.4987774783449499e-04
721 2.4253819785465363e-04 -1.6718652473084457e-04 -9.7134511219268990e-04
722 -5.7099270608928230e-04 -7.7679856029880495e-04 -2.3143447830578439e-04
723 3.3917285666809924e-05 8.6013718481882094e-05 -1.0127959838783307e-03
724 -1.8743743443588480e-04 7.1111893838027827e-04 6.8350155194832557e-04
725 8.7188507751935170e-04 -4.5824912514043521e-04 -1.0524373334958244e-04
726 5.7775031548262389e-04 2.0569831073414871e-04 7.9979914634559462e-04
727 7.8304422015679502e-04 5.6157055210628859e-04 2.3337519382410623e-04
728 5.3955890693760541e-04 5.9039633914352400e-04 -5.9972178418579941e-04
729 4.7062616566764380e-04 9.7395930554118474e-05 -8.8992969374330046e-04
730 7.0796277917009121e-04 6.1880260298955954e-04 3.1693649984658229e-04
731 -2.5693494035455031e-04 -6.1940590757404181e-04 -7.4802834861560261e-04
732 3.4015079876999492e-04 6.2313017064572417e-04 7.0962637343620946e-04
733 -7.1817236038877782e-05 9.7010170581758809e-04 -1.8292857317759239e-04
734 -2.3275703440954652e-04 -4.7561577414281499e-04 -8.6025374691958212e-04
735 9.5109664583217150e-04 -2.3169541904000750e-04 -1.5378433085600738e-04
736 9.6446013035163800e-04 -2.2216111343075827e-04 3.0146614738402753e-05
737 -1.3676303498733329e-05 -5.2783057549402065e-05 1.0157999092449202e-03
738 -4.9937355380705393e-04 -8.5343017170913256e-04 4.9989145101318011e-05
739 4.9061222232779081e-04 2.1196977416689246e-04 -8.5759538733606411e-04
740 -7.6378339260999538e-04 1.3747556703008504e-04 6.3203463629860968e-04
741 -1.4565345193222535e-04 3.0615693134325466e-05 1.0054473811694825e-03
742 -5.5963164533831371e-04 -6.9912680048115836e-04 4.3347895341616156e-04
743 -5.9720668878497907e-06 4.4134194715471858e-04 -9.1068035546250554e-04
744 2.9813625257259159e-04 -9.3132502896348308e-04 -1.6065075512331642e-04
745 -8.9565300276325628e-05 -6.7762696452493515e-04 -7.3586807514341881e-04
$EndNodes
$Elements
1486
1 2 2 0 0 410 440 345
2 2 2 0 0 421 541 409
3 2 2 0 0 409 682 421
4 2 2 0 0 545 603 546
5 2 2 0 0 426 427 294
6 2 2 0 0 294 454 426
7 2 2 0 0 265 682 409
8 2 2 0 0 24 41 4
9 2 2 0 0 3 24 4
10 2 2 0 0 238 642 602
11 2 2 0 0 520 651 613
12 2 2 0 0 653 666 659
13 2 2 0 0 404 460 98
14 2 2 0 0 222 482 219
15 2 2 0 0 40 463 9
16 2 2 0 0 608 724 696
17 2 2 0 0 435 709 69
18 2 2 0 0 413 439 29
19 2 2 0 0 345 710 410
20 2 2 0 0 422 463 40
21 2 2 0 0 98 550 404
22 2 2 0 0 95 724 608
23 2 2 0 0 4 41 5
24 2 2 0 0 232 701 581
25 2 2 0 0 490 698 488
26 2 2 0 0 29 436 413
27 2 2 0 0 416 421 342
28 2 2 0 0 312 595 441
29 2 2 0 0 41 486 5
30 2 2 0 0 405 605 519
31 2 2 0 0 409 595 265
32 2 2 0 0 69 481 435
33 2 2 0 0 434 743 339
34 2 2 0 0 342 641 416
35 2 2 0 0 485 656 370
36 2 2 0 0 89 587 90
37 2 2 0 0 108 466 317
38 2 2 0 0 378 629 529
39 2 2 0 0 581 680 232
40 2 2 0 0 281 434 339
41 2 2 0 0 638 739 486
42 2 2 0 0 659 666 660
43 2 2 0 0 345 440 346
44 2 2 0 0 22 44 25
45 2 2 0 0 9 463 8
46 2 2 0 0 44 81 25
47 2 2 0 0 459 587 89
48 2 2 0 0 127 670 630
49 2 2 0 0 508 662 509
50 2 2 0 0 375 662 508
51 2 2 0 0 492 598 103
52 2 2 0 0 604 642 238
53 2 2 0 0 507 510 399
54 2 2 0 0 488 698 489
55 2 2 0 0 34 473 415
56 2 2 0 0 399 639 507
57 2 2 0 0 603 688 546
58 2 2 0 0 316 541 421
59 2 2 0 0 647 696 627
60 2 2 0 0 403 439 352
61 2 2 0 0 221 603 545
62 2 2 0 0 595 648 441
63 2 2 0 0 412 550 98
64 2 2 0 0 411 714 397
65 2 2 0 0 486 739 729
66 2 2 0 0 696 724 401
67 2 2 0 0 247 482 222
68 2 2 0 0 397 714 645
69 2 2 0 0 613 651 212
70 2 2 0 0 207 745 425
71 2 2 0 0 98 675 412
72 2 2 0 0 219 482 230
73 2 2 0 0 560 692 432
74 2 2 0 0 432 689 560
75 2 2 0 0 454 575 426
76 2 2 0 0 352 439 413
77 2 2 0 0 415 420 2
78 2 2 0 0 40 464 422
79 2 2 0 0 89 512 459
80 2 2 0 0 425 614 207
81 2 2 0 0 377 600 453
82 2 2 0 0 89 90 88
83 2 2 0 0 80 466 108
84 2 2 0 0 520 717 651
85 2 2 0 0 602 703 238
86 2 2 0 0 103 687 492
87 2 2 0 0 253 491 424
88 2 2 0 0 69 709 466
89 2 2 0 0 424 512 253
90 2 2 0 0 369 696 647
91 2 2 0 0 581 701 644
92 2 2 0 0 630 670 392
93 2 2 0 0 32 656 485
94 2 2 0 0 459 512 424
95 2 2 0 0 90 91 88
96 2 2 0 0 427 478 294
97 2 2 0 0 488 695 490
98 2 2 0 0 554 699 560
99 2 2 0 0 67 80 79
100 2 2 0 0 252 454 294
101 2 2 0 0 253 628 491
102 2 2 0 0 529 681 378
103 2 2 0 0 519 715 405
104 2 2 0 0 440 441 346
105 2 2 0 0 605 717 519
106 2 2 0 0 403 452 439
107 2 2 0 0 507 639 21
108 2 2 0 0 565 567 566
109 2 2 0 0 433 454 341
110 2 2 0 0 67 466 80
111 2 2 0 0 555 697 576
112 2 2 0 0 491 628 493
113 2 2 0 0 389 641 342
114 2 2 0 0 429 619 474
115 2 2 0 0 40 501 464
116 2 2 0 0 576 699 555
117 2 2 0 0 311 600 377
118 2 2 0 0 567 622 566
119 2 2 0 0 433 575 454
120 2 2 0 0 378 671 629
121 2 2 0 0 79 540 103
122 2 2 0 0 341 473 433
123 2 2 0 0 673 704 68
124 2 2 0 0 462 710 345
125 2 2 0 0 557 722 616
126 2 2 0 0 573 662 343
127 2 2 0 0 370 656 463
128 2 2 0 0 341 454 252
129 2 2 0 0 616 702 557
130 2 2 0 0 6 26 7
131 2 2 0 0 464 501 467
132 2 2 0 0 433 473 406
133 2 2 0 0 8 45 37
134 2 2 0 0 466 709 317
135 2 2 0 0 457 461 379
136 2 2 0 0 84 512 86
137 2 2 0 0 19 452 33
138 2 2 0 0 380 614 425
139 2 2 0 0 83 540 79
140 2 2 0 0 398 510 509
141 2 2 0 0 609 631 137
142 2 2 0 0 18 442 36
143 2 2 0 0 26 45 7
144 2 2 0 0 565 566 343
145 2 2 0 0 80 83 79
146 2 2 0 0 560 689 554
147 2 2 0 0 134 137 136
148 2 2 0 0 68 469 42
149 2 2 0 0 659 716 653
150 2 2 0 0 619 707 474
151 2 2 0 0 497 610 39
152 2 2 0 0 137 138 136
153 2 2 0 0 283 573 343
154 2 2 0 0 506 644 448
155 2 2 0 0 499 735 31
156 2 2 0 0 81 97 25
157 2 2 0 0 45 46 37
158 2 2 0 0 585 668 637
159 2 2 0 0 495 735 499
160 2 2 0 0 399 510 398
161 2 2 0 0 509 573 398
162 2 2 0 0 442 443 36
163 2 2 0 0 1 607 314
164 2 2 0 0 29 612 436
165 2 2 0 0 547 631 609
166 2 2 0 0 360 595 409
167 2 2 0 0 421 682 342
168 2 2 0 0 426 575 327
169 2 2 0 0 123 577 235
170 2 2 0 0 339 743 417
171 2 2 0 0 7 45 8
172 2 2 0 0 3 723 24
173 2 2 0 0 418 666 653
174 2 2 0 0 59 60 58
175 2 2 0 0 620 636 193
176 2 2 0 0 42 469 47
177 2 2 0 0 65 67 66
178 2 2 0 0 509 662 573
179 2 2 0 0 470 482 247
180 2 2 0 0 368 476 472
181 2 2 0 0 530 740 337
182 2 2 0 0 253 512 84
183 2 2 0 0 455 698 282
184 2 2 0 0 61 65 62
185 2 2 0 0 59 61 60
186 2 2 0 0 91 472 88
187 2 2 0 0 90 92 91
188 2 2 0 0 19 442 18
189 2 2 0 0 464 465 423
190 2 2 0 0 706 724 118
191 2 2 0 0 456 611 32
192 2 2 0 0 379 477 61
193 2 2 0 0 417 743 704
194 2 2 0 0 314 683 1
195 2 2 0 0 442 458 443
196 2 2 0 0 11 28 12
197 2 2 0 0 61 62 60
198 2 2 0 0 118 724 95
199 2 2 0 0 22 25 23
200 2 2 0 0 247 483 470
201 2 2 0 0 281 640 434
202 2 2 0 0 197 667 474
203 2 2 0 0 86 512 89
204 2 2 0 0 417 704 673
205 2 2 0 0 451 690 230
206 2 2 0 0 27 442 19
207 2 2 0 0 637 668 229
208 2 2 0 0 60 475 58
209 2 2 0 0 489 610 497
210 2 2 0 0 307 573 283
211 2 2 0 0 61 477 65
212 2 2 0 0 65 66 62
213 2 2 0 0 544 740 530
214 2 2 0 0 230 719 451
215 2 2 0 0 18 452 19
216 2 2 0 0 268 569 269
217 2 2 0 0 32 485 456
218 2 2 0 0 627 696 401
219 2 2 0 0 24 42 41
220 2 2 0 0 20 27 19
221 2 2 0 0 330 461 457
222 2 2 0 0 506 672 644
223 2 2 0 0 472 476 87
224 2 2 0 0 468 495 494
225 2 2 0 0 88 472 87
226 2 2 0 0 121 577 123
227 2 2 0 0 327 575 276
228 2 2 0 0 422 464 423
229 2 2 0 0 47 63 49
230 2 2 0 0 458 506 443
231 2 2 0 0 232 690 451
232 2 2 0 0 28 487 12
233 2 2 0 0 80 107 83
234 2 2 0 0 608 696 676
235 2 2 0 0 356 481 355
236 2 2 0 0 138 238 136
237 2 2 0 0 137 139 138
238 2 2 0 0 729 739 26
239 2 2 0 0 81 99 97
240 2 2 0 0 46 50 37
241 2 2 0 0 463 656 8
242 2 2 0 0 443 444 36
243 2 2 0 0 68 704 469
244 2 2 0 0 24 68 42
245 2 2 0 0 16 503 30
246 2 2 0 0 65 69 67
247 2 2 0 0 67 79 66
248 2 2 0 0 676 696 369
249 2 2 0 0 59 379 61
250 2 2 0 0 90 93 92
251 2 2 0 0 464 467 465
252 2 2 0 0 441 708 312
253 2 2 0 0 483 484 471
254 2 2 0 0 427 479 478
255 2 2 0 0 245 564 244
256 2 2 0 0 470 483 471
257 2 2 0 0 473 721 406
258 2 2 0 0 555 699 554
259 2 2 0 0 47 469 63
260 2 2 0 0 63 355 49
261 2 2 0 0 62 64 60
262 2 2 0 0 80 108 107
263 2 2 0 0 107 539 83
264 2 2 0 0 139 140 138
265 2 2 0 0 99 100 97
266 2 2 0 0 81 236 99
267 2 2 0 0 46 51 50
268 2 2 0 0 443 445 444
269 2 2 0 0 24 419 68
270 2 2 0 0 69 466 67
271 2 2 0 0 79 103 66
272 2 2 0 0 65 477 69
273 2 2 0 0 547 548 321
274 2 2 0 0 93 94 92
275 2 2 0 0 467 468 465
276 2 2 0 0 333 664 649
277 2 2 0 0 55 498 56
278 2 2 0 0 56 498 72
279 2 2 0 0 12 499 31
280 2 2 0 0 63 356 355
281 2 2 0 0 108 110 107
282 2 2 0 0 139 141 140
283 2 2 0 0 100 101 97
284 2 2 0 0 236 248 99
285 2 2 0 0 81 594 236
286 2 2 0 0 51 52 50
287 2 2 0 0 192 515 195
288 2 2 0 0 445 446 444
289 2 2 0 0 477 481 69
290 2 2 0 0 94 95 92
291 2 2 0 0 93 96 94
292 2 2 0 0 63 408 356
293 2 2 0 0 108 111 110
294 2 2 0 0 110 117 107
295 2 2 0 0 139 154 141
296 2 2 0 0 141 142 140
297 2 2 0 0 51 53 52
298 2 2 0 0 100 102 101
299 2 2 0 0 236 250 248
300 2 2 0 0 445 447 446
301 2 2 0 0 52 388 50
302 2 2 0 0 277 622 567
303 2 2 0 0 95 608 92
304 2 2 0 0 94 118 95
305 2 2 0 0 93 104 96
306 2 2 0 0 51 561 53
307 2 2 0 0 408 434 356
308 2 2 0 0 53 54 52
309 2 2 0 0 445 448 447
310 2 2 0 0 108 317 111
311 2 2 0 0 141 143 142
312 2 2 0 0 142 225 140
313 2 2 0 0 102 166 101
314 2 2 0 0 250 325 248
315 2 2 0 0 100 258 102
316 2 2 0 0 53 55 54
317 2 2 0 0 447 449 446
318 2 2 0 0 236 505 250
319 2 2 0 0 104 105 96
320 2 2 0 0 53 57 55
321 2 2 0 0 55 56 54
322 2 2 0 0 448 451 447
323 2 2 0 0 14 39 15
324 2 2 0 0 317 511 111
325 2 2 0 0 10 40 9
326 2 2 0 0 143 144 142
327 2 2 0 0 57 58 55
328 2 2 0 0 8 37 9
329 2 2 0 0 14 38 13
330 2 2 0 0 166 314 101
331 2 2 0 0 18 36 17
332 2 2 0 0 16 29 17
333 2 2 0 0 33 504 20
334 2 2 0 0 325 365 248
335 2 2 0 0 199 202 196
336 2 2 0 0 7 32 6
337 2 2 0 0 434 435 356
338 2 2 0 0 74 75 73
339 2 2 0 0 223 239 234
340 2 2 0 0 74 76 75
341 2 2 0 0 72 74 73
342 2 2 0 0 231 549 201
343 2 2 0 0 202 205 204
344 2 2 0 0 226 227 214
345 2 2 0 0 272 275 271
346 2 2 0 0 276 318 275
347 2 2 0 0 213 214 209
348 2 2 0 0 76 77 75
349 2 2 0 0 210 231 201
350 2 2 0 0 16 30 15
351 2 2 0 0 205 209 208
352 2 2 0 0 202 204 196
353 2 2 0 0 318 406 340
354 2 2 0 0 195 196 193
355 2 2 0 0 322 420 415
356 2 2 0 0 239 240 234
357 2 2 0 0 163 588 168
358 2 2 0 0 12 31 11
359 2 2 0 0 56 72 71
360 2 2 0 0 425 426 327
361 2 2 0 0 19 33 20
362 2 2 0 0 168 224 215
363 2 2 0 0 209 568 216
364 2 2 0 0 318 433 406
365 2 2 0 0 269 271 270
366 2 2 0 0 268 269 245
367 2 2 0 0 21 639 20
368 2 2 0 0 84 85 82
369 2 2 0 0 181 207 183
370 2 2 0 0 269 272 271
371 2 2 0 0 272 276 275
372 2 2 0 0 242 243 240
373 2 2 0 0 102 167 166
374 2 2 0 0 223 234 233
375 2 2 0 0 283 343 227
376 2 2 0 0 205 208 204
377 2 2 0 0 213 226 214
378 2 2 0 0 271 572 347
379 2 2 0 0 243 268 245
380 2 2 0 0 335 398 307
381 2 2 0 0 303 555 554
382 2 2 0 0 226 283 227
383 2 2 0 0 347 485 370
384 2 2 0 0 195 199 196
385 2 2 0 0 205 213 209
386 2 2 0 0 246 322 252
387 2 2 0 0 76 78 77
388 2 2 0 0 133 163 135
389 2 2 0 0 163 168 164
390 2 2 0 0 322 415 341
391 2 2 0 0 227 361 214
392 2 2 0 0 191 198 189
393 2 2 0 0 78 84 82
394 2 2 0 0 209 216 208
395 2 2 0 0 78 82 77
396 2 2 0 0 216 303 266
397 2 2 0 0 417 418 362
398 2 2 0 0 314 607 101
399 2 2 0 0 339 362 280
400 2 2 0 0 243 245 244
401 2 2 0 0 187 291 185
402 2 2 0 0 429 430 359
403 2 2 0 0 143 145 144
404 2 2 0 0 202 553 205
405 2 2 0 0 339 417 362
406 2 2 0 0 131 580 133
407 2 2 0 0 239 242 240
408 2 2 0 0 57 59 58
409 2 2 0 0 224 246 215
410 2 2 0 0 84 86 85
411 2 2 0 0 303 554 266
412 2 2 0 0 72 73 71
413 2 2 0 0 437 438 414
414 2 2 0 0 318 340 275
415 2 2 0 0 269 270 245
416 2 2 0 0 86 87 85
417 2 2 0 0 192 193 191
418 2 2 0 0 123 235 129
419 2 2 0 0 263 374 262
420 2 2 0 0 425 427 426
421 2 2 0 0 149 150 147
422 2 2 0 0 210 232 231
423 2 2 0 0 74 373 76
424 2 2 0 0 168 215 169
425 2 2 0 0 259 262 249
426 2 2 0 0 145 146 144
427 2 2 0 0 367 524 289
428 2 2 0 0 271 347 270
429 2 2 0 0 406 407 340
430 2 2 0 0 334 459 424
431 2 2 0 0 429 474 430
432 2 2 0 0 250 328 325
433 2 2 0 0 431 432 367
434 2 2 0 0 104 278 105
435 2 2 0 0 145 147 146
436 2 2 0 0 151 152 150
437 2 2 0 0 235 583 129
438 2 2 0 0 237 249 228
439 2 2 0 0 149 151 150
440 2 2 0 0 159 161 158
441 2 2 0 0 153 155 152
442 2 2 0 0 156 158 155
443 2 2 0 0 354 367 289
444 2 2 0 0 259 263 262
445 2 2 0 0 190 191 189
446 2 2 0 0 177 221 174
447 2 2 0 0 162 228 161
448 2 2 0 0 124 516 386
449 2 2 0 0 418 653 578
450 2 2 0 0 371 584 295
451 2 2 0 0 151 153 152
452 2 2 0 0 153 156 155
453 2 2 0 0 159 162 161
454 2 2 0 0 374 593 262
455 2 2 0 0 156 159 158
456 2 2 0 0 237 259 249
457 2 2 0 0 146 284 160
458 2 2 0 0 266 309 267
459 2 2 0 0 264 265 257
460 2 2 0 0 86 88 87
461 2 2 0 0 265 312 257
462 2 2 0 0 162 237 228
463 2 2 0 0 21 44 22
464 2 2 0 0 324 392 390
465 2 2 0 0 371 585 584
466 2 2 0 0 262 366 249
467 2 2 0 0 192 195 193
468 2 2 0 0 263 375 374
469 2 2 0 0 216 266 217
470 2 2 0 0 326 327 276
471 2 2 0 0 260 646 166
472 2 2 0 0 220 223 222
473 2 2 0 0 322 341 252
474 2 2 0 0 256 257 255
475 2 2 0 0 78 253 84
476 2 2 0 0 358 359 242
477 2 2 0 0 188 189 187
478 2 2 0 0 281 339 280
479 2 2 0 0 146 160 144
480 2 2 0 0 123 129 128
481 2 2 0 0 255 324 254
482 2 2 0 0 228 229 161
483 2 2 0 0 354 431 367
484 2 2 0 0 163 164 135
485 2 2 0 0 155 157 152
486 2 2 0 0 243 244 240
487 2 2 0 0 256 264 257
488 2 2 0 0 284 316 160
489 2 2 0 0 380 425 327
490 2 2 0 0 148 149 147
491 2 2 0 0 335 399 398
492 2 2 0 0 418 578 362
493 2 2 0 0 334 424 396
494 2 2 0 0 167 260 166
495 2 2 0 0 325 368 365
496 2 2 0 0 428 429 359
497 2 2 0 0 165 255 254
498 2 2 0 0 297 342 264
499 2 2 0 0 298 371 295
500 2 2 0 0 218 323 220
501 2 2 0 0 310 337 302
502 2 2 0 0 165 256 255
503 2 2 0 0 186 187 185
504 2 2 0 0 56 71 70
505 2 2 0 0 165 254 125
506 2 2 0 0 200 201 199
507 2 2 0 0 148 206 149
508 2 2 0 0 324 390 364
509 2 2 0 0 190 192 191
510 2 2 0 0 368 369 365
511 2 2 0 0 353 404 351
512 2 2 0 0 104 331 278
513 2 2 0 0 256 297 264
514 2 2 0 0 316 421 416
515 2 2 0 0 239 358 242
516 2 2 0 0 169 586 171
517 2 2 0 0 286 287 206
518 2 2 0 0 324 364 254
519 2 2 0 0 241 576 162
520 2 2 0 0 168 169 164
521 2 2 0 0 121 123 122
522 2 2 0 0 266 267 217
523 2 2 0 0 129 131 130
524 2 2 0 0 216 217 208
525 2 2 0 0 285 382 313
526 2 2 0 0 172 321 170
527 2 2 0 0 390 391 364
528 2 2 0 0 296 563 300
529 2 2 0 0 246 252 251
530 2 2 0 0 285 286 206
531 2 2 0 0 288 289 287
532 2 2 0 0 298 372 371
533 2 2 0 0 23 35 22
534 2 2 0 0 300 344 304
535 2 2 0 0 344 462 345
536 2 2 0 0 123 128 122
537 2 2 0 0 297 389 342
538 2 2 0 0 237 277 259
539 2 2 0 0 148 285 206
540 2 2 0 0 86 89 88
541 2 2 0 0 306 307 283
542 2 2 0 0 234 279 233
543 2 2 0 0 316 416 160
544 2 2 0 0 188 190 189
545 2 2 0 0 85 98 82
546 2 2 0 0 358 428 359
547 2 2 0 0 437 455 438
548 2 2 0 0 203 210 201
549 2 2 0 0 382 383 313
550 2 2 0 0 153 176 156
551 2 2 0 0 290 354 289
552 2 2 0 0 159 241 162
553 2 2 0 0 386 387 126
554 2 2 0 0 273 363 338
555 2 2 0 0 272 326 276
556 2 2 0 0 171 293 173
557 2 2 0 0 145 148 147
558 2 2 0 0 274 295 261
559 2 2 0 0 285 313 286
560 2 2 0 0 383 384 313
561 2 2 0 0 301 302 299
562 2 2 0 0 131 133 132
563 2 2 0 0 296 298 295
564 2 2 0 0 305 310 302
565 2 2 0 0 349 412 328
566 2 2 0 0 344 345 304
567 2 2 0 0 77 119 75
568 2 2 0 0 315 378 310
569 2 2 0 0 363 401 400
570 2 2 0 0 332 333 278
571 2 2 0 0 223 233 222
572 2 2 0 0 331 334 332
573 2 2 0 0 186 188 187
574 2 2 0 0 178 212 177
575 2 2 0 0 305 360 315
576 2 2 0 0 334 396 395
577 2 2 0 0 246 251 215
578 2 2 0 0 167 261 260
579 2 2 0 0 175 179 178
580 2 2 0 0 345 346 304
581 2 2 0 0 124 386 126
582 2 2 0 0 286 288 287
583 2 2 0 0 331 332 278
584 2 2 0 0 179 181 180
585 2 2 0 0 301 305 302
586 2 2 0 0 300 304 301
587 2 2 0 0 296 300 299
588 2 2 0 0 305 315 310
589 2 2 0 0 296 299 298
590 2 2 0 0 320 453 290
591 2 2 0 0 274 296 295
592 2 2 0 0 313 531 286
593 2 2 0 0 120 281 280
594 2 2 0 0 360 409 315
595 2 2 0 0 363 400 338
596 2 2 0 0 129 130 128
597 2 2 0 0 300 301 299
598 2 2 0 0 1 508 23
599 2 2 0 0 167 273 261
600 2 2 0 0 133 135 134
601 2 2 0 0 173 174 172
602 2 2 0 0 311 377 376
603 2 2 0 0 273 274 261
604 2 2 0 0 273 338 274
605 2 2 0 0 334 395 332
606 2 2 0 0 183 197 184
607 2 2 0 0 319 393 320
608 2 2 0 0 449 450 446
609 2 2 0 0 288 290 289
610 2 2 0 0 226 306 283
611 2 2 0 0 326 380 327
612 2 2 0 0 175 177 174
613 2 2 0 0 181 183 182
614 2 2 0 0 219 230 211
615 2 2 0 0 308 335 307
616 2 2 0 0 267 311 292
617 2 2 0 0 169 170 164
618 2 2 0 0 288 319 290
619 2 2 0 0 126 165 125
620 2 2 0 0 120 280 121
621 2 2 0 0 130 357 128
622 2 2 0 0 195 200 199
623 2 2 0 0 169 171 170
624 2 2 0 0 171 172 170
625 2 2 0 0 184 186 185
626 2 2 0 0 73 282 71
627 2 2 0 0 252 294 251
628 2 2 0 0 319 320 290
629 2 2 0 0 131 132 130
630 2 2 0 0 393 394 320
631 2 2 0 0 171 173 172
632 2 2 0 0 4 34 3
633 2 2 0 0 218 220 219
634 2 2 0 0 267 292 217
635 2 2 0 0 184 185 182
636 2 2 0 0 188 194 190
637 2 2 0 0 56 70 54
638 2 2 0 0 377 405 376
639 2 2 0 0 449 470 450
640 2 2 0 0 179 180 178
641 2 2 0 0 173 175 174
642 2 2 0 0 175 178 177
643 2 2 0 0 250 329 328
644 2 2 0 0 311 376 292
645 2 2 0 0 329 571 350
646 2 2 0 0 347 370 348
647 2 2 0 0 220 222 219
648 2 2 0 0 376 385 292
649 2 2 0 0 133 134 132
650 2 2 0 0 134 136 132
651 2 2 0 0 306 308 307
652 2 2 0 0 200 203 201
653 2 2 0 0 233 247 222
654 2 2 0 0 98 460 82
655 2 2 0 0 329 349 328
656 2 2 0 0 326 381 380
657 2 2 0 0 347 348 270
658 2 2 0 0 181 182 180
659 2 2 0 0 121 122 115
660 2 2 0 0 350 351 349
661 2 2 0 0 308 336 335
662 2 2 0 0 350 403 352
663 2 2 0 0 470 471 450
664 2 2 0 0 203 211 210
665 2 2 0 0 218 219 211
666 2 2 0 0 183 184 182
667 2 2 0 0 370 463 422
668 2 2 0 0 306 402 308
669 2 2 0 0 203 218 211
670 2 2 0 0 71 490 70
671 2 2 0 0 329 350 349
672 2 2 0 0 436 437 414
673 2 2 0 0 124 126 125
674 2 2 0 0 413 414 353
675 2 2 0 0 422 423 348
676 2 2 0 0 352 353 351
677 2 2 0 0 370 422 348
678 2 2 0 0 350 352 351
679 2 2 0 0 413 436 414
680 2 2 0 0 352 413 353
681 2 2 0 0 120 121 115
682 2 2 0 0 110 480 117
683 2 2 0 0 124 125 116
684 2 2 0 0 126 521 165
685 2 2 0 0 113 120 115
686 2 2 0 0 127 440 410
687 2 2 0 0 114 124 116
688 2 2 0 0 543 544 530
689 2 2 0 0 488 489 487
690 2 2 0 0 585 637 366
691 2 2 0 0 543 570 544
692 2 2 0 0 113 115 114
693 2 2 0 0 127 410 106
694 2 2 0 0 114 116 112
695 2 2 0 0 195 515 200
696 2 2 0 0 491 493 492
697 2 2 0 0 12 487 13
698 2 2 0 0 546 547 321
699 2 2 0 0 330 457 411
700 2 2 0 0 157 543 530
701 2 2 0 0 519 520 291
702 2 2 0 0 28 488 487
703 2 2 0 0 111 112 110
704 2 2 0 0 312 534 257
705 2 2 0 0 476 732 412
706 2 2 0 0 27 458 442
707 2 2 0 0 385 636 620
708 2 2 0 0 176 559 156
709 2 2 0 0 593 634 366
710 2 2 0 0 589 590 224
711 2 2 0 0 113 114 112
712 2 2 0 0 109 127 106
713 2 2 0 0 270 564 245
714 2 2 0 0 443 506 445
715 2 2 0 0 491 492 396
716 2 2 0 0 388 624 502
717 2 2 0 0 445 506 448
718 2 2 0 0 30 500 15
719 2 2 0 0 20 504 21
720 2 2 0 0 64 475 60
721 2 2 0 0 287 542 206
722 2 2 0 0 23 508 35
723 2 2 0 0 302 558 299
724 2 2 0 0 70 551 54
725 2 2 0 0 62 598 64
726 2 2 0 0 424 491 396
727 2 2 0 0 407 456 340
728 2 2 0 0 545 546 321
729 2 2 0 0 330 411 397
730 2 2 0 0 72 536 74
731 2 2 0 0 238 574 136
732 2 2 0 0 659 660 420
733 2 2 0 0 395 538 332
734 2 2 0 0 143 527 145
735 2 2 0 0 412 675 476
736 2 2 0 0 239 513 358
737 2 2 0 0 157 530 529
738 2 2 0 0 518 519 291
739 2 2 0 0 449 482 470
740 2 2 0 0 207 713 479
741 2 2 0 0 119 523 75
742 2 2 0 0 109 670 127
743 2 2 0 0 10 501 40
744 2 2 0 0 508 509 35
745 2 2 0 0 96 606 94
746 2 2 0 0 331 459 334
747 2 2 0 0 286 531 288
748 2 2 0 0 290 453 354
749 2 2 0 0 282 490 71
750 2 2 0 0 384 531 313
751 2 2 0 0 289 524 287
752 2 2 0 0 349 550 412
753 2 2 0 0 165 521 256
754 2 2 0 0 82 460 77
755 2 2 0 0 155 543 157
756 2 2 0 0 201 549 199
757 2 2 0 0 273 591 363
758 2 2 0 0 387 521 126
759 2 2 0 0 114 516 124
760 2 2 0 0 53 561 57
761 2 2 0 0 266 554 309
762 2 2 0 0 257 534 255
763 2 2 0 0 205 553 213
764 2 2 0 0 142 522 225
765 2 2 0 0 435 481 356
766 2 2 0 0 216 568 303
767 2 2 0 0 300 563 344
768 2 2 0 0 214 568 209
769 2 2 0 0 112 480 110
770 2 2 0 0 350 571 403
771 2 2 0 0 347 572 485
772 2 2 0 0 275 572 271
773 2 2 0 0 274 563 296
774 2 2 0 0 171 586 293
775 2 2 0 0 162 576 237
776 2 2 0 0 133 580 163
777 2 2 0 0 11 501 10
778 2 2 0 0 295 584 261
779 2 2 0 0 129 583 131
780 2 2 0 0 215 586 169
781 2 2 0 0 250 505 329
782 2 2 0 0 168 588 224
783 2 2 0 0 321 548 170
784 2 2 0 0 262 593 366
785 2 2 0 0 166 646 314
786 2 2 0 0 520 535 291
787 2 2 0 0 373 663 493
788 2 2 0 0 291 535 185
789 2 2 0 0 101 607 97
790 2 2 0 0 130 574 357
791 2 2 0 0 158 570 543
792 2 2 0 0 31 501 11
793 2 2 0 0 444 552 503
794 2 2 0 0 156 559 159
795 2 2 0 0 236 594 505
796 2 2 0 0 206 542 149
797 2 2 0 0 54 551 52
798 2 2 0 0 74 536 373
799 2 2 0 0 337 558 302
800 2 2 0 0 150 532 147
801 2 2 0 0 379 728 457
802 2 2 0 0 299 558 298
803 2 2 0 0 332 538 333
804 2 2 0 0 145 527 148
805 2 2 0 0 514 515 192
806 2 2 0 0 15 500 14
807 2 2 0 0 75 523 73
808 2 2 0 0 467 501 31
809 2 2 0 0 254 592 125
810 2 2 0 0 172 545 321
811 2 2 0 0 144 522 142
812 2 2 0 0 528 532 150
813 2 2 0 0 187 518 291
814 2 2 0 0 553 599 213
815 2 2 0 0 383 603 384
816 2 2 0 0 282 698 490
817 2 2 0 0 244 517 240
818 2 2 0 0 353 525 404
819 2 2 0 0 395 540 538
820 2 2 0 0 94 606 118
821 2 2 0 0 117 539 107
822 2 2 0 0 185 535 182
823 2 2 0 0 388 502 50
824 2 2 0 0 167 591 273
825 2 2 0 0 147 532 146
826 2 2 0 0 92 608 91
827 2 2 0 0 472 676 368
828 2 2 0 0 364 592 254
829 2 2 0 0 21 504 44
830 2 2 0 0 365 597 248
831 2 2 0 0 125 592 116
832 2 2 0 0 588 589 224
833 2 2 0 0 111 113 112
834 2 2 0 0 63 469 408
835 2 2 0 0 105 109 106
836 2 2 0 0 242 526 243
837 2 2 0 0 439 712 29
838 2 2 0 0 240 517 234
839 2 2 0 0 346 533 304
840 2 2 0 0 14 500 38
841 2 2 0 0 494 495 484
842 2 2 0 0 127 630 440
843 2 2 0 0 208 537 204
844 2 2 0 0 175 562 179
845 2 2 0 0 303 626 555
846 2 2 0 0 359 526 242
847 2 2 0 0 243 526 268
848 2 2 0 0 217 537 208
849 2 2 0 0 58 498 55
850 2 2 0 0 503 552 30
851 2 2 0 0 13 499 12
852 2 2 0 0 268 621 569
853 2 2 0 0 489 497 487
854 2 2 0 0 475 498 58
855 2 2 0 0 430 526 359
856 2 2 0 0 248 597 99
857 2 2 0 0 292 537 217
858 2 2 0 0 26 645 45
859 2 2 0 0 234 517 279
860 2 2 0 0 14 497 39
861 2 2 0 0 385 537 292
862 2 2 0 0 305 533 360
863 2 2 0 0 304 533 301
864 2 2 0 0 146 532 284
865 2 2 0 0 483 494 484
866 2 2 0 0 173 562 175
867 2 2 0 0 116 480 112
868 2 2 0 0 224 590 246
869 2 2 0 0 189 518 187
870 2 2 0 0 498 536 72
871 2 2 0 0 414 525 353
872 2 2 0 0 160 522 144
873 2 2 0 0 547 609 548
874 2 2 0 0 182 535 180
875 2 2 0 0 297 601 389
876 2 2 0 0 44 594 81
877 2 2 0 0 301 533 305
878 2 2 0 0 105 106 96
879 2 2 0 0 515 596 200
880 2 2 0 0 293 562 173
881 2 2 0 0 73 523 282
882 2 2 0 0 148 527 285
883 2 2 0 0 174 545 172
884 2 2 0 0 218 596 323
885 2 2 0 0 200 596 203
886 2 2 0 0 149 542 151
887 2 2 0 0 446 552 444
888 2 2 0 0 49 461 330
889 2 2 0 0 330 397 48
890 2 2 0 0 453 738 377
891 2 2 0 0 255 534 324
892 2 2 0 0 52 551 388
893 2 2 0 0 634 646 260
894 2 2 0 0 513 615 358
895 2 2 0 0 438 525 414
896 2 2 0 0 516 618 386
897 2 2 0 0 198 518 189
898 2 2 0 0 227 566 361
899 2 2 0 0 559 560 241
900 2 2 0 0 90 587 93
901 2 2 0 0 416 522 160
902 2 2 0 0 102 591 167
903 2 2 0 0 134 609 137
904 2 2 0 0 298 558 372
905 2 2 0 0 132 574 130
906 2 2 0 0 106 606 96
907 2 2 0 0 159 559 241
908 2 2 0 0 32 611 6
909 2 2 0 0 158 543 155
910 2 2 0 0 223 513 239
911 2 2 0 0 288 531 319
912 2 2 0 0 323 513 220
913 2 2 0 0 115 516 114
914 2 2 0 0 521 601 297
915 2 2 0 0 610 698 455
916 2 2 0 0 354 600 431
917 2 2 0 0 351 550 349
918 2 2 0 0 256 521 297
919 2 2 0 0 140 604 138
920 2 2 0 0 77 460 119
921 2 2 0 0 17 503 16
922 2 2 0 0 9 502 10
923 2 2 0 0 104 587 331
924 2 2 0 0 152 528 150
925 2 2 0 0 315 541 378
926 2 2 0 0 170 548 164
927 2 2 0 0 590 659 420
928 2 2 0 0 11 624 28
929 2 2 0 0 199 549 202
930 2 2 0 0 502 624 10
931 2 2 0 0 453 600 354
932 2 2 0 0 42 43 41
933 2 2 0 0 38 499 13
934 2 2 0 0 285 527 382
935 2 2 0 0 190 514 192
936 2 2 0 0 157 529 528
937 2 2 0 0 231 643 549
938 2 2 0 0 331 587 459
939 2 2 0 0 451 701 232
940 2 2 0 0 99 597 100
941 2 2 0 0 361 568 214
942 2 2 0 0 372 740 544
943 2 2 0 0 221 545 174
944 2 2 0 0 138 604 238
945 2 2 0 0 340 572 275
946 2 2 0 0 338 563 274
947 2 2 0 0 524 542 287
948 2 2 0 0 265 595 312
949 2 2 0 0 111 511 113
950 2 2 0 0 580 658 588
951 2 2 0 0 580 588 163
952 2 2 0 0 237 576 277
953 2 2 0 0 444 503 36
954 2 2 0 0 131 583 580
955 2 2 0 0 505 571 329
956 2 2 0 0 203 596 218
957 2 2 0 0 584 634 260
958 2 2 0 0 261 584 260
959 2 2 0 0 369 647 365
960 2 2 0 0 251 586 215
961 2 2 0 0 348 564 270
962 2 2 0 0 450 552 446
963 2 2 0 0 390 496 391
964 2 2 0 0 66 598 62
965 2 2 0 0 465 623 423
966 2 2 0 0 258 591 102
967 2 2 0 0 343 566 227
968 2 2 0 0 564 623 244
969 2 2 0 0 154 617 141
970 2 2 0 0 324 534 392
971 2 2 0 0 50 502 37
972 2 2 0 0 524 556 542
973 2 2 0 0 544 700 372
974 2 2 0 0 122 516 115
975 2 2 0 0 177 557 221
976 2 2 0 0 489 698 610
977 2 2 0 0 93 587 104
978 2 2 0 0 136 574 132
979 2 2 0 0 593 646 634
980 2 2 0 0 116 592 480
981 2 2 0 0 143 617 527
982 2 2 0 0 225 604 140
983 2 2 0 0 137 631 139
984 2 2 0 0 549 553 202
985 2 2 0 0 164 548 135
986 2 2 0 0 404 550 351
987 2 2 0 0 34 721 473
988 2 2 0 0 220 513 223
989 2 2 0 0 317 640 511
990 2 2 0 0 100 597 258
991 2 2 0 0 588 658 589
992 2 2 0 0 323 615 513
993 2 2 0 0 568 626 303
994 2 2 0 0 377 605 405
995 2 2 0 0 178 613 212
996 2 2 0 0 493 628 373
997 2 2 0 0 157 528 152
998 2 2 0 0 591 627 363
999 2 2 0 0 409 541 315
1000 2 2 0 0 183 614 197
1001 2 2 0 0 103 598 66
1002 2 2 0 0 188 619 194
1003 2 2 0 0 213 599 226
1004 2 2 0 0 306 599 402
1005 2 2 0 0 97 607 25
1006 2 2 0 0 194 514 190
1007 2 2 0 0 373 628 76
1008 2 2 0 0 78 628 253
1009 2 2 0 0 42 47 43
1010 2 2 0 0 39 612 15
1011 2 2 0 0 16 612 29
1012 2 2 0 0 437 610 455
1013 2 2 0 0 487 497 13
1014 2 2 0 0 440 630 441
1015 2 2 0 0 479 713 562
1016 2 2 0 0 196 620 193
1017 2 2 0 0 456 572 340
1018 2 2 0 0 120 511 281
1019 2 2 0 0 577 578 235
1020 2 2 0 0 335 582 399
1021 2 2 0 0 314 741 683
1022 2 2 0 0 520 613 535
1023 2 2 0 0 585 634 584
1024 2 2 0 0 423 564 348
1025 2 2 0 0 457 561 411
1026 2 2 0 0 6 611 5
1027 2 2 0 0 385 620 537
1028 2 2 0 0 228 637 229
1029 2 2 0 0 366 637 249
1030 2 2 0 0 161 570 158
1031 2 2 0 0 434 640 435
1032 2 2 0 0 193 636 191
1033 2 2 0 0 410 606 106
1034 2 2 0 0 37 502 9
1035 2 2 0 0 36 503 17
1036 2 2 0 0 141 617 143
1037 2 2 0 0 363 627 401
1038 2 2 0 0 322 590 420
1039 2 2 0 0 357 618 128
1040 2 2 0 0 430 621 526
1041 2 2 0 0 540 687 103
1042 2 2 0 0 280 577 121
1043 2 2 0 0 276 575 318
1044 2 2 0 0 362 578 577
1045 2 2 0 0 109 649 496
1046 2 2 0 0 246 590 322
1047 2 2 0 0 326 569 381
1048 2 2 0 0 569 621 381
1049 2 2 0 0 269 569 272
1050 2 2 0 0 139 631 154
1051 2 2 0 0 649 664 496
1052 2 2 0 0 537 620 204
1053 2 2 0 0 355 461 49
1054 2 2 0 0 663 685 493
1055 2 2 0 0 479 745 207
1056 2 2 0 0 343 662 565
1057 2 2 0 0 212 557 177
1058 2 2 0 0 45 645 46
1059 2 2 0 0 496 670 109
1060 2 2 0 0 366 634 585
1061 2 2 0 0 384 616 531
1062 2 2 0 0 535 613 180
1063 2 2 0 0 391 632 364
1064 2 2 0 0 308 581 336
1065 2 2 0 0 344 625 462
1066 2 2 0 0 563 625 344
1067 2 2 0 0 13 497 14
1068 2 2 0 0 480 632 117
1069 2 2 0 0 371 668 585
1070 2 2 0 0 333 649 278
1071 2 2 0 0 387 601 521
1072 2 2 0 0 47 49 48
1073 2 2 0 0 358 615 428
1074 2 2 0 0 113 511 120
1075 2 2 0 0 527 617 382
1076 2 2 0 0 105 649 109
1077 2 2 0 0 398 573 307
1078 2 2 0 0 368 676 369
1079 2 2 0 0 180 613 178
1080 2 2 0 0 153 556 176
1081 2 2 0 0 432 657 367
1082 2 2 0 0 458 718 582
1083 2 2 0 0 207 614 183
1084 2 2 0 0 407 611 456
1085 2 2 0 0 244 623 517
1086 2 2 0 0 20 639 27
1087 2 2 0 0 476 675 87
1088 2 2 0 0 319 616 393
1089 2 2 0 0 474 707 197
1090 2 2 0 0 226 599 306
1091 2 2 0 0 47 48 43
1092 2 2 0 0 186 619 188
1093 2 2 0 0 412 732 328
1094 2 2 0 0 316 671 541
1095 2 2 0 0 293 734 478
1096 2 2 0 0 492 685 598
1097 2 2 0 0 528 629 532
1098 2 2 0 0 514 635 515
1099 2 2 0 0 531 616 319
1100 2 2 0 0 8 656 7
1101 2 2 0 0 387 602 601
1102 2 2 0 0 76 628 78
1103 2 2 0 0 122 618 516
1104 2 2 0 0 651 717 394
1105 2 2 0 0 423 623 564
1106 2 2 0 0 546 669 547
1107 2 2 0 0 4 679 34
1108 2 2 0 0 542 556 151
1109 2 2 0 0 548 609 135
1110 2 2 0 0 204 620 196
1111 2 2 0 0 529 629 528
1112 2 2 0 0 482 719 230
1113 2 2 0 0 258 627 591
1114 2 2 0 0 336 582 335
1115 2 2 0 0 197 686 667
1116 2 2 0 0 583 658 580
1117 2 2 0 0 85 675 98
1118 2 2 0 0 59 728 379
1119 2 2 0 0 400 625 338
1120 2 2 0 0 394 717 605
1121 2 2 0 0 471 650 450
1122 2 2 0 0 596 635 323
1123 2 2 0 0 249 637 228
1124 2 2 0 0 515 635 596
1125 2 2 0 0 338 625 563
1126 2 2 0 0 28 633 488
1127 2 2 0 0 566 622 361
1128 2 2 0 0 229 570 161
1129 2 2 0 0 468 654 465
1130 2 2 0 0 118 710 462
1131 2 2 0 0 15 612 16
1132 2 2 0 0 589 659 590
1133 2 2 0 0 526 621 268
1134 2 2 0 0 365 647 597
1135 2 2 0 0 579 583 235
1136 2 2 0 0 22 507 21
1137 2 2 0 0 342 682 264
1138 2 2 0 0 441 648 346
1139 2 2 0 0 191 636 198
1140 2 2 0 0 578 653 579
1141 2 2 0 0 135 609 134
1142 2 2 0 0 128 618 122
1143 2 2 0 0 378 681 310
1144 2 2 0 0 230 690 211
1145 2 2 0 0 210 690 232
1146 2 2 0 0 549 643 553
1147 2 2 0 0 233 661 247
1148 2 2 0 0 10 624 11
1149 2 2 0 0 640 709 435
1150 2 2 0 0 449 719 482
1151 2 2 0 0 452 726 33
1152 2 2 0 0 362 577 280
1153 2 2 0 0 318 575 433
1154 2 2 0 0 492 687 396
1155 2 2 0 0 586 734 293
1156 2 2 0 0 357 655 618
1157 2 2 0 0 277 567 259
1158 2 2 0 0 522 641 225
1159 2 2 0 0 511 640 281
1160 2 2 0 0 247 661 483
1161 2 2 0 0 610 693 39
1162 2 2 0 0 272 569 326
1163 2 2 0 0 490 695 70
1164 2 2 0 0 553 643 599
1165 2 2 0 0 532 629 284
1166 2 2 0 0 29 712 17
1167 2 2 0 0 632 665 117
1168 2 2 0 0 618 655 386
1169 2 2 0 0 241 699 576
1170 2 2 0 0 457 728 561
1171 2 2 0 0 485 572 456
1172 2 2 0 0 430 667 621
1173 2 2 0 0 582 672 458
1174 2 2 0 0 395 687 540
1175 2 2 0 0 504 594 44
1176 2 2 0 0 181 713 207
1177 2 2 0 0 197 707 184
1178 2 2 0 0 524 657 556
1179 2 2 0 0 475 536 498
1180 2 2 0 0 394 738 320
1181 2 2 0 0 51 714 561
1182 2 2 0 0 151 556 153
1183 2 2 0 0 437 693 610
1184 2 2 0 0 361 626 568
1185 2 2 0 0 611 679 5
1186 2 2 0 0 231 680 643
1187 2 2 0 0 462 706 118
1188 2 2 0 0 390 670 496
1189 2 2 0 0 602 642 601
1190 2 2 0 0 49 330 48
1191 2 2 0 0 391 665 632
1192 2 2 0 0 508 737 375
1193 2 2 0 0 450 650 552
1194 2 2 0 0 368 732 476
1195 2 2 0 0 578 579 235
1196 2 2 0 0 402 581 308
1197 2 2 0 0 43 486 41
1198 2 2 0 0 562 713 179
1199 2 2 0 0 592 632 480
1200 2 2 0 0 416 641 522
1201 2 2 0 0 372 668 371
1202 2 2 0 0 452 712 439
1203 2 2 0 0 282 720 455
1204 2 2 0 0 556 657 176
1205 2 2 0 0 364 632 592
1206 2 2 0 0 403 726 452
1207 2 2 0 0 465 654 623
1208 2 2 0 0 278 649 105
1209 2 2 0 0 154 652 617
1210 2 2 0 0 383 688 603
1211 2 2 0 0 451 719 447
1212 2 2 0 0 317 709 640
1213 2 2 0 0 604 711 642
1214 2 2 0 0 382 652 383
1215 2 2 0 0 601 642 389
1216 2 2 0 0 284 671 316
1217 2 2 0 0 599 643 402
1218 2 2 0 0 388 633 624
1219 2 2 0 0 267 678 311
1220 2 2 0 0 337 681 530
1221 2 2 0 0 279 661 233
1222 2 2 0 0 605 738 394
1223 2 2 0 0 33 677 504
1224 2 2 0 0 386 655 387
1225 2 2 0 0 547 669 631
1226 2 2 0 0 562 731 479
1227 2 2 0 0 360 648 595
1228 2 2 0 0 432 692 657
1229 2 2 0 0 367 657 524
1230 2 2 0 0 633 695 488
1231 2 2 0 0 415 473 341
1232 2 2 0 0 644 672 336
1233 2 2 0 0 551 633 388
1234 2 2 0 0 533 648 360
1235 2 2 0 0 407 679 611
1236 2 2 0 0 323 635 615
1237 2 2 0 0 530 681 529
1238 2 2 0 0 393 651 394
1239 2 2 0 0 387 655 602
1240 2 2 0 0 238 703 574
1241 2 2 0 0 594 677 505
1242 2 2 0 0 559 692 560
1243 2 2 0 0 621 667 381
1244 2 2 0 0 405 674 376
1245 2 2 0 0 325 732 368
1246 2 2 0 0 623 654 517
1247 2 2 0 0 581 644 336
1248 2 2 0 0 346 648 533
1249 2 2 0 0 517 654 279
1250 2 2 0 0 477 705 481
1251 2 2 0 0 481 705 355
1252 2 2 0 0 561 728 57
1253 2 2 0 0 379 705 477
1254 2 2 0 0 617 652 382
1255 2 2 0 0 30 650 500
1256 2 2 0 0 376 674 385
1257 2 2 0 0 518 715 519
1258 2 2 0 0 474 667 430
1259 2 2 0 0 478 734 294
1260 2 2 0 0 624 633 28
1261 2 2 0 0 186 707 619
1262 2 2 0 0 64 663 475
1263 2 2 0 0 597 647 258
1264 2 2 0 0 377 738 605
1265 2 2 0 0 31 735 467
1266 2 2 0 0 27 718 458
1267 2 2 0 0 419 673 68
1268 2 2 0 0 616 722 393
1269 2 2 0 0 24 723 419
1270 2 2 0 0 397 638 48
1271 2 2 0 0 404 730 460
1272 2 2 0 0 91 676 472
1273 2 2 0 0 622 626 361
1274 2 2 0 0 7 656 32
1275 2 2 0 0 576 697 277
1276 2 2 0 0 471 691 650
1277 2 2 0 0 536 663 373
1278 2 2 0 0 484 691 471
1279 2 2 0 0 552 650 30
1280 2 2 0 0 311 678 600
1281 2 2 0 0 486 729 5
1282 2 2 0 0 418 673 666
1283 2 2 0 0 232 680 231
1284 2 2 0 0 5 679 4
1285 2 2 0 0 117 665 539
1286 2 2 0 0 384 702 616
1287 2 2 0 0 557 702 221
1288 2 2 0 0 87 675 85
1289 2 2 0 0 225 711 604
1290 2 2 0 0 505 677 571
1291 2 2 0 0 483 661 494
1292 2 2 0 0 263 565 375
1293 2 2 0 0 504 677 594
1294 2 2 0 0 582 718 399
1295 2 2 0 0 645 714 46
1296 2 2 0 0 534 708 392
1297 2 2 0 0 643 680 402
1298 2 2 0 0 18 712 452
1299 2 2 0 0 392 670 390
1300 2 2 0 0 221 702 603
1301 2 2 0 0 496 664 391
1302 2 2 0 0 606 710 118
1303 2 2 0 0 655 703 602
1304 2 2 0 0 608 676 91
1305 2 2 0 0 194 684 514
1306 2 2 0 0 541 671 378
1307 2 2 0 0 154 669 652
1308 2 2 0 0 399 718 639
1309 2 2 0 0 405 715 674
1310 2 2 0 0 33 726 677
1311 2 2 0 0 629 671 284
1312 2 2 0 0 468 735 495
1313 2 2 0 0 469 704 408
1314 2 2 0 0 427 745 479
1315 2 2 0 0 294 734 251
1316 2 2 0 0 461 705 379
1317 2 2 0 0 385 674 636
1318 2 2 0 0 657 692 176
1319 2 2 0 0 561 714 411
1320 2 2 0 0 631 669 154
1321 2 2 0 0 264 682 265
1322 2 2 0 0 43 638 486
1323 2 2 0 0 48 638 43
1324 2 2 0 0 194 744 684
1325 2 2 0 0 381 686 380
1326 2 2 0 0 658 716 589
1327 2 2 0 0 263 567 565
1328 2 2 0 0 310 681 337
1329 2 2 0 0 493 685 492
1330 2 2 0 0 64 685 663
1331 2 2 0 0 309 678 267
1332 2 2 0 0 600 678 431
1333 2 2 0 0 538 694 333
1334 2 2 0 0 598 685 64
1335 2 2 0 0 551 695 633
1336 2 2 0 0 560 699 241
1337 2 2 0 0 211 690 210
1338 2 2 0 0 2 723 3
1339 2 2 0 0 630 708 441
1340 2 2 0 0 467 735 468
1341 2 2 0 0 396 687 395
1342 2 2 0 0 35 507 22
1343 2 2 0 0 259 567 263
1344 2 2 0 0 417 673 418
1345 2 2 0 0 614 686 197
1346 2 2 0 0 392 708 630
1347 2 2 0 0 5 729 6
1348 2 2 0 0 279 725 661
1349 2 2 0 0 6 729 26
1350 2 2 0 0 357 703 655
1351 2 2 0 0 514 684 635
1352 2 2 0 0 540 733 538
1353 2 2 0 0 374 741 593
1354 2 2 0 0 176 692 559
1355 2 2 0 0 650 691 500
1356 2 2 0 0 484 736 691
1357 2 2 0 0 83 733 540
1358 2 2 0 0 558 740 372
1359 2 2 0 0 626 697 555
1360 2 2 0 0 436 693 437
1361 2 2 0 0 375 737 374
1362 2 2 0 0 475 663 536
1363 2 2 0 0 636 674 198
1364 2 2 0 0 674 715 198
1365 2 2 0 0 70 695 551
1366 2 2 0 0 406 721 407
1367 2 2 0 0 677 726 571
1368 2 2 0 0 258 647 627
1369 2 2 0 0 448 701 451
1370 2 2 0 0 458 672 506
1371 2 2 0 0 229 700 570
1372 2 2 0 0 684 744 428
1373 2 2 0 0 570 700 544
1374 2 2 0 0 678 742 431
1375 2 2 0 0 646 741 314
1376 2 2 0 0 603 702 384
1377 2 2 0 0 478 731 293
1378 2 2 0 0 309 742 678
1379 2 2 0 0 380 686 614
1380 2 2 0 0 494 725 468
1381 2 2 0 0 500 691 38
1382 2 2 0 0 635 684 615
1383 2 2 0 0 661 725 494
1384 2 2 0 0 679 721 34
1385 2 2 0 0 509 510 35
1386 2 2 0 0 46 714 51
1387 2 2 0 0 615 684 428
1388 2 2 0 0 432 742 689
1389 2 2 0 0 179 713 181
1390 2 2 0 0 26 739 645
1391 2 2 0 0 35 510 507
1392 2 2 0 0 574 703 357
1393 2 2 0 0 184 707 186
1394 2 2 0 0 39 693 612
1395 2 2 0 0 665 694 539
1396 2 2 0 0 312 708 534
1397 2 2 0 0 554 689 309
1398 2 2 0 0 1 737 508
1399 2 2 0 0 519 717 520
1400 2 2 0 0 277 697 622
1401 2 2 0 0 389 711 641
1402 2 2 0 0 495 736 484
1403 2 2 0 0 17 712 18
1404 2 2 0 0 212 722 557
1405 2 2 0 0 455 720 438
1406 2 2 0 0 622 697 626
1407 2 2 0 0 664 694 665
1408 2 2 0 0 447 719 449
1409 2 2 0 0 669 688 652
1410 2 2 0 0 612 693 436
1411 2 2 0 0 619 744 194
1412 2 2 0 0 57 728 59
1413 2 2 0 0 579 658 583
1414 2 2 0 0 438 727 525
1415 2 2 0 0 539 733 83
1416 2 2 0 0 479 731 478
1417 2 2 0 0 691 736 38
1418 2 2 0 0 401 724 400
1419 2 2 0 0 420 660 2
1420 2 2 0 0 328 732 325
1421 2 2 0 0 320 738 453
1422 2 2 0 0 428 744 429
1423 2 2 0 0 431 742 432
1424 2 2 0 0 425 745 427
1425 2 2 0 0 408 743 434
1426 2 2 0 0 571 726 403
1427 2 2 0 0 119 727 523
1428 2 2 0 0 625 706 462
1429 2 2 0 0 525 730 404
1430 2 2 0 0 499 736 495
1431 2 2 0 0 468 725 654
1432 2 2 0 0 336 672 582
1433 2 2 0 0 198 715 518
1434 2 2 0 0 400 724 706
1435 2 2 0 0 402 680 581
1436 2 2 0 0 589 716 659
1437 2 2 0 0 727 730 525
1438 2 2 0 0 664 665 391
1439 2 2 0 0 337 740 558
1440 2 2 0 0 293 731 562
1441 2 2 0 0 523 720 282
1442 2 2 0 0 460 730 119
1443 2 2 0 0 641 711 225
1444 2 2 0 0 429 744 619
1445 2 2 0 0 119 730 727
1446 2 2 0 0 651 722 212
1447 2 2 0 0 38 736 499
1448 2 2 0 0 667 686 381
1449 2 2 0 0 652 688 383
1450 2 2 0 0 410 710 606
1451 2 2 0 0 644 701 448
1452 2 2 0 0 666 673 419
1453 2 2 0 0 704 743 408
1454 2 2 0 0 251 734 586
1455 2 2 0 0 400 706 625
1456 2 2 0 0 546 688 669
1457 2 2 0 0 668 700 229
1458 2 2 0 0 538 733 694
1459 2 2 0 0 333 694 664
1460 2 2 0 0 565 662 375
1461 2 2 0 0 720 727 438
1462 2 2 0 0 372 700 668
1463 2 2 0 0 579 716 658
1464 2 2 0 0 642 711 389
1465 2 2 0 0 355 705 461
1466 2 2 0 0 407 721 679
1467 2 2 0 0 523 727 720
1468 2 2 0 0 654 725 279
1469 2 2 0 0 639 718 27
1470 2 2 0 0 694 733 539
1471 2 2 0 0 393 722 651
1472 2 2 0 0 645 739 397
1473 2 2 0 0 683 741 374
1474 2 2 0 0 397 739 638
1475 2 2 0 0 653 716 579
1476 2 2 0 0 666 723 660
1477 2 2 0 0 419 723 666
1478 2 2 0 0 374 737 683
1479 2 2 0 0 593 741 646
1480 2 2 0 0 683 737 1
1481 2 2 0 0 689 742 309
1482 2 2 0 0 660 723 2
1483 2 2 0 0 23 25 1
1484 2 2 0 0 25 607 1
1485 2 2 0 0 3 34 2
1486 2 2 0 0 34 415 2
$EndElements
