$MeshFormat
2.2 0 8
$EndMeshFormat
$Nodes
745
1 3.6254297819466288e-05 2.1476729936492159e-05 9.7478642066612233e-04
2 3.6550989674132211e-05 -3.8917147196289981e-05 -9.7336240978017526e-04
3 1.3523755447764418e-04 1.6194981049626357e-05 -9.6533689503152764e-04
4 2.3301952548723245e-04 1.4303472869261041e-05 -9.4863185580100690e-04
5 3.7039049529943017e-04 2.0493517803575200e-05 -9.0743093373886778e-04
6 5.1281079433243798e-04 -1.9139418803676151e-06 -8.3994041663649588e-04
7 6.0506154421505665e-04 4.3447526585718746e-06 -7.8087981470327983e-04
8 7.1991452738640624e-04 1.5579836162976387e-06 -6.8480198793875247e-04
9 8.1687100631233796e-04 -1.9916374270309680e-06 -5.7594371641433528e-04
10 9.0377660182397544e-04 4.3615482134882592e-07 -4.4096582588671051e-04
11 9.7037455109463420e-04 2.8641024333784142e-06 -2.8343708937063951e-04
12 1.0057276941301491e-03 3.8716535007751241e-06 -1.2860281174161900e-04
13 1.0145897063611488e-03 1.4308861995695093e-06 6.4923604881959853e-06
14 1.0019553417436856e-03 1.6904724078445386e-06 1.5204094702946523e-04
15 9.6413127323042918e-04 1.0833836832401303e-06 3.0202319116103698e-04
16 9.0103559131333479e-04 7.4674350376762167e-06 4.4636756549796413e-04
17 8.2100782448726254e-04 -2.1528854607705911e-06 5.7061163821676703e-04
18 7.2792590656189948e-04 -3.6295262476841588e-06 6.7708783975114096e-04
19 6.1831646135765970e-04 2.0758601422094898e-07 7.7155905354601040e-04
20 4.9225539491256568e-04 -2.8232737680045421e-06 8.5169721353609939e-04
21 3.5875237036677555e-04 5.9271191717753966e-06 9.1178657441936314e-04
22 2.3694111443351763e-04 3.6129452092495560e-07 9.4807572323906124e-04
23 1.3984068024265896e-04 -2.0019678129764045e-05 9.6519126797635943e-04
24 1.4933771524533503e-04 1.1803046298504420e-04 -9.5765208244770960e-04
25 1.6579003279713816e-04 9.7767814005178123e-05 9.5803569034158315e-04
26 5.5776930684805603e-04 1.1088509839870869e-04 -8.0536562825883943e-04
27 5.5307682192869362e-04 -1.0905811928914445e-04 8.0945597174098590e-04
28 9.8263400327889888e-04 1.3802859552275969e-04 -2.0231649446695948e-04
29 8.4810555678208890e-04 1.5915344511009325e-04 5.1227056461080386e-04
30 9.3069859240033515e-04 -1.2473082998324739e-04 3.6758506835514015e-04
31 9.8410379158880628e-04 -1.1992403166061616e-04 -2.0598679349030576e-04
32 5.4911941480051722e-04 -1.0639754645203154e-04 -8.1210167570334437e-04
33 5.4439606492725308e-04 1.0096671417838568e-04 8.1564724718328672e-04
34 1.7065355147272618e-04 -8.1873384009372200e-05 -9.5819800062598066e-04
35 1.8581683601171135e-04 -1.0598805121836329e-04 9.5303647923047354e-04
36 7.7492511907212465e-04 -1.2635816689416971e-04 6.1550245740374767e-04
37 7.7003923458746591e-04 1.2401577726122478e-04 -6.2105070879320929e-04
38 1.0044615974878928e-03 -1.1310817076664014e-04 8.1567937430850488e-05
39 9.7877589333092299e-04 1.2298204079780331e-04 2.2579686855018111e-04
40 8.5662000043877390e-04 -1.3244835701480183e-04 -5.0468101063463530e-04
41 2.7565629455633494e-04 1.1735937565878797e-04 -9.3096632832018200e-04
42 2.2168719838342298e-04 2.2229482537008713e-04 -9.2626290525470753e-04
43 3.2361566022023360e-04 2.3726308641164475e-04 -8.9410312308090152e-04
44 2.9545504986237196e-04 1.0276336915611089e-04 9.2747651065150090e-04
45 6.5662593897427332e-04 1.2233326539985216e-04 -7.3163578199241951e-04
46 6.9548089549448786e-04 2.4715448181622177e-04 -6.6628952883272374e-04
47 2.6246837085175482e-04 3.2239665676716888e-04 -8.8801363807284423e-04
48 3.7508385524458057e-04 3.2404800415201419e-04 -8.4889798313901696e-04
49 3.1778563491807938e-04 4.2172695589152493e-04 -8.3031282242461738e-04
50 7.9497547497319376e-04 2.5161291507371696e-04 -5.5266455362979632e-04
51 7.2074765378251412e-04 3.6954427436791253e-04 -5.8421071984294897e-04
52 8.0929034927468670e-04 3.6979719290499124e-04 -4.6533186130820638e-04
53 7.2543955380117737e-04 4.7972848520373701e-04 -4.9887779568798479e-04
54 8.0431790334283123e-04 4.8202635987552086e-04 -3.6891414036867445e-04
55 7.1103284696754883e-04 5.9053372345610467e-04 -3.9852861774726457e-04
56 7.8000253771706414e-04 5.8519752321300523e-04 -2.6571872715643811e-04
57 6.3326404552141652e-04 5.8529042235902148e-04 -5.0991146893004490e-04
58 6.0286654570133663e-04 6.8978684565893672e-04 -4.1502746370796227e-04
59 5.1101183140881291e-04 6.7695991524986253e-04 -5.3105795938766700e-04
60 4.7824351489435794e-04 7.7544658034631457e-04 -4.2477809515053882e-04
61 3.8083101812140904e-04 7.4930665913347982e-04 -5.4224840380954901e-04
62 3.5412116915787325e-04 8.4447334120063143e-04 -4.1536101419279966e-04
63 1.9601454865867025e-04 4.4094416789454183e-04 -8.5559668433706469e-04
64 4.4267537361768612e-04 8.5301053271733364e-04 -3.0688565598240800e-04
65 2.4981879536442765e-04 8.1534498022350313e-04 -5.2425386059918569e-04
66 2.2884053220552838e-04 8.9690634675114326e-04 -3.9450824292188921e-04
67 1.1731335194225033e-04 8.6346701428736256e-04 -4.9511944297716268e-04
68 1.0330291670800852e-04 2.2739521310920793e-04 -9.4413349755724919e-04
69 1.3446118864260433e-04 7.6258587807199920e-04 -6.2732488780199215e-04
70 8.5982140258475089e-04 4.7518073024723113e-04 -2.3957428998564644e-04
71 8.3402607288391155e-04 5.6354315051840645e-04 -1.1842505602218694e-04
72 7.4170454579143487e-04 6.7353681731242626e-04 -1.4890346368615922e-04
73 7.8207145941401590e-04 6.4542372067291631e-04 -9.4637643220361623e-06
74 6.8329372512520290e-04 7.4829894021497521e-04 -3.0712095056400082e-05
75 7.0818010889832632e-04 7.1802161745731369e-04 9.9166414874672342e-05
76 6.0284393904120638e-04 8.1029860421147901e-04 8.3808626188427548e-05
77 6.2041507435807908e-04 7.6969477104753823e-04 2.1477252760406074e-04
78 5.1230659585685282e-04 8.5235413860352974e-04 1.8819159673288193e-04
79 9.7964112516449905e-05 9.3793414828876698e-04 -3.5468222813203588e-04
80 -1.9493454749922571e-05 9.0068612656604480e-04 -4.4333134267751255e-04
81 2.3377562390605974e-04 2.1574535425105377e-04 9.2574953876230150e-04
82 5.2883665144839076e-04 7.9614438909164577e-04 3.2387366675366733e-04
83 -4.0705167752947341e-05 9.5850877818663867e-04 -3.1066449580942400e-04
84 4.1039757998167375e-04 8.7770610930026536e-04 2.8485110946140806e-04
85 4.1955199422258566e-04 8.1397458525556024e-04 4.1566272404078866e-04
86 3.0295853121286334e-04 8.7992235611121885e-04 3.8411996628418546e-04
87 3.1332166791526805e-04 8.0480253232140589e-04 5.0754859861215445e-04
88 1.8507846443522436e-04 8.5797811148098375e-04 4.8506378279853160e-04
89 1.6397501794313617e-04 9.3119865499435178e-04 3.4892197931664620e-04
90 5.3017322011232367e-05 8.9657123302010655e-04 4.4920070811729985e-04
91 7.1801120029292833e-05 8.1441061489034654e-04 5.7367678500117915e-04
92 -5.1038581546668204e-05 8.4975946144130547e-04 5.2611084556374466e-04
93 -7.7535907445174228e-05 9.1833484558738129e-04 4.0299190693455421e-04
94 -1.8826381344607930e-04 8.5971350612293860e-04 4.8052398561542750e-04
95 -1.4598682537475389e-04 7.9565787410987624e-04 5.8325704756225199e-04
96 -2.1676638796758394e-04 9.1918241022562869e-04 3.5125528611854685e-04
97 1.0380176313871415e-04 2.2117445944234209e-04 9.4624806053579026e-04
98 5.3317020412099085e-04 7.0267966817721083e-04 4.8059135180928195e-04
99 1.7038427428086680e-04 3.1385913976547718e-04 9.1218804496027907e-04
100 4.8449746513107220e-05 3.1624138095350592e-04 9.2490348319372009e-04
101 -2.0996038948371939e-05 2.1261187196537130e-04 9.5301719670811032e-04
102 -7.8210120839895529e-05 3.0808169587211317e-04 9.2552439463830386e-04
103 2.0226261241118471e-04 9.5514258629361508e-04 -2.5925432206885503e-04
104 -1.0945738265656245e-04 9.6848213742062078e-04 2.6497332967566871e-04
105 -2.4661698098599476e-04 9.5842330621649023e-04 2.0781704371530558e-04
106 -3.5435709656236387e-04 8.9785228167857509e-04 2.9486999574385343e-04
107 -1.5332015821882547e-04 9.1607980829597039e-04 -3.8653562107057932e-04
108 -1.3351418453645651e-04 8.4351930508134055e-04 -5.2140268377704672e-04
109 -3.7864899416667740e-04 9.2556953556059598e-04 1.5569129077244094e-04
110 -2.6688029684072647e-04 8.4881558360658152e-04 -4.6320421833222301e-04
111 -2.3626744132205940e-04 7.6711024750955386e-04 -5.9173333917068068e-04
112 -3.7205667520774448e-04 7.6159259302749588e-04 -5.3102902566843843e-04
113 -3.3068687313125958e-04 6.6597072348943036e-04 -6.5933149308457120e-04
114 -4.6146368633685791e-04 6.6431289201280305e-04 -5.8406446583821839e-04
115 -4.0940759609124015e-04 5.6104237462667906e-04 -7.0721882146703428e-04
116 -4.9738655500784767e-04 7.4755920034559522e-04 -4.4862524318791828e-04
117 -2.8393430949577933e-04 9.1014175386157868e-04 -3.2704082373349159e-04
118 -2.8303289390539882e-04 7.7575262718239260e-04 5.6354616716001484e-04
119 7.1908608685511280e-04 6.7720410171711394e-04 2.1705552761817838e-04
120 -2.7892506536225523e-04 5.6122222871293043e-04 -7.6368258007409868e-04
121 -3.5485027386610929e-04 4.4879118256751789e-04 -8.0261720646364202e-04
122 -4.8490308096539765e-04 4.6185369750023397e-04 -7.2898141324766338e-04
123 -4.2370305018643286e-04 3.5476366146461997e-04 -8.1529797292411745e-04
124 -5.8813793815033083e-04 6.4288442438250291e-04 -4.9431660260551634e-04
125 -6.1631583849459438e-04 7.0695776035021023e-04 -3.6600540026741793e-04
126 -7.0124399829550382e-04 5.9513933266571763e-04 -4.0600446626753192e-04
127 -4.7871963241129381e-04 8.5855159372660351e-04 2.3540324463280121e-04
128 -5.5682946531414627e-04 3.4897195871497248e-04 -7.3945307230639736e-04
129 -4.9603569314026494e-04 2.4552476913576262e-04 -8.1470512908286732e-04
130 -6.2079884440406565e-04 2.2387896770066033e-04 -7.3726393531782757e-04
131 -5.5585198192296113e-04 1.2184817199671921e-04 -8.0475481638741175e-04
132 -6.7610270673897532e-04 9.4118983794483184e-05 -7.1812266704656097e-04
133 -5.9347471851993211e-04 -9.1150098546270817e-06 -7.8833266830513604e-04
134 -7.0944271168382463e-04 -3.5160433598549835e-05 -6.9309363205905590e-04
135 -6.1775568302584877e-04 -1.4307988610432948e-04 -7.5865979548474997e-04
136 -7.8548696374790674e-04 7.7632482222758488e-05 -6.0892885604443912e-04
137 -8.1316981201408345e-04 -5.8235976947708279e-05 -5.7671234206500724e-04
138 -8.7604530569038099e-04 4.9249798128420026e-05 -4.8558272837929267e-04
139 -8.9581345015520941e-04 -8.3319955601728708e-05 -4.4677238112754105e-04
140 -9.4428020957357424e-04 1.0891632613862827e-05 -3.5195380088988063e-04
141 -9.5269537306114321e-04 -1.2150407198342215e-04 -3.1028207219641155e-04
142 -9.8753411281832758e-04 -1.3886792918636881e-05 -2.1814070981296410e-04
143 -9.8662327352117950e-04 -1.4842725280836180e-04 -1.7227158572664947e-04
144 -1.0095311421319741e-03 -3.7043394953561444e-05 -8.1411753692025684e-05
145 -9.9937829888801588e-04 -1.6689355197795042e-04 -3.7465357382546179e-05
146 -1.0109462857027967e-03 -5.2354769939451415e-05 5.3748360309371160e-05
147 -9.9136944043540145e-04 -1.8242013407309142e-04 1.0548350918636724e-04
148 -9.7060498621327209e-04 -2.9366297489294137e-04 1.0641040381608590e-05
149 -9.5143624456327409e-04 -3.1140035627089455e-04 1.5503625766573610e-04
150 -9.5907252694751649e-04 -1.9320736362082592e-04 2.5511755792959181e-04
151 -9.0884644127502351e-04 -3.2266738869948298e-04 2.9988251402363742e-04
152 -9.0427193922242076e-04 -2.0710811508810873e-04 3.9176102624172046e-04
153 -8.4285053451812672e-04 -3.3218961486755378e-04 4.3589870866209010e-04
154 -8.9850109208357070e-04 -2.1636385660806485e-04 -3.9839790850486573e-04
155 -8.3023375154483601e-04 -2.1414097599780550e-04 5.1825215341514698e-04
156 -7.5925696624459739e-04 -3.3280480554242467e-04 5.5906372570589885e-04
157 -8.8505660340693190e-04 -8.1014965894593983e-05 4.6733660924650904e-04
158 -7.3260837136653913e-04 -2.1269684215990544e-04 6.3996523149326861e-04
159 -6.5635924375328461e-04 -3.3239394039425379e-04 6.6884818312757082e-04
160 -1.0104969871722537e-03 8.0099839730080020e-05 4.5468710775067252e-06
161 -6.2106774029828718e-04 -2.0721404849793605e-04 7.4256537431442000e-04
162 -5.3266318852047381e-04 -3.1933771563348362e-04 7.6931350556312488e-04
163 -4.9726408996776574e-04 -1.1110693553310043e-04 -8.4143524520713050e-04
164 -5.2212786516828797e-04 -2.4185210245858464e-04 -8.0111494259004867e-04
165 -7.1982006804911553e-04 6.5078428602360601e-04 -2.7808205724518139e-04
166 -1.4899195280383953e-04 1.9764129181641730e-04 9.4539185232496480e-04
167 -2.0747280623150936e-04 3.0691994194649059e-04 9.0705005837663486e-04
168 -4.0563704249697163e-04 -2.0287993056426239e-04 -8.7092587362907407e-04
169 -4.2948752965290675e-04 -3.2879428323492286e-04 -8.2336801333435412e-04
170 -5.4467031915383522e-04 -3.7346584317594792e-04 -7.3787444305396148e-04
171 -4.4085260758798263e-04 -4.6696855970874621e-04 -7.5291094625844007e-04
172 -5.5478045882035557e-04 -5.0295315563047660e-04 -6.5534840381660043e-04
173 -4.3909186073047801e-04 -5.9808891920267143e-04 -6.6277241203013576e-04
174 -5.4769515878071336e-04 -6.2166053000448941e-04 -5.6011290191073303e-04
175 -4.3054573358202423e-04 -7.1283980869733311e-04 -5.5450730714615430e-04
176 -7.7084049517459443e-04 -4.3983067271570199e-04 4.6910915038744376e-04
177 -5.3351559962315736e-04 -7.2339549176794814e-04 -4.4959574943388806e-04
178 -4.0498240237576088e-04 -8.0969373563744235e-04 -4.3781962356952543e-04
179 -3.1065699365728924e-04 -7.8164905971598339e-04 -5.4253181180460137e-04
180 -2.7682005042216302e-04 -8.7046904720640417e-04 -4.2232248986695607e-04
181 -1.7368578602070005e-04 -8.3446094756802174e-04 -5.2633883652783908e-04
182 -1.3912500579993842e-04 -9.1324539623182939e-04 -4.0134179249957567e-04
183 -3.8308724398577330e-05 -8.6112569143094431e-04 -5.1237048800813700e-04
184 -6.7103559858608068e-08 -9.3322014227547408e-04 -3.8084602830715166e-04
185 -9.6171024670756240e-05 -9.6752633931481487e-04 -2.7753335645411628e-04
186 4.5027966846852919e-05 -9.7962398113308384e-04 -2.4893834447310345e-04
187 -5.3760629037385657e-05 -1.0013674655471169e-03 -1.4815668779382643e-04
188 9.1849364873327537e-05 -1.0021956243643456e-03 -1.2481322104670515e-04
189 -7.1637862123605661e-06 -1.0144925692466219e-03 -1.9006529331171283e-05
190 1.2660168497638266e-04 -1.0067693529615654e-03 1.1216224341712656e-05
191 3.7180285633440524e-05 -1.0070494553135142e-03 1.1372362913998690e-04
192 1.6888551639591867e-04 -9.8906066659956021e-04 1.4520950015982438e-04
193 7.3312497809002481e-05 -9.7832476848235461e-04 2.4799656831125304e-04
194 2.1461058327620149e-04 -9.8773938582408108e-04 -8.4462020961684949e-05
195 2.0425435411756149e-04 -9.5090057636563303e-04 2.7701215590155716e-04
196 1.0396120088078221e-04 -9.2886595297775668e-04 3.7793970221044874e-04
197 1.1128604296755884e-04 -8.7550778739519427e-04 -4.8029052225353520e-04
198 -9.7370475422042430e-05 -1.0054949541093419e-03 8.8674098442028494e-05
199 2.3539467406612249e-04 -8.9195890144626907e-04 4.0441244031263774e-04
200 3.3273691310627292e-04 -9.0625798041130471e-04 2.9908963020228120e-04
201 3.6092447690463789e-04 -8.3888849595839445e-04 4.2316021451812219e-04
202 1.3317175142025958e-04 -8.5800052619575563e-04 5.0253956033647739e-04
203 4.5941594720811551e-04 -8.4118982116081003e-04 3.1873869866321062e-04
204 5.1935480672874724e-08 -8.8521846149430805e-04 4.7461507967599270e-04
205 3.1701951265571224e-05 -7.9882840349973343e-04 5.9832543953811188e-04
206 -9.1810365299508582e-04 -4.2663309225166176e-04 5.8630125402203066e-05
207 -7.7704961757315348e-05 -7.6295755462134297e-04 -6.3677963298795662e-04
208 -1.0819152923826920e-04 -8.2057318840725822e-04 5.6183950353573748e-04
209 -6.9904150987721769e-05 -7.2329132604208204e-04 6.7854792090324347e-04
210 4.7874922840033981e-04 -7.6437587387639808e-04 4.4469616312007562e-04
211 5.6777191526221553e-04 -7.6558544364269674e-04 3.3244711098220952e-04
212 -4.9915956861711563e-04 -8.0967927529668909e-04 -3.3688096329443913e-04
213 6.3008930170382237e-05 -6.9351973156955415e-04 7.0731004560718410e-04
214 -3.1603387402557179e-05 -6.1126435981494198e-04 7.7619641582642466e-04
215 -3.0619434347266202e-04 -2.8936372385984679e-04 -8.8605599460638191e-04
216 -2.0424047721713179e-04 -7.4166012943825937e-04 6.3358351059193132e-04
217 -2.4263957453624947e-04 -8.2907619782291125e-04 5.0919875362929123e-04
218 5.4997002723908403e-04 -8.2329548447203100e-04 2.1282581864351993e-04
219 6.6477481655400673e-04 -7.2811901055682012e-04 2.3021447737669987e-04
220 6.3156956048123804e-04 -7.8802099057042533e-04 9.6278240389822633e-05
221 -6.3749202672218851e-04 -6.3456948670854107e-04 -4.4803576954686558e-04
222 7.4105749108476892e-04 -6.8316247151756562e-04 1.1459770090466844e-04
223 6.9439141506142180e-04 -7.3967181700498603e-04 -2.4302829352187751e-05
224 -2.9092721014533198e-04 -1.7063532660043854e-04 -9.1887982997800185e-04
225 -9.6866624153102172e-04 1.1261753079922786e-04 -2.6292883183294844e-04
226 9.3355444451922670e-05 -5.7954267981036919e-04 7.9402160848860142e-04
227 -1.6150287325365382e-06 -4.8919333928759126e-04 8.5342577805582040e-04
228 -4.9810701392242356e-04 -1.8346331632976764e-04 8.2952999529395540e-04
229 -5.8443781274896463e-04 -8.3461937509943842e-05 7.9077189484798034e-04
230 6.6561560446316208e-04 -6.6893902662496776e-04 3.5652944402651609e-04
231 3.7848251183145539e-04 -7.5321039706806596e-04 5.4045243385322957e-04
232 4.9886811765959417e-04 -6.6534845734288997e-04 5.5782689960692984e-04
233 7.9307517017718730e-04 -6.3293988422271166e-04 -5.7912138991448251e-06
234 7.4611250693332079e-04 -6.7188327551660526e-04 -1.4046926840119569e-04
235 -3.5675250676110904e-04 2.3375644428611119e-04 -8.8312030904661950e-04
236 2.9623710800579466e-04 3.1663837287802468e-04 8.8073502823032954e-04
237 -4.0486004045695733e-04 -2.8083846877349327e-04 8.5139884071946763e-04
238 -8.3919498407127187e-04 1.9554580869142159e-04 -5.1173059585752029e-04
239 6.4022515042629958e-04 -7.6995306276721480e-04 -1.5747460293615654e-04
240 6.8731309534397354e-04 -6.8956692040718283e-04 -2.7361239810790369e-04
241 -5.6717199600008785e-04 -4.4126504342145793e-04 6.8598833347133736e-04
242 5.7760246623730579e-04 -7.7569928129873596e-04 -2.9377946608706823e-04
243 6.1098154862866303e-04 -6.9133953919018590e-04 -4.0411169892943215e-04
244 7.1701546402049184e-04 -5.9235517335678393e-04 -3.8823015381134684e-04
245 6.2448027439185284e-04 -5.9096755765380667e-04 -5.1589690741704012e-04
246 -1.9245689005024892e-04 -2.4226465146129134e-04 -9.2818115012334879e-04
247 8.3105576293458164e-04 -5.6899661140529662e-04 1.1882173055483454e-04
248 2.2604825183520917e-04 4.2672412960524945e-04 8.5632865330991968e-04
249 -3.7524789561831643e-04 -1.4628719847085544e-04 8.9423758465717736e-04
250 3.5015834319464880e-04 4.3604407432908115e-04 8.1189769720161730e-04
251 -2.0274715863870466e-04 -3.6815736668441816e-04 -8.8655893399209327e-04
252 -7.7997571313943669e-05 -3.1320780974456580e-04 -9.2425834414121559e-04
253 3.8897153721107987e-04 9.2340631913878364e-04 1.4622406395788757e-04
254 -6.2811850972316092e-04 7.5756523713107712e-04 -2.2972617989750540e-04
255 -7.2386874614645453e-04 6.9217620816271056e-04 -1.4565811786552811e-04
256 -8.0639734060142373e-04 5.8143515240691916e-04 -1.8673046998972124e-04
257 -8.0520906571454674e-04 6.1267671529877739e-04 -5.1170825282844369e-05
258 -2.2229562653001695e-05 4.1454209706094468e-04 8.8876713799227673e-04
259 -2.8780613327828922e-04 -2.3620205041933922e-04 9.0643082785462194e-04
260 -2.7216191059020473e-04 1.9682452371712846e-04 9.1950668062451351e-04
261 -3.4246971165999778e-04 3.0007305882906194e-04 8.7021439814248460e-04
262 -2.5384286106511949e-04 -1.2457139840199146e-04 9.3618036680552150e-04
263 -1.6850736779855480e-04 -2.1130116311496473e-04 9.3972896981503885e-04
264 -8.7629209811885102e-04 5.0097075664246981e-04 -8.5135946307267007e-05
265 -8.6072489539105383e-04 5.3254172750656105e-04 4.8973298270877263e-05
266 -3.3809913108480308e-04 -7.4260641343122484e-04 5.7710077545570127e-04
267 -3.7154751871243668e-04 -8.1800943494833318e-04 4.5057788693096039e-04
268 5.1624892325755946e-04 -6.8151212344949564e-04 -5.2313289537970846e-04
269 5.2191232687793089e-04 -5.7086820526154190e-04 -6.2918372268773275e-04
270 6.1608652035056977e-04 -4.7646888428225183e-04 -6.2310594959671354e-04
271 5.0385859822070435e-04 -4.5178800394382672e-04 -7.2490117894328783e-04
272 4.0248003283232305e-04 -5.3794689348257013e-04 -7.2908694138451634e-04
273 -2.7079624931710213e-04 4.0548833190320898e-04 8.5369748961300069e-04
274 -4.1274130311858898e-04 3.9868907339195861e-04 8.0220053451148497e-04
275 3.7434318014517055e-04 -4.2275384053900287e-04 -8.0894436798030023e-04
276 2.7154188962020897e-04 -5.0020487342515834e-04 -8.0611377878140277e-04
277 -3.2153831463292248e-04 -3.5114582556200946e-04 8.5994034600486095e-04
278 -1.3715363995807099e-04 9.9553072907560859e-04 1.2321337490432709e-04
279 8.3258154052109716e-04 -5.6578373274134084e-04 -1.2003906361317185e-04
280 -2.2294266815712507e-04 4.4795205606829594e-04 -8.4608484977223466e-04
281 -1.4465807416454160e-04 5.5785351106178683e-04 -7.9977771669772840e-04
282 8.7259892541830897e-04 5.1776216168761496e-04 2.4855724594200421e-05
283 1.1593488865442182e-04 -4.5539532803312029e-04 8.6360585185997767e-04
284 -1.0004147180702326e-03 6.2413131180766865e-05 1.4367032715481565e-04
285 -9.2504064848518365e-04 -4.0827404789653014e-04 -7.5096563949736276e-05
286 -8.6293337208886707e-04 -5.3230618084575024e-04 -2.8090654847476836e-05
287 -8.4469000027913126e-04 -5.5028957066591971e-04 1.0704793389117615e-04
288 -7.8513672039637057e-04 -6.4196786406912616e-04 2.1973702788237495e-05
289 -7.5963357770197210e-04 -6.5104072008019423e-04 1.5993536380160751e-04
290 -6.8380995808671929e-04 -7.4398020154444497e-04 8.5074509157618958e-05
291 -1.9903340903265214e-04 -9.8008183707686295e-04 -1.6459907526989001e-04
292 -2.7590320274611631e-04 -8.9102518867307807e-04 3.8186334147918995e-04
293 -3.2613993157289215e-04 -5.4160317643254076e-04 -7.6108953462174743e-04
294 -9.6020672871875872e-05 -4.6272780898953814e-04 -8.6262961589155787e-04
295 -4.7144936770292798e-04 2.7745152753458092e-04 8.1962118266611377e-04
296 -5.4142968321743603e-04 3.8727567766934682e-04 7.3341885253079640e-04
297 -8.7400213527212285e-04 4.6138767653352631e-04 -2.1405028728776785e-04
298 -6.0141978057600819e-04 2.6215964692401884e-04 7.4149196990011871e-04
299 -6.6067453398489220e-04 3.7117357285918953e-04 6.4531983254340118e-04
300 -5.9401321057340865e-04 4.9146699109752965e-04 6.3075227853488726e-04
301 -7.0700863038528907e-04 4.6474515770258631e-04 5.3466412116768517e-04
302 -7.6703907966306658e-04 3.3979939910556880e-04 5.4480764295511928e-04
303 -2.9916623380783661e-04 -6.5477535319201623e-04 6.8493987322782975e-04
304 -6.2994019423763732e-04 5.8583784368400240e-04 5.1364536335505662e-04
305 -8.0827569758690080e-04 4.1742667827732356e-04 4.2808351141035233e-04
306 2.2596119018341258e-04 -5.3217342045698513e-04 8.0011074985779352e-04
307 2.3250974060358756e-04 -4.1290014913455850e-04 8.6156795500080233e-04
308 3.4841328322654839e-04 -4.8236618861611190e-04 7.8874551517951145e-04
309 -4.5669667873511941e-04 -7.3458331478767002e-04 5.0629429834431194e-04
310 -8.5725841548830312e-04 2.8884154006641636e-04 4.3772776907926810e-04
311 -4.1054778644783230e-04 -8.6646687528337983e-04 3.1733906096662241e-04
312 -7.7542915599162284e-04 6.4638494794307924e-04 8.3135819007304138e-05
313 -8.6156244648944629e-04 -5.0628025608231812e-04 -1.6569331652361248e-04
314 -5.2766389336716827e-05 1.0085365332790656e-04 9.6923368800849979e-04
315 -8.9337838287530309e-04 3.5810469967816977e-04 3.0526439150089504e-04
316 -9.9013758160571594e-04 1.9538874026242596e-04 8.9105002355650974e-05
317 -1.0933543693123103e-04 7.5237473270368092e-04 -6.4112092558957950e-04
318 2.5382959969699650e-04 -3.8947383180642180e-04 -8.6595043843093304e-04
319 -7.0324044127518398e-04 -7.2859208006376130e-04 -5.9149781532217596e-05
320 -6.0349973740328054e-04 -8.1510889336717748e-04 3.4501418071799025e-06
321 -6.4798939297911709e-04 -4.0914812098522528e-04 -6.3606577519926318e-04
322 -8.3349240453351177e-05 -1.8316341163749774e-04 -9.5557628821731023e-04
323 5.1479147709868305e-04 -8.7060765927550498e-04 7.9412072316514571e-05
324 -6.2414185744659586e-04 7.9199881663058046e-04 -9.2440756110289535e-05
325 2.7826247421809165e-04 5.3611121852436563e-04 7.8127290501181924e-04
326 2.8998563748745902e-04 -6.2169068914121300e-04 -7.1670205318434695e-04
327 1.5850567833347208e-04 -5.8761339745265571e-04 -7.7896767700752869e-04
328 4.0127990425654203e-04 5.3281435198026519e-04 7.3225468424151924e-04
329 4.7457154175708729e-04 4.3048223801026779e-04 7.5380621046481754e-04
330 4.3925276907348990e-04 4.2555818769936184e-04 -7.7516311193370920e-04
331 -2.0590279994652791e-06 9.9686148513063091e-04 1.7353503882993609e-04
332 -2.5104131775400232e-05 1.0118585990338922e-03 4.1295726955906432e-05
333 -1.6230992770732025e-04 9.9981217128627259e-04 -1.0130262257642721e-05
334 1.0531870255131434e-04 1.0046331363512137e-03 7.5817744345337519e-05
335 3.5205756526398267e-04 -3.5871515388073201e-04 8.4625922792451924e-04
336 4.5133867752694722e-04 -4.2699620848296333e-04 7.6938415394715051e-04
337 -8.1046688766698790e-04 2.0832973854025536e-04 5.4740182457255237e-04
338 -3.3935878434050671e-04 5.0798131056093863e-04 7.7610495986560801e-04
339 -1.0682178227050388e-04 4.4738618531702320e-04 -8.6708810832019723e-04
340 3.7405584886210738e-04 -3.0829301481867099e-04 -8.5564896493154415e-04
341 3.0082274345350099e-05 -2.6751603307045906e-04 -9.4001696029707917e-04
342 -9.4079978187209753e-04 3.6458196819055404e-04 -9.9971715552678208e-05
343 2.5228419819696157e-05 -3.7656912037932510e-04 9.0475310637482475e-04
344 -5.1604755278728399e-04 6.1079657437358129e-04 5.9696468289632202e-04
345 -5.3672494602101427e-04 7.1284131200519412e-04 4.6214419587212679e-04
346 -6.6114011884558068e-04 6.5706567045869179e-04 3.8124400510923013e-04
347 6.0038956474515787e-04 -3.5511761506070371e-04 -7.0634213197075702e-04
348 7.0789194289643822e-04 -3.7186020993910875e-04 -5.9829009787992131e-04
349 5.2249644660217376e-04 5.1766053780668393e-04 6.6877375709788937e-04
350 5.9466522449787426e-04 3.9768899041332356e-04 6.8878643907351240e-04
351 6.4231926153368308e-04 4.8971215548079111e-04 5.8704347200886004e-04
352 7.0493643459417605e-04 3.6453987763272896e-04 6.0475452102236565e-04
353 7.4277049865770456e-04 4.5769640731403586e-04 4.9486302290161161e-04
354 -6.5415095465744418e-04 -7.4190283779743105e-04 2.1500969204230619e-04
355 2.5166771611852116e-04 5.3376020124129900e-04 -7.9019265737048444e-04
356 1.2965348077144639e-04 5.4972387217472416e-04 -8.0743336975882900e-04
357 -6.7323598476185539e-04 3.2567652031823495e-04 -6.5439734107250588e-04
358 5.2904395662674135e-04 -8.4612957995985308e-04 -1.7592521914592163e-04
359 4.5204739008691954e-04 -8.5339377348306452e-04 -2.9764648612805468e-04
360 -8.3057538768017275e-04 4.8622559814782772e-04 3.0437453829717880e-04
361 -1.3526283455550552e-04 -5.2694376890960459e-04 8.2174264138419541e-04
362 -1.7518537089222458e-04 3.4400974270853713e-04 -9.0019143508951796e-04
363 -2.1067282091521893e-04 5.1213641374568241e-04 8.1490409773816584e-04
364 -5.2340656236184960e-04 8.4878412121666713e-04 -1.7038950449391036e-04
365 1.5345913055941080e-04 5.3488852752827428e-04 8.1351282803377551e-04
366 -3.4079012480647586e-04 -2.4618682317397566e-05 9.1758523907257961e-04
367 -7.1520125529253565e-04 -6.4736696190571407e-04 2.9963027600407382e-04
368 2.0603832317114395e-04 6.5250084440997963e-04 7.1816153226258008e-04
369 8.0672109118961347e-05 6.1615799866836447e-04 7.6754826484065413e-04
370 6.9162954847211042e-04 -2.4518142593821392e-04 -6.7143539636587389e-04
371 -5.2578463970116872e-04 1.6552532314067497e-04 8.1701287961407590e-04
372 -6.5632937290929772e-04 1.3525978351606205e-04 7.3038703406571963e-04
373 5.7258575033046044e-04 8.3455986759440194e-04 -5.2649673414122632e-05
374 -1.3146786678725931e-04 -8.6342754781994983e-05 9.6349108409811868e-04
375 -4.5396513136239104e-05 -1.6557387997140203e-04 9.6111484584049899e-04
376 -3.0943390606311762e-04 -9.3220506556828298e-04 2.4358634401918890e-04
377 -4.4078141938773928e-04 -8.9793463535402772e-04 1.6675236444212521e-04
378 -9.3104438083997762e-04 2.0284948659211738e-04 3.3309884994046245e-04
379 4.1280185723468338e-04 6.3129047402363432e-04 -6.4941263934118723e-04
380 1.6505220015696948e-04 -7.0134277000876745e-04 -6.8444973711427669e-04
381 2.9146380869725223e-04 -7.3229231689690504e-04 -6.1159323171009286e-04
382 -9.1283208639872143e-04 -3.8366878331762435e-04 -2.0895380926993015e-04
383 -8.3753808694569216e-04 -4.7548538783046809e-04 -3.0320754435546256e-04
384 -7.8145832882772141e-04 -5.8809517437518233e-04 -2.5717010823823395e-04
385 -1.7540203290079869e-04 -9.4710604467399212e-04 3.0499631644355894e-04
386 -6.6532486802670413e-04 5.2577381712101169e-04 -5.3021225084742515e-04
387 -7.6780395539865196e-04 4.7552272361674647e-04 -4.3878406514668157e-04
388 8.8030137953013041e-04 2.5019039627937684e-04 -4.1815499455324635e-04
389 -9.1856522381490030e-04 3.3680243761084809e-04 -2.5162284265457775e-04
390 -5.1180558684545553e-04 8.7336807826768857e-04 -3.7030074404192513e-05
391 -4.0797710147299132e-04 9.2009003656043950e-04 -1.0953828511538003e-04
392 -6.0479143380334690e-04 8.1151953338791621e-04 3.9182001395100620e-05
393 -6.0106715460766158e-04 -8.0562727710843196e-04 -1.3077099471231048e-04
394 -5.1003333594523486e-04 -8.7449571730454289e-04 -5.7939124399369490e-05
395 7.5281770356581233e-05 1.0085088731560199e-03 -5.6461122677841817e-05
396 2.1058174104116755e-04 9.9081618787870852e-04 -2.3344872257166590e-05
397 5.0272779736234587e-04 3.2298294143075137e-04 -7.8604267498199091e-04
398 2.5518040326378356e-04 -2.9021768494288453e-04 9.0126341813833734e-04
399 3.6503669963240562e-04 -2.1900715901076659e-04 8.8513408375118664e-04
400 -2.6444178851336520e-04 6.0607908949853297e-04 7.3639152546969681e-04
401 -1.5586553530282487e-04 6.0226777943118818e-04 7.6685494063401249e-04
402 3.1873817234562014e-04 -6.0348537739862674e-04 7.1970998340676468e-04
403 6.4416075292836859e-04 2.7449588173225549e-04 7.0310582444910229e-04
404 6.6712612643418938e-04 5.9053148511194816e-04 4.6482469629300125e-04
405 -3.2192413149684056e-04 -9.5563045180787677e-04 1.0720827660477731e-04
406 2.5726991989810189e-04 -2.7190308118897215e-04 -9.0558134525286300e-04
407 3.4925040084078256e-04 -1.7495745523607144e-04 -8.9919640087740506e-04
408 7.6210394259056490e-05 4.3980004939038480e-04 -8.7380965971744031e-04
409 -9.0152836320968929e-04 4.3340043924735026e-04 1.6258117990100468e-04
410 -4.5211037146605803e-04 8.2023000689196673e-04 3.7025889504318561e-04
411 5.4545658035292700e-04 4.2657414639692305e-04 -7.0844765114740505e-04
412 4.4698539752514925e-04 6.3167543829892249e-04 6.2851577543161763e-04
413 8.0621575524706432e-04 3.1117407983238593e-04 5.0842560704550887e-04
414 8.3890444213235397e-04 3.9530753789507469e-04 3.9247582886687513e-04
415 4.6233516386790136e-05 -1.4958730542895799e-04 -9.6327425521227370e-04
416 -9.8751281484380686e-04 2.2537981231774619e-04 -3.7968899482363131e-05
417 -7.1518300721724136e-05 3.3823464750154780e-04 -9.1517058649542382e-04
418 -1.3166035490608951e-04 2.3790804756359255e-04 -9.3842078257200625e-04
419 3.2768093873499694e-05 1.4834792796867343e-04 -9.6287850812565540e-04
420 -5.1171385555944940e-05 -7.6446594000358455e-05 -9.7087267031707031e-04
421 -9.5738327506782184e-04 3.2767460327255135e-04 5.9134437640008468e-05
422 7.9298786298143717e-04 -2.5718107892774920e-04 -5.5378267595109258e-04
423 8.0582508582746962e-04 -3.7618488396622872e-04 -4.6758042999967507e-04
424 2.4842206470515295e-04 9.7535850946850531e-04 1.1339492622300904e-04
425 2.9278312738022758e-05 -6.6777628322623546e-04 -7.3270951512019651e-04
426 3.5257152421498496e-05 -5.3083500039502018e-04 -8.2948564627397783e-04
427 -7.6517934714616091e-05 -5.8734414008053241e-04 -7.8965024897627040e-04
428 4.0975661804385193e-04 -9.0984205253914166e-04 -1.7474591892177770e-04
429 3.3129847396958168e-04 -9.1187962985125870e-04 -2.8356279125957740e-04
430 3.6114037464297347e-04 -8.4694332708154236e-04 -4.0778230786310440e-04
431 -6.0876269525149851e-04 -7.3004948482290597e-04 3.3776810832217719e-04
432 -6.5074325548591168e-04 -6.3024933365862313e-04 4.3731415991690633e-04
433 1.4662282715912389e-04 -3.2193642908104206e-04 -9.1352779153070331e-04
434 -6.0778402798263710e-06 5.4692748834235755e-04 -8.1940228061448033e-04
435 6.5961393765823171e-05 6.5420668964745108e-04 -7.3931630531659954e-04
436 8.8820626238856248e-04 2.6322145244549969e-04 3.9495579160296769e-04
437 9.1250102271248426e-04 3.4681287610318961e-04 2.6260152544014252e-04
438 8.4997056381534947e-04 4.6914434765024540e-04 2.7878214832172327e-04
439 7.4762893777451567e-04 2.3315972048519823e-04 6.1755379999171292e-04
440 -5.7743469846920916e-04 7.6587515365348898e-04 3.1392306469876904e-04
441 -7.0102643260888989e-04 6.9393291376520095e-04 2.2588962129459851e-04
442 6.6897858700341515e-04 -1.1973954982514577e-04 7.2233753825300541e-04
443 7.1284685192208718e-04 -2.4019837536954996e-04 6.5243883684213777e-04
444 8.0665858563522470e-04 -2.4738308181650084e-04 5.3949010663165067e-04
445 7.3667745685829060e-04 -3.6259884545981040e-04 5.7066586658358423e-04
446 8.1677077338500131e-04 -3.6947934445891742e-04 4.5476409359436091e-04
447 7.3733615456292084e-04 -4.8006662397330387e-04 4.8342044404009493e-04
448 6.5118399180324061e-04 -4.7534164161221415e-04 5.8965305666983179e-04
449 8.1026136257283748e-04 -4.8155135396475024e-04 3.5944168704463896e-04
450 8.8079183000656751e-04 -3.6794207863979016e-04 3.2908937356136545e-04
451 6.3656109312975814e-04 -5.9762262871824567e-04 4.9583661455785246e-04
452 6.6930511069991953e-04 1.2814859853545578e-04 7.2120329161883489e-04
453 -5.7980697968088967e-04 -8.2065016411986649e-04 1.3282787368024449e-04
454 2.5241304718525736e-05 -3.8908955061650249e-04 -8.9990490518799236e-04
455 9.1057030818405096e-04 4.1857368569053006e-04 1.4886023248895540e-04
456 4.6959261616174637e-04 -2.0862022922103334e-04 -8.3944854051047103e-04
457 4.9552311273237974e-04 5.1949882452598782e-04 -6.8541763210834181e-04
458 5.9641128007258961e-04 -2.3457155386940955e-04 7.5503121710394103e-04
459 1.3421784841456243e-04 9.7884150695994759e-04 2.1546398024089808e-04
460 6.3856969517661058e-04 7.0132098097499553e-04 3.4283042079318320e-04
461 3.7363890830690135e-04 5.2267088769075200e-04 -7.5151574585802109e-04
462 -4.1818632503352714e-04 6.9637008521855137e-04 5.8029781392624315e-04
463 7.6271275300018274e-04 -1.2968251389270315e-04 -6.2864902445733254e-04
464 8.8280467115313139e-04 -2.5660944205312878e-04 -4.1070771061157589e-04
465 8.8126909749661740e-04 -3.7233701208641692e-04 -3.2365441363871111e-04
466 4.1092787352387237e-08 8.1850559097054894e-04 -5.7146886567771213e-04
467 9.4101325360851492e-04 -2.5011229044761055e-04 -2.7250963027692005e-04
468 9.3099066154902891e-04 -3.6113110220805267e-04 -1.7461512637021722e-04
469 1.6366039469099995e-04 3.2570017846868048e-04 -9.0866296800742137e-04
470 8.6127454875424754e-04 -4.7974173855702055e-04 2.2996693921003588e-04
471 9.2753715362145917e-04 -3.5763279657173526e-04 1.9367413867732059e-04
472 1.9754712012241097e-04 7.6559442231738134e-04 6.0772804259478749e-04
473 1.4223034460382659e-04 -2.0831271332843277e-04 -9.4418333188279926e-04
474 2.2909814852367164e-04 -9.0433179888110328e-04 -3.8173566218475578e-04
475 5.6457134447237775e-04 7.8025500588343880e-04 -3.0199687002055632e-04
476 3.1925365812839469e-04 7.1056912364320666e-04 6.2118834799554650e-04
477 2.8200408255943382e-04 7.1505815169636930e-04 -6.3257356847672543e-04
478 -1.8278133325540759e-04 -5.5044774761214561e-04 -7.9779289597000768e-04
479 -1.7209741202077700e-04 -6.6547693557623630e-04 -7.1494576632567526e-04
480 -3.9655722909075582e-04 8.3742042602146871e-04 -3.9156442088022608e-04
481 1.9583656136414469e-04 6.4972239128658282e-04 -7.2135419587872080e-04
482 7.6854470974570255e-04 -6.0856599238250726e-04 2.5421648576220041e-04
483 9.0125901892184723e-04 -4.5498543185186865e-04 9.5598895533766706e-05
484 9.5605302439450009e-04 -3.3277839536448669e-04 5.9873201910194613e-05
485 5.8387500524608273e-04 -2.2843896430419853e-04 -7.6498535872013664e-04
486 3.8766577181571728e-04 1.4587699903874347e-04 -8.8860093931919656e-04
487 1.0033683056109315e-03 1.3441891131004449e-04 -6.2228129579576007e-05
488 9.6939769142153243e-04 2.7365867571607123e-04 -1.2011966853466939e-04
489 9.8641407380825282e-04 2.3237203378160767e-04 9.6385126160682117e-06
490 9.0971637683970276e-04 4.3363200153504264e-04 -1.0897996071273738e-04
491 3.5177575084894180e-04 9.5048761100158371e-04 1.2528742352406722e-05
492 2.9995083738026701e-04 9.5830464917009831e-04 -1.3503178271572668e-04
493 4.4308102963445283e-04 9.0755359291787177e-04 -7.9443490203018915e-05
494 9.2823498636665838e-04 -4.0734439870371790e-04 -3.6085084190849365e-05
495 9.7060260433906088e-04 -2.8878889797876898e-04 -5.5572910956355097e-05
496 -3.9864715931898386e-04 9.3115164900047962e-04 1.7334721576644671e-05
497 1.0020027677485389e-03 1.2965997876673114e-04 8.5652155703061405e-05
498 6.7893126943021330e-04 6.9095973198265374e-04 -2.8591089900234745e-04
499 1.0044968157483763e-03 -1.3038779487651873e-04 -6.4137680286282573e-05
500 9.7950774999820602e-04 -1.2054580688483997e-04 2.2475542623444573e-04
501 9.3731633318499218e-04 -1.2517600891434049e-04 -3.5170059361051066e-04
502 8.6140227336211467e-04 1.2248961955695377e-04 -4.9901904892265603e-04
503 8.6160946025809362e-04 -1.2149875609012582e-04 4.9943229809026185e-04
504 4.1810843871415917e-04 1.0825550681793483e-04 8.8159863478806200e-04
505 4.2014559022481121e-04 3.2087020788111907e-04 8.3079727796357206e-04
506 6.4575650324827675e-04 -3.5618523433616003e-04 6.6750815501650401e-04
507 3.0690429737402025e-04 -9.3966556323978747e-05 9.2471873176727020e-04
508 6.3080078724749930e-05 -1.1041024908728137e-04 9.6807707363756460e-04
509 1.4488273906192579e-04 -2.0320983735764350e-04 9.4507392622996235e-04
510 2.5173320896347627e-04 -1.7680318997852015e-04 9.2824387542255295e-04
511 -1.9848654358190277e-04 6.6913522854457688e-04 -7.0388978075790914e-04
512 2.7542794950354699e-04 9.4218919892545279e-04 2.4129741274038618e-04
513 5.8448488432804842e-04 -8.2855413327976603e-04 -4.0056317746104890e-05
514 2.5668154669871378e-04 -9.8063013106472257e-04 4.4504694639855883e-05
515 2.9968889513346729e-04 -9.5243815388437953e-04 1.7341177522251956e-04
516 -5.4297846643433056e-04 5.5976101718877090e-04 -6.1924796893333197e-04
517 7.8569349995395363e-04 -5.8461604372258592e-04 -2.5388820608903746e-04
518 -1.4386976416577788e-04 -1.0034067988416934e-03 -4.1166681313895850e-05
519 -2.9200197446619097e-04 -9.7113816181103047e-04 -4.7524143762988846e-05
520 -3.3450960897595926e-04 -9.3659444312882824e-04 -1.9239973100776777e-04
521 -7.9323753935672250e-04 5.3627774483724011e-04 -3.1642599352479250e-04
522 -9.9958871284833465e-04 1.0227631662737088e-04 -1.2713199322657949e-04
523 7.9465125564149143e-04 6.1599817008048158e-04 1.2360033150868679e-04
524 -8.1045335859944044e-04 -5.5278995304106407e-04 2.4605491694081760e-04
525 7.7662047391354090e-04 5.2247387173138735e-04 3.7250155770198937e-04
526 4.9171257002844204e-04 -7.7352039262926252e-04 -4.1644450141048250e-04
527 -9.6674940666597502e-04 -2.7766337837425000e-04 -1.2295073641871088e-04
528 -9.4596544140412907e-04 -7.2678993457702765e-05 3.4218368977613608e-04
529 -9.1908152461374544e-04 5.4865966922874468e-05 4.0626599997967323e-04
530 -8.4188906604947249e-04 5.4912945809317440e-05 5.3937232784066812e-04
531 -7.8967990310301842e-04 -6.2441422024525010e-04 -1.1988412618001956e-04
532 -9.8914059238306242e-04 -6.4658966491824699e-05 2.0375202593264475e-04
533 -7.3886376598674374e-04 5.3707434028289107e-04 4.2028501740388964e-04
534 -7.1203602763697082e-04 7.2033019358910268e-04 -1.1883005087275602e-05
535 -2.3856436566751054e-04 -9.3590620838298992e-04 -2.9739474259093414e-04
536 6.3305862696944526e-04 7.7157263494839442e-04 -1.6956540208181586e-04
537 -1.4210565641539180e-04 -8.9564453085576171e-04 4.3541982100674012e-04
538 -4.7656689330970891e-05 1.0068790051699277e-03 -9.5002973602627280e-05
539 -1.7065527368375274e-04 9.6062875084836042e-04 -2.5932518024564103e-04
540 6.2272265812937948e-05 9.8836430884468511e-04 -2.0717388329762591e-04
541 -9.4942243095586410e-04 2.9064638197400677e-04 1.9596929447546205e-04
542 -8.8892487824069482e-04 -4.4197607014363158e-04 1.9847634974364773e-04
543 -8.0194422287525251e-04 -8.8013312801955547e-05 5.8822185761998804e-04
544 -7.4849942290871707e-04 2.2021030021937767e-05 6.5464793756071337e-04
545 -6.5306385349855000e-04 -5.2677011362579082e-04 -5.4541557466716525e-04
546 -7.4126172163647714e-04 -4.2707016552722050e-04 -5.2069812590381504e-04
547 -7.4384625627836327e-04 -3.0055224130482784e-04 -5.9355844209232520e-04
548 -6.3608566698648340e-04 -2.7680077429869646e-04 -7.0886537397301568e-04
549 2.5915036469146988e-04 -8.1404611724282083e-04 5.2396880990844455e-04
550 5.6041746087636790e-04 5.9223485352906510e-04 5.7582822816342296e-04
551 8.7570195146009701e-04 3.7127200982377582e-04 -3.3561449524487211e-04
552 8.8216810566591971e-04 -2.4692821751490267e-04 4.1738876773372331e-04
553 1.6163805840550743e-04 -7.6418789572103515e-04 6.2025848501462324e-04
554 -4.3887456598570667e-04 -6.4131393791160235e-04 6.2530983114007332e-04
555 -3.7562248379573149e-04 -5.5585278761114982e-04 7.2913060616832184e-04
556 -8.3955619799548924e-04 -4.4630939397516807e-04 3.3718013589231386e-04
557 -6.1507728565396251e-04 -7.2468411803470903e-04 -3.3796580873825255e-04
558 -7.1524347231872055e-04 2.4397484032904142e-04 6.4738390265473879e-04
559 -6.7477801006547797e-04 -4.4571578671070001e-04 5.8582104555884396e-04
560 -5.8373620481704273e-04 -5.6277026500490364e-04 5.8446511102236399e-04
561 6.2703770123906128e-04 4.7830097239917298e-04 -6.1090561172837240e-04
562 -3.1524844957221947e-04 -6.7613089359183957e-04 -6.5898731484510657e-04
563 -4.7725012599120361e-04 5.0209753864659951e-04 7.0969453054411328e-04
564 7.1822859305094137e-04 -4.8733250403411505e-04 -5.0315202542439532e-04
565 -7.7467561647577928e-05 -2.8801596677232406e-04 9.3189052388132428e-04
566 -9.9979170358406296e-05 -3.9778331236154908e-04 8.9127790748796292e-04
567 -1.8876483595933283e-04 -3.1795893338868033e-04 9.0754863544955093e-04
568 -1.6421036824500087e-04 -6.4256717788955685e-04 7.3604378571913963e-04
569 4.1229880158375490e-04 -6.5811082998220606e-04 -6.2551229479505940e-04
570 -6.9874878874174467e-04 -9.1407827833518763e-05 6.9851064616425085e-04
571 5.2998002395406149e-04 3.0976124329733712e-04 7.7415160075512300e-04
572 4.8336437611923457e-04 -3.3303966135667530e-04 -7.9393646179043648e-04
573 1.4976828404186302e-04 -3.2506161407721196e-04 9.1219735597959011e-04
574 -7.3169112479608040e-04 1.9952998345035123e-04 -6.4362371625422408e-04
575 1.4707361875123951e-04 -4.5189979965559225e-04 -8.6088590302826830e-04
576 -4.3789638934801353e-04 -4.1995736513319662e-04 7.8050418684614935e-04
577 -2.9199798211974746e-04 3.4188277856311904e-04 -8.7224241373227052e-04
578 -2.4306518202492686e-04 2.3728443381813049e-04 -9.1755762065000150e-04
579 -3.0162412573466396e-04 1.2774664863214824e-04 -9.2157708174579669e-04
580 -4.6332767286301647e-04 1.4503307257232007e-05 -8.6568596894899194e-04
581 4.4933901433679449e-04 -5.5779889742501199e-04 6.8982054380851434e-04
582 4.6805976470981977e-04 -3.0147061013035528e-04 8.1389416953737753e-04
583 -4.2246754016088509e-04 1.2897480868551725e-04 -8.7608425897724715e-04
584 -3.9221540852183513e-04 1.7808495916147305e-04 8.8187705817482551e-04
585 -4.3206611046852381e-04 7.0591577574971969e-05 8.7857629169761056e-04
586 -3.2846731078609660e-04 -4.0903097485493382e-04 -8.3309870826187309e-04
587 3.0468779673500794e-05 9.5951570170250760e-04 3.1033054662132751e-04
588 -3.7384097020434824e-04 -8.7359048535512931e-05 -9.0147858149786314e-04
589 -2.7897977688319899e-04 -5.0508341842948254e-05 -9.3547158821659924e-04
590 -1.7662638408087825e-04 -1.1165021570111734e-04 -9.5390907094428741e-04
591 -1.3739193758356832e-04 4.0907243049499210e-04 8.8143589970375417e-04
592 -5.1893265804782906e-04 8.0690490081356686e-04 -3.1091923999787682e-04
593 -2.3184591418454249e-04 -8.9770195837953726e-06 9.4886501637138831e-04
594 3.5877136080933269e-04 2.1099391348244675e-04 8.8860141282526392e-04
595 -8.1290100364247010e-04 5.7102535802543521e-04 1.9235895320513635e-04
596 4.2981248962546648e-04 -8.9648594475576346e-04 1.9462653243644423e-04
597 1.0492699357840175e-04 4.2091405895489233e-04 8.8050962700425800e-04
598 3.2410087998543502e-04 9.1173197522564258e-04 -2.8754317400638181e-04
599 1.9272291327937760e-04 -6.5377625125771354e-04 7.2053574238046007e-04
600 -5.3556547533270560e-04 -8.1807799855872015e-04 2.5838429589455713e-04
601 -8.5055387526165936e-04 4.1279020754704309e-04 -3.4799565915292899e-04
602 -8.1443144900274775e-04 3.4877296178284712e-04 -4.6975848883533758e-04
603 -7.4622126845709177e-04 -5.3877431735447311e-04 -4.0892687545457282e-04
604 -9.1639094305356688e-04 1.3991781737339356e-04 -3.9108913623048735e-04
605 -4.1618124812938477e-04 -9.2484314417165113e-04 1.9027504221854783e-05
606 -3.2627839225329473e-04 8.4819949625967517e-04 4.2882739076253486e-04
607 5.1877411099675485e-05 1.2011644132496479e-04 9.6643980572330159e-04
608 -4.1827052205439913e-05 7.5714872677091463e-04 6.4446375218372748e-04
609 -7.3182339874902527e-04 -1.6688337246832351e-04 -6.5282251419941954e-04
610 9.6771545430222330e-04 2.6753315427441949e-04 1.4245074204526388e-04
611 4.1044878060303669e-04 -1.0326791114702838e-04 -8.8543652250868950e-04
612 9.2825385395305885e-04 1.3399255287670971e-04 3.6959470276752381e-04
613 -3.7318638499238380e-04 -8.8335483793584055e-04 -3.1703556678060906e-04
614 5.8182395225010047e-05 -7.8266511604046477e-04 -6.1602244697375221e-04
615 4.6517159554679537e-04 -8.9993680751757055e-04 -5.5551050569625348e-05
616 -6.9681206761491854e-04 -7.0497950822297011e-04 -2.0894160428534361e-04
617 -9.4357056000540275e-04 -2.5130537630425409e-04 -2.6086732766116808e-04
618 -6.1260417820691092e-04 4.4510883260893324e-04 -6.4453985686707899e-04
619 1.9086179134481548e-04 -9.6640662147321117e-04 -2.3546704625564780e-04
620 -3.5665159646354186e-05 -9.4785896557225929e-04 3.4476626126856699e-04
621 3.9175195467796144e-04 -7.6241260070531228e-04 -5.1960596752131450e-04
622 -2.2110224051007145e-04 -4.3732370677811638e-04 8.5247871082875701e-04
623 8.0585631184347246e-04 -4.8390255225209039e-04 -3.6560379802198220e-04
624 9.3516644955113316e-04 1.3154775639872562e-04 -3.5421468107535783e-04
625 -3.9195472627564262e-04 6.0282748707683189e-04 6.8448492221877657e-04
626 -2.5507757813432322e-04 -5.5785876504878024e-04 7.7467476563023547e-04
627 -8.6760204450622505e-05 5.1878131583308978e-04 8.3206519626107672e-04
628 4.9193192755797881e-04 8.8455569591402419e-04 5.2515179455900052e-05
629 -9.6815872322193036e-04 5.7660683584953027e-05 2.8203461705393401e-04
630 -5.9267743205848806e-04 8.0077811285842067e-04 1.7649108313419140e-04
631 -8.2892217969391540e-04 -1.9131396796776649e-04 -5.2763920837167830e-04
632 -4.0857650279844867e-04 8.8897041141601952e-04 -2.5087342818338576e-04
633 9.3879000660539072e-04 2.5832383467138694e-04 -2.7133235570693179e-04
634 -3.1487452008671006e-04 8.4258366089426384e-05 9.2282033848866123e-04
635 3.8758965057232901e-04 -9.3558549844737372e-04 6.1908753323666621e-05
636 -6.7240212090767664e-05 -9.8677175371035932e-04 2.1651139932040177e-04
637 -4.6233376219722563e-04 -5.2784129168621892e-05 8.6530132798649350e-04
638 4.2018760360669461e-04 2.5836079776664676e-04 -8.4957850830807990e-04
639 4.2130391183928175e-04 -1.0655146916231734e-04 8.8039753703602556e-04
640 -6.7540968240751661e-05 6.5341643394955596e-04 -7.3950987056864653e-04
641 -9.6853504358109519e-04 2.3171012518830586e-04 -1.7880160513269585e-04
642 -8.8662531044813176e-04 2.7749366386752797e-04 -3.8635244292254908e-04
643 2.8198731735263363e-04 -7.1655962789054410e-04 6.3263312976518174e-04
644 5.5238924752276381e-04 -4.6806323493748674e-04 6.8080882046152660e-04
645 5.8732840252347660e-04 2.2752982033604448e-04 -7.6200923474091975e-04
646 -1.8794794175134658e-04 9.8746127168161004e-05 9.5325045213287226e-04
647 2.3202504458280994e-05 5.3272517761982819e-04 8.2787311252585150e-04
648 -7.5397062152291079e-04 5.9669464427696906e-04 3.0364539628623100e-04
649 -2.7654197703544495e-04 9.7206513314770937e-04 6.7724190293574712e-05
650 9.4080471408002195e-04 -2.4173677710322535e-04 2.8008558604562231e-04
651 -4.7885395649390882e-04 -8.6979663011893678e-04 -2.0201487241064270e-04
652 -8.8501049641751830e-04 -3.4672376309707268e-04 -3.3675987817640774e-04
653 -1.8850768829430117e-04 1.4546590085143889e-04 -9.4700632761936579e-04
654 8.6234463331455566e-04 -4.7710659358481247e-04 -2.3019490289321646e-04
655 -7.2467604776320078e-04 4.0638387922125447e-04 -5.5435382874871359e-04
656 6.6272823155512188e-04 -1.1943625332287480e-04 -7.2738954478824506e-04
657 -7.5401008707821568e-04 -5.4736934227189824e-04 3.8265146796034524e-04
658 -3.4499481077219162e-04 2.6590113125157802e-05 -9.1534746786746011e-04
659 -1.5361330230971733e-04 7.7777208825972296e-06 -9.6392755097541173e-04
660 -3.5238540058093620e-05 1.1853266917490069e-05 -9.7357650925174882e-04
661 8.6815414303250858e-04 -5.2456411482367502e-04 -4.6483230688605680e-06
662 3.0910305237204287e-05 -2.4597992222656130e-04 9.4568975919308513e-04
663 5.1832377794224275e-04 8.4828704271305377e-04 -1.8755571558310625e-04
664 -2.9195774538168646e-04 9.6833179343201465e-04 -5.3552607945158081e-05
665 -2.9157192861831854e-04 9.5023874034795011e-04 -1.8611350376401039e-04
666 -7.7120278597293191e-05 1.1697565181382179e-04 -9.6559524427194423e-04
667 2.5819865133795868e-04 -8.2966279976181916e-04 -5.0116163540459479e-04
668 -5.5263284688349340e-04 4.7415137187008003e-05 8.1457564011103926e-04
669 -8.2848130257876310e-04 -3.2316795959549380e-04 -4.6544203985978913e-04
670 -4.9940552976406602e-04 8.7522622933372248e-04 1.0040771642336268e-04
671 -9.7385235103802654e-04 1.6537552832699646e-04 2.1356139808023712e-04
672 5.5311795698199636e-04 -3.5384791324124398e-04 7.4041896487660500e-04
673 -2.1025769624590552e-05 2.3864432493028316e-04 -9.4648948429161594e-04
674 -1.9715431626155601e-04 -9.7880430752374757e-04 1.7149165603337640e-04
675 4.1419161128801950e-04 7.4088412453955069e-04 5.2889084736209310e-04
676 7.9894255540398552e-05 7.1615433454824738e-04 6.8350417144556763e-04
677 4.7821630462136834e-04 2.0715277288053922e-04 8.3507852964986179e-04
678 -4.9214385348409211e-04 -7.8612111481259073e-04 3.9217055423609154e-04
679 3.0032010967282190e-04 -8.4646208567854721e-05 -9.2732788702837505e-04
680 3.8641879531083566e-04 -6.6279297454969826e-04 6.3477158992163304e-04
681 -8.7926414326137178e-04 1.6830496597250940e-04 4.5342406388780012e-04
682 -9.1681555109630441e-04 4.3002769162539230e-04 1.4800520154233059e-05
683 -4.7127150856382546e-05 -9.1757497927940225e-06 9.7351226844418675e-04
684 3.3931233502493491e-04 -9.5368011994792609e-04 -6.4526356306742708e-05
685 4.0054278769626248e-04 9.0613048488177839e-04 -1.9891261184249283e-04
686 1.7587706623417633e-04 -7.9359305823874389e-04 -5.7972547629048894e-04
687 1.6810350112518430e-04 9.8829731878897565e-04 -1.3488571155297795e-04
688 -8.1188678141964714e-04 -4.2891631666896253e-04 -4.0915912673314365e-04
689 -5.3921874510275429e-04 -6.5451138708389140e-04 5.3063684582877347e-04
690 5.6884952471777559e-04 -6.9671891740757442e-04 4.4759507384835095e-04
691 9.7470613854483813e-04 -2.3683157406998386e-04 1.4367366751238584e-04
692 -6.8794621439544133e-04 -5.3441762204385157e-04 4.9511851059166564e-04
693 9.4428450729573926e-04 2.2942733739071745e-04 2.7441256390382037e-04
694 -1.7823234555657349e-04 9.8716500365743408e-04 -1.3252533766612809e-04
695 9.1539807421208981e-04 3.6947249518504610e-04 -2.1791769357288555e-04
696 -4.4712044896380614e-05 6.4626712322941773e-04 7.4884233857414983e-04
697 -3.2807773719941948e-04 -4.6453778815737270e-04 8.0476691290632101e-04
698 9.4368888306066814e-04 3.7177603760797390e-04 1.5981157804763727e-05
699 -4.8708976701626291e-04 -5.3149730355561285e-04 6.8266711448426211e-04
700 -6.5196097834708839e-04 1.0996437226248463e-05 7.4328313020058628e-04
701 5.6224466645037540e-04 -5.5665196042821452e-04 6.0711021044973891e-04
702 -7.0172436725194460e-04 -6.4232605940337374e-04 -3.3389353756972434e-04
703 -7.6305956874694501e-04 2.9288482915258110e-04 -5.7140117388681979e-04
704 3.9065019338993338e-05 3.3553972780909033e-04 -9.1788225670056962e-04
705 3.0492862436035594e-04 6.1166969108313203e-04 -7.1608515518434745e-04
706 -3.1414460105955709e-04 6.7980454188849317e-04 6.5312496418408125e-04
707 1.1530361691293772e-04 -9.3912490931590627e-04 -3.4815855441720312e-04
708 -6.7888475882298322e-04 7.4274084724365455e-04 1.0482094325359145e-04
709 6.8104149127461614e-06 7.3272398350365093e-04 -6.6908197061480183e-04
710 -4.0755753514040677e-04 7.7458971363735939e-04 4.8722485437327267e-04
711 -9.3700782424385840e-04 2.1865106041358287e-04 -3.0044936759564842e-04
712 7.6812045138607800e-04 1.0298481874527923e-04 6.2565617352131899e-04
713 -2.0736203729129237e-04 -7.4888617285739977e-04 -6.2298440982216572e-04
714 6.2518248715790967e-04 3.4991070958250646e-04 -6.8751891347145031e-04
715 -2.1451086523836013e-04 -9.8943282337311811e-04 4.8080239036816667e-05
716 -2.6232060313547193e-04 5.3452275067251449e-05 -9.3905494981447125e-04
717 -4.0963970021323749e-04 -9.2115391269477574e-04 -1.0114285920984982e-04
718 4.8881647371717106e-04 -1.9975856817705062e-04 8.3064908602557732e-04
719 7.3029993649894405e-04 -5.7346485337195663e-04 3.8926132132611178e-04
720 8.5420080397212667e-04 5.1939987930494215e-04 1.5580814450001716e-04
721 2.4448363122205470e-04 -1.6514685507297984e-04 -9.3180932818856565e-04
722 -5.8175990024723315e-04 -7.9086197522514230e-04 -2.4058387193502475e-04
723 4.3083193408438395e-05 6.2871675420418503e-05 -9.7173900741191624e-04
724 -1.7565511748673755e-04 7.0787219885728970e-04 6.7546771455588963e-04
725 8.9123569329270502e-04 -4.6775276854863249e-04 -1.1458606254491088e-04
726 5.8495728712554468e-04 1.9709638824839953e-04 7.7086794865244908e-04
727 7.9150155940426749e-04 5.7715334530776324e-04 2.4815539804350079e-04
728 5.4212771230809878e-04 5.8262882336436721e-04 -5.9973711859712608e-04
729 4.6794476267962256e-04 9.4211442003600112e-05 -8.5808945042962473e-04
730 7.1783483562859061e-04 6.2152307245791133e-04 3.3706349120407890e-04
731 -2.3887539475990829e-04 -6.0849637397465759e-04 -7.4133133260619792e-04
732 3.3582266727595785e-04 6.0912037285951333e-04 7.0613709953490985e-04
733 -7.3264750823002399e-05 9.8731215164714879e-04 -2.0040328050107778e-04
734 -2.3433019830616835e-04 -4.6928146380300750e-04 -8.3233149519867098e-04
735 9.7232953213716340e-04 -2.3533806545437960e-04 -1.5614499279411383e-04
736 9.8989573328495161e-04 -2.1495553012957231e-04 3.0554609563061931e-05
737 -3.1298670003875701e-05 -6.7763798056448313e-05 9.7204510478815628e-04
738 -5.1112823977295682e-04 -8.7289204981827624e-04 6.0251397572352044e-05
739 4.8212013099919001e-04 1.9718939665032078e-04 -8.3467159668120937e-04
740 -7.5879401315688197e-04 1.3453522651380638e-04 6.2973668009716705e-04
741 -1.4047219247204475e-04 2.1389459088520164e-05 9.6470277867384655e-04
742 -5.5892666782481526e-04 -7.0721347128704297e-04 4.4222662276685934e-04
743 -1.4908160549823340e-05 4.2715077785800972e-04 -8.8180821011212506e-04
744 2.9823760652034271e-04 -9.5169648401225132e-04 -1.7339355465689922e-04
745 -7.6454250765242674e-05 -6.7631136439515063e-04 -7.1878113738379004e-04
$EndNodes
$Elements
1486
1 2 2 0 0 410 440 345
2 2 2 0 0 421 541 409
3 2 2 0 0 409 682 421
4 2 2 0 0 545 603 546
5 2 2 0 0 426 427 294
6 2 2 0 0 294 454 426
7 2 2 0 0 265 682 409
8 2 2 0 0 24 41 4
9 2 2 0 0 3 24 4
10 2 2 0 0 238 642 602
11 2 2 0 0 520 651 613
12 2 2 0 0 653 666 659
13 2 2 0 0 404 460 98
14 2 2 0 0 222 482 219
15 2 2 0 0 40 463 9
16 2 2 0 0 608 724 696
17 2 2 0 0 435 709 69
18 2 2 0 0 413 439 29
19 2 2 0 0 345 710 410
20 2 2 0 0 422 463 40
21 2 2 0 0 98 550 404
22 2 2 0 0 95 724 608
23 2 2 0 0 4 41 5
24 2 2 0 0 232 701 581
25 2 2 0 0 490 698 488
26 2 2 0 0 29 436 413
27 2 2 0 0 416 421 342
28 2 2 0 0 312 595 441
29 2 2 0 0 41 486 5
30 2 2 0 0 405 605 519
31 2 2 0 0 409 595 265
32 2 2 0 0 69 481 435
33 2 2 0 0 434 743 339
34 2 2 0 0 342 641 416
35 2 2 0 0 485 656 370
36 2 2 0 0 89 587 90
37 2 2 0 0 108 466 317
38 2 2 0 0 378 629 529
39 2 2 0 0 581 680 232
40 2 2 0 0 281 434 339
41 2 2 0 0 638 739 486
42 2 2 0 0 659 666 660
43 2 2 0 0 345 440 346
44 2 2 0 0 22 44 25
45 2 2 0 0 9 463 8
46 2 2 0 0 44 81 25
47 2 2 0 0 459 587 89
48 2 2 0 0 127 670 630
49 2 2 0 0 508 662 509
50 2 2 0 0 375 662 508
51 2 2 0 0 492 598 103
52 2 2 0 0 604 642 238
53 2 2 0 0 507 510 399
54 2 2 0 0 488 698 489
55 2 2 0 0 34 473 415
56 2 2 0 0 399 639 507
57 2 2 0 0 603 688 546
58 2 2 0 0 316 541 421
59 2 2 0 0 647 696 627
60 2 2 0 0 403 439 352
61 2 2 0 0 221 603 545
62 2 2 0 0 595 648 441
63 2 2 0 0 412 550 98
64 2 2 0 0 411 714 397
65 2 2 0 0 486 739 729
66 2 2 0 0 696 724 401
67 2 2 0 0 247 482 222
68 2 2 0 0 397 714 645
69 2 2 0 0 613 651 212
70 2 2 0 0 207 745 425
71 2 2 0 0 98 675 412
72 2 2 0 0 219 482 230
73 2 2 0 0 560 692 432
74 2 2 0 0 432 689 560
75 2 2 0 0 454 575 426
76 2 2 0 0 352 439 413
77 2 2 0 0 415 420 2
78 2 2 0 0 40 464 422
79 2 2 0 0 89 512 459
80 2 2 0 0 425 614 207
81 2 2 0 0 377 600 453
82 2 2 0 0 89 90 88
83 2 2 0 0 80 466 108
84 2 2 0 0 520 717 651
85 2 2 0 0 602 703 238
86 2 2 0 0 103 687 492
87 2 2 0 0 253 491 424
88 2 2 0 0 69 709 466
89 2 2 0 0 424 512 253
90 2 2 0 0 369 696 647
91 2 2 0 0 581 701 644
92 2 2 0 0 630 670 392
93 2 2 0 0 32 656 485
94 2 2 0 0 459 512 424
95 2 2 0 0 90 91 88
96 2 2 0 0 427 478 294
97 2 2 0 0 488 695 490
98 2 2 0 0 554 699 560
99 2 2 0 0 67 80 79
100 2 2 0 0 252 454 294
101 2 2 0 0 253 628 491
102 2 2 0 0 529 681 378
103 2 2 0 0 519 715 405
104 2 2 0 0 440 441 346
105 2 2 0 0 605 717 519
106 2 2 0 0 403 452 439
107 2 2 0 0 507 639 21
108 2 2 0 0 565 567 566
109 2 2 0 0 433 454 341
110 2 2 0 0 67 466 80
111 2 2 0 0 555 697 576
112 2 2 0 0 491 628 493
113 2 2 0 0 389 641 342
114 2 2 0 0 429 619 474
115 2 2 0 0 40 501 464
116 2 2 0 0 576 699 555
117 2 2 0 0 311 600 377
118 2 2 0 0 567 622 566
119 2 2 0 0 433 575 454
120 2 2 0 0 378 671 629
121 2 2 0 0 79 540 103
122 2 2 0 0 341 473 433
123 2 2 0 0 673 704 68
124 2 2 0 0 462 710 345
125 2 2 0 0 557 722 616
126 2 2 0 0 573 662 343
127 2 2 0 0 370 656 463
128 2 2 0 0 341 454 252
129 2 2 0 0 616 702 557
130 2 2 0 0 6 26 7
131 2 2 0 0 464 501 467
132 2 2 0 0 433 473 406
133 2 2 0 0 8 45 37
134 2 2 0 0 466 709 317
135 2 2 0 0 457 461 379
136 2 2 0 0 84 512 86
137 2 2 0 0 19 452 33
138 2 2 0 0 380 614 425
139 2 2 0 0 83 540 79
140 2 2 0 0 398 510 509
141 2 2 0 0 609 631 137
142 2 2 0 0 18 442 36
143 2 2 0 0 26 45 7
144 2 2 0 0 565 566 343
145 2 2 0 0 80 83 79
146 2 2 0 0 560 689 554
147 2 2 0 0 134 137 136
148 2 2 0 0 68 469 42
149 2 2 0 0 659 716 653
150 2 2 0 0 619 707 474
151 2 2 0 0 497 610 39
152 2 2 0 0 137 138 136
153 2 2 0 0 283 573 343
154 2 2 0 0 506 644 448
155 2 2 0 0 499 735 31
156 2 2 0 0 81 97 25
157 2 2 0 0 45 46 37
158 2 2 0 0 585 668 637
159 2 2 0 0 495 735 499
160 2 2 0 0 399 510 398
161 2 2 0 0 509 573 398
162 2 2 0 0 442 443 36
163 2 2 0 0 1 607 314
164 2 2 0 0 29 612 436
165 2 2 0 0 547 631 609
166 2 2 0 0 360 595 409
167 2 2 0 0 421 682 342
168 2 2 0 0 426 575 327
169 2 2 0 0 123 577 235
170 2 2 0 0 339 743 417
171 2 2 0 0 7 45 8
172 2 2 0 0 3 723 24
173 2 2 0 0 418 666 653
174 2 2 0 0 59 60 58
175 2 2 0 0 620 636 193
176 2 2 0 0 42 469 47
177 2 2 0 0 65 67 66
178 2 2 0 0 509 662 573
179 2 2 0 0 470 482 247
180 2 2 0 0 368 476 472
181 2 2 0 0 530 740 337
182 2 2 0 0 253 512 84
183 2 2 0 0 455 698 282
184 2 2 0 0 61 65 62
185 2 2 0 0 59 61 60
186 2 2 0 0 91 472 88
187 2 2 0 0 90 92 91
188 2 2 0 0 19 442 18
189 2 2 0 0 464 465 423
190 2 2 0 0 706 724 118
191 2 2 0 0 456 611 32
192 2 2 0 0 379 477 61
193 2 2 0 0 417 743 704
194 2 2 0 0 314 683 1
195 2 2 0 0 442 458 443
196 2 2 0 0 11 28 12
197 2 2 0 0 61 62 60
198 2 2 0 0 118 724 95
199 2 2 0 0 22 25 23
200 2 2 0 0 247 483 470
201 2 2 0 0 281 640 434
202 2 2 0 0 197 667 474
203 2 2 0 0 86 512 89
204 2 2 0 0 417 704 673
205 2 2 0 0 451 690 230
206 2 2 0 0 27 442 19
207 2 2 0 0 637 668 229
208 2 2 0 0 60 475 58
209 2 2 0 0 489 610 497
210 2 2 0 0 307 573 283
211 2 2 0 0 61 477 65
212 2 2 0 0 65 66 62
213 2 2 0 0 544 740 530
214 2 2 0 0 230 719 451
215 2 2 0 0 18 452 19
216 2 2 0 0 268 569 269
217 2 2 0 0 32 485 456
218 2 2 0 0 627 696 401
219 2 2 0 0 24 42 41
220 2 2 0 0 20 27 19
221 2 2 0 0 330 461 457
222 2 2 0 0 506 672 644
223 2 2 0 0 472 476 87
224 2 2 0 0 468 495 494
225 2 2 0 0 88 472 87
226 2 2 0 0 121 577 123
227 2 2 0 0 327 575 276
228 2 2 0 0 422 464 423
229 2 2 0 0 47 63 49
230 2 2 0 0 458 506 443
231 2 2 0 0 232 690 451
232 2 2 0 0 28 487 12
233 2 2 0 0 80 107 83
234 2 2 0 0 608 696 676
235 2 2 0 0 356 481 355
236 2 2 0 0 138 238 136
237 2 2 0 0 137 139 138
238 2 2 0 0 729 739 26
239 2 2 0 0 81 99 97
240 2 2 0 0 46 50 37
241 2 2 0 0 463 656 8
242 2 2 0 0 443 444 36
243 2 2 0 0 68 704 469
244 2 2 0 0 24 68 42
245 2 2 0 0 16 503 30
246 2 2 0 0 65 69 67
247 2 2 0 0 67 79 66
248 2 2 0 0 676 696 369
249 2 2 0 0 59 379 61
250 2 2 0 0 90 93 92
251 2 2 0 0 464 467 465
252 2 2 0 0 441 708 312
253 2 2 0 0 483 484 471
254 2 2 0 0 427 479 478
255 2 2 0 0 245 564 244
256 2 2 0 0 470 483 471
257 2 2 0 0 473 721 406
258 2 2 0 0 555 699 554
259 2 2 0 0 47 469 63
260 2 2 0 0 63 355 49
261 2 2 0 0 62 64 60
262 2 2 0 0 80 108 107
263 2 2 0 0 107 539 83
264 2 2 0 0 139 140 138
265 2 2 0 0 99 100 97
266 2 2 0 0 81 236 99
267 2 2 0 0 46 51 50
268 2 2 0 0 443 445 444
269 2 2 0 0 24 419 68
270 2 2 0 0 69 466 67
271 2 2 0 0 79 103 66
272 2 2 0 0 65 477 69
273 2 2 0 0 547 548 321
274 2 2 0 0 93 94 92
275 2 2 0 0 467 468 465
276 2 2 0 0 333 664 649
277 2 2 0 0 55 498 56
278 2 2 0 0 56 498 72
279 2 2 0 0 12 499 31
280 2 2 0 0 63 356 355
281 2 2 0 0 108 110 107
282 2 2 0 0 139 141 140
283 2 2 0 0 100 101 97
284 2 2 0 0 236 248 99
285 2 2 0 0 81 594 236
286 2 2 0 0 51 52 50
287 2 2 0 0 192 515 195
288 2 2 0 0 445 446 444
289 2 2 0 0 477 481 69
290 2 2 0 0 94 95 92
291 2 2 0 0 93 96 94
292 2 2 0 0 63 408 356
293 2 2 0 0 108 111 110
294 2 2 0 0 110 117 107
295 2 2 0 0 139 154 141
296 2 2 0 0 141 142 140
297 2 2 0 0 51 53 52
298 2 2 0 0 100 102 101
299 2 2 0 0 236 250 248
300 2 2 0 0 445 447 446
301 2 2 0 0 52 388 50
302 2 2 0 0 277 622 567
303 2 2 0 0 95 608 92
304 2 2 0 0 94 118 95
305 2 2 0 0 93 104 96
306 2 2 0 0 51 561 53
307 2 2 0 0 408 434 356
308 2 2 0 0 53 54 52
309 2 2 0 0 445 448 447
310 2 2 0 0 108 317 111
311 2 2 0 0 141 143 142
312 2 2 0 0 142 225 140
313 2 2 0 0 102 166 101
314 2 2 0 0 250 325 248
315 2 2 0 0 100 258 102
316 2 2 0 0 53 55 54
317 2 2 0 0 447 449 446
318 2 2 0 0 236 505 250
319 2 2 0 0 104 105 96
320 2 2 0 0 53 57 55
321 2 2 0 0 55 56 54
322 2 2 0 0 448 451 447
323 2 2 0 0 14 39 15
324 2 2 0 0 317 511 111
325 2 2 0 0 10 40 9
326 2 2 0 0 143 144 142
327 2 2 0 0 57 58 55
328 2 2 0 0 8 37 9
329 2 2 0 0 14 38 13
330 2 2 0 0 166 314 101
331 2 2 0 0 18 36 17
332 2 2 0 0 16 29 17
333 2 2 0 0 33 504 20
334 2 2 0 0 325 365 248
335 2 2 0 0 199 202 196
336 2 2 0 0 7 32 6
337 2 2 0 0 434 435 356
338 2 2 0 0 74 75 73
339 2 2 0 0 223 239 234
340 2 2 0 0 74 76 75
341 2 2 0 0 72 74 73
342 2 2 0 0 231 549 201
343 2 2 0 0 202 205 204
344 2 2 0 0 226 227 214
345 2 2 0 0 272 275 271
346 2 2 0 0 276 318 275
347 2 2 0 0 213 214 209
348 2 2 0 0 76 77 75
349 2 2 0 0 210 231 201
350 2 2 0 0 16 30 15
351 2 2 0 0 205 209 208
352 2 2 0 0 202 204 196
353 2 2 0 0 318 406 340
354 2 2 0 0 195 196 193
355 2 2 0 0 322 420 415
356 2 2 0 0 239 240 234
357 2 2 0 0 163 588 168
358 2 2 0 0 12 31 11
359 2 2 0 0 56 72 71
360 2 2 0 0 425 426 327
361 2 2 0 0 19 33 20
362 2 2 0 0 168 224 215
363 2 2 0 0 209 568 216
364 2 2 0 0 318 433 406
365 2 2 0 0 269 271 270
366 2 2 0 0 268 269 245
367 2 2 0 0 21 639 20
368 2 2 0 0 84 85 82
369 2 2 0 0 181 207 183
370 2 2 0 0 269 272 271
371 2 2 0 0 272 276 275
372 2 2 0 0 242 243 240
373 2 2 0 0 102 167 166
374 2 2 0 0 223 234 233
375 2 2 0 0 283 343 227
376 2 2 0 0 205 208 204
377 2 2 0 0 213 226 214
378 2 2 0 0 271 572 347
379 2 2 0 0 243 268 245
380 2 2 0 0 335 398 307
381 2 2 0 0 303 555 554
382 2 2 0 0 226 283 227
383 2 2 0 0 347 485 370
384 2 2 0 0 195 199 196
385 2 2 0 0 205 213 209
386 2 2 0 0 246 322 252
387 2 2 0 0 76 78 77
388 2 2 0 0 133 163 135
389 2 2 0 0 163 168 164
390 2 2 0 0 322 415 341
391 2 2 0 0 227 361 214
392 2 2 0 0 191 198 189
393 2 2 0 0 78 84 82
394 2 2 0 0 209 216 208
395 2 2 0 0 78 82 77
396 2 2 0 0 216 303 266
397 2 2 0 0 417 418 362
398 2 2 0 0 314 607 101
399 2 2 0 0 339 362 280
400 2 2 0 0 243 245 244
401 2 2 0 0 187 291 185
402 2 2 0 0 429 430 359
403 2 2 0 0 143 145 144
404 2 2 0 0 202 553 205
405 2 2 0 0 339 417 362
406 2 2 0 0 131 580 133
407 2 2 0 0 239 242 240
408 2 2 0 0 57 59 58
409 2 2 0 0 224 246 215
410 2 2 0 0 84 86 85
411 2 2 0 0 303 554 266
412 2 2 0 0 72 73 71
413 2 2 0 0 437 438 414
414 2 2 0 0 318 340 275
415 2 2 0 0 269 270 245
416 2 2 0 0 86 87 85
417 2 2 0 0 192 193 191
418 2 2 0 0 123 235 129
419 2 2 0 0 263 374 262
420 2 2 0 0 425 427 426
421 2 2 0 0 149 150 147
422 2 2 0 0 210 232 231
423 2 2 0 0 74 373 76
424 2 2 0 0 168 215 169
425 2 2 0 0 259 262 249
426 2 2 0 0 145 146 144
427 2 2 0 0 367 524 289
428 2 2 0 0 271 347 270
429 2 2 0 0 406 407 340
430 2 2 0 0 334 459 424
431 2 2 0 0 429 474 430
432 2 2 0 0 250 328 325
433 2 2 0 0 431 432 367
434 2 2 0 0 104 278 105
435 2 2 0 0 145 147 146
436 2 2 0 0 151 152 150
437 2 2 0 0 235 583 129
438 2 2 0 0 237 249 228
439 2 2 0 0 149 151 150
440 2 2 0 0 159 161 158
441 2 2 0 0 153 155 152
442 2 2 0 0 156 158 155
443 2 2 0 0 354 367 289
444 2 2 0 0 259 263 262
445 2 2 0 0 190 191 189
446 2 2 0 0 177 221 174
447 2 2 0 0 162 228 161
448 2 2 0 0 124 516 386
449 2 2 0 0 418 653 578
450 2 2 0 0 371 584 295
451 2 2 0 0 151 153 152
452 2 2 0 0 153 156 155
453 2 2 0 0 159 162 161
454 2 2 0 0 374 593 262
455 2 2 0 0 156 159 158
456 2 2 0 0 237 259 249
457 2 2 0 0 146 284 160
458 2 2 0 0 266 309 267
459 2 2 0 0 264 265 257
460 2 2 0 0 86 88 87
461 2 2 0 0 265 312 257
462 2 2 0 0 162 237 228
463 2 2 0 0 21 44 22
464 2 2 0 0 324 392 390
465 2 2 0 0 371 585 584
466 2 2 0 0 262 366 249
467 2 2 0 0 192 195 193
468 2 2 0 0 263 375 374
469 2 2 0 0 216 266 217
470 2 2 0 0 326 327 276
471 2 2 0 0 260 646 166
472 2 2 0 0 220 223 222
473 2 2 0 0 322 341 252
474 2 2 0 0 256 257 255
475 2 2 0 0 78 253 84
476 2 2 0 0 358 359 242
477 2 2 0 0 188 189 187
478 2 2 0 0 281 339 280
479 2 2 0 0 146 160 144
480 2 2 0 0 123 129 128
481 2 2 0 0 255 324 254
482 2 2 0 0 228 229 161
483 2 2 0 0 354 431 367
484 2 2 0 0 163 164 135
485 2 2 0 0 155 157 152
486 2 2 0 0 243 244 240
487 2 2 0 0 256 264 257
488 2 2 0 0 284 316 160
489 2 2 0 0 380 425 327
490 2 2 0 0 148 149 147
491 2 2 0 0 335 399 398
492 2 2 0 0 418 578 362
493 2 2 0 0 334 424 396
494 2 2 0 0 167 260 166
495 2 2 0 0 325 368 365
496 2 2 0 0 428 429 359
497 2 2 0 0 165 255 254
498 2 2 0 0 297 342 264
499 2 2 0 0 298 371 295
500 2 2 0 0 218 323 220
501 2 2 0 0 310 337 302
502 2 2 0 0 165 256 255
503 2 2 0 0 186 187 185
504 2 2 0 0 56 71 70
505 2 2 0 0 165 254 125
506 2 2 0 0 200 201 199
507 2 2 0 0 148 206 149
508 2 2 0 0 324 390 364
509 2 2 0 0 190 192 191
510 2 2 0 0 368 369 365
511 2 2 0 0 353 404 351
512 2 2 0 0 104 331 278
513 2 2 0 0 256 297 264
514 2 2 0 0 316 421 416
515 2 2 0 0 239 358 242
516 2 2 0 0 169 586 171
517 2 2 0 0 286 287 206
518 2 2 0 0 324 364 254
519 2 2 0 0 241 576 162
520 2 2 0 0 168 169 164
521 2 2 0 0 121 123 122
522 2 2 0 0 266 267 217
523 2 2 0 0 129 131 130
524 2 2 0 0 216 217 208
525 2 2 0 0 285 382 313
526 2 2 0 0 172 321 170
527 2 2 0 0 390 391 364
528 2 2 0 0 296 563 300
529 2 2 0 0 246 252 251
530 2 2 0 0 285 286 206
531 2 2 0 0 288 289 287
532 2 2 0 0 298 372 371
533 2 2 0 0 23 35 22
534 2 2 0 0 300 344 304
535 2 2 0 0 344 462 345
536 2 2 0 0 123 128 122
537 2 2 0 0 297 389 342
538 2 2 0 0 237 277 259
539 2 2 0 0 148 285 206
540 2 2 0 0 86 89 88
541 2 2 0 0 306 307 283
542 2 2 0 0 234 279 233
543 2 2 0 0 316 416 160
544 2 2 0 0 188 190 189
545 2 2 0 0 85 98 82
546 2 2 0 0 358 428 359
547 2 2 0 0 437 455 438
548 2 2 0 0 203 210 201
549 2 2 0 0 382 383 313
550 2 2 0 0 153 176 156
551 2 2 0 0 290 354 289
552 2 2 0 0 159 241 162
553 2 2 0 0 386 387 126
554 2 2 0 0 273 363 338
555 2 2 0 0 272 326 276
556 2 2 0 0 171 293 173
557 2 2 0 0 145 148 147
558 2 2 0 0 274 295 261
559 2 2 0 0 285 313 286
560 2 2 0 0 383 384 313
561 2 2 0 0 301 302 299
562 2 2 0 0 131 133 132
563 2 2 0 0 296 298 295
564 2 2 0 0 305 310 302
565 2 2 0 0 349 412 328
566 2 2 0 0 344 345 304
567 2 2 0 0 77 119 75
568 2 2 0 0 315 378 310
569 2 2 0 0 363 401 400
570 2 2 0 0 332 333 278
571 2 2 0 0 223 233 222
572 2 2 0 0 331 334 332
573 2 2 0 0 186 188 187
574 2 2 0 0 178 212 177
575 2 2 0 0 305 360 315
576 2 2 0 0 334 396 395
577 2 2 0 0 246 251 215
578 2 2 0 0 167 261 260
579 2 2 0 0 175 179 178
580 2 2 0 0 345 346 304
581 2 2 0 0 124 386 126
582 2 2 0 0 286 288 287
583 2 2 0 0 331 332 278
584 2 2 0 0 179 181 180
585 2 2 0 0 301 305 302
586 2 2 0 0 300 304 301
587 2 2 0 0 296 300 299
588 2 2 0 0 305 315 310
589 2 2 0 0 296 299 298
590 2 2 0 0 320 453 290
591 2 2 0 0 274 296 295
592 2 2 0 0 313 531 286
593 2 2 0 0 120 281 280
594 2 2 0 0 360 409 315
595 2 2 0 0 363 400 338
596 2 2 0 0 129 130 128
597 2 2 0 0 300 301 299
598 2 2 0 0 1 508 23
599 2 2 0 0 167 273 261
600 2 2 0 0 133 135 134
601 2 2 0 0 173 174 172
602 2 2 0 0 311 377 376
603 2 2 0 0 273 274 261
604 2 2 0 0 273 338 274
605 2 2 0 0 334 395 332
606 2 2 0 0 183 197 184
607 2 2 0 0 319 393 320
608 2 2 0 0 449 450 446
609 2 2 0 0 288 290 289
610 2 2 0 0 226 306 283
611 2 2 0 0 326 380 327
612 2 2 0 0 175 177 174
613 2 2 0 0 181 183 182
614 2 2 0 0 219 230 211
615 2 2 0 0 308 335 307
616 2 2 0 0 267 311 292
617 2 2 0 0 169 170 164
618 2 2 0 0 288 319 290
619 2 2 0 0 126 165 125
620 2 2 0 0 120 280 121
621 2 2 0 0 130 357 128
622 2 2 0 0 195 200 199
623 2 2 0 0 169 171 170
624 2 2 0 0 171 172 170
625 2 2 0 0 184 186 185
626 2 2 0 0 73 282 71
627 2 2 0 0 252 294 251
628 2 2 0 0 319 320 290
629 2 2 0 0 131 132 130
630 2 2 0 0 393 394 320
631 2 2 0 0 171 173 172
632 2 2 0 0 4 34 3
633 2 2 0 0 218 220 219
634 2 2 0 0 267 292 217
635 2 2 0 0 184 185 182
636 2 2 0 0 188 194 190
637 2 2 0 0 56 70 54
638 2 2 0 0 377 405 376
639 2 2 0 0 449 470 450
640 2 2 0 0 179 180 178
641 2 2 0 0 173 175 174
642 2 2 0 0 175 178 177
643 2 2 0 0 250 329 328
644 2 2 0 0 311 376 292
645 2 2 0 0 329 571 350
646 2 2 0 0 347 370 348
647 2 2 0 0 220 222 219
648 2 2 0 0 376 385 292
649 2 2 0 0 133 134 132
650 2 2 0 0 134 136 132
651 2 2 0 0 306 308 307
652 2 2 0 0 200 203 201
653 2 2 0 0 233 247 222
654 2 2 0 0 98 460 82
655 2 2 0 0 329 349 328
656 2 2 0 0 326 381 380
657 2 2 0 0 347 348 270
658 2 2 0 0 181 182 180
659 2 2 0 0 121 122 115
660 2 2 0 0 350 351 349
661 2 2 0 0 308 336 335
662 2 2 0 0 350 403 352
663 2 2 0 0 470 471 450
664 2 2 0 0 203 211 210
665 2 2 0 0 218 219 211
666 2 2 0 0 183 184 182
667 2 2 0 0 370 463 422
668 2 2 0 0 306 402 308
669 2 2 0 0 203 218 211
670 2 2 0 0 71 490 70
671 2 2 0 0 329 350 349
672 2 2 0 0 436 437 414
673 2 2 0 0 124 126 125
674 2 2 0 0 413 414 353
675 2 2 0 0 422 423 348
676 2 2 0 0 352 353 351
677 2 2 0 0 370 422 348
678 2 2 0 0 350 352 351
679 2 2 0 0 413 436 414
680 2 2 0 0 352 413 353
681 2 2 0 0 120 121 115
682 2 2 0 0 110 480 117
683 2 2 0 0 124 125 116
684 2 2 0 0 126 521 165
685 2 2 0 0 113 120 115
686 2 2 0 0 127 440 410
687 2 2 0 0 114 124 116
688 2 2 0 0 543 544 530
689 2 2 0 0 488 489 487
690 2 2 0 0 585 637 366
691 2 2 0 0 543 570 544
692 2 2 0 0 113 115 114
693 2 2 0 0 127 410 106
694 2 2 0 0 114 116 112
695 2 2 0 0 195 515 200
696 2 2 0 0 491 493 492
697 2 2 0 0 12 487 13
698 2 2 0 0 546 547 321
699 2 2 0 0 330 457 411
700 2 2 0 0 157 543 530
701 2 2 0 0 519 520 291
702 2 2 0 0 28 488 487
703 2 2 0 0 111 112 110
704 2 2 0 0 312 534 257
705 2 2 0 0 476 732 412
706 2 2 0 0 27 458 442
707 2 2 0 0 385 636 620
708 2 2 0 0 176 559 156
709 2 2 0 0 593 634 366
710 2 2 0 0 589 590 224
711 2 2 0 0 113 114 112
712 2 2 0 0 109 127 106
713 2 2 0 0 270 564 245
714 2 2 0 0 443 506 445
715 2 2 0 0 491 492 396
716 2 2 0 0 388 624 502
717 2 2 0 0 445 506 448
718 2 2 0 0 30 500 15
719 2 2 0 0 20 504 21
720 2 2 0 0 64 475 60
721 2 2 0 0 287 542 206
722 2 2 0 0 23 508 35
723 2 2 0 0 302 558 299
724 2 2 0 0 70 551 54
725 2 2 0 0 62 598 64
726 2 2 0 0 424 491 396
727 2 2 0 0 407 456 340
728 2 2 0 0 545 546 321
729 2 2 0 0 330 411 397
730 2 2 0 0 72 536 74
731 2 2 0 0 238 574 136
732 2 2 0 0 659 660 420
733 2 2 0 0 395 538 332
734 2 2 0 0 143 527 145
735 2 2 0 0 412 675 476
736 2 2 0 0 239 513 358
737 2 2 0 0 157 530 529
738 2 2 0 0 518 519 291
739 2 2 0 0 449 482 470
740 2 2 0 0 207 713 479
741 2 2 0 0 119 523 75
742 2 2 0 0 109 670 127
743 2 2 0 0 10 501 40
744 2 2 0 0 508 509 35
745 2 2 0 0 96 606 94
746 2 2 0 0 331 459 334
747 2 2 0 0 286 531 288
748 2 2 0 0 290 453 354
749 2 2 0 0 282 490 71
750 2 2 0 0 384 531 313
751 2 2 0 0 289 524 287
752 2 2 0 0 349 550 412
753 2 2 0 0 165 521 256
754 2 2 0 0 82 460 77
755 2 2 0 0 155 543 157
756 2 2 0 0 201 549 199
757 2 2 0 0 273 591 363
758 2 2 0 0 387 521 126
759 2 2 0 0 114 516 124
760 2 2 0 0 53 561 57
761 2 2 0 0 266 554 309
762 2 2 0 0 257 534 255
763 2 2 0 0 205 553 213
764 2 2 0 0 142 522 225
765 2 2 0 0 435 481 356
766 2 2 0 0 216 568 303
767 2 2 0 0 300 563 344
768 2 2 0 0 214 568 209
769 2 2 0 0 112 480 110
770 2 2 0 0 350 571 403
771 2 2 0 0 347 572 485
772 2 2 0 0 275 572 271
773 2 2 0 0 274 563 296
774 2 2 0 0 171 586 293
775 2 2 0 0 162 576 237
776 2 2 0 0 133 580 163
777 2 2 0 0 11 501 10
778 2 2 0 0 295 584 261
779 2 2 0 0 129 583 131
780 2 2 0 0 215 586 169
781 2 2 0 0 250 505 329
782 2 2 0 0 168 588 224
783 2 2 0 0 321 548 170
784 2 2 0 0 262 593 366
785 2 2 0 0 166 646 314
786 2 2 0 0 520 535 291
787 2 2 0 0 373 663 493
788 2 2 0 0 291 535 185
789 2 2 0 0 101 607 97
790 2 2 0 0 130 574 357
791 2 2 0 0 158 570 543
792 2 2 0 0 31 501 11
793 2 2 0 0 444 552 503
794 2 2 0 0 156 559 159
795 2 2 0 0 236 594 505
796 2 2 0 0 206 542 149
797 2 2 0 0 54 551 52
798 2 2 0 0 74 536 373
799 2 2 0 0 337 558 302
800 2 2 0 0 150 532 147
801 2 2 0 0 379 728 457
802 2 2 0 0 299 558 298
803 2 2 0 0 332 538 333
804 2 2 0 0 145 527 148
805 2 2 0 0 514 515 192
806 2 2 0 0 15 500 14
807 2 2 0 0 75 523 73
808 2 2 0 0 467 501 31
809 2 2 0 0 254 592 125
810 2 2 0 0 172 545 321
811 2 2 0 0 144 522 142
812 2 2 0 0 528 532 150
813 2 2 0 0 187 518 291
814 2 2 0 0 553 599 213
815 2 2 0 0 383 603 384
816 2 2 0 0 282 698 490
817 2 2 0 0 244 517 240
818 2 2 0 0 353 525 404
819 2 2 0 0 395 540 538
820 2 2 0 0 94 606 118
821 2 2 0 0 117 539 107
822 2 2 0 0 185 535 182
823 2 2 0 0 388 502 50
824 2 2 0 0 167 591 273
825 2 2 0 0 147 532 146
826 2 2 0 0 92 608 91
827 2 2 0 0 472 676 368
828 2 2 0 0 364 592 254
829 2 2 0 0 21 504 44
830 2 2 0 0 365 597 248
831 2 2 0 0 125 592 116
832 2 2 0 0 588 589 224
833 2 2 0 0 111 113 112
834 2 2 0 0 63 469 408
835 2 2 0 0 105 109 106
836 2 2 0 0 242 526 243
837 2 2 0 0 439 712 29
838 2 2 0 0 240 517 234
839 2 2 0 0 346 533 304
840 2 2 0 0 14 500 38
841 2 2 0 0 494 495 484
842 2 2 0 0 127 630 440
843 2 2 0 0 208 537 204
844 2 2 0 0 175 562 179
845 2 2 0 0 303 626 555
846 2 2 0 0 359 526 242
847 2 2 0 0 243 526 268
848 2 2 0 0 217 537 208
849 2 2 0 0 58 498 55
850 2 2 0 0 503 552 30
851 2 2 0 0 13 499 12
852 2 2 0 0 268 621 569
853 2 2 0 0 489 497 487
854 2 2 0 0 475 498 58
855 2 2 0 0 430 526 359
856 2 2 0 0 248 597 99
857 2 2 0 0 292 537 217
858 2 2 0 0 26 645 45
859 2 2 0 0 234 517 279
860 2 2 0 0 14 497 39
861 2 2 0 0 385 537 292
862 2 2 0 0 305 533 360
863 2 2 0 0 304 533 301
864 2 2 0 0 146 532 284
865 2 2 0 0 483 494 484
866 2 2 0 0 173 562 175
867 2 2 0 0 116 480 112
868 2 2 0 0 224 590 246
869 2 2 0 0 189 518 187
870 2 2 0 0 498 536 72
871 2 2 0 0 414 525 353
872 2 2 0 0 160 522 144
873 2 2 0 0 547 609 548
874 2 2 0 0 182 535 180
875 2 2 0 0 297 601 389
876 2 2 0 0 44 594 81
877 2 2 0 0 301 533 305
878 2 2 0 0 105 106 96
879 2 2 0 0 515 596 200
880 2 2 0 0 293 562 173
881 2 2 0 0 73 523 282
882 2 2 0 0 148 527 285
883 2 2 0 0 174 545 172
884 2 2 0 0 218 596 323
885 2 2 0 0 200 596 203
886 2 2 0 0 149 542 151
887 2 2 0 0 446 552 444
888 2 2 0 0 49 461 330
889 2 2 0 0 330 397 48
890 2 2 0 0 453 738 377
891 2 2 0 0 255 534 324
892 2 2 0 0 52 551 388
893 2 2 0 0 634 646 260
894 2 2 0 0 513 615 358
895 2 2 0 0 438 525 414
896 2 2 0 0 516 618 386
897 2 2 0 0 198 518 189
898 2 2 0 0 227 566 361
899 2 2 0 0 559 560 241
900 2 2 0 0 90 587 93
901 2 2 0 0 416 522 160
902 2 2 0 0 102 591 167
903 2 2 0 0 134 609 137
904 2 2 0 0 298 558 372
905 2 2 0 0 132 574 130
906 2 2 0 0 106 606 96
907 2 2 0 0 159 559 241
908 2 2 0 0 32 611 6
909 2 2 0 0 158 543 155
910 2 2 0 0 223 513 239
911 2 2 0 0 288 531 319
912 2 2 0 0 323 513 220
913 2 2 0 0 115 516 114
914 2 2 0 0 521 601 297
915 2 2 0 0 610 698 455
916 2 2 0 0 354 600 431
917 2 2 0 0 351 550 349
918 2 2 0 0 256 521 297
919 2 2 0 0 140 604 138
920 2 2 0 0 77 460 119
921 2 2 0 0 17 503 16
922 2 2 0 0 9 502 10
923 2 2 0 0 104 587 331
924 2 2 0 0 152 528 150
925 2 2 0 0 315 541 378
926 2 2 0 0 170 548 164
927 2 2 0 0 590 659 420
928 2 2 0 0 11 624 28
929 2 2 0 0 199 549 202
930 2 2 0 0 502 624 10
931 2 2 0 0 453 600 354
932 2 2 0 0 42 43 41
933 2 2 0 0 38 499 13
934 2 2 0 0 285 527 382
935 2 2 0 0 190 514 192
936 2 2 0 0 157 529 528
937 2 2 0 0 231 643 549
938 2 2 0 0 331 587 459
939 2 2 0 0 451 701 232
940 2 2 0 0 99 597 100
941 2 2 0 0 361 568 214
942 2 2 0 0 372 740 544
943 2 2 0 0 221 545 174
944 2 2 0 0 138 604 238
945 2 2 0 0 340 572 275
946 2 2 0 0 338 563 274
947 2 2 0 0 524 542 287
948 2 2 0 0 265 595 312
949 2 2 0 0 111 511 113
950 2 2 0 0 580 658 588
951 2 2 0 0 580 588 163
952 2 2 0 0 237 576 277
953 2 2 0 0 444 503 36
954 2 2 0 0 131 583 580
955 2 2 0 0 505 571 329
956 2 2 0 0 203 596 218
957 2 2 0 0 584 634 260
958 2 2 0 0 261 584 260
959 2 2 0 0 369 647 365
960 2 2 0 0 251 586 215
961 2 2 0 0 348 564 270
962 2 2 0 0 450 552 446
963 2 2 0 0 390 496 391
964 2 2 0 0 66 598 62
965 2 2 0 0 465 623 423
966 2 2 0 0 258 591 102
967 2 2 0 0 343 566 227
968 2 2 0 0 564 623 244
969 2 2 0 0 154 617 141
970 2 2 0 0 324 534 392
971 2 2 0 0 50 502 37
972 2 2 0 0 524 556 542
973 2 2 0 0 544 700 372
974 2 2 0 0 122 516 115
975 2 2 0 0 177 557 221
976 2 2 0 0 489 698 610
977 2 2 0 0 93 587 104
978 2 2 0 0 136 574 132
979 2 2 0 0 593 646 634
980 2 2 0 0 116 592 480
981 2 2 0 0 143 617 527
982 2 2 0 0 225 604 140
983 2 2 0 0 137 631 139
984 2 2 0 0 549 553 202
985 2 2 0 0 164 548 135
986 2 2 0 0 404 550 351
987 2 2 0 0 34 721 473
988 2 2 0 0 220 513 223
989 2 2 0 0 317 640 511
990 2 2 0 0 100 597 258
991 2 2 0 0 588 658 589
992 2 2 0 0 323 615 513
993 2 2 0 0 568 626 303
994 2 2 0 0 377 605 405
995 2 2 0 0 178 613 212
996 2 2 0 0 493 628 373
997 2 2 0 0 157 528 152
998 2 2 0 0 591 627 363
999 2 2 0 0 409 541 315
1000 2 2 0 0 183 614 197
1001 2 2 0 0 103 598 66
1002 2 2 0 0 188 619 194
1003 2 2 0 0 213 599 226
1004 2 2 0 0 306 599 402
1005 2 2 0 0 97 607 25
1006 2 2 0 0 194 514 190
1007 2 2 0 0 373 628 76
1008 2 2 0 0 78 628 253
1009 2 2 0 0 42 47 43
1010 2 2 0 0 39 612 15
1011 2 2 0 0 16 612 29
1012 2 2 0 0 437 610 455
1013 2 2 0 0 487 497 13
1014 2 2 0 0 440 630 441
1015 2 2 0 0 479 713 562
1016 2 2 0 0 196 620 193
1017 2 2 0 0 456 572 340
1018 2 2 0 0 120 511 281
1019 2 2 0 0 577 578 235
1020 2 2 0 0 335 582 399
1021 2 2 0 0 314 741 683
1022 2 2 0 0 520 613 535
1023 2 2 0 0 585 634 584
1024 2 2 0 0 423 564 348
1025 2 2 0 0 457 561 411
1026 2 2 0 0 6 611 5
1027 2 2 0 0 385 620 537
1028 2 2 0 0 228 637 229
1029 2 2 0 0 366 637 249
1030 2 2 0 0 161 570 158
1031 2 2 0 0 434 640 435
1032 2 2 0 0 193 636 191
1033 2 2 0 0 410 606 106
1034 2 2 0 0 37 502 9
1035 2 2 0 0 36 503 17
1036 2 2 0 0 141 617 143
1037 2 2 0 0 363 627 401
1038 2 2 0 0 322 590 420
1039 2 2 0 0 357 618 128
1040 2 2 0 0 430 621 526
1041 2 2 0 0 540 687 103
1042 2 2 0 0 280 577 121
1043 2 2 0 0 276 575 318
1044 2 2 0 0 362 578 577
1045 2 2 0 0 109 649 496
1046 2 2 0 0 246 590 322
1047 2 2 0 0 326 569 381
1048 2 2 0 0 569 621 381
1049 2 2 0 0 269 569 272
1050 2 2 0 0 139 631 154
1051 2 2 0 0 649 664 496
1052 2 2 0 0 537 620 204
1053 2 2 0 0 355 461 49
1054 2 2 0 0 663 685 493
1055 2 2 0 0 479 745 207
1056 2 2 0 0 343 662 565
1057 2 2 0 0 212 557 177
1058 2 2 0 0 45 645 46
1059 2 2 0 0 496 670 109
1060 2 2 0 0 366 634 585
1061 2 2 0 0 384 616 531
1062 2 2 0 0 535 613 180
1063 2 2 0 0 391 632 364
1064 2 2 0 0 308 581 336
1065 2 2 0 0 344 625 462
1066 2 2 0 0 563 625 344
1067 2 2 0 0 13 497 14
1068 2 2 0 0 480 632 117
1069 2 2 0 0 371 668 585
1070 2 2 0 0 333 649 278
1071 2 2 0 0 387 601 521
1072 2 2 0 0 47 49 48
1073 2 2 0 0 358 615 428
1074 2 2 0 0 113 511 120
1075 2 2 0 0 527 617 382
1076 2 2 0 0 105 649 109
1077 2 2 0 0 398 573 307
1078 2 2 0 0 368 676 369
1079 2 2 0 0 180 613 178
1080 2 2 0 0 153 556 176
1081 2 2 0 0 432 657 367
1082 2 2 0 0 458 718 582
1083 2 2 0 0 207 614 183
1084 2 2 0 0 407 611 456
1085 2 2 0 0 244 623 517
1086 2 2 0 0 20 639 27
1087 2 2 0 0 476 675 87
1088 2 2 0 0 319 616 393
1089 2 2 0 0 474 707 197
1090 2 2 0 0 226 599 306
1091 2 2 0 0 47 48 43
1092 2 2 0 0 186 619 188
1093 2 2 0 0 412 732 328
1094 2 2 0 0 316 671 541
1095 2 2 0 0 293 734 478
1096 2 2 0 0 492 685 598
1097 2 2 0 0 528 629 532
1098 2 2 0 0 514 635 515
1099 2 2 0 0 531 616 319
1100 2 2 0 0 8 656 7
1101 2 2 0 0 387 602 601
1102 2 2 0 0 76 628 78
1103 2 2 0 0 122 618 516
1104 2 2 0 0 651 717 394
1105 2 2 0 0 423 623 564
1106 2 2 0 0 546 669 547
1107 2 2 0 0 4 679 34
1108 2 2 0 0 542 556 151
1109 2 2 0 0 548 609 135
1110 2 2 0 0 204 620 196
1111 2 2 0 0 529 629 528
1112 2 2 0 0 482 719 230
1113 2 2 0 0 258 627 591
1114 2 2 0 0 336 582 335
1115 2 2 0 0 197 686 667
1116 2 2 0 0 583 658 580
1117 2 2 0 0 85 675 98
1118 2 2 0 0 59 728 379
1119 2 2 0 0 400 625 338
1120 2 2 0 0 394 717 605
1121 2 2 0 0 471 650 450
1122 2 2 0 0 596 635 323
1123 2 2 0 0 249 637 228
1124 2 2 0 0 515 635 596
1125 2 2 0 0 338 625 563
1126 2 2 0 0 28 633 488
1127 2 2 0 0 566 622 361
1128 2 2 0 0 229 570 161
1129 2 2 0 0 468 654 465
1130 2 2 0 0 118 710 462
1131 2 2 0 0 15 612 16
1132 2 2 0 0 589 659 590
1133 2 2 0 0 526 621 268
1134 2 2 0 0 365 647 597
1135 2 2 0 0 579 583 235
1136 2 2 0 0 22 507 21
1137 2 2 0 0 342 682 264
1138 2 2 0 0 441 648 346
1139 2 2 0 0 191 636 198
1140 2 2 0 0 578 653 579
1141 2 2 0 0 135 609 134
1142 2 2 0 0 128 618 122
1143 2 2 0 0 378 681 310
1144 2 2 0 0 230 690 211
1145 2 2 0 0 210 690 232
1146 2 2 0 0 549 643 553
1147 2 2 0 0 233 661 247
1148 2 2 0 0 10 624 11
1149 2 2 0 0 640 709 435
1150 2 2 0 0 449 719 482
1151 2 2 0 0 452 726 33
1152 2 2 0 0 362 577 280
1153 2 2 0 0 318 575 433
1154 2 2 0 0 492 687 396
1155 2 2 0 0 586 734 293
1156 2 2 0 0 357 655 618
1157 2 2 0 0 277 567 259
1158 2 2 0 0 522 641 225
1159 2 2 0 0 511 640 281
1160 2 2 0 0 247 661 483
1161 2 2 0 0 610 693 39
1162 2 2 0 0 272 569 326
1163 2 2 0 0 490 695 70
1164 2 2 0 0 553 643 599
1165 2 2 0 0 532 629 284
1166 2 2 0 0 29 712 17
1167 2 2 0 0 632 665 117
1168 2 2 0 0 618 655 386
1169 2 2 0 0 241 699 576
1170 2 2 0 0 457 728 561
1171 2 2 0 0 485 572 456
1172 2 2 0 0 430 667 621
1173 2 2 0 0 582 672 458
1174 2 2 0 0 395 687 540
1175 2 2 0 0 504 594 44
1176 2 2 0 0 181 713 207
1177 2 2 0 0 197 707 184
1178 2 2 0 0 524 657 556
1179 2 2 0 0 475 536 498
1180 2 2 0 0 394 738 320
1181 2 2 0 0 51 714 561
1182 2 2 0 0 151 556 153
1183 2 2 0 0 437 693 610
1184 2 2 0 0 361 626 568
1185 2 2 0 0 611 679 5
1186 2 2 0 0 231 680 643
1187 2 2 0 0 462 706 118
1188 2 2 0 0 390 670 496
1189 2 2 0 0 602 642 601
1190 2 2 0 0 49 330 48
1191 2 2 0 0 391 665 632
1192 2 2 0 0 508 737 375
1193 2 2 0 0 450 650 552
1194 2 2 0 0 368 732 476
1195 2 2 0 0 578 579 235
1196 2 2 0 0 402 581 308
1197 2 2 0 0 43 486 41
1198 2 2 0 0 562 713 179
1199 2 2 0 0 592 632 480
1200 2 2 0 0 416 641 522
1201 2 2 0 0 372 668 371
1202 2 2 0 0 452 712 439
1203 2 2 0 0 282 720 455
1204 2 2 0 0 556 657 176
1205 2 2 0 0 364 632 592
1206 2 2 0 0 403 726 452
1207 2 2 0 0 465 654 623
1208 2 2 0 0 278 649 105
1209 2 2 0 0 154 652 617
1210 2 2 0 0 383 688 603
1211 2 2 0 0 451 719 447
1212 2 2 0 0 317 709 640
1213 2 2 0 0 604 711 642
1214 2 2 0 0 382 652 383
1215 2 2 0 0 601 642 389
1216 2 2 0 0 284 671 316
1217 2 2 0 0 599 643 402
1218 2 2 0 0 388 633 624
1219 2 2 0 0 267 678 311
1220 2 2 0 0 337 681 530
1221 2 2 0 0 279 661 233
1222 2 2 0 0 605 738 394
1223 2 2 0 0 33 677 504
1224 2 2 0 0 386 655 387
1225 2 2 0 0 547 669 631
1226 2 2 0 0 562 731 479
1227 2 2 0 0 360 648 595
1228 2 2 0 0 432 692 657
1229 2 2 0 0 367 657 524
1230 2 2 0 0 633 695 488
1231 2 2 0 0 415 473 341
1232 2 2 0 0 644 672 336
1233 2 2 0 0 551 633 388
1234 2 2 0 0 533 648 360
1235 2 2 0 0 407 679 611
1236 2 2 0 0 323 635 615
1237 2 2 0 0 530 681 529
1238 2 2 0 0 393 651 394
1239 2 2 0 0 387 655 602
1240 2 2 0 0 238 703 574
1241 2 2 0 0 594 677 505
1242 2 2 0 0 559 692 560
1243 2 2 0 0 621 667 381
1244 2 2 0 0 405 674 376
1245 2 2 0 0 325 732 368
1246 2 2 0 0 623 654 517
1247 2 2 0 0 581 644 336
1248 2 2 0 0 346 648 533
1249 2 2 0 0 517 654 279
1250 2 2 0 0 477 705 481
1251 2 2 0 0 481 705 355
1252 2 2 0 0 561 728 57
1253 2 2 0 0 379 705 477
1254 2 2 0 0 617 652 382
1255 2 2 0 0 30 650 500
1256 2 2 0 0 376 674 385
1257 2 2 0 0 518 715 519
1258 2 2 0 0 474 667 430
1259 2 2 0 0 478 734 294
1260 2 2 0 0 624 633 28
1261 2 2 0 0 186 707 619
1262 2 2 0 0 64 663 475
1263 2 2 0 0 597 647 258
1264 2 2 0 0 377 738 605
1265 2 2 0 0 31 735 467
1266 2 2 0 0 27 718 458
1267 2 2 0 0 419 673 68
1268 2 2 0 0 616 722 393
1269 2 2 0 0 24 723 419
1270 2 2 0 0 397 638 48
1271 2 2 0 0 404 730 460
1272 2 2 0 0 91 676 472
1273 2 2 0 0 622 626 361
1274 2 2 0 0 7 656 32
1275 2 2 0 0 576 697 277
1276 2 2 0 0 471 691 650
1277 2 2 0 0 536 663 373
1278 2 2 0 0 484 691 471
1279 2 2 0 0 552 650 30
1280 2 2 0 0 311 678 600
1281 2 2 0 0 486 729 5
1282 2 2 0 0 418 673 666
1283 2 2 0 0 232 680 231
1284 2 2 0 0 5 679 4
1285 2 2 0 0 117 665 539
1286 2 2 0 0 384 702 616
1287 2 2 0 0 557 702 221
1288 2 2 0 0 87 675 85
1289 2 2 0 0 225 711 604
1290 2 2 0 0 505 677 571
1291 2 2 0 0 483 661 494
1292 2 2 0 0 263 565 375
1293 2 2 0 0 504 677 594
1294 2 2 0 0 582 718 399
1295 2 2 0 0 645 714 46
1296 2 2 0 0 534 708 392
1297 2 2 0 0 643 680 402
1298 2 2 0 0 18 712 452
1299 2 2 0 0 392 670 390
1300 2 2 0 0 221 702 603
1301 2 2 0 0 496 664 391
1302 2 2 0 0 606 710 118
1303 2 2 0 0 655 703 602
1304 2 2 0 0 608 676 91
1305 2 2 0 0 194 684 514
1306 2 2 0 0 541 671 378
1307 2 2 0 0 154 669 652
1308 2 2 0 0 399 718 639
1309 2 2 0 0 405 715 674
1310 2 2 0 0 33 726 677
1311 2 2 0 0 629 671 284
1312 2 2 0 0 468 735 495
1313 2 2 0 0 469 704 408
1314 2 2 0 0 427 745 479
1315 2 2 0 0 294 734 251
1316 2 2 0 0 461 705 379
1317 2 2 0 0 385 674 636
1318 2 2 0 0 657 692 176
1319 2 2 0 0 561 714 411
1320 2 2 0 0 631 669 154
1321 2 2 0 0 264 682 265
1322 2 2 0 0 43 638 486
1323 2 2 0 0 48 638 43
1324 2 2 0 0 194 744 684
1325 2 2 0 0 381 686 380
1326 2 2 0 0 658 716 589
1327 2 2 0 0 263 567 565
1328 2 2 0 0 310 681 337
1329 2 2 0 0 493 685 492
1330 2 2 0 0 64 685 663
1331 2 2 0 0 309 678 267
1332 2 2 0 0 600 678 431
1333 2 2 0 0 538 694 333
1334 2 2 0 0 598 685 64
1335 2 2 0 0 551 695 633
1336 2 2 0 0 560 699 241
1337 2 2 0 0 211 690 210
1338 2 2 0 0 2 723 3
1339 2 2 0 0 630 708 441
1340 2 2 0 0 467 735 468
1341 2 2 0 0 396 687 395
1342 2 2 0 0 35 507 22
1343 2 2 0 0 259 567 263
1344 2 2 0 0 417 673 418
1345 2 2 0 0 614 686 197
1346 2 2 0 0 392 708 630
1347 2 2 0 0 5 729 6
1348 2 2 0 0 279 725 661
1349 2 2 0 0 6 729 26
1350 2 2 0 0 357 703 655
1351 2 2 0 0 514 684 635
1352 2 2 0 0 540 733 538
1353 2 2 0 0 374 741 593
1354 2 2 0 0 176 692 559
1355 2 2 0 0 650 691 500
1356 2 2 0 0 484 736 691
1357 2 2 0 0 83 733 540
1358 2 2 0 0 558 740 372
1359 2 2 0 0 626 697 555
1360 2 2 0 0 436 693 437
1361 2 2 0 0 375 737 374
1362 2 2 0 0 475 663 536
1363 2 2 0 0 636 674 198
1364 2 2 0 0 674 715 198
1365 2 2 0 0 70 695 551
1366 2 2 0 0 406 721 407
1367 2 2 0 0 677 726 571
1368 2 2 0 0 258 647 627
1369 2 2 0 0 448 701 451
1370 2 2 0 0 458 672 506
1371 2 2 0 0 229 700 570
1372 2 2 0 0 684 744 428
1373 2 2 0 0 570 700 544
1374 2 2 0 0 678 742 431
1375 2 2 0 0 646 741 314
1376 2 2 0 0 603 702 384
1377 2 2 0 0 478 731 293
1378 2 2 0 0 309 742 678
1379 2 2 0 0 380 686 614
1380 2 2 0 0 494 725 468
1381 2 2 0 0 500 691 38
1382 2 2 0 0 635 684 615
1383 2 2 0 0 661 725 494
1384 2 2 0 0 679 721 34
1385 2 2 0 0 509 510 35
1386 2 2 0 0 46 714 51
1387 2 2 0 0 615 684 428
1388 2 2 0 0 432 742 689
1389 2 2 0 0 179 713 181
1390 2 2 0 0 26 739 645
1391 2 2 0 0 35 510 507
1392 2 2 0 0 574 703 357
1393 2 2 0 0 184 707 186
1394 2 2 0 0 39 693 612
1395 2 2 0 0 665 694 539
1396 2 2 0 0 312 708 534
1397 2 2 0 0 554 689 309
1398 2 2 0 0 1 737 508
1399 2 2 0 0 519 717 520
1400 2 2 0 0 277 697 622
1401 2 2 0 0 389 711 641
1402 2 2 0 0 495 736 484
1403 2 2 0 0 17 712 18
1404 2 2 0 0 212 722 557
1405 2 2 0 0 455 720 438
1406 2 2 0 0 622 697 626
1407 2 2 0 0 664 694 665
1408 2 2 0 0 447 719 449
1409 2 2 0 0 669 688 652
1410 2 2 0 0 612 693 436
1411 2 2 0 0 619 744 194
1412 2 2 0 0 57 728 59
1413 2 2 0 0 579 658 583
1414 2 2 0 0 438 727 525
1415 2 2 0 0 539 733 83
1416 2 2 0 0 479 731 478
1417 2 2 0 0 691 736 38
1418 2 2 0 0 401 724 400
1419 2 2 0 0 420 660 2
1420 2 2 0 0 328 732 325
1421 2 2 0 0 320 738 453
1422 2 2 0 0 428 744 429
1423 2 2 0 0 431 742 432
1424 2 2 0 0 425 745 427
1425 2 2 0 0 408 743 434
1426 2 2 0 0 571 726 403
1427 2 2 0 0 119 727 523
1428 2 2 0 0 625 706 462
1429 2 2 0 0 525 730 404
1430 2 2 0 0 499 736 495
1431 2 2 0 0 468 725 654
1432 2 2 0 0 336 672 582
1433 2 2 0 0 198 715 518
1434 2 2 0 0 400 724 706
1435 2 2 0 0 402 680 581
1436 2 2 0 0 589 716 659
1437 2 2 0 0 727 730 525
1438 2 2 0 0 664 665 391
1439 2 2 0 0 337 740 558
1440 2 2 0 0 293 731 562
1441 2 2 0 0 523 720 282
1442 2 2 0 0 460 730 119
1443 2 2 0 0 641 711 225
1444 2 2 0 0 429 744 619
1445 2 2 0 0 119 730 727
1446 2 2 0 0 651 722 212
1447 2 2 0 0 38 736 499
1448 2 2 0 0 667 686 381
1449 2 2 0 0 652 688 383
1450 2 2 0 0 410 710 606
1451 2 2 0 0 644 701 448
1452 2 2 0 0 666 673 419
1453 2 2 0 0 704 743 408
1454 2 2 0 0 251 734 586
1455 2 2 0 0 400 706 625
1456 2 2 0 0 546 688 669
1457 2 2 0 0 668 700 229
1458 2 2 0 0 538 733 694
1459 2 2 0 0 333 694 664
1460 2 2 0 0 565 662 375
1461 2 2 0 0 720 727 438
1462 2 2 0 0 372 700 668
1463 2 2 0 0 579 716 658
1464 2 2 0 0 642 711 389
1465 2 2 0 0 355 705 461
1466 2 2 0 0 407 721 679
1467 2 2 0 0 523 727 720
1468 2 2 0 0 654 725 279
1469 2 2 0 0 639 718 27
1470 2 2 0 0 694 733 539
1471 2 2 0 0 393 722 651
1472 2 2 0 0 645 739 397
1473 2 2 0 0 683 741 374
1474 2 2 0 0 397 739 638
1475 2 2 0 0 653 716 579
1476 2 2 0 0 666 723 660
1477 2 2 0 0 419 723 666
1478 2 2 0 0 374 737 683
1479 2 2 0 0 593 741 646
1480 2 2 0 0 683 737 1
1481 2 2 0 0 689 742 309
1482 2 2 0 0 660 723 2
1483 2 2 0 0 23 25 1
1484 2 2 0 0 25 607 1
1485 2 2 0 0 3 34 2
1486 2 2 0 0 34 415 2
$EndElements
