$MeshFormat
2.2 0 8
$EndMeshFormat
$Nodes
745
1 4.2890263082182576e-05 2.2465293433935898e-05 1.0070329322203740e-03
2 3.7379665496973781e-05 -4.7587857305407176e-05 -1.0050848606796448e-03
3 1.3021960697487037e-04 1.2092162519671768e-05 -9.9784609303222010e-04
4 2.3394498163446131e-04 2.7725834102422822e-05 -9.7907851712754346e-04
5 3.7816666754521858e-04 2.8786881960115469e-05 -9.3280452366966359e-04
6 5.2405652170359901e-04 -4.0872980797473678e-06 -8.5799097368241572e-04
7 6.2821072105540205e-04 3.1142033655107770e-06 -7.8349574670405530e-04
8 7.2542400750218454e-04 4.3139775876416916e-06 -6.9253626018913575e-04
9 8.1888509670093967e-04 -2.2716669144946641e-06 -5.7572872841569090e-04
10 8.9438387390970795e-04 -2.0558257330634901e-06 -4.4508512859330881e-04
11 9.5542537906111505e-04 1.6285688528207306e-07 -2.8502983473122908e-04
12 9.8766969222350036e-04 5.1646311133184447e-06 -1.2777142339447093e-04
13 9.9550939115203557e-04 -2.4233167448035521e-06 1.1411360813386711e-05
14 9.8370479940186888e-04 4.1807715121291622e-07 1.5539955760680339e-04
15 9.5014160099279031e-04 5.3837079561356424e-06 3.0270131824948444e-04
16 8.9300390939473179e-04 9.8018195421215762e-06 4.4834285554835234e-04
17 8.2303665227554626e-04 -1.6944622090020905e-06 5.6993479135338985e-04
18 7.3296597214916328e-04 -8.2683700405186561e-06 6.8457067675432317e-04
19 6.3024266909461201e-04 -5.4178303543351699e-06 7.8235452294908364e-04
20 5.0172442763111232e-04 -4.1334185606316558e-06 8.7188188813845332e-04
21 3.7339198671423093e-04 4.4442835342252021e-06 9.3497900356464159e-04
22 2.5264777584719448e-04 7.7883226388707937e-06 9.7506556076163971e-04
23 1.4389029030771266e-04 -1.8843032895612784e-05 9.9649997162755042e-04
24 1.6204676099318871e-04 1.1668713635724204e-04 -9.8719990359116805e-04
25 1.7097982302536675e-04 9.7010960999356245e-05 9.8872248069500012e-04
26 5.8054183859456441e-04 1.1560135855928629e-04 -8.1130650446066294e-04
27 5.6343453953119329e-04 -1.1544873608795233e-04 8.2447415837249584e-04
28 9.6619639951247389e-04 1.3486350754026593e-04 -2.0209368374755237e-04
29 8.4505254099795422e-04 1.6181659534402601e-04 5.1152712270233951e-04
30 9.1831311478333770e-04 -1.2271240141458007e-04 3.7137466664724972e-04
31 9.6794763902284336e-04 -1.1734987233205109e-04 -2.0436458844723407e-04
32 5.6035915941775186e-04 -1.0897910881292506e-04 -8.2737945981387973e-04
33 5.5639062973106431e-04 1.0161814143320071e-04 8.3086585584702733e-04
34 1.6910006932268067e-04 -9.0285558702160660e-05 -9.8918722834883950e-04
35 1.9451815723037935e-04 -1.0844416096289290e-04 9.8238679502212238e-04
36 7.7461103875123814e-04 -1.2423399392395607e-04 6.2345158696167286e-04
37 7.7136962992143581e-04 1.2769535857435883e-04 -6.2617132782381043e-04
38 9.8599289704158466e-04 -1.1078195957721865e-04 8.0795367460838750e-05
39 9.6344608387327732e-04 1.2411020754919146e-04 2.2116621340976015e-04
40 8.5086052800715985e-04 -1.3143293883403814e-04 -5.0882033956551925e-04
41 2.8478677774589024e-04 1.1926034036552086e-04 -9.5798644828470111e-04
42 2.2280406233479900e-04 2.3345282351980268e-04 -9.5303117281825614e-04
43 3.3502046006875555e-04 2.4225503980788909e-04 -9.1650690248073325e-04
44 3.0470709409821146e-04 1.0942326465017471e-04 9.5362535453652280e-04
45 6.6842359951547017e-04 1.2432481043198407e-04 -7.3803362965924252e-04
46 7.0110440912175115e-04 2.4547374745282708e-04 -6.7292650520963217e-04
47 2.7449740155496307e-04 3.4170860418890109e-04 -9.0477955678495015e-04
48 3.8190304871352394e-04 3.3828560187969828e-04 -8.6560715894029052e-04
49 3.1924350107466205e-04 4.3573939527526714e-04 -8.4675338961226281e-04
50 7.9231569666830489e-04 2.5377693135764757e-04 -5.5557137556798127e-04
51 7.2043470131050722e-04 3.7269845691467626e-04 -5.8624160884868375e-04
52 8.0360754207771845e-04 3.6897688358291265e-04 -4.6431627444853556e-04
53 7.1903930708464730e-04 4.8257346864724273e-04 -4.9855229141318826e-04
54 7.9250166022552750e-04 4.7965901958395036e-04 -3.6941569155196267e-04
55 7.0277590583311825e-04 5.8556840703077970e-04 -3.9791564673266578e-04
56 7.6674606004059902e-04 5.7796902326931541e-04 -2.6521745281134175e-04
57 6.2975571806381161e-04 5.8253077465455268e-04 -5.1202877695563621e-04
58 5.9709624135616853e-04 6.8111029942728208e-04 -4.1807629936782326e-04
59 5.0951963005549698e-04 6.7120945564708699e-04 -5.3712458180487689e-04
60 4.7156327708852523e-04 7.6641208814144494e-04 -4.3068349433417864e-04
61 3.8037098267311339e-04 7.4508211329301645e-04 -5.4712646444113507e-04
62 3.4913995417035221e-04 8.3539797993214258e-04 -4.1841089560961769e-04
63 2.0672462932850211e-04 4.4683697673549635e-04 -8.7590383574175752e-04
64 4.3623664084480924e-04 8.3999832172386110e-04 -3.0939256377989925e-04
65 2.4503200402652711e-04 8.1221567772544806e-04 -5.2797909690354458e-04
66 2.2256938979191637e-04 8.8854991106967097e-04 -3.9386425082598971e-04
67 1.1472982485649338e-04 8.5848324666148990e-04 -4.9726091110541748e-04
68 1.0311779258379903e-04 2.3763832414106965e-04 -9.7234944907082259e-04
69 1.3322947860817125e-04 7.6503582832626940e-04 -6.3281419666168237e-04
70 8.4289916127636740e-04 4.7199978956033158e-04 -2.4177261617587748e-04
71 8.1764087067000139e-04 5.5425731381787647e-04 -1.2263349093248683e-04
72 7.2789258556206200e-04 6.6184114581465932e-04 -1.5066386047995518e-04
73 7.6756721380269390e-04 6.3288862390359010e-04 -1.7729550118186663e-05
74 6.7000478315565944e-04 7.3451637724995637e-04 -3.4540526387393158e-05
75 6.9740513971660049e-04 7.0362841093627674e-04 9.1402635004242917e-05
76 5.8862076609138639e-04 7.9795751459257804e-04 8.0129477885360995e-05
77 6.1418150037800931e-04 7.5553826598328373e-04 2.0754369404964458e-04
78 5.0292378806158719e-04 8.3779332244487438e-04 1.8938313828323396e-04
79 9.3484783479856447e-05 9.2605628543705352e-04 -3.5624234588669000e-04
80 -1.8905825724726190e-05 8.9150932398037027e-04 -4.4738094603062600e-04
81 2.3821148541931572e-04 2.2072512610788253e-04 9.5322186397132284e-04
82 5.2288272103378651e-04 7.8247016444920497e-04 3.2877490117734699e-04
83 -3.8520982561624366e-05 9.4374717353351188e-04 -3.1511124676969054e-04
84 4.0365880807900978e-04 8.6415907261713928e-04 2.8740076691041570e-04
85 4.1601695116327012e-04 8.0495331090639781e-04 4.1767261427806327e-04
86 2.9606521223838185e-04 8.7133643138971812e-04 3.8400666449533782e-04
87 3.0639412887395549e-04 8.0090190324600579e-04 5.1232355792557810e-04
88 1.8231224049660485e-04 8.5330208022675407e-04 4.8559525204556841e-04
89 1.6492492646923498e-04 9.1910306179121136e-04 3.4823768706402492e-04
90 5.4641762654699431e-05 8.8909747073121414e-04 4.4979996622660504e-04
91 7.4473872072722524e-05 8.1386552438837689e-04 5.7625657944953700e-04
92 -4.6768186623262529e-05 8.4635482255621651e-04 5.2849084525355590e-04
93 -7.8512686162259074e-05 9.0902621927479966e-04 4.0205402702110253e-04
94 -1.8544017758908283e-04 8.5657966181306680e-04 4.7743172843944088e-04
95 -1.4664454522021384e-04 7.9312866545552720e-04 5.8969167025853535e-04
96 -2.1620937978633438e-04 9.0732271245413108e-04 3.5029684354361332e-04
97 1.0901344685087069e-04 2.2030970914188773e-04 9.7669483014553148e-04
98 5.3499093992437992e-04 6.9333794279481675e-04 4.8280137963863367e-04
99 1.7049560474896678e-04 3.2910200157008809e-04 9.3582121415864089e-04
100 4.3589939987623219e-05 3.3516334958917388e-04 9.4815399003285949e-04
101 -1.5457439525735602e-05 2.2061302555989200e-04 9.8251989322822950e-04
102 -8.6409406683530675e-05 3.2204567799180243e-04 9.4969112113780650e-04
103 1.9180295627452813e-04 9.4185810219387463e-04 -2.5900146076876773e-04
104 -1.0846563400736317e-04 9.5434052178474554e-04 2.6146239095928774e-04
105 -2.4119280986221805e-04 9.4154847689017888e-04 2.1269029442109343e-04
106 -3.4773750925323760e-04 8.8510967518795711e-04 2.9511433139200631e-04
107 -1.5015366392348342e-04 9.0478736295345895e-04 -3.9016356713680622e-04
108 -1.3504607519589353e-04 8.3729239790665273e-04 -5.2763976845914473e-04
109 -3.7110550880455339e-04 9.0947774579794749e-04 1.5567110612414497e-04
110 -2.6498252020887319e-04 8.4114225788875616e-04 -4.6701543146685567e-04
111 -2.3695930024809640e-04 7.6699515071121621e-04 -5.9647892324414054e-04
112 -3.7257854401265674e-04 7.5565666380056449e-04 -5.3718549801894805e-04
113 -3.3519550492937711e-04 6.7009991692771112e-04 -6.6449657306258956e-04
114 -4.6262754158874706e-04 6.5996565900469911e-04 -5.9248425860065619e-04
115 -4.1494093950711808e-04 5.6190774457036841e-04 -7.1920350807465751e-04
116 -4.9316947710332658e-04 7.4170028725603632e-04 -4.4980908836543836e-04
117 -2.8137488493113838e-04 8.9830852443660266e-04 -3.2508358655519292e-04
118 -2.8204580469379432e-04 7.7526811392571789e-04 5.6533881613211098e-04
119 7.0635635602963557e-04 6.6650081653860636e-04 2.1804267583585847e-04
120 -2.8594676659016551e-04 5.7094344313262952e-04 -7.7408038301833831e-04
121 -3.6416681139919026e-04 4.5571358969569717e-04 -8.1747300210344446e-04
122 -4.8912465737796355e-04 4.6306996917455385e-04 -7.4314160642050572e-04
123 -4.2836239797920965e-04 3.5648031284234177e-04 -8.3591868860834998e-04
124 -5.8310251714780066e-04 6.4140566421261411e-04 -4.9559759188439064e-04
125 -6.0512644376555500e-04 7.0476795542241092e-04 -3.6083902930301813e-04
126 -6.9269974119656513e-04 5.9320737065230356e-04 -4.0315169386298359e-04
127 -4.6802674553674027e-04 8.4622534540051161e-04 2.3496978375123711e-04
128 -5.6428811687156963e-04 3.5218356314886364e-04 -7.5076358377526055e-04
129 -5.0283159862566924e-04 2.4358835710018469e-04 -8.3482994906040225e-04
130 -6.2943959085748325e-04 2.3299486080119244e-04 -7.4536410811168127e-04
131 -5.6573145105887708e-04 1.2068459453625647e-04 -8.2110147372418333e-04
132 -6.8441587096483548e-04 9.7926962399700051e-05 -7.2644420727880949e-04
133 -6.0411436776791909e-04 -7.7669164238557634e-06 -8.0217523076858656e-04
134 -7.1458362313847200e-04 -3.5150442425114313e-05 -7.0240085268545767e-04
135 -6.2812329308074930e-04 -1.4428080737903775e-04 -7.6960721208832461e-04
136 -7.8667481609450611e-04 7.7870328532543263e-05 -6.1408472698171645e-04
137 -8.1143111191778856e-04 -6.2323139190173133e-05 -5.8186144814700088e-04
138 -8.7016654420337997e-04 4.8798082074966943e-05 -4.8803535701823480e-04
139 -8.8705847143020957e-04 -8.6660179981420853e-05 -4.4947576627173992e-04
140 -9.3308138866430863e-04 1.1035012603033683e-05 -3.5030437584354797e-04
141 -9.3969029375389986e-04 -1.1988770378449376e-04 -3.0887402403894921e-04
142 -9.7182733836426605e-04 -1.2806461665594584e-05 -2.1502968008225851e-04
143 -9.6942547542733237e-04 -1.4495961183496955e-04 -1.7243482779447303e-04
144 -9.9077571349170056e-04 -3.2862942292112961e-05 -8.2627613561745404e-05
145 -9.8114313487907110e-04 -1.5988366865569241e-04 -3.7436645015402071e-05
146 -9.9199585807279822e-04 -4.7035239077693535e-05 5.6153208353697484e-05
147 -9.7399008721351635e-04 -1.7433214050804232e-04 1.0479267168113428e-04
148 -9.5247771632615223e-04 -2.8720090031118551e-04 1.0815771718671160e-05
149 -9.3467324012137766e-04 -3.0659218016561610e-04 1.5202962616165056e-04
150 -9.4416041465837089e-04 -1.9196290185031622e-04 2.5258298732884412e-04
151 -8.9502935932586668e-04 -3.2333037412809947e-04 2.9588271689799358e-04
152 -8.9426816702855108e-04 -2.1061750861640194e-04 3.8898563018349588e-04
153 -8.3625048827966840e-04 -3.3141642357771496e-04 4.3314286547343204e-04
154 -8.8865180435390224e-04 -2.1671656785576137e-04 -3.9771266132628290e-04
155 -8.2714047144919693e-04 -2.1391458539827201e-04 5.1914062125736897e-04
156 -7.5932949323469071e-04 -3.2984003667504551e-04 5.6176852734689850e-04
157 -8.7876143160843187e-04 -8.0141116519313164e-05 4.6800095372520492e-04
158 -7.3731769950326686e-04 -2.1133142426512023e-04 6.4459134568017895e-04
159 -6.5796004130955113e-04 -3.3408270858314163e-04 6.7898809154331421e-04
160 -9.9116605665652683e-04 8.1491470232182521e-05 4.3210016572368687e-06
161 -6.3040798334614186e-04 -2.0915004107206764e-04 7.5271994033417793e-04
162 -5.3826908272830573e-04 -3.2332880910809780e-04 7.8450720777800090e-04
163 -5.0948607593212416e-04 -1.1150107858288327e-04 -8.5936627759789093e-04
164 -5.3849604427326188e-04 -2.4491112480391183e-04 -8.1195576399309963e-04
165 -7.0724414222958997e-04 6.4420421353776614e-04 -2.7561349831325613e-04
166 -1.5193280199395930e-04 2.0678974303601548e-04 9.7374357243975023e-04
167 -2.1684429366352687e-04 3.1327994710688269e-04 9.3131331944325789e-04
168 -4.2068381488283009e-04 -2.1033060136993104e-04 -8.8905743947267403e-04
169 -4.4065147614705209e-04 -3.3592784089610147e-04 -8.3861537368375345e-04
170 -5.5239169243821826e-04 -3.7773125514740653e-04 -7.4793405859773258e-04
171 -4.4650580488490084e-04 -4.7016868969196985e-04 -7.6669876734430150e-04
172 -5.5829318486792974e-04 -5.0669331299166992e-04 -6.6027405261096536e-04
173 -4.4354649054191716e-04 -5.9832718761748812e-04 -6.7104002472689157e-04
174 -5.4648148828798765e-04 -6.2228991256352067e-04 -5.6125029927080010e-04
175 -4.3182401987521484e-04 -7.1055724455986423e-04 -5.5645233230978497e-04
176 -7.6821846690795336e-04 -4.3231924669326197e-04 4.6965294980632949e-04
177 -5.3063374170387039e-04 -7.1663255213627727e-04 -4.4958191737025149e-04
178 -4.0122655595728105e-04 -8.0248498826837025e-04 -4.3846910735336039e-04
179 -3.0736127520542868e-04 -7.8000455752480968e-04 -5.4540658557848871e-04
180 -2.7082234284520464e-04 -8.6291484162420685e-04 -4.2310933246304854e-04
181 -1.6956596204977786e-04 -8.3171694107653455e-04 -5.2874248569496495e-04
182 -1.3499119102850949e-04 -9.0378519717022128e-04 -4.0201417030810103e-04
183 -3.6558448874315347e-05 -8.5599274121414819e-04 -5.1607700960666159e-04
184 -3.9575366788366357e-06 -9.2232128275471063e-04 -3.8138988854794647e-04
185 -9.3837770273535591e-05 -9.5365710216903528e-04 -2.7477100233520190e-04
186 4.3314913227315315e-05 -9.6413605659362376e-04 -2.4867903832301628e-04
187 -5.3625737095192637e-05 -9.8330800996558349e-04 -1.4860851787502942e-04
188 8.8334928740946546e-05 -9.8416660350997688e-04 -1.2469333957379079e-04
189 -8.4063718090088407e-06 -9.9527054902316865e-04 -2.0158350363383663e-05
190 1.2178564124742365e-04 -9.8807094439619619e-04 1.1346499817307801e-05
191 3.5109550105260828e-05 -9.8851161486690617e-04 1.1499447880394964e-04
192 1.6380557607121777e-04 -9.7138706463732413e-04 1.4765655869413433e-04
193 7.3994507841883018e-05 -9.6260761711538818e-04 2.4800527829890826e-04
194 2.0734531859177620e-04 -9.6991528060802641e-04 -8.7140576598756896e-05
195 2.0167898224953394e-04 -9.3630932855623861e-04 2.7744341422744818e-04
196 1.0290079013612284e-04 -9.1759221377037017e-04 3.7947620859320977e-04
197 1.1234692753864025e-04 -8.6894393992800983e-04 -4.8257479657257715e-04
198 -9.3302412919364414e-05 -9.8738853128224786e-04 8.4302985859382215e-05
199 2.3410435627018833e-04 -8.8311907500589844e-04 4.0318391231500484e-04
200 3.2897286948269398e-04 -8.9324403881921245e-04 2.9783216218359310e-04
201 3.5634779193142568e-04 -8.3081628519213213e-04 4.2496527661938519e-04
202 1.3264608688075144e-04 -8.5194271195798265e-04 5.0686949025521106e-04
203 4.5157996040099047e-04 -8.3002356963415391e-04 3.1998890862272686e-04
204 -2.3064519759565999e-06 -8.7949263168477757e-04 4.7516683738751822e-04
205 3.2764730199431079e-05 -7.9816547198898401e-04 6.0455468527393600e-04
206 -8.9988865496331584e-04 -4.2056329059864968e-04 5.9095498297595036e-05
207 -7.5530180354995184e-05 -7.6878354148164044e-04 -6.3896980085798244e-04
208 -1.0828109522665550e-04 -8.1944308313958419e-04 5.6476884836161967e-04
209 -7.0455527110505338e-05 -7.2881092124869754e-04 6.8586887855159645e-04
210 4.7090376464562194e-04 -7.5992977758525227e-04 4.4622640601807331e-04
211 5.5992535989790647e-04 -7.5628779300985051e-04 3.3127864507421795e-04
212 -4.9169951644028025e-04 -7.9984861370329362e-04 -3.3559665995482605e-04
213 6.4634886649912255e-05 -7.0096914084521772e-04 7.1558417449901865e-04
214 -3.4318202938311994e-05 -6.2378314045706844e-04 7.8728031668836077e-04
215 -3.1500897839812627e-04 -3.0718863384172586e-04 -9.0478910708348989e-04
216 -2.0487805292439029e-04 -7.4520735003543988e-04 6.3825937960796438e-04
217 -2.4029406444222630e-04 -8.2465423995510307e-04 5.1229808300721764e-04
218 5.4139074445263408e-04 -8.1001916690184774e-04 2.1000325439601909e-04
219 6.5667565870510913e-04 -7.1454199640245541e-04 2.2825767503694292e-04
220 6.2160743580826734e-04 -7.7222520998083163e-04 9.7095119012495257e-05
221 -6.3230679917091967e-04 -6.3135339828938257e-04 -4.4537975106144473e-04
222 7.2911863534644370e-04 -6.6898690264801373e-04 1.1570628867556542e-04
223 6.8328408234075144e-04 -7.2409809072969042e-04 -2.1649918272363258e-05
224 -3.0310160557778671e-04 -1.7526183625405910e-04 -9.4368008504960984e-04
225 -9.5473058382361975e-04 1.0855029370737664e-04 -2.6011753458695584e-04
226 9.5215810520304331e-05 -5.9023971303501449e-04 8.0838051589939789e-04
227 -1.5356603977011874e-06 -5.0985268991360008e-04 8.6762875971408814e-04
228 -5.1300027627995367e-04 -1.8472472184901257e-04 8.4491714256083861e-04
229 -5.9209110962421161e-04 -8.0611596953333896e-05 8.0736324352048455e-04
230 6.5929498420598607e-04 -6.5879306927878168e-04 3.5684095487226424e-04
231 3.7734358901321123e-04 -7.5245379381119672e-04 5.4094457135240887e-04
232 4.9941533544550971e-04 -6.6604192741407254e-04 5.5713966301981928e-04
233 7.7880320600190293e-04 -6.2030392510938807e-04 -5.1572983665518411e-06
234 7.3443842005922397e-04 -6.5873190902713207e-04 -1.3672632697365810e-04
235 -3.6716912723426423e-04 2.3730551593873129e-04 -9.0571370871611742e-04
236 3.0551021160223725e-04 3.3385741098460313e-04 8.9846958167150268e-04
237 -4.1901771186193988e-04 -2.9171098381635026e-04 8.6710853779633416e-04
238 -8.3603366088508789e-04 1.9341417532025583e-04 -5.1309271978213400e-04
239 6.3047678698363303e-04 -7.5524450997276624e-04 -1.5658644721973998e-04
240 6.7567422563419202e-04 -6.8034072459173154e-04 -2.7342866950330423e-04
241 -5.7362516199416106e-04 -4.3996782795420323e-04 6.9561374832403900e-04
242 5.6745366600489619e-04 -7.6563660484864620e-04 -2.9392725521436167e-04
243 6.0303611897854212e-04 -6.8546531305097795e-04 -4.0472835765584714e-04
244 7.0446515587065345e-04 -5.9051150061397253e-04 -3.8974570535595750e-04
245 6.1960003600380887e-04 -5.9239976994882157e-04 -5.1561105006251004e-04
246 -1.9981706001915675e-04 -2.5160963147874085e-04 -9.5418620536598809e-04
247 8.1567201000083342e-04 -5.5903146501435025e-04 1.1993796178531103e-04
248 2.3516271206789940e-04 4.3807782269523804e-04 8.7392548381508620e-04
249 -3.8954247770363852e-04 -1.4945004603738449e-04 9.1617248906549886e-04
250 3.5820894794891175e-04 4.4351754056689186e-04 8.2729833703370657e-04
251 -2.0973553024283747e-04 -3.7378324675318633e-04 -9.1036941129914628e-04
252 -8.4544014473614509e-05 -3.2009521884106729e-04 -9.5114934962645342e-04
253 3.8096199463951607e-04 9.0778257749953061e-04 1.4374630539918458e-04
254 -6.1521295735829048e-04 7.4844986219367213e-04 -2.2678159017572574e-04
255 -7.1061263647184008e-04 6.8050957715709776e-04 -1.4451532107604713e-04
256 -7.9244909787008289e-04 5.7280435765773101e-04 -1.8330924695325024e-04
257 -7.8832493243072711e-04 6.0379333057732955e-04 -4.8442760449097865e-05
258 -2.2206690749611491e-05 4.3178006410431863e-04 9.0813957648474435e-04
259 -2.9792848372452261e-04 -2.4804067229797423e-04 9.2937985032038315e-04
260 -2.7865658190758831e-04 1.9482530824290229e-04 9.4745491856463768e-04
261 -3.4737735646694201e-04 3.0657455722695002e-04 8.9260288222755917e-04
262 -2.6294500708751070e-04 -1.3577281030703850e-04 9.6290587552703012e-04
263 -1.7379496200919771e-04 -2.1749788183450273e-04 9.6834774303329520e-04
264 -8.5881786518229180e-04 4.9417926833359089e-04 -8.4198367844426152e-05
265 -8.4106196302830732e-04 5.2754083893993538e-04 5.4604656171617470e-05
266 -3.3727636364848916e-04 -7.4285336269351576e-04 5.8043293836294862e-04
267 -3.6901402338486140e-04 -8.1088979321485369e-04 4.5194117698852711e-04
268 5.1456155876375854e-04 -6.8150519795763781e-04 -5.2112888354838684e-04
269 5.2301737799813385e-04 -5.7520302802997920e-04 -6.3260671084986331e-04
270 6.2022291331479274e-04 -4.7933138707593196e-04 -6.2444444156172874e-04
271 5.0987689559708763e-04 -4.5865804687727704e-04 -7.3319604720497970e-04
272 4.0342091917193115e-04 -5.4705974505211790e-04 -7.3900751469434158e-04
273 -2.8284422257610141e-04 4.1615174282011257e-04 8.7013133049883631e-04
274 -4.2017514367156689e-04 4.0716253344561302e-04 8.1622683148814177e-04
275 3.8303623565310414e-04 -4.3805194113575880e-04 -8.1973996147413186e-04
276 2.7325397244304308e-04 -5.1637424773454056e-04 -8.1818539119198584e-04
277 -3.2866288916179060e-04 -3.6633961113688370e-04 8.7766190441119498e-04
278 -1.3386890616668733e-04 9.7747686300035577e-04 1.2426986948724678e-04
279 8.1699245548803867e-04 -5.5580814075416622e-04 -1.2185517713094075e-04
280 -2.2879677144152857e-04 4.6370089823827016e-04 -8.6169270567298300e-04
281 -1.4737237190506723e-04 5.7025017634666254e-04 -8.1318532017234525e-04
282 8.5605993491300026e-04 5.0857825070510022e-04 1.8608242517567753e-05
283 1.2696779024258347e-04 -4.6353401421953650e-04 8.8455001388699269e-04
284 -9.8238538788587067e-04 6.3435811577405193e-05 1.4278230570126510e-04
285 -9.0779580434478845e-04 -4.0046810595923088e-04 -7.5130260752642169e-05
286 -8.4702851755493272e-04 -5.2145659950573542e-04 -2.8413547396010753e-05
287 -8.3016908459348376e-04 -5.3862458538007972e-04 1.0622847896521969e-04
288 -7.6834229418291011e-04 -6.3199077525869733e-04 2.3929773026992777e-05
289 -7.4738815694255529e-04 -6.3810225069111054e-04 1.5945355800954744e-04
290 -6.7177894217429750e-04 -7.2949484200815083e-04 8.4106213852760530e-05
291 -1.9521294501333969e-04 -9.6260833294256403e-04 -1.6527229417239480e-04
292 -2.7544733854909106e-04 -8.7992477907896727e-04 3.8235871482536737e-04
293 -3.3525613898531547e-04 -5.5037781942178456e-04 -7.7041982448073103e-04
294 -9.0386982747549813e-05 -4.7488899705805160e-04 -8.8314745714855689e-04
295 -4.8016565699461622e-04 2.8775553074034235e-04 8.3446285366368510e-04
296 -5.4692512113893035e-04 3.9273433600031616e-04 7.4345850379960892e-04
297 -8.6051484536927788e-04 4.5285731992264293e-04 -2.1196713447744472e-04
298 -6.1121457713391640e-04 2.6571574279466180e-04 7.5005295008749497e-04
299 -6.6088294581315935e-04 3.7532159742649599e-04 6.5197599463672363e-04
300 -5.9427149975884504e-04 4.9289199009504281e-04 6.3720262105471191e-04
301 -7.0544295496644579e-04 4.6084946751690067e-04 5.3717308938454290e-04
302 -7.6325649601774177e-04 3.3966677202652536e-04 5.4863233693571063e-04
303 -3.0374999747036924e-04 -6.6043405573371918e-04 6.9144017731701359e-04
304 -6.2844972752169447e-04 5.8073484854183224e-04 5.1561829777740844e-04
305 -7.9972293666109352e-04 4.1134041706058475e-04 4.3192686560727895e-04
306 2.2347236542839100e-04 -5.4285010719815768e-04 8.1636922574267667e-04
307 2.4168140194423857e-04 -4.2727289531542642e-04 8.7869101983958421e-04
308 3.5125890620217067e-04 -4.9547136209843873e-04 8.0117503532846823e-04
309 -4.5374469383206104e-04 -7.3197519469370186e-04 5.0720700784890726e-04
310 -8.4909277834336531e-04 2.8677984075513226e-04 4.3851071012037312e-04
311 -4.0989821919456225e-04 -8.5252187113961462e-04 3.1593346676941843e-04
312 -7.5908919293024167e-04 6.3629594180673128e-04 8.5316270917717209e-05
313 -8.4809891285271370e-04 -4.9405457762541024e-04 -1.6614393498165910e-04
314 -5.3945369086710928e-05 1.1143301014208617e-04 1.0000976044808169e-03
315 -8.7980197978735340e-04 3.5257669339952319e-04 3.0732459483586832e-04
316 -9.7134178350135377e-04 1.9255442579169479e-04 9.2022995918476710e-05
317 -1.1132022699776057e-04 7.5762690762273225e-04 -6.4429986682713956e-04
318 2.6661038500159671e-04 -4.0584824510667383e-04 -8.8123804647041650e-04
319 -6.8768975683741241e-04 -7.1705611029411454e-04 -5.8376040812357920e-05
320 -5.9341654948555193e-04 -7.9854537097316625e-04 5.6048702728473100e-06
321 -6.4947189145844481e-04 -4.1430072973099556e-04 -6.4015938752299086e-04
322 -7.5286113585366980e-05 -1.9657375087208043e-04 -9.8500471114224236e-04
323 5.0506610593589925e-04 -8.5460831055992324e-04 8.0331184003596824e-05
324 -6.1067844304439124e-04 7.7914493578274552e-04 -9.0854910664654384e-05
325 2.7992612808224647e-04 5.4357985243880756e-04 7.9637586125178397e-04
326 2.9240907224986704e-04 -6.2743492626802795e-04 -7.2694065493581004e-04
327 1.6114417716590339e-04 -5.9557979423940802e-04 -7.9336861534571527e-04
328 4.0598697245521580e-04 5.3499760884534269e-04 7.4533242480100722e-04
329 4.8041324349930368e-04 4.3674070707221910e-04 7.6543046238415320e-04
330 4.3906524845482696e-04 4.2759000674204067e-04 -7.9472721982421955e-04
331 -5.3615827536156702e-07 9.7971331077535782e-04 1.7237110694261315e-04
332 -2.6821953090615239e-05 9.9296910221989944e-04 3.9228872442057594e-05
333 -1.5980686239183478e-04 9.8096555146399045e-04 -1.1444957977400973e-05
334 9.8953820455873867e-05 9.8639970165697167e-04 7.7093595820454757e-05
335 3.6266547274512817e-04 -3.6962840558543415e-04 8.6269820387449071e-04
336 4.5769456957547123e-04 -4.3616178049221758e-04 7.8084903279448362e-04
337 -8.0867414708364431e-04 2.1132512923423903e-04 5.4774077531109854e-04
338 -3.4226608792783914e-04 5.1845917524737421e-04 7.8811708530377334e-04
339 -1.1660387067936337e-04 4.6219140303934808e-04 -8.8487024047119304e-04
340 3.9164395684281191e-04 -3.1513141104506210e-04 -8.7124012513095325e-04
341 2.3534823665206016e-05 -2.8047386215282883e-04 -9.6700596692191401e-04
342 -9.2330533969077434e-04 3.5787286385191390e-04 -1.0184528075730411e-04
343 2.7890966248771491e-05 -3.9472619606411040e-04 9.2620367490000124e-04
344 -5.1237306474981488e-04 6.1094025969249302e-04 6.0424462839541663e-04
345 -5.3408812050452547e-04 7.0257385814317020e-04 4.6814201227000430e-04
346 -6.5352751782130644e-04 6.4956763461120428e-04 3.8054692464743208e-04
347 6.1264947524975800e-04 -3.5554123064671100e-04 -7.1088180335973075e-04
348 7.1084560125171626e-04 -3.7000599242188715e-04 -6.0103913934935870e-04
349 5.2598831966722869e-04 5.2198363857306005e-04 6.7460156239540134e-04
350 5.9666614226442413e-04 4.0703447517005431e-04 6.9534931807190144e-04
351 6.4010551841857811e-04 4.9193401101180548e-04 5.9159074221617168e-04
352 7.0064343104951545e-04 3.7283604372259269e-04 6.1058003425582550e-04
353 7.3875453036403795e-04 4.5571660580366374e-04 4.9546990274359701e-04
354 -6.4315936290424433e-04 -7.2953458608525520e-04 2.1499237426097681e-04
355 2.5763915970088066e-04 5.3915981215081523e-04 -8.0624468661656820e-04
356 1.3563911128195246e-04 5.5829230608672839e-04 -8.2347954297657864e-04
357 -6.7600484645550564e-04 3.2975027256814185e-04 -6.6079814283701791e-04
358 5.1837410324907806e-04 -8.3271695127067264e-04 -1.7428345378607725e-04
359 4.4321513958088668e-04 -8.4166505773200821e-04 -2.9940633454609292e-04
360 -8.1860990034353950e-04 4.7953509563132470e-04 3.0317787864743710e-04
361 -1.3828359338076472e-04 -5.4058110436938178e-04 8.3675699050470454e-04
362 -1.8918106094065580e-04 3.6223474953470011e-04 -9.1894130135866171e-04
363 -2.1661580356951724e-04 5.1967068790773432e-04 8.3147646413667402e-04
364 -5.1384599650530305e-04 8.3487774354936318e-04 -1.6761173665991660e-04
365 1.6031002018354685e-04 5.4549736274580934e-04 8.2820223100186900e-04
366 -3.5955977540102579e-04 -2.8682430135334022e-05 9.4000435712205766e-04
367 -7.0347219067290576e-04 -6.4025501553499110e-04 2.9794912074978012e-04
368 2.1088107490924084e-04 6.6306799503474908e-04 7.2302241226924731e-04
369 7.9549812546353288e-05 6.2421225565093387e-04 7.8094757890234819e-04
370 7.0173213064929623e-04 -2.4426269429425422e-04 -6.7352466933332086e-04
371 -5.3343314726183103e-04 1.6761578479722308e-04 8.3509632763980809e-04
372 -6.6251849849445173e-04 1.3617041536343491e-04 7.4179516339309296e-04
373 5.6078366612231424e-04 8.1963685729754708e-04 -5.3372732804982172e-05
374 -1.5071216440553146e-04 -9.2943390748786959e-05 9.9213065136489315e-04
375 -4.5062303082119599e-05 -1.7499403959727114e-04 9.9151823451374028e-04
376 -3.0748348025976202e-04 -9.1617694148416102e-04 2.4358761389919835e-04
377 -4.3496488902085339e-04 -8.8097353779353243e-04 1.6705814831408214e-04
378 -9.1927804411332046e-04 1.9948834866739584e-04 3.3100546876972529e-04
379 4.1693877992723797e-04 6.3124315983219628e-04 -6.5699475714041681e-04
380 1.6932902771539746e-04 -7.0497752612395373e-04 -6.9319760281929394e-04
381 2.9588350928394882e-04 -7.3195365537906680e-04 -6.1641677765742180e-04
382 -8.9752382734292638e-04 -3.7636080538081245e-04 -2.0986562107700994e-04
383 -8.2707643442193305e-04 -4.6741862269157006e-04 -3.0026183077185215e-04
384 -7.6943131338383060e-04 -5.7885299825233174e-04 -2.5564391881393645e-04
385 -1.7165448889328274e-04 -9.3498390727063505e-04 3.0115118499682763e-04
386 -6.6417391228363665e-04 5.2431874527411138e-04 -5.3114030420218356e-04
387 -7.6145196180558950e-04 4.7457139842586573e-04 -4.3597007620920219e-04
388 8.7230708832694798e-04 2.4707445361127876e-04 -4.1774671184391707e-04
389 -9.0385492636907633e-04 3.3331242651332211e-04 -2.5034387746806298e-04
390 -5.0187328135392346e-04 8.5727893594687876e-04 -3.5266524803986751e-05
391 -4.0203358153057889e-04 9.0233155044130921e-04 -1.1249282152032631e-04
392 -5.9056574946382719e-04 7.9827634825662731e-04 4.1083765881903382e-05
393 -5.9083584234604486e-04 -7.9076281486118881e-04 -1.2818655162994221e-04
394 -5.0102556576691226e-04 -8.5734932181654941e-04 -6.1176659220574272e-05
395 6.9929395771449454e-05 9.9002290950062446e-04 -5.6320802899157305e-05
396 2.0522105957965748e-04 9.7257302454920730e-04 -2.2358014292820083e-05
397 5.0899793949928053e-04 3.2768309010530110e-04 -8.0145344665567592e-04
398 2.6592900367511640e-04 -2.9368752521728773e-04 9.2573653695330162e-04
399 3.8028696302795070e-04 -2.1959917892162535e-04 9.0632483047245612e-04
400 -2.7049991783084323e-04 6.0786968317772590e-04 7.5001741442048899e-04
401 -1.5799055444424415e-04 6.1346618595977851e-04 7.7704277656004677e-04
402 3.2437723093686451e-04 -6.0990995718434996e-04 7.2847265858961142e-04
403 6.5667722093082858e-04 2.8121623268487651e-04 7.0380204153027879e-04
404 6.5995170299357924e-04 5.8476588803854765e-04 4.7090270900606928e-04
405 -3.1694254313946240e-04 -9.3809838418364893e-04 1.0281883022890421e-04
406 2.6553216128333490e-04 -2.7682428476586725e-04 -9.3047186358012645e-04
407 3.5993511429659874e-04 -1.8487948101370057e-04 -9.2145398365174884e-04
408 8.1426297611360756e-05 4.4673737234440515e-04 -8.9684650580180633e-04
409 -8.8493385907477092e-04 4.2511104806673960e-04 1.6721972838219790e-04
410 -4.4817080465136530e-04 8.0901946620561774e-04 3.7131185140004561e-04
411 5.5221512991346139e-04 4.2465196618593948e-04 -7.1987629934346879e-04
412 4.4715657726835843e-04 6.3730660979435978e-04 6.3078500408219977e-04
413 8.0150989583853557e-04 3.0885179710790661e-04 5.1202967293352986e-04
414 8.2921017683691581e-04 3.9334373790857598e-04 3.9150343958876634e-04
415 5.7150761975133726e-05 -1.5020815019169196e-04 -9.9433350919435467e-04
416 -9.6831237938761706e-04 2.2375186112412151e-04 -3.9262248977466924e-05
417 -7.5420310604570526e-05 3.5244964183837348e-04 -9.3890307048678020e-04
418 -1.3433584794988313e-04 2.4712119210548397e-04 -9.6634119065677152e-04
419 4.2032153593884254e-05 1.5028989383536340e-04 -9.9386035198897838e-04
420 -6.9882165080577700e-05 -8.6468352063587078e-05 -1.0010114724837492e-03
421 -9.4057731123128386e-04 3.1859943687322708e-04 5.6584888017270773e-05
422 7.9110008329259427e-04 -2.5541034680313024e-04 -5.5748136425589039e-04
423 7.9797484841915471e-04 -3.7329944684530669e-04 -4.7232152306355974e-04
424 2.4053892933005474e-04 9.5856889031108573e-04 1.1248955535696452e-04
425 3.7061830399581450e-05 -6.7550324696935852e-04 -7.4282533469242288e-04
426 3.4692276482189356e-05 -5.3895951327808506e-04 -8.4866028823218182e-04
427 -7.8387654962776797e-05 -5.9866486791557215e-04 -8.0267839348518880e-04
428 4.0185332408034337e-04 -8.9410015786227609e-04 -1.7622656212470410e-04
429 3.2856515992072245e-04 -8.9658089412351482e-04 -2.8654221356950869e-04
430 3.5740982629079793e-04 -8.3802046089556561e-04 -4.0872766004439295e-04
431 -6.0035501166421539e-04 -7.2170622592854499e-04 3.3588061389926599e-04
432 -6.4206962500269727e-04 -6.2746196195495921e-04 4.3833506586816952e-04
433 1.5559608565564307e-04 -3.3837534968243375e-04 -9.3542065829056264e-04
434 -1.0899126940405014e-05 5.6051165783624877e-04 -8.3410544113960133e-04
435 6.7223673341525417e-05 6.6345450025906264e-04 -7.4906314896906897e-04
436 8.7932599596901736e-04 2.5787998907707987e-04 3.9542863155132835e-04
437 8.9698178104122468e-04 3.4051433932829342e-04 2.6872081990130366e-04
438 8.3717733566541911e-04 4.6512457135624560e-04 2.7358324687497011e-04
439 7.4998485241667640e-04 2.4024415906141337e-04 6.1915719970987890e-04
440 -5.7001425929002888e-04 7.5499567104188054e-04 3.1222480966825318e-04
441 -6.8858388320696263e-04 6.8204105328367075e-04 2.2902578906554351e-04
442 6.7778415455577883e-04 -1.2529706549143293e-04 7.2992268674323491e-04
443 7.1039099700796109e-04 -2.4531233072860853e-04 6.6397075448069098e-04
444 8.0302329817020406e-04 -2.5043989589511458e-04 5.4211477977665937e-04
445 7.3501272843598065e-04 -3.6680074266313582e-04 5.7226944318933422e-04
446 8.0724480962206279e-04 -3.7271417550704245e-04 4.5631618070426764e-04
447 7.3110968158003088e-04 -4.7781584951435554e-04 4.8653956535255299e-04
448 6.5423611367325602e-04 -4.7551109828202067e-04 5.9041822166270403e-04
449 8.0027095131429444e-04 -4.7615333364097400e-04 3.5928252918625584e-04
450 8.6772245465378903e-04 -3.6521373424028942e-04 3.3034468567244102e-04
451 6.2989033879798611e-04 -5.9670331629011115e-04 4.9840189806506252e-04
452 6.8211564609256547e-04 1.2760195939372966e-04 7.2592280563463587e-04
453 -5.7276437521496578e-04 -8.0278805271159315e-04 1.3579406918970494e-04
454 3.1056213891978885e-05 -4.0655288027554128e-04 -9.2052416313133237e-04
455 8.9367944480178263e-04 4.1150265818947070e-04 1.5201940079376735e-04
456 4.8430785261958015e-04 -2.1688842193452905e-04 -8.5402692326327857e-04
457 4.9892952982255254e-04 5.2090922230720277e-04 -6.9533107849035841e-04
458 6.0103308566045275e-04 -2.4507112121777244e-04 7.6728026319833385e-04
459 1.3131677513959585e-04 9.6277165578384884e-04 2.1500085086401786e-04
460 6.3180383734758646e-04 6.9080991406605410e-04 3.4297437210902297e-04
461 3.7866875995202907e-04 5.2591196587733623e-04 -7.6549178962816058e-04
462 -4.1857056997901548e-04 6.9595876193596093e-04 5.8301385766405876e-04
463 7.6925761415803516e-04 -1.2920800097561346e-04 -6.2898158807055485e-04
464 8.7076295261467656e-04 -2.5203346680615870e-04 -4.1911702413295583e-04
465 8.6880702291672232e-04 -3.6781196533422445e-04 -3.2401225393223617e-04
466 -6.1693362634598805e-07 8.1974548672641956e-04 -5.7203450759821988e-04
467 9.2709948837886764e-04 -2.4488070976647541e-04 -2.7219896688344947e-04
468 9.1541978320843669e-04 -3.5304315043174317e-04 -1.7439453343837545e-04
469 1.7191391692883859e-04 3.2973328000007968e-04 -9.3457209344499246e-04
470 8.4712769539891676e-04 -4.7159877713743990e-04 2.3162981461606098e-04
471 9.1169577162961255e-04 -3.5148615906106643e-04 1.9427873758813606e-04
472 2.0094952039988461e-04 7.6528296226452278e-04 6.1291819575285420e-04
473 1.5063844048083302e-04 -2.2465749549607054e-04 -9.6994614273653121e-04
474 2.2738412960785111e-04 -8.9549185192938153e-04 -3.7763809099717384e-04
475 5.5671880528377282e-04 7.6801280859931673e-04 -3.0390749031493998e-04
476 3.1668182039692447e-04 7.1068844427050570e-04 6.2983470686562041e-04
477 2.8354687178559415e-04 7.1899039676787103e-04 -6.3601080745174458e-04
478 -1.8551753381146891e-04 -5.6600871726286760e-04 -8.0853762332037081e-04
479 -1.7338064892719030e-04 -6.7826564111135958e-04 -7.1847039966359695e-04
480 -3.9296188378667058e-04 8.2837333632320581e-04 -3.9139451041746891e-04
481 1.9848670964925632e-04 6.5520184386786654e-04 -7.3228558124233448e-04
482 7.5687985353272683e-04 -5.9871605201205808e-04 2.5403205787318266e-04
483 8.8570216713791748e-04 -4.4444547557889806e-04 9.6972939996141667e-05
484 9.3968561368223502e-04 -3.2186458118598518e-04 6.3217846572898075e-05
485 6.0034796267768766e-04 -2.3028359049669095e-04 -7.7162098648405936e-04
486 4.0170686736752551e-04 1.4333303603606085e-04 -9.1052772221668246e-04
487 9.8507259459157739e-04 1.2960873485123173e-04 -6.1583864937837603e-05
488 9.5203841300736322e-04 2.6937799153902591e-04 -1.1682024771427975e-04
489 9.6730081866464187e-04 2.3063006281327171e-04 1.4256372012074563e-05
490 8.9229193619309801e-04 4.2803705750510380e-04 -1.0696787497977109e-04
491 3.4283979663372432e-04 9.3344785652662546e-04 1.3349180603235877e-05
492 2.9902925019580014e-04 9.3941875480184269e-04 -1.3655976395965743e-04
493 4.3693999872032320e-04 8.8975891767927148e-04 -7.8748072401441910e-05
494 9.1185767181564670e-04 -3.9763486386060881e-04 -3.2204298302318338e-05
495 9.5277981456253348e-04 -2.8180911058485128e-04 -5.8633538497302521e-05
496 -3.9416878629798394e-04 9.1236024041408401e-04 1.7772769299876906e-05
497 9.8350488026374239e-04 1.2818880784558784e-04 8.5087579429098676e-05
498 6.6891259458052319e-04 6.7994458384556037e-04 -2.8737448180957511e-04
499 9.8613479262976201e-04 -1.2575428574005377e-04 -6.2456422688996475e-05
500 9.6240394692488000e-04 -1.2176618660567624e-04 2.2778614794540748e-04
501 9.2284853297576463e-04 -1.2161952583304660e-04 -3.5955754111055284e-04
502 8.5897460779949691e-04 1.2119127244981271e-04 -4.9671114913609046e-04
503 8.5633056494332409e-04 -1.1975179528756619e-04 5.0249684149234050e-04
504 4.3005579737569389e-04 1.1178957831993110e-04 9.0283853642344493e-04
505 4.3329524938751931e-04 3.2713800866171494e-04 8.4587215069754018e-04
506 6.4617668368846352e-04 -3.5684918610421430e-04 6.7880371994976274e-04
507 3.2597783440083388e-04 -1.0792661910400735e-04 9.4662251179828891e-04
508 7.6226098237092707e-05 -1.2261394992469239e-04 9.9784530579280365e-04
509 1.5019182119799894e-04 -2.1996553074805981e-04 9.7153395778997072e-04
510 2.6342772108473039e-04 -1.9451269150473933e-04 9.5163085182754662e-04
511 -2.0096787603933751e-04 6.7744432086008365e-04 -7.1065919592805556e-04
512 2.7184400195491440e-04 9.2763711222365055e-04 2.3811235561528989e-04
513 5.7543009190606982e-04 -8.1184622064217800e-04 -3.7996929461496402e-05
514 2.5040577669326546e-04 -9.6257783252762556e-04 4.6394606102155603e-05
515 2.9363503669209580e-04 -9.3606303920185758e-04 1.7392435583952980e-04
516 -5.4129204408913303e-04 5.6078455355747800e-04 -6.2787725172445291e-04
517 7.7090776887129165e-04 -5.7875900836707112e-04 -2.5350707136556297e-04
518 -1.3946529398635186e-04 -9.8457607189572898e-04 -4.3707001445776184e-05
519 -2.8262802266011309e-04 -9.5381565540774772e-04 -4.7716861034339655e-05
520 -3.2562302568050631e-04 -9.2139271645827047e-04 -1.9275015251564673e-04
521 -7.8221415356802813e-04 5.3164273564080178e-04 -3.1232607337575602e-04
522 -9.8076082585100716e-04 1.0581609686735510e-04 -1.2842882297752422e-04
523 7.7962898099745719e-04 6.0658091211675063e-04 1.1895591198357650e-04
524 -7.9818868280802672e-04 -5.4250849299730566e-04 2.4681610211853798e-04
525 7.6573383209814212e-04 5.1542824149270719e-04 3.7763696046875486e-04
526 4.8625687627487017e-04 -7.6720267398098748e-04 -4.1527991331252999e-04
527 -9.4897144303376186e-04 -2.7279996445501265e-04 -1.2355786532645730e-04
528 -9.3478659324051710e-04 -7.2244022853270025e-05 3.3866649815076711e-04
529 -9.1009876036785638e-04 5.5347495622926357e-05 4.0488046561440807e-04
530 -8.3945503988290299e-04 5.2326702091430600e-05 5.4153385639458607e-04
531 -7.7454609971349395e-04 -6.1418459154714280e-04 -1.1737667094368288e-04
532 -9.7240342214452370e-04 -6.1767435257959795e-05 2.0371103170648802e-04
533 -7.3083957203823216e-04 5.3174950315142990e-04 4.2163896742422152e-04
534 -6.9676645549581080e-04 7.0850989040575668e-04 -1.3956540809394303e-05
535 -2.3562688358311814e-04 -9.2263322930732634e-04 -2.9545067648359332e-04
536 6.2172959608598646e-04 7.5844802629052607e-04 -1.6863368613409337e-04
537 -1.4167288380237424e-04 -8.8824243189588204e-04 4.3460908595002284e-04
538 -4.7066322723250080e-05 9.8843179558990787e-04 -9.4744297889657060e-05
539 -1.6868450985485050e-04 9.4466414705983480e-04 -2.6294613686628503e-04
540 5.8784290269054593e-05 9.7239447047356518e-04 -2.0483608365451104e-04
541 -9.3314967570532446e-04 2.8483668256852845e-04 1.9662145547249567e-04
542 -8.7378508127988882e-04 -4.3588390861851590e-04 1.9478235007915911e-04
543 -8.0148369162104990e-04 -8.9542314922643862e-05 5.9267415145108113e-04
544 -7.5154238824361522e-04 1.4212831290129393e-05 6.6207013606578468e-04
545 -6.5258224976476157e-04 -5.2695299777546795e-04 -5.4466481952339277e-04
546 -7.3660505527360664e-04 -4.2536321540786380e-04 -5.2465418774415903e-04
547 -7.4273530919333880e-04 -2.9787352743804304e-04 -6.0094290565901082e-04
548 -6.4106299708873067e-04 -2.7930487328032150e-04 -7.1908098664806694e-04
549 2.5691256940965743e-04 -8.1101878156162157e-04 5.2637769400505380e-04
550 5.6522203180619666e-04 5.8874627857319881e-04 5.7752515972514116e-04
551 8.6347661655802649e-04 3.6695388313860358e-04 -3.3678901457322071e-04
552 8.7268054423563922e-04 -2.4712530588873893e-04 4.1836660013581755e-04
553 1.6437654672574775e-04 -7.6378563681009490e-04 6.2769507548606331e-04
554 -4.4044509862301327e-04 -6.4390663003984687e-04 6.2996186353833964e-04
555 -3.8239956328384026e-04 -5.5807873809732094e-04 7.4165405273734434e-04
556 -8.2880022630786609e-04 -4.3995383904470826e-04 3.3706798072381144e-04
557 -6.0948054601559203e-04 -7.1103958621193924e-04 -3.4181235092828886e-04
558 -7.1659099962113350e-04 2.4522613767826134e-04 6.5502467430408309e-04
559 -6.7697466984619739e-04 -4.4289082255498429e-04 5.8957935236612349e-04
560 -5.8844089715201823e-04 -5.6251026040301719e-04 5.8395292752930401e-04
561 6.2595497770081285e-04 4.8018610116501545e-04 -6.1694162377148214e-04
562 -3.1617894681498093e-04 -6.8094823925156183e-04 -6.6463015861242683e-04
563 -4.7625039820097816e-04 5.0837201115690048e-04 7.2092431771849091e-04
564 7.1296754349577281e-04 -4.8663920655298145e-04 -5.0515109578051418e-04
565 -8.5199319796885325e-05 -3.0460682305111773e-04 9.5656290421820497e-04
566 -1.0206863806382253e-04 -4.2197804248296234e-04 9.0843358661906273e-04
567 -1.9978670315673458e-04 -3.4228295713439172e-04 9.2577031258840061e-04
568 -1.6901467598436993e-04 -6.5487677527119965e-04 7.4225061012521843e-04
569 4.1504244481497941e-04 -6.6068510210401962e-04 -6.2887715153645603e-04
570 -7.0619327084062969e-04 -9.3167628297527989e-05 7.0558981248656225e-04
571 5.4434046108297284e-04 3.1941264233575109e-04 7.8066876257954984e-04
572 5.0472078649676133e-04 -3.4039790985633138e-04 -7.9954662533273486e-04
573 1.5531180480357721e-04 -3.3404380562223143e-04 9.3743053204664226e-04
574 -7.3600854930671125e-04 2.0038998282277161e-04 -6.4864988067362067e-04
575 1.5081037046737200e-04 -4.6304107845679637e-04 -8.8062541606455705e-04
576 -4.4272153305389619e-04 -4.2244977550504091e-04 7.9815206439930728e-04
577 -3.0247507056025904e-04 3.5657618398191997e-04 -8.9000387288687226e-04
578 -2.5759259413927961e-04 2.5155332615602651e-04 -9.3942247658596728e-04
579 -3.1929319360076759e-04 1.4586731088607919e-04 -9.4282682654595550e-04
580 -4.7321925362438612e-04 1.2436617102178178e-05 -8.8715246533110502e-04
581 4.5193964889266421e-04 -5.6348072579500016e-04 6.9762183082930579e-04
582 4.7387874127832334e-04 -3.0962492120951860e-04 8.3085932131103050e-04
583 -4.3170068815381088e-04 1.2762817030785890e-04 -8.9915704177126465e-04
584 -4.0230026285569025e-04 1.8633978562731122e-04 9.0301945213750118e-04
585 -4.4554616091483507e-04 6.8683003520730507e-05 8.9939863170995413e-04
586 -3.3526777996663716e-04 -4.2499378669885648e-04 -8.4701875416874389e-04
587 3.0204818519766916e-05 9.4533593618115327e-04 3.1234865383204558e-04
588 -3.9238090585375248e-04 -8.7652817207783520e-05 -9.2228551067420931e-04
589 -2.9415250220238374e-04 -4.4307179827148297e-05 -9.6164356679891800e-04
590 -1.7866740026290843e-04 -1.2371017320432623e-04 -9.8337945368436497e-04
591 -1.4443479676335362e-04 4.2518180817519453e-04 8.9980599176457546e-04
592 -5.0825789855618077e-04 7.9983966774113029e-04 -3.0601736563923900e-04
593 -2.4351049581934330e-04 -1.4169841901403516e-05 9.7710643678785062e-04
594 3.6959006913584499e-04 2.1448524147096073e-04 9.1106880197865591e-04
595 -7.9773780006232268e-04 5.6184583081292849e-04 1.9506647810484034e-04
596 4.2211141652867329e-04 -8.8207277946362528e-04 1.9177175829316036e-04
597 1.1171144626269271e-04 4.3277839900519540e-04 9.0111284224749931e-04
598 3.1505420114938144e-04 8.9887636943195969e-04 -2.9003960509982324e-04
599 1.9969949425488045e-04 -6.6011433490427288e-04 7.2963968392773283e-04
600 -5.2696979343984113e-04 -8.0493682019240501e-04 2.5967899840087456e-04
601 -8.4092437741048389e-04 4.0689753702109917e-04 -3.4647560346657457e-04
602 -8.1020662755712384e-04 3.4541565255154824e-04 -4.6935760943820270e-04
603 -7.4031305114033821e-04 -5.3217060201907348e-04 -4.0703191762977536e-04
604 -9.0649538440140903e-04 1.3721884436475250e-04 -3.9179040087942882e-04
605 -4.0648934882880249e-04 -9.0797978937288233e-04 2.2510124626573512e-05
606 -3.2197550037644813e-04 8.4059038096434351e-04 4.2933744959878031e-04
607 5.3197517897709648e-05 1.2013317170035571e-04 9.9834096401623393e-04
608 -4.2911553899788337e-05 7.5805128110038584e-04 6.5273405538106722e-04
609 -7.3255162054488090e-04 -1.6615743316270113e-04 -6.6301382685161479e-04
610 9.4948664050248659e-04 2.6717655262847119e-04 1.4051551320696902e-04
611 4.2162579531151696e-04 -1.1003328186957852e-04 -9.0705456540831643e-04
612 9.1770165359298219e-04 1.3166271022139865e-04 3.6901592562043299e-04
613 -3.6924308981325411e-04 -8.7045505158730725e-04 -3.1674118136925175e-04
614 6.2000908524544580e-05 -7.8562795120539972e-04 -6.1874282497352811e-04
615 4.5467306138813129e-04 -8.8429088862872467e-04 -5.2501139482675123e-05
616 -6.8597142094417802e-04 -6.9275923079885836e-04 -2.0607745434080224e-04
617 -9.2898752808155379e-04 -2.4660098508991283e-04 -2.6089953668790227e-04
618 -6.1637021975375771e-04 4.4622897606259415e-04 -6.5058846933996664e-04
619 1.8638306742015657e-04 -9.5163731077724700e-04 -2.3253558411731419e-04
620 -3.6312814505591012e-05 -9.3524809864582617e-04 3.4579097208680185e-04
621 3.9271805094457393e-04 -7.5853973669936983e-04 -5.2045588906210645e-04
622 -2.2271038115289046e-04 -4.5237544133288948e-04 8.7057235641021884e-04
623 7.9157360720765900e-04 -4.8247279552835625e-04 -3.6984714768437761e-04
624 9.2346816764646246e-04 1.2903896411548324e-04 -3.5462639807929856e-04
625 -3.9423611593101659e-04 6.0612878074575195e-04 6.9305740930594207e-04
626 -2.6118751054237023e-04 -5.6495364762150588e-04 7.8867030887104777e-04
627 -8.3174139014594988e-05 5.3070362377568984e-04 8.4908442825630916e-04
628 4.8140137700097857e-04 8.6886845756429067e-04 5.0723937490077988e-05
629 -9.5390645997937178e-04 5.4800441986061537e-05 2.8102735835654278e-04
630 -5.7828218942804015e-04 7.8957886640701751e-04 1.7697894762944459e-04
631 -8.2409310089201395e-04 -1.8981568748038791e-04 -5.3286412715751745e-04
632 -4.0074868582313269e-04 8.7650811041559802e-04 -2.4802768235098079e-04
633 9.2470152918875531e-04 2.5344697085113906e-04 -2.7127429099330612e-04
634 -3.2471041047464014e-04 9.0647076168633183e-05 9.4864228950238526e-04
635 3.7878850990717537e-04 -9.1890896427062577e-04 6.1234588943986777e-05
636 -6.4960351909042178e-05 -9.7080079960389358e-04 2.1444700299995593e-04
637 -4.7706999814186771e-04 -5.0783371420405938e-05 8.8418800924837534e-04
638 4.2186488563921473e-04 2.6444782652913432e-04 -8.7218495124353329e-04
639 4.3527241820614691e-04 -1.0288098414631254e-04 9.0152056025058697e-04
640 -6.6131326529273043e-05 6.6244632606301829e-04 -7.4984955809231436e-04
641 -9.5123691634735666e-04 2.2884569195783980e-04 -1.8056829330416409e-04
642 -8.7795076551335774e-04 2.7305511980219569e-04 -3.8519116127647829e-04
643 2.8239217264320379e-04 -7.1846951049563069e-04 6.3914021021513811e-04
644 5.5703745040345252e-04 -4.6780355908058438e-04 6.9044903006423527e-04
645 5.9618491809965699e-04 2.3527772781367726e-04 -7.7242695572378559e-04
646 -1.9242220218591488e-04 1.0085553074773580e-04 9.8337689658898361e-04
647 2.3592414549419678e-05 5.4205076004337207e-04 8.4574299326111010e-04
648 -7.4416240965517277e-04 5.8611124473363651e-04 3.0444526772775579e-04
649 -2.7032868135286087e-04 9.5412179093577493e-04 6.9903379272493929e-05
650 9.2493389126470003e-04 -2.4134015006226791e-04 2.8354217709625950e-04
651 -4.6923062575671511e-04 -8.5630093306742546e-04 -1.9891907964271566e-04
652 -8.7324080336704428e-04 -3.4246048583289068e-04 -3.3646293059785994e-04
653 -1.9717496634867875e-04 1.4948961725625435e-04 -9.7572968893971034e-04
654 8.4703331943937368e-04 -4.7043492658665548e-04 -2.3235973919709450e-04
655 -7.2239905324871716e-04 4.0704610655263731e-04 -5.5774859178043081e-04
656 6.7380642160481160e-04 -1.1812919224887786e-04 -7.3450037654318044e-04
657 -7.4569386502321383e-04 -5.4366875195615216e-04 3.7875829865625129e-04
658 -3.6995074843083648e-04 3.2694467658550532e-05 -9.3493952748903300e-04
659 -1.5672700114177391e-04 7.8717949163274167e-06 -9.9527807046569171e-04
660 -3.8227681322495301e-05 2.9088679601586625e-05 -1.0052104203291581e-03
661 8.5189771542370824e-04 -5.1467865879498218e-04 -5.5689202148628504e-06
662 3.4908573752216729e-05 -2.5119956107177126e-04 9.7537075126640893e-04
663 5.1187856392180325e-04 8.3255317038163662e-04 -1.8564174838414392e-04
664 -2.9063370442193191e-04 9.4863026718751246e-04 -6.0607941848372396e-05
665 -2.8525325393261947e-04 9.3422249360087281e-04 -1.8705203235599120e-04
666 -7.7744254497413127e-05 1.2207088915381159e-04 -9.9690152848991320e-04
667 2.6122441798902176e-04 -8.2491857703166031e-04 -5.0090889200417202e-04
668 -5.6381124367208566e-04 4.9356922090596539e-05 8.3019562138343433e-04
669 -8.2075926568968239e-04 -3.1960531558831415e-04 -4.6997458422320146e-04
670 -4.9149434969448038e-04 8.5819344063934363e-04 1.0191001053949914e-04
671 -9.5777483848219751e-04 1.6387656605950648e-04 2.1127119628089379e-04
672 5.5754781783941049e-04 -3.6303277663922499e-04 7.5086464730051360e-04
673 -2.2977643020599983e-05 2.4244520406980087e-04 -9.7641316026989087e-04
674 -1.9226584757911608e-04 -9.6235270452694197e-04 1.6875878123606726e-04
675 4.1438942827470485e-04 7.3823184113289662e-04 5.2952573842722994e-04
676 8.5108219675097339e-05 7.2091797780923707e-04 6.9088930117592348e-04
677 4.8852918996708853e-04 2.1658870926621003e-04 8.5129103527576051e-04
678 -4.8462354193606536e-04 -7.7971754911906584e-04 3.9084349983425193e-04
679 3.1895909124474256e-04 -9.1038750803485021e-05 -9.5053962035363134e-04
680 3.9103953185073910e-04 -6.6706601728162970e-04 6.3639245473016937e-04
681 -8.7243891461309718e-04 1.6806241356138362e-04 4.5289545564908528e-04
682 -8.9855051768826532e-04 4.2386344001473555e-04 1.7092629143683573e-05
683 -5.3857862890797548e-05 -8.9935790828460096e-06 1.0053315887489371e-03
684 3.2883531280480542e-04 -9.3754727216709653e-04 -6.2796921297474426e-05
685 3.9352047585959843e-04 8.9015628659111945e-04 -2.0216693866621717e-04
686 1.8154580926855294e-04 -7.9015884384353715e-04 -5.8589171604585982e-04
687 1.6356644584634839e-04 9.7055433141830891e-04 -1.3704360572115137e-04
688 -8.0343714193266218e-04 -4.2518526605807647e-04 -4.0890723197506244e-04
689 -5.4055323452356077e-04 -6.5426877010132630e-04 5.2719195581811648e-04
690 5.6149344195340946e-04 -6.9311540596953003e-04 4.4867605326477655e-04
691 9.5714074071436505e-04 -2.3332340401831787e-04 1.4403596597541967e-04
692 -6.8377649512216753e-04 -5.3223409935695932e-04 4.9637001312690071e-04
693 9.3017478938228597e-04 2.2750531568957490e-04 2.7269449816967053e-04
694 -1.7644690405614990e-04 9.6850904403209708e-04 -1.3783463401409313e-04
695 9.0035801377173394e-04 3.6372013844049262e-04 -2.1677446765432388e-04
696 -4.0016131381300985e-05 6.5366224940379737e-04 7.6101083894431680e-04
697 -3.3659572113895928e-04 -4.7172133815130197e-04 8.2042646437956320e-04
698 9.2498228669301739e-04 3.6722020064825943e-04 1.6762454634236250e-05
699 -4.9373826366599569e-04 -5.3225576773391272e-04 6.9109213828425474e-04
700 -6.6066547420538444e-04 1.2413428947557363e-05 7.5378826584550037e-04
701 5.6272550088038386e-04 -5.6015573950653934e-04 6.0958104741616712e-04
702 -6.9320555519331950e-04 -6.3315076570669853e-04 -3.3298127391196390e-04
703 -7.6156964872592056e-04 2.9085180570238552e-04 -5.7732543970653112e-04
704 3.7787786671643594e-05 3.4279235718916976e-04 -9.4469356607240339e-04
705 3.1326661306047855e-04 6.2076548450817231e-04 -7.2059511839442792e-04
706 -3.1575265168381020e-04 6.8626439386799249e-04 6.5548041980825929e-04
707 1.1692612797588127e-04 -9.2868546306733421e-04 -3.4283537967750427e-04
708 -6.6496331971766139e-04 7.3042931962895199e-04 1.0384397392105581e-04
709 4.3042770055799609e-06 7.4268501886952637e-04 -6.7029762843090175e-04
710 -4.0671530736539072e-04 7.6956339466039162e-04 4.8694580768751357e-04
711 -9.2455861146746642e-04 2.1402441134669623e-04 -2.9882481414596549e-04
712 7.7435694039634058e-04 1.0507443118314408e-04 6.2559124999727917e-04
713 -2.0796835686263173e-04 -7.5229338238208467e-04 -6.2629436552847370e-04
714 6.2579512537621902e-04 3.5408918637566884e-04 -6.9856553900293869e-04
715 -2.0671886547789353e-04 -9.7162682596713189e-04 4.7609112801964273e-05
716 -2.7086353113028790e-04 5.8307180602484820e-05 -9.6686318177676464e-04
717 -3.9839288265888898e-04 -9.0551098085102453e-04 -1.0239239654721431e-04
718 4.9921914059424270e-04 -2.0344216494677360e-04 8.4802210588034673e-04
719 7.2021430985618753e-04 -5.6857669764765579e-04 3.9163422185593621e-04
720 8.3546228967623063e-04 5.1445541683271725e-04 1.6161700719621123e-04
721 2.5710580673502821e-04 -1.7265147603049143e-04 -9.5713871459334940e-04
722 -5.7433203704076595e-04 -7.7625592977360706e-04 -2.4119458623141613e-04
723 4.8167351173726845e-05 5.2789511122995449e-05 -1.0042859351315199e-03
724 -1.7212922857733989e-04 7.1513347336236294e-04 6.8091277774981799e-04
725 8.7417702340517218e-04 -4.6053880513796864e-04 -1.1546723964989263e-04
726 5.9864508473118385e-04 2.0458269365122026e-04 7.7858199373750275e-04
727 7.7647279595482240e-04 5.7004065377809520e-04 2.5125728843892358e-04
728 5.4344484866847796e-04 5.8266088805957177e-04 -6.0376106754578339e-04
729 4.7880416163407569e-04 9.4129338193922797e-05 -8.7798503200006651e-04
730 7.1243800350980423e-04 6.0803685169322924e-04 3.3842543480218780e-04
731 -2.4400542754010189e-04 -6.1826250307281730e-04 -7.4954265324873968e-04
732 3.3677923273182870e-04 6.1958875933477498e-04 7.1156658620649454e-04
733 -7.2784278921659952e-05 9.6972977178792644e-04 -2.0493121901695374e-04
734 -2.3910001656150283e-04 -4.8177578797822817e-04 -8.4833879500541439e-04
735 9.5679053742566019e-04 -2.2757875890994092e-04 -1.5110558418793144e-04
736 9.7183081517333424e-04 -2.0851824487230203e-04 3.2518556603333684e-05
737 -3.5820798438569607e-05 -8.8388327717418789e-05 1.0025536275487510e-03
738 -5.0312741038144933e-04 -8.5557216581316981e-04 5.9053920239214771e-05
739 5.0298608107652535e-04 1.9725846809195283e-04 -8.4683244746702312e-04
740 -7.6339815263692782e-04 1.3146267206862473e-04 6.3269565335941156e-04
741 -1.3843697313620094e-04 1.5725985311651059e-05 9.9692795148762620e-04
742 -5.4660953546451429e-04 -7.0836432441043890e-04 4.4115685685097104e-04
743 -1.9630450055713922e-05 4.3471849697308780e-04 -9.0547615462594584e-04
744 2.8839388945412614e-04 -9.3666381036286992e-04 -1.7293028009872670e-04
745 -6.8707122985324742e-05 -6.8400553356236780e-04 -7.2847182613977753e-04
$EndNodes
$Elements
1486
1 2 2 0 0 410 440 345
2 2 2 0 0 421 541 409
3 2 2 0 0 409 682 421
4 2 2 0 0 545 603 546
5 2 2 0 0 426 427 294
6 2 2 0 0 294 454 426
7 2 2 0 0 265 682 409
8 2 2 0 0 24 41 4
9 2 2 0 0 3 24 4
10 2 2 0 0 238 642 602
11 2 2 0 0 520 651 613
12 2 2 0 0 653 666 659
13 2 2 0 0 404 460 98
14 2 2 0 0 222 482 219
15 2 2 0 0 40 463 9
16 2 2 0 0 608 724 696
17 2 2 0 0 435 709 69
18 2 2 0 0 413 439 29
19 2 2 0 0 345 710 410
20 2 2 0 0 422 463 40
21 2 2 0 0 98 550 404
22 2 2 0 0 95 724 608
23 2 2 0 0 4 41 5
24 2 2 0 0 232 701 581
25 2 2 0 0 490 698 488
26 2 2 0 0 29 436 413
27 2 2 0 0 416 421 342
28 2 2 0 0 312 595 441
29 2 2 0 0 41 486 5
30 2 2 0 0 405 605 519
31 2 2 0 0 409 595 265
32 2 2 0 0 69 481 435
33 2 2 0 0 434 743 339
34 2 2 0 0 342 641 416
35 2 2 0 0 485 656 370
36 2 2 0 0 89 587 90
37 2 2 0 0 108 466 317
38 2 2 0 0 378 629 529
39 2 2 0 0 581 680 232
40 2 2 0 0 281 434 339
41 2 2 0 0 638 739 486
42 2 2 0 0 659 666 660
43 2 2 0 0 345 440 346
44 2 2 0 0 22 44 25
45 2 2 0 0 9 463 8
46 2 2 0 0 44 81 25
47 2 2 0 0 459 587 89
48 2 2 0 0 127 670 630
49 2 2 0 0 508 662 509
50 2 2 0 0 375 662 508
51 2 2 0 0 492 598 103
52 2 2 0 0 604 642 238
53 2 2 0 0 507 510 399
54 2 2 0 0 488 698 489
55 2 2 0 0 34 473 415
56 2 2 0 0 399 639 507
57 2 2 0 0 603 688 546
58 2 2 0 0 316 541 421
59 2 2 0 0 647 696 627
60 2 2 0 0 403 439 352
61 2 2 0 0 221 603 545
62 2 2 0 0 595 648 441
63 2 2 0 0 412 550 98
64 2 2 0 0 411 714 397
65 2 2 0 0 486 739 729
66 2 2 0 0 696 724 401
67 2 2 0 0 247 482 222
68 2 2 0 0 397 714 645
69 2 2 0 0 613 651 212
70 2 2 0 0 207 745 425
71 2 2 0 0 98 675 412
72 2 2 0 0 219 482 230
73 2 2 0 0 560 692 432
74 2 2 0 0 432 689 560
75 2 2 0 0 454 575 426
76 2 2 0 0 352 439 413
77 2 2 0 0 415 420 2
78 2 2 0 0 40 464 422
79 2 2 0 0 89 512 459
80 2 2 0 0 425 614 207
81 2 2 0 0 377 600 453
82 2 2 0 0 89 90 88
83 2 2 0 0 80 466 108
84 2 2 0 0 520 717 651
85 2 2 0 0 602 703 238
86 2 2 0 0 103 687 492
87 2 2 0 0 253 491 424
88 2 2 0 0 69 709 466
89 2 2 0 0 424 512 253
90 2 2 0 0 369 696 647
91 2 2 0 0 581 701 644
92 2 2 0 0 630 670 392
93 2 2 0 0 32 656 485
94 2 2 0 0 459 512 424
95 2 2 0 0 90 91 88
96 2 2 0 0 427 478 294
97 2 2 0 0 488 695 490
98 2 2 0 0 554 699 560
99 2 2 0 0 67 80 79
100 2 2 0 0 252 454 294
101 2 2 0 0 253 628 491
102 2 2 0 0 529 681 378
103 2 2 0 0 519 715 405
104 2 2 0 0 440 441 346
105 2 2 0 0 605 717 519
106 2 2 0 0 403 452 439
107 2 2 0 0 507 639 21
108 2 2 0 0 565 567 566
109 2 2 0 0 433 454 341
110 2 2 0 0 67 466 80
111 2 2 0 0 555 697 576
112 2 2 0 0 491 628 493
113 2 2 0 0 389 641 342
114 2 2 0 0 429 619 474
115 2 2 0 0 40 501 464
116 2 2 0 0 576 699 555
117 2 2 0 0 311 600 377
118 2 2 0 0 567 622 566
119 2 2 0 0 433 575 454
120 2 2 0 0 378 671 629
121 2 2 0 0 79 540 103
122 2 2 0 0 341 473 433
123 2 2 0 0 673 704 68
124 2 2 0 0 462 710 345
125 2 2 0 0 557 722 616
126 2 2 0 0 573 662 343
127 2 2 0 0 370 656 463
128 2 2 0 0 341 454 252
129 2 2 0 0 616 702 557
130 2 2 0 0 6 26 7
131 2 2 0 0 464 501 467
132 2 2 0 0 433 473 406
133 2 2 0 0 8 45 37
134 2 2 0 0 466 709 317
135 2 2 0 0 457 461 379
136 2 2 0 0 84 512 86
137 2 2 0 0 19 452 33
138 2 2 0 0 380 614 425
139 2 2 0 0 83 540 79
140 2 2 0 0 398 510 509
141 2 2 0 0 609 631 137
142 2 2 0 0 18 442 36
143 2 2 0 0 26 45 7
144 2 2 0 0 565 566 343
145 2 2 0 0 80 83 79
146 2 2 0 0 560 689 554
147 2 2 0 0 134 137 136
148 2 2 0 0 68 469 42
149 2 2 0 0 659 716 653
150 2 2 0 0 619 707 474
151 2 2 0 0 497 610 39
152 2 2 0 0 137 138 136
153 2 2 0 0 283 573 343
154 2 2 0 0 506 644 448
155 2 2 0 0 499 735 31
156 2 2 0 0 81 97 25
157 2 2 0 0 45 46 37
158 2 2 0 0 585 668 637
159 2 2 0 0 495 735 499
160 2 2 0 0 399 510 398
161 2 2 0 0 509 573 398
162 2 2 0 0 442 443 36
163 2 2 0 0 1 607 314
164 2 2 0 0 29 612 436
165 2 2 0 0 547 631 609
166 2 2 0 0 360 595 409
167 2 2 0 0 421 682 342
168 2 2 0 0 426 575 327
169 2 2 0 0 123 577 235
170 2 2 0 0 339 743 417
171 2 2 0 0 7 45 8
172 2 2 0 0 3 723 24
173 2 2 0 0 418 666 653
174 2 2 0 0 59 60 58
175 2 2 0 0 620 636 193
176 2 2 0 0 42 469 47
177 2 2 0 0 65 67 66
178 2 2 0 0 509 662 573
179 2 2 0 0 470 482 247
180 2 2 0 0 368 476 472
181 2 2 0 0 530 740 337
182 2 2 0 0 253 512 84
183 2 2 0 0 455 698 282
184 2 2 0 0 61 65 62
185 2 2 0 0 59 61 60
186 2 2 0 0 91 472 88
187 2 2 0 0 90 92 91
188 2 2 0 0 19 442 18
189 2 2 0 0 464 465 423
190 2 2 0 0 706 724 118
191 2 2 0 0 456 611 32
192 2 2 0 0 379 477 61
193 2 2 0 0 417 743 704
194 2 2 0 0 314 683 1
195 2 2 0 0 442 458 443
196 2 2 0 0 11 28 12
197 2 2 0 0 61 62 60
198 2 2 0 0 118 724 95
199 2 2 0 0 22 25 23
200 2 2 0 0 247 483 470
201 2 2 0 0 281 640 434
202 2 2 0 0 197 667 474
203 2 2 0 0 86 512 89
204 2 2 0 0 417 704 673
205 2 2 0 0 451 690 230
206 2 2 0 0 27 442 19
207 2 2 0 0 637 668 229
208 2 2 0 0 60 475 58
209 2 2 0 0 489 610 497
210 2 2 0 0 307 573 283
211 2 2 0 0 61 477 65
212 2 2 0 0 65 66 62
213 2 2 0 0 544 740 530
214 2 2 0 0 230 719 451
215 2 2 0 0 18 452 19
216 2 2 0 0 268 569 269
217 2 2 0 0 32 485 456
218 2 2 0 0 627 696 401
219 2 2 0 0 24 42 41
220 2 2 0 0 20 27 19
221 2 2 0 0 330 461 457
222 2 2 0 0 506 672 644
223 2 2 0 0 472 476 87
224 2 2 0 0 468 495 494
225 2 2 0 0 88 472 87
226 2 2 0 0 121 577 123
227 2 2 0 0 327 575 276
228 2 2 0 0 422 464 423
229 2 2 0 0 47 63 49
230 2 2 0 0 458 506 443
231 2 2 0 0 232 690 451
232 2 2 0 0 28 487 12
233 2 2 0 0 80 107 83
234 2 2 0 0 608 696 676
235 2 2 0 0 356 481 355
236 2 2 0 0 138 238 136
237 2 2 0 0 137 139 138
238 2 2 0 0 729 739 26
239 2 2 0 0 81 99 97
240 2 2 0 0 46 50 37
241 2 2 0 0 463 656 8
242 2 2 0 0 443 444 36
243 2 2 0 0 68 704 469
244 2 2 0 0 24 68 42
245 2 2 0 0 16 503 30
246 2 2 0 0 65 69 67
247 2 2 0 0 67 79 66
248 2 2 0 0 676 696 369
249 2 2 0 0 59 379 61
250 2 2 0 0 90 93 92
251 2 2 0 0 464 467 465
252 2 2 0 0 441 708 312
253 2 2 0 0 483 484 471
254 2 2 0 0 427 479 478
255 2 2 0 0 245 564 244
256 2 2 0 0 470 483 471
257 2 2 0 0 473 721 406
258 2 2 0 0 555 699 554
259 2 2 0 0 47 469 63
260 2 2 0 0 63 355 49
261 2 2 0 0 62 64 60
262 2 2 0 0 80 108 107
263 2 2 0 0 107 539 83
264 2 2 0 0 139 140 138
265 2 2 0 0 99 100 97
266 2 2 0 0 81 236 99
267 2 2 0 0 46 51 50
268 2 2 0 0 443 445 444
269 2 2 0 0 24 419 68
270 2 2 0 0 69 466 67
271 2 2 0 0 79 103 66
272 2 2 0 0 65 477 69
273 2 2 0 0 547 548 321
274 2 2 0 0 93 94 92
275 2 2 0 0 467 468 465
276 2 2 0 0 333 664 649
277 2 2 0 0 55 498 56
278 2 2 0 0 56 498 72
279 2 2 0 0 12 499 31
280 2 2 0 0 63 356 355
281 2 2 0 0 108 110 107
282 2 2 0 0 139 141 140
283 2 2 0 0 100 101 97
284 2 2 0 0 236 248 99
285 2 2 0 0 81 594 236
286 2 2 0 0 51 52 50
287 2 2 0 0 192 515 195
288 2 2 0 0 445 446 444
289 2 2 0 0 477 481 69
290 2 2 0 0 94 95 92
291 2 2 0 0 93 96 94
292 2 2 0 0 63 408 356
293 2 2 0 0 108 111 110
294 2 2 0 0 110 117 107
295 2 2 0 0 139 154 141
296 2 2 0 0 141 142 140
297 2 2 0 0 51 53 52
298 2 2 0 0 100 102 101
299 2 2 0 0 236 250 248
300 2 2 0 0 445 447 446
301 2 2 0 0 52 388 50
302 2 2 0 0 277 622 567
303 2 2 0 0 95 608 92
304 2 2 0 0 94 118 95
305 2 2 0 0 93 104 96
306 2 2 0 0 51 561 53
307 2 2 0 0 408 434 356
308 2 2 0 0 53 54 52
309 2 2 0 0 445 448 447
310 2 2 0 0 108 317 111
311 2 2 0 0 141 143 142
312 2 2 0 0 142 225 140
313 2 2 0 0 102 166 101
314 2 2 0 0 250 325 248
315 2 2 0 0 100 258 102
316 2 2 0 0 53 55 54
317 2 2 0 0 447 449 446
318 2 2 0 0 236 505 250
319 2 2 0 0 104 105 96
320 2 2 0 0 53 57 55
321 2 2 0 0 55 56 54
322 2 2 0 0 448 451 447
323 2 2 0 0 14 39 15
324 2 2 0 0 317 511 111
325 2 2 0 0 10 40 9
326 2 2 0 0 143 144 142
327 2 2 0 0 57 58 55
328 2 2 0 0 8 37 9
329 2 2 0 0 14 38 13
330 2 2 0 0 166 314 101
331 2 2 0 0 18 36 17
332 2 2 0 0 16 29 17
333 2 2 0 0 33 504 20
334 2 2 0 0 325 365 248
335 2 2 0 0 199 202 196
336 2 2 0 0 7 32 6
337 2 2 0 0 434 435 356
338 2 2 0 0 74 75 73
339 2 2 0 0 223 239 234
340 2 2 0 0 74 76 75
341 2 2 0 0 72 74 73
342 2 2 0 0 231 549 201
343 2 2 0 0 202 205 204
344 2 2 0 0 226 227 214
345 2 2 0 0 272 275 271
346 2 2 0 0 276 318 275
347 2 2 0 0 213 214 209
348 2 2 0 0 76 77 75
349 2 2 0 0 210 231 201
350 2 2 0 0 16 30 15
351 2 2 0 0 205 209 208
352 2 2 0 0 202 204 196
353 2 2 0 0 318 406 340
354 2 2 0 0 195 196 193
355 2 2 0 0 322 420 415
356 2 2 0 0 239 240 234
357 2 2 0 0 163 588 168
358 2 2 0 0 12 31 11
359 2 2 0 0 56 72 71
360 2 2 0 0 425 426 327
361 2 2 0 0 19 33 20
362 2 2 0 0 168 224 215
363 2 2 0 0 209 568 216
364 2 2 0 0 318 433 406
365 2 2 0 0 269 271 270
366 2 2 0 0 268 269 245
367 2 2 0 0 21 639 20
368 2 2 0 0 84 85 82
369 2 2 0 0 181 207 183
370 2 2 0 0 269 272 271
371 2 2 0 0 272 276 275
372 2 2 0 0 242 243 240
373 2 2 0 0 102 167 166
374 2 2 0 0 223 234 233
375 2 2 0 0 283 343 227
376 2 2 0 0 205 208 204
377 2 2 0 0 213 226 214
378 2 2 0 0 271 572 347
379 2 2 0 0 243 268 245
380 2 2 0 0 335 398 307
381 2 2 0 0 303 555 554
382 2 2 0 0 226 283 227
383 2 2 0 0 347 485 370
384 2 2 0 0 195 199 196
385 2 2 0 0 205 213 209
386 2 2 0 0 246 322 252
387 2 2 0 0 76 78 77
388 2 2 0 0 133 163 135
389 2 2 0 0 163 168 164
390 2 2 0 0 322 415 341
391 2 2 0 0 227 361 214
392 2 2 0 0 191 198 189
393 2 2 0 0 78 84 82
394 2 2 0 0 209 216 208
395 2 2 0 0 78 82 77
396 2 2 0 0 216 303 266
397 2 2 0 0 417 418 362
398 2 2 0 0 314 607 101
399 2 2 0 0 339 362 280
400 2 2 0 0 243 245 244
401 2 2 0 0 187 291 185
402 2 2 0 0 429 430 359
403 2 2 0 0 143 145 144
404 2 2 0 0 202 553 205
405 2 2 0 0 339 417 362
406 2 2 0 0 131 580 133
407 2 2 0 0 239 242 240
408 2 2 0 0 57 59 58
409 2 2 0 0 224 246 215
410 2 2 0 0 84 86 85
411 2 2 0 0 303 554 266
412 2 2 0 0 72 73 71
413 2 2 0 0 437 438 414
414 2 2 0 0 318 340 275
415 2 2 0 0 269 270 245
416 2 2 0 0 86 87 85
417 2 2 0 0 192 193 191
418 2 2 0 0 123 235 129
419 2 2 0 0 263 374 262
420 2 2 0 0 425 427 426
421 2 2 0 0 149 150 147
422 2 2 0 0 210 232 231
423 2 2 0 0 74 373 76
424 2 2 0 0 168 215 169
425 2 2 0 0 259 262 249
426 2 2 0 0 145 146 144
427 2 2 0 0 367 524 289
428 2 2 0 0 271 347 270
429 2 2 0 0 406 407 340
430 2 2 0 0 334 459 424
431 2 2 0 0 429 474 430
432 2 2 0 0 250 328 325
433 2 2 0 0 431 432 367
434 2 2 0 0 104 278 105
435 2 2 0 0 145 147 146
436 2 2 0 0 151 152 150
437 2 2 0 0 235 583 129
438 2 2 0 0 237 249 228
439 2 2 0 0 149 151 150
440 2 2 0 0 159 161 158
441 2 2 0 0 153 155 152
442 2 2 0 0 156 158 155
443 2 2 0 0 354 367 289
444 2 2 0 0 259 263 262
445 2 2 0 0 190 191 189
446 2 2 0 0 177 221 174
447 2 2 0 0 162 228 161
448 2 2 0 0 124 516 386
449 2 2 0 0 418 653 578
450 2 2 0 0 371 584 295
451 2 2 0 0 151 153 152
452 2 2 0 0 153 156 155
453 2 2 0 0 159 162 161
454 2 2 0 0 374 593 262
455 2 2 0 0 156 159 158
456 2 2 0 0 237 259 249
457 2 2 0 0 146 284 160
458 2 2 0 0 266 309 267
459 2 2 0 0 264 265 257
460 2 2 0 0 86 88 87
461 2 2 0 0 265 312 257
462 2 2 0 0 162 237 228
463 2 2 0 0 21 44 22
464 2 2 0 0 324 392 390
465 2 2 0 0 371 585 584
466 2 2 0 0 262 366 249
467 2 2 0 0 192 195 193
468 2 2 0 0 263 375 374
469 2 2 0 0 216 266 217
470 2 2 0 0 326 327 276
471 2 2 0 0 260 646 166
472 2 2 0 0 220 223 222
473 2 2 0 0 322 341 252
474 2 2 0 0 256 257 255
475 2 2 0 0 78 253 84
476 2 2 0 0 358 359 242
477 2 2 0 0 188 189 187
478 2 2 0 0 281 339 280
479 2 2 0 0 146 160 144
480 2 2 0 0 123 129 128
481 2 2 0 0 255 324 254
482 2 2 0 0 228 229 161
483 2 2 0 0 354 431 367
484 2 2 0 0 163 164 135
485 2 2 0 0 155 157 152
486 2 2 0 0 243 244 240
487 2 2 0 0 256 264 257
488 2 2 0 0 284 316 160
489 2 2 0 0 380 425 327
490 2 2 0 0 148 149 147
491 2 2 0 0 335 399 398
492 2 2 0 0 418 578 362
493 2 2 0 0 334 424 396
494 2 2 0 0 167 260 166
495 2 2 0 0 325 368 365
496 2 2 0 0 428 429 359
497 2 2 0 0 165 255 254
498 2 2 0 0 297 342 264
499 2 2 0 0 298 371 295
500 2 2 0 0 218 323 220
501 2 2 0 0 310 337 302
502 2 2 0 0 165 256 255
503 2 2 0 0 186 187 185
504 2 2 0 0 56 71 70
505 2 2 0 0 165 254 125
506 2 2 0 0 200 201 199
507 2 2 0 0 148 206 149
508 2 2 0 0 324 390 364
509 2 2 0 0 190 192 191
510 2 2 0 0 368 369 365
511 2 2 0 0 353 404 351
512 2 2 0 0 104 331 278
513 2 2 0 0 256 297 264
514 2 2 0 0 316 421 416
515 2 2 0 0 239 358 242
516 2 2 0 0 169 586 171
517 2 2 0 0 286 287 206
518 2 2 0 0 324 364 254
519 2 2 0 0 241 576 162
520 2 2 0 0 168 169 164
521 2 2 0 0 121 123 122
522 2 2 0 0 266 267 217
523 2 2 0 0 129 131 130
524 2 2 0 0 216 217 208
525 2 2 0 0 285 382 313
526 2 2 0 0 172 321 170
527 2 2 0 0 390 391 364
528 2 2 0 0 296 563 300
529 2 2 0 0 246 252 251
530 2 2 0 0 285 286 206
531 2 2 0 0 288 289 287
532 2 2 0 0 298 372 371
533 2 2 0 0 23 35 22
534 2 2 0 0 300 344 304
535 2 2 0 0 344 462 345
536 2 2 0 0 123 128 122
537 2 2 0 0 297 389 342
538 2 2 0 0 237 277 259
539 2 2 0 0 148 285 206
540 2 2 0 0 86 89 88
541 2 2 0 0 306 307 283
542 2 2 0 0 234 279 233
543 2 2 0 0 316 416 160
544 2 2 0 0 188 190 189
545 2 2 0 0 85 98 82
546 2 2 0 0 358 428 359
547 2 2 0 0 437 455 438
548 2 2 0 0 203 210 201
549 2 2 0 0 382 383 313
550 2 2 0 0 153 176 156
551 2 2 0 0 290 354 289
552 2 2 0 0 159 241 162
553 2 2 0 0 386 387 126
554 2 2 0 0 273 363 338
555 2 2 0 0 272 326 276
556 2 2 0 0 171 293 173
557 2 2 0 0 145 148 147
558 2 2 0 0 274 295 261
559 2 2 0 0 285 313 286
560 2 2 0 0 383 384 313
561 2 2 0 0 301 302 299
562 2 2 0 0 131 133 132
563 2 2 0 0 296 298 295
564 2 2 0 0 305 310 302
565 2 2 0 0 349 412 328
566 2 2 0 0 344 345 304
567 2 2 0 0 77 119 75
568 2 2 0 0 315 378 310
569 2 2 0 0 363 401 400
570 2 2 0 0 332 333 278
571 2 2 0 0 223 233 222
572 2 2 0 0 331 334 332
573 2 2 0 0 186 188 187
574 2 2 0 0 178 212 177
575 2 2 0 0 305 360 315
576 2 2 0 0 334 396 395
577 2 2 0 0 246 251 215
578 2 2 0 0 167 261 260
579 2 2 0 0 175 179 178
580 2 2 0 0 345 346 304
581 2 2 0 0 124 386 126
582 2 2 0 0 286 288 287
583 2 2 0 0 331 332 278
584 2 2 0 0 179 181 180
585 2 2 0 0 301 305 302
586 2 2 0 0 300 304 301
587 2 2 0 0 296 300 299
588 2 2 0 0 305 315 310
589 2 2 0 0 296 299 298
590 2 2 0 0 320 453 290
591 2 2 0 0 274 296 295
592 2 2 0 0 313 531 286
593 2 2 0 0 120 281 280
594 2 2 0 0 360 409 315
595 2 2 0 0 363 400 338
596 2 2 0 0 129 130 128
597 2 2 0 0 300 301 299
598 2 2 0 0 1 508 23
599 2 2 0 0 167 273 261
600 2 2 0 0 133 135 134
601 2 2 0 0 173 174 172
602 2 2 0 0 311 377 376
603 2 2 0 0 273 274 261
604 2 2 0 0 273 338 274
605 2 2 0 0 334 395 332
606 2 2 0 0 183 197 184
607 2 2 0 0 319 393 320
608 2 2 0 0 449 450 446
609 2 2 0 0 288 290 289
610 2 2 0 0 226 306 283
611 2 2 0 0 326 380 327
612 2 2 0 0 175 177 174
613 2 2 0 0 181 183 182
614 2 2 0 0 219 230 211
615 2 2 0 0 308 335 307
616 2 2 0 0 267 311 292
617 2 2 0 0 169 170 164
618 2 2 0 0 288 319 290
619 2 2 0 0 126 165 125
620 2 2 0 0 120 280 121
621 2 2 0 0 130 357 128
622 2 2 0 0 195 200 199
623 2 2 0 0 169 171 170
624 2 2 0 0 171 172 170
625 2 2 0 0 184 186 185
626 2 2 0 0 73 282 71
627 2 2 0 0 252 294 251
628 2 2 0 0 319 320 290
629 2 2 0 0 131 132 130
630 2 2 0 0 393 394 320
631 2 2 0 0 171 173 172
632 2 2 0 0 4 34 3
633 2 2 0 0 218 220 219
634 2 2 0 0 267 292 217
635 2 2 0 0 184 185 182
636 2 2 0 0 188 194 190
637 2 2 0 0 56 70 54
638 2 2 0 0 377 405 376
639 2 2 0 0 449 470 450
640 2 2 0 0 179 180 178
641 2 2 0 0 173 175 174
642 2 2 0 0 175 178 177
643 2 2 0 0 250 329 328
644 2 2 0 0 311 376 292
645 2 2 0 0 329 571 350
646 2 2 0 0 347 370 348
647 2 2 0 0 220 222 219
648 2 2 0 0 376 385 292
649 2 2 0 0 133 134 132
650 2 2 0 0 134 136 132
651 2 2 0 0 306 308 307
652 2 2 0 0 200 203 201
653 2 2 0 0 233 247 222
654 2 2 0 0 98 460 82
655 2 2 0 0 329 349 328
656 2 2 0 0 326 381 380
657 2 2 0 0 347 348 270
658 2 2 0 0 181 182 180
659 2 2 0 0 121 122 115
660 2 2 0 0 350 351 349
661 2 2 0 0 308 336 335
662 2 2 0 0 350 403 352
663 2 2 0 0 470 471 450
664 2 2 0 0 203 211 210
665 2 2 0 0 218 219 211
666 2 2 0 0 183 184 182
667 2 2 0 0 370 463 422
668 2 2 0 0 306 402 308
669 2 2 0 0 203 218 211
670 2 2 0 0 71 490 70
671 2 2 0 0 329 350 349
672 2 2 0 0 436 437 414
673 2 2 0 0 124 126 125
674 2 2 0 0 413 414 353
675 2 2 0 0 422 423 348
676 2 2 0 0 352 353 351
677 2 2 0 0 370 422 348
678 2 2 0 0 350 352 351
679 2 2 0 0 413 436 414
680 2 2 0 0 352 413 353
681 2 2 0 0 120 121 115
682 2 2 0 0 110 480 117
683 2 2 0 0 124 125 116
684 2 2 0 0 126 521 165
685 2 2 0 0 113 120 115
686 2 2 0 0 127 440 410
687 2 2 0 0 114 124 116
688 2 2 0 0 543 544 530
689 2 2 0 0 488 489 487
690 2 2 0 0 585 637 366
691 2 2 0 0 543 570 544
692 2 2 0 0 113 115 114
693 2 2 0 0 127 410 106
694 2 2 0 0 114 116 112
695 2 2 0 0 195 515 200
696 2 2 0 0 491 493 492
697 2 2 0 0 12 487 13
698 2 2 0 0 546 547 321
699 2 2 0 0 330 457 411
700 2 2 0 0 157 543 530
701 2 2 0 0 519 520 291
702 2 2 0 0 28 488 487
703 2 2 0 0 111 112 110
704 2 2 0 0 312 534 257
705 2 2 0 0 476 732 412
706 2 2 0 0 27 458 442
707 2 2 0 0 385 636 620
708 2 2 0 0 176 559 156
709 2 2 0 0 593 634 366
710 2 2 0 0 589 590 224
711 2 2 0 0 113 114 112
712 2 2 0 0 109 127 106
713 2 2 0 0 270 564 245
714 2 2 0 0 443 506 445
715 2 2 0 0 491 492 396
716 2 2 0 0 388 624 502
717 2 2 0 0 445 506 448
718 2 2 0 0 30 500 15
719 2 2 0 0 20 504 21
720 2 2 0 0 64 475 60
721 2 2 0 0 287 542 206
722 2 2 0 0 23 508 35
723 2 2 0 0 302 558 299
724 2 2 0 0 70 551 54
725 2 2 0 0 62 598 64
726 2 2 0 0 424 491 396
727 2 2 0 0 407 456 340
728 2 2 0 0 545 546 321
729 2 2 0 0 330 411 397
730 2 2 0 0 72 536 74
731 2 2 0 0 238 574 136
732 2 2 0 0 659 660 420
733 2 2 0 0 395 538 332
734 2 2 0 0 143 527 145
735 2 2 0 0 412 675 476
736 2 2 0 0 239 513 358
737 2 2 0 0 157 530 529
738 2 2 0 0 518 519 291
739 2 2 0 0 449 482 470
740 2 2 0 0 207 713 479
741 2 2 0 0 119 523 75
742 2 2 0 0 109 670 127
743 2 2 0 0 10 501 40
744 2 2 0 0 508 509 35
745 2 2 0 0 96 606 94
746 2 2 0 0 331 459 334
747 2 2 0 0 286 531 288
748 2 2 0 0 290 453 354
749 2 2 0 0 282 490 71
750 2 2 0 0 384 531 313
751 2 2 0 0 289 524 287
752 2 2 0 0 349 550 412
753 2 2 0 0 165 521 256
754 2 2 0 0 82 460 77
755 2 2 0 0 155 543 157
756 2 2 0 0 201 549 199
757 2 2 0 0 273 591 363
758 2 2 0 0 387 521 126
759 2 2 0 0 114 516 124
760 2 2 0 0 53 561 57
761 2 2 0 0 266 554 309
762 2 2 0 0 257 534 255
763 2 2 0 0 205 553 213
764 2 2 0 0 142 522 225
765 2 2 0 0 435 481 356
766 2 2 0 0 216 568 303
767 2 2 0 0 300 563 344
768 2 2 0 0 214 568 209
769 2 2 0 0 112 480 110
770 2 2 0 0 350 571 403
771 2 2 0 0 347 572 485
772 2 2 0 0 275 572 271
773 2 2 0 0 274 563 296
774 2 2 0 0 171 586 293
775 2 2 0 0 162 576 237
776 2 2 0 0 133 580 163
777 2 2 0 0 11 501 10
778 2 2 0 0 295 584 261
779 2 2 0 0 129 583 131
780 2 2 0 0 215 586 169
781 2 2 0 0 250 505 329
782 2 2 0 0 168 588 224
783 2 2 0 0 321 548 170
784 2 2 0 0 262 593 366
785 2 2 0 0 166 646 314
786 2 2 0 0 520 535 291
787 2 2 0 0 373 663 493
788 2 2 0 0 291 535 185
789 2 2 0 0 101 607 97
790 2 2 0 0 130 574 357
791 2 2 0 0 158 570 543
792 2 2 0 0 31 501 11
793 2 2 0 0 444 552 503
794 2 2 0 0 156 559 159
795 2 2 0 0 236 594 505
796 2 2 0 0 206 542 149
797 2 2 0 0 54 551 52
798 2 2 0 0 74 536 373
799 2 2 0 0 337 558 302
800 2 2 0 0 150 532 147
801 2 2 0 0 379 728 457
802 2 2 0 0 299 558 298
803 2 2 0 0 332 538 333
804 2 2 0 0 145 527 148
805 2 2 0 0 514 515 192
806 2 2 0 0 15 500 14
807 2 2 0 0 75 523 73
808 2 2 0 0 467 501 31
809 2 2 0 0 254 592 125
810 2 2 0 0 172 545 321
811 2 2 0 0 144 522 142
812 2 2 0 0 528 532 150
813 2 2 0 0 187 518 291
814 2 2 0 0 553 599 213
815 2 2 0 0 383 603 384
816 2 2 0 0 282 698 490
817 2 2 0 0 244 517 240
818 2 2 0 0 353 525 404
819 2 2 0 0 395 540 538
820 2 2 0 0 94 606 118
821 2 2 0 0 117 539 107
822 2 2 0 0 185 535 182
823 2 2 0 0 388 502 50
824 2 2 0 0 167 591 273
825 2 2 0 0 147 532 146
826 2 2 0 0 92 608 91
827 2 2 0 0 472 676 368
828 2 2 0 0 364 592 254
829 2 2 0 0 21 504 44
830 2 2 0 0 365 597 248
831 2 2 0 0 125 592 116
832 2 2 0 0 588 589 224
833 2 2 0 0 111 113 112
834 2 2 0 0 63 469 408
835 2 2 0 0 105 109 106
836 2 2 0 0 242 526 243
837 2 2 0 0 439 712 29
838 2 2 0 0 240 517 234
839 2 2 0 0 346 533 304
840 2 2 0 0 14 500 38
841 2 2 0 0 494 495 484
842 2 2 0 0 127 630 440
843 2 2 0 0 208 537 204
844 2 2 0 0 175 562 179
845 2 2 0 0 303 626 555
846 2 2 0 0 359 526 242
847 2 2 0 0 243 526 268
848 2 2 0 0 217 537 208
849 2 2 0 0 58 498 55
850 2 2 0 0 503 552 30
851 2 2 0 0 13 499 12
852 2 2 0 0 268 621 569
853 2 2 0 0 489 497 487
854 2 2 0 0 475 498 58
855 2 2 0 0 430 526 359
856 2 2 0 0 248 597 99
857 2 2 0 0 292 537 217
858 2 2 0 0 26 645 45
859 2 2 0 0 234 517 279
860 2 2 0 0 14 497 39
861 2 2 0 0 385 537 292
862 2 2 0 0 305 533 360
863 2 2 0 0 304 533 301
864 2 2 0 0 146 532 284
865 2 2 0 0 483 494 484
866 2 2 0 0 173 562 175
867 2 2 0 0 116 480 112
868 2 2 0 0 224 590 246
869 2 2 0 0 189 518 187
870 2 2 0 0 498 536 72
871 2 2 0 0 414 525 353
872 2 2 0 0 160 522 144
873 2 2 0 0 547 609 548
874 2 2 0 0 182 535 180
875 2 2 0 0 297 601 389
876 2 2 0 0 44 594 81
877 2 2 0 0 301 533 305
878 2 2 0 0 105 106 96
879 2 2 0 0 515 596 200
880 2 2 0 0 293 562 173
881 2 2 0 0 73 523 282
882 2 2 0 0 148 527 285
883 2 2 0 0 174 545 172
884 2 2 0 0 218 596 323
885 2 2 0 0 200 596 203
886 2 2 0 0 149 542 151
887 2 2 0 0 446 552 444
888 2 2 0 0 49 461 330
889 2 2 0 0 330 397 48
890 2 2 0 0 453 738 377
891 2 2 0 0 255 534 324
892 2 2 0 0 52 551 388
893 2 2 0 0 634 646 260
894 2 2 0 0 513 615 358
895 2 2 0 0 438 525 414
896 2 2 0 0 516 618 386
897 2 2 0 0 198 518 189
898 2 2 0 0 227 566 361
899 2 2 0 0 559 560 241
900 2 2 0 0 90 587 93
901 2 2 0 0 416 522 160
902 2 2 0 0 102 591 167
903 2 2 0 0 134 609 137
904 2 2 0 0 298 558 372
905 2 2 0 0 132 574 130
906 2 2 0 0 106 606 96
907 2 2 0 0 159 559 241
908 2 2 0 0 32 611 6
909 2 2 0 0 158 543 155
910 2 2 0 0 223 513 239
911 2 2 0 0 288 531 319
912 2 2 0 0 323 513 220
913 2 2 0 0 115 516 114
914 2 2 0 0 521 601 297
915 2 2 0 0 610 698 455
916 2 2 0 0 354 600 431
917 2 2 0 0 351 550 349
918 2 2 0 0 256 521 297
919 2 2 0 0 140 604 138
920 2 2 0 0 77 460 119
921 2 2 0 0 17 503 16
922 2 2 0 0 9 502 10
923 2 2 0 0 104 587 331
924 2 2 0 0 152 528 150
925 2 2 0 0 315 541 378
926 2 2 0 0 170 548 164
927 2 2 0 0 590 659 420
928 2 2 0 0 11 624 28
929 2 2 0 0 199 549 202
930 2 2 0 0 502 624 10
931 2 2 0 0 453 600 354
932 2 2 0 0 42 43 41
933 2 2 0 0 38 499 13
934 2 2 0 0 285 527 382
935 2 2 0 0 190 514 192
936 2 2 0 0 157 529 528
937 2 2 0 0 231 643 549
938 2 2 0 0 331 587 459
939 2 2 0 0 451 701 232
940 2 2 0 0 99 597 100
941 2 2 0 0 361 568 214
942 2 2 0 0 372 740 544
943 2 2 0 0 221 545 174
944 2 2 0 0 138 604 238
945 2 2 0 0 340 572 275
946 2 2 0 0 338 563 274
947 2 2 0 0 524 542 287
948 2 2 0 0 265 595 312
949 2 2 0 0 111 511 113
950 2 2 0 0 580 658 588
951 2 2 0 0 580 588 163
952 2 2 0 0 237 576 277
953 2 2 0 0 444 503 36
954 2 2 0 0 131 583 580
955 2 2 0 0 505 571 329
956 2 2 0 0 203 596 218
957 2 2 0 0 584 634 260
958 2 2 0 0 261 584 260
959 2 2 0 0 369 647 365
960 2 2 0 0 251 586 215
961 2 2 0 0 348 564 270
962 2 2 0 0 450 552 446
963 2 2 0 0 390 496 391
964 2 2 0 0 66 598 62
965 2 2 0 0 465 623 423
966 2 2 0 0 258 591 102
967 2 2 0 0 343 566 227
968 2 2 0 0 564 623 244
969 2 2 0 0 154 617 141
970 2 2 0 0 324 534 392
971 2 2 0 0 50 502 37
972 2 2 0 0 524 556 542
973 2 2 0 0 544 700 372
974 2 2 0 0 122 516 115
975 2 2 0 0 177 557 221
976 2 2 0 0 489 698 610
977 2 2 0 0 93 587 104
978 2 2 0 0 136 574 132
979 2 2 0 0 593 646 634
980 2 2 0 0 116 592 480
981 2 2 0 0 143 617 527
982 2 2 0 0 225 604 140
983 2 2 0 0 137 631 139
984 2 2 0 0 549 553 202
985 2 2 0 0 164 548 135
986 2 2 0 0 404 550 351
987 2 2 0 0 34 721 473
988 2 2 0 0 220 513 223
989 2 2 0 0 317 640 511
990 2 2 0 0 100 597 258
991 2 2 0 0 588 658 589
992 2 2 0 0 323 615 513
993 2 2 0 0 568 626 303
994 2 2 0 0 377 605 405
995 2 2 0 0 178 613 212
996 2 2 0 0 493 628 373
997 2 2 0 0 157 528 152
998 2 2 0 0 591 627 363
999 2 2 0 0 409 541 315
1000 2 2 0 0 183 614 197
1001 2 2 0 0 103 598 66
1002 2 2 0 0 188 619 194
1003 2 2 0 0 213 599 226
1004 2 2 0 0 306 599 402
1005 2 2 0 0 97 607 25
1006 2 2 0 0 194 514 190
1007 2 2 0 0 373 628 76
1008 2 2 0 0 78 628 253
1009 2 2 0 0 42 47 43
1010 2 2 0 0 39 612 15
1011 2 2 0 0 16 612 29
1012 2 2 0 0 437 610 455
1013 2 2 0 0 487 497 13
1014 2 2 0 0 440 630 441
1015 2 2 0 0 479 713 562
1016 2 2 0 0 196 620 193
1017 2 2 0 0 456 572 340
1018 2 2 0 0 120 511 281
1019 2 2 0 0 577 578 235
1020 2 2 0 0 335 582 399
1021 2 2 0 0 314 741 683
1022 2 2 0 0 520 613 535
1023 2 2 0 0 585 634 584
1024 2 2 0 0 423 564 348
1025 2 2 0 0 457 561 411
1026 2 2 0 0 6 611 5
1027 2 2 0 0 385 620 537
1028 2 2 0 0 228 637 229
1029 2 2 0 0 366 637 249
1030 2 2 0 0 161 570 158
1031 2 2 0 0 434 640 435
1032 2 2 0 0 193 636 191
1033 2 2 0 0 410 606 106
1034 2 2 0 0 37 502 9
1035 2 2 0 0 36 503 17
1036 2 2 0 0 141 617 143
1037 2 2 0 0 363 627 401
1038 2 2 0 0 322 590 420
1039 2 2 0 0 357 618 128
1040 2 2 0 0 430 621 526
1041 2 2 0 0 540 687 103
1042 2 2 0 0 280 577 121
1043 2 2 0 0 276 575 318
1044 2 2 0 0 362 578 577
1045 2 2 0 0 109 649 496
1046 2 2 0 0 246 590 322
1047 2 2 0 0 326 569 381
1048 2 2 0 0 569 621 381
1049 2 2 0 0 269 569 272
1050 2 2 0 0 139 631 154
1051 2 2 0 0 649 664 496
1052 2 2 0 0 537 620 204
1053 2 2 0 0 355 461 49
1054 2 2 0 0 663 685 493
1055 2 2 0 0 479 745 207
1056 2 2 0 0 343 662 565
1057 2 2 0 0 212 557 177
1058 2 2 0 0 45 645 46
1059 2 2 0 0 496 670 109
1060 2 2 0 0 366 634 585
1061 2 2 0 0 384 616 531
1062 2 2 0 0 535 613 180
1063 2 2 0 0 391 632 364
1064 2 2 0 0 308 581 336
1065 2 2 0 0 344 625 462
1066 2 2 0 0 563 625 344
1067 2 2 0 0 13 497 14
1068 2 2 0 0 480 632 117
1069 2 2 0 0 371 668 585
1070 2 2 0 0 333 649 278
1071 2 2 0 0 387 601 521
1072 2 2 0 0 47 49 48
1073 2 2 0 0 358 615 428
1074 2 2 0 0 113 511 120
1075 2 2 0 0 527 617 382
1076 2 2 0 0 105 649 109
1077 2 2 0 0 398 573 307
1078 2 2 0 0 368 676 369
1079 2 2 0 0 180 613 178
1080 2 2 0 0 153 556 176
1081 2 2 0 0 432 657 367
1082 2 2 0 0 458 718 582
1083 2 2 0 0 207 614 183
1084 2 2 0 0 407 611 456
1085 2 2 0 0 244 623 517
1086 2 2 0 0 20 639 27
1087 2 2 0 0 476 675 87
1088 2 2 0 0 319 616 393
1089 2 2 0 0 474 707 197
1090 2 2 0 0 226 599 306
1091 2 2 0 0 47 48 43
1092 2 2 0 0 186 619 188
1093 2 2 0 0 412 732 328
1094 2 2 0 0 316 671 541
1095 2 2 0 0 293 734 478
1096 2 2 0 0 492 685 598
1097 2 2 0 0 528 629 532
1098 2 2 0 0 514 635 515
1099 2 2 0 0 531 616 319
1100 2 2 0 0 8 656 7
1101 2 2 0 0 387 602 601
1102 2 2 0 0 76 628 78
1103 2 2 0 0 122 618 516
1104 2 2 0 0 651 717 394
1105 2 2 0 0 423 623 564
1106 2 2 0 0 546 669 547
1107 2 2 0 0 4 679 34
1108 2 2 0 0 542 556 151
1109 2 2 0 0 548 609 135
1110 2 2 0 0 204 620 196
1111 2 2 0 0 529 629 528
1112 2 2 0 0 482 719 230
1113 2 2 0 0 258 627 591
1114 2 2 0 0 336 582 335
1115 2 2 0 0 197 686 667
1116 2 2 0 0 583 658 580
1117 2 2 0 0 85 675 98
1118 2 2 0 0 59 728 379
1119 2 2 0 0 400 625 338
1120 2 2 0 0 394 717 605
1121 2 2 0 0 471 650 450
1122 2 2 0 0 596 635 323
1123 2 2 0 0 249 637 228
1124 2 2 0 0 515 635 596
1125 2 2 0 0 338 625 563
1126 2 2 0 0 28 633 488
1127 2 2 0 0 566 622 361
1128 2 2 0 0 229 570 161
1129 2 2 0 0 468 654 465
1130 2 2 0 0 118 710 462
1131 2 2 0 0 15 612 16
1132 2 2 0 0 589 659 590
1133 2 2 0 0 526 621 268
1134 2 2 0 0 365 647 597
1135 2 2 0 0 579 583 235
1136 2 2 0 0 22 507 21
1137 2 2 0 0 342 682 264
1138 2 2 0 0 441 648 346
1139 2 2 0 0 191 636 198
1140 2 2 0 0 578 653 579
1141 2 2 0 0 135 609 134
1142 2 2 0 0 128 618 122
1143 2 2 0 0 378 681 310
1144 2 2 0 0 230 690 211
1145 2 2 0 0 210 690 232
1146 2 2 0 0 549 643 553
1147 2 2 0 0 233 661 247
1148 2 2 0 0 10 624 11
1149 2 2 0 0 640 709 435
1150 2 2 0 0 449 719 482
1151 2 2 0 0 452 726 33
1152 2 2 0 0 362 577 280
1153 2 2 0 0 318 575 433
1154 2 2 0 0 492 687 396
1155 2 2 0 0 586 734 293
1156 2 2 0 0 357 655 618
1157 2 2 0 0 277 567 259
1158 2 2 0 0 522 641 225
1159 2 2 0 0 511 640 281
1160 2 2 0 0 247 661 483
1161 2 2 0 0 610 693 39
1162 2 2 0 0 272 569 326
1163 2 2 0 0 490 695 70
1164 2 2 0 0 553 643 599
1165 2 2 0 0 532 629 284
1166 2 2 0 0 29 712 17
1167 2 2 0 0 632 665 117
1168 2 2 0 0 618 655 386
1169 2 2 0 0 241 699 576
1170 2 2 0 0 457 728 561
1171 2 2 0 0 485 572 456
1172 2 2 0 0 430 667 621
1173 2 2 0 0 582 672 458
1174 2 2 0 0 395 687 540
1175 2 2 0 0 504 594 44
1176 2 2 0 0 181 713 207
1177 2 2 0 0 197 707 184
1178 2 2 0 0 524 657 556
1179 2 2 0 0 475 536 498
1180 2 2 0 0 394 738 320
1181 2 2 0 0 51 714 561
1182 2 2 0 0 151 556 153
1183 2 2 0 0 437 693 610
1184 2 2 0 0 361 626 568
1185 2 2 0 0 611 679 5
1186 2 2 0 0 231 680 643
1187 2 2 0 0 462 706 118
1188 2 2 0 0 390 670 496
1189 2 2 0 0 602 642 601
1190 2 2 0 0 49 330 48
1191 2 2 0 0 391 665 632
1192 2 2 0 0 508 737 375
1193 2 2 0 0 450 650 552
1194 2 2 0 0 368 732 476
1195 2 2 0 0 578 579 235
1196 2 2 0 0 402 581 308
1197 2 2 0 0 43 486 41
1198 2 2 0 0 562 713 179
1199 2 2 0 0 592 632 480
1200 2 2 0 0 416 641 522
1201 2 2 0 0 372 668 371
1202 2 2 0 0 452 712 439
1203 2 2 0 0 282 720 455
1204 2 2 0 0 556 657 176
1205 2 2 0 0 364 632 592
1206 2 2 0 0 403 726 452
1207 2 2 0 0 465 654 623
1208 2 2 0 0 278 649 105
1209 2 2 0 0 154 652 617
1210 2 2 0 0 383 688 603
1211 2 2 0 0 451 719 447
1212 2 2 0 0 317 709 640
1213 2 2 0 0 604 711 642
1214 2 2 0 0 382 652 383
1215 2 2 0 0 601 642 389
1216 2 2 0 0 284 671 316
1217 2 2 0 0 599 643 402
1218 2 2 0 0 388 633 624
1219 2 2 0 0 267 678 311
1220 2 2 0 0 337 681 530
1221 2 2 0 0 279 661 233
1222 2 2 0 0 605 738 394
1223 2 2 0 0 33 677 504
1224 2 2 0 0 386 655 387
1225 2 2 0 0 547 669 631
1226 2 2 0 0 562 731 479
1227 2 2 0 0 360 648 595
1228 2 2 0 0 432 692 657
1229 2 2 0 0 367 657 524
1230 2 2 0 0 633 695 488
1231 2 2 0 0 415 473 341
1232 2 2 0 0 644 672 336
1233 2 2 0 0 551 633 388
1234 2 2 0 0 533 648 360
1235 2 2 0 0 407 679 611
1236 2 2 0 0 323 635 615
1237 2 2 0 0 530 681 529
1238 2 2 0 0 393 651 394
1239 2 2 0 0 387 655 602
1240 2 2 0 0 238 703 574
1241 2 2 0 0 594 677 505
1242 2 2 0 0 559 692 560
1243 2 2 0 0 621 667 381
1244 2 2 0 0 405 674 376
1245 2 2 0 0 325 732 368
1246 2 2 0 0 623 654 517
1247 2 2 0 0 581 644 336
1248 2 2 0 0 346 648 533
1249 2 2 0 0 517 654 279
1250 2 2 0 0 477 705 481
1251 2 2 0 0 481 705 355
1252 2 2 0 0 561 728 57
1253 2 2 0 0 379 705 477
1254 2 2 0 0 617 652 382
1255 2 2 0 0 30 650 500
1256 2 2 0 0 376 674 385
1257 2 2 0 0 518 715 519
1258 2 2 0 0 474 667 430
1259 2 2 0 0 478 734 294
1260 2 2 0 0 624 633 28
1261 2 2 0 0 186 707 619
1262 2 2 0 0 64 663 475
1263 2 2 0 0 597 647 258
1264 2 2 0 0 377 738 605
1265 2 2 0 0 31 735 467
1266 2 2 0 0 27 718 458
1267 2 2 0 0 419 673 68
1268 2 2 0 0 616 722 393
1269 2 2 0 0 24 723 419
1270 2 2 0 0 397 638 48
1271 2 2 0 0 404 730 460
1272 2 2 0 0 91 676 472
1273 2 2 0 0 622 626 361
1274 2 2 0 0 7 656 32
1275 2 2 0 0 576 697 277
1276 2 2 0 0 471 691 650
1277 2 2 0 0 536 663 373
1278 2 2 0 0 484 691 471
1279 2 2 0 0 552 650 30
1280 2 2 0 0 311 678 600
1281 2 2 0 0 486 729 5
1282 2 2 0 0 418 673 666
1283 2 2 0 0 232 680 231
1284 2 2 0 0 5 679 4
1285 2 2 0 0 117 665 539
1286 2 2 0 0 384 702 616
1287 2 2 0 0 557 702 221
1288 2 2 0 0 87 675 85
1289 2 2 0 0 225 711 604
1290 2 2 0 0 505 677 571
1291 2 2 0 0 483 661 494
1292 2 2 0 0 263 565 375
1293 2 2 0 0 504 677 594
1294 2 2 0 0 582 718 399
1295 2 2 0 0 645 714 46
1296 2 2 0 0 534 708 392
1297 2 2 0 0 643 680 402
1298 2 2 0 0 18 712 452
1299 2 2 0 0 392 670 390
1300 2 2 0 0 221 702 603
1301 2 2 0 0 496 664 391
1302 2 2 0 0 606 710 118
1303 2 2 0 0 655 703 602
1304 2 2 0 0 608 676 91
1305 2 2 0 0 194 684 514
1306 2 2 0 0 541 671 378
1307 2 2 0 0 154 669 652
1308 2 2 0 0 399 718 639
1309 2 2 0 0 405 715 674
1310 2 2 0 0 33 726 677
1311 2 2 0 0 629 671 284
1312 2 2 0 0 468 735 495
1313 2 2 0 0 469 704 408
1314 2 2 0 0 427 745 479
1315 2 2 0 0 294 734 251
1316 2 2 0 0 461 705 379
1317 2 2 0 0 385 674 636
1318 2 2 0 0 657 692 176
1319 2 2 0 0 561 714 411
1320 2 2 0 0 631 669 154
1321 2 2 0 0 264 682 265
1322 2 2 0 0 43 638 486
1323 2 2 0 0 48 638 43
1324 2 2 0 0 194 744 684
1325 2 2 0 0 381 686 380
1326 2 2 0 0 658 716 589
1327 2 2 0 0 263 567 565
1328 2 2 0 0 310 681 337
1329 2 2 0 0 493 685 492
1330 2 2 0 0 64 685 663
1331 2 2 0 0 309 678 267
1332 2 2 0 0 600 678 431
1333 2 2 0 0 538 694 333
1334 2 2 0 0 598 685 64
1335 2 2 0 0 551 695 633
1336 2 2 0 0 560 699 241
1337 2 2 0 0 211 690 210
1338 2 2 0 0 2 723 3
1339 2 2 0 0 630 708 441
1340 2 2 0 0 467 735 468
1341 2 2 0 0 396 687 395
1342 2 2 0 0 35 507 22
1343 2 2 0 0 259 567 263
1344 2 2 0 0 417 673 418
1345 2 2 0 0 614 686 197
1346 2 2 0 0 392 708 630
1347 2 2 0 0 5 729 6
1348 2 2 0 0 279 725 661
1349 2 2 0 0 6 729 26
1350 2 2 0 0 357 703 655
1351 2 2 0 0 514 684 635
1352 2 2 0 0 540 733 538
1353 2 2 0 0 374 741 593
1354 2 2 0 0 176 692 559
1355 2 2 0 0 650 691 500
1356 2 2 0 0 484 736 691
1357 2 2 0 0 83 733 540
1358 2 2 0 0 558 740 372
1359 2 2 0 0 626 697 555
1360 2 2 0 0 436 693 437
1361 2 2 0 0 375 737 374
1362 2 2 0 0 475 663 536
1363 2 2 0 0 636 674 198
1364 2 2 0 0 674 715 198
1365 2 2 0 0 70 695 551
1366 2 2 0 0 406 721 407
1367 2 2 0 0 677 726 571
1368 2 2 0 0 258 647 627
1369 2 2 0 0 448 701 451
1370 2 2 0 0 458 672 506
1371 2 2 0 0 229 700 570
1372 2 2 0 0 684 744 428
1373 2 2 0 0 570 700 544
1374 2 2 0 0 678 742 431
1375 2 2 0 0 646 741 314
1376 2 2 0 0 603 702 384
1377 2 2 0 0 478 731 293
1378 2 2 0 0 309 742 678
1379 2 2 0 0 380 686 614
1380 2 2 0 0 494 725 468
1381 2 2 0 0 500 691 38
1382 2 2 0 0 635 684 615
1383 2 2 0 0 661 725 494
1384 2 2 0 0 679 721 34
1385 2 2 0 0 509 510 35
1386 2 2 0 0 46 714 51
1387 2 2 0 0 615 684 428
1388 2 2 0 0 432 742 689
1389 2 2 0 0 179 713 181
1390 2 2 0 0 26 739 645
1391 2 2 0 0 35 510 507
1392 2 2 0 0 574 703 357
1393 2 2 0 0 184 707 186
1394 2 2 0 0 39 693 612
1395 2 2 0 0 665 694 539
1396 2 2 0 0 312 708 534
1397 2 2 0 0 554 689 309
1398 2 2 0 0 1 737 508
1399 2 2 0 0 519 717 520
1400 2 2 0 0 277 697 622
1401 2 2 0 0 389 711 641
1402 2 2 0 0 495 736 484
1403 2 2 0 0 17 712 18
1404 2 2 0 0 212 722 557
1405 2 2 0 0 455 720 438
1406 2 2 0 0 622 697 626
1407 2 2 0 0 664 694 665
1408 2 2 0 0 447 719 449
1409 2 2 0 0 669 688 652
1410 2 2 0 0 612 693 436
1411 2 2 0 0 619 744 194
1412 2 2 0 0 57 728 59
1413 2 2 0 0 579 658 583
1414 2 2 0 0 438 727 525
1415 2 2 0 0 539 733 83
1416 2 2 0 0 479 731 478
1417 2 2 0 0 691 736 38
1418 2 2 0 0 401 724 400
1419 2 2 0 0 420 660 2
1420 2 2 0 0 328 732 325
1421 2 2 0 0 320 738 453
1422 2 2 0 0 428 744 429
1423 2 2 0 0 431 742 432
1424 2 2 0 0 425 745 427
1425 2 2 0 0 408 743 434
1426 2 2 0 0 571 726 403
1427 2 2 0 0 119 727 523
1428 2 2 0 0 625 706 462
1429 2 2 0 0 525 730 404
1430 2 2 0 0 499 736 495
1431 2 2 0 0 468 725 654
1432 2 2 0 0 336 672 582
1433 2 2 0 0 198 715 518
1434 2 2 0 0 400 724 706
1435 2 2 0 0 402 680 581
1436 2 2 0 0 589 716 659
1437 2 2 0 0 727 730 525
1438 2 2 0 0 664 665 391
1439 2 2 0 0 337 740 558
1440 2 2 0 0 293 731 562
1441 2 2 0 0 523 720 282
1442 2 2 0 0 460 730 119
1443 2 2 0 0 641 711 225
1444 2 2 0 0 429 744 619
1445 2 2 0 0 119 730 727
1446 2 2 0 0 651 722 212
1447 2 2 0 0 38 736 499
1448 2 2 0 0 667 686 381
1449 2 2 0 0 652 688 383
1450 2 2 0 0 410 710 606
1451 2 2 0 0 644 701 448
1452 2 2 0 0 666 673 419
1453 2 2 0 0 704 743 408
1454 2 2 0 0 251 734 586
1455 2 2 0 0 400 706 625
1456 2 2 0 0 546 688 669
1457 2 2 0 0 668 700 229
1458 2 2 0 0 538 733 694
1459 2 2 0 0 333 694 664
1460 2 2 0 0 565 662 375
1461 2 2 0 0 720 727 438
1462 2 2 0 0 372 700 668
1463 2 2 0 0 579 716 658
1464 2 2 0 0 642 711 389
1465 2 2 0 0 355 705 461
1466 2 2 0 0 407 721 679
1467 2 2 0 0 523 727 720
1468 2 2 0 0 654 725 279
1469 2 2 0 0 639 718 27
1470 2 2 0 0 694 733 539
1471 2 2 0 0 393 722 651
1472 2 2 0 0 645 739 397
1473 2 2 0 0 683 741 374
1474 2 2 0 0 397 739 638
1475 2 2 0 0 653 716 579
1476 2 2 0 0 666 723 660
1477 2 2 0 0 419 723 666
1478 2 2 0 0 374 737 683
1479 2 2 0 0 593 741 646
1480 2 2 0 0 683 737 1
1481 2 2 0 0 689 742 309
1482 2 2 0 0 660 723 2
1483 2 2 0 0 23 25 1
1484 2 2 0 0 25 607 1
1485 2 2 0 0 3 34 2
1486 2 2 0 0 34 415 2
$EndElements
