$MeshFormat
2.2 0 8
$EndMeshFormat
$Nodes
745
1 4.0213455299552071e-05 1.1618708775917243e-05 1.0294623990501565e-03
2 5.0550169472308801e-05 -5.7902077682165688e-05 -1.0262105836891554e-03
3 1.3586092443329924e-04 2.0587228104418086e-05 -1.0190358490236376e-03
4 2.3317918832530698e-04 3.6775655655269043e-05 -9.9997701027817586e-04
5 3.6986496523125400e-04 3.0599619896964350e-05 -9.5499537632765723e-04
6 5.0810293590888389e-04 -3.3986241679587029e-06 -8.8219542288251579e-04
7 6.4159001297641870e-04 -1.5809012770060305e-05 -7.8135573329565517e-04
8 7.4744204000269253e-04 -1.6702918802182232e-05 -6.7096471388724979e-04
9 8.2819080350138286e-04 -9.4221264593028061e-06 -5.5822073648774135e-04
10 8.9647666187412094e-04 -2.0101287816080783e-06 -4.2826710863717350e-04
11 9.4701011631330282e-04 3.6784551433642276e-06 -2.8661260153298461e-04
12 9.7662735379843509e-04 3.6622689445966594e-06 -1.4248738823324512e-04
13 9.8603840704755827e-04 1.0257408328115278e-05 -5.3250475601501997e-06
14 9.7779615260696457e-04 9.3608897287155874e-06 1.3202913585178610e-04
15 9.5040146135215518e-04 8.8066852168542603e-06 2.7383774179002353e-04
16 9.0230050764057430e-04 1.5971499773478763e-05 4.1499134156175108e-04
17 8.3513477146969354e-04 7.0905977858416918e-06 5.4713861305307767e-04
18 7.4826544119399835e-04 -1.6849075015188720e-06 6.7041089940879752e-04
19 6.4033387346408511e-04 -2.0958968476651960e-06 7.8325657331351837e-04
20 5.1645705247129760e-04 1.7389955421186963e-06 8.7736119836468428e-04
21 3.8730696565173980e-04 7.6302179482757547e-06 9.4717614315622807e-04
22 2.6916273389631550e-04 -1.2349464497683782e-05 9.9080152073958982e-04
23 1.6741296540958016e-04 -1.9964986794376783e-05 1.0141077770337860e-03
24 1.5586360043676339e-04 1.5997764077765493e-04 -1.0032348480412468e-03
25 1.7099245505782667e-04 1.0015559578486318e-04 1.0097764906600423e-03
26 5.9103449786292747e-04 9.5029969854394888e-05 -8.1738938949073227e-04
27 5.7635651903329235e-04 -1.1514867530932721e-04 8.2693411839746857e-04
28 9.5810832666188249e-04 1.2308505178675847e-04 -2.0628952304654682e-04
29 8.5632747176136125e-04 1.4567905693218050e-04 4.8879955346400287e-04
30 9.2453388065622823e-04 -1.1031892195551989e-04 3.3882356558264547e-04
31 9.5733245377199185e-04 -1.1017425440819258e-04 -2.1789822482664093e-04
32 5.5630306916925904e-04 -1.1950373007146853e-04 -8.4088874527384321e-04
33 5.6575062340512283e-04 1.0994981799883825e-04 8.3556467217969451e-04
34 1.6242577142223534e-04 -8.2414907202417193e-05 -1.0125254045043224e-03
35 2.2885085558808517e-04 -1.2345932901672754e-04 9.9329355694690799e-04
36 7.9063984680874258e-04 -1.2835636905791429e-04 6.0059364410324650e-04
37 7.9434742788064361e-04 1.1023148794166801e-04 -5.9858604587092849e-04
38 9.7804129406680023e-04 -1.0362933794678467e-04 7.2826525908159913e-05
39 9.5872963762813005e-04 1.2477753403936084e-04 2.0116441705351359e-04
40 8.5506702994345444e-04 -1.2667680218276451e-04 -4.9504302385971349e-04
41 2.8139899071809830e-04 1.7803305754580077e-04 -9.6937215827016317e-04
42 2.4491025053694382e-04 2.6601577948505911e-04 -9.5793650412669942e-04
43 3.3870428997863865e-04 2.8369723805007484e-04 -9.2002936911457912e-04
44 3.0534238797869952e-04 1.0944192536085162e-04 9.7279200219729106e-04
45 7.0548091841618867e-04 9.9636300679858418e-05 -7.1125755134202441e-04
46 7.2656414907859926e-04 2.3934470360597259e-04 -6.4920359570935034e-04
47 2.8579021452604619e-04 3.8003238795541094e-04 -9.0165661392065555e-04
48 3.9628204171825702e-04 3.7908827773584260e-04 -8.5503838236972662e-04
49 3.4036196030483599e-04 4.7921403799829494e-04 -8.2597645776917984e-04
50 8.0921864353630856e-04 2.4739283809736644e-04 -5.2797232212368063e-04
51 7.3227137205974721e-04 3.7237134840225987e-04 -5.6895172394833232e-04
52 8.0742876973958317e-04 3.7637196867495830e-04 -4.4037720056042026e-04
53 7.2815115343685536e-04 4.8971930431648228e-04 -4.6879714660345736e-04
54 7.9450447555124240e-04 4.8326205556796249e-04 -3.4063313426654961e-04
55 7.1235715198775240e-04 5.8987915543687493e-04 -3.5533964453413801e-04
56 7.7163252028387345e-04 5.7223306870696547e-04 -2.2978028157634824e-04
57 6.4098227861837144e-04 5.9265258217355507e-04 -4.7724059627506229e-04
58 6.1248046100638106e-04 6.8584905690251545e-04 -3.6969881004555441e-04
59 5.2826476259792846e-04 6.8738583662359212e-04 -4.8870118968617575e-04
60 4.9348337831187550e-04 7.6845506604892504e-04 -3.8584223115238983e-04
61 3.9673474960712733e-04 7.6291491475041393e-04 -5.0221124407595825e-04
62 3.6010623933385374e-04 8.3731902582049667e-04 -3.9034414111779067e-04
63 2.1542820700021372e-04 4.8169985512680941e-04 -8.6925239216840240e-04
64 4.5405636437524259e-04 8.3146126657460421e-04 -2.8174865547136302e-04
65 2.5745396683198133e-04 8.2540273382633144e-04 -4.9339536688989963e-04
66 2.2646998963593765e-04 8.9036263099174530e-04 -3.7149687675828248e-04
67 1.2184217917038845e-04 8.6702357225953357e-04 -4.7177542154145004e-04
68 1.2037643283122450e-04 2.5449227562688274e-04 -9.8659002751045537e-04
69 1.4440464141807335e-04 7.8082456823610569e-04 -6.1047521173624797e-04
70 8.4757960189645368e-04 4.5914392261896595e-04 -2.1343374411091550e-04
71 8.2170491266358027e-04 5.3512679797825414e-04 -1.0552412777171366e-04
72 7.3248117902874690e-04 6.4900656265341554e-04 -1.2277481809158577e-04
73 7.6727369570796700e-04 6.1887574290433523e-04 -6.0511389449138912e-06
74 6.6558216516704406e-04 7.2676855242288600e-04 -1.9804210216247427e-05
75 6.8614843697982638e-04 7.0277328020753953e-04 8.4657613278762598e-05
76 5.8003179686044271e-04 7.9296537725755253e-04 7.9743104257128618e-05
77 6.0415550629818891e-04 7.5514411264644742e-04 1.9761971369862722e-04
78 4.8885041179775961e-04 8.3680169837354820e-04 1.8602721840747186e-04
79 9.3062955318018713e-05 9.2610536070430473e-04 -3.3728851559142333e-04
80 -1.6491170778674715e-05 8.9340348496027883e-04 -4.3289398325779881e-04
81 2.3236717547304463e-04 2.2991698663435574e-04 9.7178953359498637e-04
82 5.2016068035421305e-04 7.8013867562448647e-04 3.1675979834995809e-04
83 -3.8595894818731989e-05 9.3935783089879956e-04 -3.0669278059276757e-04
84 3.9447176238619153e-04 8.6007159713307499e-04 2.8684461424986898e-04
85 4.1797666697164336e-04 7.9910018523137089e-04 4.1427791831349226e-04
86 2.8730727164952188e-04 8.6876841282524915e-04 3.8113907770276795e-04
87 2.9978890707980211e-04 8.0658642729352194e-04 5.0045168183088012e-04
88 1.7223624887934824e-04 8.5844080813990062e-04 4.7158389781185408e-04
89 1.6174849413986322e-04 9.1501933354578343e-04 3.4187336300942701e-04
90 4.5421096742827837e-05 8.9704928877266216e-04 4.2261292174143903e-04
91 5.8319172280367193e-05 8.2707411392410671e-04 5.5580577087115026e-04
92 -6.3181115744120902e-05 8.5876296340082700e-04 4.9941693026772031e-04
93 -8.0054870227862362e-05 9.1596468043246722e-04 3.6915762585013273e-04
94 -1.9463288642382120e-04 8.6466011247302672e-04 4.4856711170415588e-04
95 -1.5131542187061696e-04 8.1530444949149848e-04 5.5366516838919566e-04
96 -2.2067715910096893e-04 9.0846398959273467e-04 3.2380983568962236e-04
97 1.0160983549903570e-04 2.4200616708669790e-04 9.9255558655949108e-04
98 5.4231510931664788e-04 6.9822721925090643e-04 4.5708692392394120e-04
99 1.6790810783629892e-04 3.4336646333164216e-04 9.4920999359307697e-04
100 3.5243393081910691e-05 3.5344518604560088e-04 9.6036799922616183e-04
101 -2.8007251497925165e-05 2.4965994129836754e-04 9.9550365942087859e-04
102 -1.0087136889013453e-04 3.4981927749280995e-04 9.5661625383001850e-04
103 2.0515088124181601e-04 9.3620207165917091e-04 -2.3848266740388017e-04
104 -9.9247910003186758e-05 9.5026707333822837e-04 2.5055472145115007e-04
105 -2.4829982195916545e-04 9.3356396590003627e-04 2.0145822527834238e-04
106 -3.6074830527998606e-04 8.7607859540695223e-04 2.8147841217173673e-04
107 -1.5257749206503828e-04 8.9786502041802954e-04 -3.9159201737391807e-04
108 -1.2509710079976340e-04 8.4533015542999444e-04 -5.1139533809274010e-04
109 -3.7990592228800372e-04 8.9714359478911617e-04 1.5225998421838092e-04
110 -2.6504595869050024e-04 8.4014827060845424e-04 -4.5994277423944401e-04
111 -2.3929486827521727e-04 7.7817582572330850e-04 -5.7891497168220197e-04
112 -3.6917230674891660e-04 7.6506910263388170e-04 -5.2064053550658314e-04
113 -3.3603840170701741e-04 6.9327130846202575e-04 -6.4105636329607918e-04
114 -4.6511120615466868e-04 6.7109247572998913e-04 -5.7538694897127233e-04
115 -4.2954530830117656e-04 5.8743770365656011e-04 -6.9349489886434885e-04
116 -4.8952766983179595e-04 7.4054089825372090e-04 -4.4566106194253983e-04
117 -2.8071079418684388e-04 8.8803603314410848e-04 -3.3456082809439630e-04
118 -2.8967240814364127e-04 7.8783085413580581e-04 5.3935194378161740e-04
119 7.0887037373602109e-04 6.5609175686010912e-04 2.0234078772959186e-04
120 -2.9806802310493525e-04 6.0711999340993562e-04 -7.4816813329361628e-04
121 -3.8870926545056501e-04 4.9220239802515717e-04 -7.9364645254873033e-04
122 -5.0964358331036241e-04 4.7140970361824873e-04 -7.3000910650229179e-04
123 -4.6309314266108572e-04 3.6831338816469645e-04 -8.2284821896016667e-04
124 -5.8160906011590744e-04 6.4021953672375000e-04 -4.9206997982876503e-04
125 -6.0144552233291394e-04 6.9841678515872557e-04 -3.6274302002568901e-04
126 -6.8730870284447053e-04 5.9150590432919181e-04 -4.0165140306305808e-04
127 -4.8320169408091345e-04 8.3033705164860965e-04 2.2758483495777894e-04
128 -5.7520928308913506e-04 3.4664434147431254e-04 -7.5276231976405272e-04
129 -5.2627780252707888e-04 2.4214114469209050e-04 -8.3243626833201024e-04
130 -6.3844330881525000e-04 2.1618805092401831e-04 -7.5039406185182980e-04
131 -5.8538407380907787e-04 1.1182785385490204e-04 -8.1949918683498011e-04
132 -6.9383799088431773e-04 8.8449539849691934e-05 -7.2463558902838244e-04
133 -6.2584180862494600e-04 -1.9627217549305461e-05 -7.9459290728811660e-04
134 -7.3114590697125786e-04 -4.0091992688256255e-05 -6.8850746901895875e-04
135 -6.5184495731431414e-04 -1.5293955031179829e-04 -7.5507886373757285e-04
136 -7.8923654548098961e-04 7.2188366579866079e-05 -6.1141229277352307e-04
137 -8.1655324546171316e-04 -5.9547528855382261e-05 -5.7239944034087218e-04
138 -8.6861672009030792e-04 4.3471708260257427e-05 -4.8347595402495173e-04
139 -8.8721749025819432e-04 -8.3406482705356677e-05 -4.3883182279331708e-04
140 -9.2674902260670995e-04 8.1377868141117805e-06 -3.4891807242091479e-04
141 -9.3441110835133724e-04 -1.1928990602519262e-04 -3.0180347802505418e-04
142 -9.6422619482649987e-04 -1.8009453536971593e-05 -2.1077303680472237e-04
143 -9.6137233276451738e-04 -1.5023963228837623e-04 -1.6293828498750940e-04
144 -9.8146941312674137e-04 -4.1090294939914398e-05 -8.0567363863168236e-05
145 -9.6979051639279647e-04 -1.7275547043187398e-04 -3.0487205408359289e-05
146 -9.8235520795635469e-04 -6.1160069323224750e-05 4.8629272839066903e-05
147 -9.6196376243797032e-04 -1.8901928393035702e-04 1.0462094817832628e-04
148 -9.3855598614255573e-04 -2.9999800003007663e-04 2.3270182516427677e-05
149 -9.2120554847606505e-04 -3.1544727294746151e-04 1.5883865567608557e-04
150 -9.3671626963075304e-04 -1.9827420245981179e-04 2.4329756986067651e-04
151 -8.8804240551325375e-04 -3.2003480889770735e-04 2.9552585218890033e-04
152 -8.9426865140501818e-04 -1.9941803512279162e-04 3.7883606437226876e-04
153 -8.3773276766364120e-04 -3.1474547053917182e-04 4.3071686577724415e-04
154 -8.8673488356210046e-04 -2.1582522884110170e-04 -3.8747385206646312e-04
155 -8.3104961545997546e-04 -2.0101447336813241e-04 5.1144353747629425e-04
156 -7.6558450476223281e-04 -3.1399111785431231e-04 5.5872583327611330e-04
157 -8.7989746968546645e-04 -8.0309171640751342e-05 4.5574708286433063e-04
158 -7.4530195890388725e-04 -2.1078604419038583e-04 6.3609754556660499e-04
159 -6.7134478026141758e-04 -3.2405976409807357e-04 6.7322960621283895e-04
160 -9.8255451256811302e-04 7.2979803332392368e-05 -1.9896489973397112e-06
161 -6.4359306620501893e-04 -2.1592409659715894e-04 7.4601298411373538e-04
162 -5.5823539935712129e-04 -3.2040076097713567e-04 7.7981628500668906e-04
163 -5.4328235778997242e-04 -1.2446420573796450e-04 -8.4883494086253634e-04
164 -5.6179280588486576e-04 -2.5447316014524349e-04 -8.0286851257030574e-04
165 -7.0200684952938751e-04 6.3918604078199261e-04 -2.7417548712800133e-04
166 -1.5658306849810006e-04 2.3487625885318720e-04 9.8645171699300333e-04
167 -2.3631049862972748e-04 3.3631599888159008e-04 9.3568372004552004e-04
168 -4.4607000038801418e-04 -2.1939367985298263e-04 -8.8894170944541591e-04
169 -4.6155379617011325e-04 -3.4370510916190193e-04 -8.3578867652561424e-04
170 -5.7075818659796027e-04 -3.8558894008789606e-04 -7.3622502292884759e-04
171 -4.6460783671752872e-04 -4.7378173817290729e-04 -7.6131037268289319e-04
172 -5.6417159398834509e-04 -5.1020006604043325e-04 -6.5463185784316979e-04
173 -4.5195676701419315e-04 -5.9800546394046144e-04 -6.6864596362186377e-04
174 -5.4900610549885140e-04 -6.2023400035515958e-04 -5.5792475004844805e-04
175 -4.3322113086113136e-04 -7.0363632479746832e-04 -5.6122860552815972e-04
176 -7.6698439784983832e-04 -4.2408059209607960e-04 4.7005269772435913e-04
177 -5.2295167440716067e-04 -7.1595436264292490e-04 -4.4960264329582347e-04
178 -4.0431923661842379e-04 -7.9217488467969418e-04 -4.4374172302312585e-04
179 -3.1432227325166361e-04 -7.7420356650600845e-04 -5.4575433070931342e-04
180 -2.8078259852662267e-04 -8.5116039095407521e-04 -4.2863466297571854e-04
181 -1.8213491064132168e-04 -8.2559665722157854e-04 -5.2914275292923699e-04
182 -1.5156154131977146e-04 -8.9277769554991354e-04 -4.0716183272895248e-04
183 -4.3536321566383186e-05 -8.5419885968674608e-04 -5.1227034956494210e-04
184 -9.9019852114020646e-06 -9.1482133300239206e-04 -3.8362343568767890e-04
185 -1.1168130638501087e-04 -9.4201203829842085e-04 -2.8092163879876009e-04
186 2.9401157958949548e-05 -9.5544819915296302e-04 -2.5243237065261583e-04
187 -6.0537939711659534e-05 -9.7281992274622848e-04 -1.5608076712353728e-04
188 7.8194742034184508e-05 -9.7556025845801963e-04 -1.2683693114703661e-04
189 -7.5489325665699189e-06 -9.8569906608012773e-04 -2.8943811693274196e-05
190 1.2193766382615036e-04 -9.7866302724011409e-04 6.2321443496067389e-06
191 3.6578191505059878e-05 -9.8049016587892896e-04 1.0358275195203681e-04
192 1.6605062021312670e-04 -9.6307681259669067e-04 1.3884176932857186e-04
193 6.9185660074460282e-05 -9.5654835112303418e-04 2.3989300617761148e-04
194 2.0790880802625168e-04 -9.6074038319252293e-04 -8.2330820228998728e-05
195 2.0262206913978974e-04 -9.3020898741008823e-04 2.6910690808699841e-04
196 1.0236166132757249e-04 -9.1502109347313377e-04 3.6886230397419653e-04
197 1.0836852681889586e-04 -8.7040429556411818e-04 -4.7173454675094505e-04
198 -9.0363102015182477e-05 -9.7924980326896411e-04 7.2748471637048117e-05
199 2.3461112676373047e-04 -8.8003693444965302e-04 3.9506336495803685e-04
200 3.3312051756748248e-04 -8.8641253431277582e-04 2.8817050964708926e-04
201 3.6357652762424660e-04 -8.2796460855165226e-04 4.1094635460015537e-04
202 1.3326045739339129e-04 -8.5370270544578828e-04 4.9627160706160547e-04
203 4.5902244833903930e-04 -8.2276220163989629e-04 3.0456894952392267e-04
204 -3.6529784888428934e-06 -8.7952497071900801e-04 4.6554762113514442e-04
205 2.7114131703087697e-05 -8.0677353109270421e-04 5.9140874797955316e-04
206 -8.8639452756467184e-04 -4.2509120367495955e-04 7.4078026898974264e-05
207 -7.9165875013822553e-05 -7.6847274012233383e-04 -6.4019199658116896e-04
208 -1.0831651254917988e-04 -8.2518304174904146e-04 5.5223518601196266e-04
209 -7.6277099125966592e-05 -7.4199049030268993e-04 6.7349020387000465e-04
210 4.8347074485653664e-04 -7.5601858153955860e-04 4.2687199434520936e-04
211 5.7136321569716529e-04 -7.4429186935741939e-04 3.1657188173838936e-04
212 -4.9014750130071548e-04 -7.9220425734033201e-04 -3.3605607898940643e-04
213 5.8535886599027458e-05 -7.1374364291666118e-04 7.0798920907210383e-04
214 -4.3541793624533287e-05 -6.4018123518003352e-04 7.8205510121673847e-04
215 -3.3191078200072409e-04 -3.0650013907170865e-04 -9.1514315619861577e-04
216 -2.0927242132474122e-04 -7.5118056676593318e-04 6.3014043338247103e-04
217 -2.3978988483738139e-04 -8.2582018942239563e-04 5.0363809460400035e-04
218 5.4915835836627752e-04 -7.9686341210485380e-04 1.9860133985777589e-04
219 6.5732149012496448e-04 -7.0661856208357738e-04 2.1296171560119580e-04
220 6.2722758580457949e-04 -7.5629271468239951e-04 9.0024788274597890e-05
221 -6.3301562011474841e-04 -6.2553955647973777e-04 -4.4219979047605636e-04
222 7.2607439411792314e-04 -6.6093741321977145e-04 9.9363078134084073e-05
223 6.8427729130075279e-04 -7.0993007012324055e-04 -2.4686909493612110e-05
224 -3.1597125017673731e-04 -1.8089386378387416e-04 -9.5684048786978280e-04
225 -9.4728832015307128e-04 1.0855246653549889e-04 -2.5778125989180171e-04
226 8.8069329401376943e-05 -6.0552538367118617e-04 8.0780546005561099e-04
227 -1.4375649344673020e-05 -5.2381901858248757e-04 8.7263333714982340e-04
228 -5.3355542084344344e-04 -1.9849885907655669e-04 8.4029620413461517e-04
229 -6.1070424469247353e-04 -9.9237945774955272e-05 8.0075225155272077e-04
230 6.6463883264153531e-04 -6.5252840025468919e-04 3.3822793890109411e-04
231 3.8815808064245890e-04 -7.4901137213867204e-04 5.3307770489506362e-04
232 5.1180370837740591e-04 -6.5351526953590013e-04 5.5761032602450215e-04
233 7.7069213000345289e-04 -6.1508828521746213e-04 -1.8033096904411617e-05
234 7.2360020234015084e-04 -6.5537786485107927e-04 -1.4582180550800326e-04
235 -4.0717439859046662e-04 2.6551423505342134e-04 -8.9525776482674328e-04
236 3.0190998812014907e-04 3.3657620487244702e-04 9.1510995738315474e-04
237 -4.3783768070483115e-04 -2.8772184574855068e-04 8.7229666617217097e-04
238 -8.3039289802594332e-04 1.9486241900696884e-04 -5.1632251947197276e-04
239 6.3019770098220792e-04 -7.4469987890951475e-04 -1.5140392007144263e-04
240 6.6494229128825943e-04 -6.8054920566693955e-04 -2.7091811203441374e-04
241 -5.8063890402160223e-04 -4.3853199225659853e-04 6.9451616183459830e-04
242 5.6498333134060537e-04 -7.6350065997333376e-04 -2.7712084875473246e-04
243 5.9165346382447919e-04 -6.9309401331626194e-04 -3.9346357394629645e-04
244 6.9480272666583656e-04 -5.9393720335657637e-04 -3.8622235054877277e-04
245 6.1402676643924957e-04 -6.0016572467231732e-04 -5.0622354693640739e-04
246 -1.9812085650875634e-04 -2.6212071993469456e-04 -9.7089931281675178e-04
247 8.0999401298160448e-04 -5.5462034328003040e-04 1.0049424378410613e-04
248 2.3768691760166189e-04 4.5523724983726843e-04 8.7875105005571336e-04
249 -4.2402413190927935e-04 -1.6594633043383000e-04 9.1321091913242915e-04
250 3.7152564137453859e-04 4.5083624521461156e-04 8.2906864470876540e-04
251 -2.0981895423843828e-04 -3.9901750856881552e-04 -9.1570360132643832e-04
252 -8.5691032287266912e-05 -3.5033857153114078e-04 -9.5847650356156180e-04
253 3.7858687117753434e-04 8.9757055353730550e-04 1.5494432345059569e-04
254 -6.1218957726847192e-04 7.3847606017915924e-04 -2.3370659021042315e-04
255 -7.0431476210528951e-04 6.7369807656912097e-04 -1.4873095293528238e-04
256 -7.8801943297752150e-04 5.6604668815409247e-04 -1.7815413250003528e-04
257 -7.7840798901324560e-04 6.0168050000333263e-04 -5.1114359405442655e-05
258 -3.6869621523294293e-05 4.5773824809233413e-04 9.1075651022389697e-04
259 -3.2087423332656208e-04 -2.5903025006786251e-04 9.3537975609788240e-04
260 -2.9432903691115373e-04 2.2563839165470868e-04 9.5394493020064196e-04
261 -3.7377819906430341e-04 3.2264340167315086e-04 8.9101262455802200e-04
262 -3.0382458505678829e-04 -1.2768363178560958e-04 9.7050906130330178e-04
263 -1.9524637230202132e-04 -2.2040158128645414e-04 9.8296351794652584e-04
264 -8.5229132104851712e-04 4.8897461989225155e-04 -7.4313778388447453e-05
265 -8.3256247466739048e-04 5.2357278430511557e-04 5.8901521790725622e-05
266 -3.3506562017913646e-04 -7.4527029475752267e-04 5.7610471575716331e-04
267 -3.5806736772563949e-04 -8.1471777035753163e-04 4.4268567040997044e-04
268 5.0455070460221944e-04 -6.9214728713208596e-04 -5.0991017537814032e-04
269 5.1806914986351820e-04 -5.9198416634805029e-04 -6.2057135317247574e-04
270 6.2843733396892080e-04 -4.8869724463065673e-04 -6.0749185659330696e-04
271 5.2360746124050818e-04 -4.7748683820871251e-04 -7.1585512936846629e-04
272 4.0320750903110041e-04 -5.7162681719940308e-04 -7.2554132961426894e-04
273 -3.1113012533990996e-04 4.2898714581296433e-04 8.6776596944270444e-04
274 -4.4412576300889144e-04 4.1982435201104104e-04 8.0741011289002290e-04
275 3.9802637620174294e-04 -4.5598395480711762e-04 -8.1278374270886866e-04
276 2.6947726754146658e-04 -5.3859399841317546e-04 -8.1536576701857948e-04
277 -3.3132438621006016e-04 -3.7101003609114024e-04 8.8903454389608737e-04
278 -1.3007629282844906e-04 9.6875648270619726e-04 1.2805442168113432e-04
279 8.0368608600015683e-04 -5.5624637559203072e-04 -1.3508405501950503e-04
280 -2.6556428808992397e-04 5.0371026650747395e-04 -8.3981527474995157e-04
281 -1.6304933421938604e-04 6.0125735114425897e-04 -7.9730665811441627e-04
282 8.5472397316375113e-04 4.9157519832676046e-04 3.6185344490324525e-05
283 1.0849107739835163e-04 -4.8654588699105543e-04 8.8889961690395410e-04
284 -9.7639524446726459e-04 4.8596591382659348e-05 1.2656798745407568e-04
285 -8.9652279512651353e-04 -4.0579224094511464e-04 -5.7435917631373287e-05
286 -8.3408506780127624e-04 -5.2512530027727135e-04 -1.3407531848692188e-05
287 -8.1729683937041499e-04 -5.3839699730952870e-04 1.2237110934426170e-04
288 -7.5979674581286066e-04 -6.2738123118994695e-04 3.1596307559624579e-05
289 -7.3642113599497094e-04 -6.3490585345279266e-04 1.6920612867508448e-04
290 -6.7154263200321432e-04 -7.1733552013888459e-04 8.2721525046932252e-05
291 -1.9669347754074437e-04 -9.5225358359825795e-04 -1.7157037171297793e-04
292 -2.7394601076802949e-04 -8.8007797851263544e-04 3.6552670843689858e-04
293 -3.3764892766394692e-04 -5.5840413651243317e-04 -7.7192703785397305e-04
294 -1.1281925413958781e-04 -4.8490360883214894e-04 -8.8968815304025931e-04
295 -5.0256909753407751e-04 3.0332870080553140e-04 8.2695921622852504e-04
296 -5.6564836997905626e-04 4.0586831746884698e-04 7.2826205763476743e-04
297 -8.5426626804492351e-04 4.4991616842777148e-04 -2.0490104421958997e-04
298 -6.1818345809380650e-04 2.7721302822365530e-04 7.4747103892950945e-04
299 -6.7389967460944171e-04 3.7914048694845365e-04 6.3759652463764045e-04
300 -6.0908479606834880e-04 5.0416119660901372e-04 6.1374775083063062e-04
301 -7.1279471490402042e-04 4.6639272517320023e-04 5.1668187066299890e-04
302 -7.7203835298893101e-04 3.3535769095916455e-04 5.3426083084761808e-04
303 -3.0583939974493076e-04 -6.5900210547896931e-04 6.9598222631527343e-04
304 -6.3807694965075355e-04 5.8329965107226729e-04 4.9338754965596915e-04
305 -8.0737674923529615e-04 4.0849222046087015e-04 4.0665687811224278e-04
306 2.1701553501385755e-04 -5.6015737502638325e-04 8.1697350499174365e-04
307 2.3530036379363638e-04 -4.3771588749636072e-04 8.8977881945856766e-04
308 3.4297245534754969e-04 -5.0419286940521751e-04 8.0984804693020988e-04
309 -4.4181873389857431e-04 -7.3651104853943931e-04 5.0434318020095125e-04
310 -8.5518834885276980e-04 2.8050818536029000e-04 4.1809073284187668e-04
311 -3.9913036709331748e-04 -8.5286188896997587e-04 3.0527220573293209e-04
312 -7.4530268968478551e-04 6.3918706153155355e-04 8.1304663658945093e-05
313 -8.3737273613213254e-04 -4.9990125022790022e-04 -1.4888183145384792e-04
314 -6.1833525015582782e-05 1.2993800280956287e-04 1.0189380478110401e-03
315 -8.8040310164706433e-04 3.4224515338981455e-04 2.9294272378389727e-04
316 -9.6561632266682965e-04 1.7946331573158111e-04 7.9418077328293567e-05
317 -9.7682482390690751e-05 7.7362410181576675e-04 -6.2812942144851785e-04
318 2.6487196107562866e-04 -4.1994341012754086e-04 -8.8965814829684636e-04
319 -6.8280627409139942e-04 -7.0926874574729604e-04 -5.3675711854885209e-05
320 -5.8723148628760981e-04 -7.9158584013438451e-04 1.6961663574099146e-06
321 -6.6367708390330021e-04 -4.1555693786552215e-04 -6.2481620093673181e-04
322 -7.9754669279038612e-05 -2.1469140731307388e-04 -1.0015417487431284e-03
323 5.1356992936724870e-04 -8.3889656250520040e-04 7.6077319100952351e-05
324 -6.1043605522202314e-04 7.6659679506882298e-04 -1.0378558643459705e-04
325 2.9852232934047130e-04 5.6509471603368724e-04 7.8329288003363678e-04
326 2.8205973327029152e-04 -6.4848352511814931e-04 -7.1738270228005998e-04
327 1.4840753137388920e-04 -6.1177526573872394e-04 -7.9272729778186049e-04
328 4.2835304264556966e-04 5.5099971642924030e-04 7.2645595461054641e-04
329 4.9915247433909924e-04 4.4044485766345096e-04 7.5893119751797530e-04
330 4.5564660366880882e-04 4.6035975183143665e-04 -7.7537093290519813e-04
331 1.4948260501527411e-05 9.7063446119438255e-04 1.7585760273768956e-04
332 -1.6200349744685125e-05 9.8389555352510925e-04 4.9161628502696541e-05
333 -1.5809843284752496e-04 9.7226392561571419e-04 -2.6619566486969772e-06
334 1.2415174942405856e-04 9.7388735701961179e-04 8.6274961477174374e-05
335 3.5932672986638297e-04 -3.7922872465084373e-04 8.7378400838544138e-04
336 4.5965629278260086e-04 -4.3766633603967045e-04 7.8817141704918018e-04
337 -8.1256271280851985e-04 2.0100565074279906e-04 5.4189568099743230e-04
338 -3.7472641042880767e-04 5.2355891069876014e-04 7.7880926940791860e-04
339 -1.2857817785715713e-04 4.8120180538068359e-04 -8.8789564013830010e-04
340 3.8260588980302179e-04 -3.3035065211358344e-04 -8.8401246992859700e-04
341 3.9216054078610071e-05 -3.0003481733067571e-04 -9.8000209173543674e-04
342 -9.1688854216961425e-04 3.5175273127646363e-04 -9.2531451950542351e-05
343 1.4165704199622011e-05 -3.9277409167671730e-04 9.4483720613942218e-04
344 -5.2823559488077805e-04 6.1369392372950012e-04 5.8599959701236828e-04
345 -5.4232973478134290e-04 7.0365266022671860e-04 4.4654103222127231e-04
346 -6.6043583518253187e-04 6.4282309975024869e-04 3.6342601749446901e-04
347 6.3097572992360873e-04 -3.6588620272061677e-04 -6.9274708452396754e-04
348 7.2493086196792492e-04 -3.7055911383053778e-04 -5.8073273506138614e-04
349 5.4699584200856941e-04 5.2670175127795811e-04 6.5585574501542750e-04
350 6.1824897871318814e-04 4.0950835598553315e-04 6.7787309910754049e-04
351 6.5960892246990927e-04 4.8777678058630164e-04 5.7032126708488529e-04
352 7.2370481282134293e-04 3.6319986711976393e-04 5.8699949535093231e-04
353 7.5617941282115741e-04 4.3368032212960249e-04 4.8067035019446332e-04
354 -6.3959545297031411e-04 -7.2277884596811249e-04 2.0927562839563371e-04
355 2.7494536985203785e-04 5.8052915047402450e-04 -7.7996385466576822e-04
356 1.4392766712844154e-04 5.8183211055703250e-04 -8.1700153111051335e-04
357 -6.7885152510001442e-04 3.2127416347434303e-04 -6.6533835585995198e-04
358 5.2769372733331270e-04 -8.1913168097724471e-04 -1.5877104666997806e-04
359 4.5401515991650977e-04 -8.3409756484317799e-04 -2.7734374339329098e-04
360 -8.1727660867186424e-04 4.7347194837137594e-04 2.9202853428061124e-04
361 -1.4009928380373393e-04 -5.5798426503540809e-04 8.3629597070686138e-04
362 -2.1372948590757612e-04 3.7903564124694108e-04 -9.2345395939325470e-04
363 -2.4020801482415303e-04 5.3342509445785801e-04 8.2778918877175062e-04
364 -5.1402797315932365e-04 8.2259049522592233e-04 -1.7940454149089274e-04
365 1.6834740411511998e-04 5.7009893279936445e-04 8.2083695983274912e-04
366 -3.8746334082071806e-04 -2.8099053015348178e-05 9.4628173103928465e-04
367 -6.9769352605099149e-04 -6.3588904137700224e-04 2.9618294818164868e-04
368 2.1559528078918686e-04 6.7411784925215429e-04 7.1701915769436554e-04
369 9.3172041925670490e-05 6.4991363834699387e-04 7.6622942204633278e-04
370 7.0960314256763039e-04 -2.4988057094991561e-04 -6.6539866462034746e-04
371 -5.4538781227962273e-04 1.7662669593119561e-04 8.3752523433817797e-04
372 -6.6968742021841863e-04 1.2436472746197189e-04 7.4455443589816796e-04
373 5.5844091639236965e-04 8.1107516524196949e-04 -3.8714707714297433e-05
374 -1.6273701911009625e-04 -7.8442713607484104e-05 1.0127197909647965e-03
375 -6.6301408801471801e-05 -1.6834507473550259e-04 1.0124585263295580e-03
376 -3.0367444290189087e-04 -9.1195840033037772e-04 2.3006200188051119e-04
377 -4.3909370920042798e-04 -8.7066546365181536e-04 1.5752503575750830e-04
378 -9.2125762810682955e-04 1.8977257160163150e-04 3.0872545506260184e-04
379 4.3754500873719317e-04 6.6157659744222762e-04 -6.1135898965591592e-04
380 1.6206840846410555e-04 -7.1726853681941636e-04 -6.8571830745131547e-04
381 2.8685078711083344e-04 -7.4446366552516807e-04 -6.0442101658371374e-04
382 -8.9156700408559580e-04 -3.7638523772911761e-04 -1.9418440192555501e-04
383 -8.2429286544507326e-04 -4.6648575915646370e-04 -2.8370314784818352e-04
384 -7.6544147847647747e-04 -5.7586908275991601e-04 -2.4240660578840392e-04
385 -1.7428662581654505e-04 -9.3069786405146294e-04 2.8730319404600299e-04
386 -6.5892020334999051e-04 5.2664286516307607e-04 -5.3103305899637255e-04
387 -7.5712166226671893e-04 4.7172646679987897e-04 -4.3590965859420684e-04
388 8.7489530336064118e-04 2.4474940629689511e-04 -3.9909812300261555e-04
389 -8.9995026742965888e-04 3.2330787694104951e-04 -2.4627002248856378e-04
390 -5.0917612790411424e-04 8.4219652074662879e-04 -4.5338813697395147e-05
391 -4.0912603330415734e-04 8.8879934049488100e-04 -1.1969028708416041e-04
392 -5.9518146071393951e-04 7.8429157420388420e-04 2.5341155145426830e-05
393 -5.8368810786203014e-04 -7.8482952674639652e-04 -1.2865245657248125e-04
394 -4.9407707533804287e-04 -8.5099187773620224e-04 -5.8131998074897194e-05
395 8.6289614794701517e-05 9.8043574573596429e-04 -4.2110650716577479e-05
396 2.1987274808478563e-04 9.6026848629449200e-04 -1.0790079667452080e-05
397 5.2754696936855433e-04 3.2825188958812219e-04 -7.9976326621891637e-04
398 2.7160547808812260e-04 -3.1393070069135273e-04 9.3423811440111857e-04
399 3.9276784827925454e-04 -2.3792337662816972e-04 9.1219754732164808e-04
400 -2.8297075842613440e-04 6.3291295629440295e-04 7.3060535927430633e-04
401 -1.7337416501769150e-04 6.2250240506775954e-04 7.7564290334333243e-04
402 3.1678626507675151e-04 -6.1874512400450466e-04 7.3045339309163893e-04
403 6.6689045369870562e-04 2.8504415247141259e-04 6.9693726895230900e-04
404 6.8136156865403815e-04 5.7531905253544575e-04 4.4049819352751785e-04
405 -3.0962781130157885e-04 -9.3153235629154423e-04 9.6773539334711321e-05
406 2.6396160531017612e-04 -3.0118414902823568e-04 -9.4066398174054769e-04
407 3.4227030700237414e-04 -1.9302782829254850e-04 -9.4430845748675739e-04
408 8.9168652231996206e-05 4.6688858202278597e-04 -9.0163710431059310e-04
409 -8.7839037885334317e-04 4.2282997206829587e-04 1.5474629665731377e-04
410 -4.6076951687021821e-04 8.0147960947827613e-04 3.5509585525600549e-04
411 5.5642802745919028e-04 4.3931134656433372e-04 -7.1348616072761627e-04
412 4.6414567839767550e-04 6.4160407334136287e-04 6.1361659709908815e-04
413 8.0999933161288564e-04 3.0702927996729062e-04 4.9155552792228040e-04
414 8.3883092883680352e-04 3.6397336316224487e-04 3.8408951216436208e-04
415 4.6100376737552588e-05 -1.8767367150960393e-04 -1.0097208547949685e-03
416 -9.6169929207751148e-04 2.1092073766624983e-04 -4.0773642398954470e-05
417 -8.7504188904546473e-05 3.5924151616097420e-04 -9.5382662720066701e-04
418 -1.4873647559220061e-04 2.6134462964075175e-04 -9.8040199910404504e-04
419 5.3586937004760022e-05 1.5235940284681379e-04 -1.0148478838523383e-03
420 -3.5258727904679627e-05 -9.4489968563559959e-05 -1.0243414030496982e-03
421 -9.3196363015145809e-04 3.1526544131445933e-04 5.5404031437108261e-05
422 7.9830965885256959e-04 -2.5087864171211168e-04 -5.4434198649794328e-04
423 8.0251799820613698e-04 -3.6887354994462139e-04 -4.5770344263585571e-04
424 2.4469927525411434e-04 9.4765007783596139e-04 1.1907517343351098e-04
425 2.2942195720703274e-05 -6.8972194164346656e-04 -7.3635143716335564e-04
426 3.2620787970273546e-05 -5.6269312062403253e-04 -8.4523002275553290e-04
427 -8.4772528684553432e-05 -6.1642188500037260e-04 -7.9810004053680519e-04
428 4.0846031877134751e-04 -8.8455770998233270e-04 -1.5766215499878538e-04
429 3.2079634987062686e-04 -8.9696613934816226e-04 -2.6582713850929231e-04
430 3.6109291723309214e-04 -8.3920944253946291e-04 -3.8719688537796216e-04
431 -5.8682571703147599e-04 -7.2591933999245986e-04 3.3016759080716130e-04
432 -6.3407338189393528e-04 -6.3136126012336251e-04 4.3251058509650439e-04
433 1.4720032491516788e-04 -3.6105877047081810e-04 -9.4573356804909814e-04
434 -5.6067378401344412e-06 5.7047721498598638e-04 -8.4024287860644112e-04
435 7.8672637307176021e-05 6.8262178283467101e-04 -7.3747400012459359e-04
436 8.8354823578375998e-04 2.4615759165630738e-04 3.7685799089419474e-04
437 8.9901043675490134e-04 3.1728608972652413e-04 2.6112411105462795e-04
438 8.4272122685771019e-04 4.3890846861810760e-04 2.7207747700520093e-04
439 7.6486566307540165e-04 2.2668719621584137e-04 6.0485600874140265e-04
440 -5.7492821575308353e-04 7.4650154363814459e-04 3.0105065376500749e-04
441 -6.8628611083486031e-04 6.7868580451624361e-04 2.0925970218178293e-04
442 6.8804678859415427e-04 -1.2690322128716764e-04 7.2585231723613279e-04
443 7.2677202815606958e-04 -2.4271572716877106e-04 6.4840327157757822e-04
444 8.1530151299795547e-04 -2.4285605909176317e-04 5.2085864915240795e-04
445 7.5249285045392463e-04 -3.5261295715939111e-04 5.5429731654405251e-04
446 8.2377011606523157e-04 -3.5935635500923606e-04 4.2368167404708217e-04
447 7.4828687745284858e-04 -4.7086204114921636e-04 4.5578917950794059e-04
448 6.6996073693482809e-04 -4.6123779739299238e-04 5.8199579261582809e-04
449 8.0458005657475752e-04 -4.7716274336760737e-04 3.2614376141574126e-04
450 8.7411933079037266e-04 -3.5663806412587502e-04 2.9776147333958146e-04
451 6.5293455910867579e-04 -5.7933543566286911e-04 4.8059976361466777e-04
452 6.9193572084089541e-04 1.3071166130726198e-04 7.2159442054227547e-04
453 -5.6228994976453980e-04 -8.0024105195480909e-04 1.2909879806237041e-04
454 2.3401476712044936e-05 -4.2806041962485609e-04 -9.2750489596241114e-04
455 8.9166544588030049e-04 3.9643417399387311e-04 1.4555246474756646e-04
456 4.7758633976597057e-04 -2.2646614983393661e-04 -8.6920634079701200e-04
457 5.1075032825876113e-04 5.4193819833802585e-04 -6.7356822358158276e-04
458 6.0624191952485804e-04 -2.4404834002010644e-04 7.7231190462196298e-04
459 1.4084587060885639e-04 9.5344367803503990e-04 2.1364084561561843e-04
460 6.3860002153078640e-04 6.8137933684666349e-04 3.2861369990399458e-04
461 3.9720110447327239e-04 5.7072031089270127e-04 -7.2881461990077800e-04
462 -4.2624860031545458e-04 7.0563540721339921e-04 5.6277995806569927e-04
463 7.7617271451971206e-04 -1.2872190340108280e-04 -6.2027521775604951e-04
464 8.6973044950081470e-04 -2.4517881346462176e-04 -4.1195526567881899e-04
465 8.6315146324855675e-04 -3.6013860900101593e-04 -3.2639585569604288e-04
466 7.4330962300624078e-06 8.2966087248623449e-04 -5.5427837301730884e-04
467 9.1931353935376277e-04 -2.3359162648701819e-04 -2.8108953984113663e-04
468 9.0767446315007561e-04 -3.4643938087873809e-04 -1.7930624970477596e-04
469 1.7566974284964355e-04 3.7058290849533619e-04 -9.3612130620575448e-04
470 8.4532426332407983e-04 -4.6922051325227321e-04 2.0428752588336945e-04
471 9.0840048323529462e-04 -3.4354130795123032e-04 1.7889330391543750e-04
472 1.9014844606146441e-04 7.8402727772544092e-04 5.9071105805841577e-04
473 1.3261465631492762e-04 -2.2422688227930292e-04 -9.9305066256230503e-04
474 2.2953348644899813e-04 -8.9286392738406454e-04 -3.6514331440441305e-04
475 5.7375397017056604e-04 7.5960370451550591e-04 -2.6542003328492770e-04
476 3.3030491417566557e-04 7.2610980838541520e-04 6.0367484903759219e-04
477 2.9862473772754278e-04 7.4017922803232630e-04 -6.0315304457698885e-04
478 -2.0082162135879624e-04 -5.7460077630944032e-04 -8.0905515870946878e-04
479 -1.7805061679604072e-04 -6.8235598477150029e-04 -7.1919865513154872e-04
480 -3.8998131224857250e-04 8.2215234656052511e-04 -3.9368466800899181e-04
481 2.1766448219182199e-04 6.8076053537942762e-04 -7.0814011607786738e-04
482 7.6096149318551326e-04 -5.8811946720095263e-04 2.3236420434406019e-04
483 8.7930910944561446e-04 -4.3935447543059884e-04 8.3205513971245501e-05
484 9.3197253510994408e-04 -3.1719453594220465e-04 5.5329952798414505e-05
485 6.0394830401044126e-04 -2.4554323622783686e-04 -7.7232224730655651e-04
486 4.0938742618632634e-04 1.9318924495309413e-04 -9.1440301848212365e-04
487 9.7648285837451240e-04 1.1930743197817207e-04 -6.7853859780458013e-05
488 9.4599264499073475e-04 2.5768992592727075e-04 -1.1379665950945106e-04
489 9.6065039161521862e-04 2.1839177891238437e-04 3.7962051608502634e-06
490 8.9288905178480204e-04 4.0734737223910143e-04 -9.7861723634203954e-05
491 3.4641606096846053e-04 9.2232057547575615e-04 1.7691167013376260e-05
492 3.0473778637514216e-04 9.2935617258990547e-04 -1.2899525308950131e-04
493 4.3886270089345296e-04 8.7952852045731524e-04 -7.0699730102051348e-05
494 9.0300972173881419e-04 -3.9397785616999802e-04 -4.0165442330654776e-05
495 9.4880632083257119e-04 -2.6234799610106439e-04 -5.7269934171730602e-05
496 -3.9856007405960448e-04 9.0078354103374553e-04 1.6504435859480604e-05
497 9.7621107002460530e-04 1.2222941070881636e-04 6.6518840587229762e-05
498 6.7926818222433937e-04 6.7495948472887242e-04 -2.4320135585620829e-04
499 9.7633555875335125e-04 -1.2376075429475824e-04 -7.2714636797332444e-05
500 9.6073321418710172e-04 -1.0542572010701499e-04 2.0371281494615609e-04
501 9.1662797240923662e-04 -1.2110599471432659e-04 -3.5758471017645826e-04
502 8.6470039459497555e-04 1.1754063080422636e-04 -4.7873378489502887e-04
503 8.6855460641329480e-04 -1.1798137681958681e-04 4.7164624961343923e-04
504 4.2991252596483214e-04 1.1424759865740932e-04 9.1918619870181011e-04
505 4.3161387582461315e-04 3.3618429886728851e-04 8.5637385498638151e-04
506 6.6181509054306508e-04 -3.5363829244020229e-04 6.6792846845585357e-04
507 3.3327128484496999e-04 -9.4404337997288360e-05 9.6426576143861145e-04
508 7.9309565959394525e-05 -1.1056058239489899e-04 1.0209782787319350e-03
509 1.7252083795510627e-04 -2.2463248644003501e-04 9.8646208046381033e-04
510 2.8369634744501281e-04 -2.0443925904492388e-04 9.6197045447980430e-04
511 -2.0384847851143945e-04 6.9832734080714205e-04 -6.9362652483941013e-04
512 2.7477186977117900e-04 9.1533024965629694e-04 2.5033218978374251e-04
513 5.8149665620781631e-04 -7.9595279519136615e-04 -3.3933597327769829e-05
514 2.5143110668197314e-04 -9.5282449580191668e-04 4.2885643569526582e-05
515 2.9685689546377487e-04 -9.2710098427127856e-04 1.6607483255964546e-04
516 -5.4995826183716374e-04 5.6288808029112205e-04 -6.1873840195064320e-04
517 7.5736333251786474e-04 -5.7950508464621616e-04 -2.6196637350412485e-04
518 -1.3744152633874936e-04 -9.7509676157445330e-04 -5.2149473755800566e-05
519 -2.7992590558978186e-04 -9.4479500141945072e-04 -5.0925613852265606e-05
520 -3.2762081382936722e-04 -9.1167687331395863e-04 -1.9179487547258794e-04
521 -7.8006384031072769e-04 5.2531698997250670e-04 -3.0597130983597880e-04
522 -9.7358240156671561e-04 9.3524300152312165e-05 -1.2396061878904504e-04
523 7.8085023936196474e-04 5.9139242601010029e-04 1.1214750678303724e-04
524 -7.8635418208781126e-04 -5.4090560988991358e-04 2.5680103143493768e-04
525 7.7733258294789454e-04 4.9540240858743953e-04 3.6363200330123577e-04
526 4.8235698205437004e-04 -7.7228497331574509e-04 -3.9518114442552138e-04
527 -9.3937443913860415e-04 -2.7909044958495017e-04 -1.0988893766350691e-04
528 -9.3192524198042474e-04 -7.9020174856469133e-05 3.2403215303997271e-04
529 -9.1068396262007666e-04 4.8512039096450292e-05 3.8972839090088067e-04
530 -8.4003663109331417e-04 5.4151210685836416e-05 5.3597533766329506e-04
531 -7.6783149444073452e-04 -6.0981413891572601e-04 -1.0656682998330344e-04
532 -9.6631475220941652e-04 -7.4804048316025088e-05 1.8542720541453502e-04
533 -7.3849197985987561e-04 5.2994869149604090e-04 3.9598805777308325e-04
534 -6.8931966533474723e-04 7.0298222823616467e-04 -2.3090511594385105e-05
535 -2.4204061031267359e-04 -9.1129915573890492e-04 -3.0108786067641080e-04
536 6.3161818916075588e-04 7.4489362283294055e-04 -1.3807296375401359e-04
537 -1.4101399954854747e-04 -8.8897821107355903e-04 4.2037547841904604e-04
538 -4.4811024890899070e-05 9.8076792749687445e-04 -8.2326237324007286e-05
539 -1.7140086457301644e-04 9.3532667864084816e-04 -2.6724378571467487e-04
540 5.9039630510109972e-05 9.6648514454100612e-04 -1.9269476989836206e-04
541 -9.3055391456368312e-04 2.7309398877277641e-04 1.8157738938291012e-04
542 -8.6108722173660408e-04 -4.3507957331012355e-04 2.1034078058584474e-04
543 -8.0462315960265929e-04 -9.3292213976631987e-05 5.8584626190759717e-04
544 -7.4870318545806793e-04 1.6439308907364680e-05 6.6831268232410575e-04
545 -6.5473608546466600e-04 -5.3486171899836473e-04 -5.2916632037693068e-04
546 -7.4360047653343356e-04 -4.2832680071020450e-04 -5.0541471941935279e-04
547 -7.5167505858384507e-04 -3.0684106670395071e-04 -5.8287037527096901e-04
548 -6.6654796766408599e-04 -2.8870706654895507e-04 -6.9539238531244815e-04
549 2.6246637973855320e-04 -8.1082923562978998e-04 5.1798430588777635e-04
550 5.8400343526458375e-04 5.8899944963872295e-04 5.5429612039249742e-04
551 8.6571636340634472e-04 3.6226092497428894e-04 -3.1357029868984282e-04
552 8.8174445907432267e-04 -2.3839647250924729e-04 3.8794765890501218e-04
553 1.6114549633678611e-04 -7.7192016636927691e-04 6.1825225698840908e-04
554 -4.5123706650771004e-04 -6.3974433037469833e-04 6.2688775552075210e-04
555 -3.9083529944844891e-04 -5.5369478041930294e-04 7.4737671177308688e-04
556 -8.2282606126847480e-04 -4.3184322089095945e-04 3.4257003514831920e-04
557 -6.0130208154748400e-04 -7.1387500769763874e-04 -3.3011834033793189e-04
558 -7.2623936103696882e-04 2.4497920662516710e-04 6.4624336462811916e-04
559 -6.8452630046267793e-04 -4.3079692260856116e-04 5.8791502631284594e-04
560 -5.9116578929484416e-04 -5.5566968701658182e-04 5.8570876067818038e-04
561 6.3622990254627088e-04 4.8954004336032629e-04 -5.9821227171950062e-04
562 -3.2878419464565104e-04 -6.7524316120996190e-04 -6.6719255096332189e-04
563 -4.9700629725913444e-04 5.2032915494948167e-04 7.0275519885904675e-04
564 7.1558134158294473e-04 -4.9019806817047172e-04 -4.8965553438173729e-04
565 -8.4638061574210112e-05 -3.0274356480495379e-04 9.7637084547582971e-04
566 -1.0452522496142237e-04 -4.3604868945817688e-04 9.1735073376600145e-04
567 -2.1201866028256158e-04 -3.3786320261042913e-04 9.4185663736736898e-04
568 -1.7462238875186491e-04 -6.6000288837183207e-04 7.4287027521386382e-04
569 4.0312786899602589e-04 -6.7618349078513260e-04 -6.1962935019833898e-04
570 -7.0770037039526732e-04 -1.0795290452959817e-04 7.0674396686285217e-04
571 5.5900362416854018e-04 3.2329655046078231e-04 7.7739952547428834e-04
572 5.1407546511623168e-04 -3.5507244042729447e-04 -7.9647081604825693e-04
573 1.4670583899351576e-04 -3.5160969691979240e-04 9.5014672710800425e-04
574 -7.3992101265212451e-04 1.9718106130420682e-04 -6.4714218037698165e-04
575 1.4616572496672150e-04 -4.9297173738925689e-04 -8.7878653741084120e-04
576 -4.5904043440698681e-04 -4.2954047021078948e-04 7.9400146218361507e-04
577 -3.3698205242313934e-04 3.9096905238427288e-04 -8.7658480541481538e-04
578 -2.7955769270849619e-04 2.8181068951060970e-04 -9.4203085285660864e-04
579 -3.3493209440779709e-04 1.5660341870053342e-04 -9.5391140460947168e-04
580 -5.1073743206542384e-04 4.9843303084365643e-06 -8.8012879460014110e-04
581 4.6484525465700308e-04 -5.6600247538073957e-04 6.9103445385051401e-04
582 4.8013886870711543e-04 -3.1519279650716486e-04 8.3711970532853505e-04
583 -4.6361354862593828e-04 1.3482757001165646e-04 -8.9712618739988211e-04
584 -4.2277326278557828e-04 2.0420031157854964e-04 9.0535274047699830e-04
585 -4.6810381155229860e-04 7.7049338197513547e-05 9.0250707834655763e-04
586 -3.4361607060681286e-04 -4.3005564120634690e-04 -8.5391705161383814e-04
587 3.0937332403078213e-05 9.4334726832494406e-04 2.9491998074100879e-04
588 -4.1992049146534743e-04 -9.4548212945795671e-05 -9.2601673555286047e-04
589 -2.9079635858823589e-04 -4.4866031725020635e-05 -9.8248214287020613e-04
590 -1.8463164152651826e-04 -1.2402800794442852e-04 -1.0032644529993989e-03
591 -1.7609672802745962e-04 4.4419610872431276e-04 9.0018924964095713e-04
592 -5.0638390089753095e-04 7.8988661491158807e-04 -3.1308482060975808e-04
593 -2.8157955189182375e-04 5.3433077029286856e-06 9.8648680511970090e-04
594 3.5761848603777077e-04 2.2837495816414250e-04 9.2969763106948774e-04
595 -7.9461722221321719e-04 5.5605542794043880e-04 1.8104376831247761e-04
596 4.2788935071820901e-04 -8.7117444553630366e-04 1.8359737625468488e-04
597 1.0312241625172476e-04 4.6684965440137388e-04 9.0025408374132970e-04
598 3.2589251453353702e-04 8.9270900288049239e-04 -2.7087244476948119e-04
599 1.8806975059871206e-04 -6.7053297698002384e-04 7.2917639511167330e-04
600 -5.2524617146575017e-04 -8.0034169619678825e-04 2.4627481071180085e-04
601 -8.3790209813829313e-04 4.0281327900021157e-04 -3.3953898547517695e-04
602 -8.0489898568302193e-04 3.4289633345367085e-04 -4.7215514806403335e-04
603 -7.3649342234839656e-04 -5.3625105864888573e-04 -3.9402531274286453e-04
604 -9.0306158206758394e-04 1.3533699460581316e-04 -3.8532815017231560e-04
605 -4.0048294479396585e-04 -9.0066131979916987e-04 1.5502545947723260e-05
606 -3.3116889323783766e-04 8.4388348320585459e-04 4.0203757208907750e-04
607 6.0372058416122414e-05 1.3963690894730011e-04 1.0166620053646633e-03
608 -4.4052446231671959e-05 7.8129702945212479e-04 6.2523819344558157e-04
609 -7.4881707973279191e-04 -1.7638558559519678e-04 -6.4284504598875161e-04
610 9.4479642674622725e-04 2.5265204750930098e-04 1.3488946431385366e-04
611 4.1439736234407407e-04 -9.2739225157661702e-05 -9.2965996405874592e-04
612 9.2133828020176983e-04 1.2873515547543268e-04 3.4066803354590387e-04
613 -3.7050177238982741e-04 -8.6195233236577296e-04 -3.1634562996186506e-04
614 5.5326780513985622e-05 -7.9007130348352395e-04 -6.1336430860706745e-04
615 4.6700812545173048e-04 -8.6757247677057283e-04 -4.4970531132363383e-05
616 -6.7453155637502095e-04 -6.9229777529910283e-04 -2.0497482889709584e-04
617 -9.2342869449105495e-04 -2.4977596577132504e-04 -2.4690761538424637e-04
618 -6.1793329075347141e-04 4.4594624041827379e-04 -6.5177861669332867e-04
619 1.8601826898136404e-04 -9.4347068867538882e-04 -2.3072828298857510e-04
620 -3.5381383261901747e-05 -9.3327211136510233e-04 3.3037477052063761e-04
621 3.8794169458463307e-04 -7.6824266714826028e-04 -5.0216595000343795e-04
622 -2.2922422116206047e-04 -4.6265048990855480e-04 8.7701782387134052e-04
623 7.8674172443325685e-04 -4.8072260451442154e-04 -3.6504115067456563e-04
624 9.2115770404403144e-04 1.1922972790029514e-04 -3.4475826973481778e-04
625 -4.1135463577544109e-04 6.1927971463888369e-04 6.7457596488467678e-04
626 -2.6414729493974358e-04 -5.6953521754439409e-04 7.9352395089370197e-04
627 -1.1062027655822174e-04 5.5621051176488689e-04 8.4156033850927810e-04
628 4.6763931573752862e-04 8.6558499630219241e-04 5.7121399307337918e-05
629 -9.5257217002951223e-04 4.8407043426567930e-05 2.5774036994942592e-04
630 -5.9011827370244910e-04 7.7245625697766097e-04 1.6609431120920843e-04
631 -8.2743142431869390e-04 -1.9466713581753339e-04 -5.2005404723286794e-04
632 -4.0263368110436356e-04 8.6491354924439826e-04 -2.5602887070151381e-04
633 9.2100164114871882e-04 2.4449680694583423e-04 -2.6259672563641720e-04
634 -3.4774582635807409e-04 9.6596688804170773e-05 9.5814038072292791e-04
635 3.8566519792763423e-04 -9.0577932234658150e-04 6.3780629777305097e-05
636 -6.1559305930233889e-05 -9.6499775572244110e-04 2.0169466141033062e-04
637 -5.0166805383909739e-04 -6.6611408141743739e-05 8.8336703658823811e-04
638 4.3157495530212549e-04 2.6614407958502298e-04 -8.8179252615395564e-04
639 4.5881192326432192e-04 -1.0941810599113303e-04 9.0433251616172424e-04
640 -6.0783859189949429e-05 6.8731809025753378e-04 -7.3416504366304698e-04
641 -9.4526232952537312e-04 2.2252696746610575e-04 -1.7234699279877153e-04
642 -8.7395109840313339e-04 2.7227647679735535e-04 -3.7925563383239277e-04
643 2.8968698531122659e-04 -7.2393704379803054e-04 6.3014022147200703e-04
644 5.6959797149145849e-04 -4.6086511289757196e-04 6.8897245697053969e-04
645 6.3110211201827067e-04 2.1708776385604195e-04 -7.5735665532363546e-04
646 -2.1068720411077460e-04 1.1817061414106391e-04 9.9816551313351731e-04
647 2.9554470790943782e-05 5.5995149562629656e-04 8.4638195903960945e-04
648 -7.4149955729616566e-04 5.8378955210355930e-04 2.9158939205162280e-04
649 -2.7351090990060931e-04 9.4371611464186679e-04 7.4640939106802295e-05
650 9.2618900375652136e-04 -2.2947120623665406e-04 2.5959637236272183e-04
651 -4.6311225871045611e-04 -8.4923134215712944e-04 -2.0169958422857660e-04
652 -8.6995321862661271e-04 -3.4143599817594247e-04 -3.2511324249490662e-04
653 -2.0528312978878181e-04 1.6657427339484974e-04 -9.9168523414316467e-04
654 8.3717149862012148e-04 -4.6822182696647138e-04 -2.3839380837135227e-04
655 -7.2093894811535799e-04 4.0634659911829504e-04 -5.5733553566941340e-04
656 6.8136091892326452e-04 -1.3040823356618092e-04 -7.3152534028503996e-04
657 -7.4071110735996750e-04 -5.3272232728827462e-04 3.8884169246879814e-04
658 -3.8369891432448095e-04 4.1305356397064115e-05 -9.4683499320970331e-04
659 -1.6191671892501621e-04 7.4074600253265354e-06 -1.0162843039074360e-03
660 -2.3994129085075922e-05 -5.9984363126726310e-06 -1.0284639189191212e-03
661 8.4365866109601306e-04 -5.0994631025556218e-04 -1.8780190463814560e-05
662 3.2796685953879394e-05 -2.7554536054901315e-04 9.8871057756067774e-04
663 5.1868049450162095e-04 8.2251465853330427e-04 -1.6495269045612937e-04
664 -2.9124595057561641e-04 9.3942167836791476e-04 -5.7591174159259318e-05
665 -2.9371218579007187e-04 9.2102558066858777e-04 -1.9703304129954809e-04
666 -5.6690372415521220e-05 1.2489429337373081e-04 -1.0201012545555720e-03
667 2.6108161985082765e-04 -8.2817977403358187e-04 -4.8729180983031494e-04
668 -5.7725390804259859e-04 3.9996392804880116e-05 8.3305456229149013e-04
669 -8.2318688104326910e-04 -3.2065211211343674e-04 -4.5482881089968670e-04
670 -4.9306999642293240e-04 8.4832419066820130e-04 9.1089806091803192e-05
671 -9.5557128954912849e-04 1.4918387702848236e-04 1.9144555524347904e-04
672 5.6004336711130000e-04 -3.5571556846846072e-04 7.6062855000514241e-04
673 -1.2030060687957935e-05 2.5014845580485258e-04 -9.9538087996878721e-04
674 -1.9212331295176971e-04 -9.5541295227921565e-04 1.5577387228088229e-04
675 4.1616869819651820e-04 7.4032190628838294e-04 5.1980451713237112e-04
676 7.6050683996133094e-05 7.3988459574070688e-04 6.7500847409359592e-04
677 4.9284269311187590e-04 2.2285978226633369e-04 8.6060342533240714e-04
678 -4.7778694856874434e-04 -7.8357253696480960e-04 3.7486186574177562e-04
679 2.7015546516826394e-04 -6.0559411639501986e-05 -9.8854066856064043e-04
680 3.9886461532995335e-04 -6.6535324022792331e-04 6.3445339236692930e-04
681 -8.7606780229590290e-04 1.5694864353268213e-04 4.3901968158073122e-04
682 -8.8976580078424332e-04 4.2089908410897138e-04 2.1943487498003899e-05
683 -7.3116502744383880e-05 2.9450970898155114e-06 1.0258282926422049e-03
684 3.3734849805591016e-04 -9.2497613890736466e-04 -5.7271451048750752e-05
685 4.1391149631941053e-04 8.7518560562950044e-04 -1.8595527592777996e-04
686 1.7815867410671827e-04 -7.9668303619839938e-04 -5.7535812296375082e-04
687 1.7635015282788834e-04 9.6153176972129761e-04 -1.2076760645650249e-04
688 -8.0463418618202708e-04 -4.2181998031126509e-04 -3.9560877819801160e-04
689 -5.3265366086987132e-04 -6.6250857132016578e-04 5.1877826103695465e-04
690 5.8283720281661203e-04 -6.8333263200067319e-04 4.2310907293797127e-04
691 9.5309478326188800e-04 -2.1517777986977408e-04 1.3744330793802971e-04
692 -6.9408768296692967e-04 -5.1416692692148936e-04 4.9355749155443284e-04
693 9.2863837904135535e-04 2.1577531874618987e-04 2.5857323598640344e-04
694 -1.7389452073881184e-04 9.6068536688668506e-04 -1.3490872546769006e-04
695 8.9974343758165683e-04 3.4989553136672582e-04 -2.0284903941596551e-04
696 -4.9624824882513523e-05 6.7269512310388240e-04 7.5136929683177584e-04
697 -3.3157253753278248e-04 -4.7349173145460195e-04 8.3280642054880494e-04
698 9.2390325162617899e-04 3.4418723578295791e-04 1.7001262602669982e-05
699 -5.0169367923855797e-04 -5.1998053282928966e-04 6.9913756456437080e-04
700 -6.6262857826345043e-04 -4.9675354799516347e-06 7.6024102637612019e-04
701 5.8255697554198901e-04 -5.4619066979157149e-04 6.0290479400481743e-04
702 -6.8872647078480455e-04 -6.3146751124363220e-04 -3.2476591675135476e-04
703 -7.6119110671385806e-04 2.9022130668815318e-04 -5.7653370538058993e-04
704 4.4831978492736968e-05 3.4988161310185836e-04 -9.6092660156089883e-04
705 3.2673748319874817e-04 6.4898192851045654e-04 -6.9350644751995738e-04
706 -3.2023922414966134e-04 6.9651489120329624e-04 6.4445514649365688e-04
707 1.0308138114174402e-04 -9.2258588434427789e-04 -3.4423370682764556e-04
708 -6.6224782070452770e-04 7.2270612910821743e-04 9.2073255916951324e-05
709 1.6982693703070235e-05 7.5655629357850778e-04 -6.5701644789934854e-04
710 -4.1417088000091654e-04 7.7188080194881537e-04 4.6841714517468645e-04
711 -9.1979642679643171e-04 2.0925146910229708e-04 -2.9253710340576544e-04
712 7.8708457249640701e-04 1.0517097305643234e-04 6.0861820978737736e-04
713 -2.1643928469038980e-04 -7.5275776801025040e-04 -6.2326219489758231e-04
714 6.4592740271835359e-04 3.4614033514076187e-04 -6.8841097044329243e-04
715 -2.0294727973297274e-04 -9.6336312445129363e-04 3.9010762298059346e-05
716 -2.8122239927760151e-04 7.6824818728140197e-05 -9.8234964506255435e-04
717 -3.9132745589956123e-04 -8.9926106814512035e-04 -9.7501592762052117e-05
718 5.0193690210127890e-04 -1.9991980513269243e-04 8.6067114680457081e-04
719 7.3571134138616478e-04 -5.5546549235544189e-04 3.6354899200804775e-04
720 8.3917850040867142e-04 4.9361502348378315e-04 1.5425742472877313e-04
721 2.2648387495751796e-04 -1.6799931129438171e-04 -9.8567760011839499e-04
722 -5.6582003870184379e-04 -7.7254446635205551e-04 -2.4076168027022568e-04
723 6.7145737814240159e-05 6.7454946844579461e-05 -1.0244579621151782e-03
724 -1.9364214352032938e-04 7.2153587816164240e-04 6.7192613557149207e-04
725 8.6520722408665743e-04 -4.5582996115384341e-04 -1.2470533528124853e-04
726 5.9912187065233971e-04 2.1518088031448148e-04 7.8470598372893860e-04
727 7.8258766172962287e-04 5.5249845637172341e-04 2.3935390777986141e-04
728 5.5733997224924510e-04 5.9995556146192079e-04 -5.7062169860695700e-04
729 5.0332641617452855e-04 9.2196571444593924e-05 -8.7887205015520925e-04
730 7.1702055713290336e-04 5.9902476875534430e-04 3.2417818216029124e-04
731 -2.6017743941483568e-04 -6.2785869279768610e-04 -7.4288164149407838e-04
732 3.5020838638688849e-04 6.3211121625180453e-04 6.9823396084695553e-04
733 -7.2679661641777702e-05 9.6240178244858009e-04 -2.0077558057957694e-04
734 -2.4203870337515055e-04 -4.9147136006167833e-04 -8.5481640723597963e-04
735 9.4809347210386631e-04 -2.1859305071461721e-04 -1.6194520851410966e-04
736 9.6508659819851599e-04 -1.9727853638172477e-04 2.2425999873671421e-05
737 -2.6020615937833972e-05 -5.9911724874587454e-05 1.0268795377605308e-03
738 -5.0219619263839135e-04 -8.4598500258602184e-04 5.2377943665511574e-05
739 5.3163911931547285e-04 2.0263591744008037e-04 -8.3990808741735742e-04
740 -7.6354598251815551e-04 1.2574450472302206e-04 6.3516417321001948e-04
741 -1.6389939032270120e-04 4.9354112598269578e-05 1.0130311522320006e-03
742 -5.4342288762829389e-04 -7.1226833669647436e-04 4.2637075867498077e-04
743 -2.1606498322876791e-05 4.5296805620099730e-04 -9.1271986363635014e-04
744 2.9663396527358424e-04 -9.2636087241168704e-04 -1.6417980996325944e-04
745 -7.6777803293821394e-05 -6.9014714624431137e-04 -7.2835010437787570e-04
$EndNodes
$Elements
1486
1 2 2 0 0 410 440 345
2 2 2 0 0 421 541 409
3 2 2 0 0 409 682 421
4 2 2 0 0 545 603 546
5 2 2 0 0 426 427 294
6 2 2 0 0 294 454 426
7 2 2 0 0 265 682 409
8 2 2 0 0 24 41 4
9 2 2 0 0 3 24 4
10 2 2 0 0 238 642 602
11 2 2 0 0 520 651 613
12 2 2 0 0 653 666 659
13 2 2 0 0 404 460 98
14 2 2 0 0 222 482 219
15 2 2 0 0 40 463 9
16 2 2 0 0 608 724 696
17 2 2 0 0 435 709 69
18 2 2 0 0 413 439 29
19 2 2 0 0 345 710 410
20 2 2 0 0 422 463 40
21 2 2 0 0 98 550 404
22 2 2 0 0 95 724 608
23 2 2 0 0 4 41 5
24 2 2 0 0 232 701 581
25 2 2 0 0 490 698 488
26 2 2 0 0 29 436 413
27 2 2 0 0 416 421 342
28 2 2 0 0 312 595 441
29 2 2 0 0 41 486 5
30 2 2 0 0 405 605 519
31 2 2 0 0 409 595 265
32 2 2 0 0 69 481 435
33 2 2 0 0 434 743 339
34 2 2 0 0 342 641 416
35 2 2 0 0 485 656 370
36 2 2 0 0 89 587 90
37 2 2 0 0 108 466 317
38 2 2 0 0 378 629 529
39 2 2 0 0 581 680 232
40 2 2 0 0 281 434 339
41 2 2 0 0 638 739 486
42 2 2 0 0 659 666 660
43 2 2 0 0 345 440 346
44 2 2 0 0 22 44 25
45 2 2 0 0 9 463 8
46 2 2 0 0 44 81 25
47 2 2 0 0 459 587 89
48 2 2 0 0 127 670 630
49 2 2 0 0 508 662 509
50 2 2 0 0 375 662 508
51 2 2 0 0 492 598 103
52 2 2 0 0 604 642 238
53 2 2 0 0 507 510 399
54 2 2 0 0 488 698 489
55 2 2 0 0 34 473 415
56 2 2 0 0 399 639 507
57 2 2 0 0 603 688 546
58 2 2 0 0 316 541 421
59 2 2 0 0 647 696 627
60 2 2 0 0 403 439 352
61 2 2 0 0 221 603 545
62 2 2 0 0 595 648 441
63 2 2 0 0 412 550 98
64 2 2 0 0 411 714 397
65 2 2 0 0 486 739 729
66 2 2 0 0 696 724 401
67 2 2 0 0 247 482 222
68 2 2 0 0 397 714 645
69 2 2 0 0 613 651 212
70 2 2 0 0 207 745 425
71 2 2 0 0 98 675 412
72 2 2 0 0 219 482 230
73 2 2 0 0 560 692 432
74 2 2 0 0 432 689 560
75 2 2 0 0 454 575 426
76 2 2 0 0 352 439 413
77 2 2 0 0 415 420 2
78 2 2 0 0 40 464 422
79 2 2 0 0 89 512 459
80 2 2 0 0 425 614 207
81 2 2 0 0 377 600 453
82 2 2 0 0 89 90 88
83 2 2 0 0 80 466 108
84 2 2 0 0 520 717 651
85 2 2 0 0 602 703 238
86 2 2 0 0 103 687 492
87 2 2 0 0 253 491 424
88 2 2 0 0 69 709 466
89 2 2 0 0 424 512 253
90 2 2 0 0 369 696 647
91 2 2 0 0 581 701 644
92 2 2 0 0 630 670 392
93 2 2 0 0 32 656 485
94 2 2 0 0 459 512 424
95 2 2 0 0 90 91 88
96 2 2 0 0 427 478 294
97 2 2 0 0 488 695 490
98 2 2 0 0 554 699 560
99 2 2 0 0 67 80 79
100 2 2 0 0 252 454 294
101 2 2 0 0 253 628 491
102 2 2 0 0 529 681 378
103 2 2 0 0 519 715 405
104 2 2 0 0 440 441 346
105 2 2 0 0 605 717 519
106 2 2 0 0 403 452 439
107 2 2 0 0 507 639 21
108 2 2 0 0 565 567 566
109 2 2 0 0 433 454 341
110 2 2 0 0 67 466 80
111 2 2 0 0 555 697 576
112 2 2 0 0 491 628 493
113 2 2 0 0 389 641 342
114 2 2 0 0 429 619 474
115 2 2 0 0 40 501 464
116 2 2 0 0 576 699 555
117 2 2 0 0 311 600 377
118 2 2 0 0 567 622 566
119 2 2 0 0 433 575 454
120 2 2 0 0 378 671 629
121 2 2 0 0 79 540 103
122 2 2 0 0 341 473 433
123 2 2 0 0 673 704 68
124 2 2 0 0 462 710 345
125 2 2 0 0 557 722 616
126 2 2 0 0 573 662 343
127 2 2 0 0 370 656 463
128 2 2 0 0 341 454 252
129 2 2 0 0 616 702 557
130 2 2 0 0 6 26 7
131 2 2 0 0 464 501 467
132 2 2 0 0 433 473 406
133 2 2 0 0 8 45 37
134 2 2 0 0 466 709 317
135 2 2 0 0 457 461 379
136 2 2 0 0 84 512 86
137 2 2 0 0 19 452 33
138 2 2 0 0 380 614 425
139 2 2 0 0 83 540 79
140 2 2 0 0 398 510 509
141 2 2 0 0 609 631 137
142 2 2 0 0 18 442 36
143 2 2 0 0 26 45 7
144 2 2 0 0 565 566 343
145 2 2 0 0 80 83 79
146 2 2 0 0 560 689 554
147 2 2 0 0 134 137 136
148 2 2 0 0 68 469 42
149 2 2 0 0 659 716 653
150 2 2 0 0 619 707 474
151 2 2 0 0 497 610 39
152 2 2 0 0 137 138 136
153 2 2 0 0 283 573 343
154 2 2 0 0 506 644 448
155 2 2 0 0 499 735 31
156 2 2 0 0 81 97 25
157 2 2 0 0 45 46 37
158 2 2 0 0 585 668 637
159 2 2 0 0 495 735 499
160 2 2 0 0 399 510 398
161 2 2 0 0 509 573 398
162 2 2 0 0 442 443 36
163 2 2 0 0 1 607 314
164 2 2 0 0 29 612 436
165 2 2 0 0 547 631 609
166 2 2 0 0 360 595 409
167 2 2 0 0 421 682 342
168 2 2 0 0 426 575 327
169 2 2 0 0 123 577 235
170 2 2 0 0 339 743 417
171 2 2 0 0 7 45 8
172 2 2 0 0 3 723 24
173 2 2 0 0 418 666 653
174 2 2 0 0 59 60 58
175 2 2 0 0 620 636 193
176 2 2 0 0 42 469 47
177 2 2 0 0 65 67 66
178 2 2 0 0 509 662 573
179 2 2 0 0 470 482 247
180 2 2 0 0 368 476 472
181 2 2 0 0 530 740 337
182 2 2 0 0 253 512 84
183 2 2 0 0 455 698 282
184 2 2 0 0 61 65 62
185 2 2 0 0 59 61 60
186 2 2 0 0 91 472 88
187 2 2 0 0 90 92 91
188 2 2 0 0 19 442 18
189 2 2 0 0 464 465 423
190 2 2 0 0 706 724 118
191 2 2 0 0 456 611 32
192 2 2 0 0 379 477 61
193 2 2 0 0 417 743 704
194 2 2 0 0 314 683 1
195 2 2 0 0 442 458 443
196 2 2 0 0 11 28 12
197 2 2 0 0 61 62 60
198 2 2 0 0 118 724 95
199 2 2 0 0 22 25 23
200 2 2 0 0 247 483 470
201 2 2 0 0 281 640 434
202 2 2 0 0 197 667 474
203 2 2 0 0 86 512 89
204 2 2 0 0 417 704 673
205 2 2 0 0 451 690 230
206 2 2 0 0 27 442 19
207 2 2 0 0 637 668 229
208 2 2 0 0 60 475 58
209 2 2 0 0 489 610 497
210 2 2 0 0 307 573 283
211 2 2 0 0 61 477 65
212 2 2 0 0 65 66 62
213 2 2 0 0 544 740 530
214 2 2 0 0 230 719 451
215 2 2 0 0 18 452 19
216 2 2 0 0 268 569 269
217 2 2 0 0 32 485 456
218 2 2 0 0 627 696 401
219 2 2 0 0 24 42 41
220 2 2 0 0 20 27 19
221 2 2 0 0 330 461 457
222 2 2 0 0 506 672 644
223 2 2 0 0 472 476 87
224 2 2 0 0 468 495 494
225 2 2 0 0 88 472 87
226 2 2 0 0 121 577 123
227 2 2 0 0 327 575 276
228 2 2 0 0 422 464 423
229 2 2 0 0 47 63 49
230 2 2 0 0 458 506 443
231 2 2 0 0 232 690 451
232 2 2 0 0 28 487 12
233 2 2 0 0 80 107 83
234 2 2 0 0 608 696 676
235 2 2 0 0 356 481 355
236 2 2 0 0 138 238 136
237 2 2 0 0 137 139 138
238 2 2 0 0 729 739 26
239 2 2 0 0 81 99 97
240 2 2 0 0 46 50 37
241 2 2 0 0 463 656 8
242 2 2 0 0 443 444 36
243 2 2 0 0 68 704 469
244 2 2 0 0 24 68 42
245 2 2 0 0 16 503 30
246 2 2 0 0 65 69 67
247 2 2 0 0 67 79 66
248 2 2 0 0 676 696 369
249 2 2 0 0 59 379 61
250 2 2 0 0 90 93 92
251 2 2 0 0 464 467 465
252 2 2 0 0 441 708 312
253 2 2 0 0 483 484 471
254 2 2 0 0 427 479 478
255 2 2 0 0 245 564 244
256 2 2 0 0 470 483 471
257 2 2 0 0 473 721 406
258 2 2 0 0 555 699 554
259 2 2 0 0 47 469 63
260 2 2 0 0 63 355 49
261 2 2 0 0 62 64 60
262 2 2 0 0 80 108 107
263 2 2 0 0 107 539 83
264 2 2 0 0 139 140 138
265 2 2 0 0 99 100 97
266 2 2 0 0 81 236 99
267 2 2 0 0 46 51 50
268 2 2 0 0 443 445 444
269 2 2 0 0 24 419 68
270 2 2 0 0 69 466 67
271 2 2 0 0 79 103 66
272 2 2 0 0 65 477 69
273 2 2 0 0 547 548 321
274 2 2 0 0 93 94 92
275 2 2 0 0 467 468 465
276 2 2 0 0 333 664 649
277 2 2 0 0 55 498 56
278 2 2 0 0 56 498 72
279 2 2 0 0 12 499 31
280 2 2 0 0 63 356 355
281 2 2 0 0 108 110 107
282 2 2 0 0 139 141 140
283 2 2 0 0 100 101 97
284 2 2 0 0 236 248 99
285 2 2 0 0 81 594 236
286 2 2 0 0 51 52 50
287 2 2 0 0 192 515 195
288 2 2 0 0 445 446 444
289 2 2 0 0 477 481 69
290 2 2 0 0 94 95 92
291 2 2 0 0 93 96 94
292 2 2 0 0 63 408 356
293 2 2 0 0 108 111 110
294 2 2 0 0 110 117 107
295 2 2 0 0 139 154 141
296 2 2 0 0 141 142 140
297 2 2 0 0 51 53 52
298 2 2 0 0 100 102 101
299 2 2 0 0 236 250 248
300 2 2 0 0 445 447 446
301 2 2 0 0 52 388 50
302 2 2 0 0 277 622 567
303 2 2 0 0 95 608 92
304 2 2 0 0 94 118 95
305 2 2 0 0 93 104 96
306 2 2 0 0 51 561 53
307 2 2 0 0 408 434 356
308 2 2 0 0 53 54 52
309 2 2 0 0 445 448 447
310 2 2 0 0 108 317 111
311 2 2 0 0 141 143 142
312 2 2 0 0 142 225 140
313 2 2 0 0 102 166 101
314 2 2 0 0 250 325 248
315 2 2 0 0 100 258 102
316 2 2 0 0 53 55 54
317 2 2 0 0 447 449 446
318 2 2 0 0 236 505 250
319 2 2 0 0 104 105 96
320 2 2 0 0 53 57 55
321 2 2 0 0 55 56 54
322 2 2 0 0 448 451 447
323 2 2 0 0 14 39 15
324 2 2 0 0 317 511 111
325 2 2 0 0 10 40 9
326 2 2 0 0 143 144 142
327 2 2 0 0 57 58 55
328 2 2 0 0 8 37 9
329 2 2 0 0 14 38 13
330 2 2 0 0 166 314 101
331 2 2 0 0 18 36 17
332 2 2 0 0 16 29 17
333 2 2 0 0 33 504 20
334 2 2 0 0 325 365 248
335 2 2 0 0 199 202 196
336 2 2 0 0 7 32 6
337 2 2 0 0 434 435 356
338 2 2 0 0 74 75 73
339 2 2 0 0 223 239 234
340 2 2 0 0 74 76 75
341 2 2 0 0 72 74 73
342 2 2 0 0 231 549 201
343 2 2 0 0 202 205 204
344 2 2 0 0 226 227 214
345 2 2 0 0 272 275 271
346 2 2 0 0 276 318 275
347 2 2 0 0 213 214 209
348 2 2 0 0 76 77 75
349 2 2 0 0 210 231 201
350 2 2 0 0 16 30 15
351 2 2 0 0 205 209 208
352 2 2 0 0 202 204 196
353 2 2 0 0 318 406 340
354 2 2 0 0 195 196 193
355 2 2 0 0 322 420 415
356 2 2 0 0 239 240 234
357 2 2 0 0 163 588 168
358 2 2 0 0 12 31 11
359 2 2 0 0 56 72 71
360 2 2 0 0 425 426 327
361 2 2 0 0 19 33 20
362 2 2 0 0 168 224 215
363 2 2 0 0 209 568 216
364 2 2 0 0 318 433 406
365 2 2 0 0 269 271 270
366 2 2 0 0 268 269 245
367 2 2 0 0 21 639 20
368 2 2 0 0 84 85 82
369 2 2 0 0 181 207 183
370 2 2 0 0 269 272 271
371 2 2 0 0 272 276 275
372 2 2 0 0 242 243 240
373 2 2 0 0 102 167 166
374 2 2 0 0 223 234 233
375 2 2 0 0 283 343 227
376 2 2 0 0 205 208 204
377 2 2 0 0 213 226 214
378 2 2 0 0 271 572 347
379 2 2 0 0 243 268 245
380 2 2 0 0 335 398 307
381 2 2 0 0 303 555 554
382 2 2 0 0 226 283 227
383 2 2 0 0 347 485 370
384 2 2 0 0 195 199 196
385 2 2 0 0 205 213 209
386 2 2 0 0 246 322 252
387 2 2 0 0 76 78 77
388 2 2 0 0 133 163 135
389 2 2 0 0 163 168 164
390 2 2 0 0 322 415 341
391 2 2 0 0 227 361 214
392 2 2 0 0 191 198 189
393 2 2 0 0 78 84 82
394 2 2 0 0 209 216 208
395 2 2 0 0 78 82 77
396 2 2 0 0 216 303 266
397 2 2 0 0 417 418 362
398 2 2 0 0 314 607 101
399 2 2 0 0 339 362 280
400 2 2 0 0 243 245 244
401 2 2 0 0 187 291 185
402 2 2 0 0 429 430 359
403 2 2 0 0 143 145 144
404 2 2 0 0 202 553 205
405 2 2 0 0 339 417 362
406 2 2 0 0 131 580 133
407 2 2 0 0 239 242 240
408 2 2 0 0 57 59 58
409 2 2 0 0 224 246 215
410 2 2 0 0 84 86 85
411 2 2 0 0 303 554 266
412 2 2 0 0 72 73 71
413 2 2 0 0 437 438 414
414 2 2 0 0 318 340 275
415 2 2 0 0 269 270 245
416 2 2 0 0 86 87 85
417 2 2 0 0 192 193 191
418 2 2 0 0 123 235 129
419 2 2 0 0 263 374 262
420 2 2 0 0 425 427 426
421 2 2 0 0 149 150 147
422 2 2 0 0 210 232 231
423 2 2 0 0 74 373 76
424 2 2 0 0 168 215 169
425 2 2 0 0 259 262 249
426 2 2 0 0 145 146 144
427 2 2 0 0 367 524 289
428 2 2 0 0 271 347 270
429 2 2 0 0 406 407 340
430 2 2 0 0 334 459 424
431 2 2 0 0 429 474 430
432 2 2 0 0 250 328 325
433 2 2 0 0 431 432 367
434 2 2 0 0 104 278 105
435 2 2 0 0 145 147 146
436 2 2 0 0 151 152 150
437 2 2 0 0 235 583 129
438 2 2 0 0 237 249 228
439 2 2 0 0 149 151 150
440 2 2 0 0 159 161 158
441 2 2 0 0 153 155 152
442 2 2 0 0 156 158 155
443 2 2 0 0 354 367 289
444 2 2 0 0 259 263 262
445 2 2 0 0 190 191 189
446 2 2 0 0 177 221 174
447 2 2 0 0 162 228 161
448 2 2 0 0 124 516 386
449 2 2 0 0 418 653 578
450 2 2 0 0 371 584 295
451 2 2 0 0 151 153 152
452 2 2 0 0 153 156 155
453 2 2 0 0 159 162 161
454 2 2 0 0 374 593 262
455 2 2 0 0 156 159 158
456 2 2 0 0 237 259 249
457 2 2 0 0 146 284 160
458 2 2 0 0 266 309 267
459 2 2 0 0 264 265 257
460 2 2 0 0 86 88 87
461 2 2 0 0 265 312 257
462 2 2 0 0 162 237 228
463 2 2 0 0 21 44 22
464 2 2 0 0 324 392 390
465 2 2 0 0 371 585 584
466 2 2 0 0 262 366 249
467 2 2 0 0 192 195 193
468 2 2 0 0 263 375 374
469 2 2 0 0 216 266 217
470 2 2 0 0 326 327 276
471 2 2 0 0 260 646 166
472 2 2 0 0 220 223 222
473 2 2 0 0 322 341 252
474 2 2 0 0 256 257 255
475 2 2 0 0 78 253 84
476 2 2 0 0 358 359 242
477 2 2 0 0 188 189 187
478 2 2 0 0 281 339 280
479 2 2 0 0 146 160 144
480 2 2 0 0 123 129 128
481 2 2 0 0 255 324 254
482 2 2 0 0 228 229 161
483 2 2 0 0 354 431 367
484 2 2 0 0 163 164 135
485 2 2 0 0 155 157 152
486 2 2 0 0 243 244 240
487 2 2 0 0 256 264 257
488 2 2 0 0 284 316 160
489 2 2 0 0 380 425 327
490 2 2 0 0 148 149 147
491 2 2 0 0 335 399 398
492 2 2 0 0 418 578 362
493 2 2 0 0 334 424 396
494 2 2 0 0 167 260 166
495 2 2 0 0 325 368 365
496 2 2 0 0 428 429 359
497 2 2 0 0 165 255 254
498 2 2 0 0 297 342 264
499 2 2 0 0 298 371 295
500 2 2 0 0 218 323 220
501 2 2 0 0 310 337 302
502 2 2 0 0 165 256 255
503 2 2 0 0 186 187 185
504 2 2 0 0 56 71 70
505 2 2 0 0 165 254 125
506 2 2 0 0 200 201 199
507 2 2 0 0 148 206 149
508 2 2 0 0 324 390 364
509 2 2 0 0 190 192 191
510 2 2 0 0 368 369 365
511 2 2 0 0 353 404 351
512 2 2 0 0 104 331 278
513 2 2 0 0 256 297 264
514 2 2 0 0 316 421 416
515 2 2 0 0 239 358 242
516 2 2 0 0 169 586 171
517 2 2 0 0 286 287 206
518 2 2 0 0 324 364 254
519 2 2 0 0 241 576 162
520 2 2 0 0 168 169 164
521 2 2 0 0 121 123 122
522 2 2 0 0 266 267 217
523 2 2 0 0 129 131 130
524 2 2 0 0 216 217 208
525 2 2 0 0 285 382 313
526 2 2 0 0 172 321 170
527 2 2 0 0 390 391 364
528 2 2 0 0 296 563 300
529 2 2 0 0 246 252 251
530 2 2 0 0 285 286 206
531 2 2 0 0 288 289 287
532 2 2 0 0 298 372 371
533 2 2 0 0 23 35 22
534 2 2 0 0 300 344 304
535 2 2 0 0 344 462 345
536 2 2 0 0 123 128 122
537 2 2 0 0 297 389 342
538 2 2 0 0 237 277 259
539 2 2 0 0 148 285 206
540 2 2 0 0 86 89 88
541 2 2 0 0 306 307 283
542 2 2 0 0 234 279 233
543 2 2 0 0 316 416 160
544 2 2 0 0 188 190 189
545 2 2 0 0 85 98 82
546 2 2 0 0 358 428 359
547 2 2 0 0 437 455 438
548 2 2 0 0 203 210 201
549 2 2 0 0 382 383 313
550 2 2 0 0 153 176 156
551 2 2 0 0 290 354 289
552 2 2 0 0 159 241 162
553 2 2 0 0 386 387 126
554 2 2 0 0 273 363 338
555 2 2 0 0 272 326 276
556 2 2 0 0 171 293 173
557 2 2 0 0 145 148 147
558 2 2 0 0 274 295 261
559 2 2 0 0 285 313 286
560 2 2 0 0 383 384 313
561 2 2 0 0 301 302 299
562 2 2 0 0 131 133 132
563 2 2 0 0 296 298 295
564 2 2 0 0 305 310 302
565 2 2 0 0 349 412 328
566 2 2 0 0 344 345 304
567 2 2 0 0 77 119 75
568 2 2 0 0 315 378 310
569 2 2 0 0 363 401 400
570 2 2 0 0 332 333 278
571 2 2 0 0 223 233 222
572 2 2 0 0 331 334 332
573 2 2 0 0 186 188 187
574 2 2 0 0 178 212 177
575 2 2 0 0 305 360 315
576 2 2 0 0 334 396 395
577 2 2 0 0 246 251 215
578 2 2 0 0 167 261 260
579 2 2 0 0 175 179 178
580 2 2 0 0 345 346 304
581 2 2 0 0 124 386 126
582 2 2 0 0 286 288 287
583 2 2 0 0 331 332 278
584 2 2 0 0 179 181 180
585 2 2 0 0 301 305 302
586 2 2 0 0 300 304 301
587 2 2 0 0 296 300 299
588 2 2 0 0 305 315 310
589 2 2 0 0 296 299 298
590 2 2 0 0 320 453 290
591 2 2 0 0 274 296 295
592 2 2 0 0 313 531 286
593 2 2 0 0 120 281 280
594 2 2 0 0 360 409 315
595 2 2 0 0 363 400 338
596 2 2 0 0 129 130 128
597 2 2 0 0 300 301 299
598 2 2 0 0 1 508 23
599 2 2 0 0 167 273 261
600 2 2 0 0 133 135 134
601 2 2 0 0 173 174 172
602 2 2 0 0 311 377 376
603 2 2 0 0 273 274 261
604 2 2 0 0 273 338 274
605 2 2 0 0 334 395 332
606 2 2 0 0 183 197 184
607 2 2 0 0 319 393 320
608 2 2 0 0 449 450 446
609 2 2 0 0 288 290 289
610 2 2 0 0 226 306 283
611 2 2 0 0 326 380 327
612 2 2 0 0 175 177 174
613 2 2 0 0 181 183 182
614 2 2 0 0 219 230 211
615 2 2 0 0 308 335 307
616 2 2 0 0 267 311 292
617 2 2 0 0 169 170 164
618 2 2 0 0 288 319 290
619 2 2 0 0 126 165 125
620 2 2 0 0 120 280 121
621 2 2 0 0 130 357 128
622 2 2 0 0 195 200 199
623 2 2 0 0 169 171 170
624 2 2 0 0 171 172 170
625 2 2 0 0 184 186 185
626 2 2 0 0 73 282 71
627 2 2 0 0 252 294 251
628 2 2 0 0 319 320 290
629 2 2 0 0 131 132 130
630 2 2 0 0 393 394 320
631 2 2 0 0 171 173 172
632 2 2 0 0 4 34 3
633 2 2 0 0 218 220 219
634 2 2 0 0 267 292 217
635 2 2 0 0 184 185 182
636 2 2 0 0 188 194 190
637 2 2 0 0 56 70 54
638 2 2 0 0 377 405 376
639 2 2 0 0 449 470 450
640 2 2 0 0 179 180 178
641 2 2 0 0 173 175 174
642 2 2 0 0 175 178 177
643 2 2 0 0 250 329 328
644 2 2 0 0 311 376 292
645 2 2 0 0 329 571 350
646 2 2 0 0 347 370 348
647 2 2 0 0 220 222 219
648 2 2 0 0 376 385 292
649 2 2 0 0 133 134 132
650 2 2 0 0 134 136 132
651 2 2 0 0 306 308 307
652 2 2 0 0 200 203 201
653 2 2 0 0 233 247 222
654 2 2 0 0 98 460 82
655 2 2 0 0 329 349 328
656 2 2 0 0 326 381 380
657 2 2 0 0 347 348 270
658 2 2 0 0 181 182 180
659 2 2 0 0 121 122 115
660 2 2 0 0 350 351 349
661 2 2 0 0 308 336 335
662 2 2 0 0 350 403 352
663 2 2 0 0 470 471 450
664 2 2 0 0 203 211 210
665 2 2 0 0 218 219 211
666 2 2 0 0 183 184 182
667 2 2 0 0 370 463 422
668 2 2 0 0 306 402 308
669 2 2 0 0 203 218 211
670 2 2 0 0 71 490 70
671 2 2 0 0 329 350 349
672 2 2 0 0 436 437 414
673 2 2 0 0 124 126 125
674 2 2 0 0 413 414 353
675 2 2 0 0 422 423 348
676 2 2 0 0 352 353 351
677 2 2 0 0 370 422 348
678 2 2 0 0 350 352 351
679 2 2 0 0 413 436 414
680 2 2 0 0 352 413 353
681 2 2 0 0 120 121 115
682 2 2 0 0 110 480 117
683 2 2 0 0 124 125 116
684 2 2 0 0 126 521 165
685 2 2 0 0 113 120 115
686 2 2 0 0 127 440 410
687 2 2 0 0 114 124 116
688 2 2 0 0 543 544 530
689 2 2 0 0 488 489 487
690 2 2 0 0 585 637 366
691 2 2 0 0 543 570 544
692 2 2 0 0 113 115 114
693 2 2 0 0 127 410 106
694 2 2 0 0 114 116 112
695 2 2 0 0 195 515 200
696 2 2 0 0 491 493 492
697 2 2 0 0 12 487 13
698 2 2 0 0 546 547 321
699 2 2 0 0 330 457 411
700 2 2 0 0 157 543 530
701 2 2 0 0 519 520 291
702 2 2 0 0 28 488 487
703 2 2 0 0 111 112 110
704 2 2 0 0 312 534 257
705 2 2 0 0 476 732 412
706 2 2 0 0 27 458 442
707 2 2 0 0 385 636 620
708 2 2 0 0 176 559 156
709 2 2 0 0 593 634 366
710 2 2 0 0 589 590 224
711 2 2 0 0 113 114 112
712 2 2 0 0 109 127 106
713 2 2 0 0 270 564 245
714 2 2 0 0 443 506 445
715 2 2 0 0 491 492 396
716 2 2 0 0 388 624 502
717 2 2 0 0 445 506 448
718 2 2 0 0 30 500 15
719 2 2 0 0 20 504 21
720 2 2 0 0 64 475 60
721 2 2 0 0 287 542 206
722 2 2 0 0 23 508 35
723 2 2 0 0 302 558 299
724 2 2 0 0 70 551 54
725 2 2 0 0 62 598 64
726 2 2 0 0 424 491 396
727 2 2 0 0 407 456 340
728 2 2 0 0 545 546 321
729 2 2 0 0 330 411 397
730 2 2 0 0 72 536 74
731 2 2 0 0 238 574 136
732 2 2 0 0 659 660 420
733 2 2 0 0 395 538 332
734 2 2 0 0 143 527 145
735 2 2 0 0 412 675 476
736 2 2 0 0 239 513 358
737 2 2 0 0 157 530 529
738 2 2 0 0 518 519 291
739 2 2 0 0 449 482 470
740 2 2 0 0 207 713 479
741 2 2 0 0 119 523 75
742 2 2 0 0 109 670 127
743 2 2 0 0 10 501 40
744 2 2 0 0 508 509 35
745 2 2 0 0 96 606 94
746 2 2 0 0 331 459 334
747 2 2 0 0 286 531 288
748 2 2 0 0 290 453 354
749 2 2 0 0 282 490 71
750 2 2 0 0 384 531 313
751 2 2 0 0 289 524 287
752 2 2 0 0 349 550 412
753 2 2 0 0 165 521 256
754 2 2 0 0 82 460 77
755 2 2 0 0 155 543 157
756 2 2 0 0 201 549 199
757 2 2 0 0 273 591 363
758 2 2 0 0 387 521 126
759 2 2 0 0 114 516 124
760 2 2 0 0 53 561 57
761 2 2 0 0 266 554 309
762 2 2 0 0 257 534 255
763 2 2 0 0 205 553 213
764 2 2 0 0 142 522 225
765 2 2 0 0 435 481 356
766 2 2 0 0 216 568 303
767 2 2 0 0 300 563 344
768 2 2 0 0 214 568 209
769 2 2 0 0 112 480 110
770 2 2 0 0 350 571 403
771 2 2 0 0 347 572 485
772 2 2 0 0 275 572 271
773 2 2 0 0 274 563 296
774 2 2 0 0 171 586 293
775 2 2 0 0 162 576 237
776 2 2 0 0 133 580 163
777 2 2 0 0 11 501 10
778 2 2 0 0 295 584 261
779 2 2 0 0 129 583 131
780 2 2 0 0 215 586 169
781 2 2 0 0 250 505 329
782 2 2 0 0 168 588 224
783 2 2 0 0 321 548 170
784 2 2 0 0 262 593 366
785 2 2 0 0 166 646 314
786 2 2 0 0 520 535 291
787 2 2 0 0 373 663 493
788 2 2 0 0 291 535 185
789 2 2 0 0 101 607 97
790 2 2 0 0 130 574 357
791 2 2 0 0 158 570 543
792 2 2 0 0 31 501 11
793 2 2 0 0 444 552 503
794 2 2 0 0 156 559 159
795 2 2 0 0 236 594 505
796 2 2 0 0 206 542 149
797 2 2 0 0 54 551 52
798 2 2 0 0 74 536 373
799 2 2 0 0 337 558 302
800 2 2 0 0 150 532 147
801 2 2 0 0 379 728 457
802 2 2 0 0 299 558 298
803 2 2 0 0 332 538 333
804 2 2 0 0 145 527 148
805 2 2 0 0 514 515 192
806 2 2 0 0 15 500 14
807 2 2 0 0 75 523 73
808 2 2 0 0 467 501 31
809 2 2 0 0 254 592 125
810 2 2 0 0 172 545 321
811 2 2 0 0 144 522 142
812 2 2 0 0 528 532 150
813 2 2 0 0 187 518 291
814 2 2 0 0 553 599 213
815 2 2 0 0 383 603 384
816 2 2 0 0 282 698 490
817 2 2 0 0 244 517 240
818 2 2 0 0 353 525 404
819 2 2 0 0 395 540 538
820 2 2 0 0 94 606 118
821 2 2 0 0 117 539 107
822 2 2 0 0 185 535 182
823 2 2 0 0 388 502 50
824 2 2 0 0 167 591 273
825 2 2 0 0 147 532 146
826 2 2 0 0 92 608 91
827 2 2 0 0 472 676 368
828 2 2 0 0 364 592 254
829 2 2 0 0 21 504 44
830 2 2 0 0 365 597 248
831 2 2 0 0 125 592 116
832 2 2 0 0 588 589 224
833 2 2 0 0 111 113 112
834 2 2 0 0 63 469 408
835 2 2 0 0 105 109 106
836 2 2 0 0 242 526 243
837 2 2 0 0 439 712 29
838 2 2 0 0 240 517 234
839 2 2 0 0 346 533 304
840 2 2 0 0 14 500 38
841 2 2 0 0 494 495 484
842 2 2 0 0 127 630 440
843 2 2 0 0 208 537 204
844 2 2 0 0 175 562 179
845 2 2 0 0 303 626 555
846 2 2 0 0 359 526 242
847 2 2 0 0 243 526 268
848 2 2 0 0 217 537 208
849 2 2 0 0 58 498 55
850 2 2 0 0 503 552 30
851 2 2 0 0 13 499 12
852 2 2 0 0 268 621 569
853 2 2 0 0 489 497 487
854 2 2 0 0 475 498 58
855 2 2 0 0 430 526 359
856 2 2 0 0 248 597 99
857 2 2 0 0 292 537 217
858 2 2 0 0 26 645 45
859 2 2 0 0 234 517 279
860 2 2 0 0 14 497 39
861 2 2 0 0 385 537 292
862 2 2 0 0 305 533 360
863 2 2 0 0 304 533 301
864 2 2 0 0 146 532 284
865 2 2 0 0 483 494 484
866 2 2 0 0 173 562 175
867 2 2 0 0 116 480 112
868 2 2 0 0 224 590 246
869 2 2 0 0 189 518 187
870 2 2 0 0 498 536 72
871 2 2 0 0 414 525 353
872 2 2 0 0 160 522 144
873 2 2 0 0 547 609 548
874 2 2 0 0 182 535 180
875 2 2 0 0 297 601 389
876 2 2 0 0 44 594 81
877 2 2 0 0 301 533 305
878 2 2 0 0 105 106 96
879 2 2 0 0 515 596 200
880 2 2 0 0 293 562 173
881 2 2 0 0 73 523 282
882 2 2 0 0 148 527 285
883 2 2 0 0 174 545 172
884 2 2 0 0 218 596 323
885 2 2 0 0 200 596 203
886 2 2 0 0 149 542 151
887 2 2 0 0 446 552 444
888 2 2 0 0 49 461 330
889 2 2 0 0 330 397 48
890 2 2 0 0 453 738 377
891 2 2 0 0 255 534 324
892 2 2 0 0 52 551 388
893 2 2 0 0 634 646 260
894 2 2 0 0 513 615 358
895 2 2 0 0 438 525 414
896 2 2 0 0 516 618 386
897 2 2 0 0 198 518 189
898 2 2 0 0 227 566 361
899 2 2 0 0 559 560 241
900 2 2 0 0 90 587 93
901 2 2 0 0 416 522 160
902 2 2 0 0 102 591 167
903 2 2 0 0 134 609 137
904 2 2 0 0 298 558 372
905 2 2 0 0 132 574 130
906 2 2 0 0 106 606 96
907 2 2 0 0 159 559 241
908 2 2 0 0 32 611 6
909 2 2 0 0 158 543 155
910 2 2 0 0 223 513 239
911 2 2 0 0 288 531 319
912 2 2 0 0 323 513 220
913 2 2 0 0 115 516 114
914 2 2 0 0 521 601 297
915 2 2 0 0 610 698 455
916 2 2 0 0 354 600 431
917 2 2 0 0 351 550 349
918 2 2 0 0 256 521 297
919 2 2 0 0 140 604 138
920 2 2 0 0 77 460 119
921 2 2 0 0 17 503 16
922 2 2 0 0 9 502 10
923 2 2 0 0 104 587 331
924 2 2 0 0 152 528 150
925 2 2 0 0 315 541 378
926 2 2 0 0 170 548 164
927 2 2 0 0 590 659 420
928 2 2 0 0 11 624 28
929 2 2 0 0 199 549 202
930 2 2 0 0 502 624 10
931 2 2 0 0 453 600 354
932 2 2 0 0 42 43 41
933 2 2 0 0 38 499 13
934 2 2 0 0 285 527 382
935 2 2 0 0 190 514 192
936 2 2 0 0 157 529 528
937 2 2 0 0 231 643 549
938 2 2 0 0 331 587 459
939 2 2 0 0 451 701 232
940 2 2 0 0 99 597 100
941 2 2 0 0 361 568 214
942 2 2 0 0 372 740 544
943 2 2 0 0 221 545 174
944 2 2 0 0 138 604 238
945 2 2 0 0 340 572 275
946 2 2 0 0 338 563 274
947 2 2 0 0 524 542 287
948 2 2 0 0 265 595 312
949 2 2 0 0 111 511 113
950 2 2 0 0 580 658 588
951 2 2 0 0 580 588 163
952 2 2 0 0 237 576 277
953 2 2 0 0 444 503 36
954 2 2 0 0 131 583 580
955 2 2 0 0 505 571 329
956 2 2 0 0 203 596 218
957 2 2 0 0 584 634 260
958 2 2 0 0 261 584 260
959 2 2 0 0 369 647 365
960 2 2 0 0 251 586 215
961 2 2 0 0 348 564 270
962 2 2 0 0 450 552 446
963 2 2 0 0 390 496 391
964 2 2 0 0 66 598 62
965 2 2 0 0 465 623 423
966 2 2 0 0 258 591 102
967 2 2 0 0 343 566 227
968 2 2 0 0 564 623 244
969 2 2 0 0 154 617 141
970 2 2 0 0 324 534 392
971 2 2 0 0 50 502 37
972 2 2 0 0 524 556 542
973 2 2 0 0 544 700 372
974 2 2 0 0 122 516 115
975 2 2 0 0 177 557 221
976 2 2 0 0 489 698 610
977 2 2 0 0 93 587 104
978 2 2 0 0 136 574 132
979 2 2 0 0 593 646 634
980 2 2 0 0 116 592 480
981 2 2 0 0 143 617 527
982 2 2 0 0 225 604 140
983 2 2 0 0 137 631 139
984 2 2 0 0 549 553 202
985 2 2 0 0 164 548 135
986 2 2 0 0 404 550 351
987 2 2 0 0 34 721 473
988 2 2 0 0 220 513 223
989 2 2 0 0 317 640 511
990 2 2 0 0 100 597 258
991 2 2 0 0 588 658 589
992 2 2 0 0 323 615 513
993 2 2 0 0 568 626 303
994 2 2 0 0 377 605 405
995 2 2 0 0 178 613 212
996 2 2 0 0 493 628 373
997 2 2 0 0 157 528 152
998 2 2 0 0 591 627 363
999 2 2 0 0 409 541 315
1000 2 2 0 0 183 614 197
1001 2 2 0 0 103 598 66
1002 2 2 0 0 188 619 194
1003 2 2 0 0 213 599 226
1004 2 2 0 0 306 599 402
1005 2 2 0 0 97 607 25
1006 2 2 0 0 194 514 190
1007 2 2 0 0 373 628 76
1008 2 2 0 0 78 628 253
1009 2 2 0 0 42 47 43
1010 2 2 0 0 39 612 15
1011 2 2 0 0 16 612 29
1012 2 2 0 0 437 610 455
1013 2 2 0 0 487 497 13
1014 2 2 0 0 440 630 441
1015 2 2 0 0 479 713 562
1016 2 2 0 0 196 620 193
1017 2 2 0 0 456 572 340
1018 2 2 0 0 120 511 281
1019 2 2 0 0 577 578 235
1020 2 2 0 0 335 582 399
1021 2 2 0 0 314 741 683
1022 2 2 0 0 520 613 535
1023 2 2 0 0 585 634 584
1024 2 2 0 0 423 564 348
1025 2 2 0 0 457 561 411
1026 2 2 0 0 6 611 5
1027 2 2 0 0 385 620 537
1028 2 2 0 0 228 637 229
1029 2 2 0 0 366 637 249
1030 2 2 0 0 161 570 158
1031 2 2 0 0 434 640 435
1032 2 2 0 0 193 636 191
1033 2 2 0 0 410 606 106
1034 2 2 0 0 37 502 9
1035 2 2 0 0 36 503 17
1036 2 2 0 0 141 617 143
1037 2 2 0 0 363 627 401
1038 2 2 0 0 322 590 420
1039 2 2 0 0 357 618 128
1040 2 2 0 0 430 621 526
1041 2 2 0 0 540 687 103
1042 2 2 0 0 280 577 121
1043 2 2 0 0 276 575 318
1044 2 2 0 0 362 578 577
1045 2 2 0 0 109 649 496
1046 2 2 0 0 246 590 322
1047 2 2 0 0 326 569 381
1048 2 2 0 0 569 621 381
1049 2 2 0 0 269 569 272
1050 2 2 0 0 139 631 154
1051 2 2 0 0 649 664 496
1052 2 2 0 0 537 620 204
1053 2 2 0 0 355 461 49
1054 2 2 0 0 663 685 493
1055 2 2 0 0 479 745 207
1056 2 2 0 0 343 662 565
1057 2 2 0 0 212 557 177
1058 2 2 0 0 45 645 46
1059 2 2 0 0 496 670 109
1060 2 2 0 0 366 634 585
1061 2 2 0 0 384 616 531
1062 2 2 0 0 535 613 180
1063 2 2 0 0 391 632 364
1064 2 2 0 0 308 581 336
1065 2 2 0 0 344 625 462
1066 2 2 0 0 563 625 344
1067 2 2 0 0 13 497 14
1068 2 2 0 0 480 632 117
1069 2 2 0 0 371 668 585
1070 2 2 0 0 333 649 278
1071 2 2 0 0 387 601 521
1072 2 2 0 0 47 49 48
1073 2 2 0 0 358 615 428
1074 2 2 0 0 113 511 120
1075 2 2 0 0 527 617 382
1076 2 2 0 0 105 649 109
1077 2 2 0 0 398 573 307
1078 2 2 0 0 368 676 369
1079 2 2 0 0 180 613 178
1080 2 2 0 0 153 556 176
1081 2 2 0 0 432 657 367
1082 2 2 0 0 458 718 582
1083 2 2 0 0 207 614 183
1084 2 2 0 0 407 611 456
1085 2 2 0 0 244 623 517
1086 2 2 0 0 20 639 27
1087 2 2 0 0 476 675 87
1088 2 2 0 0 319 616 393
1089 2 2 0 0 474 707 197
1090 2 2 0 0 226 599 306
1091 2 2 0 0 47 48 43
1092 2 2 0 0 186 619 188
1093 2 2 0 0 412 732 328
1094 2 2 0 0 316 671 541
1095 2 2 0 0 293 734 478
1096 2 2 0 0 492 685 598
1097 2 2 0 0 528 629 532
1098 2 2 0 0 514 635 515
1099 2 2 0 0 531 616 319
1100 2 2 0 0 8 656 7
1101 2 2 0 0 387 602 601
1102 2 2 0 0 76 628 78
1103 2 2 0 0 122 618 516
1104 2 2 0 0 651 717 394
1105 2 2 0 0 423 623 564
1106 2 2 0 0 546 669 547
1107 2 2 0 0 4 679 34
1108 2 2 0 0 542 556 151
1109 2 2 0 0 548 609 135
1110 2 2 0 0 204 620 196
1111 2 2 0 0 529 629 528
1112 2 2 0 0 482 719 230
1113 2 2 0 0 258 627 591
1114 2 2 0 0 336 582 335
1115 2 2 0 0 197 686 667
1116 2 2 0 0 583 658 580
1117 2 2 0 0 85 675 98
1118 2 2 0 0 59 728 379
1119 2 2 0 0 400 625 338
1120 2 2 0 0 394 717 605
1121 2 2 0 0 471 650 450
1122 2 2 0 0 596 635 323
1123 2 2 0 0 249 637 228
1124 2 2 0 0 515 635 596
1125 2 2 0 0 338 625 563
1126 2 2 0 0 28 633 488
1127 2 2 0 0 566 622 361
1128 2 2 0 0 229 570 161
1129 2 2 0 0 468 654 465
1130 2 2 0 0 118 710 462
1131 2 2 0 0 15 612 16
1132 2 2 0 0 589 659 590
1133 2 2 0 0 526 621 268
1134 2 2 0 0 365 647 597
1135 2 2 0 0 579 583 235
1136 2 2 0 0 22 507 21
1137 2 2 0 0 342 682 264
1138 2 2 0 0 441 648 346
1139 2 2 0 0 191 636 198
1140 2 2 0 0 578 653 579
1141 2 2 0 0 135 609 134
1142 2 2 0 0 128 618 122
1143 2 2 0 0 378 681 310
1144 2 2 0 0 230 690 211
1145 2 2 0 0 210 690 232
1146 2 2 0 0 549 643 553
1147 2 2 0 0 233 661 247
1148 2 2 0 0 10 624 11
1149 2 2 0 0 640 709 435
1150 2 2 0 0 449 719 482
1151 2 2 0 0 452 726 33
1152 2 2 0 0 362 577 280
1153 2 2 0 0 318 575 433
1154 2 2 0 0 492 687 396
1155 2 2 0 0 586 734 293
1156 2 2 0 0 357 655 618
1157 2 2 0 0 277 567 259
1158 2 2 0 0 522 641 225
1159 2 2 0 0 511 640 281
1160 2 2 0 0 247 661 483
1161 2 2 0 0 610 693 39
1162 2 2 0 0 272 569 326
1163 2 2 0 0 490 695 70
1164 2 2 0 0 553 643 599
1165 2 2 0 0 532 629 284
1166 2 2 0 0 29 712 17
1167 2 2 0 0 632 665 117
1168 2 2 0 0 618 655 386
1169 2 2 0 0 241 699 576
1170 2 2 0 0 457 728 561
1171 2 2 0 0 485 572 456
1172 2 2 0 0 430 667 621
1173 2 2 0 0 582 672 458
1174 2 2 0 0 395 687 540
1175 2 2 0 0 504 594 44
1176 2 2 0 0 181 713 207
1177 2 2 0 0 197 707 184
1178 2 2 0 0 524 657 556
1179 2 2 0 0 475 536 498
1180 2 2 0 0 394 738 320
1181 2 2 0 0 51 714 561
1182 2 2 0 0 151 556 153
1183 2 2 0 0 437 693 610
1184 2 2 0 0 361 626 568
1185 2 2 0 0 611 679 5
1186 2 2 0 0 231 680 643
1187 2 2 0 0 462 706 118
1188 2 2 0 0 390 670 496
1189 2 2 0 0 602 642 601
1190 2 2 0 0 49 330 48
1191 2 2 0 0 391 665 632
1192 2 2 0 0 508 737 375
1193 2 2 0 0 450 650 552
1194 2 2 0 0 368 732 476
1195 2 2 0 0 578 579 235
1196 2 2 0 0 402 581 308
1197 2 2 0 0 43 486 41
1198 2 2 0 0 562 713 179
1199 2 2 0 0 592 632 480
1200 2 2 0 0 416 641 522
1201 2 2 0 0 372 668 371
1202 2 2 0 0 452 712 439
1203 2 2 0 0 282 720 455
1204 2 2 0 0 556 657 176
1205 2 2 0 0 364 632 592
1206 2 2 0 0 403 726 452
1207 2 2 0 0 465 654 623
1208 2 2 0 0 278 649 105
1209 2 2 0 0 154 652 617
1210 2 2 0 0 383 688 603
1211 2 2 0 0 451 719 447
1212 2 2 0 0 317 709 640
1213 2 2 0 0 604 711 642
1214 2 2 0 0 382 652 383
1215 2 2 0 0 601 642 389
1216 2 2 0 0 284 671 316
1217 2 2 0 0 599 643 402
1218 2 2 0 0 388 633 624
1219 2 2 0 0 267 678 311
1220 2 2 0 0 337 681 530
1221 2 2 0 0 279 661 233
1222 2 2 0 0 605 738 394
1223 2 2 0 0 33 677 504
1224 2 2 0 0 386 655 387
1225 2 2 0 0 547 669 631
1226 2 2 0 0 562 731 479
1227 2 2 0 0 360 648 595
1228 2 2 0 0 432 692 657
1229 2 2 0 0 367 657 524
1230 2 2 0 0 633 695 488
1231 2 2 0 0 415 473 341
1232 2 2 0 0 644 672 336
1233 2 2 0 0 551 633 388
1234 2 2 0 0 533 648 360
1235 2 2 0 0 407 679 611
1236 2 2 0 0 323 635 615
1237 2 2 0 0 530 681 529
1238 2 2 0 0 393 651 394
1239 2 2 0 0 387 655 602
1240 2 2 0 0 238 703 574
1241 2 2 0 0 594 677 505
1242 2 2 0 0 559 692 560
1243 2 2 0 0 621 667 381
1244 2 2 0 0 405 674 376
1245 2 2 0 0 325 732 368
1246 2 2 0 0 623 654 517
1247 2 2 0 0 581 644 336
1248 2 2 0 0 346 648 533
1249 2 2 0 0 517 654 279
1250 2 2 0 0 477 705 481
1251 2 2 0 0 481 705 355
1252 2 2 0 0 561 728 57
1253 2 2 0 0 379 705 477
1254 2 2 0 0 617 652 382
1255 2 2 0 0 30 650 500
1256 2 2 0 0 376 674 385
1257 2 2 0 0 518 715 519
1258 2 2 0 0 474 667 430
1259 2 2 0 0 478 734 294
1260 2 2 0 0 624 633 28
1261 2 2 0 0 186 707 619
1262 2 2 0 0 64 663 475
1263 2 2 0 0 597 647 258
1264 2 2 0 0 377 738 605
1265 2 2 0 0 31 735 467
1266 2 2 0 0 27 718 458
1267 2 2 0 0 419 673 68
1268 2 2 0 0 616 722 393
1269 2 2 0 0 24 723 419
1270 2 2 0 0 397 638 48
1271 2 2 0 0 404 730 460
1272 2 2 0 0 91 676 472
1273 2 2 0 0 622 626 361
1274 2 2 0 0 7 656 32
1275 2 2 0 0 576 697 277
1276 2 2 0 0 471 691 650
1277 2 2 0 0 536 663 373
1278 2 2 0 0 484 691 471
1279 2 2 0 0 552 650 30
1280 2 2 0 0 311 678 600
1281 2 2 0 0 486 729 5
1282 2 2 0 0 418 673 666
1283 2 2 0 0 232 680 231
1284 2 2 0 0 5 679 4
1285 2 2 0 0 117 665 539
1286 2 2 0 0 384 702 616
1287 2 2 0 0 557 702 221
1288 2 2 0 0 87 675 85
1289 2 2 0 0 225 711 604
1290 2 2 0 0 505 677 571
1291 2 2 0 0 483 661 494
1292 2 2 0 0 263 565 375
1293 2 2 0 0 504 677 594
1294 2 2 0 0 582 718 399
1295 2 2 0 0 645 714 46
1296 2 2 0 0 534 708 392
1297 2 2 0 0 643 680 402
1298 2 2 0 0 18 712 452
1299 2 2 0 0 392 670 390
1300 2 2 0 0 221 702 603
1301 2 2 0 0 496 664 391
1302 2 2 0 0 606 710 118
1303 2 2 0 0 655 703 602
1304 2 2 0 0 608 676 91
1305 2 2 0 0 194 684 514
1306 2 2 0 0 541 671 378
1307 2 2 0 0 154 669 652
1308 2 2 0 0 399 718 639
1309 2 2 0 0 405 715 674
1310 2 2 0 0 33 726 677
1311 2 2 0 0 629 671 284
1312 2 2 0 0 468 735 495
1313 2 2 0 0 469 704 408
1314 2 2 0 0 427 745 479
1315 2 2 0 0 294 734 251
1316 2 2 0 0 461 705 379
1317 2 2 0 0 385 674 636
1318 2 2 0 0 657 692 176
1319 2 2 0 0 561 714 411
1320 2 2 0 0 631 669 154
1321 2 2 0 0 264 682 265
1322 2 2 0 0 43 638 486
1323 2 2 0 0 48 638 43
1324 2 2 0 0 194 744 684
1325 2 2 0 0 381 686 380
1326 2 2 0 0 658 716 589
1327 2 2 0 0 263 567 565
1328 2 2 0 0 310 681 337
1329 2 2 0 0 493 685 492
1330 2 2 0 0 64 685 663
1331 2 2 0 0 309 678 267
1332 2 2 0 0 600 678 431
1333 2 2 0 0 538 694 333
1334 2 2 0 0 598 685 64
1335 2 2 0 0 551 695 633
1336 2 2 0 0 560 699 241
1337 2 2 0 0 211 690 210
1338 2 2 0 0 2 723 3
1339 2 2 0 0 630 708 441
1340 2 2 0 0 467 735 468
1341 2 2 0 0 396 687 395
1342 2 2 0 0 35 507 22
1343 2 2 0 0 259 567 263
1344 2 2 0 0 417 673 418
1345 2 2 0 0 614 686 197
1346 2 2 0 0 392 708 630
1347 2 2 0 0 5 729 6
1348 2 2 0 0 279 725 661
1349 2 2 0 0 6 729 26
1350 2 2 0 0 357 703 655
1351 2 2 0 0 514 684 635
1352 2 2 0 0 540 733 538
1353 2 2 0 0 374 741 593
1354 2 2 0 0 176 692 559
1355 2 2 0 0 650 691 500
1356 2 2 0 0 484 736 691
1357 2 2 0 0 83 733 540
1358 2 2 0 0 558 740 372
1359 2 2 0 0 626 697 555
1360 2 2 0 0 436 693 437
1361 2 2 0 0 375 737 374
1362 2 2 0 0 475 663 536
1363 2 2 0 0 636 674 198
1364 2 2 0 0 674 715 198
1365 2 2 0 0 70 695 551
1366 2 2 0 0 406 721 407
1367 2 2 0 0 677 726 571
1368 2 2 0 0 258 647 627
1369 2 2 0 0 448 701 451
1370 2 2 0 0 458 672 506
1371 2 2 0 0 229 700 570
1372 2 2 0 0 684 744 428
1373 2 2 0 0 570 700 544
1374 2 2 0 0 678 742 431
1375 2 2 0 0 646 741 314
1376 2 2 0 0 603 702 384
1377 2 2 0 0 478 731 293
1378 2 2 0 0 309 742 678
1379 2 2 0 0 380 686 614
1380 2 2 0 0 494 725 468
1381 2 2 0 0 500 691 38
1382 2 2 0 0 635 684 615
1383 2 2 0 0 661 725 494
1384 2 2 0 0 679 721 34
1385 2 2 0 0 509 510 35
1386 2 2 0 0 46 714 51
1387 2 2 0 0 615 684 428
1388 2 2 0 0 432 742 689
1389 2 2 0 0 179 713 181
1390 2 2 0 0 26 739 645
1391 2 2 0 0 35 510 507
1392 2 2 0 0 574 703 357
1393 2 2 0 0 184 707 186
1394 2 2 0 0 39 693 612
1395 2 2 0 0 665 694 539
1396 2 2 0 0 312 708 534
1397 2 2 0 0 554 689 309
1398 2 2 0 0 1 737 508
1399 2 2 0 0 519 717 520
1400 2 2 0 0 277 697 622
1401 2 2 0 0 389 711 641
1402 2 2 0 0 495 736 484
1403 2 2 0 0 17 712 18
1404 2 2 0 0 212 722 557
1405 2 2 0 0 455 720 438
1406 2 2 0 0 622 697 626
1407 2 2 0 0 664 694 665
1408 2 2 0 0 447 719 449
1409 2 2 0 0 669 688 652
1410 2 2 0 0 612 693 436
1411 2 2 0 0 619 744 194
1412 2 2 0 0 57 728 59
1413 2 2 0 0 579 658 583
1414 2 2 0 0 438 727 525
1415 2 2 0 0 539 733 83
1416 2 2 0 0 479 731 478
1417 2 2 0 0 691 736 38
1418 2 2 0 0 401 724 400
1419 2 2 0 0 420 660 2
1420 2 2 0 0 328 732 325
1421 2 2 0 0 320 738 453
1422 2 2 0 0 428 744 429
1423 2 2 0 0 431 742 432
1424 2 2 0 0 425 745 427
1425 2 2 0 0 408 743 434
1426 2 2 0 0 571 726 403
1427 2 2 0 0 119 727 523
1428 2 2 0 0 625 706 462
1429 2 2 0 0 525 730 404
1430 2 2 0 0 499 736 495
1431 2 2 0 0 468 725 654
1432 2 2 0 0 336 672 582
1433 2 2 0 0 198 715 518
1434 2 2 0 0 400 724 706
1435 2 2 0 0 402 680 581
1436 2 2 0 0 589 716 659
1437 2 2 0 0 727 730 525
1438 2 2 0 0 664 665 391
1439 2 2 0 0 337 740 558
1440 2 2 0 0 293 731 562
1441 2 2 0 0 523 720 282
1442 2 2 0 0 460 730 119
1443 2 2 0 0 641 711 225
1444 2 2 0 0 429 744 619
1445 2 2 0 0 119 730 727
1446 2 2 0 0 651 722 212
1447 2 2 0 0 38 736 499
1448 2 2 0 0 667 686 381
1449 2 2 0 0 652 688 383
1450 2 2 0 0 410 710 606
1451 2 2 0 0 644 701 448
1452 2 2 0 0 666 673 419
1453 2 2 0 0 704 743 408
1454 2 2 0 0 251 734 586
1455 2 2 0 0 400 706 625
1456 2 2 0 0 546 688 669
1457 2 2 0 0 668 700 229
1458 2 2 0 0 538 733 694
1459 2 2 0 0 333 694 664
1460 2 2 0 0 565 662 375
1461 2 2 0 0 720 727 438
1462 2 2 0 0 372 700 668
1463 2 2 0 0 579 716 658
1464 2 2 0 0 642 711 389
1465 2 2 0 0 355 705 461
1466 2 2 0 0 407 721 679
1467 2 2 0 0 523 727 720
1468 2 2 0 0 654 725 279
1469 2 2 0 0 639 718 27
1470 2 2 0 0 694 733 539
1471 2 2 0 0 393 722 651
1472 2 2 0 0 645 739 397
1473 2 2 0 0 683 741 374
1474 2 2 0 0 397 739 638
1475 2 2 0 0 653 716 579
1476 2 2 0 0 666 723 660
1477 2 2 0 0 419 723 666
1478 2 2 0 0 374 737 683
1479 2 2 0 0 593 741 646
1480 2 2 0 0 683 737 1
1481 2 2 0 0 689 742 309
1482 2 2 0 0 660 723 2
1483 2 2 0 0 23 25 1
1484 2 2 0 0 25 607 1
1485 2 2 0 0 3 34 2
1486 2 2 0 0 34 415 2
$EndElements
