$MeshFormat
2.2 0 8
$EndMeshFormat
$Nodes
745
1 3.6446045345095249e-05 3.3822035378355860e-05 1.0177569335784625e-03
2 3.7337520249045482e-05 -3.7839251604271402e-05 -1.0164324655034989e-03
3 1.3490037465584427e-04 2.2814591934358929e-05 -1.0076875239366130e-03
4 2.3613804057704348e-04 3.7666954878393019e-05 -9.8834427442606363e-04
5 3.6275163296412043e-04 5.1180794497156834e-05 -9.4720878751564737e-04
6 4.9989385874952663e-04 -1.3648010715426382e-07 -8.8005147427600082e-04
7 6.2079613143317777e-04 -1.2911984823204588e-05 -7.9502128966611903e-04
8 7.3884437514849007e-04 -1.0370017963400833e-05 -6.8024018946692742e-04
9 8.3825831408893112e-04 -3.3642905285416141e-06 -5.4456849427908884e-04
10 9.0533749881790981e-04 8.2154743054329571e-07 -4.1466647282369220e-04
11 9.5244540107280052e-04 3.0254435615225107e-06 -2.8038318371703598e-04
12 9.8086950804835782e-04 2.8597650005830604e-06 -1.4186006419422925e-04
13 9.9043339901938609e-04 -2.4565551914817912e-06 2.1135944318375427e-07
14 9.8082375054006220e-04 9.5275168284957907e-06 1.4079579147947886e-04
15 9.5379401133435446e-04 1.3689445911237302e-05 2.7503952210550058e-04
16 9.0579090968052054e-04 8.7076369296153371e-06 4.1413610675943962e-04
17 8.3470612634148572e-04 1.6024766544587462e-06 5.5056834038450311e-04
18 7.3594398646434800e-04 8.6718218047767892e-07 6.8387644163851518e-04
19 6.2400797381560562e-04 3.0610427158739847e-06 7.9285701755339721e-04
20 5.0173638569854398e-04 3.1807190794619041e-07 8.7933716236935559e-04
21 3.8290396354383568e-04 -5.8006052031167232e-06 9.3991617448547474e-04
22 2.6058218354054000e-04 1.0555842586283361e-05 9.8281228263343012e-04
23 1.4155350377898748e-04 -2.3294221943253715e-06 1.0074061839605590e-03
24 1.6886534105526495e-04 1.2701632549786955e-04 -9.9507220741881113e-04
25 1.6551675228697194e-04 1.0147276188915012e-04 9.9947522660879216e-04
26 5.7695333433790453e-04 1.0590149997183524e-04 -8.2154504792836670e-04
27 5.6924061809626757e-04 -1.1255497396067618e-04 8.2704944556249451e-04
28 9.6033220991588312e-04 1.3517014970660168e-04 -2.0774811756871277e-04
29 8.5833102405321032e-04 1.4643568400310466e-04 4.8918725146415091e-04
30 9.2837912625456020e-04 -1.1125308795830767e-04 3.3757630227213361e-04
31 9.6158198347282085e-04 -1.1612233234357478e-04 -2.1298744024052983e-04
32 5.3626772226324996e-04 -1.2143037624551904e-04 -8.4860594074770640e-04
33 5.4982763546241003e-04 1.1638336452542627e-04 8.3996569721761071e-04
34 1.6469235759985977e-04 -8.2021051345456471e-05 -1.0012208848576391e-03
35 1.9326222137048095e-04 -1.0255177286621557e-04 9.9342708295265718e-04
36 7.8791700665694752e-04 -1.1174525653191043e-04 6.0880510319725133e-04
37 7.8437847939633943e-04 1.1611853305794083e-04 -6.1219429226983966e-04
38 9.8184630537547207e-04 -1.0743172392406567e-04 7.2705055839535703e-05
39 9.6205424645532441e-04 1.2749697802726004e-04 2.0309491829135717e-04
40 8.6436540448406774e-04 -1.2658560814765251e-04 -4.8199076035191447e-04
41 2.8462823081189758e-04 1.4115177164051562e-04 -9.6477440335029257e-04
42 2.0263379066654466e-04 2.5773254309567178e-04 -9.6099629977264614e-04
43 3.3321608075557812e-04 2.5894498527112900e-04 -9.2128334899716500e-04
44 3.0557038482959431e-04 1.0801865462412930e-04 9.6303423408859300e-04
45 6.7875908482554928e-04 1.0717928848765771e-04 -7.3504702820637979e-04
46 7.2233426118457629e-04 2.2602909719825900e-04 -6.5851778951894486e-04
47 2.7667439488041740e-04 3.6777931935154845e-04 -9.0190829487624764e-04
48 3.9448559972470612e-04 3.5646871572905434e-04 -8.5955345412285118e-04
49 3.3028523835920595e-04 4.7285868928035029e-04 -8.2829361237150400e-04
50 8.0729710359481069e-04 2.4430345784368177e-04 -5.3533885708022570e-04
51 7.3201111231428772e-04 3.6482539578119535e-04 -5.7594570553681703e-04
52 8.1099207153023753e-04 3.6802807572384073e-04 -4.4652029592186801e-04
53 7.2315492499502041e-04 4.9161632249429554e-04 -4.7921461451031161e-04
54 7.9878180867529115e-04 4.8141557080549858e-04 -3.4268331205520398e-04
55 7.1052090332622683e-04 5.9263621170175282e-04 -3.6319886559987727e-04
56 7.7439335468988777e-04 5.7467724147806465e-04 -2.3072410147642993e-04
57 6.3113291144485022e-04 5.9810526567985359e-04 -4.8801716123510137e-04
58 6.0883628485308130e-04 6.8908265014520627e-04 -3.7794474633076023e-04
59 5.1992207912927391e-04 6.9243866400027271e-04 -4.9455297879449824e-04
60 4.8937056986439291e-04 7.7267000719056513e-04 -3.9026495511433243e-04
61 3.9704082856802759e-04 7.6128791062864294e-04 -5.0820335767998951e-04
62 3.6210466058175084e-04 8.3932333564284392e-04 -3.9141372108289290e-04
63 2.1169239118807288e-04 4.5914823185428874e-04 -8.7596783352237944e-04
64 4.5181139135557706e-04 8.3611007557538410e-04 -2.8397605650043478e-04
65 2.5783959057649493e-04 8.1971351980910691e-04 -5.0704828449356354e-04
66 2.2814143514804318e-04 8.9226686880556000e-04 -3.7383043957133708e-04
67 1.2563201083850228e-04 8.6485672082005588e-04 -4.7950323667435329e-04
68 9.9020065997669715e-05 2.4275313029967983e-04 -9.8168167202987672e-04
69 1.4376781837479279e-04 7.7374264696773536e-04 -6.2056060071114276e-04
70 8.5056491026273481e-04 4.6149520297609164e-04 -2.1488942410686324e-04
71 8.2240714897582141e-04 5.4262386391903364e-04 -1.0010983218458806e-04
72 7.3116547195157741e-04 6.5653082882726594e-04 -1.2306076963133889e-04
73 7.6800861840685527e-04 6.2477648949712107e-04 -1.0362873064204901e-06
74 6.6408554631659496e-04 7.3356660395753866e-04 -2.5315515935813604e-05
75 6.9036518535797167e-04 7.0324672160932181e-04 9.5553036775750222e-05
76 5.7755342563456206e-04 8.0084006455744233e-04 7.1020215711574397e-05
77 6.0785672008353733e-04 7.5657481937046339e-04 2.0091715842978573e-04
78 4.9616867419552597e-04 8.3887926689171603e-04 1.7824711280945994e-04
79 9.2873868720202697e-05 9.2921502566843217e-04 -3.3808946266503895e-04
80 -1.2943262156497621e-05 8.9675741598091701e-04 -4.3146689718235654e-04
81 2.3518600376961518e-04 2.1930081826378799e-04 9.6381296259607737e-04
82 5.1716595924975275e-04 7.8836308181343573e-04 3.1172136722358828e-04
83 -4.2932514474350676e-05 9.4460790300931639e-04 -3.0014217288818319e-04
84 4.0179109312649960e-04 8.6172628765734678e-04 2.8420784860850971e-04
85 4.1343986854511906e-04 8.0746297780224326e-04 4.0904346966217270e-04
86 2.9407614395973546e-04 8.7117566962653431e-04 3.7820761953518588e-04
87 2.9984497387852991e-04 8.0757740616237052e-04 5.0281237543809147e-04
88 1.7942197824782717e-04 8.6066918921795770e-04 4.6923588998481851e-04
89 1.6658862922984597e-04 9.1974905627293952e-04 3.3569673653609434e-04
90 5.0575862042720114e-05 8.9936787147793136e-04 4.2293152713793848e-04
91 6.7733674074559757e-05 8.3004932801024540e-04 5.5176465527983251e-04
92 -5.8492343125353233e-05 8.5912880092218395e-04 5.0275068927583123e-04
93 -8.9590641059873250e-05 9.1598489234630991e-04 3.7501870517177408e-04
94 -1.9170558101221164e-04 8.6688478023527716e-04 4.5057645517615648e-04
95 -1.6590583598730766e-04 8.0196409672682323e-04 5.7136815161673289e-04
96 -2.2177173238116085e-04 9.1080608433795470e-04 3.2688770740916102e-04
97 1.1737750050966931e-04 2.1916963557948478e-04 9.8600374974731854e-04
98 5.4187554568720054e-04 7.0587374661665249e-04 4.5011103192674087e-04
99 1.6617455856377314e-04 3.3895890132082314e-04 9.4205844895250783e-04
100 4.0687111308654431e-05 3.3585900611660834e-04 9.5749174134322757e-04
101 -5.1058443960588756e-06 2.2040209947218420e-04 9.9292929112246016e-04
102 -9.0848835786666013e-05 3.2719638875884828e-04 9.5700534334748708e-04
103 1.9622975124985643e-04 9.4137631247823963e-04 -2.4109542732231865e-04
104 -1.1202795316044238e-04 9.5407751071152277e-04 2.4481253845298669e-04
105 -2.4428264527287996e-04 9.3689519732767556e-04 2.1025208325254951e-04
106 -3.5355929336721857e-04 8.8327312051688918e-04 2.8016187265123542e-04
107 -1.5188131088713318e-04 9.0615270733601118e-04 -3.7876455748941490e-04
108 -1.2820711928905081e-04 8.4573883792937222e-04 -5.1324156854142954e-04
109 -3.7747705091212025e-04 9.0245584167733669e-04 1.5256010576019790e-04
110 -2.6163320616230104e-04 8.4614630628383248e-04 -4.5536588923098713e-04
111 -2.3092015863977150e-04 7.7730493338633083e-04 -5.8530799682346272e-04
112 -3.6950165383057388e-04 7.6786795845717657e-04 -5.1931608127647614e-04
113 -3.3888018783187121e-04 6.9295602632746484e-04 -6.3971356021021088e-04
114 -4.6481918563309667e-04 6.7564057746851542e-04 -5.7169813056254693e-04
115 -4.2696745932204816e-04 5.9391752523316980e-04 -6.8770781914492362e-04
116 -4.9566836335187159e-04 7.3959039165354601e-04 -4.4585663772086468e-04
117 -2.8920179231253594e-04 8.9450996155849476e-04 -3.1799812323135660e-04
118 -2.8470044266691244e-04 7.8624983909266605e-04 5.4703411325878176e-04
119 7.0287785486108749e-04 6.6214095076049277e-04 2.2356675700578696e-04
120 -2.9823212001530125e-04 5.9579150578251605e-04 -7.5464854357457263e-04
121 -3.8238032632902341e-04 4.9343874243345446e-04 -7.9168573979542856e-04
122 -5.0481963417962396e-04 4.7494711646817807e-04 -7.2854319167847822e-04
123 -4.5263064423490168e-04 3.7096431663988266e-04 -8.2251092514786959e-04
124 -5.8438281764861401e-04 6.3926060739096836e-04 -4.9408230647899438e-04
125 -6.0904241384060703e-04 6.9679887423303025e-04 -3.6143571456707799e-04
126 -6.9373051391529957e-04 5.8819052537049433e-04 -4.0229063155027071e-04
127 -4.8066694928947638e-04 8.3743831394347368e-04 2.2250649564500705e-04
128 -5.7481806632799458e-04 3.4708599606581079e-04 -7.4960418013618468e-04
129 -5.1583838425526445e-04 2.3673337942296176e-04 -8.3545905163061134e-04
130 -6.3416197846651967e-04 2.2205944550080504e-04 -7.4922117343511252e-04
131 -5.6814610067061708e-04 1.0882444596533018e-04 -8.2761320502140420e-04
132 -6.8524979679749135e-04 9.1977048886982086e-05 -7.3042797047961482e-04
133 -6.1742094388061400e-04 -1.9187339197949474e-05 -7.9727070157067112e-04
134 -7.2637356193053942e-04 -4.1268030004946558e-05 -6.9246470356361823e-04
135 -6.5069603229777912e-04 -1.5041423067900929e-04 -7.5354118350190707e-04
136 -7.8858118143000373e-04 7.6211331448449286e-05 -6.1246035775757660e-04
137 -8.1951428684110569e-04 -6.7736262919997870e-05 -5.6876221932803512e-04
138 -8.6970229564431174e-04 5.3262068271816022e-05 -4.8481759002071752e-04
139 -8.8951491090947393e-04 -9.2700394796449266e-05 -4.3777530744248971e-04
140 -9.3051917496894069e-04 2.0538493862174455e-05 -3.4708486565671558e-04
141 -9.3916618117697030e-04 -1.1635491235779720e-04 -2.9891286866345852e-04
142 -9.6809229958031849e-04 -1.2925655392478113e-05 -2.1114324651449749e-04
143 -9.6597612547284274e-04 -1.4680066165825135e-04 -1.6229309042615695e-04
144 -9.8591797662558162e-04 -4.1334975269870770e-05 -7.6993172867567794e-05
145 -9.7387707066423569e-04 -1.7429772090289092e-04 -2.5915038164432130e-05
146 -9.8634525297926429e-04 -6.1615333878712166e-05 5.3053012331493643e-05
147 -9.6567175463209659e-04 -1.9071805359343377e-04 1.0635236148304784e-04
148 -9.4152059777036961e-04 -3.0424982403698918e-04 2.5666229435544705e-05
149 -9.2579615711057325e-04 -3.1443860439248484e-04 1.5903254229402143e-04
150 -9.4190381215984438e-04 -1.9724082576991981e-04 2.3883861113948381e-04
151 -8.9423702482062633e-04 -3.1637712515981731e-04 2.9200735214563513e-04
152 -8.9896920913030900e-04 -1.9804616316533040e-04 3.7565228807390699e-04
153 -8.4233476295209400e-04 -3.1865214499255539e-04 4.2416226346407180e-04
154 -8.9147457915390632e-04 -2.2159695579405801e-04 -3.8019044058239276e-04
155 -8.3267489257411243e-04 -2.0154375114364299e-04 5.1200558505245294e-04
156 -7.6516547184476004e-04 -3.2795751031496507e-04 5.5312112885392141e-04
157 -8.8059298830671861e-04 -6.8910795888241870e-05 4.6131559713617385e-04
158 -7.4359033878606011e-04 -2.1436350260185005e-04 6.3724326761648053e-04
159 -6.6395838731431569e-04 -3.3603706001956063e-04 6.7416391422242463e-04
160 -9.8714259112829160e-04 6.9708292866328862e-05 3.8440909046641537e-06
161 -6.3873533341969678e-04 -2.1956942536210120e-04 7.4671112051587815e-04
162 -5.5034286508585516e-04 -3.2701547553052430e-04 7.7935019270417168e-04
163 -5.2842233291622168e-04 -1.2078468183312627e-04 -8.5343073846023401e-04
164 -5.5491939550942834e-04 -2.5361500379135791e-04 -8.0368018374744172e-04
165 -7.1113978710688028e-04 6.3603962605100729e-04 -2.7042472726622084e-04
166 -1.4242163858973670e-04 2.2336840826479539e-04 9.8148832677189685e-04
167 -2.2672803739106159e-04 3.1554799780930481e-04 9.3711488722765686e-04
168 -4.2509410597238152e-04 -2.1397968460075111e-04 -8.9412049885473170e-04
169 -4.4028599583649226e-04 -3.4831881452661398e-04 -8.4037641627049279e-04
170 -5.5959777251350000e-04 -3.8479694165080347e-04 -7.4300152114085754e-04
171 -4.4434684167804467e-04 -4.7681632390250239e-04 -7.6862945496633669e-04
172 -5.5841631696616247e-04 -5.1208930720131882e-04 -6.5768495981754918e-04
173 -4.4366318438187572e-04 -5.9647123027420921e-04 -6.7487031454870733e-04
174 -5.4160818693111486e-04 -6.2775561834784756e-04 -5.5858487528654690e-04
175 -4.3080120820647162e-04 -7.0620317603199646e-04 -5.6177651869714128e-04
176 -7.7085373618175190e-04 -4.2992851046233835e-04 4.6250515618096968e-04
177 -5.2086964374864952e-04 -7.2256719594690759e-04 -4.4605877560004490e-04
178 -4.0573479729785376e-04 -7.9737578293258054e-04 -4.3793305854052789e-04
179 -3.1345351634640768e-04 -7.7833495335072193e-04 -5.4253788627729596e-04
180 -2.8091167047392107e-04 -8.5894018833449002e-04 -4.1793617797153854e-04
181 -1.8087535738760496e-04 -8.3143682592231368e-04 -5.2281180970277800e-04
182 -1.4443367456863464e-04 -8.9968933738168505e-04 -4.0049478014375775e-04
183 -4.6732132071293930e-05 -8.5717351572687432e-04 -5.1018094450588718e-04
184 -1.5912685794988126e-05 -9.1916410372258606e-04 -3.8028218902943101e-04
185 -1.0352720836845366e-04 -9.4939597845782996e-04 -2.7055321676738706e-04
186 3.3034522617405551e-05 -9.6052163538867059e-04 -2.4665122069259909e-04
187 -5.6847173133057363e-05 -9.7909632570847651e-04 -1.4211383160182890e-04
188 8.6650744859685587e-05 -9.7964447313359784e-04 -1.2164364806334199e-04
189 -9.7209244876221575e-06 -9.9016311281225049e-04 -1.7264193960726653e-05
190 1.2891457742711509e-04 -9.8201023769986713e-04 9.0686378750140753e-06
191 2.9940988376858308e-05 -9.8427426943728112e-04 1.0922926369203893e-04
192 1.6469405765396529e-04 -9.6776534535238567e-04 1.3635262327462780e-04
193 6.6193825114618240e-05 -9.6184892842632731e-04 2.3446267017533667e-04
194 2.2004119064331911e-04 -9.6163288020808927e-04 -9.0508269872255804e-05
195 1.9991861623554861e-04 -9.3651894324230643e-04 2.6165258585480176e-04
196 9.7442677595002304e-05 -9.2004277437937848e-04 3.6540635169665078e-04
197 1.0875487923099012e-04 -8.7117899627223042e-04 -4.7497697194019071e-04
198 -9.7391966341106150e-05 -9.8238759830471625e-04 7.8095222869982726e-05
199 2.3388368852065563e-04 -8.8549921996510645e-04 3.8971054130909524e-04
200 3.3317215050393404e-04 -8.9142581959506244e-04 2.8408655605109250e-04
201 3.6229677092803817e-04 -8.3024690054475138e-04 4.1390721995365856e-04
202 1.2979318543521320e-04 -8.5715853809945498e-04 4.9471612581906109e-04
203 4.5622552923266305e-04 -8.2874961869594912e-04 3.0358266830314031e-04
204 -4.8595565558673432e-06 -8.8406860520199215e-04 4.6124189094117721e-04
205 2.9420571539949810e-05 -8.0780252972513251e-04 5.9091194221165392e-04
206 -8.9140740429207138e-04 -4.2435698153374683e-04 7.4074117123320356e-05
207 -8.6797557115532976e-05 -7.7419218364886428e-04 -6.3181519250984062e-04
208 -1.0510614331306474e-04 -8.2632099186059416e-04 5.5328770160328216e-04
209 -7.1524620085382484e-05 -7.3789440466285271e-04 6.7785435739938383e-04
210 4.8292623185465343e-04 -7.5753728273629593e-04 4.3088854763166537e-04
211 5.6843272249359458e-04 -7.5297556485776204e-04 3.1167859016078273e-04
212 -4.9121073283658445e-04 -8.0014218299724398e-04 -3.2406669651937378e-04
213 5.7411673520794796e-05 -7.1234857561264567e-04 7.0759118313292292e-04
214 -3.9763401832861946e-05 -6.3226914035896347e-04 7.8514060790966969e-04
215 -3.1442421069499422e-04 -3.0223062448301322e-04 -9.1525222725752126e-04
216 -2.0391394629393214e-04 -7.4983742168818692e-04 6.3394637385546398e-04
217 -2.3633293525705890e-04 -8.3007490146344760e-04 5.0172492799008901e-04
218 5.4224003506351853e-04 -8.0818105138952311e-04 1.9157504768450151e-04
219 6.5564578150581422e-04 -7.1473379904634000e-04 2.0931738642915600e-04
220 6.1841868229997349e-04 -7.6951821373625435e-04 8.5960366298385040e-05
221 -6.2686640113847564e-04 -6.3892131360767366e-04 -4.3639055984618649e-04
222 7.1909346853252817e-04 -6.7409266525620640e-04 1.0424890974761299e-04
223 6.8094400819399133e-04 -7.1904243525118560e-04 -2.5016037277268931e-05
224 -2.9240099022944250e-04 -1.6449860173228583e-04 -9.5865319797605153e-04
225 -9.5346719196266023e-04 1.1128565674752094e-04 -2.4709737100818668e-04
226 8.1984462194533819e-05 -5.9753377384241173e-04 8.1013332185486773e-04
227 -7.7126501154847852e-06 -5.1087066824190112e-04 8.7431476022623283e-04
228 -5.2387045656944269e-04 -1.9817983844906204e-04 8.4169514642046619e-04
229 -5.9715709721717730e-04 -9.7576883217716888e-05 8.0755117339184981e-04
230 6.6895811914854334e-04 -6.5258791471921665e-04 3.3915941945896773e-04
231 3.9132643083075280e-04 -7.5134681208129713e-04 5.2984406101263702e-04
232 5.1715349557812564e-04 -6.5951419650144298e-04 5.4668528065968146e-04
233 7.6832624036584035e-04 -6.2485069733200587e-04 -1.6296036196312902e-05
234 7.2912490995402169e-04 -6.5646418366863113e-04 -1.4011276101053924e-04
235 -3.8971892243174383e-04 2.5849744121474763e-04 -8.9816196987096812e-04
236 2.9318273608139675e-04 3.3745333063221668e-04 9.0960033098237193e-04
237 -4.3420440181808878e-04 -2.9911448196433699e-04 8.6404561616174242e-04
238 -8.3655024260062950e-04 1.9787861517880849e-04 -5.0779479689229770e-04
239 6.3632938596159248e-04 -7.4506554276428235e-04 -1.4990628345493728e-04
240 6.7517865029780499e-04 -6.7579941621384696e-04 -2.7025765045051413e-04
241 -5.7797303219049730e-04 -4.3881809839643846e-04 6.9548592026778084e-04
242 5.7126609043077177e-04 -7.6439095812073281e-04 -2.7412310812540834e-04
243 6.0325386221895616e-04 -6.8550683679112923e-04 -3.9641047873052119e-04
244 7.0433029887697436e-04 -5.9033383942854313e-04 -3.8165422269321851e-04
245 6.2423864099726714e-04 -5.9157726593706168e-04 -5.0758275994454308e-04
246 -1.9023126348885992e-04 -2.5182648000988245e-04 -9.6579087610211903e-04
247 8.0617937564457618e-04 -5.6688279895204178e-04 1.0326660121714714e-04
248 2.3284704372710918e-04 4.4502288956917683e-04 8.7862264553151747e-04
249 -3.9560380952567161e-04 -1.5680402729084824e-04 9.2090733195672729e-04
250 3.6133262376082117e-04 4.3757274678565112e-04 8.3585932361434257e-04
251 -2.1992540718264092e-04 -3.6406468020850729e-04 -9.2057057104006019e-04
252 -9.2132282171702038e-05 -3.3397845039152878e-04 -9.5485643390057565e-04
253 3.7399095011582325e-04 9.0511928273467564e-04 1.4741391054097486e-04
254 -6.1853961937210794e-04 7.3908524635217141e-04 -2.3062717712850857e-04
255 -7.0979743129158022e-04 6.7525124094318140e-04 -1.4189986473310458e-04
256 -7.9307082273792802e-04 5.6726136042414648e-04 -1.7315248123414494e-04
257 -7.8007214414075189e-04 6.0705039517735735e-04 -4.2820177381283747e-05
258 -2.9589212867671776e-05 4.3691370779377621e-04 9.1393699690692763e-04
259 -3.0768345972978164e-04 -2.3937460663382403e-04 9.3738938875178614e-04
260 -2.7541882165671634e-04 2.0583435423601442e-04 9.5545105159147757e-04
261 -3.5777937670903313e-04 3.0998912382683652e-04 8.9516492328292835e-04
262 -2.6901396087043939e-04 -1.1210376924238489e-04 9.7397723148029067e-04
263 -1.7585571063161008e-04 -1.8536075959830787e-04 9.8473281229489594e-04
264 -8.5501370492180827e-04 4.9222513911713112e-04 -7.7422551813791795e-05
265 -8.2940762802575455e-04 5.3697564995031978e-04 5.3104175603981977e-05
266 -3.3903578085611057e-04 -7.4837883451324741e-04 5.7105834998703820e-04
267 -3.6818303024433065e-04 -8.1675769134386224e-04 4.3564572087878561e-04
268 5.1116151201332496e-04 -6.8564836258779309e-04 -5.1608498657098104e-04
269 5.2193889489852692e-04 -5.8199821623057047e-04 -6.2789859298988593e-04
270 6.3563216913921827e-04 -4.8131580336680197e-04 -6.0677829879831572e-04
271 5.2058304246466354e-04 -4.6536443992609058e-04 -7.2466541421330047e-04
272 4.0055795052201104e-04 -5.5816514895445002e-04 -7.3599226980420869e-04
273 -3.0460765840500644e-04 4.1614754207181659e-04 8.7000288285070263e-04
274 -4.3433367729075822e-04 4.1389900017434379e-04 8.1103956207808573e-04
275 3.9362673080961075e-04 -4.3616326509095726e-04 -8.2188742873479049e-04
276 2.7983248421740509e-04 -5.2501484258071784e-04 -8.1628560331567491e-04
277 -3.3482034124898740e-04 -3.7319229981254681e-04 8.7985798730386687e-04
278 -1.2597251328519537e-04 9.7331644732915224e-04 1.2963089024509966e-04
279 8.0652843025892467e-04 -5.6059335143547660e-04 -1.2928188766276957e-04
280 -2.4088103483426050e-04 4.7909295354999897e-04 -8.5703375208808321e-04
281 -1.5015730360812811e-04 5.7614642234514772e-04 -8.1483788222128290e-04
282 8.6088875501236879e-04 4.9001609054208264e-04 2.3817670472984775e-05
283 1.1587627007861530e-04 -4.6580217392023550e-04 8.9265602309208480e-04
284 -9.8087775038568198e-04 5.0569505257560322e-05 1.2330676811783678e-04
285 -9.0057602026518985e-04 -4.0584771449653191e-04 -6.5190557651165212e-05
286 -8.4123915634054828e-04 -5.2150184620174730e-04 -1.8138024418744453e-05
287 -8.2652301770578032e-04 -5.3273366855171201e-04 1.1765549887955745e-04
288 -7.6355055981567710e-04 -6.2956383578328728e-04 2.7211377488410540e-05
289 -7.4290865160885598e-04 -6.3636153011183388e-04 1.5705993008452099e-04
290 -6.6953446144261530e-04 -7.2594950891851522e-04 7.0625223863452036e-05
291 -1.9789369469686957e-04 -9.5762246106649617e-04 -1.6175453319505957e-04
292 -2.6918630692078830e-04 -8.8396036087487570e-04 3.6811629164407373e-04
293 -3.3875225534851983e-04 -5.5230037944837597e-04 -7.7240682326321032e-04
294 -9.8971223209284902e-05 -4.7228532991030905e-04 -8.9146321844701352e-04
295 -4.8965166018785167e-04 3.0245532940676172e-04 8.2972651224375482e-04
296 -5.5882437820761093e-04 4.0354056541581424e-04 7.3216968774358275e-04
297 -8.6333808212114252e-04 4.4172936007822768e-04 -2.0296318391853894e-04
298 -6.1665661789689417e-04 2.7006989132805016e-04 7.4819096896937656e-04
299 -6.7405873283978533e-04 3.7495250397601030e-04 6.3963520952314910e-04
300 -6.0890570716811451e-04 4.9848645192498400e-04 6.1905325249849927e-04
301 -7.1852996791630383e-04 4.6192413347443713e-04 5.1562209976098179e-04
302 -7.7503675646446485e-04 3.3588454463410707e-04 5.3196753625847756e-04
303 -3.0536262994412041e-04 -6.5961341730993083e-04 6.9432934290106674e-04
304 -6.3866345136984648e-04 5.8868112364406956e-04 4.8953959586527519e-04
305 -8.0538540567949828e-04 4.1534883555385306e-04 4.1044388166939513e-04
306 2.0501633613543205e-04 -5.5198927529414405e-04 8.2110356068556287e-04
307 2.3917349102373940e-04 -4.2573244783820940e-04 8.8784694285757931e-04
308 3.4445887478821177e-04 -5.0095700809181759e-04 8.0638277363221191e-04
309 -4.5618551008960506e-04 -7.3679663620274051e-04 4.9404431789814326e-04
310 -8.5680748550182343e-04 2.8028591651750123e-04 4.2106260076573299e-04
311 -4.0209063749402113e-04 -8.5761760446800199e-04 2.9856109232870016e-04
312 -7.5573425446040770e-04 6.3376686355706723e-04 7.8981312044082124e-05
313 -8.4299643238930149e-04 -4.9684278448214650e-04 -1.5425075560785665e-04
314 -7.2059077240266547e-05 1.1989559689230833e-04 1.0084785759824175e-03
315 -8.8053915515401806e-04 3.5062520778296317e-04 2.9471049527196022e-04
316 -9.6890736939734970e-04 1.8289753321677405e-04 8.5433347870160256e-05
317 -1.0495354570112462e-04 7.6922022961717850e-04 -6.3276193245781498e-04
318 2.7066673335513934e-04 -3.9856719899671771e-04 -8.9121989493043808e-04
319 -6.8448395232356761e-04 -7.1256497356082414e-04 -6.4015279791091028e-05
320 -5.9754377425932600e-04 -7.8897747474012715e-04 -6.0833855497935268e-06
321 -6.6311526277869402e-04 -4.1313579337021275e-04 -6.2744528415748641e-04
322 -5.7371971341258881e-05 -2.1624708977087005e-04 -9.9227898132459155e-04
323 5.0903828077577499e-04 -8.4682166400932147e-04 7.4492971174367682e-05
324 -6.1351519997633922e-04 7.6986199031962453e-04 -1.0009394713677228e-04
325 2.8912690614661451e-04 5.4552325585141852e-04 7.9745653951325611e-04
326 2.7705435916065911e-04 -6.4258825078011340e-04 -7.2308800372983620e-04
327 1.5546706503596937e-04 -6.0471568289245973e-04 -7.9280769518320134e-04
328 4.2576830391049760e-04 5.3670842211235245e-04 7.3691108804325826e-04
329 4.8905218904804861e-04 4.1937832053405149e-04 7.7500391831793994e-04
330 4.4863606758404207e-04 4.4736737952049907e-04 -7.8331932719434474e-04
331 9.3894074222396640e-06 9.7653851526558171e-04 1.6421469322220396e-04
332 -1.2654006773819660e-05 9.8845509965293245e-04 4.2786551449767408e-05
333 -1.5133573303136778e-04 9.7764435374619396e-04 3.7562661404479698e-06
334 1.1795585112989931e-04 9.7929341557302478e-04 8.0408374834215756e-05
335 3.6354883502043902e-04 -3.6305586370882201e-04 8.7251053638531600e-04
336 4.6162953658649309e-04 -4.2986934900993894e-04 7.8720283466569905e-04
337 -8.1484690920193470e-04 2.1069899986939105e-04 5.3660119758757493e-04
338 -3.5885571433872868e-04 5.2248295870062681e-04 7.8313716183631968e-04
339 -1.1417196313567775e-04 4.5969166806116392e-04 -8.9475133490164369e-04
340 3.6756809943654084e-04 -3.0233538544020166e-04 -8.9446234080990119e-04
341 1.6947545138624568e-05 -2.8743539676690330e-04 -9.7510878959391296e-04
342 -9.2232230549397175e-04 3.4770360613228752e-04 -9.8592530752740471e-05
343 1.9238802269285636e-05 -3.8409520207183576e-04 9.3993877407554766e-04
344 -5.2329173404569776e-04 6.1361226928108000e-04 5.9175884967208926e-04
345 -5.3547165724560216e-04 7.0637011144527239e-04 4.5601464925793629e-04
346 -6.5386668116254067e-04 6.5867928569491923e-04 3.5409070203213435e-04
347 6.1694356328842773e-04 -3.6543489958854465e-04 -7.0488583566147582e-04
348 7.2509960691092006e-04 -3.7158161341564055e-04 -5.8161326522051051e-04
349 5.4583939516157404e-04 5.2080906456407566e-04 6.6122466744226473e-04
350 6.0783674191451404e-04 4.0126397771608649e-04 6.9160484513258020e-04
351 6.5917385225724621e-04 4.8914524915009625e-04 5.7123522230245868e-04
352 7.1393565428088225e-04 3.5770081045156547e-04 6.0422635846932022e-04
353 7.5257440531895905e-04 4.4800450739693312e-04 4.7713534646740571e-04
354 -6.3913860844819681e-04 -7.3056880572543745e-04 2.0100618282893536e-04
355 2.6239281026688312e-04 5.5791039248728790e-04 -7.9738404667775221e-04
356 1.4095816701292725e-04 5.6357341686346795e-04 -8.2540676998952753e-04
357 -6.7862175774684359e-04 3.2414713371968897e-04 -6.6315019289244024e-04
358 5.2561795766013699e-04 -8.2644603543099255e-04 -1.5226143526293512e-04
359 4.4991206013092721e-04 -8.4228749990581243e-04 -2.7151603274291685e-04
360 -8.1913458296990088e-04 4.8492857365970023e-04 2.7887161822846287e-04
361 -1.2957046951681767e-04 -5.3660959762041351e-04 8.4742896315585510e-04
362 -1.9327905820217431e-04 3.5720469525568491e-04 -9.2911458793597463e-04
363 -2.3586163607790126e-04 5.1973581955220844e-04 8.3260713273396582e-04
364 -5.1754668256592969e-04 8.2482356622158386e-04 -1.8016968835294362e-04
365 1.6484107555967759e-04 5.5126851853615850e-04 8.2990012383487037e-04
366 -3.7086062490782724e-04 -2.9158888782409765e-05 9.4456272587948871e-04
367 -6.9972825710902541e-04 -6.4031149479436874e-04 2.9297175145712048e-04
368 2.1297377113841837e-04 6.7278852148891846e-04 7.1687612268449860e-04
369 8.2690450531785811e-05 6.3768317788019289e-04 7.7442740109434237e-04
370 7.0243150672252527e-04 -2.5330531099751019e-04 -6.7149666268881099e-04
371 -5.3979849241269327e-04 1.6656662210370399e-04 8.3766943765328718e-04
372 -6.6187915262126652e-04 1.3545979647743340e-04 7.4681022895095432e-04
373 5.4982686694931356e-04 8.2139057869628324e-04 -5.0803467213601074e-05
374 -1.5336934546529156e-04 -7.0371529557557914e-05 1.0040212960227700e-03
375 -3.7677770346851344e-05 -1.6241967423967661e-04 1.0044239030207278e-03
376 -3.0068909115224377e-04 -9.1681005721311424e-04 2.3063677036706817e-04
377 -4.3029460499730964e-04 -8.7915166241916184e-04 1.5922382934351612e-04
378 -9.2376129604039646e-04 1.9159908227278947e-04 3.1089804972429271e-04
379 4.2822121978333520e-04 6.6105209474894835e-04 -6.1918399229552899e-04
380 1.5406027127800684e-04 -7.1448929342894792e-04 -6.8946004090240768e-04
381 2.8061821608993886e-04 -7.4357617140010691e-04 -6.0978371799708282e-04
382 -8.9472057374797675e-04 -3.7621147875430968e-04 -1.9979923810407673e-04
383 -8.2825331454134082e-04 -4.6710588674614293e-04 -2.8322833733108804e-04
384 -7.6470264723367196e-04 -5.8352373723701088e-04 -2.4137486264231480e-04
385 -1.6570918913350890e-04 -9.3621947275388602e-04 2.8644344193533853e-04
386 -6.6048707535945801e-04 5.2559410209593901e-04 -5.3297309031693769e-04
387 -7.5946846347240565e-04 4.7355305831123641e-04 -4.3541013748371875e-04
388 8.7583602352100725e-04 2.4583494182261502e-04 -4.0366528258278025e-04
389 -9.0613226355804163e-04 3.2408999426873408e-04 -2.3705471581784505e-04
390 -5.0830815257638573e-04 8.4749219627908991e-04 -4.4671179496670789e-05
391 -4.0505407611407908e-04 8.9498363951274584e-04 -1.1991884783068919e-04
392 -6.0240116391036198e-04 7.8382416687184709e-04 3.0913732409806957e-05
393 -5.8873858131831608e-04 -7.8633414435245791e-04 -1.2686863176994921e-04
394 -4.9793048578960825e-04 -8.5325291538483269e-04 -6.1236149182828439e-05
395 9.2827806453438653e-05 9.8391164318651215e-04 -4.6631147814233578e-05
396 2.2589545593469168e-04 9.6324655140108317e-04 -1.1497898375708794e-05
397 5.2527757127379367e-04 3.2368547597113039e-04 -7.9815045063150940e-04
398 2.5665757484819561e-04 -2.9665849797815442e-04 9.3628449949460389e-04
399 3.7753801360548020e-04 -2.2232140022471298e-04 9.1514267512405462e-04
400 -2.8861716683374231e-04 6.0833264107163052e-04 7.4717905011581281e-04
401 -1.6950033216309144e-04 6.1688243629052348e-04 7.7681217861993079e-04
402 3.1359170235310357e-04 -6.1720967138717629e-04 7.3067369822292288e-04
403 6.6232950294228485e-04 2.7149459206412841e-04 7.0541403426182560e-04
404 6.6968989641333213e-04 5.8980429740585372e-04 4.4474600432328911e-04
405 -3.1241119175691369e-04 -9.3460927742631194e-04 9.9341914623487458e-05
406 2.3191822529427384e-04 -2.6314479070219338e-04 -9.5294089799991878e-04
407 3.3470595410858871e-04 -1.7903932771672168e-04 -9.4115679832527022e-04
408 9.2325927940745491e-05 4.5907140419295425e-04 -8.9745051700763575e-04
409 -8.8183399400789840e-04 4.2430502297370528e-04 1.5781958416244364e-04
410 -4.5207267146881786e-04 8.0981811905561857e-04 3.5573548074011881e-04
411 5.5853446050124593e-04 4.2196093801992360e-04 -7.2017344921990233e-04
412 4.6552430582664193e-04 6.5263514681039917e-04 6.0078000379367856e-04
413 8.1257361099362454e-04 2.9080401703109418e-04 5.0168158463579661e-04
414 8.3611847751534200e-04 3.8787005581218328e-04 3.7328642507991914e-04
415 5.0734856685875084e-05 -1.3824938424803089e-04 -1.0071111570201172e-03
416 -9.6675753142669936e-04 2.0806686411949923e-04 -4.1959570845942113e-05
417 -6.1701019569258687e-05 3.4184017729175142e-04 -9.5339796949457276e-04
418 -1.2384418683191798e-04 2.2628743674478108e-04 -9.8318300700680800e-04
419 5.8223916357578571e-05 1.6495119476724106e-04 -1.0013301497810055e-03
420 -6.7591902028017978e-05 -8.7036124726225724e-05 -1.0118449365232552e-03
421 -9.3823553962826779e-04 3.1120880395403517e-04 4.9999268505345630e-05
422 8.0092199732203270e-04 -2.5187618987103767e-04 -5.4272472964102746e-04
423 8.0963834511565188e-04 -3.7008972363128563e-04 -4.4866893521541427e-04
424 2.5328481373327379e-04 9.4944670730964071e-04 1.2071277861228811e-04
425 3.2174548419327245e-05 -6.8322073694197718e-04 -7.3981419907597824e-04
426 2.4231106689606323e-05 -5.4762643118933809e-04 -8.5022276823802244e-04
427 -8.4951067656245576e-05 -5.9386276260300680e-04 -8.1160796781974839e-04
428 4.1101808357497482e-04 -8.8771447897087160e-04 -1.5871894918851101e-04
429 3.2872728973709934e-04 -8.9759707247317533e-04 -2.6754867925651306e-04
430 3.6438927623554302e-04 -8.4230986040898794e-04 -3.8470305309484321e-04
431 -6.0203116538055349e-04 -7.2018404336983855e-04 3.2449291386442110e-04
432 -6.4360134012465483e-04 -6.2420124542995751e-04 4.3482768470971372e-04
433 1.4075459128854562e-04 -3.5297236301870853e-04 -9.4136758409723567e-04
434 -7.4084716734006961e-06 5.6261312097545611e-04 -8.3970311072712627e-04
435 7.3501248917814366e-05 6.6921226973891488e-04 -7.4793090459418510e-04
436 8.8267249582840430e-04 2.4504634473474039e-04 3.8808893760928083e-04
437 8.9920146598090715e-04 3.2644018494988028e-04 2.6322070097130367e-04
438 8.5066118036739805e-04 4.4630243889872263e-04 2.4601624988136337e-04
439 7.6332370984627117e-04 2.1482194242212468e-04 6.1249818731217451e-04
440 -5.8012138131124762e-04 7.4886834670650007e-04 2.9576859369201641e-04
441 -6.9587605869641047e-04 6.7366447213315650e-04 2.1183646917579017e-04
442 6.8478781602110807e-04 -1.1873228983280245e-04 7.2800469092523692e-04
443 7.2197411483528214e-04 -2.4063568703875380e-04 6.5443929610837386e-04
444 8.1954373192413702e-04 -2.4111054190884251e-04 5.1786110622571669e-04
445 7.5119402937935068e-04 -3.6093703077761497e-04 5.5256749587463227e-04
446 8.2446248429096116e-04 -3.6537149140223972e-04 4.2335543647253806e-04
447 7.4780378471547046e-04 -4.6965369122106481e-04 4.6330505473344999e-04
448 6.7005049984049804e-04 -4.6656462611004742e-04 5.7860283184620899e-04
449 8.0961786427987076e-04 -4.7321965059538761e-04 3.2969823879151425e-04
450 8.7737679054955347e-04 -3.6003215702457372e-04 2.9540435194594296e-04
451 6.4683344278285593e-04 -5.8757371032072572e-04 4.8296708890578269e-04
452 6.7611421231460623e-04 1.3250678874269259e-04 7.3458733248442257e-04
453 -5.7026643021714635e-04 -8.0068988892234843e-04 1.2103200900534294e-04
454 2.5622630564988343e-05 -4.1969392835333833e-04 -9.2340566783074651e-04
455 9.0332616984276548e-04 3.8287133416475491e-04 1.3684334118979386e-04
456 4.5252222148945348e-04 -2.1663619749934585e-04 -8.7941082265370911e-04
457 4.9986324397601617e-04 5.3949725761106388e-04 -6.8266950501363552e-04
458 6.0718572297455413e-04 -2.4346797648016149e-04 7.6757276263546563e-04
459 1.4593329453983309e-04 9.5700511786123447e-04 2.1168797131377004e-04
460 6.2174777252452750e-04 7.0020005425611978e-04 3.3155921886033940e-04
461 3.8750933109633488e-04 5.6263298427149892e-04 -7.3777606547329236e-04
462 -4.1901875965896817e-04 7.0709402475608695e-04 5.6818482662511927e-04
463 7.8167676927361272e-04 -1.3433119617179239e-04 -6.1240150868505290e-04
464 8.7391953249056588e-04 -2.4666948424886755e-04 -4.0855217892379610e-04
465 8.7116252127316393e-04 -3.6324328104353796e-04 -3.1022332308222074e-04
466 1.1320853012325595e-05 8.3085991697748633e-04 -5.5429653982552371e-04
467 9.2355269267704952e-04 -2.4130643095611712e-04 -2.7229339214259086e-04
468 9.1285427000185383e-04 -3.4864739025415722e-04 -1.6929571889698076e-04
469 1.5206746700960122e-04 3.4751361590435739e-04 -9.4065956246363117e-04
470 8.4719537246163100e-04 -4.7287068972498510e-04 2.0657360041539176e-04
471 9.1174843158114960e-04 -3.4600397253725120e-04 1.7843806210175576e-04
472 1.9577975477081216e-04 7.7568349698084699e-04 6.0154650115054164e-04
473 1.3240014468279606e-04 -2.2311119356558480e-04 -9.8305530902375042e-04
474 2.2783093372977630e-04 -8.9616075023647203e-04 -3.6647027479567117e-04
475 5.7049370903062364e-04 7.6545741507118379e-04 -2.6904389995654235e-04
476 3.1542809271714790e-04 7.2082875419128534e-04 6.1955523356361619e-04
477 2.9061911775886141e-04 7.3347596655799535e-04 -6.1649622377997699e-04
478 -1.9101280183253674e-04 -5.6266207496592953e-04 -8.1560336676657623e-04
479 -1.8385792613592199e-04 -6.7844846817512953e-04 -7.1924796732243939e-04
480 -3.9518853423365258e-04 8.2593847493205388e-04 -3.8717661572518946e-04
481 1.9580034676538408e-04 6.6392952888088815e-04 -7.2901464915432724e-04
482 7.5558250102509780e-04 -6.0066217211972187e-04 2.3405525287623625e-04
483 8.8061098030340484e-04 -4.4479919723486289e-04 8.8905079999245852e-05
484 9.3508282603049471e-04 -3.1938000263725925e-04 6.4498949283958493e-05
485 5.7966174863916550e-04 -2.4345393458687431e-04 -7.8891035514101380e-04
486 4.0112141931410926e-04 1.5094537357334222e-04 -9.1834337255642599e-04
487 9.7941156869875987e-04 1.2723176560025767e-04 -7.4349977972372832e-05
488 9.4805604204856511e-04 2.6456638172658143e-04 -1.1827674031491392e-04
489 9.6254100138254482e-04 2.2897099901257489e-04 1.0879433258131817e-05
490 8.9507665882088345e-04 4.1484682990553651e-04 -8.7094897904018583e-05
491 3.4308955945211900e-04 9.2808656353761583e-04 1.8383346648083238e-05
492 3.1481567169070596e-04 9.3046321537266249e-04 -1.2830583788399382e-04
493 4.3640124442417870e-04 8.8517164925959338e-04 -7.3714252719671544e-05
494 9.0741960582878614e-04 -3.9514085257892791e-04 -2.9870283386332277e-05
495 9.4798249025041914e-04 -2.7995482303869553e-04 -5.9364298871656308e-05
496 -3.9305539644195919e-04 9.0763957852901605e-04 1.9154046381598083e-05
497 9.7933884946544195e-04 1.2987117537386933e-04 7.0026022123894103e-05
498 6.7951681098015837e-04 6.7714365856258495e-04 -2.5156466993359701e-04
499 9.8067622797030430e-04 -1.2516891456487421e-04 -6.9020015671468504e-05
500 9.6316405454638528e-04 -1.0917451866233188e-04 2.0951219168677826e-04
501 9.2333991604553361e-04 -1.1864955105644400e-04 -3.4908964469891726e-04
502 8.6686498540663841e-04 1.2215177812180351e-04 -4.7796631125244404e-04
503 8.7171183084567162e-04 -1.1367965577749443e-04 4.7152579415629556e-04
504 4.3178569585531110e-04 1.0876625251735475e-04 9.1061470343482820e-04
505 4.2126866836323577e-04 3.1942219434457405e-04 8.6228911045846597e-04
506 6.5547819173621949e-04 -3.5165700107346598e-04 6.7449508869291857e-04
507 3.2859915788533794e-04 -1.2376029074956596e-04 9.5301596254619974e-04
508 8.5812657958321897e-05 -1.2113363112616497e-04 1.0077200915526710e-03
509 1.4891756044331137e-04 -2.2779904977602455e-04 9.7977203684785361e-04
510 2.5887876166489683e-04 -2.0609529528757206e-04 9.5986256564268874e-04
511 -1.9881096115450728e-04 6.8741951773142575e-04 -7.0503179912735181e-04
512 2.7644004173168037e-04 9.2044714569173333e-04 2.4396160338199674e-04
513 5.8182083691318462e-04 -8.0105900753396956e-04 -3.3734299506428474e-05
514 2.6488681691487107e-04 -9.5371311101403794e-04 3.7834171915626358e-05
515 2.9911119143723669e-04 -9.3158225413490716e-04 1.5979791933828349e-04
516 -5.4594326445279507e-04 5.6767612454228255e-04 -6.1833434753182234e-04
517 7.6474786567216294e-04 -5.8026294539332461e-04 -2.5161000347703093e-04
518 -1.4393206387515085e-04 -9.7876546088256598e-04 -4.2971421716403788e-05
519 -2.8277022451227022e-04 -9.4844394014926832e-04 -4.5418847078042134e-05
520 -3.2738963841472227e-04 -9.1745900531641693e-04 -1.8343143597658335e-04
521 -7.8678112999800267e-04 5.2267262210946004e-04 -3.0410409567651069e-04
522 -9.7795270120985909e-04 9.2358877943634295e-05 -1.2328790451424999e-04
523 7.7901468549722384e-04 5.9969592623201591e-04 1.1850527171639086e-04
524 -7.9636324902675995e-04 -5.3615184398351124e-04 2.4924197581646407e-04
525 7.7840469147376660e-04 5.0668727289624566e-04 3.5347476724528586e-04
526 4.9030990573428008e-04 -7.7145378669694811e-04 -3.9403609014881875e-04
527 -9.4308424618588934e-04 -2.8006422105079302e-04 -1.1158617873520306e-04
528 -9.3868656102110023e-04 -7.2038766744590417e-05 3.1524080856176203e-04
529 -9.1386433783581782e-04 5.2289775381111531e-05 3.8849996067049427e-04
530 -8.3955358746266645e-04 5.3374981848231517e-05 5.3942600404995728e-04
531 -7.6773001049844206e-04 -6.1608687749104061e-04 -1.0944256886472242e-04
532 -9.7102986013610686e-04 -7.2347323143379544e-05 1.8247740580876556e-04
533 -7.3634988143915178e-04 5.4189635969665781e-04 3.9043457427672258e-04
534 -6.9682334104721657e-04 7.0166956297917850e-04 -1.9025786914098260e-05
535 -2.4422621126287775e-04 -9.1735060119608417e-04 -2.9104644504985867e-04
536 6.2529876895921449e-04 7.5389037742292322e-04 -1.4638048419952958e-04
537 -1.3776696119100320e-04 -8.9234131802591740e-04 4.2047334121998145e-04
538 -3.9118464234707554e-05 9.8543717625346390e-04 -7.9642204271932805e-05
539 -1.7781007598498930e-04 9.4200848608741786e-04 -2.5114269440122672e-04
540 6.1562411984956937e-05 9.7092554116308730e-04 -1.8907306028460098e-04
541 -9.3173126065100153e-04 2.8155320309560303e-04 1.8444985548461351e-04
542 -8.6963928035709037e-04 -4.2861253466780301e-04 2.0605175563410033e-04
543 -7.9939524106065088e-04 -8.1981744201970299e-05 5.9668265897282386e-04
544 -7.4925673081826551e-04 1.5663628173705326e-05 6.6690302250591472e-04
545 -6.5590900966857300e-04 -5.3063204771249602e-04 -5.3481759038561099e-04
546 -7.4779005734604438e-04 -4.2347498546067993e-04 -5.0685241502684288e-04
547 -7.5606511521318057e-04 -2.9725544286363705e-04 -5.8369246282786405e-04
548 -6.6219814658930072e-04 -2.8018788898044860e-04 -7.0196529197564562e-04
549 2.6195383038028270e-04 -8.1395253957109207e-04 5.1616095648479099e-04
550 5.8495683703059867e-04 6.0208930156521701e-04 5.4027805379717629e-04
551 8.6858373567195828e-04 3.6136712127622645e-04 -3.1794630936555780e-04
552 8.8661017461541547e-04 -2.3957379563908064e-04 3.8337384609199714e-04
553 1.6070131883827741e-04 -7.7296379368998135e-04 6.1736791581598377e-04
554 -4.4251746714618975e-04 -6.4673453885385481e-04 6.2629523722018536e-04
555 -3.8313815658662359e-04 -5.5792267746613167e-04 7.4557800834503766e-04
556 -8.2963988941825179e-04 -4.2966917827615966e-04 3.3750775611501876e-04
557 -6.0011818238946081e-04 -7.1686184213638651e-04 -3.3542435202327210e-04
558 -7.2168304181127914e-04 2.4630783774556538e-04 6.5056645658097690e-04
559 -6.8123115939871268e-04 -4.4215588156201161e-04 5.8455974288116979e-04
560 -5.9022845135591623e-04 -5.5994382694010084e-04 5.8403609088652835e-04
561 6.3032056044758143e-04 4.8348671210986558e-04 -6.1046426442994540e-04
562 -3.2465004934300045e-04 -6.8083841851583279e-04 -6.6246484099112264e-04
563 -4.8715634546514475e-04 5.1515846057891121e-04 7.1184627466096913e-04
564 7.2698838858897493e-04 -4.8445994446538011e-04 -4.8219169084298479e-04
565 -8.6516178958017780e-05 -2.8381473246619042e-04 9.7253717193822764e-04
566 -1.0446830064358066e-04 -4.1153358566591480e-04 9.2150175589671721e-04
567 -2.0693389567739528e-04 -3.2525780362884985e-04 9.3929954521910846e-04
568 -1.6785086430341721e-04 -6.5274247655675043e-04 7.4863053954086209e-04
569 4.0015595233361515e-04 -6.7122601328035623e-04 -6.2818977321015131e-04
570 -7.0672279863621360e-04 -1.0371478387112842e-04 7.0676162361536603e-04
571 5.4260851088512422e-04 3.1514306978531331e-04 7.8915980821612467e-04
572 4.9404581394227385e-04 -3.4279478331910706e-04 -8.1114310927082542e-04
573 1.3868779688613515e-04 -3.4246411873496186e-04 9.4607801240101114e-04
574 -7.3948682958006396e-04 1.9611585504524025e-04 -6.4759875579867862e-04
575 1.5416344949002408e-04 -4.7656561648995590e-04 -8.8024698952367101e-04
576 -4.4760946351571172e-04 -4.2446428112367072e-04 7.9982373300659440e-04
577 -3.2751698743127235e-04 3.7705086085074451e-04 -8.8013048937853370e-04
578 -2.6600842369545148e-04 2.4795888086405222e-04 -9.4753578749891677e-04
579 -3.2498191258815723e-04 1.6087667416281120e-04 -9.4772007977795951e-04
580 -4.9133899779737838e-04 8.1639047998949412e-06 -8.8489816375517095e-04
581 4.5519570975973534e-04 -5.5979042246194965e-04 7.0147929076596325e-04
582 4.7573841257592695e-04 -2.9659571712011348e-04 8.4122711431451581e-04
583 -4.4414130691039760e-04 1.3455554873561022e-04 -9.0020071339155794e-04
584 -4.1061871997004486e-04 1.9778817110940736e-04 9.0486968278410723e-04
585 -4.5491057891174590e-04 6.0557770045297231e-05 9.0337590467005349e-04
586 -3.3553784736053179e-04 -4.2820958008344236e-04 -8.5216352081233420e-04
587 2.9329777791609805e-05 9.4725590677624755e-04 2.9382304537698388e-04
588 -3.9949790684072698e-04 -7.6784029833729578e-05 -9.2907022128586956e-04
589 -2.7256526654167215e-04 -4.3090326819698361e-05 -9.7818866817651895e-04
590 -1.5722823851093952e-04 -1.3486571361370853e-04 -9.9603418862888424e-04
591 -1.6448711685362806e-04 4.2714074292616726e-04 9.0356184438987258e-04
592 -5.1229207889117053e-04 7.9033084140300836e-04 -3.1287432840827468e-04
593 -2.4773803154922537e-04 6.2890929711237791e-06 9.8613518296856973e-04
594 3.5848301484958162e-04 2.1403270186021918e-04 9.2425139146445619e-04
595 -7.9569884538318160e-04 5.6359091330701573e-04 1.7402073084488157e-04
596 4.2512288650979222e-04 -8.7815242940680134e-04 1.7747982264192965e-04
597 1.0477263021260323e-04 4.4036956337752218e-04 9.0649223167284265e-04
598 3.2602248842236123e-04 8.9563249141054674e-04 -2.7404370628061414e-04
599 1.8633984786262475e-04 -6.7232202351017779e-04 7.2527758664440002e-04
600 -5.2276639923615968e-04 -8.0607487512937299e-04 2.4704512081149199e-04
601 -8.4230649824206937e-04 4.0120402030170682e-04 -3.3999250687065310e-04
602 -8.0889258909535189e-04 3.4881949717376965e-04 -4.6494188484179512e-04
603 -7.4300787058401423e-04 -5.3434917136281873e-04 -3.9117578272039979e-04
604 -9.0579081377852695e-04 1.5214618914866185e-04 -3.7995496048293684e-04
605 -4.0396739864918823e-04 -9.0337901981985685e-04 2.4663919625342044e-05
606 -3.1599007409985851e-04 8.5088994665924672e-04 4.0635033511298395e-04
607 3.9769198406211672e-05 1.3110462765453471e-04 1.0081517200554323e-03
608 -5.7645216132304295e-05 7.7155524288112954e-04 6.3653144201327469e-04
609 -7.5021266314998772e-04 -1.7093989150219962e-04 -6.4266033165246924e-04
610 9.4692012965609789e-04 2.5879678255602377e-04 1.3838673283637860e-04
611 4.0741171079707879e-04 -9.4952312985012373e-05 -9.2404430604567649e-04
612 9.2389305762656667e-04 1.2115002733772395e-04 3.4623216670283966e-04
613 -3.7791711199465755e-04 -8.6508624106625283e-04 -3.0864907029712883e-04
614 4.7632282983238548e-05 -7.9465214891875815e-04 -6.0827093196970914e-04
615 4.6655359024951515e-04 -8.7288954259436740e-04 -3.9587803240453289e-05
616 -6.7812823235399093e-04 -6.9556068133644648e-04 -1.9997993825609115e-04
617 -9.2794711854751321e-04 -2.4660117997074706e-04 -2.4755035315121630e-04
618 -6.1996591176978347e-04 4.4558804997440289e-04 -6.4946511365010279e-04
619 1.8060614022160750e-04 -9.4917452066143443e-04 -2.2758422634867656e-04
620 -3.6920968532189046e-05 -9.3607575109375129e-04 3.3217360279636063e-04
621 3.9235876525959055e-04 -7.6447081799359262e-04 -5.0865981032791063e-04
622 -2.1644679518420014e-04 -4.4381632700055286e-04 8.8416901689474577e-04
623 7.9523239733798271e-04 -4.8275532577842515e-04 -3.5120313685122465e-04
624 9.2310359592821952e-04 1.2750709918277041e-04 -3.4601282056021952e-04
625 -4.0723883369877222e-04 6.1329411611635136e-04 6.8144212883578881e-04
626 -2.5463148325488918e-04 -5.5786570294562657e-04 8.0159789288171629e-04
627 -9.0866388230244170e-05 5.3571826329081777e-04 8.5210146399474786e-04
628 4.6541615476212311e-04 8.7229393074232252e-04 4.5404346903103934e-05
629 -9.5752107237550752e-04 4.6906661001301845e-05 2.5325528867513699e-04
630 -5.9391008317900189e-04 7.7562336706976632e-04 1.6069058262810069e-04
631 -8.3264730202256012e-04 -1.9497608504274251e-04 -5.1452103927585654e-04
632 -4.0793570949030489e-04 8.6693784203025642e-04 -2.5437551560386043e-04
633 9.2410212856975185e-04 2.4179215594911162e-04 -2.6901524314174328e-04
634 -3.3022519160153424e-04 1.0346728509569819e-04 9.5462557471781779e-04
635 3.9083391340962148e-04 -9.0840920035456432e-04 5.8916154131255715e-05
636 -6.8106526520839421e-05 -9.6853780380596580e-04 2.0151933895086951e-04
637 -4.8880994005593597e-04 -6.6783251551524945e-05 8.8425674580226374e-04
638 4.4255234647251949e-04 2.6701430775208200e-04 -8.6816191916971126e-04
639 4.4284354891691534e-04 -1.0392723034162240e-04 9.0573414652772870e-04
640 -6.3777665111050663e-05 6.7020164992874747e-04 -7.4769027488044509e-04
641 -9.5199408736942881e-04 2.1798908543672221e-04 -1.6363022005317583e-04
642 -8.7741541218180538e-04 2.7722263327137754e-04 -3.7532646490871633e-04
643 2.8393187919662123e-04 -7.2440442526480438e-04 6.3231996452100029e-04
644 5.6794681886342525e-04 -4.5571281530638159e-04 6.9226726696457197e-04
645 6.1794558857779160e-04 2.2376849694552306e-04 -7.6308744407205199e-04
646 -2.0181658681527872e-04 1.2275478314344006e-04 9.8902472664201503e-04
647 2.5057721904636527e-05 5.5012252359511746e-04 8.4721403532717261e-04
648 -7.4566885555777448e-04 5.9198835130285584e-04 2.7499778042502140e-04
649 -2.6215042388371784e-04 9.5055800280200299e-04 8.3131588099234541e-05
650 9.2938779158835774e-04 -2.3207142201457068e-04 2.5992128624028737e-04
651 -4.6780911634728990e-04 -8.5429192344432141e-04 -1.8654723448030013e-04
652 -8.7280928493053478e-04 -3.4233327035139839e-04 -3.2666385171806639e-04
653 -1.8725136910175498e-04 1.2479362393448253e-04 -9.9164522300400153e-04
654 8.4478018974369076e-04 -4.6862010443551779e-04 -2.2484927036670369e-04
655 -7.1894015179798201e-04 4.0950444495209436e-04 -5.5969423884949250e-04
656 6.6523914601120170e-04 -1.3567109302480902e-04 -7.4367440446318131e-04
657 -7.4690055848115997e-04 -5.4156303022905527e-04 3.7028923413716803e-04
658 -3.7700630925134474e-04 3.9944507246096576e-05 -9.4092484298227892e-04
659 -1.3234728907927630e-04 2.5404045358417906e-06 -1.0094859187571104e-03
660 -3.7961572816601794e-05 3.6429046644109568e-05 -1.0160269937369128e-03
661 8.4356390301454614e-04 -5.1829269086563115e-04 -1.4398913513726220e-05
662 4.6826415553075357e-05 -2.3678973236339061e-04 9.8863167844440701e-04
663 5.1923430403519636e-04 8.2677226846042797e-04 -1.6563618833636862e-04
664 -2.8469257578223235e-04 9.4588615762389099e-04 -5.4662892062375655e-05
665 -2.9292973379408700e-04 9.2758761370270119e-04 -1.8535508417857834e-04
666 -5.9780148339302756e-05 1.1951079625027642e-04 -1.0092790823360526e-03
667 2.6391969264703943e-04 -8.3060777177596846e-04 -4.8567133108250285e-04
668 -5.7113815339740275e-04 3.2399449335252599e-05 8.3248753418119919e-04
669 -8.2619770927036431e-04 -3.1415123544692691e-04 -4.5928882161649546e-04
670 -5.0382704494258252e-04 8.4653060898231939e-04 9.3101236680195830e-05
671 -9.5931658921160831e-04 1.5390119501351842e-04 1.8918883072057671e-04
672 5.5789697060155735e-04 -3.5597138613172226e-04 7.5849401653995373e-04
673 -5.3646299624896091e-06 2.3680442005819690e-04 -9.8840318354967470e-04
674 -1.9173405718519104e-04 -9.5859192588519486e-04 1.6211512928393436e-04
675 4.1228540315945192e-04 7.4792543078168743e-04 5.1487082214561782e-04
676 8.1130086423059048e-05 7.3869692655810872e-04 6.7431492522730587e-04
677 4.6955790319175403e-04 2.2252809913236900e-04 8.6790670367243997e-04
678 -4.8222603272366898e-04 -7.8679627055873295e-04 3.6993358502168422e-04
679 3.1210727421016840e-04 -7.5012593371905762e-05 -9.6379703662394299e-04
680 3.9897078570631100e-04 -6.6721477686609517e-04 6.3182607536254058e-04
681 -8.7876017186197942e-04 1.5810424535899376e-04 4.3828904055363236e-04
682 -8.9124627753687971e-04 4.2779807209500392e-04 1.5056087934783327e-05
683 -6.7249584987936190e-05 1.4798757411650510e-05 1.0150578101710886e-03
684 3.4799789606627181e-04 -9.2565274613758618e-04 -5.3986305396291800e-05
685 4.0977592665199350e-04 8.8120959543034228e-04 -1.8754537676689482e-04
686 1.7012853221702351e-04 -7.9743303438776895e-04 -5.7851891712960607e-04
687 1.8308933753704391e-04 9.6396245877976522e-04 -1.2514225043466410e-04
688 -8.0961355970898970e-04 -4.2066147279967828e-04 -3.9351588631793266e-04
689 -5.4223693812394396e-04 -6.5508701371811101e-04 5.2154929471513343e-04
690 5.7818305278252641e-04 -6.8641051318235678e-04 4.3103067232803824e-04
691 9.5452123153991859e-04 -2.2523083289195003e-04 1.4067111829945320e-04
692 -6.8598191597913651e-04 -5.3224069503384494e-04 4.8938572635425144e-04
693 9.2866562701162335e-04 2.1974829345524694e-04 2.6935451295644536e-04
694 -1.7534577523352338e-04 9.6596105890590922e-04 -1.2355544194550986e-04
695 9.0574130290944368e-04 3.4828561297100391e-04 -1.9805538619769233e-04
696 -4.0727577048718682e-05 6.6479495989074969e-04 7.5576642970232326e-04
697 -3.3179959548012032e-04 -4.7392177687509326e-04 8.2740027342496458e-04
698 9.2681675050974681e-04 3.4835255638677749e-04 1.8670376659796275e-05
699 -4.9487163313340814e-04 -5.3224034833542519e-04 6.9297260642641042e-04
700 -6.6174224598737879e-04 -2.8521117095470869e-06 7.5765684121584156e-04
701 5.7522632263684950e-04 -5.5366232068502553e-04 6.0349873746452700e-04
702 -6.8683308470423904e-04 -6.3983186013660907e-04 -3.2164039253112202e-04
703 -7.6092029791339708e-04 2.9588216694432286e-04 -5.7517865055492533e-04
704 4.9388037905640909e-05 3.4765718310430431e-04 -9.5187244906469167e-04
705 3.1876255938689861e-04 6.4407104618406706e-04 -7.0002619275749516e-04
706 -3.2191965525033836e-04 6.9665341775049109e-04 6.4260812381310216e-04
707 1.1230906002212331e-04 -9.2726111522295083e-04 -3.3742969850127812e-04
708 -6.7686848469973061e-04 7.1472299837635001e-04 9.2127092665634058e-05
709 1.1082611131884241e-05 7.5385391305082990e-04 -6.5946643916858913e-04
710 -4.0369793307975361e-04 7.8166102148896806e-04 4.6539449844257031e-04
711 -9.2626353131192781e-04 2.2030299830825216e-04 -2.7437123864478588e-04
712 7.7976198293080285e-04 1.0772585289624579e-04 6.1893774826406146e-04
713 -2.2158256537583139e-04 -7.5428939565677199e-04 -6.1973800256404511e-04
714 6.4021338019712448e-04 3.4410302771693081e-04 -6.9315280402005696e-04
715 -2.0857296137954034e-04 -9.6589892922654269e-04 5.0374706317575610e-05
716 -2.5143156832216709e-04 4.9069017755781255e-05 -9.8293099227437369e-04
717 -3.9606333959278520e-04 -9.0209412494513083e-04 -9.2035635163994502e-05
718 5.0128867206692687e-04 -2.0300922736902956e-04 8.5385465577568140e-04
719 7.3002641993816274e-04 -5.6292790333021322e-04 3.7210345099174567e-04
720 8.4297754476856919e-04 4.9661569988679679e-04 1.4888873826536029e-04
721 2.3810201427113776e-04 -1.6240186065189584e-04 -9.7375490239813849e-04
722 -5.7008860567379850e-04 -7.7639601921697095e-04 -2.3252275691546047e-04
723 5.6892243833752421e-05 6.8857391029508694e-05 -1.0135374193970671e-03
724 -1.8440081133266496e-04 7.2048906676645894e-04 6.7433962772987463e-04
725 8.6796347253865190e-04 -4.6167988156950354e-04 -1.1518666814234332e-04
726 5.8169533179248446e-04 2.1682030911218469e-04 7.9383355688024686e-04
727 7.8466664117532556e-04 5.5768952147850740e-04 2.3600572978691188e-04
728 5.4599489257293066e-04 6.0141523448390094e-04 -5.8175616543844626e-04
729 4.5043435606159714e-04 1.0297965359532176e-04 -9.0047449962372603e-04
730 7.1653588393942613e-04 6.0616237010985763e-04 3.2179982755409616e-04
731 -2.6350747340489434e-04 -6.1342966450562931e-04 -7.5123169675163533e-04
732 3.4592994235985934e-04 6.3315451495174577e-04 6.9759103107573911e-04
733 -7.3638640830116621e-05 9.6859969789149557e-04 -1.8813000640316232e-04
734 -2.4470785407594808e-04 -4.7764104345082774e-04 -8.5615854686896145e-04
735 9.5237511566049441e-04 -2.2150539021629270e-04 -1.5655610017001760e-04
736 9.6566997571212725e-04 -2.1300151711414408e-04 3.2666146607547983e-05
737 -3.2914604560881944e-05 -8.5793944722823743e-05 1.0134286947709485e-03
738 -5.0447728962254679e-04 -8.4941460979912260e-04 4.9174108826184460e-05
739 5.1273379961089120e-04 1.9387678922651140e-04 -8.4838243378394123e-04
740 -7.6203477033907180e-04 1.3420805944396098e-04 6.3505930678512334e-04
741 -1.5122445400051691e-04 3.9397834143346100e-05 1.0048319821947314e-03
742 -5.4396316617332527e-04 -7.1351781557554925e-04 4.2958465052800191e-04
743 -3.4423746658365058e-06 4.3436972479368274e-04 -9.1441000933589777e-04
744 2.9578428128070695e-04 -9.3125377898495905e-04 -1.6150225251508111e-04
745 -7.4288199981257144e-05 -6.8815289597327076e-04 -7.2745772522098270e-04
$EndNodes
$Elements
1486
1 2 2 0 0 410 440 345
2 2 2 0 0 421 541 409
3 2 2 0 0 409 682 421
4 2 2 0 0 545 603 546
5 2 2 0 0 426 427 294
6 2 2 0 0 294 454 426
7 2 2 0 0 265 682 409
8 2 2 0 0 24 41 4
9 2 2 0 0 3 24 4
10 2 2 0 0 238 642 602
11 2 2 0 0 520 651 613
12 2 2 0 0 653 666 659
13 2 2 0 0 404 460 98
14 2 2 0 0 222 482 219
15 2 2 0 0 40 463 9
16 2 2 0 0 608 724 696
17 2 2 0 0 435 709 69
18 2 2 0 0 413 439 29
19 2 2 0 0 345 710 410
20 2 2 0 0 422 463 40
21 2 2 0 0 98 550 404
22 2 2 0 0 95 724 608
23 2 2 0 0 4 41 5
24 2 2 0 0 232 701 581
25 2 2 0 0 490 698 488
26 2 2 0 0 29 436 413
27 2 2 0 0 416 421 342
28 2 2 0 0 312 595 441
29 2 2 0 0 41 486 5
30 2 2 0 0 405 605 519
31 2 2 0 0 409 595 265
32 2 2 0 0 69 481 435
33 2 2 0 0 434 743 339
34 2 2 0 0 342 641 416
35 2 2 0 0 485 656 370
36 2 2 0 0 89 587 90
37 2 2 0 0 108 466 317
38 2 2 0 0 378 629 529
39 2 2 0 0 581 680 232
40 2 2 0 0 281 434 339
41 2 2 0 0 638 739 486
42 2 2 0 0 659 666 660
43 2 2 0 0 345 440 346
44 2 2 0 0 22 44 25
45 2 2 0 0 9 463 8
46 2 2 0 0 44 81 25
47 2 2 0 0 459 587 89
48 2 2 0 0 127 670 630
49 2 2 0 0 508 662 509
50 2 2 0 0 375 662 508
51 2 2 0 0 492 598 103
52 2 2 0 0 604 642 238
53 2 2 0 0 507 510 399
54 2 2 0 0 488 698 489
55 2 2 0 0 34 473 415
56 2 2 0 0 399 639 507
57 2 2 0 0 603 688 546
58 2 2 0 0 316 541 421
59 2 2 0 0 647 696 627
60 2 2 0 0 403 439 352
61 2 2 0 0 221 603 545
62 2 2 0 0 595 648 441
63 2 2 0 0 412 550 98
64 2 2 0 0 411 714 397
65 2 2 0 0 486 739 729
66 2 2 0 0 696 724 401
67 2 2 0 0 247 482 222
68 2 2 0 0 397 714 645
69 2 2 0 0 613 651 212
70 2 2 0 0 207 745 425
71 2 2 0 0 98 675 412
72 2 2 0 0 219 482 230
73 2 2 0 0 560 692 432
74 2 2 0 0 432 689 560
75 2 2 0 0 454 575 426
76 2 2 0 0 352 439 413
77 2 2 0 0 415 420 2
78 2 2 0 0 40 464 422
79 2 2 0 0 89 512 459
80 2 2 0 0 425 614 207
81 2 2 0 0 377 600 453
82 2 2 0 0 89 90 88
83 2 2 0 0 80 466 108
84 2 2 0 0 520 717 651
85 2 2 0 0 602 703 238
86 2 2 0 0 103 687 492
87 2 2 0 0 253 491 424
88 2 2 0 0 69 709 466
89 2 2 0 0 424 512 253
90 2 2 0 0 369 696 647
91 2 2 0 0 581 701 644
92 2 2 0 0 630 670 392
93 2 2 0 0 32 656 485
94 2 2 0 0 459 512 424
95 2 2 0 0 90 91 88
96 2 2 0 0 427 478 294
97 2 2 0 0 488 695 490
98 2 2 0 0 554 699 560
99 2 2 0 0 67 80 79
100 2 2 0 0 252 454 294
101 2 2 0 0 253 628 491
102 2 2 0 0 529 681 378
103 2 2 0 0 519 715 405
104 2 2 0 0 440 441 346
105 2 2 0 0 605 717 519
106 2 2 0 0 403 452 439
107 2 2 0 0 507 639 21
108 2 2 0 0 565 567 566
109 2 2 0 0 433 454 341
110 2 2 0 0 67 466 80
111 2 2 0 0 555 697 576
112 2 2 0 0 491 628 493
113 2 2 0 0 389 641 342
114 2 2 0 0 429 619 474
115 2 2 0 0 40 501 464
116 2 2 0 0 576 699 555
117 2 2 0 0 311 600 377
118 2 2 0 0 567 622 566
119 2 2 0 0 433 575 454
120 2 2 0 0 378 671 629
121 2 2 0 0 79 540 103
122 2 2 0 0 341 473 433
123 2 2 0 0 673 704 68
124 2 2 0 0 462 710 345
125 2 2 0 0 557 722 616
126 2 2 0 0 573 662 343
127 2 2 0 0 370 656 463
128 2 2 0 0 341 454 252
129 2 2 0 0 616 702 557
130 2 2 0 0 6 26 7
131 2 2 0 0 464 501 467
132 2 2 0 0 433 473 406
133 2 2 0 0 8 45 37
134 2 2 0 0 466 709 317
135 2 2 0 0 457 461 379
136 2 2 0 0 84 512 86
137 2 2 0 0 19 452 33
138 2 2 0 0 380 614 425
139 2 2 0 0 83 540 79
140 2 2 0 0 398 510 509
141 2 2 0 0 609 631 137
142 2 2 0 0 18 442 36
143 2 2 0 0 26 45 7
144 2 2 0 0 565 566 343
145 2 2 0 0 80 83 79
146 2 2 0 0 560 689 554
147 2 2 0 0 134 137 136
148 2 2 0 0 68 469 42
149 2 2 0 0 659 716 653
150 2 2 0 0 619 707 474
151 2 2 0 0 497 610 39
152 2 2 0 0 137 138 136
153 2 2 0 0 283 573 343
154 2 2 0 0 506 644 448
155 2 2 0 0 499 735 31
156 2 2 0 0 81 97 25
157 2 2 0 0 45 46 37
158 2 2 0 0 585 668 637
159 2 2 0 0 495 735 499
160 2 2 0 0 399 510 398
161 2 2 0 0 509 573 398
162 2 2 0 0 442 443 36
163 2 2 0 0 1 607 314
164 2 2 0 0 29 612 436
165 2 2 0 0 547 631 609
166 2 2 0 0 360 595 409
167 2 2 0 0 421 682 342
168 2 2 0 0 426 575 327
169 2 2 0 0 123 577 235
170 2 2 0 0 339 743 417
171 2 2 0 0 7 45 8
172 2 2 0 0 3 723 24
173 2 2 0 0 418 666 653
174 2 2 0 0 59 60 58
175 2 2 0 0 620 636 193
176 2 2 0 0 42 469 47
177 2 2 0 0 65 67 66
178 2 2 0 0 509 662 573
179 2 2 0 0 470 482 247
180 2 2 0 0 368 476 472
181 2 2 0 0 530 740 337
182 2 2 0 0 253 512 84
183 2 2 0 0 455 698 282
184 2 2 0 0 61 65 62
185 2 2 0 0 59 61 60
186 2 2 0 0 91 472 88
187 2 2 0 0 90 92 91
188 2 2 0 0 19 442 18
189 2 2 0 0 464 465 423
190 2 2 0 0 706 724 118
191 2 2 0 0 456 611 32
192 2 2 0 0 379 477 61
193 2 2 0 0 417 743 704
194 2 2 0 0 314 683 1
195 2 2 0 0 442 458 443
196 2 2 0 0 11 28 12
197 2 2 0 0 61 62 60
198 2 2 0 0 118 724 95
199 2 2 0 0 22 25 23
200 2 2 0 0 247 483 470
201 2 2 0 0 281 640 434
202 2 2 0 0 197 667 474
203 2 2 0 0 86 512 89
204 2 2 0 0 417 704 673
205 2 2 0 0 451 690 230
206 2 2 0 0 27 442 19
207 2 2 0 0 637 668 229
208 2 2 0 0 60 475 58
209 2 2 0 0 489 610 497
210 2 2 0 0 307 573 283
211 2 2 0 0 61 477 65
212 2 2 0 0 65 66 62
213 2 2 0 0 544 740 530
214 2 2 0 0 230 719 451
215 2 2 0 0 18 452 19
216 2 2 0 0 268 569 269
217 2 2 0 0 32 485 456
218 2 2 0 0 627 696 401
219 2 2 0 0 24 42 41
220 2 2 0 0 20 27 19
221 2 2 0 0 330 461 457
222 2 2 0 0 506 672 644
223 2 2 0 0 472 476 87
224 2 2 0 0 468 495 494
225 2 2 0 0 88 472 87
226 2 2 0 0 121 577 123
227 2 2 0 0 327 575 276
228 2 2 0 0 422 464 423
229 2 2 0 0 47 63 49
230 2 2 0 0 458 506 443
231 2 2 0 0 232 690 451
232 2 2 0 0 28 487 12
233 2 2 0 0 80 107 83
234 2 2 0 0 608 696 676
235 2 2 0 0 356 481 355
236 2 2 0 0 138 238 136
237 2 2 0 0 137 139 138
238 2 2 0 0 729 739 26
239 2 2 0 0 81 99 97
240 2 2 0 0 46 50 37
241 2 2 0 0 463 656 8
242 2 2 0 0 443 444 36
243 2 2 0 0 68 704 469
244 2 2 0 0 24 68 42
245 2 2 0 0 16 503 30
246 2 2 0 0 65 69 67
247 2 2 0 0 67 79 66
248 2 2 0 0 676 696 369
249 2 2 0 0 59 379 61
250 2 2 0 0 90 93 92
251 2 2 0 0 464 467 465
252 2 2 0 0 441 708 312
253 2 2 0 0 483 484 471
254 2 2 0 0 427 479 478
255 2 2 0 0 245 564 244
256 2 2 0 0 470 483 471
257 2 2 0 0 473 721 406
258 2 2 0 0 555 699 554
259 2 2 0 0 47 469 63
260 2 2 0 0 63 355 49
261 2 2 0 0 62 64 60
262 2 2 0 0 80 108 107
263 2 2 0 0 107 539 83
264 2 2 0 0 139 140 138
265 2 2 0 0 99 100 97
266 2 2 0 0 81 236 99
267 2 2 0 0 46 51 50
268 2 2 0 0 443 445 444
269 2 2 0 0 24 419 68
270 2 2 0 0 69 466 67
271 2 2 0 0 79 103 66
272 2 2 0 0 65 477 69
273 2 2 0 0 547 548 321
274 2 2 0 0 93 94 92
275 2 2 0 0 467 468 465
276 2 2 0 0 333 664 649
277 2 2 0 0 55 498 56
278 2 2 0 0 56 498 72
279 2 2 0 0 12 499 31
280 2 2 0 0 63 356 355
281 2 2 0 0 108 110 107
282 2 2 0 0 139 141 140
283 2 2 0 0 100 101 97
284 2 2 0 0 236 248 99
285 2 2 0 0 81 594 236
286 2 2 0 0 51 52 50
287 2 2 0 0 192 515 195
288 2 2 0 0 445 446 444
289 2 2 0 0 477 481 69
290 2 2 0 0 94 95 92
291 2 2 0 0 93 96 94
292 2 2 0 0 63 408 356
293 2 2 0 0 108 111 110
294 2 2 0 0 110 117 107
295 2 2 0 0 139 154 141
296 2 2 0 0 141 142 140
297 2 2 0 0 51 53 52
298 2 2 0 0 100 102 101
299 2 2 0 0 236 250 248
300 2 2 0 0 445 447 446
301 2 2 0 0 52 388 50
302 2 2 0 0 277 622 567
303 2 2 0 0 95 608 92
304 2 2 0 0 94 118 95
305 2 2 0 0 93 104 96
306 2 2 0 0 51 561 53
307 2 2 0 0 408 434 356
308 2 2 0 0 53 54 52
309 2 2 0 0 445 448 447
310 2 2 0 0 108 317 111
311 2 2 0 0 141 143 142
312 2 2 0 0 142 225 140
313 2 2 0 0 102 166 101
314 2 2 0 0 250 325 248
315 2 2 0 0 100 258 102
316 2 2 0 0 53 55 54
317 2 2 0 0 447 449 446
318 2 2 0 0 236 505 250
319 2 2 0 0 104 105 96
320 2 2 0 0 53 57 55
321 2 2 0 0 55 56 54
322 2 2 0 0 448 451 447
323 2 2 0 0 14 39 15
324 2 2 0 0 317 511 111
325 2 2 0 0 10 40 9
326 2 2 0 0 143 144 142
327 2 2 0 0 57 58 55
328 2 2 0 0 8 37 9
329 2 2 0 0 14 38 13
330 2 2 0 0 166 314 101
331 2 2 0 0 18 36 17
332 2 2 0 0 16 29 17
333 2 2 0 0 33 504 20
334 2 2 0 0 325 365 248
335 2 2 0 0 199 202 196
336 2 2 0 0 7 32 6
337 2 2 0 0 434 435 356
338 2 2 0 0 74 75 73
339 2 2 0 0 223 239 234
340 2 2 0 0 74 76 75
341 2 2 0 0 72 74 73
342 2 2 0 0 231 549 201
343 2 2 0 0 202 205 204
344 2 2 0 0 226 227 214
345 2 2 0 0 272 275 271
346 2 2 0 0 276 318 275
347 2 2 0 0 213 214 209
348 2 2 0 0 76 77 75
349 2 2 0 0 210 231 201
350 2 2 0 0 16 30 15
351 2 2 0 0 205 209 208
352 2 2 0 0 202 204 196
353 2 2 0 0 318 406 340
354 2 2 0 0 195 196 193
355 2 2 0 0 322 420 415
356 2 2 0 0 239 240 234
357 2 2 0 0 163 588 168
358 2 2 0 0 12 31 11
359 2 2 0 0 56 72 71
360 2 2 0 0 425 426 327
361 2 2 0 0 19 33 20
362 2 2 0 0 168 224 215
363 2 2 0 0 209 568 216
364 2 2 0 0 318 433 406
365 2 2 0 0 269 271 270
366 2 2 0 0 268 269 245
367 2 2 0 0 21 639 20
368 2 2 0 0 84 85 82
369 2 2 0 0 181 207 183
370 2 2 0 0 269 272 271
371 2 2 0 0 272 276 275
372 2 2 0 0 242 243 240
373 2 2 0 0 102 167 166
374 2 2 0 0 223 234 233
375 2 2 0 0 283 343 227
376 2 2 0 0 205 208 204
377 2 2 0 0 213 226 214
378 2 2 0 0 271 572 347
379 2 2 0 0 243 268 245
380 2 2 0 0 335 398 307
381 2 2 0 0 303 555 554
382 2 2 0 0 226 283 227
383 2 2 0 0 347 485 370
384 2 2 0 0 195 199 196
385 2 2 0 0 205 213 209
386 2 2 0 0 246 322 252
387 2 2 0 0 76 78 77
388 2 2 0 0 133 163 135
389 2 2 0 0 163 168 164
390 2 2 0 0 322 415 341
391 2 2 0 0 227 361 214
392 2 2 0 0 191 198 189
393 2 2 0 0 78 84 82
394 2 2 0 0 209 216 208
395 2 2 0 0 78 82 77
396 2 2 0 0 216 303 266
397 2 2 0 0 417 418 362
398 2 2 0 0 314 607 101
399 2 2 0 0 339 362 280
400 2 2 0 0 243 245 244
401 2 2 0 0 187 291 185
402 2 2 0 0 429 430 359
403 2 2 0 0 143 145 144
404 2 2 0 0 202 553 205
405 2 2 0 0 339 417 362
406 2 2 0 0 131 580 133
407 2 2 0 0 239 242 240
408 2 2 0 0 57 59 58
409 2 2 0 0 224 246 215
410 2 2 0 0 84 86 85
411 2 2 0 0 303 554 266
412 2 2 0 0 72 73 71
413 2 2 0 0 437 438 414
414 2 2 0 0 318 340 275
415 2 2 0 0 269 270 245
416 2 2 0 0 86 87 85
417 2 2 0 0 192 193 191
418 2 2 0 0 123 235 129
419 2 2 0 0 263 374 262
420 2 2 0 0 425 427 426
421 2 2 0 0 149 150 147
422 2 2 0 0 210 232 231
423 2 2 0 0 74 373 76
424 2 2 0 0 168 215 169
425 2 2 0 0 259 262 249
426 2 2 0 0 145 146 144
427 2 2 0 0 367 524 289
428 2 2 0 0 271 347 270
429 2 2 0 0 406 407 340
430 2 2 0 0 334 459 424
431 2 2 0 0 429 474 430
432 2 2 0 0 250 328 325
433 2 2 0 0 431 432 367
434 2 2 0 0 104 278 105
435 2 2 0 0 145 147 146
436 2 2 0 0 151 152 150
437 2 2 0 0 235 583 129
438 2 2 0 0 237 249 228
439 2 2 0 0 149 151 150
440 2 2 0 0 159 161 158
441 2 2 0 0 153 155 152
442 2 2 0 0 156 158 155
443 2 2 0 0 354 367 289
444 2 2 0 0 259 263 262
445 2 2 0 0 190 191 189
446 2 2 0 0 177 221 174
447 2 2 0 0 162 228 161
448 2 2 0 0 124 516 386
449 2 2 0 0 418 653 578
450 2 2 0 0 371 584 295
451 2 2 0 0 151 153 152
452 2 2 0 0 153 156 155
453 2 2 0 0 159 162 161
454 2 2 0 0 374 593 262
455 2 2 0 0 156 159 158
456 2 2 0 0 237 259 249
457 2 2 0 0 146 284 160
458 2 2 0 0 266 309 267
459 2 2 0 0 264 265 257
460 2 2 0 0 86 88 87
461 2 2 0 0 265 312 257
462 2 2 0 0 162 237 228
463 2 2 0 0 21 44 22
464 2 2 0 0 324 392 390
465 2 2 0 0 371 585 584
466 2 2 0 0 262 366 249
467 2 2 0 0 192 195 193
468 2 2 0 0 263 375 374
469 2 2 0 0 216 266 217
470 2 2 0 0 326 327 276
471 2 2 0 0 260 646 166
472 2 2 0 0 220 223 222
473 2 2 0 0 322 341 252
474 2 2 0 0 256 257 255
475 2 2 0 0 78 253 84
476 2 2 0 0 358 359 242
477 2 2 0 0 188 189 187
478 2 2 0 0 281 339 280
479 2 2 0 0 146 160 144
480 2 2 0 0 123 129 128
481 2 2 0 0 255 324 254
482 2 2 0 0 228 229 161
483 2 2 0 0 354 431 367
484 2 2 0 0 163 164 135
485 2 2 0 0 155 157 152
486 2 2 0 0 243 244 240
487 2 2 0 0 256 264 257
488 2 2 0 0 284 316 160
489 2 2 0 0 380 425 327
490 2 2 0 0 148 149 147
491 2 2 0 0 335 399 398
492 2 2 0 0 418 578 362
493 2 2 0 0 334 424 396
494 2 2 0 0 167 260 166
495 2 2 0 0 325 368 365
496 2 2 0 0 428 429 359
497 2 2 0 0 165 255 254
498 2 2 0 0 297 342 264
499 2 2 0 0 298 371 295
500 2 2 0 0 218 323 220
501 2 2 0 0 310 337 302
502 2 2 0 0 165 256 255
503 2 2 0 0 186 187 185
504 2 2 0 0 56 71 70
505 2 2 0 0 165 254 125
506 2 2 0 0 200 201 199
507 2 2 0 0 148 206 149
508 2 2 0 0 324 390 364
509 2 2 0 0 190 192 191
510 2 2 0 0 368 369 365
511 2 2 0 0 353 404 351
512 2 2 0 0 104 331 278
513 2 2 0 0 256 297 264
514 2 2 0 0 316 421 416
515 2 2 0 0 239 358 242
516 2 2 0 0 169 586 171
517 2 2 0 0 286 287 206
518 2 2 0 0 324 364 254
519 2 2 0 0 241 576 162
520 2 2 0 0 168 169 164
521 2 2 0 0 121 123 122
522 2 2 0 0 266 267 217
523 2 2 0 0 129 131 130
524 2 2 0 0 216 217 208
525 2 2 0 0 285 382 313
526 2 2 0 0 172 321 170
527 2 2 0 0 390 391 364
528 2 2 0 0 296 563 300
529 2 2 0 0 246 252 251
530 2 2 0 0 285 286 206
531 2 2 0 0 288 289 287
532 2 2 0 0 298 372 371
533 2 2 0 0 23 35 22
534 2 2 0 0 300 344 304
535 2 2 0 0 344 462 345
536 2 2 0 0 123 128 122
537 2 2 0 0 297 389 342
538 2 2 0 0 237 277 259
539 2 2 0 0 148 285 206
540 2 2 0 0 86 89 88
541 2 2 0 0 306 307 283
542 2 2 0 0 234 279 233
543 2 2 0 0 316 416 160
544 2 2 0 0 188 190 189
545 2 2 0 0 85 98 82
546 2 2 0 0 358 428 359
547 2 2 0 0 437 455 438
548 2 2 0 0 203 210 201
549 2 2 0 0 382 383 313
550 2 2 0 0 153 176 156
551 2 2 0 0 290 354 289
552 2 2 0 0 159 241 162
553 2 2 0 0 386 387 126
554 2 2 0 0 273 363 338
555 2 2 0 0 272 326 276
556 2 2 0 0 171 293 173
557 2 2 0 0 145 148 147
558 2 2 0 0 274 295 261
559 2 2 0 0 285 313 286
560 2 2 0 0 383 384 313
561 2 2 0 0 301 302 299
562 2 2 0 0 131 133 132
563 2 2 0 0 296 298 295
564 2 2 0 0 305 310 302
565 2 2 0 0 349 412 328
566 2 2 0 0 344 345 304
567 2 2 0 0 77 119 75
568 2 2 0 0 315 378 310
569 2 2 0 0 363 401 400
570 2 2 0 0 332 333 278
571 2 2 0 0 223 233 222
572 2 2 0 0 331 334 332
573 2 2 0 0 186 188 187
574 2 2 0 0 178 212 177
575 2 2 0 0 305 360 315
576 2 2 0 0 334 396 395
577 2 2 0 0 246 251 215
578 2 2 0 0 167 261 260
579 2 2 0 0 175 179 178
580 2 2 0 0 345 346 304
581 2 2 0 0 124 386 126
582 2 2 0 0 286 288 287
583 2 2 0 0 331 332 278
584 2 2 0 0 179 181 180
585 2 2 0 0 301 305 302
586 2 2 0 0 300 304 301
587 2 2 0 0 296 300 299
588 2 2 0 0 305 315 310
589 2 2 0 0 296 299 298
590 2 2 0 0 320 453 290
591 2 2 0 0 274 296 295
592 2 2 0 0 313 531 286
593 2 2 0 0 120 281 280
594 2 2 0 0 360 409 315
595 2 2 0 0 363 400 338
596 2 2 0 0 129 130 128
597 2 2 0 0 300 301 299
598 2 2 0 0 1 508 23
599 2 2 0 0 167 273 261
600 2 2 0 0 133 135 134
601 2 2 0 0 173 174 172
602 2 2 0 0 311 377 376
603 2 2 0 0 273 274 261
604 2 2 0 0 273 338 274
605 2 2 0 0 334 395 332
606 2 2 0 0 183 197 184
607 2 2 0 0 319 393 320
608 2 2 0 0 449 450 446
609 2 2 0 0 288 290 289
610 2 2 0 0 226 306 283
611 2 2 0 0 326 380 327
612 2 2 0 0 175 177 174
613 2 2 0 0 181 183 182
614 2 2 0 0 219 230 211
615 2 2 0 0 308 335 307
616 2 2 0 0 267 311 292
617 2 2 0 0 169 170 164
618 2 2 0 0 288 319 290
619 2 2 0 0 126 165 125
620 2 2 0 0 120 280 121
621 2 2 0 0 130 357 128
622 2 2 0 0 195 200 199
623 2 2 0 0 169 171 170
624 2 2 0 0 171 172 170
625 2 2 0 0 184 186 185
626 2 2 0 0 73 282 71
627 2 2 0 0 252 294 251
628 2 2 0 0 319 320 290
629 2 2 0 0 131 132 130
630 2 2 0 0 393 394 320
631 2 2 0 0 171 173 172
632 2 2 0 0 4 34 3
633 2 2 0 0 218 220 219
634 2 2 0 0 267 292 217
635 2 2 0 0 184 185 182
636 2 2 0 0 188 194 190
637 2 2 0 0 56 70 54
638 2 2 0 0 377 405 376
639 2 2 0 0 449 470 450
640 2 2 0 0 179 180 178
641 2 2 0 0 173 175 174
642 2 2 0 0 175 178 177
643 2 2 0 0 250 329 328
644 2 2 0 0 311 376 292
645 2 2 0 0 329 571 350
646 2 2 0 0 347 370 348
647 2 2 0 0 220 222 219
648 2 2 0 0 376 385 292
649 2 2 0 0 133 134 132
650 2 2 0 0 134 136 132
651 2 2 0 0 306 308 307
652 2 2 0 0 200 203 201
653 2 2 0 0 233 247 222
654 2 2 0 0 98 460 82
655 2 2 0 0 329 349 328
656 2 2 0 0 326 381 380
657 2 2 0 0 347 348 270
658 2 2 0 0 181 182 180
659 2 2 0 0 121 122 115
660 2 2 0 0 350 351 349
661 2 2 0 0 308 336 335
662 2 2 0 0 350 403 352
663 2 2 0 0 470 471 450
664 2 2 0 0 203 211 210
665 2 2 0 0 218 219 211
666 2 2 0 0 183 184 182
667 2 2 0 0 370 463 422
668 2 2 0 0 306 402 308
669 2 2 0 0 203 218 211
670 2 2 0 0 71 490 70
671 2 2 0 0 329 350 349
672 2 2 0 0 436 437 414
673 2 2 0 0 124 126 125
674 2 2 0 0 413 414 353
675 2 2 0 0 422 423 348
676 2 2 0 0 352 353 351
677 2 2 0 0 370 422 348
678 2 2 0 0 350 352 351
679 2 2 0 0 413 436 414
680 2 2 0 0 352 413 353
681 2 2 0 0 120 121 115
682 2 2 0 0 110 480 117
683 2 2 0 0 124 125 116
684 2 2 0 0 126 521 165
685 2 2 0 0 113 120 115
686 2 2 0 0 127 440 410
687 2 2 0 0 114 124 116
688 2 2 0 0 543 544 530
689 2 2 0 0 488 489 487
690 2 2 0 0 585 637 366
691 2 2 0 0 543 570 544
692 2 2 0 0 113 115 114
693 2 2 0 0 127 410 106
694 2 2 0 0 114 116 112
695 2 2 0 0 195 515 200
696 2 2 0 0 491 493 492
697 2 2 0 0 12 487 13
698 2 2 0 0 546 547 321
699 2 2 0 0 330 457 411
700 2 2 0 0 157 543 530
701 2 2 0 0 519 520 291
702 2 2 0 0 28 488 487
703 2 2 0 0 111 112 110
704 2 2 0 0 312 534 257
705 2 2 0 0 476 732 412
706 2 2 0 0 27 458 442
707 2 2 0 0 385 636 620
708 2 2 0 0 176 559 156
709 2 2 0 0 593 634 366
710 2 2 0 0 589 590 224
711 2 2 0 0 113 114 112
712 2 2 0 0 109 127 106
713 2 2 0 0 270 564 245
714 2 2 0 0 443 506 445
715 2 2 0 0 491 492 396
716 2 2 0 0 388 624 502
717 2 2 0 0 445 506 448
718 2 2 0 0 30 500 15
719 2 2 0 0 20 504 21
720 2 2 0 0 64 475 60
721 2 2 0 0 287 542 206
722 2 2 0 0 23 508 35
723 2 2 0 0 302 558 299
724 2 2 0 0 70 551 54
725 2 2 0 0 62 598 64
726 2 2 0 0 424 491 396
727 2 2 0 0 407 456 340
728 2 2 0 0 545 546 321
729 2 2 0 0 330 411 397
730 2 2 0 0 72 536 74
731 2 2 0 0 238 574 136
732 2 2 0 0 659 660 420
733 2 2 0 0 395 538 332
734 2 2 0 0 143 527 145
735 2 2 0 0 412 675 476
736 2 2 0 0 239 513 358
737 2 2 0 0 157 530 529
738 2 2 0 0 518 519 291
739 2 2 0 0 449 482 470
740 2 2 0 0 207 713 479
741 2 2 0 0 119 523 75
742 2 2 0 0 109 670 127
743 2 2 0 0 10 501 40
744 2 2 0 0 508 509 35
745 2 2 0 0 96 606 94
746 2 2 0 0 331 459 334
747 2 2 0 0 286 531 288
748 2 2 0 0 290 453 354
749 2 2 0 0 282 490 71
750 2 2 0 0 384 531 313
751 2 2 0 0 289 524 287
752 2 2 0 0 349 550 412
753 2 2 0 0 165 521 256
754 2 2 0 0 82 460 77
755 2 2 0 0 155 543 157
756 2 2 0 0 201 549 199
757 2 2 0 0 273 591 363
758 2 2 0 0 387 521 126
759 2 2 0 0 114 516 124
760 2 2 0 0 53 561 57
761 2 2 0 0 266 554 309
762 2 2 0 0 257 534 255
763 2 2 0 0 205 553 213
764 2 2 0 0 142 522 225
765 2 2 0 0 435 481 356
766 2 2 0 0 216 568 303
767 2 2 0 0 300 563 344
768 2 2 0 0 214 568 209
769 2 2 0 0 112 480 110
770 2 2 0 0 350 571 403
771 2 2 0 0 347 572 485
772 2 2 0 0 275 572 271
773 2 2 0 0 274 563 296
774 2 2 0 0 171 586 293
775 2 2 0 0 162 576 237
776 2 2 0 0 133 580 163
777 2 2 0 0 11 501 10
778 2 2 0 0 295 584 261
779 2 2 0 0 129 583 131
780 2 2 0 0 215 586 169
781 2 2 0 0 250 505 329
782 2 2 0 0 168 588 224
783 2 2 0 0 321 548 170
784 2 2 0 0 262 593 366
785 2 2 0 0 166 646 314
786 2 2 0 0 520 535 291
787 2 2 0 0 373 663 493
788 2 2 0 0 291 535 185
789 2 2 0 0 101 607 97
790 2 2 0 0 130 574 357
791 2 2 0 0 158 570 543
792 2 2 0 0 31 501 11
793 2 2 0 0 444 552 503
794 2 2 0 0 156 559 159
795 2 2 0 0 236 594 505
796 2 2 0 0 206 542 149
797 2 2 0 0 54 551 52
798 2 2 0 0 74 536 373
799 2 2 0 0 337 558 302
800 2 2 0 0 150 532 147
801 2 2 0 0 379 728 457
802 2 2 0 0 299 558 298
803 2 2 0 0 332 538 333
804 2 2 0 0 145 527 148
805 2 2 0 0 514 515 192
806 2 2 0 0 15 500 14
807 2 2 0 0 75 523 73
808 2 2 0 0 467 501 31
809 2 2 0 0 254 592 125
810 2 2 0 0 172 545 321
811 2 2 0 0 144 522 142
812 2 2 0 0 528 532 150
813 2 2 0 0 187 518 291
814 2 2 0 0 553 599 213
815 2 2 0 0 383 603 384
816 2 2 0 0 282 698 490
817 2 2 0 0 244 517 240
818 2 2 0 0 353 525 404
819 2 2 0 0 395 540 538
820 2 2 0 0 94 606 118
821 2 2 0 0 117 539 107
822 2 2 0 0 185 535 182
823 2 2 0 0 388 502 50
824 2 2 0 0 167 591 273
825 2 2 0 0 147 532 146
826 2 2 0 0 92 608 91
827 2 2 0 0 472 676 368
828 2 2 0 0 364 592 254
829 2 2 0 0 21 504 44
830 2 2 0 0 365 597 248
831 2 2 0 0 125 592 116
832 2 2 0 0 588 589 224
833 2 2 0 0 111 113 112
834 2 2 0 0 63 469 408
835 2 2 0 0 105 109 106
836 2 2 0 0 242 526 243
837 2 2 0 0 439 712 29
838 2 2 0 0 240 517 234
839 2 2 0 0 346 533 304
840 2 2 0 0 14 500 38
841 2 2 0 0 494 495 484
842 2 2 0 0 127 630 440
843 2 2 0 0 208 537 204
844 2 2 0 0 175 562 179
845 2 2 0 0 303 626 555
846 2 2 0 0 359 526 242
847 2 2 0 0 243 526 268
848 2 2 0 0 217 537 208
849 2 2 0 0 58 498 55
850 2 2 0 0 503 552 30
851 2 2 0 0 13 499 12
852 2 2 0 0 268 621 569
853 2 2 0 0 489 497 487
854 2 2 0 0 475 498 58
855 2 2 0 0 430 526 359
856 2 2 0 0 248 597 99
857 2 2 0 0 292 537 217
858 2 2 0 0 26 645 45
859 2 2 0 0 234 517 279
860 2 2 0 0 14 497 39
861 2 2 0 0 385 537 292
862 2 2 0 0 305 533 360
863 2 2 0 0 304 533 301
864 2 2 0 0 146 532 284
865 2 2 0 0 483 494 484
866 2 2 0 0 173 562 175
867 2 2 0 0 116 480 112
868 2 2 0 0 224 590 246
869 2 2 0 0 189 518 187
870 2 2 0 0 498 536 72
871 2 2 0 0 414 525 353
872 2 2 0 0 160 522 144
873 2 2 0 0 547 609 548
874 2 2 0 0 182 535 180
875 2 2 0 0 297 601 389
876 2 2 0 0 44 594 81
877 2 2 0 0 301 533 305
878 2 2 0 0 105 106 96
879 2 2 0 0 515 596 200
880 2 2 0 0 293 562 173
881 2 2 0 0 73 523 282
882 2 2 0 0 148 527 285
883 2 2 0 0 174 545 172
884 2 2 0 0 218 596 323
885 2 2 0 0 200 596 203
886 2 2 0 0 149 542 151
887 2 2 0 0 446 552 444
888 2 2 0 0 49 461 330
889 2 2 0 0 330 397 48
890 2 2 0 0 453 738 377
891 2 2 0 0 255 534 324
892 2 2 0 0 52 551 388
893 2 2 0 0 634 646 260
894 2 2 0 0 513 615 358
895 2 2 0 0 438 525 414
896 2 2 0 0 516 618 386
897 2 2 0 0 198 518 189
898 2 2 0 0 227 566 361
899 2 2 0 0 559 560 241
900 2 2 0 0 90 587 93
901 2 2 0 0 416 522 160
902 2 2 0 0 102 591 167
903 2 2 0 0 134 609 137
904 2 2 0 0 298 558 372
905 2 2 0 0 132 574 130
906 2 2 0 0 106 606 96
907 2 2 0 0 159 559 241
908 2 2 0 0 32 611 6
909 2 2 0 0 158 543 155
910 2 2 0 0 223 513 239
911 2 2 0 0 288 531 319
912 2 2 0 0 323 513 220
913 2 2 0 0 115 516 114
914 2 2 0 0 521 601 297
915 2 2 0 0 610 698 455
916 2 2 0 0 354 600 431
917 2 2 0 0 351 550 349
918 2 2 0 0 256 521 297
919 2 2 0 0 140 604 138
920 2 2 0 0 77 460 119
921 2 2 0 0 17 503 16
922 2 2 0 0 9 502 10
923 2 2 0 0 104 587 331
924 2 2 0 0 152 528 150
925 2 2 0 0 315 541 378
926 2 2 0 0 170 548 164
927 2 2 0 0 590 659 420
928 2 2 0 0 11 624 28
929 2 2 0 0 199 549 202
930 2 2 0 0 502 624 10
931 2 2 0 0 453 600 354
932 2 2 0 0 42 43 41
933 2 2 0 0 38 499 13
934 2 2 0 0 285 527 382
935 2 2 0 0 190 514 192
936 2 2 0 0 157 529 528
937 2 2 0 0 231 643 549
938 2 2 0 0 331 587 459
939 2 2 0 0 451 701 232
940 2 2 0 0 99 597 100
941 2 2 0 0 361 568 214
942 2 2 0 0 372 740 544
943 2 2 0 0 221 545 174
944 2 2 0 0 138 604 238
945 2 2 0 0 340 572 275
946 2 2 0 0 338 563 274
947 2 2 0 0 524 542 287
948 2 2 0 0 265 595 312
949 2 2 0 0 111 511 113
950 2 2 0 0 580 658 588
951 2 2 0 0 580 588 163
952 2 2 0 0 237 576 277
953 2 2 0 0 444 503 36
954 2 2 0 0 131 583 580
955 2 2 0 0 505 571 329
956 2 2 0 0 203 596 218
957 2 2 0 0 584 634 260
958 2 2 0 0 261 584 260
959 2 2 0 0 369 647 365
960 2 2 0 0 251 586 215
961 2 2 0 0 348 564 270
962 2 2 0 0 450 552 446
963 2 2 0 0 390 496 391
964 2 2 0 0 66 598 62
965 2 2 0 0 465 623 423
966 2 2 0 0 258 591 102
967 2 2 0 0 343 566 227
968 2 2 0 0 564 623 244
969 2 2 0 0 154 617 141
970 2 2 0 0 324 534 392
971 2 2 0 0 50 502 37
972 2 2 0 0 524 556 542
973 2 2 0 0 544 700 372
974 2 2 0 0 122 516 115
975 2 2 0 0 177 557 221
976 2 2 0 0 489 698 610
977 2 2 0 0 93 587 104
978 2 2 0 0 136 574 132
979 2 2 0 0 593 646 634
980 2 2 0 0 116 592 480
981 2 2 0 0 143 617 527
982 2 2 0 0 225 604 140
983 2 2 0 0 137 631 139
984 2 2 0 0 549 553 202
985 2 2 0 0 164 548 135
986 2 2 0 0 404 550 351
987 2 2 0 0 34 721 473
988 2 2 0 0 220 513 223
989 2 2 0 0 317 640 511
990 2 2 0 0 100 597 258
991 2 2 0 0 588 658 589
992 2 2 0 0 323 615 513
993 2 2 0 0 568 626 303
994 2 2 0 0 377 605 405
995 2 2 0 0 178 613 212
996 2 2 0 0 493 628 373
997 2 2 0 0 157 528 152
998 2 2 0 0 591 627 363
999 2 2 0 0 409 541 315
1000 2 2 0 0 183 614 197
1001 2 2 0 0 103 598 66
1002 2 2 0 0 188 619 194
1003 2 2 0 0 213 599 226
1004 2 2 0 0 306 599 402
1005 2 2 0 0 97 607 25
1006 2 2 0 0 194 514 190
1007 2 2 0 0 373 628 76
1008 2 2 0 0 78 628 253
1009 2 2 0 0 42 47 43
1010 2 2 0 0 39 612 15
1011 2 2 0 0 16 612 29
1012 2 2 0 0 437 610 455
1013 2 2 0 0 487 497 13
1014 2 2 0 0 440 630 441
1015 2 2 0 0 479 713 562
1016 2 2 0 0 196 620 193
1017 2 2 0 0 456 572 340
1018 2 2 0 0 120 511 281
1019 2 2 0 0 577 578 235
1020 2 2 0 0 335 582 399
1021 2 2 0 0 314 741 683
1022 2 2 0 0 520 613 535
1023 2 2 0 0 585 634 584
1024 2 2 0 0 423 564 348
1025 2 2 0 0 457 561 411
1026 2 2 0 0 6 611 5
1027 2 2 0 0 385 620 537
1028 2 2 0 0 228 637 229
1029 2 2 0 0 366 637 249
1030 2 2 0 0 161 570 158
1031 2 2 0 0 434 640 435
1032 2 2 0 0 193 636 191
1033 2 2 0 0 410 606 106
1034 2 2 0 0 37 502 9
1035 2 2 0 0 36 503 17
1036 2 2 0 0 141 617 143
1037 2 2 0 0 363 627 401
1038 2 2 0 0 322 590 420
1039 2 2 0 0 357 618 128
1040 2 2 0 0 430 621 526
1041 2 2 0 0 540 687 103
1042 2 2 0 0 280 577 121
1043 2 2 0 0 276 575 318
1044 2 2 0 0 362 578 577
1045 2 2 0 0 109 649 496
1046 2 2 0 0 246 590 322
1047 2 2 0 0 326 569 381
1048 2 2 0 0 569 621 381
1049 2 2 0 0 269 569 272
1050 2 2 0 0 139 631 154
1051 2 2 0 0 649 664 496
1052 2 2 0 0 537 620 204
1053 2 2 0 0 355 461 49
1054 2 2 0 0 663 685 493
1055 2 2 0 0 479 745 207
1056 2 2 0 0 343 662 565
1057 2 2 0 0 212 557 177
1058 2 2 0 0 45 645 46
1059 2 2 0 0 496 670 109
1060 2 2 0 0 366 634 585
1061 2 2 0 0 384 616 531
1062 2 2 0 0 535 613 180
1063 2 2 0 0 391 632 364
1064 2 2 0 0 308 581 336
1065 2 2 0 0 344 625 462
1066 2 2 0 0 563 625 344
1067 2 2 0 0 13 497 14
1068 2 2 0 0 480 632 117
1069 2 2 0 0 371 668 585
1070 2 2 0 0 333 649 278
1071 2 2 0 0 387 601 521
1072 2 2 0 0 47 49 48
1073 2 2 0 0 358 615 428
1074 2 2 0 0 113 511 120
1075 2 2 0 0 527 617 382
1076 2 2 0 0 105 649 109
1077 2 2 0 0 398 573 307
1078 2 2 0 0 368 676 369
1079 2 2 0 0 180 613 178
1080 2 2 0 0 153 556 176
1081 2 2 0 0 432 657 367
1082 2 2 0 0 458 718 582
1083 2 2 0 0 207 614 183
1084 2 2 0 0 407 611 456
1085 2 2 0 0 244 623 517
1086 2 2 0 0 20 639 27
1087 2 2 0 0 476 675 87
1088 2 2 0 0 319 616 393
1089 2 2 0 0 474 707 197
1090 2 2 0 0 226 599 306
1091 2 2 0 0 47 48 43
1092 2 2 0 0 186 619 188
1093 2 2 0 0 412 732 328
1094 2 2 0 0 316 671 541
1095 2 2 0 0 293 734 478
1096 2 2 0 0 492 685 598
1097 2 2 0 0 528 629 532
1098 2 2 0 0 514 635 515
1099 2 2 0 0 531 616 319
1100 2 2 0 0 8 656 7
1101 2 2 0 0 387 602 601
1102 2 2 0 0 76 628 78
1103 2 2 0 0 122 618 516
1104 2 2 0 0 651 717 394
1105 2 2 0 0 423 623 564
1106 2 2 0 0 546 669 547
1107 2 2 0 0 4 679 34
1108 2 2 0 0 542 556 151
1109 2 2 0 0 548 609 135
1110 2 2 0 0 204 620 196
1111 2 2 0 0 529 629 528
1112 2 2 0 0 482 719 230
1113 2 2 0 0 258 627 591
1114 2 2 0 0 336 582 335
1115 2 2 0 0 197 686 667
1116 2 2 0 0 583 658 580
1117 2 2 0 0 85 675 98
1118 2 2 0 0 59 728 379
1119 2 2 0 0 400 625 338
1120 2 2 0 0 394 717 605
1121 2 2 0 0 471 650 450
1122 2 2 0 0 596 635 323
1123 2 2 0 0 249 637 228
1124 2 2 0 0 515 635 596
1125 2 2 0 0 338 625 563
1126 2 2 0 0 28 633 488
1127 2 2 0 0 566 622 361
1128 2 2 0 0 229 570 161
1129 2 2 0 0 468 654 465
1130 2 2 0 0 118 710 462
1131 2 2 0 0 15 612 16
1132 2 2 0 0 589 659 590
1133 2 2 0 0 526 621 268
1134 2 2 0 0 365 647 597
1135 2 2 0 0 579 583 235
1136 2 2 0 0 22 507 21
1137 2 2 0 0 342 682 264
1138 2 2 0 0 441 648 346
1139 2 2 0 0 191 636 198
1140 2 2 0 0 578 653 579
1141 2 2 0 0 135 609 134
1142 2 2 0 0 128 618 122
1143 2 2 0 0 378 681 310
1144 2 2 0 0 230 690 211
1145 2 2 0 0 210 690 232
1146 2 2 0 0 549 643 553
1147 2 2 0 0 233 661 247
1148 2 2 0 0 10 624 11
1149 2 2 0 0 640 709 435
1150 2 2 0 0 449 719 482
1151 2 2 0 0 452 726 33
1152 2 2 0 0 362 577 280
1153 2 2 0 0 318 575 433
1154 2 2 0 0 492 687 396
1155 2 2 0 0 586 734 293
1156 2 2 0 0 357 655 618
1157 2 2 0 0 277 567 259
1158 2 2 0 0 522 641 225
1159 2 2 0 0 511 640 281
1160 2 2 0 0 247 661 483
1161 2 2 0 0 610 693 39
1162 2 2 0 0 272 569 326
1163 2 2 0 0 490 695 70
1164 2 2 0 0 553 643 599
1165 2 2 0 0 532 629 284
1166 2 2 0 0 29 712 17
1167 2 2 0 0 632 665 117
1168 2 2 0 0 618 655 386
1169 2 2 0 0 241 699 576
1170 2 2 0 0 457 728 561
1171 2 2 0 0 485 572 456
1172 2 2 0 0 430 667 621
1173 2 2 0 0 582 672 458
1174 2 2 0 0 395 687 540
1175 2 2 0 0 504 594 44
1176 2 2 0 0 181 713 207
1177 2 2 0 0 197 707 184
1178 2 2 0 0 524 657 556
1179 2 2 0 0 475 536 498
1180 2 2 0 0 394 738 320
1181 2 2 0 0 51 714 561
1182 2 2 0 0 151 556 153
1183 2 2 0 0 437 693 610
1184 2 2 0 0 361 626 568
1185 2 2 0 0 611 679 5
1186 2 2 0 0 231 680 643
1187 2 2 0 0 462 706 118
1188 2 2 0 0 390 670 496
1189 2 2 0 0 602 642 601
1190 2 2 0 0 49 330 48
1191 2 2 0 0 391 665 632
1192 2 2 0 0 508 737 375
1193 2 2 0 0 450 650 552
1194 2 2 0 0 368 732 476
1195 2 2 0 0 578 579 235
1196 2 2 0 0 402 581 308
1197 2 2 0 0 43 486 41
1198 2 2 0 0 562 713 179
1199 2 2 0 0 592 632 480
1200 2 2 0 0 416 641 522
1201 2 2 0 0 372 668 371
1202 2 2 0 0 452 712 439
1203 2 2 0 0 282 720 455
1204 2 2 0 0 556 657 176
1205 2 2 0 0 364 632 592
1206 2 2 0 0 403 726 452
1207 2 2 0 0 465 654 623
1208 2 2 0 0 278 649 105
1209 2 2 0 0 154 652 617
1210 2 2 0 0 383 688 603
1211 2 2 0 0 451 719 447
1212 2 2 0 0 317 709 640
1213 2 2 0 0 604 711 642
1214 2 2 0 0 382 652 383
1215 2 2 0 0 601 642 389
1216 2 2 0 0 284 671 316
1217 2 2 0 0 599 643 402
1218 2 2 0 0 388 633 624
1219 2 2 0 0 267 678 311
1220 2 2 0 0 337 681 530
1221 2 2 0 0 279 661 233
1222 2 2 0 0 605 738 394
1223 2 2 0 0 33 677 504
1224 2 2 0 0 386 655 387
1225 2 2 0 0 547 669 631
1226 2 2 0 0 562 731 479
1227 2 2 0 0 360 648 595
1228 2 2 0 0 432 692 657
1229 2 2 0 0 367 657 524
1230 2 2 0 0 633 695 488
1231 2 2 0 0 415 473 341
1232 2 2 0 0 644 672 336
1233 2 2 0 0 551 633 388
1234 2 2 0 0 533 648 360
1235 2 2 0 0 407 679 611
1236 2 2 0 0 323 635 615
1237 2 2 0 0 530 681 529
1238 2 2 0 0 393 651 394
1239 2 2 0 0 387 655 602
1240 2 2 0 0 238 703 574
1241 2 2 0 0 594 677 505
1242 2 2 0 0 559 692 560
1243 2 2 0 0 621 667 381
1244 2 2 0 0 405 674 376
1245 2 2 0 0 325 732 368
1246 2 2 0 0 623 654 517
1247 2 2 0 0 581 644 336
1248 2 2 0 0 346 648 533
1249 2 2 0 0 517 654 279
1250 2 2 0 0 477 705 481
1251 2 2 0 0 481 705 355
1252 2 2 0 0 561 728 57
1253 2 2 0 0 379 705 477
1254 2 2 0 0 617 652 382
1255 2 2 0 0 30 650 500
1256 2 2 0 0 376 674 385
1257 2 2 0 0 518 715 519
1258 2 2 0 0 474 667 430
1259 2 2 0 0 478 734 294
1260 2 2 0 0 624 633 28
1261 2 2 0 0 186 707 619
1262 2 2 0 0 64 663 475
1263 2 2 0 0 597 647 258
1264 2 2 0 0 377 738 605
1265 2 2 0 0 31 735 467
1266 2 2 0 0 27 718 458
1267 2 2 0 0 419 673 68
1268 2 2 0 0 616 722 393
1269 2 2 0 0 24 723 419
1270 2 2 0 0 397 638 48
1271 2 2 0 0 404 730 460
1272 2 2 0 0 91 676 472
1273 2 2 0 0 622 626 361
1274 2 2 0 0 7 656 32
1275 2 2 0 0 576 697 277
1276 2 2 0 0 471 691 650
1277 2 2 0 0 536 663 373
1278 2 2 0 0 484 691 471
1279 2 2 0 0 552 650 30
1280 2 2 0 0 311 678 600
1281 2 2 0 0 486 729 5
1282 2 2 0 0 418 673 666
1283 2 2 0 0 232 680 231
1284 2 2 0 0 5 679 4
1285 2 2 0 0 117 665 539
1286 2 2 0 0 384 702 616
1287 2 2 0 0 557 702 221
1288 2 2 0 0 87 675 85
1289 2 2 0 0 225 711 604
1290 2 2 0 0 505 677 571
1291 2 2 0 0 483 661 494
1292 2 2 0 0 263 565 375
1293 2 2 0 0 504 677 594
1294 2 2 0 0 582 718 399
1295 2 2 0 0 645 714 46
1296 2 2 0 0 534 708 392
1297 2 2 0 0 643 680 402
1298 2 2 0 0 18 712 452
1299 2 2 0 0 392 670 390
1300 2 2 0 0 221 702 603
1301 2 2 0 0 496 664 391
1302 2 2 0 0 606 710 118
1303 2 2 0 0 655 703 602
1304 2 2 0 0 608 676 91
1305 2 2 0 0 194 684 514
1306 2 2 0 0 541 671 378
1307 2 2 0 0 154 669 652
1308 2 2 0 0 399 718 639
1309 2 2 0 0 405 715 674
1310 2 2 0 0 33 726 677
1311 2 2 0 0 629 671 284
1312 2 2 0 0 468 735 495
1313 2 2 0 0 469 704 408
1314 2 2 0 0 427 745 479
1315 2 2 0 0 294 734 251
1316 2 2 0 0 461 705 379
1317 2 2 0 0 385 674 636
1318 2 2 0 0 657 692 176
1319 2 2 0 0 561 714 411
1320 2 2 0 0 631 669 154
1321 2 2 0 0 264 682 265
1322 2 2 0 0 43 638 486
1323 2 2 0 0 48 638 43
1324 2 2 0 0 194 744 684
1325 2 2 0 0 381 686 380
1326 2 2 0 0 658 716 589
1327 2 2 0 0 263 567 565
1328 2 2 0 0 310 681 337
1329 2 2 0 0 493 685 492
1330 2 2 0 0 64 685 663
1331 2 2 0 0 309 678 267
1332 2 2 0 0 600 678 431
1333 2 2 0 0 538 694 333
1334 2 2 0 0 598 685 64
1335 2 2 0 0 551 695 633
1336 2 2 0 0 560 699 241
1337 2 2 0 0 211 690 210
1338 2 2 0 0 2 723 3
1339 2 2 0 0 630 708 441
1340 2 2 0 0 467 735 468
1341 2 2 0 0 396 687 395
1342 2 2 0 0 35 507 22
1343 2 2 0 0 259 567 263
1344 2 2 0 0 417 673 418
1345 2 2 0 0 614 686 197
1346 2 2 0 0 392 708 630
1347 2 2 0 0 5 729 6
1348 2 2 0 0 279 725 661
1349 2 2 0 0 6 729 26
1350 2 2 0 0 357 703 655
1351 2 2 0 0 514 684 635
1352 2 2 0 0 540 733 538
1353 2 2 0 0 374 741 593
1354 2 2 0 0 176 692 559
1355 2 2 0 0 650 691 500
1356 2 2 0 0 484 736 691
1357 2 2 0 0 83 733 540
1358 2 2 0 0 558 740 372
1359 2 2 0 0 626 697 555
1360 2 2 0 0 436 693 437
1361 2 2 0 0 375 737 374
1362 2 2 0 0 475 663 536
1363 2 2 0 0 636 674 198
1364 2 2 0 0 674 715 198
1365 2 2 0 0 70 695 551
1366 2 2 0 0 406 721 407
1367 2 2 0 0 677 726 571
1368 2 2 0 0 258 647 627
1369 2 2 0 0 448 701 451
1370 2 2 0 0 458 672 506
1371 2 2 0 0 229 700 570
1372 2 2 0 0 684 744 428
1373 2 2 0 0 570 700 544
1374 2 2 0 0 678 742 431
1375 2 2 0 0 646 741 314
1376 2 2 0 0 603 702 384
1377 2 2 0 0 478 731 293
1378 2 2 0 0 309 742 678
1379 2 2 0 0 380 686 614
1380 2 2 0 0 494 725 468
1381 2 2 0 0 500 691 38
1382 2 2 0 0 635 684 615
1383 2 2 0 0 661 725 494
1384 2 2 0 0 679 721 34
1385 2 2 0 0 509 510 35
1386 2 2 0 0 46 714 51
1387 2 2 0 0 615 684 428
1388 2 2 0 0 432 742 689
1389 2 2 0 0 179 713 181
1390 2 2 0 0 26 739 645
1391 2 2 0 0 35 510 507
1392 2 2 0 0 574 703 357
1393 2 2 0 0 184 707 186
1394 2 2 0 0 39 693 612
1395 2 2 0 0 665 694 539
1396 2 2 0 0 312 708 534
1397 2 2 0 0 554 689 309
1398 2 2 0 0 1 737 508
1399 2 2 0 0 519 717 520
1400 2 2 0 0 277 697 622
1401 2 2 0 0 389 711 641
1402 2 2 0 0 495 736 484
1403 2 2 0 0 17 712 18
1404 2 2 0 0 212 722 557
1405 2 2 0 0 455 720 438
1406 2 2 0 0 622 697 626
1407 2 2 0 0 664 694 665
1408 2 2 0 0 447 719 449
1409 2 2 0 0 669 688 652
1410 2 2 0 0 612 693 436
1411 2 2 0 0 619 744 194
1412 2 2 0 0 57 728 59
1413 2 2 0 0 579 658 583
1414 2 2 0 0 438 727 525
1415 2 2 0 0 539 733 83
1416 2 2 0 0 479 731 478
1417 2 2 0 0 691 736 38
1418 2 2 0 0 401 724 400
1419 2 2 0 0 420 660 2
1420 2 2 0 0 328 732 325
1421 2 2 0 0 320 738 453
1422 2 2 0 0 428 744 429
1423 2 2 0 0 431 742 432
1424 2 2 0 0 425 745 427
1425 2 2 0 0 408 743 434
1426 2 2 0 0 571 726 403
1427 2 2 0 0 119 727 523
1428 2 2 0 0 625 706 462
1429 2 2 0 0 525 730 404
1430 2 2 0 0 499 736 495
1431 2 2 0 0 468 725 654
1432 2 2 0 0 336 672 582
1433 2 2 0 0 198 715 518
1434 2 2 0 0 400 724 706
1435 2 2 0 0 402 680 581
1436 2 2 0 0 589 716 659
1437 2 2 0 0 727 730 525
1438 2 2 0 0 664 665 391
1439 2 2 0 0 337 740 558
1440 2 2 0 0 293 731 562
1441 2 2 0 0 523 720 282
1442 2 2 0 0 460 730 119
1443 2 2 0 0 641 711 225
1444 2 2 0 0 429 744 619
1445 2 2 0 0 119 730 727
1446 2 2 0 0 651 722 212
1447 2 2 0 0 38 736 499
1448 2 2 0 0 667 686 381
1449 2 2 0 0 652 688 383
1450 2 2 0 0 410 710 606
1451 2 2 0 0 644 701 448
1452 2 2 0 0 666 673 419
1453 2 2 0 0 704 743 408
1454 2 2 0 0 251 734 586
1455 2 2 0 0 400 706 625
1456 2 2 0 0 546 688 669
1457 2 2 0 0 668 700 229
1458 2 2 0 0 538 733 694
1459 2 2 0 0 333 694 664
1460 2 2 0 0 565 662 375
1461 2 2 0 0 720 727 438
1462 2 2 0 0 372 700 668
1463 2 2 0 0 579 716 658
1464 2 2 0 0 642 711 389
1465 2 2 0 0 355 705 461
1466 2 2 0 0 407 721 679
1467 2 2 0 0 523 727 720
1468 2 2 0 0 654 725 279
1469 2 2 0 0 639 718 27
1470 2 2 0 0 694 733 539
1471 2 2 0 0 393 722 651
1472 2 2 0 0 645 739 397
1473 2 2 0 0 683 741 374
1474 2 2 0 0 397 739 638
1475 2 2 0 0 653 716 579
1476 2 2 0 0 666 723 660
1477 2 2 0 0 419 723 666
1478 2 2 0 0 374 737 683
1479 2 2 0 0 593 741 646
1480 2 2 0 0 683 737 1
1481 2 2 0 0 689 742 309
1482 2 2 0 0 660 723 2
1483 2 2 0 0 23 25 1
1484 2 2 0 0 25 607 1
1485 2 2 0 0 3 34 2
1486 2 2 0 0 34 415 2
$EndElements
