$MeshFormat
2.2 0 8
$EndMeshFormat
$Nodes
745
1 3.6294508130461734e-05 2.1080947943635149e-05 9.7685676702844435e-04
2 3.8024923703151057e-05 -3.7872491308888802e-05 -9.7528686165676819e-04
3 1.3678327144370908e-04 1.6823489443798734e-05 -9.6697169530778342e-04
4 2.3524648758997284e-04 1.1935218866323509e-05 -9.4991855433702974e-04
5 3.7159766490938996e-04 1.8900965471192755e-05 -9.0856982765463018e-04
6 5.1204891562618390e-04 -1.5681647918526337e-06 -8.4178859363893206e-04
7 6.0397894099796685e-04 4.2576079703335358e-06 -7.8305507968304483e-04
8 7.2084734497040331e-04 9.6384748493558397e-07 -6.8516852697344903e-04
9 8.1739503481784116e-04 -1.9981082882371832e-06 -5.7610159258960887e-04
10 9.0458480860089387e-04 8.9781852829135475e-07 -4.3906454317368531e-04
11 9.6967674586073541e-04 3.5989149313990203e-06 -2.8235614703897712e-04
12 1.0041540442860583e-03 3.6563149964137741e-06 -1.2876929126324902e-04
13 1.0128993024276496e-03 2.4619481789910956e-06 5.7352788413343126e-06
14 1.0006350968376715e-03 2.0837069349103982e-06 1.5096158029783988e-04
15 9.6357220231237106e-04 3.7463845541625590e-07 3.0091195624401941e-04
16 9.0149722166423592e-04 7.2515572450613506e-06 4.4523246002024422e-04
17 8.2144225441921370e-04 -1.7525498188335207e-06 5.7084642186480531e-04
18 7.2867519243790830e-04 -2.7793156367768289e-06 6.7761009954850490e-04
19 6.1838221135256403e-04 1.2483627922115553e-06 7.7289263928818376e-04
20 4.9313504573850078e-04 -2.4173419877334658e-06 8.5265898268053586e-04
21 3.5895776626367548e-04 6.0360083936865216e-06 9.1332730557555316e-04
22 2.3630516792651828e-04 -1.2509590192291784e-06 9.5005782454738461e-04
23 1.3991238965516166e-04 -2.0289192063360531e-05 9.6714759216720168e-04
24 1.4833696437469959e-04 1.1938891006154377e-04 -9.5945676348681698e-04
25 1.6578765203577537e-04 9.8773459274407565e-05 9.5987688913675416e-04
26 5.5596280367854246e-04 1.1037404677326543e-04 -8.0797623689928195e-04
27 5.5370210569921185e-04 -1.0847293652871738e-04 8.1052887272553965e-04
28 9.8143928182995777e-04 1.3787051053711029e-04 -2.0174532991678373e-04
29 8.4861872991095013e-04 1.5812067318492351e-04 5.1215915958750303e-04
30 9.3084415591298739e-04 -1.2454112720608311e-04 3.6589071523762884e-04
31 9.8275803561057549e-04 -1.1987281579850612e-04 -2.0592830021304989e-04
32 5.4928647666424232e-04 -1.0658517067470314e-04 -8.1339720742095790e-04
33 5.4509216316435925e-04 1.0142746997829350e-04 8.1655668471608751e-04
34 1.7178433728359861e-04 -8.1233938107086085e-05 -9.5990678056372255e-04
35 1.8605500064502103e-04 -1.0602567913192623e-04 9.5483059508053286e-04
36 7.7610579941868535e-04 -1.2692012454112449e-04 6.1508217550783947e-04
37 7.7076782477744285e-04 1.2361784383400112e-04 -6.2139012573155883e-04
38 1.0028127732215864e-03 -1.1302992797470003e-04 8.1545422874490354e-05
39 9.7763170590225382e-04 1.2258657943155476e-04 2.2551516901818107e-04
40 8.5768144888750302e-04 -1.3244388765021019e-04 -5.0327481661564908e-04
41 2.7621223236965148e-04 1.1838750273112916e-04 -9.3232215249405435e-04
42 2.2250953601536094e-04 2.2162197772578914e-04 -9.2785298788166130e-04
43 3.2322689292725945e-04 2.3708257783025335e-04 -8.9576240842088742e-04
44 2.9580134251656822e-04 1.0262930669658929e-04 9.2911528097874342e-04
45 6.5728276952755271e-04 1.2230535856699192e-04 -7.3243317633473685e-04
46 6.9632543491792570e-04 2.4790807346158547e-04 -6.6646718052300693e-04
47 2.6179414641646286e-04 3.2138124739894327e-04 -8.9003408272970183e-04
48 3.7633515284742666e-04 3.2392476103327862e-04 -8.4980658543653512e-04
49 3.1915604788297018e-04 4.2179181361666197e-04 -8.3118714579147996e-04
50 7.9611093145679239e-04 2.5114773713214310e-04 -5.5210684740771346e-04
51 7.2148122142409526e-04 3.6910482384182287e-04 -5.8456508887147528e-04
52 8.0950765669293831e-04 3.6963035809466451e-04 -4.6509274982595297e-04
53 7.2632887554580972e-04 4.7917732536441251e-04 -4.9846838336679009e-04
54 8.0435507023210256e-04 4.8143950489074088e-04 -3.6815013680547551e-04
55 7.1120748778118442e-04 5.9035288008445522e-04 -3.9752150007722276e-04
56 7.7959303778263453e-04 5.8445989381894037e-04 -2.6458143131335852e-04
57 6.3339409130216658e-04 5.8585075512825578e-04 -5.0948594414602867e-04
58 6.0279198772168665e-04 6.9027229755827318e-04 -4.1357792720484658e-04
59 5.1131655693379926e-04 6.7813909270190455e-04 -5.2983124555707763e-04
60 4.7888673260879436e-04 7.7571861820414174e-04 -4.2295448233118347e-04
61 3.8127122413555162e-04 7.5035363187755770e-04 -5.4117776274397692e-04
62 3.5437756584393037e-04 8.4443814017755065e-04 -4.1444291877834166e-04
63 1.9524697636913281e-04 4.4207164913373693e-04 -8.5670773660627116e-04
64 4.4264094980036201e-04 8.5247341777067393e-04 -3.0551801364972280e-04
65 2.5072388997213240e-04 8.1585224993560232e-04 -5.2360668408212333e-04
66 2.2934446532717748e-04 8.9657487439588060e-04 -3.9390964245267972e-04
67 1.1773414094000940e-04 8.6399462789822916e-04 -4.9441038782980021e-04
68 1.0389839533908212e-04 2.2748352944858868e-04 -9.4581048162627787e-04
69 1.3504378089862371e-04 7.6333714318190860e-04 -6.2750146858059884e-04
70 8.5960384230166019e-04 4.7398229187635123e-04 -2.3797560683392406e-04
71 8.3306239370788810e-04 5.6244524413630965e-04 -1.1743758458643051e-04
72 7.4072209136680700e-04 6.7265003934554918e-04 -1.4788337114771059e-04
73 7.8076421411583171e-04 6.4442729363800024e-04 -7.8619187083515963e-06
74 6.8211398809864320e-04 7.4715272120595840e-04 -3.0043272596899260e-05
75 7.0654893481159899e-04 7.1725135031756849e-04 1.0013218636229601e-04
76 6.0264792693428138e-04 8.0846094127131208e-04 8.3706770474942040e-05
77 6.1915838242516919e-04 7.6897610013514279e-04 2.1500921421714026e-04
78 5.1179613743985422e-04 8.5136692872555425e-04 1.8705793610016976e-04
79 9.8266586377226869e-05 9.3768931540080792e-04 -3.5353212168686945e-04
80 -1.9497537890508383e-05 9.0113166552770500e-04 -4.4214561763203164e-04
81 2.3447876441588434e-04 2.1595279472472946e-04 9.2727170541714323e-04
82 5.2843734624109112e-04 7.9608761698455081e-04 3.2243220624310234e-04
83 -4.0888176562127405e-05 9.5813532614572559e-04 -3.0916478792767564e-04
84 4.1014208550696973e-04 8.7730468421520357e-04 2.8336665186309254e-04
85 4.1994189154427342e-04 8.1398877591286356e-04 4.1471665762514898e-04
86 3.0322092837854877e-04 8.7982446402828083e-04 3.8320132845606059e-04
87 3.1411244374175159e-04 8.0528982356956210e-04 5.0684801727509971e-04
88 1.8559624933014201e-04 8.5836164578177851e-04 4.8455349507641425e-04
89 1.6354355805727947e-04 9.3093921381470421e-04 3.4832548569825491e-04
90 5.2869337389044577e-05 8.9703701066912655e-04 4.4830685164228050e-04
91 7.1420511197429768e-05 8.1519436779656544e-04 5.7361753155626624e-04
92 -5.1969730450870983e-05 8.5032932368724252e-04 5.2576773772243664e-04
93 -7.7388891939165130e-05 9.1840636156682734e-04 4.0220880402392067e-04
94 -1.8864230613415285e-04 8.5966764479697855e-04 4.8063509949345946e-04
95 -1.4621816778054867e-04 7.9688234221387535e-04 5.8256951645966617e-04
96 -2.1643340744351172e-04 9.1898466546003232e-04 3.5040823211657181e-04
97 1.0403474516614132e-04 2.2255028874903780e-04 9.4777942424811607e-04
98 5.3251066317250577e-04 7.0420728634799673e-04 4.7939331406162474e-04
99 1.7167202578039008e-04 3.1360160809609902e-04 9.1370575234510452e-04
100 4.9404606463701642e-05 3.1488387251042216e-04 9.2700864447666984e-04
101 -2.1904888102498367e-05 2.1278157746468921e-04 9.5484194899018722e-04
102 -7.7447027675878386e-05 3.0766169832208644e-04 9.2742266985089644e-04
103 2.0345510538290342e-04 9.5404401811584663e-04 -2.5824231278707564e-04
104 -1.0923052062723964e-04 9.6758166971989772e-04 2.6470965944146613e-04
105 -2.4667653770326547e-04 9.5750784110936241e-04 2.0624664413434489e-04
106 -3.5429305169226439e-04 8.9729391682063402e-04 2.9381538946545121e-04
107 -1.5365777512241834e-04 9.1595792617093488e-04 -3.8551968712957179e-04
108 -1.3312296951502409e-04 8.4468094187338516e-04 -5.2017695047312047e-04
109 -3.7831591774259194e-04 9.2432890308207015e-04 1.5501532267684655e-04
110 -2.6694367084983896e-04 8.4936480919641411e-04 -4.6209625170123440e-04
111 -2.3666830682218562e-04 7.6784026538038389e-04 -5.9161704738101861e-04
112 -3.7177593137362029e-04 7.6291812806522771e-04 -5.2996221059234199e-04
113 -3.3046035459198721e-04 6.6701955062382250e-04 -6.5967436814574399e-04
114 -4.6181061031515063e-04 6.6570255005400864e-04 -5.8318910714110883e-04
115 -4.0995945868126300e-04 5.6291732271717939e-04 -7.0686142848864781e-04
116 -4.9758230767008027e-04 7.4756794100912325e-04 -4.4813881081039365e-04
117 -2.8363868635371611e-04 9.0958797168630195e-04 -3.2650061418407791e-04
118 -2.8341528178670229e-04 7.7626660760995124e-04 5.6351140706838707e-04
119 7.1834263549205120e-04 6.7627953218593899e-04 2.1655293135520781e-04
120 -2.7871308693073761e-04 5.6182092058023366e-04 -7.6479742943837755e-04
121 -3.5479038537570282e-04 4.5019645213083156e-04 -8.0339018074137355e-04
122 -4.8609093454882456e-04 4.6313544549387301e-04 -7.2882935460050918e-04
123 -4.2527209744821001e-04 3.5586004610149090e-04 -8.1555223882720984e-04
124 -5.8871536171544228e-04 6.4269745005981951e-04 -4.9411628237399534e-04
125 -6.1681458355257305e-04 7.0570731567013096e-04 -3.6605764820226875e-04
126 -7.0131037096244047e-04 5.9449752422359556e-04 -4.0598006404565898e-04
127 -4.7896709073704018e-04 8.5728107548873884e-04 2.3477690786357844e-04
128 -5.5725994578482345e-04 3.4952721463661353e-04 -7.4024920322529923e-04
129 -4.9699550132298320e-04 2.4669023364848981e-04 -8.1528119422704986e-04
130 -6.2126145026535616e-04 2.2293586803958995e-04 -7.3849746159269718e-04
131 -5.5630681153516590e-04 1.2234156223454566e-04 -8.0581712147378298e-04
132 -6.7651008732803311e-04 9.3748206561135788e-05 -7.1912724350642549e-04
133 -5.9395493424036969e-04 -9.4176241222868751e-06 -7.8940092146940902e-04
134 -7.1057140705692062e-04 -3.5211108145962060e-05 -6.9329710177529202e-04
135 -6.1840810200368976e-04 -1.4325150908033445e-04 -7.5950981447507409e-04
136 -7.8626385058435918e-04 7.7498512115777298e-05 -6.0903022558379718e-04
137 -8.1418388504464511e-04 -5.7481018833967278e-05 -5.7630072734911266e-04
138 -8.7647804851391921e-04 4.9161821381354716e-05 -4.8498680799713857e-04
139 -8.9623697247973478e-04 -8.2821323150050703e-05 -4.4576542216173980e-04
140 -9.4369045187347891e-04 1.0909681174123817e-05 -3.5168954098845848e-04
141 -9.5203778809212897e-04 -1.2120223974533636e-04 -3.0965527819424573e-04
142 -9.8631297396439659e-04 -1.4048915591445795e-05 -2.1783744023247430e-04
143 -9.8534910718994914e-04 -1.4823420518446929e-04 -1.7152952302978898e-04
144 -1.0079194469290829e-03 -3.7415152923295521e-05 -8.0920799818841749e-05
145 -9.9762699042517324e-04 -1.6733705835619202e-04 -3.7049888411525678e-05
146 -1.0092450583984334e-03 -5.3122287411802715e-05 5.3291037083563720e-05
147 -9.8965191127524128e-04 -1.8303247500313854e-04 1.0530524883867128e-04
148 -9.6887150146103714e-04 -2.9365028319827506e-04 1.0822000710891189e-05
149 -9.5005655075707950e-04 -3.1096165079948880e-04 1.5495073690184510e-04
150 -9.5817759431463196e-04 -1.9285252305505202e-04 2.5435353655086913e-04
151 -9.0834947475393400e-04 -3.2166108199521546e-04 2.9945397935806967e-04
152 -9.0424163693562584e-04 -2.0585094586425578e-04 3.9134546181232604e-04
153 -8.4292395637605624e-04 -3.3173662742792543e-04 4.3561341876717594e-04
154 -8.9845233085949399e-04 -2.1609545282085167e-04 -3.9763675273143918e-04
155 -8.3059750322526460e-04 -2.1392922511168208e-04 5.1816503472696556e-04
156 -7.5959308753487185e-04 -3.3342796085222869e-04 5.5897884030922586e-04
157 -8.8521679698735087e-04 -8.0957341782522237e-05 4.6693235323292911e-04
158 -7.3324145369569021e-04 -2.1339195213706790e-04 6.4015955834170605e-04
159 -6.5748125913220421e-04 -3.3263389197674625e-04 6.6890830467464550e-04
160 -1.0088211314409859e-03 7.9655505244172179e-05 4.6260623018886240e-06
161 -6.2157231901084891e-04 -2.0761545748776891e-04 7.4339459977392267e-04
162 -5.3400548776189472e-04 -3.1959648570396219e-04 7.6973768418288119e-04
163 -4.9797115901421450e-04 -1.1160056398520785e-04 -8.4247394190759342e-04
164 -5.2167035327571869e-04 -2.4234506200444141e-04 -8.0268462297101485e-04
165 -7.1953297080178504e-04 6.4986739843438275e-04 -2.7751349397473510e-04
166 -1.4886801375855026e-04 1.9774660955767869e-04 9.4722188319806085e-04
167 -2.0724165557783997e-04 3.0759072993129444e-04 9.0850901758015353e-04
168 -4.0532350333649208e-04 -2.0294904224402516e-04 -8.7259918733398540e-04
169 -4.2951636816934957e-04 -3.2949279392103522e-04 -8.2453897276874260e-04
170 -5.4501340804549399e-04 -3.7410947908757708e-04 -7.3868767477454865e-04
171 -4.4156376772799789e-04 -4.6807300099354650e-04 -7.5323366508384441e-04
172 -5.5499332342306734e-04 -5.0340188073013899e-04 -6.5605158568769306e-04
173 -4.3925498622395307e-04 -5.9922017964819316e-04 -6.6293041520014981e-04
174 -5.4809685199505489e-04 -6.2188830768519603e-04 -5.6029732577200884e-04
175 -4.3039752393215976e-04 -7.1333930242719549e-04 -5.5475212260691501e-04
176 -7.7045445704115455e-04 -4.4094483192298121e-04 4.6862597593097857e-04
177 -5.3293795337483051e-04 -7.2393815345676946e-04 -4.4923169831610852e-04
178 -4.0535431728087363e-04 -8.0958785635912322e-04 -4.3736992010719725e-04
179 -3.1114241033149359e-04 -7.8225190333657154e-04 -5.4211937507691818e-04
180 -2.7740289739668441e-04 -8.7034319947706907e-04 -4.2173050888490567e-04
181 -1.7442235885380540e-04 -8.3495224127408765e-04 -5.2595164311577697e-04
182 -1.3956454198801939e-04 -9.1306765456978264e-04 -4.0086136196231252e-04
183 -3.8458665255115769e-05 -8.6188203850869245e-04 -5.1167008836600048e-04
184 6.2930740151429703e-07 -9.3307521357162122e-04 -3.8015725147825228e-04
185 -9.6475261798780246e-05 -9.6671964268381361e-04 -2.7694592769810173e-04
186 4.4897888121348498e-05 -9.7873442573934784e-04 -2.4820159603983514e-04
187 -5.3442333873021116e-05 -1.0000917226746376e-03 -1.4736865537556799e-04
188 9.1806515523446910e-05 -1.0008034990458439e-03 -1.2410478179761568e-04
189 -6.8115653409782352e-06 -1.0128767048800213e-03 -1.8637738069167816e-05
190 1.2687802466387113e-04 -1.0050969537373433e-03 1.1255354233479697e-05
191 3.7176565506803058e-05 -1.0055743918152141e-03 1.1310369318930949e-04
192 1.6900430152265675e-04 -9.8772943658101495e-04 1.4407984950142220e-04
193 7.2602646768705602e-05 -9.7744330396867048e-04 2.4708517747803316e-04
194 2.1493850229425461e-04 -9.8613240123468049e-04 -8.3906990396135213e-05
195 2.0400966846735431e-04 -9.5021582899997546e-04 2.7595947080068695e-04
196 1.0381567744604390e-04 -9.2876902327006293e-04 3.7686164754917778e-04
197 1.1092553127135938e-04 -8.7601163146840003e-04 -4.7968484560742124e-04
198 -9.7524178830226205e-05 -1.0038765468410639e-03 8.8690214983129666e-05
199 2.3512230757354778e-04 -8.9183967705622408e-04 4.0388936759371572e-04
200 3.3248085920473429e-04 -9.0557663528336287e-04 2.9848016567695745e-04
201 3.6118819811045537e-04 -8.3892360958097954e-04 4.2224781190588459e-04
202 1.3319259105314333e-04 -8.5861859365253361e-04 5.0174659874019129e-04
203 4.5938199818305306e-04 -8.4070405486734673e-04 3.1766960571528329e-04
204 3.3259929849315385e-07 -8.8538303722858545e-04 4.7424893932612933e-04
205 3.1433009331266536e-05 -7.9989821581889818e-04 5.9787809114196966e-04
206 -9.1683498305439347e-04 -4.2556166510990116e-04 5.8453881817949591e-05
207 -7.8100052589679303e-05 -7.6331018257129110e-04 -6.3747235524698302e-04
208 -1.0796255714395458e-04 -8.2121604253972732e-04 5.6165889672841844e-04
209 -6.9892839849984657e-05 -7.2422754194954289e-04 6.7879549813519590e-04
210 4.7937890688756334e-04 -7.6442809843144197e-04 4.4364097029482558e-04
211 5.6778646969162178e-04 -7.6493877584675289e-04 3.3182343074510178e-04
212 -4.9914590960768734e-04 -8.0919272964517851e-04 -3.3609066362090220e-04
213 6.2939704423681077e-05 -6.9431947018689212e-04 7.0781400522817789e-04
214 -3.1484127696714211e-05 -6.1164607620581019e-04 7.7727337582752935e-04
215 -3.0677997927430544e-04 -2.8774524194133801e-04 -8.8793773302283264e-04
216 -2.0459189372985879e-04 -7.4243533544997070e-04 6.3366402162100082e-04
217 -2.4296778821047247e-04 -8.2942157938199952e-04 5.0876824638666199e-04
218 5.4940845161979303e-04 -8.2236456076265768e-04 2.1221017718897625e-04
219 6.6359699594497430e-04 -7.2786139025027101e-04 2.2954068302445264e-04
220 6.3042819847028355e-04 -7.8708094160748513e-04 9.5659135636330306e-05
221 -6.3769057339621658e-04 -6.3422280201051945e-04 -4.4798529079209508e-04
222 7.3963206514993758e-04 -6.8268249244022607e-04 1.1379261212737919e-04
223 6.9311277315339283e-04 -7.3867734603660234e-04 -2.4453882240039685e-05
224 -2.9046981018578897e-04 -1.7075593191246178e-04 -9.2071249467583216e-04
225 -9.6765463551907950e-04 1.1304371250711845e-04 -2.6240624696961796e-04
226 9.3605287258033545e-05 -5.8003053493645867e-04 7.9499996331257295e-04
227 -1.9817792052172234e-06 -4.8842363809381496e-04 8.5530338608898627e-04
228 -4.9802432008911723e-04 -1.8432015203399257e-04 8.3085264465989944e-04
229 -5.8557087530303165e-04 -8.4359997057254003e-05 7.9127004766254790e-04
230 6.6503438409165508e-04 -6.6910747033214536e-04 3.5573503761782122e-04
231 3.7894266391172936e-04 -7.5343969860624008e-04 5.4035473697981306e-04
232 4.9894689664895843e-04 -6.6514564303517558e-04 5.5863420691515300e-04
233 7.9165578131626369e-04 -6.3214449822547223e-04 -6.0286935650578818e-06
234 7.4476982033696920e-04 -6.7116317145753449e-04 -1.4053666087135371e-04
235 -3.5793642265162523e-04 2.3517005698596075e-04 -8.8392819281471685e-04
236 2.9631019130498123e-04 3.1573574808332249e-04 8.8256143325396962e-04
237 -4.0498071947386155e-04 -2.8019532570165706e-04 8.5307169317653815e-04
238 -8.3938233949991999e-04 1.9594304142194182e-04 -5.1165473943499485e-04
239 6.3928614005658501e-04 -7.6899901776630202e-04 -1.5705672614235846e-04
240 6.8703185399508716e-04 -6.8873026785532443e-04 -2.7279438653836721e-04
241 -5.6750823618021947e-04 -4.4266991412392789e-04 6.8614687395830622e-04
242 5.7743030946099685e-04 -7.7516555979049843e-04 -2.9256920989440536e-04
243 6.1124630590612126e-04 -6.9106828547905975e-04 -4.0332732972912262e-04
244 7.1763227848972971e-04 -5.9148898213208913e-04 -3.8723296621577112e-04
245 6.2526669424211776e-04 -5.9041985652905711e-04 -5.1593208556789238e-04
246 -1.9225411701608469e-04 -2.4219067120264363e-04 -9.2997769540011457e-04
247 8.2988484337594940e-04 -5.6828220547234284e-04 1.1806269074341297e-04
248 2.2562667598130474e-04 4.2708207561121560e-04 8.5774485899584073e-04
249 -3.7526833340465913e-04 -1.4705558647915958e-04 8.9574915387838957e-04
250 3.5041166990748958e-04 4.3620862919917615e-04 8.1309786782691519e-04
251 -2.0267242087779251e-04 -3.6928915240501593e-04 -8.8769175249203344e-04
252 -7.7865671561673852e-05 -3.1502826339240459e-04 -9.2537396683682258e-04
253 3.8848365318075993e-04 9.2205778233061587e-04 1.4625535192927798e-04
254 -6.2794850754146006e-04 7.5625759611600409e-04 -2.2934599698891283e-04
255 -7.2289878162767483e-04 6.9122309833433019e-04 -1.4499227537038330e-04
256 -8.0549939545664171e-04 5.8055137147572746e-04 -1.8633119953507507e-04
257 -8.0400504366767429e-04 6.1157739676416479e-04 -5.1369914155717089e-05
258 -2.2171585582170063e-05 4.1416178562298802e-04 8.9050113536618878e-04
259 -2.8788800675849180e-04 -2.3578643702384084e-04 9.0820564376712428e-04
260 -2.7260725059095165e-04 1.9861824631095112e-04 9.2071034964210199e-04
261 -3.4346113019335792e-04 3.0040581532656289e-04 8.7126489548213404e-04
262 -2.5433139442149303e-04 -1.2304315742050630e-04 9.3808154205956651e-04
263 -1.6850461584358230e-04 -2.1131865261835150e-04 9.4158470006074839e-04
264 -8.7515796492947681e-04 4.9987212988269656e-04 -8.4890642523927938e-05
265 -8.5979158180541238e-04 5.3105015253806739e-04 4.8226722522955144e-05
266 -3.3852701629428675e-04 -7.4321839601281968e-04 5.7687991013538479e-04
267 -3.7146836289125504e-04 -8.1826409906231659e-04 4.4985660193682812e-04
268 5.1644051560720706e-04 -6.8134443750334178e-04 -5.2357123254432680e-04
269 5.2230251271792724e-04 -5.7105569808567802e-04 -6.2974365761676767e-04
270 6.1638182197058192e-04 -4.7671320190791305e-04 -6.2365499421729623e-04
271 5.0433569269051179e-04 -4.5210239994722450e-04 -7.2572396975830985e-04
272 4.0352320018993297e-04 -5.3848323005678198e-04 -7.2949315798899591e-04
273 -2.7048415367113699e-04 4.0591778976964958e-04 8.5505990065659154e-04
274 -4.1303732899502593e-04 3.9911346552471349e-04 8.0328403810241318e-04
275 3.7532832034288896e-04 -4.2189409685084600e-04 -8.1038725532484902e-04
276 2.7260672053528660e-04 -5.0005604150304896e-04 -8.0728406954869885e-04
277 -3.2169555867250148e-04 -3.5072771837535156e-04 8.6159899931506634e-04
278 -1.3726816753744585e-04 9.9412470746840838e-04 1.2258409011024052e-04
279 8.3128993161118948e-04 -5.6504849030300573e-04 -1.1960063661526827e-04
280 -2.2349410803620430e-04 4.4806913925098693e-04 -8.4745157092318594e-04
281 -1.4517769812449313e-04 5.5843469016639443e-04 -8.0083020272798022e-04
282 8.7128662429592147e-04 5.1669141631357390e-04 2.5870970506267989e-05
283 1.1491055185289430e-04 -4.5664375449925643e-04 8.6455640844190480e-04
284 -9.9901779067445369e-04 6.1844988461930281e-05 1.4296355476850652e-04
285 -9.2360006432542694e-04 -4.0764422814019595e-04 -7.4732691114833618e-05
286 -8.6144501725004001e-04 -5.3160281198300064e-04 -2.7979994442475331e-05
287 -8.4337182396381557e-04 -5.4952501076380633e-04 1.0686830337218358e-04
288 -7.8400479890754096e-04 -6.4077183417287492e-04 2.1559175810874070e-05
289 -7.5821812240378292e-04 -6.5058319724567730e-04 1.5954832684274736e-04
290 -6.8298252482049213e-04 -7.4265935554040572e-04 8.4400825923731525e-05
291 -1.9864283043617367e-04 -9.7886654295090136e-04 -1.6399601830247232e-04
292 -2.7551685761771318e-04 -8.9105525128987180e-04 3.8075794806727195e-04
293 -3.2564817359344479e-04 -5.4227437026568512e-04 -7.6216676713337385e-04
294 -9.7739933489101889e-05 -4.6262826882573454e-04 -8.6395862238781409e-04
295 -4.7237851111890211e-04 2.7729563181028019e-04 8.2062653115874044e-04
296 -5.4223391668759512e-04 3.8750755567882445e-04 7.3409517016663993e-04
297 -8.7295209314336604e-04 4.6095486589594698e-04 -2.1361149299130373e-04
298 -6.0161928220566277e-04 2.6275293846822018e-04 7.4246850725781521e-04
299 -6.6185192641683742e-04 3.7091052351769150e-04 6.4544108522788266e-04
300 -5.9501723172135021e-04 4.9201047939550894e-04 6.3056133355491803e-04
301 -7.0726584172913485e-04 4.6531441467921109e-04 5.3439969776806454e-04
302 -7.6784616615241776e-04 3.3969250322077928e-04 5.4433609773252962e-04
303 -2.9911994221510079e-04 -6.5541888637245466e-04 6.8560213604021360e-04
304 -6.3004160579391169e-04 5.8673228045348766e-04 5.1297855758009416e-04
305 -8.0857579484785633e-04 4.1778105901639517e-04 4.2661768151639590e-04
306 2.2704369183172560e-04 -5.3291218147565609e-04 8.0069809958236956e-04
307 2.3286668146493066e-04 -4.1249251626234687e-04 8.6306669983406278e-04
308 3.4904855542439069e-04 -4.8219774137882250e-04 7.8988797340419868e-04
309 -4.5687547366906131e-04 -7.3461530590954020e-04 5.0631624950774360e-04
310 -8.5745328501215937e-04 2.8887682540589682e-04 4.3682058436493284e-04
311 -4.0919328358306781e-04 -8.6644973372310456e-04 3.1651757107530694e-04
312 -7.7435531073979447e-04 6.4523098929876888e-04 8.2751768342218240e-05
313 -8.6004410205670154e-04 -5.0634453887694094e-04 -1.6480981493051676e-04
314 -5.3904259255924736e-05 9.9717881415648538e-05 9.7132201616505372e-04
315 -8.9276637449141295e-04 3.5793180706710236e-04 3.0428829625316317e-04
316 -9.8864304014828616e-04 1.9492567224214575e-04 8.8368486038268258e-05
317 -1.0909038253368901e-04 7.5300924980840434e-04 -6.4163053532685437e-04
318 2.5349258887771760e-04 -3.8804165971515159e-04 -8.6816050424860715e-04
319 -7.0250276845301902e-04 -7.2704516671245152e-04 -5.9047380977193138e-05
320 -6.0249998244031242e-04 -8.1379219356260098e-04 2.9546157559056423e-06
321 -6.4910641742477431e-04 -4.0857408668003271e-04 -6.3645108503267492e-04
322 -8.4753646133561700e-05 -1.8271171471432329e-04 -9.5740354070371337e-04
323 5.1403107081565648e-04 -8.6932891203267610e-04 7.8791278024003788e-05
324 -6.2353884500621775e-04 7.9047095934268747e-04 -9.2391930579564541e-05
325 2.7896533872218024e-04 5.3690111170642287e-04 7.8190433673667526e-04
326 2.9033744990201955e-04 -6.2278628689167671e-04 -7.1697260357682271e-04
327 1.5858394994248550e-04 -5.8834272808977732e-04 -7.7982134664305702e-04
328 4.0211515598012230e-04 5.3419056278715751e-04 7.3218871055160295e-04
329 4.7516249091752246e-04 4.3040320485264737e-04 7.5479450718011110e-04
330 4.4103556188782782e-04 4.2695818603954582e-04 -7.7482162579825672e-04
331 -2.2606668500230127e-06 9.9563450933557915e-04 1.7307837186087376e-04
332 -2.4891504084422230e-05 1.0102883791676799e-03 4.1160712089209679e-05
333 -1.6178697311474904e-04 9.9827663789177237e-04 -9.6814652001255891e-06
334 1.0627888332855084e-04 1.0030289530337507e-03 7.5395028893890378e-05
335 3.5221233150202133e-04 -3.5835350338117095e-04 8.4770363345833960e-04
336 4.5206738734465717e-04 -4.2694843668339606e-04 7.7030617288954785e-04
337 -8.1091266869372399e-04 2.0781271606100377e-04 5.4748356630754901e-04
338 -3.4050029999860889e-04 5.0790391385524926e-04 7.7705454545802337e-04
339 -1.0554542724148643e-04 4.4747372932508794e-04 -8.6879085445364893e-04
340 3.7233754090975989e-04 -3.0836088249308109e-04 -8.5785112311496492e-04
341 3.1710766989360884e-05 -2.6672817152527265e-04 -9.4194784019021650e-04
342 -9.3950711762172607e-04 3.6386418595383391e-04 -9.9209030013865462e-05
343 2.4733582264865075e-05 -3.7501894127301143e-04 9.0697301179679102e-04
344 -5.1720202530384889e-04 6.1122135458575736e-04 5.9658652380193398e-04
345 -5.3654498478375153e-04 7.1385245870393471e-04 4.6084384358134422e-04
346 -6.6091233237367745e-04 6.5710294375825461e-04 3.8038175743905744e-04
347 6.0009252715298683e-04 -3.5604922893264210e-04 -7.0742920367340830e-04
348 7.0840270269404337e-04 -3.7253284147543048e-04 -5.9821951937695950e-04
349 5.2314902995418051e-04 5.1794129560790193e-04 6.6927197530591983e-04
350 5.9575325041311231e-04 3.9722930310521836e-04 6.8936578699849865e-04
351 6.4324064614473819e-04 4.8987999819983359e-04 5.8686203201752465e-04
352 7.0670042302787108e-04 3.6344808281365908e-04 6.0441307997652642e-04
353 7.4338302655156164e-04 4.5736657162152031e-04 4.9448564053556070e-04
354 -6.5351004774914052e-04 -7.4105369114095651e-04 2.1403066319911472e-04
355 2.5165966536033616e-04 5.3529619366503138e-04 -7.9064364787222055e-04
356 1.2910574712764943e-04 5.5071112706924451e-04 -8.0837169420547078e-04
357 -6.7395511786035229e-04 3.2547202904078566e-04 -6.5493078435861839e-04
358 5.2867314546337486e-04 -8.4494313164879041e-04 -1.7516409308174108e-04
359 4.5248993365715228e-04 -8.5266525654365119e-04 -2.9625006360702353e-04
360 -8.3002182600109349e-04 4.8589629347807494e-04 3.0348130333897658e-04
361 -1.3487879720458439e-04 -5.2705249330831842e-04 8.2317678880417487e-04
362 -1.7391078504796153e-04 3.4275243701203738e-04 -9.0255642962796363e-04
363 -2.1057336180324405e-04 5.1287436837229347e-04 8.1591055230684174e-04
364 -5.2271983552374735e-04 8.4755852427764072e-04 -1.7040136899498153e-04
365 1.5313051016339506e-04 5.3555154143203137e-04 8.1459071616130226e-04
366 -3.4002759627966867e-04 -2.4410411158080661e-05 9.1958439584274344e-04
367 -7.1492591848109830e-04 -6.4658686385437214e-04 2.9893732558200714e-04
368 2.0585539052336811e-04 6.5236099392167331e-04 7.1967757686029320e-04
369 8.1555052171807972e-05 6.1743209363029699e-04 7.6790665691629594e-04
370 6.9143703640722331e-04 -2.4603394368152864e-04 -6.7252594115883705e-04
371 -5.2680950179721754e-04 1.6578922271901503e-04 8.1778650892731363e-04
372 -6.5726089051569439e-04 1.3515960813884913e-04 7.3088130075613501e-04
373 5.7166302216271809e-04 8.3321927788031723e-04 -5.2464348875108128e-05
374 -1.2933269298039324e-04 -8.5956663768228168e-05 9.6580845203977396e-04
375 -4.6527766408123153e-05 -1.6575087913829183e-04 9.6299191447635809e-04
376 -3.0853929555469864e-04 -9.3150087590327616e-04 2.4263588283166324e-04
377 -4.4002481581870736e-04 -8.9681533021861463e-04 1.6611090415831256e-04
378 -9.3045749951396902e-04 2.0292712927253402e-04 3.3236202637156433e-04
379 4.1308909867030234e-04 6.3283454315935048e-04 -6.4896991959138828e-04
380 1.6489805738408990e-04 -7.0245835534722798e-04 -6.8466166514430447e-04
381 2.9085285840706551e-04 -7.3332545920059829e-04 -6.1168802069818686e-04
382 -9.1178571614304160e-04 -3.8331102072719628e-04 -2.0805299114541066e-04
383 -8.3690326318050490e-04 -4.7528826941882317e-04 -3.0234478570587538e-04
384 -7.8074078914291002e-04 -5.8743095690241896e-04 -2.5659698928180317e-04
385 -1.7543579623510123e-04 -9.4626948820301373e-04 3.0457915028148748e-04
386 -6.6532751257895124e-04 5.2624097010095592e-04 -5.3026244627609018e-04
387 -7.6776487892243775e-04 4.7508075731141330e-04 -4.3891000014745354e-04
388 8.8022717512556946e-04 2.5044628679288071e-04 -4.1754162140025016e-04
389 -9.1780565228128416e-04 3.3611357731528577e-04 -2.5103362246484958e-04
390 -5.1126741503088394e-04 8.7180155210508860e-04 -3.7151662207970707e-05
391 -4.0715725475530719e-04 9.1887580595662358e-04 -1.0888951587684726e-04
392 -6.0454406356614653e-04 8.0970433859462853e-04 3.8539729304400709e-05
393 -6.0020244375710613e-04 -8.0443518971106364e-04 -1.3050867742972524e-04
394 -5.0908225173221754e-04 -8.7321777075504434e-04 -5.7374965298370361e-05
395 7.5940315861426974e-05 1.0068860360293898e-03 -5.6251420557991583e-05
396 2.1070083971353132e-04 9.8916009790066066e-04 -2.3058262456129395e-05
397 5.0403107060208781e-04 3.2339894656551181e-04 -7.8642050894781946e-04
398 2.5442707777779191e-04 -2.9116958924848511e-04 9.0268831356591413e-04
399 3.6454894987882346e-04 -2.2056873487143761e-04 8.8642060397648239e-04
400 -2.6430025236317747e-04 6.0793832793626455e-04 7.3633845355895169e-04
401 -1.5594139084564496e-04 6.0263563987525577e-04 7.6795232474029793e-04
402 3.1842478369513639e-04 -6.0421140988669686e-04 7.2049575614286168e-04
403 6.4379115168727678e-04 2.7410183518884144e-04 7.0480793520364641e-04
404 6.6766795754835987e-04 5.9123560169338962e-04 4.6323769793102382e-04
405 -3.2105379309257736e-04 -9.5426559615687597e-04 1.0715238338534756e-04
406 2.5739806366587969e-04 -2.7250401550378095e-04 -9.0702056704248721e-04
407 3.4976421359257643e-04 -1.7562655952347138e-04 -9.0048114242460928e-04
408 7.6430572092247502e-05 4.4115189048179201e-04 -8.7471218798435121e-04
409 -9.0033549941391142e-04 4.3307872909689353e-04 1.6118085718857823e-04
410 -4.5196980747518913e-04 8.2018061352842207e-04 3.6927193913491768e-04
411 5.4563987664277638e-04 4.2801008616599853e-04 -7.0878411128429077e-04
412 4.4791474408420695e-04 6.3208519268342998e-04 6.2862053461992557e-04
413 8.0673585752166798e-04 3.1184575913164106e-04 5.0759105537791596e-04
414 8.3891964566653633e-04 3.9484320183728189e-04 3.9178988109600781e-04
415 4.4167670658015260e-05 -1.5056541569118372e-04 -9.6512237388513260e-04
416 -9.8606459605517249e-04 2.2432339443173916e-04 -3.7867191611070111e-05
417 -7.1312349974583897e-05 3.3780814187751802e-04 -9.1704640670138321e-04
418 -1.3192687672817119e-04 2.3781742422100777e-04 -9.4021579227375810e-04
419 3.1769932835554258e-05 1.4938254320243522e-04 -9.6465387646388324e-04
420 -4.8739557138310159e-05 -7.5463363212155928e-05 -9.7303817811840725e-04
421 -9.5564789883404583e-04 3.2771959882971099e-04 5.8914092621722011e-05
422 7.9383056909281544e-04 -2.5747773825322568e-04 -5.5315239653371765e-04
423 8.0656078279429564e-04 -3.7629601142331968e-04 -4.6612371991790094e-04
424 2.4862360476255834e-04 9.7383800759607468e-04 1.1298280745034814e-04
425 2.8258621273000425e-05 -6.6870476143786274e-04 -7.3328957125979590e-04
426 3.5492452272141157e-05 -5.3200928907733462e-04 -8.3020868226794334e-04
427 -7.6437252805134750e-05 -5.8771050949122164e-04 -7.9075821191567665e-04
428 4.0943483386661760e-04 -9.0871998817754240e-04 -1.7376242271764704e-04
429 3.3022322708809061e-04 -9.1171108364144246e-04 -2.8219443186646803e-04
430 3.6131007634405005e-04 -8.4706153884261178e-04 -4.0668694534751372e-04
431 -6.0858691448652388e-04 -7.2943352125807840e-04 3.3722384855521079e-04
432 -6.5111482558214231e-04 -6.2984225475487467e-04 4.3684781301752139e-04
433 1.4556880024781498e-04 -3.2167126816998388e-04 -9.1541843410978846e-04
434 -5.2526811388301911e-06 5.4695124243635230e-04 -8.2092262405684990e-04
435 6.6244971780879451e-05 6.5488883020272228e-04 -7.4016903181111466e-04
436 8.8796409890437003e-04 2.6386748003250099e-04 3.9404698037551954e-04
437 9.1182741715204244e-04 3.4660376410518870e-04 2.6114017085809849e-04
438 8.4963022363788250e-04 4.6795687694601521e-04 2.7815398552434259e-04
439 7.4830088216637600e-04 2.3167643966689661e-04 6.1834432221380745e-04
440 -5.7704004397412438e-04 7.6541182551546623e-04 3.1328458121255480e-04
441 -7.0047099204985711e-04 6.9327496690630439e-04 2.2435577782441585e-04
442 6.6949495671169942e-04 -1.1920451200831298e-04 7.2332253109892372e-04
443 7.1479021814638776e-04 -2.3994316711676252e-04 6.5173176044614628e-04
444 8.0743130356069487e-04 -2.4683822474132829e-04 5.3924414716551407e-04
445 7.3745301251932531e-04 -3.6206887528550115e-04 5.7084046422122329e-04
446 8.1767641929985486e-04 -3.6830183416358589e-04 4.5395876985588127e-04
447 7.3795235934056896e-04 -4.8023401744023720e-04 4.8250699052229462e-04
448 6.5134445992798609e-04 -4.7569118900758127e-04 5.9009097457287209e-04
449 8.0997886779412154e-04 -4.8169036398648484e-04 3.5839948462337688e-04
450 8.8080733517463951e-04 -3.6726852719362596e-04 3.2766664989638416e-04
451 6.3758223007685246e-04 -5.9733704551305402e-04 4.9516430669408005e-04
452 6.6908520720256460e-04 1.2876734324302285e-04 7.2258861443740214e-04
453 -5.7802232554291194e-04 -8.2022505054421221e-04 1.3187875125115592e-04
454 2.4587418504363431e-05 -3.8886104119154692e-04 -9.0162101803526471e-04
455 9.0953155501505962e-04 4.1792787037183885e-04 1.4720166314416289e-04
456 4.6898142846959118e-04 -2.0848351090288153e-04 -8.4131661775053296e-04
457 4.9609951441607783e-04 5.2030488337710657e-04 -6.8567980369755937e-04
458 5.9778264523079690e-04 -2.3386591960504263e-04 7.5559247026582110e-04
459 1.3448552455975766e-04 9.7788027252379409e-04 2.1442451171933878e-04
460 6.3779508483779947e-04 7.0129191338316201e-04 3.4235442519276425e-04
461 3.7426455465090807e-04 5.2423683266689895e-04 -7.5154729957245840e-04
462 -4.1851402387905573e-04 6.9711460893578134e-04 5.8010710488310704e-04
463 7.6289155623844931e-04 -1.2978206861658187e-04 -6.2949196699758360e-04
464 8.8321741968111814e-04 -2.5685427219444937e-04 -4.0886180221425184e-04
465 8.8080777359936138e-04 -3.7193760344854783e-04 -3.2274867869364185e-04
466 2.0162188450853945e-07 8.1898997987037874e-04 -5.7163825191315187e-04
467 9.4006674896483214e-04 -2.4998982120609720e-04 -2.7192831347992789e-04
468 9.2958601107670231e-04 -3.6095207078619483e-04 -1.7401655998995570e-04
469 1.6225347069843103e-04 3.2782690845654396e-04 -9.0975372042319030e-04
470 8.6053274492501925e-04 -4.7938482653818616e-04 2.2863278934890117e-04
471 9.2649606994220910e-04 -3.5719481442580926e-04 1.9273022130961959e-04
472 1.9725811927653438e-04 7.6680700080220118e-04 6.0747559446671165e-04
473 1.4202975447348315e-04 -2.0695223079770638e-04 -9.4626525815769060e-04
474 2.2904462362550564e-04 -9.0397655964089354e-04 -3.8145934423202554e-04
475 5.6423288591473460e-04 7.7982916138663225e-04 -3.0068107409178389e-04
476 3.2022871535709277e-04 7.1160560872004976e-04 6.2071500569023700e-04
477 2.8215973698023203e-04 7.1554073612473828e-04 -6.3311164667170317e-04
478 -1.8326540151969705e-04 -5.5020340299409684e-04 -7.9919024427550854e-04
479 -1.7212519421078520e-04 -6.6515383485640485e-04 -7.1649112239527001e-04
480 -3.9631663746012621e-04 8.3728756248152786e-04 -3.9099749732083818e-04
481 1.9576254551931650e-04 6.5064264898143879e-04 -7.2197541961278053e-04
482 7.6795999153332574e-04 -6.0798177499159570e-04 2.5339523299194611e-04
483 8.9988209373402246e-04 -4.5444187343026961e-04 9.4911538031035157e-05
484 9.5421824559932598e-04 -3.3317663610345541e-04 5.9230544813615595e-05
485 5.8295033908184490e-04 -2.2915151502592138e-04 -7.6683258541179050e-04
486 3.8730644320570019e-04 1.4776509010235210e-04 -8.8991854433230673e-04
487 1.0017525572150316e-03 1.3437001232788359e-04 -6.1885596826857339e-05
488 9.6783351015621054e-04 2.7353655641328416e-04 -1.2012758984285163e-04
489 9.8483965889308348e-04 2.3198575629838612e-04 8.8349387434086997e-06
490 9.0857119456741887e-04 4.3258462432029470e-04 -1.0855606479502355e-04
491 3.5170445810131902e-04 9.4878315987918869e-04 1.2220920516073002e-05
492 2.9885131551025653e-04 9.5715998560353137e-04 -1.3431303690835915e-04
493 4.4199824762902328e-04 9.0630981338442134e-04 -7.9325321877706702e-05
494 9.2654545786200501e-04 -4.0700860746647994e-04 -3.6429285958643070e-05
495 9.6908291639168152e-04 -2.8814948814253922e-04 -5.4946627877279017e-05
496 -3.9746765025713832e-04 9.2991200296228165e-04 1.7487666261753769e-05
497 1.0005216952416072e-03 1.2902626591567280e-04 8.5082175310764870e-05
498 6.7849073422364588e-04 6.9050667013150011e-04 -2.8463737131007515e-04
499 1.0027539786827543e-03 -1.3084408208879515e-04 -6.4064306922880057e-05
500 9.7869922992828580e-04 -1.1974657609763687e-04 2.2325171578947727e-04
501 9.3730303505683787e-04 -1.2565743493478371e-04 -3.4978195510545839e-04
502 8.6139691003733006e-04 1.2294740606607916e-04 -4.9921838740531156e-04
503 8.6226788979845248e-04 -1.2197084585175814e-04 4.9855646816622534e-04
504 4.1878102586216827e-04 1.0799983713677880e-04 8.8284055759352883e-04
505 4.1955500302871330e-04 3.2147213069832386e-04 8.3224798305520792e-04
506 6.4697179095270620e-04 -3.5696969336344587e-04 6.6721725109591154e-04
507 3.0532844034034470e-04 -9.2227009258730335e-05 9.2702422269444235e-04
508 6.1258322884682873e-05 -1.0932338926086572e-04 9.7030751067499730e-04
509 1.4572407782187700e-04 -2.0211644356106647e-04 9.4695869348053290e-04
510 2.5156752920962655e-04 -1.7515269802594288e-04 9.3023034856858739e-04
511 -1.9863621711401663e-04 6.6930892942989120e-04 -7.0506117087889859e-04
512 2.7518773815756907e-04 9.4102269280245128e-04 2.4166198596033844e-04
513 5.8326120504129607e-04 -8.2747586498412809e-04 -4.0177573360046546e-05
514 2.5667992686559366e-04 -9.7901970732096441e-04 4.3743137683546751e-05
515 2.9954232520471729e-04 -9.5123754308385140e-04 1.7241243961489951e-04
516 -5.4421930180562224e-04 5.6034408752014743e-04 -6.1876136241741802e-04
517 7.8528263909507547e-04 -5.8355302026201147e-04 -2.5317802288306340e-04
518 -1.4397271503330191e-04 -1.0017840800746395e-03 -4.0709752299394302e-05
519 -2.9234788736048689e-04 -9.6933846102981028e-04 -4.7326284043706152e-05
520 -3.3470897454677311e-04 -9.3534887579110892e-04 -1.9142414434841309e-04
521 -7.9299242986603791e-04 5.3540801314029259e-04 -3.1606027369862589e-04
522 -9.9826994669211617e-04 1.0104634899759982e-04 -1.2632488398416737e-04
523 7.9370279051513509e-04 6.1471415288810228e-04 1.2347513948015419e-04
524 -8.0951376831255061e-04 -5.5257643364027326e-04 2.4508863341066265e-04
525 7.7666296330974687e-04 5.2253215456749295e-04 3.7093313321878534e-04
526 4.9180813115190481e-04 -7.7354412757075315e-04 -4.1565548787248489e-04
527 -9.6534736775686139e-04 -2.7725813365170142e-04 -1.2237798581109862e-04
528 -9.4540347980795686e-04 -7.2689212198416778e-05 3.4163615213291887e-04
529 -9.1889994534685964e-04 5.4640861116613459e-05 4.0575393819340839e-04
530 -8.4238901456072321e-04 5.5410502411778372e-05 5.3907590484286131e-04
531 -7.8865616744764060e-04 -6.2327735875787756e-04 -1.1963660261890499e-04
532 -9.8802932215647562e-04 -6.4957148827066253e-05 2.0250327221262883e-04
533 -7.3908294618598379e-04 5.3723306026569057e-04 4.1906935235229225e-04
534 -7.1108124341048525e-04 7.1896661540086137e-04 -1.1515615789449042e-05
535 -2.3826239492897154e-04 -9.3526013559868727e-04 -2.9686636448711975e-04
536 6.3237642629157347e-04 7.7038947777607414e-04 -1.6900117086331650e-04
537 -1.4180857882614673e-04 -8.9567241695398124e-04 4.3490909613775231e-04
538 -4.7458791454757579e-05 1.0053949852650607e-03 -9.4485083720322247e-05
539 -1.7063040018805363e-04 9.5992908320933481e-04 -2.5787974520108663e-04
540 6.2432660539887193e-05 9.8713880472923749e-04 -2.0677361617331918e-04
541 -9.4827381309065450e-04 2.9030044342653357e-04 1.9510389320151321e-04
542 -8.8793146784953559e-04 -4.4097670794637962e-04 1.9854313523363275e-04
543 -8.0266029031933754e-04 -8.7861541639490574e-05 5.8815721834679991e-04
544 -7.4915563802978964e-04 2.3987612585388807e-05 6.5494380249563056e-04
545 -6.5340905086686625e-04 -5.2695680747304706e-04 -5.4550982289453724e-04
546 -7.4207000174902438e-04 -4.2728469974065680e-04 -5.1986059888107356e-04
547 -7.4478874479270377e-04 -3.0143364775953968e-04 -5.9292794735179091e-04
548 -6.3748636144243950e-04 -2.7708471848127543e-04 -7.0888588456060123e-04
549 2.5965179432584318e-04 -8.1439373468538952e-04 5.2360386596920409e-04
550 5.6039558757542342e-04 5.9344554433687859e-04 5.7551836577468811e-04
551 8.7545117807852119e-04 3.7094314277233284e-04 -3.3456587455164876e-04
552 8.8244689367274784e-04 -2.4650135766116830e-04 4.1642550670442288e-04
553 1.6127764356294529e-04 -7.6537200419895233e-04 6.1994142247120639e-04
554 -4.3948732860629876e-04 -6.4185996207572599e-04 6.2540546373738171e-04
555 -3.7593117744340820e-04 -5.5713927104992741e-04 7.2941703662736260e-04
556 -8.3915942668409519e-04 -4.4606029567144037e-04 3.3640123552229384e-04
557 -6.1429741247417383e-04 -7.2521918289424427e-04 -3.3629707405504567e-04
558 -7.1626809505381307e-04 2.4447689984779749e-04 6.4722024816886892e-04
559 -6.7510534945000871e-04 -4.4654823778175594e-04 5.8572050280937158e-04
560 -5.8330066060072671e-04 -5.6333960573262567e-04 5.8517736558560008e-04
561 6.2795379368680182e-04 4.7857471008972075e-04 -6.1086879781307557e-04
562 -3.1596522089545885e-04 -6.7650789991463881e-04 -6.5945676013295094e-04
563 -4.7846252070684719e-04 5.0265572089699148e-04 7.0986110070595681e-04
564 7.1904708853661771e-04 -4.8730497868934689e-04 -5.0228986204499664e-04
565 -7.6158642300714363e-05 -2.8695480935639388e-04 9.3408872669618122e-04
566 -1.0019900442741642e-04 -3.9667728985100909e-04 8.9333453083222060e-04
567 -1.8866617427196002e-04 -3.1583527022032565e-04 9.0997519221855416e-04
568 -1.6396597022158235e-04 -6.4240391708506625e-04 7.3753764173224213e-04
569 4.1213860113652943e-04 -6.5851933517540630e-04 -6.2621670570060990e-04
570 -6.9918913798418280e-04 -9.1740493825260156e-05 6.9926171454296328e-04
571 5.2974913147749430e-04 3.0917871970615807e-04 7.7582924021826999e-04
572 4.8184365176676878e-04 -3.3311663241907799e-04 -7.9619768218074820e-04
573 1.4864961743169834e-04 -3.2606135781438678e-04 9.1363152592703221e-04
574 -7.3258973187663922e-04 1.9974273184762695e-04 -6.4372071353450792e-04
575 1.4726913179426734e-04 -4.5295235658874449e-04 -8.6183100895294415e-04
576 -4.3911190627849431e-04 -4.2154522627566531e-04 7.8049185695708376e-04
577 -2.9225246526425568e-04 3.4147381639312928e-04 -8.7392578375255776e-04
578 -2.4195275408243007e-04 2.3646691555588334e-04 -9.1976989128844428e-04
579 -3.0072321220132203e-04 1.2592601350426173e-04 -9.2384122547573217e-04
580 -4.6481855223066672e-04 1.4925254303531102e-05 -8.6646630850757602e-04
581 4.5012183565471822e-04 -5.5838858828451349e-04 6.9009217105868122e-04
582 4.6926691524610111e-04 -3.0125113605398139e-04 8.1467322009626979e-04
583 -4.2368923104290967e-04 1.3018806417350440e-04 -8.7693624908482604e-04
584 -3.9307612757386761e-04 1.7793375775582368e-04 8.8312700119216772e-04
585 -4.3234763344298386e-04 7.1252592844974665e-05 8.7996536632127976e-04
586 -3.2888561072806817e-04 -4.0832225301885128e-04 -8.3470051751394377e-04
587 3.0268214203249863e-05 9.5916908922493457e-04 3.0914306309720515e-04
588 -3.7360368659824800e-04 -8.7599063623031864e-05 -9.0321243689159758e-04
589 -2.7709542220700123e-04 -5.2073581344722837e-05 -9.3772168098326389e-04
590 -1.7770624946681602e-04 -1.1062044769471017e-04 -9.5573364779435554e-04
591 -1.3756251997810464e-04 4.0878449183771713e-04 8.8305968760090628e-04
592 -5.1918617191470929e-04 8.0565944517532230e-04 -3.1100809890566864e-04
593 -2.3150671843723912e-04 -7.8935928377116138e-06 9.5085759735327984e-04
594 3.5894788121316985e-04 2.1191478225505755e-04 8.8988312829183490e-04
595 -8.1229161038018913e-04 5.7020122978016245e-04 1.9052812237428380e-04
596 4.2935559757705969e-04 -8.9537695760340957e-04 1.9414564110766555e-04
597 1.0392466800546437e-04 4.2180281763339652e-04 8.8176255550469164e-04
598 3.2441381733452055e-04 9.1104625295053616e-04 -2.8603321410957511e-04
599 1.9188624040979778e-04 -6.5463367322343680e-04 7.2125684324286083e-04
600 -5.3511396883215104e-04 -8.1738303037246580e-04 2.5731146033305621e-04
601 -8.5013250920236850e-04 4.1270288352870379e-04 -3.4734317770863086e-04
602 -8.1452755657099286e-04 3.4888896723549070e-04 -4.6946058053747627e-04
603 -7.4579850610286870e-04 -5.3899233029179431e-04 -4.0854581265777751e-04
604 -9.1624846461111817e-04 1.4031158928252339e-04 -3.9021583293482389e-04
605 -4.1569617843076600e-04 -9.2325880518128974e-04 1.8635742301776375e-05
606 -3.2607617715284113e-04 8.4846729765344355e-04 4.2807791901945842e-04
607 5.1794091191809169e-05 1.2193156811250650e-04 9.6822076527965063e-04
608 -4.1619495872172021e-05 7.5862688998299440e-04 6.4406644734943581e-04
609 -7.3330333484114768e-04 -1.6754832099564372e-04 -6.5228570883900090e-04
610 9.6651276686658010e-04 2.6643091339435967e-04 1.4228011095809568e-04
611 4.1218431345229142e-04 -1.0168740972176707e-04 -8.8641701736776632e-04
612 9.2802676430381401e-04 1.3382723722531653e-04 3.6877529287755229e-04
613 -3.7295090413848542e-04 -8.8296845163108749e-04 -3.1603099721274160e-04
614 5.7454141004094017e-05 -7.8346659179096966e-04 -6.1621062006310629e-04
615 4.6495381343799816e-04 -8.9828629558522284e-04 -5.5599076652104607e-05
616 -6.9563844721665829e-04 -7.0442912739084680e-04 -2.0851852280993582e-04
617 -9.4272436035854740e-04 -2.5125488440356418e-04 -2.5985894973884737e-04
618 -6.1304034975249880e-04 4.4579342456231845e-04 -6.4481663593177804e-04
619 1.9110004135546537e-04 -9.6522250440981042e-04 -2.3527020701643989e-04
620 -3.5358303260223597e-05 -9.4751423984874242e-04 3.4372091450375164e-04
621 3.9156806353179947e-04 -7.6292491708576638e-04 -5.1944935567060089e-04
622 -2.2213289470495346e-04 -4.3717506803933208e-04 8.5382553350946133e-04
623 8.0628664660892463e-04 -4.8316036521643690e-04 -3.6401537241053620e-04
624 9.3487657825947141e-04 1.3148451473545783e-04 -3.5331419033922173e-04
625 -3.9275930725057672e-04 6.0370217727777917e-04 6.8458172185346087e-04
626 -2.5491487993946555e-04 -5.5856906287817085e-04 7.7564316157978147e-04
627 -8.7876747174452717e-05 5.1960155522015410e-04 8.3291099782543086e-04
628 4.9086831050847710e-04 8.8329835475993857e-04 5.2447623627748408e-05
629 -9.6739164945403348e-04 5.7960411424792693e-05 2.8102436241343222e-04
630 -5.9284526283303848e-04 7.9915039935820502e-04 1.7563510251112466e-04
631 -8.2964049172806070e-04 -1.9168912610308553e-04 -5.2692035444677342e-04
632 -4.0846608526368095e-04 8.8787034467237671e-04 -2.5055332703768311e-04
633 9.3793225455705463e-04 2.5808684937822534e-04 -2.7075861768261178e-04
634 -3.1486645032219768e-04 8.3683262200433245e-05 9.2459825990303627e-04
635 3.8740477600752472e-04 -9.3397221103032357e-04 6.1836181757532618e-05
636 -6.7235532079147170e-05 -9.8561446807495174e-04 2.1588731659188715e-04
637 -4.6264783951458426e-04 -5.3526000848995694e-05 8.6663217759168820e-04
638 4.2181533710683916e-04 2.5752547609777648e-04 -8.5045077122511089e-04
639 4.2191068643067365e-04 -1.0771534228620885e-04 8.8145529582488527e-04
640 -6.8032743283113432e-05 6.5422802031420428e-04 -7.4024449500824786e-04
641 -9.6750446277525486e-04 2.3121037130041647e-04 -1.7742822695657919e-04
642 -8.8629409706314120e-04 2.7784260808374448e-04 -3.8570754604881369e-04
643 2.8243632469498916e-04 -7.1741335521775904e-04 6.3254453041025453e-04
644 5.5309781659413227e-04 -4.6876855012609707e-04 6.8101051989450181e-04
645 5.8825995528084124e-04 2.2715125795405108e-04 -7.6279953001987520e-04
646 -1.8899972951454919e-04 9.9393074961899591e-05 9.5489955212890232e-04
647 2.3601944584861331e-05 5.3320433800536308e-04 8.2901870067249674e-04
648 -7.5327050021743020e-04 5.9659414741994820e-04 3.0271791551206615e-04
649 -2.7603473687382415e-04 9.7061919688392923e-04 6.7458673101126028e-05
650 9.4036931271323197e-04 -2.4114581788694684e-04 2.7862341759676997e-04
651 -4.7840060933572372e-04 -8.6861228550490037e-04 -2.0176935444382263e-04
652 -8.8449498343443924e-04 -3.4648365774551948e-04 -3.3616721855298133e-04
653 -1.8843245762221929e-04 1.4475248575646391e-04 -9.4897937766394978e-04
654 8.6159718324022830e-04 -4.7642848968053032e-04 -2.2901107123675293e-04
655 -7.2520891679662015e-04 4.0669144457546838e-04 -5.5414157397885150e-04
656 6.6264633396670599e-04 -1.1995920668488771e-04 -7.2870723678858319e-04
657 -7.5391231899250085e-04 -5.4677330639343272e-04 3.8237755902562997e-04
658 -3.4344305262706224e-04 2.5980587363109514e-05 -9.1763922745826450e-04
659 -1.5457063838050184e-04 8.1496256575943716e-06 -9.6571581251347547e-04
660 -3.5636727811007177e-05 8.7338375973417414e-06 -9.7558708381047688e-04
661 8.6681042598616407e-04 -5.2364540861512545e-04 -4.4919038394861031e-06
662 3.1310665323165149e-05 -2.4718778619801522e-04 9.4720937847510343e-04
663 5.1715481055560812e-04 8.4749477480643154e-04 -1.8694035614524911e-04
664 -2.9049356699479607e-04 9.6720087438524486e-04 -5.2238964350464579e-05
665 -2.9169512671461316e-04 9.4891306356694783e-04 -1.8553272001085782e-04
666 -7.7139884840537722e-05 1.1745086074671228e-04 -9.6748982716782120e-04
667 2.5781763962806284e-04 -8.3007623085103589e-04 -5.0100394146688414e-04
668 -5.5331430023774998e-04 4.7181943481169562e-05 8.1557493327207877e-04
669 -8.2889255748906871e-04 -3.2322586496437010e-04 -4.6455400611518166e-04
670 -4.9831966700669141e-04 8.7419253158568398e-04 9.9546110157128630e-05
671 -9.7275109187542231e-04 1.6484896291199490e-04 2.1291353060365009e-04
672 5.5377789944399864e-04 -3.5365328380822524e-04 7.4133369352442512e-04
673 -2.0724081231785970e-05 2.3949609406382727e-04 -9.4811939652076824e-04
674 -1.9735061841963204e-04 -9.7733066692051013e-04 1.7130868661437772e-04
675 4.1408206617869883e-04 7.4109217827219849e-04 5.2930467508484791e-04
676 7.9061410751977035e-05 7.1717091213564636e-04 6.8391193692882038e-04
677 4.7876512442971374e-04 2.0659265519364919e-04 8.3631991004599643e-04
678 -4.9255946732053042e-04 -7.8582781041562990e-04 3.9109090781429972e-04
679 2.9846643880605632e-04 -8.3333728634164340e-05 -9.2968564041512195e-04
680 3.8640411407848605e-04 -6.6315067634049895e-04 6.3544565276246387e-04
681 -8.7934174021749348e-04 1.6769596148514626e-04 4.5314643840517173e-04
682 -9.1540708065152238e-04 4.2923536620662219e-04 1.4665034473657360e-05
683 -4.7789644464176048e-05 -8.7779627157031170e-06 9.7558324707536952e-04
684 3.3980591124684170e-04 -9.5186630341607015e-04 -6.4279340696799696e-05
685 4.0066364902447354e-04 9.0495264391091178e-04 -1.9741438247071548e-04
686 1.7502211108322808e-04 -7.9470739030995923e-04 -5.7940032296434287e-04
687 1.6838899621848797e-04 9.8687602108389464e-04 -1.3407786880754923e-04
688 -8.1193518008799276e-04 -4.2856457022215084e-04 -4.0854642412043525e-04
689 -5.3914237524970018e-04 -6.5444159353805970e-04 5.3120989963654369e-04
690 5.6987632135481014e-04 -6.9651297152121866e-04 4.4637832180677978e-04
691 9.7338491171465548e-04 -2.3606569881497508e-04 1.4343620302317186e-04
692 -6.8862421612904726e-04 -5.3423267268002067e-04 4.9456347576819096e-04
693 9.4343596570787603e-04 2.2892959825809381e-04 2.7405990444275702e-04
694 -1.7771524392808598e-04 9.8600059059863153e-04 -1.3082193433041053e-04
695 9.1460831062911089e-04 3.6871365064521658e-04 -2.1694511902836075e-04
696 -4.5649032545137988e-05 6.4725255443271140e-04 7.4939433519076611e-04
697 -3.2784761721912377e-04 -4.6545591274244926e-04 8.0580203127774482e-04
698 9.4250389595916040e-04 3.7036166876131460e-04 1.5711306843867822e-05
699 -4.8694559393211439e-04 -5.3231964352885126e-04 6.8341368674113706e-04
700 -6.5257835256845090e-04 1.0635498401179296e-05 7.4407514033117796e-04
701 5.6276767417497413e-04 -5.5691556746295093e-04 6.0736715419994289e-04
702 -7.0120816919653584e-04 -6.4221327960114181e-04 -3.3305002635641818e-04
703 -7.6391324836834712e-04 2.9370014805467966e-04 -5.7070402085086206e-04
704 3.9834897987361023e-05 3.3613334337856334e-04 -9.1933087756696050e-04
705 3.0429290997381793e-04 6.1207522301061248e-04 -7.1733395144584259e-04
706 -3.1392813884949759e-04 6.8017725534282015e-04 6.5402041374018009e-04
707 1.1472330060165242e-04 -9.3844594227511871e-04 -3.4842978898413929e-04
708 -6.7836796252749448e-04 7.4117572884124393e-04 1.0455822714793864e-04
709 7.2032278644540708e-06 7.3258915923048358e-04 -6.7048204405001084e-04
710 -4.0733692397902681e-04 7.7506806552076119e-04 4.8688883365067078e-04
711 -9.3632225714783575e-04 2.1898287386971959e-04 -2.9947190575845255e-04
712 7.6823768541246741e-04 1.0293435193034893e-04 6.2662238129523114e-04
713 -2.0776971928293517e-04 -7.4945809382567265e-04 -6.2324959482291107e-04
714 6.2640220015472675e-04 3.4988127119098516e-04 -6.8778401982995743e-04
715 -2.1480248356039382e-04 -9.8768875067495017e-04 4.8357889417329294e-05
716 -2.6178523866991917e-04 5.2954035102553353e-05 -9.4106904771422851e-04
717 -4.0958547607326557e-04 -9.1961053440834750e-04 -1.0015223184606043e-04
718 4.8901407561113960e-04 -1.9990106064299724e-04 8.3190074336688324e-04
719 7.3063098609511259e-04 -5.7310635090664704e-04 3.8819904514691077e-04
720 8.5361103118363076e-04 5.1802287965008187e-04 1.5443718277047746e-04
721 2.4367908877320893e-04 -1.6503029352189823e-04 -9.3375632778661957e-04
722 -5.8093472294789357e-04 -7.9032619866921264e-04 -2.3968592491548234e-04
723 4.2047623096314690e-05 6.5695882270909597e-05 -9.7352857587800379e-04
724 -1.7697604600360389e-04 7.0799577661124233e-04 6.7627346158331630e-04
725 8.9003511011938026e-04 -4.6690856389875249e-04 -1.1371962322930523e-04
726 5.8417037906466254e-04 1.9704081053806703e-04 7.7278357937562850e-04
727 7.9128802137541231e-04 5.7613559690028048e-04 2.4665176931880898e-04
728 5.4220960687537719e-04 5.8336685303381403e-04 -5.9989466621016918e-04
729 4.6832360250193374e-04 9.4498196242804385e-05 -8.5931537897169488e-04
730 7.1691280830087111e-04 6.2227190686602995e-04 3.3558794621991984e-04
731 -2.3967215027953815e-04 -6.0909112927858076e-04 -7.4192892035514191e-04
732 3.3636038884771278e-04 6.0942868804098082e-04 7.0693193315499192e-04
733 -7.3095152218878294e-05 9.8638541842359308e-04 -1.9873026869281991e-04
734 -2.3408935926781432e-04 -4.6926584208478327e-04 -8.3381365761728374e-04
735 9.7072304344064263e-04 -2.3549353068480242e-04 -1.5626426483049567e-04
736 9.8810076432292266e-04 -2.1538761501780937e-04 3.0133022607386640e-05
737 -2.9564556026453812e-05 -6.4475190096242968e-05 9.7438802023954091e-04
738 -5.1012203983030171e-04 -8.7165128923113360e-04 5.9775387885841816e-05
739 4.8118937596212502e-04 1.9842408369130838e-04 -8.3628348533406368e-04
740 -7.5913734803440816e-04 1.3512894451416153e-04 6.3021605431541768e-04
741 -1.4145460253811300e-04 2.2671598322283730e-05 9.6654436500363816e-04
742 -5.6016837378621888e-04 -7.0625483791914652e-04 4.4171725642047914e-04
743 -1.4016746936871891e-05 4.2839982611844870e-04 -8.8287056034202528e-04
744 2.9869650350368226e-04 -9.5032285431674471e-04 -1.7252004360263369e-04
745 -7.8099633932775426e-05 -6.7663303285312598e-04 -7.1963671086150210e-04
$EndNodes
$Elements
1486
1 2 2 0 0 410 440 345
2 2 2 0 0 421 541 409
3 2 2 0 0 409 682 421
4 2 2 0 0 545 603 546
5 2 2 0 0 426 427 294
6 2 2 0 0 294 454 426
7 2 2 0 0 265 682 409
8 2 2 0 0 24 41 4
9 2 2 0 0 3 24 4
10 2 2 0 0 238 642 602
11 2 2 0 0 520 651 613
12 2 2 0 0 653 666 659
13 2 2 0 0 404 460 98
14 2 2 0 0 222 482 219
15 2 2 0 0 40 463 9
16 2 2 0 0 608 724 696
17 2 2 0 0 435 709 69
18 2 2 0 0 413 439 29
19 2 2 0 0 345 710 410
20 2 2 0 0 422 463 40
21 2 2 0 0 98 550 404
22 2 2 0 0 95 724 608
23 2 2 0 0 4 41 5
24 2 2 0 0 232 701 581
25 2 2 0 0 490 698 488
26 2 2 0 0 29 436 413
27 2 2 0 0 416 421 342
28 2 2 0 0 312 595 441
29 2 2 0 0 41 486 5
30 2 2 0 0 405 605 519
31 2 2 0 0 409 595 265
32 2 2 0 0 69 481 435
33 2 2 0 0 434 743 339
34 2 2 0 0 342 641 416
35 2 2 0 0 485 656 370
36 2 2 0 0 89 587 90
37 2 2 0 0 108 466 317
38 2 2 0 0 378 629 529
39 2 2 0 0 581 680 232
40 2 2 0 0 281 434 339
41 2 2 0 0 638 739 486
42 2 2 0 0 659 666 660
43 2 2 0 0 345 440 346
44 2 2 0 0 22 44 25
45 2 2 0 0 9 463 8
46 2 2 0 0 44 81 25
47 2 2 0 0 459 587 89
48 2 2 0 0 127 670 630
49 2 2 0 0 508 662 509
50 2 2 0 0 375 662 508
51 2 2 0 0 492 598 103
52 2 2 0 0 604 642 238
53 2 2 0 0 507 510 399
54 2 2 0 0 488 698 489
55 2 2 0 0 34 473 415
56 2 2 0 0 399 639 507
57 2 2 0 0 603 688 546
58 2 2 0 0 316 541 421
59 2 2 0 0 647 696 627
60 2 2 0 0 403 439 352
61 2 2 0 0 221 603 545
62 2 2 0 0 595 648 441
63 2 2 0 0 412 550 98
64 2 2 0 0 411 714 397
65 2 2 0 0 486 739 729
66 2 2 0 0 696 724 401
67 2 2 0 0 247 482 222
68 2 2 0 0 397 714 645
69 2 2 0 0 613 651 212
70 2 2 0 0 207 745 425
71 2 2 0 0 98 675 412
72 2 2 0 0 219 482 230
73 2 2 0 0 560 692 432
74 2 2 0 0 432 689 560
75 2 2 0 0 454 575 426
76 2 2 0 0 352 439 413
77 2 2 0 0 415 420 2
78 2 2 0 0 40 464 422
79 2 2 0 0 89 512 459
80 2 2 0 0 425 614 207
81 2 2 0 0 377 600 453
82 2 2 0 0 89 90 88
83 2 2 0 0 80 466 108
84 2 2 0 0 520 717 651
85 2 2 0 0 602 703 238
86 2 2 0 0 103 687 492
87 2 2 0 0 253 491 424
88 2 2 0 0 69 709 466
89 2 2 0 0 424 512 253
90 2 2 0 0 369 696 647
91 2 2 0 0 581 701 644
92 2 2 0 0 630 670 392
93 2 2 0 0 32 656 485
94 2 2 0 0 459 512 424
95 2 2 0 0 90 91 88
96 2 2 0 0 427 478 294
97 2 2 0 0 488 695 490
98 2 2 0 0 554 699 560
99 2 2 0 0 67 80 79
100 2 2 0 0 252 454 294
101 2 2 0 0 253 628 491
102 2 2 0 0 529 681 378
103 2 2 0 0 519 715 405
104 2 2 0 0 440 441 346
105 2 2 0 0 605 717 519
106 2 2 0 0 403 452 439
107 2 2 0 0 507 639 21
108 2 2 0 0 565 567 566
109 2 2 0 0 433 454 341
110 2 2 0 0 67 466 80
111 2 2 0 0 555 697 576
112 2 2 0 0 491 628 493
113 2 2 0 0 389 641 342
114 2 2 0 0 429 619 474
115 2 2 0 0 40 501 464
116 2 2 0 0 576 699 555
117 2 2 0 0 311 600 377
118 2 2 0 0 567 622 566
119 2 2 0 0 433 575 454
120 2 2 0 0 378 671 629
121 2 2 0 0 79 540 103
122 2 2 0 0 341 473 433
123 2 2 0 0 673 704 68
124 2 2 0 0 462 710 345
125 2 2 0 0 557 722 616
126 2 2 0 0 573 662 343
127 2 2 0 0 370 656 463
128 2 2 0 0 341 454 252
129 2 2 0 0 616 702 557
130 2 2 0 0 6 26 7
131 2 2 0 0 464 501 467
132 2 2 0 0 433 473 406
133 2 2 0 0 8 45 37
134 2 2 0 0 466 709 317
135 2 2 0 0 457 461 379
136 2 2 0 0 84 512 86
137 2 2 0 0 19 452 33
138 2 2 0 0 380 614 425
139 2 2 0 0 83 540 79
140 2 2 0 0 398 510 509
141 2 2 0 0 609 631 137
142 2 2 0 0 18 442 36
143 2 2 0 0 26 45 7
144 2 2 0 0 565 566 343
145 2 2 0 0 80 83 79
146 2 2 0 0 560 689 554
147 2 2 0 0 134 137 136
148 2 2 0 0 68 469 42
149 2 2 0 0 659 716 653
150 2 2 0 0 619 707 474
151 2 2 0 0 497 610 39
152 2 2 0 0 137 138 136
153 2 2 0 0 283 573 343
154 2 2 0 0 506 644 448
155 2 2 0 0 499 735 31
156 2 2 0 0 81 97 25
157 2 2 0 0 45 46 37
158 2 2 0 0 585 668 637
159 2 2 0 0 495 735 499
160 2 2 0 0 399 510 398
161 2 2 0 0 509 573 398
162 2 2 0 0 442 443 36
163 2 2 0 0 1 607 314
164 2 2 0 0 29 612 436
165 2 2 0 0 547 631 609
166 2 2 0 0 360 595 409
167 2 2 0 0 421 682 342
168 2 2 0 0 426 575 327
169 2 2 0 0 123 577 235
170 2 2 0 0 339 743 417
171 2 2 0 0 7 45 8
172 2 2 0 0 3 723 24
173 2 2 0 0 418 666 653
174 2 2 0 0 59 60 58
175 2 2 0 0 620 636 193
176 2 2 0 0 42 469 47
177 2 2 0 0 65 67 66
178 2 2 0 0 509 662 573
179 2 2 0 0 470 482 247
180 2 2 0 0 368 476 472
181 2 2 0 0 530 740 337
182 2 2 0 0 253 512 84
183 2 2 0 0 455 698 282
184 2 2 0 0 61 65 62
185 2 2 0 0 59 61 60
186 2 2 0 0 91 472 88
187 2 2 0 0 90 92 91
188 2 2 0 0 19 442 18
189 2 2 0 0 464 465 423
190 2 2 0 0 706 724 118
191 2 2 0 0 456 611 32
192 2 2 0 0 379 477 61
193 2 2 0 0 417 743 704
194 2 2 0 0 314 683 1
195 2 2 0 0 442 458 443
196 2 2 0 0 11 28 12
197 2 2 0 0 61 62 60
198 2 2 0 0 118 724 95
199 2 2 0 0 22 25 23
200 2 2 0 0 247 483 470
201 2 2 0 0 281 640 434
202 2 2 0 0 197 667 474
203 2 2 0 0 86 512 89
204 2 2 0 0 417 704 673
205 2 2 0 0 451 690 230
206 2 2 0 0 27 442 19
207 2 2 0 0 637 668 229
208 2 2 0 0 60 475 58
209 2 2 0 0 489 610 497
210 2 2 0 0 307 573 283
211 2 2 0 0 61 477 65
212 2 2 0 0 65 66 62
213 2 2 0 0 544 740 530
214 2 2 0 0 230 719 451
215 2 2 0 0 18 452 19
216 2 2 0 0 268 569 269
217 2 2 0 0 32 485 456
218 2 2 0 0 627 696 401
219 2 2 0 0 24 42 41
220 2 2 0 0 20 27 19
221 2 2 0 0 330 461 457
222 2 2 0 0 506 672 644
223 2 2 0 0 472 476 87
224 2 2 0 0 468 495 494
225 2 2 0 0 88 472 87
226 2 2 0 0 121 577 123
227 2 2 0 0 327 575 276
228 2 2 0 0 422 464 423
229 2 2 0 0 47 63 49
230 2 2 0 0 458 506 443
231 2 2 0 0 232 690 451
232 2 2 0 0 28 487 12
233 2 2 0 0 80 107 83
234 2 2 0 0 608 696 676
235 2 2 0 0 356 481 355
236 2 2 0 0 138 238 136
237 2 2 0 0 137 139 138
238 2 2 0 0 729 739 26
239 2 2 0 0 81 99 97
240 2 2 0 0 46 50 37
241 2 2 0 0 463 656 8
242 2 2 0 0 443 444 36
243 2 2 0 0 68 704 469
244 2 2 0 0 24 68 42
245 2 2 0 0 16 503 30
246 2 2 0 0 65 69 67
247 2 2 0 0 67 79 66
248 2 2 0 0 676 696 369
249 2 2 0 0 59 379 61
250 2 2 0 0 90 93 92
251 2 2 0 0 464 467 465
252 2 2 0 0 441 708 312
253 2 2 0 0 483 484 471
254 2 2 0 0 427 479 478
255 2 2 0 0 245 564 244
256 2 2 0 0 470 483 471
257 2 2 0 0 473 721 406
258 2 2 0 0 555 699 554
259 2 2 0 0 47 469 63
260 2 2 0 0 63 355 49
261 2 2 0 0 62 64 60
262 2 2 0 0 80 108 107
263 2 2 0 0 107 539 83
264 2 2 0 0 139 140 138
265 2 2 0 0 99 100 97
266 2 2 0 0 81 236 99
267 2 2 0 0 46 51 50
268 2 2 0 0 443 445 444
269 2 2 0 0 24 419 68
270 2 2 0 0 69 466 67
271 2 2 0 0 79 103 66
272 2 2 0 0 65 477 69
273 2 2 0 0 547 548 321
274 2 2 0 0 93 94 92
275 2 2 0 0 467 468 465
276 2 2 0 0 333 664 649
277 2 2 0 0 55 498 56
278 2 2 0 0 56 498 72
279 2 2 0 0 12 499 31
280 2 2 0 0 63 356 355
281 2 2 0 0 108 110 107
282 2 2 0 0 139 141 140
283 2 2 0 0 100 101 97
284 2 2 0 0 236 248 99
285 2 2 0 0 81 594 236
286 2 2 0 0 51 52 50
287 2 2 0 0 192 515 195
288 2 2 0 0 445 446 444
289 2 2 0 0 477 481 69
290 2 2 0 0 94 95 92
291 2 2 0 0 93 96 94
292 2 2 0 0 63 408 356
293 2 2 0 0 108 111 110
294 2 2 0 0 110 117 107
295 2 2 0 0 139 154 141
296 2 2 0 0 141 142 140
297 2 2 0 0 51 53 52
298 2 2 0 0 100 102 101
299 2 2 0 0 236 250 248
300 2 2 0 0 445 447 446
301 2 2 0 0 52 388 50
302 2 2 0 0 277 622 567
303 2 2 0 0 95 608 92
304 2 2 0 0 94 118 95
305 2 2 0 0 93 104 96
306 2 2 0 0 51 561 53
307 2 2 0 0 408 434 356
308 2 2 0 0 53 54 52
309 2 2 0 0 445 448 447
310 2 2 0 0 108 317 111
311 2 2 0 0 141 143 142
312 2 2 0 0 142 225 140
313 2 2 0 0 102 166 101
314 2 2 0 0 250 325 248
315 2 2 0 0 100 258 102
316 2 2 0 0 53 55 54
317 2 2 0 0 447 449 446
318 2 2 0 0 236 505 250
319 2 2 0 0 104 105 96
320 2 2 0 0 53 57 55
321 2 2 0 0 55 56 54
322 2 2 0 0 448 451 447
323 2 2 0 0 14 39 15
324 2 2 0 0 317 511 111
325 2 2 0 0 10 40 9
326 2 2 0 0 143 144 142
327 2 2 0 0 57 58 55
328 2 2 0 0 8 37 9
329 2 2 0 0 14 38 13
330 2 2 0 0 166 314 101
331 2 2 0 0 18 36 17
332 2 2 0 0 16 29 17
333 2 2 0 0 33 504 20
334 2 2 0 0 325 365 248
335 2 2 0 0 199 202 196
336 2 2 0 0 7 32 6
337 2 2 0 0 434 435 356
338 2 2 0 0 74 75 73
339 2 2 0 0 223 239 234
340 2 2 0 0 74 76 75
341 2 2 0 0 72 74 73
342 2 2 0 0 231 549 201
343 2 2 0 0 202 205 204
344 2 2 0 0 226 227 214
345 2 2 0 0 272 275 271
346 2 2 0 0 276 318 275
347 2 2 0 0 213 214 209
348 2 2 0 0 76 77 75
349 2 2 0 0 210 231 201
350 2 2 0 0 16 30 15
351 2 2 0 0 205 209 208
352 2 2 0 0 202 204 196
353 2 2 0 0 318 406 340
354 2 2 0 0 195 196 193
355 2 2 0 0 322 420 415
356 2 2 0 0 239 240 234
357 2 2 0 0 163 588 168
358 2 2 0 0 12 31 11
359 2 2 0 0 56 72 71
360 2 2 0 0 425 426 327
361 2 2 0 0 19 33 20
362 2 2 0 0 168 224 215
363 2 2 0 0 209 568 216
364 2 2 0 0 318 433 406
365 2 2 0 0 269 271 270
366 2 2 0 0 268 269 245
367 2 2 0 0 21 639 20
368 2 2 0 0 84 85 82
369 2 2 0 0 181 207 183
370 2 2 0 0 269 272 271
371 2 2 0 0 272 276 275
372 2 2 0 0 242 243 240
373 2 2 0 0 102 167 166
374 2 2 0 0 223 234 233
375 2 2 0 0 283 343 227
376 2 2 0 0 205 208 204
377 2 2 0 0 213 226 214
378 2 2 0 0 271 572 347
379 2 2 0 0 243 268 245
380 2 2 0 0 335 398 307
381 2 2 0 0 303 555 554
382 2 2 0 0 226 283 227
383 2 2 0 0 347 485 370
384 2 2 0 0 195 199 196
385 2 2 0 0 205 213 209
386 2 2 0 0 246 322 252
387 2 2 0 0 76 78 77
388 2 2 0 0 133 163 135
389 2 2 0 0 163 168 164
390 2 2 0 0 322 415 341
391 2 2 0 0 227 361 214
392 2 2 0 0 191 198 189
393 2 2 0 0 78 84 82
394 2 2 0 0 209 216 208
395 2 2 0 0 78 82 77
396 2 2 0 0 216 303 266
397 2 2 0 0 417 418 362
398 2 2 0 0 314 607 101
399 2 2 0 0 339 362 280
400 2 2 0 0 243 245 244
401 2 2 0 0 187 291 185
402 2 2 0 0 429 430 359
403 2 2 0 0 143 145 144
404 2 2 0 0 202 553 205
405 2 2 0 0 339 417 362
406 2 2 0 0 131 580 133
407 2 2 0 0 239 242 240
408 2 2 0 0 57 59 58
409 2 2 0 0 224 246 215
410 2 2 0 0 84 86 85
411 2 2 0 0 303 554 266
412 2 2 0 0 72 73 71
413 2 2 0 0 437 438 414
414 2 2 0 0 318 340 275
415 2 2 0 0 269 270 245
416 2 2 0 0 86 87 85
417 2 2 0 0 192 193 191
418 2 2 0 0 123 235 129
419 2 2 0 0 263 374 262
420 2 2 0 0 425 427 426
421 2 2 0 0 149 150 147
422 2 2 0 0 210 232 231
423 2 2 0 0 74 373 76
424 2 2 0 0 168 215 169
425 2 2 0 0 259 262 249
426 2 2 0 0 145 146 144
427 2 2 0 0 367 524 289
428 2 2 0 0 271 347 270
429 2 2 0 0 406 407 340
430 2 2 0 0 334 459 424
431 2 2 0 0 429 474 430
432 2 2 0 0 250 328 325
433 2 2 0 0 431 432 367
434 2 2 0 0 104 278 105
435 2 2 0 0 145 147 146
436 2 2 0 0 151 152 150
437 2 2 0 0 235 583 129
438 2 2 0 0 237 249 228
439 2 2 0 0 149 151 150
440 2 2 0 0 159 161 158
441 2 2 0 0 153 155 152
442 2 2 0 0 156 158 155
443 2 2 0 0 354 367 289
444 2 2 0 0 259 263 262
445 2 2 0 0 190 191 189
446 2 2 0 0 177 221 174
447 2 2 0 0 162 228 161
448 2 2 0 0 124 516 386
449 2 2 0 0 418 653 578
450 2 2 0 0 371 584 295
451 2 2 0 0 151 153 152
452 2 2 0 0 153 156 155
453 2 2 0 0 159 162 161
454 2 2 0 0 374 593 262
455 2 2 0 0 156 159 158
456 2 2 0 0 237 259 249
457 2 2 0 0 146 284 160
458 2 2 0 0 266 309 267
459 2 2 0 0 264 265 257
460 2 2 0 0 86 88 87
461 2 2 0 0 265 312 257
462 2 2 0 0 162 237 228
463 2 2 0 0 21 44 22
464 2 2 0 0 324 392 390
465 2 2 0 0 371 585 584
466 2 2 0 0 262 366 249
467 2 2 0 0 192 195 193
468 2 2 0 0 263 375 374
469 2 2 0 0 216 266 217
470 2 2 0 0 326 327 276
471 2 2 0 0 260 646 166
472 2 2 0 0 220 223 222
473 2 2 0 0 322 341 252
474 2 2 0 0 256 257 255
475 2 2 0 0 78 253 84
476 2 2 0 0 358 359 242
477 2 2 0 0 188 189 187
478 2 2 0 0 281 339 280
479 2 2 0 0 146 160 144
480 2 2 0 0 123 129 128
481 2 2 0 0 255 324 254
482 2 2 0 0 228 229 161
483 2 2 0 0 354 431 367
484 2 2 0 0 163 164 135
485 2 2 0 0 155 157 152
486 2 2 0 0 243 244 240
487 2 2 0 0 256 264 257
488 2 2 0 0 284 316 160
489 2 2 0 0 380 425 327
490 2 2 0 0 148 149 147
491 2 2 0 0 335 399 398
492 2 2 0 0 418 578 362
493 2 2 0 0 334 424 396
494 2 2 0 0 167 260 166
495 2 2 0 0 325 368 365
496 2 2 0 0 428 429 359
497 2 2 0 0 165 255 254
498 2 2 0 0 297 342 264
499 2 2 0 0 298 371 295
500 2 2 0 0 218 323 220
501 2 2 0 0 310 337 302
502 2 2 0 0 165 256 255
503 2 2 0 0 186 187 185
504 2 2 0 0 56 71 70
505 2 2 0 0 165 254 125
506 2 2 0 0 200 201 199
507 2 2 0 0 148 206 149
508 2 2 0 0 324 390 364
509 2 2 0 0 190 192 191
510 2 2 0 0 368 369 365
511 2 2 0 0 353 404 351
512 2 2 0 0 104 331 278
513 2 2 0 0 256 297 264
514 2 2 0 0 316 421 416
515 2 2 0 0 239 358 242
516 2 2 0 0 169 586 171
517 2 2 0 0 286 287 206
518 2 2 0 0 324 364 254
519 2 2 0 0 241 576 162
520 2 2 0 0 168 169 164
521 2 2 0 0 121 123 122
522 2 2 0 0 266 267 217
523 2 2 0 0 129 131 130
524 2 2 0 0 216 217 208
525 2 2 0 0 285 382 313
526 2 2 0 0 172 321 170
527 2 2 0 0 390 391 364
528 2 2 0 0 296 563 300
529 2 2 0 0 246 252 251
530 2 2 0 0 285 286 206
531 2 2 0 0 288 289 287
532 2 2 0 0 298 372 371
533 2 2 0 0 23 35 22
534 2 2 0 0 300 344 304
535 2 2 0 0 344 462 345
536 2 2 0 0 123 128 122
537 2 2 0 0 297 389 342
538 2 2 0 0 237 277 259
539 2 2 0 0 148 285 206
540 2 2 0 0 86 89 88
541 2 2 0 0 306 307 283
542 2 2 0 0 234 279 233
543 2 2 0 0 316 416 160
544 2 2 0 0 188 190 189
545 2 2 0 0 85 98 82
546 2 2 0 0 358 428 359
547 2 2 0 0 437 455 438
548 2 2 0 0 203 210 201
549 2 2 0 0 382 383 313
550 2 2 0 0 153 176 156
551 2 2 0 0 290 354 289
552 2 2 0 0 159 241 162
553 2 2 0 0 386 387 126
554 2 2 0 0 273 363 338
555 2 2 0 0 272 326 276
556 2 2 0 0 171 293 173
557 2 2 0 0 145 148 147
558 2 2 0 0 274 295 261
559 2 2 0 0 285 313 286
560 2 2 0 0 383 384 313
561 2 2 0 0 301 302 299
562 2 2 0 0 131 133 132
563 2 2 0 0 296 298 295
564 2 2 0 0 305 310 302
565 2 2 0 0 349 412 328
566 2 2 0 0 344 345 304
567 2 2 0 0 77 119 75
568 2 2 0 0 315 378 310
569 2 2 0 0 363 401 400
570 2 2 0 0 332 333 278
571 2 2 0 0 223 233 222
572 2 2 0 0 331 334 332
573 2 2 0 0 186 188 187
574 2 2 0 0 178 212 177
575 2 2 0 0 305 360 315
576 2 2 0 0 334 396 395
577 2 2 0 0 246 251 215
578 2 2 0 0 167 261 260
579 2 2 0 0 175 179 178
580 2 2 0 0 345 346 304
581 2 2 0 0 124 386 126
582 2 2 0 0 286 288 287
583 2 2 0 0 331 332 278
584 2 2 0 0 179 181 180
585 2 2 0 0 301 305 302
586 2 2 0 0 300 304 301
587 2 2 0 0 296 300 299
588 2 2 0 0 305 315 310
589 2 2 0 0 296 299 298
590 2 2 0 0 320 453 290
591 2 2 0 0 274 296 295
592 2 2 0 0 313 531 286
593 2 2 0 0 120 281 280
594 2 2 0 0 360 409 315
595 2 2 0 0 363 400 338
596 2 2 0 0 129 130 128
597 2 2 0 0 300 301 299
598 2 2 0 0 1 508 23
599 2 2 0 0 167 273 261
600 2 2 0 0 133 135 134
601 2 2 0 0 173 174 172
602 2 2 0 0 311 377 376
603 2 2 0 0 273 274 261
604 2 2 0 0 273 338 274
605 2 2 0 0 334 395 332
606 2 2 0 0 183 197 184
607 2 2 0 0 319 393 320
608 2 2 0 0 449 450 446
609 2 2 0 0 288 290 289
610 2 2 0 0 226 306 283
611 2 2 0 0 326 380 327
612 2 2 0 0 175 177 174
613 2 2 0 0 181 183 182
614 2 2 0 0 219 230 211
615 2 2 0 0 308 335 307
616 2 2 0 0 267 311 292
617 2 2 0 0 169 170 164
618 2 2 0 0 288 319 290
619 2 2 0 0 126 165 125
620 2 2 0 0 120 280 121
621 2 2 0 0 130 357 128
622 2 2 0 0 195 200 199
623 2 2 0 0 169 171 170
624 2 2 0 0 171 172 170
625 2 2 0 0 184 186 185
626 2 2 0 0 73 282 71
627 2 2 0 0 252 294 251
628 2 2 0 0 319 320 290
629 2 2 0 0 131 132 130
630 2 2 0 0 393 394 320
631 2 2 0 0 171 173 172
632 2 2 0 0 4 34 3
633 2 2 0 0 218 220 219
634 2 2 0 0 267 292 217
635 2 2 0 0 184 185 182
636 2 2 0 0 188 194 190
637 2 2 0 0 56 70 54
638 2 2 0 0 377 405 376
639 2 2 0 0 449 470 450
640 2 2 0 0 179 180 178
641 2 2 0 0 173 175 174
642 2 2 0 0 175 178 177
643 2 2 0 0 250 329 328
644 2 2 0 0 311 376 292
645 2 2 0 0 329 571 350
646 2 2 0 0 347 370 348
647 2 2 0 0 220 222 219
648 2 2 0 0 376 385 292
649 2 2 0 0 133 134 132
650 2 2 0 0 134 136 132
651 2 2 0 0 306 308 307
652 2 2 0 0 200 203 201
653 2 2 0 0 233 247 222
654 2 2 0 0 98 460 82
655 2 2 0 0 329 349 328
656 2 2 0 0 326 381 380
657 2 2 0 0 347 348 270
658 2 2 0 0 181 182 180
659 2 2 0 0 121 122 115
660 2 2 0 0 350 351 349
661 2 2 0 0 308 336 335
662 2 2 0 0 350 403 352
663 2 2 0 0 470 471 450
664 2 2 0 0 203 211 210
665 2 2 0 0 218 219 211
666 2 2 0 0 183 184 182
667 2 2 0 0 370 463 422
668 2 2 0 0 306 402 308
669 2 2 0 0 203 218 211
670 2 2 0 0 71 490 70
671 2 2 0 0 329 350 349
672 2 2 0 0 436 437 414
673 2 2 0 0 124 126 125
674 2 2 0 0 413 414 353
675 2 2 0 0 422 423 348
676 2 2 0 0 352 353 351
677 2 2 0 0 370 422 348
678 2 2 0 0 350 352 351
679 2 2 0 0 413 436 414
680 2 2 0 0 352 413 353
681 2 2 0 0 120 121 115
682 2 2 0 0 110 480 117
683 2 2 0 0 124 125 116
684 2 2 0 0 126 521 165
685 2 2 0 0 113 120 115
686 2 2 0 0 127 440 410
687 2 2 0 0 114 124 116
688 2 2 0 0 543 544 530
689 2 2 0 0 488 489 487
690 2 2 0 0 585 637 366
691 2 2 0 0 543 570 544
692 2 2 0 0 113 115 114
693 2 2 0 0 127 410 106
694 2 2 0 0 114 116 112
695 2 2 0 0 195 515 200
696 2 2 0 0 491 493 492
697 2 2 0 0 12 487 13
698 2 2 0 0 546 547 321
699 2 2 0 0 330 457 411
700 2 2 0 0 157 543 530
701 2 2 0 0 519 520 291
702 2 2 0 0 28 488 487
703 2 2 0 0 111 112 110
704 2 2 0 0 312 534 257
705 2 2 0 0 476 732 412
706 2 2 0 0 27 458 442
707 2 2 0 0 385 636 620
708 2 2 0 0 176 559 156
709 2 2 0 0 593 634 366
710 2 2 0 0 589 590 224
711 2 2 0 0 113 114 112
712 2 2 0 0 109 127 106
713 2 2 0 0 270 564 245
714 2 2 0 0 443 506 445
715 2 2 0 0 491 492 396
716 2 2 0 0 388 624 502
717 2 2 0 0 445 506 448
718 2 2 0 0 30 500 15
719 2 2 0 0 20 504 21
720 2 2 0 0 64 475 60
721 2 2 0 0 287 542 206
722 2 2 0 0 23 508 35
723 2 2 0 0 302 558 299
724 2 2 0 0 70 551 54
725 2 2 0 0 62 598 64
726 2 2 0 0 424 491 396
727 2 2 0 0 407 456 340
728 2 2 0 0 545 546 321
729 2 2 0 0 330 411 397
730 2 2 0 0 72 536 74
731 2 2 0 0 238 574 136
732 2 2 0 0 659 660 420
733 2 2 0 0 395 538 332
734 2 2 0 0 143 527 145
735 2 2 0 0 412 675 476
736 2 2 0 0 239 513 358
737 2 2 0 0 157 530 529
738 2 2 0 0 518 519 291
739 2 2 0 0 449 482 470
740 2 2 0 0 207 713 479
741 2 2 0 0 119 523 75
742 2 2 0 0 109 670 127
743 2 2 0 0 10 501 40
744 2 2 0 0 508 509 35
745 2 2 0 0 96 606 94
746 2 2 0 0 331 459 334
747 2 2 0 0 286 531 288
748 2 2 0 0 290 453 354
749 2 2 0 0 282 490 71
750 2 2 0 0 384 531 313
751 2 2 0 0 289 524 287
752 2 2 0 0 349 550 412
753 2 2 0 0 165 521 256
754 2 2 0 0 82 460 77
755 2 2 0 0 155 543 157
756 2 2 0 0 201 549 199
757 2 2 0 0 273 591 363
758 2 2 0 0 387 521 126
759 2 2 0 0 114 516 124
760 2 2 0 0 53 561 57
761 2 2 0 0 266 554 309
762 2 2 0 0 257 534 255
763 2 2 0 0 205 553 213
764 2 2 0 0 142 522 225
765 2 2 0 0 435 481 356
766 2 2 0 0 216 568 303
767 2 2 0 0 300 563 344
768 2 2 0 0 214 568 209
769 2 2 0 0 112 480 110
770 2 2 0 0 350 571 403
771 2 2 0 0 347 572 485
772 2 2 0 0 275 572 271
773 2 2 0 0 274 563 296
774 2 2 0 0 171 586 293
775 2 2 0 0 162 576 237
776 2 2 0 0 133 580 163
777 2 2 0 0 11 501 10
778 2 2 0 0 295 584 261
779 2 2 0 0 129 583 131
780 2 2 0 0 215 586 169
781 2 2 0 0 250 505 329
782 2 2 0 0 168 588 224
783 2 2 0 0 321 548 170
784 2 2 0 0 262 593 366
785 2 2 0 0 166 646 314
786 2 2 0 0 520 535 291
787 2 2 0 0 373 663 493
788 2 2 0 0 291 535 185
789 2 2 0 0 101 607 97
790 2 2 0 0 130 574 357
791 2 2 0 0 158 570 543
792 2 2 0 0 31 501 11
793 2 2 0 0 444 552 503
794 2 2 0 0 156 559 159
795 2 2 0 0 236 594 505
796 2 2 0 0 206 542 149
797 2 2 0 0 54 551 52
798 2 2 0 0 74 536 373
799 2 2 0 0 337 558 302
800 2 2 0 0 150 532 147
801 2 2 0 0 379 728 457
802 2 2 0 0 299 558 298
803 2 2 0 0 332 538 333
804 2 2 0 0 145 527 148
805 2 2 0 0 514 515 192
806 2 2 0 0 15 500 14
807 2 2 0 0 75 523 73
808 2 2 0 0 467 501 31
809 2 2 0 0 254 592 125
810 2 2 0 0 172 545 321
811 2 2 0 0 144 522 142
812 2 2 0 0 528 532 150
813 2 2 0 0 187 518 291
814 2 2 0 0 553 599 213
815 2 2 0 0 383 603 384
816 2 2 0 0 282 698 490
817 2 2 0 0 244 517 240
818 2 2 0 0 353 525 404
819 2 2 0 0 395 540 538
820 2 2 0 0 94 606 118
821 2 2 0 0 117 539 107
822 2 2 0 0 185 535 182
823 2 2 0 0 388 502 50
824 2 2 0 0 167 591 273
825 2 2 0 0 147 532 146
826 2 2 0 0 92 608 91
827 2 2 0 0 472 676 368
828 2 2 0 0 364 592 254
829 2 2 0 0 21 504 44
830 2 2 0 0 365 597 248
831 2 2 0 0 125 592 116
832 2 2 0 0 588 589 224
833 2 2 0 0 111 113 112
834 2 2 0 0 63 469 408
835 2 2 0 0 105 109 106
836 2 2 0 0 242 526 243
837 2 2 0 0 439 712 29
838 2 2 0 0 240 517 234
839 2 2 0 0 346 533 304
840 2 2 0 0 14 500 38
841 2 2 0 0 494 495 484
842 2 2 0 0 127 630 440
843 2 2 0 0 208 537 204
844 2 2 0 0 175 562 179
845 2 2 0 0 303 626 555
846 2 2 0 0 359 526 242
847 2 2 0 0 243 526 268
848 2 2 0 0 217 537 208
849 2 2 0 0 58 498 55
850 2 2 0 0 503 552 30
851 2 2 0 0 13 499 12
852 2 2 0 0 268 621 569
853 2 2 0 0 489 497 487
854 2 2 0 0 475 498 58
855 2 2 0 0 430 526 359
856 2 2 0 0 248 597 99
857 2 2 0 0 292 537 217
858 2 2 0 0 26 645 45
859 2 2 0 0 234 517 279
860 2 2 0 0 14 497 39
861 2 2 0 0 385 537 292
862 2 2 0 0 305 533 360
863 2 2 0 0 304 533 301
864 2 2 0 0 146 532 284
865 2 2 0 0 483 494 484
866 2 2 0 0 173 562 175
867 2 2 0 0 116 480 112
868 2 2 0 0 224 590 246
869 2 2 0 0 189 518 187
870 2 2 0 0 498 536 72
871 2 2 0 0 414 525 353
872 2 2 0 0 160 522 144
873 2 2 0 0 547 609 548
874 2 2 0 0 182 535 180
875 2 2 0 0 297 601 389
876 2 2 0 0 44 594 81
877 2 2 0 0 301 533 305
878 2 2 0 0 105 106 96
879 2 2 0 0 515 596 200
880 2 2 0 0 293 562 173
881 2 2 0 0 73 523 282
882 2 2 0 0 148 527 285
883 2 2 0 0 174 545 172
884 2 2 0 0 218 596 323
885 2 2 0 0 200 596 203
886 2 2 0 0 149 542 151
887 2 2 0 0 446 552 444
888 2 2 0 0 49 461 330
889 2 2 0 0 330 397 48
890 2 2 0 0 453 738 377
891 2 2 0 0 255 534 324
892 2 2 0 0 52 551 388
893 2 2 0 0 634 646 260
894 2 2 0 0 513 615 358
895 2 2 0 0 438 525 414
896 2 2 0 0 516 618 386
897 2 2 0 0 198 518 189
898 2 2 0 0 227 566 361
899 2 2 0 0 559 560 241
900 2 2 0 0 90 587 93
901 2 2 0 0 416 522 160
902 2 2 0 0 102 591 167
903 2 2 0 0 134 609 137
904 2 2 0 0 298 558 372
905 2 2 0 0 132 574 130
906 2 2 0 0 106 606 96
907 2 2 0 0 159 559 241
908 2 2 0 0 32 611 6
909 2 2 0 0 158 543 155
910 2 2 0 0 223 513 239
911 2 2 0 0 288 531 319
912 2 2 0 0 323 513 220
913 2 2 0 0 115 516 114
914 2 2 0 0 521 601 297
915 2 2 0 0 610 698 455
916 2 2 0 0 354 600 431
917 2 2 0 0 351 550 349
918 2 2 0 0 256 521 297
919 2 2 0 0 140 604 138
920 2 2 0 0 77 460 119
921 2 2 0 0 17 503 16
922 2 2 0 0 9 502 10
923 2 2 0 0 104 587 331
924 2 2 0 0 152 528 150
925 2 2 0 0 315 541 378
926 2 2 0 0 170 548 164
927 2 2 0 0 590 659 420
928 2 2 0 0 11 624 28
929 2 2 0 0 199 549 202
930 2 2 0 0 502 624 10
931 2 2 0 0 453 600 354
932 2 2 0 0 42 43 41
933 2 2 0 0 38 499 13
934 2 2 0 0 285 527 382
935 2 2 0 0 190 514 192
936 2 2 0 0 157 529 528
937 2 2 0 0 231 643 549
938 2 2 0 0 331 587 459
939 2 2 0 0 451 701 232
940 2 2 0 0 99 597 100
941 2 2 0 0 361 568 214
942 2 2 0 0 372 740 544
943 2 2 0 0 221 545 174
944 2 2 0 0 138 604 238
945 2 2 0 0 340 572 275
946 2 2 0 0 338 563 274
947 2 2 0 0 524 542 287
948 2 2 0 0 265 595 312
949 2 2 0 0 111 511 113
950 2 2 0 0 580 658 588
951 2 2 0 0 580 588 163
952 2 2 0 0 237 576 277
953 2 2 0 0 444 503 36
954 2 2 0 0 131 583 580
955 2 2 0 0 505 571 329
956 2 2 0 0 203 596 218
957 2 2 0 0 584 634 260
958 2 2 0 0 261 584 260
959 2 2 0 0 369 647 365
960 2 2 0 0 251 586 215
961 2 2 0 0 348 564 270
962 2 2 0 0 450 552 446
963 2 2 0 0 390 496 391
964 2 2 0 0 66 598 62
965 2 2 0 0 465 623 423
966 2 2 0 0 258 591 102
967 2 2 0 0 343 566 227
968 2 2 0 0 564 623 244
969 2 2 0 0 154 617 141
970 2 2 0 0 324 534 392
971 2 2 0 0 50 502 37
972 2 2 0 0 524 556 542
973 2 2 0 0 544 700 372
974 2 2 0 0 122 516 115
975 2 2 0 0 177 557 221
976 2 2 0 0 489 698 610
977 2 2 0 0 93 587 104
978 2 2 0 0 136 574 132
979 2 2 0 0 593 646 634
980 2 2 0 0 116 592 480
981 2 2 0 0 143 617 527
982 2 2 0 0 225 604 140
983 2 2 0 0 137 631 139
984 2 2 0 0 549 553 202
985 2 2 0 0 164 548 135
986 2 2 0 0 404 550 351
987 2 2 0 0 34 721 473
988 2 2 0 0 220 513 223
989 2 2 0 0 317 640 511
990 2 2 0 0 100 597 258
991 2 2 0 0 588 658 589
992 2 2 0 0 323 615 513
993 2 2 0 0 568 626 303
994 2 2 0 0 377 605 405
995 2 2 0 0 178 613 212
996 2 2 0 0 493 628 373
997 2 2 0 0 157 528 152
998 2 2 0 0 591 627 363
999 2 2 0 0 409 541 315
1000 2 2 0 0 183 614 197
1001 2 2 0 0 103 598 66
1002 2 2 0 0 188 619 194
1003 2 2 0 0 213 599 226
1004 2 2 0 0 306 599 402
1005 2 2 0 0 97 607 25
1006 2 2 0 0 194 514 190
1007 2 2 0 0 373 628 76
1008 2 2 0 0 78 628 253
1009 2 2 0 0 42 47 43
1010 2 2 0 0 39 612 15
1011 2 2 0 0 16 612 29
1012 2 2 0 0 437 610 455
1013 2 2 0 0 487 497 13
1014 2 2 0 0 440 630 441
1015 2 2 0 0 479 713 562
1016 2 2 0 0 196 620 193
1017 2 2 0 0 456 572 340
1018 2 2 0 0 120 511 281
1019 2 2 0 0 577 578 235
1020 2 2 0 0 335 582 399
1021 2 2 0 0 314 741 683
1022 2 2 0 0 520 613 535
1023 2 2 0 0 585 634 584
1024 2 2 0 0 423 564 348
1025 2 2 0 0 457 561 411
1026 2 2 0 0 6 611 5
1027 2 2 0 0 385 620 537
1028 2 2 0 0 228 637 229
1029 2 2 0 0 366 637 249
1030 2 2 0 0 161 570 158
1031 2 2 0 0 434 640 435
1032 2 2 0 0 193 636 191
1033 2 2 0 0 410 606 106
1034 2 2 0 0 37 502 9
1035 2 2 0 0 36 503 17
1036 2 2 0 0 141 617 143
1037 2 2 0 0 363 627 401
1038 2 2 0 0 322 590 420
1039 2 2 0 0 357 618 128
1040 2 2 0 0 430 621 526
1041 2 2 0 0 540 687 103
1042 2 2 0 0 280 577 121
1043 2 2 0 0 276 575 318
1044 2 2 0 0 362 578 577
1045 2 2 0 0 109 649 496
1046 2 2 0 0 246 590 322
1047 2 2 0 0 326 569 381
1048 2 2 0 0 569 621 381
1049 2 2 0 0 269 569 272
1050 2 2 0 0 139 631 154
1051 2 2 0 0 649 664 496
1052 2 2 0 0 537 620 204
1053 2 2 0 0 355 461 49
1054 2 2 0 0 663 685 493
1055 2 2 0 0 479 745 207
1056 2 2 0 0 343 662 565
1057 2 2 0 0 212 557 177
1058 2 2 0 0 45 645 46
1059 2 2 0 0 496 670 109
1060 2 2 0 0 366 634 585
1061 2 2 0 0 384 616 531
1062 2 2 0 0 535 613 180
1063 2 2 0 0 391 632 364
1064 2 2 0 0 308 581 336
1065 2 2 0 0 344 625 462
1066 2 2 0 0 563 625 344
1067 2 2 0 0 13 497 14
1068 2 2 0 0 480 632 117
1069 2 2 0 0 371 668 585
1070 2 2 0 0 333 649 278
1071 2 2 0 0 387 601 521
1072 2 2 0 0 47 49 48
1073 2 2 0 0 358 615 428
1074 2 2 0 0 113 511 120
1075 2 2 0 0 527 617 382
1076 2 2 0 0 105 649 109
1077 2 2 0 0 398 573 307
1078 2 2 0 0 368 676 369
1079 2 2 0 0 180 613 178
1080 2 2 0 0 153 556 176
1081 2 2 0 0 432 657 367
1082 2 2 0 0 458 718 582
1083 2 2 0 0 207 614 183
1084 2 2 0 0 407 611 456
1085 2 2 0 0 244 623 517
1086 2 2 0 0 20 639 27
1087 2 2 0 0 476 675 87
1088 2 2 0 0 319 616 393
1089 2 2 0 0 474 707 197
1090 2 2 0 0 226 599 306
1091 2 2 0 0 47 48 43
1092 2 2 0 0 186 619 188
1093 2 2 0 0 412 732 328
1094 2 2 0 0 316 671 541
1095 2 2 0 0 293 734 478
1096 2 2 0 0 492 685 598
1097 2 2 0 0 528 629 532
1098 2 2 0 0 514 635 515
1099 2 2 0 0 531 616 319
1100 2 2 0 0 8 656 7
1101 2 2 0 0 387 602 601
1102 2 2 0 0 76 628 78
1103 2 2 0 0 122 618 516
1104 2 2 0 0 651 717 394
1105 2 2 0 0 423 623 564
1106 2 2 0 0 546 669 547
1107 2 2 0 0 4 679 34
1108 2 2 0 0 542 556 151
1109 2 2 0 0 548 609 135
1110 2 2 0 0 204 620 196
1111 2 2 0 0 529 629 528
1112 2 2 0 0 482 719 230
1113 2 2 0 0 258 627 591
1114 2 2 0 0 336 582 335
1115 2 2 0 0 197 686 667
1116 2 2 0 0 583 658 580
1117 2 2 0 0 85 675 98
1118 2 2 0 0 59 728 379
1119 2 2 0 0 400 625 338
1120 2 2 0 0 394 717 605
1121 2 2 0 0 471 650 450
1122 2 2 0 0 596 635 323
1123 2 2 0 0 249 637 228
1124 2 2 0 0 515 635 596
1125 2 2 0 0 338 625 563
1126 2 2 0 0 28 633 488
1127 2 2 0 0 566 622 361
1128 2 2 0 0 229 570 161
1129 2 2 0 0 468 654 465
1130 2 2 0 0 118 710 462
1131 2 2 0 0 15 612 16
1132 2 2 0 0 589 659 590
1133 2 2 0 0 526 621 268
1134 2 2 0 0 365 647 597
1135 2 2 0 0 579 583 235
1136 2 2 0 0 22 507 21
1137 2 2 0 0 342 682 264
1138 2 2 0 0 441 648 346
1139 2 2 0 0 191 636 198
1140 2 2 0 0 578 653 579
1141 2 2 0 0 135 609 134
1142 2 2 0 0 128 618 122
1143 2 2 0 0 378 681 310
1144 2 2 0 0 230 690 211
1145 2 2 0 0 210 690 232
1146 2 2 0 0 549 643 553
1147 2 2 0 0 233 661 247
1148 2 2 0 0 10 624 11
1149 2 2 0 0 640 709 435
1150 2 2 0 0 449 719 482
1151 2 2 0 0 452 726 33
1152 2 2 0 0 362 577 280
1153 2 2 0 0 318 575 433
1154 2 2 0 0 492 687 396
1155 2 2 0 0 586 734 293
1156 2 2 0 0 357 655 618
1157 2 2 0 0 277 567 259
1158 2 2 0 0 522 641 225
1159 2 2 0 0 511 640 281
1160 2 2 0 0 247 661 483
1161 2 2 0 0 610 693 39
1162 2 2 0 0 272 569 326
1163 2 2 0 0 490 695 70
1164 2 2 0 0 553 643 599
1165 2 2 0 0 532 629 284
1166 2 2 0 0 29 712 17
1167 2 2 0 0 632 665 117
1168 2 2 0 0 618 655 386
1169 2 2 0 0 241 699 576
1170 2 2 0 0 457 728 561
1171 2 2 0 0 485 572 456
1172 2 2 0 0 430 667 621
1173 2 2 0 0 582 672 458
1174 2 2 0 0 395 687 540
1175 2 2 0 0 504 594 44
1176 2 2 0 0 181 713 207
1177 2 2 0 0 197 707 184
1178 2 2 0 0 524 657 556
1179 2 2 0 0 475 536 498
1180 2 2 0 0 394 738 320
1181 2 2 0 0 51 714 561
1182 2 2 0 0 151 556 153
1183 2 2 0 0 437 693 610
1184 2 2 0 0 361 626 568
1185 2 2 0 0 611 679 5
1186 2 2 0 0 231 680 643
1187 2 2 0 0 462 706 118
1188 2 2 0 0 390 670 496
1189 2 2 0 0 602 642 601
1190 2 2 0 0 49 330 48
1191 2 2 0 0 391 665 632
1192 2 2 0 0 508 737 375
1193 2 2 0 0 450 650 552
1194 2 2 0 0 368 732 476
1195 2 2 0 0 578 579 235
1196 2 2 0 0 402 581 308
1197 2 2 0 0 43 486 41
1198 2 2 0 0 562 713 179
1199 2 2 0 0 592 632 480
1200 2 2 0 0 416 641 522
1201 2 2 0 0 372 668 371
1202 2 2 0 0 452 712 439
1203 2 2 0 0 282 720 455
1204 2 2 0 0 556 657 176
1205 2 2 0 0 364 632 592
1206 2 2 0 0 403 726 452
1207 2 2 0 0 465 654 623
1208 2 2 0 0 278 649 105
1209 2 2 0 0 154 652 617
1210 2 2 0 0 383 688 603
1211 2 2 0 0 451 719 447
1212 2 2 0 0 317 709 640
1213 2 2 0 0 604 711 642
1214 2 2 0 0 382 652 383
1215 2 2 0 0 601 642 389
1216 2 2 0 0 284 671 316
1217 2 2 0 0 599 643 402
1218 2 2 0 0 388 633 624
1219 2 2 0 0 267 678 311
1220 2 2 0 0 337 681 530
1221 2 2 0 0 279 661 233
1222 2 2 0 0 605 738 394
1223 2 2 0 0 33 677 504
1224 2 2 0 0 386 655 387
1225 2 2 0 0 547 669 631
1226 2 2 0 0 562 731 479
1227 2 2 0 0 360 648 595
1228 2 2 0 0 432 692 657
1229 2 2 0 0 367 657 524
1230 2 2 0 0 633 695 488
1231 2 2 0 0 415 473 341
1232 2 2 0 0 644 672 336
1233 2 2 0 0 551 633 388
1234 2 2 0 0 533 648 360
1235 2 2 0 0 407 679 611
1236 2 2 0 0 323 635 615
1237 2 2 0 0 530 681 529
1238 2 2 0 0 393 651 394
1239 2 2 0 0 387 655 602
1240 2 2 0 0 238 703 574
1241 2 2 0 0 594 677 505
1242 2 2 0 0 559 692 560
1243 2 2 0 0 621 667 381
1244 2 2 0 0 405 674 376
1245 2 2 0 0 325 732 368
1246 2 2 0 0 623 654 517
1247 2 2 0 0 581 644 336
1248 2 2 0 0 346 648 533
1249 2 2 0 0 517 654 279
1250 2 2 0 0 477 705 481
1251 2 2 0 0 481 705 355
1252 2 2 0 0 561 728 57
1253 2 2 0 0 379 705 477
1254 2 2 0 0 617 652 382
1255 2 2 0 0 30 650 500
1256 2 2 0 0 376 674 385
1257 2 2 0 0 518 715 519
1258 2 2 0 0 474 667 430
1259 2 2 0 0 478 734 294
1260 2 2 0 0 624 633 28
1261 2 2 0 0 186 707 619
1262 2 2 0 0 64 663 475
1263 2 2 0 0 597 647 258
1264 2 2 0 0 377 738 605
1265 2 2 0 0 31 735 467
1266 2 2 0 0 27 718 458
1267 2 2 0 0 419 673 68
1268 2 2 0 0 616 722 393
1269 2 2 0 0 24 723 419
1270 2 2 0 0 397 638 48
1271 2 2 0 0 404 730 460
1272 2 2 0 0 91 676 472
1273 2 2 0 0 622 626 361
1274 2 2 0 0 7 656 32
1275 2 2 0 0 576 697 277
1276 2 2 0 0 471 691 650
1277 2 2 0 0 536 663 373
1278 2 2 0 0 484 691 471
1279 2 2 0 0 552 650 30
1280 2 2 0 0 311 678 600
1281 2 2 0 0 486 729 5
1282 2 2 0 0 418 673 666
1283 2 2 0 0 232 680 231
1284 2 2 0 0 5 679 4
1285 2 2 0 0 117 665 539
1286 2 2 0 0 384 702 616
1287 2 2 0 0 557 702 221
1288 2 2 0 0 87 675 85
1289 2 2 0 0 225 711 604
1290 2 2 0 0 505 677 571
1291 2 2 0 0 483 661 494
1292 2 2 0 0 263 565 375
1293 2 2 0 0 504 677 594
1294 2 2 0 0 582 718 399
1295 2 2 0 0 645 714 46
1296 2 2 0 0 534 708 392
1297 2 2 0 0 643 680 402
1298 2 2 0 0 18 712 452
1299 2 2 0 0 392 670 390
1300 2 2 0 0 221 702 603
1301 2 2 0 0 496 664 391
1302 2 2 0 0 606 710 118
1303 2 2 0 0 655 703 602
1304 2 2 0 0 608 676 91
1305 2 2 0 0 194 684 514
1306 2 2 0 0 541 671 378
1307 2 2 0 0 154 669 652
1308 2 2 0 0 399 718 639
1309 2 2 0 0 405 715 674
1310 2 2 0 0 33 726 677
1311 2 2 0 0 629 671 284
1312 2 2 0 0 468 735 495
1313 2 2 0 0 469 704 408
1314 2 2 0 0 427 745 479
1315 2 2 0 0 294 734 251
1316 2 2 0 0 461 705 379
1317 2 2 0 0 385 674 636
1318 2 2 0 0 657 692 176
1319 2 2 0 0 561 714 411
1320 2 2 0 0 631 669 154
1321 2 2 0 0 264 682 265
1322 2 2 0 0 43 638 486
1323 2 2 0 0 48 638 43
1324 2 2 0 0 194 744 684
1325 2 2 0 0 381 686 380
1326 2 2 0 0 658 716 589
1327 2 2 0 0 263 567 565
1328 2 2 0 0 310 681 337
1329 2 2 0 0 493 685 492
1330 2 2 0 0 64 685 663
1331 2 2 0 0 309 678 267
1332 2 2 0 0 600 678 431
1333 2 2 0 0 538 694 333
1334 2 2 0 0 598 685 64
1335 2 2 0 0 551 695 633
1336 2 2 0 0 560 699 241
1337 2 2 0 0 211 690 210
1338 2 2 0 0 2 723 3
1339 2 2 0 0 630 708 441
1340 2 2 0 0 467 735 468
1341 2 2 0 0 396 687 395
1342 2 2 0 0 35 507 22
1343 2 2 0 0 259 567 263
1344 2 2 0 0 417 673 418
1345 2 2 0 0 614 686 197
1346 2 2 0 0 392 708 630
1347 2 2 0 0 5 729 6
1348 2 2 0 0 279 725 661
1349 2 2 0 0 6 729 26
1350 2 2 0 0 357 703 655
1351 2 2 0 0 514 684 635
1352 2 2 0 0 540 733 538
1353 2 2 0 0 374 741 593
1354 2 2 0 0 176 692 559
1355 2 2 0 0 650 691 500
1356 2 2 0 0 484 736 691
1357 2 2 0 0 83 733 540
1358 2 2 0 0 558 740 372
1359 2 2 0 0 626 697 555
1360 2 2 0 0 436 693 437
1361 2 2 0 0 375 737 374
1362 2 2 0 0 475 663 536
1363 2 2 0 0 636 674 198
1364 2 2 0 0 674 715 198
1365 2 2 0 0 70 695 551
1366 2 2 0 0 406 721 407
1367 2 2 0 0 677 726 571
1368 2 2 0 0 258 647 627
1369 2 2 0 0 448 701 451
1370 2 2 0 0 458 672 506
1371 2 2 0 0 229 700 570
1372 2 2 0 0 684 744 428
1373 2 2 0 0 570 700 544
1374 2 2 0 0 678 742 431
1375 2 2 0 0 646 741 314
1376 2 2 0 0 603 702 384
1377 2 2 0 0 478 731 293
1378 2 2 0 0 309 742 678
1379 2 2 0 0 380 686 614
1380 2 2 0 0 494 725 468
1381 2 2 0 0 500 691 38
1382 2 2 0 0 635 684 615
1383 2 2 0 0 661 725 494
1384 2 2 0 0 679 721 34
1385 2 2 0 0 509 510 35
1386 2 2 0 0 46 714 51
1387 2 2 0 0 615 684 428
1388 2 2 0 0 432 742 689
1389 2 2 0 0 179 713 181
1390 2 2 0 0 26 739 645
1391 2 2 0 0 35 510 507
1392 2 2 0 0 574 703 357
1393 2 2 0 0 184 707 186
1394 2 2 0 0 39 693 612
1395 2 2 0 0 665 694 539
1396 2 2 0 0 312 708 534
1397 2 2 0 0 554 689 309
1398 2 2 0 0 1 737 508
1399 2 2 0 0 519 717 520
1400 2 2 0 0 277 697 622
1401 2 2 0 0 389 711 641
1402 2 2 0 0 495 736 484
1403 2 2 0 0 17 712 18
1404 2 2 0 0 212 722 557
1405 2 2 0 0 455 720 438
1406 2 2 0 0 622 697 626
1407 2 2 0 0 664 694 665
1408 2 2 0 0 447 719 449
1409 2 2 0 0 669 688 652
1410 2 2 0 0 612 693 436
1411 2 2 0 0 619 744 194
1412 2 2 0 0 57 728 59
1413 2 2 0 0 579 658 583
1414 2 2 0 0 438 727 525
1415 2 2 0 0 539 733 83
1416 2 2 0 0 479 731 478
1417 2 2 0 0 691 736 38
1418 2 2 0 0 401 724 400
1419 2 2 0 0 420 660 2
1420 2 2 0 0 328 732 325
1421 2 2 0 0 320 738 453
1422 2 2 0 0 428 744 429
1423 2 2 0 0 431 742 432
1424 2 2 0 0 425 745 427
1425 2 2 0 0 408 743 434
1426 2 2 0 0 571 726 403
1427 2 2 0 0 119 727 523
1428 2 2 0 0 625 706 462
1429 2 2 0 0 525 730 404
1430 2 2 0 0 499 736 495
1431 2 2 0 0 468 725 654
1432 2 2 0 0 336 672 582
1433 2 2 0 0 198 715 518
1434 2 2 0 0 400 724 706
1435 2 2 0 0 402 680 581
1436 2 2 0 0 589 716 659
1437 2 2 0 0 727 730 525
1438 2 2 0 0 664 665 391
1439 2 2 0 0 337 740 558
1440 2 2 0 0 293 731 562
1441 2 2 0 0 523 720 282
1442 2 2 0 0 460 730 119
1443 2 2 0 0 641 711 225
1444 2 2 0 0 429 744 619
1445 2 2 0 0 119 730 727
1446 2 2 0 0 651 722 212
1447 2 2 0 0 38 736 499
1448 2 2 0 0 667 686 381
1449 2 2 0 0 652 688 383
1450 2 2 0 0 410 710 606
1451 2 2 0 0 644 701 448
1452 2 2 0 0 666 673 419
1453 2 2 0 0 704 743 408
1454 2 2 0 0 251 734 586
1455 2 2 0 0 400 706 625
1456 2 2 0 0 546 688 669
1457 2 2 0 0 668 700 229
1458 2 2 0 0 538 733 694
1459 2 2 0 0 333 694 664
1460 2 2 0 0 565 662 375
1461 2 2 0 0 720 727 438
1462 2 2 0 0 372 700 668
1463 2 2 0 0 579 716 658
1464 2 2 0 0 642 711 389
1465 2 2 0 0 355 705 461
1466 2 2 0 0 407 721 679
1467 2 2 0 0 523 727 720
1468 2 2 0 0 654 725 279
1469 2 2 0 0 639 718 27
1470 2 2 0 0 694 733 539
1471 2 2 0 0 393 722 651
1472 2 2 0 0 645 739 397
1473 2 2 0 0 683 741 374
1474 2 2 0 0 397 739 638
1475 2 2 0 0 653 716 579
1476 2 2 0 0 666 723 660
1477 2 2 0 0 419 723 666
1478 2 2 0 0 374 737 683
1479 2 2 0 0 593 741 646
1480 2 2 0 0 683 737 1
1481 2 2 0 0 689 742 309
1482 2 2 0 0 660 723 2
1483 2 2 0 0 23 25 1
1484 2 2 0 0 25 607 1
1485 2 2 0 0 3 34 2
1486 2 2 0 0 34 415 2
$EndElements
