$MeshFormat
2.2 0 8
$EndMeshFormat
$Nodes
745
1 4.6751003910271982e-05 2.1407777527092268e-05 1.0235238756655094e-03
2 4.0527171863359637e-05 -5.0924288653694211e-05 -1.0213842702250138e-03
3 1.2886686024156865e-04 1.0157608942310602e-05 -1.0143344325784453e-03
4 2.3751428862494751e-04 3.0925481885665465e-05 -9.9358448148157211e-04
5 3.8299325257415623e-04 3.0511310908139965e-05 -9.4406913495929370e-04
6 5.2586108183281740e-04 -4.7248603058630586e-06 -8.6680819318816701e-04
7 6.3649325422693748e-04 2.0535254051046014e-06 -7.8298649413738157e-04
8 7.2686768861538679e-04 4.8902762393999871e-06 -6.9356972437164546e-04
9 8.1834287539267068e-04 -2.3139967755276054e-06 -5.7403057656858726e-04
10 8.9063853107998166e-04 -2.7029843264913950e-06 -4.4438758274607045e-04
11 9.4962486174887868e-04 5.1513763428380806e-08 -2.8599106682650015e-04
12 9.8139616898575252e-04 5.5885447051052199e-06 -1.2898724341769386e-04
13 9.8921294399473129e-04 -2.5962811153751130e-06 1.3330272628837292e-05
14 9.7735388304105242e-04 4.8584808460578548e-07 1.5708864210525026e-04
15 9.4461043009828882e-04 6.7869730925978094e-06 3.0292377728196603e-04
16 8.8919139058452838e-04 1.1043856144709837e-05 4.4788053926109791e-04
17 8.2251709777176902e-04 -2.5966543099618575e-07 5.6813996775074787e-04
18 7.3361017581185628e-04 -9.5439592877412460e-06 6.8637860679773887e-04
19 6.3353778173017147e-04 -7.1694948217380133e-06 7.8638323186543363e-04
20 5.0612535803111849e-04 -4.0922247397125449e-06 8.7999687945431706e-04
21 3.8074585808937699e-04 3.7440752522159962e-06 9.4537408136373229e-04
22 2.6002949330506178e-04 8.9597329472586772e-06 9.8827804160573208e-04
23 1.4589779372005648e-04 -1.8570652713962405e-05 1.0123535209480650e-03
24 1.6696680634862242e-04 1.1782127397194909e-04 -1.0020933961545433e-03
25 1.7315814104435886e-04 9.7792515734524885e-05 1.0041029747517517e-03
26 5.8757555635713648e-04 1.1639051322517356e-04 -8.1367747802044035e-04
27 5.6735050594378361e-04 -1.1787446862202225e-04 8.2995129412276791e-04
28 9.6033915629548062e-04 1.3339236731295804e-04 -2.0263116513916695e-04
29 8.4282649652077141e-04 1.6105206960719367e-04 5.1024574148916455e-04
30 9.1331385875653562e-04 -1.2124945297140400e-04 3.7208260163571708e-04
31 9.6196844723584537e-04 -1.1638659320398178e-04 -2.0535285773455546e-04
32 5.6398957249288240e-04 -1.1023970995647238e-04 -8.3321778768769396e-04
33 5.6171848704328906e-04 1.0229554831789938e-04 8.3596778177665281e-04
34 1.6952762086126547e-04 -9.3915244666600942e-05 -1.0047106564995891e-03
35 1.9982050598030474e-04 -1.0949251578282869e-04 9.9669071125563853e-04
36 7.7335054140262533e-04 -1.2367778703815951e-04 6.2514806554505697e-04
37 7.7019490857574370e-04 1.2870271294113662e-04 -6.2715598503570460e-04
38 9.7976018316464999e-04 -1.1023302027228071e-04 8.1557356443027714e-05
39 9.5777074264216796e-04 1.2517220380592624e-04 2.1933437519189045e-04
40 8.4815722142332194e-04 -1.3052718982480742e-04 -5.0836730413777618e-04
41 2.8972649367021210e-04 1.2230237489614657e-04 -9.7058027336803347e-04
42 2.2372483637414200e-04 2.3781951554245070e-04 -9.6607467068716816e-04
43 3.3896643152556800e-04 2.4354354650258758e-04 -9.2735042711705035e-04
44 3.0917598016003183e-04 1.1275446119943063e-04 9.6606009445807225e-04
45 6.7297409923178361e-04 1.2478921300393067e-04 -7.3812611389859940e-04
46 7.0233457855277653e-04 2.4464175684524395e-04 -6.7359575676832859e-04
47 2.7908741094956444e-04 3.4939461149699984e-04 -9.1242727557652454e-04
48 3.8574394624813277e-04 3.4475142678785481e-04 -8.7154682563480245e-04
49 3.2064394773266135e-04 4.4202493216157130e-04 -8.5245322950148648e-04
50 7.9065461443278418e-04 2.5347952079659495e-04 -5.5474566330222981e-04
51 7.1883024654061545e-04 3.7251935656685376e-04 -5.8639432544258093e-04
52 8.0020405605298137e-04 3.6829411539602116e-04 -4.6345742911667331e-04
53 7.1574236193227658e-04 4.8292725723835770e-04 -4.9722646176465627e-04
54 7.8720279586754578e-04 4.7867589633899290e-04 -3.6980044964291778e-04
55 6.9923521222220160e-04 5.8343691529675202e-04 -3.9669102969761737e-04
56 7.6175872439960765e-04 5.7546353623741777e-04 -2.6465255428570928e-04
57 6.2675300290869929e-04 5.8126294513873174e-04 -5.1228390071230204e-04
58 5.9419822169927915e-04 6.7776444249380817e-04 -4.1841927890494813e-04
59 5.0828460723281559e-04 6.6856148960421440e-04 -5.3800550470155728e-04
60 4.6942923507280139e-04 7.6219440518361160e-04 -4.3211984512365841e-04
61 3.8007001280746254e-04 7.4277144297173333e-04 -5.4732603003133159e-04
62 3.4690633771748491e-04 8.3098336438194680e-04 -4.2001906451865587e-04
63 2.1056581918690851e-04 4.4955837114622510e-04 -8.8453031488886923e-04
64 4.3428878380134291e-04 8.3474189929558967e-04 -3.1046370274845630e-04
65 2.4326053538809594e-04 8.0985017444597826e-04 -5.2846578490216560e-04
66 2.1970737340815485e-04 8.8463957506003377e-04 -3.9372316609984770e-04
67 1.1364495371703641e-04 8.5556573730752891e-04 -4.9712102393803547e-04
68 1.0341875376088082e-04 2.4250270818851357e-04 -9.8629458538528037e-04
69 1.3291864069922489e-04 7.6453754582611903e-04 -6.3387302256425208e-04
70 8.3699529719978821e-04 4.7070695452814201e-04 -2.4191294287681549e-04
71 8.1215210687252213e-04 5.5087159300765869e-04 -1.2490464598852551e-04
72 7.2290121362004729e-04 6.5810594127259977e-04 -1.5148610420073272e-04
73 7.6281341984413211e-04 6.2870480980497915e-04 -2.0322892503226471e-05
74 6.6523624128133382e-04 7.3032282658394099e-04 -3.6238824991402878e-05
75 6.9337219292183220e-04 6.9920804214407327e-04 8.8900643711011773e-05
76 5.8448195558180702e-04 7.9350136004811671e-04 7.8177651383441076e-05
77 6.1205014329900607e-04 7.5032813302100510e-04 2.0512314267160612e-04
78 4.9958687081124960e-04 8.3280564102941970e-04 1.8962744509234535e-04
79 9.1191994319546324e-05 9.2119235049730765e-04 -3.5664426332785625e-04
80 -1.8669318010678490e-05 8.8711749619301158e-04 -4.4852488689680015e-04
81 2.4074177761091749e-04 2.2285453968460636e-04 9.6636864293107199e-04
82 5.2065330781563902e-04 7.7683754918746975e-04 3.3087429831888933e-04
83 -3.7748745412484056e-05 9.3792980100305761e-04 -3.1711284214051572e-04
84 4.0083784287433096e-04 8.5920952208364931e-04 2.8802100650284217e-04
85 4.1534648499715629e-04 8.0006874904551433e-04 4.1838554352279704e-04
86 2.9267964629519017e-04 8.6770353488747974e-04 3.8343097324969344e-04
87 3.0297801283767675e-04 7.9827949449636187e-04 5.1365329280333484e-04
88 1.8143051691982552e-04 8.5033930338937783e-04 4.8494426126752304e-04
89 1.6524280626072917e-04 9.1389537164860866e-04 3.4816771609771577e-04
90 5.5543685189418333e-05 8.8553209463817508e-04 4.4883258935985777e-04
91 7.5250439828409776e-05 8.1230301143234271e-04 5.7621068833263185e-04
92 -4.5827671490249377e-05 8.4369439413514800e-04 5.2869805983770952e-04
93 -7.9041195243538626e-05 9.0492438092926349e-04 4.0087967279584842e-04
94 -1.8424103445753893e-04 8.5411518842667554e-04 4.7588651295706877e-04
95 -1.4694775377401383e-04 7.9138601938152822e-04 5.9061131047521422e-04
96 -2.1593972722447105e-04 9.0250238194290462e-04 3.4960989338872169e-04
97 1.1201421860419383e-04 2.2091430426526512e-04 9.9154302778251186e-04
98 5.3457744425119470e-04 6.8983182171389248e-04 4.8175234734338138e-04
99 1.7179463336052905e-04 3.3609753598397161e-04 9.4647576988614443e-04
100 4.1866816207794489e-05 3.4225804115766106e-04 9.5964423001506489e-04
101 -1.3492560763884399e-05 2.2467022001059571e-04 9.9715206403838837e-04
102 -8.9720292992561773e-05 3.2820578362880923e-04 9.6129687658266870e-04
103 1.8844780988230115e-04 9.3691224451901791e-04 -2.5866889667623130e-04
104 -1.0797390885578542e-04 9.4893029307396533e-04 2.6066745103242502e-04
105 -2.3960139230379734e-04 9.3553465261866930e-04 2.1453883601902892e-04
106 -3.4513825111883849e-04 8.8030994206235024e-04 2.9516698060060107e-04
107 -1.4931855399210990e-04 8.9949053116896056e-04 -3.9223298290041032e-04
108 -1.3505162419542516e-04 8.3419270227444475e-04 -5.2861838672567255e-04
109 -3.6852402126119242e-04 9.0397971487308289e-04 1.5592220297755820e-04
110 -2.6404707314490192e-04 8.3731936619238067e-04 -4.6773256175584014e-04
111 -2.3755468562392161e-04 7.6530259157274103e-04 -5.9729928039811892e-04
112 -3.7156963903416741e-04 7.5288281199479027e-04 -5.3811169677505386e-04
113 -3.3582394027514861e-04 6.7098671199179759e-04 -6.6479824952608976e-04
114 -4.6235838240094295e-04 6.5728915802472278e-04 -5.9430414391491875e-04
115 -4.1690426947963176e-04 5.6237786689766799e-04 -7.2149796296967674e-04
116 -4.9101133528613964e-04 7.3821519062009118e-04 -4.5023061388590362e-04
117 -2.8037981903681876e-04 8.9337359717278392e-04 -3.2475183665072409e-04
118 -2.8148005019604970e-04 7.7390880829956792e-04 5.6505072569849489e-04
119 7.0172694592104945e-04 6.6243544304079780e-04 2.1956483835501741e-04
120 -2.8809900869762774e-04 5.7429051777376113e-04 -7.7695869874515691e-04
121 -3.6715959179899635e-04 4.5961249206986373e-04 -8.2196588419325553e-04
122 -4.9107096383549462e-04 4.6287383998236940e-04 -7.4689221877526091e-04
123 -4.3149193893342314e-04 3.5675512471823210e-04 -8.4315067487978040e-04
124 -5.8037828411244905e-04 6.3939267717561140e-04 -4.9581318413707246e-04
125 -6.0053712864457313e-04 7.0317219055304899e-04 -3.5892915966294998e-04
126 -6.8835049221887623e-04 5.9203047056294615e-04 -4.0219364013090316e-04
127 -4.6479676082926695e-04 8.4129069236695258e-04 2.3554041616290528e-04
128 -5.6579649617957944e-04 3.5273361984348224e-04 -7.5459641626789218e-04
129 -5.0538928424875308e-04 2.4247809983876526e-04 -8.4260255307495955e-04
130 -6.3144247618382074e-04 2.3530502362937428e-04 -7.4786815471217726e-04
131 -5.6873369441520273e-04 1.1990000876004950e-04 -8.2750751907327146e-04
132 -6.8593684879511704e-04 9.9160995688563858e-05 -7.2899396439818635e-04
133 -6.0747265634427186e-04 -7.3687594479931889e-06 -8.0714542270227433e-04
134 -7.1570779788484944e-04 -3.4933022919330753e-05 -7.0443890344979517e-04
135 -6.3168247069839015e-04 -1.4418250682635836e-04 -7.7276193648470755e-04
136 -7.8548473468083974e-04 7.7278218220059509e-05 -6.1512868857738667e-04
137 -8.0946308093142341e-04 -6.3221480928683349e-05 -5.8265972935927146e-04
138 -8.6655561230901130e-04 4.8060166269160899e-05 -4.8850677497480621e-04
139 -8.8276926131901682e-04 -8.8001996867515916e-05 -4.4982865236923333e-04
140 -9.2793534314682417e-04 1.1082367375536186e-05 -3.5043411354543103e-04
141 -9.3446082043287129e-04 -1.1871687025063916e-04 -3.0858778484134646e-04
142 -9.6606037332717194e-04 -1.2461659045227826e-05 -2.1418370344008857e-04
143 -9.6346749096428591e-04 -1.4331675805196424e-04 -1.7264026306119758e-04
144 -9.8449209107587905e-04 -3.0854016587504766e-05 -8.3327702618253140e-05
145 -9.7514276662391064e-04 -1.5757319591676468e-04 -3.6968019194561280e-05
146 -9.8571258829524685e-04 -4.5357420898927304e-05 5.7397538836720800e-05
147 -9.6812136606210485e-04 -1.7182912553708336e-04 1.0514689309075613e-04
148 -9.4635378113179763e-04 -2.8580865430087826e-04 1.1474983239498821e-05
149 -9.2888927814146767e-04 -3.0522801392968537e-04 1.5136847543559913e-04
150 -9.3873069259775425e-04 -1.9185313610540889e-04 2.5118174094121290e-04
151 -8.8974429762045848e-04 -3.2359443119249964e-04 2.9408962428935587e-04
152 -8.8996935116237089e-04 -2.1087304073764152e-04 3.8751527575772726e-04
153 -8.3298753447683940e-04 -3.3025971533286939e-04 4.3146682107903211e-04
154 -8.8411836258603003e-04 -2.1701405301205933e-04 -3.9715147460595484e-04
155 -8.2454021896272384e-04 -2.1294273145379392e-04 5.1885604057704839e-04
156 -7.5776446224133220e-04 -3.2798537883055843e-04 5.6194941188492326e-04
157 -8.7511537586166795e-04 -7.9562144796114262e-05 4.6789030550683987e-04
158 -7.3777177197292278e-04 -2.1076505298491842e-04 6.4463877188449632e-04
159 -6.5734323913846924e-04 -3.3339333156857530e-04 6.8179775797284003e-04
160 -9.8471481814141684e-04 8.2664663916306934e-05 4.3689902077503693e-06
161 -6.3294612081395694e-04 -2.0957039803870753e-04 7.5540198111333028e-04
162 -5.4058505558514033e-04 -3.2362750325045671e-04 7.8907970116840636e-04
163 -5.1523703342265601e-04 -1.1194199876091489e-04 -8.6587661688496988e-04
164 -5.4427582370691256e-04 -2.4595616935084837e-04 -8.1559770546747842e-04
165 -7.0227955519486891e-04 6.4192609485745297e-04 -2.7450026775218387e-04
166 -1.5219576230253703e-04 2.1161947487951865e-04 9.8778894552518470e-04
167 -2.2100167682367723e-04 3.1648485401286055e-04 9.4249578337024487e-04
168 -4.2677418033650510e-04 -2.1384435732109817e-04 -8.9656940464566414e-04
169 -4.4474424402515692e-04 -3.3954249808623184e-04 -8.4395090190279485e-04
170 -5.5433106362809989e-04 -3.7922531003604427e-04 -7.5084515569999216e-04
171 -4.4868886550313925e-04 -4.7115108968220871e-04 -7.7068205244137369e-04
172 -5.5797745802564722e-04 -5.0734032337346256e-04 -6.6142909157710652e-04
173 -4.4450375037131414e-04 -5.9739373976316467e-04 -6.7309818733216715e-04
174 -5.4502111430765007e-04 -6.2135954742345892e-04 -5.6091093348709130e-04
175 -4.3122296640971699e-04 -7.0810059494567739e-04 -5.5713467071503585e-04
176 -7.6561776807335027e-04 -4.2975713336271021e-04 4.6924717789021265e-04
177 -5.2777741021073311e-04 -7.1394420895609721e-04 -4.4945519931536925e-04
178 -4.0006271247149735e-04 -7.9834487245292358e-04 -4.3889373660278451e-04
179 -3.0539845690169152e-04 -7.7845286806647190e-04 -5.4537214778704532e-04
180 -2.6844519877595628e-04 -8.5909185191870949e-04 -4.2348674057753071e-04
181 -1.6801499324040555e-04 -8.2942167980151944e-04 -5.2881864132212986e-04
182 -1.3344335967970447e-04 -8.9922754464214730e-04 -4.0278152295964434e-04
183 -3.5432227430110432e-05 -8.5296103955633874e-04 -5.1660048539293394e-04
184 -4.9960531293594469e-06 -9.1748011855037354e-04 -3.8187722591489489e-04
185 -9.3645331328848406e-05 -9.4847428974793597e-04 -2.7372026692338506e-04
186 4.2073078390035269e-05 -9.5850275251554843e-04 -2.4894687457352043e-04
187 -5.3341662053913275e-05 -9.7731658630817518e-04 -1.4883946188060297e-04
188 8.6402006317022647e-05 -9.7826182388163698e-04 -1.2451131499429603e-04
189 -8.5648583068817377e-06 -9.8910876664485507e-04 -2.0438751659438379e-05
190 1.2025836704289720e-04 -9.8198628507235397e-04 1.1735531702818340e-05
191 3.3960392447909253e-05 -9.8241612430156238e-04 1.1578116658177369e-04
192 1.6206601632072671e-04 -9.6544782556353987e-04 1.4849761701680544e-04
193 7.3241912841859907e-05 -9.5700587885579730e-04 2.4833172966842672e-04
194 2.0502808900918769e-04 -9.6396348737030468e-04 -8.8496856071392256e-05
195 2.0067432048282444e-04 -9.3089019435167882e-04 2.7767079909138154e-04
196 1.0215718996241580e-04 -9.1288767479643903e-04 3.7997946200624312e-04
197 1.1246629522731008e-04 -8.6539417439609469e-04 -4.8280746493269366e-04
198 -9.1763623222539502e-05 -9.8161764444709308e-04 8.2344706439072926e-05
199 2.3315873390508562e-04 -8.7906880556895973e-04 4.0272662022370015e-04
200 3.2776789740310383e-04 -8.8801176000848309e-04 2.9776494402868119e-04
201 3.5434902067299040e-04 -8.2700124690494696e-04 4.2535306811974070e-04
202 1.3223759830713870e-04 -8.4848559846892031e-04 5.0811813928433396e-04
203 4.4839300057861707e-04 -8.2568379796049988e-04 3.2042272627127950e-04
204 -3.3652063565871219e-06 -8.7608295097378781e-04 4.7532145991871890e-04
205 3.2702378454722706e-05 -7.9688603548996092e-04 6.0560710965918221e-04
206 -8.9409790126767762e-04 -4.1833728079050951e-04 5.9643819657009974e-05
207 -7.4128027686027047e-05 -7.6940478794556341e-04 -6.3877795024254284e-04
208 -1.0751650635652151e-04 -8.1774641166110532e-04 5.6500243695820822e-04
209 -7.0414071182135063e-05 -7.3011735448342890e-04 6.8697956958748948e-04
210 4.6727279982769487e-04 -7.5790844616034463e-04 4.4568504180909804e-04
211 5.5722451981021564e-04 -7.5202457933972475e-04 3.3105026830624132e-04
212 -4.8907643666639734e-04 -7.9575216495449076e-04 -3.3493641170589727e-04
213 6.5221432438486812e-05 -7.0289204605137928e-04 7.1742831424957535e-04
214 -3.5745690173837641e-05 -6.2826606758601712e-04 7.9031086084327417e-04
215 -3.1970493208455800e-04 -3.1310614394089003e-04 -9.1300288895555283e-04
216 -2.0506188791409301e-04 -7.4548204474557769e-04 6.3832535677818081e-04
217 -2.3921212423844382e-04 -8.2150819767472423e-04 5.1319850863490164e-04
218 5.3859333926322610e-04 -8.0520845645960988e-04 2.0874923618147625e-04
219 6.5341323679625420e-04 -7.0997095939974832e-04 2.2753464912009401e-04
220 6.1851160159473765e-04 -7.6686451541950007e-04 9.7436514665722780e-05
221 -6.2998344957865455e-04 -6.2883361490850603e-04 -4.4423662658266892e-04
222 7.2482541299818623e-04 -6.6467212457188920e-04 1.1604241576104828e-04
223 6.8011887201604006e-04 -7.1873228171042292e-04 -2.0334908731576674e-05
224 -3.0800244377272179e-04 -1.7719003990530066e-04 -9.5551651435727357e-04
225 -9.4936040967971030e-04 1.0752746798250240e-04 -2.5912602928562724e-04
226 9.6316691545615169e-05 -5.9373886111335349e-04 8.1337235039854387e-04
227 -2.1293388973100247e-06 -5.1795581818675344e-04 8.7289916067014148e-04
228 -5.1847882997260958e-04 -1.8566865401657410e-04 8.5029420979463709e-04
229 -5.9507121121133821e-04 -7.9876810144288967e-05 8.1270287445913596e-04
230 6.5608989838678781e-04 -6.5489975606365354e-04 3.5707229314609296e-04
231 3.7671658851669493e-04 -7.5082928371950986e-04 5.4020224438112421e-04
232 4.9848527688035166e-04 -6.6433210855855592e-04 5.5715956051022037e-04
233 7.7413331900050601e-04 -6.1641697333115033e-04 -5.2130975555539221e-06
234 7.3044129925736571e-04 -6.5450361932048722e-04 -1.3586225113310270e-04
235 -3.7372183909671077e-04 2.4081756856270207e-04 -9.1409740051529096e-04
236 3.0927132239559873e-04 3.4064203307434306e-04 9.0635875183157216e-04
237 -4.2506381210355340e-04 -2.9477681795300411e-04 8.7298914262574987e-04
238 -8.3305420549584729e-04 1.9251102273462703e-04 -5.1335262340707619e-04
239 6.2755910819356313e-04 -7.4995580683998042e-04 -1.5662619399861282e-04
240 6.7147367503628394e-04 -6.7677372039436979e-04 -2.7357876679325488e-04
241 -5.7477724089186240e-04 -4.3903949720341414e-04 6.9773690812740532e-04
242 5.6333092970201537e-04 -7.6219525871224815e-04 -2.9337154436239425e-04
243 5.9946647226313398e-04 -6.8270597587957998e-04 -4.0464398157615900e-04
244 6.9921655107506731e-04 -5.8932979866776884e-04 -3.9022011684449473e-04
245 6.1694563492618361e-04 -5.9145897201149918e-04 -5.1505276151001997e-04
246 -2.0262451624372297e-04 -2.5566799189541048e-04 -9.6675305432203753e-04
247 8.1041840020745532e-04 -5.5592164439595740e-04 1.2044562066335561e-04
248 2.3851772720112190e-04 4.4297067141047170e-04 8.8120081956762812e-04
249 -3.9604053098719406e-04 -1.5217210150175406e-04 9.2513807009801132e-04
250 3.6153374940559762e-04 4.4546071511633795e-04 8.3349977921480251e-04
251 -2.1256286399774210e-04 -3.7713986488037025e-04 -9.2055073536930865e-04
252 -8.7889969191959921e-05 -3.2625868975314062e-04 -9.6274758198004371e-04
253 3.7774471982386534e-04 9.0254193508486835e-04 1.4370528591351172e-04
254 -6.1053542643979943e-04 7.4514816046676092e-04 -2.2574381708163842e-04
255 -7.0582230666515285e-04 6.7693653602369879e-04 -1.4370804348723065e-04
256 -7.8753309992601807e-04 5.6991368492945117e-04 -1.8179731187244500e-04
257 -7.8206303695390526e-04 6.0175191001981480e-04 -4.7442934584196285e-05
258 -2.1990559790301676e-05 4.3914797157694783e-04 9.1675706654147299e-04
259 -3.0233060311683633e-04 -2.5332536418332607e-04 9.3936261309532701e-04
260 -2.8159534964340179e-04 1.9568293036107860e-04 9.6036621019417818e-04
261 -3.5002185746043111e-04 3.0909052928251586e-04 9.0223182988830627e-04
262 -2.6836767138242756e-04 -1.3893772951483935e-04 9.7537431739432056e-04
263 -1.7605285442370984e-04 -2.2034514757294108e-04 9.8200500379094129e-04
264 -8.5288197164968985e-04 4.9205158230375195e-04 -8.3784459475668650e-05
265 -8.3412203767521372e-04 5.2643098253208785e-04 5.7658109514994786e-05
266 -3.3645419806274728e-04 -7.4170076362976205e-04 5.8036007809258896e-04
267 -3.6741658364930756e-04 -8.0731629783539673e-04 4.5203545489346626e-04
268 5.1286308333505079e-04 -6.8006962342160844e-04 -5.2004801712260114e-04
269 5.2188269529692788e-04 -5.7589550272823858e-04 -6.3305077643247519e-04
270 6.2066277847026364e-04 -4.7951618965244895e-04 -6.2356817301034218e-04
271 5.1167620523475570e-04 -4.6082004841954400e-04 -7.3491701674833186e-04
272 4.0326511658376953e-04 -5.5065377794664343e-04 -7.4101719433198536e-04
273 -2.8805749753827147e-04 4.2081354429071241e-04 8.7661615796075156e-04
274 -4.2252689302557504e-04 4.1063020133895250e-04 8.2141591480346012e-04
275 3.8823405828767731e-04 -4.4302792108556706e-04 -8.2262281167003724e-04
276 2.7435355345082610e-04 -5.2284891689328961e-04 -8.2161231449203950e-04
277 -3.3081622948710055e-04 -3.7271698275010210e-04 8.8456982190067066e-04
278 -1.3323786445305718e-04 9.7131985984507774e-04 1.2495804513660115e-04
279 8.1150602355662251e-04 -5.5299949479630482e-04 -1.2355443966316531e-04
280 -2.3228951382500064e-04 4.7083732939182853e-04 -8.6682710438738526e-04
281 -1.4931321166918867e-04 5.7534381282285261e-04 -8.1715668094942400e-04
282 8.5071627678213297e-04 5.0533588218648888e-04 1.6943292732950402e-05
283 1.3114250624570280e-04 -4.6793223971764044e-04 8.9259129162042039e-04
284 -9.7630251217553242e-04 6.3576133431114535e-05 1.4221750019428441e-04
285 -9.0221228171481738e-04 -3.9777250437137140e-04 -7.5216562225629516e-05
286 -8.4185918901203013e-04 -5.1806275712880042e-04 -2.8721355376405480e-05
287 -8.2568272979966059e-04 -5.3435866722080722e-04 1.0652161032328161e-04
288 -7.6258171728156891e-04 -6.2927546473006823e-04 2.4647657230618937e-05
289 -7.4280598941428816e-04 -6.3419708006553360e-04 1.6003598210562019e-04
290 -6.6877405286120892e-04 -7.2406077251694321e-04 8.3081110637549062e-05
291 -1.9340706899871751e-04 -9.5679762162331240e-04 -1.6617387538968837e-04
292 -2.7537541141247636e-04 -8.7532084404409770e-04 3.8189784205160495e-04
293 -3.3768550023857827e-04 -5.5364552120072122e-04 -7.7287484101465972e-04
294 -8.9609372482184665e-05 -4.7885171087427104e-04 -8.9202034684052710e-04
295 -4.8406222737055609e-04 2.9210415889224811e-04 8.3947692071968227e-04
296 -5.4847930407668282e-04 3.9433309172997596e-04 7.4648879367710365e-04
297 -8.5564738037585870e-04 4.4974476158144187e-04 -2.1143526474804651e-04
298 -6.1368791617685879e-04 2.6750186581618791e-04 7.5257841219269551e-04
299 -6.6023843997500158e-04 3.7570103941181830e-04 6.5368956777686442e-04
300 -5.9374764519620933e-04 4.9283719524002292e-04 6.3844043318272558e-04
301 -7.0369930175941402e-04 4.5870188476171566e-04 5.3782659999557616e-04
302 -7.6090410089044050e-04 3.3862862886582259e-04 5.4953899274675830e-04
303 -3.0487237304939523e-04 -6.6120546759294992e-04 6.9272935169636680e-04
304 -6.2697642795492541e-04 5.7854174276389327e-04 5.1540114619734749e-04
305 -7.9612606715164847e-04 4.0881379910455006e-04 4.3256331822125622e-04
306 2.2238326838387265e-04 -5.4741987540785325e-04 8.2165323507561901e-04
307 2.4669681562369166e-04 -4.3227920693228575e-04 8.8556825032599104e-04
308 3.5169434481624733e-04 -5.0021014416223408e-04 8.0538332764911521e-04
309 -4.5146030960110738e-04 -7.2952727796042431e-04 5.0758749061282347e-04
310 -8.4532230455008927e-04 2.8592914090479286e-04 4.3816575401189672e-04
311 -4.0864062221721107e-04 -8.4754193321062666e-04 3.1534666901284495e-04
312 -7.5309389751614304e-04 6.3352596767346861e-04 8.7129274208275998e-05
313 -8.4327213764223761e-04 -4.9045588769176720e-04 -1.6618838261499842e-04
314 -5.6694510706803009e-05 1.1504195409951071e-04 1.0158167179660389e-03
315 -8.7437688435318579e-04 3.5040023798008004e-04 3.0893161705254375e-04
316 -9.6503084274758317e-04 1.9155605087301997e-04 9.3391752362267756e-05
317 -1.1154748455750967e-04 7.5842092898301442e-04 -6.4413187660075123e-04
318 2.7264295725854643e-04 -4.1039409657848193e-04 -8.8807381089813344e-04
319 -6.8273916513299053e-04 -7.1330268509713361e-04 -5.8218805111218359e-05
320 -5.9079280555533221e-04 -7.9281132009609908e-04 6.0978838701038249e-06
321 -6.4960346501852120e-04 -4.1435200384845497e-04 -6.4059416522470401e-04
322 -7.2309948513061254e-05 -2.0319893154799884e-04 -9.9950696468551360e-04
323 5.0177729325524465e-04 -8.4938785918448880e-04 8.0503093747950658e-05
324 -6.0622977474482983e-04 7.7484649971012933e-04 -9.0658479756521861e-05
325 2.8054450679700598e-04 5.4635632158428829e-04 8.0160610105686823e-04
326 2.9273912354042770e-04 -6.2941735582799907e-04 -7.2917438348443677e-04
327 1.6183834420830469e-04 -5.9777530236446879e-04 -7.9851015623244180e-04
328 4.0813628330735969e-04 5.3587995834239943e-04 7.4863416572227561e-04
329 4.8222407255093207e-04 4.3764529895191532e-04 7.6978316813109445e-04
330 4.3953698888960353e-04 4.2894794062484814e-04 -8.0106501033981700e-04
331 -7.1495344955471359e-08 9.7369046000710569e-04 1.7237812991592561e-04
332 -2.8033413958792606e-05 9.8675017719543692e-04 3.8030630766008483e-05
333 -1.5881614612520828e-04 9.7485682303509555e-04 -1.1635760290238892e-05
334 9.7706916057231457e-05 9.8020852614205570e-04 7.7871921133657455e-05
335 3.6718065753077521e-04 -3.7310957093907753e-04 8.6937642487018541e-04
336 4.5993960135304524e-04 -4.3910023152946085e-04 7.8437049277946312e-04
337 -8.0674530598509283e-04 2.1160435900238557e-04 5.4729040162836357e-04
338 -3.4416821838984983e-04 5.2147042587074276e-04 7.9227756559974518e-04
339 -1.1975775185911172e-04 4.6842807269304940e-04 -8.9226231564544858e-04
340 3.9673097317275780e-04 -3.1755273576023819e-04 -8.7847927922956020e-04
341 2.2869307009144070e-05 -2.8552516959529214e-04 -9.8034111299046293e-04
342 -9.1752834450056179e-04 3.5527209959008207e-04 -1.0259018167093587e-04
343 2.8381410523233556e-05 -4.0031423546516497e-04 9.3659989083327779e-04
344 -5.1059090377497738e-04 6.0957791445820830e-04 6.0657377747597141e-04
345 -5.3237336469681164e-04 6.9819823042331392e-04 4.7005015703255852e-04
346 -6.5006719548523200e-04 6.4665972654853569e-04 3.8004957502555168e-04
347 6.1650164442493798e-04 -3.5544631055335694e-04 -7.1092755296850766e-04
348 7.1111022383974398e-04 -3.6864723908093967e-04 -6.0032079445256395e-04
349 5.2653716347229689e-04 5.2260197407916534e-04 6.7569938917171502e-04
350 5.9652258339481601e-04 4.1008415753608532e-04 6.9655806882050995e-04
351 6.3805736347710099e-04 4.9199870801336322e-04 5.9223592206310034e-04
352 6.9849301874296845e-04 3.7481643342349153e-04 6.1110196730253567e-04
353 7.3666955887641088e-04 4.5321633811468262e-04 4.9513119051251505e-04
354 -6.3953476141749728e-04 -7.2505096852871034e-04 2.1489608786500763e-04
355 2.5975710530163747e-04 5.4208380319894296e-04 -8.1142899637010990e-04
356 1.3741519189607824e-04 5.6150621561060102e-04 -8.2957160052630845e-04
357 -6.7552802651633514e-04 3.3018210914304800e-04 -6.6251137548206077e-04
358 5.1470699287996995e-04 -8.2822108509673649e-04 -1.7323949139145595e-04
359 4.4075117867913596e-04 -8.3682365468673895e-04 -2.9960204243538815e-04
360 -8.1396569765403105e-04 4.7700241184358389e-04 3.0289197671435789e-04
361 -1.3833792763599478e-04 -5.4588492705933073e-04 8.4206298649427513e-04
362 -1.9449280241892598e-04 3.6876387725296410e-04 -9.2781888528438515e-04
363 -2.1873392301389295e-04 5.2244190711541144e-04 8.3807903152996986e-04
364 -5.1024966576737087e-04 8.3013856184305159e-04 -1.6736791944229284e-04
365 1.6303869391974424e-04 5.4979569163355235e-04 8.3345478363333581e-04
366 -3.6740511655310377e-04 -3.1018191811930576e-05 9.5023748127492794e-04
367 -6.9900901484713752e-04 -6.3744104704198108e-04 2.9739726100178672e-04
368 2.1216722561148222e-04 6.6518324349593746e-04 7.2469337939007393e-04
369 8.0462828251152250e-05 6.2764219436284362e-04 7.8467360245094400e-04
370 7.0407152648238591e-04 -2.4380139971520948e-04 -6.7297625363853307e-04
371 -5.3645280122830742e-04 1.6831174600996968e-04 8.4188721777648428e-04
372 -6.6419305129705004e-04 1.3548017930205760e-04 7.4522990599391783e-04
373 5.5641010242319896e-04 8.1506612587692122e-04 -5.4181825243161460e-05
374 -1.5777540980894706e-04 -9.6032967399812321e-05 1.0065112352790478e-03
375 -4.6907798154655524e-05 -1.8057266013306474e-04 1.0062181023366445e-03
376 -3.0657730677252127e-04 -9.1060845142646590e-04 2.4354382301546544e-04
377 -4.3361093611479740e-04 -8.7490983557868556e-04 1.6768120398931885e-04
378 -9.1454983614283646e-04 1.9836061624899033e-04 3.3000755984302513e-04
379 4.1811016831553135e-04 6.3102678962354865e-04 -6.5781869775644345e-04
380 1.7102633120559831e-04 -7.0524208277834789e-04 -6.9519881597329952e-04
381 2.9639622682317817e-04 -7.3063189505706268e-04 -6.1724933973060741e-04
382 -8.9220675424291703e-04 -3.7350175716326014e-04 -2.1053988479094292e-04
383 -8.2342379935584345e-04 -4.6408390468898059e-04 -2.9850113760720212e-04
384 -7.6525563599508359e-04 -5.7519730018405757e-04 -2.5527869112422079e-04
385 -1.7031283074410344e-04 -9.3038466644986613e-04 2.9970367011234968e-04
386 -6.6179930184184397e-04 5.2340157027826650e-04 -5.3098713776729195e-04
387 -7.5785017455055827e-04 4.7351903501567649e-04 -4.3499094903539856e-04
388 8.6824490444598458e-04 2.4601471535008545e-04 -4.1726873274227521e-04
389 -8.9842163614592765e-04 3.3163134442602490e-04 -2.5027334817453301e-04
390 -4.9918211278392611e-04 8.5168773820069020e-04 -3.4732190759613840e-05
391 -4.0015519831263798e-04 8.9628041772893765e-04 -1.1439599330486004e-04
392 -5.8653538014025565e-04 7.9350365930471540e-04 4.1435479336560806e-05
393 -5.8776055151569086e-04 -7.8564987628276870e-04 -1.2740247941960881e-04
394 -4.9800053459507054e-04 -8.5192448136781063e-04 -6.2665947756325755e-05
395 6.8430441913864694e-05 9.8390901090552240e-04 -5.6320976303604187e-05
396 2.0380585159006419e-04 9.6651294220046944e-04 -2.1394752106994386e-05
397 5.1179695892450525e-04 3.2892905936443670e-04 -8.0657895765131151e-04
398 2.6958108790958236e-04 -2.9593293627086791e-04 9.3690893576951631e-04
399 3.8659769582799139e-04 -2.2183065687892689e-04 9.1517878929469156e-04
400 -2.7231968763820525e-04 6.0920084172068562e-04 7.5371665925824498e-04
401 -1.5828222765760228e-04 6.1707683248573403e-04 7.8056126720850460e-04
402 3.2514793746462044e-04 -6.1167337843660472e-04 7.3098216705209192e-04
403 6.6007306118029277e-04 2.8323268859774714e-04 7.0291361647952574e-04
404 6.5641174942991762e-04 5.8239395812170541e-04 4.7192870780912916e-04
405 -3.1476416885838987e-04 -9.3265255996344634e-04 1.0112034623090470e-04
406 2.6956309389154098e-04 -2.7955055812977985e-04 -9.4165791071459232e-04
407 3.6551792040478515e-04 -1.9166770114665993e-04 -9.3047038998482370e-04
408 8.4745936271679600e-05 4.5049177421084579e-04 -9.0646204056516583e-04
409 -8.7901651281467889e-04 4.2266154748721389e-04 1.6910341350588639e-04
410 -4.4690211727098188e-04 8.0410548867369141e-04 3.7170216056649691e-04
411 5.5318511914408130e-04 4.2361690169390176e-04 -7.2378761218178480e-04
412 4.4698222449588343e-04 6.3861843742831165e-04 6.2956878988970860e-04
413 7.9824915710599185e-04 3.0867029098253021e-04 5.1225780906364758e-04
414 8.2487139767681685e-04 3.9211812698939106e-04 3.9094762945628565e-04
415 5.9132946609817288e-05 -1.5180654171571489e-04 -1.0101332218182802e-03
416 -9.6203008576402729e-04 2.2261275215526872e-04 -4.0459271231400377e-05
417 -7.7270402265245864e-05 3.5816690909312103e-04 -9.5017748544281178e-04
418 -1.3592887747498273e-04 2.5124491631304949e-04 -9.7991867241151187e-04
419 4.6016970115154883e-05 1.5226320196721317e-04 -1.0094938470866538e-03
420 -7.6308184229030050e-05 -9.0630630284454705e-05 -1.0165506583628232e-03
421 -9.3489288734577151e-04 3.1588132651904521e-04 5.5295798606492830e-05
422 7.8944603494702874e-04 -2.5406301016497824e-04 -5.5741468330232260e-04
423 7.9446276128133995e-04 -3.7172247943175412e-04 -4.7284119650758239e-04
424 2.3775945909811200e-04 9.5291493198345787e-04 1.1223079364548688e-04
425 4.0003166487773894e-05 -6.7772745346883609e-04 -7.4530300933902446e-04
426 3.4668804002683712e-05 -5.4269277738625986e-04 -8.5562947203911483e-04
427 -7.8736217807492243e-05 -6.0249266438030841e-04 -8.0706360842349530e-04
428 3.9907045509159176e-04 -8.8871588074104996e-04 -1.7677063574297042e-04
429 3.2597094605099511e-04 -8.9140575426867026e-04 -2.8759570862581842e-04
430 3.5606652783383479e-04 -8.3400524914225757e-04 -4.0824262933504795e-04
431 -5.9688539353248277e-04 -7.1814235229588925e-04 3.3540596400737853e-04
432 -6.3783275753591471e-04 -6.2566335930862662e-04 4.3860978675857508e-04
433 1.5810516730936777e-04 -3.4621741672541173e-04 -9.4541361636704961e-04
434 -1.2224914131140157e-05 5.6485524968953506e-04 -8.4016169152661469e-04
435 6.8157129804053538e-05 6.6617756999871327e-04 -7.5184588379966812e-04
436 8.7497017221558455e-04 2.5642636361962104e-04 3.9526641005400699e-04
437 8.9096029105889963e-04 3.3824343511442204e-04 2.7178902745687188e-04
438 8.3293614536574911e-04 4.6269493559066851e-04 2.7113051280397112e-04
439 7.4959193319672885e-04 2.4079506957024044e-04 6.1899766682495781e-04
440 -5.6709989230646326e-04 7.5068803328019989e-04 3.1188309045161185e-04
441 -6.8421957773745620e-04 6.7792068683044651e-04 2.2987093303354254e-04
442 6.7983423388999085e-04 -1.2738971340824228e-04 7.3206955380611947e-04
443 7.0887779183650241e-04 -2.4715007356470616e-04 6.6668731690652815e-04
444 8.0021051975469239e-04 -2.5087336444372431e-04 5.4260357372420628e-04
445 7.3301281513124018e-04 -3.6736164105359630e-04 5.7228283764223175e-04
446 8.0311714182960221e-04 -3.7262604857886644e-04 4.5626488792658437e-04
447 7.2772524645693258e-04 -4.7674288224088234e-04 4.8675411091321041e-04
448 6.5402435379118093e-04 -4.7455131892506342e-04 5.8997395609231170e-04
449 7.9561241029316751e-04 -4.7473958650372629e-04 3.5866571512826177e-04
450 8.6281242887659084e-04 -3.6364961884615153e-04 3.3012107159560250e-04
451 6.2705219694790396e-04 -5.9496600933622368e-04 4.9863497749664631e-04
452 6.8563516520898254e-04 1.2766761134233790e-04 7.2668868755552767e-04
453 -5.6949058122546942e-04 -7.9746778016373759e-04 1.3735840197264427e-04
454 3.3305604216028251e-05 -4.1435208930989611e-04 -9.2952148822544390e-04
455 8.8805921440230501e-04 4.0913359156230880e-04 1.5208199594893732e-04
456 4.8918882406623516e-04 -2.2054128587341241e-04 -8.5999552544384870e-04
457 4.9936815860482451e-04 5.2009678369875330e-04 -6.9866928268930465e-04
458 6.0225486657364269e-04 -2.4902808170164983e-04 7.7108513985652645e-04
459 1.3094279925535474e-04 9.5699436881447209e-04 2.1440594640479774e-04
460 6.2831599743216600e-04 6.8653576391132943e-04 3.4406769886686882e-04
461 3.8063730088242560e-04 5.2760467974159806e-04 -7.6935002089839881e-04
462 -4.1804488851828701e-04 6.9509913695686959e-04 5.8284558839582319e-04
463 7.7020450878792133e-04 -1.2818711506288946e-04 -6.2785791697118540e-04
464 8.6544468952776533e-04 -2.4999500884120347e-04 -4.2224308810412609e-04
465 8.6385552014507953e-04 -3.6580867938362484e-04 -3.2463419269178676e-04
466 -8.0436423440335385e-07 8.1888475964025540e-04 -5.7108962774551041e-04
467 9.2176350366749739e-04 -2.4254455740768221e-04 -2.7315480519138303e-04
468 9.1011608811281954e-04 -3.5037554229849755e-04 -1.7482681263967227e-04
469 1.7286709865299427e-04 3.3457456527440061e-04 -9.4614182519348153e-04
470 8.4203594365338567e-04 -4.6877828777554519e-04 2.3194200543600360e-04
471 9.0613689139637467e-04 -3.4924168235683648e-04 1.9473973956270565e-04
472 2.0160246257462446e-04 7.6432966589915332e-04 6.1329475159521316e-04
473 1.5456803576225473e-04 -2.3112298754668568e-04 -9.8271006120948380e-04
474 2.2696640091297496e-04 -8.9143578239927015e-04 -3.7580678726882192e-04
475 5.5390308594714948e-04 7.6322041784070269e-04 -3.0468507044752467e-04
476 3.1569496622566419e-04 7.0979090801580086e-04 6.3159651688997321e-04
477 2.8356272778188083e-04 7.1908672581479560e-04 -6.3646409224337732e-04
478 -1.8698035966267952e-04 -5.7149075408780047e-04 -8.1182833557485806e-04
479 -1.7293510263983455e-04 -6.8168997759731243e-04 -7.1895597401609571e-04
480 -3.9100631756752588e-04 8.2417555578999391e-04 -3.9154750317961219e-04
481 1.9887848735336178e-04 6.5635414664072988e-04 -7.3582202914347671e-04
482 7.5278655708417097e-04 -5.9466471014680113e-04 2.5428182711303212e-04
483 8.8089170781828312e-04 -4.4033325904636693e-04 9.7687426106478852e-05
484 9.3421556114931415e-04 -3.1858739827693037e-04 6.4903866514631246e-05
485 6.0514598165354488e-04 -2.3115738037256858e-04 -7.7354681714926889e-04
486 4.0733178168192343e-04 1.4461785085575528e-04 -9.2009421860184647e-04
487 9.7909730021873047e-04 1.2747930759914904e-04 -6.1011560059954931e-05
488 9.4589096578397180e-04 2.6893808279613348e-04 -1.1581066446386852e-04
489 9.6067789719459450e-04 2.3122506153577419e-04 1.5836012421735582e-05
490 8.8650709328525401e-04 4.2602000635219074e-04 -1.0608368044515838e-04
491 3.4012043906455117e-04 9.2779088826024385e-04 1.3360724277167608e-05
492 2.9872106690635519e-04 9.3301738467016970e-04 -1.3759794403665364e-04
493 4.3478677258889883e-04 8.8394311512900745e-04 -7.9054366696467766e-05
494 9.0667070107691846e-04 -3.9442150308662525e-04 -3.0697708381411826e-05
495 9.4742259050272436e-04 -2.7812357729916710e-04 -5.9830293774501472e-05
496 -3.9258123313199415e-04 9.0626705923326769e-04 1.8616763164986812e-05
497 9.7741848394020114e-04 1.2701719725135443e-04 8.4580876219515259e-05
498 6.6521095813021108e-04 6.7575397057425331e-04 -2.8779192124759538e-04
499 9.8002330481662594e-04 -1.2494002290118782e-04 -6.1805197656241060e-05
500 9.5630625831052540e-04 -1.2172023039865603e-04 2.2880230286903170e-04
501 9.1679530779513268e-04 -1.2086902023063235e-04 -3.6265740725744202e-04
502 8.5627620135495409e-04 1.2131191527296040e-04 -4.9548150769769235e-04
503 8.5318398331840108e-04 -1.1960439609331773e-04 5.0255694516392925e-04
504 4.3608843491875742e-04 1.1270502602585230e-04 9.1182148239325918e-04
505 4.3745776264787116e-04 3.3010177147522915e-04 8.5203748190257333e-04
506 6.4517784896762063e-04 -3.5727005259070455e-04 6.8193842875931331e-04
507 3.3275212882265292e-04 -1.1254731643387128e-04 9.5760653315994258e-04
508 8.0728572497987022e-05 -1.2760372129042000e-04 1.0129792907489438e-03
509 1.5466037730846389e-04 -2.2719494450828911e-04 9.8405721033939845e-04
510 2.6900498239453566e-04 -2.0151288198477161e-04 9.6267335424338879e-04
511 -2.0164459721321531e-04 6.7875562474593897e-04 -7.1279977059501040e-04
512 2.7077813047389271e-04 9.2174948140627750e-04 2.3875408413405144e-04
513 5.7248054054182690e-04 -8.0643335698507557e-04 -3.7230915195020158e-05
514 2.4847192983168523e-04 -9.5661943472372547e-04 4.6579213155232406e-05
515 2.9169218866643634e-04 -9.3040900302661129e-04 1.7389210240486116e-04
516 -5.4029552709460049e-04 5.5976651240043085e-04 -6.2974533512206337e-04
517 7.6533005373015817e-04 -5.7679902039454935e-04 -2.5402287666475383e-04
518 -1.3815841006265222e-04 -9.7853571887401977e-04 -4.5079606010493746e-05
519 -2.7992841324897500e-04 -9.4822069542377081e-04 -4.8114212278310734e-05
520 -3.2285571893811465e-04 -9.1618225756288950e-04 -1.9281508286981403e-04
521 -7.7812082813357776e-04 5.2932748243071388e-04 -3.1044538977762263e-04
522 -9.7437604231146943e-04 1.0659268038279047e-04 -1.2890962675262476e-04
523 7.7477243210862066e-04 6.0323132567030981e-04 1.1674612069007795e-04
524 -7.9362992423206405e-04 -5.3905549555628316e-04 2.4725959540732772e-04
525 7.6104222524593537e-04 5.1253742618309964e-04 3.7948863662140808e-04
526 4.8355679516209795e-04 -7.6447160200385678e-04 -4.1384835846456416e-04
527 -9.4296002318530552e-04 -2.7113143935589480e-04 -1.2406855473307243e-04
528 -9.3015209439012555e-04 -7.2487258318265784e-05 3.3700237177499668e-04
529 -9.0591367816782295e-04 5.5219927162722392e-05 4.0409557676551972e-04
530 -8.3716194052803295e-04 5.1555148980761555e-05 5.4149721708139653e-04
531 -7.6966992492173475e-04 -6.1073049061861917e-04 -1.1639623864774045e-04
532 -9.6667744166211312e-04 -6.0915064682663321e-05 2.0288933147955744e-04
533 -7.2749447359899582e-04 5.2952248317429684e-04 4.2123327930761352e-04
534 -6.9137012017953491e-04 7.0505954087832202e-04 -1.4581579672058822e-05
535 -2.3424458801101815e-04 -9.1758334506816623e-04 -2.9513659603825249e-04
536 6.1810066334398457e-04 7.5367120023032118e-04 -1.6870409138427175e-04
537 -1.4106074773716351e-04 -8.8465428041115785e-04 4.3395312715369507e-04
538 -4.7024805322091723e-05 9.8230828885676152e-04 -9.4677154439481997e-05
539 -1.6848497374702954e-04 9.3863636053846027e-04 -2.6469941931556477e-04
540 5.6955507599297351e-05 9.6669382294648420e-04 -2.0453710965709585e-04
541 -9.2744972308999728e-04 2.8263335987336181e-04 1.9714818906281322e-04
542 -8.6870656158699198e-04 -4.3319451457696532e-04 1.9431690576758796e-04
543 -7.9970934098341252e-04 -9.0019662672484100e-05 5.9342915301604257e-04
544 -7.5088346743708767e-04 1.3139154396104836e-05 6.6428296436662722e-04
545 -6.5138741174033585e-04 -5.2634006082894706e-04 -5.4316162970146904e-04
546 -7.3418623692174617e-04 -4.2401330383428363e-04 -5.2499529002447318e-04
547 -7.4105716891908569e-04 -2.9685169938254075e-04 -6.0264650958875366e-04
548 -6.4317008836589705e-04 -2.7971881064266100e-04 -7.2094145987755477e-04
549 2.5609807966789643e-04 -8.0845517323499885e-04 5.2679370630039763e-04
550 5.6628047481290444e-04 5.8690993362388950e-04 5.7619049756475304e-04
551 8.5856736891909641e-04 3.6504438379684844e-04 -3.3715299503347528e-04
552 8.6823205526147783e-04 -2.4693345763651561e-04 4.1832571540312589e-04
553 1.6474009481665046e-04 -7.6251756102289350e-04 6.2946355314452023e-04
554 -4.4082779969923888e-04 -6.4333813151602086e-04 6.3009875790953314e-04
555 -3.8492863406851437e-04 -5.5796530692061284e-04 7.4501491902697540e-04
556 -8.2450267642067193e-04 -4.3719543284704231e-04 3.3706882751599425e-04
557 -6.0674159345803884e-04 -7.0637483022798484e-04 -3.4259072067087588e-04
558 -7.1611206256477105e-04 2.4590413352610794e-04 6.5662175476032545e-04
559 -6.7653868753547567e-04 -4.4082257823175328e-04 5.8970850508871411e-04
560 -5.8834193141612916e-04 -5.6113067575782412e-04 5.8314969926637130e-04
561 6.2427345808226608e-04 4.7989856269959675e-04 -6.1839394450436476e-04
562 -3.1669379822800718e-04 -6.8117943252794420e-04 -6.6565973409933457e-04
563 -4.7501489951815018e-04 5.1061584212219030e-04 7.2435457183048343e-04
564 7.1034641114847371e-04 -4.8572411932467399e-04 -5.0445913539977176e-04
565 -8.6901322345747236e-05 -3.1127030762282093e-04 9.6836534625091477e-04
566 -1.0291721163079499e-04 -4.3256969966733676e-04 9.1514733091313364e-04
567 -2.0514942587976248e-04 -3.5126933230435116e-04 9.3379303446887050e-04
568 -1.7059964437045151e-04 -6.5790213655569300e-04 7.4390113792414611e-04
569 4.1450938788296807e-04 -6.6020049179169428e-04 -6.2973971040362594e-04
570 -7.0730175151071837e-04 -9.4529220994623333e-05 7.0735624712429457e-04
571 5.4960709148795439e-04 3.2238850136042426e-04 7.8220120619949102e-04
572 5.1195529565547528e-04 -3.4293121586196425e-04 -8.0095221690738632e-04
573 1.5527191114404770e-04 -3.3951296282348791e-04 9.4887590780139413e-04
574 -7.3670369273401177e-04 2.0040276342648460e-04 -6.4862893910956208e-04
575 1.5259755150333760e-04 -4.6916043452661715e-04 -8.8780954210557249e-04
576 -4.4497514479201184e-04 -4.2396930226025812e-04 8.0298481247354392e-04
577 -3.0768751607084921e-04 3.6270868539893265e-04 -8.9699572592184828e-04
578 -2.6282129648638177e-04 2.5755432571298394e-04 -9.4985246821766738e-04
579 -3.2651618378180461e-04 1.5315747074842650e-04 -9.5284686322033303e-04
580 -4.7941712312516219e-04 1.1816023984020202e-05 -8.9506810951537849e-04
581 4.5251835962725420e-04 -5.6506776936770175e-04 6.9890391293943625e-04
582 4.7654834995338716e-04 -3.1239598687189809e-04 8.3705579858584184e-04
583 -4.3721728888839064e-04 1.2820917556706190e-04 -9.0819160965384231e-04
584 -4.0749334676994168e-04 1.9009822754750079e-04 9.1170672784006044e-04
585 -4.5141293291857702e-04 6.8248997046726825e-05 9.0810016293576970e-04
586 -3.3781575713970119e-04 -4.3082469016060950e-04 -8.5230438282155030e-04
587 2.9658925263811898e-05 9.3977021674882281e-04 3.1305587326210707e-04
588 -4.0121086926574640e-04 -8.7596938690073025e-05 -9.3122975795012410e-04
589 -2.9797039156173187e-04 -4.3093931807125846e-05 -9.7515761545463099e-04
590 -1.8124426043827514e-04 -1.2878605230043277e-04 -9.9786156711265095e-04
591 -1.4862790470844184e-04 4.3195301114106458e-04 9.0764552452670809e-04
592 -5.0408588136397988e-04 7.9665051351164552e-04 -3.0476723719129553e-04
593 -2.4880324730211392e-04 -1.5282502651171717e-05 9.9089116933810954e-04
594 3.7415375966819701e-04 2.1732533614657990e-04 9.2089127586218755e-04
595 -7.9274956806863459e-04 5.5858915410816922e-04 1.9507030858680028e-04
596 4.1928318783228792e-04 -8.7710001671805718e-04 1.9066995059196924e-04
597 1.1316286352169997e-04 4.3940620710986863e-04 9.0954074213280272e-04
598 3.1137315278607642e-04 8.9418783791105191e-04 -2.9085702730959246e-04
599 2.0118642085061606e-04 -6.6159729235291303e-04 7.3226963588029462e-04
600 -5.2398547778325136e-04 -8.0000775335333071e-04 2.6034929874199186e-04
601 -8.3689319403284048e-04 4.0438117104931099e-04 -3.4565020723941055e-04
602 -8.0751259532334794e-04 3.4331979676291679e-04 -4.6877149848336108e-04
603 -7.3723917880740681e-04 -5.2944443745741221e-04 -4.0620243256624670e-04
604 -9.0191286466760666e-04 1.3657966036604593e-04 -3.9169198874543156e-04
605 -4.0308257261448916e-04 -9.0276379026070128e-04 2.4026823061837232e-05
606 -3.1908946200235932e-04 8.3741478139242947e-04 4.2904098619611555e-04
607 5.3538372923346644e-05 1.2291305173837581e-04 1.0141966041356579e-03
608 -4.2695913601140666e-05 7.5786590300364162e-04 6.5410177297688815e-04
609 -7.3205171216178500e-04 -1.6622343156498352e-04 -6.6519204654064688e-04
610 9.4312256237471137e-04 2.6713436824970518e-04 1.4051406861201817e-04
611 4.2945233725606930e-04 -1.1018998429313547e-04 -9.1536514879100818e-04
612 9.1317276394315447e-04 1.3021506321819173e-04 3.6835697959506427e-04
613 -3.6795516428870763e-04 -8.6546979137946674e-04 -3.1637781000735932e-04
614 6.2973741845597560e-05 -7.8557034960988756e-04 -6.1821047834554742e-04
615 4.5158374797220964e-04 -8.7897862563744516e-04 -5.1132043224367659e-05
616 -6.8168208920174828e-04 -6.8903054814127920e-04 -2.0520440971276047e-04
617 -9.2356532404416910e-04 -2.4497094779979352e-04 -2.6080091889791305e-04
618 -6.1627146279942318e-04 4.4597178734691209e-04 -6.5183866873660642e-04
619 1.8528277373253203e-04 -9.4607186203103514e-04 -2.3219981530844529e-04
620 -3.6230292338112401e-05 -9.3028162555842204e-04 3.4612061293904332e-04
621 3.9243401226885758e-04 -7.5580040571595459e-04 -5.2006465479150095e-04
622 -2.2403825344772014e-04 -4.5855448370051059e-04 8.7717695199672702e-04
623 7.8575736854515413e-04 -4.8191978746570232e-04 -3.7116179618837581e-04
624 9.1860044962955797e-04 1.2749250270235809e-04 -3.5470295851171632e-04
625 -3.9510461793294040e-04 6.0678244936521566e-04 6.9502771631376251e-04
626 -2.6296609915964783e-04 -5.6674585436029140e-04 7.9347489392720902e-04
627 -8.2594937551757952e-05 5.3635311285503743e-04 8.5514355325006397e-04
628 4.7649635934721380e-04 8.6452383760854986e-04 4.9911394124151559e-05
629 -9.4860457443677313e-04 5.3981453228953964e-05 2.8024644282314084e-04
630 -5.7405761173397521e-04 7.8516858619181919e-04 1.7742270069515999e-04
631 -8.2077141921652898e-04 -1.8937247536141512e-04 -5.3434961446286236e-04
632 -3.9795540400421650e-04 8.7176511480653834e-04 -2.4743691768734497e-04
633 9.1931824515150199e-04 2.5120430108759544e-04 -2.7207736782749970e-04
634 -3.2862559504273078e-04 9.2754819779389906e-05 9.6099383596696063e-04
635 3.7609786078942150e-04 -9.1327136774373369e-04 6.1409610491890365e-05
636 -6.3870143595038119e-05 -9.6533510238300962e-04 2.1372389310464287e-04
637 -4.8367967084194877e-04 -5.0587660184588822e-05 8.9139298446372708e-04
638 4.2353594619116627e-04 2.6467665789816768e-04 -8.8195476883959649e-04
639 4.4268704905808066e-04 -1.0208566299744111e-04 9.0987143677385182e-04
640 -6.5826300872648684e-05 6.6554069606456477e-04 -7.5242877688963311e-04
641 -9.4528197206599017e-04 2.2782868502554856e-04 -1.8059193574010421e-04
642 -8.7385228167239032e-04 2.7153215829558210e-04 -3.8437906465545288e-04
643 2.8242639800094162e-04 -7.1808163557920621e-04 6.4027042940932751e-04
644 5.5833064203750877e-04 -4.6643956909704783e-04 6.9315644205201891e-04
645 5.9987618629013170e-04 2.3788846159760265e-04 -7.7469506758409733e-04
646 -1.9589753962370824e-04 1.0250277338032281e-04 9.9800350465490545e-04
647 2.4835862776179315e-05 5.4502401284347982e-04 8.5328657623385954e-04
648 -7.4023400849333612e-04 5.8207460333977899e-04 3.0526997721393298e-04
649 -2.6770920444955931e-04 9.4832801352482939e-04 7.1631913257303161e-05
650 9.1879882819385331e-04 -2.4136070206521923e-04 2.8497100997250114e-04
651 -4.6560375571953451e-04 -8.5178442265214729e-04 -1.9831063515598915e-04
652 -8.6824999171141359e-04 -3.4067893266784060e-04 -3.3705968858621264e-04
653 -2.0141264792635085e-04 1.4960525791702528e-04 -9.9013041489566024e-04
654 8.4159930073164310e-04 -4.6814575062598763e-04 -2.3355545544089115e-04
655 -7.1996523158353223e-04 4.0702294279614773e-04 -5.5806124105480415e-04
656 6.7650798144679484e-04 -1.1752493977713988e-04 -7.3646801177947789e-04
657 -7.4212402832058149e-04 -5.4153360982303958e-04 3.7721428730532055e-04
658 -3.8027527740023826e-04 3.5433900338123734e-05 -9.4399605021596800e-04
659 -1.5972896035918517e-04 8.7131253970339764e-06 -1.0109215068440586e-03
660 -4.1086067134348061e-05 3.2968952780437514e-05 -1.0215677290923303e-03
661 8.4689119038049046e-04 -5.1122588471566187e-04 -5.8499977713655705e-06
662 3.8186681668312762e-05 -2.5567539494704503e-04 9.8913983322749979e-04
663 5.0929045945930537e-04 8.2735803543277405e-04 -1.8505400978748675e-04
664 -2.8940015728033620e-04 9.4241791959493164e-04 -6.3237922712417287e-05
665 -2.8383475935900781e-04 9.2826162814502254e-04 -1.8849601291502988e-04
666 -7.7131356297779438e-05 1.2551611295555791e-04 -1.0128285004102813e-03
667 2.6237304330586393e-04 -8.2171666068863738e-04 -5.0017210122993492e-04
668 -5.6813369833688438e-04 4.9776431624413320e-05 8.3571380362456845e-04
669 -8.1678192065428451e-04 -3.1743984447304605e-04 -4.7184377097481741e-04
670 -4.8837538475045544e-04 8.5284343706420681e-04 1.0230161820224967e-04
671 -9.5213949041481278e-04 1.6292952298253296e-04 2.1041131284888997e-04
672 5.5762711827209079e-04 -3.6630813799256559e-04 7.5460761737039756e-04
673 -2.3474720237596345e-05 2.4484354480588347e-04 -9.9117609720498546e-04
674 -1.9124689684983922e-04 -9.5670241996846260e-04 1.6818768114181378e-04
675 4.1322424475174959e-04 7.3540336334358388e-04 5.3033589604629277e-04
676 8.6406360530829054e-05 7.2182250439346905e-04 6.9246980043295128e-04
677 4.9302613604820106e-04 2.2012184945145223e-04 8.5748678608499980e-04
678 -4.8178589027720307e-04 -7.7690745561743025e-04 3.8899987708374532e-04
679 3.2438084279857131e-04 -9.1517725633144160e-05 -9.6274961684417800e-04
680 3.9217122453118653e-04 -6.6744711603399474e-04 6.3578577441920502e-04
681 -8.6886994462344552e-04 1.6667064538534939e-04 4.5275630122176483e-04
682 -8.9220117776730090e-04 4.2237445406470336e-04 1.8564829489374635e-05
683 -5.9592955355445640e-05 -8.3564010660916951e-06 1.0214251701125951e-03
684 3.2600899746923386e-04 -9.3199890204967808e-04 -6.1874942157429206e-05
685 3.9249008914818011e-04 8.8405193210585058e-04 -2.0313680717647028e-04
686 1.8313313054415525e-04 -7.8745880032736937e-04 -5.8741444902305449e-04
687 1.6256878862170129e-04 9.6441940233165735e-04 -1.3814175488888883e-04
688 -7.9980568210118999e-04 -4.2282328477121796e-04 -4.0881340447344405e-04
689 -5.3997669377237696e-04 -6.5278037549390284e-04 5.2511238807840307e-04
690 5.5922690924869979e-04 -6.9077888532838121e-04 4.4735723585998834e-04
691 9.5117795620689696e-04 -2.3129341579578608e-04 1.4560396847905935e-04
692 -6.8200066110930737e-04 -5.2965766223052508e-04 4.9580259045521602e-04
693 9.2457946836355760e-04 2.2654516505100176e-04 2.7293558576998631e-04
694 -1.7572453575112382e-04 9.6233826623908425e-04 -1.3931889003478690e-04
695 8.9536301487279867e-04 3.6103670056791338e-04 -2.1581732721774922e-04
696 -3.8389230967040376e-05 6.5604929343357900e-04 7.6477749336822248e-04
697 -3.3878776722081553e-04 -4.7447919182528448e-04 8.2591211598070837e-04
698 9.1912060857692111e-04 3.6492740292234135e-04 1.6974850555818103e-05
699 -4.9478629900665384e-04 -5.3069775710380554e-04 6.9394671123959909e-04
700 -6.6287486467926670e-04 1.2384774686748157e-05 7.5708134715410163e-04
701 5.6175033722904836e-04 -5.6066667977824891e-04 6.0939814702104576e-04
702 -6.8977105341020686e-04 -6.2959216529679806e-04 -3.3244053630703815e-04
703 -7.5979196031293096e-04 2.9027623783625114e-04 -5.7797591615457592e-04
704 3.8214654429193328e-05 3.4606507267529482e-04 -9.5744557507212351e-04
705 3.1543812916674823e-04 6.2335520834268612e-04 -7.2142546331070852e-04
706 -3.1452435264237076e-04 6.8786022609468561e-04 6.5579349123837680e-04
707 1.1714587984623613e-04 -9.2403220618466925e-04 -3.4164177210434092e-04
708 -6.6084586047217351e-04 7.2584515137008446e-04 1.0394084678080636e-04
709 3.3931725692205075e-06 7.4469405208981614e-04 -6.6998732844222874e-04
710 -4.0558681888306876e-04 7.6689819516486649e-04 4.8634518072247551e-04
711 -9.1964494176442009e-04 2.1287849319204179e-04 -2.9758163586908655e-04
712 7.7504526899345200e-04 1.0588858983355355e-04 6.2446575129215733e-04
713 -2.0818599260532576e-04 -7.5241138843682375e-04 -6.2605429612212174e-04
714 6.2476655867738356e-04 3.5462209370046527e-04 -7.0219849606125687e-04
715 -2.0419561644693089e-04 -9.6592299573143646e-04 4.8355898012929250e-05
716 -2.7376416270609146e-04 6.0354277335701325e-05 -9.8077157636468348e-04
717 -3.9445047580412913e-04 -9.0066904921395983e-04 -1.0213017441849829e-04
718 5.0265694393101363e-04 -2.0446277851503440e-04 8.5534959635384883e-04
719 7.1599103467887026e-04 -5.6598806034957930e-04 3.9247489403493666e-04
720 8.2886413707899996e-04 5.1299777153692447e-04 1.6397736948269259e-04
721 2.6180843266509167e-04 -1.7626857600085716e-04 -9.6954105691359513e-04
722 -5.7184130001179288e-04 -7.7090079953009982e-04 -2.4170130307909801e-04
723 4.8939970280825690e-05 5.2066460493664840e-05 -1.0208749739276184e-03
724 -1.7167617655508872e-04 7.1597990793450801e-04 6.8254074463581615e-04
725 8.6864073491527258e-04 -4.5826014977203174e-04 -1.1562220344946882e-04
726 6.0187904554988151e-04 2.0816394088801971e-04 7.8159250174139898e-04
727 7.7129451102972944e-04 5.6709077506205243e-04 2.5227621743642537e-04
728 5.4227071942088687e-04 5.8184723309090359e-04 -6.0479113065123650e-04
729 4.8354956645710019e-04 9.3766617274381833e-05 -8.8618406672106415e-04
730 7.0988200836877464e-04 6.0322291084563833e-04 3.3829904534149848e-04
731 -2.4749923578929356e-04 -6.2175628368599169e-04 -7.5043546956433396e-04
732 3.3621169078022886e-04 6.2314658644655461e-04 7.1226214798804832e-04
733 -7.2691198911890417e-05 9.6360623116177992e-04 -2.0648423115879352e-04
734 -2.3959982981416761e-04 -4.8641107381674174e-04 -8.5488521769758218e-04
735 9.5157326992724792e-04 -2.2471469526941519e-04 -1.4966977487439943e-04
736 9.6576670526042543e-04 -2.0725962385658076e-04 3.3234248129879417e-05
737 -3.4520989871312280e-05 -9.4777951327409865e-05 1.0183062283321313e-03
738 -5.0081141965434251e-04 -8.4990269222808435e-04 5.8029499740039839e-05
739 5.1092083347398980e-04 1.9815748242692688e-04 -8.5106931852838843e-04
740 -7.6362928486562495e-04 1.2993897476181341e-04 6.3298170783535653e-04
741 -1.3814322061671581e-04 1.4611859883490144e-05 1.0130610897245852e-03
742 -5.4143186873307960e-04 -7.0790767231841418e-04 4.4001719945730810e-04
743 -2.0823232128991071e-05 4.3895007048041910e-04 -9.1552968539992919e-04
744 2.8509745243385351e-04 -9.3150583605427248e-04 -1.7251549058196243e-04
745 -6.6242110351591370e-05 -6.8538527750309738e-04 -7.3159172985685472e-04
$EndNodes
$Elements
1486
1 2 2 0 0 410 440 345
2 2 2 0 0 421 541 409
3 2 2 0 0 409 682 421
4 2 2 0 0 545 603 546
5 2 2 0 0 426 427 294
6 2 2 0 0 294 454 426
7 2 2 0 0 265 682 409
8 2 2 0 0 24 41 4
9 2 2 0 0 3 24 4
10 2 2 0 0 238 642 602
11 2 2 0 0 520 651 613
12 2 2 0 0 653 666 659
13 2 2 0 0 404 460 98
14 2 2 0 0 222 482 219
15 2 2 0 0 40 463 9
16 2 2 0 0 608 724 696
17 2 2 0 0 435 709 69
18 2 2 0 0 413 439 29
19 2 2 0 0 345 710 410
20 2 2 0 0 422 463 40
21 2 2 0 0 98 550 404
22 2 2 0 0 95 724 608
23 2 2 0 0 4 41 5
24 2 2 0 0 232 701 581
25 2 2 0 0 490 698 488
26 2 2 0 0 29 436 413
27 2 2 0 0 416 421 342
28 2 2 0 0 312 595 441
29 2 2 0 0 41 486 5
30 2 2 0 0 405 605 519
31 2 2 0 0 409 595 265
32 2 2 0 0 69 481 435
33 2 2 0 0 434 743 339
34 2 2 0 0 342 641 416
35 2 2 0 0 485 656 370
36 2 2 0 0 89 587 90
37 2 2 0 0 108 466 317
38 2 2 0 0 378 629 529
39 2 2 0 0 581 680 232
40 2 2 0 0 281 434 339
41 2 2 0 0 638 739 486
42 2 2 0 0 659 666 660
43 2 2 0 0 345 440 346
44 2 2 0 0 22 44 25
45 2 2 0 0 9 463 8
46 2 2 0 0 44 81 25
47 2 2 0 0 459 587 89
48 2 2 0 0 127 670 630
49 2 2 0 0 508 662 509
50 2 2 0 0 375 662 508
51 2 2 0 0 492 598 103
52 2 2 0 0 604 642 238
53 2 2 0 0 507 510 399
54 2 2 0 0 488 698 489
55 2 2 0 0 34 473 415
56 2 2 0 0 399 639 507
57 2 2 0 0 603 688 546
58 2 2 0 0 316 541 421
59 2 2 0 0 647 696 627
60 2 2 0 0 403 439 352
61 2 2 0 0 221 603 545
62 2 2 0 0 595 648 441
63 2 2 0 0 412 550 98
64 2 2 0 0 411 714 397
65 2 2 0 0 486 739 729
66 2 2 0 0 696 724 401
67 2 2 0 0 247 482 222
68 2 2 0 0 397 714 645
69 2 2 0 0 613 651 212
70 2 2 0 0 207 745 425
71 2 2 0 0 98 675 412
72 2 2 0 0 219 482 230
73 2 2 0 0 560 692 432
74 2 2 0 0 432 689 560
75 2 2 0 0 454 575 426
76 2 2 0 0 352 439 413
77 2 2 0 0 415 420 2
78 2 2 0 0 40 464 422
79 2 2 0 0 89 512 459
80 2 2 0 0 425 614 207
81 2 2 0 0 377 600 453
82 2 2 0 0 89 90 88
83 2 2 0 0 80 466 108
84 2 2 0 0 520 717 651
85 2 2 0 0 602 703 238
86 2 2 0 0 103 687 492
87 2 2 0 0 253 491 424
88 2 2 0 0 69 709 466
89 2 2 0 0 424 512 253
90 2 2 0 0 369 696 647
91 2 2 0 0 581 701 644
92 2 2 0 0 630 670 392
93 2 2 0 0 32 656 485
94 2 2 0 0 459 512 424
95 2 2 0 0 90 91 88
96 2 2 0 0 427 478 294
97 2 2 0 0 488 695 490
98 2 2 0 0 554 699 560
99 2 2 0 0 67 80 79
100 2 2 0 0 252 454 294
101 2 2 0 0 253 628 491
102 2 2 0 0 529 681 378
103 2 2 0 0 519 715 405
104 2 2 0 0 440 441 346
105 2 2 0 0 605 717 519
106 2 2 0 0 403 452 439
107 2 2 0 0 507 639 21
108 2 2 0 0 565 567 566
109 2 2 0 0 433 454 341
110 2 2 0 0 67 466 80
111 2 2 0 0 555 697 576
112 2 2 0 0 491 628 493
113 2 2 0 0 389 641 342
114 2 2 0 0 429 619 474
115 2 2 0 0 40 501 464
116 2 2 0 0 576 699 555
117 2 2 0 0 311 600 377
118 2 2 0 0 567 622 566
119 2 2 0 0 433 575 454
120 2 2 0 0 378 671 629
121 2 2 0 0 79 540 103
122 2 2 0 0 341 473 433
123 2 2 0 0 673 704 68
124 2 2 0 0 462 710 345
125 2 2 0 0 557 722 616
126 2 2 0 0 573 662 343
127 2 2 0 0 370 656 463
128 2 2 0 0 341 454 252
129 2 2 0 0 616 702 557
130 2 2 0 0 6 26 7
131 2 2 0 0 464 501 467
132 2 2 0 0 433 473 406
133 2 2 0 0 8 45 37
134 2 2 0 0 466 709 317
135 2 2 0 0 457 461 379
136 2 2 0 0 84 512 86
137 2 2 0 0 19 452 33
138 2 2 0 0 380 614 425
139 2 2 0 0 83 540 79
140 2 2 0 0 398 510 509
141 2 2 0 0 609 631 137
142 2 2 0 0 18 442 36
143 2 2 0 0 26 45 7
144 2 2 0 0 565 566 343
145 2 2 0 0 80 83 79
146 2 2 0 0 560 689 554
147 2 2 0 0 134 137 136
148 2 2 0 0 68 469 42
149 2 2 0 0 659 716 653
150 2 2 0 0 619 707 474
151 2 2 0 0 497 610 39
152 2 2 0 0 137 138 136
153 2 2 0 0 283 573 343
154 2 2 0 0 506 644 448
155 2 2 0 0 499 735 31
156 2 2 0 0 81 97 25
157 2 2 0 0 45 46 37
158 2 2 0 0 585 668 637
159 2 2 0 0 495 735 499
160 2 2 0 0 399 510 398
161 2 2 0 0 509 573 398
162 2 2 0 0 442 443 36
163 2 2 0 0 1 607 314
164 2 2 0 0 29 612 436
165 2 2 0 0 547 631 609
166 2 2 0 0 360 595 409
167 2 2 0 0 421 682 342
168 2 2 0 0 426 575 327
169 2 2 0 0 123 577 235
170 2 2 0 0 339 743 417
171 2 2 0 0 7 45 8
172 2 2 0 0 3 723 24
173 2 2 0 0 418 666 653
174 2 2 0 0 59 60 58
175 2 2 0 0 620 636 193
176 2 2 0 0 42 469 47
177 2 2 0 0 65 67 66
178 2 2 0 0 509 662 573
179 2 2 0 0 470 482 247
180 2 2 0 0 368 476 472
181 2 2 0 0 530 740 337
182 2 2 0 0 253 512 84
183 2 2 0 0 455 698 282
184 2 2 0 0 61 65 62
185 2 2 0 0 59 61 60
186 2 2 0 0 91 472 88
187 2 2 0 0 90 92 91
188 2 2 0 0 19 442 18
189 2 2 0 0 464 465 423
190 2 2 0 0 706 724 118
191 2 2 0 0 456 611 32
192 2 2 0 0 379 477 61
193 2 2 0 0 417 743 704
194 2 2 0 0 314 683 1
195 2 2 0 0 442 458 443
196 2 2 0 0 11 28 12
197 2 2 0 0 61 62 60
198 2 2 0 0 118 724 95
199 2 2 0 0 22 25 23
200 2 2 0 0 247 483 470
201 2 2 0 0 281 640 434
202 2 2 0 0 197 667 474
203 2 2 0 0 86 512 89
204 2 2 0 0 417 704 673
205 2 2 0 0 451 690 230
206 2 2 0 0 27 442 19
207 2 2 0 0 637 668 229
208 2 2 0 0 60 475 58
209 2 2 0 0 489 610 497
210 2 2 0 0 307 573 283
211 2 2 0 0 61 477 65
212 2 2 0 0 65 66 62
213 2 2 0 0 544 740 530
214 2 2 0 0 230 719 451
215 2 2 0 0 18 452 19
216 2 2 0 0 268 569 269
217 2 2 0 0 32 485 456
218 2 2 0 0 627 696 401
219 2 2 0 0 24 42 41
220 2 2 0 0 20 27 19
221 2 2 0 0 330 461 457
222 2 2 0 0 506 672 644
223 2 2 0 0 472 476 87
224 2 2 0 0 468 495 494
225 2 2 0 0 88 472 87
226 2 2 0 0 121 577 123
227 2 2 0 0 327 575 276
228 2 2 0 0 422 464 423
229 2 2 0 0 47 63 49
230 2 2 0 0 458 506 443
231 2 2 0 0 232 690 451
232 2 2 0 0 28 487 12
233 2 2 0 0 80 107 83
234 2 2 0 0 608 696 676
235 2 2 0 0 356 481 355
236 2 2 0 0 138 238 136
237 2 2 0 0 137 139 138
238 2 2 0 0 729 739 26
239 2 2 0 0 81 99 97
240 2 2 0 0 46 50 37
241 2 2 0 0 463 656 8
242 2 2 0 0 443 444 36
243 2 2 0 0 68 704 469
244 2 2 0 0 24 68 42
245 2 2 0 0 16 503 30
246 2 2 0 0 65 69 67
247 2 2 0 0 67 79 66
248 2 2 0 0 676 696 369
249 2 2 0 0 59 379 61
250 2 2 0 0 90 93 92
251 2 2 0 0 464 467 465
252 2 2 0 0 441 708 312
253 2 2 0 0 483 484 471
254 2 2 0 0 427 479 478
255 2 2 0 0 245 564 244
256 2 2 0 0 470 483 471
257 2 2 0 0 473 721 406
258 2 2 0 0 555 699 554
259 2 2 0 0 47 469 63
260 2 2 0 0 63 355 49
261 2 2 0 0 62 64 60
262 2 2 0 0 80 108 107
263 2 2 0 0 107 539 83
264 2 2 0 0 139 140 138
265 2 2 0 0 99 100 97
266 2 2 0 0 81 236 99
267 2 2 0 0 46 51 50
268 2 2 0 0 443 445 444
269 2 2 0 0 24 419 68
270 2 2 0 0 69 466 67
271 2 2 0 0 79 103 66
272 2 2 0 0 65 477 69
273 2 2 0 0 547 548 321
274 2 2 0 0 93 94 92
275 2 2 0 0 467 468 465
276 2 2 0 0 333 664 649
277 2 2 0 0 55 498 56
278 2 2 0 0 56 498 72
279 2 2 0 0 12 499 31
280 2 2 0 0 63 356 355
281 2 2 0 0 108 110 107
282 2 2 0 0 139 141 140
283 2 2 0 0 100 101 97
284 2 2 0 0 236 248 99
285 2 2 0 0 81 594 236
286 2 2 0 0 51 52 50
287 2 2 0 0 192 515 195
288 2 2 0 0 445 446 444
289 2 2 0 0 477 481 69
290 2 2 0 0 94 95 92
291 2 2 0 0 93 96 94
292 2 2 0 0 63 408 356
293 2 2 0 0 108 111 110
294 2 2 0 0 110 117 107
295 2 2 0 0 139 154 141
296 2 2 0 0 141 142 140
297 2 2 0 0 51 53 52
298 2 2 0 0 100 102 101
299 2 2 0 0 236 250 248
300 2 2 0 0 445 447 446
301 2 2 0 0 52 388 50
302 2 2 0 0 277 622 567
303 2 2 0 0 95 608 92
304 2 2 0 0 94 118 95
305 2 2 0 0 93 104 96
306 2 2 0 0 51 561 53
307 2 2 0 0 408 434 356
308 2 2 0 0 53 54 52
309 2 2 0 0 445 448 447
310 2 2 0 0 108 317 111
311 2 2 0 0 141 143 142
312 2 2 0 0 142 225 140
313 2 2 0 0 102 166 101
314 2 2 0 0 250 325 248
315 2 2 0 0 100 258 102
316 2 2 0 0 53 55 54
317 2 2 0 0 447 449 446
318 2 2 0 0 236 505 250
319 2 2 0 0 104 105 96
320 2 2 0 0 53 57 55
321 2 2 0 0 55 56 54
322 2 2 0 0 448 451 447
323 2 2 0 0 14 39 15
324 2 2 0 0 317 511 111
325 2 2 0 0 10 40 9
326 2 2 0 0 143 144 142
327 2 2 0 0 57 58 55
328 2 2 0 0 8 37 9
329 2 2 0 0 14 38 13
330 2 2 0 0 166 314 101
331 2 2 0 0 18 36 17
332 2 2 0 0 16 29 17
333 2 2 0 0 33 504 20
334 2 2 0 0 325 365 248
335 2 2 0 0 199 202 196
336 2 2 0 0 7 32 6
337 2 2 0 0 434 435 356
338 2 2 0 0 74 75 73
339 2 2 0 0 223 239 234
340 2 2 0 0 74 76 75
341 2 2 0 0 72 74 73
342 2 2 0 0 231 549 201
343 2 2 0 0 202 205 204
344 2 2 0 0 226 227 214
345 2 2 0 0 272 275 271
346 2 2 0 0 276 318 275
347 2 2 0 0 213 214 209
348 2 2 0 0 76 77 75
349 2 2 0 0 210 231 201
350 2 2 0 0 16 30 15
351 2 2 0 0 205 209 208
352 2 2 0 0 202 204 196
353 2 2 0 0 318 406 340
354 2 2 0 0 195 196 193
355 2 2 0 0 322 420 415
356 2 2 0 0 239 240 234
357 2 2 0 0 163 588 168
358 2 2 0 0 12 31 11
359 2 2 0 0 56 72 71
360 2 2 0 0 425 426 327
361 2 2 0 0 19 33 20
362 2 2 0 0 168 224 215
363 2 2 0 0 209 568 216
364 2 2 0 0 318 433 406
365 2 2 0 0 269 271 270
366 2 2 0 0 268 269 245
367 2 2 0 0 21 639 20
368 2 2 0 0 84 85 82
369 2 2 0 0 181 207 183
370 2 2 0 0 269 272 271
371 2 2 0 0 272 276 275
372 2 2 0 0 242 243 240
373 2 2 0 0 102 167 166
374 2 2 0 0 223 234 233
375 2 2 0 0 283 343 227
376 2 2 0 0 205 208 204
377 2 2 0 0 213 226 214
378 2 2 0 0 271 572 347
379 2 2 0 0 243 268 245
380 2 2 0 0 335 398 307
381 2 2 0 0 303 555 554
382 2 2 0 0 226 283 227
383 2 2 0 0 347 485 370
384 2 2 0 0 195 199 196
385 2 2 0 0 205 213 209
386 2 2 0 0 246 322 252
387 2 2 0 0 76 78 77
388 2 2 0 0 133 163 135
389 2 2 0 0 163 168 164
390 2 2 0 0 322 415 341
391 2 2 0 0 227 361 214
392 2 2 0 0 191 198 189
393 2 2 0 0 78 84 82
394 2 2 0 0 209 216 208
395 2 2 0 0 78 82 77
396 2 2 0 0 216 303 266
397 2 2 0 0 417 418 362
398 2 2 0 0 314 607 101
399 2 2 0 0 339 362 280
400 2 2 0 0 243 245 244
401 2 2 0 0 187 291 185
402 2 2 0 0 429 430 359
403 2 2 0 0 143 145 144
404 2 2 0 0 202 553 205
405 2 2 0 0 339 417 362
406 2 2 0 0 131 580 133
407 2 2 0 0 239 242 240
408 2 2 0 0 57 59 58
409 2 2 0 0 224 246 215
410 2 2 0 0 84 86 85
411 2 2 0 0 303 554 266
412 2 2 0 0 72 73 71
413 2 2 0 0 437 438 414
414 2 2 0 0 318 340 275
415 2 2 0 0 269 270 245
416 2 2 0 0 86 87 85
417 2 2 0 0 192 193 191
418 2 2 0 0 123 235 129
419 2 2 0 0 263 374 262
420 2 2 0 0 425 427 426
421 2 2 0 0 149 150 147
422 2 2 0 0 210 232 231
423 2 2 0 0 74 373 76
424 2 2 0 0 168 215 169
425 2 2 0 0 259 262 249
426 2 2 0 0 145 146 144
427 2 2 0 0 367 524 289
428 2 2 0 0 271 347 270
429 2 2 0 0 406 407 340
430 2 2 0 0 334 459 424
431 2 2 0 0 429 474 430
432 2 2 0 0 250 328 325
433 2 2 0 0 431 432 367
434 2 2 0 0 104 278 105
435 2 2 0 0 145 147 146
436 2 2 0 0 151 152 150
437 2 2 0 0 235 583 129
438 2 2 0 0 237 249 228
439 2 2 0 0 149 151 150
440 2 2 0 0 159 161 158
441 2 2 0 0 153 155 152
442 2 2 0 0 156 158 155
443 2 2 0 0 354 367 289
444 2 2 0 0 259 263 262
445 2 2 0 0 190 191 189
446 2 2 0 0 177 221 174
447 2 2 0 0 162 228 161
448 2 2 0 0 124 516 386
449 2 2 0 0 418 653 578
450 2 2 0 0 371 584 295
451 2 2 0 0 151 153 152
452 2 2 0 0 153 156 155
453 2 2 0 0 159 162 161
454 2 2 0 0 374 593 262
455 2 2 0 0 156 159 158
456 2 2 0 0 237 259 249
457 2 2 0 0 146 284 160
458 2 2 0 0 266 309 267
459 2 2 0 0 264 265 257
460 2 2 0 0 86 88 87
461 2 2 0 0 265 312 257
462 2 2 0 0 162 237 228
463 2 2 0 0 21 44 22
464 2 2 0 0 324 392 390
465 2 2 0 0 371 585 584
466 2 2 0 0 262 366 249
467 2 2 0 0 192 195 193
468 2 2 0 0 263 375 374
469 2 2 0 0 216 266 217
470 2 2 0 0 326 327 276
471 2 2 0 0 260 646 166
472 2 2 0 0 220 223 222
473 2 2 0 0 322 341 252
474 2 2 0 0 256 257 255
475 2 2 0 0 78 253 84
476 2 2 0 0 358 359 242
477 2 2 0 0 188 189 187
478 2 2 0 0 281 339 280
479 2 2 0 0 146 160 144
480 2 2 0 0 123 129 128
481 2 2 0 0 255 324 254
482 2 2 0 0 228 229 161
483 2 2 0 0 354 431 367
484 2 2 0 0 163 164 135
485 2 2 0 0 155 157 152
486 2 2 0 0 243 244 240
487 2 2 0 0 256 264 257
488 2 2 0 0 284 316 160
489 2 2 0 0 380 425 327
490 2 2 0 0 148 149 147
491 2 2 0 0 335 399 398
492 2 2 0 0 418 578 362
493 2 2 0 0 334 424 396
494 2 2 0 0 167 260 166
495 2 2 0 0 325 368 365
496 2 2 0 0 428 429 359
497 2 2 0 0 165 255 254
498 2 2 0 0 297 342 264
499 2 2 0 0 298 371 295
500 2 2 0 0 218 323 220
501 2 2 0 0 310 337 302
502 2 2 0 0 165 256 255
503 2 2 0 0 186 187 185
504 2 2 0 0 56 71 70
505 2 2 0 0 165 254 125
506 2 2 0 0 200 201 199
507 2 2 0 0 148 206 149
508 2 2 0 0 324 390 364
509 2 2 0 0 190 192 191
510 2 2 0 0 368 369 365
511 2 2 0 0 353 404 351
512 2 2 0 0 104 331 278
513 2 2 0 0 256 297 264
514 2 2 0 0 316 421 416
515 2 2 0 0 239 358 242
516 2 2 0 0 169 586 171
517 2 2 0 0 286 287 206
518 2 2 0 0 324 364 254
519 2 2 0 0 241 576 162
520 2 2 0 0 168 169 164
521 2 2 0 0 121 123 122
522 2 2 0 0 266 267 217
523 2 2 0 0 129 131 130
524 2 2 0 0 216 217 208
525 2 2 0 0 285 382 313
526 2 2 0 0 172 321 170
527 2 2 0 0 390 391 364
528 2 2 0 0 296 563 300
529 2 2 0 0 246 252 251
530 2 2 0 0 285 286 206
531 2 2 0 0 288 289 287
532 2 2 0 0 298 372 371
533 2 2 0 0 23 35 22
534 2 2 0 0 300 344 304
535 2 2 0 0 344 462 345
536 2 2 0 0 123 128 122
537 2 2 0 0 297 389 342
538 2 2 0 0 237 277 259
539 2 2 0 0 148 285 206
540 2 2 0 0 86 89 88
541 2 2 0 0 306 307 283
542 2 2 0 0 234 279 233
543 2 2 0 0 316 416 160
544 2 2 0 0 188 190 189
545 2 2 0 0 85 98 82
546 2 2 0 0 358 428 359
547 2 2 0 0 437 455 438
548 2 2 0 0 203 210 201
549 2 2 0 0 382 383 313
550 2 2 0 0 153 176 156
551 2 2 0 0 290 354 289
552 2 2 0 0 159 241 162
553 2 2 0 0 386 387 126
554 2 2 0 0 273 363 338
555 2 2 0 0 272 326 276
556 2 2 0 0 171 293 173
557 2 2 0 0 145 148 147
558 2 2 0 0 274 295 261
559 2 2 0 0 285 313 286
560 2 2 0 0 383 384 313
561 2 2 0 0 301 302 299
562 2 2 0 0 131 133 132
563 2 2 0 0 296 298 295
564 2 2 0 0 305 310 302
565 2 2 0 0 349 412 328
566 2 2 0 0 344 345 304
567 2 2 0 0 77 119 75
568 2 2 0 0 315 378 310
569 2 2 0 0 363 401 400
570 2 2 0 0 332 333 278
571 2 2 0 0 223 233 222
572 2 2 0 0 331 334 332
573 2 2 0 0 186 188 187
574 2 2 0 0 178 212 177
575 2 2 0 0 305 360 315
576 2 2 0 0 334 396 395
577 2 2 0 0 246 251 215
578 2 2 0 0 167 261 260
579 2 2 0 0 175 179 178
580 2 2 0 0 345 346 304
581 2 2 0 0 124 386 126
582 2 2 0 0 286 288 287
583 2 2 0 0 331 332 278
584 2 2 0 0 179 181 180
585 2 2 0 0 301 305 302
586 2 2 0 0 300 304 301
587 2 2 0 0 296 300 299
588 2 2 0 0 305 315 310
589 2 2 0 0 296 299 298
590 2 2 0 0 320 453 290
591 2 2 0 0 274 296 295
592 2 2 0 0 313 531 286
593 2 2 0 0 120 281 280
594 2 2 0 0 360 409 315
595 2 2 0 0 363 400 338
596 2 2 0 0 129 130 128
597 2 2 0 0 300 301 299
598 2 2 0 0 1 508 23
599 2 2 0 0 167 273 261
600 2 2 0 0 133 135 134
601 2 2 0 0 173 174 172
602 2 2 0 0 311 377 376
603 2 2 0 0 273 274 261
604 2 2 0 0 273 338 274
605 2 2 0 0 334 395 332
606 2 2 0 0 183 197 184
607 2 2 0 0 319 393 320
608 2 2 0 0 449 450 446
609 2 2 0 0 288 290 289
610 2 2 0 0 226 306 283
611 2 2 0 0 326 380 327
612 2 2 0 0 175 177 174
613 2 2 0 0 181 183 182
614 2 2 0 0 219 230 211
615 2 2 0 0 308 335 307
616 2 2 0 0 267 311 292
617 2 2 0 0 169 170 164
618 2 2 0 0 288 319 290
619 2 2 0 0 126 165 125
620 2 2 0 0 120 280 121
621 2 2 0 0 130 357 128
622 2 2 0 0 195 200 199
623 2 2 0 0 169 171 170
624 2 2 0 0 171 172 170
625 2 2 0 0 184 186 185
626 2 2 0 0 73 282 71
627 2 2 0 0 252 294 251
628 2 2 0 0 319 320 290
629 2 2 0 0 131 132 130
630 2 2 0 0 393 394 320
631 2 2 0 0 171 173 172
632 2 2 0 0 4 34 3
633 2 2 0 0 218 220 219
634 2 2 0 0 267 292 217
635 2 2 0 0 184 185 182
636 2 2 0 0 188 194 190
637 2 2 0 0 56 70 54
638 2 2 0 0 377 405 376
639 2 2 0 0 449 470 450
640 2 2 0 0 179 180 178
641 2 2 0 0 173 175 174
642 2 2 0 0 175 178 177
643 2 2 0 0 250 329 328
644 2 2 0 0 311 376 292
645 2 2 0 0 329 571 350
646 2 2 0 0 347 370 348
647 2 2 0 0 220 222 219
648 2 2 0 0 376 385 292
649 2 2 0 0 133 134 132
650 2 2 0 0 134 136 132
651 2 2 0 0 306 308 307
652 2 2 0 0 200 203 201
653 2 2 0 0 233 247 222
654 2 2 0 0 98 460 82
655 2 2 0 0 329 349 328
656 2 2 0 0 326 381 380
657 2 2 0 0 347 348 270
658 2 2 0 0 181 182 180
659 2 2 0 0 121 122 115
660 2 2 0 0 350 351 349
661 2 2 0 0 308 336 335
662 2 2 0 0 350 403 352
663 2 2 0 0 470 471 450
664 2 2 0 0 203 211 210
665 2 2 0 0 218 219 211
666 2 2 0 0 183 184 182
667 2 2 0 0 370 463 422
668 2 2 0 0 306 402 308
669 2 2 0 0 203 218 211
670 2 2 0 0 71 490 70
671 2 2 0 0 329 350 349
672 2 2 0 0 436 437 414
673 2 2 0 0 124 126 125
674 2 2 0 0 413 414 353
675 2 2 0 0 422 423 348
676 2 2 0 0 352 353 351
677 2 2 0 0 370 422 348
678 2 2 0 0 350 352 351
679 2 2 0 0 413 436 414
680 2 2 0 0 352 413 353
681 2 2 0 0 120 121 115
682 2 2 0 0 110 480 117
683 2 2 0 0 124 125 116
684 2 2 0 0 126 521 165
685 2 2 0 0 113 120 115
686 2 2 0 0 127 440 410
687 2 2 0 0 114 124 116
688 2 2 0 0 543 544 530
689 2 2 0 0 488 489 487
690 2 2 0 0 585 637 366
691 2 2 0 0 543 570 544
692 2 2 0 0 113 115 114
693 2 2 0 0 127 410 106
694 2 2 0 0 114 116 112
695 2 2 0 0 195 515 200
696 2 2 0 0 491 493 492
697 2 2 0 0 12 487 13
698 2 2 0 0 546 547 321
699 2 2 0 0 330 457 411
700 2 2 0 0 157 543 530
701 2 2 0 0 519 520 291
702 2 2 0 0 28 488 487
703 2 2 0 0 111 112 110
704 2 2 0 0 312 534 257
705 2 2 0 0 476 732 412
706 2 2 0 0 27 458 442
707 2 2 0 0 385 636 620
708 2 2 0 0 176 559 156
709 2 2 0 0 593 634 366
710 2 2 0 0 589 590 224
711 2 2 0 0 113 114 112
712 2 2 0 0 109 127 106
713 2 2 0 0 270 564 245
714 2 2 0 0 443 506 445
715 2 2 0 0 491 492 396
716 2 2 0 0 388 624 502
717 2 2 0 0 445 506 448
718 2 2 0 0 30 500 15
719 2 2 0 0 20 504 21
720 2 2 0 0 64 475 60
721 2 2 0 0 287 542 206
722 2 2 0 0 23 508 35
723 2 2 0 0 302 558 299
724 2 2 0 0 70 551 54
725 2 2 0 0 62 598 64
726 2 2 0 0 424 491 396
727 2 2 0 0 407 456 340
728 2 2 0 0 545 546 321
729 2 2 0 0 330 411 397
730 2 2 0 0 72 536 74
731 2 2 0 0 238 574 136
732 2 2 0 0 659 660 420
733 2 2 0 0 395 538 332
734 2 2 0 0 143 527 145
735 2 2 0 0 412 675 476
736 2 2 0 0 239 513 358
737 2 2 0 0 157 530 529
738 2 2 0 0 518 519 291
739 2 2 0 0 449 482 470
740 2 2 0 0 207 713 479
741 2 2 0 0 119 523 75
742 2 2 0 0 109 670 127
743 2 2 0 0 10 501 40
744 2 2 0 0 508 509 35
745 2 2 0 0 96 606 94
746 2 2 0 0 331 459 334
747 2 2 0 0 286 531 288
748 2 2 0 0 290 453 354
749 2 2 0 0 282 490 71
750 2 2 0 0 384 531 313
751 2 2 0 0 289 524 287
752 2 2 0 0 349 550 412
753 2 2 0 0 165 521 256
754 2 2 0 0 82 460 77
755 2 2 0 0 155 543 157
756 2 2 0 0 201 549 199
757 2 2 0 0 273 591 363
758 2 2 0 0 387 521 126
759 2 2 0 0 114 516 124
760 2 2 0 0 53 561 57
761 2 2 0 0 266 554 309
762 2 2 0 0 257 534 255
763 2 2 0 0 205 553 213
764 2 2 0 0 142 522 225
765 2 2 0 0 435 481 356
766 2 2 0 0 216 568 303
767 2 2 0 0 300 563 344
768 2 2 0 0 214 568 209
769 2 2 0 0 112 480 110
770 2 2 0 0 350 571 403
771 2 2 0 0 347 572 485
772 2 2 0 0 275 572 271
773 2 2 0 0 274 563 296
774 2 2 0 0 171 586 293
775 2 2 0 0 162 576 237
776 2 2 0 0 133 580 163
777 2 2 0 0 11 501 10
778 2 2 0 0 295 584 261
779 2 2 0 0 129 583 131
780 2 2 0 0 215 586 169
781 2 2 0 0 250 505 329
782 2 2 0 0 168 588 224
783 2 2 0 0 321 548 170
784 2 2 0 0 262 593 366
785 2 2 0 0 166 646 314
786 2 2 0 0 520 535 291
787 2 2 0 0 373 663 493
788 2 2 0 0 291 535 185
789 2 2 0 0 101 607 97
790 2 2 0 0 130 574 357
791 2 2 0 0 158 570 543
792 2 2 0 0 31 501 11
793 2 2 0 0 444 552 503
794 2 2 0 0 156 559 159
795 2 2 0 0 236 594 505
796 2 2 0 0 206 542 149
797 2 2 0 0 54 551 52
798 2 2 0 0 74 536 373
799 2 2 0 0 337 558 302
800 2 2 0 0 150 532 147
801 2 2 0 0 379 728 457
802 2 2 0 0 299 558 298
803 2 2 0 0 332 538 333
804 2 2 0 0 145 527 148
805 2 2 0 0 514 515 192
806 2 2 0 0 15 500 14
807 2 2 0 0 75 523 73
808 2 2 0 0 467 501 31
809 2 2 0 0 254 592 125
810 2 2 0 0 172 545 321
811 2 2 0 0 144 522 142
812 2 2 0 0 528 532 150
813 2 2 0 0 187 518 291
814 2 2 0 0 553 599 213
815 2 2 0 0 383 603 384
816 2 2 0 0 282 698 490
817 2 2 0 0 244 517 240
818 2 2 0 0 353 525 404
819 2 2 0 0 395 540 538
820 2 2 0 0 94 606 118
821 2 2 0 0 117 539 107
822 2 2 0 0 185 535 182
823 2 2 0 0 388 502 50
824 2 2 0 0 167 591 273
825 2 2 0 0 147 532 146
826 2 2 0 0 92 608 91
827 2 2 0 0 472 676 368
828 2 2 0 0 364 592 254
829 2 2 0 0 21 504 44
830 2 2 0 0 365 597 248
831 2 2 0 0 125 592 116
832 2 2 0 0 588 589 224
833 2 2 0 0 111 113 112
834 2 2 0 0 63 469 408
835 2 2 0 0 105 109 106
836 2 2 0 0 242 526 243
837 2 2 0 0 439 712 29
838 2 2 0 0 240 517 234
839 2 2 0 0 346 533 304
840 2 2 0 0 14 500 38
841 2 2 0 0 494 495 484
842 2 2 0 0 127 630 440
843 2 2 0 0 208 537 204
844 2 2 0 0 175 562 179
845 2 2 0 0 303 626 555
846 2 2 0 0 359 526 242
847 2 2 0 0 243 526 268
848 2 2 0 0 217 537 208
849 2 2 0 0 58 498 55
850 2 2 0 0 503 552 30
851 2 2 0 0 13 499 12
852 2 2 0 0 268 621 569
853 2 2 0 0 489 497 487
854 2 2 0 0 475 498 58
855 2 2 0 0 430 526 359
856 2 2 0 0 248 597 99
857 2 2 0 0 292 537 217
858 2 2 0 0 26 645 45
859 2 2 0 0 234 517 279
860 2 2 0 0 14 497 39
861 2 2 0 0 385 537 292
862 2 2 0 0 305 533 360
863 2 2 0 0 304 533 301
864 2 2 0 0 146 532 284
865 2 2 0 0 483 494 484
866 2 2 0 0 173 562 175
867 2 2 0 0 116 480 112
868 2 2 0 0 224 590 246
869 2 2 0 0 189 518 187
870 2 2 0 0 498 536 72
871 2 2 0 0 414 525 353
872 2 2 0 0 160 522 144
873 2 2 0 0 547 609 548
874 2 2 0 0 182 535 180
875 2 2 0 0 297 601 389
876 2 2 0 0 44 594 81
877 2 2 0 0 301 533 305
878 2 2 0 0 105 106 96
879 2 2 0 0 515 596 200
880 2 2 0 0 293 562 173
881 2 2 0 0 73 523 282
882 2 2 0 0 148 527 285
883 2 2 0 0 174 545 172
884 2 2 0 0 218 596 323
885 2 2 0 0 200 596 203
886 2 2 0 0 149 542 151
887 2 2 0 0 446 552 444
888 2 2 0 0 49 461 330
889 2 2 0 0 330 397 48
890 2 2 0 0 453 738 377
891 2 2 0 0 255 534 324
892 2 2 0 0 52 551 388
893 2 2 0 0 634 646 260
894 2 2 0 0 513 615 358
895 2 2 0 0 438 525 414
896 2 2 0 0 516 618 386
897 2 2 0 0 198 518 189
898 2 2 0 0 227 566 361
899 2 2 0 0 559 560 241
900 2 2 0 0 90 587 93
901 2 2 0 0 416 522 160
902 2 2 0 0 102 591 167
903 2 2 0 0 134 609 137
904 2 2 0 0 298 558 372
905 2 2 0 0 132 574 130
906 2 2 0 0 106 606 96
907 2 2 0 0 159 559 241
908 2 2 0 0 32 611 6
909 2 2 0 0 158 543 155
910 2 2 0 0 223 513 239
911 2 2 0 0 288 531 319
912 2 2 0 0 323 513 220
913 2 2 0 0 115 516 114
914 2 2 0 0 521 601 297
915 2 2 0 0 610 698 455
916 2 2 0 0 354 600 431
917 2 2 0 0 351 550 349
918 2 2 0 0 256 521 297
919 2 2 0 0 140 604 138
920 2 2 0 0 77 460 119
921 2 2 0 0 17 503 16
922 2 2 0 0 9 502 10
923 2 2 0 0 104 587 331
924 2 2 0 0 152 528 150
925 2 2 0 0 315 541 378
926 2 2 0 0 170 548 164
927 2 2 0 0 590 659 420
928 2 2 0 0 11 624 28
929 2 2 0 0 199 549 202
930 2 2 0 0 502 624 10
931 2 2 0 0 453 600 354
932 2 2 0 0 42 43 41
933 2 2 0 0 38 499 13
934 2 2 0 0 285 527 382
935 2 2 0 0 190 514 192
936 2 2 0 0 157 529 528
937 2 2 0 0 231 643 549
938 2 2 0 0 331 587 459
939 2 2 0 0 451 701 232
940 2 2 0 0 99 597 100
941 2 2 0 0 361 568 214
942 2 2 0 0 372 740 544
943 2 2 0 0 221 545 174
944 2 2 0 0 138 604 238
945 2 2 0 0 340 572 275
946 2 2 0 0 338 563 274
947 2 2 0 0 524 542 287
948 2 2 0 0 265 595 312
949 2 2 0 0 111 511 113
950 2 2 0 0 580 658 588
951 2 2 0 0 580 588 163
952 2 2 0 0 237 576 277
953 2 2 0 0 444 503 36
954 2 2 0 0 131 583 580
955 2 2 0 0 505 571 329
956 2 2 0 0 203 596 218
957 2 2 0 0 584 634 260
958 2 2 0 0 261 584 260
959 2 2 0 0 369 647 365
960 2 2 0 0 251 586 215
961 2 2 0 0 348 564 270
962 2 2 0 0 450 552 446
963 2 2 0 0 390 496 391
964 2 2 0 0 66 598 62
965 2 2 0 0 465 623 423
966 2 2 0 0 258 591 102
967 2 2 0 0 343 566 227
968 2 2 0 0 564 623 244
969 2 2 0 0 154 617 141
970 2 2 0 0 324 534 392
971 2 2 0 0 50 502 37
972 2 2 0 0 524 556 542
973 2 2 0 0 544 700 372
974 2 2 0 0 122 516 115
975 2 2 0 0 177 557 221
976 2 2 0 0 489 698 610
977 2 2 0 0 93 587 104
978 2 2 0 0 136 574 132
979 2 2 0 0 593 646 634
980 2 2 0 0 116 592 480
981 2 2 0 0 143 617 527
982 2 2 0 0 225 604 140
983 2 2 0 0 137 631 139
984 2 2 0 0 549 553 202
985 2 2 0 0 164 548 135
986 2 2 0 0 404 550 351
987 2 2 0 0 34 721 473
988 2 2 0 0 220 513 223
989 2 2 0 0 317 640 511
990 2 2 0 0 100 597 258
991 2 2 0 0 588 658 589
992 2 2 0 0 323 615 513
993 2 2 0 0 568 626 303
994 2 2 0 0 377 605 405
995 2 2 0 0 178 613 212
996 2 2 0 0 493 628 373
997 2 2 0 0 157 528 152
998 2 2 0 0 591 627 363
999 2 2 0 0 409 541 315
1000 2 2 0 0 183 614 197
1001 2 2 0 0 103 598 66
1002 2 2 0 0 188 619 194
1003 2 2 0 0 213 599 226
1004 2 2 0 0 306 599 402
1005 2 2 0 0 97 607 25
1006 2 2 0 0 194 514 190
1007 2 2 0 0 373 628 76
1008 2 2 0 0 78 628 253
1009 2 2 0 0 42 47 43
1010 2 2 0 0 39 612 15
1011 2 2 0 0 16 612 29
1012 2 2 0 0 437 610 455
1013 2 2 0 0 487 497 13
1014 2 2 0 0 440 630 441
1015 2 2 0 0 479 713 562
1016 2 2 0 0 196 620 193
1017 2 2 0 0 456 572 340
1018 2 2 0 0 120 511 281
1019 2 2 0 0 577 578 235
1020 2 2 0 0 335 582 399
1021 2 2 0 0 314 741 683
1022 2 2 0 0 520 613 535
1023 2 2 0 0 585 634 584
1024 2 2 0 0 423 564 348
1025 2 2 0 0 457 561 411
1026 2 2 0 0 6 611 5
1027 2 2 0 0 385 620 537
1028 2 2 0 0 228 637 229
1029 2 2 0 0 366 637 249
1030 2 2 0 0 161 570 158
1031 2 2 0 0 434 640 435
1032 2 2 0 0 193 636 191
1033 2 2 0 0 410 606 106
1034 2 2 0 0 37 502 9
1035 2 2 0 0 36 503 17
1036 2 2 0 0 141 617 143
1037 2 2 0 0 363 627 401
1038 2 2 0 0 322 590 420
1039 2 2 0 0 357 618 128
1040 2 2 0 0 430 621 526
1041 2 2 0 0 540 687 103
1042 2 2 0 0 280 577 121
1043 2 2 0 0 276 575 318
1044 2 2 0 0 362 578 577
1045 2 2 0 0 109 649 496
1046 2 2 0 0 246 590 322
1047 2 2 0 0 326 569 381
1048 2 2 0 0 569 621 381
1049 2 2 0 0 269 569 272
1050 2 2 0 0 139 631 154
1051 2 2 0 0 649 664 496
1052 2 2 0 0 537 620 204
1053 2 2 0 0 355 461 49
1054 2 2 0 0 663 685 493
1055 2 2 0 0 479 745 207
1056 2 2 0 0 343 662 565
1057 2 2 0 0 212 557 177
1058 2 2 0 0 45 645 46
1059 2 2 0 0 496 670 109
1060 2 2 0 0 366 634 585
1061 2 2 0 0 384 616 531
1062 2 2 0 0 535 613 180
1063 2 2 0 0 391 632 364
1064 2 2 0 0 308 581 336
1065 2 2 0 0 344 625 462
1066 2 2 0 0 563 625 344
1067 2 2 0 0 13 497 14
1068 2 2 0 0 480 632 117
1069 2 2 0 0 371 668 585
1070 2 2 0 0 333 649 278
1071 2 2 0 0 387 601 521
1072 2 2 0 0 47 49 48
1073 2 2 0 0 358 615 428
1074 2 2 0 0 113 511 120
1075 2 2 0 0 527 617 382
1076 2 2 0 0 105 649 109
1077 2 2 0 0 398 573 307
1078 2 2 0 0 368 676 369
1079 2 2 0 0 180 613 178
1080 2 2 0 0 153 556 176
1081 2 2 0 0 432 657 367
1082 2 2 0 0 458 718 582
1083 2 2 0 0 207 614 183
1084 2 2 0 0 407 611 456
1085 2 2 0 0 244 623 517
1086 2 2 0 0 20 639 27
1087 2 2 0 0 476 675 87
1088 2 2 0 0 319 616 393
1089 2 2 0 0 474 707 197
1090 2 2 0 0 226 599 306
1091 2 2 0 0 47 48 43
1092 2 2 0 0 186 619 188
1093 2 2 0 0 412 732 328
1094 2 2 0 0 316 671 541
1095 2 2 0 0 293 734 478
1096 2 2 0 0 492 685 598
1097 2 2 0 0 528 629 532
1098 2 2 0 0 514 635 515
1099 2 2 0 0 531 616 319
1100 2 2 0 0 8 656 7
1101 2 2 0 0 387 602 601
1102 2 2 0 0 76 628 78
1103 2 2 0 0 122 618 516
1104 2 2 0 0 651 717 394
1105 2 2 0 0 423 623 564
1106 2 2 0 0 546 669 547
1107 2 2 0 0 4 679 34
1108 2 2 0 0 542 556 151
1109 2 2 0 0 548 609 135
1110 2 2 0 0 204 620 196
1111 2 2 0 0 529 629 528
1112 2 2 0 0 482 719 230
1113 2 2 0 0 258 627 591
1114 2 2 0 0 336 582 335
1115 2 2 0 0 197 686 667
1116 2 2 0 0 583 658 580
1117 2 2 0 0 85 675 98
1118 2 2 0 0 59 728 379
1119 2 2 0 0 400 625 338
1120 2 2 0 0 394 717 605
1121 2 2 0 0 471 650 450
1122 2 2 0 0 596 635 323
1123 2 2 0 0 249 637 228
1124 2 2 0 0 515 635 596
1125 2 2 0 0 338 625 563
1126 2 2 0 0 28 633 488
1127 2 2 0 0 566 622 361
1128 2 2 0 0 229 570 161
1129 2 2 0 0 468 654 465
1130 2 2 0 0 118 710 462
1131 2 2 0 0 15 612 16
1132 2 2 0 0 589 659 590
1133 2 2 0 0 526 621 268
1134 2 2 0 0 365 647 597
1135 2 2 0 0 579 583 235
1136 2 2 0 0 22 507 21
1137 2 2 0 0 342 682 264
1138 2 2 0 0 441 648 346
1139 2 2 0 0 191 636 198
1140 2 2 0 0 578 653 579
1141 2 2 0 0 135 609 134
1142 2 2 0 0 128 618 122
1143 2 2 0 0 378 681 310
1144 2 2 0 0 230 690 211
1145 2 2 0 0 210 690 232
1146 2 2 0 0 549 643 553
1147 2 2 0 0 233 661 247
1148 2 2 0 0 10 624 11
1149 2 2 0 0 640 709 435
1150 2 2 0 0 449 719 482
1151 2 2 0 0 452 726 33
1152 2 2 0 0 362 577 280
1153 2 2 0 0 318 575 433
1154 2 2 0 0 492 687 396
1155 2 2 0 0 586 734 293
1156 2 2 0 0 357 655 618
1157 2 2 0 0 277 567 259
1158 2 2 0 0 522 641 225
1159 2 2 0 0 511 640 281
1160 2 2 0 0 247 661 483
1161 2 2 0 0 610 693 39
1162 2 2 0 0 272 569 326
1163 2 2 0 0 490 695 70
1164 2 2 0 0 553 643 599
1165 2 2 0 0 532 629 284
1166 2 2 0 0 29 712 17
1167 2 2 0 0 632 665 117
1168 2 2 0 0 618 655 386
1169 2 2 0 0 241 699 576
1170 2 2 0 0 457 728 561
1171 2 2 0 0 485 572 456
1172 2 2 0 0 430 667 621
1173 2 2 0 0 582 672 458
1174 2 2 0 0 395 687 540
1175 2 2 0 0 504 594 44
1176 2 2 0 0 181 713 207
1177 2 2 0 0 197 707 184
1178 2 2 0 0 524 657 556
1179 2 2 0 0 475 536 498
1180 2 2 0 0 394 738 320
1181 2 2 0 0 51 714 561
1182 2 2 0 0 151 556 153
1183 2 2 0 0 437 693 610
1184 2 2 0 0 361 626 568
1185 2 2 0 0 611 679 5
1186 2 2 0 0 231 680 643
1187 2 2 0 0 462 706 118
1188 2 2 0 0 390 670 496
1189 2 2 0 0 602 642 601
1190 2 2 0 0 49 330 48
1191 2 2 0 0 391 665 632
1192 2 2 0 0 508 737 375
1193 2 2 0 0 450 650 552
1194 2 2 0 0 368 732 476
1195 2 2 0 0 578 579 235
1196 2 2 0 0 402 581 308
1197 2 2 0 0 43 486 41
1198 2 2 0 0 562 713 179
1199 2 2 0 0 592 632 480
1200 2 2 0 0 416 641 522
1201 2 2 0 0 372 668 371
1202 2 2 0 0 452 712 439
1203 2 2 0 0 282 720 455
1204 2 2 0 0 556 657 176
1205 2 2 0 0 364 632 592
1206 2 2 0 0 403 726 452
1207 2 2 0 0 465 654 623
1208 2 2 0 0 278 649 105
1209 2 2 0 0 154 652 617
1210 2 2 0 0 383 688 603
1211 2 2 0 0 451 719 447
1212 2 2 0 0 317 709 640
1213 2 2 0 0 604 711 642
1214 2 2 0 0 382 652 383
1215 2 2 0 0 601 642 389
1216 2 2 0 0 284 671 316
1217 2 2 0 0 599 643 402
1218 2 2 0 0 388 633 624
1219 2 2 0 0 267 678 311
1220 2 2 0 0 337 681 530
1221 2 2 0 0 279 661 233
1222 2 2 0 0 605 738 394
1223 2 2 0 0 33 677 504
1224 2 2 0 0 386 655 387
1225 2 2 0 0 547 669 631
1226 2 2 0 0 562 731 479
1227 2 2 0 0 360 648 595
1228 2 2 0 0 432 692 657
1229 2 2 0 0 367 657 524
1230 2 2 0 0 633 695 488
1231 2 2 0 0 415 473 341
1232 2 2 0 0 644 672 336
1233 2 2 0 0 551 633 388
1234 2 2 0 0 533 648 360
1235 2 2 0 0 407 679 611
1236 2 2 0 0 323 635 615
1237 2 2 0 0 530 681 529
1238 2 2 0 0 393 651 394
1239 2 2 0 0 387 655 602
1240 2 2 0 0 238 703 574
1241 2 2 0 0 594 677 505
1242 2 2 0 0 559 692 560
1243 2 2 0 0 621 667 381
1244 2 2 0 0 405 674 376
1245 2 2 0 0 325 732 368
1246 2 2 0 0 623 654 517
1247 2 2 0 0 581 644 336
1248 2 2 0 0 346 648 533
1249 2 2 0 0 517 654 279
1250 2 2 0 0 477 705 481
1251 2 2 0 0 481 705 355
1252 2 2 0 0 561 728 57
1253 2 2 0 0 379 705 477
1254 2 2 0 0 617 652 382
1255 2 2 0 0 30 650 500
1256 2 2 0 0 376 674 385
1257 2 2 0 0 518 715 519
1258 2 2 0 0 474 667 430
1259 2 2 0 0 478 734 294
1260 2 2 0 0 624 633 28
1261 2 2 0 0 186 707 619
1262 2 2 0 0 64 663 475
1263 2 2 0 0 597 647 258
1264 2 2 0 0 377 738 605
1265 2 2 0 0 31 735 467
1266 2 2 0 0 27 718 458
1267 2 2 0 0 419 673 68
1268 2 2 0 0 616 722 393
1269 2 2 0 0 24 723 419
1270 2 2 0 0 397 638 48
1271 2 2 0 0 404 730 460
1272 2 2 0 0 91 676 472
1273 2 2 0 0 622 626 361
1274 2 2 0 0 7 656 32
1275 2 2 0 0 576 697 277
1276 2 2 0 0 471 691 650
1277 2 2 0 0 536 663 373
1278 2 2 0 0 484 691 471
1279 2 2 0 0 552 650 30
1280 2 2 0 0 311 678 600
1281 2 2 0 0 486 729 5
1282 2 2 0 0 418 673 666
1283 2 2 0 0 232 680 231
1284 2 2 0 0 5 679 4
1285 2 2 0 0 117 665 539
1286 2 2 0 0 384 702 616
1287 2 2 0 0 557 702 221
1288 2 2 0 0 87 675 85
1289 2 2 0 0 225 711 604
1290 2 2 0 0 505 677 571
1291 2 2 0 0 483 661 494
1292 2 2 0 0 263 565 375
1293 2 2 0 0 504 677 594
1294 2 2 0 0 582 718 399
1295 2 2 0 0 645 714 46
1296 2 2 0 0 534 708 392
1297 2 2 0 0 643 680 402
1298 2 2 0 0 18 712 452
1299 2 2 0 0 392 670 390
1300 2 2 0 0 221 702 603
1301 2 2 0 0 496 664 391
1302 2 2 0 0 606 710 118
1303 2 2 0 0 655 703 602
1304 2 2 0 0 608 676 91
1305 2 2 0 0 194 684 514
1306 2 2 0 0 541 671 378
1307 2 2 0 0 154 669 652
1308 2 2 0 0 399 718 639
1309 2 2 0 0 405 715 674
1310 2 2 0 0 33 726 677
1311 2 2 0 0 629 671 284
1312 2 2 0 0 468 735 495
1313 2 2 0 0 469 704 408
1314 2 2 0 0 427 745 479
1315 2 2 0 0 294 734 251
1316 2 2 0 0 461 705 379
1317 2 2 0 0 385 674 636
1318 2 2 0 0 657 692 176
1319 2 2 0 0 561 714 411
1320 2 2 0 0 631 669 154
1321 2 2 0 0 264 682 265
1322 2 2 0 0 43 638 486
1323 2 2 0 0 48 638 43
1324 2 2 0 0 194 744 684
1325 2 2 0 0 381 686 380
1326 2 2 0 0 658 716 589
1327 2 2 0 0 263 567 565
1328 2 2 0 0 310 681 337
1329 2 2 0 0 493 685 492
1330 2 2 0 0 64 685 663
1331 2 2 0 0 309 678 267
1332 2 2 0 0 600 678 431
1333 2 2 0 0 538 694 333
1334 2 2 0 0 598 685 64
1335 2 2 0 0 551 695 633
1336 2 2 0 0 560 699 241
1337 2 2 0 0 211 690 210
1338 2 2 0 0 2 723 3
1339 2 2 0 0 630 708 441
1340 2 2 0 0 467 735 468
1341 2 2 0 0 396 687 395
1342 2 2 0 0 35 507 22
1343 2 2 0 0 259 567 263
1344 2 2 0 0 417 673 418
1345 2 2 0 0 614 686 197
1346 2 2 0 0 392 708 630
1347 2 2 0 0 5 729 6
1348 2 2 0 0 279 725 661
1349 2 2 0 0 6 729 26
1350 2 2 0 0 357 703 655
1351 2 2 0 0 514 684 635
1352 2 2 0 0 540 733 538
1353 2 2 0 0 374 741 593
1354 2 2 0 0 176 692 559
1355 2 2 0 0 650 691 500
1356 2 2 0 0 484 736 691
1357 2 2 0 0 83 733 540
1358 2 2 0 0 558 740 372
1359 2 2 0 0 626 697 555
1360 2 2 0 0 436 693 437
1361 2 2 0 0 375 737 374
1362 2 2 0 0 475 663 536
1363 2 2 0 0 636 674 198
1364 2 2 0 0 674 715 198
1365 2 2 0 0 70 695 551
1366 2 2 0 0 406 721 407
1367 2 2 0 0 677 726 571
1368 2 2 0 0 258 647 627
1369 2 2 0 0 448 701 451
1370 2 2 0 0 458 672 506
1371 2 2 0 0 229 700 570
1372 2 2 0 0 684 744 428
1373 2 2 0 0 570 700 544
1374 2 2 0 0 678 742 431
1375 2 2 0 0 646 741 314
1376 2 2 0 0 603 702 384
1377 2 2 0 0 478 731 293
1378 2 2 0 0 309 742 678
1379 2 2 0 0 380 686 614
1380 2 2 0 0 494 725 468
1381 2 2 0 0 500 691 38
1382 2 2 0 0 635 684 615
1383 2 2 0 0 661 725 494
1384 2 2 0 0 679 721 34
1385 2 2 0 0 509 510 35
1386 2 2 0 0 46 714 51
1387 2 2 0 0 615 684 428
1388 2 2 0 0 432 742 689
1389 2 2 0 0 179 713 181
1390 2 2 0 0 26 739 645
1391 2 2 0 0 35 510 507
1392 2 2 0 0 574 703 357
1393 2 2 0 0 184 707 186
1394 2 2 0 0 39 693 612
1395 2 2 0 0 665 694 539
1396 2 2 0 0 312 708 534
1397 2 2 0 0 554 689 309
1398 2 2 0 0 1 737 508
1399 2 2 0 0 519 717 520
1400 2 2 0 0 277 697 622
1401 2 2 0 0 389 711 641
1402 2 2 0 0 495 736 484
1403 2 2 0 0 17 712 18
1404 2 2 0 0 212 722 557
1405 2 2 0 0 455 720 438
1406 2 2 0 0 622 697 626
1407 2 2 0 0 664 694 665
1408 2 2 0 0 447 719 449
1409 2 2 0 0 669 688 652
1410 2 2 0 0 612 693 436
1411 2 2 0 0 619 744 194
1412 2 2 0 0 57 728 59
1413 2 2 0 0 579 658 583
1414 2 2 0 0 438 727 525
1415 2 2 0 0 539 733 83
1416 2 2 0 0 479 731 478
1417 2 2 0 0 691 736 38
1418 2 2 0 0 401 724 400
1419 2 2 0 0 420 660 2
1420 2 2 0 0 328 732 325
1421 2 2 0 0 320 738 453
1422 2 2 0 0 428 744 429
1423 2 2 0 0 431 742 432
1424 2 2 0 0 425 745 427
1425 2 2 0 0 408 743 434
1426 2 2 0 0 571 726 403
1427 2 2 0 0 119 727 523
1428 2 2 0 0 625 706 462
1429 2 2 0 0 525 730 404
1430 2 2 0 0 499 736 495
1431 2 2 0 0 468 725 654
1432 2 2 0 0 336 672 582
1433 2 2 0 0 198 715 518
1434 2 2 0 0 400 724 706
1435 2 2 0 0 402 680 581
1436 2 2 0 0 589 716 659
1437 2 2 0 0 727 730 525
1438 2 2 0 0 664 665 391
1439 2 2 0 0 337 740 558
1440 2 2 0 0 293 731 562
1441 2 2 0 0 523 720 282
1442 2 2 0 0 460 730 119
1443 2 2 0 0 641 711 225
1444 2 2 0 0 429 744 619
1445 2 2 0 0 119 730 727
1446 2 2 0 0 651 722 212
1447 2 2 0 0 38 736 499
1448 2 2 0 0 667 686 381
1449 2 2 0 0 652 688 383
1450 2 2 0 0 410 710 606
1451 2 2 0 0 644 701 448
1452 2 2 0 0 666 673 419
1453 2 2 0 0 704 743 408
1454 2 2 0 0 251 734 586
1455 2 2 0 0 400 706 625
1456 2 2 0 0 546 688 669
1457 2 2 0 0 668 700 229
1458 2 2 0 0 538 733 694
1459 2 2 0 0 333 694 664
1460 2 2 0 0 565 662 375
1461 2 2 0 0 720 727 438
1462 2 2 0 0 372 700 668
1463 2 2 0 0 579 716 658
1464 2 2 0 0 642 711 389
1465 2 2 0 0 355 705 461
1466 2 2 0 0 407 721 679
1467 2 2 0 0 523 727 720
1468 2 2 0 0 654 725 279
1469 2 2 0 0 639 718 27
1470 2 2 0 0 694 733 539
1471 2 2 0 0 393 722 651
1472 2 2 0 0 645 739 397
1473 2 2 0 0 683 741 374
1474 2 2 0 0 397 739 638
1475 2 2 0 0 653 716 579
1476 2 2 0 0 666 723 660
1477 2 2 0 0 419 723 666
1478 2 2 0 0 374 737 683
1479 2 2 0 0 593 741 646
1480 2 2 0 0 683 737 1
1481 2 2 0 0 689 742 309
1482 2 2 0 0 660 723 2
1483 2 2 0 0 23 25 1
1484 2 2 0 0 25 607 1
1485 2 2 0 0 3 34 2
1486 2 2 0 0 34 415 2
$EndElements
