$MeshFormat
2.2 0 8
$EndMeshFormat
$Nodes
745
1 4.2784890679866852e-05 2.0438180317635318e-05 1.0181816224160657e-03
2 5.2349448365036948e-05 -3.5454328859506185e-05 -1.0159890895110027e-03
3 1.4562040236676068e-04 2.0138483869408689e-05 -1.0062086869333481e-03
4 2.5458637211983934e-04 4.5857244248301665e-06 -9.8434132972019983e-04
5 3.8735339555877508e-04 1.3131567312048921e-05 -9.3767490936346690e-04
6 5.1286840395281216e-04 -1.1938338893809805e-08 -8.7097013607929290e-04
7 6.1124372930041382e-04 2.3039299535157666e-06 -8.0149319468375351e-04
8 7.2815954075945201e-04 -2.3005364346437993e-06 -6.9099309381075830e-04
9 8.1975270920430713e-04 -2.5849420379753139e-06 -5.7272381944912696e-04
10 9.0137398962101016e-04 2.6054443726835519e-06 -4.2399464157724486e-04
11 9.5467374175980165e-04 7.7156118117193911e-06 -2.7452448253776496e-04
12 9.8333326009274972e-04 2.9412573956663340e-06 -1.3050580769137098e-04
13 9.9143333241530395e-04 7.8581388556783745e-06 2.8029199277559264e-06
14 9.8124407929559574e-04 4.5892996147572143e-06 1.4502378979558054e-04
15 9.4989395399592137e-04 -2.0531663852910854e-06 2.9169828667887678e-04
16 8.9669046357097762e-04 6.9476792561185081e-06 4.3493759980094978e-04
17 8.2278869695730358e-04 1.5670081141710259e-06 5.6844773232100595e-04
18 7.3455514203660613e-04 8.9940585149708135e-07 6.8421025292570727e-04
19 6.2613297845457783e-04 6.2214618700572175e-06 7.8985413942582125e-04
20 5.0673554077559305e-04 -9.8189134217333159e-08 8.7545401816661059e-04
21 3.7194035637714743e-04 5.2609526115287623e-06 9.4432455856659355e-04
22 2.4290406610224968e-04 -8.2545878783250243e-06 9.8780376013547235e-04
23 1.4279723735291969e-04 -2.1428888387067109e-05 1.0074860867063892e-03
24 1.5115861127934651e-04 1.2912915028585184e-04 -9.9797238950195041e-04
25 1.6908961375932085e-04 1.0673297616251305e-04 9.9863507058252994e-04
26 5.5702945559026745e-04 1.0978939890526665e-04 -8.3402176540243870e-04
27 5.6553432627954789e-04 -1.0764392480167808e-04 8.2930553311833790e-04
28 9.6317484961153132e-04 1.3482170340531552e-04 -1.9749810530022497e-04
29 8.4737355013574588e-04 1.5061748231530935e-04 5.0767006696102418e-04
30 9.2213126671435966e-04 -1.2119253720572439e-04 3.5312440637456704e-04
31 9.6387243182257190e-04 -1.1816975600362121e-04 -2.0495522594959288e-04
32 5.5706161873402742e-04 -1.1036185341133163e-04 -8.3460356447786783e-04
33 5.5859793175840869e-04 1.0575708763151974e-04 8.3425672807994390e-04
34 1.7822762616960479e-04 -8.2921547201908339e-05 -9.9876910153852676e-04
35 1.9310183706952610e-04 -1.0770347011084580e-04 9.9304559644214602e-04
36 7.8120009290438125e-04 -1.2856467929023098e-04 6.1349698624864584e-04
37 7.7327162563196254e-04 1.2229113623230526e-04 -6.2446551751886451e-04
38 9.8189796165046501e-04 -1.1105733578308286e-04 8.0579521661000301e-05
39 9.6031927176031277e-04 1.2031549244287832e-04 2.1991641444602488e-04
40 8.5871987034638988e-04 -1.3099969909796829e-04 -4.9113618875449314e-04
41 2.8854595665911968e-04 1.2739359770437252e-04 -9.6505769755193945e-04
42 2.2898814894812389e-04 2.2532224153624212e-04 -9.6287601812251270e-04
43 3.2932547774571755e-04 2.3913138492585013e-04 -9.2762246936357808e-04
44 3.0572609537646820e-04 1.0647865612181422e-04 9.6303917285019700e-04
45 6.6868547472915987e-04 1.2262193956462565e-04 -7.4073169943998825e-04
46 7.0423458963189179e-04 2.5067530047804648e-04 -6.6833260628549620e-04
47 2.6538170134029072e-04 3.2929879473455844e-04 -9.2014018157405533e-04
48 3.9267013694555165e-04 3.3409496773532618e-04 -8.6875100715409401e-04
49 3.3122494533288497e-04 4.3270729798529497e-04 -8.4952610701870962e-04
50 7.9919103670200546e-04 2.4715166160167891e-04 -5.4587328118036729e-04
51 7.2396007327900152e-04 3.6540267988979509e-04 -5.8503340029980187e-04
52 8.0458131569059331e-04 3.6593528767858729e-04 -4.6007900535189559e-04
53 7.2611838644401144e-04 4.7471931992974857e-04 -4.9186764677858436e-04
54 7.9568028597650354e-04 4.7429100391130948e-04 -3.6115186489612232e-04
55 7.0580402640238373e-04 5.8428584823945419e-04 -3.8718872790420561e-04
56 7.6857751014807330e-04 5.7418755943518761e-04 -2.5442214218599407e-04
57 6.2939800809346208e-04 5.8641195094194152e-04 -5.0461183704725884e-04
58 5.9713312335676644e-04 6.8685313420759216e-04 -4.0178733431961596e-04
59 5.1047202703588730e-04 6.8117969015274254e-04 -5.2035004440833914e-04
60 4.7848481287747312e-04 7.6996146686980908e-04 -4.1012255866757603e-04
61 3.8339849945683864e-04 7.5269851677481120e-04 -5.3175326253514720e-04
62 3.5284730512302693e-04 8.3631220391012617e-04 -4.0738247240069617e-04
63 1.9730889874850378e-04 4.5553442511445482e-04 -8.8040141974143654e-04
64 4.3868334196019989e-04 8.3984883201083374e-04 -2.9571474415026835e-04
65 2.5393380924008854e-04 8.1407562651838203e-04 -5.1811564483995464e-04
66 2.2913319535858504e-04 8.8688283423643554e-04 -3.8729517791750772e-04
67 1.1919771501453199e-04 8.6149214344077244e-04 -4.8738809000780720e-04
68 1.0858282475832511e-04 2.3705273440760360e-04 -9.8189592366065858e-04
69 1.3858991215757573e-04 7.6730937253351541e-04 -6.2911397952921365e-04
70 8.4778499198751782e-04 4.6281446123899988e-04 -2.2636043806321786e-04
71 8.1767445705887047e-04 5.4923151402115069e-04 -1.1224864876492499e-04
72 7.2633705638575248e-04 6.5995304511380106e-04 -1.4058903943020527e-04
73 7.6428020382942068e-04 6.3092847809077997e-04 1.5721838569398809e-08
74 6.6697085704094973e-04 7.3222970234710499e-04 -2.7261727282302875e-05
75 6.8929768444264705e-04 7.0455581011889010e-04 1.0379361034389768e-04
76 5.9404672640623430e-04 7.8902856849559977e-04 8.0685389232466168e-05
77 6.0664587983850203e-04 7.5558023701592018e-04 2.1235951849501300e-04
78 5.0263595118278648e-04 8.3590150356176055e-04 1.7881839103862002e-04
79 9.7677684160756253e-05 9.2690500045279828e-04 -3.4458005892468640e-04
80 -1.8697771622162888e-05 8.9589637274160752e-04 -4.3335988328460661e-04
81 2.4360547724715768e-04 2.2077800208066068e-04 9.6114407937434633e-04
82 5.2061033094761070e-04 7.8596557381251770e-04 3.1389193567759157e-04
83 -4.0830467230844957e-05 9.4537598206200554e-04 -2.9972502732144842e-04
84 4.0354553080453775e-04 8.6497319008292325e-04 2.7294745214745012e-04
85 4.1949036267540214e-04 8.0566633964938438e-04 4.0646642181169605e-04
86 2.9958459036821594e-04 8.7115136241102808e-04 3.7433950999412897e-04
87 3.1368559720715066e-04 8.0273086133355166e-04 5.0180631817271955e-04
88 1.8703189982798230e-04 8.5460750354049821e-04 4.7753607457433215e-04
89 1.6069775733067247e-04 9.1891232262846683e-04 3.4218149362459671e-04
90 5.2522671581343166e-05 8.9213182614062640e-04 4.3875622983917877e-04
91 6.9792860341289040e-05 8.1731472490241097e-04 5.7065889906828557e-04
92 -5.6500956150903351e-05 8.4866194135099706e-04 5.2108475684965684e-04
93 -7.7131049120074494e-05 9.0999132840613082e-04 3.9354002235068587e-04
94 -1.8919725414770928e-04 8.5426554719693012e-04 4.7637807649736900e-04
95 -1.4863782442874244e-04 8.0040389682403191e-04 5.7800969475190584e-04
96 -2.1337163823691404e-04 9.0801856048147614e-04 3.4172773067382261e-04
97 1.1037945962920856e-04 2.3307146675102333e-04 9.8367416409818266e-04
98 5.2596748523559358e-04 7.0713127734937920e-04 4.6797567769543257e-04
99 1.8252236016703393e-04 3.2349475169077643e-04 9.4430415624468763e-04
100 5.4138997799385368e-05 3.1785371209379641e-04 9.6316008774569267e-04
101 -2.5232332388077946e-05 2.1977950176077911e-04 9.9289360268065593e-04
102 -7.7277989664070488e-05 3.1433410895156038e-04 9.6263750531774654e-04
103 2.0611491116906695e-04 9.3776630947575788e-04 -2.4994571144898670e-04
104 -1.0712239245743585e-04 9.5150105541110127e-04 2.5969441320857617e-04
105 -2.4399843656284449e-04 9.4029625743681630e-04 1.9756108354011478e-04
106 -3.4915686579341129e-04 8.8422808990309607e-04 2.8486607497913373e-04
107 -1.5398947580466573e-04 9.0612589486994770e-04 -3.7864176639439286e-04
108 -1.3034955801999169e-04 8.4596186524843974e-04 -5.1173345912681632e-04
109 -3.7184809294450434e-04 9.0609884005309949e-04 1.4983620202451640e-04
110 -2.6497437017288590e-04 8.4590881232913162e-04 -4.5369729483699139e-04
111 -2.3889595856023250e-04 7.7031399356529244e-04 -5.9052720968454661e-04
112 -3.6791843245387860e-04 7.6609169792166056e-04 -5.2264636180710184e-04
113 -3.3023073941022265e-04 6.7598413789060521e-04 -6.6202183748965710e-04
114 -4.6319092014844105e-04 6.7086723596820733e-04 -5.7796851583593895e-04
115 -4.1695847890456736e-04 5.7702411521565005e-04 -7.0775766325710987e-04
116 -4.9505330128097127e-04 7.4133773049969926e-04 -4.4342246065305358e-04
117 -2.7991733434236491e-04 8.9726886181055619e-04 -3.2014508656604711e-04
118 -2.8447683257902642e-04 7.7634808787442838e-04 5.6121062801370281e-04
119 7.0522629430347719e-04 6.6365460159633271e-04 2.1425510971169782e-04
120 -2.8120368145899275e-04 5.7241576985926938e-04 -7.7880409155481431e-04
121 -3.6097461130841282e-04 4.6654049707762352e-04 -8.1778133457352628e-04
122 -4.9677152585431215e-04 4.7321561480557562e-04 -7.3402169576231415e-04
123 -4.4072541239007987e-04 3.6595317980338228e-04 -8.3038643335060021e-04
124 -5.8778537509996363e-04 6.3768712842324497e-04 -4.9141656837823461e-04
125 -6.1297999700005439e-04 6.9323297852079445e-04 -3.6248560169054126e-04
126 -6.9487005184845499e-04 5.8647853006847119e-04 -4.0309509469769794e-04
127 -4.7478962383094007e-04 8.3985835432910010e-04 2.2935215868410088e-04
128 -5.6504888742283223e-04 3.5530864382653428e-04 -7.5185527460651673e-04
129 -5.0909002396429617e-04 2.5455111873192322e-04 -8.3301882115912403e-04
130 -6.2975705885254620e-04 2.2113362420312727e-04 -7.5198365011226601e-04
131 -5.6633202572712205e-04 1.2506851485024814e-04 -8.2523436037868696e-04
132 -6.8354978088575491e-04 9.2730023198350618e-05 -7.3062526422062871e-04
133 -6.0470687294487523e-04 -1.1341156865358360e-05 -8.0639923187649030e-04
134 -7.2044935336807695e-04 -3.5771709844976879e-05 -6.9797875767659348e-04
135 -6.3017734748560333e-04 -1.4547593158795996e-04 -7.7148268551029706e-04
136 -7.8962648978308570e-04 7.6226749754105329e-05 -6.0996691570353598e-04
137 -8.1733248816868423e-04 -5.4221459192327217e-05 -5.7275700671214063e-04
138 -8.7254545974732155e-04 4.8422233541112093e-05 -4.7956834343750097e-04
139 -8.9071080445321982e-04 -8.1213217890752123e-05 -4.3770974327382063e-04
140 -9.3071267275035400e-04 1.1630397345911117e-05 -3.4798182451400506e-04
141 -9.3819532267342711e-04 -1.1762410713044801e-04 -3.0332123178650623e-04
142 -9.6823065389395541e-04 -1.4786854342332077e-05 -2.1368436281521150e-04
143 -9.6645258022701609e-04 -1.4485091068939087e-04 -1.6612734229576223e-04
144 -9.8676775511377657e-04 -3.8055115797227669e-05 -7.8182960265545145e-05
145 -9.7574942943339567e-04 -1.6743228125536854e-04 -3.3506056984750456e-05
146 -9.8754783564032850e-04 -5.6502544662650236e-05 5.1658868416126389e-05
147 -9.6815890562026096e-04 -1.8364976259610508e-04 1.0399574335068821e-04
148 -9.4684656821126666e-04 -2.9114435857966001e-04 1.2863034406401487e-05
149 -9.3065151294620104e-04 -3.0543314727185175e-04 1.5295194626838864e-04
150 -9.4231312079903935e-04 -1.8955167899247958e-04 2.4655800063644480e-04
151 -8.9529683731838321e-04 -3.1401257224643688e-04 2.9332607125502597e-04
152 -8.9568768458146198e-04 -1.9752335152747663e-04 3.8503274725664805e-04
153 -8.3688725950912808e-04 -3.2649569529223698e-04 4.2960188896017928e-04
154 -8.8985010234299538e-04 -2.1403188063483610e-04 -3.8935309796214832e-04
155 -8.2800076124929956e-04 -2.1089405917839560e-04 5.1564217477682416e-04
156 -7.5888039787430932e-04 -3.3521138675159014e-04 5.5685978534290935e-04
157 -8.7918207707150407e-04 -7.9112203928267187e-05 4.6250896075216238e-04
158 -7.3845852972272673e-04 -2.1715962607389916e-04 6.4129937376477663e-04
159 -6.6443946194255068e-04 -3.3457426913659379e-04 6.7291928281606583e-04
160 -9.8732733253106722e-04 7.6992081486190839e-05 5.1295183103471585e-06
161 -6.3054971107255402e-04 -2.1204833488314471e-04 7.5477249964431975e-04
162 -5.4745669107824702e-04 -3.2412872350740261e-04 7.8120449492119601e-04
163 -5.1223017704775278e-04 -1.1593996588897189e-04 -8.6346036428976917e-04
164 -5.2948607922768682e-04 -2.4869822367065112e-04 -8.2209243070826925e-04
165 -7.0954036606461421e-04 6.3822669350822934e-04 -2.7153408651746640e-04
166 -1.4997738334766319e-04 2.0566786709877847e-04 9.8442391457368708e-04
167 -2.1248452978020409e-04 3.1787992702266319e-04 9.3947790046665901e-04
168 -4.1353325548565401e-04 -2.0898515413670974e-04 -9.0021608996528047e-04
169 -4.3701856359488681e-04 -3.4046262677619744e-04 -8.4455115472929863e-04
170 -5.5164657859468837e-04 -3.8147934789276537e-04 -7.4978412987929610e-04
171 -4.4952308835996346e-04 -4.7807560261469903e-04 -7.6340029187072520e-04
172 -5.5661873920245157e-04 -5.0764331748620194e-04 -6.6186833148522287e-04
173 -4.4133107721430211e-04 -6.0571693756822950e-04 -6.6686272790898726e-04
174 -5.4754151644906821e-04 -6.2143366678539199e-04 -5.5943392914807946e-04
175 -4.2807293963466504e-04 -7.1245725273218099e-04 -5.5504612142268464e-04
176 -7.6294528903739754e-04 -4.4315400807290489e-04 4.6307959852379653e-04
177 -5.2419332849056467e-04 -7.2129242749518574e-04 -4.4450259524681949e-04
178 -4.0471707067617820e-04 -8.0101230383436352e-04 -4.3240790179648498e-04
179 -3.1130633445097366e-04 -7.8208979630177053e-04 -5.3771966806928466e-04
180 -2.7737675372481246e-04 -8.6142387610087668e-04 -4.1580485846117452e-04
181 -1.7685240443865866e-04 -8.3297361700045830e-04 -5.2144118200767183e-04
182 -1.3997711196287043e-04 -9.0258971343200171e-04 -3.9630196887574163e-04
183 -3.8661225389956144e-05 -8.6014852425102804e-04 -5.0553892561657388e-04
184 2.9981216717214206e-06 -9.2232292952177828e-04 -3.7393640020476896e-04
185 -9.7385388257422120e-05 -9.5107320545112983e-04 -2.7000209971229792e-04
186 4.2514138470380019e-05 -9.6208701832879815e-04 -2.4227239906680670e-04
187 -5.0950346084316185e-05 -9.8057141790551267e-04 -1.4149258371618238e-04
188 8.9478476260013536e-05 -9.8082870832980952e-04 -1.1864316702536956e-04
189 -4.8983485355941281e-06 -9.9136857536889929e-04 -1.6307945492009587e-05
190 1.2668334791562995e-04 -9.8341227165384994e-04 1.1613839255220716e-05
191 3.5641278574170106e-05 -9.8516963940177408e-04 1.0956730684599801e-04
192 1.6704210938932909e-04 -9.6838241238152189e-04 1.3700855749035663e-04
193 6.7379446178038248e-05 -9.6155099853965182e-04 2.3954317082163317e-04
194 2.1393536895255354e-04 -9.6481759513276314e-04 -8.2266805340933929e-05
195 2.0041746497865729e-04 -9.3576397903877317e-04 2.6751582345329602e-04
196 1.0158688894257305e-04 -9.1922507979456036e-04 3.6814379683039358e-04
197 1.0783122357428129e-04 -8.7170250361732441e-04 -4.7430660884891239e-04
198 -9.6501253469638429e-05 -9.8298773125617286e-04 8.5948002646608882e-05
199 2.3166515387384792e-04 -8.8342909296048396e-04 3.9737447296389752e-04
200 3.2813228882967239e-04 -8.9158119343415467e-04 2.9244555045576317e-04
201 3.5957869005820144e-04 -8.3147615842264105e-04 4.1472027449235407e-04
202 1.3234071479446745e-04 -8.5634396634006805e-04 4.9587454360911886e-04
203 4.5355959674775296e-04 -8.2884917340682741e-04 3.0956168610493819e-04
204 8.0841134179576291e-07 -8.8035566710306982e-04 4.6934354052050633e-04
205 2.9883179685272834e-05 -8.0455054959356869e-04 5.9520242709788459e-04
206 -8.9798263261882676e-04 -4.1485314134019711e-04 5.8157518131681357e-05
207 -8.0304431821532249e-05 -7.6726912584101567e-04 -6.4065842291593242e-04
208 -1.0558529446992213e-04 -8.2236898187314483e-04 5.5919078837642869e-04
209 -6.9819039019473013e-05 -7.3286510067459949e-04 6.8285868550572960e-04
210 4.7761550435340244e-04 -7.5936248102860310e-04 4.3422631982405891e-04
211 5.6238181399298622e-04 -7.5276688400919124e-04 3.2520808983929774e-04
212 -4.9319804053953747e-04 -7.9808953707024210e-04 -3.2803261436281628e-04
213 6.3032930144561595e-05 -7.0422134875644310e-04 7.1469032387220448e-04
214 -3.2362385069491836e-05 -6.2249718872830660e-04 7.9259255692800637e-04
215 -3.1801000379422066e-04 -2.8761907867308451e-04 -9.1825872955869636e-04
216 -2.0693041891859214e-04 -7.4795749156598512e-04 6.3441362159741754e-04
217 -2.4294701030011780e-04 -8.2621417356747108e-04 5.0514218725789884e-04
218 5.4010631785676526e-04 -8.0747201904570950e-04 2.0499771868433256e-04
219 6.4948665083064590e-04 -7.1766688739542694e-04 2.2249881572669594e-04
220 6.1659241873714295e-04 -7.7174892464722245e-04 9.1298878928540604e-05
221 -6.3348386509314242e-04 -6.2785228666502985e-04 -4.4355124960205114e-04
222 7.2214151038566552e-04 -6.7177224552699376e-04 1.0826015759115100e-04
223 6.7815847963197150e-04 -7.2329946445212634e-04 -2.4086004418103144e-05
224 -2.9539330201991800e-04 -1.7500287621806068e-04 -9.5535352732745626e-04
225 -9.5152702305593452e-04 1.1372360231049833e-04 -2.5600998641141492e-04
226 9.6363244692340187e-05 -5.9104624898038169e-04 8.1228299350662571e-04
227 -5.1700218691900048e-06 -4.9719920735756431e-04 8.8164623589558077e-04
228 -5.0775836116024665e-04 -1.9248850957624089e-04 8.5199119819099483e-04
229 -5.9866981893369909e-04 -8.9939104704768002e-05 8.0578989691926077e-04
230 6.5545867353921023e-04 -6.6228982420444107e-04 3.4836086192406872e-04
231 3.8093427109671683e-04 -7.5180887889842373e-04 5.3692101964856792e-04
232 4.9871906863352899e-04 -6.6129952594891090e-04 5.6181356905199962e-04
233 7.7362806127483108e-04 -6.2030840131662129e-04 -7.9388980639824318e-06
234 7.2874517655979331e-04 -6.5884299890650133e-04 -1.3897966693365954e-04
235 -3.7537682112028127e-04 2.4930553537847323e-04 -9.0657124932760414e-04
236 3.0385687752333815e-04 3.2185856905766211e-04 9.1128931213883433e-04
237 -4.1669087747730788e-04 -2.8370894368045233e-04 8.7731799652496114e-04
238 -8.3544887928153812e-04 1.9698379989459489e-04 -5.0949596486832033e-04
239 6.2731845646848516e-04 -7.5345298973902354e-04 -1.5356617925477674e-04
240 6.7768954006751239e-04 -6.7612202890968078e-04 -2.6630851535530654e-04
241 -5.7238767705069919e-04 -4.5098901597331528e-04 6.9058113165938208e-04
242 5.6922454156354478e-04 -7.6414511621661428e-04 -2.8245846618938898e-04
243 6.0681156411564457e-04 -6.8302803933372922e-04 -3.9643423572963772e-04
244 7.1298489342438303e-04 -5.8227968053295399e-04 -3.7917525573974089e-04
245 6.2628176667584804e-04 -5.8453945085108685e-04 -5.1344123527036841e-04
246 -1.9601398673739980e-04 -2.4870798366316479e-04 -9.6528337851130113e-04
247 8.1238589254091389e-04 -5.5813866712985420e-04 1.1279398530609300e-04
248 2.2874912768809007e-04 4.3852122738448032e-04 8.8237513117565673e-04
249 -3.8563667479205922e-04 -1.5548951617468110e-04 9.2466046102307865e-04
250 3.5777167425557390e-04 4.4221139173342887e-04 8.3378301017245603e-04
251 -2.0775082599945295e-04 -3.8196513021176331e-04 -9.1531359949703411e-04
252 -8.1960250834858141e-05 -3.3510259264540784e-04 -9.5524791932308684e-04
253 3.8025627865077616e-04 9.0379539169577324e-04 1.4529802323237452e-04
254 -6.1942756403032871e-04 7.4090460553721230e-04 -2.2503488961021488e-04
255 -7.0890374781039421e-04 6.7785475626056316e-04 -1.3922647605806954e-04
256 -7.9111735699581511e-04 5.6891771002807979e-04 -1.8099213895787178e-04
257 -7.8630681300515589e-04 5.9963303064366688e-04 -5.1305465944333454e-05
258 -2.1725120842728076e-05 4.2407486264965427e-04 9.2009970067531298e-04
259 -2.9594487871713933e-04 -2.4004178880150607e-04 9.4041108920915096e-04
260 -2.8116956951709592e-04 2.1210245042078353e-04 9.5178913603466279e-04
261 -3.5517137441251493e-04 3.0784889590016173e-04 8.9630673532132719e-04
262 -2.6398562357606421e-04 -1.1794062510208083e-04 9.7444780370197837e-04
263 -1.7223780791634092e-04 -2.1427054514194078e-04 9.7892811749680656e-04
264 -8.5764841676806865e-04 4.8832053712996842e-04 -8.2971973915285375e-05
265 -8.4246023450470771e-04 5.1845401161824684e-04 4.6202970049304462e-05
266 -3.4002796054853932e-04 -7.4516182724988160e-04 5.7419486185713979e-04
267 -3.6812179177772629e-04 -8.1323449775324045e-04 4.4312573797626896e-04
268 5.1494971750603571e-04 -6.7744495591801534e-04 -5.2341930379826563e-04
269 5.2414249737846904e-04 -5.7306440702908294e-04 -6.3379563423844717e-04
270 6.1944854840887938e-04 -4.7873104233790915e-04 -6.2555323166761960e-04
271 5.1044497168951008e-04 -4.5820485714286968e-04 -7.3586904637553709e-04
272 4.1132947897438798e-04 -5.4742177058687239e-04 -7.3714569801196098e-04
273 -2.7728787259413533e-04 4.1742579922547597e-04 8.7817247669027502e-04
274 -4.2035135490957028e-04 4.0825949960879570e-04 8.2089666590770809e-04
275 3.8889704878686406e-04 -4.2510196810538763e-04 -8.2925847843383382e-04
276 2.8271688318439944e-04 -5.0997535385465692e-04 -8.2424759965302869e-04
277 -3.2828050550123909e-04 -3.5810622035975618e-04 8.8791864475663309e-04
278 -1.3656655592812577e-04 9.7396480739267649e-04 1.1884096196503025e-04
279 8.1346001267255583e-04 -5.5492727985613239e-04 -1.1807470072554792e-04
280 -2.3161135005672157e-04 4.5976737203167996e-04 -8.6961036048695153e-04
281 -1.5081459458132749e-04 5.7040713555082500e-04 -8.1757149177739800e-04
282 8.5391661435982465e-04 5.0369698453882426e-04 2.9468019207206300e-05
283 1.1468975639312957e-04 -4.7268347187789874e-04 8.8805036582741744e-04
284 -9.7953744682826747e-04 5.7732761414186809e-05 1.3656799345342121e-04
285 -9.0404594695534608e-04 -3.9921596748484958e-04 -7.2068728082028968e-05
286 -8.4248739683277600e-04 -5.2088002952461088e-04 -2.7340171275924998e-05
287 -8.2633415456022103e-04 -5.3711181143784666e-04 1.0541323769201719e-04
288 -7.6666686006201200e-04 -6.2755427328369082e-04 1.9789066599374500e-05
289 -7.4077309049670867e-04 -6.4031509590731402e-04 1.5647665732881810e-04
290 -6.7122003720340468e-04 -7.2508281283368452e-04 7.7999396052223077e-05
291 -1.9356779781990724e-04 -9.5987726197990970e-04 -1.5998880603695294e-04
292 -2.7149724791758110e-04 -8.8262983149250843e-04 3.7117187095337642e-04
293 -3.2783379225018665e-04 -5.5281517857989849e-04 -7.7590269349916074e-04
294 -1.0752174655574525e-04 -4.7112424935151422e-04 -8.9020014737834494e-04
295 -4.8600976841661574e-04 2.8343502271647455e-04 8.3813365137653975e-04
296 -5.5131880997452394e-04 3.9193860881520017e-04 7.4388290755314263e-04
297 -8.5746857134416524e-04 4.5201145424021960e-04 -2.0882145414740947e-04
298 -6.0911859771643339e-04 2.6951374232222239e-04 7.5374728092689127e-04
299 -6.6896226715844732e-04 3.6983946999137623e-04 6.4754163216557180e-04
300 -6.0096301732342236e-04 4.9480706700272986e-04 6.2960740353594773e-04
301 -7.0576140180721408e-04 4.6500168219881322e-04 5.3081627435250397e-04
302 -7.6888436138817205e-04 3.3721064303431905e-04 5.3994390708802175e-04
303 -3.0082482276195816e-04 -6.6233541887202605e-04 6.9234713554649704e-04
304 -6.2728687478379056e-04 5.8816833896558468e-04 5.0544975297372183e-04
305 -8.0300049024743315e-04 4.1527284814722580e-04 4.1580272301088261e-04
306 2.3308099402132316e-04 -5.4595325482341992e-04 8.1638554275724918e-04
307 2.4280430994438063e-04 -4.2029069812668420e-04 8.8859465212985005e-04
308 3.5587042793441966e-04 -4.8989332348071534e-04 8.0723472851222970e-04
309 -4.5502691069117701e-04 -7.3043468837411874e-04 5.0487072784677486e-04
310 -8.5137779044186209e-04 2.8686592059279099e-04 4.2827566408956458e-04
311 -3.9785348880039641e-04 -8.5716241072205778e-04 3.0826543474425275e-04
312 -7.5831606174739310e-04 6.3155503204469275e-04 8.1231823525842418e-05
313 -8.4131889343229177e-04 -5.0013423106070340e-04 -1.5835254115277296e-04
314 -6.5127676678115629e-05 9.8539597065112276e-05 1.0119273785889203e-03
315 -8.7915773581221659e-04 3.5298110952949787e-04 2.9761431734547474e-04
316 -9.6831578414080424e-04 1.8990687018455586e-04 8.5046146373971211e-05
317 -1.0805215838550660e-04 7.5878428947643249e-04 -6.4410626461566822e-04
318 2.5995228363178205e-04 -3.8821959499117490e-04 -8.9858504797843918e-04
319 -6.8899103420742792e-04 -7.1004365097261516e-04 -5.8352138190650830e-05
320 -5.9076972941179918e-04 -7.9537455898470700e-04 1.1764510433964412e-07
321 -6.5658841629569295e-04 -4.0568113843397502e-04 -6.3873251085960943e-04
322 -9.0051120969665555e-05 -1.9032923476749566e-04 -9.9552193900577447e-04
323 5.0320601892240354e-04 -8.5147725552570000e-04 7.4683114854017833e-05
324 -6.1250000294511971e-04 7.7278486226274698e-04 -9.1543099415701421e-05
325 2.8513493713401398e-04 5.4703548652753394e-04 7.9665594233583627e-04
326 2.9345626372680785e-04 -6.3365104707169869e-04 -7.2353040184257908e-04
327 1.6069643437390723e-04 -5.9909403364395112e-04 -7.9519290651204274e-04
328 4.1119886863077022e-04 5.4442773222922246e-04 7.3834717268218982e-04
329 4.8312286542561599e-04 4.3265477809700066e-04 7.6980420313995063e-04
330 4.5413612510798843e-04 4.3848763752654500e-04 -7.8377231255685471e-04
331 -2.4868117053940470e-06 9.7666179484555134e-04 1.6858651339581301e-04
332 -2.4319778660076398e-05 9.8923518474277076e-04 3.8553071515409251e-05
333 -1.5587220747189265e-04 9.7780257640441774e-04 -6.3751298134513133e-06
334 1.1060481794693689e-04 9.8158559808081587e-04 7.3440438257078782e-05
335 3.6171638194546570e-04 -3.6347375699699678e-04 8.7211218851057984e-04
336 4.6195187285309145e-04 -4.3200404317207924e-04 7.8465220962228562e-04
337 -8.1040514887845887e-04 2.0518809207816654e-04 5.4549745733399916e-04
338 -3.5152634732931625e-04 5.1393760825282702e-04 7.9152651871250066e-04
339 -1.0176071280411565e-04 4.5898202172876877e-04 -8.9574593552454041e-04
340 3.7033704999213038e-04 -3.1306437905343783e-04 -8.8836856611594942e-04
341 3.9116329961127739e-05 -2.6924877919229015e-04 -9.7979869395035122e-04
342 -9.2096972319780123e-04 3.5447893811533783e-04 -9.5006490921974586e-05
343 2.2059809513826560e-05 -3.7556651053472471e-04 9.4276915480656415e-04
344 -5.2149113848796904e-04 6.1190953588051986e-04 5.9476040145621089e-04
345 -5.3094147767607019e-04 7.1202161984448723e-04 4.5249260528872781e-04
346 -6.5255346449553345e-04 6.5162742661961843e-04 3.7116810235170649e-04
347 6.0357745154367636e-04 -3.6282653311338900e-04 -7.1732973723878256e-04
348 7.1163784127388832e-04 -3.7502946596026373e-04 -5.9591495155263358e-04
349 5.2943663873538131e-04 5.2078996986625774e-04 6.7409383908389109e-04
350 6.0396232116392042e-04 3.9808421042980579e-04 6.9602967484148610e-04
351 6.4637878114059044e-04 4.9032775693031100e-04 5.8485716615907309e-04
352 7.1455651133890783e-04 3.5761116036950205e-04 6.0268580429766172e-04
353 7.4330965856048245e-04 4.5137254556380319e-04 4.8881417968975446e-04
354 -6.4217041113884645e-04 -7.2763332534154742e-04 2.0621004341617264e-04
355 2.5514226269803371e-04 5.5031781075176773e-04 -8.0404373711237900e-04
356 1.2879570072288392e-04 5.6435849631761954e-04 -8.2568976824467794e-04
357 -6.7890306555192024e-04 3.2505270331951991e-04 -6.6097136601401445e-04
358 5.1988645128474211e-04 -8.2847589988524928e-04 -1.6786841023598941e-04
359 4.5014619553239161e-04 -8.3872806787920211e-04 -2.8546455351842969e-04
360 -8.1803098454262502e-04 4.7917364293528205e-04 2.9427560610762599e-04
361 -1.3338059963398675e-04 -5.3623842903629431e-04 8.4590230287851008e-04
362 -1.7356987848629637e-04 3.4592618757288808e-04 -9.3702564850496454e-04
363 -2.1427156120447960e-04 5.2353627914954041e-04 8.3541358236322049e-04
364 -5.1268709053756654e-04 8.3092488100072325e-04 -1.6964797894491014e-04
365 1.5528961353950351e-04 5.4779428168502816e-04 8.3321157706822994e-04
366 -3.4843567576973739e-04 -2.5461234308200774e-05 9.5318798024485055e-04
367 -7.0493332685290968e-04 -6.3584089656731966e-04 2.9209198591903128e-04
368 2.0771226058346603e-04 6.5727218481216403e-04 7.3244722892293465e-04
369 8.7123527613434807e-05 6.3212080250502436e-04 7.7770532851270484e-04
370 6.9404676170895972e-04 -2.5194134837064596e-04 -6.7997203853808596e-04
371 -5.4013502421130979e-04 1.6882669964395997e-04 8.3585046245694770e-04
372 -6.6680029926901772e-04 1.3469884014113921e-04 7.4094948979290922e-04
373 5.5859774551276912e-04 8.1658071824771404e-04 -5.1755107409397635e-05
374 -1.2646114719337456e-04 -8.7208447827455101e-05 1.0067943010063495e-03
375 -5.5491053367403644e-05 -1.7307222205953347e-04 1.0016329358444136e-03
376 -3.0051326568153198e-04 -9.1675636446874903e-04 2.3525990387368467e-04
377 -4.3111153069574242e-04 -8.7942247122979773e-04 1.6173957244051019e-04
378 -9.1776611202376839e-04 2.0103182712697028e-04 3.2444498388637793e-04
379 4.1644968877747478e-04 6.4306146380446250e-04 -6.4604448652913244e-04
380 1.6540401739820778e-04 -7.1139058070836345e-04 -6.8904068423358258e-04
381 2.8694577235344513e-04 -7.3838940493932024e-04 -6.1254011743458491e-04
382 -8.9501763508264187e-04 -3.7654741080695071e-04 -2.0177143731826244e-04
383 -8.2515103842137122e-04 -4.6834624416861671e-04 -2.9276634174846879e-04
384 -7.6768612127288156e-04 -5.7685454436480293e-04 -2.5121413350161101e-04
385 -1.7289185242360590e-04 -9.3221710813854645e-04 2.9832331297943818e-04
386 -6.6208507791961680e-04 5.2670179294146355e-04 -5.2883287789329790e-04
387 -7.6107398226286905e-04 4.6966802045638069e-04 -4.3684014381295051e-04
388 8.7176977353845702e-04 2.4966158698255971e-04 -4.1054091610475486e-04
389 -9.0298627385688632e-04 3.2869404452194248e-04 -2.4533797399876964e-04
390 -5.0291941722855737e-04 8.5209723650128536e-04 -3.7322013167432828e-05
391 -3.9817275581427545e-04 9.0067610289493736e-04 -1.0644062856592537e-04
392 -5.9605703832930543e-04 7.8959432662604415e-04 3.4651136361490680e-05
393 -5.8851361973584634e-04 -7.8771448114716498e-04 -1.2694273435904802e-04
394 -4.9773995946626422e-04 -8.5494289359381442e-04 -5.6039842789399545e-05
395 7.8360066284296847e-05 9.8570105277488219e-04 -5.4594726999699156e-05
396 2.0977759346353561e-04 9.6773768161865831e-04 -1.9668518398212549e-05
397 5.1923425654059393e-04 3.2984868037122701e-04 -7.9795984650531831e-04
398 2.5569864914249432e-04 -3.0133583929532900e-04 9.3440216910813654e-04
399 3.7158596923082100e-04 -2.3352471308437465e-04 9.1418898912140622e-04
400 -2.6733359724268128e-04 6.2126623586337797e-04 7.4314036825137849e-04
401 -1.5811763931403240e-04 6.1299935331210064e-04 7.8173912146743793e-04
402 3.1887658436242027e-04 -6.1307184502851079e-04 7.3086424369559475e-04
403 6.4793425331693478e-04 2.7445150893212853e-04 7.1709818623756139e-04
404 6.6404232375794558e-04 5.9098567886289280e-04 4.5212669320913703e-04
405 -3.1209927379402189e-04 -9.3545885089714529e-04 1.0363131943212807e-04
406 2.6300003619301099e-04 -2.7987731022723739e-04 -9.3888917457062688e-04
407 3.6063983013889599e-04 -1.8858608556655081e-04 -9.2841833256909908e-04
408 8.2565713237688873e-05 4.5788513856637202e-04 -8.9828942669397294e-04
409 -8.8228767568456900e-04 4.2637795893509981e-04 1.5371433853387284e-04
410 -4.4740785283090803e-04 8.1068463705069713e-04 3.6084679213431426e-04
411 5.5036201265542563e-04 4.3621169494469499e-04 -7.1639159355798069e-04
412 4.5388666655184369e-04 6.3707299512066569e-04 6.2620536434908770e-04
413 8.0450652933588282e-04 3.1335652336610657e-04 5.0075954920015707e-04
414 8.3130842054382503e-04 3.8924742887980733e-04 3.8397449594884669e-04
415 3.6548950060027919e-05 -1.5761897666315277e-04 -1.0050824185378606e-03
416 -9.6606869513073991e-04 2.1535742995238208e-04 -3.8189367392099825e-05
417 -7.1584001362909498e-05 3.4457658866101661e-04 -9.5122251767612250e-04
418 -1.3513426402995548e-04 2.4304160845201736e-04 -9.7707629617996609e-04
419 3.0472550446782616e-05 1.6088063692494537e-04 -1.0034801088807319e-03
420 -4.4768414475584736e-05 -7.4162820587543945e-05 -1.0147991744024424e-03
421 -9.3481047266312349e-04 3.2290653641606269e-04 5.5216100877487368e-05
422 7.9592824280700204e-04 -2.5745953374320353e-04 -5.4706700907638823e-04
423 8.0452954517191034e-04 -3.7385069243294134e-04 -4.5536717353490631e-04
424 2.4619802874037975e-04 9.5350985649313429e-04 1.0951945711254528e-04
425 2.5457869306329493e-05 -6.7971835201747263e-04 -7.4233148033830498e-04
426 3.6238813313582051e-05 -5.4662363259487935e-04 -8.4952203119299861e-04
427 -7.7280735126766188e-05 -5.9735238860208996e-04 -8.0846887228803218e-04
428 4.0296551839670596e-04 -8.9103618956714388e-04 -1.6723258491437547e-04
429 3.1992044130225202e-04 -9.0005807559500727e-04 -2.7297593106696626e-04
430 3.5925909333771279e-04 -8.3985295288017839e-04 -3.9649401725503486e-04
431 -6.0180750872116523e-04 -7.1831236215177973e-04 3.3089109870181678e-04
432 -6.4629991357524651e-04 -6.2265324335782860e-04 4.3314308358848426e-04
433 1.4302333640226492e-04 -3.3234406349611135e-04 -9.4851872717975454e-04
434 -2.2244307241168172e-06 5.5670851602829187e-04 -8.4251486661621145e-04
435 6.9400767491173025e-05 6.6490503113807360e-04 -7.5094526062971869e-04
436 8.7825425139053889e-04 2.6470693628865942e-04 3.8591270967262744e-04
437 8.9697321072459600e-04 3.4076682790431406e-04 2.5434027231011649e-04
438 8.4004325192121171e-04 4.5572967793307045e-04 2.6802121850175582e-04
439 7.5224858440124426e-04 2.2280047915359562e-04 6.2283649639998826e-04
440 -5.6932102758148432e-04 7.5389118441207981e-04 3.0601974947477118e-04
441 -6.8908626913604071e-04 6.8089410684876652e-04 2.1448383654699486e-04
442 6.7809513957485892e-04 -1.1777522839909187e-04 7.3350408226228949e-04
443 7.2506790632136477e-04 -2.3979306809855964e-04 6.4997357766750300e-04
444 8.0792352042576368e-04 -2.4316695023624788e-04 5.3531588847885111e-04
445 7.3960659701357591e-04 -3.5921603166443918e-04 5.6951634413334373e-04
446 8.1587876556476059e-04 -3.5952447385120123e-04 4.4597361188185818e-04
447 7.3596503546208714e-04 -4.7745905869690233e-04 4.7478919908278540e-04
448 6.5255718224143809e-04 -4.7649739102793333e-04 5.9038478653121267e-04
449 7.9991383623084723e-04 -4.7812535534994162e-04 3.4831708165761096e-04
450 8.7161313649148026e-04 -3.5937874150914531e-04 3.1567211116635343e-04
451 6.3878241832349039e-04 -5.9179233365810261e-04 4.8882490181794823e-04
452 6.7396904751611914e-04 1.3309825684154882e-04 7.3519229883823028e-04
453 -5.6080694038591157e-04 -8.0778329494182364e-04 1.2656183041451089e-04
454 2.3324517732905175e-05 -4.0105312956907174e-04 -9.3169166448351076e-04
455 8.9325768561430920e-04 4.0822191136755440e-04 1.3620815034249314e-04
456 4.7302262906453150e-04 -2.1307958659473153e-04 -8.6782362670911732e-04
457 5.0130493723321015e-04 5.2636386554968820e-04 -6.9102822756392907e-04
458 6.1121185750651150e-04 -2.3490917054382106e-04 7.6584768200918930e-04
459 1.3535973632161706e-04 9.6052044742348007e-04 2.0569522401085304e-04
460 6.2602427364869266e-04 6.9410417898067183e-04 3.3803000526002100e-04
461 3.8193190663434785e-04 5.3830749396497084e-04 -7.5843223651071397e-04
462 -4.1961267543178139e-04 6.9969984675553626e-04 5.7668135721020369e-04
463 7.6595790946809767e-04 -1.3013489294514245e-04 -6.3280684149146665e-04
464 8.7616345895689810e-04 -2.5503687518073896e-04 -3.9871860794111141e-04
465 8.6931443833951577e-04 -3.6578105986635712e-04 -3.1499043500171089e-04
466 1.4896660681058641e-06 8.2037725389180781e-04 -5.6994660715899571e-04
467 9.2464555065424430e-04 -2.4604585815376091e-04 -2.6695450435015367e-04
468 9.1129948109520281e-04 -3.5532242644263786e-04 -1.6972490574440280e-04
469 1.5608881804729779e-04 3.4824908469682824e-04 -9.3903682379876496e-04
470 8.4602389293267734e-04 -4.7166464421159716e-04 2.1878154155394804e-04
471 9.0977421497742087e-04 -3.5029799841878998e-04 1.8535170989670527e-04
472 1.9646606828691631e-04 7.7216748446751117e-04 6.0523940541464265e-04
473 1.4719235308171058e-04 -2.0799324294972773e-04 -9.8428728248411198e-04
474 2.2691127845611965e-04 -8.9353737019160168e-04 -3.7532186114768281e-04
475 5.5687895480238669e-04 7.6873417078711175e-04 -2.9068081658463490e-04
476 3.2402510668007350e-04 7.1596939255543835e-04 6.1984876739879934e-04
477 2.8329032948653420e-04 7.1922765782036666e-04 -6.3635830200091371e-04
478 -1.8906451990465282e-04 -5.5878789542748632e-04 -8.1774611880530950e-04
479 -1.7337926978633686e-04 -6.6986075120763352e-04 -7.2939287326898624e-04
480 -3.9151104587779970e-04 8.2881126293240614e-04 -3.8523744172502529e-04
481 1.9563038451055233e-04 6.5934856331686736e-04 -7.3211877163011573e-04
482 7.5574600848877084e-04 -5.9725658904975667e-04 2.4621260210785884e-04
483 8.8182243073662691e-04 -4.4458283263125090e-04 9.0318841751727265e-05
484 9.3273297215707492e-04 -3.3067810126764926e-04 5.6875597420449028e-05
485 5.8489167782181065e-04 -2.3643731244070068e-04 -7.8573546350539018e-04
486 3.9453454770491618e-04 1.6095740960318854e-04 -9.1843071879832362e-04
487 9.8084974279580035e-04 1.3121372632984962e-04 -5.9641259110781104e-05
488 9.4713990714028341e-04 2.7086739762633409e-04 -1.1848195722130525e-04
489 9.6359124876014028e-04 2.2888405955464412e-04 5.7725681604612960e-06
490 8.9126353640510793e-04 4.2167453792874390e-04 -1.0308369160714085e-04
491 3.4674796024598137e-04 9.2792194318256087e-04 1.0529172553269393e-05
492 2.9143640301773600e-04 9.3877685384147604e-04 -1.2971686776342437e-04
493 4.3105125351627986e-04 8.8853802938235801e-04 -7.8213780267537435e-05
494 9.0637886281870082e-04 -3.9990776142210388e-04 -3.6418363167558745e-05
495 9.4952198709686176e-04 -2.7987113044795393e-04 -5.3110522524816884e-05
496 -3.8684155825220327e-04 9.1127198721951269e-04 1.9273872032379100e-05
497 9.8040602203966617e-04 1.2343468368959922e-04 8.0204486833525661e-05
498 6.6911705426352650e-04 6.7980614389181191e-04 -2.7502401075288498e-04
499 9.8121982440699403e-04 -1.3223393955002710e-04 -6.2887457220167295e-05
500 9.6267803644130463e-04 -1.1421349124811574e-04 2.1312051188352612e-04
501 9.2623103383374246e-04 -1.2678340080767386e-04 -3.3931288126920408e-04
502 8.5648851921917826e-04 1.2535048440649537e-04 -4.9603740977122656e-04
503 8.6045107912354770e-04 -1.2380717007562541e-04 4.9014112992060198e-04
504 4.3354681832498946e-04 1.0838179037471341e-04 9.0913873983446906e-04
505 4.2397127081932534e-04 3.3062438345272531e-04 8.5532410019954232e-04
506 6.5416522759803597e-04 -3.6135991913207216e-04 6.6942158760980740e-04
507 3.0749312463992836e-04 -8.9857810451902465e-05 9.6414757214431928e-04
508 5.5881995167581367e-05 -1.0989680158464081e-04 1.0116888130936774e-03
509 1.5637380825966814e-04 -2.0584420668942247e-04 9.8362259114069626e-04
510 2.5859847201134306e-04 -1.7495264975114541e-04 9.6606905175518310e-04
511 -2.0079039978185512e-04 6.7421727767327420e-04 -7.1634426615443264e-04
512 2.7140627364346815e-04 9.2285661125402602e-04 2.4301746421316177e-04
513 5.6982572385722247e-04 -8.1076019043905634e-04 -3.9902440144130749e-05
514 2.5421060340573298e-04 -9.5773429305886094e-04 3.8782906886932842e-05
515 2.9527952320001561e-04 -9.3305871222623378e-04 1.6479677428889853e-04
516 -5.5020137861506611e-04 5.6330895808513195e-04 -6.1724765906227038e-04
517 7.7339340462767483e-04 -5.7211571877084199e-04 -2.4732922312986546e-04
518 -1.4279781031007914e-04 -9.8026234726661366e-04 -3.8936997135400699e-05
519 -2.9028142249376657e-04 -9.4736014938634093e-04 -4.5933648719943271e-05
520 -3.3110869029239393e-04 -9.1709846672379371e-04 -1.8402228534869082e-04
521 -7.8360584697246150e-04 5.2488575997883984e-04 -3.1015763140470947e-04
522 -9.7882932599231243e-04 9.3578068652871071e-05 -1.2122619625439432e-04
523 7.7929631557168279e-04 6.0053784956053222e-04 1.1962912307131036e-04
524 -7.9464454628323171e-04 -5.4450586245534643e-04 2.3839788293577080e-04
525 7.6863340742386495e-04 5.1721330824148950e-04 3.6095634662270537e-04
526 4.8768055285393656e-04 -7.6752098402816543e-04 -4.0658110609842534e-04
527 -9.4550958170934365e-04 -2.7212634875814360e-04 -1.1849688243857242e-04
528 -9.3310711311692020e-04 -7.2227019149108363e-05 3.3370181529073634e-04
529 -9.0965508602790126e-04 5.3153912381998543e-05 3.9934040158507344e-04
530 -8.4123386160000265e-04 5.7291500922062880e-05 5.3552465848310984e-04
531 -7.7294882479255064e-04 -6.0978152583521564e-04 -1.1630963130326941e-04
532 -9.7038914213544729e-04 -6.5895442995010986e-05 1.9252646278361473e-04
533 -7.3331136218742073e-04 5.3396014345973486e-04 4.0814494841189019e-04
534 -6.9670193071846159e-04 7.0315839371708113e-04 -1.0346825252168572e-05
535 -2.3414171248241385e-04 -9.2086785153387045e-04 -2.9081171049193029e-04
536 6.2157995018828226e-04 7.5473009479237686e-04 -1.6379972984786680e-04
537 -1.3845324560461761e-04 -8.8893883820247935e-04 4.2869134508246323e-04
538 -4.5081278417337041e-05 9.8521962110197374e-04 -9.0168876810463422e-05
539 -1.6983809526472922e-04 9.4486806121594667e-04 -2.4841833145459183e-04
540 6.1822367456465001e-05 9.6925796727938230e-04 -2.0188168186669933e-04
541 -9.3082063144264270e-04 2.8432826836243289e-04 1.8882569690028194e-04
542 -8.7196275148116007e-04 -4.2959369939894867e-04 1.9717502225387112e-04
543 -8.0426272092848003e-04 -8.6908401706094402e-05 5.8798164708035784e-04
544 -7.5354154484129365e-04 3.4457375421499036e-05 6.5965500077325482e-04
545 -6.5308402555661863e-04 -5.2598338643061228e-04 -5.4282555818611293e-04
546 -7.4227045924641396e-04 -4.2600497390684152e-04 -5.1283855762241542e-04
547 -7.4841083343586343e-04 -3.0523652137215613e-04 -5.8892325940848817e-04
548 -6.4999951788130117e-04 -2.7983438964523949e-04 -7.1289264974811904e-04
549 2.6130081006289741e-04 -8.1212894348648909e-04 5.1966994127097116e-04
550 5.6156266811721307e-04 5.9808162831612849e-04 5.6971439644752653e-04
551 8.6453119634708007e-04 3.6478327799352082e-04 -3.2639791555537834e-04
552 8.7624455842318289e-04 -2.4228340834611897e-04 4.0678028337746345e-04
553 1.5938185522538484e-04 -7.7157660307268581e-04 6.1903737275140604e-04
554 -4.4307519860739493e-04 -6.4539569214876451e-04 6.2605061897777719e-04
555 -3.8160210518518672e-04 -5.6712832960723958e-04 7.3757655713201900e-04
556 -8.2810196177257535e-04 -4.3902041929814566e-04 3.3004031675520467e-04
557 -6.0322829449946163e-04 -7.1934340460223063e-04 -3.2540038059520953e-04
558 -7.2222421099208474e-04 2.4846669239311705e-04 6.4814847513892503e-04
559 -6.7595645826653379e-04 -4.4933566151803608e-04 5.8417995704420256e-04
560 -5.8063226786409655e-04 -5.6570272409365348e-04 5.8729257327639955e-04
561 6.3145967868334706e-04 4.7956285783299772e-04 -6.1115498140505080e-04
562 -3.2112029626926752e-04 -6.8020280482064359e-04 -6.6399189782812289e-04
563 -4.8585502730093245e-04 5.0976312586294733e-04 7.1591237353761563e-04
564 7.1964627281605751e-04 -4.8455551618169300e-04 -4.9372553919563636e-04
565 -7.0776131302516794e-05 -2.8966339316839352e-04 9.7177737496921838e-04
566 -1.0392078169241859e-04 -4.0486244439963751e-04 9.2392223437333734e-04
567 -1.9644290776636410e-04 -3.1597019311426394e-04 9.4441526157619732e-04
568 -1.6493055352159242e-04 -6.4840192605631480e-04 7.5205102520702603e-04
569 4.1067841513004973e-04 -6.6111510117412918e-04 -6.3153762408275720e-04
570 -7.0592672660304840e-04 -9.5681108510005906e-05 7.0732001292331964e-04
571 5.3727874690921078e-04 3.1076097336738348e-04 7.9354884362229142e-04
572 4.8387813257930358e-04 -3.3826224635526554e-04 -8.1841586004532496e-04
573 1.4293187404545773e-04 -3.4174911687712123e-04 9.4522133479174695e-04
574 -7.3967542688868182e-04 2.0082995939405622e-04 -6.4456023986387634e-04
575 1.5142881511637639e-04 -4.6947799444882010e-04 -8.8396087594796253e-04
576 -4.5076101606796395e-04 -4.3461949303154112e-04 7.9062234350067554e-04
577 -3.0241988766314428e-04 3.4872470390398167e-04 -9.0071170018513058e-04
578 -2.4376632736218141e-04 2.3958258095445461e-04 -9.5547738370800638e-04
579 -3.0698869201921511e-04 1.2481067087073106e-04 -9.5930248837965853e-04
580 -4.8389438743186227e-04 1.6782090132620476e-05 -8.8820304169625458e-04
581 4.5634814000946770e-04 -5.6473818945463044e-04 6.9525831309311147e-04
582 4.8315512209834189e-04 -3.0442726089767040e-04 8.3270189617793984e-04
583 -4.4008826635060367e-04 1.3927596575843602e-04 -9.0064351368874087e-04
584 -4.0793324452946566e-04 1.8270545393642514e-04 9.0881370462000282e-04
585 -4.4472956597100551e-04 7.4850197588773634e-05 9.0670361849292096e-04
586 -3.3752892034374200e-04 -4.1405043090226353e-04 -8.5783356233881040e-04
587 2.8320563241387266e-05 9.4582735149293415e-04 3.0042541500033666e-04
588 -3.8561967136720648e-04 -8.9561655565764141e-05 -9.3349024950927482e-04
589 -2.7169831627593167e-04 -6.0524971643478558e-05 -9.7731750300242867e-04
590 -1.8677506698452437e-04 -1.1114867326492031e-04 -9.9394645972968152e-04
591 -1.4451565905710751e-04 4.1858931218784499e-04 9.1081600850721235e-04
592 -5.1452788095838835e-04 7.9103568095311165e-04 -3.0869682769150682e-04
593 -2.3649382861179924e-04 -2.5286772146739572e-06 9.8907370232292143e-04
594 3.6855076105448114e-04 2.2170480394746348e-04 9.1764813019313944e-04
595 -7.9922458851827281e-04 5.5882933536671069e-04 1.7722514512038176e-04
596 4.2150732345280913e-04 -8.7880026358253666e-04 1.8826540912116887e-04
597 1.0056219036223051e-04 4.3736105976579088e-04 9.0794169578950739e-04
598 3.2139228581230030e-04 8.9768830143427695e-04 -2.7527127479267240e-04
599 1.8924944021584932e-04 -6.6468641395721893e-04 7.3094854721099172e-04
600 -5.2604634435520577e-04 -8.0426339956375225e-04 2.4960269253263202e-04
601 -8.3953999505371850e-04 4.0724783418991242e-04 -3.4060416004506395e-04
602 -8.1000283869395314e-04 3.4629655953570543e-04 -4.6461751184616236e-04
603 -7.3675637096587887e-04 -5.3518158387343617e-04 -4.0297436390382792e-04
604 -9.0650334952335082e-04 1.4183674275835406e-04 -3.8280313706284846e-04
605 -4.0685057129411780e-04 -9.0345816809040997e-04 1.8602650647308284e-05
606 -3.1993580793618245e-04 8.4303636383536648e-04 4.2049777832571582e-04
607 5.1475596153515805e-05 1.3765370350924457e-04 1.0069007835039176e-03
608 -4.1415386803560091e-05 7.6719032524265481e-04 6.4250184834483825e-04
609 -7.4246791147882809e-04 -1.7162722770472610e-04 -6.5083582608531831e-04
610 9.4798129381557720e-04 2.5808086276854302e-04 1.3975457529018877e-04
611 4.3461334619093137e-04 -9.3364806715265209e-05 -9.1029379562859508e-04
612 9.1781268576069546e-04 1.2996332063832969e-04 3.6081431115638646e-04
613 -3.6861586972284309e-04 -8.7035323470981889e-04 -3.0718018836498311e-04
614 5.3214624848201097e-05 -7.8852396300435374e-04 -6.1556371542901146e-04
615 4.5820889358045902e-04 -8.7783877129713470e-04 -5.3737402635584864e-05
616 -6.8039489588790441e-04 -6.9358907215792654e-04 -2.0323914807985141e-04
617 -9.2720154202786704e-04 -2.4797593881079158e-04 -2.5176504471362970e-04
618 -6.1701108225551999e-04 4.5002127683943955e-04 -6.4780865429957008e-04
619 1.8997198313972603e-04 -9.4732434272791683e-04 -2.3191253404883404e-04
620 -3.3406362090187123e-05 -9.3574372999289128e-04 3.3573782361408808e-04
621 3.8905247792367278e-04 -7.6134243189541649e-04 -5.1622677620073840e-04
622 -2.3137154212032350e-04 -4.4576509892107162e-04 8.7808421426330426e-04
623 7.9933841108161539e-04 -4.7575470805709511e-04 -3.5331174379530533e-04
624 9.2328375603658360e-04 1.2935309104809131e-04 -3.4585183446790053e-04
625 -3.9970353479861393e-04 6.1038602997516686e-04 6.8796054068564875e-04
626 -2.5684970742827955e-04 -5.6769742036421797e-04 7.9211345252560325e-04
627 -9.4070085307160789e-05 5.3435272217154358e-04 8.5167077679899862e-04
628 4.7702881654897676e-04 8.6686548657722543e-04 5.0699683581657368e-05
629 -9.5257284391106847e-04 5.7996470865469870e-05 2.7202374897242583e-04
630 -5.8628049540713708e-04 7.8065163240130303e-04 1.6906871851962298e-04
631 -8.2875105375321745e-04 -1.9284442339409530e-04 -5.2143025158944505e-04
632 -4.0324682643209768e-04 8.7199873663768794e-04 -2.4660998608724632e-04
633 9.2238719027135790e-04 2.5269309370571269e-04 -2.6660956439634201e-04
634 -3.2195581932199845e-04 8.4427029617105070e-05 9.5919662395620750e-04
635 3.8197731753175212e-04 -9.1321637406537428e-04 6.0814382016316378e-05
636 -6.5956635975744212e-05 -9.6807263106794329e-04 2.0967643605616308e-04
637 -4.7592416450596627e-04 -5.8523417987679491e-05 8.9120861308330157e-04
638 4.3611813509177640e-04 2.5489891285633619e-04 -8.7456998628205002e-04
639 4.3720237786542605e-04 -1.1448394921326953e-04 9.0651887670515534e-04
640 -7.0557448704653398e-05 6.6435524174023638e-04 -7.5109013454303941e-04
641 -9.5030068695041740e-04 2.2552358456624379e-04 -1.6751520288284578e-04
642 -8.7616460712162058e-04 2.7738075563925167e-04 -3.7879048730686207e-04
643 2.8473903906442585e-04 -7.2266558249076064e-04 6.3341222876371638e-04
644 5.6010427814061413e-04 -4.7160228010999575e-04 6.8669478593799986e-04
645 6.0050943109607035e-04 2.2873804500924937e-04 -7.7469099528436228e-04
646 -2.0181824724752436e-04 1.0765997518073881e-04 9.9097181022168856e-04
647 2.6543374955013761e-05 5.4383900806579527e-04 8.5056963973731924e-04
648 -7.4145911860508504e-04 5.8873421593460488e-04 2.9498724924298592e-04
649 -2.6834625857552740e-04 9.5093157206661621e-04 6.7549382274707874e-05
650 9.2665626127672799e-04 -2.3625253911011522e-04 2.6889848430193769e-04
651 -4.6930657618153663e-04 -8.5215892228764501e-04 -1.9762926067732787e-04
652 -8.7213271632208527e-04 -3.4161377635351077e-04 -3.3070921886287042e-04
653 -1.9366918408103529e-04 1.4057635451721352e-04 -9.8791369333954158e-04
654 8.4750719942628587e-04 -4.6749293490763662e-04 -2.2102801582917845e-04
655 -7.2439193057481340e-04 4.0804993717249337e-04 -5.5237534673879634e-04
656 6.6692850272965826e-04 -1.2318402274893466e-04 -7.4277765018679006e-04
657 -7.4657588827980136e-04 -5.3882602318880380e-04 3.7597705200407622e-04
658 -3.4991958831316188e-04 2.5596096407755687e-05 -9.5206871713968914e-04
659 -1.6445948953371477e-04 1.1079758118836480e-05 -1.0046664666259258e-03
660 -4.0764571758196139e-05 -3.0550668585808287e-06 -1.0169765424901599e-03
661 8.4879249527172881e-04 -5.1208599579926186e-04 -4.0706366432568489e-06
662 3.8348564770152316e-05 -2.5948568490019347e-04 9.8280137662660983e-04
663 5.0540244522470905e-04 8.3329636555459882e-04 -1.8058703469044099e-04
664 -2.7895780418021139e-04 9.4894778369805036e-04 -4.6873502853184056e-05
665 -2.8941840589405437e-04 9.3020552753573800e-04 -1.8176670731483160e-04
666 -7.8312621963413733e-05 1.2517629253059093e-04 -1.0073894315215520e-03
667 2.5576597934818190e-04 -8.2703363111772267e-04 -4.9676944235123972e-04
668 -5.6646983851751497e-04 4.6180236860120495e-05 8.3387316813871102e-04
669 -8.2430977857295465e-04 -3.1992605792047728e-04 -4.5864737528450179e-04
670 -4.8671070340087309e-04 8.5739877068526668e-04 9.3773711833720777e-05
671 -9.5565371007933571e-04 1.5992792311060410e-04 2.0596830101203770e-04
672 5.6108683739185424e-04 -3.5789371667679020e-04 7.5377547792818773e-04
673 -1.9418984273123369e-05 2.4931550539650108e-04 -9.8491531170594149e-04
674 -1.9634366052454291e-04 -9.5764748931765589e-04 1.6871557476582893e-04
675 4.1194913463333947e-04 7.3796189781863105e-04 5.2968871881977459e-04
676 7.5361091563583700e-05 7.2583535098511758e-04 6.8862542021391933e-04
677 4.8956439753016640e-04 2.0886787083450035e-04 8.5879364827469147e-04
678 -4.8983754610434048e-04 -7.7800618689359536e-04 3.7998765517504939e-04
679 2.9851584872875585e-04 -7.8047715212072258e-05 -9.6788740581199529e-04
680 3.8828544517049963e-04 -6.6656595727765313e-04 6.3909848967270782e-04
681 -8.7313088327017267e-04 1.6174762309810204e-04 4.4888283461036010e-04
682 -8.9564069284843765e-04 4.2077607537363137e-04 1.5050769290715087e-05
683 -5.8299102812732522e-05 -4.3006509183813040e-06 1.0164125207999032e-03
684 3.3871426585652998e-04 -9.2985522124029143e-04 -6.0856285929683123e-05
685 3.9838774952152784e-04 8.8718064945285033e-04 -1.8781827905656071e-04
686 1.7065988957381341e-04 -7.9735028795683551e-04 -5.7793874788320768e-04
687 1.6881949460142453e-04 9.6693339665483951e-04 -1.2970042759201126e-04
688 -8.0515070593286449e-04 -4.2230615005261476e-04 -4.0194694942162338e-04
689 -5.3824165147189299e-04 -6.5088299903584708e-04 5.3108973578422640e-04
690 5.7145508730079128e-04 -6.8972208149463432e-04 4.3520713019064479e-04
691 9.5458804188900900e-04 -2.2832738385688338e-04 1.4203274626755011e-04
692 -6.8828010405997818e-04 -5.2953369079418054e-04 4.8873254978022750e-04
693 9.2804569846304994e-04 2.2371735640336490e-04 2.7040683465000184e-04
694 -1.7304509845610550e-04 9.6760091131448817e-04 -1.2067270258175073e-04
695 9.0019510855168848e-04 3.5880035511841899e-04 -2.0825213148697059e-04
696 -4.9890307446469764e-05 6.5844715778877417e-04 7.5991650038291568e-04
697 -3.3185846624459201e-04 -4.7749943085318434e-04 8.2364810683537026e-04
698 9.2466991342068775e-04 3.5696775378871198e-04 1.4024773271038855e-05
699 -4.8820757288700378e-04 -5.3791392937953850e-04 6.9201002974147725e-04
700 -6.6246823269919763e-04 8.4151450852527920e-06 7.5553847939329821e-04
701 5.6492939986701248e-04 -5.5927537928958284e-04 6.0779951772315386e-04
702 -6.9057858684433524e-04 -6.3497520686404691e-04 -3.2506545920325288e-04
703 -7.6607742028768334e-04 2.9764166858308263e-04 -5.6597337683469084e-04
704 4.5601395422727655e-05 3.4652897160181341e-04 -9.5202015338330772e-04
705 3.0411042500888427e-04 6.2080626772219912e-04 -7.2737568337072475e-04
706 -3.1228982459557421e-04 6.8554995968170968e-04 6.5922047856152262e-04
707 1.1133373991256911e-04 -9.2511666554008130e-04 -3.4603498331523111e-04
708 -6.6833917114731431e-04 7.2254498856002072e-04 1.0181482017781057e-04
709 8.6641343146456199e-06 7.3575291856912614e-04 -6.7965448764742908e-04
710 -4.0329454177149508e-04 7.7285419031657956e-04 4.8096685056856099e-04
711 -9.2271340258478422e-04 2.1878884714294781e-04 -2.8965175687923949e-04
712 7.7015041830790127e-04 1.0348068991669641e-04 6.3129796215727839e-04
713 -2.1108261219237253e-04 -7.5273588371716329e-04 -6.2461281268962065e-04
714 6.3386585306903355e-04 3.5069293572489492e-04 -6.9434857998158556e-04
715 -2.1286757430384815e-04 -9.6604456618848379e-04 5.1167016656237296e-05
716 -2.6208970198960129e-04 5.1198172428314838e-05 -9.7985914926648657e-04
717 -4.0319504479261853e-04 -9.0004234496148352e-04 -9.3258973960503021e-05
718 4.9780857376701142e-04 -2.0411672708575132e-04 8.5467250051059261e-04
719 7.2471517479079470e-04 -5.6555781223037633e-04 3.7983628121413611e-04
720 8.3920368289383106e-04 5.0491194217177628e-04 1.4857597382498953e-04
721 2.4651003640402614e-04 -1.6929189834577414e-04 -9.7020992817937665e-04
722 -5.7025145902809497e-04 -7.7718599267958199e-04 -2.3295355803397159e-04
723 3.7467956971407675e-05 8.1165580575713996e-05 -1.0138510347915625e-03
724 -1.8445018194482914e-04 7.1152056886145717e-04 6.8316671875016651e-04
725 8.7249487114314896e-04 -4.5744231503095967e-04 -1.0766450241746576e-04
726 5.8574596718336707e-04 2.0192209473372528e-04 7.9372508949015173e-04
727 7.8097023227295713e-04 5.6388927602314556e-04 2.3673038174701176e-04
728 5.4130830360645638e-04 5.8723907354343006e-04 -6.0044328363510399e-04
729 4.7757002436518687e-04 9.7129602700234431e-05 -8.8525303609511606e-04
730 7.0601444798272072e-04 6.1837432588879749e-04 3.2346186522937994e-04
731 -2.4955604744013093e-04 -6.1892324433877410e-04 -7.5050341688685177e-04
732 3.4045627942148616e-04 6.1803555128727198e-04 7.1363715267685503e-04
733 -7.1634684866751823e-05 9.6962386001638663e-04 -1.8808931781247358e-04
734 -2.3587189737061306e-04 -4.7786229714204189e-04 -8.5770419189982886e-04
735 9.5125400651257228e-04 -2.3234497280124280e-04 -1.5415533139587445e-04
736 9.6615316329926092e-04 -2.1645134727763559e-04 2.8743421465488648e-05
737 -1.9652298919718751e-05 -5.3163314000709940e-05 1.0167911582968992e-03
738 -4.9890910928124363e-04 -8.5373288086270619e-04 5.4752975487532738e-05
739 4.8916344159495616e-04 2.0909089119117467e-04 -8.5823577181942179e-04
740 -7.6250149370960527e-04 1.3733507936838826e-04 6.3296151493327736e-04
741 -1.4805157284181352e-04 2.9010540162892207e-05 1.0059793817490767e-03
742 -5.6001453003492541e-04 -6.9778462725350046e-04 4.3539248509196193e-04
743 -9.5701969575217674e-06 4.4325436412706831e-04 -9.0921331665480695e-04
744 2.9661233761189344e-04 -9.3152890437090536e-04 -1.6497016869310141e-04
745 -8.6268773670569471e-05 -6.8176423007774599e-04 -7.3171274819905092e-04
$EndNodes
$Elements
1486
1 2 2 0 0 410 440 345
2 2 2 0 0 421 541 409
3 2 2 0 0 409 682 421
4 2 2 0 0 545 603 546
5 2 2 0 0 426 427 294
6 2 2 0 0 294 454 426
7 2 2 0 0 265 682 409
8 2 2 0 0 24 41 4
9 2 2 0 0 3 24 4
10 2 2 0 0 238 642 602
11 2 2 0 0 520 651 613
12 2 2 0 0 653 666 659
13 2 2 0 0 404 460 98
14 2 2 0 0 222 482 219
15 2 2 0 0 40 463 9
16 2 2 0 0 608 724 696
17 2 2 0 0 435 709 69
18 2 2 0 0 413 439 29
19 2 2 0 0 345 710 410
20 2 2 0 0 422 463 40
21 2 2 0 0 98 550 404
22 2 2 0 0 95 724 608
23 2 2 0 0 4 41 5
24 2 2 0 0 232 701 581
25 2 2 0 0 490 698 488
26 2 2 0 0 29 436 413
27 2 2 0 0 416 421 342
28 2 2 0 0 312 595 441
29 2 2 0 0 41 486 5
30 2 2 0 0 405 605 519
31 2 2 0 0 409 595 265
32 2 2 0 0 69 481 435
33 2 2 0 0 434 743 339
34 2 2 0 0 342 641 416
35 2 2 0 0 485 656 370
36 2 2 0 0 89 587 90
37 2 2 0 0 108 466 317
38 2 2 0 0 378 629 529
39 2 2 0 0 581 680 232
40 2 2 0 0 281 434 339
41 2 2 0 0 638 739 486
42 2 2 0 0 659 666 660
43 2 2 0 0 345 440 346
44 2 2 0 0 22 44 25
45 2 2 0 0 9 463 8
46 2 2 0 0 44 81 25
47 2 2 0 0 459 587 89
48 2 2 0 0 127 670 630
49 2 2 0 0 508 662 509
50 2 2 0 0 375 662 508
51 2 2 0 0 492 598 103
52 2 2 0 0 604 642 238
53 2 2 0 0 507 510 399
54 2 2 0 0 488 698 489
55 2 2 0 0 34 473 415
56 2 2 0 0 399 639 507
57 2 2 0 0 603 688 546
58 2 2 0 0 316 541 421
59 2 2 0 0 647 696 627
60 2 2 0 0 403 439 352
61 2 2 0 0 221 603 545
62 2 2 0 0 595 648 441
63 2 2 0 0 412 550 98
64 2 2 0 0 411 714 397
65 2 2 0 0 486 739 729
66 2 2 0 0 696 724 401
67 2 2 0 0 247 482 222
68 2 2 0 0 397 714 645
69 2 2 0 0 613 651 212
70 2 2 0 0 207 745 425
71 2 2 0 0 98 675 412
72 2 2 0 0 219 482 230
73 2 2 0 0 560 692 432
74 2 2 0 0 432 689 560
75 2 2 0 0 454 575 426
76 2 2 0 0 352 439 413
77 2 2 0 0 415 420 2
78 2 2 0 0 40 464 422
79 2 2 0 0 89 512 459
80 2 2 0 0 425 614 207
81 2 2 0 0 377 600 453
82 2 2 0 0 89 90 88
83 2 2 0 0 80 466 108
84 2 2 0 0 520 717 651
85 2 2 0 0 602 703 238
86 2 2 0 0 103 687 492
87 2 2 0 0 253 491 424
88 2 2 0 0 69 709 466
89 2 2 0 0 424 512 253
90 2 2 0 0 369 696 647
91 2 2 0 0 581 701 644
92 2 2 0 0 630 670 392
93 2 2 0 0 32 656 485
94 2 2 0 0 459 512 424
95 2 2 0 0 90 91 88
96 2 2 0 0 427 478 294
97 2 2 0 0 488 695 490
98 2 2 0 0 554 699 560
99 2 2 0 0 67 80 79
100 2 2 0 0 252 454 294
101 2 2 0 0 253 628 491
102 2 2 0 0 529 681 378
103 2 2 0 0 519 715 405
104 2 2 0 0 440 441 346
105 2 2 0 0 605 717 519
106 2 2 0 0 403 452 439
107 2 2 0 0 507 639 21
108 2 2 0 0 565 567 566
109 2 2 0 0 433 454 341
110 2 2 0 0 67 466 80
111 2 2 0 0 555 697 576
112 2 2 0 0 491 628 493
113 2 2 0 0 389 641 342
114 2 2 0 0 429 619 474
115 2 2 0 0 40 501 464
116 2 2 0 0 576 699 555
117 2 2 0 0 311 600 377
118 2 2 0 0 567 622 566
119 2 2 0 0 433 575 454
120 2 2 0 0 378 671 629
121 2 2 0 0 79 540 103
122 2 2 0 0 341 473 433
123 2 2 0 0 673 704 68
124 2 2 0 0 462 710 345
125 2 2 0 0 557 722 616
126 2 2 0 0 573 662 343
127 2 2 0 0 370 656 463
128 2 2 0 0 341 454 252
129 2 2 0 0 616 702 557
130 2 2 0 0 6 26 7
131 2 2 0 0 464 501 467
132 2 2 0 0 433 473 406
133 2 2 0 0 8 45 37
134 2 2 0 0 466 709 317
135 2 2 0 0 457 461 379
136 2 2 0 0 84 512 86
137 2 2 0 0 19 452 33
138 2 2 0 0 380 614 425
139 2 2 0 0 83 540 79
140 2 2 0 0 398 510 509
141 2 2 0 0 609 631 137
142 2 2 0 0 18 442 36
143 2 2 0 0 26 45 7
144 2 2 0 0 565 566 343
145 2 2 0 0 80 83 79
146 2 2 0 0 560 689 554
147 2 2 0 0 134 137 136
148 2 2 0 0 68 469 42
149 2 2 0 0 659 716 653
150 2 2 0 0 619 707 474
151 2 2 0 0 497 610 39
152 2 2 0 0 137 138 136
153 2 2 0 0 283 573 343
154 2 2 0 0 506 644 448
155 2 2 0 0 499 735 31
156 2 2 0 0 81 97 25
157 2 2 0 0 45 46 37
158 2 2 0 0 585 668 637
159 2 2 0 0 495 735 499
160 2 2 0 0 399 510 398
161 2 2 0 0 509 573 398
162 2 2 0 0 442 443 36
163 2 2 0 0 1 607 314
164 2 2 0 0 29 612 436
165 2 2 0 0 547 631 609
166 2 2 0 0 360 595 409
167 2 2 0 0 421 682 342
168 2 2 0 0 426 575 327
169 2 2 0 0 123 577 235
170 2 2 0 0 339 743 417
171 2 2 0 0 7 45 8
172 2 2 0 0 3 723 24
173 2 2 0 0 418 666 653
174 2 2 0 0 59 60 58
175 2 2 0 0 620 636 193
176 2 2 0 0 42 469 47
177 2 2 0 0 65 67 66
178 2 2 0 0 509 662 573
179 2 2 0 0 470 482 247
180 2 2 0 0 368 476 472
181 2 2 0 0 530 740 337
182 2 2 0 0 253 512 84
183 2 2 0 0 455 698 282
184 2 2 0 0 61 65 62
185 2 2 0 0 59 61 60
186 2 2 0 0 91 472 88
187 2 2 0 0 90 92 91
188 2 2 0 0 19 442 18
189 2 2 0 0 464 465 423
190 2 2 0 0 706 724 118
191 2 2 0 0 456 611 32
192 2 2 0 0 379 477 61
193 2 2 0 0 417 743 704
194 2 2 0 0 314 683 1
195 2 2 0 0 442 458 443
196 2 2 0 0 11 28 12
197 2 2 0 0 61 62 60
198 2 2 0 0 118 724 95
199 2 2 0 0 22 25 23
200 2 2 0 0 247 483 470
201 2 2 0 0 281 640 434
202 2 2 0 0 197 667 474
203 2 2 0 0 86 512 89
204 2 2 0 0 417 704 673
205 2 2 0 0 451 690 230
206 2 2 0 0 27 442 19
207 2 2 0 0 637 668 229
208 2 2 0 0 60 475 58
209 2 2 0 0 489 610 497
210 2 2 0 0 307 573 283
211 2 2 0 0 61 477 65
212 2 2 0 0 65 66 62
213 2 2 0 0 544 740 530
214 2 2 0 0 230 719 451
215 2 2 0 0 18 452 19
216 2 2 0 0 268 569 269
217 2 2 0 0 32 485 456
218 2 2 0 0 627 696 401
219 2 2 0 0 24 42 41
220 2 2 0 0 20 27 19
221 2 2 0 0 330 461 457
222 2 2 0 0 506 672 644
223 2 2 0 0 472 476 87
224 2 2 0 0 468 495 494
225 2 2 0 0 88 472 87
226 2 2 0 0 121 577 123
227 2 2 0 0 327 575 276
228 2 2 0 0 422 464 423
229 2 2 0 0 47 63 49
230 2 2 0 0 458 506 443
231 2 2 0 0 232 690 451
232 2 2 0 0 28 487 12
233 2 2 0 0 80 107 83
234 2 2 0 0 608 696 676
235 2 2 0 0 356 481 355
236 2 2 0 0 138 238 136
237 2 2 0 0 137 139 138
238 2 2 0 0 729 739 26
239 2 2 0 0 81 99 97
240 2 2 0 0 46 50 37
241 2 2 0 0 463 656 8
242 2 2 0 0 443 444 36
243 2 2 0 0 68 704 469
244 2 2 0 0 24 68 42
245 2 2 0 0 16 503 30
246 2 2 0 0 65 69 67
247 2 2 0 0 67 79 66
248 2 2 0 0 676 696 369
249 2 2 0 0 59 379 61
250 2 2 0 0 90 93 92
251 2 2 0 0 464 467 465
252 2 2 0 0 441 708 312
253 2 2 0 0 483 484 471
254 2 2 0 0 427 479 478
255 2 2 0 0 245 564 244
256 2 2 0 0 470 483 471
257 2 2 0 0 473 721 406
258 2 2 0 0 555 699 554
259 2 2 0 0 47 469 63
260 2 2 0 0 63 355 49
261 2 2 0 0 62 64 60
262 2 2 0 0 80 108 107
263 2 2 0 0 107 539 83
264 2 2 0 0 139 140 138
265 2 2 0 0 99 100 97
266 2 2 0 0 81 236 99
267 2 2 0 0 46 51 50
268 2 2 0 0 443 445 444
269 2 2 0 0 24 419 68
270 2 2 0 0 69 466 67
271 2 2 0 0 79 103 66
272 2 2 0 0 65 477 69
273 2 2 0 0 547 548 321
274 2 2 0 0 93 94 92
275 2 2 0 0 467 468 465
276 2 2 0 0 333 664 649
277 2 2 0 0 55 498 56
278 2 2 0 0 56 498 72
279 2 2 0 0 12 499 31
280 2 2 0 0 63 356 355
281 2 2 0 0 108 110 107
282 2 2 0 0 139 141 140
283 2 2 0 0 100 101 97
284 2 2 0 0 236 248 99
285 2 2 0 0 81 594 236
286 2 2 0 0 51 52 50
287 2 2 0 0 192 515 195
288 2 2 0 0 445 446 444
289 2 2 0 0 477 481 69
290 2 2 0 0 94 95 92
291 2 2 0 0 93 96 94
292 2 2 0 0 63 408 356
293 2 2 0 0 108 111 110
294 2 2 0 0 110 117 107
295 2 2 0 0 139 154 141
296 2 2 0 0 141 142 140
297 2 2 0 0 51 53 52
298 2 2 0 0 100 102 101
299 2 2 0 0 236 250 248
300 2 2 0 0 445 447 446
301 2 2 0 0 52 388 50
302 2 2 0 0 277 622 567
303 2 2 0 0 95 608 92
304 2 2 0 0 94 118 95
305 2 2 0 0 93 104 96
306 2 2 0 0 51 561 53
307 2 2 0 0 408 434 356
308 2 2 0 0 53 54 52
309 2 2 0 0 445 448 447
310 2 2 0 0 108 317 111
311 2 2 0 0 141 143 142
312 2 2 0 0 142 225 140
313 2 2 0 0 102 166 101
314 2 2 0 0 250 325 248
315 2 2 0 0 100 258 102
316 2 2 0 0 53 55 54
317 2 2 0 0 447 449 446
318 2 2 0 0 236 505 250
319 2 2 0 0 104 105 96
320 2 2 0 0 53 57 55
321 2 2 0 0 55 56 54
322 2 2 0 0 448 451 447
323 2 2 0 0 14 39 15
324 2 2 0 0 317 511 111
325 2 2 0 0 10 40 9
326 2 2 0 0 143 144 142
327 2 2 0 0 57 58 55
328 2 2 0 0 8 37 9
329 2 2 0 0 14 38 13
330 2 2 0 0 166 314 101
331 2 2 0 0 18 36 17
332 2 2 0 0 16 29 17
333 2 2 0 0 33 504 20
334 2 2 0 0 325 365 248
335 2 2 0 0 199 202 196
336 2 2 0 0 7 32 6
337 2 2 0 0 434 435 356
338 2 2 0 0 74 75 73
339 2 2 0 0 223 239 234
340 2 2 0 0 74 76 75
341 2 2 0 0 72 74 73
342 2 2 0 0 231 549 201
343 2 2 0 0 202 205 204
344 2 2 0 0 226 227 214
345 2 2 0 0 272 275 271
346 2 2 0 0 276 318 275
347 2 2 0 0 213 214 209
348 2 2 0 0 76 77 75
349 2 2 0 0 210 231 201
350 2 2 0 0 16 30 15
351 2 2 0 0 205 209 208
352 2 2 0 0 202 204 196
353 2 2 0 0 318 406 340
354 2 2 0 0 195 196 193
355 2 2 0 0 322 420 415
356 2 2 0 0 239 240 234
357 2 2 0 0 163 588 168
358 2 2 0 0 12 31 11
359 2 2 0 0 56 72 71
360 2 2 0 0 425 426 327
361 2 2 0 0 19 33 20
362 2 2 0 0 168 224 215
363 2 2 0 0 209 568 216
364 2 2 0 0 318 433 406
365 2 2 0 0 269 271 270
366 2 2 0 0 268 269 245
367 2 2 0 0 21 639 20
368 2 2 0 0 84 85 82
369 2 2 0 0 181 207 183
370 2 2 0 0 269 272 271
371 2 2 0 0 272 276 275
372 2 2 0 0 242 243 240
373 2 2 0 0 102 167 166
374 2 2 0 0 223 234 233
375 2 2 0 0 283 343 227
376 2 2 0 0 205 208 204
377 2 2 0 0 213 226 214
378 2 2 0 0 271 572 347
379 2 2 0 0 243 268 245
380 2 2 0 0 335 398 307
381 2 2 0 0 303 555 554
382 2 2 0 0 226 283 227
383 2 2 0 0 347 485 370
384 2 2 0 0 195 199 196
385 2 2 0 0 205 213 209
386 2 2 0 0 246 322 252
387 2 2 0 0 76 78 77
388 2 2 0 0 133 163 135
389 2 2 0 0 163 168 164
390 2 2 0 0 322 415 341
391 2 2 0 0 227 361 214
392 2 2 0 0 191 198 189
393 2 2 0 0 78 84 82
394 2 2 0 0 209 216 208
395 2 2 0 0 78 82 77
396 2 2 0 0 216 303 266
397 2 2 0 0 417 418 362
398 2 2 0 0 314 607 101
399 2 2 0 0 339 362 280
400 2 2 0 0 243 245 244
401 2 2 0 0 187 291 185
402 2 2 0 0 429 430 359
403 2 2 0 0 143 145 144
404 2 2 0 0 202 553 205
405 2 2 0 0 339 417 362
406 2 2 0 0 131 580 133
407 2 2 0 0 239 242 240
408 2 2 0 0 57 59 58
409 2 2 0 0 224 246 215
410 2 2 0 0 84 86 85
411 2 2 0 0 303 554 266
412 2 2 0 0 72 73 71
413 2 2 0 0 437 438 414
414 2 2 0 0 318 340 275
415 2 2 0 0 269 270 245
416 2 2 0 0 86 87 85
417 2 2 0 0 192 193 191
418 2 2 0 0 123 235 129
419 2 2 0 0 263 374 262
420 2 2 0 0 425 427 426
421 2 2 0 0 149 150 147
422 2 2 0 0 210 232 231
423 2 2 0 0 74 373 76
424 2 2 0 0 168 215 169
425 2 2 0 0 259 262 249
426 2 2 0 0 145 146 144
427 2 2 0 0 367 524 289
428 2 2 0 0 271 347 270
429 2 2 0 0 406 407 340
430 2 2 0 0 334 459 424
431 2 2 0 0 429 474 430
432 2 2 0 0 250 328 325
433 2 2 0 0 431 432 367
434 2 2 0 0 104 278 105
435 2 2 0 0 145 147 146
436 2 2 0 0 151 152 150
437 2 2 0 0 235 583 129
438 2 2 0 0 237 249 228
439 2 2 0 0 149 151 150
440 2 2 0 0 159 161 158
441 2 2 0 0 153 155 152
442 2 2 0 0 156 158 155
443 2 2 0 0 354 367 289
444 2 2 0 0 259 263 262
445 2 2 0 0 190 191 189
446 2 2 0 0 177 221 174
447 2 2 0 0 162 228 161
448 2 2 0 0 124 516 386
449 2 2 0 0 418 653 578
450 2 2 0 0 371 584 295
451 2 2 0 0 151 153 152
452 2 2 0 0 153 156 155
453 2 2 0 0 159 162 161
454 2 2 0 0 374 593 262
455 2 2 0 0 156 159 158
456 2 2 0 0 237 259 249
457 2 2 0 0 146 284 160
458 2 2 0 0 266 309 267
459 2 2 0 0 264 265 257
460 2 2 0 0 86 88 87
461 2 2 0 0 265 312 257
462 2 2 0 0 162 237 228
463 2 2 0 0 21 44 22
464 2 2 0 0 324 392 390
465 2 2 0 0 371 585 584
466 2 2 0 0 262 366 249
467 2 2 0 0 192 195 193
468 2 2 0 0 263 375 374
469 2 2 0 0 216 266 217
470 2 2 0 0 326 327 276
471 2 2 0 0 260 646 166
472 2 2 0 0 220 223 222
473 2 2 0 0 322 341 252
474 2 2 0 0 256 257 255
475 2 2 0 0 78 253 84
476 2 2 0 0 358 359 242
477 2 2 0 0 188 189 187
478 2 2 0 0 281 339 280
479 2 2 0 0 146 160 144
480 2 2 0 0 123 129 128
481 2 2 0 0 255 324 254
482 2 2 0 0 228 229 161
483 2 2 0 0 354 431 367
484 2 2 0 0 163 164 135
485 2 2 0 0 155 157 152
486 2 2 0 0 243 244 240
487 2 2 0 0 256 264 257
488 2 2 0 0 284 316 160
489 2 2 0 0 380 425 327
490 2 2 0 0 148 149 147
491 2 2 0 0 335 399 398
492 2 2 0 0 418 578 362
493 2 2 0 0 334 424 396
494 2 2 0 0 167 260 166
495 2 2 0 0 325 368 365
496 2 2 0 0 428 429 359
497 2 2 0 0 165 255 254
498 2 2 0 0 297 342 264
499 2 2 0 0 298 371 295
500 2 2 0 0 218 323 220
501 2 2 0 0 310 337 302
502 2 2 0 0 165 256 255
503 2 2 0 0 186 187 185
504 2 2 0 0 56 71 70
505 2 2 0 0 165 254 125
506 2 2 0 0 200 201 199
507 2 2 0 0 148 206 149
508 2 2 0 0 324 390 364
509 2 2 0 0 190 192 191
510 2 2 0 0 368 369 365
511 2 2 0 0 353 404 351
512 2 2 0 0 104 331 278
513 2 2 0 0 256 297 264
514 2 2 0 0 316 421 416
515 2 2 0 0 239 358 242
516 2 2 0 0 169 586 171
517 2 2 0 0 286 287 206
518 2 2 0 0 324 364 254
519 2 2 0 0 241 576 162
520 2 2 0 0 168 169 164
521 2 2 0 0 121 123 122
522 2 2 0 0 266 267 217
523 2 2 0 0 129 131 130
524 2 2 0 0 216 217 208
525 2 2 0 0 285 382 313
526 2 2 0 0 172 321 170
527 2 2 0 0 390 391 364
528 2 2 0 0 296 563 300
529 2 2 0 0 246 252 251
530 2 2 0 0 285 286 206
531 2 2 0 0 288 289 287
532 2 2 0 0 298 372 371
533 2 2 0 0 23 35 22
534 2 2 0 0 300 344 304
535 2 2 0 0 344 462 345
536 2 2 0 0 123 128 122
537 2 2 0 0 297 389 342
538 2 2 0 0 237 277 259
539 2 2 0 0 148 285 206
540 2 2 0 0 86 89 88
541 2 2 0 0 306 307 283
542 2 2 0 0 234 279 233
543 2 2 0 0 316 416 160
544 2 2 0 0 188 190 189
545 2 2 0 0 85 98 82
546 2 2 0 0 358 428 359
547 2 2 0 0 437 455 438
548 2 2 0 0 203 210 201
549 2 2 0 0 382 383 313
550 2 2 0 0 153 176 156
551 2 2 0 0 290 354 289
552 2 2 0 0 159 241 162
553 2 2 0 0 386 387 126
554 2 2 0 0 273 363 338
555 2 2 0 0 272 326 276
556 2 2 0 0 171 293 173
557 2 2 0 0 145 148 147
558 2 2 0 0 274 295 261
559 2 2 0 0 285 313 286
560 2 2 0 0 383 384 313
561 2 2 0 0 301 302 299
562 2 2 0 0 131 133 132
563 2 2 0 0 296 298 295
564 2 2 0 0 305 310 302
565 2 2 0 0 349 412 328
566 2 2 0 0 344 345 304
567 2 2 0 0 77 119 75
568 2 2 0 0 315 378 310
569 2 2 0 0 363 401 400
570 2 2 0 0 332 333 278
571 2 2 0 0 223 233 222
572 2 2 0 0 331 334 332
573 2 2 0 0 186 188 187
574 2 2 0 0 178 212 177
575 2 2 0 0 305 360 315
576 2 2 0 0 334 396 395
577 2 2 0 0 246 251 215
578 2 2 0 0 167 261 260
579 2 2 0 0 175 179 178
580 2 2 0 0 345 346 304
581 2 2 0 0 124 386 126
582 2 2 0 0 286 288 287
583 2 2 0 0 331 332 278
584 2 2 0 0 179 181 180
585 2 2 0 0 301 305 302
586 2 2 0 0 300 304 301
587 2 2 0 0 296 300 299
588 2 2 0 0 305 315 310
589 2 2 0 0 296 299 298
590 2 2 0 0 320 453 290
591 2 2 0 0 274 296 295
592 2 2 0 0 313 531 286
593 2 2 0 0 120 281 280
594 2 2 0 0 360 409 315
595 2 2 0 0 363 400 338
596 2 2 0 0 129 130 128
597 2 2 0 0 300 301 299
598 2 2 0 0 1 508 23
599 2 2 0 0 167 273 261
600 2 2 0 0 133 135 134
601 2 2 0 0 173 174 172
602 2 2 0 0 311 377 376
603 2 2 0 0 273 274 261
604 2 2 0 0 273 338 274
605 2 2 0 0 334 395 332
606 2 2 0 0 183 197 184
607 2 2 0 0 319 393 320
608 2 2 0 0 449 450 446
609 2 2 0 0 288 290 289
610 2 2 0 0 226 306 283
611 2 2 0 0 326 380 327
612 2 2 0 0 175 177 174
613 2 2 0 0 181 183 182
614 2 2 0 0 219 230 211
615 2 2 0 0 308 335 307
616 2 2 0 0 267 311 292
617 2 2 0 0 169 170 164
618 2 2 0 0 288 319 290
619 2 2 0 0 126 165 125
620 2 2 0 0 120 280 121
621 2 2 0 0 130 357 128
622 2 2 0 0 195 200 199
623 2 2 0 0 169 171 170
624 2 2 0 0 171 172 170
625 2 2 0 0 184 186 185
626 2 2 0 0 73 282 71
627 2 2 0 0 252 294 251
628 2 2 0 0 319 320 290
629 2 2 0 0 131 132 130
630 2 2 0 0 393 394 320
631 2 2 0 0 171 173 172
632 2 2 0 0 4 34 3
633 2 2 0 0 218 220 219
634 2 2 0 0 267 292 217
635 2 2 0 0 184 185 182
636 2 2 0 0 188 194 190
637 2 2 0 0 56 70 54
638 2 2 0 0 377 405 376
639 2 2 0 0 449 470 450
640 2 2 0 0 179 180 178
641 2 2 0 0 173 175 174
642 2 2 0 0 175 178 177
643 2 2 0 0 250 329 328
644 2 2 0 0 311 376 292
645 2 2 0 0 329 571 350
646 2 2 0 0 347 370 348
647 2 2 0 0 220 222 219
648 2 2 0 0 376 385 292
649 2 2 0 0 133 134 132
650 2 2 0 0 134 136 132
651 2 2 0 0 306 308 307
652 2 2 0 0 200 203 201
653 2 2 0 0 233 247 222
654 2 2 0 0 98 460 82
655 2 2 0 0 329 349 328
656 2 2 0 0 326 381 380
657 2 2 0 0 347 348 270
658 2 2 0 0 181 182 180
659 2 2 0 0 121 122 115
660 2 2 0 0 350 351 349
661 2 2 0 0 308 336 335
662 2 2 0 0 350 403 352
663 2 2 0 0 470 471 450
664 2 2 0 0 203 211 210
665 2 2 0 0 218 219 211
666 2 2 0 0 183 184 182
667 2 2 0 0 370 463 422
668 2 2 0 0 306 402 308
669 2 2 0 0 203 218 211
670 2 2 0 0 71 490 70
671 2 2 0 0 329 350 349
672 2 2 0 0 436 437 414
673 2 2 0 0 124 126 125
674 2 2 0 0 413 414 353
675 2 2 0 0 422 423 348
676 2 2 0 0 352 353 351
677 2 2 0 0 370 422 348
678 2 2 0 0 350 352 351
679 2 2 0 0 413 436 414
680 2 2 0 0 352 413 353
681 2 2 0 0 120 121 115
682 2 2 0 0 110 480 117
683 2 2 0 0 124 125 116
684 2 2 0 0 126 521 165
685 2 2 0 0 113 120 115
686 2 2 0 0 127 440 410
687 2 2 0 0 114 124 116
688 2 2 0 0 543 544 530
689 2 2 0 0 488 489 487
690 2 2 0 0 585 637 366
691 2 2 0 0 543 570 544
692 2 2 0 0 113 115 114
693 2 2 0 0 127 410 106
694 2 2 0 0 114 116 112
695 2 2 0 0 195 515 200
696 2 2 0 0 491 493 492
697 2 2 0 0 12 487 13
698 2 2 0 0 546 547 321
699 2 2 0 0 330 457 411
700 2 2 0 0 157 543 530
701 2 2 0 0 519 520 291
702 2 2 0 0 28 488 487
703 2 2 0 0 111 112 110
704 2 2 0 0 312 534 257
705 2 2 0 0 476 732 412
706 2 2 0 0 27 458 442
707 2 2 0 0 385 636 620
708 2 2 0 0 176 559 156
709 2 2 0 0 593 634 366
710 2 2 0 0 589 590 224
711 2 2 0 0 113 114 112
712 2 2 0 0 109 127 106
713 2 2 0 0 270 564 245
714 2 2 0 0 443 506 445
715 2 2 0 0 491 492 396
716 2 2 0 0 388 624 502
717 2 2 0 0 445 506 448
718 2 2 0 0 30 500 15
719 2 2 0 0 20 504 21
720 2 2 0 0 64 475 60
721 2 2 0 0 287 542 206
722 2 2 0 0 23 508 35
723 2 2 0 0 302 558 299
724 2 2 0 0 70 551 54
725 2 2 0 0 62 598 64
726 2 2 0 0 424 491 396
727 2 2 0 0 407 456 340
728 2 2 0 0 545 546 321
729 2 2 0 0 330 411 397
730 2 2 0 0 72 536 74
731 2 2 0 0 238 574 136
732 2 2 0 0 659 660 420
733 2 2 0 0 395 538 332
734 2 2 0 0 143 527 145
735 2 2 0 0 412 675 476
736 2 2 0 0 239 513 358
737 2 2 0 0 157 530 529
738 2 2 0 0 518 519 291
739 2 2 0 0 449 482 470
740 2 2 0 0 207 713 479
741 2 2 0 0 119 523 75
742 2 2 0 0 109 670 127
743 2 2 0 0 10 501 40
744 2 2 0 0 508 509 35
745 2 2 0 0 96 606 94
746 2 2 0 0 331 459 334
747 2 2 0 0 286 531 288
748 2 2 0 0 290 453 354
749 2 2 0 0 282 490 71
750 2 2 0 0 384 531 313
751 2 2 0 0 289 524 287
752 2 2 0 0 349 550 412
753 2 2 0 0 165 521 256
754 2 2 0 0 82 460 77
755 2 2 0 0 155 543 157
756 2 2 0 0 201 549 199
757 2 2 0 0 273 591 363
758 2 2 0 0 387 521 126
759 2 2 0 0 114 516 124
760 2 2 0 0 53 561 57
761 2 2 0 0 266 554 309
762 2 2 0 0 257 534 255
763 2 2 0 0 205 553 213
764 2 2 0 0 142 522 225
765 2 2 0 0 435 481 356
766 2 2 0 0 216 568 303
767 2 2 0 0 300 563 344
768 2 2 0 0 214 568 209
769 2 2 0 0 112 480 110
770 2 2 0 0 350 571 403
771 2 2 0 0 347 572 485
772 2 2 0 0 275 572 271
773 2 2 0 0 274 563 296
774 2 2 0 0 171 586 293
775 2 2 0 0 162 576 237
776 2 2 0 0 133 580 163
777 2 2 0 0 11 501 10
778 2 2 0 0 295 584 261
779 2 2 0 0 129 583 131
780 2 2 0 0 215 586 169
781 2 2 0 0 250 505 329
782 2 2 0 0 168 588 224
783 2 2 0 0 321 548 170
784 2 2 0 0 262 593 366
785 2 2 0 0 166 646 314
786 2 2 0 0 520 535 291
787 2 2 0 0 373 663 493
788 2 2 0 0 291 535 185
789 2 2 0 0 101 607 97
790 2 2 0 0 130 574 357
791 2 2 0 0 158 570 543
792 2 2 0 0 31 501 11
793 2 2 0 0 444 552 503
794 2 2 0 0 156 559 159
795 2 2 0 0 236 594 505
796 2 2 0 0 206 542 149
797 2 2 0 0 54 551 52
798 2 2 0 0 74 536 373
799 2 2 0 0 337 558 302
800 2 2 0 0 150 532 147
801 2 2 0 0 379 728 457
802 2 2 0 0 299 558 298
803 2 2 0 0 332 538 333
804 2 2 0 0 145 527 148
805 2 2 0 0 514 515 192
806 2 2 0 0 15 500 14
807 2 2 0 0 75 523 73
808 2 2 0 0 467 501 31
809 2 2 0 0 254 592 125
810 2 2 0 0 172 545 321
811 2 2 0 0 144 522 142
812 2 2 0 0 528 532 150
813 2 2 0 0 187 518 291
814 2 2 0 0 553 599 213
815 2 2 0 0 383 603 384
816 2 2 0 0 282 698 490
817 2 2 0 0 244 517 240
818 2 2 0 0 353 525 404
819 2 2 0 0 395 540 538
820 2 2 0 0 94 606 118
821 2 2 0 0 117 539 107
822 2 2 0 0 185 535 182
823 2 2 0 0 388 502 50
824 2 2 0 0 167 591 273
825 2 2 0 0 147 532 146
826 2 2 0 0 92 608 91
827 2 2 0 0 472 676 368
828 2 2 0 0 364 592 254
829 2 2 0 0 21 504 44
830 2 2 0 0 365 597 248
831 2 2 0 0 125 592 116
832 2 2 0 0 588 589 224
833 2 2 0 0 111 113 112
834 2 2 0 0 63 469 408
835 2 2 0 0 105 109 106
836 2 2 0 0 242 526 243
837 2 2 0 0 439 712 29
838 2 2 0 0 240 517 234
839 2 2 0 0 346 533 304
840 2 2 0 0 14 500 38
841 2 2 0 0 494 495 484
842 2 2 0 0 127 630 440
843 2 2 0 0 208 537 204
844 2 2 0 0 175 562 179
845 2 2 0 0 303 626 555
846 2 2 0 0 359 526 242
847 2 2 0 0 243 526 268
848 2 2 0 0 217 537 208
849 2 2 0 0 58 498 55
850 2 2 0 0 503 552 30
851 2 2 0 0 13 499 12
852 2 2 0 0 268 621 569
853 2 2 0 0 489 497 487
854 2 2 0 0 475 498 58
855 2 2 0 0 430 526 359
856 2 2 0 0 248 597 99
857 2 2 0 0 292 537 217
858 2 2 0 0 26 645 45
859 2 2 0 0 234 517 279
860 2 2 0 0 14 497 39
861 2 2 0 0 385 537 292
862 2 2 0 0 305 533 360
863 2 2 0 0 304 533 301
864 2 2 0 0 146 532 284
865 2 2 0 0 483 494 484
866 2 2 0 0 173 562 175
867 2 2 0 0 116 480 112
868 2 2 0 0 224 590 246
869 2 2 0 0 189 518 187
870 2 2 0 0 498 536 72
871 2 2 0 0 414 525 353
872 2 2 0 0 160 522 144
873 2 2 0 0 547 609 548
874 2 2 0 0 182 535 180
875 2 2 0 0 297 601 389
876 2 2 0 0 44 594 81
877 2 2 0 0 301 533 305
878 2 2 0 0 105 106 96
879 2 2 0 0 515 596 200
880 2 2 0 0 293 562 173
881 2 2 0 0 73 523 282
882 2 2 0 0 148 527 285
883 2 2 0 0 174 545 172
884 2 2 0 0 218 596 323
885 2 2 0 0 200 596 203
886 2 2 0 0 149 542 151
887 2 2 0 0 446 552 444
888 2 2 0 0 49 461 330
889 2 2 0 0 330 397 48
890 2 2 0 0 453 738 377
891 2 2 0 0 255 534 324
892 2 2 0 0 52 551 388
893 2 2 0 0 634 646 260
894 2 2 0 0 513 615 358
895 2 2 0 0 438 525 414
896 2 2 0 0 516 618 386
897 2 2 0 0 198 518 189
898 2 2 0 0 227 566 361
899 2 2 0 0 559 560 241
900 2 2 0 0 90 587 93
901 2 2 0 0 416 522 160
902 2 2 0 0 102 591 167
903 2 2 0 0 134 609 137
904 2 2 0 0 298 558 372
905 2 2 0 0 132 574 130
906 2 2 0 0 106 606 96
907 2 2 0 0 159 559 241
908 2 2 0 0 32 611 6
909 2 2 0 0 158 543 155
910 2 2 0 0 223 513 239
911 2 2 0 0 288 531 319
912 2 2 0 0 323 513 220
913 2 2 0 0 115 516 114
914 2 2 0 0 521 601 297
915 2 2 0 0 610 698 455
916 2 2 0 0 354 600 431
917 2 2 0 0 351 550 349
918 2 2 0 0 256 521 297
919 2 2 0 0 140 604 138
920 2 2 0 0 77 460 119
921 2 2 0 0 17 503 16
922 2 2 0 0 9 502 10
923 2 2 0 0 104 587 331
924 2 2 0 0 152 528 150
925 2 2 0 0 315 541 378
926 2 2 0 0 170 548 164
927 2 2 0 0 590 659 420
928 2 2 0 0 11 624 28
929 2 2 0 0 199 549 202
930 2 2 0 0 502 624 10
931 2 2 0 0 453 600 354
932 2 2 0 0 42 43 41
933 2 2 0 0 38 499 13
934 2 2 0 0 285 527 382
935 2 2 0 0 190 514 192
936 2 2 0 0 157 529 528
937 2 2 0 0 231 643 549
938 2 2 0 0 331 587 459
939 2 2 0 0 451 701 232
940 2 2 0 0 99 597 100
941 2 2 0 0 361 568 214
942 2 2 0 0 372 740 544
943 2 2 0 0 221 545 174
944 2 2 0 0 138 604 238
945 2 2 0 0 340 572 275
946 2 2 0 0 338 563 274
947 2 2 0 0 524 542 287
948 2 2 0 0 265 595 312
949 2 2 0 0 111 511 113
950 2 2 0 0 580 658 588
951 2 2 0 0 580 588 163
952 2 2 0 0 237 576 277
953 2 2 0 0 444 503 36
954 2 2 0 0 131 583 580
955 2 2 0 0 505 571 329
956 2 2 0 0 203 596 218
957 2 2 0 0 584 634 260
958 2 2 0 0 261 584 260
959 2 2 0 0 369 647 365
960 2 2 0 0 251 586 215
961 2 2 0 0 348 564 270
962 2 2 0 0 450 552 446
963 2 2 0 0 390 496 391
964 2 2 0 0 66 598 62
965 2 2 0 0 465 623 423
966 2 2 0 0 258 591 102
967 2 2 0 0 343 566 227
968 2 2 0 0 564 623 244
969 2 2 0 0 154 617 141
970 2 2 0 0 324 534 392
971 2 2 0 0 50 502 37
972 2 2 0 0 524 556 542
973 2 2 0 0 544 700 372
974 2 2 0 0 122 516 115
975 2 2 0 0 177 557 221
976 2 2 0 0 489 698 610
977 2 2 0 0 93 587 104
978 2 2 0 0 136 574 132
979 2 2 0 0 593 646 634
980 2 2 0 0 116 592 480
981 2 2 0 0 143 617 527
982 2 2 0 0 225 604 140
983 2 2 0 0 137 631 139
984 2 2 0 0 549 553 202
985 2 2 0 0 164 548 135
986 2 2 0 0 404 550 351
987 2 2 0 0 34 721 473
988 2 2 0 0 220 513 223
989 2 2 0 0 317 640 511
990 2 2 0 0 100 597 258
991 2 2 0 0 588 658 589
992 2 2 0 0 323 615 513
993 2 2 0 0 568 626 303
994 2 2 0 0 377 605 405
995 2 2 0 0 178 613 212
996 2 2 0 0 493 628 373
997 2 2 0 0 157 528 152
998 2 2 0 0 591 627 363
999 2 2 0 0 409 541 315
1000 2 2 0 0 183 614 197
1001 2 2 0 0 103 598 66
1002 2 2 0 0 188 619 194
1003 2 2 0 0 213 599 226
1004 2 2 0 0 306 599 402
1005 2 2 0 0 97 607 25
1006 2 2 0 0 194 514 190
1007 2 2 0 0 373 628 76
1008 2 2 0 0 78 628 253
1009 2 2 0 0 42 47 43
1010 2 2 0 0 39 612 15
1011 2 2 0 0 16 612 29
1012 2 2 0 0 437 610 455
1013 2 2 0 0 487 497 13
1014 2 2 0 0 440 630 441
1015 2 2 0 0 479 713 562
1016 2 2 0 0 196 620 193
1017 2 2 0 0 456 572 340
1018 2 2 0 0 120 511 281
1019 2 2 0 0 577 578 235
1020 2 2 0 0 335 582 399
1021 2 2 0 0 314 741 683
1022 2 2 0 0 520 613 535
1023 2 2 0 0 585 634 584
1024 2 2 0 0 423 564 348
1025 2 2 0 0 457 561 411
1026 2 2 0 0 6 611 5
1027 2 2 0 0 385 620 537
1028 2 2 0 0 228 637 229
1029 2 2 0 0 366 637 249
1030 2 2 0 0 161 570 158
1031 2 2 0 0 434 640 435
1032 2 2 0 0 193 636 191
1033 2 2 0 0 410 606 106
1034 2 2 0 0 37 502 9
1035 2 2 0 0 36 503 17
1036 2 2 0 0 141 617 143
1037 2 2 0 0 363 627 401
1038 2 2 0 0 322 590 420
1039 2 2 0 0 357 618 128
1040 2 2 0 0 430 621 526
1041 2 2 0 0 540 687 103
1042 2 2 0 0 280 577 121
1043 2 2 0 0 276 575 318
1044 2 2 0 0 362 578 577
1045 2 2 0 0 109 649 496
1046 2 2 0 0 246 590 322
1047 2 2 0 0 326 569 381
1048 2 2 0 0 569 621 381
1049 2 2 0 0 269 569 272
1050 2 2 0 0 139 631 154
1051 2 2 0 0 649 664 496
1052 2 2 0 0 537 620 204
1053 2 2 0 0 355 461 49
1054 2 2 0 0 663 685 493
1055 2 2 0 0 479 745 207
1056 2 2 0 0 343 662 565
1057 2 2 0 0 212 557 177
1058 2 2 0 0 45 645 46
1059 2 2 0 0 496 670 109
1060 2 2 0 0 366 634 585
1061 2 2 0 0 384 616 531
1062 2 2 0 0 535 613 180
1063 2 2 0 0 391 632 364
1064 2 2 0 0 308 581 336
1065 2 2 0 0 344 625 462
1066 2 2 0 0 563 625 344
1067 2 2 0 0 13 497 14
1068 2 2 0 0 480 632 117
1069 2 2 0 0 371 668 585
1070 2 2 0 0 333 649 278
1071 2 2 0 0 387 601 521
1072 2 2 0 0 47 49 48
1073 2 2 0 0 358 615 428
1074 2 2 0 0 113 511 120
1075 2 2 0 0 527 617 382
1076 2 2 0 0 105 649 109
1077 2 2 0 0 398 573 307
1078 2 2 0 0 368 676 369
1079 2 2 0 0 180 613 178
1080 2 2 0 0 153 556 176
1081 2 2 0 0 432 657 367
1082 2 2 0 0 458 718 582
1083 2 2 0 0 207 614 183
1084 2 2 0 0 407 611 456
1085 2 2 0 0 244 623 517
1086 2 2 0 0 20 639 27
1087 2 2 0 0 476 675 87
1088 2 2 0 0 319 616 393
1089 2 2 0 0 474 707 197
1090 2 2 0 0 226 599 306
1091 2 2 0 0 47 48 43
1092 2 2 0 0 186 619 188
1093 2 2 0 0 412 732 328
1094 2 2 0 0 316 671 541
1095 2 2 0 0 293 734 478
1096 2 2 0 0 492 685 598
1097 2 2 0 0 528 629 532
1098 2 2 0 0 514 635 515
1099 2 2 0 0 531 616 319
1100 2 2 0 0 8 656 7
1101 2 2 0 0 387 602 601
1102 2 2 0 0 76 628 78
1103 2 2 0 0 122 618 516
1104 2 2 0 0 651 717 394
1105 2 2 0 0 423 623 564
1106 2 2 0 0 546 669 547
1107 2 2 0 0 4 679 34
1108 2 2 0 0 542 556 151
1109 2 2 0 0 548 609 135
1110 2 2 0 0 204 620 196
1111 2 2 0 0 529 629 528
1112 2 2 0 0 482 719 230
1113 2 2 0 0 258 627 591
1114 2 2 0 0 336 582 335
1115 2 2 0 0 197 686 667
1116 2 2 0 0 583 658 580
1117 2 2 0 0 85 675 98
1118 2 2 0 0 59 728 379
1119 2 2 0 0 400 625 338
1120 2 2 0 0 394 717 605
1121 2 2 0 0 471 650 450
1122 2 2 0 0 596 635 323
1123 2 2 0 0 249 637 228
1124 2 2 0 0 515 635 596
1125 2 2 0 0 338 625 563
1126 2 2 0 0 28 633 488
1127 2 2 0 0 566 622 361
1128 2 2 0 0 229 570 161
1129 2 2 0 0 468 654 465
1130 2 2 0 0 118 710 462
1131 2 2 0 0 15 612 16
1132 2 2 0 0 589 659 590
1133 2 2 0 0 526 621 268
1134 2 2 0 0 365 647 597
1135 2 2 0 0 579 583 235
1136 2 2 0 0 22 507 21
1137 2 2 0 0 342 682 264
1138 2 2 0 0 441 648 346
1139 2 2 0 0 191 636 198
1140 2 2 0 0 578 653 579
1141 2 2 0 0 135 609 134
1142 2 2 0 0 128 618 122
1143 2 2 0 0 378 681 310
1144 2 2 0 0 230 690 211
1145 2 2 0 0 210 690 232
1146 2 2 0 0 549 643 553
1147 2 2 0 0 233 661 247
1148 2 2 0 0 10 624 11
1149 2 2 0 0 640 709 435
1150 2 2 0 0 449 719 482
1151 2 2 0 0 452 726 33
1152 2 2 0 0 362 577 280
1153 2 2 0 0 318 575 433
1154 2 2 0 0 492 687 396
1155 2 2 0 0 586 734 293
1156 2 2 0 0 357 655 618
1157 2 2 0 0 277 567 259
1158 2 2 0 0 522 641 225
1159 2 2 0 0 511 640 281
1160 2 2 0 0 247 661 483
1161 2 2 0 0 610 693 39
1162 2 2 0 0 272 569 326
1163 2 2 0 0 490 695 70
1164 2 2 0 0 553 643 599
1165 2 2 0 0 532 629 284
1166 2 2 0 0 29 712 17
1167 2 2 0 0 632 665 117
1168 2 2 0 0 618 655 386
1169 2 2 0 0 241 699 576
1170 2 2 0 0 457 728 561
1171 2 2 0 0 485 572 456
1172 2 2 0 0 430 667 621
1173 2 2 0 0 582 672 458
1174 2 2 0 0 395 687 540
1175 2 2 0 0 504 594 44
1176 2 2 0 0 181 713 207
1177 2 2 0 0 197 707 184
1178 2 2 0 0 524 657 556
1179 2 2 0 0 475 536 498
1180 2 2 0 0 394 738 320
1181 2 2 0 0 51 714 561
1182 2 2 0 0 151 556 153
1183 2 2 0 0 437 693 610
1184 2 2 0 0 361 626 568
1185 2 2 0 0 611 679 5
1186 2 2 0 0 231 680 643
1187 2 2 0 0 462 706 118
1188 2 2 0 0 390 670 496
1189 2 2 0 0 602 642 601
1190 2 2 0 0 49 330 48
1191 2 2 0 0 391 665 632
1192 2 2 0 0 508 737 375
1193 2 2 0 0 450 650 552
1194 2 2 0 0 368 732 476
1195 2 2 0 0 578 579 235
1196 2 2 0 0 402 581 308
1197 2 2 0 0 43 486 41
1198 2 2 0 0 562 713 179
1199 2 2 0 0 592 632 480
1200 2 2 0 0 416 641 522
1201 2 2 0 0 372 668 371
1202 2 2 0 0 452 712 439
1203 2 2 0 0 282 720 455
1204 2 2 0 0 556 657 176
1205 2 2 0 0 364 632 592
1206 2 2 0 0 403 726 452
1207 2 2 0 0 465 654 623
1208 2 2 0 0 278 649 105
1209 2 2 0 0 154 652 617
1210 2 2 0 0 383 688 603
1211 2 2 0 0 451 719 447
1212 2 2 0 0 317 709 640
1213 2 2 0 0 604 711 642
1214 2 2 0 0 382 652 383
1215 2 2 0 0 601 642 389
1216 2 2 0 0 284 671 316
1217 2 2 0 0 599 643 402
1218 2 2 0 0 388 633 624
1219 2 2 0 0 267 678 311
1220 2 2 0 0 337 681 530
1221 2 2 0 0 279 661 233
1222 2 2 0 0 605 738 394
1223 2 2 0 0 33 677 504
1224 2 2 0 0 386 655 387
1225 2 2 0 0 547 669 631
1226 2 2 0 0 562 731 479
1227 2 2 0 0 360 648 595
1228 2 2 0 0 432 692 657
1229 2 2 0 0 367 657 524
1230 2 2 0 0 633 695 488
1231 2 2 0 0 415 473 341
1232 2 2 0 0 644 672 336
1233 2 2 0 0 551 633 388
1234 2 2 0 0 533 648 360
1235 2 2 0 0 407 679 611
1236 2 2 0 0 323 635 615
1237 2 2 0 0 530 681 529
1238 2 2 0 0 393 651 394
1239 2 2 0 0 387 655 602
1240 2 2 0 0 238 703 574
1241 2 2 0 0 594 677 505
1242 2 2 0 0 559 692 560
1243 2 2 0 0 621 667 381
1244 2 2 0 0 405 674 376
1245 2 2 0 0 325 732 368
1246 2 2 0 0 623 654 517
1247 2 2 0 0 581 644 336
1248 2 2 0 0 346 648 533
1249 2 2 0 0 517 654 279
1250 2 2 0 0 477 705 481
1251 2 2 0 0 481 705 355
1252 2 2 0 0 561 728 57
1253 2 2 0 0 379 705 477
1254 2 2 0 0 617 652 382
1255 2 2 0 0 30 650 500
1256 2 2 0 0 376 674 385
1257 2 2 0 0 518 715 519
1258 2 2 0 0 474 667 430
1259 2 2 0 0 478 734 294
1260 2 2 0 0 624 633 28
1261 2 2 0 0 186 707 619
1262 2 2 0 0 64 663 475
1263 2 2 0 0 597 647 258
1264 2 2 0 0 377 738 605
1265 2 2 0 0 31 735 467
1266 2 2 0 0 27 718 458
1267 2 2 0 0 419 673 68
1268 2 2 0 0 616 722 393
1269 2 2 0 0 24 723 419
1270 2 2 0 0 397 638 48
1271 2 2 0 0 404 730 460
1272 2 2 0 0 91 676 472
1273 2 2 0 0 622 626 361
1274 2 2 0 0 7 656 32
1275 2 2 0 0 576 697 277
1276 2 2 0 0 471 691 650
1277 2 2 0 0 536 663 373
1278 2 2 0 0 484 691 471
1279 2 2 0 0 552 650 30
1280 2 2 0 0 311 678 600
1281 2 2 0 0 486 729 5
1282 2 2 0 0 418 673 666
1283 2 2 0 0 232 680 231
1284 2 2 0 0 5 679 4
1285 2 2 0 0 117 665 539
1286 2 2 0 0 384 702 616
1287 2 2 0 0 557 702 221
1288 2 2 0 0 87 675 85
1289 2 2 0 0 225 711 604
1290 2 2 0 0 505 677 571
1291 2 2 0 0 483 661 494
1292 2 2 0 0 263 565 375
1293 2 2 0 0 504 677 594
1294 2 2 0 0 582 718 399
1295 2 2 0 0 645 714 46
1296 2 2 0 0 534 708 392
1297 2 2 0 0 643 680 402
1298 2 2 0 0 18 712 452
1299 2 2 0 0 392 670 390
1300 2 2 0 0 221 702 603
1301 2 2 0 0 496 664 391
1302 2 2 0 0 606 710 118
1303 2 2 0 0 655 703 602
1304 2 2 0 0 608 676 91
1305 2 2 0 0 194 684 514
1306 2 2 0 0 541 671 378
1307 2 2 0 0 154 669 652
1308 2 2 0 0 399 718 639
1309 2 2 0 0 405 715 674
1310 2 2 0 0 33 726 677
1311 2 2 0 0 629 671 284
1312 2 2 0 0 468 735 495
1313 2 2 0 0 469 704 408
1314 2 2 0 0 427 745 479
1315 2 2 0 0 294 734 251
1316 2 2 0 0 461 705 379
1317 2 2 0 0 385 674 636
1318 2 2 0 0 657 692 176
1319 2 2 0 0 561 714 411
1320 2 2 0 0 631 669 154
1321 2 2 0 0 264 682 265
1322 2 2 0 0 43 638 486
1323 2 2 0 0 48 638 43
1324 2 2 0 0 194 744 684
1325 2 2 0 0 381 686 380
1326 2 2 0 0 658 716 589
1327 2 2 0 0 263 567 565
1328 2 2 0 0 310 681 337
1329 2 2 0 0 493 685 492
1330 2 2 0 0 64 685 663
1331 2 2 0 0 309 678 267
1332 2 2 0 0 600 678 431
1333 2 2 0 0 538 694 333
1334 2 2 0 0 598 685 64
1335 2 2 0 0 551 695 633
1336 2 2 0 0 560 699 241
1337 2 2 0 0 211 690 210
1338 2 2 0 0 2 723 3
1339 2 2 0 0 630 708 441
1340 2 2 0 0 467 735 468
1341 2 2 0 0 396 687 395
1342 2 2 0 0 35 507 22
1343 2 2 0 0 259 567 263
1344 2 2 0 0 417 673 418
1345 2 2 0 0 614 686 197
1346 2 2 0 0 392 708 630
1347 2 2 0 0 5 729 6
1348 2 2 0 0 279 725 661
1349 2 2 0 0 6 729 26
1350 2 2 0 0 357 703 655
1351 2 2 0 0 514 684 635
1352 2 2 0 0 540 733 538
1353 2 2 0 0 374 741 593
1354 2 2 0 0 176 692 559
1355 2 2 0 0 650 691 500
1356 2 2 0 0 484 736 691
1357 2 2 0 0 83 733 540
1358 2 2 0 0 558 740 372
1359 2 2 0 0 626 697 555
1360 2 2 0 0 436 693 437
1361 2 2 0 0 375 737 374
1362 2 2 0 0 475 663 536
1363 2 2 0 0 636 674 198
1364 2 2 0 0 674 715 198
1365 2 2 0 0 70 695 551
1366 2 2 0 0 406 721 407
1367 2 2 0 0 677 726 571
1368 2 2 0 0 258 647 627
1369 2 2 0 0 448 701 451
1370 2 2 0 0 458 672 506
1371 2 2 0 0 229 700 570
1372 2 2 0 0 684 744 428
1373 2 2 0 0 570 700 544
1374 2 2 0 0 678 742 431
1375 2 2 0 0 646 741 314
1376 2 2 0 0 603 702 384
1377 2 2 0 0 478 731 293
1378 2 2 0 0 309 742 678
1379 2 2 0 0 380 686 614
1380 2 2 0 0 494 725 468
1381 2 2 0 0 500 691 38
1382 2 2 0 0 635 684 615
1383 2 2 0 0 661 725 494
1384 2 2 0 0 679 721 34
1385 2 2 0 0 509 510 35
1386 2 2 0 0 46 714 51
1387 2 2 0 0 615 684 428
1388 2 2 0 0 432 742 689
1389 2 2 0 0 179 713 181
1390 2 2 0 0 26 739 645
1391 2 2 0 0 35 510 507
1392 2 2 0 0 574 703 357
1393 2 2 0 0 184 707 186
1394 2 2 0 0 39 693 612
1395 2 2 0 0 665 694 539
1396 2 2 0 0 312 708 534
1397 2 2 0 0 554 689 309
1398 2 2 0 0 1 737 508
1399 2 2 0 0 519 717 520
1400 2 2 0 0 277 697 622
1401 2 2 0 0 389 711 641
1402 2 2 0 0 495 736 484
1403 2 2 0 0 17 712 18
1404 2 2 0 0 212 722 557
1405 2 2 0 0 455 720 438
1406 2 2 0 0 622 697 626
1407 2 2 0 0 664 694 665
1408 2 2 0 0 447 719 449
1409 2 2 0 0 669 688 652
1410 2 2 0 0 612 693 436
1411 2 2 0 0 619 744 194
1412 2 2 0 0 57 728 59
1413 2 2 0 0 579 658 583
1414 2 2 0 0 438 727 525
1415 2 2 0 0 539 733 83
1416 2 2 0 0 479 731 478
1417 2 2 0 0 691 736 38
1418 2 2 0 0 401 724 400
1419 2 2 0 0 420 660 2
1420 2 2 0 0 328 732 325
1421 2 2 0 0 320 738 453
1422 2 2 0 0 428 744 429
1423 2 2 0 0 431 742 432
1424 2 2 0 0 425 745 427
1425 2 2 0 0 408 743 434
1426 2 2 0 0 571 726 403
1427 2 2 0 0 119 727 523
1428 2 2 0 0 625 706 462
1429 2 2 0 0 525 730 404
1430 2 2 0 0 499 736 495
1431 2 2 0 0 468 725 654
1432 2 2 0 0 336 672 582
1433 2 2 0 0 198 715 518
1434 2 2 0 0 400 724 706
1435 2 2 0 0 402 680 581
1436 2 2 0 0 589 716 659
1437 2 2 0 0 727 730 525
1438 2 2 0 0 664 665 391
1439 2 2 0 0 337 740 558
1440 2 2 0 0 293 731 562
1441 2 2 0 0 523 720 282
1442 2 2 0 0 460 730 119
1443 2 2 0 0 641 711 225
1444 2 2 0 0 429 744 619
1445 2 2 0 0 119 730 727
1446 2 2 0 0 651 722 212
1447 2 2 0 0 38 736 499
1448 2 2 0 0 667 686 381
1449 2 2 0 0 652 688 383
1450 2 2 0 0 410 710 606
1451 2 2 0 0 644 701 448
1452 2 2 0 0 666 673 419
1453 2 2 0 0 704 743 408
1454 2 2 0 0 251 734 586
1455 2 2 0 0 400 706 625
1456 2 2 0 0 546 688 669
1457 2 2 0 0 668 700 229
1458 2 2 0 0 538 733 694
1459 2 2 0 0 333 694 664
1460 2 2 0 0 565 662 375
1461 2 2 0 0 720 727 438
1462 2 2 0 0 372 700 668
1463 2 2 0 0 579 716 658
1464 2 2 0 0 642 711 389
1465 2 2 0 0 355 705 461
1466 2 2 0 0 407 721 679
1467 2 2 0 0 523 727 720
1468 2 2 0 0 654 725 279
1469 2 2 0 0 639 718 27
1470 2 2 0 0 694 733 539
1471 2 2 0 0 393 722 651
1472 2 2 0 0 645 739 397
1473 2 2 0 0 683 741 374
1474 2 2 0 0 397 739 638
1475 2 2 0 0 653 716 579
1476 2 2 0 0 666 723 660
1477 2 2 0 0 419 723 666
1478 2 2 0 0 374 737 683
1479 2 2 0 0 593 741 646
1480 2 2 0 0 683 737 1
1481 2 2 0 0 689 742 309
1482 2 2 0 0 660 723 2
1483 2 2 0 0 23 25 1
1484 2 2 0 0 25 607 1
1485 2 2 0 0 3 34 2
1486 2 2 0 0 34 415 2
$EndElements
