$MeshFormat
2.2 0 8
$EndMeshFormat
$Nodes
745
1 5.2318092479185140e-05 2.3602251744983599e-05 9.9512916688252471e-04
2 6.9301833330719675e-05 -3.3559501491515376e-05 -9.9284786568885203e-04
3 1.3546305352132390e-04 2.3146128418044544e-05 -9.8607250131013875e-04
4 2.5504850159810373e-04 1.2087427202299268e-05 -9.6370540327944025e-04
5 3.8103501495013640e-04 1.8927291934165518e-05 -9.2215019475541226e-04
6 4.8698964765241711e-04 1.3460946754807037e-06 -8.7158311644130939e-04
7 6.1011456568772901e-04 -2.9362112092096015e-06 -7.9161417699233762e-04
8 7.2446837193846096e-04 -5.9762162076195687e-06 -6.9011367338929226e-04
9 8.2832794643790039e-04 -4.1930995774750561e-06 -5.6253850778300479e-04
10 9.1215857018383541e-04 2.1990208912296134e-06 -4.1358727643593966e-04
11 9.6273513876687109e-04 1.0929644275331610e-05 -2.7512532007857696e-04
12 9.9131017401679622e-04 3.3451653444578334e-06 -1.3966393914997705e-04
13 1.0008467809959260e-03 9.6887130172360022e-06 1.4400180622586136e-06
14 9.9020129830824097e-04 8.1552199507789518e-06 1.4586463750858135e-04
15 9.5899388355974056e-04 3.0415861676062219e-07 2.8794646938567613e-04
16 9.0523818751042651e-04 7.7103448378216622e-06 4.2880963478116073e-04
17 8.2896248877829760e-04 4.9588477813819427e-06 5.6187115393425437e-04
18 7.2955889743872701e-04 2.4843577829484074e-06 6.8514402362434288e-04
19 6.1734316582395712e-04 9.6042075761704500e-06 7.8654555710814405e-04
20 4.9747386135023312e-04 1.6768822524642454e-06 8.6604927694444733e-04
21 3.6944022106520424e-04 6.6655768055514625e-07 9.2684885926031858e-04
22 2.4133785859157533e-04 -7.6004019772068590e-06 9.6737667314900826e-04
23 1.3306244819009995e-04 -1.8708367577705562e-05 9.8704742180393316e-04
24 1.5609961846213113e-04 1.2483319035425078e-04 -9.7659197776698583e-04
25 1.5942056370597577e-04 1.0596331818063524e-04 9.7882039544106968e-04
26 5.4589090657390313e-04 1.0620748619787228e-04 -8.2944665772876854e-04
27 5.5892299873781261e-04 -1.0449223378487528e-04 8.2188275910034662e-04
28 9.7149409109056136e-04 1.3553191195248834e-04 -2.0049861681219894e-04
29 8.5457059773549307e-04 1.4417295141988374e-04 5.0373013225903064e-04
30 9.3227502676468746e-04 -1.1800189429093232e-04 3.4648935079600770e-04
31 9.7092871895385546e-04 -1.1976946471303632e-04 -2.1222771808623777e-04
32 5.4202086940921383e-04 -1.1344979777129708e-04 -8.3155691005474468e-04
33 5.5305527043264773e-04 1.0766310626430141e-04 8.2514523105679631e-04
34 1.6134282220330007e-04 -8.6131627933493877e-05 -9.7998569461084611e-04
35 1.8544282782552806e-04 -9.9631952086702807e-05 9.7424334810913816e-04
36 7.8284413237339880e-04 -1.2455299017691466e-04 6.1190123167117355e-04
37 7.7135389724727779e-04 1.2175575641172159e-04 -6.2601028421713212e-04
38 9.9128433362045227e-04 -1.1100621103270328e-04 8.0411603599117330e-05
39 9.6952500987578232e-04 1.2325547259169043e-04 2.1604499371780729e-04
40 8.6891156309752433e-04 -1.2967210440475622e-04 -4.8100492504086638e-04
41 2.8823275690044578e-04 1.2657292817246077e-04 -9.4598866352949755e-04
42 2.1135211700723720e-04 2.2466378783115838e-04 -9.4793604117036456e-04
43 3.2119029328041651e-04 2.2853000293152821e-04 -9.1598518775967501e-04
44 2.9856354862960242e-04 1.0687142762894624e-04 9.4579581955431442e-04
45 6.7010955546033203e-04 1.1849746215646577e-04 -7.3272039433841334e-04
46 7.0959825680538553e-04 2.4433332141701947e-04 -6.6163205228391613e-04
47 2.6029306493430200e-04 3.3409857178734573e-04 -9.0295580817062199e-04
48 3.9597215191406062e-04 3.3847770248919784e-04 -8.5136429602340378e-04
49 3.2905121952491432e-04 4.3667236159459003e-04 -8.3519911134528088e-04
50 8.0641941543761384e-04 2.4379569541369621e-04 -5.4081466693280415e-04
51 7.2786239469432303e-04 3.6127750026846968e-04 -5.8434714606899602e-04
52 8.1070272751660984e-04 3.6637131074218306e-04 -4.5908385315710101e-04
53 7.3129465153832748e-04 4.7939207829705751e-04 -4.8733485702043007e-04
54 8.0206492902473432e-04 4.7840307824949024e-04 -3.6008686409899789e-04
55 7.1339654123795651e-04 5.9010800527053943e-04 -3.8010474613479629e-04
56 7.7766808401946057e-04 5.7914641507798631e-04 -2.4713705431071356e-04
57 6.2920499620141180e-04 5.9405566349011378e-04 -5.0250508386432162e-04
58 6.0286758522035296e-04 6.9466117632786394e-04 -3.9398206064490194e-04
59 5.1371678722932264e-04 6.8965103413553620e-04 -5.1133872935793230e-04
60 4.8623930759969893e-04 7.7589842726156046e-04 -4.0310336938786327e-04
61 3.9110027281111855e-04 7.5944479705843712e-04 -5.2109563321333296e-04
62 3.5838110305204813e-04 8.4098730453644886e-04 -4.0641650699546774e-04
63 1.9708974769043310e-04 4.4819236691001196e-04 -8.6943844140940929e-04
64 4.4701472350104242e-04 8.4521753334340839e-04 -2.9273998841723795e-04
65 2.5812028070836993e-04 8.1719085570538922e-04 -5.1655077236930833e-04
66 2.3141139458648919e-04 8.9347980662308124e-04 -3.8592514502394897e-04
67 1.2196903523414267e-04 8.6725492298869852e-04 -4.8396937097985117e-04
68 1.0239548148880592e-04 2.3784870931504610e-04 -9.6201408119951746e-04
69 1.4218986638802426e-04 7.6718636210483158e-04 -6.2713481871808747e-04
70 8.5765995238959360e-04 4.6582004725776306e-04 -2.2017640657207347e-04
71 8.2734701432271530e-04 5.5171133111682415e-04 -1.1049832401889052e-04
72 7.3365228842241117e-04 6.6642197125608440e-04 -1.3530611755378975e-04
73 7.7233319717800444e-04 6.3581515785352818e-04 6.5578974722900254e-06
74 6.7188620161611216e-04 7.4028848699912904e-04 -2.6839713194753304e-05
75 6.9368723661665304e-04 7.1200914965454396e-04 1.0993988765516167e-04
76 6.0026023460035707e-04 7.9615242852282254e-04 7.7340767340408501e-05
77 6.1296732829535755e-04 7.6132746198815098e-04 2.1274741288955908e-04
78 5.0656848432356334e-04 8.4443462894116133e-04 1.7550046401418066e-04
79 9.6816136250934230e-05 9.3475358208586288e-04 -3.4283532350537499e-04
80 -1.6318571494565920e-05 9.0229115201689218e-04 -4.3155426781264289e-04
81 2.3691616804747775e-04 2.0994306301351412e-04 9.4587028696930717e-04
82 5.2358145409617880e-04 7.9231505004979887e-04 3.1569845045042490e-04
83 -4.1242794482382724e-05 9.5305790781065390e-04 -2.9962776379386676e-04
84 4.0615001198081291e-04 8.7296845699029360e-04 2.7175617285174827e-04
85 4.2626839922415080e-04 8.0931048550411775e-04 4.0585760987713753e-04
86 2.9777423976728952e-04 8.7946333305861544e-04 3.7285517124661743e-04
87 3.0980834815233982e-04 8.0701977540739798e-04 5.0371891468395456e-04
88 1.8892059769112221e-04 8.6111781881630025e-04 4.7323694544032285e-04
89 1.6385145334696204e-04 9.2512172367267083e-04 3.4371029859366862e-04
90 5.3985038381632256e-05 9.0019824758173750e-04 4.3312603120375007e-04
91 6.9523150093485063e-05 8.2282379293226432e-04 5.6470293005350517e-04
92 -6.0286306296289484e-05 8.5378590204234005e-04 5.1743991094497350e-04
93 -8.2264781610137626e-05 9.1748258743167953e-04 3.8987381350238205e-04
94 -1.9139265441160591e-04 8.6081917522619561e-04 4.7193807595371541e-04
95 -1.5626186486872301e-04 8.0165804817840486e-04 5.7573925242451664e-04
96 -2.1748369485615561e-04 9.1573457334092863e-04 3.3832423006315758e-04
97 1.1269895130345029e-04 2.2319319413513869e-04 9.6507395876748673e-04
98 5.2960189995372654e-04 7.1602252538815157e-04 4.5893958801757002e-04
99 1.7999328813035343e-04 3.2331665590367857e-04 9.2637179050886220e-04
100 5.2869529549993717e-05 3.0815129167128603e-04 9.4688095181092553e-04
101 -2.0844883149714653e-05 2.1228255305073474e-04 9.7357726945722833e-04
102 -7.6969073731832517e-05 3.0520748655975900e-04 9.4614783068683414e-04
103 2.0831436115594025e-04 9.4637152788349917e-04 -2.4716805775475001e-04
104 -1.1007243707317923e-04 9.5980523132459293e-04 2.5833878986056930e-04
105 -2.4771232836645087e-04 9.4789453132152141e-04 1.9978995383079402e-04
106 -3.5144720136136656e-04 8.9274235339569137e-04 2.8222498268131498e-04
107 -1.5626221798116448e-04 9.1166607331458454e-04 -3.8034820203931309e-04
108 -1.2931276721785611e-04 8.5137503351315387e-04 -5.0878263417350673e-04
109 -3.7698280704017768e-04 9.1370207809631063e-04 1.5012069509672766e-04
110 -2.6486675212957151e-04 8.5211089390992525e-04 -4.5197454981550541e-04
111 -2.3927849584524016e-04 7.7224627280434235e-04 -5.8867102584940511e-04
112 -3.6606735535783303e-04 7.7243138253023597e-04 -5.1952367726248647e-04
113 -3.2874630095321410e-04 6.8147524389554597e-04 -6.5357161160336304e-04
114 -4.6521159023408496e-04 6.7507602419778336e-04 -5.7279490352586128e-04
115 -4.2043222435436006e-04 5.8396941242123870e-04 -6.9372032479569478e-04
116 -4.9929605900974673e-04 7.4336774602990049e-04 -4.4582188238187969e-04
117 -2.8498088167865326e-04 9.0378180643166373e-04 -3.1921627570148301e-04
118 -2.8643351592694586e-04 7.7901140114950568e-04 5.5921728316982373e-04
119 7.0818430831801180e-04 6.7013060123035035e-04 2.2317020309668557e-04
120 -2.7943749308328173e-04 5.7185085924178725e-04 -7.6997067898440606e-04
121 -3.6066616478231799e-04 4.7289569769952861e-04 -8.0219901441311780e-04
122 -4.9811779738763841e-04 4.7357912308992672e-04 -7.2526240432710767e-04
123 -4.4149575699359549e-04 3.6310559305650117e-04 -8.1845279812888655e-04
124 -5.9042249413672400e-04 6.3824182058692188e-04 -4.9461946807718375e-04
125 -6.1916237938470966e-04 6.9575348918472280e-04 -3.6474785206086095e-04
126 -6.9876402341335496e-04 5.8853291595171119e-04 -4.0735833789104910e-04
127 -4.8363674679944500e-04 8.4449655196988259e-04 2.2996784832669630e-04
128 -5.6301740207559783e-04 3.5147191549385494e-04 -7.4662770599290371e-04
129 -5.0353852091787621e-04 2.4843975266903759e-04 -8.2541073630326765e-04
130 -6.2543594770612227e-04 2.1758798837588189e-04 -7.4812737655689571e-04
131 -5.5697098158402028e-04 1.1941247018677234e-04 -8.2006997566787449e-04
132 -6.7778365485337308e-04 9.0500879470072605e-05 -7.2894652244309894e-04
133 -5.9918223109786325e-04 -1.4024671898072541e-05 -7.9913543536483812e-04
134 -7.2028867772029148e-04 -3.7011378179892460e-05 -6.9258314471847937e-04
135 -6.3112086576537182e-04 -1.4459713474812376e-04 -7.6138436551042633e-04
136 -7.8991596006528430e-04 7.4609721189568747e-05 -6.0943527010534236e-04
137 -8.2116548343814314e-04 -5.5211465177897907e-05 -5.6913594382686456e-04
138 -8.7621182186428876e-04 5.0170140159702504e-05 -4.8088826413787852e-04
139 -8.9606895526532070e-04 -8.5454822165353348e-05 -4.3735642768574291e-04
140 -9.3644797379014485e-04 1.5196974591393055e-05 -3.5197724629259603e-04
141 -9.4630305716862932e-04 -1.1614299631494670e-04 -3.0351116258942599e-04
142 -9.7674055368572924e-04 -1.5575119966259778e-05 -2.1497607596930436e-04
143 -9.7564125436924070e-04 -1.4519443262127780e-04 -1.6618938578650248e-04
144 -9.9618667976044350e-04 -3.9176280944748713e-05 -7.8647563633377663e-05
145 -9.8466936532202510e-04 -1.7303457281531981e-04 -2.9067362262935115e-05
146 -9.9670414930354387e-04 -6.1618894708564606e-05 5.3931802648279813e-05
147 -9.7630505141638635e-04 -1.8959936851814762e-04 1.0739221671899577e-04
148 -9.5383219963764772e-04 -3.0089062662634191e-04 1.8272482692879357e-05
149 -9.3807513350798268e-04 -3.1075800182873021e-04 1.5675921414738217e-04
150 -9.5114103527869226e-04 -1.9322090623777552e-04 2.4363237076061752e-04
151 -9.0311788556248385e-04 -3.1609639973045688e-04 2.9374193095723977e-04
152 -9.0364902858529892e-04 -1.9445060064779247e-04 3.8434993194776937e-04
153 -8.4450492623778432e-04 -3.2557145463191515e-04 4.2784840145251060e-04
154 -8.9707337856636529e-04 -2.1865591133519177e-04 -3.8577298331156980e-04
155 -8.3158493029590001e-04 -2.0765504431074439e-04 5.1722264225515706e-04
156 -7.6117808769406842e-04 -3.3712999773892477e-04 5.5583060887332795e-04
157 -8.8302518198702870e-04 -7.5210129999593833e-05 4.6565151002987692e-04
158 -7.4042807816583709e-04 -2.1838214266700122e-04 6.3669071307373231e-04
159 -6.6196617495130436e-04 -3.3354556643869053e-04 6.7198820247100154e-04
160 -9.9698575865560355e-04 7.6463238168164433e-05 5.9899195629763381e-06
161 -6.2726456854502539e-04 -2.1312004530962245e-04 7.4886242295243749e-04
162 -5.4662775416023171e-04 -3.2116858286244590e-04 7.7308619818121447e-04
163 -5.0907115710012679e-04 -1.1554396178288708e-04 -8.5106102336229459e-04
164 -5.2729918795704723e-04 -2.4783507157960044e-04 -8.1160761062395450e-04
165 -7.1658133514984623e-04 6.4224962011410309e-04 -2.7225136364878024e-04
166 -1.3902818229937747e-04 2.0488976987058260e-04 9.6557026068611301e-04
167 -2.1025757536092415e-04 3.0963466880172866e-04 9.2453956506291328e-04
168 -4.0545469231738444e-04 -2.0760636667398178e-04 -8.8799215906681234e-04
169 -4.2885715996334210e-04 -3.4203835323405260e-04 -8.3471149841056783e-04
170 -5.4750633959202357e-04 -3.8166543576806632e-04 -7.4444690187510981e-04
171 -4.4498500053328816e-04 -4.7593701877697092e-04 -7.5827033500405761e-04
172 -5.5259787430829411e-04 -5.0854719474897122e-04 -6.6115921300330524e-04
173 -4.3907617975457515e-04 -6.0301394621260730e-04 -6.6704443427199314e-04
174 -5.4642328229730064e-04 -6.2456944004547158e-04 -5.5981930337313968e-04
175 -4.2827010565047748e-04 -7.1196715486328450e-04 -5.5844701153733825e-04
176 -7.6641044740874723e-04 -4.4697968041253547e-04 4.6343023282285450e-04
177 -5.2145887594767955e-04 -7.2836946124210590e-04 -4.4699881360564232e-04
178 -4.1105831965667424e-04 -8.0259170173114700e-04 -4.3526255770092625e-04
179 -3.1162841169310896e-04 -7.8536417430218573e-04 -5.3690939547109545e-04
180 -2.8113982200340514e-04 -8.6569634492376099e-04 -4.1753940721579453e-04
181 -1.7964200790762872e-04 -8.3593956435987281e-04 -5.2095074617547878e-04
182 -1.4174848519265396e-04 -9.0657772255939057e-04 -4.0130805777639631e-04
183 -3.9865462205998300e-05 -8.6408013392829590e-04 -5.0499121550490363e-04
184 -4.2783221344177413e-07 -9.2779803637484961e-04 -3.7701983473757992e-04
185 -1.0095915234678625e-04 -9.5922840610683719e-04 -2.6894381058805279e-04
186 3.9144820620238784e-05 -9.7013757736067862e-04 -2.4409672274967967e-04
187 -5.0721027233276003e-05 -9.8990741630745871e-04 -1.3978651562197253e-04
188 8.8667866501202885e-05 -9.9017430083869567e-04 -1.1736037149189362e-04
189 -4.3836064976107294e-06 -1.0007361344137205e-03 -1.4038937489586299e-05
190 1.3041352743776717e-04 -9.9225684553977921e-04 1.2483949622478269e-05
191 3.2725906290081985e-05 -9.9416822606960891e-04 1.1140901907676773e-04
192 1.6836673835661528e-04 -9.7742996871113749e-04 1.3564863379955479e-04
193 6.3749318699413840e-05 -9.7064669404524839e-04 2.3739376043653690e-04
194 2.2004513582474925e-04 -9.7235288095405006e-04 -8.7563099533327572e-05
195 2.0142902804348893e-04 -9.4435363604123421e-04 2.6539045666557759e-04
196 9.9847200828816042e-05 -9.2661263346991460e-04 3.6697205229992960e-04
197 1.0580131879761832e-04 -8.7544858782064147e-04 -4.7623601230755021e-04
198 -9.7668927257645627e-05 -9.9239061328588942e-04 8.2901426247011629e-05
199 2.3254619475848783e-04 -8.9007541989581933e-04 3.9622528353759222e-04
200 3.3281027296894585e-04 -8.9793474049941339e-04 2.9306071942763963e-04
201 3.6366802038868313e-04 -8.3583852508434123e-04 4.1513663692819289e-04
202 1.3175854316619688e-04 -8.6028217134197758e-04 4.9591839070626674e-04
203 4.5687446607885256e-04 -8.3569093720795864e-04 3.0956286243268027e-04
204 -1.2418664169644921e-06 -8.8549798300099317e-04 4.6827843594915067e-04
205 2.8445148350065962e-05 -8.0740729113642151e-04 5.9185264684585100e-04
206 -9.0608516443265732e-04 -4.1945011631041115e-04 6.3578138135939827e-05
207 -8.3887054329718626e-05 -7.6922321620853998e-04 -6.3563137828763624e-04
208 -1.0288263977168299e-04 -8.2584053734781327e-04 5.5727171841567149e-04
209 -6.8756917526973632e-05 -7.3305596865436433e-04 6.7812934915974547e-04
210 4.8061906551594141e-04 -7.6561530265061690e-04 4.3121754453262913e-04
211 5.6994287526882827e-04 -7.5673557703857331e-04 3.2441325089154356e-04
212 -4.9641614449360107e-04 -8.0565197506954692e-04 -3.2625307998996250e-04
213 6.1211788830038515e-05 -7.0447115849075982e-04 7.0821048216025261e-04
214 -3.4299362397554909e-05 -6.1815209499649403e-04 7.8528419013579103e-04
215 -3.1372161242290903e-04 -2.7942213706335804e-04 -9.0500032226650785e-04
216 -2.0744806057490186e-04 -7.4907999462553725e-04 6.3109559300818653e-04
217 -2.4298965784180795e-04 -8.2906586684817769e-04 5.0661410982233369e-04
218 5.4597232987160002e-04 -8.1519264265911468e-04 2.0006941043592194e-04
219 6.5445827662050787e-04 -7.2571336190963281e-04 2.1937261249141182e-04
220 6.2187424374459028e-04 -7.7959635634307237e-04 8.9434248942530216e-05
221 -6.3627143213586214e-04 -6.3348281556476133e-04 -4.4252740412212982e-04
222 7.2553794805594717e-04 -6.8194445802074153e-04 1.0665299241199920e-04
223 6.8525369856935040e-04 -7.2950638621437601e-04 -2.3588919962611232e-05
224 -2.8436856926147732e-04 -1.6723780459906024e-04 -9.4084672406207859e-04
225 -9.6047691779117524e-04 1.1555208419400735e-04 -2.5335656260606633e-04
226 9.3481240286687000e-05 -5.8453279643520448e-04 8.0571771466279006e-04
227 -8.8430565773609449e-06 -4.9159023780824985e-04 8.6954115778388604e-04
228 -5.0265525114610886e-04 -1.9372731046812656e-04 8.4116332947913410e-04
229 -5.9161307751165459e-04 -9.2729587062817656e-05 7.9961393678798509e-04
230 6.6211628802907610e-04 -6.6633351636043972e-04 3.4729956403191706e-04
231 3.8740148789613690e-04 -7.5349138813296046e-04 5.3379404784573408e-04
232 5.0374079848696375e-04 -6.5865936074108004e-04 5.6298082727244199e-04
233 7.7843055499220474e-04 -6.2926169732899565e-04 -1.1932647758570036e-05
234 7.3486186560506436e-04 -6.6510892325708404e-04 -1.4094312012653855e-04
235 -3.7876154265786165e-04 2.5187057744178142e-04 -8.8776612978044703e-04
236 2.9674726850397181e-04 3.2146648027168295e-04 8.9709513395787549e-04
237 -4.1769238949551949e-04 -2.8188045050544044e-04 8.6239596816922877e-04
238 -8.3772532492703492e-04 1.9890123915294828e-04 -5.1110387812144161e-04
239 6.3604122765157950e-04 -7.5752825233938728e-04 -1.5487247799963780e-04
240 6.8489938299398775e-04 -6.7953714691471718e-04 -2.6813106905861610e-04
241 -5.7198891883904267e-04 -4.4909708373563190e-04 6.8721940900299074e-04
242 5.7380961173611261e-04 -7.7209746367531095e-04 -2.7804570108894052e-04
243 6.1190826929765003e-04 -6.8581116262372897e-04 -3.9791079691320797e-04
244 7.1814276884724483e-04 -5.8615880861588078e-04 -3.7923799444295597e-04
245 6.3125981241018167e-04 -5.8402829244692995e-04 -5.1331492444838564e-04
246 -1.8822558457604811e-04 -2.4189783489378917e-04 -9.4884545889452191e-04
247 8.1739673016286265e-04 -5.6756146621170158e-04 1.1075658173352788e-04
248 2.2453937804354710e-04 4.3369933502811979e-04 8.7067034773519810e-04
249 -3.7964990784807495e-04 -1.5621443316710289e-04 9.0958095026475892e-04
250 3.5347590675248935e-04 4.3072842164600231e-04 8.2906870482857417e-04
251 -2.0685781527784617e-04 -3.6994563564792839e-04 -9.0334562589265005e-04
252 -8.5971103118992316e-05 -3.3628453610549616e-04 -9.3521886819430023e-04
253 3.8067295147506701e-04 9.1270585530012400e-04 1.4938139703171433e-04
254 -6.2635259267172609e-04 7.4545405335668116e-04 -2.2752723082306581e-04
255 -7.1610339857552984e-04 6.8394925363554312e-04 -1.3706825870734093e-04
256 -7.9938599492885025e-04 5.7352830816506314e-04 -1.7841015707802720e-04
257 -7.9076001076782906e-04 6.0942457007062223e-04 -5.0667531566215498e-05
258 -2.0563793545862162e-05 4.1832222030032187e-04 9.0556688629803768e-04
259 -2.8983517147375122e-04 -2.3137014615874237e-04 9.2631371985715371e-04
260 -2.7281690107560952e-04 2.0991337916316909e-04 9.3589515231196541e-04
261 -3.4934538644829230e-04 3.0113554945656229e-04 8.8503097451874757e-04
262 -2.5643235514692799e-04 -1.0604527770405466e-04 9.5776260780317619e-04
263 -1.6546958814469398e-04 -1.9642107898054743e-04 9.6348074755810695e-04
264 -8.6575576395555068e-04 4.9291246458063836e-04 -8.4323932108144832e-05
265 -8.4724043900004321e-04 5.2850687905028892e-04 4.9228843498612893e-05
266 -3.4168839213367610e-04 -7.4783110304541282e-04 5.7147023387226100e-04
267 -3.7014362422088676e-04 -8.1869015614459471e-04 4.4194762075766537e-04
268 5.1591511243563235e-04 -6.7885822618173920e-04 -5.2528396225597865e-04
269 5.2176961221258927e-04 -5.7289097990501580e-04 -6.3393381426666358e-04
270 6.2296035829213119e-04 -4.7908341034088990e-04 -6.2038952433325341e-04
271 5.0700181629092752e-04 -4.5751282742268406e-04 -7.3117449802141362e-04
272 4.0806798107990348e-04 -5.4825640067242385e-04 -7.3069266719684022e-04
273 -2.8019400036974503e-04 4.1312522077020678e-04 8.6433265176659739e-04
274 -4.1567364138865803e-04 4.0633024547767735e-04 8.1236447840767371e-04
275 3.9129367195872973e-04 -4.1805470854407476e-04 -8.1926020431821625e-04
276 2.8375341464748224e-04 -5.0906346764531107e-04 -8.1215625369858511e-04
277 -3.2187692965805292e-04 -3.5563223921045097e-04 8.7569148532664839e-04
278 -1.3934398830461336e-04 9.8245922335938674e-04 1.2136981986890571e-04
279 8.1794486583767773e-04 -5.6320310511437681e-04 -1.2399436397103974e-04
280 -2.3060031544139739e-04 4.5724729198805443e-04 -8.5649274443664388e-04
281 -1.5142471158675094e-04 5.6491675274734606e-04 -8.0938849448562234e-04
282 8.6496480401302529e-04 5.0329178454315148e-04 2.9667925289210932e-05
283 1.1469873824288744e-04 -4.6593590175548089e-04 8.7598941120984003e-04
284 -9.8973433150525178e-04 5.4399347957868660e-05 1.3124596452632716e-04
285 -9.1227769994142857e-04 -4.0426336200267044e-04 -7.1681876595060300e-05
286 -8.5060456842592171e-04 -5.2609176443835280e-04 -2.6902471048305119e-05
287 -8.3621089572982277e-04 -5.3849945490728091e-04 1.0945959338984374e-04
288 -7.7168148910869547e-04 -6.3651998371801199e-04 2.0682573236278872e-05
289 -7.4545830941497341e-04 -6.4843975647703965e-04 1.5869403092724343e-04
290 -6.8132022949221214e-04 -7.2927740868523308e-04 7.1293583201282375e-05
291 -1.9454175198104252e-04 -9.6857996476339657e-04 -1.6210026518228765e-04
292 -2.7289461604902769e-04 -8.9017653690192668e-04 3.6877032408529824e-04
293 -3.2596694483013765e-04 -5.4967182304201004e-04 -7.6912980870493246e-04
294 -1.0673055680333047e-04 -4.6051966205890840e-04 -8.8001279145911635e-04
295 -4.8423865845916464e-04 2.8551922736746516e-04 8.2563880270859237e-04
296 -5.5043477467802077e-04 3.8962737627824698e-04 7.3801237674057159e-04
297 -8.6751370195658031e-04 4.5192796605213030e-04 -2.0856155134872233e-04
298 -6.0680069039961411e-04 2.7100213190080024e-04 7.4681691683546353e-04
299 -6.7120313555415654e-04 3.6674637369557816e-04 6.4463535088514761e-04
300 -6.0507997155461455e-04 4.9439245538832510e-04 6.2464496556780230e-04
301 -7.1083033637403894e-04 4.6485363028278505e-04 5.2892906441168056e-04
302 -7.7412149123332096e-04 3.3594901723634613e-04 5.3742710697729523e-04
303 -3.0031986232712112e-04 -6.6076817255989579e-04 6.8890670139407138e-04
304 -6.3159410998175252e-04 5.9461774186478854e-04 4.9889939048203811e-04
305 -8.0965616052653918e-04 4.1816583145766386e-04 4.1322743953986865e-04
306 2.2364146844269293e-04 -5.4336895914668885e-04 8.0889791033485778e-04
307 2.4532174419766942e-04 -4.1331161082027357e-04 8.7559601151655374e-04
308 3.4931862766101522e-04 -4.8741745239613870e-04 8.0018977853734199e-04
309 -4.5712482406017041e-04 -7.3197597608565387e-04 5.0694566454330631e-04
310 -8.5833783913328622e-04 2.8824542157526083e-04 4.2574364280193621e-04
311 -3.9776571547694566e-04 -8.6672487758297323e-04 3.0509617415310490e-04
312 -7.6585735454457143e-04 6.3700127214259860e-04 8.2939189954653325e-05
313 -8.4835186712432418e-04 -5.0688507289334142e-04 -1.5666977566062879e-04
314 -7.6786047843400905e-05 9.6271437046681845e-05 9.8916012430163756e-04
315 -8.8596621164263806e-04 3.5572362300527168e-04 2.9982645965359226e-04
316 -9.7775659736419563e-04 1.8989561158900384e-04 8.7234053170271475e-05
317 -1.0731768909623712e-04 7.6174285702715436e-04 -6.3837449296363599e-04
318 2.6015037437535858e-04 -3.7335534901452433e-04 -8.8878084505183053e-04
319 -6.9542464139472524e-04 -7.1679929179640513e-04 -6.1344758099628782e-05
320 -6.0101787675995589e-04 -7.9951311575587782e-04 -3.6060587471149712e-06
321 -6.6112695067048911e-04 -4.0167376417252573e-04 -6.3458586381148676e-04
322 -7.9718168151573162e-05 -1.9696220118116070e-04 -9.7380442114271520e-04
323 5.0786483878864240e-04 -8.5954149616578805e-04 7.3655771567586960e-05
324 -6.1973912996645720e-04 7.7845510404625680e-04 -9.4762697391251706e-05
325 2.8146893691321460e-04 5.3931340452510409e-04 7.9251154891876903e-04
326 2.8825374330537236e-04 -6.3460391943103973e-04 -7.1776867640999228e-04
327 1.5763203574764882e-04 -5.9355437641952569e-04 -7.8906874990560113e-04
328 4.1480477524870411e-04 5.3905948132070762e-04 7.3271962985047424e-04
329 4.7930494485956722e-04 4.2055466938094077e-04 7.6965545552395824e-04
330 4.5196667507079315e-04 4.3743299514107428e-04 -7.7590812045820424e-04
331 -3.9266448741322989e-07 9.8569064402633530e-04 1.6769781916889961e-04
332 -2.4416887535027251e-05 9.9860295384252007e-04 3.5728964471244278e-05
333 -1.5220364274714268e-04 9.8778158391172222e-04 -7.3804812925209729e-07
334 1.1832920184191071e-04 9.8975540503169605e-04 7.6434915078844249e-05
335 3.5960172373251042e-04 -3.5432773185234992e-04 8.6210532907880029e-04
336 4.6013437950827410e-04 -4.2596179595564328e-04 7.7888481764799551e-04
337 -8.1413156914843265e-04 2.0577800552105591e-04 5.4364769343726591e-04
338 -3.5334502675118295e-04 5.0845563773823385e-04 7.8386514002529292e-04
339 -9.7006025249331054e-05 4.5290601071575564e-04 -8.8342199991699806e-04
340 3.5419210866840167e-04 -2.9990728674518454e-04 -8.8403266465466820e-04
341 3.5630351429126715e-05 -2.5660198707640116e-04 -9.6280082054215461e-04
342 -9.3116794607207647e-04 3.5373956594397072e-04 -9.6518790745889340e-05
343 1.7117916192916204e-05 -3.5861436503861435e-04 9.3114583383872157e-04
344 -5.2379630445240880e-04 6.1190840836171270e-04 5.9336433625362648e-04
345 -5.3263333492408870e-04 7.1599865993973472e-04 4.5454663484555591e-04
346 -6.5561758375206225e-04 6.6099448714647586e-04 3.6631098461924275e-04
347 5.9935031667708019e-04 -3.6285395001850023e-04 -7.1449744069032031e-04
348 7.1702547937847457e-04 -3.7551904543385166e-04 -5.8964130071965503e-04
349 5.3306450301277898e-04 5.1721577006025733e-04 6.6992290249767445e-04
350 6.0265505835936835e-04 3.9536538879647370e-04 6.9349798714874367e-04
351 6.4987981420894453e-04 4.9105745324608664e-04 5.8153052060533708e-04
352 7.1800794329282742e-04 3.5195969938143649e-04 6.0205460217041919e-04
353 7.5234258362817316e-04 4.4860745123775469e-04 4.8498493837569902e-04
354 -6.4777222138079230e-04 -7.3506354643926687e-04 2.0369888414555342e-04
355 2.5223638877032017e-04 5.4800724310036318e-04 -7.9569562795259543e-04
356 1.2721211316303361e-04 5.5984527088112179e-04 -8.1689155125504512e-04
357 -6.7602556562107419e-04 3.2133882910984475e-04 -6.6224051159799674e-04
358 5.2563068509401995e-04 -8.3631974983116827e-04 -1.6250696662668712e-04
359 4.5755516408397276e-04 -8.4535266710270127e-04 -2.8013250320881695e-04
360 -8.2594505666851213e-04 4.8528997884809277e-04 2.8800245923370931e-04
361 -1.2510144432733159e-04 -5.2448423039866778e-04 8.4115628687193584e-04
362 -1.6955504099629777e-04 3.3616613655821514e-04 -9.2318097796462411e-04
363 -2.1502145067360106e-04 5.1416519823688049e-04 8.2832344326761701e-04
364 -5.1783586577522323e-04 8.3683118004612385e-04 -1.7605683090076370e-04
365 1.5541285927139480e-04 5.4121453105784899e-04 8.2485817916204396e-04
366 -3.4628053836672107e-04 -2.7552618731465094e-05 9.3495190485382116e-04
367 -7.1015530129284578e-04 -6.4176531204481575e-04 2.9284009303938067e-04
368 2.0871944698965368e-04 6.5420768729817624e-04 7.2757007918840722e-04
369 8.7774886799620014e-05 6.3207017484295347e-04 7.6786359386040847e-04
370 6.9119538838940280e-04 -2.5560935715559699e-04 -6.7731881991325025e-04
371 -5.3471949364410347e-04 1.6413159121455464e-04 8.2762196389953306e-04
372 -6.6074100571292618e-04 1.3181577423153850e-04 7.3933127943858997e-04
373 5.5937395625159651e-04 8.2703993871388289e-04 -5.3893580494943252e-05
374 -1.2710812603929661e-04 -8.2508243185897665e-05 9.8521550295855979e-04
375 -5.8635049368987580e-05 -1.6747633123770052e-04 9.8081797834138830e-04
376 -3.0163860455820814e-04 -9.2550264584090965e-04 2.3418474146277653e-04
377 -4.3435591848406375e-04 -8.8743624444773714e-04 1.6384074929255691e-04
378 -9.2626103321373856e-04 2.0173259602123802e-04 3.2224574326454131e-04
379 4.1884811077682894e-04 6.5132609429171596e-04 -6.3392418964905147e-04
380 1.6292314231730850e-04 -7.1120845629803501e-04 -6.8469808724524496e-04
381 2.8077304663800504e-04 -7.4091460440724036e-04 -6.1157647727961997e-04
382 -9.0304553999773186e-04 -3.8026103461696279e-04 -2.0227523674796273e-04
383 -8.3474199275825598e-04 -4.7114189048634878e-04 -2.8733684002148246e-04
384 -7.7375630394582978e-04 -5.8274260494672132e-04 -2.5170771119598318e-04
385 -1.7157660934539088e-04 -9.4091335496595662e-04 2.9636965650621717e-04
386 -6.6221799462153790e-04 5.2933787983847026e-04 -5.3066632275955189e-04
387 -7.6359536055489469e-04 4.7207263774114481e-04 -4.4109475751566999e-04
388 8.7800665636044958e-04 2.5241481122738725e-04 -4.0959887111951610e-04
389 -9.1158808439621708e-04 3.3033820183739609e-04 -2.4491449179806434e-04
390 -5.1161099182078893e-04 8.5769944172808430e-04 -3.9283578826455269e-05
391 -4.0224737237431763e-04 9.0823993476906503e-04 -1.1143360025056180e-04
392 -6.0677582878350064e-04 7.9335046097822842e-04 3.2182000374702959e-05
393 -5.9507934592829337e-04 -7.9447531744669285e-04 -1.2631792231151853e-04
394 -5.0318594487338544e-04 -8.6233003701077435e-04 -6.1168320178486854e-05
395 8.4132762141776732e-05 9.9448715712733920e-04 -5.3746294034826648e-05
396 2.1875883407402084e-04 9.7531335421888166e-04 -1.3845628930888965e-05
397 5.2249755291763672e-04 3.2692352589376198e-04 -7.8656905363179799e-04
398 2.4330247443268699e-04 -2.9175558178917986e-04 9.2270225879289083e-04
399 3.6303299748606033e-04 -2.3080987358652490e-04 9.0136927155844095e-04
400 -2.7112221226019569e-04 6.1583004162032323e-04 7.3847845382545344e-04
401 -1.5798418835941564e-04 6.1103875880608779e-04 7.7337689452055733e-04
402 3.1310195373183665e-04 -6.1069670610697712e-04 7.2796929849818664e-04
403 6.4592995841604699e-04 2.7046328575300478e-04 7.1407964548256698e-04
404 6.6600888437692049e-04 5.9943395862921346e-04 4.4824234649136360e-04
405 -3.1341785399913966e-04 -9.4508388284873476e-04 1.0033299142621917e-04
406 2.4820598764971775e-04 -2.6627927961434889e-04 -9.2867022799492593e-04
407 3.4913024906126175e-04 -1.9629389923770391e-04 -9.1386152485631355e-04
408 8.9779460622765606e-05 4.5485257032486985e-04 -8.8319667795069574e-04
409 -8.8948966977464789e-04 4.3216098574872571e-04 1.5511260145459747e-04
410 -4.5290460551180445e-04 8.1596878786472456e-04 3.6009502130272201e-04
411 5.4844392628775680e-04 4.3133869288028269e-04 -7.1469383325850090e-04
412 4.5914882486095882e-04 6.4459064912536111e-04 6.1330167907522055e-04
413 8.0966159331989510e-04 3.1182083892790000e-04 5.0008980303901972e-04
414 8.3848414791789941e-04 3.9279891695439406e-04 3.8032835691026912e-04
415 3.5874975571021193e-05 -1.4522608652977036e-04 -9.8514264638378227e-04
416 -9.7639448487662150e-04 2.1224247535661192e-04 -4.1621781865421805e-05
417 -6.5469005807043343e-05 3.3275333210548046e-04 -9.3711357248135339e-04
418 -1.2577334461412302e-04 2.3026213752382990e-04 -9.6124770373832080e-04
419 3.4725282139086661e-05 1.6479961659709511e-04 -9.8123432511912486e-04
420 -5.7239636019471443e-05 -6.9772738663039367e-05 -9.9218528188878058e-04
421 -9.4473197585901141e-04 3.2409273455734274e-04 5.0699103594649193e-05
422 8.0204810352322881e-04 -2.5708373881235143e-04 -5.4191769646331101e-04
423 8.1228004138470553e-04 -3.7504679681399448e-04 -4.5043008297303158e-04
424 2.5182721463014763e-04 9.6131794376775616e-04 1.1089449167416461e-04
425 2.7452050249985431e-05 -6.7778246415789640e-04 -7.3604274789146492e-04
426 3.1323802819845933e-05 -5.3900017350473367e-04 -8.4089336491775378e-04
427 -7.7211628532626326e-05 -5.8713016145115729e-04 -8.0438833725187775e-04
428 4.0985162450359335e-04 -8.9767240169891910e-04 -1.6649436541485134e-04
429 3.1920149532105183e-04 -9.0901637903750972e-04 -2.7199109131876550e-04
430 3.6394473923149801e-04 -8.4708027582154144e-04 -3.9086227100245150e-04
431 -6.0952459600854293e-04 -7.2167352008959936e-04 3.3053069222557173e-04
432 -6.4877999618660688e-04 -6.2422212471204919e-04 4.3893479443367340e-04
433 1.3276162033023972e-04 -3.3211790385355021e-04 -9.3125566337204217e-04
434 -2.7242083095729315e-06 5.4990269504856938e-04 -8.3395851196258408e-04
435 7.1745542598532699e-05 6.6191992416465698e-04 -7.4529259190005538e-04
436 8.8422381303801696e-04 2.6693183295957510e-04 3.8637370258955969e-04
437 9.0384875483001355e-04 3.4141883905651059e-04 2.6072035379606095e-04
438 8.5463477429858548e-04 4.5273797296545022e-04 2.5574787235847210e-04
439 7.5428820459015882e-04 2.1215455367196349e-04 6.2316342009894406e-04
440 -5.7807019224723319e-04 7.5816934837387993e-04 3.0327812763449843e-04
441 -6.9763853048933051e-04 6.8515165274594004e-04 2.1295336971536294e-04
442 6.7634927098249114e-04 -1.1488387316768451e-04 7.2845289469973431e-04
443 7.2661934255022350e-04 -2.3902017757387493e-04 6.4610062742736672e-04
444 8.1384390249999799e-04 -2.4155463726250521e-04 5.3162036371126251e-04
445 7.4388530314350662e-04 -3.5996329190353556e-04 5.6573775830580982e-04
446 8.2474173604551548e-04 -3.5799901344604057e-04 4.4173111499191779e-04
447 7.4259888650618586e-04 -4.7755635578008201e-04 4.7287460460386754e-04
448 6.5776192523339866e-04 -4.7540700637828111e-04 5.8637067347309046e-04
449 8.0773078630226309e-04 -4.8317288116768832e-04 3.4270451275024921e-04
450 8.8264779724456764e-04 -3.5945888284412176e-04 3.0788835092624252e-04
451 6.4526049765226557e-04 -5.9179935918623528e-04 4.8766747103693331e-04
452 6.6743724490699692e-04 1.3417121686504690e-04 7.3360009354064414e-04
453 -5.6244928175564510e-04 -8.1785425652146089e-04 1.2652612467460120e-04
454 2.3006759217395620e-05 -4.0119785088986454e-04 -9.1362996706542611e-04
455 9.0590132095800418e-04 4.0419252162539663e-04 1.2980752753535837e-04
456 4.5466989863461832e-04 -2.1197598183486793e-04 -8.6361869285139596e-04
457 4.9976328295431196e-04 5.2715848054874176e-04 -6.8678275193587613e-04
458 6.1003921426222194e-04 -2.3524069205303435e-04 7.5774794731104538e-04
459 1.4267502777760887e-04 9.6884310329781599e-04 2.0282485141199320e-04
460 6.2424668764286839e-04 7.0345234600739171e-04 3.4182037432786683e-04
461 3.8222842944172618e-04 5.4273757158882071e-04 -7.4674977545211268e-04
462 -4.2086654071427023e-04 7.0433242719265777e-04 5.7182361207225275e-04
463 7.6927997673346146e-04 -1.3047487324900896e-04 -6.2728767745696132e-04
464 8.8142592107249434e-04 -2.5526805414896760e-04 -4.0139394870077142e-04
465 8.7750395559077260e-04 -3.6735352260019441e-04 -3.1299877737250793e-04
466 4.8518749878796489e-06 8.2474299897999253e-04 -5.6568852454531025e-04
467 9.3201492691054137e-04 -2.4758146036950557e-04 -2.6913792768723006e-04
468 9.1937968069212409e-04 -3.5808554346908436e-04 -1.7143340756396852e-04
469 1.3920301523129763e-04 3.4735902559149793e-04 -9.2412043743742424e-04
470 8.5411533250071947e-04 -4.7692400987098163e-04 2.1447281427838317e-04
471 9.1906192656264192e-04 -3.5243323015573511e-04 1.8237414208956441e-04
472 1.9703531296708305e-04 7.7433134633825491e-04 6.0212364502141571e-04
473 1.4642801260494965e-04 -2.0281093967485333e-04 -9.6491428401278582e-04
474 2.2930688252753684e-04 -9.0000573892529275e-04 -3.7456744299290171e-04
475 5.6447759421336891e-04 7.7481118584677496e-04 -2.8553671649490309e-04
476 3.2214183222015799e-04 7.1523004796703244e-04 6.2056084840406156e-04
477 2.8354894006337572e-04 7.2040254162902470e-04 -6.3321048328955707e-04
478 -1.8954640377135578e-04 -5.5305504304323184e-04 -8.0945599680529471e-04
479 -1.7391976578173379e-04 -6.6628159892217662e-04 -7.2524726260911191e-04
480 -3.9441661003985747e-04 8.3400654882357836e-04 -3.8637477813020565e-04
481 1.8936972361964443e-04 6.5423109069906156e-04 -7.3131766021720848e-04
482 7.6252061170024703e-04 -6.0306097247507181e-04 2.4443854926320077e-04
483 8.9132136367990492e-04 -4.4661997034464100e-04 8.8978357608827005e-05
484 9.4057309559834271e-04 -3.3583464241299408e-04 6.0616536343352025e-05
485 5.7117786835354334e-04 -2.3919539943929877e-04 -7.8505389855814582e-04
486 3.8350935168460112e-04 1.5879595959372763e-04 -9.0672346025189260e-04
487 9.9028236216321206e-04 1.3043577137669259e-04 -6.2912504404327195e-05
488 9.5489676614500703e-04 2.7709636171188907e-04 -1.1995299777125942e-04
489 9.7176439814741441e-04 2.3529006992751287e-04 6.6525050233160419e-06
490 9.0176581799513887e-04 4.2295032882693666e-04 -9.5358931534543205e-05
491 3.5101334690483310e-04 9.3620129196802897e-04 1.0536346614272815e-05
492 2.9958201941975249e-04 9.4568732489221389e-04 -1.2909125049668683e-04
493 4.3381875841854350e-04 8.9719386855458775e-04 -7.9832330733828417e-05
494 9.1485683400962592e-04 -4.0391885402974673e-04 -3.4392250183959092e-05
495 9.5901815053747990e-04 -2.7945031245328622e-04 -5.7887517292375571e-05
496 -3.9049030592731561e-04 9.1978601108171337e-04 2.2803222068515417e-05
497 9.9022890261107389e-04 1.2260922953111382e-04 7.6609966361818201e-05
498 6.7775324949658877e-04 6.8430112265482706e-04 -2.7084040520821708e-04
499 9.8998823211041533e-04 -1.3646466097458205e-04 -6.4114862231818025e-05
500 9.7246450866719997e-04 -1.1196340089522422e-04 2.0962653323744224e-04
501 9.3261879763359434e-04 -1.2825106450624395e-04 -3.4165168124746257e-04
502 8.6171960406863392e-04 1.2933597709317775e-04 -4.9339070843977333e-04
503 8.6811449660696433e-04 -1.2473085802295106e-04 4.8400365085173578e-04
504 4.3069457133937638e-04 1.0359093063974874e-04 8.9458347212537949e-04
505 4.1374613939624730e-04 3.2542278621614852e-04 8.4867304678152254e-04
506 6.5267699885093516e-04 -3.5870783127966538e-04 6.6857064658498993e-04
507 3.0050387150956360e-04 -9.6849699961875754e-05 9.4617909783616724e-04
508 5.5346901424943954e-05 -1.1006772379192918e-04 9.8943864616024752e-04
509 1.5740484297103278e-04 -2.0535233084339457e-04 9.6301489340819301e-04
510 2.5061762768897921e-04 -1.7378799163728450e-04 9.4890268432734875e-04
511 -1.9926256009574584e-04 6.6967128205518405e-04 -7.1453132235424618e-04
512 2.7591230785578336e-04 9.2761921471269605e-04 2.5297318531222984e-04
513 5.7653787637965462e-04 -8.1743148186237148e-04 -3.9562564102079818e-05
514 2.6231803002701233e-04 -9.6523885230049937e-04 3.4614261373933697e-05
515 2.9999682091073351e-04 -9.4138316521849791e-04 1.6151646637377462e-04
516 -5.5117124134954510e-04 5.6434539408319550e-04 -6.1446389939988767e-04
517 7.7907305138241875e-04 -5.7767921583224574e-04 -2.4872311580835673e-04
518 -1.4702369997644592e-04 -9.8906148952400646e-04 -4.0255116698653501e-05
519 -2.9563175826298471e-04 -9.5553702949635990e-04 -4.6224018371980576e-05
520 -3.3560570082235961e-04 -9.2533587087991278e-04 -1.8216442399960749e-04
521 -7.9224799376846969e-04 5.2601957272153032e-04 -3.0987834902640118e-04
522 -9.8849201036406539e-04 9.0035212058491563e-05 -1.2131831502863555e-04
523 7.8746985985460153e-04 6.0530613805553316e-04 1.1706108122501273e-04
524 -8.0129910153540075e-04 -5.4894896421160959e-04 2.4123022755374532e-04
525 7.7519350130251911e-04 5.1983999886141743e-04 3.6078670737227890e-04
526 4.9131050796894600e-04 -7.7492325559488386e-04 -4.0130711337045105e-04
527 -9.5384952617224932e-04 -2.7715247145292685e-04 -1.1847318574556041e-04
528 -9.4257699228613258e-04 -7.2857138514526926e-05 3.2838581966469999e-04
529 -9.1675534875907099e-04 5.3234235389923942e-05 3.9803034341636068e-04
530 -8.4395589956187266e-04 5.7523629777222774e-05 5.3585434172709388e-04
531 -7.7939558113564742e-04 -6.1691731412443949e-04 -1.1546230304292120e-04
532 -9.8033721363178302e-04 -6.9302054466032902e-05 1.8661242819395540e-04
533 -7.3864604548212938e-04 5.4186878386679410e-04 4.0189507050601480e-04
534 -7.0386890492702390e-04 7.0934028333732673e-04 -1.1716981709841910e-05
535 -2.3777998075488733e-04 -9.2804867470712633e-04 -2.9135528586243922e-04
536 6.2868047809982075e-04 7.6091416080874513e-04 -1.6119396807922284e-04
537 -1.3626518459128586e-04 -8.9538227891192905e-04 4.2770027508569537e-04
538 -4.2080425186756507e-05 9.9472135235995985e-04 -8.7234673122494306e-05
539 -1.7634566764970349e-04 9.5246345649295278e-04 -2.4662097637544525e-04
540 6.2556099032445251e-05 9.7809325839648214e-04 -2.0036887236168867e-04
541 -9.3981083111385256e-04 2.8607181554105542e-04 1.8815751157331682e-04
542 -8.8085484781053058e-04 -4.2950488513624326e-04 2.0272909561813956e-04
543 -8.0354974983956183e-04 -8.4576653222734718e-05 5.9058583148647789e-04
544 -7.4961057130413719e-04 3.9875810974404730e-05 6.6084213670461857e-04
545 -6.5668557460512797e-04 -5.2728800390697153e-04 -5.4118124668388866e-04
546 -7.4815903073318691e-04 -4.2728032727348781e-04 -5.0916567346108248e-04
547 -7.5251045518181397e-04 -3.0671580452878690e-04 -5.8388483898816725e-04
548 -6.5348784936369517e-04 -2.7697213644454919e-04 -7.0455445852747318e-04
549 2.6437189234977156e-04 -8.1476387716193123e-04 5.1904994310194913e-04
550 5.6992790289314308e-04 6.0336271074522296e-04 5.5773959168149809e-04
551 8.7263790571208508e-04 3.6558018473795888e-04 -3.2624885337863318e-04
552 8.8575530654679468e-04 -2.4215685192353615e-04 4.0023743377385528e-04
553 1.5721024014480212e-04 -7.7365232031838163e-04 6.1596830271767194e-04
554 -4.4322314617295186e-04 -6.4638934226623037e-04 6.2351160995304140e-04
555 -3.8082658372145904e-04 -5.6273021350001736e-04 7.3369771666717987e-04
556 -8.3546400709519700e-04 -4.3880358389199772e-04 3.3377533365534768e-04
557 -6.0488032410045776e-04 -7.2721504800653302e-04 -3.2686046396531219e-04
558 -7.2077398754348565e-04 2.5096629345619520e-04 6.4648075921234073e-04
559 -6.7758482858801250e-04 -4.5026486161942617e-04 5.8297132105062375e-04
560 -5.8024068514049923e-04 -5.6730544865065465e-04 5.8725581990297241e-04
561 6.3155748242851915e-04 4.7929686274764550e-04 -6.1121358936885774e-04
562 -3.2300698617359019e-04 -6.7819319509431202e-04 -6.6154641284664646e-04
563 -4.8248100343641607e-04 5.1002476717043588e-04 7.1169320489440310e-04
564 7.2772239132987170e-04 -4.8605394357570728e-04 -4.8727555091429369e-04
565 -6.4259452443027009e-05 -2.7675199776929415e-04 9.5602808891829259e-04
566 -1.0331054061716426e-04 -3.9975529194627663e-04 9.0870851581521664e-04
567 -1.9882239100056699e-04 -3.0707204247656689e-04 9.2830166507253651e-04
568 -1.6394661368567421e-04 -6.4291001979480187e-04 7.4859370168655042e-04
569 4.0440821839339412e-04 -6.6104335792701880e-04 -6.3374963377708514e-04
570 -7.0330876916924667e-04 -1.0050227241456518e-04 7.0356449251178868e-04
571 5.3314798837204326e-04 3.0611129376783316e-04 7.8777298729209276e-04
572 4.7680014692755822e-04 -3.3274717983337382e-04 -8.1317616706676481e-04
573 1.2542037237072242e-04 -3.4078368480697902e-04 9.2947530342438417e-04
574 -7.4185821078353263e-04 1.9901960878624479e-04 -6.4014433189972162e-04
575 1.4945176486435522e-04 -4.6770421943434070e-04 -8.6976109194645233e-04
576 -4.4791549914553568e-04 -4.3205857873301570e-04 7.8320681675504787e-04
577 -3.0541517166924730e-04 3.4596803076929189e-04 -8.8441872865018401e-04
578 -2.3721718096620848e-04 2.3118653778661519e-04 -9.4006902451826142e-04
579 -3.0296648662774645e-04 1.2988284714624679e-04 -9.4049894544241002e-04
580 -4.8300482774847798e-04 1.5714184390077628e-05 -8.7305207066720909e-04
581 4.5439874948754669e-04 -5.6207676571724233e-04 6.9335902721896932e-04
582 4.7945640196659246e-04 -2.9586987106397332e-04 8.2535423862645479e-04
583 -4.3683964895361324e-04 1.4031694776793572e-04 -8.8573626992528929e-04
584 -4.0584578676858453e-04 1.8226493330110878e-04 8.9332882019250645e-04
585 -4.3971910108927506e-04 7.0561480517706616e-05 8.9310952064241243e-04
586 -3.3412660337182892e-04 -4.0945485751207579e-04 -8.4729628289340433e-04
587 2.6442607884813055e-05 9.5381050369832440e-04 3.0000665965646868e-04
588 -3.8449379062779698e-04 -8.3677172531501325e-05 -9.1648803601346209e-04
589 -2.4776946072926334e-04 -6.1214555115850992e-05 -9.6340249447416531e-04
590 -1.7729800543641534e-04 -1.1167176619396598e-04 -9.7442627305369546e-04
591 -1.4984679035760998e-04 4.1254576493990461e-04 8.9601791740276490e-04
592 -5.1992048153539120e-04 7.9455399905618319e-04 -3.1393002831616042e-04
593 -2.2670580628398148e-04 2.0813659205159821e-06 9.7054144751798133e-04
594 3.6072079883223357e-04 2.1857927542855691e-04 9.0449722960056619e-04
595 -8.0808076060514948e-04 5.6469200977744426e-04 1.6830517705628708e-04
596 4.2546655389793478e-04 -8.8721116096779069e-04 1.8523035145469259e-04
597 9.4148649198902122e-05 4.3231857026520746e-04 8.9450544553643368e-04
598 3.2527657755614966e-04 9.0563386768143656e-04 -2.7217748631869687e-04
599 1.8426127002756665e-04 -6.6362437391278444e-04 7.2584437413496803e-04
600 -5.2887093221665020e-04 -8.1242021950598251e-04 2.4956124111247957e-04
601 -8.4714456563700249e-04 4.0781528211648546e-04 -3.4128255366189367e-04
602 -8.1549374435399395e-04 3.4626344300085960e-04 -4.6420732123635616e-04
603 -7.4131836038039581e-04 -5.3961694920071307e-04 -4.0323956300845128e-04
604 -9.1188204807658691e-04 1.4814211506490078e-04 -3.8370525525381632e-04
605 -4.0850713639363305e-04 -9.1292581780849440e-04 2.3784231456359732e-05
606 -3.1498138665406623e-04 8.5216473527685230e-04 4.1845670916913102e-04
607 4.3799240523342649e-05 1.4453456676734330e-04 9.8448881564368925e-04
608 -4.6186828447866204e-05 7.6958884300944055e-04 6.3702149305336960e-04
609 -7.4581842281708406e-04 -1.7377109811725092e-04 -6.4366940072847377e-04
610 9.5691664442214578e-04 2.5918563076849814e-04 1.4107856154573449e-04
611 4.3598341759088427e-04 -8.0682609599102843e-05 -8.9450096035325070e-04
612 9.2634178892838498e-04 1.2460014829846725e-04 3.5903485577987588e-04
613 -3.7584312690470707e-04 -8.7627725041763570e-04 -3.0575321386222169e-04
614 4.7850970023004233e-05 -7.9276734274708310e-04 -6.0971303277710688e-04
615 4.6631848189833728e-04 -8.8422175376215429e-04 -4.9799643237946179e-05
616 -6.8420752052952838e-04 -7.0273617243563720e-04 -2.0179612255041463e-04
617 -9.3579612228364558e-04 -2.5041995968129151e-04 -2.5016816064724480e-04
618 -6.1763387269015194e-04 4.4886795044630508e-04 -6.4528569158232526e-04
619 1.9096468237052568e-04 -9.5507458583696475e-04 -2.3436289442675985e-04
620 -3.3373983063852213e-05 -9.4268507332612454e-04 3.3648971294916220e-04
621 3.9017189059628430e-04 -7.6426927020175489e-04 -5.1616058816668570e-04
622 -2.2720070706050159e-04 -4.3598141576002997e-04 8.6904201110265384e-04
623 8.0558343484945485e-04 -4.8035857900868633e-04 -3.5120404614773606e-04
624 9.3009498416598397e-04 1.2995154477542700e-04 -3.4753796252745485e-04
625 -4.0359946699947933e-04 6.0840958034143915e-04 6.8267951196677610e-04
626 -2.5063795149579492e-04 -5.5774834722349155e-04 7.9061324813766072e-04
627 -9.3132860873456223e-05 5.2980522468008633e-04 8.4104444230168323e-04
628 4.7436918226195611e-04 8.7893042878955496e-04 4.8841909372622155e-05
629 -9.6211049955450677e-04 5.6063008104028660e-05 2.6820964896128141e-04
630 -5.9600452115348736e-04 7.8514871594888476e-04 1.6645069199192167e-04
631 -8.3289739239957722e-04 -1.9506838069071087e-04 -5.1931008012443762e-04
632 -4.0877897317034465e-04 8.7739049406587808e-04 -2.5060176928526752e-04
633 9.3006110774871461e-04 2.5040934496250934e-04 -2.7234195222233039e-04
634 -3.1051520262606516e-04 8.6048893796376185e-05 9.4363029544532022e-04
635 3.8985016424578485e-04 -9.1987004933756305e-04 6.1170224410932408e-05
636 -6.6834466578504962e-05 -9.7697090886486810e-04 2.0784421071314520e-04
637 -4.7227762996852819e-04 -6.1281663375411296e-05 8.7734049110359301e-04
638 4.3207052184018055e-04 2.4416679131361899e-04 -8.6511418860382835e-04
639 4.3497341733339967e-04 -1.1126781752000570e-04 8.9169457257308265e-04
640 -6.9338872490276119e-05 6.5925102567438983e-04 -7.4745370671853875e-04
641 -9.6087290668091241e-04 2.2478664297449804e-04 -1.6124922621625561e-04
642 -8.8177284143731312e-04 2.8206376952156148e-04 -3.7873186107987054e-04
643 2.8331443184522511e-04 -7.2299339942670786e-04 6.3173924783986514e-04
644 5.6183321782282496e-04 -4.6218960538242762e-04 6.8683927949578130e-04
645 6.0022417057761812e-04 2.2615969525033352e-04 -7.6641938786921305e-04
646 -2.0365497462261861e-04 1.1379753490753598e-04 9.6881989291075542e-04
647 2.7304508863884466e-05 5.3541392722046294e-04 8.4234321979050129e-04
648 -7.4887374457642704e-04 5.9364704076059736e-04 2.9216812751872202e-04
649 -2.6558123687792925e-04 9.6076635039574513e-04 7.4621479142504253e-05
650 9.3518388150462008e-04 -2.3827076079844847e-04 2.6705497360722129e-04
651 -4.7219573067035865e-04 -8.6097778668189136e-04 -1.9642112828873866e-04
652 -8.7833741423774890e-04 -3.4437918877398669e-04 -3.3304036846265855e-04
653 -1.8624350682019763e-04 1.2119478384588515e-04 -9.7111360112478592e-04
654 8.5561403019879104e-04 -4.7079912535809949e-04 -2.1995454911664206e-04
655 -7.2262301270834776e-04 4.1232989413693112e-04 -5.5462993627773878e-04
656 6.5605342348236948e-04 -1.2477692142618592e-04 -7.4459230348986017e-04
657 -7.5361289792601779e-04 -5.4274498932866603e-04 3.7314830525100819e-04
658 -3.4926445203497847e-04 2.8578354850880122e-05 -9.3323800715421925e-04
659 -1.5920066539616064e-04 1.2479121072954935e-05 -9.8368909447896420e-04
660 -4.3462641349550906e-05 -2.3928478730051378e-06 -9.9454263557747949e-04
661 8.5650556218360015e-04 -5.1741634921240816e-04 -5.2793289635957934e-06
662 4.8778801301856546e-05 -2.4842872497884033e-04 9.6454298353267672e-04
663 5.1104389752751301e-04 8.4100327274319099e-04 -1.7617098739956507e-04
664 -2.7763313565151953e-04 9.5892159753164033e-04 -4.7358461678178180e-05
665 -2.9563734126617750e-04 9.3683514504463690e-04 -1.8459023916185752e-04
666 -7.2609241330438769e-05 1.2500236966261663e-04 -9.8596778904133436e-04
667 2.5871061230241265e-04 -8.3137928213703643e-04 -4.9448308377216888e-04
668 -5.6196288752504147e-04 4.1267795166735919e-05 8.2464601568026346e-04
669 -8.2894705365067496e-04 -3.1786682492139349e-04 -4.6149007388020989e-04
670 -4.9401889804177748e-04 8.6412343887484408e-04 9.1394978709347750e-05
671 -9.6571683919433493e-04 1.5908544020673592e-04 2.0149964341500696e-04
672 5.5443221183920372e-04 -3.5770504589058093e-04 7.5043107466786854e-04
673 -1.5803420986540215e-05 2.3978446936326841e-04 -9.6683940023318691e-04
674 -2.0031555537167956e-04 -9.6542136555728480e-04 1.7134804233287886e-04
675 4.1291542785721128e-04 7.3968327089701238e-04 5.3092298942909819e-04
676 7.3013330290520114e-05 7.2670707191099966e-04 6.8297073250755383e-04
677 4.7736387494807917e-04 2.0766032293688841e-04 8.5209966538972481e-04
678 -4.9394585524127025e-04 -7.8662624492947450e-04 3.7281045633562343e-04
679 2.9095807071784777e-04 -7.1623905331678591e-05 -9.5120933152362112e-04
680 3.9058881264024067e-04 -6.6597050278909453e-04 6.3600141904096889e-04
681 -8.7883758943699112e-04 1.5620478652357059e-04 4.5039469266967104e-04
682 -9.0269238373708038e-04 4.2801750440771698e-04 1.6850881069198783e-05
683 -6.9044791985156491e-05 7.5091480352304672e-06 9.9317292052207898e-04
684 3.4951394564243418e-04 -9.3591570139670162e-04 -5.6479736124767342e-05
685 4.0923161664853570e-04 8.9255138653085994e-04 -1.8418184363856339e-04
686 1.6735520271611882e-04 -7.9821600254859494e-04 -5.7898990996849728e-04
687 1.7655167541031708e-04 9.7440153784123060e-04 -1.3125546914234215e-04
688 -8.1248414497201934e-04 -4.2281730215616053e-04 -4.0096784952431554e-04
689 -5.4402971983442093e-04 -6.4994783290964696e-04 5.3085679712261175e-04
690 5.8147582435472199e-04 -6.9166415059843589e-04 4.3000257613031248e-04
691 9.6362975355941975e-04 -2.2711691259723552e-04 1.4608752792437336e-04
692 -6.9245416412185695e-04 -5.3088180490382737e-04 4.8911274845619241e-04
693 9.3490340217654581e-04 2.2394713816957417e-04 2.7556742484444066e-04
694 -1.7466750134962508e-04 9.7711746538966951e-04 -1.1516167705807889e-04
695 9.1209082307261739e-04 3.5556466331385756e-04 -2.0335686212301238e-04
696 -4.9475305173422424e-05 6.5478917429310233e-04 7.5439052958015422e-04
697 -3.2725144445024210e-04 -4.7409725590100892e-04 8.1524109783392713e-04
698 9.3597239934053707e-04 3.5400191774558249e-04 1.3170237135000241e-05
699 -4.8367165570691452e-04 -5.3564668413610505e-04 6.9183239453716821e-04
700 -6.5874820107284676e-04 4.4480793903052273e-06 7.5045885628960895e-04
701 5.6525268570612212e-04 -5.6135918310611490e-04 6.0525381060799429e-04
702 -6.9441983556476673e-04 -6.4252013337045112e-04 -3.2408787836580503e-04
703 -7.6788929122268866e-04 3.0183378350175566e-04 -5.6354358944134156e-04
704 4.9456635168954930e-05 3.3672192725764231e-04 -9.3676190497353593e-04
705 3.0210047297716169e-04 6.2432669323864382e-04 -7.1839390476414284e-04
706 -3.0838484963488836e-04 6.8910109314137267e-04 6.5412682113946815e-04
707 1.1286763894957201e-04 -9.3142313574518041e-04 -3.4766398812826319e-04
708 -6.8165029744950601e-04 7.2300911021804394e-04 1.0087802802150376e-04
709 9.3665425977542518e-06 7.3396003829835394e-04 -6.7723557051363372e-04
710 -4.0357133684712536e-04 7.8007761042745479e-04 4.7702567657662557e-04
711 -9.3163258479844768e-04 2.2457504471757326e-04 -2.8289179869996956e-04
712 7.6971532240852297e-04 1.0427836045808217e-04 6.3030514506368421e-04
713 -2.1632022057657368e-04 -7.5193328576190512e-04 -6.2243709478997100e-04
714 6.3076205767724773e-04 3.4625451104141870e-04 -6.9445833622414728e-04
715 -2.1558222052660181e-04 -9.7459635719646250e-04 5.8659108310069716e-05
716 -2.3973111478120131e-04 4.2852774165751140e-05 -9.6557763059054984e-04
717 -4.0732067863726457e-04 -9.0883469756547009e-04 -8.9051329695652952e-05
718 4.8743102428499391e-04 -2.0145965874931827e-04 8.4771556619714469e-04
719 7.3074751504076515e-04 -5.6871926277288123e-04 3.7972025843435487e-04
720 8.4750142543797160e-04 5.0727194236496471e-04 1.5259266296588768e-04
721 2.3680238920950950e-04 -1.6280398432192897e-04 -9.5405663483672139e-04
722 -5.7655623193567020e-04 -7.8321260483292206e-04 -2.3288985602468415e-04
723 3.2734760816161016e-05 8.4156484000883763e-05 -9.9165094612124098e-04
724 -1.8693821641268995e-04 7.0907231209036640e-04 6.8049226604468443e-04
725 8.7985583080537840e-04 -4.6339419224660508e-04 -1.0582042582426033e-04
726 5.6904039387188361e-04 2.0590536972615690e-04 7.9443388866657163e-04
727 7.9064247850259631e-04 5.6549740342735639e-04 2.3454034584289101e-04
728 5.3880522814722946e-04 5.9176320778587350e-04 -5.9862754788457442e-04
729 4.5909273771599292e-04 9.6751128602951390e-05 -8.8001646449669259e-04
730 7.1532036483877744e-04 6.2234557211231938e-04 3.1682638623983312e-04
731 -2.5835382895467407e-04 -6.1479310562044423e-04 -7.4244234338576259e-04
732 3.3856505074418558e-04 6.2321713691996779e-04 7.0360024606401896e-04
733 -7.2658620183409329e-05 9.7916928513818759e-04 -1.8281396874852024e-04
734 -2.2922942621247591e-04 -4.6879594553694918e-04 -8.5041238166328359e-04
735 9.6022184177237493e-04 -2.3288988078554011e-04 -1.5487999390010574e-04
736 9.7336568333934693e-04 -2.2648134048606534e-04 3.1675960613707026e-05
737 -1.2818391684799732e-05 -5.6162424387628638e-05 9.9415736902335231e-04
738 -5.0482350760559292e-04 -8.6154241190495955e-04 4.8265740184568422e-05
739 4.8595068594678870e-04 2.0866622444156197e-04 -8.4645897824490903e-04
740 -7.6337737744575660e-04 1.3707114487215006e-04 6.3051385579204484e-04
741 -1.4126516846712074e-04 2.9890124409090926e-05 9.8520897934202046e-04
742 -5.6072095908854904e-04 -7.0445077330118526e-04 4.3498546422274676e-04
743 -4.4422977954611709e-06 4.3240258783579325e-04 -8.9792007105975343e-04
744 3.0104504396310687e-04 -9.4010771658137543e-04 -1.6030455460314024e-04
745 -8.9251035506891470e-05 -6.7176140633901104e-04 -7.3302671753042680e-04
$EndNodes
$Elements
1486
1 2 2 0 0 410 440 345
2 2 2 0 0 421 541 409
3 2 2 0 0 409 682 421
4 2 2 0 0 545 603 546
5 2 2 0 0 426 427 294
6 2 2 0 0 294 454 426
7 2 2 0 0 265 682 409
8 2 2 0 0 24 41 4
9 2 2 0 0 3 24 4
10 2 2 0 0 238 642 602
11 2 2 0 0 520 651 613
12 2 2 0 0 653 666 659
13 2 2 0 0 404 460 98
14 2 2 0 0 222 482 219
15 2 2 0 0 40 463 9
16 2 2 0 0 608 724 696
17 2 2 0 0 435 709 69
18 2 2 0 0 413 439 29
19 2 2 0 0 345 710 410
20 2 2 0 0 422 463 40
21 2 2 0 0 98 550 404
22 2 2 0 0 95 724 608
23 2 2 0 0 4 41 5
24 2 2 0 0 232 701 581
25 2 2 0 0 490 698 488
26 2 2 0 0 29 436 413
27 2 2 0 0 416 421 342
28 2 2 0 0 312 595 441
29 2 2 0 0 41 486 5
30 2 2 0 0 405 605 519
31 2 2 0 0 409 595 265
32 2 2 0 0 69 481 435
33 2 2 0 0 434 743 339
34 2 2 0 0 342 641 416
35 2 2 0 0 485 656 370
36 2 2 0 0 89 587 90
37 2 2 0 0 108 466 317
38 2 2 0 0 378 629 529
39 2 2 0 0 581 680 232
40 2 2 0 0 281 434 339
41 2 2 0 0 638 739 486
42 2 2 0 0 659 666 660
43 2 2 0 0 345 440 346
44 2 2 0 0 22 44 25
45 2 2 0 0 9 463 8
46 2 2 0 0 44 81 25
47 2 2 0 0 459 587 89
48 2 2 0 0 127 670 630
49 2 2 0 0 508 662 509
50 2 2 0 0 375 662 508
51 2 2 0 0 492 598 103
52 2 2 0 0 604 642 238
53 2 2 0 0 507 510 399
54 2 2 0 0 488 698 489
55 2 2 0 0 34 473 415
56 2 2 0 0 399 639 507
57 2 2 0 0 603 688 546
58 2 2 0 0 316 541 421
59 2 2 0 0 647 696 627
60 2 2 0 0 403 439 352
61 2 2 0 0 221 603 545
62 2 2 0 0 595 648 441
63 2 2 0 0 412 550 98
64 2 2 0 0 411 714 397
65 2 2 0 0 486 739 729
66 2 2 0 0 696 724 401
67 2 2 0 0 247 482 222
68 2 2 0 0 397 714 645
69 2 2 0 0 613 651 212
70 2 2 0 0 207 745 425
71 2 2 0 0 98 675 412
72 2 2 0 0 219 482 230
73 2 2 0 0 560 692 432
74 2 2 0 0 432 689 560
75 2 2 0 0 454 575 426
76 2 2 0 0 352 439 413
77 2 2 0 0 415 420 2
78 2 2 0 0 40 464 422
79 2 2 0 0 89 512 459
80 2 2 0 0 425 614 207
81 2 2 0 0 377 600 453
82 2 2 0 0 89 90 88
83 2 2 0 0 80 466 108
84 2 2 0 0 520 717 651
85 2 2 0 0 602 703 238
86 2 2 0 0 103 687 492
87 2 2 0 0 253 491 424
88 2 2 0 0 69 709 466
89 2 2 0 0 424 512 253
90 2 2 0 0 369 696 647
91 2 2 0 0 581 701 644
92 2 2 0 0 630 670 392
93 2 2 0 0 32 656 485
94 2 2 0 0 459 512 424
95 2 2 0 0 90 91 88
96 2 2 0 0 427 478 294
97 2 2 0 0 488 695 490
98 2 2 0 0 554 699 560
99 2 2 0 0 67 80 79
100 2 2 0 0 252 454 294
101 2 2 0 0 253 628 491
102 2 2 0 0 529 681 378
103 2 2 0 0 519 715 405
104 2 2 0 0 440 441 346
105 2 2 0 0 605 717 519
106 2 2 0 0 403 452 439
107 2 2 0 0 507 639 21
108 2 2 0 0 565 567 566
109 2 2 0 0 433 454 341
110 2 2 0 0 67 466 80
111 2 2 0 0 555 697 576
112 2 2 0 0 491 628 493
113 2 2 0 0 389 641 342
114 2 2 0 0 429 619 474
115 2 2 0 0 40 501 464
116 2 2 0 0 576 699 555
117 2 2 0 0 311 600 377
118 2 2 0 0 567 622 566
119 2 2 0 0 433 575 454
120 2 2 0 0 378 671 629
121 2 2 0 0 79 540 103
122 2 2 0 0 341 473 433
123 2 2 0 0 673 704 68
124 2 2 0 0 462 710 345
125 2 2 0 0 557 722 616
126 2 2 0 0 573 662 343
127 2 2 0 0 370 656 463
128 2 2 0 0 341 454 252
129 2 2 0 0 616 702 557
130 2 2 0 0 6 26 7
131 2 2 0 0 464 501 467
132 2 2 0 0 433 473 406
133 2 2 0 0 8 45 37
134 2 2 0 0 466 709 317
135 2 2 0 0 457 461 379
136 2 2 0 0 84 512 86
137 2 2 0 0 19 452 33
138 2 2 0 0 380 614 425
139 2 2 0 0 83 540 79
140 2 2 0 0 398 510 509
141 2 2 0 0 609 631 137
142 2 2 0 0 18 442 36
143 2 2 0 0 26 45 7
144 2 2 0 0 565 566 343
145 2 2 0 0 80 83 79
146 2 2 0 0 560 689 554
147 2 2 0 0 134 137 136
148 2 2 0 0 68 469 42
149 2 2 0 0 659 716 653
150 2 2 0 0 619 707 474
151 2 2 0 0 497 610 39
152 2 2 0 0 137 138 136
153 2 2 0 0 283 573 343
154 2 2 0 0 506 644 448
155 2 2 0 0 499 735 31
156 2 2 0 0 81 97 25
157 2 2 0 0 45 46 37
158 2 2 0 0 585 668 637
159 2 2 0 0 495 735 499
160 2 2 0 0 399 510 398
161 2 2 0 0 509 573 398
162 2 2 0 0 442 443 36
163 2 2 0 0 1 607 314
164 2 2 0 0 29 612 436
165 2 2 0 0 547 631 609
166 2 2 0 0 360 595 409
167 2 2 0 0 421 682 342
168 2 2 0 0 426 575 327
169 2 2 0 0 123 577 235
170 2 2 0 0 339 743 417
171 2 2 0 0 7 45 8
172 2 2 0 0 3 723 24
173 2 2 0 0 418 666 653
174 2 2 0 0 59 60 58
175 2 2 0 0 620 636 193
176 2 2 0 0 42 469 47
177 2 2 0 0 65 67 66
178 2 2 0 0 509 662 573
179 2 2 0 0 470 482 247
180 2 2 0 0 368 476 472
181 2 2 0 0 530 740 337
182 2 2 0 0 253 512 84
183 2 2 0 0 455 698 282
184 2 2 0 0 61 65 62
185 2 2 0 0 59 61 60
186 2 2 0 0 91 472 88
187 2 2 0 0 90 92 91
188 2 2 0 0 19 442 18
189 2 2 0 0 464 465 423
190 2 2 0 0 706 724 118
191 2 2 0 0 456 611 32
192 2 2 0 0 379 477 61
193 2 2 0 0 417 743 704
194 2 2 0 0 314 683 1
195 2 2 0 0 442 458 443
196 2 2 0 0 11 28 12
197 2 2 0 0 61 62 60
198 2 2 0 0 118 724 95
199 2 2 0 0 22 25 23
200 2 2 0 0 247 483 470
201 2 2 0 0 281 640 434
202 2 2 0 0 197 667 474
203 2 2 0 0 86 512 89
204 2 2 0 0 417 704 673
205 2 2 0 0 451 690 230
206 2 2 0 0 27 442 19
207 2 2 0 0 637 668 229
208 2 2 0 0 60 475 58
209 2 2 0 0 489 610 497
210 2 2 0 0 307 573 283
211 2 2 0 0 61 477 65
212 2 2 0 0 65 66 62
213 2 2 0 0 544 740 530
214 2 2 0 0 230 719 451
215 2 2 0 0 18 452 19
216 2 2 0 0 268 569 269
217 2 2 0 0 32 485 456
218 2 2 0 0 627 696 401
219 2 2 0 0 24 42 41
220 2 2 0 0 20 27 19
221 2 2 0 0 330 461 457
222 2 2 0 0 506 672 644
223 2 2 0 0 472 476 87
224 2 2 0 0 468 495 494
225 2 2 0 0 88 472 87
226 2 2 0 0 121 577 123
227 2 2 0 0 327 575 276
228 2 2 0 0 422 464 423
229 2 2 0 0 47 63 49
230 2 2 0 0 458 506 443
231 2 2 0 0 232 690 451
232 2 2 0 0 28 487 12
233 2 2 0 0 80 107 83
234 2 2 0 0 608 696 676
235 2 2 0 0 356 481 355
236 2 2 0 0 138 238 136
237 2 2 0 0 137 139 138
238 2 2 0 0 729 739 26
239 2 2 0 0 81 99 97
240 2 2 0 0 46 50 37
241 2 2 0 0 463 656 8
242 2 2 0 0 443 444 36
243 2 2 0 0 68 704 469
244 2 2 0 0 24 68 42
245 2 2 0 0 16 503 30
246 2 2 0 0 65 69 67
247 2 2 0 0 67 79 66
248 2 2 0 0 676 696 369
249 2 2 0 0 59 379 61
250 2 2 0 0 90 93 92
251 2 2 0 0 464 467 465
252 2 2 0 0 441 708 312
253 2 2 0 0 483 484 471
254 2 2 0 0 427 479 478
255 2 2 0 0 245 564 244
256 2 2 0 0 470 483 471
257 2 2 0 0 473 721 406
258 2 2 0 0 555 699 554
259 2 2 0 0 47 469 63
260 2 2 0 0 63 355 49
261 2 2 0 0 62 64 60
262 2 2 0 0 80 108 107
263 2 2 0 0 107 539 83
264 2 2 0 0 139 140 138
265 2 2 0 0 99 100 97
266 2 2 0 0 81 236 99
267 2 2 0 0 46 51 50
268 2 2 0 0 443 445 444
269 2 2 0 0 24 419 68
270 2 2 0 0 69 466 67
271 2 2 0 0 79 103 66
272 2 2 0 0 65 477 69
273 2 2 0 0 547 548 321
274 2 2 0 0 93 94 92
275 2 2 0 0 467 468 465
276 2 2 0 0 333 664 649
277 2 2 0 0 55 498 56
278 2 2 0 0 56 498 72
279 2 2 0 0 12 499 31
280 2 2 0 0 63 356 355
281 2 2 0 0 108 110 107
282 2 2 0 0 139 141 140
283 2 2 0 0 100 101 97
284 2 2 0 0 236 248 99
285 2 2 0 0 81 594 236
286 2 2 0 0 51 52 50
287 2 2 0 0 192 515 195
288 2 2 0 0 445 446 444
289 2 2 0 0 477 481 69
290 2 2 0 0 94 95 92
291 2 2 0 0 93 96 94
292 2 2 0 0 63 408 356
293 2 2 0 0 108 111 110
294 2 2 0 0 110 117 107
295 2 2 0 0 139 154 141
296 2 2 0 0 141 142 140
297 2 2 0 0 51 53 52
298 2 2 0 0 100 102 101
299 2 2 0 0 236 250 248
300 2 2 0 0 445 447 446
301 2 2 0 0 52 388 50
302 2 2 0 0 277 622 567
303 2 2 0 0 95 608 92
304 2 2 0 0 94 118 95
305 2 2 0 0 93 104 96
306 2 2 0 0 51 561 53
307 2 2 0 0 408 434 356
308 2 2 0 0 53 54 52
309 2 2 0 0 445 448 447
310 2 2 0 0 108 317 111
311 2 2 0 0 141 143 142
312 2 2 0 0 142 225 140
313 2 2 0 0 102 166 101
314 2 2 0 0 250 325 248
315 2 2 0 0 100 258 102
316 2 2 0 0 53 55 54
317 2 2 0 0 447 449 446
318 2 2 0 0 236 505 250
319 2 2 0 0 104 105 96
320 2 2 0 0 53 57 55
321 2 2 0 0 55 56 54
322 2 2 0 0 448 451 447
323 2 2 0 0 14 39 15
324 2 2 0 0 317 511 111
325 2 2 0 0 10 40 9
326 2 2 0 0 143 144 142
327 2 2 0 0 57 58 55
328 2 2 0 0 8 37 9
329 2 2 0 0 14 38 13
330 2 2 0 0 166 314 101
331 2 2 0 0 18 36 17
332 2 2 0 0 16 29 17
333 2 2 0 0 33 504 20
334 2 2 0 0 325 365 248
335 2 2 0 0 199 202 196
336 2 2 0 0 7 32 6
337 2 2 0 0 434 435 356
338 2 2 0 0 74 75 73
339 2 2 0 0 223 239 234
340 2 2 0 0 74 76 75
341 2 2 0 0 72 74 73
342 2 2 0 0 231 549 201
343 2 2 0 0 202 205 204
344 2 2 0 0 226 227 214
345 2 2 0 0 272 275 271
346 2 2 0 0 276 318 275
347 2 2 0 0 213 214 209
348 2 2 0 0 76 77 75
349 2 2 0 0 210 231 201
350 2 2 0 0 16 30 15
351 2 2 0 0 205 209 208
352 2 2 0 0 202 204 196
353 2 2 0 0 318 406 340
354 2 2 0 0 195 196 193
355 2 2 0 0 322 420 415
356 2 2 0 0 239 240 234
357 2 2 0 0 163 588 168
358 2 2 0 0 12 31 11
359 2 2 0 0 56 72 71
360 2 2 0 0 425 426 327
361 2 2 0 0 19 33 20
362 2 2 0 0 168 224 215
363 2 2 0 0 209 568 216
364 2 2 0 0 318 433 406
365 2 2 0 0 269 271 270
366 2 2 0 0 268 269 245
367 2 2 0 0 21 639 20
368 2 2 0 0 84 85 82
369 2 2 0 0 181 207 183
370 2 2 0 0 269 272 271
371 2 2 0 0 272 276 275
372 2 2 0 0 242 243 240
373 2 2 0 0 102 167 166
374 2 2 0 0 223 234 233
375 2 2 0 0 283 343 227
376 2 2 0 0 205 208 204
377 2 2 0 0 213 226 214
378 2 2 0 0 271 572 347
379 2 2 0 0 243 268 245
380 2 2 0 0 335 398 307
381 2 2 0 0 303 555 554
382 2 2 0 0 226 283 227
383 2 2 0 0 347 485 370
384 2 2 0 0 195 199 196
385 2 2 0 0 205 213 209
386 2 2 0 0 246 322 252
387 2 2 0 0 76 78 77
388 2 2 0 0 133 163 135
389 2 2 0 0 163 168 164
390 2 2 0 0 322 415 341
391 2 2 0 0 227 361 214
392 2 2 0 0 191 198 189
393 2 2 0 0 78 84 82
394 2 2 0 0 209 216 208
395 2 2 0 0 78 82 77
396 2 2 0 0 216 303 266
397 2 2 0 0 417 418 362
398 2 2 0 0 314 607 101
399 2 2 0 0 339 362 280
400 2 2 0 0 243 245 244
401 2 2 0 0 187 291 185
402 2 2 0 0 429 430 359
403 2 2 0 0 143 145 144
404 2 2 0 0 202 553 205
405 2 2 0 0 339 417 362
406 2 2 0 0 131 580 133
407 2 2 0 0 239 242 240
408 2 2 0 0 57 59 58
409 2 2 0 0 224 246 215
410 2 2 0 0 84 86 85
411 2 2 0 0 303 554 266
412 2 2 0 0 72 73 71
413 2 2 0 0 437 438 414
414 2 2 0 0 318 340 275
415 2 2 0 0 269 270 245
416 2 2 0 0 86 87 85
417 2 2 0 0 192 193 191
418 2 2 0 0 123 235 129
419 2 2 0 0 263 374 262
420 2 2 0 0 425 427 426
421 2 2 0 0 149 150 147
422 2 2 0 0 210 232 231
423 2 2 0 0 74 373 76
424 2 2 0 0 168 215 169
425 2 2 0 0 259 262 249
426 2 2 0 0 145 146 144
427 2 2 0 0 367 524 289
428 2 2 0 0 271 347 270
429 2 2 0 0 406 407 340
430 2 2 0 0 334 459 424
431 2 2 0 0 429 474 430
432 2 2 0 0 250 328 325
433 2 2 0 0 431 432 367
434 2 2 0 0 104 278 105
435 2 2 0 0 145 147 146
436 2 2 0 0 151 152 150
437 2 2 0 0 235 583 129
438 2 2 0 0 237 249 228
439 2 2 0 0 149 151 150
440 2 2 0 0 159 161 158
441 2 2 0 0 153 155 152
442 2 2 0 0 156 158 155
443 2 2 0 0 354 367 289
444 2 2 0 0 259 263 262
445 2 2 0 0 190 191 189
446 2 2 0 0 177 221 174
447 2 2 0 0 162 228 161
448 2 2 0 0 124 516 386
449 2 2 0 0 418 653 578
450 2 2 0 0 371 584 295
451 2 2 0 0 151 153 152
452 2 2 0 0 153 156 155
453 2 2 0 0 159 162 161
454 2 2 0 0 374 593 262
455 2 2 0 0 156 159 158
456 2 2 0 0 237 259 249
457 2 2 0 0 146 284 160
458 2 2 0 0 266 309 267
459 2 2 0 0 264 265 257
460 2 2 0 0 86 88 87
461 2 2 0 0 265 312 257
462 2 2 0 0 162 237 228
463 2 2 0 0 21 44 22
464 2 2 0 0 324 392 390
465 2 2 0 0 371 585 584
466 2 2 0 0 262 366 249
467 2 2 0 0 192 195 193
468 2 2 0 0 263 375 374
469 2 2 0 0 216 266 217
470 2 2 0 0 326 327 276
471 2 2 0 0 260 646 166
472 2 2 0 0 220 223 222
473 2 2 0 0 322 341 252
474 2 2 0 0 256 257 255
475 2 2 0 0 78 253 84
476 2 2 0 0 358 359 242
477 2 2 0 0 188 189 187
478 2 2 0 0 281 339 280
479 2 2 0 0 146 160 144
480 2 2 0 0 123 129 128
481 2 2 0 0 255 324 254
482 2 2 0 0 228 229 161
483 2 2 0 0 354 431 367
484 2 2 0 0 163 164 135
485 2 2 0 0 155 157 152
486 2 2 0 0 243 244 240
487 2 2 0 0 256 264 257
488 2 2 0 0 284 316 160
489 2 2 0 0 380 425 327
490 2 2 0 0 148 149 147
491 2 2 0 0 335 399 398
492 2 2 0 0 418 578 362
493 2 2 0 0 334 424 396
494 2 2 0 0 167 260 166
495 2 2 0 0 325 368 365
496 2 2 0 0 428 429 359
497 2 2 0 0 165 255 254
498 2 2 0 0 297 342 264
499 2 2 0 0 298 371 295
500 2 2 0 0 218 323 220
501 2 2 0 0 310 337 302
502 2 2 0 0 165 256 255
503 2 2 0 0 186 187 185
504 2 2 0 0 56 71 70
505 2 2 0 0 165 254 125
506 2 2 0 0 200 201 199
507 2 2 0 0 148 206 149
508 2 2 0 0 324 390 364
509 2 2 0 0 190 192 191
510 2 2 0 0 368 369 365
511 2 2 0 0 353 404 351
512 2 2 0 0 104 331 278
513 2 2 0 0 256 297 264
514 2 2 0 0 316 421 416
515 2 2 0 0 239 358 242
516 2 2 0 0 169 586 171
517 2 2 0 0 286 287 206
518 2 2 0 0 324 364 254
519 2 2 0 0 241 576 162
520 2 2 0 0 168 169 164
521 2 2 0 0 121 123 122
522 2 2 0 0 266 267 217
523 2 2 0 0 129 131 130
524 2 2 0 0 216 217 208
525 2 2 0 0 285 382 313
526 2 2 0 0 172 321 170
527 2 2 0 0 390 391 364
528 2 2 0 0 296 563 300
529 2 2 0 0 246 252 251
530 2 2 0 0 285 286 206
531 2 2 0 0 288 289 287
532 2 2 0 0 298 372 371
533 2 2 0 0 23 35 22
534 2 2 0 0 300 344 304
535 2 2 0 0 344 462 345
536 2 2 0 0 123 128 122
537 2 2 0 0 297 389 342
538 2 2 0 0 237 277 259
539 2 2 0 0 148 285 206
540 2 2 0 0 86 89 88
541 2 2 0 0 306 307 283
542 2 2 0 0 234 279 233
543 2 2 0 0 316 416 160
544 2 2 0 0 188 190 189
545 2 2 0 0 85 98 82
546 2 2 0 0 358 428 359
547 2 2 0 0 437 455 438
548 2 2 0 0 203 210 201
549 2 2 0 0 382 383 313
550 2 2 0 0 153 176 156
551 2 2 0 0 290 354 289
552 2 2 0 0 159 241 162
553 2 2 0 0 386 387 126
554 2 2 0 0 273 363 338
555 2 2 0 0 272 326 276
556 2 2 0 0 171 293 173
557 2 2 0 0 145 148 147
558 2 2 0 0 274 295 261
559 2 2 0 0 285 313 286
560 2 2 0 0 383 384 313
561 2 2 0 0 301 302 299
562 2 2 0 0 131 133 132
563 2 2 0 0 296 298 295
564 2 2 0 0 305 310 302
565 2 2 0 0 349 412 328
566 2 2 0 0 344 345 304
567 2 2 0 0 77 119 75
568 2 2 0 0 315 378 310
569 2 2 0 0 363 401 400
570 2 2 0 0 332 333 278
571 2 2 0 0 223 233 222
572 2 2 0 0 331 334 332
573 2 2 0 0 186 188 187
574 2 2 0 0 178 212 177
575 2 2 0 0 305 360 315
576 2 2 0 0 334 396 395
577 2 2 0 0 246 251 215
578 2 2 0 0 167 261 260
579 2 2 0 0 175 179 178
580 2 2 0 0 345 346 304
581 2 2 0 0 124 386 126
582 2 2 0 0 286 288 287
583 2 2 0 0 331 332 278
584 2 2 0 0 179 181 180
585 2 2 0 0 301 305 302
586 2 2 0 0 300 304 301
587 2 2 0 0 296 300 299
588 2 2 0 0 305 315 310
589 2 2 0 0 296 299 298
590 2 2 0 0 320 453 290
591 2 2 0 0 274 296 295
592 2 2 0 0 313 531 286
593 2 2 0 0 120 281 280
594 2 2 0 0 360 409 315
595 2 2 0 0 363 400 338
596 2 2 0 0 129 130 128
597 2 2 0 0 300 301 299
598 2 2 0 0 1 508 23
599 2 2 0 0 167 273 261
600 2 2 0 0 133 135 134
601 2 2 0 0 173 174 172
602 2 2 0 0 311 377 376
603 2 2 0 0 273 274 261
604 2 2 0 0 273 338 274
605 2 2 0 0 334 395 332
606 2 2 0 0 183 197 184
607 2 2 0 0 319 393 320
608 2 2 0 0 449 450 446
609 2 2 0 0 288 290 289
610 2 2 0 0 226 306 283
611 2 2 0 0 326 380 327
612 2 2 0 0 175 177 174
613 2 2 0 0 181 183 182
614 2 2 0 0 219 230 211
615 2 2 0 0 308 335 307
616 2 2 0 0 267 311 292
617 2 2 0 0 169 170 164
618 2 2 0 0 288 319 290
619 2 2 0 0 126 165 125
620 2 2 0 0 120 280 121
621 2 2 0 0 130 357 128
622 2 2 0 0 195 200 199
623 2 2 0 0 169 171 170
624 2 2 0 0 171 172 170
625 2 2 0 0 184 186 185
626 2 2 0 0 73 282 71
627 2 2 0 0 252 294 251
628 2 2 0 0 319 320 290
629 2 2 0 0 131 132 130
630 2 2 0 0 393 394 320
631 2 2 0 0 171 173 172
632 2 2 0 0 4 34 3
633 2 2 0 0 218 220 219
634 2 2 0 0 267 292 217
635 2 2 0 0 184 185 182
636 2 2 0 0 188 194 190
637 2 2 0 0 56 70 54
638 2 2 0 0 377 405 376
639 2 2 0 0 449 470 450
640 2 2 0 0 179 180 178
641 2 2 0 0 173 175 174
642 2 2 0 0 175 178 177
643 2 2 0 0 250 329 328
644 2 2 0 0 311 376 292
645 2 2 0 0 329 571 350
646 2 2 0 0 347 370 348
647 2 2 0 0 220 222 219
648 2 2 0 0 376 385 292
649 2 2 0 0 133 134 132
650 2 2 0 0 134 136 132
651 2 2 0 0 306 308 307
652 2 2 0 0 200 203 201
653 2 2 0 0 233 247 222
654 2 2 0 0 98 460 82
655 2 2 0 0 329 349 328
656 2 2 0 0 326 381 380
657 2 2 0 0 347 348 270
658 2 2 0 0 181 182 180
659 2 2 0 0 121 122 115
660 2 2 0 0 350 351 349
661 2 2 0 0 308 336 335
662 2 2 0 0 350 403 352
663 2 2 0 0 470 471 450
664 2 2 0 0 203 211 210
665 2 2 0 0 218 219 211
666 2 2 0 0 183 184 182
667 2 2 0 0 370 463 422
668 2 2 0 0 306 402 308
669 2 2 0 0 203 218 211
670 2 2 0 0 71 490 70
671 2 2 0 0 329 350 349
672 2 2 0 0 436 437 414
673 2 2 0 0 124 126 125
674 2 2 0 0 413 414 353
675 2 2 0 0 422 423 348
676 2 2 0 0 352 353 351
677 2 2 0 0 370 422 348
678 2 2 0 0 350 352 351
679 2 2 0 0 413 436 414
680 2 2 0 0 352 413 353
681 2 2 0 0 120 121 115
682 2 2 0 0 110 480 117
683 2 2 0 0 124 125 116
684 2 2 0 0 126 521 165
685 2 2 0 0 113 120 115
686 2 2 0 0 127 440 410
687 2 2 0 0 114 124 116
688 2 2 0 0 543 544 530
689 2 2 0 0 488 489 487
690 2 2 0 0 585 637 366
691 2 2 0 0 543 570 544
692 2 2 0 0 113 115 114
693 2 2 0 0 127 410 106
694 2 2 0 0 114 116 112
695 2 2 0 0 195 515 200
696 2 2 0 0 491 493 492
697 2 2 0 0 12 487 13
698 2 2 0 0 546 547 321
699 2 2 0 0 330 457 411
700 2 2 0 0 157 543 530
701 2 2 0 0 519 520 291
702 2 2 0 0 28 488 487
703 2 2 0 0 111 112 110
704 2 2 0 0 312 534 257
705 2 2 0 0 476 732 412
706 2 2 0 0 27 458 442
707 2 2 0 0 385 636 620
708 2 2 0 0 176 559 156
709 2 2 0 0 593 634 366
710 2 2 0 0 589 590 224
711 2 2 0 0 113 114 112
712 2 2 0 0 109 127 106
713 2 2 0 0 270 564 245
714 2 2 0 0 443 506 445
715 2 2 0 0 491 492 396
716 2 2 0 0 388 624 502
717 2 2 0 0 445 506 448
718 2 2 0 0 30 500 15
719 2 2 0 0 20 504 21
720 2 2 0 0 64 475 60
721 2 2 0 0 287 542 206
722 2 2 0 0 23 508 35
723 2 2 0 0 302 558 299
724 2 2 0 0 70 551 54
725 2 2 0 0 62 598 64
726 2 2 0 0 424 491 396
727 2 2 0 0 407 456 340
728 2 2 0 0 545 546 321
729 2 2 0 0 330 411 397
730 2 2 0 0 72 536 74
731 2 2 0 0 238 574 136
732 2 2 0 0 659 660 420
733 2 2 0 0 395 538 332
734 2 2 0 0 143 527 145
735 2 2 0 0 412 675 476
736 2 2 0 0 239 513 358
737 2 2 0 0 157 530 529
738 2 2 0 0 518 519 291
739 2 2 0 0 449 482 470
740 2 2 0 0 207 713 479
741 2 2 0 0 119 523 75
742 2 2 0 0 109 670 127
743 2 2 0 0 10 501 40
744 2 2 0 0 508 509 35
745 2 2 0 0 96 606 94
746 2 2 0 0 331 459 334
747 2 2 0 0 286 531 288
748 2 2 0 0 290 453 354
749 2 2 0 0 282 490 71
750 2 2 0 0 384 531 313
751 2 2 0 0 289 524 287
752 2 2 0 0 349 550 412
753 2 2 0 0 165 521 256
754 2 2 0 0 82 460 77
755 2 2 0 0 155 543 157
756 2 2 0 0 201 549 199
757 2 2 0 0 273 591 363
758 2 2 0 0 387 521 126
759 2 2 0 0 114 516 124
760 2 2 0 0 53 561 57
761 2 2 0 0 266 554 309
762 2 2 0 0 257 534 255
763 2 2 0 0 205 553 213
764 2 2 0 0 142 522 225
765 2 2 0 0 435 481 356
766 2 2 0 0 216 568 303
767 2 2 0 0 300 563 344
768 2 2 0 0 214 568 209
769 2 2 0 0 112 480 110
770 2 2 0 0 350 571 403
771 2 2 0 0 347 572 485
772 2 2 0 0 275 572 271
773 2 2 0 0 274 563 296
774 2 2 0 0 171 586 293
775 2 2 0 0 162 576 237
776 2 2 0 0 133 580 163
777 2 2 0 0 11 501 10
778 2 2 0 0 295 584 261
779 2 2 0 0 129 583 131
780 2 2 0 0 215 586 169
781 2 2 0 0 250 505 329
782 2 2 0 0 168 588 224
783 2 2 0 0 321 548 170
784 2 2 0 0 262 593 366
785 2 2 0 0 166 646 314
786 2 2 0 0 520 535 291
787 2 2 0 0 373 663 493
788 2 2 0 0 291 535 185
789 2 2 0 0 101 607 97
790 2 2 0 0 130 574 357
791 2 2 0 0 158 570 543
792 2 2 0 0 31 501 11
793 2 2 0 0 444 552 503
794 2 2 0 0 156 559 159
795 2 2 0 0 236 594 505
796 2 2 0 0 206 542 149
797 2 2 0 0 54 551 52
798 2 2 0 0 74 536 373
799 2 2 0 0 337 558 302
800 2 2 0 0 150 532 147
801 2 2 0 0 379 728 457
802 2 2 0 0 299 558 298
803 2 2 0 0 332 538 333
804 2 2 0 0 145 527 148
805 2 2 0 0 514 515 192
806 2 2 0 0 15 500 14
807 2 2 0 0 75 523 73
808 2 2 0 0 467 501 31
809 2 2 0 0 254 592 125
810 2 2 0 0 172 545 321
811 2 2 0 0 144 522 142
812 2 2 0 0 528 532 150
813 2 2 0 0 187 518 291
814 2 2 0 0 553 599 213
815 2 2 0 0 383 603 384
816 2 2 0 0 282 698 490
817 2 2 0 0 244 517 240
818 2 2 0 0 353 525 404
819 2 2 0 0 395 540 538
820 2 2 0 0 94 606 118
821 2 2 0 0 117 539 107
822 2 2 0 0 185 535 182
823 2 2 0 0 388 502 50
824 2 2 0 0 167 591 273
825 2 2 0 0 147 532 146
826 2 2 0 0 92 608 91
827 2 2 0 0 472 676 368
828 2 2 0 0 364 592 254
829 2 2 0 0 21 504 44
830 2 2 0 0 365 597 248
831 2 2 0 0 125 592 116
832 2 2 0 0 588 589 224
833 2 2 0 0 111 113 112
834 2 2 0 0 63 469 408
835 2 2 0 0 105 109 106
836 2 2 0 0 242 526 243
837 2 2 0 0 439 712 29
838 2 2 0 0 240 517 234
839 2 2 0 0 346 533 304
840 2 2 0 0 14 500 38
841 2 2 0 0 494 495 484
842 2 2 0 0 127 630 440
843 2 2 0 0 208 537 204
844 2 2 0 0 175 562 179
845 2 2 0 0 303 626 555
846 2 2 0 0 359 526 242
847 2 2 0 0 243 526 268
848 2 2 0 0 217 537 208
849 2 2 0 0 58 498 55
850 2 2 0 0 503 552 30
851 2 2 0 0 13 499 12
852 2 2 0 0 268 621 569
853 2 2 0 0 489 497 487
854 2 2 0 0 475 498 58
855 2 2 0 0 430 526 359
856 2 2 0 0 248 597 99
857 2 2 0 0 292 537 217
858 2 2 0 0 26 645 45
859 2 2 0 0 234 517 279
860 2 2 0 0 14 497 39
861 2 2 0 0 385 537 292
862 2 2 0 0 305 533 360
863 2 2 0 0 304 533 301
864 2 2 0 0 146 532 284
865 2 2 0 0 483 494 484
866 2 2 0 0 173 562 175
867 2 2 0 0 116 480 112
868 2 2 0 0 224 590 246
869 2 2 0 0 189 518 187
870 2 2 0 0 498 536 72
871 2 2 0 0 414 525 353
872 2 2 0 0 160 522 144
873 2 2 0 0 547 609 548
874 2 2 0 0 182 535 180
875 2 2 0 0 297 601 389
876 2 2 0 0 44 594 81
877 2 2 0 0 301 533 305
878 2 2 0 0 105 106 96
879 2 2 0 0 515 596 200
880 2 2 0 0 293 562 173
881 2 2 0 0 73 523 282
882 2 2 0 0 148 527 285
883 2 2 0 0 174 545 172
884 2 2 0 0 218 596 323
885 2 2 0 0 200 596 203
886 2 2 0 0 149 542 151
887 2 2 0 0 446 552 444
888 2 2 0 0 49 461 330
889 2 2 0 0 330 397 48
890 2 2 0 0 453 738 377
891 2 2 0 0 255 534 324
892 2 2 0 0 52 551 388
893 2 2 0 0 634 646 260
894 2 2 0 0 513 615 358
895 2 2 0 0 438 525 414
896 2 2 0 0 516 618 386
897 2 2 0 0 198 518 189
898 2 2 0 0 227 566 361
899 2 2 0 0 559 560 241
900 2 2 0 0 90 587 93
901 2 2 0 0 416 522 160
902 2 2 0 0 102 591 167
903 2 2 0 0 134 609 137
904 2 2 0 0 298 558 372
905 2 2 0 0 132 574 130
906 2 2 0 0 106 606 96
907 2 2 0 0 159 559 241
908 2 2 0 0 32 611 6
909 2 2 0 0 158 543 155
910 2 2 0 0 223 513 239
911 2 2 0 0 288 531 319
912 2 2 0 0 323 513 220
913 2 2 0 0 115 516 114
914 2 2 0 0 521 601 297
915 2 2 0 0 610 698 455
916 2 2 0 0 354 600 431
917 2 2 0 0 351 550 349
918 2 2 0 0 256 521 297
919 2 2 0 0 140 604 138
920 2 2 0 0 77 460 119
921 2 2 0 0 17 503 16
922 2 2 0 0 9 502 10
923 2 2 0 0 104 587 331
924 2 2 0 0 152 528 150
925 2 2 0 0 315 541 378
926 2 2 0 0 170 548 164
927 2 2 0 0 590 659 420
928 2 2 0 0 11 624 28
929 2 2 0 0 199 549 202
930 2 2 0 0 502 624 10
931 2 2 0 0 453 600 354
932 2 2 0 0 42 43 41
933 2 2 0 0 38 499 13
934 2 2 0 0 285 527 382
935 2 2 0 0 190 514 192
936 2 2 0 0 157 529 528
937 2 2 0 0 231 643 549
938 2 2 0 0 331 587 459
939 2 2 0 0 451 701 232
940 2 2 0 0 99 597 100
941 2 2 0 0 361 568 214
942 2 2 0 0 372 740 544
943 2 2 0 0 221 545 174
944 2 2 0 0 138 604 238
945 2 2 0 0 340 572 275
946 2 2 0 0 338 563 274
947 2 2 0 0 524 542 287
948 2 2 0 0 265 595 312
949 2 2 0 0 111 511 113
950 2 2 0 0 580 658 588
951 2 2 0 0 580 588 163
952 2 2 0 0 237 576 277
953 2 2 0 0 444 503 36
954 2 2 0 0 131 583 580
955 2 2 0 0 505 571 329
956 2 2 0 0 203 596 218
957 2 2 0 0 584 634 260
958 2 2 0 0 261 584 260
959 2 2 0 0 369 647 365
960 2 2 0 0 251 586 215
961 2 2 0 0 348 564 270
962 2 2 0 0 450 552 446
963 2 2 0 0 390 496 391
964 2 2 0 0 66 598 62
965 2 2 0 0 465 623 423
966 2 2 0 0 258 591 102
967 2 2 0 0 343 566 227
968 2 2 0 0 564 623 244
969 2 2 0 0 154 617 141
970 2 2 0 0 324 534 392
971 2 2 0 0 50 502 37
972 2 2 0 0 524 556 542
973 2 2 0 0 544 700 372
974 2 2 0 0 122 516 115
975 2 2 0 0 177 557 221
976 2 2 0 0 489 698 610
977 2 2 0 0 93 587 104
978 2 2 0 0 136 574 132
979 2 2 0 0 593 646 634
980 2 2 0 0 116 592 480
981 2 2 0 0 143 617 527
982 2 2 0 0 225 604 140
983 2 2 0 0 137 631 139
984 2 2 0 0 549 553 202
985 2 2 0 0 164 548 135
986 2 2 0 0 404 550 351
987 2 2 0 0 34 721 473
988 2 2 0 0 220 513 223
989 2 2 0 0 317 640 511
990 2 2 0 0 100 597 258
991 2 2 0 0 588 658 589
992 2 2 0 0 323 615 513
993 2 2 0 0 568 626 303
994 2 2 0 0 377 605 405
995 2 2 0 0 178 613 212
996 2 2 0 0 493 628 373
997 2 2 0 0 157 528 152
998 2 2 0 0 591 627 363
999 2 2 0 0 409 541 315
1000 2 2 0 0 183 614 197
1001 2 2 0 0 103 598 66
1002 2 2 0 0 188 619 194
1003 2 2 0 0 213 599 226
1004 2 2 0 0 306 599 402
1005 2 2 0 0 97 607 25
1006 2 2 0 0 194 514 190
1007 2 2 0 0 373 628 76
1008 2 2 0 0 78 628 253
1009 2 2 0 0 42 47 43
1010 2 2 0 0 39 612 15
1011 2 2 0 0 16 612 29
1012 2 2 0 0 437 610 455
1013 2 2 0 0 487 497 13
1014 2 2 0 0 440 630 441
1015 2 2 0 0 479 713 562
1016 2 2 0 0 196 620 193
1017 2 2 0 0 456 572 340
1018 2 2 0 0 120 511 281
1019 2 2 0 0 577 578 235
1020 2 2 0 0 335 582 399
1021 2 2 0 0 314 741 683
1022 2 2 0 0 520 613 535
1023 2 2 0 0 585 634 584
1024 2 2 0 0 423 564 348
1025 2 2 0 0 457 561 411
1026 2 2 0 0 6 611 5
1027 2 2 0 0 385 620 537
1028 2 2 0 0 228 637 229
1029 2 2 0 0 366 637 249
1030 2 2 0 0 161 570 158
1031 2 2 0 0 434 640 435
1032 2 2 0 0 193 636 191
1033 2 2 0 0 410 606 106
1034 2 2 0 0 37 502 9
1035 2 2 0 0 36 503 17
1036 2 2 0 0 141 617 143
1037 2 2 0 0 363 627 401
1038 2 2 0 0 322 590 420
1039 2 2 0 0 357 618 128
1040 2 2 0 0 430 621 526
1041 2 2 0 0 540 687 103
1042 2 2 0 0 280 577 121
1043 2 2 0 0 276 575 318
1044 2 2 0 0 362 578 577
1045 2 2 0 0 109 649 496
1046 2 2 0 0 246 590 322
1047 2 2 0 0 326 569 381
1048 2 2 0 0 569 621 381
1049 2 2 0 0 269 569 272
1050 2 2 0 0 139 631 154
1051 2 2 0 0 649 664 496
1052 2 2 0 0 537 620 204
1053 2 2 0 0 355 461 49
1054 2 2 0 0 663 685 493
1055 2 2 0 0 479 745 207
1056 2 2 0 0 343 662 565
1057 2 2 0 0 212 557 177
1058 2 2 0 0 45 645 46
1059 2 2 0 0 496 670 109
1060 2 2 0 0 366 634 585
1061 2 2 0 0 384 616 531
1062 2 2 0 0 535 613 180
1063 2 2 0 0 391 632 364
1064 2 2 0 0 308 581 336
1065 2 2 0 0 344 625 462
1066 2 2 0 0 563 625 344
1067 2 2 0 0 13 497 14
1068 2 2 0 0 480 632 117
1069 2 2 0 0 371 668 585
1070 2 2 0 0 333 649 278
1071 2 2 0 0 387 601 521
1072 2 2 0 0 47 49 48
1073 2 2 0 0 358 615 428
1074 2 2 0 0 113 511 120
1075 2 2 0 0 527 617 382
1076 2 2 0 0 105 649 109
1077 2 2 0 0 398 573 307
1078 2 2 0 0 368 676 369
1079 2 2 0 0 180 613 178
1080 2 2 0 0 153 556 176
1081 2 2 0 0 432 657 367
1082 2 2 0 0 458 718 582
1083 2 2 0 0 207 614 183
1084 2 2 0 0 407 611 456
1085 2 2 0 0 244 623 517
1086 2 2 0 0 20 639 27
1087 2 2 0 0 476 675 87
1088 2 2 0 0 319 616 393
1089 2 2 0 0 474 707 197
1090 2 2 0 0 226 599 306
1091 2 2 0 0 47 48 43
1092 2 2 0 0 186 619 188
1093 2 2 0 0 412 732 328
1094 2 2 0 0 316 671 541
1095 2 2 0 0 293 734 478
1096 2 2 0 0 492 685 598
1097 2 2 0 0 528 629 532
1098 2 2 0 0 514 635 515
1099 2 2 0 0 531 616 319
1100 2 2 0 0 8 656 7
1101 2 2 0 0 387 602 601
1102 2 2 0 0 76 628 78
1103 2 2 0 0 122 618 516
1104 2 2 0 0 651 717 394
1105 2 2 0 0 423 623 564
1106 2 2 0 0 546 669 547
1107 2 2 0 0 4 679 34
1108 2 2 0 0 542 556 151
1109 2 2 0 0 548 609 135
1110 2 2 0 0 204 620 196
1111 2 2 0 0 529 629 528
1112 2 2 0 0 482 719 230
1113 2 2 0 0 258 627 591
1114 2 2 0 0 336 582 335
1115 2 2 0 0 197 686 667
1116 2 2 0 0 583 658 580
1117 2 2 0 0 85 675 98
1118 2 2 0 0 59 728 379
1119 2 2 0 0 400 625 338
1120 2 2 0 0 394 717 605
1121 2 2 0 0 471 650 450
1122 2 2 0 0 596 635 323
1123 2 2 0 0 249 637 228
1124 2 2 0 0 515 635 596
1125 2 2 0 0 338 625 563
1126 2 2 0 0 28 633 488
1127 2 2 0 0 566 622 361
1128 2 2 0 0 229 570 161
1129 2 2 0 0 468 654 465
1130 2 2 0 0 118 710 462
1131 2 2 0 0 15 612 16
1132 2 2 0 0 589 659 590
1133 2 2 0 0 526 621 268
1134 2 2 0 0 365 647 597
1135 2 2 0 0 579 583 235
1136 2 2 0 0 22 507 21
1137 2 2 0 0 342 682 264
1138 2 2 0 0 441 648 346
1139 2 2 0 0 191 636 198
1140 2 2 0 0 578 653 579
1141 2 2 0 0 135 609 134
1142 2 2 0 0 128 618 122
1143 2 2 0 0 378 681 310
1144 2 2 0 0 230 690 211
1145 2 2 0 0 210 690 232
1146 2 2 0 0 549 643 553
1147 2 2 0 0 233 661 247
1148 2 2 0 0 10 624 11
1149 2 2 0 0 640 709 435
1150 2 2 0 0 449 719 482
1151 2 2 0 0 452 726 33
1152 2 2 0 0 362 577 280
1153 2 2 0 0 318 575 433
1154 2 2 0 0 492 687 396
1155 2 2 0 0 586 734 293
1156 2 2 0 0 357 655 618
1157 2 2 0 0 277 567 259
1158 2 2 0 0 522 641 225
1159 2 2 0 0 511 640 281
1160 2 2 0 0 247 661 483
1161 2 2 0 0 610 693 39
1162 2 2 0 0 272 569 326
1163 2 2 0 0 490 695 70
1164 2 2 0 0 553 643 599
1165 2 2 0 0 532 629 284
1166 2 2 0 0 29 712 17
1167 2 2 0 0 632 665 117
1168 2 2 0 0 618 655 386
1169 2 2 0 0 241 699 576
1170 2 2 0 0 457 728 561
1171 2 2 0 0 485 572 456
1172 2 2 0 0 430 667 621
1173 2 2 0 0 582 672 458
1174 2 2 0 0 395 687 540
1175 2 2 0 0 504 594 44
1176 2 2 0 0 181 713 207
1177 2 2 0 0 197 707 184
1178 2 2 0 0 524 657 556
1179 2 2 0 0 475 536 498
1180 2 2 0 0 394 738 320
1181 2 2 0 0 51 714 561
1182 2 2 0 0 151 556 153
1183 2 2 0 0 437 693 610
1184 2 2 0 0 361 626 568
1185 2 2 0 0 611 679 5
1186 2 2 0 0 231 680 643
1187 2 2 0 0 462 706 118
1188 2 2 0 0 390 670 496
1189 2 2 0 0 602 642 601
1190 2 2 0 0 49 330 48
1191 2 2 0 0 391 665 632
1192 2 2 0 0 508 737 375
1193 2 2 0 0 450 650 552
1194 2 2 0 0 368 732 476
1195 2 2 0 0 578 579 235
1196 2 2 0 0 402 581 308
1197 2 2 0 0 43 486 41
1198 2 2 0 0 562 713 179
1199 2 2 0 0 592 632 480
1200 2 2 0 0 416 641 522
1201 2 2 0 0 372 668 371
1202 2 2 0 0 452 712 439
1203 2 2 0 0 282 720 455
1204 2 2 0 0 556 657 176
1205 2 2 0 0 364 632 592
1206 2 2 0 0 403 726 452
1207 2 2 0 0 465 654 623
1208 2 2 0 0 278 649 105
1209 2 2 0 0 154 652 617
1210 2 2 0 0 383 688 603
1211 2 2 0 0 451 719 447
1212 2 2 0 0 317 709 640
1213 2 2 0 0 604 711 642
1214 2 2 0 0 382 652 383
1215 2 2 0 0 601 642 389
1216 2 2 0 0 284 671 316
1217 2 2 0 0 599 643 402
1218 2 2 0 0 388 633 624
1219 2 2 0 0 267 678 311
1220 2 2 0 0 337 681 530
1221 2 2 0 0 279 661 233
1222 2 2 0 0 605 738 394
1223 2 2 0 0 33 677 504
1224 2 2 0 0 386 655 387
1225 2 2 0 0 547 669 631
1226 2 2 0 0 562 731 479
1227 2 2 0 0 360 648 595
1228 2 2 0 0 432 692 657
1229 2 2 0 0 367 657 524
1230 2 2 0 0 633 695 488
1231 2 2 0 0 415 473 341
1232 2 2 0 0 644 672 336
1233 2 2 0 0 551 633 388
1234 2 2 0 0 533 648 360
1235 2 2 0 0 407 679 611
1236 2 2 0 0 323 635 615
1237 2 2 0 0 530 681 529
1238 2 2 0 0 393 651 394
1239 2 2 0 0 387 655 602
1240 2 2 0 0 238 703 574
1241 2 2 0 0 594 677 505
1242 2 2 0 0 559 692 560
1243 2 2 0 0 621 667 381
1244 2 2 0 0 405 674 376
1245 2 2 0 0 325 732 368
1246 2 2 0 0 623 654 517
1247 2 2 0 0 581 644 336
1248 2 2 0 0 346 648 533
1249 2 2 0 0 517 654 279
1250 2 2 0 0 477 705 481
1251 2 2 0 0 481 705 355
1252 2 2 0 0 561 728 57
1253 2 2 0 0 379 705 477
1254 2 2 0 0 617 652 382
1255 2 2 0 0 30 650 500
1256 2 2 0 0 376 674 385
1257 2 2 0 0 518 715 519
1258 2 2 0 0 474 667 430
1259 2 2 0 0 478 734 294
1260 2 2 0 0 624 633 28
1261 2 2 0 0 186 707 619
1262 2 2 0 0 64 663 475
1263 2 2 0 0 597 647 258
1264 2 2 0 0 377 738 605
1265 2 2 0 0 31 735 467
1266 2 2 0 0 27 718 458
1267 2 2 0 0 419 673 68
1268 2 2 0 0 616 722 393
1269 2 2 0 0 24 723 419
1270 2 2 0 0 397 638 48
1271 2 2 0 0 404 730 460
1272 2 2 0 0 91 676 472
1273 2 2 0 0 622 626 361
1274 2 2 0 0 7 656 32
1275 2 2 0 0 576 697 277
1276 2 2 0 0 471 691 650
1277 2 2 0 0 536 663 373
1278 2 2 0 0 484 691 471
1279 2 2 0 0 552 650 30
1280 2 2 0 0 311 678 600
1281 2 2 0 0 486 729 5
1282 2 2 0 0 418 673 666
1283 2 2 0 0 232 680 231
1284 2 2 0 0 5 679 4
1285 2 2 0 0 117 665 539
1286 2 2 0 0 384 702 616
1287 2 2 0 0 557 702 221
1288 2 2 0 0 87 675 85
1289 2 2 0 0 225 711 604
1290 2 2 0 0 505 677 571
1291 2 2 0 0 483 661 494
1292 2 2 0 0 263 565 375
1293 2 2 0 0 504 677 594
1294 2 2 0 0 582 718 399
1295 2 2 0 0 645 714 46
1296 2 2 0 0 534 708 392
1297 2 2 0 0 643 680 402
1298 2 2 0 0 18 712 452
1299 2 2 0 0 392 670 390
1300 2 2 0 0 221 702 603
1301 2 2 0 0 496 664 391
1302 2 2 0 0 606 710 118
1303 2 2 0 0 655 703 602
1304 2 2 0 0 608 676 91
1305 2 2 0 0 194 684 514
1306 2 2 0 0 541 671 378
1307 2 2 0 0 154 669 652
1308 2 2 0 0 399 718 639
1309 2 2 0 0 405 715 674
1310 2 2 0 0 33 726 677
1311 2 2 0 0 629 671 284
1312 2 2 0 0 468 735 495
1313 2 2 0 0 469 704 408
1314 2 2 0 0 427 745 479
1315 2 2 0 0 294 734 251
1316 2 2 0 0 461 705 379
1317 2 2 0 0 385 674 636
1318 2 2 0 0 657 692 176
1319 2 2 0 0 561 714 411
1320 2 2 0 0 631 669 154
1321 2 2 0 0 264 682 265
1322 2 2 0 0 43 638 486
1323 2 2 0 0 48 638 43
1324 2 2 0 0 194 744 684
1325 2 2 0 0 381 686 380
1326 2 2 0 0 658 716 589
1327 2 2 0 0 263 567 565
1328 2 2 0 0 310 681 337
1329 2 2 0 0 493 685 492
1330 2 2 0 0 64 685 663
1331 2 2 0 0 309 678 267
1332 2 2 0 0 600 678 431
1333 2 2 0 0 538 694 333
1334 2 2 0 0 598 685 64
1335 2 2 0 0 551 695 633
1336 2 2 0 0 560 699 241
1337 2 2 0 0 211 690 210
1338 2 2 0 0 2 723 3
1339 2 2 0 0 630 708 441
1340 2 2 0 0 467 735 468
1341 2 2 0 0 396 687 395
1342 2 2 0 0 35 507 22
1343 2 2 0 0 259 567 263
1344 2 2 0 0 417 673 418
1345 2 2 0 0 614 686 197
1346 2 2 0 0 392 708 630
1347 2 2 0 0 5 729 6
1348 2 2 0 0 279 725 661
1349 2 2 0 0 6 729 26
1350 2 2 0 0 357 703 655
1351 2 2 0 0 514 684 635
1352 2 2 0 0 540 733 538
1353 2 2 0 0 374 741 593
1354 2 2 0 0 176 692 559
1355 2 2 0 0 650 691 500
1356 2 2 0 0 484 736 691
1357 2 2 0 0 83 733 540
1358 2 2 0 0 558 740 372
1359 2 2 0 0 626 697 555
1360 2 2 0 0 436 693 437
1361 2 2 0 0 375 737 374
1362 2 2 0 0 475 663 536
1363 2 2 0 0 636 674 198
1364 2 2 0 0 674 715 198
1365 2 2 0 0 70 695 551
1366 2 2 0 0 406 721 407
1367 2 2 0 0 677 726 571
1368 2 2 0 0 258 647 627
1369 2 2 0 0 448 701 451
1370 2 2 0 0 458 672 506
1371 2 2 0 0 229 700 570
1372 2 2 0 0 684 744 428
1373 2 2 0 0 570 700 544
1374 2 2 0 0 678 742 431
1375 2 2 0 0 646 741 314
1376 2 2 0 0 603 702 384
1377 2 2 0 0 478 731 293
1378 2 2 0 0 309 742 678
1379 2 2 0 0 380 686 614
1380 2 2 0 0 494 725 468
1381 2 2 0 0 500 691 38
1382 2 2 0 0 635 684 615
1383 2 2 0 0 661 725 494
1384 2 2 0 0 679 721 34
1385 2 2 0 0 509 510 35
1386 2 2 0 0 46 714 51
1387 2 2 0 0 615 684 428
1388 2 2 0 0 432 742 689
1389 2 2 0 0 179 713 181
1390 2 2 0 0 26 739 645
1391 2 2 0 0 35 510 507
1392 2 2 0 0 574 703 357
1393 2 2 0 0 184 707 186
1394 2 2 0 0 39 693 612
1395 2 2 0 0 665 694 539
1396 2 2 0 0 312 708 534
1397 2 2 0 0 554 689 309
1398 2 2 0 0 1 737 508
1399 2 2 0 0 519 717 520
1400 2 2 0 0 277 697 622
1401 2 2 0 0 389 711 641
1402 2 2 0 0 495 736 484
1403 2 2 0 0 17 712 18
1404 2 2 0 0 212 722 557
1405 2 2 0 0 455 720 438
1406 2 2 0 0 622 697 626
1407 2 2 0 0 664 694 665
1408 2 2 0 0 447 719 449
1409 2 2 0 0 669 688 652
1410 2 2 0 0 612 693 436
1411 2 2 0 0 619 744 194
1412 2 2 0 0 57 728 59
1413 2 2 0 0 579 658 583
1414 2 2 0 0 438 727 525
1415 2 2 0 0 539 733 83
1416 2 2 0 0 479 731 478
1417 2 2 0 0 691 736 38
1418 2 2 0 0 401 724 400
1419 2 2 0 0 420 660 2
1420 2 2 0 0 328 732 325
1421 2 2 0 0 320 738 453
1422 2 2 0 0 428 744 429
1423 2 2 0 0 431 742 432
1424 2 2 0 0 425 745 427
1425 2 2 0 0 408 743 434
1426 2 2 0 0 571 726 403
1427 2 2 0 0 119 727 523
1428 2 2 0 0 625 706 462
1429 2 2 0 0 525 730 404
1430 2 2 0 0 499 736 495
1431 2 2 0 0 468 725 654
1432 2 2 0 0 336 672 582
1433 2 2 0 0 198 715 518
1434 2 2 0 0 400 724 706
1435 2 2 0 0 402 680 581
1436 2 2 0 0 589 716 659
1437 2 2 0 0 727 730 525
1438 2 2 0 0 664 665 391
1439 2 2 0 0 337 740 558
1440 2 2 0 0 293 731 562
1441 2 2 0 0 523 720 282
1442 2 2 0 0 460 730 119
1443 2 2 0 0 641 711 225
1444 2 2 0 0 429 744 619
1445 2 2 0 0 119 730 727
1446 2 2 0 0 651 722 212
1447 2 2 0 0 38 736 499
1448 2 2 0 0 667 686 381
1449 2 2 0 0 652 688 383
1450 2 2 0 0 410 710 606
1451 2 2 0 0 644 701 448
1452 2 2 0 0 666 673 419
1453 2 2 0 0 704 743 408
1454 2 2 0 0 251 734 586
1455 2 2 0 0 400 706 625
1456 2 2 0 0 546 688 669
1457 2 2 0 0 668 700 229
1458 2 2 0 0 538 733 694
1459 2 2 0 0 333 694 664
1460 2 2 0 0 565 662 375
1461 2 2 0 0 720 727 438
1462 2 2 0 0 372 700 668
1463 2 2 0 0 579 716 658
1464 2 2 0 0 642 711 389
1465 2 2 0 0 355 705 461
1466 2 2 0 0 407 721 679
1467 2 2 0 0 523 727 720
1468 2 2 0 0 654 725 279
1469 2 2 0 0 639 718 27
1470 2 2 0 0 694 733 539
1471 2 2 0 0 393 722 651
1472 2 2 0 0 645 739 397
1473 2 2 0 0 683 741 374
1474 2 2 0 0 397 739 638
1475 2 2 0 0 653 716 579
1476 2 2 0 0 666 723 660
1477 2 2 0 0 419 723 666
1478 2 2 0 0 374 737 683
1479 2 2 0 0 593 741 646
1480 2 2 0 0 683 737 1
1481 2 2 0 0 689 742 309
1482 2 2 0 0 660 723 2
1483 2 2 0 0 23 25 1
1484 2 2 0 0 25 607 1
1485 2 2 0 0 3 34 2
1486 2 2 0 0 34 415 2
$EndElements
