$MeshFormat
2.2 0 8
$EndMeshFormat
$Nodes
745
1 4.7562599907538172e-05 2.1026590288086441e-05 1.0258801876426174e-03
2 4.1296314739583462e-05 -5.1565000240667002e-05 -1.0236871439038291e-03
3 1.2842695246314392e-04 9.6902923514136961e-06 -1.0167068028506152e-03
4 2.3816366928831265e-04 3.1406796395595193e-05 -9.9553971215301834e-04
5 3.8368897033954290e-04 3.0734558089964745e-05 -9.4547943259494169e-04
6 5.2565104894508835e-04 -4.8299899055360080e-06 -8.6808320749637811e-04
7 6.3787115462570778e-04 1.7883961564056273e-06 -7.8237675895392238e-04
8 7.2703526506041687e-04 4.9743645628931769e-06 -6.9352398327722541e-04
9 8.1831856792226635e-04 -2.3044180404900549e-06 -5.7369605110646146e-04
10 8.9023526023108090e-04 -2.8194622075487965e-06 -4.4428741299169707e-04
11 9.4887467386817442e-04 9.7358524253997148e-08 -2.8638167808154403e-04
12 9.8056537850565420e-04 5.6690057200350255e-06 -1.2941652838799222e-04
13 9.8838732300570169e-04 -2.5374903526995658e-06 1.3751261294967079e-05
14 9.7652334873559767e-04 5.4386478301052199e-07 1.5756828046346462e-04
15 9.4392282664931750e-04 7.0681717608574874e-06 3.0314753620974672e-04
16 8.8872921718955453e-04 1.1339476867130134e-05 4.4791228238561214e-04
17 8.2249468715161057e-04 1.4353920199223434e-07 5.6778591964024645e-04
18 7.3354676805944576e-04 -9.7756162984297384e-06 6.8658441402980996e-04
19 6.3379752285812416e-04 -7.5199350727371532e-06 7.8682492730672890e-04
20 5.0665260984038036e-04 -4.0471738745491711e-06 8.8094551624152376e-04
21 3.8198126820928170e-04 3.5885315244779994e-06 9.4658852085904399e-04
22 2.6136031614137987e-04 9.0628796575541725e-06 9.8999451546307056e-04
23 1.4618457126033176e-04 -1.8510114146466148e-05 1.0146007619842594e-03
24 1.6777531371676283e-04 1.1800780938363753e-04 -1.0041429638462742e-03
25 1.7340700669982010e-04 9.7894190041190936e-05 1.0062785936887132e-03
26 5.8859491967430926e-04 1.1638171050798199e-04 -8.1366907390365332e-04
27 5.6776550351178947e-04 -1.1831691816350105e-04 8.3050205544484945e-04
28 9.5959523187020017e-04 1.3312568733213502e-04 -2.0289594566036832e-04
29 8.4259118628447261e-04 1.6081897230886701e-04 5.1010117150526333e-04
30 9.1269862746493427e-04 -1.2094787535232867e-04 3.7239431997518248e-04
31 9.6118132996847710e-04 -1.1623712774528773e-04 -2.0580283123052760e-04
32 5.6431848448115036e-04 -1.1045264160833255e-04 -8.3385332329487792e-04
33 5.6247938591364344e-04 1.0239799370560570e-04 8.3638544290827216e-04
34 1.6947903192268592e-04 -9.4591038181552012e-05 -1.0068797938107613e-03
35 2.0083525668496821e-04 -1.0960109438289081e-04 9.9860445617604241e-04
36 7.7302989271214287e-04 -1.2360150216009485e-04 6.2545019740329699e-04
37 7.6991421981942082e-04 1.2889392253962850e-04 -6.2734194736784878e-04
38 9.7894079108595063e-04 -1.1019525963333164e-04 8.1860317843230148e-05
39 9.5707195303052959e-04 1.2551420552633284e-04 2.1906591427800975e-04
40 8.4784038447388837e-04 -1.3034091226637014e-04 -5.0833045042211940e-04
41 2.9049094218956619e-04 1.2297044433401164e-04 -9.7219006003144038e-04
42 2.2368251421328735e-04 2.3847309411038225e-04 -9.6783195441500682e-04
43 3.3938468725511119e-04 2.4353468334257749e-04 -9.2879150011619270e-04
44 3.0980829327872174e-04 1.1336492967755057e-04 9.6769279981175895e-04
45 6.7372005299804404e-04 1.2483355905650907e-04 -7.3774261712117621e-04
46 7.0248285344529527e-04 2.4444966389901393e-04 -6.7356922217777406e-04
47 2.7976687771895625e-04 3.5064149059183707e-04 -9.1317557507915510e-04
48 3.8625526739768251e-04 3.4585665710051795e-04 -8.7201113122375952e-04
49 3.2072977819775760e-04 4.4305163614220252e-04 -8.5291415927149083e-04
50 7.9048853651920710e-04 2.5340727417091235e-04 -5.5459944545289562e-04
51 7.1853213976054984e-04 3.7247007970724467e-04 -5.8652971570977023e-04
52 7.9974604804287637e-04 3.6829935441826122e-04 -4.6345915385272098e-04
53 7.1525790739972389e-04 4.8314454366332125e-04 -4.9707376575553364e-04
54 7.8642267899501999e-04 4.7871963799978447e-04 -3.7009246580624712e-04
55 6.9878752967098901e-04 5.8326398290489050e-04 -3.9656808772376074e-04
56 7.6109176048924870e-04 5.7526086206724644e-04 -2.6466547790247207e-04
57 6.2620389017252790e-04 5.8118772082984139e-04 -5.1248975819576331e-04
58 5.9379016321214559e-04 6.7735510792113159e-04 -4.1863979239172965e-04
59 5.0811027617694317e-04 6.6814304584994738e-04 -5.3825029290541443e-04
60 4.6920781210475949e-04 7.6154969794336232e-04 -4.3256895228454520e-04
61 3.8008117077256302e-04 7.4240994977674301e-04 -5.4740842663286997e-04
62 3.4655145589614897e-04 8.3034980004552980e-04 -4.2059775233620282e-04
63 2.1115574507437333e-04 4.4973497010620145e-04 -8.8559157465002843e-04
64 4.3411619875779848e-04 8.3400207129550479e-04 -3.1087221423693837e-04
65 2.4296479047065923e-04 8.0951444902705426e-04 -5.2867755024888559e-04
66 2.1915526228002906e-04 8.8419714494352743e-04 -3.9391475132712284e-04
67 1.1344004439649078e-04 8.5520352667667950e-04 -4.9722774061573458e-04
68 1.0337404411113569e-04 2.4325107818866257e-04 -9.8818603709038117e-04
69 1.3286859836140935e-04 7.6437145874822790e-04 -6.3406724156491335e-04
70 8.3621563501645670e-04 4.7066605898668832e-04 -2.4203415080498107e-04
71 8.1143498141712995e-04 5.5043640255487860e-04 -1.2550837444929696e-04
72 7.2220897305662205e-04 6.5769102642533107e-04 -1.5176679528465281e-04
73 7.6221498923387319e-04 6.2815169198429514e-04 -2.0862543882493660e-05
74 6.6454580082663732e-04 7.2984671412707012e-04 -3.6644931685937062e-05
75 6.9284455072804506e-04 6.9867745892045316e-04 8.8426190185401888e-05
76 5.8396573776774206e-04 7.9293851059198479e-04 7.7756086396574687e-05
77 6.1191475509382034e-04 7.4961347365031059e-04 2.0475814580739115e-04
78 4.9914045318034679e-04 8.3220124550652599e-04 1.8977157645114844e-04
79 9.0694107481006526e-05 9.2061833626323362e-04 -3.5691494512030873e-04
80 -1.8639315728910354e-05 8.8650860229802758e-04 -4.4895818682715716e-04
81 2.4104025879681165e-04 2.2305720998432374e-04 9.6816799275069613e-04
82 5.2045556502655491e-04 7.7601057794207348e-04 3.3150261090227648e-04
83 -3.7625290936617361e-05 9.3715712569030906e-04 -3.1774330159907167e-04
84 4.0043076383605670e-04 8.5862132980178501e-04 2.8829977702356886e-04
85 4.1544514152800759e-04 7.9928891797519271e-04 4.1876516913267280e-04
86 2.9206012932025130e-04 8.6734415484345515e-04 3.8349310041579969e-04
87 3.0230463547185438e-04 7.9790920097117999e-04 5.1408148505607744e-04
88 1.8132596429073426e-04 8.4996503099291467e-04 4.8496161456121730e-04
89 1.6538862622566525e-04 9.1325077296411448e-04 3.4836561141726632e-04
90 5.5778733244947907e-05 8.8513188604169861e-04 4.4876082982296038e-04
91 7.5413828612697504e-05 8.1203977869246031e-04 5.7626759299893304e-04
92 -4.5699379435431301e-05 8.4330529451545589e-04 5.2887037194418365e-04
93 -7.9203388824983692e-05 9.0446763060067102e-04 4.0078261250519622e-04
94 -1.8404962907079680e-04 8.5384148111665350e-04 4.7574514406821164e-04
95 -1.4703076365660931e-04 7.9108242818896120e-04 5.9079615416970195e-04
96 -2.1598081834335210e-04 9.0191757651738051e-04 3.4963271197045867e-04
97 1.1255912854813378e-04 2.2083132856269550e-04 9.9362472470570823e-04
98 5.3462870937582348e-04 6.8936441893741637e-04 4.8160763664705403e-04
99 1.7194257999431810e-04 3.3726156285379715e-04 9.4775339182228302e-04
100 4.1462723011788810e-05 3.4332960339607043e-04 9.6110693316464949e-04
101 -1.3074104098624495e-05 2.2530027230895926e-04 9.9916010057621231e-04
102 -9.0328126546032652e-05 3.2918018751310274e-04 9.6274265605551974e-04
103 1.8787012623753662e-04 9.3636188299803214e-04 -2.5872431352104696e-04
104 -1.0791885115147201e-04 9.4827950609221957e-04 2.6069559424864663e-04
105 -2.3942181351008660e-04 9.3475093583963022e-04 2.1504681064814013e-04
106 -3.4476571738751617e-04 8.7973788355432249e-04 2.9534902868993685e-04
107 -1.4925142143132328e-04 8.9871333809380229e-04 -3.9292840904579584e-04
108 -1.3505609245992236e-04 8.3373193530850728e-04 -5.2889955522987823e-04
109 -3.6817388853800073e-04 9.0329383067044573e-04 1.5608941894112313e-04
110 -2.6394776312439847e-04 8.3676676544353827e-04 -4.6803143002355593e-04
111 -2.3774843604313861e-04 7.6492453570284617e-04 -5.9750068371926875e-04
112 -3.7137499129392807e-04 7.5246004441109908e-04 -5.3835973364991813e-04
113 -3.3586523838087534e-04 6.7106248153573646e-04 -6.6471219770881842e-04
114 -4.6231002095113971e-04 6.5673461314340645e-04 -5.9468629707294988e-04
115 -4.1718335476696218e-04 5.6231623826943076e-04 -7.2163728191003689e-04
116 -4.9071600179957685e-04 7.3769815367389355e-04 -4.5051869657190813e-04
117 -2.8030719973662940e-04 8.9272892925634101e-04 -3.2490094544088247e-04
118 -2.8141226020581754e-04 7.7369998535057932e-04 5.6505015185483360e-04
119 7.0111463005832991e-04 6.6190114987619371e-04 2.2007775021092794e-04
120 -2.8838570302790233e-04 5.7469149840662197e-04 -7.7710763186732916e-04
121 -3.6749604291559510e-04 4.6021016486627169e-04 -8.2227771039886490e-04
122 -4.9132343759134619e-04 4.6257948752614810e-04 -7.4730806973037167e-04
123 -4.3192460337300795e-04 3.5649434192916164e-04 -8.4400021900655521e-04
124 -5.7994960401680561e-04 6.3908843016266884e-04 -4.9602241880919516e-04
125 -5.9983313401320876e-04 7.0313678484407594e-04 -3.5871382843278128e-04
126 -6.8766530211188939e-04 5.9204307707331442e-04 -4.0218696245797163e-04
127 -4.6441561536512705e-04 8.4065308585951179e-04 2.3585633381995944e-04
128 -5.6578218294322581e-04 3.5264197957740194e-04 -7.5509819516542446e-04
129 -5.0554549584029887e-04 2.4200996896998276e-04 -8.4362609631894803e-04
130 -6.3153135659137411e-04 2.3560851763284777e-04 -7.4810125192052203e-04
131 -5.6890761231184782e-04 1.1962072965863182e-04 -8.2830560235361522e-04
132 -6.8593086259250812e-04 9.9384744521876682e-05 -7.2928998009773544e-04
133 -6.0774940787604174e-04 -7.2880304893254846e-06 -8.0767719900722002e-04
134 -7.1572394529120082e-04 -3.4860965423177946e-05 -7.0462722301836028e-04
135 -6.3209279040260318e-04 -1.4404097243486699e-04 -7.7298702803056825e-04
136 -7.8519734047484858e-04 7.7106004216580783e-05 -6.1536024092234297e-04
137 -8.0909493387567970e-04 -6.3377246117862920e-05 -5.8287069261558878e-04
138 -8.6603110322076241e-04 4.7869009799112448e-05 -4.8878461973260153e-04
139 -8.8218164420843194e-04 -8.8335700376306701e-05 -4.5006531499078094e-04
140 -9.2727796487541633e-04 1.1087099677580476e-05 -3.5071342517269203e-04
141 -9.3384335344356972e-04 -1.1849453204635945e-04 -3.0872396851422667e-04
142 -9.6537512200419373e-04 -1.2394714133981444e-05 -2.1415229339160092e-04
143 -9.6275859532063076e-04 -1.4301490781328969e-04 -1.7278813788750873e-04
144 -9.8370958946836316e-04 -3.0398162600515991e-05 -8.3532503697392294e-05
145 -9.7441217763324299e-04 -1.5717792254131763e-04 -3.6855355616406879e-05
146 -9.8491912192084289e-04 -4.5034205914282366e-05 5.7707396141000769e-05
147 -9.6739805065992608e-04 -1.7142568640357694e-04 1.0532215994535951e-04
148 -9.4555259872377098e-04 -2.8572155186918599e-04 1.1665431790861237e-05
149 -9.2815372247693931e-04 -3.0512152039234239e-04 1.5134060830572212e-04
150 -9.3809353070441843e-04 -1.9196819728174095e-04 2.5099080271168692e-04
151 -8.8909042774563583e-04 -3.2382108843401647e-04 2.9384546815358246e-04
152 -8.8948678566275457e-04 -2.1095565786292560e-04 3.8737712484465350e-04
153 -8.3263889794584910e-04 -3.3010109352192823e-04 4.3128091338185949e-04
154 -8.8352559195275864e-04 -2.1719568842910810e-04 -3.9722559648257939e-04
155 -8.2417884133337261e-04 -2.1274604023742633e-04 5.1893099434047662e-04
156 -7.5750686890639651e-04 -3.2761355968040487e-04 5.6208113859722276e-04
157 -8.7463682556388118e-04 -7.9466825228641499e-05 4.6804543770526455e-04
158 -7.3776506670865990e-04 -2.1064729355624781e-04 6.4454280658536340e-04
159 -6.5705459318831966e-04 -3.3309474715270953e-04 6.8225121493732904e-04
160 -9.8387443430046368e-04 8.3014531819883543e-05 4.3913497545713555e-06
161 -6.3314695049939914e-04 -2.0954070096984844e-04 7.5559014032456121e-04
162 -5.4080007919073028e-04 -3.2341139730880474e-04 7.8955432899297971e-04
163 -5.1608532760513053e-04 -1.1196215941196741e-04 -8.6646581082673081e-04
164 -5.4510914197874907e-04 -2.4600370279268202e-04 -8.1579836995630491e-04
165 -7.0156905522427923e-04 6.4180140494036759e-04 -2.7438784118912054e-04
166 -1.5198344678016068e-04 2.1246332804580724e-04 9.8970533081833389e-04
167 -2.2167026824727716e-04 3.1685253994853912e-04 9.4392045609407744e-04
168 -4.2767212664214537e-04 -2.1442623763409058e-04 -8.9731270928067016e-04
169 -4.4526309906044750e-04 -3.4011397169708197e-04 -8.4440619725573206e-04
170 -5.5446115660104584e-04 -3.7938566930351321e-04 -7.5111754364451876e-04
171 -4.4895765169903463e-04 -4.7113025976249802e-04 -7.7109675895274915e-04
172 -5.5777421322683856e-04 -5.0740380912555434e-04 -6.6160566168935067e-04
173 -4.4462575471001966e-04 -5.9707305028090850e-04 -6.7341576042468645e-04
174 -5.4478903845998493e-04 -6.2123751501498570e-04 -5.6093549677760542e-04
175 -4.3113187994195108e-04 -7.0765249113036654e-04 -5.5743843210774471e-04
176 -7.6527036936505641e-04 -4.2942411271732882e-04 4.6931984908852941e-04
177 -5.2728362344728395e-04 -7.1370023141556168e-04 -4.4963309147125679e-04
178 -4.0001919365978823e-04 -7.9773566577082176e-04 -4.3921082643110627e-04
179 -3.0501612885175362e-04 -7.7827127878568245e-04 -5.4544266287097473e-04
180 -2.6806313173083726e-04 -8.5861748070222162e-04 -4.2377966022379235e-04
181 -1.6774006384954381e-04 -8.2909306644404020e-04 -5.2894475749860144e-04
182 -1.3318263866861721e-04 -8.9862452041842861e-04 -4.0318177535983001e-04
183 -3.5158031044547200e-05 -8.5251190044622390e-04 -5.1682045076098851e-04
184 -5.1758317821931878e-06 -9.1684680109267692e-04 -3.8219901111154198e-04
185 -9.3711499322244303e-05 -9.4787273437376438e-04 -2.7365796030443359e-04
186 4.1784077194439831e-05 -9.5781584724813557e-04 -2.4916345527056701e-04
187 -5.3294279270399735e-05 -9.7658157163542782e-04 -1.4897467714959206e-04
188 8.5977309038383663e-05 -9.7755041689513841e-04 -1.2453497179813844e-04
189 -8.5804223252454647e-06 -9.8833253247814900e-04 -2.0498780827989596e-05
190 1.2000416042629754e-04 -9.8123054069423226e-04 1.1853622337401210e-05
191 3.3704204858244186e-05 -9.8165172798877218e-04 1.1602632430611803e-04
192 1.6178564366968164e-04 -9.6472253143435583e-04 1.4875510803961126e-04
193 7.3033247455780954e-05 -9.5632497345832224e-04 2.4857147728923196e-04
194 2.0465603251988614e-04 -9.6323258612187354e-04 -8.8836095858766211e-05
195 2.0056033976934500e-04 -9.3023488255494107e-04 2.7788694425579311e-04
196 1.0201741957995366e-04 -9.1230155176018628e-04 3.8028549746283640e-04
197 1.1253150629567263e-04 -8.6489248392926973e-04 -4.8298994596761519e-04
198 -9.1481073202189889e-05 -9.8091566177197615e-04 8.1952945886296593e-05
199 2.3302989672063557e-04 -8.7858116376531481e-04 4.0284624194351649e-04
200 3.2769909457893191e-04 -8.8735250891057329e-04 2.9795112075992991e-04
201 3.5405990752900512e-04 -8.2652415997365816e-04 4.2562131159256154e-04
202 1.3217568970411213e-04 -8.4795676087643605e-04 5.0854463725527545e-04
203 4.4793196227710760e-04 -8.2519341186542794e-04 3.2068126411831382e-04
204 -3.6048482881080120e-06 -8.7561542014994624e-04 4.7555832953955537e-04
205 3.2653267026465318e-05 -7.9663357259419530e-04 6.0582224077018797e-04
206 -8.9335301922292408e-04 -4.1805173212204079e-04 5.9812302148453023e-05
207 -7.3770560830083457e-05 -7.6943623900893620e-04 -6.3869829736457626e-04
208 -1.0732447567710395e-04 -8.1748687537627914e-04 5.6513313830730647e-04
209 -7.0382721083519180e-05 -7.3023805883097115e-04 6.8700833151117617e-04
210 4.6665756161825352e-04 -7.5779542069984054e-04 4.4569630158128917e-04
211 5.5696190163197852e-04 -7.5146230349936881e-04 3.3120161638258418e-04
212 -4.8880922089804431e-04 -7.9527157733640878e-04 -3.3497314316055336e-04
213 6.5327716032898223e-05 -7.0304518591604440e-04 7.1756480353331656e-04
214 -3.6060498390831952e-05 -6.2886171803811690e-04 7.9043934092788378e-04
215 -3.2046547387767796e-04 -3.1396342078698116e-04 -9.1387893959989932e-04
216 -2.0510424173690768e-04 -7.4548748212165843e-04 6.3825484665586487e-04
217 -2.3905806390696845e-04 -8.2102815702160114e-04 5.1355414857594890e-04
218 5.3830606143401110e-04 -8.0461180643268755e-04 2.0859499729639986e-04
219 6.5304321321841077e-04 -7.0940968621396817e-04 2.2751943092185240e-04
220 6.1819359472363499e-04 -7.6612563645538957e-04 9.7563467830439536e-05
221 -6.2976845776920758e-04 -6.2848839799862686e-04 -4.4419896429673218e-04
222 7.2427327930585242e-04 -6.6414658618818849e-04 1.1617613369877263e-04
223 6.7982375846211524e-04 -7.1794662803374406e-04 -2.0040265944763652e-05
224 -3.0870369306672387e-04 -1.7739919334390508e-04 -9.5704060702904025e-04
225 -9.4872443660102038e-04 1.0741225905763057e-04 -2.5906957070336885e-04
226 9.6511827406117360e-05 -5.9405750330893516e-04 8.1388912740592938e-04
227 -2.2791759875336722e-06 -5.1923505386422650e-04 8.7322892618142342e-04
228 -5.1920806702918684e-04 -1.8574099928054388e-04 8.5072741786772774e-04
229 -5.9532781678732917e-04 -7.9695655685236061e-05 8.1324586834574187e-04
230 6.5568638646354351e-04 -6.5442621303598094e-04 3.5732460174146163e-04
231 3.7667292386986287e-04 -7.5059530488181408e-04 5.4014645912782140e-04
232 4.9832988314757389e-04 -6.6401430243923803e-04 5.5732644606368113e-04
233 7.7353727453325825e-04 -6.1592502213276559e-04 -5.2425996547280149e-06
234 7.2995121628719481e-04 -6.5396677862728327e-04 -1.3579194395177445e-04
235 -3.7488180634388595e-04 2.4145231510185546e-04 -9.1487999052718909e-04
236 3.0974876003689089e-04 3.4172443030363231e-04 9.0719925323903979e-04
237 -4.2600516323276907e-04 -2.9507669225813733e-04 8.7346117710504175e-04
238 -8.3259307252957205e-04 1.9237699890452237e-04 -5.1357351401776533e-04
239 6.2729299752681516e-04 -7.4921257392429987e-04 -1.5673292491973816e-04
240 6.7092861086194913e-04 -6.7636260987267874e-04 -2.7376932464429169e-04
241 -5.7483239966527858e-04 -4.3872842566933880e-04 6.9798124586961587e-04
242 5.6272013583256303e-04 -7.6189068126330086e-04 -2.9336430771379445e-04
243 5.9894465849307985e-04 -6.8242946461629240e-04 -4.0480071999821147e-04
244 6.9839714779333228e-04 -5.8934096860629678e-04 -3.9051698953021074e-04
245 6.1653111232832928e-04 -5.9136894770607355e-04 -5.1509357194541811e-04
246 -2.0296198135329456e-04 -2.5625027900342986e-04 -9.6841608567986971e-04
247 8.0973909505574612e-04 -5.5557110078952542e-04 1.2062797121492960e-04
248 2.3899203276321759e-04 4.4363019720548825e-04 8.8196907754665684e-04
249 -3.9706614845850825e-04 -1.5270214052753650e-04 9.2605766501542152e-04
250 3.6198586871068688e-04 4.4547398942234028e-04 8.3422641020833028e-04
251 -2.1295363358424162e-04 -3.7755271981480349e-04 -9.2181599870588111e-04
252 -8.8528795142266649e-05 -3.2741412428165858e-04 -9.6411732552494295e-04
253 3.7722552508071141e-04 9.0193396078634485e-04 1.4384463109826158e-04
254 -6.0986450181234385e-04 7.4484814841785862e-04 -2.2564159180288873e-04
255 -7.0516231506620041e-04 6.7659020667454849e-04 -1.4358151093832821e-04
256 -7.8691399311567767e-04 5.6962665593577526e-04 -1.8155573450398914e-04
257 -7.8111954282393797e-04 6.0172080892975514e-04 -4.7242561380328507e-05
258 -2.1923333266973232e-05 4.4029124987419424e-04 9.1769773794848301e-04
259 -3.0295619081206635e-04 -2.5422762305293443e-04 9.4048027433589639e-04
260 -2.8190132286302932e-04 1.9573669341148658e-04 9.6211646261228914e-04
261 -3.5029506356396478e-04 3.0931028509373993e-04 9.0347353201859694e-04
262 -2.6933926779265269e-04 -1.3935941077551850e-04 9.7692896820289455e-04
263 -1.7634793690149905e-04 -2.2073931400369548e-04 9.8381793323059383e-04
264 -8.5209450750244368e-04 4.9187678566176062e-04 -8.3717652130798836e-05
265 -8.3309271804172158e-04 5.2651703866272320e-04 5.8410630269080143e-05
266 -3.3631887780596724e-04 -7.4152289999643403e-04 5.8039104924067402e-04
267 -3.6719551484188084e-04 -8.0686093165974909e-04 4.5223728765235953e-04
268 5.1259225768288173e-04 -6.7990380706940007e-04 -5.1998166681104701e-04
269 5.2154725431840241e-04 -5.7601359220641585e-04 -6.3312107434058777e-04
270 6.2072265325361449e-04 -4.7952725059606554e-04 -6.2333802677120784e-04
271 5.1188235176358274e-04 -4.6110085160893868e-04 -7.3492167556978168e-04
272 4.0304639776086033e-04 -5.5123552889877890e-04 -7.4106637848784932e-04
273 -2.8893893385094642e-04 4.2144447170905928e-04 8.7723030422957946e-04
274 -4.2270908597905472e-04 4.1110151487802610e-04 8.2197876292562308e-04
275 3.8921373453618910e-04 -4.4371577042932197e-04 -8.2257423994262302e-04
276 2.7443216742174424e-04 -5.2388676678153539e-04 -8.2171205110136852e-04
277 -3.3092534271226160e-04 -3.7377762162909601e-04 8.8521717035005957e-04
278 -1.3321536893011159e-04 9.7052474173711179e-04 1.2519368204642157e-04
279 8.1073011039155469e-04 -5.5272798180958061e-04 -1.2404785148077371e-04
280 -2.3293179983083974e-04 4.7201706992800038e-04 -8.6708794243677088e-04
281 -1.4969840779837867e-04 5.7606439614575221e-04 -8.1737568172214224e-04
282 8.5004007957514859e-04 5.0490462580151697e-04 1.6659263317236435e-05
283 1.3188252051999321e-04 -4.6850649258051722e-04 8.9343758622325968e-04
284 -9.7554809262447321e-04 6.3623274612488616e-05 1.4216149809815465e-04
285 -9.0152168054435705e-04 -3.9740171192730647e-04 -7.5277196026768647e-05
286 -8.4119297204118826e-04 -5.1762702267891354e-04 -2.8807392919568579e-05
287 -8.2516654304009283e-04 -5.3370734905575643e-04 1.0668287258907919e-04
288 -7.6174306201871184e-04 -6.2904032177262795e-04 2.4810828842975818e-05
289 -7.4218344336748096e-04 -6.3373638368710789e-04 1.6029841938876204e-04
290 -6.6855331973685744e-04 -7.2323976073016146e-04 8.2872970990178631e-05
291 -1.9309072028545932e-04 -9.5610010387211565e-04 -1.6649945982603141e-04
292 -2.7550615759080522e-04 -8.7474217257353984e-04 3.8195144024803123e-04
293 -3.3796319262102285e-04 -5.5408265228829858e-04 -7.7298012015272202e-04
294 -8.9464595698861328e-05 -4.7920483930380967e-04 -8.9315256528008210e-04
295 -4.8455999363814000e-04 2.9283878512843201e-04 8.3989954449560904e-04
296 -5.4856482750661626e-04 3.9450697630582577e-04 7.4682761608519776e-04
297 -8.5506972621722163e-04 4.4933397824818867e-04 -2.1145019207201353e-04
298 -6.1387761805047113e-04 2.6780455742113894e-04 7.5280853733024355e-04
299 -6.6003258126165216e-04 3.7568245803160886e-04 6.5399736718592763e-04
300 -5.9358851872866390e-04 4.9279373898869451e-04 6.3864828349104901e-04
301 -7.0343878096154893e-04 4.5833068709973807e-04 5.3811317167105498e-04
302 -7.6053200454260421e-04 3.3841868688198412e-04 5.4985179790552092e-04
303 -3.0503361487231893e-04 -6.6116954965266407e-04 6.9283737649412588e-04
304 -6.2679480638490380e-04 5.7823840066991631e-04 5.1547472794359844e-04
305 -7.9568253866443199e-04 4.0844693917587219e-04 4.3284353383731293e-04
306 2.2199928344880462e-04 -5.4804553255027779e-04 8.2215472384434543e-04
307 2.4762079547333558e-04 -4.3287341998626751e-04 8.8622795279690383e-04
308 3.5151798537037631e-04 -5.0089246569771256e-04 8.0574752532396542e-04
309 -4.5105563359702913e-04 -7.2919016705807007e-04 5.0786718940910272e-04
310 -8.4484272267880552e-04 2.8586305254178399e-04 4.3825542460219691e-04
311 -4.0850781846119423e-04 -8.4694761386397573e-04 3.1539974940511517e-04
312 -7.5220255546503778e-04 6.3334042466046004e-04 8.7639820264082601e-05
313 -8.4267453247251656e-04 -4.9001369654769439e-04 -1.6627004392402356e-04
314 -5.7344109062602501e-05 1.1559983971609514e-04 1.0180172948505695e-03
315 -8.7365029681609439e-04 3.5010108874974406e-04 3.0950507936367558e-04
316 -9.6421080350107705e-04 1.9144049526827409e-04 9.3742171519987962e-05
317 -1.1156495268702302e-04 7.5850618171314436e-04 -6.4401540793370608e-04
318 2.7376098451513051e-04 -4.1085984882791374e-04 -8.8875443735126204e-04
319 -6.8207285622529936e-04 -7.1286916736924789e-04 -5.8218616232657205e-05
320 -5.9059361303871608e-04 -7.9199284998301013e-04 6.1866076775258050e-06
321 -6.4960983244948857e-04 -4.1422271883724939e-04 -6.4062325692864491e-04
322 -7.1616281578823206e-05 -2.0445625500370519e-04 -1.0014529704649318e-03
323 5.0134522380891199e-04 -8.4874104439923719e-04 8.0569887151132213e-05
324 -6.0562605211599376e-04 7.7435189784371544e-04 -9.0690667076488924e-05
325 2.8050925721710945e-04 5.4659898638331739e-04 8.0218597778392508e-04
326 2.9267136735228980e-04 -6.2964561545942601e-04 -7.2932200127409739e-04
327 1.6187522741671555e-04 -5.9785475802716945e-04 -7.9914314833191564e-04
328 4.0843754949557599e-04 5.3585085801433009e-04 7.4891831134762824e-04
329 4.8234947287399043e-04 4.3751760468798806e-04 7.7034434900139133e-04
330 4.3940141153070200e-04 4.2901796365921662e-04 -8.0185026000905400e-04
331 8.3254976988879482e-09 9.7295261272074666e-04 1.7251382040496722e-04
332 -2.8353546512359498e-05 9.8596089087400057e-04 3.7776292313751376e-05
333 -1.5869242951706402e-04 9.7406390395883850e-04 -1.1666248275828832e-05
334 9.7571388352792529e-05 9.7943427142460409e-04 7.8096597310068694e-05
335 3.6783746961784253e-04 -3.7346281852826310e-04 8.7006411593377369e-04
336 4.6014142286914905e-04 -4.3945666446822801e-04 7.8464993337712917e-04
337 -8.0646526695040820e-04 2.1163324268546566e-04 5.4731503194222983e-04
338 -3.4443303890259247e-04 5.2174011154383084e-04 7.9270706584718754e-04
339 -1.2029156494395435e-04 4.6932871751981925e-04 -8.9300675190105900e-04
340 3.9734834046284721e-04 -3.1779147249593305e-04 -8.7930130825305424e-04
341 2.2854378234647194e-05 -2.8625728411137645e-04 -9.8211668659228140e-04
342 -9.1681055417944615e-04 3.5489692286835107e-04 -1.0280256753014134e-04
343 2.8409494745856525e-05 -4.0096857660865511e-04 9.3790571040792265e-04
344 -5.1024783261699133e-04 6.0923207215180365e-04 6.0711632728808595e-04
345 -5.3217316720221826e-04 6.9750445610751043e-04 4.7062164471411505e-04
346 -6.4961582650108381e-04 6.4635133947626728e-04 3.8014045044685435e-04
347 6.1712886233649669e-04 -3.5533300505185883e-04 -7.1063555056788462e-04
348 7.1120678474830977e-04 -3.6836507225772877e-04 -6.0012887311593677e-04
349 5.2652737132203838e-04 5.2260995024598991e-04 6.7578951883856542e-04
350 5.9631661819079093e-04 4.1062603609286999e-04 6.9660960542772135e-04
351 6.3764962700416290e-04 4.9204481311596678e-04 5.9240989555925546e-04
352 6.9808717326799578e-04 3.7520707738719741e-04 6.1117036154398981e-04
353 7.3646778151922985e-04 4.5274286648308896e-04 4.9523572006768138e-04
354 -6.3912600493845053e-04 -7.2447384651012599e-04 2.1498893052386794e-04
355 2.6002590490430187e-04 5.4240798221651717e-04 -8.1193457343224531e-04
356 1.3765475392101638e-04 5.6175928698349632e-04 -8.3029015031915244e-04
357 -6.7527901833566598e-04 3.3016900059016616e-04 -6.6279438022949662e-04
358 5.1420709019351545e-04 -8.2771905664464512e-04 -1.7307765651782759e-04
359 4.4051985346735121e-04 -8.3620080544289451e-04 -2.9976886400581715e-04
360 -8.1339223161407451e-04 4.7670554847665500e-04 3.0303492495519098e-04
361 -1.3817274149463611e-04 -5.4662931035976694e-04 8.4250954045762740e-04
362 -1.9541420758622724e-04 3.6971019702683195e-04 -9.2879043369127438e-04
363 -2.1900869463168323e-04 5.2263659180454313e-04 8.3887970392670507e-04
364 -5.0973743633827737e-04 8.2958450473731744e-04 -1.6745910664319675e-04
365 1.6350421532046325e-04 5.5030436768325466e-04 8.3393831175470668e-04
366 -3.6867689971634328e-04 -3.1547757870573455e-05 9.5140571547509887e-04
367 -6.9841945713903424e-04 -6.3715830349861413e-04 2.9745258027030514e-04
368 2.1232695641096631e-04 6.6528885172166259e-04 7.2484189576114771e-04
369 8.0732809220131129e-05 6.2804181847359790e-04 7.8495882527673279e-04
370 7.0440555041056886e-04 -2.4366237553208607e-04 -6.7270447193395198e-04
371 -5.3670393252119560e-04 1.6833275664118508e-04 8.4271159329128589e-04
372 -6.6426703329447760e-04 1.3520814196757409e-04 7.4564132281624456e-04
373 5.5573444347853938e-04 8.1454401764814895e-04 -5.4422835967235914e-05
374 -1.5902880713138660e-04 -9.6620037175465404e-05 1.0084274571055213e-03
375 -4.7352156121139728e-05 -1.8165182874888157e-04 1.0081783265759837e-03
376 -3.0652895904827350e-04 -9.0991701331524755e-04 2.4365334840906856e-04
377 -4.3360461142032418e-04 -8.7407055601983251e-04 1.6794064742051799e-04
378 -9.1399492558570585e-04 1.9822848635683781e-04 3.2996678299903833e-04
379 4.1829487516185850e-04 6.3092449844279295e-04 -6.5782924312712343e-04
380 1.7137012195371433e-04 -7.0509966560503544e-04 -6.9543162557746054e-04
381 2.9645582072936353e-04 -7.3033431993655383e-04 -6.1742224409431048e-04
382 -8.9157591816682699e-04 -3.7307032734542998e-04 -2.1082118714427025e-04
383 -8.2309202821417924e-04 -4.6358804834925366e-04 -2.9825111697461671e-04
384 -7.6479724570080790e-04 -5.7470876753179534e-04 -2.5533848970228900e-04
385 -1.7013019974371115e-04 -9.2987083864048579e-04 2.9955736561539196e-04
386 -6.6133646990324598e-04 5.2334432189453828e-04 -5.3108297907654325e-04
387 -7.5733714519657586e-04 4.7345674495726447e-04 -4.3498378781891368e-04
388 8.6773014300306147e-04 2.4592175944517875e-04 -4.1735879493127055e-04
389 -8.9774776314245771e-04 3.3141175980785979e-04 -2.5042575709688814e-04
390 -4.9892500965534900e-04 8.5093595612178562e-04 -3.4645767482935844e-05
391 -3.9997380588790933e-04 8.9546098753425288e-04 -1.1491256147797712e-04
392 -5.8606569176429437e-04 7.9288715575272586e-04 4.1508564687171944e-05
393 -5.8744845787556653e-04 -7.8498129578687505e-04 -1.2732677064895332e-04
394 -4.9761224849380358e-04 -8.5125241580798964e-04 -6.3015894324587116e-05
395 6.8186249843632952e-05 9.8314342627164441e-04 -5.6348120310397566e-05
396 2.0363865895987448e-04 9.6574938780504558e-04 -2.1167694896279301e-05
397 5.1207331487911230e-04 3.2892195608150729e-04 -8.0715090584144783e-04
398 2.7002995136729525e-04 -2.9615528348910365e-04 9.3833226685144388e-04
399 3.8755404485348038e-04 -2.2221849293083129e-04 9.1613084072897811e-04
400 -2.7254821292238486e-04 6.0928462053118967e-04 7.5408775980370939e-04
401 -1.5821992764338352e-04 6.1745744191478880e-04 7.8091073636167943e-04
402 3.2509869390287186e-04 -6.1180983924492090e-04 7.3123969417477914e-04
403 6.6056866894640309e-04 2.8357225059601866e-04 7.0250861902215441e-04
404 6.5588883135806722e-04 5.8211711905647653e-04 4.7226257883546631e-04
405 -3.1442604804122608e-04 -9.3201201676806563e-04 1.0082712355579449e-04
406 2.7017897591678173e-04 -2.7989081594328714e-04 -9.4305018054198031e-04
407 3.6639480086310530e-04 -1.9309008087249643e-04 -9.3137006004998218e-04
408 8.5441979582583246e-05 4.5088944461881610e-04 -9.0763337147236418e-04
409 -8.7822494794770572e-04 4.2239906024148244e-04 1.6960685821081715e-04
410 -4.4686815504282700e-04 8.0340129934968526e-04 3.7198767491750551e-04
411 5.5309622134248708e-04 4.2325906993673462e-04 -7.2442576520173987e-04
412 4.4694273684597880e-04 6.3884353925802132e-04 6.2921128022811216e-04
413 7.9773267574240886e-04 3.0880626245790877e-04 5.1242313703457241e-04
414 8.2431236053607778e-04 3.9201872692220494e-04 3.9103360201146124e-04
415 5.9290639082621489e-05 -1.5203719920940540e-04 -1.0123619398149741e-03
416 -9.6122599335232511e-04 2.2243701107845293e-04 -4.0784760974047930e-05
417 -7.7609628775164932e-05 3.5896351655821646e-04 -9.5159607472411424e-04
418 -1.3615332828960239e-04 2.5183732061015207e-04 -9.8173450350174112e-04
419 4.6834302220018304e-05 1.5253859855846689e-04 -1.0116805261060732e-03
420 -7.7482712430193779e-05 -9.1417921583589697e-05 -1.0186995626279354e-03
421 -9.3417339664646432e-04 3.1551576245070087e-04 5.5050888179202917e-05
422 7.8922138684025091e-04 -2.5378668859723158e-04 -5.5745202284907436e-04
423 7.9399746160726365e-04 -3.7150640746391023e-04 -4.7305913531657604e-04
424 2.3730400942468681e-04 9.5225081485010370e-04 1.1224955719611641e-04
425 4.0616241988793389e-05 -6.7791141301259885e-04 -7.4549041060444803e-04
426 3.4657666242585837e-05 -5.4310891918783061e-04 -8.5641292464237685e-04
427 -7.8724567406325525e-05 -6.0292408695444334e-04 -8.0748504746393777e-04
428 3.9868188790140020e-04 -8.8806897208844836e-04 -1.7697259905900128e-04
429 3.2545487232646495e-04 -8.9082032909714804e-04 -2.8795930552736552e-04
430 3.5595504142766396e-04 -8.3349869396527414e-04 -4.0828078956047127e-04
431 -5.9642760633735138e-04 -7.1773625006137239e-04 3.3551162453455334e-04
432 -6.3716809264325604e-04 -6.2552659198586197e-04 4.3884712058884844e-04
433 1.5838882462353854e-04 -3.4759079944033056e-04 -9.4653901315330964e-04
434 -1.2453347539991974e-05 5.6527188609822540e-04 -8.4086674979179875e-04
435 6.8351146071043590e-05 6.6642711151376072e-04 -7.5210089594635726e-04
436 8.7440907398793268e-04 2.5629426286271842e-04 3.9543058444486680e-04
437 8.9013191321696153e-04 3.3795732399666202e-04 2.7263384441602906e-04
438 8.3249882283462139e-04 4.6234904337639652e-04 2.7075663273691710e-04
439 7.4950119927910577e-04 2.4079275480203458e-04 6.1896824750845136e-04
440 -5.6676796540118827e-04 7.5015327560838999e-04 3.1201837990576419e-04
441 -6.8367746652170922e-04 6.7743607978980878e-04 2.3015881465111233e-04
442 6.7992652986168488e-04 -1.2781385655471686e-04 7.3225441646022828e-04
443 7.0843237425601349e-04 -2.4752013286815467e-04 6.6709242841175192e-04
444 7.9971972795311809e-04 -2.5098637406361610e-04 5.4284403547239315e-04
445 7.3262484267178388e-04 -3.6748327867767029e-04 5.7238277024903618e-04
446 8.0255301989446554e-04 -3.7267802644705975e-04 4.5642185587642105e-04
447 7.2720020877295780e-04 -4.7670412773576630e-04 4.8693166425444915e-04
448 6.5397399561068761e-04 -4.7435139788619749e-04 5.8994520504065668e-04
449 7.9497626100370939e-04 -4.7474709307691149e-04 3.5870534050501884e-04
450 8.6223729082192109e-04 -3.6348510253273397e-04 3.3022474023410372e-04
451 6.2666285346905991e-04 -5.9471833281876598e-04 4.9883451899770134e-04
452 6.8608459082541799e-04 1.2766338919018548e-04 7.2656976223608376e-04
453 -5.6902907749394082e-04 -7.9682380107928743e-04 1.3779439824556451e-04
454 3.3735563753811891e-05 -4.1562119256418462e-04 -9.3049337830303583e-04
455 8.8735082039030925e-04 4.0885771004604637e-04 1.5209520805987498e-04
456 4.8977507746326716e-04 -2.2116772013486611e-04 -8.6056374471798287e-04
457 4.9929998688291808e-04 5.1971814420696718e-04 -6.9924136963080445e-04
458 6.0215183974669676e-04 -2.4974707043038481e-04 7.7148541388796885e-04
459 1.3098888278969599e-04 9.5631465412409299e-04 2.1439012862168900e-04
460 6.2783668771718799e-04 6.8595892369402813e-04 3.4456560114723921e-04
461 3.8086425162224601e-04 5.2773549576913970e-04 -7.6970632792763588e-04
462 -4.1792914053821750e-04 6.9497745251051793e-04 5.8283337476679425e-04
463 7.7034840567358394e-04 -1.2790403241267096e-04 -6.2757869134999391e-04
464 8.6466006751165995e-04 -2.4965722652454779e-04 -4.2310408670575146e-04
465 8.6321434616423482e-04 -3.6554659534879811e-04 -3.2498888542398393e-04
466 -8.4290423602493318e-07 8.1878713961298173e-04 -5.7095217455751396e-04
467 9.2108678104310963e-04 -2.4214091845918377e-04 -2.7359963525816613e-04
468 9.0945549840091211e-04 -3.5000166116411316e-04 -1.7504622564140797e-04
469 1.7269321087719621e-04 3.3542917844977513e-04 -9.4760026527466578e-04
470 8.4142211172281262e-04 -4.6845498319728816e-04 2.3212553022690458e-04
471 9.0546035094958349e-04 -3.4895354897124568e-04 1.9498112803489857e-04
472 2.0169532328908566e-04 7.6413547009890337e-04 6.1333236260020048e-04
473 1.5523981959707708e-04 -2.3222041611064713e-04 -9.8433844145762520e-04
474 2.2701331594940439e-04 -8.9095466589227048e-04 -3.7560290278069471e-04
475 5.5358489038983259e-04 7.6255923565005459e-04 -3.0502118950897556e-04
476 3.1549937618561847e-04 7.0955097668633758e-04 6.3187286676676710e-04
477 2.8353764936743715e-04 7.1901725915176620e-04 -6.3652958846481143e-04
478 -1.8721193633128096e-04 -5.7226413787553581e-04 -8.1198607154585615e-04
479 -1.7273229085960340e-04 -6.8215848750429635e-04 -7.1881850199770315e-04
480 -3.9073156512339747e-04 8.2362055726239753e-04 -3.9179373533177391e-04
481 1.9885849781194162e-04 6.5631598597537359e-04 -7.3629490617167076e-04
482 7.5234367763556619e-04 -5.9410226927791995e-04 2.5451171781135101e-04
483 8.8036713341188707e-04 -4.3965981431141773e-04 9.7916264358688127e-05
484 9.3353829882631052e-04 -3.1809822886223326e-04 6.5329202703409326e-05
485 6.0578015146121780e-04 -2.3123958843058215e-04 -7.7353823378731291e-04
486 4.0810777237015557e-04 1.4488369526808123e-04 -9.2121846531968146e-04
487 9.7834323383406150e-04 1.2706865094150570e-04 -6.0895255648100073e-05
488 9.4506517967527686e-04 2.6905540813680054e-04 -1.1567153133134787e-04
489 9.5975978325937991e-04 2.3155049019147304e-04 1.6168105003866067e-05
490 8.8576516541781915e-04 4.2580218346402286e-04 -1.0595632519813703e-04
491 3.3974223746780922e-04 9.2707979099417015e-04 1.3346036418868788e-05
492 2.9878690517837653e-04 9.3215774483004017e-04 -1.3792290216613448e-04
493 4.3453199588822930e-04 8.8317553994811848e-04 -7.9205477518201248e-05
494 9.0604426239556312e-04 -3.9394018170657737e-04 -3.0391858864340322e-05
495 9.4681052001503285e-04 -2.7737477132156526e-04 -6.0097235964618644e-05
496 -3.9242444948325812e-04 9.0546343036763781e-04 1.8850239831143413e-05
497 9.7664978526913163e-04 1.2678850379807950e-04 8.4512978177582153e-05
498 6.6476247394852599e-04 6.7521221593695594e-04 -2.8802860625706811e-04
499 9.7922594337338420e-04 -1.2488266655870731e-04 -6.1691575324609869e-05
500 9.5553457273477558e-04 -1.2172945013037248e-04 2.2915398483924041e-04
501 9.1593316478323595e-04 -1.2081991351150044e-04 -3.6351325423973505e-04
502 8.5591505214366152e-04 1.2144046469986967e-04 -4.9541343556965532e-04
503 8.5273713526784131e-04 -1.1966096681693837e-04 5.0268887911247753e-04
504 4.3701143636479045e-04 1.1275134599440329e-04 9.1284926595695500e-04
505 4.3791782911099044e-04 3.3049432764370771e-04 8.5269464104627789e-04
506 6.4477196686441463e-04 -3.5734305016564544e-04 6.8243089674030401e-04
507 3.3375702763155108e-04 -1.1333430527326977e-04 9.5896085939583566e-04
508 8.1545778130191987e-05 -1.2852908275266448e-04 1.0150548822126823e-03
509 1.5558750561413585e-04 -2.2848965665841787e-04 9.8559362919577219e-04
510 2.6993920252834882e-04 -2.0277404861187664e-04 9.6396618164029527e-04
511 -2.0172762186049801e-04 6.7874633709490791e-04 -7.1306298011195696e-04
512 2.7071561562342570e-04 9.2098326794151945e-04 2.3916145945383668e-04
513 5.7214789780687145e-04 -8.0571593737732239e-04 -3.7081775942027489e-05
514 2.4819946534220113e-04 -9.5589020591566758e-04 4.6607016818146088e-05
515 2.9145039945809649e-04 -9.2973039441956128e-04 1.7397082812736967e-04
516 -5.4008598538381734e-04 5.5945002500876727e-04 -6.3007585586330288e-04
517 7.6451159439320344e-04 -5.7669559820896327e-04 -2.5432598473396154e-04
518 -1.3797064328472446e-04 -9.7777818802881680e-04 -4.5427666071202016e-05
519 -2.7954021829614857e-04 -9.4753908022056940e-04 -4.8251556049393307e-05
520 -3.2247984568013863e-04 -9.1558185485259079e-04 -1.9293145814958638e-04
521 -7.7765967098498284e-04 5.2907314308553975e-04 -3.1018318720519780e-04
522 -9.7356439125312094e-04 1.0676921455878974e-04 -1.2907859324855529e-04
523 7.7416441897440339e-04 6.0282740076661445e-04 1.1630983462059727e-04
524 -7.9305628313026293e-04 -5.3862265158366419e-04 2.4749274463438495e-04
525 7.6038793321590642e-04 5.1215596404189908e-04 3.8007676822064565e-04
526 4.8316250241624877e-04 -7.6423608595456742e-04 -4.1367984387972876e-04
527 -9.4221632397954020e-04 -2.7091956354146550e-04 -1.2425966038593622e-04
528 -9.2964114340410775e-04 -7.2619683644929435e-05 3.3682112703129153e-04
529 -9.0542425018344151e-04 5.5186070641307795e-05 4.0411404599160182e-04
530 -8.3682068108420992e-04 5.1423483987559786e-05 5.4160169929572566e-04
531 -7.6905747958559278e-04 -6.1031110086031196e-04 -1.1624261434605405e-04
532 -9.6600845388995001e-04 -6.0783357229961795e-05 2.0277221765523370e-04
533 -7.2709779024940845e-04 5.2926807582053394e-04 4.2129159310554462e-04
534 -6.9057874343112836e-04 7.0475135083541225e-04 -1.4695325508908921e-05
535 -2.3405183076341535e-04 -9.1699742734012348e-04 -2.9527458925454066e-04
536 6.1767245561950848e-04 7.5303102965689666e-04 -1.6884996058087544e-04
537 -1.4097231182573402e-04 -8.8423153289026270e-04 4.3399417041774615e-04
538 -4.7075103997933792e-05 9.8152768883886447e-04 -9.4725099614974186e-05
539 -1.6856511928926930e-04 9.3781524557473854e-04 -2.6525972307370340e-04
540 5.6543865042979607e-05 9.6600370819514185e-04 -2.0464233294226607e-04
541 -9.2673176456645472e-04 2.8231475585124242e-04 1.9738866243271220e-04
542 -8.6809409458081348e-04 -4.3280559606027208e-04 1.9438812987971566e-04
543 -7.9934832842669000e-04 -9.0130158867851335e-05 5.9362560149531696e-04
544 -7.5056547395369326e-04 1.3045964648775862e-05 6.6468437336423170e-04
545 -6.5124318582197827e-04 -5.2631935959548200e-04 -5.4292225859749351e-04
546 -7.3384988708248035e-04 -4.2379564869217526e-04 -5.2514685930696032e-04
547 -7.4067990716895785e-04 -2.9666887990258183e-04 -6.0301020869614973e-04
548 -6.4344399001203443e-04 -2.7968189008614275e-04 -7.2098952996505795e-04
549 2.5600535237194999e-04 -8.0805454168854515e-04 5.2702536435677010e-04
550 5.6654495242813580e-04 5.8661288871217799e-04 5.7590361956421667e-04
551 8.5794971097925322e-04 3.6481449245853151e-04 -3.3740373921174825e-04
552 8.6763774839342578e-04 -2.4700414723560239e-04 4.1852068487422208e-04
553 1.6477411996703537e-04 -7.6219750309068082e-04 6.2981094938711207e-04
554 -4.4094868785904618e-04 -6.4314399507200937e-04 6.3007374068063541e-04
555 -3.8533358599107838e-04 -5.5766968276464691e-04 7.4539168364368569e-04
556 -8.2399358677580977e-04 -4.3681360117455012e-04 3.3724497431779550e-04
557 -6.0642552479237878e-04 -7.0580719279260342e-04 -3.4288835332293267e-04
558 -7.1591193693144168e-04 2.4604462069954266e-04 6.5686273515208702e-04
559 -6.7647857214518214e-04 -4.4038083340524774e-04 5.8976387748770531e-04
560 -5.8831210949239954e-04 -5.6085292945757322e-04 5.8308981136230575e-04
561 6.2388896104496948e-04 4.7981601977004805e-04 -6.1872747750253644e-04
562 -3.1680373691680719e-04 -6.8107823196909530e-04 -6.6576267761900548e-04
563 -4.7455616955454152e-04 5.1092845096155045e-04 7.2483890270840250e-04
564 7.0999316782164874e-04 -4.8566395277726540e-04 -5.0440547755249276e-04
565 -8.7071281682749168e-05 -3.1234870172550621e-04 9.6982523556167727e-04
566 -1.0298575811361578e-04 -4.3445894618066694e-04 9.1560280874822980e-04
567 -2.0611715875574980e-04 -3.5276489862804506e-04 9.3451257438454652e-04
568 -1.7086783499146814e-04 -6.5819536640549718e-04 7.4395556049356814e-04
569 4.1430145153293333e-04 -6.6004556150350271e-04 -6.2993764374994594e-04
570 -7.0724371010387119e-04 -9.4850246896195886e-05 7.0753075910740795e-04
571 5.5041912249285875e-04 3.2280721705146826e-04 7.8204794215484862e-04
572 5.1311666545571873e-04 -3.4325417003326967e-04 -8.0071533871560149e-04
573 1.5493890074967843e-04 -3.4041506512214818e-04 9.5030874300734171e-04
574 -7.3676607113596932e-04 2.0038905801763064e-04 -6.4850321132189220e-04
575 1.5286621222223475e-04 -4.7015204170217665e-04 -8.8847727041683913e-04
576 -4.4521812863943661e-04 -4.2406609682681102e-04 8.0341636520583654e-04
577 -3.0858508767981626e-04 3.6368681679513104e-04 -8.9759092138568138e-04
578 -2.6359929101341567e-04 2.5856611839982467e-04 -9.5107577989510467e-04
579 -3.2768487302912655e-04 1.5454965066150506e-04 -9.5394773878204272e-04
580 -4.8042587993097800e-04 1.1683369193520607e-05 -8.9582313171152560e-04
581 4.5251900862874699e-04 -5.6524543164983212e-04 6.9893677692271425e-04
582 4.7677463378523367e-04 -3.1273538676209031e-04 8.3773074681815123e-04
583 -4.3808096762550379e-04 1.2826827781985259e-04 -9.0916703308538524e-04
584 -4.0825777838046553e-04 1.9074003777970990e-04 9.1267397226846585e-04
585 -4.5224149504236228e-04 6.8106756993899613e-05 9.0909145210071776e-04
586 -3.3807927854889752e-04 -4.3170487332282084e-04 -8.5276842485987141e-04
587 2.9524425627679593e-05 9.3909530375352096e-04 3.1338115405734202e-04
588 -4.0274638986019496e-04 -8.7472948765476250e-05 -9.3213526129429041e-04
589 -2.9827534251044392e-04 -4.2862570855887718e-05 -9.7703182021824332e-04
590 -1.8167836349263457e-04 -1.2972787889120214e-04 -9.9981310174979978e-04
591 -1.4948143363742463e-04 4.3297001627603165e-04 9.0843395556804141e-04
592 -5.0344520681458124e-04 7.9635050467180806e-04 -3.0471060336859600e-04
593 -2.4966276768835635e-04 -1.5447014061691118e-05 9.9272336364885456e-04
594 3.7473678524879294e-04 2.1781065801305090e-04 9.2208488247942796e-04
595 -7.9214954194264866e-04 5.5820997063858724e-04 1.9513141235538459e-04
596 4.1890265467901485e-04 -8.7653188401468388e-04 1.9054794844107419e-04
597 1.1327051907049872e-04 4.4049837379516523e-04 9.1042462917501293e-04
598 3.1072861012015511e-04 8.9365083196249072e-04 -2.9119720775013663e-04
599 2.0134405878055969e-04 -6.6163490417036654e-04 7.3255565191631311e-04
600 -5.2365468060343149e-04 -7.9937314053636643e-04 2.6064498078711464e-04
601 -8.3643258724387627e-04 4.0403239621747341e-04 -3.4563420210095098e-04
602 -8.0718429757295419e-04 3.4295291079423137e-04 -4.6881718524204534e-04
603 -7.3688843147738474e-04 -5.2910624668516221e-04 -4.0621864934082131e-04
604 -9.0133292171878259e-04 1.3653698953010934e-04 -3.9184619226032913e-04
605 -4.0256172092860144e-04 -9.0215436359650377e-04 2.4357831877332651e-05
606 -3.1853249758941017e-04 8.3709366879893715e-04 4.2914009470973100e-04
607 5.3533669279240431e-05 1.2350542044411333e-04 1.0164191569257694e-03
608 -4.2586869644293029e-05 7.5776138088634885e-04 6.5426094336487953e-04
609 -7.3181684125271998e-04 -1.6624996973856569e-04 -6.6549152287500950e-04
610 9.4226990342569474e-04 2.6726955217458117e-04 1.4065581440202252e-04
611 4.3088501917603662e-04 -1.0994491835733048e-04 -9.1615883321554965e-04
612 9.1265501501803549e-04 1.2994065595400690e-04 3.6838174124799157e-04
613 -3.6788622729855492e-04 -8.6486811084757339e-04 -3.1646393875161671e-04
614 6.3168956667291232e-05 -7.8553119202721380e-04 -6.1805633321798995e-04
615 4.5120097462140535e-04 -8.7831391547344144e-04 -5.0851337179586211e-05
616 -6.8110726847473639e-04 -6.8865530280636683e-04 -2.0514726993871746e-04
617 -9.2292107071832350e-04 -2.4476791873292715e-04 -2.6092060518035113e-04
618 -6.1611149481849371e-04 4.4585010321304051e-04 -6.5202715440199825e-04
619 1.8518028244301414e-04 -9.4538033643028338e-04 -2.3231048986192127e-04
620 -3.6207450826747103e-05 -9.2967374508851021e-04 3.4636500127233874e-04
621 3.9245862024491629e-04 -7.5538079907655823e-04 -5.2010873139481551e-04
622 -2.2416300158817749e-04 -4.5949174380537376e-04 8.7776142607609488e-04
623 7.8487220017406779e-04 -4.8203950931141598e-04 -3.7161238227034592e-04
624 9.1800717050329929e-04 1.2717445852163985e-04 -3.5490570159091555e-04
625 -3.9519962370478188e-04 6.0676540964026181e-04 6.9523919800513524e-04
626 -2.6316373267468146e-04 -5.6675856903474987e-04 7.9403137801483249e-04
627 -8.2469896616139759e-05 5.3716862256194631e-04 8.5570428594632184e-04
628 4.7559317946908706e-04 8.6411918677971387e-04 4.9754290480370055e-05
629 -9.4798992905230936e-04 5.3863430857907379e-05 2.8021035355388710e-04
630 -5.7355790170998341e-04 7.8461070727142430e-04 1.7764550373761942e-04
631 -8.2018645582613843e-04 -1.8935174692489293e-04 -5.3479576947365940e-04
632 -3.9757690810217301e-04 8.7119150112745778e-04 -2.4748436630592425e-04
633 9.1864441443380990e-04 2.5082354728544429e-04 -2.7245036877159777e-04
634 -3.2907797298653682e-04 9.3053000928392012e-05 9.6263840632065565e-04
635 3.7574999182828648e-04 -9.1257213054868553e-04 6.1516398477872455e-05
636 -6.3656614150736087e-05 -9.6468558333407696e-04 2.1368853254400904e-04
637 -4.8468447106066490e-04 -5.0546049912437370e-05 8.9206633601511467e-04
638 4.2359649253287374e-04 2.6433623147198454e-04 -8.8328414230942284e-04
639 4.4393906498372632e-04 -1.0185794940378627e-04 9.1071253668875891e-04
640 -6.5762056386437604e-05 6.6591312183268594e-04 -7.5258712270507579e-04
641 -9.4453973267709390e-04 2.2773386762459108e-04 -1.8065365781962968e-04
642 -8.7335504392305338e-04 2.7134984337826468e-04 -3.8437742456185549e-04
643 2.8243630481480204e-04 -7.1792056878751506e-04 6.4043003679457085e-04
644 5.5846246440396582e-04 -4.6599215797739081e-04 6.9354545290970459e-04
645 6.0041074930871729e-04 2.3828910478433045e-04 -7.7468016137463873e-04
646 -1.9647997363840799e-04 1.0275378080313829e-04 9.9999802942072388e-04
647 2.5172857521111843e-05 5.4517664746608191e-04 8.5425533601505004e-04
648 -7.3977066129871842e-04 5.8152375613662979e-04 3.0565858224247753e-04
649 -2.6726125235459011e-04 9.4759668214514678e-04 7.2097262453459530e-05
650 9.1798252972108277e-04 -2.4150781141145399e-04 2.8546040402235249e-04
651 -4.6507778683701329e-04 -8.5130346964092584e-04 -1.9833342033059821e-04
652 -8.6759383855456113e-04 -3.4046342844236204e-04 -3.3742308372735691e-04
653 -2.0211540596952319e-04 1.4935520257114331e-04 -9.9211234120626926e-04
654 8.4087200719431122e-04 -4.6790399123144944e-04 -2.3396818961039694e-04
655 -7.1950691424780427e-04 4.0709050548022537e-04 -5.5819083646605145e-04
656 6.7676791340057305e-04 -1.1735850208097330e-04 -7.3658703145701248e-04
657 -7.4170015854860380e-04 -5.4129521270353113e-04 3.7709259486747373e-04
658 -3.8205569016372648e-04 3.6017442527904279e-05 -9.4490806184381105e-04
659 -1.6027575529547076e-04 8.9322080821223371e-06 -1.0130948899509543e-03
660 -4.1762309028304530e-05 3.3489950580819873e-05 -1.0238926460137329e-03
661 8.4628747179368749e-04 -5.1073686490202177e-04 -5.9017564683492681e-06
662 3.8943647610395164e-05 -2.5648388743189870e-04 9.9092565740071690e-04
663 5.0896655256784014e-04 8.2669806709598876e-04 -1.8504979825324178e-04
664 -2.8921284738233505e-04 9.4160851162259274e-04 -6.3817993961823102e-05
665 -2.8375057820007391e-04 9.2743793335367487e-04 -1.8898909305635020e-04
666 -7.6814148492943094e-05 1.2615891536634221e-04 -1.0150767144868008e-03
667 2.6271441648395561e-04 -8.2122833202504886e-04 -5.0015541224618680e-04
668 -5.6863142699224223e-04 4.9799542164853948e-05 8.3626388797166230e-04
669 -8.1617210897044030e-04 -3.1704408719398732e-04 -4.7244690678167797e-04
670 -4.8793470802222351e-04 8.5220326353726260e-04 1.0243701679943178e-04
671 -9.5145851573950869e-04 1.6277474883829481e-04 2.1035458908639083e-04
672 5.5727484129357058e-04 -3.6683640605258700e-04 7.5509965891295920e-04
673 -2.3531539281985095e-05 2.4509364609099309e-04 -9.9322694103886017e-04
674 -1.9118559442271894e-04 -9.5599699519491885e-04 1.6818213284451068e-04
675 4.1299739543242071e-04 7.3490040504410603e-04 5.3072753759771216e-04
676 8.6620953574467646e-05 7.2182420325754592e-04 6.9261583826505854e-04
677 4.9361281224062691e-04 2.2068299941788500e-04 8.5809365988777668e-04
678 -4.8142619769481627e-04 -7.7667221496929687e-04 3.8872406092453702e-04
679 3.2498558960859325e-04 -9.1371291989029950e-05 -9.6441183521052724e-04
680 3.9236986245044748e-04 -6.6745272102287847e-04 6.3559647703748405e-04
681 -8.6841831357409749e-04 1.6635013380364059e-04 4.5293689082637613e-04
682 -8.9132301830486236e-04 4.2232633402985715e-04 1.8931229083732299e-05
683 -6.0941985324946016e-05 -8.2187777537615386e-06 1.0236776161808071e-03
684 3.2564770692514899e-04 -9.3131822256634382e-04 -6.1698290831755046e-05
685 3.9258084027144028e-04 8.8316843977963029e-04 -2.0343518324734833e-04
686 1.8347204796572607e-04 -7.8692091625935439e-04 -5.8777440489910329e-04
687 1.6248348105471413e-04 9.6363605323697345e-04 -1.3845967667612609e-04
688 -7.9937419297118259e-04 -4.2244033651169427e-04 -4.0899234780987547e-04
689 -5.3994484448278513e-04 -6.5260441301375166e-04 5.2480341437656389e-04
690 5.5903181713607027e-04 -6.9051499643522723e-04 4.4716552553786726e-04
691 9.5042838792612266e-04 -2.3092351586161339e-04 1.4613658323990339e-04
692 -6.8187403531243718e-04 -5.2917286594895085e-04 4.9580466129477488e-04
693 9.2386103522746200e-04 2.2644189473602257e-04 2.7321385481232359e-04
694 -1.7564689876244419e-04 9.6153494045851272e-04 -1.3967608443075423e-04
695 8.9480175121069887e-04 3.6062204880721435e-04 -2.1569779018409309e-04
696 -3.8026006169189981e-05 6.5622807672249047e-04 7.6518658395603983e-04
697 -3.3893319162874600e-04 -4.7474197807681907e-04 8.2649523632062735e-04
698 9.1838801806104920e-04 3.6458068781933245e-04 1.7029952616261463e-05
699 -4.9484694784750693e-04 -5.3015682753438048e-04 6.9444201827367736e-04
700 -6.6297853330654492e-04 1.2315964361564730e-05 7.5744472630284775e-04
701 5.6151797760800647e-04 -5.6076473624765350e-04 6.0936304418499814e-04
702 -6.8939912932094657e-04 -6.2915315586115116e-04 -3.3249045683347216e-04
703 -7.5947027726724708e-04 2.9022289904317647e-04 -5.7811391235858712e-04
704 3.8314337105497047e-05 3.4636462014743909e-04 -9.5917035002962190e-04
705 3.1573876366913973e-04 6.2364715737819800e-04 -7.2135750668767126e-04
706 -3.1410832327367363e-04 6.8809667158187910e-04 6.5580258682774485e-04
707 1.1721040243492089e-04 -9.2346138268606577e-04 -3.4162940438361126e-04
708 -6.6037965345345422e-04 7.2524588979244742e-04 1.0406299631023752e-04
709 3.2073300387074064e-06 7.4494056095025481e-04 -6.6982719963263682e-04
710 -4.0543806504021230e-04 7.6654497713057152e-04 4.8637791724332494e-04
711 -9.1906705672135914e-04 2.1279561456827035e-04 -2.9743768699050594e-04
712 7.7512573436496260e-04 1.0606596827508646e-04 6.2419895252175945e-04
713 -2.0823340028685618e-04 -7.5240079637127618e-04 -6.2593618319177436e-04
714 6.2435566738668589e-04 3.5459759995576010e-04 -7.0281644495665506e-04
715 -2.0378300650712017e-04 -9.6522363071497837e-04 4.8593375379657507e-05
716 -2.7404718574125070e-04 6.0739291565580540e-05 -9.8267218968225273e-04
717 -3.9381935919969788e-04 -9.0015343918706519e-04 -1.0206678992231766e-04
718 5.0292831190026357e-04 -2.0447813537007381e-04 8.5626524871559092e-04
719 7.1542536918159274e-04 -5.6567011194789594e-04 3.9286421437960439e-04
720 8.2790075386657118e-04 5.1297269163176141e-04 1.6454769202260542e-04
721 2.6247189559552175e-04 -1.7688316061875961e-04 -9.7114225149251218e-04
722 -5.7163428047905004e-04 -7.7018331988030499e-04 -2.4195537151202153e-04
723 4.8965407353084562e-05 5.2082902998230139e-05 -1.0232381879639535e-03
724 -1.7162714840129864e-04 7.1591745205217038e-04 6.8279093291489102e-04
725 8.6792193158782176e-04 -4.5800876968128711e-04 -1.1570965369939952e-04
726 6.0212908169246526e-04 2.0887300487802471e-04 7.8183633422498845e-04
727 7.7061893001042386e-04 5.6673309752094535e-04 2.5262169386329968e-04
728 5.4196162981543557e-04 5.8167627206050676e-04 -6.0507432832111621e-04
729 4.8416006422106859e-04 9.3567306148236516e-05 -8.8713204284693813e-04
730 7.0965171314069163e-04 6.0253078562933448e-04 3.3843706737223520e-04
731 -2.4824874834127362e-04 -6.2224957413118656e-04 -7.5018864698160636e-04
732 3.3592881084533932e-04 6.2369104245456602e-04 7.1214197628052117e-04
733 -7.2718598613522511e-05 9.6281678293945981e-04 -2.0692385965507450e-04
734 -2.3941625825940786e-04 -4.8701900130080738e-04 -8.5564078531156747e-04
735 9.5095642952163178e-04 -2.2421833635436956e-04 -1.4949144297990818e-04
736 9.6497129670376574e-04 -2.0716871003072010e-04 3.3401563737915047e-05
737 -3.4005944792129199e-05 -9.5925321653977529e-05 1.0205144223114323e-03
738 -5.0060869141713529e-04 -8.4915348114647201e-04 5.7813947091976720e-05
739 5.1217706223256150e-04 1.9823371298847349e-04 -8.5126492186647694e-04
740 -7.6359556861618088e-04 1.2959512434554814e-04 6.3302908936501182e-04
741 -1.3794929128746816e-04 1.4438363873068896e-05 1.0153564710606324e-03
742 -5.4055245931050805e-04 -7.0807042124010279e-04 4.3993103560563559e-04
743 -2.1013308514564976e-05 4.3945840069712272e-04 -9.1677156778478244e-04
744 2.8457244467950792e-04 -9.3091986925676064e-04 -1.7251159933841980e-04
745 -6.5718797615245116e-05 -6.8538437630224613e-04 -7.3199653904654075e-04
$EndNodes
$Elements
1486
1 2 2 0 0 410 440 345
2 2 2 0 0 421 541 409
3 2 2 0 0 409 682 421
4 2 2 0 0 545 603 546
5 2 2 0 0 426 427 294
6 2 2 0 0 294 454 426
7 2 2 0 0 265 682 409
8 2 2 0 0 24 41 4
9 2 2 0 0 3 24 4
10 2 2 0 0 238 642 602
11 2 2 0 0 520 651 613
12 2 2 0 0 653 666 659
13 2 2 0 0 404 460 98
14 2 2 0 0 222 482 219
15 2 2 0 0 40 463 9
16 2 2 0 0 608 724 696
17 2 2 0 0 435 709 69
18 2 2 0 0 413 439 29
19 2 2 0 0 345 710 410
20 2 2 0 0 422 463 40
21 2 2 0 0 98 550 404
22 2 2 0 0 95 724 608
23 2 2 0 0 4 41 5
24 2 2 0 0 232 701 581
25 2 2 0 0 490 698 488
26 2 2 0 0 29 436 413
27 2 2 0 0 416 421 342
28 2 2 0 0 312 595 441
29 2 2 0 0 41 486 5
30 2 2 0 0 405 605 519
31 2 2 0 0 409 595 265
32 2 2 0 0 69 481 435
33 2 2 0 0 434 743 339
34 2 2 0 0 342 641 416
35 2 2 0 0 485 656 370
36 2 2 0 0 89 587 90
37 2 2 0 0 108 466 317
38 2 2 0 0 378 629 529
39 2 2 0 0 581 680 232
40 2 2 0 0 281 434 339
41 2 2 0 0 638 739 486
42 2 2 0 0 659 666 660
43 2 2 0 0 345 440 346
44 2 2 0 0 22 44 25
45 2 2 0 0 9 463 8
46 2 2 0 0 44 81 25
47 2 2 0 0 459 587 89
48 2 2 0 0 127 670 630
49 2 2 0 0 508 662 509
50 2 2 0 0 375 662 508
51 2 2 0 0 492 598 103
52 2 2 0 0 604 642 238
53 2 2 0 0 507 510 399
54 2 2 0 0 488 698 489
55 2 2 0 0 34 473 415
56 2 2 0 0 399 639 507
57 2 2 0 0 603 688 546
58 2 2 0 0 316 541 421
59 2 2 0 0 647 696 627
60 2 2 0 0 403 439 352
61 2 2 0 0 221 603 545
62 2 2 0 0 595 648 441
63 2 2 0 0 412 550 98
64 2 2 0 0 411 714 397
65 2 2 0 0 486 739 729
66 2 2 0 0 696 724 401
67 2 2 0 0 247 482 222
68 2 2 0 0 397 714 645
69 2 2 0 0 613 651 212
70 2 2 0 0 207 745 425
71 2 2 0 0 98 675 412
72 2 2 0 0 219 482 230
73 2 2 0 0 560 692 432
74 2 2 0 0 432 689 560
75 2 2 0 0 454 575 426
76 2 2 0 0 352 439 413
77 2 2 0 0 415 420 2
78 2 2 0 0 40 464 422
79 2 2 0 0 89 512 459
80 2 2 0 0 425 614 207
81 2 2 0 0 377 600 453
82 2 2 0 0 89 90 88
83 2 2 0 0 80 466 108
84 2 2 0 0 520 717 651
85 2 2 0 0 602 703 238
86 2 2 0 0 103 687 492
87 2 2 0 0 253 491 424
88 2 2 0 0 69 709 466
89 2 2 0 0 424 512 253
90 2 2 0 0 369 696 647
91 2 2 0 0 581 701 644
92 2 2 0 0 630 670 392
93 2 2 0 0 32 656 485
94 2 2 0 0 459 512 424
95 2 2 0 0 90 91 88
96 2 2 0 0 427 478 294
97 2 2 0 0 488 695 490
98 2 2 0 0 554 699 560
99 2 2 0 0 67 80 79
100 2 2 0 0 252 454 294
101 2 2 0 0 253 628 491
102 2 2 0 0 529 681 378
103 2 2 0 0 519 715 405
104 2 2 0 0 440 441 346
105 2 2 0 0 605 717 519
106 2 2 0 0 403 452 439
107 2 2 0 0 507 639 21
108 2 2 0 0 565 567 566
109 2 2 0 0 433 454 341
110 2 2 0 0 67 466 80
111 2 2 0 0 555 697 576
112 2 2 0 0 491 628 493
113 2 2 0 0 389 641 342
114 2 2 0 0 429 619 474
115 2 2 0 0 40 501 464
116 2 2 0 0 576 699 555
117 2 2 0 0 311 600 377
118 2 2 0 0 567 622 566
119 2 2 0 0 433 575 454
120 2 2 0 0 378 671 629
121 2 2 0 0 79 540 103
122 2 2 0 0 341 473 433
123 2 2 0 0 673 704 68
124 2 2 0 0 462 710 345
125 2 2 0 0 557 722 616
126 2 2 0 0 573 662 343
127 2 2 0 0 370 656 463
128 2 2 0 0 341 454 252
129 2 2 0 0 616 702 557
130 2 2 0 0 6 26 7
131 2 2 0 0 464 501 467
132 2 2 0 0 433 473 406
133 2 2 0 0 8 45 37
134 2 2 0 0 466 709 317
135 2 2 0 0 457 461 379
136 2 2 0 0 84 512 86
137 2 2 0 0 19 452 33
138 2 2 0 0 380 614 425
139 2 2 0 0 83 540 79
140 2 2 0 0 398 510 509
141 2 2 0 0 609 631 137
142 2 2 0 0 18 442 36
143 2 2 0 0 26 45 7
144 2 2 0 0 565 566 343
145 2 2 0 0 80 83 79
146 2 2 0 0 560 689 554
147 2 2 0 0 134 137 136
148 2 2 0 0 68 469 42
149 2 2 0 0 659 716 653
150 2 2 0 0 619 707 474
151 2 2 0 0 497 610 39
152 2 2 0 0 137 138 136
153 2 2 0 0 283 573 343
154 2 2 0 0 506 644 448
155 2 2 0 0 499 735 31
156 2 2 0 0 81 97 25
157 2 2 0 0 45 46 37
158 2 2 0 0 585 668 637
159 2 2 0 0 495 735 499
160 2 2 0 0 399 510 398
161 2 2 0 0 509 573 398
162 2 2 0 0 442 443 36
163 2 2 0 0 1 607 314
164 2 2 0 0 29 612 436
165 2 2 0 0 547 631 609
166 2 2 0 0 360 595 409
167 2 2 0 0 421 682 342
168 2 2 0 0 426 575 327
169 2 2 0 0 123 577 235
170 2 2 0 0 339 743 417
171 2 2 0 0 7 45 8
172 2 2 0 0 3 723 24
173 2 2 0 0 418 666 653
174 2 2 0 0 59 60 58
175 2 2 0 0 620 636 193
176 2 2 0 0 42 469 47
177 2 2 0 0 65 67 66
178 2 2 0 0 509 662 573
179 2 2 0 0 470 482 247
180 2 2 0 0 368 476 472
181 2 2 0 0 530 740 337
182 2 2 0 0 253 512 84
183 2 2 0 0 455 698 282
184 2 2 0 0 61 65 62
185 2 2 0 0 59 61 60
186 2 2 0 0 91 472 88
187 2 2 0 0 90 92 91
188 2 2 0 0 19 442 18
189 2 2 0 0 464 465 423
190 2 2 0 0 706 724 118
191 2 2 0 0 456 611 32
192 2 2 0 0 379 477 61
193 2 2 0 0 417 743 704
194 2 2 0 0 314 683 1
195 2 2 0 0 442 458 443
196 2 2 0 0 11 28 12
197 2 2 0 0 61 62 60
198 2 2 0 0 118 724 95
199 2 2 0 0 22 25 23
200 2 2 0 0 247 483 470
201 2 2 0 0 281 640 434
202 2 2 0 0 197 667 474
203 2 2 0 0 86 512 89
204 2 2 0 0 417 704 673
205 2 2 0 0 451 690 230
206 2 2 0 0 27 442 19
207 2 2 0 0 637 668 229
208 2 2 0 0 60 475 58
209 2 2 0 0 489 610 497
210 2 2 0 0 307 573 283
211 2 2 0 0 61 477 65
212 2 2 0 0 65 66 62
213 2 2 0 0 544 740 530
214 2 2 0 0 230 719 451
215 2 2 0 0 18 452 19
216 2 2 0 0 268 569 269
217 2 2 0 0 32 485 456
218 2 2 0 0 627 696 401
219 2 2 0 0 24 42 41
220 2 2 0 0 20 27 19
221 2 2 0 0 330 461 457
222 2 2 0 0 506 672 644
223 2 2 0 0 472 476 87
224 2 2 0 0 468 495 494
225 2 2 0 0 88 472 87
226 2 2 0 0 121 577 123
227 2 2 0 0 327 575 276
228 2 2 0 0 422 464 423
229 2 2 0 0 47 63 49
230 2 2 0 0 458 506 443
231 2 2 0 0 232 690 451
232 2 2 0 0 28 487 12
233 2 2 0 0 80 107 83
234 2 2 0 0 608 696 676
235 2 2 0 0 356 481 355
236 2 2 0 0 138 238 136
237 2 2 0 0 137 139 138
238 2 2 0 0 729 739 26
239 2 2 0 0 81 99 97
240 2 2 0 0 46 50 37
241 2 2 0 0 463 656 8
242 2 2 0 0 443 444 36
243 2 2 0 0 68 704 469
244 2 2 0 0 24 68 42
245 2 2 0 0 16 503 30
246 2 2 0 0 65 69 67
247 2 2 0 0 67 79 66
248 2 2 0 0 676 696 369
249 2 2 0 0 59 379 61
250 2 2 0 0 90 93 92
251 2 2 0 0 464 467 465
252 2 2 0 0 441 708 312
253 2 2 0 0 483 484 471
254 2 2 0 0 427 479 478
255 2 2 0 0 245 564 244
256 2 2 0 0 470 483 471
257 2 2 0 0 473 721 406
258 2 2 0 0 555 699 554
259 2 2 0 0 47 469 63
260 2 2 0 0 63 355 49
261 2 2 0 0 62 64 60
262 2 2 0 0 80 108 107
263 2 2 0 0 107 539 83
264 2 2 0 0 139 140 138
265 2 2 0 0 99 100 97
266 2 2 0 0 81 236 99
267 2 2 0 0 46 51 50
268 2 2 0 0 443 445 444
269 2 2 0 0 24 419 68
270 2 2 0 0 69 466 67
271 2 2 0 0 79 103 66
272 2 2 0 0 65 477 69
273 2 2 0 0 547 548 321
274 2 2 0 0 93 94 92
275 2 2 0 0 467 468 465
276 2 2 0 0 333 664 649
277 2 2 0 0 55 498 56
278 2 2 0 0 56 498 72
279 2 2 0 0 12 499 31
280 2 2 0 0 63 356 355
281 2 2 0 0 108 110 107
282 2 2 0 0 139 141 140
283 2 2 0 0 100 101 97
284 2 2 0 0 236 248 99
285 2 2 0 0 81 594 236
286 2 2 0 0 51 52 50
287 2 2 0 0 192 515 195
288 2 2 0 0 445 446 444
289 2 2 0 0 477 481 69
290 2 2 0 0 94 95 92
291 2 2 0 0 93 96 94
292 2 2 0 0 63 408 356
293 2 2 0 0 108 111 110
294 2 2 0 0 110 117 107
295 2 2 0 0 139 154 141
296 2 2 0 0 141 142 140
297 2 2 0 0 51 53 52
298 2 2 0 0 100 102 101
299 2 2 0 0 236 250 248
300 2 2 0 0 445 447 446
301 2 2 0 0 52 388 50
302 2 2 0 0 277 622 567
303 2 2 0 0 95 608 92
304 2 2 0 0 94 118 95
305 2 2 0 0 93 104 96
306 2 2 0 0 51 561 53
307 2 2 0 0 408 434 356
308 2 2 0 0 53 54 52
309 2 2 0 0 445 448 447
310 2 2 0 0 108 317 111
311 2 2 0 0 141 143 142
312 2 2 0 0 142 225 140
313 2 2 0 0 102 166 101
314 2 2 0 0 250 325 248
315 2 2 0 0 100 258 102
316 2 2 0 0 53 55 54
317 2 2 0 0 447 449 446
318 2 2 0 0 236 505 250
319 2 2 0 0 104 105 96
320 2 2 0 0 53 57 55
321 2 2 0 0 55 56 54
322 2 2 0 0 448 451 447
323 2 2 0 0 14 39 15
324 2 2 0 0 317 511 111
325 2 2 0 0 10 40 9
326 2 2 0 0 143 144 142
327 2 2 0 0 57 58 55
328 2 2 0 0 8 37 9
329 2 2 0 0 14 38 13
330 2 2 0 0 166 314 101
331 2 2 0 0 18 36 17
332 2 2 0 0 16 29 17
333 2 2 0 0 33 504 20
334 2 2 0 0 325 365 248
335 2 2 0 0 199 202 196
336 2 2 0 0 7 32 6
337 2 2 0 0 434 435 356
338 2 2 0 0 74 75 73
339 2 2 0 0 223 239 234
340 2 2 0 0 74 76 75
341 2 2 0 0 72 74 73
342 2 2 0 0 231 549 201
343 2 2 0 0 202 205 204
344 2 2 0 0 226 227 214
345 2 2 0 0 272 275 271
346 2 2 0 0 276 318 275
347 2 2 0 0 213 214 209
348 2 2 0 0 76 77 75
349 2 2 0 0 210 231 201
350 2 2 0 0 16 30 15
351 2 2 0 0 205 209 208
352 2 2 0 0 202 204 196
353 2 2 0 0 318 406 340
354 2 2 0 0 195 196 193
355 2 2 0 0 322 420 415
356 2 2 0 0 239 240 234
357 2 2 0 0 163 588 168
358 2 2 0 0 12 31 11
359 2 2 0 0 56 72 71
360 2 2 0 0 425 426 327
361 2 2 0 0 19 33 20
362 2 2 0 0 168 224 215
363 2 2 0 0 209 568 216
364 2 2 0 0 318 433 406
365 2 2 0 0 269 271 270
366 2 2 0 0 268 269 245
367 2 2 0 0 21 639 20
368 2 2 0 0 84 85 82
369 2 2 0 0 181 207 183
370 2 2 0 0 269 272 271
371 2 2 0 0 272 276 275
372 2 2 0 0 242 243 240
373 2 2 0 0 102 167 166
374 2 2 0 0 223 234 233
375 2 2 0 0 283 343 227
376 2 2 0 0 205 208 204
377 2 2 0 0 213 226 214
378 2 2 0 0 271 572 347
379 2 2 0 0 243 268 245
380 2 2 0 0 335 398 307
381 2 2 0 0 303 555 554
382 2 2 0 0 226 283 227
383 2 2 0 0 347 485 370
384 2 2 0 0 195 199 196
385 2 2 0 0 205 213 209
386 2 2 0 0 246 322 252
387 2 2 0 0 76 78 77
388 2 2 0 0 133 163 135
389 2 2 0 0 163 168 164
390 2 2 0 0 322 415 341
391 2 2 0 0 227 361 214
392 2 2 0 0 191 198 189
393 2 2 0 0 78 84 82
394 2 2 0 0 209 216 208
395 2 2 0 0 78 82 77
396 2 2 0 0 216 303 266
397 2 2 0 0 417 418 362
398 2 2 0 0 314 607 101
399 2 2 0 0 339 362 280
400 2 2 0 0 243 245 244
401 2 2 0 0 187 291 185
402 2 2 0 0 429 430 359
403 2 2 0 0 143 145 144
404 2 2 0 0 202 553 205
405 2 2 0 0 339 417 362
406 2 2 0 0 131 580 133
407 2 2 0 0 239 242 240
408 2 2 0 0 57 59 58
409 2 2 0 0 224 246 215
410 2 2 0 0 84 86 85
411 2 2 0 0 303 554 266
412 2 2 0 0 72 73 71
413 2 2 0 0 437 438 414
414 2 2 0 0 318 340 275
415 2 2 0 0 269 270 245
416 2 2 0 0 86 87 85
417 2 2 0 0 192 193 191
418 2 2 0 0 123 235 129
419 2 2 0 0 263 374 262
420 2 2 0 0 425 427 426
421 2 2 0 0 149 150 147
422 2 2 0 0 210 232 231
423 2 2 0 0 74 373 76
424 2 2 0 0 168 215 169
425 2 2 0 0 259 262 249
426 2 2 0 0 145 146 144
427 2 2 0 0 367 524 289
428 2 2 0 0 271 347 270
429 2 2 0 0 406 407 340
430 2 2 0 0 334 459 424
431 2 2 0 0 429 474 430
432 2 2 0 0 250 328 325
433 2 2 0 0 431 432 367
434 2 2 0 0 104 278 105
435 2 2 0 0 145 147 146
436 2 2 0 0 151 152 150
437 2 2 0 0 235 583 129
438 2 2 0 0 237 249 228
439 2 2 0 0 149 151 150
440 2 2 0 0 159 161 158
441 2 2 0 0 153 155 152
442 2 2 0 0 156 158 155
443 2 2 0 0 354 367 289
444 2 2 0 0 259 263 262
445 2 2 0 0 190 191 189
446 2 2 0 0 177 221 174
447 2 2 0 0 162 228 161
448 2 2 0 0 124 516 386
449 2 2 0 0 418 653 578
450 2 2 0 0 371 584 295
451 2 2 0 0 151 153 152
452 2 2 0 0 153 156 155
453 2 2 0 0 159 162 161
454 2 2 0 0 374 593 262
455 2 2 0 0 156 159 158
456 2 2 0 0 237 259 249
457 2 2 0 0 146 284 160
458 2 2 0 0 266 309 267
459 2 2 0 0 264 265 257
460 2 2 0 0 86 88 87
461 2 2 0 0 265 312 257
462 2 2 0 0 162 237 228
463 2 2 0 0 21 44 22
464 2 2 0 0 324 392 390
465 2 2 0 0 371 585 584
466 2 2 0 0 262 366 249
467 2 2 0 0 192 195 193
468 2 2 0 0 263 375 374
469 2 2 0 0 216 266 217
470 2 2 0 0 326 327 276
471 2 2 0 0 260 646 166
472 2 2 0 0 220 223 222
473 2 2 0 0 322 341 252
474 2 2 0 0 256 257 255
475 2 2 0 0 78 253 84
476 2 2 0 0 358 359 242
477 2 2 0 0 188 189 187
478 2 2 0 0 281 339 280
479 2 2 0 0 146 160 144
480 2 2 0 0 123 129 128
481 2 2 0 0 255 324 254
482 2 2 0 0 228 229 161
483 2 2 0 0 354 431 367
484 2 2 0 0 163 164 135
485 2 2 0 0 155 157 152
486 2 2 0 0 243 244 240
487 2 2 0 0 256 264 257
488 2 2 0 0 284 316 160
489 2 2 0 0 380 425 327
490 2 2 0 0 148 149 147
491 2 2 0 0 335 399 398
492 2 2 0 0 418 578 362
493 2 2 0 0 334 424 396
494 2 2 0 0 167 260 166
495 2 2 0 0 325 368 365
496 2 2 0 0 428 429 359
497 2 2 0 0 165 255 254
498 2 2 0 0 297 342 264
499 2 2 0 0 298 371 295
500 2 2 0 0 218 323 220
501 2 2 0 0 310 337 302
502 2 2 0 0 165 256 255
503 2 2 0 0 186 187 185
504 2 2 0 0 56 71 70
505 2 2 0 0 165 254 125
506 2 2 0 0 200 201 199
507 2 2 0 0 148 206 149
508 2 2 0 0 324 390 364
509 2 2 0 0 190 192 191
510 2 2 0 0 368 369 365
511 2 2 0 0 353 404 351
512 2 2 0 0 104 331 278
513 2 2 0 0 256 297 264
514 2 2 0 0 316 421 416
515 2 2 0 0 239 358 242
516 2 2 0 0 169 586 171
517 2 2 0 0 286 287 206
518 2 2 0 0 324 364 254
519 2 2 0 0 241 576 162
520 2 2 0 0 168 169 164
521 2 2 0 0 121 123 122
522 2 2 0 0 266 267 217
523 2 2 0 0 129 131 130
524 2 2 0 0 216 217 208
525 2 2 0 0 285 382 313
526 2 2 0 0 172 321 170
527 2 2 0 0 390 391 364
528 2 2 0 0 296 563 300
529 2 2 0 0 246 252 251
530 2 2 0 0 285 286 206
531 2 2 0 0 288 289 287
532 2 2 0 0 298 372 371
533 2 2 0 0 23 35 22
534 2 2 0 0 300 344 304
535 2 2 0 0 344 462 345
536 2 2 0 0 123 128 122
537 2 2 0 0 297 389 342
538 2 2 0 0 237 277 259
539 2 2 0 0 148 285 206
540 2 2 0 0 86 89 88
541 2 2 0 0 306 307 283
542 2 2 0 0 234 279 233
543 2 2 0 0 316 416 160
544 2 2 0 0 188 190 189
545 2 2 0 0 85 98 82
546 2 2 0 0 358 428 359
547 2 2 0 0 437 455 438
548 2 2 0 0 203 210 201
549 2 2 0 0 382 383 313
550 2 2 0 0 153 176 156
551 2 2 0 0 290 354 289
552 2 2 0 0 159 241 162
553 2 2 0 0 386 387 126
554 2 2 0 0 273 363 338
555 2 2 0 0 272 326 276
556 2 2 0 0 171 293 173
557 2 2 0 0 145 148 147
558 2 2 0 0 274 295 261
559 2 2 0 0 285 313 286
560 2 2 0 0 383 384 313
561 2 2 0 0 301 302 299
562 2 2 0 0 131 133 132
563 2 2 0 0 296 298 295
564 2 2 0 0 305 310 302
565 2 2 0 0 349 412 328
566 2 2 0 0 344 345 304
567 2 2 0 0 77 119 75
568 2 2 0 0 315 378 310
569 2 2 0 0 363 401 400
570 2 2 0 0 332 333 278
571 2 2 0 0 223 233 222
572 2 2 0 0 331 334 332
573 2 2 0 0 186 188 187
574 2 2 0 0 178 212 177
575 2 2 0 0 305 360 315
576 2 2 0 0 334 396 395
577 2 2 0 0 246 251 215
578 2 2 0 0 167 261 260
579 2 2 0 0 175 179 178
580 2 2 0 0 345 346 304
581 2 2 0 0 124 386 126
582 2 2 0 0 286 288 287
583 2 2 0 0 331 332 278
584 2 2 0 0 179 181 180
585 2 2 0 0 301 305 302
586 2 2 0 0 300 304 301
587 2 2 0 0 296 300 299
588 2 2 0 0 305 315 310
589 2 2 0 0 296 299 298
590 2 2 0 0 320 453 290
591 2 2 0 0 274 296 295
592 2 2 0 0 313 531 286
593 2 2 0 0 120 281 280
594 2 2 0 0 360 409 315
595 2 2 0 0 363 400 338
596 2 2 0 0 129 130 128
597 2 2 0 0 300 301 299
598 2 2 0 0 1 508 23
599 2 2 0 0 167 273 261
600 2 2 0 0 133 135 134
601 2 2 0 0 173 174 172
602 2 2 0 0 311 377 376
603 2 2 0 0 273 274 261
604 2 2 0 0 273 338 274
605 2 2 0 0 334 395 332
606 2 2 0 0 183 197 184
607 2 2 0 0 319 393 320
608 2 2 0 0 449 450 446
609 2 2 0 0 288 290 289
610 2 2 0 0 226 306 283
611 2 2 0 0 326 380 327
612 2 2 0 0 175 177 174
613 2 2 0 0 181 183 182
614 2 2 0 0 219 230 211
615 2 2 0 0 308 335 307
616 2 2 0 0 267 311 292
617 2 2 0 0 169 170 164
618 2 2 0 0 288 319 290
619 2 2 0 0 126 165 125
620 2 2 0 0 120 280 121
621 2 2 0 0 130 357 128
622 2 2 0 0 195 200 199
623 2 2 0 0 169 171 170
624 2 2 0 0 171 172 170
625 2 2 0 0 184 186 185
626 2 2 0 0 73 282 71
627 2 2 0 0 252 294 251
628 2 2 0 0 319 320 290
629 2 2 0 0 131 132 130
630 2 2 0 0 393 394 320
631 2 2 0 0 171 173 172
632 2 2 0 0 4 34 3
633 2 2 0 0 218 220 219
634 2 2 0 0 267 292 217
635 2 2 0 0 184 185 182
636 2 2 0 0 188 194 190
637 2 2 0 0 56 70 54
638 2 2 0 0 377 405 376
639 2 2 0 0 449 470 450
640 2 2 0 0 179 180 178
641 2 2 0 0 173 175 174
642 2 2 0 0 175 178 177
643 2 2 0 0 250 329 328
644 2 2 0 0 311 376 292
645 2 2 0 0 329 571 350
646 2 2 0 0 347 370 348
647 2 2 0 0 220 222 219
648 2 2 0 0 376 385 292
649 2 2 0 0 133 134 132
650 2 2 0 0 134 136 132
651 2 2 0 0 306 308 307
652 2 2 0 0 200 203 201
653 2 2 0 0 233 247 222
654 2 2 0 0 98 460 82
655 2 2 0 0 329 349 328
656 2 2 0 0 326 381 380
657 2 2 0 0 347 348 270
658 2 2 0 0 181 182 180
659 2 2 0 0 121 122 115
660 2 2 0 0 350 351 349
661 2 2 0 0 308 336 335
662 2 2 0 0 350 403 352
663 2 2 0 0 470 471 450
664 2 2 0 0 203 211 210
665 2 2 0 0 218 219 211
666 2 2 0 0 183 184 182
667 2 2 0 0 370 463 422
668 2 2 0 0 306 402 308
669 2 2 0 0 203 218 211
670 2 2 0 0 71 490 70
671 2 2 0 0 329 350 349
672 2 2 0 0 436 437 414
673 2 2 0 0 124 126 125
674 2 2 0 0 413 414 353
675 2 2 0 0 422 423 348
676 2 2 0 0 352 353 351
677 2 2 0 0 370 422 348
678 2 2 0 0 350 352 351
679 2 2 0 0 413 436 414
680 2 2 0 0 352 413 353
681 2 2 0 0 120 121 115
682 2 2 0 0 110 480 117
683 2 2 0 0 124 125 116
684 2 2 0 0 126 521 165
685 2 2 0 0 113 120 115
686 2 2 0 0 127 440 410
687 2 2 0 0 114 124 116
688 2 2 0 0 543 544 530
689 2 2 0 0 488 489 487
690 2 2 0 0 585 637 366
691 2 2 0 0 543 570 544
692 2 2 0 0 113 115 114
693 2 2 0 0 127 410 106
694 2 2 0 0 114 116 112
695 2 2 0 0 195 515 200
696 2 2 0 0 491 493 492
697 2 2 0 0 12 487 13
698 2 2 0 0 546 547 321
699 2 2 0 0 330 457 411
700 2 2 0 0 157 543 530
701 2 2 0 0 519 520 291
702 2 2 0 0 28 488 487
703 2 2 0 0 111 112 110
704 2 2 0 0 312 534 257
705 2 2 0 0 476 732 412
706 2 2 0 0 27 458 442
707 2 2 0 0 385 636 620
708 2 2 0 0 176 559 156
709 2 2 0 0 593 634 366
710 2 2 0 0 589 590 224
711 2 2 0 0 113 114 112
712 2 2 0 0 109 127 106
713 2 2 0 0 270 564 245
714 2 2 0 0 443 506 445
715 2 2 0 0 491 492 396
716 2 2 0 0 388 624 502
717 2 2 0 0 445 506 448
718 2 2 0 0 30 500 15
719 2 2 0 0 20 504 21
720 2 2 0 0 64 475 60
721 2 2 0 0 287 542 206
722 2 2 0 0 23 508 35
723 2 2 0 0 302 558 299
724 2 2 0 0 70 551 54
725 2 2 0 0 62 598 64
726 2 2 0 0 424 491 396
727 2 2 0 0 407 456 340
728 2 2 0 0 545 546 321
729 2 2 0 0 330 411 397
730 2 2 0 0 72 536 74
731 2 2 0 0 238 574 136
732 2 2 0 0 659 660 420
733 2 2 0 0 395 538 332
734 2 2 0 0 143 527 145
735 2 2 0 0 412 675 476
736 2 2 0 0 239 513 358
737 2 2 0 0 157 530 529
738 2 2 0 0 518 519 291
739 2 2 0 0 449 482 470
740 2 2 0 0 207 713 479
741 2 2 0 0 119 523 75
742 2 2 0 0 109 670 127
743 2 2 0 0 10 501 40
744 2 2 0 0 508 509 35
745 2 2 0 0 96 606 94
746 2 2 0 0 331 459 334
747 2 2 0 0 286 531 288
748 2 2 0 0 290 453 354
749 2 2 0 0 282 490 71
750 2 2 0 0 384 531 313
751 2 2 0 0 289 524 287
752 2 2 0 0 349 550 412
753 2 2 0 0 165 521 256
754 2 2 0 0 82 460 77
755 2 2 0 0 155 543 157
756 2 2 0 0 201 549 199
757 2 2 0 0 273 591 363
758 2 2 0 0 387 521 126
759 2 2 0 0 114 516 124
760 2 2 0 0 53 561 57
761 2 2 0 0 266 554 309
762 2 2 0 0 257 534 255
763 2 2 0 0 205 553 213
764 2 2 0 0 142 522 225
765 2 2 0 0 435 481 356
766 2 2 0 0 216 568 303
767 2 2 0 0 300 563 344
768 2 2 0 0 214 568 209
769 2 2 0 0 112 480 110
770 2 2 0 0 350 571 403
771 2 2 0 0 347 572 485
772 2 2 0 0 275 572 271
773 2 2 0 0 274 563 296
774 2 2 0 0 171 586 293
775 2 2 0 0 162 576 237
776 2 2 0 0 133 580 163
777 2 2 0 0 11 501 10
778 2 2 0 0 295 584 261
779 2 2 0 0 129 583 131
780 2 2 0 0 215 586 169
781 2 2 0 0 250 505 329
782 2 2 0 0 168 588 224
783 2 2 0 0 321 548 170
784 2 2 0 0 262 593 366
785 2 2 0 0 166 646 314
786 2 2 0 0 520 535 291
787 2 2 0 0 373 663 493
788 2 2 0 0 291 535 185
789 2 2 0 0 101 607 97
790 2 2 0 0 130 574 357
791 2 2 0 0 158 570 543
792 2 2 0 0 31 501 11
793 2 2 0 0 444 552 503
794 2 2 0 0 156 559 159
795 2 2 0 0 236 594 505
796 2 2 0 0 206 542 149
797 2 2 0 0 54 551 52
798 2 2 0 0 74 536 373
799 2 2 0 0 337 558 302
800 2 2 0 0 150 532 147
801 2 2 0 0 379 728 457
802 2 2 0 0 299 558 298
803 2 2 0 0 332 538 333
804 2 2 0 0 145 527 148
805 2 2 0 0 514 515 192
806 2 2 0 0 15 500 14
807 2 2 0 0 75 523 73
808 2 2 0 0 467 501 31
809 2 2 0 0 254 592 125
810 2 2 0 0 172 545 321
811 2 2 0 0 144 522 142
812 2 2 0 0 528 532 150
813 2 2 0 0 187 518 291
814 2 2 0 0 553 599 213
815 2 2 0 0 383 603 384
816 2 2 0 0 282 698 490
817 2 2 0 0 244 517 240
818 2 2 0 0 353 525 404
819 2 2 0 0 395 540 538
820 2 2 0 0 94 606 118
821 2 2 0 0 117 539 107
822 2 2 0 0 185 535 182
823 2 2 0 0 388 502 50
824 2 2 0 0 167 591 273
825 2 2 0 0 147 532 146
826 2 2 0 0 92 608 91
827 2 2 0 0 472 676 368
828 2 2 0 0 364 592 254
829 2 2 0 0 21 504 44
830 2 2 0 0 365 597 248
831 2 2 0 0 125 592 116
832 2 2 0 0 588 589 224
833 2 2 0 0 111 113 112
834 2 2 0 0 63 469 408
835 2 2 0 0 105 109 106
836 2 2 0 0 242 526 243
837 2 2 0 0 439 712 29
838 2 2 0 0 240 517 234
839 2 2 0 0 346 533 304
840 2 2 0 0 14 500 38
841 2 2 0 0 494 495 484
842 2 2 0 0 127 630 440
843 2 2 0 0 208 537 204
844 2 2 0 0 175 562 179
845 2 2 0 0 303 626 555
846 2 2 0 0 359 526 242
847 2 2 0 0 243 526 268
848 2 2 0 0 217 537 208
849 2 2 0 0 58 498 55
850 2 2 0 0 503 552 30
851 2 2 0 0 13 499 12
852 2 2 0 0 268 621 569
853 2 2 0 0 489 497 487
854 2 2 0 0 475 498 58
855 2 2 0 0 430 526 359
856 2 2 0 0 248 597 99
857 2 2 0 0 292 537 217
858 2 2 0 0 26 645 45
859 2 2 0 0 234 517 279
860 2 2 0 0 14 497 39
861 2 2 0 0 385 537 292
862 2 2 0 0 305 533 360
863 2 2 0 0 304 533 301
864 2 2 0 0 146 532 284
865 2 2 0 0 483 494 484
866 2 2 0 0 173 562 175
867 2 2 0 0 116 480 112
868 2 2 0 0 224 590 246
869 2 2 0 0 189 518 187
870 2 2 0 0 498 536 72
871 2 2 0 0 414 525 353
872 2 2 0 0 160 522 144
873 2 2 0 0 547 609 548
874 2 2 0 0 182 535 180
875 2 2 0 0 297 601 389
876 2 2 0 0 44 594 81
877 2 2 0 0 301 533 305
878 2 2 0 0 105 106 96
879 2 2 0 0 515 596 200
880 2 2 0 0 293 562 173
881 2 2 0 0 73 523 282
882 2 2 0 0 148 527 285
883 2 2 0 0 174 545 172
884 2 2 0 0 218 596 323
885 2 2 0 0 200 596 203
886 2 2 0 0 149 542 151
887 2 2 0 0 446 552 444
888 2 2 0 0 49 461 330
889 2 2 0 0 330 397 48
890 2 2 0 0 453 738 377
891 2 2 0 0 255 534 324
892 2 2 0 0 52 551 388
893 2 2 0 0 634 646 260
894 2 2 0 0 513 615 358
895 2 2 0 0 438 525 414
896 2 2 0 0 516 618 386
897 2 2 0 0 198 518 189
898 2 2 0 0 227 566 361
899 2 2 0 0 559 560 241
900 2 2 0 0 90 587 93
901 2 2 0 0 416 522 160
902 2 2 0 0 102 591 167
903 2 2 0 0 134 609 137
904 2 2 0 0 298 558 372
905 2 2 0 0 132 574 130
906 2 2 0 0 106 606 96
907 2 2 0 0 159 559 241
908 2 2 0 0 32 611 6
909 2 2 0 0 158 543 155
910 2 2 0 0 223 513 239
911 2 2 0 0 288 531 319
912 2 2 0 0 323 513 220
913 2 2 0 0 115 516 114
914 2 2 0 0 521 601 297
915 2 2 0 0 610 698 455
916 2 2 0 0 354 600 431
917 2 2 0 0 351 550 349
918 2 2 0 0 256 521 297
919 2 2 0 0 140 604 138
920 2 2 0 0 77 460 119
921 2 2 0 0 17 503 16
922 2 2 0 0 9 502 10
923 2 2 0 0 104 587 331
924 2 2 0 0 152 528 150
925 2 2 0 0 315 541 378
926 2 2 0 0 170 548 164
927 2 2 0 0 590 659 420
928 2 2 0 0 11 624 28
929 2 2 0 0 199 549 202
930 2 2 0 0 502 624 10
931 2 2 0 0 453 600 354
932 2 2 0 0 42 43 41
933 2 2 0 0 38 499 13
934 2 2 0 0 285 527 382
935 2 2 0 0 190 514 192
936 2 2 0 0 157 529 528
937 2 2 0 0 231 643 549
938 2 2 0 0 331 587 459
939 2 2 0 0 451 701 232
940 2 2 0 0 99 597 100
941 2 2 0 0 361 568 214
942 2 2 0 0 372 740 544
943 2 2 0 0 221 545 174
944 2 2 0 0 138 604 238
945 2 2 0 0 340 572 275
946 2 2 0 0 338 563 274
947 2 2 0 0 524 542 287
948 2 2 0 0 265 595 312
949 2 2 0 0 111 511 113
950 2 2 0 0 580 658 588
951 2 2 0 0 580 588 163
952 2 2 0 0 237 576 277
953 2 2 0 0 444 503 36
954 2 2 0 0 131 583 580
955 2 2 0 0 505 571 329
956 2 2 0 0 203 596 218
957 2 2 0 0 584 634 260
958 2 2 0 0 261 584 260
959 2 2 0 0 369 647 365
960 2 2 0 0 251 586 215
961 2 2 0 0 348 564 270
962 2 2 0 0 450 552 446
963 2 2 0 0 390 496 391
964 2 2 0 0 66 598 62
965 2 2 0 0 465 623 423
966 2 2 0 0 258 591 102
967 2 2 0 0 343 566 227
968 2 2 0 0 564 623 244
969 2 2 0 0 154 617 141
970 2 2 0 0 324 534 392
971 2 2 0 0 50 502 37
972 2 2 0 0 524 556 542
973 2 2 0 0 544 700 372
974 2 2 0 0 122 516 115
975 2 2 0 0 177 557 221
976 2 2 0 0 489 698 610
977 2 2 0 0 93 587 104
978 2 2 0 0 136 574 132
979 2 2 0 0 593 646 634
980 2 2 0 0 116 592 480
981 2 2 0 0 143 617 527
982 2 2 0 0 225 604 140
983 2 2 0 0 137 631 139
984 2 2 0 0 549 553 202
985 2 2 0 0 164 548 135
986 2 2 0 0 404 550 351
987 2 2 0 0 34 721 473
988 2 2 0 0 220 513 223
989 2 2 0 0 317 640 511
990 2 2 0 0 100 597 258
991 2 2 0 0 588 658 589
992 2 2 0 0 323 615 513
993 2 2 0 0 568 626 303
994 2 2 0 0 377 605 405
995 2 2 0 0 178 613 212
996 2 2 0 0 493 628 373
997 2 2 0 0 157 528 152
998 2 2 0 0 591 627 363
999 2 2 0 0 409 541 315
1000 2 2 0 0 183 614 197
1001 2 2 0 0 103 598 66
1002 2 2 0 0 188 619 194
1003 2 2 0 0 213 599 226
1004 2 2 0 0 306 599 402
1005 2 2 0 0 97 607 25
1006 2 2 0 0 194 514 190
1007 2 2 0 0 373 628 76
1008 2 2 0 0 78 628 253
1009 2 2 0 0 42 47 43
1010 2 2 0 0 39 612 15
1011 2 2 0 0 16 612 29
1012 2 2 0 0 437 610 455
1013 2 2 0 0 487 497 13
1014 2 2 0 0 440 630 441
1015 2 2 0 0 479 713 562
1016 2 2 0 0 196 620 193
1017 2 2 0 0 456 572 340
1018 2 2 0 0 120 511 281
1019 2 2 0 0 577 578 235
1020 2 2 0 0 335 582 399
1021 2 2 0 0 314 741 683
1022 2 2 0 0 520 613 535
1023 2 2 0 0 585 634 584
1024 2 2 0 0 423 564 348
1025 2 2 0 0 457 561 411
1026 2 2 0 0 6 611 5
1027 2 2 0 0 385 620 537
1028 2 2 0 0 228 637 229
1029 2 2 0 0 366 637 249
1030 2 2 0 0 161 570 158
1031 2 2 0 0 434 640 435
1032 2 2 0 0 193 636 191
1033 2 2 0 0 410 606 106
1034 2 2 0 0 37 502 9
1035 2 2 0 0 36 503 17
1036 2 2 0 0 141 617 143
1037 2 2 0 0 363 627 401
1038 2 2 0 0 322 590 420
1039 2 2 0 0 357 618 128
1040 2 2 0 0 430 621 526
1041 2 2 0 0 540 687 103
1042 2 2 0 0 280 577 121
1043 2 2 0 0 276 575 318
1044 2 2 0 0 362 578 577
1045 2 2 0 0 109 649 496
1046 2 2 0 0 246 590 322
1047 2 2 0 0 326 569 381
1048 2 2 0 0 569 621 381
1049 2 2 0 0 269 569 272
1050 2 2 0 0 139 631 154
1051 2 2 0 0 649 664 496
1052 2 2 0 0 537 620 204
1053 2 2 0 0 355 461 49
1054 2 2 0 0 663 685 493
1055 2 2 0 0 479 745 207
1056 2 2 0 0 343 662 565
1057 2 2 0 0 212 557 177
1058 2 2 0 0 45 645 46
1059 2 2 0 0 496 670 109
1060 2 2 0 0 366 634 585
1061 2 2 0 0 384 616 531
1062 2 2 0 0 535 613 180
1063 2 2 0 0 391 632 364
1064 2 2 0 0 308 581 336
1065 2 2 0 0 344 625 462
1066 2 2 0 0 563 625 344
1067 2 2 0 0 13 497 14
1068 2 2 0 0 480 632 117
1069 2 2 0 0 371 668 585
1070 2 2 0 0 333 649 278
1071 2 2 0 0 387 601 521
1072 2 2 0 0 47 49 48
1073 2 2 0 0 358 615 428
1074 2 2 0 0 113 511 120
1075 2 2 0 0 527 617 382
1076 2 2 0 0 105 649 109
1077 2 2 0 0 398 573 307
1078 2 2 0 0 368 676 369
1079 2 2 0 0 180 613 178
1080 2 2 0 0 153 556 176
1081 2 2 0 0 432 657 367
1082 2 2 0 0 458 718 582
1083 2 2 0 0 207 614 183
1084 2 2 0 0 407 611 456
1085 2 2 0 0 244 623 517
1086 2 2 0 0 20 639 27
1087 2 2 0 0 476 675 87
1088 2 2 0 0 319 616 393
1089 2 2 0 0 474 707 197
1090 2 2 0 0 226 599 306
1091 2 2 0 0 47 48 43
1092 2 2 0 0 186 619 188
1093 2 2 0 0 412 732 328
1094 2 2 0 0 316 671 541
1095 2 2 0 0 293 734 478
1096 2 2 0 0 492 685 598
1097 2 2 0 0 528 629 532
1098 2 2 0 0 514 635 515
1099 2 2 0 0 531 616 319
1100 2 2 0 0 8 656 7
1101 2 2 0 0 387 602 601
1102 2 2 0 0 76 628 78
1103 2 2 0 0 122 618 516
1104 2 2 0 0 651 717 394
1105 2 2 0 0 423 623 564
1106 2 2 0 0 546 669 547
1107 2 2 0 0 4 679 34
1108 2 2 0 0 542 556 151
1109 2 2 0 0 548 609 135
1110 2 2 0 0 204 620 196
1111 2 2 0 0 529 629 528
1112 2 2 0 0 482 719 230
1113 2 2 0 0 258 627 591
1114 2 2 0 0 336 582 335
1115 2 2 0 0 197 686 667
1116 2 2 0 0 583 658 580
1117 2 2 0 0 85 675 98
1118 2 2 0 0 59 728 379
1119 2 2 0 0 400 625 338
1120 2 2 0 0 394 717 605
1121 2 2 0 0 471 650 450
1122 2 2 0 0 596 635 323
1123 2 2 0 0 249 637 228
1124 2 2 0 0 515 635 596
1125 2 2 0 0 338 625 563
1126 2 2 0 0 28 633 488
1127 2 2 0 0 566 622 361
1128 2 2 0 0 229 570 161
1129 2 2 0 0 468 654 465
1130 2 2 0 0 118 710 462
1131 2 2 0 0 15 612 16
1132 2 2 0 0 589 659 590
1133 2 2 0 0 526 621 268
1134 2 2 0 0 365 647 597
1135 2 2 0 0 579 583 235
1136 2 2 0 0 22 507 21
1137 2 2 0 0 342 682 264
1138 2 2 0 0 441 648 346
1139 2 2 0 0 191 636 198
1140 2 2 0 0 578 653 579
1141 2 2 0 0 135 609 134
1142 2 2 0 0 128 618 122
1143 2 2 0 0 378 681 310
1144 2 2 0 0 230 690 211
1145 2 2 0 0 210 690 232
1146 2 2 0 0 549 643 553
1147 2 2 0 0 233 661 247
1148 2 2 0 0 10 624 11
1149 2 2 0 0 640 709 435
1150 2 2 0 0 449 719 482
1151 2 2 0 0 452 726 33
1152 2 2 0 0 362 577 280
1153 2 2 0 0 318 575 433
1154 2 2 0 0 492 687 396
1155 2 2 0 0 586 734 293
1156 2 2 0 0 357 655 618
1157 2 2 0 0 277 567 259
1158 2 2 0 0 522 641 225
1159 2 2 0 0 511 640 281
1160 2 2 0 0 247 661 483
1161 2 2 0 0 610 693 39
1162 2 2 0 0 272 569 326
1163 2 2 0 0 490 695 70
1164 2 2 0 0 553 643 599
1165 2 2 0 0 532 629 284
1166 2 2 0 0 29 712 17
1167 2 2 0 0 632 665 117
1168 2 2 0 0 618 655 386
1169 2 2 0 0 241 699 576
1170 2 2 0 0 457 728 561
1171 2 2 0 0 485 572 456
1172 2 2 0 0 430 667 621
1173 2 2 0 0 582 672 458
1174 2 2 0 0 395 687 540
1175 2 2 0 0 504 594 44
1176 2 2 0 0 181 713 207
1177 2 2 0 0 197 707 184
1178 2 2 0 0 524 657 556
1179 2 2 0 0 475 536 498
1180 2 2 0 0 394 738 320
1181 2 2 0 0 51 714 561
1182 2 2 0 0 151 556 153
1183 2 2 0 0 437 693 610
1184 2 2 0 0 361 626 568
1185 2 2 0 0 611 679 5
1186 2 2 0 0 231 680 643
1187 2 2 0 0 462 706 118
1188 2 2 0 0 390 670 496
1189 2 2 0 0 602 642 601
1190 2 2 0 0 49 330 48
1191 2 2 0 0 391 665 632
1192 2 2 0 0 508 737 375
1193 2 2 0 0 450 650 552
1194 2 2 0 0 368 732 476
1195 2 2 0 0 578 579 235
1196 2 2 0 0 402 581 308
1197 2 2 0 0 43 486 41
1198 2 2 0 0 562 713 179
1199 2 2 0 0 592 632 480
1200 2 2 0 0 416 641 522
1201 2 2 0 0 372 668 371
1202 2 2 0 0 452 712 439
1203 2 2 0 0 282 720 455
1204 2 2 0 0 556 657 176
1205 2 2 0 0 364 632 592
1206 2 2 0 0 403 726 452
1207 2 2 0 0 465 654 623
1208 2 2 0 0 278 649 105
1209 2 2 0 0 154 652 617
1210 2 2 0 0 383 688 603
1211 2 2 0 0 451 719 447
1212 2 2 0 0 317 709 640
1213 2 2 0 0 604 711 642
1214 2 2 0 0 382 652 383
1215 2 2 0 0 601 642 389
1216 2 2 0 0 284 671 316
1217 2 2 0 0 599 643 402
1218 2 2 0 0 388 633 624
1219 2 2 0 0 267 678 311
1220 2 2 0 0 337 681 530
1221 2 2 0 0 279 661 233
1222 2 2 0 0 605 738 394
1223 2 2 0 0 33 677 504
1224 2 2 0 0 386 655 387
1225 2 2 0 0 547 669 631
1226 2 2 0 0 562 731 479
1227 2 2 0 0 360 648 595
1228 2 2 0 0 432 692 657
1229 2 2 0 0 367 657 524
1230 2 2 0 0 633 695 488
1231 2 2 0 0 415 473 341
1232 2 2 0 0 644 672 336
1233 2 2 0 0 551 633 388
1234 2 2 0 0 533 648 360
1235 2 2 0 0 407 679 611
1236 2 2 0 0 323 635 615
1237 2 2 0 0 530 681 529
1238 2 2 0 0 393 651 394
1239 2 2 0 0 387 655 602
1240 2 2 0 0 238 703 574
1241 2 2 0 0 594 677 505
1242 2 2 0 0 559 692 560
1243 2 2 0 0 621 667 381
1244 2 2 0 0 405 674 376
1245 2 2 0 0 325 732 368
1246 2 2 0 0 623 654 517
1247 2 2 0 0 581 644 336
1248 2 2 0 0 346 648 533
1249 2 2 0 0 517 654 279
1250 2 2 0 0 477 705 481
1251 2 2 0 0 481 705 355
1252 2 2 0 0 561 728 57
1253 2 2 0 0 379 705 477
1254 2 2 0 0 617 652 382
1255 2 2 0 0 30 650 500
1256 2 2 0 0 376 674 385
1257 2 2 0 0 518 715 519
1258 2 2 0 0 474 667 430
1259 2 2 0 0 478 734 294
1260 2 2 0 0 624 633 28
1261 2 2 0 0 186 707 619
1262 2 2 0 0 64 663 475
1263 2 2 0 0 597 647 258
1264 2 2 0 0 377 738 605
1265 2 2 0 0 31 735 467
1266 2 2 0 0 27 718 458
1267 2 2 0 0 419 673 68
1268 2 2 0 0 616 722 393
1269 2 2 0 0 24 723 419
1270 2 2 0 0 397 638 48
1271 2 2 0 0 404 730 460
1272 2 2 0 0 91 676 472
1273 2 2 0 0 622 626 361
1274 2 2 0 0 7 656 32
1275 2 2 0 0 576 697 277
1276 2 2 0 0 471 691 650
1277 2 2 0 0 536 663 373
1278 2 2 0 0 484 691 471
1279 2 2 0 0 552 650 30
1280 2 2 0 0 311 678 600
1281 2 2 0 0 486 729 5
1282 2 2 0 0 418 673 666
1283 2 2 0 0 232 680 231
1284 2 2 0 0 5 679 4
1285 2 2 0 0 117 665 539
1286 2 2 0 0 384 702 616
1287 2 2 0 0 557 702 221
1288 2 2 0 0 87 675 85
1289 2 2 0 0 225 711 604
1290 2 2 0 0 505 677 571
1291 2 2 0 0 483 661 494
1292 2 2 0 0 263 565 375
1293 2 2 0 0 504 677 594
1294 2 2 0 0 582 718 399
1295 2 2 0 0 645 714 46
1296 2 2 0 0 534 708 392
1297 2 2 0 0 643 680 402
1298 2 2 0 0 18 712 452
1299 2 2 0 0 392 670 390
1300 2 2 0 0 221 702 603
1301 2 2 0 0 496 664 391
1302 2 2 0 0 606 710 118
1303 2 2 0 0 655 703 602
1304 2 2 0 0 608 676 91
1305 2 2 0 0 194 684 514
1306 2 2 0 0 541 671 378
1307 2 2 0 0 154 669 652
1308 2 2 0 0 399 718 639
1309 2 2 0 0 405 715 674
1310 2 2 0 0 33 726 677
1311 2 2 0 0 629 671 284
1312 2 2 0 0 468 735 495
1313 2 2 0 0 469 704 408
1314 2 2 0 0 427 745 479
1315 2 2 0 0 294 734 251
1316 2 2 0 0 461 705 379
1317 2 2 0 0 385 674 636
1318 2 2 0 0 657 692 176
1319 2 2 0 0 561 714 411
1320 2 2 0 0 631 669 154
1321 2 2 0 0 264 682 265
1322 2 2 0 0 43 638 486
1323 2 2 0 0 48 638 43
1324 2 2 0 0 194 744 684
1325 2 2 0 0 381 686 380
1326 2 2 0 0 658 716 589
1327 2 2 0 0 263 567 565
1328 2 2 0 0 310 681 337
1329 2 2 0 0 493 685 492
1330 2 2 0 0 64 685 663
1331 2 2 0 0 309 678 267
1332 2 2 0 0 600 678 431
1333 2 2 0 0 538 694 333
1334 2 2 0 0 598 685 64
1335 2 2 0 0 551 695 633
1336 2 2 0 0 560 699 241
1337 2 2 0 0 211 690 210
1338 2 2 0 0 2 723 3
1339 2 2 0 0 630 708 441
1340 2 2 0 0 467 735 468
1341 2 2 0 0 396 687 395
1342 2 2 0 0 35 507 22
1343 2 2 0 0 259 567 263
1344 2 2 0 0 417 673 418
1345 2 2 0 0 614 686 197
1346 2 2 0 0 392 708 630
1347 2 2 0 0 5 729 6
1348 2 2 0 0 279 725 661
1349 2 2 0 0 6 729 26
1350 2 2 0 0 357 703 655
1351 2 2 0 0 514 684 635
1352 2 2 0 0 540 733 538
1353 2 2 0 0 374 741 593
1354 2 2 0 0 176 692 559
1355 2 2 0 0 650 691 500
1356 2 2 0 0 484 736 691
1357 2 2 0 0 83 733 540
1358 2 2 0 0 558 740 372
1359 2 2 0 0 626 697 555
1360 2 2 0 0 436 693 437
1361 2 2 0 0 375 737 374
1362 2 2 0 0 475 663 536
1363 2 2 0 0 636 674 198
1364 2 2 0 0 674 715 198
1365 2 2 0 0 70 695 551
1366 2 2 0 0 406 721 407
1367 2 2 0 0 677 726 571
1368 2 2 0 0 258 647 627
1369 2 2 0 0 448 701 451
1370 2 2 0 0 458 672 506
1371 2 2 0 0 229 700 570
1372 2 2 0 0 684 744 428
1373 2 2 0 0 570 700 544
1374 2 2 0 0 678 742 431
1375 2 2 0 0 646 741 314
1376 2 2 0 0 603 702 384
1377 2 2 0 0 478 731 293
1378 2 2 0 0 309 742 678
1379 2 2 0 0 380 686 614
1380 2 2 0 0 494 725 468
1381 2 2 0 0 500 691 38
1382 2 2 0 0 635 684 615
1383 2 2 0 0 661 725 494
1384 2 2 0 0 679 721 34
1385 2 2 0 0 509 510 35
1386 2 2 0 0 46 714 51
1387 2 2 0 0 615 684 428
1388 2 2 0 0 432 742 689
1389 2 2 0 0 179 713 181
1390 2 2 0 0 26 739 645
1391 2 2 0 0 35 510 507
1392 2 2 0 0 574 703 357
1393 2 2 0 0 184 707 186
1394 2 2 0 0 39 693 612
1395 2 2 0 0 665 694 539
1396 2 2 0 0 312 708 534
1397 2 2 0 0 554 689 309
1398 2 2 0 0 1 737 508
1399 2 2 0 0 519 717 520
1400 2 2 0 0 277 697 622
1401 2 2 0 0 389 711 641
1402 2 2 0 0 495 736 484
1403 2 2 0 0 17 712 18
1404 2 2 0 0 212 722 557
1405 2 2 0 0 455 720 438
1406 2 2 0 0 622 697 626
1407 2 2 0 0 664 694 665
1408 2 2 0 0 447 719 449
1409 2 2 0 0 669 688 652
1410 2 2 0 0 612 693 436
1411 2 2 0 0 619 744 194
1412 2 2 0 0 57 728 59
1413 2 2 0 0 579 658 583
1414 2 2 0 0 438 727 525
1415 2 2 0 0 539 733 83
1416 2 2 0 0 479 731 478
1417 2 2 0 0 691 736 38
1418 2 2 0 0 401 724 400
1419 2 2 0 0 420 660 2
1420 2 2 0 0 328 732 325
1421 2 2 0 0 320 738 453
1422 2 2 0 0 428 744 429
1423 2 2 0 0 431 742 432
1424 2 2 0 0 425 745 427
1425 2 2 0 0 408 743 434
1426 2 2 0 0 571 726 403
1427 2 2 0 0 119 727 523
1428 2 2 0 0 625 706 462
1429 2 2 0 0 525 730 404
1430 2 2 0 0 499 736 495
1431 2 2 0 0 468 725 654
1432 2 2 0 0 336 672 582
1433 2 2 0 0 198 715 518
1434 2 2 0 0 400 724 706
1435 2 2 0 0 402 680 581
1436 2 2 0 0 589 716 659
1437 2 2 0 0 727 730 525
1438 2 2 0 0 664 665 391
1439 2 2 0 0 337 740 558
1440 2 2 0 0 293 731 562
1441 2 2 0 0 523 720 282
1442 2 2 0 0 460 730 119
1443 2 2 0 0 641 711 225
1444 2 2 0 0 429 744 619
1445 2 2 0 0 119 730 727
1446 2 2 0 0 651 722 212
1447 2 2 0 0 38 736 499
1448 2 2 0 0 667 686 381
1449 2 2 0 0 652 688 383
1450 2 2 0 0 410 710 606
1451 2 2 0 0 644 701 448
1452 2 2 0 0 666 673 419
1453 2 2 0 0 704 743 408
1454 2 2 0 0 251 734 586
1455 2 2 0 0 400 706 625
1456 2 2 0 0 546 688 669
1457 2 2 0 0 668 700 229
1458 2 2 0 0 538 733 694
1459 2 2 0 0 333 694 664
1460 2 2 0 0 565 662 375
1461 2 2 0 0 720 727 438
1462 2 2 0 0 372 700 668
1463 2 2 0 0 579 716 658
1464 2 2 0 0 642 711 389
1465 2 2 0 0 355 705 461
1466 2 2 0 0 407 721 679
1467 2 2 0 0 523 727 720
1468 2 2 0 0 654 725 279
1469 2 2 0 0 639 718 27
1470 2 2 0 0 694 733 539
1471 2 2 0 0 393 722 651
1472 2 2 0 0 645 739 397
1473 2 2 0 0 683 741 374
1474 2 2 0 0 397 739 638
1475 2 2 0 0 653 716 579
1476 2 2 0 0 666 723 660
1477 2 2 0 0 419 723 666
1478 2 2 0 0 374 737 683
1479 2 2 0 0 593 741 646
1480 2 2 0 0 683 737 1
1481 2 2 0 0 689 742 309
1482 2 2 0 0 660 723 2
1483 2 2 0 0 23 25 1
1484 2 2 0 0 25 607 1
1485 2 2 0 0 3 34 2
1486 2 2 0 0 34 415 2
$EndElements
