$MeshFormat
2.2 0 8
$EndMeshFormat
$Nodes
745
1 4.5914641849137771e-05 2.0865619768569589e-05 1.0281598710153239e-03
2 5.7694198778121771e-05 -3.5259483690589103e-05 -1.0256939168173460e-03
3 1.4642566978559349e-04 2.1080852974072154e-05 -1.0158278901321639e-03
4 2.5931506833206638e-04 4.6589827642058666e-06 -9.9211044107839976e-04
5 3.9071742716654878e-04 1.2826690630742283e-05 -9.4379355653153468e-04
6 5.1059582158705498e-04 4.3145020104517328e-07 -8.7817109069325214e-04
7 6.1330603523735501e-04 1.2314334972717926e-06 -8.0364595136639047e-04
8 7.2859120661416404e-04 -3.3019326841016017e-06 -6.9174907906997297e-04
9 8.2047647249619202e-04 -2.9529555045695986e-06 -5.7023592295478030e-04
10 9.0105093393296008e-04 2.7649769339929431e-06 -4.1960621372483367e-04
11 9.5199840295008488e-04 8.8726649839917107e-06 -2.7304893929790055e-04
12 9.7961255736154118e-04 2.9176046167595798e-06 -1.3196295917435662e-04
13 9.8774553660221291e-04 9.0888954255388427e-06 2.2559608622050444e-06
14 9.7785190512175105e-04 5.4669963759556840e-06 1.4412308030390363e-04
15 9.4753742041815833e-04 -2.1409019741404040e-06 2.8943741023931162e-04
16 8.9585080208576620e-04 7.0779925668057623e-06 4.3199164330748373e-04
17 8.2308317756285641e-04 2.6950125477513723e-06 5.6661703934232134e-04
18 7.3465006765997582e-04 1.6444182747893700e-06 6.8533419132037231e-04
19 6.2687544919774892e-04 7.4461982719798453e-06 7.9291005537612455e-04
20 5.0897601467005159e-04 5.3803437278051877e-07 8.7997220853602810e-04
21 3.7546446778153188e-04 4.4780238472817036e-06 9.5069296586727272e-04
22 2.4530599777324583e-04 -9.3545330799707881e-06 9.9637266315307947e-04
23 1.4276675784442763e-04 -2.1401631040728214e-05 1.0173063715476693e-03
24 1.5329672545709111e-04 1.3089157849591144e-04 -1.0069364708178061e-03
25 1.6920342019245203e-04 1.0857334642975669e-04 1.0079150843791793e-03
26 5.5671548188070705e-04 1.0945829779393961e-04 -8.3898998872671893e-04
27 5.6745070558119487e-04 -1.0729474666099043e-04 8.3261405831361714e-04
28 9.6007110724872894e-04 1.3415267666537397e-04 -1.9703450550069722e-04
29 8.4714121566636762e-04 1.4823028644224358e-04 5.0587916055197773e-04
30 9.2077517755720611e-04 -1.2002556484276806e-04 3.4981772730211154e-04
31 9.6034569012352227e-04 -1.1793112092669804e-04 -2.0556978491803195e-04
32 5.5729325934430281e-04 -1.1162578864975027e-04 -8.3907325365908903e-04
33 5.6113069584455891e-04 1.0684554453841535e-04 8.3708125599730445e-04
34 1.7783920973301820e-04 -8.4281880232091455e-05 -1.0082217957848509e-03
35 1.9440969527066414e-04 -1.0743740799650882e-04 1.0021767919015348e-03
36 7.8160398215476579e-04 -1.2825477640832883e-04 6.1270059368259970e-04
37 7.7278124475644943e-04 1.2201822237400716e-04 -6.2495108764097130e-04
38 9.7829939431810461e-04 -1.1058799815852228e-04 8.0368477923778813e-05
39 9.5738684650156108e-04 1.2024140211223982e-04 2.1818642436717821e-04
40 8.5911815918454442e-04 -1.3038739476691505e-04 -4.8713907920575300e-04
41 2.9199916922323458e-04 1.2940958717442080e-04 -9.7214478289625323e-04
42 2.2872374401935325e-04 2.2681170938452345e-04 -9.7109732642834223e-04
43 3.3052050399737004e-04 2.3859634512771863e-04 -9.3474988975122248e-04
44 3.0787951564988840e-04 1.0780024478974317e-04 9.7058675865697790e-04
45 6.7100116501341716e-04 1.2216351484546390e-04 -7.4087961572304683e-04
46 7.0587721456077111e-04 2.5015104723218740e-04 -6.6735453459090463e-04
47 2.6625022706741787e-04 3.3275337865516915e-04 -9.2574173413982283e-04
48 3.9687153894071630e-04 3.3737457315697683e-04 -8.7097546149375767e-04
49 3.3346490128623830e-04 4.3584335300290191e-04 -8.5207581490144742e-04
50 7.9983934919069686e-04 2.4577014715741725e-04 -5.4362650746992759e-04
51 7.2423807763614533e-04 3.6389721751746413e-04 -5.8456951454353946e-04
52 8.0364675476502108e-04 3.6498063567482668e-04 -4.5869817807367051e-04
53 7.2592171456396012e-04 4.7405929820177559e-04 -4.8959979372978336e-04
54 7.9402824846633009e-04 4.7311120407240114e-04 -3.5962924561312406e-04
55 7.0499736790156399e-04 5.8325881945495920e-04 -3.8410985280089489e-04
56 7.6691976323486346e-04 5.7241901069274563e-04 -2.5153168881370658e-04
57 6.2789452438934633e-04 5.8684794893143878e-04 -5.0309688887796892e-04
58 5.9610036262282241e-04 6.8641370284894124e-04 -3.9842666155546195e-04
59 5.1011088899011864e-04 6.8191715086175959e-04 -5.1713814976107029e-04
60 4.7878500213880234e-04 7.6870895992957702e-04 -4.0674520860352033e-04
61 3.8436346063433003e-04 7.5305017898566809e-04 -5.2823192265434636e-04
62 3.5283494376447402e-04 8.3446348277220678e-04 -4.0583760179780325e-04
63 1.9827454901835199e-04 4.5783615003032420e-04 -8.8505223482815106e-04
64 4.3855765018362028e-04 8.3730392006382576e-04 -2.9347078111941648e-04
65 2.5469261503639095e-04 8.1325031595359896e-04 -5.1656406936735459e-04
66 2.2903877402967495e-04 8.8498877383122595e-04 -3.8565177134739799e-04
67 1.1962366332843437e-04 8.6080317534777747e-04 -4.8526820494252309e-04
68 1.0909537753278345e-04 2.4014609353372460e-04 -9.9006961929492578e-04
69 1.3956556864988569e-04 7.6738624236740479e-04 -6.2879763628410185e-04
70 8.4601622579614849e-04 4.6086592626836255e-04 -2.2341093220493470e-04
71 8.1535826825546284e-04 5.4667062437579810e-04 -1.1125617875396389e-04
72 7.2392309984742797e-04 6.5787142690991419e-04 -1.3863193155033211e-04
73 7.6160591630540487e-04 6.2853838724540414e-04 2.0967156723900907e-06
74 6.6421580751467861e-04 7.2989380813613268e-04 -2.6822922862691870e-05
75 6.8609392095281361e-04 7.0254270404985282e-04 1.0506391464677036e-04
76 5.9277387205075951e-04 7.8564304042796505e-04 7.9601305831742159e-05
77 6.0471497169035091e-04 7.5306027371452604e-04 2.1163467234055979e-04
78 5.0097454740473271e-04 8.3334462311055759e-04 1.7683616904929541e-04
79 9.7249128741473662e-05 9.2486952351195550e-04 -3.4255320875355285e-04
80 -1.8211086554604672e-05 8.9468048682058668e-04 -4.3127277029372850e-04
81 2.4532823001296967e-04 2.2102057655196941e-04 9.6897677066853645e-04
82 5.1905350405826757e-04 7.8395496923917406e-04 3.1259288074720774e-04
83 -4.0738487652800595e-05 9.4293605643318594e-04 -2.9793677809800205e-04
84 4.0220242486764486e-04 8.6284989017480654e-04 2.7075298999369490e-04
85 4.1992172270070328e-04 8.0359822606243232e-04 4.0456509959552390e-04
86 2.9818926116038658e-04 8.6971429485103069e-04 3.7220658740390729e-04
87 3.1256272589220388e-04 8.0184109482534785e-04 5.0080452645099780e-04
88 1.8732928358864472e-04 8.5371441907265190e-04 4.7522260120568427e-04
89 1.6051988475628798e-04 9.1651918465764906e-04 3.4107827406129626e-04
90 5.2673853409131898e-05 8.9119240530873770e-04 4.3589981779723651e-04
91 6.9457355027575070e-05 8.1743085417340341e-04 5.6883370153564851e-04
92 -5.7683020271839156e-05 8.4798277131561029e-04 5.1936825139516096e-04
93 -7.7678659301126887e-05 9.0838337807572038e-04 3.9119372167724788e-04
94 -1.8932822424903438e-04 8.5318235872819967e-04 4.7456072781525154e-04
95 -1.4989577001716812e-04 8.0026928871933592e-04 5.7644196598612032e-04
96 -2.1316427707024493e-04 9.0599096664456991e-04 3.3948100404278183e-04
97 1.1251405479420228e-04 2.3453889095426849e-04 9.9206321961652836e-04
98 5.2459695450347290e-04 7.0784444138756279e-04 4.6428703293224528e-04
99 1.8479232512241334e-04 3.2661039220928774e-04 9.5048272831251392e-04
100 5.4904627367177964e-05 3.1862811331160641e-04 9.7121677316142129e-04
101 -2.5317776337034892e-05 2.2118387127289727e-04 1.0018683324344710e-03
102 -7.7672398757316471e-05 3.1570949871010626e-04 9.7048890631588902e-04
103 2.0653317177373329e-04 9.3489687460192447e-04 -2.4793994211915160e-04
104 -1.0699365476218159e-04 9.4871761459786963e-04 2.5843769090251454e-04
105 -2.4373902980888226e-04 9.3718215770523553e-04 1.9629219002899410e-04
106 -3.4806062749840618e-04 8.8203292515930186e-04 2.8274331866763640e-04
107 -1.5416334726730716e-04 9.0397177081673167e-04 -3.7746892568635260e-04
108 -1.2959190679714603e-04 8.4586930643378792e-04 -5.0945662921743633e-04
109 -3.7093018876287252e-04 9.0290730251401492e-04 1.4884962183302254e-04
110 -2.6428846098376023e-04 8.4502177552079520e-04 -4.5160674431296550e-04
111 -2.3923052713431075e-04 7.7025002064491654e-04 -5.8967344556395897e-04
112 -3.6651303879110331e-04 7.6647377740016176e-04 -5.2052455622818544e-04
113 -3.2973968728775780e-04 6.7784918610316706e-04 -6.6094194793967886e-04
114 -4.6322241472991079e-04 6.7141662409646633e-04 -5.7591757881634491e-04
115 -4.1851916148534155e-04 5.8001512887407777e-04 -7.0577316586481551e-04
116 -4.9453068774183437e-04 7.3952983112901658e-04 -4.4249018375298876e-04
117 -2.7957750352253712e-04 8.9485822519828298e-04 -3.1858629364647784e-04
118 -2.8460801554910405e-04 7.7584970572621152e-04 5.6006682352942143e-04
119 7.0248085841237613e-04 6.6152710056311933e-04 2.1492098720089228e-04
120 -2.8151403274692715e-04 5.7447375313358082e-04 -7.8050644032659218e-04
121 -3.6237603546552529e-04 4.7066423108995878e-04 -8.1892700097259516e-04
122 -4.9870090286225092e-04 4.7485986965677026e-04 -7.3371048845529709e-04
123 -4.4397988028028362e-04 3.6758594775666457e-04 -8.3239098303484159e-04
124 -5.8721914440493890e-04 6.3610077371718994e-04 -4.9090068378987981e-04
125 -6.1228547944735504e-04 6.9061307589695720e-04 -3.6170434875419660e-04
126 -6.9336119824171371e-04 5.8471490702508250e-04 -4.0275977984598573e-04
127 -4.7465821325662398e-04 8.3649650595141786e-04 2.2837837602323954e-04
128 -5.6619446028653448e-04 3.5588265869562920e-04 -7.5329434961985764e-04
129 -5.1101508654635599e-04 2.5534876771120393e-04 -8.3622402544981131e-04
130 -6.3080427901761923e-04 2.2051162320662978e-04 -7.5389679241020385e-04
131 -5.6751215609402513e-04 1.2489038231843760e-04 -8.2892935310638750e-04
132 -6.8399334654748194e-04 9.2284956660312870e-05 -7.3236733757568262e-04
133 -6.0634604206681836e-04 -1.2006794966133649e-05 -8.0908778770097812e-04
134 -7.2180736316957144e-04 -3.5986031896603459e-05 -6.9779746189873931e-04
135 -6.3255807395549491e-04 -1.4575523193306234e-04 -7.7243836634977101e-04
136 -7.8947350434607939e-04 7.5673330674621927e-05 -6.0957319780505768e-04
137 -8.1741453513169864e-04 -5.3727723157971455e-05 -5.7113102815389231e-04
138 -8.7120113378015400e-04 4.8407244749525198e-05 -4.7829730570943452e-04
139 -8.8922778250423798e-04 -8.1452695392052174e-05 -4.3584243245180704e-04
140 -9.2802144699075421e-04 1.2189345869853567e-05 -3.4757076955344523e-04
141 -9.3568066072185129e-04 -1.1662765630163632e-04 -3.0198173621141458e-04
142 -9.6509974717034466e-04 -1.5023322364756715e-05 -2.1291862089616034e-04
143 -9.6329874608232756e-04 -1.4409953356268098e-04 -1.6512590678530639e-04
144 -9.8331406612498689e-04 -3.8156391192198472e-05 -7.7802196457923034e-05
145 -9.7214215632544852e-04 -1.6792890648814125e-04 -3.2283731150951160e-05
146 -9.8399224797857295e-04 -5.7638846991731972e-05 5.1744240278251300e-05
147 -9.6452198229064897e-04 -1.8423384698282633e-04 1.0417474015676339e-04
148 -9.4299707424102543e-04 -2.9170954605816393e-04 1.3918189481024493e-05
149 -9.2731538840349205e-04 -3.0487122787678305e-04 1.5294726039369455e-04
150 -9.3962544407208643e-04 -1.8927612758985903e-04 2.4458515410778726e-04
151 -8.9300443655795339e-04 -3.1274033394765186e-04 2.9198536752981775e-04
152 -8.9411145651609235e-04 -1.9549862930966856e-04 3.8343801397376024e-04
153 -8.3580088157291291e-04 -3.2511074026427255e-04 4.2781131069615354e-04
154 -8.8811327215921492e-04 -2.1407525577892683e-04 -3.8702590801753826e-04
155 -8.2698645361854966e-04 -2.0968895000157120e-04 5.1491139227775157e-04
156 -7.5816676976761294e-04 -3.3537041448683221e-04 5.5582039271671305e-04
157 -8.7752601208044396e-04 -7.8193080499575025e-05 4.6172278462713857e-04
158 -7.3898866732332767e-04 -2.1776251732608771e-04 6.4029761455304340e-04
159 -6.6479915265819217e-04 -3.3450868761388609e-04 6.7318554240600376e-04
160 -9.8387575624617066e-04 7.6515323643482926e-05 5.3224042362793758e-06
161 -6.3171044234616909e-04 -2.1295397606958954e-04 7.5599119773219034e-04
162 -5.4982987901892118e-04 -3.2457119256457562e-04 7.8237059522133826e-04
163 -5.1527289265844607e-04 -1.1679474212328181e-04 -8.6693888497692024e-04
164 -5.3123792682237389e-04 -2.4995105311235305e-04 -8.2486870871596642e-04
165 -7.0782996191603694e-04 6.3606633720754706e-04 -2.7034101978241974e-04
166 -1.4933472209446340e-04 2.0803275870756290e-04 9.9305567887180628e-04
167 -2.1394342201816214e-04 3.1970505952625783e-04 9.4614536009663970e-04
168 -4.1514482153473216e-04 -2.1053137296317363e-04 -9.0565501005144807e-04
169 -4.3793094008078823e-04 -3.4315711759237580e-04 -8.4781539170794757e-04
170 -5.5226606817232351e-04 -3.8284791350457956e-04 -7.5104248629754493e-04
171 -4.5039820457364797e-04 -4.7953188117812206e-04 -7.6459538495230643e-04
172 -5.5594886497902808e-04 -5.0821558855265151e-04 -6.6241631040039330e-04
173 -4.4110151453488795e-04 -6.0602863789868840e-04 -6.6717440439091093e-04
174 -5.4670023500662159e-04 -6.2111946419469988e-04 -5.5879316451801740e-04
175 -4.2724642929382975e-04 -7.1145996015644112e-04 -5.5502877826969755e-04
176 -7.6114033099342710e-04 -4.4352644552723378e-04 4.6171232451517024e-04
177 -5.2160979424259284e-04 -7.2092695789418616e-04 -4.4359383705635228e-04
178 -4.0500875209337564e-04 -7.9870119474612653e-04 -4.3153292584851465e-04
179 -3.1090598093571194e-04 -7.8160825247368480e-04 -5.3627615642954859e-04
180 -2.7743181529473089e-04 -8.5939757209785219e-04 -4.1465575861762710e-04
181 -1.7735064232169247e-04 -8.3204612721746749e-04 -5.2006941572362475e-04
182 -1.4004385047398221e-04 -9.0020835248184427e-04 -3.9587672018171112e-04
183 -3.8717760183595985e-05 -8.5930011732767038e-04 -5.0390615472151634e-04
184 2.9673550079601590e-06 -9.2002775348808791e-04 -3.7294330348413310e-04
185 -9.7904090109899200e-05 -9.4834592993091316e-04 -2.6834932292674440e-04
186 4.1560052863718315e-05 -9.5912448722749858e-04 -2.4130375713667343e-04
187 -5.0399907392687894e-05 -9.7734057841982066e-04 -1.4017064620310980e-04
188 8.8777597591456226e-05 -9.7749884196216431e-04 -1.1740723749100701e-04
189 -4.4758166040798431e-06 -9.8781790537076663e-04 -1.5610727858256100e-05
190 1.2695186077135045e-04 -9.7974705380873221e-04 1.1804724100620780e-05
191 3.4909287424585760e-05 -9.8173471790588898e-04 1.0919150931545497e-04
192 1.6665828935121834e-04 -9.6512622204394135e-04 1.3557152563178709e-04
193 6.5891134458247321e-05 -9.5886138533555988e-04 2.3778942475847817e-04
194 2.1424401796787151e-04 -9.6104039685656305e-04 -8.2733728066104308e-05
195 1.9970668188150535e-04 -9.3326531665815550e-04 2.6559671610831847e-04
196 1.0084828859661463e-04 -9.1739414080850849e-04 3.6617598753680618e-04
197 1.0685854876616101e-04 -8.7032665949110500e-04 -4.7320705062056347e-04
198 -9.6298153530069007e-05 -9.7957770766149573e-04 8.4896550957227698e-05
199 2.3090272953580243e-04 -8.8178155736138956e-04 3.9570848644785589e-04
200 3.2765508868530800e-04 -8.8896143781090858e-04 2.9128695611785885e-04
201 3.5940480775455071e-04 -8.2975567455155714e-04 4.1313564720406922e-04
202 1.3196888001715127e-04 -8.5541578247934455e-04 4.9446755022921523e-04
203 4.5241635334565897e-04 -8.2679636593479481e-04 3.0801538140843611e-04
204 5.6177227424928420e-07 -8.7913795174877950e-04 4.6794446986978873e-04
205 2.9403506063922450e-05 -8.0492422550432934e-04 5.9384525772705895e-04
206 -8.9493669170179874e-04 -4.1320806884308220e-04 5.8783220178190136e-05
207 -8.1018852745214423e-05 -7.6764573491753130e-04 -6.3999194845378601e-04
208 -1.0465156616512003e-04 -8.2219665017904046e-04 5.5805255782213382e-04
209 -6.9596301496018312e-05 -7.3403613149270852e-04 6.8261292202175135e-04
210 4.7698916861028501e-04 -7.5852541696651461e-04 4.3177323861590236e-04
211 5.6187375203793708e-04 -7.5035265477631696e-04 3.2377952533856226e-04
212 -4.9197129928673408e-04 -7.9620234644910885e-04 -3.2609289375318999e-04
213 6.2840763050503210e-05 -7.0580313053229349e-04 7.1478552950637127e-04
214 -3.2851174121683449e-05 -6.2426636961715248e-04 7.9469975546676906e-04
215 -3.2053274475356362e-04 -2.8760194536398090e-04 -9.2443107552351591e-04
216 -2.0728072319921786e-04 -7.4850702520672921e-04 6.3359685701226990e-04
217 -2.4268627159929233e-04 -8.2505095659763652e-04 5.0434377250650785e-04
218 5.3874865923784143e-04 -8.0508062893059902e-04 2.0291696992535139e-04
219 6.4703414821556417e-04 -7.1625305268087141e-04 2.2071481120580389e-04
220 6.1431876851023102e-04 -7.6932726337890949e-04 9.0294816251738902e-05
221 -6.3241364926559188e-04 -6.2670448649090708e-04 -4.4217318015174375e-04
222 7.1884022575495346e-04 -6.7053800555977804e-04 1.0705335695935928e-04
223 6.7585331872569907e-04 -7.2064798185406619e-04 -2.3849146084469830e-05
224 -2.9611633541532434e-04 -1.7549072235337391e-04 -9.6328489346710696e-04
225 -9.4875342747077404e-04 1.1391915308446754e-04 -2.5430442367219743e-04
226 9.6654456169012909e-05 -5.9265351906387224e-04 8.1511503330121274e-04
227 -6.2979030071043687e-06 -4.9935607532035104e-04 8.8638270842811306e-04
228 -5.0964112404365124e-04 -1.9436745673183714e-04 8.5540500337981103e-04
229 -6.0040623399900523e-04 -9.1245099186755202e-05 8.0807943352383604e-04
230 6.5393332892774603e-04 -6.6094434798123021e-04 3.4674554922140482e-04
231 3.8171010297341241e-04 -7.5094184935095912e-04 5.3535700157775798e-04
232 4.9882201296621155e-04 -6.5963240039127575e-04 5.6217838667005306e-04
233 7.7031527746861811e-04 -6.1877790822774739e-04 -8.7698936771788700e-06
234 7.2596111255390165e-04 -6.5676838146737284e-04 -1.3879045104138495e-04
235 -3.8007544226017928e-04 2.5283349466828680e-04 -9.1020987816638199e-04
236 3.0527072347051040e-04 3.2409683555123780e-04 9.1681158763539218e-04
237 -4.1987183083728763e-04 -2.8471744994581599e-04 8.8111083863488685e-04
238 -8.3400870916917360e-04 1.9717164998350411e-04 -5.0886676135461018e-04
239 6.2570585497862376e-04 -7.5041321766467048e-04 -1.5305856408289996e-04
240 6.7616230447063719e-04 -6.7353831764878770e-04 -2.6519670682394073e-04
241 -5.7285979882295320e-04 -4.5189558420681650e-04 6.9054507456904558e-04
242 5.6757961878392516e-04 -7.6236532220406105e-04 -2.7987978461850875e-04
243 6.0589804295435199e-04 -6.8110213819248344e-04 -3.9505752326415670e-04
244 7.1181952873402719e-04 -5.8048115026844242e-04 -3.7742149337238051e-04
245 6.2636686267228089e-04 -5.8277102512017032e-04 -5.1245985220713108e-04
246 -1.9656058607865989e-04 -2.5011434946923080e-04 -9.7330333521148857e-04
247 8.0914491324183472e-04 -5.5704505020624470e-04 1.1161294828813903e-04
248 2.2932404425527779e-04 4.4093031990570731e-04 8.8691206683811404e-04
249 -3.8800701720604903e-04 -1.5761405051032933e-04 9.3042260776962833e-04
250 3.5902477783195569e-04 4.4226852981016932e-04 8.3788022219225672e-04
251 -2.0913645865939926e-04 -3.8373114712253416e-04 -9.2113835535826728e-04
252 -8.3691593014198330e-05 -3.4020331249988195e-04 -9.6124460947633506e-04
253 3.7844805143927833e-04 9.0079672529732886e-04 1.4553896472157085e-04
254 -6.1805717923268087e-04 7.3799002843268513e-04 -2.2437544447378546e-04
255 -7.0662635224393890e-04 6.7561201092040024e-04 -1.3778900788349123e-04
256 -7.8887849160108007e-04 5.6691710309434123e-04 -1.7954405328907659e-04
257 -7.8297177047996264e-04 5.9833656362987193e-04 -5.1183571272433609e-05
258 -2.1476686946175791e-05 4.2653087190789511e-04 9.2594678191470830e-04
259 -2.9767936802874796e-04 -2.4066750711397697e-04 9.4739360656943480e-04
260 -2.8267914021654284e-04 2.1490212843888016e-04 9.5870586765289627e-04
261 -3.5730323050269972e-04 3.0900617381734069e-04 9.0139740824539351e-04
262 -2.6594350747604148e-04 -1.1615944754866459e-04 9.8291066431202057e-04
263 -1.7278965469877297e-04 -2.1347616404220824e-04 9.8797474326036078e-04
264 -8.5480675735704291e-04 4.8647977315840460e-04 -8.2810556067608587e-05
265 -8.3921758714891690e-04 5.1712507520224591e-04 4.6423824290920811e-05
266 -3.4012600861426956e-04 -7.4506452210960461e-04 5.7280033112154440e-04
267 -3.6731822421592469e-04 -8.1202747865030081e-04 4.4141478727536735e-04
268 5.1424493614431166e-04 -6.7618666568007254e-04 -5.2308695648016718e-04
269 5.2372478304248235e-04 -5.7298292808004520e-04 -6.3411534064996753e-04
270 6.1995421527545527e-04 -4.7879345440850917e-04 -6.2470390378263586e-04
271 5.1099377620581030e-04 -4.5925942975682182e-04 -7.3706144045141580e-04
272 4.1218789724915578e-04 -5.4914022355555692e-04 -7.3748971062178529e-04
273 -2.7958377704622443e-04 4.1987992740059117e-04 8.8200256718264439e-04
274 -4.2137434458950945e-04 4.1009668100073002e-04 8.2365781835086623e-04
275 3.9222907103016950e-04 -4.2537081608387583e-04 -8.3204237425552930e-04
276 2.8490222019840353e-04 -5.1232612463309596e-04 -8.2624972544298285e-04
277 -3.2924681892759284e-04 -3.6003393412561616e-04 8.9280576205447995e-04
278 -1.3675541934132901e-04 9.7046924660535024e-04 1.1844954901879622e-04
279 8.0998913206658044e-04 -5.5363349468039364e-04 -1.1857918970023975e-04
280 -2.3342257485626570e-04 4.6256150026968907e-04 -8.7326281353046389e-04
281 -1.5212593345953105e-04 5.7248894217377401e-04 -8.2018467828835241e-04
282 8.5142377975687064e-04 5.0089933630473652e-04 2.9989757286100619e-05
283 1.1519216688709300e-04 -4.7573674397509197e-04 8.9243574269853637e-04
284 -9.7647341942355009e-04 5.6545621739840379e-05 1.3468344103068099e-04
285 -9.0083734731121964e-04 -3.9799236475189981e-04 -7.1538405806025914e-05
286 -8.3948958333071881e-04 -5.1921190400876672e-04 -2.7229510283528282e-05
287 -8.2400067360517584e-04 -5.3457540136325678e-04 1.0560276344574988e-04
288 -7.6351799078947186e-04 -6.2599883247061654e-04 1.9619698842423058e-05
289 -7.3761380007303964e-04 -6.3904115983255054e-04 1.5620536155829532e-04
290 -6.7000094991238196e-04 -7.2175259882869094e-04 7.5879399551171469e-05
291 -1.9254391990483648e-04 -9.5672322551934900e-04 -1.5953643806449931e-04
292 -2.7074168379898132e-04 -8.8103215797430997e-04 3.6881595256601173e-04
293 -3.2809878536995980e-04 -5.5448909495816679e-04 -7.7749179833742281e-04
294 -1.0931102106673078e-04 -4.7231199557266342e-04 -8.9544686990676895e-04
295 -4.8884365381233639e-04 2.8524498482620950e-04 8.4041175021281613e-04
296 -5.5275942776606259e-04 3.9233492825721875e-04 7.4481917262712112e-04
297 -8.5520245756778119e-04 4.4995773999354026e-04 -2.0782326555291637e-04
298 -6.1018971526614007e-04 2.7100685153918185e-04 7.5474660340492372e-04
299 -6.6991789532414611e-04 3.6893154398666888e-04 6.4714033372168314e-04
300 -6.0198472248347112e-04 4.9477419228245506e-04 6.2833313887764063e-04
301 -7.0539495498804429e-04 4.6435940042283315e-04 5.2955842544198640e-04
302 -7.6886276934974302e-04 3.3621515283339877e-04 5.3841804781109518e-04
303 -3.0092955280326981e-04 -6.6306951231625622e-04 6.9273259761253503e-04
304 -6.2665171425434804e-04 5.8857992589717815e-04 5.0282930913970255e-04
305 -8.0197172845047589e-04 4.1465892119790191e-04 4.1329284296405603e-04
306 2.3298508255680192e-04 -5.4845396611468886e-04 8.1880230937468634e-04
307 2.4572055507289894e-04 -4.2184606674665646e-04 8.9316193152448695e-04
308 3.5641000784144276e-04 -4.9142180384129260e-04 8.0990965858852111e-04
309 -4.5439158494860578e-04 -7.2900182264759800e-04 5.0449571208539931e-04
310 -8.5021181492334996e-04 2.8643070878907524e-04 4.2607140493389732e-04
311 -3.9540247041696980e-04 -8.5572736218512090e-04 3.0613143956375650e-04
312 -7.5568765412667590e-04 6.2932983692432116e-04 8.1298877143113507e-05
313 -8.3809911155235852e-04 -4.9940457178017112e-04 -1.5694234103951952e-04
314 -6.9168389000635034e-05 9.8749754887732957e-05 1.0215519064300017e-03
315 -8.7671312775031173e-04 3.5209866546233396e-04 2.9666631923284720e-04
316 -9.6504975784870658e-04 1.8887128890385569e-04 8.4826773787552659e-05
317 -1.0771499750036241e-04 7.5975867003487624e-04 -6.4336913603185329e-04
318 2.6198849251710718e-04 -3.8738738838844526e-04 -9.0484313719078077e-04
319 -6.8678988912562408e-04 -7.0734446948554055e-04 -5.8569135605085288e-05
320 -5.8954135343566806e-04 -7.9190695456243603e-04 -7.9832609077179846e-07
321 -6.5796476702633647e-04 -4.0429545058650744e-04 -6.3810871017203378e-04
322 -8.9812909827978202e-05 -1.9382235520974054e-04 -1.0042649675719819e-03
323 5.0138702414953768e-04 -8.4861650011726786e-04 7.3810341939258090e-05
324 -6.1079789204687652e-04 7.6961408154067510e-04 -9.1708423938138592e-05
325 2.8581329964487732e-04 5.4811870044972795e-04 7.9924739423233948e-04
326 2.9326447670187101e-04 -6.3547701071518944e-04 -7.2369948798442626e-04
327 1.6076332985512186e-04 -6.0054000234069978e-04 -7.9757239728377605e-04
328 4.1322185797742925e-04 5.4537392062840861e-04 7.3860493311373799e-04
329 4.8420458017029393e-04 4.3164099692658963e-04 7.7276702704475960e-04
330 4.5616639247987665e-04 4.4036310777066732e-04 -7.8475581513352420e-04
331 -2.2277551816002758e-06 9.7346820399927929e-04 1.6759301899951136e-04
332 -2.4374281089786136e-05 9.8569235820347451e-04 3.7568014401536872e-05
333 -1.5413639086539485e-04 9.7444489657825162e-04 -5.0889496701467481e-06
334 1.1223641555160421e-04 9.7783581802289229e-04 7.3494563548459225e-05
335 3.6398519747374026e-04 -3.6398930408818644e-04 8.7662999318594340e-04
336 4.6370288846845460e-04 -4.3237113150721102e-04 7.8673132930702158e-04
337 -8.0990545696476971e-04 2.0464529898315691e-04 5.4438830523157898e-04
338 -3.5393437808151063e-04 5.1456970520984146e-04 7.9346944094804001e-04
339 -1.0080466164826701e-04 4.6157262151314931e-04 -9.0095435673791149e-04
340 3.6893793293049458e-04 -3.1298743638376916e-04 -8.9530380110277707e-04
341 4.0008094428574667e-05 -2.6922001170674649e-04 -9.8865096458819251e-04
342 -9.1816833189345935e-04 3.5236681037014057e-04 -9.4475835398013481e-05
343 2.0983958550661604e-05 -3.7491312392092083e-04 9.5101332490749480e-04
344 -5.2194505251825386e-04 6.1140735393012675e-04 5.9389838187766549e-04
345 -5.2957519662302408e-04 7.1133522941604270e-04 4.5106236934316555e-04
346 -6.5076723612450256e-04 6.5119605837541772e-04 3.6863641138518084e-04
347 6.0368205662425988e-04 -3.6392107036962187e-04 -7.1860083259071025e-04
348 7.1224935938854126e-04 -3.7512179014811313e-04 -5.9414525204144178e-04
349 5.3069378783074730e-04 5.2049341318448849e-04 6.7406066351374198e-04
350 6.0492752079975814e-04 3.9786191937936328e-04 6.9659762822069787e-04
351 6.4658804688339682e-04 4.9006262199482098e-04 5.8361019739508187e-04
352 7.1560765443954774e-04 3.5558626621682427e-04 6.0181668764269108e-04
353 7.4360688097117791e-04 4.4928300078661727e-04 4.8680971513520869e-04
354 -6.4026135804546040e-04 -7.2546792979417854e-04 2.0439643334248182e-04
355 2.5558994135094486e-04 5.5304621267597597e-04 -8.0596015830697873e-04
356 1.2870786918217145e-04 5.6688390802162860e-04 -8.2849817670290111e-04
357 -6.7892357319004047e-04 3.2429380692420868e-04 -6.6187966324121942e-04
358 5.1845606705053682e-04 -8.2573327732809369e-04 -1.6577379070383390e-04
359 4.5019033637101567e-04 -8.3603896495040885e-04 -2.8272048256161282e-04
360 -8.1610598670367723e-04 4.7827750215209778e-04 2.9163853840585011e-04
361 -1.3215489678277613e-04 -5.3719377600754137e-04 8.5048562984619549e-04
362 -1.7381367090263584e-04 3.4663908517994295e-04 -9.4444862444924109e-04
363 -2.1524242960398819e-04 5.2477579488883726e-04 8.3900303111749763e-04
364 -5.1094663560958718e-04 8.2784223842932074e-04 -1.7018758018430165e-04
365 1.5596568787880246e-04 5.4977376428593373e-04 8.3624646633572092e-04
366 -3.5130169358660638e-04 -2.6118434026391612e-05 9.6016312333366282e-04
367 -7.0308791431843295e-04 -6.3408991453802323e-04 2.9073122887156966e-04
368 2.0824188722784646e-04 6.5763430935445333e-04 7.3391941946039391e-04
369 8.8222046710869503e-05 6.3489643858777919e-04 7.7824471037313302e-04
370 6.9394699073116841e-04 -2.5336910150475066e-04 -6.8060610773589231e-04
371 -5.4236126898833355e-04 1.6888812736501406e-04 8.3892650226768050e-04
372 -6.6757295820743794e-04 1.3409754660110784e-04 7.4247701028271767e-04
373 5.5579240668975408e-04 8.1416140314296301e-04 -5.1927532401093216e-05
374 -1.2710623324624744e-04 -8.7496715699357042e-05 1.0165028816201088e-03
375 -5.7993812617428648e-05 -1.7479148454792721e-04 1.0108408526112765e-03
376 -2.9895959731192714e-04 -9.1425592729255730e-04 2.3370553819681075e-04
377 -4.2961896699429805e-04 -8.7643671034340624e-04 1.6120691419006461e-04
378 -9.1563267532319590e-04 2.0060078074168042e-04 3.2250657130876751e-04
379 4.1705090322511203e-04 6.4531536540518868e-04 -6.4347207552918997e-04
380 1.6520941274397220e-04 -7.1248516079220551e-04 -6.8887044553883039e-04
381 2.8521187324385380e-04 -7.3884091525767623e-04 -6.1206231641286880e-04
382 -8.9214020204872761e-04 -3.7541093938240586e-04 -2.0067081696240521e-04
383 -8.2341326475850554e-04 -4.6688946480023249e-04 -2.9002340131603974e-04
384 -7.6538245819618173e-04 -5.7508374265366675e-04 -2.5021889470271927e-04
385 -1.7206480712949495e-04 -9.2984847635969013e-04 2.9668655018449139e-04
386 -6.6077110052464123e-04 5.2654432526989630e-04 -5.2828407772441562e-04
387 -7.5932200108263191e-04 4.6853685020052752e-04 -4.3660157186901363e-04
388 8.7017322444388233e-04 2.4964337063051773e-04 -4.0887617429936191e-04
389 -9.0049400197285260e-04 3.2728991358862687e-04 -2.4415128946312395e-04
390 -5.0207294816711611e-04 8.4839801631154000e-04 -3.7519125913634646e-05
391 -3.9668470301176004e-04 8.9741387679352538e-04 -1.0669214789090547e-04
392 -5.9529953249426568e-04 7.8575106251113928e-04 3.3647043052885447e-05
393 -5.8678175373693428e-04 -7.8487717331851559e-04 -1.2609970770072321e-04
394 -4.9599682304749470e-04 -8.5187105846112388e-04 -5.6586994211733438e-05
395 7.9303156868275568e-05 9.8202831610838862e-04 -5.4193850711103729e-05
396 2.1051899984161199e-04 9.6390035338801033e-04 -1.8241628496611722e-05
397 5.2270302543272560e-04 3.3080301368334760e-04 -7.9875800793082722e-04
398 2.5516982850456104e-04 -3.0278431431187292e-04 9.4161786614722540e-04
399 3.7292352966540354e-04 -2.3610989024646671e-04 9.1985390294618244e-04
400 -2.6835536901154247e-04 6.2279398885851380e-04 7.4372960490115601e-04
401 -1.5848768569373662e-04 6.1495563958612076e-04 7.8328716491025225e-04
402 3.1817946807597731e-04 -6.1423387452438254e-04 7.3218859392418050e-04
403 6.4844693441603338e-04 2.7407819573230089e-04 7.1863149590472306e-04
404 6.6266846038445077e-04 5.9127565565512822e-04 4.4932214468635132e-04
405 -3.1035363713491560e-04 -9.3250259231677298e-04 1.0236692119291694e-04
406 2.6309963444826317e-04 -2.8032014248655183e-04 -9.4640537875746017e-04
407 3.6236864221332826e-04 -1.9297799298170028e-04 -9.3413707833402083e-04
408 8.5027167505524680e-05 4.6159824269062483e-04 -9.0260390978014985e-04
409 -8.7915154798852554e-04 4.2558428724506005e-04 1.5262918650219725e-04
410 -4.4687681165791153e-04 8.0871106795686761e-04 3.5902308669334481e-04
411 5.5080000609389844e-04 4.3679518796823513e-04 -7.1740398230229802e-04
412 4.5514049634104165e-04 6.3837907569761843e-04 6.2340558517778833e-04
413 8.0372881870176120e-04 3.1320222740365922e-04 4.9897914320885242e-04
414 8.2983500606324237e-04 3.8825095773897822e-04 3.8176006360734750e-04
415 3.5541965963153558e-05 -1.5798014290070744e-04 -1.0147718555067822e-03
416 -9.6298149315209101e-04 2.1319607290586453e-04 -3.8734376130936678e-05
417 -7.1182472481986475e-05 3.4575098581092560e-04 -9.5896192186347882e-04
418 -1.3504639075452780e-04 2.4353920453868991e-04 -9.8591865858964020e-04
419 3.1118101790554090e-05 1.6434123277459060e-04 -1.0125833797917743e-03
420 -4.6532946386641669e-05 -7.3982127143814205e-05 -1.0247987864076234e-03
421 -9.3158379048268521e-04 3.2188934962444681e-04 5.3852264144527484e-05
422 7.9618311521687662e-04 -2.5709411602874225e-04 -5.4476316963958306e-04
423 8.0402122387556211e-04 -3.7307076729496848e-04 -4.5242644223334209e-04
424 2.4611420989347404e-04 9.4997820131343183e-04 1.0895046503729074e-04
425 2.5395912632233305e-05 -6.8133315389896237e-04 -7.4295215836692326e-04
426 3.5781444272590594e-05 -5.4890275178937715e-04 -8.5294154121104404e-04
427 -7.7472667604718625e-05 -5.9824802599750960e-04 -8.1161320020018074e-04
428 4.0224322966942399e-04 -8.8780317075720552e-04 -1.6596588042629013e-04
429 3.1750170479824720e-04 -8.9808041411337141e-04 -2.7111859518507260e-04
430 3.5902646203451918e-04 -8.3838343575238302e-04 -3.9357137334439371e-04
431 -6.0091840205878588e-04 -7.1595675227246254e-04 3.2945033908537416e-04
432 -6.4486958568442962e-04 -6.2091729391109936e-04 4.3299059309129999e-04
433 1.4178448520464070e-04 -3.3572557238490969e-04 -9.5534356503427901e-04
434 -1.8654517008313068e-06 5.5846346049945946e-04 -8.4638111882474019e-04
435 7.0365212851975569e-05 6.6647049014837746e-04 -7.5218495077614665e-04
436 8.7622698806842821e-04 2.6490231920538366e-04 3.8414900788429892e-04
437 8.9416617988621406e-04 3.3944637977173151e-04 2.5404591972406616e-04
438 8.3924758141697392e-04 4.5266879358472298e-04 2.6424921740676250e-04
439 7.5259732595893089e-04 2.1972295733068805e-04 6.2327568286065025e-04
440 -5.6849970880092592e-04 7.5162103544555833e-04 3.0416959954773337e-04
441 -6.8745183417864386e-04 6.7861151920233572e-04 2.1250482762296858e-04
442 6.7945205687093113e-04 -1.1723186958790601e-04 7.3459956396234683e-04
443 7.2646929040532076e-04 -2.3959728574884635e-04 6.4883978186805859e-04
444 8.0790492932273283e-04 -2.4214372648116123e-04 5.3375509443812238e-04
445 7.3979396011315530e-04 -3.5857555101569978e-04 5.6834503358451033e-04
446 8.1570820770343318e-04 -3.5742547289924459e-04 4.4371704189012184e-04
447 7.3557416095710974e-04 -4.7650686310653949e-04 4.7284199757728130e-04
448 6.5289484199151731e-04 -4.7611678295082386e-04 5.8939467127072231e-04
449 7.9818225171575982e-04 -4.7773869176944377e-04 3.4554063699898430e-04
450 8.7040046483071896e-04 -3.5757454877540813e-04 3.1234336807824917e-04
451 6.3908194674707733e-04 -5.9020949142262076e-04 4.8717949409544801e-04
452 6.7415652942177245e-04 1.3399613187075718e-04 7.3713709949460235e-04
453 -5.5733765981499093e-04 -8.0615088435212034e-04 1.2571257827109401e-04
454 2.3302833842016371e-05 -4.0478755361147951e-04 -9.3731186891850076e-04
455 8.9103039929139879e-04 4.0564524537757329e-04 1.3338042775188101e-04
456 4.7244584322997932e-04 -2.1430432155969376e-04 -8.7363149880814847e-04
457 5.0180796001127713e-04 5.2712625258373739e-04 -6.9122029624582777e-04
458 6.1358167027807684e-04 -2.3540159113889238e-04 7.6670332392728070e-04
459 1.3631056412105480e-04 9.5752486833384132e-04 2.0356825272867452e-04
460 6.2298867031209109e-04 6.9316682749083231e-04 3.3758961334132999e-04
461 3.8337511336357621e-04 5.4128686973894393e-04 -7.5819495878068376e-04
462 -4.1960414791938964e-04 7.0002202489148862e-04 5.7488200197891224e-04
463 7.6641666461479540e-04 -1.3010087116284178e-04 -6.3220006050317503e-04
464 8.7435799507280170e-04 -2.5439311158023296e-04 -3.9711202220221633e-04
465 8.6719159741807325e-04 -3.6442607740712942e-04 -3.1310172031893366e-04
466 2.1097776348689966e-06 8.2044987321457043e-04 -5.6859113336161539e-04
467 9.2173889083964876e-04 -2.4520761489428886e-04 -2.6614482874220676e-04
468 9.0801641917187125e-04 -3.5425113886548485e-04 -1.6910126707456112e-04
469 1.5327210844252829e-04 3.5305266623897720e-04 -9.4543610890694403e-04
470 8.4360360041935828e-04 -4.7048314795880900e-04 2.1641818644864579e-04
471 9.0703004708853378e-04 -3.4899223549992122e-04 1.8357252588414616e-04
472 1.9629437622371854e-04 7.7253509116537655e-04 6.0383468926702977e-04
473 1.4898435068343602e-04 -2.0874723422933735e-04 -9.9285503657433488e-04
474 2.2659878152043149e-04 -8.9144738541598295e-04 -3.7367662091799999e-04
475 5.5589299620288028e-04 7.6665550905148921e-04 -2.8815534004006019e-04
476 3.2407963376237500e-04 7.1585653766661561e-04 6.1938912856060306e-04
477 2.8329806426802929e-04 7.1951258038009495e-04 -6.3617793241789954e-04
478 -1.9033951628665160e-04 -5.6021911560379036e-04 -8.2048996394969295e-04
479 -1.7354117207990933e-04 -6.7021410266546795e-04 -7.3091549515724534e-04
480 -3.9053118779660222e-04 8.2693762009915380e-04 -3.8400894388153318e-04
481 1.9475631757825498e-04 6.6016930742828818e-04 -7.3392854864945585e-04
482 7.5376375324502491e-04 -5.9546481756592954e-04 2.4462682251828597e-04
483 8.7901348984585788e-04 -4.4252852713180070e-04 8.9304996666008415e-05
484 9.2893463771478275e-04 -3.3052402639111754e-04 5.6978863517856818e-05
485 5.8406705628020800e-04 -2.3829526198815263e-04 -7.8943414415618535e-04
486 3.9563477076389012e-04 1.6359987942830232e-04 -9.2450783722393068e-04
487 9.7739237324508902e-04 1.3030907969494116e-04 -5.9546194365733071e-05
488 9.4358267014962578e-04 2.7110330661076295e-04 -1.1825546449114399e-04
489 9.5990935575810950e-04 2.2910190930083772e-04 5.4364835299910102e-06
490 8.8870975735524179e-04 4.1956444456498100e-04 -1.0102475843612753e-04
491 3.4605774297217633e-04 9.2432695758115136e-04 1.0212710572761355e-05
492 2.9090148866814006e-04 9.3535240321307434e-04 -1.2880987324399756e-04
493 4.2902530646469420e-04 8.8557349519631978e-04 -7.8204899030743770e-05
494 9.0291631852222945e-04 -3.9874625042379396e-04 -3.6026371770559708e-05
495 9.4623909332785356e-04 -2.7787088705908314e-04 -5.3493585124915125e-05
496 -3.8507639884515079e-04 9.0808062377801082e-04 2.0115216929848924e-05
497 9.7708484655761288e-04 1.2210511804083764e-04 7.8819583701984837e-05
498 6.6780713423932015e-04 6.7769134666579287e-04 -2.7270688986692857e-04
499 9.7738323428902510e-04 -1.3297149129780527e-04 -6.2748222489138403e-05
500 9.5998550583615389e-04 -1.1288897746348445e-04 2.1078780785000530e-04
501 9.2387020782118694e-04 -1.2705263560734028e-04 -3.3772670423096168e-04
502 8.5544420074762145e-04 1.2622014148186176e-04 -4.9467833652042093e-04
503 8.6011741660743408e-04 -1.2419116431507414e-04 4.8747576725964077e-04
504 4.3713171764896413e-04 1.0808381823500467e-04 9.1420430095978016e-04
505 4.2424825801044841e-04 3.3223702110208941e-04 8.5985320716786321e-04
506 6.5477615347051812e-04 -3.6157385662982932e-04 6.6949755059881417e-04
507 3.0846389779421395e-04 -9.0946098741449160e-05 9.7222428263496149e-04
508 5.5296562283418598e-05 -1.1091069118345056e-04 1.0215602278661211e-03
509 1.5934915036931727e-04 -2.0767992041928495e-04 9.9178959913772259e-04
510 2.6008337579476676e-04 -1.7580271821518792e-04 9.7402767165035516e-04
511 -2.0100966311160169e-04 6.7440315569077609e-04 -7.1812353258761234e-04
512 2.7109664207830423e-04 9.1930118584163166e-04 2.4445185536957950e-04
513 5.6776021511395307e-04 -8.0791748977723549e-04 -3.9763272032095762e-05
514 2.5453052699681212e-04 -9.5399261958831888e-04 3.7369558985736036e-05
515 2.9481898006525673e-04 -9.2997052787082769e-04 1.6294470452923640e-04
516 -5.5079727656933049e-04 5.6336387188578112e-04 -6.1617919848915362e-04
517 7.7105602420723572e-04 -5.7018017308656254e-04 -2.4628191411538261e-04
518 -1.4297947605089654e-04 -9.7668614823981652e-04 -3.8858968116628598e-05
519 -2.9033218658059426e-04 -9.4367156383320027e-04 -4.5714538323964862e-05
520 -3.3068730580411188e-04 -9.1402862567083372e-04 -1.8239152573185828e-04
521 -7.8221797742542530e-04 5.2261959307608357e-04 -3.0876570071191602e-04
522 -9.7566393520706130e-04 9.1789835805176681e-05 -1.2030356526493834e-04
523 7.7699449312143489e-04 5.9799666367896644e-04 1.1836864751288156e-04
524 -7.9210789709600090e-04 -5.4317571539670966e-04 2.3748804015908596e-04
525 7.6698110582247223e-04 5.1595206828786860e-04 3.5903862872478935e-04
526 4.8672899449182908e-04 -7.6645727963085375e-04 -4.0382489672923210e-04
527 -9.4214474665663649e-04 -2.7160463922679806e-04 -1.1781167988560580e-04
528 -9.3107189727975191e-04 -7.2183015941324361e-05 3.3128893886088222e-04
529 -9.0786490599365334e-04 5.2866344109435965e-05 3.9770773408451861e-04
530 -8.4040819263045830e-04 5.7553815646837055e-05 5.3438884127009938e-04
531 -7.7031924339106554e-04 -6.0776602988817888e-04 -1.1551006256982616e-04
532 -9.6754941785512762e-04 -6.6398147422543977e-05 1.8986819184290044e-04
533 -7.3214456098335287e-04 5.3381252695690958e-04 4.0511155616773040e-04
534 -6.9436066343944193e-04 7.0054030840239838e-04 -1.0362528756955624e-05
535 -2.3358991544398429e-04 -9.1827991757570491e-04 -2.8957000891623158e-04
536 6.1995274651435403e-04 7.5193139347337460e-04 -1.6247242066905987e-04
537 -1.3738138113018184e-04 -8.8758724687681143e-04 4.2708315280749976e-04
538 -4.4215546644266612e-05 9.8179496806768940e-04 -8.8987387828883056e-05
539 -1.7038635273234720e-04 9.4202751309388282e-04 -2.4640699347999099e-04
540 6.1649006565026780e-05 9.6612857015986855e-04 -2.0065853159052070e-04
541 -9.2801525600766171e-04 2.8316475406586159e-04 1.8758433287158527e-04
542 -8.6953962249330062e-04 -4.2716807847318743e-04 1.9748085790334473e-04
543 -8.0357709035360424e-04 -8.6422452026799719e-05 5.8774604012073745e-04
544 -7.5319077060604657e-04 3.7024630442253161e-05 6.6025357928348053e-04
545 -6.5280310257861333e-04 -5.2542551386465085e-04 -5.4152744400602767e-04
546 -7.4210132950969460e-04 -4.2543936552791707e-04 -5.1065529305029317e-04
547 -7.4869421130601234e-04 -3.0577279676871410e-04 -5.8708226994028014e-04
548 -6.5237842655024847e-04 -2.7980706928940811e-04 -7.1222880004356858e-04
549 2.6169434846467457e-04 -8.1113503043636127e-04 5.1843668260057854e-04
550 5.6232032318041510e-04 5.9878278416031748e-04 5.6652505030817810e-04
551 8.6274311825681668e-04 3.6341449044258119e-04 -3.2480742596659065e-04
552 8.7532812410429062e-04 -2.4131836694460317e-04 4.0393093295159775e-04
553 1.5863290397255607e-04 -7.7218050952505433e-04 6.1802799417271198e-04
554 -4.4332922999067566e-04 -6.4554576052756863e-04 6.2525493522696879e-04
555 -3.8252529340744422e-04 -5.6814743632775579e-04 7.3838325354813486e-04
556 -8.2621313235930322e-04 -4.3727389867100947e-04 3.2918912376070348e-04
557 -6.0083082376697510e-04 -7.1841799629787358e-04 -3.2346258462237379e-04
558 -7.2243315293991927e-04 2.4936742579882796e-04 6.4762299413181326e-04
559 -6.7562157714422841e-04 -4.4941973500838499e-04 5.8318702250270552e-04
560 -5.7954566567272050e-04 -5.6581278191343294e-04 5.8702690942751955e-04
561 6.3146287714258757e-04 4.7927029724748608e-04 -6.1079081863390171e-04
562 -3.2206030009092145e-04 -6.8006260374915272e-04 -6.6401650172321573e-04
563 -4.8636788824633036e-04 5.1095530839077288e-04 7.1627887356679409e-04
564 7.1982679358643270e-04 -4.8368844100866450e-04 -4.9081995680156905e-04
565 -6.9218033257214488e-05 -2.8996166843400247e-04 9.8057375464390248e-04
566 -1.0482558059029951e-04 -4.0740537639082509e-04 9.2988009563062138e-04
567 -1.9915714879321469e-04 -3.1640482912963621e-04 9.5152489149784043e-04
568 -1.6506635324485801e-04 -6.4893678873982770e-04 7.5416681604369433e-04
569 4.0930765876803196e-04 -6.6099027559309823e-04 -6.3235200584101829e-04
570 -7.0647098630067812e-04 -9.7062651023435153e-05 7.0792725463711458e-04
571 5.3866044560113861e-04 3.1073655625031809e-04 7.9628605363268152e-04
572 4.8425576671185460e-04 -3.3887348527156290e-04 -8.2236877770704663e-04
573 1.4001938775869333e-04 -3.4587132573465370e-04 9.5201226126585261e-04
574 -7.4066021200796942e-04 2.0060843782160505e-04 -6.4353177969460741e-04
575 1.5221710979009304e-04 -4.7322691974698993e-04 -8.8762950474843394e-04
576 -4.5258722159456356e-04 -4.3672105266240780e-04 7.9166026377860228e-04
577 -3.0544986258979425e-04 3.5061628803116683e-04 -9.0547766020057153e-04
578 -2.4436538408982870e-04 2.4021868389026494e-04 -9.6345471498724734e-04
579 -3.0912995408683363e-04 1.2609500884653362e-04 -9.6684104517546685e-04
580 -4.8829295306179916e-04 1.6970825991292059e-05 -8.9186839787944953e-04
581 4.5696319573911535e-04 -5.6531760184819430e-04 6.9553252378264519e-04
582 4.8573967311771218e-04 -3.0429243432446323e-04 8.3584640737891620e-04
583 -4.4369707712624745e-04 1.4131688529393560e-04 -9.0503576134038581e-04
584 -4.1151977458354097e-04 1.8406901746286525e-04 9.1354901512137403e-04
585 -4.4755575777309078e-04 7.5070529741036083e-05 9.1190080593410851e-04
586 -3.3921587145975638e-04 -4.1530164621233947e-04 -8.6174599246311161e-04
587 2.7651065148373516e-05 9.4342070304543842e-04 2.9872495513838542e-04
588 -3.8927914906544312e-04 -8.9422296145825377e-05 -9.3949811506042471e-04
589 -2.6885137377249702e-04 -6.2260561549096587e-05 -9.8708046219821025e-04
590 -1.8802895964149655e-04 -1.1206124206519047e-04 -1.0030600489401150e-03
591 -1.4699480029555198e-04 4.2089562101872295e-04 9.1604144933478252e-04
592 -5.1370752034789202e-04 7.8801489504679815e-04 -3.0860594475416145e-04
593 -2.3735656597442768e-04 -1.1086715257783460e-06 9.9811278732412777e-04
594 3.7044010184030733e-04 2.2372715713408087e-04 9.2339787766065027e-04
595 -7.9730452409216722e-04 5.5698384977813647e-04 1.7357620591749653e-04
596 4.2019060968167599e-04 -8.7614070915763612e-04 1.8667710899522935e-04
597 9.9407248214439906e-05 4.4075347046778512e-04 9.1300556508820978e-04
598 3.2081870100902367e-04 8.9532975754682686e-04 -2.7278582103170855e-04
599 1.8817782679103227e-04 -6.6616832931736545e-04 7.3186476100512126e-04
600 -5.2422295455940078e-04 -8.0210005631700242e-04 2.4811425355725550e-04
601 -8.3771419671020860e-04 4.0586169440497285e-04 -3.3919928906968251e-04
602 -8.0897883753296455e-04 3.4532328820460978e-04 -4.6320664809962342e-04
603 -7.3485051068054896e-04 -5.3446445258408448e-04 -4.0169315402099930e-04
604 -9.0430242836554242e-04 1.4269866048278567e-04 -3.8128187452475591e-04
605 -4.0504405597613889e-04 -9.0038821829808210e-04 1.9384293370215425e-05
606 -3.1770322942073015e-04 8.4226982275174757e-04 4.1857219139326119e-04
607 5.0715031752669082e-05 1.4224940208807421e-04 1.0159993732270238e-03
608 -4.1897125361162893e-05 7.6828767408389643e-04 6.4101846253053995e-04
609 -7.4379455199045843e-04 -1.7249093500002299e-04 -6.4922538816728121e-04
610 9.4486886431719276e-04 2.5657242165086510e-04 1.3936090246967185e-04
611 4.4041276604855992e-04 -9.0411508067852220e-05 -9.1451207859205596e-04
612 9.1603247864705580e-04 1.2835741644671728e-04 3.5890657302574001e-04
613 -3.6840828168806027e-04 -8.6789524688246275e-04 -3.0516750042246590e-04
614 5.1754938789995590e-05 -7.8924410846977790e-04 -6.1404517853428763e-04
615 4.5757711575365582e-04 -8.7422184704854752e-04 -5.2824579348272157e-05
616 -6.7748192665848016e-04 -6.9221551258864225e-04 -2.0194872676684034e-04
617 -9.2450041588695170e-04 -2.4743877349666315e-04 -2.4995901628007295e-04
618 -6.1733354112048790e-04 4.5026359121295859e-04 -6.4753433737788026e-04
619 1.8974546815518279e-04 -9.4409687614609768e-04 -2.3146885439492449e-04
620 -3.3007637139701862e-05 -9.3348041342081385e-04 3.3422128861779118e-04
621 3.8831624496627962e-04 -7.6047755500535891e-04 -5.1512795902821122e-04
622 -2.3297238060276097e-04 -4.4708744458239595e-04 8.8278598576866339e-04
623 7.9771843840130386e-04 -4.7450513480900235e-04 -3.5092886889713157e-04
624 9.2114488255304588e-04 1.2887445698739756e-04 -3.4454123251439112e-04
625 -4.0124144226309397e-04 6.1090941995978090e-04 6.8754509333756621e-04
626 -2.5657170493238268e-04 -5.6831309579288380e-04 7.9530140730677652e-04
627 -9.5054271767090021e-05 5.3729202206219157e-04 8.5465865377564192e-04
628 4.7362386145475719e-04 8.6469304589374457e-04 5.0081997429218860e-05
629 -9.5014666960153678e-04 5.7668200508385215e-05 2.6978852335325670e-04
630 -5.8570295966420705e-04 7.7722059031756796e-04 1.6754258863203316e-04
631 -8.2805017849294567e-04 -1.9310135589243466e-04 -5.1975900897873037e-04
632 -4.0250458346689988e-04 8.6889550067117179e-04 -2.4615239691134247e-04
633 9.1975128884271126e-04 2.5118316925678045e-04 -2.6654167940121483e-04
634 -3.2299214721186995e-04 8.5168588992547018e-05 9.6708565352051398e-04
635 3.8163706449283424e-04 -9.0955646964263896e-04 6.0659688478712202e-05
636 -6.5693893075345944e-05 -9.6511100903791890e-04 2.0819011298940505e-04
637 -4.7900749955615555e-04 -5.9822172743902865e-05 8.9556213935775117e-04
638 4.3852282169678608e-04 2.5309064997916032e-04 -8.7966349890581253e-04
639 4.4100198787647241e-04 -1.1543697337755777e-04 9.1118307984334123e-04
640 -7.0824473852624468e-05 6.6564684620691963e-04 -7.5268238690413467e-04
641 -9.4761815590574470e-04 2.2424114558141774e-04 -1.6488064316732485e-04
642 -8.7402396476761555e-04 2.7756410445185293e-04 -3.7718870124974960e-04
643 2.8469984280435172e-04 -7.2298865124496554e-04 6.3288915088208610e-04
644 5.6135106677079178e-04 -4.7053101062829333e-04 6.8753551172512329e-04
645 6.0275078698691811e-04 2.2887490732038268e-04 -7.7586275621735641e-04
646 -2.0545360907998453e-04 1.1051890484476459e-04 9.9906530728962272e-04
647 2.7227904875853011e-05 5.4532083830051447e-04 8.5458180126905185e-04
648 -7.3959968072720818e-04 5.8731683425196335e-04 2.9322101995594892e-04
649 -2.6627604640963766e-04 9.4773880060706442e-04 6.8509591745534833e-05
650 9.2421612250268980e-04 -2.3553570303135686e-04 2.6689623125361828e-04
651 -4.6753115183997672e-04 -8.4958144252214780e-04 -1.9661573688030715e-04
652 -8.6970135490717750e-04 -3.4071618810528441e-04 -3.2983212344127468e-04
653 -1.9469977894784492e-04 1.3779651655978090e-04 -9.9743949005932746e-04
654 8.4499616198696094e-04 -4.6578555022649395e-04 -2.1934870434856224e-04
655 -7.2316101556979377e-04 4.0845519460185471e-04 -5.5185880208231898e-04
656 6.6647319537752265e-04 -1.2384177134195463e-04 -7.4562898660956935e-04
657 -7.4538106069533584e-04 -5.3735064463010496e-04 3.7406234438391785e-04
658 -3.5285321072464561e-04 2.6167996736612851e-05 -9.5913056074758063e-04
659 -1.6663179343120836e-04 1.1884235580184343e-05 -1.0140562611467483e-03
660 -4.2369135674709789e-05 -4.6662149142263602e-06 -1.0270401254506647e-03
661 8.4577253290873196e-04 -5.1015854055757931e-04 -4.1418978478193676e-06
662 4.1396357355025631e-05 -2.6152459110237967e-04 9.9117178858352931e-04
663 5.0346660053272353e-04 8.3090365139372197e-04 -1.7875934444078721e-04
664 -2.7645088995235944e-04 9.4596172179929486e-04 -4.6154079712898614e-05
665 -2.8950364437892005e-04 9.2667855688657603e-04 -1.8140883330340310e-04
666 -7.8202271191789058e-05 1.2740131124629401e-04 -1.0169846816901996e-03
667 2.5557479665567931e-04 -8.2599352612607035e-04 -4.9520636225664318e-04
668 -5.6890072513710130e-04 4.5488159329823371e-05 8.3672601049348454e-04
669 -8.2303340418953712e-04 -3.1863978929879566e-04 -4.5767219843035212e-04
670 -4.8501091711856406e-04 8.5444256942863355e-04 9.2409365633631948e-05
671 -9.5298315224558909e-04 1.5881845876273559e-04 2.0402885196374747e-04
672 5.6153593875272686e-04 -3.5889959814279482e-04 7.5566522775944226e-04
673 -1.8884483040721053e-05 2.5098377589553530e-04 -9.9365485484556940e-04
674 -1.9652553482739891e-04 -9.5421173613077889e-04 1.6849622156935967e-04
675 4.1132844468914030e-04 7.3672031368306971e-04 5.2951028570610696e-04
676 7.4371996793533331e-05 7.2699696774121989e-04 6.8837747378910495e-04
677 4.9085333061175181e-04 2.0957258360193747e-04 8.6329504136306416e-04
678 -4.8924506850920603e-04 -7.7677218853715465e-04 3.7663865631505064e-04
679 2.9895162325026064e-04 -7.6641779708760908e-05 -9.7652477848274744e-04
680 3.8867454015716817e-04 -6.6661530628748839e-04 6.3879634636785840e-04
681 -8.7178313922462835e-04 1.5971947110762162e-04 4.4797675140309810e-04
682 -8.9223465857837586e-04 4.1989362949195353e-04 1.5445924807220189e-05
683 -6.2318901279922298e-05 -2.0385138770881066e-06 1.0261746869817026e-03
684 3.3950898157071244e-04 -9.2583553420372007e-04 -5.9586396648083527e-05
685 3.9901330771703879e-04 8.8367463221409670e-04 -1.8561351731869317e-04
686 1.6940215937806045e-04 -7.9696327373092208e-04 -5.7740498216021037e-04
687 1.6967338350580476e-04 9.6327201396507946e-04 -1.2916961999769993e-04
688 -8.0391856234325577e-04 -4.2072685480652733e-04 -4.0030838350889753e-04
689 -5.3835645340605557e-04 -6.4935828886932034e-04 5.3041343465638118e-04
690 5.7238382097675976e-04 -6.8804230633081210e-04 4.3208993587201078e-04
691 9.5139844914130477e-04 -2.2649258997909451e-04 1.4229818872529547e-04
692 -6.8800148311703156e-04 -5.2819395423950159e-04 4.8722321286361216e-04
693 9.2518026163545370e-04 2.2260537821023520e-04 2.7025258180131634e-04
694 -1.7223967821966470e-04 9.6446662033148451e-04 -1.1817398754344316e-04
695 8.9833577161782042e-04 3.5624653628845229e-04 -2.0592718309271342e-04
696 -5.0521607155652848e-05 6.5995817692364152e-04 7.6115069796923345e-04
697 -3.3234102414623747e-04 -4.7967474956049118e-04 8.2641179890848124e-04
698 9.2213385125816249e-04 3.5383485067673199e-04 1.3597316177026740e-05
699 -4.8759537049694189e-04 -5.3824294616377914e-04 6.9328689010384761e-04
700 -6.6379635143665693e-04 7.5542654113377983e-06 7.5686039000135655e-04
701 5.6479820716968097e-04 -5.5962158083120621e-04 6.0700513186820850e-04
702 -6.8842814798706720e-04 -6.3393413216776681e-04 -3.2326506353280715e-04
703 -7.6580086460963949e-04 2.9853636706715316e-04 -5.6425910426781390e-04
704 4.7273674724952714e-05 3.4831160345829290e-04 -9.5944806608013779e-04
705 3.0384281985107762e-04 6.2280953099138800e-04 -7.2785698715930659e-04
706 -3.1115277666511366e-04 6.8661176754875085e-04 6.5904771304567140e-04
707 1.1087682195977710e-04 -9.2251293248783565e-04 -3.4546933114185650e-04
708 -6.6766446505307569e-04 7.1859946801411834e-04 1.0117997996353023e-04
709 8.9082195460098138e-06 7.3589841760662953e-04 -6.8072820325637442e-04
710 -4.0217913904129932e-04 7.7249961507128726e-04 4.7896180293494604e-04
711 -9.2036311946347242e-04 2.1922875500415465e-04 -2.8677323925364331e-04
712 7.6997462612682637e-04 1.0366603299651755e-04 6.3152256316716755e-04
713 -2.1216283884963023e-04 -7.5253553488812709e-04 -6.2402766071676112e-04
714 6.3432464271111720e-04 3.5010257826116663e-04 -6.9541424702831381e-04
715 -2.1260007363166461e-04 -9.6244201609123271e-04 5.2701744812759878e-05
716 -2.6039420171171808e-04 5.0142786466357258e-05 -9.8949385994132034e-04
717 -4.0213801256183186e-04 -8.9690487859208127e-04 -9.1454019174915327e-05
718 4.9878858137513619e-04 -2.0488533019965806e-04 8.5921752180360966e-04
719 7.2361833082806317e-04 -5.6405102429813163e-04 3.7815225581855333e-04
720 8.3672592064497884e-04 5.0245706804509505e-04 1.4823845877083076e-04
721 2.4699012428312854e-04 -1.7007241702700178e-04 -9.7858081080862570e-04
722 -5.6865683727878587e-04 -7.7476163591722643e-04 -2.3166118604402692e-04
723 3.6244943204943064e-05 8.4526685000196563e-05 -1.0236292945030776e-03
724 -1.8598186032259967e-04 7.1144619317630548e-04 6.8373746801755919e-04
725 8.6934898453048777e-04 -4.5604632309790579e-04 -1.0625384677798081e-04
726 5.8436848146107407e-04 2.0365239821819526e-04 7.9814948724465234e-04
727 7.7940173662411542e-04 5.6130678462121991e-04 2.3459033677379168e-04
728 5.4028635825333852e-04 5.8795858994058257e-04 -5.9991308273256785e-04
729 4.7795054175274725e-04 9.7586976509189249e-05 -8.9108804951440446e-04
730 7.0445082705627147e-04 6.1732515468610556e-04 3.2014954338005876e-04
731 -2.5259855330373436e-04 -6.2021589833613922e-04 -7.5066709106648920e-04
732 3.4067572392452148e-04 6.2014054687737003e-04 7.1313804739808252e-04
733 -7.1442259989137381e-05 9.6673125153885948e-04 -1.8548627962939855e-04
734 -2.3560280689428502e-04 -4.7908211456084679e-04 -8.6231002580516196e-04
735 9.4787570760087496e-04 -2.3153155380661500e-04 -1.5360625836395759e-04
736 9.6208797309769122e-04 -2.1777724642212763e-04 2.8922927846127623e-05
737 -1.7039882375652787e-05 -5.2062192280905191e-05 1.0269907290550192e-03
738 -4.9725946343710619e-04 -8.5076310445652106e-04 5.2922699080277945e-05
739 4.9134303079666501e-04 2.1147474653724873e-04 -8.6155778230891371e-04
740 -7.6262156762064656e-04 1.3745083482502067e-04 6.3254786611183060e-04
741 -1.4889683650297952e-04 3.0238053120809215e-05 1.0155509712388834e-03
742 -5.5924498066397101e-04 -6.9642111441734877e-04 4.3375436181809486e-04
743 -8.2357227920108016e-06 4.4569020056240007e-04 -9.1486742875117419e-04
744 2.9638570610514384e-04 -9.2832372234371045e-04 -1.6288274308875287e-04
745 -8.7978374926021507e-05 -6.8117455101484616e-04 -7.3410237379684128e-04
$EndNodes
$Elements
1486
1 2 2 0 0 410 440 345
2 2 2 0 0 421 541 409
3 2 2 0 0 409 682 421
4 2 2 0 0 545 603 546
5 2 2 0 0 426 427 294
6 2 2 0 0 294 454 426
7 2 2 0 0 265 682 409
8 2 2 0 0 24 41 4
9 2 2 0 0 3 24 4
10 2 2 0 0 238 642 602
11 2 2 0 0 520 651 613
12 2 2 0 0 653 666 659
13 2 2 0 0 404 460 98
14 2 2 0 0 222 482 219
15 2 2 0 0 40 463 9
16 2 2 0 0 608 724 696
17 2 2 0 0 435 709 69
18 2 2 0 0 413 439 29
19 2 2 0 0 345 710 410
20 2 2 0 0 422 463 40
21 2 2 0 0 98 550 404
22 2 2 0 0 95 724 608
23 2 2 0 0 4 41 5
24 2 2 0 0 232 701 581
25 2 2 0 0 490 698 488
26 2 2 0 0 29 436 413
27 2 2 0 0 416 421 342
28 2 2 0 0 312 595 441
29 2 2 0 0 41 486 5
30 2 2 0 0 405 605 519
31 2 2 0 0 409 595 265
32 2 2 0 0 69 481 435
33 2 2 0 0 434 743 339
34 2 2 0 0 342 641 416
35 2 2 0 0 485 656 370
36 2 2 0 0 89 587 90
37 2 2 0 0 108 466 317
38 2 2 0 0 378 629 529
39 2 2 0 0 581 680 232
40 2 2 0 0 281 434 339
41 2 2 0 0 638 739 486
42 2 2 0 0 659 666 660
43 2 2 0 0 345 440 346
44 2 2 0 0 22 44 25
45 2 2 0 0 9 463 8
46 2 2 0 0 44 81 25
47 2 2 0 0 459 587 89
48 2 2 0 0 127 670 630
49 2 2 0 0 508 662 509
50 2 2 0 0 375 662 508
51 2 2 0 0 492 598 103
52 2 2 0 0 604 642 238
53 2 2 0 0 507 510 399
54 2 2 0 0 488 698 489
55 2 2 0 0 34 473 415
56 2 2 0 0 399 639 507
57 2 2 0 0 603 688 546
58 2 2 0 0 316 541 421
59 2 2 0 0 647 696 627
60 2 2 0 0 403 439 352
61 2 2 0 0 221 603 545
62 2 2 0 0 595 648 441
63 2 2 0 0 412 550 98
64 2 2 0 0 411 714 397
65 2 2 0 0 486 739 729
66 2 2 0 0 696 724 401
67 2 2 0 0 247 482 222
68 2 2 0 0 397 714 645
69 2 2 0 0 613 651 212
70 2 2 0 0 207 745 425
71 2 2 0 0 98 675 412
72 2 2 0 0 219 482 230
73 2 2 0 0 560 692 432
74 2 2 0 0 432 689 560
75 2 2 0 0 454 575 426
76 2 2 0 0 352 439 413
77 2 2 0 0 415 420 2
78 2 2 0 0 40 464 422
79 2 2 0 0 89 512 459
80 2 2 0 0 425 614 207
81 2 2 0 0 377 600 453
82 2 2 0 0 89 90 88
83 2 2 0 0 80 466 108
84 2 2 0 0 520 717 651
85 2 2 0 0 602 703 238
86 2 2 0 0 103 687 492
87 2 2 0 0 253 491 424
88 2 2 0 0 69 709 466
89 2 2 0 0 424 512 253
90 2 2 0 0 369 696 647
91 2 2 0 0 581 701 644
92 2 2 0 0 630 670 392
93 2 2 0 0 32 656 485
94 2 2 0 0 459 512 424
95 2 2 0 0 90 91 88
96 2 2 0 0 427 478 294
97 2 2 0 0 488 695 490
98 2 2 0 0 554 699 560
99 2 2 0 0 67 80 79
100 2 2 0 0 252 454 294
101 2 2 0 0 253 628 491
102 2 2 0 0 529 681 378
103 2 2 0 0 519 715 405
104 2 2 0 0 440 441 346
105 2 2 0 0 605 717 519
106 2 2 0 0 403 452 439
107 2 2 0 0 507 639 21
108 2 2 0 0 565 567 566
109 2 2 0 0 433 454 341
110 2 2 0 0 67 466 80
111 2 2 0 0 555 697 576
112 2 2 0 0 491 628 493
113 2 2 0 0 389 641 342
114 2 2 0 0 429 619 474
115 2 2 0 0 40 501 464
116 2 2 0 0 576 699 555
117 2 2 0 0 311 600 377
118 2 2 0 0 567 622 566
119 2 2 0 0 433 575 454
120 2 2 0 0 378 671 629
121 2 2 0 0 79 540 103
122 2 2 0 0 341 473 433
123 2 2 0 0 673 704 68
124 2 2 0 0 462 710 345
125 2 2 0 0 557 722 616
126 2 2 0 0 573 662 343
127 2 2 0 0 370 656 463
128 2 2 0 0 341 454 252
129 2 2 0 0 616 702 557
130 2 2 0 0 6 26 7
131 2 2 0 0 464 501 467
132 2 2 0 0 433 473 406
133 2 2 0 0 8 45 37
134 2 2 0 0 466 709 317
135 2 2 0 0 457 461 379
136 2 2 0 0 84 512 86
137 2 2 0 0 19 452 33
138 2 2 0 0 380 614 425
139 2 2 0 0 83 540 79
140 2 2 0 0 398 510 509
141 2 2 0 0 609 631 137
142 2 2 0 0 18 442 36
143 2 2 0 0 26 45 7
144 2 2 0 0 565 566 343
145 2 2 0 0 80 83 79
146 2 2 0 0 560 689 554
147 2 2 0 0 134 137 136
148 2 2 0 0 68 469 42
149 2 2 0 0 659 716 653
150 2 2 0 0 619 707 474
151 2 2 0 0 497 610 39
152 2 2 0 0 137 138 136
153 2 2 0 0 283 573 343
154 2 2 0 0 506 644 448
155 2 2 0 0 499 735 31
156 2 2 0 0 81 97 25
157 2 2 0 0 45 46 37
158 2 2 0 0 585 668 637
159 2 2 0 0 495 735 499
160 2 2 0 0 399 510 398
161 2 2 0 0 509 573 398
162 2 2 0 0 442 443 36
163 2 2 0 0 1 607 314
164 2 2 0 0 29 612 436
165 2 2 0 0 547 631 609
166 2 2 0 0 360 595 409
167 2 2 0 0 421 682 342
168 2 2 0 0 426 575 327
169 2 2 0 0 123 577 235
170 2 2 0 0 339 743 417
171 2 2 0 0 7 45 8
172 2 2 0 0 3 723 24
173 2 2 0 0 418 666 653
174 2 2 0 0 59 60 58
175 2 2 0 0 620 636 193
176 2 2 0 0 42 469 47
177 2 2 0 0 65 67 66
178 2 2 0 0 509 662 573
179 2 2 0 0 470 482 247
180 2 2 0 0 368 476 472
181 2 2 0 0 530 740 337
182 2 2 0 0 253 512 84
183 2 2 0 0 455 698 282
184 2 2 0 0 61 65 62
185 2 2 0 0 59 61 60
186 2 2 0 0 91 472 88
187 2 2 0 0 90 92 91
188 2 2 0 0 19 442 18
189 2 2 0 0 464 465 423
190 2 2 0 0 706 724 118
191 2 2 0 0 456 611 32
192 2 2 0 0 379 477 61
193 2 2 0 0 417 743 704
194 2 2 0 0 314 683 1
195 2 2 0 0 442 458 443
196 2 2 0 0 11 28 12
197 2 2 0 0 61 62 60
198 2 2 0 0 118 724 95
199 2 2 0 0 22 25 23
200 2 2 0 0 247 483 470
201 2 2 0 0 281 640 434
202 2 2 0 0 197 667 474
203 2 2 0 0 86 512 89
204 2 2 0 0 417 704 673
205 2 2 0 0 451 690 230
206 2 2 0 0 27 442 19
207 2 2 0 0 637 668 229
208 2 2 0 0 60 475 58
209 2 2 0 0 489 610 497
210 2 2 0 0 307 573 283
211 2 2 0 0 61 477 65
212 2 2 0 0 65 66 62
213 2 2 0 0 544 740 530
214 2 2 0 0 230 719 451
215 2 2 0 0 18 452 19
216 2 2 0 0 268 569 269
217 2 2 0 0 32 485 456
218 2 2 0 0 627 696 401
219 2 2 0 0 24 42 41
220 2 2 0 0 20 27 19
221 2 2 0 0 330 461 457
222 2 2 0 0 506 672 644
223 2 2 0 0 472 476 87
224 2 2 0 0 468 495 494
225 2 2 0 0 88 472 87
226 2 2 0 0 121 577 123
227 2 2 0 0 327 575 276
228 2 2 0 0 422 464 423
229 2 2 0 0 47 63 49
230 2 2 0 0 458 506 443
231 2 2 0 0 232 690 451
232 2 2 0 0 28 487 12
233 2 2 0 0 80 107 83
234 2 2 0 0 608 696 676
235 2 2 0 0 356 481 355
236 2 2 0 0 138 238 136
237 2 2 0 0 137 139 138
238 2 2 0 0 729 739 26
239 2 2 0 0 81 99 97
240 2 2 0 0 46 50 37
241 2 2 0 0 463 656 8
242 2 2 0 0 443 444 36
243 2 2 0 0 68 704 469
244 2 2 0 0 24 68 42
245 2 2 0 0 16 503 30
246 2 2 0 0 65 69 67
247 2 2 0 0 67 79 66
248 2 2 0 0 676 696 369
249 2 2 0 0 59 379 61
250 2 2 0 0 90 93 92
251 2 2 0 0 464 467 465
252 2 2 0 0 441 708 312
253 2 2 0 0 483 484 471
254 2 2 0 0 427 479 478
255 2 2 0 0 245 564 244
256 2 2 0 0 470 483 471
257 2 2 0 0 473 721 406
258 2 2 0 0 555 699 554
259 2 2 0 0 47 469 63
260 2 2 0 0 63 355 49
261 2 2 0 0 62 64 60
262 2 2 0 0 80 108 107
263 2 2 0 0 107 539 83
264 2 2 0 0 139 140 138
265 2 2 0 0 99 100 97
266 2 2 0 0 81 236 99
267 2 2 0 0 46 51 50
268 2 2 0 0 443 445 444
269 2 2 0 0 24 419 68
270 2 2 0 0 69 466 67
271 2 2 0 0 79 103 66
272 2 2 0 0 65 477 69
273 2 2 0 0 547 548 321
274 2 2 0 0 93 94 92
275 2 2 0 0 467 468 465
276 2 2 0 0 333 664 649
277 2 2 0 0 55 498 56
278 2 2 0 0 56 498 72
279 2 2 0 0 12 499 31
280 2 2 0 0 63 356 355
281 2 2 0 0 108 110 107
282 2 2 0 0 139 141 140
283 2 2 0 0 100 101 97
284 2 2 0 0 236 248 99
285 2 2 0 0 81 594 236
286 2 2 0 0 51 52 50
287 2 2 0 0 192 515 195
288 2 2 0 0 445 446 444
289 2 2 0 0 477 481 69
290 2 2 0 0 94 95 92
291 2 2 0 0 93 96 94
292 2 2 0 0 63 408 356
293 2 2 0 0 108 111 110
294 2 2 0 0 110 117 107
295 2 2 0 0 139 154 141
296 2 2 0 0 141 142 140
297 2 2 0 0 51 53 52
298 2 2 0 0 100 102 101
299 2 2 0 0 236 250 248
300 2 2 0 0 445 447 446
301 2 2 0 0 52 388 50
302 2 2 0 0 277 622 567
303 2 2 0 0 95 608 92
304 2 2 0 0 94 118 95
305 2 2 0 0 93 104 96
306 2 2 0 0 51 561 53
307 2 2 0 0 408 434 356
308 2 2 0 0 53 54 52
309 2 2 0 0 445 448 447
310 2 2 0 0 108 317 111
311 2 2 0 0 141 143 142
312 2 2 0 0 142 225 140
313 2 2 0 0 102 166 101
314 2 2 0 0 250 325 248
315 2 2 0 0 100 258 102
316 2 2 0 0 53 55 54
317 2 2 0 0 447 449 446
318 2 2 0 0 236 505 250
319 2 2 0 0 104 105 96
320 2 2 0 0 53 57 55
321 2 2 0 0 55 56 54
322 2 2 0 0 448 451 447
323 2 2 0 0 14 39 15
324 2 2 0 0 317 511 111
325 2 2 0 0 10 40 9
326 2 2 0 0 143 144 142
327 2 2 0 0 57 58 55
328 2 2 0 0 8 37 9
329 2 2 0 0 14 38 13
330 2 2 0 0 166 314 101
331 2 2 0 0 18 36 17
332 2 2 0 0 16 29 17
333 2 2 0 0 33 504 20
334 2 2 0 0 325 365 248
335 2 2 0 0 199 202 196
336 2 2 0 0 7 32 6
337 2 2 0 0 434 435 356
338 2 2 0 0 74 75 73
339 2 2 0 0 223 239 234
340 2 2 0 0 74 76 75
341 2 2 0 0 72 74 73
342 2 2 0 0 231 549 201
343 2 2 0 0 202 205 204
344 2 2 0 0 226 227 214
345 2 2 0 0 272 275 271
346 2 2 0 0 276 318 275
347 2 2 0 0 213 214 209
348 2 2 0 0 76 77 75
349 2 2 0 0 210 231 201
350 2 2 0 0 16 30 15
351 2 2 0 0 205 209 208
352 2 2 0 0 202 204 196
353 2 2 0 0 318 406 340
354 2 2 0 0 195 196 193
355 2 2 0 0 322 420 415
356 2 2 0 0 239 240 234
357 2 2 0 0 163 588 168
358 2 2 0 0 12 31 11
359 2 2 0 0 56 72 71
360 2 2 0 0 425 426 327
361 2 2 0 0 19 33 20
362 2 2 0 0 168 224 215
363 2 2 0 0 209 568 216
364 2 2 0 0 318 433 406
365 2 2 0 0 269 271 270
366 2 2 0 0 268 269 245
367 2 2 0 0 21 639 20
368 2 2 0 0 84 85 82
369 2 2 0 0 181 207 183
370 2 2 0 0 269 272 271
371 2 2 0 0 272 276 275
372 2 2 0 0 242 243 240
373 2 2 0 0 102 167 166
374 2 2 0 0 223 234 233
375 2 2 0 0 283 343 227
376 2 2 0 0 205 208 204
377 2 2 0 0 213 226 214
378 2 2 0 0 271 572 347
379 2 2 0 0 243 268 245
380 2 2 0 0 335 398 307
381 2 2 0 0 303 555 554
382 2 2 0 0 226 283 227
383 2 2 0 0 347 485 370
384 2 2 0 0 195 199 196
385 2 2 0 0 205 213 209
386 2 2 0 0 246 322 252
387 2 2 0 0 76 78 77
388 2 2 0 0 133 163 135
389 2 2 0 0 163 168 164
390 2 2 0 0 322 415 341
391 2 2 0 0 227 361 214
392 2 2 0 0 191 198 189
393 2 2 0 0 78 84 82
394 2 2 0 0 209 216 208
395 2 2 0 0 78 82 77
396 2 2 0 0 216 303 266
397 2 2 0 0 417 418 362
398 2 2 0 0 314 607 101
399 2 2 0 0 339 362 280
400 2 2 0 0 243 245 244
401 2 2 0 0 187 291 185
402 2 2 0 0 429 430 359
403 2 2 0 0 143 145 144
404 2 2 0 0 202 553 205
405 2 2 0 0 339 417 362
406 2 2 0 0 131 580 133
407 2 2 0 0 239 242 240
408 2 2 0 0 57 59 58
409 2 2 0 0 224 246 215
410 2 2 0 0 84 86 85
411 2 2 0 0 303 554 266
412 2 2 0 0 72 73 71
413 2 2 0 0 437 438 414
414 2 2 0 0 318 340 275
415 2 2 0 0 269 270 245
416 2 2 0 0 86 87 85
417 2 2 0 0 192 193 191
418 2 2 0 0 123 235 129
419 2 2 0 0 263 374 262
420 2 2 0 0 425 427 426
421 2 2 0 0 149 150 147
422 2 2 0 0 210 232 231
423 2 2 0 0 74 373 76
424 2 2 0 0 168 215 169
425 2 2 0 0 259 262 249
426 2 2 0 0 145 146 144
427 2 2 0 0 367 524 289
428 2 2 0 0 271 347 270
429 2 2 0 0 406 407 340
430 2 2 0 0 334 459 424
431 2 2 0 0 429 474 430
432 2 2 0 0 250 328 325
433 2 2 0 0 431 432 367
434 2 2 0 0 104 278 105
435 2 2 0 0 145 147 146
436 2 2 0 0 151 152 150
437 2 2 0 0 235 583 129
438 2 2 0 0 237 249 228
439 2 2 0 0 149 151 150
440 2 2 0 0 159 161 158
441 2 2 0 0 153 155 152
442 2 2 0 0 156 158 155
443 2 2 0 0 354 367 289
444 2 2 0 0 259 263 262
445 2 2 0 0 190 191 189
446 2 2 0 0 177 221 174
447 2 2 0 0 162 228 161
448 2 2 0 0 124 516 386
449 2 2 0 0 418 653 578
450 2 2 0 0 371 584 295
451 2 2 0 0 151 153 152
452 2 2 0 0 153 156 155
453 2 2 0 0 159 162 161
454 2 2 0 0 374 593 262
455 2 2 0 0 156 159 158
456 2 2 0 0 237 259 249
457 2 2 0 0 146 284 160
458 2 2 0 0 266 309 267
459 2 2 0 0 264 265 257
460 2 2 0 0 86 88 87
461 2 2 0 0 265 312 257
462 2 2 0 0 162 237 228
463 2 2 0 0 21 44 22
464 2 2 0 0 324 392 390
465 2 2 0 0 371 585 584
466 2 2 0 0 262 366 249
467 2 2 0 0 192 195 193
468 2 2 0 0 263 375 374
469 2 2 0 0 216 266 217
470 2 2 0 0 326 327 276
471 2 2 0 0 260 646 166
472 2 2 0 0 220 223 222
473 2 2 0 0 322 341 252
474 2 2 0 0 256 257 255
475 2 2 0 0 78 253 84
476 2 2 0 0 358 359 242
477 2 2 0 0 188 189 187
478 2 2 0 0 281 339 280
479 2 2 0 0 146 160 144
480 2 2 0 0 123 129 128
481 2 2 0 0 255 324 254
482 2 2 0 0 228 229 161
483 2 2 0 0 354 431 367
484 2 2 0 0 163 164 135
485 2 2 0 0 155 157 152
486 2 2 0 0 243 244 240
487 2 2 0 0 256 264 257
488 2 2 0 0 284 316 160
489 2 2 0 0 380 425 327
490 2 2 0 0 148 149 147
491 2 2 0 0 335 399 398
492 2 2 0 0 418 578 362
493 2 2 0 0 334 424 396
494 2 2 0 0 167 260 166
495 2 2 0 0 325 368 365
496 2 2 0 0 428 429 359
497 2 2 0 0 165 255 254
498 2 2 0 0 297 342 264
499 2 2 0 0 298 371 295
500 2 2 0 0 218 323 220
501 2 2 0 0 310 337 302
502 2 2 0 0 165 256 255
503 2 2 0 0 186 187 185
504 2 2 0 0 56 71 70
505 2 2 0 0 165 254 125
506 2 2 0 0 200 201 199
507 2 2 0 0 148 206 149
508 2 2 0 0 324 390 364
509 2 2 0 0 190 192 191
510 2 2 0 0 368 369 365
511 2 2 0 0 353 404 351
512 2 2 0 0 104 331 278
513 2 2 0 0 256 297 264
514 2 2 0 0 316 421 416
515 2 2 0 0 239 358 242
516 2 2 0 0 169 586 171
517 2 2 0 0 286 287 206
518 2 2 0 0 324 364 254
519 2 2 0 0 241 576 162
520 2 2 0 0 168 169 164
521 2 2 0 0 121 123 122
522 2 2 0 0 266 267 217
523 2 2 0 0 129 131 130
524 2 2 0 0 216 217 208
525 2 2 0 0 285 382 313
526 2 2 0 0 172 321 170
527 2 2 0 0 390 391 364
528 2 2 0 0 296 563 300
529 2 2 0 0 246 252 251
530 2 2 0 0 285 286 206
531 2 2 0 0 288 289 287
532 2 2 0 0 298 372 371
533 2 2 0 0 23 35 22
534 2 2 0 0 300 344 304
535 2 2 0 0 344 462 345
536 2 2 0 0 123 128 122
537 2 2 0 0 297 389 342
538 2 2 0 0 237 277 259
539 2 2 0 0 148 285 206
540 2 2 0 0 86 89 88
541 2 2 0 0 306 307 283
542 2 2 0 0 234 279 233
543 2 2 0 0 316 416 160
544 2 2 0 0 188 190 189
545 2 2 0 0 85 98 82
546 2 2 0 0 358 428 359
547 2 2 0 0 437 455 438
548 2 2 0 0 203 210 201
549 2 2 0 0 382 383 313
550 2 2 0 0 153 176 156
551 2 2 0 0 290 354 289
552 2 2 0 0 159 241 162
553 2 2 0 0 386 387 126
554 2 2 0 0 273 363 338
555 2 2 0 0 272 326 276
556 2 2 0 0 171 293 173
557 2 2 0 0 145 148 147
558 2 2 0 0 274 295 261
559 2 2 0 0 285 313 286
560 2 2 0 0 383 384 313
561 2 2 0 0 301 302 299
562 2 2 0 0 131 133 132
563 2 2 0 0 296 298 295
564 2 2 0 0 305 310 302
565 2 2 0 0 349 412 328
566 2 2 0 0 344 345 304
567 2 2 0 0 77 119 75
568 2 2 0 0 315 378 310
569 2 2 0 0 363 401 400
570 2 2 0 0 332 333 278
571 2 2 0 0 223 233 222
572 2 2 0 0 331 334 332
573 2 2 0 0 186 188 187
574 2 2 0 0 178 212 177
575 2 2 0 0 305 360 315
576 2 2 0 0 334 396 395
577 2 2 0 0 246 251 215
578 2 2 0 0 167 261 260
579 2 2 0 0 175 179 178
580 2 2 0 0 345 346 304
581 2 2 0 0 124 386 126
582 2 2 0 0 286 288 287
583 2 2 0 0 331 332 278
584 2 2 0 0 179 181 180
585 2 2 0 0 301 305 302
586 2 2 0 0 300 304 301
587 2 2 0 0 296 300 299
588 2 2 0 0 305 315 310
589 2 2 0 0 296 299 298
590 2 2 0 0 320 453 290
591 2 2 0 0 274 296 295
592 2 2 0 0 313 531 286
593 2 2 0 0 120 281 280
594 2 2 0 0 360 409 315
595 2 2 0 0 363 400 338
596 2 2 0 0 129 130 128
597 2 2 0 0 300 301 299
598 2 2 0 0 1 508 23
599 2 2 0 0 167 273 261
600 2 2 0 0 133 135 134
601 2 2 0 0 173 174 172
602 2 2 0 0 311 377 376
603 2 2 0 0 273 274 261
604 2 2 0 0 273 338 274
605 2 2 0 0 334 395 332
606 2 2 0 0 183 197 184
607 2 2 0 0 319 393 320
608 2 2 0 0 449 450 446
609 2 2 0 0 288 290 289
610 2 2 0 0 226 306 283
611 2 2 0 0 326 380 327
612 2 2 0 0 175 177 174
613 2 2 0 0 181 183 182
614 2 2 0 0 219 230 211
615 2 2 0 0 308 335 307
616 2 2 0 0 267 311 292
617 2 2 0 0 169 170 164
618 2 2 0 0 288 319 290
619 2 2 0 0 126 165 125
620 2 2 0 0 120 280 121
621 2 2 0 0 130 357 128
622 2 2 0 0 195 200 199
623 2 2 0 0 169 171 170
624 2 2 0 0 171 172 170
625 2 2 0 0 184 186 185
626 2 2 0 0 73 282 71
627 2 2 0 0 252 294 251
628 2 2 0 0 319 320 290
629 2 2 0 0 131 132 130
630 2 2 0 0 393 394 320
631 2 2 0 0 171 173 172
632 2 2 0 0 4 34 3
633 2 2 0 0 218 220 219
634 2 2 0 0 267 292 217
635 2 2 0 0 184 185 182
636 2 2 0 0 188 194 190
637 2 2 0 0 56 70 54
638 2 2 0 0 377 405 376
639 2 2 0 0 449 470 450
640 2 2 0 0 179 180 178
641 2 2 0 0 173 175 174
642 2 2 0 0 175 178 177
643 2 2 0 0 250 329 328
644 2 2 0 0 311 376 292
645 2 2 0 0 329 571 350
646 2 2 0 0 347 370 348
647 2 2 0 0 220 222 219
648 2 2 0 0 376 385 292
649 2 2 0 0 133 134 132
650 2 2 0 0 134 136 132
651 2 2 0 0 306 308 307
652 2 2 0 0 200 203 201
653 2 2 0 0 233 247 222
654 2 2 0 0 98 460 82
655 2 2 0 0 329 349 328
656 2 2 0 0 326 381 380
657 2 2 0 0 347 348 270
658 2 2 0 0 181 182 180
659 2 2 0 0 121 122 115
660 2 2 0 0 350 351 349
661 2 2 0 0 308 336 335
662 2 2 0 0 350 403 352
663 2 2 0 0 470 471 450
664 2 2 0 0 203 211 210
665 2 2 0 0 218 219 211
666 2 2 0 0 183 184 182
667 2 2 0 0 370 463 422
668 2 2 0 0 306 402 308
669 2 2 0 0 203 218 211
670 2 2 0 0 71 490 70
671 2 2 0 0 329 350 349
672 2 2 0 0 436 437 414
673 2 2 0 0 124 126 125
674 2 2 0 0 413 414 353
675 2 2 0 0 422 423 348
676 2 2 0 0 352 353 351
677 2 2 0 0 370 422 348
678 2 2 0 0 350 352 351
679 2 2 0 0 413 436 414
680 2 2 0 0 352 413 353
681 2 2 0 0 120 121 115
682 2 2 0 0 110 480 117
683 2 2 0 0 124 125 116
684 2 2 0 0 126 521 165
685 2 2 0 0 113 120 115
686 2 2 0 0 127 440 410
687 2 2 0 0 114 124 116
688 2 2 0 0 543 544 530
689 2 2 0 0 488 489 487
690 2 2 0 0 585 637 366
691 2 2 0 0 543 570 544
692 2 2 0 0 113 115 114
693 2 2 0 0 127 410 106
694 2 2 0 0 114 116 112
695 2 2 0 0 195 515 200
696 2 2 0 0 491 493 492
697 2 2 0 0 12 487 13
698 2 2 0 0 546 547 321
699 2 2 0 0 330 457 411
700 2 2 0 0 157 543 530
701 2 2 0 0 519 520 291
702 2 2 0 0 28 488 487
703 2 2 0 0 111 112 110
704 2 2 0 0 312 534 257
705 2 2 0 0 476 732 412
706 2 2 0 0 27 458 442
707 2 2 0 0 385 636 620
708 2 2 0 0 176 559 156
709 2 2 0 0 593 634 366
710 2 2 0 0 589 590 224
711 2 2 0 0 113 114 112
712 2 2 0 0 109 127 106
713 2 2 0 0 270 564 245
714 2 2 0 0 443 506 445
715 2 2 0 0 491 492 396
716 2 2 0 0 388 624 502
717 2 2 0 0 445 506 448
718 2 2 0 0 30 500 15
719 2 2 0 0 20 504 21
720 2 2 0 0 64 475 60
721 2 2 0 0 287 542 206
722 2 2 0 0 23 508 35
723 2 2 0 0 302 558 299
724 2 2 0 0 70 551 54
725 2 2 0 0 62 598 64
726 2 2 0 0 424 491 396
727 2 2 0 0 407 456 340
728 2 2 0 0 545 546 321
729 2 2 0 0 330 411 397
730 2 2 0 0 72 536 74
731 2 2 0 0 238 574 136
732 2 2 0 0 659 660 420
733 2 2 0 0 395 538 332
734 2 2 0 0 143 527 145
735 2 2 0 0 412 675 476
736 2 2 0 0 239 513 358
737 2 2 0 0 157 530 529
738 2 2 0 0 518 519 291
739 2 2 0 0 449 482 470
740 2 2 0 0 207 713 479
741 2 2 0 0 119 523 75
742 2 2 0 0 109 670 127
743 2 2 0 0 10 501 40
744 2 2 0 0 508 509 35
745 2 2 0 0 96 606 94
746 2 2 0 0 331 459 334
747 2 2 0 0 286 531 288
748 2 2 0 0 290 453 354
749 2 2 0 0 282 490 71
750 2 2 0 0 384 531 313
751 2 2 0 0 289 524 287
752 2 2 0 0 349 550 412
753 2 2 0 0 165 521 256
754 2 2 0 0 82 460 77
755 2 2 0 0 155 543 157
756 2 2 0 0 201 549 199
757 2 2 0 0 273 591 363
758 2 2 0 0 387 521 126
759 2 2 0 0 114 516 124
760 2 2 0 0 53 561 57
761 2 2 0 0 266 554 309
762 2 2 0 0 257 534 255
763 2 2 0 0 205 553 213
764 2 2 0 0 142 522 225
765 2 2 0 0 435 481 356
766 2 2 0 0 216 568 303
767 2 2 0 0 300 563 344
768 2 2 0 0 214 568 209
769 2 2 0 0 112 480 110
770 2 2 0 0 350 571 403
771 2 2 0 0 347 572 485
772 2 2 0 0 275 572 271
773 2 2 0 0 274 563 296
774 2 2 0 0 171 586 293
775 2 2 0 0 162 576 237
776 2 2 0 0 133 580 163
777 2 2 0 0 11 501 10
778 2 2 0 0 295 584 261
779 2 2 0 0 129 583 131
780 2 2 0 0 215 586 169
781 2 2 0 0 250 505 329
782 2 2 0 0 168 588 224
783 2 2 0 0 321 548 170
784 2 2 0 0 262 593 366
785 2 2 0 0 166 646 314
786 2 2 0 0 520 535 291
787 2 2 0 0 373 663 493
788 2 2 0 0 291 535 185
789 2 2 0 0 101 607 97
790 2 2 0 0 130 574 357
791 2 2 0 0 158 570 543
792 2 2 0 0 31 501 11
793 2 2 0 0 444 552 503
794 2 2 0 0 156 559 159
795 2 2 0 0 236 594 505
796 2 2 0 0 206 542 149
797 2 2 0 0 54 551 52
798 2 2 0 0 74 536 373
799 2 2 0 0 337 558 302
800 2 2 0 0 150 532 147
801 2 2 0 0 379 728 457
802 2 2 0 0 299 558 298
803 2 2 0 0 332 538 333
804 2 2 0 0 145 527 148
805 2 2 0 0 514 515 192
806 2 2 0 0 15 500 14
807 2 2 0 0 75 523 73
808 2 2 0 0 467 501 31
809 2 2 0 0 254 592 125
810 2 2 0 0 172 545 321
811 2 2 0 0 144 522 142
812 2 2 0 0 528 532 150
813 2 2 0 0 187 518 291
814 2 2 0 0 553 599 213
815 2 2 0 0 383 603 384
816 2 2 0 0 282 698 490
817 2 2 0 0 244 517 240
818 2 2 0 0 353 525 404
819 2 2 0 0 395 540 538
820 2 2 0 0 94 606 118
821 2 2 0 0 117 539 107
822 2 2 0 0 185 535 182
823 2 2 0 0 388 502 50
824 2 2 0 0 167 591 273
825 2 2 0 0 147 532 146
826 2 2 0 0 92 608 91
827 2 2 0 0 472 676 368
828 2 2 0 0 364 592 254
829 2 2 0 0 21 504 44
830 2 2 0 0 365 597 248
831 2 2 0 0 125 592 116
832 2 2 0 0 588 589 224
833 2 2 0 0 111 113 112
834 2 2 0 0 63 469 408
835 2 2 0 0 105 109 106
836 2 2 0 0 242 526 243
837 2 2 0 0 439 712 29
838 2 2 0 0 240 517 234
839 2 2 0 0 346 533 304
840 2 2 0 0 14 500 38
841 2 2 0 0 494 495 484
842 2 2 0 0 127 630 440
843 2 2 0 0 208 537 204
844 2 2 0 0 175 562 179
845 2 2 0 0 303 626 555
846 2 2 0 0 359 526 242
847 2 2 0 0 243 526 268
848 2 2 0 0 217 537 208
849 2 2 0 0 58 498 55
850 2 2 0 0 503 552 30
851 2 2 0 0 13 499 12
852 2 2 0 0 268 621 569
853 2 2 0 0 489 497 487
854 2 2 0 0 475 498 58
855 2 2 0 0 430 526 359
856 2 2 0 0 248 597 99
857 2 2 0 0 292 537 217
858 2 2 0 0 26 645 45
859 2 2 0 0 234 517 279
860 2 2 0 0 14 497 39
861 2 2 0 0 385 537 292
862 2 2 0 0 305 533 360
863 2 2 0 0 304 533 301
864 2 2 0 0 146 532 284
865 2 2 0 0 483 494 484
866 2 2 0 0 173 562 175
867 2 2 0 0 116 480 112
868 2 2 0 0 224 590 246
869 2 2 0 0 189 518 187
870 2 2 0 0 498 536 72
871 2 2 0 0 414 525 353
872 2 2 0 0 160 522 144
873 2 2 0 0 547 609 548
874 2 2 0 0 182 535 180
875 2 2 0 0 297 601 389
876 2 2 0 0 44 594 81
877 2 2 0 0 301 533 305
878 2 2 0 0 105 106 96
879 2 2 0 0 515 596 200
880 2 2 0 0 293 562 173
881 2 2 0 0 73 523 282
882 2 2 0 0 148 527 285
883 2 2 0 0 174 545 172
884 2 2 0 0 218 596 323
885 2 2 0 0 200 596 203
886 2 2 0 0 149 542 151
887 2 2 0 0 446 552 444
888 2 2 0 0 49 461 330
889 2 2 0 0 330 397 48
890 2 2 0 0 453 738 377
891 2 2 0 0 255 534 324
892 2 2 0 0 52 551 388
893 2 2 0 0 634 646 260
894 2 2 0 0 513 615 358
895 2 2 0 0 438 525 414
896 2 2 0 0 516 618 386
897 2 2 0 0 198 518 189
898 2 2 0 0 227 566 361
899 2 2 0 0 559 560 241
900 2 2 0 0 90 587 93
901 2 2 0 0 416 522 160
902 2 2 0 0 102 591 167
903 2 2 0 0 134 609 137
904 2 2 0 0 298 558 372
905 2 2 0 0 132 574 130
906 2 2 0 0 106 606 96
907 2 2 0 0 159 559 241
908 2 2 0 0 32 611 6
909 2 2 0 0 158 543 155
910 2 2 0 0 223 513 239
911 2 2 0 0 288 531 319
912 2 2 0 0 323 513 220
913 2 2 0 0 115 516 114
914 2 2 0 0 521 601 297
915 2 2 0 0 610 698 455
916 2 2 0 0 354 600 431
917 2 2 0 0 351 550 349
918 2 2 0 0 256 521 297
919 2 2 0 0 140 604 138
920 2 2 0 0 77 460 119
921 2 2 0 0 17 503 16
922 2 2 0 0 9 502 10
923 2 2 0 0 104 587 331
924 2 2 0 0 152 528 150
925 2 2 0 0 315 541 378
926 2 2 0 0 170 548 164
927 2 2 0 0 590 659 420
928 2 2 0 0 11 624 28
929 2 2 0 0 199 549 202
930 2 2 0 0 502 624 10
931 2 2 0 0 453 600 354
932 2 2 0 0 42 43 41
933 2 2 0 0 38 499 13
934 2 2 0 0 285 527 382
935 2 2 0 0 190 514 192
936 2 2 0 0 157 529 528
937 2 2 0 0 231 643 549
938 2 2 0 0 331 587 459
939 2 2 0 0 451 701 232
940 2 2 0 0 99 597 100
941 2 2 0 0 361 568 214
942 2 2 0 0 372 740 544
943 2 2 0 0 221 545 174
944 2 2 0 0 138 604 238
945 2 2 0 0 340 572 275
946 2 2 0 0 338 563 274
947 2 2 0 0 524 542 287
948 2 2 0 0 265 595 312
949 2 2 0 0 111 511 113
950 2 2 0 0 580 658 588
951 2 2 0 0 580 588 163
952 2 2 0 0 237 576 277
953 2 2 0 0 444 503 36
954 2 2 0 0 131 583 580
955 2 2 0 0 505 571 329
956 2 2 0 0 203 596 218
957 2 2 0 0 584 634 260
958 2 2 0 0 261 584 260
959 2 2 0 0 369 647 365
960 2 2 0 0 251 586 215
961 2 2 0 0 348 564 270
962 2 2 0 0 450 552 446
963 2 2 0 0 390 496 391
964 2 2 0 0 66 598 62
965 2 2 0 0 465 623 423
966 2 2 0 0 258 591 102
967 2 2 0 0 343 566 227
968 2 2 0 0 564 623 244
969 2 2 0 0 154 617 141
970 2 2 0 0 324 534 392
971 2 2 0 0 50 502 37
972 2 2 0 0 524 556 542
973 2 2 0 0 544 700 372
974 2 2 0 0 122 516 115
975 2 2 0 0 177 557 221
976 2 2 0 0 489 698 610
977 2 2 0 0 93 587 104
978 2 2 0 0 136 574 132
979 2 2 0 0 593 646 634
980 2 2 0 0 116 592 480
981 2 2 0 0 143 617 527
982 2 2 0 0 225 604 140
983 2 2 0 0 137 631 139
984 2 2 0 0 549 553 202
985 2 2 0 0 164 548 135
986 2 2 0 0 404 550 351
987 2 2 0 0 34 721 473
988 2 2 0 0 220 513 223
989 2 2 0 0 317 640 511
990 2 2 0 0 100 597 258
991 2 2 0 0 588 658 589
992 2 2 0 0 323 615 513
993 2 2 0 0 568 626 303
994 2 2 0 0 377 605 405
995 2 2 0 0 178 613 212
996 2 2 0 0 493 628 373
997 2 2 0 0 157 528 152
998 2 2 0 0 591 627 363
999 2 2 0 0 409 541 315
1000 2 2 0 0 183 614 197
1001 2 2 0 0 103 598 66
1002 2 2 0 0 188 619 194
1003 2 2 0 0 213 599 226
1004 2 2 0 0 306 599 402
1005 2 2 0 0 97 607 25
1006 2 2 0 0 194 514 190
1007 2 2 0 0 373 628 76
1008 2 2 0 0 78 628 253
1009 2 2 0 0 42 47 43
1010 2 2 0 0 39 612 15
1011 2 2 0 0 16 612 29
1012 2 2 0 0 437 610 455
1013 2 2 0 0 487 497 13
1014 2 2 0 0 440 630 441
1015 2 2 0 0 479 713 562
1016 2 2 0 0 196 620 193
1017 2 2 0 0 456 572 340
1018 2 2 0 0 120 511 281
1019 2 2 0 0 577 578 235
1020 2 2 0 0 335 582 399
1021 2 2 0 0 314 741 683
1022 2 2 0 0 520 613 535
1023 2 2 0 0 585 634 584
1024 2 2 0 0 423 564 348
1025 2 2 0 0 457 561 411
1026 2 2 0 0 6 611 5
1027 2 2 0 0 385 620 537
1028 2 2 0 0 228 637 229
1029 2 2 0 0 366 637 249
1030 2 2 0 0 161 570 158
1031 2 2 0 0 434 640 435
1032 2 2 0 0 193 636 191
1033 2 2 0 0 410 606 106
1034 2 2 0 0 37 502 9
1035 2 2 0 0 36 503 17
1036 2 2 0 0 141 617 143
1037 2 2 0 0 363 627 401
1038 2 2 0 0 322 590 420
1039 2 2 0 0 357 618 128
1040 2 2 0 0 430 621 526
1041 2 2 0 0 540 687 103
1042 2 2 0 0 280 577 121
1043 2 2 0 0 276 575 318
1044 2 2 0 0 362 578 577
1045 2 2 0 0 109 649 496
1046 2 2 0 0 246 590 322
1047 2 2 0 0 326 569 381
1048 2 2 0 0 569 621 381
1049 2 2 0 0 269 569 272
1050 2 2 0 0 139 631 154
1051 2 2 0 0 649 664 496
1052 2 2 0 0 537 620 204
1053 2 2 0 0 355 461 49
1054 2 2 0 0 663 685 493
1055 2 2 0 0 479 745 207
1056 2 2 0 0 343 662 565
1057 2 2 0 0 212 557 177
1058 2 2 0 0 45 645 46
1059 2 2 0 0 496 670 109
1060 2 2 0 0 366 634 585
1061 2 2 0 0 384 616 531
1062 2 2 0 0 535 613 180
1063 2 2 0 0 391 632 364
1064 2 2 0 0 308 581 336
1065 2 2 0 0 344 625 462
1066 2 2 0 0 563 625 344
1067 2 2 0 0 13 497 14
1068 2 2 0 0 480 632 117
1069 2 2 0 0 371 668 585
1070 2 2 0 0 333 649 278
1071 2 2 0 0 387 601 521
1072 2 2 0 0 47 49 48
1073 2 2 0 0 358 615 428
1074 2 2 0 0 113 511 120
1075 2 2 0 0 527 617 382
1076 2 2 0 0 105 649 109
1077 2 2 0 0 398 573 307
1078 2 2 0 0 368 676 369
1079 2 2 0 0 180 613 178
1080 2 2 0 0 153 556 176
1081 2 2 0 0 432 657 367
1082 2 2 0 0 458 718 582
1083 2 2 0 0 207 614 183
1084 2 2 0 0 407 611 456
1085 2 2 0 0 244 623 517
1086 2 2 0 0 20 639 27
1087 2 2 0 0 476 675 87
1088 2 2 0 0 319 616 393
1089 2 2 0 0 474 707 197
1090 2 2 0 0 226 599 306
1091 2 2 0 0 47 48 43
1092 2 2 0 0 186 619 188
1093 2 2 0 0 412 732 328
1094 2 2 0 0 316 671 541
1095 2 2 0 0 293 734 478
1096 2 2 0 0 492 685 598
1097 2 2 0 0 528 629 532
1098 2 2 0 0 514 635 515
1099 2 2 0 0 531 616 319
1100 2 2 0 0 8 656 7
1101 2 2 0 0 387 602 601
1102 2 2 0 0 76 628 78
1103 2 2 0 0 122 618 516
1104 2 2 0 0 651 717 394
1105 2 2 0 0 423 623 564
1106 2 2 0 0 546 669 547
1107 2 2 0 0 4 679 34
1108 2 2 0 0 542 556 151
1109 2 2 0 0 548 609 135
1110 2 2 0 0 204 620 196
1111 2 2 0 0 529 629 528
1112 2 2 0 0 482 719 230
1113 2 2 0 0 258 627 591
1114 2 2 0 0 336 582 335
1115 2 2 0 0 197 686 667
1116 2 2 0 0 583 658 580
1117 2 2 0 0 85 675 98
1118 2 2 0 0 59 728 379
1119 2 2 0 0 400 625 338
1120 2 2 0 0 394 717 605
1121 2 2 0 0 471 650 450
1122 2 2 0 0 596 635 323
1123 2 2 0 0 249 637 228
1124 2 2 0 0 515 635 596
1125 2 2 0 0 338 625 563
1126 2 2 0 0 28 633 488
1127 2 2 0 0 566 622 361
1128 2 2 0 0 229 570 161
1129 2 2 0 0 468 654 465
1130 2 2 0 0 118 710 462
1131 2 2 0 0 15 612 16
1132 2 2 0 0 589 659 590
1133 2 2 0 0 526 621 268
1134 2 2 0 0 365 647 597
1135 2 2 0 0 579 583 235
1136 2 2 0 0 22 507 21
1137 2 2 0 0 342 682 264
1138 2 2 0 0 441 648 346
1139 2 2 0 0 191 636 198
1140 2 2 0 0 578 653 579
1141 2 2 0 0 135 609 134
1142 2 2 0 0 128 618 122
1143 2 2 0 0 378 681 310
1144 2 2 0 0 230 690 211
1145 2 2 0 0 210 690 232
1146 2 2 0 0 549 643 553
1147 2 2 0 0 233 661 247
1148 2 2 0 0 10 624 11
1149 2 2 0 0 640 709 435
1150 2 2 0 0 449 719 482
1151 2 2 0 0 452 726 33
1152 2 2 0 0 362 577 280
1153 2 2 0 0 318 575 433
1154 2 2 0 0 492 687 396
1155 2 2 0 0 586 734 293
1156 2 2 0 0 357 655 618
1157 2 2 0 0 277 567 259
1158 2 2 0 0 522 641 225
1159 2 2 0 0 511 640 281
1160 2 2 0 0 247 661 483
1161 2 2 0 0 610 693 39
1162 2 2 0 0 272 569 326
1163 2 2 0 0 490 695 70
1164 2 2 0 0 553 643 599
1165 2 2 0 0 532 629 284
1166 2 2 0 0 29 712 17
1167 2 2 0 0 632 665 117
1168 2 2 0 0 618 655 386
1169 2 2 0 0 241 699 576
1170 2 2 0 0 457 728 561
1171 2 2 0 0 485 572 456
1172 2 2 0 0 430 667 621
1173 2 2 0 0 582 672 458
1174 2 2 0 0 395 687 540
1175 2 2 0 0 504 594 44
1176 2 2 0 0 181 713 207
1177 2 2 0 0 197 707 184
1178 2 2 0 0 524 657 556
1179 2 2 0 0 475 536 498
1180 2 2 0 0 394 738 320
1181 2 2 0 0 51 714 561
1182 2 2 0 0 151 556 153
1183 2 2 0 0 437 693 610
1184 2 2 0 0 361 626 568
1185 2 2 0 0 611 679 5
1186 2 2 0 0 231 680 643
1187 2 2 0 0 462 706 118
1188 2 2 0 0 390 670 496
1189 2 2 0 0 602 642 601
1190 2 2 0 0 49 330 48
1191 2 2 0 0 391 665 632
1192 2 2 0 0 508 737 375
1193 2 2 0 0 450 650 552
1194 2 2 0 0 368 732 476
1195 2 2 0 0 578 579 235
1196 2 2 0 0 402 581 308
1197 2 2 0 0 43 486 41
1198 2 2 0 0 562 713 179
1199 2 2 0 0 592 632 480
1200 2 2 0 0 416 641 522
1201 2 2 0 0 372 668 371
1202 2 2 0 0 452 712 439
1203 2 2 0 0 282 720 455
1204 2 2 0 0 556 657 176
1205 2 2 0 0 364 632 592
1206 2 2 0 0 403 726 452
1207 2 2 0 0 465 654 623
1208 2 2 0 0 278 649 105
1209 2 2 0 0 154 652 617
1210 2 2 0 0 383 688 603
1211 2 2 0 0 451 719 447
1212 2 2 0 0 317 709 640
1213 2 2 0 0 604 711 642
1214 2 2 0 0 382 652 383
1215 2 2 0 0 601 642 389
1216 2 2 0 0 284 671 316
1217 2 2 0 0 599 643 402
1218 2 2 0 0 388 633 624
1219 2 2 0 0 267 678 311
1220 2 2 0 0 337 681 530
1221 2 2 0 0 279 661 233
1222 2 2 0 0 605 738 394
1223 2 2 0 0 33 677 504
1224 2 2 0 0 386 655 387
1225 2 2 0 0 547 669 631
1226 2 2 0 0 562 731 479
1227 2 2 0 0 360 648 595
1228 2 2 0 0 432 692 657
1229 2 2 0 0 367 657 524
1230 2 2 0 0 633 695 488
1231 2 2 0 0 415 473 341
1232 2 2 0 0 644 672 336
1233 2 2 0 0 551 633 388
1234 2 2 0 0 533 648 360
1235 2 2 0 0 407 679 611
1236 2 2 0 0 323 635 615
1237 2 2 0 0 530 681 529
1238 2 2 0 0 393 651 394
1239 2 2 0 0 387 655 602
1240 2 2 0 0 238 703 574
1241 2 2 0 0 594 677 505
1242 2 2 0 0 559 692 560
1243 2 2 0 0 621 667 381
1244 2 2 0 0 405 674 376
1245 2 2 0 0 325 732 368
1246 2 2 0 0 623 654 517
1247 2 2 0 0 581 644 336
1248 2 2 0 0 346 648 533
1249 2 2 0 0 517 654 279
1250 2 2 0 0 477 705 481
1251 2 2 0 0 481 705 355
1252 2 2 0 0 561 728 57
1253 2 2 0 0 379 705 477
1254 2 2 0 0 617 652 382
1255 2 2 0 0 30 650 500
1256 2 2 0 0 376 674 385
1257 2 2 0 0 518 715 519
1258 2 2 0 0 474 667 430
1259 2 2 0 0 478 734 294
1260 2 2 0 0 624 633 28
1261 2 2 0 0 186 707 619
1262 2 2 0 0 64 663 475
1263 2 2 0 0 597 647 258
1264 2 2 0 0 377 738 605
1265 2 2 0 0 31 735 467
1266 2 2 0 0 27 718 458
1267 2 2 0 0 419 673 68
1268 2 2 0 0 616 722 393
1269 2 2 0 0 24 723 419
1270 2 2 0 0 397 638 48
1271 2 2 0 0 404 730 460
1272 2 2 0 0 91 676 472
1273 2 2 0 0 622 626 361
1274 2 2 0 0 7 656 32
1275 2 2 0 0 576 697 277
1276 2 2 0 0 471 691 650
1277 2 2 0 0 536 663 373
1278 2 2 0 0 484 691 471
1279 2 2 0 0 552 650 30
1280 2 2 0 0 311 678 600
1281 2 2 0 0 486 729 5
1282 2 2 0 0 418 673 666
1283 2 2 0 0 232 680 231
1284 2 2 0 0 5 679 4
1285 2 2 0 0 117 665 539
1286 2 2 0 0 384 702 616
1287 2 2 0 0 557 702 221
1288 2 2 0 0 87 675 85
1289 2 2 0 0 225 711 604
1290 2 2 0 0 505 677 571
1291 2 2 0 0 483 661 494
1292 2 2 0 0 263 565 375
1293 2 2 0 0 504 677 594
1294 2 2 0 0 582 718 399
1295 2 2 0 0 645 714 46
1296 2 2 0 0 534 708 392
1297 2 2 0 0 643 680 402
1298 2 2 0 0 18 712 452
1299 2 2 0 0 392 670 390
1300 2 2 0 0 221 702 603
1301 2 2 0 0 496 664 391
1302 2 2 0 0 606 710 118
1303 2 2 0 0 655 703 602
1304 2 2 0 0 608 676 91
1305 2 2 0 0 194 684 514
1306 2 2 0 0 541 671 378
1307 2 2 0 0 154 669 652
1308 2 2 0 0 399 718 639
1309 2 2 0 0 405 715 674
1310 2 2 0 0 33 726 677
1311 2 2 0 0 629 671 284
1312 2 2 0 0 468 735 495
1313 2 2 0 0 469 704 408
1314 2 2 0 0 427 745 479
1315 2 2 0 0 294 734 251
1316 2 2 0 0 461 705 379
1317 2 2 0 0 385 674 636
1318 2 2 0 0 657 692 176
1319 2 2 0 0 561 714 411
1320 2 2 0 0 631 669 154
1321 2 2 0 0 264 682 265
1322 2 2 0 0 43 638 486
1323 2 2 0 0 48 638 43
1324 2 2 0 0 194 744 684
1325 2 2 0 0 381 686 380
1326 2 2 0 0 658 716 589
1327 2 2 0 0 263 567 565
1328 2 2 0 0 310 681 337
1329 2 2 0 0 493 685 492
1330 2 2 0 0 64 685 663
1331 2 2 0 0 309 678 267
1332 2 2 0 0 600 678 431
1333 2 2 0 0 538 694 333
1334 2 2 0 0 598 685 64
1335 2 2 0 0 551 695 633
1336 2 2 0 0 560 699 241
1337 2 2 0 0 211 690 210
1338 2 2 0 0 2 723 3
1339 2 2 0 0 630 708 441
1340 2 2 0 0 467 735 468
1341 2 2 0 0 396 687 395
1342 2 2 0 0 35 507 22
1343 2 2 0 0 259 567 263
1344 2 2 0 0 417 673 418
1345 2 2 0 0 614 686 197
1346 2 2 0 0 392 708 630
1347 2 2 0 0 5 729 6
1348 2 2 0 0 279 725 661
1349 2 2 0 0 6 729 26
1350 2 2 0 0 357 703 655
1351 2 2 0 0 514 684 635
1352 2 2 0 0 540 733 538
1353 2 2 0 0 374 741 593
1354 2 2 0 0 176 692 559
1355 2 2 0 0 650 691 500
1356 2 2 0 0 484 736 691
1357 2 2 0 0 83 733 540
1358 2 2 0 0 558 740 372
1359 2 2 0 0 626 697 555
1360 2 2 0 0 436 693 437
1361 2 2 0 0 375 737 374
1362 2 2 0 0 475 663 536
1363 2 2 0 0 636 674 198
1364 2 2 0 0 674 715 198
1365 2 2 0 0 70 695 551
1366 2 2 0 0 406 721 407
1367 2 2 0 0 677 726 571
1368 2 2 0 0 258 647 627
1369 2 2 0 0 448 701 451
1370 2 2 0 0 458 672 506
1371 2 2 0 0 229 700 570
1372 2 2 0 0 684 744 428
1373 2 2 0 0 570 700 544
1374 2 2 0 0 678 742 431
1375 2 2 0 0 646 741 314
1376 2 2 0 0 603 702 384
1377 2 2 0 0 478 731 293
1378 2 2 0 0 309 742 678
1379 2 2 0 0 380 686 614
1380 2 2 0 0 494 725 468
1381 2 2 0 0 500 691 38
1382 2 2 0 0 635 684 615
1383 2 2 0 0 661 725 494
1384 2 2 0 0 679 721 34
1385 2 2 0 0 509 510 35
1386 2 2 0 0 46 714 51
1387 2 2 0 0 615 684 428
1388 2 2 0 0 432 742 689
1389 2 2 0 0 179 713 181
1390 2 2 0 0 26 739 645
1391 2 2 0 0 35 510 507
1392 2 2 0 0 574 703 357
1393 2 2 0 0 184 707 186
1394 2 2 0 0 39 693 612
1395 2 2 0 0 665 694 539
1396 2 2 0 0 312 708 534
1397 2 2 0 0 554 689 309
1398 2 2 0 0 1 737 508
1399 2 2 0 0 519 717 520
1400 2 2 0 0 277 697 622
1401 2 2 0 0 389 711 641
1402 2 2 0 0 495 736 484
1403 2 2 0 0 17 712 18
1404 2 2 0 0 212 722 557
1405 2 2 0 0 455 720 438
1406 2 2 0 0 622 697 626
1407 2 2 0 0 664 694 665
1408 2 2 0 0 447 719 449
1409 2 2 0 0 669 688 652
1410 2 2 0 0 612 693 436
1411 2 2 0 0 619 744 194
1412 2 2 0 0 57 728 59
1413 2 2 0 0 579 658 583
1414 2 2 0 0 438 727 525
1415 2 2 0 0 539 733 83
1416 2 2 0 0 479 731 478
1417 2 2 0 0 691 736 38
1418 2 2 0 0 401 724 400
1419 2 2 0 0 420 660 2
1420 2 2 0 0 328 732 325
1421 2 2 0 0 320 738 453
1422 2 2 0 0 428 744 429
1423 2 2 0 0 431 742 432
1424 2 2 0 0 425 745 427
1425 2 2 0 0 408 743 434
1426 2 2 0 0 571 726 403
1427 2 2 0 0 119 727 523
1428 2 2 0 0 625 706 462
1429 2 2 0 0 525 730 404
1430 2 2 0 0 499 736 495
1431 2 2 0 0 468 725 654
1432 2 2 0 0 336 672 582
1433 2 2 0 0 198 715 518
1434 2 2 0 0 400 724 706
1435 2 2 0 0 402 680 581
1436 2 2 0 0 589 716 659
1437 2 2 0 0 727 730 525
1438 2 2 0 0 664 665 391
1439 2 2 0 0 337 740 558
1440 2 2 0 0 293 731 562
1441 2 2 0 0 523 720 282
1442 2 2 0 0 460 730 119
1443 2 2 0 0 641 711 225
1444 2 2 0 0 429 744 619
1445 2 2 0 0 119 730 727
1446 2 2 0 0 651 722 212
1447 2 2 0 0 38 736 499
1448 2 2 0 0 667 686 381
1449 2 2 0 0 652 688 383
1450 2 2 0 0 410 710 606
1451 2 2 0 0 644 701 448
1452 2 2 0 0 666 673 419
1453 2 2 0 0 704 743 408
1454 2 2 0 0 251 734 586
1455 2 2 0 0 400 706 625
1456 2 2 0 0 546 688 669
1457 2 2 0 0 668 700 229
1458 2 2 0 0 538 733 694
1459 2 2 0 0 333 694 664
1460 2 2 0 0 565 662 375
1461 2 2 0 0 720 727 438
1462 2 2 0 0 372 700 668
1463 2 2 0 0 579 716 658
1464 2 2 0 0 642 711 389
1465 2 2 0 0 355 705 461
1466 2 2 0 0 407 721 679
1467 2 2 0 0 523 727 720
1468 2 2 0 0 654 725 279
1469 2 2 0 0 639 718 27
1470 2 2 0 0 694 733 539
1471 2 2 0 0 393 722 651
1472 2 2 0 0 645 739 397
1473 2 2 0 0 683 741 374
1474 2 2 0 0 397 739 638
1475 2 2 0 0 653 716 579
1476 2 2 0 0 666 723 660
1477 2 2 0 0 419 723 666
1478 2 2 0 0 374 737 683
1479 2 2 0 0 593 741 646
1480 2 2 0 0 683 737 1
1481 2 2 0 0 689 742 309
1482 2 2 0 0 660 723 2
1483 2 2 0 0 23 25 1
1484 2 2 0 0 25 607 1
1485 2 2 0 0 3 34 2
1486 2 2 0 0 34 415 2
$EndElements
