$MeshFormat
2.2 0 8
$EndMeshFormat
$Nodes
745
1 4.0687232933285635e-05 2.2634923091533327e-05 9.9568333730595641e-04
2 3.6009412370868674e-05 -4.5445623037612363e-05 -9.9386748487766000e-04
3 1.3089651650382092e-04 1.3122259161057730e-05 -9.8652719028377903e-04
4 2.3206027414713986e-04 2.5146378455713785e-05 -9.6873574862924364e-04
5 3.7490184551717946e-04 2.7280723402244377e-05 -9.2433209869757880e-04
6 5.2146298599895088e-04 -3.6203252836476763e-06 -8.5154517210971298e-04
7 6.2206590552972378e-04 3.6162134891009383e-06 -7.8230024598622953e-04
8 7.2382230784270017e-04 3.8307057086189358e-06 -6.9080026878982263e-04
9 8.1882501137289982e-04 -2.2042141928990783e-06 -5.7636461441786272e-04
10 8.9722006948488649e-04 -1.5785632391615929e-06 -4.4524890427221736e-04
11 9.6005528127479341e-04 4.7987058099608465e-07 -2.8489459644978182e-04
12 9.9294450500729894e-04 4.8817054129354496e-06 -1.2758640477012067e-04
13 1.0009108928077245e-03 -1.9680541208639824e-06 1.0267031319388819e-05
14 9.8900016634823930e-04 5.2671545323143123e-07 1.5469555417483116e-04
15 9.5452265774322986e-04 4.4595326115734354e-06 3.0293570067742331e-04
16 8.9569525770239486e-04 9.1419798144238550e-06 4.4863246054379280e-04
17 8.2298403633827518e-04 -2.2301793480552438e-06 5.7065599004273073e-04
18 7.3171264838219150e-04 -7.3492956885439270e-06 6.8268653502453450e-04
19 6.2704419853857154e-04 -4.2580820954406239e-06 7.7882792668025722e-04
20 4.9835267157111033e-04 -4.0200670566347713e-06 8.6541553844878233e-04
21 3.6857191550783810e-04 4.8473393151928607e-06 9.2703576924324559e-04
22 2.4794859110066874e-04 6.5887270416418285e-06 9.6552468611927472e-04
23 1.4252354485535539e-04 -1.9036842131939929e-05 9.8550357793362217e-04
24 1.5866589194249136e-04 1.1615432918095238e-04 -9.7676312965638530e-04
25 1.6934446056143468e-04 9.6585627423810834e-05 9.7799474355994499e-04
26 5.7491973383679484e-04 1.1461984121725966e-04 -8.0856837588838136e-04
27 5.6013011526240524e-04 -1.1380475872405802e-04 8.1971560893816112e-04
28 9.7115370917777943e-04 1.3586806771137888e-04 -2.0220393389493613e-04
29 8.4640709207899100e-04 1.6186899133443684e-04 5.1225386990057839e-04
30 9.2214167172100794e-04 -1.2353539711720035e-04 3.7114752678518416e-04
31 9.7285231502434544e-04 -1.1808327126645742e-04 -2.0447254649981204e-04
32 5.5710325615155828e-04 -1.0810735623801719e-04 -8.2243574153427099e-04
33 5.5243129698241710e-04 1.0115909229016231e-04 8.2620744133606971e-04
34 1.6880161199576423e-04 -8.7977776986974734e-05 -9.7838920795103842e-04
35 1.9139714115370073e-04 -1.0764408621683085e-04 9.7217564006268084e-04
36 7.7481754733949720e-04 -1.2463467502398090e-04 6.2187767670740957e-04
37 7.7139137373135095e-04 1.2691624688998624e-04 -6.2506414456493873e-04
38 9.9130046162290491e-04 -1.1135980435995877e-04 8.0764085320990888e-05
39 9.6815700676734415e-04 1.2379046454084948e-04 2.2257342475325866e-04
40 8.5263983614834076e-04 -1.3189284589450965e-04 -5.0879904058840329e-04
41 2.8149776986171303e-04 1.1777678112869143e-04 -9.4874627713947607e-04
42 2.2193327168429193e-04 2.3034949082557967e-04 -9.4368246895760533e-04
43 3.3180936772697145e-04 2.4089409746993798e-04 -9.0858278147415200e-04
44 3.0157288550247636e-04 1.0733362156733143e-04 9.4457195860138919e-04
45 6.6485521097971797e-04 1.2383244380639269e-04 -7.3650890937228014e-04
46 6.9957584630314553e-04 2.4577876012272349e-04 -6.7155200844093053e-04
47 2.7116127332583155e-04 3.3633452372291582e-04 -8.9860621176611748e-04
48 3.7910435309730775e-04 3.3391914061890493e-04 -8.6029905574089738e-04
49 3.1806150411966915e-04 4.3138400677717007e-04 -8.4164045391042742e-04
50 7.9321409895453758e-04 2.5367996233841445e-04 -5.5563606634245831e-04
51 7.2090528546829168e-04 3.7240711992203134e-04 -5.8594879654515946e-04
52 8.0585304913387908e-04 3.6954768011925368e-04 -4.6503776924418708e-04
53 7.2110153985800003e-04 4.8235812443918493e-04 -4.9929681188765648e-04
54 7.9632179003858220e-04 4.8073917027534070e-04 -3.6962005242405026e-04
55 7.0542170470345284e-04 5.8732860602395934e-04 -3.9878917275049526e-04
56 7.7070999501902449e-04 5.8027943832650124e-04 -2.6583513653734943e-04
57 6.3134551610925153e-04 5.8344606313221424e-04 -5.1192882042695189e-04
58 5.9913432028297687e-04 6.8367759871282741e-04 -4.1802721154999086e-04
59 5.1019377993524078e-04 6.7282293650313036e-04 -5.3635313115596819e-04
60 4.7332935903096379e-04 7.6932929617103921e-04 -4.2995675651289514e-04
61 3.8054847553943924e-04 7.4640183071669156e-04 -5.4670446842803688e-04
62 3.5066810470521081e-04 8.3850388467999559e-04 -4.1790896997216144e-04
63 2.0391671474943339e-04 4.4448288365594248e-04 -8.6922904944179518e-04
64 4.3803040042390438e-04 8.4405641575600193e-04 -3.0915564439509081e-04
65 2.4618926680846563e-04 8.1356006348392771e-04 -5.2759955583717329e-04
66 2.2435178547142417e-04 8.9150938464706763e-04 -3.9435854799309766e-04
67 1.1539349923254826e-04 8.6035657773730044e-04 -4.9734207191716603e-04
68 1.0281413359324294e-04 2.3433464915240758e-04 -9.6245630461614024e-04
69 1.3340111407549117e-04 7.6468527729243964e-04 -6.3168372720700996e-04
70 8.4772394783747115e-04 4.7336209973584118e-04 -2.4184973994312149e-04
71 8.2225196719207607e-04 5.5709456300133365e-04 -1.2159795671608268e-04
72 7.3192458137347140e-04 6.6515890033809369e-04 -1.5043439876916942e-04
73 7.7168164019315313e-04 6.3642845897156548e-04 -1.6051784056199847e-05
74 6.7386400008131542e-04 7.3831994670821744e-04 -3.3623515257825535e-05
75 7.0081731293048573e-04 7.0756024731277387e-04 9.3143776703876602e-05
76 5.9228043308837727e-04 8.0181264182957782e-04 8.1291419137635682e-05
77 6.1632841879579500e-04 7.5976205857850878e-04 2.0942987716939660e-04
78 5.0567802714564583e-04 8.4209196498952698e-04 1.8945692604347883e-04
79 9.4796721199597782e-05 9.2984279306152341e-04 -3.5632293805272497e-04
80 -1.9084811105371245e-05 8.9454993802687603e-04 -4.4692027228833669e-04
81 2.3637705551547445e-04 2.1904216287418568e-04 9.4376744852460882e-04
82 5.2483207498200686e-04 7.8665897010370914e-04 3.2790110437334722e-04
83 -3.9080785463337491e-05 9.4828508902222068e-04 -3.1434974667343175e-04
84 4.0579288734333372e-04 8.6826359221423965e-04 2.8731301995154501e-04
85 4.1692832975517797e-04 8.0817414533745403e-04 4.1762629693275219e-04
86 2.9822229258426124e-04 8.7427052006098724e-04 3.8463691747012840e-04
87 3.0839971257653391e-04 8.0247982745185458e-04 5.1157574935414992e-04
88 1.8297899869587484e-04 8.5521144238592394e-04 4.8606209617280035e-04
89 1.6487444505071844e-04 9.2310981043269640e-04 3.4872079236174388e-04
90 5.4194802262372545e-05 8.9167054119305999e-04 4.5041460068057305e-04
91 7.3927762703923617e-05 8.1439688453527294e-04 5.7602522382689493e-04
92 -4.7545717374104550e-05 8.4782431062035816e-04 5.2833423766717976e-04
93 -7.8294187731831145e-05 9.1216570961680232e-04 4.0293326068174275e-04
94 -1.8623340412909356e-04 8.5818282096647924e-04 4.7858109382586467e-04
95 -1.4643123772443910e-04 7.9387666016268287e-04 5.8866427544521766e-04
96 -2.1656295246697660e-04 9.1110286905260289e-04 3.5102234842315056e-04
97 1.0716510326554922e-04 2.1973784509306030e-04 9.6622578691598379e-04
98 5.3518467147935537e-04 6.9577842785391037e-04 4.8321149860661985e-04
99 1.6964101441997308e-04 3.2440703973882646e-04 9.2769139226540247e-04
100 4.4593169681210981e-05 3.3006329906369879e-04 9.3971297593481028e-04
101 -1.6681713145066842e-05 2.1791841353886745e-04 9.7221197716335713e-04
102 -8.4252871329431220e-05 3.1784537564654461e-04 9.4112840747380747e-04
103 1.9423058190526105e-04 9.4602698620784649e-04 -2.5946809189646809e-04
104 -1.0886958297731526e-04 9.5880577785686168e-04 2.6245509002968529e-04
105 -2.4260121411424690e-04 9.4650682528680250e-04 2.1183615403099428e-04
106 -3.4970590179143272e-04 8.8902208998528881e-04 2.9544493428493638e-04
107 -1.5092116127731273e-04 9.0858299211361826e-04 -3.8947207530035832e-04
108 -1.3493660074862519e-04 8.3922236831588629e-04 -5.2685251722015512e-04
109 -3.7322923744684885e-04 9.1415625091975487e-04 1.5581916781920918e-04
110 -2.6566928389418253e-04 8.4370925042158516e-04 -4.6668345473642079e-04
111 -2.3665745942353183e-04 7.6745265043410692e-04 -5.9564930721397709e-04
112 -3.7294128371989605e-04 7.5731411834586970e-04 -5.3634048061022800e-04
113 -3.3430761097702824e-04 6.6886983138726187e-04 -6.6344487310039842e-04
114 -4.6248312286045908e-04 6.6116077462029341e-04 -5.9089553750771989e-04
115 -4.1322152608229472e-04 5.6100276004144277e-04 -7.1644362732362489e-04
116 -4.9462924669379030e-04 7.4394459667443584e-04 -4.4983591920200254e-04
117 -2.8228672590252258e-04 9.0218076562539114e-04 -3.2580809291666749e-04
118 -2.8236448711212170e-04 7.7581830105042434e-04 5.6530996495598475e-04
119 7.1016752481915032e-04 6.6984766509855544e-04 2.1768259038504130e-04
120 -2.8411049636926770e-04 5.6799520496671782e-04 -7.7092706984115307e-04
121 -3.6156398390185904e-04 4.5287253410501439e-04 -8.1302907026771759e-04
122 -4.8741705225307348e-04 4.6239226351160983e-04 -7.3951396059512137e-04
123 -4.2606509050091817e-04 3.5557267545009241e-04 -8.2984826671374961e-04
124 -5.8477185793915547e-04 6.4248764332966066e-04 -4.9559145314053798e-04
125 -6.0842801546841479e-04 7.0624171210313311e-04 -3.6239639937937741e-04
126 -6.9565704294614775e-04 5.9434677456741340e-04 -4.0412120169341741e-04
127 -4.7078806563902799e-04 8.5017853890544202e-04 2.3513326633690064e-04
128 -5.6228886843758474e-04 3.5120122976763085e-04 -7.4738102113660297e-04
129 -5.0042258639254177e-04 2.4373353561781344e-04 -8.2866353380655570e-04
130 -6.2710170482354818e-04 2.3096985053908895e-04 -7.4280139907668193e-04
131 -5.6278943406426181e-04 1.2088263765356204e-04 -8.1589125516201599e-04
132 -6.8231128620820189e-04 9.7022094965806453e-05 -7.2395584835964781e-04
133 -6.0097547298480357e-04 -8.0264617003496956e-06 -7.9783943864713224e-04
134 -7.1301517533060193e-04 -3.5189879085929035e-05 -7.0014389618003054e-04
135 -6.2500899604484288e-04 -1.4399240700610158e-04 -7.6640772776167534e-04
136 -7.8671108542549160e-04 7.8020527145805267e-05 -6.1302712821289238e-04
137 -8.1220055448787706e-04 -6.1593065756592328e-05 -5.8105023683789462e-04
138 -8.7241216728562799e-04 4.9100855381107445e-05 -4.8789074593240275e-04
139 -8.9000860344622080e-04 -8.5916401875186160e-05 -4.4940202239289874e-04
140 -9.3696231528071154e-04 1.0993161810567481e-05 -3.5080413824927116e-04
141 -9.4386060248672840e-04 -1.2059454993428163e-04 -3.0948113223774773e-04
142 -9.7664479064836539e-04 -1.3043657534395129e-05 -2.1592582891478667e-04
143 -9.7446438719712676e-04 -1.4605586292675679e-04 -1.7257321301719490e-04
144 -9.9617422497214362e-04 -3.4000207066035820e-05 -8.2369125708200465e-05
145 -9.8638389600813571e-04 -1.6159257521195712e-04 -3.7663197191291231e-05
146 -9.9744977407944450e-04 -4.8192585234905407e-05 5.5540944541985960e-05
147 -9.7912986819748268e-04 -1.7626033549030245e-04 1.0489068810390013e-04
148 -9.5772694296144775e-04 -2.8871827060837396e-04 1.0581373294930151e-05
149 -9.3967722947443705e-04 -3.0797878283132714e-04 1.5278393931728552e-04
150 -9.4877794411709693e-04 -1.9239261078869506e-04 2.5367498423667709e-04
151 -8.9938043463337310e-04 -3.2357491973185342e-04 2.9728984802414120e-04
152 -8.9762998148606023e-04 -2.1037426173973765e-04 3.9016726458723875e-04
153 -8.3869960548418074e-04 -3.3214257713346180e-04 4.3437337544037556e-04
154 -8.9199532575305921e-04 -2.1676712379066682e-04 -3.9837952534271126e-04
155 -8.2862427447187928e-04 -2.1434580479143554e-04 5.1932222367310273e-04
156 -7.5988273657725787e-04 -3.3077652769656485e-04 5.6148223294519620e-04
157 -8.8120108284516906e-04 -8.0500300051522669e-05 4.6826424574667342e-04
158 -7.3626497475169975e-04 -2.1155668049459717e-04 6.4379385244093591e-04
159 -6.5749101909280596e-04 -3.3385711237362870e-04 6.7645524686345499e-04
160 -9.9668900548737752e-04 8.1081823011973302e-05 4.3307622336527869e-06
161 -6.2776063890046692e-04 -2.0851982212485696e-04 7.4979813410550858e-04
162 -5.3607839766915840e-04 -3.2230734287429648e-04 7.8019751168289901e-04
163 -5.0535859266024870e-04 -1.1112072912439809e-04 -8.5371435108186160e-04
164 -5.3400200528258015e-04 -2.4385593761863647e-04 -8.0831781298755241e-04
165 -7.1110390234398917e-04 6.4647757172311710e-04 -2.7658902171617009e-04
166 -1.5122874627388692e-04 2.0374444290121891e-04 9.6382895411269620e-04
167 -2.1401762969925736e-04 3.1089587775141273e-04 9.2302361947427421e-04
168 -4.1625659557015715e-04 -2.0795442070811111e-04 -8.8285190991833050e-04
169 -4.3736910746389906e-04 -3.3337627285764612e-04 -8.3377047733224270e-04
170 -5.5030589935508190e-04 -3.7633603701627585e-04 -7.4504044781703626e-04
171 -4.4461882635810020e-04 -4.6890520825800951e-04 -7.6293598529024323e-04
172 -5.5774029383522973e-04 -5.0579819138438405e-04 -6.5901043028526241e-04
173 -4.4250003789184246e-04 -5.9824687556984284e-04 -6.6908236935877316e-04
174 -5.4716388269220268e-04 -6.2258487028478882e-04 -5.6131121342052831e-04
175 -4.3196747316054829e-04 -7.1173821662717069e-04 -5.5612657398581623e-04
176 -7.6983525569670184e-04 -4.3423360602483547e-04 4.7003675518302479e-04
177 -5.3227067899988805e-04 -7.1873446837876606e-04 -4.4994633672464698e-04
178 -4.0230942541619966e-04 -8.0525723203405330e-04 -4.3861137994993067e-04
179 -3.0844447713703323e-04 -7.8087263336056609e-04 -5.4527064218099733e-04
180 -2.7248020825938117e-04 -8.6571912439016975e-04 -4.2326835401244043e-04
181 -1.7057759069220491e-04 -8.3304325213336052e-04 -5.2866589465516700e-04
182 -1.3607261598898700e-04 -9.0714177562546336e-04 -4.0205529176567142e-04
183 -3.7120127372742470e-05 -8.5787917821297137e-04 -5.1573653480199103e-04
184 -3.1897782476933667e-06 -9.2598887774681413e-04 -3.8156113163076769e-04
185 -9.4266863366882972e-05 -9.5800466673137512e-04 -2.7578657329844315e-04
186 4.3968348154552513e-05 -9.6884358030024313e-04 -2.4893007126928883e-04
187 -5.3816913482333485e-05 -9.8850067486046353e-04 -1.4869953636858501e-04
188 8.9448234972522493e-05 -9.8930184797232814e-04 -1.2495722469275952e-04
189 -8.2409773546278312e-06 -1.0006597192996930e-03 -1.9979479654490808e-05
190 1.2293917888523144e-04 -9.9332556875566516e-04 1.1220402043102328e-05
191 3.5760269678164446e-05 -9.9377419195474008e-04 1.1474403005845476e-04
192 1.6511560965507628e-04 -9.7643311790050942e-04 1.4732521255921441e-04
193 7.4255979839981924e-05 -9.6731155710342881e-04 2.4823932605870584e-04
194 2.0912186253814992e-04 -9.7501228267297762e-04 -8.6471255094493156e-05
195 2.0251392646772844e-04 -9.4074424001990844e-04 2.7768256986275737e-04
196 1.0335643617503572e-04 -9.2126953986851605e-04 3.7956609317555046e-04
197 1.1228944981203954e-04 -8.7131065842043691e-04 -4.8252385076533844e-04
198 -9.4375698969597076e-05 -9.9253267700051594e-04 8.5561281550240061e-05
199 2.3475867734152551e-04 -8.8620371289160134e-04 4.0387707863492493e-04
200 3.3013268288053545e-04 -8.9737958518885475e-04 2.9834579955029901e-04
201 3.5776881247319279e-04 -8.3362680545092933e-04 4.2501603654219062e-04
202 1.3289688038029462e-04 -8.5416141122741040e-04 5.0627933493541469e-04
203 4.5395990850607694e-04 -8.3357309488086586e-04 3.2007148088085809e-04
204 -1.7055928287771371e-06 -8.8182697004305993e-04 4.7541463360209317e-04
205 3.2665570428019605e-05 -7.9858623392005314e-04 6.0352960580239198e-04
206 -9.0498115406591174e-04 -4.2251367386978334e-04 5.8931564906455654e-05
207 -7.6169319671215682e-05 -7.6764629359753504e-04 -6.3859260020531351e-04
208 -1.0856384913635797e-04 -8.2026437835774392e-04 5.6450820616665766e-04
209 -7.0378766051574696e-05 -7.2730535348012899e-04 6.8429584500829198e-04
210 4.7326923503918908e-04 -7.6160604141963396e-04 4.4659976585329506e-04
211 5.6224304814526276e-04 -7.5951421348438586e-04 3.3185597674522071e-04
212 -4.9391774685041069e-04 -8.0310613333007164e-04 -3.3634663151291966e-04
213 6.4208998106961697e-05 -6.9888869313805319e-04 7.1349112770973722e-04
214 -3.3503239659103944e-05 -6.2010798721487436e-04 7.8399531130294480e-04
215 -3.1186145532149652e-04 -3.0271354700257510e-04 -8.9818922394765998e-04
216 -2.0467356901158280e-04 -7.4446944030635831e-04 6.3756359877743232e-04
217 -2.4101886575414477e-04 -8.2654938196493667e-04 5.1190425501970629e-04
218 5.4390544957666248e-04 -8.1404150994309702e-04 2.1103361501738488e-04
219 6.5943377558581894e-04 -7.1837999187651679e-04 2.2903282087814917e-04
220 6.2452451310225556e-04 -7.7670738389142100e-04 9.7039864622358116e-05
221 -6.3407983745434248e-04 -6.3295564162121236e-04 -4.4637137764792653e-04
222 7.3278768952637376e-04 -6.7280759652439182e-04 1.1565951233404677e-04
223 6.8645136813153093e-04 -7.2853278434687168e-04 -2.2404589146220854e-05
224 -2.9957186324953310e-04 -1.7376917123320258e-04 -9.3499238744408988e-04
225 -9.5918598697640489e-04 1.0946010238400400e-04 -2.6109306177340492e-04
226 9.4488078591371238e-05 -5.8702854012774339e-04 8.0393519808728505e-04
227 -1.2964464176502300e-06 -5.0400098501281220e-04 8.6268443317097908e-04
228 -5.0865712862790372e-04 -1.8390915288819015e-04 8.3993495476150605e-04
229 -5.8936893860873181e-04 -8.1026967468160617e-05 8.0254053165582095e-04
230 6.6167265711925363e-04 -6.6183917295692775e-04 3.5710207330592777e-04
231 3.7774564067516236e-04 -7.5325022759136081e-04 5.4131553342850363e-04
232 4.9972238862513161e-04 -6.6666512986213579e-04 5.5726594098872025e-04
233 7.8296159254485659e-04 -6.2379713739806942e-04 -5.1933063780140607e-06
234 7.3800961553607239e-04 -6.6245335751191517e-04 -1.3761452599069624e-04
235 -3.6305238719651551e-04 2.3521887711382979e-04 -8.9861055838602697e-04
236 3.0264055834366629e-04 3.2906292246297664e-04 8.9215447716646675e-04
237 -4.1465250417735091e-04 -2.8896842145979644e-04 8.6177962499938028e-04
238 -8.3769537173982226e-04 1.9400461799433882e-04 -5.1306153290008234e-04
239 6.3331161817244076e-04 -7.5957888010060547e-04 -1.5686743972647679e-04
240 6.7910454714645231e-04 -6.8334470045902857e-04 -2.7373570447388010e-04
241 -5.7202947404401156e-04 -4.3999203197215745e-04 6.9327880754080709e-04
242 5.7053806757212638e-04 -7.6872242582302918e-04 -2.9446013063877602e-04
243 6.0553827187663251e-04 -6.8759958375157377e-04 -4.0503517231701871e-04
244 7.0815083190643084e-04 -5.9164059296845011e-04 -3.8980242967851306e-04
245 6.2117264864019301e-04 -5.9277375537909727e-04 -5.1601674760791828e-04
246 -1.9767061567868246e-04 -2.4872687732968709e-04 -9.4507889636272007e-04
247 8.2014683154560332e-04 -5.6185136215915546e-04 1.1983333510694900e-04
248 2.3262984953837106e-04 4.3440528036271461e-04 8.6795137449996842e-04
249 -3.8504978581727469e-04 -1.4788897720707637e-04 9.0886095854241975e-04
250 3.5567341812126659e-04 4.4139938358344174e-04 8.2225083237166482e-04
251 -2.0764182226695255e-04 -3.7133536277914709e-04 -9.0254106236040382e-04
252 -8.2492225578576945e-05 -3.1655767668993924e-04 -9.4229170396113086e-04
253 3.8337968729438649e-04 9.1240672926129181e-04 1.4422053615612473e-04
254 -6.1892114370025973e-04 7.5149353563536581e-04 -2.2772949367549789e-04
255 -7.1458281299658071e-04 6.8389735425869534e-04 -1.4511958661068627e-04
256 -7.9663591900178870e-04 5.7547381429670901e-04 -1.8444362074793410e-04
257 -7.9328420029537024e-04 6.0625054256364963e-04 -4.9112510012233590e-05
258 -2.2273526678569225e-05 4.2659800407299588e-04 9.0130686257383066e-04
259 -2.9475442638627589e-04 -2.4452072965173440e-04 9.2154641520104811e-04
260 -2.7639802409117032e-04 1.9431438330630348e-04 9.3811711523866966e-04
261 -3.4531841137727274e-04 3.0445529696166958e-04 8.8527124421300396e-04
262 -2.5961848859455656e-04 -1.3327030339460317e-04 9.5367386014521681e-04
263 -1.7215189527389167e-04 -2.1549584015625290e-04 9.5847861310008103e-04
264 -8.6380380848009690e-04 4.9626665021128844e-04 -8.4527510977452881e-05
265 -8.4655523721905541e-04 5.2912772969972187e-04 5.3057050422001274e-05
266 -3.3763711643427867e-04 -7.4319430106944138e-04 5.8014565757109112e-04
267 -3.7007329072741350e-04 -8.1340018599676241e-04 4.5210474615955796e-04
268 5.1544198640623116e-04 -6.8220308590977293e-04 -5.2187107398573413e-04
269 5.2307830048309366e-04 -5.7431443561712292e-04 -6.3186860481838510e-04
270 6.1942104577595452e-04 -4.7880396799824767e-04 -6.2441619400253705e-04
271 5.0816064334793191e-04 -4.5674346227300293e-04 -7.3096087680542493e-04
272 4.0292268549497101e-04 -5.4429092585061884e-04 -7.3650472704806327e-04
273 -2.7928448784395130e-04 4.1266850149417067e-04 8.6462680599661750e-04
274 -4.1797099130372502e-04 4.0446236878809020e-04 8.1176052533018107e-04
275 3.7974658938315256e-04 -4.3409072641872388e-04 -8.1631493513296407e-04
276 2.7224877777999243e-04 -5.1164618300328910e-04 -8.1445421476543150e-04
277 -3.2657559137245519e-04 -3.6189845519002558e-04 8.7171091038073319e-04
278 -1.3460475882448768e-04 9.8273221175501136e-04 1.2410241864568248e-04
279 8.2161777509966280e-04 -5.5858805597934556e-04 -1.2125323729739897e-04
280 -2.2658305854305409e-04 4.5875148170212505e-04 -8.5665707195696180e-04
281 -1.4620059596464154e-04 5.6632608177703775e-04 -8.0914110306838378e-04
282 8.6071539538284199e-04 5.1132304557429818e-04 1.9864501958230571e-05
283 1.2412256548814346e-04 -4.6028274054135280e-04 8.7785576158897101e-04
284 -9.8762173770286423e-04 6.3377238720503394e-05 1.4328399581828077e-04
285 -9.1267121877234929e-04 -4.0270869423409875e-04 -7.5199076558142241e-05
286 -8.5155246438967677e-04 -5.2443046581465117e-04 -2.8303479440971472e-05
287 -8.3432325142051829e-04 -5.4203199530801092e-04 1.0636605603918122e-04
288 -7.7307534457833409e-04 -6.3476330777246376e-04 2.3516959553848217e-05
289 -7.5121079861760432e-04 -6.4161155582353514e-04 1.5952594706048146e-04
290 -6.7491501608644066e-04 -7.3379567059894994e-04 8.4715597776166462e-05
291 -1.9648044723418571e-04 -9.6766764736959388e-04 -1.6511738273245423e-04
292 -2.7579438730771443e-04 -8.8348792756724271e-04 3.8287225578521086e-04
293 -3.3303958881112462e-04 -5.4763615424793929e-04 -7.6762668460350744e-04
294 -9.1062071662327321e-05 -4.7140639183877183e-04 -8.7626927559553331e-04
295 -4.7711146132042973e-04 2.8471228807742976e-04 8.2984499196360104e-04
296 -5.4522806833139971e-04 3.9122383854354060e-04 7.4061415501167787e-04
297 -8.6470443533940460e-04 4.5542224591581086e-04 -2.1264912836291064e-04
298 -6.0865431440584004e-04 2.6441643296928755e-04 7.4750611993335166e-04
299 -6.6079894890251785e-04 3.7460826276264683e-04 6.5046263713223378e-04
300 -5.9419372210982606e-04 4.9259735810412838e-04 6.3594193796271661e-04
301 -7.0640063285851368e-04 4.6213023297260464e-04 5.3688961471035177e-04
302 -7.6463466712573002e-04 3.4011708402507994e-04 5.4810673859381558e-04
303 -3.0268133427529208e-04 -6.5907328233876287e-04 6.8983318658551944e-04
304 -6.2933161678260276e-04 5.8220893912427321e-04 5.1574122507590443e-04
305 -8.0245202607216292e-04 4.1316277553382684e-04 4.3169231982972110e-04
306 2.2376162000373680e-04 -5.3928780789890050e-04 8.1153721606478030e-04
307 2.3850079248407562e-04 -4.2321255413925218e-04 8.7283484667126539e-04
308 3.5027167059465840e-04 -4.9173291729842422e-04 7.9718877940872311e-04
309 -4.5500009411106134e-04 -7.3339113119186511e-04 5.0719232149865610e-04
310 -8.5187479488460516e-04 2.8749369595222613e-04 4.3893160912117699e-04
311 -4.1084706983250284e-04 -8.5659544157803741e-04 3.1667341052649237e-04
312 -7.6382986697606423e-04 6.3914705307070295e-04 8.4595316725164446e-05
313 -8.5220806139822106e-04 -4.9718034596188659e-04 -1.6630066740666314e-04
314 -5.2701424569089110e-05 1.0883794465567712e-04 9.8920782749986180e-04
315 -8.8404287892766798e-04 3.5426527208531243e-04 3.0693197345230648e-04
316 -9.7669360426303354e-04 1.9343532984486959e-04 9.1364004433664469e-05
317 -1.1100158517592920e-04 7.5646479847074719e-04 -6.4377883832111946e-04
318 2.6273574137030542e-04 -4.0188762235378420e-04 -8.7559927635895830e-04
319 -6.9188780027404394e-04 -7.2045070867389884e-04 -5.8577373763819392e-05
320 -5.9612712542575898e-04 -8.0325437712071290e-04 5.2334644526241745e-06
321 -6.4899084967985328e-04 -4.1357852504417714e-04 -6.3934334855425177e-04
322 -7.7034737288607128e-05 -1.9249714179076990e-04 -9.7470967633398863e-04
323 5.0785002619586385e-04 -8.5915394062761213e-04 8.0295882199174758e-05
324 -6.1442609539999644e-04 7.8301234717731004e-04 -9.1208227251131417e-05
325 2.7915586906852136e-04 5.4107776492934084e-04 7.9185603740265906e-04
326 2.9173444713725575e-04 -6.2551933052455645e-04 -7.2437876028036408e-04
327 1.6040574221858295e-04 -5.9315347732340153e-04 -7.8895822618975332e-04
328 4.0427727308789554e-04 5.3387154240023865e-04 7.4202561312743001e-04
329 4.7861588082118557e-04 4.3527346561320854e-04 7.6180889187386599e-04
330 4.3829715005501982e-04 4.2631886453008627e-04 -7.8940894566696793e-04
331 -8.7475943439577275e-07 9.8482447367522386e-04 1.7273883405956447e-04
332 -2.6283337728499320e-05 9.9837626999681010e-04 3.9934442715276501e-05
333 -1.6065722042545572e-04 9.8630322492072983e-04 -1.1281062485386842e-05
334 1.0015297999560569e-04 9.9172424251982414e-04 7.6795848120724623e-05
335 3.5932938089942032e-04 -3.6662572174006824e-04 8.5708216203851282e-04
336 4.5558308807128401e-04 -4.3360635276548030e-04 7.7734478763664299e-04
337 -8.0971183834722699e-04 2.1093195304258759e-04 5.4802497189401691e-04
338 -3.4083354268086148e-04 5.1564242125872188e-04 7.8439307758571464e-04
339 -1.1434049324291736e-04 4.5762285982928994e-04 -8.7874985032566899e-04
340 3.8743981740225141e-04 -3.1309416796147354e-04 -8.6551384876355146e-04
341 2.4419900991827317e-05 -2.7686172682691695e-04 -9.5746524722265718e-04
342 -9.2829220756683118e-04 3.5994035386823566e-04 -1.0153795876754200e-04
343 2.7387887705807019e-05 -3.9016853555226994e-04 9.1839968424761893e-04
344 -5.1330785363860811e-04 6.1128501107093663e-04 6.0265040832319864e-04
345 -5.3527423921753453e-04 7.0552902076395922e-04 4.6716565029697704e-04
346 -6.5609421023671646e-04 6.5190341001160996e-04 3.8119543875855528e-04
347 6.0953980164546743e-04 -3.5522100829170377e-04 -7.0973288023251147e-04
348 7.1029817761317617e-04 -3.7058788301968539e-04 -6.0090610882287834e-04
349 5.2505451233805941e-04 5.2098686976704775e-04 6.7318763264204325e-04
350 5.9602262355680133e-04 4.0471198957988129e-04 6.9372192649419886e-04
351 6.4092767418771890e-04 4.9160266775511428e-04 5.9083810186159912e-04
352 7.0163142652506936e-04 3.7123519176619855e-04 6.0966239189675958e-04
353 7.4016933964505790e-04 4.5698684908437057e-04 4.9579092930640784e-04
354 -6.4633643906274803e-04 -7.3324415702654604e-04 2.1532625217766862e-04
355 2.5592771637113399e-04 5.3680757789745747e-04 -8.0161874784622563e-04
356 1.3420395112268986e-04 5.5540721823908984e-04 -8.1846581739466540e-04
357 -6.7546630693937431e-04 3.2897594609485596e-04 -6.5914691969282569e-04
358 5.2138520999863932e-04 -8.3670728107413240e-04 -1.7505941352625190e-04
359 4.4545402447004488e-04 -8.4546959435751444e-04 -2.9951780762694867e-04
360 -8.2233269775239563e-04 4.8160849121390122e-04 3.0381104932343278e-04
361 -1.3775644359052285e-04 -5.3651116862509624e-04 8.3193372967226161e-04
362 -1.8554923753035860e-04 3.5737997815767428e-04 -9.1197029167101981e-04
363 -2.1493300525539835e-04 5.1713272735194658e-04 8.2614115963483179e-04
364 -5.1672784422385123e-04 8.3902566471629478e-04 -1.6819526849395358e-04
365 1.5839736720543631e-04 5.4200569575958181e-04 8.2349570648397466e-04
366 -3.5415756168800174e-04 -2.7419563369047799e-05 9.3211769366823938e-04
367 -7.0704462770456952e-04 -6.4270133098160646e-04 2.9869552084125475e-04
368 2.0970285828221744e-04 6.6056247664017878e-04 7.2123084911361927e-04
369 7.9264094608884737e-05 6.2128907087977874e-04 7.7720264895075322e-04
370 6.9944682837618692e-04 -2.4432915325557977e-04 -6.7306324052930806e-04
371 -5.3073562765131564e-04 1.6689876786236892e-04 8.2951373328806312e-04
372 -6.6060356945319700e-04 1.3617014084918032e-04 7.3864578170735359e-04
373 5.6422417039858684e-04 8.2381237573386779e-04 -5.3096878016311560e-05
374 -1.4595540755201034e-04 -9.1031573900470444e-05 9.8192470996526335e-04
375 -4.4308083613518856e-05 -1.7171004755617744e-04 9.8100077077450856e-04
376 -3.0838394519040204e-04 -9.2086310595560080e-04 2.4391191613232116e-04
377 -4.3659686532092600e-04 -8.8590173444620538e-04 1.6704041070261116e-04
378 -9.2310259906500135e-04 2.0042720969268938e-04 3.3196437383989336e-04
379 4.1585294740964594e-04 6.3093947389483750e-04 -6.5562056172393461e-04
380 1.6817460664212837e-04 -7.0392181762210081e-04 -6.9107036606878933e-04
381 2.9518688953371716e-04 -7.3222071276020926e-04 -6.1547503460561296e-04
382 -9.0203806599532636e-04 -3.7853958413789572e-04 -2.0981522670663802e-04
383 -8.3034175818553482e-04 -4.6991382692723570e-04 -3.0156195794715524e-04
384 -7.7302766310101542e-04 -5.8175280333149220e-04 -2.5621609474453343e-04
385 -1.7272644624029360e-04 -9.3891182346284713e-04 3.0242911921046041e-04
386 -6.6522785976017300e-04 5.2490164028820704e-04 -5.3123068196151910e-04
387 -7.6392911670334718e-04 4.7539473273420482e-04 -4.3693490530753867e-04
388 8.7528499529082148e-04 2.4797679979474081e-04 -4.1835387237335915e-04
389 -9.0840251092074180e-04 3.3466459490786937e-04 -2.5084167176996433e-04
390 -5.0448632464750881e-04 8.6198962245719881e-04 -3.5680671353816795e-05
391 -4.0382195605870433e-04 9.0740666035140076e-04 -1.1168188830131834e-04
392 -5.9421198253841530e-04 8.0234906997326075e-04 4.0834058878504518e-05
393 -5.9370672448710643e-04 -7.9506921179905141e-04 -1.2892194930003725e-04
394 -5.0364324113487673e-04 -8.6211423906880369e-04 -6.0380339264876922e-05
395 7.1088067921488374e-05 9.9534374148016512e-04 -5.6401273112517422e-05
396 2.0650968387327174e-04 9.7783908053092621e-04 -2.2848202346480190e-05
397 5.0657418515818575e-04 3.2624216956066268e-04 -7.9696682908894135e-04
398 2.6306189785328270e-04 -2.9199765625182882e-04 9.1738049101913212e-04
399 3.7579584024283473e-04 -2.1834023619128116e-04 8.9923683554474134e-04
400 -2.6892856022355086e-04 6.0654618163379591e-04 7.4649071498909629e-04
401 -1.5745438412157270e-04 6.1021564377845123e-04 7.7378121551350534e-04
402 3.2317633246409309e-04 -6.0799782010757396e-04 7.2594465397676560e-04
403 6.5366851904725932e-04 2.7960695892437389e-04 7.0343844854922047e-04
404 6.6225093389399498e-04 5.8644781281166881e-04 4.7019842133678432e-04
405 -3.1862218147834793e-04 -9.4299607500804219e-04 1.0404274881462308e-04
406 2.6278882909761350e-04 -2.7487893113306962e-04 -9.2208312561104086e-04
407 3.5618980342959697e-04 -1.8108744251822277e-04 -9.1413180508125155e-04
408 7.9545074049919447e-05 4.4385624024574567e-04 -8.8941572039281035e-04
409 -8.8976103763226892e-04 4.2732006312307249e-04 1.6632198120078410e-04
410 -4.4941799902196880e-04 8.1258235069727998e-04 3.7145481081678162e-04
411 5.5060182433118660e-04 4.2478672527916130e-04 -7.1669461291512277e-04
412 4.4698594882042192e-04 6.3595283009438815e-04 6.3076779109466792e-04
413 8.0337327821776504e-04 3.0927595409195927e-04 5.1179850422905092e-04
414 8.3245395381061581e-04 3.9433106798976339e-04 3.9221014984125582e-04
415 5.5193723554872808e-05 -1.4928579491576080e-04 -9.8341716585651742e-04
416 -9.7370972845035040e-04 2.2460660416093295e-04 -3.8764653064682102e-05
417 -7.4254223382727678e-05 3.4827770498015902e-04 -9.3052902298713296e-04
418 -1.3326946714013182e-04 2.4422964040382925e-04 -9.5658345879203550e-04
419 3.9616612738858474e-05 1.4902803135535912e-04 -9.8298303748635147e-04
420 -6.5526543640438109e-05 -8.3825279776251623e-05 -9.9020888071181860e-04
421 -9.4543957770081488e-04 3.2088069106377495e-04 5.7422028547837210e-05
422 7.9189782687923811e-04 -2.5606650716888214e-04 -5.5721642591579832e-04
423 8.0038462517588113e-04 -3.7433447597274715e-04 -4.7193661196039864e-04
424 2.4261742115661152e-04 9.6352042786934959e-04 1.1284492981301278e-04
425 3.5209169070314160e-05 -6.7315018933143721e-04 -7.4009072912052285e-04
426 3.4710103843139157e-05 -5.3590956580062401e-04 -8.4276406476004690e-04
427 -7.7944994920823229e-05 -5.9530574272146709e-04 -7.9860648415445968e-04
428 4.0409843520067506e-04 -8.9870029710253788e-04 -1.7611233510787846e-04
429 3.3007966547826505e-04 -9.0096586637191159e-04 -2.8620544318097357e-04
430 3.5853978690705607e-04 -8.4098943182312012e-04 -4.0916722938612999e-04
431 -6.0302308705670034e-04 -7.2456296344415290e-04 3.3662705118852720e-04
432 -6.4491223014260927e-04 -6.2885147009279275e-04 4.3843579289825995e-04
433 1.5350825545952629e-04 -3.3327962559756298e-04 -9.2770979473126623e-04
434 -9.9230628036166872e-06 5.5668676096431178e-04 -8.2914908982072470e-04
435 6.6671950565978197e-05 6.6080450309469109e-04 -7.4629219896652432e-04
436 8.8249829086200343e-04 2.5915823960028308e-04 3.9584035149752196e-04
437 9.0174039583383700e-04 3.4238441232847046e-04 2.6735952045128716e-04
438 8.4096086317583514e-04 4.6695177619201535e-04 2.7540031322660012e-04
439 7.4966621857391208e-04 2.3929134271246988e-04 6.1886467337825323e-04
440 -5.7237695748546167e-04 7.5839866826708140e-04 3.1289736401797372e-04
441 -6.9219517436664520e-04 6.8551905155770287e-04 2.2872185302896401e-04
442 6.7544035701938511e-04 -1.2392041789184457e-04 7.2769199546993840e-04
443 7.1071861922932867e-04 -2.4403329409007608e-04 6.6149480331888688e-04
444 8.0450035288062531e-04 -2.5003961812097121e-04 5.4184064208506277e-04
445 7.3585888103713099e-04 -3.6619089273256313e-04 5.7216548643427114e-04
446 8.1013565008093539e-04 -3.7266005158401546e-04 4.5650348450883797e-04
447 7.3323282680421743e-04 -4.7867977694393934e-04 4.8641870076184419e-04
448 6.5389516177954314e-04 -4.7576944611367824e-04 5.9047665001030376e-04
449 8.0365039637854754e-04 -4.7766062769097876e-04 3.5990910567066601e-04
450 8.7163069816430315e-04 -3.6642473161110716e-04 3.3069423633382000e-04
451 6.3180384540741997e-04 -5.9764457598305372e-04 4.9831047740044488e-04
452 6.7892430008591328e-04 1.2750266965990393e-04 7.2446140673196736e-04
453 -5.7534890944711272e-04 -8.0746218762565774e-04 1.3513972048990298e-04
454 2.9597328197223685e-05 -4.0121492803824781e-04 -9.1336462616996631e-04
455 8.9852492738949304e-04 4.1359781570941248e-04 1.5190765190617168e-04
456 4.8032821632493255e-04 -2.1441014096101177e-04 -8.4894070879957834e-04
457 4.9801689206584025e-04 5.2060009252494948e-04 -6.9264304189839377e-04
458 5.9930888667556555e-04 -2.4232114529508148e-04 7.6376354701603716e-04
459 1.3190302293014929e-04 9.6763339633142826e-04 2.1558192241290141e-04
460 6.3436501846124069e-04 6.9406878530655985e-04 3.4296453800092118e-04
461 3.7698535472460113e-04 5.2432555396783565e-04 -7.6180212604650679e-04
462 -4.1865825342851496e-04 6.9626494646690142e-04 5.8281865008794087e-04
463 7.6797938562497131e-04 -1.2954024743546660e-04 -6.2913119237437533e-04
464 8.7447732306415911e-04 -2.5339505812324055e-04 -4.1751461590353446e-04
465 8.7272416911115093e-04 -3.6936973539976233e-04 -3.2416747830605095e-04
466 -4.9560289534302948e-07 8.1992075172163852e-04 -5.7236063364844074e-04
467 9.3143948356501285e-04 -2.4649867395311868e-04 -2.7226389410205560e-04
468 9.2006952898950718e-04 -3.5526635154184476e-04 -1.7451996668960745e-04
469 1.7039954353087751e-04 3.2693947181251651e-04 -9.2594383154318461e-04
470 8.5134217152632379e-04 -4.7398110087445761e-04 2.3167550714803795e-04
471 9.1636878322181280e-04 -3.5332997210588834e-04 1.9435461596431353e-04
472 2.0028570913421820e-04 7.6540487159142882e-04 6.1211705993099281e-04
473 1.4807320180750447e-04 -2.2029890940214613e-04 -9.6072352762809640e-04
474 2.2793123884452186e-04 -8.9863325529095474e-04 -3.7909796442249977e-04
475 5.5910305518175156e-04 7.7176307583680999e-04 -3.0382850211391335e-04
476 3.1716813522453344e-04 7.1070631195879481e-04 6.2808784783719633e-04
477 2.8327970680728788e-04 7.1826060264567704e-04 -6.3528284366044655e-04
478 -1.8445070300999994e-04 -5.6164674197842191e-04 -8.0505519328219791e-04
479 -1.7324156458648781e-04 -6.7515357825339943e-04 -7.1724852658550315e-04
480 -3.9433743181173673e-04 8.3145367022386448e-04 -3.9172337145969034e-04
481 1.9790118307321040e-04 6.5359132017925542e-04 -7.2921218724205663e-04
482 7.6037491316061632e-04 -6.0182985365980063e-04 2.5430575213664726e-04
483 8.9013854033244378e-04 -4.4753752676897438e-04 9.6750165678107701e-05
484 9.4450888806084528e-04 -3.2453696264779530e-04 6.2387828610037963e-05
485 5.9627937275638730e-04 -2.2948363878919263e-04 -7.6926345809681771e-04
486 3.9754796567991759e-04 1.4283023409582322e-04 -9.0310460386125219e-04
487 9.9028723868049080e-04 1.3101292517717189e-04 -6.1933369397176454e-05
488 9.5721578028888947e-04 2.7032463761040014e-04 -1.1766886822496932e-04
489 9.7280840559154302e-04 2.3090912247828715e-04 1.3262467300687415e-05
490 8.9725448591667734e-04 4.2986776018578700e-04 -1.0766622133680345e-04
491 3.4514186776824163e-04 9.3840380311508819e-04 1.3281772793647221e-05
492 2.9959668096969172e-04 9.4479425484285146e-04 -1.3623554830370226e-04
493 4.3888011571507272e-04 8.9476440920113569e-04 -7.8833639371167361e-05
494 9.1659562911962388e-04 -4.0028366909790575e-04 -3.3173676206472404e-05
495 9.5774580767030279e-04 -2.8414382467956134e-04 -5.7956505190903202e-05
496 -3.9568284104920571e-04 9.1757669593655537e-04 1.7448105977404647e-05
497 9.8875858094194728e-04 1.2891791960477599e-04 8.5477137988781759e-05
498 6.7195673177331699e-04 6.8329956932608200e-04 -2.8744118252756130e-04
499 9.9139580736362946e-04 -1.2665890033008390e-04 -6.2932286803587728e-05
500 9.6741474043518180e-04 -1.2179716596425014e-04 2.2745869342748144e-04
501 9.2729045862379247e-04 -1.2236455043396148e-04 -3.5804358607766893e-04
502 8.6053846312613162e-04 1.2134743000137778e-04 -4.9765251799298326e-04
503 8.5827133535506226e-04 -1.2003628313795378e-04 5.0241012890971386e-04
504 4.2590536528989623e-04 1.1090839611896298e-04 8.9578715177211353e-04
505 4.2980180160778644e-04 3.2491761747214907e-04 8.4078011578583834e-04
506 6.4600125339907754e-04 -3.5642496182856497e-04 6.7610768971112741e-04
507 3.2102689360712626e-04 -1.0466403501198309e-04 9.3852523630208148e-04
508 7.3177839361429070e-05 -1.1939118433847017e-04 9.8722445011172966e-04
509 1.4777028598607540e-04 -2.1526253842267344e-04 9.6225726239097928e-04
510 2.5975392875557325e-04 -1.8988240875146992e-04 9.4329825301467894e-04
511 -2.0030629956719749e-04 6.7553433315738806e-04 -7.0857658576604519e-04
512 2.7290907131512850e-04 9.3234464537367712e-04 2.3851577986361177e-04
513 5.7814159158149343e-04 -8.1651098085200975e-04 -3.8516805166233168e-05
514 2.5198699574279849e-04 -9.6766640583900634e-04 4.6211837472238661e-05
515 2.9526553300127773e-04 -9.4081648612902541e-04 1.7412581239847327e-04
516 -5.4156433203271699e-04 5.6073602305667695e-04 -6.2608601410175555e-04
517 7.7529222080457408e-04 -5.8078227208687013e-04 -2.5372711541567596e-04
518 -1.4055457882255917e-04 -9.8989718831703731e-04 -4.3041625220890695e-05
519 -2.8488435042571064e-04 -9.5879917365200161e-04 -4.7638348462191875e-05
520 -3.2791979714055504e-04 -9.2594182379860063e-04 -1.9297052431846540e-04
521 -7.8567263545355453e-04 5.3355177011065239e-04 -3.1377287764063582e-04
522 -9.8618801790659877e-04 1.0533074218937929e-04 -1.2830805895128335e-04
523 7.8386731875346595e-04 6.0951735664600490e-04 1.2037656461493438e-04
524 -8.0204822434507537e-04 -5.4545747838188733e-04 2.4691913812708552e-04
525 7.6919904577569588e-04 5.1762666096163035e-04 3.7686944774931186e-04
526 4.8810354795623110e-04 -7.6937840174791698e-04 -4.1624940527777173e-04
527 -9.5408213286199363e-04 -2.7420847245978724e-04 -1.2347930112356143e-04
528 -9.3854546631569097e-04 -7.2303992177861953e-05 3.4001380849076068e-04
529 -9.1326833719270015e-04 5.5372590830128377e-05 4.0566557886379992e-04
530 -8.4068069695148742e-04 5.2869826991304652e-05 5.4148572455488622e-04
531 -7.7877436997695758e-04 -6.1720658346931141e-04 -1.1813174246258822e-04
532 -9.7736813760655652e-04 -6.2434445420519037e-05 2.0430284563225157e-04
533 -7.3339199441884069e-04 5.3346058822177926e-04 4.2202574169044878e-04
534 -7.0114413996377246e-04 7.1190965492419793e-04 -1.3523445688359881e-05
535 -2.3667479572857237e-04 -9.2681905789372709e-04 -2.9614197640816210e-04
536 6.2491285380679928e-04 7.6238590272595646e-04 -1.6895525523043841e-04
537 -1.4206745153476922e-04 -8.9095907474135306e-04 4.3530650196192368e-04
538 -4.7252690689567762e-05 9.9373687172581030e-04 -9.4955828190881056e-05
539 -1.6915458777710821e-04 9.4950104255260884e-04 -2.6234780579044594e-04
540 5.9817277074090966e-05 9.7721152324108281e-04 -2.0548059437922739e-04
541 -9.3791908625314444e-04 2.8655891769053149e-04 1.9663652834882580e-04
542 -8.7828236552611825e-04 -4.3803630379884241e-04 1.9559838097560120e-04
543 -8.0204222324199172e-04 -8.9216558760348504e-05 5.9190158244897765e-04
544 -7.5103932884484144e-04 1.5353049508811191e-05 6.6020002738897889e-04
545 -6.5314005513595588e-04 -5.2724429097672075e-04 -5.4538615397140867e-04
546 -7.3815245083673378e-04 -4.2612690888346754e-04 -5.2432442676340842e-04
547 -7.4329930341727167e-04 -2.9845504199269880e-04 -5.9955412457438182e-04
548 -6.3918873102076221e-04 -2.7863209823653513e-04 -7.1670870714245747e-04
549 2.5750280745808222e-04 -8.1248663718145751e-04 5.2621011327109296e-04
550 5.6425580502782733e-04 5.8967238908392606e-04 5.7781163792191821e-04
551 8.6739747588385999e-04 3.6848042682260371e-04 -3.3694230840380110e-04
552 8.7583775269332756e-04 -2.4738399845415909e-04 4.1867948312112804e-04
553 1.6392603782292784e-04 -7.6403293342976197e-04 6.2618839431076781e-04
554 -4.4000374760991913e-04 -6.4355248676408491e-04 6.2921790084571319e-04
555 -3.8039832015420973e-04 -5.5723341955882157e-04 7.3838202683543968e-04
556 -8.3232563288670840e-04 -4.4206937130674627e-04 3.3747001911065027e-04
557 -6.1159892912659292e-04 -7.1478171125623658e-04 -3.4151161951739313e-04
558 -7.1628845363447713e-04 2.4472969075213708e-04 6.5342878122370785e-04
559 -6.7678350849344161e-04 -4.4379596506563941e-04 5.8908481867673624e-04
560 -5.8792878751329268e-04 -5.6292068439793780e-04 5.8427459221359682e-04
561 6.2643032419766890e-04 4.7993277027075324e-04 -6.1565733266399523e-04
562 -3.1573612630893271e-04 -6.8000558557187161e-04 -6.6333380517431774e-04
563 -4.7634736863725187e-04 5.0647333634443105e-04 7.1796288151323680e-04
564 7.1462473181885754e-04 -4.8719828864739087e-04 -5.0540854511544155e-04
565 -8.3668028041243656e-05 -3.0000883620332061e-04 9.4777665471206321e-04
566 -1.0134439872094752e-04 -4.1498474791324595e-04 9.0242491778300148e-04
567 -1.9634072120508850e-04 -3.3599229613096883e-04 9.1911343886481379e-04
568 -1.6781167926895437e-04 -6.5187720373940526e-04 7.4026301963432716e-04
569 4.1479029538614117e-04 -6.6036628168281001e-04 -6.2801237571909077e-04
570 -7.0438596007975048e-04 -9.2425950601330626e-05 7.0364540347102951e-04
571 5.4033659728529922e-04 3.1699600130935957e-04 7.7842728945474852e-04
572 4.9931085642446226e-04 -3.3830193267328810e-04 -7.9729724875560084e-04
573 1.5448085714511858e-04 -3.3051338398111708e-04 9.2882997501175205e-04
574 -7.3488244557578370e-04 2.0019553896951050e-04 -6.4782163230393244e-04
575 1.4953491842723983e-04 -4.5890109333818218e-04 -8.7440246325012384e-04
576 -4.4074592153056988e-04 -4.2097419921480753e-04 7.9342802424108743e-04
577 -2.9901165835130193e-04 3.5224912482677100e-04 -8.8392523347878983e-04
578 -2.5376753592537375e-04 2.4750124235216304e-04 -9.3148396262007641e-04
579 -3.1430129255212577e-04 1.4118401470946822e-04 -9.3508161695004871e-04
580 -4.6916388322255605e-04 1.2835103455865353e-05 -8.8047631282137844e-04
581 4.5106104391989880e-04 -5.6183929528448139e-04 6.9579358332712586e-04
582 4.7154435313109729e-04 -3.0734407299579125e-04 8.2557590826326727e-04
583 -4.2801593434663442e-04 1.2729330818650873e-04 -8.9184182688113267e-04
584 -3.9865706004333967e-04 1.8382186443985347e-04 8.9605246830539321e-04
585 -4.4125214543463444e-04 6.8893082767172896e-05 8.9245646124544236e-04
586 -3.3309356910676878e-04 -4.2061625192026385e-04 -8.4227948383697431e-04
587 3.0448381928820595e-05 9.4977493319070062e-04 3.1227338509186791e-04
588 -3.8661622391714882e-04 -8.7473149619902684e-05 -9.1511536298609863e-04
589 -2.9072355010353711e-04 -4.5257784138023472e-05 -9.5214292574331524e-04
590 -1.7719406258492743e-04 -1.2045849953331317e-04 -9.7308842677640956e-04
591 -1.4198804682151591e-04 4.2034479967572631e-04 8.9342563562707549e-04
592 -5.1133913519882520e-04 8.0255723415388472e-04 -3.0730247807879023e-04
593 -2.3998186975994921e-04 -1.3248730287034419e-05 9.6723695398510630e-04
594 3.6616575147622993e-04 2.1273831851394262e-04 9.0354509336376990e-04
595 -8.0197306063912684e-04 5.6460811790132865e-04 1.9510887563164110e-04
596 4.2438709941500290e-04 -8.8634704509225101e-04 1.9271653060868804e-04
597 1.1030514997783250e-04 4.2839543039693275e-04 8.9423932945040599e-04
598 3.1759553434441008e-04 9.0280301588407485e-04 -2.8989447567772633e-04
599 1.9825737976489425e-04 -6.5826274950114751e-04 7.2706427499470228e-04
600 -5.2951900153746958e-04 -8.0891224732782213e-04 2.5963585857042301e-04
601 -8.4423134181925322e-04 4.0882201807316301e-04 -3.4731405136305545e-04
602 -8.1205727165851841e-04 3.4669157381543282e-04 -4.6992349774212076e-04
603 -7.4262375131232462e-04 -5.3424141508384129e-04 -4.0788065003433436e-04
604 -9.0992362767420795e-04 1.3782967024342593e-04 -3.9213336271484267e-04
605 -4.0919029987702765e-04 -9.1270346498247186e-04 2.1619347563699383e-05
606 -3.2366007138591110e-04 8.4306690571452829e-04 4.2972303508727875e-04
607 5.2847176452316175e-05 1.1883463916367103e-04 9.8728565800998208e-04
608 -4.2824187609325158e-05 7.5756979517342974e-04 6.5107891436479994e-04
609 -7.3218838811989011e-04 -1.6610664189017495e-04 -6.6085937604499275e-04
610 9.5477727555825966e-04 2.6758917947404987e-04 1.4093396374410556e-04
611 4.1687140262639037e-04 -1.0912131598715684e-04 -9.0013103343892110e-04
612 9.2121227909687064e-04 1.3253916047550784e-04 3.6967324505398508e-04
613 -3.7049591969196672e-04 -8.7448555408704484e-04 -3.1729022750014158e-04
614 6.1290678486471465e-05 -7.8508489283262112e-04 -6.1851026185468882e-04
615 4.5738419616691206e-04 -8.8887282175659742e-04 -5.3363281611334082e-05
616 -6.8941266963379343e-04 -6.9614616573678088e-04 -2.0694767851294233e-04
617 -9.3344362008097718e-04 -2.4793391161584698e-04 -2.6126018840409650e-04
618 -6.1563784179338406e-04 4.4592962057757356e-04 -6.4919074260657531e-04
619 1.8743692615389904e-04 -9.5623869007813915e-04 -2.3325260087542083e-04
620 -3.6318731704665852e-05 -9.3927648383527009e-04 3.4597332660237217e-04
621 3.9282916844144631e-04 -7.6009591295747147e-04 -5.2067261987338517e-04
622 -2.2166340609236797e-04 -4.4788637171135542e-04 8.6476623977585325e-04
623 7.9578033884192625e-04 -4.8327288865218431e-04 -3.6934541846742991e-04
624 9.2732852444913879e-04 1.2994501695257153e-04 -3.5496337312079481e-04
625 -3.9337912154321751e-04 6.0511594975855103e-04 6.9101364508831814e-04
626 -2.5960282337550433e-04 -5.6284785690830787e-04 7.8446921984911091e-04
627 -8.3607626707771481e-05 5.2657429682135507e-04 8.4375236625308344e-04
628 4.8479387436510893e-04 8.7314430615146373e-04 5.1262148049069943e-05
629 -9.5832583321979264e-04 5.5456223817498354e-05 2.8176881154232466e-04
630 -5.8196005178245676e-04 7.9322237159519375e-04 1.7704201243387059e-04
631 -8.2593161745835508e-04 -1.9018270358602278e-04 -5.3199185913164429e-04
632 -4.0299828475924213e-04 8.8047403777433868e-04 -2.4884512183793534e-04
633 9.2918824389667809e-04 2.5503971571772568e-04 -2.7135670200601706e-04
634 -3.2170288660479104e-04 8.9053168307037594e-05 9.3967458492550456e-04
635 3.8107167090938645e-04 -9.2371200368319333e-04 6.1333645840441271e-05
636 -6.5657723171312898e-05 -9.7555513092883463e-04 2.1520870248382644e-04
637 -4.7234980306788514e-04 -5.0962535571011040e-05 8.7800642090596977e-04
638 4.2041346420781890e-04 2.6332368695411001e-04 -8.6485477399145879e-04
639 4.3042012709377571e-04 -1.0334163629034519e-04 8.9466932506803494e-04
640 -6.6320542759809023e-05 6.5970465126513101e-04 -7.4703634680676166e-04
641 -9.5630675126981012e-04 2.2979423674057909e-04 -1.8065262258813922e-04
642 -8.8111683051447451e-04 2.7429033550429492e-04 -3.8599513190956100e-04
643 2.8223722034885853e-04 -7.1810620585175376e-04 6.3784970932206561e-04
644 5.5564600217545819e-04 -4.6796062994872644e-04 6.8797374012267911e-04
645 5.9321607120663513e-04 2.3324190117921277e-04 -7.6950965445126784e-04
646 -1.9030536049709896e-04 9.9803981153506050e-05 9.7303833092028723e-04
647 2.3096742733789125e-05 5.3915205264172495e-04 8.3981290414168969e-04
648 -7.4733048957007159e-04 5.8922810413144437e-04 3.0444901425495083e-04
649 -2.7223799528943766e-04 9.5919924383172802e-04 6.9168487317506890e-05
650 9.2971177075108671e-04 -2.4164825340455278e-04 2.8306626246042406e-04
651 -4.7208164609141540e-04 -8.6034851858313968e-04 -1.9972578186700976e-04
652 -8.7710018714057931e-04 -3.4387970538079718e-04 -3.3667409657399757e-04
653 -1.9440511813080411e-04 1.4878731876104867e-04 -9.6555953044178788e-04
654 8.5156402615260013e-04 -4.7251837803227053e-04 -2.3206549156493730e-04
655 -7.2353008364570463e-04 4.0700173748127910e-04 -5.5734370266876223e-04
656 6.7107169553899670e-04 -1.1836085205888501e-04 -7.3229873340456661e-04
657 -7.4850391138719453e-04 -5.4532059743705660e-04 3.8012083506061578e-04
658 -3.6302146037538180e-04 3.1071729189673285e-05 -9.2776576869169774e-04
659 -1.5502096252245664e-04 7.5350922696102397e-06 -9.8433848405039739e-04
660 -3.6849090634588436e-05 2.5814151583283584e-05 -9.9396680400265112e-04
661 8.5648563841699726e-04 -5.1759647506786747e-04 -5.3751729609958574e-06
662 3.3240642842435350e-05 -2.4859373228348583e-04 9.6530713951794060e-04
663 5.1406673272108463e-04 8.3699890963029615e-04 -1.8632408772409234e-04
664 -2.9158184485176972e-04 9.5403785157355530e-04 -5.9053963828845408e-05
665 -2.8677255341934206e-04 9.3910395052576373e-04 -1.8672702180539858e-04
666 -7.7692703733377142e-05 1.2004593842070122e-04 -9.8586221682217924e-04
667 2.6062827322109950e-04 -8.2684107927848268e-04 -5.0142148896365943e-04
668 -5.6022801839386539e-04 4.8929045636764846e-05 8.2531675298403492e-04
669 -8.2342771098636522e-04 -3.2092085973652837e-04 -4.6918901253572919e-04
670 -4.9400035799896725e-04 8.6288915864831870e-04 1.0178707505091680e-04
671 -9.6255232457000844e-04 1.6454773636400807e-04 2.1211043140594049e-04
672 5.5636877275156327e-04 -3.6052434043613716e-04 7.4763154143514218e-04
673 -2.2563695161121603e-05 2.4070560810299376e-04 -9.6602121168860541e-04
674 -1.9337597613340663e-04 -9.6724132658414913e-04 1.6946056877522467e-04
675 4.1483510258939283e-04 7.3965914181394095e-04 5.2933947144945617e-04
676 8.4066959695562431e-05 7.1950330212931075e-04 6.8903579640588498e-04
677 4.8511591941800906e-04 2.1404297196265623e-04 8.4602607679709152e-04
678 -4.8679400537027034e-04 -7.8201625855194728e-04 3.9201290655124386e-04
679 3.1447878643131523e-04 -9.0053710096314540e-05 -9.4189220981701907e-04
680 3.8999373238173560e-04 -6.6620962325061297e-04 6.3619328961882617e-04
681 -8.7497841380045679e-04 1.6868993155096129e-04 4.5334033650523838e-04
682 -9.0376085316740736e-04 4.2555174583964301e-04 1.6363524928510743e-05
683 -5.1011030109541904e-05 -9.3120359835334899e-06 9.9416431746587961e-04
684 3.3127646734671182e-04 -9.4228985870690118e-04 -6.3394130253557028e-05
685 3.9508163728548131e-04 8.9499743287373699e-04 -2.0178608535042909e-04
686 1.8042650140559627e-04 -7.9138111978197564e-04 -5.8468742134744366e-04
687 1.6457020951143493e-04 9.7574872127092528e-04 -1.3661602966098446e-04
688 -8.0624819192804970e-04 -4.2673940760607339e-04 -4.0934548946487616e-04
689 -5.4071796385192202e-04 -6.5499997563247690e-04 5.2841689942933383e-04
690 5.6337789664630603e-04 -6.9473045816371114e-04 4.4936178338073697e-04
691 9.6222166583472002e-04 -2.3468224433325895e-04 1.4367780614577965e-04
692 -6.8511142848711121e-04 -5.3355583037516924e-04 4.9668387547653766e-04
693 9.3464821526580339e-04 2.2829903603049565e-04 2.7314329186572836e-04
694 -1.7710730532873508e-04 9.7381171395442010e-04 -1.3699662487407830e-04
695 9.0479059195173485e-04 3.6573513725363143e-04 -2.1754079722340690e-04
696 -4.0985559336823699e-05 6.5123908703733618e-04 7.5750174630812950e-04
697 -3.3440912819965817e-04 -4.6926376947931738e-04 8.1559065072822612e-04
698 9.3013124823844494e-04 3.6899535577480610e-04 1.6647831926810290e-05
699 -4.9230842990325015e-04 -5.3225840281468794e-04 6.8867308362931549e-04
700 -6.5820277843611883e-04 1.2243597565140993e-05 7.5070689400071533e-04
701 5.6286000148897451e-04 -5.5945159402333820e-04 6.0927621904629365e-04
702 -6.9599993711045715e-04 -6.3595151534703354e-04 -3.3362748676228437e-04
703 -7.6228470014142857e-04 2.9123116197550574e-04 -5.7648616217062043e-04
704 3.7665099142520216e-05 3.4020440024581900e-04 -9.3549986727386927e-04
705 3.1137021968615988e-04 6.1831015021944372e-04 -7.1919612543976878e-04
706 -3.1585058014956549e-04 6.8468347216495075e-04 6.5483050928788044e-04
707 1.1678627970608359e-04 -9.3234564840027814e-04 -3.4417141178956501e-04
708 -6.6868153220149486e-04 7.3425838700856224e-04 1.0407961492029921e-04
709 4.8762592115483384e-06 7.4052815156007380e-04 -6.6988805643511363e-04
710 -4.0739019086996706e-04 7.7133579925744403e-04 4.8746428152794262e-04
711 -9.2861769299582085e-04 2.1515233154641961e-04 -2.9981057878920945e-04
712 7.7320923418316414e-04 1.0453316324677703e-04 6.2578696536237730e-04
713 -2.0774688032824514e-04 -7.5168143133525628e-04 -6.2586022831201556e-04
714 6.2555236510370067e-04 3.5317854445641111e-04 -6.9558193372275029e-04
715 -2.0866187646720696e-04 -9.7671132388281695e-04 4.7436519276755219e-05
716 -2.6852265349716577e-04 5.7009905897213976e-05 -9.5699813137711668e-04
717 -4.0142153823580955e-04 -9.0999394805477466e-04 -1.0249602144512258e-04
718 4.9611689400527877e-04 -2.0235886034617216e-04 8.4223576607734077e-04
719 7.2331486203630548e-04 -5.7045710254906767e-04 3.9148169010444148e-04
720 8.4075747347549061e-04 5.1616581251814572e-04 1.6038539230315847e-04
721 2.5366744470108310e-04 -1.7029821574450707e-04 -9.4815274201408262e-04
722 -5.7665031178816945e-04 -7.8054104378484537e-04 -2.4125416422490754e-04
723 4.7304114039307003e-05 5.3977006571245943e-05 -9.9287389874457336e-04
724 -1.7252144111156592e-04 7.1356637046237628e-04 6.7933983571502783e-04
725 8.7905592800761065e-04 -4.6269244361709955e-04 -1.1552288910526999e-04
726 5.9540707532980712e-04 2.0231277513315562e-04 7.7572174346662338e-04
727 7.8075957094154264e-04 5.7250696268077036e-04 2.5093905098122146e-04
728 5.4359036625474858e-04 5.8278692427203582e-04 -6.0291147624201222e-04
729 4.7521411676296844e-04 9.4077635570343127e-05 -8.7141859329737130e-04
730 7.1459603914560577e-04 6.1170663480070706e-04 3.3877170309690494e-04
731 -2.4195095255696855e-04 -6.1533468129301575e-04 -7.4752508858086614e-04
732 3.3655038607196375e-04 6.1666785013624373e-04 7.1013829193443845e-04
733 -7.2961993439443551e-05 9.7485389198549320e-04 -2.0423485496071390e-04
734 -2.3803228776841546e-04 -4.7809990437885019e-04 -8.4293773091815693e-04
735 9.6141689079451572e-04 -2.2966247274201548e-04 -1.5235202337119012e-04
736 9.7705293835031841e-04 -2.0987459972960081e-04 3.2111621914653312e-05
737 -3.5787633086958415e-05 -8.3936401328714487e-05 9.9163208702220660e-04
738 -5.0540735526672536e-04 -8.6040159380992430e-04 5.9648038331114022e-05
739 4.9720120106677831e-04 1.9655601071410470e-04 -8.4262931390100980e-04
740 -7.6258204017519654e-04 1.3225575667699015e-04 6.3212424517376895e-04
741 -1.3850195198457821e-04 1.6663726205365024e-05 9.8576934248636745e-04
742 -5.5003784491684002e-04 -7.0888682141574417e-04 4.4199068960868560e-04
743 -1.8710927946335679e-05 4.3161166324979312e-04 -8.9775617356403553e-04
744 2.9088946431991050e-04 -9.4114219081064762e-04 -1.7337099926132912e-04
745 -7.0245459949985938e-05 -6.8208785082708441e-04 -7.2563910818841692e-04
$EndNodes
$Elements
1486
1 2 2 0 0 410 440 345
2 2 2 0 0 421 541 409
3 2 2 0 0 409 682 421
4 2 2 0 0 545 603 546
5 2 2 0 0 426 427 294
6 2 2 0 0 294 454 426
7 2 2 0 0 265 682 409
8 2 2 0 0 24 41 4
9 2 2 0 0 3 24 4
10 2 2 0 0 238 642 602
11 2 2 0 0 520 651 613
12 2 2 0 0 653 666 659
13 2 2 0 0 404 460 98
14 2 2 0 0 222 482 219
15 2 2 0 0 40 463 9
16 2 2 0 0 608 724 696
17 2 2 0 0 435 709 69
18 2 2 0 0 413 439 29
19 2 2 0 0 345 710 410
20 2 2 0 0 422 463 40
21 2 2 0 0 98 550 404
22 2 2 0 0 95 724 608
23 2 2 0 0 4 41 5
24 2 2 0 0 232 701 581
25 2 2 0 0 490 698 488
26 2 2 0 0 29 436 413
27 2 2 0 0 416 421 342
28 2 2 0 0 312 595 441
29 2 2 0 0 41 486 5
30 2 2 0 0 405 605 519
31 2 2 0 0 409 595 265
32 2 2 0 0 69 481 435
33 2 2 0 0 434 743 339
34 2 2 0 0 342 641 416
35 2 2 0 0 485 656 370
36 2 2 0 0 89 587 90
37 2 2 0 0 108 466 317
38 2 2 0 0 378 629 529
39 2 2 0 0 581 680 232
40 2 2 0 0 281 434 339
41 2 2 0 0 638 739 486
42 2 2 0 0 659 666 660
43 2 2 0 0 345 440 346
44 2 2 0 0 22 44 25
45 2 2 0 0 9 463 8
46 2 2 0 0 44 81 25
47 2 2 0 0 459 587 89
48 2 2 0 0 127 670 630
49 2 2 0 0 508 662 509
50 2 2 0 0 375 662 508
51 2 2 0 0 492 598 103
52 2 2 0 0 604 642 238
53 2 2 0 0 507 510 399
54 2 2 0 0 488 698 489
55 2 2 0 0 34 473 415
56 2 2 0 0 399 639 507
57 2 2 0 0 603 688 546
58 2 2 0 0 316 541 421
59 2 2 0 0 647 696 627
60 2 2 0 0 403 439 352
61 2 2 0 0 221 603 545
62 2 2 0 0 595 648 441
63 2 2 0 0 412 550 98
64 2 2 0 0 411 714 397
65 2 2 0 0 486 739 729
66 2 2 0 0 696 724 401
67 2 2 0 0 247 482 222
68 2 2 0 0 397 714 645
69 2 2 0 0 613 651 212
70 2 2 0 0 207 745 425
71 2 2 0 0 98 675 412
72 2 2 0 0 219 482 230
73 2 2 0 0 560 692 432
74 2 2 0 0 432 689 560
75 2 2 0 0 454 575 426
76 2 2 0 0 352 439 413
77 2 2 0 0 415 420 2
78 2 2 0 0 40 464 422
79 2 2 0 0 89 512 459
80 2 2 0 0 425 614 207
81 2 2 0 0 377 600 453
82 2 2 0 0 89 90 88
83 2 2 0 0 80 466 108
84 2 2 0 0 520 717 651
85 2 2 0 0 602 703 238
86 2 2 0 0 103 687 492
87 2 2 0 0 253 491 424
88 2 2 0 0 69 709 466
89 2 2 0 0 424 512 253
90 2 2 0 0 369 696 647
91 2 2 0 0 581 701 644
92 2 2 0 0 630 670 392
93 2 2 0 0 32 656 485
94 2 2 0 0 459 512 424
95 2 2 0 0 90 91 88
96 2 2 0 0 427 478 294
97 2 2 0 0 488 695 490
98 2 2 0 0 554 699 560
99 2 2 0 0 67 80 79
100 2 2 0 0 252 454 294
101 2 2 0 0 253 628 491
102 2 2 0 0 529 681 378
103 2 2 0 0 519 715 405
104 2 2 0 0 440 441 346
105 2 2 0 0 605 717 519
106 2 2 0 0 403 452 439
107 2 2 0 0 507 639 21
108 2 2 0 0 565 567 566
109 2 2 0 0 433 454 341
110 2 2 0 0 67 466 80
111 2 2 0 0 555 697 576
112 2 2 0 0 491 628 493
113 2 2 0 0 389 641 342
114 2 2 0 0 429 619 474
115 2 2 0 0 40 501 464
116 2 2 0 0 576 699 555
117 2 2 0 0 311 600 377
118 2 2 0 0 567 622 566
119 2 2 0 0 433 575 454
120 2 2 0 0 378 671 629
121 2 2 0 0 79 540 103
122 2 2 0 0 341 473 433
123 2 2 0 0 673 704 68
124 2 2 0 0 462 710 345
125 2 2 0 0 557 722 616
126 2 2 0 0 573 662 343
127 2 2 0 0 370 656 463
128 2 2 0 0 341 454 252
129 2 2 0 0 616 702 557
130 2 2 0 0 6 26 7
131 2 2 0 0 464 501 467
132 2 2 0 0 433 473 406
133 2 2 0 0 8 45 37
134 2 2 0 0 466 709 317
135 2 2 0 0 457 461 379
136 2 2 0 0 84 512 86
137 2 2 0 0 19 452 33
138 2 2 0 0 380 614 425
139 2 2 0 0 83 540 79
140 2 2 0 0 398 510 509
141 2 2 0 0 609 631 137
142 2 2 0 0 18 442 36
143 2 2 0 0 26 45 7
144 2 2 0 0 565 566 343
145 2 2 0 0 80 83 79
146 2 2 0 0 560 689 554
147 2 2 0 0 134 137 136
148 2 2 0 0 68 469 42
149 2 2 0 0 659 716 653
150 2 2 0 0 619 707 474
151 2 2 0 0 497 610 39
152 2 2 0 0 137 138 136
153 2 2 0 0 283 573 343
154 2 2 0 0 506 644 448
155 2 2 0 0 499 735 31
156 2 2 0 0 81 97 25
157 2 2 0 0 45 46 37
158 2 2 0 0 585 668 637
159 2 2 0 0 495 735 499
160 2 2 0 0 399 510 398
161 2 2 0 0 509 573 398
162 2 2 0 0 442 443 36
163 2 2 0 0 1 607 314
164 2 2 0 0 29 612 436
165 2 2 0 0 547 631 609
166 2 2 0 0 360 595 409
167 2 2 0 0 421 682 342
168 2 2 0 0 426 575 327
169 2 2 0 0 123 577 235
170 2 2 0 0 339 743 417
171 2 2 0 0 7 45 8
172 2 2 0 0 3 723 24
173 2 2 0 0 418 666 653
174 2 2 0 0 59 60 58
175 2 2 0 0 620 636 193
176 2 2 0 0 42 469 47
177 2 2 0 0 65 67 66
178 2 2 0 0 509 662 573
179 2 2 0 0 470 482 247
180 2 2 0 0 368 476 472
181 2 2 0 0 530 740 337
182 2 2 0 0 253 512 84
183 2 2 0 0 455 698 282
184 2 2 0 0 61 65 62
185 2 2 0 0 59 61 60
186 2 2 0 0 91 472 88
187 2 2 0 0 90 92 91
188 2 2 0 0 19 442 18
189 2 2 0 0 464 465 423
190 2 2 0 0 706 724 118
191 2 2 0 0 456 611 32
192 2 2 0 0 379 477 61
193 2 2 0 0 417 743 704
194 2 2 0 0 314 683 1
195 2 2 0 0 442 458 443
196 2 2 0 0 11 28 12
197 2 2 0 0 61 62 60
198 2 2 0 0 118 724 95
199 2 2 0 0 22 25 23
200 2 2 0 0 247 483 470
201 2 2 0 0 281 640 434
202 2 2 0 0 197 667 474
203 2 2 0 0 86 512 89
204 2 2 0 0 417 704 673
205 2 2 0 0 451 690 230
206 2 2 0 0 27 442 19
207 2 2 0 0 637 668 229
208 2 2 0 0 60 475 58
209 2 2 0 0 489 610 497
210 2 2 0 0 307 573 283
211 2 2 0 0 61 477 65
212 2 2 0 0 65 66 62
213 2 2 0 0 544 740 530
214 2 2 0 0 230 719 451
215 2 2 0 0 18 452 19
216 2 2 0 0 268 569 269
217 2 2 0 0 32 485 456
218 2 2 0 0 627 696 401
219 2 2 0 0 24 42 41
220 2 2 0 0 20 27 19
221 2 2 0 0 330 461 457
222 2 2 0 0 506 672 644
223 2 2 0 0 472 476 87
224 2 2 0 0 468 495 494
225 2 2 0 0 88 472 87
226 2 2 0 0 121 577 123
227 2 2 0 0 327 575 276
228 2 2 0 0 422 464 423
229 2 2 0 0 47 63 49
230 2 2 0 0 458 506 443
231 2 2 0 0 232 690 451
232 2 2 0 0 28 487 12
233 2 2 0 0 80 107 83
234 2 2 0 0 608 696 676
235 2 2 0 0 356 481 355
236 2 2 0 0 138 238 136
237 2 2 0 0 137 139 138
238 2 2 0 0 729 739 26
239 2 2 0 0 81 99 97
240 2 2 0 0 46 50 37
241 2 2 0 0 463 656 8
242 2 2 0 0 443 444 36
243 2 2 0 0 68 704 469
244 2 2 0 0 24 68 42
245 2 2 0 0 16 503 30
246 2 2 0 0 65 69 67
247 2 2 0 0 67 79 66
248 2 2 0 0 676 696 369
249 2 2 0 0 59 379 61
250 2 2 0 0 90 93 92
251 2 2 0 0 464 467 465
252 2 2 0 0 441 708 312
253 2 2 0 0 483 484 471
254 2 2 0 0 427 479 478
255 2 2 0 0 245 564 244
256 2 2 0 0 470 483 471
257 2 2 0 0 473 721 406
258 2 2 0 0 555 699 554
259 2 2 0 0 47 469 63
260 2 2 0 0 63 355 49
261 2 2 0 0 62 64 60
262 2 2 0 0 80 108 107
263 2 2 0 0 107 539 83
264 2 2 0 0 139 140 138
265 2 2 0 0 99 100 97
266 2 2 0 0 81 236 99
267 2 2 0 0 46 51 50
268 2 2 0 0 443 445 444
269 2 2 0 0 24 419 68
270 2 2 0 0 69 466 67
271 2 2 0 0 79 103 66
272 2 2 0 0 65 477 69
273 2 2 0 0 547 548 321
274 2 2 0 0 93 94 92
275 2 2 0 0 467 468 465
276 2 2 0 0 333 664 649
277 2 2 0 0 55 498 56
278 2 2 0 0 56 498 72
279 2 2 0 0 12 499 31
280 2 2 0 0 63 356 355
281 2 2 0 0 108 110 107
282 2 2 0 0 139 141 140
283 2 2 0 0 100 101 97
284 2 2 0 0 236 248 99
285 2 2 0 0 81 594 236
286 2 2 0 0 51 52 50
287 2 2 0 0 192 515 195
288 2 2 0 0 445 446 444
289 2 2 0 0 477 481 69
290 2 2 0 0 94 95 92
291 2 2 0 0 93 96 94
292 2 2 0 0 63 408 356
293 2 2 0 0 108 111 110
294 2 2 0 0 110 117 107
295 2 2 0 0 139 154 141
296 2 2 0 0 141 142 140
297 2 2 0 0 51 53 52
298 2 2 0 0 100 102 101
299 2 2 0 0 236 250 248
300 2 2 0 0 445 447 446
301 2 2 0 0 52 388 50
302 2 2 0 0 277 622 567
303 2 2 0 0 95 608 92
304 2 2 0 0 94 118 95
305 2 2 0 0 93 104 96
306 2 2 0 0 51 561 53
307 2 2 0 0 408 434 356
308 2 2 0 0 53 54 52
309 2 2 0 0 445 448 447
310 2 2 0 0 108 317 111
311 2 2 0 0 141 143 142
312 2 2 0 0 142 225 140
313 2 2 0 0 102 166 101
314 2 2 0 0 250 325 248
315 2 2 0 0 100 258 102
316 2 2 0 0 53 55 54
317 2 2 0 0 447 449 446
318 2 2 0 0 236 505 250
319 2 2 0 0 104 105 96
320 2 2 0 0 53 57 55
321 2 2 0 0 55 56 54
322 2 2 0 0 448 451 447
323 2 2 0 0 14 39 15
324 2 2 0 0 317 511 111
325 2 2 0 0 10 40 9
326 2 2 0 0 143 144 142
327 2 2 0 0 57 58 55
328 2 2 0 0 8 37 9
329 2 2 0 0 14 38 13
330 2 2 0 0 166 314 101
331 2 2 0 0 18 36 17
332 2 2 0 0 16 29 17
333 2 2 0 0 33 504 20
334 2 2 0 0 325 365 248
335 2 2 0 0 199 202 196
336 2 2 0 0 7 32 6
337 2 2 0 0 434 435 356
338 2 2 0 0 74 75 73
339 2 2 0 0 223 239 234
340 2 2 0 0 74 76 75
341 2 2 0 0 72 74 73
342 2 2 0 0 231 549 201
343 2 2 0 0 202 205 204
344 2 2 0 0 226 227 214
345 2 2 0 0 272 275 271
346 2 2 0 0 276 318 275
347 2 2 0 0 213 214 209
348 2 2 0 0 76 77 75
349 2 2 0 0 210 231 201
350 2 2 0 0 16 30 15
351 2 2 0 0 205 209 208
352 2 2 0 0 202 204 196
353 2 2 0 0 318 406 340
354 2 2 0 0 195 196 193
355 2 2 0 0 322 420 415
356 2 2 0 0 239 240 234
357 2 2 0 0 163 588 168
358 2 2 0 0 12 31 11
359 2 2 0 0 56 72 71
360 2 2 0 0 425 426 327
361 2 2 0 0 19 33 20
362 2 2 0 0 168 224 215
363 2 2 0 0 209 568 216
364 2 2 0 0 318 433 406
365 2 2 0 0 269 271 270
366 2 2 0 0 268 269 245
367 2 2 0 0 21 639 20
368 2 2 0 0 84 85 82
369 2 2 0 0 181 207 183
370 2 2 0 0 269 272 271
371 2 2 0 0 272 276 275
372 2 2 0 0 242 243 240
373 2 2 0 0 102 167 166
374 2 2 0 0 223 234 233
375 2 2 0 0 283 343 227
376 2 2 0 0 205 208 204
377 2 2 0 0 213 226 214
378 2 2 0 0 271 572 347
379 2 2 0 0 243 268 245
380 2 2 0 0 335 398 307
381 2 2 0 0 303 555 554
382 2 2 0 0 226 283 227
383 2 2 0 0 347 485 370
384 2 2 0 0 195 199 196
385 2 2 0 0 205 213 209
386 2 2 0 0 246 322 252
387 2 2 0 0 76 78 77
388 2 2 0 0 133 163 135
389 2 2 0 0 163 168 164
390 2 2 0 0 322 415 341
391 2 2 0 0 227 361 214
392 2 2 0 0 191 198 189
393 2 2 0 0 78 84 82
394 2 2 0 0 209 216 208
395 2 2 0 0 78 82 77
396 2 2 0 0 216 303 266
397 2 2 0 0 417 418 362
398 2 2 0 0 314 607 101
399 2 2 0 0 339 362 280
400 2 2 0 0 243 245 244
401 2 2 0 0 187 291 185
402 2 2 0 0 429 430 359
403 2 2 0 0 143 145 144
404 2 2 0 0 202 553 205
405 2 2 0 0 339 417 362
406 2 2 0 0 131 580 133
407 2 2 0 0 239 242 240
408 2 2 0 0 57 59 58
409 2 2 0 0 224 246 215
410 2 2 0 0 84 86 85
411 2 2 0 0 303 554 266
412 2 2 0 0 72 73 71
413 2 2 0 0 437 438 414
414 2 2 0 0 318 340 275
415 2 2 0 0 269 270 245
416 2 2 0 0 86 87 85
417 2 2 0 0 192 193 191
418 2 2 0 0 123 235 129
419 2 2 0 0 263 374 262
420 2 2 0 0 425 427 426
421 2 2 0 0 149 150 147
422 2 2 0 0 210 232 231
423 2 2 0 0 74 373 76
424 2 2 0 0 168 215 169
425 2 2 0 0 259 262 249
426 2 2 0 0 145 146 144
427 2 2 0 0 367 524 289
428 2 2 0 0 271 347 270
429 2 2 0 0 406 407 340
430 2 2 0 0 334 459 424
431 2 2 0 0 429 474 430
432 2 2 0 0 250 328 325
433 2 2 0 0 431 432 367
434 2 2 0 0 104 278 105
435 2 2 0 0 145 147 146
436 2 2 0 0 151 152 150
437 2 2 0 0 235 583 129
438 2 2 0 0 237 249 228
439 2 2 0 0 149 151 150
440 2 2 0 0 159 161 158
441 2 2 0 0 153 155 152
442 2 2 0 0 156 158 155
443 2 2 0 0 354 367 289
444 2 2 0 0 259 263 262
445 2 2 0 0 190 191 189
446 2 2 0 0 177 221 174
447 2 2 0 0 162 228 161
448 2 2 0 0 124 516 386
449 2 2 0 0 418 653 578
450 2 2 0 0 371 584 295
451 2 2 0 0 151 153 152
452 2 2 0 0 153 156 155
453 2 2 0 0 159 162 161
454 2 2 0 0 374 593 262
455 2 2 0 0 156 159 158
456 2 2 0 0 237 259 249
457 2 2 0 0 146 284 160
458 2 2 0 0 266 309 267
459 2 2 0 0 264 265 257
460 2 2 0 0 86 88 87
461 2 2 0 0 265 312 257
462 2 2 0 0 162 237 228
463 2 2 0 0 21 44 22
464 2 2 0 0 324 392 390
465 2 2 0 0 371 585 584
466 2 2 0 0 262 366 249
467 2 2 0 0 192 195 193
468 2 2 0 0 263 375 374
469 2 2 0 0 216 266 217
470 2 2 0 0 326 327 276
471 2 2 0 0 260 646 166
472 2 2 0 0 220 223 222
473 2 2 0 0 322 341 252
474 2 2 0 0 256 257 255
475 2 2 0 0 78 253 84
476 2 2 0 0 358 359 242
477 2 2 0 0 188 189 187
478 2 2 0 0 281 339 280
479 2 2 0 0 146 160 144
480 2 2 0 0 123 129 128
481 2 2 0 0 255 324 254
482 2 2 0 0 228 229 161
483 2 2 0 0 354 431 367
484 2 2 0 0 163 164 135
485 2 2 0 0 155 157 152
486 2 2 0 0 243 244 240
487 2 2 0 0 256 264 257
488 2 2 0 0 284 316 160
489 2 2 0 0 380 425 327
490 2 2 0 0 148 149 147
491 2 2 0 0 335 399 398
492 2 2 0 0 418 578 362
493 2 2 0 0 334 424 396
494 2 2 0 0 167 260 166
495 2 2 0 0 325 368 365
496 2 2 0 0 428 429 359
497 2 2 0 0 165 255 254
498 2 2 0 0 297 342 264
499 2 2 0 0 298 371 295
500 2 2 0 0 218 323 220
501 2 2 0 0 310 337 302
502 2 2 0 0 165 256 255
503 2 2 0 0 186 187 185
504 2 2 0 0 56 71 70
505 2 2 0 0 165 254 125
506 2 2 0 0 200 201 199
507 2 2 0 0 148 206 149
508 2 2 0 0 324 390 364
509 2 2 0 0 190 192 191
510 2 2 0 0 368 369 365
511 2 2 0 0 353 404 351
512 2 2 0 0 104 331 278
513 2 2 0 0 256 297 264
514 2 2 0 0 316 421 416
515 2 2 0 0 239 358 242
516 2 2 0 0 169 586 171
517 2 2 0 0 286 287 206
518 2 2 0 0 324 364 254
519 2 2 0 0 241 576 162
520 2 2 0 0 168 169 164
521 2 2 0 0 121 123 122
522 2 2 0 0 266 267 217
523 2 2 0 0 129 131 130
524 2 2 0 0 216 217 208
525 2 2 0 0 285 382 313
526 2 2 0 0 172 321 170
527 2 2 0 0 390 391 364
528 2 2 0 0 296 563 300
529 2 2 0 0 246 252 251
530 2 2 0 0 285 286 206
531 2 2 0 0 288 289 287
532 2 2 0 0 298 372 371
533 2 2 0 0 23 35 22
534 2 2 0 0 300 344 304
535 2 2 0 0 344 462 345
536 2 2 0 0 123 128 122
537 2 2 0 0 297 389 342
538 2 2 0 0 237 277 259
539 2 2 0 0 148 285 206
540 2 2 0 0 86 89 88
541 2 2 0 0 306 307 283
542 2 2 0 0 234 279 233
543 2 2 0 0 316 416 160
544 2 2 0 0 188 190 189
545 2 2 0 0 85 98 82
546 2 2 0 0 358 428 359
547 2 2 0 0 437 455 438
548 2 2 0 0 203 210 201
549 2 2 0 0 382 383 313
550 2 2 0 0 153 176 156
551 2 2 0 0 290 354 289
552 2 2 0 0 159 241 162
553 2 2 0 0 386 387 126
554 2 2 0 0 273 363 338
555 2 2 0 0 272 326 276
556 2 2 0 0 171 293 173
557 2 2 0 0 145 148 147
558 2 2 0 0 274 295 261
559 2 2 0 0 285 313 286
560 2 2 0 0 383 384 313
561 2 2 0 0 301 302 299
562 2 2 0 0 131 133 132
563 2 2 0 0 296 298 295
564 2 2 0 0 305 310 302
565 2 2 0 0 349 412 328
566 2 2 0 0 344 345 304
567 2 2 0 0 77 119 75
568 2 2 0 0 315 378 310
569 2 2 0 0 363 401 400
570 2 2 0 0 332 333 278
571 2 2 0 0 223 233 222
572 2 2 0 0 331 334 332
573 2 2 0 0 186 188 187
574 2 2 0 0 178 212 177
575 2 2 0 0 305 360 315
576 2 2 0 0 334 396 395
577 2 2 0 0 246 251 215
578 2 2 0 0 167 261 260
579 2 2 0 0 175 179 178
580 2 2 0 0 345 346 304
581 2 2 0 0 124 386 126
582 2 2 0 0 286 288 287
583 2 2 0 0 331 332 278
584 2 2 0 0 179 181 180
585 2 2 0 0 301 305 302
586 2 2 0 0 300 304 301
587 2 2 0 0 296 300 299
588 2 2 0 0 305 315 310
589 2 2 0 0 296 299 298
590 2 2 0 0 320 453 290
591 2 2 0 0 274 296 295
592 2 2 0 0 313 531 286
593 2 2 0 0 120 281 280
594 2 2 0 0 360 409 315
595 2 2 0 0 363 400 338
596 2 2 0 0 129 130 128
597 2 2 0 0 300 301 299
598 2 2 0 0 1 508 23
599 2 2 0 0 167 273 261
600 2 2 0 0 133 135 134
601 2 2 0 0 173 174 172
602 2 2 0 0 311 377 376
603 2 2 0 0 273 274 261
604 2 2 0 0 273 338 274
605 2 2 0 0 334 395 332
606 2 2 0 0 183 197 184
607 2 2 0 0 319 393 320
608 2 2 0 0 449 450 446
609 2 2 0 0 288 290 289
610 2 2 0 0 226 306 283
611 2 2 0 0 326 380 327
612 2 2 0 0 175 177 174
613 2 2 0 0 181 183 182
614 2 2 0 0 219 230 211
615 2 2 0 0 308 335 307
616 2 2 0 0 267 311 292
617 2 2 0 0 169 170 164
618 2 2 0 0 288 319 290
619 2 2 0 0 126 165 125
620 2 2 0 0 120 280 121
621 2 2 0 0 130 357 128
622 2 2 0 0 195 200 199
623 2 2 0 0 169 171 170
624 2 2 0 0 171 172 170
625 2 2 0 0 184 186 185
626 2 2 0 0 73 282 71
627 2 2 0 0 252 294 251
628 2 2 0 0 319 320 290
629 2 2 0 0 131 132 130
630 2 2 0 0 393 394 320
631 2 2 0 0 171 173 172
632 2 2 0 0 4 34 3
633 2 2 0 0 218 220 219
634 2 2 0 0 267 292 217
635 2 2 0 0 184 185 182
636 2 2 0 0 188 194 190
637 2 2 0 0 56 70 54
638 2 2 0 0 377 405 376
639 2 2 0 0 449 470 450
640 2 2 0 0 179 180 178
641 2 2 0 0 173 175 174
642 2 2 0 0 175 178 177
643 2 2 0 0 250 329 328
644 2 2 0 0 311 376 292
645 2 2 0 0 329 571 350
646 2 2 0 0 347 370 348
647 2 2 0 0 220 222 219
648 2 2 0 0 376 385 292
649 2 2 0 0 133 134 132
650 2 2 0 0 134 136 132
651 2 2 0 0 306 308 307
652 2 2 0 0 200 203 201
653 2 2 0 0 233 247 222
654 2 2 0 0 98 460 82
655 2 2 0 0 329 349 328
656 2 2 0 0 326 381 380
657 2 2 0 0 347 348 270
658 2 2 0 0 181 182 180
659 2 2 0 0 121 122 115
660 2 2 0 0 350 351 349
661 2 2 0 0 308 336 335
662 2 2 0 0 350 403 352
663 2 2 0 0 470 471 450
664 2 2 0 0 203 211 210
665 2 2 0 0 218 219 211
666 2 2 0 0 183 184 182
667 2 2 0 0 370 463 422
668 2 2 0 0 306 402 308
669 2 2 0 0 203 218 211
670 2 2 0 0 71 490 70
671 2 2 0 0 329 350 349
672 2 2 0 0 436 437 414
673 2 2 0 0 124 126 125
674 2 2 0 0 413 414 353
675 2 2 0 0 422 423 348
676 2 2 0 0 352 353 351
677 2 2 0 0 370 422 348
678 2 2 0 0 350 352 351
679 2 2 0 0 413 436 414
680 2 2 0 0 352 413 353
681 2 2 0 0 120 121 115
682 2 2 0 0 110 480 117
683 2 2 0 0 124 125 116
684 2 2 0 0 126 521 165
685 2 2 0 0 113 120 115
686 2 2 0 0 127 440 410
687 2 2 0 0 114 124 116
688 2 2 0 0 543 544 530
689 2 2 0 0 488 489 487
690 2 2 0 0 585 637 366
691 2 2 0 0 543 570 544
692 2 2 0 0 113 115 114
693 2 2 0 0 127 410 106
694 2 2 0 0 114 116 112
695 2 2 0 0 195 515 200
696 2 2 0 0 491 493 492
697 2 2 0 0 12 487 13
698 2 2 0 0 546 547 321
699 2 2 0 0 330 457 411
700 2 2 0 0 157 543 530
701 2 2 0 0 519 520 291
702 2 2 0 0 28 488 487
703 2 2 0 0 111 112 110
704 2 2 0 0 312 534 257
705 2 2 0 0 476 732 412
706 2 2 0 0 27 458 442
707 2 2 0 0 385 636 620
708 2 2 0 0 176 559 156
709 2 2 0 0 593 634 366
710 2 2 0 0 589 590 224
711 2 2 0 0 113 114 112
712 2 2 0 0 109 127 106
713 2 2 0 0 270 564 245
714 2 2 0 0 443 506 445
715 2 2 0 0 491 492 396
716 2 2 0 0 388 624 502
717 2 2 0 0 445 506 448
718 2 2 0 0 30 500 15
719 2 2 0 0 20 504 21
720 2 2 0 0 64 475 60
721 2 2 0 0 287 542 206
722 2 2 0 0 23 508 35
723 2 2 0 0 302 558 299
724 2 2 0 0 70 551 54
725 2 2 0 0 62 598 64
726 2 2 0 0 424 491 396
727 2 2 0 0 407 456 340
728 2 2 0 0 545 546 321
729 2 2 0 0 330 411 397
730 2 2 0 0 72 536 74
731 2 2 0 0 238 574 136
732 2 2 0 0 659 660 420
733 2 2 0 0 395 538 332
734 2 2 0 0 143 527 145
735 2 2 0 0 412 675 476
736 2 2 0 0 239 513 358
737 2 2 0 0 157 530 529
738 2 2 0 0 518 519 291
739 2 2 0 0 449 482 470
740 2 2 0 0 207 713 479
741 2 2 0 0 119 523 75
742 2 2 0 0 109 670 127
743 2 2 0 0 10 501 40
744 2 2 0 0 508 509 35
745 2 2 0 0 96 606 94
746 2 2 0 0 331 459 334
747 2 2 0 0 286 531 288
748 2 2 0 0 290 453 354
749 2 2 0 0 282 490 71
750 2 2 0 0 384 531 313
751 2 2 0 0 289 524 287
752 2 2 0 0 349 550 412
753 2 2 0 0 165 521 256
754 2 2 0 0 82 460 77
755 2 2 0 0 155 543 157
756 2 2 0 0 201 549 199
757 2 2 0 0 273 591 363
758 2 2 0 0 387 521 126
759 2 2 0 0 114 516 124
760 2 2 0 0 53 561 57
761 2 2 0 0 266 554 309
762 2 2 0 0 257 534 255
763 2 2 0 0 205 553 213
764 2 2 0 0 142 522 225
765 2 2 0 0 435 481 356
766 2 2 0 0 216 568 303
767 2 2 0 0 300 563 344
768 2 2 0 0 214 568 209
769 2 2 0 0 112 480 110
770 2 2 0 0 350 571 403
771 2 2 0 0 347 572 485
772 2 2 0 0 275 572 271
773 2 2 0 0 274 563 296
774 2 2 0 0 171 586 293
775 2 2 0 0 162 576 237
776 2 2 0 0 133 580 163
777 2 2 0 0 11 501 10
778 2 2 0 0 295 584 261
779 2 2 0 0 129 583 131
780 2 2 0 0 215 586 169
781 2 2 0 0 250 505 329
782 2 2 0 0 168 588 224
783 2 2 0 0 321 548 170
784 2 2 0 0 262 593 366
785 2 2 0 0 166 646 314
786 2 2 0 0 520 535 291
787 2 2 0 0 373 663 493
788 2 2 0 0 291 535 185
789 2 2 0 0 101 607 97
790 2 2 0 0 130 574 357
791 2 2 0 0 158 570 543
792 2 2 0 0 31 501 11
793 2 2 0 0 444 552 503
794 2 2 0 0 156 559 159
795 2 2 0 0 236 594 505
796 2 2 0 0 206 542 149
797 2 2 0 0 54 551 52
798 2 2 0 0 74 536 373
799 2 2 0 0 337 558 302
800 2 2 0 0 150 532 147
801 2 2 0 0 379 728 457
802 2 2 0 0 299 558 298
803 2 2 0 0 332 538 333
804 2 2 0 0 145 527 148
805 2 2 0 0 514 515 192
806 2 2 0 0 15 500 14
807 2 2 0 0 75 523 73
808 2 2 0 0 467 501 31
809 2 2 0 0 254 592 125
810 2 2 0 0 172 545 321
811 2 2 0 0 144 522 142
812 2 2 0 0 528 532 150
813 2 2 0 0 187 518 291
814 2 2 0 0 553 599 213
815 2 2 0 0 383 603 384
816 2 2 0 0 282 698 490
817 2 2 0 0 244 517 240
818 2 2 0 0 353 525 404
819 2 2 0 0 395 540 538
820 2 2 0 0 94 606 118
821 2 2 0 0 117 539 107
822 2 2 0 0 185 535 182
823 2 2 0 0 388 502 50
824 2 2 0 0 167 591 273
825 2 2 0 0 147 532 146
826 2 2 0 0 92 608 91
827 2 2 0 0 472 676 368
828 2 2 0 0 364 592 254
829 2 2 0 0 21 504 44
830 2 2 0 0 365 597 248
831 2 2 0 0 125 592 116
832 2 2 0 0 588 589 224
833 2 2 0 0 111 113 112
834 2 2 0 0 63 469 408
835 2 2 0 0 105 109 106
836 2 2 0 0 242 526 243
837 2 2 0 0 439 712 29
838 2 2 0 0 240 517 234
839 2 2 0 0 346 533 304
840 2 2 0 0 14 500 38
841 2 2 0 0 494 495 484
842 2 2 0 0 127 630 440
843 2 2 0 0 208 537 204
844 2 2 0 0 175 562 179
845 2 2 0 0 303 626 555
846 2 2 0 0 359 526 242
847 2 2 0 0 243 526 268
848 2 2 0 0 217 537 208
849 2 2 0 0 58 498 55
850 2 2 0 0 503 552 30
851 2 2 0 0 13 499 12
852 2 2 0 0 268 621 569
853 2 2 0 0 489 497 487
854 2 2 0 0 475 498 58
855 2 2 0 0 430 526 359
856 2 2 0 0 248 597 99
857 2 2 0 0 292 537 217
858 2 2 0 0 26 645 45
859 2 2 0 0 234 517 279
860 2 2 0 0 14 497 39
861 2 2 0 0 385 537 292
862 2 2 0 0 305 533 360
863 2 2 0 0 304 533 301
864 2 2 0 0 146 532 284
865 2 2 0 0 483 494 484
866 2 2 0 0 173 562 175
867 2 2 0 0 116 480 112
868 2 2 0 0 224 590 246
869 2 2 0 0 189 518 187
870 2 2 0 0 498 536 72
871 2 2 0 0 414 525 353
872 2 2 0 0 160 522 144
873 2 2 0 0 547 609 548
874 2 2 0 0 182 535 180
875 2 2 0 0 297 601 389
876 2 2 0 0 44 594 81
877 2 2 0 0 301 533 305
878 2 2 0 0 105 106 96
879 2 2 0 0 515 596 200
880 2 2 0 0 293 562 173
881 2 2 0 0 73 523 282
882 2 2 0 0 148 527 285
883 2 2 0 0 174 545 172
884 2 2 0 0 218 596 323
885 2 2 0 0 200 596 203
886 2 2 0 0 149 542 151
887 2 2 0 0 446 552 444
888 2 2 0 0 49 461 330
889 2 2 0 0 330 397 48
890 2 2 0 0 453 738 377
891 2 2 0 0 255 534 324
892 2 2 0 0 52 551 388
893 2 2 0 0 634 646 260
894 2 2 0 0 513 615 358
895 2 2 0 0 438 525 414
896 2 2 0 0 516 618 386
897 2 2 0 0 198 518 189
898 2 2 0 0 227 566 361
899 2 2 0 0 559 560 241
900 2 2 0 0 90 587 93
901 2 2 0 0 416 522 160
902 2 2 0 0 102 591 167
903 2 2 0 0 134 609 137
904 2 2 0 0 298 558 372
905 2 2 0 0 132 574 130
906 2 2 0 0 106 606 96
907 2 2 0 0 159 559 241
908 2 2 0 0 32 611 6
909 2 2 0 0 158 543 155
910 2 2 0 0 223 513 239
911 2 2 0 0 288 531 319
912 2 2 0 0 323 513 220
913 2 2 0 0 115 516 114
914 2 2 0 0 521 601 297
915 2 2 0 0 610 698 455
916 2 2 0 0 354 600 431
917 2 2 0 0 351 550 349
918 2 2 0 0 256 521 297
919 2 2 0 0 140 604 138
920 2 2 0 0 77 460 119
921 2 2 0 0 17 503 16
922 2 2 0 0 9 502 10
923 2 2 0 0 104 587 331
924 2 2 0 0 152 528 150
925 2 2 0 0 315 541 378
926 2 2 0 0 170 548 164
927 2 2 0 0 590 659 420
928 2 2 0 0 11 624 28
929 2 2 0 0 199 549 202
930 2 2 0 0 502 624 10
931 2 2 0 0 453 600 354
932 2 2 0 0 42 43 41
933 2 2 0 0 38 499 13
934 2 2 0 0 285 527 382
935 2 2 0 0 190 514 192
936 2 2 0 0 157 529 528
937 2 2 0 0 231 643 549
938 2 2 0 0 331 587 459
939 2 2 0 0 451 701 232
940 2 2 0 0 99 597 100
941 2 2 0 0 361 568 214
942 2 2 0 0 372 740 544
943 2 2 0 0 221 545 174
944 2 2 0 0 138 604 238
945 2 2 0 0 340 572 275
946 2 2 0 0 338 563 274
947 2 2 0 0 524 542 287
948 2 2 0 0 265 595 312
949 2 2 0 0 111 511 113
950 2 2 0 0 580 658 588
951 2 2 0 0 580 588 163
952 2 2 0 0 237 576 277
953 2 2 0 0 444 503 36
954 2 2 0 0 131 583 580
955 2 2 0 0 505 571 329
956 2 2 0 0 203 596 218
957 2 2 0 0 584 634 260
958 2 2 0 0 261 584 260
959 2 2 0 0 369 647 365
960 2 2 0 0 251 586 215
961 2 2 0 0 348 564 270
962 2 2 0 0 450 552 446
963 2 2 0 0 390 496 391
964 2 2 0 0 66 598 62
965 2 2 0 0 465 623 423
966 2 2 0 0 258 591 102
967 2 2 0 0 343 566 227
968 2 2 0 0 564 623 244
969 2 2 0 0 154 617 141
970 2 2 0 0 324 534 392
971 2 2 0 0 50 502 37
972 2 2 0 0 524 556 542
973 2 2 0 0 544 700 372
974 2 2 0 0 122 516 115
975 2 2 0 0 177 557 221
976 2 2 0 0 489 698 610
977 2 2 0 0 93 587 104
978 2 2 0 0 136 574 132
979 2 2 0 0 593 646 634
980 2 2 0 0 116 592 480
981 2 2 0 0 143 617 527
982 2 2 0 0 225 604 140
983 2 2 0 0 137 631 139
984 2 2 0 0 549 553 202
985 2 2 0 0 164 548 135
986 2 2 0 0 404 550 351
987 2 2 0 0 34 721 473
988 2 2 0 0 220 513 223
989 2 2 0 0 317 640 511
990 2 2 0 0 100 597 258
991 2 2 0 0 588 658 589
992 2 2 0 0 323 615 513
993 2 2 0 0 568 626 303
994 2 2 0 0 377 605 405
995 2 2 0 0 178 613 212
996 2 2 0 0 493 628 373
997 2 2 0 0 157 528 152
998 2 2 0 0 591 627 363
999 2 2 0 0 409 541 315
1000 2 2 0 0 183 614 197
1001 2 2 0 0 103 598 66
1002 2 2 0 0 188 619 194
1003 2 2 0 0 213 599 226
1004 2 2 0 0 306 599 402
1005 2 2 0 0 97 607 25
1006 2 2 0 0 194 514 190
1007 2 2 0 0 373 628 76
1008 2 2 0 0 78 628 253
1009 2 2 0 0 42 47 43
1010 2 2 0 0 39 612 15
1011 2 2 0 0 16 612 29
1012 2 2 0 0 437 610 455
1013 2 2 0 0 487 497 13
1014 2 2 0 0 440 630 441
1015 2 2 0 0 479 713 562
1016 2 2 0 0 196 620 193
1017 2 2 0 0 456 572 340
1018 2 2 0 0 120 511 281
1019 2 2 0 0 577 578 235
1020 2 2 0 0 335 582 399
1021 2 2 0 0 314 741 683
1022 2 2 0 0 520 613 535
1023 2 2 0 0 585 634 584
1024 2 2 0 0 423 564 348
1025 2 2 0 0 457 561 411
1026 2 2 0 0 6 611 5
1027 2 2 0 0 385 620 537
1028 2 2 0 0 228 637 229
1029 2 2 0 0 366 637 249
1030 2 2 0 0 161 570 158
1031 2 2 0 0 434 640 435
1032 2 2 0 0 193 636 191
1033 2 2 0 0 410 606 106
1034 2 2 0 0 37 502 9
1035 2 2 0 0 36 503 17
1036 2 2 0 0 141 617 143
1037 2 2 0 0 363 627 401
1038 2 2 0 0 322 590 420
1039 2 2 0 0 357 618 128
1040 2 2 0 0 430 621 526
1041 2 2 0 0 540 687 103
1042 2 2 0 0 280 577 121
1043 2 2 0 0 276 575 318
1044 2 2 0 0 362 578 577
1045 2 2 0 0 109 649 496
1046 2 2 0 0 246 590 322
1047 2 2 0 0 326 569 381
1048 2 2 0 0 569 621 381
1049 2 2 0 0 269 569 272
1050 2 2 0 0 139 631 154
1051 2 2 0 0 649 664 496
1052 2 2 0 0 537 620 204
1053 2 2 0 0 355 461 49
1054 2 2 0 0 663 685 493
1055 2 2 0 0 479 745 207
1056 2 2 0 0 343 662 565
1057 2 2 0 0 212 557 177
1058 2 2 0 0 45 645 46
1059 2 2 0 0 496 670 109
1060 2 2 0 0 366 634 585
1061 2 2 0 0 384 616 531
1062 2 2 0 0 535 613 180
1063 2 2 0 0 391 632 364
1064 2 2 0 0 308 581 336
1065 2 2 0 0 344 625 462
1066 2 2 0 0 563 625 344
1067 2 2 0 0 13 497 14
1068 2 2 0 0 480 632 117
1069 2 2 0 0 371 668 585
1070 2 2 0 0 333 649 278
1071 2 2 0 0 387 601 521
1072 2 2 0 0 47 49 48
1073 2 2 0 0 358 615 428
1074 2 2 0 0 113 511 120
1075 2 2 0 0 527 617 382
1076 2 2 0 0 105 649 109
1077 2 2 0 0 398 573 307
1078 2 2 0 0 368 676 369
1079 2 2 0 0 180 613 178
1080 2 2 0 0 153 556 176
1081 2 2 0 0 432 657 367
1082 2 2 0 0 458 718 582
1083 2 2 0 0 207 614 183
1084 2 2 0 0 407 611 456
1085 2 2 0 0 244 623 517
1086 2 2 0 0 20 639 27
1087 2 2 0 0 476 675 87
1088 2 2 0 0 319 616 393
1089 2 2 0 0 474 707 197
1090 2 2 0 0 226 599 306
1091 2 2 0 0 47 48 43
1092 2 2 0 0 186 619 188
1093 2 2 0 0 412 732 328
1094 2 2 0 0 316 671 541
1095 2 2 0 0 293 734 478
1096 2 2 0 0 492 685 598
1097 2 2 0 0 528 629 532
1098 2 2 0 0 514 635 515
1099 2 2 0 0 531 616 319
1100 2 2 0 0 8 656 7
1101 2 2 0 0 387 602 601
1102 2 2 0 0 76 628 78
1103 2 2 0 0 122 618 516
1104 2 2 0 0 651 717 394
1105 2 2 0 0 423 623 564
1106 2 2 0 0 546 669 547
1107 2 2 0 0 4 679 34
1108 2 2 0 0 542 556 151
1109 2 2 0 0 548 609 135
1110 2 2 0 0 204 620 196
1111 2 2 0 0 529 629 528
1112 2 2 0 0 482 719 230
1113 2 2 0 0 258 627 591
1114 2 2 0 0 336 582 335
1115 2 2 0 0 197 686 667
1116 2 2 0 0 583 658 580
1117 2 2 0 0 85 675 98
1118 2 2 0 0 59 728 379
1119 2 2 0 0 400 625 338
1120 2 2 0 0 394 717 605
1121 2 2 0 0 471 650 450
1122 2 2 0 0 596 635 323
1123 2 2 0 0 249 637 228
1124 2 2 0 0 515 635 596
1125 2 2 0 0 338 625 563
1126 2 2 0 0 28 633 488
1127 2 2 0 0 566 622 361
1128 2 2 0 0 229 570 161
1129 2 2 0 0 468 654 465
1130 2 2 0 0 118 710 462
1131 2 2 0 0 15 612 16
1132 2 2 0 0 589 659 590
1133 2 2 0 0 526 621 268
1134 2 2 0 0 365 647 597
1135 2 2 0 0 579 583 235
1136 2 2 0 0 22 507 21
1137 2 2 0 0 342 682 264
1138 2 2 0 0 441 648 346
1139 2 2 0 0 191 636 198
1140 2 2 0 0 578 653 579
1141 2 2 0 0 135 609 134
1142 2 2 0 0 128 618 122
1143 2 2 0 0 378 681 310
1144 2 2 0 0 230 690 211
1145 2 2 0 0 210 690 232
1146 2 2 0 0 549 643 553
1147 2 2 0 0 233 661 247
1148 2 2 0 0 10 624 11
1149 2 2 0 0 640 709 435
1150 2 2 0 0 449 719 482
1151 2 2 0 0 452 726 33
1152 2 2 0 0 362 577 280
1153 2 2 0 0 318 575 433
1154 2 2 0 0 492 687 396
1155 2 2 0 0 586 734 293
1156 2 2 0 0 357 655 618
1157 2 2 0 0 277 567 259
1158 2 2 0 0 522 641 225
1159 2 2 0 0 511 640 281
1160 2 2 0 0 247 661 483
1161 2 2 0 0 610 693 39
1162 2 2 0 0 272 569 326
1163 2 2 0 0 490 695 70
1164 2 2 0 0 553 643 599
1165 2 2 0 0 532 629 284
1166 2 2 0 0 29 712 17
1167 2 2 0 0 632 665 117
1168 2 2 0 0 618 655 386
1169 2 2 0 0 241 699 576
1170 2 2 0 0 457 728 561
1171 2 2 0 0 485 572 456
1172 2 2 0 0 430 667 621
1173 2 2 0 0 582 672 458
1174 2 2 0 0 395 687 540
1175 2 2 0 0 504 594 44
1176 2 2 0 0 181 713 207
1177 2 2 0 0 197 707 184
1178 2 2 0 0 524 657 556
1179 2 2 0 0 475 536 498
1180 2 2 0 0 394 738 320
1181 2 2 0 0 51 714 561
1182 2 2 0 0 151 556 153
1183 2 2 0 0 437 693 610
1184 2 2 0 0 361 626 568
1185 2 2 0 0 611 679 5
1186 2 2 0 0 231 680 643
1187 2 2 0 0 462 706 118
1188 2 2 0 0 390 670 496
1189 2 2 0 0 602 642 601
1190 2 2 0 0 49 330 48
1191 2 2 0 0 391 665 632
1192 2 2 0 0 508 737 375
1193 2 2 0 0 450 650 552
1194 2 2 0 0 368 732 476
1195 2 2 0 0 578 579 235
1196 2 2 0 0 402 581 308
1197 2 2 0 0 43 486 41
1198 2 2 0 0 562 713 179
1199 2 2 0 0 592 632 480
1200 2 2 0 0 416 641 522
1201 2 2 0 0 372 668 371
1202 2 2 0 0 452 712 439
1203 2 2 0 0 282 720 455
1204 2 2 0 0 556 657 176
1205 2 2 0 0 364 632 592
1206 2 2 0 0 403 726 452
1207 2 2 0 0 465 654 623
1208 2 2 0 0 278 649 105
1209 2 2 0 0 154 652 617
1210 2 2 0 0 383 688 603
1211 2 2 0 0 451 719 447
1212 2 2 0 0 317 709 640
1213 2 2 0 0 604 711 642
1214 2 2 0 0 382 652 383
1215 2 2 0 0 601 642 389
1216 2 2 0 0 284 671 316
1217 2 2 0 0 599 643 402
1218 2 2 0 0 388 633 624
1219 2 2 0 0 267 678 311
1220 2 2 0 0 337 681 530
1221 2 2 0 0 279 661 233
1222 2 2 0 0 605 738 394
1223 2 2 0 0 33 677 504
1224 2 2 0 0 386 655 387
1225 2 2 0 0 547 669 631
1226 2 2 0 0 562 731 479
1227 2 2 0 0 360 648 595
1228 2 2 0 0 432 692 657
1229 2 2 0 0 367 657 524
1230 2 2 0 0 633 695 488
1231 2 2 0 0 415 473 341
1232 2 2 0 0 644 672 336
1233 2 2 0 0 551 633 388
1234 2 2 0 0 533 648 360
1235 2 2 0 0 407 679 611
1236 2 2 0 0 323 635 615
1237 2 2 0 0 530 681 529
1238 2 2 0 0 393 651 394
1239 2 2 0 0 387 655 602
1240 2 2 0 0 238 703 574
1241 2 2 0 0 594 677 505
1242 2 2 0 0 559 692 560
1243 2 2 0 0 621 667 381
1244 2 2 0 0 405 674 376
1245 2 2 0 0 325 732 368
1246 2 2 0 0 623 654 517
1247 2 2 0 0 581 644 336
1248 2 2 0 0 346 648 533
1249 2 2 0 0 517 654 279
1250 2 2 0 0 477 705 481
1251 2 2 0 0 481 705 355
1252 2 2 0 0 561 728 57
1253 2 2 0 0 379 705 477
1254 2 2 0 0 617 652 382
1255 2 2 0 0 30 650 500
1256 2 2 0 0 376 674 385
1257 2 2 0 0 518 715 519
1258 2 2 0 0 474 667 430
1259 2 2 0 0 478 734 294
1260 2 2 0 0 624 633 28
1261 2 2 0 0 186 707 619
1262 2 2 0 0 64 663 475
1263 2 2 0 0 597 647 258
1264 2 2 0 0 377 738 605
1265 2 2 0 0 31 735 467
1266 2 2 0 0 27 718 458
1267 2 2 0 0 419 673 68
1268 2 2 0 0 616 722 393
1269 2 2 0 0 24 723 419
1270 2 2 0 0 397 638 48
1271 2 2 0 0 404 730 460
1272 2 2 0 0 91 676 472
1273 2 2 0 0 622 626 361
1274 2 2 0 0 7 656 32
1275 2 2 0 0 576 697 277
1276 2 2 0 0 471 691 650
1277 2 2 0 0 536 663 373
1278 2 2 0 0 484 691 471
1279 2 2 0 0 552 650 30
1280 2 2 0 0 311 678 600
1281 2 2 0 0 486 729 5
1282 2 2 0 0 418 673 666
1283 2 2 0 0 232 680 231
1284 2 2 0 0 5 679 4
1285 2 2 0 0 117 665 539
1286 2 2 0 0 384 702 616
1287 2 2 0 0 557 702 221
1288 2 2 0 0 87 675 85
1289 2 2 0 0 225 711 604
1290 2 2 0 0 505 677 571
1291 2 2 0 0 483 661 494
1292 2 2 0 0 263 565 375
1293 2 2 0 0 504 677 594
1294 2 2 0 0 582 718 399
1295 2 2 0 0 645 714 46
1296 2 2 0 0 534 708 392
1297 2 2 0 0 643 680 402
1298 2 2 0 0 18 712 452
1299 2 2 0 0 392 670 390
1300 2 2 0 0 221 702 603
1301 2 2 0 0 496 664 391
1302 2 2 0 0 606 710 118
1303 2 2 0 0 655 703 602
1304 2 2 0 0 608 676 91
1305 2 2 0 0 194 684 514
1306 2 2 0 0 541 671 378
1307 2 2 0 0 154 669 652
1308 2 2 0 0 399 718 639
1309 2 2 0 0 405 715 674
1310 2 2 0 0 33 726 677
1311 2 2 0 0 629 671 284
1312 2 2 0 0 468 735 495
1313 2 2 0 0 469 704 408
1314 2 2 0 0 427 745 479
1315 2 2 0 0 294 734 251
1316 2 2 0 0 461 705 379
1317 2 2 0 0 385 674 636
1318 2 2 0 0 657 692 176
1319 2 2 0 0 561 714 411
1320 2 2 0 0 631 669 154
1321 2 2 0 0 264 682 265
1322 2 2 0 0 43 638 486
1323 2 2 0 0 48 638 43
1324 2 2 0 0 194 744 684
1325 2 2 0 0 381 686 380
1326 2 2 0 0 658 716 589
1327 2 2 0 0 263 567 565
1328 2 2 0 0 310 681 337
1329 2 2 0 0 493 685 492
1330 2 2 0 0 64 685 663
1331 2 2 0 0 309 678 267
1332 2 2 0 0 600 678 431
1333 2 2 0 0 538 694 333
1334 2 2 0 0 598 685 64
1335 2 2 0 0 551 695 633
1336 2 2 0 0 560 699 241
1337 2 2 0 0 211 690 210
1338 2 2 0 0 2 723 3
1339 2 2 0 0 630 708 441
1340 2 2 0 0 467 735 468
1341 2 2 0 0 396 687 395
1342 2 2 0 0 35 507 22
1343 2 2 0 0 259 567 263
1344 2 2 0 0 417 673 418
1345 2 2 0 0 614 686 197
1346 2 2 0 0 392 708 630
1347 2 2 0 0 5 729 6
1348 2 2 0 0 279 725 661
1349 2 2 0 0 6 729 26
1350 2 2 0 0 357 703 655
1351 2 2 0 0 514 684 635
1352 2 2 0 0 540 733 538
1353 2 2 0 0 374 741 593
1354 2 2 0 0 176 692 559
1355 2 2 0 0 650 691 500
1356 2 2 0 0 484 736 691
1357 2 2 0 0 83 733 540
1358 2 2 0 0 558 740 372
1359 2 2 0 0 626 697 555
1360 2 2 0 0 436 693 437
1361 2 2 0 0 375 737 374
1362 2 2 0 0 475 663 536
1363 2 2 0 0 636 674 198
1364 2 2 0 0 674 715 198
1365 2 2 0 0 70 695 551
1366 2 2 0 0 406 721 407
1367 2 2 0 0 677 726 571
1368 2 2 0 0 258 647 627
1369 2 2 0 0 448 701 451
1370 2 2 0 0 458 672 506
1371 2 2 0 0 229 700 570
1372 2 2 0 0 684 744 428
1373 2 2 0 0 570 700 544
1374 2 2 0 0 678 742 431
1375 2 2 0 0 646 741 314
1376 2 2 0 0 603 702 384
1377 2 2 0 0 478 731 293
1378 2 2 0 0 309 742 678
1379 2 2 0 0 380 686 614
1380 2 2 0 0 494 725 468
1381 2 2 0 0 500 691 38
1382 2 2 0 0 635 684 615
1383 2 2 0 0 661 725 494
1384 2 2 0 0 679 721 34
1385 2 2 0 0 509 510 35
1386 2 2 0 0 46 714 51
1387 2 2 0 0 615 684 428
1388 2 2 0 0 432 742 689
1389 2 2 0 0 179 713 181
1390 2 2 0 0 26 739 645
1391 2 2 0 0 35 510 507
1392 2 2 0 0 574 703 357
1393 2 2 0 0 184 707 186
1394 2 2 0 0 39 693 612
1395 2 2 0 0 665 694 539
1396 2 2 0 0 312 708 534
1397 2 2 0 0 554 689 309
1398 2 2 0 0 1 737 508
1399 2 2 0 0 519 717 520
1400 2 2 0 0 277 697 622
1401 2 2 0 0 389 711 641
1402 2 2 0 0 495 736 484
1403 2 2 0 0 17 712 18
1404 2 2 0 0 212 722 557
1405 2 2 0 0 455 720 438
1406 2 2 0 0 622 697 626
1407 2 2 0 0 664 694 665
1408 2 2 0 0 447 719 449
1409 2 2 0 0 669 688 652
1410 2 2 0 0 612 693 436
1411 2 2 0 0 619 744 194
1412 2 2 0 0 57 728 59
1413 2 2 0 0 579 658 583
1414 2 2 0 0 438 727 525
1415 2 2 0 0 539 733 83
1416 2 2 0 0 479 731 478
1417 2 2 0 0 691 736 38
1418 2 2 0 0 401 724 400
1419 2 2 0 0 420 660 2
1420 2 2 0 0 328 732 325
1421 2 2 0 0 320 738 453
1422 2 2 0 0 428 744 429
1423 2 2 0 0 431 742 432
1424 2 2 0 0 425 745 427
1425 2 2 0 0 408 743 434
1426 2 2 0 0 571 726 403
1427 2 2 0 0 119 727 523
1428 2 2 0 0 625 706 462
1429 2 2 0 0 525 730 404
1430 2 2 0 0 499 736 495
1431 2 2 0 0 468 725 654
1432 2 2 0 0 336 672 582
1433 2 2 0 0 198 715 518
1434 2 2 0 0 400 724 706
1435 2 2 0 0 402 680 581
1436 2 2 0 0 589 716 659
1437 2 2 0 0 727 730 525
1438 2 2 0 0 664 665 391
1439 2 2 0 0 337 740 558
1440 2 2 0 0 293 731 562
1441 2 2 0 0 523 720 282
1442 2 2 0 0 460 730 119
1443 2 2 0 0 641 711 225
1444 2 2 0 0 429 744 619
1445 2 2 0 0 119 730 727
1446 2 2 0 0 651 722 212
1447 2 2 0 0 38 736 499
1448 2 2 0 0 667 686 381
1449 2 2 0 0 652 688 383
1450 2 2 0 0 410 710 606
1451 2 2 0 0 644 701 448
1452 2 2 0 0 666 673 419
1453 2 2 0 0 704 743 408
1454 2 2 0 0 251 734 586
1455 2 2 0 0 400 706 625
1456 2 2 0 0 546 688 669
1457 2 2 0 0 668 700 229
1458 2 2 0 0 538 733 694
1459 2 2 0 0 333 694 664
1460 2 2 0 0 565 662 375
1461 2 2 0 0 720 727 438
1462 2 2 0 0 372 700 668
1463 2 2 0 0 579 716 658
1464 2 2 0 0 642 711 389
1465 2 2 0 0 355 705 461
1466 2 2 0 0 407 721 679
1467 2 2 0 0 523 727 720
1468 2 2 0 0 654 725 279
1469 2 2 0 0 639 718 27
1470 2 2 0 0 694 733 539
1471 2 2 0 0 393 722 651
1472 2 2 0 0 645 739 397
1473 2 2 0 0 683 741 374
1474 2 2 0 0 397 739 638
1475 2 2 0 0 653 716 579
1476 2 2 0 0 666 723 660
1477 2 2 0 0 419 723 666
1478 2 2 0 0 374 737 683
1479 2 2 0 0 593 741 646
1480 2 2 0 0 683 737 1
1481 2 2 0 0 689 742 309
1482 2 2 0 0 660 723 2
1483 2 2 0 0 23 25 1
1484 2 2 0 0 25 607 1
1485 2 2 0 0 3 34 2
1486 2 2 0 0 34 415 2
$EndElements
