$MeshFormat
2.2 0 8
$EndMeshFormat
$Nodes
745
1 3.4555589061736011e-05 1.1815584151153248e-05 1.0291443015555629e-03
2 4.1469274498271056e-05 -5.3976542657176891e-05 -1.0263862582071781e-03
3 1.3633677739673320e-04 1.7641730402130694e-05 -1.0183804021296346e-03
4 2.3164592827835674e-04 3.4901508939667818e-05 -9.9939342417561337e-04
5 3.6690083166741015e-04 3.0686994322838717e-05 -9.5470667799028050e-04
6 5.0686934768520849e-04 -3.0037892154704945e-06 -8.8115455211718453e-04
7 6.3769095840228375e-04 -1.6154359493460843e-05 -7.8321061848837152e-04
8 7.4783839111704253e-04 -1.6542291432553710e-05 -6.6954523281552902e-04
9 8.2896996497102153e-04 -8.4921900079585783e-06 -5.5689483402511270e-04
10 8.9722000134312158e-04 -1.2399251719760961e-06 -4.2776535569763046e-04
11 9.4799910855559695e-04 3.1748994066931555e-06 -2.8645901781713462e-04
12 9.7784429503078567e-04 3.5339955447071216e-06 -1.4186848224876091e-04
13 9.8724529233238127e-04 8.9910553144512217e-06 -4.8147629896989355e-06
14 9.7891813799365736e-04 9.1177188357812954e-06 1.3235624013182667e-04
15 9.5143401600396652e-04 9.8258530274468406e-06 2.7364051437241702e-04
16 9.0309212544851755e-04 1.5504841773790435e-05 4.1438212977287260e-04
17 8.3449955764763005e-04 7.0237774895166761e-06 5.4816847376877088e-04
18 7.4718152484822074e-04 -4.8718632243497049e-07 6.7075481114405120e-04
19 6.3755620755329991e-04 -2.3102529753152973e-06 7.8404449343932197e-04
20 5.1435552797492136e-04 1.4161663188898588e-06 8.7705079871039859e-04
21 3.8646987426261848e-04 6.3618792355090069e-06 9.4626801614303548e-04
22 2.6916700539714904e-04 -1.1109656888843420e-05 9.8983572954803646e-04
23 1.6655944895230707e-04 -1.5374620650459993e-05 1.0135932695076659e-03
24 1.5466664190512676e-04 1.5758004814023178e-04 -1.0027345437749651e-03
25 1.7165576740096875e-04 1.0089397559314698e-04 1.0088174494060432e-03
26 5.8801169029497878e-04 9.6581853144530217e-05 -8.1772101881987793e-04
27 5.7507371557034121e-04 -1.1587415121361370e-04 8.2604963706317492e-04
28 9.5892085418185647e-04 1.2426557215046186e-04 -2.0792356757826346e-04
29 8.5674484071086192e-04 1.4503229963454386e-04 4.8864674351471954e-04
30 9.2541944570316537e-04 -1.1025391886202655e-04 3.3862957134893145e-04
31 9.5847789239948179e-04 -1.1046258193891814e-04 -2.1672029719281883e-04
32 5.5281805555419184e-04 -1.1943547367128993e-04 -8.4183681105948335e-04
33 5.6190233591449715e-04 1.1136730825314423e-04 8.3645812612839082e-04
34 1.6912644862134021e-04 -7.9065156950043256e-05 -1.0110158436161766e-03
35 2.2707941703620308e-04 -1.2319194040637566e-04 9.9281268105862858e-04
36 7.9065360659409624e-04 -1.2666044354527376e-04 6.0042343921004810e-04
37 7.9427301332255960e-04 1.0972908355746049e-04 -5.9811838085540539e-04
38 9.7893071106258753e-04 -1.0504750459911340e-04 7.3515960091144705e-05
39 9.5959388946125228e-04 1.2619399022095653e-04 2.0145509133949512e-04
40 8.5572958799500691e-04 -1.2640431971985903e-04 -4.9441262757374900e-04
41 2.7756264987106334e-04 1.7756607810469227e-04 -9.6909498477121834e-04
42 2.4288005628705572e-04 2.6609952952555389e-04 -9.5673207209037313e-04
43 3.3756144457480698e-04 2.8316368336473390e-04 -9.1864430197071247e-04
44 3.0605324824766372e-04 1.0798502226458390e-04 9.7156202219067034e-04
45 7.0183172606020077e-04 9.9125852680254445e-05 -7.1379938337025328e-04
46 7.2502907747999180e-04 2.3724948590537998e-04 -6.5056629888745243e-04
47 2.8510316662584863e-04 3.7844796566495470e-04 -9.0056970195345786e-04
48 3.9390323008677757e-04 3.7691826874845709e-04 -8.5517399628433702e-04
49 3.3858516048315977e-04 4.7862796230020618e-04 -8.2503428297704359e-04
50 8.0848975066590554e-04 2.4715857413437858e-04 -5.2906044478784765e-04
51 7.3163927925290126e-04 3.7184383222089079e-04 -5.6934883733783992e-04
52 8.0771205166600235e-04 3.7645060322552012e-04 -4.4064057287276009e-04
53 7.2685607125285931e-04 4.9050547306331630e-04 -4.7032922921814578e-04
54 7.9527956924457094e-04 4.8390277360058586e-04 -3.4031529045092069e-04
55 7.1217470114988575e-04 5.9084928165781215e-04 -3.5606323703945566e-04
56 7.7247681794154535e-04 5.7311302195075869e-04 -2.2943811377924270e-04
57 6.4013157512451957e-04 5.9312954823770411e-04 -4.7810683702363135e-04
58 6.1264626194502687e-04 6.8630811889054655e-04 -3.7045031921820485e-04
59 5.2772264530386904e-04 6.8782476996757632e-04 -4.8912498875753219e-04
60 4.9344383492071924e-04 7.6927690412509104e-04 -3.8604420453299535e-04
61 3.9610689787618786e-04 7.6282981370633866e-04 -5.0338162979073498e-04
62 3.6032492448669648e-04 8.3812333159287422e-04 -3.9003701255176869e-04
63 2.1445428566793296e-04 4.7810802786859099e-04 -8.6969780569494729e-04
64 4.5436973602445182e-04 8.3240414357613299e-04 -2.8161539852841489e-04
65 2.5751377972676098e-04 8.2534633675287160e-04 -4.9418274519961178e-04
66 2.2650166758206647e-04 8.9106509873774521e-04 -3.7160435354773860e-04
67 1.2283019460087140e-04 8.6664839958835278e-04 -4.7306200012415319e-04
68 1.1912841247421777e-04 2.5102905604417787e-04 -9.8639915862137081e-04
69 1.4342607768088635e-04 7.8001576141958733e-04 -6.1147484512012447e-04
70 8.4884647604553990e-04 4.5951448051422786e-04 -2.1334337174785785e-04
71 8.2257698008663381e-04 5.3624977235929635e-04 -1.0458565232865048e-04
72 7.3302023875375323e-04 6.5022881456188906e-04 -1.2266350724046777e-04
73 7.6791253893109522e-04 6.2012625796316887e-04 -6.3033901450938417e-06
74 6.6536480843373401e-04 7.2865923635126797e-04 -2.0577626568509875e-05
75 6.8687195605484632e-04 7.0396836426177755e-04 8.4135736327413261e-05
76 5.7875208211944013e-04 7.9570359830965316e-04 7.8296435730403307e-05
77 6.0405510615968016e-04 7.5696379494077752e-04 1.9705514006252214e-04
78 4.8905580123736624e-04 8.3825906856652621e-04 1.8566698514680820e-04
79 9.2765624124494921e-05 9.2678907113134714e-04 -3.3766840787017509e-04
80 -1.6347305633726845e-05 8.9372684066264612e-04 -4.3320277039515489e-04
81 2.3256083709031523e-04 2.3067430121831886e-04 9.7032483336070353e-04
82 5.1951361405090527e-04 7.8220384532248939e-04 3.1564490477537009e-04
83 -3.9285371254208298e-05 9.4049968276516973e-04 -3.0549825991317510e-04
84 3.9517095822823095e-04 8.6076448783922288e-04 2.8767528798943074e-04
85 4.1607415622456941e-04 8.0082467375880613e-04 4.1457181027688413e-04
86 2.8856770991482977e-04 8.6902338709660522e-04 3.8175080331973043e-04
87 2.9960902638977713e-04 8.0680582183009818e-04 5.0071198269648531e-04
88 1.7258135295545731e-04 8.5844894344068781e-04 4.7202954801755484e-04
89 1.6268784804016840e-04 9.1620665233502771e-04 3.4046254929445213e-04
90 4.5366526941203188e-05 8.9776757061237630e-04 4.2194133849899864e-04
91 5.8511589066377981e-05 8.2695749451101332e-04 5.5523201926580684e-04
92 -6.2722537797481746e-05 8.5864859007550262e-04 4.9953848727115745e-04
93 -8.0784132786779122e-05 9.1677744175609277e-04 3.6861579654775059e-04
94 -1.9413438428272770e-04 8.6508008230357374e-04 4.4857376946332082e-04
95 -1.5194557251679191e-04 8.1462554595076412e-04 5.5393023885189042e-04
96 -2.2080253995387385e-04 9.0935297323223297e-04 3.2376774741952724e-04
97 1.0272798142805061e-04 2.3963527263431620e-04 9.9216277292349235e-04
98 5.4232933698478993e-04 6.9948478756626047e-04 4.5565621074243140e-04
99 1.6642288788841947e-04 3.4142407475682297e-04 9.4895648191614906e-04
100 3.5208783280380104e-05 3.5223041377896290e-04 9.5981943513662106e-04
101 -2.5862477227288402e-05 2.4788533310822903e-04 9.9539702152781802e-04
102 -9.9976306078457060e-05 3.4807905428229627e-04 9.5643414509981252e-04
103 2.0468851207816735e-04 9.3734175300078375e-04 -2.3844971007197386e-04
104 -9.9419254537317877e-05 9.5159883075567259e-04 2.4951136074513711e-04
105 -2.4803907036414683e-04 9.3457442764356745e-04 2.0276460185195244e-04
106 -3.6085164029602869e-04 8.7692126601702949e-04 2.8208630262122818e-04
107 -1.5255719690447503e-04 8.9917346483714194e-04 -3.8988420861185415e-04
108 -1.2468815663598432e-04 8.4524412532288465e-04 -5.1201469678689021e-04
109 -3.7982941428672459e-04 8.9836715517005558e-04 1.5268846098313361e-04
110 -2.6509486808813057e-04 8.4064990521613096e-04 -4.5973591350201954e-04
111 -2.3824471628130378e-04 7.7813065514747146e-04 -5.7920248258630893e-04
112 -3.6954921277475332e-04 7.6504852556334734e-04 -5.2040384900475063e-04
113 -3.3626250783845313e-04 6.9328798756019606e-04 -6.4001398618566572e-04
114 -4.6480177359354310e-04 6.7125534227165248e-04 -5.7488909017411739e-04
115 -4.2878553037984838e-04 5.8755994572991363e-04 -6.9256769418584146e-04
116 -4.8992520219745799e-04 7.4079080674291841e-04 -4.4553694786809647e-04
117 -2.8175920980228348e-04 8.8902003921240418e-04 -3.3307599181348448e-04
118 -2.8863004733136572e-04 7.8820563612146100e-04 5.3920527329559239e-04
119 7.0950283017738396e-04 6.5670142354662788e-04 2.0404896942887436e-04
120 -2.9845261017501760e-04 6.0658876065192418e-04 -7.4708885929921352e-04
121 -3.8839306356682417e-04 4.9232030652939169e-04 -7.9214577148234910e-04
122 -5.0880757068284528e-04 4.7107672294177888e-04 -7.2939034951152368e-04
123 -4.6187856255565114e-04 3.6800326100725600e-04 -8.2209664158337890e-04
124 -5.8165515364069699e-04 6.4046198459546922e-04 -4.9190097330604641e-04
125 -6.0206938283387538e-04 6.9886880117482218e-04 -3.6259852489702537e-04
126 -6.8817757790517781e-04 5.9160318700198639e-04 -4.0113333693184909e-04
127 -4.8299499966503293e-04 8.3183986638985929e-04 2.2677878133701252e-04
128 -5.7451685544284402e-04 3.4610323143894012e-04 -7.5199367700039006e-04
129 -5.2474706903995506e-04 2.4079605659360016e-04 -8.3225365787763066e-04
130 -6.3741262486698993e-04 2.1642991384150111e-04 -7.4966987961755176e-04
131 -5.8360177388115685e-04 1.1113319403757450e-04 -8.1946420783650322e-04
132 -6.9257184399806285e-04 8.8959579291781726e-05 -7.2454424212735401e-04
133 -6.2491833564524372e-04 -1.9675662508583252e-05 -7.9399925464078663e-04
134 -7.3050274865284366e-04 -3.9951505317952525e-05 -6.8811688917244966e-04
135 -6.5134611651447929e-04 -1.5285709657124265e-04 -7.5426712442047531e-04
136 -7.8821762376896185e-04 7.2624499688614814e-05 -6.1183499608737102e-04
137 -8.1615788964795424e-04 -6.0647280799399951e-05 -5.7230679159161611e-04
138 -8.6850502409574785e-04 4.4127129318869096e-05 -4.8374644272036348e-04
139 -8.8759740251404950e-04 -8.3665812200397371e-05 -4.3847127894270629e-04
140 -9.2745117230824399e-04 9.6916921247406521e-06 -3.4849068807913687e-04
141 -9.3516521029501963e-04 -1.1895179132133781e-04 -3.0151907099299321e-04
142 -9.6523117338078248e-04 -1.7055503012081229e-05 -2.1041393676773411e-04
143 -9.6240966132968536e-04 -1.5032003140167692e-04 -1.6239053211139235e-04
144 -9.8271581052990545e-04 -4.1428410977383951e-05 -7.9879945284443710e-05
145 -9.7097360634383189e-04 -1.7321147678569422e-04 -3.0080786957092424e-05
146 -9.8366581615532442e-04 -6.1192684363435096e-05 4.8836187700214879e-05
147 -9.6324045904352148e-04 -1.8939920761475585e-04 1.0454901321476272e-04
148 -9.3973351909834818e-04 -3.0063217646138717e-04 2.3650744725256424e-05
149 -9.2241116192830414e-04 -3.1594665476280452e-04 1.5893393090160744e-04
150 -9.3791702642813987e-04 -1.9829141207060281e-04 2.4300588929200928e-04
151 -8.8923814906452514e-04 -3.1981424600611064e-04 2.9522748342906133e-04
152 -8.9519359274693169e-04 -1.9931479190638779e-04 3.7804824123390451e-04
153 -8.3842454809839159e-04 -3.1458301418541712e-04 4.3021438278908396e-04
154 -8.8733203099496886e-04 -2.1633134785162009e-04 -3.8697214327189469e-04
155 -8.3141352821016737e-04 -2.0058162569152073e-04 5.1095609873419640e-04
156 -7.6566877878445647e-04 -3.1423121226571352e-04 5.5788267817884945e-04
157 -8.8026525530018310e-04 -7.9338074593870582e-05 4.5552081189481196e-04
158 -7.4432802864130736e-04 -2.1073362799668287e-04 6.3629538236729141e-04
159 -6.7041418946108032e-04 -3.2520302781269565e-04 6.7228203357251213e-04
160 -9.8393409585331064e-04 7.2359320980159122e-05 -1.5412493739114339e-06
161 -6.4279305129032410e-04 -2.1661905121619972e-04 7.4505256213215100e-04
162 -5.5639752327981567e-04 -3.2079163376334515e-04 7.7943741921321537e-04
163 -5.4194485054571452e-04 -1.2427751911866405e-04 -8.4839695667654946e-04
164 -5.6106907429802203e-04 -2.5423628314711477e-04 -8.0206799474924506e-04
165 -7.0351899560482968e-04 6.3908102166091059e-04 -2.7382047654111438e-04
166 -1.5506656835069540e-04 2.3431380787126255e-04 9.8604224837684591e-04
167 -2.3532780896890002e-04 3.3400930555241585e-04 9.3555233919448899e-04
168 -4.4451717708351160e-04 -2.1848828776457682e-04 -8.8863484857211797e-04
169 -4.5957067902511833e-04 -3.4320097761261585e-04 -8.3567715293055348e-04
170 -5.6957114253274391e-04 -3.8505969694837205e-04 -7.3615932447535881e-04
171 -4.6211155655087377e-04 -4.7332774854274927e-04 -7.6173404100398658e-04
172 -5.6305904546256837e-04 -5.1005649314607004e-04 -6.5461493570308118e-04
173 -4.5113829175590938e-04 -5.9719017196155854e-04 -6.6882413168771124e-04
174 -5.4768563499795159e-04 -6.2081408599231583e-04 -5.5794181700727504e-04
175 -4.3275791861798363e-04 -7.0358665159208614e-04 -5.6123065571821401e-04
176 -7.6767483506151785e-04 -4.2438441588619645e-04 4.6875417618433735e-04
177 -5.2279650150451453e-04 -7.1673538991862660e-04 -4.4887128734613581e-04
178 -4.0357396857887624e-04 -7.9320317535238997e-04 -4.4329987769279792e-04
179 -3.1455579649030801e-04 -7.7421234964535936e-04 -5.4537820684942648e-04
180 -2.8077569085935446e-04 -8.5216934817083077e-04 -4.2742405578474659e-04
181 -1.8263774877788546e-04 -8.2611546045297706e-04 -5.2799188848527386e-04
182 -1.5179654741298551e-04 -8.9398614735943969e-04 -4.0537876133211711e-04
183 -4.4531206237155918e-05 -8.5412718175700419e-04 -5.1235752159522292e-04
184 -1.0442295561213549e-05 -9.1547438345651773e-04 -3.8357752316800405e-04
185 -1.1147680504273064e-04 -9.4329409079300865e-04 -2.7981519115828109e-04
186 2.9593962725754710e-05 -9.5663995203143590e-04 -2.5183557729952899e-04
187 -6.0849523021099581e-05 -9.7421758241171888e-04 -1.5466295289052640e-04
188 7.9173435393555366e-05 -9.7674132322160458e-04 -1.2641081801129423e-04
189 -8.2270539654852476e-06 -9.8701523603499054e-04 -2.7887583363717100e-05
190 1.2292320234655869e-04 -9.7979137057886559e-04 6.1264740205442406e-06
191 3.6041769503658157e-05 -9.8174020724842116e-04 1.0380874097377052e-04
192 1.6621038202331847e-04 -9.6428857916592311e-04 1.3842236927845362e-04
193 6.8981938168873841e-05 -9.5766516828523255e-04 2.3989463087316704e-04
194 2.0972278765708644e-04 -9.6151088420402364e-04 -8.2358566065485542e-05
195 2.0244189940306153e-04 -9.3142446527697833e-04 2.6829183947418280e-04
196 1.0207750361589633e-04 -9.1595253993401573e-04 3.6851010422373159e-04
197 1.0874195506116668e-04 -8.7081901800499192e-04 -4.7137237950851068e-04
198 -9.1721487147524846e-05 -9.8030951207616073e-04 7.3974228935676792e-05
199 2.3456839378264212e-04 -8.8097510774090592e-04 3.9427302221610721e-04
200 3.3314845161229348e-04 -8.8771473389313686e-04 2.8685064282851249e-04
201 3.6331597543821215e-04 -8.2857893660651962e-04 4.1103502144225837e-04
202 1.3298703934282622e-04 -8.5428638807802490e-04 4.9575129762328052e-04
203 4.5915227715426069e-04 -8.2390063329628241e-04 3.0406958131592998e-04
204 -3.7741864685631687e-06 -8.8016653598325218e-04 4.6514179694956127e-04
205 2.7411181545562463e-05 -8.0665246913587374e-04 5.9114743520907796e-04
206 -8.8753831324415902e-04 -4.2595552706999870e-04 7.4397097577215757e-05
207 -7.9181587021639156e-05 -7.6794601970663361e-04 -6.3983198763693978e-04
208 -1.0817282714555694e-04 -8.2508506703413132e-04 5.5226770362606350e-04
209 -7.5874979872807161e-05 -7.4113571881281425e-04 6.7358160298319129e-04
210 4.8392777856079325e-04 -7.5608005925941314e-04 4.2716802161903416e-04
211 5.7140730961083785e-04 -7.4591557542868527e-04 3.1544862054367376e-04
212 -4.9082865038789730e-04 -7.9318625312712308e-04 -3.3485542633420319e-04
213 5.8311662638149102e-05 -7.1306372728899541e-04 7.0751822875159381e-04
214 -4.3288418799061798e-05 -6.3902294402169376e-04 7.8167157729173943e-04
215 -3.2879903836046732e-04 -3.0659892023379492e-04 -9.1493152777269806e-04
216 -2.0814031242275677e-04 -7.5051127233758536e-04 6.3062128985500821e-04
217 -2.3914744815322112e-04 -8.2641941064174078e-04 5.0308174959483917e-04
218 5.4863750611788061e-04 -7.9903288903721069e-04 1.9782070167747895e-04
219 6.5754457596095257e-04 -7.0839796737678787e-04 2.1222497975438405e-04
220 6.2694008141833647e-04 -7.5855309812021142e-04 8.9461713495024838e-05
221 -6.3223363306832015e-04 -6.2660174263978849e-04 -4.4197248887687849e-04
222 7.2586934176721422e-04 -6.6326206558958494e-04 9.9540951685233995e-05
223 6.8464120467515925e-04 -7.1153154378297075e-04 -2.4789590088169658e-05
224 -3.1334925375144421e-04 -1.7895482117850445e-04 -9.5699501428668835e-04
225 -9.4834820046284880e-04 1.0936221169972700e-04 -2.5690539320833902e-04
226 8.6931360382747405e-05 -6.0439804535196244e-04 8.0729731301622037e-04
227 -1.3640695601547254e-05 -5.2198761149594786e-04 8.7229743795353407e-04
228 -5.3248376086478116e-04 -1.9882390587214831e-04 8.3944466903551097e-04
229 -6.0949368665268297e-04 -9.9658645262894508e-05 8.0017794580897086e-04
230 6.6525271128551212e-04 -6.5309973690216014e-04 3.3831072709931156e-04
231 3.8796474143001062e-04 -7.4899631143469838e-04 5.3306180498372132e-04
232 5.1199718611609653e-04 -6.5381343139043959e-04 5.5645668419740271e-04
233 7.7089149285998113e-04 -6.1706849409199867e-04 -1.7383662297779837e-05
234 7.2475607182827001e-04 -6.5596041677361933e-04 -1.4515226504857121e-04
235 -4.0508494202268224e-04 2.6482579193413985e-04 -8.9497299048867812e-04
236 3.0007849021695959e-04 3.3503808081899322e-04 9.1481767556620135e-04
237 -4.3626118784340171e-04 -2.8814273803958465e-04 8.7146877211604821e-04
238 -8.3054972497381729e-04 1.9587840389746102e-04 -5.1533905007572999e-04
239 6.3158797221099863e-04 -7.4512428255798949e-04 -1.5086336886455906e-04
240 6.6601346634454156e-04 -6.8066795743451614e-04 -2.7090157338274578e-04
241 -5.7898698370748784e-04 -4.3836428093131495e-04 6.9468725245878113e-04
242 5.6642598979619635e-04 -7.6349627265826392e-04 -2.7711763873364910e-04
243 5.9262578033288625e-04 -6.9281801583796320e-04 -3.9365539130486522e-04
244 6.9574462491385784e-04 -5.9376619721470542e-04 -3.8614184875831770e-04
245 6.1466944989574097e-04 -5.9967643772506566e-04 -5.0623339491706078e-04
246 -1.9657023291967017e-04 -2.6062074221170175e-04 -9.7060711289653323e-04
247 8.0994439862246983e-04 -5.5695526921600153e-04 1.0057393571846623e-04
248 2.3719166314946428e-04 4.5316084173346427e-04 8.7844797668992596e-04
249 -4.2112939387724268e-04 -1.6520057571373686e-04 9.1345655025183476e-04
250 3.7055533540140587e-04 4.4937350903964451e-04 8.2884775317921611e-04
251 -2.1019881362705772e-04 -3.9615798604427976e-04 -9.1553280140893752e-04
252 -8.5898317104151446e-05 -3.4705690840738332e-04 -9.5870103935253984e-04
253 3.7941844195951371e-04 8.9878278155158884e-04 1.5381313288234162e-04
254 -6.1328355696242188e-04 7.3886515942633401e-04 -2.3381775948222422e-04
255 -7.0557409003412712e-04 6.7410551566019416e-04 -1.4880895518700046e-04
256 -7.8948730846964909e-04 5.6602679841010850e-04 -1.7759034185211935e-04
257 -7.7948915751030110e-04 6.0243071282668759e-04 -5.0077290280514051e-05
258 -3.6426479855139951e-05 4.5502710484155432e-04 9.1092378826248546e-04
259 -3.2035093276713627e-04 -2.5801434140368244e-04 9.3461855548695083e-04
260 -2.9212922388913891e-04 2.2330166871072844e-04 9.5400030314920072e-04
261 -3.7230149567405672e-04 3.2118034337503133e-04 8.9053583806919414e-04
262 -3.0117286511907013e-04 -1.2646329638032943e-04 9.7051503787923634e-04
263 -1.9380418707374194e-04 -2.1717594759385875e-04 9.8308461599770441e-04
264 -8.5324137671954599e-04 4.8989158769916082e-04 -7.3767205143033637e-05
265 -8.3302926177515764e-04 5.2537447607765961e-04 5.8798684085926952e-05
266 -3.3466341000492223e-04 -7.4568342782869296e-04 5.7517060207755725e-04
267 -3.5884849276642547e-04 -8.1538521113669370e-04 4.4141458978163423e-04
268 5.0519318304510818e-04 -6.9180228174101652e-04 -5.0998442681551186e-04
269 5.1845538956878817e-04 -5.9100361991243887e-04 -6.2082052969430243e-04
270 6.2968004946800302e-04 -4.8744343693019412e-04 -6.0663258708197425e-04
271 5.2416285744303216e-04 -4.7569281327820623e-04 -7.1575020352933696e-04
272 4.0223461314522173e-04 -5.6983776300792693e-04 -7.2669804492704539e-04
273 -3.1042957505226251e-04 4.2607086275345322e-04 8.6792287881359755e-04
274 -4.4357070491187991e-04 4.1819063107751997e-04 8.0683892876423798e-04
275 3.9667039010750691e-04 -4.5369847074660906e-04 -8.1365350018524848e-04
276 2.6890226531711453e-04 -5.3639228139260020e-04 -8.1574473214729426e-04
277 -3.3121013840620471e-04 -3.7075812185908701e-04 8.8768438986564359e-04
278 -1.2839149375809959e-04 9.7013343330425660e-04 1.2916536129600181e-04
279 8.0461407178654464e-04 -5.5719508551066628e-04 -1.3393952328518764e-04
280 -2.6389032974692396e-04 5.0181252669204406e-04 -8.4013459462006844e-04
281 -1.6145378966062586e-04 5.9819729190430755e-04 -7.9874399285791999e-04
282 8.5571027551230360e-04 4.9241895182916345e-04 3.6040164916467744e-05
283 1.0818230257425817e-04 -4.8402282949702046e-04 8.8892233265199200e-04
284 -9.7766292715067895e-04 4.8898237962180029e-05 1.2640223346149882e-04
285 -8.9765842577703089e-04 -4.0641608834310491e-04 -5.7642669207667127e-05
286 -8.3555299597631416e-04 -5.2545729385408474e-04 -1.3496078325750344e-05
287 -8.1882976541887528e-04 -5.3860550302656945e-04 1.2221701514507011e-04
288 -7.6135911971050873e-04 -6.2767616379210572e-04 3.1133410636237580e-05
289 -7.3836523696558544e-04 -6.3491088562526413e-04 1.6762390789321313e-04
290 -6.7167331484229722e-04 -7.1902732703022691e-04 8.1594185580971873e-05
291 -1.9722235394560331e-04 -9.5358796938430014e-04 -1.6995899002645389e-04
292 -2.7354736425322466e-04 -8.8085261239971297e-04 3.6589763173978929e-04
293 -3.3665939295692346e-04 -5.5752504205206985e-04 -7.7144807271486971e-04
294 -1.1272128247121608e-04 -4.8178782798544807e-04 -8.9004700207903230e-04
295 -5.0022988844718478e-04 3.0305472870131172e-04 8.2673306414220420e-04
296 -5.6452433093649181e-04 4.0611747637425059e-04 7.2744063785037212e-04
297 -8.5563635307197574e-04 4.4970217071189992e-04 -2.0471812729849745e-04
298 -6.1667985737037291e-04 2.7610884620595519e-04 7.4759914467938712e-04
299 -6.7322672904753954e-04 3.7942884664691150e-04 6.3720683267747512e-04
300 -6.0850475811627348e-04 5.0410689490642440e-04 6.1365916789527420e-04
301 -7.1363362851346922e-04 4.6663256662058208e-04 5.1546044874159242e-04
302 -7.7214501472622828e-04 3.3545597523429725e-04 5.3406034527920978e-04
303 -3.0479732583190268e-04 -6.5791332109514590e-04 6.9649613560960851e-04
304 -6.3873361362893916e-04 5.8306102362579084e-04 4.9326776341094322e-04
305 -8.0754993372490638e-04 4.0982402656509527e-04 4.0651505745640300e-04
306 2.1485311973389740e-04 -5.5886466958474307e-04 8.1693286950528768e-04
307 2.3364883555612121e-04 -4.3581713468461667e-04 8.8978760753474924e-04
308 3.4146137259044715e-04 -5.0282412486289262e-04 8.0972308207999757e-04
309 -4.4315145807415589e-04 -7.3723669217287864e-04 5.0179025661032815e-04
310 -8.5573945897993338e-04 2.8051913828700361e-04 4.1813349974051872e-04
311 -3.9978426045464335e-04 -8.5365310323351170e-04 3.0488627508728946e-04
312 -7.4623444097389534e-04 6.4018979347343842e-04 8.1203101514035203e-05
313 -8.3870147036240817e-04 -4.9981709349601025e-04 -1.4993249813347441e-04
314 -6.0253995670407112e-05 1.3115965714474823e-04 1.0183101487776037e-03
315 -8.8104107320452680e-04 3.4328283991058106e-04 2.9328884838592662e-04
316 -9.6700434105416076e-04 1.7949136244190680e-04 7.9595279750990357e-05
317 -9.6945552627955618e-05 7.7260158895447149e-04 -6.2911974465861692e-04
318 2.6462150445144799e-04 -4.1840611372460034e-04 -8.8920083950997568e-04
319 -6.8357095234290830e-04 -7.1027099348967002e-04 -5.4822421912052527e-05
320 -5.8786012270029323e-04 -7.9262870035734794e-04 2.8059599123013030e-07
321 -6.6269649392005194e-04 -4.1578950971605269e-04 -6.2490794639522679e-04
322 -7.6900209828775583e-05 -2.1403553451649699e-04 -1.0011989458390855e-03
323 5.1412146872442774e-04 -8.4026370603360891e-04 7.5842124408242968e-05
324 -6.1127401043451011e-04 7.6746943006456394e-04 -1.0353124308138138e-04
325 2.9808578260691863e-04 5.6355242531549348e-04 7.8322011152541905e-04
326 2.8047633594580849e-04 -6.4711184868184715e-04 -7.1818248141645861e-04
327 1.4871372223564547e-04 -6.1016015015651320e-04 -7.9244621380646909e-04
328 4.2806310007208171e-04 5.4979328145103937e-04 7.2633933726707635e-04
329 4.9810748324078823e-04 4.3826386955523754e-04 7.5963524520888742e-04
330 4.5352187654290236e-04 4.5864260270123022e-04 -7.7586189238951610e-04
331 1.5683829479871158e-05 9.7188074394684385e-04 1.7522420897553593e-04
332 -1.4211620628262705e-05 9.8519295604739552e-04 4.9545443417033296e-05
333 -1.5818092861864558e-04 9.7355790369617540e-04 -1.8318588277007025e-06
334 1.2426649793255445e-04 9.7518963298536833e-04 8.5612576628499228e-05
335 3.5857755651207493e-04 -3.7764915433504418e-04 8.7327247399487506e-04
336 4.5879994655301763e-04 -4.3590466274476237e-04 7.8794724178315621e-04
337 -8.1248927092025954e-04 2.0201334102096954e-04 5.4128382797820113e-04
338 -3.7297761197129339e-04 5.2275666148134386e-04 7.7859169453837161e-04
339 -1.2712821286158210e-04 4.7675197083991148e-04 -8.8934175739207439e-04
340 3.8108505511631004e-04 -3.2760283752317296e-04 -8.8454110598787589e-04
341 3.7162703533452654e-05 -3.0016783725217297e-04 -9.7919788282147978e-04
342 -9.1822789111372857e-04 3.5184872737287621e-04 -9.2817933628560858e-05
343 1.5402329316414964e-05 -3.9177877127937534e-04 9.4394605677501501e-04
344 -5.2732368783486427e-04 6.1321057057816294e-04 5.8699085683106933e-04
345 -5.4179716892488916e-04 7.0428744266976028e-04 4.4715500740638738e-04
346 -6.6071529103371707e-04 6.4417151266114902e-04 3.6234042472327825e-04
347 6.3054012463811674e-04 -3.6515678467365477e-04 -6.9259643031129524e-04
348 7.2512001983411254e-04 -3.6989766275739833e-04 -5.8061230771540187e-04
349 5.4677390593219891e-04 5.2609027297454087e-04 6.5547827798618401e-04
350 6.1690171510567356e-04 4.0839117683019553e-04 6.7875155013851450e-04
351 6.5959481710274939e-04 4.8754242181872620e-04 5.6991049688822194e-04
352 7.2210833198008736e-04 3.6310164865424789e-04 5.8854634385190324e-04
353 7.5544861488714449e-04 4.3509288512755761e-04 4.8072073315420685e-04
354 -6.4005432881336199e-04 -7.2405822769785729e-04 2.0820926869650496e-04
355 2.7389160027146303e-04 5.7817473236650076e-04 -7.8039053000031105e-04
356 1.4399674203890951e-04 5.7784195100749611e-04 -8.1831186833574592e-04
357 -6.7862621061024657e-04 3.2175008198234907e-04 -6.6396418245958408e-04
358 5.2876427290247192e-04 -8.2000315577987221e-04 -1.5775950517744560e-04
359 4.5411287790835653e-04 -8.3521399600742922e-04 -2.7677731952758969e-04
360 -8.1753368866936075e-04 4.7551126253890134e-04 2.9148239044982603e-04
361 -1.3941585624162157e-04 -5.5653792579460663e-04 8.3599406467347454e-04
362 -2.1222999050715875e-04 3.7524363463168280e-04 -9.2423177089001585e-04
363 -2.3934919311268600e-04 5.3114042126150326e-04 8.2795700915034697e-04
364 -5.1511574460980504e-04 8.2303722965855106e-04 -1.7947445491925789e-04
365 1.6787585403222938e-04 5.6804656286250715e-04 8.2081013746634370e-04
366 -3.8465396131296813e-04 -2.7218987816301426e-05 9.4624792781635716e-04
367 -6.9876669411739157e-04 -6.3657266581552822e-04 2.9483365408138057e-04
368 2.1430455242435538e-04 6.7306929392126297e-04 7.1715676980873037e-04
369 9.2320899887567170e-05 6.4751052189748965e-04 7.6684850225838439e-04
370 7.0839250242666252e-04 -2.4962431443708585e-04 -6.6612454497505763e-04
371 -5.4304894991031184e-04 1.7587649021683663e-04 8.3749535766363726e-04
372 -6.6864893481042513e-04 1.2468967321711201e-04 7.4392414607637655e-04
373 5.5841265066745025e-04 8.1254198877069278e-04 -3.9907406140061309e-05
374 -1.6091863767295732e-04 -7.6359900037993968e-05 1.0124652822600859e-03
375 -6.1766303352238502e-05 -1.6558277239561288e-04 1.0124743590182413e-03
376 -3.0303985619923641e-04 -9.1314987986666947e-04 2.3070701588255644e-04
377 -4.3961556824560809e-04 -8.7169901635420681e-04 1.5705575610746851e-04
378 -9.2235716281298624e-04 1.8950304885568167e-04 3.0813726349971081e-04
379 4.3657603403565438e-04 6.6104166343887384e-04 -6.1192766157860631e-04
380 1.6002299837760911e-04 -7.1608842395218556e-04 -6.8623671642985609e-04
381 2.8639765465477616e-04 -7.4385264617076894e-04 -6.0477752739441007e-04
382 -8.9266512305226028e-04 -3.7602987652587890e-04 -1.9513755132221996e-04
383 -8.2492303586271913e-04 -4.6695052432326508e-04 -2.8439853165697598e-04
384 -7.6579230526851040e-04 -5.7751886152232013e-04 -2.4142374214316102e-04
385 -1.7378549664008027e-04 -9.3184206556598255e-04 2.8727114357422664e-04
386 -6.5871660698967115e-04 5.2615922747112766e-04 -5.3154523926831970e-04
387 -7.5773901152907425e-04 4.7206107886673310e-04 -4.3515104301266851e-04
388 8.7550116146854447e-04 2.4416234348460396e-04 -3.9989936958412475e-04
389 -9.0165256996730737e-04 3.2274512117621949e-04 -2.4499501034971107e-04
390 -5.0930110673674334e-04 8.4337774242549193e-04 -4.5604936820222958e-05
391 -4.0972282404070579e-04 8.8959477774137657e-04 -1.1998171889211171e-04
392 -5.9671993951574938e-04 7.8465708106701954e-04 2.5526731823234505e-05
393 -5.8471816723875900e-04 -7.8550625189210824e-04 -1.2916884066473824e-04
394 -4.9485281734094693e-04 -8.5201605330653186e-04 -5.6779529718849303e-05
395 8.8328904394535605e-05 9.8157452945419168e-04 -4.1997667435400186e-05
396 2.2109403286321846e-04 9.6136336457723452e-04 -1.1394877728523674e-05
397 5.2551919996526180e-04 3.2618626962619145e-04 -8.0016458845531661e-04
398 2.7172775743042039e-04 -3.1279830498130538e-04 9.3336554745384866e-04
399 3.9200884257091989e-04 -2.3549778916966306e-04 9.1179742608535081e-04
400 -2.8283966725028563e-04 6.3065653009460444e-04 7.3117391032259801e-04
401 -1.7313710795452533e-04 6.1949069662612407e-04 7.7659601851100171e-04
402 3.1580296813221162e-04 -6.1830428399002146e-04 7.2976928521880692e-04
403 6.6581064953114726e-04 2.8359368312265567e-04 6.9746510940803014e-04
404 6.8172588217715977e-04 5.7548271673312933e-04 4.4008622188610830e-04
405 -3.0994330657400210e-04 -9.3250194505607341e-04 9.8314345200038362e-05
406 2.6138514010223254e-04 -2.9833302515434900e-04 -9.4134321332481081e-04
407 3.3955589471819576e-04 -1.8822012164015049e-04 -9.4521932923916801e-04
408 8.8406237549554185e-05 4.6412676172262707e-04 -9.0155661564380761e-04
409 -8.7969088050919467e-04 4.2357969855976477e-04 1.5398862488407195e-04
410 -4.5962019791976494e-04 8.0296624159859173e-04 3.5514725285560277e-04
411 5.5570811741569514e-04 4.3681103791739638e-04 -7.1397111886864234e-04
412 4.6372416899298621e-04 6.4166858986415510e-04 6.1300152755195498e-04
413 8.0985166467060306e-04 3.0568341118849418e-04 4.9297312645776663e-04
414 8.3902551368165946e-04 3.6553783843887885e-04 3.8347455300509947e-04
415 4.4545700363351021e-05 -1.8500466166689001e-04 -1.0098249855539389e-03
416 -9.6318903826047057e-04 2.1051279163697962e-04 -4.0493515473369840e-05
417 -8.4310443745357189e-05 3.5739907390993942e-04 -9.5371250670602632e-04
418 -1.4680060228058721e-04 2.5820333688053669e-04 -9.8064477607319976e-04
419 5.4764294093315733e-05 1.4988906516979136e-04 -1.0143379479934597e-03
420 -3.3067752514104029e-05 -9.5635966236109341e-05 -1.0237142462607915e-03
421 -9.3354012962861856e-04 3.1511823807463989e-04 5.5545245001915448e-05
422 7.9823290040725739e-04 -2.5068777024289066e-04 -5.4471717405993943e-04
423 8.0357587588126688e-04 -3.6865365332816721e-04 -4.5661861211107103e-04
424 2.4491380776162260e-04 9.4877103901356012e-04 1.2000459944357941e-04
425 2.2687577211601458e-05 -6.8836641208965389e-04 -7.3609867516979803e-04
426 3.3207225006677409e-05 -5.6093592283190533e-04 -8.4483815240625764e-04
427 -8.5251260457307402e-05 -6.1490033397552750e-04 -7.9755377202854721e-04
428 4.0877186603628359e-04 -8.8581914738052677e-04 -1.5640964257158016e-04
429 3.2186083988101531e-04 -8.9756849073410327e-04 -2.6556369528773105e-04
430 3.6185095208961379e-04 -8.3931037861223533e-04 -3.8756478844732871e-04
431 -5.8701264720852260e-04 -7.2683302043632470e-04 3.2980917211361419e-04
432 -6.3479043051007842e-04 -6.3176175305004712e-04 4.3142481856195744e-04
433 1.4703360001221052e-04 -3.5975475510729088e-04 -9.4521389876015775e-04
434 -5.2677945264823476e-06 5.6790062282782944e-04 -8.4052515622382550e-04
435 7.7840759407855014e-05 6.8040219839005588e-04 -7.3851912967793222e-04
436 8.8393039775245619e-04 2.4456656190868602e-04 3.7847748359851350e-04
437 8.9998068771601943e-04 3.1708230067809440e-04 2.6139483198271902e-04
438 8.4333624306957464e-04 4.4109620143543152e-04 2.7001510989752388e-04
439 7.6453421381398798e-04 2.2575032337996824e-04 6.0512574003831207e-04
440 -5.7505910493324509e-04 7.4760627380505041e-04 3.0063349464049026e-04
441 -6.8797498032783903e-04 6.7886700634358439e-04 2.0839858145256838e-04
442 6.8659408919092505e-04 -1.2635728769512270e-04 7.2597994983605830e-04
443 7.2570855238365242e-04 -2.4199369522494443e-04 6.4895230288163866e-04
444 8.1601561803366376e-04 -2.4234435492253141e-04 5.2005842095729550e-04
445 7.5267163934762346e-04 -3.5262149239026795e-04 5.5376402960691706e-04
446 8.2440945785295782e-04 -3.6068237952443898e-04 4.2255232262332912e-04
447 7.4859401494662586e-04 -4.7154936773780026e-04 4.5539452148184704e-04
448 6.6977428181231506e-04 -4.6095539506515668e-04 5.8178914278646601e-04
449 8.0552106322230382e-04 -4.7748716986147836e-04 3.2589239375813698e-04
450 8.7476136466228013e-04 -3.5777043205350933e-04 2.9730390894903654e-04
451 6.5259453607979486e-04 -5.7980340533523591e-04 4.8081707139286441e-04
452 6.8986735286639597e-04 1.3026359442543136e-04 7.2259415821338197e-04
453 -5.6370489242293194e-04 -8.0080414905140491e-04 1.2772481435865081e-04
454 2.3472999688577536e-05 -4.2623722372605037e-04 -9.2715631848400430e-04
455 8.9342806438192073e-04 3.9539916720546676e-04 1.4532486760543742e-04
456 4.7403528333907322e-04 -2.2442357870960689e-04 -8.7036876208616983e-04
457 5.0863559793080872e-04 5.4120772488932894e-04 -6.7444916651835047e-04
458 6.0435971928444858e-04 -2.4353177018755914e-04 7.7231683869991648e-04
459 1.4066034455028820e-04 9.5435429328594493e-04 2.1457545198444070e-04
460 6.3824487833036032e-04 6.8301591479242262e-04 3.2829142403819332e-04
461 3.9544339390467644e-04 5.7041242109426543e-04 -7.2837000303034745e-04
462 -4.2479268087125012e-04 7.0564324868215998e-04 5.6367085758273470e-04
463 7.7660198164709112e-04 -1.2919411357733274e-04 -6.1917139963521724e-04
464 8.7068102446153566e-04 -2.4492264580805342e-04 -4.1111383649224391e-04
465 8.6430319657623280e-04 -3.6057488164376164e-04 -3.2474762917449062e-04
466 7.6820309932532031e-06 8.2983858824614738e-04 -5.5396780801904245e-04
467 9.2024284126172807e-04 -2.3372981655266800e-04 -2.8049463336348498e-04
468 9.0895924748942097e-04 -3.4677184613772830e-04 -1.7733135246616910e-04
469 1.7498345551564723e-04 3.6752269643459322e-04 -9.3579833533942772e-04
470 8.4589120141767809e-04 -4.7027652729840985e-04 2.0449871297155620e-04
471 9.0902352422118210e-04 -3.4414976254660634e-04 1.7961684318872754e-04
472 1.8992894710572109e-04 7.8343548728575642e-04 5.9093862050399514e-04
473 1.2947005497741283e-04 -2.2406925455402857e-04 -9.9285208495310815e-04
474 2.2991225890701381e-04 -8.9365368893207686e-04 -3.6466155355915745e-04
475 5.7437518959806415e-04 7.6032254941761082e-04 -2.6548324665998622e-04
476 3.2940285588842200e-04 7.2626949689650960e-04 6.0344440118940599e-04
477 2.9756441470228949e-04 7.3969077600321588e-04 -6.0389272008449515e-04
478 -1.9976530571998600e-04 -5.7154206894412707e-04 -8.0994852125901014e-04
479 -1.7843592665450585e-04 -6.8165008345848991e-04 -7.1826270705411589e-04
480 -3.9089893387576669e-04 8.2241602635091187e-04 -3.9356690215154881e-04
481 2.1684568731936610e-04 6.7905499826613578e-04 -7.0888577137073500e-04
482 7.6122534383618362e-04 -5.8955362140378112e-04 2.3260008130267324e-04
483 8.7934134294382271e-04 -4.4148069254511203e-04 8.4456421891970597e-05
484 9.3297492595168093e-04 -3.1715357045667992e-04 5.6324461944635794e-05
485 6.0136343204517616e-04 -2.4502416647744402e-04 -7.7333638416433805e-04
486 4.0997252439141163e-04 1.9052432938265480e-04 -9.1272821329125913e-04
487 9.7760710848126273e-04 1.2034276262235903e-04 -6.8837403154288889e-05
488 9.4741997109504153e-04 2.5792980667731290e-04 -1.1402422566636999e-04
489 9.6187044313194041e-04 2.1892185308622741e-04 4.1999891841071592e-06
490 8.9389245841655675e-04 4.0827131138161654e-04 -9.7872119842119465e-05
491 3.4617025189684298e-04 9.2383203699940406e-04 1.8325061379352421e-05
492 3.0644813307050624e-04 9.2998386852921329e-04 -1.2994272360076811e-04
493 4.3949908792032335e-04 8.8059778726440048e-04 -7.0596120293884974e-05
494 9.0379622905110589e-04 -3.9500447878700095e-04 -3.8361238200258489e-05
495 9.4956187806047754e-04 -2.6375377004071276e-04 -5.5680476417501792e-05
496 -3.9843926071656834e-04 9.0209756816188064e-04 1.6496637960830128e-05
497 9.7726042549054165e-04 1.2390737638264771e-04 6.6505973449069468e-05
498 6.7982893015532315e-04 6.7595213608582041e-04 -2.4285915688687578e-04
499 9.7733492889764658e-04 -1.2430743253816920e-04 -7.2638685230995838e-05
500 9.6148805875894739e-04 -1.0591185655398815e-04 2.0484360717793620e-04
501 9.1767589708312758e-04 -1.2060498236032740e-04 -3.5661177892789788e-04
502 8.6550213323292370e-04 1.1714643218605629e-04 -4.7786454695047318e-04
503 8.6924380019663097e-04 -1.1695561507883871e-04 4.7117810325251119e-04
504 4.2775934549843644e-04 1.1391202213253626e-04 9.1882383882155045e-04
505 4.2931781601393868e-04 3.3266357226878436e-04 8.5751168141513540e-04
506 6.6100967429233025e-04 -3.5302142341555269e-04 6.6778992495951286e-04
507 3.3172168599629860e-04 -9.5415097685359348e-05 9.6361122380497560e-04
508 8.2037266245061521e-05 -1.0776886417092039e-04 1.0203178926688828e-03
509 1.6876877090772564e-04 -2.2412737294825907e-04 9.8626557458277335e-04
510 2.8001271111029755e-04 -2.0707527878680959e-04 9.6142151738360130e-04
511 -2.0360529521765844e-04 6.9717626852343231e-04 -6.9395771419977271e-04
512 2.7591613462133385e-04 9.1670162129808797e-04 2.4811049190446552e-04
513 5.8265016806630565e-04 -7.9686483393316785e-04 -3.3476530451726864e-05
514 2.5296583178980133e-04 -9.5360325156953552e-04 4.3019500870731889e-05
515 2.9726564996505488e-04 -9.2821394262319000e-04 1.6529078374741190e-04
516 -5.4878862576607386e-04 5.6311285276284466e-04 -6.1868943780614882e-04
517 7.5821417166716681e-04 -5.8023594821984673e-04 -2.6103352854681486e-04
518 -1.3773678031148357e-04 -9.7641870477941175e-04 -5.0469900284498664e-05
519 -2.7960041752401354e-04 -9.4623421419384973e-04 -4.9577013486420073e-05
520 -3.2783182647852104e-04 -9.1294110794673566e-04 -1.9119783806007776e-04
521 -7.8136218213806924e-04 5.2522620064727793e-04 -3.0536895440876120e-04
522 -9.7479487705217694e-04 9.3733954791427404e-05 -1.2360779047988622e-04
523 7.8173941831925298e-04 5.9211072361163943e-04 1.1361925418380748e-04
524 -7.8827192610718346e-04 -5.4023662059862960e-04 2.5618283381000415e-04
525 7.7802933906431727e-04 4.9705167437312276e-04 3.6142683007443354e-04
526 4.8369805667810900e-04 -7.7196107420917693e-04 -3.9536632323322574e-04
527 -9.4043863998866898e-04 -2.7943959053337110e-04 -1.0951005545951731e-04
528 -9.3297849148892909e-04 -7.8440173881556805e-05 3.2318223375847437e-04
529 -9.1127239096010996e-04 4.9017664282237000e-05 3.8919420665648022e-04
530 -8.3930830252541854e-04 5.5056571768480133e-05 5.3670516891357037e-04
531 -7.6878017167120302e-04 -6.1076405921119169e-04 -1.0658988730017441e-04
532 -9.6752963388749876e-04 -7.4740328490866445e-05 1.8516244597891116e-04
533 -7.3899169751609538e-04 5.3168701346084613e-04 3.9427508571302780e-04
534 -6.9073980403617206e-04 7.0343904378321223e-04 -2.2935131234519681e-05
535 -2.4265705163655849e-04 -9.1237464708424565e-04 -2.9998953002936064e-04
536 6.3172526062320257e-04 7.4622131817420924e-04 -1.3828422501392797e-04
537 -1.4110102891289622e-04 -8.8968741825594172e-04 4.2015218897825598e-04
538 -4.4485944970799159e-05 9.8209026447446893e-04 -8.1305939211958499e-05
539 -1.7161638841242284e-04 9.3660678672442127e-04 -2.6570619314787312e-04
540 5.8977867552326535e-05 9.6775184511846109e-04 -1.9173882285432092e-04
541 -9.3154547881756241e-04 2.7400139889628304e-04 1.8215047326641042e-04
542 -8.6244216450060145e-04 -4.3519984100117668e-04 2.1017084410604610e-04
543 -8.0363916836737851e-04 -9.2782567537595133e-05 5.8676468077323491e-04
544 -7.4752063453163980e-04 1.4821336338230950e-05 6.6854850051218902e-04
545 -6.5413192175345412e-04 -5.3553412055828465e-04 -5.2879418314256206e-04
546 -7.4416613203248183e-04 -4.2697212748421596e-04 -5.0590560023163215e-04
547 -7.5174365303125714e-04 -3.0440276911567453e-04 -5.8373661809178192e-04
548 -6.6583429857280127e-04 -2.8824577529910390e-04 -6.9525994725958148e-04
549 2.6182610120536001e-04 -8.1130038069267101e-04 5.1767639333682276e-04
550 5.8435941413918541e-04 5.8965003750120369e-04 5.5253082313327505e-04
551 8.6706389154855932e-04 3.6211495828350021e-04 -3.1347328480238403e-04
552 8.8290658758050067e-04 -2.3861377343680612e-04 3.8670636609063167e-04
553 1.6132430792719643e-04 -7.7155525752376029e-04 6.1800379052815400e-04
554 -4.5058660761885231e-04 -6.3978967862631008e-04 6.2629475886908997e-04
555 -3.8933344743199473e-04 -5.5321006796953164e-04 7.4721862697136622e-04
556 -8.2408814835119347e-04 -4.3159653387220406e-04 3.4179589893200066e-04
557 -6.0143106775188118e-04 -7.1459175983837081e-04 -3.3023985372766942e-04
558 -7.2595114746417213e-04 2.4438271840267835e-04 6.4578287205976762e-04
559 -6.8389989511811252e-04 -4.3179558441157958e-04 5.8703656744530470e-04
560 -5.9089714823989091e-04 -5.5517161826592058e-04 5.8570919315036626e-04
561 6.3461192035888642e-04 4.8923976266971258e-04 -5.9928249134004116e-04
562 -3.2838885319066253e-04 -6.7469327835954296e-04 -6.6683682694842475e-04
563 -4.9587900112323612e-04 5.1935201094182508e-04 7.0298574487690825e-04
564 7.1697560663207542e-04 -4.8943440550308420e-04 -4.8869255082356286e-04
565 -8.5799137878300936e-05 -3.0007871985572267e-04 9.7605787221288418e-04
566 -1.0296046322068047e-04 -4.3260048114354525e-04 9.1791921978048776e-04
567 -2.1160209627077393e-04 -3.3522901612370593e-04 9.4173363242123121e-04
568 -1.7351907877861519e-04 -6.5843545582796475e-04 7.4340575910850548e-04
569 4.0299944084462022e-04 -6.7565156003457111e-04 -6.1989589044506412e-04
570 -7.0585132675450731e-04 -1.0756874508561572e-04 7.0747973855771488e-04
571 5.5706113521157173e-04 3.2182643409137254e-04 7.7804372585185363e-04
572 5.1202738893414799e-04 -3.5381952912125414e-04 -7.9719749810728397e-04
573 1.4893604800719255e-04 -3.4876759362910208e-04 9.4967757694867103e-04
574 -7.3863170275237388e-04 1.9729444028736195e-04 -6.4746917892788500e-04
575 1.4744265601691935e-04 -4.9066125553368480e-04 -8.7847687390903736e-04
576 -4.5760993134376127e-04 -4.2925181754950153e-04 7.9332009128902628e-04
577 -3.3472073364683387e-04 3.9092612734372843e-04 -8.7601193307144855e-04
578 -2.7970351868061573e-04 2.7942127738650658e-04 -9.4149717280186430e-04
579 -3.3295563125070233e-04 1.5608482561945550e-04 -9.5357576993747198e-04
580 -5.0810826345012376e-04 4.7925846292334479e-06 -8.8041052870452903e-04
581 4.6432326022604660e-04 -5.6524623194933207e-04 6.9056930528121592e-04
582 4.7879781624065183e-04 -3.1314561766370428e-04 8.3702596683923338e-04
583 -4.6072980113447262e-04 1.3355050009462662e-04 -8.9752293425936279e-04
584 -4.1992793779327262e-04 2.0411749133620818e-04 9.0509828279877226e-04
585 -4.6636393417618960e-04 7.4995023272345811e-05 9.0199810547078726e-04
586 -3.4101030736829519e-04 -4.3022241483007590e-04 -8.5333244056345231e-04
587 3.0687922704541082e-05 9.4450322826994566e-04 2.9409048992630899e-04
588 -4.1708605802338975e-04 -9.2695685329449785e-05 -9.2632935539967013e-04
589 -2.8993647432943925e-04 -4.2218994210496700e-05 -9.8186435517455778e-04
590 -1.8032631191218775e-04 -1.2594234159980753e-04 -1.0030359599106564e-03
591 -1.7504699034915307e-04 4.4161095889238725e-04 9.0039260321050885e-04
592 -5.0720038806021067e-04 7.9037815298907074e-04 -3.1289376746131950e-04
593 -2.8063901266525508e-04 7.1099996108295211e-06 9.8575141230191504e-04
594 3.5554283308633948e-04 2.2625429084994009e-04 9.2959704180339625e-04
595 -7.9536990390120105e-04 5.5719355052757111e-04 1.8101046927871978e-04
596 4.2804981435959642e-04 -8.7256221383419515e-04 1.8265226752444617e-04
597 1.0421741097094022e-04 4.6415823228246621e-04 9.0009491030347197e-04
598 3.2600074051309920e-04 8.9331284538034467e-04 -2.7210377544029487e-04
599 1.8738587487416805e-04 -6.6995719845572223e-04 7.2853179370063032e-04
600 -5.2584873183993922e-04 -8.0117279096727134e-04 2.4592338793323404e-04
601 -8.3886335655577570e-04 4.0281401247515831e-04 -3.3943395594454031e-04
602 -8.0444988987472550e-04 3.4429722687489233e-04 -4.7223921608154280e-04
603 -7.3742188943850618e-04 -5.3644830416025462e-04 -3.9308496228592567e-04
604 -9.0408757101760736e-04 1.3747177280900503e-04 -3.8338433231383006e-04
605 -4.0151519132634297e-04 -9.0149010581452426e-04 1.5280708134706414e-05
606 -3.3071945083490125e-04 8.4484749531276847e-04 4.0172748138177016e-04
607 6.1038182898109182e-05 1.3464795908989556e-04 1.0167406063215252e-03
608 -4.4485217054868855e-05 7.7991930336088709e-04 6.2568235227466746e-04
609 -7.4864612052883870e-04 -1.7535375805413934e-04 -6.4254322058261823e-04
610 9.4562465730893932e-04 2.5340197611903320e-04 1.3572463714223480e-04
611 4.0953908017529853e-04 -9.3662145166025507e-05 -9.3033922895503817e-04
612 9.2216785712345847e-04 1.2884776520833587e-04 3.4034200055952166e-04
613 -3.7137538372205377e-04 -8.6282228290486247e-04 -3.1550721626994192e-04
614 5.4482111686122703e-05 -7.8961413949944184e-04 -6.1318494741360765e-04
615 4.6799687718175988e-04 -8.6855907608316719e-04 -4.4038904052895297e-05
616 -6.7505290433437322e-04 -6.9319471602445691e-04 -2.0564893034620159e-04
617 -9.2433330113213588e-04 -2.4943803487153778e-04 -2.4703084045107931e-04
618 -6.1694379613611884e-04 4.4575346592761719e-04 -6.5174028476607264e-04
619 1.8607603387719448e-04 -9.4463280975530463e-04 -2.3016827667621126e-04
620 -3.5757203229582817e-05 -9.3439844549626371e-04 3.2985573864702559e-04
621 3.8878340022533575e-04 -7.6794465388030624e-04 -5.0216672713759185e-04
622 -2.2694146656004091e-04 -4.6079888620795945e-04 8.7722218372657344e-04
623 7.8802909358830094e-04 -4.8115637211681680e-04 -3.6322801533804897e-04
624 9.2201796287250018e-04 1.1974942800135527e-04 -3.4487271663851532e-04
625 -4.1011855956932795e-04 6.1854065454174274e-04 6.7489121474072948e-04
626 -2.6347619740621926e-04 -5.6773451041462384e-04 7.9376922442601840e-04
627 -1.0873685711609520e-04 5.5364281068894048e-04 8.4202394641187033e-04
628 4.6755843544611767e-04 8.6725361563185085e-04 5.5644585908273305e-05
629 -9.5392135175471459e-04 4.8571639498946602e-05 2.5601839996043278e-04
630 -5.9218774915832521e-04 7.7229245191835023e-04 1.6610066957033304e-04
631 -8.2793770852680889e-04 -1.9476753824311768e-04 -5.1915011480378108e-04
632 -4.0353462118509006e-04 8.6555117487268501e-04 -2.5563427145942175e-04
633 9.2218503854520236e-04 2.4501170439869622e-04 -2.6284209589100857e-04
634 -3.4734867180019011e-04 9.6914888599061494e-05 9.5694544626089245e-04
635 3.8659864668087729e-04 -9.0669198878587094e-04 6.3365614045122218e-05
636 -6.2202858951491692e-05 -9.6610986507750620e-04 2.0184647951805679e-04
637 -4.9961721529207372e-04 -6.7313129225481523e-05 8.8304018098378165e-04
638 4.3055950664182296e-04 2.6489502152581945e-04 -8.8067670493993157e-04
639 4.5722272330657638e-04 -1.0923822058071142e-04 9.0373620697948903e-04
640 -6.0594023843942069e-05 6.8612008159800539e-04 -7.3424455491727858e-04
641 -9.4659191265476306e-04 2.2209663852530861e-04 -1.7234065169516259e-04
642 -8.7500181782614506e-04 2.7286895158914071e-04 -3.7798815504751909e-04
643 2.8972011643005173e-04 -7.2381128521846363e-04 6.2936122743098392e-04
644 5.6875411977133129e-04 -4.6055895653844851e-04 6.8836468296237189e-04
645 6.2927341407395152e-04 2.1689595455744813e-04 -7.5725574040955471e-04
646 -2.0810557874442794e-04 1.1717379990811385e-04 9.9807462996412779e-04
647 2.9693747300632127e-05 5.5725280054606222e-04 8.4662039859196116e-04
648 -7.4166791599905276e-04 5.8641779030479805e-04 2.8901537285058992e-04
649 -2.7315026734722948e-04 9.4502269612860236e-04 7.6027725421333906e-05
650 9.2719455539204735e-04 -2.2956867076123449e-04 2.5921100134325962e-04
651 -4.6415573331250924e-04 -8.5050051297192776e-04 -1.9939551857317734e-04
652 -8.7080913196640932e-04 -3.4163089579258073e-04 -3.2491776437583247e-04
653 -2.0282885808504169e-04 1.6295419298904731e-04 -9.9200665112861514e-04
654 8.3806709355533173e-04 -4.6913882740037659e-04 -2.3699807231843142e-04
655 -7.2091026666854733e-04 4.0574293460456481e-04 -5.5728140473035987e-04
656 6.8083917241384875e-04 -1.3144362871875967e-04 -7.3064732442956509e-04
657 -7.4148911603636055e-04 -5.3335359499231559e-04 3.8757491428975427e-04
658 -3.8170318454434546e-04 4.2648804254883349e-05 -9.4646919199792593e-04
659 -1.5714987428374269e-04 4.1157630684906725e-06 -1.0164443911436164e-03
660 -2.4050912054942616e-05 1.1498068582554042e-07 -1.0278621513339660e-03
661 8.4381313368799666e-04 -5.1208320701523187e-04 -1.8687588777364753e-05
662 3.1545497128117870e-05 -2.7443140416507299e-04 9.8804823426591813e-04
663 5.1919910412286411e-04 8.2338245561394089e-04 -1.6534557729812284e-04
664 -2.9174157558909081e-04 9.4052802193461183e-04 -5.6904523790914135e-05
665 -2.9387091002183285e-04 9.2229901420139496e-04 -1.9549946709880258e-04
666 -5.4364269926826750e-05 1.2282173369186538e-04 -1.0197894680723252e-03
667 2.6160803168122208e-04 -8.2827631606002046e-04 -4.8707198429665059e-04
668 -5.7602607533601227e-04 3.8819622297913539e-05 8.3232535641739828e-04
669 -8.2387027843331307e-04 -3.2031649465481116e-04 -4.5456563449927938e-04
670 -4.9488368565576838e-04 8.4854960800321113e-04 9.1606838930019329e-05
671 -9.5678388481792412e-04 1.4976092216631765e-04 1.9085651184531452e-04
672 5.5930305104476611e-04 -3.5339749262944232e-04 7.6060386959989805e-04
673 -9.8201491245697848e-06 2.4858327113064498e-04 -9.9484807752450873e-04
674 -1.9163388461974077e-04 -9.5676854961094832e-04 1.5541370688280674e-04
675 4.1524057935167236e-04 7.4223408847943117e-04 5.1783114624075947e-04
676 7.6973587320465668e-05 7.3946155025825776e-04 6.7387020225594607e-04
677 4.8969272907977736e-04 2.2305260010059021e-04 8.6083141873697906e-04
678 -4.7847908292921029e-04 -7.8393100412405166e-04 3.7461284320840623e-04
679 2.7324686328649279e-04 -5.9998970766049981e-05 -9.8661180031769111e-04
680 3.9884606397637835e-04 -6.6508111532686805e-04 6.3366405122124993e-04
681 -8.7666581193699626e-04 1.5813480889543679e-04 4.3789063329407422e-04
682 -8.9071243485880781e-04 4.2218936065608443e-04 2.0703598947787781e-05
683 -7.1420446739547716e-05 6.4411022764039136e-07 1.0254613564066391e-03
684 3.3833081289029389e-04 -9.2578029403892826e-04 -5.7792725516634351e-05
685 4.1400801392681423e-04 8.7605343875179380e-04 -1.8739685508414788e-04
686 1.7774974839285623e-04 -7.9653357526548378e-04 -5.7510543582390682e-04
687 1.7778979712011623e-04 9.6257170002836498e-04 -1.2050702740292715e-04
688 -8.0557612635695616e-04 -4.2153367442598227e-04 -3.9540411256382791e-04
689 -5.3258902698462458e-04 -6.6284416751089448e-04 5.1806488048332215e-04
690 5.8220208933995458e-04 -6.8417481415370437e-04 4.2362439862144027e-04
691 9.5389065048886534e-04 -2.1601957043740426e-04 1.3752783860894092e-04
692 -6.9386528572329170e-04 -5.1563136241396495e-04 4.9217550241888728e-04
693 9.2941150246620384e-04 2.1597716386878403e-04 2.5903183769345064e-04
694 -1.7359145768924600e-04 9.6193804257816958e-04 -1.3456194446025127e-04
695 9.0093976512384201e-04 3.5057946177824239e-04 -2.0295998915786356e-04
696 -4.8198086491424288e-05 6.7129957754870047e-04 7.5103661740441097e-04
697 -3.3000865053534973e-04 -4.7194432096310713e-04 8.3288245639985840e-04
698 9.2499375150769769e-04 3.4473295738267378e-04 1.7890071287470786e-05
699 -5.0130113352788060e-04 -5.1950832030124062e-04 6.9842307960603877e-04
700 -6.6117449254921110e-04 -4.9626277318738013e-06 7.6007726111983675e-04
701 5.8285585882098619e-04 -5.4515232076510559e-04 6.0264094191374274e-04
702 -6.8868945258828882e-04 -6.3253504633722078e-04 -3.2472067412199138e-04
703 -7.6031927631799352e-04 2.8963159298776869e-04 -5.7728906194625177e-04
704 4.4754393850781902e-05 3.4902954652505307e-04 -9.5989402780736978e-04
705 3.2577428631536381e-04 6.4758061069671784e-04 -6.9404334444689081e-04
706 -3.2107282682428015e-04 6.9515304697075932e-04 6.4451499378951574e-04
707 1.0285000719379051e-04 -9.2370885451229434e-04 -3.4338604644135239e-04
708 -6.6409961816842218e-04 7.2279205732727649e-04 9.1751169289834480e-05
709 1.6122248990938611e-05 7.5704955974999623e-04 -6.5570098196003179e-04
710 -4.1273339975178141e-04 7.7318881510553804e-04 4.6812189132393366e-04
711 -9.2124377281569813e-04 2.0989080702871546e-04 -2.9045227366509722e-04
712 7.8672428911514148e-04 1.0547644922360030e-04 6.0856145498338558e-04
713 -2.1662324841726911e-04 -7.5324302024498896e-04 -6.2166090348773667e-04
714 6.4604920643938468e-04 3.4439463816658239e-04 -6.8754426080973471e-04
715 -2.0329330113120773e-04 -9.6457124627561601e-04 3.8784455591150445e-05
716 -2.8233870928103021e-04 7.6373870140869198e-05 -9.8109847972760672e-04
717 -3.9096706538530919e-04 -9.0080117925186878e-04 -9.6818181844356230e-05
718 5.0161479108542877e-04 -1.9895835115934447e-04 8.5944456352188845e-04
719 7.3629023120455302e-04 -5.5567031139062625e-04 3.6407817144450805e-04
720 8.4152605061368630e-04 4.9292404687113929e-04 1.5124969736149716e-04
721 2.2619730213332254e-04 -1.6638675126685708e-04 -9.8522057464061393e-04
722 -5.6620976667516761e-04 -7.7379942272652364e-04 -2.3990365194010539e-04
723 7.0637196548710353e-05 6.8330735212158262e-05 -1.0234103217124579e-03
724 -1.9366669504087029e-04 7.2000791798995786e-04 6.7227264130628641e-04
725 8.6604600067700206e-04 -4.5658189036567817e-04 -1.2457178887161012e-04
726 5.9742264174491688e-04 2.1535498847402679e-04 7.8449517744255985e-04
727 7.8295392166410861e-04 5.5395537624597141e-04 2.3934829291990200e-04
728 5.5646166505757472e-04 6.0048492639373330e-04 -5.7031075714756316e-04
729 4.9960252553236972e-04 9.2751559969821889e-05 -8.7919205626035206e-04
730 7.1563215911174972e-04 6.0064533953153344e-04 3.2679108745281175e-04
731 -2.6007780694623428e-04 -6.2556723466511508e-04 -7.4343409244812214e-04
732 3.4982657886886562e-04 6.3041945080760209e-04 6.9895416158635671e-04
733 -7.2828662793329566e-05 9.6348760624012956e-04 -2.0050336241990348e-04
734 -2.4302303495716383e-04 -4.8907960592288100e-04 -8.5435637754026827e-04
735 9.4898569648228055e-04 -2.1908329060480917e-04 -1.6183139699052276e-04
736 9.6626299651369053e-04 -1.9665127691156117e-04 2.2445586758599742e-05
737 -2.5554093603026320e-05 -6.2505689779774340e-05 1.0261387046730818e-03
738 -5.0410767745784173e-04 -8.4616779604836231e-04 5.2760571179745302e-05
739 5.3141799203271320e-04 2.0132940383439015e-04 -8.3843817459778192e-04
740 -7.6223409209827322e-04 1.2657930169070105e-04 6.3560417187437563e-04
741 -1.6288616340331434e-04 5.0483206171714281e-05 1.0124971047818917e-03
742 -5.4433518429959638e-04 -7.1225052015348831e-04 4.2585589036806340e-04
743 -1.9676672989451191e-05 4.5202897006856615e-04 -9.1181195459171741e-04
744 2.9724252241426872e-04 -9.2703952183927855e-04 -1.6541750444280329e-04
745 -7.4484054313145616e-05 -6.9057752770322275e-04 -7.2657310012060083e-04
$EndNodes
$Elements
1486
1 2 2 0 0 410 440 345
2 2 2 0 0 421 541 409
3 2 2 0 0 409 682 421
4 2 2 0 0 545 603 546
5 2 2 0 0 426 427 294
6 2 2 0 0 294 454 426
7 2 2 0 0 265 682 409
8 2 2 0 0 24 41 4
9 2 2 0 0 3 24 4
10 2 2 0 0 238 642 602
11 2 2 0 0 520 651 613
12 2 2 0 0 653 666 659
13 2 2 0 0 404 460 98
14 2 2 0 0 222 482 219
15 2 2 0 0 40 463 9
16 2 2 0 0 608 724 696
17 2 2 0 0 435 709 69
18 2 2 0 0 413 439 29
19 2 2 0 0 345 710 410
20 2 2 0 0 422 463 40
21 2 2 0 0 98 550 404
22 2 2 0 0 95 724 608
23 2 2 0 0 4 41 5
24 2 2 0 0 232 701 581
25 2 2 0 0 490 698 488
26 2 2 0 0 29 436 413
27 2 2 0 0 416 421 342
28 2 2 0 0 312 595 441
29 2 2 0 0 41 486 5
30 2 2 0 0 405 605 519
31 2 2 0 0 409 595 265
32 2 2 0 0 69 481 435
33 2 2 0 0 434 743 339
34 2 2 0 0 342 641 416
35 2 2 0 0 485 656 370
36 2 2 0 0 89 587 90
37 2 2 0 0 108 466 317
38 2 2 0 0 378 629 529
39 2 2 0 0 581 680 232
40 2 2 0 0 281 434 339
41 2 2 0 0 638 739 486
42 2 2 0 0 659 666 660
43 2 2 0 0 345 440 346
44 2 2 0 0 22 44 25
45 2 2 0 0 9 463 8
46 2 2 0 0 44 81 25
47 2 2 0 0 459 587 89
48 2 2 0 0 127 670 630
49 2 2 0 0 508 662 509
50 2 2 0 0 375 662 508
51 2 2 0 0 492 598 103
52 2 2 0 0 604 642 238
53 2 2 0 0 507 510 399
54 2 2 0 0 488 698 489
55 2 2 0 0 34 473 415
56 2 2 0 0 399 639 507
57 2 2 0 0 603 688 546
58 2 2 0 0 316 541 421
59 2 2 0 0 647 696 627
60 2 2 0 0 403 439 352
61 2 2 0 0 221 603 545
62 2 2 0 0 595 648 441
63 2 2 0 0 412 550 98
64 2 2 0 0 411 714 397
65 2 2 0 0 486 739 729
66 2 2 0 0 696 724 401
67 2 2 0 0 247 482 222
68 2 2 0 0 397 714 645
69 2 2 0 0 613 651 212
70 2 2 0 0 207 745 425
71 2 2 0 0 98 675 412
72 2 2 0 0 219 482 230
73 2 2 0 0 560 692 432
74 2 2 0 0 432 689 560
75 2 2 0 0 454 575 426
76 2 2 0 0 352 439 413
77 2 2 0 0 415 420 2
78 2 2 0 0 40 464 422
79 2 2 0 0 89 512 459
80 2 2 0 0 425 614 207
81 2 2 0 0 377 600 453
82 2 2 0 0 89 90 88
83 2 2 0 0 80 466 108
84 2 2 0 0 520 717 651
85 2 2 0 0 602 703 238
86 2 2 0 0 103 687 492
87 2 2 0 0 253 491 424
88 2 2 0 0 69 709 466
89 2 2 0 0 424 512 253
90 2 2 0 0 369 696 647
91 2 2 0 0 581 701 644
92 2 2 0 0 630 670 392
93 2 2 0 0 32 656 485
94 2 2 0 0 459 512 424
95 2 2 0 0 90 91 88
96 2 2 0 0 427 478 294
97 2 2 0 0 488 695 490
98 2 2 0 0 554 699 560
99 2 2 0 0 67 80 79
100 2 2 0 0 252 454 294
101 2 2 0 0 253 628 491
102 2 2 0 0 529 681 378
103 2 2 0 0 519 715 405
104 2 2 0 0 440 441 346
105 2 2 0 0 605 717 519
106 2 2 0 0 403 452 439
107 2 2 0 0 507 639 21
108 2 2 0 0 565 567 566
109 2 2 0 0 433 454 341
110 2 2 0 0 67 466 80
111 2 2 0 0 555 697 576
112 2 2 0 0 491 628 493
113 2 2 0 0 389 641 342
114 2 2 0 0 429 619 474
115 2 2 0 0 40 501 464
116 2 2 0 0 576 699 555
117 2 2 0 0 311 600 377
118 2 2 0 0 567 622 566
119 2 2 0 0 433 575 454
120 2 2 0 0 378 671 629
121 2 2 0 0 79 540 103
122 2 2 0 0 341 473 433
123 2 2 0 0 673 704 68
124 2 2 0 0 462 710 345
125 2 2 0 0 557 722 616
126 2 2 0 0 573 662 343
127 2 2 0 0 370 656 463
128 2 2 0 0 341 454 252
129 2 2 0 0 616 702 557
130 2 2 0 0 6 26 7
131 2 2 0 0 464 501 467
132 2 2 0 0 433 473 406
133 2 2 0 0 8 45 37
134 2 2 0 0 466 709 317
135 2 2 0 0 457 461 379
136 2 2 0 0 84 512 86
137 2 2 0 0 19 452 33
138 2 2 0 0 380 614 425
139 2 2 0 0 83 540 79
140 2 2 0 0 398 510 509
141 2 2 0 0 609 631 137
142 2 2 0 0 18 442 36
143 2 2 0 0 26 45 7
144 2 2 0 0 565 566 343
145 2 2 0 0 80 83 79
146 2 2 0 0 560 689 554
147 2 2 0 0 134 137 136
148 2 2 0 0 68 469 42
149 2 2 0 0 659 716 653
150 2 2 0 0 619 707 474
151 2 2 0 0 497 610 39
152 2 2 0 0 137 138 136
153 2 2 0 0 283 573 343
154 2 2 0 0 506 644 448
155 2 2 0 0 499 735 31
156 2 2 0 0 81 97 25
157 2 2 0 0 45 46 37
158 2 2 0 0 585 668 637
159 2 2 0 0 495 735 499
160 2 2 0 0 399 510 398
161 2 2 0 0 509 573 398
162 2 2 0 0 442 443 36
163 2 2 0 0 1 607 314
164 2 2 0 0 29 612 436
165 2 2 0 0 547 631 609
166 2 2 0 0 360 595 409
167 2 2 0 0 421 682 342
168 2 2 0 0 426 575 327
169 2 2 0 0 123 577 235
170 2 2 0 0 339 743 417
171 2 2 0 0 7 45 8
172 2 2 0 0 3 723 24
173 2 2 0 0 418 666 653
174 2 2 0 0 59 60 58
175 2 2 0 0 620 636 193
176 2 2 0 0 42 469 47
177 2 2 0 0 65 67 66
178 2 2 0 0 509 662 573
179 2 2 0 0 470 482 247
180 2 2 0 0 368 476 472
181 2 2 0 0 530 740 337
182 2 2 0 0 253 512 84
183 2 2 0 0 455 698 282
184 2 2 0 0 61 65 62
185 2 2 0 0 59 61 60
186 2 2 0 0 91 472 88
187 2 2 0 0 90 92 91
188 2 2 0 0 19 442 18
189 2 2 0 0 464 465 423
190 2 2 0 0 706 724 118
191 2 2 0 0 456 611 32
192 2 2 0 0 379 477 61
193 2 2 0 0 417 743 704
194 2 2 0 0 314 683 1
195 2 2 0 0 442 458 443
196 2 2 0 0 11 28 12
197 2 2 0 0 61 62 60
198 2 2 0 0 118 724 95
199 2 2 0 0 22 25 23
200 2 2 0 0 247 483 470
201 2 2 0 0 281 640 434
202 2 2 0 0 197 667 474
203 2 2 0 0 86 512 89
204 2 2 0 0 417 704 673
205 2 2 0 0 451 690 230
206 2 2 0 0 27 442 19
207 2 2 0 0 637 668 229
208 2 2 0 0 60 475 58
209 2 2 0 0 489 610 497
210 2 2 0 0 307 573 283
211 2 2 0 0 61 477 65
212 2 2 0 0 65 66 62
213 2 2 0 0 544 740 530
214 2 2 0 0 230 719 451
215 2 2 0 0 18 452 19
216 2 2 0 0 268 569 269
217 2 2 0 0 32 485 456
218 2 2 0 0 627 696 401
219 2 2 0 0 24 42 41
220 2 2 0 0 20 27 19
221 2 2 0 0 330 461 457
222 2 2 0 0 506 672 644
223 2 2 0 0 472 476 87
224 2 2 0 0 468 495 494
225 2 2 0 0 88 472 87
226 2 2 0 0 121 577 123
227 2 2 0 0 327 575 276
228 2 2 0 0 422 464 423
229 2 2 0 0 47 63 49
230 2 2 0 0 458 506 443
231 2 2 0 0 232 690 451
232 2 2 0 0 28 487 12
233 2 2 0 0 80 107 83
234 2 2 0 0 608 696 676
235 2 2 0 0 356 481 355
236 2 2 0 0 138 238 136
237 2 2 0 0 137 139 138
238 2 2 0 0 729 739 26
239 2 2 0 0 81 99 97
240 2 2 0 0 46 50 37
241 2 2 0 0 463 656 8
242 2 2 0 0 443 444 36
243 2 2 0 0 68 704 469
244 2 2 0 0 24 68 42
245 2 2 0 0 16 503 30
246 2 2 0 0 65 69 67
247 2 2 0 0 67 79 66
248 2 2 0 0 676 696 369
249 2 2 0 0 59 379 61
250 2 2 0 0 90 93 92
251 2 2 0 0 464 467 465
252 2 2 0 0 441 708 312
253 2 2 0 0 483 484 471
254 2 2 0 0 427 479 478
255 2 2 0 0 245 564 244
256 2 2 0 0 470 483 471
257 2 2 0 0 473 721 406
258 2 2 0 0 555 699 554
259 2 2 0 0 47 469 63
260 2 2 0 0 63 355 49
261 2 2 0 0 62 64 60
262 2 2 0 0 80 108 107
263 2 2 0 0 107 539 83
264 2 2 0 0 139 140 138
265 2 2 0 0 99 100 97
266 2 2 0 0 81 236 99
267 2 2 0 0 46 51 50
268 2 2 0 0 443 445 444
269 2 2 0 0 24 419 68
270 2 2 0 0 69 466 67
271 2 2 0 0 79 103 66
272 2 2 0 0 65 477 69
273 2 2 0 0 547 548 321
274 2 2 0 0 93 94 92
275 2 2 0 0 467 468 465
276 2 2 0 0 333 664 649
277 2 2 0 0 55 498 56
278 2 2 0 0 56 498 72
279 2 2 0 0 12 499 31
280 2 2 0 0 63 356 355
281 2 2 0 0 108 110 107
282 2 2 0 0 139 141 140
283 2 2 0 0 100 101 97
284 2 2 0 0 236 248 99
285 2 2 0 0 81 594 236
286 2 2 0 0 51 52 50
287 2 2 0 0 192 515 195
288 2 2 0 0 445 446 444
289 2 2 0 0 477 481 69
290 2 2 0 0 94 95 92
291 2 2 0 0 93 96 94
292 2 2 0 0 63 408 356
293 2 2 0 0 108 111 110
294 2 2 0 0 110 117 107
295 2 2 0 0 139 154 141
296 2 2 0 0 141 142 140
297 2 2 0 0 51 53 52
298 2 2 0 0 100 102 101
299 2 2 0 0 236 250 248
300 2 2 0 0 445 447 446
301 2 2 0 0 52 388 50
302 2 2 0 0 277 622 567
303 2 2 0 0 95 608 92
304 2 2 0 0 94 118 95
305 2 2 0 0 93 104 96
306 2 2 0 0 51 561 53
307 2 2 0 0 408 434 356
308 2 2 0 0 53 54 52
309 2 2 0 0 445 448 447
310 2 2 0 0 108 317 111
311 2 2 0 0 141 143 142
312 2 2 0 0 142 225 140
313 2 2 0 0 102 166 101
314 2 2 0 0 250 325 248
315 2 2 0 0 100 258 102
316 2 2 0 0 53 55 54
317 2 2 0 0 447 449 446
318 2 2 0 0 236 505 250
319 2 2 0 0 104 105 96
320 2 2 0 0 53 57 55
321 2 2 0 0 55 56 54
322 2 2 0 0 448 451 447
323 2 2 0 0 14 39 15
324 2 2 0 0 317 511 111
325 2 2 0 0 10 40 9
326 2 2 0 0 143 144 142
327 2 2 0 0 57 58 55
328 2 2 0 0 8 37 9
329 2 2 0 0 14 38 13
330 2 2 0 0 166 314 101
331 2 2 0 0 18 36 17
332 2 2 0 0 16 29 17
333 2 2 0 0 33 504 20
334 2 2 0 0 325 365 248
335 2 2 0 0 199 202 196
336 2 2 0 0 7 32 6
337 2 2 0 0 434 435 356
338 2 2 0 0 74 75 73
339 2 2 0 0 223 239 234
340 2 2 0 0 74 76 75
341 2 2 0 0 72 74 73
342 2 2 0 0 231 549 201
343 2 2 0 0 202 205 204
344 2 2 0 0 226 227 214
345 2 2 0 0 272 275 271
346 2 2 0 0 276 318 275
347 2 2 0 0 213 214 209
348 2 2 0 0 76 77 75
349 2 2 0 0 210 231 201
350 2 2 0 0 16 30 15
351 2 2 0 0 205 209 208
352 2 2 0 0 202 204 196
353 2 2 0 0 318 406 340
354 2 2 0 0 195 196 193
355 2 2 0 0 322 420 415
356 2 2 0 0 239 240 234
357 2 2 0 0 163 588 168
358 2 2 0 0 12 31 11
359 2 2 0 0 56 72 71
360 2 2 0 0 425 426 327
361 2 2 0 0 19 33 20
362 2 2 0 0 168 224 215
363 2 2 0 0 209 568 216
364 2 2 0 0 318 433 406
365 2 2 0 0 269 271 270
366 2 2 0 0 268 269 245
367 2 2 0 0 21 639 20
368 2 2 0 0 84 85 82
369 2 2 0 0 181 207 183
370 2 2 0 0 269 272 271
371 2 2 0 0 272 276 275
372 2 2 0 0 242 243 240
373 2 2 0 0 102 167 166
374 2 2 0 0 223 234 233
375 2 2 0 0 283 343 227
376 2 2 0 0 205 208 204
377 2 2 0 0 213 226 214
378 2 2 0 0 271 572 347
379 2 2 0 0 243 268 245
380 2 2 0 0 335 398 307
381 2 2 0 0 303 555 554
382 2 2 0 0 226 283 227
383 2 2 0 0 347 485 370
384 2 2 0 0 195 199 196
385 2 2 0 0 205 213 209
386 2 2 0 0 246 322 252
387 2 2 0 0 76 78 77
388 2 2 0 0 133 163 135
389 2 2 0 0 163 168 164
390 2 2 0 0 322 415 341
391 2 2 0 0 227 361 214
392 2 2 0 0 191 198 189
393 2 2 0 0 78 84 82
394 2 2 0 0 209 216 208
395 2 2 0 0 78 82 77
396 2 2 0 0 216 303 266
397 2 2 0 0 417 418 362
398 2 2 0 0 314 607 101
399 2 2 0 0 339 362 280
400 2 2 0 0 243 245 244
401 2 2 0 0 187 291 185
402 2 2 0 0 429 430 359
403 2 2 0 0 143 145 144
404 2 2 0 0 202 553 205
405 2 2 0 0 339 417 362
406 2 2 0 0 131 580 133
407 2 2 0 0 239 242 240
408 2 2 0 0 57 59 58
409 2 2 0 0 224 246 215
410 2 2 0 0 84 86 85
411 2 2 0 0 303 554 266
412 2 2 0 0 72 73 71
413 2 2 0 0 437 438 414
414 2 2 0 0 318 340 275
415 2 2 0 0 269 270 245
416 2 2 0 0 86 87 85
417 2 2 0 0 192 193 191
418 2 2 0 0 123 235 129
419 2 2 0 0 263 374 262
420 2 2 0 0 425 427 426
421 2 2 0 0 149 150 147
422 2 2 0 0 210 232 231
423 2 2 0 0 74 373 76
424 2 2 0 0 168 215 169
425 2 2 0 0 259 262 249
426 2 2 0 0 145 146 144
427 2 2 0 0 367 524 289
428 2 2 0 0 271 347 270
429 2 2 0 0 406 407 340
430 2 2 0 0 334 459 424
431 2 2 0 0 429 474 430
432 2 2 0 0 250 328 325
433 2 2 0 0 431 432 367
434 2 2 0 0 104 278 105
435 2 2 0 0 145 147 146
436 2 2 0 0 151 152 150
437 2 2 0 0 235 583 129
438 2 2 0 0 237 249 228
439 2 2 0 0 149 151 150
440 2 2 0 0 159 161 158
441 2 2 0 0 153 155 152
442 2 2 0 0 156 158 155
443 2 2 0 0 354 367 289
444 2 2 0 0 259 263 262
445 2 2 0 0 190 191 189
446 2 2 0 0 177 221 174
447 2 2 0 0 162 228 161
448 2 2 0 0 124 516 386
449 2 2 0 0 418 653 578
450 2 2 0 0 371 584 295
451 2 2 0 0 151 153 152
452 2 2 0 0 153 156 155
453 2 2 0 0 159 162 161
454 2 2 0 0 374 593 262
455 2 2 0 0 156 159 158
456 2 2 0 0 237 259 249
457 2 2 0 0 146 284 160
458 2 2 0 0 266 309 267
459 2 2 0 0 264 265 257
460 2 2 0 0 86 88 87
461 2 2 0 0 265 312 257
462 2 2 0 0 162 237 228
463 2 2 0 0 21 44 22
464 2 2 0 0 324 392 390
465 2 2 0 0 371 585 584
466 2 2 0 0 262 366 249
467 2 2 0 0 192 195 193
468 2 2 0 0 263 375 374
469 2 2 0 0 216 266 217
470 2 2 0 0 326 327 276
471 2 2 0 0 260 646 166
472 2 2 0 0 220 223 222
473 2 2 0 0 322 341 252
474 2 2 0 0 256 257 255
475 2 2 0 0 78 253 84
476 2 2 0 0 358 359 242
477 2 2 0 0 188 189 187
478 2 2 0 0 281 339 280
479 2 2 0 0 146 160 144
480 2 2 0 0 123 129 128
481 2 2 0 0 255 324 254
482 2 2 0 0 228 229 161
483 2 2 0 0 354 431 367
484 2 2 0 0 163 164 135
485 2 2 0 0 155 157 152
486 2 2 0 0 243 244 240
487 2 2 0 0 256 264 257
488 2 2 0 0 284 316 160
489 2 2 0 0 380 425 327
490 2 2 0 0 148 149 147
491 2 2 0 0 335 399 398
492 2 2 0 0 418 578 362
493 2 2 0 0 334 424 396
494 2 2 0 0 167 260 166
495 2 2 0 0 325 368 365
496 2 2 0 0 428 429 359
497 2 2 0 0 165 255 254
498 2 2 0 0 297 342 264
499 2 2 0 0 298 371 295
500 2 2 0 0 218 323 220
501 2 2 0 0 310 337 302
502 2 2 0 0 165 256 255
503 2 2 0 0 186 187 185
504 2 2 0 0 56 71 70
505 2 2 0 0 165 254 125
506 2 2 0 0 200 201 199
507 2 2 0 0 148 206 149
508 2 2 0 0 324 390 364
509 2 2 0 0 190 192 191
510 2 2 0 0 368 369 365
511 2 2 0 0 353 404 351
512 2 2 0 0 104 331 278
513 2 2 0 0 256 297 264
514 2 2 0 0 316 421 416
515 2 2 0 0 239 358 242
516 2 2 0 0 169 586 171
517 2 2 0 0 286 287 206
518 2 2 0 0 324 364 254
519 2 2 0 0 241 576 162
520 2 2 0 0 168 169 164
521 2 2 0 0 121 123 122
522 2 2 0 0 266 267 217
523 2 2 0 0 129 131 130
524 2 2 0 0 216 217 208
525 2 2 0 0 285 382 313
526 2 2 0 0 172 321 170
527 2 2 0 0 390 391 364
528 2 2 0 0 296 563 300
529 2 2 0 0 246 252 251
530 2 2 0 0 285 286 206
531 2 2 0 0 288 289 287
532 2 2 0 0 298 372 371
533 2 2 0 0 23 35 22
534 2 2 0 0 300 344 304
535 2 2 0 0 344 462 345
536 2 2 0 0 123 128 122
537 2 2 0 0 297 389 342
538 2 2 0 0 237 277 259
539 2 2 0 0 148 285 206
540 2 2 0 0 86 89 88
541 2 2 0 0 306 307 283
542 2 2 0 0 234 279 233
543 2 2 0 0 316 416 160
544 2 2 0 0 188 190 189
545 2 2 0 0 85 98 82
546 2 2 0 0 358 428 359
547 2 2 0 0 437 455 438
548 2 2 0 0 203 210 201
549 2 2 0 0 382 383 313
550 2 2 0 0 153 176 156
551 2 2 0 0 290 354 289
552 2 2 0 0 159 241 162
553 2 2 0 0 386 387 126
554 2 2 0 0 273 363 338
555 2 2 0 0 272 326 276
556 2 2 0 0 171 293 173
557 2 2 0 0 145 148 147
558 2 2 0 0 274 295 261
559 2 2 0 0 285 313 286
560 2 2 0 0 383 384 313
561 2 2 0 0 301 302 299
562 2 2 0 0 131 133 132
563 2 2 0 0 296 298 295
564 2 2 0 0 305 310 302
565 2 2 0 0 349 412 328
566 2 2 0 0 344 345 304
567 2 2 0 0 77 119 75
568 2 2 0 0 315 378 310
569 2 2 0 0 363 401 400
570 2 2 0 0 332 333 278
571 2 2 0 0 223 233 222
572 2 2 0 0 331 334 332
573 2 2 0 0 186 188 187
574 2 2 0 0 178 212 177
575 2 2 0 0 305 360 315
576 2 2 0 0 334 396 395
577 2 2 0 0 246 251 215
578 2 2 0 0 167 261 260
579 2 2 0 0 175 179 178
580 2 2 0 0 345 346 304
581 2 2 0 0 124 386 126
582 2 2 0 0 286 288 287
583 2 2 0 0 331 332 278
584 2 2 0 0 179 181 180
585 2 2 0 0 301 305 302
586 2 2 0 0 300 304 301
587 2 2 0 0 296 300 299
588 2 2 0 0 305 315 310
589 2 2 0 0 296 299 298
590 2 2 0 0 320 453 290
591 2 2 0 0 274 296 295
592 2 2 0 0 313 531 286
593 2 2 0 0 120 281 280
594 2 2 0 0 360 409 315
595 2 2 0 0 363 400 338
596 2 2 0 0 129 130 128
597 2 2 0 0 300 301 299
598 2 2 0 0 1 508 23
599 2 2 0 0 167 273 261
600 2 2 0 0 133 135 134
601 2 2 0 0 173 174 172
602 2 2 0 0 311 377 376
603 2 2 0 0 273 274 261
604 2 2 0 0 273 338 274
605 2 2 0 0 334 395 332
606 2 2 0 0 183 197 184
607 2 2 0 0 319 393 320
608 2 2 0 0 449 450 446
609 2 2 0 0 288 290 289
610 2 2 0 0 226 306 283
611 2 2 0 0 326 380 327
612 2 2 0 0 175 177 174
613 2 2 0 0 181 183 182
614 2 2 0 0 219 230 211
615 2 2 0 0 308 335 307
616 2 2 0 0 267 311 292
617 2 2 0 0 169 170 164
618 2 2 0 0 288 319 290
619 2 2 0 0 126 165 125
620 2 2 0 0 120 280 121
621 2 2 0 0 130 357 128
622 2 2 0 0 195 200 199
623 2 2 0 0 169 171 170
624 2 2 0 0 171 172 170
625 2 2 0 0 184 186 185
626 2 2 0 0 73 282 71
627 2 2 0 0 252 294 251
628 2 2 0 0 319 320 290
629 2 2 0 0 131 132 130
630 2 2 0 0 393 394 320
631 2 2 0 0 171 173 172
632 2 2 0 0 4 34 3
633 2 2 0 0 218 220 219
634 2 2 0 0 267 292 217
635 2 2 0 0 184 185 182
636 2 2 0 0 188 194 190
637 2 2 0 0 56 70 54
638 2 2 0 0 377 405 376
639 2 2 0 0 449 470 450
640 2 2 0 0 179 180 178
641 2 2 0 0 173 175 174
642 2 2 0 0 175 178 177
643 2 2 0 0 250 329 328
644 2 2 0 0 311 376 292
645 2 2 0 0 329 571 350
646 2 2 0 0 347 370 348
647 2 2 0 0 220 222 219
648 2 2 0 0 376 385 292
649 2 2 0 0 133 134 132
650 2 2 0 0 134 136 132
651 2 2 0 0 306 308 307
652 2 2 0 0 200 203 201
653 2 2 0 0 233 247 222
654 2 2 0 0 98 460 82
655 2 2 0 0 329 349 328
656 2 2 0 0 326 381 380
657 2 2 0 0 347 348 270
658 2 2 0 0 181 182 180
659 2 2 0 0 121 122 115
660 2 2 0 0 350 351 349
661 2 2 0 0 308 336 335
662 2 2 0 0 350 403 352
663 2 2 0 0 470 471 450
664 2 2 0 0 203 211 210
665 2 2 0 0 218 219 211
666 2 2 0 0 183 184 182
667 2 2 0 0 370 463 422
668 2 2 0 0 306 402 308
669 2 2 0 0 203 218 211
670 2 2 0 0 71 490 70
671 2 2 0 0 329 350 349
672 2 2 0 0 436 437 414
673 2 2 0 0 124 126 125
674 2 2 0 0 413 414 353
675 2 2 0 0 422 423 348
676 2 2 0 0 352 353 351
677 2 2 0 0 370 422 348
678 2 2 0 0 350 352 351
679 2 2 0 0 413 436 414
680 2 2 0 0 352 413 353
681 2 2 0 0 120 121 115
682 2 2 0 0 110 480 117
683 2 2 0 0 124 125 116
684 2 2 0 0 126 521 165
685 2 2 0 0 113 120 115
686 2 2 0 0 127 440 410
687 2 2 0 0 114 124 116
688 2 2 0 0 543 544 530
689 2 2 0 0 488 489 487
690 2 2 0 0 585 637 366
691 2 2 0 0 543 570 544
692 2 2 0 0 113 115 114
693 2 2 0 0 127 410 106
694 2 2 0 0 114 116 112
695 2 2 0 0 195 515 200
696 2 2 0 0 491 493 492
697 2 2 0 0 12 487 13
698 2 2 0 0 546 547 321
699 2 2 0 0 330 457 411
700 2 2 0 0 157 543 530
701 2 2 0 0 519 520 291
702 2 2 0 0 28 488 487
703 2 2 0 0 111 112 110
704 2 2 0 0 312 534 257
705 2 2 0 0 476 732 412
706 2 2 0 0 27 458 442
707 2 2 0 0 385 636 620
708 2 2 0 0 176 559 156
709 2 2 0 0 593 634 366
710 2 2 0 0 589 590 224
711 2 2 0 0 113 114 112
712 2 2 0 0 109 127 106
713 2 2 0 0 270 564 245
714 2 2 0 0 443 506 445
715 2 2 0 0 491 492 396
716 2 2 0 0 388 624 502
717 2 2 0 0 445 506 448
718 2 2 0 0 30 500 15
719 2 2 0 0 20 504 21
720 2 2 0 0 64 475 60
721 2 2 0 0 287 542 206
722 2 2 0 0 23 508 35
723 2 2 0 0 302 558 299
724 2 2 0 0 70 551 54
725 2 2 0 0 62 598 64
726 2 2 0 0 424 491 396
727 2 2 0 0 407 456 340
728 2 2 0 0 545 546 321
729 2 2 0 0 330 411 397
730 2 2 0 0 72 536 74
731 2 2 0 0 238 574 136
732 2 2 0 0 659 660 420
733 2 2 0 0 395 538 332
734 2 2 0 0 143 527 145
735 2 2 0 0 412 675 476
736 2 2 0 0 239 513 358
737 2 2 0 0 157 530 529
738 2 2 0 0 518 519 291
739 2 2 0 0 449 482 470
740 2 2 0 0 207 713 479
741 2 2 0 0 119 523 75
742 2 2 0 0 109 670 127
743 2 2 0 0 10 501 40
744 2 2 0 0 508 509 35
745 2 2 0 0 96 606 94
746 2 2 0 0 331 459 334
747 2 2 0 0 286 531 288
748 2 2 0 0 290 453 354
749 2 2 0 0 282 490 71
750 2 2 0 0 384 531 313
751 2 2 0 0 289 524 287
752 2 2 0 0 349 550 412
753 2 2 0 0 165 521 256
754 2 2 0 0 82 460 77
755 2 2 0 0 155 543 157
756 2 2 0 0 201 549 199
757 2 2 0 0 273 591 363
758 2 2 0 0 387 521 126
759 2 2 0 0 114 516 124
760 2 2 0 0 53 561 57
761 2 2 0 0 266 554 309
762 2 2 0 0 257 534 255
763 2 2 0 0 205 553 213
764 2 2 0 0 142 522 225
765 2 2 0 0 435 481 356
766 2 2 0 0 216 568 303
767 2 2 0 0 300 563 344
768 2 2 0 0 214 568 209
769 2 2 0 0 112 480 110
770 2 2 0 0 350 571 403
771 2 2 0 0 347 572 485
772 2 2 0 0 275 572 271
773 2 2 0 0 274 563 296
774 2 2 0 0 171 586 293
775 2 2 0 0 162 576 237
776 2 2 0 0 133 580 163
777 2 2 0 0 11 501 10
778 2 2 0 0 295 584 261
779 2 2 0 0 129 583 131
780 2 2 0 0 215 586 169
781 2 2 0 0 250 505 329
782 2 2 0 0 168 588 224
783 2 2 0 0 321 548 170
784 2 2 0 0 262 593 366
785 2 2 0 0 166 646 314
786 2 2 0 0 520 535 291
787 2 2 0 0 373 663 493
788 2 2 0 0 291 535 185
789 2 2 0 0 101 607 97
790 2 2 0 0 130 574 357
791 2 2 0 0 158 570 543
792 2 2 0 0 31 501 11
793 2 2 0 0 444 552 503
794 2 2 0 0 156 559 159
795 2 2 0 0 236 594 505
796 2 2 0 0 206 542 149
797 2 2 0 0 54 551 52
798 2 2 0 0 74 536 373
799 2 2 0 0 337 558 302
800 2 2 0 0 150 532 147
801 2 2 0 0 379 728 457
802 2 2 0 0 299 558 298
803 2 2 0 0 332 538 333
804 2 2 0 0 145 527 148
805 2 2 0 0 514 515 192
806 2 2 0 0 15 500 14
807 2 2 0 0 75 523 73
808 2 2 0 0 467 501 31
809 2 2 0 0 254 592 125
810 2 2 0 0 172 545 321
811 2 2 0 0 144 522 142
812 2 2 0 0 528 532 150
813 2 2 0 0 187 518 291
814 2 2 0 0 553 599 213
815 2 2 0 0 383 603 384
816 2 2 0 0 282 698 490
817 2 2 0 0 244 517 240
818 2 2 0 0 353 525 404
819 2 2 0 0 395 540 538
820 2 2 0 0 94 606 118
821 2 2 0 0 117 539 107
822 2 2 0 0 185 535 182
823 2 2 0 0 388 502 50
824 2 2 0 0 167 591 273
825 2 2 0 0 147 532 146
826 2 2 0 0 92 608 91
827 2 2 0 0 472 676 368
828 2 2 0 0 364 592 254
829 2 2 0 0 21 504 44
830 2 2 0 0 365 597 248
831 2 2 0 0 125 592 116
832 2 2 0 0 588 589 224
833 2 2 0 0 111 113 112
834 2 2 0 0 63 469 408
835 2 2 0 0 105 109 106
836 2 2 0 0 242 526 243
837 2 2 0 0 439 712 29
838 2 2 0 0 240 517 234
839 2 2 0 0 346 533 304
840 2 2 0 0 14 500 38
841 2 2 0 0 494 495 484
842 2 2 0 0 127 630 440
843 2 2 0 0 208 537 204
844 2 2 0 0 175 562 179
845 2 2 0 0 303 626 555
846 2 2 0 0 359 526 242
847 2 2 0 0 243 526 268
848 2 2 0 0 217 537 208
849 2 2 0 0 58 498 55
850 2 2 0 0 503 552 30
851 2 2 0 0 13 499 12
852 2 2 0 0 268 621 569
853 2 2 0 0 489 497 487
854 2 2 0 0 475 498 58
855 2 2 0 0 430 526 359
856 2 2 0 0 248 597 99
857 2 2 0 0 292 537 217
858 2 2 0 0 26 645 45
859 2 2 0 0 234 517 279
860 2 2 0 0 14 497 39
861 2 2 0 0 385 537 292
862 2 2 0 0 305 533 360
863 2 2 0 0 304 533 301
864 2 2 0 0 146 532 284
865 2 2 0 0 483 494 484
866 2 2 0 0 173 562 175
867 2 2 0 0 116 480 112
868 2 2 0 0 224 590 246
869 2 2 0 0 189 518 187
870 2 2 0 0 498 536 72
871 2 2 0 0 414 525 353
872 2 2 0 0 160 522 144
873 2 2 0 0 547 609 548
874 2 2 0 0 182 535 180
875 2 2 0 0 297 601 389
876 2 2 0 0 44 594 81
877 2 2 0 0 301 533 305
878 2 2 0 0 105 106 96
879 2 2 0 0 515 596 200
880 2 2 0 0 293 562 173
881 2 2 0 0 73 523 282
882 2 2 0 0 148 527 285
883 2 2 0 0 174 545 172
884 2 2 0 0 218 596 323
885 2 2 0 0 200 596 203
886 2 2 0 0 149 542 151
887 2 2 0 0 446 552 444
888 2 2 0 0 49 461 330
889 2 2 0 0 330 397 48
890 2 2 0 0 453 738 377
891 2 2 0 0 255 534 324
892 2 2 0 0 52 551 388
893 2 2 0 0 634 646 260
894 2 2 0 0 513 615 358
895 2 2 0 0 438 525 414
896 2 2 0 0 516 618 386
897 2 2 0 0 198 518 189
898 2 2 0 0 227 566 361
899 2 2 0 0 559 560 241
900 2 2 0 0 90 587 93
901 2 2 0 0 416 522 160
902 2 2 0 0 102 591 167
903 2 2 0 0 134 609 137
904 2 2 0 0 298 558 372
905 2 2 0 0 132 574 130
906 2 2 0 0 106 606 96
907 2 2 0 0 159 559 241
908 2 2 0 0 32 611 6
909 2 2 0 0 158 543 155
910 2 2 0 0 223 513 239
911 2 2 0 0 288 531 319
912 2 2 0 0 323 513 220
913 2 2 0 0 115 516 114
914 2 2 0 0 521 601 297
915 2 2 0 0 610 698 455
916 2 2 0 0 354 600 431
917 2 2 0 0 351 550 349
918 2 2 0 0 256 521 297
919 2 2 0 0 140 604 138
920 2 2 0 0 77 460 119
921 2 2 0 0 17 503 16
922 2 2 0 0 9 502 10
923 2 2 0 0 104 587 331
924 2 2 0 0 152 528 150
925 2 2 0 0 315 541 378
926 2 2 0 0 170 548 164
927 2 2 0 0 590 659 420
928 2 2 0 0 11 624 28
929 2 2 0 0 199 549 202
930 2 2 0 0 502 624 10
931 2 2 0 0 453 600 354
932 2 2 0 0 42 43 41
933 2 2 0 0 38 499 13
934 2 2 0 0 285 527 382
935 2 2 0 0 190 514 192
936 2 2 0 0 157 529 528
937 2 2 0 0 231 643 549
938 2 2 0 0 331 587 459
939 2 2 0 0 451 701 232
940 2 2 0 0 99 597 100
941 2 2 0 0 361 568 214
942 2 2 0 0 372 740 544
943 2 2 0 0 221 545 174
944 2 2 0 0 138 604 238
945 2 2 0 0 340 572 275
946 2 2 0 0 338 563 274
947 2 2 0 0 524 542 287
948 2 2 0 0 265 595 312
949 2 2 0 0 111 511 113
950 2 2 0 0 580 658 588
951 2 2 0 0 580 588 163
952 2 2 0 0 237 576 277
953 2 2 0 0 444 503 36
954 2 2 0 0 131 583 580
955 2 2 0 0 505 571 329
956 2 2 0 0 203 596 218
957 2 2 0 0 584 634 260
958 2 2 0 0 261 584 260
959 2 2 0 0 369 647 365
960 2 2 0 0 251 586 215
961 2 2 0 0 348 564 270
962 2 2 0 0 450 552 446
963 2 2 0 0 390 496 391
964 2 2 0 0 66 598 62
965 2 2 0 0 465 623 423
966 2 2 0 0 258 591 102
967 2 2 0 0 343 566 227
968 2 2 0 0 564 623 244
969 2 2 0 0 154 617 141
970 2 2 0 0 324 534 392
971 2 2 0 0 50 502 37
972 2 2 0 0 524 556 542
973 2 2 0 0 544 700 372
974 2 2 0 0 122 516 115
975 2 2 0 0 177 557 221
976 2 2 0 0 489 698 610
977 2 2 0 0 93 587 104
978 2 2 0 0 136 574 132
979 2 2 0 0 593 646 634
980 2 2 0 0 116 592 480
981 2 2 0 0 143 617 527
982 2 2 0 0 225 604 140
983 2 2 0 0 137 631 139
984 2 2 0 0 549 553 202
985 2 2 0 0 164 548 135
986 2 2 0 0 404 550 351
987 2 2 0 0 34 721 473
988 2 2 0 0 220 513 223
989 2 2 0 0 317 640 511
990 2 2 0 0 100 597 258
991 2 2 0 0 588 658 589
992 2 2 0 0 323 615 513
993 2 2 0 0 568 626 303
994 2 2 0 0 377 605 405
995 2 2 0 0 178 613 212
996 2 2 0 0 493 628 373
997 2 2 0 0 157 528 152
998 2 2 0 0 591 627 363
999 2 2 0 0 409 541 315
1000 2 2 0 0 183 614 197
1001 2 2 0 0 103 598 66
1002 2 2 0 0 188 619 194
1003 2 2 0 0 213 599 226
1004 2 2 0 0 306 599 402
1005 2 2 0 0 97 607 25
1006 2 2 0 0 194 514 190
1007 2 2 0 0 373 628 76
1008 2 2 0 0 78 628 253
1009 2 2 0 0 42 47 43
1010 2 2 0 0 39 612 15
1011 2 2 0 0 16 612 29
1012 2 2 0 0 437 610 455
1013 2 2 0 0 487 497 13
1014 2 2 0 0 440 630 441
1015 2 2 0 0 479 713 562
1016 2 2 0 0 196 620 193
1017 2 2 0 0 456 572 340
1018 2 2 0 0 120 511 281
1019 2 2 0 0 577 578 235
1020 2 2 0 0 335 582 399
1021 2 2 0 0 314 741 683
1022 2 2 0 0 520 613 535
1023 2 2 0 0 585 634 584
1024 2 2 0 0 423 564 348
1025 2 2 0 0 457 561 411
1026 2 2 0 0 6 611 5
1027 2 2 0 0 385 620 537
1028 2 2 0 0 228 637 229
1029 2 2 0 0 366 637 249
1030 2 2 0 0 161 570 158
1031 2 2 0 0 434 640 435
1032 2 2 0 0 193 636 191
1033 2 2 0 0 410 606 106
1034 2 2 0 0 37 502 9
1035 2 2 0 0 36 503 17
1036 2 2 0 0 141 617 143
1037 2 2 0 0 363 627 401
1038 2 2 0 0 322 590 420
1039 2 2 0 0 357 618 128
1040 2 2 0 0 430 621 526
1041 2 2 0 0 540 687 103
1042 2 2 0 0 280 577 121
1043 2 2 0 0 276 575 318
1044 2 2 0 0 362 578 577
1045 2 2 0 0 109 649 496
1046 2 2 0 0 246 590 322
1047 2 2 0 0 326 569 381
1048 2 2 0 0 569 621 381
1049 2 2 0 0 269 569 272
1050 2 2 0 0 139 631 154
1051 2 2 0 0 649 664 496
1052 2 2 0 0 537 620 204
1053 2 2 0 0 355 461 49
1054 2 2 0 0 663 685 493
1055 2 2 0 0 479 745 207
1056 2 2 0 0 343 662 565
1057 2 2 0 0 212 557 177
1058 2 2 0 0 45 645 46
1059 2 2 0 0 496 670 109
1060 2 2 0 0 366 634 585
1061 2 2 0 0 384 616 531
1062 2 2 0 0 535 613 180
1063 2 2 0 0 391 632 364
1064 2 2 0 0 308 581 336
1065 2 2 0 0 344 625 462
1066 2 2 0 0 563 625 344
1067 2 2 0 0 13 497 14
1068 2 2 0 0 480 632 117
1069 2 2 0 0 371 668 585
1070 2 2 0 0 333 649 278
1071 2 2 0 0 387 601 521
1072 2 2 0 0 47 49 48
1073 2 2 0 0 358 615 428
1074 2 2 0 0 113 511 120
1075 2 2 0 0 527 617 382
1076 2 2 0 0 105 649 109
1077 2 2 0 0 398 573 307
1078 2 2 0 0 368 676 369
1079 2 2 0 0 180 613 178
1080 2 2 0 0 153 556 176
1081 2 2 0 0 432 657 367
1082 2 2 0 0 458 718 582
1083 2 2 0 0 207 614 183
1084 2 2 0 0 407 611 456
1085 2 2 0 0 244 623 517
1086 2 2 0 0 20 639 27
1087 2 2 0 0 476 675 87
1088 2 2 0 0 319 616 393
1089 2 2 0 0 474 707 197
1090 2 2 0 0 226 599 306
1091 2 2 0 0 47 48 43
1092 2 2 0 0 186 619 188
1093 2 2 0 0 412 732 328
1094 2 2 0 0 316 671 541
1095 2 2 0 0 293 734 478
1096 2 2 0 0 492 685 598
1097 2 2 0 0 528 629 532
1098 2 2 0 0 514 635 515
1099 2 2 0 0 531 616 319
1100 2 2 0 0 8 656 7
1101 2 2 0 0 387 602 601
1102 2 2 0 0 76 628 78
1103 2 2 0 0 122 618 516
1104 2 2 0 0 651 717 394
1105 2 2 0 0 423 623 564
1106 2 2 0 0 546 669 547
1107 2 2 0 0 4 679 34
1108 2 2 0 0 542 556 151
1109 2 2 0 0 548 609 135
1110 2 2 0 0 204 620 196
1111 2 2 0 0 529 629 528
1112 2 2 0 0 482 719 230
1113 2 2 0 0 258 627 591
1114 2 2 0 0 336 582 335
1115 2 2 0 0 197 686 667
1116 2 2 0 0 583 658 580
1117 2 2 0 0 85 675 98
1118 2 2 0 0 59 728 379
1119 2 2 0 0 400 625 338
1120 2 2 0 0 394 717 605
1121 2 2 0 0 471 650 450
1122 2 2 0 0 596 635 323
1123 2 2 0 0 249 637 228
1124 2 2 0 0 515 635 596
1125 2 2 0 0 338 625 563
1126 2 2 0 0 28 633 488
1127 2 2 0 0 566 622 361
1128 2 2 0 0 229 570 161
1129 2 2 0 0 468 654 465
1130 2 2 0 0 118 710 462
1131 2 2 0 0 15 612 16
1132 2 2 0 0 589 659 590
1133 2 2 0 0 526 621 268
1134 2 2 0 0 365 647 597
1135 2 2 0 0 579 583 235
1136 2 2 0 0 22 507 21
1137 2 2 0 0 342 682 264
1138 2 2 0 0 441 648 346
1139 2 2 0 0 191 636 198
1140 2 2 0 0 578 653 579
1141 2 2 0 0 135 609 134
1142 2 2 0 0 128 618 122
1143 2 2 0 0 378 681 310
1144 2 2 0 0 230 690 211
1145 2 2 0 0 210 690 232
1146 2 2 0 0 549 643 553
1147 2 2 0 0 233 661 247
1148 2 2 0 0 10 624 11
1149 2 2 0 0 640 709 435
1150 2 2 0 0 449 719 482
1151 2 2 0 0 452 726 33
1152 2 2 0 0 362 577 280
1153 2 2 0 0 318 575 433
1154 2 2 0 0 492 687 396
1155 2 2 0 0 586 734 293
1156 2 2 0 0 357 655 618
1157 2 2 0 0 277 567 259
1158 2 2 0 0 522 641 225
1159 2 2 0 0 511 640 281
1160 2 2 0 0 247 661 483
1161 2 2 0 0 610 693 39
1162 2 2 0 0 272 569 326
1163 2 2 0 0 490 695 70
1164 2 2 0 0 553 643 599
1165 2 2 0 0 532 629 284
1166 2 2 0 0 29 712 17
1167 2 2 0 0 632 665 117
1168 2 2 0 0 618 655 386
1169 2 2 0 0 241 699 576
1170 2 2 0 0 457 728 561
1171 2 2 0 0 485 572 456
1172 2 2 0 0 430 667 621
1173 2 2 0 0 582 672 458
1174 2 2 0 0 395 687 540
1175 2 2 0 0 504 594 44
1176 2 2 0 0 181 713 207
1177 2 2 0 0 197 707 184
1178 2 2 0 0 524 657 556
1179 2 2 0 0 475 536 498
1180 2 2 0 0 394 738 320
1181 2 2 0 0 51 714 561
1182 2 2 0 0 151 556 153
1183 2 2 0 0 437 693 610
1184 2 2 0 0 361 626 568
1185 2 2 0 0 611 679 5
1186 2 2 0 0 231 680 643
1187 2 2 0 0 462 706 118
1188 2 2 0 0 390 670 496
1189 2 2 0 0 602 642 601
1190 2 2 0 0 49 330 48
1191 2 2 0 0 391 665 632
1192 2 2 0 0 508 737 375
1193 2 2 0 0 450 650 552
1194 2 2 0 0 368 732 476
1195 2 2 0 0 578 579 235
1196 2 2 0 0 402 581 308
1197 2 2 0 0 43 486 41
1198 2 2 0 0 562 713 179
1199 2 2 0 0 592 632 480
1200 2 2 0 0 416 641 522
1201 2 2 0 0 372 668 371
1202 2 2 0 0 452 712 439
1203 2 2 0 0 282 720 455
1204 2 2 0 0 556 657 176
1205 2 2 0 0 364 632 592
1206 2 2 0 0 403 726 452
1207 2 2 0 0 465 654 623
1208 2 2 0 0 278 649 105
1209 2 2 0 0 154 652 617
1210 2 2 0 0 383 688 603
1211 2 2 0 0 451 719 447
1212 2 2 0 0 317 709 640
1213 2 2 0 0 604 711 642
1214 2 2 0 0 382 652 383
1215 2 2 0 0 601 642 389
1216 2 2 0 0 284 671 316
1217 2 2 0 0 599 643 402
1218 2 2 0 0 388 633 624
1219 2 2 0 0 267 678 311
1220 2 2 0 0 337 681 530
1221 2 2 0 0 279 661 233
1222 2 2 0 0 605 738 394
1223 2 2 0 0 33 677 504
1224 2 2 0 0 386 655 387
1225 2 2 0 0 547 669 631
1226 2 2 0 0 562 731 479
1227 2 2 0 0 360 648 595
1228 2 2 0 0 432 692 657
1229 2 2 0 0 367 657 524
1230 2 2 0 0 633 695 488
1231 2 2 0 0 415 473 341
1232 2 2 0 0 644 672 336
1233 2 2 0 0 551 633 388
1234 2 2 0 0 533 648 360
1235 2 2 0 0 407 679 611
1236 2 2 0 0 323 635 615
1237 2 2 0 0 530 681 529
1238 2 2 0 0 393 651 394
1239 2 2 0 0 387 655 602
1240 2 2 0 0 238 703 574
1241 2 2 0 0 594 677 505
1242 2 2 0 0 559 692 560
1243 2 2 0 0 621 667 381
1244 2 2 0 0 405 674 376
1245 2 2 0 0 325 732 368
1246 2 2 0 0 623 654 517
1247 2 2 0 0 581 644 336
1248 2 2 0 0 346 648 533
1249 2 2 0 0 517 654 279
1250 2 2 0 0 477 705 481
1251 2 2 0 0 481 705 355
1252 2 2 0 0 561 728 57
1253 2 2 0 0 379 705 477
1254 2 2 0 0 617 652 382
1255 2 2 0 0 30 650 500
1256 2 2 0 0 376 674 385
1257 2 2 0 0 518 715 519
1258 2 2 0 0 474 667 430
1259 2 2 0 0 478 734 294
1260 2 2 0 0 624 633 28
1261 2 2 0 0 186 707 619
1262 2 2 0 0 64 663 475
1263 2 2 0 0 597 647 258
1264 2 2 0 0 377 738 605
1265 2 2 0 0 31 735 467
1266 2 2 0 0 27 718 458
1267 2 2 0 0 419 673 68
1268 2 2 0 0 616 722 393
1269 2 2 0 0 24 723 419
1270 2 2 0 0 397 638 48
1271 2 2 0 0 404 730 460
1272 2 2 0 0 91 676 472
1273 2 2 0 0 622 626 361
1274 2 2 0 0 7 656 32
1275 2 2 0 0 576 697 277
1276 2 2 0 0 471 691 650
1277 2 2 0 0 536 663 373
1278 2 2 0 0 484 691 471
1279 2 2 0 0 552 650 30
1280 2 2 0 0 311 678 600
1281 2 2 0 0 486 729 5
1282 2 2 0 0 418 673 666
1283 2 2 0 0 232 680 231
1284 2 2 0 0 5 679 4
1285 2 2 0 0 117 665 539
1286 2 2 0 0 384 702 616
1287 2 2 0 0 557 702 221
1288 2 2 0 0 87 675 85
1289 2 2 0 0 225 711 604
1290 2 2 0 0 505 677 571
1291 2 2 0 0 483 661 494
1292 2 2 0 0 263 565 375
1293 2 2 0 0 504 677 594
1294 2 2 0 0 582 718 399
1295 2 2 0 0 645 714 46
1296 2 2 0 0 534 708 392
1297 2 2 0 0 643 680 402
1298 2 2 0 0 18 712 452
1299 2 2 0 0 392 670 390
1300 2 2 0 0 221 702 603
1301 2 2 0 0 496 664 391
1302 2 2 0 0 606 710 118
1303 2 2 0 0 655 703 602
1304 2 2 0 0 608 676 91
1305 2 2 0 0 194 684 514
1306 2 2 0 0 541 671 378
1307 2 2 0 0 154 669 652
1308 2 2 0 0 399 718 639
1309 2 2 0 0 405 715 674
1310 2 2 0 0 33 726 677
1311 2 2 0 0 629 671 284
1312 2 2 0 0 468 735 495
1313 2 2 0 0 469 704 408
1314 2 2 0 0 427 745 479
1315 2 2 0 0 294 734 251
1316 2 2 0 0 461 705 379
1317 2 2 0 0 385 674 636
1318 2 2 0 0 657 692 176
1319 2 2 0 0 561 714 411
1320 2 2 0 0 631 669 154
1321 2 2 0 0 264 682 265
1322 2 2 0 0 43 638 486
1323 2 2 0 0 48 638 43
1324 2 2 0 0 194 744 684
1325 2 2 0 0 381 686 380
1326 2 2 0 0 658 716 589
1327 2 2 0 0 263 567 565
1328 2 2 0 0 310 681 337
1329 2 2 0 0 493 685 492
1330 2 2 0 0 64 685 663
1331 2 2 0 0 309 678 267
1332 2 2 0 0 600 678 431
1333 2 2 0 0 538 694 333
1334 2 2 0 0 598 685 64
1335 2 2 0 0 551 695 633
1336 2 2 0 0 560 699 241
1337 2 2 0 0 211 690 210
1338 2 2 0 0 2 723 3
1339 2 2 0 0 630 708 441
1340 2 2 0 0 467 735 468
1341 2 2 0 0 396 687 395
1342 2 2 0 0 35 507 22
1343 2 2 0 0 259 567 263
1344 2 2 0 0 417 673 418
1345 2 2 0 0 614 686 197
1346 2 2 0 0 392 708 630
1347 2 2 0 0 5 729 6
1348 2 2 0 0 279 725 661
1349 2 2 0 0 6 729 26
1350 2 2 0 0 357 703 655
1351 2 2 0 0 514 684 635
1352 2 2 0 0 540 733 538
1353 2 2 0 0 374 741 593
1354 2 2 0 0 176 692 559
1355 2 2 0 0 650 691 500
1356 2 2 0 0 484 736 691
1357 2 2 0 0 83 733 540
1358 2 2 0 0 558 740 372
1359 2 2 0 0 626 697 555
1360 2 2 0 0 436 693 437
1361 2 2 0 0 375 737 374
1362 2 2 0 0 475 663 536
1363 2 2 0 0 636 674 198
1364 2 2 0 0 674 715 198
1365 2 2 0 0 70 695 551
1366 2 2 0 0 406 721 407
1367 2 2 0 0 677 726 571
1368 2 2 0 0 258 647 627
1369 2 2 0 0 448 701 451
1370 2 2 0 0 458 672 506
1371 2 2 0 0 229 700 570
1372 2 2 0 0 684 744 428
1373 2 2 0 0 570 700 544
1374 2 2 0 0 678 742 431
1375 2 2 0 0 646 741 314
1376 2 2 0 0 603 702 384
1377 2 2 0 0 478 731 293
1378 2 2 0 0 309 742 678
1379 2 2 0 0 380 686 614
1380 2 2 0 0 494 725 468
1381 2 2 0 0 500 691 38
1382 2 2 0 0 635 684 615
1383 2 2 0 0 661 725 494
1384 2 2 0 0 679 721 34
1385 2 2 0 0 509 510 35
1386 2 2 0 0 46 714 51
1387 2 2 0 0 615 684 428
1388 2 2 0 0 432 742 689
1389 2 2 0 0 179 713 181
1390 2 2 0 0 26 739 645
1391 2 2 0 0 35 510 507
1392 2 2 0 0 574 703 357
1393 2 2 0 0 184 707 186
1394 2 2 0 0 39 693 612
1395 2 2 0 0 665 694 539
1396 2 2 0 0 312 708 534
1397 2 2 0 0 554 689 309
1398 2 2 0 0 1 737 508
1399 2 2 0 0 519 717 520
1400 2 2 0 0 277 697 622
1401 2 2 0 0 389 711 641
1402 2 2 0 0 495 736 484
1403 2 2 0 0 17 712 18
1404 2 2 0 0 212 722 557
1405 2 2 0 0 455 720 438
1406 2 2 0 0 622 697 626
1407 2 2 0 0 664 694 665
1408 2 2 0 0 447 719 449
1409 2 2 0 0 669 688 652
1410 2 2 0 0 612 693 436
1411 2 2 0 0 619 744 194
1412 2 2 0 0 57 728 59
1413 2 2 0 0 579 658 583
1414 2 2 0 0 438 727 525
1415 2 2 0 0 539 733 83
1416 2 2 0 0 479 731 478
1417 2 2 0 0 691 736 38
1418 2 2 0 0 401 724 400
1419 2 2 0 0 420 660 2
1420 2 2 0 0 328 732 325
1421 2 2 0 0 320 738 453
1422 2 2 0 0 428 744 429
1423 2 2 0 0 431 742 432
1424 2 2 0 0 425 745 427
1425 2 2 0 0 408 743 434
1426 2 2 0 0 571 726 403
1427 2 2 0 0 119 727 523
1428 2 2 0 0 625 706 462
1429 2 2 0 0 525 730 404
1430 2 2 0 0 499 736 495
1431 2 2 0 0 468 725 654
1432 2 2 0 0 336 672 582
1433 2 2 0 0 198 715 518
1434 2 2 0 0 400 724 706
1435 2 2 0 0 402 680 581
1436 2 2 0 0 589 716 659
1437 2 2 0 0 727 730 525
1438 2 2 0 0 664 665 391
1439 2 2 0 0 337 740 558
1440 2 2 0 0 293 731 562
1441 2 2 0 0 523 720 282
1442 2 2 0 0 460 730 119
1443 2 2 0 0 641 711 225
1444 2 2 0 0 429 744 619
1445 2 2 0 0 119 730 727
1446 2 2 0 0 651 722 212
1447 2 2 0 0 38 736 499
1448 2 2 0 0 667 686 381
1449 2 2 0 0 652 688 383
1450 2 2 0 0 410 710 606
1451 2 2 0 0 644 701 448
1452 2 2 0 0 666 673 419
1453 2 2 0 0 704 743 408
1454 2 2 0 0 251 734 586
1455 2 2 0 0 400 706 625
1456 2 2 0 0 546 688 669
1457 2 2 0 0 668 700 229
1458 2 2 0 0 538 733 694
1459 2 2 0 0 333 694 664
1460 2 2 0 0 565 662 375
1461 2 2 0 0 720 727 438
1462 2 2 0 0 372 700 668
1463 2 2 0 0 579 716 658
1464 2 2 0 0 642 711 389
1465 2 2 0 0 355 705 461
1466 2 2 0 0 407 721 679
1467 2 2 0 0 523 727 720
1468 2 2 0 0 654 725 279
1469 2 2 0 0 639 718 27
1470 2 2 0 0 694 733 539
1471 2 2 0 0 393 722 651
1472 2 2 0 0 645 739 397
1473 2 2 0 0 683 741 374
1474 2 2 0 0 397 739 638
1475 2 2 0 0 653 716 579
1476 2 2 0 0 666 723 660
1477 2 2 0 0 419 723 666
1478 2 2 0 0 374 737 683
1479 2 2 0 0 593 741 646
1480 2 2 0 0 683 737 1
1481 2 2 0 0 689 742 309
1482 2 2 0 0 660 723 2
1483 2 2 0 0 23 25 1
1484 2 2 0 0 25 607 1
1485 2 2 0 0 3 34 2
1486 2 2 0 0 34 415 2
$EndElements
