$MeshFormat
2.2 0 8
$EndMeshFormat
$Nodes
745
1 3.8613455855069239e-05 2.7805564113499127e-05 9.8025142286718952e-04
2 6.2356346300185804e-05 -5.7225470481742346e-05 -9.7701015948337090e-04
3 1.3662603291407028e-04 3.6771987549346265e-05 -9.6970457411351687e-04
4 2.4527918148526193e-04 2.1869610526961662e-05 -9.5064894262425210e-04
5 3.9213717150807329e-04 3.4203565565184113e-05 -9.0349160414860622e-04
6 5.2852720539687419e-04 -1.3557472439669641e-06 -8.3542092585414598e-04
7 6.3547461354924182e-04 1.7717131365229754e-06 -7.6199193346706423e-04
8 7.4109393842399765e-04 1.0192393025998465e-06 -6.6623583003818754e-04
9 8.3367037861646338e-04 -1.1951702875959181e-06 -5.5391433259556000e-04
10 9.0854304995003081e-04 -1.5017402696553248e-06 -4.2868002401199923e-04
11 9.6402136127202729e-04 2.9977049373396972e-06 -2.9349213091953792e-04
12 9.9858339982030722e-04 2.9466951824261675e-06 -1.5077190744673354e-04
13 1.0105890815939578e-03 1.7366195238714408e-06 -3.9066651175042783e-06
14 9.9919160736034992e-04 6.5480061770258926e-06 1.4510832690624290e-04
15 9.6588445717723614e-04 4.3203102107361609e-06 2.8733387083966098e-04
16 9.1082941359405662e-04 5.3782834641769960e-06 4.2489916775693195e-04
17 8.3834690522395256e-04 -2.2247702274408840e-06 5.4737981982890091e-04
18 7.4450249865928516e-04 -5.4339203790325431e-06 6.6274460730828379e-04
19 6.4034302320235413e-04 3.0836340292638538e-06 7.5849544834987717e-04
20 5.2169645419353314e-04 2.4731091601058879e-06 8.3972412775144465e-04
21 3.9429354387007803e-04 5.5047713745700836e-06 9.0275230117224333e-04
22 2.5969216269920102e-04 6.1102278213711160e-06 9.4760309889907566e-04
23 1.4570404324359761e-04 -2.2528185841876524e-05 9.6930923851907224e-04
24 1.5790386067780949e-04 1.4022957447435040e-04 -9.5899015574945040e-04
25 1.5781112439104141e-04 1.0539239669138858e-04 9.6379867846475441e-04
26 5.9019107699520687e-04 1.1338684710759157e-04 -7.8747616555087613e-04
27 5.7732140625881294e-04 -1.1316383971104721e-04 7.9747015676586818e-04
28 9.7777803689018655e-04 1.3508858642986084e-04 -2.1053544903585128e-04
29 8.6381533796944115e-04 1.5069984166907370e-04 4.8877058335010045e-04
30 9.3570951323742148e-04 -1.1841632977000429e-04 3.5211878393815149e-04
31 9.7421793977104287e-04 -1.1909876538429224e-04 -2.3331650361952137e-04
32 5.6863824886227692e-04 -1.2236047666221896e-04 -8.0170755157539357e-04
33 5.7792052322508955e-04 1.1487734043117376e-04 7.9638419995239483e-04
34 1.4798784116853492e-04 -9.3467224611115234e-05 -9.6622100656086857e-04
35 1.9313469810742430e-04 -1.1036128205506226e-04 9.5632848160190050e-04
36 7.8653026927411605e-04 -1.2356616262465870e-04 6.0362348813663036e-04
37 7.8423290101061838e-04 1.2816403548345775e-04 -6.0539197977001408e-04
38 1.0022489091844999e-03 -1.0635168616262459e-04 6.8031713627322653e-05
39 9.7851824456389415e-04 1.2326067147701319e-04 2.1228726477337949e-04
40 8.6126365167322311e-04 -1.3325959226527555e-04 -4.9599501311024189e-04
41 3.0330464217570130e-04 1.3761266368054456e-04 -9.2554952873434126e-04
42 2.1462176407426853e-04 2.6586387479358048e-04 -9.2235728194701874e-04
43 3.4230038468741633e-04 2.6401814038217217e-04 -8.8529913180774797e-04
44 3.1571560394382490e-04 1.2261673080786237e-04 9.2419324356455418e-04
45 6.8680184293886662e-04 1.2730936323497192e-04 -7.0793953513465359e-04
46 7.2455103808288682e-04 2.4882832192549964e-04 -6.3881975749201637e-04
47 2.8083794637039647e-04 3.7601682073261171e-04 -8.6751565004566662e-04
48 4.0982217039664938e-04 3.6399131312022027e-04 -8.2256942692405762e-04
49 3.4503231430991251e-04 4.7577954203290382e-04 -7.9651509667555452e-04
50 8.1269892707375581e-04 2.5072441556650999e-04 -5.2869759863512851e-04
51 7.4147522700870557e-04 3.7075760378448849e-04 -5.5995558064225682e-04
52 8.2196799387196135e-04 3.6707375397249483e-04 -4.4412544672347648e-04
53 7.4112047242208057e-04 4.8581935000751323e-04 -4.7019557673100428e-04
54 8.1367690583396442e-04 4.7813363137427697e-04 -3.4851543466321203e-04
55 7.2555843871337602e-04 5.9060866097682477e-04 -3.6892499220524512e-04
56 7.8984926730329649e-04 5.7723388183101188e-04 -2.4321283504471721e-04
57 6.4744634860795314e-04 5.9613409944556182e-04 -4.8025700035185466e-04
58 6.2021751161335287e-04 6.9255505870700277e-04 -3.8230971691643366e-04
59 5.3453337178018488e-04 6.9105926898122547e-04 -4.9114681108044589e-04
60 5.0111725171922330e-04 7.7853332827444428e-04 -3.9102125052696866e-04
61 4.0996085328260192e-04 7.6451310491755455e-04 -5.0162270172020372e-04
62 3.7280744120124596e-04 8.4785457831237422e-04 -3.9012160452381474e-04
63 2.1628446494967882e-04 4.9008378589566321e-04 -8.3048169075693136e-04
64 4.5972188447172786e-04 8.5037881046359321e-04 -2.8234592585743345e-04
65 2.7038541487542638e-04 8.2537357175098110e-04 -4.9956791135391976e-04
66 2.3736868106249455e-04 9.0194212400295003e-04 -3.7538788831112434e-04
67 1.2971696474144154e-04 8.7250972350714346e-04 -4.7678155801281511e-04
68 8.9621178036712205e-05 2.7997630618026900e-04 -9.3726029686077206e-04
69 1.5408635334108529e-04 7.8294980955376898e-04 -6.0127921224972173e-04
70 8.6677934263805262e-04 4.6440425938235893e-04 -2.2308668042194819e-04
71 8.4026733835261774e-04 5.4949577581732141e-04 -1.0833031772993995e-04
72 7.4920204901436811e-04 6.6346868955018709e-04 -1.3187545200101747e-04
73 7.8977211607283385e-04 6.2975873879610991e-04 2.7270618178335198e-06
74 6.8993991514534057e-04 7.3715279563055691e-04 -1.9904857607712708e-05
75 7.1856073300952681e-04 6.9993148407169017e-04 1.1327656249505973e-04
76 6.1280718227771152e-04 7.9733451752473858e-04 9.0818193120258348e-05
77 6.3607192674043210e-04 7.4981743291050460e-04 2.2390604541368467e-04
78 5.2291272606188341e-04 8.3969255957135763e-04 1.9757680581574568e-04
79 9.8208768934025006e-05 9.3904985359988019e-04 -3.4718627042551486e-04
80 -1.1263752569724229e-05 9.0162644415068540e-04 -4.4008530716865856e-04
81 2.4332520450052206e-04 2.3510692519587077e-04 9.2418261688927616e-04
82 5.4113353774587405e-04 7.8168905041058599e-04 3.3131196725225148e-04
83 -4.2335958556381819e-05 9.5324931944224325e-04 -3.1938245146898687e-04
84 4.1937578408693881e-04 8.6622079529149901e-04 2.9702032330542345e-04
85 4.3352674820336092e-04 8.0188530044546030e-04 4.2143912060831973e-04
86 3.0608034243241079e-04 8.7385892228456549e-04 3.9052376259073626e-04
87 3.1597592464813136e-04 8.0278110798674208e-04 5.0890790659229132e-04
88 1.8785660405217148e-04 8.6027851423304050e-04 4.7921262792557012e-04
89 1.6319952668047616e-04 9.2727089366224046e-04 3.5349280278650574e-04
90 4.9626273159129826e-05 9.0033347395112088e-04 4.4061333878629401e-04
91 7.1286094673163753e-05 8.2703871252847209e-04 5.5776811427742871e-04
92 -6.2305095233081384e-05 8.5789802016674919e-04 5.1258763305180336e-04
93 -9.4959512424571752e-05 9.1897883938031936e-04 3.9517454616279309e-04
94 -2.0186111815653573e-04 8.6450960098736541e-04 4.6653696577187922e-04
95 -1.7003540330725201e-04 8.0384588016587733e-04 5.6818929337289984e-04
96 -2.3200170077137164e-04 9.1681049938874097e-04 3.4289398259025123e-04
97 1.0733804207377884e-04 2.4066674845111549e-04 9.4665256137868884e-04
98 5.5150292255227616e-04 6.9659955555697662e-04 4.6782614288214195e-04
99 1.7158784638737266e-04 3.5759192115963158e-04 9.0196252765998187e-04
100 3.2721881082859884e-05 3.5626161145584014e-04 9.1728300078239647e-04
101 -3.3435273028619232e-05 2.4042385284796464e-04 9.5191842898067927e-04
102 -1.0459873688703035e-04 3.5002399317050209e-04 9.1427505029706879e-04
103 2.0067996468268448e-04 9.5668418566137599e-04 -2.4526732783868417e-04
104 -1.2587383964890906e-04 9.6525365177970801e-04 2.6005123168455557e-04
105 -2.5757204717629869e-04 9.5248823002477096e-04 2.0691364364801033e-04
106 -3.6384184482781795e-04 8.9407694770523552e-04 2.8687357378525568e-04
107 -1.5246027361870865e-04 9.1021959069404498e-04 -3.9652052144992754e-04
108 -1.3074707448415952e-04 8.4802524399630859e-04 -5.1568008686621195e-04
109 -3.8572033565980056e-04 9.2020271929921748e-04 1.4959166665783039e-04
110 -2.6413098457354770e-04 8.4778479698810678e-04 -4.6578425782450546e-04
111 -2.3859096925532455e-04 7.7498211556910172e-04 -5.8356963049211981e-04
112 -3.6968802544657021e-04 7.6626565588010156e-04 -5.2709557089490545e-04
113 -3.3881169248912865e-04 6.8378278971751856e-04 -6.4148334297249848e-04
114 -4.6485259955513332e-04 6.6979142691373536e-04 -5.7762930805965143e-04
115 -4.2668328532240911e-04 5.8170892525800412e-04 -6.8540715135053287e-04
116 -4.9418669151806815e-04 7.4325471140843698e-04 -4.5718381641402249e-04
117 -2.8561965699262629e-04 9.0254565344093085e-04 -3.3919665139866471e-04
118 -3.0070031737495058e-04 7.8465718450052089e-04 5.4395900456196810e-04
119 7.2797526821125882e-04 6.5644628245952992e-04 2.3515083722541746e-04
120 -2.9854043882960674e-04 5.8935571859708978e-04 -7.4094732723944934e-04
121 -3.8170566162800117e-04 4.8328334173001135e-04 -7.7649980527546051e-04
122 -5.0618497491119986e-04 4.6819723715296583e-04 -7.1553451444241205e-04
123 -4.5668678956740683e-04 3.6752176795768507e-04 -7.9784368422157730e-04
124 -5.8417660542420908e-04 6.4012450966644061e-04 -5.0210747915465737e-04
125 -6.0843504079822618e-04 7.0644586764694517e-04 -3.7509855495323097e-04
126 -6.9250695512351409e-04 5.9579184851193446e-04 -4.1608077367106980e-04
127 -4.9008857213338100e-04 8.5012851406527398e-04 2.3061413173410390e-04
128 -5.7660101559239266e-04 3.4645778206639308e-04 -7.3027929782071895e-04
129 -5.2312823765370356e-04 2.4329512596502542e-04 -8.0414095601767871e-04
130 -6.3720063603466448e-04 2.1865920402346640e-04 -7.2951191378857255e-04
131 -5.7596194976649434e-04 1.1428125837564752e-04 -7.9730523990378564e-04
132 -6.8730624263826847e-04 8.6749778773393787e-05 -7.1270538962358914e-04
133 -6.1759332154545969e-04 -1.7918850881127631e-05 -7.7513723039745910e-04
134 -7.2365327692333549e-04 -4.6106509943121321e-05 -6.8203372169458806e-04
135 -6.4592942851124965e-04 -1.5022373768967223e-04 -7.3902778648904605e-04
136 -7.9000080662975486e-04 6.3745634566459810e-05 -6.0703181437420247e-04
137 -8.1738152345130384e-04 -7.5064479263385364e-05 -5.7088720604857432e-04
138 -8.7197288802812038e-04 3.7261759718953174e-05 -4.9234031278941662e-04
139 -8.9125347382871872e-04 -1.0450090075695036e-04 -4.4895950026586689e-04
140 -9.3671205917504900e-04 3.4148383535679178e-06 -3.6555922958575335e-04
141 -9.4691489812277676e-04 -1.2957834027126341e-04 -3.1646063652144890e-04
142 -9.8125807680685389e-04 -1.9932277494519972e-05 -2.3041697568285888e-04
143 -9.8149620259316631e-04 -1.5249355912839833e-04 -1.7712038986760571e-04
144 -1.0050176000111057e-03 -3.9103632064748469e-05 -8.8838815317807400e-05
145 -9.9425099316336548e-04 -1.7407114754199940e-04 -3.3055012986065573e-05
146 -1.0069026092669028e-03 -5.8683316449905099e-05 5.4545193166069647e-05
147 -9.8498845880276901e-04 -1.9235577250902112e-04 1.1187176975280588e-04
148 -9.6197127652377138e-04 -3.0672375576765105e-04 2.2933671156253849e-05
149 -9.4217024383055838e-04 -3.2096834655052426e-04 1.6726853663866367e-04
150 -9.5383164849650556e-04 -2.0450077473237169e-04 2.5434557463551409e-04
151 -9.0101131515047533e-04 -3.2830993958388096e-04 3.0785040306191552e-04
152 -9.0153596173036794e-04 -2.0984494042206232e-04 3.9175473958103434e-04
153 -8.3950862143879743e-04 -3.2996807510020073e-04 4.4033478396300456e-04
154 -8.9447495074014972e-04 -2.3285007833649451e-04 -3.9411847620922537e-04
155 -8.3069856856619125e-04 -2.0984921349289650e-04 5.1846799637934079e-04
156 -7.5974123145152827e-04 -3.2661729666968293e-04 5.6198149374885910e-04
157 -8.8334624307255755e-04 -8.2425999352607921e-05 4.6802413632850549e-04
158 -7.4303086327166497e-04 -2.0615557628622541e-04 6.3252860916540804e-04
159 -6.6472295210639912e-04 -3.1766696460561097e-04 6.7045257511970835e-04
160 -1.0070115706647842e-03 7.7726191006929383e-05 -7.3395956957099578e-07
161 -6.4180589023461309e-04 -1.9742929806194350e-04 7.3206242367729660e-04
162 -5.5690114108168784e-04 -3.0629044982543495e-04 7.6237317971198314e-04
163 -5.3403885904299237e-04 -1.2060999588557680e-04 -8.2341192303696546e-04
164 -5.5572260266443737e-04 -2.5175265753726557e-04 -7.8114937705465299e-04
165 -7.1049551364290437e-04 6.5426223451504244e-04 -2.8449954166285103e-04
166 -1.6820258796025907e-04 2.3125143246236553e-04 9.4053269887401996e-04
167 -2.3961336052610001e-04 3.4015033155187412e-04 8.9321119250436877e-04
168 -4.4029465490947830e-04 -2.1793709883522516e-04 -8.5637222463640745e-04
169 -4.5590198206066514e-04 -3.4737409683608804e-04 -8.0731805980919819e-04
170 -5.6628761313297436e-04 -3.8023755758122800e-04 -7.2304539666949159e-04
171 -4.5992693776221536e-04 -4.7325273253595915e-04 -7.4231107459680524e-04
172 -5.6788980243560052e-04 -5.0347436423787940e-04 -6.4668606578655442e-04
173 -4.5233663876801669e-04 -5.9164817592254797e-04 -6.6240173067529215e-04
174 -5.5463811876250893e-04 -6.1628425993290412e-04 -5.5950392285834859e-04
175 -4.3665234447562619e-04 -6.9956906928091394e-04 -5.6620254243247808e-04
176 -7.6379090001489928e-04 -4.3515788425619277e-04 4.8167927861973676e-04
177 -5.3301812230485386e-04 -7.1528868604115792e-04 -4.5944470743739571e-04
178 -4.1128390871192258e-04 -7.9308207454792997e-04 -4.5761578343440256e-04
179 -3.1264009461061604e-04 -7.7287546247185412e-04 -5.5360320459746240e-04
180 -2.7840972484836148e-04 -8.5576346128878121e-04 -4.4558899850599888e-04
181 -1.7505241395855792e-04 -8.2450724126581043e-04 -5.4008766623941332e-04
182 -1.3716267270321992e-04 -8.9761029185612907e-04 -4.2969586813060176e-04
183 -3.4665731019748689e-05 -8.5347800476760403e-04 -5.2357957167397491e-04
184 -4.1718053105841245e-06 -9.2151576390426745e-04 -4.0178923203783220e-04
185 -9.8894140134989759e-05 -9.5555093283276166e-04 -3.0338814420535613e-04
186 3.7005583445602875e-05 -9.7071936537529403e-04 -2.6966286958088369e-04
187 -5.5681508629260120e-05 -9.9360000862326061e-04 -1.6913445576351656e-04
188 8.4713973409210658e-05 -9.9715387768343892e-04 -1.3583597993233992e-04
189 -9.7789135660330275e-06 -1.0098097650576350e-03 -3.0937027940032766e-05
190 1.2653281570807026e-04 -1.0025935381662962e-03 6.8157792860029583e-06
191 3.1567463237252327e-05 -1.0036843834394921e-03 1.0995906707457207e-04
192 1.6904663285677407e-04 -9.8491651710291318e-04 1.4658734689504987e-04
193 6.9532397982688686e-05 -9.7526956243171651e-04 2.4820573948762401e-04
194 2.1369819400176478e-04 -9.8273527860545705e-04 -9.5588345218677301e-05
195 2.0775446921830537e-04 -9.4512374618777224e-04 2.8239417858271279e-04
196 1.0291186168839675e-04 -9.2441818595585693e-04 3.8283786737686035e-04
197 1.1193407665527948e-04 -8.7135547080261356e-04 -4.8498533093138213e-04
198 -9.9365630999183468e-05 -1.0027581268636878e-03 7.0547964952241837e-05
199 2.4076231483295736e-04 -8.8502337842159742e-04 4.1162042823963930e-04
200 3.4367730155717585e-04 -8.9554949645084033e-04 3.0876765185407646e-04
201 3.7178267940438906e-04 -8.2772441785908507e-04 4.3181614451392856e-04
202 1.3346553615156020e-04 -8.5419912851677235e-04 5.0737487645865923e-04
203 4.7141387956575617e-04 -8.2895589399999711e-04 3.2468402499565095e-04
204 -3.6015906758074084e-06 -8.8429794046870002e-04 4.7387296811937440e-04
205 2.7455260997202780e-05 -8.0409247871525771e-04 5.9289815032344153e-04
206 -9.0915049572858932e-04 -4.3275861564831140e-04 7.7375321743857858e-05
207 -7.8514015721065672e-05 -7.6701018972923172e-04 -6.3397753508486517e-04
208 -1.1050937763420105e-04 -8.2524708328906768e-04 5.5513504396748298e-04
209 -7.7486798870617563e-05 -7.3714071888171539e-04 6.6619842955584966e-04
210 4.9140324092112806e-04 -7.5502870252151040e-04 4.4422324603247254e-04
211 5.8641660295907533e-04 -7.4834449331481160e-04 3.3227671560440939e-04
212 -5.0159942194541224e-04 -7.9904170559165011e-04 -3.5034620642082084e-04
213 5.8493763845359465e-05 -7.0805829658902180e-04 6.9694665169378232e-04
214 -4.3664246671471519e-05 -6.3530580327621526e-04 7.6108387666815297e-04
215 -3.3825670401563203e-04 -3.0866109096232210e-04 -8.7359610879877189e-04
216 -2.1434442838315200e-04 -7.4979534828273516e-04 6.2330288454174666e-04
217 -2.4581973757438095e-04 -8.2963208119044159e-04 5.0601806214657240e-04
218 5.6431684357796457e-04 -8.0989615539619521e-04 2.1061535113794206e-04
219 6.8082383818867276e-04 -7.1078337363039441e-04 2.2385502797747146e-04
220 6.4292717406560715e-04 -7.7427795413370767e-04 9.2070833979369577e-05
221 -6.4169230190776151e-04 -6.3080879740097236e-04 -4.4488961893306015e-04
222 7.5178017688088739e-04 -6.6713982182097810e-04 1.0491067629780119e-04
223 7.0276868421860527e-04 -7.2561676722968929e-04 -3.1752991855901546e-05
224 -3.2031314830492245e-04 -1.8093939102863891e-04 -9.1304701191224143e-04
225 -9.6330038793419458e-04 1.0743705282524365e-04 -2.7344642987402553e-04
226 8.9655470936885552e-05 -5.9913159481719152e-04 7.8465614369985259e-04
227 -1.2471168755064974e-05 -5.2184720012911118e-04 8.3957685003701352e-04
228 -5.3046140714505658e-04 -1.7882291103487048e-04 8.1621966610014236e-04
229 -6.0929528703915594e-04 -7.6812180904169258e-05 7.7788848329983355e-04
230 6.8438297784141307e-04 -6.4888777795933672e-04 3.5224219776184250e-04
231 3.9458999340519750e-04 -7.4569655699496741e-04 5.3931189664414207e-04
232 5.1551078488581460e-04 -6.5760099586598911e-04 5.5269874153255402e-04
233 7.9917341885358856e-04 -6.1767597333787139e-04 -2.7589967890641735e-05
234 7.4502078918669971e-04 -6.6324315457160442e-04 -1.5664150558616617e-04
235 -4.0131651453624665e-04 2.6074084205226811e-04 -8.6281987390189672e-04
236 3.0644145700140001e-04 3.5122769147855997e-04 8.6992358690851949e-04
237 -4.4317375317339181e-04 -2.8741375405747942e-04 8.3620266557542580e-04
238 -8.3840151849356927e-04 1.8608396871985615e-04 -5.1614104559671165e-04
239 6.4144498904961642e-04 -7.6275830745986539e-04 -1.6267008043458698e-04
240 6.7803388336517851e-04 -6.8943404604951105e-04 -2.8418356123978167e-04
241 -5.8007865033569918e-04 -4.2416985142136208e-04 6.8890367505072706e-04
242 5.6620688701575651e-04 -7.8253029083679652e-04 -2.8771014843968388e-04
243 5.9711869870937887e-04 -7.0008803440402907e-04 -4.0483480188276914e-04
244 7.0125647976494298e-04 -6.0122850471531607e-04 -3.9731187767924413e-04
245 6.1349863740839459e-04 -6.0398625956080388e-04 -5.1351105550402100e-04
246 -2.1524118978649340e-04 -2.6802689379376728e-04 -9.2183758898555868e-04
247 8.4124225582302213e-04 -5.5033307902138380e-04 9.9818210579383153e-05
248 2.3162216952716822e-04 4.6367356118723845e-04 8.4160639384112622e-04
249 -4.0995240140862953e-04 -1.5540924883847474e-04 8.8350474798944232e-04
250 3.6483955072698999e-04 4.5383037102982780e-04 8.0108599831718390e-04
251 -2.3005403795086783e-04 -3.8758321654140334e-04 -8.7728629403980923e-04
252 -9.9368960876760877e-05 -3.5626486659471213e-04 -9.1236454731168158e-04
253 3.8554465165253335e-04 9.1806463207471387e-04 1.6334605512325145e-04
254 -6.1849486539923332e-04 7.5854900045618551e-04 -2.3961821869226553e-04
255 -7.1349287821552789e-04 6.9775615390066392e-04 -1.4741169228132530e-04
256 -7.9774369467765813e-04 5.8724726366344811e-04 -1.8856241313782885e-04
257 -7.9276130957137494e-04 6.2287374916155085e-04 -4.8270731676744573e-05
258 -4.0041120919204227e-05 4.6399016434659396e-04 8.6989044529106206e-04
259 -3.1751160618602410e-04 -2.5282874599797392e-04 8.9791370111913407e-04
260 -3.0054846059880902e-04 2.1945978639349386e-04 9.1131986923790817e-04
261 -3.7171197383628152e-04 3.2422043085554597e-04 8.5539759095660563e-04
262 -2.8588778452699488e-04 -1.3102235871366411e-04 9.3168029943883088e-04
263 -1.9099480410194578e-04 -2.2391293516575825e-04 9.3789201437836358e-04
264 -8.6855373195242553e-04 5.0615804473014769e-04 -8.9657377523021402e-05
265 -8.5122415524926118e-04 5.4007720513988677e-04 5.5442720299843448e-05
266 -3.4735402774937107e-04 -7.4265954997618439e-04 5.7270442934007472e-04
267 -3.7178654596556045e-04 -8.1632593741180943e-04 4.5047656331477715e-04
268 5.0323261565508306e-04 -6.9673498800264927e-04 -5.1576787805586823e-04
269 5.1237653108468181e-04 -5.9438752991589885e-04 -6.1776807975380955e-04
270 6.1672543981819352e-04 -4.9555676718190608e-04 -6.1001801658034911e-04
271 5.0966647936301682e-04 -4.8089939640239210e-04 -7.0646271797511668e-04
272 4.0124463597765583e-04 -5.7309569527340236e-04 -7.0752589238164208e-04
273 -3.0689332965561832e-04 4.4357000610332787e-04 8.2879140671845053e-04
274 -4.3672133123538726e-04 4.2451221876913756e-04 7.8193735357970113e-04
275 3.9537099220194081e-04 -4.5588268759373776e-04 -7.8658866752227255e-04
276 2.8392015531747286e-04 -5.4163632463424512e-04 -7.8072619854796478e-04
277 -3.4503000630064660e-04 -3.7558885453239818e-04 8.4613358381544802e-04
278 -1.4858213930034957e-04 9.9083051568723234e-04 1.2019829097823627e-04
279 8.2853487148744549e-04 -5.5662999984230639e-04 -1.5174917209297812e-04
280 -2.5056413224375387e-04 4.8831613704777399e-04 -8.2258760784410898e-04
281 -1.6058726116011690e-04 5.9218772436772681e-04 -7.7818497212972591e-04
282 8.7874171125072113e-04 4.9899223004663557e-04 2.6829439212930630e-05
283 1.1949298599093719e-04 -4.8128882849301108e-04 8.5442296137285261e-04
284 -9.9836129242305964e-04 5.3987020458191588e-05 1.3730868173533102e-04
285 -9.1847980089622601e-04 -4.1449615976753382e-04 -6.7308134339901033e-05
286 -8.5597071805570166e-04 -5.3631940240824036e-04 -1.3433054143403135e-05
287 -8.3688022714649749e-04 -5.4957759652125848e-04 1.3044145210326153e-04
288 -7.7469957058131896e-04 -6.4737565940615061e-04 4.0180806607390226e-05
289 -7.4672654842136547e-04 -6.5385017904763282e-04 1.8289135615103146e-04
290 -6.7819522793817802e-04 -7.4249318780317730e-04 9.2827130190064090e-05
291 -1.9884762147202997e-04 -9.6962821859459148e-04 -1.9649569941880709e-04
292 -2.7383020346433801e-04 -8.9131295717921621e-04 3.7760206661347282e-04
293 -3.4575953217490864e-04 -5.4997355682213174e-04 -7.5098161339375686e-04
294 -1.0394460399188641e-04 -4.9185323487383208e-04 -8.5135043709182179e-04
295 -4.9894577228000447e-04 3.0031474640161975e-04 8.0079640037577767e-04
296 -5.6052233996419984e-04 3.9770140792043141e-04 7.1798296265932024e-04
297 -8.6889628339795189e-04 4.5957115460880724e-04 -2.2361384601632433e-04
298 -6.2111096279808542e-04 2.6885615116941075e-04 7.2733525508135227e-04
299 -6.7445628553301773e-04 3.6512936182123238e-04 6.3744711220997826e-04
300 -6.1037453335726949e-04 4.9014632436756818e-04 6.1915578999093468e-04
301 -7.1847182539144403e-04 4.5104082544621728e-04 5.3198533303800582e-04
302 -7.7578245176788648e-04 3.2412377216982168e-04 5.4284760620908169e-04
303 -3.1449118421777485e-04 -6.5940528706808399e-04 6.7672817215270532e-04
304 -6.4290392634004710e-04 5.8157213205264902e-04 5.0291811342992863e-04
305 -8.1249457175593370e-04 4.0201511728870434e-04 4.3208198388039237e-04
306 2.2230720092298467e-04 -5.5228157880620951e-04 7.9227293560678194e-04
307 2.4942994927390207e-04 -4.3348174445034452e-04 8.5234856042101900e-04
308 3.5507048373579402e-04 -5.0118418912008342e-04 7.7877059681121885e-04
309 -4.5630754166820284e-04 -7.2923739157919386e-04 5.1311580782513553e-04
310 -8.6045738141557514e-04 2.7191790305776062e-04 4.3970896449505595e-04
311 -4.0334220634806385e-04 -8.6659368163682308e-04 3.1728626060232245e-04
312 -7.7075023077522158e-04 6.4558628276427388e-04 8.8845805732041966e-05
313 -8.5656026810055253e-04 -5.1127874949531411e-04 -1.5486520962086541e-04
314 -9.2224122043472770e-05 1.1047591778400460e-04 9.7120996647135705e-04
315 -8.9247856198920023e-04 3.4502510664736298e-04 3.1453957477894473e-04
316 -9.8755794611147239e-04 1.8969660646295575e-04 8.8925145157988216e-05
317 -1.1083233639060089e-04 7.7091955560598939e-04 -6.2284037806671069e-04
318 2.7613151752833512e-04 -4.2165517384101179e-04 -8.4980687936686507e-04
319 -6.9682863969895887e-04 -7.2969302407535175e-04 -5.4247529999660063e-05
320 -6.0346494595871637e-04 -8.0991865013978919e-04 5.3462193855272383e-06
321 -6.6669469754847917e-04 -4.0710230179952163e-04 -6.2114755826723600e-04
322 -8.9254935780662197e-05 -2.2166629673772432e-04 -9.5271826244290711e-04
323 5.2246278978275147e-04 -8.6087700714934906e-04 8.2370813354448421e-05
324 -6.1600755226321304e-04 7.9245143157720844e-04 -1.0227165028816923e-04
325 2.8758871164114225e-04 5.5798900430081800e-04 7.6784627914997807e-04
326 2.8509690473196928e-04 -6.5275384972093918e-04 -6.9535662971948299e-04
327 1.6207596882829859e-04 -6.1661297395391600e-04 -7.6080627360521015e-04
328 4.2114306801373924e-04 5.4491923551570757e-04 7.1724908558850285e-04
329 4.9287600743617445e-04 4.3634082497726035e-04 7.4346919343504627e-04
330 4.7003978234144255e-04 4.5670359534798422e-04 -7.4509776411612390e-04
331 -1.3216486476666349e-05 9.9418976030037944e-04 1.7066343554198552e-04
332 -3.6318822813915506e-05 1.0083458929624376e-03 3.1713933294363165e-05
333 -1.6648423519636212e-04 9.9533546225232905e-04 -1.7671737291965220e-05
334 1.0005381372972127e-04 1.0010013594607887e-03 8.0883382560379688e-05
335 3.7154636603437311e-04 -3.7227659735824615e-04 8.3743565774271553e-04
336 4.6520548189063509e-04 -4.3891804545224613e-04 7.5900455247700823e-04
337 -8.1725494577125873e-04 1.9663930606829104e-04 5.4273841995705369e-04
338 -3.6553988045638674e-04 5.3922868169864067e-04 7.4887167702232624e-04
339 -1.2740193930843119e-04 4.9518095029588507e-04 -8.4474790042404812e-04
340 3.8549035743128677e-04 -3.3547046294214852e-04 -8.4582730697149049e-04
341 2.4390326719490050e-05 -3.0060654110189346e-04 -9.3610981145309565e-04
342 -9.3659405679463075e-04 3.6086437894845136e-04 -1.1331406759732088e-04
343 1.2600806694690387e-05 -4.0157985469476136e-04 8.9988679477664665e-04
344 -5.3278581845340957e-04 6.1121085984454078e-04 5.8419752804709743e-04
345 -5.4931138948895240e-04 7.0555039362837414e-04 4.5744594459704496e-04
346 -6.6779347902258404e-04 6.5138988428795216e-04 3.7505407446391099e-04
347 6.0865420607698569e-04 -3.7758784181688191e-04 -6.9190574598229258e-04
348 7.1083724876335548e-04 -3.8541894220366334e-04 -5.8818884480824117e-04
349 5.4276116264156699e-04 5.2440964190380993e-04 6.5128871937632097e-04
350 6.1334835936778043e-04 4.0648106226232283e-04 6.7124269285229936e-04
351 6.5956970715916558e-04 4.8983884739695223e-04 5.6991352310705422e-04
352 7.2282852417883913e-04 3.6106321474602311e-04 5.8805948162304162e-04
353 7.5972621325034561e-04 4.4815597890446448e-04 4.7810813425205889e-04
354 -6.4249802907958794e-04 -7.4185746181989662e-04 2.3210483136386893e-04
355 2.7372244637805269e-04 5.7878707837651945e-04 -7.5721004913514530e-04
356 1.3915993096333537e-04 5.9694860955698326e-04 -7.7868225549709391e-04
357 -6.8195417827501901e-04 3.1772252211828284e-04 -6.5259511262866731e-04
358 5.2303270034980928e-04 -8.4730797541344158e-04 -1.6667275224749206e-04
359 4.4295750473956016e-04 -8.5850455613476666e-04 -2.8684101650399275e-04
360 -8.3388447754628758e-04 4.7484072823378802e-04 3.0527791019261449e-04
361 -1.4336431115001108e-04 -5.5124416542802783e-04 8.0954481782014400e-04
362 -2.0732947956441329e-04 3.8476220132014250e-04 -8.8352776735561487e-04
363 -2.4014679262685483e-04 5.5073226751923448e-04 7.8745160846999996e-04
364 -5.1524208695645816e-04 8.4584032556562431e-04 -1.8922593525866208e-04
365 1.5747921220460242e-04 5.6696196886688868e-04 7.9662008392985021e-04
366 -3.8321037280733880e-04 -3.0184988857784018e-05 9.0673301647534643e-04
367 -7.0085080130056240e-04 -6.4611316455290833e-04 3.2419728162323691e-04
368 2.1286402039230712e-04 6.7417620571463409e-04 7.0062011098207411e-04
369 8.1071929872768761e-05 6.5183926007641806e-04 7.4377076643761578e-04
370 7.0188504140775111e-04 -2.5955025444549022e-04 -6.5904587598725076e-04
371 -5.5459967377130884e-04 1.7164958311211064e-04 8.0226421696994062e-04
372 -6.7197731480585167e-04 1.3759605667792551e-04 7.2007083786338627e-04
373 5.7474000539761282e-04 8.2901902659593863e-04 -4.0733835958570607e-05
374 -1.6445493597654548e-04 -9.7144696967738721e-05 9.6325771940247848e-04
375 -6.4645278115220227e-05 -1.9842060697871269e-04 9.5959088887280302e-04
376 -3.0461772223717840e-04 -9.3209531419856037e-04 2.3669756376970831e-04
377 -4.3349599327116242e-04 -8.9680073157855436e-04 1.6898012557935009e-04
378 -9.3126503972390941e-04 1.8873673538491098e-04 3.3366046046080409e-04
379 4.4220641280727551e-04 6.6065577578878446e-04 -6.0482190465215252e-04
380 1.6716923973715607e-04 -7.1987208617307441e-04 -6.6842411456529153e-04
381 2.8347765002499967e-04 -7.4936224873573920e-04 -5.9715115945729272e-04
382 -9.0779884366171473e-04 -3.8857182084065753e-04 -2.0597496824378771e-04
383 -8.3857734800128075e-04 -4.7761463632477392e-04 -2.8950988014248967e-04
384 -7.7948260232789379e-04 -5.8958517948374514e-04 -2.4866391903751958e-04
385 -1.7013795438261905e-04 -9.4773135559429039e-04 2.9712446271095002e-04
386 -6.6121639637232933e-04 5.2579464993293213e-04 -5.3584747679495551e-04
387 -7.6129959220389020e-04 4.7437738204636487e-04 -4.4877291435831671e-04
388 8.8542471648644981e-04 2.4784422357155444e-04 -4.0595714403924394e-04
389 -9.1261357638711702e-04 3.3545306790624079e-04 -2.6292573053709849e-04
390 -5.1017233926715932e-04 8.6935850535905460e-04 -4.9290510328888296e-05
391 -4.0439340927062207e-04 9.1469965970282486e-04 -1.3235115491932287e-04
392 -6.0490136752193013e-04 8.0711645981067248e-04 3.3091728190537002e-05
393 -5.9980997965168310e-04 -8.0129778988845496e-04 -1.3335450846052672e-04
394 -5.0788828130880433e-04 -8.6956077650854390e-04 -7.3093646551351479e-05
395 7.2264681301841750e-05 1.0049507888307849e-03 -5.7688648553513337e-05
396 2.1204038333283320e-04 9.8686424110805307e-04 -9.0978400757406212e-06
397 5.3842654953014984e-04 3.3898593581385662e-04 -7.6121415104604890e-04
398 2.5796902794081501e-04 -3.0889988450469118e-04 8.9963504647870367e-04
399 3.8209007180166528e-04 -2.3295162118067389e-04 8.7967397994837297e-04
400 -2.9142587219339698e-04 6.3402063940470096e-04 7.0815522204401048e-04
401 -1.7579574474567560e-04 6.4013260583182727e-04 7.3724462382585303e-04
402 3.2198558854598853e-04 -6.1255995387361317e-04 7.1434969295429613e-04
403 6.7183382862391215e-04 2.7798966729712508e-04 6.8042570613460404e-04
404 6.7795430573324984e-04 5.8488076850719416e-04 4.5446945678666621e-04
405 -3.1818039738601596e-04 -9.5468746628246659e-04 8.9325425608038846e-05
406 2.6108527253509159e-04 -2.9763759199345725e-04 -9.0176000022302064e-04
407 3.6795348528882168e-04 -2.1377729300107732e-04 -8.8878326229030848e-04
408 8.9774171578902112e-05 4.9902408734097162e-04 -8.4692589616903904e-04
409 -8.9989467676982989e-04 4.2654642926985873e-04 1.7045920946791198e-04
410 -4.6485350597857619e-04 8.1388202768886708e-04 3.6394458128719649e-04
411 5.7386438698628199e-04 4.3783987723562077e-04 -6.8381685040624397e-04
412 4.6514769113414862e-04 6.4509867774661077e-04 6.0493675983981524e-04
413 8.2092840252517049e-04 3.0034304627132928e-04 4.9149704069805791e-04
414 8.4741417443944694e-04 3.8947454552290284e-04 3.7631912945770813e-04
415 3.4835002237963979e-05 -1.6130449487975295e-04 -9.6730790767512260e-04
416 -9.8453211458481688e-04 2.1812242621546237e-04 -5.3411966640997275e-05
417 -8.6212400164168953e-05 3.8774964496608830e-04 -9.0056772844197212e-04
418 -1.5610604231281722e-04 2.7353341901239727e-04 -9.3124849923368984e-04
419 2.6586542176428616e-05 1.9455897660993244e-04 -9.6075522739366118e-04
420 -8.5728626685470420e-05 -8.3387418316326531e-05 -9.7351668080809979e-04
421 -9.5620383449587223e-04 3.2177414131011838e-04 5.0382369240385168e-05
422 7.9480538916310332e-04 -2.6204323134354415e-04 -5.4950548985962437e-04
423 7.9912458902607782e-04 -3.8262078939449608e-04 -4.7155589542430970e-04
424 2.5099321133560383e-04 9.6909321678847733e-04 1.2726096473474044e-04
425 3.9833172510253569e-05 -6.8578742636817762e-04 -7.1964096770780030e-04
426 2.7479095103949102e-05 -5.5923256851072819e-04 -8.1650798824147515e-04
427 -7.8917475890992361e-05 -6.0673205605101725e-04 -7.7990414423135038e-04
428 4.0359626997021197e-04 -9.0913981057823843e-04 -1.7149311524140826e-04
429 3.1879190402757970e-04 -9.1359328954505425e-04 -2.8177645757923461e-04
430 3.5442611242377371e-04 -8.5400762794474790e-04 -3.9510230302400030e-04
431 -6.0177187255715931e-04 -7.2258650467393621e-04 3.5746796344487334e-04
432 -6.4027069637601227e-04 -6.2026584154605826e-04 4.6182388191138484e-04
433 1.4861585093926894e-04 -3.7217988002806365e-04 -9.0014319370821619e-04
434 -1.3631106237429150e-05 5.8999364397689625e-04 -7.9576019968091629e-04
435 7.3313583455845860e-05 6.8889857308486186e-04 -7.1236603863016057e-04
436 8.9327442260453264e-04 2.5603743108252447e-04 3.8421906824196854e-04
437 9.1293594068423127e-04 3.3660147187203489e-04 2.6254426596326516e-04
438 8.6364616645948577e-04 4.4901976742446625e-04 2.6077301668582802e-04
439 7.6993955596453187e-04 2.2381620916623972e-04 5.9644777603915769e-04
440 -5.9014668743665615e-04 7.5511260065492007e-04 3.0864821928597736e-04
441 -7.0694475061688011e-04 6.8199629510418234e-04 2.2957768331940574e-04
442 6.8691485697517350e-04 -1.2473561411904357e-04 7.0906526305751028e-04
443 7.2087226147878709e-04 -2.4766853202355080e-04 6.4384800985428604e-04
444 8.1380995361596666e-04 -2.4631264428167011e-04 5.2976376087676593e-04
445 7.4264210693232558e-04 -3.6602479380735069e-04 5.6189490346354113e-04
446 8.2423161497014483e-04 -3.6203563983957756e-04 4.4528706602685168e-04
447 7.4623090051722629e-04 -4.7167117581409381e-04 4.7669577137304564e-04
448 6.6145306299817059e-04 -4.7501842896954637e-04 5.8036111134887494e-04
449 8.2106545961163830e-04 -4.6686982781635747e-04 3.4863203394501621e-04
450 8.8970273672067505e-04 -3.5392009724298219e-04 3.1364341945926420e-04
451 6.4803727416448643e-04 -5.8834445292277142e-04 4.9120316598240724e-04
452 6.9523783904184970e-04 1.3264681407090410e-04 7.0033862342153694e-04
453 -5.7153061051261626e-04 -8.1971648632256637e-04 1.4257595126494898e-04
454 2.5801390183703543e-05 -4.3375393053580997e-04 -8.8526869468651419e-04
455 9.1694158506393860e-04 3.9809799586246447e-04 1.4018314934072026e-04
456 4.8387772780477496e-04 -2.3286646301521290e-04 -8.3054846361258232e-04
457 5.2200838101035133e-04 5.4209474186593068e-04 -6.5309858949718041e-04
458 6.1138063101775120e-04 -2.4841755006386833e-04 7.4323803892384572e-04
459 1.3620388677870884e-04 9.7401349258220303e-04 2.2060793632823738e-04
460 6.4446666108727195e-04 6.8937055577811203e-04 3.4880392762657529e-04
461 4.0438414399343608e-04 5.6315273650802626e-04 -7.1187917321141267e-04
462 -4.3423242016159470e-04 7.0730048522327455e-04 5.5799445041714078e-04
463 7.7635706940235559e-04 -1.3483062735528291e-04 -6.1369986479777798e-04
464 8.7168336751859948e-04 -2.5682028350825338e-04 -4.2895180680038584e-04
465 8.7043548815218623e-04 -3.7034124123044680e-04 -3.4496093906602010e-04
466 1.0823744059542481e-05 8.3227913037877397e-04 -5.5402133443660094e-04
467 9.2935217209032727e-04 -2.4605477933097746e-04 -3.0157787876092994e-04
468 9.2425414440398552e-04 -3.5037390691765530e-04 -2.0626849946023840e-04
469 1.5373715891464304e-04 3.8645761667265396e-04 -8.9282541252231533e-04
470 8.7292536043322166e-04 -4.5963518441417242e-04 2.1263323107671865e-04
471 9.3441775622936135e-04 -3.3821654707385829e-04 1.7630474679595080e-04
472 2.0240770253570931e-04 7.7467129840097580e-04 5.9722099891577310e-04
473 1.5333596988794659e-04 -2.4738508948478029e-04 -9.3894030502022054e-04
474 2.2323098597958353e-04 -9.0364760861458759e-04 -3.8144769699020392e-04
475 5.8065977881236158e-04 7.7597923237621266e-04 -2.7487008820296758e-04
476 3.2461014646619667e-04 7.1457044756302265e-04 6.1658207398660977e-04
477 3.0508627099616142e-04 7.3791588321616959e-04 -5.9937604180310600e-04
478 -1.9912962138603674e-04 -5.7077694484330478e-04 -7.8498506211679313e-04
479 -1.8103281699751169e-04 -6.7677485223718544e-04 -7.0603324740592464e-04
480 -3.9267664216761352e-04 8.3253831105682176e-04 -4.0156848030217215e-04
481 2.0661962654197372e-04 6.8173659486930535e-04 -6.9371506474502490e-04
482 7.8251095139283847e-04 -5.8916728654871166e-04 2.4425371576104288e-04
483 9.1151811300962645e-04 -4.2874697203902125e-04 7.3741823485190490e-05
484 9.5899514771276154e-04 -3.1415262134558273e-04 4.2548424167638052e-05
485 5.9584369929113442e-04 -2.4878624371823648e-04 -7.5442784060783237e-04
486 4.1488884908336978e-04 1.5711421752321347e-04 -8.8022835992336351e-04
487 9.9928564145539286e-04 1.2901816786858313e-04 -7.2284138719857678e-05
488 9.6625805372582327e-04 2.7005202522811117e-04 -1.2197378868019290e-04
489 9.8228696403110903e-04 2.3280493222613150e-04 8.8419713036688858e-06
490 9.1279300798898736e-04 4.2169936354253450e-04 -9.4751240194017604e-05
491 3.5236468786863410e-04 9.4590117056236303e-04 2.8257492718653771e-05
492 3.0872733390845597e-04 9.5387206001702816e-04 -1.1999009494091739e-04
493 4.4740712251099991e-04 9.0249065579992406e-04 -6.3467076760902411e-05
494 9.3136724776060967e-04 -3.8644105042126353e-04 -6.1118865074719479e-05
495 9.6740531957005213e-04 -2.7619824445825568e-04 -8.9033428407884322e-05
496 -3.9786741312207972e-04 9.2773679418999271e-04 8.7237153082354490e-06
497 9.9925182337826752e-04 1.2673297163334798e-04 7.5425953050080766e-05
498 6.9275071222400222e-04 6.8304833025477959e-04 -2.6292178209396077e-04
499 9.9952870666765686e-04 -1.2570418248615837e-04 -8.3501280788206067e-05
500 9.7953369956274073e-04 -1.1297477318174583e-04 2.1362637012712027e-04
501 9.2758788741744390e-04 -1.2611970843167869e-04 -3.6865969209280328e-04
502 8.6897549448879498e-04 1.2643449389187873e-04 -4.8491717731190346e-04
503 8.7084426265100659e-04 -1.2214071300037778e-04 4.8301111554868037e-04
504 4.5538151586277669e-04 1.1934736444479212e-04 8.6755357269497171e-04
505 4.3816221383646684e-04 3.4201504098599025e-04 8.1861922454877977e-04
506 6.5043713568276225e-04 -3.6319576609891312e-04 6.6217164473209478e-04
507 3.3140708605118054e-04 -1.1281861560178244e-04 9.1982887343157503e-04
508 6.1640875783525086e-05 -1.4237313741234902e-04 9.6990458100473201e-04
509 1.5747194110683725e-04 -2.3854779054035673e-04 9.4082850012539531e-04
510 2.6976490059715509e-04 -2.0194889658888338e-04 9.2354199832002989e-04
511 -2.0561304774926152e-04 6.8779927456759024e-04 -6.8877839082568846e-04
512 2.7675076302029639e-04 9.3287178814551873e-04 2.6116604840493605e-04
513 5.9013365498771463e-04 -8.1939346893624961e-04 -3.9204080427106760e-05
514 2.6285140469019583e-04 -9.7477794043178119e-04 4.2253186460635015e-05
515 3.0673231647124254e-04 -9.4539774169377481e-04 1.7727201623873043e-04
516 -5.4920575418988024e-04 5.6078586356523685e-04 -6.1610620287882545e-04
517 7.7371310874375021e-04 -5.8474949301712113e-04 -2.7485391293663133e-04
518 -1.4777907757254280e-04 -9.9711037537382951e-04 -6.6730672787769757e-05
519 -2.9382679701112552e-04 -9.6451943281307721e-04 -7.2695999312911915e-05
520 -3.3417960487275880e-04 -9.2629505006041300e-04 -2.1892052375687822e-04
521 -7.8728870194786737e-04 5.3668469635890690e-04 -3.2329532342719147e-04
522 -9.9463736036795231e-04 9.5960717143852843e-05 -1.4087239542978443e-04
523 8.0202767064369072e-04 5.9932505914635508e-04 1.2767549681407114e-04
524 -7.9873044958871640e-04 -5.5206915530766579e-04 2.7032882832021625e-04
525 7.8837554910742231e-04 5.0533089023662055e-04 3.6712407469682563e-04
526 4.7994449093708899e-04 -7.8572051676066958e-04 -4.0342767518769968e-04
527 -9.6058988275858148e-04 -2.8545640142328726e-04 -1.2126631179514174e-04
528 -9.4539249131025374e-04 -8.2819207966045665e-05 3.3463782206470606e-04
529 -9.1964557462446939e-04 4.1834916958899550e-05 4.0275659767077880e-04
530 -8.4546570557550319e-04 4.4759452129479441e-05 5.3488322366048629e-04
531 -7.8294173323909390e-04 -6.2940440414173426e-04 -1.0711680024983943e-04
532 -9.8646970719724718e-04 -7.4507673651740954e-05 1.9755427025216807e-04
533 -7.4613138128278760e-04 5.2743496949260752e-04 4.1713615572606326e-04
534 -7.0439294651256253e-04 7.2272667723151103e-04 -1.4087234933500050e-05
535 -2.3999155724957325e-04 -9.2119511869210300e-04 -3.2806874743222114e-04
536 6.4304030448968975e-04 7.6268796283226656e-04 -1.5152580622279169e-04
537 -1.4112490983726763e-04 -8.9646166373543216e-04 4.3117773406717270e-04
538 -5.3997348393009800e-05 1.0024856377383671e-03 -1.0256273567122772e-04
539 -1.7708368117412535e-04 9.5225516446640842e-04 -2.7500449691572978e-04
540 5.5986067347488428e-05 9.8543789828419879e-04 -2.0775825805996527e-04
541 -9.4826164647220275e-04 2.8142950601975348e-04 1.9923808321432241e-04
542 -8.7972786141104304e-04 -4.4196995645541385e-04 2.1934482944590235e-04
543 -8.0446523835889369e-04 -8.3767925020347198e-05 5.8662403292149539e-04
544 -7.5744704071710695e-04 2.6656933594538744e-05 6.4740956393807077e-04
545 -6.6453131244198407e-04 -5.2292890346124980e-04 -5.3590712945072636e-04
546 -7.5030087255300345e-04 -4.2787830837753583e-04 -5.0767778441652804e-04
547 -7.5391527321228924e-04 -3.0660077026212651e-04 -5.8028402941116906e-04
548 -6.6071552774337654e-04 -2.7998041581475506e-04 -6.8982947688953045e-04
549 2.6822438263824982e-04 -8.0755418975194944e-04 5.2869251251192633e-04
550 5.8331536076541249e-04 5.9667190787288788e-04 5.5053481156437569e-04
551 8.8196597668838790e-04 3.6253962062022502e-04 -3.2259750519080704e-04
552 8.8827286764921849e-04 -2.4193135246309671e-04 4.0472784101000872e-04
553 1.6218179579381326e-04 -7.6682780133711232e-04 6.1857579512021382e-04
554 -4.4778312892746445e-04 -6.3634514157459110e-04 6.2584309934573092e-04
555 -3.9393149797153139e-04 -5.5421708984286153e-04 7.2474443843955879e-04
556 -8.2992136307183438e-04 -4.4354028814740397e-04 3.5600329489394913e-04
557 -6.1524720015634980e-04 -7.1769187071906262e-04 -3.4541992058074024e-04
558 -7.2492114320777486e-04 2.4119506255298540e-04 6.4065652498710584e-04
559 -6.7611946324188537e-04 -4.3172893333986133e-04 5.9500731221237676e-04
560 -5.8497873147558930e-04 -5.4749366631066780e-04 5.9778217971878710e-04
561 6.4912992892433841e-04 4.8602639191050267e-04 -5.8457446950156732e-04
562 -3.2681302798443635e-04 -6.7439683765413102e-04 -6.5772327179842007e-04
563 -4.9266578886950053e-04 5.1808974263786191e-04 6.9199734609464423e-04
564 7.1251740389844276e-04 -4.9871644146219315e-04 -4.9957583715198753e-04
565 -9.2504432838042108e-05 -3.1966378391144528e-04 9.2598480016868904e-04
566 -1.1847462900903066e-04 -4.3541926946179661e-04 8.7707292434051863e-04
567 -2.1815488310753374e-04 -3.4998187074191718e-04 8.9490655949802593e-04
568 -1.7795015191781843e-04 -6.5759288023909562e-04 7.2359715963216749e-04
569 3.9937194924314257e-04 -6.8016788394023901e-04 -6.1296820014468292e-04
570 -7.1340566334749484e-04 -8.9644859721949987e-05 6.8770643161952176e-04
571 5.5625092274816607e-04 3.2414535930237834e-04 7.5511749837607633e-04
572 4.9905030916759313e-04 -3.5939463122973176e-04 -7.7814997636294894e-04
573 1.3737474892258083e-04 -3.6239508789584197e-04 9.0590728070484290e-04
574 -7.4137281046980543e-04 1.8958647710517337e-04 -6.3869501346140375e-04
575 1.5507883029922988e-04 -4.9524378627070363e-04 -8.4135809563700391e-04
576 -4.5977597348871032e-04 -4.1710060396949437e-04 7.7410394183718685e-04
577 -3.3265674390719829e-04 3.7643899218954796e-04 -8.5008927443167134e-04
578 -2.7953796509024140e-04 2.6691636244718123e-04 -9.0561161948203551e-04
579 -3.4654441642288788e-04 1.5841895628512548e-04 -9.0749196245140423e-04
580 -5.0360797731664178e-04 1.0509676093000545e-05 -8.4925250252800694e-04
581 4.5616937651521915e-04 -5.6200375147162120e-04 6.8529188893124825e-04
582 4.8500206907754187e-04 -3.1101069160438110e-04 8.0554752703902689e-04
583 -4.6106830421289470e-04 1.3878881532100552e-04 -8.6119988368377112e-04
584 -4.2861509688861489e-04 1.9855050419376389e-04 8.6619014490583687e-04
585 -4.6876438269784839e-04 7.1090611916211466e-05 8.6550181873287909e-04
586 -3.5331862751392589e-04 -4.2800204249642812e-04 -8.1902870595764105e-04
587 2.0389571193070026e-05 9.5716683695896813e-04 3.1105999295325047e-04
588 -4.1779553023951624e-04 -8.8367134847299820e-05 -8.8821196812359602e-04
589 -3.0051837308772185e-04 -5.7584068385112192e-05 -9.3415904798533798e-04
590 -2.0045646909026211e-04 -1.3470082975982446e-04 -9.5209958562130252e-04
591 -1.7245605662011634e-04 4.5655707390633820e-04 8.5814042582407822e-04
592 -5.1113070305480659e-04 8.0290306933747835e-04 -3.2633629322324260e-04
593 -2.6203765615448834e-04 -7.6482958739297642e-06 9.4699232309498568e-04
594 3.8331869053286126e-04 2.3583327954674330e-04 8.7778024287048543e-04
595 -8.1379613056279472e-04 5.6421174367297347e-04 1.9160876882654663e-04
596 4.3916447740421216e-04 -8.8688426487150082e-04 1.9856329631380372e-04
597 9.5213014180090029e-05 4.6463666405861597e-04 8.6574660326622043e-04
598 3.3244071794539810e-04 9.1246274646757412e-04 -2.6790437735524662e-04
599 1.9247650981026580e-04 -6.6586066840211957e-04 7.1313539505936255e-04
600 -5.2506968818403902e-04 -8.1623119197140085e-04 2.7200167588096514e-04
601 -8.4503706723743001e-04 4.0992007048543078e-04 -3.5875185860353043e-04
602 -8.1368414443960737e-04 3.4144603904309213e-04 -4.7545308041570310e-04
603 -7.5121594697397554e-04 -5.3678743623004118e-04 -3.9933347651362286e-04
604 -9.0978371258937471e-04 1.3727855619415820e-04 -4.0245502967557994e-04
605 -4.1162678199413590e-04 -9.2240232534834539e-04 1.4962658576112705e-05
606 -3.3089411151713448e-04 8.5203071030068214e-04 4.1579060908529053e-04
607 2.8150256014141632e-05 1.5076246634874746e-04 9.6848443395815503e-04
608 -5.6410426575904385e-05 7.7583643442403138e-04 6.2455486753179525e-04
609 -7.4615147074584120e-04 -1.7848624815060865e-04 -6.3768125730917209e-04
610 9.6562855486917248e-04 2.6142928071529485e-04 1.4040941586768198e-04
611 4.4998481134317771e-04 -1.0811837375025053e-04 -8.7143590373762287e-04
612 9.3413809596857146e-04 1.2280098553270476e-04 3.5361177118362779e-04
613 -3.7887473996795851e-04 -8.6851520333494788e-04 -3.4027239241921255e-04
614 5.8974861472262478e-05 -7.9141404666240858e-04 -6.0675135995407609e-04
615 4.6780685580859307e-04 -8.9431560621628390e-04 -4.6162963448987585e-05
616 -6.9283514694065370e-04 -7.0558512642254333e-04 -2.0362721423964342e-04
617 -9.3811576767552623e-04 -2.5943700006136406e-04 -2.6099449535262607e-04
618 -6.2260075590367251e-04 4.4210721848815591e-04 -6.4048910346425718e-04
619 1.8031918873312301e-04 -9.6257942507083571e-04 -2.4337088852068302e-04
620 -3.4959130833446848e-05 -9.4500843597073564e-04 3.4559159216983483e-04
621 3.8425996071667350e-04 -7.7412772042111870e-04 -5.0807653628097535e-04
622 -2.3894672846618825e-04 -4.6172211224712514e-04 8.4017765735291473e-04
623 7.9205773695047968e-04 -4.9022351344551606e-04 -3.7991253734797925e-04
624 9.3373821721394479e-04 1.2715175632307626e-04 -3.5345773069086258e-04
625 -4.1531497675732526e-04 6.2210792706842073e-04 6.5821302660844390e-04
626 -2.6873851066404276e-04 -5.6841828763486537e-04 7.6683337798576624e-04
627 -1.0512492544175104e-04 5.6397529116171679e-04 8.0654033571729599e-04
628 4.8856013159314076e-04 8.8114649365114857e-04 6.4453453135051753e-05
629 -9.6756704929857197e-04 4.4052434400282961e-05 2.7676805945771928e-04
630 -5.9985215766288535e-04 7.9244050057453326e-04 1.7198003833452901e-04
631 -8.2965402540514542e-04 -2.0535724594754185e-04 -5.2160445680975620e-04
632 -4.0477103562419343e-04 8.8156577763691337e-04 -2.7022950316058788e-04
633 9.3859142647945875e-04 2.4545135690543017e-04 -2.7352438288428751e-04
634 -3.4815033060646455e-04 9.8792424708559661e-05 9.1522973781725980e-04
635 3.9519407756261071e-04 -9.2729619066234657e-04 6.7916484552652591e-05
636 -6.7696368393517701e-05 -9.8507198128782434e-04 2.0833243866996888e-04
637 -5.0071408947362651e-04 -5.1422909486312674e-05 8.4995627113877519e-04
638 4.5299106459819580e-04 2.7716774445120585e-04 -8.3233760205961706e-04
639 4.4936976411157298e-04 -1.0884230750528072e-04 8.7189685142390755e-04
640 -7.1628346803073021e-05 6.8239926882327536e-04 -7.1826118516764563e-04
641 -9.6440477549518812e-04 2.2677445727762509e-04 -1.8830218667521280e-04
642 -8.8098380185152269e-04 2.7527417362085960e-04 -3.9642377816911418e-04
643 2.8817688426293529e-04 -7.1693506165149937e-04 6.3127978692288915e-04
644 5.6395900470732703e-04 -4.6735080130753053e-04 6.7525036096402989e-04
645 6.2313744415720955e-04 2.3899731464079504e-04 -7.3530785012104977e-04
646 -2.3003699676746089e-04 1.2084975152295420e-04 9.4738542536548223e-04
647 1.8444688084142095e-05 5.7395280453022171e-04 8.0638898938312220e-04
648 -7.6064660582178371e-04 5.8396819460365180e-04 3.0429272299219818e-04
649 -2.7632875175136851e-04 9.6842108024704687e-04 6.5937155033401429e-05
650 9.4284174379086867e-04 -2.3325881294050348e-04 2.7037711965919166e-04
651 -4.7843603313211424e-04 -8.6191416084350993e-04 -2.1727157304121967e-04
652 -8.7947176820314036e-04 -3.5430375796906337e-04 -3.3675823559353317e-04
653 -2.2192637338031685e-04 1.5322831256580317e-04 -9.4467988507268249e-04
654 8.5369551640213028e-04 -4.7031342555526619e-04 -2.5818923802650457e-04
655 -7.2261321521603834e-04 4.0500230053990699e-04 -5.5924360082234171e-04
656 6.7658124472690713e-04 -1.2936697528255771e-04 -7.1721182956055115e-04
657 -7.4417684799774823e-04 -5.4476311664732676e-04 3.9909148327078235e-04
658 -3.9214357063180468e-04 3.3316684317056550e-05 -9.0242442750680565e-04
659 -1.8065612119995254e-04 2.1903583792704290e-05 -9.6495267805034855e-04
660 -6.2970357218196214e-05 2.5280610151690882e-05 -9.7710161680039068e-04
661 8.7446780897957818e-04 -5.0465437451145494e-04 -3.2547467668351438e-05
662 4.0081437630291135e-05 -2.6499548147831416e-04 9.4592661784766055e-04
663 5.2983829601396457e-04 8.4240398635874081e-04 -1.6393985118695340e-04
664 -2.8921465567424584e-04 9.6398281750838981e-04 -7.3051282001708961e-05
665 -2.9402749543107278e-04 9.4121649882412061e-04 -2.0817067362444023e-04
666 -1.0262557750738023e-04 1.4342020769668069e-04 -9.6569099235288851e-04
667 2.5842834744413374e-04 -8.3573206593269393e-04 -4.9039497490362908e-04
668 -5.8268856712301060e-04 4.6845983563615437e-05 7.9923435306169567e-04
669 -8.2659842210645092e-04 -3.2575910942585993e-04 -4.6505613412167182e-04
670 -5.0430779148774856e-04 8.6918159808976447e-04 9.3565724673048826e-05
671 -9.7324504783996839e-04 1.5419268423503841e-04 2.1077361389669323e-04
672 5.5911578429648616e-04 -3.7062956958932002e-04 7.3193767687026534e-04
673 -3.6126869713227888e-05 2.8089309529770072e-04 -9.4036288530022964e-04
674 -1.9697980124974335e-04 -9.7655362078324741e-04 1.6236580457143249e-04
675 4.2518533379177896e-04 7.3581514167322232e-04 5.2834184708576740e-04
676 7.9841544012579284e-05 7.3956208627594486e-04 6.6286182042841861e-04
677 5.0307005452849467e-04 2.2685898867460196e-04 8.2105645358940770e-04
678 -4.8596421114939655e-04 -7.8511976284679162e-04 3.9673769557596979e-04
679 3.2544659848334547e-04 -9.8102612129847059e-05 -9.2332165670647691e-04
680 3.9971660563084977e-04 -6.6247566373590591e-04 6.2924019305334077e-04
681 -8.8192918531635280e-04 1.4762655191991161e-04 4.5375716754201222e-04
682 -9.1065794551090020e-04 4.3398621793774796e-04 1.4455906103561224e-05
683 -8.7489830756722287e-05 -1.1998925414843095e-07 9.7576476170869769e-04
684 3.4348493190752946e-04 -9.4826012084746607e-04 -5.7716535680662718e-05
685 4.1579436970541335e-04 9.0059292930275072e-04 -1.7766665309992735e-04
686 1.7503370559797697e-04 -7.9989409349144700e-04 -5.7283353604942080e-04
687 1.7074327129485391e-04 9.8495360152448929e-04 -1.3126677053368034e-04
688 -8.1399068358602286e-04 -4.2945909788049080e-04 -4.0121084510430488e-04
689 -5.3924449304780791e-04 -6.4438042495347351e-04 5.4170017462346596e-04
690 5.8854569427298925e-04 -6.8144759030957212e-04 4.4329949458543931e-04
691 9.7560395017082496e-04 -2.2186413847896430e-04 1.3457788897236448e-04
692 -6.8136142623715095e-04 -5.2367787388530804e-04 5.1274251694328630e-04
693 9.4371282023913863e-04 2.2181865208910470e-04 2.7222632219059867e-04
694 -1.8244542716033287e-04 9.8091917169542677e-04 -1.4699506861456818e-04
695 9.2149334379322859e-04 3.5346773421336626e-04 -2.0527628237114297e-04
696 -5.0417984395611265e-05 6.8063958900468240e-04 7.2314131902343393e-04
697 -3.4736168909004281e-04 -4.7948951750000139e-04 7.9291463247382205e-04
698 9.4506644804583356e-04 3.5644122863928034e-04 1.6076367825136824e-05
699 -4.9693788387924207e-04 -5.2304185973851250e-04 6.8478789889061652e-04
700 -6.7272055697247977e-04 1.2047719184068616e-05 7.2965787378420166e-04
701 5.6897543510381430e-04 -5.5930523874351352e-04 6.0022471014477589e-04
702 -7.0159487262142840e-04 -6.4134563193345205e-04 -3.2924088720427447e-04
703 -7.6558918971715920e-04 2.8965710502888936e-04 -5.7138315790795772e-04
704 3.2986544212461017e-05 3.8838534372939406e-04 -9.0349712290576528e-04
705 3.3052796895977212e-04 6.5093445679563976e-04 -6.7517826352429247e-04
706 -3.2818636782512475e-04 7.0519917200036165e-04 6.2307657368152532e-04
707 1.1490151812029107e-04 -9.3244318375201667e-04 -3.5877952560000930e-04
708 -6.8354093037930523e-04 7.3377990366141571e-04 1.0466048727460750e-04
709 1.3779360139008591e-05 7.5634953860279086e-04 -6.4695562762141811e-04
710 -4.2167199739126006e-04 7.7858924421347593e-04 4.6923156160205693e-04
711 -9.3231275315451025e-04 2.1945873855415445e-04 -3.0593500119796574e-04
712 7.8890453873313275e-04 1.0098948744282907e-04 6.0370371083694728e-04
713 -2.1581457859275817e-04 -7.4596794918237121e-04 -6.2566773875286010e-04
714 6.4974534954475097e-04 3.5918654089746354e-04 -6.6417533542020846e-04
715 -2.1470179146093146e-04 -9.8569915704055204e-04 3.6537312277514630e-05
716 -2.8558064752445377e-04 5.7315574705866246e-05 -9.3788464780133248e-04
717 -4.0898185245031248e-04 -9.1491352071503126e-04 -1.1682787165817908e-04
718 5.0562595790301602e-04 -2.0892845406416568e-04 8.2350166295702123e-04
719 7.3998130046946540e-04 -5.5927914915202665e-04 3.8701069440421156e-04
720 8.5699047767230944e-04 5.0564301006715551e-04 1.6217152328062249e-04
721 2.5143255160197319e-04 -1.9703261635667046e-04 -9.2893713699642106e-04
722 -5.8323002019665111e-04 -7.8230234848999361e-04 -2.5076605314145438e-04
723 3.1994437331240692e-05 8.2473663177525869e-05 -9.7596510006782032e-04
724 -1.8969594508504173e-04 7.3138466442385498e-04 6.5088353540291633e-04
725 8.8827380279261068e-04 -4.5551290852109862e-04 -1.4490568226296094e-04
726 6.0747296492173254e-04 2.1509491677454260e-04 7.5367937421861393e-04
727 8.0253580159518275e-04 5.5604546743502885e-04 2.4864836960167969e-04
728 5.6284027002250837e-04 5.9814271646476259e-04 -5.6830664408133197e-04
729 4.8056762183499381e-04 1.1160455708120157e-04 -8.5444228813674414e-04
730 7.3557372552068747e-04 5.9997614692782885e-04 3.3159782394041897e-04
731 -2.6563760240217327e-04 -6.1826339408280423e-04 -7.2867732890522386e-04
732 3.4389706620854691e-04 6.3461120923664178e-04 6.8428900898090698e-04
733 -7.8795380660973141e-05 9.8155685468393557e-04 -2.1098452457282406e-04
734 -2.4708850027689111e-04 -4.8873110843493514e-04 -8.2285549199438452e-04
735 9.6608868133255150e-04 -2.2374475077099250e-04 -1.8391833777064404e-04
736 9.8654967392834366e-04 -2.1268208158958075e-04 1.4318269693488849e-05
737 -4.3899899240503981e-05 -8.8489992691805465e-05 9.7517644138507597e-04
738 -5.0592384076038463e-04 -8.7139961474579466e-04 5.3228023107931807e-05
739 5.1685761120182311e-04 2.0560039542335282e-04 -8.1757728329398581e-04
740 -7.6980869782256847e-04 1.2912982669122152e-04 6.2036601367088334e-04
741 -1.7358058492686619e-04 2.1894373229553069e-05 9.6469530689609947e-04
742 -5.4570984217538966e-04 -7.0485012508986536e-04 4.5817088422324853e-04
743 -1.9070023668082287e-05 4.7504568662447993e-04 -8.6339302139711450e-04
744 2.9015661631558279e-04 -9.5085924384595837e-04 -1.6956816263832025e-04
745 -7.6769458641973991e-05 -6.8839025511411060e-04 -7.1125182274071495e-04
$EndNodes
$Elements
1486
1 2 2 0 0 410 440 345
2 2 2 0 0 421 541 409
3 2 2 0 0 409 682 421
4 2 2 0 0 545 603 546
5 2 2 0 0 426 427 294
6 2 2 0 0 294 454 426
7 2 2 0 0 265 682 409
8 2 2 0 0 24 41 4
9 2 2 0 0 3 24 4
10 2 2 0 0 238 642 602
11 2 2 0 0 520 651 613
12 2 2 0 0 653 666 659
13 2 2 0 0 404 460 98
14 2 2 0 0 222 482 219
15 2 2 0 0 40 463 9
16 2 2 0 0 608 724 696
17 2 2 0 0 435 709 69
18 2 2 0 0 413 439 29
19 2 2 0 0 345 710 410
20 2 2 0 0 422 463 40
21 2 2 0 0 98 550 404
22 2 2 0 0 95 724 608
23 2 2 0 0 4 41 5
24 2 2 0 0 232 701 581
25 2 2 0 0 490 698 488
26 2 2 0 0 29 436 413
27 2 2 0 0 416 421 342
28 2 2 0 0 312 595 441
29 2 2 0 0 41 486 5
30 2 2 0 0 405 605 519
31 2 2 0 0 409 595 265
32 2 2 0 0 69 481 435
33 2 2 0 0 434 743 339
34 2 2 0 0 342 641 416
35 2 2 0 0 485 656 370
36 2 2 0 0 89 587 90
37 2 2 0 0 108 466 317
38 2 2 0 0 378 629 529
39 2 2 0 0 581 680 232
40 2 2 0 0 281 434 339
41 2 2 0 0 638 739 486
42 2 2 0 0 659 666 660
43 2 2 0 0 345 440 346
44 2 2 0 0 22 44 25
45 2 2 0 0 9 463 8
46 2 2 0 0 44 81 25
47 2 2 0 0 459 587 89
48 2 2 0 0 127 670 630
49 2 2 0 0 508 662 509
50 2 2 0 0 375 662 508
51 2 2 0 0 492 598 103
52 2 2 0 0 604 642 238
53 2 2 0 0 507 510 399
54 2 2 0 0 488 698 489
55 2 2 0 0 34 473 415
56 2 2 0 0 399 639 507
57 2 2 0 0 603 688 546
58 2 2 0 0 316 541 421
59 2 2 0 0 647 696 627
60 2 2 0 0 403 439 352
61 2 2 0 0 221 603 545
62 2 2 0 0 595 648 441
63 2 2 0 0 412 550 98
64 2 2 0 0 411 714 397
65 2 2 0 0 486 739 729
66 2 2 0 0 696 724 401
67 2 2 0 0 247 482 222
68 2 2 0 0 397 714 645
69 2 2 0 0 613 651 212
70 2 2 0 0 207 745 425
71 2 2 0 0 98 675 412
72 2 2 0 0 219 482 230
73 2 2 0 0 560 692 432
74 2 2 0 0 432 689 560
75 2 2 0 0 454 575 426
76 2 2 0 0 352 439 413
77 2 2 0 0 415 420 2
78 2 2 0 0 40 464 422
79 2 2 0 0 89 512 459
80 2 2 0 0 425 614 207
81 2 2 0 0 377 600 453
82 2 2 0 0 89 90 88
83 2 2 0 0 80 466 108
84 2 2 0 0 520 717 651
85 2 2 0 0 602 703 238
86 2 2 0 0 103 687 492
87 2 2 0 0 253 491 424
88 2 2 0 0 69 709 466
89 2 2 0 0 424 512 253
90 2 2 0 0 369 696 647
91 2 2 0 0 581 701 644
92 2 2 0 0 630 670 392
93 2 2 0 0 32 656 485
94 2 2 0 0 459 512 424
95 2 2 0 0 90 91 88
96 2 2 0 0 427 478 294
97 2 2 0 0 488 695 490
98 2 2 0 0 554 699 560
99 2 2 0 0 67 80 79
100 2 2 0 0 252 454 294
101 2 2 0 0 253 628 491
102 2 2 0 0 529 681 378
103 2 2 0 0 519 715 405
104 2 2 0 0 440 441 346
105 2 2 0 0 605 717 519
106 2 2 0 0 403 452 439
107 2 2 0 0 507 639 21
108 2 2 0 0 565 567 566
109 2 2 0 0 433 454 341
110 2 2 0 0 67 466 80
111 2 2 0 0 555 697 576
112 2 2 0 0 491 628 493
113 2 2 0 0 389 641 342
114 2 2 0 0 429 619 474
115 2 2 0 0 40 501 464
116 2 2 0 0 576 699 555
117 2 2 0 0 311 600 377
118 2 2 0 0 567 622 566
119 2 2 0 0 433 575 454
120 2 2 0 0 378 671 629
121 2 2 0 0 79 540 103
122 2 2 0 0 341 473 433
123 2 2 0 0 673 704 68
124 2 2 0 0 462 710 345
125 2 2 0 0 557 722 616
126 2 2 0 0 573 662 343
127 2 2 0 0 370 656 463
128 2 2 0 0 341 454 252
129 2 2 0 0 616 702 557
130 2 2 0 0 6 26 7
131 2 2 0 0 464 501 467
132 2 2 0 0 433 473 406
133 2 2 0 0 8 45 37
134 2 2 0 0 466 709 317
135 2 2 0 0 457 461 379
136 2 2 0 0 84 512 86
137 2 2 0 0 19 452 33
138 2 2 0 0 380 614 425
139 2 2 0 0 83 540 79
140 2 2 0 0 398 510 509
141 2 2 0 0 609 631 137
142 2 2 0 0 18 442 36
143 2 2 0 0 26 45 7
144 2 2 0 0 565 566 343
145 2 2 0 0 80 83 79
146 2 2 0 0 560 689 554
147 2 2 0 0 134 137 136
148 2 2 0 0 68 469 42
149 2 2 0 0 659 716 653
150 2 2 0 0 619 707 474
151 2 2 0 0 497 610 39
152 2 2 0 0 137 138 136
153 2 2 0 0 283 573 343
154 2 2 0 0 506 644 448
155 2 2 0 0 499 735 31
156 2 2 0 0 81 97 25
157 2 2 0 0 45 46 37
158 2 2 0 0 585 668 637
159 2 2 0 0 495 735 499
160 2 2 0 0 399 510 398
161 2 2 0 0 509 573 398
162 2 2 0 0 442 443 36
163 2 2 0 0 1 607 314
164 2 2 0 0 29 612 436
165 2 2 0 0 547 631 609
166 2 2 0 0 360 595 409
167 2 2 0 0 421 682 342
168 2 2 0 0 426 575 327
169 2 2 0 0 123 577 235
170 2 2 0 0 339 743 417
171 2 2 0 0 7 45 8
172 2 2 0 0 3 723 24
173 2 2 0 0 418 666 653
174 2 2 0 0 59 60 58
175 2 2 0 0 620 636 193
176 2 2 0 0 42 469 47
177 2 2 0 0 65 67 66
178 2 2 0 0 509 662 573
179 2 2 0 0 470 482 247
180 2 2 0 0 368 476 472
181 2 2 0 0 530 740 337
182 2 2 0 0 253 512 84
183 2 2 0 0 455 698 282
184 2 2 0 0 61 65 62
185 2 2 0 0 59 61 60
186 2 2 0 0 91 472 88
187 2 2 0 0 90 92 91
188 2 2 0 0 19 442 18
189 2 2 0 0 464 465 423
190 2 2 0 0 706 724 118
191 2 2 0 0 456 611 32
192 2 2 0 0 379 477 61
193 2 2 0 0 417 743 704
194 2 2 0 0 314 683 1
195 2 2 0 0 442 458 443
196 2 2 0 0 11 28 12
197 2 2 0 0 61 62 60
198 2 2 0 0 118 724 95
199 2 2 0 0 22 25 23
200 2 2 0 0 247 483 470
201 2 2 0 0 281 640 434
202 2 2 0 0 197 667 474
203 2 2 0 0 86 512 89
204 2 2 0 0 417 704 673
205 2 2 0 0 451 690 230
206 2 2 0 0 27 442 19
207 2 2 0 0 637 668 229
208 2 2 0 0 60 475 58
209 2 2 0 0 489 610 497
210 2 2 0 0 307 573 283
211 2 2 0 0 61 477 65
212 2 2 0 0 65 66 62
213 2 2 0 0 544 740 530
214 2 2 0 0 230 719 451
215 2 2 0 0 18 452 19
216 2 2 0 0 268 569 269
217 2 2 0 0 32 485 456
218 2 2 0 0 627 696 401
219 2 2 0 0 24 42 41
220 2 2 0 0 20 27 19
221 2 2 0 0 330 461 457
222 2 2 0 0 506 672 644
223 2 2 0 0 472 476 87
224 2 2 0 0 468 495 494
225 2 2 0 0 88 472 87
226 2 2 0 0 121 577 123
227 2 2 0 0 327 575 276
228 2 2 0 0 422 464 423
229 2 2 0 0 47 63 49
230 2 2 0 0 458 506 443
231 2 2 0 0 232 690 451
232 2 2 0 0 28 487 12
233 2 2 0 0 80 107 83
234 2 2 0 0 608 696 676
235 2 2 0 0 356 481 355
236 2 2 0 0 138 238 136
237 2 2 0 0 137 139 138
238 2 2 0 0 729 739 26
239 2 2 0 0 81 99 97
240 2 2 0 0 46 50 37
241 2 2 0 0 463 656 8
242 2 2 0 0 443 444 36
243 2 2 0 0 68 704 469
244 2 2 0 0 24 68 42
245 2 2 0 0 16 503 30
246 2 2 0 0 65 69 67
247 2 2 0 0 67 79 66
248 2 2 0 0 676 696 369
249 2 2 0 0 59 379 61
250 2 2 0 0 90 93 92
251 2 2 0 0 464 467 465
252 2 2 0 0 441 708 312
253 2 2 0 0 483 484 471
254 2 2 0 0 427 479 478
255 2 2 0 0 245 564 244
256 2 2 0 0 470 483 471
257 2 2 0 0 473 721 406
258 2 2 0 0 555 699 554
259 2 2 0 0 47 469 63
260 2 2 0 0 63 355 49
261 2 2 0 0 62 64 60
262 2 2 0 0 80 108 107
263 2 2 0 0 107 539 83
264 2 2 0 0 139 140 138
265 2 2 0 0 99 100 97
266 2 2 0 0 81 236 99
267 2 2 0 0 46 51 50
268 2 2 0 0 443 445 444
269 2 2 0 0 24 419 68
270 2 2 0 0 69 466 67
271 2 2 0 0 79 103 66
272 2 2 0 0 65 477 69
273 2 2 0 0 547 548 321
274 2 2 0 0 93 94 92
275 2 2 0 0 467 468 465
276 2 2 0 0 333 664 649
277 2 2 0 0 55 498 56
278 2 2 0 0 56 498 72
279 2 2 0 0 12 499 31
280 2 2 0 0 63 356 355
281 2 2 0 0 108 110 107
282 2 2 0 0 139 141 140
283 2 2 0 0 100 101 97
284 2 2 0 0 236 248 99
285 2 2 0 0 81 594 236
286 2 2 0 0 51 52 50
287 2 2 0 0 192 515 195
288 2 2 0 0 445 446 444
289 2 2 0 0 477 481 69
290 2 2 0 0 94 95 92
291 2 2 0 0 93 96 94
292 2 2 0 0 63 408 356
293 2 2 0 0 108 111 110
294 2 2 0 0 110 117 107
295 2 2 0 0 139 154 141
296 2 2 0 0 141 142 140
297 2 2 0 0 51 53 52
298 2 2 0 0 100 102 101
299 2 2 0 0 236 250 248
300 2 2 0 0 445 447 446
301 2 2 0 0 52 388 50
302 2 2 0 0 277 622 567
303 2 2 0 0 95 608 92
304 2 2 0 0 94 118 95
305 2 2 0 0 93 104 96
306 2 2 0 0 51 561 53
307 2 2 0 0 408 434 356
308 2 2 0 0 53 54 52
309 2 2 0 0 445 448 447
310 2 2 0 0 108 317 111
311 2 2 0 0 141 143 142
312 2 2 0 0 142 225 140
313 2 2 0 0 102 166 101
314 2 2 0 0 250 325 248
315 2 2 0 0 100 258 102
316 2 2 0 0 53 55 54
317 2 2 0 0 447 449 446
318 2 2 0 0 236 505 250
319 2 2 0 0 104 105 96
320 2 2 0 0 53 57 55
321 2 2 0 0 55 56 54
322 2 2 0 0 448 451 447
323 2 2 0 0 14 39 15
324 2 2 0 0 317 511 111
325 2 2 0 0 10 40 9
326 2 2 0 0 143 144 142
327 2 2 0 0 57 58 55
328 2 2 0 0 8 37 9
329 2 2 0 0 14 38 13
330 2 2 0 0 166 314 101
331 2 2 0 0 18 36 17
332 2 2 0 0 16 29 17
333 2 2 0 0 33 504 20
334 2 2 0 0 325 365 248
335 2 2 0 0 199 202 196
336 2 2 0 0 7 32 6
337 2 2 0 0 434 435 356
338 2 2 0 0 74 75 73
339 2 2 0 0 223 239 234
340 2 2 0 0 74 76 75
341 2 2 0 0 72 74 73
342 2 2 0 0 231 549 201
343 2 2 0 0 202 205 204
344 2 2 0 0 226 227 214
345 2 2 0 0 272 275 271
346 2 2 0 0 276 318 275
347 2 2 0 0 213 214 209
348 2 2 0 0 76 77 75
349 2 2 0 0 210 231 201
350 2 2 0 0 16 30 15
351 2 2 0 0 205 209 208
352 2 2 0 0 202 204 196
353 2 2 0 0 318 406 340
354 2 2 0 0 195 196 193
355 2 2 0 0 322 420 415
356 2 2 0 0 239 240 234
357 2 2 0 0 163 588 168
358 2 2 0 0 12 31 11
359 2 2 0 0 56 72 71
360 2 2 0 0 425 426 327
361 2 2 0 0 19 33 20
362 2 2 0 0 168 224 215
363 2 2 0 0 209 568 216
364 2 2 0 0 318 433 406
365 2 2 0 0 269 271 270
366 2 2 0 0 268 269 245
367 2 2 0 0 21 639 20
368 2 2 0 0 84 85 82
369 2 2 0 0 181 207 183
370 2 2 0 0 269 272 271
371 2 2 0 0 272 276 275
372 2 2 0 0 242 243 240
373 2 2 0 0 102 167 166
374 2 2 0 0 223 234 233
375 2 2 0 0 283 343 227
376 2 2 0 0 205 208 204
377 2 2 0 0 213 226 214
378 2 2 0 0 271 572 347
379 2 2 0 0 243 268 245
380 2 2 0 0 335 398 307
381 2 2 0 0 303 555 554
382 2 2 0 0 226 283 227
383 2 2 0 0 347 485 370
384 2 2 0 0 195 199 196
385 2 2 0 0 205 213 209
386 2 2 0 0 246 322 252
387 2 2 0 0 76 78 77
388 2 2 0 0 133 163 135
389 2 2 0 0 163 168 164
390 2 2 0 0 322 415 341
391 2 2 0 0 227 361 214
392 2 2 0 0 191 198 189
393 2 2 0 0 78 84 82
394 2 2 0 0 209 216 208
395 2 2 0 0 78 82 77
396 2 2 0 0 216 303 266
397 2 2 0 0 417 418 362
398 2 2 0 0 314 607 101
399 2 2 0 0 339 362 280
400 2 2 0 0 243 245 244
401 2 2 0 0 187 291 185
402 2 2 0 0 429 430 359
403 2 2 0 0 143 145 144
404 2 2 0 0 202 553 205
405 2 2 0 0 339 417 362
406 2 2 0 0 131 580 133
407 2 2 0 0 239 242 240
408 2 2 0 0 57 59 58
409 2 2 0 0 224 246 215
410 2 2 0 0 84 86 85
411 2 2 0 0 303 554 266
412 2 2 0 0 72 73 71
413 2 2 0 0 437 438 414
414 2 2 0 0 318 340 275
415 2 2 0 0 269 270 245
416 2 2 0 0 86 87 85
417 2 2 0 0 192 193 191
418 2 2 0 0 123 235 129
419 2 2 0 0 263 374 262
420 2 2 0 0 425 427 426
421 2 2 0 0 149 150 147
422 2 2 0 0 210 232 231
423 2 2 0 0 74 373 76
424 2 2 0 0 168 215 169
425 2 2 0 0 259 262 249
426 2 2 0 0 145 146 144
427 2 2 0 0 367 524 289
428 2 2 0 0 271 347 270
429 2 2 0 0 406 407 340
430 2 2 0 0 334 459 424
431 2 2 0 0 429 474 430
432 2 2 0 0 250 328 325
433 2 2 0 0 431 432 367
434 2 2 0 0 104 278 105
435 2 2 0 0 145 147 146
436 2 2 0 0 151 152 150
437 2 2 0 0 235 583 129
438 2 2 0 0 237 249 228
439 2 2 0 0 149 151 150
440 2 2 0 0 159 161 158
441 2 2 0 0 153 155 152
442 2 2 0 0 156 158 155
443 2 2 0 0 354 367 289
444 2 2 0 0 259 263 262
445 2 2 0 0 190 191 189
446 2 2 0 0 177 221 174
447 2 2 0 0 162 228 161
448 2 2 0 0 124 516 386
449 2 2 0 0 418 653 578
450 2 2 0 0 371 584 295
451 2 2 0 0 151 153 152
452 2 2 0 0 153 156 155
453 2 2 0 0 159 162 161
454 2 2 0 0 374 593 262
455 2 2 0 0 156 159 158
456 2 2 0 0 237 259 249
457 2 2 0 0 146 284 160
458 2 2 0 0 266 309 267
459 2 2 0 0 264 265 257
460 2 2 0 0 86 88 87
461 2 2 0 0 265 312 257
462 2 2 0 0 162 237 228
463 2 2 0 0 21 44 22
464 2 2 0 0 324 392 390
465 2 2 0 0 371 585 584
466 2 2 0 0 262 366 249
467 2 2 0 0 192 195 193
468 2 2 0 0 263 375 374
469 2 2 0 0 216 266 217
470 2 2 0 0 326 327 276
471 2 2 0 0 260 646 166
472 2 2 0 0 220 223 222
473 2 2 0 0 322 341 252
474 2 2 0 0 256 257 255
475 2 2 0 0 78 253 84
476 2 2 0 0 358 359 242
477 2 2 0 0 188 189 187
478 2 2 0 0 281 339 280
479 2 2 0 0 146 160 144
480 2 2 0 0 123 129 128
481 2 2 0 0 255 324 254
482 2 2 0 0 228 229 161
483 2 2 0 0 354 431 367
484 2 2 0 0 163 164 135
485 2 2 0 0 155 157 152
486 2 2 0 0 243 244 240
487 2 2 0 0 256 264 257
488 2 2 0 0 284 316 160
489 2 2 0 0 380 425 327
490 2 2 0 0 148 149 147
491 2 2 0 0 335 399 398
492 2 2 0 0 418 578 362
493 2 2 0 0 334 424 396
494 2 2 0 0 167 260 166
495 2 2 0 0 325 368 365
496 2 2 0 0 428 429 359
497 2 2 0 0 165 255 254
498 2 2 0 0 297 342 264
499 2 2 0 0 298 371 295
500 2 2 0 0 218 323 220
501 2 2 0 0 310 337 302
502 2 2 0 0 165 256 255
503 2 2 0 0 186 187 185
504 2 2 0 0 56 71 70
505 2 2 0 0 165 254 125
506 2 2 0 0 200 201 199
507 2 2 0 0 148 206 149
508 2 2 0 0 324 390 364
509 2 2 0 0 190 192 191
510 2 2 0 0 368 369 365
511 2 2 0 0 353 404 351
512 2 2 0 0 104 331 278
513 2 2 0 0 256 297 264
514 2 2 0 0 316 421 416
515 2 2 0 0 239 358 242
516 2 2 0 0 169 586 171
517 2 2 0 0 286 287 206
518 2 2 0 0 324 364 254
519 2 2 0 0 241 576 162
520 2 2 0 0 168 169 164
521 2 2 0 0 121 123 122
522 2 2 0 0 266 267 217
523 2 2 0 0 129 131 130
524 2 2 0 0 216 217 208
525 2 2 0 0 285 382 313
526 2 2 0 0 172 321 170
527 2 2 0 0 390 391 364
528 2 2 0 0 296 563 300
529 2 2 0 0 246 252 251
530 2 2 0 0 285 286 206
531 2 2 0 0 288 289 287
532 2 2 0 0 298 372 371
533 2 2 0 0 23 35 22
534 2 2 0 0 300 344 304
535 2 2 0 0 344 462 345
536 2 2 0 0 123 128 122
537 2 2 0 0 297 389 342
538 2 2 0 0 237 277 259
539 2 2 0 0 148 285 206
540 2 2 0 0 86 89 88
541 2 2 0 0 306 307 283
542 2 2 0 0 234 279 233
543 2 2 0 0 316 416 160
544 2 2 0 0 188 190 189
545 2 2 0 0 85 98 82
546 2 2 0 0 358 428 359
547 2 2 0 0 437 455 438
548 2 2 0 0 203 210 201
549 2 2 0 0 382 383 313
550 2 2 0 0 153 176 156
551 2 2 0 0 290 354 289
552 2 2 0 0 159 241 162
553 2 2 0 0 386 387 126
554 2 2 0 0 273 363 338
555 2 2 0 0 272 326 276
556 2 2 0 0 171 293 173
557 2 2 0 0 145 148 147
558 2 2 0 0 274 295 261
559 2 2 0 0 285 313 286
560 2 2 0 0 383 384 313
561 2 2 0 0 301 302 299
562 2 2 0 0 131 133 132
563 2 2 0 0 296 298 295
564 2 2 0 0 305 310 302
565 2 2 0 0 349 412 328
566 2 2 0 0 344 345 304
567 2 2 0 0 77 119 75
568 2 2 0 0 315 378 310
569 2 2 0 0 363 401 400
570 2 2 0 0 332 333 278
571 2 2 0 0 223 233 222
572 2 2 0 0 331 334 332
573 2 2 0 0 186 188 187
574 2 2 0 0 178 212 177
575 2 2 0 0 305 360 315
576 2 2 0 0 334 396 395
577 2 2 0 0 246 251 215
578 2 2 0 0 167 261 260
579 2 2 0 0 175 179 178
580 2 2 0 0 345 346 304
581 2 2 0 0 124 386 126
582 2 2 0 0 286 288 287
583 2 2 0 0 331 332 278
584 2 2 0 0 179 181 180
585 2 2 0 0 301 305 302
586 2 2 0 0 300 304 301
587 2 2 0 0 296 300 299
588 2 2 0 0 305 315 310
589 2 2 0 0 296 299 298
590 2 2 0 0 320 453 290
591 2 2 0 0 274 296 295
592 2 2 0 0 313 531 286
593 2 2 0 0 120 281 280
594 2 2 0 0 360 409 315
595 2 2 0 0 363 400 338
596 2 2 0 0 129 130 128
597 2 2 0 0 300 301 299
598 2 2 0 0 1 508 23
599 2 2 0 0 167 273 261
600 2 2 0 0 133 135 134
601 2 2 0 0 173 174 172
602 2 2 0 0 311 377 376
603 2 2 0 0 273 274 261
604 2 2 0 0 273 338 274
605 2 2 0 0 334 395 332
606 2 2 0 0 183 197 184
607 2 2 0 0 319 393 320
608 2 2 0 0 449 450 446
609 2 2 0 0 288 290 289
610 2 2 0 0 226 306 283
611 2 2 0 0 326 380 327
612 2 2 0 0 175 177 174
613 2 2 0 0 181 183 182
614 2 2 0 0 219 230 211
615 2 2 0 0 308 335 307
616 2 2 0 0 267 311 292
617 2 2 0 0 169 170 164
618 2 2 0 0 288 319 290
619 2 2 0 0 126 165 125
620 2 2 0 0 120 280 121
621 2 2 0 0 130 357 128
622 2 2 0 0 195 200 199
623 2 2 0 0 169 171 170
624 2 2 0 0 171 172 170
625 2 2 0 0 184 186 185
626 2 2 0 0 73 282 71
627 2 2 0 0 252 294 251
628 2 2 0 0 319 320 290
629 2 2 0 0 131 132 130
630 2 2 0 0 393 394 320
631 2 2 0 0 171 173 172
632 2 2 0 0 4 34 3
633 2 2 0 0 218 220 219
634 2 2 0 0 267 292 217
635 2 2 0 0 184 185 182
636 2 2 0 0 188 194 190
637 2 2 0 0 56 70 54
638 2 2 0 0 377 405 376
639 2 2 0 0 449 470 450
640 2 2 0 0 179 180 178
641 2 2 0 0 173 175 174
642 2 2 0 0 175 178 177
643 2 2 0 0 250 329 328
644 2 2 0 0 311 376 292
645 2 2 0 0 329 571 350
646 2 2 0 0 347 370 348
647 2 2 0 0 220 222 219
648 2 2 0 0 376 385 292
649 2 2 0 0 133 134 132
650 2 2 0 0 134 136 132
651 2 2 0 0 306 308 307
652 2 2 0 0 200 203 201
653 2 2 0 0 233 247 222
654 2 2 0 0 98 460 82
655 2 2 0 0 329 349 328
656 2 2 0 0 326 381 380
657 2 2 0 0 347 348 270
658 2 2 0 0 181 182 180
659 2 2 0 0 121 122 115
660 2 2 0 0 350 351 349
661 2 2 0 0 308 336 335
662 2 2 0 0 350 403 352
663 2 2 0 0 470 471 450
664 2 2 0 0 203 211 210
665 2 2 0 0 218 219 211
666 2 2 0 0 183 184 182
667 2 2 0 0 370 463 422
668 2 2 0 0 306 402 308
669 2 2 0 0 203 218 211
670 2 2 0 0 71 490 70
671 2 2 0 0 329 350 349
672 2 2 0 0 436 437 414
673 2 2 0 0 124 126 125
674 2 2 0 0 413 414 353
675 2 2 0 0 422 423 348
676 2 2 0 0 352 353 351
677 2 2 0 0 370 422 348
678 2 2 0 0 350 352 351
679 2 2 0 0 413 436 414
680 2 2 0 0 352 413 353
681 2 2 0 0 120 121 115
682 2 2 0 0 110 480 117
683 2 2 0 0 124 125 116
684 2 2 0 0 126 521 165
685 2 2 0 0 113 120 115
686 2 2 0 0 127 440 410
687 2 2 0 0 114 124 116
688 2 2 0 0 543 544 530
689 2 2 0 0 488 489 487
690 2 2 0 0 585 637 366
691 2 2 0 0 543 570 544
692 2 2 0 0 113 115 114
693 2 2 0 0 127 410 106
694 2 2 0 0 114 116 112
695 2 2 0 0 195 515 200
696 2 2 0 0 491 493 492
697 2 2 0 0 12 487 13
698 2 2 0 0 546 547 321
699 2 2 0 0 330 457 411
700 2 2 0 0 157 543 530
701 2 2 0 0 519 520 291
702 2 2 0 0 28 488 487
703 2 2 0 0 111 112 110
704 2 2 0 0 312 534 257
705 2 2 0 0 476 732 412
706 2 2 0 0 27 458 442
707 2 2 0 0 385 636 620
708 2 2 0 0 176 559 156
709 2 2 0 0 593 634 366
710 2 2 0 0 589 590 224
711 2 2 0 0 113 114 112
712 2 2 0 0 109 127 106
713 2 2 0 0 270 564 245
714 2 2 0 0 443 506 445
715 2 2 0 0 491 492 396
716 2 2 0 0 388 624 502
717 2 2 0 0 445 506 448
718 2 2 0 0 30 500 15
719 2 2 0 0 20 504 21
720 2 2 0 0 64 475 60
721 2 2 0 0 287 542 206
722 2 2 0 0 23 508 35
723 2 2 0 0 302 558 299
724 2 2 0 0 70 551 54
725 2 2 0 0 62 598 64
726 2 2 0 0 424 491 396
727 2 2 0 0 407 456 340
728 2 2 0 0 545 546 321
729 2 2 0 0 330 411 397
730 2 2 0 0 72 536 74
731 2 2 0 0 238 574 136
732 2 2 0 0 659 660 420
733 2 2 0 0 395 538 332
734 2 2 0 0 143 527 145
735 2 2 0 0 412 675 476
736 2 2 0 0 239 513 358
737 2 2 0 0 157 530 529
738 2 2 0 0 518 519 291
739 2 2 0 0 449 482 470
740 2 2 0 0 207 713 479
741 2 2 0 0 119 523 75
742 2 2 0 0 109 670 127
743 2 2 0 0 10 501 40
744 2 2 0 0 508 509 35
745 2 2 0 0 96 606 94
746 2 2 0 0 331 459 334
747 2 2 0 0 286 531 288
748 2 2 0 0 290 453 354
749 2 2 0 0 282 490 71
750 2 2 0 0 384 531 313
751 2 2 0 0 289 524 287
752 2 2 0 0 349 550 412
753 2 2 0 0 165 521 256
754 2 2 0 0 82 460 77
755 2 2 0 0 155 543 157
756 2 2 0 0 201 549 199
757 2 2 0 0 273 591 363
758 2 2 0 0 387 521 126
759 2 2 0 0 114 516 124
760 2 2 0 0 53 561 57
761 2 2 0 0 266 554 309
762 2 2 0 0 257 534 255
763 2 2 0 0 205 553 213
764 2 2 0 0 142 522 225
765 2 2 0 0 435 481 356
766 2 2 0 0 216 568 303
767 2 2 0 0 300 563 344
768 2 2 0 0 214 568 209
769 2 2 0 0 112 480 110
770 2 2 0 0 350 571 403
771 2 2 0 0 347 572 485
772 2 2 0 0 275 572 271
773 2 2 0 0 274 563 296
774 2 2 0 0 171 586 293
775 2 2 0 0 162 576 237
776 2 2 0 0 133 580 163
777 2 2 0 0 11 501 10
778 2 2 0 0 295 584 261
779 2 2 0 0 129 583 131
780 2 2 0 0 215 586 169
781 2 2 0 0 250 505 329
782 2 2 0 0 168 588 224
783 2 2 0 0 321 548 170
784 2 2 0 0 262 593 366
785 2 2 0 0 166 646 314
786 2 2 0 0 520 535 291
787 2 2 0 0 373 663 493
788 2 2 0 0 291 535 185
789 2 2 0 0 101 607 97
790 2 2 0 0 130 574 357
791 2 2 0 0 158 570 543
792 2 2 0 0 31 501 11
793 2 2 0 0 444 552 503
794 2 2 0 0 156 559 159
795 2 2 0 0 236 594 505
796 2 2 0 0 206 542 149
797 2 2 0 0 54 551 52
798 2 2 0 0 74 536 373
799 2 2 0 0 337 558 302
800 2 2 0 0 150 532 147
801 2 2 0 0 379 728 457
802 2 2 0 0 299 558 298
803 2 2 0 0 332 538 333
804 2 2 0 0 145 527 148
805 2 2 0 0 514 515 192
806 2 2 0 0 15 500 14
807 2 2 0 0 75 523 73
808 2 2 0 0 467 501 31
809 2 2 0 0 254 592 125
810 2 2 0 0 172 545 321
811 2 2 0 0 144 522 142
812 2 2 0 0 528 532 150
813 2 2 0 0 187 518 291
814 2 2 0 0 553 599 213
815 2 2 0 0 383 603 384
816 2 2 0 0 282 698 490
817 2 2 0 0 244 517 240
818 2 2 0 0 353 525 404
819 2 2 0 0 395 540 538
820 2 2 0 0 94 606 118
821 2 2 0 0 117 539 107
822 2 2 0 0 185 535 182
823 2 2 0 0 388 502 50
824 2 2 0 0 167 591 273
825 2 2 0 0 147 532 146
826 2 2 0 0 92 608 91
827 2 2 0 0 472 676 368
828 2 2 0 0 364 592 254
829 2 2 0 0 21 504 44
830 2 2 0 0 365 597 248
831 2 2 0 0 125 592 116
832 2 2 0 0 588 589 224
833 2 2 0 0 111 113 112
834 2 2 0 0 63 469 408
835 2 2 0 0 105 109 106
836 2 2 0 0 242 526 243
837 2 2 0 0 439 712 29
838 2 2 0 0 240 517 234
839 2 2 0 0 346 533 304
840 2 2 0 0 14 500 38
841 2 2 0 0 494 495 484
842 2 2 0 0 127 630 440
843 2 2 0 0 208 537 204
844 2 2 0 0 175 562 179
845 2 2 0 0 303 626 555
846 2 2 0 0 359 526 242
847 2 2 0 0 243 526 268
848 2 2 0 0 217 537 208
849 2 2 0 0 58 498 55
850 2 2 0 0 503 552 30
851 2 2 0 0 13 499 12
852 2 2 0 0 268 621 569
853 2 2 0 0 489 497 487
854 2 2 0 0 475 498 58
855 2 2 0 0 430 526 359
856 2 2 0 0 248 597 99
857 2 2 0 0 292 537 217
858 2 2 0 0 26 645 45
859 2 2 0 0 234 517 279
860 2 2 0 0 14 497 39
861 2 2 0 0 385 537 292
862 2 2 0 0 305 533 360
863 2 2 0 0 304 533 301
864 2 2 0 0 146 532 284
865 2 2 0 0 483 494 484
866 2 2 0 0 173 562 175
867 2 2 0 0 116 480 112
868 2 2 0 0 224 590 246
869 2 2 0 0 189 518 187
870 2 2 0 0 498 536 72
871 2 2 0 0 414 525 353
872 2 2 0 0 160 522 144
873 2 2 0 0 547 609 548
874 2 2 0 0 182 535 180
875 2 2 0 0 297 601 389
876 2 2 0 0 44 594 81
877 2 2 0 0 301 533 305
878 2 2 0 0 105 106 96
879 2 2 0 0 515 596 200
880 2 2 0 0 293 562 173
881 2 2 0 0 73 523 282
882 2 2 0 0 148 527 285
883 2 2 0 0 174 545 172
884 2 2 0 0 218 596 323
885 2 2 0 0 200 596 203
886 2 2 0 0 149 542 151
887 2 2 0 0 446 552 444
888 2 2 0 0 49 461 330
889 2 2 0 0 330 397 48
890 2 2 0 0 453 738 377
891 2 2 0 0 255 534 324
892 2 2 0 0 52 551 388
893 2 2 0 0 634 646 260
894 2 2 0 0 513 615 358
895 2 2 0 0 438 525 414
896 2 2 0 0 516 618 386
897 2 2 0 0 198 518 189
898 2 2 0 0 227 566 361
899 2 2 0 0 559 560 241
900 2 2 0 0 90 587 93
901 2 2 0 0 416 522 160
902 2 2 0 0 102 591 167
903 2 2 0 0 134 609 137
904 2 2 0 0 298 558 372
905 2 2 0 0 132 574 130
906 2 2 0 0 106 606 96
907 2 2 0 0 159 559 241
908 2 2 0 0 32 611 6
909 2 2 0 0 158 543 155
910 2 2 0 0 223 513 239
911 2 2 0 0 288 531 319
912 2 2 0 0 323 513 220
913 2 2 0 0 115 516 114
914 2 2 0 0 521 601 297
915 2 2 0 0 610 698 455
916 2 2 0 0 354 600 431
917 2 2 0 0 351 550 349
918 2 2 0 0 256 521 297
919 2 2 0 0 140 604 138
920 2 2 0 0 77 460 119
921 2 2 0 0 17 503 16
922 2 2 0 0 9 502 10
923 2 2 0 0 104 587 331
924 2 2 0 0 152 528 150
925 2 2 0 0 315 541 378
926 2 2 0 0 170 548 164
927 2 2 0 0 590 659 420
928 2 2 0 0 11 624 28
929 2 2 0 0 199 549 202
930 2 2 0 0 502 624 10
931 2 2 0 0 453 600 354
932 2 2 0 0 42 43 41
933 2 2 0 0 38 499 13
934 2 2 0 0 285 527 382
935 2 2 0 0 190 514 192
936 2 2 0 0 157 529 528
937 2 2 0 0 231 643 549
938 2 2 0 0 331 587 459
939 2 2 0 0 451 701 232
940 2 2 0 0 99 597 100
941 2 2 0 0 361 568 214
942 2 2 0 0 372 740 544
943 2 2 0 0 221 545 174
944 2 2 0 0 138 604 238
945 2 2 0 0 340 572 275
946 2 2 0 0 338 563 274
947 2 2 0 0 524 542 287
948 2 2 0 0 265 595 312
949 2 2 0 0 111 511 113
950 2 2 0 0 580 658 588
951 2 2 0 0 580 588 163
952 2 2 0 0 237 576 277
953 2 2 0 0 444 503 36
954 2 2 0 0 131 583 580
955 2 2 0 0 505 571 329
956 2 2 0 0 203 596 218
957 2 2 0 0 584 634 260
958 2 2 0 0 261 584 260
959 2 2 0 0 369 647 365
960 2 2 0 0 251 586 215
961 2 2 0 0 348 564 270
962 2 2 0 0 450 552 446
963 2 2 0 0 390 496 391
964 2 2 0 0 66 598 62
965 2 2 0 0 465 623 423
966 2 2 0 0 258 591 102
967 2 2 0 0 343 566 227
968 2 2 0 0 564 623 244
969 2 2 0 0 154 617 141
970 2 2 0 0 324 534 392
971 2 2 0 0 50 502 37
972 2 2 0 0 524 556 542
973 2 2 0 0 544 700 372
974 2 2 0 0 122 516 115
975 2 2 0 0 177 557 221
976 2 2 0 0 489 698 610
977 2 2 0 0 93 587 104
978 2 2 0 0 136 574 132
979 2 2 0 0 593 646 634
980 2 2 0 0 116 592 480
981 2 2 0 0 143 617 527
982 2 2 0 0 225 604 140
983 2 2 0 0 137 631 139
984 2 2 0 0 549 553 202
985 2 2 0 0 164 548 135
986 2 2 0 0 404 550 351
987 2 2 0 0 34 721 473
988 2 2 0 0 220 513 223
989 2 2 0 0 317 640 511
990 2 2 0 0 100 597 258
991 2 2 0 0 588 658 589
992 2 2 0 0 323 615 513
993 2 2 0 0 568 626 303
994 2 2 0 0 377 605 405
995 2 2 0 0 178 613 212
996 2 2 0 0 493 628 373
997 2 2 0 0 157 528 152
998 2 2 0 0 591 627 363
999 2 2 0 0 409 541 315
1000 2 2 0 0 183 614 197
1001 2 2 0 0 103 598 66
1002 2 2 0 0 188 619 194
1003 2 2 0 0 213 599 226
1004 2 2 0 0 306 599 402
1005 2 2 0 0 97 607 25
1006 2 2 0 0 194 514 190
1007 2 2 0 0 373 628 76
1008 2 2 0 0 78 628 253
1009 2 2 0 0 42 47 43
1010 2 2 0 0 39 612 15
1011 2 2 0 0 16 612 29
1012 2 2 0 0 437 610 455
1013 2 2 0 0 487 497 13
1014 2 2 0 0 440 630 441
1015 2 2 0 0 479 713 562
1016 2 2 0 0 196 620 193
1017 2 2 0 0 456 572 340
1018 2 2 0 0 120 511 281
1019 2 2 0 0 577 578 235
1020 2 2 0 0 335 582 399
1021 2 2 0 0 314 741 683
1022 2 2 0 0 520 613 535
1023 2 2 0 0 585 634 584
1024 2 2 0 0 423 564 348
1025 2 2 0 0 457 561 411
1026 2 2 0 0 6 611 5
1027 2 2 0 0 385 620 537
1028 2 2 0 0 228 637 229
1029 2 2 0 0 366 637 249
1030 2 2 0 0 161 570 158
1031 2 2 0 0 434 640 435
1032 2 2 0 0 193 636 191
1033 2 2 0 0 410 606 106
1034 2 2 0 0 37 502 9
1035 2 2 0 0 36 503 17
1036 2 2 0 0 141 617 143
1037 2 2 0 0 363 627 401
1038 2 2 0 0 322 590 420
1039 2 2 0 0 357 618 128
1040 2 2 0 0 430 621 526
1041 2 2 0 0 540 687 103
1042 2 2 0 0 280 577 121
1043 2 2 0 0 276 575 318
1044 2 2 0 0 362 578 577
1045 2 2 0 0 109 649 496
1046 2 2 0 0 246 590 322
1047 2 2 0 0 326 569 381
1048 2 2 0 0 569 621 381
1049 2 2 0 0 269 569 272
1050 2 2 0 0 139 631 154
1051 2 2 0 0 649 664 496
1052 2 2 0 0 537 620 204
1053 2 2 0 0 355 461 49
1054 2 2 0 0 663 685 493
1055 2 2 0 0 479 745 207
1056 2 2 0 0 343 662 565
1057 2 2 0 0 212 557 177
1058 2 2 0 0 45 645 46
1059 2 2 0 0 496 670 109
1060 2 2 0 0 366 634 585
1061 2 2 0 0 384 616 531
1062 2 2 0 0 535 613 180
1063 2 2 0 0 391 632 364
1064 2 2 0 0 308 581 336
1065 2 2 0 0 344 625 462
1066 2 2 0 0 563 625 344
1067 2 2 0 0 13 497 14
1068 2 2 0 0 480 632 117
1069 2 2 0 0 371 668 585
1070 2 2 0 0 333 649 278
1071 2 2 0 0 387 601 521
1072 2 2 0 0 47 49 48
1073 2 2 0 0 358 615 428
1074 2 2 0 0 113 511 120
1075 2 2 0 0 527 617 382
1076 2 2 0 0 105 649 109
1077 2 2 0 0 398 573 307
1078 2 2 0 0 368 676 369
1079 2 2 0 0 180 613 178
1080 2 2 0 0 153 556 176
1081 2 2 0 0 432 657 367
1082 2 2 0 0 458 718 582
1083 2 2 0 0 207 614 183
1084 2 2 0 0 407 611 456
1085 2 2 0 0 244 623 517
1086 2 2 0 0 20 639 27
1087 2 2 0 0 476 675 87
1088 2 2 0 0 319 616 393
1089 2 2 0 0 474 707 197
1090 2 2 0 0 226 599 306
1091 2 2 0 0 47 48 43
1092 2 2 0 0 186 619 188
1093 2 2 0 0 412 732 328
1094 2 2 0 0 316 671 541
1095 2 2 0 0 293 734 478
1096 2 2 0 0 492 685 598
1097 2 2 0 0 528 629 532
1098 2 2 0 0 514 635 515
1099 2 2 0 0 531 616 319
1100 2 2 0 0 8 656 7
1101 2 2 0 0 387 602 601
1102 2 2 0 0 76 628 78
1103 2 2 0 0 122 618 516
1104 2 2 0 0 651 717 394
1105 2 2 0 0 423 623 564
1106 2 2 0 0 546 669 547
1107 2 2 0 0 4 679 34
1108 2 2 0 0 542 556 151
1109 2 2 0 0 548 609 135
1110 2 2 0 0 204 620 196
1111 2 2 0 0 529 629 528
1112 2 2 0 0 482 719 230
1113 2 2 0 0 258 627 591
1114 2 2 0 0 336 582 335
1115 2 2 0 0 197 686 667
1116 2 2 0 0 583 658 580
1117 2 2 0 0 85 675 98
1118 2 2 0 0 59 728 379
1119 2 2 0 0 400 625 338
1120 2 2 0 0 394 717 605
1121 2 2 0 0 471 650 450
1122 2 2 0 0 596 635 323
1123 2 2 0 0 249 637 228
1124 2 2 0 0 515 635 596
1125 2 2 0 0 338 625 563
1126 2 2 0 0 28 633 488
1127 2 2 0 0 566 622 361
1128 2 2 0 0 229 570 161
1129 2 2 0 0 468 654 465
1130 2 2 0 0 118 710 462
1131 2 2 0 0 15 612 16
1132 2 2 0 0 589 659 590
1133 2 2 0 0 526 621 268
1134 2 2 0 0 365 647 597
1135 2 2 0 0 579 583 235
1136 2 2 0 0 22 507 21
1137 2 2 0 0 342 682 264
1138 2 2 0 0 441 648 346
1139 2 2 0 0 191 636 198
1140 2 2 0 0 578 653 579
1141 2 2 0 0 135 609 134
1142 2 2 0 0 128 618 122
1143 2 2 0 0 378 681 310
1144 2 2 0 0 230 690 211
1145 2 2 0 0 210 690 232
1146 2 2 0 0 549 643 553
1147 2 2 0 0 233 661 247
1148 2 2 0 0 10 624 11
1149 2 2 0 0 640 709 435
1150 2 2 0 0 449 719 482
1151 2 2 0 0 452 726 33
1152 2 2 0 0 362 577 280
1153 2 2 0 0 318 575 433
1154 2 2 0 0 492 687 396
1155 2 2 0 0 586 734 293
1156 2 2 0 0 357 655 618
1157 2 2 0 0 277 567 259
1158 2 2 0 0 522 641 225
1159 2 2 0 0 511 640 281
1160 2 2 0 0 247 661 483
1161 2 2 0 0 610 693 39
1162 2 2 0 0 272 569 326
1163 2 2 0 0 490 695 70
1164 2 2 0 0 553 643 599
1165 2 2 0 0 532 629 284
1166 2 2 0 0 29 712 17
1167 2 2 0 0 632 665 117
1168 2 2 0 0 618 655 386
1169 2 2 0 0 241 699 576
1170 2 2 0 0 457 728 561
1171 2 2 0 0 485 572 456
1172 2 2 0 0 430 667 621
1173 2 2 0 0 582 672 458
1174 2 2 0 0 395 687 540
1175 2 2 0 0 504 594 44
1176 2 2 0 0 181 713 207
1177 2 2 0 0 197 707 184
1178 2 2 0 0 524 657 556
1179 2 2 0 0 475 536 498
1180 2 2 0 0 394 738 320
1181 2 2 0 0 51 714 561
1182 2 2 0 0 151 556 153
1183 2 2 0 0 437 693 610
1184 2 2 0 0 361 626 568
1185 2 2 0 0 611 679 5
1186 2 2 0 0 231 680 643
1187 2 2 0 0 462 706 118
1188 2 2 0 0 390 670 496
1189 2 2 0 0 602 642 601
1190 2 2 0 0 49 330 48
1191 2 2 0 0 391 665 632
1192 2 2 0 0 508 737 375
1193 2 2 0 0 450 650 552
1194 2 2 0 0 368 732 476
1195 2 2 0 0 578 579 235
1196 2 2 0 0 402 581 308
1197 2 2 0 0 43 486 41
1198 2 2 0 0 562 713 179
1199 2 2 0 0 592 632 480
1200 2 2 0 0 416 641 522
1201 2 2 0 0 372 668 371
1202 2 2 0 0 452 712 439
1203 2 2 0 0 282 720 455
1204 2 2 0 0 556 657 176
1205 2 2 0 0 364 632 592
1206 2 2 0 0 403 726 452
1207 2 2 0 0 465 654 623
1208 2 2 0 0 278 649 105
1209 2 2 0 0 154 652 617
1210 2 2 0 0 383 688 603
1211 2 2 0 0 451 719 447
1212 2 2 0 0 317 709 640
1213 2 2 0 0 604 711 642
1214 2 2 0 0 382 652 383
1215 2 2 0 0 601 642 389
1216 2 2 0 0 284 671 316
1217 2 2 0 0 599 643 402
1218 2 2 0 0 388 633 624
1219 2 2 0 0 267 678 311
1220 2 2 0 0 337 681 530
1221 2 2 0 0 279 661 233
1222 2 2 0 0 605 738 394
1223 2 2 0 0 33 677 504
1224 2 2 0 0 386 655 387
1225 2 2 0 0 547 669 631
1226 2 2 0 0 562 731 479
1227 2 2 0 0 360 648 595
1228 2 2 0 0 432 692 657
1229 2 2 0 0 367 657 524
1230 2 2 0 0 633 695 488
1231 2 2 0 0 415 473 341
1232 2 2 0 0 644 672 336
1233 2 2 0 0 551 633 388
1234 2 2 0 0 533 648 360
1235 2 2 0 0 407 679 611
1236 2 2 0 0 323 635 615
1237 2 2 0 0 530 681 529
1238 2 2 0 0 393 651 394
1239 2 2 0 0 387 655 602
1240 2 2 0 0 238 703 574
1241 2 2 0 0 594 677 505
1242 2 2 0 0 559 692 560
1243 2 2 0 0 621 667 381
1244 2 2 0 0 405 674 376
1245 2 2 0 0 325 732 368
1246 2 2 0 0 623 654 517
1247 2 2 0 0 581 644 336
1248 2 2 0 0 346 648 533
1249 2 2 0 0 517 654 279
1250 2 2 0 0 477 705 481
1251 2 2 0 0 481 705 355
1252 2 2 0 0 561 728 57
1253 2 2 0 0 379 705 477
1254 2 2 0 0 617 652 382
1255 2 2 0 0 30 650 500
1256 2 2 0 0 376 674 385
1257 2 2 0 0 518 715 519
1258 2 2 0 0 474 667 430
1259 2 2 0 0 478 734 294
1260 2 2 0 0 624 633 28
1261 2 2 0 0 186 707 619
1262 2 2 0 0 64 663 475
1263 2 2 0 0 597 647 258
1264 2 2 0 0 377 738 605
1265 2 2 0 0 31 735 467
1266 2 2 0 0 27 718 458
1267 2 2 0 0 419 673 68
1268 2 2 0 0 616 722 393
1269 2 2 0 0 24 723 419
1270 2 2 0 0 397 638 48
1271 2 2 0 0 404 730 460
1272 2 2 0 0 91 676 472
1273 2 2 0 0 622 626 361
1274 2 2 0 0 7 656 32
1275 2 2 0 0 576 697 277
1276 2 2 0 0 471 691 650
1277 2 2 0 0 536 663 373
1278 2 2 0 0 484 691 471
1279 2 2 0 0 552 650 30
1280 2 2 0 0 311 678 600
1281 2 2 0 0 486 729 5
1282 2 2 0 0 418 673 666
1283 2 2 0 0 232 680 231
1284 2 2 0 0 5 679 4
1285 2 2 0 0 117 665 539
1286 2 2 0 0 384 702 616
1287 2 2 0 0 557 702 221
1288 2 2 0 0 87 675 85
1289 2 2 0 0 225 711 604
1290 2 2 0 0 505 677 571
1291 2 2 0 0 483 661 494
1292 2 2 0 0 263 565 375
1293 2 2 0 0 504 677 594
1294 2 2 0 0 582 718 399
1295 2 2 0 0 645 714 46
1296 2 2 0 0 534 708 392
1297 2 2 0 0 643 680 402
1298 2 2 0 0 18 712 452
1299 2 2 0 0 392 670 390
1300 2 2 0 0 221 702 603
1301 2 2 0 0 496 664 391
1302 2 2 0 0 606 710 118
1303 2 2 0 0 655 703 602
1304 2 2 0 0 608 676 91
1305 2 2 0 0 194 684 514
1306 2 2 0 0 541 671 378
1307 2 2 0 0 154 669 652
1308 2 2 0 0 399 718 639
1309 2 2 0 0 405 715 674
1310 2 2 0 0 33 726 677
1311 2 2 0 0 629 671 284
1312 2 2 0 0 468 735 495
1313 2 2 0 0 469 704 408
1314 2 2 0 0 427 745 479
1315 2 2 0 0 294 734 251
1316 2 2 0 0 461 705 379
1317 2 2 0 0 385 674 636
1318 2 2 0 0 657 692 176
1319 2 2 0 0 561 714 411
1320 2 2 0 0 631 669 154
1321 2 2 0 0 264 682 265
1322 2 2 0 0 43 638 486
1323 2 2 0 0 48 638 43
1324 2 2 0 0 194 744 684
1325 2 2 0 0 381 686 380
1326 2 2 0 0 658 716 589
1327 2 2 0 0 263 567 565
1328 2 2 0 0 310 681 337
1329 2 2 0 0 493 685 492
1330 2 2 0 0 64 685 663
1331 2 2 0 0 309 678 267
1332 2 2 0 0 600 678 431
1333 2 2 0 0 538 694 333
1334 2 2 0 0 598 685 64
1335 2 2 0 0 551 695 633
1336 2 2 0 0 560 699 241
1337 2 2 0 0 211 690 210
1338 2 2 0 0 2 723 3
1339 2 2 0 0 630 708 441
1340 2 2 0 0 467 735 468
1341 2 2 0 0 396 687 395
1342 2 2 0 0 35 507 22
1343 2 2 0 0 259 567 263
1344 2 2 0 0 417 673 418
1345 2 2 0 0 614 686 197
1346 2 2 0 0 392 708 630
1347 2 2 0 0 5 729 6
1348 2 2 0 0 279 725 661
1349 2 2 0 0 6 729 26
1350 2 2 0 0 357 703 655
1351 2 2 0 0 514 684 635
1352 2 2 0 0 540 733 538
1353 2 2 0 0 374 741 593
1354 2 2 0 0 176 692 559
1355 2 2 0 0 650 691 500
1356 2 2 0 0 484 736 691
1357 2 2 0 0 83 733 540
1358 2 2 0 0 558 740 372
1359 2 2 0 0 626 697 555
1360 2 2 0 0 436 693 437
1361 2 2 0 0 375 737 374
1362 2 2 0 0 475 663 536
1363 2 2 0 0 636 674 198
1364 2 2 0 0 674 715 198
1365 2 2 0 0 70 695 551
1366 2 2 0 0 406 721 407
1367 2 2 0 0 677 726 571
1368 2 2 0 0 258 647 627
1369 2 2 0 0 448 701 451
1370 2 2 0 0 458 672 506
1371 2 2 0 0 229 700 570
1372 2 2 0 0 684 744 428
1373 2 2 0 0 570 700 544
1374 2 2 0 0 678 742 431
1375 2 2 0 0 646 741 314
1376 2 2 0 0 603 702 384
1377 2 2 0 0 478 731 293
1378 2 2 0 0 309 742 678
1379 2 2 0 0 380 686 614
1380 2 2 0 0 494 725 468
1381 2 2 0 0 500 691 38
1382 2 2 0 0 635 684 615
1383 2 2 0 0 661 725 494
1384 2 2 0 0 679 721 34
1385 2 2 0 0 509 510 35
1386 2 2 0 0 46 714 51
1387 2 2 0 0 615 684 428
1388 2 2 0 0 432 742 689
1389 2 2 0 0 179 713 181
1390 2 2 0 0 26 739 645
1391 2 2 0 0 35 510 507
1392 2 2 0 0 574 703 357
1393 2 2 0 0 184 707 186
1394 2 2 0 0 39 693 612
1395 2 2 0 0 665 694 539
1396 2 2 0 0 312 708 534
1397 2 2 0 0 554 689 309
1398 2 2 0 0 1 737 508
1399 2 2 0 0 519 717 520
1400 2 2 0 0 277 697 622
1401 2 2 0 0 389 711 641
1402 2 2 0 0 495 736 484
1403 2 2 0 0 17 712 18
1404 2 2 0 0 212 722 557
1405 2 2 0 0 455 720 438
1406 2 2 0 0 622 697 626
1407 2 2 0 0 664 694 665
1408 2 2 0 0 447 719 449
1409 2 2 0 0 669 688 652
1410 2 2 0 0 612 693 436
1411 2 2 0 0 619 744 194
1412 2 2 0 0 57 728 59
1413 2 2 0 0 579 658 583
1414 2 2 0 0 438 727 525
1415 2 2 0 0 539 733 83
1416 2 2 0 0 479 731 478
1417 2 2 0 0 691 736 38
1418 2 2 0 0 401 724 400
1419 2 2 0 0 420 660 2
1420 2 2 0 0 328 732 325
1421 2 2 0 0 320 738 453
1422 2 2 0 0 428 744 429
1423 2 2 0 0 431 742 432
1424 2 2 0 0 425 745 427
1425 2 2 0 0 408 743 434
1426 2 2 0 0 571 726 403
1427 2 2 0 0 119 727 523
1428 2 2 0 0 625 706 462
1429 2 2 0 0 525 730 404
1430 2 2 0 0 499 736 495
1431 2 2 0 0 468 725 654
1432 2 2 0 0 336 672 582
1433 2 2 0 0 198 715 518
1434 2 2 0 0 400 724 706
1435 2 2 0 0 402 680 581
1436 2 2 0 0 589 716 659
1437 2 2 0 0 727 730 525
1438 2 2 0 0 664 665 391
1439 2 2 0 0 337 740 558
1440 2 2 0 0 293 731 562
1441 2 2 0 0 523 720 282
1442 2 2 0 0 460 730 119
1443 2 2 0 0 641 711 225
1444 2 2 0 0 429 744 619
1445 2 2 0 0 119 730 727
1446 2 2 0 0 651 722 212
1447 2 2 0 0 38 736 499
1448 2 2 0 0 667 686 381
1449 2 2 0 0 652 688 383
1450 2 2 0 0 410 710 606
1451 2 2 0 0 644 701 448
1452 2 2 0 0 666 673 419
1453 2 2 0 0 704 743 408
1454 2 2 0 0 251 734 586
1455 2 2 0 0 400 706 625
1456 2 2 0 0 546 688 669
1457 2 2 0 0 668 700 229
1458 2 2 0 0 538 733 694
1459 2 2 0 0 333 694 664
1460 2 2 0 0 565 662 375
1461 2 2 0 0 720 727 438
1462 2 2 0 0 372 700 668
1463 2 2 0 0 579 716 658
1464 2 2 0 0 642 711 389
1465 2 2 0 0 355 705 461
1466 2 2 0 0 407 721 679
1467 2 2 0 0 523 727 720
1468 2 2 0 0 654 725 279
1469 2 2 0 0 639 718 27
1470 2 2 0 0 694 733 539
1471 2 2 0 0 393 722 651
1472 2 2 0 0 645 739 397
1473 2 2 0 0 683 741 374
1474 2 2 0 0 397 739 638
1475 2 2 0 0 653 716 579
1476 2 2 0 0 666 723 660
1477 2 2 0 0 419 723 666
1478 2 2 0 0 374 737 683
1479 2 2 0 0 593 741 646
1480 2 2 0 0 683 737 1
1481 2 2 0 0 689 742 309
1482 2 2 0 0 660 723 2
1483 2 2 0 0 23 25 1
1484 2 2 0 0 25 607 1
1485 2 2 0 0 3 34 2
1486 2 2 0 0 34 415 2
$EndElements
