$MeshFormat
2.2 0 8
$EndMeshFormat
$Nodes
745
1 5.3434314297439214e-05 2.8540090379745789e-05 9.7332492900897806e-04
2 7.1849395434395321e-05 -3.2921570127698516e-05 -9.7116492652396383e-04
3 1.2698618572870891e-04 2.4961497295745775e-05 -9.6555066157149574e-04
4 2.4702524639408065e-04 2.2458850754026638e-05 -9.4447196378348878e-04
5 3.7031687352364305e-04 3.0152234291372661e-05 -9.0626467670873131e-04
6 4.7299296717842132e-04 1.2500286133068911e-06 -8.6085312326293129e-04
7 6.0660986059913984e-04 -6.2033798325919027e-06 -7.7924842070907616e-04
8 7.1935251279202209e-04 -7.3559670023147133e-06 -6.8506321550964168e-04
9 8.3295720467148121e-04 -4.4901920718429879e-06 -5.5440240767285138e-04
10 9.1860553282549441e-04 1.3772807302496616e-06 -4.1252290237857509e-04
11 9.7209222488496907e-04 1.0244844566392452e-05 -2.7873720655310382e-04
12 1.0036861459122802e-03 3.7066086474373751e-06 -1.4473116655204410e-04
13 1.0149517626383494e-03 6.7622568819558617e-06 1.3541805786013736e-06
14 1.0028662548088175e-03 9.6131402423553053e-06 1.4800884792619596e-04
15 9.6920073376436083e-04 4.3121518102170847e-06 2.8733442705978742e-04
16 9.1147854601938321e-04 7.9379572089963215e-06 4.2666544102775258e-04
17 8.3146878221733239e-04 4.7233859853340205e-06 5.5636643904171247e-04
18 7.2307943351893761e-04 1.9938843458546486e-06 6.8157332104341721e-04
19 6.0903247085241719e-04 9.4304360393926755e-06 7.7778348186037592e-04
20 4.8740986681495299e-04 1.6585479947811085e-06 8.5361255147536528e-04
21 3.6554857754223375e-04 -2.6117259443087677e-06 9.0851634472606535e-04
22 2.4066705213371097e-04 -1.5117911409534420e-06 9.4653156167106840e-04
23 1.2740173627734139e-04 -1.4772955250108168e-05 9.6636977053517637e-04
24 1.6091779133418913e-04 1.1873791671332191e-04 -9.5509456390553650e-04
25 1.5431238659041312e-04 1.0234161702574175e-04 9.5868079463432845e-04
26 5.4241856617422190e-04 1.0432805810042234e-04 -8.1527630361184018e-04
27 5.5161484224923690e-04 -1.0345618782091542e-04 8.1043008350321802e-04
28 9.8253059534711808e-04 1.3774695209715495e-04 -2.0454189602690036e-04
29 8.5849969289203637e-04 1.4373913792785570e-04 5.0038780256391466e-04
30 9.4097405188193540e-04 -1.1658057738781463e-04 3.4574103299136674e-04
31 9.8167351319219378e-04 -1.2116971329698381e-04 -2.1703541294305545e-04
32 5.2896572437547047e-04 -1.1452063562616574e-04 -8.2272436702727125e-04
33 5.4375670147668832e-04 1.0834888598857382e-04 8.1449142261290006e-04
34 1.4911180389841716e-04 -8.7630787069839560e-05 -9.6042436224498659e-04
35 1.7879174833594920e-04 -9.4585368859510308e-05 9.5476841713226367e-04
36 7.8070918975425483e-04 -1.1914555583125522e-04 6.0969863900642871e-04
37 7.6892364925798312e-04 1.2092705081452207e-04 -6.2260421701359841e-04
38 1.0051146790593603e-03 -1.1128003863192850e-04 7.9448445076612070e-05
39 9.8145392732482779e-04 1.2617018735650189e-04 2.1449669975479057e-04
40 8.7333962637623993e-04 -1.2901123965815490e-04 -4.7894088242091132e-04
41 2.8478212222848317e-04 1.2296645665907347e-04 -9.2700815277297071e-04
42 1.9683768077137837e-04 2.2777263819676480e-04 -9.2955986813913474e-04
43 3.1627431193792180e-04 2.2631912815898581e-04 -8.9847593135464242e-04
44 2.9233472361823277e-04 1.0612397458256509e-04 9.2736037692908030e-04
45 6.6561582204373640e-04 1.1468969553218758e-04 -7.2484946432848740e-04
46 7.0993559617928701e-04 2.3675189943498284e-04 -6.5533226091152904e-04
47 2.5834257918681456e-04 3.3755344179563690e-04 -8.8302411826762382e-04
48 3.9123384351103283e-04 3.3822561772533578e-04 -8.3605761926972856e-04
49 3.2366172761584105e-04 4.3933178215422827e-04 -8.1892979916514924e-04
50 8.0807028467636606e-04 2.4282928471187210e-04 -5.3855809790897733e-04
51 7.2812836439219738e-04 3.5962499730730863e-04 -5.8140128276171470e-04
52 8.1507296962685474e-04 3.6731521366386769e-04 -4.5811712123849946e-04
53 7.3228529571981913e-04 4.8446021090009587e-04 -4.8555238927433557e-04
54 8.0858274042228692e-04 4.8334218907943380e-04 -3.5934888602241868e-04
55 7.1926755136906672e-04 5.9596034418898404e-04 -3.7762457854136186e-04
56 7.8753297979053654e-04 5.8576499104934059e-04 -2.4472449625973224e-04
57 6.2980786980026677e-04 5.9795139528941675e-04 -5.0041719557780055e-04
58 6.0895269576632851e-04 6.9969686993686926e-04 -3.9151560958378687e-04
59 5.1594470870205858e-04 6.9341400671770262e-04 -5.0663865076952107e-04
60 4.9109180457201061e-04 7.8107107564811152e-04 -4.0166666007544186e-04
61 3.9515417121341816e-04 7.6201053369077195e-04 -5.1597062736067625e-04
62 3.6261088443772306e-04 8.4614947978453202e-04 -4.0575734752581712e-04
63 1.9772716855575014e-04 4.4067994092045199e-04 -8.5476333074085249e-04
64 4.5406235490012066e-04 8.5256154409518628e-04 -2.9348824333780277e-04
65 2.5907944912467273e-04 8.1842539177138108e-04 -5.1568654021340917e-04
66 2.3261109411363800e-04 9.0035519210152851e-04 -3.8569356845838951e-04
67 1.2351112466765329e-04 8.7003533314707396e-04 -4.8327608061682901e-04
68 9.6269641050280956e-05 2.3682953544045885e-04 -9.4191304475417222e-04
69 1.4300326278159366e-04 7.6465063551806967e-04 -6.2303907439308233e-04
70 8.6790878674548020e-04 4.7145953770991021e-04 -2.2040115424380968e-04
71 8.3954179588914275e-04 5.5808331917399714e-04 -1.0960313261654730e-04
72 7.4433329583646450e-04 6.7492243737430453e-04 -1.3330093823459924e-04
73 7.8430406487874603e-04 6.4368196903703725e-04 6.9951065045810511e-06
74 6.8100298459340322e-04 7.5121071202203648e-04 -2.7298381600928620e-05
75 7.0364267780619006e-04 7.2120993169791706e-04 1.1123359600775495e-04
76 6.0541664594031719e-04 8.0996204797988591e-04 7.5832983552647437e-05
77 6.2138910075493659e-04 7.7006365801019720e-04 2.1320398451985168e-04
78 5.1207912302364772e-04 8.5582486572013798e-04 1.7683649655296597e-04
79 9.6377819368870701e-05 9.4269515767911663e-04 -3.4416571657348746e-04
80 -1.4656522778995757e-05 9.0657046370692116e-04 -4.3286552526199102e-04
81 2.3033687256468472e-04 2.0337638680564468e-04 9.2844037355335708e-04
82 5.2743667302687376e-04 7.9987023716986193e-04 3.1881894976516615e-04
83 -4.1944465423260733e-05 9.6165764470868464e-04 -3.0275605398587594e-04
84 4.1021828859081065e-04 8.8137017638051580e-04 2.7629163770148842e-04
85 4.2834976684053553e-04 8.1406097918033959e-04 4.0830350517571105e-04
86 2.9801409430649971e-04 8.8611182760062472e-04 3.7548522407180245e-04
87 3.0635789103628951e-04 8.0927894511159475e-04 5.0531986068685941e-04
88 1.8821951362863804e-04 8.6548308480377458e-04 4.7193007697918048e-04
89 1.6688934558516439e-04 9.3248291109412191e-04 3.4548029665995859e-04
90 5.4528462964716460e-05 9.0597805995361737e-04 4.3181889693421689e-04
91 6.9933336871052615e-05 8.2524884851127459e-04 5.5943540818247464e-04
92 -6.0345148248790704e-05 8.5711852817157389e-04 5.1416794729589120e-04
93 -8.6401528857848344e-05 9.2437411422076365e-04 3.8907901585408423e-04
94 -1.9231219457448148e-04 8.6667645917488294e-04 4.6766259430563745e-04
95 -1.6112562241601117e-04 7.9919695115801266e-04 5.7492428005373854e-04
96 -2.2139782755623829e-04 9.2384531985850726e-04 3.3804179915927605e-04
97 1.1240437876072289e-04 2.1412609670254471e-04 9.4616416478394310e-04
98 5.3543982520264045e-04 7.1854583654134662e-04 4.5647290134381477e-04
99 1.7330470118644885e-04 3.2228060540237806e-04 9.0820963782929870e-04
100 4.9677411948075003e-05 3.0538544227873786e-04 9.2760430807606710e-04
101 -1.4631183811213874e-05 2.0664391848433981e-04 9.5384317957554520e-04
102 -7.8300043055781982e-05 3.0071022320917102e-04 9.2718980590984681e-04
103 2.0723290550722970e-04 9.5776295817199121e-04 -2.4814908917603578e-04
104 -1.1336846982263447e-04 9.7066886160218472e-04 2.5765723563335691e-04
105 -2.5053291753239943e-04 9.5843153457344154e-04 2.0567110985843327e-04
106 -3.5504258987931197e-04 9.0199947539515706e-04 2.8349284628331512e-04
107 -1.5670772581085848e-04 9.1761720179712916e-04 -3.8270800367199066e-04
108 -1.2954733461650913e-04 8.5205573000735741e-04 -5.0970134189749869e-04
109 -3.8300283342817973e-04 9.2486358606325332e-04 1.5262715851933767e-04
110 -2.6458278245666833e-04 8.5553978477626968e-04 -4.5363950033216230e-04
111 -2.3653089463146471e-04 7.7166367303732088e-04 -5.8642909013664681e-04
112 -3.6632333462706856e-04 7.7338894642192332e-04 -5.1935231440050384e-04
113 -3.2905802325893587e-04 6.8180240088797724e-04 -6.4505113041538064e-04
114 -4.6491117223670876e-04 6.7513611958519831e-04 -5.7026509899342948e-04
115 -4.2006834596337498e-04 5.8400619776815827e-04 -6.8367431700967871e-04
116 -5.0174329342460603e-04 7.4548086131706213e-04 -4.4823471919361985e-04
117 -2.9002486379316807e-04 9.1126096173861431e-04 -3.2047347629032645e-04
118 -2.8633940728368750e-04 7.8011837502957174e-04 5.5640844618373968e-04
119 7.1436194726126850e-04 6.7851646218076013e-04 2.2986899929884025e-04
120 -2.7969127042165148e-04 5.7001745328599416e-04 -7.5713361509827679e-04
121 -3.6082553889498896e-04 4.7321433601293667e-04 -7.8662259548305756e-04
122 -4.9505716991618109e-04 4.7011422975954781e-04 -7.1755259831896587e-04
123 -4.3738455030766334e-04 3.5949729463918091e-04 -8.0611217374816852e-04
124 -5.9065049303548675e-04 6.3941952178568303e-04 -4.9650903550721415e-04
125 -6.2293222384339497e-04 7.0133423764678785e-04 -3.6690411706637361e-04
126 -7.0230815663309464e-04 5.9176518337715684e-04 -4.0988198066365744e-04
127 -4.9036816195644015e-04 8.5362621129663689e-04 2.3123335032531846e-04
128 -5.5986520253797337e-04 3.4619232072330929e-04 -7.3836662745104312e-04
129 -4.9736012037625602e-04 2.4072240773316214e-04 -8.1493351415807712e-04
130 -6.1992626839476727e-04 2.1642533058220626e-04 -7.3986304780405780e-04
131 -5.4859889564684789e-04 1.1390116725203289e-04 -8.1015743628328775e-04
132 -6.7138717928028600e-04 8.9645309302175736e-05 -7.2259854825444930e-04
133 -5.9391057906800656e-04 -1.5533412365768331e-05 -7.8766162093759989e-04
134 -7.1591390997460705e-04 -3.8089718449248540e-05 -6.8664848893942713e-04
135 -6.2940740335029643e-04 -1.4386964675311949e-04 -7.4937308932536103e-04
136 -7.8711965427052770e-04 7.4491873707946543e-05 -6.0759898290289752e-04
137 -8.2076009830094640e-04 -5.8540156802961856e-05 -5.6694789911257730e-04
138 -8.7753937915421062e-04 5.2278061755404769e-05 -4.8326599075055671e-04
139 -8.9939279003804415e-04 -8.9427043715766544e-05 -4.3950490057813264e-04
140 -9.4342040329580749e-04 1.8032623422111151e-05 -3.5462449253584441e-04
141 -9.5536066683906003e-04 -1.1664107521912474e-04 -3.0519325586802522e-04
142 -9.8809868695250375e-04 -1.5276525516753937e-05 -2.1710775559491787e-04
143 -9.8792330105715548e-04 -1.4695719883730762e-04 -1.6785452542255957e-04
144 -1.0098424324266480e-03 -4.0155198871939544e-05 -7.9589409876763809e-05
145 -9.9824021434880570e-04 -1.7688009666862829e-04 -2.7338543758308703e-05
146 -1.0104147035079418e-03 -6.3564696185637625e-05 5.5691139775107381e-05
147 -9.8898830127325428e-04 -1.9350941146822071e-04 1.0980517900274475e-04
148 -9.6604566872164448e-04 -3.0840359679568048e-04 2.1646881282350016e-05
149 -9.4906996993201565e-04 -3.1651836696181814e-04 1.6021795884293332e-04
150 -9.6167573863310840e-04 -1.9705269621015869e-04 2.4420426773321319e-04
151 -9.1157123080372663e-04 -3.1968861681251870e-04 2.9608428829268801e-04
152 -9.1028659489583469e-04 -1.9582020184905966e-04 3.8488352916687892e-04
153 -8.5001719455931387e-04 -3.2578785939069046e-04 4.2802374635950949e-04
154 -9.0339817975067487e-04 -2.2223413941568115e-04 -3.8556035936263141e-04
155 -8.3319245579144101e-04 -2.0578054220568397e-04 5.1728693021281459e-04
156 -7.6176655728729800e-04 -3.3628264544327904e-04 5.5427645479912743e-04
157 -8.8570133461373789e-04 -7.2350601542719320e-05 4.6783575172132841e-04
158 -7.3847761014691051e-04 -2.1687894406626025e-04 6.3245297554738727e-04
159 -6.5672888800543490e-04 -3.3216729875798354e-04 6.6853904685815679e-04
160 -1.0111373463374861e-03 7.6067477485166534e-05 6.2040290301351474e-06
161 -6.2249951184006631e-04 -2.1265490224929004e-04 7.3989456324939954e-04
162 -5.4111238753035585e-04 -3.1858529861713810e-04 7.6385372565009838e-04
163 -5.0421000816733091e-04 -1.1443406904377297e-04 -8.3683253081094351e-04
164 -5.2639084372261484e-04 -2.4575894081820627e-04 -7.9719211313111771e-04
165 -7.2427338121706659e-04 6.4812033295563178e-04 -2.7467181721301757e-04
166 -1.3350380385100536e-04 2.0435801434322000e-04 9.4565709248719371e-04
167 -2.0926442743033808e-04 3.0230044282076435e-04 9.0748110331844789e-04
168 -3.9990963223617541e-04 -2.0529127435076926e-04 -8.7252949629790851e-04
169 -4.2216463624901961e-04 -3.3974895048768158e-04 -8.2243551752745074e-04
170 -5.4322717046626141e-04 -3.7887465827950693e-04 -7.3617731085578759e-04
171 -4.3815469638022682e-04 -4.7075951693048210e-04 -7.5188910073895770e-04
172 -5.4938094866849210e-04 -5.0679769241159813e-04 -6.5666317875118414e-04
173 -4.3619652267318720e-04 -5.9697772736631762e-04 -6.6528069259926741e-04
174 -5.4414982490318987e-04 -6.2576867256852211e-04 -5.5900546860965369e-04
175 -4.2850135410927833e-04 -7.0980930558050084e-04 -5.5935990680787905e-04
176 -7.7074679772441799e-04 -4.4560360723656516e-04 4.6467778682536298e-04
177 -5.2243852177863111e-04 -7.3161991325542026e-04 -4.4932832506441162e-04
178 -4.1372325208052806e-04 -8.0512215414062086e-04 -4.3814432387997477e-04
179 -3.1155809735540821e-04 -7.8492067120212138e-04 -5.3778711358532221e-04
180 -2.8322974020454200e-04 -8.6978548458500557e-04 -4.1988704262879939e-04
181 -1.8016828335664791e-04 -8.3649423834552129e-04 -5.2157215699653154e-04
182 -1.4262376168333460e-04 -9.1101827450912668e-04 -4.0519289979641556e-04
183 -4.1522253977992364e-05 -8.6487174187454261e-04 -5.0662566324452790e-04
184 -5.4262352341939853e-06 -9.3335721698690696e-04 -3.8092247160771236e-04
185 -1.0269129592788781e-04 -9.6896197341563765e-04 -2.7114299898601586e-04
186 3.7615162496998392e-05 -9.8041939430741068e-04 -2.4760413991801674e-04
187 -5.2215770674772643e-05 -1.0026611078559088e-03 -1.4103643901464640e-04
188 8.9483983270463596e-05 -1.0032275304653017e-03 -1.1931136873080978e-04
189 -5.4640597027802085e-06 -1.0146570503758749e-03 -1.3685330865313888e-05
190 1.3300973012584025e-04 -1.0059926068000065e-03 1.2484643185135214e-05
191 3.1288098856949403e-05 -1.0072962727542191e-03 1.1365687510741981e-04
192 1.6967478786634796e-04 -9.9016509593725694e-04 1.3754604491059987e-04
193 6.4060714884791196e-05 -9.8165794650700616e-04 2.3830444690445886e-04
194 2.2474323748342096e-04 -9.8485163888223067e-04 -9.1871129314371387e-05
195 2.0322684537971104e-04 -9.5441025010454129e-04 2.6654962239824371e-04
196 9.9239609357724940e-05 -9.3340187068628462e-04 3.6888162574149095e-04
197 1.0607879134597732e-04 -8.7743451995027583e-04 -4.7853222904162230e-04
198 -9.9060942275523399e-05 -1.0060263163992258e-03 8.1876506095814928e-05
199 2.3442067513177801e-04 -8.9598815033165361e-04 3.9668149218031269e-04
200 3.3722621434957139e-04 -9.0626438008555878e-04 2.9438059992964178e-04
201 3.6617893454352144e-04 -8.3962932693385319e-04 4.1745762245647540e-04
202 1.3122390993613865e-04 -8.6183579289462629e-04 4.9689563821440224e-04
203 4.6104944825948969e-04 -8.4322076748980640e-04 3.1148557476658742e-04
204 -2.8708107641575267e-06 -8.8924545111171655e-04 4.6765417358918721e-04
205 2.8379839366003674e-05 -8.0598297158863768e-04 5.8950440863680704e-04
206 -9.1733892277752959e-04 -4.2720393867761179e-04 6.8213575776355216e-05
207 -8.5821897125304251e-05 -7.6855588814967173e-04 -6.2967390617517415e-04
208 -1.0229402275835487e-04 -8.2608892295723451e-04 5.5540247669035058e-04
209 -6.8302952374468890e-05 -7.2912730412575115e-04 6.7267059331986968e-04
210 4.8325868603780455e-04 -7.6898013132225120e-04 4.3257001312627775e-04
211 5.7597262937492978e-04 -7.6322938637362757e-04 3.2440711703120214e-04
212 -4.9972061542708185e-04 -8.1353283024569018e-04 -3.2753582916244248e-04
213 5.9458167903428674e-05 -7.0077430264839358e-04 7.0071026687577571e-04
214 -3.5389331737875759e-05 -6.1252353070546397e-04 7.7467610857196475e-04
215 -3.0733415099127198e-04 -2.7764841095809370e-04 -8.8867388898592056e-04
216 -2.0582186101805427e-04 -7.4616092754993589e-04 6.2817246289208586e-04
217 -2.4168308978951336e-04 -8.3090597265305017e-04 5.0697638197992959e-04
218 5.5279842301794897e-04 -8.2536152447102134e-04 1.9885801463938047e-04
219 6.6334951616653685e-04 -7.3342015543543040e-04 2.1893811898913147e-04
220 6.3040214088733735e-04 -7.9018037169533968e-04 8.9404131583322593e-05
221 -6.3719645461361393e-04 -6.3952125340236072e-04 -4.4200969338587101e-04
222 7.3419253046546999e-04 -6.9214802325237785e-04 1.0770130346096914e-04
223 6.9547062168257522e-04 -7.3919196457449129e-04 -2.3904282969787522e-05
224 -2.7751910414314799e-04 -1.6092359136726179e-04 -9.2377433649070665e-04
225 -9.7153834065178692e-04 1.1596470122917784e-04 -2.5323443315131134e-04
226 8.8902270518640783e-05 -5.7775004106907840e-04 7.9529445124409839e-04
227 -9.2486152527698383e-06 -4.8734309505735847e-04 8.5392386172848894e-04
228 -4.9849776699335867e-04 -1.9188158251301761e-04 8.2727760639717636e-04
229 -5.8245824222711001e-04 -9.2888752830769020e-05 7.9089467804494083e-04
230 6.7043987298168097e-04 -6.6901448379187050e-04 3.4797713546141381e-04
231 3.9044214739767616e-04 -7.5361581565955098e-04 5.3169542704192699e-04
232 5.0790959565250797e-04 -6.5767110961313560e-04 5.5840813963175607e-04
233 7.8812614801130026e-04 -6.3955403667499873e-04 -1.4276602716472610e-05
234 7.4493526900835927e-04 -6.7327563038842091e-04 -1.4279855957240482e-04
235 -3.7524779268890691e-04 2.4884580355455431e-04 -8.7154735862750613e-04
236 2.8956137307088969e-04 3.2132811389896780e-04 8.8053097439366550e-04
237 -4.1635629623182308e-04 -2.8237356845461925e-04 8.4540993117187722e-04
238 -8.3913514730695653e-04 1.9913668845659426e-04 -5.1106811231328123e-04
239 6.4662319555904067e-04 -7.6533440420987033e-04 -1.5642599506709276e-04
240 6.9211987521933911e-04 -6.8599463097353058e-04 -2.7194670116577259e-04
241 -5.6969236382550261e-04 -4.4277978915935654e-04 6.8310356211912491e-04
242 5.8006709136015076e-04 -7.8037060504553728e-04 -2.7872511032961378e-04
243 6.1552639158731978e-04 -6.8974142901010989e-04 -4.0090516531864930e-04
244 7.2139529712116307e-04 -5.9188554903788861e-04 -3.8213270685747536e-04
245 6.3239702466018040e-04 -5.8577148969336584e-04 -5.1266253902895709e-04
246 -1.8291159366084665e-04 -2.3741409478913840e-04 -9.3059441651206689e-04
247 8.2661729515176119e-04 -5.7765459773264857e-04 1.1060220644453194e-04
248 2.2198569416412967e-04 4.2824186467161908e-04 8.5598443222204728e-04
249 -3.7438772075202404e-04 -1.5341172084082092e-04 8.9304517510200264e-04
250 3.4871644289698607e-04 4.2246479060284610e-04 8.1859631239450490e-04
251 -2.0682237524328860e-04 -3.5700612885294138e-04 -8.8943850844951707e-04
252 -8.7523574484755050e-05 -3.2973060519729172e-04 -9.1737905072527041e-04
253 3.8351647202700785e-04 9.2533694282695477e-04 1.5201700801008671e-04
254 -6.3322359309978600e-04 7.5349811858534653e-04 -2.3107988689610221e-04
255 -7.2579427711380704e-04 6.9233895313722781e-04 -1.3858783451986859e-04
256 -8.0961832787599666e-04 5.8055531846215125e-04 -1.7840772503373707e-04
257 -7.9999219026133134e-04 6.2021449642433036e-04 -4.9194024486816082e-05
258 -2.1222288735168147e-05 4.1394921525719422e-04 8.8843896168870195e-04
259 -2.8559550597560747e-04 -2.2526565295263455e-04 9.0940647298150149e-04
260 -2.6553649526362089e-04 2.0369433648088689e-04 9.1932908203054922e-04
261 -3.4267831505428855e-04 2.9590054479929496e-04 8.7086257588765931e-04
262 -2.4994987680566970e-04 -1.0152465354065845e-04 9.3928267094353136e-04
263 -1.6172728316661279e-04 -1.8326094670812062e-04 9.4583438693703200e-04
264 -8.7701632824397854e-04 5.0052507008186212e-04 -8.5203451312288042e-05
265 -8.5552451806155403e-04 5.4121072387163600e-04 5.1456725929111104e-05
266 -3.4137701547709473e-04 -7.4736123779765601e-04 5.6973984121524589e-04
267 -3.7228966858030287e-04 -8.2275863750750917e-04 4.4221930328238964e-04
268 5.1584354544664519e-04 -6.8067985174737207e-04 -5.2467113693952688e-04
269 5.1901538540934989e-04 -5.7171590956524808e-04 -6.3056758034632575e-04
270 6.2462284106694908e-04 -4.7785142157746126e-04 -6.1408701531984753e-04
271 5.0379477489071584e-04 -4.5481928867927815e-04 -7.2289004841440195e-04
272 4.0198611109228886e-04 -5.4528039811566032e-04 -7.2409733050419827e-04
273 -2.8224135887368416e-04 4.0684530571025477e-04 8.4896289444387008e-04
274 -4.1235914822207296e-04 4.0262921883005471e-04 8.0009362239789514e-04
275 3.8747805069535364e-04 -4.1452336693596905e-04 -8.0677211082860745e-04
276 2.8069691665656758e-04 -5.0613651027672779e-04 -7.9941670985153991e-04
277 -3.1832221035100767e-04 -3.5406704255733429e-04 8.5956827871712708e-04
278 -1.3958789467579999e-04 9.9548500045752199e-04 1.2530971665198069e-04
279 8.2717353520248569e-04 -5.7229197087943864e-04 -1.2862241908057653e-04
280 -2.2741876919117498e-04 4.5342216954329903e-04 -8.4176925923916564e-04
281 -1.4890437007887685e-04 5.5759688996183875e-04 -7.9880389018029065e-04
282 8.7929715597330005e-04 5.0694288585322609e-04 2.7393774308240501e-05
283 1.1466736105518739e-04 -4.5579409262844938e-04 8.6288926554895558e-04
284 -1.0033070703288091e-03 5.3611384870591443e-05 1.2943671494350227e-04
285 -9.2426248086406539e-04 -4.1109831414166628e-04 -7.1991577973191248e-05
286 -8.6266705778312921e-04 -5.3322932904030875e-04 -2.5804771046770426e-05
287 -8.4813362995784787e-04 -5.4392740072492160e-04 1.1339261931401945e-04
288 -7.8155874219489854e-04 -6.4652348149920789e-04 2.2532172702670230e-05
289 -7.5537714371289738e-04 -6.5612518862646256e-04 1.6056404686681170e-04
290 -6.9065985227465074e-04 -7.3960205154208821e-04 6.9701378716282458e-05
291 -1.9778027247171749e-04 -9.8039923308430713e-04 -1.6460904710671745e-04
292 -2.7423949873718400e-04 -8.9677016512306623e-04 3.7074461043132495e-04
293 -3.2559004602343252e-04 -5.4335658805422158e-04 -7.5992896502152460e-04
294 -1.0108903174192182e-04 -4.5343692336100499e-04 -8.6612240211031823e-04
295 -4.7848395098378053e-04 2.8638992280446577e-04 8.1235644237576891e-04
296 -5.4673486115200398e-04 3.8790416464576578e-04 7.2912459098902849e-04
297 -8.7954461281791957e-04 4.5411522522566944e-04 -2.0947234351728931e-04
298 -6.0325079219916114e-04 2.6855484049958758e-04 7.3762834166816657e-04
299 -6.6916088871371636e-04 3.6557797559032105e-04 6.4001678528041793e-04
300 -6.0477138002291834e-04 4.9261957353779725e-04 6.2025014608875246e-04
301 -7.1429546602769960e-04 4.6379230214415370e-04 5.2643044129440264e-04
302 -7.7579016550869827e-04 3.3578153696716529e-04 5.3559574432200869e-04
303 -2.9962730058111269e-04 -6.5604929411037442e-04 6.8348918977150538e-04
304 -6.3524648436035392e-04 5.9673393442571325e-04 4.9578929331552753e-04
305 -8.1428657848328179e-04 4.2037652361881370e-04 4.1500368746845472e-04
306 2.1365267444003528e-04 -5.3731920179396400e-04 7.9959227081299650e-04
307 2.4227234999636563e-04 -4.0807526208991388e-04 8.6062576450584313e-04
308 3.4276472253683620e-04 -4.8430542022735642e-04 7.8935359228364185e-04
309 -4.5865669458299588e-04 -7.3385119726427641e-04 5.0589393900971969e-04
310 -8.6371620291908588e-04 2.8837156687313008e-04 4.2643507888013606e-04
311 -4.0262936382934995e-04 -8.7507286419193802e-04 3.0525608798985271e-04
312 -7.7666971435392455e-04 6.4532429368645934e-04 8.3423897505181547e-05
313 -8.5982684993194530e-04 -5.1233334826130880e-04 -1.5785824250102491e-04
314 -7.9232913628072641e-05 9.8194353800183393e-05 9.6733223206856413e-04
315 -8.9438190789976793e-04 3.5885749205589226e-04 3.0241406645549132e-04
316 -9.9122720632869037e-04 1.9131750403796917e-04 8.9555618217433537e-05
317 -1.0717190490784082e-04 7.6081146190658722e-04 -6.3208694797182779e-04
318 2.5945277437921876e-04 -3.6784086511013259e-04 -8.7274932058607681e-04
319 -7.0398092936149531e-04 -7.2753241174217359e-04 -6.4095603347057335e-05
320 -6.1217154112101898e-04 -8.0865278326637763e-04 -5.3281847138840618e-06
321 -6.6010302966983624e-04 -4.0109753394383478e-04 -6.2922560733975636e-04
322 -7.0072168902963246e-05 -2.0087056852530351e-04 -9.5269122766884773e-04
323 5.1557461364618604e-04 -8.7079822872832523e-04 7.4730532261286218e-05
324 -6.2835814696950241e-04 7.8849551726471105e-04 -9.7797637407224386e-05
325 2.7761016444065816e-04 5.3073264248479758e-04 7.8442335151747541e-04
326 2.8234026148212963e-04 -6.3117040295065300e-04 -7.1171394748807486e-04
327 1.5497920591969018e-04 -5.8752604166335549e-04 -7.7937732259404657e-04
328 4.1401340327558379e-04 5.3062408978668269e-04 7.2680808150998150e-04
329 4.7426847243758495e-04 4.1131723386403710e-04 7.6335675261821653e-04
330 4.4514333170796541e-04 4.3335734008940059e-04 -7.6731618842510233e-04
331 1.8457709497492127e-06 9.9843307264420441e-04 1.6807832158066702e-04
332 -2.2928119927888642e-05 1.0127551213802749e-03 3.5996735886548257e-05
333 -1.5227208583940222e-04 1.0020726223857359e-03 2.0977920662456085e-06
334 1.2115464033319617e-04 1.0031681545374959e-03 7.9296474631565896e-05
335 3.5543505866454070e-04 -3.4775265622620434e-04 8.4865537031017491e-04
336 4.5516641039748359e-04 -4.2038562181895912e-04 7.7008165795798046e-04
337 -8.1529968467013321e-04 2.0753839385375159e-04 5.4117197448559737e-04
338 -3.5017622933691361e-04 5.0453207580310980e-04 7.7321291029840242e-04
339 -9.7543433138650432e-05 4.4605942756135471e-04 -8.6814402175127607e-04
340 3.4702601678901664e-04 -2.9001944905697187e-04 -8.7157106895581710e-04
341 2.8574859223300874e-05 -2.5311079066902008e-04 -9.4319412696428897e-04
342 -9.4432559706617719e-04 3.5655805708335728e-04 -9.9457029888532004e-05
343 1.5856940387567731e-05 -3.5294862737920881e-04 9.1340748192237991e-04
344 -5.2254696273686715e-04 6.1097574341159079e-04 5.9133167469888883e-04
345 -5.3506880585916280e-04 7.1694036063608382e-04 4.5821703757489986e-04
346 -6.5982895354901503e-04 6.6852476728303614e-04 3.6490092844616281e-04
347 5.9605576992058579e-04 -3.6021640584899743e-04 -7.0711261359181514e-04
348 7.1883270095053110e-04 -3.7400360388748860e-04 -5.8493406755818697e-04
349 5.3355737473328047e-04 5.1363524608154980e-04 6.6332220736921191e-04
350 5.9823695120315057e-04 3.9285650741889186e-04 6.8816089184490364e-04
351 6.5109780537125808e-04 4.9022914746291732e-04 5.7773258180733155e-04
352 7.1500604317316157e-04 3.5043470829343741e-04 6.0151395762841268e-04
353 7.5668207214285913e-04 4.4927531640785734e-04 4.8301349562408368e-04
354 -6.5473285286856428e-04 -7.4477314972501679e-04 2.0469019691099212e-04
355 2.4987510415379923e-04 5.4116780692098842e-04 -7.8541384896527709e-04
356 1.2805525981493738e-04 5.5208985257199094e-04 -8.0546507927388466e-04
357 -6.7139239697793407e-04 3.1907858331606438e-04 -6.5924982818353509e-04
358 5.3311225040130849e-04 -8.4719243793187195e-04 -1.6090218680988856e-04
359 4.6183998096518481e-04 -8.5509642154833884e-04 -2.7972183853372995e-04
360 -8.3464520530825072e-04 4.9181302379419005e-04 2.8605649554114883e-04
361 -1.2130033270841692e-04 -5.1466766412480843e-04 8.3058256199202351e-04
362 -1.6981119708832785e-04 3.3259676624635711e-04 -9.0466223693593363e-04
363 -2.1683417654731760e-04 5.0547051263166254e-04 8.1667438840098095e-04
364 -5.2522692456045928e-04 8.4589869406539390e-04 -1.8084942468535959e-04
365 1.5556849538797248e-04 5.3340391851165834e-04 8.1352485109185599e-04
366 -3.4540380516929331e-04 -2.8646971207220593e-05 9.1530874923514093e-04
367 -7.1565664515129096e-04 -6.4906393792878484e-04 2.9600706937211546e-04
368 2.0880148647014126e-04 6.5238444054859792e-04 7.1716346844261395e-04
369 8.4980609801862410e-05 6.2646297167842755e-04 7.5873718991830038e-04
370 6.8841816444726981e-04 -2.5478517036399558e-04 -6.7100406662771637e-04
371 -5.2738036164562787e-04 1.6040881296424777e-04 8.1654631398415587e-04
372 -6.5235900051937949e-04 1.3134010883467302e-04 7.3403000855489257e-04
373 5.6438341744833470e-04 8.4058634034142089e-04 -5.5261385536543152e-05
374 -1.3202023379571825e-04 -7.7779436506583173e-05 9.6361171128165625e-04
375 -5.3850989839642280e-05 -1.6129891952422208e-04 9.6080315529010487e-04
376 -3.0534505775036812e-04 -9.3590516116910866e-04 2.3570750277420534e-04
377 -4.3884505801566729e-04 -8.9904655680082249e-04 1.6622987921628959e-04
378 -9.3556994868297183e-04 2.0169242993552621e-04 3.2253516376988035e-04
379 4.1921126960889501e-04 6.5283682275745804e-04 -6.2520701883518224e-04
380 1.5965077651443021e-04 -7.0719078898746120e-04 -6.8001289523584381e-04
381 2.7792069801392739e-04 -7.3965014442461301e-04 -6.0934827106485004e-04
382 -9.1363746310274465e-04 -3.8486244264450306e-04 -2.0454684447049476e-04
383 -8.4406688517858275e-04 -4.7510553188062784e-04 -2.8737589182707235e-04
384 -7.8121627169210625e-04 -5.9066426901434310e-04 -2.5273813464222068e-04
385 -1.7080082223135823e-04 -9.5103232287850603e-04 2.9633862315782606e-04
386 -6.6212052212427880e-04 5.2920097676910393e-04 -5.3145296169647188e-04
387 -7.6598782949457045e-04 4.7498738438725809e-04 -4.4312167948891927e-04
388 8.8357010976209858e-04 2.5331400051504247e-04 -4.1032571178523488e-04
389 -9.2206188224786467e-04 3.3364438496924915e-04 -2.4562081195876465e-04
390 -5.2007199041436336e-04 8.6883768694680826e-04 -4.1211917197538753e-05
391 -4.0865751652347529e-04 9.1949993397747647e-04 -1.1618140091337509e-04
392 -6.1679820681321445e-04 8.0323048111332338e-04 3.2258628462641820e-05
393 -6.0315719352270524e-04 -8.0472641958296621e-04 -1.2740495770468955e-04
394 -5.1075892902765064e-04 -8.7358742140152370e-04 -6.4907415238443097e-05
395 8.8174650894251610e-05 1.0082597593577350e-03 -5.3221932327137691e-05
396 2.2588338736114063e-04 9.8827480595517557e-04 -1.1488722104871304e-05
397 5.1824754896332510e-04 3.2213586514749578e-04 -7.7620508636943122e-04
398 2.3747667366189100e-04 -2.8334936010530914e-04 9.0704065446874755e-04
399 3.5720883180817429e-04 -2.2350897800105932e-04 8.8628331872501900e-04
400 -2.7400412021270199e-04 6.0510518377481827e-04 7.3344738063936868e-04
401 -1.5845894793925462e-04 6.0639687246672879e-04 7.6274498074052166e-04
402 3.0910708660948904e-04 -6.0571273832590996e-04 7.2143052839813136e-04
403 6.4387047665422797e-04 2.6722822515011605e-04 7.0556702962130599e-04
404 6.6822158379295493e-04 6.0322665501566389e-04 4.4903311716073022e-04
405 -3.1808973047651567e-04 -9.5788107070045531e-04 9.9805004304195154e-05
406 2.3503844606004832e-04 -2.5498183365458155e-04 -9.1514356366670000e-04
407 3.3684357455372130e-04 -1.9278815025701196e-04 -8.9957350592531019e-04
408 9.1669521331193743e-05 4.4789410197854400e-04 -8.6768380421082386e-04
409 -9.0059579965620022e-04 4.3743598896162235e-04 1.5918446513818596e-04
410 -4.5719369412005223e-04 8.2184509278255906e-04 3.6183372169752449e-04
411 5.4577996419592724e-04 4.2324005761189563e-04 -7.0961614521599422e-04
412 4.6061190195935777e-04 6.4778855231344536e-04 6.0398817751755542e-04
413 8.1279644088269045e-04 3.0628558414195854e-04 5.0177800657787391e-04
414 8.4501508695528169e-04 3.9690757956266625e-04 3.7950228401946998e-04
415 4.0014896207779213e-05 -1.3454395374445319e-04 -9.6495171595070142e-04
416 -9.9031952682324164e-04 2.1363505028345193e-04 -4.3554861196966906e-05
417 -6.0757679233083510e-05 3.2472117285890664e-04 -9.1989252734254936e-04
418 -1.1886488340195148e-04 2.2015079484620894e-04 -9.4354306430645917e-04
419 4.0612466232357114e-05 1.6440520198673591e-04 -9.5958211203915741e-04
420 -6.7580885772200054e-05 -6.9246829841029966e-05 -9.6995028175578778e-04
421 -9.5911288081092000e-04 3.2549833486130543e-04 4.9312636047833649e-05
422 8.0357384993628208e-04 -2.5589838574439260e-04 -5.4029331319775079e-04
423 8.1688437088783383e-04 -3.7577924551012522e-04 -4.5054295780419556e-04
424 2.5732340709437400e-04 9.7351859780669796e-04 1.1442505884149097e-04
425 3.0243707264582185e-05 -6.7229400054949462e-04 -7.2867358603295946e-04
426 2.6835310931337419e-05 -5.3012282361428707e-04 -8.2982757715675348e-04
427 -7.7762267754357442e-05 -5.7695117688507823e-04 -7.9626898839334616e-04
428 4.1723509916563757e-04 -9.0811035691341273e-04 -1.6777878098536713e-04
429 3.2468828224500174e-04 -9.1758967147725760e-04 -2.7424288170036979e-04
430 3.6750989602437424e-04 -8.5345380985032949e-04 -3.9025741629001681e-04
431 -6.1615847143525878e-04 -7.2723600611183774e-04 3.3151293624967941e-04
432 -6.5108093477310328e-04 -6.2632932597766230e-04 4.4230251591245766e-04
433 1.2913191133982551e-04 -3.3083055591164826e-04 -9.1242667653115568e-04
434 -4.5948653539297015e-06 5.4392142283985227e-04 -8.2077422953319120e-04
435 7.1741809541443893e-05 6.5595778105522167e-04 -7.3705681540675442e-04
436 8.9043799483946797e-04 2.6500542928979736e-04 3.8976713232041288e-04
437 9.1320398045525769e-04 3.4261958218053268e-04 2.6672158979762354e-04
438 8.6760596493364484e-04 4.5503443390536053e-04 2.5078455988263981e-04
439 7.5366063622613316e-04 2.0878823871147835e-04 6.1875008142125521e-04
440 -5.8663497296635695e-04 7.6398604574031575e-04 3.0308811501919493e-04
441 -7.0741460589756504e-04 6.9110669777055838e-04 2.1584273535067865e-04
442 6.7202818083459651e-04 -1.1358399803293044e-04 7.2017064435716302e-04
443 7.2160264450895641e-04 -2.3795179720739569e-04 6.4387374399012688e-04
444 8.1663059995577358e-04 -2.4132647351705379e-04 5.2785229129259116e-04
445 7.4523300681345755e-04 -3.6091278382087270e-04 5.6099353910356667e-04
446 8.2978205858438522e-04 -3.6081244634370534e-04 4.3916829929627009e-04
447 7.4692625733682977e-04 -4.7648357253804333e-04 4.7274140268028098e-04
448 6.6061997957731215e-04 -4.7255389538398680e-04 5.8161422318544923e-04
449 8.1640520623785012e-04 -4.8545460150207733e-04 3.4149860960193049e-04
450 8.9212013753145458e-04 -3.6256089887059487e-04 3.0597325194705401e-04
451 6.4775593914938952e-04 -5.9251833419421396e-04 4.8767769589735043e-04
452 6.6092315472351796e-04 1.3288581906447075e-04 7.2691864415697083e-04
453 -5.7216617672518444e-04 -8.2711669875020551e-04 1.2733735745992501e-04
454 2.3348969066744538e-05 -3.9959314042699664e-04 -8.9517285652313591e-04
455 9.2091245053030639e-04 4.0291697711052971e-04 1.3088164900359179e-04
456 4.4165804582790353e-04 -2.1012320656173836e-04 -8.5265644665404809e-04
457 4.9572859729606381e-04 5.2619613455400416e-04 -6.8011105103445255e-04
458 6.0349292281588422e-04 -2.3522242781284019e-04 7.4907985720553544e-04
459 1.4750216023301049e-04 9.7983478628185751e-04 2.0557768296196408e-04
460 6.2664697259003348e-04 7.1190516955290523e-04 3.4388605011883574e-04
461 3.7954583079732093e-04 5.4181641890937559e-04 -7.3546419835228177e-04
462 -4.2001382873913852e-04 7.0526758884561483e-04 5.6894896848945985e-04
463 7.7051869236794107e-04 -1.3093010310492856e-04 -6.1952576396582908e-04
464 8.8566335618690958e-04 -2.5486379514608946e-04 -4.0672598593574833e-04
465 8.8633953085191038e-04 -3.7020752770889481e-04 -3.1387178397065035e-04
466 7.3983866329201471e-06 8.2601306329470564e-04 -5.6138414565435799e-04
467 9.4154264272185205e-04 -2.4964113952839995e-04 -2.7235171139857297e-04
468 9.3146284992085232e-04 -3.6109526039386047e-04 -1.7378192345130985e-04
469 1.3328596732163164e-04 3.3899213273900060e-04 -9.0795151030806517e-04
470 8.6416183018046258e-04 -4.8270246980345238e-04 2.1451672579128972e-04
471 9.3086327164677428e-04 -3.5573437540648570e-04 1.8269702435909878e-04
472 1.9718293050671748e-04 7.7194117030790997e-04 6.0032754241365067e-04
473 1.4285555927218211e-04 -2.0182749569019670e-04 -9.4480812150699197e-04
474 2.3102026587787131e-04 -9.0684202890712988e-04 -3.7561474574378625e-04
475 5.7272446669983745e-04 7.8209439751299799e-04 -2.8403487990032872e-04
476 3.1763792175764272e-04 7.1226925826422323e-04 6.2009246743538688e-04
477 2.8359315956549114e-04 7.1982088547435619e-04 -6.2676873055129935e-04
478 -1.8741814521104161e-04 -5.4749073413683908e-04 -7.9823783411345944e-04
479 -1.7518272374033469e-04 -6.6277882893420951e-04 -7.1645807707849463e-04
480 -3.9780425515060212e-04 8.3881616725321869e-04 -3.8863002349206441e-04
481 1.8554452429726383e-04 6.4744215981780485e-04 -7.2536748485756044e-04
482 7.7024101138703548e-04 -6.1094311272422023e-04 2.4456193013154282e-04
483 9.0360016333352092e-04 -4.5207254454300105e-04 8.9920030940717293e-05
484 9.5401991727734031e-04 -3.3835597392259349e-04 6.4414524580585348e-05
485 5.6171101135056090e-04 -2.3807238737712566e-04 -7.7721191725565770e-04
486 3.7635542853360773e-04 1.4957074555642494e-04 -8.9182517089604510e-04
487 1.0038271918914941e-03 1.3146468864651446e-04 -6.7612606010307192e-05
488 9.6769278578797931e-04 2.8036992649310260e-04 -1.2161171153844666e-04
489 9.8514136197156116e-04 2.3968717122688389e-04 8.9710116724670270e-06
490 9.1510823349331169e-04 4.2757021786877760e-04 -9.1500352282684620e-05
491 3.5498857830826286e-04 9.4990283930878727e-04 1.2047451377209186e-05
492 3.0968305364247268e-04 9.5643032498734517e-04 -1.3012581100679696e-04
493 4.4061381752122760e-04 9.0925283820111381e-04 -8.0628475216449133e-05
494 9.2822084998051165e-04 -4.0830251296667509e-04 -3.2821619484627627e-05
495 9.7190021942331257e-04 -2.8382220906245293e-04 -6.1793590681452450e-05
496 -3.9736271088591020e-04 9.3214792199422969e-04 2.3605292445249727e-05
497 1.0038207041321839e-03 1.2577288489517476e-04 7.5690359723478722e-05
498 6.8701056416677400e-04 6.9057899513555563e-04 -2.6973117662404742e-04
499 1.0038593573256703e-03 -1.3677150839334285e-04 -6.5961877180401395e-05
500 9.8394161551256594e-04 -1.1233162163060205e-04 2.1131797895401237e-04
501 9.3934947809292887e-04 -1.2717361507909601e-04 -3.4682689988779026e-04
502 8.6587048451168276e-04 1.2986797307437871e-04 -4.9033270059260130e-04
503 8.7274340087911499e-04 -1.2271236054913037e-04 4.8107663746868308e-04
504 4.2448873311291059e-04 1.0160650475950727e-04 8.7880847876797147e-04
505 4.0685754997020317e-04 3.1788476879596341e-04 8.3734281056442789e-04
506 6.4804789462934273e-04 -3.5364375339822299e-04 6.6619342369727392e-04
507 3.0055316987905728e-04 -1.0624687977104586e-04 9.2479996759282674e-04
508 6.1164247574454941e-05 -1.1232693545750364e-04 9.6734139955726524e-04
509 1.5272521583195272e-04 -2.0734877755785710e-04 9.4255883425522992e-04
510 2.4477602084265821e-04 -1.7690149488201168e-04 9.2947682533168498e-04
511 -1.9673782234038724e-04 6.6631246904260701e-04 -7.0659319199916628e-04
512 2.7994692071203449e-04 9.3682189017513272e-04 2.5705721545571522e-04
513 5.8723426292083773e-04 -8.2704853478048491e-04 -3.8940095121058962e-05
514 2.6921718904726388e-04 -9.7777987559284282e-04 3.4161128480964509e-05
515 3.0472379345894250e-04 -9.5304130703335410e-04 1.6217507771798249e-04
516 -5.4786663579809347e-04 5.6352430437819445e-04 -6.1241386179731582e-04
517 7.8601266795132185e-04 -5.8577133209199378e-04 -2.5190592198813712e-04
518 -1.4997520797855709e-04 -1.0025308933080030e-03 -4.1818396226003625e-05
519 -2.9854135238410197e-04 -9.6916630805856210e-04 -4.6858697849249027e-05
520 -3.3883751831819179e-04 -9.3695196688562841e-04 -1.8378324391409039e-04
521 -8.0011820994382648e-04 5.3015103050637615e-04 -3.1135164473003663e-04
522 -1.0015046214065068e-03 9.0996299097039095e-05 -1.2368382090743215e-04
523 7.9776589846637181e-04 6.1414432915210418e-04 1.1773068267655647e-04
524 -8.1060213089593233e-04 -5.5296643583313781e-04 2.4610154074640553e-04
525 7.8245709192947246e-04 5.2193759296864357e-04 3.6284826007658514e-04
526 4.9509108203432044e-04 -7.8077472879731127e-04 -4.0059653402393160e-04
527 -9.6603409946103018e-04 -2.8268129599198826e-04 -1.1913450003065176e-04
528 -9.5236679128790039e-04 -7.2939312663122187e-05 3.2623244495369653e-04
529 -9.2330617068530772e-04 5.3747137448014795e-05 3.9795509015758563e-04
530 -8.4373220553317417e-04 5.6241267548559810e-05 5.3667907276919136e-04
531 -7.8845095335288156e-04 -6.2699700672877456e-04 -1.1583694532944699e-04
532 -9.9266724659850922e-04 -7.1348838220643851e-05 1.8643839832411678e-04
533 -7.4316357643484010e-04 5.4771503455936107e-04 4.0050977874171479e-04
534 -7.1393353243398442e-04 7.1891391947146279e-04 -1.3692582672070954e-05
535 -2.4236785918706766e-04 -9.3633005489516575e-04 -2.9362553896002022e-04
536 6.3711527950790060e-04 7.7099669991758659e-04 -1.6012803601509089e-04
537 -1.3624093682926234e-04 -9.0046803404629332e-04 4.2808114730945096e-04
538 -4.0631504959403655e-05 1.0086443123261167e-03 -8.6334718490762509e-05
539 -1.8079858964398246e-04 9.6220449237143955e-04 -2.4918865120325827e-04
540 6.3590740422121638e-05 9.9035011193026072e-04 -2.0007122014068630e-04
541 -9.5145631389727606e-04 2.8944428900912878e-04 1.8956742910320547e-04
542 -8.9119256982602368e-04 -4.3366118504843839e-04 2.0690685211859438e-04
543 -7.9988870091098887e-04 -8.2383141452790847e-05 5.9165514748750546e-04
544 -7.4422285772125026e-04 3.6073951964364507e-05 6.5851304829688386e-04
545 -6.5759343340579795e-04 -5.2737674422892553e-04 -5.3988772069121186e-04
546 -7.5043848014465556e-04 -4.2738691680192255e-04 -5.0839163909420059e-04
547 -7.5299302137214438e-04 -3.0438535720651372e-04 -5.8102870093916113e-04
548 -6.5088669589600211e-04 -2.7406448467096745e-04 -6.9718147065814999e-04
549 2.6492596886845162e-04 -8.1576819697550722e-04 5.1866745477459114e-04
550 5.7544937472931248e-04 6.0467939997988363e-04 5.4991289100427899e-04
551 8.8065341664823275e-04 3.6780616096866335e-04 -3.2797383308013934e-04
552 8.9331401545574278e-04 -2.4295082134996430e-04 3.9734645613551128e-04
553 1.5679665251669460e-04 -7.7114665318799274e-04 6.1324410025634163e-04
554 -4.4057033510223008e-04 -6.4463931503527989e-04 6.2096291659939379e-04
555 -3.7756528968330838e-04 -5.5523830490875265e-04 7.2842693216409321e-04
556 -8.4276819875365289e-04 -4.3986418490268641e-04 3.3838842768924032e-04
557 -6.0892111094762143e-04 -7.3247609411286499e-04 -3.3286020809135641e-04
558 -7.1606343865889162e-04 2.4974742187541295e-04 6.4444629250391553e-04
559 -6.7711898449572116e-04 -4.4808726812526619e-04 5.8178992826250081e-04
560 -5.8113164925578361e-04 -5.6534485524250655e-04 5.8466414478519938e-04
561 6.2871665289623976e-04 4.7790738936323590e-04 -6.0952560499659349e-04
562 -3.2157412896065182e-04 -6.7509603253380272e-04 -6.5700925196665952e-04
563 -4.7772531222932863e-04 5.0704438684787102e-04 7.0574808562276633e-04
564 7.3176818415148046e-04 -4.8704661093123668e-04 -4.8553932794918447e-04
565 -6.5942171753234844e-05 -2.6964721482322277e-04 9.3732451181970013e-04
566 -1.0232107028563040e-04 -3.9464272516731818e-04 8.9181072278253786e-04
567 -1.9798741256664976e-04 -3.0435825984278511e-04 9.0959185490041528e-04
568 -1.6303862276665401e-04 -6.3760905192692004e-04 7.4002512139317682e-04
569 3.9984804535955385e-04 -6.5998923586613168e-04 -6.3111705898772415e-04
570 -6.9872652186823449e-04 -1.0158367142846226e-04 6.9711100223906108e-04
571 5.2783143913329124e-04 3.0351136602210159e-04 7.7731940316309671e-04
572 4.7254306068119799e-04 -3.2827450322959562e-04 -8.0150512752841935e-04
573 1.1915297292034605e-04 -3.3469330001431266e-04 9.1253602585984782e-04
574 -7.3867597714132505e-04 1.9678707595053701e-04 -6.3710303374660444e-04
575 1.4759293001646227e-04 -4.6160390098788314e-04 -8.5551374467169911e-04
576 -4.4096544372018991e-04 -4.2389067330785241e-04 7.7671165894489986e-04
577 -3.0682312378622423e-04 3.4589369208127684e-04 -8.6565941742865074e-04
578 -2.3639605967230450e-04 2.2662467728654898e-04 -9.2127283697195940e-04
579 -3.0183572861293428e-04 1.3791689262711944e-04 -9.1964498721986755e-04
580 -4.7641749149212757e-04 1.3769233876902433e-05 -8.5858743349209721e-04
581 4.4970668899716202e-04 -5.5611670028507683e-04 6.9039979967603726e-04
582 4.7117499165378360e-04 -2.8905391430885302e-04 8.1583372316025278e-04
583 -4.3008604360639745e-04 1.3738843683979170e-04 -8.7098607853354428e-04
584 -3.9997152137752367e-04 1.8204930498804485e-04 8.7727141329592038e-04
585 -4.3440509430186857e-04 6.5513098712767948e-05 8.7738757593545100e-04
586 -3.2934404458536570e-04 -4.0685022555686198e-04 -8.3341636672164233e-04
587 2.6626663878058889e-05 9.6297295461580143e-04 3.0196665248015771e-04
588 -3.8101276362417433e-04 -7.8528364661173590e-05 -8.9895214379596944e-04
589 -2.4010109358194319e-04 -5.7240113566595975e-05 -9.4471896642426981e-04
590 -1.6656191587476418e-04 -1.1494997597430040e-04 -9.5475533597424750e-04
591 -1.5169062688200131e-04 4.0736123393038420e-04 8.7930765986820409e-04
592 -5.2400182931178348e-04 8.0128240153844600e-04 -3.1782475058962666e-04
593 -2.2140755539101865e-04 3.2732097923885211e-06 9.5080965956978285e-04
594 3.5310255726409722e-04 2.1254001695716833e-04 8.8958314521569038e-04
595 -8.1738455061917633e-04 5.7328873652736127e-04 1.6885731204247512e-04
596 4.3118542235677558e-04 -8.9815348116504276e-04 1.8476972646628832e-04
597 9.3157088818925985e-05 4.2422576997317563e-04 8.7962187886875677e-04
598 3.2942266007469467e-04 9.1457617135449966e-04 -2.7456003314017759e-04
599 1.8230116999620646e-04 -6.5964248335383883e-04 7.1774160102636955e-04
600 -5.3326800831054815e-04 -8.2198175863567409e-04 2.5208448713004726e-04
601 -8.5462073784944317e-04 4.0928880496598878e-04 -3.4392392466771674e-04
602 -8.1855549845801553e-04 3.4741324387865927e-04 -4.6489397220610964e-04
603 -7.4708646878162007e-04 -5.4225986471544867e-04 -4.0343290026839576e-04
604 -9.1714561631068235e-04 1.5208501510879317e-04 -3.8624520243792353e-04
605 -4.1306996894339119e-04 -9.2609012464683915e-04 2.7230413315320983e-05
606 -3.1405209101328078e-04 8.5878007745298799e-04 4.1825732184119796e-04
607 3.7974015179748489e-05 1.4134500292510969e-04 9.6384806134466742e-04
608 -5.1039697756829065e-05 7.6647291127219337e-04 6.3336092737329244e-04
609 -7.4387494277433500e-04 -1.7267542879805770e-04 -6.3868430086116675e-04
610 9.6922778776966419e-04 2.6320745651172632e-04 1.4260242259859045e-04
611 4.2409535184145889e-04 -7.8325532785606831e-05 -8.8118642056066339e-04
612 9.3449273447356658e-04 1.2235315435905477e-04 3.5931067458026605e-04
613 -3.8196062033310252e-04 -8.8300551615230879e-04 -3.0841353829774525e-04
614 4.6045076845943343e-05 -7.9241062508785540e-04 -6.0544243645368784e-04
615 4.7449397556757007e-04 -8.9580704185749673e-04 -4.6987401542934763e-05
616 -6.9218644543869680e-04 -7.1163430716579925e-04 -2.0253413743231315e-04
617 -9.4612316518712255e-04 -2.5253532077085201e-04 -2.5192779511585233e-04
618 -6.1577313359981840e-04 4.4535779832660655e-04 -6.4180117302386152e-04
619 1.9044871782289809e-04 -9.6636769414945578e-04 -2.3620783887791927e-04
620 -3.4534352119357548e-05 -9.5011901628262588e-04 3.3925124018751587e-04
621 3.9150942911942067e-04 -7.6547891081728530e-04 -5.1585129024139321e-04
622 -2.1967566542369527e-04 -4.2732194441832548e-04 8.5716774861463126e-04
623 8.1104580307029813e-04 -4.8584350199062210e-04 -3.5333928680095504e-04
624 9.3693195743801505e-04 1.3113092457600915e-04 -3.5082317565739428e-04
625 -4.0295128279084448e-04 6.0436354107420726e-04 6.7700354091959885e-04
626 -2.4599141167587973e-04 -5.4766934481940337e-04 7.8380954096000206e-04
627 -8.9690297980750579e-05 5.2152555215184584e-04 8.2955806657372861e-04
628 4.7830748200326496e-04 8.9294730876476685e-04 4.7878488813791776e-05
629 -9.7316018584464527e-04 5.3780807981844777e-05 2.6744768138849747e-04
630 -6.0453519939697073e-04 7.9468914001218653e-04 1.6626199366611953e-04
631 -8.3451531106881977e-04 -1.9549677759353215e-04 -5.1826226927194320e-04
632 -4.1426402662751960e-04 8.8556484919483981e-04 -2.5516599457007236e-04
633 9.3961588950429301e-04 2.4991803221938868e-04 -2.7676412978412711e-04
634 -3.0434407339906071e-04 8.9603060005800109e-05 9.2509608231073400e-04
635 3.9749793997086581e-04 -9.3155966611701256e-04 6.1318443242424370e-05
636 -6.8405281399708866e-05 -9.8866183754173199e-04 2.0834936688207559e-04
637 -4.6740342242012635e-04 -6.1803500335938917e-05 8.6176958712886915e-04
638 4.2871929696460572e-04 2.4483483068255929e-04 -8.4851355676268387e-04
639 4.2850117327822507e-04 -1.0613748430529058e-04 8.7659857665511886e-04
640 -6.6960572601974661e-05 6.5203707180289821e-04 -7.4038050599941100e-04
641 -9.7378519351990129e-04 2.2570734781660151e-04 -1.6129804614600085e-04
642 -8.8766427098736344e-04 2.8432784625643864e-04 -3.8066978923535750e-04
643 2.8091897163442440e-04 -7.1989667165912700e-04 6.2926640042835450e-04
644 5.5963199772518740e-04 -4.5385390562423402e-04 6.8372090767072598e-04
645 5.9688935809939570e-04 2.2342749573750996e-04 -7.5571659110373164e-04
646 -2.0057099007972603e-04 1.1626308786471931e-04 9.4830306887835577e-04
647 2.6009348577900913e-05 5.2909191800933314e-04 8.2935085153915025e-04
648 -7.5767457276253939e-04 5.9956279285387835e-04 2.9041700697778164e-04
649 -2.6664332678498953e-04 9.7438708617383614e-04 7.9845262559838392e-05
650 9.4506046584262560e-04 -2.4019661519420518e-04 2.6836845930186011e-04
651 -4.7734917385403622e-04 -8.7214398352830386e-04 -1.9587753064874208e-04
652 -8.8558699664321159e-04 -3.4738344798409198e-04 -3.3533141335237134e-04
653 -1.8051820279036028e-04 1.1258977496764887e-04 -9.5213766183669898e-04
654 8.6549202443678456e-04 -4.7608659064818007e-04 -2.2265277549264004e-04
655 -7.1987502921921247e-04 4.1318878773873914e-04 -5.5604652791004763e-04
656 6.4692405110990429e-04 -1.2598776861193946e-04 -7.3913981121391168e-04
657 -7.5929456645730303e-04 -5.4781556811303556e-04 3.7281401473591568e-04
658 -3.5038884104448924e-04 3.1352819538977921e-05 -9.1284482605970946e-04
659 -1.4857438686873611e-04 1.1718163952980717e-05 -9.6397188609521119e-04
660 -4.3612554385286926e-05 7.0648132538811245e-06 -9.7270400699868084e-04
661 8.6761589699160748e-04 -5.2602773897558069e-04 -7.1927495750011381e-06
662 5.2314654373969149e-05 -2.3509169606782975e-04 9.4673402502187017e-04
663 5.2073047193839110e-04 8.5031723276994553e-04 -1.7479246856790185e-04
664 -2.8231558649809168e-04 9.7197770137883496e-04 -5.0260708781766660e-05
665 -2.9994692312503810e-04 9.4788579205011883e-04 -1.8746664038849238e-04
666 -6.8169902056108741e-05 1.2122128415504586e-04 -9.6511781100454036e-04
667 2.6141103901698172e-04 -8.3417492223982110e-04 -4.9293414681548847e-04
668 -5.5520618728529137e-04 3.7488487895118252e-05 8.1307419152952651e-04
669 -8.3180948885694134e-04 -3.1678006912309019e-04 -4.6412965797480965e-04
670 -5.0510351987899111e-04 8.7340503903297071e-04 9.2409966880071181e-05
671 -9.7818052299837566e-04 1.6003853619756577e-04 2.0001399606075118e-04
672 5.4768389233474926e-04 -3.5497737054922490e-04 7.4318238912018453e-04
673 -1.2851405064485029e-05 2.3090358317783374e-04 -9.4784779731091459e-04
674 -2.0203731906160070e-04 -9.7755450046422979e-04 1.7315851655761843e-04
675 4.1331626502659030e-04 7.4221281430348457e-04 5.2817941378668573e-04
676 7.4056648304121728e-05 7.2452130587995407e-04 6.7553225907691797e-04
677 4.6452599624331335e-04 2.0779891856950795e-04 8.4141415428672496e-04
678 -4.9590054690692325e-04 -7.9451753321047632e-04 3.7230360317495566e-04
679 2.9218400520141142e-04 -7.1629455842537506e-05 -9.3017681669526752e-04
680 3.9138847859831148e-04 -6.6319987584803565e-04 6.3113297786601740e-04
681 -8.8331210046271337e-04 1.5534333757398643e-04 4.5064638909772748e-04
682 -9.1426676364356110e-04 4.3610403252005282e-04 1.7239944073390612e-05
683 -7.0449010456754307e-05 1.5304508254698190e-05 9.7146822370466901e-04
684 3.5714224418379077e-04 -9.4794043494342761e-04 -5.4904942423762355e-05
685 4.1669297279520222e-04 9.0252234111200215e-04 -1.8585726071199916e-04
686 1.6650799098925611e-04 -7.9639566060842493e-04 -5.7884702612291835e-04
687 1.8218243796204518e-04 9.8658193504921150e-04 -1.3312392371187651e-04
688 -8.1828485106982525e-04 -4.2490560681314276e-04 -4.0137787301810075e-04
689 -5.4651782323146764e-04 -6.5002429483669230e-04 5.2910653065093920e-04
690 5.8554689143085106e-04 -6.9380907759314717e-04 4.3129101642589980e-04
691 9.7585038265942000e-04 -2.2981394502379491e-04 1.4822634140292863e-04
692 -6.9244928279150759e-04 -5.3331046413307112e-04 4.9092376152045432e-04
693 9.4400309067535287e-04 2.2569555237573268e-04 2.7933580529805011e-04
694 -1.7787032846036397e-04 9.9004611921132491e-04 -1.1639240931097931e-04
695 9.2454183846085356e-04 3.5680197612968182e-04 -2.0315019826866514e-04
696 -4.6461604803567763e-05 6.4880559006336581e-04 7.4628315965414725e-04
697 -3.2390557373793757e-04 -4.6767957822324221e-04 8.0432730759455939e-04
698 9.4973117841010699e-04 3.5756153462985780e-04 1.3840364849569942e-05
699 -4.8082441989346524e-04 -5.3153408602556564e-04 6.8662996976278365e-04
700 -6.5234873163075855e-04 2.0703221323330438e-06 7.4284572095922690e-04
701 5.6448900523286194e-04 -5.5960675640356970e-04 6.0224258870660095e-04
702 -6.9940127128329519e-04 -6.4936701184051737e-04 -3.2590174019118934e-04
703 -7.6585334533093392e-04 3.0186758251041842e-04 -5.6407709856090582e-04
704 5.0041050970743174e-05 3.3015008266710258e-04 -9.1872730577834279e-04
705 3.0248766613755272e-04 6.2471382085733040e-04 -7.0604619445372417e-04
706 -3.0830574244698820e-04 6.8901525288862298e-04 6.4641657353331776e-04
707 1.1522333148778129e-04 -9.3936758334725839e-04 -3.4796685160023511e-04
708 -6.9372354979909030e-04 7.3013987693352242e-04 1.0027041452562578e-04
709 9.6863398523164092e-06 7.3251849749619998e-04 -6.6894574157300981e-04
710 -4.0451861734787478e-04 7.8476036889990836e-04 4.7463229099348853e-04
711 -9.4178958377135315e-04 2.2799123279859315e-04 -2.8125591530878081e-04
712 7.6784231178609317e-04 1.0477310878019893e-04 6.2561542156580044e-04
713 -2.1845581843447752e-04 -7.4896975416765610e-04 -6.1937597027145771e-04
714 6.2585089080142704e-04 3.4252033309178269e-04 -6.8990577778631234e-04
715 -2.1769293397687223e-04 -9.8804906947297074e-04 6.1287260589197096e-05
716 -2.2749345256110355e-04 3.7863982140453966e-05 -9.4784201181701130e-04
717 -4.1179434336359639e-04 -9.2158843839362781e-04 -8.9592203926961382e-05
718 4.8035940861422706e-04 -1.9870096498777643e-04 8.3502423985661251e-04
719 7.3563781879120685e-04 -5.7239806402648442e-04 3.8131416685305671e-04
720 8.5839952642120787e-04 5.1317546945595853e-04 1.5651389659065648e-04
721 2.3134642881493037e-04 -1.5735932501717643e-04 -9.3557873297748096e-04
722 -5.8361855792125731e-04 -7.9134698468617880e-04 -2.3510394453965365e-04
723 3.3900560035011513e-05 7.8776628129084261e-05 -9.7027293769637194e-04
724 -1.8448715872290632e-04 7.0682851938945793e-04 6.7394572448188856e-04
725 8.9075790368481702e-04 -4.7104267296169664e-04 -1.0800717622035158e-04
726 5.5903808692172382e-04 2.0703073356674839e-04 7.8573091771471780e-04
727 8.0051199665066776e-04 5.7050291222821134e-04 2.3695738087589085e-04
728 5.3734945221089461e-04 5.9295370227477470e-04 -5.9409249035122507e-04
729 4.4217033850597117e-04 9.7701847934989291e-05 -8.6978864977533925e-04
730 7.2569751599526569e-04 6.2447739822808095e-04 3.1749467825562319e-04
731 -2.5955981424488362e-04 -6.0708603100896770e-04 -7.3569427180060910e-04
732 3.3696797587298548e-04 6.2347965278814897e-04 6.9349470936386063e-04
733 -7.4021249584842826e-05 9.9130020703810267e-04 -1.8383706249913242e-04
734 -2.2715427129085382e-04 -4.6122545866910595e-04 -8.3794802588132359e-04
735 9.7311293307204643e-04 -2.3328572488786782e-04 -1.5656197530114211e-04
736 9.8646319124735620e-04 -2.3092079890496049e-04 3.4320754259490406e-05
737 -1.5468471042756492e-05 -6.6963891980412752e-05 9.7184173775234411e-04
738 -5.1290622977554379e-04 -8.7293628690386193e-04 4.6425041684785571e-05
739 4.8241558805531460e-04 2.0095435358713566e-04 -8.3294754254503939e-04
740 -7.6071051843608481e-04 1.3594688058853917e-04 6.2734669176657217e-04
741 -1.3695427492471890e-04 2.9033552248397180e-05 9.6455880034469993e-04
742 -5.5866646007980399e-04 -7.1165871055082130e-04 4.3618400542942031e-04
743 -2.4207261137472077e-06 4.2067733758393335e-04 -8.8411534318155684e-04
744 3.0445407189934819e-04 -9.5241660075229858e-04 -1.6041367640844261e-04
745 -8.6573726346211814e-05 -6.6505611899222734e-04 -7.2709503745813835e-04
$EndNodes
$Elements
1486
1 2 2 0 0 410 440 345
2 2 2 0 0 421 541 409
3 2 2 0 0 409 682 421
4 2 2 0 0 545 603 546
5 2 2 0 0 426 427 294
6 2 2 0 0 294 454 426
7 2 2 0 0 265 682 409
8 2 2 0 0 24 41 4
9 2 2 0 0 3 24 4
10 2 2 0 0 238 642 602
11 2 2 0 0 520 651 613
12 2 2 0 0 653 666 659
13 2 2 0 0 404 460 98
14 2 2 0 0 222 482 219
15 2 2 0 0 40 463 9
16 2 2 0 0 608 724 696
17 2 2 0 0 435 709 69
18 2 2 0 0 413 439 29
19 2 2 0 0 345 710 410
20 2 2 0 0 422 463 40
21 2 2 0 0 98 550 404
22 2 2 0 0 95 724 608
23 2 2 0 0 4 41 5
24 2 2 0 0 232 701 581
25 2 2 0 0 490 698 488
26 2 2 0 0 29 436 413
27 2 2 0 0 416 421 342
28 2 2 0 0 312 595 441
29 2 2 0 0 41 486 5
30 2 2 0 0 405 605 519
31 2 2 0 0 409 595 265
32 2 2 0 0 69 481 435
33 2 2 0 0 434 743 339
34 2 2 0 0 342 641 416
35 2 2 0 0 485 656 370
36 2 2 0 0 89 587 90
37 2 2 0 0 108 466 317
38 2 2 0 0 378 629 529
39 2 2 0 0 581 680 232
40 2 2 0 0 281 434 339
41 2 2 0 0 638 739 486
42 2 2 0 0 659 666 660
43 2 2 0 0 345 440 346
44 2 2 0 0 22 44 25
45 2 2 0 0 9 463 8
46 2 2 0 0 44 81 25
47 2 2 0 0 459 587 89
48 2 2 0 0 127 670 630
49 2 2 0 0 508 662 509
50 2 2 0 0 375 662 508
51 2 2 0 0 492 598 103
52 2 2 0 0 604 642 238
53 2 2 0 0 507 510 399
54 2 2 0 0 488 698 489
55 2 2 0 0 34 473 415
56 2 2 0 0 399 639 507
57 2 2 0 0 603 688 546
58 2 2 0 0 316 541 421
59 2 2 0 0 647 696 627
60 2 2 0 0 403 439 352
61 2 2 0 0 221 603 545
62 2 2 0 0 595 648 441
63 2 2 0 0 412 550 98
64 2 2 0 0 411 714 397
65 2 2 0 0 486 739 729
66 2 2 0 0 696 724 401
67 2 2 0 0 247 482 222
68 2 2 0 0 397 714 645
69 2 2 0 0 613 651 212
70 2 2 0 0 207 745 425
71 2 2 0 0 98 675 412
72 2 2 0 0 219 482 230
73 2 2 0 0 560 692 432
74 2 2 0 0 432 689 560
75 2 2 0 0 454 575 426
76 2 2 0 0 352 439 413
77 2 2 0 0 415 420 2
78 2 2 0 0 40 464 422
79 2 2 0 0 89 512 459
80 2 2 0 0 425 614 207
81 2 2 0 0 377 600 453
82 2 2 0 0 89 90 88
83 2 2 0 0 80 466 108
84 2 2 0 0 520 717 651
85 2 2 0 0 602 703 238
86 2 2 0 0 103 687 492
87 2 2 0 0 253 491 424
88 2 2 0 0 69 709 466
89 2 2 0 0 424 512 253
90 2 2 0 0 369 696 647
91 2 2 0 0 581 701 644
92 2 2 0 0 630 670 392
93 2 2 0 0 32 656 485
94 2 2 0 0 459 512 424
95 2 2 0 0 90 91 88
96 2 2 0 0 427 478 294
97 2 2 0 0 488 695 490
98 2 2 0 0 554 699 560
99 2 2 0 0 67 80 79
100 2 2 0 0 252 454 294
101 2 2 0 0 253 628 491
102 2 2 0 0 529 681 378
103 2 2 0 0 519 715 405
104 2 2 0 0 440 441 346
105 2 2 0 0 605 717 519
106 2 2 0 0 403 452 439
107 2 2 0 0 507 639 21
108 2 2 0 0 565 567 566
109 2 2 0 0 433 454 341
110 2 2 0 0 67 466 80
111 2 2 0 0 555 697 576
112 2 2 0 0 491 628 493
113 2 2 0 0 389 641 342
114 2 2 0 0 429 619 474
115 2 2 0 0 40 501 464
116 2 2 0 0 576 699 555
117 2 2 0 0 311 600 377
118 2 2 0 0 567 622 566
119 2 2 0 0 433 575 454
120 2 2 0 0 378 671 629
121 2 2 0 0 79 540 103
122 2 2 0 0 341 473 433
123 2 2 0 0 673 704 68
124 2 2 0 0 462 710 345
125 2 2 0 0 557 722 616
126 2 2 0 0 573 662 343
127 2 2 0 0 370 656 463
128 2 2 0 0 341 454 252
129 2 2 0 0 616 702 557
130 2 2 0 0 6 26 7
131 2 2 0 0 464 501 467
132 2 2 0 0 433 473 406
133 2 2 0 0 8 45 37
134 2 2 0 0 466 709 317
135 2 2 0 0 457 461 379
136 2 2 0 0 84 512 86
137 2 2 0 0 19 452 33
138 2 2 0 0 380 614 425
139 2 2 0 0 83 540 79
140 2 2 0 0 398 510 509
141 2 2 0 0 609 631 137
142 2 2 0 0 18 442 36
143 2 2 0 0 26 45 7
144 2 2 0 0 565 566 343
145 2 2 0 0 80 83 79
146 2 2 0 0 560 689 554
147 2 2 0 0 134 137 136
148 2 2 0 0 68 469 42
149 2 2 0 0 659 716 653
150 2 2 0 0 619 707 474
151 2 2 0 0 497 610 39
152 2 2 0 0 137 138 136
153 2 2 0 0 283 573 343
154 2 2 0 0 506 644 448
155 2 2 0 0 499 735 31
156 2 2 0 0 81 97 25
157 2 2 0 0 45 46 37
158 2 2 0 0 585 668 637
159 2 2 0 0 495 735 499
160 2 2 0 0 399 510 398
161 2 2 0 0 509 573 398
162 2 2 0 0 442 443 36
163 2 2 0 0 1 607 314
164 2 2 0 0 29 612 436
165 2 2 0 0 547 631 609
166 2 2 0 0 360 595 409
167 2 2 0 0 421 682 342
168 2 2 0 0 426 575 327
169 2 2 0 0 123 577 235
170 2 2 0 0 339 743 417
171 2 2 0 0 7 45 8
172 2 2 0 0 3 723 24
173 2 2 0 0 418 666 653
174 2 2 0 0 59 60 58
175 2 2 0 0 620 636 193
176 2 2 0 0 42 469 47
177 2 2 0 0 65 67 66
178 2 2 0 0 509 662 573
179 2 2 0 0 470 482 247
180 2 2 0 0 368 476 472
181 2 2 0 0 530 740 337
182 2 2 0 0 253 512 84
183 2 2 0 0 455 698 282
184 2 2 0 0 61 65 62
185 2 2 0 0 59 61 60
186 2 2 0 0 91 472 88
187 2 2 0 0 90 92 91
188 2 2 0 0 19 442 18
189 2 2 0 0 464 465 423
190 2 2 0 0 706 724 118
191 2 2 0 0 456 611 32
192 2 2 0 0 379 477 61
193 2 2 0 0 417 743 704
194 2 2 0 0 314 683 1
195 2 2 0 0 442 458 443
196 2 2 0 0 11 28 12
197 2 2 0 0 61 62 60
198 2 2 0 0 118 724 95
199 2 2 0 0 22 25 23
200 2 2 0 0 247 483 470
201 2 2 0 0 281 640 434
202 2 2 0 0 197 667 474
203 2 2 0 0 86 512 89
204 2 2 0 0 417 704 673
205 2 2 0 0 451 690 230
206 2 2 0 0 27 442 19
207 2 2 0 0 637 668 229
208 2 2 0 0 60 475 58
209 2 2 0 0 489 610 497
210 2 2 0 0 307 573 283
211 2 2 0 0 61 477 65
212 2 2 0 0 65 66 62
213 2 2 0 0 544 740 530
214 2 2 0 0 230 719 451
215 2 2 0 0 18 452 19
216 2 2 0 0 268 569 269
217 2 2 0 0 32 485 456
218 2 2 0 0 627 696 401
219 2 2 0 0 24 42 41
220 2 2 0 0 20 27 19
221 2 2 0 0 330 461 457
222 2 2 0 0 506 672 644
223 2 2 0 0 472 476 87
224 2 2 0 0 468 495 494
225 2 2 0 0 88 472 87
226 2 2 0 0 121 577 123
227 2 2 0 0 327 575 276
228 2 2 0 0 422 464 423
229 2 2 0 0 47 63 49
230 2 2 0 0 458 506 443
231 2 2 0 0 232 690 451
232 2 2 0 0 28 487 12
233 2 2 0 0 80 107 83
234 2 2 0 0 608 696 676
235 2 2 0 0 356 481 355
236 2 2 0 0 138 238 136
237 2 2 0 0 137 139 138
238 2 2 0 0 729 739 26
239 2 2 0 0 81 99 97
240 2 2 0 0 46 50 37
241 2 2 0 0 463 656 8
242 2 2 0 0 443 444 36
243 2 2 0 0 68 704 469
244 2 2 0 0 24 68 42
245 2 2 0 0 16 503 30
246 2 2 0 0 65 69 67
247 2 2 0 0 67 79 66
248 2 2 0 0 676 696 369
249 2 2 0 0 59 379 61
250 2 2 0 0 90 93 92
251 2 2 0 0 464 467 465
252 2 2 0 0 441 708 312
253 2 2 0 0 483 484 471
254 2 2 0 0 427 479 478
255 2 2 0 0 245 564 244
256 2 2 0 0 470 483 471
257 2 2 0 0 473 721 406
258 2 2 0 0 555 699 554
259 2 2 0 0 47 469 63
260 2 2 0 0 63 355 49
261 2 2 0 0 62 64 60
262 2 2 0 0 80 108 107
263 2 2 0 0 107 539 83
264 2 2 0 0 139 140 138
265 2 2 0 0 99 100 97
266 2 2 0 0 81 236 99
267 2 2 0 0 46 51 50
268 2 2 0 0 443 445 444
269 2 2 0 0 24 419 68
270 2 2 0 0 69 466 67
271 2 2 0 0 79 103 66
272 2 2 0 0 65 477 69
273 2 2 0 0 547 548 321
274 2 2 0 0 93 94 92
275 2 2 0 0 467 468 465
276 2 2 0 0 333 664 649
277 2 2 0 0 55 498 56
278 2 2 0 0 56 498 72
279 2 2 0 0 12 499 31
280 2 2 0 0 63 356 355
281 2 2 0 0 108 110 107
282 2 2 0 0 139 141 140
283 2 2 0 0 100 101 97
284 2 2 0 0 236 248 99
285 2 2 0 0 81 594 236
286 2 2 0 0 51 52 50
287 2 2 0 0 192 515 195
288 2 2 0 0 445 446 444
289 2 2 0 0 477 481 69
290 2 2 0 0 94 95 92
291 2 2 0 0 93 96 94
292 2 2 0 0 63 408 356
293 2 2 0 0 108 111 110
294 2 2 0 0 110 117 107
295 2 2 0 0 139 154 141
296 2 2 0 0 141 142 140
297 2 2 0 0 51 53 52
298 2 2 0 0 100 102 101
299 2 2 0 0 236 250 248
300 2 2 0 0 445 447 446
301 2 2 0 0 52 388 50
302 2 2 0 0 277 622 567
303 2 2 0 0 95 608 92
304 2 2 0 0 94 118 95
305 2 2 0 0 93 104 96
306 2 2 0 0 51 561 53
307 2 2 0 0 408 434 356
308 2 2 0 0 53 54 52
309 2 2 0 0 445 448 447
310 2 2 0 0 108 317 111
311 2 2 0 0 141 143 142
312 2 2 0 0 142 225 140
313 2 2 0 0 102 166 101
314 2 2 0 0 250 325 248
315 2 2 0 0 100 258 102
316 2 2 0 0 53 55 54
317 2 2 0 0 447 449 446
318 2 2 0 0 236 505 250
319 2 2 0 0 104 105 96
320 2 2 0 0 53 57 55
321 2 2 0 0 55 56 54
322 2 2 0 0 448 451 447
323 2 2 0 0 14 39 15
324 2 2 0 0 317 511 111
325 2 2 0 0 10 40 9
326 2 2 0 0 143 144 142
327 2 2 0 0 57 58 55
328 2 2 0 0 8 37 9
329 2 2 0 0 14 38 13
330 2 2 0 0 166 314 101
331 2 2 0 0 18 36 17
332 2 2 0 0 16 29 17
333 2 2 0 0 33 504 20
334 2 2 0 0 325 365 248
335 2 2 0 0 199 202 196
336 2 2 0 0 7 32 6
337 2 2 0 0 434 435 356
338 2 2 0 0 74 75 73
339 2 2 0 0 223 239 234
340 2 2 0 0 74 76 75
341 2 2 0 0 72 74 73
342 2 2 0 0 231 549 201
343 2 2 0 0 202 205 204
344 2 2 0 0 226 227 214
345 2 2 0 0 272 275 271
346 2 2 0 0 276 318 275
347 2 2 0 0 213 214 209
348 2 2 0 0 76 77 75
349 2 2 0 0 210 231 201
350 2 2 0 0 16 30 15
351 2 2 0 0 205 209 208
352 2 2 0 0 202 204 196
353 2 2 0 0 318 406 340
354 2 2 0 0 195 196 193
355 2 2 0 0 322 420 415
356 2 2 0 0 239 240 234
357 2 2 0 0 163 588 168
358 2 2 0 0 12 31 11
359 2 2 0 0 56 72 71
360 2 2 0 0 425 426 327
361 2 2 0 0 19 33 20
362 2 2 0 0 168 224 215
363 2 2 0 0 209 568 216
364 2 2 0 0 318 433 406
365 2 2 0 0 269 271 270
366 2 2 0 0 268 269 245
367 2 2 0 0 21 639 20
368 2 2 0 0 84 85 82
369 2 2 0 0 181 207 183
370 2 2 0 0 269 272 271
371 2 2 0 0 272 276 275
372 2 2 0 0 242 243 240
373 2 2 0 0 102 167 166
374 2 2 0 0 223 234 233
375 2 2 0 0 283 343 227
376 2 2 0 0 205 208 204
377 2 2 0 0 213 226 214
378 2 2 0 0 271 572 347
379 2 2 0 0 243 268 245
380 2 2 0 0 335 398 307
381 2 2 0 0 303 555 554
382 2 2 0 0 226 283 227
383 2 2 0 0 347 485 370
384 2 2 0 0 195 199 196
385 2 2 0 0 205 213 209
386 2 2 0 0 246 322 252
387 2 2 0 0 76 78 77
388 2 2 0 0 133 163 135
389 2 2 0 0 163 168 164
390 2 2 0 0 322 415 341
391 2 2 0 0 227 361 214
392 2 2 0 0 191 198 189
393 2 2 0 0 78 84 82
394 2 2 0 0 209 216 208
395 2 2 0 0 78 82 77
396 2 2 0 0 216 303 266
397 2 2 0 0 417 418 362
398 2 2 0 0 314 607 101
399 2 2 0 0 339 362 280
400 2 2 0 0 243 245 244
401 2 2 0 0 187 291 185
402 2 2 0 0 429 430 359
403 2 2 0 0 143 145 144
404 2 2 0 0 202 553 205
405 2 2 0 0 339 417 362
406 2 2 0 0 131 580 133
407 2 2 0 0 239 242 240
408 2 2 0 0 57 59 58
409 2 2 0 0 224 246 215
410 2 2 0 0 84 86 85
411 2 2 0 0 303 554 266
412 2 2 0 0 72 73 71
413 2 2 0 0 437 438 414
414 2 2 0 0 318 340 275
415 2 2 0 0 269 270 245
416 2 2 0 0 86 87 85
417 2 2 0 0 192 193 191
418 2 2 0 0 123 235 129
419 2 2 0 0 263 374 262
420 2 2 0 0 425 427 426
421 2 2 0 0 149 150 147
422 2 2 0 0 210 232 231
423 2 2 0 0 74 373 76
424 2 2 0 0 168 215 169
425 2 2 0 0 259 262 249
426 2 2 0 0 145 146 144
427 2 2 0 0 367 524 289
428 2 2 0 0 271 347 270
429 2 2 0 0 406 407 340
430 2 2 0 0 334 459 424
431 2 2 0 0 429 474 430
432 2 2 0 0 250 328 325
433 2 2 0 0 431 432 367
434 2 2 0 0 104 278 105
435 2 2 0 0 145 147 146
436 2 2 0 0 151 152 150
437 2 2 0 0 235 583 129
438 2 2 0 0 237 249 228
439 2 2 0 0 149 151 150
440 2 2 0 0 159 161 158
441 2 2 0 0 153 155 152
442 2 2 0 0 156 158 155
443 2 2 0 0 354 367 289
444 2 2 0 0 259 263 262
445 2 2 0 0 190 191 189
446 2 2 0 0 177 221 174
447 2 2 0 0 162 228 161
448 2 2 0 0 124 516 386
449 2 2 0 0 418 653 578
450 2 2 0 0 371 584 295
451 2 2 0 0 151 153 152
452 2 2 0 0 153 156 155
453 2 2 0 0 159 162 161
454 2 2 0 0 374 593 262
455 2 2 0 0 156 159 158
456 2 2 0 0 237 259 249
457 2 2 0 0 146 284 160
458 2 2 0 0 266 309 267
459 2 2 0 0 264 265 257
460 2 2 0 0 86 88 87
461 2 2 0 0 265 312 257
462 2 2 0 0 162 237 228
463 2 2 0 0 21 44 22
464 2 2 0 0 324 392 390
465 2 2 0 0 371 585 584
466 2 2 0 0 262 366 249
467 2 2 0 0 192 195 193
468 2 2 0 0 263 375 374
469 2 2 0 0 216 266 217
470 2 2 0 0 326 327 276
471 2 2 0 0 260 646 166
472 2 2 0 0 220 223 222
473 2 2 0 0 322 341 252
474 2 2 0 0 256 257 255
475 2 2 0 0 78 253 84
476 2 2 0 0 358 359 242
477 2 2 0 0 188 189 187
478 2 2 0 0 281 339 280
479 2 2 0 0 146 160 144
480 2 2 0 0 123 129 128
481 2 2 0 0 255 324 254
482 2 2 0 0 228 229 161
483 2 2 0 0 354 431 367
484 2 2 0 0 163 164 135
485 2 2 0 0 155 157 152
486 2 2 0 0 243 244 240
487 2 2 0 0 256 264 257
488 2 2 0 0 284 316 160
489 2 2 0 0 380 425 327
490 2 2 0 0 148 149 147
491 2 2 0 0 335 399 398
492 2 2 0 0 418 578 362
493 2 2 0 0 334 424 396
494 2 2 0 0 167 260 166
495 2 2 0 0 325 368 365
496 2 2 0 0 428 429 359
497 2 2 0 0 165 255 254
498 2 2 0 0 297 342 264
499 2 2 0 0 298 371 295
500 2 2 0 0 218 323 220
501 2 2 0 0 310 337 302
502 2 2 0 0 165 256 255
503 2 2 0 0 186 187 185
504 2 2 0 0 56 71 70
505 2 2 0 0 165 254 125
506 2 2 0 0 200 201 199
507 2 2 0 0 148 206 149
508 2 2 0 0 324 390 364
509 2 2 0 0 190 192 191
510 2 2 0 0 368 369 365
511 2 2 0 0 353 404 351
512 2 2 0 0 104 331 278
513 2 2 0 0 256 297 264
514 2 2 0 0 316 421 416
515 2 2 0 0 239 358 242
516 2 2 0 0 169 586 171
517 2 2 0 0 286 287 206
518 2 2 0 0 324 364 254
519 2 2 0 0 241 576 162
520 2 2 0 0 168 169 164
521 2 2 0 0 121 123 122
522 2 2 0 0 266 267 217
523 2 2 0 0 129 131 130
524 2 2 0 0 216 217 208
525 2 2 0 0 285 382 313
526 2 2 0 0 172 321 170
527 2 2 0 0 390 391 364
528 2 2 0 0 296 563 300
529 2 2 0 0 246 252 251
530 2 2 0 0 285 286 206
531 2 2 0 0 288 289 287
532 2 2 0 0 298 372 371
533 2 2 0 0 23 35 22
534 2 2 0 0 300 344 304
535 2 2 0 0 344 462 345
536 2 2 0 0 123 128 122
537 2 2 0 0 297 389 342
538 2 2 0 0 237 277 259
539 2 2 0 0 148 285 206
540 2 2 0 0 86 89 88
541 2 2 0 0 306 307 283
542 2 2 0 0 234 279 233
543 2 2 0 0 316 416 160
544 2 2 0 0 188 190 189
545 2 2 0 0 85 98 82
546 2 2 0 0 358 428 359
547 2 2 0 0 437 455 438
548 2 2 0 0 203 210 201
549 2 2 0 0 382 383 313
550 2 2 0 0 153 176 156
551 2 2 0 0 290 354 289
552 2 2 0 0 159 241 162
553 2 2 0 0 386 387 126
554 2 2 0 0 273 363 338
555 2 2 0 0 272 326 276
556 2 2 0 0 171 293 173
557 2 2 0 0 145 148 147
558 2 2 0 0 274 295 261
559 2 2 0 0 285 313 286
560 2 2 0 0 383 384 313
561 2 2 0 0 301 302 299
562 2 2 0 0 131 133 132
563 2 2 0 0 296 298 295
564 2 2 0 0 305 310 302
565 2 2 0 0 349 412 328
566 2 2 0 0 344 345 304
567 2 2 0 0 77 119 75
568 2 2 0 0 315 378 310
569 2 2 0 0 363 401 400
570 2 2 0 0 332 333 278
571 2 2 0 0 223 233 222
572 2 2 0 0 331 334 332
573 2 2 0 0 186 188 187
574 2 2 0 0 178 212 177
575 2 2 0 0 305 360 315
576 2 2 0 0 334 396 395
577 2 2 0 0 246 251 215
578 2 2 0 0 167 261 260
579 2 2 0 0 175 179 178
580 2 2 0 0 345 346 304
581 2 2 0 0 124 386 126
582 2 2 0 0 286 288 287
583 2 2 0 0 331 332 278
584 2 2 0 0 179 181 180
585 2 2 0 0 301 305 302
586 2 2 0 0 300 304 301
587 2 2 0 0 296 300 299
588 2 2 0 0 305 315 310
589 2 2 0 0 296 299 298
590 2 2 0 0 320 453 290
591 2 2 0 0 274 296 295
592 2 2 0 0 313 531 286
593 2 2 0 0 120 281 280
594 2 2 0 0 360 409 315
595 2 2 0 0 363 400 338
596 2 2 0 0 129 130 128
597 2 2 0 0 300 301 299
598 2 2 0 0 1 508 23
599 2 2 0 0 167 273 261
600 2 2 0 0 133 135 134
601 2 2 0 0 173 174 172
602 2 2 0 0 311 377 376
603 2 2 0 0 273 274 261
604 2 2 0 0 273 338 274
605 2 2 0 0 334 395 332
606 2 2 0 0 183 197 184
607 2 2 0 0 319 393 320
608 2 2 0 0 449 450 446
609 2 2 0 0 288 290 289
610 2 2 0 0 226 306 283
611 2 2 0 0 326 380 327
612 2 2 0 0 175 177 174
613 2 2 0 0 181 183 182
614 2 2 0 0 219 230 211
615 2 2 0 0 308 335 307
616 2 2 0 0 267 311 292
617 2 2 0 0 169 170 164
618 2 2 0 0 288 319 290
619 2 2 0 0 126 165 125
620 2 2 0 0 120 280 121
621 2 2 0 0 130 357 128
622 2 2 0 0 195 200 199
623 2 2 0 0 169 171 170
624 2 2 0 0 171 172 170
625 2 2 0 0 184 186 185
626 2 2 0 0 73 282 71
627 2 2 0 0 252 294 251
628 2 2 0 0 319 320 290
629 2 2 0 0 131 132 130
630 2 2 0 0 393 394 320
631 2 2 0 0 171 173 172
632 2 2 0 0 4 34 3
633 2 2 0 0 218 220 219
634 2 2 0 0 267 292 217
635 2 2 0 0 184 185 182
636 2 2 0 0 188 194 190
637 2 2 0 0 56 70 54
638 2 2 0 0 377 405 376
639 2 2 0 0 449 470 450
640 2 2 0 0 179 180 178
641 2 2 0 0 173 175 174
642 2 2 0 0 175 178 177
643 2 2 0 0 250 329 328
644 2 2 0 0 311 376 292
645 2 2 0 0 329 571 350
646 2 2 0 0 347 370 348
647 2 2 0 0 220 222 219
648 2 2 0 0 376 385 292
649 2 2 0 0 133 134 132
650 2 2 0 0 134 136 132
651 2 2 0 0 306 308 307
652 2 2 0 0 200 203 201
653 2 2 0 0 233 247 222
654 2 2 0 0 98 460 82
655 2 2 0 0 329 349 328
656 2 2 0 0 326 381 380
657 2 2 0 0 347 348 270
658 2 2 0 0 181 182 180
659 2 2 0 0 121 122 115
660 2 2 0 0 350 351 349
661 2 2 0 0 308 336 335
662 2 2 0 0 350 403 352
663 2 2 0 0 470 471 450
664 2 2 0 0 203 211 210
665 2 2 0 0 218 219 211
666 2 2 0 0 183 184 182
667 2 2 0 0 370 463 422
668 2 2 0 0 306 402 308
669 2 2 0 0 203 218 211
670 2 2 0 0 71 490 70
671 2 2 0 0 329 350 349
672 2 2 0 0 436 437 414
673 2 2 0 0 124 126 125
674 2 2 0 0 413 414 353
675 2 2 0 0 422 423 348
676 2 2 0 0 352 353 351
677 2 2 0 0 370 422 348
678 2 2 0 0 350 352 351
679 2 2 0 0 413 436 414
680 2 2 0 0 352 413 353
681 2 2 0 0 120 121 115
682 2 2 0 0 110 480 117
683 2 2 0 0 124 125 116
684 2 2 0 0 126 521 165
685 2 2 0 0 113 120 115
686 2 2 0 0 127 440 410
687 2 2 0 0 114 124 116
688 2 2 0 0 543 544 530
689 2 2 0 0 488 489 487
690 2 2 0 0 585 637 366
691 2 2 0 0 543 570 544
692 2 2 0 0 113 115 114
693 2 2 0 0 127 410 106
694 2 2 0 0 114 116 112
695 2 2 0 0 195 515 200
696 2 2 0 0 491 493 492
697 2 2 0 0 12 487 13
698 2 2 0 0 546 547 321
699 2 2 0 0 330 457 411
700 2 2 0 0 157 543 530
701 2 2 0 0 519 520 291
702 2 2 0 0 28 488 487
703 2 2 0 0 111 112 110
704 2 2 0 0 312 534 257
705 2 2 0 0 476 732 412
706 2 2 0 0 27 458 442
707 2 2 0 0 385 636 620
708 2 2 0 0 176 559 156
709 2 2 0 0 593 634 366
710 2 2 0 0 589 590 224
711 2 2 0 0 113 114 112
712 2 2 0 0 109 127 106
713 2 2 0 0 270 564 245
714 2 2 0 0 443 506 445
715 2 2 0 0 491 492 396
716 2 2 0 0 388 624 502
717 2 2 0 0 445 506 448
718 2 2 0 0 30 500 15
719 2 2 0 0 20 504 21
720 2 2 0 0 64 475 60
721 2 2 0 0 287 542 206
722 2 2 0 0 23 508 35
723 2 2 0 0 302 558 299
724 2 2 0 0 70 551 54
725 2 2 0 0 62 598 64
726 2 2 0 0 424 491 396
727 2 2 0 0 407 456 340
728 2 2 0 0 545 546 321
729 2 2 0 0 330 411 397
730 2 2 0 0 72 536 74
731 2 2 0 0 238 574 136
732 2 2 0 0 659 660 420
733 2 2 0 0 395 538 332
734 2 2 0 0 143 527 145
735 2 2 0 0 412 675 476
736 2 2 0 0 239 513 358
737 2 2 0 0 157 530 529
738 2 2 0 0 518 519 291
739 2 2 0 0 449 482 470
740 2 2 0 0 207 713 479
741 2 2 0 0 119 523 75
742 2 2 0 0 109 670 127
743 2 2 0 0 10 501 40
744 2 2 0 0 508 509 35
745 2 2 0 0 96 606 94
746 2 2 0 0 331 459 334
747 2 2 0 0 286 531 288
748 2 2 0 0 290 453 354
749 2 2 0 0 282 490 71
750 2 2 0 0 384 531 313
751 2 2 0 0 289 524 287
752 2 2 0 0 349 550 412
753 2 2 0 0 165 521 256
754 2 2 0 0 82 460 77
755 2 2 0 0 155 543 157
756 2 2 0 0 201 549 199
757 2 2 0 0 273 591 363
758 2 2 0 0 387 521 126
759 2 2 0 0 114 516 124
760 2 2 0 0 53 561 57
761 2 2 0 0 266 554 309
762 2 2 0 0 257 534 255
763 2 2 0 0 205 553 213
764 2 2 0 0 142 522 225
765 2 2 0 0 435 481 356
766 2 2 0 0 216 568 303
767 2 2 0 0 300 563 344
768 2 2 0 0 214 568 209
769 2 2 0 0 112 480 110
770 2 2 0 0 350 571 403
771 2 2 0 0 347 572 485
772 2 2 0 0 275 572 271
773 2 2 0 0 274 563 296
774 2 2 0 0 171 586 293
775 2 2 0 0 162 576 237
776 2 2 0 0 133 580 163
777 2 2 0 0 11 501 10
778 2 2 0 0 295 584 261
779 2 2 0 0 129 583 131
780 2 2 0 0 215 586 169
781 2 2 0 0 250 505 329
782 2 2 0 0 168 588 224
783 2 2 0 0 321 548 170
784 2 2 0 0 262 593 366
785 2 2 0 0 166 646 314
786 2 2 0 0 520 535 291
787 2 2 0 0 373 663 493
788 2 2 0 0 291 535 185
789 2 2 0 0 101 607 97
790 2 2 0 0 130 574 357
791 2 2 0 0 158 570 543
792 2 2 0 0 31 501 11
793 2 2 0 0 444 552 503
794 2 2 0 0 156 559 159
795 2 2 0 0 236 594 505
796 2 2 0 0 206 542 149
797 2 2 0 0 54 551 52
798 2 2 0 0 74 536 373
799 2 2 0 0 337 558 302
800 2 2 0 0 150 532 147
801 2 2 0 0 379 728 457
802 2 2 0 0 299 558 298
803 2 2 0 0 332 538 333
804 2 2 0 0 145 527 148
805 2 2 0 0 514 515 192
806 2 2 0 0 15 500 14
807 2 2 0 0 75 523 73
808 2 2 0 0 467 501 31
809 2 2 0 0 254 592 125
810 2 2 0 0 172 545 321
811 2 2 0 0 144 522 142
812 2 2 0 0 528 532 150
813 2 2 0 0 187 518 291
814 2 2 0 0 553 599 213
815 2 2 0 0 383 603 384
816 2 2 0 0 282 698 490
817 2 2 0 0 244 517 240
818 2 2 0 0 353 525 404
819 2 2 0 0 395 540 538
820 2 2 0 0 94 606 118
821 2 2 0 0 117 539 107
822 2 2 0 0 185 535 182
823 2 2 0 0 388 502 50
824 2 2 0 0 167 591 273
825 2 2 0 0 147 532 146
826 2 2 0 0 92 608 91
827 2 2 0 0 472 676 368
828 2 2 0 0 364 592 254
829 2 2 0 0 21 504 44
830 2 2 0 0 365 597 248
831 2 2 0 0 125 592 116
832 2 2 0 0 588 589 224
833 2 2 0 0 111 113 112
834 2 2 0 0 63 469 408
835 2 2 0 0 105 109 106
836 2 2 0 0 242 526 243
837 2 2 0 0 439 712 29
838 2 2 0 0 240 517 234
839 2 2 0 0 346 533 304
840 2 2 0 0 14 500 38
841 2 2 0 0 494 495 484
842 2 2 0 0 127 630 440
843 2 2 0 0 208 537 204
844 2 2 0 0 175 562 179
845 2 2 0 0 303 626 555
846 2 2 0 0 359 526 242
847 2 2 0 0 243 526 268
848 2 2 0 0 217 537 208
849 2 2 0 0 58 498 55
850 2 2 0 0 503 552 30
851 2 2 0 0 13 499 12
852 2 2 0 0 268 621 569
853 2 2 0 0 489 497 487
854 2 2 0 0 475 498 58
855 2 2 0 0 430 526 359
856 2 2 0 0 248 597 99
857 2 2 0 0 292 537 217
858 2 2 0 0 26 645 45
859 2 2 0 0 234 517 279
860 2 2 0 0 14 497 39
861 2 2 0 0 385 537 292
862 2 2 0 0 305 533 360
863 2 2 0 0 304 533 301
864 2 2 0 0 146 532 284
865 2 2 0 0 483 494 484
866 2 2 0 0 173 562 175
867 2 2 0 0 116 480 112
868 2 2 0 0 224 590 246
869 2 2 0 0 189 518 187
870 2 2 0 0 498 536 72
871 2 2 0 0 414 525 353
872 2 2 0 0 160 522 144
873 2 2 0 0 547 609 548
874 2 2 0 0 182 535 180
875 2 2 0 0 297 601 389
876 2 2 0 0 44 594 81
877 2 2 0 0 301 533 305
878 2 2 0 0 105 106 96
879 2 2 0 0 515 596 200
880 2 2 0 0 293 562 173
881 2 2 0 0 73 523 282
882 2 2 0 0 148 527 285
883 2 2 0 0 174 545 172
884 2 2 0 0 218 596 323
885 2 2 0 0 200 596 203
886 2 2 0 0 149 542 151
887 2 2 0 0 446 552 444
888 2 2 0 0 49 461 330
889 2 2 0 0 330 397 48
890 2 2 0 0 453 738 377
891 2 2 0 0 255 534 324
892 2 2 0 0 52 551 388
893 2 2 0 0 634 646 260
894 2 2 0 0 513 615 358
895 2 2 0 0 438 525 414
896 2 2 0 0 516 618 386
897 2 2 0 0 198 518 189
898 2 2 0 0 227 566 361
899 2 2 0 0 559 560 241
900 2 2 0 0 90 587 93
901 2 2 0 0 416 522 160
902 2 2 0 0 102 591 167
903 2 2 0 0 134 609 137
904 2 2 0 0 298 558 372
905 2 2 0 0 132 574 130
906 2 2 0 0 106 606 96
907 2 2 0 0 159 559 241
908 2 2 0 0 32 611 6
909 2 2 0 0 158 543 155
910 2 2 0 0 223 513 239
911 2 2 0 0 288 531 319
912 2 2 0 0 323 513 220
913 2 2 0 0 115 516 114
914 2 2 0 0 521 601 297
915 2 2 0 0 610 698 455
916 2 2 0 0 354 600 431
917 2 2 0 0 351 550 349
918 2 2 0 0 256 521 297
919 2 2 0 0 140 604 138
920 2 2 0 0 77 460 119
921 2 2 0 0 17 503 16
922 2 2 0 0 9 502 10
923 2 2 0 0 104 587 331
924 2 2 0 0 152 528 150
925 2 2 0 0 315 541 378
926 2 2 0 0 170 548 164
927 2 2 0 0 590 659 420
928 2 2 0 0 11 624 28
929 2 2 0 0 199 549 202
930 2 2 0 0 502 624 10
931 2 2 0 0 453 600 354
932 2 2 0 0 42 43 41
933 2 2 0 0 38 499 13
934 2 2 0 0 285 527 382
935 2 2 0 0 190 514 192
936 2 2 0 0 157 529 528
937 2 2 0 0 231 643 549
938 2 2 0 0 331 587 459
939 2 2 0 0 451 701 232
940 2 2 0 0 99 597 100
941 2 2 0 0 361 568 214
942 2 2 0 0 372 740 544
943 2 2 0 0 221 545 174
944 2 2 0 0 138 604 238
945 2 2 0 0 340 572 275
946 2 2 0 0 338 563 274
947 2 2 0 0 524 542 287
948 2 2 0 0 265 595 312
949 2 2 0 0 111 511 113
950 2 2 0 0 580 658 588
951 2 2 0 0 580 588 163
952 2 2 0 0 237 576 277
953 2 2 0 0 444 503 36
954 2 2 0 0 131 583 580
955 2 2 0 0 505 571 329
956 2 2 0 0 203 596 218
957 2 2 0 0 584 634 260
958 2 2 0 0 261 584 260
959 2 2 0 0 369 647 365
960 2 2 0 0 251 586 215
961 2 2 0 0 348 564 270
962 2 2 0 0 450 552 446
963 2 2 0 0 390 496 391
964 2 2 0 0 66 598 62
965 2 2 0 0 465 623 423
966 2 2 0 0 258 591 102
967 2 2 0 0 343 566 227
968 2 2 0 0 564 623 244
969 2 2 0 0 154 617 141
970 2 2 0 0 324 534 392
971 2 2 0 0 50 502 37
972 2 2 0 0 524 556 542
973 2 2 0 0 544 700 372
974 2 2 0 0 122 516 115
975 2 2 0 0 177 557 221
976 2 2 0 0 489 698 610
977 2 2 0 0 93 587 104
978 2 2 0 0 136 574 132
979 2 2 0 0 593 646 634
980 2 2 0 0 116 592 480
981 2 2 0 0 143 617 527
982 2 2 0 0 225 604 140
983 2 2 0 0 137 631 139
984 2 2 0 0 549 553 202
985 2 2 0 0 164 548 135
986 2 2 0 0 404 550 351
987 2 2 0 0 34 721 473
988 2 2 0 0 220 513 223
989 2 2 0 0 317 640 511
990 2 2 0 0 100 597 258
991 2 2 0 0 588 658 589
992 2 2 0 0 323 615 513
993 2 2 0 0 568 626 303
994 2 2 0 0 377 605 405
995 2 2 0 0 178 613 212
996 2 2 0 0 493 628 373
997 2 2 0 0 157 528 152
998 2 2 0 0 591 627 363
999 2 2 0 0 409 541 315
1000 2 2 0 0 183 614 197
1001 2 2 0 0 103 598 66
1002 2 2 0 0 188 619 194
1003 2 2 0 0 213 599 226
1004 2 2 0 0 306 599 402
1005 2 2 0 0 97 607 25
1006 2 2 0 0 194 514 190
1007 2 2 0 0 373 628 76
1008 2 2 0 0 78 628 253
1009 2 2 0 0 42 47 43
1010 2 2 0 0 39 612 15
1011 2 2 0 0 16 612 29
1012 2 2 0 0 437 610 455
1013 2 2 0 0 487 497 13
1014 2 2 0 0 440 630 441
1015 2 2 0 0 479 713 562
1016 2 2 0 0 196 620 193
1017 2 2 0 0 456 572 340
1018 2 2 0 0 120 511 281
1019 2 2 0 0 577 578 235
1020 2 2 0 0 335 582 399
1021 2 2 0 0 314 741 683
1022 2 2 0 0 520 613 535
1023 2 2 0 0 585 634 584
1024 2 2 0 0 423 564 348
1025 2 2 0 0 457 561 411
1026 2 2 0 0 6 611 5
1027 2 2 0 0 385 620 537
1028 2 2 0 0 228 637 229
1029 2 2 0 0 366 637 249
1030 2 2 0 0 161 570 158
1031 2 2 0 0 434 640 435
1032 2 2 0 0 193 636 191
1033 2 2 0 0 410 606 106
1034 2 2 0 0 37 502 9
1035 2 2 0 0 36 503 17
1036 2 2 0 0 141 617 143
1037 2 2 0 0 363 627 401
1038 2 2 0 0 322 590 420
1039 2 2 0 0 357 618 128
1040 2 2 0 0 430 621 526
1041 2 2 0 0 540 687 103
1042 2 2 0 0 280 577 121
1043 2 2 0 0 276 575 318
1044 2 2 0 0 362 578 577
1045 2 2 0 0 109 649 496
1046 2 2 0 0 246 590 322
1047 2 2 0 0 326 569 381
1048 2 2 0 0 569 621 381
1049 2 2 0 0 269 569 272
1050 2 2 0 0 139 631 154
1051 2 2 0 0 649 664 496
1052 2 2 0 0 537 620 204
1053 2 2 0 0 355 461 49
1054 2 2 0 0 663 685 493
1055 2 2 0 0 479 745 207
1056 2 2 0 0 343 662 565
1057 2 2 0 0 212 557 177
1058 2 2 0 0 45 645 46
1059 2 2 0 0 496 670 109
1060 2 2 0 0 366 634 585
1061 2 2 0 0 384 616 531
1062 2 2 0 0 535 613 180
1063 2 2 0 0 391 632 364
1064 2 2 0 0 308 581 336
1065 2 2 0 0 344 625 462
1066 2 2 0 0 563 625 344
1067 2 2 0 0 13 497 14
1068 2 2 0 0 480 632 117
1069 2 2 0 0 371 668 585
1070 2 2 0 0 333 649 278
1071 2 2 0 0 387 601 521
1072 2 2 0 0 47 49 48
1073 2 2 0 0 358 615 428
1074 2 2 0 0 113 511 120
1075 2 2 0 0 527 617 382
1076 2 2 0 0 105 649 109
1077 2 2 0 0 398 573 307
1078 2 2 0 0 368 676 369
1079 2 2 0 0 180 613 178
1080 2 2 0 0 153 556 176
1081 2 2 0 0 432 657 367
1082 2 2 0 0 458 718 582
1083 2 2 0 0 207 614 183
1084 2 2 0 0 407 611 456
1085 2 2 0 0 244 623 517
1086 2 2 0 0 20 639 27
1087 2 2 0 0 476 675 87
1088 2 2 0 0 319 616 393
1089 2 2 0 0 474 707 197
1090 2 2 0 0 226 599 306
1091 2 2 0 0 47 48 43
1092 2 2 0 0 186 619 188
1093 2 2 0 0 412 732 328
1094 2 2 0 0 316 671 541
1095 2 2 0 0 293 734 478
1096 2 2 0 0 492 685 598
1097 2 2 0 0 528 629 532
1098 2 2 0 0 514 635 515
1099 2 2 0 0 531 616 319
1100 2 2 0 0 8 656 7
1101 2 2 0 0 387 602 601
1102 2 2 0 0 76 628 78
1103 2 2 0 0 122 618 516
1104 2 2 0 0 651 717 394
1105 2 2 0 0 423 623 564
1106 2 2 0 0 546 669 547
1107 2 2 0 0 4 679 34
1108 2 2 0 0 542 556 151
1109 2 2 0 0 548 609 135
1110 2 2 0 0 204 620 196
1111 2 2 0 0 529 629 528
1112 2 2 0 0 482 719 230
1113 2 2 0 0 258 627 591
1114 2 2 0 0 336 582 335
1115 2 2 0 0 197 686 667
1116 2 2 0 0 583 658 580
1117 2 2 0 0 85 675 98
1118 2 2 0 0 59 728 379
1119 2 2 0 0 400 625 338
1120 2 2 0 0 394 717 605
1121 2 2 0 0 471 650 450
1122 2 2 0 0 596 635 323
1123 2 2 0 0 249 637 228
1124 2 2 0 0 515 635 596
1125 2 2 0 0 338 625 563
1126 2 2 0 0 28 633 488
1127 2 2 0 0 566 622 361
1128 2 2 0 0 229 570 161
1129 2 2 0 0 468 654 465
1130 2 2 0 0 118 710 462
1131 2 2 0 0 15 612 16
1132 2 2 0 0 589 659 590
1133 2 2 0 0 526 621 268
1134 2 2 0 0 365 647 597
1135 2 2 0 0 579 583 235
1136 2 2 0 0 22 507 21
1137 2 2 0 0 342 682 264
1138 2 2 0 0 441 648 346
1139 2 2 0 0 191 636 198
1140 2 2 0 0 578 653 579
1141 2 2 0 0 135 609 134
1142 2 2 0 0 128 618 122
1143 2 2 0 0 378 681 310
1144 2 2 0 0 230 690 211
1145 2 2 0 0 210 690 232
1146 2 2 0 0 549 643 553
1147 2 2 0 0 233 661 247
1148 2 2 0 0 10 624 11
1149 2 2 0 0 640 709 435
1150 2 2 0 0 449 719 482
1151 2 2 0 0 452 726 33
1152 2 2 0 0 362 577 280
1153 2 2 0 0 318 575 433
1154 2 2 0 0 492 687 396
1155 2 2 0 0 586 734 293
1156 2 2 0 0 357 655 618
1157 2 2 0 0 277 567 259
1158 2 2 0 0 522 641 225
1159 2 2 0 0 511 640 281
1160 2 2 0 0 247 661 483
1161 2 2 0 0 610 693 39
1162 2 2 0 0 272 569 326
1163 2 2 0 0 490 695 70
1164 2 2 0 0 553 643 599
1165 2 2 0 0 532 629 284
1166 2 2 0 0 29 712 17
1167 2 2 0 0 632 665 117
1168 2 2 0 0 618 655 386
1169 2 2 0 0 241 699 576
1170 2 2 0 0 457 728 561
1171 2 2 0 0 485 572 456
1172 2 2 0 0 430 667 621
1173 2 2 0 0 582 672 458
1174 2 2 0 0 395 687 540
1175 2 2 0 0 504 594 44
1176 2 2 0 0 181 713 207
1177 2 2 0 0 197 707 184
1178 2 2 0 0 524 657 556
1179 2 2 0 0 475 536 498
1180 2 2 0 0 394 738 320
1181 2 2 0 0 51 714 561
1182 2 2 0 0 151 556 153
1183 2 2 0 0 437 693 610
1184 2 2 0 0 361 626 568
1185 2 2 0 0 611 679 5
1186 2 2 0 0 231 680 643
1187 2 2 0 0 462 706 118
1188 2 2 0 0 390 670 496
1189 2 2 0 0 602 642 601
1190 2 2 0 0 49 330 48
1191 2 2 0 0 391 665 632
1192 2 2 0 0 508 737 375
1193 2 2 0 0 450 650 552
1194 2 2 0 0 368 732 476
1195 2 2 0 0 578 579 235
1196 2 2 0 0 402 581 308
1197 2 2 0 0 43 486 41
1198 2 2 0 0 562 713 179
1199 2 2 0 0 592 632 480
1200 2 2 0 0 416 641 522
1201 2 2 0 0 372 668 371
1202 2 2 0 0 452 712 439
1203 2 2 0 0 282 720 455
1204 2 2 0 0 556 657 176
1205 2 2 0 0 364 632 592
1206 2 2 0 0 403 726 452
1207 2 2 0 0 465 654 623
1208 2 2 0 0 278 649 105
1209 2 2 0 0 154 652 617
1210 2 2 0 0 383 688 603
1211 2 2 0 0 451 719 447
1212 2 2 0 0 317 709 640
1213 2 2 0 0 604 711 642
1214 2 2 0 0 382 652 383
1215 2 2 0 0 601 642 389
1216 2 2 0 0 284 671 316
1217 2 2 0 0 599 643 402
1218 2 2 0 0 388 633 624
1219 2 2 0 0 267 678 311
1220 2 2 0 0 337 681 530
1221 2 2 0 0 279 661 233
1222 2 2 0 0 605 738 394
1223 2 2 0 0 33 677 504
1224 2 2 0 0 386 655 387
1225 2 2 0 0 547 669 631
1226 2 2 0 0 562 731 479
1227 2 2 0 0 360 648 595
1228 2 2 0 0 432 692 657
1229 2 2 0 0 367 657 524
1230 2 2 0 0 633 695 488
1231 2 2 0 0 415 473 341
1232 2 2 0 0 644 672 336
1233 2 2 0 0 551 633 388
1234 2 2 0 0 533 648 360
1235 2 2 0 0 407 679 611
1236 2 2 0 0 323 635 615
1237 2 2 0 0 530 681 529
1238 2 2 0 0 393 651 394
1239 2 2 0 0 387 655 602
1240 2 2 0 0 238 703 574
1241 2 2 0 0 594 677 505
1242 2 2 0 0 559 692 560
1243 2 2 0 0 621 667 381
1244 2 2 0 0 405 674 376
1245 2 2 0 0 325 732 368
1246 2 2 0 0 623 654 517
1247 2 2 0 0 581 644 336
1248 2 2 0 0 346 648 533
1249 2 2 0 0 517 654 279
1250 2 2 0 0 477 705 481
1251 2 2 0 0 481 705 355
1252 2 2 0 0 561 728 57
1253 2 2 0 0 379 705 477
1254 2 2 0 0 617 652 382
1255 2 2 0 0 30 650 500
1256 2 2 0 0 376 674 385
1257 2 2 0 0 518 715 519
1258 2 2 0 0 474 667 430
1259 2 2 0 0 478 734 294
1260 2 2 0 0 624 633 28
1261 2 2 0 0 186 707 619
1262 2 2 0 0 64 663 475
1263 2 2 0 0 597 647 258
1264 2 2 0 0 377 738 605
1265 2 2 0 0 31 735 467
1266 2 2 0 0 27 718 458
1267 2 2 0 0 419 673 68
1268 2 2 0 0 616 722 393
1269 2 2 0 0 24 723 419
1270 2 2 0 0 397 638 48
1271 2 2 0 0 404 730 460
1272 2 2 0 0 91 676 472
1273 2 2 0 0 622 626 361
1274 2 2 0 0 7 656 32
1275 2 2 0 0 576 697 277
1276 2 2 0 0 471 691 650
1277 2 2 0 0 536 663 373
1278 2 2 0 0 484 691 471
1279 2 2 0 0 552 650 30
1280 2 2 0 0 311 678 600
1281 2 2 0 0 486 729 5
1282 2 2 0 0 418 673 666
1283 2 2 0 0 232 680 231
1284 2 2 0 0 5 679 4
1285 2 2 0 0 117 665 539
1286 2 2 0 0 384 702 616
1287 2 2 0 0 557 702 221
1288 2 2 0 0 87 675 85
1289 2 2 0 0 225 711 604
1290 2 2 0 0 505 677 571
1291 2 2 0 0 483 661 494
1292 2 2 0 0 263 565 375
1293 2 2 0 0 504 677 594
1294 2 2 0 0 582 718 399
1295 2 2 0 0 645 714 46
1296 2 2 0 0 534 708 392
1297 2 2 0 0 643 680 402
1298 2 2 0 0 18 712 452
1299 2 2 0 0 392 670 390
1300 2 2 0 0 221 702 603
1301 2 2 0 0 496 664 391
1302 2 2 0 0 606 710 118
1303 2 2 0 0 655 703 602
1304 2 2 0 0 608 676 91
1305 2 2 0 0 194 684 514
1306 2 2 0 0 541 671 378
1307 2 2 0 0 154 669 652
1308 2 2 0 0 399 718 639
1309 2 2 0 0 405 715 674
1310 2 2 0 0 33 726 677
1311 2 2 0 0 629 671 284
1312 2 2 0 0 468 735 495
1313 2 2 0 0 469 704 408
1314 2 2 0 0 427 745 479
1315 2 2 0 0 294 734 251
1316 2 2 0 0 461 705 379
1317 2 2 0 0 385 674 636
1318 2 2 0 0 657 692 176
1319 2 2 0 0 561 714 411
1320 2 2 0 0 631 669 154
1321 2 2 0 0 264 682 265
1322 2 2 0 0 43 638 486
1323 2 2 0 0 48 638 43
1324 2 2 0 0 194 744 684
1325 2 2 0 0 381 686 380
1326 2 2 0 0 658 716 589
1327 2 2 0 0 263 567 565
1328 2 2 0 0 310 681 337
1329 2 2 0 0 493 685 492
1330 2 2 0 0 64 685 663
1331 2 2 0 0 309 678 267
1332 2 2 0 0 600 678 431
1333 2 2 0 0 538 694 333
1334 2 2 0 0 598 685 64
1335 2 2 0 0 551 695 633
1336 2 2 0 0 560 699 241
1337 2 2 0 0 211 690 210
1338 2 2 0 0 2 723 3
1339 2 2 0 0 630 708 441
1340 2 2 0 0 467 735 468
1341 2 2 0 0 396 687 395
1342 2 2 0 0 35 507 22
1343 2 2 0 0 259 567 263
1344 2 2 0 0 417 673 418
1345 2 2 0 0 614 686 197
1346 2 2 0 0 392 708 630
1347 2 2 0 0 5 729 6
1348 2 2 0 0 279 725 661
1349 2 2 0 0 6 729 26
1350 2 2 0 0 357 703 655
1351 2 2 0 0 514 684 635
1352 2 2 0 0 540 733 538
1353 2 2 0 0 374 741 593
1354 2 2 0 0 176 692 559
1355 2 2 0 0 650 691 500
1356 2 2 0 0 484 736 691
1357 2 2 0 0 83 733 540
1358 2 2 0 0 558 740 372
1359 2 2 0 0 626 697 555
1360 2 2 0 0 436 693 437
1361 2 2 0 0 375 737 374
1362 2 2 0 0 475 663 536
1363 2 2 0 0 636 674 198
1364 2 2 0 0 674 715 198
1365 2 2 0 0 70 695 551
1366 2 2 0 0 406 721 407
1367 2 2 0 0 677 726 571
1368 2 2 0 0 258 647 627
1369 2 2 0 0 448 701 451
1370 2 2 0 0 458 672 506
1371 2 2 0 0 229 700 570
1372 2 2 0 0 684 744 428
1373 2 2 0 0 570 700 544
1374 2 2 0 0 678 742 431
1375 2 2 0 0 646 741 314
1376 2 2 0 0 603 702 384
1377 2 2 0 0 478 731 293
1378 2 2 0 0 309 742 678
1379 2 2 0 0 380 686 614
1380 2 2 0 0 494 725 468
1381 2 2 0 0 500 691 38
1382 2 2 0 0 635 684 615
1383 2 2 0 0 661 725 494
1384 2 2 0 0 679 721 34
1385 2 2 0 0 509 510 35
1386 2 2 0 0 46 714 51
1387 2 2 0 0 615 684 428
1388 2 2 0 0 432 742 689
1389 2 2 0 0 179 713 181
1390 2 2 0 0 26 739 645
1391 2 2 0 0 35 510 507
1392 2 2 0 0 574 703 357
1393 2 2 0 0 184 707 186
1394 2 2 0 0 39 693 612
1395 2 2 0 0 665 694 539
1396 2 2 0 0 312 708 534
1397 2 2 0 0 554 689 309
1398 2 2 0 0 1 737 508
1399 2 2 0 0 519 717 520
1400 2 2 0 0 277 697 622
1401 2 2 0 0 389 711 641
1402 2 2 0 0 495 736 484
1403 2 2 0 0 17 712 18
1404 2 2 0 0 212 722 557
1405 2 2 0 0 455 720 438
1406 2 2 0 0 622 697 626
1407 2 2 0 0 664 694 665
1408 2 2 0 0 447 719 449
1409 2 2 0 0 669 688 652
1410 2 2 0 0 612 693 436
1411 2 2 0 0 619 744 194
1412 2 2 0 0 57 728 59
1413 2 2 0 0 579 658 583
1414 2 2 0 0 438 727 525
1415 2 2 0 0 539 733 83
1416 2 2 0 0 479 731 478
1417 2 2 0 0 691 736 38
1418 2 2 0 0 401 724 400
1419 2 2 0 0 420 660 2
1420 2 2 0 0 328 732 325
1421 2 2 0 0 320 738 453
1422 2 2 0 0 428 744 429
1423 2 2 0 0 431 742 432
1424 2 2 0 0 425 745 427
1425 2 2 0 0 408 743 434
1426 2 2 0 0 571 726 403
1427 2 2 0 0 119 727 523
1428 2 2 0 0 625 706 462
1429 2 2 0 0 525 730 404
1430 2 2 0 0 499 736 495
1431 2 2 0 0 468 725 654
1432 2 2 0 0 336 672 582
1433 2 2 0 0 198 715 518
1434 2 2 0 0 400 724 706
1435 2 2 0 0 402 680 581
1436 2 2 0 0 589 716 659
1437 2 2 0 0 727 730 525
1438 2 2 0 0 664 665 391
1439 2 2 0 0 337 740 558
1440 2 2 0 0 293 731 562
1441 2 2 0 0 523 720 282
1442 2 2 0 0 460 730 119
1443 2 2 0 0 641 711 225
1444 2 2 0 0 429 744 619
1445 2 2 0 0 119 730 727
1446 2 2 0 0 651 722 212
1447 2 2 0 0 38 736 499
1448 2 2 0 0 667 686 381
1449 2 2 0 0 652 688 383
1450 2 2 0 0 410 710 606
1451 2 2 0 0 644 701 448
1452 2 2 0 0 666 673 419
1453 2 2 0 0 704 743 408
1454 2 2 0 0 251 734 586
1455 2 2 0 0 400 706 625
1456 2 2 0 0 546 688 669
1457 2 2 0 0 668 700 229
1458 2 2 0 0 538 733 694
1459 2 2 0 0 333 694 664
1460 2 2 0 0 565 662 375
1461 2 2 0 0 720 727 438
1462 2 2 0 0 372 700 668
1463 2 2 0 0 579 716 658
1464 2 2 0 0 642 711 389
1465 2 2 0 0 355 705 461
1466 2 2 0 0 407 721 679
1467 2 2 0 0 523 727 720
1468 2 2 0 0 654 725 279
1469 2 2 0 0 639 718 27
1470 2 2 0 0 694 733 539
1471 2 2 0 0 393 722 651
1472 2 2 0 0 645 739 397
1473 2 2 0 0 683 741 374
1474 2 2 0 0 397 739 638
1475 2 2 0 0 653 716 579
1476 2 2 0 0 666 723 660
1477 2 2 0 0 419 723 666
1478 2 2 0 0 374 737 683
1479 2 2 0 0 593 741 646
1480 2 2 0 0 683 737 1
1481 2 2 0 0 689 742 309
1482 2 2 0 0 660 723 2
1483 2 2 0 0 23 25 1
1484 2 2 0 0 25 607 1
1485 2 2 0 0 3 34 2
1486 2 2 0 0 34 415 2
$EndElements
