$MeshFormat
2.2 0 8
$EndMeshFormat
$Nodes
745
1 3.9276858409959828e-05 3.5111774053586686e-05 1.0246939635978017e-03
2 4.2278803694063019e-05 -3.7769218229488222e-05 -1.0233274793105033e-03
3 1.3517736116245690e-04 2.3832359288099836e-05 -1.0145388287176979e-03
4 2.3959554346415914e-04 3.8060383315818883e-05 -9.9404515450156068e-04
5 3.6644645965054352e-04 5.1450665896699987e-05 -9.5146696388597341e-04
6 5.0013461977890252e-04 -2.9104184838551344e-08 -8.8430680377966800e-04
7 6.2218824482826928e-04 -1.2484500450856219e-05 -7.9652971454610341e-04
8 7.3765425862208124e-04 -1.0025202184842212e-05 -6.8213499922071847e-04
9 8.3752928359332346e-04 -3.3751923865546965e-06 -5.4390707667050745e-04
10 9.0431127991446084e-04 7.8973060960956621e-07 -4.1279571682760089e-04
11 9.5062393359043949e-04 3.5713270816975662e-06 -2.7908798600471301e-04
12 9.7853245434444298e-04 2.9606990011884800e-06 -1.4177297661635124e-04
13 9.8800121729372605e-04 -2.2599495737825093e-06 4.6321360871728840e-07
14 9.7838763221469818e-04 9.6429470569837848e-06 1.4107223906323319e-04
15 9.5162617084677435e-04 1.3250571546968943e-05 2.7487878073144672e-04
16 9.0405002652700248e-04 8.4283652978911179e-06 4.1386778642085487e-04
17 8.3392071790176390e-04 1.6062338283859585e-06 5.5007927661916776e-04
18 7.3541933465752041e-04 8.1055956869582718e-07 6.8516191986336484e-04
19 6.2496466555237123e-04 3.8311760061905971e-06 7.9485066467822202e-04
20 5.0331652916146060e-04 4.1637055263694819e-07 8.8284848225391279e-04
21 3.8486485274180366e-04 -6.1293063625476550e-06 9.4469573562254547e-04
22 2.6157315846982642e-04 1.0844159867879202e-05 9.8897440080580466e-04
23 1.4095257426630984e-04 -3.1916602229022097e-06 1.0143972622312072e-03
24 1.7131945466911084e-04 1.2658675409702873e-04 -1.0014218011513993e-03
25 1.6597320116621187e-04 1.0232029452369863e-04 1.0060735314048482e-03
26 5.7702860405102615e-04 1.0649558397488298e-04 -8.2455591585915710e-04
27 5.7047670232848291e-04 -1.1215534060755126e-04 8.2968980821518390e-04
28 9.5824151993102074e-04 1.3519602886610240e-04 -2.0662335522052781e-04
29 8.5697866248490016e-04 1.4608174742362825e-04 4.8895818244477137e-04
30 9.2650193078766150e-04 -1.1119116524291144e-04 3.3690591296163731e-04
31 9.5935694492389561e-04 -1.1626324451102794e-04 -2.1258050407521758e-04
32 5.3799017641868025e-04 -1.2170085444210530e-04 -8.5118301666664109e-04
33 5.5202359041235519e-04 1.1647028847266400e-04 8.4208002284299436e-04
34 1.6323701269198637e-04 -8.4151610109722713e-05 -1.0080823020953763e-03
35 1.9285901615346285e-04 -1.0194356888680673e-04 1.0001889685500038e-03
36 7.8717835559078948e-04 -1.1151369453359652e-04 6.0921493144161564e-04
37 7.8272766537239378e-04 1.1679934492385097e-04 -6.1360569714354518e-04
38 9.7943784682903950e-04 -1.0711585447113874e-04 7.2604920612307061e-05
39 9.5982737257333819e-04 1.2686801007992708e-04 2.0295864071896366e-04
40 8.6372718927249981e-04 -1.2647420136418957e-04 -4.8022973479621708e-04
41 2.8822567656975294e-04 1.3940050427082556e-04 -9.7006009906633046e-04
42 2.0200369102065936e-04 2.5791742684583535e-04 -9.6716705585842878e-04
43 3.3449006817302826e-04 2.5766692553235300e-04 -9.2641699425196255e-04
44 3.0717544452114637e-04 1.0920071476588878e-04 9.6845059175963905e-04
45 6.7884580102042509e-04 1.0822824570460272e-04 -7.3625986941063014e-04
46 7.2216473993838429e-04 2.2639037246096117e-04 -6.5868621820633236e-04
47 2.7714945073081197e-04 3.6834990011338473e-04 -9.0641205044159610e-04
48 3.9668580418735020e-04 3.5675516709391812e-04 -8.6234604460312463e-04
49 3.3116136499835989e-04 4.7290906803837217e-04 -8.3136709712008905e-04
50 8.0648010815532285e-04 2.4373415345524713e-04 -5.3495232993425602e-04
51 7.3140875723732093e-04 3.6387871551234847e-04 -5.7613547552629117e-04
52 8.0969109335688729e-04 3.6678177041429876e-04 -4.4649213736338065e-04
53 7.2240908418622193e-04 4.9037321626979418e-04 -4.7878981403793225e-04
54 7.9709590597938542e-04 4.7997846876633770e-04 -3.4284277113865829e-04
55 7.0910588179890041e-04 5.9120613868102309e-04 -3.6313583831266576e-04
56 7.7251469584405574e-04 5.7332129918170611e-04 -2.3070177670420915e-04
57 6.2966472556757601e-04 5.9734966971323545e-04 -4.8830218390616973e-04
58 6.0713691907854383e-04 6.8806650616165055e-04 -3.7786654394946889e-04
59 5.1858127963159474e-04 6.9169231504109612e-04 -4.9459113140158510e-04
60 4.8815043965456077e-04 7.7133715911235955e-04 -3.9008007469713379e-04
61 3.9667779654936706e-04 7.6025442316507452e-04 -5.0779382447606856e-04
62 3.6135627981534853e-04 8.3758167802750827e-04 -3.9140590544989990e-04
63 2.1219641031561002e-04 4.6020245132760511e-04 -8.7969299468938973e-04
64 4.5047339619733211e-04 8.3447725377516833e-04 -2.8374504237047661e-04
65 2.5757603876543848e-04 8.1821504196304454e-04 -5.0734767098337900e-04
66 2.2788132209057083e-04 8.9037609810378769e-04 -3.7360584213887670e-04
67 1.2532858786981206e-04 8.6365335545844841e-04 -4.7893133999850763e-04
68 9.8775795918750329e-05 2.4536167750377767e-04 -9.8751316539354150e-04
69 1.4394158246546569e-04 7.7301142744992603e-04 -6.2104705328497572e-04
70 8.4848986699326821e-04 4.6053341577603237e-04 -2.1441905772047064e-04
71 8.2019466817752351e-04 5.4159605130746011e-04 -1.0021011972847088e-04
72 7.2904496207126411e-04 6.5530032800157408e-04 -1.2313644708114482e-04
73 7.6591274462164732e-04 6.2351973127737883e-04 -2.3416054002260649e-07
74 6.6249420830710325e-04 7.3175025101076543e-04 -2.5490367709794882e-05
75 6.8854915684364137e-04 7.0147968261926772e-04 9.6828068353222403e-05
76 5.7713949642365604e-04 7.9822424437015231e-04 7.0784386682690132e-05
77 6.0680570096997529e-04 7.5439090694083652e-04 2.0112098329364057e-04
78 4.9561758391681687e-04 8.3675314027924631e-04 1.7708943778603026e-04
79 9.2814332151757551e-05 9.2737865157626871e-04 -3.3739757411770349e-04
80 -1.2787964798216909e-05 8.9547702503140164e-04 -4.3043522460366657e-04
81 2.3692669976102011e-04 2.1931299827249824e-04 9.6947261542859619e-04
82 5.1615319653182162e-04 7.8662771255821591e-04 3.1125795710158798e-04
83 -4.2728801802444597e-05 9.4273191750657564e-04 -2.9933254211034850e-04
84 4.0117900852397936e-04 8.6010756854373838e-04 2.8240968342617667e-04
85 4.1364678775747751e-04 8.0588697630897704e-04 4.0761640747059429e-04
86 2.9344554260442193e-04 8.6988606443539642e-04 3.7661544138682397e-04
87 2.9956960580970835e-04 8.0641117953472730e-04 5.0230604757932633e-04
88 1.7989279256608131e-04 8.5945770783969104e-04 4.6810721627683536e-04
89 1.6628881081155822e-04 9.1778051215242473e-04 3.3531274818189262e-04
90 5.1039388723435003e-05 8.9768386868236674e-04 4.2250362661913854e-04
91 6.8260404934906949e-05 8.2919291863800450e-04 5.5142214744503273e-04
92 -5.8344689595872886e-05 8.5776542238205915e-04 5.0273790792574582e-04
93 -8.9583390235565798e-05 9.1393219817950753e-04 3.7515709309346993e-04
94 -1.9130163817397867e-04 8.6522816050469060e-04 4.5060083043366454e-04
95 -1.6628750830410574e-04 8.0067575576510017e-04 5.7199989249081011e-04
96 -2.2114693658422454e-04 9.0885492835258313e-04 3.2662819270568174e-04
97 1.1860770941075048e-04 2.2022733074933214e-04 9.9207684648495000e-04
98 5.4039918992551238e-04 7.0536666342557058e-04 4.4934394390512577e-04
99 1.6807522869612785e-04 3.4098704349161825e-04 9.4657941711875676e-04
100 4.1868793110364330e-05 3.3617796789263041e-04 9.6321281251869520e-04
101 -4.9536149749401445e-06 2.2075917629131816e-04 9.9941865165593165e-04
102 -9.0583295439117977e-05 3.2751843229748145e-04 9.6275975019366261e-04
103 1.9585261692598693e-04 9.3920287942908054e-04 -2.4081019115563870e-04
104 -1.1230909360833991e-04 9.5183500632081079e-04 2.4460291108488312e-04
105 -2.4367071776757842e-04 9.3485252328541978e-04 2.0946022762773195e-04
106 -3.5206208546532117e-04 8.8177292256643445e-04 2.7914917234469751e-04
107 -1.5174328356849161e-04 9.0463369916084539e-04 -3.7780211604866991e-04
108 -1.2832039060982087e-04 8.4498725251009471e-04 -5.1227962901587534e-04
109 -3.7632988783308809e-04 9.0049341163016803e-04 1.5191708554566257e-04
110 -2.6104854596833803e-04 8.4529921709439518e-04 -4.5417870540453086e-04
111 -2.3090596584057421e-04 7.7659779840769051e-04 -5.8538429343996871e-04
112 -3.6868471411488678e-04 7.6735801530979097e-04 -5.1863719608017018e-04
113 -3.3849902230871686e-04 6.9266449202600702e-04 -6.4027622913479811e-04
114 -4.6453972565203480e-04 6.7535695175119912e-04 -5.7109322403729626e-04
115 -4.2715736956064142e-04 5.9442540677995541e-04 -6.8795281027670579e-04
116 -4.9523951403776740e-04 7.3826521508585082e-04 -4.4514153882232614e-04
117 -2.8867950070549206e-04 8.9301199440351730e-04 -3.1663157928912638e-04
118 -2.8442391394231794e-04 7.8496401650588593e-04 5.4738443324984826e-04
119 7.0051135894703780e-04 6.6110947680879796e-04 2.2401516487091660e-04
120 -2.9777153266886394e-04 5.9545115957832472e-04 -7.5719300376751091e-04
121 -3.8223043914729698e-04 4.9410123321224340e-04 -7.9406938862998312e-04
122 -5.0512719220368609e-04 4.7585513685254505e-04 -7.2926697517883006e-04
123 -4.5330648342450182e-04 3.7201805008808239e-04 -8.2492396788122642e-04
124 -5.8390481588427041e-04 6.3812563601439384e-04 -4.9365261561559672e-04
125 -6.0846088590852027e-04 6.9501111093982194e-04 -3.6073546196722792e-04
126 -6.9268674987688051e-04 5.8678768448442071e-04 -4.0198823106469720e-04
127 -4.7957246436431696e-04 8.3551982875363642e-04 2.2214491315544082e-04
128 -5.7541427831113033e-04 3.4792240863185933e-04 -7.5064938557334532e-04
129 -5.1676350240693056e-04 2.3792111403211422e-04 -8.3804420484841604e-04
130 -6.3473984770796789e-04 2.2251492006400197e-04 -7.5047423817082865e-04
131 -5.6881782547748986e-04 1.0947765946331440e-04 -8.3045688102662137e-04
132 -6.8551900291656390e-04 9.2083772932951901e-05 -7.3170452675190426e-04
133 -6.1791762138818499e-04 -1.9039437668507293e-05 -7.9969367465702445e-04
134 -7.2648947875518283e-04 -4.1216498287402469e-05 -6.9318478781808291e-04
135 -6.5118239441992254e-04 -1.5026133626007111e-04 -7.5512494822241175e-04
136 -7.8847633103793977e-04 7.6221586435977498e-05 -6.1205546248283872e-04
137 -8.1915275891005293e-04 -6.7332238797692447e-05 -5.6799657856863384e-04
138 -8.6860312567950935e-04 5.3558335734960352e-05 -4.8388560574697226e-04
139 -8.8806921481599898e-04 -9.2805300883368435e-05 -4.3691332275548378e-04
140 -9.2853501714045418e-04 2.0754645618988418e-05 -3.4653680701647279e-04
141 -9.3719361301499555e-04 -1.1584923978302377e-04 -2.9820234801353137e-04
142 -9.6582260426724634e-04 -1.2937860675337359e-05 -2.1083443796210137e-04
143 -9.6373513236753367e-04 -1.4602898046133634e-04 -1.6212085367776097e-04
144 -9.8354776107535094e-04 -4.1018684289574487e-05 -7.6845137593111465e-05
145 -9.7150820375215626e-04 -1.7380573761952277e-04 -2.5674937557822243e-05
146 -9.8389523424371019e-04 -6.1565268015893127e-05 5.3238108699053631e-05
147 -9.6331908215188612e-04 -1.9020017502569889e-04 1.0629495449073674e-04
148 -9.3916382108579649e-04 -3.0353422057977802e-04 2.5457284522670104e-05
149 -9.2373909978637071e-04 -3.1330140749768825e-04 1.5853408691451361e-04
150 -9.3987742631640198e-04 -1.9654436788773977e-04 2.3806874927972453e-04
151 -8.9248673168289521e-04 -3.1545901617003366e-04 2.9115991115729760e-04
152 -8.9728482907443826e-04 -1.9727008768867960e-04 3.7513723719625114e-04
153 -8.4094712967251793e-04 -3.1849504226268008e-04 4.2307669109570696e-04
154 -8.8989052258876583e-04 -2.2127808127558697e-04 -3.7913903929136933e-04
155 -8.3145910269675301e-04 -2.0149986746169151e-04 5.1171057123128186e-04
156 -7.6413011720887804e-04 -3.2873955846775678e-04 5.5249782809055098e-04
157 -8.7907433489603005e-04 -6.8503582239247732e-05 4.6116961792831847e-04
158 -7.4353397507815840e-04 -2.1469042867920722e-04 6.3697181127217526e-04
159 -6.6377938190344482e-04 -3.3640777201935545e-04 6.7465280026228892e-04
160 -9.8467417264696926e-04 6.9776659322953646e-05 4.1648665158198122e-06
161 -6.3906704812383879e-04 -2.1970859421702697e-04 7.4812381964023476e-04
162 -5.5141241776341310e-04 -3.2769961280189216e-04 7.8063373938540152e-04
163 -5.2916640098106982e-04 -1.2084646132045733e-04 -8.5685633086308131e-04
164 -5.5517089138735381e-04 -2.5407509738786880e-04 -8.0627730060988908e-04
165 -7.0978601637906001e-04 6.3457555784429188e-04 -2.6969441174590106e-04
166 -1.4262337434583298e-04 2.2395025263355312e-04 9.8762651210015213e-04
167 -2.2714726990466933e-04 3.1651179589965072e-04 9.4213832606848430e-04
168 -4.2544280663479124e-04 -2.1472665708505603e-04 -8.9846327466620824e-04
169 -4.4045440571555421e-04 -3.4978894823325832e-04 -8.4324157315831139e-04
170 -5.5949049710212015e-04 -3.8539341495436740e-04 -7.4455887469176366e-04
171 -4.4462080360871777e-04 -4.7792478375761134e-04 -7.6995803868857269e-04
172 -5.5804628239878890e-04 -5.1222084517334231e-04 -6.5821657016522860e-04
173 -4.4326026420424183e-04 -5.9699474357139261e-04 -6.7518821714900046e-04
174 -5.4104458264408691e-04 -6.2734838529477505e-04 -5.5813859591625267e-04
175 -4.3024116226460962e-04 -7.0583048356504907e-04 -5.6119626514820214e-04
176 -7.6934997825560446e-04 -4.3018996138028765e-04 4.6160470542132910e-04
177 -5.1962910254956722e-04 -7.2174622732263315e-04 -4.4533396585316368e-04
178 -4.0562057126456108e-04 -7.9602970222253182e-04 -4.3681519089551441e-04
179 -3.1281450103099742e-04 -7.7801414918852194e-04 -5.4156423650438402e-04
180 -2.8040022728602343e-04 -8.5770325656879694e-04 -4.1683418448937710e-04
181 -1.8039241609626945e-04 -8.3078977179141828e-04 -5.2197064066293879e-04
182 -1.4353304242579801e-04 -8.9818391809519556e-04 -3.9994353485901546e-04
183 -4.6358029120062473e-05 -8.5650704621311336e-04 -5.0912199486467737e-04
184 -1.5572065513181840e-05 -9.1767267636169540e-04 -3.7918492561600492e-04
185 -1.0280307559092668e-04 -9.4757541869027189e-04 -2.6933654476909372e-04
186 3.3237303592444614e-05 -9.5847888461082407e-04 -2.4574742430870567e-04
187 -5.6092093408332980e-05 -9.7691127779187502e-04 -1.4107723084376243e-04
188 8.6712771320482859e-05 -9.7732446913453798e-04 -1.2083847480652057e-04
189 -9.3807058908394349e-06 -9.8777645938010849e-04 -1.6581949882300863e-05
190 1.2885639985836872e-04 -9.7956006812971257e-04 9.3886265795136706e-06
191 2.9608594821278697e-05 -9.8190067717088638e-04 1.0935072525093360e-04
192 1.6425649991059417e-04 -9.6549048333856226e-04 1.3587002125623753e-04
193 6.5711758524086622e-05 -9.5983706605927031e-04 2.3352175643562146e-04
194 2.1977517435208021e-04 -9.5916896518855206e-04 -9.0802702832453683e-05
195 1.9937006397974596e-04 -9.3460060384717436e-04 2.6080409307006869e-04
196 9.7072335895216191e-05 -9.1844256418833190e-04 3.6447725657952676e-04
197 1.0829342635456098e-04 -8.6990366183467560e-04 -4.7465899879601669e-04
198 -9.7164270057166889e-05 -9.8005107358648436e-04 7.7898292396597906e-05
199 2.3331954001630807e-04 -8.8399844082138210e-04 3.8897095513855786e-04
200 3.3244457870887953e-04 -8.8946987598149897e-04 2.8384345966167329e-04
201 3.6173127057509533e-04 -8.2883029711965409e-04 4.1325946494747068e-04
202 1.2956447524161593e-04 -8.5612290740504202e-04 4.9411856701095749e-04
203 4.5494501265379820e-04 -8.2713245973903380e-04 3.0315631629857263e-04
204 -4.8244484187527700e-06 -8.8283275006089507e-04 4.6057438417878010e-04
205 2.9405011645194012e-05 -8.0745056214823706e-04 5.9060378205836510e-04
206 -8.8952072434236688e-04 -4.2272491713926099e-04 7.3474934375612169e-05
207 -8.7168103343783959e-05 -7.7441370695430949e-04 -6.3126680989349657e-04
208 -1.0462633150473463e-04 -8.2568322043758303e-04 5.5292266756044460e-04
209 -7.1205891504939661e-05 -7.3808408850671180e-04 6.7835869559375621e-04
210 4.8176541485877287e-04 -7.5662794536253018e-04 4.3008097197879736e-04
211 5.6706426272864889e-04 -7.5136391160675320e-04 3.1142381491004663e-04
212 -4.9005365747693873e-04 -7.9877688429171002e-04 -3.2286372768582935e-04
213 5.7596453560831961e-05 -7.1284163608504149e-04 7.0822429190910878e-04
214 -3.9527171015958640e-05 -6.3292622301301617e-04 7.8718121600700631e-04
215 -3.1599066615874334e-04 -3.0254607146043322e-04 -9.1966216457271713e-04
216 -2.0401387783727351e-04 -7.4982618205162517e-04 6.3379251222755485e-04
217 -2.3618488480070060e-04 -8.2888819271604620e-04 5.0135370789853846e-04
218 5.4075218339329201e-04 -8.0646764612428098e-04 1.9096373596198501e-04
219 6.5369425835016507e-04 -7.1342053941932679e-04 2.0899931072217292e-04
220 6.1645596444469871e-04 -7.6804645143314487e-04 8.5712761068640071e-05
221 -6.2586088076767169e-04 -6.3805035360502745e-04 -4.3545523719842172e-04
222 7.1696701036490977e-04 -6.7289911634294951e-04 1.0422573323582491e-04
223 6.7904149355140907e-04 -7.1760472532577237e-04 -2.4812226737928843e-05
224 -2.9331418913040977e-04 -1.6516958520247364e-04 -9.6426291233725134e-04
225 -9.5135051272446120e-04 1.1117057189208097e-04 -2.4616702088688650e-04
226 8.2592649805520872e-05 -5.9838015698045514e-04 8.1245611615175350e-04
227 -7.7568898453826629e-06 -5.1217702945752697e-04 8.7781152117057495e-04
228 -5.2444310626315451e-04 -1.9864225525812932e-04 8.4475570646694472e-04
229 -5.9787111512641365e-04 -9.7549715194715595e-05 8.0985850397315715e-04
230 6.6728085752857443e-04 -6.5145976195257846e-04 3.3871078907554312e-04
231 3.9110450023916089e-04 -7.5068106314818330e-04 5.2905107208871033e-04
232 5.1646008226997387e-04 -6.5887925208086889e-04 5.4659113831096178e-04
233 7.6638322205422693e-04 -6.2351612748037832e-04 -1.6254550405066841e-05
234 7.2746416728098695e-04 -6.5497898070523324e-04 -1.3961201632322582e-04
235 -3.9097357442316347e-04 2.5933387929855123e-04 -9.0208340954375647e-04
236 2.9485824312164250e-04 3.3932355939475100e-04 9.1335187403354570e-04
237 -4.3572207784097725e-04 -3.0018412627316174e-04 8.6687352422772622e-04
238 -8.3561298139015654e-04 1.9761352268508070e-04 -5.0706070182780414e-04
239 6.3477842958144758e-04 -7.4341416597941811e-04 -1.4979823998184132e-04
240 6.7433618316047061e-04 -6.7388222684312078e-04 -2.6945301618958999e-04
241 -5.7836855285291091e-04 -4.3953608038210806e-04 6.9549469537737423e-04
242 5.6998716753603549e-04 -7.6294929816870367e-04 -2.7325350298533377e-04
243 6.0287185623172077e-04 -6.8363522163302740e-04 -3.9582628085183777e-04
244 7.0372286935144798e-04 -5.8873310721577134e-04 -3.8045111011568547e-04
245 6.2418482355849339e-04 -5.8993889599528060e-04 -5.0712687780372684e-04
246 -1.9116915012918432e-04 -2.5282771101639979e-04 -9.7142175169656240e-04
247 8.0414283921122036e-04 -5.6567928335844058e-04 1.0340839429795893e-04
248 2.3342043967703417e-04 4.4648314876465187e-04 8.8211382547272437e-04
249 -3.9642676636245279e-04 -1.5745047355910852e-04 9.2557741773187808e-04
250 3.6192787237257170e-04 4.3814569915848287e-04 8.3888532500790572e-04
251 -2.2109993795789030e-04 -3.6480932410763760e-04 -9.2513234058918712e-04
252 -9.2985059171149160e-05 -3.3640930621150350e-04 -9.5963881167826720e-04
253 3.7274348437546479e-04 9.0313968791379360e-04 1.4708201405782366e-04
254 -6.1739565992495135e-04 7.3737200342668973e-04 -2.2971760842590032e-04
255 -7.0815918733050298e-04 6.7374501526144771e-04 -1.4075712989790602e-04
256 -7.9113938820904548e-04 5.6609442449326167e-04 -1.7259443847385261e-04
257 -7.7795733487186734e-04 6.0572077445915492e-04 -4.2824476367285687e-05
258 -2.8962016975902036e-05 4.3816326362013292e-04 9.1836085243426457e-04
259 -3.0801522231020163e-04 -2.3946473382949155e-04 9.4277008570238323e-04
260 -2.7651929378536087e-04 2.0695911420917209e-04 9.6069445424383818e-04
261 -3.5845607568961007e-04 3.1068182952295715e-04 8.9931921513066240e-04
262 -2.6904040612199488e-04 -1.1177233414066724e-04 9.8023990454338327e-04
263 -1.7586079130605664e-04 -1.8554553863066932e-04 9.9115204217727505e-04
264 -8.5295316278269568e-04 4.9086540038294137e-04 -7.7891597791406413e-05
265 -8.2735382471959640e-04 5.3560215619917917e-04 5.2570653311098281e-05
266 -3.3915798712619218e-04 -7.4778993181844262e-04 5.7042219272274240e-04
267 -3.6790890085223083e-04 -8.1522079772106473e-04 4.3493066003712178e-04
268 5.1091816817706241e-04 -6.8410487062868226e-04 -5.1618345149950903e-04
269 5.2189728899010150e-04 -5.8111382790488762e-04 -6.2848172872486589e-04
270 6.3501777678212157e-04 -4.8084903504967723e-04 -6.0711871146426827e-04
271 5.2027254991979645e-04 -4.6541858435767368e-04 -7.2637130930960285e-04
272 4.0150293291202777e-04 -5.5827232413822479e-04 -7.3700702750235242e-04
273 -3.0493614809018688e-04 4.1784583664623137e-04 8.7322359783868579e-04
274 -4.3423515314511491e-04 4.1491265606652590e-04 8.1363563546983403e-04
275 3.9505545658063404e-04 -4.3619403005064502e-04 -8.2441269004806758e-04
276 2.8162806264902428e-04 -5.2579372608499767e-04 -8.1820568924235494e-04
277 -3.3580138760829333e-04 -3.7441185380917750e-04 8.8326522544047406e-04
278 -1.2650541410781399e-04 9.7097152188624890e-04 1.2878569744673586e-04
279 8.0466980749341961e-04 -5.5932478607108869e-04 -1.2882939766215349e-04
280 -2.4043602833657428e-04 4.7928143759783787e-04 -8.6102948982071114e-04
281 -1.5041040089963767e-04 5.7670284938581169e-04 -8.1753674905533978e-04
282 8.5887527249589796e-04 4.8877815756649906e-04 2.3280332586125172e-05
283 1.1703634425176317e-04 -4.6744978457998073e-04 8.9619413121498257e-04
284 -9.7846297376459764e-04 5.0524622625941547e-05 1.2292879544443752e-04
285 -8.9846432195729120e-04 -4.0448033581464695e-04 -6.5695367689937092e-05
286 -8.3934787702666543e-04 -5.1993781536514079e-04 -1.8752577969038866e-05
287 -8.2497175494579357e-04 -5.3099586923191109e-04 1.1678969940025469e-04
288 -7.6152770093767272e-04 -6.2832798362872635e-04 2.6710533522581817e-05
289 -7.4090198915800277e-04 -6.3535711440089915e-04 1.5642567877794468e-04
290 -6.6822381963232654e-04 -7.2404548295706159e-04 6.9753661054170084e-05
291 -1.9710841448059154e-04 -9.5549285695226951e-04 -1.6122973881646085e-04
292 -2.6860361396770238e-04 -8.8237929229257922e-04 3.6724475239071323e-04
293 -3.3919752879490306e-04 -5.5314480499101914e-04 -7.7381054331879695e-04
294 -9.8872422930476689e-05 -4.7389258324599030e-04 -8.9511740992247234e-04
295 -4.9097786676627233e-04 3.0296909930131364e-04 8.3213836806121785e-04
296 -5.5911694070255775e-04 4.0322340589304359e-04 7.3374456056141178e-04
297 -8.6154030809877614e-04 4.4042350083349659e-04 -2.0253756505776902e-04
298 -6.1753822914112702e-04 2.7058173914049310e-04 7.4912271700948647e-04
299 -6.7409858098192786e-04 3.7420962403194056e-04 6.3996868480373920e-04
300 -6.0882142871442871e-04 4.9784814433851494e-04 6.1929666485280603e-04
301 -7.1744161459799151e-04 4.6108951501330926e-04 5.1572885291262369e-04
302 -7.7427605741281263e-04 3.3546593041644264e-04 5.3139300879977310e-04
303 -3.0556229949650436e-04 -6.6042368376380083e-04 6.9421607153103608e-04
304 -6.3734507945960978e-04 5.8860783928290966e-04 4.8879891759875645e-04
305 -8.0385530177816411e-04 4.1470241739410753e-04 4.0989936000584255e-04
306 2.0599904132841430e-04 -5.5321532293384386e-04 8.2320971920079461e-04
307 2.4146330845513820e-04 -4.2704407153670892e-04 8.9103765003282500e-04
308 3.4588746751312101e-04 -5.0195087642768230e-04 8.0804771294032526e-04
309 -4.5596907220728542e-04 -7.3514694825428043e-04 4.9400608154497180e-04
310 -8.5524517618859358e-04 2.8012028970967153e-04 4.2045645773147852e-04
311 -4.0085098971274602e-04 -8.5607759611867635e-04 2.9765711178015599e-04
312 -7.5436490508828968e-04 6.3151103625105963e-04 7.8838781937705794e-05
313 -8.4093184572454503e-04 -4.9580903372347263e-04 -1.5390583931012257e-04
314 -7.4271688486036663e-05 1.1920627624936233e-04 1.0152643550309854e-03
315 -8.7846620269090817e-04 3.5028550447403827e-04 2.9424720225741582e-04
316 -9.6637321601555925e-04 1.8285763837798971e-04 8.5671051299904469e-05
317 -1.0558507757740331e-04 7.6900976685364902e-04 -6.3274738688036153e-04
318 2.7208949955119489e-04 -3.9821007190734637e-04 -8.9546502640425174e-04
319 -6.8294788204072024e-04 -7.1074241197329542e-04 -6.4108949725939158e-05
320 -5.9662594180100268e-04 -7.8665708581018064e-04 -6.1760153768523037e-06
321 -6.6325488936655442e-04 -4.1223080761621455e-04 -6.2770045306489205e-04
322 -5.8154133359524520e-05 -2.1784483703276726e-04 -9.9841890952574513e-04
323 5.0716791604841322e-04 -8.4515955654439526e-04 7.4172706112557647e-05
324 -6.1206842831057690e-04 7.6802614254567610e-04 -9.9502004709224625e-05
325 2.8899185838652196e-04 5.4581864805950016e-04 8.0015453585866297e-04
326 2.7786322214702017e-04 -6.4300897297284209e-04 -7.2374564247291594e-04
327 1.5617354767053491e-04 -6.0556712293774202e-04 -7.9464669590478050e-04
328 4.2598159325674015e-04 5.3686513379318397e-04 7.3836816814762223e-04
329 4.8928194540449432e-04 4.1935092416985466e-04 7.7728725348204426e-04
330 4.4979653205777493e-04 4.4760168355982403e-04 -7.8497998536865320e-04
331 8.6308389188005981e-06 9.7431752108519413e-04 1.6334047217555749e-04
332 -1.3457286522611969e-05 9.8605227488479381e-04 4.1720923406098310e-05
333 -1.5026338114414213e-04 9.7538146663657453e-04 3.9145135081444943e-06
334 1.1752505262635767e-04 9.7693031594362606e-04 7.9984327024248080e-05
335 3.6547498741330804e-04 -3.6354267662854818e-04 8.7571432060602826e-04
336 4.6299546127599424e-04 -4.3058451192990463e-04 7.8860335062646279e-04
337 -8.1404817340348498e-04 2.1063340896292228e-04 5.3605346264939729e-04
338 -3.5909481253229098e-04 5.2307958465835978e-04 7.8513965005549361e-04
339 -1.1345286630071237e-04 4.6168515020424421e-04 -8.9846959423330248e-04
340 3.6802261187008728e-04 -3.0229521131905487e-04 -8.9896272266384294e-04
341 1.7185063519008496e-05 -2.8707870759254762e-04 -9.8138213395791447e-04
342 -9.2019244575935566e-04 3.4660015741897729e-04 -9.8561492800978973e-05
343 1.9091070104115066e-05 -3.8477665919043594e-04 9.4523319386638027e-04
344 -5.2293301549345261e-04 6.1332338146315526e-04 5.9154427219990059e-04
345 -5.3413148289132174e-04 7.0559108234010423e-04 4.5566464900011102e-04
346 -6.5194842616828703e-04 6.5810112955161284e-04 3.5336560346312774e-04
347 6.1601373157883972e-04 -3.6571922331180836e-04 -7.0672460173684757e-04
348 7.2437837396677088e-04 -3.7159537791760233e-04 -5.8137478920587834e-04
349 5.4557546452400603e-04 5.2049964969251409e-04 6.6203781445299699e-04
350 6.0769412760308021e-04 4.0104069963580472e-04 6.9266920022571408e-04
351 6.5817629310862982e-04 4.8900990492768237e-04 5.7126208392747880e-04
352 7.1358962123349036e-04 3.5683876941620864e-04 6.0436565519748583e-04
353 7.5153119017274663e-04 4.4749252596582191e-04 4.7632121915854118e-04
354 -6.3771773084176427e-04 -7.2899455799308778e-04 2.0021753845560878e-04
355 2.6215490185186626e-04 5.5820057718043953e-04 -8.0019974889575555e-04
356 1.4069195915863435e-04 5.6523728917147746e-04 -8.2770150360093962e-04
357 -6.7855887860598387e-04 3.2407076724127109e-04 -6.6365791411816854e-04
358 5.2386925411594784e-04 -8.2487480032997446e-04 -1.5199965535862679e-04
359 4.4903275523580280e-04 -8.4048124089289202e-04 -2.7086019638996646e-04
360 -8.1745034155016668e-04 4.8402388449470896e-04 2.7763380641473978e-04
361 -1.2914709167796904e-04 -5.3689025635780818e-04 8.5110302650267817e-04
362 -1.9262228275938027e-04 3.5809237607909615e-04 -9.3426007451576597e-04
363 -2.3577515487643860e-04 5.2081798356114846e-04 8.3542511470016873e-04
364 -5.1611098438701295e-04 8.2311659178124818e-04 -1.7968566952563687e-04
365 1.6501006822301209e-04 5.5203944053236378e-04 8.3279717788102428e-04
366 -3.7215506320607968e-04 -2.9659783052125544e-05 9.4964772843822507e-04
367 -6.9834935719445090e-04 -6.3894233010851125e-04 2.9232648226264386e-04
368 2.1331746096734102e-04 6.7288126397667609e-04 7.1795344997147004e-04
369 8.2706768161460348e-05 6.3886524079298122e-04 7.7582720664136524e-04
370 7.0204890481795682e-04 -2.5386424858911416e-04 -6.7211728159250687e-04
371 -5.4157096304821876e-04 1.6650761051663910e-04 8.4001477642795615e-04
372 -6.6244347254235353e-04 1.3593999575615859e-04 7.4797291714110683e-04
373 5.4802809638675295e-04 8.1971520841605465e-04 -5.1274750807256357e-05
374 -1.5384137845494029e-04 -7.1497256061754709e-05 1.0106678592024041e-03
375 -3.8877117021427427e-05 -1.6422460077648344e-04 1.0108792078295525e-03
376 -2.9994228485039082e-04 -9.1485581533752916e-04 2.3001533308556610e-04
377 -4.2867669233507367e-04 -8.7736428990736639e-04 1.5928387897928286e-04
378 -9.2156897181953261e-04 1.9177627993712285e-04 3.1076567642923273e-04
379 4.2746906563781120e-04 6.6078340510076312e-04 -6.1959879463978709e-04
380 1.5458983600813640e-04 -7.1491618966364255e-04 -6.8970345621198849e-04
381 2.8006658876178221e-04 -7.4324573774379522e-04 -6.0982026608260578e-04
382 -8.9258172147139937e-04 -3.7545273766657113e-04 -1.9944143467321711e-04
383 -8.2670243699629604e-04 -4.6600572075126127e-04 -2.8224856047230244e-04
384 -7.6299997890972443e-04 -5.8203443841923596e-04 -2.4144542990244921e-04
385 -1.6505223063588580e-04 -9.3426405669786480e-04 2.8600857188575281e-04
386 -6.5988758628790674e-04 5.2524467532360922e-04 -5.3226229374365801e-04
387 -7.5815133784419174e-04 4.7269818672247003e-04 -4.3516487945862071e-04
388 8.7413701497837291e-04 2.4588255902519192e-04 -4.0309170239191796e-04
389 -9.0396425858271779e-04 3.2375010423407556e-04 -2.3658049035395163e-04
390 -5.0705072449431111e-04 8.4550946517049223e-04 -4.4229168872577136e-05
391 -4.0345027230785283e-04 8.9327179265423940e-04 -1.1931221150108748e-04
392 -6.0103745602827678e-04 7.8179269352414730e-04 3.1074011227126882e-05
393 -5.8743308453369834e-04 -7.8441529603306840e-04 -1.2612436840810486e-04
394 -4.9685536383187103e-04 -8.5103514587160189e-04 -6.1863558831618350e-05
395 9.2159629088510840e-05 9.8151032650205098e-04 -4.7109310612481461e-05
396 2.2530118888119423e-04 9.6089290636402862e-04 -1.1191814420104971e-05
397 5.2699401658605949e-04 3.2486433914284625e-04 -7.9909206079488220e-04
398 2.5652535464672059e-04 -2.9724413421580237e-04 9.4160518668329803e-04
399 3.7836008256639188e-04 -2.2367086694775624e-04 9.1955096829020831e-04
400 -2.8878298939327804e-04 6.0863754967551873e-04 7.4875071944966430e-04
401 -1.6922729833711972e-04 6.1855905963582706e-04 7.7794764165828442e-04
402 3.1388045456221079e-04 -6.1768948235205569e-04 7.3167506834881477e-04
403 6.6218941777543554e-04 2.7127371405709762e-04 7.0664408798193910e-04
404 6.6745173556266395e-04 5.9015306532332319e-04 4.4423252052021458e-04
405 -3.1162213252010004e-04 -9.3250963504223406e-04 9.8573467979529267e-05
406 2.3286528970778742e-04 -2.6334043132356674e-04 -9.5839382989085448e-04
407 3.3734001925579861e-04 -1.8186543181516931e-04 -9.4518112118894496e-04
408 9.3368857449605545e-05 4.6146409760044240e-04 -9.0085358920809146e-04
409 -8.7958575805485728e-04 4.2352137798386545e-04 1.5769840224251797e-04
410 -4.5099085612674525e-04 8.0838271140879717e-04 3.5506410884385167e-04
411 5.5894710489770387e-04 4.2224081050321353e-04 -7.2096625419890365e-04
412 4.6531526944899079e-04 6.5284209520516878e-04 5.9989871117433781e-04
413 8.1140888147128367e-04 2.9067967391506287e-04 5.0112258364538138e-04
414 8.3422907597215535e-04 3.8823413918162499e-04 3.7207307168809768e-04
415 5.1065585439412565e-05 -1.3770651806678668e-04 -1.0140422360214829e-03
416 -9.6436890923473281e-04 2.0746659994526454e-04 -4.2066862312553373e-05
417 -6.1440659012023318e-05 3.4298808502888814e-04 -9.5886298012977226e-04
418 -1.2376110005908454e-04 2.2687385117236208e-04 -9.8951152836369957e-04
419 5.8028650369876702e-05 1.6759358048822661e-04 -1.0077119364462978e-03
420 -7.0622582048905888e-05 -8.5943588146292479e-05 -1.0187111401245891e-03
421 -9.3585098825004398e-04 3.1063472164626294e-04 4.9281286085835602e-05
422 8.0035952267836830e-04 -2.5186590006816983e-04 -5.4170248977590746e-04
423 8.0851780249927485e-04 -3.6967799908352056e-04 -4.4753321765616714e-04
424 2.5299495626393228e-04 9.4715695446726618e-04 1.1974032825741893e-04
425 3.2758668392342782e-05 -6.8395963973587315e-04 -7.4079283309597945e-04
426 2.3876555776644263e-05 -5.4869867395577890e-04 -8.5327238760867657e-04
427 -8.4806796925687483e-05 -5.9407141593227207e-04 -8.1450954624701544e-04
428 4.1005423118481280e-04 -8.8553688639674021e-04 -1.5898744644959515e-04
429 3.2759286922369961e-04 -8.9572439606224624e-04 -2.6722619037217882e-04
430 3.6371443321854151e-04 -8.4090952704955280e-04 -3.8371444159519450e-04
431 -6.0184400588526258e-04 -7.1791950760134629e-04 3.2362260758742587e-04
432 -6.4286005364260672e-04 -6.2243171756841496e-04 4.3475875799169105e-04
433 1.4072694157773677e-04 -3.5428746697930365e-04 -9.4632572735404573e-04
434 -7.4913174280409531e-06 5.6426244629224952e-04 -8.4219405172980023e-04
435 7.3544696394535895e-05 6.6986426663854224e-04 -7.4924949900311596e-04
436 8.8071787226776522e-04 2.4589695902242317e-04 3.8733870671937333e-04
437 8.9683176190713954e-04 3.2671286356277738e-04 2.6278412035602718e-04
438 8.4926110285820549e-04 4.4499324823669170e-04 2.4418849107960108e-04
439 7.6264954843531475e-04 2.1379088814515147e-04 6.1305118014801519e-04
440 -5.7901636939058888e-04 7.4728581601831269e-04 2.9499142333460715e-04
441 -6.9424636655549281e-04 6.7198928923671596e-04 2.1165461310769274e-04
442 6.8556071017349270e-04 -1.1833820178627011e-04 7.2890765490532332e-04
443 7.2231561710898453e-04 -2.4062259441342605e-04 6.5431330444965647e-04
444 8.1840135423029588e-04 -2.4080971313585503e-04 5.1769629549249061e-04
445 7.5012081566342846e-04 -3.6103107385332444e-04 5.5247988899099695e-04
446 8.2288864681060662e-04 -3.6426240189806725e-04 4.2347845778032474e-04
447 7.4632672148282179e-04 -4.6884245317724190e-04 4.6337037849833554e-04
448 6.6925665936462303e-04 -4.6688835559259394e-04 5.7819195760580166e-04
449 8.0771569494683107e-04 -4.7231363614024056e-04 3.2953083605495495e-04
450 8.7560074611919511e-04 -3.5892372863617053e-04 2.9488521658915155e-04
451 6.4560372986588281e-04 -5.8712310594676877e-04 4.8242500763593125e-04
452 6.7615083102352087e-04 1.3298393501909853e-04 7.3599308079329230e-04
453 -5.6835579249867193e-04 -7.9919446551806727e-04 1.2081335123418914e-04
454 2.5780763569229493e-05 -4.2159131192267912e-04 -9.2764022949071666e-04
455 9.0134203667591227e-04 3.8201383439702321e-04 1.3549095679651243e-04
456 4.5376161489117157e-04 -2.1762630892440952e-04 -8.8291416165681743e-04
457 4.9999268846211955e-04 5.3928425712706824e-04 -6.8345212567355769e-04
458 6.0910451416017902e-04 -2.4379160216249989e-04 7.6819193388804230e-04
459 1.4594928400056190e-04 9.5497951758754304e-04 2.1011896389606195e-04
460 6.1928827915450904e-04 6.9958768425556356e-04 3.3151610865808173e-04
461 3.8779663118827015e-04 5.6236978233983187e-04 -7.3959299789302805e-04
462 -4.1871571781988036e-04 7.0654543964195635e-04 5.6780772088567302e-04
463 7.8119194913649529e-04 -1.3421216813574600e-04 -6.1240458725714427e-04
464 8.7241222754926191e-04 -2.4659125190303082e-04 -4.0757862696359114e-04
465 8.6960543440627481e-04 -3.6255859055811155e-04 -3.0891963447422880e-04
466 1.1295547841534598e-05 8.2991309593506962e-04 -5.5422247922374038e-04
467 9.2162673334013031e-04 -2.4135086572783210e-04 -2.7107058054986322e-04
468 9.1068229442511678e-04 -3.4813125625644689e-04 -1.6888611097128957e-04
469 1.5090435123248536e-04 3.4908489172506889e-04 -9.4592586842686982e-04
470 8.4521921982255743e-04 -4.7178639754172851e-04 2.0625273186711409e-04
471 9.0961677442919625e-04 -3.4528111746668353e-04 1.7775173083439701e-04
472 1.9618423148017812e-04 7.7486545888981212e-04 6.0170165950580268e-04
473 1.3494347731944585e-04 -2.2359876088971054e-04 -9.8889974287508339e-04
474 2.2725406896883385e-04 -8.9439401903620096e-04 -3.6610943912815754e-04
475 5.6859445479624424e-04 7.6415228530456441e-04 -2.6914189256902192e-04
476 3.1486866360304035e-04 7.1994024334205665e-04 6.2046023186763271e-04
477 2.9004472185602584e-04 7.3250155404831969e-04 -6.1760045477461255e-04
478 -1.9127226175263539e-04 -5.6404937698660606e-04 -8.1758039745785801e-04
479 -1.8384710590256019e-04 -6.7854200211884814e-04 -7.2040566873806365e-04
480 -3.9442385313167644e-04 8.2475997681259153e-04 -3.8597826483567497e-04
481 1.9456503263565021e-04 6.6371580060623132e-04 -7.3121051168761203e-04
482 7.5357169286952442e-04 -5.9959182692775252e-04 2.3382126970254783e-04
483 8.7874957219531290e-04 -4.4325569514324980e-04 8.8595933440997093e-05
484 9.3251131407119615e-04 -3.1938858763407420e-04 6.4604651569720412e-05
485 5.7966916419516820e-04 -2.4403783110423600e-04 -7.9143284489471789e-04
486 4.0156089259084631e-04 1.5019891573630299e-04 -9.2347449606651781e-04
487 9.7706282748380642e-04 1.2710853850789132e-04 -7.3846130990175816e-05
488 9.4546551528971155e-04 2.6491949458190507e-04 -1.1818876092390405e-04
489 9.6001128481785938e-04 2.2925473593831465e-04 1.1110253043652144e-05
490 8.9281086778574058e-04 4.1417361178914928e-04 -8.6271362090773558e-05
491 3.4233530016524149e-04 9.2581552334624966e-04 1.7763473136880721e-05
492 3.1370046565383107e-04 9.2841178761935079e-04 -1.2769101172853812e-04
493 4.3476591434156279e-04 8.8331567135056170e-04 -7.4066433508080838e-05
494 9.0522794660959831e-04 -3.9422605595418819e-04 -2.9728053436381863e-05
495 9.4556003543760675e-04 -2.7964818994016051e-04 -5.9846342180758022e-05
496 -3.9161249277078197e-04 9.0569559003459191e-04 1.9514528864158237e-05
497 9.7699364175792371e-04 1.2916194150054867e-04 7.0124226295340886e-05
498 6.7768042911270951e-04 6.7558368508993335e-04 -2.5222873382792563e-04
499 9.7827131142287876e-04 -1.2534851135092762e-04 -6.8417606098407214e-05
500 9.6097987704615796e-04 -1.0900906499873315e-04 2.0880822040757720e-04
501 9.2171646290673957e-04 -1.1871198007958373e-04 -3.4782100525951402e-04
502 8.6526752846484065e-04 1.2283574825757091e-04 -4.7790652448298260e-04
503 8.7023697818363742e-04 -1.1396589343536272e-04 4.7116622571397005e-04
504 4.3483420493586829e-04 1.0885396635314232e-04 9.1412749615471154e-04
505 4.2248673848518931e-04 3.2087129900708854e-04 8.6521008336276053e-04
506 6.5546665512497657e-04 -3.5194332156014983e-04 6.7499302123942562e-04
507 3.2980469992606524e-04 -1.2521430711560555e-04 9.5822587142730450e-04
508 8.5197034703739818e-05 -1.2287449763890654e-04 1.0144475128504409e-03
509 1.5029784827886992e-04 -2.2915566390019506e-04 9.8555761656828663e-04
510 2.5968728939383283e-04 -2.0566079614170620e-04 9.6568025101496100e-04
511 -1.9874627559545089e-04 6.8692800429034657e-04 -7.0669774762220161e-04
512 2.7566760507771981e-04 9.1821954719824804e-04 2.4423540496268490e-04
513 5.7980147427519129e-04 -7.9958929580510271e-04 -3.3991245945309657e-05
514 2.6461244579558416e-04 -9.5127059546309381e-04 3.7076822568953112e-05
515 2.9843432033311749e-04 -9.2943620564880924e-04 1.5910764713248315e-04
516 -5.4599757753420882e-04 5.6762766188324853e-04 -6.1795915757148522e-04
517 7.6361558772888838e-04 -5.7858454424401589e-04 -2.5046148646202794e-04
518 -1.4402135182275361e-04 -9.7635918898877027e-04 -4.2670978366778871e-05
519 -2.8286828687571055e-04 -9.4595003502912585e-04 -4.5322047848029247e-05
520 -3.2681631395482488e-04 -9.1540918397307403e-04 -1.8241903931826220e-04
521 -7.8528836140724818e-04 5.2138603811201386e-04 -3.0360971672656957e-04
522 -9.7562075609188882e-04 9.1807334241180628e-05 -1.2290371979348648e-04
523 7.7693383689312321e-04 5.9856174192649523e-04 1.1791443561262058e-04
524 -7.9471424069778882e-04 -5.3525982049924749e-04 2.4800649310707817e-04
525 7.7628560095307564e-04 5.0640473734551484e-04 3.5303772785670568e-04
526 4.8950973446502608e-04 -7.7011264223794955e-04 -3.9320751282466573e-04
527 -9.4078929117496558e-04 -2.7918345123736753e-04 -1.1178535725260330e-04
528 -9.3678813958811486e-04 -7.1609686981820428e-05 3.1447926023017535e-04
529 -9.1209674327614087e-04 5.2388333701310807e-05 3.8807975922839792e-04
530 -8.3889642864171923e-04 5.3264404092016925e-05 5.3861065810904645e-04
531 -7.6588557073137612e-04 -6.1461466110294689e-04 -1.0952872672402781e-04
532 -9.6878122330991781e-04 -7.1951433684109433e-05 1.8180999919754632e-04
533 -7.3465332721746259e-04 5.4122815317770396e-04 3.8997282859799869e-04
534 -6.9519932412528550e-04 6.9980315675780144e-04 -1.8539472292379328e-05
535 -2.4336423581619788e-04 -9.1568132507081077e-04 -2.8994825704015245e-04
536 6.2338356402750865e-04 7.5233288712993178e-04 -1.4695990051560238e-04
537 -1.3708422763534836e-04 -8.9086474710474049e-04 4.1999313134048381e-04
538 -3.8662932746221030e-05 9.8305340405850932e-04 -7.9744729474445748e-05
539 -1.7779534547935781e-04 9.4016883705077972e-04 -2.4966464354070041e-04
540 6.1632916922569348e-05 9.6861751895666514e-04 -1.8900036060867526e-04
541 -9.2941936987296593e-04 2.8118341036422411e-04 1.8405946887846376e-04
542 -8.6806913098947758e-04 -4.2699084909862234e-04 2.0523863338418806e-04
543 -7.9891207181845649e-04 -8.1455038888526377e-05 5.9652204729259935e-04
544 -7.4958190382112355e-04 1.7269198881600171e-05 6.6674723934890179e-04
545 -6.5546123031072522e-04 -5.2943048635202832e-04 -5.3482409061635420e-04
546 -7.4693247511700494e-04 -4.2312601177521428e-04 -5.0614677268684763e-04
547 -7.5566637314220431e-04 -2.9750952963923812e-04 -5.8301212497084817e-04
548 -6.6243546403898655e-04 -2.7981092333798400e-04 -7.0294615594681620e-04
549 2.6191687828912307e-04 -8.1300303810499157e-04 5.1555672941211146e-04
550 5.8389611765528198e-04 6.0209612737154407e-04 5.3971936649571456e-04
551 8.6656053397840441e-04 3.6061142954108889e-04 -3.1784526000831173e-04
552 8.8480900958500571e-04 -2.3913040776670912e-04 3.8309365919262018e-04
553 1.6039275654405194e-04 -7.7293717124637322e-04 6.1705303525671736e-04
554 -4.4200996011645817e-04 -6.4695541132845161e-04 6.2600393706929085e-04
555 -3.8357497498252112e-04 -5.5914041218222093e-04 7.4607798076727343e-04
556 -8.2812396605332951e-04 -4.2885563901798773e-04 3.3653730365337358e-04
557 -5.9873371361350005e-04 -7.1562798376746477e-04 -3.3456711161704625e-04
558 -7.2138028208142786e-04 2.4688088660032240e-04 6.5080395229343664e-04
559 -6.8052470099656554e-04 -4.4254053472360692e-04 5.8403908603671666e-04
560 -5.8937238728528447e-04 -5.6023001148830629e-04 5.8349632345013243e-04
561 6.3007268131462068e-04 4.8283280579478039e-04 -6.1069179389994439e-04
562 -3.2452897802544761e-04 -6.8120528715355727e-04 -6.6233194122932609e-04
563 -4.8696367723488843e-04 5.1547289786076501e-04 7.1295450757239819e-04
564 7.2629946259629896e-04 -4.8354591418888604e-04 -4.8122644013798901e-04
565 -8.5838532364321965e-05 -2.8496548935455734e-04 9.7847861770395794e-04
566 -1.0539732987252824e-04 -4.1311410201317169e-04 9.2588035498766548e-04
567 -2.0800464645663781e-04 -3.2647413147515427e-04 9.4417806597391768e-04
568 -1.6788183841143114e-04 -6.5334876419227217e-04 7.4995151145407755e-04
569 3.9992928590232789e-04 -6.7045515469483803e-04 -6.2888236698577249e-04
570 -7.0751217422808301e-04 -1.0371196730753523e-04 7.0688259314394492e-04
571 5.4320664353671542e-04 3.1541623730497071e-04 7.9128337517987582e-04
572 4.9423294647484820e-04 -3.4276640866843123e-04 -8.1418570794178835e-04
573 1.3733720161249988e-04 -3.4473850248939827e-04 9.5107778503903252e-04
574 -7.4000229748808258e-04 1.9610709286958572e-04 -6.4705914157025862e-04
575 1.5472037620525140e-04 -4.7805473415055339e-04 -8.8358991638530005e-04
576 -4.4838397705957280e-04 -4.2560966464442649e-04 8.0150796446532284e-04
577 -3.2839086317452623e-04 3.7688589176231425e-04 -8.8428458885968014e-04
578 -2.6554207146424350e-04 2.4744579470612551e-04 -9.5354753282691173e-04
579 -3.2623910301036963e-04 1.6157052313070153e-04 -9.5288307784671905e-04
580 -4.9301829219516066e-04 8.7029890455383575e-06 -8.8845615293738046e-04
581 4.5512103144540651e-04 -5.6014435068134545e-04 7.0234968523126583e-04
582 4.7764125006642504e-04 -2.9690267959388766e-04 8.4369351898674015e-04
583 -4.4578005703713495e-04 1.3586053743115474e-04 -9.0395898403067764e-04
584 -4.1269574600902390e-04 1.9785901698806616e-04 9.0873128214409256e-04
585 -4.5634263405603152e-04 6.0855967573867279e-05 9.0742434347766362e-04
586 -3.3692156187092463e-04 -4.2892907865268233e-04 -8.5499787001345963e-04
587 2.9001209315907623e-05 9.4517159649093712e-04 2.9347436641660805e-04
588 -4.0106732911802077e-04 -7.6889984082497391e-05 -9.3377146894448938e-04
589 -2.7204030239363729e-04 -4.4836720925783686e-05 -9.8466603503206073e-04
590 -1.5881108123451412e-04 -1.3521875444017010e-04 -1.0024316533852370e-03
591 -1.6459597043104525e-04 4.2845231795063979e-04 9.0772468301625689e-04
592 -5.1154970327565443e-04 7.8849500547780165e-04 -3.1231299353060910e-04
593 -2.4689255204714202e-04 5.9494072873952120e-06 9.9282504642677141e-04
594 3.6111066034768966e-04 2.1517322979643200e-04 9.2823859640608702e-04
595 -7.9393788573936227e-04 5.6229136212443257e-04 1.7254753117966064e-04
596 4.2381384040309395e-04 -8.7626509666971443e-04 1.7703426714358808e-04
597 1.0455704295797105e-04 4.4155295406998350e-04 9.1085364362774842e-04
598 3.2513286950224403e-04 8.9389796079785365e-04 -2.7300512857789989e-04
599 1.8647284213290063e-04 -6.7299819478366409e-04 7.2601537426747876e-04
600 -5.2131619094339735e-04 -8.0445677595365522e-04 2.4656827284142411e-04
601 -8.4071011395391861e-04 4.0039969729330373e-04 -3.3926635299231855e-04
602 -8.0822321270439441e-04 3.4803735487069613e-04 -4.6362883640950324e-04
603 -7.4151031413364772e-04 -5.3332653471818421e-04 -3.9098043695049556e-04
604 -9.0387128423088958e-04 1.5223834789193733e-04 -3.7945515745432389e-04
605 -4.0284895351688896e-04 -9.0126838048878435e-04 2.5458245643083324e-05
606 -3.1421667370760064e-04 8.4950308734386189e-04 4.0635625602457103e-04
607 3.8667694491882684e-05 1.3370474275065097e-04 1.0147305962835325e-03
608 -5.7965078372453314e-05 7.7127117508104376e-04 6.3687378962472264e-04
609 -7.5018808559915477e-04 -1.7104710573577698e-04 -6.4261674732668062e-04
610 9.4466728625072782e-04 2.5829555650887091e-04 1.3808636852347643e-04
611 4.1204257864191471e-04 -9.4097794016302649e-05 -9.2727475950879447e-04
612 9.2189911341941948e-04 1.2030604930141835e-04 3.4631819290334122e-04
613 -3.7731121060030799e-04 -8.6341497407554381e-04 -3.0741228131546101e-04
614 4.7232838833065994e-05 -7.9470079270074496e-04 -6.0767452332785436e-04
615 4.6511507273268706e-04 -8.7093173816000201e-04 -3.9705708642098445e-05
616 -6.7659262079533555e-04 -6.9409169274128792e-04 -1.9897824070566251e-04
617 -9.2589510190219852e-04 -2.4598568533623427e-04 -2.4690984938118178e-04
618 -6.2030510758363463e-04 4.4574453981690193e-04 -6.4917366374571417e-04
619 1.8028312017749772e-04 -9.4695329709306006e-04 -2.2727709486984981e-04
620 -3.6671826884022674e-05 -9.3412286814964116e-04 3.3186108371545002e-04
621 3.9179976802765967e-04 -7.6320664449664095e-04 -5.0866170161007851e-04
622 -2.1763652900835934e-04 -4.4472888173555092e-04 8.8786822738221190e-04
623 7.9405193176728599e-04 -4.8160992006546059e-04 -3.5001072010197755e-04
624 9.2125395145368702e-04 1.2767779083554151e-04 -3.4542143085258999e-04
625 -4.0751490239984521e-04 6.1315964413059235e-04 6.8204462266341175e-04
626 -2.5452526547949090e-04 -5.5882162962689525e-04 8.0375094095541807e-04
627 -9.0578107936618559e-05 5.3698889622693648e-04 8.5516753883363883e-04
628 4.6421060199759842e-04 8.7027294498741997e-04 4.5042883650046303e-05
629 -9.5520821484196738e-04 4.6971415153839164e-05 2.5325867032163985e-04
630 -5.9212862112623089e-04 7.7411576046287575e-04 1.6004976721319857e-04
631 -8.3167451073925690e-04 -1.9469183837251945e-04 -5.1391278803960562e-04
632 -4.0708585859029718e-04 8.6514767180501551e-04 -2.5363048112254282e-04
633 9.2196925457319566e-04 2.4115713675460694e-04 -2.6895085220162622e-04
634 -3.3040566425563604e-04 1.0389701246339984e-04 9.6034788807397738e-04
635 3.8991604572938986e-04 -9.0617838827566606e-04 5.8640794304563212e-05
636 -6.8061665097856724e-05 -9.6633072457147124e-04 2.0109108042528178e-04
637 -4.9016912509225734e-04 -6.6788670246038708e-05 8.8786580750092306e-04
638 4.4503200860924764e-04 2.6762812876017305e-04 -8.7073112673702660e-04
639 4.4452363244673078e-04 -1.0438202200414733e-04 9.0977831080452023e-04
640 -6.4177735545935363e-05 6.7002551270139283e-04 -7.4974331849047909e-04
641 -9.4987667338778206e-04 2.1745269753699003e-04 -1.6231335784629996e-04
642 -8.7559548465111433e-04 2.7711036759801828e-04 -3.7466847397664416e-04
643 2.8344900491756361e-04 -7.2426218971130682e-04 6.3251941404394833e-04
644 5.6832414584246478e-04 -4.5565796698710464e-04 6.9295461411934963e-04
645 6.1803185742231425e-04 2.2465120119900380e-04 -7.6473946063145503e-04
646 -2.0393513688429611e-04 1.2412074007770401e-04 9.9483032550070900e-04
647 2.4981227869925027e-05 5.5153940932163624e-04 8.5003306459078426e-04
648 -7.4419306062653492e-04 5.9038185966435702e-04 2.7458230139905599e-04
649 -2.6075664713560249e-04 9.4850237355801226e-04 8.2902887442383861e-05
650 9.2717676965420022e-04 -2.3191583464665132e-04 2.5961950634259442e-04
651 -4.6664389477105942e-04 -8.5231461282653633e-04 -1.8612208145809425e-04
652 -8.7092691644428911e-04 -3.4160177750806387e-04 -3.2638637357789709e-04
653 -1.8826017630499582e-04 1.2385970263402497e-04 -9.9819124791634896e-04
654 8.4333773144730864e-04 -4.6724740460346342e-04 -2.2352714865945210e-04
655 -7.1812659731778120e-04 4.0977366706207831e-04 -5.5919154898257154e-04
656 6.6469579772369133e-04 -1.3544006829836037e-04 -7.4599333767989785e-04
657 -7.4580339049050664e-04 -5.4080885141579110e-04 3.6861411781663331e-04
658 -3.7867558762341307e-04 3.9574602516951917e-05 -9.4587618176996920e-04
659 -1.3417482243327375e-04 3.7736450431967414e-06 -1.0162336598609320e-03
660 -3.9676825364831471e-05 3.5683053848318766e-05 -1.0230756052041412e-03
661 8.4173590527593942e-04 -5.1678164701624766e-04 -1.3735695484426868e-05
662 4.8828841154180144e-05 -2.3703805236287436e-04 9.9499531312352021e-04
663 5.1742116647108378e-04 8.2523428760091812e-04 -1.6543981366711001e-04
664 -2.8301726115179723e-04 9.4397488565581614e-04 -5.4274108423316456e-05
665 -2.9228119169806777e-04 9.2559416049533758e-04 -1.8459733891768162e-04
666 -6.1382226203360706e-05 1.2094359615008013e-04 -1.0159701790558033e-03
667 2.6347593504879164e-04 -8.2945079908454010e-04 -4.8519449205562367e-04
668 -5.7253032593611905e-04 3.2681582906607254e-05 8.3484207473955041e-04
669 -8.2488825352965492e-04 -3.1330260306554840e-04 -4.5902896117072021e-04
670 -5.0223523235445845e-04 8.4475199566392493e-04 9.2612519840058193e-05
671 -9.5694205284900795e-04 1.5379666531957601e-04 1.8902246699341191e-04
672 5.5867416254155563e-04 -3.5732868228606127e-04 7.5938188692463849e-04
673 -6.0203710601649034e-06 2.3812758752247349e-04 -9.9465432970560915e-04
674 -1.9175452444254246e-04 -9.5616621509234860e-04 1.6263108690730042e-04
675 4.1174813353204385e-04 7.4656339058947548e-04 5.1509481695016074e-04
676 8.0843901816312299e-05 7.3856296710134758e-04 6.7512013858853960e-04
677 4.7114520558923619e-04 2.2289248524319741e-04 8.7112077268047166e-04
678 -4.8174049622746665e-04 -7.8522045300861206e-04 3.6865429434463915e-04
679 3.1514103357675532e-04 -7.6185037860455903e-05 -9.6877947942666429e-04
680 3.9867657846878398e-04 -6.6722320469093097e-04 6.3188731698657027e-04
681 -8.7717585955747219e-04 1.5729344265665479e-04 4.3830074436730892e-04
682 -8.8900330555830389e-04 4.2679278001715932e-04 1.5098225442104417e-05
683 -6.8469386830525671e-05 1.6524701566446935e-05 1.0219287548163280e-03
684 3.4768940174408883e-04 -9.2319341522340871e-04 -5.3463925555451616e-05
685 4.0866481110792430e-04 8.7941112005664862e-04 -1.8648612531496528e-04
686 1.6945821843033701e-04 -7.9683446195543989e-04 -5.7851830907994467e-04
687 1.8252717841334406e-04 9.6160096614489213e-04 -1.2545717111984685e-04
688 -8.0820520038165668e-04 -4.1982619367604150e-04 -3.9292670525808954e-04
689 -5.4230477839016381e-04 -6.5337084675992662e-04 5.2151507595826123e-04
690 5.7733421355836184e-04 -6.8528616693345687e-04 4.3024072616019792e-04
691 9.5211246574995344e-04 -2.2492953935269026e-04 1.4078248805512317e-04
692 -6.8479343374040942e-04 -5.3193425896793680e-04 4.8875080889451033e-04
693 9.2636723715478625e-04 2.1961223953791316e-04 2.6952363247854667e-04
694 -1.7499594828181668e-04 9.6383629788282835e-04 -1.2210026093609395e-04
695 9.0377162110865945e-04 3.4720947803317074e-04 -1.9729548336696565e-04
696 -4.0961946761381732e-05 6.6534839610658694e-04 7.5737301689841397e-04
697 -3.3308068962368094e-04 -4.7584079512787652e-04 8.2898437791845917e-04
698 9.2462053963559567e-04 3.4749430317794104e-04 1.8098856143483224e-05
699 -4.9425131432121827e-04 -5.3340098682704549e-04 6.9327651875200169e-04
700 -6.6296509239010301e-04 -2.5228339463639446e-06 7.5844417033816159e-04
701 5.7400271251038066e-04 -5.5454531171912494e-04 6.0331365672338267e-04
702 -6.8536508404763653e-04 -6.3872971531013739e-04 -3.2073854386563904e-04
703 -7.6078540149925392e-04 2.9652220269580292e-04 -5.7386581331570559e-04
704 5.0208334454393425e-05 3.4940571030673894e-04 -9.5705618126481606e-04
705 3.1807214911645570e-04 6.4402155949643447e-04 -7.0150005838332907e-04
706 -3.2102728098609966e-04 6.9683754413571940e-04 6.4286244921237749e-04
707 1.1276340667033134e-04 -9.2532370571307915e-04 -3.3689281136477586e-04
708 -6.7575066824013784e-04 7.1236023592968680e-04 9.2259665698452077e-05
709 1.0930684427885258e-05 7.5291047957977983e-04 -6.6093268794441642e-04
710 -4.0266032407077390e-04 7.8068661822862579e-04 4.6485943445229481e-04
711 -9.2418533666662850e-04 2.2053541054252467e-04 -2.7322541425543365e-04
712 7.7869956165155143e-04 1.0772508958958817e-04 6.1982035050089067e-04
713 -2.2168543087426585e-04 -7.5380424143668169e-04 -6.1985392582415081e-04
714 6.3957104963143331e-04 3.4458497326534217e-04 -6.9427349112575966e-04
715 -2.0851601068500451e-04 -9.6344999018037531e-04 5.1615722683479438e-05
716 -2.4989902925081725e-04 4.7154199954613261e-05 -9.8994342529624838e-04
717 -3.9580800901877839e-04 -8.9967803329155647e-04 -9.1352752598594802e-05
718 5.0251754006038494e-04 -2.0403827825733189e-04 8.5681522433001174e-04
719 7.2801621277513741e-04 -5.6232997257569866e-04 3.7189673227645093e-04
720 8.4042623077778937e-04 4.9618141268057824e-04 1.4931692352200852e-04
721 2.4040577368934351e-04 -1.6316436266982843e-04 -9.7921433545047009e-04
722 -5.6909146650795410e-04 -7.7448630812848454e-04 -2.3168214906830602e-04
723 5.4841514473385015e-05 7.0086255867448857e-05 -1.0206385275736145e-03
724 -1.8409691140879045e-04 7.2061328797527226e-04 6.7493197531754388e-04
725 8.6603637352373791e-04 -4.6071882866259334e-04 -1.1377990087371471e-04
726 5.8148704015011825e-04 2.1719853762535839e-04 7.9665357357736446e-04
727 7.8298262157084047e-04 5.5641228826643660e-04 2.3501191760735466e-04
728 5.4474661442202490e-04 6.0064657498396336e-04 -5.8282888663275286e-04
729 4.5099289500037920e-04 1.0395298809491548e-04 -9.0490433044990051e-04
730 7.1540424204055405e-04 6.0522140962962674e-04 3.1968534689907744e-04
731 -2.6418910053774882e-04 -6.1410631935441716e-04 -7.5224159966231585e-04
732 3.4576468064626632e-04 6.3396428949575223e-04 6.9784977565197110e-04
733 -7.3457566482549913e-05 9.6662044046513578e-04 -1.8650155161988675e-04
734 -2.4469300174747839e-04 -4.7867321342686347e-04 -8.5940297278213002e-04
735 9.5019058543327202e-04 -2.2130215863044923e-04 -1.5563936071987672e-04
736 9.6289965962003158e-04 -2.1422103353441446e-04 3.3216515218050381e-05
737 -3.2251468938654604e-05 -8.6711129488022169e-05 1.0203594010111819e-03
738 -5.0277302203573660e-04 -8.4769530075960448e-04 4.8414814167392251e-05
739 5.1242257340385219e-04 1.9477032829922001e-04 -8.5206837390474363e-04
740 -7.6224067109802813e-04 1.3454504244827037e-04 6.3452302048682113e-04
741 -1.5114683455508563e-04 3.8385904517456594e-05 1.0116687011066570e-03
742 -5.4326643328938607e-04 -7.1195101848007657e-04 4.2918554974742885e-04
743 -2.8850629361233423e-06 4.3561174563947570e-04 -9.1892744891549727e-04
744 2.9511250388639370e-04 -9.2918091679584155e-04 -1.6026232874652254e-04
745 -7.5568142412510569e-05 -6.8756212582742971e-04 -7.2939151750231555e-04
$EndNodes
$Elements
1486
1 2 2 0 0 410 440 345
2 2 2 0 0 421 541 409
3 2 2 0 0 409 682 421
4 2 2 0 0 545 603 546
5 2 2 0 0 426 427 294
6 2 2 0 0 294 454 426
7 2 2 0 0 265 682 409
8 2 2 0 0 24 41 4
9 2 2 0 0 3 24 4
10 2 2 0 0 238 642 602
11 2 2 0 0 520 651 613
12 2 2 0 0 653 666 659
13 2 2 0 0 404 460 98
14 2 2 0 0 222 482 219
15 2 2 0 0 40 463 9
16 2 2 0 0 608 724 696
17 2 2 0 0 435 709 69
18 2 2 0 0 413 439 29
19 2 2 0 0 345 710 410
20 2 2 0 0 422 463 40
21 2 2 0 0 98 550 404
22 2 2 0 0 95 724 608
23 2 2 0 0 4 41 5
24 2 2 0 0 232 701 581
25 2 2 0 0 490 698 488
26 2 2 0 0 29 436 413
27 2 2 0 0 416 421 342
28 2 2 0 0 312 595 441
29 2 2 0 0 41 486 5
30 2 2 0 0 405 605 519
31 2 2 0 0 409 595 265
32 2 2 0 0 69 481 435
33 2 2 0 0 434 743 339
34 2 2 0 0 342 641 416
35 2 2 0 0 485 656 370
36 2 2 0 0 89 587 90
37 2 2 0 0 108 466 317
38 2 2 0 0 378 629 529
39 2 2 0 0 581 680 232
40 2 2 0 0 281 434 339
41 2 2 0 0 638 739 486
42 2 2 0 0 659 666 660
43 2 2 0 0 345 440 346
44 2 2 0 0 22 44 25
45 2 2 0 0 9 463 8
46 2 2 0 0 44 81 25
47 2 2 0 0 459 587 89
48 2 2 0 0 127 670 630
49 2 2 0 0 508 662 509
50 2 2 0 0 375 662 508
51 2 2 0 0 492 598 103
52 2 2 0 0 604 642 238
53 2 2 0 0 507 510 399
54 2 2 0 0 488 698 489
55 2 2 0 0 34 473 415
56 2 2 0 0 399 639 507
57 2 2 0 0 603 688 546
58 2 2 0 0 316 541 421
59 2 2 0 0 647 696 627
60 2 2 0 0 403 439 352
61 2 2 0 0 221 603 545
62 2 2 0 0 595 648 441
63 2 2 0 0 412 550 98
64 2 2 0 0 411 714 397
65 2 2 0 0 486 739 729
66 2 2 0 0 696 724 401
67 2 2 0 0 247 482 222
68 2 2 0 0 397 714 645
69 2 2 0 0 613 651 212
70 2 2 0 0 207 745 425
71 2 2 0 0 98 675 412
72 2 2 0 0 219 482 230
73 2 2 0 0 560 692 432
74 2 2 0 0 432 689 560
75 2 2 0 0 454 575 426
76 2 2 0 0 352 439 413
77 2 2 0 0 415 420 2
78 2 2 0 0 40 464 422
79 2 2 0 0 89 512 459
80 2 2 0 0 425 614 207
81 2 2 0 0 377 600 453
82 2 2 0 0 89 90 88
83 2 2 0 0 80 466 108
84 2 2 0 0 520 717 651
85 2 2 0 0 602 703 238
86 2 2 0 0 103 687 492
87 2 2 0 0 253 491 424
88 2 2 0 0 69 709 466
89 2 2 0 0 424 512 253
90 2 2 0 0 369 696 647
91 2 2 0 0 581 701 644
92 2 2 0 0 630 670 392
93 2 2 0 0 32 656 485
94 2 2 0 0 459 512 424
95 2 2 0 0 90 91 88
96 2 2 0 0 427 478 294
97 2 2 0 0 488 695 490
98 2 2 0 0 554 699 560
99 2 2 0 0 67 80 79
100 2 2 0 0 252 454 294
101 2 2 0 0 253 628 491
102 2 2 0 0 529 681 378
103 2 2 0 0 519 715 405
104 2 2 0 0 440 441 346
105 2 2 0 0 605 717 519
106 2 2 0 0 403 452 439
107 2 2 0 0 507 639 21
108 2 2 0 0 565 567 566
109 2 2 0 0 433 454 341
110 2 2 0 0 67 466 80
111 2 2 0 0 555 697 576
112 2 2 0 0 491 628 493
113 2 2 0 0 389 641 342
114 2 2 0 0 429 619 474
115 2 2 0 0 40 501 464
116 2 2 0 0 576 699 555
117 2 2 0 0 311 600 377
118 2 2 0 0 567 622 566
119 2 2 0 0 433 575 454
120 2 2 0 0 378 671 629
121 2 2 0 0 79 540 103
122 2 2 0 0 341 473 433
123 2 2 0 0 673 704 68
124 2 2 0 0 462 710 345
125 2 2 0 0 557 722 616
126 2 2 0 0 573 662 343
127 2 2 0 0 370 656 463
128 2 2 0 0 341 454 252
129 2 2 0 0 616 702 557
130 2 2 0 0 6 26 7
131 2 2 0 0 464 501 467
132 2 2 0 0 433 473 406
133 2 2 0 0 8 45 37
134 2 2 0 0 466 709 317
135 2 2 0 0 457 461 379
136 2 2 0 0 84 512 86
137 2 2 0 0 19 452 33
138 2 2 0 0 380 614 425
139 2 2 0 0 83 540 79
140 2 2 0 0 398 510 509
141 2 2 0 0 609 631 137
142 2 2 0 0 18 442 36
143 2 2 0 0 26 45 7
144 2 2 0 0 565 566 343
145 2 2 0 0 80 83 79
146 2 2 0 0 560 689 554
147 2 2 0 0 134 137 136
148 2 2 0 0 68 469 42
149 2 2 0 0 659 716 653
150 2 2 0 0 619 707 474
151 2 2 0 0 497 610 39
152 2 2 0 0 137 138 136
153 2 2 0 0 283 573 343
154 2 2 0 0 506 644 448
155 2 2 0 0 499 735 31
156 2 2 0 0 81 97 25
157 2 2 0 0 45 46 37
158 2 2 0 0 585 668 637
159 2 2 0 0 495 735 499
160 2 2 0 0 399 510 398
161 2 2 0 0 509 573 398
162 2 2 0 0 442 443 36
163 2 2 0 0 1 607 314
164 2 2 0 0 29 612 436
165 2 2 0 0 547 631 609
166 2 2 0 0 360 595 409
167 2 2 0 0 421 682 342
168 2 2 0 0 426 575 327
169 2 2 0 0 123 577 235
170 2 2 0 0 339 743 417
171 2 2 0 0 7 45 8
172 2 2 0 0 3 723 24
173 2 2 0 0 418 666 653
174 2 2 0 0 59 60 58
175 2 2 0 0 620 636 193
176 2 2 0 0 42 469 47
177 2 2 0 0 65 67 66
178 2 2 0 0 509 662 573
179 2 2 0 0 470 482 247
180 2 2 0 0 368 476 472
181 2 2 0 0 530 740 337
182 2 2 0 0 253 512 84
183 2 2 0 0 455 698 282
184 2 2 0 0 61 65 62
185 2 2 0 0 59 61 60
186 2 2 0 0 91 472 88
187 2 2 0 0 90 92 91
188 2 2 0 0 19 442 18
189 2 2 0 0 464 465 423
190 2 2 0 0 706 724 118
191 2 2 0 0 456 611 32
192 2 2 0 0 379 477 61
193 2 2 0 0 417 743 704
194 2 2 0 0 314 683 1
195 2 2 0 0 442 458 443
196 2 2 0 0 11 28 12
197 2 2 0 0 61 62 60
198 2 2 0 0 118 724 95
199 2 2 0 0 22 25 23
200 2 2 0 0 247 483 470
201 2 2 0 0 281 640 434
202 2 2 0 0 197 667 474
203 2 2 0 0 86 512 89
204 2 2 0 0 417 704 673
205 2 2 0 0 451 690 230
206 2 2 0 0 27 442 19
207 2 2 0 0 637 668 229
208 2 2 0 0 60 475 58
209 2 2 0 0 489 610 497
210 2 2 0 0 307 573 283
211 2 2 0 0 61 477 65
212 2 2 0 0 65 66 62
213 2 2 0 0 544 740 530
214 2 2 0 0 230 719 451
215 2 2 0 0 18 452 19
216 2 2 0 0 268 569 269
217 2 2 0 0 32 485 456
218 2 2 0 0 627 696 401
219 2 2 0 0 24 42 41
220 2 2 0 0 20 27 19
221 2 2 0 0 330 461 457
222 2 2 0 0 506 672 644
223 2 2 0 0 472 476 87
224 2 2 0 0 468 495 494
225 2 2 0 0 88 472 87
226 2 2 0 0 121 577 123
227 2 2 0 0 327 575 276
228 2 2 0 0 422 464 423
229 2 2 0 0 47 63 49
230 2 2 0 0 458 506 443
231 2 2 0 0 232 690 451
232 2 2 0 0 28 487 12
233 2 2 0 0 80 107 83
234 2 2 0 0 608 696 676
235 2 2 0 0 356 481 355
236 2 2 0 0 138 238 136
237 2 2 0 0 137 139 138
238 2 2 0 0 729 739 26
239 2 2 0 0 81 99 97
240 2 2 0 0 46 50 37
241 2 2 0 0 463 656 8
242 2 2 0 0 443 444 36
243 2 2 0 0 68 704 469
244 2 2 0 0 24 68 42
245 2 2 0 0 16 503 30
246 2 2 0 0 65 69 67
247 2 2 0 0 67 79 66
248 2 2 0 0 676 696 369
249 2 2 0 0 59 379 61
250 2 2 0 0 90 93 92
251 2 2 0 0 464 467 465
252 2 2 0 0 441 708 312
253 2 2 0 0 483 484 471
254 2 2 0 0 427 479 478
255 2 2 0 0 245 564 244
256 2 2 0 0 470 483 471
257 2 2 0 0 473 721 406
258 2 2 0 0 555 699 554
259 2 2 0 0 47 469 63
260 2 2 0 0 63 355 49
261 2 2 0 0 62 64 60
262 2 2 0 0 80 108 107
263 2 2 0 0 107 539 83
264 2 2 0 0 139 140 138
265 2 2 0 0 99 100 97
266 2 2 0 0 81 236 99
267 2 2 0 0 46 51 50
268 2 2 0 0 443 445 444
269 2 2 0 0 24 419 68
270 2 2 0 0 69 466 67
271 2 2 0 0 79 103 66
272 2 2 0 0 65 477 69
273 2 2 0 0 547 548 321
274 2 2 0 0 93 94 92
275 2 2 0 0 467 468 465
276 2 2 0 0 333 664 649
277 2 2 0 0 55 498 56
278 2 2 0 0 56 498 72
279 2 2 0 0 12 499 31
280 2 2 0 0 63 356 355
281 2 2 0 0 108 110 107
282 2 2 0 0 139 141 140
283 2 2 0 0 100 101 97
284 2 2 0 0 236 248 99
285 2 2 0 0 81 594 236
286 2 2 0 0 51 52 50
287 2 2 0 0 192 515 195
288 2 2 0 0 445 446 444
289 2 2 0 0 477 481 69
290 2 2 0 0 94 95 92
291 2 2 0 0 93 96 94
292 2 2 0 0 63 408 356
293 2 2 0 0 108 111 110
294 2 2 0 0 110 117 107
295 2 2 0 0 139 154 141
296 2 2 0 0 141 142 140
297 2 2 0 0 51 53 52
298 2 2 0 0 100 102 101
299 2 2 0 0 236 250 248
300 2 2 0 0 445 447 446
301 2 2 0 0 52 388 50
302 2 2 0 0 277 622 567
303 2 2 0 0 95 608 92
304 2 2 0 0 94 118 95
305 2 2 0 0 93 104 96
306 2 2 0 0 51 561 53
307 2 2 0 0 408 434 356
308 2 2 0 0 53 54 52
309 2 2 0 0 445 448 447
310 2 2 0 0 108 317 111
311 2 2 0 0 141 143 142
312 2 2 0 0 142 225 140
313 2 2 0 0 102 166 101
314 2 2 0 0 250 325 248
315 2 2 0 0 100 258 102
316 2 2 0 0 53 55 54
317 2 2 0 0 447 449 446
318 2 2 0 0 236 505 250
319 2 2 0 0 104 105 96
320 2 2 0 0 53 57 55
321 2 2 0 0 55 56 54
322 2 2 0 0 448 451 447
323 2 2 0 0 14 39 15
324 2 2 0 0 317 511 111
325 2 2 0 0 10 40 9
326 2 2 0 0 143 144 142
327 2 2 0 0 57 58 55
328 2 2 0 0 8 37 9
329 2 2 0 0 14 38 13
330 2 2 0 0 166 314 101
331 2 2 0 0 18 36 17
332 2 2 0 0 16 29 17
333 2 2 0 0 33 504 20
334 2 2 0 0 325 365 248
335 2 2 0 0 199 202 196
336 2 2 0 0 7 32 6
337 2 2 0 0 434 435 356
338 2 2 0 0 74 75 73
339 2 2 0 0 223 239 234
340 2 2 0 0 74 76 75
341 2 2 0 0 72 74 73
342 2 2 0 0 231 549 201
343 2 2 0 0 202 205 204
344 2 2 0 0 226 227 214
345 2 2 0 0 272 275 271
346 2 2 0 0 276 318 275
347 2 2 0 0 213 214 209
348 2 2 0 0 76 77 75
349 2 2 0 0 210 231 201
350 2 2 0 0 16 30 15
351 2 2 0 0 205 209 208
352 2 2 0 0 202 204 196
353 2 2 0 0 318 406 340
354 2 2 0 0 195 196 193
355 2 2 0 0 322 420 415
356 2 2 0 0 239 240 234
357 2 2 0 0 163 588 168
358 2 2 0 0 12 31 11
359 2 2 0 0 56 72 71
360 2 2 0 0 425 426 327
361 2 2 0 0 19 33 20
362 2 2 0 0 168 224 215
363 2 2 0 0 209 568 216
364 2 2 0 0 318 433 406
365 2 2 0 0 269 271 270
366 2 2 0 0 268 269 245
367 2 2 0 0 21 639 20
368 2 2 0 0 84 85 82
369 2 2 0 0 181 207 183
370 2 2 0 0 269 272 271
371 2 2 0 0 272 276 275
372 2 2 0 0 242 243 240
373 2 2 0 0 102 167 166
374 2 2 0 0 223 234 233
375 2 2 0 0 283 343 227
376 2 2 0 0 205 208 204
377 2 2 0 0 213 226 214
378 2 2 0 0 271 572 347
379 2 2 0 0 243 268 245
380 2 2 0 0 335 398 307
381 2 2 0 0 303 555 554
382 2 2 0 0 226 283 227
383 2 2 0 0 347 485 370
384 2 2 0 0 195 199 196
385 2 2 0 0 205 213 209
386 2 2 0 0 246 322 252
387 2 2 0 0 76 78 77
388 2 2 0 0 133 163 135
389 2 2 0 0 163 168 164
390 2 2 0 0 322 415 341
391 2 2 0 0 227 361 214
392 2 2 0 0 191 198 189
393 2 2 0 0 78 84 82
394 2 2 0 0 209 216 208
395 2 2 0 0 78 82 77
396 2 2 0 0 216 303 266
397 2 2 0 0 417 418 362
398 2 2 0 0 314 607 101
399 2 2 0 0 339 362 280
400 2 2 0 0 243 245 244
401 2 2 0 0 187 291 185
402 2 2 0 0 429 430 359
403 2 2 0 0 143 145 144
404 2 2 0 0 202 553 205
405 2 2 0 0 339 417 362
406 2 2 0 0 131 580 133
407 2 2 0 0 239 242 240
408 2 2 0 0 57 59 58
409 2 2 0 0 224 246 215
410 2 2 0 0 84 86 85
411 2 2 0 0 303 554 266
412 2 2 0 0 72 73 71
413 2 2 0 0 437 438 414
414 2 2 0 0 318 340 275
415 2 2 0 0 269 270 245
416 2 2 0 0 86 87 85
417 2 2 0 0 192 193 191
418 2 2 0 0 123 235 129
419 2 2 0 0 263 374 262
420 2 2 0 0 425 427 426
421 2 2 0 0 149 150 147
422 2 2 0 0 210 232 231
423 2 2 0 0 74 373 76
424 2 2 0 0 168 215 169
425 2 2 0 0 259 262 249
426 2 2 0 0 145 146 144
427 2 2 0 0 367 524 289
428 2 2 0 0 271 347 270
429 2 2 0 0 406 407 340
430 2 2 0 0 334 459 424
431 2 2 0 0 429 474 430
432 2 2 0 0 250 328 325
433 2 2 0 0 431 432 367
434 2 2 0 0 104 278 105
435 2 2 0 0 145 147 146
436 2 2 0 0 151 152 150
437 2 2 0 0 235 583 129
438 2 2 0 0 237 249 228
439 2 2 0 0 149 151 150
440 2 2 0 0 159 161 158
441 2 2 0 0 153 155 152
442 2 2 0 0 156 158 155
443 2 2 0 0 354 367 289
444 2 2 0 0 259 263 262
445 2 2 0 0 190 191 189
446 2 2 0 0 177 221 174
447 2 2 0 0 162 228 161
448 2 2 0 0 124 516 386
449 2 2 0 0 418 653 578
450 2 2 0 0 371 584 295
451 2 2 0 0 151 153 152
452 2 2 0 0 153 156 155
453 2 2 0 0 159 162 161
454 2 2 0 0 374 593 262
455 2 2 0 0 156 159 158
456 2 2 0 0 237 259 249
457 2 2 0 0 146 284 160
458 2 2 0 0 266 309 267
459 2 2 0 0 264 265 257
460 2 2 0 0 86 88 87
461 2 2 0 0 265 312 257
462 2 2 0 0 162 237 228
463 2 2 0 0 21 44 22
464 2 2 0 0 324 392 390
465 2 2 0 0 371 585 584
466 2 2 0 0 262 366 249
467 2 2 0 0 192 195 193
468 2 2 0 0 263 375 374
469 2 2 0 0 216 266 217
470 2 2 0 0 326 327 276
471 2 2 0 0 260 646 166
472 2 2 0 0 220 223 222
473 2 2 0 0 322 341 252
474 2 2 0 0 256 257 255
475 2 2 0 0 78 253 84
476 2 2 0 0 358 359 242
477 2 2 0 0 188 189 187
478 2 2 0 0 281 339 280
479 2 2 0 0 146 160 144
480 2 2 0 0 123 129 128
481 2 2 0 0 255 324 254
482 2 2 0 0 228 229 161
483 2 2 0 0 354 431 367
484 2 2 0 0 163 164 135
485 2 2 0 0 155 157 152
486 2 2 0 0 243 244 240
487 2 2 0 0 256 264 257
488 2 2 0 0 284 316 160
489 2 2 0 0 380 425 327
490 2 2 0 0 148 149 147
491 2 2 0 0 335 399 398
492 2 2 0 0 418 578 362
493 2 2 0 0 334 424 396
494 2 2 0 0 167 260 166
495 2 2 0 0 325 368 365
496 2 2 0 0 428 429 359
497 2 2 0 0 165 255 254
498 2 2 0 0 297 342 264
499 2 2 0 0 298 371 295
500 2 2 0 0 218 323 220
501 2 2 0 0 310 337 302
502 2 2 0 0 165 256 255
503 2 2 0 0 186 187 185
504 2 2 0 0 56 71 70
505 2 2 0 0 165 254 125
506 2 2 0 0 200 201 199
507 2 2 0 0 148 206 149
508 2 2 0 0 324 390 364
509 2 2 0 0 190 192 191
510 2 2 0 0 368 369 365
511 2 2 0 0 353 404 351
512 2 2 0 0 104 331 278
513 2 2 0 0 256 297 264
514 2 2 0 0 316 421 416
515 2 2 0 0 239 358 242
516 2 2 0 0 169 586 171
517 2 2 0 0 286 287 206
518 2 2 0 0 324 364 254
519 2 2 0 0 241 576 162
520 2 2 0 0 168 169 164
521 2 2 0 0 121 123 122
522 2 2 0 0 266 267 217
523 2 2 0 0 129 131 130
524 2 2 0 0 216 217 208
525 2 2 0 0 285 382 313
526 2 2 0 0 172 321 170
527 2 2 0 0 390 391 364
528 2 2 0 0 296 563 300
529 2 2 0 0 246 252 251
530 2 2 0 0 285 286 206
531 2 2 0 0 288 289 287
532 2 2 0 0 298 372 371
533 2 2 0 0 23 35 22
534 2 2 0 0 300 344 304
535 2 2 0 0 344 462 345
536 2 2 0 0 123 128 122
537 2 2 0 0 297 389 342
538 2 2 0 0 237 277 259
539 2 2 0 0 148 285 206
540 2 2 0 0 86 89 88
541 2 2 0 0 306 307 283
542 2 2 0 0 234 279 233
543 2 2 0 0 316 416 160
544 2 2 0 0 188 190 189
545 2 2 0 0 85 98 82
546 2 2 0 0 358 428 359
547 2 2 0 0 437 455 438
548 2 2 0 0 203 210 201
549 2 2 0 0 382 383 313
550 2 2 0 0 153 176 156
551 2 2 0 0 290 354 289
552 2 2 0 0 159 241 162
553 2 2 0 0 386 387 126
554 2 2 0 0 273 363 338
555 2 2 0 0 272 326 276
556 2 2 0 0 171 293 173
557 2 2 0 0 145 148 147
558 2 2 0 0 274 295 261
559 2 2 0 0 285 313 286
560 2 2 0 0 383 384 313
561 2 2 0 0 301 302 299
562 2 2 0 0 131 133 132
563 2 2 0 0 296 298 295
564 2 2 0 0 305 310 302
565 2 2 0 0 349 412 328
566 2 2 0 0 344 345 304
567 2 2 0 0 77 119 75
568 2 2 0 0 315 378 310
569 2 2 0 0 363 401 400
570 2 2 0 0 332 333 278
571 2 2 0 0 223 233 222
572 2 2 0 0 331 334 332
573 2 2 0 0 186 188 187
574 2 2 0 0 178 212 177
575 2 2 0 0 305 360 315
576 2 2 0 0 334 396 395
577 2 2 0 0 246 251 215
578 2 2 0 0 167 261 260
579 2 2 0 0 175 179 178
580 2 2 0 0 345 346 304
581 2 2 0 0 124 386 126
582 2 2 0 0 286 288 287
583 2 2 0 0 331 332 278
584 2 2 0 0 179 181 180
585 2 2 0 0 301 305 302
586 2 2 0 0 300 304 301
587 2 2 0 0 296 300 299
588 2 2 0 0 305 315 310
589 2 2 0 0 296 299 298
590 2 2 0 0 320 453 290
591 2 2 0 0 274 296 295
592 2 2 0 0 313 531 286
593 2 2 0 0 120 281 280
594 2 2 0 0 360 409 315
595 2 2 0 0 363 400 338
596 2 2 0 0 129 130 128
597 2 2 0 0 300 301 299
598 2 2 0 0 1 508 23
599 2 2 0 0 167 273 261
600 2 2 0 0 133 135 134
601 2 2 0 0 173 174 172
602 2 2 0 0 311 377 376
603 2 2 0 0 273 274 261
604 2 2 0 0 273 338 274
605 2 2 0 0 334 395 332
606 2 2 0 0 183 197 184
607 2 2 0 0 319 393 320
608 2 2 0 0 449 450 446
609 2 2 0 0 288 290 289
610 2 2 0 0 226 306 283
611 2 2 0 0 326 380 327
612 2 2 0 0 175 177 174
613 2 2 0 0 181 183 182
614 2 2 0 0 219 230 211
615 2 2 0 0 308 335 307
616 2 2 0 0 267 311 292
617 2 2 0 0 169 170 164
618 2 2 0 0 288 319 290
619 2 2 0 0 126 165 125
620 2 2 0 0 120 280 121
621 2 2 0 0 130 357 128
622 2 2 0 0 195 200 199
623 2 2 0 0 169 171 170
624 2 2 0 0 171 172 170
625 2 2 0 0 184 186 185
626 2 2 0 0 73 282 71
627 2 2 0 0 252 294 251
628 2 2 0 0 319 320 290
629 2 2 0 0 131 132 130
630 2 2 0 0 393 394 320
631 2 2 0 0 171 173 172
632 2 2 0 0 4 34 3
633 2 2 0 0 218 220 219
634 2 2 0 0 267 292 217
635 2 2 0 0 184 185 182
636 2 2 0 0 188 194 190
637 2 2 0 0 56 70 54
638 2 2 0 0 377 405 376
639 2 2 0 0 449 470 450
640 2 2 0 0 179 180 178
641 2 2 0 0 173 175 174
642 2 2 0 0 175 178 177
643 2 2 0 0 250 329 328
644 2 2 0 0 311 376 292
645 2 2 0 0 329 571 350
646 2 2 0 0 347 370 348
647 2 2 0 0 220 222 219
648 2 2 0 0 376 385 292
649 2 2 0 0 133 134 132
650 2 2 0 0 134 136 132
651 2 2 0 0 306 308 307
652 2 2 0 0 200 203 201
653 2 2 0 0 233 247 222
654 2 2 0 0 98 460 82
655 2 2 0 0 329 349 328
656 2 2 0 0 326 381 380
657 2 2 0 0 347 348 270
658 2 2 0 0 181 182 180
659 2 2 0 0 121 122 115
660 2 2 0 0 350 351 349
661 2 2 0 0 308 336 335
662 2 2 0 0 350 403 352
663 2 2 0 0 470 471 450
664 2 2 0 0 203 211 210
665 2 2 0 0 218 219 211
666 2 2 0 0 183 184 182
667 2 2 0 0 370 463 422
668 2 2 0 0 306 402 308
669 2 2 0 0 203 218 211
670 2 2 0 0 71 490 70
671 2 2 0 0 329 350 349
672 2 2 0 0 436 437 414
673 2 2 0 0 124 126 125
674 2 2 0 0 413 414 353
675 2 2 0 0 422 423 348
676 2 2 0 0 352 353 351
677 2 2 0 0 370 422 348
678 2 2 0 0 350 352 351
679 2 2 0 0 413 436 414
680 2 2 0 0 352 413 353
681 2 2 0 0 120 121 115
682 2 2 0 0 110 480 117
683 2 2 0 0 124 125 116
684 2 2 0 0 126 521 165
685 2 2 0 0 113 120 115
686 2 2 0 0 127 440 410
687 2 2 0 0 114 124 116
688 2 2 0 0 543 544 530
689 2 2 0 0 488 489 487
690 2 2 0 0 585 637 366
691 2 2 0 0 543 570 544
692 2 2 0 0 113 115 114
693 2 2 0 0 127 410 106
694 2 2 0 0 114 116 112
695 2 2 0 0 195 515 200
696 2 2 0 0 491 493 492
697 2 2 0 0 12 487 13
698 2 2 0 0 546 547 321
699 2 2 0 0 330 457 411
700 2 2 0 0 157 543 530
701 2 2 0 0 519 520 291
702 2 2 0 0 28 488 487
703 2 2 0 0 111 112 110
704 2 2 0 0 312 534 257
705 2 2 0 0 476 732 412
706 2 2 0 0 27 458 442
707 2 2 0 0 385 636 620
708 2 2 0 0 176 559 156
709 2 2 0 0 593 634 366
710 2 2 0 0 589 590 224
711 2 2 0 0 113 114 112
712 2 2 0 0 109 127 106
713 2 2 0 0 270 564 245
714 2 2 0 0 443 506 445
715 2 2 0 0 491 492 396
716 2 2 0 0 388 624 502
717 2 2 0 0 445 506 448
718 2 2 0 0 30 500 15
719 2 2 0 0 20 504 21
720 2 2 0 0 64 475 60
721 2 2 0 0 287 542 206
722 2 2 0 0 23 508 35
723 2 2 0 0 302 558 299
724 2 2 0 0 70 551 54
725 2 2 0 0 62 598 64
726 2 2 0 0 424 491 396
727 2 2 0 0 407 456 340
728 2 2 0 0 545 546 321
729 2 2 0 0 330 411 397
730 2 2 0 0 72 536 74
731 2 2 0 0 238 574 136
732 2 2 0 0 659 660 420
733 2 2 0 0 395 538 332
734 2 2 0 0 143 527 145
735 2 2 0 0 412 675 476
736 2 2 0 0 239 513 358
737 2 2 0 0 157 530 529
738 2 2 0 0 518 519 291
739 2 2 0 0 449 482 470
740 2 2 0 0 207 713 479
741 2 2 0 0 119 523 75
742 2 2 0 0 109 670 127
743 2 2 0 0 10 501 40
744 2 2 0 0 508 509 35
745 2 2 0 0 96 606 94
746 2 2 0 0 331 459 334
747 2 2 0 0 286 531 288
748 2 2 0 0 290 453 354
749 2 2 0 0 282 490 71
750 2 2 0 0 384 531 313
751 2 2 0 0 289 524 287
752 2 2 0 0 349 550 412
753 2 2 0 0 165 521 256
754 2 2 0 0 82 460 77
755 2 2 0 0 155 543 157
756 2 2 0 0 201 549 199
757 2 2 0 0 273 591 363
758 2 2 0 0 387 521 126
759 2 2 0 0 114 516 124
760 2 2 0 0 53 561 57
761 2 2 0 0 266 554 309
762 2 2 0 0 257 534 255
763 2 2 0 0 205 553 213
764 2 2 0 0 142 522 225
765 2 2 0 0 435 481 356
766 2 2 0 0 216 568 303
767 2 2 0 0 300 563 344
768 2 2 0 0 214 568 209
769 2 2 0 0 112 480 110
770 2 2 0 0 350 571 403
771 2 2 0 0 347 572 485
772 2 2 0 0 275 572 271
773 2 2 0 0 274 563 296
774 2 2 0 0 171 586 293
775 2 2 0 0 162 576 237
776 2 2 0 0 133 580 163
777 2 2 0 0 11 501 10
778 2 2 0 0 295 584 261
779 2 2 0 0 129 583 131
780 2 2 0 0 215 586 169
781 2 2 0 0 250 505 329
782 2 2 0 0 168 588 224
783 2 2 0 0 321 548 170
784 2 2 0 0 262 593 366
785 2 2 0 0 166 646 314
786 2 2 0 0 520 535 291
787 2 2 0 0 373 663 493
788 2 2 0 0 291 535 185
789 2 2 0 0 101 607 97
790 2 2 0 0 130 574 357
791 2 2 0 0 158 570 543
792 2 2 0 0 31 501 11
793 2 2 0 0 444 552 503
794 2 2 0 0 156 559 159
795 2 2 0 0 236 594 505
796 2 2 0 0 206 542 149
797 2 2 0 0 54 551 52
798 2 2 0 0 74 536 373
799 2 2 0 0 337 558 302
800 2 2 0 0 150 532 147
801 2 2 0 0 379 728 457
802 2 2 0 0 299 558 298
803 2 2 0 0 332 538 333
804 2 2 0 0 145 527 148
805 2 2 0 0 514 515 192
806 2 2 0 0 15 500 14
807 2 2 0 0 75 523 73
808 2 2 0 0 467 501 31
809 2 2 0 0 254 592 125
810 2 2 0 0 172 545 321
811 2 2 0 0 144 522 142
812 2 2 0 0 528 532 150
813 2 2 0 0 187 518 291
814 2 2 0 0 553 599 213
815 2 2 0 0 383 603 384
816 2 2 0 0 282 698 490
817 2 2 0 0 244 517 240
818 2 2 0 0 353 525 404
819 2 2 0 0 395 540 538
820 2 2 0 0 94 606 118
821 2 2 0 0 117 539 107
822 2 2 0 0 185 535 182
823 2 2 0 0 388 502 50
824 2 2 0 0 167 591 273
825 2 2 0 0 147 532 146
826 2 2 0 0 92 608 91
827 2 2 0 0 472 676 368
828 2 2 0 0 364 592 254
829 2 2 0 0 21 504 44
830 2 2 0 0 365 597 248
831 2 2 0 0 125 592 116
832 2 2 0 0 588 589 224
833 2 2 0 0 111 113 112
834 2 2 0 0 63 469 408
835 2 2 0 0 105 109 106
836 2 2 0 0 242 526 243
837 2 2 0 0 439 712 29
838 2 2 0 0 240 517 234
839 2 2 0 0 346 533 304
840 2 2 0 0 14 500 38
841 2 2 0 0 494 495 484
842 2 2 0 0 127 630 440
843 2 2 0 0 208 537 204
844 2 2 0 0 175 562 179
845 2 2 0 0 303 626 555
846 2 2 0 0 359 526 242
847 2 2 0 0 243 526 268
848 2 2 0 0 217 537 208
849 2 2 0 0 58 498 55
850 2 2 0 0 503 552 30
851 2 2 0 0 13 499 12
852 2 2 0 0 268 621 569
853 2 2 0 0 489 497 487
854 2 2 0 0 475 498 58
855 2 2 0 0 430 526 359
856 2 2 0 0 248 597 99
857 2 2 0 0 292 537 217
858 2 2 0 0 26 645 45
859 2 2 0 0 234 517 279
860 2 2 0 0 14 497 39
861 2 2 0 0 385 537 292
862 2 2 0 0 305 533 360
863 2 2 0 0 304 533 301
864 2 2 0 0 146 532 284
865 2 2 0 0 483 494 484
866 2 2 0 0 173 562 175
867 2 2 0 0 116 480 112
868 2 2 0 0 224 590 246
869 2 2 0 0 189 518 187
870 2 2 0 0 498 536 72
871 2 2 0 0 414 525 353
872 2 2 0 0 160 522 144
873 2 2 0 0 547 609 548
874 2 2 0 0 182 535 180
875 2 2 0 0 297 601 389
876 2 2 0 0 44 594 81
877 2 2 0 0 301 533 305
878 2 2 0 0 105 106 96
879 2 2 0 0 515 596 200
880 2 2 0 0 293 562 173
881 2 2 0 0 73 523 282
882 2 2 0 0 148 527 285
883 2 2 0 0 174 545 172
884 2 2 0 0 218 596 323
885 2 2 0 0 200 596 203
886 2 2 0 0 149 542 151
887 2 2 0 0 446 552 444
888 2 2 0 0 49 461 330
889 2 2 0 0 330 397 48
890 2 2 0 0 453 738 377
891 2 2 0 0 255 534 324
892 2 2 0 0 52 551 388
893 2 2 0 0 634 646 260
894 2 2 0 0 513 615 358
895 2 2 0 0 438 525 414
896 2 2 0 0 516 618 386
897 2 2 0 0 198 518 189
898 2 2 0 0 227 566 361
899 2 2 0 0 559 560 241
900 2 2 0 0 90 587 93
901 2 2 0 0 416 522 160
902 2 2 0 0 102 591 167
903 2 2 0 0 134 609 137
904 2 2 0 0 298 558 372
905 2 2 0 0 132 574 130
906 2 2 0 0 106 606 96
907 2 2 0 0 159 559 241
908 2 2 0 0 32 611 6
909 2 2 0 0 158 543 155
910 2 2 0 0 223 513 239
911 2 2 0 0 288 531 319
912 2 2 0 0 323 513 220
913 2 2 0 0 115 516 114
914 2 2 0 0 521 601 297
915 2 2 0 0 610 698 455
916 2 2 0 0 354 600 431
917 2 2 0 0 351 550 349
918 2 2 0 0 256 521 297
919 2 2 0 0 140 604 138
920 2 2 0 0 77 460 119
921 2 2 0 0 17 503 16
922 2 2 0 0 9 502 10
923 2 2 0 0 104 587 331
924 2 2 0 0 152 528 150
925 2 2 0 0 315 541 378
926 2 2 0 0 170 548 164
927 2 2 0 0 590 659 420
928 2 2 0 0 11 624 28
929 2 2 0 0 199 549 202
930 2 2 0 0 502 624 10
931 2 2 0 0 453 600 354
932 2 2 0 0 42 43 41
933 2 2 0 0 38 499 13
934 2 2 0 0 285 527 382
935 2 2 0 0 190 514 192
936 2 2 0 0 157 529 528
937 2 2 0 0 231 643 549
938 2 2 0 0 331 587 459
939 2 2 0 0 451 701 232
940 2 2 0 0 99 597 100
941 2 2 0 0 361 568 214
942 2 2 0 0 372 740 544
943 2 2 0 0 221 545 174
944 2 2 0 0 138 604 238
945 2 2 0 0 340 572 275
946 2 2 0 0 338 563 274
947 2 2 0 0 524 542 287
948 2 2 0 0 265 595 312
949 2 2 0 0 111 511 113
950 2 2 0 0 580 658 588
951 2 2 0 0 580 588 163
952 2 2 0 0 237 576 277
953 2 2 0 0 444 503 36
954 2 2 0 0 131 583 580
955 2 2 0 0 505 571 329
956 2 2 0 0 203 596 218
957 2 2 0 0 584 634 260
958 2 2 0 0 261 584 260
959 2 2 0 0 369 647 365
960 2 2 0 0 251 586 215
961 2 2 0 0 348 564 270
962 2 2 0 0 450 552 446
963 2 2 0 0 390 496 391
964 2 2 0 0 66 598 62
965 2 2 0 0 465 623 423
966 2 2 0 0 258 591 102
967 2 2 0 0 343 566 227
968 2 2 0 0 564 623 244
969 2 2 0 0 154 617 141
970 2 2 0 0 324 534 392
971 2 2 0 0 50 502 37
972 2 2 0 0 524 556 542
973 2 2 0 0 544 700 372
974 2 2 0 0 122 516 115
975 2 2 0 0 177 557 221
976 2 2 0 0 489 698 610
977 2 2 0 0 93 587 104
978 2 2 0 0 136 574 132
979 2 2 0 0 593 646 634
980 2 2 0 0 116 592 480
981 2 2 0 0 143 617 527
982 2 2 0 0 225 604 140
983 2 2 0 0 137 631 139
984 2 2 0 0 549 553 202
985 2 2 0 0 164 548 135
986 2 2 0 0 404 550 351
987 2 2 0 0 34 721 473
988 2 2 0 0 220 513 223
989 2 2 0 0 317 640 511
990 2 2 0 0 100 597 258
991 2 2 0 0 588 658 589
992 2 2 0 0 323 615 513
993 2 2 0 0 568 626 303
994 2 2 0 0 377 605 405
995 2 2 0 0 178 613 212
996 2 2 0 0 493 628 373
997 2 2 0 0 157 528 152
998 2 2 0 0 591 627 363
999 2 2 0 0 409 541 315
1000 2 2 0 0 183 614 197
1001 2 2 0 0 103 598 66
1002 2 2 0 0 188 619 194
1003 2 2 0 0 213 599 226
1004 2 2 0 0 306 599 402
1005 2 2 0 0 97 607 25
1006 2 2 0 0 194 514 190
1007 2 2 0 0 373 628 76
1008 2 2 0 0 78 628 253
1009 2 2 0 0 42 47 43
1010 2 2 0 0 39 612 15
1011 2 2 0 0 16 612 29
1012 2 2 0 0 437 610 455
1013 2 2 0 0 487 497 13
1014 2 2 0 0 440 630 441
1015 2 2 0 0 479 713 562
1016 2 2 0 0 196 620 193
1017 2 2 0 0 456 572 340
1018 2 2 0 0 120 511 281
1019 2 2 0 0 577 578 235
1020 2 2 0 0 335 582 399
1021 2 2 0 0 314 741 683
1022 2 2 0 0 520 613 535
1023 2 2 0 0 585 634 584
1024 2 2 0 0 423 564 348
1025 2 2 0 0 457 561 411
1026 2 2 0 0 6 611 5
1027 2 2 0 0 385 620 537
1028 2 2 0 0 228 637 229
1029 2 2 0 0 366 637 249
1030 2 2 0 0 161 570 158
1031 2 2 0 0 434 640 435
1032 2 2 0 0 193 636 191
1033 2 2 0 0 410 606 106
1034 2 2 0 0 37 502 9
1035 2 2 0 0 36 503 17
1036 2 2 0 0 141 617 143
1037 2 2 0 0 363 627 401
1038 2 2 0 0 322 590 420
1039 2 2 0 0 357 618 128
1040 2 2 0 0 430 621 526
1041 2 2 0 0 540 687 103
1042 2 2 0 0 280 577 121
1043 2 2 0 0 276 575 318
1044 2 2 0 0 362 578 577
1045 2 2 0 0 109 649 496
1046 2 2 0 0 246 590 322
1047 2 2 0 0 326 569 381
1048 2 2 0 0 569 621 381
1049 2 2 0 0 269 569 272
1050 2 2 0 0 139 631 154
1051 2 2 0 0 649 664 496
1052 2 2 0 0 537 620 204
1053 2 2 0 0 355 461 49
1054 2 2 0 0 663 685 493
1055 2 2 0 0 479 745 207
1056 2 2 0 0 343 662 565
1057 2 2 0 0 212 557 177
1058 2 2 0 0 45 645 46
1059 2 2 0 0 496 670 109
1060 2 2 0 0 366 634 585
1061 2 2 0 0 384 616 531
1062 2 2 0 0 535 613 180
1063 2 2 0 0 391 632 364
1064 2 2 0 0 308 581 336
1065 2 2 0 0 344 625 462
1066 2 2 0 0 563 625 344
1067 2 2 0 0 13 497 14
1068 2 2 0 0 480 632 117
1069 2 2 0 0 371 668 585
1070 2 2 0 0 333 649 278
1071 2 2 0 0 387 601 521
1072 2 2 0 0 47 49 48
1073 2 2 0 0 358 615 428
1074 2 2 0 0 113 511 120
1075 2 2 0 0 527 617 382
1076 2 2 0 0 105 649 109
1077 2 2 0 0 398 573 307
1078 2 2 0 0 368 676 369
1079 2 2 0 0 180 613 178
1080 2 2 0 0 153 556 176
1081 2 2 0 0 432 657 367
1082 2 2 0 0 458 718 582
1083 2 2 0 0 207 614 183
1084 2 2 0 0 407 611 456
1085 2 2 0 0 244 623 517
1086 2 2 0 0 20 639 27
1087 2 2 0 0 476 675 87
1088 2 2 0 0 319 616 393
1089 2 2 0 0 474 707 197
1090 2 2 0 0 226 599 306
1091 2 2 0 0 47 48 43
1092 2 2 0 0 186 619 188
1093 2 2 0 0 412 732 328
1094 2 2 0 0 316 671 541
1095 2 2 0 0 293 734 478
1096 2 2 0 0 492 685 598
1097 2 2 0 0 528 629 532
1098 2 2 0 0 514 635 515
1099 2 2 0 0 531 616 319
1100 2 2 0 0 8 656 7
1101 2 2 0 0 387 602 601
1102 2 2 0 0 76 628 78
1103 2 2 0 0 122 618 516
1104 2 2 0 0 651 717 394
1105 2 2 0 0 423 623 564
1106 2 2 0 0 546 669 547
1107 2 2 0 0 4 679 34
1108 2 2 0 0 542 556 151
1109 2 2 0 0 548 609 135
1110 2 2 0 0 204 620 196
1111 2 2 0 0 529 629 528
1112 2 2 0 0 482 719 230
1113 2 2 0 0 258 627 591
1114 2 2 0 0 336 582 335
1115 2 2 0 0 197 686 667
1116 2 2 0 0 583 658 580
1117 2 2 0 0 85 675 98
1118 2 2 0 0 59 728 379
1119 2 2 0 0 400 625 338
1120 2 2 0 0 394 717 605
1121 2 2 0 0 471 650 450
1122 2 2 0 0 596 635 323
1123 2 2 0 0 249 637 228
1124 2 2 0 0 515 635 596
1125 2 2 0 0 338 625 563
1126 2 2 0 0 28 633 488
1127 2 2 0 0 566 622 361
1128 2 2 0 0 229 570 161
1129 2 2 0 0 468 654 465
1130 2 2 0 0 118 710 462
1131 2 2 0 0 15 612 16
1132 2 2 0 0 589 659 590
1133 2 2 0 0 526 621 268
1134 2 2 0 0 365 647 597
1135 2 2 0 0 579 583 235
1136 2 2 0 0 22 507 21
1137 2 2 0 0 342 682 264
1138 2 2 0 0 441 648 346
1139 2 2 0 0 191 636 198
1140 2 2 0 0 578 653 579
1141 2 2 0 0 135 609 134
1142 2 2 0 0 128 618 122
1143 2 2 0 0 378 681 310
1144 2 2 0 0 230 690 211
1145 2 2 0 0 210 690 232
1146 2 2 0 0 549 643 553
1147 2 2 0 0 233 661 247
1148 2 2 0 0 10 624 11
1149 2 2 0 0 640 709 435
1150 2 2 0 0 449 719 482
1151 2 2 0 0 452 726 33
1152 2 2 0 0 362 577 280
1153 2 2 0 0 318 575 433
1154 2 2 0 0 492 687 396
1155 2 2 0 0 586 734 293
1156 2 2 0 0 357 655 618
1157 2 2 0 0 277 567 259
1158 2 2 0 0 522 641 225
1159 2 2 0 0 511 640 281
1160 2 2 0 0 247 661 483
1161 2 2 0 0 610 693 39
1162 2 2 0 0 272 569 326
1163 2 2 0 0 490 695 70
1164 2 2 0 0 553 643 599
1165 2 2 0 0 532 629 284
1166 2 2 0 0 29 712 17
1167 2 2 0 0 632 665 117
1168 2 2 0 0 618 655 386
1169 2 2 0 0 241 699 576
1170 2 2 0 0 457 728 561
1171 2 2 0 0 485 572 456
1172 2 2 0 0 430 667 621
1173 2 2 0 0 582 672 458
1174 2 2 0 0 395 687 540
1175 2 2 0 0 504 594 44
1176 2 2 0 0 181 713 207
1177 2 2 0 0 197 707 184
1178 2 2 0 0 524 657 556
1179 2 2 0 0 475 536 498
1180 2 2 0 0 394 738 320
1181 2 2 0 0 51 714 561
1182 2 2 0 0 151 556 153
1183 2 2 0 0 437 693 610
1184 2 2 0 0 361 626 568
1185 2 2 0 0 611 679 5
1186 2 2 0 0 231 680 643
1187 2 2 0 0 462 706 118
1188 2 2 0 0 390 670 496
1189 2 2 0 0 602 642 601
1190 2 2 0 0 49 330 48
1191 2 2 0 0 391 665 632
1192 2 2 0 0 508 737 375
1193 2 2 0 0 450 650 552
1194 2 2 0 0 368 732 476
1195 2 2 0 0 578 579 235
1196 2 2 0 0 402 581 308
1197 2 2 0 0 43 486 41
1198 2 2 0 0 562 713 179
1199 2 2 0 0 592 632 480
1200 2 2 0 0 416 641 522
1201 2 2 0 0 372 668 371
1202 2 2 0 0 452 712 439
1203 2 2 0 0 282 720 455
1204 2 2 0 0 556 657 176
1205 2 2 0 0 364 632 592
1206 2 2 0 0 403 726 452
1207 2 2 0 0 465 654 623
1208 2 2 0 0 278 649 105
1209 2 2 0 0 154 652 617
1210 2 2 0 0 383 688 603
1211 2 2 0 0 451 719 447
1212 2 2 0 0 317 709 640
1213 2 2 0 0 604 711 642
1214 2 2 0 0 382 652 383
1215 2 2 0 0 601 642 389
1216 2 2 0 0 284 671 316
1217 2 2 0 0 599 643 402
1218 2 2 0 0 388 633 624
1219 2 2 0 0 267 678 311
1220 2 2 0 0 337 681 530
1221 2 2 0 0 279 661 233
1222 2 2 0 0 605 738 394
1223 2 2 0 0 33 677 504
1224 2 2 0 0 386 655 387
1225 2 2 0 0 547 669 631
1226 2 2 0 0 562 731 479
1227 2 2 0 0 360 648 595
1228 2 2 0 0 432 692 657
1229 2 2 0 0 367 657 524
1230 2 2 0 0 633 695 488
1231 2 2 0 0 415 473 341
1232 2 2 0 0 644 672 336
1233 2 2 0 0 551 633 388
1234 2 2 0 0 533 648 360
1235 2 2 0 0 407 679 611
1236 2 2 0 0 323 635 615
1237 2 2 0 0 530 681 529
1238 2 2 0 0 393 651 394
1239 2 2 0 0 387 655 602
1240 2 2 0 0 238 703 574
1241 2 2 0 0 594 677 505
1242 2 2 0 0 559 692 560
1243 2 2 0 0 621 667 381
1244 2 2 0 0 405 674 376
1245 2 2 0 0 325 732 368
1246 2 2 0 0 623 654 517
1247 2 2 0 0 581 644 336
1248 2 2 0 0 346 648 533
1249 2 2 0 0 517 654 279
1250 2 2 0 0 477 705 481
1251 2 2 0 0 481 705 355
1252 2 2 0 0 561 728 57
1253 2 2 0 0 379 705 477
1254 2 2 0 0 617 652 382
1255 2 2 0 0 30 650 500
1256 2 2 0 0 376 674 385
1257 2 2 0 0 518 715 519
1258 2 2 0 0 474 667 430
1259 2 2 0 0 478 734 294
1260 2 2 0 0 624 633 28
1261 2 2 0 0 186 707 619
1262 2 2 0 0 64 663 475
1263 2 2 0 0 597 647 258
1264 2 2 0 0 377 738 605
1265 2 2 0 0 31 735 467
1266 2 2 0 0 27 718 458
1267 2 2 0 0 419 673 68
1268 2 2 0 0 616 722 393
1269 2 2 0 0 24 723 419
1270 2 2 0 0 397 638 48
1271 2 2 0 0 404 730 460
1272 2 2 0 0 91 676 472
1273 2 2 0 0 622 626 361
1274 2 2 0 0 7 656 32
1275 2 2 0 0 576 697 277
1276 2 2 0 0 471 691 650
1277 2 2 0 0 536 663 373
1278 2 2 0 0 484 691 471
1279 2 2 0 0 552 650 30
1280 2 2 0 0 311 678 600
1281 2 2 0 0 486 729 5
1282 2 2 0 0 418 673 666
1283 2 2 0 0 232 680 231
1284 2 2 0 0 5 679 4
1285 2 2 0 0 117 665 539
1286 2 2 0 0 384 702 616
1287 2 2 0 0 557 702 221
1288 2 2 0 0 87 675 85
1289 2 2 0 0 225 711 604
1290 2 2 0 0 505 677 571
1291 2 2 0 0 483 661 494
1292 2 2 0 0 263 565 375
1293 2 2 0 0 504 677 594
1294 2 2 0 0 582 718 399
1295 2 2 0 0 645 714 46
1296 2 2 0 0 534 708 392
1297 2 2 0 0 643 680 402
1298 2 2 0 0 18 712 452
1299 2 2 0 0 392 670 390
1300 2 2 0 0 221 702 603
1301 2 2 0 0 496 664 391
1302 2 2 0 0 606 710 118
1303 2 2 0 0 655 703 602
1304 2 2 0 0 608 676 91
1305 2 2 0 0 194 684 514
1306 2 2 0 0 541 671 378
1307 2 2 0 0 154 669 652
1308 2 2 0 0 399 718 639
1309 2 2 0 0 405 715 674
1310 2 2 0 0 33 726 677
1311 2 2 0 0 629 671 284
1312 2 2 0 0 468 735 495
1313 2 2 0 0 469 704 408
1314 2 2 0 0 427 745 479
1315 2 2 0 0 294 734 251
1316 2 2 0 0 461 705 379
1317 2 2 0 0 385 674 636
1318 2 2 0 0 657 692 176
1319 2 2 0 0 561 714 411
1320 2 2 0 0 631 669 154
1321 2 2 0 0 264 682 265
1322 2 2 0 0 43 638 486
1323 2 2 0 0 48 638 43
1324 2 2 0 0 194 744 684
1325 2 2 0 0 381 686 380
1326 2 2 0 0 658 716 589
1327 2 2 0 0 263 567 565
1328 2 2 0 0 310 681 337
1329 2 2 0 0 493 685 492
1330 2 2 0 0 64 685 663
1331 2 2 0 0 309 678 267
1332 2 2 0 0 600 678 431
1333 2 2 0 0 538 694 333
1334 2 2 0 0 598 685 64
1335 2 2 0 0 551 695 633
1336 2 2 0 0 560 699 241
1337 2 2 0 0 211 690 210
1338 2 2 0 0 2 723 3
1339 2 2 0 0 630 708 441
1340 2 2 0 0 467 735 468
1341 2 2 0 0 396 687 395
1342 2 2 0 0 35 507 22
1343 2 2 0 0 259 567 263
1344 2 2 0 0 417 673 418
1345 2 2 0 0 614 686 197
1346 2 2 0 0 392 708 630
1347 2 2 0 0 5 729 6
1348 2 2 0 0 279 725 661
1349 2 2 0 0 6 729 26
1350 2 2 0 0 357 703 655
1351 2 2 0 0 514 684 635
1352 2 2 0 0 540 733 538
1353 2 2 0 0 374 741 593
1354 2 2 0 0 176 692 559
1355 2 2 0 0 650 691 500
1356 2 2 0 0 484 736 691
1357 2 2 0 0 83 733 540
1358 2 2 0 0 558 740 372
1359 2 2 0 0 626 697 555
1360 2 2 0 0 436 693 437
1361 2 2 0 0 375 737 374
1362 2 2 0 0 475 663 536
1363 2 2 0 0 636 674 198
1364 2 2 0 0 674 715 198
1365 2 2 0 0 70 695 551
1366 2 2 0 0 406 721 407
1367 2 2 0 0 677 726 571
1368 2 2 0 0 258 647 627
1369 2 2 0 0 448 701 451
1370 2 2 0 0 458 672 506
1371 2 2 0 0 229 700 570
1372 2 2 0 0 684 744 428
1373 2 2 0 0 570 700 544
1374 2 2 0 0 678 742 431
1375 2 2 0 0 646 741 314
1376 2 2 0 0 603 702 384
1377 2 2 0 0 478 731 293
1378 2 2 0 0 309 742 678
1379 2 2 0 0 380 686 614
1380 2 2 0 0 494 725 468
1381 2 2 0 0 500 691 38
1382 2 2 0 0 635 684 615
1383 2 2 0 0 661 725 494
1384 2 2 0 0 679 721 34
1385 2 2 0 0 509 510 35
1386 2 2 0 0 46 714 51
1387 2 2 0 0 615 684 428
1388 2 2 0 0 432 742 689
1389 2 2 0 0 179 713 181
1390 2 2 0 0 26 739 645
1391 2 2 0 0 35 510 507
1392 2 2 0 0 574 703 357
1393 2 2 0 0 184 707 186
1394 2 2 0 0 39 693 612
1395 2 2 0 0 665 694 539
1396 2 2 0 0 312 708 534
1397 2 2 0 0 554 689 309
1398 2 2 0 0 1 737 508
1399 2 2 0 0 519 717 520
1400 2 2 0 0 277 697 622
1401 2 2 0 0 389 711 641
1402 2 2 0 0 495 736 484
1403 2 2 0 0 17 712 18
1404 2 2 0 0 212 722 557
1405 2 2 0 0 455 720 438
1406 2 2 0 0 622 697 626
1407 2 2 0 0 664 694 665
1408 2 2 0 0 447 719 449
1409 2 2 0 0 669 688 652
1410 2 2 0 0 612 693 436
1411 2 2 0 0 619 744 194
1412 2 2 0 0 57 728 59
1413 2 2 0 0 579 658 583
1414 2 2 0 0 438 727 525
1415 2 2 0 0 539 733 83
1416 2 2 0 0 479 731 478
1417 2 2 0 0 691 736 38
1418 2 2 0 0 401 724 400
1419 2 2 0 0 420 660 2
1420 2 2 0 0 328 732 325
1421 2 2 0 0 320 738 453
1422 2 2 0 0 428 744 429
1423 2 2 0 0 431 742 432
1424 2 2 0 0 425 745 427
1425 2 2 0 0 408 743 434
1426 2 2 0 0 571 726 403
1427 2 2 0 0 119 727 523
1428 2 2 0 0 625 706 462
1429 2 2 0 0 525 730 404
1430 2 2 0 0 499 736 495
1431 2 2 0 0 468 725 654
1432 2 2 0 0 336 672 582
1433 2 2 0 0 198 715 518
1434 2 2 0 0 400 724 706
1435 2 2 0 0 402 680 581
1436 2 2 0 0 589 716 659
1437 2 2 0 0 727 730 525
1438 2 2 0 0 664 665 391
1439 2 2 0 0 337 740 558
1440 2 2 0 0 293 731 562
1441 2 2 0 0 523 720 282
1442 2 2 0 0 460 730 119
1443 2 2 0 0 641 711 225
1444 2 2 0 0 429 744 619
1445 2 2 0 0 119 730 727
1446 2 2 0 0 651 722 212
1447 2 2 0 0 38 736 499
1448 2 2 0 0 667 686 381
1449 2 2 0 0 652 688 383
1450 2 2 0 0 410 710 606
1451 2 2 0 0 644 701 448
1452 2 2 0 0 666 673 419
1453 2 2 0 0 704 743 408
1454 2 2 0 0 251 734 586
1455 2 2 0 0 400 706 625
1456 2 2 0 0 546 688 669
1457 2 2 0 0 668 700 229
1458 2 2 0 0 538 733 694
1459 2 2 0 0 333 694 664
1460 2 2 0 0 565 662 375
1461 2 2 0 0 720 727 438
1462 2 2 0 0 372 700 668
1463 2 2 0 0 579 716 658
1464 2 2 0 0 642 711 389
1465 2 2 0 0 355 705 461
1466 2 2 0 0 407 721 679
1467 2 2 0 0 523 727 720
1468 2 2 0 0 654 725 279
1469 2 2 0 0 639 718 27
1470 2 2 0 0 694 733 539
1471 2 2 0 0 393 722 651
1472 2 2 0 0 645 739 397
1473 2 2 0 0 683 741 374
1474 2 2 0 0 397 739 638
1475 2 2 0 0 653 716 579
1476 2 2 0 0 666 723 660
1477 2 2 0 0 419 723 666
1478 2 2 0 0 374 737 683
1479 2 2 0 0 593 741 646
1480 2 2 0 0 683 737 1
1481 2 2 0 0 689 742 309
1482 2 2 0 0 660 723 2
1483 2 2 0 0 23 25 1
1484 2 2 0 0 25 607 1
1485 2 2 0 0 3 34 2
1486 2 2 0 0 34 415 2
$EndElements
