$MeshFormat
2.2 0 8
$EndMeshFormat
$Nodes
745
1 5.3161656503871253e-05 2.5294954259478238e-05 9.8196832186990416e-04
2 7.1115396665582528e-05 -3.3103447438263969e-05 -9.7962217790821191e-04
3 1.3117200558824564e-04 2.3847356094646948e-05 -9.7351295668303916e-04
4 2.5130790152410714e-04 1.6027232550159763e-05 -9.5181775117641684e-04
5 3.7572358626079475e-04 2.2962113107478846e-05 -9.1222123650025987e-04
6 4.7902713785834852e-04 1.3903889545556346e-06 -8.6506995036781352e-04
7 6.0746688544375009e-04 -4.2780172236407989e-06 -7.8482235397934759e-04
8 7.2132598750498011e-04 -6.5915214865912592e-06 -6.8748349300389955e-04
9 8.3009203070410977e-04 -4.4081794804312775e-06 -5.5913200407916815e-04
10 9.1588571207055222e-04 1.8592358584615667e-06 -4.1312642544444702e-04
11 9.6839227276479154e-04 1.0901624616906538e-05 -2.7694889886241777e-04
12 9.9878742024629512e-04 3.5231540585632862e-06 -1.4226730715109057e-04
13 1.0092999626413991e-03 8.8001613890300278e-06 1.3719395177654065e-06
14 9.9774275273556358e-04 8.8448369539587127e-06 1.4713907838783077e-04
15 9.6478099390447244e-04 1.7789279495661103e-06 2.8819742973052430e-04
16 9.0851924512613965e-04 7.8419205817773664e-06 4.2824277174319134e-04
17 8.2989016502326839e-04 5.0628857381847218e-06 5.5951220789961622e-04
18 7.2600400531616074e-04 2.3618700145117033e-06 6.8308767124632705e-04
19 6.1255343391732368e-04 9.7094585236919492e-06 7.8147459104167707e-04
20 4.9189229751674135e-04 1.7452021738693372e-06 8.5849897475782618e-04
21 3.6650345513507417e-04 -6.7737787575435840e-07 9.1606921377727956e-04
22 2.3997673415441435e-04 -5.5205601173405134e-06 9.5502789493930507e-04
23 1.2991697061832041e-04 -1.7271006433899377e-05 9.7452085175815119e-04
24 1.5744672416993492e-04 1.2181649414945383e-04 -9.6369849974982987e-04
25 1.5639857332761320e-04 1.0424626034807138e-04 9.6660593070111627e-04
26 5.4239116717903465e-04 1.0507286713145545e-04 -8.2198696849081622e-04
27 5.5443281761248964e-04 -1.0364173558352773e-04 8.1527145102472680e-04
28 9.7821940634341248e-04 1.3667110183145133e-04 -2.0248237580922874e-04
29 8.5641710514994327e-04 1.4373869107417428e-04 5.0256412583253444e-04
30 9.3714320903987253e-04 -1.1755976130694738e-04 3.4649943229223516e-04
31 9.7742245027810401e-04 -1.2065070137994145e-04 -2.1480862393350898e-04
32 5.3525675013997283e-04 -1.1364025663800381e-04 -8.2593666906630864e-04
33 5.4811203356132246e-04 1.0763735730989954e-04 8.1870731758184549e-04
34 1.5532435290882738e-04 -8.6634866340990982e-05 -9.6792944470179467e-04
35 1.8187352694192332e-04 -9.7025442261366418e-05 9.6236714089682415e-04
36 7.8155674419429753e-04 -1.2244431276721161e-04 6.1068735293182434e-04
37 7.6962626353067529e-04 1.2141472167763798e-04 -6.2450802458999721e-04
38 9.9949700098179604e-04 -1.1141888849159641e-04 8.0355660198696573e-05
39 9.7642171208571797e-04 1.2468427117609388e-04 2.1587644160265970e-04
40 8.7140049199459907e-04 -1.2945650022067536e-04 -4.8000110007157253e-04
41 2.8592532981314665e-04 1.2461844296932217e-04 -9.3449709359957455e-04
42 2.0449381028128985e-04 2.2465943201162072e-04 -9.3685882434931835e-04
43 3.1777916899045658e-04 2.2608017284400124e-04 -9.0584802508124080e-04
44 2.9480688008025633e-04 1.0623133241767614e-04 9.3474002140469387e-04
45 6.6740098783586732e-04 1.1682287060384660e-04 -7.2821403077829618e-04
46 7.0908754466277892e-04 2.4117488715856490e-04 -6.5833709405423429e-04
47 2.5834499518355826e-04 3.3420002807147466e-04 -8.9183197496436244e-04
48 3.9329317789446589e-04 3.3752008549585557e-04 -8.4245088482762741e-04
49 3.2603171346641015e-04 4.3626660509915436e-04 -8.2639535813701435e-04
50 8.0724022107441060e-04 2.4327738005885390e-04 -5.3977367598068377e-04
51 7.2773377956560363e-04 3.6028954609857426e-04 -5.8303194769654257e-04
52 8.1296397136497857e-04 3.6690744197168449e-04 -4.5903846258562458e-04
53 7.3214125976405788e-04 4.8148490822099381e-04 -4.8666927483579899e-04
54 8.0572177073194801e-04 4.8096911482640602e-04 -3.6041730690373482e-04
55 7.1665728698218074e-04 5.9311585836545398e-04 -3.7945760863617150e-04
56 7.8327261156769016e-04 5.8301639377172779e-04 -2.4660952171691198e-04
57 6.2945427709246540e-04 5.9583313455722098e-04 -5.0184733706764141e-04
58 6.0587131685119059e-04 6.9755609416618136e-04 -3.9328106293318020e-04
59 5.1463563660242718e-04 6.9137357753671703e-04 -5.0941097562377758e-04
60 4.8876219099119498e-04 7.7879630650717620e-04 -4.0280345208679294e-04
61 3.9287576705407959e-04 7.6066123429684802e-04 -5.1887250214265122e-04
62 3.6047486389379673e-04 8.4389003927171850e-04 -4.0671093607123822e-04
63 1.9659894616009326e-04 4.4359523029935226e-04 -8.6089543593631903e-04
64 4.5070288716568291e-04 8.4971824642440645e-04 -2.9351583114111746e-04
65 2.5866720227049313e-04 8.1785401239401498e-04 -5.1634145743757927e-04
66 2.3222089001946475e-04 8.9734014415211358e-04 -3.8636326597308224e-04
67 1.2264810716920618e-04 8.6893111610841952e-04 -4.8381365238057804e-04
68 9.9522263353182632e-05 2.3655617886532903e-04 -9.4986317100264803e-04
69 1.4250921788968308e-04 7.6560836134431393e-04 -6.2515506606824903e-04
70 8.6378504095521757e-04 4.6912097001365800e-04 -2.2054160897829353e-04
71 8.3452890102319775e-04 5.5573931169207815e-04 -1.1053850871640429e-04
72 7.3981493923196509e-04 6.7164110298510151e-04 -1.3482898882119954e-04
73 7.7934536621180272e-04 6.4083304416618367e-04 7.0944002079045005e-06
74 6.7740171670182712e-04 7.4678865351188314e-04 -2.7103422258091517e-05
75 6.9940796181520483e-04 7.1764757617193424e-04 1.1113298529408892e-04
76 6.0421985338282775e-04 8.0364443350368808e-04 7.6908368535051193e-05
77 6.1771269932074039e-04 7.6646180817037737e-04 2.1350797560168534e-04
78 5.1002105120787316e-04 8.5101986501815189e-04 1.7623475373962643e-04
79 9.6773003424492382e-05 9.3944173315533923e-04 -3.4382425221783359e-04
80 -1.5654261118507069e-05 9.0492642406603296e-04 -4.3232923218210846e-04
81 2.3333792515793010e-04 2.0616610283930237e-04 9.3526303652559763e-04
82 5.2597633221484715e-04 7.9659853186034367e-04 3.1750266918381318e-04
83 -4.1569630585948666e-05 9.5828340172106569e-04 -3.0132405403083444e-04
84 4.0852826974277582e-04 8.7811264701253286e-04 2.7375605319672648e-04
85 4.2785126959448295e-04 8.1195760528531425e-04 4.0710088560412479e-04
86 2.9811971742439231e-04 8.8340180195191223e-04 3.7415395646763844e-04
87 3.0848720674443134e-04 8.0820918217008268e-04 5.0455347502184231e-04
88 1.8890295663872414e-04 8.6341211668292909e-04 4.7283274522296934e-04
89 1.6531476313694384e-04 9.2939726281125159e-04 3.4502033843607330e-04
90 5.4322284960604544e-05 9.0335693116753665e-04 4.3283840483841486e-04
91 6.9655979773981086e-05 8.2368657420134285e-04 5.6251682364196192e-04
92 -6.0490317514045138e-05 8.5527368457270422e-04 5.1629921003658525e-04
93 -8.4038446219653740e-05 9.2129468312444722e-04 3.8998694587232013e-04
94 -1.9188737103500609e-04 8.6354227794942944e-04 4.7058411455397223e-04
95 -1.5823429829353122e-04 8.0053877442067196e-04 5.7519926379880006e-04
96 -2.1937697620402714e-04 9.2031592173628029e-04 3.3865143350310676e-04
97 1.1219703713129914e-04 2.1858070226365224e-04 9.5352609558318981e-04
98 5.3208180424111208e-04 7.1775990852888472e-04 4.5796667704881472e-04
99 1.7691444139392919e-04 3.2168784068898736e-04 9.1559173504728053e-04
100 5.1565753670064236e-05 3.0531997811132573e-04 9.3556748682261108e-04
101 -1.8469387073218986e-05 2.0899963704285911e-04 9.6161837814223911e-04
102 -7.7063670464971889e-05 3.0181361991481941e-04 9.3498395119949093e-04
103 2.0849252831526559e-04 9.5297109438180158e-04 -2.4797472963433985e-04
104 -1.1160030013617544e-04 9.6598723329621348e-04 2.5865604028891935e-04
105 -2.4947991490845714e-04 9.5423282775702043e-04 2.0240374599815139e-04
106 -3.5343860777905557e-04 8.9810118839803491e-04 2.8308492998947997e-04
107 -1.5674632150289395e-04 9.1517533312582516e-04 -3.8177973649510867e-04
108 -1.2941142701046579e-04 8.5208259187343003e-04 -5.0907132005652289e-04
109 -3.8030460425038528e-04 9.2037955286579289e-04 1.5139995754411494e-04
110 -2.6495678998043372e-04 8.5419285931464942e-04 -4.5275401144523922e-04
111 -2.3828350657050911e-04 7.7172440579661560e-04 -5.8753585090137608e-04
112 -3.6607340302090659e-04 7.7312167264793549e-04 -5.1936765337491056e-04
113 -3.2837356442851469e-04 6.8104957017181512e-04 -6.4956624762547435e-04
114 -4.6503483285238284e-04 6.7499168891279747e-04 -5.7144410650431334e-04
115 -4.1987372560595772e-04 5.8340136936945212e-04 -6.8857907252724791e-04
116 -5.0069478481626372e-04 7.4467751507612163e-04 -4.4706217232820755e-04
117 -2.8745620851941507e-04 9.0826775261968178e-04 -3.2014450693359890e-04
118 -2.8644966210291783e-04 7.7923586223029224e-04 5.5809034620254256e-04
119 7.1212870229317188e-04 6.7502183919573237e-04 2.2651927598831546e-04
120 -2.7870926063599318e-04 5.6979071123636595e-04 -7.6353962487361719e-04
121 -3.5971147898110475e-04 4.7201947969910542e-04 -7.9411391553111082e-04
122 -4.9620793899697092e-04 4.7155055536604514e-04 -7.2090524924285095e-04
123 -4.3884978169841867e-04 3.6067010695981324e-04 -8.1145614217950255e-04
124 -5.9077841349640153e-04 6.3880988422485268e-04 -4.9555062276901895e-04
125 -6.2161324167467943e-04 6.9873539728579077e-04 -3.6608493110771082e-04
126 -7.0086404696517929e-04 5.9031817372118516e-04 -4.0887158159874735e-04
127 -4.8748351643936792e-04 8.4981466711018237e-04 2.3103200074741268e-04
128 -5.6069053153974351e-04 3.4878231599029400e-04 -7.4204423431999675e-04
129 -4.9967312394417801e-04 2.4482655517630241e-04 -8.1917013227163064e-04
130 -6.2207039201957290e-04 2.1661763913495178e-04 -7.4363328003316782e-04
131 -5.5207170927250228e-04 1.1694693600299214e-04 -8.1421837686654211e-04
132 -6.7409137924278803e-04 8.9936660636816561e-05 -7.2542631560926500e-04
133 -5.9551644504906296e-04 -1.4615113092971824e-05 -7.9290969666853271e-04
134 -7.1775041445532788e-04 -3.7376839897758441e-05 -6.8933183064449628e-04
135 -6.2916948986395762e-04 -1.4396528131169065e-04 -7.5519631533035978e-04
136 -7.8846505822243774e-04 7.4423864902459550e-05 -6.0835368625956172e-04
137 -8.2096505710437385e-04 -5.6359718203913632e-05 -5.6801946200277307e-04
138 -8.7720476640247591e-04 5.1005513378137348e-05 -4.8193631731665893e-04
139 -8.9815635315177258e-04 -8.7102860140756262e-05 -4.3842599354977619e-04
140 -9.4045934880116128e-04 1.6352806280473432e-05 -3.5361468706762543e-04
141 -9.5153788643131520e-04 -1.1644717028884293e-04 -3.0466770741060492e-04
142 -9.8345476875652798e-04 -1.5565538022561518e-05 -2.1630897906475382e-04
143 -9.8299014622344068e-04 -1.4619275552402205e-04 -1.6725813850428480e-04
144 -1.0044414066959467e-03 -3.9665769554312365e-05 -7.9255878773849356e-05
145 -9.9294511038995332e-04 -1.7515125963909158e-04 -2.8349293974625241e-05
146 -1.0050612632684370e-03 -6.2709209260606970e-05 5.4862850648649147e-05
147 -9.8406222852796929e-04 -1.9176420068110555e-04 1.0874605759773277e-04
148 -9.6145715072921999e-04 -3.0488940676514091e-04 1.9733928802160517e-05
149 -9.4489036730319718e-04 -3.1385122070792966e-04 1.5857600505318230e-04
150 -9.5741039353514231e-04 -1.9514844970023438e-04 2.4426744471295846e-04
151 -9.0814799742868640e-04 -3.1806673480684974e-04 2.9513963366264306e-04
152 -9.0738146674876037e-04 -1.9501584974839433e-04 3.8500250389529670e-04
153 -8.4745313756522881e-04 -3.2590445622341599e-04 4.2815116258507956e-04
154 -9.0065149838858781e-04 -2.2037333511291097e-04 -3.8597608543509011e-04
155 -8.3231835965653130e-04 -2.0688731220905451e-04 5.1737875358898286e-04
156 -7.6124772794092872e-04 -3.3688076063334197e-04 5.5509368940409782e-04
157 -8.8456147535850090e-04 -7.4092973080417724e-05 4.6685274680622604e-04
158 -7.3912785579097271e-04 -2.1771680460343931e-04 6.3434545197791183e-04
159 -6.5914696033228970e-04 -3.3258530762128553e-04 6.6991775404015336e-04
160 -1.0055308952793801e-03 7.6587761377522583e-05 6.1465664113703685e-06
161 -6.2413582676620416e-04 -2.1254797225878861e-04 7.4399516630333092e-04
162 -5.4346991230043863e-04 -3.1940373570787939e-04 7.6779223335068567e-04
163 -5.0560320079822601e-04 -1.1474853915573887e-04 -8.4300779073197979e-04
164 -5.2538935504167653e-04 -2.4639612664836477e-04 -8.0402729993770403e-04
165 -7.2107355082540148e-04 6.4583506605491771e-04 -2.7370377750675638e-04
166 -1.3594139831838928e-04 2.0371853911653470e-04 9.5372065348447662e-04
167 -2.0893682494692713e-04 3.0545806554937294e-04 9.1440703235853675e-04
168 -4.0165792068361619e-04 -2.0602216869030582e-04 -8.7904053586351110e-04
169 -4.2486697565243767e-04 -3.4035039534361180e-04 -8.2762982977756575e-04
170 -5.4469844016921567e-04 -3.7996478728493348e-04 -7.3989488856222255e-04
171 -4.4150852413676151e-04 -4.7306674761156653e-04 -7.5424476331373410e-04
172 -5.5059988494448036e-04 -5.0738574038786360e-04 -6.5882354215623593e-04
173 -4.3743798111409182e-04 -6.0010187048848004e-04 -6.6563763647750054e-04
174 -5.4546601937677415e-04 -6.2497896689266261e-04 -5.5941763903466198e-04
175 -4.2827367834298526e-04 -7.1104999725359074e-04 -5.5877485439761109e-04
176 -7.6845364173928400e-04 -4.4697084310521453e-04 4.6411722731817768e-04
177 -5.2205486733382627e-04 -7.3038260870236977e-04 -4.4827062605487950e-04
178 -4.1265779423396660e-04 -8.0419849323461754e-04 -4.3673449120371744e-04
179 -3.1155790821450448e-04 -7.8535855087358340e-04 -5.3708424275366044e-04
180 -2.8227025032775678e-04 -8.6809363527211379e-04 -4.1880164971147652e-04
181 -1.7993694910356934e-04 -8.3629642174758709e-04 -5.2112456459665131e-04
182 -1.4223495325387466e-04 -9.0918452211851406e-04 -4.0331123805262032e-04
183 -4.0452538778565902e-05 -8.6469405452317433e-04 -5.0556618915231441e-04
184 -2.3003354711865529e-06 -9.3110156607017461e-04 -3.7896530994753784e-04
185 -1.0190579541175402e-04 -9.6491774524706819e-04 -2.7015360725674855e-04
186 3.8568109568352215e-05 -9.7622579528549040e-04 -2.4592040696976567e-04
187 -5.1341687742439694e-05 -9.9750821224259506e-04 -1.4050475847074160e-04
188 8.9149800434580945e-05 -9.9802027900273440e-04 -1.1829274437142893e-04
189 -4.7396381757143575e-06 -1.0091021187202921e-03 -1.3821091916706589e-05
190 1.3188575484144997e-04 -1.0005532715095800e-03 1.2600291657573463e-05
191 3.2171449998574720e-05 -1.0020549315700065e-03 1.1265521234632754e-04
192 1.6934630023438077e-04 -9.8508313815153566e-04 1.3665814160382381e-04
193 6.3818691828816570e-05 -9.7714375594043826e-04 2.3816633094008181e-04
194 2.2260078963638210e-04 -9.7998443095605897e-04 -8.9590776872658991e-05
195 2.0252102152203865e-04 -9.5027972227387770e-04 2.6629011878733557e-04
196 9.9685648482333213e-05 -9.3058573676767936e-04 3.6809648936022118e-04
197 1.0581831253832032e-04 -8.7666706685720708e-04 -4.7733978997417171e-04
198 -9.8476948523601796e-05 -1.0005360137220003e-03 8.2646517365794026e-05
199 2.3348579809174120e-04 -8.9345657646747580e-04 3.9681229127836245e-04
200 3.3520547594911653e-04 -9.0288575392435066e-04 2.9420183492007097e-04
201 3.6509589910943378e-04 -8.3822126631817465e-04 4.1641099744702410e-04
202 1.3157944103140421e-04 -8.6121669464508618e-04 4.9641802157997510e-04
203 4.5928737089932184e-04 -8.4019989197447239e-04 3.1087949911123679e-04
204 -1.9231470504984468e-06 -8.8746946744610049e-04 4.6827503747968655e-04
205 2.8326749333348280e-05 -8.0655117404118053e-04 5.9053772568259868e-04
206 -9.1322470323887579e-04 -4.2363975142566818e-04 6.5611366579771115e-05
207 -8.4657473155885931e-05 -7.6835732250884667e-04 -6.3269258359415317e-04
208 -1.0251178520140140e-04 -8.2587460874169918e-04 5.5640475725599850e-04
209 -6.8440062467964709e-05 -7.3069624738412585e-04 6.7510466264759342e-04
210 4.8203554292684347e-04 -7.6785494666244776e-04 4.3194312043771466e-04
211 5.7336999962692356e-04 -7.6048859208946830e-04 3.2503856422672495e-04
212 -4.9854319905699067e-04 -8.1013478007388809e-04 -3.2717418200359347e-04
213 6.0432515828764421e-05 -7.0199491769338488e-04 7.0410444283971671e-04
214 -3.4677634792670150e-05 -6.1445143994173193e-04 7.7942021623367958e-04
215 -3.1019484010879077e-04 -2.7733017135335002e-04 -8.9547171412047240e-04
216 -2.0676383397803943e-04 -7.4748858489661447e-04 6.2936367145679812e-04
217 -2.4262519370705108e-04 -8.3000185432040134e-04 5.0699040257317718e-04
218 5.4998921675103343e-04 -8.2114680819953814e-04 1.9994516064754923e-04
219 6.5932762588575579e-04 -7.3050856943744700e-04 2.1966524628035488e-04
220 6.2687026838358887e-04 -7.8590627902007143e-04 8.9623533085966990e-05
221 -6.3723743033768695e-04 -6.3629514008753526e-04 -4.4262037220988993e-04
222 7.3075003368336692e-04 -6.8791547972355221e-04 1.0727156090870338e-04
223 6.9114208667041396e-04 -7.3532798332895724e-04 -2.3713625106162445e-05
224 -2.8031368985498539e-04 -1.6402564778161130e-04 -9.3047425500457348e-04
225 -9.6680482009537186e-04 1.1600838541596346e-04 -2.5373169225728653e-04
226 9.1566776989457634e-05 -5.8024187971466397e-04 7.9968653624948208e-04
227 -9.1616449211533844e-06 -4.8824868401459848e-04 8.6072634529900643e-04
228 -4.9940583443124976e-04 -1.9255033660543820e-04 8.3342959110067362e-04
229 -5.8656274413923732e-04 -9.2646226480862812e-05 7.9430629062485041e-04
230 6.6630653174216102e-04 -6.6855946940288895e-04 3.4806538129939684e-04
231 3.8875387688597430e-04 -7.5360041334805717e-04 5.3290664362151598e-04
232 5.0521239790505125e-04 -6.5798457806189405e-04 5.6139625392292558e-04
233 7.8434396141368939e-04 -6.3513140154668971e-04 -1.2955803464953107e-05
234 7.4061454074925951e-04 -6.7003481424236680e-04 -1.4205115664934725e-04
235 -3.7640919295331882e-04 2.5002344214249817e-04 -8.7820633507773702e-04
236 2.9290601381578749e-04 3.2027107189902142e-04 8.8742538697916189e-04
237 -4.1596410551964999e-04 -2.8105821869616355e-04 8.5312830692756494e-04
238 -8.3839228165660676e-04 1.9907847272311875e-04 -5.1123000518374536e-04
239 6.4177336769021237e-04 -7.6244542767813644e-04 -1.5592709558341083e-04
240 6.8918208225174132e-04 -6.8333267261546499e-04 -2.7008945829151384e-04
241 -5.7039938697888955e-04 -4.4622965015807850e-04 6.8465857546918445e-04
242 5.7732633019896124e-04 -7.7693157584581484e-04 -2.7864758322455874e-04
243 6.1416597404950410e-04 -6.8810549001307975e-04 -3.9952809111315718e-04
244 7.2049511715905051e-04 -5.8910053309740341e-04 -3.8073706634697758e-04
245 6.3209054397789265e-04 -5.8473456724404910e-04 -5.1324443981907194e-04
246 -1.8525459964490441e-04 -2.3897633008973488e-04 -9.3790511478709958e-04
247 8.2316727522257127e-04 -5.7312859936152493e-04 1.1099272351763263e-04
248 2.2269104794994354e-04 4.3009292509565338e-04 8.6212871579202058e-04
249 -3.7611968136073905e-04 -1.5473272285936637e-04 8.9984860965872939e-04
250 3.5056087474178273e-04 4.2599751414985762e-04 8.2287938972790142e-04
251 -2.0602940859985996e-04 -3.6359942390608660e-04 -8.9475762406741161e-04
252 -8.6396584890273832e-05 -3.3280939228018375e-04 -9.2444839385351005e-04
253 3.8272794414687252e-04 9.2002694285270184e-04 1.5094309213502599e-04
254 -6.3055288098012440e-04 7.5024607008927259e-04 -2.2939027140114941e-04
255 -7.2187660299499485e-04 6.8912915848614404e-04 -1.3783315888323192e-04
256 -8.0546980336569131e-04 5.7773699562094541e-04 -1.7877005944001262e-04
257 -7.9665307403679322e-04 6.1554186066240576e-04 -5.0327349796722161e-05
258 -2.0590175386672126e-05 4.1495156578775323e-04 8.9560872460847413e-04
259 -2.8686081566211050e-04 -2.2791078975883185e-04 9.1631964860033823e-04
260 -2.6882181483697077e-04 2.0682684903872080e-04 9.2575353049851022e-04
261 -3.4549248127620225e-04 2.9791248181964419e-04 8.7661901791190159e-04
262 -2.5265532122238144e-04 -1.0343644637111016e-04 9.4665942000978149e-04
263 -1.6310579238264925e-04 -1.9019085814516370e-04 9.5261722388043015e-04
264 -8.7269288606685075e-04 4.9723311723610562e-04 -8.5030414711921289e-05
265 -8.5300066057903952e-04 5.3503561486717129e-04 5.0338230141292482e-05
266 -3.4158104239144141e-04 -7.4757417603941458e-04 5.7058087494644635e-04
267 -3.7129929524338438e-04 -8.2101226266655114e-04 4.4239540154033505e-04
268 5.1604331833088042e-04 -6.7963978402541046e-04 -5.2530722058351004e-04
269 5.2027637861410021e-04 -5.7198894792814174e-04 -6.3234259051043031e-04
270 6.2320981761457284e-04 -4.7834905272024764e-04 -6.1760062619769910e-04
271 5.0475451961482507e-04 -4.5575863110731041e-04 -7.2689967479675074e-04
272 4.0515048433696578e-04 -5.4633004835171611e-04 -7.2685044875093877e-04
273 -2.8006753960383845e-04 4.0944434428823363e-04 8.5557367141970791e-04
274 -4.1307071669432972e-04 4.0384699519147320e-04 8.0559572224563579e-04
275 3.8907110471914021e-04 -4.1533952606078752e-04 -8.1231797388467680e-04
276 2.8205795511957761e-04 -5.0670845774424510e-04 -8.0507549473655309e-04
277 -3.1922569014373119e-04 -3.5377133678203174e-04 8.6673048696231890e-04
278 -1.4004809715613788e-04 9.9014840865504269e-04 1.2316350398986235e-04
279 8.2365220572973557e-04 -5.6833850142049697e-04 -1.2624204762365764e-04
280 -2.2867487976578502e-04 4.5430436478761721e-04 -8.4815164755505895e-04
281 -1.5021593633345870e-04 5.6060323947192483e-04 -8.0324044111559966e-04
282 8.7323088017444549e-04 5.0619495589354646e-04 2.8979336806313862e-05
283 1.1438953173448012e-04 -4.6054960638418558e-04 8.6789754859633141e-04
284 -9.9784820139129640e-04 5.4156045007381348e-05 1.3076475743728012e-04
285 -9.1965115793455471e-04 -4.0808590925619701e-04 -7.2044505789108638e-05
286 -8.5787754234965200e-04 -5.3046250342393350e-04 -2.6648568323407547e-05
287 -8.4335302300799647e-04 -5.4203504342743326e-04 1.1130869438630749e-04
288 -7.7778473369816364e-04 -6.4247165827283352e-04 2.1411451470128452e-05
289 -7.5119006022285654e-04 -6.5333679855383289e-04 1.5992210002898345e-04
290 -6.8720339603499858e-04 -7.3528175530479664e-04 7.0630388918758126e-05
291 -1.9619084960356058e-04 -9.7564606037444713e-04 -1.6351519101292226e-04
292 -2.7384650368380084e-04 -8.9406926417566132e-04 3.6986080397639377e-04
293 -3.2502146396773456e-04 -5.4617061584481743e-04 -7.6396518292915047e-04
294 -1.0437643481999805e-04 -4.5600274843151447e-04 -8.7182843011263892e-04
295 -4.8082917514452231e-04 2.8508021166404496e-04 8.1814690939496597e-04
296 -5.4802118802237956e-04 3.8806621098053443e-04 7.3330247647309581e-04
297 -8.7430942480186923e-04 4.5381442173311027e-04 -2.0939192213981147e-04
298 -6.0424313520084571e-04 2.6970763134853573e-04 7.4179088189990226e-04
299 -6.6989171176842104e-04 3.6576908330503350e-04 6.4228543292424575e-04
300 -6.0465477006760055e-04 4.9329893451540915e-04 6.2240702265058167e-04
301 -7.1226115666537561e-04 4.6447966022255274e-04 5.2808860837810214e-04
302 -7.7491148630503767e-04 3.3581088133241967e-04 5.3669218817504127e-04
303 -2.9964792246065945e-04 -6.5820421049499710e-04 6.8588718108594424e-04
304 -6.3321877984776097e-04 5.9587222103050412e-04 4.9769364251249905e-04
305 -8.1244643564633062e-04 4.1950258541923510e-04 4.1421056186938677e-04
306 2.1917189805358174e-04 -5.3966168833642343e-04 8.0310378992324411e-04
307 2.4365762943209310e-04 -4.0973676982334934e-04 8.6674730219553462e-04
308 3.4581356460416506e-04 -4.8491263912648762e-04 7.9396707675639618e-04
309 -4.5786888508960328e-04 -7.3282626200282819e-04 5.0691877247290105e-04
310 -8.6133581190646900e-04 2.8867144896675359e-04 4.2629265070386329e-04
311 -4.0020443965446131e-04 -8.7172344244803711e-04 3.0560984585144621e-04
312 -7.7234249621625263e-04 6.4205201974111656e-04 8.3475549324365993e-05
313 -8.5500779370743037e-04 -5.1049436532428114e-04 -1.5744623489231694e-04
314 -7.8006647879930746e-05 9.6299081985311668e-05 9.7612829694624151e-04
315 -8.9092674915276229e-04 3.5761754735534688e-04 3.0148702652300658e-04
316 -9.8587449309561694e-04 1.9099612482760154e-04 8.8474882334931796e-05
317 -1.0717365815273744e-04 7.6084267548259680e-04 -6.3532848957693802e-04
318 2.5903782181603530e-04 -3.6930013171244307e-04 -8.7977589286257517e-04
319 -7.0086248336369782e-04 -7.2306989193794192e-04 -6.2626830425520035e-05
320 -6.0728668398724592e-04 -8.0539265346169149e-04 -4.3865606267143882e-06
321 -6.6036145559230752e-04 -4.0084067168836651e-04 -6.3194947469425063e-04
322 -7.5595620074358800e-05 -1.9785193813940619e-04 -9.6123317881274947e-04
323 5.1222835233871679e-04 -8.6642477719015443e-04 7.4209162251477262e-05
324 -6.2491973867054653e-04 7.8454615468332410e-04 -9.6215792606273013e-05
325 2.7916296834210497e-04 5.3456732370471712e-04 7.8759131824175123e-04
326 2.8555942907103939e-04 -6.3242726272647303e-04 -7.1423651275672145e-04
327 1.5620488934404449e-04 -5.8976346590250612e-04 -7.8360482625531485e-04
328 4.1389220978988063e-04 5.3484556610976512e-04 7.2910065317120971e-04
329 4.7624867538503883e-04 4.1583068770871453e-04 7.6580338944187872e-04
330 4.4840064012095993e-04 4.3482276905124328e-04 -7.7071046842985857e-04
331 4.4116650123539748e-07 9.9315495654173189e-04 1.6825089044297708e-04
332 -2.4069185478331993e-05 1.0070241737837600e-03 3.5722031220890525e-05
333 -1.5249670489036492e-04 9.9624502830577633e-04 5.1276169505465517e-07
334 1.1999696973809819e-04 9.9777694906713057e-04 7.7818549422208351e-05
335 3.5689145497525877e-04 -3.5040294074395928e-04 8.5408882925993332e-04
336 4.5721761960510198e-04 -4.2270302854978414e-04 7.7364933731899257e-04
337 -8.1461747094903770e-04 2.0636421884202545e-04 5.4266369231242167e-04
338 -3.5146952513186641e-04 5.0555041186005378e-04 7.7796718727151412e-04
339 -9.6548801367433090e-05 4.4871719435340729e-04 -8.7448363472413220e-04
340 3.4969194884019512e-04 -2.9477369979114009e-04 -8.7654112344232526e-04
341 3.2894371523780653e-05 -2.5343241290951007e-04 -9.5121532983267511e-04
342 -9.3899700565637241e-04 3.5573774553265510e-04 -9.7917698853609955e-05
343 1.6327956182019547e-05 -3.5424118197483465e-04 9.2087954147147648e-04
344 -5.2316758354735795e-04 6.1122298322870291e-04 5.9229276027448054e-04
345 -5.3389761024059252e-04 7.1699002420507916e-04 4.5626892157525178e-04
346 -6.5813255860762421e-04 6.6498281327873412e-04 3.6619683820303118e-04
347 5.9695372708529518e-04 -3.6133645882591229e-04 -7.1077303196508200e-04
348 7.1757258515878013e-04 -3.7486117517435385e-04 -5.8747449501577473e-04
349 5.3268641589618890e-04 5.1513175924613054e-04 6.6667168469582052e-04
350 6.0014596587995084e-04 3.9379243202534970e-04 6.9057863066958628e-04
351 6.5009258638574726e-04 4.9059831097264376e-04 5.7988308324665166e-04
352 7.1669631784579716e-04 3.5093668852874307e-04 6.0150072058213783e-04
353 7.5456727975943745e-04 4.4886200049428822e-04 4.8431716890845906e-04
354 -6.5212772493670774e-04 -7.4066598211036748e-04 2.0447394722881632e-04
355 2.5056685654601941e-04 5.4402037374542869e-04 -7.8968009065020432e-04
356 1.2700231276967767e-04 5.5538949399197102e-04 -8.1021265366638560e-04
357 -6.7345692430412555e-04 3.1997541442994117e-04 -6.6050755962949949e-04
358 5.2984115187371084e-04 -8.4270582306460705e-04 -1.6217544822151754e-04
359 4.6031297133952216e-04 -8.5074474921600961e-04 -2.8035819463318552e-04
360 -8.3102205980046097e-04 4.8880412102023498e-04 2.8763275270162901e-04
361 -1.2297653735949583e-04 -5.1890599055567173e-04 8.3487729921186322e-04
362 -1.6868351529928990e-04 3.3307449357401368e-04 -9.1255662431552096e-04
363 -2.1496223369708568e-04 5.0917717134058525e-04 8.2162727347279791e-04
364 -5.2198796980729048e-04 8.4247771956838275e-04 -1.7846818920894263e-04
365 1.5500772696366377e-04 5.3659417975658401e-04 8.1821934826413142e-04
366 -3.4448806832219328e-04 -2.7950658791991244e-05 9.2366319787820983e-04
367 -7.1373930821130470e-04 -6.4582952158859079e-04 2.9453386783587996e-04
368 2.0842946532924101e-04 6.5214481836421798e-04 7.2245429764498990e-04
369 8.6643866155811723e-05 6.2873672930782742e-04 7.6251664651950382e-04
370 6.8917277603521303e-04 -2.5521330968197723e-04 -6.7417667519997532e-04
371 -5.3040587623409024e-04 1.6211738663878184e-04 8.2109123216541800e-04
372 -6.5625318774201245e-04 1.3122361229722464e-04 7.3599947833205830e-04
373 5.6286888013895640e-04 8.3479467887732927e-04 -5.4672512709603500e-05
374 -1.2828116101945032e-04 -8.0423574994584171e-05 9.7238301038347073e-04
375 -5.7058429017596400e-05 -1.6428951337394830e-04 9.6862364259341896e-04
376 -3.0371719495377687e-04 -9.3170227243924788e-04 2.3524242801806767e-04
377 -4.3727160766225058e-04 -8.9428617667617314e-04 1.6529763672610125e-04
378 -9.3152343170686044e-04 2.0214029452234817e-04 3.2288874620766843e-04
379 4.1860157169156995e-04 6.5151669063071211e-04 -6.2972554371939528e-04
380 1.6152648253104146e-04 -7.0886721200726739e-04 -6.8193160155908606e-04
381 2.7930156271509720e-04 -7.4009840066070818e-04 -6.1038167164533203e-04
382 -9.0935967273213019e-04 -3.8299137486898097e-04 -2.0361654624169071e-04
383 -8.4007261094091480e-04 -4.7352655465933088e-04 -2.8763169454089691e-04
384 -7.7832894830588283e-04 -5.8703605762185182e-04 -2.5268907809085893e-04
385 -1.7158151807980396e-04 -9.4663420524727438e-04 2.9686950919517285e-04
386 -6.6215899606363157e-04 5.2938601011352185e-04 -5.3095240403503016e-04
387 -7.6506165932553041e-04 4.7350920459571022e-04 -4.4234050993379874e-04
388 8.8113579041487636e-04 2.5314638487598838e-04 -4.1025884772113725e-04
389 -9.1761694114833906e-04 3.3233862509806392e-04 -2.4572138209319765e-04
390 -5.1651938309292805e-04 8.6444249260631163e-04 -4.0117847940068477e-05
391 -4.0579485844444152e-04 9.1513048092777525e-04 -1.1360936629359774e-04
392 -6.1261289859710331e-04 7.9942299644039443e-04 3.2205873380187359e-05
393 -5.9992101758059139e-04 -8.0065167328165524e-04 -1.2701645616482274e-04
394 -5.0765806559349713e-04 -8.6920463016232363e-04 -6.2956586596548975e-05
395 8.5995106751813043e-05 1.0027661928342967e-03 -5.3717075440950932e-05
396 2.2229345942331011e-04 9.8322681629833104e-04 -1.2763976274158179e-05
397 5.1992924682588463e-04 3.2436109704019370e-04 -7.8042258379863456e-04
398 2.3964901934497707e-04 -2.8716312410560036e-04 9.1314484452315276e-04
399 3.5919273783415834e-04 -2.2729741849780453e-04 8.9219169317165633e-04
400 -2.7174412664086737e-04 6.1068356466477218e-04 7.3508615895114514e-04
401 -1.5771758834853071e-04 6.0797480800149541e-04 7.6750762653421758e-04
402 3.1085869099920323e-04 -6.0766036461979247e-04 7.2419239132964894e-04
403 6.4401228128769627e-04 2.6872384689833619e-04 7.0987221097770987e-04
404 6.6723918061914662e-04 6.0164779133984150e-04 4.4869560482174589e-04
405 -3.1605804642625013e-04 -9.5278695778513870e-04 1.0027479430346924e-04
406 2.4206599077319712e-04 -2.6067186454701229e-04 -9.1988102200599023e-04
407 3.4309226616128596e-04 -1.9499578670068959e-04 -9.0472875059188242e-04
408 9.0520082786145974e-05 4.5071313695629054e-04 -8.7396906657876284e-04
409 -8.9617036377385669e-04 4.3550644836940665e-04 1.5706493047355462e-04
410 -4.5529059702551991e-04 8.1938018381805190e-04 3.6120521002717628e-04
411 5.4640924372024221e-04 4.2753354713754508e-04 -7.1159512641281292e-04
412 4.5951477651366056e-04 6.4559533606316254e-04 6.0903848879607469e-04
413 8.1117899089071786e-04 3.0999555699858606e-04 5.0078603055626360e-04
414 8.4210504924172398e-04 3.9493259882761609e-04 3.8036070976621043e-04
415 3.7191971743192339e-05 -1.4021406334421076e-04 -9.7278856340952936e-04
416 -9.8475184149444126e-04 2.1326216904412256e-04 -4.2610967600540151e-05
417 -6.3295597577040229e-05 3.2799641084925701e-04 -9.2667714847787549e-04
418 -1.2235872635587086e-04 2.2519156339365467e-04 -9.5020809118930006e-04
419 3.6691862236692179e-05 1.6414517351986892e-04 -9.6819821102119865e-04
420 -6.1470144418037119e-05 -6.8924005725845002e-05 -9.7886350470371714e-04
421 -9.5315579553278192e-04 3.2564376260546551e-04 5.0151545435967125e-05
422 8.0286518377535121e-04 -2.5667662607951436e-04 -5.4106642456582812e-04
423 8.1485923676257203e-04 -3.7566637834640930e-04 -4.5060260122130807e-04
424 2.5468964965465288e-04 9.6875416794273746e-04 1.1242960918156145e-04
425 2.8500530678562527e-05 -6.7455560018490988e-04 -7.3184008284073946e-04
426 2.9437043645121777e-05 -5.3393104187016063e-04 -8.3427751014801186e-04
427 -7.7164614372908770e-05 -5.8162408099914325e-04 -7.9937947402546246e-04
428 4.1382039970164230e-04 -9.0400889593239054e-04 -1.6743651390981545e-04
429 3.2166672347739704e-04 -9.1430290875556947e-04 -2.7333899361763292e-04
430 3.6581651296203709e-04 -8.5065913637010252e-04 -3.9086457781281402e-04
431 -6.1326176276046615e-04 -7.2495333238370842e-04 3.3145213699472349e-04
432 -6.5018482272086175e-04 -6.2550515969621670e-04 4.4078731919866424e-04
433 1.3043920222581375e-04 -3.3033090107133413e-04 -9.2033260209495923e-04
434 -3.4139310907696166e-06 5.4586569427763037e-04 -8.2654372064624678e-04
435 7.1696740905815309e-05 6.5838657949546968e-04 -7.4067964875792547e-04
436 8.8769600785250390e-04 2.6679815381936957e-04 3.8803682208789805e-04
437 9.0933597712709868e-04 3.4266277649464623e-04 2.6375924463963659e-04
438 8.6172485069350058e-04 4.5441043156242168e-04 2.5396303615413238e-04
439 7.5350727892454714e-04 2.1031013852802706e-04 6.2123466598388460e-04
440 -5.8253428146329321e-04 7.6181006878442480e-04 3.0364935509414622e-04
441 -7.0315435325725136e-04 6.8915257498768610e-04 2.1445001346447203e-04
442 6.7350033997494820e-04 -1.1407532736882772e-04 7.2400533695550961e-04
443 7.2418724115462410e-04 -2.3837440826420545e-04 6.4444639646093387e-04
444 8.1499480131499481e-04 -2.4141028901650551e-04 5.3019938355869313e-04
445 7.4422566173855279e-04 -3.6024672604589077e-04 5.6377676703892304e-04
446 8.2746907821643913e-04 -3.5914206955937167e-04 4.4109290502145385e-04
447 7.4472341733792602e-04 -4.7746001065338797e-04 4.7307046283718933e-04
448 6.5863155180182257e-04 -4.7417187486990646e-04 5.8423655223937838e-04
449 8.1234706810961988e-04 -4.8499558674356259e-04 3.4261319556792548e-04
450 8.8805128356065017e-04 -3.6117442589230175e-04 3.0748051425599771e-04
451 6.4664607316640063e-04 -5.9232246911315809e-04 4.8788499743577401e-04
452 6.6364657870865949e-04 1.3352372124098889e-04 7.2990251947919072e-04
453 -5.6747096862539814e-04 -8.2396776251939267e-04 1.2727059530120717e-04
454 2.3021925857942100e-05 -3.9922273523132273e-04 -9.0302372519099100e-04
455 9.1435056691560341e-04 4.0479089513358572e-04 1.3021083471935984e-04
456 4.4782377120275766e-04 -2.1062763392193574e-04 -8.5684702314047065e-04
457 4.9753612665505084e-04 5.2597858449514388e-04 -6.8322618987208029e-04
458 6.0642132246488151e-04 -2.3476036001058965e-04 7.5264613442820646e-04
459 1.4503358592735590e-04 9.7550037729412468e-04 2.0406809772214067e-04
460 6.2591845670876569e-04 7.0791980032229921e-04 3.4334829905407539e-04
461 3.8047817691155226e-04 5.4133525836734466e-04 -7.4075796770355236e-04
462 -4.2047864245114432e-04 7.0461297364349165e-04 5.7037181126799795e-04
463 7.6917434511071287e-04 -1.3051661722192091e-04 -6.2387091382254422e-04
464 8.8419597411316638e-04 -2.5547442649684332e-04 -4.0387621614351070e-04
465 8.8260613472684901e-04 -3.6912026563157659e-04 -3.1379457122121480e-04
466 5.8616777595389531e-06 8.2514372219713963e-04 -5.6389787800752058e-04
467 9.3773225199159332e-04 -2.4893635162549191e-04 -2.7090171983637929e-04
468 9.2649876582715049e-04 -3.6027847965721874e-04 -1.7284883473781278e-04
469 1.3564151642770020e-04 3.4298865537178854e-04 -9.1413698707967317e-04
470 8.6004739602835406e-04 -4.8034883244885373e-04 2.1488461183916284e-04
471 9.2599710215805796e-04 -3.5462186156075162e-04 1.8285153784646662e-04
472 1.9703710398714854e-04 7.7313911078669953e-04 6.0102221220807554e-04
473 1.4475279763899741e-04 -2.0130958221315878e-04 -9.5288539740869113e-04
474 2.3032141684130593e-04 -9.0381149116676288e-04 -3.7541153379873549e-04
475 5.6877423432933835e-04 7.7919251218479897e-04 -2.8545382840564174e-04
476 3.2025474573318312e-04 7.1353552943045158e-04 6.2003520834441812e-04
477 2.8324896088561879e-04 7.1946114351164876e-04 -6.3031350684281389e-04
478 -1.8838152323066349e-04 -5.4943833803463616e-04 -8.0309121559885249e-04
479 -1.7404341586539269e-04 -6.6373655549902531e-04 -7.2072415176303449e-04
480 -3.9618919004903074e-04 8.3691732236931880e-04 -3.8764119989222840e-04
481 1.8730775781412314e-04 6.5029657898606446e-04 -7.2790064525022193e-04
482 7.6722529478895156e-04 -6.0741681175849186e-04 2.4502551249717968e-04
483 8.9870865719983829e-04 -4.4991672283754960e-04 8.9522967576418524e-05
484 9.4848888130815334e-04 -3.3805963700933323e-04 6.2353293717734058e-05
485 5.6587653505635305e-04 -2.3838498040222261e-04 -7.8048998883810297e-04
486 3.7894042825243609e-04 1.5485555928692379e-04 -8.9760254889437012e-04
487 9.9847741346620876e-04 1.3115157544618390e-04 -6.4866536568069922e-05
488 9.6251420037814835e-04 2.7941764574699365e-04 -1.2093584267122709e-04
489 9.7983722142642050e-04 2.3789474067779820e-04 7.5499081420256952e-06
490 9.0965362869291659e-04 4.2593038101625645e-04 -9.3940830533056796e-05
491 3.5369574791460233e-04 9.4427423737439514e-04 1.1050744105429113e-05
492 3.0431489715397435e-04 9.5254277703866520e-04 -1.2980166150757647e-04
493 4.3757689013285156e-04 9.0453899960597740e-04 -8.0495493731165633e-05
494 9.2275263186864269e-04 -4.0691779603168742e-04 -3.3840310270922752e-05
495 9.6695071477679966e-04 -2.8175307964520231e-04 -5.9723593586436349e-05
496 -3.9422619393028699e-04 9.2724168167207792e-04 2.3364957508094976e-05
497 9.9840018046276212e-04 1.2399800003384535e-04 7.6407179662919445e-05
498 6.8275715367155192e-04 6.8812762607130479e-04 -2.7097357588812710e-04
499 9.9827482982479065e-04 -1.3723699311409015e-04 -6.4963461919023330e-05
500 9.7927381779771118e-04 -1.1228445495030998e-04 2.1056549359746394e-04
501 9.3679676329760030e-04 -1.2818985470051296e-04 -3.4413843365919397e-04
502 8.6366524783078530e-04 1.2980285119052672e-04 -4.9242302422736715e-04
503 8.7037097187293269e-04 -1.2417751617057959e-04 4.8295425842555240e-04
504 4.2695639775020613e-04 1.0227249063888678e-04 8.8524869003569150e-04
505 4.0959245599531959e-04 3.2160997254014872e-04 8.4183156601827795e-04
506 6.5011280596307622e-04 -3.5637534485933193e-04 6.6686342115562661e-04
507 2.9883516487169969e-04 -1.0005289276701687e-04 9.3404392251081585e-04
508 5.6959160834342333e-05 -1.1034559849733755e-04 9.7632214730974465e-04
509 1.5527000428896545e-04 -2.0506326841693160e-04 9.5085802284755562e-04
510 2.4707535599091695e-04 -1.7396081686968536e-04 9.3746504511905125e-04
511 -1.9800257559622139e-04 6.6707374576244281e-04 -7.1058995676543855e-04
512 2.7811776944140922e-04 9.3305281505532420e-04 2.5553552904798775e-04
513 5.8223262038197639e-04 -8.2355284003074708e-04 -3.9477789552222181e-05
514 2.6589267915209160e-04 -9.7297367928135634e-04 3.4339349291937561e-05
515 3.0266697949339838e-04 -9.4843129189014705e-04 1.6204972222877556e-04
516 -5.4965284645165560e-04 5.6365573405981698e-04 -6.1313356076437870e-04
517 7.8349488202183700e-04 -5.8200604499538441e-04 -2.5042128303261825e-04
518 -1.4873095729995718e-04 -9.9714476768519010e-04 -4.0989422692348425e-05
519 -2.9783462766318973e-04 -9.6356891396615887e-04 -4.6612194841575152e-05
520 -3.3782846296055431e-04 -9.3212167893448367e-04 -1.8310190507643076e-04
521 -7.9680537692089926e-04 5.2845998665562808e-04 -3.1094694233428741e-04
522 -9.9633989482130988e-04 9.0473439805473588e-05 -1.2249554106231144e-04
523 7.9377734718079861e-04 6.1043901348661748e-04 1.1744661240493426e-04
524 -8.0668711566678067e-04 -5.5185894689264102e-04 2.4358407530391439e-04
525 7.7904303909203992e-04 5.2148070131903426e-04 3.6213594759547976e-04
526 4.9334368954650825e-04 -7.7822402028791566e-04 -4.0129075394214830e-04
527 -9.6127182429121599e-04 -2.8009974239270505e-04 -1.1911249824604384e-04
528 -9.4799455372318803e-04 -7.3033466210730859e-05 3.2797136988478104e-04
529 -9.2039673248010714e-04 5.3494872512113550e-05 3.9841694168400298e-04
530 -8.4397315860623744e-04 5.7093772508732659e-05 5.3609545970920364e-04
531 -7.8514860946726816e-04 -6.2255542753740793e-04 -1.1592683658451197e-04
532 -9.8772406156975314e-04 -7.0332652591692819e-05 1.8679442833163424e-04
533 -7.4129095986667532e-04 5.4491438905145140e-04 4.0164997431586363e-04
534 -7.0991257253316632e-04 7.1519186070466520e-04 -1.2470873776786073e-05
535 -2.3995100255832309e-04 -9.3297794400579561e-04 -2.9268577876587725e-04
536 6.3365726562215864e-04 7.6681342389971316e-04 -1.6123576246297464e-04
537 -1.3625706247384189e-04 -8.9822920889320087e-04 4.2819720007948700e-04
538 -4.1578976047501388e-05 1.0029956737966034e-03 -8.7097517114853254e-05
539 -1.7861612388695388e-04 9.5838252861498634e-04 -2.4797522100862237e-04
540 6.3114263962658445e-05 9.8531173259602334e-04 -2.0079070433019866e-04
541 -9.4677702682428812e-04 2.8811294389694545e-04 1.8914304559086552e-04
542 -8.8711945999874722e-04 -4.3201468188123620e-04 2.0494602356568606e-04
543 -8.0180055459378699e-04 -8.3674680361031536e-05 5.9071925179861274e-04
544 -7.4663364089220814e-04 3.8882455702978450e-05 6.5929659884612587e-04
545 -6.5710768613476281e-04 -5.2728888795572045e-04 -5.4061230340490959e-04
546 -7.4933478998532969e-04 -4.2745516036463171e-04 -5.0878775280143503e-04
547 -7.5249988888328133e-04 -3.0588264353037498e-04 -5.8235405830995917e-04
548 -6.5169104752820309e-04 -2.7536781613154401e-04 -7.0052307821018484e-04
549 2.6472749747712501e-04 -8.1528602256481755e-04 5.1894589523637877e-04
550 5.7206353998392892e-04 6.0390096870124323e-04 5.5437227468747949e-04
551 8.7727790774774620e-04 3.6701097465861236e-04 -3.2746560007346703e-04
552 8.8974100125112626e-04 -2.4270080099810225e-04 3.9943603307075672e-04
553 1.5680904191575358e-04 -7.7223505213728442e-04 6.1436098538133923e-04
554 -4.4198417997639233e-04 -6.4536065140082162e-04 6.2202611950599714e-04
555 -3.7901261800243869e-04 -5.5893498038687213e-04 7.3037154088146435e-04
556 -8.3968878211421617e-04 -4.3987028862648602e-04 3.3608470728651630e-04
557 -6.0740283295979516e-04 -7.3067474135380273e-04 -3.2956974366728822e-04
558 -7.1830164333478027e-04 2.5044412999456855e-04 6.4503673492345844e-04
559 -6.7715828013282370e-04 -4.4937904263013366e-04 5.8221433476644249e-04
560 -5.8020159096483297e-04 -5.6647643812850028e-04 5.8608045445148946e-04
561 6.3006678972435458e-04 4.7840079685053247e-04 -6.1017941291194604e-04
562 -3.2220939724047061e-04 -6.7624369315698394e-04 -6.5909142949681463e-04
563 -4.7980159797746618e-04 5.0814423501008852e-04 7.0828887545987544e-04
564 7.2984148300585261e-04 -4.8670734147869088e-04 -4.8660162803347763e-04
565 -6.4104276450549188e-05 -2.7252924580173940e-04 9.4487320759238560e-04
566 -1.0256939444562787e-04 -3.9635988895665497e-04 8.9882126309004178e-04
567 -1.9792947771290795e-04 -3.0453195700226376e-04 9.1750695211305095e-04
568 -1.6327103976516701e-04 -6.3952927248836879e-04 7.4397697456087257e-04
569 4.0221464022076694e-04 -6.6009116953425319e-04 -6.3249682309479422e-04
570 -7.0047425627204620e-04 -1.0095826336383533e-04 6.9998469047546246e-04
571 5.2985458158969834e-04 3.0423648946219250e-04 7.8200550092325590e-04
572 4.7373515803256515e-04 -3.3000163607697409e-04 -8.0680503271029569e-04
573 1.2172703894282991e-04 -3.3732943170081342e-04 9.1921731516020312e-04
574 -7.4021375403947938e-04 1.9798520388653661e-04 -6.3821989166442294e-04
575 1.4819218562897162e-04 -4.6401853232167726e-04 -8.6139232992969966e-04
576 -4.4436838248879324e-04 -4.2817669515383071e-04 7.7881207944622383e-04
577 -3.0494020528011264e-04 3.4446567972630645e-04 -8.7418913036116288e-04
578 -2.3551141742254137e-04 2.2818220718042481e-04 -9.2905139009856865e-04
579 -3.0107935118291293e-04 1.3231450123545374e-04 -9.2859626518425743e-04
580 -4.7910430648633875e-04 1.4960673087763838e-05 -8.6447077234105211e-04
581 4.5197226827436385e-04 -5.5906471608010836e-04 6.9118428327333173e-04
582 4.7506602989484897e-04 -2.9224287628074481e-04 8.1924036086358288e-04
583 -4.3285784812081591e-04 1.3890094835825623e-04 -8.7688368622762850e-04
584 -4.0233876291974373e-04 1.8146173246071754e-04 8.8394217576166887e-04
585 -4.3608177027153270e-04 6.8396486619969282e-05 8.8394324275262008e-04
586 -3.3135106446376963e-04 -4.0707880912127834e-04 -8.3947958557110990e-04
587 2.6427238781208130e-05 9.5914416304345123e-04 3.0130065114665965e-04
588 -3.8183187033120496e-04 -8.1344740372959445e-05 -9.0614759238034350e-04
589 -2.4259773446905214e-04 -5.9717856738441676e-05 -9.5220585110154430e-04
590 -1.7248481142903473e-04 -1.1223429554267656e-04 -9.6243137596711261e-04
591 -1.5018660717778346e-04 4.0894950814619686e-04 8.8634173660597697e-04
592 -5.2249754717562753e-04 7.9843294000759776e-04 -3.1607536839695517e-04
593 -2.2328046269791174e-04 2.6510117458220195e-06 9.5875582854016567e-04
594 3.5643887356168874e-04 2.1557357264062244e-04 8.9538782750650970e-04
595 -8.1397309747994161e-04 5.6948770792618981e-04 1.6848786079240346e-04
596 4.2872399055930087e-04 -8.9375159568620645e-04 1.8545035983007799e-04
597 9.3099383803340262e-05 4.2768219479570320e-04 8.8552054824271836e-04
598 3.2757727883313232e-04 9.1112163779935096e-04 -2.7345775481408955e-04
599 1.8300889520069739e-04 -6.6089716504841843e-04 7.2143367178612342e-04
600 -5.3173834317808927e-04 -8.1798980152138949e-04 2.5104173102946133e-04
601 -8.5139647050162554e-04 4.0896104595208573e-04 -3.4274772712901126e-04
602 -8.1726205630836067e-04 3.4675254273904037e-04 -4.6462008876828575e-04
603 -7.4425419277292704e-04 -5.4129954563628460e-04 -4.0381490318486653e-04
604 -9.1499596866015690e-04 1.4994680478591925e-04 -3.8511003817365605e-04
605 -4.1138880302679908e-04 -9.2080605173537524e-04 2.5347355388029968e-05
606 -3.1466485357836265e-04 8.5566501652881448e-04 4.1874448076248779e-04
607 4.1254418789014021e-05 1.4326605342329822e-04 9.7188977172370608e-04
608 -4.8045977323433470e-05 7.6792002788866540e-04 6.3494444833312662e-04
609 -7.4456251587060518e-04 -1.7334751254917632e-04 -6.4098582841903785e-04
610 9.6431692210996488e-04 2.6137625018964679e-04 1.4208771109421622e-04
611 4.3065046498931407e-04 -7.8853025826697591e-05 -8.8582621383638690e-04
612 9.3084068230548658e-04 1.2370959323959509e-04 3.5963451603861180e-04
613 -3.7898355350876123e-04 -8.8049314052333547e-04 -3.0712208168569657e-04
614 4.6930235478604565e-05 -7.9230031362859273e-04 -6.0748754848583171e-04
615 4.7090778913665268e-04 -8.9124316164731739e-04 -4.8821307414039644e-05
616 -6.8890503113425692e-04 -7.0803211752066327e-04 -2.0247153192124050e-04
617 -9.4183987229645304e-04 -2.5182181944006691e-04 -2.5125755129889684e-04
618 -6.1639362210192501e-04 4.4712671972485399e-04 -6.4323822034119144e-04
619 1.9128149263084431e-04 -9.6154923758654009e-04 -2.3570647414644571e-04
620 -3.3832360958962485e-05 -9.4709391853314633e-04 3.3807799061135959e-04
621 3.9075699956924473e-04 -7.6497246347357153e-04 -5.1620601085789733e-04
622 -2.2373708905075031e-04 -4.3111401675799768e-04 8.6174835165946768e-04
623 8.0902439137530465e-04 -4.8322454195879417e-04 -3.5241630429921742e-04
624 9.3423358289140075e-04 1.3060559631302156e-04 -3.4934079673261279e-04
625 -4.0301394104256638e-04 6.0601454154765144e-04 6.7953678626780575e-04
626 -2.4811317592554768e-04 -5.5245284085636429e-04 7.8634197303401065e-04
627 -9.1600591888404354e-05 5.2513291349590835e-04 8.3403725450883679e-04
628 4.7706926247781818e-04 8.8705551659815139e-04 4.8594859096670534e-05
629 -9.6845213175244128e-04 5.5316978006906882e-05 2.6847261047012808e-04
630 -6.0097225529335424e-04 7.9081480436135642e-04 1.6675436798252937e-04
631 -8.3370288821297102e-04 -1.9532790410638554e-04 -5.1892203611594943e-04
632 -4.1182466747713420e-04 8.8242154926228820e-04 -2.5290769310940008e-04
633 9.3568883361485808e-04 2.5067533649492866e-04 -2.7480015541881585e-04
634 -3.0643486270524634e-04 8.6942458119803115e-05 9.3278457404382385e-04
635 3.9402793725289164e-04 -9.2707436553027224e-04 6.1442679166566274e-05
636 -6.7587630945249188e-05 -9.8386663087268690e-04 2.0847830781576095e-04
637 -4.6880643306078623e-04 -6.1355471537307801e-05 8.6840691914675215e-04
638 4.2917296896801636e-04 2.4292375681821376e-04 -8.5606828854435093e-04
639 4.3110212047935045e-04 -1.0894509851193987e-04 8.8256152599626957e-04
640 -6.8328568503354121e-05 6.5512569931500933e-04 -7.4341373820898174e-04
641 -9.6845228215880442e-04 2.2569359447431256e-04 -1.6135566037208112e-04
642 -8.8511781760686030e-04 2.8342594434063950e-04 -3.7985892593194842e-04
643 2.8210074096935209e-04 -7.2122760279100945e-04 6.3021754265508013e-04
644 5.6031374982588378e-04 -4.5815059626168824e-04 6.8478069270979508e-04
645 5.9760107396397818e-04 2.2463750086221970e-04 -7.6065213542592396e-04
646 -2.0188155209174518e-04 1.1446462260320107e-04 9.5656570304162854e-04
647 2.6804933777329422e-05 5.3110409868545121e-04 8.3494496753280594e-04
648 -7.5376148098389142e-04 5.9704928254050845e-04 2.9215190973084235e-04
649 -2.6657826449253503e-04 9.6877686588504050e-04 7.6979566479124266e-05
650 9.4093542609134792e-04 -2.3958299105555493e-04 2.6805795248796885e-04
651 -4.7530114073698958e-04 -8.6746754414948428e-04 -1.9671373114529304e-04
652 -8.8251621591141718e-04 -3.4609793596237484e-04 -3.3450590499588322e-04
653 -1.8308523727607659e-04 1.1662909005508607e-04 -9.5947205813588733e-04
654 8.6154348785326743e-04 -4.7392808036482209e-04 -2.2133926739643513e-04
655 -7.2137857311162419e-04 4.1277138194607349e-04 -5.5505784842417203e-04
656 6.5101184578495971e-04 -1.2494046637300709e-04 -7.4141059612195070e-04
657 -7.5690760206932421e-04 -5.4539806344346478e-04 3.7334978648431591e-04
658 -3.4821566337939940e-04 2.9571127943458002e-05 -9.2159162033955699e-04
659 -1.5480590441202787e-04 1.2260930151445524e-05 -9.7140146350430372e-04
660 -4.3420873081474286e-05 6.7659030321431012e-07 -9.8130998506332288e-04
661 8.6336967303101667e-04 -5.2220644440883243e-04 -5.9510904330202517e-06
662 5.0387906580162812e-05 -2.4229631353468769e-04 9.5341008454600520e-04
663 5.1601716205624919e-04 8.4689289236706828e-04 -1.7599527429977395e-04
664 -2.8002376866010991e-04 9.6681845363681749e-04 -4.8527143062316379e-05
665 -2.9819367445760406e-04 9.4340766731829562e-04 -1.8621620927322818e-04
666 -7.0567487148968615e-05 1.2318399379007190e-04 -9.7319457377879610e-04
667 2.5984253374431864e-04 -8.3280835777728250e-04 -4.9401163261756688e-04
668 -5.5783675326254395e-04 3.9657792909174865e-05 8.1790976415836638e-04
669 -8.3059169876817081e-04 -3.1755506203544901e-04 -4.6283729451282197e-04
670 -4.9960907118771342e-04 8.7021086015438582e-04 9.1893836511812356e-05
671 -9.7301127383342856e-04 1.5982471227495975e-04 2.0134509425652076e-04
672 5.5055026113298841e-04 -3.5608139419663444e-04 7.4612528857206234e-04
673 -1.4623931763905770e-05 2.3517978612522510e-04 -9.5514278947493592e-04
674 -2.0167391788522757e-04 -9.7256437422743927e-04 1.7263739009795926e-04
675 4.1310940517361714e-04 7.4055543986355536e-04 5.3012204931435691e-04
676 7.3134459317024581e-05 7.2493136419010554e-04 6.7927989524815661e-04
677 4.7092284138500429e-04 2.0697533260065896e-04 8.4546288340053995e-04
678 -4.9555710363527125e-04 -7.9086887969142476e-04 3.7277640796970100e-04
679 2.8974477884812801e-04 -7.1039758956582770e-05 -9.3910342052413109e-04
680 3.9057154424286067e-04 -6.6433443987903525e-04 6.3354958894664499e-04
681 -8.8123711332922631e-04 1.5571738581088629e-04 4.5097371880213350e-04
682 -9.0987702339939420e-04 4.3251175746088189e-04 1.7148292036877454e-05
683 -6.9813572541196681e-05 1.0795761076690996e-05 9.8011253125554389e-04
684 3.5370637908581088e-04 -9.4325633329349194e-04 -5.5876645850263147e-05
685 4.1340180740277862e-04 8.9868492907207271e-04 -1.8504879519955824e-04
686 1.6684142641389731e-04 -7.9726590459464953e-04 -5.7877708851163676e-04
687 1.7932246494766445e-04 9.8181710676159724e-04 -1.3245502865669699e-04
688 -8.1566993081089222e-04 -4.2400762750260842e-04 -4.0150181632849012e-04
689 -5.4526109784842891e-04 -6.4988692417421753e-04 5.3026422510462550e-04
690 5.8392812863754869e-04 -6.9316485397056746e-04 4.3058717470850403e-04
691 9.7096237123846327e-04 -2.2862900528221777e-04 1.4748488097516722e-04
692 -6.9288598776516747e-04 -5.3194703697814793e-04 4.8995290623087353e-04
693 9.4025211486584560e-04 2.2502852832016450e-04 2.7776430327181961e-04
694 -1.7636632580566360e-04 9.8489949502355754e-04 -1.1560776215036350e-04
695 9.1931048655700227e-04 3.5674451029149719e-04 -2.0360509688031211e-04
696 -4.8339033466640523e-05 6.5111678922497571e-04 7.4980800212932431e-04
697 -3.2504272422824627e-04 -4.7051785208202841e-04 8.0891541247517945e-04
698 9.4424800349827303e-04 3.5629766172474796e-04 1.3365522007273404e-05
699 -4.8172399584888554e-04 -5.3339485605974010e-04 6.8906613296596485e-04
700 -6.5502500157390523e-04 3.4653897226250397e-06 7.4600482130484801e-04
701 5.6454812313232845e-04 -5.6056917701171542e-04 6.0369862855264380e-04
702 -6.9752967050757308e-04 -6.4631658923576020e-04 -3.2523107006943099e-04
703 -7.6707777934292354e-04 3.0198025188865645e-04 -5.6333934444082140e-04
704 4.9647803250017486e-05 3.3246840385529701e-04 -9.2597576611813204e-04
705 3.0149105980645534e-04 6.2340166103590200e-04 -7.1243194999978362e-04
706 -3.0770969486844217e-04 6.8845720746583592e-04 6.5050334642586681e-04
707 1.1395032873519105e-04 -9.3581616678652167e-04 -3.4835703402712827e-04
708 -6.8851045404691772e-04 7.2762368241297774e-04 1.0098276151243493e-04
709 9.4718557579844245e-06 7.3229672628860999e-04 -6.7346732244088115e-04
710 -4.0410078100317485e-04 7.8234476232957504e-04 4.7626733460691281e-04
711 -9.3735888970217522e-04 2.2647757647030822e-04 -2.8257043946840253e-04
712 7.6833654413195130e-04 1.0435354230159889e-04 6.2815937862334133e-04
713 -2.1713429809945553e-04 -7.5021840736499035e-04 -6.2076790506332121e-04
714 6.2783160548657844e-04 3.4422821937907906e-04 -6.9187569550804352e-04
715 -2.1708052146400392e-04 -9.8261938077839743e-04 6.0223691576569208e-05
716 -2.3322669657427548e-04 4.0442747938787683e-05 -9.5460986149172630e-04
717 -4.1029222674980468e-04 -9.1637152857401499e-04 -8.9264104166166637e-05
718 4.8280063719326752e-04 -1.9975695123638064e-04 8.4037181976409896e-04
719 7.3362453270827885e-04 -5.7091371496427977e-04 3.8085008868317567e-04
720 8.5401596633531631e-04 5.1093104491314206e-04 1.5470138121668404e-04
721 2.3346009641411967e-04 -1.5993402363942999e-04 -9.4287992168695016e-04
722 -5.8071571314731766e-04 -7.8812723651203707e-04 -2.3418623828037400e-04
723 3.2615890449767963e-05 8.2075268088023368e-05 -9.7857849097244534e-04
724 -1.8593035098114823e-04 7.0715532543518217e-04 6.7722491428606269e-04
725 8.8658607841169367e-04 -4.6769544870846119e-04 -1.0675467026491004e-04
726 5.6326095595266837e-04 2.0595469305086518e-04 7.8959520616578207e-04
727 7.9637566016901894e-04 5.6868189920839581e-04 2.3584884399385249e-04
728 5.3772245482592955e-04 5.9188232898007903e-04 -5.9665631331134918e-04
729 4.5080323266453239e-04 9.6659327786546750e-05 -8.7314652264230594e-04
730 7.2066829270299167e-04 6.2437864871024902e-04 3.1723767686243481e-04
731 -2.5873395929739887e-04 -6.1080841588408554e-04 -7.3827477155038958e-04
732 3.3731294135647420e-04 6.2260991728375838e-04 6.9849535120610460e-04
733 -7.3356159376572155e-05 9.8644886901561404e-04 -1.8335921608793158e-04
734 -2.2738411572680077e-04 -4.6430909829658012e-04 -8.4324788287355366e-04
735 9.6783361902669078e-04 -2.3375527991228201e-04 -1.5589052008427775e-04
736 9.8124922369957450e-04 -2.2931170383263893e-04 3.2878686366297469e-05
737 -1.3266962101606609e-05 -5.9953153920035436e-05 9.8088266689822499e-04
738 -5.0948598965744026e-04 -8.6852838937953385e-04 4.7388853675330628e-05
739 4.8297906944201542e-04 2.0542113107339111e-04 -8.3859972697068242e-04
740 -7.6187311507168931e-04 1.3653014805736107e-04 6.2863669970713600e-04
741 -1.3868173647236325e-04 2.9328653047196097e-05 9.7278701076895476e-04
742 -5.6053138756640840e-04 -7.0786116094843205e-04 4.3579142901827489e-04
743 -3.5151482999280944e-06 4.2618379084171987e-04 -8.8934816532747923e-04
744 3.0323299604287292e-04 -9.4735281318140616e-04 -1.6052222974497068e-04
745 -8.8380122508514134e-05 -6.6753780412498671e-04 -7.2984577309090143e-04
$EndNodes
$Elements
1486
1 2 2 0 0 410 440 345
2 2 2 0 0 421 541 409
3 2 2 0 0 409 682 421
4 2 2 0 0 545 603 546
5 2 2 0 0 426 427 294
6 2 2 0 0 294 454 426
7 2 2 0 0 265 682 409
8 2 2 0 0 24 41 4
9 2 2 0 0 3 24 4
10 2 2 0 0 238 642 602
11 2 2 0 0 520 651 613
12 2 2 0 0 653 666 659
13 2 2 0 0 404 460 98
14 2 2 0 0 222 482 219
15 2 2 0 0 40 463 9
16 2 2 0 0 608 724 696
17 2 2 0 0 435 709 69
18 2 2 0 0 413 439 29
19 2 2 0 0 345 710 410
20 2 2 0 0 422 463 40
21 2 2 0 0 98 550 404
22 2 2 0 0 95 724 608
23 2 2 0 0 4 41 5
24 2 2 0 0 232 701 581
25 2 2 0 0 490 698 488
26 2 2 0 0 29 436 413
27 2 2 0 0 416 421 342
28 2 2 0 0 312 595 441
29 2 2 0 0 41 486 5
30 2 2 0 0 405 605 519
31 2 2 0 0 409 595 265
32 2 2 0 0 69 481 435
33 2 2 0 0 434 743 339
34 2 2 0 0 342 641 416
35 2 2 0 0 485 656 370
36 2 2 0 0 89 587 90
37 2 2 0 0 108 466 317
38 2 2 0 0 378 629 529
39 2 2 0 0 581 680 232
40 2 2 0 0 281 434 339
41 2 2 0 0 638 739 486
42 2 2 0 0 659 666 660
43 2 2 0 0 345 440 346
44 2 2 0 0 22 44 25
45 2 2 0 0 9 463 8
46 2 2 0 0 44 81 25
47 2 2 0 0 459 587 89
48 2 2 0 0 127 670 630
49 2 2 0 0 508 662 509
50 2 2 0 0 375 662 508
51 2 2 0 0 492 598 103
52 2 2 0 0 604 642 238
53 2 2 0 0 507 510 399
54 2 2 0 0 488 698 489
55 2 2 0 0 34 473 415
56 2 2 0 0 399 639 507
57 2 2 0 0 603 688 546
58 2 2 0 0 316 541 421
59 2 2 0 0 647 696 627
60 2 2 0 0 403 439 352
61 2 2 0 0 221 603 545
62 2 2 0 0 595 648 441
63 2 2 0 0 412 550 98
64 2 2 0 0 411 714 397
65 2 2 0 0 486 739 729
66 2 2 0 0 696 724 401
67 2 2 0 0 247 482 222
68 2 2 0 0 397 714 645
69 2 2 0 0 613 651 212
70 2 2 0 0 207 745 425
71 2 2 0 0 98 675 412
72 2 2 0 0 219 482 230
73 2 2 0 0 560 692 432
74 2 2 0 0 432 689 560
75 2 2 0 0 454 575 426
76 2 2 0 0 352 439 413
77 2 2 0 0 415 420 2
78 2 2 0 0 40 464 422
79 2 2 0 0 89 512 459
80 2 2 0 0 425 614 207
81 2 2 0 0 377 600 453
82 2 2 0 0 89 90 88
83 2 2 0 0 80 466 108
84 2 2 0 0 520 717 651
85 2 2 0 0 602 703 238
86 2 2 0 0 103 687 492
87 2 2 0 0 253 491 424
88 2 2 0 0 69 709 466
89 2 2 0 0 424 512 253
90 2 2 0 0 369 696 647
91 2 2 0 0 581 701 644
92 2 2 0 0 630 670 392
93 2 2 0 0 32 656 485
94 2 2 0 0 459 512 424
95 2 2 0 0 90 91 88
96 2 2 0 0 427 478 294
97 2 2 0 0 488 695 490
98 2 2 0 0 554 699 560
99 2 2 0 0 67 80 79
100 2 2 0 0 252 454 294
101 2 2 0 0 253 628 491
102 2 2 0 0 529 681 378
103 2 2 0 0 519 715 405
104 2 2 0 0 440 441 346
105 2 2 0 0 605 717 519
106 2 2 0 0 403 452 439
107 2 2 0 0 507 639 21
108 2 2 0 0 565 567 566
109 2 2 0 0 433 454 341
110 2 2 0 0 67 466 80
111 2 2 0 0 555 697 576
112 2 2 0 0 491 628 493
113 2 2 0 0 389 641 342
114 2 2 0 0 429 619 474
115 2 2 0 0 40 501 464
116 2 2 0 0 576 699 555
117 2 2 0 0 311 600 377
118 2 2 0 0 567 622 566
119 2 2 0 0 433 575 454
120 2 2 0 0 378 671 629
121 2 2 0 0 79 540 103
122 2 2 0 0 341 473 433
123 2 2 0 0 673 704 68
124 2 2 0 0 462 710 345
125 2 2 0 0 557 722 616
126 2 2 0 0 573 662 343
127 2 2 0 0 370 656 463
128 2 2 0 0 341 454 252
129 2 2 0 0 616 702 557
130 2 2 0 0 6 26 7
131 2 2 0 0 464 501 467
132 2 2 0 0 433 473 406
133 2 2 0 0 8 45 37
134 2 2 0 0 466 709 317
135 2 2 0 0 457 461 379
136 2 2 0 0 84 512 86
137 2 2 0 0 19 452 33
138 2 2 0 0 380 614 425
139 2 2 0 0 83 540 79
140 2 2 0 0 398 510 509
141 2 2 0 0 609 631 137
142 2 2 0 0 18 442 36
143 2 2 0 0 26 45 7
144 2 2 0 0 565 566 343
145 2 2 0 0 80 83 79
146 2 2 0 0 560 689 554
147 2 2 0 0 134 137 136
148 2 2 0 0 68 469 42
149 2 2 0 0 659 716 653
150 2 2 0 0 619 707 474
151 2 2 0 0 497 610 39
152 2 2 0 0 137 138 136
153 2 2 0 0 283 573 343
154 2 2 0 0 506 644 448
155 2 2 0 0 499 735 31
156 2 2 0 0 81 97 25
157 2 2 0 0 45 46 37
158 2 2 0 0 585 668 637
159 2 2 0 0 495 735 499
160 2 2 0 0 399 510 398
161 2 2 0 0 509 573 398
162 2 2 0 0 442 443 36
163 2 2 0 0 1 607 314
164 2 2 0 0 29 612 436
165 2 2 0 0 547 631 609
166 2 2 0 0 360 595 409
167 2 2 0 0 421 682 342
168 2 2 0 0 426 575 327
169 2 2 0 0 123 577 235
170 2 2 0 0 339 743 417
171 2 2 0 0 7 45 8
172 2 2 0 0 3 723 24
173 2 2 0 0 418 666 653
174 2 2 0 0 59 60 58
175 2 2 0 0 620 636 193
176 2 2 0 0 42 469 47
177 2 2 0 0 65 67 66
178 2 2 0 0 509 662 573
179 2 2 0 0 470 482 247
180 2 2 0 0 368 476 472
181 2 2 0 0 530 740 337
182 2 2 0 0 253 512 84
183 2 2 0 0 455 698 282
184 2 2 0 0 61 65 62
185 2 2 0 0 59 61 60
186 2 2 0 0 91 472 88
187 2 2 0 0 90 92 91
188 2 2 0 0 19 442 18
189 2 2 0 0 464 465 423
190 2 2 0 0 706 724 118
191 2 2 0 0 456 611 32
192 2 2 0 0 379 477 61
193 2 2 0 0 417 743 704
194 2 2 0 0 314 683 1
195 2 2 0 0 442 458 443
196 2 2 0 0 11 28 12
197 2 2 0 0 61 62 60
198 2 2 0 0 118 724 95
199 2 2 0 0 22 25 23
200 2 2 0 0 247 483 470
201 2 2 0 0 281 640 434
202 2 2 0 0 197 667 474
203 2 2 0 0 86 512 89
204 2 2 0 0 417 704 673
205 2 2 0 0 451 690 230
206 2 2 0 0 27 442 19
207 2 2 0 0 637 668 229
208 2 2 0 0 60 475 58
209 2 2 0 0 489 610 497
210 2 2 0 0 307 573 283
211 2 2 0 0 61 477 65
212 2 2 0 0 65 66 62
213 2 2 0 0 544 740 530
214 2 2 0 0 230 719 451
215 2 2 0 0 18 452 19
216 2 2 0 0 268 569 269
217 2 2 0 0 32 485 456
218 2 2 0 0 627 696 401
219 2 2 0 0 24 42 41
220 2 2 0 0 20 27 19
221 2 2 0 0 330 461 457
222 2 2 0 0 506 672 644
223 2 2 0 0 472 476 87
224 2 2 0 0 468 495 494
225 2 2 0 0 88 472 87
226 2 2 0 0 121 577 123
227 2 2 0 0 327 575 276
228 2 2 0 0 422 464 423
229 2 2 0 0 47 63 49
230 2 2 0 0 458 506 443
231 2 2 0 0 232 690 451
232 2 2 0 0 28 487 12
233 2 2 0 0 80 107 83
234 2 2 0 0 608 696 676
235 2 2 0 0 356 481 355
236 2 2 0 0 138 238 136
237 2 2 0 0 137 139 138
238 2 2 0 0 729 739 26
239 2 2 0 0 81 99 97
240 2 2 0 0 46 50 37
241 2 2 0 0 463 656 8
242 2 2 0 0 443 444 36
243 2 2 0 0 68 704 469
244 2 2 0 0 24 68 42
245 2 2 0 0 16 503 30
246 2 2 0 0 65 69 67
247 2 2 0 0 67 79 66
248 2 2 0 0 676 696 369
249 2 2 0 0 59 379 61
250 2 2 0 0 90 93 92
251 2 2 0 0 464 467 465
252 2 2 0 0 441 708 312
253 2 2 0 0 483 484 471
254 2 2 0 0 427 479 478
255 2 2 0 0 245 564 244
256 2 2 0 0 470 483 471
257 2 2 0 0 473 721 406
258 2 2 0 0 555 699 554
259 2 2 0 0 47 469 63
260 2 2 0 0 63 355 49
261 2 2 0 0 62 64 60
262 2 2 0 0 80 108 107
263 2 2 0 0 107 539 83
264 2 2 0 0 139 140 138
265 2 2 0 0 99 100 97
266 2 2 0 0 81 236 99
267 2 2 0 0 46 51 50
268 2 2 0 0 443 445 444
269 2 2 0 0 24 419 68
270 2 2 0 0 69 466 67
271 2 2 0 0 79 103 66
272 2 2 0 0 65 477 69
273 2 2 0 0 547 548 321
274 2 2 0 0 93 94 92
275 2 2 0 0 467 468 465
276 2 2 0 0 333 664 649
277 2 2 0 0 55 498 56
278 2 2 0 0 56 498 72
279 2 2 0 0 12 499 31
280 2 2 0 0 63 356 355
281 2 2 0 0 108 110 107
282 2 2 0 0 139 141 140
283 2 2 0 0 100 101 97
284 2 2 0 0 236 248 99
285 2 2 0 0 81 594 236
286 2 2 0 0 51 52 50
287 2 2 0 0 192 515 195
288 2 2 0 0 445 446 444
289 2 2 0 0 477 481 69
290 2 2 0 0 94 95 92
291 2 2 0 0 93 96 94
292 2 2 0 0 63 408 356
293 2 2 0 0 108 111 110
294 2 2 0 0 110 117 107
295 2 2 0 0 139 154 141
296 2 2 0 0 141 142 140
297 2 2 0 0 51 53 52
298 2 2 0 0 100 102 101
299 2 2 0 0 236 250 248
300 2 2 0 0 445 447 446
301 2 2 0 0 52 388 50
302 2 2 0 0 277 622 567
303 2 2 0 0 95 608 92
304 2 2 0 0 94 118 95
305 2 2 0 0 93 104 96
306 2 2 0 0 51 561 53
307 2 2 0 0 408 434 356
308 2 2 0 0 53 54 52
309 2 2 0 0 445 448 447
310 2 2 0 0 108 317 111
311 2 2 0 0 141 143 142
312 2 2 0 0 142 225 140
313 2 2 0 0 102 166 101
314 2 2 0 0 250 325 248
315 2 2 0 0 100 258 102
316 2 2 0 0 53 55 54
317 2 2 0 0 447 449 446
318 2 2 0 0 236 505 250
319 2 2 0 0 104 105 96
320 2 2 0 0 53 57 55
321 2 2 0 0 55 56 54
322 2 2 0 0 448 451 447
323 2 2 0 0 14 39 15
324 2 2 0 0 317 511 111
325 2 2 0 0 10 40 9
326 2 2 0 0 143 144 142
327 2 2 0 0 57 58 55
328 2 2 0 0 8 37 9
329 2 2 0 0 14 38 13
330 2 2 0 0 166 314 101
331 2 2 0 0 18 36 17
332 2 2 0 0 16 29 17
333 2 2 0 0 33 504 20
334 2 2 0 0 325 365 248
335 2 2 0 0 199 202 196
336 2 2 0 0 7 32 6
337 2 2 0 0 434 435 356
338 2 2 0 0 74 75 73
339 2 2 0 0 223 239 234
340 2 2 0 0 74 76 75
341 2 2 0 0 72 74 73
342 2 2 0 0 231 549 201
343 2 2 0 0 202 205 204
344 2 2 0 0 226 227 214
345 2 2 0 0 272 275 271
346 2 2 0 0 276 318 275
347 2 2 0 0 213 214 209
348 2 2 0 0 76 77 75
349 2 2 0 0 210 231 201
350 2 2 0 0 16 30 15
351 2 2 0 0 205 209 208
352 2 2 0 0 202 204 196
353 2 2 0 0 318 406 340
354 2 2 0 0 195 196 193
355 2 2 0 0 322 420 415
356 2 2 0 0 239 240 234
357 2 2 0 0 163 588 168
358 2 2 0 0 12 31 11
359 2 2 0 0 56 72 71
360 2 2 0 0 425 426 327
361 2 2 0 0 19 33 20
362 2 2 0 0 168 224 215
363 2 2 0 0 209 568 216
364 2 2 0 0 318 433 406
365 2 2 0 0 269 271 270
366 2 2 0 0 268 269 245
367 2 2 0 0 21 639 20
368 2 2 0 0 84 85 82
369 2 2 0 0 181 207 183
370 2 2 0 0 269 272 271
371 2 2 0 0 272 276 275
372 2 2 0 0 242 243 240
373 2 2 0 0 102 167 166
374 2 2 0 0 223 234 233
375 2 2 0 0 283 343 227
376 2 2 0 0 205 208 204
377 2 2 0 0 213 226 214
378 2 2 0 0 271 572 347
379 2 2 0 0 243 268 245
380 2 2 0 0 335 398 307
381 2 2 0 0 303 555 554
382 2 2 0 0 226 283 227
383 2 2 0 0 347 485 370
384 2 2 0 0 195 199 196
385 2 2 0 0 205 213 209
386 2 2 0 0 246 322 252
387 2 2 0 0 76 78 77
388 2 2 0 0 133 163 135
389 2 2 0 0 163 168 164
390 2 2 0 0 322 415 341
391 2 2 0 0 227 361 214
392 2 2 0 0 191 198 189
393 2 2 0 0 78 84 82
394 2 2 0 0 209 216 208
395 2 2 0 0 78 82 77
396 2 2 0 0 216 303 266
397 2 2 0 0 417 418 362
398 2 2 0 0 314 607 101
399 2 2 0 0 339 362 280
400 2 2 0 0 243 245 244
401 2 2 0 0 187 291 185
402 2 2 0 0 429 430 359
403 2 2 0 0 143 145 144
404 2 2 0 0 202 553 205
405 2 2 0 0 339 417 362
406 2 2 0 0 131 580 133
407 2 2 0 0 239 242 240
408 2 2 0 0 57 59 58
409 2 2 0 0 224 246 215
410 2 2 0 0 84 86 85
411 2 2 0 0 303 554 266
412 2 2 0 0 72 73 71
413 2 2 0 0 437 438 414
414 2 2 0 0 318 340 275
415 2 2 0 0 269 270 245
416 2 2 0 0 86 87 85
417 2 2 0 0 192 193 191
418 2 2 0 0 123 235 129
419 2 2 0 0 263 374 262
420 2 2 0 0 425 427 426
421 2 2 0 0 149 150 147
422 2 2 0 0 210 232 231
423 2 2 0 0 74 373 76
424 2 2 0 0 168 215 169
425 2 2 0 0 259 262 249
426 2 2 0 0 145 146 144
427 2 2 0 0 367 524 289
428 2 2 0 0 271 347 270
429 2 2 0 0 406 407 340
430 2 2 0 0 334 459 424
431 2 2 0 0 429 474 430
432 2 2 0 0 250 328 325
433 2 2 0 0 431 432 367
434 2 2 0 0 104 278 105
435 2 2 0 0 145 147 146
436 2 2 0 0 151 152 150
437 2 2 0 0 235 583 129
438 2 2 0 0 237 249 228
439 2 2 0 0 149 151 150
440 2 2 0 0 159 161 158
441 2 2 0 0 153 155 152
442 2 2 0 0 156 158 155
443 2 2 0 0 354 367 289
444 2 2 0 0 259 263 262
445 2 2 0 0 190 191 189
446 2 2 0 0 177 221 174
447 2 2 0 0 162 228 161
448 2 2 0 0 124 516 386
449 2 2 0 0 418 653 578
450 2 2 0 0 371 584 295
451 2 2 0 0 151 153 152
452 2 2 0 0 153 156 155
453 2 2 0 0 159 162 161
454 2 2 0 0 374 593 262
455 2 2 0 0 156 159 158
456 2 2 0 0 237 259 249
457 2 2 0 0 146 284 160
458 2 2 0 0 266 309 267
459 2 2 0 0 264 265 257
460 2 2 0 0 86 88 87
461 2 2 0 0 265 312 257
462 2 2 0 0 162 237 228
463 2 2 0 0 21 44 22
464 2 2 0 0 324 392 390
465 2 2 0 0 371 585 584
466 2 2 0 0 262 366 249
467 2 2 0 0 192 195 193
468 2 2 0 0 263 375 374
469 2 2 0 0 216 266 217
470 2 2 0 0 326 327 276
471 2 2 0 0 260 646 166
472 2 2 0 0 220 223 222
473 2 2 0 0 322 341 252
474 2 2 0 0 256 257 255
475 2 2 0 0 78 253 84
476 2 2 0 0 358 359 242
477 2 2 0 0 188 189 187
478 2 2 0 0 281 339 280
479 2 2 0 0 146 160 144
480 2 2 0 0 123 129 128
481 2 2 0 0 255 324 254
482 2 2 0 0 228 229 161
483 2 2 0 0 354 431 367
484 2 2 0 0 163 164 135
485 2 2 0 0 155 157 152
486 2 2 0 0 243 244 240
487 2 2 0 0 256 264 257
488 2 2 0 0 284 316 160
489 2 2 0 0 380 425 327
490 2 2 0 0 148 149 147
491 2 2 0 0 335 399 398
492 2 2 0 0 418 578 362
493 2 2 0 0 334 424 396
494 2 2 0 0 167 260 166
495 2 2 0 0 325 368 365
496 2 2 0 0 428 429 359
497 2 2 0 0 165 255 254
498 2 2 0 0 297 342 264
499 2 2 0 0 298 371 295
500 2 2 0 0 218 323 220
501 2 2 0 0 310 337 302
502 2 2 0 0 165 256 255
503 2 2 0 0 186 187 185
504 2 2 0 0 56 71 70
505 2 2 0 0 165 254 125
506 2 2 0 0 200 201 199
507 2 2 0 0 148 206 149
508 2 2 0 0 324 390 364
509 2 2 0 0 190 192 191
510 2 2 0 0 368 369 365
511 2 2 0 0 353 404 351
512 2 2 0 0 104 331 278
513 2 2 0 0 256 297 264
514 2 2 0 0 316 421 416
515 2 2 0 0 239 358 242
516 2 2 0 0 169 586 171
517 2 2 0 0 286 287 206
518 2 2 0 0 324 364 254
519 2 2 0 0 241 576 162
520 2 2 0 0 168 169 164
521 2 2 0 0 121 123 122
522 2 2 0 0 266 267 217
523 2 2 0 0 129 131 130
524 2 2 0 0 216 217 208
525 2 2 0 0 285 382 313
526 2 2 0 0 172 321 170
527 2 2 0 0 390 391 364
528 2 2 0 0 296 563 300
529 2 2 0 0 246 252 251
530 2 2 0 0 285 286 206
531 2 2 0 0 288 289 287
532 2 2 0 0 298 372 371
533 2 2 0 0 23 35 22
534 2 2 0 0 300 344 304
535 2 2 0 0 344 462 345
536 2 2 0 0 123 128 122
537 2 2 0 0 297 389 342
538 2 2 0 0 237 277 259
539 2 2 0 0 148 285 206
540 2 2 0 0 86 89 88
541 2 2 0 0 306 307 283
542 2 2 0 0 234 279 233
543 2 2 0 0 316 416 160
544 2 2 0 0 188 190 189
545 2 2 0 0 85 98 82
546 2 2 0 0 358 428 359
547 2 2 0 0 437 455 438
548 2 2 0 0 203 210 201
549 2 2 0 0 382 383 313
550 2 2 0 0 153 176 156
551 2 2 0 0 290 354 289
552 2 2 0 0 159 241 162
553 2 2 0 0 386 387 126
554 2 2 0 0 273 363 338
555 2 2 0 0 272 326 276
556 2 2 0 0 171 293 173
557 2 2 0 0 145 148 147
558 2 2 0 0 274 295 261
559 2 2 0 0 285 313 286
560 2 2 0 0 383 384 313
561 2 2 0 0 301 302 299
562 2 2 0 0 131 133 132
563 2 2 0 0 296 298 295
564 2 2 0 0 305 310 302
565 2 2 0 0 349 412 328
566 2 2 0 0 344 345 304
567 2 2 0 0 77 119 75
568 2 2 0 0 315 378 310
569 2 2 0 0 363 401 400
570 2 2 0 0 332 333 278
571 2 2 0 0 223 233 222
572 2 2 0 0 331 334 332
573 2 2 0 0 186 188 187
574 2 2 0 0 178 212 177
575 2 2 0 0 305 360 315
576 2 2 0 0 334 396 395
577 2 2 0 0 246 251 215
578 2 2 0 0 167 261 260
579 2 2 0 0 175 179 178
580 2 2 0 0 345 346 304
581 2 2 0 0 124 386 126
582 2 2 0 0 286 288 287
583 2 2 0 0 331 332 278
584 2 2 0 0 179 181 180
585 2 2 0 0 301 305 302
586 2 2 0 0 300 304 301
587 2 2 0 0 296 300 299
588 2 2 0 0 305 315 310
589 2 2 0 0 296 299 298
590 2 2 0 0 320 453 290
591 2 2 0 0 274 296 295
592 2 2 0 0 313 531 286
593 2 2 0 0 120 281 280
594 2 2 0 0 360 409 315
595 2 2 0 0 363 400 338
596 2 2 0 0 129 130 128
597 2 2 0 0 300 301 299
598 2 2 0 0 1 508 23
599 2 2 0 0 167 273 261
600 2 2 0 0 133 135 134
601 2 2 0 0 173 174 172
602 2 2 0 0 311 377 376
603 2 2 0 0 273 274 261
604 2 2 0 0 273 338 274
605 2 2 0 0 334 395 332
606 2 2 0 0 183 197 184
607 2 2 0 0 319 393 320
608 2 2 0 0 449 450 446
609 2 2 0 0 288 290 289
610 2 2 0 0 226 306 283
611 2 2 0 0 326 380 327
612 2 2 0 0 175 177 174
613 2 2 0 0 181 183 182
614 2 2 0 0 219 230 211
615 2 2 0 0 308 335 307
616 2 2 0 0 267 311 292
617 2 2 0 0 169 170 164
618 2 2 0 0 288 319 290
619 2 2 0 0 126 165 125
620 2 2 0 0 120 280 121
621 2 2 0 0 130 357 128
622 2 2 0 0 195 200 199
623 2 2 0 0 169 171 170
624 2 2 0 0 171 172 170
625 2 2 0 0 184 186 185
626 2 2 0 0 73 282 71
627 2 2 0 0 252 294 251
628 2 2 0 0 319 320 290
629 2 2 0 0 131 132 130
630 2 2 0 0 393 394 320
631 2 2 0 0 171 173 172
632 2 2 0 0 4 34 3
633 2 2 0 0 218 220 219
634 2 2 0 0 267 292 217
635 2 2 0 0 184 185 182
636 2 2 0 0 188 194 190
637 2 2 0 0 56 70 54
638 2 2 0 0 377 405 376
639 2 2 0 0 449 470 450
640 2 2 0 0 179 180 178
641 2 2 0 0 173 175 174
642 2 2 0 0 175 178 177
643 2 2 0 0 250 329 328
644 2 2 0 0 311 376 292
645 2 2 0 0 329 571 350
646 2 2 0 0 347 370 348
647 2 2 0 0 220 222 219
648 2 2 0 0 376 385 292
649 2 2 0 0 133 134 132
650 2 2 0 0 134 136 132
651 2 2 0 0 306 308 307
652 2 2 0 0 200 203 201
653 2 2 0 0 233 247 222
654 2 2 0 0 98 460 82
655 2 2 0 0 329 349 328
656 2 2 0 0 326 381 380
657 2 2 0 0 347 348 270
658 2 2 0 0 181 182 180
659 2 2 0 0 121 122 115
660 2 2 0 0 350 351 349
661 2 2 0 0 308 336 335
662 2 2 0 0 350 403 352
663 2 2 0 0 470 471 450
664 2 2 0 0 203 211 210
665 2 2 0 0 218 219 211
666 2 2 0 0 183 184 182
667 2 2 0 0 370 463 422
668 2 2 0 0 306 402 308
669 2 2 0 0 203 218 211
670 2 2 0 0 71 490 70
671 2 2 0 0 329 350 349
672 2 2 0 0 436 437 414
673 2 2 0 0 124 126 125
674 2 2 0 0 413 414 353
675 2 2 0 0 422 423 348
676 2 2 0 0 352 353 351
677 2 2 0 0 370 422 348
678 2 2 0 0 350 352 351
679 2 2 0 0 413 436 414
680 2 2 0 0 352 413 353
681 2 2 0 0 120 121 115
682 2 2 0 0 110 480 117
683 2 2 0 0 124 125 116
684 2 2 0 0 126 521 165
685 2 2 0 0 113 120 115
686 2 2 0 0 127 440 410
687 2 2 0 0 114 124 116
688 2 2 0 0 543 544 530
689 2 2 0 0 488 489 487
690 2 2 0 0 585 637 366
691 2 2 0 0 543 570 544
692 2 2 0 0 113 115 114
693 2 2 0 0 127 410 106
694 2 2 0 0 114 116 112
695 2 2 0 0 195 515 200
696 2 2 0 0 491 493 492
697 2 2 0 0 12 487 13
698 2 2 0 0 546 547 321
699 2 2 0 0 330 457 411
700 2 2 0 0 157 543 530
701 2 2 0 0 519 520 291
702 2 2 0 0 28 488 487
703 2 2 0 0 111 112 110
704 2 2 0 0 312 534 257
705 2 2 0 0 476 732 412
706 2 2 0 0 27 458 442
707 2 2 0 0 385 636 620
708 2 2 0 0 176 559 156
709 2 2 0 0 593 634 366
710 2 2 0 0 589 590 224
711 2 2 0 0 113 114 112
712 2 2 0 0 109 127 106
713 2 2 0 0 270 564 245
714 2 2 0 0 443 506 445
715 2 2 0 0 491 492 396
716 2 2 0 0 388 624 502
717 2 2 0 0 445 506 448
718 2 2 0 0 30 500 15
719 2 2 0 0 20 504 21
720 2 2 0 0 64 475 60
721 2 2 0 0 287 542 206
722 2 2 0 0 23 508 35
723 2 2 0 0 302 558 299
724 2 2 0 0 70 551 54
725 2 2 0 0 62 598 64
726 2 2 0 0 424 491 396
727 2 2 0 0 407 456 340
728 2 2 0 0 545 546 321
729 2 2 0 0 330 411 397
730 2 2 0 0 72 536 74
731 2 2 0 0 238 574 136
732 2 2 0 0 659 660 420
733 2 2 0 0 395 538 332
734 2 2 0 0 143 527 145
735 2 2 0 0 412 675 476
736 2 2 0 0 239 513 358
737 2 2 0 0 157 530 529
738 2 2 0 0 518 519 291
739 2 2 0 0 449 482 470
740 2 2 0 0 207 713 479
741 2 2 0 0 119 523 75
742 2 2 0 0 109 670 127
743 2 2 0 0 10 501 40
744 2 2 0 0 508 509 35
745 2 2 0 0 96 606 94
746 2 2 0 0 331 459 334
747 2 2 0 0 286 531 288
748 2 2 0 0 290 453 354
749 2 2 0 0 282 490 71
750 2 2 0 0 384 531 313
751 2 2 0 0 289 524 287
752 2 2 0 0 349 550 412
753 2 2 0 0 165 521 256
754 2 2 0 0 82 460 77
755 2 2 0 0 155 543 157
756 2 2 0 0 201 549 199
757 2 2 0 0 273 591 363
758 2 2 0 0 387 521 126
759 2 2 0 0 114 516 124
760 2 2 0 0 53 561 57
761 2 2 0 0 266 554 309
762 2 2 0 0 257 534 255
763 2 2 0 0 205 553 213
764 2 2 0 0 142 522 225
765 2 2 0 0 435 481 356
766 2 2 0 0 216 568 303
767 2 2 0 0 300 563 344
768 2 2 0 0 214 568 209
769 2 2 0 0 112 480 110
770 2 2 0 0 350 571 403
771 2 2 0 0 347 572 485
772 2 2 0 0 275 572 271
773 2 2 0 0 274 563 296
774 2 2 0 0 171 586 293
775 2 2 0 0 162 576 237
776 2 2 0 0 133 580 163
777 2 2 0 0 11 501 10
778 2 2 0 0 295 584 261
779 2 2 0 0 129 583 131
780 2 2 0 0 215 586 169
781 2 2 0 0 250 505 329
782 2 2 0 0 168 588 224
783 2 2 0 0 321 548 170
784 2 2 0 0 262 593 366
785 2 2 0 0 166 646 314
786 2 2 0 0 520 535 291
787 2 2 0 0 373 663 493
788 2 2 0 0 291 535 185
789 2 2 0 0 101 607 97
790 2 2 0 0 130 574 357
791 2 2 0 0 158 570 543
792 2 2 0 0 31 501 11
793 2 2 0 0 444 552 503
794 2 2 0 0 156 559 159
795 2 2 0 0 236 594 505
796 2 2 0 0 206 542 149
797 2 2 0 0 54 551 52
798 2 2 0 0 74 536 373
799 2 2 0 0 337 558 302
800 2 2 0 0 150 532 147
801 2 2 0 0 379 728 457
802 2 2 0 0 299 558 298
803 2 2 0 0 332 538 333
804 2 2 0 0 145 527 148
805 2 2 0 0 514 515 192
806 2 2 0 0 15 500 14
807 2 2 0 0 75 523 73
808 2 2 0 0 467 501 31
809 2 2 0 0 254 592 125
810 2 2 0 0 172 545 321
811 2 2 0 0 144 522 142
812 2 2 0 0 528 532 150
813 2 2 0 0 187 518 291
814 2 2 0 0 553 599 213
815 2 2 0 0 383 603 384
816 2 2 0 0 282 698 490
817 2 2 0 0 244 517 240
818 2 2 0 0 353 525 404
819 2 2 0 0 395 540 538
820 2 2 0 0 94 606 118
821 2 2 0 0 117 539 107
822 2 2 0 0 185 535 182
823 2 2 0 0 388 502 50
824 2 2 0 0 167 591 273
825 2 2 0 0 147 532 146
826 2 2 0 0 92 608 91
827 2 2 0 0 472 676 368
828 2 2 0 0 364 592 254
829 2 2 0 0 21 504 44
830 2 2 0 0 365 597 248
831 2 2 0 0 125 592 116
832 2 2 0 0 588 589 224
833 2 2 0 0 111 113 112
834 2 2 0 0 63 469 408
835 2 2 0 0 105 109 106
836 2 2 0 0 242 526 243
837 2 2 0 0 439 712 29
838 2 2 0 0 240 517 234
839 2 2 0 0 346 533 304
840 2 2 0 0 14 500 38
841 2 2 0 0 494 495 484
842 2 2 0 0 127 630 440
843 2 2 0 0 208 537 204
844 2 2 0 0 175 562 179
845 2 2 0 0 303 626 555
846 2 2 0 0 359 526 242
847 2 2 0 0 243 526 268
848 2 2 0 0 217 537 208
849 2 2 0 0 58 498 55
850 2 2 0 0 503 552 30
851 2 2 0 0 13 499 12
852 2 2 0 0 268 621 569
853 2 2 0 0 489 497 487
854 2 2 0 0 475 498 58
855 2 2 0 0 430 526 359
856 2 2 0 0 248 597 99
857 2 2 0 0 292 537 217
858 2 2 0 0 26 645 45
859 2 2 0 0 234 517 279
860 2 2 0 0 14 497 39
861 2 2 0 0 385 537 292
862 2 2 0 0 305 533 360
863 2 2 0 0 304 533 301
864 2 2 0 0 146 532 284
865 2 2 0 0 483 494 484
866 2 2 0 0 173 562 175
867 2 2 0 0 116 480 112
868 2 2 0 0 224 590 246
869 2 2 0 0 189 518 187
870 2 2 0 0 498 536 72
871 2 2 0 0 414 525 353
872 2 2 0 0 160 522 144
873 2 2 0 0 547 609 548
874 2 2 0 0 182 535 180
875 2 2 0 0 297 601 389
876 2 2 0 0 44 594 81
877 2 2 0 0 301 533 305
878 2 2 0 0 105 106 96
879 2 2 0 0 515 596 200
880 2 2 0 0 293 562 173
881 2 2 0 0 73 523 282
882 2 2 0 0 148 527 285
883 2 2 0 0 174 545 172
884 2 2 0 0 218 596 323
885 2 2 0 0 200 596 203
886 2 2 0 0 149 542 151
887 2 2 0 0 446 552 444
888 2 2 0 0 49 461 330
889 2 2 0 0 330 397 48
890 2 2 0 0 453 738 377
891 2 2 0 0 255 534 324
892 2 2 0 0 52 551 388
893 2 2 0 0 634 646 260
894 2 2 0 0 513 615 358
895 2 2 0 0 438 525 414
896 2 2 0 0 516 618 386
897 2 2 0 0 198 518 189
898 2 2 0 0 227 566 361
899 2 2 0 0 559 560 241
900 2 2 0 0 90 587 93
901 2 2 0 0 416 522 160
902 2 2 0 0 102 591 167
903 2 2 0 0 134 609 137
904 2 2 0 0 298 558 372
905 2 2 0 0 132 574 130
906 2 2 0 0 106 606 96
907 2 2 0 0 159 559 241
908 2 2 0 0 32 611 6
909 2 2 0 0 158 543 155
910 2 2 0 0 223 513 239
911 2 2 0 0 288 531 319
912 2 2 0 0 323 513 220
913 2 2 0 0 115 516 114
914 2 2 0 0 521 601 297
915 2 2 0 0 610 698 455
916 2 2 0 0 354 600 431
917 2 2 0 0 351 550 349
918 2 2 0 0 256 521 297
919 2 2 0 0 140 604 138
920 2 2 0 0 77 460 119
921 2 2 0 0 17 503 16
922 2 2 0 0 9 502 10
923 2 2 0 0 104 587 331
924 2 2 0 0 152 528 150
925 2 2 0 0 315 541 378
926 2 2 0 0 170 548 164
927 2 2 0 0 590 659 420
928 2 2 0 0 11 624 28
929 2 2 0 0 199 549 202
930 2 2 0 0 502 624 10
931 2 2 0 0 453 600 354
932 2 2 0 0 42 43 41
933 2 2 0 0 38 499 13
934 2 2 0 0 285 527 382
935 2 2 0 0 190 514 192
936 2 2 0 0 157 529 528
937 2 2 0 0 231 643 549
938 2 2 0 0 331 587 459
939 2 2 0 0 451 701 232
940 2 2 0 0 99 597 100
941 2 2 0 0 361 568 214
942 2 2 0 0 372 740 544
943 2 2 0 0 221 545 174
944 2 2 0 0 138 604 238
945 2 2 0 0 340 572 275
946 2 2 0 0 338 563 274
947 2 2 0 0 524 542 287
948 2 2 0 0 265 595 312
949 2 2 0 0 111 511 113
950 2 2 0 0 580 658 588
951 2 2 0 0 580 588 163
952 2 2 0 0 237 576 277
953 2 2 0 0 444 503 36
954 2 2 0 0 131 583 580
955 2 2 0 0 505 571 329
956 2 2 0 0 203 596 218
957 2 2 0 0 584 634 260
958 2 2 0 0 261 584 260
959 2 2 0 0 369 647 365
960 2 2 0 0 251 586 215
961 2 2 0 0 348 564 270
962 2 2 0 0 450 552 446
963 2 2 0 0 390 496 391
964 2 2 0 0 66 598 62
965 2 2 0 0 465 623 423
966 2 2 0 0 258 591 102
967 2 2 0 0 343 566 227
968 2 2 0 0 564 623 244
969 2 2 0 0 154 617 141
970 2 2 0 0 324 534 392
971 2 2 0 0 50 502 37
972 2 2 0 0 524 556 542
973 2 2 0 0 544 700 372
974 2 2 0 0 122 516 115
975 2 2 0 0 177 557 221
976 2 2 0 0 489 698 610
977 2 2 0 0 93 587 104
978 2 2 0 0 136 574 132
979 2 2 0 0 593 646 634
980 2 2 0 0 116 592 480
981 2 2 0 0 143 617 527
982 2 2 0 0 225 604 140
983 2 2 0 0 137 631 139
984 2 2 0 0 549 553 202
985 2 2 0 0 164 548 135
986 2 2 0 0 404 550 351
987 2 2 0 0 34 721 473
988 2 2 0 0 220 513 223
989 2 2 0 0 317 640 511
990 2 2 0 0 100 597 258
991 2 2 0 0 588 658 589
992 2 2 0 0 323 615 513
993 2 2 0 0 568 626 303
994 2 2 0 0 377 605 405
995 2 2 0 0 178 613 212
996 2 2 0 0 493 628 373
997 2 2 0 0 157 528 152
998 2 2 0 0 591 627 363
999 2 2 0 0 409 541 315
1000 2 2 0 0 183 614 197
1001 2 2 0 0 103 598 66
1002 2 2 0 0 188 619 194
1003 2 2 0 0 213 599 226
1004 2 2 0 0 306 599 402
1005 2 2 0 0 97 607 25
1006 2 2 0 0 194 514 190
1007 2 2 0 0 373 628 76
1008 2 2 0 0 78 628 253
1009 2 2 0 0 42 47 43
1010 2 2 0 0 39 612 15
1011 2 2 0 0 16 612 29
1012 2 2 0 0 437 610 455
1013 2 2 0 0 487 497 13
1014 2 2 0 0 440 630 441
1015 2 2 0 0 479 713 562
1016 2 2 0 0 196 620 193
1017 2 2 0 0 456 572 340
1018 2 2 0 0 120 511 281
1019 2 2 0 0 577 578 235
1020 2 2 0 0 335 582 399
1021 2 2 0 0 314 741 683
1022 2 2 0 0 520 613 535
1023 2 2 0 0 585 634 584
1024 2 2 0 0 423 564 348
1025 2 2 0 0 457 561 411
1026 2 2 0 0 6 611 5
1027 2 2 0 0 385 620 537
1028 2 2 0 0 228 637 229
1029 2 2 0 0 366 637 249
1030 2 2 0 0 161 570 158
1031 2 2 0 0 434 640 435
1032 2 2 0 0 193 636 191
1033 2 2 0 0 410 606 106
1034 2 2 0 0 37 502 9
1035 2 2 0 0 36 503 17
1036 2 2 0 0 141 617 143
1037 2 2 0 0 363 627 401
1038 2 2 0 0 322 590 420
1039 2 2 0 0 357 618 128
1040 2 2 0 0 430 621 526
1041 2 2 0 0 540 687 103
1042 2 2 0 0 280 577 121
1043 2 2 0 0 276 575 318
1044 2 2 0 0 362 578 577
1045 2 2 0 0 109 649 496
1046 2 2 0 0 246 590 322
1047 2 2 0 0 326 569 381
1048 2 2 0 0 569 621 381
1049 2 2 0 0 269 569 272
1050 2 2 0 0 139 631 154
1051 2 2 0 0 649 664 496
1052 2 2 0 0 537 620 204
1053 2 2 0 0 355 461 49
1054 2 2 0 0 663 685 493
1055 2 2 0 0 479 745 207
1056 2 2 0 0 343 662 565
1057 2 2 0 0 212 557 177
1058 2 2 0 0 45 645 46
1059 2 2 0 0 496 670 109
1060 2 2 0 0 366 634 585
1061 2 2 0 0 384 616 531
1062 2 2 0 0 535 613 180
1063 2 2 0 0 391 632 364
1064 2 2 0 0 308 581 336
1065 2 2 0 0 344 625 462
1066 2 2 0 0 563 625 344
1067 2 2 0 0 13 497 14
1068 2 2 0 0 480 632 117
1069 2 2 0 0 371 668 585
1070 2 2 0 0 333 649 278
1071 2 2 0 0 387 601 521
1072 2 2 0 0 47 49 48
1073 2 2 0 0 358 615 428
1074 2 2 0 0 113 511 120
1075 2 2 0 0 527 617 382
1076 2 2 0 0 105 649 109
1077 2 2 0 0 398 573 307
1078 2 2 0 0 368 676 369
1079 2 2 0 0 180 613 178
1080 2 2 0 0 153 556 176
1081 2 2 0 0 432 657 367
1082 2 2 0 0 458 718 582
1083 2 2 0 0 207 614 183
1084 2 2 0 0 407 611 456
1085 2 2 0 0 244 623 517
1086 2 2 0 0 20 639 27
1087 2 2 0 0 476 675 87
1088 2 2 0 0 319 616 393
1089 2 2 0 0 474 707 197
1090 2 2 0 0 226 599 306
1091 2 2 0 0 47 48 43
1092 2 2 0 0 186 619 188
1093 2 2 0 0 412 732 328
1094 2 2 0 0 316 671 541
1095 2 2 0 0 293 734 478
1096 2 2 0 0 492 685 598
1097 2 2 0 0 528 629 532
1098 2 2 0 0 514 635 515
1099 2 2 0 0 531 616 319
1100 2 2 0 0 8 656 7
1101 2 2 0 0 387 602 601
1102 2 2 0 0 76 628 78
1103 2 2 0 0 122 618 516
1104 2 2 0 0 651 717 394
1105 2 2 0 0 423 623 564
1106 2 2 0 0 546 669 547
1107 2 2 0 0 4 679 34
1108 2 2 0 0 542 556 151
1109 2 2 0 0 548 609 135
1110 2 2 0 0 204 620 196
1111 2 2 0 0 529 629 528
1112 2 2 0 0 482 719 230
1113 2 2 0 0 258 627 591
1114 2 2 0 0 336 582 335
1115 2 2 0 0 197 686 667
1116 2 2 0 0 583 658 580
1117 2 2 0 0 85 675 98
1118 2 2 0 0 59 728 379
1119 2 2 0 0 400 625 338
1120 2 2 0 0 394 717 605
1121 2 2 0 0 471 650 450
1122 2 2 0 0 596 635 323
1123 2 2 0 0 249 637 228
1124 2 2 0 0 515 635 596
1125 2 2 0 0 338 625 563
1126 2 2 0 0 28 633 488
1127 2 2 0 0 566 622 361
1128 2 2 0 0 229 570 161
1129 2 2 0 0 468 654 465
1130 2 2 0 0 118 710 462
1131 2 2 0 0 15 612 16
1132 2 2 0 0 589 659 590
1133 2 2 0 0 526 621 268
1134 2 2 0 0 365 647 597
1135 2 2 0 0 579 583 235
1136 2 2 0 0 22 507 21
1137 2 2 0 0 342 682 264
1138 2 2 0 0 441 648 346
1139 2 2 0 0 191 636 198
1140 2 2 0 0 578 653 579
1141 2 2 0 0 135 609 134
1142 2 2 0 0 128 618 122
1143 2 2 0 0 378 681 310
1144 2 2 0 0 230 690 211
1145 2 2 0 0 210 690 232
1146 2 2 0 0 549 643 553
1147 2 2 0 0 233 661 247
1148 2 2 0 0 10 624 11
1149 2 2 0 0 640 709 435
1150 2 2 0 0 449 719 482
1151 2 2 0 0 452 726 33
1152 2 2 0 0 362 577 280
1153 2 2 0 0 318 575 433
1154 2 2 0 0 492 687 396
1155 2 2 0 0 586 734 293
1156 2 2 0 0 357 655 618
1157 2 2 0 0 277 567 259
1158 2 2 0 0 522 641 225
1159 2 2 0 0 511 640 281
1160 2 2 0 0 247 661 483
1161 2 2 0 0 610 693 39
1162 2 2 0 0 272 569 326
1163 2 2 0 0 490 695 70
1164 2 2 0 0 553 643 599
1165 2 2 0 0 532 629 284
1166 2 2 0 0 29 712 17
1167 2 2 0 0 632 665 117
1168 2 2 0 0 618 655 386
1169 2 2 0 0 241 699 576
1170 2 2 0 0 457 728 561
1171 2 2 0 0 485 572 456
1172 2 2 0 0 430 667 621
1173 2 2 0 0 582 672 458
1174 2 2 0 0 395 687 540
1175 2 2 0 0 504 594 44
1176 2 2 0 0 181 713 207
1177 2 2 0 0 197 707 184
1178 2 2 0 0 524 657 556
1179 2 2 0 0 475 536 498
1180 2 2 0 0 394 738 320
1181 2 2 0 0 51 714 561
1182 2 2 0 0 151 556 153
1183 2 2 0 0 437 693 610
1184 2 2 0 0 361 626 568
1185 2 2 0 0 611 679 5
1186 2 2 0 0 231 680 643
1187 2 2 0 0 462 706 118
1188 2 2 0 0 390 670 496
1189 2 2 0 0 602 642 601
1190 2 2 0 0 49 330 48
1191 2 2 0 0 391 665 632
1192 2 2 0 0 508 737 375
1193 2 2 0 0 450 650 552
1194 2 2 0 0 368 732 476
1195 2 2 0 0 578 579 235
1196 2 2 0 0 402 581 308
1197 2 2 0 0 43 486 41
1198 2 2 0 0 562 713 179
1199 2 2 0 0 592 632 480
1200 2 2 0 0 416 641 522
1201 2 2 0 0 372 668 371
1202 2 2 0 0 452 712 439
1203 2 2 0 0 282 720 455
1204 2 2 0 0 556 657 176
1205 2 2 0 0 364 632 592
1206 2 2 0 0 403 726 452
1207 2 2 0 0 465 654 623
1208 2 2 0 0 278 649 105
1209 2 2 0 0 154 652 617
1210 2 2 0 0 383 688 603
1211 2 2 0 0 451 719 447
1212 2 2 0 0 317 709 640
1213 2 2 0 0 604 711 642
1214 2 2 0 0 382 652 383
1215 2 2 0 0 601 642 389
1216 2 2 0 0 284 671 316
1217 2 2 0 0 599 643 402
1218 2 2 0 0 388 633 624
1219 2 2 0 0 267 678 311
1220 2 2 0 0 337 681 530
1221 2 2 0 0 279 661 233
1222 2 2 0 0 605 738 394
1223 2 2 0 0 33 677 504
1224 2 2 0 0 386 655 387
1225 2 2 0 0 547 669 631
1226 2 2 0 0 562 731 479
1227 2 2 0 0 360 648 595
1228 2 2 0 0 432 692 657
1229 2 2 0 0 367 657 524
1230 2 2 0 0 633 695 488
1231 2 2 0 0 415 473 341
1232 2 2 0 0 644 672 336
1233 2 2 0 0 551 633 388
1234 2 2 0 0 533 648 360
1235 2 2 0 0 407 679 611
1236 2 2 0 0 323 635 615
1237 2 2 0 0 530 681 529
1238 2 2 0 0 393 651 394
1239 2 2 0 0 387 655 602
1240 2 2 0 0 238 703 574
1241 2 2 0 0 594 677 505
1242 2 2 0 0 559 692 560
1243 2 2 0 0 621 667 381
1244 2 2 0 0 405 674 376
1245 2 2 0 0 325 732 368
1246 2 2 0 0 623 654 517
1247 2 2 0 0 581 644 336
1248 2 2 0 0 346 648 533
1249 2 2 0 0 517 654 279
1250 2 2 0 0 477 705 481
1251 2 2 0 0 481 705 355
1252 2 2 0 0 561 728 57
1253 2 2 0 0 379 705 477
1254 2 2 0 0 617 652 382
1255 2 2 0 0 30 650 500
1256 2 2 0 0 376 674 385
1257 2 2 0 0 518 715 519
1258 2 2 0 0 474 667 430
1259 2 2 0 0 478 734 294
1260 2 2 0 0 624 633 28
1261 2 2 0 0 186 707 619
1262 2 2 0 0 64 663 475
1263 2 2 0 0 597 647 258
1264 2 2 0 0 377 738 605
1265 2 2 0 0 31 735 467
1266 2 2 0 0 27 718 458
1267 2 2 0 0 419 673 68
1268 2 2 0 0 616 722 393
1269 2 2 0 0 24 723 419
1270 2 2 0 0 397 638 48
1271 2 2 0 0 404 730 460
1272 2 2 0 0 91 676 472
1273 2 2 0 0 622 626 361
1274 2 2 0 0 7 656 32
1275 2 2 0 0 576 697 277
1276 2 2 0 0 471 691 650
1277 2 2 0 0 536 663 373
1278 2 2 0 0 484 691 471
1279 2 2 0 0 552 650 30
1280 2 2 0 0 311 678 600
1281 2 2 0 0 486 729 5
1282 2 2 0 0 418 673 666
1283 2 2 0 0 232 680 231
1284 2 2 0 0 5 679 4
1285 2 2 0 0 117 665 539
1286 2 2 0 0 384 702 616
1287 2 2 0 0 557 702 221
1288 2 2 0 0 87 675 85
1289 2 2 0 0 225 711 604
1290 2 2 0 0 505 677 571
1291 2 2 0 0 483 661 494
1292 2 2 0 0 263 565 375
1293 2 2 0 0 504 677 594
1294 2 2 0 0 582 718 399
1295 2 2 0 0 645 714 46
1296 2 2 0 0 534 708 392
1297 2 2 0 0 643 680 402
1298 2 2 0 0 18 712 452
1299 2 2 0 0 392 670 390
1300 2 2 0 0 221 702 603
1301 2 2 0 0 496 664 391
1302 2 2 0 0 606 710 118
1303 2 2 0 0 655 703 602
1304 2 2 0 0 608 676 91
1305 2 2 0 0 194 684 514
1306 2 2 0 0 541 671 378
1307 2 2 0 0 154 669 652
1308 2 2 0 0 399 718 639
1309 2 2 0 0 405 715 674
1310 2 2 0 0 33 726 677
1311 2 2 0 0 629 671 284
1312 2 2 0 0 468 735 495
1313 2 2 0 0 469 704 408
1314 2 2 0 0 427 745 479
1315 2 2 0 0 294 734 251
1316 2 2 0 0 461 705 379
1317 2 2 0 0 385 674 636
1318 2 2 0 0 657 692 176
1319 2 2 0 0 561 714 411
1320 2 2 0 0 631 669 154
1321 2 2 0 0 264 682 265
1322 2 2 0 0 43 638 486
1323 2 2 0 0 48 638 43
1324 2 2 0 0 194 744 684
1325 2 2 0 0 381 686 380
1326 2 2 0 0 658 716 589
1327 2 2 0 0 263 567 565
1328 2 2 0 0 310 681 337
1329 2 2 0 0 493 685 492
1330 2 2 0 0 64 685 663
1331 2 2 0 0 309 678 267
1332 2 2 0 0 600 678 431
1333 2 2 0 0 538 694 333
1334 2 2 0 0 598 685 64
1335 2 2 0 0 551 695 633
1336 2 2 0 0 560 699 241
1337 2 2 0 0 211 690 210
1338 2 2 0 0 2 723 3
1339 2 2 0 0 630 708 441
1340 2 2 0 0 467 735 468
1341 2 2 0 0 396 687 395
1342 2 2 0 0 35 507 22
1343 2 2 0 0 259 567 263
1344 2 2 0 0 417 673 418
1345 2 2 0 0 614 686 197
1346 2 2 0 0 392 708 630
1347 2 2 0 0 5 729 6
1348 2 2 0 0 279 725 661
1349 2 2 0 0 6 729 26
1350 2 2 0 0 357 703 655
1351 2 2 0 0 514 684 635
1352 2 2 0 0 540 733 538
1353 2 2 0 0 374 741 593
1354 2 2 0 0 176 692 559
1355 2 2 0 0 650 691 500
1356 2 2 0 0 484 736 691
1357 2 2 0 0 83 733 540
1358 2 2 0 0 558 740 372
1359 2 2 0 0 626 697 555
1360 2 2 0 0 436 693 437
1361 2 2 0 0 375 737 374
1362 2 2 0 0 475 663 536
1363 2 2 0 0 636 674 198
1364 2 2 0 0 674 715 198
1365 2 2 0 0 70 695 551
1366 2 2 0 0 406 721 407
1367 2 2 0 0 677 726 571
1368 2 2 0 0 258 647 627
1369 2 2 0 0 448 701 451
1370 2 2 0 0 458 672 506
1371 2 2 0 0 229 700 570
1372 2 2 0 0 684 744 428
1373 2 2 0 0 570 700 544
1374 2 2 0 0 678 742 431
1375 2 2 0 0 646 741 314
1376 2 2 0 0 603 702 384
1377 2 2 0 0 478 731 293
1378 2 2 0 0 309 742 678
1379 2 2 0 0 380 686 614
1380 2 2 0 0 494 725 468
1381 2 2 0 0 500 691 38
1382 2 2 0 0 635 684 615
1383 2 2 0 0 661 725 494
1384 2 2 0 0 679 721 34
1385 2 2 0 0 509 510 35
1386 2 2 0 0 46 714 51
1387 2 2 0 0 615 684 428
1388 2 2 0 0 432 742 689
1389 2 2 0 0 179 713 181
1390 2 2 0 0 26 739 645
1391 2 2 0 0 35 510 507
1392 2 2 0 0 574 703 357
1393 2 2 0 0 184 707 186
1394 2 2 0 0 39 693 612
1395 2 2 0 0 665 694 539
1396 2 2 0 0 312 708 534
1397 2 2 0 0 554 689 309
1398 2 2 0 0 1 737 508
1399 2 2 0 0 519 717 520
1400 2 2 0 0 277 697 622
1401 2 2 0 0 389 711 641
1402 2 2 0 0 495 736 484
1403 2 2 0 0 17 712 18
1404 2 2 0 0 212 722 557
1405 2 2 0 0 455 720 438
1406 2 2 0 0 622 697 626
1407 2 2 0 0 664 694 665
1408 2 2 0 0 447 719 449
1409 2 2 0 0 669 688 652
1410 2 2 0 0 612 693 436
1411 2 2 0 0 619 744 194
1412 2 2 0 0 57 728 59
1413 2 2 0 0 579 658 583
1414 2 2 0 0 438 727 525
1415 2 2 0 0 539 733 83
1416 2 2 0 0 479 731 478
1417 2 2 0 0 691 736 38
1418 2 2 0 0 401 724 400
1419 2 2 0 0 420 660 2
1420 2 2 0 0 328 732 325
1421 2 2 0 0 320 738 453
1422 2 2 0 0 428 744 429
1423 2 2 0 0 431 742 432
1424 2 2 0 0 425 745 427
1425 2 2 0 0 408 743 434
1426 2 2 0 0 571 726 403
1427 2 2 0 0 119 727 523
1428 2 2 0 0 625 706 462
1429 2 2 0 0 525 730 404
1430 2 2 0 0 499 736 495
1431 2 2 0 0 468 725 654
1432 2 2 0 0 336 672 582
1433 2 2 0 0 198 715 518
1434 2 2 0 0 400 724 706
1435 2 2 0 0 402 680 581
1436 2 2 0 0 589 716 659
1437 2 2 0 0 727 730 525
1438 2 2 0 0 664 665 391
1439 2 2 0 0 337 740 558
1440 2 2 0 0 293 731 562
1441 2 2 0 0 523 720 282
1442 2 2 0 0 460 730 119
1443 2 2 0 0 641 711 225
1444 2 2 0 0 429 744 619
1445 2 2 0 0 119 730 727
1446 2 2 0 0 651 722 212
1447 2 2 0 0 38 736 499
1448 2 2 0 0 667 686 381
1449 2 2 0 0 652 688 383
1450 2 2 0 0 410 710 606
1451 2 2 0 0 644 701 448
1452 2 2 0 0 666 673 419
1453 2 2 0 0 704 743 408
1454 2 2 0 0 251 734 586
1455 2 2 0 0 400 706 625
1456 2 2 0 0 546 688 669
1457 2 2 0 0 668 700 229
1458 2 2 0 0 538 733 694
1459 2 2 0 0 333 694 664
1460 2 2 0 0 565 662 375
1461 2 2 0 0 720 727 438
1462 2 2 0 0 372 700 668
1463 2 2 0 0 579 716 658
1464 2 2 0 0 642 711 389
1465 2 2 0 0 355 705 461
1466 2 2 0 0 407 721 679
1467 2 2 0 0 523 727 720
1468 2 2 0 0 654 725 279
1469 2 2 0 0 639 718 27
1470 2 2 0 0 694 733 539
1471 2 2 0 0 393 722 651
1472 2 2 0 0 645 739 397
1473 2 2 0 0 683 741 374
1474 2 2 0 0 397 739 638
1475 2 2 0 0 653 716 579
1476 2 2 0 0 666 723 660
1477 2 2 0 0 419 723 666
1478 2 2 0 0 374 737 683
1479 2 2 0 0 593 741 646
1480 2 2 0 0 683 737 1
1481 2 2 0 0 689 742 309
1482 2 2 0 0 660 723 2
1483 2 2 0 0 23 25 1
1484 2 2 0 0 25 607 1
1485 2 2 0 0 3 34 2
1486 2 2 0 0 34 415 2
$EndElements
