$MeshFormat
2.2 0 8
$EndMeshFormat
$Nodes
745
1 3.2481524316399193e-05 3.1513465481100735e-05 1.0052832569595385e-03
2 3.0769832579419324e-05 -3.7790075211958361e-05 -1.0039864715180775e-03
3 1.3405551464989852e-04 2.1223099524311423e-05 -9.9547713505605665e-04
4 2.3091591501564999e-04 3.6666623681118710e-05 -9.7774071948448019e-04
5 3.5702198208882547e-04 5.0021703814271723e-05 -9.3866675870939414e-04
6 4.9817889483556020e-04 -2.9058316327638885e-07 -8.7214484397212639e-04
7 6.1765215963908982e-04 -1.3448129273372325e-05 -7.9106509032491354e-04
8 7.3952363217941370e-04 -1.0892529464549544e-05 -6.7670637342541039e-04
9 8.3895919904943071e-04 -3.4330800124624081e-06 -5.4574515754369157e-04
10 9.0760247233731008e-04 8.5770928209448617e-07 -4.1775981870287510e-04
11 9.5664717843934168e-04 2.3964751988755749e-06 -2.8266849604146346e-04
12 9.8624628237674100e-04 2.7561628849878369e-06 -1.4228125189793457e-04
13 9.9602122842263620e-04 -2.3834748383799639e-06 -1.9918281066283175e-07
14 9.8625076454498411e-04 9.3787943741771121e-06 1.4062914527213956e-04
15 9.5841146596329946e-04 1.4128500035357581e-05 2.7580562901999631e-04
16 9.0896164615029973e-04 9.2083443275981441e-06 4.1499682505104452e-04
17 8.3555031589380374e-04 1.7649335428054628e-06 5.5122375292736671e-04
18 7.3581355382896943e-04 9.9019522199471609e-07 6.8111897123606833e-04
19 6.2154543922655339e-04 1.9987100253783699e-06 7.8844412771693427e-04
20 4.9847405549530231e-04 2.1381341837538842e-07 8.7227933935181499e-04
21 3.7916347882961351e-04 -5.1199862164287707e-06 9.3087491937469404e-04
22 2.5852114608390674e-04 9.5910681561394577e-06 9.7166333705853939e-04
23 1.4221461115943604e-04 -1.4089794775182755e-06 9.9494301077431057e-04
24 1.6476786749867675e-04 1.2761485483112677e-04 -9.8359753272638439e-04
25 1.6449691805811155e-04 1.0017091350870127e-04 9.8765058573881755e-04
26 5.7522033374490279e-04 1.0473328154527391e-04 -8.1571026395350161e-04
27 5.6628035710348584e-04 -1.1284099657617646e-04 8.2160477958814586e-04
28 9.6517274893443512e-04 1.3522275930170886e-04 -2.0966143467732279e-04
29 8.6049324038561933e-04 1.4685979727150757e-04 4.8983815196103917e-04
30 9.3221803751508475e-04 -1.1151657165156837e-04 3.3900973410966952e-04
31 9.6660878317697898e-04 -1.1610901139921281e-04 -2.1402171293316254e-04
32 5.3285696741422366e-04 -1.2068562189448761e-04 -8.4289044509256665e-04
33 5.4571380439627862e-04 1.1587952106734966e-04 8.3498725161775672e-04
34 1.6645547990852877e-04 -7.8860344540063770e-05 -9.8892800217863577e-04
35 1.9365672192344936e-04 -1.0340431108231270e-04 9.8120407844733333e-04
36 7.8841559309791561e-04 -1.1233355811074963e-04 6.0774960959431403e-04
37 7.8612491109095943e-04 1.1506543610776357e-04 -6.0981281251853438e-04
38 9.8729922534292127e-04 -1.0812027329142080e-04 7.3144938613683131e-05
39 9.6703760633720659e-04 1.2859548971929632e-04 2.0375366371650438e-04
40 8.6554303770980910e-04 -1.2680233567720454e-04 -4.8471083768179710e-04
41 2.7881654140053382e-04 1.4357980160459763e-04 -9.5479877938010307e-04
42 2.0357623698546068e-04 2.5663094609997830e-04 -9.4982726648543733e-04
43 3.3050896403218766e-04 2.6002523750909333e-04 -9.1177377802957918e-04
44 3.0255521019778402e-04 1.0607598562809854e-04 9.5305133990421654e-04
45 6.7764824819381781e-04 1.0551117967555408e-04 -7.3178120183359761e-04
46 7.2166455020273115e-04 2.2560472130441593e-04 -6.5750301912858688e-04
47 2.7527981815996465e-04 3.6589717778215045e-04 -8.9344017751838607e-04
48 3.9048560992097818e-04 3.5533797903030345e-04 -8.5339862996398647e-04
49 3.2844110281176193e-04 4.7146358223901528e-04 -8.2228298357789266e-04
50 8.0846873674491118e-04 2.4510575268457945e-04 -5.3586831042885200e-04
51 7.3259288875261350e-04 3.6606736583203760e-04 -5.7555175131134939e-04
52 8.1333035043528498e-04 3.7013635565020923e-04 -4.4693201309822805e-04
53 7.2469670979926715e-04 4.9344468509338513e-04 -4.8001179378085205e-04
54 8.0215119917070496e-04 4.8405348475130645e-04 -3.4306304136107798e-04
55 7.1341545922763835e-04 5.9530882072665267e-04 -3.6378968992258179e-04
56 7.7846198943616021e-04 5.7767277573231985e-04 -2.3129957306495730e-04
57 6.3351168655823194e-04 5.9933303777657144e-04 -4.8786897283291923e-04
58 6.1186883651066554e-04 6.9133382517145225e-04 -3.7852564913822359e-04
59 5.2197627427222120e-04 6.9361266832366553e-04 -4.9472796943660850e-04
60 4.9161686134457515e-04 7.7532184383726952e-04 -3.9097518454365629e-04
61 3.9754016945216974e-04 7.6287279813783268e-04 -5.0890969888195197e-04
62 3.6344286176262394e-04 8.4257911995602470e-04 -3.9196237925781324e-04
63 2.1037951051825279e-04 4.5667920021268832e-04 -8.6868162049270317e-04
64 4.5439412369488019e-04 8.3976137208458131e-04 -2.8478458152973485e-04
65 2.5831013897440754e-04 8.2208714604411830e-04 -5.0670972692306595e-04
66 2.2877825595967745e-04 8.9592011828733135e-04 -3.7467419377391003e-04
67 1.2606036193646465e-04 8.6704191521153680e-04 -4.8050558744181952e-04
68 9.9379405216813268e-05 2.3859008602552948e-04 -9.7089936538911155e-04
69 1.4340755793194402e-04 7.7429316609168241e-04 -6.1949726784897683e-04
70 8.5505938100946901e-04 4.6368913763986162e-04 -2.1591866956881966e-04
71 8.2740968022131242e-04 5.4528045933906731e-04 -1.0037377345913211e-04
72 7.3574333716994785e-04 6.5969422415999965e-04 -1.2332968914926772e-04
73 7.7271487923130254e-04 6.2800739121765287e-04 -2.1072918964914625e-06
74 6.6784602767344290e-04 7.3774671055018852e-04 -2.5093012234817717e-05
75 6.9430192708983256e-04 7.0733662672774038e-04 9.3985383548161454e-05
76 5.7967501002120509e-04 8.0611177464744708e-04 7.1628605134090189e-05
77 6.1045464905787588e-04 7.6112213928278608e-04 2.0106013171114162e-04
78 4.9793708359706173e-04 8.4361630511385242e-04 1.8025864873105589e-04
79 9.3110133961652963e-05 9.3309583648947328e-04 -3.3956481158415962e-04
80 -1.3244842301602678e-05 8.9928708772246636e-04 -4.3327049421321953e-04
81 2.3218111415672474e-04 2.1879370316079552e-04 9.5347692132078049e-04
82 5.1941372876587765e-04 7.9191494851688982e-04 3.1290462714396211e-04
83 -4.3217681479468745e-05 9.4872603371406409e-04 -3.0175191425716293e-04
84 4.0320930337466135e-04 8.6544849019419697e-04 2.8704418580624151e-04
85 4.1369034827657488e-04 8.1021844137523608e-04 4.1141228770548221e-04
86 2.9519277480614486e-04 8.7393110279433684e-04 3.8078551869243072e-04
87 3.0031790386905505e-04 8.0924960349899779e-04 5.0356079679067598e-04
88 1.7887024335581168e-04 8.6268561748202284e-04 4.7106837832776625e-04
89 1.6718011513457807e-04 9.2379025940160400e-04 3.3682558203975332e-04
90 4.9941070606889593e-05 9.0246400181920609e-04 4.2390496305078524e-04
91 6.6870951428335369e-05 8.3103209339756409e-04 5.5236395790229486e-04
92 -5.8817088840436970e-05 8.6122428811111012e-04 5.0304134588508270e-04
93 -8.9508821381013170e-05 9.1991717981231404e-04 3.7526460846701797e-04
94 -1.9239391075744110e-04 8.6960312998834608e-04 4.5101183811935226e-04
95 -1.6504060719293843e-04 8.0377933223145948e-04 5.7014264723580254e-04
96 -2.2287959437489828e-04 9.1476613551836879e-04 3.2772171470024170e-04
97 1.1514758027656059e-04 2.1740487526879752e-04 9.7488083419749907e-04
98 5.4418922330089681e-04 7.0720479560037520e-04 4.5158687399029693e-04
99 1.6325945587732909e-04 3.3514895040104656e-04 9.3330264769302476e-04
100 3.9032961146893271e-05 3.3440926037881522e-04 9.4696673228548836e-04
101 -5.7502474573846742e-06 2.1960700886906894e-04 9.8105356126772605e-04
102 -9.0928541912538017e-05 3.2585519476431411e-04 9.4634102397787672e-04
103 1.9737353919503561e-04 9.4604034431949012e-04 -2.4189157519096692e-04
104 -1.1159696695065387e-04 9.5892680452386780e-04 2.4572214144303781e-04
105 -2.4568042566788589e-04 9.4153828421153236e-04 2.1151148619968923e-04
106 -3.5625702849527029e-04 8.8673671606374384e-04 2.8203845986459511e-04
107 -1.5232068236183311e-04 9.0925837692246039e-04 -3.8067444564506339e-04
108 -1.2800558463227227e-04 8.4698733530136957e-04 -5.1458695682959118e-04
109 -3.7985295676425731e-04 9.0707319759270955e-04 1.5372919246334826e-04
110 -2.6269252384457083e-04 8.4784146523201611e-04 -4.5729315328692265e-04
111 -2.3103916893153279e-04 7.7788701690348599e-04 -5.8488800874213168e-04
112 -3.7058530436391080e-04 7.6863048730716930e-04 -5.2028198481878472e-04
113 -3.3890443782269759e-04 6.9259595167351035e-04 -6.3843922599309000e-04
114 -4.6500842967956471e-04 6.7567627170333263e-04 -5.7232155410158339e-04
115 -4.2606405886037527e-04 5.9219477229694145e-04 -6.8647616583176248e-04
116 -4.9651522929895179e-04 7.4191015272325508e-04 -4.4710120746887573e-04
117 -2.9022018677327978e-04 8.9797904908297914e-04 -3.2057336691314185e-04
118 -2.8511323145780283e-04 7.8784004916186343e-04 5.4647042762479188e-04
119 7.0750936510376758e-04 6.6475737095642257e-04 2.2310453220458198e-04
120 -2.9810738907648645e-04 5.9507012751189000e-04 -7.4981631288564604e-04
121 -3.8162507841786592e-04 4.9128938199517909e-04 -7.8678803586384126e-04
122 -5.0350885062345877e-04 4.7281289097379493e-04 -7.2625827491157931e-04
123 -4.5066008770712723e-04 3.6850327210924378e-04 -8.1722013836247947e-04
124 -5.8522642788406477e-04 6.4100084094800109e-04 -4.9479039088622665e-04
125 -6.1063766305149763e-04 7.0016190104440872e-04 -3.6290287472226843e-04
126 -6.9585721491902987e-04 5.9078665041988250e-04 -4.0315351915203067e-04
127 -4.8317382371875525e-04 8.4166281298466220e-04 2.2355905519318788e-04
128 -5.7278348365602907e-04 3.4531017813897659e-04 -7.4678869723759911e-04
129 -5.1329036288469279e-04 2.3468762248980582e-04 -8.2978415894497911e-04
130 -6.3215250865074661e-04 2.2089295080477580e-04 -7.4616422419420661e-04
131 -5.6600857799781216e-04 1.0780894251256360e-04 -8.2168195854133820e-04
132 -6.8377434059448822e-04 9.1625335893706395e-05 -7.2743315294206850e-04
133 -6.1535961960390540e-04 -1.9312951256246805e-05 -7.9230544750451672e-04
134 -7.2525092454138300e-04 -4.1211193978536422e-05 -6.9048598134014566e-04
135 -6.4867096172871344e-04 -1.5032340062131339e-04 -7.5011719562703412e-04
136 -7.8826175963753241e-04 7.6071067071386257e-05 -6.1265429136030049e-04
137 -8.1975644294783308e-04 -6.8033637931974868e-05 -5.6972223708399669e-04
138 -8.7161161302641858e-04 5.2711530452475060e-05 -4.8624403145537231e-04
139 -8.9217108540747025e-04 -9.2400398435958525e-05 -4.3925385075264354e-04
140 -9.3444890100704593e-04 2.0076196301155681e-05 -3.4836300808018238e-04
141 -9.4341159171800945e-04 -1.1724646243677885e-04 -3.0044968115280251e-04
142 -9.7320850633321248e-04 -1.3023301689798042e-05 -2.1199607577211441e-04
143 -9.7121726331103587e-04 -1.4821048545966966e-04 -1.6290222395932931e-04
144 -9.9148363767650777e-04 -4.1844244032604807e-05 -7.7418959280630418e-05
145 -9.7945758854502173e-04 -1.7536627689532832e-04 -2.6373974226137150e-05
146 -9.9194378118643684e-04 -6.1833399146136393e-05 5.2868746862924285e-05
147 -9.7114491709118084e-04 -1.9183485998833575e-04 1.0665735831597209e-04
148 -9.4698000434593923e-04 -3.0585487798918390e-04 2.5926995322974934e-05
149 -9.3069666348633972e-04 -3.1666703672194148e-04 1.6003581258568621e-04
150 -9.4658593502297517e-04 -1.9855263404370819e-04 2.4044588705021157e-04
151 -8.9825716875502814e-04 -3.1823883294680987e-04 2.9372966621334356e-04
152 -9.0251626974993887e-04 -1.9931802914895330e-04 3.7696194461407103e-04
153 -8.4503076718362650e-04 -3.1915701714181713e-04 4.2615712060407944e-04
154 -8.9460823601109941e-04 -2.2217347618577095e-04 -3.8217208412079064e-04
155 -8.3457393844408288e-04 -2.0168124204697019e-04 5.1260021993823992e-04
156 -7.6644741494766939e-04 -3.2672568257106747e-04 5.5398919327008804e-04
157 -8.8344377439523363e-04 -6.9734147300204932e-05 4.6185520187960917e-04
158 -7.4289171634988823e-04 -2.1369553449244739e-04 6.3697385032950840e-04
159 -6.6339308928509448e-04 -3.3491370046068170e-04 6.7257189395014000e-04
160 -9.9267631795647978e-04 6.9878493095273364e-05 3.3587072765170393e-06
161 -6.3691759526183426e-04 -2.1884844838419441e-04 7.4328052943363877e-04
162 -5.4766285546445251e-04 -3.2517565827030115e-04 7.7578325173447121e-04
163 -5.2615297756525737e-04 -1.2041167082904768e-04 -8.4663774597155820e-04
164 -5.5319773405301559e-04 -2.5240256316129243e-04 -7.9849812594875644e-04
165 -7.1426193996417431e-04 6.3932843444381349e-04 -2.7197873021183108e-04
166 -1.4180023706140434e-04 2.2191891799650535e-04 9.7015556272846896e-04
167 -2.2548095511555583e-04 3.1354544942788242e-04 9.2758474177578897e-04
168 -4.2361216375447176e-04 -2.1241669822396367e-04 -8.8581542955660196e-04
169 -4.3916007901375828e-04 -3.4537884804968383e-04 -8.3441052526510350e-04
170 -5.5880093870077805e-04 -3.8331021446574338e-04 -7.3955483253582231e-04
171 -4.4336880109933035e-04 -4.7434120228309504e-04 -7.6518602727952483e-04
172 -5.5838615618842278e-04 -5.1139532280267109e-04 -6.5640337409304697e-04
173 -4.4375298819817124e-04 -5.9513428132715969e-04 -6.7351873765011114e-04
174 -5.4244162329580511e-04 -6.2812262177995982e-04 -5.5916267664391113e-04
175 -4.3145845785237159e-04 -7.0656199139486309e-04 -5.6242916917798784e-04
176 -7.7329335091055808e-04 -4.2997062570894289e-04 4.6408637624142148e-04
177 -5.2296579399965706e-04 -7.2425213669144960e-04 -4.4743689076770716e-04
178 -4.0624661349735234e-04 -7.9986062664952676e-04 -4.3987740067504477e-04
179 -3.1428409323509024e-04 -7.7871249080800576e-04 -5.4378000322375275e-04
180 -2.8189478119245126e-04 -8.6147817946306468e-04 -4.1998598659308582e-04
181 -1.8161097724538495e-04 -8.3239752011655401e-04 -5.2405069674167268e-04
182 -1.4594356447497248e-04 -9.0278533023358811e-04 -4.0176083635253245e-04
183 -4.7154560584809797e-05 -8.5834039709763871e-04 -5.1174347019406451e-04
184 -1.6139673895809790e-05 -9.2238987853040957e-04 -3.8229611773250491e-04
185 -1.0482722679064196e-04 -9.5364674927059787e-04 -2.7279230501865107e-04
186 3.2826908833744787e-05 -9.6517122389935253e-04 -2.4837896945311929e-04
187 -5.7997858925121837e-05 -9.8422306451240106e-04 -1.4396450902581716e-04
188 8.6646627965277824e-05 -9.8495306624216800e-04 -1.2300814861357213e-04
189 -1.0127130893421334e-05 -9.9568779868477748e-04 -1.8339230844557396e-05
190 1.2922489555053691e-04 -9.8755884111832119e-04 8.6383124183812443e-06
191 3.0566109918003002e-05 -9.8968588018174142e-04 1.0923614333238162e-04
192 1.6570302623017107e-04 -9.7293632800053915e-04 1.3729527345055195e-04
193 6.6958240246783030e-05 -9.6641750628415849e-04 2.3628923264497245e-04
194 2.2074377381364906e-04 -9.6711075026193144e-04 -9.0133849820055919e-05
195 2.0108040971198289e-04 -9.4085616979306546e-04 2.6339477526687426e-04
196 9.8163397734649349e-05 -9.2345387919709617e-04 3.6719047407123392e-04
197 1.0941090190202335e-04 -8.7349692974365389e-04 -4.7563708197963353e-04
198 -9.7849191205415492e-05 -9.8781727637297398e-04 7.8535552763933604e-05
199 2.3491918061649365e-04 -8.8860525006855006e-04 3.9129134651772764e-04
200 3.3474680970410278e-04 -8.9568003468068166e-04 2.8500811918902530e-04
201 3.6346488955919738e-04 -8.3303958546660731e-04 4.1515636469072615e-04
202 1.3023607875129991e-04 -8.5901131638942737e-04 4.9579269919536285e-04
203 4.5869937789815544e-04 -8.3221351258874309e-04 3.0467222859551526e-04
204 -4.8698133980009309e-06 -8.8637743896162523e-04 4.6261734547932074e-04
205 2.9389401761419071e-05 -8.0806291908683693e-04 5.9118423302312252e-04
206 -8.9606323514417150e-04 -4.2750110472598640e-04 7.4975320167118382e-05
207 -8.6063976664661315e-05 -7.7303805181050151e-04 -6.3218561161172834e-04
208 -1.0576962839458817e-04 -8.2721952353021812e-04 5.5384201305720747e-04
209 -7.1906821972568270e-05 -7.3685778226720495e-04 6.7640065893690316e-04
210 4.8486193088638084e-04 -7.5945303138569905e-04 4.3224186375739459e-04
211 5.7115837517347030e-04 -7.5612545794924131e-04 3.1261022271169235e-04
212 -4.9359152835917850e-04 -8.0315756002059824e-04 -3.2635303833812931e-04
213 5.7130611454698001e-05 -7.1064987248374806e-04 7.0577464501680976e-04
214 -4.0008663727410625e-05 -6.3005751777907911e-04 7.8077752522624831e-04
215 -3.1160621117882299e-04 -3.0083389666159846e-04 -9.0677793532681285e-04
216 -2.0371543956063473e-04 -7.4930217717441531e-04 6.3362814323873306e-04
217 -2.3673335462426573e-04 -8.3194286755347894e-04 5.0248979408502024e-04
218 5.4538793337693243e-04 -8.1193290072401037e-04 1.9289637149810134e-04
219 6.5949838977878770e-04 -7.1787879801843662e-04 2.1024532120255394e-04
220 6.2256687084335247e-04 -7.7311245441030903e-04 8.6542166247311462e-05
221 -6.2895952928262110e-04 -6.4038668660797507e-04 -4.3817090342628234e-04
222 7.2373206612648964e-04 -6.7718819301448082e-04 1.0443846984719882e-04
223 6.8523035406953215e-04 -7.2267813389518035e-04 -2.5330420593818985e-05
224 -2.9055715379397440e-04 -1.6334513814094363e-04 -9.4827377678677913e-04
225 -9.5803490080282499e-04 1.1167566307201223e-04 -2.4898586968766435e-04
226 8.1154087435148059e-05 -5.9500230642615514e-04 8.0513563325096730e-04
227 -7.7517536707735909e-06 -5.0773129226558086e-04 8.6723348634239997e-04
228 -5.2156900668960606e-04 -1.9700851124546259e-04 8.3524068816961917e-04
229 -5.9481761997359555e-04 -9.7384803709400899e-05 8.0222366421239474e-04
230 6.7195005707647673e-04 -6.5515700889453253e-04 3.4025290407791619e-04
231 3.9158693465921816e-04 -7.5228365514168967e-04 5.3105502101030494e-04
232 5.1789090471199295e-04 -6.6027104552609064e-04 5.4716434634595121e-04
233 7.7293268405754329e-04 -6.2811820681473720e-04 -1.6357092198520309e-05
234 7.3304528779977477e-04 -6.6006872428193693e-04 -1.4119194041036382e-04
235 -3.8708751606532539e-04 2.5668628397235561e-04 -8.9017967442681035e-04
236 2.9025865259947858e-04 3.3382495078915128e-04 9.0212553164054131e-04
237 -4.3080519885349252e-04 -2.9649931939542383e-04 8.5792800711082613e-04
238 -8.3797815769706208e-04 1.9832304670904243e-04 -5.0909469025401451e-04
239 6.3984242432728474e-04 -7.4913810845602161e-04 -1.5045341522804061e-04
240 6.7759458750260386e-04 -6.7980580198257607e-04 -2.7185059365537092e-04
241 -5.7642233722549399e-04 -4.3724253842706456e-04 6.9430234856467630e-04
242 5.7404756677567192e-04 -7.6787111411447389e-04 -2.7588564408375347e-04
243 6.0442141272492710e-04 -6.8896013450722943e-04 -3.9764160942022133e-04
244 7.0604454227354981e-04 -5.9322444865909528e-04 -3.8379525686384788e-04
245 6.2438533092386826e-04 -5.9394089825800915e-04 -5.0834154640600241e-04
246 -1.8843404441605793e-04 -2.4974911615764205e-04 -9.5537248662330373e-04
247 8.1101703782136391e-04 -5.6976285221285109e-04 1.0333858898311951e-04
248 2.3146376651552057e-04 4.4189058403129605e-04 8.7161338255554402e-04
249 -3.9353267754707561e-04 -1.5562804516947940e-04 9.1169419115403520e-04
250 3.5974298432304926e-04 4.3583703174149524e-04 8.2968704244986108e-04
251 -2.1747725727062374e-04 -3.6259416208918495e-04 -9.1166521165525873e-04
252 -9.0564090428775818e-05 -3.2988445124201875e-04 -9.4542657879854053e-04
253 3.7669179996107065e-04 9.0978663588615059e-04 1.4829174606845422e-04
254 -6.2133972755370635e-04 7.4293458132817722e-04 -2.3234848516760870e-04
255 -7.1358687196535777e-04 6.7884768843370718e-04 -1.4381593756687157e-04
256 -7.9744878964127530e-04 5.7010209129805393e-04 -1.7438051575925534e-04
257 -7.8476417142523975e-04 6.1015884513609616e-04 -4.3093682655992670e-05
258 -3.0351595670658149e-05 4.3408332241159805e-04 9.0533472423541409e-04
259 -3.0635373104128375e-04 -2.3874531436584548e-04 9.2725664594468565e-04
260 -2.7334573159596841e-04 2.0402469064865304e-04 9.4545289425758058e-04
261 -3.5611478901702911e-04 3.0834799187336984e-04 8.8720099776852025e-04
262 -2.6850399005352876e-04 -1.1231024247469886e-04 9.6244167340250289e-04
263 -1.7548453918378576e-04 -1.8505375615574288e-04 9.7290313164692535e-04
264 -8.5987240176316866e-04 4.9516071913901193e-04 -7.6971977939547720e-05
265 -8.3421721828086132e-04 5.3974481101421270e-04 5.4038147981622656e-05
266 -3.3871283331520538e-04 -7.4891887894542946e-04 5.7179238709529885e-04
267 -3.6869126485875048e-04 -8.1944824613781040e-04 4.3704681370469381e-04
268 5.1154657924110006e-04 -6.8787213435492006e-04 -5.1604912264657549e-04
269 5.2151547286994129e-04 -5.8275138804806596e-04 -6.2658303094980977e-04
270 6.3586682561759991e-04 -4.8168750420583795e-04 -6.0604123242689130e-04
271 5.2014628079699208e-04 -4.6464141999729515e-04 -7.2119221341809608e-04
272 3.9867280487605646e-04 -5.5712850821559553e-04 -7.3319461764279894e-04
273 -3.0328526862972988e-04 4.1291803036400641e-04 8.6348927643625653e-04
274 -4.3355624431049017e-04 4.1167194652677954e-04 8.0589252699150794e-04
275 3.9084008935174935e-04 -4.3517754137464468e-04 -8.1652246212047261e-04
276 2.7662201641973539e-04 -5.2275210602093316e-04 -8.1179410884597641e-04
277 -3.3238569918047267e-04 -3.7031416587290450e-04 8.7293339830058815e-04
278 -1.2568916273221180e-04 9.7861199978269663e-04 1.3099572202550906e-04
279 8.1097682192176083e-04 -5.6358438429646455e-04 -1.3020346674925664e-04
280 -2.4113497690037567e-04 4.7778412467772185e-04 -8.4922384541573500e-04
281 -1.4965157248654406e-04 5.7426248812241279e-04 -8.0907741562825691e-04
282 8.6571494918570178e-04 4.9311771070583170e-04 2.4903400785466472e-05
283 1.1386000614003901e-04 -4.6253433385132447e-04 8.8515773970842832e-04
284 -9.8617451466101631e-04 5.0737729436251194e-05 1.2416240478561527e-04
285 -9.0554183824882208e-04 -4.0860695202743979e-04 -6.4586289599430152e-05
286 -8.4573022120502733e-04 -5.2492235290121534e-04 -1.7365359147784463e-05
287 -8.3051540345841055e-04 -5.3643859219437815e-04 1.1909568539458582e-04
288 -7.6813863881729856e-04 -6.3277073800651587e-04 2.7943035115176514e-05
289 -7.4727847493696539e-04 -6.3927856866880157e-04 1.5843348062913274e-04
290 -6.7308015929049101e-04 -7.3014375703687974e-04 7.2104298324664193e-05
291 -1.9933875801139049e-04 -9.6269037782422177e-04 -1.6292149474932686e-04
292 -2.7042853957885579e-04 -8.8725036690737993e-04 3.6970406133966891e-04
293 -3.3725638251989811e-04 -5.5010038267481424e-04 -7.6892318307561209e-04
294 -9.9170519667096695e-05 -4.6876821238858572e-04 -8.8405749022921426e-04
295 -4.8693729383443812e-04 3.0099900127168321e-04 8.2466751123507463e-04
296 -5.5766259380168675e-04 4.0332115443037170e-04 7.2901329513619243e-04
297 -8.6757231108436350e-04 4.4469299583169017e-04 -2.0404705111926456e-04
298 -6.1438031955539114e-04 2.6906810189042006e-04 7.4578004027903795e-04
299 -6.7347473999780909e-04 3.7567988522623408e-04 6.3873993457455819e-04
300 -6.0867374165703722e-04 4.9915998783226379e-04 6.1837167324998359e-04
301 -7.2005895525408242e-04 4.6329706728982995e-04 5.1570392503740947e-04
302 -7.7609718826019260e-04 3.3647067662127421e-04 5.3288791093728156e-04
303 -3.0453950173923229e-04 -6.5749749871422166e-04 6.9348061649042230e-04
304 -6.4075742524795918e-04 5.8909623697005566e-04 4.9094811906421753e-04
305 -8.0830562481762445e-04 4.1658857620825485e-04 4.1149861101553976e-04
306 2.0347511006524435e-04 -5.4905050710021993e-04 8.1616091318218191e-04
307 2.3537039635598446e-04 -4.2275045714067059e-04 8.8096950367889384e-04
308 3.4167916297439451e-04 -4.9833971339314966e-04 8.0233633775222968e-04
309 -4.5642105828231982e-04 -7.3921263994922702e-04 4.9443972219050830e-04
310 -8.5979160205321018e-04 2.8090247368715875e-04 4.2227371553959218e-04
311 -4.0432072405675531e-04 -8.6115807192918179e-04 3.0041751845632885e-04
312 -7.5910303726309226e-04 6.3829834039000615e-04 7.9420340502751397e-05
313 -8.4757396289466061e-04 -4.9946571289225829e-04 -1.5501582300331179e-04
314 -6.8739514178013176e-05 1.2046821719970970e-04 9.9617585430635566e-04
315 -8.8485953628611750e-04 3.5159220137352275e-04 2.9587546978254785e-04
316 -9.7436766726368047e-04 1.8331862481374151e-04 8.5211964550447103e-05
317 -1.0386052475070740e-04 7.6881948680852959e-04 -6.3226485188050548e-04
318 2.6784320867573335e-04 -3.9796973341835781e-04 -8.8310614923470742e-04
319 -6.8824109099486065e-04 -7.1667540155910601e-04 -6.3883222686755129e-05
320 -6.0003661746723638e-04 -7.9411369303684324e-04 -5.9102175798094290e-06
321 -6.6243655616664157e-04 -4.1397349399738650e-04 -6.2670207405437302e-04
322 -5.6603412718415304e-05 -2.1329795811242156e-04 -9.8089975765270547e-04
323 5.1272764660779133e-04 -8.5091270456251467e-04 7.5080859819605115e-05
324 -6.1689728920116664e-04 7.7413361003023096e-04 -1.0112328241603110e-04
325 2.8874187095816352e-04 5.4415156593513761e-04 7.9183890563360837e-04
326 2.7562038007956143e-04 -6.4094038061888472e-04 -7.2092328128802688e-04
327 1.5410219156410855e-04 -6.0222457783918075e-04 -7.8864844995283115e-04
328 4.2469580607237307e-04 5.3578233701061847e-04 7.3346190570882470e-04
329 4.8782804400764523e-04 4.1884513685515741e-04 7.7017807299037476e-04
330 4.4618533159098420e-04 4.4615110271996425e-04 -7.7926368373076556e-04
331 1.0479535682556067e-05 9.8162055650160814e-04 1.6594969813790898e-04
332 -1.1706114954445007e-05 9.9393924162924840e-04 4.4353444296752147e-05
333 -1.5322292103620076e-04 9.8290034933667817e-04 3.4555137394236564e-06
334 1.1896805653003105e-04 9.8473844896184858e-04 8.1195762398780823e-05
335 3.5986970305077810e-04 -3.6153895404481462e-04 8.6580287169451967e-04
336 4.5875161749124170e-04 -4.2800265339560013e-04 7.8362968673976780e-04
337 -8.1601629110033505e-04 2.1062891506980344e-04 5.3755728702345495e-04
338 -3.5800987455145817e-04 5.2051787770811882e-04 7.7888309963477370e-04
339 -1.1480316576272187e-04 4.5586510521130398e-04 -8.8720314367995144e-04
340 3.6602365478581887e-04 -3.0190046304195663e-04 -8.8589909338604640e-04
341 1.7042664739442023e-05 -2.8682216725551754e-04 -9.6365681735872770e-04
342 -9.2740518026410341e-04 3.5013564818604277e-04 -9.8756021948221263e-05
343 1.9304625000359833e-05 -3.8181077197072357e-04 9.3005230196794154e-04
344 -5.2365946446972938e-04 6.1375348501502183e-04 5.9183408419078147e-04
345 -5.3777863842788775e-04 7.0809204565262817e-04 4.5671331811821702e-04
346 -6.5754084948853721e-04 6.6021561964163251e-04 3.5580638430031180e-04
347 6.1739306492584350e-04 -3.6450426549393075e-04 -7.0135866703338818e-04
348 7.2571561778911092e-04 -3.7139520557553826e-04 -5.8174142041743707e-04
349 5.4554624866640035e-04 5.2072991243813269e-04 6.5944760575448397e-04
350 6.0729223872729797e-04 4.0105644653991995e-04 6.8909732010039883e-04
351 6.6030959364661611e-04 4.8922711194993159e-04 5.7117074056312219e-04
352 7.1413022498841277e-04 3.5865030564283891e-04 6.0343795573743956e-04
353 7.5443121547035517e-04 4.4870100879413320e-04 4.7860713370553556e-04
354 -6.4252925563049971e-04 -7.3419132102610818e-04 2.0259735745836095e-04
355 2.6227468863312682e-04 5.5664118162118811e-04 -7.9174504318995297e-04
356 1.4092205082892161e-04 5.6019796007814775e-04 -8.2038220875964730e-04
357 -6.7793238322881881e-04 3.2382442293918309e-04 -6.6173568560570469e-04
358 5.2924182186669607e-04 -8.3041459905502403e-04 -1.5309924899960353e-04
359 4.5210832699376264e-04 -8.4617559887421585e-04 -2.7303281056169902e-04
360 -8.2279552856447937e-04 4.8683948593472825e-04 2.8128144423481168e-04
361 -1.2990199211074282e-04 -5.3512286450328554e-04 8.4024426105207153e-04
362 -1.9364579220866224e-04 3.5494662138691444e-04 -9.1948760177008599e-04
363 -2.3526815369081161e-04 5.1717493568029845e-04 8.2686884642704187e-04
364 -5.2057238851573875e-04 8.2899106359262157e-04 -1.8117665960976553e-04
365 1.6418434337066659e-04 5.4907982880619116e-04 8.2389060091725332e-04
366 -3.6796749529026759e-04 -2.8332507194337564e-05 9.3491999764236226e-04
367 -7.0297501629006966e-04 -6.4325159791714305e-04 2.9431467199908019e-04
368 2.1211154398120154e-04 6.7133129310265917e-04 7.1441163155947223e-04
369 8.2714725797956235e-05 6.3493792184563284e-04 7.7087642933273016e-04
370 7.0201295588363907e-04 -2.5221908767626504e-04 -6.6985646809712641e-04
371 -5.3611600193098088e-04 1.6636756065456181e-04 8.3253626720896225e-04
372 -6.6006077743697641e-04 1.3433679312054952e-04 7.4384575547680159e-04
373 5.5376608156100071e-04 8.2547341529850995e-04 -5.0162170436810327e-05
374 -1.5207375112093771e-04 -6.8831200841879456e-05 9.9192324404408141e-04
375 -3.6486994443800875e-05 -1.5943495979726404e-04 9.9252835602057403e-04
376 -3.0231249257470851e-04 -9.2132609485087128e-04 2.3197557385861600e-04
377 -4.3369221199445894e-04 -8.8348156621198689e-04 1.5949337169649872e-04
378 -9.2826903769503265e-04 1.9173234072326082e-04 3.1161064464720588e-04
379 4.2894420477127714e-04 6.6084520122638166e-04 -6.1817670010359176e-04
380 1.5327940041086785e-04 -7.1296298581276403e-04 -6.8817503679371680e-04
381 2.8122203484594630e-04 -7.4345428427808322e-04 -6.0926261669043782e-04
382 -8.9951211736866393e-04 -3.7801885796942092e-04 -2.0066910809191240e-04
383 -8.3182022164372826e-04 -4.6943563903972915e-04 -2.8509656706335237e-04
384 -7.6856534175838648e-04 -5.8657292503008752e-04 -2.4178347542614078e-04
385 -1.6706748277425259e-04 -9.4043805824662284e-04 2.8760581033474410e-04
386 -6.6126076853761223e-04 5.2610807525489982e-04 -5.3391485749609922e-04
387 -7.6191787184063916e-04 4.7507592920688390e-04 -4.3615413822395470e-04
388 8.7910002491154739e-04 2.4606432751657955e-04 -4.0488498792923505e-04
389 -9.1086619459676956e-04 3.2521715932595769e-04 -2.3833407418270426e-04
390 -5.1127258395456006e-04 8.5220743881309774e-04 -4.5349538773464755e-05
391 -4.0822294157988684e-04 8.9941160725550708e-04 -1.2096076742434180e-04
392 -6.0559814743512156e-04 7.8843170776269722e-04 3.0655091971085306e-05
393 -5.9176404671713542e-04 -7.9065843041014824e-04 -1.2820260283196718e-04
394 -5.0052995283438441e-04 -8.5824045540025171e-04 -6.0413126131782786e-05
395 9.3842294015921053e-05 9.8942403583828962e-04 -4.6059649985054902e-05
396 2.2709759681730204e-04 9.6873835503360876e-04 -1.1959438074624809e-05
397 5.2167147412824895e-04 3.2134688194597732e-04 -7.9495271855523541e-04
398 2.5620766761381384e-04 -2.9518818146905110e-04 9.2621398275159316e-04
399 3.7546453348343190e-04 -2.2011639914696756e-04 9.0649273787989310e-04
400 -2.8764100440973873e-04 6.0732078391039098e-04 7.4345421915444476e-04
401 -1.6948187354210408e-04 6.1335605610533177e-04 7.7383282257193484e-04
402 3.1268095173190880e-04 -6.1549824802829855e-04 7.2809708479287479e-04
403 6.6138811784758494e-04 2.7154635721604337e-04 7.0270735841594146e-04
404 6.7347177247820502e-04 5.8972520950654453e-04 4.4572228951007554e-04
405 -3.1416516212796593e-04 -9.3970753153240817e-04 1.0065772677479015e-04
406 2.3056313333804995e-04 -2.6265445777565074e-04 -9.4244920196171508e-04
407 3.3032207856898679e-04 -1.7496714833498150e-04 -9.3291732112674131e-04
408 9.0614704549585553e-05 4.5463093830105564e-04 -8.9045966478194956e-04
409 -8.8677504749705221e-04 4.2637204506261900e-04 1.5816958476207028e-04
410 -4.5425525572963694e-04 8.1281532765255064e-04 3.5714829523598611e-04
411 5.5689472957023566e-04 4.2117764828792856e-04 -7.1783224249831522e-04
412 4.6542267793439255e-04 6.5171961698914547e-04 6.0191499432335840e-04
413 8.1430950362981920e-04 2.9152514604416640e-04 5.0246397938345517e-04
414 8.3973834480480420e-04 3.8752802792648680e-04 3.7557313001745826e-04
415 4.9785406553644230e-05 -1.3933197038221590e-04 -9.9452338356548491e-04
416 -9.7212950008614943e-04 2.0937537807140118e-04 -4.1886287903900703e-05
417 -6.2169992466373563e-05 3.3943726757170925e-04 -9.4321619011816121e-04
418 -1.2391516391634238e-04 2.2531076750692631e-04 -9.7154439816625883e-04
419 5.8072965531074352e-05 1.6061120928213642e-04 -9.8981318873384472e-04
420 -6.2614458080210002e-05 -8.8280338807051779e-05 -9.9952651036354888e-04
421 -9.4345241072371611e-04 3.1283546869367591e-04 5.1179299643778925e-05
422 8.0158239913021077e-04 -2.5188451232108499e-04 -5.4406846514661760e-04
423 8.1168377993341039e-04 -3.7091837671995637e-04 -4.5061692932223005e-04
424 2.5406672058338680e-04 9.5480616341029115e-04 1.2220590047152876e-04
425 3.1117938329497741e-05 -6.8110524161804772e-04 -7.3716402156625302e-04
426 2.4889934832139455e-05 -5.4493855030144289e-04 -8.4389908910997532e-04
427 -8.4905355549997214e-05 -5.9255797819402801e-04 -8.0563680243268018e-04
428 4.1314691118506114e-04 -8.9261938564478888e-04 -1.5867321768959204e-04
429 3.3056178277042784e-04 -9.0182477439045049e-04 -2.6842590880309764e-04
430 3.6568382752752448e-04 -8.4514364512775571e-04 -3.8656484216730708e-04
431 -6.0298521780855646e-04 -7.2447520080099294e-04 3.2630153798033897e-04
432 -6.4502862080477691e-04 -6.2725240700374886e-04 4.3522707081185459e-04
433 1.4034908178103649e-04 -3.5006104968362715e-04 -9.3188397482419727e-04
434 -7.1878378141536825e-06 5.5891671008127884e-04 -8.3434281079627524e-04
435 7.3361769513641573e-05 6.6726725741592531e-04 -7.4475505604252917e-04
436 8.8634223463756137e-04 2.4437502156178487e-04 3.8940562676768122e-04
437 9.0405398116673275e-04 3.2664162805244677e-04 2.6426340159833644e-04
438 8.5401717991488355e-04 4.4886589544731992e-04 2.4929737421671978e-04
439 7.6364067962999334e-04 2.1616574475124344e-04 6.1134739965905925e-04
440 -5.8252022432778519e-04 7.5242494577062373e-04 2.9743869794222064e-04
441 -6.9931646538330737e-04 6.7743161548518640e-04 2.1236158518508918e-04
442 6.8259004470969781e-04 -1.1914958745804908e-04 7.2566096251270164e-04
443 7.2091984047692990e-04 -2.4039746779452273e-04 6.5382003939577001e-04
444 8.2115224678445356e-04 -2.4155349623419139e-04 5.1832381972982385e-04
445 7.5252057789948251e-04 -3.6061154526952457e-04 5.5276083903217708e-04
446 8.2734922590597970e-04 -3.6703037959495759e-04 4.2367083588795078e-04
447 7.5015474525714414e-04 -4.7114579038967446e-04 4.6340019191213049e-04
448 6.7076012476938152e-04 -4.6593484181439823e-04 5.7906830502819440e-04
449 8.1330700003475766e-04 -4.7535092507811842e-04 3.3040411152165293e-04
450 8.8126875393295973e-04 -3.6207976909989072e-04 2.9668853135173830e-04
451 6.4887371176267691e-04 -5.8834171545109738e-04 4.8394563390779838e-04
452 6.7498962893763068e-04 1.3160486510598767e-04 7.3128306219411552e-04
453 -5.7390529398324312e-04 -8.0476404552582152e-04 1.2175524364945961e-04
454 2.5269916838097136e-05 -4.1586408913038059e-04 -9.1500616468085478e-04
455 9.0793950017578075e-04 3.8529331170537835e-04 1.3900112631770291e-04
456 4.4993540779934919e-04 -2.1479598968564417e-04 -8.7227333485185958e-04
457 4.9916965435854320e-04 5.3899870317337441e-04 -6.8071461502025772e-04
458 6.0336970673653884e-04 -2.4247903293553484e-04 7.6526942225523735e-04
459 1.4608949092871548e-04 9.6177536599512451e-04 2.1420099645189024e-04
460 6.2625802028771951e-04 7.0183231649827290e-04 3.3215053329544992e-04
461 3.8654524672281153e-04 5.6203479281921099e-04 -7.3404143708563608e-04
462 -4.1936933054134956e-04 7.0761023599638651e-04 5.6849854452328125e-04
463 7.8155950833412537e-04 -1.3426861506030192e-04 -6.1219519579902495e-04
464 8.7689693951373856e-04 -2.4707029066387871e-04 -4.1022719189035732e-04
465 8.7469390320763212e-04 -3.6477406664057533e-04 -3.1272600860718711e-04
466 1.1240662140929264e-05 8.3201697797238524e-04 -5.5445373955669822e-04
467 9.2790343421412201e-04 -2.4160303268332822e-04 -2.7453188429164545e-04
468 9.1782584603897048e-04 -3.5019009982741023e-04 -1.7032950053504244e-04
469 1.5339065049589979e-04 3.4473978023113317e-04 -9.3077918062883281e-04
470 8.5169745450208907e-04 -4.7535418771594933e-04 2.0747054541861998e-04
471 9.1654533612537694e-04 -3.4774125585257805e-04 1.7981022706364621e-04
472 1.9501720172087462e-04 7.7642287330460032e-04 6.0077903632267150e-04
473 1.2863194204195547e-04 -2.2159068052822451e-04 -9.7211000152806553e-04
474 2.2899021768078818e-04 -8.9968772164689364e-04 -3.6745177130138813e-04
475 5.7411375592180270e-04 7.6861550293565943e-04 -2.6947975136700815e-04
476 3.1622871723701094e-04 7.2146700125206979e-04 6.1755545651385286e-04
477 2.9124477696227302e-04 7.3433561019051988e-04 -6.1464741069319588e-04
478 -1.9035686475113981e-04 -5.5944559098881897e-04 -8.1096704079091492e-04
479 -1.8337998314728156e-04 -6.7711611772127030e-04 -7.1650277127689548e-04
480 -3.9659556902123038e-04 8.2847472970243232e-04 -3.8932827814095833e-04
481 1.9744577115748675e-04 6.6338038952940491e-04 -7.2474593780865273e-04
482 7.5997380685060548e-04 -6.0312793347993513e-04 2.3491383426680636e-04
483 8.8526480126959188e-04 -4.4792104156172942e-04 8.9481758605517643e-05
484 9.4066235374021083e-04 -3.2025387043197227e-04 6.4372650210423778e-05
485 5.7868836254634857e-04 -2.4218314176402785e-04 -7.8372463731990407e-04
486 3.9947762425226996e-04 1.5221687745462246e-04 -9.0875370900454864e-04
487 9.8491870620817917e-04 1.2761149773586275e-04 -7.5026495834481325e-05
488 9.5367566354263866e-04 2.6471472046250182e-04 -1.1858555702303520e-04
489 9.6830568167445444e-04 2.2904766448854420e-04 1.0426137696941028e-05
490 9.0028179903253649e-04 4.1667310330183941e-04 -8.8664388036652537e-05
491 3.4506088057212423e-04 9.3336085489114057e-04 1.9209461052471373e-05
492 3.1673876716968282e-04 9.3539179651578350e-04 -1.2948880670416577e-04
493 4.3963024904978041e-04 8.8977227722740449e-04 -7.3418534276291415e-05
494 9.1250713585611716e-04 -3.9743894393058990e-04 -3.0250739936938862e-05
495 9.5359060988481218e-04 -2.8066220671683141e-04 -5.8739462895110339e-05
496 -3.9598760542556259e-04 9.1244920498727235e-04 1.8730824019833455e-05
497 9.8480930981676785e-04 1.3095840111567602e-04 7.0045620712515279e-05
498 6.8328055667769491e-04 6.8059774492070803e-04 -2.5114487186357859e-04
499 9.8617418668506154e-04 -1.2538266957434776e-04 -7.0003215188109086e-05
500 9.6804758440965292e-04 -1.0957376071822638e-04 2.1079598569691223e-04
501 9.2686893058330732e-04 -1.1887028690296892e-04 -3.5133065117279891e-04
502 8.6948086524382565e-04 1.2130273026641694e-04 -4.7843830897450606e-04
503 8.7405958483894957e-04 -1.1350145954471115e-04 4.7230596358392398e-04
504 4.2642587042977678e-04 1.0837274725728868e-04 9.0345708033959607e-04
505 4.1856612738658028e-04 3.1686292606448687e-04 8.5612839095564606e-04
506 6.5478004338949544e-04 -3.5094269005273140e-04 6.7289213374123274e-04
507 3.2574915892023761e-04 -1.2075597917926894e-04 9.4337905370021804e-04
508 8.6094299875528603e-05 -1.1793274017262304e-04 9.9559824014898608e-04
509 1.4695293940327264e-04 -2.2495826991065471e-04 9.6891883885812731e-04
510 2.5714481996423616e-04 -2.0588195577121436e-04 9.4913841085978931e-04
511 -1.9869361440029714e-04 6.8700160531875326e-04 -7.0168955180975102e-04
512 2.7804623618509335e-04 9.2522692741806511e-04 2.4417784573422087e-04
513 5.8586314697584919e-04 -8.0500428989937426e-04 -3.3505297852148136e-05
514 2.6564417625650098e-04 -9.5918875685621565e-04 3.8986081753242043e-05
515 3.0064108919305397e-04 -9.3648932701673128e-04 1.6112892031451613e-04
516 -5.4550707791920883e-04 5.6718312152717035e-04 -6.1832526529726731e-04
517 7.6782509979925401e-04 -5.8363991094238018e-04 -2.5375465864284493e-04
518 -1.4408882783842005e-04 -9.8434477958002993e-04 -4.3533300153954905e-05
519 -2.8339258074842964e-04 -9.5411785262282899e-04 -4.5694307694448093e-05
520 -3.2901498687547910e-04 -9.2225248528393351e-04 -1.8531053694722591e-04
521 -7.9016181003496039e-04 5.2537732630557213e-04 -3.0533826552015160e-04
522 -9.8327408749907192e-04 9.3281467871900596e-05 -1.2403163281344260e-04
523 7.8367459231049302e-04 6.0244610248983593e-04 1.1945867556455892e-04
524 -8.0015191595775921e-04 -5.3864989650423412e-04 2.5143892110663865e-04
525 7.8220730292445650e-04 5.0773674393311482e-04 3.5466547118805352e-04
526 4.9188558282760146e-04 -7.7420381041797340e-04 -3.9568356731639864e-04
527 -9.4838680714747468e-04 -2.8185318703921087e-04 -1.1158581116100292e-04
528 -9.4282999820577548e-04 -7.2850931603851159e-05 3.1701932097724661e-04
529 -9.1750439960692251e-04 5.2193290385712112e-05 3.8964718268612411e-04
530 -8.4055614489643145e-04 5.3652159248918069e-05 5.4053524511726749e-04
531 -7.7210636562619441e-04 -6.1936580255824868e-04 -1.0957794829268975e-04
532 -9.7611837888647341e-04 -7.3047492251166783e-05 1.8379733706556879e-04
533 -7.3954196244861768e-04 5.4330068946999827e-04 3.9157457800875550e-04
534 -7.0053702465066074e-04 7.0585712079736435e-04 -1.9720015469440867e-05
535 -2.4576032064353525e-04 -9.2134318690109674e-04 -2.9318564822312292e-04
536 6.2941509729244941e-04 7.5758393825966510e-04 -1.4590753834963494e-04
537 -1.3885842382453138e-04 -8.9524758787547589e-04 4.2159252926240548e-04
538 -3.9929169458234070e-05 9.9084644727946160e-04 -7.9737162917305852e-05
539 -1.7804847897672535e-04 9.4625880114050783e-04 -2.5375030484966555e-04
540 6.1553014680584492e-05 9.7607689874794985e-04 -1.8968130432288902e-04
541 -9.3673570453908339e-04 2.8253754273914358e-04 1.8533405755975872e-04
542 -8.7364156145674479e-04 -4.3181911433645589e-04 2.0763626284478519e-04
543 -7.9973212686636197e-04 -8.2853023160951890e-05 5.9641618814505856e-04
544 -7.4781496506961089e-04 1.3708543403275917e-05 6.6633757335169829e-04
545 -6.5660041835258730e-04 -5.3243532208135144e-04 -5.3484720156360855e-04
546 -7.4914164701130742e-04 -4.2411915239929765e-04 -5.0796173022948704e-04
547 -7.5612326600127356e-04 -2.9692151378805400e-04 -5.8435400249756784e-04
548 -6.6092131054742531e-04 -2.8038403421294921e-04 -6.9954697136996211e-04
549 2.6209769322302633e-04 -8.1544493241685338e-04 5.1717619086056417e-04
550 5.8632861875889839e-04 6.0195925707801112e-04 5.4137492006752018e-04
551 8.7262048682057555e-04 3.6294079520042826e-04 -3.1853099857773941e-04
552 8.9003192780826934e-04 -2.4045233066857661e-04 3.8434222419446201e-04
553 1.6099741696511005e-04 -7.7255358251382259e-04 6.1744254752013270e-04
554 -4.4298181610260727e-04 -6.4576846218547480e-04 6.2611941130361092e-04
555 -3.8183598967009942e-04 -5.5511536504084056e-04 7.4336436909499572e-04
556 -8.3301155401279477e-04 -4.3155993226459168e-04 3.3937481211720365e-04
557 -6.0289724629724695e-04 -7.1967306813818259e-04 -3.3688406921203023e-04
558 -7.2156569116422586e-04 2.4535294362205848e-04 6.4958560979996578e-04
559 -6.8185191158071936e-04 -4.4136766610293102e-04 5.8498869676521122e-04
560 -5.9094935838634166e-04 -5.5925118995746737e-04 5.8456720689297208e-04
561 6.3037871835712467e-04 4.8417737577567162e-04 -6.0971978338046726e-04
562 -3.2445464575574684e-04 -6.7933219663923901e-04 -6.6191344613170794e-04
563 -4.8681849252344431e-04 5.1405198165898670e-04 7.0926501774879738e-04
564 7.2809989782636291e-04 -4.8596786063460434e-04 -4.8379054483122679e-04
565 -8.6923536233712620e-05 -2.8153376497192060e-04 9.6152560243161476e-04
566 -1.0283447683778638e-04 -4.0841342319334625e-04 9.1284314235080290e-04
567 -2.0492595585588108e-04 -3.2256185459765042e-04 9.2994519383236991e-04
568 -1.6753583357639003e-04 -6.5071329466695124e-04 7.4548568874967637e-04
569 4.0019472027163534e-04 -6.7165013610950971e-04 -6.2668532894515018e-04
570 -7.0432130944299634e-04 -1.0359349285340938e-04 7.0542676370287610e-04
571 5.4082313503629265e-04 3.1410032409794015e-04 7.8452084182732077e-04
572 4.9284748405455190e-04 -3.4216278098606951e-04 -8.0520890905738608e-04
573 1.4011687754077374e-04 -3.3838754349268748e-04 9.3637971584013520e-04
574 -7.3809471877085068e-04 1.9600807017591514e-04 -6.4767389137953873e-04
575 1.5288492573662900e-04 -4.7341577710188087e-04 -8.7327071869455590e-04
576 -4.4565748032288701e-04 -4.2209703248892363e-04 7.9537530957017534e-04
577 -3.2531663801036527e-04 3.7619789407942908e-04 -8.7216181019823162e-04
578 -2.6583283542591342e-04 2.4822100279962481e-04 -9.3652383774723257e-04
579 -3.2217359121905248e-04 1.5909856808217536e-04 -9.3799148554358505e-04
580 -4.8795441162232376e-04 7.4289426688171661e-06 -8.7760171714752245e-04
581 4.5486305114880249e-04 -5.5870693811007309e-04 6.9912915893284003e-04
582 4.7212117205239115e-04 -2.9566717684490303e-04 8.3564809111777427e-04
583 -4.4085264089322460e-04 1.3243975076772922e-04 -8.9247403380707583e-04
584 -4.0682408996937214e-04 1.9715925955243518e-04 8.9725860704494042e-04
585 -4.5178512527431329e-04 6.0262552328098060e-05 8.9539087220406335e-04
586 -3.3284895399611329e-04 -4.2606316687095186e-04 -8.4623940705871468e-04
587 2.9780227849599657e-05 9.5171315852579067e-04 2.9481288398716362e-04
588 -3.9639935773497551e-04 -7.6706266656647955e-05 -9.2002261171551846e-04
589 -2.7235344686841540e-04 -4.0710222277935005e-05 -9.6662264596117191e-04
590 -1.5507154529596299e-04 -1.3367386022843951e-04 -9.8440093385600605e-04
591 -1.6394458353558464e-04 4.2425646259634504e-04 8.9542664891807927e-04
592 -5.1410350165183641e-04 7.9407761413718644e-04 -3.1413120445111624e-04
593 -2.4844384434616665e-04 6.7986970784696158e-06 9.7403396681694748e-04
594 3.5390236750943810e-04 2.1214250795783063e-04 9.1634536387534928e-04
595 -7.9976213170537900e-04 5.6633429859700133e-04 1.7635012204142363e-04
596 4.2778470692437598e-04 -8.8247382679916401e-04 1.7855329034654072e-04
597 1.0467477667398302e-04 4.3786818337676370e-04 8.9797968797664573e-04
598 3.2775263506269324e-04 8.9952806232316965e-04 -2.7586948988221112e-04
599 1.8582155045331129e-04 -6.7020324127752278e-04 7.2320169307441289e-04
600 -5.2584521591946942e-04 -8.0978396656595619e-04 2.4812965179929741e-04
601 -8.4574822072940210e-04 4.0297901392559796e-04 -3.4147088760800735e-04
602 -8.1025263017005234e-04 3.4998627770766908e-04 -4.6711470113855935e-04
603 -7.4581452680693144e-04 -5.3649011471066255e-04 -3.9204920135392258e-04
604 -9.0942396052929133e-04 1.5196296233054908e-04 -3.8107270440816248e-04
605 -4.0642798883650769e-04 -9.0846191944860910e-04 2.3459757600622814e-05
606 -3.1887326442531152e-04 8.5346369172856294e-04 4.0670011999170371e-04
607 4.1560964229858923e-05 1.2724173191341193e-04 9.9615452348289437e-04
608 -5.6852327023116198e-05 7.7157445772072116e-04 6.3549009773492524e-04
609 -7.4947387748931489e-04 -1.7072419805387389e-04 -6.4210362744918244e-04
610 9.5215697921758875e-04 2.5995198294355231e-04 1.3910848726427649e-04
611 4.0026673684420965e-04 -9.5627035218104391e-05 -9.1699149256752944e-04
612 9.2792289118671467e-04 1.2261267342640993e-04 3.4659323649190475e-04
613 -3.7926593472687359e-04 -8.6890066326670028e-04 -3.1087708196203420e-04
614 4.8213753444410839e-05 -7.9403510260840637e-04 -6.0882519765475434e-04
615 4.6960981614930640e-04 -8.7752995705841759e-04 -3.9654974870936997e-05
616 -6.8154682974980174e-04 -6.9899008188231183e-04 -2.0186436215528756e-04
617 -9.3250627230894020e-04 -2.4797876481323075e-04 -2.4888607802559741e-04
618 -6.1875428370232336e-04 4.4494487377916964e-04 -6.4919122143119198e-04
619 1.8161193203545460e-04 -9.5395049578154588e-04 -2.2854352135397182e-04
620 -3.7260486242459077e-05 -9.4016590015769304e-04 3.3305880144202208e-04
621 3.9311790002144042e-04 -7.6636393867568627e-04 -5.0871200279935789e-04
622 -2.1449820561117054e-04 -4.4157067251999967e-04 8.7661740281416635e-04
623 7.9798671729045987e-04 -4.8494923042313688e-04 -3.5345246935489938e-04
624 9.2702598238817346e-04 1.2735703772134737e-04 -3.4731833163309533e-04
625 -4.0637857632697973e-04 6.1274190090738632e-04 6.7971566442252026e-04
626 -2.5428152761788382e-04 -5.5541868530996103e-04 7.9671670332228154e-04
627 -9.1312451292031247e-05 5.3292362120586944e-04 8.4565931190386462e-04
628 4.6821583343201640e-04 8.7712780251542055e-04 4.6157051227865712e-05
629 -9.6240121698330393e-04 4.7043056040654800e-05 2.5383995531309963e-04
630 -5.9762580105341171e-04 7.7928019197610616e-04 1.6205683098991942e-04
631 -8.3398286471676926e-04 -1.9538797891003896e-04 -5.1550129061807292e-04
632 -4.0980776002263981e-04 8.7109139904646433e-04 -2.5582810985243378e-04
633 9.2860689264825263e-04 2.4322391753236141e-04 -2.6952669951986171e-04
634 -3.2911981711804722e-04 1.0232445041614560e-04 9.4416624187742941e-04
635 3.9286909569463728e-04 -9.1348045488554789e-04 5.9510567859700835e-05
636 -6.8189696590863666e-05 -9.7348512066910086e-04 2.0255567152691853e-04
637 -4.8556964979014621e-04 -6.6577405774481300e-05 8.7681695449837128e-04
638 4.3767887530076708e-04 2.6512306995111421e-04 -8.6257806899608361e-04
639 4.3959198209956170e-04 -1.0320956494481811e-04 8.9770505280583615e-04
640 -6.3114133828885371e-05 6.6940073176524324e-04 -7.4340251077545253e-04
641 -9.5684465659342166e-04 2.1928926697301334e-04 -1.6583901620054780e-04
642 -8.8092599683250138e-04 2.7771209510784066e-04 -3.7668216678687704e-04
643 2.8446505826881926e-04 -7.2402818509612152e-04 6.3149904207767998e-04
644 5.6666289067790004e-04 -4.5531774119310614e-04 6.9034791349408149e-04
645 6.1656953341224100e-04 2.2203415153422589e-04 -7.5930369204638744e-04
646 -1.9842087220210098e-04 1.2035956757130689e-04 9.7811062577262157e-04
647 2.5224606567276012e-05 5.4674282737160397e-04 8.4137588241758984e-04
648 -7.4885727128788378e-04 5.9512828501754505e-04 2.7636613270027341e-04
649 -2.6480504428218264e-04 9.5545058335907789e-04 8.3485367291371231e-05
650 9.3406643525874452e-04 -2.3272554392756218e-04 2.6082520292832406e-04
651 -4.7031567708944713e-04 -8.5873254424687474e-04 -1.8773878682045385e-04
652 -8.7670677476041630e-04 -3.4385343972070421e-04 -3.2755121954414652e-04
653 -1.8551339532179762e-04 1.2608562405983707e-04 -9.7970516797234414e-04
654 8.4847566097656050e-04 -4.7148051654667195e-04 -2.2718896781902308e-04
655 -7.1994167381859281e-04 4.0901892848525161e-04 -5.6017924136178392e-04
656 6.6495101789535728e-04 -1.3558674177505602e-04 -7.3905088422723017e-04
657 -7.4937437363900930e-04 -5.4316433525424391e-04 3.7332103933922147e-04
658 -3.7343751668651460e-04 4.0353250885600006e-05 -9.3157829041394654e-04
659 -1.3006756177290528e-04 8.8065172343006890e-07 -9.9725152265884394e-04
660 -3.5330046558107686e-05 3.6496926904809035e-05 -1.0034727572659911e-03
661 8.4820679951011740e-04 -5.2149741211866981e-04 -1.5313585697375887e-05
662 4.3744612569187778e-05 -2.3651889545522935e-04 9.7675477184008190e-04
663 5.2269161819458909e-04 8.3071009513437306e-04 -1.6633876083498367e-04
664 -2.8764950885019739e-04 9.5070378635575266e-04 -5.5256514556690436e-05
665 -2.9449717697165587e-04 9.3226135271928009e-04 -1.8690043741075089e-04
666 -5.7379621763161770e-05 1.1726172846248592e-04 -9.9718509545060753e-04
667 2.6453621217234534e-04 -8.3245467960599924e-04 -4.8659601786426102e-04
668 -5.6781249338428222e-04 3.2081318477006919e-05 8.2716003400187029e-04
669 -8.2843800151671733e-04 -3.1559552661678989e-04 -4.5984173280145255e-04
670 -5.0687244243338204e-04 8.5106617833085631e-04 9.3928602605249770e-05
671 -9.6438604786632193e-04 1.5433561780141849e-04 1.8987453968912025e-04
672 5.5576058007480729e-04 -3.5339674913167663e-04 7.5587599655580786e-04
673 -4.5417204503415300e-06 2.3451410888760484e-04 -9.7702103346649673e-04
674 -1.9221299257373090e-04 -9.6397661892023783e-04 1.6172635650097509e-04
675 4.1309036009871855e-04 7.4973371057260904e-04 5.1478516057725388e-04
676 8.1300636589650538e-05 7.3799839947408252e-04 6.7257924584480716e-04
677 4.6661163075934164e-04 2.2138610057017283e-04 8.6123221759179937e-04
678 -4.8352945900026673e-04 -7.8977626777661832e-04 3.7213238499965825e-04
679 3.0638725689575183e-04 -7.2922503351011917e-05 -9.5456447150068634e-04
680 3.9900090295741424e-04 -6.6665990154836136e-04 6.3132894762835340e-04
681 -8.8175072820865347e-04 1.5933945484245983e-04 4.3880337326041388e-04
682 -8.9639922227513556e-04 4.3007644238689805e-04 1.5123179166128693e-05
683 -6.5479160302623783e-05 1.2069987077872071e-05 1.0026209662997092e-03
684 3.4906035505138000e-04 -9.3108165963522475e-04 -5.4905534684781006e-05
685 4.1221310905724525e-04 8.8542207578604364e-04 -1.8933832499869559e-04
686 1.7106050731902444e-04 -7.9796318160310338e-04 -5.7827683967615637e-04
687 1.8414216487484838e-04 9.6930297666638981e-04 -1.2497602546881836e-04
688 -8.1241344874074942e-04 -4.2227183131806636e-04 -3.9484369067810751e-04
689 -5.4205762986299800e-04 -6.5753127351434674e-04 5.2163514594186200e-04
690 5.7990913376152007e-04 -6.8847493304390766e-04 4.3225581805292579e-04
691 9.5987447362366610e-04 -2.2594460115507535e-04 1.4083568446048085e-04
692 -6.8806176627770569e-04 -5.3255649549745405e-04 4.9041989505907283e-04
693 9.3350101352522943e-04 2.2026409757324266e-04 2.6950942516951317e-04
694 -1.7612670909150806e-04 9.7097602429907937e-04 -1.2585013727710084e-04
695 9.1014430969180084e-04 3.5051000922447720e-04 -1.9959077508923192e-04
696 -4.0524891969869724e-05 6.6294153227159573e-04 7.5229620867868204e-04
697 -3.2909451822294583e-04 -4.7006820800493259e-04 8.2319373148027550e-04
698 9.3212546145310902e-04 3.5036064395988295e-04 1.9443499539934666e-05
699 -4.9491053291220275e-04 -5.2964548726649715e-04 6.9161110698439472e-04
700 -6.5864160926198273e-04 -3.2716748036781334e-06 7.5501897162262902e-04
701 5.7664752520366431e-04 -5.5211256046418982e-04 6.0346258141028399e-04
702 -6.8997409538657092e-04 -6.4221597472983029e-04 -3.2341427736067051e-04
703 -7.6089718746541718e-04 2.9487054238023006e-04 -5.7670262406449226e-04
704 4.8080322204984143e-05 3.4420213049821059e-04 -9.4222170878828742e-04
705 3.1919159121587565e-04 6.4315054865697087e-04 -6.9725444475482337e-04
706 -3.2266520931895933e-04 6.9564026036274772e-04 6.4184700117873915e-04
707 1.1167044694379044e-04 -9.3126308387102546e-04 -3.3883808620714569e-04
708 -6.7969850893173926e-04 7.1961939599266586e-04 9.2211520025368797e-05
709 1.1316829753674078e-05 7.5428431851331862e-04 -6.5695858140614590e-04
710 -4.0542601744932054e-04 7.8325692412506301e-04 4.6650000300045032e-04
711 -9.3062405239473028e-04 2.2025129050616624e-04 -2.7664848070515840e-04
712 7.8065277851526523e-04 1.0756749973678408e-04 6.1724337794027257e-04
713 -2.2115007636180811e-04 -7.5430276770330500e-04 -6.1909884673468259e-04
714 6.4023321291697608e-04 3.4294473333073666e-04 -6.9062771451397281e-04
715 -2.0911564116337392e-04 -9.7153108976211113e-04 4.8724756015773174e-05
716 -2.5321727619865474e-04 5.1868271473700262e-05 -9.7041977494516677e-04
717 -3.9730806263188300e-04 -9.0750719762137900e-04 -9.3157112544511270e-05
718 4.9822983702931878e-04 -2.0100363607124475e-04 8.4785152799482033e-04
719 7.3373152763350649e-04 -5.6429893367893145e-04 3.7277181024774779e-04
720 8.4832973303195164e-04 4.9827117048500947e-04 1.4860695016089456e-04
721 2.3399069716930877e-04 -1.6089326054793610e-04 -9.6354528190008780e-04
722 -5.7250789132201130e-04 -7.8044338721076434e-04 -2.3417005521984811e-04
723 5.9573613093328567e-05 6.7206351812565943e-05 -1.0009167896394557e-03
724 -1.8484242399463734e-04 7.1940520161242370e-04 6.7293343393126388e-04
725 8.7266195262458539e-04 -4.6396968129785006e-04 -1.1742358383275313e-04
726 5.8081827112030707e-04 2.1577322271981166e-04 7.8834253194631429e-04
727 7.8835487064468038e-04 5.6044100811952280e-04 2.3779072680358830e-04
728 5.4758148310853484e-04 6.0218439731968385e-04 -5.8009802333480645e-04
729 4.4932074483480425e-04 1.0122635219020881e-04 -8.9165738697650262e-04
730 7.1899541883438313e-04 6.0839646042138752e-04 3.2520531185455646e-04
731 -2.6203524870458788e-04 -6.1150949318717230e-04 -7.4822365914063780e-04
732 3.4559369766210723e-04 6.3093732537648761e-04 6.9629171883927243e-04
733 -7.3996115450896484e-05 9.7324586625161143e-04 -1.9084207470991156e-04
734 -2.4394130328212759e-04 -4.7509090453696508e-04 -8.4962349223893720e-04
735 9.5742971321556916e-04 -2.2236154407655770e-04 -1.5820719138718946e-04
736 9.7166066294637342e-04 -2.1170324313808585e-04 3.1784535394655340e-05
737 -3.3245568271759799e-05 -8.3768263517210618e-05 1.0009750650214885e-03
738 -5.0801908356327649e-04 -8.5375846686438215e-04 5.0321914338931603e-05
739 5.1201311986272182e-04 1.9247014047042000e-04 -8.4110803135462910e-04
740 -7.6115503521012010e-04 1.3356269148049826e-04 6.3525655699024196e-04
741 -1.5090689437113924e-04 4.0736602791663845e-05 9.9247889294999583e-04
742 -5.4553518463712708e-04 -7.1605298466377099e-04 4.3041560636759071e-04
743 -4.3887127105715352e-06 4.3180982281649757e-04 -9.0567580688020338e-04
744 2.9740549819983164e-04 -9.3593574900017963e-04 -1.6359027707830916e-04
745 -7.2542262645362908e-05 -6.8769112679111270e-04 -7.2376621412252227e-04
$EndNodes
$Elements
1486
1 2 2 0 0 410 440 345
2 2 2 0 0 421 541 409
3 2 2 0 0 409 682 421
4 2 2 0 0 545 603 546
5 2 2 0 0 426 427 294
6 2 2 0 0 294 454 426
7 2 2 0 0 265 682 409
8 2 2 0 0 24 41 4
9 2 2 0 0 3 24 4
10 2 2 0 0 238 642 602
11 2 2 0 0 520 651 613
12 2 2 0 0 653 666 659
13 2 2 0 0 404 460 98
14 2 2 0 0 222 482 219
15 2 2 0 0 40 463 9
16 2 2 0 0 608 724 696
17 2 2 0 0 435 709 69
18 2 2 0 0 413 439 29
19 2 2 0 0 345 710 410
20 2 2 0 0 422 463 40
21 2 2 0 0 98 550 404
22 2 2 0 0 95 724 608
23 2 2 0 0 4 41 5
24 2 2 0 0 232 701 581
25 2 2 0 0 490 698 488
26 2 2 0 0 29 436 413
27 2 2 0 0 416 421 342
28 2 2 0 0 312 595 441
29 2 2 0 0 41 486 5
30 2 2 0 0 405 605 519
31 2 2 0 0 409 595 265
32 2 2 0 0 69 481 435
33 2 2 0 0 434 743 339
34 2 2 0 0 342 641 416
35 2 2 0 0 485 656 370
36 2 2 0 0 89 587 90
37 2 2 0 0 108 466 317
38 2 2 0 0 378 629 529
39 2 2 0 0 581 680 232
40 2 2 0 0 281 434 339
41 2 2 0 0 638 739 486
42 2 2 0 0 659 666 660
43 2 2 0 0 345 440 346
44 2 2 0 0 22 44 25
45 2 2 0 0 9 463 8
46 2 2 0 0 44 81 25
47 2 2 0 0 459 587 89
48 2 2 0 0 127 670 630
49 2 2 0 0 508 662 509
50 2 2 0 0 375 662 508
51 2 2 0 0 492 598 103
52 2 2 0 0 604 642 238
53 2 2 0 0 507 510 399
54 2 2 0 0 488 698 489
55 2 2 0 0 34 473 415
56 2 2 0 0 399 639 507
57 2 2 0 0 603 688 546
58 2 2 0 0 316 541 421
59 2 2 0 0 647 696 627
60 2 2 0 0 403 439 352
61 2 2 0 0 221 603 545
62 2 2 0 0 595 648 441
63 2 2 0 0 412 550 98
64 2 2 0 0 411 714 397
65 2 2 0 0 486 739 729
66 2 2 0 0 696 724 401
67 2 2 0 0 247 482 222
68 2 2 0 0 397 714 645
69 2 2 0 0 613 651 212
70 2 2 0 0 207 745 425
71 2 2 0 0 98 675 412
72 2 2 0 0 219 482 230
73 2 2 0 0 560 692 432
74 2 2 0 0 432 689 560
75 2 2 0 0 454 575 426
76 2 2 0 0 352 439 413
77 2 2 0 0 415 420 2
78 2 2 0 0 40 464 422
79 2 2 0 0 89 512 459
80 2 2 0 0 425 614 207
81 2 2 0 0 377 600 453
82 2 2 0 0 89 90 88
83 2 2 0 0 80 466 108
84 2 2 0 0 520 717 651
85 2 2 0 0 602 703 238
86 2 2 0 0 103 687 492
87 2 2 0 0 253 491 424
88 2 2 0 0 69 709 466
89 2 2 0 0 424 512 253
90 2 2 0 0 369 696 647
91 2 2 0 0 581 701 644
92 2 2 0 0 630 670 392
93 2 2 0 0 32 656 485
94 2 2 0 0 459 512 424
95 2 2 0 0 90 91 88
96 2 2 0 0 427 478 294
97 2 2 0 0 488 695 490
98 2 2 0 0 554 699 560
99 2 2 0 0 67 80 79
100 2 2 0 0 252 454 294
101 2 2 0 0 253 628 491
102 2 2 0 0 529 681 378
103 2 2 0 0 519 715 405
104 2 2 0 0 440 441 346
105 2 2 0 0 605 717 519
106 2 2 0 0 403 452 439
107 2 2 0 0 507 639 21
108 2 2 0 0 565 567 566
109 2 2 0 0 433 454 341
110 2 2 0 0 67 466 80
111 2 2 0 0 555 697 576
112 2 2 0 0 491 628 493
113 2 2 0 0 389 641 342
114 2 2 0 0 429 619 474
115 2 2 0 0 40 501 464
116 2 2 0 0 576 699 555
117 2 2 0 0 311 600 377
118 2 2 0 0 567 622 566
119 2 2 0 0 433 575 454
120 2 2 0 0 378 671 629
121 2 2 0 0 79 540 103
122 2 2 0 0 341 473 433
123 2 2 0 0 673 704 68
124 2 2 0 0 462 710 345
125 2 2 0 0 557 722 616
126 2 2 0 0 573 662 343
127 2 2 0 0 370 656 463
128 2 2 0 0 341 454 252
129 2 2 0 0 616 702 557
130 2 2 0 0 6 26 7
131 2 2 0 0 464 501 467
132 2 2 0 0 433 473 406
133 2 2 0 0 8 45 37
134 2 2 0 0 466 709 317
135 2 2 0 0 457 461 379
136 2 2 0 0 84 512 86
137 2 2 0 0 19 452 33
138 2 2 0 0 380 614 425
139 2 2 0 0 83 540 79
140 2 2 0 0 398 510 509
141 2 2 0 0 609 631 137
142 2 2 0 0 18 442 36
143 2 2 0 0 26 45 7
144 2 2 0 0 565 566 343
145 2 2 0 0 80 83 79
146 2 2 0 0 560 689 554
147 2 2 0 0 134 137 136
148 2 2 0 0 68 469 42
149 2 2 0 0 659 716 653
150 2 2 0 0 619 707 474
151 2 2 0 0 497 610 39
152 2 2 0 0 137 138 136
153 2 2 0 0 283 573 343
154 2 2 0 0 506 644 448
155 2 2 0 0 499 735 31
156 2 2 0 0 81 97 25
157 2 2 0 0 45 46 37
158 2 2 0 0 585 668 637
159 2 2 0 0 495 735 499
160 2 2 0 0 399 510 398
161 2 2 0 0 509 573 398
162 2 2 0 0 442 443 36
163 2 2 0 0 1 607 314
164 2 2 0 0 29 612 436
165 2 2 0 0 547 631 609
166 2 2 0 0 360 595 409
167 2 2 0 0 421 682 342
168 2 2 0 0 426 575 327
169 2 2 0 0 123 577 235
170 2 2 0 0 339 743 417
171 2 2 0 0 7 45 8
172 2 2 0 0 3 723 24
173 2 2 0 0 418 666 653
174 2 2 0 0 59 60 58
175 2 2 0 0 620 636 193
176 2 2 0 0 42 469 47
177 2 2 0 0 65 67 66
178 2 2 0 0 509 662 573
179 2 2 0 0 470 482 247
180 2 2 0 0 368 476 472
181 2 2 0 0 530 740 337
182 2 2 0 0 253 512 84
183 2 2 0 0 455 698 282
184 2 2 0 0 61 65 62
185 2 2 0 0 59 61 60
186 2 2 0 0 91 472 88
187 2 2 0 0 90 92 91
188 2 2 0 0 19 442 18
189 2 2 0 0 464 465 423
190 2 2 0 0 706 724 118
191 2 2 0 0 456 611 32
192 2 2 0 0 379 477 61
193 2 2 0 0 417 743 704
194 2 2 0 0 314 683 1
195 2 2 0 0 442 458 443
196 2 2 0 0 11 28 12
197 2 2 0 0 61 62 60
198 2 2 0 0 118 724 95
199 2 2 0 0 22 25 23
200 2 2 0 0 247 483 470
201 2 2 0 0 281 640 434
202 2 2 0 0 197 667 474
203 2 2 0 0 86 512 89
204 2 2 0 0 417 704 673
205 2 2 0 0 451 690 230
206 2 2 0 0 27 442 19
207 2 2 0 0 637 668 229
208 2 2 0 0 60 475 58
209 2 2 0 0 489 610 497
210 2 2 0 0 307 573 283
211 2 2 0 0 61 477 65
212 2 2 0 0 65 66 62
213 2 2 0 0 544 740 530
214 2 2 0 0 230 719 451
215 2 2 0 0 18 452 19
216 2 2 0 0 268 569 269
217 2 2 0 0 32 485 456
218 2 2 0 0 627 696 401
219 2 2 0 0 24 42 41
220 2 2 0 0 20 27 19
221 2 2 0 0 330 461 457
222 2 2 0 0 506 672 644
223 2 2 0 0 472 476 87
224 2 2 0 0 468 495 494
225 2 2 0 0 88 472 87
226 2 2 0 0 121 577 123
227 2 2 0 0 327 575 276
228 2 2 0 0 422 464 423
229 2 2 0 0 47 63 49
230 2 2 0 0 458 506 443
231 2 2 0 0 232 690 451
232 2 2 0 0 28 487 12
233 2 2 0 0 80 107 83
234 2 2 0 0 608 696 676
235 2 2 0 0 356 481 355
236 2 2 0 0 138 238 136
237 2 2 0 0 137 139 138
238 2 2 0 0 729 739 26
239 2 2 0 0 81 99 97
240 2 2 0 0 46 50 37
241 2 2 0 0 463 656 8
242 2 2 0 0 443 444 36
243 2 2 0 0 68 704 469
244 2 2 0 0 24 68 42
245 2 2 0 0 16 503 30
246 2 2 0 0 65 69 67
247 2 2 0 0 67 79 66
248 2 2 0 0 676 696 369
249 2 2 0 0 59 379 61
250 2 2 0 0 90 93 92
251 2 2 0 0 464 467 465
252 2 2 0 0 441 708 312
253 2 2 0 0 483 484 471
254 2 2 0 0 427 479 478
255 2 2 0 0 245 564 244
256 2 2 0 0 470 483 471
257 2 2 0 0 473 721 406
258 2 2 0 0 555 699 554
259 2 2 0 0 47 469 63
260 2 2 0 0 63 355 49
261 2 2 0 0 62 64 60
262 2 2 0 0 80 108 107
263 2 2 0 0 107 539 83
264 2 2 0 0 139 140 138
265 2 2 0 0 99 100 97
266 2 2 0 0 81 236 99
267 2 2 0 0 46 51 50
268 2 2 0 0 443 445 444
269 2 2 0 0 24 419 68
270 2 2 0 0 69 466 67
271 2 2 0 0 79 103 66
272 2 2 0 0 65 477 69
273 2 2 0 0 547 548 321
274 2 2 0 0 93 94 92
275 2 2 0 0 467 468 465
276 2 2 0 0 333 664 649
277 2 2 0 0 55 498 56
278 2 2 0 0 56 498 72
279 2 2 0 0 12 499 31
280 2 2 0 0 63 356 355
281 2 2 0 0 108 110 107
282 2 2 0 0 139 141 140
283 2 2 0 0 100 101 97
284 2 2 0 0 236 248 99
285 2 2 0 0 81 594 236
286 2 2 0 0 51 52 50
287 2 2 0 0 192 515 195
288 2 2 0 0 445 446 444
289 2 2 0 0 477 481 69
290 2 2 0 0 94 95 92
291 2 2 0 0 93 96 94
292 2 2 0 0 63 408 356
293 2 2 0 0 108 111 110
294 2 2 0 0 110 117 107
295 2 2 0 0 139 154 141
296 2 2 0 0 141 142 140
297 2 2 0 0 51 53 52
298 2 2 0 0 100 102 101
299 2 2 0 0 236 250 248
300 2 2 0 0 445 447 446
301 2 2 0 0 52 388 50
302 2 2 0 0 277 622 567
303 2 2 0 0 95 608 92
304 2 2 0 0 94 118 95
305 2 2 0 0 93 104 96
306 2 2 0 0 51 561 53
307 2 2 0 0 408 434 356
308 2 2 0 0 53 54 52
309 2 2 0 0 445 448 447
310 2 2 0 0 108 317 111
311 2 2 0 0 141 143 142
312 2 2 0 0 142 225 140
313 2 2 0 0 102 166 101
314 2 2 0 0 250 325 248
315 2 2 0 0 100 258 102
316 2 2 0 0 53 55 54
317 2 2 0 0 447 449 446
318 2 2 0 0 236 505 250
319 2 2 0 0 104 105 96
320 2 2 0 0 53 57 55
321 2 2 0 0 55 56 54
322 2 2 0 0 448 451 447
323 2 2 0 0 14 39 15
324 2 2 0 0 317 511 111
325 2 2 0 0 10 40 9
326 2 2 0 0 143 144 142
327 2 2 0 0 57 58 55
328 2 2 0 0 8 37 9
329 2 2 0 0 14 38 13
330 2 2 0 0 166 314 101
331 2 2 0 0 18 36 17
332 2 2 0 0 16 29 17
333 2 2 0 0 33 504 20
334 2 2 0 0 325 365 248
335 2 2 0 0 199 202 196
336 2 2 0 0 7 32 6
337 2 2 0 0 434 435 356
338 2 2 0 0 74 75 73
339 2 2 0 0 223 239 234
340 2 2 0 0 74 76 75
341 2 2 0 0 72 74 73
342 2 2 0 0 231 549 201
343 2 2 0 0 202 205 204
344 2 2 0 0 226 227 214
345 2 2 0 0 272 275 271
346 2 2 0 0 276 318 275
347 2 2 0 0 213 214 209
348 2 2 0 0 76 77 75
349 2 2 0 0 210 231 201
350 2 2 0 0 16 30 15
351 2 2 0 0 205 209 208
352 2 2 0 0 202 204 196
353 2 2 0 0 318 406 340
354 2 2 0 0 195 196 193
355 2 2 0 0 322 420 415
356 2 2 0 0 239 240 234
357 2 2 0 0 163 588 168
358 2 2 0 0 12 31 11
359 2 2 0 0 56 72 71
360 2 2 0 0 425 426 327
361 2 2 0 0 19 33 20
362 2 2 0 0 168 224 215
363 2 2 0 0 209 568 216
364 2 2 0 0 318 433 406
365 2 2 0 0 269 271 270
366 2 2 0 0 268 269 245
367 2 2 0 0 21 639 20
368 2 2 0 0 84 85 82
369 2 2 0 0 181 207 183
370 2 2 0 0 269 272 271
371 2 2 0 0 272 276 275
372 2 2 0 0 242 243 240
373 2 2 0 0 102 167 166
374 2 2 0 0 223 234 233
375 2 2 0 0 283 343 227
376 2 2 0 0 205 208 204
377 2 2 0 0 213 226 214
378 2 2 0 0 271 572 347
379 2 2 0 0 243 268 245
380 2 2 0 0 335 398 307
381 2 2 0 0 303 555 554
382 2 2 0 0 226 283 227
383 2 2 0 0 347 485 370
384 2 2 0 0 195 199 196
385 2 2 0 0 205 213 209
386 2 2 0 0 246 322 252
387 2 2 0 0 76 78 77
388 2 2 0 0 133 163 135
389 2 2 0 0 163 168 164
390 2 2 0 0 322 415 341
391 2 2 0 0 227 361 214
392 2 2 0 0 191 198 189
393 2 2 0 0 78 84 82
394 2 2 0 0 209 216 208
395 2 2 0 0 78 82 77
396 2 2 0 0 216 303 266
397 2 2 0 0 417 418 362
398 2 2 0 0 314 607 101
399 2 2 0 0 339 362 280
400 2 2 0 0 243 245 244
401 2 2 0 0 187 291 185
402 2 2 0 0 429 430 359
403 2 2 0 0 143 145 144
404 2 2 0 0 202 553 205
405 2 2 0 0 339 417 362
406 2 2 0 0 131 580 133
407 2 2 0 0 239 242 240
408 2 2 0 0 57 59 58
409 2 2 0 0 224 246 215
410 2 2 0 0 84 86 85
411 2 2 0 0 303 554 266
412 2 2 0 0 72 73 71
413 2 2 0 0 437 438 414
414 2 2 0 0 318 340 275
415 2 2 0 0 269 270 245
416 2 2 0 0 86 87 85
417 2 2 0 0 192 193 191
418 2 2 0 0 123 235 129
419 2 2 0 0 263 374 262
420 2 2 0 0 425 427 426
421 2 2 0 0 149 150 147
422 2 2 0 0 210 232 231
423 2 2 0 0 74 373 76
424 2 2 0 0 168 215 169
425 2 2 0 0 259 262 249
426 2 2 0 0 145 146 144
427 2 2 0 0 367 524 289
428 2 2 0 0 271 347 270
429 2 2 0 0 406 407 340
430 2 2 0 0 334 459 424
431 2 2 0 0 429 474 430
432 2 2 0 0 250 328 325
433 2 2 0 0 431 432 367
434 2 2 0 0 104 278 105
435 2 2 0 0 145 147 146
436 2 2 0 0 151 152 150
437 2 2 0 0 235 583 129
438 2 2 0 0 237 249 228
439 2 2 0 0 149 151 150
440 2 2 0 0 159 161 158
441 2 2 0 0 153 155 152
442 2 2 0 0 156 158 155
443 2 2 0 0 354 367 289
444 2 2 0 0 259 263 262
445 2 2 0 0 190 191 189
446 2 2 0 0 177 221 174
447 2 2 0 0 162 228 161
448 2 2 0 0 124 516 386
449 2 2 0 0 418 653 578
450 2 2 0 0 371 584 295
451 2 2 0 0 151 153 152
452 2 2 0 0 153 156 155
453 2 2 0 0 159 162 161
454 2 2 0 0 374 593 262
455 2 2 0 0 156 159 158
456 2 2 0 0 237 259 249
457 2 2 0 0 146 284 160
458 2 2 0 0 266 309 267
459 2 2 0 0 264 265 257
460 2 2 0 0 86 88 87
461 2 2 0 0 265 312 257
462 2 2 0 0 162 237 228
463 2 2 0 0 21 44 22
464 2 2 0 0 324 392 390
465 2 2 0 0 371 585 584
466 2 2 0 0 262 366 249
467 2 2 0 0 192 195 193
468 2 2 0 0 263 375 374
469 2 2 0 0 216 266 217
470 2 2 0 0 326 327 276
471 2 2 0 0 260 646 166
472 2 2 0 0 220 223 222
473 2 2 0 0 322 341 252
474 2 2 0 0 256 257 255
475 2 2 0 0 78 253 84
476 2 2 0 0 358 359 242
477 2 2 0 0 188 189 187
478 2 2 0 0 281 339 280
479 2 2 0 0 146 160 144
480 2 2 0 0 123 129 128
481 2 2 0 0 255 324 254
482 2 2 0 0 228 229 161
483 2 2 0 0 354 431 367
484 2 2 0 0 163 164 135
485 2 2 0 0 155 157 152
486 2 2 0 0 243 244 240
487 2 2 0 0 256 264 257
488 2 2 0 0 284 316 160
489 2 2 0 0 380 425 327
490 2 2 0 0 148 149 147
491 2 2 0 0 335 399 398
492 2 2 0 0 418 578 362
493 2 2 0 0 334 424 396
494 2 2 0 0 167 260 166
495 2 2 0 0 325 368 365
496 2 2 0 0 428 429 359
497 2 2 0 0 165 255 254
498 2 2 0 0 297 342 264
499 2 2 0 0 298 371 295
500 2 2 0 0 218 323 220
501 2 2 0 0 310 337 302
502 2 2 0 0 165 256 255
503 2 2 0 0 186 187 185
504 2 2 0 0 56 71 70
505 2 2 0 0 165 254 125
506 2 2 0 0 200 201 199
507 2 2 0 0 148 206 149
508 2 2 0 0 324 390 364
509 2 2 0 0 190 192 191
510 2 2 0 0 368 369 365
511 2 2 0 0 353 404 351
512 2 2 0 0 104 331 278
513 2 2 0 0 256 297 264
514 2 2 0 0 316 421 416
515 2 2 0 0 239 358 242
516 2 2 0 0 169 586 171
517 2 2 0 0 286 287 206
518 2 2 0 0 324 364 254
519 2 2 0 0 241 576 162
520 2 2 0 0 168 169 164
521 2 2 0 0 121 123 122
522 2 2 0 0 266 267 217
523 2 2 0 0 129 131 130
524 2 2 0 0 216 217 208
525 2 2 0 0 285 382 313
526 2 2 0 0 172 321 170
527 2 2 0 0 390 391 364
528 2 2 0 0 296 563 300
529 2 2 0 0 246 252 251
530 2 2 0 0 285 286 206
531 2 2 0 0 288 289 287
532 2 2 0 0 298 372 371
533 2 2 0 0 23 35 22
534 2 2 0 0 300 344 304
535 2 2 0 0 344 462 345
536 2 2 0 0 123 128 122
537 2 2 0 0 297 389 342
538 2 2 0 0 237 277 259
539 2 2 0 0 148 285 206
540 2 2 0 0 86 89 88
541 2 2 0 0 306 307 283
542 2 2 0 0 234 279 233
543 2 2 0 0 316 416 160
544 2 2 0 0 188 190 189
545 2 2 0 0 85 98 82
546 2 2 0 0 358 428 359
547 2 2 0 0 437 455 438
548 2 2 0 0 203 210 201
549 2 2 0 0 382 383 313
550 2 2 0 0 153 176 156
551 2 2 0 0 290 354 289
552 2 2 0 0 159 241 162
553 2 2 0 0 386 387 126
554 2 2 0 0 273 363 338
555 2 2 0 0 272 326 276
556 2 2 0 0 171 293 173
557 2 2 0 0 145 148 147
558 2 2 0 0 274 295 261
559 2 2 0 0 285 313 286
560 2 2 0 0 383 384 313
561 2 2 0 0 301 302 299
562 2 2 0 0 131 133 132
563 2 2 0 0 296 298 295
564 2 2 0 0 305 310 302
565 2 2 0 0 349 412 328
566 2 2 0 0 344 345 304
567 2 2 0 0 77 119 75
568 2 2 0 0 315 378 310
569 2 2 0 0 363 401 400
570 2 2 0 0 332 333 278
571 2 2 0 0 223 233 222
572 2 2 0 0 331 334 332
573 2 2 0 0 186 188 187
574 2 2 0 0 178 212 177
575 2 2 0 0 305 360 315
576 2 2 0 0 334 396 395
577 2 2 0 0 246 251 215
578 2 2 0 0 167 261 260
579 2 2 0 0 175 179 178
580 2 2 0 0 345 346 304
581 2 2 0 0 124 386 126
582 2 2 0 0 286 288 287
583 2 2 0 0 331 332 278
584 2 2 0 0 179 181 180
585 2 2 0 0 301 305 302
586 2 2 0 0 300 304 301
587 2 2 0 0 296 300 299
588 2 2 0 0 305 315 310
589 2 2 0 0 296 299 298
590 2 2 0 0 320 453 290
591 2 2 0 0 274 296 295
592 2 2 0 0 313 531 286
593 2 2 0 0 120 281 280
594 2 2 0 0 360 409 315
595 2 2 0 0 363 400 338
596 2 2 0 0 129 130 128
597 2 2 0 0 300 301 299
598 2 2 0 0 1 508 23
599 2 2 0 0 167 273 261
600 2 2 0 0 133 135 134
601 2 2 0 0 173 174 172
602 2 2 0 0 311 377 376
603 2 2 0 0 273 274 261
604 2 2 0 0 273 338 274
605 2 2 0 0 334 395 332
606 2 2 0 0 183 197 184
607 2 2 0 0 319 393 320
608 2 2 0 0 449 450 446
609 2 2 0 0 288 290 289
610 2 2 0 0 226 306 283
611 2 2 0 0 326 380 327
612 2 2 0 0 175 177 174
613 2 2 0 0 181 183 182
614 2 2 0 0 219 230 211
615 2 2 0 0 308 335 307
616 2 2 0 0 267 311 292
617 2 2 0 0 169 170 164
618 2 2 0 0 288 319 290
619 2 2 0 0 126 165 125
620 2 2 0 0 120 280 121
621 2 2 0 0 130 357 128
622 2 2 0 0 195 200 199
623 2 2 0 0 169 171 170
624 2 2 0 0 171 172 170
625 2 2 0 0 184 186 185
626 2 2 0 0 73 282 71
627 2 2 0 0 252 294 251
628 2 2 0 0 319 320 290
629 2 2 0 0 131 132 130
630 2 2 0 0 393 394 320
631 2 2 0 0 171 173 172
632 2 2 0 0 4 34 3
633 2 2 0 0 218 220 219
634 2 2 0 0 267 292 217
635 2 2 0 0 184 185 182
636 2 2 0 0 188 194 190
637 2 2 0 0 56 70 54
638 2 2 0 0 377 405 376
639 2 2 0 0 449 470 450
640 2 2 0 0 179 180 178
641 2 2 0 0 173 175 174
642 2 2 0 0 175 178 177
643 2 2 0 0 250 329 328
644 2 2 0 0 311 376 292
645 2 2 0 0 329 571 350
646 2 2 0 0 347 370 348
647 2 2 0 0 220 222 219
648 2 2 0 0 376 385 292
649 2 2 0 0 133 134 132
650 2 2 0 0 134 136 132
651 2 2 0 0 306 308 307
652 2 2 0 0 200 203 201
653 2 2 0 0 233 247 222
654 2 2 0 0 98 460 82
655 2 2 0 0 329 349 328
656 2 2 0 0 326 381 380
657 2 2 0 0 347 348 270
658 2 2 0 0 181 182 180
659 2 2 0 0 121 122 115
660 2 2 0 0 350 351 349
661 2 2 0 0 308 336 335
662 2 2 0 0 350 403 352
663 2 2 0 0 470 471 450
664 2 2 0 0 203 211 210
665 2 2 0 0 218 219 211
666 2 2 0 0 183 184 182
667 2 2 0 0 370 463 422
668 2 2 0 0 306 402 308
669 2 2 0 0 203 218 211
670 2 2 0 0 71 490 70
671 2 2 0 0 329 350 349
672 2 2 0 0 436 437 414
673 2 2 0 0 124 126 125
674 2 2 0 0 413 414 353
675 2 2 0 0 422 423 348
676 2 2 0 0 352 353 351
677 2 2 0 0 370 422 348
678 2 2 0 0 350 352 351
679 2 2 0 0 413 436 414
680 2 2 0 0 352 413 353
681 2 2 0 0 120 121 115
682 2 2 0 0 110 480 117
683 2 2 0 0 124 125 116
684 2 2 0 0 126 521 165
685 2 2 0 0 113 120 115
686 2 2 0 0 127 440 410
687 2 2 0 0 114 124 116
688 2 2 0 0 543 544 530
689 2 2 0 0 488 489 487
690 2 2 0 0 585 637 366
691 2 2 0 0 543 570 544
692 2 2 0 0 113 115 114
693 2 2 0 0 127 410 106
694 2 2 0 0 114 116 112
695 2 2 0 0 195 515 200
696 2 2 0 0 491 493 492
697 2 2 0 0 12 487 13
698 2 2 0 0 546 547 321
699 2 2 0 0 330 457 411
700 2 2 0 0 157 543 530
701 2 2 0 0 519 520 291
702 2 2 0 0 28 488 487
703 2 2 0 0 111 112 110
704 2 2 0 0 312 534 257
705 2 2 0 0 476 732 412
706 2 2 0 0 27 458 442
707 2 2 0 0 385 636 620
708 2 2 0 0 176 559 156
709 2 2 0 0 593 634 366
710 2 2 0 0 589 590 224
711 2 2 0 0 113 114 112
712 2 2 0 0 109 127 106
713 2 2 0 0 270 564 245
714 2 2 0 0 443 506 445
715 2 2 0 0 491 492 396
716 2 2 0 0 388 624 502
717 2 2 0 0 445 506 448
718 2 2 0 0 30 500 15
719 2 2 0 0 20 504 21
720 2 2 0 0 64 475 60
721 2 2 0 0 287 542 206
722 2 2 0 0 23 508 35
723 2 2 0 0 302 558 299
724 2 2 0 0 70 551 54
725 2 2 0 0 62 598 64
726 2 2 0 0 424 491 396
727 2 2 0 0 407 456 340
728 2 2 0 0 545 546 321
729 2 2 0 0 330 411 397
730 2 2 0 0 72 536 74
731 2 2 0 0 238 574 136
732 2 2 0 0 659 660 420
733 2 2 0 0 395 538 332
734 2 2 0 0 143 527 145
735 2 2 0 0 412 675 476
736 2 2 0 0 239 513 358
737 2 2 0 0 157 530 529
738 2 2 0 0 518 519 291
739 2 2 0 0 449 482 470
740 2 2 0 0 207 713 479
741 2 2 0 0 119 523 75
742 2 2 0 0 109 670 127
743 2 2 0 0 10 501 40
744 2 2 0 0 508 509 35
745 2 2 0 0 96 606 94
746 2 2 0 0 331 459 334
747 2 2 0 0 286 531 288
748 2 2 0 0 290 453 354
749 2 2 0 0 282 490 71
750 2 2 0 0 384 531 313
751 2 2 0 0 289 524 287
752 2 2 0 0 349 550 412
753 2 2 0 0 165 521 256
754 2 2 0 0 82 460 77
755 2 2 0 0 155 543 157
756 2 2 0 0 201 549 199
757 2 2 0 0 273 591 363
758 2 2 0 0 387 521 126
759 2 2 0 0 114 516 124
760 2 2 0 0 53 561 57
761 2 2 0 0 266 554 309
762 2 2 0 0 257 534 255
763 2 2 0 0 205 553 213
764 2 2 0 0 142 522 225
765 2 2 0 0 435 481 356
766 2 2 0 0 216 568 303
767 2 2 0 0 300 563 344
768 2 2 0 0 214 568 209
769 2 2 0 0 112 480 110
770 2 2 0 0 350 571 403
771 2 2 0 0 347 572 485
772 2 2 0 0 275 572 271
773 2 2 0 0 274 563 296
774 2 2 0 0 171 586 293
775 2 2 0 0 162 576 237
776 2 2 0 0 133 580 163
777 2 2 0 0 11 501 10
778 2 2 0 0 295 584 261
779 2 2 0 0 129 583 131
780 2 2 0 0 215 586 169
781 2 2 0 0 250 505 329
782 2 2 0 0 168 588 224
783 2 2 0 0 321 548 170
784 2 2 0 0 262 593 366
785 2 2 0 0 166 646 314
786 2 2 0 0 520 535 291
787 2 2 0 0 373 663 493
788 2 2 0 0 291 535 185
789 2 2 0 0 101 607 97
790 2 2 0 0 130 574 357
791 2 2 0 0 158 570 543
792 2 2 0 0 31 501 11
793 2 2 0 0 444 552 503
794 2 2 0 0 156 559 159
795 2 2 0 0 236 594 505
796 2 2 0 0 206 542 149
797 2 2 0 0 54 551 52
798 2 2 0 0 74 536 373
799 2 2 0 0 337 558 302
800 2 2 0 0 150 532 147
801 2 2 0 0 379 728 457
802 2 2 0 0 299 558 298
803 2 2 0 0 332 538 333
804 2 2 0 0 145 527 148
805 2 2 0 0 514 515 192
806 2 2 0 0 15 500 14
807 2 2 0 0 75 523 73
808 2 2 0 0 467 501 31
809 2 2 0 0 254 592 125
810 2 2 0 0 172 545 321
811 2 2 0 0 144 522 142
812 2 2 0 0 528 532 150
813 2 2 0 0 187 518 291
814 2 2 0 0 553 599 213
815 2 2 0 0 383 603 384
816 2 2 0 0 282 698 490
817 2 2 0 0 244 517 240
818 2 2 0 0 353 525 404
819 2 2 0 0 395 540 538
820 2 2 0 0 94 606 118
821 2 2 0 0 117 539 107
822 2 2 0 0 185 535 182
823 2 2 0 0 388 502 50
824 2 2 0 0 167 591 273
825 2 2 0 0 147 532 146
826 2 2 0 0 92 608 91
827 2 2 0 0 472 676 368
828 2 2 0 0 364 592 254
829 2 2 0 0 21 504 44
830 2 2 0 0 365 597 248
831 2 2 0 0 125 592 116
832 2 2 0 0 588 589 224
833 2 2 0 0 111 113 112
834 2 2 0 0 63 469 408
835 2 2 0 0 105 109 106
836 2 2 0 0 242 526 243
837 2 2 0 0 439 712 29
838 2 2 0 0 240 517 234
839 2 2 0 0 346 533 304
840 2 2 0 0 14 500 38
841 2 2 0 0 494 495 484
842 2 2 0 0 127 630 440
843 2 2 0 0 208 537 204
844 2 2 0 0 175 562 179
845 2 2 0 0 303 626 555
846 2 2 0 0 359 526 242
847 2 2 0 0 243 526 268
848 2 2 0 0 217 537 208
849 2 2 0 0 58 498 55
850 2 2 0 0 503 552 30
851 2 2 0 0 13 499 12
852 2 2 0 0 268 621 569
853 2 2 0 0 489 497 487
854 2 2 0 0 475 498 58
855 2 2 0 0 430 526 359
856 2 2 0 0 248 597 99
857 2 2 0 0 292 537 217
858 2 2 0 0 26 645 45
859 2 2 0 0 234 517 279
860 2 2 0 0 14 497 39
861 2 2 0 0 385 537 292
862 2 2 0 0 305 533 360
863 2 2 0 0 304 533 301
864 2 2 0 0 146 532 284
865 2 2 0 0 483 494 484
866 2 2 0 0 173 562 175
867 2 2 0 0 116 480 112
868 2 2 0 0 224 590 246
869 2 2 0 0 189 518 187
870 2 2 0 0 498 536 72
871 2 2 0 0 414 525 353
872 2 2 0 0 160 522 144
873 2 2 0 0 547 609 548
874 2 2 0 0 182 535 180
875 2 2 0 0 297 601 389
876 2 2 0 0 44 594 81
877 2 2 0 0 301 533 305
878 2 2 0 0 105 106 96
879 2 2 0 0 515 596 200
880 2 2 0 0 293 562 173
881 2 2 0 0 73 523 282
882 2 2 0 0 148 527 285
883 2 2 0 0 174 545 172
884 2 2 0 0 218 596 323
885 2 2 0 0 200 596 203
886 2 2 0 0 149 542 151
887 2 2 0 0 446 552 444
888 2 2 0 0 49 461 330
889 2 2 0 0 330 397 48
890 2 2 0 0 453 738 377
891 2 2 0 0 255 534 324
892 2 2 0 0 52 551 388
893 2 2 0 0 634 646 260
894 2 2 0 0 513 615 358
895 2 2 0 0 438 525 414
896 2 2 0 0 516 618 386
897 2 2 0 0 198 518 189
898 2 2 0 0 227 566 361
899 2 2 0 0 559 560 241
900 2 2 0 0 90 587 93
901 2 2 0 0 416 522 160
902 2 2 0 0 102 591 167
903 2 2 0 0 134 609 137
904 2 2 0 0 298 558 372
905 2 2 0 0 132 574 130
906 2 2 0 0 106 606 96
907 2 2 0 0 159 559 241
908 2 2 0 0 32 611 6
909 2 2 0 0 158 543 155
910 2 2 0 0 223 513 239
911 2 2 0 0 288 531 319
912 2 2 0 0 323 513 220
913 2 2 0 0 115 516 114
914 2 2 0 0 521 601 297
915 2 2 0 0 610 698 455
916 2 2 0 0 354 600 431
917 2 2 0 0 351 550 349
918 2 2 0 0 256 521 297
919 2 2 0 0 140 604 138
920 2 2 0 0 77 460 119
921 2 2 0 0 17 503 16
922 2 2 0 0 9 502 10
923 2 2 0 0 104 587 331
924 2 2 0 0 152 528 150
925 2 2 0 0 315 541 378
926 2 2 0 0 170 548 164
927 2 2 0 0 590 659 420
928 2 2 0 0 11 624 28
929 2 2 0 0 199 549 202
930 2 2 0 0 502 624 10
931 2 2 0 0 453 600 354
932 2 2 0 0 42 43 41
933 2 2 0 0 38 499 13
934 2 2 0 0 285 527 382
935 2 2 0 0 190 514 192
936 2 2 0 0 157 529 528
937 2 2 0 0 231 643 549
938 2 2 0 0 331 587 459
939 2 2 0 0 451 701 232
940 2 2 0 0 99 597 100
941 2 2 0 0 361 568 214
942 2 2 0 0 372 740 544
943 2 2 0 0 221 545 174
944 2 2 0 0 138 604 238
945 2 2 0 0 340 572 275
946 2 2 0 0 338 563 274
947 2 2 0 0 524 542 287
948 2 2 0 0 265 595 312
949 2 2 0 0 111 511 113
950 2 2 0 0 580 658 588
951 2 2 0 0 580 588 163
952 2 2 0 0 237 576 277
953 2 2 0 0 444 503 36
954 2 2 0 0 131 583 580
955 2 2 0 0 505 571 329
956 2 2 0 0 203 596 218
957 2 2 0 0 584 634 260
958 2 2 0 0 261 584 260
959 2 2 0 0 369 647 365
960 2 2 0 0 251 586 215
961 2 2 0 0 348 564 270
962 2 2 0 0 450 552 446
963 2 2 0 0 390 496 391
964 2 2 0 0 66 598 62
965 2 2 0 0 465 623 423
966 2 2 0 0 258 591 102
967 2 2 0 0 343 566 227
968 2 2 0 0 564 623 244
969 2 2 0 0 154 617 141
970 2 2 0 0 324 534 392
971 2 2 0 0 50 502 37
972 2 2 0 0 524 556 542
973 2 2 0 0 544 700 372
974 2 2 0 0 122 516 115
975 2 2 0 0 177 557 221
976 2 2 0 0 489 698 610
977 2 2 0 0 93 587 104
978 2 2 0 0 136 574 132
979 2 2 0 0 593 646 634
980 2 2 0 0 116 592 480
981 2 2 0 0 143 617 527
982 2 2 0 0 225 604 140
983 2 2 0 0 137 631 139
984 2 2 0 0 549 553 202
985 2 2 0 0 164 548 135
986 2 2 0 0 404 550 351
987 2 2 0 0 34 721 473
988 2 2 0 0 220 513 223
989 2 2 0 0 317 640 511
990 2 2 0 0 100 597 258
991 2 2 0 0 588 658 589
992 2 2 0 0 323 615 513
993 2 2 0 0 568 626 303
994 2 2 0 0 377 605 405
995 2 2 0 0 178 613 212
996 2 2 0 0 493 628 373
997 2 2 0 0 157 528 152
998 2 2 0 0 591 627 363
999 2 2 0 0 409 541 315
1000 2 2 0 0 183 614 197
1001 2 2 0 0 103 598 66
1002 2 2 0 0 188 619 194
1003 2 2 0 0 213 599 226
1004 2 2 0 0 306 599 402
1005 2 2 0 0 97 607 25
1006 2 2 0 0 194 514 190
1007 2 2 0 0 373 628 76
1008 2 2 0 0 78 628 253
1009 2 2 0 0 42 47 43
1010 2 2 0 0 39 612 15
1011 2 2 0 0 16 612 29
1012 2 2 0 0 437 610 455
1013 2 2 0 0 487 497 13
1014 2 2 0 0 440 630 441
1015 2 2 0 0 479 713 562
1016 2 2 0 0 196 620 193
1017 2 2 0 0 456 572 340
1018 2 2 0 0 120 511 281
1019 2 2 0 0 577 578 235
1020 2 2 0 0 335 582 399
1021 2 2 0 0 314 741 683
1022 2 2 0 0 520 613 535
1023 2 2 0 0 585 634 584
1024 2 2 0 0 423 564 348
1025 2 2 0 0 457 561 411
1026 2 2 0 0 6 611 5
1027 2 2 0 0 385 620 537
1028 2 2 0 0 228 637 229
1029 2 2 0 0 366 637 249
1030 2 2 0 0 161 570 158
1031 2 2 0 0 434 640 435
1032 2 2 0 0 193 636 191
1033 2 2 0 0 410 606 106
1034 2 2 0 0 37 502 9
1035 2 2 0 0 36 503 17
1036 2 2 0 0 141 617 143
1037 2 2 0 0 363 627 401
1038 2 2 0 0 322 590 420
1039 2 2 0 0 357 618 128
1040 2 2 0 0 430 621 526
1041 2 2 0 0 540 687 103
1042 2 2 0 0 280 577 121
1043 2 2 0 0 276 575 318
1044 2 2 0 0 362 578 577
1045 2 2 0 0 109 649 496
1046 2 2 0 0 246 590 322
1047 2 2 0 0 326 569 381
1048 2 2 0 0 569 621 381
1049 2 2 0 0 269 569 272
1050 2 2 0 0 139 631 154
1051 2 2 0 0 649 664 496
1052 2 2 0 0 537 620 204
1053 2 2 0 0 355 461 49
1054 2 2 0 0 663 685 493
1055 2 2 0 0 479 745 207
1056 2 2 0 0 343 662 565
1057 2 2 0 0 212 557 177
1058 2 2 0 0 45 645 46
1059 2 2 0 0 496 670 109
1060 2 2 0 0 366 634 585
1061 2 2 0 0 384 616 531
1062 2 2 0 0 535 613 180
1063 2 2 0 0 391 632 364
1064 2 2 0 0 308 581 336
1065 2 2 0 0 344 625 462
1066 2 2 0 0 563 625 344
1067 2 2 0 0 13 497 14
1068 2 2 0 0 480 632 117
1069 2 2 0 0 371 668 585
1070 2 2 0 0 333 649 278
1071 2 2 0 0 387 601 521
1072 2 2 0 0 47 49 48
1073 2 2 0 0 358 615 428
1074 2 2 0 0 113 511 120
1075 2 2 0 0 527 617 382
1076 2 2 0 0 105 649 109
1077 2 2 0 0 398 573 307
1078 2 2 0 0 368 676 369
1079 2 2 0 0 180 613 178
1080 2 2 0 0 153 556 176
1081 2 2 0 0 432 657 367
1082 2 2 0 0 458 718 582
1083 2 2 0 0 207 614 183
1084 2 2 0 0 407 611 456
1085 2 2 0 0 244 623 517
1086 2 2 0 0 20 639 27
1087 2 2 0 0 476 675 87
1088 2 2 0 0 319 616 393
1089 2 2 0 0 474 707 197
1090 2 2 0 0 226 599 306
1091 2 2 0 0 47 48 43
1092 2 2 0 0 186 619 188
1093 2 2 0 0 412 732 328
1094 2 2 0 0 316 671 541
1095 2 2 0 0 293 734 478
1096 2 2 0 0 492 685 598
1097 2 2 0 0 528 629 532
1098 2 2 0 0 514 635 515
1099 2 2 0 0 531 616 319
1100 2 2 0 0 8 656 7
1101 2 2 0 0 387 602 601
1102 2 2 0 0 76 628 78
1103 2 2 0 0 122 618 516
1104 2 2 0 0 651 717 394
1105 2 2 0 0 423 623 564
1106 2 2 0 0 546 669 547
1107 2 2 0 0 4 679 34
1108 2 2 0 0 542 556 151
1109 2 2 0 0 548 609 135
1110 2 2 0 0 204 620 196
1111 2 2 0 0 529 629 528
1112 2 2 0 0 482 719 230
1113 2 2 0 0 258 627 591
1114 2 2 0 0 336 582 335
1115 2 2 0 0 197 686 667
1116 2 2 0 0 583 658 580
1117 2 2 0 0 85 675 98
1118 2 2 0 0 59 728 379
1119 2 2 0 0 400 625 338
1120 2 2 0 0 394 717 605
1121 2 2 0 0 471 650 450
1122 2 2 0 0 596 635 323
1123 2 2 0 0 249 637 228
1124 2 2 0 0 515 635 596
1125 2 2 0 0 338 625 563
1126 2 2 0 0 28 633 488
1127 2 2 0 0 566 622 361
1128 2 2 0 0 229 570 161
1129 2 2 0 0 468 654 465
1130 2 2 0 0 118 710 462
1131 2 2 0 0 15 612 16
1132 2 2 0 0 589 659 590
1133 2 2 0 0 526 621 268
1134 2 2 0 0 365 647 597
1135 2 2 0 0 579 583 235
1136 2 2 0 0 22 507 21
1137 2 2 0 0 342 682 264
1138 2 2 0 0 441 648 346
1139 2 2 0 0 191 636 198
1140 2 2 0 0 578 653 579
1141 2 2 0 0 135 609 134
1142 2 2 0 0 128 618 122
1143 2 2 0 0 378 681 310
1144 2 2 0 0 230 690 211
1145 2 2 0 0 210 690 232
1146 2 2 0 0 549 643 553
1147 2 2 0 0 233 661 247
1148 2 2 0 0 10 624 11
1149 2 2 0 0 640 709 435
1150 2 2 0 0 449 719 482
1151 2 2 0 0 452 726 33
1152 2 2 0 0 362 577 280
1153 2 2 0 0 318 575 433
1154 2 2 0 0 492 687 396
1155 2 2 0 0 586 734 293
1156 2 2 0 0 357 655 618
1157 2 2 0 0 277 567 259
1158 2 2 0 0 522 641 225
1159 2 2 0 0 511 640 281
1160 2 2 0 0 247 661 483
1161 2 2 0 0 610 693 39
1162 2 2 0 0 272 569 326
1163 2 2 0 0 490 695 70
1164 2 2 0 0 553 643 599
1165 2 2 0 0 532 629 284
1166 2 2 0 0 29 712 17
1167 2 2 0 0 632 665 117
1168 2 2 0 0 618 655 386
1169 2 2 0 0 241 699 576
1170 2 2 0 0 457 728 561
1171 2 2 0 0 485 572 456
1172 2 2 0 0 430 667 621
1173 2 2 0 0 582 672 458
1174 2 2 0 0 395 687 540
1175 2 2 0 0 504 594 44
1176 2 2 0 0 181 713 207
1177 2 2 0 0 197 707 184
1178 2 2 0 0 524 657 556
1179 2 2 0 0 475 536 498
1180 2 2 0 0 394 738 320
1181 2 2 0 0 51 714 561
1182 2 2 0 0 151 556 153
1183 2 2 0 0 437 693 610
1184 2 2 0 0 361 626 568
1185 2 2 0 0 611 679 5
1186 2 2 0 0 231 680 643
1187 2 2 0 0 462 706 118
1188 2 2 0 0 390 670 496
1189 2 2 0 0 602 642 601
1190 2 2 0 0 49 330 48
1191 2 2 0 0 391 665 632
1192 2 2 0 0 508 737 375
1193 2 2 0 0 450 650 552
1194 2 2 0 0 368 732 476
1195 2 2 0 0 578 579 235
1196 2 2 0 0 402 581 308
1197 2 2 0 0 43 486 41
1198 2 2 0 0 562 713 179
1199 2 2 0 0 592 632 480
1200 2 2 0 0 416 641 522
1201 2 2 0 0 372 668 371
1202 2 2 0 0 452 712 439
1203 2 2 0 0 282 720 455
1204 2 2 0 0 556 657 176
1205 2 2 0 0 364 632 592
1206 2 2 0 0 403 726 452
1207 2 2 0 0 465 654 623
1208 2 2 0 0 278 649 105
1209 2 2 0 0 154 652 617
1210 2 2 0 0 383 688 603
1211 2 2 0 0 451 719 447
1212 2 2 0 0 317 709 640
1213 2 2 0 0 604 711 642
1214 2 2 0 0 382 652 383
1215 2 2 0 0 601 642 389
1216 2 2 0 0 284 671 316
1217 2 2 0 0 599 643 402
1218 2 2 0 0 388 633 624
1219 2 2 0 0 267 678 311
1220 2 2 0 0 337 681 530
1221 2 2 0 0 279 661 233
1222 2 2 0 0 605 738 394
1223 2 2 0 0 33 677 504
1224 2 2 0 0 386 655 387
1225 2 2 0 0 547 669 631
1226 2 2 0 0 562 731 479
1227 2 2 0 0 360 648 595
1228 2 2 0 0 432 692 657
1229 2 2 0 0 367 657 524
1230 2 2 0 0 633 695 488
1231 2 2 0 0 415 473 341
1232 2 2 0 0 644 672 336
1233 2 2 0 0 551 633 388
1234 2 2 0 0 533 648 360
1235 2 2 0 0 407 679 611
1236 2 2 0 0 323 635 615
1237 2 2 0 0 530 681 529
1238 2 2 0 0 393 651 394
1239 2 2 0 0 387 655 602
1240 2 2 0 0 238 703 574
1241 2 2 0 0 594 677 505
1242 2 2 0 0 559 692 560
1243 2 2 0 0 621 667 381
1244 2 2 0 0 405 674 376
1245 2 2 0 0 325 732 368
1246 2 2 0 0 623 654 517
1247 2 2 0 0 581 644 336
1248 2 2 0 0 346 648 533
1249 2 2 0 0 517 654 279
1250 2 2 0 0 477 705 481
1251 2 2 0 0 481 705 355
1252 2 2 0 0 561 728 57
1253 2 2 0 0 379 705 477
1254 2 2 0 0 617 652 382
1255 2 2 0 0 30 650 500
1256 2 2 0 0 376 674 385
1257 2 2 0 0 518 715 519
1258 2 2 0 0 474 667 430
1259 2 2 0 0 478 734 294
1260 2 2 0 0 624 633 28
1261 2 2 0 0 186 707 619
1262 2 2 0 0 64 663 475
1263 2 2 0 0 597 647 258
1264 2 2 0 0 377 738 605
1265 2 2 0 0 31 735 467
1266 2 2 0 0 27 718 458
1267 2 2 0 0 419 673 68
1268 2 2 0 0 616 722 393
1269 2 2 0 0 24 723 419
1270 2 2 0 0 397 638 48
1271 2 2 0 0 404 730 460
1272 2 2 0 0 91 676 472
1273 2 2 0 0 622 626 361
1274 2 2 0 0 7 656 32
1275 2 2 0 0 576 697 277
1276 2 2 0 0 471 691 650
1277 2 2 0 0 536 663 373
1278 2 2 0 0 484 691 471
1279 2 2 0 0 552 650 30
1280 2 2 0 0 311 678 600
1281 2 2 0 0 486 729 5
1282 2 2 0 0 418 673 666
1283 2 2 0 0 232 680 231
1284 2 2 0 0 5 679 4
1285 2 2 0 0 117 665 539
1286 2 2 0 0 384 702 616
1287 2 2 0 0 557 702 221
1288 2 2 0 0 87 675 85
1289 2 2 0 0 225 711 604
1290 2 2 0 0 505 677 571
1291 2 2 0 0 483 661 494
1292 2 2 0 0 263 565 375
1293 2 2 0 0 504 677 594
1294 2 2 0 0 582 718 399
1295 2 2 0 0 645 714 46
1296 2 2 0 0 534 708 392
1297 2 2 0 0 643 680 402
1298 2 2 0 0 18 712 452
1299 2 2 0 0 392 670 390
1300 2 2 0 0 221 702 603
1301 2 2 0 0 496 664 391
1302 2 2 0 0 606 710 118
1303 2 2 0 0 655 703 602
1304 2 2 0 0 608 676 91
1305 2 2 0 0 194 684 514
1306 2 2 0 0 541 671 378
1307 2 2 0 0 154 669 652
1308 2 2 0 0 399 718 639
1309 2 2 0 0 405 715 674
1310 2 2 0 0 33 726 677
1311 2 2 0 0 629 671 284
1312 2 2 0 0 468 735 495
1313 2 2 0 0 469 704 408
1314 2 2 0 0 427 745 479
1315 2 2 0 0 294 734 251
1316 2 2 0 0 461 705 379
1317 2 2 0 0 385 674 636
1318 2 2 0 0 657 692 176
1319 2 2 0 0 561 714 411
1320 2 2 0 0 631 669 154
1321 2 2 0 0 264 682 265
1322 2 2 0 0 43 638 486
1323 2 2 0 0 48 638 43
1324 2 2 0 0 194 744 684
1325 2 2 0 0 381 686 380
1326 2 2 0 0 658 716 589
1327 2 2 0 0 263 567 565
1328 2 2 0 0 310 681 337
1329 2 2 0 0 493 685 492
1330 2 2 0 0 64 685 663
1331 2 2 0 0 309 678 267
1332 2 2 0 0 600 678 431
1333 2 2 0 0 538 694 333
1334 2 2 0 0 598 685 64
1335 2 2 0 0 551 695 633
1336 2 2 0 0 560 699 241
1337 2 2 0 0 211 690 210
1338 2 2 0 0 2 723 3
1339 2 2 0 0 630 708 441
1340 2 2 0 0 467 735 468
1341 2 2 0 0 396 687 395
1342 2 2 0 0 35 507 22
1343 2 2 0 0 259 567 263
1344 2 2 0 0 417 673 418
1345 2 2 0 0 614 686 197
1346 2 2 0 0 392 708 630
1347 2 2 0 0 5 729 6
1348 2 2 0 0 279 725 661
1349 2 2 0 0 6 729 26
1350 2 2 0 0 357 703 655
1351 2 2 0 0 514 684 635
1352 2 2 0 0 540 733 538
1353 2 2 0 0 374 741 593
1354 2 2 0 0 176 692 559
1355 2 2 0 0 650 691 500
1356 2 2 0 0 484 736 691
1357 2 2 0 0 83 733 540
1358 2 2 0 0 558 740 372
1359 2 2 0 0 626 697 555
1360 2 2 0 0 436 693 437
1361 2 2 0 0 375 737 374
1362 2 2 0 0 475 663 536
1363 2 2 0 0 636 674 198
1364 2 2 0 0 674 715 198
1365 2 2 0 0 70 695 551
1366 2 2 0 0 406 721 407
1367 2 2 0 0 677 726 571
1368 2 2 0 0 258 647 627
1369 2 2 0 0 448 701 451
1370 2 2 0 0 458 672 506
1371 2 2 0 0 229 700 570
1372 2 2 0 0 684 744 428
1373 2 2 0 0 570 700 544
1374 2 2 0 0 678 742 431
1375 2 2 0 0 646 741 314
1376 2 2 0 0 603 702 384
1377 2 2 0 0 478 731 293
1378 2 2 0 0 309 742 678
1379 2 2 0 0 380 686 614
1380 2 2 0 0 494 725 468
1381 2 2 0 0 500 691 38
1382 2 2 0 0 635 684 615
1383 2 2 0 0 661 725 494
1384 2 2 0 0 679 721 34
1385 2 2 0 0 509 510 35
1386 2 2 0 0 46 714 51
1387 2 2 0 0 615 684 428
1388 2 2 0 0 432 742 689
1389 2 2 0 0 179 713 181
1390 2 2 0 0 26 739 645
1391 2 2 0 0 35 510 507
1392 2 2 0 0 574 703 357
1393 2 2 0 0 184 707 186
1394 2 2 0 0 39 693 612
1395 2 2 0 0 665 694 539
1396 2 2 0 0 312 708 534
1397 2 2 0 0 554 689 309
1398 2 2 0 0 1 737 508
1399 2 2 0 0 519 717 520
1400 2 2 0 0 277 697 622
1401 2 2 0 0 389 711 641
1402 2 2 0 0 495 736 484
1403 2 2 0 0 17 712 18
1404 2 2 0 0 212 722 557
1405 2 2 0 0 455 720 438
1406 2 2 0 0 622 697 626
1407 2 2 0 0 664 694 665
1408 2 2 0 0 447 719 449
1409 2 2 0 0 669 688 652
1410 2 2 0 0 612 693 436
1411 2 2 0 0 619 744 194
1412 2 2 0 0 57 728 59
1413 2 2 0 0 579 658 583
1414 2 2 0 0 438 727 525
1415 2 2 0 0 539 733 83
1416 2 2 0 0 479 731 478
1417 2 2 0 0 691 736 38
1418 2 2 0 0 401 724 400
1419 2 2 0 0 420 660 2
1420 2 2 0 0 328 732 325
1421 2 2 0 0 320 738 453
1422 2 2 0 0 428 744 429
1423 2 2 0 0 431 742 432
1424 2 2 0 0 425 745 427
1425 2 2 0 0 408 743 434
1426 2 2 0 0 571 726 403
1427 2 2 0 0 119 727 523
1428 2 2 0 0 625 706 462
1429 2 2 0 0 525 730 404
1430 2 2 0 0 499 736 495
1431 2 2 0 0 468 725 654
1432 2 2 0 0 336 672 582
1433 2 2 0 0 198 715 518
1434 2 2 0 0 400 724 706
1435 2 2 0 0 402 680 581
1436 2 2 0 0 589 716 659
1437 2 2 0 0 727 730 525
1438 2 2 0 0 664 665 391
1439 2 2 0 0 337 740 558
1440 2 2 0 0 293 731 562
1441 2 2 0 0 523 720 282
1442 2 2 0 0 460 730 119
1443 2 2 0 0 641 711 225
1444 2 2 0 0 429 744 619
1445 2 2 0 0 119 730 727
1446 2 2 0 0 651 722 212
1447 2 2 0 0 38 736 499
1448 2 2 0 0 667 686 381
1449 2 2 0 0 652 688 383
1450 2 2 0 0 410 710 606
1451 2 2 0 0 644 701 448
1452 2 2 0 0 666 673 419
1453 2 2 0 0 704 743 408
1454 2 2 0 0 251 734 586
1455 2 2 0 0 400 706 625
1456 2 2 0 0 546 688 669
1457 2 2 0 0 668 700 229
1458 2 2 0 0 538 733 694
1459 2 2 0 0 333 694 664
1460 2 2 0 0 565 662 375
1461 2 2 0 0 720 727 438
1462 2 2 0 0 372 700 668
1463 2 2 0 0 579 716 658
1464 2 2 0 0 642 711 389
1465 2 2 0 0 355 705 461
1466 2 2 0 0 407 721 679
1467 2 2 0 0 523 727 720
1468 2 2 0 0 654 725 279
1469 2 2 0 0 639 718 27
1470 2 2 0 0 694 733 539
1471 2 2 0 0 393 722 651
1472 2 2 0 0 645 739 397
1473 2 2 0 0 683 741 374
1474 2 2 0 0 397 739 638
1475 2 2 0 0 653 716 579
1476 2 2 0 0 666 723 660
1477 2 2 0 0 419 723 666
1478 2 2 0 0 374 737 683
1479 2 2 0 0 593 741 646
1480 2 2 0 0 683 737 1
1481 2 2 0 0 689 742 309
1482 2 2 0 0 660 723 2
1483 2 2 0 0 23 25 1
1484 2 2 0 0 25 607 1
1485 2 2 0 0 3 34 2
1486 2 2 0 0 34 415 2
$EndElements
