$MeshFormat
2.2 0 8
$EndMeshFormat
$Nodes
745
1 6.0901181267189137e-05 1.9587673573878735e-05 9.7234881379050877e-04
2 8.4243845589751254e-05 -6.6747663719008115e-05 -9.6838192297500213e-04
3 1.2590139092171404e-04 3.8313493386235781e-05 -9.6420812038898994e-04
4 2.2560831046735357e-04 4.2428398090023153e-05 -9.4837908087285535e-04
5 3.6612868114650347e-04 4.0038688345046034e-05 -9.0735630462681683e-04
6 5.0183422180885031e-04 -3.8614409365127559e-06 -8.4521726345825900e-04
7 6.3520582380714491e-04 -1.1860474250219750e-05 -7.5792724175533963e-04
8 7.3608456011666423e-04 -1.3326603818771295e-05 -6.6853817958883587e-04
9 8.2849188684413848e-04 -1.1015395687305580e-05 -5.6055101622463845e-04
10 9.0764931243526761e-04 -5.0894778540547679e-06 -4.3405600819046246e-04
11 9.6707728191718295e-04 4.7430164101776789e-06 -2.9408525497606806e-04
12 1.0026203106197899e-03 3.6103456554183586e-06 -1.4995327727535668e-04
13 1.0147348187833775e-03 1.0477417218859526e-05 -6.8379170342578097e-06
14 1.0044000034826151e-03 1.0613976039476019e-05 1.3753131434318341e-04
15 9.7090393497825580e-04 6.1946421588338232e-06 2.8212520433765784e-04
16 9.1309664383922115e-04 1.5329625682474573e-05 4.2349246045306058e-04
17 8.4013238228376611e-04 3.6203280161697249e-06 5.4453726407420325e-04
18 7.4217026668716129e-04 -7.7929792140361835e-06 6.6263572650987295e-04
19 6.3315607326868621e-04 -1.9415983880619596e-07 7.5990710558495266e-04
20 5.0513634932512395e-04 2.5830372567910230e-06 8.4372142128978558e-04
21 3.7400992424574213e-04 9.7899825415732562e-06 9.0487981989148124e-04
22 2.5332191591969744e-04 -8.2311763416123359e-06 9.4283345156427308e-04
23 1.5569393449163451e-04 -3.8306398177825119e-05 9.6107176437926483e-04
24 1.5819892702919789e-04 1.5304033594008566e-04 -9.5041782259464957e-04
25 1.5936661149209652e-04 9.5024830772947130e-05 9.5799837361197431e-04
26 5.8899645216269113e-04 8.7806304096558853e-05 -7.8654271262930647e-04
27 5.6346806260169967e-04 -1.0749639162673261e-04 8.0224544090192569e-04
28 9.8383554399478603e-04 1.2608888024005660e-04 -2.0487182363415998e-04
29 8.6194635019381995e-04 1.5316091023995565e-04 4.9251306737461671e-04
30 9.4076834298623189e-04 -1.1351600431735386e-04 3.4727815435115579e-04
31 9.7950944449183585e-04 -1.1354008838263917e-04 -2.2908652514382679e-04
32 5.5049027060017448e-04 -1.1788888699377385e-04 -8.0905800273344062e-04
33 5.6184384201852459e-04 1.0194151531038669e-04 8.0375135873715490e-04
34 1.2658138925774646e-04 -9.1895191523334017e-05 -9.6286540088519616e-04
35 2.1332809067103981e-04 -1.1384913660636175e-04 9.4564720637648034e-04
36 7.8668648186517882e-04 -1.3010814990281586e-04 6.0078485805398749e-04
37 7.8872998350749480e-04 1.1469019920599695e-04 -6.0081012392721258e-04
38 1.0069178623567140e-03 -9.9907842163931572e-05 7.0497695910426737e-05
39 9.8400636186944624e-04 1.2176766786590639e-04 2.0587315852270026e-04
40 8.6047096779602648e-04 -1.2962251182688990e-04 -4.9961251996618618e-04
41 2.8859229034831755e-04 1.6004638734296161e-04 -9.2018844331383557e-04
42 2.3036852463738448e-04 2.5391080458259118e-04 -9.1560227938172138e-04
43 3.2919020692012327e-04 2.6908952604763451e-04 -8.8272522094410590e-04
44 2.8836234451957006e-04 1.1118433141755698e-04 9.2744756439147862e-04
45 7.0206193050954076e-04 1.0413368036707880e-04 -6.9400240873009793e-04
46 7.2584969535744760e-04 2.4265137437061589e-04 -6.3722921749378503e-04
47 2.7467011800525717e-04 3.6945842399547271e-04 -8.6623977672591306e-04
48 3.9363611587525687e-04 3.6865718653124178e-04 -8.2281920691671436e-04
49 3.3500973734908955e-04 4.6626207019244165e-04 -8.0078649752573778e-04
50 8.1505340436007032e-04 2.4958868308897327e-04 -5.2628995590507383e-04
51 7.3456382237230050e-04 3.7304835046410469e-04 -5.6629253101938377e-04
52 8.1816630371655944e-04 3.7736594859383261e-04 -4.4550827158605438e-04
53 7.3990734919878213e-04 4.9117282064605123e-04 -4.6853460614366293e-04
54 8.1006661625168501e-04 4.8926619977476414e-04 -3.4848181359556639e-04
55 7.2715157367312841e-04 5.9756635218787782e-04 -3.6107740868657597e-04
56 7.9057727440370331e-04 5.8426541687204615e-04 -2.3849941404060248e-04
57 6.4870982341744949e-04 5.9746480863618831e-04 -4.7860759710812909e-04
58 6.2297702281587011e-04 6.9708771197080717e-04 -3.7549340254126157e-04
59 5.3389348008020228e-04 6.9229030312640595e-04 -4.9122796085461539e-04
60 5.0175102754212368e-04 7.7962262227492364e-04 -3.9254182795169212e-04
61 4.0389987474748559e-04 7.6839759991213341e-04 -5.0145612474029823e-04
62 3.6704920823173068e-04 8.4884410832804008e-04 -3.9732785676123233e-04
63 2.1227965127916358e-04 4.7676441072365319e-04 -8.3314449620882052e-04
64 4.6324003296633638e-04 8.4910123140171138e-04 -2.8975099386202157e-04
65 2.6010895151358857e-04 8.3086012164382294e-04 -4.9721214230764171e-04
66 2.3169753298120998e-04 9.0447827151466981e-04 -3.7764770563886683e-04
67 1.1952196031318757e-04 8.7706601582422888e-04 -4.7279746689317951e-04
68 1.1315295015817171e-04 2.5565936052297929e-04 -9.3517651925871883e-04
69 1.4974976599579429e-04 7.8029851885860757e-04 -6.0380333613321781e-04
70 8.6729873698964375e-04 4.7148548907075764e-04 -2.2194846154372183e-04
71 8.4500056302812244e-04 5.4933490828499719e-04 -1.1102505233012923e-04
72 7.5370265767377902e-04 6.6574398089322179e-04 -1.2715988018963985e-04
73 7.9173174298051701e-04 6.3440208537080477e-04 -3.8588083644732861e-06
74 6.8965809889049898e-04 7.4366662205495716e-04 -1.7784578625159296e-05
75 7.0950814157217626e-04 7.1822809196782377e-04 9.3546043686967389e-05
76 6.0518092927771313e-04 8.0879321227079028e-04 8.7793623809095773e-05
77 6.2567299631400110e-04 7.6798050874572559e-04 2.0858202791931412e-04
78 5.0733411692059031e-04 8.5473949441786741e-04 1.9306774501456545e-04
79 9.7030771442888409e-05 9.4312985567146024e-04 -3.4302179948560223e-04
80 -1.5625301023321409e-05 9.0440050216099668e-04 -4.3723136048312800e-04
81 2.2085138262628614e-04 2.1457453160286078e-04 9.2775174943908684e-04
82 5.3583829682963061e-04 7.9016949862446774e-04 3.2830934466264222e-04
83 -3.8398216154522010e-05 9.5620045428739474e-04 -3.1887930193360610e-04
84 4.0553012872522994e-04 8.7797271780323013e-04 2.9210481864973861e-04
85 4.3160834309544110e-04 8.0666787199105213e-04 4.1895331032393740e-04
86 2.9086109262133541e-04 8.8344865731505439e-04 3.8664789292698409e-04
87 3.0452239399948711e-04 8.1166220319797569e-04 5.0303260615470959e-04
88 1.7415201795922803e-04 8.6731333670475878e-04 4.7418780521311281e-04
89 1.6128026986770362e-04 9.3028283676169124e-04 3.5381973557136603e-04
90 4.7628936457954901e-05 9.0602421257959679e-04 4.3297980298269347e-04
91 6.1001674478329437e-05 8.2822895751278876e-04 5.5656855248971361e-04
92 -6.3731639771439754e-05 8.6504636152688358e-04 5.0181998328044169e-04
93 -8.2426974437277734e-05 9.2844267590485208e-04 3.8129040050251213e-04
94 -1.9871962543385871e-04 8.7358212711280588e-04 4.5350664197043444e-04
95 -1.5437148075841573e-04 8.1356596348004567e-04 5.5816937232334627e-04
96 -2.2644955646760595e-04 9.2475818447447435e-04 3.3288736653376100e-04
97 9.7905591071607137e-05 2.3404562993842220e-04 9.4272800161453348e-04
98 5.5020861151556849e-04 6.9930421700701033e-04 4.6830065130773095e-04
99 1.6623295721605120e-04 3.3841029047504471e-04 9.0359491987693794e-04
100 3.3745067330177068e-05 3.4238324803435584e-04 9.1558245955380448e-04
101 -3.1353372721026158e-05 2.3929874848936861e-04 9.4555908379596702e-04
102 -9.9385852600609171e-05 3.3926901689172501e-04 9.1221619687024069e-04
103 2.0821367858095689e-04 9.5819040606007872e-04 -2.4606929978158819e-04
104 -1.0781982838266497e-04 9.7061572406072997e-04 2.6029387794009430e-04
105 -2.5510026210161089e-04 9.5755390253008505e-04 2.0480966090011331e-04
106 -3.6765108496314989e-04 8.9626280259928672e-04 2.8566007101170186e-04
107 -1.5384625335135865e-04 9.0885851115264887e-04 -4.0280923024657063e-04
108 -1.2969297899613019e-04 8.5030170154628507e-04 -5.1282229995506536e-04
109 -3.9189341673618520e-04 9.2080185448328866e-04 1.5500715746500984e-04
110 -2.6625613033019442e-04 8.4806092036265738e-04 -4.6585006514182018e-04
111 -2.4039540490504991e-04 7.7737214534610226e-04 -5.7837340508549214e-04
112 -3.6959374448461760e-04 7.6852740749332887e-04 -5.2421554585503237e-04
113 -3.3375458384239925e-04 6.8576626112746273e-04 -6.3927031263202698e-04
114 -4.6519106353111635e-04 6.6991512223430459e-04 -5.7606214554975748e-04
115 -4.2511281877587859e-04 5.7884962922053807e-04 -6.8525579064829766e-04
116 -4.9480514183126306e-04 7.4762501093262170e-04 -4.5245679663214871e-04
117 -2.8436603536762076e-04 9.0353080481665542e-04 -3.4488271061890592e-04
118 -2.9443725048499645e-04 7.8740315545697953e-04 5.4326145653546900e-04
119 7.2617148924783198e-04 6.7374459417744086e-04 2.0714886458147146e-04
120 -2.9198988396295902e-04 5.9287390169612169e-04 -7.3654277506896319e-04
121 -3.7821654690891585e-04 4.7864698522829949e-04 -7.7605824753571289e-04
122 -5.0185567934330627e-04 4.6380979831096191e-04 -7.1744445783211599e-04
123 -4.5175675334390103e-04 3.5957238554401057e-04 -7.9885040594916343e-04
124 -5.8577041818704131e-04 6.4351454761609242e-04 -4.9743484813497842e-04
125 -6.1123055542246913e-04 7.0974338759460191e-04 -3.7071726914158885e-04
126 -6.9531714798831137e-04 5.9973722444716412e-04 -4.1098102837109870e-04
127 -4.9637523691454524e-04 8.4881477159270535e-04 2.3580972023391354e-04
128 -5.6579822933439008e-04 3.4096234877225787e-04 -7.3684824405908535e-04
129 -5.1473591330992280e-04 2.3878545911994563e-04 -8.0544271143318696e-04
130 -6.2816472875978273e-04 2.1206689371904263e-04 -7.3483761704471200e-04
131 -5.7200692337282700e-04 1.1086140793168033e-04 -7.9542421401743917e-04
132 -6.8468151044079469e-04 8.5332988735235100e-05 -7.1182018167037389e-04
133 -6.1209865513153175e-04 -1.8838114908565344e-05 -7.7469837780239146e-04
134 -7.2168922732536011e-04 -4.1374298617087872e-05 -6.8135249862405457e-04
135 -6.3996879824369042e-04 -1.4949343439237374e-04 -7.4018953456925533e-04
136 -7.8935660665851949e-04 7.0540692996593662e-05 -6.0581834313018783e-04
137 -8.1777618620387826e-04 -5.8689119342397997e-05 -5.7139053552864483e-04
138 -8.7577248656198919e-04 4.3533385948540906e-05 -4.8739934119396806e-04
139 -8.9580419264630748e-04 -8.7899947476644606e-05 -4.4665440433770166e-04
140 -9.4231734936642785e-04 3.9187829651633973e-06 -3.5775158522423188e-04
141 -9.5278536411190636e-04 -1.2389786401346788e-04 -3.0996334761591220e-04
142 -9.8736634009570718e-04 -2.1627367244875150e-05 -2.1970988338388349e-04
143 -9.8634302463164718e-04 -1.5369735249106333e-04 -1.7095263758038742e-04
144 -1.0092642084589484e-03 -4.0967065124482910e-05 -8.5983686199133641e-05
145 -9.9818150000619043e-04 -1.7647386859555143e-04 -3.2591861077355754e-05
146 -1.0108716073089317e-03 -6.2449529384348489e-05 5.0362170378336334e-05
147 -9.8894058099232912e-04 -1.9399552643263842e-04 1.0902672661264212e-04
148 -9.6604654802313558e-04 -3.0828949332499333e-04 2.3106872931750364e-05
149 -9.4606036100049011e-04 -3.2305376944749905e-04 1.6402856298105919e-04
150 -9.5815026887318831e-04 -2.0398703594573590e-04 2.5084914471634772e-04
151 -9.0547636060761625e-04 -3.2810022016267792e-04 3.0404963036091145e-04
152 -9.0635318229179780e-04 -2.0464501422061315e-04 3.8876791994459466e-04
153 -8.4600028214250962e-04 -3.2149347131304849e-04 4.3780362511611421e-04
154 -8.9971455917512225e-04 -2.1954348072156387e-04 -3.9471861765373557e-04
155 -8.3392945800535117e-04 -2.0490242940856209e-04 5.1642782976334979e-04
156 -7.6455128623730397e-04 -3.1676389447631714e-04 5.6136171034607658e-04
157 -8.8728733033726476e-04 -8.2191010449265449e-05 4.6354026615688361e-04
158 -7.4260661893449386e-04 -2.0963861906182825e-04 6.3046066594939654e-04
159 -6.6417512096523233e-04 -3.1692218012161378e-04 6.6883091248421983e-04
160 -1.0110875826398000e-03 7.7249612272325347e-05 -2.8221757142378376e-06
161 -6.3279092214736882e-04 -2.0756318786122424e-04 7.3320667936201047e-04
162 -5.5007928511451943e-04 -3.1130851039671995e-04 7.6067643232386980e-04
163 -5.2846018285035835e-04 -1.2041663578723501e-04 -8.2185943855050676e-04
164 -5.4896421718506365e-04 -2.4833299024871314e-04 -7.8207451376374434e-04
165 -7.1473384724946801e-04 6.5549430277533557e-04 -2.8241334713886840e-04
166 -1.5491563707204019e-04 2.2454839202882599e-04 9.3765250221132068e-04
167 -2.2999920062771910e-04 3.2910034823390957e-04 8.9361303092208924e-04
168 -4.3262210775700354e-04 -2.1388729196197565e-04 -8.5555784711133231e-04
169 -4.5155163433762948e-04 -3.3652561117342806e-04 -8.0882745158867306e-04
170 -5.6285905300031613e-04 -3.7946613002445368e-04 -7.2226988287954854e-04
171 -4.5965025130658983e-04 -4.6585804027681447e-04 -7.4288489396822169e-04
172 -5.6331391029781170e-04 -5.0527032221049032e-04 -6.4715144546678770e-04
173 -4.4855310363111988e-04 -5.9290752287959915e-04 -6.6131628466954305e-04
174 -5.5344232564269566e-04 -6.1890719102146289e-04 -5.5797389108042128e-04
175 -4.3519031506997164e-04 -7.0367377748251146e-04 -5.6208431841492281e-04
176 -7.7167905691486426e-04 -4.2635221560997845e-04 4.7941177045869522e-04
177 -5.3030124081051384e-04 -7.2036870058276334e-04 -4.5748658981015997e-04
178 -4.1283998687354997e-04 -7.9786984629843843e-04 -4.5080719077227673e-04
179 -3.1368853692983209e-04 -7.7548349508557040e-04 -5.4920064609255599e-04
180 -2.8429093444799585e-04 -8.5931280507787122e-04 -4.3838144960041994e-04
181 -1.7933620641808154e-04 -8.2659071298447310e-04 -5.3611939706116872e-04
182 -1.4932217195989952e-04 -9.0168272267694086e-04 -4.2146628093682042e-04
183 -3.9182478686731216e-05 -8.5923889498307887e-04 -5.1565548241626357e-04
184 -1.0369145411135195e-05 -9.2848104671973181e-04 -3.9137362407943362e-04
185 -1.1174495150131184e-04 -9.6086376653255613e-04 -2.9290109969284922e-04
186 3.1006169817783568e-05 -9.7646610317850301e-04 -2.6186934112437378e-04
187 -5.9957896944144549e-05 -9.9806151381957213e-04 -1.6547579354039523e-04
188 7.8829272963408455e-05 -1.0020230149812455e-03 -1.3316473502931727e-04
189 -5.6321586287025320e-06 -1.0140625025735902e-03 -3.2689629027541838e-05
190 1.2307512462011845e-04 -1.0071348052334080e-03 7.6104491982180915e-06
191 3.8424086032730300e-05 -1.0076339839234574e-03 1.0747482188457042e-04
192 1.6996625571526395e-04 -9.8873928334750429e-04 1.4522790510392705e-04
193 7.2044082073916948e-05 -9.7903029349580154e-04 2.4546282229336985e-04
194 2.0897860247695726e-04 -9.8845938160203655e-04 -8.8159038501131937e-05
195 2.0813868895202576e-04 -9.4940792231974086e-04 2.7868609392892784e-04
196 1.0421580891441771e-04 -9.2885932478032598e-04 3.7777758192060441e-04
197 1.0880577062409429e-04 -8.7633933417584429e-04 -4.7982794870589862e-04
198 -8.8985587561093965e-05 -1.0077315375405596e-03 7.0411358511724675e-05
199 2.3912741127052808e-04 -8.9068273711045054e-04 4.0466461958370975e-04
200 3.4148503989346179e-04 -9.0217250783741266e-04 3.0114724212751626e-04
201 3.7010417153937554e-04 -8.3709537571243528e-04 4.1895187019924061e-04
202 1.3434763908688711e-04 -8.5767345621510615e-04 5.0272342794585004e-04
203 4.6922381769318877e-04 -8.3749031608296837e-04 3.1454157015801644e-04
204 -3.2768363985405411e-06 -8.8713757227651879e-04 4.7139526639979344e-04
205 2.6550331958486664e-05 -8.0499208971049850e-04 5.9108323021445227e-04
206 -9.1261572892913621e-04 -4.3580636165461355e-04 7.5716916741481208e-05
207 -8.0719294700289424e-05 -7.6549472789527707e-04 -6.3380457536072333e-04
208 -1.0904887180757928e-04 -8.2689933909014526e-04 5.5335261428130075e-04
209 -7.6456359313764128e-05 -7.3552883758226651e-04 6.6557967317759962e-04
210 4.8834272343806814e-04 -7.6479830047154046e-04 4.3439209445021531e-04
211 5.8382437039929754e-04 -7.5569964921686308e-04 3.2769174582955563e-04
212 -4.9761098818116320e-04 -8.0571643817750345e-04 -3.4714803080591877e-04
213 5.8054038504737684e-05 -7.0426207671642031e-04 6.9763765986476968e-04
214 -4.2786251882931505e-05 -6.2800066098889858e-04 7.6275595751917262e-04
215 -3.2822347907693653e-04 -2.9496091461555569e-04 -8.7616219188542085e-04
216 -2.1178457631997291e-04 -7.4825315485068061e-04 6.2412861315778534e-04
217 -2.4322514223489196e-04 -8.2980020033045915e-04 5.0803046220867804e-04
218 5.6691231750683249e-04 -8.1330782649792867e-04 2.0721125921204913e-04
219 6.7731771658033574e-04 -7.1922602088059803e-04 2.2220998734651419e-04
220 6.4818749767846175e-04 -7.7478225624259649e-04 9.4575865869340347e-05
221 -6.4149435898708024e-04 -6.3209447392159276e-04 -4.4607119104097815e-04
222 7.5107229684810586e-04 -6.7424159120823147e-04 1.0390707979333311e-04
223 7.0557748297053464e-04 -7.2917218135951447e-04 -2.6224272652709609e-05
224 -3.0959779263339246e-04 -1.7811764003226567e-04 -9.1086996352997675e-04
225 -9.6867289484118386e-04 1.0719925252603753e-04 -2.6648789167594601e-04
226 8.8611428547474941e-05 -5.9168003982592806e-04 7.8568590955582990e-04
227 -1.4699107663655597e-05 -5.1072058497367507e-04 8.4074427226394190e-04
228 -5.2029916312831684e-04 -1.8854368939044989e-04 8.1521273967438332e-04
229 -5.9571046667006365e-04 -9.1795438247241649e-05 7.8180423801757265e-04
230 6.7936549229746638e-04 -6.6170623591338743e-04 3.4492201098179794e-04
231 3.9176253086049373e-04 -7.5129552702797857e-04 5.3406084671025306e-04
232 5.1397107754795211e-04 -6.5468693588541552e-04 5.5679125396980499e-04
233 7.9688537436729931e-04 -6.2809690671714079e-04 -2.2351344935722539e-05
234 7.4295121491594132e-04 -6.7280462712101662e-04 -1.5281406697741597e-04
235 -3.9617535839075275e-04 2.5648017628073096e-04 -8.6050846813412354e-04
236 2.9571351415687535e-04 3.3173107399833869e-04 8.7481809514805336e-04
237 -4.2981204254322460e-04 -2.7985637527186533e-04 8.3947934099550469e-04
238 -8.3546607788286898e-04 1.9013364595460428e-04 -5.1996972706510952e-04
239 6.4501644895412073e-04 -7.6596210125698047e-04 -1.5859617376212770e-04
240 6.7900958953370652e-04 -6.9588925607551560e-04 -2.7889193387045956e-04
241 -5.7936574054906335e-04 -4.2980799018691498e-04 6.8339602979074004e-04
242 5.7341703557511122e-04 -7.8301926834856313e-04 -2.8427759830207974e-04
243 5.9939173681731800e-04 -7.0422436906207478e-04 -4.0037591495105558e-04
244 7.0403956930609895e-04 -6.0481341905432894e-04 -3.9313026629214252e-04
245 6.1660878027173691e-04 -6.0502155380691078e-04 -5.1004250298197188e-04
246 -1.9682745462967609e-04 -2.5612535590161141e-04 -9.2286640580260381e-04
247 8.3741843839575528e-04 -5.6342348156390623e-04 1.0328575451561277e-04
248 2.3028148565033281e-04 4.4747035831830401e-04 8.4459065878380549e-04
249 -4.1254319706828484e-04 -1.5938362967385782e-04 8.7585466795679851e-04
250 3.6174422811444720e-04 4.4174212693989817e-04 8.0375662160622177e-04
251 -2.0539438712297760e-04 -3.8563758519752150e-04 -8.7829425735223767e-04
252 -8.2794821552764817e-05 -3.4634141161464673e-04 -9.1177069139580140e-04
253 3.8364404273298288e-04 9.2322709007504886e-04 1.6274606150873581e-04
254 -6.2477564291967620e-04 7.5795706923674781e-04 -2.3926473773502882e-04
255 -7.2121466911918787e-04 6.9428901126427972e-04 -1.5187671813256026e-04
256 -8.0529886623176001e-04 5.8447788078978640e-04 -1.8565664635397411e-04
257 -7.9970800771769139e-04 6.2029118710463498e-04 -5.4275505060374455e-05
258 -3.7257645972739335e-05 4.4898994494624122e-04 8.7160548863279147e-04
259 -3.0772870016397997e-04 -2.4760191683767166e-04 8.9651931339268206e-04
260 -2.8769435174412375e-04 2.2029268073557704e-04 9.0890906699504597e-04
261 -3.6308517038007569e-04 3.1495334703202847e-04 8.5660159153317869e-04
262 -2.9358416465645909e-04 -1.2559084962127432e-04 9.2406119010150572e-04
263 -1.8980113010381934e-04 -2.1702739606530212e-04 9.3354671983338165e-04
264 -8.7652924552999144e-04 5.0246066768969079e-04 -8.0754056998582754e-05
265 -8.5680504604993078e-04 5.3833670988900776e-04 5.9109875026384608e-05
266 -3.3823150820401173e-04 -7.4153257761172531e-04 5.7836595731113527e-04
267 -3.6222218419618661e-04 -8.2092319597564922e-04 4.5260628563249306e-04
268 5.0564836341689026e-04 -6.9714538651339804e-04 -5.1396437166245949e-04
269 5.1422613376575477e-04 -5.9191216317195804e-04 -6.1698250095269303e-04
270 6.2110645583095855e-04 -4.9099084650223860e-04 -6.0797054454030932e-04
271 5.1190212430972284e-04 -4.7548456619240267e-04 -7.0520175081079540e-04
272 3.9937327103031875e-04 -5.6751667725741671e-04 -7.0951977867588336e-04
273 -3.0216553910775515e-04 4.2540722934024107e-04 8.3380106220068526e-04
274 -4.3212200674557904e-04 4.1424735749919178e-04 7.8464192861657435e-04
275 3.9144678229184664e-04 -4.5026258357708536e-04 -7.8687128026295051e-04
276 2.6812813807704743e-04 -5.3117266660319647e-04 -7.8801530918133915e-04
277 -3.2335563039416227e-04 -3.5948208075836820e-04 8.5521140500228229e-04
278 -1.4097836564612684e-04 9.9512083291056360e-04 1.2686098938491930e-04
279 8.2613812480632036e-04 -5.6939209934371278e-04 -1.4472758700273864e-04
280 -2.5758951875310023e-04 4.9023252194864680e-04 -8.1406325046476380e-04
281 -1.6171542792730109e-04 5.9377125247038638e-04 -7.7208293292252016e-04
282 8.8145570217675756e-04 5.0301981897845759e-04 3.2270081402434680e-05
283 1.0856849129236662e-04 -4.7432717205814933e-04 8.5414989514245269e-04
284 -1.0033840573435613e-03 4.9685614332730848e-05 1.3084571455573968e-04
285 -9.2240742389977854e-04 -4.1696945278149882e-04 -6.0760564825643445e-05
286 -8.5825016301484237e-04 -5.4065337641869254e-04 -1.3893618969392202e-05
287 -8.3941453543232318e-04 -5.5409377499057852e-04 1.2693405686864948e-04
288 -7.7957782316566914e-04 -6.4822261333655944e-04 3.5159163420115744e-05
289 -7.5186956414453226e-04 -6.5478766752983619e-04 1.7924349803405949e-04
290 -6.9063408797406627e-04 -7.3710750787470949e-04 8.9298412551602294e-05
291 -2.0099254048755745e-04 -9.7594133907281922e-04 -1.8351482761069630e-04
292 -2.7897946846247324e-04 -8.9424024906439804e-04 3.7297690089018007e-04
293 -3.3625756795456496e-04 -5.4550803562752697e-04 -7.5398947062919842e-04
294 -1.0315154695292005e-04 -4.8124697024557768e-04 -8.5160601760093880e-04
295 -4.9342197186755189e-04 2.9513902651885561e-04 8.0103000604105578e-04
296 -5.5760580712675494e-04 3.9659534838337279e-04 7.1709684113514490e-04
297 -8.7521828488519137e-04 4.6158754916749616e-04 -2.1201053293785032e-04
298 -6.1237131312301364e-04 2.7271218984139964e-04 7.2926442790192090e-04
299 -6.7135949424641469e-04 3.7316249060545271e-04 6.3410597862662455e-04
300 -6.0817634534027069e-04 4.9916624481449972e-04 6.1264248340786001e-04
301 -7.1527180567150875e-04 4.6472834461456169e-04 5.2494653458117391e-04
302 -7.7524863326992887e-04 3.3566498129494049e-04 5.3678943007633346e-04
303 -3.0775236245627696e-04 -6.5420522604073348e-04 6.8184121351084408e-04
304 -6.4072261727269686e-04 5.9012976959552240e-04 4.9699962735606058e-04
305 -8.1854018875155592e-04 4.0999350631779660e-04 4.1708685315018298e-04
306 2.1728689903258286e-04 -5.4676246307632458e-04 7.9269335653879113e-04
307 2.3513740674962954e-04 -4.2755440131303285e-04 8.5351314340916451e-04
308 3.4203780698270506e-04 -4.9587658141135636e-04 7.8302846158491716e-04
309 -4.4228106923133458e-04 -7.3668226745588600e-04 5.1512476360388287e-04
310 -8.6548990281998879e-04 2.8310450367803082e-04 4.2682480431352216e-04
311 -4.0729429439981198e-04 -8.6983191014914458e-04 3.1277219280078527e-04
312 -7.6974029067278693e-04 6.5357132511701906e-04 8.3219627413549531e-05
313 -8.5975595553616150e-04 -5.1460993552081855e-04 -1.5020453607525951e-04
314 -6.9169992815040968e-05 1.1479426630723786e-04 9.6571370420367800e-04
315 -8.9983345067465336e-04 3.4767576864465078e-04 2.9952432009770752e-04
316 -9.9272058364199638e-04 1.8674023565820212e-04 8.3021461777710908e-05
317 -1.0422910535211246e-04 7.7229813563355022e-04 -6.2000909493675868e-04
318 2.5915554580843329e-04 -4.0915494219189688e-04 -8.5505820053776902e-04
319 -7.0230524765643645e-04 -7.2994816890096874e-04 -5.3138268721890495e-05
320 -6.0733200834956489e-04 -8.1208984887356118e-04 7.1783719308064823e-06
321 -6.6344645805499350e-04 -4.1176018370731748e-04 -6.1997113350846533e-04
322 -8.2533242775212847e-05 -2.0950460506114694e-04 -9.4945265643394002e-04
323 5.2771230321963045e-04 -8.6282855426869003e-04 7.9952911493384564e-05
324 -6.2622087885187889e-04 7.8887574842131079e-04 -1.0774854296758674e-04
325 2.9051589381990457e-04 5.5230223462372904e-04 7.6613112783662895e-04
326 2.8273501615113397e-04 -6.4315681975901336e-04 -7.0153560890002316e-04
327 1.4638470087297234e-04 -6.0297747396156995e-04 -7.6981563249064057e-04
328 4.2075608309384847e-04 5.4191602719402376e-04 7.1555856360317567e-04
329 4.9101248303608594e-04 4.3606995371940713e-04 7.4066565362546956e-04
330 4.5319068128561556e-04 4.5357125610665373e-04 -7.5226486203899964e-04
331 7.3974578058773788e-06 9.9627346561808098e-04 1.7983485979609917e-04
332 -2.5339385176436891e-05 1.0122048958078479e-03 4.7037719709917819e-05
333 -1.6234683918301421e-04 1.0005627794156819e-03 -6.3101379317582694e-06
334 1.2198999832913711e-04 1.0021108583117102e-03 8.9834794208299692e-05
335 3.5207393992437472e-04 -3.6953669492922214e-04 8.4119910613882228e-04
336 4.5192903419842025e-04 -4.3269454483000502e-04 7.6555241477329001e-04
337 -8.1557501765380878e-04 1.9977738947018822e-04 5.4382266019132957e-04
338 -3.6763120080101627e-04 5.1682550299412286e-04 7.5800375979107363e-04
339 -1.2937121127037864e-04 4.8093738135998100e-04 -8.4654244710169371e-04
340 3.7503596251553702e-04 -3.2739258122336661e-04 -8.4782744788359642e-04
341 3.8066048431168653e-05 -2.8400924619155656e-04 -9.3404200388810018e-04
342 -9.4244325899612495e-04 3.6245661106683986e-04 -9.7876947679955529e-05
343 9.5129040038160894e-06 -3.8247357239238575e-04 9.0183924400709002e-04
344 -5.3060118943527596e-04 6.1513870021392069e-04 5.8111523976193068e-04
345 -5.5070808898621576e-04 7.0907642479101248e-04 4.5257515786700396e-04
346 -6.7000048906177125e-04 6.5338772610906910e-04 3.7336015147316007e-04
347 6.1974371190396608e-04 -3.6567220601851100e-04 -6.8543878635803654e-04
348 7.2171801404096662e-04 -3.7474454013198643e-04 -5.8129195612246869e-04
349 5.4190862369555973e-04 5.2229567223019879e-04 6.5110588231529149e-04
350 6.1405832972580288e-04 4.0786132173930228e-04 6.6719216072190089e-04
351 6.5961839952905518e-04 4.8806217665175794e-04 5.7081643064170625e-04
352 7.2616795907581074e-04 3.6184547902349580e-04 5.8291349587045538e-04
353 7.6386419339947325e-04 4.3724529715285761e-04 4.8275856306618630e-04
354 -6.5427523729847867e-04 -7.4019540695947341e-04 2.1991658707231536e-04
355 2.7015904089382767e-04 5.7090793909229714e-04 -7.5939608607327987e-04
356 1.3931172906987899e-04 5.7996581835544850e-04 -7.8550460045329344e-04
357 -6.7124850978153572e-04 3.1564645516921725e-04 -6.6133919364683125e-04
358 5.3726473504023264e-04 -8.4309302261879177e-04 -1.6694228350221514e-04
359 4.6092957422801838e-04 -8.5341699257875504e-04 -2.8565222034343041e-04
360 -8.3769602890682959e-04 4.7797523116378733e-04 2.9881776280692358e-04
361 -1.3756252635080507e-04 -5.4270061750387943e-04 8.1115641930055223e-04
362 -2.0874080595989302e-04 3.7901744964829255e-04 -8.7936257273771290e-04
363 -2.3790905845694240e-04 5.2654009392403699e-04 7.9860439843728746e-04
364 -5.2435488046499246e-04 8.4552522676601717e-04 -1.8520281426592794e-04
365 1.6451232200062374e-04 5.5793265706717120e-04 7.9639470895633631e-04
366 -3.8169733964417440e-04 -3.1769222056276118e-05 9.0119743506915872e-04
367 -7.0802112646651822e-04 -6.4909721539109446e-04 3.1186452418136636e-04
368 2.1751586945056476e-04 6.6903121754076616e-04 7.0044695608393280e-04
369 9.0225563836663540e-05 6.4201470463142460e-04 7.4623049026436769e-04
370 7.0682176642124380e-04 -2.4919388966324741e-04 -6.5521635450263072e-04
371 -5.3880914560078968e-04 1.7213005437719656e-04 8.0724709323384423e-04
372 -6.5790656683354547e-04 1.2566903413151846e-04 7.3036436596250526e-04
373 5.7552872385408351e-04 8.3424621663741110e-04 -3.7144460376051058e-05
374 -1.6325331350767303e-04 -8.4332154838431226e-05 9.5793924850628217e-04
375 -7.4428148904268106e-05 -1.7417103465469696e-04 9.5679767917659279e-04
376 -3.1471002708204424e-04 -9.3327734169810215e-04 2.3326275389824020e-04
377 -4.4546586461005849e-04 -8.9576179830487914e-04 1.6512350608367086e-04
378 -9.3783633328674515e-04 1.9497951984347991e-04 3.2071540841467790e-04
379 4.3811483227875413e-04 6.6018556477241285e-04 -6.0624456500756800e-04
380 1.6731094295799505e-04 -7.1184464982109201e-04 -6.7381626676014819e-04
381 2.8649270115688782e-04 -7.4396449552849254e-04 -6.0077659314956291e-04
382 -9.1314587783538227e-04 -3.8967720442513351e-04 -1.9719528951399153e-04
383 -8.4279451037104838e-04 -4.7643651770360080e-04 -2.8816644269655901e-04
384 -7.8408006575870137e-04 -5.8651041490571790e-04 -2.5287278679264879e-04
385 -1.7787901979782523e-04 -9.5040140649414067e-04 2.9423731289466594e-04
386 -6.6221399540249235e-04 5.2984765766315328e-04 -5.3125872667523068e-04
387 -7.6425096548873893e-04 4.7662683941601062e-04 -4.4494314958728115e-04
388 8.8751048193341970e-04 2.5209913290803412e-04 -4.0344134789885365e-04
389 -9.1813617352997550e-04 3.3591925303906730e-04 -2.5659855941107868e-04
390 -5.2422572678639313e-04 8.6613362293382014e-04 -4.6222635456016344e-05
391 -4.1712387795326541e-04 9.1484064107520539e-04 -1.2322573484243354e-04
392 -6.0869033736415284e-04 8.0966177924780142e-04 2.7557039368853230e-05
393 -5.9899258423891659e-04 -8.0705869012963739e-04 -1.3045798685990291e-04
394 -5.0744637281137297e-04 -8.7498345201860936e-04 -6.8487872555684387e-05
395 8.0447099919648914e-05 1.0093251224020691e-03 -4.5683580751236919e-05
396 2.2190340530836504e-04 9.8921378900164577e-04 -8.9808183417252423e-06
397 5.2101092366200932e-04 3.2807549678911065e-04 -7.7259539586896093e-04
398 2.5651277876126286e-04 -3.0254177453878421e-04 8.9609284758321956e-04
399 3.7575632873736018e-04 -2.3289160133700020e-04 8.7667041131513307e-04
400 -2.8182245111643120e-04 6.2264055583967771e-04 7.1712593070626704e-04
401 -1.7066781773257029e-04 6.2155564250428435e-04 7.4905083409661320e-04
402 3.1538614180859765e-04 -6.0751094803834240e-04 7.1770685285980408e-04
403 6.6254702956661607e-04 2.8336355224095421e-04 6.8366864911178354e-04
404 6.8381744029310046e-04 5.8405228460685246e-04 4.5097695177210027e-04
405 -3.2007975367823410e-04 -9.5772938738749387e-04 9.3319024962205770e-05
406 2.5455073761306794e-04 -2.9097922562559641e-04 -8.9961288311248076e-04
407 3.4028975057650115e-04 -2.0199062101028083e-04 -8.9609325291893746e-04
408 8.9924061700496737e-05 4.6193087166007907e-04 -8.6095453591814605e-04
409 -9.0188377300413577e-04 4.3167983745068229e-04 1.6597663007166427e-04
410 -4.7282171870917177e-04 8.1267495940972202e-04 3.6261060506623347e-04
411 5.5194021627018048e-04 4.3788379694726450e-04 -6.9731016048251760e-04
412 4.6412327526341795e-04 6.4045018795482259e-04 6.0891155362745710e-04
413 8.1973828302180172e-04 3.0704703882259305e-04 4.9083988896534455e-04
414 8.5128051090538890e-04 3.7199139673391884e-04 3.8961498282805417e-04
415 5.0735305896952247e-05 -1.7711672693566309e-04 -9.5737537678707452e-04
416 -9.8880535601839699e-04 2.2016889206770044e-04 -4.4650954395723694e-05
417 -9.2967348479607332e-05 3.5100723226126883e-04 -9.0792526459302313e-04
418 -1.4531215413519699e-04 2.5640949728413377e-04 -9.3116157278638886e-04
419 4.4915510779194954e-05 1.6546978620641774e-04 -9.5849742187118078e-04
420 -5.6574689731221252e-05 -8.4705263763926576e-05 -9.6901985409474046e-04
421 -9.5902959931079795e-04 3.2465615521942048e-04 5.5570826184644080e-05
422 8.0130608224518722e-04 -2.5274714057591945e-04 -5.4473194972936927e-04
423 8.0703470781759911e-04 -3.7493344853678777e-04 -4.6695361963830848e-04
424 2.5603799289031752e-04 9.7302680453786069e-04 1.2064549802934645e-04
425 2.8154899508883081e-05 -6.7931452141231446e-04 -7.2272054527229459e-04
426 2.4567359318247584e-05 -5.4865618565523838e-04 -8.1847001173386861e-04
427 -8.0279255714130597e-05 -5.9956194892515414e-04 -7.8043464667310329e-04
428 4.1982812002572874e-04 -9.0639895971137796e-04 -1.6978223697833883e-04
429 3.2789460191023917e-04 -9.1607926488732180e-04 -2.7517533157447947e-04
430 3.6350171477080679e-04 -8.5445042145793570e-04 -3.9163851205529523e-04
431 -6.0330272578831758e-04 -7.3417572697399174e-04 3.3857117638440987e-04
432 -6.4179042484267237e-04 -6.3362132389712094e-04 4.4500978335931959e-04
433 1.4116888938397383e-04 -3.5138712261938263e-04 -9.0307683129531801e-04
434 -8.4914991992190106e-06 5.6504860408704077e-04 -8.0756285219936257e-04
435 7.9649583793048851e-05 6.7640209261512400e-04 -7.1914956345059237e-04
436 8.9730118619457525e-04 2.5641853242475338e-04 3.8044416950023494e-04
437 9.1783167191102901e-04 3.3048763422638253e-04 2.6614039492709948e-04
438 8.6372055793470571e-04 4.4195296913529107e-04 2.8210529641553312e-04
439 7.6356442439999203e-04 2.2854070577505697e-04 6.0109175444183224e-04
440 -5.9054597684718240e-04 7.5853654474549066e-04 3.0874119453893749e-04
441 -7.0200152895717261e-04 6.9452898040923462e-04 2.2195865268500971e-04
442 6.8114176467296689e-04 -1.2496005680894261e-04 7.1068535284797096e-04
443 7.2203263818351575e-04 -2.4385643807023211e-04 6.4162384866982866e-04
444 8.1676880530338490e-04 -2.4607799748599027e-04 5.2570951203712913e-04
445 7.5127250325133219e-04 -3.5641139548851488e-04 5.5627317539633074e-04
446 8.3200552134053978e-04 -3.6082054213066862e-04 4.3508741940939005e-04
447 7.5481614457258682e-04 -4.7113958366378850e-04 4.6602566063840445e-04
448 6.6931073248219512e-04 -4.6290895109790789e-04 5.7977068097979411e-04
449 8.2070899554042545e-04 -4.8183985737125458e-04 3.3649229612330662e-04
450 8.9245124123008880e-04 -3.6045727478149038e-04 3.0707557704337876e-04
451 6.5750008159095772e-04 -5.8468368480507334e-04 4.8457470470536057e-04
452 6.8640060874248577e-04 1.3150161500034878e-04 7.0536942209461237e-04
453 -5.7744719303532484e-04 -8.2124569424812163e-04 1.3804971192510085e-04
454 2.2985565261426389e-05 -4.1811375287059395e-04 -8.8687712171173628e-04
455 9.1563345049592670e-04 4.0800285871881136e-04 1.4972512935325171e-04
456 4.7251784700922289e-04 -2.2505126590320517e-04 -8.3355041741218355e-04
457 5.1160908523266923e-04 5.3835509464270385e-04 -6.6053279688382837e-04
458 6.0008352886838404e-04 -2.4056374109742606e-04 7.5021352655956668e-04
459 1.4792673174839722e-04 9.7711143807720463e-04 2.1698978081453014e-04
460 6.5011578263503105e-04 6.9387987082486036e-04 3.3812204434602593e-04
461 3.9556574053172081e-04 5.5806500144793992e-04 -7.1644828825374429e-04
462 -4.3162821823692997e-04 7.0663256666561613e-04 5.5978172408391845e-04
463 7.7129569802253080e-04 -1.2873924348081971e-04 -6.1915286640643454e-04
464 8.7848051622255435e-04 -2.5063651091124082e-04 -4.2286318769300301e-04
465 8.7768744391108751e-04 -3.6672370707963384e-04 -3.3854548045302165e-04
466 8.2550897319836874e-06 8.3053391875023230e-04 -5.5567255957210166e-04
467 9.3781518244362633e-04 -2.4123836878173419e-04 -2.9010911811838989e-04
468 9.2982258161846353e-04 -3.5472135670899465e-04 -1.9302620361036482e-04
469 1.6565646704221743e-04 3.6386849688792343e-04 -8.9366884436997305e-04
470 8.6866144800930788e-04 -4.7666598222566525e-04 2.1023815912178524e-04
471 9.3359857905815061e-04 -3.4994785697677766e-04 1.7990040823866185e-04
472 1.9267309518213960e-04 7.8062924601091956e-04 5.9143957407818302e-04
473 1.4531976524667726e-04 -2.2057049521556813e-04 -9.3998197093943410e-04
474 2.3063084259696768e-04 -9.0655009737882495e-04 -3.7618939657578710e-04
475 5.8507925067526447e-04 7.7758043265915009e-04 -2.7237261962019554e-04
476 3.2771018342887511e-04 7.1986546350850565e-04 6.0730955068114348e-04
477 3.0159063863411051e-04 7.3851776157186097e-04 -5.9875361120852232e-04
478 -1.9561930903883750e-04 -5.6954495211357543e-04 -7.8198405069607744e-04
479 -1.7582277618918214e-04 -6.7228977429423004e-04 -7.0813236411521280e-04
480 -3.9331763422915191e-04 8.3559982890568565e-04 -3.9950617143765855e-04
481 2.1169325649290568e-04 6.7399586353492384e-04 -6.9595597107907062e-04
482 7.7977802179812370e-04 -6.0135197868521671e-04 2.3813522864223269e-04
483 9.0876918686638231e-04 -4.4365597979640676e-04 8.0658961130521605e-05
484 9.5896012168080174e-04 -3.2605725156565713e-04 5.3887566558513430e-05
485 5.9710975151247288e-04 -2.4096848447859362e-04 -7.5153699079064421e-04
486 3.8992421825345441e-04 1.8122111338178117e-04 -8.8063965644684654e-04
487 1.0048156320569791e-03 1.2151135377914587e-04 -6.8686430243559081e-05
488 9.7205694799454322e-04 2.6587716036584140e-04 -1.1871383401754640e-04
489 9.8822973790913698e-04 2.2642880976321203e-04 4.1565263659596982e-06
490 9.1842924769472846e-04 4.1899888672894571e-04 -9.7274600059345465e-05
491 3.5840303098900306e-04 9.4855073899965860e-04 1.7337545777114990e-05
492 3.1022653812436720e-04 9.5669915199085391e-04 -1.2731043297980617e-04
493 4.5024507181757088e-04 9.0530198103230895e-04 -7.3266200679388444e-05
494 9.3126014117523724e-04 -3.9959094890851807e-04 -4.9021841627533857e-05
495 9.7483217809274467e-04 -2.7124913115676762e-04 -7.0294127137714285e-05
496 -4.1050806877532362e-04 9.2674407883379622e-04 1.6678038875209165e-05
497 1.0046191385253565e-03 1.2159380878460132e-04 7.0722195924200059e-05
498 6.9570191114133638e-04 6.8851736586990570e-04 -2.5372249308334315e-04
499 1.0046954964188562e-03 -1.2303423370451267e-04 -7.5666116554981151e-05
500 9.8542695275983107e-04 -1.0751918864751366e-04 2.0691077160901112e-04
501 9.3070055980522151e-04 -1.2450761755417082e-04 -3.6822542700492086e-04
502 8.6945681771838455e-04 1.2097046379060500e-04 -4.8680758692657620e-04
503 8.7434343656481661e-04 -1.2200665845722367e-04 4.7871028298018006e-04
504 4.2515073160814739e-04 1.1054916004627491e-04 8.7719610897550094e-04
505 4.2713740444463806e-04 3.3769406231361416e-04 8.2053538073281849e-04
506 6.5427267052613994e-04 -3.5160259831335623e-04 6.6171305166258802e-04
507 3.2917855123128974e-04 -9.7193499459247807e-05 9.1610022409071873e-04
508 6.4832269742064343e-05 -1.2534411997688043e-04 9.6500429707724550e-04
509 1.7376520104815804e-04 -2.1826406657482662e-04 9.3621186111479302e-04
510 2.8192632610773646e-04 -1.8446434795788425e-04 9.1761802134924684e-04
511 -2.0012916275286054e-04 6.9182719337691333e-04 -6.8305609440905623e-04
512 2.7569702194284320e-04 9.3578354865099284e-04 2.6477705827121397e-04
513 5.9667650059810505e-04 -8.2007187111545691e-04 -3.7232779430036435e-05
514 2.5654750095329841e-04 -9.8058694839936065e-04 4.2930678872511107e-05
515 3.0489148445268403e-04 -9.5050285719556907e-04 1.7421565261335840e-04
516 -5.5019501746819558e-04 5.5903129701005455e-04 -6.1472478373879227e-04
517 7.7457360775209797e-04 -5.9113425299326696e-04 -2.7175278492774443e-04
518 -1.4284641894832142e-04 -1.0023937795963487e-03 -6.1107091713859959e-05
519 -2.9104607877380756e-04 -9.7058079918054950e-04 -5.9590679304290184e-05
520 -3.3565684409202554e-04 -9.3417591383500071e-04 -2.0064031752675131e-04
521 -7.9299656309040842e-04 5.3803937547041271e-04 -3.1655613525063671e-04
522 -1.0000567032931020e-03 9.5970343884952663e-05 -1.3102627284280666e-04
523 8.0141263570764119e-04 6.1047596733359037e-04 1.1146040417984890e-04
524 -8.0089097751398757e-04 -5.5684680633475152e-04 2.6633075188793565e-04
525 7.9030265891645774e-04 4.9781243541380010e-04 3.7783225840412339e-04
526 4.8551670036733370e-04 -7.8658667008584936e-04 -4.0100869804504858e-04
527 -9.6519395483782300e-04 -2.8690293078938574e-04 -1.1578960939774947e-04
528 -9.4910246668330946e-04 -8.1586623200734129e-05 3.3278399950074179e-04
529 -9.2356350565399119e-04 4.7245484390017557e-05 3.9843772972316917e-04
530 -8.4557958257567819e-04 4.7356830103384893e-05 5.3507354834271396e-04
531 -7.8804515897507390e-04 -6.2832445917075967e-04 -1.1065925883820961e-04
532 -9.9092820631169068e-04 -7.6432999337239008e-05 1.9271987855576766e-04
533 -7.4760642911442666e-04 5.3294050533573395e-04 4.1126640399489502e-04
534 -7.0794179902807473e-04 7.2460518779525300e-04 -2.3423432338597363e-05
535 -2.4576645199098199e-04 -9.2835963484303309e-04 -3.1304059554682529e-04
536 6.4907504430934649e-04 7.6473697693573426e-04 -1.4353756995052943e-04
537 -1.4241617434935068e-04 -8.9956402886622760e-04 4.2803354241672961e-04
538 -4.7209883980134719e-05 1.0079557464318400e-03 -9.0441704779647156e-05
539 -1.7642896929052497e-04 9.5438062407576698e-04 -2.7854925165877618e-04
540 6.1921509072056176e-05 9.9008274109161905e-04 -2.0230882949444180e-04
541 -9.5491007792142181e-04 2.8067630618037456e-04 1.8583328451818011e-04
542 -8.8239728705965192e-04 -4.4614481616225550e-04 2.1672070260219693e-04
543 -8.0564161492112894e-04 -9.0747795077391095e-05 5.8340706732884658e-04
544 -7.4680558535049379e-04 2.1291726798753613e-05 6.5654653758158215e-04
545 -6.5994866809201426e-04 -5.3029282115735015e-04 -5.3492806048930784e-04
546 -7.4684521566489523e-04 -4.3616735238532817e-04 -5.0667973579413082e-04
547 -7.5169806734029802e-04 -3.1504289521183920e-04 -5.7777981588539326e-04
548 -6.5825085453863645e-04 -2.8396206949374010e-04 -6.8730419618223530e-04
549 2.6715473476246005e-04 -8.1268853616655841e-04 5.2202498679410211e-04
550 5.8286415788076445e-04 5.9005696887033286e-04 5.5781169896240875e-04
551 8.8105166404015499e-04 3.7174031409959260e-04 -3.2278076356640693e-04
552 8.9247342372543383e-04 -2.4166134599916988e-04 3.9965851388189266e-04
553 1.5975363137841640e-04 -7.6834851338388908e-04 6.1592031242399146e-04
554 -4.4749212717803342e-04 -6.3536194085834119e-04 6.2533824443633719e-04
555 -3.8745341268910810e-04 -5.4533870530653619e-04 7.3056938387968653e-04
556 -8.3489885763470960e-04 -4.4169734209045732e-04 3.5328857280964536e-04
557 -6.1313418257252816e-04 -7.2481278994952021e-04 -3.4064459338354789e-04
558 -7.1890200142763361e-04 2.4465440211613625e-04 6.4352077420370567e-04
559 -6.8360541321786802e-04 -4.2646223553274897e-04 5.8989849328382833e-04
560 -5.9068549612437224e-04 -5.5577833439527399e-04 5.8444249121872554e-04
561 6.4056174768485955e-04 4.8629522469964450e-04 -5.9221903765674692e-04
562 -3.2462176097847954e-04 -6.7187038610711620e-04 -6.5881242144724672e-04
563 -4.9204203928812672e-04 5.1479747419972278e-04 6.9139304935827344e-04
564 7.1674677670615315e-04 -4.9659537161098370e-04 -4.9716938248454165e-04
565 -7.8897282720282109e-05 -3.0000571815069809e-04 9.2712188573449469e-04
566 -1.0965054285601537e-04 -4.2788292608205000e-04 8.7614051317096500e-04
567 -2.0264801915134949e-04 -3.3535370549077023e-04 8.9773105490299613e-04
568 -1.7486726672368512e-04 -6.5277100056705456e-04 7.2511025117907087e-04
569 4.0071113903152771e-04 -6.7505144373953749e-04 -6.1578081800669592e-04
570 -7.0573718583281020e-04 -1.0499913546843427e-04 6.9025115140397520e-04
571 5.4961177979986247e-04 3.2119259698641618e-04 7.5651151976703526e-04
572 5.0473527291615286e-04 -3.5048589412718634e-04 -7.7403737637120817e-04
573 1.2877668755077588e-04 -3.4850526583323215e-04 9.0614744140805187e-04
574 -7.3734457582041925e-04 1.9342141289780315e-04 -6.3986119261259192e-04
575 1.3743860542977322e-04 -4.8173451488985140e-04 -8.4643105073211407e-04
576 -4.4920698384566608e-04 -4.1430424893375739e-04 7.7697329981086117e-04
577 -3.3339929191550399e-04 3.7298397945674121e-04 -8.4553401540164263e-04
578 -2.6651567135605229e-04 2.7285681841680831e-04 -9.0119535787407221e-04
579 -3.2899916126992836e-04 1.5584744018377946e-04 -9.0778149703416499e-04
580 -4.9925023471141612e-04 6.7745194808270536e-06 -8.4634950160435510e-04
581 4.5577258176516096e-04 -5.5725227043982586e-04 6.8606899884878013e-04
582 4.6962503882424882e-04 -3.0971770403416949e-04 8.0947627661846050e-04
583 -4.5478087678113642e-04 1.3555572788271904e-04 -8.5925600008662252e-04
584 -4.1608712851387591e-04 1.9537553245379123e-04 8.6728008070829877e-04
585 -4.5476869686904894e-04 7.7799995487822253e-05 8.6646101666261791e-04
586 -3.4344422253863410e-04 -4.1445982634379384e-04 -8.2427103060929094e-04
587 3.3191390784691344e-05 9.6141593025715817e-04 3.0645292087381484e-04
588 -4.1082815923323436e-04 -9.4122936235193421e-05 -8.8483783993113362e-04
589 -2.8124314692025106e-04 -5.3980854432976203e-05 -9.3364476409384112e-04
590 -1.8942889530366896e-04 -1.1368958107617892e-04 -9.5035554676295290e-04
591 -1.7123421280277788e-04 4.3717944147754609e-04 8.6220687542688313e-04
592 -5.1462557207586400e-04 8.0593062237055641e-04 -3.2158615839436875e-04
593 -2.6370172340911357e-04 -4.3962873790547020e-06 9.3980353084102772e-04
594 3.5509828252459322e-04 2.2561101536252556e-04 8.8556694496584782e-04
595 -8.1493558336563166e-04 5.7031283420108604e-04 1.8726617592188942e-04
596 4.3979714272879522e-04 -8.9204603765479222e-04 1.9291584334260809e-04
597 9.4850363612869335e-05 4.5416723140380779e-04 8.6513286104350376e-04
598 3.3471640664971692e-04 9.1319638228418024e-04 -2.7298368517324564e-04
599 1.8815755160037204e-04 -6.6072204209681538e-04 7.1550181202912071e-04
600 -5.3462305917128627e-04 -8.1930666322095787e-04 2.5640051783056532e-04
601 -8.5156989936343154e-04 4.1128137466636498e-04 -3.4928231276619469e-04
602 -8.1563053962329225e-04 3.4138336816367517e-04 -4.7410139673387648e-04
603 -7.4694430214539826e-04 -5.4216582609948097e-04 -4.0345046586368213e-04
604 -9.1317929921696150e-04 1.3191915970143684e-04 -4.0150121820126111e-04
605 -4.0996189794131074e-04 -9.2748789515633681e-04 1.8904496920308291e-05
606 -3.3508504234800558e-04 8.5478870615972454e-04 4.1081596492603900e-04
607 4.5345808362709778e-05 1.5364968332121304e-04 9.6092814141020397e-04
608 -4.7857025962995919e-05 7.7733470879926762e-04 6.2148085786590461e-04
609 -7.4320895544251371e-04 -1.7790611518213716e-04 -6.3849187298222387e-04
610 9.7134927631547521e-04 2.5953117926728029e-04 1.3573013871324714e-04
611 4.1656163747645782e-04 -8.9555834241195797e-05 -8.8334523428334750e-04
612 9.3735451702735121e-04 1.2850659778777275e-04 3.5061130079839918e-04
613 -3.7672534807217293e-04 -8.7727217278898962e-04 -3.2816986603858802e-04
614 5.7931546295233068e-05 -7.8885195649034160e-04 -6.0897510128309908e-04
615 4.7700797472278067e-04 -8.9415894679591005e-04 -4.9267831436383854e-05
616 -6.9396097524800819e-04 -7.0864813826858363e-04 -2.0567006906065569e-04
617 -9.4417977049387374e-04 -2.5721084096621963e-04 -2.5415456373878995e-04
618 -6.1695465382563888e-04 4.4125090254167369e-04 -6.4385058138067316e-04
619 1.8703805441589775e-04 -9.6611062333854046e-04 -2.3902935844089196e-04
620 -3.4991166224468297e-05 -9.4915219020788707e-04 3.4146650658506623e-04
621 3.8733546076547405e-04 -7.7385407283238935e-04 -5.0722585130069621e-04
622 -2.2823899787121539e-04 -4.5053339942144495e-04 8.4347707324315549e-04
623 7.9676993711664591e-04 -4.8874022848815742e-04 -3.7833400041851502e-04
624 9.3752305816916372e-04 1.2229490827762919e-04 -3.5229145058718694e-04
625 -4.1102247960075639e-04 6.1360678293275698e-04 6.6493239443555607e-04
626 -2.5895916979119587e-04 -5.6033329805310833e-04 7.7137405900956169e-04
627 -1.0993569250862391e-04 5.4572163171736070e-04 8.1263223670694385e-04
628 4.8434537524384968e-04 8.8864531176369795e-04 6.3334971906148661e-05
629 -9.7206179478555527e-04 4.7150660754579274e-05 2.7226746529308848e-04
630 -5.9792794191034719e-04 7.9903810366503019e-04 1.6945121140770218e-04
631 -8.2992868205836266e-04 -1.9560624672284622e-04 -5.2524952362120855e-04
632 -4.0948318070084061e-04 8.8466710079184037e-04 -2.6559427310602815e-04
633 9.4228478655254471e-04 2.4705720021867515e-04 -2.7060462671289515e-04
634 -3.3162057999755538e-04 9.4036154424512313e-05 9.1522889634705769e-04
635 3.9531313047509205e-04 -9.3197819369611424e-04 6.6424767127477697e-05
636 -6.2858479337773629e-05 -9.8918688223505863e-04 2.0687606870602518e-04
637 -4.9055250439415405e-04 -5.8765743399540166e-05 8.4967048972725741e-04
638 4.2308334747697730e-04 2.6625612180163077e-04 -8.4486731899756611e-04
639 4.4243279573808294e-04 -1.0316223737559912e-04 8.7008307346047372e-04
640 -6.2333709904174278e-05 6.7568255834194943e-04 -7.2103793245084928e-04
641 -9.6979364417708411e-04 2.3012623944660684e-04 -1.7711990221007704e-04
642 -8.8502780831564568e-04 2.7417054188660727e-04 -3.9333389644932801e-04
643 2.8531000084600175e-04 -7.1789756485852888e-04 6.2972870373919103e-04
644 5.6362758759100832e-04 -4.5395748219733079e-04 6.8082449049988128e-04
645 6.2184588361804830e-04 2.1585742190514514e-04 -7.3917190533376005e-04
646 -2.1103067698390033e-04 1.1964833930012794e-04 9.4509447197631291e-04
647 2.5252147582840596e-05 5.5478633314341025e-04 8.1358691514962019e-04
648 -7.6068152570287644e-04 5.8696512709321155e-04 3.0623441186042061e-04
649 -2.8149399172471825e-04 9.7105831247152794e-04 7.1880756280836387e-05
650 9.4635307156411123e-04 -2.3470123096539972e-04 2.6830590970880263e-04
651 -4.7367357098948999e-04 -8.6907686499430935e-04 -2.1486645065679001e-04
652 -8.8556542441599567e-04 -3.4878738125094139e-04 -3.3359663506746684e-04
653 -2.0337741060100087e-04 1.6556732180181771e-04 -9.4008905837420756e-04
654 8.5722293232100993e-04 -4.7600419559035482e-04 -2.5005473140732299e-04
655 -7.2006054009067933e-04 4.0914809499107015e-04 -5.5898494579943649e-04
656 6.6733695230620311e-04 -1.2469924855501729e-04 -7.2246414024611965e-04
657 -7.5006997498854250e-04 -5.4170680474966272e-04 3.9728605927668225e-04
658 -3.7673564006516347e-04 3.1605232132992583e-05 -9.0254884808534076e-04
659 -1.6778562696758526e-04 2.3026158739381251e-05 -9.6040230724467009e-04
660 -2.6819397658808279e-05 -1.8886203928146500e-05 -9.7278125340067288e-04
661 8.7211787020840344e-04 -5.1816533526932598e-04 -2.0430660947447834e-05
662 4.0699601894916040e-05 -2.5538166126425288e-04 9.4182048096218144e-04
663 5.3394772035693849e-04 8.4386399421376799e-04 -1.6724496576928251e-04
664 -2.9674887281876626e-04 9.6703018440347287e-04 -6.3782467064615032e-05
665 -3.0032422886897030e-04 9.4341073653740582e-04 -2.0769513079145377e-04
666 -6.9830998170217570e-05 1.2788671587685109e-04 -9.6390025984873092e-04
667 2.6102488039440267e-04 -8.3529990132081720e-04 -4.9129545050477052e-04
668 -5.6330179323726200e-04 4.2061298713162640e-05 8.0752202703415993e-04
669 -8.2962527434962869e-04 -3.2429071963870949e-04 -4.6311654058801247e-04
670 -5.0480270329718627e-04 8.7355364212843268e-04 9.2997572109728872e-05
671 -9.7948083266265239e-04 1.5229771693774059e-04 1.9994048274936331e-04
672 5.4987933057160533e-04 -3.5987304981458261e-04 7.3959749264513881e-04
673 -2.0613975984550316e-05 2.4466976917853097e-04 -9.4396248402283224e-04
674 -1.9950381039630864e-04 -9.7966658745946098e-04 1.6361432784457979e-04
675 4.2200986859083494e-04 7.3656692308203596e-04 5.2956427920648503e-04
676 7.3711414977518087e-05 7.3151174428360611e-04 6.6885199082583223e-04
677 4.8472054124630115e-04 2.1530596057721144e-04 8.2878398122790474e-04
678 -4.8289440673010884e-04 -7.9627129165069153e-04 3.8384154418797534e-04
679 2.6114807908217332e-04 -6.9780371844254877e-05 -9.3848501547425640e-04
680 3.9563820147570924e-04 -6.6082038078039257e-04 6.3131920400026956e-04
681 -8.8450789888848934e-04 1.5337840859871399e-04 4.4948463379288487e-04
682 -9.1622018346490975e-04 4.3165366236720410e-04 2.5888950904219471e-05
683 -7.3721104878728065e-05 1.6497215559740103e-05 9.7035244069528328e-04
684 3.4625114886099450e-04 -9.5177475853820291e-04 -5.5569552532839533e-05
685 4.2332655969072711e-04 8.9967635348004349e-04 -1.8459016398961650e-04
686 1.7766683135337345e-04 -7.9654088785887126e-04 -5.7578266359462429e-04
687 1.7638094665526594e-04 9.8845465075997254e-04 -1.2735527619443346e-04
688 -8.1470953340722361e-04 -4.3061466731553064e-04 -4.0230640469866348e-04
689 -5.3731924538453102e-04 -6.6013101487977504e-04 5.2604117924939906e-04
690 5.9190941680148271e-04 -6.8827176864038957e-04 4.3168315207283277e-04
691 9.7892478463863677e-04 -2.2119868010035982e-04 1.4084208819223001e-04
692 -6.9475529734887081e-04 -5.1689919424907930e-04 5.0369784436485668e-04
693 9.4935922029337923e-04 2.2095950312128528e-04 2.6613638300619278e-04
694 -1.8205864848519520e-04 9.8615663883505817e-04 -1.3970516133395697e-04
695 9.2353358535025441e-04 3.5677402166630967e-04 -2.0700276523213950e-04
696 -5.2419599939753693e-05 6.6303197974472644e-04 7.3439147573340128e-04
697 -3.3006003014221893e-04 -4.6643445094957092e-04 8.0248755096007016e-04
698 9.5034956968485470e-04 3.5578921270110035e-04 1.4640045704682400e-05
699 -4.9440366356885950e-04 -5.1786051625427292e-04 6.8744055967553280e-04
700 -6.5492839723626953e-04 -3.8509426961996005e-06 7.4083949864614789e-04
701 5.7538476251261833e-04 -5.4986368825016166e-04 6.0123072058807555e-04
702 -7.0313717053051880e-04 -6.4204952912223442e-04 -3.3134122786644297e-04
703 -7.6286021546148435e-04 2.9346227555410420e-04 -5.7228055143709953e-04
704 4.2772684112749593e-05 3.4087486360714550e-04 -9.1491462878432437e-04
705 3.2634285170661124e-04 6.4569547968486025e-04 -6.7859794239183207e-04
706 -3.1599580816869875e-04 6.9748213073785514e-04 6.3486448331579262e-04
707 1.1029410502893897e-04 -9.3757264158980766e-04 -3.5355224110610343e-04
708 -6.7912062833057102e-04 7.4424884952977203e-04 9.6737197383696470e-05
709 1.9215471521987516e-05 7.4679034497017211e-04 -6.5446079601203270e-04
710 -4.2374698698137311e-04 7.7591996611062197e-04 4.7290650056096067e-04
711 -9.3660177063397874e-04 2.1478775447906497e-04 -3.0567075496583542e-04
712 7.8400639588052960e-04 1.0347074039656598e-04 6.0725810022040951e-04
713 -2.1503543745992793e-04 -7.4434447902673145e-04 -6.2583558432065842e-04
714 6.3420736087862540e-04 3.5010548400109416e-04 -6.7978335439316823e-04
715 -2.0944118989290873e-04 -9.9062413754061394e-04 4.3172235409671377e-05
716 -2.6029961051664052e-04 6.8481498048149459e-05 -9.3755269979554359e-04
717 -4.0734955411659353e-04 -9.2159383797361938e-04 -1.0467960974102035e-04
718 4.8717531623071589e-04 -1.9978288361343483e-04 8.3080113388992632e-04
719 7.4506371302973716e-04 -5.6717230560924593e-04 3.7151817006522979e-04
720 8.5522097122364639e-04 5.1279310065072321e-04 1.7308534201449088e-04
721 2.1896820356643684e-04 -1.7137331848612558e-04 -9.3557584225246581e-04
722 -5.8070214006792752e-04 -7.8831283967087157e-04 -2.4959506676987579e-04
723 4.5293216081883751e-05 5.7964330602697063e-05 -9.7071904296927645e-04
724 -1.8603628653018911e-04 7.2184347322284980e-04 6.5899258441686707e-04
725 8.8932600066383375e-04 -4.6763787468693407e-04 -1.2954429137847050e-04
726 5.9031904527168024e-04 2.0883338145666336e-04 7.6356660706705171e-04
727 8.0383239880226452e-04 5.6182707913544796e-04 2.4633975678317610e-04
728 5.5880569184915457e-04 5.9686815265717398e-04 -5.7231221617588725e-04
729 4.8093322270574118e-04 9.0921265869977841e-05 -8.5078274020978378e-04
730 7.4105014010644960e-04 6.0558897619588162e-04 3.1854353183827304e-04
731 -2.5609937267865056e-04 -6.2044897477527082e-04 -7.2653425358483903e-04
732 3.4601855787871579e-04 6.3185025103941147e-04 6.8251116200114884e-04
733 -7.4396730382185434e-05 9.8647077064041903e-04 -2.0618308011297238e-04
734 -2.3140297532947955e-04 -4.8375037820652748e-04 -8.2472904389840126e-04
735 9.7343390697898400e-04 -2.2256827492597738e-04 -1.6787467555545081e-04
736 9.9104189354621208e-04 -2.1119474502512346e-04 2.5474875630119279e-05
737 -3.3656388213192588e-05 -5.4184639716328218e-05 9.7124451804999441e-04
738 -5.0940132132351113e-04 -8.7434323281920616e-04 5.1879680107600116e-05
739 5.1004447338474771e-04 1.9848604600802584e-04 -8.1795478600352666e-04
740 -7.6270186090408789e-04 1.2324910953350382e-04 6.2769626680564210e-04
741 -1.6046262570139754e-04 3.6527083273433963e-05 9.5987264600982535e-04
742 -5.4351134754446239e-04 -7.2212198460777459e-04 4.3766234162897718e-04
743 -2.5242514986814311e-05 4.3534670772474510e-04 -8.7678471060372769e-04
744 3.0072747155211326e-04 -9.5292123621596629e-04 -1.6286205526037779e-04
745 -8.4442363225414090e-05 -6.7573013216780148e-04 -7.1852769913820084e-04
$EndNodes
$Elements
1486
1 2 2 0 0 410 440 345
2 2 2 0 0 421 541 409
3 2 2 0 0 409 682 421
4 2 2 0 0 545 603 546
5 2 2 0 0 426 427 294
6 2 2 0 0 294 454 426
7 2 2 0 0 265 682 409
8 2 2 0 0 24 41 4
9 2 2 0 0 3 24 4
10 2 2 0 0 238 642 602
11 2 2 0 0 520 651 613
12 2 2 0 0 653 666 659
13 2 2 0 0 404 460 98
14 2 2 0 0 222 482 219
15 2 2 0 0 40 463 9
16 2 2 0 0 608 724 696
17 2 2 0 0 435 709 69
18 2 2 0 0 413 439 29
19 2 2 0 0 345 710 410
20 2 2 0 0 422 463 40
21 2 2 0 0 98 550 404
22 2 2 0 0 95 724 608
23 2 2 0 0 4 41 5
24 2 2 0 0 232 701 581
25 2 2 0 0 490 698 488
26 2 2 0 0 29 436 413
27 2 2 0 0 416 421 342
28 2 2 0 0 312 595 441
29 2 2 0 0 41 486 5
30 2 2 0 0 405 605 519
31 2 2 0 0 409 595 265
32 2 2 0 0 69 481 435
33 2 2 0 0 434 743 339
34 2 2 0 0 342 641 416
35 2 2 0 0 485 656 370
36 2 2 0 0 89 587 90
37 2 2 0 0 108 466 317
38 2 2 0 0 378 629 529
39 2 2 0 0 581 680 232
40 2 2 0 0 281 434 339
41 2 2 0 0 638 739 486
42 2 2 0 0 659 666 660
43 2 2 0 0 345 440 346
44 2 2 0 0 22 44 25
45 2 2 0 0 9 463 8
46 2 2 0 0 44 81 25
47 2 2 0 0 459 587 89
48 2 2 0 0 127 670 630
49 2 2 0 0 508 662 509
50 2 2 0 0 375 662 508
51 2 2 0 0 492 598 103
52 2 2 0 0 604 642 238
53 2 2 0 0 507 510 399
54 2 2 0 0 488 698 489
55 2 2 0 0 34 473 415
56 2 2 0 0 399 639 507
57 2 2 0 0 603 688 546
58 2 2 0 0 316 541 421
59 2 2 0 0 647 696 627
60 2 2 0 0 403 439 352
61 2 2 0 0 221 603 545
62 2 2 0 0 595 648 441
63 2 2 0 0 412 550 98
64 2 2 0 0 411 714 397
65 2 2 0 0 486 739 729
66 2 2 0 0 696 724 401
67 2 2 0 0 247 482 222
68 2 2 0 0 397 714 645
69 2 2 0 0 613 651 212
70 2 2 0 0 207 745 425
71 2 2 0 0 98 675 412
72 2 2 0 0 219 482 230
73 2 2 0 0 560 692 432
74 2 2 0 0 432 689 560
75 2 2 0 0 454 575 426
76 2 2 0 0 352 439 413
77 2 2 0 0 415 420 2
78 2 2 0 0 40 464 422
79 2 2 0 0 89 512 459
80 2 2 0 0 425 614 207
81 2 2 0 0 377 600 453
82 2 2 0 0 89 90 88
83 2 2 0 0 80 466 108
84 2 2 0 0 520 717 651
85 2 2 0 0 602 703 238
86 2 2 0 0 103 687 492
87 2 2 0 0 253 491 424
88 2 2 0 0 69 709 466
89 2 2 0 0 424 512 253
90 2 2 0 0 369 696 647
91 2 2 0 0 581 701 644
92 2 2 0 0 630 670 392
93 2 2 0 0 32 656 485
94 2 2 0 0 459 512 424
95 2 2 0 0 90 91 88
96 2 2 0 0 427 478 294
97 2 2 0 0 488 695 490
98 2 2 0 0 554 699 560
99 2 2 0 0 67 80 79
100 2 2 0 0 252 454 294
101 2 2 0 0 253 628 491
102 2 2 0 0 529 681 378
103 2 2 0 0 519 715 405
104 2 2 0 0 440 441 346
105 2 2 0 0 605 717 519
106 2 2 0 0 403 452 439
107 2 2 0 0 507 639 21
108 2 2 0 0 565 567 566
109 2 2 0 0 433 454 341
110 2 2 0 0 67 466 80
111 2 2 0 0 555 697 576
112 2 2 0 0 491 628 493
113 2 2 0 0 389 641 342
114 2 2 0 0 429 619 474
115 2 2 0 0 40 501 464
116 2 2 0 0 576 699 555
117 2 2 0 0 311 600 377
118 2 2 0 0 567 622 566
119 2 2 0 0 433 575 454
120 2 2 0 0 378 671 629
121 2 2 0 0 79 540 103
122 2 2 0 0 341 473 433
123 2 2 0 0 673 704 68
124 2 2 0 0 462 710 345
125 2 2 0 0 557 722 616
126 2 2 0 0 573 662 343
127 2 2 0 0 370 656 463
128 2 2 0 0 341 454 252
129 2 2 0 0 616 702 557
130 2 2 0 0 6 26 7
131 2 2 0 0 464 501 467
132 2 2 0 0 433 473 406
133 2 2 0 0 8 45 37
134 2 2 0 0 466 709 317
135 2 2 0 0 457 461 379
136 2 2 0 0 84 512 86
137 2 2 0 0 19 452 33
138 2 2 0 0 380 614 425
139 2 2 0 0 83 540 79
140 2 2 0 0 398 510 509
141 2 2 0 0 609 631 137
142 2 2 0 0 18 442 36
143 2 2 0 0 26 45 7
144 2 2 0 0 565 566 343
145 2 2 0 0 80 83 79
146 2 2 0 0 560 689 554
147 2 2 0 0 134 137 136
148 2 2 0 0 68 469 42
149 2 2 0 0 659 716 653
150 2 2 0 0 619 707 474
151 2 2 0 0 497 610 39
152 2 2 0 0 137 138 136
153 2 2 0 0 283 573 343
154 2 2 0 0 506 644 448
155 2 2 0 0 499 735 31
156 2 2 0 0 81 97 25
157 2 2 0 0 45 46 37
158 2 2 0 0 585 668 637
159 2 2 0 0 495 735 499
160 2 2 0 0 399 510 398
161 2 2 0 0 509 573 398
162 2 2 0 0 442 443 36
163 2 2 0 0 1 607 314
164 2 2 0 0 29 612 436
165 2 2 0 0 547 631 609
166 2 2 0 0 360 595 409
167 2 2 0 0 421 682 342
168 2 2 0 0 426 575 327
169 2 2 0 0 123 577 235
170 2 2 0 0 339 743 417
171 2 2 0 0 7 45 8
172 2 2 0 0 3 723 24
173 2 2 0 0 418 666 653
174 2 2 0 0 59 60 58
175 2 2 0 0 620 636 193
176 2 2 0 0 42 469 47
177 2 2 0 0 65 67 66
178 2 2 0 0 509 662 573
179 2 2 0 0 470 482 247
180 2 2 0 0 368 476 472
181 2 2 0 0 530 740 337
182 2 2 0 0 253 512 84
183 2 2 0 0 455 698 282
184 2 2 0 0 61 65 62
185 2 2 0 0 59 61 60
186 2 2 0 0 91 472 88
187 2 2 0 0 90 92 91
188 2 2 0 0 19 442 18
189 2 2 0 0 464 465 423
190 2 2 0 0 706 724 118
191 2 2 0 0 456 611 32
192 2 2 0 0 379 477 61
193 2 2 0 0 417 743 704
194 2 2 0 0 314 683 1
195 2 2 0 0 442 458 443
196 2 2 0 0 11 28 12
197 2 2 0 0 61 62 60
198 2 2 0 0 118 724 95
199 2 2 0 0 22 25 23
200 2 2 0 0 247 483 470
201 2 2 0 0 281 640 434
202 2 2 0 0 197 667 474
203 2 2 0 0 86 512 89
204 2 2 0 0 417 704 673
205 2 2 0 0 451 690 230
206 2 2 0 0 27 442 19
207 2 2 0 0 637 668 229
208 2 2 0 0 60 475 58
209 2 2 0 0 489 610 497
210 2 2 0 0 307 573 283
211 2 2 0 0 61 477 65
212 2 2 0 0 65 66 62
213 2 2 0 0 544 740 530
214 2 2 0 0 230 719 451
215 2 2 0 0 18 452 19
216 2 2 0 0 268 569 269
217 2 2 0 0 32 485 456
218 2 2 0 0 627 696 401
219 2 2 0 0 24 42 41
220 2 2 0 0 20 27 19
221 2 2 0 0 330 461 457
222 2 2 0 0 506 672 644
223 2 2 0 0 472 476 87
224 2 2 0 0 468 495 494
225 2 2 0 0 88 472 87
226 2 2 0 0 121 577 123
227 2 2 0 0 327 575 276
228 2 2 0 0 422 464 423
229 2 2 0 0 47 63 49
230 2 2 0 0 458 506 443
231 2 2 0 0 232 690 451
232 2 2 0 0 28 487 12
233 2 2 0 0 80 107 83
234 2 2 0 0 608 696 676
235 2 2 0 0 356 481 355
236 2 2 0 0 138 238 136
237 2 2 0 0 137 139 138
238 2 2 0 0 729 739 26
239 2 2 0 0 81 99 97
240 2 2 0 0 46 50 37
241 2 2 0 0 463 656 8
242 2 2 0 0 443 444 36
243 2 2 0 0 68 704 469
244 2 2 0 0 24 68 42
245 2 2 0 0 16 503 30
246 2 2 0 0 65 69 67
247 2 2 0 0 67 79 66
248 2 2 0 0 676 696 369
249 2 2 0 0 59 379 61
250 2 2 0 0 90 93 92
251 2 2 0 0 464 467 465
252 2 2 0 0 441 708 312
253 2 2 0 0 483 484 471
254 2 2 0 0 427 479 478
255 2 2 0 0 245 564 244
256 2 2 0 0 470 483 471
257 2 2 0 0 473 721 406
258 2 2 0 0 555 699 554
259 2 2 0 0 47 469 63
260 2 2 0 0 63 355 49
261 2 2 0 0 62 64 60
262 2 2 0 0 80 108 107
263 2 2 0 0 107 539 83
264 2 2 0 0 139 140 138
265 2 2 0 0 99 100 97
266 2 2 0 0 81 236 99
267 2 2 0 0 46 51 50
268 2 2 0 0 443 445 444
269 2 2 0 0 24 419 68
270 2 2 0 0 69 466 67
271 2 2 0 0 79 103 66
272 2 2 0 0 65 477 69
273 2 2 0 0 547 548 321
274 2 2 0 0 93 94 92
275 2 2 0 0 467 468 465
276 2 2 0 0 333 664 649
277 2 2 0 0 55 498 56
278 2 2 0 0 56 498 72
279 2 2 0 0 12 499 31
280 2 2 0 0 63 356 355
281 2 2 0 0 108 110 107
282 2 2 0 0 139 141 140
283 2 2 0 0 100 101 97
284 2 2 0 0 236 248 99
285 2 2 0 0 81 594 236
286 2 2 0 0 51 52 50
287 2 2 0 0 192 515 195
288 2 2 0 0 445 446 444
289 2 2 0 0 477 481 69
290 2 2 0 0 94 95 92
291 2 2 0 0 93 96 94
292 2 2 0 0 63 408 356
293 2 2 0 0 108 111 110
294 2 2 0 0 110 117 107
295 2 2 0 0 139 154 141
296 2 2 0 0 141 142 140
297 2 2 0 0 51 53 52
298 2 2 0 0 100 102 101
299 2 2 0 0 236 250 248
300 2 2 0 0 445 447 446
301 2 2 0 0 52 388 50
302 2 2 0 0 277 622 567
303 2 2 0 0 95 608 92
304 2 2 0 0 94 118 95
305 2 2 0 0 93 104 96
306 2 2 0 0 51 561 53
307 2 2 0 0 408 434 356
308 2 2 0 0 53 54 52
309 2 2 0 0 445 448 447
310 2 2 0 0 108 317 111
311 2 2 0 0 141 143 142
312 2 2 0 0 142 225 140
313 2 2 0 0 102 166 101
314 2 2 0 0 250 325 248
315 2 2 0 0 100 258 102
316 2 2 0 0 53 55 54
317 2 2 0 0 447 449 446
318 2 2 0 0 236 505 250
319 2 2 0 0 104 105 96
320 2 2 0 0 53 57 55
321 2 2 0 0 55 56 54
322 2 2 0 0 448 451 447
323 2 2 0 0 14 39 15
324 2 2 0 0 317 511 111
325 2 2 0 0 10 40 9
326 2 2 0 0 143 144 142
327 2 2 0 0 57 58 55
328 2 2 0 0 8 37 9
329 2 2 0 0 14 38 13
330 2 2 0 0 166 314 101
331 2 2 0 0 18 36 17
332 2 2 0 0 16 29 17
333 2 2 0 0 33 504 20
334 2 2 0 0 325 365 248
335 2 2 0 0 199 202 196
336 2 2 0 0 7 32 6
337 2 2 0 0 434 435 356
338 2 2 0 0 74 75 73
339 2 2 0 0 223 239 234
340 2 2 0 0 74 76 75
341 2 2 0 0 72 74 73
342 2 2 0 0 231 549 201
343 2 2 0 0 202 205 204
344 2 2 0 0 226 227 214
345 2 2 0 0 272 275 271
346 2 2 0 0 276 318 275
347 2 2 0 0 213 214 209
348 2 2 0 0 76 77 75
349 2 2 0 0 210 231 201
350 2 2 0 0 16 30 15
351 2 2 0 0 205 209 208
352 2 2 0 0 202 204 196
353 2 2 0 0 318 406 340
354 2 2 0 0 195 196 193
355 2 2 0 0 322 420 415
356 2 2 0 0 239 240 234
357 2 2 0 0 163 588 168
358 2 2 0 0 12 31 11
359 2 2 0 0 56 72 71
360 2 2 0 0 425 426 327
361 2 2 0 0 19 33 20
362 2 2 0 0 168 224 215
363 2 2 0 0 209 568 216
364 2 2 0 0 318 433 406
365 2 2 0 0 269 271 270
366 2 2 0 0 268 269 245
367 2 2 0 0 21 639 20
368 2 2 0 0 84 85 82
369 2 2 0 0 181 207 183
370 2 2 0 0 269 272 271
371 2 2 0 0 272 276 275
372 2 2 0 0 242 243 240
373 2 2 0 0 102 167 166
374 2 2 0 0 223 234 233
375 2 2 0 0 283 343 227
376 2 2 0 0 205 208 204
377 2 2 0 0 213 226 214
378 2 2 0 0 271 572 347
379 2 2 0 0 243 268 245
380 2 2 0 0 335 398 307
381 2 2 0 0 303 555 554
382 2 2 0 0 226 283 227
383 2 2 0 0 347 485 370
384 2 2 0 0 195 199 196
385 2 2 0 0 205 213 209
386 2 2 0 0 246 322 252
387 2 2 0 0 76 78 77
388 2 2 0 0 133 163 135
389 2 2 0 0 163 168 164
390 2 2 0 0 322 415 341
391 2 2 0 0 227 361 214
392 2 2 0 0 191 198 189
393 2 2 0 0 78 84 82
394 2 2 0 0 209 216 208
395 2 2 0 0 78 82 77
396 2 2 0 0 216 303 266
397 2 2 0 0 417 418 362
398 2 2 0 0 314 607 101
399 2 2 0 0 339 362 280
400 2 2 0 0 243 245 244
401 2 2 0 0 187 291 185
402 2 2 0 0 429 430 359
403 2 2 0 0 143 145 144
404 2 2 0 0 202 553 205
405 2 2 0 0 339 417 362
406 2 2 0 0 131 580 133
407 2 2 0 0 239 242 240
408 2 2 0 0 57 59 58
409 2 2 0 0 224 246 215
410 2 2 0 0 84 86 85
411 2 2 0 0 303 554 266
412 2 2 0 0 72 73 71
413 2 2 0 0 437 438 414
414 2 2 0 0 318 340 275
415 2 2 0 0 269 270 245
416 2 2 0 0 86 87 85
417 2 2 0 0 192 193 191
418 2 2 0 0 123 235 129
419 2 2 0 0 263 374 262
420 2 2 0 0 425 427 426
421 2 2 0 0 149 150 147
422 2 2 0 0 210 232 231
423 2 2 0 0 74 373 76
424 2 2 0 0 168 215 169
425 2 2 0 0 259 262 249
426 2 2 0 0 145 146 144
427 2 2 0 0 367 524 289
428 2 2 0 0 271 347 270
429 2 2 0 0 406 407 340
430 2 2 0 0 334 459 424
431 2 2 0 0 429 474 430
432 2 2 0 0 250 328 325
433 2 2 0 0 431 432 367
434 2 2 0 0 104 278 105
435 2 2 0 0 145 147 146
436 2 2 0 0 151 152 150
437 2 2 0 0 235 583 129
438 2 2 0 0 237 249 228
439 2 2 0 0 149 151 150
440 2 2 0 0 159 161 158
441 2 2 0 0 153 155 152
442 2 2 0 0 156 158 155
443 2 2 0 0 354 367 289
444 2 2 0 0 259 263 262
445 2 2 0 0 190 191 189
446 2 2 0 0 177 221 174
447 2 2 0 0 162 228 161
448 2 2 0 0 124 516 386
449 2 2 0 0 418 653 578
450 2 2 0 0 371 584 295
451 2 2 0 0 151 153 152
452 2 2 0 0 153 156 155
453 2 2 0 0 159 162 161
454 2 2 0 0 374 593 262
455 2 2 0 0 156 159 158
456 2 2 0 0 237 259 249
457 2 2 0 0 146 284 160
458 2 2 0 0 266 309 267
459 2 2 0 0 264 265 257
460 2 2 0 0 86 88 87
461 2 2 0 0 265 312 257
462 2 2 0 0 162 237 228
463 2 2 0 0 21 44 22
464 2 2 0 0 324 392 390
465 2 2 0 0 371 585 584
466 2 2 0 0 262 366 249
467 2 2 0 0 192 195 193
468 2 2 0 0 263 375 374
469 2 2 0 0 216 266 217
470 2 2 0 0 326 327 276
471 2 2 0 0 260 646 166
472 2 2 0 0 220 223 222
473 2 2 0 0 322 341 252
474 2 2 0 0 256 257 255
475 2 2 0 0 78 253 84
476 2 2 0 0 358 359 242
477 2 2 0 0 188 189 187
478 2 2 0 0 281 339 280
479 2 2 0 0 146 160 144
480 2 2 0 0 123 129 128
481 2 2 0 0 255 324 254
482 2 2 0 0 228 229 161
483 2 2 0 0 354 431 367
484 2 2 0 0 163 164 135
485 2 2 0 0 155 157 152
486 2 2 0 0 243 244 240
487 2 2 0 0 256 264 257
488 2 2 0 0 284 316 160
489 2 2 0 0 380 425 327
490 2 2 0 0 148 149 147
491 2 2 0 0 335 399 398
492 2 2 0 0 418 578 362
493 2 2 0 0 334 424 396
494 2 2 0 0 167 260 166
495 2 2 0 0 325 368 365
496 2 2 0 0 428 429 359
497 2 2 0 0 165 255 254
498 2 2 0 0 297 342 264
499 2 2 0 0 298 371 295
500 2 2 0 0 218 323 220
501 2 2 0 0 310 337 302
502 2 2 0 0 165 256 255
503 2 2 0 0 186 187 185
504 2 2 0 0 56 71 70
505 2 2 0 0 165 254 125
506 2 2 0 0 200 201 199
507 2 2 0 0 148 206 149
508 2 2 0 0 324 390 364
509 2 2 0 0 190 192 191
510 2 2 0 0 368 369 365
511 2 2 0 0 353 404 351
512 2 2 0 0 104 331 278
513 2 2 0 0 256 297 264
514 2 2 0 0 316 421 416
515 2 2 0 0 239 358 242
516 2 2 0 0 169 586 171
517 2 2 0 0 286 287 206
518 2 2 0 0 324 364 254
519 2 2 0 0 241 576 162
520 2 2 0 0 168 169 164
521 2 2 0 0 121 123 122
522 2 2 0 0 266 267 217
523 2 2 0 0 129 131 130
524 2 2 0 0 216 217 208
525 2 2 0 0 285 382 313
526 2 2 0 0 172 321 170
527 2 2 0 0 390 391 364
528 2 2 0 0 296 563 300
529 2 2 0 0 246 252 251
530 2 2 0 0 285 286 206
531 2 2 0 0 288 289 287
532 2 2 0 0 298 372 371
533 2 2 0 0 23 35 22
534 2 2 0 0 300 344 304
535 2 2 0 0 344 462 345
536 2 2 0 0 123 128 122
537 2 2 0 0 297 389 342
538 2 2 0 0 237 277 259
539 2 2 0 0 148 285 206
540 2 2 0 0 86 89 88
541 2 2 0 0 306 307 283
542 2 2 0 0 234 279 233
543 2 2 0 0 316 416 160
544 2 2 0 0 188 190 189
545 2 2 0 0 85 98 82
546 2 2 0 0 358 428 359
547 2 2 0 0 437 455 438
548 2 2 0 0 203 210 201
549 2 2 0 0 382 383 313
550 2 2 0 0 153 176 156
551 2 2 0 0 290 354 289
552 2 2 0 0 159 241 162
553 2 2 0 0 386 387 126
554 2 2 0 0 273 363 338
555 2 2 0 0 272 326 276
556 2 2 0 0 171 293 173
557 2 2 0 0 145 148 147
558 2 2 0 0 274 295 261
559 2 2 0 0 285 313 286
560 2 2 0 0 383 384 313
561 2 2 0 0 301 302 299
562 2 2 0 0 131 133 132
563 2 2 0 0 296 298 295
564 2 2 0 0 305 310 302
565 2 2 0 0 349 412 328
566 2 2 0 0 344 345 304
567 2 2 0 0 77 119 75
568 2 2 0 0 315 378 310
569 2 2 0 0 363 401 400
570 2 2 0 0 332 333 278
571 2 2 0 0 223 233 222
572 2 2 0 0 331 334 332
573 2 2 0 0 186 188 187
574 2 2 0 0 178 212 177
575 2 2 0 0 305 360 315
576 2 2 0 0 334 396 395
577 2 2 0 0 246 251 215
578 2 2 0 0 167 261 260
579 2 2 0 0 175 179 178
580 2 2 0 0 345 346 304
581 2 2 0 0 124 386 126
582 2 2 0 0 286 288 287
583 2 2 0 0 331 332 278
584 2 2 0 0 179 181 180
585 2 2 0 0 301 305 302
586 2 2 0 0 300 304 301
587 2 2 0 0 296 300 299
588 2 2 0 0 305 315 310
589 2 2 0 0 296 299 298
590 2 2 0 0 320 453 290
591 2 2 0 0 274 296 295
592 2 2 0 0 313 531 286
593 2 2 0 0 120 281 280
594 2 2 0 0 360 409 315
595 2 2 0 0 363 400 338
596 2 2 0 0 129 130 128
597 2 2 0 0 300 301 299
598 2 2 0 0 1 508 23
599 2 2 0 0 167 273 261
600 2 2 0 0 133 135 134
601 2 2 0 0 173 174 172
602 2 2 0 0 311 377 376
603 2 2 0 0 273 274 261
604 2 2 0 0 273 338 274
605 2 2 0 0 334 395 332
606 2 2 0 0 183 197 184
607 2 2 0 0 319 393 320
608 2 2 0 0 449 450 446
609 2 2 0 0 288 290 289
610 2 2 0 0 226 306 283
611 2 2 0 0 326 380 327
612 2 2 0 0 175 177 174
613 2 2 0 0 181 183 182
614 2 2 0 0 219 230 211
615 2 2 0 0 308 335 307
616 2 2 0 0 267 311 292
617 2 2 0 0 169 170 164
618 2 2 0 0 288 319 290
619 2 2 0 0 126 165 125
620 2 2 0 0 120 280 121
621 2 2 0 0 130 357 128
622 2 2 0 0 195 200 199
623 2 2 0 0 169 171 170
624 2 2 0 0 171 172 170
625 2 2 0 0 184 186 185
626 2 2 0 0 73 282 71
627 2 2 0 0 252 294 251
628 2 2 0 0 319 320 290
629 2 2 0 0 131 132 130
630 2 2 0 0 393 394 320
631 2 2 0 0 171 173 172
632 2 2 0 0 4 34 3
633 2 2 0 0 218 220 219
634 2 2 0 0 267 292 217
635 2 2 0 0 184 185 182
636 2 2 0 0 188 194 190
637 2 2 0 0 56 70 54
638 2 2 0 0 377 405 376
639 2 2 0 0 449 470 450
640 2 2 0 0 179 180 178
641 2 2 0 0 173 175 174
642 2 2 0 0 175 178 177
643 2 2 0 0 250 329 328
644 2 2 0 0 311 376 292
645 2 2 0 0 329 571 350
646 2 2 0 0 347 370 348
647 2 2 0 0 220 222 219
648 2 2 0 0 376 385 292
649 2 2 0 0 133 134 132
650 2 2 0 0 134 136 132
651 2 2 0 0 306 308 307
652 2 2 0 0 200 203 201
653 2 2 0 0 233 247 222
654 2 2 0 0 98 460 82
655 2 2 0 0 329 349 328
656 2 2 0 0 326 381 380
657 2 2 0 0 347 348 270
658 2 2 0 0 181 182 180
659 2 2 0 0 121 122 115
660 2 2 0 0 350 351 349
661 2 2 0 0 308 336 335
662 2 2 0 0 350 403 352
663 2 2 0 0 470 471 450
664 2 2 0 0 203 211 210
665 2 2 0 0 218 219 211
666 2 2 0 0 183 184 182
667 2 2 0 0 370 463 422
668 2 2 0 0 306 402 308
669 2 2 0 0 203 218 211
670 2 2 0 0 71 490 70
671 2 2 0 0 329 350 349
672 2 2 0 0 436 437 414
673 2 2 0 0 124 126 125
674 2 2 0 0 413 414 353
675 2 2 0 0 422 423 348
676 2 2 0 0 352 353 351
677 2 2 0 0 370 422 348
678 2 2 0 0 350 352 351
679 2 2 0 0 413 436 414
680 2 2 0 0 352 413 353
681 2 2 0 0 120 121 115
682 2 2 0 0 110 480 117
683 2 2 0 0 124 125 116
684 2 2 0 0 126 521 165
685 2 2 0 0 113 120 115
686 2 2 0 0 127 440 410
687 2 2 0 0 114 124 116
688 2 2 0 0 543 544 530
689 2 2 0 0 488 489 487
690 2 2 0 0 585 637 366
691 2 2 0 0 543 570 544
692 2 2 0 0 113 115 114
693 2 2 0 0 127 410 106
694 2 2 0 0 114 116 112
695 2 2 0 0 195 515 200
696 2 2 0 0 491 493 492
697 2 2 0 0 12 487 13
698 2 2 0 0 546 547 321
699 2 2 0 0 330 457 411
700 2 2 0 0 157 543 530
701 2 2 0 0 519 520 291
702 2 2 0 0 28 488 487
703 2 2 0 0 111 112 110
704 2 2 0 0 312 534 257
705 2 2 0 0 476 732 412
706 2 2 0 0 27 458 442
707 2 2 0 0 385 636 620
708 2 2 0 0 176 559 156
709 2 2 0 0 593 634 366
710 2 2 0 0 589 590 224
711 2 2 0 0 113 114 112
712 2 2 0 0 109 127 106
713 2 2 0 0 270 564 245
714 2 2 0 0 443 506 445
715 2 2 0 0 491 492 396
716 2 2 0 0 388 624 502
717 2 2 0 0 445 506 448
718 2 2 0 0 30 500 15
719 2 2 0 0 20 504 21
720 2 2 0 0 64 475 60
721 2 2 0 0 287 542 206
722 2 2 0 0 23 508 35
723 2 2 0 0 302 558 299
724 2 2 0 0 70 551 54
725 2 2 0 0 62 598 64
726 2 2 0 0 424 491 396
727 2 2 0 0 407 456 340
728 2 2 0 0 545 546 321
729 2 2 0 0 330 411 397
730 2 2 0 0 72 536 74
731 2 2 0 0 238 574 136
732 2 2 0 0 659 660 420
733 2 2 0 0 395 538 332
734 2 2 0 0 143 527 145
735 2 2 0 0 412 675 476
736 2 2 0 0 239 513 358
737 2 2 0 0 157 530 529
738 2 2 0 0 518 519 291
739 2 2 0 0 449 482 470
740 2 2 0 0 207 713 479
741 2 2 0 0 119 523 75
742 2 2 0 0 109 670 127
743 2 2 0 0 10 501 40
744 2 2 0 0 508 509 35
745 2 2 0 0 96 606 94
746 2 2 0 0 331 459 334
747 2 2 0 0 286 531 288
748 2 2 0 0 290 453 354
749 2 2 0 0 282 490 71
750 2 2 0 0 384 531 313
751 2 2 0 0 289 524 287
752 2 2 0 0 349 550 412
753 2 2 0 0 165 521 256
754 2 2 0 0 82 460 77
755 2 2 0 0 155 543 157
756 2 2 0 0 201 549 199
757 2 2 0 0 273 591 363
758 2 2 0 0 387 521 126
759 2 2 0 0 114 516 124
760 2 2 0 0 53 561 57
761 2 2 0 0 266 554 309
762 2 2 0 0 257 534 255
763 2 2 0 0 205 553 213
764 2 2 0 0 142 522 225
765 2 2 0 0 435 481 356
766 2 2 0 0 216 568 303
767 2 2 0 0 300 563 344
768 2 2 0 0 214 568 209
769 2 2 0 0 112 480 110
770 2 2 0 0 350 571 403
771 2 2 0 0 347 572 485
772 2 2 0 0 275 572 271
773 2 2 0 0 274 563 296
774 2 2 0 0 171 586 293
775 2 2 0 0 162 576 237
776 2 2 0 0 133 580 163
777 2 2 0 0 11 501 10
778 2 2 0 0 295 584 261
779 2 2 0 0 129 583 131
780 2 2 0 0 215 586 169
781 2 2 0 0 250 505 329
782 2 2 0 0 168 588 224
783 2 2 0 0 321 548 170
784 2 2 0 0 262 593 366
785 2 2 0 0 166 646 314
786 2 2 0 0 520 535 291
787 2 2 0 0 373 663 493
788 2 2 0 0 291 535 185
789 2 2 0 0 101 607 97
790 2 2 0 0 130 574 357
791 2 2 0 0 158 570 543
792 2 2 0 0 31 501 11
793 2 2 0 0 444 552 503
794 2 2 0 0 156 559 159
795 2 2 0 0 236 594 505
796 2 2 0 0 206 542 149
797 2 2 0 0 54 551 52
798 2 2 0 0 74 536 373
799 2 2 0 0 337 558 302
800 2 2 0 0 150 532 147
801 2 2 0 0 379 728 457
802 2 2 0 0 299 558 298
803 2 2 0 0 332 538 333
804 2 2 0 0 145 527 148
805 2 2 0 0 514 515 192
806 2 2 0 0 15 500 14
807 2 2 0 0 75 523 73
808 2 2 0 0 467 501 31
809 2 2 0 0 254 592 125
810 2 2 0 0 172 545 321
811 2 2 0 0 144 522 142
812 2 2 0 0 528 532 150
813 2 2 0 0 187 518 291
814 2 2 0 0 553 599 213
815 2 2 0 0 383 603 384
816 2 2 0 0 282 698 490
817 2 2 0 0 244 517 240
818 2 2 0 0 353 525 404
819 2 2 0 0 395 540 538
820 2 2 0 0 94 606 118
821 2 2 0 0 117 539 107
822 2 2 0 0 185 535 182
823 2 2 0 0 388 502 50
824 2 2 0 0 167 591 273
825 2 2 0 0 147 532 146
826 2 2 0 0 92 608 91
827 2 2 0 0 472 676 368
828 2 2 0 0 364 592 254
829 2 2 0 0 21 504 44
830 2 2 0 0 365 597 248
831 2 2 0 0 125 592 116
832 2 2 0 0 588 589 224
833 2 2 0 0 111 113 112
834 2 2 0 0 63 469 408
835 2 2 0 0 105 109 106
836 2 2 0 0 242 526 243
837 2 2 0 0 439 712 29
838 2 2 0 0 240 517 234
839 2 2 0 0 346 533 304
840 2 2 0 0 14 500 38
841 2 2 0 0 494 495 484
842 2 2 0 0 127 630 440
843 2 2 0 0 208 537 204
844 2 2 0 0 175 562 179
845 2 2 0 0 303 626 555
846 2 2 0 0 359 526 242
847 2 2 0 0 243 526 268
848 2 2 0 0 217 537 208
849 2 2 0 0 58 498 55
850 2 2 0 0 503 552 30
851 2 2 0 0 13 499 12
852 2 2 0 0 268 621 569
853 2 2 0 0 489 497 487
854 2 2 0 0 475 498 58
855 2 2 0 0 430 526 359
856 2 2 0 0 248 597 99
857 2 2 0 0 292 537 217
858 2 2 0 0 26 645 45
859 2 2 0 0 234 517 279
860 2 2 0 0 14 497 39
861 2 2 0 0 385 537 292
862 2 2 0 0 305 533 360
863 2 2 0 0 304 533 301
864 2 2 0 0 146 532 284
865 2 2 0 0 483 494 484
866 2 2 0 0 173 562 175
867 2 2 0 0 116 480 112
868 2 2 0 0 224 590 246
869 2 2 0 0 189 518 187
870 2 2 0 0 498 536 72
871 2 2 0 0 414 525 353
872 2 2 0 0 160 522 144
873 2 2 0 0 547 609 548
874 2 2 0 0 182 535 180
875 2 2 0 0 297 601 389
876 2 2 0 0 44 594 81
877 2 2 0 0 301 533 305
878 2 2 0 0 105 106 96
879 2 2 0 0 515 596 200
880 2 2 0 0 293 562 173
881 2 2 0 0 73 523 282
882 2 2 0 0 148 527 285
883 2 2 0 0 174 545 172
884 2 2 0 0 218 596 323
885 2 2 0 0 200 596 203
886 2 2 0 0 149 542 151
887 2 2 0 0 446 552 444
888 2 2 0 0 49 461 330
889 2 2 0 0 330 397 48
890 2 2 0 0 453 738 377
891 2 2 0 0 255 534 324
892 2 2 0 0 52 551 388
893 2 2 0 0 634 646 260
894 2 2 0 0 513 615 358
895 2 2 0 0 438 525 414
896 2 2 0 0 516 618 386
897 2 2 0 0 198 518 189
898 2 2 0 0 227 566 361
899 2 2 0 0 559 560 241
900 2 2 0 0 90 587 93
901 2 2 0 0 416 522 160
902 2 2 0 0 102 591 167
903 2 2 0 0 134 609 137
904 2 2 0 0 298 558 372
905 2 2 0 0 132 574 130
906 2 2 0 0 106 606 96
907 2 2 0 0 159 559 241
908 2 2 0 0 32 611 6
909 2 2 0 0 158 543 155
910 2 2 0 0 223 513 239
911 2 2 0 0 288 531 319
912 2 2 0 0 323 513 220
913 2 2 0 0 115 516 114
914 2 2 0 0 521 601 297
915 2 2 0 0 610 698 455
916 2 2 0 0 354 600 431
917 2 2 0 0 351 550 349
918 2 2 0 0 256 521 297
919 2 2 0 0 140 604 138
920 2 2 0 0 77 460 119
921 2 2 0 0 17 503 16
922 2 2 0 0 9 502 10
923 2 2 0 0 104 587 331
924 2 2 0 0 152 528 150
925 2 2 0 0 315 541 378
926 2 2 0 0 170 548 164
927 2 2 0 0 590 659 420
928 2 2 0 0 11 624 28
929 2 2 0 0 199 549 202
930 2 2 0 0 502 624 10
931 2 2 0 0 453 600 354
932 2 2 0 0 42 43 41
933 2 2 0 0 38 499 13
934 2 2 0 0 285 527 382
935 2 2 0 0 190 514 192
936 2 2 0 0 157 529 528
937 2 2 0 0 231 643 549
938 2 2 0 0 331 587 459
939 2 2 0 0 451 701 232
940 2 2 0 0 99 597 100
941 2 2 0 0 361 568 214
942 2 2 0 0 372 740 544
943 2 2 0 0 221 545 174
944 2 2 0 0 138 604 238
945 2 2 0 0 340 572 275
946 2 2 0 0 338 563 274
947 2 2 0 0 524 542 287
948 2 2 0 0 265 595 312
949 2 2 0 0 111 511 113
950 2 2 0 0 580 658 588
951 2 2 0 0 580 588 163
952 2 2 0 0 237 576 277
953 2 2 0 0 444 503 36
954 2 2 0 0 131 583 580
955 2 2 0 0 505 571 329
956 2 2 0 0 203 596 218
957 2 2 0 0 584 634 260
958 2 2 0 0 261 584 260
959 2 2 0 0 369 647 365
960 2 2 0 0 251 586 215
961 2 2 0 0 348 564 270
962 2 2 0 0 450 552 446
963 2 2 0 0 390 496 391
964 2 2 0 0 66 598 62
965 2 2 0 0 465 623 423
966 2 2 0 0 258 591 102
967 2 2 0 0 343 566 227
968 2 2 0 0 564 623 244
969 2 2 0 0 154 617 141
970 2 2 0 0 324 534 392
971 2 2 0 0 50 502 37
972 2 2 0 0 524 556 542
973 2 2 0 0 544 700 372
974 2 2 0 0 122 516 115
975 2 2 0 0 177 557 221
976 2 2 0 0 489 698 610
977 2 2 0 0 93 587 104
978 2 2 0 0 136 574 132
979 2 2 0 0 593 646 634
980 2 2 0 0 116 592 480
981 2 2 0 0 143 617 527
982 2 2 0 0 225 604 140
983 2 2 0 0 137 631 139
984 2 2 0 0 549 553 202
985 2 2 0 0 164 548 135
986 2 2 0 0 404 550 351
987 2 2 0 0 34 721 473
988 2 2 0 0 220 513 223
989 2 2 0 0 317 640 511
990 2 2 0 0 100 597 258
991 2 2 0 0 588 658 589
992 2 2 0 0 323 615 513
993 2 2 0 0 568 626 303
994 2 2 0 0 377 605 405
995 2 2 0 0 178 613 212
996 2 2 0 0 493 628 373
997 2 2 0 0 157 528 152
998 2 2 0 0 591 627 363
999 2 2 0 0 409 541 315
1000 2 2 0 0 183 614 197
1001 2 2 0 0 103 598 66
1002 2 2 0 0 188 619 194
1003 2 2 0 0 213 599 226
1004 2 2 0 0 306 599 402
1005 2 2 0 0 97 607 25
1006 2 2 0 0 194 514 190
1007 2 2 0 0 373 628 76
1008 2 2 0 0 78 628 253
1009 2 2 0 0 42 47 43
1010 2 2 0 0 39 612 15
1011 2 2 0 0 16 612 29
1012 2 2 0 0 437 610 455
1013 2 2 0 0 487 497 13
1014 2 2 0 0 440 630 441
1015 2 2 0 0 479 713 562
1016 2 2 0 0 196 620 193
1017 2 2 0 0 456 572 340
1018 2 2 0 0 120 511 281
1019 2 2 0 0 577 578 235
1020 2 2 0 0 335 582 399
1021 2 2 0 0 314 741 683
1022 2 2 0 0 520 613 535
1023 2 2 0 0 585 634 584
1024 2 2 0 0 423 564 348
1025 2 2 0 0 457 561 411
1026 2 2 0 0 6 611 5
1027 2 2 0 0 385 620 537
1028 2 2 0 0 228 637 229
1029 2 2 0 0 366 637 249
1030 2 2 0 0 161 570 158
1031 2 2 0 0 434 640 435
1032 2 2 0 0 193 636 191
1033 2 2 0 0 410 606 106
1034 2 2 0 0 37 502 9
1035 2 2 0 0 36 503 17
1036 2 2 0 0 141 617 143
1037 2 2 0 0 363 627 401
1038 2 2 0 0 322 590 420
1039 2 2 0 0 357 618 128
1040 2 2 0 0 430 621 526
1041 2 2 0 0 540 687 103
1042 2 2 0 0 280 577 121
1043 2 2 0 0 276 575 318
1044 2 2 0 0 362 578 577
1045 2 2 0 0 109 649 496
1046 2 2 0 0 246 590 322
1047 2 2 0 0 326 569 381
1048 2 2 0 0 569 621 381
1049 2 2 0 0 269 569 272
1050 2 2 0 0 139 631 154
1051 2 2 0 0 649 664 496
1052 2 2 0 0 537 620 204
1053 2 2 0 0 355 461 49
1054 2 2 0 0 663 685 493
1055 2 2 0 0 479 745 207
1056 2 2 0 0 343 662 565
1057 2 2 0 0 212 557 177
1058 2 2 0 0 45 645 46
1059 2 2 0 0 496 670 109
1060 2 2 0 0 366 634 585
1061 2 2 0 0 384 616 531
1062 2 2 0 0 535 613 180
1063 2 2 0 0 391 632 364
1064 2 2 0 0 308 581 336
1065 2 2 0 0 344 625 462
1066 2 2 0 0 563 625 344
1067 2 2 0 0 13 497 14
1068 2 2 0 0 480 632 117
1069 2 2 0 0 371 668 585
1070 2 2 0 0 333 649 278
1071 2 2 0 0 387 601 521
1072 2 2 0 0 47 49 48
1073 2 2 0 0 358 615 428
1074 2 2 0 0 113 511 120
1075 2 2 0 0 527 617 382
1076 2 2 0 0 105 649 109
1077 2 2 0 0 398 573 307
1078 2 2 0 0 368 676 369
1079 2 2 0 0 180 613 178
1080 2 2 0 0 153 556 176
1081 2 2 0 0 432 657 367
1082 2 2 0 0 458 718 582
1083 2 2 0 0 207 614 183
1084 2 2 0 0 407 611 456
1085 2 2 0 0 244 623 517
1086 2 2 0 0 20 639 27
1087 2 2 0 0 476 675 87
1088 2 2 0 0 319 616 393
1089 2 2 0 0 474 707 197
1090 2 2 0 0 226 599 306
1091 2 2 0 0 47 48 43
1092 2 2 0 0 186 619 188
1093 2 2 0 0 412 732 328
1094 2 2 0 0 316 671 541
1095 2 2 0 0 293 734 478
1096 2 2 0 0 492 685 598
1097 2 2 0 0 528 629 532
1098 2 2 0 0 514 635 515
1099 2 2 0 0 531 616 319
1100 2 2 0 0 8 656 7
1101 2 2 0 0 387 602 601
1102 2 2 0 0 76 628 78
1103 2 2 0 0 122 618 516
1104 2 2 0 0 651 717 394
1105 2 2 0 0 423 623 564
1106 2 2 0 0 546 669 547
1107 2 2 0 0 4 679 34
1108 2 2 0 0 542 556 151
1109 2 2 0 0 548 609 135
1110 2 2 0 0 204 620 196
1111 2 2 0 0 529 629 528
1112 2 2 0 0 482 719 230
1113 2 2 0 0 258 627 591
1114 2 2 0 0 336 582 335
1115 2 2 0 0 197 686 667
1116 2 2 0 0 583 658 580
1117 2 2 0 0 85 675 98
1118 2 2 0 0 59 728 379
1119 2 2 0 0 400 625 338
1120 2 2 0 0 394 717 605
1121 2 2 0 0 471 650 450
1122 2 2 0 0 596 635 323
1123 2 2 0 0 249 637 228
1124 2 2 0 0 515 635 596
1125 2 2 0 0 338 625 563
1126 2 2 0 0 28 633 488
1127 2 2 0 0 566 622 361
1128 2 2 0 0 229 570 161
1129 2 2 0 0 468 654 465
1130 2 2 0 0 118 710 462
1131 2 2 0 0 15 612 16
1132 2 2 0 0 589 659 590
1133 2 2 0 0 526 621 268
1134 2 2 0 0 365 647 597
1135 2 2 0 0 579 583 235
1136 2 2 0 0 22 507 21
1137 2 2 0 0 342 682 264
1138 2 2 0 0 441 648 346
1139 2 2 0 0 191 636 198
1140 2 2 0 0 578 653 579
1141 2 2 0 0 135 609 134
1142 2 2 0 0 128 618 122
1143 2 2 0 0 378 681 310
1144 2 2 0 0 230 690 211
1145 2 2 0 0 210 690 232
1146 2 2 0 0 549 643 553
1147 2 2 0 0 233 661 247
1148 2 2 0 0 10 624 11
1149 2 2 0 0 640 709 435
1150 2 2 0 0 449 719 482
1151 2 2 0 0 452 726 33
1152 2 2 0 0 362 577 280
1153 2 2 0 0 318 575 433
1154 2 2 0 0 492 687 396
1155 2 2 0 0 586 734 293
1156 2 2 0 0 357 655 618
1157 2 2 0 0 277 567 259
1158 2 2 0 0 522 641 225
1159 2 2 0 0 511 640 281
1160 2 2 0 0 247 661 483
1161 2 2 0 0 610 693 39
1162 2 2 0 0 272 569 326
1163 2 2 0 0 490 695 70
1164 2 2 0 0 553 643 599
1165 2 2 0 0 532 629 284
1166 2 2 0 0 29 712 17
1167 2 2 0 0 632 665 117
1168 2 2 0 0 618 655 386
1169 2 2 0 0 241 699 576
1170 2 2 0 0 457 728 561
1171 2 2 0 0 485 572 456
1172 2 2 0 0 430 667 621
1173 2 2 0 0 582 672 458
1174 2 2 0 0 395 687 540
1175 2 2 0 0 504 594 44
1176 2 2 0 0 181 713 207
1177 2 2 0 0 197 707 184
1178 2 2 0 0 524 657 556
1179 2 2 0 0 475 536 498
1180 2 2 0 0 394 738 320
1181 2 2 0 0 51 714 561
1182 2 2 0 0 151 556 153
1183 2 2 0 0 437 693 610
1184 2 2 0 0 361 626 568
1185 2 2 0 0 611 679 5
1186 2 2 0 0 231 680 643
1187 2 2 0 0 462 706 118
1188 2 2 0 0 390 670 496
1189 2 2 0 0 602 642 601
1190 2 2 0 0 49 330 48
1191 2 2 0 0 391 665 632
1192 2 2 0 0 508 737 375
1193 2 2 0 0 450 650 552
1194 2 2 0 0 368 732 476
1195 2 2 0 0 578 579 235
1196 2 2 0 0 402 581 308
1197 2 2 0 0 43 486 41
1198 2 2 0 0 562 713 179
1199 2 2 0 0 592 632 480
1200 2 2 0 0 416 641 522
1201 2 2 0 0 372 668 371
1202 2 2 0 0 452 712 439
1203 2 2 0 0 282 720 455
1204 2 2 0 0 556 657 176
1205 2 2 0 0 364 632 592
1206 2 2 0 0 403 726 452
1207 2 2 0 0 465 654 623
1208 2 2 0 0 278 649 105
1209 2 2 0 0 154 652 617
1210 2 2 0 0 383 688 603
1211 2 2 0 0 451 719 447
1212 2 2 0 0 317 709 640
1213 2 2 0 0 604 711 642
1214 2 2 0 0 382 652 383
1215 2 2 0 0 601 642 389
1216 2 2 0 0 284 671 316
1217 2 2 0 0 599 643 402
1218 2 2 0 0 388 633 624
1219 2 2 0 0 267 678 311
1220 2 2 0 0 337 681 530
1221 2 2 0 0 279 661 233
1222 2 2 0 0 605 738 394
1223 2 2 0 0 33 677 504
1224 2 2 0 0 386 655 387
1225 2 2 0 0 547 669 631
1226 2 2 0 0 562 731 479
1227 2 2 0 0 360 648 595
1228 2 2 0 0 432 692 657
1229 2 2 0 0 367 657 524
1230 2 2 0 0 633 695 488
1231 2 2 0 0 415 473 341
1232 2 2 0 0 644 672 336
1233 2 2 0 0 551 633 388
1234 2 2 0 0 533 648 360
1235 2 2 0 0 407 679 611
1236 2 2 0 0 323 635 615
1237 2 2 0 0 530 681 529
1238 2 2 0 0 393 651 394
1239 2 2 0 0 387 655 602
1240 2 2 0 0 238 703 574
1241 2 2 0 0 594 677 505
1242 2 2 0 0 559 692 560
1243 2 2 0 0 621 667 381
1244 2 2 0 0 405 674 376
1245 2 2 0 0 325 732 368
1246 2 2 0 0 623 654 517
1247 2 2 0 0 581 644 336
1248 2 2 0 0 346 648 533
1249 2 2 0 0 517 654 279
1250 2 2 0 0 477 705 481
1251 2 2 0 0 481 705 355
1252 2 2 0 0 561 728 57
1253 2 2 0 0 379 705 477
1254 2 2 0 0 617 652 382
1255 2 2 0 0 30 650 500
1256 2 2 0 0 376 674 385
1257 2 2 0 0 518 715 519
1258 2 2 0 0 474 667 430
1259 2 2 0 0 478 734 294
1260 2 2 0 0 624 633 28
1261 2 2 0 0 186 707 619
1262 2 2 0 0 64 663 475
1263 2 2 0 0 597 647 258
1264 2 2 0 0 377 738 605
1265 2 2 0 0 31 735 467
1266 2 2 0 0 27 718 458
1267 2 2 0 0 419 673 68
1268 2 2 0 0 616 722 393
1269 2 2 0 0 24 723 419
1270 2 2 0 0 397 638 48
1271 2 2 0 0 404 730 460
1272 2 2 0 0 91 676 472
1273 2 2 0 0 622 626 361
1274 2 2 0 0 7 656 32
1275 2 2 0 0 576 697 277
1276 2 2 0 0 471 691 650
1277 2 2 0 0 536 663 373
1278 2 2 0 0 484 691 471
1279 2 2 0 0 552 650 30
1280 2 2 0 0 311 678 600
1281 2 2 0 0 486 729 5
1282 2 2 0 0 418 673 666
1283 2 2 0 0 232 680 231
1284 2 2 0 0 5 679 4
1285 2 2 0 0 117 665 539
1286 2 2 0 0 384 702 616
1287 2 2 0 0 557 702 221
1288 2 2 0 0 87 675 85
1289 2 2 0 0 225 711 604
1290 2 2 0 0 505 677 571
1291 2 2 0 0 483 661 494
1292 2 2 0 0 263 565 375
1293 2 2 0 0 504 677 594
1294 2 2 0 0 582 718 399
1295 2 2 0 0 645 714 46
1296 2 2 0 0 534 708 392
1297 2 2 0 0 643 680 402
1298 2 2 0 0 18 712 452
1299 2 2 0 0 392 670 390
1300 2 2 0 0 221 702 603
1301 2 2 0 0 496 664 391
1302 2 2 0 0 606 710 118
1303 2 2 0 0 655 703 602
1304 2 2 0 0 608 676 91
1305 2 2 0 0 194 684 514
1306 2 2 0 0 541 671 378
1307 2 2 0 0 154 669 652
1308 2 2 0 0 399 718 639
1309 2 2 0 0 405 715 674
1310 2 2 0 0 33 726 677
1311 2 2 0 0 629 671 284
1312 2 2 0 0 468 735 495
1313 2 2 0 0 469 704 408
1314 2 2 0 0 427 745 479
1315 2 2 0 0 294 734 251
1316 2 2 0 0 461 705 379
1317 2 2 0 0 385 674 636
1318 2 2 0 0 657 692 176
1319 2 2 0 0 561 714 411
1320 2 2 0 0 631 669 154
1321 2 2 0 0 264 682 265
1322 2 2 0 0 43 638 486
1323 2 2 0 0 48 638 43
1324 2 2 0 0 194 744 684
1325 2 2 0 0 381 686 380
1326 2 2 0 0 658 716 589
1327 2 2 0 0 263 567 565
1328 2 2 0 0 310 681 337
1329 2 2 0 0 493 685 492
1330 2 2 0 0 64 685 663
1331 2 2 0 0 309 678 267
1332 2 2 0 0 600 678 431
1333 2 2 0 0 538 694 333
1334 2 2 0 0 598 685 64
1335 2 2 0 0 551 695 633
1336 2 2 0 0 560 699 241
1337 2 2 0 0 211 690 210
1338 2 2 0 0 2 723 3
1339 2 2 0 0 630 708 441
1340 2 2 0 0 467 735 468
1341 2 2 0 0 396 687 395
1342 2 2 0 0 35 507 22
1343 2 2 0 0 259 567 263
1344 2 2 0 0 417 673 418
1345 2 2 0 0 614 686 197
1346 2 2 0 0 392 708 630
1347 2 2 0 0 5 729 6
1348 2 2 0 0 279 725 661
1349 2 2 0 0 6 729 26
1350 2 2 0 0 357 703 655
1351 2 2 0 0 514 684 635
1352 2 2 0 0 540 733 538
1353 2 2 0 0 374 741 593
1354 2 2 0 0 176 692 559
1355 2 2 0 0 650 691 500
1356 2 2 0 0 484 736 691
1357 2 2 0 0 83 733 540
1358 2 2 0 0 558 740 372
1359 2 2 0 0 626 697 555
1360 2 2 0 0 436 693 437
1361 2 2 0 0 375 737 374
1362 2 2 0 0 475 663 536
1363 2 2 0 0 636 674 198
1364 2 2 0 0 674 715 198
1365 2 2 0 0 70 695 551
1366 2 2 0 0 406 721 407
1367 2 2 0 0 677 726 571
1368 2 2 0 0 258 647 627
1369 2 2 0 0 448 701 451
1370 2 2 0 0 458 672 506
1371 2 2 0 0 229 700 570
1372 2 2 0 0 684 744 428
1373 2 2 0 0 570 700 544
1374 2 2 0 0 678 742 431
1375 2 2 0 0 646 741 314
1376 2 2 0 0 603 702 384
1377 2 2 0 0 478 731 293
1378 2 2 0 0 309 742 678
1379 2 2 0 0 380 686 614
1380 2 2 0 0 494 725 468
1381 2 2 0 0 500 691 38
1382 2 2 0 0 635 684 615
1383 2 2 0 0 661 725 494
1384 2 2 0 0 679 721 34
1385 2 2 0 0 509 510 35
1386 2 2 0 0 46 714 51
1387 2 2 0 0 615 684 428
1388 2 2 0 0 432 742 689
1389 2 2 0 0 179 713 181
1390 2 2 0 0 26 739 645
1391 2 2 0 0 35 510 507
1392 2 2 0 0 574 703 357
1393 2 2 0 0 184 707 186
1394 2 2 0 0 39 693 612
1395 2 2 0 0 665 694 539
1396 2 2 0 0 312 708 534
1397 2 2 0 0 554 689 309
1398 2 2 0 0 1 737 508
1399 2 2 0 0 519 717 520
1400 2 2 0 0 277 697 622
1401 2 2 0 0 389 711 641
1402 2 2 0 0 495 736 484
1403 2 2 0 0 17 712 18
1404 2 2 0 0 212 722 557
1405 2 2 0 0 455 720 438
1406 2 2 0 0 622 697 626
1407 2 2 0 0 664 694 665
1408 2 2 0 0 447 719 449
1409 2 2 0 0 669 688 652
1410 2 2 0 0 612 693 436
1411 2 2 0 0 619 744 194
1412 2 2 0 0 57 728 59
1413 2 2 0 0 579 658 583
1414 2 2 0 0 438 727 525
1415 2 2 0 0 539 733 83
1416 2 2 0 0 479 731 478
1417 2 2 0 0 691 736 38
1418 2 2 0 0 401 724 400
1419 2 2 0 0 420 660 2
1420 2 2 0 0 328 732 325
1421 2 2 0 0 320 738 453
1422 2 2 0 0 428 744 429
1423 2 2 0 0 431 742 432
1424 2 2 0 0 425 745 427
1425 2 2 0 0 408 743 434
1426 2 2 0 0 571 726 403
1427 2 2 0 0 119 727 523
1428 2 2 0 0 625 706 462
1429 2 2 0 0 525 730 404
1430 2 2 0 0 499 736 495
1431 2 2 0 0 468 725 654
1432 2 2 0 0 336 672 582
1433 2 2 0 0 198 715 518
1434 2 2 0 0 400 724 706
1435 2 2 0 0 402 680 581
1436 2 2 0 0 589 716 659
1437 2 2 0 0 727 730 525
1438 2 2 0 0 664 665 391
1439 2 2 0 0 337 740 558
1440 2 2 0 0 293 731 562
1441 2 2 0 0 523 720 282
1442 2 2 0 0 460 730 119
1443 2 2 0 0 641 711 225
1444 2 2 0 0 429 744 619
1445 2 2 0 0 119 730 727
1446 2 2 0 0 651 722 212
1447 2 2 0 0 38 736 499
1448 2 2 0 0 667 686 381
1449 2 2 0 0 652 688 383
1450 2 2 0 0 410 710 606
1451 2 2 0 0 644 701 448
1452 2 2 0 0 666 673 419
1453 2 2 0 0 704 743 408
1454 2 2 0 0 251 734 586
1455 2 2 0 0 400 706 625
1456 2 2 0 0 546 688 669
1457 2 2 0 0 668 700 229
1458 2 2 0 0 538 733 694
1459 2 2 0 0 333 694 664
1460 2 2 0 0 565 662 375
1461 2 2 0 0 720 727 438
1462 2 2 0 0 372 700 668
1463 2 2 0 0 579 716 658
1464 2 2 0 0 642 711 389
1465 2 2 0 0 355 705 461
1466 2 2 0 0 407 721 679
1467 2 2 0 0 523 727 720
1468 2 2 0 0 654 725 279
1469 2 2 0 0 639 718 27
1470 2 2 0 0 694 733 539
1471 2 2 0 0 393 722 651
1472 2 2 0 0 645 739 397
1473 2 2 0 0 683 741 374
1474 2 2 0 0 397 739 638
1475 2 2 0 0 653 716 579
1476 2 2 0 0 666 723 660
1477 2 2 0 0 419 723 666
1478 2 2 0 0 374 737 683
1479 2 2 0 0 593 741 646
1480 2 2 0 0 683 737 1
1481 2 2 0 0 689 742 309
1482 2 2 0 0 660 723 2
1483 2 2 0 0 23 25 1
1484 2 2 0 0 25 607 1
1485 2 2 0 0 3 34 2
1486 2 2 0 0 34 415 2
$EndElements
