$MeshFormat
2.2 0 8
$EndMeshFormat
$Nodes
745
1 5.1499340614998347e-05 2.2755387003407173e-05 1.0052579676265467e-03
2 6.7658783655589620e-05 -3.3937482709975572e-05 -1.0029423897991185e-03
3 1.3848669047054424e-04 2.2736297057355860e-05 -9.9557783369466331e-04
4 2.5740920317637118e-04 9.8479004164250030e-06 -9.7268031812200396e-04
5 3.8461019668577348e-04 1.6802282516879431e-05 -9.2951986632738165e-04
6 4.9294046407209573e-04 1.2496036133363015e-06 -8.7597127274071306e-04
7 6.1200881274501412e-04 -2.0594134285912787e-06 -7.9614949264593849e-04
8 7.2635419269410982e-04 -5.5219694576231235e-06 -6.9145876948054834e-04
9 8.2671618967241538e-04 -3.9904504051947157e-06 -5.6436153922644289e-04
10 9.0905239750691100e-04 2.4009147245910225e-06 -4.1395497505002804e-04
11 9.5870784846574281e-04 1.0766290200971426e-05 -2.7398584389687352e-04
12 9.8652904923289975e-04 3.2247005035739047e-06 -1.3787748600045622e-04
13 9.9565815048460911e-04 1.0008898981485333e-05 1.5184020289812543e-06
14 9.8540264944071173e-04 7.6557113331896021e-06 1.4507365146469343e-04
15 9.5493619137066051e-04 -5.0230727565028473e-07 2.8771216947948445e-04
16 9.0252300634939585e-04 7.5943071924974812e-06 4.2896660439199367e-04
17 8.2786159868827674e-04 4.7310509875029568e-06 5.6304665052776207e-04
18 7.3167384725643923e-04 2.4843221188212269e-06 6.8616572439629195e-04
19 6.2064140160917399e-04 9.3990126378363334e-06 7.8981758207631527e-04
20 5.0139882741483935e-04 1.5653994774063863e-06 8.7141014735163521e-04
21 3.7179183047404262e-04 1.5270566359214724e-06 9.3476455371248714e-04
22 2.4268564954737116e-04 -8.5966359896751649e-06 9.7665155689836318e-04
23 1.3545263327509257e-04 -1.9517513481899056e-05 9.9663154187320450e-04
24 1.5557250944639428e-04 1.2687085558352003e-04 -9.8626615112357152e-04
25 1.6180471777995923e-04 1.0709040539952696e-04 9.8810831163444212e-04
26 5.4893263292564724e-04 1.0707071847294720e-04 -8.3427794505930015e-04
27 5.6210153276707044e-04 -1.0519055551239844e-04 8.2632849611412567e-04
28 9.6699089744300536e-04 1.3484298090912211e-04 -1.9926654329377347e-04
29 8.5276408230047914e-04 1.4458664023757938e-04 5.0408719559615674e-04
30 9.2859443100531611e-04 -1.1824081731001457e-04 3.4644576002919753e-04
31 9.6665010108530137e-04 -1.1916032273972601e-04 -2.1047177621955144e-04
32 5.4665705629763602e-04 -1.1335346713564872e-04 -8.3540131703804322e-04
33 5.5635011273327687e-04 1.0774789883329795e-04 8.2964940167666373e-04
34 1.6555909335211444e-04 -8.5875232873595936e-05 -9.8911818531317993e-04
35 1.8803760649138061e-04 -1.0154758211983505e-04 9.8329629231284237e-04
36 7.8320869936631234e-04 -1.2570120469173278e-04 6.1235945546778245e-04
37 7.7219751722020825e-04 1.2188752968343467e-04 -6.2646983241646827e-04
38 9.8619611465118801e-04 -1.1073381420925736e-04 8.0370898221473076e-05
39 9.6500080727571203e-04 1.2233975402244971e-04 2.1612908527036758e-04
40 8.6656270643246307e-04 -1.2973539600100677e-04 -4.8162258556618307e-04
41 2.9000194961051762e-04 1.2788138459471167e-04 -9.5455833697939035e-04
42 2.1601789433919389e-04 2.2527476723491812e-04 -9.5611046529582404e-04
43 3.2393179011077006e-04 2.3083653890325128e-04 -9.2321340701215899e-04
44 3.0142390981728454e-04 1.0739576567976069e-04 9.5402799938765388e-04
45 6.7170627086646521e-04 1.1954005676354217e-04 -7.3567234202577189e-04
46 7.0966512407680954e-04 2.4614507594835646e-04 -6.6356367292747832e-04
47 2.6201318526335843e-04 3.3450388213251075e-04 -9.1082984980079260e-04
48 3.9767999707464394e-04 3.3924132495680387e-04 -8.5775769267764561e-04
49 3.3108127780791545e-04 4.3735648774043833e-04 -8.4114678195129980e-04
50 8.0523184391858031e-04 2.4405900118486861e-04 -5.4122586825256576e-04
51 7.2748350258149098e-04 3.6182081052703660e-04 -5.8476444352726818e-04
52 8.0863960912434417e-04 3.6578687641363789e-04 -4.5873250084620647e-04
53 7.3007172083542694e-04 4.7780857216760217e-04 -4.8748831379592236e-04
54 7.9922752099223645e-04 4.7650221450414807e-04 -3.5956914824634571e-04
55 7.1080921614623727e-04 5.8784409027743941e-04 -3.8036389322753408e-04
56 7.7387499946320439e-04 5.7653411131366919e-04 -2.4748430438011201e-04
57 6.2867053951618727e-04 5.9243516738850571e-04 -5.0252559971630903e-04
58 6.0064898506491068e-04 6.9229255749113882e-04 -3.9430876535541626e-04
59 5.1280054259808495e-04 6.8799068936391619e-04 -5.1230536993636118e-04
60 4.8427807295439983e-04 7.7358071513074624e-04 -4.0320088985276991e-04
61 3.8964160369783497e-04 7.5806971487037090e-04 -5.2230783606950373e-04
62 3.5682759918151901e-04 8.3867624029295882e-04 -4.0592700361310422e-04
63 1.9766419863555783e-04 4.5153620457224515e-04 -8.7537480183939756e-04
64 4.4451022046154112e-04 8.4211615595681068e-04 -2.9225200109705328e-04
65 2.5749672150707800e-04 8.1616712258839985e-04 -5.1632661323377106e-04
66 2.3072293356890639e-04 8.9051916097117334e-04 -3.8541181933571380e-04
67 1.2144075860154809e-04 8.6546848522915426e-04 -4.8381453298505019e-04
68 1.0432783049458646e-04 2.3901860987217936e-04 -9.7111980585650479e-04
69 1.4184061065317184e-04 7.6777005567685850e-04 -6.2797385997625903e-04
70 8.5350101629212748e-04 4.6365175705114669e-04 -2.2009252776436004e-04
71 8.2286629437047960e-04 5.4925890016187164e-04 -1.1043999089402204e-04
72 7.2983820547553352e-04 6.6312250255798442e-04 -1.3565645222537797e-04
73 7.6811872275482705e-04 6.3277497650825036e-04 5.9747730545309497e-06
74 6.6856951100095730e-04 7.3630671931633734e-04 -2.6698897271433847e-05
75 6.9025853571042016e-04 7.0846751006274384e-04 1.0896716650316492e-04
76 5.9761702094880003e-04 7.9169752107311787e-04 7.7645257312041336e-05
77 6.0988099471616863e-04 7.5799196135337588e-04 2.1218274644140819e-04
78 5.0431601732837570e-04 8.4019943506188032e-04 1.7518431543443974e-04
79 9.6796987018990383e-05 9.3125014391552956e-04 -3.4211449119694594e-04
80 -1.6727778756168480e-05 8.9989082488669268e-04 -4.3087581295187449e-04
81 2.3951360087299200e-04 2.1281332981171628e-04 9.5376956079855227e-04
82 5.2180527804466452e-04 7.8924095113226309e-04 3.1442846889763400e-04
83 -4.1040061569864102e-05 9.4932649970553792e-04 -2.9854725980535580e-04
84 4.0452163506605332e-04 8.6931084379631872e-04 2.7065264207063654e-04
85 4.2476087569219562e-04 8.0714273794059996e-04 4.0493166224028841e-04
86 2.9744469394448397e-04 8.7632760902391993e-04 3.7198044816115050e-04
87 3.1040961282112988e-04 8.0564558368765064e-04 5.0282562541802166e-04
88 1.8867864575985099e-04 8.5901839668058098e-04 4.7325550795093783e-04
89 1.6284046919350545e-04 9.2190562620889408e-04 3.4265586065814261e-04
90 5.3694314701716005e-05 8.9754088872386962e-04 4.3314282000183777e-04
91 6.9434761805821414e-05 8.2178746559920701e-04 5.6573177321351728e-04
92 -5.9975510916372266e-05 8.5231539542023440e-04 5.1779306767176815e-04
93 -8.1099689596733439e-05 9.1450850684690729e-04 3.8961829515620638e-04
94 -1.9092038570161325e-04 8.5858927357968830e-04 4.7240179658724696e-04
95 -1.5489787084012525e-04 8.0180863433892079e-04 5.7583289221950008e-04
96 -2.1618065419613932e-04 9.1235793895478885e-04 3.3800582982704280e-04
97 1.1312179754758816e-04 2.2646584359866135e-04 9.7381347617415146e-04
98 5.2782775113599534e-04 7.1419762557727734e-04 4.5945709928329060e-04
99 1.8195574296636812e-04 3.2480527044895794e-04 9.3429943824699293e-04
100 5.3654378524942203e-05 3.1076316318741918e-04 9.5519649551289510e-04
101 -2.2211210560220275e-05 2.1478901711007329e-04 9.8265941537394410e-04
102 -7.7129078265297427e-05 3.0805698077189904e-04 9.5438595171079294e-04
103 2.0796540730691520e-04 9.4198452632538116e-04 -2.4670668720458107e-04
104 -1.0910393504836125e-04 9.5563647939978283e-04 2.5800879256308092e-04
105 -2.4647882920429605e-04 9.4370958461317172e-04 1.9828716806759316e-04
106 -3.5008835255409586e-04 8.8896042806267314e-04 2.8169137546599151e-04
107 -1.5576813559747057e-04 9.0887802210311427e-04 -3.7921899595440658e-04
108 -1.2919603278474948e-04 8.5011793963367486e-04 -5.0839719561832997e-04
109 -3.7486119010082618e-04 9.0942496412611882e-04 1.4938778725746431e-04
110 -2.6458899758092147e-04 8.5007491654238250e-04 -4.5130902095678128e-04
111 -2.3960400112244890e-04 7.7209530867145850e-04 -5.8904216716024530e-04
112 -3.6590455925946449e-04 7.7126786283615513e-04 -5.1938349467212238e-04
113 -3.2903025779834133e-04 6.8146811106857053e-04 -6.5586367596567050e-04
114 -4.6497945741796708e-04 6.7463207077447448e-04 -5.7341572142698724e-04
115 -4.2067226854175738e-04 5.8415050770472816e-04 -6.9705426548733547e-04
116 -4.9796943780831956e-04 7.4198147632603467e-04 -4.4472529300892976e-04
117 -2.8330646777932302e-04 9.0051928872404642e-04 -3.1855358942086754e-04
118 -2.8616860733326213e-04 7.7842123725589457e-04 5.5952231532995997e-04
119 7.0559196605422825e-04 6.6690580062086699e-04 2.2095906985052742e-04
120 -2.8017949861917869e-04 5.7345798971442563e-04 -7.7408084849875857e-04
121 -3.6161380789471011e-04 4.7363740573167683e-04 -8.0770835236119076e-04
122 -4.9925084971810796e-04 4.7480017249082826e-04 -7.2811411268535126e-04
123 -4.4332933513110528e-04 3.6492260662089170e-04 -8.2335260843910917e-04
124 -5.8966660081848186e-04 6.3745251362159073e-04 -4.9364123472549854e-04
125 -6.1711856754915844e-04 6.9355996781724264e-04 -3.6368338981380581e-04
126 -6.9694812309843972e-04 5.8705364981133672e-04 -4.0606522908971318e-04
127 -4.8097006041615526e-04 8.4101212808157077e-04 2.2921355136160788e-04
128 -5.6462399950346523e-04 3.5317900985745601e-04 -7.4953739812414475e-04
129 -5.0634789558666991e-04 2.5077715613424989e-04 -8.2976935736965584e-04
130 -6.2770001262805965e-04 2.1835607219845694e-04 -7.5093532175063513e-04
131 -5.6047211884596303e-04 1.2099807245014552e-04 -8.2405713343383386e-04
132 -6.8019627937242373e-04 9.0925880051745427e-05 -7.3105599484998526e-04
133 -6.0186669341581267e-04 -1.3641156539592211e-05 -8.0320587820266454e-04
134 -7.2171300640052130e-04 -3.6794518172826113e-05 -6.9455207927852502e-04
135 -6.3249949076085309e-04 -1.4506012675092510e-04 -7.6530434592753051e-04
136 -7.9039167912434388e-04 7.4767854884355225e-05 -6.0982414749037551e-04
137 -8.2072601702331616e-04 -5.4601304975308111e-05 -5.6959653644153151e-04
138 -8.7484389015649608e-04 4.9647918756969064e-05 -4.7995209254238843e-04
139 -8.9403119149266991e-04 -8.4385216354773045e-05 -4.3648364599626835e-04
140 -9.3336628589631761e-04 1.4472329828447889e-05 -3.5067170645742884e-04
141 -9.4252325130714915e-04 -1.1596081775904568e-04 -3.0267206296653659e-04
142 -9.7231979406881984e-04 -1.5519282856128221e-05 -2.1411393038035394e-04
143 -9.7092844307964548e-04 -1.4459819184205519e-04 -1.6554205415804992e-04
144 -9.9114091830939961e-04 -3.8879214251363021e-05 -7.8278709922862384e-05
145 -9.7965081807280014e-04 -1.7166360292241619e-04 -2.9601516764231233e-05
146 -9.9164417204085451e-04 -6.0827311157500453e-05 5.3329470099627883e-05
147 -9.7151024686652221e-04 -1.8817395604508940e-04 1.0650357630714314e-04
148 -9.4921376747457431e-04 -2.9832857714791984e-04 1.7320173367157351e-05
149 -9.3369830187871306e-04 -3.0878773274174736e-04 1.5559919134442164e-04
150 -9.4684888091212008e-04 -1.9195549416275146e-04 2.4324811477838479e-04
151 -8.9942296068046582e-04 -3.1471711025763652e-04 2.9276893958891172e-04
152 -9.0056219011270394e-04 -1.9411479243779873e-04 3.8366587775158159e-04
153 -8.4190223567220761e-04 -3.2511628830698936e-04 4.2738174061869962e-04
154 -8.9416195554964015e-04 -2.1740185665716709e-04 -3.8548653298848634e-04
155 -8.3045301653425724e-04 -2.0800716002133122e-04 5.1666864982039516e-04
156 -7.6062466215406292e-04 -3.3695650262835069e-04 5.5591448046410428e-04
157 -8.8133193485146887e-04 -7.5850916938658615e-05 4.6449541767866703e-04
158 -7.4085928807849375e-04 -2.1861507366132565e-04 6.3795551294045308e-04
159 -6.6352521771485969e-04 -3.3409647868739618e-04 6.7306232502785770e-04
160 -9.9181780807893068e-04 7.6356032264095081e-05 5.8635139807685682e-06
161 -6.2935285208131990e-04 -2.1349834113467046e-04 7.5191289118133303e-04
162 -5.4865661158318255e-04 -3.2244586163614658e-04 7.7663305375918546e-04
163 -5.1164542114182489e-04 -1.1612748278337226e-04 -8.5663645042067453e-04
164 -5.2893638917677862e-04 -2.4884980790835636e-04 -8.1654168583860016e-04
165 -7.1349748510468483e-04 6.3979017209791665e-04 -2.7130477152793593e-04
166 -1.4141901528629189e-04 2.0604758780675667e-04 9.7448725357603637e-04
167 -2.1146939158721452e-04 3.1271648725734688e-04 9.3197070115823494e-04
168 -4.0841125843614370e-04 -2.0879628933170234e-04 -8.9433967717567888e-04
169 -4.3173527492630295e-04 -3.4321842368932186e-04 -8.3959123937527198e-04
170 -5.4937974100293838e-04 -3.8268826604968533e-04 -7.4725553538722246e-04
171 -4.4716337127405337e-04 -4.7775186264810556e-04 -7.6094398335101892e-04
172 -5.5378254841317236e-04 -5.0907713627337413e-04 -6.6229782097427376e-04
173 -4.3999093842616384e-04 -6.0456823358075824e-04 -6.6773969704509405e-04
174 -5.4667419386785062e-04 -6.2393829361241562e-04 -5.5973405386129020e-04
175 -4.2803495746795398e-04 -7.1207125809472148e-04 -5.5785823012538744e-04
176 -7.6459825418349848e-04 -4.4639217536824260e-04 4.6268449154772363e-04
177 -5.2088347470778630e-04 -7.2648502938114424e-04 -4.4591892957821910e-04
178 -4.0962033533275741e-04 -8.0105602094707488e-04 -4.3406408656231879e-04
179 -3.1147136986713606e-04 -7.8469540557024478e-04 -5.3655318836767145e-04
180 -2.8016454947567461e-04 -8.6351628096362990e-04 -4.1646410791803271e-04
181 -1.7925038537758078e-04 -8.3503395396813485e-04 -5.2053334267577480e-04
182 -1.4130815238670499e-04 -9.0424306568775829e-04 -3.9971475654796952e-04
183 -3.9522963795825882e-05 -8.6294744607025439e-04 -5.0438684693159843e-04
184 6.2487890747175751e-07 -9.2505972273875805e-04 -3.7559210080804578e-04
185 -1.0024992620244388e-04 -9.5520622671596057e-04 -2.6819398945765401e-04
186 3.9538047694959357e-05 -9.6598841595189433e-04 -2.4294521259164649e-04
187 -5.0406496282919692e-05 -9.8506374858229576e-04 -1.3943052199601988e-04
188 8.8427957247347685e-05 -9.8526816758469815e-04 -1.1691134989132076e-04
189 -4.2391358460466940e-06 -9.9560884875590653e-04 -1.4252258567965848e-05
190 1.2945895977095124e-04 -9.8721570985784660e-04 1.2365530591319127e-05
191 3.3113528620809154e-05 -9.8923610006703138e-04 1.1062909650165378e-04
192 1.6771945976614447e-04 -9.7260436222779243e-04 1.3512228932076494e-04
193 6.3841353265159476e-05 -9.6626621132589853e-04 2.3692420272938063e-04
194 2.1840326036823377e-04 -9.6768311579183814e-04 -8.6284498369183245e-05
195 2.0068572628461744e-04 -9.4027025106247202e-04 2.6482149952789452e-04
196 9.9916744650580195e-05 -9.2349371165436744e-04 3.6614925800829617e-04
197 1.0581261769522041e-04 -8.7397249914183061e-04 -4.7522529559418879e-04
198 -9.7168513530957059e-05 -9.8734682761960485e-04 8.3116785375483772e-05
199 2.3185541543850719e-04 -8.8734314615810468e-04 3.9563866973491501e-04
200 3.3115584604322991e-04 -8.9447769903985537e-04 2.9220716245690644e-04
201 3.6249009527540549e-04 -8.3378029059091798e-04 4.1415533929692506e-04
202 1.3176986680219456e-04 -8.5898662555102478e-04 4.9527809761175975e-04
203 4.5519576300167674e-04 -8.3248398874126938e-04 3.0864771684577995e-04
204 -8.0308440403830087e-07 -8.8359550482451697e-04 4.6793820798768035e-04
205 2.8565595150000813e-05 -8.0733750368256092e-04 5.9236635357828914e-04
206 -9.0165306142540630e-04 -4.1695362251387033e-04 6.2327158942569353e-05
207 -8.3336402645472522e-05 -7.6947802646428073e-04 -6.3720823615615908e-04
208 -1.0313178559814159e-04 -8.2521059841075568e-04 5.5746174074901376e-04
209 -6.8965983726870580e-05 -7.3423021339383916e-04 6.7981751561384707e-04
210 4.7947179733460744e-04 -7.6361122414516107e-04 4.3068777085770229e-04
211 5.6746814688744080e-04 -7.5411021120934082e-04 3.2384170214032776e-04
212 -4.9480325516701451e-04 -8.0240864038705567e-04 -3.2561062746251261e-04
213 6.1680422673924485e-05 -7.0583535230013441e-04 7.1063563843705890e-04
214 -3.4054375231677201e-05 -6.2069765414964517e-04 7.8905993996913068e-04
215 -3.1622298290311953e-04 -2.8139656839981051e-04 -9.1188655011931522e-04
216 -2.0769440523752110e-04 -7.4963846137535769e-04 6.3195927442667938e-04
217 -2.4298020545362778e-04 -8.2792623288664236e-04 5.0598720136367243e-04
218 5.4333769798524433e-04 -8.1132247336156247e-04 2.0019993362153905e-04
219 6.5134204122064513e-04 -7.2241319567244524e-04 2.1917457109961507e-04
220 6.1875631113537542e-04 -7.7560007364395952e-04 8.9351247054703361e-05
221 -6.3513687153758820e-04 -6.3136369392530732e-04 -4.4217949170805406e-04
222 7.2229979126637591e-04 -6.7804931259970709e-04 1.0634082156047306e-04
223 6.8157634599864036e-04 -7.2586109097848934e-04 -2.3552979368859615e-05
224 -2.8749569590254747e-04 -1.6952386430075413e-04 -9.4857257506651780e-04
225 -9.5618643342110774e-04 1.1515827731614608e-04 -2.5309388489715330e-04
226 9.4605384745623103e-05 -5.8754227019904893e-04 8.0968633381703445e-04
227 -8.5131897030571769e-06 -4.9427226270824646e-04 8.7570984636104246e-04
228 -5.0520784954483425e-04 -1.9452113669763833e-04 8.4649235095412602e-04
229 -5.9498575759280438e-04 -9.2749310496360369e-05 8.0319559565013039e-04
230 6.5922596585192312e-04 -6.6444790388823637e-04 3.4666768847972781e-04
231 3.8624023909115783e-04 -7.5295464880877777e-04 5.3407643771745048e-04
232 5.0264830586724989e-04 -6.5887452224586238e-04 5.6341829926138270e-04
233 7.7478860679572597e-04 -6.2555399217441310e-04 -1.1258112075660125e-05
234 7.3122525385629878e-04 -6.6190914145384736e-04 -1.4022081515469945e-04
235 -3.8043059189390760e-04 2.5312852411282674e-04 -8.9484659126188031e-04
236 2.9946289947410161e-04 3.2265030765362221e-04 9.0401662912335335e-04
237 -4.1916442221095552e-04 -2.8283908856386838e-04 8.6887870491508964e-04
238 -8.3666804751163888e-04 1.9858456207277363e-04 -5.1057276880031740e-04
239 6.3238491066295774e-04 -7.5436308780516459e-04 -1.5417287055871171e-04
240 6.8189267836158600e-04 -6.7695750610363584e-04 -2.6688850511017885e-04
241 -5.7288217001756582e-04 -4.5064839031741700e-04 6.8873903944992559e-04
242 5.7144801144088026e-04 -7.6874499229807544e-04 -2.7773857287066278e-04
243 6.1006461322034875e-04 -6.8401205221678917e-04 -3.9673370639495774e-04
244 7.1612229427919338e-04 -5.8403806065771978e-04 -3.7819463805093527e-04
245 6.3020578200119047e-04 -5.8333894116677253e-04 -5.1301026937394605e-04
246 -1.9046730309409094e-04 -2.4423695289868330e-04 -9.5704802481099641e-04
247 8.1375704148133965e-04 -5.6400509217351222e-04 1.1062771214172730e-04
248 2.2599936840478983e-04 4.3638511968999171e-04 8.7666372128093327e-04
249 -3.8240480252991658e-04 -1.5719041431739225e-04 9.1669802857612646e-04
250 3.5553858029671668e-04 4.3411859599822369e-04 8.3320720799320044e-04
251 -2.0772293047371880e-04 -3.7426726989021213e-04 -9.0972324894504338e-04
252 -8.5754149975981848e-05 -3.3864065915945816e-04 -9.4338889456653302e-04
253 3.7936761526902559e-04 9.0805527515200454e-04 1.4831912761944526e-04
254 -6.2349521267358583e-04 7.4231968643492102e-04 -2.2635768481402661e-04
255 -7.1247143606259760e-04 6.8067805597797496e-04 -1.3673710735304746e-04
256 -7.9548348264953767e-04 5.7086270838497958e-04 -1.7823783405231111e-04
257 -7.8716753243050883e-04 6.0559768241660601e-04 -5.0808367302710733e-05
258 -2.0676884005420179e-05 4.2106029808669472e-04 9.1273915488142710e-04
259 -2.9221999831393215e-04 -2.3395246314860307e-04 9.3365402789806603e-04
260 -2.7574542755174437e-04 2.1197762945298785e-04 9.4351128624825021e-04
261 -3.5211098568066972e-04 3.0355724074368728e-04 8.9103910845857225e-04
262 -2.5927947253879722e-04 -1.0813621938405626e-04 9.6612747850651631e-04
263 -1.6736454749017053e-04 -2.0074238402902260e-04 9.7173548020177856e-04
264 -8.6141143240170913e-04 4.9028025896479888e-04 -8.3835965054934457e-05
265 -8.4359203881176749e-04 5.2450628706436013e-04 4.8496896157814078e-05
266 -3.4150058667499342e-04 -7.4749410192006280e-04 5.7175966274980135e-04
267 -3.6918652212707760e-04 -8.1665931060700546e-04 4.4141524205582624e-04
268 5.1550131303546032e-04 -6.7802871153741320e-04 -5.2485598820527506e-04
269 5.2252093681509875e-04 -5.7324271751508788e-04 -6.3453629991446750e-04
270 6.2254569122893266e-04 -4.7929280909136669e-04 -6.2176680024241080e-04
271 5.0852249906966501e-04 -4.5859281240156536e-04 -7.3371112022879541e-04
272 4.0978764846985789e-04 -5.4937044340576358e-04 -7.3313106945192277e-04
273 -2.8058727377582791e-04 4.1573899750484952e-04 8.7048628390816864e-04
274 -4.1766127050096879e-04 4.0808168572095520e-04 8.1683189360838581e-04
275 3.9269663913016117e-04 -4.2019992369481590e-04 -8.2395617312523229e-04
276 2.8482636092828375e-04 -5.1079394501002287e-04 -8.1698371869361316e-04
277 -3.2404875031961087e-04 -3.5727775440400425e-04 8.8196776886622340e-04
278 -1.3872631243292159e-04 9.7767995435395802e-04 1.2033078180501247e-04
279 8.1438846918193981e-04 -5.5992495363662437e-04 -1.2255214673569388e-04
280 -2.3197078233717637e-04 4.5956439865232093e-04 -8.6246046304415413e-04
281 -1.5213870633265500e-04 5.6793450920439780e-04 -8.1363034127170412e-04
282 8.5994501220698204e-04 5.0158216860862607e-04 2.9969311795045952e-05
283 1.1499619561804800e-04 -4.6962004064377081e-04 8.8186996181132109e-04
284 -9.8470073585250396e-04 5.4626189936794003e-05 1.3163489377793404e-04
285 -9.0771467985718336e-04 -4.0192709173602438e-04 -7.1463151143630682e-05
286 -8.4617998703919904e-04 -5.2341726808067428e-04 -2.7001154597835985e-05
287 -8.3173268807032713e-04 -5.3638791584404918e-04 1.0833443550963970e-04
288 -7.6806680195598000e-04 -6.3283916482955631e-04 2.0288417062104514e-05
289 -7.4198085573022219e-04 -6.4523844463686348e-04 1.5788333779339486e-04
290 -6.7756202370696645e-04 -7.2577266697286774e-04 7.1893663980693396e-05
291 -1.9355941567202582e-04 -9.6398066507473370e-04 -1.6119077429151431e-04
292 -2.7210836977045483e-04 -8.8716817552936082e-04 3.6804812270951735e-04
293 -3.2679541507643866e-04 -5.5195417279161598e-04 -7.7253364899427938e-04
294 -1.0808354582747521e-04 -4.6402655289432660e-04 -8.8589211343767548e-04
295 -4.8653862723760908e-04 2.8599629683760452e-04 8.3076929287644377e-04
296 -5.5192886917273479e-04 3.9073133773723652e-04 7.4085461737467113e-04
297 -8.6308984327911076e-04 4.5066158725320276e-04 -2.0801517984850786e-04
298 -6.0848469906661499e-04 2.7169704097468117e-04 7.4994655156190046e-04
299 -6.7167680525851087e-04 3.6734231152112811e-04 6.4579332280337038e-04
300 -6.0498018347424954e-04 4.9486277869651492e-04 6.2580013042639769e-04
301 -7.0952656337782663e-04 4.6478828852582936e-04 5.2908320801899132e-04
302 -7.7308323437730937e-04 3.3589859097806862e-04 5.3758711061181925e-04
303 -3.0071814840708865e-04 -6.6216826867516359e-04 6.9062643859151376e-04
304 -6.3022824760857051e-04 5.9332282880002543e-04 4.9945774274427225e-04
305 -8.0732676000380308e-04 4.1704949594781663e-04 4.1252456240423673e-04
306 2.2646677464558293e-04 -5.4587309836827175e-04 8.1288026512912036e-04
307 2.4637471313136304e-04 -4.1607997353598016e-04 8.8191668271363590e-04
308 3.5171030011245461e-04 -4.8928429526578642e-04 8.0434251433275867e-04
309 -4.5636207015758268e-04 -7.3102186034476829e-04 5.0646774934607394e-04
310 -8.5588325746661746e-04 2.8772181996869251e-04 4.2525586265265144e-04
311 -3.9624960592469838e-04 -8.6312023357426159e-04 3.0473007512833169e-04
312 -7.6177909751928364e-04 6.3383626061591343e-04 8.2516284678670022e-05
313 -8.4414622028395410e-04 -5.0442542433384396e-04 -1.5625507867624090e-04
314 -7.5786794015142490e-05 9.6677431968041736e-05 9.9914712190171001e-04
315 -8.8246006091296505e-04 3.5437235370031664e-04 2.9863189219454919e-04
316 -9.7276377281427392e-04 1.8923001167850392e-04 8.6457117449121733e-05
317 -1.0738602122450153e-04 7.6191657384080047e-04 -6.3998185925687482e-04
318 2.6113621341088545e-04 -3.7674204698092296e-04 -8.9504506987358556e-04
319 -6.9204552773696108e-04 -7.1299134595470646e-04 -6.0562690520780415e-05
320 -5.9712673289876166e-04 -7.9597788941262841e-04 -3.0658078552310360e-06
321 -6.6119251830427592e-04 -4.0223296107125056e-04 -6.3593439494532785e-04
322 -8.2393644205636530e-05 -1.9670555137109877e-04 -9.8335294765615456e-04
323 5.0521949950552375e-04 -8.5523785834988055e-04 7.3387024768655694e-05
324 -6.1647598871643371e-04 7.7471111703705797e-04 -9.3874613855994278e-05
325 2.8305298866997862e-04 5.4248190932265985e-04 7.9573550460645818e-04
326 2.8987272539394510e-04 -6.3583955369412172e-04 -7.1997060075301603e-04
327 1.5861696838955655e-04 -5.9623249791680634e-04 -7.9267533483830493e-04
328 4.1529224283952572e-04 5.4161618980723717e-04 7.3502662782109378e-04
329 4.8134927599260377e-04 4.2371726534899657e-04 7.7203812142168972e-04
330 4.5419272078593410e-04 4.3916890968189159e-04 -7.7939642381947357e-04
331 -8.7327754551141026e-07 9.8091864864581968e-04 1.6734065695298109e-04
332 -2.4510751486666160e-05 9.9347337379050130e-04 3.5878096659077705e-05
333 -1.5215498357116410e-04 9.8265350447040642e-04 -1.5986152610912901e-06
334 1.1709140577826183e-04 9.8479951485373079e-04 7.5571702901787663e-05
335 3.6156775169137497e-04 -3.5722284917504086e-04 8.6774369428911755e-04
336 4.6205093341780413e-04 -4.2821155429936916e-04 7.8235961137601638e-04
337 -8.1329034678379074e-04 2.0537522396425057e-04 5.4389972208330041e-04
338 -3.5448204700874698e-04 5.1059861861357846e-04 7.8770045690234876e-04
339 -9.7664249335786954e-05 4.5602938049321657e-04 -8.8986000024103529e-04
340 3.5774265484547546e-04 -3.0352678075651649e-04 -8.8925196464446649e-04
341 3.7194538671280599e-05 -2.5950288680355263e-04 -9.7147360907588168e-04
342 -9.2623214460243011e-04 3.5255282760747936e-04 -9.5705764402773724e-05
343 1.7800970632108948e-05 -3.6242985004796008e-04 9.3859616825744539e-04
344 -5.2381507896790054e-04 6.1204165589687676e-04 5.9371248519758820e-04
345 -5.3151104662196456e-04 7.1475199162151940e-04 4.5324077093307995e-04
346 -6.5371047010993183e-04 6.5808034641189105e-04 3.6625155519659475e-04
347 6.0093519343030035e-04 -3.6371686735285402e-04 -7.1657834336646617e-04
348 7.1619639522246413e-04 -3.7564375041412097e-04 -5.9069463363369641e-04
349 5.3315975265566062e-04 5.1845266462185742e-04 6.7169539123429543e-04
350 6.0408449229808908e-04 3.9633362198219878e-04 6.9513373861818020e-04
351 6.4938916738932516e-04 4.9103885501813774e-04 5.8218810137933394e-04
352 7.1822347199386547e-04 3.5258868340882257e-04 6.0211598398074114e-04
353 7.5027352578769494e-04 4.4827923808614417e-04 4.8510839745266300e-04
354 -6.4491460700759394e-04 -7.3146810187475395e-04 2.0328784661847516e-04
355 2.5343521766205297e-04 5.5058270129295587e-04 -7.9967374128172945e-04
356 1.2756801991644045e-04 5.6283671008021071e-04 -8.2139438519732350e-04
357 -6.7742639636619959e-04 3.2218983823336977e-04 -6.6299688582782147e-04
358 5.2297525706043323e-04 -8.3224862979577906e-04 -1.6278159762795152e-04
359 4.5550863435235903e-04 -8.4177221079626452e-04 -2.8003074798772949e-04
360 -8.2237413868648120e-04 4.8288316648835574e-04 2.8820672281747178e-04
361 -1.2670317090048984e-04 -5.2845710539670110e-04 8.4544031471547431e-04
362 -1.7058485123238305e-04 3.3890928230451964e-04 -9.3089301461574624e-04
363 -2.1533752810684961e-04 5.1769061618818220e-04 8.3284020889591494e-04
364 -5.1521020456192263e-04 8.3318899014172567e-04 -1.7448803926842029e-04
365 1.5580312041071540e-04 5.4443909065185958e-04 8.2938980425241676e-04
366 -3.4804406960065205e-04 -2.7314008218006587e-05 9.4325696873839892e-04
367 -7.0754034679473637e-04 -6.3896568263653716e-04 2.9175597443289076e-04
368 2.0890209420364712e-04 6.5569053350809892e-04 7.3052461193747766e-04
369 8.8356129849597972e-05 6.3416633645616862e-04 7.7146779985764536e-04
370 6.9236044634650201e-04 -2.5562441542031087e-04 -6.7895074612321811e-04
371 -5.3771550174010121e-04 1.6553987522830474e-04 8.3209036454255831e-04
372 -6.6350681451872950e-04 1.3232252814661342e-04 7.4132061564730436e-04
373 5.5728754868160423e-04 8.2227379974504655e-04 -5.3374590047352538e-05
374 -1.2686396872335740e-04 -8.3896905674349506e-05 9.9501430615900289e-04
375 -5.9308169925468670e-05 -1.6974771020754917e-04 9.9021399685987220e-04
376 -3.0032795191571577e-04 -9.2136468530072820e-04 2.3353482214607255e-04
377 -4.3246142564898256e-04 -8.8310319507524425e-04 1.6289662885827195e-04
378 -9.2255248786991286e-04 2.0132069750714330e-04 3.2174771375605041e-04
379 4.1882184340620923e-04 6.5078722439642245e-04 -6.3638531205139942e-04
380 1.6370802964072644e-04 -7.1247015109044234e-04 -6.8634540120740203e-04
381 2.8169119821816393e-04 -7.4098847272439450e-04 -6.1200252123552561e-04
382 -8.9884998057600306e-04 -3.7844291836647401e-04 -2.0143305959994894e-04
383 -8.3090916704321109e-04 -4.6942626224567635e-04 -2.8719410470451904e-04
384 -7.7054619291031510e-04 -5.7986598910186426e-04 -2.5097034751007138e-04
385 -1.7148260900519809e-04 -9.3695261820286890e-04 2.9596406553984977e-04
386 -6.6179843067835529e-04 5.2884102697312355e-04 -5.3011109246807941e-04
387 -7.6211952181970269e-04 4.7086938128625838e-04 -4.3991292209016956e-04
388 8.7539839869641214e-04 2.5168943362154620e-04 -4.0894435006730902e-04
389 -9.0751470162178595e-04 3.2899517629112629e-04 -2.4433062188486182e-04
390 -5.0849623218845986e-04 8.5362746423727983e-04 -3.8791631086538369e-05
391 -4.0008895245547901e-04 9.0395631189321907e-04 -1.1009910332190209e-04
392 -6.0305122774491609e-04 7.8969264420779154e-04 3.2260135225662644e-05
393 -5.9199702724719824e-04 -7.9059980946437011e-04 -1.2593457888686411e-04
394 -5.0041285398171390e-04 -8.5808797174849254e-04 -6.0007604065607840e-05
395 8.2954442397076863e-05 9.8941823018994083e-04 -5.3754644303320278e-05
396 2.1650874664792992e-04 9.7046905950933383e-04 -1.4641223528782771e-05
397 5.2409420447198645e-04 3.2860992312101767e-04 -7.9085833050565005e-04
398 2.4621270316761446e-04 -2.9508006745704643e-04 9.2972690334490525e-04
399 3.6600990287247338e-04 -2.3307139464630455e-04 9.0803096593912794e-04
400 -2.7079890236362674e-04 6.1887837060284204e-04 7.4069709781583097e-04
401 -1.5828132917715580e-04 6.1312254408152898e-04 7.7721656168230045e-04
402 3.1460745400056252e-04 -6.1259929127873911e-04 7.3025348043318059e-04
403 6.4723221614523428e-04 2.7159099087562227e-04 7.1647697126630660e-04
404 6.6481442668019780e-04 5.9744070011547869e-04 4.4781625366461332e-04
405 -3.1186750652666161e-04 -9.4028609241609542e-04 1.0046617709080392e-04
406 2.5233818128613227e-04 -2.7018170116887056e-04 -9.3524729955733418e-04
407 3.5323536601368890e-04 -1.9679661123041795e-04 -9.2069373350561886e-04
408 8.9209930516316905e-05 4.5778225990471510e-04 -8.8983603853230893e-04
409 -8.8517651294553489e-04 4.2989382139674005e-04 1.5396927232811725e-04
410 -4.5108508007029447e-04 8.1335725216431136e-04 3.5926503436271878e-04
411 5.4978211039577950e-04 4.3359398708193574e-04 -7.1654179424990110e-04
412 4.5866903991594390e-04 6.4362686704850451e-04 6.1579547556413628e-04
413 8.0807363987075791e-04 3.1248279132666337e-04 4.9940004323029868e-04
414 8.3566276139864610e-04 3.9122919933324646e-04 3.8013434753951064e-04
415 3.5325188367913822e-05 -1.4865350870974078e-04 -9.9458004296487114e-04
416 -9.7124132088807075e-04 2.1174871156872830e-04 -4.0953925626506316e-05
417 -6.6938803130533840e-05 3.3639490456747480e-04 -9.4485987587862293e-04
418 -1.2818736405323706e-04 2.3386283457360957e-04 -9.6962699565249688e-04
419 3.3717980504982534e-05 1.6536571413803942e-04 -9.9107944517369691e-04
420 -5.4619216099015364e-05 -7.0646243819015068e-05 -1.0023183507037641e-03
421 -9.3954441975369638e-04 3.2306033605319115e-04 5.1144384260865488e-05
422 8.0084704100583462e-04 -2.5712051489850117e-04 -5.4223202215829454e-04
423 8.0998233092074274e-04 -3.7436037390377189e-04 -4.5018695317537499e-04
424 2.5002635837704569e-04 9.5663802455025451e-04 1.1005137154042125e-04
425 2.6852671281539944e-05 -6.7982900684817173e-04 -7.3877154929795678e-04
426 3.2507132238616127e-05 -5.4259043098973307e-04 -8.4557914739789039e-04
427 -7.7340654276626585e-05 -5.9090877330116780e-04 -8.0783717040963426e-04
428 4.0733483761139818e-04 -8.9366257158126066e-04 -1.6593112442041941e-04
429 3.1781500250355210e-04 -9.0527219579802606e-04 -2.7114855365444014e-04
430 3.6252684259493003e-04 -8.4429608303022790e-04 -3.9079570807144310e-04
431 -6.0680741016948616e-04 -7.1930823130047497e-04 3.2980344240926616e-04
432 -6.4741409413180556e-04 -6.2296217594825479e-04 4.3735931902643880e-04
433 1.3469092540643049e-04 -3.3373962204542618e-04 -9.3928602091826517e-04
434 -2.3565096293199615e-06 5.5292515674948525e-04 -8.3897614133119302e-04
435 7.1708665760955858e-05 6.6412856773109645e-04 -7.4814823335500656e-04
436 8.8145137531821542e-04 2.6659164153672836e-04 3.8520407881090750e-04
437 9.0011225667530786e-04 3.4046442393325808e-04 2.5870677894197563e-04
438 8.4985805218595325e-04 4.5169952719867129e-04 2.5699470967247923e-04
439 7.5445585061798492e-04 2.1349160601061057e-04 6.2389891150046431e-04
440 -5.7500996034833181e-04 7.5555513814745147e-04 3.0296899140441698e-04
441 -6.9397860846704708e-04 6.8240659394396875e-04 2.1211541939695382e-04
442 6.7815452507648374e-04 -1.1546542289351385e-04 7.3115355861739909e-04
443 7.2764863146279927e-04 -2.3933117168542886e-04 6.4700134772529660e-04
444 8.1252649162357588e-04 -2.4153234738371715e-04 5.3209228474801549e-04
445 7.4318671786914418e-04 -3.5958784790065894e-04 5.6653509515360110e-04
446 8.2229247332572515e-04 -3.5720156031206142e-04 4.4178187375773666e-04
447 7.4068680665268492e-04 -4.7718597626087404e-04 4.7244375641722754e-04
448 6.5689198007687702e-04 -4.7587267589807884e-04 5.8737348741167155e-04
449 8.0438406509585482e-04 -4.8157254586393060e-04 3.4266740158886243e-04
450 8.7870071401808766e-04 -3.5829619085924066e-04 3.0813422813423709e-04
451 6.4386545331607855e-04 -5.9111560058051785e-04 4.8724231906555944e-04
452 6.6992894299453432e-04 1.3451371805139466e-04 7.3580672554222600e-04
453 -5.5959794366010438e-04 -8.1383682851725748e-04 1.2604094480402170e-04
454 2.3062016747669553e-05 -4.0295803865718805e-04 -9.2140755303768949e-04
455 9.0063420654264614e-04 4.0378465641603911e-04 1.2984607536474591e-04
456 4.5953145920857031e-04 -2.1299551215680249e-04 -8.6832786266569095e-04
457 5.0101861998400391e-04 5.2784551109136615e-04 -6.8882156287322486e-04
458 6.1225216029230436e-04 -2.3560296486254160e-04 7.6109478160183786e-04
459 1.4109105769995637e-04 9.6441948626557403e-04 2.0223776773598473e-04
460 6.2297795931887643e-04 7.0023532670279286e-04 3.4056303864749227e-04
461 3.8330255673010751e-04 5.4360325292442829e-04 -7.5057469833973267e-04
462 -4.2080885536589926e-04 7.0367327702551617e-04 5.7250257127036783e-04
463 7.6904024146367937e-04 -1.3042039519909265e-04 -6.2900656133237987e-04
464 8.7904580299553439e-04 -2.5491159052194680e-04 -3.9970995471337855e-04
465 8.7392476370139606e-04 -3.6611314593166443e-04 -3.1245603822079959e-04
466 4.2233762949645671e-06 8.2390040047359506e-04 -5.6640286340854304e-04
467 9.2814824403362735e-04 -2.4664464084836907e-04 -2.6799964929507630e-04
468 9.1498891642152443e-04 -3.5665666698330540e-04 -1.7055703171388190e-04
469 1.4208194376154351e-04 3.5025897774089876e-04 -9.3150317901246325e-04
470 8.5015535169539959e-04 -4.7461406794241585e-04 2.1426589102677742e-04
471 9.1456117509559442e-04 -3.5098836450932121e-04 1.8213319294567131e-04
472 1.9692247634208368e-04 7.7452991398494788e-04 6.0257235991722537e-04
473 1.4754002486088582e-04 -2.0429366751726814e-04 -9.7394171184387083e-04
474 2.2848703639708189e-04 -8.9704919213532775e-04 -3.7385083542397393e-04
475 5.6161797697649703e-04 7.7177530400778980e-04 -2.8554271993422612e-04
476 3.2303809353934580e-04 7.1592079111036904e-04 6.2056300706502291e-04
477 2.8365193588689250e-04 7.2070910038106212e-04 -6.3456689554881028e-04
478 -1.9028333998582445e-04 -5.5571877035626182e-04 -8.1381191920043940e-04
479 -1.7394086126182879e-04 -6.6801614702461699e-04 -7.2797236586723203e-04
480 -3.9306009183298759e-04 8.3157963274650606e-04 -3.8537436420122323e-04
481 1.9076358572584957e-04 6.5667249973616062e-04 -7.3323414492932216e-04
482 7.5924611433384056e-04 -6.0015231268936806e-04 2.4399068008123322e-04
483 8.8670329512878206e-04 -4.4465124093696505e-04 8.8718628801459740e-05
484 9.3581692273371508e-04 -3.3427903877270238e-04 5.9559929880084415e-05
485 5.7487744490837620e-04 -2.3965885052017153e-04 -7.8791007736827082e-04
486 3.8705007970207594e-04 1.6110103300853154e-04 -9.1338610502234192e-04
487 9.8518540477171568e-04 1.3004440037909750e-04 -6.1803787842539313e-05
488 9.5014036159858672e-04 2.7543492980755741e-04 -1.1933685800765689e-04
489 9.6685893136934918e-04 2.3355580140569531e-04 6.1655328969211132e-06
490 8.9684055634135882e-04 4.2114663065405194e-04 -9.6334531185130823e-05
491 3.4928184516331971e-04 9.3129611892802690e-04 1.0300173000747782e-05
492 2.9673326109175502e-04 9.4137779018133776e-04 -1.2869117078283371e-04
493 4.3161838410073872e-04 8.9264955716516993e-04 -7.9364177297102571e-05
494 9.1014308342485337e-04 -4.0203930928157396e-04 -3.4741351409525121e-05
495 9.5418555998117837e-04 -2.7823608622931363e-04 -5.6727695195131409e-05
496 -3.8826288245121123e-04 9.1520341206476064e-04 2.2332754535305190e-05
497 9.8516782796738422e-04 1.2192491142622757e-04 7.6804893281068789e-05
498 6.7437267411953571e-04 6.8165628692499005e-04 -2.7068490613666710e-04
499 9.8493079929010238e-04 -1.3577118171596164e-04 -6.3632055824485649e-05
500 9.6789509408228187e-04 -1.1180199221895273e-04 2.0916582782385396e-04
501 9.2943496256044479e-04 -1.2807369429551478e-04 -3.4002639945596787e-04
502 8.5993795253846549e-04 1.2881629618417207e-04 -4.9360806689612176e-04
503 8.6604006071473629e-04 -1.2483368478649487e-04 4.8439948706181790e-04
504 4.3340459121119147e-04 1.0466418911052078e-04 9.0134235371282028e-04
505 4.1681976355168078e-04 3.2794719080169620e-04 8.5341127486567253e-04
506 6.5403872522169749e-04 -3.5996621685672022e-04 6.6943334375613552e-04
507 3.0241771737520273e-04 -9.5206120686078653e-05 9.5499256911291163e-04
508 5.4813664118730880e-05 -1.1025486806701838e-04 9.9945695688550521e-04
509 1.5872869699819241e-04 -2.0608231987970330e-04 9.7220132955432438e-04
510 2.5335193042314290e-04 -1.7422881162799898e-04 9.5737078292218978e-04
511 -2.0000552319490790e-04 6.7145558945294636e-04 -7.1672396100349559e-04
512 2.7439492338877968e-04 9.2395012963906726e-04 2.5101157771231016e-04
513 5.7310181220865712e-04 -8.1357245034485509e-04 -3.9583056464108600e-05
514 2.6006988011170648e-04 -9.6054867334958137e-04 3.4929150815430061e-05
515 2.9827772870974018e-04 -9.3689137226891722e-04 1.6129331679758376e-04
516 -5.5171893304801817e-04 5.6449884423275009e-04 -6.1507354117963523e-04
517 7.7600241392631881e-04 -5.7484578286676538e-04 -2.4764934677903053e-04
518 -1.4588891985278752e-04 -9.8408840230968572e-04 -3.9812635532337346e-05
519 -2.9410349684958625e-04 -9.5065946757581993e-04 -4.5992940450559377e-05
520 -3.3403120064138484e-04 -9.2091792367519942e-04 -1.8165938697547058e-04
521 -7.8897461630920583e-04 5.2433753006710104e-04 -3.0912493090815289e-04
522 -9.8357790345250944e-04 8.9922737458272004e-05 -1.2067602014595924e-04
523 7.8353549096070571e-04 6.0220756241933929e-04 1.1695900822924331e-04
524 -7.9770393885805757e-04 -5.4684391614716256e-04 2.3978310864726255e-04
525 7.7237369562127664e-04 5.1843883131447730e-04 3.5977137535269581e-04
526 4.8978650976182387e-04 -7.7236139752541433e-04 -4.0124816103574099e-04
527 -9.4919175311540993e-04 -2.7530597715774241e-04 -1.1806284172109916e-04
528 -9.3864557828354876e-04 -7.2673784954370329e-05 3.2851773345073375e-04
529 -9.1385979462852427e-04 5.3049764464325935e-05 3.9755360863583203e-04
530 -8.4327477119357837e-04 5.7680602988907622e-05 5.3539529368684918e-04
531 -7.7575243199675379e-04 -6.1343181391538117e-04 -1.1519217651394210e-04
532 -9.7557266862095804e-04 -6.8605986261064514e-05 1.8665975889747301e-04
533 -7.3653213078544218e-04 5.3958584929996974e-04 4.0195457434608506e-04
534 -7.0013300286897538e-04 7.0573489592828411e-04 -1.1297417068555585e-05
535 -2.3634514066666606e-04 -9.2441935786668583e-04 -2.9042495316256522e-04
536 6.2550285326019135e-04 7.5723013775973115e-04 -1.6115043692679248e-04
537 -1.3626077569456340e-04 -8.9295876443135037e-04 4.2714143805936501e-04
538 -4.2425699788411857e-05 9.8966088976876654e-04 -8.7365667772829167e-05
539 -1.7479833961177584e-04 9.4849598631080922e-04 -2.4587383352872756e-04
540 6.2208261398351828e-05 9.7343698724870384e-04 -2.0005975600866080e-04
541 -9.3529364417046807e-04 2.8477682506973583e-04 1.8756304805866308e-04
542 -8.7665547341911094e-04 -4.2794068404775971e-04 2.0125026433218414e-04
543 -8.0406686263112255e-04 -8.5069185982871961e-05 5.9014849443885767e-04
544 -7.5120800042335011e-04 4.0056600711791105e-05 6.6147181427939810e-04
545 -6.5593863421718117e-04 -5.2693895358696017e-04 -5.4122306944511965e-04
546 -7.4679550453563524e-04 -4.2683299803872066e-04 -5.0917241069823400e-04
547 -7.5203172593289432e-04 -3.0690375168163932e-04 -5.8462735094375116e-04
548 -6.5437570868018280e-04 -2.7796220364893271e-04 -7.0703488627979548e-04
549 2.6388489017918523e-04 -8.1384949163026141e-04 5.1877098642253328e-04
550 5.6826566609248291e-04 6.0260151734035331e-04 5.5963967951433034e-04
551 8.6915588863511128e-04 3.6449016419940757e-04 -3.2532769922233469e-04
552 8.8258003569457013e-04 -2.4166425787796022e-04 4.0052216549144785e-04
553 1.5746656507075797e-04 -7.7399412806843689e-04 6.1667451199502526e-04
554 -4.4371067642475615e-04 -6.4669651647152190e-04 6.2420853233937301e-04
555 -3.8190202319423184e-04 -5.6503299241630531e-04 7.3579807839164438e-04
556 -8.3222579596632586e-04 -4.3784637851314198e-04 3.3216426028044881e-04
557 -6.0301541292406597e-04 -7.2449562568984902e-04 -3.2520689763863836e-04
558 -7.2195427003651661e-04 2.5105331599578525e-04 6.4715904609748077e-04
559 -6.7744075911758148e-04 -4.5044454820308919e-04 5.8315071312487247e-04
560 -5.8007760358025579e-04 -5.6739394844017451e-04 5.8757758579182308e-04
561 6.3214648894676783e-04 4.7964786056960861e-04 -6.1155469679447991e-04
562 -3.2332277312559216e-04 -6.7925246084934358e-04 -6.6284302040524551e-04
563 -4.8411851471020264e-04 5.1108832298091972e-04 7.1371287920093365e-04
564 7.2576744168379316e-04 -4.8528675550373008e-04 -4.8752833771069631e-04
565 -6.4882740691662552e-05 -2.8008308523082536e-04 9.6438839948632092e-04
566 -1.0390920241777404e-04 -4.0239371883019884e-04 9.1593452930166313e-04
567 -1.9954568774144469e-04 -3.0938594696291267e-04 9.3618531846884350e-04
568 -1.6440458138654678e-04 -6.4516755545421267e-04 7.5136578518791538e-04
569 4.0568530566755223e-04 -6.6141556988631451e-04 -6.3409754440867236e-04
570 -7.0499177716472708e-04 -1.0007324989706879e-04 7.0564116954195200e-04
571 5.3542002744705493e-04 3.0753204663063925e-04 7.9151109888123811e-04
572 4.7913638072850858e-04 -3.3472981135164410e-04 -8.1733198685748128e-04
573 1.2839507631404442e-04 -3.4322659706211180e-04 9.3714221928104804e-04
574 -7.4245551621482950e-04 1.9957828567285102e-04 -6.4123088896546516e-04
575 1.5041576679317305e-04 -4.7031946645306142e-04 -8.7579964998674305e-04
576 -4.5014347564577994e-04 -4.3440388266575048e-04 7.8633938141338085e-04
577 -3.0611863050193286e-04 3.4755756117155597e-04 -8.9168685810844328e-04
578 -2.3897126951769024e-04 2.3360023840459932e-04 -9.4819243332673934e-04
579 -3.0481149339927098e-04 1.2881879308250169e-04 -9.4919171874186057e-04
580 -4.8571042782270303e-04 1.6147447277542796e-05 -8.7925780332232689e-04
581 4.5580866459131680e-04 -5.6380994154276516e-04 6.9469880867131220e-04
582 4.8231289244717523e-04 -2.9837579000389989e-04 8.2963775828545107e-04
583 -4.3969105434399326e-04 1.4119484921741335e-04 -8.9221693544709797e-04
584 -4.0835891964562544e-04 1.8303817383120828e-04 9.0013428509873425e-04
585 -4.4253380054634091e-04 7.1923158064815125e-05 8.9971960475252095e-04
586 -3.3609788479274893e-04 -4.1142765028600957e-04 -8.5271897241840592e-04
587 2.6535890491286869e-05 9.5000505879219753e-04 2.9910935110590605e-04
588 -3.8658279558983089e-04 -8.5224540026576756e-05 -9.2405334404033798e-04
589 -2.5216205940604752e-04 -6.2018976865753288e-05 -9.7172067254281107e-04
590 -1.8046967224669803e-04 -1.1171572442174728e-04 -9.8356906019413169e-04
591 -1.4971064381418355e-04 4.1535128558962460e-04 9.0296210170287550e-04
592 -5.1794338608073204e-04 7.9178216849753124e-04 -3.1238039307283412e-04
593 -2.2946759245641822e-04 1.6166826457316579e-06 9.7949130001217231e-04
594 3.6383283049909936e-04 2.2057901374494148e-04 9.1116044932502873e-04
595 -8.0411882708553877e-04 5.6163504831024935e-04 1.6852076392690672e-04
596 4.2340741831551433e-04 -8.8298742601620886e-04 1.8511958235321079e-04
597 9.5159482994684207e-05 4.3559922772620980e-04 9.0103110048734983e-04
598 3.2374285794504272e-04 9.0186176486783942e-04 -2.7149661201002201e-04
599 1.8516740536305879e-04 -6.6528474111090966e-04 7.2845696390035173e-04
600 -5.2691242121930459e-04 -8.0867314176869725e-04 2.4863897058267215e-04
601 -8.4396953127197647e-04 4.0687457613802129e-04 -3.4025617497914347e-04
602 -8.1368199899570085e-04 3.4578238201349461e-04 -4.6365593413270233e-04
603 -7.3900490402209896e-04 -5.3808265387840027e-04 -4.0254031888849965e-04
604 -9.0925177208404126e-04 1.4685486634154123e-04 -3.8261366823164522e-04
605 -4.0679412339112819e-04 -9.0807572724934315e-04 2.2757409582614548e-05
606 -3.1511274925483785e-04 8.4932055672095978e-04 4.1803311993772924e-04
607 4.5481377656106874e-05 1.4513690272703402e-04 9.9417796520367995e-04
608 -4.5069433194468630e-05 7.7020466395599817e-04 6.3818782716899315e-04
609 -7.4622618614364608e-04 -1.7385175972916298e-04 -6.4523675558588291e-04
610 9.5225792973231964e-04 2.5788685493784386e-04 1.4043378003385497e-04
611 4.3913572537774084e-04 -8.2362254636223465e-05 -9.0102379438098583e-04
612 9.2295111066614333e-04 1.2518035344407608e-04 3.5848198545004780e-04
613 -3.7363569549925686e-04 -8.7312864875593627e-04 -3.0490353098723533e-04
614 4.8535400335405711e-05 -7.9258697664382806e-04 -6.1090991732426242e-04
615 4.6344811411094534e-04 -8.7995123116364890e-04 -5.0407583511423940e-05
616 -6.8118239867773157e-04 -6.9915971397951882e-04 -2.0138645507211331e-04
617 -9.3162741525675561e-04 -2.4939817778168826e-04 -2.4950223393851556e-04
618 -6.1814526225263797e-04 4.4972858821017343e-04 -6.4634071692748843e-04
619 1.9059839462008874e-04 -9.5080603254033198e-04 -2.3340048744174662e-04
620 -3.3120742651354619e-05 -9.3938368882991120e-04 3.3537592742642652e-04
621 3.8959674896972427e-04 -7.6331418373437067e-04 -5.1579813880155243e-04
622 -2.2939345002646902e-04 -4.3947949326207815e-04 8.7429445860620603e-04
623 8.0291356842494182e-04 -4.7832697361857715e-04 -3.5040168521484642e-04
624 9.2688039282200001e-04 1.2947932493307109e-04 -3.4625459107268819e-04
625 -4.0375433329667865e-04 6.0977465050076772e-04 6.8451200340418261e-04
626 -2.5237372316667879e-04 -5.6126512314770896e-04 7.9338024026515033e-04
627 -9.4045986593220435e-05 5.3299735619655229e-04 8.4603232768928329e-04
628 4.7287530472587988e-04 8.7385018050300004e-04 4.9004406908643438e-05
629 -9.5783119315603665e-04 5.6458551731851945e-05 2.6799584998277908e-04
630 -5.9270854475580715e-04 7.8157490193004589e-04 1.6627755493571849e-04
631 -8.3178363397209368e-04 -1.9471692999832474e-04 -5.1924131998192370e-04
632 -4.0672011385015826e-04 8.7397376957447349e-04 -2.4912463238034864e-04
633 9.2609444819121778e-04 2.5013613304396271e-04 -2.7061447798481597e-04
634 -3.1382119377819649e-04 8.5785498756589949e-05 9.5166255689960329e-04
635 3.8723762098264103e-04 -9.1547844626859213e-04 6.0976818954873758e-05
636 -6.6380862236128983e-05 -9.7245255060484802e-04 2.0745372946094054e-04
637 -4.7494196602902136e-04 -6.1235877514379919e-05 8.8369978564422117e-04
638 4.3447978249437565e-04 2.4580882121977429e-04 -8.7123861144695956e-04
639 4.3771131048565614e-04 -1.1273966424912342e-04 8.9834389317025739e-04
640 -6.9919997353458426e-05 6.6189910675885282e-04 -7.4995169543099123e-04
641 -9.5599709780573409e-04 2.2420256409951247e-04 -1.6139286815852600e-04
642 -8.7906368539693118e-04 2.8091352940782589e-04 -3.7784555771199478e-04
643 2.8393686121831740e-04 -7.2370631115641591e-04 6.3241475606976851e-04
644 5.6262705962043219e-04 -4.6470085381039214e-04 6.8795507313245687e-04
645 6.0207868771660353e-04 2.2718688939294771e-04 -7.7018396184482755e-04
646 -2.0492284192365310e-04 1.1348712270665791e-04 9.7816640247823665e-04
647 2.7545023259966271e-05 5.3869821751291252e-04 8.4738927206958500e-04
648 -7.4550283661402198e-04 5.9127543532809025e-04 2.9198526261781143e-04
649 -2.6506188405901201e-04 9.5580919956437908e-04 7.3119529681939385e-05
650 9.3115991930774926e-04 -2.3729123421063793e-04 2.6638370358081690e-04
651 -4.7019019291574777e-04 -8.5673235937899729e-04 -1.9616714725367691e-04
652 -8.7516301611592000e-04 -3.4307695499423408e-04 -3.3189145831469404e-04
653 -1.8859938727845455e-04 1.2469166963167697e-04 -9.7991470989427045e-04
654 8.5172064414658301e-04 -4.6878389017452991e-04 -2.1919794673177747e-04
655 -7.2289389315070580e-04 4.1165555195125177e-04 -5.5400637845539442e-04
656 6.5937128654867472e-04 -1.2473462061690348e-04 -7.4637336374410812e-04
657 -7.5097989050393419e-04 -5.4077075005580608e-04 3.7285259056489436e-04
658 -3.5059055285045028e-04 2.8013260537929810e-05 -9.4171324315207980e-04
659 -1.6186305643562933e-04 1.2548966172323949e-05 -9.9315334164073836e-04
660 -4.3510900896448907e-05 -3.7930959080805597e-06 -1.0046292326546101e-03
661 8.5226607522150726e-04 -5.1453928739389595e-04 -4.9259280722863555e-06
662 4.7596908165910282e-05 -2.5249250458454363e-04 9.7314331330714161e-04
663 5.0805129405057277e-04 8.3720075122762098e-04 -1.7632967539083744e-04
664 -2.7638285604561367e-04 9.5407533370638975e-04 -4.6747018059665354e-05
665 -2.9389924383097567e-04 9.3269346879295092e-04 -1.8354805623150368e-04
666 -7.4023497659040434e-05 1.2618130809303636e-04 -9.9571272273906233e-04
667 2.5785157767222052e-04 -8.2988616155654728e-04 -4.9445048130422630e-04
668 -5.6484707421770744e-04 4.2304101934742738e-05 8.2926528796268824e-04
669 -8.2723056492918653e-04 -3.1784165155712116e-04 -4.6029768505303429e-04
670 -4.9066137691927182e-04 8.6024396113436612e-04 9.1208154792647611e-05
671 -9.6102267164713501e-04 1.5863534247593101e-04 2.0161878077124614e-04
672 5.5701429143508840e-04 -3.5869265717856160e-04 7.5313581467054374e-04
673 -1.6541482341489801e-05 2.4307547850157014e-04 -9.7568535785271730e-04
674 -1.9930330635749958e-04 -9.6090193396819619e-04 1.7045522568124319e-04
675 4.1251543642648216e-04 7.3877608505136289e-04 5.3087080192766101e-04
676 7.3091364564827242e-05 7.2768977326065636e-04 6.8506566826535983e-04
677 4.8170593349865817e-04 2.0836510671490990e-04 8.5677827884029513e-04
678 -4.9252318097061331e-04 -7.8349005805811774e-04 3.7286357828215493e-04
679 2.9264735280052674e-04 -7.2388263775013739e-05 -9.5994774684320593e-04
680 3.9047947841680623e-04 -6.6675663753813493e-04 6.3727804645648093e-04
681 -8.7673970877112206e-04 1.5658982504200368e-04 4.4965214037046139e-04
682 -8.9823855565056504e-04 4.2520586088102571e-04 1.6597176163451584e-05
683 -6.8318416382243563e-05 5.3879588035326368e-06 1.0032516904302971e-03
684 3.4678984606223071e-04 -9.3149821577613644e-04 -5.6950678871622385e-05
685 4.0643106019878109e-04 8.8869361174143482e-04 -1.8382484320234990e-04
686 1.6767122935142358e-04 -7.9829543381169422e-04 -5.7877087987696018e-04
687 1.7475691437883855e-04 9.6975392851524468e-04 -1.3047779657830919e-04
688 -8.0984395633813106e-04 -4.2181630091501615e-04 -4.0037737325732321e-04
689 -5.4279707233721686e-04 -6.4965415921810045e-04 5.3083809785961478e-04
690 5.7936462191178777e-04 -6.9030397538157853e-04 4.2965690356018142e-04
691 9.5893628327588536e-04 -2.2627429462322691e-04 1.4509569019768067e-04
692 -6.9150038882971252e-04 -5.2990304358855548e-04 4.8829764215768592e-04
693 9.3119363618926997e-04 2.2321124106753634e-04 2.7400781642890446e-04
694 -1.7366262209533151e-04 9.7231119963358062e-04 -1.1515891657515381e-04
695 9.0726196061344461e-04 3.5483784950306548e-04 -2.0328842799962292e-04
696 -5.0063353557528081e-05 6.5721908213668050e-04 7.5732374220266430e-04
697 -3.2890317954421523e-04 -4.7651224357859399e-04 8.1956457169589153e-04
698 9.3086687533729801e-04 3.5279323829615512e-04 1.3124943300769690e-05
699 -4.8495612316320114e-04 -5.3694701949799021e-04 6.9328495672229846e-04
700 -6.6110197427564539e-04 5.0938091795477040e-06 7.5326531607945756e-04
701 5.6550307680217299e-04 -5.6149333792788309e-04 6.0598892565598330e-04
702 -6.9206854806636334e-04 -6.3974230546623553e-04 -3.2328387931767250e-04
703 -7.6776275698037895e-04 3.0139933084821221e-04 -5.6349514596167256e-04
704 4.9296586310413743e-05 3.4007133845541615e-04 -9.4468546462085092e-04
705 3.0264846988277807e-04 6.2489233589513933e-04 -7.2190049134040557e-04
706 -3.0895180178854736e-04 6.8925559794930254e-04 6.5607853333101340e-04
707 1.1215767966605512e-04 -9.2815918655179866e-04 -3.4694307902946890e-04
708 -6.7719143202794678e-04 7.2022328263424151e-04 1.0077230833608814e-04
709 9.2985940883289850e-06 7.3495266400401744e-04 -6.7913805401427388e-04
710 -4.0299522134741095e-04 7.7809570617707235e-04 4.7719882492423409e-04
711 -9.2763477162638647e-04 2.2318682020636349e-04 -2.8311076024430771e-04
712 7.7031936870147787e-04 1.0421969567417076e-04 6.3126293121794027e-04
713 -2.1563456502739738e-04 -7.5265207806695452e-04 -6.2319979405847865e-04
714 6.3256108259363312e-04 3.4754074684474970e-04 -6.9584995293404939e-04
715 -2.1459503754316111e-04 -9.6968327242375363e-04 5.7473169596252945e-05
716 -2.4458033852469742e-04 4.4540043395408019e-05 -9.7384360782290210e-04
717 -4.0540014490535615e-04 -9.0414832775435698e-04 -8.9104065092065099e-05
718 4.9092730974901956e-04 -2.0268986482344467e-04 8.5268566388010361e-04
719 7.2842471988667228e-04 -5.6697091205803627e-04 3.7880036424313689e-04
720 8.4340122950215331e-04 5.0500858619218836e-04 1.5123577500001934e-04
721 2.3943312867144332e-04 -1.6487333761656820e-04 -9.6234857337683919e-04
722 -5.7373582470498434e-04 -7.7991077601414745e-04 -2.3208925273892096e-04
723 3.3158496374796989e-05 8.5231228092509667e-05 -1.0016144713836503e-03
724 -1.8735164719160187e-04 7.1026652980681851e-04 6.8225475346485884e-04
725 8.7570766874689595e-04 -4.6075009455447499e-04 -1.0541981362270842e-04
726 5.7322087908541941e-04 2.0590430479429383e-04 7.9741691408914607e-04
727 7.8681387687613575e-04 5.6342157558959556e-04 2.3382895168464119e-04
728 5.3931634718131915e-04 5.9135775113851926e-04 -5.9941511910247068e-04
729 4.6470906756559803e-04 9.7028062983845360e-05 -8.8503068223834858e-04
730 7.1168193128723226e-04 6.2064558438587548e-04 3.1670099846663034e-04
731 -2.5789683920103920e-04 -6.1726099548735033e-04 -7.4528900696782161e-04
732 3.3940650905653602e-04 6.2344122894846682e-04 7.0672116134509288e-04
733 -7.2227347340251286e-05 9.7450174245878208e-04 -1.8268964811502862e-04
734 -2.3083954797004159e-04 -4.7209824788292453e-04 -8.5538876140578847e-04
735 9.5548413456209892e-04 -2.3226685400183874e-04 -1.5428759789817460e-04
736 9.6862966690080773e-04 -2.2445067182780379e-04 3.0926181433613645e-05
737 -1.3000153309128343e-05 -5.4292113554580731e-05 1.0043302713317272e-03
738 -5.0195894821468835e-04 -8.5723911224698849e-04 4.8986706324680915e-05
739 4.8829021786264194e-04 2.1049155962478780e-04 -8.5203557293756155e-04
740 -7.6387810298306539e-04 1.3732694064417446e-04 6.3144554624239074e-04
741 -1.4328462207935871e-04 3.0273477446798598e-05 9.9474466798920311e-04
742 -5.6030500757879380e-04 -7.0190042965184002e-04 4.3424460041346582e-04
743 -5.1176719523423911e-06 4.3676040438802818e-04 -9.0419855098676559e-04
744 2.9958490961533752e-04 -9.3553850432972433e-04 -1.6032720801325930e-04
745 -8.9557405302514217e-05 -6.7472771834924399e-04 -7.3479626832401071e-04
$EndNodes
$Elements
1486
1 2 2 0 0 410 440 345
2 2 2 0 0 421 541 409
3 2 2 0 0 409 682 421
4 2 2 0 0 545 603 546
5 2 2 0 0 426 427 294
6 2 2 0 0 294 454 426
7 2 2 0 0 265 682 409
8 2 2 0 0 24 41 4
9 2 2 0 0 3 24 4
10 2 2 0 0 238 642 602
11 2 2 0 0 520 651 613
12 2 2 0 0 653 666 659
13 2 2 0 0 404 460 98
14 2 2 0 0 222 482 219
15 2 2 0 0 40 463 9
16 2 2 0 0 608 724 696
17 2 2 0 0 435 709 69
18 2 2 0 0 413 439 29
19 2 2 0 0 345 710 410
20 2 2 0 0 422 463 40
21 2 2 0 0 98 550 404
22 2 2 0 0 95 724 608
23 2 2 0 0 4 41 5
24 2 2 0 0 232 701 581
25 2 2 0 0 490 698 488
26 2 2 0 0 29 436 413
27 2 2 0 0 416 421 342
28 2 2 0 0 312 595 441
29 2 2 0 0 41 486 5
30 2 2 0 0 405 605 519
31 2 2 0 0 409 595 265
32 2 2 0 0 69 481 435
33 2 2 0 0 434 743 339
34 2 2 0 0 342 641 416
35 2 2 0 0 485 656 370
36 2 2 0 0 89 587 90
37 2 2 0 0 108 466 317
38 2 2 0 0 378 629 529
39 2 2 0 0 581 680 232
40 2 2 0 0 281 434 339
41 2 2 0 0 638 739 486
42 2 2 0 0 659 666 660
43 2 2 0 0 345 440 346
44 2 2 0 0 22 44 25
45 2 2 0 0 9 463 8
46 2 2 0 0 44 81 25
47 2 2 0 0 459 587 89
48 2 2 0 0 127 670 630
49 2 2 0 0 508 662 509
50 2 2 0 0 375 662 508
51 2 2 0 0 492 598 103
52 2 2 0 0 604 642 238
53 2 2 0 0 507 510 399
54 2 2 0 0 488 698 489
55 2 2 0 0 34 473 415
56 2 2 0 0 399 639 507
57 2 2 0 0 603 688 546
58 2 2 0 0 316 541 421
59 2 2 0 0 647 696 627
60 2 2 0 0 403 439 352
61 2 2 0 0 221 603 545
62 2 2 0 0 595 648 441
63 2 2 0 0 412 550 98
64 2 2 0 0 411 714 397
65 2 2 0 0 486 739 729
66 2 2 0 0 696 724 401
67 2 2 0 0 247 482 222
68 2 2 0 0 397 714 645
69 2 2 0 0 613 651 212
70 2 2 0 0 207 745 425
71 2 2 0 0 98 675 412
72 2 2 0 0 219 482 230
73 2 2 0 0 560 692 432
74 2 2 0 0 432 689 560
75 2 2 0 0 454 575 426
76 2 2 0 0 352 439 413
77 2 2 0 0 415 420 2
78 2 2 0 0 40 464 422
79 2 2 0 0 89 512 459
80 2 2 0 0 425 614 207
81 2 2 0 0 377 600 453
82 2 2 0 0 89 90 88
83 2 2 0 0 80 466 108
84 2 2 0 0 520 717 651
85 2 2 0 0 602 703 238
86 2 2 0 0 103 687 492
87 2 2 0 0 253 491 424
88 2 2 0 0 69 709 466
89 2 2 0 0 424 512 253
90 2 2 0 0 369 696 647
91 2 2 0 0 581 701 644
92 2 2 0 0 630 670 392
93 2 2 0 0 32 656 485
94 2 2 0 0 459 512 424
95 2 2 0 0 90 91 88
96 2 2 0 0 427 478 294
97 2 2 0 0 488 695 490
98 2 2 0 0 554 699 560
99 2 2 0 0 67 80 79
100 2 2 0 0 252 454 294
101 2 2 0 0 253 628 491
102 2 2 0 0 529 681 378
103 2 2 0 0 519 715 405
104 2 2 0 0 440 441 346
105 2 2 0 0 605 717 519
106 2 2 0 0 403 452 439
107 2 2 0 0 507 639 21
108 2 2 0 0 565 567 566
109 2 2 0 0 433 454 341
110 2 2 0 0 67 466 80
111 2 2 0 0 555 697 576
112 2 2 0 0 491 628 493
113 2 2 0 0 389 641 342
114 2 2 0 0 429 619 474
115 2 2 0 0 40 501 464
116 2 2 0 0 576 699 555
117 2 2 0 0 311 600 377
118 2 2 0 0 567 622 566
119 2 2 0 0 433 575 454
120 2 2 0 0 378 671 629
121 2 2 0 0 79 540 103
122 2 2 0 0 341 473 433
123 2 2 0 0 673 704 68
124 2 2 0 0 462 710 345
125 2 2 0 0 557 722 616
126 2 2 0 0 573 662 343
127 2 2 0 0 370 656 463
128 2 2 0 0 341 454 252
129 2 2 0 0 616 702 557
130 2 2 0 0 6 26 7
131 2 2 0 0 464 501 467
132 2 2 0 0 433 473 406
133 2 2 0 0 8 45 37
134 2 2 0 0 466 709 317
135 2 2 0 0 457 461 379
136 2 2 0 0 84 512 86
137 2 2 0 0 19 452 33
138 2 2 0 0 380 614 425
139 2 2 0 0 83 540 79
140 2 2 0 0 398 510 509
141 2 2 0 0 609 631 137
142 2 2 0 0 18 442 36
143 2 2 0 0 26 45 7
144 2 2 0 0 565 566 343
145 2 2 0 0 80 83 79
146 2 2 0 0 560 689 554
147 2 2 0 0 134 137 136
148 2 2 0 0 68 469 42
149 2 2 0 0 659 716 653
150 2 2 0 0 619 707 474
151 2 2 0 0 497 610 39
152 2 2 0 0 137 138 136
153 2 2 0 0 283 573 343
154 2 2 0 0 506 644 448
155 2 2 0 0 499 735 31
156 2 2 0 0 81 97 25
157 2 2 0 0 45 46 37
158 2 2 0 0 585 668 637
159 2 2 0 0 495 735 499
160 2 2 0 0 399 510 398
161 2 2 0 0 509 573 398
162 2 2 0 0 442 443 36
163 2 2 0 0 1 607 314
164 2 2 0 0 29 612 436
165 2 2 0 0 547 631 609
166 2 2 0 0 360 595 409
167 2 2 0 0 421 682 342
168 2 2 0 0 426 575 327
169 2 2 0 0 123 577 235
170 2 2 0 0 339 743 417
171 2 2 0 0 7 45 8
172 2 2 0 0 3 723 24
173 2 2 0 0 418 666 653
174 2 2 0 0 59 60 58
175 2 2 0 0 620 636 193
176 2 2 0 0 42 469 47
177 2 2 0 0 65 67 66
178 2 2 0 0 509 662 573
179 2 2 0 0 470 482 247
180 2 2 0 0 368 476 472
181 2 2 0 0 530 740 337
182 2 2 0 0 253 512 84
183 2 2 0 0 455 698 282
184 2 2 0 0 61 65 62
185 2 2 0 0 59 61 60
186 2 2 0 0 91 472 88
187 2 2 0 0 90 92 91
188 2 2 0 0 19 442 18
189 2 2 0 0 464 465 423
190 2 2 0 0 706 724 118
191 2 2 0 0 456 611 32
192 2 2 0 0 379 477 61
193 2 2 0 0 417 743 704
194 2 2 0 0 314 683 1
195 2 2 0 0 442 458 443
196 2 2 0 0 11 28 12
197 2 2 0 0 61 62 60
198 2 2 0 0 118 724 95
199 2 2 0 0 22 25 23
200 2 2 0 0 247 483 470
201 2 2 0 0 281 640 434
202 2 2 0 0 197 667 474
203 2 2 0 0 86 512 89
204 2 2 0 0 417 704 673
205 2 2 0 0 451 690 230
206 2 2 0 0 27 442 19
207 2 2 0 0 637 668 229
208 2 2 0 0 60 475 58
209 2 2 0 0 489 610 497
210 2 2 0 0 307 573 283
211 2 2 0 0 61 477 65
212 2 2 0 0 65 66 62
213 2 2 0 0 544 740 530
214 2 2 0 0 230 719 451
215 2 2 0 0 18 452 19
216 2 2 0 0 268 569 269
217 2 2 0 0 32 485 456
218 2 2 0 0 627 696 401
219 2 2 0 0 24 42 41
220 2 2 0 0 20 27 19
221 2 2 0 0 330 461 457
222 2 2 0 0 506 672 644
223 2 2 0 0 472 476 87
224 2 2 0 0 468 495 494
225 2 2 0 0 88 472 87
226 2 2 0 0 121 577 123
227 2 2 0 0 327 575 276
228 2 2 0 0 422 464 423
229 2 2 0 0 47 63 49
230 2 2 0 0 458 506 443
231 2 2 0 0 232 690 451
232 2 2 0 0 28 487 12
233 2 2 0 0 80 107 83
234 2 2 0 0 608 696 676
235 2 2 0 0 356 481 355
236 2 2 0 0 138 238 136
237 2 2 0 0 137 139 138
238 2 2 0 0 729 739 26
239 2 2 0 0 81 99 97
240 2 2 0 0 46 50 37
241 2 2 0 0 463 656 8
242 2 2 0 0 443 444 36
243 2 2 0 0 68 704 469
244 2 2 0 0 24 68 42
245 2 2 0 0 16 503 30
246 2 2 0 0 65 69 67
247 2 2 0 0 67 79 66
248 2 2 0 0 676 696 369
249 2 2 0 0 59 379 61
250 2 2 0 0 90 93 92
251 2 2 0 0 464 467 465
252 2 2 0 0 441 708 312
253 2 2 0 0 483 484 471
254 2 2 0 0 427 479 478
255 2 2 0 0 245 564 244
256 2 2 0 0 470 483 471
257 2 2 0 0 473 721 406
258 2 2 0 0 555 699 554
259 2 2 0 0 47 469 63
260 2 2 0 0 63 355 49
261 2 2 0 0 62 64 60
262 2 2 0 0 80 108 107
263 2 2 0 0 107 539 83
264 2 2 0 0 139 140 138
265 2 2 0 0 99 100 97
266 2 2 0 0 81 236 99
267 2 2 0 0 46 51 50
268 2 2 0 0 443 445 444
269 2 2 0 0 24 419 68
270 2 2 0 0 69 466 67
271 2 2 0 0 79 103 66
272 2 2 0 0 65 477 69
273 2 2 0 0 547 548 321
274 2 2 0 0 93 94 92
275 2 2 0 0 467 468 465
276 2 2 0 0 333 664 649
277 2 2 0 0 55 498 56
278 2 2 0 0 56 498 72
279 2 2 0 0 12 499 31
280 2 2 0 0 63 356 355
281 2 2 0 0 108 110 107
282 2 2 0 0 139 141 140
283 2 2 0 0 100 101 97
284 2 2 0 0 236 248 99
285 2 2 0 0 81 594 236
286 2 2 0 0 51 52 50
287 2 2 0 0 192 515 195
288 2 2 0 0 445 446 444
289 2 2 0 0 477 481 69
290 2 2 0 0 94 95 92
291 2 2 0 0 93 96 94
292 2 2 0 0 63 408 356
293 2 2 0 0 108 111 110
294 2 2 0 0 110 117 107
295 2 2 0 0 139 154 141
296 2 2 0 0 141 142 140
297 2 2 0 0 51 53 52
298 2 2 0 0 100 102 101
299 2 2 0 0 236 250 248
300 2 2 0 0 445 447 446
301 2 2 0 0 52 388 50
302 2 2 0 0 277 622 567
303 2 2 0 0 95 608 92
304 2 2 0 0 94 118 95
305 2 2 0 0 93 104 96
306 2 2 0 0 51 561 53
307 2 2 0 0 408 434 356
308 2 2 0 0 53 54 52
309 2 2 0 0 445 448 447
310 2 2 0 0 108 317 111
311 2 2 0 0 141 143 142
312 2 2 0 0 142 225 140
313 2 2 0 0 102 166 101
314 2 2 0 0 250 325 248
315 2 2 0 0 100 258 102
316 2 2 0 0 53 55 54
317 2 2 0 0 447 449 446
318 2 2 0 0 236 505 250
319 2 2 0 0 104 105 96
320 2 2 0 0 53 57 55
321 2 2 0 0 55 56 54
322 2 2 0 0 448 451 447
323 2 2 0 0 14 39 15
324 2 2 0 0 317 511 111
325 2 2 0 0 10 40 9
326 2 2 0 0 143 144 142
327 2 2 0 0 57 58 55
328 2 2 0 0 8 37 9
329 2 2 0 0 14 38 13
330 2 2 0 0 166 314 101
331 2 2 0 0 18 36 17
332 2 2 0 0 16 29 17
333 2 2 0 0 33 504 20
334 2 2 0 0 325 365 248
335 2 2 0 0 199 202 196
336 2 2 0 0 7 32 6
337 2 2 0 0 434 435 356
338 2 2 0 0 74 75 73
339 2 2 0 0 223 239 234
340 2 2 0 0 74 76 75
341 2 2 0 0 72 74 73
342 2 2 0 0 231 549 201
343 2 2 0 0 202 205 204
344 2 2 0 0 226 227 214
345 2 2 0 0 272 275 271
346 2 2 0 0 276 318 275
347 2 2 0 0 213 214 209
348 2 2 0 0 76 77 75
349 2 2 0 0 210 231 201
350 2 2 0 0 16 30 15
351 2 2 0 0 205 209 208
352 2 2 0 0 202 204 196
353 2 2 0 0 318 406 340
354 2 2 0 0 195 196 193
355 2 2 0 0 322 420 415
356 2 2 0 0 239 240 234
357 2 2 0 0 163 588 168
358 2 2 0 0 12 31 11
359 2 2 0 0 56 72 71
360 2 2 0 0 425 426 327
361 2 2 0 0 19 33 20
362 2 2 0 0 168 224 215
363 2 2 0 0 209 568 216
364 2 2 0 0 318 433 406
365 2 2 0 0 269 271 270
366 2 2 0 0 268 269 245
367 2 2 0 0 21 639 20
368 2 2 0 0 84 85 82
369 2 2 0 0 181 207 183
370 2 2 0 0 269 272 271
371 2 2 0 0 272 276 275
372 2 2 0 0 242 243 240
373 2 2 0 0 102 167 166
374 2 2 0 0 223 234 233
375 2 2 0 0 283 343 227
376 2 2 0 0 205 208 204
377 2 2 0 0 213 226 214
378 2 2 0 0 271 572 347
379 2 2 0 0 243 268 245
380 2 2 0 0 335 398 307
381 2 2 0 0 303 555 554
382 2 2 0 0 226 283 227
383 2 2 0 0 347 485 370
384 2 2 0 0 195 199 196
385 2 2 0 0 205 213 209
386 2 2 0 0 246 322 252
387 2 2 0 0 76 78 77
388 2 2 0 0 133 163 135
389 2 2 0 0 163 168 164
390 2 2 0 0 322 415 341
391 2 2 0 0 227 361 214
392 2 2 0 0 191 198 189
393 2 2 0 0 78 84 82
394 2 2 0 0 209 216 208
395 2 2 0 0 78 82 77
396 2 2 0 0 216 303 266
397 2 2 0 0 417 418 362
398 2 2 0 0 314 607 101
399 2 2 0 0 339 362 280
400 2 2 0 0 243 245 244
401 2 2 0 0 187 291 185
402 2 2 0 0 429 430 359
403 2 2 0 0 143 145 144
404 2 2 0 0 202 553 205
405 2 2 0 0 339 417 362
406 2 2 0 0 131 580 133
407 2 2 0 0 239 242 240
408 2 2 0 0 57 59 58
409 2 2 0 0 224 246 215
410 2 2 0 0 84 86 85
411 2 2 0 0 303 554 266
412 2 2 0 0 72 73 71
413 2 2 0 0 437 438 414
414 2 2 0 0 318 340 275
415 2 2 0 0 269 270 245
416 2 2 0 0 86 87 85
417 2 2 0 0 192 193 191
418 2 2 0 0 123 235 129
419 2 2 0 0 263 374 262
420 2 2 0 0 425 427 426
421 2 2 0 0 149 150 147
422 2 2 0 0 210 232 231
423 2 2 0 0 74 373 76
424 2 2 0 0 168 215 169
425 2 2 0 0 259 262 249
426 2 2 0 0 145 146 144
427 2 2 0 0 367 524 289
428 2 2 0 0 271 347 270
429 2 2 0 0 406 407 340
430 2 2 0 0 334 459 424
431 2 2 0 0 429 474 430
432 2 2 0 0 250 328 325
433 2 2 0 0 431 432 367
434 2 2 0 0 104 278 105
435 2 2 0 0 145 147 146
436 2 2 0 0 151 152 150
437 2 2 0 0 235 583 129
438 2 2 0 0 237 249 228
439 2 2 0 0 149 151 150
440 2 2 0 0 159 161 158
441 2 2 0 0 153 155 152
442 2 2 0 0 156 158 155
443 2 2 0 0 354 367 289
444 2 2 0 0 259 263 262
445 2 2 0 0 190 191 189
446 2 2 0 0 177 221 174
447 2 2 0 0 162 228 161
448 2 2 0 0 124 516 386
449 2 2 0 0 418 653 578
450 2 2 0 0 371 584 295
451 2 2 0 0 151 153 152
452 2 2 0 0 153 156 155
453 2 2 0 0 159 162 161
454 2 2 0 0 374 593 262
455 2 2 0 0 156 159 158
456 2 2 0 0 237 259 249
457 2 2 0 0 146 284 160
458 2 2 0 0 266 309 267
459 2 2 0 0 264 265 257
460 2 2 0 0 86 88 87
461 2 2 0 0 265 312 257
462 2 2 0 0 162 237 228
463 2 2 0 0 21 44 22
464 2 2 0 0 324 392 390
465 2 2 0 0 371 585 584
466 2 2 0 0 262 366 249
467 2 2 0 0 192 195 193
468 2 2 0 0 263 375 374
469 2 2 0 0 216 266 217
470 2 2 0 0 326 327 276
471 2 2 0 0 260 646 166
472 2 2 0 0 220 223 222
473 2 2 0 0 322 341 252
474 2 2 0 0 256 257 255
475 2 2 0 0 78 253 84
476 2 2 0 0 358 359 242
477 2 2 0 0 188 189 187
478 2 2 0 0 281 339 280
479 2 2 0 0 146 160 144
480 2 2 0 0 123 129 128
481 2 2 0 0 255 324 254
482 2 2 0 0 228 229 161
483 2 2 0 0 354 431 367
484 2 2 0 0 163 164 135
485 2 2 0 0 155 157 152
486 2 2 0 0 243 244 240
487 2 2 0 0 256 264 257
488 2 2 0 0 284 316 160
489 2 2 0 0 380 425 327
490 2 2 0 0 148 149 147
491 2 2 0 0 335 399 398
492 2 2 0 0 418 578 362
493 2 2 0 0 334 424 396
494 2 2 0 0 167 260 166
495 2 2 0 0 325 368 365
496 2 2 0 0 428 429 359
497 2 2 0 0 165 255 254
498 2 2 0 0 297 342 264
499 2 2 0 0 298 371 295
500 2 2 0 0 218 323 220
501 2 2 0 0 310 337 302
502 2 2 0 0 165 256 255
503 2 2 0 0 186 187 185
504 2 2 0 0 56 71 70
505 2 2 0 0 165 254 125
506 2 2 0 0 200 201 199
507 2 2 0 0 148 206 149
508 2 2 0 0 324 390 364
509 2 2 0 0 190 192 191
510 2 2 0 0 368 369 365
511 2 2 0 0 353 404 351
512 2 2 0 0 104 331 278
513 2 2 0 0 256 297 264
514 2 2 0 0 316 421 416
515 2 2 0 0 239 358 242
516 2 2 0 0 169 586 171
517 2 2 0 0 286 287 206
518 2 2 0 0 324 364 254
519 2 2 0 0 241 576 162
520 2 2 0 0 168 169 164
521 2 2 0 0 121 123 122
522 2 2 0 0 266 267 217
523 2 2 0 0 129 131 130
524 2 2 0 0 216 217 208
525 2 2 0 0 285 382 313
526 2 2 0 0 172 321 170
527 2 2 0 0 390 391 364
528 2 2 0 0 296 563 300
529 2 2 0 0 246 252 251
530 2 2 0 0 285 286 206
531 2 2 0 0 288 289 287
532 2 2 0 0 298 372 371
533 2 2 0 0 23 35 22
534 2 2 0 0 300 344 304
535 2 2 0 0 344 462 345
536 2 2 0 0 123 128 122
537 2 2 0 0 297 389 342
538 2 2 0 0 237 277 259
539 2 2 0 0 148 285 206
540 2 2 0 0 86 89 88
541 2 2 0 0 306 307 283
542 2 2 0 0 234 279 233
543 2 2 0 0 316 416 160
544 2 2 0 0 188 190 189
545 2 2 0 0 85 98 82
546 2 2 0 0 358 428 359
547 2 2 0 0 437 455 438
548 2 2 0 0 203 210 201
549 2 2 0 0 382 383 313
550 2 2 0 0 153 176 156
551 2 2 0 0 290 354 289
552 2 2 0 0 159 241 162
553 2 2 0 0 386 387 126
554 2 2 0 0 273 363 338
555 2 2 0 0 272 326 276
556 2 2 0 0 171 293 173
557 2 2 0 0 145 148 147
558 2 2 0 0 274 295 261
559 2 2 0 0 285 313 286
560 2 2 0 0 383 384 313
561 2 2 0 0 301 302 299
562 2 2 0 0 131 133 132
563 2 2 0 0 296 298 295
564 2 2 0 0 305 310 302
565 2 2 0 0 349 412 328
566 2 2 0 0 344 345 304
567 2 2 0 0 77 119 75
568 2 2 0 0 315 378 310
569 2 2 0 0 363 401 400
570 2 2 0 0 332 333 278
571 2 2 0 0 223 233 222
572 2 2 0 0 331 334 332
573 2 2 0 0 186 188 187
574 2 2 0 0 178 212 177
575 2 2 0 0 305 360 315
576 2 2 0 0 334 396 395
577 2 2 0 0 246 251 215
578 2 2 0 0 167 261 260
579 2 2 0 0 175 179 178
580 2 2 0 0 345 346 304
581 2 2 0 0 124 386 126
582 2 2 0 0 286 288 287
583 2 2 0 0 331 332 278
584 2 2 0 0 179 181 180
585 2 2 0 0 301 305 302
586 2 2 0 0 300 304 301
587 2 2 0 0 296 300 299
588 2 2 0 0 305 315 310
589 2 2 0 0 296 299 298
590 2 2 0 0 320 453 290
591 2 2 0 0 274 296 295
592 2 2 0 0 313 531 286
593 2 2 0 0 120 281 280
594 2 2 0 0 360 409 315
595 2 2 0 0 363 400 338
596 2 2 0 0 129 130 128
597 2 2 0 0 300 301 299
598 2 2 0 0 1 508 23
599 2 2 0 0 167 273 261
600 2 2 0 0 133 135 134
601 2 2 0 0 173 174 172
602 2 2 0 0 311 377 376
603 2 2 0 0 273 274 261
604 2 2 0 0 273 338 274
605 2 2 0 0 334 395 332
606 2 2 0 0 183 197 184
607 2 2 0 0 319 393 320
608 2 2 0 0 449 450 446
609 2 2 0 0 288 290 289
610 2 2 0 0 226 306 283
611 2 2 0 0 326 380 327
612 2 2 0 0 175 177 174
613 2 2 0 0 181 183 182
614 2 2 0 0 219 230 211
615 2 2 0 0 308 335 307
616 2 2 0 0 267 311 292
617 2 2 0 0 169 170 164
618 2 2 0 0 288 319 290
619 2 2 0 0 126 165 125
620 2 2 0 0 120 280 121
621 2 2 0 0 130 357 128
622 2 2 0 0 195 200 199
623 2 2 0 0 169 171 170
624 2 2 0 0 171 172 170
625 2 2 0 0 184 186 185
626 2 2 0 0 73 282 71
627 2 2 0 0 252 294 251
628 2 2 0 0 319 320 290
629 2 2 0 0 131 132 130
630 2 2 0 0 393 394 320
631 2 2 0 0 171 173 172
632 2 2 0 0 4 34 3
633 2 2 0 0 218 220 219
634 2 2 0 0 267 292 217
635 2 2 0 0 184 185 182
636 2 2 0 0 188 194 190
637 2 2 0 0 56 70 54
638 2 2 0 0 377 405 376
639 2 2 0 0 449 470 450
640 2 2 0 0 179 180 178
641 2 2 0 0 173 175 174
642 2 2 0 0 175 178 177
643 2 2 0 0 250 329 328
644 2 2 0 0 311 376 292
645 2 2 0 0 329 571 350
646 2 2 0 0 347 370 348
647 2 2 0 0 220 222 219
648 2 2 0 0 376 385 292
649 2 2 0 0 133 134 132
650 2 2 0 0 134 136 132
651 2 2 0 0 306 308 307
652 2 2 0 0 200 203 201
653 2 2 0 0 233 247 222
654 2 2 0 0 98 460 82
655 2 2 0 0 329 349 328
656 2 2 0 0 326 381 380
657 2 2 0 0 347 348 270
658 2 2 0 0 181 182 180
659 2 2 0 0 121 122 115
660 2 2 0 0 350 351 349
661 2 2 0 0 308 336 335
662 2 2 0 0 350 403 352
663 2 2 0 0 470 471 450
664 2 2 0 0 203 211 210
665 2 2 0 0 218 219 211
666 2 2 0 0 183 184 182
667 2 2 0 0 370 463 422
668 2 2 0 0 306 402 308
669 2 2 0 0 203 218 211
670 2 2 0 0 71 490 70
671 2 2 0 0 329 350 349
672 2 2 0 0 436 437 414
673 2 2 0 0 124 126 125
674 2 2 0 0 413 414 353
675 2 2 0 0 422 423 348
676 2 2 0 0 352 353 351
677 2 2 0 0 370 422 348
678 2 2 0 0 350 352 351
679 2 2 0 0 413 436 414
680 2 2 0 0 352 413 353
681 2 2 0 0 120 121 115
682 2 2 0 0 110 480 117
683 2 2 0 0 124 125 116
684 2 2 0 0 126 521 165
685 2 2 0 0 113 120 115
686 2 2 0 0 127 440 410
687 2 2 0 0 114 124 116
688 2 2 0 0 543 544 530
689 2 2 0 0 488 489 487
690 2 2 0 0 585 637 366
691 2 2 0 0 543 570 544
692 2 2 0 0 113 115 114
693 2 2 0 0 127 410 106
694 2 2 0 0 114 116 112
695 2 2 0 0 195 515 200
696 2 2 0 0 491 493 492
697 2 2 0 0 12 487 13
698 2 2 0 0 546 547 321
699 2 2 0 0 330 457 411
700 2 2 0 0 157 543 530
701 2 2 0 0 519 520 291
702 2 2 0 0 28 488 487
703 2 2 0 0 111 112 110
704 2 2 0 0 312 534 257
705 2 2 0 0 476 732 412
706 2 2 0 0 27 458 442
707 2 2 0 0 385 636 620
708 2 2 0 0 176 559 156
709 2 2 0 0 593 634 366
710 2 2 0 0 589 590 224
711 2 2 0 0 113 114 112
712 2 2 0 0 109 127 106
713 2 2 0 0 270 564 245
714 2 2 0 0 443 506 445
715 2 2 0 0 491 492 396
716 2 2 0 0 388 624 502
717 2 2 0 0 445 506 448
718 2 2 0 0 30 500 15
719 2 2 0 0 20 504 21
720 2 2 0 0 64 475 60
721 2 2 0 0 287 542 206
722 2 2 0 0 23 508 35
723 2 2 0 0 302 558 299
724 2 2 0 0 70 551 54
725 2 2 0 0 62 598 64
726 2 2 0 0 424 491 396
727 2 2 0 0 407 456 340
728 2 2 0 0 545 546 321
729 2 2 0 0 330 411 397
730 2 2 0 0 72 536 74
731 2 2 0 0 238 574 136
732 2 2 0 0 659 660 420
733 2 2 0 0 395 538 332
734 2 2 0 0 143 527 145
735 2 2 0 0 412 675 476
736 2 2 0 0 239 513 358
737 2 2 0 0 157 530 529
738 2 2 0 0 518 519 291
739 2 2 0 0 449 482 470
740 2 2 0 0 207 713 479
741 2 2 0 0 119 523 75
742 2 2 0 0 109 670 127
743 2 2 0 0 10 501 40
744 2 2 0 0 508 509 35
745 2 2 0 0 96 606 94
746 2 2 0 0 331 459 334
747 2 2 0 0 286 531 288
748 2 2 0 0 290 453 354
749 2 2 0 0 282 490 71
750 2 2 0 0 384 531 313
751 2 2 0 0 289 524 287
752 2 2 0 0 349 550 412
753 2 2 0 0 165 521 256
754 2 2 0 0 82 460 77
755 2 2 0 0 155 543 157
756 2 2 0 0 201 549 199
757 2 2 0 0 273 591 363
758 2 2 0 0 387 521 126
759 2 2 0 0 114 516 124
760 2 2 0 0 53 561 57
761 2 2 0 0 266 554 309
762 2 2 0 0 257 534 255
763 2 2 0 0 205 553 213
764 2 2 0 0 142 522 225
765 2 2 0 0 435 481 356
766 2 2 0 0 216 568 303
767 2 2 0 0 300 563 344
768 2 2 0 0 214 568 209
769 2 2 0 0 112 480 110
770 2 2 0 0 350 571 403
771 2 2 0 0 347 572 485
772 2 2 0 0 275 572 271
773 2 2 0 0 274 563 296
774 2 2 0 0 171 586 293
775 2 2 0 0 162 576 237
776 2 2 0 0 133 580 163
777 2 2 0 0 11 501 10
778 2 2 0 0 295 584 261
779 2 2 0 0 129 583 131
780 2 2 0 0 215 586 169
781 2 2 0 0 250 505 329
782 2 2 0 0 168 588 224
783 2 2 0 0 321 548 170
784 2 2 0 0 262 593 366
785 2 2 0 0 166 646 314
786 2 2 0 0 520 535 291
787 2 2 0 0 373 663 493
788 2 2 0 0 291 535 185
789 2 2 0 0 101 607 97
790 2 2 0 0 130 574 357
791 2 2 0 0 158 570 543
792 2 2 0 0 31 501 11
793 2 2 0 0 444 552 503
794 2 2 0 0 156 559 159
795 2 2 0 0 236 594 505
796 2 2 0 0 206 542 149
797 2 2 0 0 54 551 52
798 2 2 0 0 74 536 373
799 2 2 0 0 337 558 302
800 2 2 0 0 150 532 147
801 2 2 0 0 379 728 457
802 2 2 0 0 299 558 298
803 2 2 0 0 332 538 333
804 2 2 0 0 145 527 148
805 2 2 0 0 514 515 192
806 2 2 0 0 15 500 14
807 2 2 0 0 75 523 73
808 2 2 0 0 467 501 31
809 2 2 0 0 254 592 125
810 2 2 0 0 172 545 321
811 2 2 0 0 144 522 142
812 2 2 0 0 528 532 150
813 2 2 0 0 187 518 291
814 2 2 0 0 553 599 213
815 2 2 0 0 383 603 384
816 2 2 0 0 282 698 490
817 2 2 0 0 244 517 240
818 2 2 0 0 353 525 404
819 2 2 0 0 395 540 538
820 2 2 0 0 94 606 118
821 2 2 0 0 117 539 107
822 2 2 0 0 185 535 182
823 2 2 0 0 388 502 50
824 2 2 0 0 167 591 273
825 2 2 0 0 147 532 146
826 2 2 0 0 92 608 91
827 2 2 0 0 472 676 368
828 2 2 0 0 364 592 254
829 2 2 0 0 21 504 44
830 2 2 0 0 365 597 248
831 2 2 0 0 125 592 116
832 2 2 0 0 588 589 224
833 2 2 0 0 111 113 112
834 2 2 0 0 63 469 408
835 2 2 0 0 105 109 106
836 2 2 0 0 242 526 243
837 2 2 0 0 439 712 29
838 2 2 0 0 240 517 234
839 2 2 0 0 346 533 304
840 2 2 0 0 14 500 38
841 2 2 0 0 494 495 484
842 2 2 0 0 127 630 440
843 2 2 0 0 208 537 204
844 2 2 0 0 175 562 179
845 2 2 0 0 303 626 555
846 2 2 0 0 359 526 242
847 2 2 0 0 243 526 268
848 2 2 0 0 217 537 208
849 2 2 0 0 58 498 55
850 2 2 0 0 503 552 30
851 2 2 0 0 13 499 12
852 2 2 0 0 268 621 569
853 2 2 0 0 489 497 487
854 2 2 0 0 475 498 58
855 2 2 0 0 430 526 359
856 2 2 0 0 248 597 99
857 2 2 0 0 292 537 217
858 2 2 0 0 26 645 45
859 2 2 0 0 234 517 279
860 2 2 0 0 14 497 39
861 2 2 0 0 385 537 292
862 2 2 0 0 305 533 360
863 2 2 0 0 304 533 301
864 2 2 0 0 146 532 284
865 2 2 0 0 483 494 484
866 2 2 0 0 173 562 175
867 2 2 0 0 116 480 112
868 2 2 0 0 224 590 246
869 2 2 0 0 189 518 187
870 2 2 0 0 498 536 72
871 2 2 0 0 414 525 353
872 2 2 0 0 160 522 144
873 2 2 0 0 547 609 548
874 2 2 0 0 182 535 180
875 2 2 0 0 297 601 389
876 2 2 0 0 44 594 81
877 2 2 0 0 301 533 305
878 2 2 0 0 105 106 96
879 2 2 0 0 515 596 200
880 2 2 0 0 293 562 173
881 2 2 0 0 73 523 282
882 2 2 0 0 148 527 285
883 2 2 0 0 174 545 172
884 2 2 0 0 218 596 323
885 2 2 0 0 200 596 203
886 2 2 0 0 149 542 151
887 2 2 0 0 446 552 444
888 2 2 0 0 49 461 330
889 2 2 0 0 330 397 48
890 2 2 0 0 453 738 377
891 2 2 0 0 255 534 324
892 2 2 0 0 52 551 388
893 2 2 0 0 634 646 260
894 2 2 0 0 513 615 358
895 2 2 0 0 438 525 414
896 2 2 0 0 516 618 386
897 2 2 0 0 198 518 189
898 2 2 0 0 227 566 361
899 2 2 0 0 559 560 241
900 2 2 0 0 90 587 93
901 2 2 0 0 416 522 160
902 2 2 0 0 102 591 167
903 2 2 0 0 134 609 137
904 2 2 0 0 298 558 372
905 2 2 0 0 132 574 130
906 2 2 0 0 106 606 96
907 2 2 0 0 159 559 241
908 2 2 0 0 32 611 6
909 2 2 0 0 158 543 155
910 2 2 0 0 223 513 239
911 2 2 0 0 288 531 319
912 2 2 0 0 323 513 220
913 2 2 0 0 115 516 114
914 2 2 0 0 521 601 297
915 2 2 0 0 610 698 455
916 2 2 0 0 354 600 431
917 2 2 0 0 351 550 349
918 2 2 0 0 256 521 297
919 2 2 0 0 140 604 138
920 2 2 0 0 77 460 119
921 2 2 0 0 17 503 16
922 2 2 0 0 9 502 10
923 2 2 0 0 104 587 331
924 2 2 0 0 152 528 150
925 2 2 0 0 315 541 378
926 2 2 0 0 170 548 164
927 2 2 0 0 590 659 420
928 2 2 0 0 11 624 28
929 2 2 0 0 199 549 202
930 2 2 0 0 502 624 10
931 2 2 0 0 453 600 354
932 2 2 0 0 42 43 41
933 2 2 0 0 38 499 13
934 2 2 0 0 285 527 382
935 2 2 0 0 190 514 192
936 2 2 0 0 157 529 528
937 2 2 0 0 231 643 549
938 2 2 0 0 331 587 459
939 2 2 0 0 451 701 232
940 2 2 0 0 99 597 100
941 2 2 0 0 361 568 214
942 2 2 0 0 372 740 544
943 2 2 0 0 221 545 174
944 2 2 0 0 138 604 238
945 2 2 0 0 340 572 275
946 2 2 0 0 338 563 274
947 2 2 0 0 524 542 287
948 2 2 0 0 265 595 312
949 2 2 0 0 111 511 113
950 2 2 0 0 580 658 588
951 2 2 0 0 580 588 163
952 2 2 0 0 237 576 277
953 2 2 0 0 444 503 36
954 2 2 0 0 131 583 580
955 2 2 0 0 505 571 329
956 2 2 0 0 203 596 218
957 2 2 0 0 584 634 260
958 2 2 0 0 261 584 260
959 2 2 0 0 369 647 365
960 2 2 0 0 251 586 215
961 2 2 0 0 348 564 270
962 2 2 0 0 450 552 446
963 2 2 0 0 390 496 391
964 2 2 0 0 66 598 62
965 2 2 0 0 465 623 423
966 2 2 0 0 258 591 102
967 2 2 0 0 343 566 227
968 2 2 0 0 564 623 244
969 2 2 0 0 154 617 141
970 2 2 0 0 324 534 392
971 2 2 0 0 50 502 37
972 2 2 0 0 524 556 542
973 2 2 0 0 544 700 372
974 2 2 0 0 122 516 115
975 2 2 0 0 177 557 221
976 2 2 0 0 489 698 610
977 2 2 0 0 93 587 104
978 2 2 0 0 136 574 132
979 2 2 0 0 593 646 634
980 2 2 0 0 116 592 480
981 2 2 0 0 143 617 527
982 2 2 0 0 225 604 140
983 2 2 0 0 137 631 139
984 2 2 0 0 549 553 202
985 2 2 0 0 164 548 135
986 2 2 0 0 404 550 351
987 2 2 0 0 34 721 473
988 2 2 0 0 220 513 223
989 2 2 0 0 317 640 511
990 2 2 0 0 100 597 258
991 2 2 0 0 588 658 589
992 2 2 0 0 323 615 513
993 2 2 0 0 568 626 303
994 2 2 0 0 377 605 405
995 2 2 0 0 178 613 212
996 2 2 0 0 493 628 373
997 2 2 0 0 157 528 152
998 2 2 0 0 591 627 363
999 2 2 0 0 409 541 315
1000 2 2 0 0 183 614 197
1001 2 2 0 0 103 598 66
1002 2 2 0 0 188 619 194
1003 2 2 0 0 213 599 226
1004 2 2 0 0 306 599 402
1005 2 2 0 0 97 607 25
1006 2 2 0 0 194 514 190
1007 2 2 0 0 373 628 76
1008 2 2 0 0 78 628 253
1009 2 2 0 0 42 47 43
1010 2 2 0 0 39 612 15
1011 2 2 0 0 16 612 29
1012 2 2 0 0 437 610 455
1013 2 2 0 0 487 497 13
1014 2 2 0 0 440 630 441
1015 2 2 0 0 479 713 562
1016 2 2 0 0 196 620 193
1017 2 2 0 0 456 572 340
1018 2 2 0 0 120 511 281
1019 2 2 0 0 577 578 235
1020 2 2 0 0 335 582 399
1021 2 2 0 0 314 741 683
1022 2 2 0 0 520 613 535
1023 2 2 0 0 585 634 584
1024 2 2 0 0 423 564 348
1025 2 2 0 0 457 561 411
1026 2 2 0 0 6 611 5
1027 2 2 0 0 385 620 537
1028 2 2 0 0 228 637 229
1029 2 2 0 0 366 637 249
1030 2 2 0 0 161 570 158
1031 2 2 0 0 434 640 435
1032 2 2 0 0 193 636 191
1033 2 2 0 0 410 606 106
1034 2 2 0 0 37 502 9
1035 2 2 0 0 36 503 17
1036 2 2 0 0 141 617 143
1037 2 2 0 0 363 627 401
1038 2 2 0 0 322 590 420
1039 2 2 0 0 357 618 128
1040 2 2 0 0 430 621 526
1041 2 2 0 0 540 687 103
1042 2 2 0 0 280 577 121
1043 2 2 0 0 276 575 318
1044 2 2 0 0 362 578 577
1045 2 2 0 0 109 649 496
1046 2 2 0 0 246 590 322
1047 2 2 0 0 326 569 381
1048 2 2 0 0 569 621 381
1049 2 2 0 0 269 569 272
1050 2 2 0 0 139 631 154
1051 2 2 0 0 649 664 496
1052 2 2 0 0 537 620 204
1053 2 2 0 0 355 461 49
1054 2 2 0 0 663 685 493
1055 2 2 0 0 479 745 207
1056 2 2 0 0 343 662 565
1057 2 2 0 0 212 557 177
1058 2 2 0 0 45 645 46
1059 2 2 0 0 496 670 109
1060 2 2 0 0 366 634 585
1061 2 2 0 0 384 616 531
1062 2 2 0 0 535 613 180
1063 2 2 0 0 391 632 364
1064 2 2 0 0 308 581 336
1065 2 2 0 0 344 625 462
1066 2 2 0 0 563 625 344
1067 2 2 0 0 13 497 14
1068 2 2 0 0 480 632 117
1069 2 2 0 0 371 668 585
1070 2 2 0 0 333 649 278
1071 2 2 0 0 387 601 521
1072 2 2 0 0 47 49 48
1073 2 2 0 0 358 615 428
1074 2 2 0 0 113 511 120
1075 2 2 0 0 527 617 382
1076 2 2 0 0 105 649 109
1077 2 2 0 0 398 573 307
1078 2 2 0 0 368 676 369
1079 2 2 0 0 180 613 178
1080 2 2 0 0 153 556 176
1081 2 2 0 0 432 657 367
1082 2 2 0 0 458 718 582
1083 2 2 0 0 207 614 183
1084 2 2 0 0 407 611 456
1085 2 2 0 0 244 623 517
1086 2 2 0 0 20 639 27
1087 2 2 0 0 476 675 87
1088 2 2 0 0 319 616 393
1089 2 2 0 0 474 707 197
1090 2 2 0 0 226 599 306
1091 2 2 0 0 47 48 43
1092 2 2 0 0 186 619 188
1093 2 2 0 0 412 732 328
1094 2 2 0 0 316 671 541
1095 2 2 0 0 293 734 478
1096 2 2 0 0 492 685 598
1097 2 2 0 0 528 629 532
1098 2 2 0 0 514 635 515
1099 2 2 0 0 531 616 319
1100 2 2 0 0 8 656 7
1101 2 2 0 0 387 602 601
1102 2 2 0 0 76 628 78
1103 2 2 0 0 122 618 516
1104 2 2 0 0 651 717 394
1105 2 2 0 0 423 623 564
1106 2 2 0 0 546 669 547
1107 2 2 0 0 4 679 34
1108 2 2 0 0 542 556 151
1109 2 2 0 0 548 609 135
1110 2 2 0 0 204 620 196
1111 2 2 0 0 529 629 528
1112 2 2 0 0 482 719 230
1113 2 2 0 0 258 627 591
1114 2 2 0 0 336 582 335
1115 2 2 0 0 197 686 667
1116 2 2 0 0 583 658 580
1117 2 2 0 0 85 675 98
1118 2 2 0 0 59 728 379
1119 2 2 0 0 400 625 338
1120 2 2 0 0 394 717 605
1121 2 2 0 0 471 650 450
1122 2 2 0 0 596 635 323
1123 2 2 0 0 249 637 228
1124 2 2 0 0 515 635 596
1125 2 2 0 0 338 625 563
1126 2 2 0 0 28 633 488
1127 2 2 0 0 566 622 361
1128 2 2 0 0 229 570 161
1129 2 2 0 0 468 654 465
1130 2 2 0 0 118 710 462
1131 2 2 0 0 15 612 16
1132 2 2 0 0 589 659 590
1133 2 2 0 0 526 621 268
1134 2 2 0 0 365 647 597
1135 2 2 0 0 579 583 235
1136 2 2 0 0 22 507 21
1137 2 2 0 0 342 682 264
1138 2 2 0 0 441 648 346
1139 2 2 0 0 191 636 198
1140 2 2 0 0 578 653 579
1141 2 2 0 0 135 609 134
1142 2 2 0 0 128 618 122
1143 2 2 0 0 378 681 310
1144 2 2 0 0 230 690 211
1145 2 2 0 0 210 690 232
1146 2 2 0 0 549 643 553
1147 2 2 0 0 233 661 247
1148 2 2 0 0 10 624 11
1149 2 2 0 0 640 709 435
1150 2 2 0 0 449 719 482
1151 2 2 0 0 452 726 33
1152 2 2 0 0 362 577 280
1153 2 2 0 0 318 575 433
1154 2 2 0 0 492 687 396
1155 2 2 0 0 586 734 293
1156 2 2 0 0 357 655 618
1157 2 2 0 0 277 567 259
1158 2 2 0 0 522 641 225
1159 2 2 0 0 511 640 281
1160 2 2 0 0 247 661 483
1161 2 2 0 0 610 693 39
1162 2 2 0 0 272 569 326
1163 2 2 0 0 490 695 70
1164 2 2 0 0 553 643 599
1165 2 2 0 0 532 629 284
1166 2 2 0 0 29 712 17
1167 2 2 0 0 632 665 117
1168 2 2 0 0 618 655 386
1169 2 2 0 0 241 699 576
1170 2 2 0 0 457 728 561
1171 2 2 0 0 485 572 456
1172 2 2 0 0 430 667 621
1173 2 2 0 0 582 672 458
1174 2 2 0 0 395 687 540
1175 2 2 0 0 504 594 44
1176 2 2 0 0 181 713 207
1177 2 2 0 0 197 707 184
1178 2 2 0 0 524 657 556
1179 2 2 0 0 475 536 498
1180 2 2 0 0 394 738 320
1181 2 2 0 0 51 714 561
1182 2 2 0 0 151 556 153
1183 2 2 0 0 437 693 610
1184 2 2 0 0 361 626 568
1185 2 2 0 0 611 679 5
1186 2 2 0 0 231 680 643
1187 2 2 0 0 462 706 118
1188 2 2 0 0 390 670 496
1189 2 2 0 0 602 642 601
1190 2 2 0 0 49 330 48
1191 2 2 0 0 391 665 632
1192 2 2 0 0 508 737 375
1193 2 2 0 0 450 650 552
1194 2 2 0 0 368 732 476
1195 2 2 0 0 578 579 235
1196 2 2 0 0 402 581 308
1197 2 2 0 0 43 486 41
1198 2 2 0 0 562 713 179
1199 2 2 0 0 592 632 480
1200 2 2 0 0 416 641 522
1201 2 2 0 0 372 668 371
1202 2 2 0 0 452 712 439
1203 2 2 0 0 282 720 455
1204 2 2 0 0 556 657 176
1205 2 2 0 0 364 632 592
1206 2 2 0 0 403 726 452
1207 2 2 0 0 465 654 623
1208 2 2 0 0 278 649 105
1209 2 2 0 0 154 652 617
1210 2 2 0 0 383 688 603
1211 2 2 0 0 451 719 447
1212 2 2 0 0 317 709 640
1213 2 2 0 0 604 711 642
1214 2 2 0 0 382 652 383
1215 2 2 0 0 601 642 389
1216 2 2 0 0 284 671 316
1217 2 2 0 0 599 643 402
1218 2 2 0 0 388 633 624
1219 2 2 0 0 267 678 311
1220 2 2 0 0 337 681 530
1221 2 2 0 0 279 661 233
1222 2 2 0 0 605 738 394
1223 2 2 0 0 33 677 504
1224 2 2 0 0 386 655 387
1225 2 2 0 0 547 669 631
1226 2 2 0 0 562 731 479
1227 2 2 0 0 360 648 595
1228 2 2 0 0 432 692 657
1229 2 2 0 0 367 657 524
1230 2 2 0 0 633 695 488
1231 2 2 0 0 415 473 341
1232 2 2 0 0 644 672 336
1233 2 2 0 0 551 633 388
1234 2 2 0 0 533 648 360
1235 2 2 0 0 407 679 611
1236 2 2 0 0 323 635 615
1237 2 2 0 0 530 681 529
1238 2 2 0 0 393 651 394
1239 2 2 0 0 387 655 602
1240 2 2 0 0 238 703 574
1241 2 2 0 0 594 677 505
1242 2 2 0 0 559 692 560
1243 2 2 0 0 621 667 381
1244 2 2 0 0 405 674 376
1245 2 2 0 0 325 732 368
1246 2 2 0 0 623 654 517
1247 2 2 0 0 581 644 336
1248 2 2 0 0 346 648 533
1249 2 2 0 0 517 654 279
1250 2 2 0 0 477 705 481
1251 2 2 0 0 481 705 355
1252 2 2 0 0 561 728 57
1253 2 2 0 0 379 705 477
1254 2 2 0 0 617 652 382
1255 2 2 0 0 30 650 500
1256 2 2 0 0 376 674 385
1257 2 2 0 0 518 715 519
1258 2 2 0 0 474 667 430
1259 2 2 0 0 478 734 294
1260 2 2 0 0 624 633 28
1261 2 2 0 0 186 707 619
1262 2 2 0 0 64 663 475
1263 2 2 0 0 597 647 258
1264 2 2 0 0 377 738 605
1265 2 2 0 0 31 735 467
1266 2 2 0 0 27 718 458
1267 2 2 0 0 419 673 68
1268 2 2 0 0 616 722 393
1269 2 2 0 0 24 723 419
1270 2 2 0 0 397 638 48
1271 2 2 0 0 404 730 460
1272 2 2 0 0 91 676 472
1273 2 2 0 0 622 626 361
1274 2 2 0 0 7 656 32
1275 2 2 0 0 576 697 277
1276 2 2 0 0 471 691 650
1277 2 2 0 0 536 663 373
1278 2 2 0 0 484 691 471
1279 2 2 0 0 552 650 30
1280 2 2 0 0 311 678 600
1281 2 2 0 0 486 729 5
1282 2 2 0 0 418 673 666
1283 2 2 0 0 232 680 231
1284 2 2 0 0 5 679 4
1285 2 2 0 0 117 665 539
1286 2 2 0 0 384 702 616
1287 2 2 0 0 557 702 221
1288 2 2 0 0 87 675 85
1289 2 2 0 0 225 711 604
1290 2 2 0 0 505 677 571
1291 2 2 0 0 483 661 494
1292 2 2 0 0 263 565 375
1293 2 2 0 0 504 677 594
1294 2 2 0 0 582 718 399
1295 2 2 0 0 645 714 46
1296 2 2 0 0 534 708 392
1297 2 2 0 0 643 680 402
1298 2 2 0 0 18 712 452
1299 2 2 0 0 392 670 390
1300 2 2 0 0 221 702 603
1301 2 2 0 0 496 664 391
1302 2 2 0 0 606 710 118
1303 2 2 0 0 655 703 602
1304 2 2 0 0 608 676 91
1305 2 2 0 0 194 684 514
1306 2 2 0 0 541 671 378
1307 2 2 0 0 154 669 652
1308 2 2 0 0 399 718 639
1309 2 2 0 0 405 715 674
1310 2 2 0 0 33 726 677
1311 2 2 0 0 629 671 284
1312 2 2 0 0 468 735 495
1313 2 2 0 0 469 704 408
1314 2 2 0 0 427 745 479
1315 2 2 0 0 294 734 251
1316 2 2 0 0 461 705 379
1317 2 2 0 0 385 674 636
1318 2 2 0 0 657 692 176
1319 2 2 0 0 561 714 411
1320 2 2 0 0 631 669 154
1321 2 2 0 0 264 682 265
1322 2 2 0 0 43 638 486
1323 2 2 0 0 48 638 43
1324 2 2 0 0 194 744 684
1325 2 2 0 0 381 686 380
1326 2 2 0 0 658 716 589
1327 2 2 0 0 263 567 565
1328 2 2 0 0 310 681 337
1329 2 2 0 0 493 685 492
1330 2 2 0 0 64 685 663
1331 2 2 0 0 309 678 267
1332 2 2 0 0 600 678 431
1333 2 2 0 0 538 694 333
1334 2 2 0 0 598 685 64
1335 2 2 0 0 551 695 633
1336 2 2 0 0 560 699 241
1337 2 2 0 0 211 690 210
1338 2 2 0 0 2 723 3
1339 2 2 0 0 630 708 441
1340 2 2 0 0 467 735 468
1341 2 2 0 0 396 687 395
1342 2 2 0 0 35 507 22
1343 2 2 0 0 259 567 263
1344 2 2 0 0 417 673 418
1345 2 2 0 0 614 686 197
1346 2 2 0 0 392 708 630
1347 2 2 0 0 5 729 6
1348 2 2 0 0 279 725 661
1349 2 2 0 0 6 729 26
1350 2 2 0 0 357 703 655
1351 2 2 0 0 514 684 635
1352 2 2 0 0 540 733 538
1353 2 2 0 0 374 741 593
1354 2 2 0 0 176 692 559
1355 2 2 0 0 650 691 500
1356 2 2 0 0 484 736 691
1357 2 2 0 0 83 733 540
1358 2 2 0 0 558 740 372
1359 2 2 0 0 626 697 555
1360 2 2 0 0 436 693 437
1361 2 2 0 0 375 737 374
1362 2 2 0 0 475 663 536
1363 2 2 0 0 636 674 198
1364 2 2 0 0 674 715 198
1365 2 2 0 0 70 695 551
1366 2 2 0 0 406 721 407
1367 2 2 0 0 677 726 571
1368 2 2 0 0 258 647 627
1369 2 2 0 0 448 701 451
1370 2 2 0 0 458 672 506
1371 2 2 0 0 229 700 570
1372 2 2 0 0 684 744 428
1373 2 2 0 0 570 700 544
1374 2 2 0 0 678 742 431
1375 2 2 0 0 646 741 314
1376 2 2 0 0 603 702 384
1377 2 2 0 0 478 731 293
1378 2 2 0 0 309 742 678
1379 2 2 0 0 380 686 614
1380 2 2 0 0 494 725 468
1381 2 2 0 0 500 691 38
1382 2 2 0 0 635 684 615
1383 2 2 0 0 661 725 494
1384 2 2 0 0 679 721 34
1385 2 2 0 0 509 510 35
1386 2 2 0 0 46 714 51
1387 2 2 0 0 615 684 428
1388 2 2 0 0 432 742 689
1389 2 2 0 0 179 713 181
1390 2 2 0 0 26 739 645
1391 2 2 0 0 35 510 507
1392 2 2 0 0 574 703 357
1393 2 2 0 0 184 707 186
1394 2 2 0 0 39 693 612
1395 2 2 0 0 665 694 539
1396 2 2 0 0 312 708 534
1397 2 2 0 0 554 689 309
1398 2 2 0 0 1 737 508
1399 2 2 0 0 519 717 520
1400 2 2 0 0 277 697 622
1401 2 2 0 0 389 711 641
1402 2 2 0 0 495 736 484
1403 2 2 0 0 17 712 18
1404 2 2 0 0 212 722 557
1405 2 2 0 0 455 720 438
1406 2 2 0 0 622 697 626
1407 2 2 0 0 664 694 665
1408 2 2 0 0 447 719 449
1409 2 2 0 0 669 688 652
1410 2 2 0 0 612 693 436
1411 2 2 0 0 619 744 194
1412 2 2 0 0 57 728 59
1413 2 2 0 0 579 658 583
1414 2 2 0 0 438 727 525
1415 2 2 0 0 539 733 83
1416 2 2 0 0 479 731 478
1417 2 2 0 0 691 736 38
1418 2 2 0 0 401 724 400
1419 2 2 0 0 420 660 2
1420 2 2 0 0 328 732 325
1421 2 2 0 0 320 738 453
1422 2 2 0 0 428 744 429
1423 2 2 0 0 431 742 432
1424 2 2 0 0 425 745 427
1425 2 2 0 0 408 743 434
1426 2 2 0 0 571 726 403
1427 2 2 0 0 119 727 523
1428 2 2 0 0 625 706 462
1429 2 2 0 0 525 730 404
1430 2 2 0 0 499 736 495
1431 2 2 0 0 468 725 654
1432 2 2 0 0 336 672 582
1433 2 2 0 0 198 715 518
1434 2 2 0 0 400 724 706
1435 2 2 0 0 402 680 581
1436 2 2 0 0 589 716 659
1437 2 2 0 0 727 730 525
1438 2 2 0 0 664 665 391
1439 2 2 0 0 337 740 558
1440 2 2 0 0 293 731 562
1441 2 2 0 0 523 720 282
1442 2 2 0 0 460 730 119
1443 2 2 0 0 641 711 225
1444 2 2 0 0 429 744 619
1445 2 2 0 0 119 730 727
1446 2 2 0 0 651 722 212
1447 2 2 0 0 38 736 499
1448 2 2 0 0 667 686 381
1449 2 2 0 0 652 688 383
1450 2 2 0 0 410 710 606
1451 2 2 0 0 644 701 448
1452 2 2 0 0 666 673 419
1453 2 2 0 0 704 743 408
1454 2 2 0 0 251 734 586
1455 2 2 0 0 400 706 625
1456 2 2 0 0 546 688 669
1457 2 2 0 0 668 700 229
1458 2 2 0 0 538 733 694
1459 2 2 0 0 333 694 664
1460 2 2 0 0 565 662 375
1461 2 2 0 0 720 727 438
1462 2 2 0 0 372 700 668
1463 2 2 0 0 579 716 658
1464 2 2 0 0 642 711 389
1465 2 2 0 0 355 705 461
1466 2 2 0 0 407 721 679
1467 2 2 0 0 523 727 720
1468 2 2 0 0 654 725 279
1469 2 2 0 0 639 718 27
1470 2 2 0 0 694 733 539
1471 2 2 0 0 393 722 651
1472 2 2 0 0 645 739 397
1473 2 2 0 0 683 741 374
1474 2 2 0 0 397 739 638
1475 2 2 0 0 653 716 579
1476 2 2 0 0 666 723 660
1477 2 2 0 0 419 723 666
1478 2 2 0 0 374 737 683
1479 2 2 0 0 593 741 646
1480 2 2 0 0 683 737 1
1481 2 2 0 0 689 742 309
1482 2 2 0 0 660 723 2
1483 2 2 0 0 23 25 1
1484 2 2 0 0 25 607 1
1485 2 2 0 0 3 34 2
1486 2 2 0 0 34 415 2
$EndElements
