$MeshFormat
2.2 0 8
$EndMeshFormat
$Nodes
745
1 4.1262606505896184e-05 3.5821243537583107e-05 1.0279574462171849e-03
2 4.5885282169571304e-05 -3.7630119459404822e-05 -1.0265739224662835e-03
3 1.3511844209696992e-04 2.4486263900714197e-05 -1.0177970206475624e-03
4 2.4175693392433460e-04 3.8132102766961811e-05 -9.9649879724984618e-04
5 3.6865755281198498e-04 5.1322848228239696e-05 -9.5304279407412902e-04
6 4.9963340678203533e-04 4.9950394785542518e-08 -8.8635601646113392e-04
7 6.2268789328332938e-04 -1.2149245432432373e-05 -7.9692437298914669e-04
8 7.3654430775620019e-04 -9.7900932297185833e-06 -6.8327047558228735e-04
9 8.3709614079497947e-04 -3.4114286394781136e-06 -5.4365746488480374e-04
10 9.0405429197414652e-04 7.6733342127584999e-07 -4.1169554730882652e-04
11 9.5003201782578887e-04 4.0141329259658456e-06 -2.7835332361571074e-04
12 9.7768029788577971e-04 3.0443883504466281e-06 -1.4182050542627464e-04
13 9.8712757747990132e-04 -1.9918950439206789e-06 6.2536520916849696e-07
14 9.7748199524656104e-04 9.7280645780940818e-06 1.4136904843767262e-04
15 9.5074134637383365e-04 1.2866188428501392e-05 2.7499049483098881e-04
16 9.0323724100147777e-04 8.2665448040835046e-06 4.1393045239708606e-04
17 8.3349441312951958e-04 1.6711807010330016e-06 5.4987440505734476e-04
18 7.3484061776800142e-04 7.9018558171871028e-07 6.8584873132832133e-04
19 6.2512367403471498e-04 4.3893499786448533e-06 7.9558079826316883e-04
20 5.0386668887443488e-04 4.9798413393287590e-07 8.8428404385181665e-04
21 3.8569599262796965e-04 -6.2823936254069310e-06 9.4681667041925349e-04
22 2.6186003131366167e-04 1.0837695010648277e-05 9.9191420896580971e-04
23 1.4034719204309925e-04 -3.9051181390155582e-06 1.0177786233868606e-03
24 1.7269856834360064e-04 1.2617157431744750e-04 -1.0043658495081677e-03
25 1.6604186034865947e-04 1.0281999241661245e-04 1.0092202900587829e-03
26 5.7642115947868539e-04 1.0679000820543039e-04 -8.2607426985793428e-04
27 5.7075417544235826e-04 -1.1173863377985980e-04 8.3075193944850306e-04
28 9.5749162839613914e-04 1.3525752603437866e-04 -2.0594426735080982e-04
29 8.5629548607961316e-04 1.4583245633224178e-04 4.8902381953051224e-04
30 9.2572530157877158e-04 -1.1123213272651413e-04 3.3665222113882503e-04
31 9.5853767202631803e-04 -1.1644393031429406e-04 -2.1246682502201300e-04
32 5.3870360496639845e-04 -1.2172658803294754e-04 -8.5205977077385767e-04
33 5.5306855874787467e-04 1.1636380706609078e-04 8.4268127104721762e-04
34 1.6200584564910738e-04 -8.5546893417565295e-05 -1.0113699489919642e-03
35 1.9236967583498535e-04 -1.0144339526425569e-04 1.0034591151705608e-03
36 7.8662946364656987e-04 -1.1147621422847860e-04 6.0946956572291162e-04
37 7.8150967266418716e-04 1.1727718838280981e-04 -6.1460681614055723e-04
38 9.7854907619901520e-04 -1.0699352884179754e-04 7.2652828166619844e-05
39 9.5900184683701112e-04 1.2650804566600643e-04 2.0305626964093058e-04
40 8.6361220402375941e-04 -1.2645433375926956e-04 -4.7917801380606634e-04
41 2.9032508251437350e-04 1.3803624367753956e-04 -9.7234423898111537e-04
42 2.0144364311713790e-04 2.5756451458878153e-04 -9.7012956764192058e-04
43 3.3489366368572531e-04 2.5634726008833100e-04 -9.2884775690351350e-04
44 3.0785475881320637e-04 1.0986819534743532e-04 9.7091764082823950e-04
45 6.7861116525047929e-04 1.0892491850729961e-04 -7.3666562991915618e-04
46 7.2185301789642919e-04 2.2673352767538631e-04 -6.5866692203916445e-04
47 2.7708405560153534e-04 3.6817404102107204e-04 -9.0848867392678845e-04
48 3.9781317530559107e-04 3.5657645499541553e-04 -8.6332196328294019e-04
49 3.3147725400520917e-04 4.7232482031683934e-04 -8.3277760021096289e-04
50 8.0605920885657150e-04 2.4337556998331521e-04 -5.3477578506124575e-04
51 7.3103284728320026e-04 3.6324575339531591e-04 -5.7634635020274271e-04
52 8.0909530670995650e-04 3.6608649447385716e-04 -4.4669100454128064e-04
53 7.2220907129618849e-04 4.8960971698415565e-04 -4.7866283694680340e-04
54 7.9644615231191256e-04 4.7928761008661627e-04 -3.4325803519848138e-04
55 7.0857256531834496e-04 5.9054945421371785e-04 -3.6335545928796329e-04
56 7.7181650968323272e-04 5.7284322852395905e-04 -2.3092555604523109e-04
57 6.2883947181129052e-04 5.9697829367281064e-04 -4.8868926911152023e-04
58 6.0623187998104511e-04 6.8773442095294271e-04 -3.7803903609956332e-04
59 5.1777134689359391e-04 6.9132473248641646e-04 -4.9479169707536039e-04
60 4.8751869382314286e-04 7.7075127066422873e-04 -3.9015496283934263e-04
61 3.9648839515807186e-04 7.5972059545601986e-04 -5.0765790796036586e-04
62 3.6099288471404375e-04 8.3679609342289019e-04 -3.9167182323322764e-04
63 2.1223696057049465e-04 4.6039267679689165e-04 -8.8128770143893127e-04
64 4.4980235066522072e-04 8.3387643531426629e-04 -2.8377892336672628e-04
65 2.5748569721027487e-04 8.1743420034556535e-04 -5.0771428243931416e-04
66 2.2784556428054624e-04 8.8958805149387207e-04 -3.7371996033522210e-04
67 1.2514537786581832e-04 8.6321273540611320e-04 -4.7872359769322967e-04
68 9.8543706266912434e-05 2.4685189698032945e-04 -9.9014218004813727e-04
69 1.4405426591747176e-04 7.7249702262409262e-04 -6.2140533035503858e-04
70 8.4777434072390008e-04 4.6025588508590178e-04 -2.1426317479618996e-04
71 8.1935331220724865e-04 5.4134178524031448e-04 -1.0043564990954638e-04
72 7.2817734690322760e-04 6.5501022046852043e-04 -1.2334320072167004e-04
73 7.6510172878511875e-04 6.2319885471410737e-04 3.6595048049366950e-07
74 6.6194711254114358e-04 7.3109076922380617e-04 -2.5627179981544273e-05
75 6.8780192981877171e-04 7.0084940142027985e-04 9.7836409967088628e-05
76 5.7741659281087838e-04 7.9694504757520860e-04 7.0717510697854632e-05
77 6.0650226650922417e-04 7.5342413562153824e-04 2.0144277133777878e-04
78 4.9560375853760638e-04 8.3589412243437883e-04 1.7640214732743282e-04
79 9.2844672392455944e-05 9.2670439796915924e-04 -3.3714135614900498e-04
80 -1.2714224866821956e-05 8.9505739314361184e-04 -4.2992653265953596e-04
81 2.3781694494100087e-04 2.1900120163265266e-04 9.7208584731890116e-04
82 5.1579904969113668e-04 7.8590540262704904e-04 3.1115432473096402e-04
83 -4.2592999506316073e-05 9.4206068128380345e-04 -2.9895486005937212e-04
84 4.0100830093502934e-04 8.5961030002210408e-04 2.8127075562163392e-04
85 4.1408874475328764e-04 8.0515754686028820e-04 4.0681917386143674e-04
86 2.9315119556130696e-04 8.6950626505811308e-04 3.7567956416393629e-04
87 2.9950566509101187e-04 8.0584347379822287e-04 5.0210640168508688e-04
88 1.8032601701137470e-04 8.5895580691790771e-04 4.6752097453854873e-04
89 1.6615952857225897e-04 9.1698600950567777e-04 3.3530022075125112e-04
90 5.1388638418127442e-05 8.9698132562690915e-04 4.2244009535176766e-04
91 6.8609465675138661e-05 8.2870501760753121e-04 5.5135927083749411e-04
92 -5.8299230241373105e-05 8.5704829718524387e-04 5.0294213814882900e-04
93 -8.9559926307987564e-05 9.1302530987436101e-04 3.7549283757636520e-04
94 -1.9110402537972479e-04 8.6439574302236922e-04 4.5090680053875838e-04
95 -1.6646173741805147e-04 7.9989066115512038e-04 5.7242963855188872e-04
96 -2.2082332608875489e-04 9.0807047692511992e-04 3.2667496105103367e-04
97 1.1923149951805528e-04 2.2072833364363665e-04 9.9488378591640445e-04
98 5.3950027373704122e-04 7.0533783204078902e-04 4.4900109209915050e-04
99 1.6925387596397032e-04 3.4188326859808590e-04 9.4846511561879493e-04
100 4.2698191081760471e-05 3.3585006990914141e-04 9.6594758748855096e-04
101 -4.9994057583313744e-06 2.2075223036105619e-04 1.0025022249399058e-03
102 -9.0234320491865404e-05 3.2724715187581961e-04 9.6551226052965283e-04
103 1.9583334496909864e-04 9.3835683852245178e-04 -2.4077898666702914e-04
104 -1.1250658067257411e-04 9.5090445738797594e-04 2.4469249287874701e-04
105 -2.4344623450733979e-04 9.3410497500650170e-04 2.0895719174006026e-04
106 -3.5127376990206092e-04 8.8136148743645816e-04 2.7864002896315482e-04
107 -1.5176172591400012e-04 9.0405172114495116e-04 -3.7736437017708358e-04
108 -1.2841686186601349e-04 8.4471850411268253e-04 -5.1169917075725611e-04
109 -3.7581502349835175e-04 8.9983943041770738e-04 1.5156256189926575e-04
110 -2.6076027107003010e-04 8.4500624982488455e-04 -4.5348174505748689e-04
111 -2.3097601494213927e-04 7.7607180396803226e-04 -5.8542197518932407e-04
112 -3.6815354831178424e-04 7.6716929746578600e-04 -5.1825286143297419e-04
113 -3.3808796732094095e-04 6.9227385472295873e-04 -6.4060223041152264e-04
114 -4.6437027265888882e-04 6.7517182932862337e-04 -5.7069624245677578e-04
115 -4.2709883640752678e-04 5.9447366717681324e-04 -6.8787656032129048e-04
116 -4.9516025800392283e-04 7.3768735114748891e-04 -4.4482801182498010e-04
117 -2.8843317922050730e-04 8.9251565619045980e-04 -3.1590863686780356e-04
118 -2.8431508629560526e-04 7.8417079410111532e-04 5.4775394000185760e-04
119 6.9940574321370667e-04 6.6089700089939885e-04 2.2443358856511080e-04
120 -2.9714566279640832e-04 5.9473592322539836e-04 -7.5854820704404527e-04
121 -3.8171889187137235e-04 4.9406610803165072e-04 -7.9514575007052937e-04
122 -5.0502678789125744e-04 4.7619206137919416e-04 -7.2933377217154305e-04
123 -4.5332555981627523e-04 3.7233816831285221e-04 -8.2582503867289971e-04
124 -5.8376536283609979e-04 6.3751339543000659e-04 -4.9348749677757624e-04
125 -6.0846218119525405e-04 6.9418456378256385e-04 -3.6047851885355248e-04
126 -6.9230893497588555e-04 5.8611538633776235e-04 -4.0199564373414161e-04
127 -4.7919236474943549e-04 8.3479799172648085e-04 2.2210701565859406e-04
128 -5.7539914030549041e-04 3.4830411170328710e-04 -7.5091498053858586e-04
129 -5.1685434015139671e-04 2.3858614772348901e-04 -8.3899904228352065e-04
130 -6.3472582676537116e-04 2.2265110297224058e-04 -7.5092196176517910e-04
131 -5.6873667428548099e-04 1.0988991422150540e-04 -8.3163953571332007e-04
132 -6.8534968049766736e-04 9.2091918142111692e-05 -7.3223225872060416e-04
133 -6.1769987141033764e-04 -1.8899732403629650e-05 -8.0078972888975291e-04
134 -7.2631819246572716e-04 -4.1136291000463134e-05 -6.9344227916186621e-04
135 -6.5102246390348194e-04 -1.5003696145281513e-04 -7.5582347409188541e-04
136 -7.8835303178346311e-04 7.6192322691408105e-05 -6.1171662908159237e-04
137 -8.1895742771194901e-04 -6.6954720038462241e-05 -5.6750885431911034e-04
138 -8.6819465968999835e-04 5.3732933810326129e-05 -4.8338332573448956e-04
139 -8.8751716177518710e-04 -9.2845919098733234e-05 -4.3650471943026357e-04
140 -9.2780559939671268e-04 2.0856110245028996e-05 -3.4642183727550991e-04
141 -9.3648944850537616e-04 -1.1557382120355633e-04 -2.9793777379956161e-04
142 -9.6495990397975785e-04 -1.2988876456060933e-05 -2.1077583448784456e-04
143 -9.6291775809650526e-04 -1.4559840334935076e-04 -1.6213212276340963e-04
144 -9.8260889497709032e-04 -4.0814687069710424e-05 -7.6810338814134170e-05
145 -9.7063612480715103e-04 -1.7359088132301652e-04 -2.5546710587004682e-05
146 -9.8294217534893708e-04 -6.1583669518713334e-05 5.3399925900613546e-05
147 -9.6245887402011813e-04 -1.8997735936554153e-04 1.0633834212094863e-04
148 -9.3836981187152041e-04 -3.0327129045955927e-04 2.5295450039597193e-05
149 -9.2310229693457369e-04 -3.1274790730053472e-04 1.5830084478444937e-04
150 -9.3922089262188195e-04 -1.9618931792421616e-04 2.3773767496907349e-04
151 -8.9195644397622531e-04 -3.1505992876777386e-04 2.9079052380904315e-04
152 -8.9672367981066879e-04 -1.9682524017992226e-04 3.7506520081636576e-04
153 -8.4045895836779201e-04 -3.1857702966252641e-04 4.2257830762809965e-04
154 -8.8930845279563118e-04 -2.2114990113991051e-04 -3.7865343184607171e-04
155 -8.3087141727173643e-04 -2.0155150839500996e-04 5.1168795467177429e-04
156 -7.6350074366432952e-04 -3.2933215700075365e-04 5.5216622936990294e-04
157 -8.7841343287215488e-04 -6.8318555033874349e-05 4.6126702252947765e-04
158 -7.4335123976935124e-04 -2.1489385547260336e-04 6.3666147956320041e-04
159 -6.6339708406278368e-04 -3.3647726850425817e-04 6.7471792460649881e-04
160 -9.8368130001329928e-04 6.9923752839919637e-05 4.3864137130628229e-06
161 -6.3880551960340533e-04 -2.1961559365137070e-04 7.4861950321300605e-04
162 -5.5168460761307898e-04 -3.2783363740007313e-04 7.8084685814525177e-04
163 -5.2908815504488789e-04 -1.2074887953546147e-04 -8.5837069576914673e-04
164 -5.5477060593632434e-04 -2.5416532403996531e-04 -8.0750172004043447e-04
165 -7.0933656083814901e-04 6.3403803916932551e-04 -2.6938438410416602e-04
166 -1.4256338575048796e-04 2.2399732455907341e-04 9.9053679319977103e-04
167 -2.2708934983137877e-04 3.1680317718327277e-04 9.4442947577613658e-04
168 -4.2515829043277367e-04 -2.1498767917198428e-04 -9.0046946305690466e-04
169 -4.4016255923983014e-04 -3.5045306923207756e-04 -8.4445530402166508e-04
170 -5.5906875738096623e-04 -3.8558552217911297e-04 -7.4523294592891980e-04
171 -4.4458340012319176e-04 -4.7836788848643237e-04 -7.7032247220580803e-04
172 -5.5762034369868658e-04 -5.1216527837373322e-04 -6.5845213189263561e-04
173 -4.4283679787376570e-04 -5.9720664686352311e-04 -6.7514736874680693e-04
174 -5.4078644183817642e-04 -6.2712721594859939e-04 -5.5792332947996099e-04
175 -4.2990059309026417e-04 -7.0568816253095180e-04 -5.6085452562961054e-04
176 -7.6857912000310264e-04 -4.3064046683468119e-04 4.6117428944266435e-04
177 -5.1901794243969777e-04 -7.2155805713932492e-04 -4.4505769446931946e-04
178 -4.0576475326843219e-04 -7.9548250666667218e-04 -4.3624404544610615e-04
179 -3.1240910183119282e-04 -7.7794688148127356e-04 -5.4093673623622530e-04
180 -2.8018725116656524e-04 -8.5728589914285430e-04 -4.1629652238175897e-04
181 -1.8010578668657004e-04 -8.3050928562203611e-04 -5.2147820218998342e-04
182 -1.4300959010651699e-04 -8.9765906324257229e-04 -3.9979799854377145e-04
183 -4.6058445764491432e-05 -8.5626233183814908e-04 -5.0846661125056411e-04
184 -1.5231360599732046e-05 -9.1720930283263234e-04 -3.7863885708809330e-04
185 -1.0240459925084593e-04 -9.4706331253961934e-04 -2.6869668232276309e-04
186 3.3419540558524645e-05 -9.5779866927792013e-04 -2.4529067063826308e-04
187 -5.5588368260450594e-05 -9.7619250981984581e-04 -1.4048269191930176e-04
188 8.6796548509992486e-05 -9.7649243905149885e-04 -1.2035034029643229e-04
189 -9.1123973407811307e-06 -9.8689506421656002e-04 -1.6130294497157031e-05
190 1.2890728953424840e-04 -9.7863630092071973e-04 9.6284257207135729e-06
191 2.9429096880391359e-05 -9.8100522487540331e-04 1.0950834546016118e-04
192 1.6410169629000674e-04 -9.6466923510235927e-04 1.3562866352322678e-04
193 6.5401787944085554e-05 -9.5914001998026260e-04 2.3305569546171174e-04
194 2.1973101167176791e-04 -9.5824678601853753e-04 -9.1032773642687773e-05
195 1.9914034472048224e-04 -9.3393578507346478e-04 2.6042251685756305e-04
196 9.6898758579260679e-05 -9.1790763329771693e-04 3.6405262902324502e-04
197 1.0798026184852525e-04 -8.6930565304168368e-04 -4.7456715016462440e-04
198 -9.7059186620294705e-05 -9.7918603052971369e-04 7.7825706907256562e-05
199 2.3304848297246326e-04 -8.8347002998977219e-04 3.8871216651902859e-04
200 3.3214804020130137e-04 -8.8869614558616770e-04 2.8390201124489146e-04
201 3.6152438920110543e-04 -8.2826101470360027e-04 4.1298875610361129e-04
202 1.2947235254882422e-04 -8.5572170211464229e-04 4.9387933837557454e-04
203 4.5433903549650705e-04 -8.2653568984035019e-04 3.0307137960340001e-04
204 -4.7850235461890810e-06 -8.8233583724969139e-04 4.6034303059844668e-04
205 2.9377540772907065e-05 -8.0724029408713992e-04 5.9041349416526407e-04
206 -8.8903201267883346e-04 -4.2192268859377865e-04 7.3071232979172025e-05
207 -8.7369447358268902e-05 -7.7437156506600662e-04 -6.3081911158648606e-04
208 -1.0429734721753418e-04 -8.2535711149050843e-04 5.5276130914184150e-04
209 -7.0957431846150994e-05 -7.3796787502535194e-04 6.7848393987805268e-04
210 4.8113661134464066e-04 -7.5636188481567504e-04 4.2966241439525155e-04
211 5.6650155746927112e-04 -7.5070556619152742e-04 3.1151725915646645e-04
212 -4.8961125097446456e-04 -7.9837150199999721e-04 -3.2227810986809445e-04
213 5.7724960172177503e-05 -7.1287712038967110e-04 7.0839885769989239e-04
214 -3.9320375480051913e-05 -6.3285750648984151e-04 7.8803874693707655e-04
215 -3.1673110696712212e-04 -3.0227770469915032e-04 -9.2161372894993042e-04
216 -2.0408897055001099e-04 -7.4970390114360332e-04 6.3356149634433991e-04
217 -2.3621175729056652e-04 -8.2831758560948578e-04 5.0129022706949954e-04
218 5.4014064951232634e-04 -8.0584521642704352e-04 1.9072099256863066e-04
219 6.5280436995726978e-04 -7.1307726645499219e-04 2.0898204623012812e-04
220 6.1558096229032296e-04 -7.6759321869413573e-04 8.5624436702372972e-05
221 -6.2556582616899933e-04 -6.3768732905464145e-04 -4.3506565389275380e-04
222 7.1606753392857694e-04 -6.7259083515782336e-04 1.0427218391016231e-04
223 6.7826024519204676e-04 -7.1716776364153434e-04 -2.4675446996318225e-05
224 -2.9355222616657585e-04 -1.6545641026937427e-04 -9.6677555425490392e-04
225 -9.5060244151618086e-04 1.1119513612318268e-04 -2.4575406261240603e-04
226 8.3026844483290860e-05 -5.9840622692022393e-04 8.1339530441546729e-04
227 -7.8205495197813139e-06 -5.1244122304410443e-04 8.7925876970968298e-04
228 -5.2418372075398038e-04 -1.9873947254492910e-04 8.4600700210464672e-04
229 -5.9784170495779884e-04 -9.7436182888677923e-05 8.1070138579901138e-04
230 6.6647933991878256e-04 -6.5119264807603542e-04 3.3864143969528722e-04
231 3.9101362972271045e-04 -7.5038036651129325e-04 5.2863773790760447e-04
232 5.1594458068565468e-04 -6.5847827101481540e-04 5.4672406203281818e-04
233 7.6567583553867617e-04 -6.2307126504844510e-04 -1.6220247836244566e-05
234 7.2687808007598656e-04 -6.5449380637694896e-04 -1.3939023845272665e-04
235 -3.9139785305291800e-04 2.5959799082730614e-04 -9.0369191443096842e-04
236 2.9569563749398588e-04 3.4011147058232803e-04 9.1481959887675655e-04
237 -4.3619892817144763e-04 -3.0044733128215109e-04 8.6788504902352384e-04
238 -8.3518257127839120e-04 1.9749869628826007e-04 -5.0673869290180089e-04
239 6.3415954378483836e-04 -7.4288609579839472e-04 -1.4986517086406734e-04
240 6.7425668652652587e-04 -6.7306036774381702e-04 -2.6906782554124312e-04
241 -5.7832421346595885e-04 -4.3987837500119562e-04 6.9512759915897973e-04
242 5.6948666052272160e-04 -7.6252161323838764e-04 -2.7285142447208721e-04
243 6.0295723997339033e-04 -6.8273689091787320e-04 -3.9563214530099366e-04
244 7.0377192682461169e-04 -5.8795280252333217e-04 -3.7983082209022478e-04
245 6.2437485842887044e-04 -5.8897270330969900e-04 -5.0699763425436021e-04
246 -1.9154107239891384e-04 -2.5312851688312797e-04 -9.7395378030691354e-04
247 8.0341219854562329e-04 -5.6525733808389508e-04 1.0361304865907654e-04
248 2.3352391802233504e-04 4.4695167993963428e-04 8.8354542867469243e-04
249 -3.9646489082975769e-04 -1.5773341087454119e-04 9.2754785754041718e-04
250 3.6197176783977575e-04 4.3809008729223933e-04 8.4015444568867463e-04
251 -2.2154140849974180e-04 -3.6501075241038750e-04 -9.2709311851506423e-04
252 -9.3408060299752087e-05 -3.3770621521655536e-04 -9.6160597108868758e-04
253 3.7222018402451116e-04 9.0246483777906136e-04 1.4699807047859414e-04
254 -6.1708871121019698e-04 7.3675659295460738e-04 -2.2924704641307219e-04
255 -7.0759018827296354e-04 6.7326316338775689e-04 -1.4005741378999992e-04
256 -7.9043653269446790e-04 5.6574437798715576e-04 -1.7237009358768993e-04
257 -7.7717493979680260e-04 6.0529329645666696e-04 -4.2933143496229409e-05
258 -2.8455602252080445e-05 4.3846871291800644e-04 9.2033027913365523e-04
259 -3.0776434980499246e-04 -2.3920993652386884e-04 9.4522150676629082e-04
260 -2.7695751711690766e-04 2.0755742295052069e-04 9.6302051145405910e-04
261 -3.5852635333660077e-04 3.1079624846469349e-04 9.0118228658062180e-04
262 -2.6869866400874062e-04 -1.1136587168751593e-04 9.8315660843952641e-04
263 -1.7560578654974066e-04 -1.8553045482861305e-04 9.9409753742474316e-04
264 -8.5226433252613796e-04 4.9030146292189055e-04 -7.8309038503420408e-05
265 -8.2669679342582789e-04 5.3498733118431912e-04 5.2258561028093970e-05
266 -3.3927959508795862e-04 -7.4745685044009754e-04 5.7004616006945644e-04
267 -3.6788961604466069e-04 -8.1459975406039035e-04 4.3470256828542645e-04
268 5.1089819030081013e-04 -6.8319787681497444e-04 -5.1642400957069626e-04
269 5.2177772102820412e-04 -5.8039281753449648e-04 -6.2882220006050410e-04
270 6.3449234153546089e-04 -4.8052260196197998e-04 -6.0740871659991052e-04
271 5.1970177417926455e-04 -4.6519305082628863e-04 -7.2718159173981527e-04
272 4.0197415034826084e-04 -5.5801561010372961e-04 -7.3724320635892837e-04
273 -3.0474118834343999e-04 4.1860453355251699e-04 8.7455283105500987e-04
274 -4.3376486106472549e-04 4.1528023149418837e-04 8.1485935911023886e-04
275 3.9571303214127647e-04 -4.3577680450903873e-04 -8.2543583970603302e-04
276 2.8262349160067116e-04 -5.2584035912924638e-04 -8.1883724373193122e-04
277 -3.3600565240914673e-04 -3.7472710556372182e-04 8.8466688917916995e-04
278 -1.2705976728242681e-04 9.7004447345074474e-04 1.2824483545382544e-04
279 8.0403726079467986e-04 -5.5887510043596772e-04 -1.2860417722473401e-04
280 -2.3991358183804331e-04 4.7889853006360061e-04 -8.6291256376300890e-04
281 -1.5051038386835048e-04 5.7659785472894873e-04 -8.1865624786454190e-04
282 8.5810950165734448e-04 4.8836625436801120e-04 2.3016208013169509e-05
283 1.1767618510182465e-04 -4.6809376239656205e-04 8.9750024356710059e-04
284 -9.7754635086283698e-04 5.0540027411486886e-05 1.2279344860871807e-04
285 -8.9781361977710888e-04 -4.0386308131981402e-04 -6.6106835893458407e-05
286 -8.3874168292311362e-04 -5.1931034553577267e-04 -1.9231002668012867e-05
287 -8.2454647926094820e-04 -5.3022750412326470e-04 1.1624824072261518e-04
288 -7.6071753679147266e-04 -6.2797467997084482e-04 2.6357551453652143e-05
289 -7.4001336951604675e-04 -6.3517186315525747e-04 1.5613715585638106e-04
290 -6.6791349301259094e-04 -7.2324594657359334e-04 6.9220926075109519e-05
291 -1.9668650082770215e-04 -9.5480728927737257e-04 -1.6101466903036498e-04
292 -2.6839945716238505e-04 -8.8182986721046467e-04 3.6682760349729295e-04
293 -3.3919201401336294e-04 -5.5337831334001386e-04 -7.7427802044135389e-04
294 -9.8794505186890194e-05 -4.7440181408531771e-04 -8.9661539650618685e-04
295 -4.9149621868524256e-04 3.0298731638892309e-04 8.3309651817574902e-04
296 -5.5906286139986922e-04 4.0275814875588269e-04 7.3455728526203800e-04
297 -8.6091485608782623e-04 4.3992385643837372e-04 -2.0241724911090170e-04
298 -6.1775605781912006e-04 2.7082801776650276e-04 7.4936947314198387e-04
299 -6.7406572407064313e-04 3.7363304285932260e-04 6.4017586428703169e-04
300 -6.0872686676498994e-04 4.9738663020810917e-04 6.1944731141547465e-04
301 -7.1684256961222488e-04 4.6068468916006408e-04 5.1601529600507699e-04
302 -7.7393454286217090e-04 3.3525471745252295e-04 5.3115784188556970e-04
303 -3.0555284533887388e-04 -6.6075175152998560e-04 6.9387901387268458e-04
304 -6.3659547016445229e-04 5.8876842574960954e-04 4.8848372060410271e-04
305 -8.0322400060680438e-04 4.1445834936828016e-04 4.0970223300828120e-04
306 2.0661613447210927e-04 -5.5355362454332789e-04 8.2388736238161770e-04
307 2.4279963806104294e-04 -4.2740972505301271e-04 8.9218394403457356e-04
308 3.4659363768447404e-04 -5.0215984927166738e-04 8.0855773546818581e-04
309 -4.5594550139309818e-04 -7.3424749629256276e-04 4.9425391057460004e-04
310 -8.5455898203665116e-04 2.8019148115104820e-04 4.2022190989190984e-04
311 -4.0020788129081135e-04 -8.5562408981458169e-04 2.9727028971222928e-04
312 -7.5403495437621477e-04 6.3049139300200838e-04 7.8836648863898649e-05
313 -8.4012476883897386e-04 -4.9553195351934574e-04 -1.5377268761670158e-04
314 -7.5725380753126752e-05 1.1847506664506411e-04 1.0184898273213176e-03
315 -8.7757428042599818e-04 3.5025299701491974e-04 2.9412866352449782e-04
316 -9.6534860445368403e-04 1.8298132550473555e-04 8.5891424682334690e-05
317 -1.0598755436241949e-04 7.6876428618640857e-04 -6.3268665213701630e-04
318 2.7272181253276846e-04 -3.9742939911177383e-04 -8.9749998558293596e-04
319 -6.8244359932628665e-04 -7.1001100562962576e-04 -6.4177604453709395e-05
320 -5.9645194962905726e-04 -7.8574508676630607e-04 -6.2280363428191124e-06
321 -6.6325666500105930e-04 -4.1147118657710642e-04 -6.2781955605670302e-04
322 -5.8795347153974548e-05 -2.1858441162504454e-04 -1.0012368737900882e-03
323 5.0623808823596075e-04 -8.4465851220135292e-04 7.3995991470385012e-05
324 -6.1156585254678437e-04 7.6737833859136511e-04 -9.9149397664350053e-05
325 2.8864219627733470e-04 5.4559916509410290e-04 8.0133356341381570e-04
326 2.7834880514626914e-04 -6.4295246823791157e-04 -7.2380794634580058e-04
327 1.5652933638383895e-04 -6.0563809482641867e-04 -7.9532506175264243e-04
328 4.2583887008404344e-04 5.3671064258270366e-04 7.3890451434721822e-04
329 4.8906682578879869e-04 4.1908280853628939e-04 7.7828480734686370e-04
330 4.5030255219754656e-04 4.4741404298054424e-04 -7.8551833364221176e-04
331 8.0894452965532201e-06 9.7353314781822495e-04 1.6291106702822988e-04
332 -1.4099863015415795e-05 9.8519935163835469e-04 4.0985169226781481e-05
333 -1.4964625286095461e-04 9.7456959779995971e-04 3.9992904605567510e-06
334 1.1737272041235836e-04 9.7612120860707306e-04 7.9752412873949850e-05
335 3.6637555030143040e-04 -3.6346447712957676e-04 8.7695526017604912e-04
336 4.6357865075470313e-04 -4.3073868642017239e-04 7.8896610881641453e-04
337 -8.1366097510998452e-04 2.1056404052212876e-04 5.3583317882350049e-04
338 -3.5905700610961192e-04 5.2306432761486748e-04 7.8602853341586218e-04
339 -1.1275029641769764e-04 4.6255643780826179e-04 -9.0000684521602148e-04
340 3.6786665703413419e-04 -3.0196838522930555e-04 -9.0105831463718766e-04
341 1.7496046428898469e-05 -2.8625616664787012e-04 -9.8444117408946286e-04
342 -9.1941155216600213e-04 3.4612596584892652e-04 -9.8578626216031372e-05
343 1.8925930558724965e-05 -3.8455773163951628e-04 9.4765999484809507e-04
344 -5.2270961869789478e-04 6.1311324148777594e-04 5.9140131963457746e-04
345 -5.3339513855060240e-04 7.0536047719766456e-04 4.5554660105227060e-04
346 -6.5103003475376327e-04 6.5804748218250479e-04 3.5315047231007835e-04
347 6.1503009203024586e-04 -3.6573219942506670e-04 -7.0771562590199650e-04
348 7.2388374730573675e-04 -3.7163501397162376e-04 -5.8126434446092968e-04
349 5.4520379782330305e-04 5.2015771659959719e-04 6.6247871021805427e-04
350 6.0740720389685504e-04 4.0074569514306826e-04 6.9317630148410037e-04
351 6.5750521431044934e-04 4.8897907712531553e-04 5.7139544871824110e-04
352 7.1343129666080090e-04 3.5622175247132683e-04 6.0441798789316028e-04
353 7.5110991644524480e-04 4.4723739690611189e-04 4.7597200374906574e-04
354 -6.3724913067944426e-04 -7.2842831142540579e-04 1.9983826390679380e-04
355 2.6175511711449721e-04 5.5796534445207656e-04 -8.0145834090095927e-04
356 1.4030463715798480e-04 5.6588258828985279e-04 -8.2849576700131408e-04
357 -6.7832967229631636e-04 3.2390449011336615e-04 -6.6385454915779385e-04
358 5.2305558206632138e-04 -8.2441849135376014e-04 -1.5198728710747879e-04
359 4.4879323830681114e-04 -8.3975911602253124e-04 -2.7062946031500930e-04
360 -8.1683003458746857e-04 4.8367589435731258e-04 2.7702893750944921e-04
361 -1.2871238550368137e-04 -5.3653900416019036e-04 8.5279206536876813e-04
362 -1.9185260171447380e-04 3.5818522553288383e-04 -9.3671419450340183e-04
363 -2.3538689985143574e-04 5.2108449655500621e-04 8.3662556334687394e-04
364 -5.1549644572816797e-04 8.2261215411460163e-04 -1.7946654582108265e-04
365 1.6493565596440137e-04 5.5206258611101310e-04 8.3402281110348691e-04
366 -3.7245752312181206e-04 -2.9954440662387115e-05 9.5188937268205203e-04
367 -6.9789659501771244e-04 -6.3837813413388574e-04 2.9203724338812805e-04
368 2.1343307212105147e-04 6.7250279075438879e-04 7.1844205137146060e-04
369 8.2728875987732220e-05 6.3924903647043306e-04 7.7620649597198374e-04
370 7.0151512518285312e-04 -2.5418993380099615e-04 -6.7237817218760636e-04
371 -5.4228179023053144e-04 1.6632394989959663e-04 8.4086596260664012e-04
372 -6.6248588727626503e-04 1.3612210789950603e-04 7.4833911024501504e-04
373 5.4726852239591261e-04 8.1916241771305372e-04 -5.1625057525541799e-05
374 -1.5382173143499786e-04 -7.2269992710228848e-05 1.0137669835469450e-03
375 -3.9871365407648887e-05 -1.6521821854627549e-04 1.0137837697861975e-03
376 -2.9962499146850356e-04 -9.1413817852056573e-04 2.2974936782724415e-04
377 -4.2793264130961469e-04 -8.7675765312388509e-04 1.5945673809188989e-04
378 -9.2062601975921598e-04 1.9206628435127225e-04 3.1089967933699671e-04
379 4.2690740986316139e-04 6.6053741459157070e-04 -6.1990020808058808e-04
380 1.5496407246277905e-04 -7.1493190670300687e-04 -6.8958399421860253e-04
381 2.7968067806296508e-04 -7.4298465697402545e-04 -6.0982699297458260e-04
382 -8.9179950647598645e-04 -3.7521889916091280e-04 -1.9933924044545021e-04
383 -8.2616594975233842e-04 -4.6554280556004390e-04 -2.8174876171479227e-04
384 -7.6235929095771148e-04 -5.8134968053235073e-04 -2.4168956034659807e-04
385 -1.6476688479466004e-04 -9.3352633001191618e-04 2.8593674725911909e-04
386 -6.5957064426560837e-04 5.2511139507705720e-04 -5.3183469357411352e-04
387 -7.5754894428440157e-04 4.7227412553497636e-04 -4.3519438349118951e-04
388 8.7334387721194583e-04 2.4605434692689270e-04 -4.0287915520406930e-04
389 -9.0310537388333919e-04 3.2376817793512924e-04 -2.3647677486280253e-04
390 -5.0659116548412827e-04 8.4480361678658078e-04 -4.3929887548389004e-05
391 -4.0263330067168059e-04 8.9278372850814863e-04 -1.1893887871438240e-04
392 -6.0056854333289484e-04 7.8102608026353007e-04 3.1181761874009978e-05
393 -5.8701282584252212e-04 -7.8373833009476757e-04 -1.2571210571675389e-04
394 -4.9653985523595557e-04 -8.5022712634885928e-04 -6.2333756167040768e-05
395 9.1716980829423839e-05 9.8065924484998322e-04 -4.7493894867932631e-05
396 2.2501806369445049e-04 9.6007186416152896e-04 -1.0988684620939908e-05
397 5.2777987704657190e-04 3.2545629633678948e-04 -7.9910145016942689e-04
398 2.5607071352346439e-04 -2.9728332638563588e-04 9.4406365411480711e-04
399 3.7843227640040858e-04 -2.2441873114369452e-04 9.2145073782454038e-04
400 -2.8862435101761994e-04 6.0864547250101281e-04 7.4933699924349131e-04
401 -1.6886075483020724e-04 6.1925172973206083e-04 7.7819299200536276e-04
402 3.1393027021280398e-04 -6.1770687432367855e-04 7.3203432952087121e-04
403 6.6177896727159422e-04 2.7106336694390185e-04 7.0729866752694374e-04
404 6.6618765229293597e-04 5.9065115205837466e-04 4.4402870460606507e-04
405 -3.1128475260182634e-04 -9.3176415090659936e-04 9.8113757977374267e-05
406 2.3341072165458890e-04 -2.6326054873023006e-04 -9.6083597583926307e-04
407 3.3877956995109515e-04 -1.8373105144032056e-04 -9.4661479493216721e-04
408 9.3977791751013355e-05 4.6256898232414548e-04 -9.0212406814893118e-04
409 -8.7864360620061664e-04 4.2332059500379263e-04 1.5767487736641531e-04
410 -4.5053173868397239e-04 8.0785800285002735e-04 3.5481390103946271e-04
411 5.5891021004222377e-04 4.2234814221176880e-04 -7.2117234866613249e-04
412 4.6511485673915876e-04 6.5289719788501018e-04 5.9936118998155509e-04
413 8.1080216604928837e-04 2.9086544921815704e-04 5.0083585981228770e-04
414 8.3338720722686392e-04 3.8863697786395033e-04 3.7148427042571892e-04
415 5.1092605414915030e-05 -1.3732198991972625e-04 -1.0173712813678283e-03
416 -9.6343350072999412e-04 2.0721333174377019e-04 -4.2171056639262758e-05
417 -6.1251902764804643e-05 3.4332736739035288e-04 -9.6139002364276690e-04
418 -1.2359886700061219e-04 2.2708014899557968e-04 -9.9246316580979478e-04
419 5.7674249961615436e-05 1.6913792268336543e-04 -1.0106791566175724e-03
420 -7.2477572788822372e-05 -8.4999400510415405e-05 -1.0219646139750221e-03
421 -9.3490860445229510e-04 3.1055295130756800e-04 4.8836059658784021e-05
422 8.0011744612627929e-04 -2.5192532337995743e-04 -5.4106859959259380e-04
423 8.0810659700088097e-04 -3.6957692991949973e-04 -4.4695550586530116e-04
424 2.5294395039433533e-04 9.4638553502351269e-04 1.1909658611933925e-04
425 3.3084457995215778e-05 -6.8407517452459933e-04 -7.4102605263721543e-04
426 2.3678334506988897e-05 -5.4887624901498518e-04 -8.5450897447963644e-04
427 -8.4594494553434050e-05 -5.9375615928750991e-04 -8.1578777779414430e-04
428 4.0967072330585428e-04 -8.8471868819143379e-04 -1.5931039452985965e-04
429 3.2690828147886869e-04 -8.9509193169600224e-04 -2.6718122942169417e-04
430 3.6342336626364428e-04 -8.4038155821221404e-04 -3.8324635066898670e-04
431 -6.0209202878099000e-04 -7.1685668047565649e-04 3.2327848071131567e-04
432 -6.4263619774765129e-04 -6.2152981381874862e-04 4.3491665381706774e-04
433 1.4048228519700516e-04 -3.5467882927092930e-04 -9.4860047578039172e-04
434 -7.5082293127168253e-06 5.6479701379211222e-04 -8.4313274941257737e-04
435 7.3540461586764285e-05 6.6994455095587371e-04 -7.4972735327289894e-04
436 8.7980466982129227e-04 2.4674389276840082e-04 3.8696332496187885e-04
437 8.9578722837031560e-04 3.2716380952340344e-04 2.6264923398681972e-04
438 8.4887098869110560e-04 4.4439027097862698e-04 2.4316918164895730e-04
439 7.6215404613236238e-04 2.1308411669982067e-04 6.1348975668601717e-04
440 -5.7859003264166219e-04 7.4671976093956631e-04 2.9467316672420060e-04
441 -6.9360207675779378e-04 6.7140575992344950e-04 2.1164750449660481e-04
442 6.8568345616397180e-04 -1.1800182835411940e-04 7.2916095734729407e-04
443 7.2241268204020141e-04 -2.4053849469316525e-04 6.5399220128608616e-04
444 8.1775347094367474e-04 -2.4065021593531371e-04 5.1776871588075533e-04
445 7.4944535826723462e-04 -3.6110622771399326e-04 5.5256297280193670e-04
446 8.2221068980557711e-04 -3.6359494700203816e-04 4.2384742277495305e-04
447 7.4558168661700407e-04 -4.6853651814597879e-04 4.6361836291312236e-04
448 6.6868480741190633e-04 -4.6716885733760072e-04 5.7798698212790402e-04
449 8.0691052858671258e-04 -4.7209145856719697e-04 3.2965851495065642e-04
450 8.7499680880220908e-04 -3.5837720651386515e-04 2.9477097697408483e-04
451 6.4496265423983018e-04 -5.8697040577244562e-04 4.8221060815309571e-04
452 6.7584505061525277e-04 1.3325244411949082e-04 7.3660140020297105e-04
453 -5.6736781058991425e-04 -7.9889486689353653e-04 1.2081289096254413e-04
454 2.5832423402455701e-05 -4.2232287646435323e-04 -9.2941113532702682e-04
455 9.0057510990355233e-04 3.8184578694656516e-04 1.3460910362079979e-04
456 4.5414827951559570e-04 -2.1806956749423638e-04 -8.8430252828387769e-04
457 4.9995378909326255e-04 5.3890046272556124e-04 -6.8378666813812808e-04
458 6.1000334453005837e-04 -2.4379796046631013e-04 7.6805098836267983e-04
459 1.4603595214607794e-04 9.5433950590284925e-04 2.0912811808359457e-04
460 6.1800490545670106e-04 6.9953600683950591e-04 3.3172902278670049e-04
461 3.8778275534074637e-04 5.6180566245248519e-04 -7.4046845705696604e-04
462 -4.1856265852207794e-04 7.0621953045669963e-04 5.6758511848984902e-04
463 7.8072053187132925e-04 -1.3407473381210820e-04 -6.1246701492428273e-04
464 8.7186077387278033e-04 -2.4670575802005358e-04 -4.0707395028930497e-04
465 8.6907251846050936e-04 -3.6231723936064217e-04 -3.0825427247202237e-04
466 1.1234143662624294e-05 8.2942367167047979e-04 -5.5435389141335562e-04
467 9.2093878368891926e-04 -2.4154058448819769e-04 -2.7040255270323815e-04
468 9.0981696423152224e-04 -3.4806038898940002e-04 -1.6875009794883688e-04
469 1.4986321949970633e-04 3.4979611900147055e-04 -9.4830620117803582e-04
470 8.4452355519906480e-04 -4.7141374705521170e-04 2.0621190492066643e-04
471 9.0887180031514229e-04 -3.4507861515316746e-04 1.7743519520742413e-04
472 1.9644859156770373e-04 7.7432413766498982e-04 6.0176201125329218e-04
473 1.3662003385463058e-04 -2.2352341084572248e-04 -9.9160867929148563e-04
474 2.2700886382439125e-04 -8.9366688227603347e-04 -3.6608536923265703e-04
475 5.6760209030763491e-04 7.6373902922639934e-04 -2.6943780579797205e-04
476 3.1455059552431462e-04 7.1924176503458236e-04 6.2098319751912202e-04
477 2.8961883489532925e-04 7.3175449510139482e-04 -6.1840945783350938e-04
478 -1.9133074582756144e-04 -5.6449938223116609e-04 -8.1825073218596276e-04
479 -1.8368225719006656e-04 -6.7825246356204830e-04 -7.2091928054870112e-04
480 -3.9407374063263101e-04 8.2439420781529557e-04 -3.8535369237062921e-04
481 1.9364309216876569e-04 6.6324375533466211e-04 -7.3236415946631266e-04
482 7.5281036028116972e-04 -5.9926465669163484e-04 2.3388357254071918e-04
483 8.7821038411497229e-04 -4.4253258175782517e-04 8.8435228044405126e-05
484 9.3147787453691673e-04 -3.1975551189656633e-04 6.4694602768023687e-05
485 5.7921886701611108e-04 -2.4424677590109201e-04 -7.9253669592690371e-04
486 4.0131167879244560e-04 1.4966838319257567e-04 -9.2588108529066356e-04
487 9.7620766209008771e-04 1.2710370967805617e-04 -7.3471046069017608e-05
488 9.4441526674993040e-04 2.6543243374224412e-04 -1.1820290429876685e-04
489 9.5902551908791150e-04 2.2963705700672070e-04 1.1227556518045717e-05
490 8.9198891068571361e-04 4.1404773784931394e-04 -8.5840869767202059e-05
491 3.4214178839881809e-04 9.2498789801764565e-04 1.7303628345317712e-05
492 3.1304132288597356e-04 9.2774804449109944e-04 -1.2737328107666136e-04
493 4.3393991112122159e-04 8.8273647880195171e-04 -7.4393312262049189e-05
494 9.0442295218720462e-04 -3.9395970056402204e-04 -2.9689332730469153e-05
495 9.4465873387257406e-04 -2.7954229699407075e-04 -6.0205706223057983e-05
496 -3.9090264897875164e-04 9.0506085036086382e-04 1.9805707784452905e-05
497 9.7617773996151258e-04 1.2869618543155035e-04 7.0262802397273055e-05
498 6.7687024347855848e-04 6.7500701605592562e-04 -2.5292517894387836e-04
499 9.7737410583633322e-04 -1.2565973320175582e-04 -6.8033733566961031e-05
500 9.6016694441869834e-04 -1.0896508099498281e-04 2.0843303139481793e-04
501 9.2119239357678990e-04 -1.1889871081659272e-04 -3.4713125125939695e-04
502 8.6439120898595728e-04 1.2338420569944669e-04 -4.7807753696144908e-04
503 8.6949499665233060e-04 -1.1428440236288028e-04 4.7112286728847734e-04
504 4.3641622197485160e-04 1.0876409345315368e-04 9.1545462004723817e-04
505 4.2283935713832797e-04 3.2159719781080269e-04 8.6628423480890587e-04
506 6.5526460973345819e-04 -3.5208072244460165e-04 6.7509570829117085e-04
507 3.3005733772454806e-04 -1.2583201381377164e-04 9.6066431234774171e-04
508 8.4470965611541676e-05 -1.2375810667143518e-04 1.0176428819606718e-03
509 1.5117030803622972e-04 -2.2962910111742893e-04 9.8816990355689175e-04
510 2.5989718700889370e-04 -2.0493512289971062e-04 9.6845194017330396e-04
511 -1.9864270574376130e-04 6.8621700603729873e-04 -7.0759276444515371e-04
512 2.7533667465871506e-04 9.1734341963727679e-04 2.4467444619557193e-04
513 5.7878751705955184e-04 -7.9922734027678321e-04 -3.4223947193329746e-05
514 2.6458071270643460e-04 -9.5037949934442302e-04 3.6570036234576778e-05
515 2.9818277441232211e-04 -9.2866852337330304e-04 1.5875522350694587e-04
516 -5.4599774538080937e-04 5.6747907384598290e-04 -6.1759036639101724e-04
517 7.6342972640361915e-04 -5.7781012243112112e-04 -2.4984782779752035e-04
518 -1.4419750804848202e-04 -9.7548002365846443e-04 -4.2500468020011360e-05
519 -2.8322257482115462e-04 -9.4496484607403479e-04 -4.5300156352340143e-05
520 -3.2672603337863926e-04 -9.1468741191934278e-04 -1.8186392416423160e-04
521 -7.8476123522030464e-04 5.2083771070918032e-04 -3.0347540432153593e-04
522 -9.7473352144224375e-04 9.1467680931644726e-05 -1.2270265722182810e-04
523 7.7615792182243368e-04 5.9823482536328174e-04 1.1755158752494620e-04
524 -7.9405995276144988e-04 -5.3506780373536154e-04 2.4727732070460888e-04
525 7.7524181818343721e-04 5.0656159813997255e-04 3.5300343943577310e-04
526 4.8919325889016090e-04 -7.6961000318902760e-04 -3.9285992627084026e-04
527 -9.4000885834816272e-04 -2.7878114916917774e-04 -1.1204147679248210e-04
528 -9.3613395049363705e-04 -7.1391200638279572e-05 3.1424637009266573e-04
529 -9.1140603463487734e-04 5.2481592751747216e-05 3.8804075349389996e-04
530 -8.3864648803954798e-04 5.3246381987930942e-05 5.3813023212594927e-04
531 -7.6521000174315315e-04 -6.1399316222218888e-04 -1.0968372616260529e-04
532 -9.6798977929812261e-04 -7.1726614791583199e-05 1.8149207813315281e-04
533 -7.3389801923737057e-04 5.4104084026585788e-04 3.8990302784764502e-04
534 -6.9463747837759558e-04 6.9911161808214046e-04 -1.8189888547333304e-05
535 -2.4289470862205089e-04 -9.1520901817553448e-04 -2.8940798847960995e-04
536 6.2256050636872264e-04 7.5180708586537954e-04 -1.4751345996099385e-04
537 -1.3667354673358557e-04 -8.9028759100671115e-04 4.1988923503284627e-04
538 -3.8407629986809729e-05 9.8217901215579191e-04 -7.9911753039485438e-05
539 -1.7787675747020729e-04 9.3953971780739846e-04 -2.4880833908710203e-04
540 6.1717571123704108e-05 9.6771049993378576e-04 -1.8914262473859953e-04
541 -9.2849806824525085e-04 2.8112034780274715e-04 1.8392155784948739e-04
542 -8.6765344460205843e-04 -4.2619137253885412e-04 2.0482379876332491e-04
543 -7.9860819840912737e-04 -8.1144137204753832e-05 5.9634605891599511e-04
544 -7.4959019842189671e-04 1.8535904422547899e-05 6.6646814780134509e-04
545 -6.5527728323044757e-04 -5.2870722478665609e-04 -5.3493402889832713e-04
546 -7.4650685757479207e-04 -4.2300420260505203e-04 -5.0576722322075239e-04
547 -7.5537078695202134e-04 -2.9776793053885436e-04 -5.8254506029286864e-04
548 -6.6230127162279415e-04 -2.7943817187660330e-04 -7.0332323990338638e-04
549 2.6198739592619811e-04 -8.1258624789346445e-04 5.1530657812774358e-04
550 5.8319361532014680e-04 6.0217248068846190e-04 5.3952940612565716e-04
551 8.6574412575171167e-04 3.6033867274462420e-04 -3.1800101000337052e-04
552 8.8400734144447721e-04 -2.3895280039244396e-04 3.8317322186357352e-04
553 1.6015507066811555e-04 -7.7293053754429479e-04 6.1682758562939461e-04
554 -4.4163571279459544e-04 -6.4698563774169928e-04 6.2568681292902799e-04
555 -3.8366353579921122e-04 -5.5966020794966142e-04 7.4595147523878974e-04
556 -8.2759228522502094e-04 -4.2860063780409178e-04 3.3605622711499049e-04
557 -5.9818442685897490e-04 -7.1530801169629801e-04 -3.3411172708154151e-04
558 -7.2107350849568016e-04 2.4727226596877341e-04 6.5083283215820699e-04
559 -6.8001138063682079e-04 -4.4281823296970027e-04 5.8366133147587352e-04
560 -5.8870185793323798e-04 -5.6045111794640395e-04 5.8315231183511153e-04
561 6.2988633422688843e-04 4.8235351836467679e-04 -6.1079804589856995e-04
562 -3.2437177787895504e-04 -6.8123866237754899e-04 -6.6209156173921804e-04
563 -4.8666279409271634e-04 5.1551211045318401e-04 7.1346765831214586e-04
564 7.2610295682931539e-04 -4.8313498012634242e-04 -4.8077251714486092e-04
565 -8.5091476506767640e-05 -2.8534323796868476e-04 9.8115155751452542e-04
566 -1.0588456324396570e-04 -4.1368015525534367e-04 9.2766765435104196e-04
567 -2.0846096411987722e-04 -3.2678577507910941e-04 9.4628092131970290e-04
568 -1.6780208611268525e-04 -6.5334757613509089e-04 7.5044366455270242e-04
569 3.9975123934132860e-04 -6.6979805897296148e-04 -6.2931395221215076e-04
570 -7.0770748040531689e-04 -1.0367639338306790e-04 7.0665455178867381e-04
571 5.4322791044485305e-04 3.1533370093178906e-04 7.9215583510321098e-04
572 4.9389292145422196e-04 -3.4241780519025635e-04 -8.1560184756305078e-04
573 1.3613340637091850e-04 -3.4586063775931517e-04 9.5323164256114310e-04
574 -7.4022922123367625e-04 1.9608752717062988e-04 -6.4651474399319610e-04
575 1.5489312206597215e-04 -4.7858443377774132e-04 -8.8492704598846779e-04
576 -4.4855819460884087e-04 -4.2609673855701979e-04 8.0186214958820161e-04
577 -3.2854046242681678e-04 3.7623290663162437e-04 -8.8624197232418304e-04
578 -2.6476634510260116e-04 2.4677131435296197e-04 -9.5648669810869497e-04
579 -3.2657211956881840e-04 1.6166550019213239e-04 -9.5522957790191755e-04
580 -4.9363331594743970e-04 9.0968804060945521e-06 -8.8984738453593687e-04
581 4.5490644295772501e-04 -5.6018516927136834e-04 7.0257709426507612e-04
582 4.7853319970407056e-04 -2.9685970262945284e-04 8.4449355056991863e-04
583 -4.4639311466224178e-04 1.3663157194042163e-04 -9.0541601286462010e-04
584 -4.1366470508212078e-04 1.9761884682289080e-04 9.1033326298249953e-04
585 -4.5674326019829186e-04 6.1081830009832505e-05 9.0912069471166257e-04
586 -3.3756260253668891e-04 -4.2892841469761931e-04 -8.5616184807322832e-04
587 2.8763773855367829e-05 9.4437356083404379e-04 2.9344571372338164e-04
588 -4.0163003757588418e-04 -7.6947371543143752e-05 -9.3579076309886126e-04
589 -2.7111521236406665e-04 -4.6082128225212244e-05 -9.8776564782911613e-04
590 -1.5984508582515117e-04 -1.3510862929796036e-04 -1.0053625699735600e-03
591 -1.6445259804009985e-04 4.2881729630779076e-04 9.0953794789471419e-04
592 -5.1141980794496683e-04 7.8778375420974751e-04 -3.1214344461250195e-04
593 -2.4593794648584006e-04 5.7111906951908961e-06 9.9604404795029192e-04
594 3.6247101535683137e-04 2.1576473876187510e-04 9.2980293321002854e-04
595 -7.9338071549989522e-04 5.6177874400932873e-04 1.7160782932433213e-04
596 4.2320659875473061e-04 -8.7559597358865746e-04 1.7689294937340284e-04
597 1.0421194313012231e-04 4.4189512882153919e-04 9.1277025079912737e-04
598 3.2472381198313531e-04 8.9333996426094685e-04 -2.7243742212649342e-04
599 1.8646737846323016e-04 -6.7313787205468007e-04 7.2626065153285680e-04
600 -5.2073000845859305e-04 -8.0392923802023459e-04 2.4640886272793568e-04
601 -8.4009645196592804e-04 4.0010407871305108e-04 -3.3894503634072031e-04
602 -8.0806191655856147e-04 3.4757278184432066e-04 -4.6289289559595266e-04
603 -7.4081407885036635e-04 -5.3294066435084536e-04 -3.9111673297935289e-04
604 -9.0314367168013298e-04 1.5233634028530226e-04 -3.7936058126234660e-04
605 -4.0238338896158898e-04 -9.0054280604840624e-04 2.5992440779386360e-05
606 -3.1318290356991145e-04 8.4898091366436448e-04 4.0660121144511405e-04
607 3.7951726262275752e-05 1.3539043596107165e-04 1.0177828219482090e-03
608 -5.8067508311661580e-05 7.7098259532409148e-04 6.3696921054772523e-04
609 -7.5001068988135458e-04 -1.7112780418206683e-04 -6.4246376516261254e-04
610 9.4384300826507036e-04 2.5810916760121797e-04 1.3798813591441443e-04
611 4.1487869778656110e-04 -9.3249304451285865e-05 -9.2817963971387064e-04
612 9.2103599098509721e-04 1.1982232223627685e-04 3.4660140795178860e-04
613 -3.7711262364892453e-04 -8.6288619676311025e-04 -3.0674054026878669e-04
614 4.6958161521780854e-05 -7.9462157714482869e-04 -6.0720765244938522e-04
615 4.6447574184024939e-04 -8.7025474740613459e-04 -3.9878233761536055e-05
616 -6.7600965626387320e-04 -6.9359471272141115e-04 -1.9844753078554643e-04
617 -9.2516708886205223e-04 -2.4576680418208889e-04 -2.4664046822651969e-04
618 -6.2036515190909544e-04 4.4576737971423045e-04 -6.4880400270280055e-04
619 1.8028057613702999e-04 -9.4610032231846463e-04 -2.2727712607286616e-04
620 -3.6496203742305990e-05 -9.3337714315308595e-04 3.3185094364631844e-04
621 3.9149831437334837e-04 -7.6255911648120652e-04 -5.0881997294499029e-04
622 -2.1830508805918510e-04 -4.4485643796439818e-04 8.8936309878817176e-04
623 7.9373524235974398e-04 -4.8107626502678181e-04 -3.4940728414547981e-04
624 9.2048220651749443e-04 1.2784403315666169e-04 -3.4519166088054610e-04
625 -4.0760827528921076e-04 6.1290066544451643e-04 6.8227975076950488e-04
626 -2.5425229243958162e-04 -5.5906968816811422e-04 8.0458415849735782e-04
627 -9.0360686972786690e-05 5.3736789839860222e-04 8.5637680092652633e-04
628 4.6375273842029648e-04 8.6955508222462863e-04 4.4871244322240571e-05
629 -9.5431685518418484e-04 4.7114600126339922e-05 2.5352037677293059e-04
630 -5.9135863948965529e-04 7.7367133854213950e-04 1.5977705730295332e-04
631 -8.3118493182340110e-04 -1.9454492279973270e-04 -5.1364512859210221e-04
632 -4.0676581034320612e-04 8.6454882052959059e-04 -2.5326133546949237e-04
633 9.2110020125909934e-04 2.4093309414598515e-04 -2.6908708053946029e-04
634 -3.3002717593837529e-04 1.0393964312914805e-04 9.6306279665867359e-04
635 3.8955719782449524e-04 -9.0536180213715903e-04 5.8523457564724576e-05
636 -6.8046189039217851e-05 -9.6551418106946845e-04 2.0096258944728916e-04
637 -4.9047087824101541e-04 -6.6695940285073284e-05 8.8931062701830244e-04
638 4.4617330104270450e-04 2.6760392241136457e-04 -8.7166771727831662e-04
639 4.4518964364109910e-04 -1.0463702767898669e-04 9.1145483869992301e-04
640 -6.4434615236520136e-05 6.6951919838824977e-04 -7.5072391865694046e-04
641 -9.4912235874383634e-04 2.1728555489350745e-04 -1.6150954052650957e-04
642 -8.7485445938522333e-04 2.7721887178776240e-04 -3.7443374056064083e-04
643 2.8312000853334107e-04 -7.2412945753242591e-04 6.3261455536243918e-04
644 5.6835455815584877e-04 -4.5549078519951767e-04 6.9315370018185939e-04
645 6.1766651579076264e-04 2.2512117807466068e-04 -7.6545688613647764e-04
646 -2.0516586076426736e-04 1.2484177748872641e-04 9.9743787606764323e-04
647 2.4943172782832619e-05 5.5190018760497639e-04 8.5119191952825188e-04
648 -7.4367068854815500e-04 5.8966018544509351e-04 2.7461705743124845e-04
649 -2.6002242154792585e-04 9.4778725483538290e-04 8.2750686732380101e-05
650 9.2628156381427819e-04 -2.3199385726592879e-04 2.5960907880883386e-04
651 -4.6620025738831926e-04 -8.5163165014346602e-04 -1.8605448204981603e-04
652 -8.7016408618853058e-04 -3.4130804412923192e-04 -3.2640976435677248e-04
653 -1.8872558596656576e-04 1.2307963247410413e-04 -1.0012536230127743e-03
654 8.4294059433519209e-04 -4.6662113443015539e-04 -2.2275228512061177e-04
655 -7.1764903476307924e-04 4.1001060154229529e-04 -5.5885870552739320e-04
656 6.6391808307171281e-04 -1.3512395919659903e-04 -7.4716162484621555e-04
657 -7.4546901695205523e-04 -5.4054507111391014e-04 3.6770644803056179e-04
658 -3.7919404470732271e-04 3.9240497136063547e-05 -9.4807394538284082e-04
659 -1.3548167059136397e-04 4.6709003996285415e-06 -1.0193413186003885e-03
660 -4.0789929880055841e-05 3.4771979250602613e-05 -1.0264394773858696e-03
661 8.4119390062749745e-04 -5.1610290761773753e-04 -1.3248038306925692e-05
662 5.0125082142224024e-05 -2.3708186227830493e-04 9.9786133025695466e-04
663 5.1646403065210402e-04 8.2481081642911316e-04 -1.6546280614734903e-04
664 -2.8203312609932819e-04 9.4338245526560049e-04 -5.4004206314867093e-05
665 -2.9206516137304355e-04 9.2487631454060584e-04 -1.8422620320778435e-04
666 -6.2434336336324167e-05 1.2179179202469885e-04 -1.0190906168439605e-03
667 2.6321395440200999e-04 -8.2890847702105173e-04 -4.8505790446063925e-04
668 -5.7293063006662738e-04 3.2905548431103277e-05 8.3568198199085388e-04
669 -8.2428935765050456e-04 -3.1286252234125013e-04 -4.5900809519606393e-04
670 -5.0141515481204693e-04 8.4426979280842951e-04 9.2320052156637147e-05
671 -9.5600166775276513e-04 1.5385035387492632e-04 1.8909567348608728e-04
672 5.5882599578143278e-04 -3.5804089365401912e-04 7.5950032680945827e-04
673 -6.5177039665319313e-06 2.3875608119150498e-04 -9.9756198918168155e-04
674 -1.9196105197487779e-04 -9.5517226138447061e-04 1.6312887900165799e-04
675 4.1149016473451361e-04 7.4574630489507277e-04 5.1546849042798017e-04
676 8.0557732036582849e-05 7.3819557711166800e-04 6.7553566475924613e-04
677 4.7184821530836047e-04 2.2283552476309491e-04 8.7236609883205828e-04
678 -4.8177861756290108e-04 -7.8461484821266709e-04 3.6799106061749049e-04
679 3.1655958225079326e-04 -7.6812761306364218e-05 -9.7091085145366600e-04
680 3.9838660128636784e-04 -6.6713945940791055e-04 6.3188151940140322e-04
681 -8.7645774266628998e-04 1.5677597475234129e-04 4.3856816892366360e-04
682 -8.8818118746486279e-04 4.2641274307693395e-04 1.5172238190526068e-05
683 -6.9266570393074811e-05 1.7622216302590031e-05 1.0251486869037824e-03
684 3.4773042473649650e-04 -9.2224819306896150e-04 -5.3163318412068155e-05
685 4.0821276833365183e-04 8.7880762613753635e-04 -1.8585056090496781e-04
686 1.6900273143690374e-04 -7.9644132921313055e-04 -5.7852580936203896e-04
687 1.8223145041098147e-04 9.6072326902272036e-04 -1.2579249540854498e-04
688 -8.0761967919395355e-04 -4.1945052707021335e-04 -3.9274103536800778e-04
689 -5.4246864729753192e-04 -6.5232757988853180e-04 5.2163725041075347e-04
690 5.7704158862187664e-04 -6.8480767840853806e-04 4.2980591434541536e-04
691 9.5120254197308832e-04 -2.2484636933088422e-04 1.4099383969573675e-04
692 -6.8426008867114997e-04 -5.3180288947697379e-04 4.8845484674630386e-04
693 9.2540861153858492e-04 2.1965624273947678e-04 2.6982061557580944e-04
694 -1.7485692681508473e-04 9.6309881011714352e-04 -1.2114583178952291e-04
695 9.0312245868156258e-04 3.4676699979629256e-04 -1.9695574267215634e-04
696 -4.1174417949300395e-05 6.6527732555476113e-04 7.5801710003096478e-04
697 -3.3361671215374284e-04 -4.7672460544590357e-04 8.2930849843258357e-04
698 9.2382348355769177e-04 3.4716406594003285e-04 1.7680750818043274e-05
699 -4.9355499137426154e-04 -5.3394563268900728e-04 6.9322807317429502e-04
700 -6.6337101293332125e-04 -2.2673770040136992e-06 7.5849869703505340e-04
701 5.7308521269889461e-04 -5.5513372355459794e-04 6.0314995766915880e-04
702 -6.8482593102668383e-04 -6.3835387296252207e-04 -3.2032539089260804e-04
703 -7.6076650810428267e-04 2.9699645705595444e-04 -5.7291310288093541e-04
704 5.0706373037127500e-05 3.5008469805672941e-04 -9.5940350506335383e-04
705 3.1739326980833362e-04 6.4366257573980385e-04 -7.0236204353871093e-04
706 -3.2026482874027970e-04 6.9682338500016581e-04 6.4302415644262292e-04
707 1.1310258003457600e-04 -9.2455729121500058e-04 -3.3679618384049143e-04
708 -6.7549876044647398e-04 7.1133300851516403e-04 9.2468615050149777e-05
709 1.0827849552110396e-05 7.5204849330249299e-04 -6.6194960915552659e-04
710 -4.0211976309659193e-04 7.8027054542173860e-04 4.6472089909846431e-04
711 -9.2341400661701738e-04 2.2084752822132969e-04 -2.7269612529490103e-04
712 7.7792492515197666e-04 1.0768438431284901e-04 6.2045443565462901e-04
713 -2.2169697523233162e-04 -7.5336665033970797e-04 -6.1987932694697215e-04
714 6.3889798198500777e-04 3.4480836023867092e-04 -6.9483982862165485e-04
715 -2.0864689599724390e-04 -9.6249150413740001e-04 5.2541439602503248e-05
716 -2.4850675380535023e-04 4.5797000277971082e-05 -9.9336388675664872e-04
717 -3.9597522296136293e-04 -8.9873838727756521e-04 -9.0922483592889076e-05
718 5.0274476973348372e-04 -2.0450708683920172e-04 8.5802602594675171e-04
719 7.2709222042094423e-04 -5.6224720626733631e-04 3.7198655893608170e-04
720 8.3929078928503210e-04 4.9627188667392098e-04 1.4973868646724932e-04
721 2.4158424717521116e-04 -1.6346241755889760e-04 -9.8163779939093479e-04
722 -5.6885312668038571e-04 -7.7375999955708126e-04 -2.3128151332575637e-04
723 5.3256657404907746e-05 7.0942895028236895e-05 -1.0240412598882058e-03
724 -1.8389827804612496e-04 7.2040113632473629e-04 6.7519520933327767e-04
725 8.6539236774387060e-04 -4.6037785639465353e-04 -1.1286156513805691e-04
726 5.8085323053261220e-04 2.1725071753299360e-04 7.9805795181125125e-04
727 7.8240048943837215e-04 5.5595488614415794e-04 2.3448016042591156e-04
728 5.4388944983994631e-04 6.0008977096086963e-04 -5.8365402871996355e-04
729 4.5105934148709589e-04 1.0445355905524072e-04 -9.0680390553363416e-04
730 7.1504442248788611e-04 6.0502199545855800e-04 3.1839376236004086e-04
731 -2.6449976922014669e-04 -6.1426876640976850e-04 -7.5243385415208603e-04
732 3.4546391968652410e-04 6.3420081847558334e-04 6.9776958159923849e-04
733 -7.3370166983344385e-05 9.6595679439375945e-04 -1.8549598645620327e-04
734 -2.4433412804018633e-04 -4.7889187639003770e-04 -8.6082716188445852e-04
735 9.4938226216539283e-04 -2.2138163707582120e-04 -1.5511812244267136e-04
736 9.6175177242201052e-04 -2.1526770422482025e-04 3.3575211247026663e-05
737 -3.1544137855422256e-05 -8.7031129020738836e-05 1.0236285956635701e-03
738 -5.0200404104002578e-04 -8.4721795408919051e-04 4.7905008452961675e-05
739 5.1166950457940525e-04 1.9533071212540255e-04 -8.5380981836776849e-04
740 -7.6231323209987082e-04 1.3475190056225716e-04 6.3404740465868329e-04
741 -1.5083361320278869e-04 3.7602518921160792e-05 1.0149314429071712e-03
742 -5.4316788923869375e-04 -7.1116392246823288e-04 4.2912488585820951e-04
743 -2.5393423454810573e-06 4.3599840977410960e-04 -9.2090858607292415e-04
744 2.9491292055271531e-04 -9.2845684806832989e-04 -1.5952071314641615e-04
745 -7.6507369698569912e-05 -6.8669072191232820e-04 -7.3044087143128949e-04
$EndNodes
$Elements
1486
1 2 2 0 0 410 440 345
2 2 2 0 0 421 541 409
3 2 2 0 0 409 682 421
4 2 2 0 0 545 603 546
5 2 2 0 0 426 427 294
6 2 2 0 0 294 454 426
7 2 2 0 0 265 682 409
8 2 2 0 0 24 41 4
9 2 2 0 0 3 24 4
10 2 2 0 0 238 642 602
11 2 2 0 0 520 651 613
12 2 2 0 0 653 666 659
13 2 2 0 0 404 460 98
14 2 2 0 0 222 482 219
15 2 2 0 0 40 463 9
16 2 2 0 0 608 724 696
17 2 2 0 0 435 709 69
18 2 2 0 0 413 439 29
19 2 2 0 0 345 710 410
20 2 2 0 0 422 463 40
21 2 2 0 0 98 550 404
22 2 2 0 0 95 724 608
23 2 2 0 0 4 41 5
24 2 2 0 0 232 701 581
25 2 2 0 0 490 698 488
26 2 2 0 0 29 436 413
27 2 2 0 0 416 421 342
28 2 2 0 0 312 595 441
29 2 2 0 0 41 486 5
30 2 2 0 0 405 605 519
31 2 2 0 0 409 595 265
32 2 2 0 0 69 481 435
33 2 2 0 0 434 743 339
34 2 2 0 0 342 641 416
35 2 2 0 0 485 656 370
36 2 2 0 0 89 587 90
37 2 2 0 0 108 466 317
38 2 2 0 0 378 629 529
39 2 2 0 0 581 680 232
40 2 2 0 0 281 434 339
41 2 2 0 0 638 739 486
42 2 2 0 0 659 666 660
43 2 2 0 0 345 440 346
44 2 2 0 0 22 44 25
45 2 2 0 0 9 463 8
46 2 2 0 0 44 81 25
47 2 2 0 0 459 587 89
48 2 2 0 0 127 670 630
49 2 2 0 0 508 662 509
50 2 2 0 0 375 662 508
51 2 2 0 0 492 598 103
52 2 2 0 0 604 642 238
53 2 2 0 0 507 510 399
54 2 2 0 0 488 698 489
55 2 2 0 0 34 473 415
56 2 2 0 0 399 639 507
57 2 2 0 0 603 688 546
58 2 2 0 0 316 541 421
59 2 2 0 0 647 696 627
60 2 2 0 0 403 439 352
61 2 2 0 0 221 603 545
62 2 2 0 0 595 648 441
63 2 2 0 0 412 550 98
64 2 2 0 0 411 714 397
65 2 2 0 0 486 739 729
66 2 2 0 0 696 724 401
67 2 2 0 0 247 482 222
68 2 2 0 0 397 714 645
69 2 2 0 0 613 651 212
70 2 2 0 0 207 745 425
71 2 2 0 0 98 675 412
72 2 2 0 0 219 482 230
73 2 2 0 0 560 692 432
74 2 2 0 0 432 689 560
75 2 2 0 0 454 575 426
76 2 2 0 0 352 439 413
77 2 2 0 0 415 420 2
78 2 2 0 0 40 464 422
79 2 2 0 0 89 512 459
80 2 2 0 0 425 614 207
81 2 2 0 0 377 600 453
82 2 2 0 0 89 90 88
83 2 2 0 0 80 466 108
84 2 2 0 0 520 717 651
85 2 2 0 0 602 703 238
86 2 2 0 0 103 687 492
87 2 2 0 0 253 491 424
88 2 2 0 0 69 709 466
89 2 2 0 0 424 512 253
90 2 2 0 0 369 696 647
91 2 2 0 0 581 701 644
92 2 2 0 0 630 670 392
93 2 2 0 0 32 656 485
94 2 2 0 0 459 512 424
95 2 2 0 0 90 91 88
96 2 2 0 0 427 478 294
97 2 2 0 0 488 695 490
98 2 2 0 0 554 699 560
99 2 2 0 0 67 80 79
100 2 2 0 0 252 454 294
101 2 2 0 0 253 628 491
102 2 2 0 0 529 681 378
103 2 2 0 0 519 715 405
104 2 2 0 0 440 441 346
105 2 2 0 0 605 717 519
106 2 2 0 0 403 452 439
107 2 2 0 0 507 639 21
108 2 2 0 0 565 567 566
109 2 2 0 0 433 454 341
110 2 2 0 0 67 466 80
111 2 2 0 0 555 697 576
112 2 2 0 0 491 628 493
113 2 2 0 0 389 641 342
114 2 2 0 0 429 619 474
115 2 2 0 0 40 501 464
116 2 2 0 0 576 699 555
117 2 2 0 0 311 600 377
118 2 2 0 0 567 622 566
119 2 2 0 0 433 575 454
120 2 2 0 0 378 671 629
121 2 2 0 0 79 540 103
122 2 2 0 0 341 473 433
123 2 2 0 0 673 704 68
124 2 2 0 0 462 710 345
125 2 2 0 0 557 722 616
126 2 2 0 0 573 662 343
127 2 2 0 0 370 656 463
128 2 2 0 0 341 454 252
129 2 2 0 0 616 702 557
130 2 2 0 0 6 26 7
131 2 2 0 0 464 501 467
132 2 2 0 0 433 473 406
133 2 2 0 0 8 45 37
134 2 2 0 0 466 709 317
135 2 2 0 0 457 461 379
136 2 2 0 0 84 512 86
137 2 2 0 0 19 452 33
138 2 2 0 0 380 614 425
139 2 2 0 0 83 540 79
140 2 2 0 0 398 510 509
141 2 2 0 0 609 631 137
142 2 2 0 0 18 442 36
143 2 2 0 0 26 45 7
144 2 2 0 0 565 566 343
145 2 2 0 0 80 83 79
146 2 2 0 0 560 689 554
147 2 2 0 0 134 137 136
148 2 2 0 0 68 469 42
149 2 2 0 0 659 716 653
150 2 2 0 0 619 707 474
151 2 2 0 0 497 610 39
152 2 2 0 0 137 138 136
153 2 2 0 0 283 573 343
154 2 2 0 0 506 644 448
155 2 2 0 0 499 735 31
156 2 2 0 0 81 97 25
157 2 2 0 0 45 46 37
158 2 2 0 0 585 668 637
159 2 2 0 0 495 735 499
160 2 2 0 0 399 510 398
161 2 2 0 0 509 573 398
162 2 2 0 0 442 443 36
163 2 2 0 0 1 607 314
164 2 2 0 0 29 612 436
165 2 2 0 0 547 631 609
166 2 2 0 0 360 595 409
167 2 2 0 0 421 682 342
168 2 2 0 0 426 575 327
169 2 2 0 0 123 577 235
170 2 2 0 0 339 743 417
171 2 2 0 0 7 45 8
172 2 2 0 0 3 723 24
173 2 2 0 0 418 666 653
174 2 2 0 0 59 60 58
175 2 2 0 0 620 636 193
176 2 2 0 0 42 469 47
177 2 2 0 0 65 67 66
178 2 2 0 0 509 662 573
179 2 2 0 0 470 482 247
180 2 2 0 0 368 476 472
181 2 2 0 0 530 740 337
182 2 2 0 0 253 512 84
183 2 2 0 0 455 698 282
184 2 2 0 0 61 65 62
185 2 2 0 0 59 61 60
186 2 2 0 0 91 472 88
187 2 2 0 0 90 92 91
188 2 2 0 0 19 442 18
189 2 2 0 0 464 465 423
190 2 2 0 0 706 724 118
191 2 2 0 0 456 611 32
192 2 2 0 0 379 477 61
193 2 2 0 0 417 743 704
194 2 2 0 0 314 683 1
195 2 2 0 0 442 458 443
196 2 2 0 0 11 28 12
197 2 2 0 0 61 62 60
198 2 2 0 0 118 724 95
199 2 2 0 0 22 25 23
200 2 2 0 0 247 483 470
201 2 2 0 0 281 640 434
202 2 2 0 0 197 667 474
203 2 2 0 0 86 512 89
204 2 2 0 0 417 704 673
205 2 2 0 0 451 690 230
206 2 2 0 0 27 442 19
207 2 2 0 0 637 668 229
208 2 2 0 0 60 475 58
209 2 2 0 0 489 610 497
210 2 2 0 0 307 573 283
211 2 2 0 0 61 477 65
212 2 2 0 0 65 66 62
213 2 2 0 0 544 740 530
214 2 2 0 0 230 719 451
215 2 2 0 0 18 452 19
216 2 2 0 0 268 569 269
217 2 2 0 0 32 485 456
218 2 2 0 0 627 696 401
219 2 2 0 0 24 42 41
220 2 2 0 0 20 27 19
221 2 2 0 0 330 461 457
222 2 2 0 0 506 672 644
223 2 2 0 0 472 476 87
224 2 2 0 0 468 495 494
225 2 2 0 0 88 472 87
226 2 2 0 0 121 577 123
227 2 2 0 0 327 575 276
228 2 2 0 0 422 464 423
229 2 2 0 0 47 63 49
230 2 2 0 0 458 506 443
231 2 2 0 0 232 690 451
232 2 2 0 0 28 487 12
233 2 2 0 0 80 107 83
234 2 2 0 0 608 696 676
235 2 2 0 0 356 481 355
236 2 2 0 0 138 238 136
237 2 2 0 0 137 139 138
238 2 2 0 0 729 739 26
239 2 2 0 0 81 99 97
240 2 2 0 0 46 50 37
241 2 2 0 0 463 656 8
242 2 2 0 0 443 444 36
243 2 2 0 0 68 704 469
244 2 2 0 0 24 68 42
245 2 2 0 0 16 503 30
246 2 2 0 0 65 69 67
247 2 2 0 0 67 79 66
248 2 2 0 0 676 696 369
249 2 2 0 0 59 379 61
250 2 2 0 0 90 93 92
251 2 2 0 0 464 467 465
252 2 2 0 0 441 708 312
253 2 2 0 0 483 484 471
254 2 2 0 0 427 479 478
255 2 2 0 0 245 564 244
256 2 2 0 0 470 483 471
257 2 2 0 0 473 721 406
258 2 2 0 0 555 699 554
259 2 2 0 0 47 469 63
260 2 2 0 0 63 355 49
261 2 2 0 0 62 64 60
262 2 2 0 0 80 108 107
263 2 2 0 0 107 539 83
264 2 2 0 0 139 140 138
265 2 2 0 0 99 100 97
266 2 2 0 0 81 236 99
267 2 2 0 0 46 51 50
268 2 2 0 0 443 445 444
269 2 2 0 0 24 419 68
270 2 2 0 0 69 466 67
271 2 2 0 0 79 103 66
272 2 2 0 0 65 477 69
273 2 2 0 0 547 548 321
274 2 2 0 0 93 94 92
275 2 2 0 0 467 468 465
276 2 2 0 0 333 664 649
277 2 2 0 0 55 498 56
278 2 2 0 0 56 498 72
279 2 2 0 0 12 499 31
280 2 2 0 0 63 356 355
281 2 2 0 0 108 110 107
282 2 2 0 0 139 141 140
283 2 2 0 0 100 101 97
284 2 2 0 0 236 248 99
285 2 2 0 0 81 594 236
286 2 2 0 0 51 52 50
287 2 2 0 0 192 515 195
288 2 2 0 0 445 446 444
289 2 2 0 0 477 481 69
290 2 2 0 0 94 95 92
291 2 2 0 0 93 96 94
292 2 2 0 0 63 408 356
293 2 2 0 0 108 111 110
294 2 2 0 0 110 117 107
295 2 2 0 0 139 154 141
296 2 2 0 0 141 142 140
297 2 2 0 0 51 53 52
298 2 2 0 0 100 102 101
299 2 2 0 0 236 250 248
300 2 2 0 0 445 447 446
301 2 2 0 0 52 388 50
302 2 2 0 0 277 622 567
303 2 2 0 0 95 608 92
304 2 2 0 0 94 118 95
305 2 2 0 0 93 104 96
306 2 2 0 0 51 561 53
307 2 2 0 0 408 434 356
308 2 2 0 0 53 54 52
309 2 2 0 0 445 448 447
310 2 2 0 0 108 317 111
311 2 2 0 0 141 143 142
312 2 2 0 0 142 225 140
313 2 2 0 0 102 166 101
314 2 2 0 0 250 325 248
315 2 2 0 0 100 258 102
316 2 2 0 0 53 55 54
317 2 2 0 0 447 449 446
318 2 2 0 0 236 505 250
319 2 2 0 0 104 105 96
320 2 2 0 0 53 57 55
321 2 2 0 0 55 56 54
322 2 2 0 0 448 451 447
323 2 2 0 0 14 39 15
324 2 2 0 0 317 511 111
325 2 2 0 0 10 40 9
326 2 2 0 0 143 144 142
327 2 2 0 0 57 58 55
328 2 2 0 0 8 37 9
329 2 2 0 0 14 38 13
330 2 2 0 0 166 314 101
331 2 2 0 0 18 36 17
332 2 2 0 0 16 29 17
333 2 2 0 0 33 504 20
334 2 2 0 0 325 365 248
335 2 2 0 0 199 202 196
336 2 2 0 0 7 32 6
337 2 2 0 0 434 435 356
338 2 2 0 0 74 75 73
339 2 2 0 0 223 239 234
340 2 2 0 0 74 76 75
341 2 2 0 0 72 74 73
342 2 2 0 0 231 549 201
343 2 2 0 0 202 205 204
344 2 2 0 0 226 227 214
345 2 2 0 0 272 275 271
346 2 2 0 0 276 318 275
347 2 2 0 0 213 214 209
348 2 2 0 0 76 77 75
349 2 2 0 0 210 231 201
350 2 2 0 0 16 30 15
351 2 2 0 0 205 209 208
352 2 2 0 0 202 204 196
353 2 2 0 0 318 406 340
354 2 2 0 0 195 196 193
355 2 2 0 0 322 420 415
356 2 2 0 0 239 240 234
357 2 2 0 0 163 588 168
358 2 2 0 0 12 31 11
359 2 2 0 0 56 72 71
360 2 2 0 0 425 426 327
361 2 2 0 0 19 33 20
362 2 2 0 0 168 224 215
363 2 2 0 0 209 568 216
364 2 2 0 0 318 433 406
365 2 2 0 0 269 271 270
366 2 2 0 0 268 269 245
367 2 2 0 0 21 639 20
368 2 2 0 0 84 85 82
369 2 2 0 0 181 207 183
370 2 2 0 0 269 272 271
371 2 2 0 0 272 276 275
372 2 2 0 0 242 243 240
373 2 2 0 0 102 167 166
374 2 2 0 0 223 234 233
375 2 2 0 0 283 343 227
376 2 2 0 0 205 208 204
377 2 2 0 0 213 226 214
378 2 2 0 0 271 572 347
379 2 2 0 0 243 268 245
380 2 2 0 0 335 398 307
381 2 2 0 0 303 555 554
382 2 2 0 0 226 283 227
383 2 2 0 0 347 485 370
384 2 2 0 0 195 199 196
385 2 2 0 0 205 213 209
386 2 2 0 0 246 322 252
387 2 2 0 0 76 78 77
388 2 2 0 0 133 163 135
389 2 2 0 0 163 168 164
390 2 2 0 0 322 415 341
391 2 2 0 0 227 361 214
392 2 2 0 0 191 198 189
393 2 2 0 0 78 84 82
394 2 2 0 0 209 216 208
395 2 2 0 0 78 82 77
396 2 2 0 0 216 303 266
397 2 2 0 0 417 418 362
398 2 2 0 0 314 607 101
399 2 2 0 0 339 362 280
400 2 2 0 0 243 245 244
401 2 2 0 0 187 291 185
402 2 2 0 0 429 430 359
403 2 2 0 0 143 145 144
404 2 2 0 0 202 553 205
405 2 2 0 0 339 417 362
406 2 2 0 0 131 580 133
407 2 2 0 0 239 242 240
408 2 2 0 0 57 59 58
409 2 2 0 0 224 246 215
410 2 2 0 0 84 86 85
411 2 2 0 0 303 554 266
412 2 2 0 0 72 73 71
413 2 2 0 0 437 438 414
414 2 2 0 0 318 340 275
415 2 2 0 0 269 270 245
416 2 2 0 0 86 87 85
417 2 2 0 0 192 193 191
418 2 2 0 0 123 235 129
419 2 2 0 0 263 374 262
420 2 2 0 0 425 427 426
421 2 2 0 0 149 150 147
422 2 2 0 0 210 232 231
423 2 2 0 0 74 373 76
424 2 2 0 0 168 215 169
425 2 2 0 0 259 262 249
426 2 2 0 0 145 146 144
427 2 2 0 0 367 524 289
428 2 2 0 0 271 347 270
429 2 2 0 0 406 407 340
430 2 2 0 0 334 459 424
431 2 2 0 0 429 474 430
432 2 2 0 0 250 328 325
433 2 2 0 0 431 432 367
434 2 2 0 0 104 278 105
435 2 2 0 0 145 147 146
436 2 2 0 0 151 152 150
437 2 2 0 0 235 583 129
438 2 2 0 0 237 249 228
439 2 2 0 0 149 151 150
440 2 2 0 0 159 161 158
441 2 2 0 0 153 155 152
442 2 2 0 0 156 158 155
443 2 2 0 0 354 367 289
444 2 2 0 0 259 263 262
445 2 2 0 0 190 191 189
446 2 2 0 0 177 221 174
447 2 2 0 0 162 228 161
448 2 2 0 0 124 516 386
449 2 2 0 0 418 653 578
450 2 2 0 0 371 584 295
451 2 2 0 0 151 153 152
452 2 2 0 0 153 156 155
453 2 2 0 0 159 162 161
454 2 2 0 0 374 593 262
455 2 2 0 0 156 159 158
456 2 2 0 0 237 259 249
457 2 2 0 0 146 284 160
458 2 2 0 0 266 309 267
459 2 2 0 0 264 265 257
460 2 2 0 0 86 88 87
461 2 2 0 0 265 312 257
462 2 2 0 0 162 237 228
463 2 2 0 0 21 44 22
464 2 2 0 0 324 392 390
465 2 2 0 0 371 585 584
466 2 2 0 0 262 366 249
467 2 2 0 0 192 195 193
468 2 2 0 0 263 375 374
469 2 2 0 0 216 266 217
470 2 2 0 0 326 327 276
471 2 2 0 0 260 646 166
472 2 2 0 0 220 223 222
473 2 2 0 0 322 341 252
474 2 2 0 0 256 257 255
475 2 2 0 0 78 253 84
476 2 2 0 0 358 359 242
477 2 2 0 0 188 189 187
478 2 2 0 0 281 339 280
479 2 2 0 0 146 160 144
480 2 2 0 0 123 129 128
481 2 2 0 0 255 324 254
482 2 2 0 0 228 229 161
483 2 2 0 0 354 431 367
484 2 2 0 0 163 164 135
485 2 2 0 0 155 157 152
486 2 2 0 0 243 244 240
487 2 2 0 0 256 264 257
488 2 2 0 0 284 316 160
489 2 2 0 0 380 425 327
490 2 2 0 0 148 149 147
491 2 2 0 0 335 399 398
492 2 2 0 0 418 578 362
493 2 2 0 0 334 424 396
494 2 2 0 0 167 260 166
495 2 2 0 0 325 368 365
496 2 2 0 0 428 429 359
497 2 2 0 0 165 255 254
498 2 2 0 0 297 342 264
499 2 2 0 0 298 371 295
500 2 2 0 0 218 323 220
501 2 2 0 0 310 337 302
502 2 2 0 0 165 256 255
503 2 2 0 0 186 187 185
504 2 2 0 0 56 71 70
505 2 2 0 0 165 254 125
506 2 2 0 0 200 201 199
507 2 2 0 0 148 206 149
508 2 2 0 0 324 390 364
509 2 2 0 0 190 192 191
510 2 2 0 0 368 369 365
511 2 2 0 0 353 404 351
512 2 2 0 0 104 331 278
513 2 2 0 0 256 297 264
514 2 2 0 0 316 421 416
515 2 2 0 0 239 358 242
516 2 2 0 0 169 586 171
517 2 2 0 0 286 287 206
518 2 2 0 0 324 364 254
519 2 2 0 0 241 576 162
520 2 2 0 0 168 169 164
521 2 2 0 0 121 123 122
522 2 2 0 0 266 267 217
523 2 2 0 0 129 131 130
524 2 2 0 0 216 217 208
525 2 2 0 0 285 382 313
526 2 2 0 0 172 321 170
527 2 2 0 0 390 391 364
528 2 2 0 0 296 563 300
529 2 2 0 0 246 252 251
530 2 2 0 0 285 286 206
531 2 2 0 0 288 289 287
532 2 2 0 0 298 372 371
533 2 2 0 0 23 35 22
534 2 2 0 0 300 344 304
535 2 2 0 0 344 462 345
536 2 2 0 0 123 128 122
537 2 2 0 0 297 389 342
538 2 2 0 0 237 277 259
539 2 2 0 0 148 285 206
540 2 2 0 0 86 89 88
541 2 2 0 0 306 307 283
542 2 2 0 0 234 279 233
543 2 2 0 0 316 416 160
544 2 2 0 0 188 190 189
545 2 2 0 0 85 98 82
546 2 2 0 0 358 428 359
547 2 2 0 0 437 455 438
548 2 2 0 0 203 210 201
549 2 2 0 0 382 383 313
550 2 2 0 0 153 176 156
551 2 2 0 0 290 354 289
552 2 2 0 0 159 241 162
553 2 2 0 0 386 387 126
554 2 2 0 0 273 363 338
555 2 2 0 0 272 326 276
556 2 2 0 0 171 293 173
557 2 2 0 0 145 148 147
558 2 2 0 0 274 295 261
559 2 2 0 0 285 313 286
560 2 2 0 0 383 384 313
561 2 2 0 0 301 302 299
562 2 2 0 0 131 133 132
563 2 2 0 0 296 298 295
564 2 2 0 0 305 310 302
565 2 2 0 0 349 412 328
566 2 2 0 0 344 345 304
567 2 2 0 0 77 119 75
568 2 2 0 0 315 378 310
569 2 2 0 0 363 401 400
570 2 2 0 0 332 333 278
571 2 2 0 0 223 233 222
572 2 2 0 0 331 334 332
573 2 2 0 0 186 188 187
574 2 2 0 0 178 212 177
575 2 2 0 0 305 360 315
576 2 2 0 0 334 396 395
577 2 2 0 0 246 251 215
578 2 2 0 0 167 261 260
579 2 2 0 0 175 179 178
580 2 2 0 0 345 346 304
581 2 2 0 0 124 386 126
582 2 2 0 0 286 288 287
583 2 2 0 0 331 332 278
584 2 2 0 0 179 181 180
585 2 2 0 0 301 305 302
586 2 2 0 0 300 304 301
587 2 2 0 0 296 300 299
588 2 2 0 0 305 315 310
589 2 2 0 0 296 299 298
590 2 2 0 0 320 453 290
591 2 2 0 0 274 296 295
592 2 2 0 0 313 531 286
593 2 2 0 0 120 281 280
594 2 2 0 0 360 409 315
595 2 2 0 0 363 400 338
596 2 2 0 0 129 130 128
597 2 2 0 0 300 301 299
598 2 2 0 0 1 508 23
599 2 2 0 0 167 273 261
600 2 2 0 0 133 135 134
601 2 2 0 0 173 174 172
602 2 2 0 0 311 377 376
603 2 2 0 0 273 274 261
604 2 2 0 0 273 338 274
605 2 2 0 0 334 395 332
606 2 2 0 0 183 197 184
607 2 2 0 0 319 393 320
608 2 2 0 0 449 450 446
609 2 2 0 0 288 290 289
610 2 2 0 0 226 306 283
611 2 2 0 0 326 380 327
612 2 2 0 0 175 177 174
613 2 2 0 0 181 183 182
614 2 2 0 0 219 230 211
615 2 2 0 0 308 335 307
616 2 2 0 0 267 311 292
617 2 2 0 0 169 170 164
618 2 2 0 0 288 319 290
619 2 2 0 0 126 165 125
620 2 2 0 0 120 280 121
621 2 2 0 0 130 357 128
622 2 2 0 0 195 200 199
623 2 2 0 0 169 171 170
624 2 2 0 0 171 172 170
625 2 2 0 0 184 186 185
626 2 2 0 0 73 282 71
627 2 2 0 0 252 294 251
628 2 2 0 0 319 320 290
629 2 2 0 0 131 132 130
630 2 2 0 0 393 394 320
631 2 2 0 0 171 173 172
632 2 2 0 0 4 34 3
633 2 2 0 0 218 220 219
634 2 2 0 0 267 292 217
635 2 2 0 0 184 185 182
636 2 2 0 0 188 194 190
637 2 2 0 0 56 70 54
638 2 2 0 0 377 405 376
639 2 2 0 0 449 470 450
640 2 2 0 0 179 180 178
641 2 2 0 0 173 175 174
642 2 2 0 0 175 178 177
643 2 2 0 0 250 329 328
644 2 2 0 0 311 376 292
645 2 2 0 0 329 571 350
646 2 2 0 0 347 370 348
647 2 2 0 0 220 222 219
648 2 2 0 0 376 385 292
649 2 2 0 0 133 134 132
650 2 2 0 0 134 136 132
651 2 2 0 0 306 308 307
652 2 2 0 0 200 203 201
653 2 2 0 0 233 247 222
654 2 2 0 0 98 460 82
655 2 2 0 0 329 349 328
656 2 2 0 0 326 381 380
657 2 2 0 0 347 348 270
658 2 2 0 0 181 182 180
659 2 2 0 0 121 122 115
660 2 2 0 0 350 351 349
661 2 2 0 0 308 336 335
662 2 2 0 0 350 403 352
663 2 2 0 0 470 471 450
664 2 2 0 0 203 211 210
665 2 2 0 0 218 219 211
666 2 2 0 0 183 184 182
667 2 2 0 0 370 463 422
668 2 2 0 0 306 402 308
669 2 2 0 0 203 218 211
670 2 2 0 0 71 490 70
671 2 2 0 0 329 350 349
672 2 2 0 0 436 437 414
673 2 2 0 0 124 126 125
674 2 2 0 0 413 414 353
675 2 2 0 0 422 423 348
676 2 2 0 0 352 353 351
677 2 2 0 0 370 422 348
678 2 2 0 0 350 352 351
679 2 2 0 0 413 436 414
680 2 2 0 0 352 413 353
681 2 2 0 0 120 121 115
682 2 2 0 0 110 480 117
683 2 2 0 0 124 125 116
684 2 2 0 0 126 521 165
685 2 2 0 0 113 120 115
686 2 2 0 0 127 440 410
687 2 2 0 0 114 124 116
688 2 2 0 0 543 544 530
689 2 2 0 0 488 489 487
690 2 2 0 0 585 637 366
691 2 2 0 0 543 570 544
692 2 2 0 0 113 115 114
693 2 2 0 0 127 410 106
694 2 2 0 0 114 116 112
695 2 2 0 0 195 515 200
696 2 2 0 0 491 493 492
697 2 2 0 0 12 487 13
698 2 2 0 0 546 547 321
699 2 2 0 0 330 457 411
700 2 2 0 0 157 543 530
701 2 2 0 0 519 520 291
702 2 2 0 0 28 488 487
703 2 2 0 0 111 112 110
704 2 2 0 0 312 534 257
705 2 2 0 0 476 732 412
706 2 2 0 0 27 458 442
707 2 2 0 0 385 636 620
708 2 2 0 0 176 559 156
709 2 2 0 0 593 634 366
710 2 2 0 0 589 590 224
711 2 2 0 0 113 114 112
712 2 2 0 0 109 127 106
713 2 2 0 0 270 564 245
714 2 2 0 0 443 506 445
715 2 2 0 0 491 492 396
716 2 2 0 0 388 624 502
717 2 2 0 0 445 506 448
718 2 2 0 0 30 500 15
719 2 2 0 0 20 504 21
720 2 2 0 0 64 475 60
721 2 2 0 0 287 542 206
722 2 2 0 0 23 508 35
723 2 2 0 0 302 558 299
724 2 2 0 0 70 551 54
725 2 2 0 0 62 598 64
726 2 2 0 0 424 491 396
727 2 2 0 0 407 456 340
728 2 2 0 0 545 546 321
729 2 2 0 0 330 411 397
730 2 2 0 0 72 536 74
731 2 2 0 0 238 574 136
732 2 2 0 0 659 660 420
733 2 2 0 0 395 538 332
734 2 2 0 0 143 527 145
735 2 2 0 0 412 675 476
736 2 2 0 0 239 513 358
737 2 2 0 0 157 530 529
738 2 2 0 0 518 519 291
739 2 2 0 0 449 482 470
740 2 2 0 0 207 713 479
741 2 2 0 0 119 523 75
742 2 2 0 0 109 670 127
743 2 2 0 0 10 501 40
744 2 2 0 0 508 509 35
745 2 2 0 0 96 606 94
746 2 2 0 0 331 459 334
747 2 2 0 0 286 531 288
748 2 2 0 0 290 453 354
749 2 2 0 0 282 490 71
750 2 2 0 0 384 531 313
751 2 2 0 0 289 524 287
752 2 2 0 0 349 550 412
753 2 2 0 0 165 521 256
754 2 2 0 0 82 460 77
755 2 2 0 0 155 543 157
756 2 2 0 0 201 549 199
757 2 2 0 0 273 591 363
758 2 2 0 0 387 521 126
759 2 2 0 0 114 516 124
760 2 2 0 0 53 561 57
761 2 2 0 0 266 554 309
762 2 2 0 0 257 534 255
763 2 2 0 0 205 553 213
764 2 2 0 0 142 522 225
765 2 2 0 0 435 481 356
766 2 2 0 0 216 568 303
767 2 2 0 0 300 563 344
768 2 2 0 0 214 568 209
769 2 2 0 0 112 480 110
770 2 2 0 0 350 571 403
771 2 2 0 0 347 572 485
772 2 2 0 0 275 572 271
773 2 2 0 0 274 563 296
774 2 2 0 0 171 586 293
775 2 2 0 0 162 576 237
776 2 2 0 0 133 580 163
777 2 2 0 0 11 501 10
778 2 2 0 0 295 584 261
779 2 2 0 0 129 583 131
780 2 2 0 0 215 586 169
781 2 2 0 0 250 505 329
782 2 2 0 0 168 588 224
783 2 2 0 0 321 548 170
784 2 2 0 0 262 593 366
785 2 2 0 0 166 646 314
786 2 2 0 0 520 535 291
787 2 2 0 0 373 663 493
788 2 2 0 0 291 535 185
789 2 2 0 0 101 607 97
790 2 2 0 0 130 574 357
791 2 2 0 0 158 570 543
792 2 2 0 0 31 501 11
793 2 2 0 0 444 552 503
794 2 2 0 0 156 559 159
795 2 2 0 0 236 594 505
796 2 2 0 0 206 542 149
797 2 2 0 0 54 551 52
798 2 2 0 0 74 536 373
799 2 2 0 0 337 558 302
800 2 2 0 0 150 532 147
801 2 2 0 0 379 728 457
802 2 2 0 0 299 558 298
803 2 2 0 0 332 538 333
804 2 2 0 0 145 527 148
805 2 2 0 0 514 515 192
806 2 2 0 0 15 500 14
807 2 2 0 0 75 523 73
808 2 2 0 0 467 501 31
809 2 2 0 0 254 592 125
810 2 2 0 0 172 545 321
811 2 2 0 0 144 522 142
812 2 2 0 0 528 532 150
813 2 2 0 0 187 518 291
814 2 2 0 0 553 599 213
815 2 2 0 0 383 603 384
816 2 2 0 0 282 698 490
817 2 2 0 0 244 517 240
818 2 2 0 0 353 525 404
819 2 2 0 0 395 540 538
820 2 2 0 0 94 606 118
821 2 2 0 0 117 539 107
822 2 2 0 0 185 535 182
823 2 2 0 0 388 502 50
824 2 2 0 0 167 591 273
825 2 2 0 0 147 532 146
826 2 2 0 0 92 608 91
827 2 2 0 0 472 676 368
828 2 2 0 0 364 592 254
829 2 2 0 0 21 504 44
830 2 2 0 0 365 597 248
831 2 2 0 0 125 592 116
832 2 2 0 0 588 589 224
833 2 2 0 0 111 113 112
834 2 2 0 0 63 469 408
835 2 2 0 0 105 109 106
836 2 2 0 0 242 526 243
837 2 2 0 0 439 712 29
838 2 2 0 0 240 517 234
839 2 2 0 0 346 533 304
840 2 2 0 0 14 500 38
841 2 2 0 0 494 495 484
842 2 2 0 0 127 630 440
843 2 2 0 0 208 537 204
844 2 2 0 0 175 562 179
845 2 2 0 0 303 626 555
846 2 2 0 0 359 526 242
847 2 2 0 0 243 526 268
848 2 2 0 0 217 537 208
849 2 2 0 0 58 498 55
850 2 2 0 0 503 552 30
851 2 2 0 0 13 499 12
852 2 2 0 0 268 621 569
853 2 2 0 0 489 497 487
854 2 2 0 0 475 498 58
855 2 2 0 0 430 526 359
856 2 2 0 0 248 597 99
857 2 2 0 0 292 537 217
858 2 2 0 0 26 645 45
859 2 2 0 0 234 517 279
860 2 2 0 0 14 497 39
861 2 2 0 0 385 537 292
862 2 2 0 0 305 533 360
863 2 2 0 0 304 533 301
864 2 2 0 0 146 532 284
865 2 2 0 0 483 494 484
866 2 2 0 0 173 562 175
867 2 2 0 0 116 480 112
868 2 2 0 0 224 590 246
869 2 2 0 0 189 518 187
870 2 2 0 0 498 536 72
871 2 2 0 0 414 525 353
872 2 2 0 0 160 522 144
873 2 2 0 0 547 609 548
874 2 2 0 0 182 535 180
875 2 2 0 0 297 601 389
876 2 2 0 0 44 594 81
877 2 2 0 0 301 533 305
878 2 2 0 0 105 106 96
879 2 2 0 0 515 596 200
880 2 2 0 0 293 562 173
881 2 2 0 0 73 523 282
882 2 2 0 0 148 527 285
883 2 2 0 0 174 545 172
884 2 2 0 0 218 596 323
885 2 2 0 0 200 596 203
886 2 2 0 0 149 542 151
887 2 2 0 0 446 552 444
888 2 2 0 0 49 461 330
889 2 2 0 0 330 397 48
890 2 2 0 0 453 738 377
891 2 2 0 0 255 534 324
892 2 2 0 0 52 551 388
893 2 2 0 0 634 646 260
894 2 2 0 0 513 615 358
895 2 2 0 0 438 525 414
896 2 2 0 0 516 618 386
897 2 2 0 0 198 518 189
898 2 2 0 0 227 566 361
899 2 2 0 0 559 560 241
900 2 2 0 0 90 587 93
901 2 2 0 0 416 522 160
902 2 2 0 0 102 591 167
903 2 2 0 0 134 609 137
904 2 2 0 0 298 558 372
905 2 2 0 0 132 574 130
906 2 2 0 0 106 606 96
907 2 2 0 0 159 559 241
908 2 2 0 0 32 611 6
909 2 2 0 0 158 543 155
910 2 2 0 0 223 513 239
911 2 2 0 0 288 531 319
912 2 2 0 0 323 513 220
913 2 2 0 0 115 516 114
914 2 2 0 0 521 601 297
915 2 2 0 0 610 698 455
916 2 2 0 0 354 600 431
917 2 2 0 0 351 550 349
918 2 2 0 0 256 521 297
919 2 2 0 0 140 604 138
920 2 2 0 0 77 460 119
921 2 2 0 0 17 503 16
922 2 2 0 0 9 502 10
923 2 2 0 0 104 587 331
924 2 2 0 0 152 528 150
925 2 2 0 0 315 541 378
926 2 2 0 0 170 548 164
927 2 2 0 0 590 659 420
928 2 2 0 0 11 624 28
929 2 2 0 0 199 549 202
930 2 2 0 0 502 624 10
931 2 2 0 0 453 600 354
932 2 2 0 0 42 43 41
933 2 2 0 0 38 499 13
934 2 2 0 0 285 527 382
935 2 2 0 0 190 514 192
936 2 2 0 0 157 529 528
937 2 2 0 0 231 643 549
938 2 2 0 0 331 587 459
939 2 2 0 0 451 701 232
940 2 2 0 0 99 597 100
941 2 2 0 0 361 568 214
942 2 2 0 0 372 740 544
943 2 2 0 0 221 545 174
944 2 2 0 0 138 604 238
945 2 2 0 0 340 572 275
946 2 2 0 0 338 563 274
947 2 2 0 0 524 542 287
948 2 2 0 0 265 595 312
949 2 2 0 0 111 511 113
950 2 2 0 0 580 658 588
951 2 2 0 0 580 588 163
952 2 2 0 0 237 576 277
953 2 2 0 0 444 503 36
954 2 2 0 0 131 583 580
955 2 2 0 0 505 571 329
956 2 2 0 0 203 596 218
957 2 2 0 0 584 634 260
958 2 2 0 0 261 584 260
959 2 2 0 0 369 647 365
960 2 2 0 0 251 586 215
961 2 2 0 0 348 564 270
962 2 2 0 0 450 552 446
963 2 2 0 0 390 496 391
964 2 2 0 0 66 598 62
965 2 2 0 0 465 623 423
966 2 2 0 0 258 591 102
967 2 2 0 0 343 566 227
968 2 2 0 0 564 623 244
969 2 2 0 0 154 617 141
970 2 2 0 0 324 534 392
971 2 2 0 0 50 502 37
972 2 2 0 0 524 556 542
973 2 2 0 0 544 700 372
974 2 2 0 0 122 516 115
975 2 2 0 0 177 557 221
976 2 2 0 0 489 698 610
977 2 2 0 0 93 587 104
978 2 2 0 0 136 574 132
979 2 2 0 0 593 646 634
980 2 2 0 0 116 592 480
981 2 2 0 0 143 617 527
982 2 2 0 0 225 604 140
983 2 2 0 0 137 631 139
984 2 2 0 0 549 553 202
985 2 2 0 0 164 548 135
986 2 2 0 0 404 550 351
987 2 2 0 0 34 721 473
988 2 2 0 0 220 513 223
989 2 2 0 0 317 640 511
990 2 2 0 0 100 597 258
991 2 2 0 0 588 658 589
992 2 2 0 0 323 615 513
993 2 2 0 0 568 626 303
994 2 2 0 0 377 605 405
995 2 2 0 0 178 613 212
996 2 2 0 0 493 628 373
997 2 2 0 0 157 528 152
998 2 2 0 0 591 627 363
999 2 2 0 0 409 541 315
1000 2 2 0 0 183 614 197
1001 2 2 0 0 103 598 66
1002 2 2 0 0 188 619 194
1003 2 2 0 0 213 599 226
1004 2 2 0 0 306 599 402
1005 2 2 0 0 97 607 25
1006 2 2 0 0 194 514 190
1007 2 2 0 0 373 628 76
1008 2 2 0 0 78 628 253
1009 2 2 0 0 42 47 43
1010 2 2 0 0 39 612 15
1011 2 2 0 0 16 612 29
1012 2 2 0 0 437 610 455
1013 2 2 0 0 487 497 13
1014 2 2 0 0 440 630 441
1015 2 2 0 0 479 713 562
1016 2 2 0 0 196 620 193
1017 2 2 0 0 456 572 340
1018 2 2 0 0 120 511 281
1019 2 2 0 0 577 578 235
1020 2 2 0 0 335 582 399
1021 2 2 0 0 314 741 683
1022 2 2 0 0 520 613 535
1023 2 2 0 0 585 634 584
1024 2 2 0 0 423 564 348
1025 2 2 0 0 457 561 411
1026 2 2 0 0 6 611 5
1027 2 2 0 0 385 620 537
1028 2 2 0 0 228 637 229
1029 2 2 0 0 366 637 249
1030 2 2 0 0 161 570 158
1031 2 2 0 0 434 640 435
1032 2 2 0 0 193 636 191
1033 2 2 0 0 410 606 106
1034 2 2 0 0 37 502 9
1035 2 2 0 0 36 503 17
1036 2 2 0 0 141 617 143
1037 2 2 0 0 363 627 401
1038 2 2 0 0 322 590 420
1039 2 2 0 0 357 618 128
1040 2 2 0 0 430 621 526
1041 2 2 0 0 540 687 103
1042 2 2 0 0 280 577 121
1043 2 2 0 0 276 575 318
1044 2 2 0 0 362 578 577
1045 2 2 0 0 109 649 496
1046 2 2 0 0 246 590 322
1047 2 2 0 0 326 569 381
1048 2 2 0 0 569 621 381
1049 2 2 0 0 269 569 272
1050 2 2 0 0 139 631 154
1051 2 2 0 0 649 664 496
1052 2 2 0 0 537 620 204
1053 2 2 0 0 355 461 49
1054 2 2 0 0 663 685 493
1055 2 2 0 0 479 745 207
1056 2 2 0 0 343 662 565
1057 2 2 0 0 212 557 177
1058 2 2 0 0 45 645 46
1059 2 2 0 0 496 670 109
1060 2 2 0 0 366 634 585
1061 2 2 0 0 384 616 531
1062 2 2 0 0 535 613 180
1063 2 2 0 0 391 632 364
1064 2 2 0 0 308 581 336
1065 2 2 0 0 344 625 462
1066 2 2 0 0 563 625 344
1067 2 2 0 0 13 497 14
1068 2 2 0 0 480 632 117
1069 2 2 0 0 371 668 585
1070 2 2 0 0 333 649 278
1071 2 2 0 0 387 601 521
1072 2 2 0 0 47 49 48
1073 2 2 0 0 358 615 428
1074 2 2 0 0 113 511 120
1075 2 2 0 0 527 617 382
1076 2 2 0 0 105 649 109
1077 2 2 0 0 398 573 307
1078 2 2 0 0 368 676 369
1079 2 2 0 0 180 613 178
1080 2 2 0 0 153 556 176
1081 2 2 0 0 432 657 367
1082 2 2 0 0 458 718 582
1083 2 2 0 0 207 614 183
1084 2 2 0 0 407 611 456
1085 2 2 0 0 244 623 517
1086 2 2 0 0 20 639 27
1087 2 2 0 0 476 675 87
1088 2 2 0 0 319 616 393
1089 2 2 0 0 474 707 197
1090 2 2 0 0 226 599 306
1091 2 2 0 0 47 48 43
1092 2 2 0 0 186 619 188
1093 2 2 0 0 412 732 328
1094 2 2 0 0 316 671 541
1095 2 2 0 0 293 734 478
1096 2 2 0 0 492 685 598
1097 2 2 0 0 528 629 532
1098 2 2 0 0 514 635 515
1099 2 2 0 0 531 616 319
1100 2 2 0 0 8 656 7
1101 2 2 0 0 387 602 601
1102 2 2 0 0 76 628 78
1103 2 2 0 0 122 618 516
1104 2 2 0 0 651 717 394
1105 2 2 0 0 423 623 564
1106 2 2 0 0 546 669 547
1107 2 2 0 0 4 679 34
1108 2 2 0 0 542 556 151
1109 2 2 0 0 548 609 135
1110 2 2 0 0 204 620 196
1111 2 2 0 0 529 629 528
1112 2 2 0 0 482 719 230
1113 2 2 0 0 258 627 591
1114 2 2 0 0 336 582 335
1115 2 2 0 0 197 686 667
1116 2 2 0 0 583 658 580
1117 2 2 0 0 85 675 98
1118 2 2 0 0 59 728 379
1119 2 2 0 0 400 625 338
1120 2 2 0 0 394 717 605
1121 2 2 0 0 471 650 450
1122 2 2 0 0 596 635 323
1123 2 2 0 0 249 637 228
1124 2 2 0 0 515 635 596
1125 2 2 0 0 338 625 563
1126 2 2 0 0 28 633 488
1127 2 2 0 0 566 622 361
1128 2 2 0 0 229 570 161
1129 2 2 0 0 468 654 465
1130 2 2 0 0 118 710 462
1131 2 2 0 0 15 612 16
1132 2 2 0 0 589 659 590
1133 2 2 0 0 526 621 268
1134 2 2 0 0 365 647 597
1135 2 2 0 0 579 583 235
1136 2 2 0 0 22 507 21
1137 2 2 0 0 342 682 264
1138 2 2 0 0 441 648 346
1139 2 2 0 0 191 636 198
1140 2 2 0 0 578 653 579
1141 2 2 0 0 135 609 134
1142 2 2 0 0 128 618 122
1143 2 2 0 0 378 681 310
1144 2 2 0 0 230 690 211
1145 2 2 0 0 210 690 232
1146 2 2 0 0 549 643 553
1147 2 2 0 0 233 661 247
1148 2 2 0 0 10 624 11
1149 2 2 0 0 640 709 435
1150 2 2 0 0 449 719 482
1151 2 2 0 0 452 726 33
1152 2 2 0 0 362 577 280
1153 2 2 0 0 318 575 433
1154 2 2 0 0 492 687 396
1155 2 2 0 0 586 734 293
1156 2 2 0 0 357 655 618
1157 2 2 0 0 277 567 259
1158 2 2 0 0 522 641 225
1159 2 2 0 0 511 640 281
1160 2 2 0 0 247 661 483
1161 2 2 0 0 610 693 39
1162 2 2 0 0 272 569 326
1163 2 2 0 0 490 695 70
1164 2 2 0 0 553 643 599
1165 2 2 0 0 532 629 284
1166 2 2 0 0 29 712 17
1167 2 2 0 0 632 665 117
1168 2 2 0 0 618 655 386
1169 2 2 0 0 241 699 576
1170 2 2 0 0 457 728 561
1171 2 2 0 0 485 572 456
1172 2 2 0 0 430 667 621
1173 2 2 0 0 582 672 458
1174 2 2 0 0 395 687 540
1175 2 2 0 0 504 594 44
1176 2 2 0 0 181 713 207
1177 2 2 0 0 197 707 184
1178 2 2 0 0 524 657 556
1179 2 2 0 0 475 536 498
1180 2 2 0 0 394 738 320
1181 2 2 0 0 51 714 561
1182 2 2 0 0 151 556 153
1183 2 2 0 0 437 693 610
1184 2 2 0 0 361 626 568
1185 2 2 0 0 611 679 5
1186 2 2 0 0 231 680 643
1187 2 2 0 0 462 706 118
1188 2 2 0 0 390 670 496
1189 2 2 0 0 602 642 601
1190 2 2 0 0 49 330 48
1191 2 2 0 0 391 665 632
1192 2 2 0 0 508 737 375
1193 2 2 0 0 450 650 552
1194 2 2 0 0 368 732 476
1195 2 2 0 0 578 579 235
1196 2 2 0 0 402 581 308
1197 2 2 0 0 43 486 41
1198 2 2 0 0 562 713 179
1199 2 2 0 0 592 632 480
1200 2 2 0 0 416 641 522
1201 2 2 0 0 372 668 371
1202 2 2 0 0 452 712 439
1203 2 2 0 0 282 720 455
1204 2 2 0 0 556 657 176
1205 2 2 0 0 364 632 592
1206 2 2 0 0 403 726 452
1207 2 2 0 0 465 654 623
1208 2 2 0 0 278 649 105
1209 2 2 0 0 154 652 617
1210 2 2 0 0 383 688 603
1211 2 2 0 0 451 719 447
1212 2 2 0 0 317 709 640
1213 2 2 0 0 604 711 642
1214 2 2 0 0 382 652 383
1215 2 2 0 0 601 642 389
1216 2 2 0 0 284 671 316
1217 2 2 0 0 599 643 402
1218 2 2 0 0 388 633 624
1219 2 2 0 0 267 678 311
1220 2 2 0 0 337 681 530
1221 2 2 0 0 279 661 233
1222 2 2 0 0 605 738 394
1223 2 2 0 0 33 677 504
1224 2 2 0 0 386 655 387
1225 2 2 0 0 547 669 631
1226 2 2 0 0 562 731 479
1227 2 2 0 0 360 648 595
1228 2 2 0 0 432 692 657
1229 2 2 0 0 367 657 524
1230 2 2 0 0 633 695 488
1231 2 2 0 0 415 473 341
1232 2 2 0 0 644 672 336
1233 2 2 0 0 551 633 388
1234 2 2 0 0 533 648 360
1235 2 2 0 0 407 679 611
1236 2 2 0 0 323 635 615
1237 2 2 0 0 530 681 529
1238 2 2 0 0 393 651 394
1239 2 2 0 0 387 655 602
1240 2 2 0 0 238 703 574
1241 2 2 0 0 594 677 505
1242 2 2 0 0 559 692 560
1243 2 2 0 0 621 667 381
1244 2 2 0 0 405 674 376
1245 2 2 0 0 325 732 368
1246 2 2 0 0 623 654 517
1247 2 2 0 0 581 644 336
1248 2 2 0 0 346 648 533
1249 2 2 0 0 517 654 279
1250 2 2 0 0 477 705 481
1251 2 2 0 0 481 705 355
1252 2 2 0 0 561 728 57
1253 2 2 0 0 379 705 477
1254 2 2 0 0 617 652 382
1255 2 2 0 0 30 650 500
1256 2 2 0 0 376 674 385
1257 2 2 0 0 518 715 519
1258 2 2 0 0 474 667 430
1259 2 2 0 0 478 734 294
1260 2 2 0 0 624 633 28
1261 2 2 0 0 186 707 619
1262 2 2 0 0 64 663 475
1263 2 2 0 0 597 647 258
1264 2 2 0 0 377 738 605
1265 2 2 0 0 31 735 467
1266 2 2 0 0 27 718 458
1267 2 2 0 0 419 673 68
1268 2 2 0 0 616 722 393
1269 2 2 0 0 24 723 419
1270 2 2 0 0 397 638 48
1271 2 2 0 0 404 730 460
1272 2 2 0 0 91 676 472
1273 2 2 0 0 622 626 361
1274 2 2 0 0 7 656 32
1275 2 2 0 0 576 697 277
1276 2 2 0 0 471 691 650
1277 2 2 0 0 536 663 373
1278 2 2 0 0 484 691 471
1279 2 2 0 0 552 650 30
1280 2 2 0 0 311 678 600
1281 2 2 0 0 486 729 5
1282 2 2 0 0 418 673 666
1283 2 2 0 0 232 680 231
1284 2 2 0 0 5 679 4
1285 2 2 0 0 117 665 539
1286 2 2 0 0 384 702 616
1287 2 2 0 0 557 702 221
1288 2 2 0 0 87 675 85
1289 2 2 0 0 225 711 604
1290 2 2 0 0 505 677 571
1291 2 2 0 0 483 661 494
1292 2 2 0 0 263 565 375
1293 2 2 0 0 504 677 594
1294 2 2 0 0 582 718 399
1295 2 2 0 0 645 714 46
1296 2 2 0 0 534 708 392
1297 2 2 0 0 643 680 402
1298 2 2 0 0 18 712 452
1299 2 2 0 0 392 670 390
1300 2 2 0 0 221 702 603
1301 2 2 0 0 496 664 391
1302 2 2 0 0 606 710 118
1303 2 2 0 0 655 703 602
1304 2 2 0 0 608 676 91
1305 2 2 0 0 194 684 514
1306 2 2 0 0 541 671 378
1307 2 2 0 0 154 669 652
1308 2 2 0 0 399 718 639
1309 2 2 0 0 405 715 674
1310 2 2 0 0 33 726 677
1311 2 2 0 0 629 671 284
1312 2 2 0 0 468 735 495
1313 2 2 0 0 469 704 408
1314 2 2 0 0 427 745 479
1315 2 2 0 0 294 734 251
1316 2 2 0 0 461 705 379
1317 2 2 0 0 385 674 636
1318 2 2 0 0 657 692 176
1319 2 2 0 0 561 714 411
1320 2 2 0 0 631 669 154
1321 2 2 0 0 264 682 265
1322 2 2 0 0 43 638 486
1323 2 2 0 0 48 638 43
1324 2 2 0 0 194 744 684
1325 2 2 0 0 381 686 380
1326 2 2 0 0 658 716 589
1327 2 2 0 0 263 567 565
1328 2 2 0 0 310 681 337
1329 2 2 0 0 493 685 492
1330 2 2 0 0 64 685 663
1331 2 2 0 0 309 678 267
1332 2 2 0 0 600 678 431
1333 2 2 0 0 538 694 333
1334 2 2 0 0 598 685 64
1335 2 2 0 0 551 695 633
1336 2 2 0 0 560 699 241
1337 2 2 0 0 211 690 210
1338 2 2 0 0 2 723 3
1339 2 2 0 0 630 708 441
1340 2 2 0 0 467 735 468
1341 2 2 0 0 396 687 395
1342 2 2 0 0 35 507 22
1343 2 2 0 0 259 567 263
1344 2 2 0 0 417 673 418
1345 2 2 0 0 614 686 197
1346 2 2 0 0 392 708 630
1347 2 2 0 0 5 729 6
1348 2 2 0 0 279 725 661
1349 2 2 0 0 6 729 26
1350 2 2 0 0 357 703 655
1351 2 2 0 0 514 684 635
1352 2 2 0 0 540 733 538
1353 2 2 0 0 374 741 593
1354 2 2 0 0 176 692 559
1355 2 2 0 0 650 691 500
1356 2 2 0 0 484 736 691
1357 2 2 0 0 83 733 540
1358 2 2 0 0 558 740 372
1359 2 2 0 0 626 697 555
1360 2 2 0 0 436 693 437
1361 2 2 0 0 375 737 374
1362 2 2 0 0 475 663 536
1363 2 2 0 0 636 674 198
1364 2 2 0 0 674 715 198
1365 2 2 0 0 70 695 551
1366 2 2 0 0 406 721 407
1367 2 2 0 0 677 726 571
1368 2 2 0 0 258 647 627
1369 2 2 0 0 448 701 451
1370 2 2 0 0 458 672 506
1371 2 2 0 0 229 700 570
1372 2 2 0 0 684 744 428
1373 2 2 0 0 570 700 544
1374 2 2 0 0 678 742 431
1375 2 2 0 0 646 741 314
1376 2 2 0 0 603 702 384
1377 2 2 0 0 478 731 293
1378 2 2 0 0 309 742 678
1379 2 2 0 0 380 686 614
1380 2 2 0 0 494 725 468
1381 2 2 0 0 500 691 38
1382 2 2 0 0 635 684 615
1383 2 2 0 0 661 725 494
1384 2 2 0 0 679 721 34
1385 2 2 0 0 509 510 35
1386 2 2 0 0 46 714 51
1387 2 2 0 0 615 684 428
1388 2 2 0 0 432 742 689
1389 2 2 0 0 179 713 181
1390 2 2 0 0 26 739 645
1391 2 2 0 0 35 510 507
1392 2 2 0 0 574 703 357
1393 2 2 0 0 184 707 186
1394 2 2 0 0 39 693 612
1395 2 2 0 0 665 694 539
1396 2 2 0 0 312 708 534
1397 2 2 0 0 554 689 309
1398 2 2 0 0 1 737 508
1399 2 2 0 0 519 717 520
1400 2 2 0 0 277 697 622
1401 2 2 0 0 389 711 641
1402 2 2 0 0 495 736 484
1403 2 2 0 0 17 712 18
1404 2 2 0 0 212 722 557
1405 2 2 0 0 455 720 438
1406 2 2 0 0 622 697 626
1407 2 2 0 0 664 694 665
1408 2 2 0 0 447 719 449
1409 2 2 0 0 669 688 652
1410 2 2 0 0 612 693 436
1411 2 2 0 0 619 744 194
1412 2 2 0 0 57 728 59
1413 2 2 0 0 579 658 583
1414 2 2 0 0 438 727 525
1415 2 2 0 0 539 733 83
1416 2 2 0 0 479 731 478
1417 2 2 0 0 691 736 38
1418 2 2 0 0 401 724 400
1419 2 2 0 0 420 660 2
1420 2 2 0 0 328 732 325
1421 2 2 0 0 320 738 453
1422 2 2 0 0 428 744 429
1423 2 2 0 0 431 742 432
1424 2 2 0 0 425 745 427
1425 2 2 0 0 408 743 434
1426 2 2 0 0 571 726 403
1427 2 2 0 0 119 727 523
1428 2 2 0 0 625 706 462
1429 2 2 0 0 525 730 404
1430 2 2 0 0 499 736 495
1431 2 2 0 0 468 725 654
1432 2 2 0 0 336 672 582
1433 2 2 0 0 198 715 518
1434 2 2 0 0 400 724 706
1435 2 2 0 0 402 680 581
1436 2 2 0 0 589 716 659
1437 2 2 0 0 727 730 525
1438 2 2 0 0 664 665 391
1439 2 2 0 0 337 740 558
1440 2 2 0 0 293 731 562
1441 2 2 0 0 523 720 282
1442 2 2 0 0 460 730 119
1443 2 2 0 0 641 711 225
1444 2 2 0 0 429 744 619
1445 2 2 0 0 119 730 727
1446 2 2 0 0 651 722 212
1447 2 2 0 0 38 736 499
1448 2 2 0 0 667 686 381
1449 2 2 0 0 652 688 383
1450 2 2 0 0 410 710 606
1451 2 2 0 0 644 701 448
1452 2 2 0 0 666 673 419
1453 2 2 0 0 704 743 408
1454 2 2 0 0 251 734 586
1455 2 2 0 0 400 706 625
1456 2 2 0 0 546 688 669
1457 2 2 0 0 668 700 229
1458 2 2 0 0 538 733 694
1459 2 2 0 0 333 694 664
1460 2 2 0 0 565 662 375
1461 2 2 0 0 720 727 438
1462 2 2 0 0 372 700 668
1463 2 2 0 0 579 716 658
1464 2 2 0 0 642 711 389
1465 2 2 0 0 355 705 461
1466 2 2 0 0 407 721 679
1467 2 2 0 0 523 727 720
1468 2 2 0 0 654 725 279
1469 2 2 0 0 639 718 27
1470 2 2 0 0 694 733 539
1471 2 2 0 0 393 722 651
1472 2 2 0 0 645 739 397
1473 2 2 0 0 683 741 374
1474 2 2 0 0 397 739 638
1475 2 2 0 0 653 716 579
1476 2 2 0 0 666 723 660
1477 2 2 0 0 419 723 666
1478 2 2 0 0 374 737 683
1479 2 2 0 0 593 741 646
1480 2 2 0 0 683 737 1
1481 2 2 0 0 689 742 309
1482 2 2 0 0 660 723 2
1483 2 2 0 0 23 25 1
1484 2 2 0 0 25 607 1
1485 2 2 0 0 3 34 2
1486 2 2 0 0 34 415 2
$EndElements
