$MeshFormat
2.2 0 8
$EndMeshFormat
$Nodes
745
1 3.7740786047426823e-05 3.4449820785218412e-05 1.0212033041971417e-03
2 3.9569980843075942e-05 -3.7822329071800148e-05 -1.0198527865538578e-03
3 1.3507018932002387e-04 2.3291948212891710e-05 -1.0110791799026405e-03
4 2.3776115062019502e-04 3.7884389840786570e-05 -9.9121108495521027e-04
5 3.6450327831696389e-04 5.1364933621295567e-05 -9.4940197998303493e-04
6 5.0012291276991985e-04 -8.7748210349116137e-08 -8.8216409272643727e-04
7 6.2152948990840877e-04 -1.2722591840030969e-05 -7.9584997261650779e-04
8 7.3837010790599915e-04 -1.0210473207012316e-05 -6.8116268205724805e-04
9 8.3792300764838005e-04 -3.3633989955456554e-06 -5.4423185013840569e-04
10 9.0478097756162214e-04 8.0726578484106905e-07 -4.1376839102389237e-04
11 9.5147337281474749e-04 3.2639344167482017e-06 -2.7975385352666486e-04
12 9.7963976733081871e-04 2.9032555376617188e-06 -1.4179776990556992e-04
13 9.8915559513350847e-04 -2.3924087856402681e-06 3.2998252859792443e-07
14 9.7955057754354406e-04 9.5793799367274067e-06 1.4090298348900536e-04
15 9.5267557518228933e-04 1.3502924468999278e-05 2.7492220893538937e-04
16 9.0492531581201337e-04 8.5726101127833303e-06 4.1396965334593002e-04
17 8.3433749533608323e-04 1.5917875567282081e-06 5.5032768082500941e-04
18 7.3575800534467835e-04 8.3772084028634980e-07 6.8452081714871326e-04
19 6.2454408798360748e-04 3.4106897788977963e-06 7.9390143927719292e-04
20 5.0255897563089786e-04 3.6055486532676096e-07 8.8113294500920291e-04
21 3.8389407390176076e-04 -5.9665751602878568e-06 9.4231684658062289e-04
22 2.6110229144397825e-04 1.0729044674692131e-05 9.8586496302291177e-04
23 1.4130516423894665e-04 -2.7022977994551342e-06 1.0108585577951574e-03
24 1.7004687027887732e-04 1.2683294417012770e-04 -9.9822814230655032e-04
25 1.6576548161898239e-04 1.0187424301215857e-04 1.0027399327261028e-03
26 5.7711576329841287e-04 1.0619792257142438e-04 -8.2304206596820221e-04
27 5.6991591560268671e-04 -1.1239716880465657e-04 8.2840751047196784e-04
28 9.5923539002269677e-04 1.3517439128324317e-04 -2.0721084237211603e-04
29 8.5766848879943215e-04 1.4627533980252286e-04 4.8904340882855194e-04
30 9.2742229632106286e-04 -1.1120974215982532e-04 3.3723003796261287e-04
31 9.6041515374966312e-04 -1.1617105109944813e-04 -2.1276622916183632e-04
32 5.3714528204641947e-04 -1.2158463181694382e-04 -8.4995960901385862e-04
33 5.5092609513185842e-04 1.1645523377807704e-04 8.4110378116138791e-04
34 1.6405942669140124e-04 -8.3012134808464695e-05 -1.0046185402370607e-03
35 1.9310598015724245e-04 -1.0228154027476921e-04 9.9676972370625833e-04
36 7.8760026866106416e-04 -1.1161689737754996e-04 6.0901162193550029e-04
37 7.8364864526558919e-04 1.1643298564606699e-04 -6.1285119877621563e-04
38 9.8058972254061808e-04 -1.0726834288782218e-04 7.2636490482786182e-05
39 9.6088616241245207e-04 1.2719225522166345e-04 2.0299454297182206e-04
40 8.6402003904555321e-04 -1.2652511546785349e-04 -4.8115308563191162e-04
41 2.8634671465692135e-04 1.4036786566161663e-04 -9.6743800867853341e-04
42 2.0235773544413039e-04 2.5789896146996447e-04 -9.6405498463144387e-04
43 3.3388695893225541e-04 2.5843386204266406e-04 -9.2384647233495802e-04
44 3.0637932045984189e-04 1.0858666942915346e-04 9.6573894125410867e-04
45 6.7886905687579641e-04 1.0767054130410429e-04 -7.3570663635314697e-04
46 7.2230872195186760e-04 2.2618204664158768e-04 -6.5863584102376406e-04
47 2.7696249529153615e-04 3.6814329976611631e-04 -9.0416699654198313e-04
48 3.9557344753658020e-04 3.5667099499349310e-04 -8.6102424187968235e-04
49 3.3074305093984521e-04 4.7299922428044441e-04 -8.2984620873043341e-04
50 8.0690176153370139e-04 2.4403728536397294e-04 -5.3514933688625821e-04
51 7.3173526843633768e-04 3.6438994522351595e-04 -5.7602499346833089e-04
52 8.1034416317680329e-04 3.6742607822497892e-04 -4.4647042530637532e-04
53 7.2275737979872272e-04 4.9103002591594945e-04 -4.7899187137249733e-04
54 7.9791324243666246e-04 4.8069946659144833e-04 -3.4270062007491577e-04
55 7.0978766947251586e-04 5.9191743862395244e-04 -3.6312170551890181e-04
56 7.7341388389090754e-04 5.7396539536058396e-04 -2.3066827759058857e-04
57 6.3042570024011404e-04 5.9773397023632968e-04 -4.8811642450338370e-04
58 6.0800421110987219e-04 6.8854649305924269e-04 -3.7786721856943408e-04
59 5.1929157246336942e-04 6.9207956067907713e-04 -4.9454607677007045e-04
60 4.8877038869487742e-04 7.7199637467659048e-04 -3.9014308092469020e-04
61 3.9686944239461752e-04 7.6079259128647382e-04 -5.0799667367437381e-04
62 3.6173437395276605e-04 8.3845023486495715e-04 -3.9136176390769243e-04
63 2.1197925810533663e-04 4.5972780578013061e-04 -8.7785880286214452e-04
64 4.5114452262420005e-04 8.3525424962254183e-04 -2.8383154936939721e-04
65 2.5770359502122188e-04 8.1898422453052181e-04 -5.0716196420441228e-04
66 2.2799567808993434e-04 8.9130320813178446e-04 -3.7367773395425246e-04
67 1.2548818088842337e-04 8.6423377323443878e-04 -4.7920752337591465e-04
68 9.8914707406523491e-05 2.4400029117664575e-04 -9.8459615977529794e-04
69 1.4385165727517227e-04 7.7342137477368750e-04 -6.2079131036760812e-04
70 8.4947439516088190e-04 4.6097950533056318e-04 -2.1464114325890732e-04
71 8.2124975632931778e-04 5.4205923367237790e-04 -1.0012478610358008e-04
72 7.3006925049035401e-04 6.5585271630173381e-04 -1.2306525526073668e-04
73 7.6691259457853400e-04 6.2408609870625372e-04 -6.7540094451930802e-07
74 6.6324262047803199e-04 7.3261202887715533e-04 -2.5393040754965269e-05
75 6.8943056949475386e-04 7.0231807729464481e-04 9.6116249019209481e-05
76 5.7725140827480533e-04 7.9953055681855352e-04 7.0892596380265781e-05
77 6.0729368650514121e-04 7.5546792689393412e-04 2.0097733506073130e-04
78 4.9583997594144190e-04 8.3777475174047966e-04 1.7769037514253169e-04
79 9.2832735810517640e-05 9.2825505454770133e-04 -3.3772793646485094e-04
80 -1.2865490400351046e-05 8.9608689748817475e-04 -4.3095600265228315e-04
81 2.3603735271070898e-04 2.1935819797476029e-04 9.6663155353702765e-04
82 5.1663458845353327e-04 7.8747535587323804e-04 3.1146661435920494e-04
83 -4.2838356873694142e-05 9.4362651760092938e-04 -2.9973443672332977e-04
84 4.0146295104705979e-04 8.6086515070166029e-04 2.8336092368565268e-04
85 4.1348181908313790e-04 8.0667871619992870e-04 4.0835429685388033e-04
86 2.9376404835806171e-04 8.7049766278372127e-04 3.7744852271424896e-04
87 2.9970059251686675e-04 8.0701156174628214e-04 5.0256013557977515e-04
88 1.7962154080856610e-04 8.6006248939967625e-04 4.6868687430094507e-04
89 1.6643600755027776e-04 9.1873680839683880e-04 3.3547173307802553e-04
90 5.0784194768479970e-05 8.9851218680641785e-04 4.2269372109621093e-04
91 6.7980267896486986e-05 8.2964474456114195e-04 5.5157960542525980e-04
92 -5.8414202960731026e-05 8.5846844911775550e-04 5.0270984346130932e-04
93 -8.9591861701566442e-05 9.1494791263302888e-04 3.7503937862574878e-04
94 -1.9150696585991058e-04 8.6607569823723832e-04 4.5053922050446572e-04
95 -1.6610145718765765e-04 8.0136139935495536e-04 5.7166927177168135e-04
96 -2.2146441540927723e-04 9.0980380761460989e-04 3.2672661870751079e-04
97 1.1798300834571194e-04 2.1968944302134841e-04 9.8902818694224064e-04
98 5.4117255772094509e-04 7.0557906934370646e-04 4.4972198665062886e-04
99 1.6706971824055671e-04 3.3997771663347922e-04 9.4435142414826573e-04
100 4.1227349200357232e-05 3.3609949264742754e-04 9.6033340069124457e-04
101 -5.0053280052528800e-06 2.2060434544560301e-04 9.9615325482812502e-04
102 -9.0755659181941719e-05 3.2743020065537196e-04 9.5987023376246559e-04
103 1.9601004951414185e-04 9.4025436996446798e-04 -2.4093338700573085e-04
104 -1.1215760293716183e-04 9.5292472625826562e-04 2.4467044169973473e-04
105 -2.4396223722072813e-04 9.3582609164572081e-04 2.0987907811618163e-04
106 -3.5282315777771119e-04 8.8246436428754296e-04 2.7965945193206016e-04
107 -1.5179685876832996e-04 9.0536961305684146e-04 -3.7827884210350711e-04
108 -1.2825788786524747e-04 8.4535667487154560e-04 -5.1278921802782912e-04
109 -3.7689418234398693e-04 9.0141474444409037e-04 1.5224623849339542e-04
110 -2.6134407778620385e-04 8.4570759467200078e-04 -4.5479870203794386e-04
111 -2.3090229402133834e-04 7.7700074169188675e-04 -5.8535639487907202e-04
112 -3.6912573982641621e-04 7.6761508151863226e-04 -5.1899527094936848e-04
113 -3.3873881443832531e-04 6.9286920020925004e-04 -6.3999473486756639e-04
114 -4.6469401115256220e-04 6.7551965721517580e-04 -5.7142447946855488e-04
115 -4.2709947774862339e-04 5.9422123588932221e-04 -6.8788078620076788e-04
116 -4.9543791707876584e-04 7.3892779420648813e-04 -4.4549939794791640e-04
117 -2.8893868970621974e-04 8.9371381006896425e-04 -3.1732409487339800e-04
118 -2.8456460687299338e-04 7.8565928323064507e-04 5.4718441604712257e-04
119 7.0169148017065123e-04 6.6157449728167629e-04 2.2375479444431475e-04
120 -2.9808260627716218e-04 5.9573286314651397e-04 -7.5590653719821753e-04
121 -3.8239331499770270e-04 4.9384328471724424e-04 -7.9290199945647802e-04
122 -5.0502878296287631e-04 4.7542814412686199e-04 -7.2897060910751595e-04
123 -4.5302791250751914e-04 3.7152828047599999e-04 -8.2377165724820708e-04
124 -5.8413486688745466e-04 6.3871421155295828e-04 -4.9386561374352759e-04
125 -6.0869897441623722e-04 6.9589845516930386e-04 -3.6107006413964516e-04
126 -6.9319004706141726e-04 5.8749207589999322e-04 -4.0211254280936120e-04
127 -4.8008775101254228e-04 8.3643478814332854e-04 2.2229776174232662e-04
128 -5.7518117034818707e-04 3.4751289154406992e-04 -7.5018179248757832e-04
129 -5.1637001148705961e-04 2.3731029176280051e-04 -8.3681199796327281e-04
130 -6.3451711381427021e-04 2.2230709743314847e-04 -7.4988991405895429e-04
131 -5.6855705418336951e-04 1.0913216261280858e-04 -8.2907156304091057e-04
132 -6.8545003572633367e-04 9.2040028471908634e-05 -7.3109299632863898e-04
133 -6.1775818714128504e-04 -1.9126433918145789e-05 -7.9849989676219351e-04
134 -7.2648641281323752e-04 -4.1253582639896744e-05 -6.9285317544478446e-04
135 -6.5102226784522388e-04 -1.5036827618039090e-04 -7.5435497717369813e-04
136 -7.8855493580245030e-04 7.6224275938179228e-05 -6.1229395222730327e-04
137 -8.1935131232740359e-04 -6.7570688869974293e-05 -5.6841030359440405e-04
138 -8.6914100104212779e-04 5.3405250081190498e-05 -4.8436723613018906e-04
139 -8.8877687762354543e-04 -9.2756477089601933e-05 -4.3734817625509261e-04
140 -9.2948933018297366e-04 2.0647815555717764e-05 -3.4678370271091304e-04
141 -9.3813189972692071e-04 -1.1610790284355414e-04 -2.9854189037381546e-04
142 -9.6690342438069060e-04 -1.2922665166775397e-05 -2.1096943485644369e-04
143 -9.6479240213029089e-04 -1.4642378427215307e-04 -1.6218667181085820e-04
144 -9.8468380534013126e-04 -4.1186314256559348e-05 -7.6910964846010712e-05
145 -9.7263288984961410e-04 -1.7404596434921011e-04 -2.5796826809692355e-05
146 -9.8507537045365860e-04 -6.1582021461990165e-05 5.3131951826477868e-05
147 -9.6443860194545200e-04 -1.9045312356666611e-04 1.0630965804319765e-04
148 -9.4027423313418996e-04 -3.0387542302247203e-04 2.5573357139373231e-05
149 -9.2469727555519177e-04 -3.1386978877280780e-04 1.5878132091424270e-04
150 -9.4082754915433017e-04 -1.9689563185304023e-04 2.3844513332489352e-04
151 -8.9329876413475737e-04 -3.1590810444831133e-04 2.9157466442076202e-04
152 -8.9807875822136098e-04 -1.9767152394503554e-04 3.7536063890922385e-04
153 -8.4161084653270831e-04 -3.1854554915731499e-04 4.2361611271672683e-04
154 -8.9065729132848282e-04 -2.2143519865429651e-04 -3.7966347909259467e-04
155 -8.3207715812633740e-04 -2.0151061920718009e-04 5.1184083258591260e-04
156 -7.6468274858996013e-04 -3.2831285801447494e-04 5.5282177208026441e-04
157 -8.7982102445943527e-04 -6.8704496994909052e-05 4.6121130093479661e-04
158 -7.4360664263984917e-04 -2.1452289519989458e-04 6.3715398689328053e-04
159 -6.6393551172845534e-04 -3.3624924696870888e-04 6.7445123299480700e-04
160 -9.8587111210216862e-04 6.9720406821218968e-05 3.9923316521439532e-06
161 -6.3899350984894532e-04 -2.1967387364693687e-04 7.4746729372657781e-04
162 -5.5093063635925320e-04 -3.2739958301170421e-04 7.8008020739143871e-04
163 -5.2887545241728782e-04 -1.2083935488832126e-04 -8.5517011150345039e-04
164 -5.5514921762137384e-04 -2.5387250046272225e-04 -8.0499247552188254e-04
165 -7.1041798865864971e-04 6.3526900765305499e-04 -2.7004853977008475e-04
166 -1.4254814971480207e-04 2.2369647016141304e-04 9.8454437077761733e-04
167 -2.2698210593010372e-04 3.1605518970423445e-04 9.3963686610695947e-04
168 -4.2534511271235587e-04 -2.1436745742987553e-04 -8.9629482391978066e-04
169 -4.4043874457684313e-04 -3.4906128053839342e-04 -8.4184031576456093e-04
170 -5.5962212994527098e-04 -3.8511879005337265e-04 -7.4380597458161945e-04
171 -4.4451893450203210e-04 -4.7739228929544587e-04 -7.6935423515768497e-04
172 -5.5828375533286409e-04 -5.1218264343060038e-04 -6.5796076686109825e-04
173 -4.4351370486794107e-04 -5.9675235148018630e-04 -6.7507935489506525e-04
174 -5.4133070126256497e-04 -6.2756524792242246e-04 -5.5836831856322924e-04
175 -4.3054217219180732e-04 -7.0602270865669241e-04 -5.6150735745219571e-04
176 -7.7011914222758885e-04 -4.3000244700633811e-04 4.6205816124947731e-04
177 -5.2025403615107730e-04 -7.2212026365045306e-04 -4.4568337228789869e-04
178 -4.0564278908264564e-04 -7.9668992800439994e-04 -4.3738249466028923e-04
179 -3.1315856498533945e-04 -7.7817277180267585e-04 -5.4209020387791331e-04
180 -2.8065125866221419e-04 -8.5829315394414442e-04 -4.1738744610198822e-04
181 -1.8064681582119599e-04 -8.3112008013456475e-04 -5.2241442620054970e-04
182 -1.4399963723853686e-04 -8.9889710187182148e-04 -4.0019466981269412e-04
183 -4.6568577319996136e-05 -8.5683780788397982e-04 -5.0968517138051748e-04
184 -1.5776252374280436e-05 -9.1836758960802387e-04 -3.7973512606706339e-04
185 -1.0317325279205330e-04 -9.4841058038153429e-04 -2.6995251214158544e-04
186 3.3119977551446135e-05 -9.5943653540317441e-04 -2.4620112198447638e-04
187 -5.6495972914851541e-05 -9.7793901846647633e-04 -1.4161218353209924e-04
188 8.6672037549735510e-05 -9.7842964384460898e-04 -1.2125947453785897e-04
189 -9.5709332768992315e-06 -9.8891502474217092e-04 -1.6945476896250020e-05
190 1.2887081687345519e-04 -9.8073667237348660e-04 9.2126945255790015e-06
191 2.9777908147975260e-05 -9.8303580164479476e-04 1.0927102259784161e-04
192 1.6446407025349894e-04 -9.6657372251353541e-04 1.3611245880653974e-04
193 6.5967212929070237e-05 -9.6078959783530511e-04 2.3399372970778920e-04
194 2.1989279597389602e-04 -9.6035022669180964e-04 -9.0638961617517570e-05
195 1.9963633626382093e-04 -9.3550558529274536e-04 2.6122119640979794e-04
196 9.7256572627884392e-05 -9.1920157978060398e-04 3.6493837737836926e-04
197 1.0854217925027260e-04 -8.7054357366894112e-04 -4.7480899885998958e-04
198 -9.7277218663259710e-05 -9.8116306009240193e-04 7.7992531677389677e-05
199 2.3360155142271858e-04 -8.8471297302399326e-04 3.8932209933882915e-04
200 3.3279453299739505e-04 -8.9040723624277650e-04 2.8392863385879208e-04
201 3.6200356368052994e-04 -8.2952262360534755e-04 4.1357808482192862e-04
202 1.2967599445972975e-04 -8.5662869581057681e-04 4.9441127276160252e-04
203 4.5558401171117482e-04 -8.2790871772137791e-04 3.0334707548850811e-04
204 -4.8463629641760624e-06 -8.8343867713145709e-04 4.6089368096503244e-04
205 2.9416971328119554e-05 -8.0764385733645956e-04 5.9077236773106211e-04
206 -8.9038460511162414e-04 -4.2354387814868958e-04 7.3796167782947471e-05
207 -8.6981210571116126e-05 -7.7434956554977489e-04 -6.3158931468594625e-04
208 -1.0488567473494718e-04 -8.2601161256195209e-04 5.5310619639268319e-04
209 -7.1384425914622601e-05 -7.3804083774003818e-04 6.7814036635814221e-04
210 4.8236483599251354e-04 -7.5705922506020022e-04 4.3049557678535345e-04
211 5.6773478599424882e-04 -7.5215480151973578e-04 3.1151237579759932e-04
212 -4.9061260775987983e-04 -7.9941539573700267e-04 -3.2346648407798295e-04
213 5.7497253739485242e-05 -7.1264380288352800e-04 7.0794293493172430e-04
214 -3.9663047675870836e-05 -6.3267510694035519e-04 7.8619156272202294e-04
215 -3.1520207024409905e-04 -3.0246158890559201e-04 -9.1747402927326734e-04
216 -2.0396137054989633e-04 -7.4986422521053267e-04 6.3390783203170380e-04
217 -2.3624186937778779e-04 -8.2948761790179533e-04 5.0152033184696135e-04
218 5.4147791727402026e-04 -8.0729036347517368e-04 1.9126009884811286e-04
219 6.5466199254578304e-04 -7.1402457433177350e-04 2.0913293840456998e-04
220 6.1742370450379002e-04 -7.6873551041952348e-04 8.5830578751652976e-05
221 -6.2633075993629502e-04 -6.3847955447659936e-04 -4.3591286076966285e-04
222 7.1800319781436367e-04 -6.7344339387400451e-04 1.0422647374520406e-04
223 6.7996237090010337e-04 -7.1827132209363457e-04 -2.4921289021407024e-05
224 -2.9288244868262161e-04 -1.6483325139385384e-04 -9.6146094797224077e-04
225 -9.5235791464614119e-04 1.1121304020058514e-04 -2.4662464608381869e-04
226 8.2261529367489775e-05 -5.9803129184171177e-04 8.1133319455037930e-04
227 -7.7260988304465920e-06 -5.1158821207652843e-04 8.7610447510522919e-04
228 -5.2426302297779118e-04 -1.9843673287592485e-04 8.4327730634155393e-04
229 -5.9759463377322109e-04 -9.7583782508935799e-05 8.0877104287620260e-04
230 6.6812251914511193e-04 -6.5197552946284548e-04 3.3890904418246452e-04
231 3.9121972316085265e-04 -7.5102449098198509e-04 5.2946270105086479e-04
232 5.1684566440501477e-04 -6.5922109184496282e-04 5.4660732701060160e-04
233 7.6730390971093939e-04 -6.2414051553742517e-04 -1.6277575017963559e-05
234 7.2824565656670246e-04 -6.5567030793225014e-04 -1.3985650589848418e-04
235 -3.9037511230804442e-04 2.5893884113199924e-04 -9.0017027838544029e-04
236 2.9400785491638767e-04 3.3840253914040822e-04 9.1152520922108344e-04
237 -4.3500926520263929e-04 -2.9969683290669930e-04 8.6552475498684214e-04
238 -8.3608665759696537e-04 1.9774564038119508e-04 -5.0742542459321870e-04
239 6.3551858295797764e-04 -7.4417624124838849e-04 -1.4982685823603339e-04
240 6.7468969895040538e-04 -6.7481505657531165e-04 -2.6985221026390492e-04
241 -5.7822841171088909e-04 -4.3918765213551216e-04 6.9557622461474667e-04
242 5.7059922315811197e-04 -7.6361160437994938e-04 -2.7368213203944071e-04
243 6.0301392458094328e-04 -6.8457183624674061e-04 -3.9610264057609982e-04
244 7.0396553527553405e-04 -5.8953769759037338e-04 -3.8106136981525874e-04
245 6.2418249889826919e-04 -5.9080195934627295e-04 -5.0734616639150842e-04
246 -1.9070876353205883e-04 -2.5235230895983039e-04 -9.6861119835918669e-04
247 8.0510126793130867e-04 -5.6624325844522032e-04 1.0331039873858246e-04
248 2.3316318208609630e-04 4.4579133949608295e-04 8.8040767517182344e-04
249 -3.9607535686131602e-04 -1.5712943287212819e-04 9.2328643383358824e-04
250 3.6167598490038775e-04 4.3792206283909459e-04 8.3741146901317566e-04
251 -2.2053246555768188e-04 -3.6445740534599266e-04 -9.2288209455449258e-04
252 -9.2554717110506619e-05 -3.3516115373896969e-04 -9.5729541968262832e-04
253 3.7334759630347963e-04 9.0406626883889432e-04 1.4723126279041635e-04
254 -6.1791520539542606e-04 7.3818090818553498e-04 -2.3017563402332852e-04
255 -7.0893216339813531e-04 6.7444739811957323e-04 -1.4135523872731788e-04
256 -7.9205604942856006e-04 5.6663314997234540e-04 -1.7286330684043553e-04
257 -7.7896975544645964e-04 6.0634484775799822e-04 -4.2801288947120353e-05
258 -2.9313897524118057e-05 4.3758783351012601e-04 9.1617209433356845e-04
259 -3.0791870767041789e-04 -2.3946892811872673e-04 9.4008629098093978e-04
260 -2.7597768564215232e-04 2.0637846707485214e-04 9.5808948983662034e-04
261 -3.5815916020175750e-04 3.1037080480795804e-04 8.9725597585363663e-04
262 -2.6908158480982427e-04 -1.1197998667670928e-04 9.7709485257033114e-04
263 -1.7589911894555480e-04 -1.8546346040149435e-04 9.8793625639736278e-04
264 -8.5391621863280763e-04 4.9152251124340242e-04 -7.7619857183495818e-05
265 -8.2831766605224251e-04 5.3628075247058853e-04 5.2847258298010209e-05
266 -3.3909160292412081e-04 -7.4810773978955028e-04 5.7076306437138210e-04
267 -3.6803120060092639e-04 -8.1597952443512715e-04 4.3527187218686438e-04
268 5.1102897025219658e-04 -6.8491698438831526e-04 -5.1610457261693648e-04
269 5.2194940860583652e-04 -5.8162514258462618e-04 -6.2819311917818596e-04
270 6.3538345439376849e-04 -4.8111251406960520e-04 -6.0693772901859223e-04
271 5.2051428013720003e-04 -4.6544464001471638e-04 -7.2553071263255567e-04
272 4.0103321285054532e-04 -5.5828491952311990e-04 -7.3655970256964192e-04
273 -3.0483522925133796e-04 4.1700264132906849e-04 8.7164931333219488e-04
274 -4.3436365160613851e-04 4.1442757811199673e-04 8.1234302755084473e-04
275 3.9434444180575873e-04 -4.3625749445511526e-04 -8.2318555356782010e-04
276 2.8070763420685906e-04 -5.2546886090038079e-04 -8.1730750471684728e-04
277 -3.3535719056691256e-04 -3.7384821035536873e-04 8.8159618620856203e-04
278 -1.2618172006679341e-04 9.7210419802834709e-04 1.2923338225412470e-04
279 8.0554180694642809e-04 -5.5992336850055346e-04 -1.2905512233132621e-04
280 -2.4071394310119687e-04 4.7927223824145536e-04 -8.5903778314166360e-04
281 -1.5028825736298611e-04 5.7649803402738675e-04 -8.1623004272863263e-04
282 8.5982931309297440e-04 4.8935383904035986e-04 2.3548654510029320e-05
283 1.1644034816026398e-04 -4.6665031446847761e-04 8.9449911438343435e-04
284 -9.7962771021354190e-04 5.0540497977840313e-05 1.2310928883816992e-04
285 -8.9944475677361361e-04 -4.0515342281475494e-04 -6.5411081787383385e-05
286 -8.4022979036069568e-04 -5.2069170464659844e-04 -1.8410781985786131e-05
287 -8.2568005971756582e-04 -5.3184722904723507e-04 1.1724485996021483e-04
288 -7.6250117167644537e-04 -6.2889388958647929e-04 2.6981630271338871e-05
289 -7.4188284506200087e-04 -6.3579551280257556e-04 1.5673697259225883e-04
290 -6.6880905015068040e-04 -7.2496659060250913e-04 7.0209411507495104e-05
291 -1.9750814511349614e-04 -9.5648653882604876e-04 -1.6148289919282386e-04
292 -2.6888114741350952e-04 -8.8313325948392461e-04 3.6768158806490045e-04
293 -3.3902096391825006e-04 -5.5276174961462680e-04 -7.7315814391619951e-04
294 -9.8925911299060687e-05 -4.7313416037034352e-04 -8.9333395237908635e-04
295 -4.9033310150746305e-04 3.0275308423617533e-04 8.3096750936769684e-04
296 -5.5901189709183375e-04 4.0344448297323723e-04 7.3295348149612189e-04
297 -8.6237856698624421e-04 4.4104342031321860e-04 -2.0273054879259132e-04
298 -6.1714089778119299e-04 2.7032702729181594e-04 7.4870106979226479e-04
299 -6.7409914454116392e-04 3.7462823933469557e-04 6.3980283975713316e-04
300 -6.0888333008484157e-04 4.9820397712203445e-04 6.1917846658866621e-04
301 -7.1801220936540226e-04 4.6151474370111426e-04 5.1563874289490945e-04
302 -7.7466595244193783e-04 3.3568319807901692e-04 5.3168119079084189e-04
303 -3.0549045321896892e-04 -6.6004737741450891e-04 6.9434330611300988e-04
304 -6.3802677839876730e-04 5.8860804323431848e-04 4.8916159906262178e-04
305 -8.0461140647671058e-04 4.1501910328081406e-04 4.1016486387753290e-04
306 2.0548129840563831e-04 -5.5265333133924820e-04 8.2222799165783324e-04
307 2.4027317085047119e-04 -4.2643688964029940e-04 8.8951689263839920e-04
308 3.4517208941423180e-04 -5.0150814787758248e-04 8.0727654407259243e-04
309 -4.5607191941966752e-04 -7.3600610461076925e-04 4.9398266311688477e-04
310 -8.5601780943853642e-04 2.8017551877855269e-04 4.2075069821914771e-04
311 -4.0148077847467552e-04 -8.5679481965818651e-04 2.9809990268663905e-04
312 -7.5499202214179438e-04 6.3262929847524496e-04 7.8897618101196514e-05
313 -8.4192499965718339e-04 -4.9628133463837213e-04 -1.5407155279147862e-04
314 -7.3089061596445451e-05 1.1962135491025003e-04 1.0118480181922982e-03
315 -8.7947948195208085e-04 3.5042977692282331e-04 2.9445795984722333e-04
316 -9.6760834951807660e-04 1.8285162351928201e-04 8.5532909879310940e-05
317 -1.0525372686565895e-04 7.6915883468988832e-04 -6.3277841375672253e-04
318 2.7138489081888481e-04 -3.9849864199492982e-04 -8.9333611829747099e-04
319 -6.8366517315762514e-04 -7.1161965529121358e-04 -6.4057723151174630e-05
320 -5.9703024608543276e-04 -7.8777249002234459e-04 -6.1284950158612302e-06
321 -6.6320662355708168e-04 -4.1275058606798421e-04 -6.2758196921754465e-04
322 -5.7709184475480301e-05 -2.1704452035873595e-04 -9.9534966350897755e-04
323 5.0810864091490346e-04 -8.4593502214154459e-04 7.4337115658349925e-05
324 -6.1275346961797792e-04 7.6889720886623252e-04 -9.9809969506741130e-05
325 2.8911513389753959e-04 5.4574264223886820e-04 7.9883667914526068e-04
326 2.7744543179578746e-04 -6.4285943264698342e-04 -7.2347869736391634e-04
327 1.5581916539447464e-04 -6.0521113263258355e-04 -7.9377446964313462e-04
328 4.2592825395881638e-04 5.3683851784365022e-04 7.3768450155906561e-04
329 4.8923209688688147e-04 4.1941531113152280e-04 7.7617321459680019e-04
330 4.4923257971333830e-04 4.4754735937873534e-04 -7.8421197754316224e-04
331 9.0426726602218203e-06 9.7536841386707614e-04 1.6377732681107323e-04
332 -1.3006736245393260e-05 9.8719171181406678e-04 4.2295504940274638e-05
333 -1.5081847316789180e-04 9.7645944737607656e-04 3.8340770266922018e-06
334 1.1772766415142816e-04 9.7803872282094988e-04 8.0200174577663589e-05
335 3.6451515576878105e-04 -3.6335596014155133e-04 8.7416772338594741e-04
336 4.6232944466604193e-04 -4.3026531470454523e-04 7.8796795596863096e-04
337 -8.1445663672480414e-04 2.1067582873252473e-04 5.3632377702085424e-04
338 -3.5900572424295865e-04 5.2284236899633363e-04 7.8415931233627510e-04
339 -1.1387768325468474e-04 4.6069619593414171e-04 -8.9664778320794130e-04
340 3.6786006228355577e-04 -3.0236774554237686e-04 -8.9671558999594649e-04
341 1.7026481101661889e-05 -2.8737441963580361e-04 -9.7822018379811683e-04
342 -9.2119528465027035e-04 3.4713479996960822e-04 -9.8569507865057569e-05
343 1.9182807508320278e-05 -3.8453112000048825e-04 9.4259158955698743e-04
344 -5.2313072631450714e-04 6.1349166714170112e-04 5.9166887518954242e-04
345 -5.3481930203140571e-04 7.0595433181020134e-04 4.5583123541362465e-04
346 -6.5290333779854254e-04 6.5834550096935992e-04 3.5370048975930866e-04
347 6.1658750157942712e-04 -3.6560553347236748e-04 -7.0579523129363903e-04
348 7.2478079504027229e-04 -3.7158965797250403e-04 -5.8150385717121447e-04
349 5.4576093372900954e-04 5.2069809571048510e-04 6.6163119623720203e-04
350 6.0781965064683611e-04 4.0119629287377177e-04 6.9215410230649439e-04
351 6.5871786919287226e-04 4.8907588712082683e-04 5.7123126807967473e-04
352 7.1377811510816083e-04 3.5731675417418962e-04 6.0431441145958971e-04
353 7.5204336123553734e-04 4.4775554597486410e-04 4.7672370473947784e-04
354 -6.3838027499920529e-04 -7.2973805769960547e-04 2.0060927083091542e-04
355 2.6232718003593475e-04 5.5812544778055778e-04 -7.9881326192016676e-04
356 1.4087274833014425e-04 5.6442913014963410e-04 -8.2660923839001602e-04
357 -6.7863760327480625e-04 3.2413813033426564e-04 -6.6342159773706295e-04
358 5.2472998221100408e-04 -8.2559157780592873e-04 -1.5210630657294381e-04
359 4.4943445574411678e-04 -8.4135271146985500e-04 -2.7117007209547547e-04
360 -8.1825939320677953e-04 4.8446185234940042e-04 2.7825439799142641e-04
361 -1.2940129678041691e-04 -5.3683663685269402e-04 8.4927701498296187e-04
362 -1.9303146421963891e-04 3.5770314713196114e-04 -9.3167575115328126e-04
363 -2.3588445550596713e-04 5.2032538681156745e-04 8.3404899920139740e-04
364 -5.1681062972986551e-04 8.2390360657661117e-04 -1.7992335267630262e-04
365 1.6495432853783076e-04 5.5171762914481086e-04 8.3138180112164587e-04
366 -3.7155652367090454e-04 -2.9398332565400615e-05 9.4712111446324833e-04
367 -6.9899626865417325e-04 -6.3960683887405217e-04 2.9264385556165596e-04
368 2.1316029348257949e-04 6.7293293408032134e-04 7.1743872260592446e-04
369 8.2695739615038817e-05 6.3831210400912817e-04 7.7518977843932376e-04
370 7.0232320316809945e-04 -2.5358022777032376e-04 -6.7182986682989398e-04
371 -5.4070919760253514e-04 1.6656536465441146e-04 8.3889305621203682e-04
372 -6.6221284218739059e-04 1.3571180334512542e-04 7.4743812888358643e-04
373 5.4890320457222548e-04 8.2050005472136139e-04 -5.1016163268276463e-05
374 -1.5364516453612013e-04 -7.0887039927729065e-05 1.0073269898435923e-03
375 -3.8193703329335519e-05 -1.6329155157116700e-04 1.0076569222017453e-03
376 -3.0030571549568815e-04 -9.1578538532306416e-04 2.3031842102962325e-04
377 -4.2947434769319867e-04 -8.7820263514840253e-04 1.5922525164105804e-04
378 -9.2264099478871014e-04 1.9164826636740724e-04 3.1079366150369819e-04
379 4.2789035027942520e-04 6.6095213507200103e-04 -6.1938391456560688e-04
380 1.5430357698299375e-04 -7.1474698014439245e-04 -6.8963467932807681e-04
381 2.8037102968473689e-04 -7.4344630330923649e-04 -6.0981670240108717e-04
382 -8.9359909238807518e-04 -3.7580498700366389e-04 -1.9960598967897039e-04
383 -8.2743395542095072e-04 -4.6654083894073724e-04 -2.8274222650774415e-04
384 -7.6382046596410998e-04 -5.8277590756997068e-04 -2.4137091345663694e-04
385 -1.6537472908311122e-04 -9.3520498896293089e-04 2.8620027083790491e-04
386 -6.6020256137120151e-04 5.2542027401475551e-04 -5.3264100691507044e-04
387 -7.5881050492270657e-04 4.7313191785569516e-04 -4.3526246017854578e-04
388 8.7498604762803077e-04 2.4583169588089941e-04 -4.0336833908527145e-04
389 -9.0500442894501096e-04 3.2388212860922489e-04 -2.3679070590717989e-04
390 -5.0764706567623362e-04 8.4644636871090940e-04 -4.4465934725236654e-05
391 -4.0425505835567740e-04 8.9405248904783901e-04 -1.1962902089279390e-04
392 -6.0168357363503226e-04 7.8276753609906962e-04 3.0988743644921218e-05
393 -5.8804762421499292e-04 -7.8532918616618455e-04 -1.2650665962733295e-04
394 -4.9735423614935277e-04 -8.5209407783747482e-04 -6.1517852463654056e-05
395 9.2516538402311212e-05 9.8264867395410436e-04 -4.6840985252962608e-05
396 2.2559718966953443e-04 9.6200816960905953e-04 -1.1355598412982226e-05
397 5.2615206015907444e-04 3.2427553565937635e-04 -7.9871979440298408e-04
398 2.5665978688137956e-04 -2.9699067560102273e-04 9.3895022476047393e-04
399 3.7800329610391734e-04 -2.2297275291341450e-04 9.1737895446521948e-04
400 -2.8874979822275860e-04 6.0851828480386772e-04 7.4800918249962284e-04
401 -1.6940942650106090e-04 6.1774641071485087e-04 7.7744366454667328e-04
402 3.1375768187045860e-04 -6.1749932285170574e-04 7.3120869614826003e-04
403 6.6234177246405636e-04 2.7141010873816282e-04 7.0603576206721092e-04
404 6.6860595278354223e-04 5.8991728482841045e-04 4.4448197602840690e-04
405 -3.1200530023745731e-04 -9.3349830672952822e-04 9.8973936996549051e-05
406 2.3236581949582090e-04 -2.6326583714346121e-04 -9.5568201212597819e-04
407 3.3598262070354561e-04 -1.8035068876714574e-04 -9.4324754844538864e-04
408 9.2825196455794930e-05 4.6026816403294359e-04 -8.9920957146503349e-04
409 -8.8067569732823566e-04 4.2387565288981609e-04 1.5775128326655797e-04
410 -4.5151983507221954e-04 8.0907035293674814e-04 3.5538625089471610e-04
411 5.5879617370124563e-04 4.2211332337294648e-04 -7.2061716464503166e-04
412 4.6544793556264116e-04 6.5276061357954509e-04 6.0037156165412755e-04
413 8.1201098066391319e-04 2.9069782287093548e-04 5.0141219910779960e-04
414 8.3516742838898612e-04 3.8801379227673569e-04 3.7268276956019350e-04
415 5.0924750363266621e-05 -1.3799141845896500e-04 -1.0105447102510784e-03
416 -9.6552285374427809e-04 2.0775978381886698e-04 -4.2003074026720549e-05
417 -6.1579411468636074e-05 3.4244273757532274e-04 -9.5612455111195461e-04
418 -1.2381984017530032e-04 2.2658453699282911e-04 -9.8633643744913506e-04
419 5.8172565373416071e-05 1.6621434427161708e-04 -1.0045001587734852e-03
420 -6.9031466023749291e-05 -8.6565674557019165e-05 -1.0152480629955359e-03
421 -9.3700721972145187e-04 3.1088534989813228e-04 4.9659100766052105e-05
422 8.0064906631910392e-04 -2.5186335793693932e-04 -5.4224891042768631e-04
423 8.0906382571616022e-04 -3.6987011383003151e-04 -4.4811113813456916e-04
424 2.5312159724330210e-04 9.4823107649498830e-04 1.2025891538913530e-04
425 3.2458714915218259e-05 -6.8363832946384203e-04 -7.4035312056956878e-04
426 2.4058350552971189e-05 -5.4822304025713522e-04 -8.5178973652160210e-04
427 -8.4905866113283321e-05 -5.9404442659109617e-04 -8.1308311650132544e-04
428 4.1051793085876621e-04 -8.8657614125547967e-04 -1.5881547865301398e-04
429 3.2818807498110903e-04 -8.9661216416379841e-04 -2.6736710654503599e-04
430 3.6404979563703143e-04 -8.4159223988360457e-04 -3.8421118963038813e-04
431 -6.0187581145633830e-04 -7.1904768901380738e-04 3.2404367808208325e-04
432 -6.4320939799781098e-04 -6.2332855592873071e-04 4.3475884932825740e-04
433 1.4078174316190634e-04 -3.5366806198573080e-04 -9.4385251111101399e-04
434 -7.4543735400300581e-06 5.6348830667607528e-04 -8.4100208349253719e-04
435 7.3527711556829438e-05 6.6958735533760800e-04 -7.4862779331588908e-04
436 8.8169550749514925e-04 2.4538997000355783e-04 3.8771953224571594e-04
437 8.9799948377134006e-04 3.2651696420547713e-04 2.6298809069222231e-04
438 8.4990985402691075e-04 4.4564497771346778e-04 2.4512813639939547e-04
439 7.6303556939922288e-04 2.1435109299054725e-04 6.1275523324424671e-04
440 -5.7954540107972563e-04 7.4803507268357701e-04 2.9536724649649720e-04
441 -6.9503503628524075e-04 6.7278391546099329e-04 2.1173045473641845e-04
442 6.8522791968885942e-04 -1.1856382095674635e-04 7.2849836982019102e-04
443 7.2216755151114200e-04 -2.4064729531557777e-04 6.5443542933356314e-04
444 8.1899965160598949e-04 -2.4096532912878290e-04 5.1775470058454095e-04
445 7.5069861083692699e-04 -3.6098436921898916e-04 5.5250767851918348e-04
446 8.2366980260710325e-04 -3.6484710348904954e-04 4.2336277886606717e-04
447 7.4708536483319293e-04 -4.6924090162412063e-04 4.6330538125246310e-04
448 6.6970240466516324e-04 -4.6671250300247110e-04 5.7840924304915122e-04
449 8.0865042987046448e-04 -4.7272811119992351e-04 3.2957714038184125e-04
450 8.7644109470296167e-04 -3.5948085704167127e-04 2.9511911795902893e-04
451 6.4623672611423678e-04 -5.8734545157077380e-04 4.8269390141976416e-04
452 6.7620749645713090e-04 1.3274083841381990e-04 7.3531987177833334e-04
453 -5.6931845262270426e-04 -7.9985291750548856e-04 1.2090078482059007e-04
454 2.5706106792393885e-05 -4.2067099503628372e-04 -9.2556547707010395e-04
455 9.0228961343759339e-04 3.8239133658942798e-04 1.3620912426466511e-04
456 4.5317427219309237e-04 -2.1713353376534992e-04 -8.8121100196095745e-04
457 4.9995578622017377e-04 5.3945425336637538e-04 -6.8308163484626647e-04
458 6.0815533863794709e-04 -2.4366023437743424e-04 7.6797322542118880e-04
459 1.4592480887220177e-04 9.5591864109891911e-04 2.1094594871594251e-04
460 6.2053708427302671e-04 6.9985006738426182e-04 3.3149403187926588e-04
461 3.8768595226701180e-04 5.6259065147081487e-04 -7.3869486965593865e-04
462 -4.1887813289898383e-04 7.0684829611246316e-04 5.6801715659639100e-04
463 7.8149926139773891e-04 -1.3429081239183435e-04 -6.1240523996323993e-04
464 8.7313770379066069e-04 -2.4660309210974179e-04 -4.0807356299489572e-04
465 8.7034058800518875e-04 -3.6288341818009731e-04 -3.0957639159021684e-04
466 1.1317784618171468e-05 8.3040427443228254e-04 -5.5423489996142322e-04
467 9.2253838780239196e-04 -2.4129582938808803e-04 -2.7169447221359343e-04
468 9.1172609352960622e-04 -3.4835267302406542e-04 -1.6907693478679457e-04
469 1.5157138387838519e-04 3.4829555610230086e-04 -9.4329877940614506e-04
470 8.4615105293592394e-04 -4.7229608443553743e-04 2.0639011433267666e-04
471 9.1062473852750007e-04 -3.4561342084610068e-04 1.7809134614557020e-04
472 1.9597339071127323e-04 7.7531971181095686e-04 6.0164086492027588e-04
473 1.3358173395584398e-04 -2.2340774884460624e-04 -9.8597285533191261e-04
474 2.2753647771821495e-04 -8.9525601248621582e-04 -3.6626212953834051e-04
475 5.6955557103470392e-04 7.6476055420255404e-04 -2.6904456296544007e-04
476 3.1516490697232287e-04 7.2045388648105959e-04 6.2000756941691184e-04
477 2.9036419133616820e-04 7.3305222968039969e-04 -6.1700543748880420e-04
478 -1.9115539886683828e-04 -5.6339825309251299e-04 -8.1665033601589776e-04
479 -1.8388781888017505e-04 -6.7857488049059074e-04 -7.1985182318941244e-04
480 -3.9480533954833565e-04 8.2531560258682264e-04 -3.8658758639324134e-04
481 1.9524539903816883e-04 6.6389797574831417e-04 -7.3010284774830856e-04
482 7.5452784055742939e-04 -6.0008481076003406e-04 2.3390244017067446e-04
483 8.7960319700661530e-04 -4.4401969127576897e-04 8.8752332223509492e-05
484 9.3375643621886766e-04 -3.1931469678579043e-04 6.4544719875693246e-05
485 5.7974885141764639e-04 -2.4375863481078974e-04 -7.9019335441559509e-04
486 4.0142004537988067e-04 1.5059868494737602e-04 -9.2090551083581144e-04
487 9.7817584231710969e-04 1.2715936037824342e-04 -7.4122780154308972e-05
488 9.4672290546993112e-04 2.6467779286528173e-04 -1.1822221608938776e-04
489 9.6122400162935030e-04 2.2906480300802332e-04 1.0994147304769429e-05
490 8.9388267638159540e-04 4.1446866504760919e-04 -8.6687895872140366e-05
491 3.4267581443467266e-04 9.2689005156930513e-04 1.8103952350923263e-05
492 3.1428071417482481e-04 9.2937343499700049e-04 -1.2800178871491443e-04
493 4.3558622652845166e-04 8.8417534803799953e-04 -7.3859833577060051e-05
494 9.0627071069024757e-04 -3.9464782290060858e-04 -2.9792670326547642e-05
495 9.4671609075584978e-04 -2.7979400453857452e-04 -5.9580844008955751e-05
496 -3.9233105819399758e-04 9.0659865361612411e-04 1.9311890057675903e-05
497 9.7809974345781253e-04 1.2953982488547906e-04 7.0057834124592256e-05
498 6.7858099850333451e-04 6.7632730901247544e-04 -2.5182461883566548e-04
499 9.7942019330568911e-04 -1.2521530446295371e-04 -6.8735803271555688e-05
500 9.6202610123154219e-04 -1.0908538642423807e-04 2.0916741978855435e-04
501 9.2247895512746173e-04 -1.1865090728713511e-04 -3.4846896504848611e-04
502 8.6609224183632468e-04 1.2245290922190518e-04 -4.7790122005536177e-04
503 8.7099625022797904e-04 -1.1379026808462649e-04 4.7132946186852421e-04
504 4.3327883204211315e-04 1.0883253156874585e-04 9.1242426263322984e-04
505 4.2191683748113575e-04 3.2013673598536336e-04 8.6380608447701648e-04
506 6.5551881516503878e-04 -3.5180569319015860e-04 6.7478034318122968e-04
507 3.2925417525324818e-04 -1.2450112638174262e-04 9.5560990049926690e-04
508 8.5582828654435876e-05 -1.2199188764544316e-04 1.0110541519346261e-03
509 1.4956062773911457e-04 -2.2850330139678290e-04 9.8266880187863046e-04
510 2.5930837713876572e-04 -2.0597042367826143e-04 9.6275381190575585e-04
511 -1.9879600449960755e-04 6.8727641543982220e-04 -7.0586106417668991e-04
512 2.7604533560248676e-04 9.1929493365480437e-04 2.4403918829490534e-04
513 5.8081421601468425e-04 -8.0025248968278390e-04 -3.3841731005948682e-05
514 2.6473024394063751e-04 -9.5243421733049133e-04 3.7482100922096429e-05
515 2.9875597241216554e-04 -9.3045089953201592e-04 1.5945489364307781e-04
516 -5.4598478748027674e-04 5.6768572365616067e-04 -6.1819247101283447e-04
517 7.6411081598296775e-04 -5.7941496836917098e-04 -2.5104523571441281e-04
518 -1.4395122458811258e-04 -9.7750469561409814e-04 -4.2825105245358128e-05
519 -2.8275847374697571e-04 -9.4714740589560084e-04 -4.5364947598899414e-05
520 -3.2706433743022917e-04 -9.1637484630064726e-04 -1.8293546315750728e-04
521 -7.8599648493191479e-04 5.2201413797457253e-04 -3.0383610525660647e-04
522 -9.7673797682443393e-04 9.2096749111428197e-05 -1.2309814392681565e-04
523 7.7792782597806251e-04 5.9908540527372686e-04 1.1822491695745506e-04
524 -7.9550469652863451e-04 -5.3565474714717463e-04 2.4864655779891718e-04
525 7.7735545556800376e-04 5.0649468339396904e-04 3.5322427825238258e-04
526 4.8989849438013438e-04 -7.7075798820220470e-04 -3.9361280461363434e-04
527 -9.4186848133552493e-04 -2.7961761896170504e-04 -1.1165456861981187e-04
528 -9.3768469267704695e-04 -7.1825763881007518e-05 3.1483289833944317e-04
529 -9.1294452057923137e-04 5.2330139522023995e-05 3.8825639008450942e-04
530 -8.3922373901334948e-04 5.3313570415608169e-05 5.3904195776493212e-04
531 -7.6676510326071691e-04 -6.1533283887669902e-04 -1.0946386765676017e-04
532 -9.6984954242691692e-04 -7.2155555303618426e-05 1.8214277536765132e-04
533 -7.3549465806508978e-04 5.4154082310875127e-04 3.9017697149832943e-04
534 -6.9597248979376446e-04 7.0069912306673404e-04 -1.8804018193956919e-05
535 -2.4380330986762612e-04 -9.1644408302357888e-04 -2.9049579508809729e-04
536 6.2431898136753434e-04 7.5306653069232466e-04 -1.4661814289854895e-04
537 -1.3744197446745058e-04 -8.9158259821072155e-04 4.2021106740608633e-04
538 -3.8897346767976689e-05 9.8418985356127646e-04 -7.9670670331037248e-05
539 -1.7778576433769296e-04 9.4103780167454905e-04 -2.5042909034940893e-04
540 6.1587808018978771e-05 9.6972830680297831e-04 -1.8900186379618866e-04
541 -9.3053839494817482e-04 2.8134691700704731e-04 1.8424519209304645e-04
542 -8.6878311303645957e-04 -4.2780146761914274e-04 2.0564753196938398e-04
543 -7.9918498627731729e-04 -8.1730439260991166e-05 5.9663439486535522e-04
544 -7.4946698291299975e-04 1.6372715707197275e-05 6.6687997226815975e-04
545 -6.5568407400699749e-04 -5.3006247552423943e-04 -5.3480469683918862e-04
546 -7.4737357418355288e-04 -4.2329682568679051e-04 -5.0651300860850084e-04
547 -7.5590319883349615e-04 -2.9736296967418537e-04 -5.8339123255431776e-04
548 -6.6237561269950613e-04 -2.8004044743718345e-04 -7.0248679446013049e-04
549 2.6192121759085503e-04 -8.1347910188797623e-04 5.1585607680565990e-04
550 5.8446738902011113e-04 6.0208471629745626e-04 5.3998694493413290e-04
551 8.6754958638773493e-04 3.6097504217822676e-04 -3.1785952380401110e-04
552 8.8569938787491555e-04 -2.3934604495239931e-04 3.8319372832622506e-04
553 1.6056596641739445e-04 -7.7295966973151128e-04 6.1723228739718841e-04
554 -4.4229594160076995e-04 -6.4687149962543188e-04 6.2619397784923988e-04
555 -3.8338722649724371e-04 -5.5855627415541070e-04 7.4591341498046965e-04
556 -8.2884169407069705e-04 -4.2923492520758201e-04 3.3702339036302575e-04
557 -5.9940582886240830e-04 -7.1619558426097162e-04 -3.3500500425438573e-04
558 -7.2157273545697610e-04 2.4657601960810922e-04 6.5071122061255459e-04
559 -6.8092100669022283e-04 -4.4233820748333262e-04 5.8433178108438966e-04
560 -5.8986233795323899e-04 -5.6008366292473384e-04 5.8379428329013343e-04
561 6.3021468530458048e-04 4.8319479470621560e-04 -6.1058471111186347e-04
562 -3.2461908475439058e-04 -6.8107268553730543e-04 -6.6245264268775036e-04
563 -4.8710635926903673e-04 5.1534395981755912e-04 7.1241535578192767e-04
564 7.2662794944925791e-04 -4.8400318462650960e-04 -4.8171203293225325e-04
565 -8.6255172745364352e-05 -2.8441382653082156e-04 9.7551893629637223e-04
566 -1.0492306961291755e-04 -4.1234973000527358e-04 9.2373631612095632e-04
567 -2.0747392386474706e-04 -3.2590835380810751e-04 9.4176396631210420e-04
568 -1.6788632423602099e-04 -6.5310989087160579e-04 7.4932933200908783e-04
569 4.0006404608003432e-04 -6.7090875310441228e-04 -6.2853038610203736e-04
570 -7.0717164776156556e-04 -1.0372216414210892e-04 7.0689470691998881e-04
571 5.4295996446032820e-04 3.1532158986629218e-04 7.9025699105063764e-04
572 4.9421734835287652e-04 -3.4284231748030674e-04 -8.1267296735869441e-04
573 1.3811488228356747e-04 -3.4358824027954315e-04 9.4860943876219259e-04
574 -7.3975883635295486e-04 1.9611711748340353e-04 -6.4739190094881044e-04
575 1.5445952342127683e-04 -4.7734159038800448e-04 -8.8196763567023649e-04
576 -4.4803722328102201e-04 -4.2505218702531400e-04 8.0076085927725067e-04
577 -3.2800190486863046e-04 3.7707284858823212e-04 -8.8221119843066528e-04
578 -2.6587327872895883e-04 2.4777553180187504e-04 -9.5051554409541247e-04
579 -3.2565441980455742e-04 1.6126496548904624e-04 -9.5031111217828426e-04
580 -4.9220722400488250e-04 8.4080376464096711e-06 -8.8673013657751488e-04
581 4.5519690138477622e-04 -5.5999817709194378e-04 7.0196067271324758e-04
582 4.7669403568289842e-04 -2.9678447637100994e-04 8.4253618619557736e-04
583 -4.4498615352703725e-04 1.3517873274712552e-04 -9.0213712838383992e-04
584 -4.1165254657409255e-04 1.9787051136178977e-04 9.0683231889063069e-04
585 -4.5567087195733520e-04 6.0688735310280199e-05 9.0543321063231940e-04
586 -3.3623292894245210e-04 -4.2863340939940076e-04 -8.5361763657051221e-04
587 2.9180522350653256e-05 9.4617372320883453e-04 2.9362186193042649e-04
588 -4.0030667019683050e-04 -7.6832564310874409e-05 -9.3144654901989113e-04
589 -2.7241949795835861e-04 -4.3884661503428005e-05 -9.8139721653601780e-04
590 -1.5795919603905386e-04 -1.3508990062930539e-04 -9.9922328036160723e-04
591 -1.6457592132420809e-04 4.2784114680722110e-04 9.0567288631868029e-04
592 -5.1187834789932578e-04 7.8938035376522817e-04 -3.1257423674864687e-04
593 -2.4740776339201692e-04 6.1326416383479239e-06 9.8944860787532731e-04
594 3.5976840251397219e-04 2.1458756450929239e-04 9.2628986016848956e-04
595 -7.9476595120427237e-04 5.6292206301144132e-04 1.7332809595890593e-04
596 4.2446263067590626e-04 -8.7716153417264351e-04 1.7724245399945246e-04
597 1.0470898850761700e-04 4.4099401511584380e-04 9.0869480173279000e-04
598 3.2557410310817762e-04 8.9471301669944922e-04 -2.7353728555235663e-04
599 1.8642233670092750e-04 -6.7270588260072591e-04 7.2567817903331335e-04
600 -5.2201886779305363e-04 -8.0521677360254431e-04 2.4679306157710873e-04
601 -8.4147889292734577e-04 4.0078428321693228e-04 -3.3962380932990675e-04
602 -8.0853855702570511e-04 3.4845026232541626e-04 -4.6431008865309469e-04
603 -7.4225316465202586e-04 -5.3381617620998833e-04 -3.9103288516398609e-04
604 -9.0480599224741396e-04 1.5218503166270725e-04 -3.7968142383040099e-04
605 -4.0339029696577830e-04 -9.0225820803277587e-04 2.5032578123901728e-05
606 -3.1514154286291907e-04 8.5018165059368481e-04 4.0631313636991373e-04
607 3.9251402439722586e-05 1.3231675460711621e-04 1.0114286599620214e-03
608 -5.7816001536760848e-05 7.7144486526357957e-04 6.3671996732410938e-04
609 -7.5024430685958175e-04 -1.7099043353266277e-04 -6.4267376981476648e-04
610 9.4573449362227190e-04 2.5853348012098434e-04 1.3822661831700773e-04
611 4.0960063622745400e-04 -9.4607136880009047e-05 -9.2576415928733173e-04
612 9.2287435246433730e-04 1.2074204535068660e-04 3.4622857281382829e-04
613 -3.7759741189180584e-04 -8.6419973316899075e-04 -3.0804483125609488e-04
614 4.7448563181874444e-05 -7.9470715095088370e-04 -6.0801424395262344e-04
615 4.6582083900594912e-04 -8.7185515462559102e-04 -3.9624214796645306e-05
616 -6.7732948807568377e-04 -6.9478460126642233e-04 -1.9948707883590935e-04
617 -9.2687061818979189e-04 -2.4627818131937141e-04 -2.4722219475902007e-04
618 -6.2016584999050831e-04 4.4568384569053057e-04 -6.4937321981305726e-04
619 1.8041486809659547e-04 -9.4802272645009233e-04 -2.2740187855793036e-04
620 -3.6807325873403418e-05 -9.3506652094458979e-04 3.3199204188752305e-04
621 3.9209252782294212e-04 -7.6385957164342864e-04 -5.0863966138270757e-04
622 -2.1701809011077588e-04 -4.4432131113181884e-04 8.8605838577699304e-04
623 7.9459784145531186e-04 -4.8218115260022302e-04 -3.5061246596948081e-04
624 9.2215351692796895e-04 1.2757671968146222e-04 -3.4570545421411199e-04
625 -4.0739315863829692e-04 6.1327737477519847e-04 6.8176921507555007e-04
626 -2.5462120867883134e-04 -5.5838582799141502e-04 8.0271800265534438e-04
627 -9.0736220504425625e-05 5.3639610023660566e-04 8.5368794888852407e-04
628 4.6478328964530435e-04 8.7122223137382250e-04 4.5221843104024874e-05
629 -9.5632179441624567e-04 4.6917650458124054e-05 2.5320716909621281e-04
630 -5.9300126463789733e-04 7.7481414432498911e-04 1.6036243598821349e-04
631 -8.3218401512752166e-04 -1.9484030418318943e-04 -5.1422221015073823e-04
632 -4.0749121036844240e-04 8.6598634623240680e-04 -2.5400280905031825e-04
633 9.2301018080276809e-04 2.4146015632484186e-04 -2.6895254845539545e-04
634 -3.3039167669362163e-04 1.0371011993122108e-04 9.5746638660449302e-04
635 3.9035815944566912e-04 -9.0724264714622761e-04 5.8775080636496570e-05
636 -6.8083362004034013e-05 -9.6738436233665662e-04 2.0128977188462057e-04
637 -4.8955445613677159e-04 -6.6803818341536141e-05 8.8611740607705616e-04
638 4.4380277813267801e-04 2.6738188922997299e-04 -8.6950586656152351e-04
639 4.4370071224381937e-04 -1.0414554890503435e-04 9.0779469414975923e-04
640 -6.3967136949846380e-05 6.7020394492860603e-04 -7.4873209548835572e-04
641 -9.5088212216184044e-04 2.1770246934671257e-04 -1.6300281045604080e-04
642 -8.7649105216124859e-04 2.7713920304436716e-04 -3.7498578015006715e-04
643 2.8371392244474092e-04 -7.2435980498267952e-04 6.3243190118965310e-04
644 5.6817015506107596e-04 -4.5571752388475487e-04 6.9264405999416715e-04
645 6.1807723177550512e-04 2.2420630542971135e-04 -7.6394379947602965e-04
646 -2.0282822082354758e-04 1.2342170191438181e-04 9.9193575780493902e-04
647 2.5019297143933190e-05 5.5088917249426826e-04 8.4865958759589054e-04
648 -7.4489693345590458e-04 5.9117683992916084e-04 2.7474484167678263e-04
649 -2.6146440030776772e-04 9.4947591375941121e-04 8.3025301938095009e-05
650 9.2824744874465015e-04 -2.3196398270898034e-04 2.5974405353646602e-04
651 -4.6720660518381941e-04 -8.5325564735975546e-04 -1.8630809395125340e-04
652 -8.7184100978541026e-04 -3.4195649819277618e-04 -3.2649502682064374e-04
653 -1.8775154599924804e-04 1.2438225619440174e-04 -9.9490572588184587e-04
654 8.4399757193226845e-04 -4.6792435877806774e-04 -2.2421201490269876e-04
655 -7.1856050889179863e-04 4.0962472252355534e-04 -5.5946782914558196e-04
656 6.6507577995421937e-04 -1.3559719083525130e-04 -7.4483732333266461e-04
657 -7.4631825121282815e-04 -5.4116970231994871e-04 3.6947069456994073e-04
658 -3.7788478472943322e-04 3.9787476208700854e-05 -9.4341547503234502e-04
659 -1.3317166811482292e-04 3.0986066159785164e-06 -1.0128470773369375e-03
660 -3.8763389536531559e-05 3.6162684915668137e-05 -1.0195158646505375e-03
661 8.4257537485142836e-04 -5.1752230037791825e-04 -1.4098611114495611e-05
662 4.7763399711895144e-05 -2.3691697066556766e-04 9.9182235407640953e-04
663 5.1834055003622810e-04 8.2593828323770772e-04 -1.6551472295888722e-04
664 -2.8388487184578560e-04 9.4485732740499863e-04 -5.4483134163477135e-05
665 -2.9258356520958027e-04 9.2653425355487145e-04 -1.8497422747603914e-04
666 -6.0525923746007218e-05 1.2019181916110928e-04 -1.0126068364971355e-03
667 2.6371075590709485e-04 -8.3003905675489438e-04 -4.8542161362517892e-04
668 -5.7188785165480525e-04 3.2523430237551979e-05 8.3372611443763896e-04
669 -8.2554975897640383e-04 -3.1373747629020738e-04 -4.5914561477560667e-04
670 -5.0303756571748058e-04 8.4556226877730782e-04 9.2867202979581741e-05
671 -9.5809232845258220e-04 1.5382968628101291e-04 1.8907678114795241e-04
672 5.5833333320592503e-04 -3.5664259370929869e-04 7.5900456287618574e-04
673 -5.6572238861927579e-06 2.3745693206907162e-04 -9.9151157690693915e-04
674 -1.9170557270349140e-04 -9.5733975462865956e-04 1.6232516560541344e-04
675 4.1202242714350753e-04 7.4728615124899380e-04 5.1493903414201935e-04
676 8.1016232175765658e-05 7.3869524021624407e-04 6.7471956315633011e-04
677 4.7035608925771711e-04 2.2275138431536754e-04 8.6956463028929794e-04
678 -4.8193867631523901e-04 -7.8599033536053261e-04 3.6930739802964514e-04
679 3.1362375024349782e-04 -7.5585344915440368e-05 -9.6630945427645114e-04
680 3.9885876732351092e-04 -6.6724758394777603e-04 6.3187390359319346e-04
681 -8.7795808233236312e-04 1.5772294854903766e-04 4.3824421345985522e-04
682 -8.9006736467238173e-04 4.2727181306083357e-04 1.5066321096850488e-05
683 -6.7816336871977175e-05 1.5610736327212430e-05 1.0184756966316033e-03
684 3.4780675915180753e-04 -9.2437456539228176e-04 -5.3733915505595232e-05
685 4.0920121586672688e-04 8.8025550996386035e-04 -1.8703834015566172e-04
686 1.6982061941310205e-04 -7.9716600157598238e-04 -5.7852527314656676e-04
687 1.8281333118211088e-04 9.6273353096117977e-04 -1.2526501966325177e-04
688 -8.0889415639547274e-04 -4.2023989015715506e-04 -3.9320318332801651e-04
689 -5.4225610903246889e-04 -6.5428125519144192e-04 5.2151464513386283e-04
690 5.7774261058360821e-04 -6.8584463981966916e-04 4.3065146453914342e-04
691 9.5326762417091530e-04 -2.2506902006545445e-04 1.4069667927011520e-04
692 -6.8538853516360537e-04 -5.3209265627999136e-04 4.8907202578476181e-04
693 9.2748445528237377e-04 2.1965886731056008e-04 2.6939789934143243e-04
694 -1.7516447707778858e-04 9.6483901822108534e-04 -1.2287440853201080e-04
695 9.0470083527348160e-04 3.4773360560170190e-04 -1.9767016306471898e-04
696 -4.0825457194008160e-05 6.6513541529726638e-04 7.5659548567859575e-04
697 -3.3245564047372598e-04 -4.7488902720136474e-04 8.2827734656962335e-04
698 9.2565397117519866e-04 3.4790241297085443e-04 1.8411711909935476e-05
699 -4.9464897953553654e-04 -5.3283777504649040e-04 6.9317728954084790e-04
700 -6.6240268159179991e-04 -2.7055914827756473e-06 7.5812811036491204e-04
701 5.7468129868092500e-04 -5.5407806627993863e-04 6.0342565776918286e-04
702 -6.8606910961085954e-04 -6.3925368942918323e-04 -3.2118579115314325e-04
703 -7.6085438371546700e-04 2.9617473577464386e-04 -5.7459001229001497e-04
704 4.9776907667943267e-05 3.4855057197456584e-04 -9.5446501030492948e-04
705 3.1848697345859687e-04 6.4411855361781842e-04 -7.0074381249318664e-04
706 -3.2154490723568908e-04 6.9678187914138084e-04 6.4274250677448096e-04
707 1.1251356312846290e-04 -9.2625804994098246e-04 -3.3712866097452133e-04
708 -6.7625843270255532e-04 7.1352257117944377e-04 9.2166253913150039e-05
709 1.1012053614226691e-05 7.5347078507715629e-04 -6.6015021999952844e-04
710 -4.0319269567531561e-04 7.8117625020939830e-04 4.6511084301397739e-04
711 -9.2518406244055122e-04 2.2038245032879967e-04 -2.7379353690516224e-04
712 7.7929417387891185e-04 1.0773460318781835e-04 6.1935074537623725e-04
713 -2.2164740925559510e-04 -7.5410589075025354e-04 -6.1981707462128879e-04
714 6.3997469777405671e-04 3.4435277307045550e-04 -6.9372211091762537e-04
715 -2.0851283961438314e-04 -9.6462313408200815e-04 5.0933112418944042e-05
716 -2.5077939712923528e-04 4.8191687921324966e-05 -9.8639802664627165e-04
717 -3.9587804973656671e-04 -9.0083676186022196e-04 -9.1712443108982577e-05
718 5.0196961824082193e-04 -2.0352815253917486e-04 8.5537297497278834e-04
719 7.2901920968291916e-04 -5.6259580710440592e-04 3.7196802256788861e-04
720 8.4168124247094691e-04 4.9633974987901548e-04 1.4906099478150477e-04
721 2.3923416219062904e-04 -1.6279210273747235e-04 -9.7649689098126184e-04
722 -5.6954613284322002e-04 -7.7540726013201606e-04 -2.3210143396611781e-04
723 5.5977209004085838e-05 6.9417630889980994e-05 -1.0170481667887748e-03
724 -1.8425963422441220e-04 7.2060861821557527e-04 6.7464573738162318e-04
725 8.6693941242261142e-04 -4.6117311204530250e-04 -1.1452731081420256e-04
726 5.8169617512731210e-04 2.1703512729209367e-04 7.9524138501988612e-04
727 7.8378560250831001e-04 5.5702457759359452e-04 2.3551987966831855e-04
728 5.4542635442329953e-04 6.0107457066733083e-04 -5.8224239343196882e-04
729 4.5073828334932963e-04 1.0345780264265748e-04 -9.0272149576393565e-04
730 7.1593858916011084e-04 6.0564824912657720e-04 3.2079587412495972e-04
731 -2.6385643725275991e-04 -6.1380986107573599e-04 -7.5180735446178594e-04
732 3.4589668980017515e-04 6.3360271949201266e-04 6.9777461606723896e-04
733 -7.3547956129521821e-05 9.6755169767515667e-04 -1.8735601733509667e-04
734 -2.4476628121701430e-04 -4.7820694288818274e-04 -8.5780436336923139e-04
735 9.5123027622293749e-04 -2.2136898966788394e-04 -1.5611138386860583e-04
736 9.6424830437132525e-04 -2.1352487789569400e-04 3.2924484666675010e-05
737 -3.2657953146570686e-05 -8.6273546346061496e-05 1.0168709388859560e-03
738 -5.0361096215127070e-04 -8.4848106542179992e-04 4.8821549442824069e-05
739 5.1269079668373005e-04 1.9429854403043426e-04 -8.5023359864206316e-04
740 -7.6215729801337782e-04 1.3437129658136403e-04 6.3484382370530780e-04
741 -1.5123212741621159e-04 3.8946132615538298e-05 1.0082225864716423e-03
742 -5.4357802398993620e-04 -7.1275091196111053e-04 4.2936621133641721e-04
743 -3.1772921636046944e-06 4.3502037253371649e-04 -9.1669040141571757e-04
744 2.9542443744508018e-04 -9.3016585416724870e-04 -1.6090943212931192e-04
745 -7.4867640036456356e-05 -6.8797823386590549e-04 -7.2841063909067261e-04
$EndNodes
$Elements
1486
1 2 2 0 0 410 440 345
2 2 2 0 0 421 541 409
3 2 2 0 0 409 682 421
4 2 2 0 0 545 603 546
5 2 2 0 0 426 427 294
6 2 2 0 0 294 454 426
7 2 2 0 0 265 682 409
8 2 2 0 0 24 41 4
9 2 2 0 0 3 24 4
10 2 2 0 0 238 642 602
11 2 2 0 0 520 651 613
12 2 2 0 0 653 666 659
13 2 2 0 0 404 460 98
14 2 2 0 0 222 482 219
15 2 2 0 0 40 463 9
16 2 2 0 0 608 724 696
17 2 2 0 0 435 709 69
18 2 2 0 0 413 439 29
19 2 2 0 0 345 710 410
20 2 2 0 0 422 463 40
21 2 2 0 0 98 550 404
22 2 2 0 0 95 724 608
23 2 2 0 0 4 41 5
24 2 2 0 0 232 701 581
25 2 2 0 0 490 698 488
26 2 2 0 0 29 436 413
27 2 2 0 0 416 421 342
28 2 2 0 0 312 595 441
29 2 2 0 0 41 486 5
30 2 2 0 0 405 605 519
31 2 2 0 0 409 595 265
32 2 2 0 0 69 481 435
33 2 2 0 0 434 743 339
34 2 2 0 0 342 641 416
35 2 2 0 0 485 656 370
36 2 2 0 0 89 587 90
37 2 2 0 0 108 466 317
38 2 2 0 0 378 629 529
39 2 2 0 0 581 680 232
40 2 2 0 0 281 434 339
41 2 2 0 0 638 739 486
42 2 2 0 0 659 666 660
43 2 2 0 0 345 440 346
44 2 2 0 0 22 44 25
45 2 2 0 0 9 463 8
46 2 2 0 0 44 81 25
47 2 2 0 0 459 587 89
48 2 2 0 0 127 670 630
49 2 2 0 0 508 662 509
50 2 2 0 0 375 662 508
51 2 2 0 0 492 598 103
52 2 2 0 0 604 642 238
53 2 2 0 0 507 510 399
54 2 2 0 0 488 698 489
55 2 2 0 0 34 473 415
56 2 2 0 0 399 639 507
57 2 2 0 0 603 688 546
58 2 2 0 0 316 541 421
59 2 2 0 0 647 696 627
60 2 2 0 0 403 439 352
61 2 2 0 0 221 603 545
62 2 2 0 0 595 648 441
63 2 2 0 0 412 550 98
64 2 2 0 0 411 714 397
65 2 2 0 0 486 739 729
66 2 2 0 0 696 724 401
67 2 2 0 0 247 482 222
68 2 2 0 0 397 714 645
69 2 2 0 0 613 651 212
70 2 2 0 0 207 745 425
71 2 2 0 0 98 675 412
72 2 2 0 0 219 482 230
73 2 2 0 0 560 692 432
74 2 2 0 0 432 689 560
75 2 2 0 0 454 575 426
76 2 2 0 0 352 439 413
77 2 2 0 0 415 420 2
78 2 2 0 0 40 464 422
79 2 2 0 0 89 512 459
80 2 2 0 0 425 614 207
81 2 2 0 0 377 600 453
82 2 2 0 0 89 90 88
83 2 2 0 0 80 466 108
84 2 2 0 0 520 717 651
85 2 2 0 0 602 703 238
86 2 2 0 0 103 687 492
87 2 2 0 0 253 491 424
88 2 2 0 0 69 709 466
89 2 2 0 0 424 512 253
90 2 2 0 0 369 696 647
91 2 2 0 0 581 701 644
92 2 2 0 0 630 670 392
93 2 2 0 0 32 656 485
94 2 2 0 0 459 512 424
95 2 2 0 0 90 91 88
96 2 2 0 0 427 478 294
97 2 2 0 0 488 695 490
98 2 2 0 0 554 699 560
99 2 2 0 0 67 80 79
100 2 2 0 0 252 454 294
101 2 2 0 0 253 628 491
102 2 2 0 0 529 681 378
103 2 2 0 0 519 715 405
104 2 2 0 0 440 441 346
105 2 2 0 0 605 717 519
106 2 2 0 0 403 452 439
107 2 2 0 0 507 639 21
108 2 2 0 0 565 567 566
109 2 2 0 0 433 454 341
110 2 2 0 0 67 466 80
111 2 2 0 0 555 697 576
112 2 2 0 0 491 628 493
113 2 2 0 0 389 641 342
114 2 2 0 0 429 619 474
115 2 2 0 0 40 501 464
116 2 2 0 0 576 699 555
117 2 2 0 0 311 600 377
118 2 2 0 0 567 622 566
119 2 2 0 0 433 575 454
120 2 2 0 0 378 671 629
121 2 2 0 0 79 540 103
122 2 2 0 0 341 473 433
123 2 2 0 0 673 704 68
124 2 2 0 0 462 710 345
125 2 2 0 0 557 722 616
126 2 2 0 0 573 662 343
127 2 2 0 0 370 656 463
128 2 2 0 0 341 454 252
129 2 2 0 0 616 702 557
130 2 2 0 0 6 26 7
131 2 2 0 0 464 501 467
132 2 2 0 0 433 473 406
133 2 2 0 0 8 45 37
134 2 2 0 0 466 709 317
135 2 2 0 0 457 461 379
136 2 2 0 0 84 512 86
137 2 2 0 0 19 452 33
138 2 2 0 0 380 614 425
139 2 2 0 0 83 540 79
140 2 2 0 0 398 510 509
141 2 2 0 0 609 631 137
142 2 2 0 0 18 442 36
143 2 2 0 0 26 45 7
144 2 2 0 0 565 566 343
145 2 2 0 0 80 83 79
146 2 2 0 0 560 689 554
147 2 2 0 0 134 137 136
148 2 2 0 0 68 469 42
149 2 2 0 0 659 716 653
150 2 2 0 0 619 707 474
151 2 2 0 0 497 610 39
152 2 2 0 0 137 138 136
153 2 2 0 0 283 573 343
154 2 2 0 0 506 644 448
155 2 2 0 0 499 735 31
156 2 2 0 0 81 97 25
157 2 2 0 0 45 46 37
158 2 2 0 0 585 668 637
159 2 2 0 0 495 735 499
160 2 2 0 0 399 510 398
161 2 2 0 0 509 573 398
162 2 2 0 0 442 443 36
163 2 2 0 0 1 607 314
164 2 2 0 0 29 612 436
165 2 2 0 0 547 631 609
166 2 2 0 0 360 595 409
167 2 2 0 0 421 682 342
168 2 2 0 0 426 575 327
169 2 2 0 0 123 577 235
170 2 2 0 0 339 743 417
171 2 2 0 0 7 45 8
172 2 2 0 0 3 723 24
173 2 2 0 0 418 666 653
174 2 2 0 0 59 60 58
175 2 2 0 0 620 636 193
176 2 2 0 0 42 469 47
177 2 2 0 0 65 67 66
178 2 2 0 0 509 662 573
179 2 2 0 0 470 482 247
180 2 2 0 0 368 476 472
181 2 2 0 0 530 740 337
182 2 2 0 0 253 512 84
183 2 2 0 0 455 698 282
184 2 2 0 0 61 65 62
185 2 2 0 0 59 61 60
186 2 2 0 0 91 472 88
187 2 2 0 0 90 92 91
188 2 2 0 0 19 442 18
189 2 2 0 0 464 465 423
190 2 2 0 0 706 724 118
191 2 2 0 0 456 611 32
192 2 2 0 0 379 477 61
193 2 2 0 0 417 743 704
194 2 2 0 0 314 683 1
195 2 2 0 0 442 458 443
196 2 2 0 0 11 28 12
197 2 2 0 0 61 62 60
198 2 2 0 0 118 724 95
199 2 2 0 0 22 25 23
200 2 2 0 0 247 483 470
201 2 2 0 0 281 640 434
202 2 2 0 0 197 667 474
203 2 2 0 0 86 512 89
204 2 2 0 0 417 704 673
205 2 2 0 0 451 690 230
206 2 2 0 0 27 442 19
207 2 2 0 0 637 668 229
208 2 2 0 0 60 475 58
209 2 2 0 0 489 610 497
210 2 2 0 0 307 573 283
211 2 2 0 0 61 477 65
212 2 2 0 0 65 66 62
213 2 2 0 0 544 740 530
214 2 2 0 0 230 719 451
215 2 2 0 0 18 452 19
216 2 2 0 0 268 569 269
217 2 2 0 0 32 485 456
218 2 2 0 0 627 696 401
219 2 2 0 0 24 42 41
220 2 2 0 0 20 27 19
221 2 2 0 0 330 461 457
222 2 2 0 0 506 672 644
223 2 2 0 0 472 476 87
224 2 2 0 0 468 495 494
225 2 2 0 0 88 472 87
226 2 2 0 0 121 577 123
227 2 2 0 0 327 575 276
228 2 2 0 0 422 464 423
229 2 2 0 0 47 63 49
230 2 2 0 0 458 506 443
231 2 2 0 0 232 690 451
232 2 2 0 0 28 487 12
233 2 2 0 0 80 107 83
234 2 2 0 0 608 696 676
235 2 2 0 0 356 481 355
236 2 2 0 0 138 238 136
237 2 2 0 0 137 139 138
238 2 2 0 0 729 739 26
239 2 2 0 0 81 99 97
240 2 2 0 0 46 50 37
241 2 2 0 0 463 656 8
242 2 2 0 0 443 444 36
243 2 2 0 0 68 704 469
244 2 2 0 0 24 68 42
245 2 2 0 0 16 503 30
246 2 2 0 0 65 69 67
247 2 2 0 0 67 79 66
248 2 2 0 0 676 696 369
249 2 2 0 0 59 379 61
250 2 2 0 0 90 93 92
251 2 2 0 0 464 467 465
252 2 2 0 0 441 708 312
253 2 2 0 0 483 484 471
254 2 2 0 0 427 479 478
255 2 2 0 0 245 564 244
256 2 2 0 0 470 483 471
257 2 2 0 0 473 721 406
258 2 2 0 0 555 699 554
259 2 2 0 0 47 469 63
260 2 2 0 0 63 355 49
261 2 2 0 0 62 64 60
262 2 2 0 0 80 108 107
263 2 2 0 0 107 539 83
264 2 2 0 0 139 140 138
265 2 2 0 0 99 100 97
266 2 2 0 0 81 236 99
267 2 2 0 0 46 51 50
268 2 2 0 0 443 445 444
269 2 2 0 0 24 419 68
270 2 2 0 0 69 466 67
271 2 2 0 0 79 103 66
272 2 2 0 0 65 477 69
273 2 2 0 0 547 548 321
274 2 2 0 0 93 94 92
275 2 2 0 0 467 468 465
276 2 2 0 0 333 664 649
277 2 2 0 0 55 498 56
278 2 2 0 0 56 498 72
279 2 2 0 0 12 499 31
280 2 2 0 0 63 356 355
281 2 2 0 0 108 110 107
282 2 2 0 0 139 141 140
283 2 2 0 0 100 101 97
284 2 2 0 0 236 248 99
285 2 2 0 0 81 594 236
286 2 2 0 0 51 52 50
287 2 2 0 0 192 515 195
288 2 2 0 0 445 446 444
289 2 2 0 0 477 481 69
290 2 2 0 0 94 95 92
291 2 2 0 0 93 96 94
292 2 2 0 0 63 408 356
293 2 2 0 0 108 111 110
294 2 2 0 0 110 117 107
295 2 2 0 0 139 154 141
296 2 2 0 0 141 142 140
297 2 2 0 0 51 53 52
298 2 2 0 0 100 102 101
299 2 2 0 0 236 250 248
300 2 2 0 0 445 447 446
301 2 2 0 0 52 388 50
302 2 2 0 0 277 622 567
303 2 2 0 0 95 608 92
304 2 2 0 0 94 118 95
305 2 2 0 0 93 104 96
306 2 2 0 0 51 561 53
307 2 2 0 0 408 434 356
308 2 2 0 0 53 54 52
309 2 2 0 0 445 448 447
310 2 2 0 0 108 317 111
311 2 2 0 0 141 143 142
312 2 2 0 0 142 225 140
313 2 2 0 0 102 166 101
314 2 2 0 0 250 325 248
315 2 2 0 0 100 258 102
316 2 2 0 0 53 55 54
317 2 2 0 0 447 449 446
318 2 2 0 0 236 505 250
319 2 2 0 0 104 105 96
320 2 2 0 0 53 57 55
321 2 2 0 0 55 56 54
322 2 2 0 0 448 451 447
323 2 2 0 0 14 39 15
324 2 2 0 0 317 511 111
325 2 2 0 0 10 40 9
326 2 2 0 0 143 144 142
327 2 2 0 0 57 58 55
328 2 2 0 0 8 37 9
329 2 2 0 0 14 38 13
330 2 2 0 0 166 314 101
331 2 2 0 0 18 36 17
332 2 2 0 0 16 29 17
333 2 2 0 0 33 504 20
334 2 2 0 0 325 365 248
335 2 2 0 0 199 202 196
336 2 2 0 0 7 32 6
337 2 2 0 0 434 435 356
338 2 2 0 0 74 75 73
339 2 2 0 0 223 239 234
340 2 2 0 0 74 76 75
341 2 2 0 0 72 74 73
342 2 2 0 0 231 549 201
343 2 2 0 0 202 205 204
344 2 2 0 0 226 227 214
345 2 2 0 0 272 275 271
346 2 2 0 0 276 318 275
347 2 2 0 0 213 214 209
348 2 2 0 0 76 77 75
349 2 2 0 0 210 231 201
350 2 2 0 0 16 30 15
351 2 2 0 0 205 209 208
352 2 2 0 0 202 204 196
353 2 2 0 0 318 406 340
354 2 2 0 0 195 196 193
355 2 2 0 0 322 420 415
356 2 2 0 0 239 240 234
357 2 2 0 0 163 588 168
358 2 2 0 0 12 31 11
359 2 2 0 0 56 72 71
360 2 2 0 0 425 426 327
361 2 2 0 0 19 33 20
362 2 2 0 0 168 224 215
363 2 2 0 0 209 568 216
364 2 2 0 0 318 433 406
365 2 2 0 0 269 271 270
366 2 2 0 0 268 269 245
367 2 2 0 0 21 639 20
368 2 2 0 0 84 85 82
369 2 2 0 0 181 207 183
370 2 2 0 0 269 272 271
371 2 2 0 0 272 276 275
372 2 2 0 0 242 243 240
373 2 2 0 0 102 167 166
374 2 2 0 0 223 234 233
375 2 2 0 0 283 343 227
376 2 2 0 0 205 208 204
377 2 2 0 0 213 226 214
378 2 2 0 0 271 572 347
379 2 2 0 0 243 268 245
380 2 2 0 0 335 398 307
381 2 2 0 0 303 555 554
382 2 2 0 0 226 283 227
383 2 2 0 0 347 485 370
384 2 2 0 0 195 199 196
385 2 2 0 0 205 213 209
386 2 2 0 0 246 322 252
387 2 2 0 0 76 78 77
388 2 2 0 0 133 163 135
389 2 2 0 0 163 168 164
390 2 2 0 0 322 415 341
391 2 2 0 0 227 361 214
392 2 2 0 0 191 198 189
393 2 2 0 0 78 84 82
394 2 2 0 0 209 216 208
395 2 2 0 0 78 82 77
396 2 2 0 0 216 303 266
397 2 2 0 0 417 418 362
398 2 2 0 0 314 607 101
399 2 2 0 0 339 362 280
400 2 2 0 0 243 245 244
401 2 2 0 0 187 291 185
402 2 2 0 0 429 430 359
403 2 2 0 0 143 145 144
404 2 2 0 0 202 553 205
405 2 2 0 0 339 417 362
406 2 2 0 0 131 580 133
407 2 2 0 0 239 242 240
408 2 2 0 0 57 59 58
409 2 2 0 0 224 246 215
410 2 2 0 0 84 86 85
411 2 2 0 0 303 554 266
412 2 2 0 0 72 73 71
413 2 2 0 0 437 438 414
414 2 2 0 0 318 340 275
415 2 2 0 0 269 270 245
416 2 2 0 0 86 87 85
417 2 2 0 0 192 193 191
418 2 2 0 0 123 235 129
419 2 2 0 0 263 374 262
420 2 2 0 0 425 427 426
421 2 2 0 0 149 150 147
422 2 2 0 0 210 232 231
423 2 2 0 0 74 373 76
424 2 2 0 0 168 215 169
425 2 2 0 0 259 262 249
426 2 2 0 0 145 146 144
427 2 2 0 0 367 524 289
428 2 2 0 0 271 347 270
429 2 2 0 0 406 407 340
430 2 2 0 0 334 459 424
431 2 2 0 0 429 474 430
432 2 2 0 0 250 328 325
433 2 2 0 0 431 432 367
434 2 2 0 0 104 278 105
435 2 2 0 0 145 147 146
436 2 2 0 0 151 152 150
437 2 2 0 0 235 583 129
438 2 2 0 0 237 249 228
439 2 2 0 0 149 151 150
440 2 2 0 0 159 161 158
441 2 2 0 0 153 155 152
442 2 2 0 0 156 158 155
443 2 2 0 0 354 367 289
444 2 2 0 0 259 263 262
445 2 2 0 0 190 191 189
446 2 2 0 0 177 221 174
447 2 2 0 0 162 228 161
448 2 2 0 0 124 516 386
449 2 2 0 0 418 653 578
450 2 2 0 0 371 584 295
451 2 2 0 0 151 153 152
452 2 2 0 0 153 156 155
453 2 2 0 0 159 162 161
454 2 2 0 0 374 593 262
455 2 2 0 0 156 159 158
456 2 2 0 0 237 259 249
457 2 2 0 0 146 284 160
458 2 2 0 0 266 309 267
459 2 2 0 0 264 265 257
460 2 2 0 0 86 88 87
461 2 2 0 0 265 312 257
462 2 2 0 0 162 237 228
463 2 2 0 0 21 44 22
464 2 2 0 0 324 392 390
465 2 2 0 0 371 585 584
466 2 2 0 0 262 366 249
467 2 2 0 0 192 195 193
468 2 2 0 0 263 375 374
469 2 2 0 0 216 266 217
470 2 2 0 0 326 327 276
471 2 2 0 0 260 646 166
472 2 2 0 0 220 223 222
473 2 2 0 0 322 341 252
474 2 2 0 0 256 257 255
475 2 2 0 0 78 253 84
476 2 2 0 0 358 359 242
477 2 2 0 0 188 189 187
478 2 2 0 0 281 339 280
479 2 2 0 0 146 160 144
480 2 2 0 0 123 129 128
481 2 2 0 0 255 324 254
482 2 2 0 0 228 229 161
483 2 2 0 0 354 431 367
484 2 2 0 0 163 164 135
485 2 2 0 0 155 157 152
486 2 2 0 0 243 244 240
487 2 2 0 0 256 264 257
488 2 2 0 0 284 316 160
489 2 2 0 0 380 425 327
490 2 2 0 0 148 149 147
491 2 2 0 0 335 399 398
492 2 2 0 0 418 578 362
493 2 2 0 0 334 424 396
494 2 2 0 0 167 260 166
495 2 2 0 0 325 368 365
496 2 2 0 0 428 429 359
497 2 2 0 0 165 255 254
498 2 2 0 0 297 342 264
499 2 2 0 0 298 371 295
500 2 2 0 0 218 323 220
501 2 2 0 0 310 337 302
502 2 2 0 0 165 256 255
503 2 2 0 0 186 187 185
504 2 2 0 0 56 71 70
505 2 2 0 0 165 254 125
506 2 2 0 0 200 201 199
507 2 2 0 0 148 206 149
508 2 2 0 0 324 390 364
509 2 2 0 0 190 192 191
510 2 2 0 0 368 369 365
511 2 2 0 0 353 404 351
512 2 2 0 0 104 331 278
513 2 2 0 0 256 297 264
514 2 2 0 0 316 421 416
515 2 2 0 0 239 358 242
516 2 2 0 0 169 586 171
517 2 2 0 0 286 287 206
518 2 2 0 0 324 364 254
519 2 2 0 0 241 576 162
520 2 2 0 0 168 169 164
521 2 2 0 0 121 123 122
522 2 2 0 0 266 267 217
523 2 2 0 0 129 131 130
524 2 2 0 0 216 217 208
525 2 2 0 0 285 382 313
526 2 2 0 0 172 321 170
527 2 2 0 0 390 391 364
528 2 2 0 0 296 563 300
529 2 2 0 0 246 252 251
530 2 2 0 0 285 286 206
531 2 2 0 0 288 289 287
532 2 2 0 0 298 372 371
533 2 2 0 0 23 35 22
534 2 2 0 0 300 344 304
535 2 2 0 0 344 462 345
536 2 2 0 0 123 128 122
537 2 2 0 0 297 389 342
538 2 2 0 0 237 277 259
539 2 2 0 0 148 285 206
540 2 2 0 0 86 89 88
541 2 2 0 0 306 307 283
542 2 2 0 0 234 279 233
543 2 2 0 0 316 416 160
544 2 2 0 0 188 190 189
545 2 2 0 0 85 98 82
546 2 2 0 0 358 428 359
547 2 2 0 0 437 455 438
548 2 2 0 0 203 210 201
549 2 2 0 0 382 383 313
550 2 2 0 0 153 176 156
551 2 2 0 0 290 354 289
552 2 2 0 0 159 241 162
553 2 2 0 0 386 387 126
554 2 2 0 0 273 363 338
555 2 2 0 0 272 326 276
556 2 2 0 0 171 293 173
557 2 2 0 0 145 148 147
558 2 2 0 0 274 295 261
559 2 2 0 0 285 313 286
560 2 2 0 0 383 384 313
561 2 2 0 0 301 302 299
562 2 2 0 0 131 133 132
563 2 2 0 0 296 298 295
564 2 2 0 0 305 310 302
565 2 2 0 0 349 412 328
566 2 2 0 0 344 345 304
567 2 2 0 0 77 119 75
568 2 2 0 0 315 378 310
569 2 2 0 0 363 401 400
570 2 2 0 0 332 333 278
571 2 2 0 0 223 233 222
572 2 2 0 0 331 334 332
573 2 2 0 0 186 188 187
574 2 2 0 0 178 212 177
575 2 2 0 0 305 360 315
576 2 2 0 0 334 396 395
577 2 2 0 0 246 251 215
578 2 2 0 0 167 261 260
579 2 2 0 0 175 179 178
580 2 2 0 0 345 346 304
581 2 2 0 0 124 386 126
582 2 2 0 0 286 288 287
583 2 2 0 0 331 332 278
584 2 2 0 0 179 181 180
585 2 2 0 0 301 305 302
586 2 2 0 0 300 304 301
587 2 2 0 0 296 300 299
588 2 2 0 0 305 315 310
589 2 2 0 0 296 299 298
590 2 2 0 0 320 453 290
591 2 2 0 0 274 296 295
592 2 2 0 0 313 531 286
593 2 2 0 0 120 281 280
594 2 2 0 0 360 409 315
595 2 2 0 0 363 400 338
596 2 2 0 0 129 130 128
597 2 2 0 0 300 301 299
598 2 2 0 0 1 508 23
599 2 2 0 0 167 273 261
600 2 2 0 0 133 135 134
601 2 2 0 0 173 174 172
602 2 2 0 0 311 377 376
603 2 2 0 0 273 274 261
604 2 2 0 0 273 338 274
605 2 2 0 0 334 395 332
606 2 2 0 0 183 197 184
607 2 2 0 0 319 393 320
608 2 2 0 0 449 450 446
609 2 2 0 0 288 290 289
610 2 2 0 0 226 306 283
611 2 2 0 0 326 380 327
612 2 2 0 0 175 177 174
613 2 2 0 0 181 183 182
614 2 2 0 0 219 230 211
615 2 2 0 0 308 335 307
616 2 2 0 0 267 311 292
617 2 2 0 0 169 170 164
618 2 2 0 0 288 319 290
619 2 2 0 0 126 165 125
620 2 2 0 0 120 280 121
621 2 2 0 0 130 357 128
622 2 2 0 0 195 200 199
623 2 2 0 0 169 171 170
624 2 2 0 0 171 172 170
625 2 2 0 0 184 186 185
626 2 2 0 0 73 282 71
627 2 2 0 0 252 294 251
628 2 2 0 0 319 320 290
629 2 2 0 0 131 132 130
630 2 2 0 0 393 394 320
631 2 2 0 0 171 173 172
632 2 2 0 0 4 34 3
633 2 2 0 0 218 220 219
634 2 2 0 0 267 292 217
635 2 2 0 0 184 185 182
636 2 2 0 0 188 194 190
637 2 2 0 0 56 70 54
638 2 2 0 0 377 405 376
639 2 2 0 0 449 470 450
640 2 2 0 0 179 180 178
641 2 2 0 0 173 175 174
642 2 2 0 0 175 178 177
643 2 2 0 0 250 329 328
644 2 2 0 0 311 376 292
645 2 2 0 0 329 571 350
646 2 2 0 0 347 370 348
647 2 2 0 0 220 222 219
648 2 2 0 0 376 385 292
649 2 2 0 0 133 134 132
650 2 2 0 0 134 136 132
651 2 2 0 0 306 308 307
652 2 2 0 0 200 203 201
653 2 2 0 0 233 247 222
654 2 2 0 0 98 460 82
655 2 2 0 0 329 349 328
656 2 2 0 0 326 381 380
657 2 2 0 0 347 348 270
658 2 2 0 0 181 182 180
659 2 2 0 0 121 122 115
660 2 2 0 0 350 351 349
661 2 2 0 0 308 336 335
662 2 2 0 0 350 403 352
663 2 2 0 0 470 471 450
664 2 2 0 0 203 211 210
665 2 2 0 0 218 219 211
666 2 2 0 0 183 184 182
667 2 2 0 0 370 463 422
668 2 2 0 0 306 402 308
669 2 2 0 0 203 218 211
670 2 2 0 0 71 490 70
671 2 2 0 0 329 350 349
672 2 2 0 0 436 437 414
673 2 2 0 0 124 126 125
674 2 2 0 0 413 414 353
675 2 2 0 0 422 423 348
676 2 2 0 0 352 353 351
677 2 2 0 0 370 422 348
678 2 2 0 0 350 352 351
679 2 2 0 0 413 436 414
680 2 2 0 0 352 413 353
681 2 2 0 0 120 121 115
682 2 2 0 0 110 480 117
683 2 2 0 0 124 125 116
684 2 2 0 0 126 521 165
685 2 2 0 0 113 120 115
686 2 2 0 0 127 440 410
687 2 2 0 0 114 124 116
688 2 2 0 0 543 544 530
689 2 2 0 0 488 489 487
690 2 2 0 0 585 637 366
691 2 2 0 0 543 570 544
692 2 2 0 0 113 115 114
693 2 2 0 0 127 410 106
694 2 2 0 0 114 116 112
695 2 2 0 0 195 515 200
696 2 2 0 0 491 493 492
697 2 2 0 0 12 487 13
698 2 2 0 0 546 547 321
699 2 2 0 0 330 457 411
700 2 2 0 0 157 543 530
701 2 2 0 0 519 520 291
702 2 2 0 0 28 488 487
703 2 2 0 0 111 112 110
704 2 2 0 0 312 534 257
705 2 2 0 0 476 732 412
706 2 2 0 0 27 458 442
707 2 2 0 0 385 636 620
708 2 2 0 0 176 559 156
709 2 2 0 0 593 634 366
710 2 2 0 0 589 590 224
711 2 2 0 0 113 114 112
712 2 2 0 0 109 127 106
713 2 2 0 0 270 564 245
714 2 2 0 0 443 506 445
715 2 2 0 0 491 492 396
716 2 2 0 0 388 624 502
717 2 2 0 0 445 506 448
718 2 2 0 0 30 500 15
719 2 2 0 0 20 504 21
720 2 2 0 0 64 475 60
721 2 2 0 0 287 542 206
722 2 2 0 0 23 508 35
723 2 2 0 0 302 558 299
724 2 2 0 0 70 551 54
725 2 2 0 0 62 598 64
726 2 2 0 0 424 491 396
727 2 2 0 0 407 456 340
728 2 2 0 0 545 546 321
729 2 2 0 0 330 411 397
730 2 2 0 0 72 536 74
731 2 2 0 0 238 574 136
732 2 2 0 0 659 660 420
733 2 2 0 0 395 538 332
734 2 2 0 0 143 527 145
735 2 2 0 0 412 675 476
736 2 2 0 0 239 513 358
737 2 2 0 0 157 530 529
738 2 2 0 0 518 519 291
739 2 2 0 0 449 482 470
740 2 2 0 0 207 713 479
741 2 2 0 0 119 523 75
742 2 2 0 0 109 670 127
743 2 2 0 0 10 501 40
744 2 2 0 0 508 509 35
745 2 2 0 0 96 606 94
746 2 2 0 0 331 459 334
747 2 2 0 0 286 531 288
748 2 2 0 0 290 453 354
749 2 2 0 0 282 490 71
750 2 2 0 0 384 531 313
751 2 2 0 0 289 524 287
752 2 2 0 0 349 550 412
753 2 2 0 0 165 521 256
754 2 2 0 0 82 460 77
755 2 2 0 0 155 543 157
756 2 2 0 0 201 549 199
757 2 2 0 0 273 591 363
758 2 2 0 0 387 521 126
759 2 2 0 0 114 516 124
760 2 2 0 0 53 561 57
761 2 2 0 0 266 554 309
762 2 2 0 0 257 534 255
763 2 2 0 0 205 553 213
764 2 2 0 0 142 522 225
765 2 2 0 0 435 481 356
766 2 2 0 0 216 568 303
767 2 2 0 0 300 563 344
768 2 2 0 0 214 568 209
769 2 2 0 0 112 480 110
770 2 2 0 0 350 571 403
771 2 2 0 0 347 572 485
772 2 2 0 0 275 572 271
773 2 2 0 0 274 563 296
774 2 2 0 0 171 586 293
775 2 2 0 0 162 576 237
776 2 2 0 0 133 580 163
777 2 2 0 0 11 501 10
778 2 2 0 0 295 584 261
779 2 2 0 0 129 583 131
780 2 2 0 0 215 586 169
781 2 2 0 0 250 505 329
782 2 2 0 0 168 588 224
783 2 2 0 0 321 548 170
784 2 2 0 0 262 593 366
785 2 2 0 0 166 646 314
786 2 2 0 0 520 535 291
787 2 2 0 0 373 663 493
788 2 2 0 0 291 535 185
789 2 2 0 0 101 607 97
790 2 2 0 0 130 574 357
791 2 2 0 0 158 570 543
792 2 2 0 0 31 501 11
793 2 2 0 0 444 552 503
794 2 2 0 0 156 559 159
795 2 2 0 0 236 594 505
796 2 2 0 0 206 542 149
797 2 2 0 0 54 551 52
798 2 2 0 0 74 536 373
799 2 2 0 0 337 558 302
800 2 2 0 0 150 532 147
801 2 2 0 0 379 728 457
802 2 2 0 0 299 558 298
803 2 2 0 0 332 538 333
804 2 2 0 0 145 527 148
805 2 2 0 0 514 515 192
806 2 2 0 0 15 500 14
807 2 2 0 0 75 523 73
808 2 2 0 0 467 501 31
809 2 2 0 0 254 592 125
810 2 2 0 0 172 545 321
811 2 2 0 0 144 522 142
812 2 2 0 0 528 532 150
813 2 2 0 0 187 518 291
814 2 2 0 0 553 599 213
815 2 2 0 0 383 603 384
816 2 2 0 0 282 698 490
817 2 2 0 0 244 517 240
818 2 2 0 0 353 525 404
819 2 2 0 0 395 540 538
820 2 2 0 0 94 606 118
821 2 2 0 0 117 539 107
822 2 2 0 0 185 535 182
823 2 2 0 0 388 502 50
824 2 2 0 0 167 591 273
825 2 2 0 0 147 532 146
826 2 2 0 0 92 608 91
827 2 2 0 0 472 676 368
828 2 2 0 0 364 592 254
829 2 2 0 0 21 504 44
830 2 2 0 0 365 597 248
831 2 2 0 0 125 592 116
832 2 2 0 0 588 589 224
833 2 2 0 0 111 113 112
834 2 2 0 0 63 469 408
835 2 2 0 0 105 109 106
836 2 2 0 0 242 526 243
837 2 2 0 0 439 712 29
838 2 2 0 0 240 517 234
839 2 2 0 0 346 533 304
840 2 2 0 0 14 500 38
841 2 2 0 0 494 495 484
842 2 2 0 0 127 630 440
843 2 2 0 0 208 537 204
844 2 2 0 0 175 562 179
845 2 2 0 0 303 626 555
846 2 2 0 0 359 526 242
847 2 2 0 0 243 526 268
848 2 2 0 0 217 537 208
849 2 2 0 0 58 498 55
850 2 2 0 0 503 552 30
851 2 2 0 0 13 499 12
852 2 2 0 0 268 621 569
853 2 2 0 0 489 497 487
854 2 2 0 0 475 498 58
855 2 2 0 0 430 526 359
856 2 2 0 0 248 597 99
857 2 2 0 0 292 537 217
858 2 2 0 0 26 645 45
859 2 2 0 0 234 517 279
860 2 2 0 0 14 497 39
861 2 2 0 0 385 537 292
862 2 2 0 0 305 533 360
863 2 2 0 0 304 533 301
864 2 2 0 0 146 532 284
865 2 2 0 0 483 494 484
866 2 2 0 0 173 562 175
867 2 2 0 0 116 480 112
868 2 2 0 0 224 590 246
869 2 2 0 0 189 518 187
870 2 2 0 0 498 536 72
871 2 2 0 0 414 525 353
872 2 2 0 0 160 522 144
873 2 2 0 0 547 609 548
874 2 2 0 0 182 535 180
875 2 2 0 0 297 601 389
876 2 2 0 0 44 594 81
877 2 2 0 0 301 533 305
878 2 2 0 0 105 106 96
879 2 2 0 0 515 596 200
880 2 2 0 0 293 562 173
881 2 2 0 0 73 523 282
882 2 2 0 0 148 527 285
883 2 2 0 0 174 545 172
884 2 2 0 0 218 596 323
885 2 2 0 0 200 596 203
886 2 2 0 0 149 542 151
887 2 2 0 0 446 552 444
888 2 2 0 0 49 461 330
889 2 2 0 0 330 397 48
890 2 2 0 0 453 738 377
891 2 2 0 0 255 534 324
892 2 2 0 0 52 551 388
893 2 2 0 0 634 646 260
894 2 2 0 0 513 615 358
895 2 2 0 0 438 525 414
896 2 2 0 0 516 618 386
897 2 2 0 0 198 518 189
898 2 2 0 0 227 566 361
899 2 2 0 0 559 560 241
900 2 2 0 0 90 587 93
901 2 2 0 0 416 522 160
902 2 2 0 0 102 591 167
903 2 2 0 0 134 609 137
904 2 2 0 0 298 558 372
905 2 2 0 0 132 574 130
906 2 2 0 0 106 606 96
907 2 2 0 0 159 559 241
908 2 2 0 0 32 611 6
909 2 2 0 0 158 543 155
910 2 2 0 0 223 513 239
911 2 2 0 0 288 531 319
912 2 2 0 0 323 513 220
913 2 2 0 0 115 516 114
914 2 2 0 0 521 601 297
915 2 2 0 0 610 698 455
916 2 2 0 0 354 600 431
917 2 2 0 0 351 550 349
918 2 2 0 0 256 521 297
919 2 2 0 0 140 604 138
920 2 2 0 0 77 460 119
921 2 2 0 0 17 503 16
922 2 2 0 0 9 502 10
923 2 2 0 0 104 587 331
924 2 2 0 0 152 528 150
925 2 2 0 0 315 541 378
926 2 2 0 0 170 548 164
927 2 2 0 0 590 659 420
928 2 2 0 0 11 624 28
929 2 2 0 0 199 549 202
930 2 2 0 0 502 624 10
931 2 2 0 0 453 600 354
932 2 2 0 0 42 43 41
933 2 2 0 0 38 499 13
934 2 2 0 0 285 527 382
935 2 2 0 0 190 514 192
936 2 2 0 0 157 529 528
937 2 2 0 0 231 643 549
938 2 2 0 0 331 587 459
939 2 2 0 0 451 701 232
940 2 2 0 0 99 597 100
941 2 2 0 0 361 568 214
942 2 2 0 0 372 740 544
943 2 2 0 0 221 545 174
944 2 2 0 0 138 604 238
945 2 2 0 0 340 572 275
946 2 2 0 0 338 563 274
947 2 2 0 0 524 542 287
948 2 2 0 0 265 595 312
949 2 2 0 0 111 511 113
950 2 2 0 0 580 658 588
951 2 2 0 0 580 588 163
952 2 2 0 0 237 576 277
953 2 2 0 0 444 503 36
954 2 2 0 0 131 583 580
955 2 2 0 0 505 571 329
956 2 2 0 0 203 596 218
957 2 2 0 0 584 634 260
958 2 2 0 0 261 584 260
959 2 2 0 0 369 647 365
960 2 2 0 0 251 586 215
961 2 2 0 0 348 564 270
962 2 2 0 0 450 552 446
963 2 2 0 0 390 496 391
964 2 2 0 0 66 598 62
965 2 2 0 0 465 623 423
966 2 2 0 0 258 591 102
967 2 2 0 0 343 566 227
968 2 2 0 0 564 623 244
969 2 2 0 0 154 617 141
970 2 2 0 0 324 534 392
971 2 2 0 0 50 502 37
972 2 2 0 0 524 556 542
973 2 2 0 0 544 700 372
974 2 2 0 0 122 516 115
975 2 2 0 0 177 557 221
976 2 2 0 0 489 698 610
977 2 2 0 0 93 587 104
978 2 2 0 0 136 574 132
979 2 2 0 0 593 646 634
980 2 2 0 0 116 592 480
981 2 2 0 0 143 617 527
982 2 2 0 0 225 604 140
983 2 2 0 0 137 631 139
984 2 2 0 0 549 553 202
985 2 2 0 0 164 548 135
986 2 2 0 0 404 550 351
987 2 2 0 0 34 721 473
988 2 2 0 0 220 513 223
989 2 2 0 0 317 640 511
990 2 2 0 0 100 597 258
991 2 2 0 0 588 658 589
992 2 2 0 0 323 615 513
993 2 2 0 0 568 626 303
994 2 2 0 0 377 605 405
995 2 2 0 0 178 613 212
996 2 2 0 0 493 628 373
997 2 2 0 0 157 528 152
998 2 2 0 0 591 627 363
999 2 2 0 0 409 541 315
1000 2 2 0 0 183 614 197
1001 2 2 0 0 103 598 66
1002 2 2 0 0 188 619 194
1003 2 2 0 0 213 599 226
1004 2 2 0 0 306 599 402
1005 2 2 0 0 97 607 25
1006 2 2 0 0 194 514 190
1007 2 2 0 0 373 628 76
1008 2 2 0 0 78 628 253
1009 2 2 0 0 42 47 43
1010 2 2 0 0 39 612 15
1011 2 2 0 0 16 612 29
1012 2 2 0 0 437 610 455
1013 2 2 0 0 487 497 13
1014 2 2 0 0 440 630 441
1015 2 2 0 0 479 713 562
1016 2 2 0 0 196 620 193
1017 2 2 0 0 456 572 340
1018 2 2 0 0 120 511 281
1019 2 2 0 0 577 578 235
1020 2 2 0 0 335 582 399
1021 2 2 0 0 314 741 683
1022 2 2 0 0 520 613 535
1023 2 2 0 0 585 634 584
1024 2 2 0 0 423 564 348
1025 2 2 0 0 457 561 411
1026 2 2 0 0 6 611 5
1027 2 2 0 0 385 620 537
1028 2 2 0 0 228 637 229
1029 2 2 0 0 366 637 249
1030 2 2 0 0 161 570 158
1031 2 2 0 0 434 640 435
1032 2 2 0 0 193 636 191
1033 2 2 0 0 410 606 106
1034 2 2 0 0 37 502 9
1035 2 2 0 0 36 503 17
1036 2 2 0 0 141 617 143
1037 2 2 0 0 363 627 401
1038 2 2 0 0 322 590 420
1039 2 2 0 0 357 618 128
1040 2 2 0 0 430 621 526
1041 2 2 0 0 540 687 103
1042 2 2 0 0 280 577 121
1043 2 2 0 0 276 575 318
1044 2 2 0 0 362 578 577
1045 2 2 0 0 109 649 496
1046 2 2 0 0 246 590 322
1047 2 2 0 0 326 569 381
1048 2 2 0 0 569 621 381
1049 2 2 0 0 269 569 272
1050 2 2 0 0 139 631 154
1051 2 2 0 0 649 664 496
1052 2 2 0 0 537 620 204
1053 2 2 0 0 355 461 49
1054 2 2 0 0 663 685 493
1055 2 2 0 0 479 745 207
1056 2 2 0 0 343 662 565
1057 2 2 0 0 212 557 177
1058 2 2 0 0 45 645 46
1059 2 2 0 0 496 670 109
1060 2 2 0 0 366 634 585
1061 2 2 0 0 384 616 531
1062 2 2 0 0 535 613 180
1063 2 2 0 0 391 632 364
1064 2 2 0 0 308 581 336
1065 2 2 0 0 344 625 462
1066 2 2 0 0 563 625 344
1067 2 2 0 0 13 497 14
1068 2 2 0 0 480 632 117
1069 2 2 0 0 371 668 585
1070 2 2 0 0 333 649 278
1071 2 2 0 0 387 601 521
1072 2 2 0 0 47 49 48
1073 2 2 0 0 358 615 428
1074 2 2 0 0 113 511 120
1075 2 2 0 0 527 617 382
1076 2 2 0 0 105 649 109
1077 2 2 0 0 398 573 307
1078 2 2 0 0 368 676 369
1079 2 2 0 0 180 613 178
1080 2 2 0 0 153 556 176
1081 2 2 0 0 432 657 367
1082 2 2 0 0 458 718 582
1083 2 2 0 0 207 614 183
1084 2 2 0 0 407 611 456
1085 2 2 0 0 244 623 517
1086 2 2 0 0 20 639 27
1087 2 2 0 0 476 675 87
1088 2 2 0 0 319 616 393
1089 2 2 0 0 474 707 197
1090 2 2 0 0 226 599 306
1091 2 2 0 0 47 48 43
1092 2 2 0 0 186 619 188
1093 2 2 0 0 412 732 328
1094 2 2 0 0 316 671 541
1095 2 2 0 0 293 734 478
1096 2 2 0 0 492 685 598
1097 2 2 0 0 528 629 532
1098 2 2 0 0 514 635 515
1099 2 2 0 0 531 616 319
1100 2 2 0 0 8 656 7
1101 2 2 0 0 387 602 601
1102 2 2 0 0 76 628 78
1103 2 2 0 0 122 618 516
1104 2 2 0 0 651 717 394
1105 2 2 0 0 423 623 564
1106 2 2 0 0 546 669 547
1107 2 2 0 0 4 679 34
1108 2 2 0 0 542 556 151
1109 2 2 0 0 548 609 135
1110 2 2 0 0 204 620 196
1111 2 2 0 0 529 629 528
1112 2 2 0 0 482 719 230
1113 2 2 0 0 258 627 591
1114 2 2 0 0 336 582 335
1115 2 2 0 0 197 686 667
1116 2 2 0 0 583 658 580
1117 2 2 0 0 85 675 98
1118 2 2 0 0 59 728 379
1119 2 2 0 0 400 625 338
1120 2 2 0 0 394 717 605
1121 2 2 0 0 471 650 450
1122 2 2 0 0 596 635 323
1123 2 2 0 0 249 637 228
1124 2 2 0 0 515 635 596
1125 2 2 0 0 338 625 563
1126 2 2 0 0 28 633 488
1127 2 2 0 0 566 622 361
1128 2 2 0 0 229 570 161
1129 2 2 0 0 468 654 465
1130 2 2 0 0 118 710 462
1131 2 2 0 0 15 612 16
1132 2 2 0 0 589 659 590
1133 2 2 0 0 526 621 268
1134 2 2 0 0 365 647 597
1135 2 2 0 0 579 583 235
1136 2 2 0 0 22 507 21
1137 2 2 0 0 342 682 264
1138 2 2 0 0 441 648 346
1139 2 2 0 0 191 636 198
1140 2 2 0 0 578 653 579
1141 2 2 0 0 135 609 134
1142 2 2 0 0 128 618 122
1143 2 2 0 0 378 681 310
1144 2 2 0 0 230 690 211
1145 2 2 0 0 210 690 232
1146 2 2 0 0 549 643 553
1147 2 2 0 0 233 661 247
1148 2 2 0 0 10 624 11
1149 2 2 0 0 640 709 435
1150 2 2 0 0 449 719 482
1151 2 2 0 0 452 726 33
1152 2 2 0 0 362 577 280
1153 2 2 0 0 318 575 433
1154 2 2 0 0 492 687 396
1155 2 2 0 0 586 734 293
1156 2 2 0 0 357 655 618
1157 2 2 0 0 277 567 259
1158 2 2 0 0 522 641 225
1159 2 2 0 0 511 640 281
1160 2 2 0 0 247 661 483
1161 2 2 0 0 610 693 39
1162 2 2 0 0 272 569 326
1163 2 2 0 0 490 695 70
1164 2 2 0 0 553 643 599
1165 2 2 0 0 532 629 284
1166 2 2 0 0 29 712 17
1167 2 2 0 0 632 665 117
1168 2 2 0 0 618 655 386
1169 2 2 0 0 241 699 576
1170 2 2 0 0 457 728 561
1171 2 2 0 0 485 572 456
1172 2 2 0 0 430 667 621
1173 2 2 0 0 582 672 458
1174 2 2 0 0 395 687 540
1175 2 2 0 0 504 594 44
1176 2 2 0 0 181 713 207
1177 2 2 0 0 197 707 184
1178 2 2 0 0 524 657 556
1179 2 2 0 0 475 536 498
1180 2 2 0 0 394 738 320
1181 2 2 0 0 51 714 561
1182 2 2 0 0 151 556 153
1183 2 2 0 0 437 693 610
1184 2 2 0 0 361 626 568
1185 2 2 0 0 611 679 5
1186 2 2 0 0 231 680 643
1187 2 2 0 0 462 706 118
1188 2 2 0 0 390 670 496
1189 2 2 0 0 602 642 601
1190 2 2 0 0 49 330 48
1191 2 2 0 0 391 665 632
1192 2 2 0 0 508 737 375
1193 2 2 0 0 450 650 552
1194 2 2 0 0 368 732 476
1195 2 2 0 0 578 579 235
1196 2 2 0 0 402 581 308
1197 2 2 0 0 43 486 41
1198 2 2 0 0 562 713 179
1199 2 2 0 0 592 632 480
1200 2 2 0 0 416 641 522
1201 2 2 0 0 372 668 371
1202 2 2 0 0 452 712 439
1203 2 2 0 0 282 720 455
1204 2 2 0 0 556 657 176
1205 2 2 0 0 364 632 592
1206 2 2 0 0 403 726 452
1207 2 2 0 0 465 654 623
1208 2 2 0 0 278 649 105
1209 2 2 0 0 154 652 617
1210 2 2 0 0 383 688 603
1211 2 2 0 0 451 719 447
1212 2 2 0 0 317 709 640
1213 2 2 0 0 604 711 642
1214 2 2 0 0 382 652 383
1215 2 2 0 0 601 642 389
1216 2 2 0 0 284 671 316
1217 2 2 0 0 599 643 402
1218 2 2 0 0 388 633 624
1219 2 2 0 0 267 678 311
1220 2 2 0 0 337 681 530
1221 2 2 0 0 279 661 233
1222 2 2 0 0 605 738 394
1223 2 2 0 0 33 677 504
1224 2 2 0 0 386 655 387
1225 2 2 0 0 547 669 631
1226 2 2 0 0 562 731 479
1227 2 2 0 0 360 648 595
1228 2 2 0 0 432 692 657
1229 2 2 0 0 367 657 524
1230 2 2 0 0 633 695 488
1231 2 2 0 0 415 473 341
1232 2 2 0 0 644 672 336
1233 2 2 0 0 551 633 388
1234 2 2 0 0 533 648 360
1235 2 2 0 0 407 679 611
1236 2 2 0 0 323 635 615
1237 2 2 0 0 530 681 529
1238 2 2 0 0 393 651 394
1239 2 2 0 0 387 655 602
1240 2 2 0 0 238 703 574
1241 2 2 0 0 594 677 505
1242 2 2 0 0 559 692 560
1243 2 2 0 0 621 667 381
1244 2 2 0 0 405 674 376
1245 2 2 0 0 325 732 368
1246 2 2 0 0 623 654 517
1247 2 2 0 0 581 644 336
1248 2 2 0 0 346 648 533
1249 2 2 0 0 517 654 279
1250 2 2 0 0 477 705 481
1251 2 2 0 0 481 705 355
1252 2 2 0 0 561 728 57
1253 2 2 0 0 379 705 477
1254 2 2 0 0 617 652 382
1255 2 2 0 0 30 650 500
1256 2 2 0 0 376 674 385
1257 2 2 0 0 518 715 519
1258 2 2 0 0 474 667 430
1259 2 2 0 0 478 734 294
1260 2 2 0 0 624 633 28
1261 2 2 0 0 186 707 619
1262 2 2 0 0 64 663 475
1263 2 2 0 0 597 647 258
1264 2 2 0 0 377 738 605
1265 2 2 0 0 31 735 467
1266 2 2 0 0 27 718 458
1267 2 2 0 0 419 673 68
1268 2 2 0 0 616 722 393
1269 2 2 0 0 24 723 419
1270 2 2 0 0 397 638 48
1271 2 2 0 0 404 730 460
1272 2 2 0 0 91 676 472
1273 2 2 0 0 622 626 361
1274 2 2 0 0 7 656 32
1275 2 2 0 0 576 697 277
1276 2 2 0 0 471 691 650
1277 2 2 0 0 536 663 373
1278 2 2 0 0 484 691 471
1279 2 2 0 0 552 650 30
1280 2 2 0 0 311 678 600
1281 2 2 0 0 486 729 5
1282 2 2 0 0 418 673 666
1283 2 2 0 0 232 680 231
1284 2 2 0 0 5 679 4
1285 2 2 0 0 117 665 539
1286 2 2 0 0 384 702 616
1287 2 2 0 0 557 702 221
1288 2 2 0 0 87 675 85
1289 2 2 0 0 225 711 604
1290 2 2 0 0 505 677 571
1291 2 2 0 0 483 661 494
1292 2 2 0 0 263 565 375
1293 2 2 0 0 504 677 594
1294 2 2 0 0 582 718 399
1295 2 2 0 0 645 714 46
1296 2 2 0 0 534 708 392
1297 2 2 0 0 643 680 402
1298 2 2 0 0 18 712 452
1299 2 2 0 0 392 670 390
1300 2 2 0 0 221 702 603
1301 2 2 0 0 496 664 391
1302 2 2 0 0 606 710 118
1303 2 2 0 0 655 703 602
1304 2 2 0 0 608 676 91
1305 2 2 0 0 194 684 514
1306 2 2 0 0 541 671 378
1307 2 2 0 0 154 669 652
1308 2 2 0 0 399 718 639
1309 2 2 0 0 405 715 674
1310 2 2 0 0 33 726 677
1311 2 2 0 0 629 671 284
1312 2 2 0 0 468 735 495
1313 2 2 0 0 469 704 408
1314 2 2 0 0 427 745 479
1315 2 2 0 0 294 734 251
1316 2 2 0 0 461 705 379
1317 2 2 0 0 385 674 636
1318 2 2 0 0 657 692 176
1319 2 2 0 0 561 714 411
1320 2 2 0 0 631 669 154
1321 2 2 0 0 264 682 265
1322 2 2 0 0 43 638 486
1323 2 2 0 0 48 638 43
1324 2 2 0 0 194 744 684
1325 2 2 0 0 381 686 380
1326 2 2 0 0 658 716 589
1327 2 2 0 0 263 567 565
1328 2 2 0 0 310 681 337
1329 2 2 0 0 493 685 492
1330 2 2 0 0 64 685 663
1331 2 2 0 0 309 678 267
1332 2 2 0 0 600 678 431
1333 2 2 0 0 538 694 333
1334 2 2 0 0 598 685 64
1335 2 2 0 0 551 695 633
1336 2 2 0 0 560 699 241
1337 2 2 0 0 211 690 210
1338 2 2 0 0 2 723 3
1339 2 2 0 0 630 708 441
1340 2 2 0 0 467 735 468
1341 2 2 0 0 396 687 395
1342 2 2 0 0 35 507 22
1343 2 2 0 0 259 567 263
1344 2 2 0 0 417 673 418
1345 2 2 0 0 614 686 197
1346 2 2 0 0 392 708 630
1347 2 2 0 0 5 729 6
1348 2 2 0 0 279 725 661
1349 2 2 0 0 6 729 26
1350 2 2 0 0 357 703 655
1351 2 2 0 0 514 684 635
1352 2 2 0 0 540 733 538
1353 2 2 0 0 374 741 593
1354 2 2 0 0 176 692 559
1355 2 2 0 0 650 691 500
1356 2 2 0 0 484 736 691
1357 2 2 0 0 83 733 540
1358 2 2 0 0 558 740 372
1359 2 2 0 0 626 697 555
1360 2 2 0 0 436 693 437
1361 2 2 0 0 375 737 374
1362 2 2 0 0 475 663 536
1363 2 2 0 0 636 674 198
1364 2 2 0 0 674 715 198
1365 2 2 0 0 70 695 551
1366 2 2 0 0 406 721 407
1367 2 2 0 0 677 726 571
1368 2 2 0 0 258 647 627
1369 2 2 0 0 448 701 451
1370 2 2 0 0 458 672 506
1371 2 2 0 0 229 700 570
1372 2 2 0 0 684 744 428
1373 2 2 0 0 570 700 544
1374 2 2 0 0 678 742 431
1375 2 2 0 0 646 741 314
1376 2 2 0 0 603 702 384
1377 2 2 0 0 478 731 293
1378 2 2 0 0 309 742 678
1379 2 2 0 0 380 686 614
1380 2 2 0 0 494 725 468
1381 2 2 0 0 500 691 38
1382 2 2 0 0 635 684 615
1383 2 2 0 0 661 725 494
1384 2 2 0 0 679 721 34
1385 2 2 0 0 509 510 35
1386 2 2 0 0 46 714 51
1387 2 2 0 0 615 684 428
1388 2 2 0 0 432 742 689
1389 2 2 0 0 179 713 181
1390 2 2 0 0 26 739 645
1391 2 2 0 0 35 510 507
1392 2 2 0 0 574 703 357
1393 2 2 0 0 184 707 186
1394 2 2 0 0 39 693 612
1395 2 2 0 0 665 694 539
1396 2 2 0 0 312 708 534
1397 2 2 0 0 554 689 309
1398 2 2 0 0 1 737 508
1399 2 2 0 0 519 717 520
1400 2 2 0 0 277 697 622
1401 2 2 0 0 389 711 641
1402 2 2 0 0 495 736 484
1403 2 2 0 0 17 712 18
1404 2 2 0 0 212 722 557
1405 2 2 0 0 455 720 438
1406 2 2 0 0 622 697 626
1407 2 2 0 0 664 694 665
1408 2 2 0 0 447 719 449
1409 2 2 0 0 669 688 652
1410 2 2 0 0 612 693 436
1411 2 2 0 0 619 744 194
1412 2 2 0 0 57 728 59
1413 2 2 0 0 579 658 583
1414 2 2 0 0 438 727 525
1415 2 2 0 0 539 733 83
1416 2 2 0 0 479 731 478
1417 2 2 0 0 691 736 38
1418 2 2 0 0 401 724 400
1419 2 2 0 0 420 660 2
1420 2 2 0 0 328 732 325
1421 2 2 0 0 320 738 453
1422 2 2 0 0 428 744 429
1423 2 2 0 0 431 742 432
1424 2 2 0 0 425 745 427
1425 2 2 0 0 408 743 434
1426 2 2 0 0 571 726 403
1427 2 2 0 0 119 727 523
1428 2 2 0 0 625 706 462
1429 2 2 0 0 525 730 404
1430 2 2 0 0 499 736 495
1431 2 2 0 0 468 725 654
1432 2 2 0 0 336 672 582
1433 2 2 0 0 198 715 518
1434 2 2 0 0 400 724 706
1435 2 2 0 0 402 680 581
1436 2 2 0 0 589 716 659
1437 2 2 0 0 727 730 525
1438 2 2 0 0 664 665 391
1439 2 2 0 0 337 740 558
1440 2 2 0 0 293 731 562
1441 2 2 0 0 523 720 282
1442 2 2 0 0 460 730 119
1443 2 2 0 0 641 711 225
1444 2 2 0 0 429 744 619
1445 2 2 0 0 119 730 727
1446 2 2 0 0 651 722 212
1447 2 2 0 0 38 736 499
1448 2 2 0 0 667 686 381
1449 2 2 0 0 652 688 383
1450 2 2 0 0 410 710 606
1451 2 2 0 0 644 701 448
1452 2 2 0 0 666 673 419
1453 2 2 0 0 704 743 408
1454 2 2 0 0 251 734 586
1455 2 2 0 0 400 706 625
1456 2 2 0 0 546 688 669
1457 2 2 0 0 668 700 229
1458 2 2 0 0 538 733 694
1459 2 2 0 0 333 694 664
1460 2 2 0 0 565 662 375
1461 2 2 0 0 720 727 438
1462 2 2 0 0 372 700 668
1463 2 2 0 0 579 716 658
1464 2 2 0 0 642 711 389
1465 2 2 0 0 355 705 461
1466 2 2 0 0 407 721 679
1467 2 2 0 0 523 727 720
1468 2 2 0 0 654 725 279
1469 2 2 0 0 639 718 27
1470 2 2 0 0 694 733 539
1471 2 2 0 0 393 722 651
1472 2 2 0 0 645 739 397
1473 2 2 0 0 683 741 374
1474 2 2 0 0 397 739 638
1475 2 2 0 0 653 716 579
1476 2 2 0 0 666 723 660
1477 2 2 0 0 419 723 666
1478 2 2 0 0 374 737 683
1479 2 2 0 0 593 741 646
1480 2 2 0 0 683 737 1
1481 2 2 0 0 689 742 309
1482 2 2 0 0 660 723 2
1483 2 2 0 0 23 25 1
1484 2 2 0 0 25 607 1
1485 2 2 0 0 3 34 2
1486 2 2 0 0 34 415 2
$EndElements
