$MeshFormat
2.2 0 8
$EndMeshFormat
$Nodes
745
1 5.1435941849744935e-05 3.3678368318802051e-05 9.8981272063398181e-04
2 6.7289938632342504e-05 -3.4138485575902509e-05 -9.8797762135940394e-04
3 1.2735948244256044e-04 2.6101825856900772e-05 -9.8189635409281985e-04
4 2.4508306841177022e-04 3.1357645924777320e-05 -9.6106151483393398e-04
5 3.6973108373463797e-04 4.1188504452576749e-05 -9.2214036441163856e-04
6 4.8002049242180597e-04 7.9318139088213645e-07 -8.7224739872977786e-04
7 6.1463934542157160e-04 -8.8285960488094854e-06 -7.8614561888553508e-04
8 7.2595337800488314e-04 -8.3115539574470478e-06 -6.8742102854718904e-04
9 8.3736867635588689e-04 -4.1644899639736405e-06 -5.4929381100281543e-04
10 9.1430839505385244e-04 8.8444324536754519e-07 -4.1070609737941610e-04
11 9.6343851121489913e-04 8.1600392499131254e-06 -2.7801887623984451e-04
12 9.9264075405686332e-04 3.6766635186277153e-06 -1.4437122309527692e-04
13 1.0030891927926208e-03 2.8913981323225539e-06 1.3188835078878290e-06
14 9.9216792427188599e-04 1.0089926023314136e-05 1.4590322961462830e-04
15 9.6217683543751336e-04 8.1791123896926207e-06 2.8210076825797782e-04
16 9.0946943368395722e-04 7.9201229854980287e-06 4.2163006805917195e-04
17 8.3459207157230255e-04 3.4931291096396925e-06 5.5364955658592852e-04
18 7.2781827365717264e-04 1.3297233275709643e-06 6.8585523037124636e-04
19 6.1535419874719126e-04 8.1607453901145368e-06 7.8599196814507809e-04
20 4.9254862032616889e-04 1.2729901236866225e-06 8.6573049726442863e-04
21 3.7321125474410822e-04 -4.9984434623847340e-06 9.2138756016129785e-04
22 2.4841914949027410e-04 4.9979093040853478e-06 9.6086631117156974e-04
23 1.2968934942372682e-04 -1.0543304112035951e-05 9.8246568971126539e-04
24 1.6817229489580969e-04 1.1901684264248643e-04 -9.7031479517019575e-04
25 1.5725927864864480e-04 1.0183807136631460e-04 9.7467458648778772e-04
26 5.5585917062308664e-04 1.0560521709700560e-04 -8.2053868960806596e-04
27 5.5896702077952508e-04 -1.0613097665939380e-04 8.1914776184327867e-04
28 9.7223451644103532e-04 1.3710820101724361e-04 -2.0465521840537621e-04
29 8.5933536440608302e-04 1.4457002576344675e-04 4.9613183139282971e-04
30 9.3581196920392365e-04 -1.1416389524297281e-04 3.4156952527668571e-04
31 9.7200060608091201e-04 -1.1963337448223523e-04 -2.1564522669487724e-04
32 5.3156959262556165e-04 -1.1773498514296670e-04 -8.3488769911490332e-04
33 5.4758443583485035e-04 1.1166127283514230e-04 8.2565944480453540e-04
34 1.4865236075332604e-04 -8.8899853241946258e-05 -9.7690407920740237e-04
35 1.8099607664545222e-04 -9.5042482015443715e-05 9.7061339509676157e-04
36 7.8416306089674776e-04 -1.1506133983275169e-04 6.1145244502362154e-04
37 7.7426478950040471e-04 1.2036770581728524e-04 -6.2215940460112003e-04
38 9.9396392378612555e-04 -1.0913203400998320e-04 7.6271812177018946e-05
39 9.7243737879464988e-04 1.2625169347313874e-04 2.0922707722746296e-04
40 8.7141929351174400e-04 -1.2799252863361153e-04 -4.7782470204140565e-04
41 2.8855541348480241e-04 1.2548074096679877e-04 -9.4190664410667734e-04
42 1.9386797367865273e-04 2.3930804818824005e-04 -9.4371220193670649e-04
43 3.2300222471565165e-04 2.3593720083792119e-04 -9.0970417991668550e-04
44 2.9716570848276459e-04 1.0810290448509742e-04 9.4180444681026183e-04
45 6.7146249541524263e-04 1.1288061920296657e-04 -7.3085228181424711e-04
46 7.1672055431319084e-04 2.3228457315375341e-04 -6.5749552900099147e-04
47 2.6539116109847345e-04 3.5032584119039687e-04 -8.9199039114677865e-04
48 3.9470356428991356e-04 3.4565191407123140e-04 -8.4632495065504088e-04
49 3.2665497640422582e-04 4.5328197642782340e-04 -8.2482063064721347e-04
50 8.0895055018589295e-04 2.4294933267361376e-04 -5.3763951784922576e-04
51 7.3092817161712485e-04 3.6091466247623879e-04 -5.8070318921333945e-04
52 8.1406922630812908e-04 3.6663719755206803e-04 -4.5422288784129083e-04
53 7.2945111181408782e-04 4.8751413063721576e-04 -4.8305072609125901e-04
54 8.0442431895717326e-04 4.8196666267205163e-04 -3.5324997995845464e-04
55 7.1581403812835101e-04 5.9441808814757625e-04 -3.7173580448424977e-04
56 7.8146250111957598e-04 5.8066434453402321e-04 -2.3858102906690326e-04
57 6.2971262638688978e-04 5.9914481308186965e-04 -4.9677916096308469e-04
58 6.0834262372281016e-04 6.9596084536691950e-04 -3.8599478956503436e-04
59 5.1718772709912722e-04 6.9441836078351713e-04 -5.0223964226844429e-04
60 4.9020292782219106e-04 7.7786371736044660e-04 -3.9714443623807181e-04
61 3.9724960116994945e-04 7.6264946835939847e-04 -5.1249219169627574e-04
62 3.6271106379483177e-04 8.4319915746228951e-04 -4.0056242774814743e-04
63 2.0394564734228316e-04 4.4745257784834631e-04 -8.6519656145176782e-04
64 4.5266450543782406e-04 8.4527016236351550e-04 -2.8955997907403083e-04
65 2.5906729423231801e-04 8.1899177894467843e-04 -5.1398079555633883e-04
66 2.3102817134315812e-04 8.9696141553705945e-04 -3.8110691627370858e-04
67 1.2444386271242584e-04 8.6875107778973783e-04 -4.8179896051564187e-04
68 9.4957777707365798e-05 2.4208867543833263e-04 -9.5727331053346030e-04
69 1.4420750754684286e-04 7.6895303936024733e-04 -6.2400922422328287e-04
70 8.5973231941824770e-04 4.6716307187836528e-04 -2.1746199895167638e-04
71 8.3100137859685520e-04 5.5114115159461447e-04 -1.0572135654850308e-04
72 7.3735076958497594e-04 6.6689377744638678e-04 -1.2878847242449057e-04
73 7.7603631899640418e-04 6.3503857168544875e-04 5.1125386865953495e-06
74 6.7284657759453291e-04 7.4262085982126154e-04 -2.6849150287202367e-05
75 6.9681336496731788e-04 7.1250638481686437e-04 1.0713719276424790e-04
76 5.9415033220273569e-04 8.0399672019695596e-04 7.3123643679399059e-05
77 6.1593232834454266e-04 7.6270444724633514e-04 2.0855665185548738e-04
78 5.0566055941894802e-04 8.4745407803865484e-04 1.7563577062329832e-04
79 9.4895374267664636e-05 9.3699622162030289e-04 -3.4119061737297355e-04
80 -1.3384983674654128e-05 9.0315103479826837e-04 -4.3167425225050168e-04
81 2.3236837936304163e-04 2.0700768368025587e-04 9.4333182091964080e-04
82 5.2287900232492028e-04 7.9452985678555698e-04 3.1608930491638487e-04
83 -4.2116074198910391e-05 9.5411559221479831e-04 -3.0118995221017865e-04
84 4.0676778732809702e-04 8.7287845269208174e-04 2.7742996879460280e-04
85 4.2402749096087525e-04 8.1105174943137440e-04 4.0738745460612612e-04
86 2.9577621875336669e-04 8.8068984257551938e-04 3.7491414441518642e-04
87 3.0331161609081569e-04 8.0929698475743059e-04 5.0515746040791514e-04
88 1.8577929753609029e-04 8.6465611337269187e-04 4.6977777069926103e-04
89 1.6713476093234555e-04 9.2685079633010288e-04 3.4169547623155169e-04
90 5.3962416440181766e-05 9.0374978466514592e-04 4.2817896535054492e-04
91 7.0240569422092735e-05 8.2884319130860579e-04 5.5645232527645608e-04
92 -5.9527999385003878e-05 8.5886587472051704e-04 5.1035475172869456e-04
93 -8.8641569904990828e-05 9.2073946106574034e-04 3.8414070128864840e-04
94 -1.9208838800707450e-04 8.6757996428925808e-04 4.6112584905547388e-04
95 -1.6504766845543663e-04 7.9994308952810532e-04 5.7609612004262461e-04
96 -2.2159587983626054e-04 9.1824222713184176e-04 3.3339302831459088e-04
97 1.1537119865438600e-04 2.1453236759680117e-04 9.6199540283286060e-04
98 5.3790826861265125e-04 7.1460724347824833e-04 4.5305621620784885e-04
99 1.7146152707083089e-04 3.3063440702420634e-04 9.2157303290369915e-04
100 4.7263708934711890e-05 3.1577982699603212e-04 9.4051857835814295e-04
101 -9.3093975108921059e-06 2.1007652355053085e-04 9.6953811238954823e-04
102 -8.2683800407052006e-05 3.0917802368156052e-04 9.4026120134986079e-04
103 2.0206611345976503e-04 9.5021062072657165e-04 -2.4505643774926067e-04
104 -1.1394500539986208e-04 9.6300090185114237e-04 2.5204126382039722e-04
105 -2.4757853154345799e-04 9.4847064379840974e-04 2.0731595868088881e-04
106 -3.5292942024234080e-04 8.9453624564140200e-04 2.8081994440363675e-04
107 -1.5485392587690107e-04 9.1297726940568270e-04 -3.8052240790452716e-04
108 -1.2956547781863798e-04 8.5039613309673666e-04 -5.1093227518858814e-04
109 -3.7996825872011679e-04 9.1455046884158023e-04 1.5191937255105067e-04
110 -2.6284146957558608e-04 8.5263416903814796e-04 -4.5351077224592396e-04
111 -2.3436122555896058e-04 7.7470747222402651e-04 -5.8724881586857676e-04
112 -3.6710178325546965e-04 7.7228181873742387e-04 -5.1942649128266171e-04
113 -3.3331629999290709e-04 6.8775676067749667e-04 -6.4395354769910293e-04
114 -4.6548037413576430e-04 6.7651315955687477e-04 -5.7076512201036957e-04
115 -4.2400819042241554e-04 5.9005001247859515e-04 -6.8530180596578741e-04
116 -5.0001915067611176e-04 7.4276457217036548e-04 -4.4738150743157398e-04
117 -2.9002311225546283e-04 9.0423047566519561e-04 -3.1764311205884489e-04
118 -2.8616799028491032e-04 7.8309642061145923e-04 5.5435776680530990e-04
119 7.0699111417478130e-04 6.7207000741465069e-04 2.2938474120111045e-04
120 -2.8678186639006706e-04 5.8033955370428286e-04 -7.5924994930150983e-04
121 -3.6949948026148983e-04 4.8273949451266550e-04 -7.9034145164995600e-04
122 -4.9953074331702760e-04 4.7355960495883999e-04 -7.2287765419752127e-04
123 -4.4351810369691521e-04 3.6496386656623668e-04 -8.1426024707710652e-04
124 -5.8864054872945291e-04 6.3911247144950677e-04 -4.9626763807931551e-04
125 -6.1791921276925488e-04 6.9861940853431861e-04 -3.6434666103461429e-04
126 -6.9896128656189596e-04 5.8967116693395304e-04 -4.0745182283660200e-04
127 -4.8618617761423235e-04 8.4601311265302911e-04 2.2739167271963338e-04
128 -5.6688401900175452e-04 3.4731767925130064e-04 -7.4403554535421175e-04
129 -5.0456523173887235e-04 2.3937528797033137e-04 -8.2499634705056801e-04
130 -6.2627258079846703e-04 2.1953805238274929e-04 -7.4521173842542396e-04
131 -5.5548800816059680e-04 1.1181293271124776e-04 -8.1973728686521340e-04
132 -6.7720591353956946e-04 9.0743163625573358e-05 -7.2797182222809030e-04
133 -6.0330558601000587e-04 -1.7027616270712106e-05 -7.9390289588890601e-04
134 -7.2097478254174330e-04 -3.9554001100956350e-05 -6.9067765971285195e-04
135 -6.3936769257774977e-04 -1.4628011901072859e-04 -7.5264433673219531e-04
136 -7.8898142747502360e-04 7.5346881125288204e-05 -6.1007645012779927e-04
137 -8.2177337303297141e-04 -6.2333200862495610e-05 -5.6751314941817321e-04
138 -8.7483664686152684e-04 5.3725805472613566e-05 -4.8391633432399989e-04
139 -8.9553920269634820e-04 -9.1881957451285854e-05 -4.3870725646975997e-04
140 -9.3771157833665779e-04 1.9975334072033713e-05 -3.5164532871591938e-04
141 -9.4830616591793239e-04 -1.1587859143336279e-04 -3.0203174724010001e-04
142 -9.7874559050740539e-04 -1.4319361006731614e-05 -2.1458068919736120e-04
143 -9.7770460844170872e-04 -1.4592012254659848e-04 -1.6561715825695529e-04
144 -9.9846265191449427e-04 -4.0225366577748552e-05 -7.8450773858348763e-05
145 -9.8663703801176090e-04 -1.7566516893744593e-04 -2.5994861695501708e-05
146 -9.9886842784073916e-04 -6.3041563847028755e-05 5.5254978159261478e-05
147 -9.7788803466530871e-04 -1.9219504727418087e-04 1.0872210637661630e-04
148 -9.5419363963794102e-04 -3.0688808470191254e-04 2.3577900465659832e-05
149 -9.3836679008153356e-04 -3.1488344924084929e-04 1.5951017394955067e-04
150 -9.5288992580065126e-04 -1.9682389644337236e-04 2.4090062847433730e-04
151 -9.0407532847659733e-04 -3.1782800398681845e-04 2.9364278378872700e-04
152 -9.0574407602595603e-04 -1.9600467646964831e-04 3.8097466126674082e-04
153 -8.4731157790256294e-04 -3.2329510174051827e-04 4.2540815853182049e-04
154 -8.9878329103047544e-04 -2.2252544490728113e-04 -3.8218021957265599e-04
155 -8.3333433180255454e-04 -2.0412101951030592e-04 5.1595246816383503e-04
156 -7.6341843168494829e-04 -3.3485829876229436e-04 5.5383914478799071e-04
157 -8.8358021216505963e-04 -6.9893418673159052e-05 4.6640685647034153e-04
158 -7.4183716268884381e-04 -2.1659698674165754e-04 6.3464355126252180e-04
159 -6.5962676883803530e-04 -3.3467559848381176e-04 6.7248316554399722e-04
160 -9.9959817590617589e-04 7.3561262968708057e-05 5.8016451826216691e-06
161 -6.2945442729145081e-04 -2.1580446925693392e-04 7.4445389785990801e-04
162 -5.4580142252537607e-04 -3.2273605723023174e-04 7.7104949458555263e-04
163 -5.1343342104653096e-04 -1.1665459778283794e-04 -8.4566985786092245e-04
164 -5.3832418498933881e-04 -2.4934001710275901e-04 -8.0185582951061566e-04
165 -7.1862501302963854e-04 6.4240441119223766e-04 -2.7232550298294270e-04
166 -1.3536679371351637e-04 2.1136510592366392e-04 9.6019368891018056e-04
167 -2.1571258984627334e-04 3.0632029715701244e-04 9.2055328642397054e-04
168 -4.0825072735090962e-04 -2.0893014609425580e-04 -8.8326749001550070e-04
169 -4.2799709232848432e-04 -3.4483486419893466e-04 -8.3160034952210293e-04
170 -5.4962350508616230e-04 -3.8226977569827164e-04 -7.4124046768145053e-04
171 -4.4015409816566039e-04 -4.7434265959362635e-04 -7.6047145116456564e-04
172 -5.5316917733104346e-04 -5.1006449189468196e-04 -6.5885491315405568e-04
173 -4.3889270376142920e-04 -5.9772857691995295e-04 -6.7096279474551917e-04
174 -5.4327493785440769e-04 -6.2781114472688449e-04 -5.5948595280589123e-04
175 -4.2972484917148067e-04 -7.0922295898171665e-04 -5.6108333205761706e-04
176 -7.7069315610916989e-04 -4.4031941603846653e-04 4.6345605280046989e-04
177 -5.2112579460812582e-04 -7.2888632733889437e-04 -4.4829195952083797e-04
178 -4.1177659357869529e-04 -8.0196189729162275e-04 -4.3767512198070326e-04
179 -3.1198661695246892e-04 -7.8365000755661700e-04 -5.3964725140160264e-04
180 -2.8239963655507630e-04 -8.6587199619748067e-04 -4.1855099116363772e-04
181 -1.8017586694166464e-04 -8.3552046781985335e-04 -5.2209826524569306e-04
182 -1.4227811568983339e-04 -9.0644038147833926e-04 -4.0391126842829203e-04
183 -4.3360281238690510e-05 -8.6274976940201075e-04 -5.0776616751285850e-04
184 -1.0071613260508677e-05 -9.2769231128352753e-04 -3.8015924334714824e-04
185 -1.0225872761292225e-04 -9.6069017001169346e-04 -2.6945552657786111e-04
186 3.5813685116399699e-05 -9.7159825148684464e-04 -2.4650888794301305e-04
187 -5.3100456640296143e-05 -9.9199313414562195e-04 -1.3997934537001715e-04
188 8.8568771055355953e-05 -9.9231282067343001e-04 -1.1926256788863343e-04
189 -6.7811681924233151e-06 -1.0031693410513371e-03 -1.3941372220016398e-05
190 1.3171472483675795e-04 -9.9461394327634341e-04 1.1614413201639370e-05
191 2.9901352642030974e-05 -9.9647576672974147e-04 1.1246680847990202e-04
192 1.6718127907315212e-04 -9.7982230996138337e-04 1.3662978856281187e-04
193 6.4231674143273989e-05 -9.7301487002084857e-04 2.3539409833329646e-04
194 2.2322081446467495e-04 -9.7366031971834826e-04 -9.2673146933467020e-05
195 2.0151953650498767e-04 -9.4672284491000090e-04 2.6353936864386850e-04
196 9.7948619354890201e-05 -9.2813233202472631e-04 3.6681431534640136e-04
197 1.0666356669166194e-04 -8.7507932948563806e-04 -4.7809298137010752e-04
198 -9.8177946278534133e-05 -9.9497582817052103e-04 7.9675811896755798e-05
199 2.3409264473005782e-04 -8.9211219696547098e-04 3.9339147287242621e-04
200 3.3563606727790427e-04 -8.9960083739385496e-04 2.9032455142038598e-04
201 3.6494725511846716e-04 -8.3590024649252343e-04 4.1618974003114603e-04
202 1.3049451098101161e-04 -8.6059790467854047e-04 4.9642531700289170e-04
203 4.5836007523302022e-04 -8.3720295330670701e-04 3.0830469249073345e-04
204 -3.9651304099519973e-06 -8.8788376479175836e-04 4.6483768684975091e-04
205 2.8832722972597829e-05 -8.0787309510960993e-04 5.9066721701893680e-04
206 -9.0558241902729132e-04 -4.2467925484974278e-04 7.0472054638035821e-05
207 -8.7440778395329912e-05 -7.7307380926540598e-04 -6.3007894782991639e-04
208 -1.0276361460074304e-04 -8.2728479389452170e-04 5.5498599674361660e-04
209 -6.9128190413047966e-05 -7.3370760676088882e-04 6.7605394942002006e-04
210 4.8271162878097811e-04 -7.6520783066889679e-04 4.3169302030707604e-04
211 5.7275519689093605e-04 -7.5876847108630294e-04 3.1925315739289801e-04
212 -4.9566552994367928e-04 -8.0851437482888297e-04 -3.2477537694265295e-04
213 5.8715501690582926e-05 -7.0681421497757909e-04 7.0449506957255797e-04
214 -3.6974486737513022e-05 -6.2067422324441697e-04 7.8084625925479198e-04
215 -3.1036068537909324e-04 -2.8654966789892463e-04 -9.0048315905934804e-04
216 -2.0540108970827197e-04 -7.4876307076202834e-04 6.3121130203233470e-04
217 -2.3964456084965866e-04 -8.3098363231261165e-04 5.0556852192895120e-04
218 5.4768555801618340e-04 -8.1782435879611997e-04 1.9463269948623863e-04
219 6.5912116063169331e-04 -7.2557808003319909e-04 2.1446020181195718e-04
220 6.2380906610732102e-04 -7.8112178737960994e-04 8.7529563419859197e-05
221 -6.3303915123831588e-04 -6.4041929134715141e-04 -4.3896479871487372e-04
222 7.2603559556083100e-04 -6.8460469054294336e-04 1.0639360875244838e-04
223 6.8799732867309761e-04 -7.2999125388183454e-04 -2.4035108150477783e-05
224 -2.8199736041931172e-04 -1.6124473939013072e-04 -9.3851547141635453e-04
225 -9.6350078710283251e-04 1.1401122625769004e-04 -2.4923864009330110e-04
226 8.6252736364566803e-05 -5.8556638072902983e-04 8.0325138467968432e-04
227 -8.7950346267050149e-06 -4.9709730791208542e-04 8.6329443635962846e-04
228 -5.0830467188483532e-04 -1.9456175523106965e-04 8.3506275725715989e-04
229 -5.8761131516703595e-04 -9.4710762498144180e-05 8.0001164544865871e-04
230 6.6980274717934590e-04 -6.6217237126010809e-04 3.4428451153019178e-04
231 3.9214916753418125e-04 -7.5366597939378161e-04 5.3063054916552147e-04
232 5.1293602829430892e-04 -6.5922824940396860e-04 5.5427611659082199e-04
233 7.7824037759138820e-04 -6.3291889592932877e-04 -1.5510439207288122e-05
234 7.3742250962123372e-04 -6.6527410352090256e-04 -1.4112326146851410e-04
235 -3.8123244143280742e-04 2.5255503002506009e-04 -8.8332023054427209e-04
236 2.9144877099997982e-04 3.2985970086093195e-04 8.9240719134892760e-04
237 -4.2518754141068716e-04 -2.9051958319084543e-04 8.5315791260265057e-04
238 -8.3889762806611595e-04 1.9873385199178516e-04 -5.0980285532993715e-04
239 6.4174082584961376e-04 -7.5563673416290166e-04 -1.5382353482782201e-04
240 6.8553801420784288e-04 -6.8017434447917324e-04 -2.7070023285911011e-04
241 -5.7429799658688255e-04 -4.4184947188900792e-04 6.8862471366619763e-04
242 5.7585350161034872e-04 -7.7357010214863212e-04 -2.7560433231282048e-04
243 6.1158796137181822e-04 -6.8673307903970905e-04 -3.9928952526463348e-04
244 7.1505833911781529e-04 -5.9051387105953611e-04 -3.8095128419377412e-04
245 6.3082812305942999e-04 -5.8718425096968062e-04 -5.1092573648127502e-04
246 -1.8509888042447423e-04 -2.4239609435501287e-04 -9.4502064078209500e-04
247 8.1651670977263508e-04 -5.7305845760898379e-04 1.0776513783436226e-04
248 2.2633037349682083e-04 4.3536862837246593e-04 8.6646677723701746e-04
249 -3.8174692149409856e-04 -1.5467155081303795e-04 9.0548816460147208e-04
250 3.5356319478716897e-04 4.2750771182316951e-04 8.2823472762156550e-04
251 -2.1309753844186402e-04 -3.5696201830713137e-04 -9.0349321761031335e-04
252 -9.0533195687417505e-05 -3.3227314059072776e-04 -9.3205766688266023e-04
253 3.7802817500800720e-04 9.1606724762747257e-04 1.5004417439883915e-04
254 -6.2687967921616291e-04 7.4663628391987227e-04 -2.3008930162686446e-04
255 -7.1837008727580612e-04 6.8446832246202587e-04 -1.3824546101849034e-04
256 -8.0174076465499243e-04 5.7468056113613587e-04 -1.7528256739667545e-04
257 -7.8992233494080554e-04 6.1464386673440235e-04 -4.6308133404825446e-05
258 -2.3545295936409912e-05 4.2298483722147509e-04 8.9985665049600394e-04
259 -2.9255821811968746e-04 -2.2864417162027928e-04 9.2237049554815432e-04
260 -2.6836279770571986e-04 2.0407570080276737e-04 9.3445160015860217e-04
261 -3.4742320101366418e-04 3.0078522562742855e-04 8.8261766752090523e-04
262 -2.5450403617712349e-04 -1.0357971951279584e-04 9.5411533647099674e-04
263 -1.6541219283389196e-04 -1.8037320669419521e-04 9.6206920815319224e-04
264 -8.6660496521145274e-04 4.9622618619278331e-04 -8.2992484333926895e-05
265 -8.4288114932020027e-04 5.3952761056335621e-04 5.1675285884767095e-05
266 -3.4146172185544596e-04 -7.4860931408721892e-04 5.7039513432675232e-04
267 -3.7137909096736604e-04 -8.2036552937142548e-04 4.3936183840929884e-04
268 5.1488934616092732e-04 -6.8223444568280770e-04 -5.2258965221662192e-04
269 5.2093612499334711e-04 -5.7563015528944931e-04 -6.3154034553298763e-04
270 6.3011558483784926e-04 -4.7960578373172321e-04 -6.1224010938814655e-04
271 5.1019286879127289e-04 -4.5945997306467930e-04 -7.2627756577847160e-04
272 4.0233728354809847e-04 -5.5079225749192213e-04 -7.3045753417134269e-04
273 -2.9163726240350753e-04 4.1149397612249791e-04 8.5851243362562919e-04
274 -4.2034103842823929e-04 4.0820293624173565e-04 8.0678250334963381e-04
275 3.9142282279878358e-04 -4.2251452848134416e-04 -8.1457312589591855e-04
276 2.8269306748701385e-04 -5.1439120817843066e-04 -8.0699131886413178e-04
277 -3.2508926274903122e-04 -3.6267125351495324e-04 8.6863636351133052e-04
278 -1.3510098474649884e-04 9.8476640876490884e-04 1.2633358828102387e-04
279 8.1709635590024603e-04 -5.6691681740998669e-04 -1.2899512897354050e-04
280 -2.3107952992766341e-04 4.6262792353684901e-04 -8.5086739347348746e-04
281 -1.4934956071336729e-04 5.6446273994903613e-04 -8.0783944544816617e-04
282 8.7065382863936956e-04 4.9839291820244101e-04 2.4527077328801061e-05
283 1.1680266453106661e-04 -4.5909602171663585e-04 8.7583921371165829e-04
284 -9.9276305714089967e-04 5.2138484401608771e-05 1.2586707386792411e-04
285 -9.1323126874895346e-04 -4.0788024080466305e-04 -7.0100929032535848e-05
286 -8.5281635555150626e-04 -5.2703575239908642e-04 -2.3499951249564188e-05
287 -8.3885288888948845e-04 -5.3732885235378326e-04 1.1436299356667268e-04
288 -7.7234008043893605e-04 -6.3925603214271595e-04 2.3963514797706140e-05
289 -7.4872504255405316e-04 -6.4786115839172726e-04 1.5838631966288419e-04
290 -6.8150055225666632e-04 -7.3248200147192524e-04 6.8245309429102371e-05
291 -1.9713941251280027e-04 -9.7004025299424407e-04 -1.6309441320744972e-04
292 -2.7193756266823810e-04 -8.9156180579556008e-04 3.6905334655080671e-04
293 -3.3187379682098143e-04 -5.4758885494527441e-04 -7.6643598806531825e-04
294 -9.8558171500374653e-05 -4.6103058769832422e-04 -8.7762353587493081e-04
295 -4.8380208009134759e-04 2.9371774985795170e-04 8.2054202984302655e-04
296 -5.5234834176253920e-04 3.9398082296905206e-04 7.3275563549422146e-04
297 -8.7250549223346979e-04 4.4744616712773792e-04 -2.0625416719156426e-04
298 -6.1028369138573695e-04 2.6995826430568139e-04 7.4275646858799112e-04
299 -6.7261850825290964e-04 3.6891615747806331e-04 6.4133208523929782e-04
300 -6.0793925996507686e-04 4.9496499584630643e-04 6.2110036720570006e-04
301 -7.1691726491119484e-04 4.6280317227027771e-04 5.2327557166809754e-04
302 -7.7667440706433806e-04 3.3606868979152351e-04 5.3427161594501690e-04
303 -3.0274332667488155e-04 -6.5924663876484923e-04 6.8800084541639989e-04
304 -6.3678675689725892e-04 5.9537404690746540e-04 4.9263387687223002e-04
305 -8.1065749266171058e-04 4.1849907819487459e-04 4.1339660965285062e-04
306 2.0977029980541386e-04 -5.4367125107950660e-04 8.0972959257102298e-04
307 2.4366491653451483e-04 -4.1523161286776778e-04 8.7183738317844599e-04
308 3.4451909528604034e-04 -4.9204081212923464e-04 7.9704506985513732e-04
309 -4.5877893236489944e-04 -7.3460805747902033e-04 5.0223847021912331e-04
310 -8.6109961294939419e-04 2.8550145662396782e-04 4.2415529595161901e-04
311 -4.0167113793730501e-04 -8.6794139787031667e-04 3.0126328395002069e-04
312 -7.6790875503542815e-04 6.3840041773947562e-04 8.1405529801549878e-05
313 -8.5178737846488693e-04 -5.0541081535588879e-04 -1.5597313968385257e-04
314 -7.9929516589055549e-05 1.0517045785249622e-04 9.8296613629685644e-04
315 -8.8787944934488709e-04 3.5593665797932711e-04 2.9924614214873991e-04
316 -9.8031268049910769e-04 1.8808640989470896e-04 8.8715488652218360e-05
317 -1.0764032518794767e-04 7.6589932116555650e-04 -6.3280768273188989e-04
318 2.6554154758798364e-04 -3.7748774208928388e-04 -8.8227390024850285e-04
319 -6.9490658220891760e-04 -7.2023441047636919e-04 -6.4686479410594024e-05
320 -6.0666300562712866e-04 -7.9822293356419049e-04 -6.1021986396318455e-06
321 -6.6318531992973684e-04 -4.0538553078658029e-04 -6.2964173485308107e-04
322 -6.4171438131343413e-05 -2.0906936871907964e-04 -9.6770514829502385e-04
323 5.1114733474311169e-04 -8.6024850756544018e-04 7.4278436415949354e-05
324 -6.2140641628121774e-04 7.7960578950478213e-04 -9.8279336385719585e-05
325 2.8127342350526418e-04 5.3562456993256355e-04 7.9313411503963030e-04
326 2.8088752183481333e-04 -6.3674447934112524e-04 -7.1748373963572494e-04
327 1.5586620332309691e-04 -5.9482639666022465e-04 -7.8648640826016773e-04
328 4.1954716472018718e-04 5.3240046874797364e-04 7.3357282305739865e-04
329 4.7993555095068787e-04 4.1306582941714695e-04 7.7153912959275928e-04
330 4.4746477986953078e-04 4.3889862686500344e-04 -7.7575089574245055e-04
331 4.1225167271421238e-06 9.8833131547535358e-04 1.6506415797389436e-04
332 -1.9921051167299071e-05 1.0010979278493449e-03 3.6924634303809754e-05
333 -1.4993428696822908e-04 9.9054827853961754e-04 3.5977204387276692e-06
334 1.1970236723813041e-04 9.9170136545435905e-04 7.9584259083336167e-05
335 3.6032634218238725e-04 -3.5260672935861760e-04 8.5940351217638606e-04
336 4.5922489258891570e-04 -4.2444170334019333e-04 7.7807496879809342e-04
337 -8.1625610753794677e-04 2.0957960452592467e-04 5.3935198076430981e-04
338 -3.5372942587733237e-04 5.1238033301693976e-04 7.7932379336740634e-04
339 -1.0284973485183835e-04 4.5239355879184406e-04 -8.7988408117473365e-04
340 3.5362406821774507e-04 -2.9195468330169114e-04 -8.8369736292009211e-04
341 2.2847846127954082e-05 -2.6345423067317293e-04 -9.5691128664583355e-04
342 -9.3404203046919569e-04 3.5154229732963058e-04 -9.9599289461033830e-05
343 1.6596103235898920e-05 -3.6357881309514821e-04 9.2525841148592464e-04
344 -5.2345564468979247e-04 6.1313704811263782e-04 5.9239433846264527e-04
345 -5.3466177657331647e-04 7.1310958312147750e-04 4.5849367141360633e-04
346 -6.5611686886696936e-04 6.6616515497346974e-04 3.5958228626395330e-04
347 6.0347819726623586e-04 -3.6293639312651334e-04 -7.0949374805179917e-04
348 7.2252621600278762e-04 -3.7371918803868055e-04 -5.8382807966485468e-04
349 5.3957349820727535e-04 5.1672647819072954e-04 6.6433594445799841e-04
350 6.0238329752895846e-04 3.9631537162854527e-04 6.9202949138499014e-04
351 6.5477489517840883e-04 4.9087663169916087e-04 5.7609971632633609e-04
352 7.1538719289723611e-04 3.5261996508821001e-04 6.0444435939016627e-04
353 7.5605923100197417e-04 4.4900777743610103e-04 4.7997058364443766e-04
354 -6.4750758505282386e-04 -7.3833326577955720e-04 2.0203303998660060e-04
355 2.5413868068494948e-04 5.4718639583489065e-04 -7.9351083694843231e-04
356 1.3290221538347975e-04 5.5777852850801609e-04 -8.1497313842740450e-04
357 -6.7469153690926081e-04 3.2121538394394285e-04 -6.6268734651801331e-04
358 5.2853310463635999e-04 -8.3815512120837075e-04 -1.5658358954247545e-04
359 4.5676147692926694e-04 -8.4934827468091385e-04 -2.7536208570966189e-04
360 -8.2811928426896925e-04 4.8927319034570104e-04 2.8085752874253166e-04
361 -1.2296351478457203e-04 -5.2114083782415696e-04 8.4069759891450269e-04
362 -1.7740519698154522e-04 3.4191066762256922e-04 -9.1595375140151051e-04
363 -2.2453527546252534e-04 5.1100669226185509e-04 8.2531667768982297e-04
364 -5.2109352686039139e-04 8.3624911622440495e-04 -1.8064337943351754e-04
365 1.5952315003609212e-04 5.4000384352462444e-04 8.2262312934689049e-04
366 -3.5585411320167748e-04 -2.9801260066046872e-05 9.2736668668562860e-04
367 -7.0849931217618705e-04 -6.4508374376113999e-04 2.9445142481308991e-04
368 2.1164112063312018e-04 6.6199509279535015e-04 7.1855511884658823e-04
369 8.3608677127186031e-05 6.3239564697062053e-04 7.6641230450332030e-04
370 6.9461500981876081e-04 -2.5556581624697758e-04 -6.7269920108889089e-04
371 -5.3337357527565639e-04 1.6188950812602153e-04 8.2633600073988688e-04
372 -6.5625294084744505e-04 1.3384548747377148e-04 7.4123163910378743e-04
373 5.5607318027202574e-04 8.3207428208533754e-04 -5.4414057368923832e-05
374 -1.4130632608066267e-04 -7.5318529557175305e-05 9.7895147624572020e-04
375 -4.8306312993302569e-05 -1.6199391485015614e-04 9.7735014680426393e-04
376 -3.0309395511326945e-04 -9.2729576204873810e-04 2.3290812119618120e-04
377 -4.3357401816696689e-04 -8.9017030682972929e-04 1.6391839457775601e-04
378 -9.3007472057220751e-04 1.9818093286677824e-04 3.1795429545190997e-04
379 4.2296518924436283e-04 6.5806004042771448e-04 -6.2370313850445007e-04
380 1.5804367478323622e-04 -7.1139201003636771e-04 -6.8469411095048839e-04
381 2.7826586284738944e-04 -7.4233958565617390e-04 -6.1079427168221124e-04
382 -9.0472749442788419e-04 -3.8109524755891393e-04 -2.0245835003050892e-04
383 -8.3764321583841897e-04 -4.7118331080111750e-04 -2.8418167003071114e-04
384 -7.7369024073501780e-04 -5.8718734799618740e-04 -2.4857125481338724e-04
385 -1.6765785237642632e-04 -9.4468040535863429e-04 2.9176095867062472e-04
386 -6.6195144093715878e-04 5.2837338694610933e-04 -5.3220984907518306e-04
387 -7.6308468861690116e-04 4.7451266980402514e-04 -4.4083727264890873e-04
388 8.8034788572626942e-04 2.5105832235945583e-04 -4.0747752704326342e-04
389 -9.1444366507198156e-04 3.3011554297212112e-04 -2.4158005711627742e-04
390 -5.1458793668972768e-04 8.5855795858274240e-04 -4.2207593545281708e-05
391 -4.0554630515605500e-04 9.0843829870029585e-04 -1.1755477721503870e-04
392 -6.1036802765072375e-04 7.9361434382735515e-04 3.1957255513090841e-05
393 -5.9668505105683423e-04 -7.9606268288397641e-04 -1.2605997115234648e-04
394 -5.0515248191600106e-04 -8.6357923659537671e-04 -6.5305848451894272e-05
395 8.9596455935176455e-05 9.9654384187635608e-04 -5.1210101449646419e-05
396 2.2615697341259980e-04 9.7612645677506917e-04 -1.0449809736256553e-05
397 5.2334415997152932e-04 3.2403853668984113e-04 -7.8524496987421126e-04
398 2.4256486647091684e-04 -2.8642014313246368e-04 9.2057376996436510e-04
399 3.6413358783863881e-04 -2.2293012834612042e-04 8.9915905447685365e-04
400 -2.8104658078323880e-04 6.0559093457085607e-04 7.4177358941501998e-04
401 -1.6266060936445819e-04 6.1313634786391727e-04 7.6900473406501938e-04
402 3.1112899326845748e-04 -6.1102868081037650e-04 7.2684882104227149e-04
403 6.5226291389147446e-04 2.6872224846487660e-04 7.0768391586616857e-04
404 6.6681935687834526e-04 6.0037988974260745e-04 4.4742430815334890e-04
405 -3.1525957339099254e-04 -9.4714176065892981e-04 9.8035084055359399e-05
406 2.3158695134333857e-04 -2.5488551688495660e-04 -9.3192680975031934e-04
407 3.3616885381473877e-04 -1.9047246015814652e-04 -9.1594764490055892e-04
408 9.3801561214878584e-05 4.5364198979051768e-04 -8.8004361166409790e-04
409 -8.9134873253204645e-04 4.3189166251362529e-04 1.5922738061698166e-04
410 -4.5492369083002489e-04 8.1696819680976342e-04 3.5906963085299289e-04
411 5.5213477601874777e-04 4.2249427386279104e-04 -7.1577053387594683e-04
412 4.6391023930861914e-04 6.5275267510209731e-04 6.0113101394247920e-04
413 8.1333231113836480e-04 2.9957083668270986e-04 5.0237848953132991e-04
414 8.4090182308010615e-04 3.9524475795072096e-04 3.7524554695609106e-04
415 4.5231021395737207e-05 -1.3197945524358499e-04 -9.8151058483598422e-04
416 -9.7906182717778919e-04 2.1058645605809132e-04 -4.3447375036504455e-05
417 -5.9425305552498303e-05 3.3003199970850917e-04 -9.3436830299523717e-04
418 -1.1843820063974183e-04 2.2000476289230756e-04 -9.6002436655017408e-04
419 4.8067580261067751e-05 1.6763024484800037e-04 -9.7519565304324100e-04
420 -7.4291107548403083e-05 -7.3617405176576735e-05 -9.8555427007306724e-04
421 -9.4909570995668757e-04 3.1892480306291694e-04 4.8027310145631839e-05
422 8.0390218897504926e-04 -2.5464419546174715e-04 -5.4053430090224698e-04
423 8.1459179903679401e-04 -3.7365893967021124e-04 -4.4879808730868500e-04
424 2.5612467260618769e-04 9.6195278261837968e-04 1.1591785762194577e-04
425 3.2657335711266094e-05 -6.7776531584772166e-04 -7.3447630981996316e-04
426 2.4262432358928257e-05 -5.3633617479671508e-04 -8.4023323748101946e-04
427 -8.0445197017102658e-05 -5.8186970983631261e-04 -8.0580169474763180e-04
428 4.1458505700450949e-04 -8.9824793894134538e-04 -1.6480428276657952e-04
429 3.2567417440802169e-04 -9.0877689449666860e-04 -2.7160972594014949e-04
430 3.6642140347564950e-04 -8.4927501739956402e-04 -3.8679336980656793e-04
431 -6.1213787525159322e-04 -7.2253725604288306e-04 3.2768990773642426e-04
432 -6.4852722523625270e-04 -6.2420140365757808e-04 4.4066099512728868e-04
433 1.3236459923022197e-04 -3.3997582839221790e-04 -9.2466989466345555e-04
434 -6.2880655582968145e-06 5.5268422891800576e-04 -8.2962038033263625e-04
435 7.2586486222076137e-05 6.6226303946496522e-04 -7.4330920369605757e-04
436 8.8660830676807675e-04 2.5851739977833169e-04 3.8901195993261867e-04
437 9.0578093893372267e-04 3.3697260981233360e-04 2.6590120158639355e-04
438 8.6142479903465892e-04 4.4980008447263232e-04 2.4470019005600120e-04
439 7.5870500710908549e-04 2.0963614255036566e-04 6.1819111022686456e-04
440 -5.8445655404743414e-04 7.5718511818578327e-04 2.9893553733384469e-04
441 -7.0218294304395898e-04 6.8278374502034789e-04 2.1457458475131726e-04
442 6.7883240255642947e-04 -1.1497355275610801e-04 7.2462852747833581e-04
443 7.2300812630327017e-04 -2.3931752768937910e-04 6.4909204934116959e-04
444 8.1889888072889973e-04 -2.4142265966221852e-04 5.2434115346914245e-04
445 7.4843341138021858e-04 -3.6238236745435418e-04 5.5821536590244542e-04
446 8.2813653743416915e-04 -3.6221867810079744e-04 4.3355532610448989e-04
447 7.4766606383588181e-04 -4.7342425695762679e-04 4.7029270450112977e-04
448 6.6568701720309614e-04 -4.7151050131546821e-04 5.8046104519068778e-04
449 8.1353372933719043e-04 -4.8026194780356686e-04 3.3664716249741145e-04
450 8.8621719646845892e-04 -3.6068307783490192e-04 3.0073161311488844e-04
451 6.4756382336914162e-04 -5.9144193821328620e-04 4.8614484424729245e-04
452 6.6709126092728377e-04 1.3349794137235385e-04 7.3254843568399774e-04
453 -5.6989606283437851e-04 -8.1559208996305423e-04 1.2456631971631337e-04
454 2.4478498370761453e-05 -4.0897349037229543e-04 -9.0669577259921204e-04
455 9.1295235207215341e-04 3.9298998044793990e-04 1.3116043880591195e-04
456 4.4445641663841482e-04 -2.1364586685435700e-04 -8.6532086209951107e-04
457 4.9812391119795677e-04 5.3234841704527741e-04 -6.8291058655334670e-04
458 6.0740865675917963e-04 -2.3927144947948463e-04 7.5664876618886134e-04
459 1.4789622160600680e-04 9.6951526635569640e-04 2.0587647366743618e-04
460 6.2178300531835556e-04 7.0869186499135795e-04 3.3952439621459592e-04
461 3.8345557297361191e-04 5.5051532347219186e-04 -7.3884850032848162e-04
462 -4.2014121484030886e-04 7.0733515275597846e-04 5.6903678114692316e-04
463 7.7686620050474429e-04 -1.3250259324533954e-04 -6.1697057853740093e-04
464 8.8054995110076987e-04 -2.5170167099146444e-04 -4.0755171354317515e-04
465 8.8001781268011176e-04 -3.6707214158326315e-04 -3.1056944620160378e-04
466 9.4640051050512232e-06 8.2915274053446523e-04 -5.5926683221069954e-04
467 9.3332106535627755e-04 -2.4681827392309611e-04 -2.7094044800140426e-04
468 9.2241424491098850e-04 -3.5566899606585475e-04 -1.7170481156742804e-04
469 1.3697905268474553e-04 3.4149426298235006e-04 -9.2261405290399367e-04
470 8.5635251882710682e-04 -4.7823579827709198e-04 2.1078474650982482e-04
471 9.2207932990590166e-04 -3.5128763244948356e-04 1.7983353458266639e-04
472 1.9791891463189190e-04 7.7384655181894049e-04 6.0253984165200593e-04
473 1.4156064780992272e-04 -2.0931924012726914e-04 -9.5970496278305329e-04
474 2.2951430574584582e-04 -9.0237287051398623e-04 -3.7206771057080859e-04
475 5.7068514955478178e-04 7.7518241259546302e-04 -2.7794999063009899e-04
476 3.1585833414058128e-04 7.1558322343728917e-04 6.2319851215666597e-04
477 2.8643679535754615e-04 7.2590739940681787e-04 -6.2522786078812471e-04
478 -1.8894590413329009e-04 -5.5478456268241618e-04 -8.0630900059967174e-04
479 -1.7927149596014467e-04 -6.6993711154789300e-04 -7.1927884537102390e-04
480 -3.9667337899631697e-04 8.3381887537785533e-04 -3.8696716890821136e-04
481 1.8722354266734580e-04 6.5356635478089407e-04 -7.3093284923840909e-04
482 7.6307520864681900e-04 -6.0692855822861965e-04 2.4001991941056830e-04
483 8.9332373947182114e-04 -4.4730943277241454e-04 8.9059702620070133e-05
484 9.4425572154071039e-04 -3.3109230001419519e-04 6.5373347194834581e-05
485 5.6731567521043594e-04 -2.4106708696750316e-04 -7.8514688815862924e-04
486 3.8393218385654964e-04 1.4618143607108839e-04 -9.0524403330323249e-04
487 9.9205469078362521e-04 1.2959983783018518e-04 -7.0353939253882985e-05
488 9.5757219701732917e-04 2.7518797686829403e-04 -1.2031040083045915e-04
489 9.7369888513545143e-04 2.3656954113464144e-04 1.0623952058081282e-05
490 9.0545127718085546e-04 4.2198221260336503e-04 -8.7439567707966805e-05
491 3.4945571411133775e-04 9.3927095571218243e-04 1.3832838410347247e-05
492 3.1175190244173454e-04 9.4422577768590919e-04 -1.2845674273159958e-04
493 4.3722753784283656e-04 8.9820040860585741e-04 -7.8494987114375886e-05
494 9.1818143098746860e-04 -4.0206032115279802e-04 -3.1055715470679494e-05
495 9.6016618017327954e-04 -2.8228857073685812e-04 -6.2443051143862743e-05
496 -3.9433385581639168e-04 9.2075746887714763e-04 2.2555553535292327e-05
497 9.9211884297880346e-04 1.2673371718863527e-04 7.3282723215489741e-05
498 6.8322359491025208e-04 6.8424524783411043e-04 -2.6339281844132241e-04
499 9.9258084226002525e-04 -1.3240101718015089e-04 -6.6502550974784617e-05
500 9.7438110890964386e-04 -1.1085276725413848e-04 2.0969264539252852e-04
501 9.3243425944094854e-04 -1.2373601141773362e-04 -3.4702031240560694e-04
502 8.6667743547551160e-04 1.2842352207506269e-04 -4.8581607431294818e-04
503 8.7313465141851659e-04 -1.1947954664567850e-04 4.7725691717473846e-04
504 4.2980189791813969e-04 1.0389766292038834e-04 8.9151150310631051e-04
505 4.1261950517781606e-04 3.1894374032062829e-04 8.4887381560134058e-04
506 6.5150612447631320e-04 -3.5304404504917983e-04 6.7154667228282107e-04
507 3.1227321178137039e-04 -1.1699802315042013e-04 9.3589996322800953e-04
508 7.0523649826919341e-05 -1.1817564762509759e-04 9.8248778014465351e-04
509 1.5163422863550616e-04 -2.1669607681520505e-04 9.5685643310877114e-04
510 2.4914032553009888e-04 -1.8729019595447184e-04 9.4243307025681502e-04
511 -1.9740974285101796e-04 6.7489635120900851e-04 -7.0886441041848665e-04
512 2.7823715470869168e-04 9.2883878869578086e-04 2.5314339224005239e-04
513 5.8342124687126831e-04 -8.1548137792805632e-04 -3.7107283557455418e-05
514 2.6827838335462365e-04 -9.6617138314792521e-04 3.4259737284305336e-05
515 3.0230202759135770e-04 -9.4319241784689969e-04 1.6016361934043097e-04
516 -5.4774353982067270e-04 5.6622711044252761e-04 -6.1523155070497743e-04
517 7.7704299116862572e-04 -5.8243087520865500e-04 -2.5048392087331951e-04
518 -1.4820109563094111e-04 -9.9120552890601750e-04 -4.2127945306660882e-05
519 -2.9281559764819112e-04 -9.5887328517337109e-04 -4.6226854124290427e-05
520 -3.3397172566687042e-04 -9.2807358848356501e-04 -1.8226952366874255e-04
521 -7.9449276885701120e-04 5.2631450578082375e-04 -3.0809641146090343e-04
522 -9.9038230874966726e-04 9.0810568774672413e-05 -1.2330147615096556e-04
523 7.8839297897840654e-04 6.0786971932351051e-04 1.1699469696686753e-04
524 -8.0405257240064010e-04 -5.4565928117297682e-04 2.4630067664549102e-04
525 7.7971471117308606e-04 5.1648784279383520e-04 3.5932768595097262e-04
526 4.9336294988251922e-04 -7.7723057129847615e-04 -3.9699019319726505e-04
527 -9.5514928431517966e-04 -2.8119212523886956e-04 -1.1649888525078423e-04
528 -9.4680972891330803e-04 -7.1963871448871549e-05 3.2036090058183372e-04
529 -9.1950285550194933e-04 5.3537912117879130e-05 3.9401842003799836e-04
530 -8.4300893445787058e-04 5.4808492716966946e-05 5.3790198969777536e-04
531 -7.7858703933693005e-04 -6.2190660645809260e-04 -1.1340041475673061e-04
532 -9.8275321779324161e-04 -7.1497307952350777e-05 1.8365540015021761e-04
533 -7.3991697534282015e-04 5.4650496433832996e-04 3.9612903364537853e-04
534 -7.0597924159852181e-04 7.1049117289698259e-04 -1.5462086583918382e-05
535 -2.4280960151183050e-04 -9.2840988717344619e-04 -2.9140699756402072e-04
536 6.3069688831499777e-04 7.6326962370196487e-04 -1.5518909011516782e-04
537 -1.3596272285235515e-04 -8.9752131340632951e-04 4.2506900060551231e-04
538 -3.8888944618067195e-05 9.9751111295874411e-04 -8.3559448015268876e-05
539 -1.8049895713892418e-04 9.5313298858112807e-04 -2.4806368470292795e-04
540 6.3113711974939051e-05 9.8113402467959153e-04 -1.9536927743586644e-04
541 -9.4207924322128325e-04 2.8632744083031063e-04 1.8705374337187747e-04
542 -8.8201670174780018e-04 -4.2976565893717374e-04 2.0596225930350702e-04
543 -8.0008437001407825e-04 -8.1112941150293243e-05 5.9511392373455204e-04
544 -7.4735051466500455e-04 2.9905277406681057e-05 6.6280458386522691e-04
545 -6.5813132136845003e-04 -5.2808614667963197e-04 -5.3907147941029338e-04
546 -7.5021702463304925e-04 -4.2633333544201665e-04 -5.0768638101305263e-04
547 -7.5567663183277484e-04 -3.0235060733371549e-04 -5.8198811694360603e-04
548 -6.5664925095367769e-04 -2.7587452318715274e-04 -7.0094091833029760e-04
549 2.6450088121564259e-04 -8.1577386537554509e-04 5.1792532707020233e-04
550 5.8031264613077436e-04 6.0558071265940890e-04 5.4509878763763224e-04
551 8.7507659135233474e-04 3.6485965509308041e-04 -3.2447113558898373e-04
552 8.9095583635321717e-04 -2.4148673712577972e-04 3.9142122508155390e-04
553 1.5817534755634214e-04 -7.7328584458615413e-04 6.1547014291994781e-04
554 -4.4106811399807690e-04 -6.4704838551462305e-04 6.2368474707692973e-04
555 -3.8033092831527308e-04 -5.5739321693642108e-04 7.3621544177890341e-04
556 -8.3721539223671965e-04 -4.3502716725148674e-04 3.3765281850572449e-04
557 -6.0459936228609635e-04 -7.2604597031935745e-04 -3.3409344364330958e-04
558 -7.1852891843090854e-04 2.4971954095061381e-04 6.4862312585219517e-04
559 -6.7911539860517588e-04 -4.4690298744067821e-04 5.8324846723351031e-04
560 -5.8505913534643585e-04 -5.6473305568058893e-04 5.8450719910762270e-04
561 6.3015327902254720e-04 4.8013685660687786e-04 -6.1170569410402343e-04
562 -3.2310904241401325e-04 -6.7910351819303830e-04 -6.5983922668559169e-04
563 -4.8118926879914649e-04 5.1130470330592258e-04 7.1050798955320401e-04
564 7.3112068083074370e-04 -4.8579418049812806e-04 -4.8331642324184296e-04
565 -7.2819831908523319e-05 -2.7407459365806186e-04 9.5177586739369612e-04
566 -1.0415394865687913e-04 -4.0150245258537920e-04 9.0425905323037175e-04
567 -2.0221026529399828e-04 -3.1281933385407014e-04 9.2184357563022631e-04
568 -1.6511287818151048e-04 -6.4452546792104800e-04 7.4504148807425028e-04
569 3.9975809214477033e-04 -6.6475015133798205e-04 -6.3233315432342525e-04
570 -7.0374669496002377e-04 -1.0286362008274353e-04 7.0131031087496782e-04
571 5.3419337130128656e-04 3.0841665912439162e-04 7.8422331896056707e-04
572 4.8071088202619467e-04 -3.3306991911620450e-04 -8.0837416343362465e-04
573 1.2260778466086287e-04 -3.3845690442713220e-04 9.2654296399804570e-04
574 -7.4084079851959202e-04 1.9651821905809693e-04 -6.4130554906518167e-04
575 1.5036061248570857e-04 -4.6779675149414841e-04 -8.6663205893005310e-04
576 -4.4341937912947241e-04 -4.2427829749250583e-04 7.8776428117070384e-04
577 -3.1626104208600642e-04 3.5736984732690142e-04 -8.7323923397554743e-04
578 -2.4596745802855317e-04 2.3215866287343320e-04 -9.3374663017027040e-04
579 -3.1144482259828367e-04 1.4936750431673838e-04 -9.3097971938761455e-04
580 -4.8257670830493111e-04 1.2036966170792051e-05 -8.7032555210362500e-04
581 4.5165545967741047e-04 -5.5794717215258628e-04 6.9717336988060145e-04
582 4.7396530345354898e-04 -2.9095456723140790e-04 8.2752488582362848e-04
583 -4.3569849296485051e-04 1.3741765276990939e-04 -8.8359464892273035e-04
584 -4.0520083222192178e-04 1.8776415267995235e-04 8.8906311663427369e-04
585 -4.4252156521798350e-04 6.2881607218444834e-05 8.8894866092518727e-04
586 -3.3283601342000397e-04 -4.1560362024576784e-04 -8.4220976515144070e-04
587 2.7202006352212384e-05 9.5595403882312892e-04 2.9875176725523177e-04
588 -3.8864950102674410e-04 -7.6686635674481807e-05 -9.1170283817596333e-04
589 -2.4871514292145472e-04 -5.3459807407101976e-05 -9.5904014687101023e-04
590 -1.6211844406094339e-04 -1.2301756422369373e-04 -9.7079808820672007e-04
591 -1.5688403905593200e-04 4.1520542800902013e-04 8.9029987574416305e-04
592 -5.1929576537323703e-04 7.9590116448443194e-04 -3.1586991472527847e-04
593 -2.2759725011155986e-04 4.0590201615523275e-06 9.6570096839187017e-04
594 3.5664894519191632e-04 2.1295208197552934e-04 9.0375223707872348e-04
595 -8.0762013384340890e-04 5.6893931810079687e-04 1.6856028190834346e-04
596 4.2781003779494511e-04 -8.8931239755434888e-04 1.8095143254758312e-04
597 9.6903582032602226e-05 4.2957727390793724e-04 8.9218883181630966e-04
598 3.2755374801751448e-04 9.0637095383226576e-04 -2.7315424674802632e-04
599 1.8413265637140657e-04 -6.6618643502024339e-04 7.2178948804162558e-04
600 -5.2770253282577494e-04 -8.1513781785713386e-04 2.4978479970561100e-04
601 -8.4943116664073668e-04 4.0543939976455182e-04 -3.4194857435697009e-04
602 -8.1586427220730457e-04 3.4753851305013085e-04 -4.6374866106651088e-04
603 -7.4548361141021067e-04 -5.3894508910071616e-04 -3.9895173368571270e-04
604 -9.1199049944630669e-04 1.5325276004166937e-04 -3.8407309127344368e-04
605 -4.0814363403944933e-04 -9.1555175405922274e-04 2.8272342547554005e-05
606 -3.1236952249646943e-04 8.5648893833007627e-04 4.1428072984387414e-04
607 3.5302673238113033e-05 1.3967965475970465e-04 9.8059924330291251e-04
608 -5.5323181896332718e-05 7.6947836803573446e-04 6.3623191952708741e-04
609 -7.4786897842439896e-04 -1.7238829899005948e-04 -6.4099381817720282e-04
610 9.5850199050602220e-04 2.6127340022510747e-04 1.4053808301358901e-04
611 4.2094315590736364e-04 -8.2525171850310404e-05 -8.9773117466627973e-04
612 9.2984026498699960e-04 1.2016125194139140e-04 3.5464859122629085e-04
613 -3.8095437390182023e-04 -8.7527930056786819e-04 -3.0725584405357924e-04
614 4.5823070542550085e-05 -7.9529683900397905e-04 -6.0629130401400821e-04
615 4.7030072682758384e-04 -8.8512183342918146e-04 -4.3582835888357707e-05
616 -6.8570814025736880e-04 -7.0463688679934069e-04 -1.9992021923315455e-04
617 -9.3794800832509406e-04 -2.4966553943655618e-04 -2.4950626726339336e-04
618 -6.1899860560998485e-04 4.4597209699338462e-04 -6.4516296533899365e-04
619 1.8599703581527100e-04 -9.5849066612166780e-04 -2.3266205027877332e-04
620 -3.5345065728183124e-05 -9.4386283643706139e-04 3.3682150075096501e-04
621 3.9217500538867944e-04 -7.6514820883411602e-04 -5.1420980258356304e-04
622 -2.1825308588426442e-04 -4.3248051959674595e-04 8.6991253104817345e-04
623 8.0460104042881931e-04 -4.8427365247085563e-04 -3.5128873825142955e-04
624 9.3069473488987088e-04 1.3032948579375732e-04 -3.4892279448025631e-04
625 -4.0603672558916907e-04 6.0840635627933083e-04 6.8043186651468965e-04
626 -2.4828007104552637e-04 -5.5128710102563515e-04 7.9352107119683537e-04
627 -8.8901217135877280e-05 5.2698519202307235e-04 8.4070659722545907e-04
628 4.7146750321073685e-04 8.8330800264255671e-04 4.6032559959335291e-05
629 -9.6593114416237622e-04 5.0715494662505867e-05 2.6173394471136350e-04
630 -5.9890811210399839e-04 7.8644047200048797e-04 1.6285761092341914e-04
631 -8.3466737389955919e-04 -1.9538051517087901e-04 -5.1695062495873262e-04
632 -4.1145475265007780e-04 8.7693647545585734e-04 -2.5449575634938794e-04
633 9.3229202593809589e-04 2.4566097827458279e-04 -2.7453245505215868e-04
634 -3.1188464416400698e-04 9.6075168532044417e-05 9.3810157787534046e-04
635 3.9468997855817914e-04 -9.2049217327440684e-04 5.9865482886081941e-05
636 -6.8490508028425402e-05 -9.7946599654774504e-04 2.0494290605744986e-04
637 -4.7610927160717415e-04 -6.3695566225370186e-05 8.7200325842733400e-04
638 4.3736132122150278e-04 2.5493151259120929e-04 -8.5638617955565224e-04
639 4.3422689424138310e-04 -1.0458663539452834e-04 8.8938997908239511e-04
640 -6.5912201338427811e-05 6.5852282090681110e-04 -7.4676855950896312e-04
641 -9.6389137207895210e-04 2.2188417403986148e-04 -1.5996574165656819e-04
642 -8.8304416978638735e-04 2.8220865886809197e-04 -3.7835935673931483e-04
643 2.8154167247967455e-04 -7.2266967988065286e-04 6.3208283213035384e-04
644 5.6429519116911074e-04 -4.5368979217767216e-04 6.8924870579307150e-04
645 6.0578239566496013e-04 2.2486745609829952e-04 -7.6074145853006776e-04
646 -2.0262056731442759e-04 1.2079252934656648e-04 9.6361926317703743e-04
647 2.5233776178497313e-05 5.3814908928453162e-04 8.3814847763502922e-04
648 -7.5299916622493168e-04 5.9558186858515072e-04 2.8342081526088267e-04
649 -2.6251285745777298e-04 9.6344081834394499e-04 8.1767563814755142e-05
650 9.3771663490769749e-04 -2.3725462640353880e-04 2.6489372624216421e-04
651 -4.7268741884783479e-04 -8.6419420455330343e-04 -1.9132998949391596e-04
652 -8.7985117721442940e-04 -3.4515709663942982e-04 -3.3216490852833495e-04
653 -1.8238443451822469e-04 1.1342154662542126e-04 -9.6809923659656237e-04
654 8.5663735619497677e-04 -4.7175572520305448e-04 -2.2181598825221947e-04
655 -7.1919219326939648e-04 4.1334992659350183e-04 -5.5828923742342262e-04
656 6.5248005771344100e-04 -1.2984880492525222e-04 -7.4523683048573696e-04
657 -7.5460928827912176e-04 -5.4575036876457358e-04 3.6931083867435574e-04
658 -3.6238091731499803e-04 3.4592637489042630e-05 -9.2418644320234355e-04
659 -1.4187148413458532e-04 1.0142579744138300e-05 -9.8141040633596991e-04
660 -4.4046268993315718e-05 1.9001484342475045e-05 -9.8897066276650058e-04
661 8.5648312220047132e-04 -5.2163051123814972e-04 -9.3889345418750255e-06
662 5.3861854561259509e-05 -2.3167597089377234e-04 9.6371724686285048e-04
663 5.1889181363092896e-04 8.3992185832886055e-04 -1.7034841869864123e-04
664 -2.8118564611153492e-04 9.6008119768226043e-04 -5.2011363459437237e-05
665 -2.9682533129002793e-04 9.3833330856297526e-04 -1.8584556792255728e-04
666 -6.6110205946540477e-05 1.2096535635635239e-04 -9.8177936197449303e-04
667 2.6287485076957248e-04 -8.3340097975614599e-04 -4.9006087231802376e-04
668 -5.6215874930511133e-04 3.5192023703324606e-05 8.2225274454175950e-04
669 -8.2980940949858449e-04 -3.1479081237034565e-04 -4.6333669520357045e-04
670 -5.0382358783756219e-04 8.6108201617813239e-04 9.1989956408285579e-05
671 -9.6933350410574137e-04 1.5764943606405950e-04 1.9502255577836961e-04
672 5.5227042884617775e-04 -3.5751946339136542e-04 7.5029431895426066e-04
673 -1.0339145092335733e-05 2.3187559278210296e-04 -9.6408025351456305e-04
674 -1.9829621883994450e-04 -9.6825466283719625e-04 1.6988617654806914e-04
675 4.1333607520763839e-04 7.4496045990182118e-04 5.2412281910154345e-04
676 7.6852004653947070e-05 7.3148059927523876e-04 6.7686079823384105e-04
677 4.6577653447077042e-04 2.1392449516786596e-04 8.5397419434405514e-04
678 -4.9072205966538241e-04 -7.9154305588365276e-04 3.6955721709756574e-04
679 3.0392483156823627e-04 -7.4726989751167135e-05 -9.4258287843012028e-04
680 3.9517750975253654e-04 -6.6601720083005135e-04 6.3225589116486388e-04
681 -8.8167483212421463e-04 1.5523979245436598e-04 4.4674152899535849e-04
682 -9.0306273253569188e-04 4.3247047828150821e-04 1.6563382458707649e-05
683 -7.0914228702757137e-05 1.9699692421513459e-05 9.8775290276380398e-04
684 3.5433626738369230e-04 -9.3688855943975925e-04 -5.3286212822336154e-05
685 4.1352526342361510e-04 8.9271170333162864e-04 -1.8499034654604298e-04
686 1.6713465104494231e-04 -7.9741023642969410e-04 -5.8022399082209336e-04
687 1.8266256869767320e-04 9.7559503648349808e-04 -1.3074908475416096e-04
688 -8.1506435353893869e-04 -4.2298949279419572e-04 -3.9796863442573434e-04
689 -5.4684879318069696e-04 -6.5090190462950125e-04 5.2697476258086601e-04
690 5.8326768515019802e-04 -6.9082597890432116e-04 4.3099862702020917e-04
691 9.6554777665607352e-04 -2.2789927076787928e-04 1.4570993258168201e-04
692 -6.8934186507418958e-04 -5.3388025429029838e-04 4.9071835061503181e-04
693 9.3636251565659332e-04 2.2355611457252077e-04 2.7638710613397922e-04
694 -1.7680115017135986e-04 9.7878410253793204e-04 -1.1702508233201143e-04
695 9.1630590357381881e-04 3.5187342719297126e-04 -1.9978106039506973e-04
696 -4.4028078532690224e-05 6.5580204324657335e-04 7.5240737882699340e-04
697 -3.2841065279953660e-04 -4.7178187368843069e-04 8.1378345088475011e-04
698 9.3879123650247203e-04 3.5281071013887165e-04 1.4883796238021109e-05
699 -4.8582109379698921e-04 -5.3401608496623013e-04 6.9018148155940823e-04
700 -6.5758798745309168e-04 1.9472495828861321e-07 7.4959552390039760e-04
701 5.6808858262642650e-04 -5.5986536608399590e-04 6.0354201072328943e-04
702 -6.9375805323391440e-04 -6.4580422909642416e-04 -3.2335547097548035e-04
703 -7.6490632007256945e-04 3.0121528088348061e-04 -5.6770885485493857e-04
704 5.1001201224502686e-05 3.3691155209959500e-04 -9.3255759027197549e-04
705 3.0877459067991871e-04 6.3422303649058123e-04 -7.0555924797435245e-04
706 -3.1314156035912549e-04 6.9449548241615124e-04 6.4570260375520637e-04
707 1.1544456545145160e-04 -9.3417635931913119e-04 -3.4327141356757279e-04
708 -6.8730340180913848e-04 7.2128697446113539e-04 9.7007503902624408e-05
709 1.0141434471351108e-05 7.4143315870594780e-04 -6.6807507107027669e-04
710 -4.0375710216444013e-04 7.8483772945170415e-04 4.7068072469691279e-04
711 -9.3483766418994967e-04 2.2613920144570816e-04 -2.7639987704165624e-04
712 7.7289339383731072e-04 1.0629776247793576e-04 6.2545917096744547e-04
713 -2.2088407140577162e-04 -7.5163367371270556e-04 -6.2090103292468575e-04
714 6.3109479907559639e-04 3.4412990051628647e-04 -6.9410113918707129e-04
715 -2.1422209998832775e-04 -9.7727251457094548e-04 5.9481144188847150e-05
716 -2.3003534701748735e-04 3.7616224445872167e-05 -9.6358421361084252e-04
717 -4.0579007926827391e-04 -9.1192898783941454e-04 -8.9502524540430037e-05
718 4.8863171889097833e-04 -2.0122059204379612e-04 8.4422959100947850e-04
719 7.3244187113054966e-04 -5.6940469666143061e-04 3.7824052674622315e-04
720 8.4972089631530788e-04 5.0689776548716115e-04 1.5497118153246913e-04
721 2.3516337100250965e-04 -1.5837364239813627e-04 -9.5060108200280399e-04
722 -5.7828315535346248e-04 -7.8415201160974624e-04 -2.3320870515093170e-04
723 3.9314650070490917e-05 7.4967119188752051e-05 -9.8688087473769123e-04
724 -1.8388331901069373e-04 7.1395236749375148e-04 6.7565264639377900e-04
725 8.7996431990984981e-04 -4.6687668566982985e-04 -1.0889793611288711e-04
726 5.6606258683856818e-04 2.1190355872334829e-04 7.9278989289225071e-04
727 7.9346271902362524e-04 5.6430503234892408e-04 2.3539757741633077e-04
728 5.4015422395383588e-04 5.9712009273732956e-04 -5.9191501780276527e-04
729 4.4168863669323967e-04 1.0156656739782623e-04 -8.8503622917306590e-04
730 7.2294388093809925e-04 6.1631471068852894e-04 3.1591153131091176e-04
731 -2.6276218683053394e-04 -6.0993707683680413e-04 -7.4333330848055685e-04
732 3.4083090344899105e-04 6.3035948722687358e-04 6.9521918889706722e-04
733 -7.3826225024661903e-05 9.8108865382499021e-04 -1.8298380117708662e-04
734 -2.3330925843816688e-04 -4.6732181017325464e-04 -8.4740916068029148e-04
735 9.6334498440277987e-04 -2.2812653793771259e-04 -1.5520796944363353e-04
736 9.7546991422951671e-04 -2.2648840316835843e-04 3.5044687639273469e-05
737 -2.1377056524056186e-05 -7.7898204632868693e-05 9.8738720823095608e-04
738 -5.0797865503253090e-04 -8.6243952322584546e-04 4.5788673109979121e-05
739 4.9287909720211278e-04 1.9771494096266126e-04 -8.4241513342340178e-04
740 -7.6297619314431050e-04 1.3588821699148261e-04 6.3042854496578348e-04
741 -1.4027086623648370e-04 3.0789804026702577e-05 9.8037975464724441e-04
742 -5.5225115282004820e-04 -7.1269021323182161e-04 4.3392060812300629e-04
743 -1.5635267871545160e-06 4.2415332636904250e-04 -8.9822723398459204e-04
744 3.0057211675992951e-04 -9.4288773566674410e-04 -1.5868825092281547e-04
745 -8.3457097002862771e-05 -6.7295489482169853e-04 -7.3092446375715820e-04
$EndNodes
$Elements
1486
1 2 2 0 0 410 440 345
2 2 2 0 0 421 541 409
3 2 2 0 0 409 682 421
4 2 2 0 0 545 603 546
5 2 2 0 0 426 427 294
6 2 2 0 0 294 454 426
7 2 2 0 0 265 682 409
8 2 2 0 0 24 41 4
9 2 2 0 0 3 24 4
10 2 2 0 0 238 642 602
11 2 2 0 0 520 651 613
12 2 2 0 0 653 666 659
13 2 2 0 0 404 460 98
14 2 2 0 0 222 482 219
15 2 2 0 0 40 463 9
16 2 2 0 0 608 724 696
17 2 2 0 0 435 709 69
18 2 2 0 0 413 439 29
19 2 2 0 0 345 710 410
20 2 2 0 0 422 463 40
21 2 2 0 0 98 550 404
22 2 2 0 0 95 724 608
23 2 2 0 0 4 41 5
24 2 2 0 0 232 701 581
25 2 2 0 0 490 698 488
26 2 2 0 0 29 436 413
27 2 2 0 0 416 421 342
28 2 2 0 0 312 595 441
29 2 2 0 0 41 486 5
30 2 2 0 0 405 605 519
31 2 2 0 0 409 595 265
32 2 2 0 0 69 481 435
33 2 2 0 0 434 743 339
34 2 2 0 0 342 641 416
35 2 2 0 0 485 656 370
36 2 2 0 0 89 587 90
37 2 2 0 0 108 466 317
38 2 2 0 0 378 629 529
39 2 2 0 0 581 680 232
40 2 2 0 0 281 434 339
41 2 2 0 0 638 739 486
42 2 2 0 0 659 666 660
43 2 2 0 0 345 440 346
44 2 2 0 0 22 44 25
45 2 2 0 0 9 463 8
46 2 2 0 0 44 81 25
47 2 2 0 0 459 587 89
48 2 2 0 0 127 670 630
49 2 2 0 0 508 662 509
50 2 2 0 0 375 662 508
51 2 2 0 0 492 598 103
52 2 2 0 0 604 642 238
53 2 2 0 0 507 510 399
54 2 2 0 0 488 698 489
55 2 2 0 0 34 473 415
56 2 2 0 0 399 639 507
57 2 2 0 0 603 688 546
58 2 2 0 0 316 541 421
59 2 2 0 0 647 696 627
60 2 2 0 0 403 439 352
61 2 2 0 0 221 603 545
62 2 2 0 0 595 648 441
63 2 2 0 0 412 550 98
64 2 2 0 0 411 714 397
65 2 2 0 0 486 739 729
66 2 2 0 0 696 724 401
67 2 2 0 0 247 482 222
68 2 2 0 0 397 714 645
69 2 2 0 0 613 651 212
70 2 2 0 0 207 745 425
71 2 2 0 0 98 675 412
72 2 2 0 0 219 482 230
73 2 2 0 0 560 692 432
74 2 2 0 0 432 689 560
75 2 2 0 0 454 575 426
76 2 2 0 0 352 439 413
77 2 2 0 0 415 420 2
78 2 2 0 0 40 464 422
79 2 2 0 0 89 512 459
80 2 2 0 0 425 614 207
81 2 2 0 0 377 600 453
82 2 2 0 0 89 90 88
83 2 2 0 0 80 466 108
84 2 2 0 0 520 717 651
85 2 2 0 0 602 703 238
86 2 2 0 0 103 687 492
87 2 2 0 0 253 491 424
88 2 2 0 0 69 709 466
89 2 2 0 0 424 512 253
90 2 2 0 0 369 696 647
91 2 2 0 0 581 701 644
92 2 2 0 0 630 670 392
93 2 2 0 0 32 656 485
94 2 2 0 0 459 512 424
95 2 2 0 0 90 91 88
96 2 2 0 0 427 478 294
97 2 2 0 0 488 695 490
98 2 2 0 0 554 699 560
99 2 2 0 0 67 80 79
100 2 2 0 0 252 454 294
101 2 2 0 0 253 628 491
102 2 2 0 0 529 681 378
103 2 2 0 0 519 715 405
104 2 2 0 0 440 441 346
105 2 2 0 0 605 717 519
106 2 2 0 0 403 452 439
107 2 2 0 0 507 639 21
108 2 2 0 0 565 567 566
109 2 2 0 0 433 454 341
110 2 2 0 0 67 466 80
111 2 2 0 0 555 697 576
112 2 2 0 0 491 628 493
113 2 2 0 0 389 641 342
114 2 2 0 0 429 619 474
115 2 2 0 0 40 501 464
116 2 2 0 0 576 699 555
117 2 2 0 0 311 600 377
118 2 2 0 0 567 622 566
119 2 2 0 0 433 575 454
120 2 2 0 0 378 671 629
121 2 2 0 0 79 540 103
122 2 2 0 0 341 473 433
123 2 2 0 0 673 704 68
124 2 2 0 0 462 710 345
125 2 2 0 0 557 722 616
126 2 2 0 0 573 662 343
127 2 2 0 0 370 656 463
128 2 2 0 0 341 454 252
129 2 2 0 0 616 702 557
130 2 2 0 0 6 26 7
131 2 2 0 0 464 501 467
132 2 2 0 0 433 473 406
133 2 2 0 0 8 45 37
134 2 2 0 0 466 709 317
135 2 2 0 0 457 461 379
136 2 2 0 0 84 512 86
137 2 2 0 0 19 452 33
138 2 2 0 0 380 614 425
139 2 2 0 0 83 540 79
140 2 2 0 0 398 510 509
141 2 2 0 0 609 631 137
142 2 2 0 0 18 442 36
143 2 2 0 0 26 45 7
144 2 2 0 0 565 566 343
145 2 2 0 0 80 83 79
146 2 2 0 0 560 689 554
147 2 2 0 0 134 137 136
148 2 2 0 0 68 469 42
149 2 2 0 0 659 716 653
150 2 2 0 0 619 707 474
151 2 2 0 0 497 610 39
152 2 2 0 0 137 138 136
153 2 2 0 0 283 573 343
154 2 2 0 0 506 644 448
155 2 2 0 0 499 735 31
156 2 2 0 0 81 97 25
157 2 2 0 0 45 46 37
158 2 2 0 0 585 668 637
159 2 2 0 0 495 735 499
160 2 2 0 0 399 510 398
161 2 2 0 0 509 573 398
162 2 2 0 0 442 443 36
163 2 2 0 0 1 607 314
164 2 2 0 0 29 612 436
165 2 2 0 0 547 631 609
166 2 2 0 0 360 595 409
167 2 2 0 0 421 682 342
168 2 2 0 0 426 575 327
169 2 2 0 0 123 577 235
170 2 2 0 0 339 743 417
171 2 2 0 0 7 45 8
172 2 2 0 0 3 723 24
173 2 2 0 0 418 666 653
174 2 2 0 0 59 60 58
175 2 2 0 0 620 636 193
176 2 2 0 0 42 469 47
177 2 2 0 0 65 67 66
178 2 2 0 0 509 662 573
179 2 2 0 0 470 482 247
180 2 2 0 0 368 476 472
181 2 2 0 0 530 740 337
182 2 2 0 0 253 512 84
183 2 2 0 0 455 698 282
184 2 2 0 0 61 65 62
185 2 2 0 0 59 61 60
186 2 2 0 0 91 472 88
187 2 2 0 0 90 92 91
188 2 2 0 0 19 442 18
189 2 2 0 0 464 465 423
190 2 2 0 0 706 724 118
191 2 2 0 0 456 611 32
192 2 2 0 0 379 477 61
193 2 2 0 0 417 743 704
194 2 2 0 0 314 683 1
195 2 2 0 0 442 458 443
196 2 2 0 0 11 28 12
197 2 2 0 0 61 62 60
198 2 2 0 0 118 724 95
199 2 2 0 0 22 25 23
200 2 2 0 0 247 483 470
201 2 2 0 0 281 640 434
202 2 2 0 0 197 667 474
203 2 2 0 0 86 512 89
204 2 2 0 0 417 704 673
205 2 2 0 0 451 690 230
206 2 2 0 0 27 442 19
207 2 2 0 0 637 668 229
208 2 2 0 0 60 475 58
209 2 2 0 0 489 610 497
210 2 2 0 0 307 573 283
211 2 2 0 0 61 477 65
212 2 2 0 0 65 66 62
213 2 2 0 0 544 740 530
214 2 2 0 0 230 719 451
215 2 2 0 0 18 452 19
216 2 2 0 0 268 569 269
217 2 2 0 0 32 485 456
218 2 2 0 0 627 696 401
219 2 2 0 0 24 42 41
220 2 2 0 0 20 27 19
221 2 2 0 0 330 461 457
222 2 2 0 0 506 672 644
223 2 2 0 0 472 476 87
224 2 2 0 0 468 495 494
225 2 2 0 0 88 472 87
226 2 2 0 0 121 577 123
227 2 2 0 0 327 575 276
228 2 2 0 0 422 464 423
229 2 2 0 0 47 63 49
230 2 2 0 0 458 506 443
231 2 2 0 0 232 690 451
232 2 2 0 0 28 487 12
233 2 2 0 0 80 107 83
234 2 2 0 0 608 696 676
235 2 2 0 0 356 481 355
236 2 2 0 0 138 238 136
237 2 2 0 0 137 139 138
238 2 2 0 0 729 739 26
239 2 2 0 0 81 99 97
240 2 2 0 0 46 50 37
241 2 2 0 0 463 656 8
242 2 2 0 0 443 444 36
243 2 2 0 0 68 704 469
244 2 2 0 0 24 68 42
245 2 2 0 0 16 503 30
246 2 2 0 0 65 69 67
247 2 2 0 0 67 79 66
248 2 2 0 0 676 696 369
249 2 2 0 0 59 379 61
250 2 2 0 0 90 93 92
251 2 2 0 0 464 467 465
252 2 2 0 0 441 708 312
253 2 2 0 0 483 484 471
254 2 2 0 0 427 479 478
255 2 2 0 0 245 564 244
256 2 2 0 0 470 483 471
257 2 2 0 0 473 721 406
258 2 2 0 0 555 699 554
259 2 2 0 0 47 469 63
260 2 2 0 0 63 355 49
261 2 2 0 0 62 64 60
262 2 2 0 0 80 108 107
263 2 2 0 0 107 539 83
264 2 2 0 0 139 140 138
265 2 2 0 0 99 100 97
266 2 2 0 0 81 236 99
267 2 2 0 0 46 51 50
268 2 2 0 0 443 445 444
269 2 2 0 0 24 419 68
270 2 2 0 0 69 466 67
271 2 2 0 0 79 103 66
272 2 2 0 0 65 477 69
273 2 2 0 0 547 548 321
274 2 2 0 0 93 94 92
275 2 2 0 0 467 468 465
276 2 2 0 0 333 664 649
277 2 2 0 0 55 498 56
278 2 2 0 0 56 498 72
279 2 2 0 0 12 499 31
280 2 2 0 0 63 356 355
281 2 2 0 0 108 110 107
282 2 2 0 0 139 141 140
283 2 2 0 0 100 101 97
284 2 2 0 0 236 248 99
285 2 2 0 0 81 594 236
286 2 2 0 0 51 52 50
287 2 2 0 0 192 515 195
288 2 2 0 0 445 446 444
289 2 2 0 0 477 481 69
290 2 2 0 0 94 95 92
291 2 2 0 0 93 96 94
292 2 2 0 0 63 408 356
293 2 2 0 0 108 111 110
294 2 2 0 0 110 117 107
295 2 2 0 0 139 154 141
296 2 2 0 0 141 142 140
297 2 2 0 0 51 53 52
298 2 2 0 0 100 102 101
299 2 2 0 0 236 250 248
300 2 2 0 0 445 447 446
301 2 2 0 0 52 388 50
302 2 2 0 0 277 622 567
303 2 2 0 0 95 608 92
304 2 2 0 0 94 118 95
305 2 2 0 0 93 104 96
306 2 2 0 0 51 561 53
307 2 2 0 0 408 434 356
308 2 2 0 0 53 54 52
309 2 2 0 0 445 448 447
310 2 2 0 0 108 317 111
311 2 2 0 0 141 143 142
312 2 2 0 0 142 225 140
313 2 2 0 0 102 166 101
314 2 2 0 0 250 325 248
315 2 2 0 0 100 258 102
316 2 2 0 0 53 55 54
317 2 2 0 0 447 449 446
318 2 2 0 0 236 505 250
319 2 2 0 0 104 105 96
320 2 2 0 0 53 57 55
321 2 2 0 0 55 56 54
322 2 2 0 0 448 451 447
323 2 2 0 0 14 39 15
324 2 2 0 0 317 511 111
325 2 2 0 0 10 40 9
326 2 2 0 0 143 144 142
327 2 2 0 0 57 58 55
328 2 2 0 0 8 37 9
329 2 2 0 0 14 38 13
330 2 2 0 0 166 314 101
331 2 2 0 0 18 36 17
332 2 2 0 0 16 29 17
333 2 2 0 0 33 504 20
334 2 2 0 0 325 365 248
335 2 2 0 0 199 202 196
336 2 2 0 0 7 32 6
337 2 2 0 0 434 435 356
338 2 2 0 0 74 75 73
339 2 2 0 0 223 239 234
340 2 2 0 0 74 76 75
341 2 2 0 0 72 74 73
342 2 2 0 0 231 549 201
343 2 2 0 0 202 205 204
344 2 2 0 0 226 227 214
345 2 2 0 0 272 275 271
346 2 2 0 0 276 318 275
347 2 2 0 0 213 214 209
348 2 2 0 0 76 77 75
349 2 2 0 0 210 231 201
350 2 2 0 0 16 30 15
351 2 2 0 0 205 209 208
352 2 2 0 0 202 204 196
353 2 2 0 0 318 406 340
354 2 2 0 0 195 196 193
355 2 2 0 0 322 420 415
356 2 2 0 0 239 240 234
357 2 2 0 0 163 588 168
358 2 2 0 0 12 31 11
359 2 2 0 0 56 72 71
360 2 2 0 0 425 426 327
361 2 2 0 0 19 33 20
362 2 2 0 0 168 224 215
363 2 2 0 0 209 568 216
364 2 2 0 0 318 433 406
365 2 2 0 0 269 271 270
366 2 2 0 0 268 269 245
367 2 2 0 0 21 639 20
368 2 2 0 0 84 85 82
369 2 2 0 0 181 207 183
370 2 2 0 0 269 272 271
371 2 2 0 0 272 276 275
372 2 2 0 0 242 243 240
373 2 2 0 0 102 167 166
374 2 2 0 0 223 234 233
375 2 2 0 0 283 343 227
376 2 2 0 0 205 208 204
377 2 2 0 0 213 226 214
378 2 2 0 0 271 572 347
379 2 2 0 0 243 268 245
380 2 2 0 0 335 398 307
381 2 2 0 0 303 555 554
382 2 2 0 0 226 283 227
383 2 2 0 0 347 485 370
384 2 2 0 0 195 199 196
385 2 2 0 0 205 213 209
386 2 2 0 0 246 322 252
387 2 2 0 0 76 78 77
388 2 2 0 0 133 163 135
389 2 2 0 0 163 168 164
390 2 2 0 0 322 415 341
391 2 2 0 0 227 361 214
392 2 2 0 0 191 198 189
393 2 2 0 0 78 84 82
394 2 2 0 0 209 216 208
395 2 2 0 0 78 82 77
396 2 2 0 0 216 303 266
397 2 2 0 0 417 418 362
398 2 2 0 0 314 607 101
399 2 2 0 0 339 362 280
400 2 2 0 0 243 245 244
401 2 2 0 0 187 291 185
402 2 2 0 0 429 430 359
403 2 2 0 0 143 145 144
404 2 2 0 0 202 553 205
405 2 2 0 0 339 417 362
406 2 2 0 0 131 580 133
407 2 2 0 0 239 242 240
408 2 2 0 0 57 59 58
409 2 2 0 0 224 246 215
410 2 2 0 0 84 86 85
411 2 2 0 0 303 554 266
412 2 2 0 0 72 73 71
413 2 2 0 0 437 438 414
414 2 2 0 0 318 340 275
415 2 2 0 0 269 270 245
416 2 2 0 0 86 87 85
417 2 2 0 0 192 193 191
418 2 2 0 0 123 235 129
419 2 2 0 0 263 374 262
420 2 2 0 0 425 427 426
421 2 2 0 0 149 150 147
422 2 2 0 0 210 232 231
423 2 2 0 0 74 373 76
424 2 2 0 0 168 215 169
425 2 2 0 0 259 262 249
426 2 2 0 0 145 146 144
427 2 2 0 0 367 524 289
428 2 2 0 0 271 347 270
429 2 2 0 0 406 407 340
430 2 2 0 0 334 459 424
431 2 2 0 0 429 474 430
432 2 2 0 0 250 328 325
433 2 2 0 0 431 432 367
434 2 2 0 0 104 278 105
435 2 2 0 0 145 147 146
436 2 2 0 0 151 152 150
437 2 2 0 0 235 583 129
438 2 2 0 0 237 249 228
439 2 2 0 0 149 151 150
440 2 2 0 0 159 161 158
441 2 2 0 0 153 155 152
442 2 2 0 0 156 158 155
443 2 2 0 0 354 367 289
444 2 2 0 0 259 263 262
445 2 2 0 0 190 191 189
446 2 2 0 0 177 221 174
447 2 2 0 0 162 228 161
448 2 2 0 0 124 516 386
449 2 2 0 0 418 653 578
450 2 2 0 0 371 584 295
451 2 2 0 0 151 153 152
452 2 2 0 0 153 156 155
453 2 2 0 0 159 162 161
454 2 2 0 0 374 593 262
455 2 2 0 0 156 159 158
456 2 2 0 0 237 259 249
457 2 2 0 0 146 284 160
458 2 2 0 0 266 309 267
459 2 2 0 0 264 265 257
460 2 2 0 0 86 88 87
461 2 2 0 0 265 312 257
462 2 2 0 0 162 237 228
463 2 2 0 0 21 44 22
464 2 2 0 0 324 392 390
465 2 2 0 0 371 585 584
466 2 2 0 0 262 366 249
467 2 2 0 0 192 195 193
468 2 2 0 0 263 375 374
469 2 2 0 0 216 266 217
470 2 2 0 0 326 327 276
471 2 2 0 0 260 646 166
472 2 2 0 0 220 223 222
473 2 2 0 0 322 341 252
474 2 2 0 0 256 257 255
475 2 2 0 0 78 253 84
476 2 2 0 0 358 359 242
477 2 2 0 0 188 189 187
478 2 2 0 0 281 339 280
479 2 2 0 0 146 160 144
480 2 2 0 0 123 129 128
481 2 2 0 0 255 324 254
482 2 2 0 0 228 229 161
483 2 2 0 0 354 431 367
484 2 2 0 0 163 164 135
485 2 2 0 0 155 157 152
486 2 2 0 0 243 244 240
487 2 2 0 0 256 264 257
488 2 2 0 0 284 316 160
489 2 2 0 0 380 425 327
490 2 2 0 0 148 149 147
491 2 2 0 0 335 399 398
492 2 2 0 0 418 578 362
493 2 2 0 0 334 424 396
494 2 2 0 0 167 260 166
495 2 2 0 0 325 368 365
496 2 2 0 0 428 429 359
497 2 2 0 0 165 255 254
498 2 2 0 0 297 342 264
499 2 2 0 0 298 371 295
500 2 2 0 0 218 323 220
501 2 2 0 0 310 337 302
502 2 2 0 0 165 256 255
503 2 2 0 0 186 187 185
504 2 2 0 0 56 71 70
505 2 2 0 0 165 254 125
506 2 2 0 0 200 201 199
507 2 2 0 0 148 206 149
508 2 2 0 0 324 390 364
509 2 2 0 0 190 192 191
510 2 2 0 0 368 369 365
511 2 2 0 0 353 404 351
512 2 2 0 0 104 331 278
513 2 2 0 0 256 297 264
514 2 2 0 0 316 421 416
515 2 2 0 0 239 358 242
516 2 2 0 0 169 586 171
517 2 2 0 0 286 287 206
518 2 2 0 0 324 364 254
519 2 2 0 0 241 576 162
520 2 2 0 0 168 169 164
521 2 2 0 0 121 123 122
522 2 2 0 0 266 267 217
523 2 2 0 0 129 131 130
524 2 2 0 0 216 217 208
525 2 2 0 0 285 382 313
526 2 2 0 0 172 321 170
527 2 2 0 0 390 391 364
528 2 2 0 0 296 563 300
529 2 2 0 0 246 252 251
530 2 2 0 0 285 286 206
531 2 2 0 0 288 289 287
532 2 2 0 0 298 372 371
533 2 2 0 0 23 35 22
534 2 2 0 0 300 344 304
535 2 2 0 0 344 462 345
536 2 2 0 0 123 128 122
537 2 2 0 0 297 389 342
538 2 2 0 0 237 277 259
539 2 2 0 0 148 285 206
540 2 2 0 0 86 89 88
541 2 2 0 0 306 307 283
542 2 2 0 0 234 279 233
543 2 2 0 0 316 416 160
544 2 2 0 0 188 190 189
545 2 2 0 0 85 98 82
546 2 2 0 0 358 428 359
547 2 2 0 0 437 455 438
548 2 2 0 0 203 210 201
549 2 2 0 0 382 383 313
550 2 2 0 0 153 176 156
551 2 2 0 0 290 354 289
552 2 2 0 0 159 241 162
553 2 2 0 0 386 387 126
554 2 2 0 0 273 363 338
555 2 2 0 0 272 326 276
556 2 2 0 0 171 293 173
557 2 2 0 0 145 148 147
558 2 2 0 0 274 295 261
559 2 2 0 0 285 313 286
560 2 2 0 0 383 384 313
561 2 2 0 0 301 302 299
562 2 2 0 0 131 133 132
563 2 2 0 0 296 298 295
564 2 2 0 0 305 310 302
565 2 2 0 0 349 412 328
566 2 2 0 0 344 345 304
567 2 2 0 0 77 119 75
568 2 2 0 0 315 378 310
569 2 2 0 0 363 401 400
570 2 2 0 0 332 333 278
571 2 2 0 0 223 233 222
572 2 2 0 0 331 334 332
573 2 2 0 0 186 188 187
574 2 2 0 0 178 212 177
575 2 2 0 0 305 360 315
576 2 2 0 0 334 396 395
577 2 2 0 0 246 251 215
578 2 2 0 0 167 261 260
579 2 2 0 0 175 179 178
580 2 2 0 0 345 346 304
581 2 2 0 0 124 386 126
582 2 2 0 0 286 288 287
583 2 2 0 0 331 332 278
584 2 2 0 0 179 181 180
585 2 2 0 0 301 305 302
586 2 2 0 0 300 304 301
587 2 2 0 0 296 300 299
588 2 2 0 0 305 315 310
589 2 2 0 0 296 299 298
590 2 2 0 0 320 453 290
591 2 2 0 0 274 296 295
592 2 2 0 0 313 531 286
593 2 2 0 0 120 281 280
594 2 2 0 0 360 409 315
595 2 2 0 0 363 400 338
596 2 2 0 0 129 130 128
597 2 2 0 0 300 301 299
598 2 2 0 0 1 508 23
599 2 2 0 0 167 273 261
600 2 2 0 0 133 135 134
601 2 2 0 0 173 174 172
602 2 2 0 0 311 377 376
603 2 2 0 0 273 274 261
604 2 2 0 0 273 338 274
605 2 2 0 0 334 395 332
606 2 2 0 0 183 197 184
607 2 2 0 0 319 393 320
608 2 2 0 0 449 450 446
609 2 2 0 0 288 290 289
610 2 2 0 0 226 306 283
611 2 2 0 0 326 380 327
612 2 2 0 0 175 177 174
613 2 2 0 0 181 183 182
614 2 2 0 0 219 230 211
615 2 2 0 0 308 335 307
616 2 2 0 0 267 311 292
617 2 2 0 0 169 170 164
618 2 2 0 0 288 319 290
619 2 2 0 0 126 165 125
620 2 2 0 0 120 280 121
621 2 2 0 0 130 357 128
622 2 2 0 0 195 200 199
623 2 2 0 0 169 171 170
624 2 2 0 0 171 172 170
625 2 2 0 0 184 186 185
626 2 2 0 0 73 282 71
627 2 2 0 0 252 294 251
628 2 2 0 0 319 320 290
629 2 2 0 0 131 132 130
630 2 2 0 0 393 394 320
631 2 2 0 0 171 173 172
632 2 2 0 0 4 34 3
633 2 2 0 0 218 220 219
634 2 2 0 0 267 292 217
635 2 2 0 0 184 185 182
636 2 2 0 0 188 194 190
637 2 2 0 0 56 70 54
638 2 2 0 0 377 405 376
639 2 2 0 0 449 470 450
640 2 2 0 0 179 180 178
641 2 2 0 0 173 175 174
642 2 2 0 0 175 178 177
643 2 2 0 0 250 329 328
644 2 2 0 0 311 376 292
645 2 2 0 0 329 571 350
646 2 2 0 0 347 370 348
647 2 2 0 0 220 222 219
648 2 2 0 0 376 385 292
649 2 2 0 0 133 134 132
650 2 2 0 0 134 136 132
651 2 2 0 0 306 308 307
652 2 2 0 0 200 203 201
653 2 2 0 0 233 247 222
654 2 2 0 0 98 460 82
655 2 2 0 0 329 349 328
656 2 2 0 0 326 381 380
657 2 2 0 0 347 348 270
658 2 2 0 0 181 182 180
659 2 2 0 0 121 122 115
660 2 2 0 0 350 351 349
661 2 2 0 0 308 336 335
662 2 2 0 0 350 403 352
663 2 2 0 0 470 471 450
664 2 2 0 0 203 211 210
665 2 2 0 0 218 219 211
666 2 2 0 0 183 184 182
667 2 2 0 0 370 463 422
668 2 2 0 0 306 402 308
669 2 2 0 0 203 218 211
670 2 2 0 0 71 490 70
671 2 2 0 0 329 350 349
672 2 2 0 0 436 437 414
673 2 2 0 0 124 126 125
674 2 2 0 0 413 414 353
675 2 2 0 0 422 423 348
676 2 2 0 0 352 353 351
677 2 2 0 0 370 422 348
678 2 2 0 0 350 352 351
679 2 2 0 0 413 436 414
680 2 2 0 0 352 413 353
681 2 2 0 0 120 121 115
682 2 2 0 0 110 480 117
683 2 2 0 0 124 125 116
684 2 2 0 0 126 521 165
685 2 2 0 0 113 120 115
686 2 2 0 0 127 440 410
687 2 2 0 0 114 124 116
688 2 2 0 0 543 544 530
689 2 2 0 0 488 489 487
690 2 2 0 0 585 637 366
691 2 2 0 0 543 570 544
692 2 2 0 0 113 115 114
693 2 2 0 0 127 410 106
694 2 2 0 0 114 116 112
695 2 2 0 0 195 515 200
696 2 2 0 0 491 493 492
697 2 2 0 0 12 487 13
698 2 2 0 0 546 547 321
699 2 2 0 0 330 457 411
700 2 2 0 0 157 543 530
701 2 2 0 0 519 520 291
702 2 2 0 0 28 488 487
703 2 2 0 0 111 112 110
704 2 2 0 0 312 534 257
705 2 2 0 0 476 732 412
706 2 2 0 0 27 458 442
707 2 2 0 0 385 636 620
708 2 2 0 0 176 559 156
709 2 2 0 0 593 634 366
710 2 2 0 0 589 590 224
711 2 2 0 0 113 114 112
712 2 2 0 0 109 127 106
713 2 2 0 0 270 564 245
714 2 2 0 0 443 506 445
715 2 2 0 0 491 492 396
716 2 2 0 0 388 624 502
717 2 2 0 0 445 506 448
718 2 2 0 0 30 500 15
719 2 2 0 0 20 504 21
720 2 2 0 0 64 475 60
721 2 2 0 0 287 542 206
722 2 2 0 0 23 508 35
723 2 2 0 0 302 558 299
724 2 2 0 0 70 551 54
725 2 2 0 0 62 598 64
726 2 2 0 0 424 491 396
727 2 2 0 0 407 456 340
728 2 2 0 0 545 546 321
729 2 2 0 0 330 411 397
730 2 2 0 0 72 536 74
731 2 2 0 0 238 574 136
732 2 2 0 0 659 660 420
733 2 2 0 0 395 538 332
734 2 2 0 0 143 527 145
735 2 2 0 0 412 675 476
736 2 2 0 0 239 513 358
737 2 2 0 0 157 530 529
738 2 2 0 0 518 519 291
739 2 2 0 0 449 482 470
740 2 2 0 0 207 713 479
741 2 2 0 0 119 523 75
742 2 2 0 0 109 670 127
743 2 2 0 0 10 501 40
744 2 2 0 0 508 509 35
745 2 2 0 0 96 606 94
746 2 2 0 0 331 459 334
747 2 2 0 0 286 531 288
748 2 2 0 0 290 453 354
749 2 2 0 0 282 490 71
750 2 2 0 0 384 531 313
751 2 2 0 0 289 524 287
752 2 2 0 0 349 550 412
753 2 2 0 0 165 521 256
754 2 2 0 0 82 460 77
755 2 2 0 0 155 543 157
756 2 2 0 0 201 549 199
757 2 2 0 0 273 591 363
758 2 2 0 0 387 521 126
759 2 2 0 0 114 516 124
760 2 2 0 0 53 561 57
761 2 2 0 0 266 554 309
762 2 2 0 0 257 534 255
763 2 2 0 0 205 553 213
764 2 2 0 0 142 522 225
765 2 2 0 0 435 481 356
766 2 2 0 0 216 568 303
767 2 2 0 0 300 563 344
768 2 2 0 0 214 568 209
769 2 2 0 0 112 480 110
770 2 2 0 0 350 571 403
771 2 2 0 0 347 572 485
772 2 2 0 0 275 572 271
773 2 2 0 0 274 563 296
774 2 2 0 0 171 586 293
775 2 2 0 0 162 576 237
776 2 2 0 0 133 580 163
777 2 2 0 0 11 501 10
778 2 2 0 0 295 584 261
779 2 2 0 0 129 583 131
780 2 2 0 0 215 586 169
781 2 2 0 0 250 505 329
782 2 2 0 0 168 588 224
783 2 2 0 0 321 548 170
784 2 2 0 0 262 593 366
785 2 2 0 0 166 646 314
786 2 2 0 0 520 535 291
787 2 2 0 0 373 663 493
788 2 2 0 0 291 535 185
789 2 2 0 0 101 607 97
790 2 2 0 0 130 574 357
791 2 2 0 0 158 570 543
792 2 2 0 0 31 501 11
793 2 2 0 0 444 552 503
794 2 2 0 0 156 559 159
795 2 2 0 0 236 594 505
796 2 2 0 0 206 542 149
797 2 2 0 0 54 551 52
798 2 2 0 0 74 536 373
799 2 2 0 0 337 558 302
800 2 2 0 0 150 532 147
801 2 2 0 0 379 728 457
802 2 2 0 0 299 558 298
803 2 2 0 0 332 538 333
804 2 2 0 0 145 527 148
805 2 2 0 0 514 515 192
806 2 2 0 0 15 500 14
807 2 2 0 0 75 523 73
808 2 2 0 0 467 501 31
809 2 2 0 0 254 592 125
810 2 2 0 0 172 545 321
811 2 2 0 0 144 522 142
812 2 2 0 0 528 532 150
813 2 2 0 0 187 518 291
814 2 2 0 0 553 599 213
815 2 2 0 0 383 603 384
816 2 2 0 0 282 698 490
817 2 2 0 0 244 517 240
818 2 2 0 0 353 525 404
819 2 2 0 0 395 540 538
820 2 2 0 0 94 606 118
821 2 2 0 0 117 539 107
822 2 2 0 0 185 535 182
823 2 2 0 0 388 502 50
824 2 2 0 0 167 591 273
825 2 2 0 0 147 532 146
826 2 2 0 0 92 608 91
827 2 2 0 0 472 676 368
828 2 2 0 0 364 592 254
829 2 2 0 0 21 504 44
830 2 2 0 0 365 597 248
831 2 2 0 0 125 592 116
832 2 2 0 0 588 589 224
833 2 2 0 0 111 113 112
834 2 2 0 0 63 469 408
835 2 2 0 0 105 109 106
836 2 2 0 0 242 526 243
837 2 2 0 0 439 712 29
838 2 2 0 0 240 517 234
839 2 2 0 0 346 533 304
840 2 2 0 0 14 500 38
841 2 2 0 0 494 495 484
842 2 2 0 0 127 630 440
843 2 2 0 0 208 537 204
844 2 2 0 0 175 562 179
845 2 2 0 0 303 626 555
846 2 2 0 0 359 526 242
847 2 2 0 0 243 526 268
848 2 2 0 0 217 537 208
849 2 2 0 0 58 498 55
850 2 2 0 0 503 552 30
851 2 2 0 0 13 499 12
852 2 2 0 0 268 621 569
853 2 2 0 0 489 497 487
854 2 2 0 0 475 498 58
855 2 2 0 0 430 526 359
856 2 2 0 0 248 597 99
857 2 2 0 0 292 537 217
858 2 2 0 0 26 645 45
859 2 2 0 0 234 517 279
860 2 2 0 0 14 497 39
861 2 2 0 0 385 537 292
862 2 2 0 0 305 533 360
863 2 2 0 0 304 533 301
864 2 2 0 0 146 532 284
865 2 2 0 0 483 494 484
866 2 2 0 0 173 562 175
867 2 2 0 0 116 480 112
868 2 2 0 0 224 590 246
869 2 2 0 0 189 518 187
870 2 2 0 0 498 536 72
871 2 2 0 0 414 525 353
872 2 2 0 0 160 522 144
873 2 2 0 0 547 609 548
874 2 2 0 0 182 535 180
875 2 2 0 0 297 601 389
876 2 2 0 0 44 594 81
877 2 2 0 0 301 533 305
878 2 2 0 0 105 106 96
879 2 2 0 0 515 596 200
880 2 2 0 0 293 562 173
881 2 2 0 0 73 523 282
882 2 2 0 0 148 527 285
883 2 2 0 0 174 545 172
884 2 2 0 0 218 596 323
885 2 2 0 0 200 596 203
886 2 2 0 0 149 542 151
887 2 2 0 0 446 552 444
888 2 2 0 0 49 461 330
889 2 2 0 0 330 397 48
890 2 2 0 0 453 738 377
891 2 2 0 0 255 534 324
892 2 2 0 0 52 551 388
893 2 2 0 0 634 646 260
894 2 2 0 0 513 615 358
895 2 2 0 0 438 525 414
896 2 2 0 0 516 618 386
897 2 2 0 0 198 518 189
898 2 2 0 0 227 566 361
899 2 2 0 0 559 560 241
900 2 2 0 0 90 587 93
901 2 2 0 0 416 522 160
902 2 2 0 0 102 591 167
903 2 2 0 0 134 609 137
904 2 2 0 0 298 558 372
905 2 2 0 0 132 574 130
906 2 2 0 0 106 606 96
907 2 2 0 0 159 559 241
908 2 2 0 0 32 611 6
909 2 2 0 0 158 543 155
910 2 2 0 0 223 513 239
911 2 2 0 0 288 531 319
912 2 2 0 0 323 513 220
913 2 2 0 0 115 516 114
914 2 2 0 0 521 601 297
915 2 2 0 0 610 698 455
916 2 2 0 0 354 600 431
917 2 2 0 0 351 550 349
918 2 2 0 0 256 521 297
919 2 2 0 0 140 604 138
920 2 2 0 0 77 460 119
921 2 2 0 0 17 503 16
922 2 2 0 0 9 502 10
923 2 2 0 0 104 587 331
924 2 2 0 0 152 528 150
925 2 2 0 0 315 541 378
926 2 2 0 0 170 548 164
927 2 2 0 0 590 659 420
928 2 2 0 0 11 624 28
929 2 2 0 0 199 549 202
930 2 2 0 0 502 624 10
931 2 2 0 0 453 600 354
932 2 2 0 0 42 43 41
933 2 2 0 0 38 499 13
934 2 2 0 0 285 527 382
935 2 2 0 0 190 514 192
936 2 2 0 0 157 529 528
937 2 2 0 0 231 643 549
938 2 2 0 0 331 587 459
939 2 2 0 0 451 701 232
940 2 2 0 0 99 597 100
941 2 2 0 0 361 568 214
942 2 2 0 0 372 740 544
943 2 2 0 0 221 545 174
944 2 2 0 0 138 604 238
945 2 2 0 0 340 572 275
946 2 2 0 0 338 563 274
947 2 2 0 0 524 542 287
948 2 2 0 0 265 595 312
949 2 2 0 0 111 511 113
950 2 2 0 0 580 658 588
951 2 2 0 0 580 588 163
952 2 2 0 0 237 576 277
953 2 2 0 0 444 503 36
954 2 2 0 0 131 583 580
955 2 2 0 0 505 571 329
956 2 2 0 0 203 596 218
957 2 2 0 0 584 634 260
958 2 2 0 0 261 584 260
959 2 2 0 0 369 647 365
960 2 2 0 0 251 586 215
961 2 2 0 0 348 564 270
962 2 2 0 0 450 552 446
963 2 2 0 0 390 496 391
964 2 2 0 0 66 598 62
965 2 2 0 0 465 623 423
966 2 2 0 0 258 591 102
967 2 2 0 0 343 566 227
968 2 2 0 0 564 623 244
969 2 2 0 0 154 617 141
970 2 2 0 0 324 534 392
971 2 2 0 0 50 502 37
972 2 2 0 0 524 556 542
973 2 2 0 0 544 700 372
974 2 2 0 0 122 516 115
975 2 2 0 0 177 557 221
976 2 2 0 0 489 698 610
977 2 2 0 0 93 587 104
978 2 2 0 0 136 574 132
979 2 2 0 0 593 646 634
980 2 2 0 0 116 592 480
981 2 2 0 0 143 617 527
982 2 2 0 0 225 604 140
983 2 2 0 0 137 631 139
984 2 2 0 0 549 553 202
985 2 2 0 0 164 548 135
986 2 2 0 0 404 550 351
987 2 2 0 0 34 721 473
988 2 2 0 0 220 513 223
989 2 2 0 0 317 640 511
990 2 2 0 0 100 597 258
991 2 2 0 0 588 658 589
992 2 2 0 0 323 615 513
993 2 2 0 0 568 626 303
994 2 2 0 0 377 605 405
995 2 2 0 0 178 613 212
996 2 2 0 0 493 628 373
997 2 2 0 0 157 528 152
998 2 2 0 0 591 627 363
999 2 2 0 0 409 541 315
1000 2 2 0 0 183 614 197
1001 2 2 0 0 103 598 66
1002 2 2 0 0 188 619 194
1003 2 2 0 0 213 599 226
1004 2 2 0 0 306 599 402
1005 2 2 0 0 97 607 25
1006 2 2 0 0 194 514 190
1007 2 2 0 0 373 628 76
1008 2 2 0 0 78 628 253
1009 2 2 0 0 42 47 43
1010 2 2 0 0 39 612 15
1011 2 2 0 0 16 612 29
1012 2 2 0 0 437 610 455
1013 2 2 0 0 487 497 13
1014 2 2 0 0 440 630 441
1015 2 2 0 0 479 713 562
1016 2 2 0 0 196 620 193
1017 2 2 0 0 456 572 340
1018 2 2 0 0 120 511 281
1019 2 2 0 0 577 578 235
1020 2 2 0 0 335 582 399
1021 2 2 0 0 314 741 683
1022 2 2 0 0 520 613 535
1023 2 2 0 0 585 634 584
1024 2 2 0 0 423 564 348
1025 2 2 0 0 457 561 411
1026 2 2 0 0 6 611 5
1027 2 2 0 0 385 620 537
1028 2 2 0 0 228 637 229
1029 2 2 0 0 366 637 249
1030 2 2 0 0 161 570 158
1031 2 2 0 0 434 640 435
1032 2 2 0 0 193 636 191
1033 2 2 0 0 410 606 106
1034 2 2 0 0 37 502 9
1035 2 2 0 0 36 503 17
1036 2 2 0 0 141 617 143
1037 2 2 0 0 363 627 401
1038 2 2 0 0 322 590 420
1039 2 2 0 0 357 618 128
1040 2 2 0 0 430 621 526
1041 2 2 0 0 540 687 103
1042 2 2 0 0 280 577 121
1043 2 2 0 0 276 575 318
1044 2 2 0 0 362 578 577
1045 2 2 0 0 109 649 496
1046 2 2 0 0 246 590 322
1047 2 2 0 0 326 569 381
1048 2 2 0 0 569 621 381
1049 2 2 0 0 269 569 272
1050 2 2 0 0 139 631 154
1051 2 2 0 0 649 664 496
1052 2 2 0 0 537 620 204
1053 2 2 0 0 355 461 49
1054 2 2 0 0 663 685 493
1055 2 2 0 0 479 745 207
1056 2 2 0 0 343 662 565
1057 2 2 0 0 212 557 177
1058 2 2 0 0 45 645 46
1059 2 2 0 0 496 670 109
1060 2 2 0 0 366 634 585
1061 2 2 0 0 384 616 531
1062 2 2 0 0 535 613 180
1063 2 2 0 0 391 632 364
1064 2 2 0 0 308 581 336
1065 2 2 0 0 344 625 462
1066 2 2 0 0 563 625 344
1067 2 2 0 0 13 497 14
1068 2 2 0 0 480 632 117
1069 2 2 0 0 371 668 585
1070 2 2 0 0 333 649 278
1071 2 2 0 0 387 601 521
1072 2 2 0 0 47 49 48
1073 2 2 0 0 358 615 428
1074 2 2 0 0 113 511 120
1075 2 2 0 0 527 617 382
1076 2 2 0 0 105 649 109
1077 2 2 0 0 398 573 307
1078 2 2 0 0 368 676 369
1079 2 2 0 0 180 613 178
1080 2 2 0 0 153 556 176
1081 2 2 0 0 432 657 367
1082 2 2 0 0 458 718 582
1083 2 2 0 0 207 614 183
1084 2 2 0 0 407 611 456
1085 2 2 0 0 244 623 517
1086 2 2 0 0 20 639 27
1087 2 2 0 0 476 675 87
1088 2 2 0 0 319 616 393
1089 2 2 0 0 474 707 197
1090 2 2 0 0 226 599 306
1091 2 2 0 0 47 48 43
1092 2 2 0 0 186 619 188
1093 2 2 0 0 412 732 328
1094 2 2 0 0 316 671 541
1095 2 2 0 0 293 734 478
1096 2 2 0 0 492 685 598
1097 2 2 0 0 528 629 532
1098 2 2 0 0 514 635 515
1099 2 2 0 0 531 616 319
1100 2 2 0 0 8 656 7
1101 2 2 0 0 387 602 601
1102 2 2 0 0 76 628 78
1103 2 2 0 0 122 618 516
1104 2 2 0 0 651 717 394
1105 2 2 0 0 423 623 564
1106 2 2 0 0 546 669 547
1107 2 2 0 0 4 679 34
1108 2 2 0 0 542 556 151
1109 2 2 0 0 548 609 135
1110 2 2 0 0 204 620 196
1111 2 2 0 0 529 629 528
1112 2 2 0 0 482 719 230
1113 2 2 0 0 258 627 591
1114 2 2 0 0 336 582 335
1115 2 2 0 0 197 686 667
1116 2 2 0 0 583 658 580
1117 2 2 0 0 85 675 98
1118 2 2 0 0 59 728 379
1119 2 2 0 0 400 625 338
1120 2 2 0 0 394 717 605
1121 2 2 0 0 471 650 450
1122 2 2 0 0 596 635 323
1123 2 2 0 0 249 637 228
1124 2 2 0 0 515 635 596
1125 2 2 0 0 338 625 563
1126 2 2 0 0 28 633 488
1127 2 2 0 0 566 622 361
1128 2 2 0 0 229 570 161
1129 2 2 0 0 468 654 465
1130 2 2 0 0 118 710 462
1131 2 2 0 0 15 612 16
1132 2 2 0 0 589 659 590
1133 2 2 0 0 526 621 268
1134 2 2 0 0 365 647 597
1135 2 2 0 0 579 583 235
1136 2 2 0 0 22 507 21
1137 2 2 0 0 342 682 264
1138 2 2 0 0 441 648 346
1139 2 2 0 0 191 636 198
1140 2 2 0 0 578 653 579
1141 2 2 0 0 135 609 134
1142 2 2 0 0 128 618 122
1143 2 2 0 0 378 681 310
1144 2 2 0 0 230 690 211
1145 2 2 0 0 210 690 232
1146 2 2 0 0 549 643 553
1147 2 2 0 0 233 661 247
1148 2 2 0 0 10 624 11
1149 2 2 0 0 640 709 435
1150 2 2 0 0 449 719 482
1151 2 2 0 0 452 726 33
1152 2 2 0 0 362 577 280
1153 2 2 0 0 318 575 433
1154 2 2 0 0 492 687 396
1155 2 2 0 0 586 734 293
1156 2 2 0 0 357 655 618
1157 2 2 0 0 277 567 259
1158 2 2 0 0 522 641 225
1159 2 2 0 0 511 640 281
1160 2 2 0 0 247 661 483
1161 2 2 0 0 610 693 39
1162 2 2 0 0 272 569 326
1163 2 2 0 0 490 695 70
1164 2 2 0 0 553 643 599
1165 2 2 0 0 532 629 284
1166 2 2 0 0 29 712 17
1167 2 2 0 0 632 665 117
1168 2 2 0 0 618 655 386
1169 2 2 0 0 241 699 576
1170 2 2 0 0 457 728 561
1171 2 2 0 0 485 572 456
1172 2 2 0 0 430 667 621
1173 2 2 0 0 582 672 458
1174 2 2 0 0 395 687 540
1175 2 2 0 0 504 594 44
1176 2 2 0 0 181 713 207
1177 2 2 0 0 197 707 184
1178 2 2 0 0 524 657 556
1179 2 2 0 0 475 536 498
1180 2 2 0 0 394 738 320
1181 2 2 0 0 51 714 561
1182 2 2 0 0 151 556 153
1183 2 2 0 0 437 693 610
1184 2 2 0 0 361 626 568
1185 2 2 0 0 611 679 5
1186 2 2 0 0 231 680 643
1187 2 2 0 0 462 706 118
1188 2 2 0 0 390 670 496
1189 2 2 0 0 602 642 601
1190 2 2 0 0 49 330 48
1191 2 2 0 0 391 665 632
1192 2 2 0 0 508 737 375
1193 2 2 0 0 450 650 552
1194 2 2 0 0 368 732 476
1195 2 2 0 0 578 579 235
1196 2 2 0 0 402 581 308
1197 2 2 0 0 43 486 41
1198 2 2 0 0 562 713 179
1199 2 2 0 0 592 632 480
1200 2 2 0 0 416 641 522
1201 2 2 0 0 372 668 371
1202 2 2 0 0 452 712 439
1203 2 2 0 0 282 720 455
1204 2 2 0 0 556 657 176
1205 2 2 0 0 364 632 592
1206 2 2 0 0 403 726 452
1207 2 2 0 0 465 654 623
1208 2 2 0 0 278 649 105
1209 2 2 0 0 154 652 617
1210 2 2 0 0 383 688 603
1211 2 2 0 0 451 719 447
1212 2 2 0 0 317 709 640
1213 2 2 0 0 604 711 642
1214 2 2 0 0 382 652 383
1215 2 2 0 0 601 642 389
1216 2 2 0 0 284 671 316
1217 2 2 0 0 599 643 402
1218 2 2 0 0 388 633 624
1219 2 2 0 0 267 678 311
1220 2 2 0 0 337 681 530
1221 2 2 0 0 279 661 233
1222 2 2 0 0 605 738 394
1223 2 2 0 0 33 677 504
1224 2 2 0 0 386 655 387
1225 2 2 0 0 547 669 631
1226 2 2 0 0 562 731 479
1227 2 2 0 0 360 648 595
1228 2 2 0 0 432 692 657
1229 2 2 0 0 367 657 524
1230 2 2 0 0 633 695 488
1231 2 2 0 0 415 473 341
1232 2 2 0 0 644 672 336
1233 2 2 0 0 551 633 388
1234 2 2 0 0 533 648 360
1235 2 2 0 0 407 679 611
1236 2 2 0 0 323 635 615
1237 2 2 0 0 530 681 529
1238 2 2 0 0 393 651 394
1239 2 2 0 0 387 655 602
1240 2 2 0 0 238 703 574
1241 2 2 0 0 594 677 505
1242 2 2 0 0 559 692 560
1243 2 2 0 0 621 667 381
1244 2 2 0 0 405 674 376
1245 2 2 0 0 325 732 368
1246 2 2 0 0 623 654 517
1247 2 2 0 0 581 644 336
1248 2 2 0 0 346 648 533
1249 2 2 0 0 517 654 279
1250 2 2 0 0 477 705 481
1251 2 2 0 0 481 705 355
1252 2 2 0 0 561 728 57
1253 2 2 0 0 379 705 477
1254 2 2 0 0 617 652 382
1255 2 2 0 0 30 650 500
1256 2 2 0 0 376 674 385
1257 2 2 0 0 518 715 519
1258 2 2 0 0 474 667 430
1259 2 2 0 0 478 734 294
1260 2 2 0 0 624 633 28
1261 2 2 0 0 186 707 619
1262 2 2 0 0 64 663 475
1263 2 2 0 0 597 647 258
1264 2 2 0 0 377 738 605
1265 2 2 0 0 31 735 467
1266 2 2 0 0 27 718 458
1267 2 2 0 0 419 673 68
1268 2 2 0 0 616 722 393
1269 2 2 0 0 24 723 419
1270 2 2 0 0 397 638 48
1271 2 2 0 0 404 730 460
1272 2 2 0 0 91 676 472
1273 2 2 0 0 622 626 361
1274 2 2 0 0 7 656 32
1275 2 2 0 0 576 697 277
1276 2 2 0 0 471 691 650
1277 2 2 0 0 536 663 373
1278 2 2 0 0 484 691 471
1279 2 2 0 0 552 650 30
1280 2 2 0 0 311 678 600
1281 2 2 0 0 486 729 5
1282 2 2 0 0 418 673 666
1283 2 2 0 0 232 680 231
1284 2 2 0 0 5 679 4
1285 2 2 0 0 117 665 539
1286 2 2 0 0 384 702 616
1287 2 2 0 0 557 702 221
1288 2 2 0 0 87 675 85
1289 2 2 0 0 225 711 604
1290 2 2 0 0 505 677 571
1291 2 2 0 0 483 661 494
1292 2 2 0 0 263 565 375
1293 2 2 0 0 504 677 594
1294 2 2 0 0 582 718 399
1295 2 2 0 0 645 714 46
1296 2 2 0 0 534 708 392
1297 2 2 0 0 643 680 402
1298 2 2 0 0 18 712 452
1299 2 2 0 0 392 670 390
1300 2 2 0 0 221 702 603
1301 2 2 0 0 496 664 391
1302 2 2 0 0 606 710 118
1303 2 2 0 0 655 703 602
1304 2 2 0 0 608 676 91
1305 2 2 0 0 194 684 514
1306 2 2 0 0 541 671 378
1307 2 2 0 0 154 669 652
1308 2 2 0 0 399 718 639
1309 2 2 0 0 405 715 674
1310 2 2 0 0 33 726 677
1311 2 2 0 0 629 671 284
1312 2 2 0 0 468 735 495
1313 2 2 0 0 469 704 408
1314 2 2 0 0 427 745 479
1315 2 2 0 0 294 734 251
1316 2 2 0 0 461 705 379
1317 2 2 0 0 385 674 636
1318 2 2 0 0 657 692 176
1319 2 2 0 0 561 714 411
1320 2 2 0 0 631 669 154
1321 2 2 0 0 264 682 265
1322 2 2 0 0 43 638 486
1323 2 2 0 0 48 638 43
1324 2 2 0 0 194 744 684
1325 2 2 0 0 381 686 380
1326 2 2 0 0 658 716 589
1327 2 2 0 0 263 567 565
1328 2 2 0 0 310 681 337
1329 2 2 0 0 493 685 492
1330 2 2 0 0 64 685 663
1331 2 2 0 0 309 678 267
1332 2 2 0 0 600 678 431
1333 2 2 0 0 538 694 333
1334 2 2 0 0 598 685 64
1335 2 2 0 0 551 695 633
1336 2 2 0 0 560 699 241
1337 2 2 0 0 211 690 210
1338 2 2 0 0 2 723 3
1339 2 2 0 0 630 708 441
1340 2 2 0 0 467 735 468
1341 2 2 0 0 396 687 395
1342 2 2 0 0 35 507 22
1343 2 2 0 0 259 567 263
1344 2 2 0 0 417 673 418
1345 2 2 0 0 614 686 197
1346 2 2 0 0 392 708 630
1347 2 2 0 0 5 729 6
1348 2 2 0 0 279 725 661
1349 2 2 0 0 6 729 26
1350 2 2 0 0 357 703 655
1351 2 2 0 0 514 684 635
1352 2 2 0 0 540 733 538
1353 2 2 0 0 374 741 593
1354 2 2 0 0 176 692 559
1355 2 2 0 0 650 691 500
1356 2 2 0 0 484 736 691
1357 2 2 0 0 83 733 540
1358 2 2 0 0 558 740 372
1359 2 2 0 0 626 697 555
1360 2 2 0 0 436 693 437
1361 2 2 0 0 375 737 374
1362 2 2 0 0 475 663 536
1363 2 2 0 0 636 674 198
1364 2 2 0 0 674 715 198
1365 2 2 0 0 70 695 551
1366 2 2 0 0 406 721 407
1367 2 2 0 0 677 726 571
1368 2 2 0 0 258 647 627
1369 2 2 0 0 448 701 451
1370 2 2 0 0 458 672 506
1371 2 2 0 0 229 700 570
1372 2 2 0 0 684 744 428
1373 2 2 0 0 570 700 544
1374 2 2 0 0 678 742 431
1375 2 2 0 0 646 741 314
1376 2 2 0 0 603 702 384
1377 2 2 0 0 478 731 293
1378 2 2 0 0 309 742 678
1379 2 2 0 0 380 686 614
1380 2 2 0 0 494 725 468
1381 2 2 0 0 500 691 38
1382 2 2 0 0 635 684 615
1383 2 2 0 0 661 725 494
1384 2 2 0 0 679 721 34
1385 2 2 0 0 509 510 35
1386 2 2 0 0 46 714 51
1387 2 2 0 0 615 684 428
1388 2 2 0 0 432 742 689
1389 2 2 0 0 179 713 181
1390 2 2 0 0 26 739 645
1391 2 2 0 0 35 510 507
1392 2 2 0 0 574 703 357
1393 2 2 0 0 184 707 186
1394 2 2 0 0 39 693 612
1395 2 2 0 0 665 694 539
1396 2 2 0 0 312 708 534
1397 2 2 0 0 554 689 309
1398 2 2 0 0 1 737 508
1399 2 2 0 0 519 717 520
1400 2 2 0 0 277 697 622
1401 2 2 0 0 389 711 641
1402 2 2 0 0 495 736 484
1403 2 2 0 0 17 712 18
1404 2 2 0 0 212 722 557
1405 2 2 0 0 455 720 438
1406 2 2 0 0 622 697 626
1407 2 2 0 0 664 694 665
1408 2 2 0 0 447 719 449
1409 2 2 0 0 669 688 652
1410 2 2 0 0 612 693 436
1411 2 2 0 0 619 744 194
1412 2 2 0 0 57 728 59
1413 2 2 0 0 579 658 583
1414 2 2 0 0 438 727 525
1415 2 2 0 0 539 733 83
1416 2 2 0 0 479 731 478
1417 2 2 0 0 691 736 38
1418 2 2 0 0 401 724 400
1419 2 2 0 0 420 660 2
1420 2 2 0 0 328 732 325
1421 2 2 0 0 320 738 453
1422 2 2 0 0 428 744 429
1423 2 2 0 0 431 742 432
1424 2 2 0 0 425 745 427
1425 2 2 0 0 408 743 434
1426 2 2 0 0 571 726 403
1427 2 2 0 0 119 727 523
1428 2 2 0 0 625 706 462
1429 2 2 0 0 525 730 404
1430 2 2 0 0 499 736 495
1431 2 2 0 0 468 725 654
1432 2 2 0 0 336 672 582
1433 2 2 0 0 198 715 518
1434 2 2 0 0 400 724 706
1435 2 2 0 0 402 680 581
1436 2 2 0 0 589 716 659
1437 2 2 0 0 727 730 525
1438 2 2 0 0 664 665 391
1439 2 2 0 0 337 740 558
1440 2 2 0 0 293 731 562
1441 2 2 0 0 523 720 282
1442 2 2 0 0 460 730 119
1443 2 2 0 0 641 711 225
1444 2 2 0 0 429 744 619
1445 2 2 0 0 119 730 727
1446 2 2 0 0 651 722 212
1447 2 2 0 0 38 736 499
1448 2 2 0 0 667 686 381
1449 2 2 0 0 652 688 383
1450 2 2 0 0 410 710 606
1451 2 2 0 0 644 701 448
1452 2 2 0 0 666 673 419
1453 2 2 0 0 704 743 408
1454 2 2 0 0 251 734 586
1455 2 2 0 0 400 706 625
1456 2 2 0 0 546 688 669
1457 2 2 0 0 668 700 229
1458 2 2 0 0 538 733 694
1459 2 2 0 0 333 694 664
1460 2 2 0 0 565 662 375
1461 2 2 0 0 720 727 438
1462 2 2 0 0 372 700 668
1463 2 2 0 0 579 716 658
1464 2 2 0 0 642 711 389
1465 2 2 0 0 355 705 461
1466 2 2 0 0 407 721 679
1467 2 2 0 0 523 727 720
1468 2 2 0 0 654 725 279
1469 2 2 0 0 639 718 27
1470 2 2 0 0 694 733 539
1471 2 2 0 0 393 722 651
1472 2 2 0 0 645 739 397
1473 2 2 0 0 683 741 374
1474 2 2 0 0 397 739 638
1475 2 2 0 0 653 716 579
1476 2 2 0 0 666 723 660
1477 2 2 0 0 419 723 666
1478 2 2 0 0 374 737 683
1479 2 2 0 0 593 741 646
1480 2 2 0 0 683 737 1
1481 2 2 0 0 689 742 309
1482 2 2 0 0 660 723 2
1483 2 2 0 0 23 25 1
1484 2 2 0 0 25 607 1
1485 2 2 0 0 3 34 2
1486 2 2 0 0 34 415 2
$EndElements
