$MeshFormat
2.2 0 8
$EndMeshFormat
$Nodes
745
1 -7.1259237351980489e-07 4.0840371356120718e-06 1.0275230363458708e-03
2 2.1784717571852593e-07 1.2638909261246508e-06 -1.0261316271055376e-03
3 1.4060655646628298e-04 4.6820427106982689e-06 -1.0151279870312766e-03
4 2.7913326413452966e-04 3.7109517080250462e-06 -9.8502358807782842e-04
5 4.1368252377391130e-04 4.2735318476696065e-06 -9.3439037944336551e-04
6 5.3750365249459248e-04 3.1830005403377189e-06 -8.6102698384826813e-04
7 6.5006699694122026e-04 3.3327023269837971e-06 -7.7272463826930430e-04
8 7.4936392527536681e-04 3.2891112708808435e-06 -6.6865604334617832e-04
9 8.3291454924944218e-04 3.2174084400050742e-06 -5.5128102093890278e-04
10 8.9934685833699553e-04 3.1918811876358934e-06 -4.2324584722453130e-04
11 9.4764975741234428e-04 3.3198806123742672e-06 -2.8717679681290140e-04
12 9.7722476546232206e-04 3.3302667669045830e-06 -1.4568412577501411e-04
13 9.8702193866992524e-04 3.2583674442723063e-06 -1.3947764657640441e-06
14 9.7713633644605806e-04 3.4335059590239439e-06 1.4298155169869585e-04
15 9.4821089077953380e-04 3.3711017358069910e-06 2.8461393666299990e-04
16 9.0060810759149269e-04 3.3823245217714252e-06 4.2115980596127694e-04
17 8.3405073528812176e-04 3.1546782346765672e-06 5.4924878408720414e-04
18 7.5060300342806455e-04 3.0780822469034314e-06 6.6707948288484030e-04
19 6.5182678988078696e-04 3.3292320365525018e-06 7.7193633830765834e-04
20 5.3870651114138975e-04 3.3003807727731563e-06 8.6096195655452215e-04
21 4.1409341739054783e-04 3.3801079907168872e-06 9.3259970676808014e-04
22 2.8032398980247785e-04 3.3863639673499192e-06 9.8494425052673886e-04
23 1.4135341068179718e-04 2.5624753790702175e-06 1.0168286041683918e-03
24 1.5060023538831090e-04 1.5045754167036598e-04 -1.0030730371601391e-03
25 1.7298799465040521e-04 1.2331041793890420e-04 1.0050299693530945e-03
26 5.7963951006156803e-04 1.3753441196842132e-04 -8.1786961522370004e-04
27 5.9204761200145912e-04 -1.2359194804847066e-04 8.1200492250821854e-04
28 9.5579014317266153e-04 1.3346376862256247e-04 -2.1581589073540376e-04
29 8.6083203146587316e-04 1.3514677906405385e-04 4.8554896033910417e-04
30 9.2081589181798097e-04 -1.1854640917406121e-04 3.4888232319725695e-04
31 9.5459336697875684e-04 -1.1890407679722735e-04 -2.2868658351180563e-04
32 5.8565617095415929e-04 -1.2391693164463740e-04 -8.1669564676577471e-04
33 5.9124564786727069e-04 1.2746787312347774e-04 8.1151534035469480e-04
34 2.0734734844744226e-04 -1.1986283256386643e-04 -9.9766967273036584e-04
35 2.0913212821249406e-04 -1.2045071418940934e-04 9.9534795100384831e-04
36 7.8936652801738958e-04 -1.2429378915176443e-04 6.0337964381700472e-04
37 7.8779605524895483e-04 1.3199027247285847e-04 -6.0343665290538454e-04
38 9.7741457699246402e-04 -1.1517907873313613e-04 7.0396818904155419e-05
39 9.5653252350962439e-04 1.2812920635751858e-04 2.1244772577224517e-04
40 8.5683812694126670e-04 -1.3135976175340170e-04 -4.9151888640491250e-04
41 2.9654720485140291e-04 1.5123134348135316e-04 -9.6695264329841148e-04
42 2.2679151346714980e-04 2.7396339743186845e-04 -9.5817119307884833e-04
43 3.5670983040381762e-04 2.6877651118049060e-04 -9.1493868976268253e-04
44 3.4507056684809738e-04 1.2754773706865087e-04 9.5412566483942896e-04
45 6.8758359686102444e-04 1.3358640879515221e-04 -7.2359940798668882e-04
46 7.2315820310557631e-04 2.5326273704091422e-04 -6.4745773252963823e-04
47 2.9407662949308059e-04 3.8844186959112172e-04 -8.9285021867007612e-04
48 4.2123774161839195e-04 3.7492672507195829e-04 -8.4216359443332358e-04
49 3.5662643942236793e-04 4.8743746709098765e-04 -8.1168563741972077e-04
50 8.0764566712313534e-04 2.4910619780289177e-04 -5.3039219926320541e-04
51 7.4308557602814108e-04 3.6874791222457214e-04 -5.5681447824191188e-04
52 8.1451076518108251e-04 3.6362247635289151e-04 -4.3912108601678760e-04
53 7.3478722221769323e-04 4.8062302484928253e-04 -4.6928080923576556e-04
54 8.0233441666686782e-04 4.6865196926430363e-04 -3.4490882792221218e-04
55 7.1466598272552440e-04 5.8123205208720640e-04 -3.6776022653559585e-04
56 7.7525067877309600e-04 5.6528450310552088e-04 -2.3894036706260957e-04
57 6.4176523590988720e-04 5.9028791478810962e-04 -4.8010482720712547e-04
58 6.1143632353183536e-04 6.8251556665241810e-04 -3.8012801766894246e-04
59 5.3115138379152525e-04 6.8542597214281637e-04 -4.8925432898742644e-04
60 4.9522514286475796e-04 7.6873329983912116e-04 -3.8477836015135802e-04
61 4.0683315727463564e-04 7.5893817171358597e-04 -5.0165882514067528e-04
62 3.6892570620545965e-04 8.3765093342015237e-04 -3.8261226329455733e-04
63 2.1931227342680021e-04 5.0283901486581175e-04 -8.5335601211529205e-04
64 4.5141136415136572e-04 8.3644446025995557e-04 -2.7159868702187278e-04
65 2.7520879888979295e-04 8.2026124262878498e-04 -4.9419903274006832e-04
66 2.3592497034194388e-04 8.8913549162949156e-04 -3.7068365925147591e-04
67 1.3867571586129293e-04 8.6336336129059241e-04 -4.7605323445958661e-04
68 8.5337004796497956e-05 2.9149165963105866e-04 -9.7699148813707045e-04
69 1.4939840161630076e-04 7.8426342490032824e-04 -6.0544187701193819e-04
70 8.5225812151703770e-04 4.5100144827859965e-04 -2.1488687289581733e-04
71 8.2099108876372627e-04 5.3819912164593644e-04 -1.0584282117666652e-04
72 7.3186358443727215e-04 6.4954457974538782e-04 -1.3149292933414269e-04
73 7.7029095790963765e-04 6.1686670927383572e-04 3.5180236801561136e-06
74 6.7296150996043751e-04 7.2111412531639086e-04 -2.1701764214662951e-05
75 7.0383258983091983e-04 6.8230572858894972e-04 1.1354483948507284e-04
76 6.0017782390564165e-04 7.7837531173519320e-04 8.8052308211612960e-05
77 6.2412670531923934e-04 7.3335379646999473e-04 2.2216596953812844e-04
78 5.1352922173302754e-04 8.2145114352852159e-04 1.9466033722959606e-04
79 9.4968278960700679e-05 9.2422485220984758e-04 -3.4521120930823795e-04
80 -1.2270532088666372e-05 8.9185235295623742e-04 -4.3828909264694618e-04
81 2.6694249331380847e-04 2.5896889058271081e-04 9.5247802840665136e-04
82 5.3293683801994079e-04 7.6926778007265157e-04 3.2601369430351317e-04
83 -4.2311583568808696e-05 9.3884146284449476e-04 -3.1013548288493078e-04
84 4.1488823990259565e-04 8.4950576606361127e-04 2.9369201116203930e-04
85 4.2864571821816611e-04 7.9095057610241437e-04 4.2109427490716138e-04
86 3.0772799171819508e-04 8.6007269001656052e-04 3.8739319031633331e-04
87 3.1777057505620918e-04 7.9353018027755924e-04 5.1154526697902902e-04
88 1.9494260277549535e-04 8.4970859603155009e-04 4.8035588619533859e-04
89 1.6755602133624543e-04 9.1287834805598691e-04 3.4760002980120718e-04
90 4.7963051313758094e-05 8.9204401246835332e-04 4.3512917367066756e-04
91 7.1314665652383097e-05 8.2332855376234708e-04 5.6056367570345730e-04
92 -6.5390890530762558e-05 8.4820536885895942e-04 5.1871528763013065e-04
93 -9.6266863202767311e-05 9.0678012558946270e-04 3.9114284922092988e-04
94 -2.0130180661497780e-04 8.5197444514150962e-04 4.7212425805827905e-04
95 -1.6758141692172653e-04 8.0516585041422693e-04 5.6633880997557814e-04
96 -2.3038002730057657e-04 9.0154003666967147e-04 3.4016961732021472e-04
97 1.1072754515901370e-04 2.5987426303776236e-04 9.8455729669367966e-04
98 5.4310788485814783e-04 6.9804554623523413e-04 4.5813014338593855e-04
99 1.7616768634639226e-04 3.6869029131380356e-04 9.3528556751127213e-04
100 3.3620951849391224e-05 3.7045051493170988e-04 9.5154301105591476e-04
101 -3.5330134020053236e-05 2.5168090779200883e-04 9.9235351762796162e-04
102 -1.0945922600186475e-04 3.6563477689324639e-04 9.4739757230443409e-04
103 1.9967349847052282e-04 9.3841304591845049e-04 -2.3759831009412575e-04
104 -1.2386338621638246e-04 9.4732831901078577e-04 2.5534872503001256e-04
105 -2.5669602099056676e-04 9.3213155983288870e-04 2.0290601623740149e-04
106 -3.5786858923631735e-04 8.7730116729792219e-04 2.8482367830016671e-04
107 -1.5250483402282175e-04 9.0032972130316927e-04 -3.8735574151826170e-04
108 -1.2512832332831436e-04 8.4403891641027771e-04 -5.1471275729133052e-04
109 -3.7274100392050682e-04 9.0239462412756316e-04 1.4503696495944544e-04
110 -2.6317781951095488e-04 8.4113931406250069e-04 -4.6072964237022239e-04
111 -2.4054264374298259e-04 7.7336532918044650e-04 -5.8576057237505073e-04
112 -3.6864992293678079e-04 7.6268223980116947e-04 -5.2588875591021438e-04
113 -3.4075096214059258e-04 6.8871765651300210e-04 -6.4379511086259901e-04
114 -4.6489623243313818e-04 6.6943927855167963e-04 -5.7829787692304565e-04
115 -4.3180188134490986e-04 5.8787601021514382e-04 -6.9129511794873083e-04
116 -4.8923565302653896e-04 7.3688389135271324e-04 -4.5422911878317937e-04
117 -2.8093283441455190e-04 8.8986570411905602e-04 -3.3161016412670781e-04
118 -3.0410742992357945e-04 7.8304116172137137e-04 5.3840242001293394e-04
119 7.1912783108622638e-04 6.3232275007103094e-04 2.4350568749365446e-04
120 -3.0285128591457249e-04 5.9953299290268461e-04 -7.5214260251245261e-04
121 -3.9072571852194699e-04 4.9350685920268394e-04 -7.9071522334729009e-04
122 -5.1508953969881313e-04 4.7564332882339124e-04 -7.2233298812309789e-04
123 -4.6902531614600708e-04 3.7615101570314183e-04 -8.1419804780821336e-04
124 -5.8047237173121879e-04 6.3631447950908578e-04 -5.0025476983908853e-04
125 -5.9955277913163144e-04 6.9695313518586027e-04 -3.7167458637932141e-04
126 -6.8498596335532427e-04 5.8876630310677135e-04 -4.1226577270165368e-04
127 -4.7746390486518866e-04 8.3527292818636118e-04 2.2563813221139191e-04
128 -5.8784904993974612e-04 3.5334966478358211e-04 -7.3786859249094490e-04
129 -5.3598806935206981e-04 2.4994060529439120e-04 -8.2198149726013850e-04
130 -6.4853300488923178e-04 2.2369411101164180e-04 -7.3766921649262779e-04
131 -5.9000022182119176e-04 1.1769361326286203e-04 -8.1397499184300060e-04
132 -6.9599089597072714e-04 8.9457935742765223e-05 -7.2184800411560941e-04
133 -6.3001787160149895e-04 -1.7729570937996430e-05 -7.9026075151448821e-04
134 -7.3335298060189238e-04 -4.6882483847506626e-05 -6.8545029185809205e-04
135 -6.5654186907888315e-04 -1.5310815567127163e-04 -7.5004549038348866e-04
136 -7.8978610849186708e-04 6.0068087126857183e-05 -6.1276959312301304e-04
137 -8.1557024931702303e-04 -8.1774544267521765e-05 -5.7177511021379193e-04
138 -8.6560070065276726e-04 2.9449754291438238e-05 -4.9227642788512473e-04
139 -8.8304791887173085e-04 -1.0606019111175940e-04 -4.4428290532296780e-04
140 -9.2197646627535581e-04 4.6686747565781129e-06 -3.6432365675779810e-04
141 -9.3028341815045020e-04 -1.2927813778791894e-04 -3.1375483164292382e-04
142 -9.6138154921973217e-04 -1.7401961434310588e-05 -2.2817288939179723e-04
143 -9.6051350669831045e-04 -1.4994893817429011e-04 -1.7419946791458036e-04
144 -9.8209998391752488e-04 -3.7729708471802170e-05 -8.7080667855807657e-05
145 -9.7118728312922610e-04 -1.7025742252464921e-04 -3.2431408683856784e-05
146 -9.8328259481049690e-04 -5.6320719847757435e-05 5.4742596782183592e-05
147 -9.6283066871351406e-04 -1.8714467324274260e-04 1.0987763084787705e-04
148 -9.3980763787770408e-04 -2.9941161191575366e-04 2.2163971937720063e-05
149 -9.2164132200386677e-04 -3.1449565726539183e-04 1.6488073500973147e-04
150 -9.3546935879024325e-04 -1.9998706692470067e-04 2.5122095507101053e-04
151 -8.8524494211575377e-04 -3.2355452471596419e-04 3.0373301002825908e-04
152 -8.9036086745722235e-04 -2.0713246600630403e-04 3.8666185480590982e-04
153 -8.3017941941001064e-04 -3.2845011323508080e-04 4.3715394377589182e-04
154 -8.8090368484863314e-04 -2.3653225271121005e-04 -3.9046634398540772e-04
155 -8.2672716176151713e-04 -2.0877632362154014e-04 5.1707961601179446e-04
156 -7.5829245002701873e-04 -3.2720615884125430e-04 5.6194655563818544e-04
157 -8.7686050738322921e-04 -8.4986393652033106e-05 4.6314405488318705e-04
158 -7.4672473671499406e-04 -2.0483872412164022e-04 6.3661737436130229e-04
159 -6.7200404820963737e-04 -3.2099993086222024e-04 6.7397163642265404e-04
160 -9.8318354365629435e-04 7.6517649832232674e-05 -4.4232379909205265e-07
161 -6.5407185631544205e-04 -1.9648048229387309e-04 7.4122721216877746e-04
162 -5.6858672443655463e-04 -3.0806049758928279e-04 7.7653568056304740e-04
163 -5.4939358507528424e-04 -1.2352133141620524e-04 -8.4350141297440161e-04
164 -5.6753944898469224e-04 -2.5761813412380439e-04 -7.9641582648128366e-04
165 -6.9786804475861558e-04 6.4278885371938147e-04 -2.8018843453478956e-04
166 -1.7756553074200872e-04 2.4352924895698050e-04 9.7839103512504426e-04
167 -2.5008330586139249e-04 3.5395823683371586e-04 9.2302324431663629e-04
168 -4.5583537625918069e-04 -2.2550995254300458e-04 -8.8032759847836667e-04
169 -4.6797642668477339e-04 -3.5695792936302136e-04 -8.2457161462441502e-04
170 -5.7426625019040012e-04 -3.8590858432411684e-04 -7.3255929084515040e-04
171 -4.6868063069962124e-04 -4.8123968677597572e-04 -7.5278800484536890e-04
172 -5.6968542817337426e-04 -5.0575041949264279e-04 -6.5329908161142571e-04
173 -4.5808327835272333e-04 -5.9572668669279950e-04 -6.6650502811173035e-04
174 -5.5370676435752047e-04 -6.1445647694054293e-04 -5.6042487160942072e-04
175 -4.3640065031497373e-04 -6.9780520558303878e-04 -5.6725345643691245e-04
176 -7.5396749404564275e-04 -4.4090606888247256e-04 4.7680710370389643e-04
177 -5.2708006053199627e-04 -7.0980226814442771e-04 -4.5586461127836988e-04
178 -4.0442770677350160e-04 -7.8564523015767001e-04 -4.5748353681323781e-04
179 -3.1236009333426921e-04 -7.7082641929328408e-04 -5.5243220242048039e-04
180 -2.7258489870760863e-04 -8.4695021077123886e-04 -4.4464290438179827e-04
181 -1.7549579158923555e-04 -8.2264113303031619e-04 -5.3697299723745617e-04
182 -1.3512218671391557e-04 -8.8870414047367038e-04 -4.2440383810942627e-04
183 -3.5601951066710358e-05 -8.4810130544273380e-04 -5.2516139691750419e-04
184 3.9864411655155777e-06 -9.0812361916596421e-04 -4.0225887648547503e-04
185 -9.4899929119018404e-05 -9.3917107888372023e-04 -3.0016243225725893e-04
186 3.8490694064689659e-05 -9.5212003492262803e-04 -2.6709319951869463e-04
187 -5.4434830585415849e-05 -9.7248643344361406e-04 -1.6610445808539303e-04
188 8.4834473117912341e-05 -9.7525357372447161e-04 -1.3253417010143447e-04
189 -1.3021259722593041e-05 -9.8640597775601210e-04 -2.9242403189981312e-05
190 1.2697925564345730e-04 -9.7883218569176601e-04 4.9356011406463972e-06
191 2.7872484169748853e-05 -9.8109793457386773e-04 1.0780154600953212e-04
192 1.6667608095505653e-04 -9.6326808548455886e-04 1.4264433530867038e-04
193 6.5310904904531525e-05 -9.5598660750741452e-04 2.4687981115780659e-04
194 2.1442601588794304e-04 -9.5907929666084861e-04 -9.1932235396000665e-05
195 2.0397691806460250e-04 -9.2812360292780435e-04 2.7848935933124042e-04
196 1.0214712193111765e-04 -9.1201143019175614e-04 3.7878313847346869e-04
197 1.1236406985941754e-04 -8.6594862140996663e-04 -4.8039850950234758e-04
198 -1.0515559365526525e-04 -9.7833160864062513e-04 7.0955488052901127e-05
199 2.3774884368569732e-04 -8.7388929206153759e-04 4.0909495820202780e-04
200 3.3859690581691977e-04 -8.8025950022488537e-04 3.0368850920326320e-04
201 3.6881168822462332e-04 -8.1662901021244442e-04 4.3112172233170830e-04
202 1.3366815182070315e-04 -8.4924446065203852e-04 5.0524479211168827e-04
203 4.6515438867871466e-04 -8.1337950915548029e-04 3.2309057426060581e-04
204 -4.4185325574811981e-06 -8.7660508335380479e-04 4.7267000848750135e-04
205 2.7412659100537892e-05 -8.0504593427118320e-04 5.9422748268824432e-04
206 -8.8826736679989751e-04 -4.2323526490134505e-04 7.6249169200077080e-05
207 -7.3462298863511639e-05 -7.6789513065474179e-04 -6.4146659608159092e-04
208 -1.1052928049057316e-04 -8.2337175877301159e-04 5.5524027218235340e-04
209 -7.8186194264445242e-05 -7.4355517856282177e-04 6.7119446693057088e-04
210 4.8953263729451489e-04 -7.4504120795830639e-04 4.4052224679534712e-04
211 5.7942877460196145e-04 -7.3343883228662882e-04 3.2875057722660348e-04
212 -4.9877828584657055e-04 -7.8403581535451631e-04 -3.4489158273471286e-04
213 5.9807986055292416e-05 -7.1687443596629154e-04 7.0391322478612344e-04
214 -4.5555473170975573e-05 -6.4787573292329130e-04 7.7405032705262292e-04
215 -3.5124456409556644e-04 -3.2140818895399223e-04 -8.9978001975080340e-04
216 -2.1495315888505638e-04 -7.5296292265815824e-04 6.2595595760354917e-04
217 -2.4569176832519945e-04 -8.2433087580722445e-04 5.0419864981614553e-04
218 5.5091943102475102e-04 -7.9464400610569110e-04 2.0680677603401179e-04
219 6.6607488509926461e-04 -6.9808946170947961e-04 2.1830362819900533e-04
220 6.2611997869019807e-04 -7.5855375411699002e-04 8.8695183775010919e-05
221 -6.3841017727007206e-04 -6.1939675699056618e-04 -4.4403042884217042e-04
222 7.3440945678761760e-04 -6.5334826977943706e-04 9.9204738896924841e-05
223 6.8694472886889188e-04 -7.0828352367396518e-04 -3.1929356317160529e-05
224 -3.3482649248939430e-04 -1.8714500804394588e-04 -9.4642712181830285e-04
225 -9.4379928581793209e-04 1.0976937916994323e-04 -2.7244513304554996e-04
226 9.2117167944150529e-05 -6.1372047473171357e-04 7.9938910159637136e-04
227 -1.3425021439989610e-05 -5.3817120263059529e-04 8.6166070229089405e-04
228 -5.4549858899567217e-04 -1.8128950186739820e-04 8.3516432215759964e-04
229 -6.2968297659417110e-04 -7.4991407228848232e-05 7.8619482016217693e-04
230 6.7146117146349178e-04 -6.3854179368810272e-04 3.5271750560539051e-04
231 3.9250613893783670e-04 -7.4007072762357316e-04 5.4312328407881999e-04
232 5.0916860741510015e-04 -6.5378883189082238e-04 5.5956954696005222e-04
233 7.8137535168844091e-04 -6.0232649904799946e-04 -2.6515485962914806e-05
234 7.3130598527136462e-04 -6.4592251641610004e-04 -1.5448648694416651e-04
235 -4.1685652616159239e-04 2.7121003879432444e-04 -8.8678159823311333e-04
236 3.1994101907119018e-04 3.6582596696669927e-04 8.9437088818899427e-04
237 -4.5404947541622726e-04 -2.9020954098053515e-04 8.6128440657439658e-04
238 -8.3344560793615101e-04 1.8934027332215308e-04 -5.1494451396681511e-04
239 6.2771381091982609e-04 -7.4614563060444044e-04 -1.6010503202880689e-04
240 6.6683753604574944e-04 -6.7610211560740845e-04 -2.8047203369126184e-04
241 -5.8046386924819570e-04 -4.2959381665357341e-04 7.0057443031568047e-04
242 5.5577981212021120e-04 -7.6875303344941083e-04 -2.8422712215438645e-04
243 5.8918461879140351e-04 -6.9153872786798757e-04 -4.0194759574308008e-04
244 6.9319722700829421e-04 -5.9137946105523051e-04 -3.9519952908404420e-04
245 6.0931842599075273e-04 -6.0065996570801293e-04 -5.1251354183805622e-04
246 -2.2647915620413909e-04 -2.8004915767930873e-04 -9.5654978995748073e-04
247 8.2392784760604667e-04 -5.3616611996167235e-04 9.6635363057168610e-05
248 2.3739565284926556e-04 4.7724953677062893e-04 8.6450324161046219e-04
249 -4.2337917400374234e-04 -1.5975042129881087e-04 9.1333872230330395e-04
250 3.7461199263374360e-04 4.6708293440626982e-04 8.1649601793899360e-04
251 -2.3947248287048707e-04 -4.1073538406373808e-04 -9.0015880658152268e-04
252 -1.1186795146704265e-04 -3.6585180125499984e-04 -9.4756894913389136e-04
253 3.9167431121904202e-04 8.9208223440582514e-04 1.6206494896820565e-04
254 -6.0562711891860605e-04 7.4442004333979473e-04 -2.3636882080380834e-04
255 -6.9681441816432318e-04 6.8385313056027201e-04 -1.4348555364673943e-04
256 -7.8167473450171552e-04 5.7437917938417556e-04 -1.8521727205800915e-04
257 -7.7323746473890998e-04 6.0989149156799268e-04 -4.6921866892702005e-05
258 -4.0175255847003035e-05 4.8017050439971869e-04 8.9640246935175454e-04
259 -3.3412900426204917e-04 -2.6971436070780520e-04 9.2536395430030914e-04
260 -3.1566575879036249e-04 2.2836814139619654e-04 9.4386294071626970e-04
261 -3.8514917074359650e-04 3.3557880979166624e-04 8.7898653252678266e-04
262 -2.9452563022438799e-04 -1.3437674161648566e-04 9.7083303914014614e-04
263 -1.9662793651681061e-04 -2.3885639717149843e-04 9.7596914769529873e-04
264 -8.4685686437010555e-04 4.9771708494290802e-04 -8.9022164961764425e-05
265 -8.3253939767583733e-04 5.2515256976037666e-04 5.6548176743193677e-05
266 -3.4798873480345721e-04 -7.4592781616848183e-04 5.6722908106394347e-04
267 -3.7195108746546210e-04 -8.0912125032554577e-04 4.4235281444675024e-04
268 5.0083250569718952e-04 -6.9331428878987114e-04 -5.1303586171640516e-04
269 5.1344829858495722e-04 -5.9639896883553029e-04 -6.2036225725487512e-04
270 6.1824102492860991e-04 -4.9747250468269418e-04 -6.1124036710230101e-04
271 5.1603915861672884e-04 -4.8713631783723222e-04 -7.1435555835448977e-04
272 4.0631365673483177e-04 -5.8047703141894886e-04 -7.1551277261397851e-04
273 -3.1586490374802012e-04 4.5725077194844893e-04 8.4865108550784599e-04
274 -4.4720177460509577e-04 4.3462159224663866e-04 7.9600611159490815e-04
275 4.0422463479871610e-04 -4.6577848954453861e-04 -8.0240978014126248e-04
276 2.9013242099651024e-04 -5.5311236393561117e-04 -7.9589934465202369e-04
277 -3.5840140291741943e-04 -3.9068007806079694e-04 8.6629115932048589e-04
278 -1.4610934959215200e-04 9.6887221677136818e-04 1.1715214182961178e-04
279 8.1270201928654198e-04 -5.4029805099518598e-04 -1.4906914214210792e-04
280 -2.5901573283358182e-04 5.0128260542498155e-04 -8.4238780594248831e-04
281 -1.6694078436459373e-04 5.9940903068875196e-04 -7.9723232414575585e-04
282 8.5636444594002837e-04 4.9109568018863988e-04 3.3037662332190994e-05
283 1.2362514044756952e-04 -4.9755831581352393e-04 8.7844440252623167e-04
284 -9.7512280125629941e-04 5.5223584431086394e-05 1.3802924737627652e-04
285 -8.9753894631777796e-04 -4.0469813298515907e-04 -6.6215383876163552e-05
286 -8.3611272871014341e-04 -5.2390208219968665e-04 -1.2986220579788517e-05
287 -8.1878936860794993e-04 -5.3654995225622861e-04 1.2912767584329874e-04
288 -7.5718592729049380e-04 -6.3180204858173108e-04 3.9003924458834373e-05
289 -7.3152782968213402e-04 -6.3915626194408306e-04 1.8096682929035667e-04
290 -6.6073998490238245e-04 -7.2757534094785800e-04 9.0480805912538040e-05
291 -1.9333447606491151e-04 -9.4960846324708664e-04 -1.9598459310214171e-04
292 -2.6996821778157347e-04 -8.7956737674855189e-04 3.7224255638604380e-04
293 -3.4677623488472764e-04 -5.6495127624641523e-04 -7.6099216577345697e-04
294 -1.2253178555345439e-04 -4.9339494054993565e-04 -8.8208443667174194e-04
295 -5.1182594189277855e-04 3.0848558384147489e-04 8.1761070225190634e-04
296 -5.6879428357622399e-04 4.0360030483021115e-04 7.2658185954248885e-04
297 -8.4885802609602353e-04 4.5374467956837245e-04 -2.2480217548069320e-04
298 -6.2755860042718178e-04 2.7335234806968943e-04 7.4017983490231405e-04
299 -6.7805514554853199e-04 3.6497890993999593e-04 6.4193595115638678e-04
300 -6.1277892364456049e-04 4.9113866327125683e-04 6.2170477313691608e-04
301 -7.1550818934816780e-04 4.4812300033954592e-04 5.3107824337599171e-04
302 -7.7299430096102470e-04 3.1744976115774288e-04 5.4526685430541122e-04
303 -3.1375297783102062e-04 -6.6583604684059591e-04 6.8490827844017383e-04
304 -6.4306043149040904e-04 5.6975818318856346e-04 5.0514576544974333e-04
305 -8.0316064228871682e-04 3.9677594235135432e-04 4.2955603869888393e-04
306 2.2809349219169236e-04 -5.6665938281649623e-04 8.0748269759058717e-04
307 2.5740561310807889e-04 -4.4455476359329309e-04 8.7773422104070811e-04
308 3.5952437224325440e-04 -5.0803295248302415e-04 7.9816133566307495e-04
309 -4.6031007553341390e-04 -7.2236558912328443e-04 5.0867086720441539e-04
310 -8.5156045249846915e-04 2.6543454170343341e-04 4.3787994841709775e-04
311 -3.9293700737981908e-04 -8.5342918314472969e-04 3.1554736134005608e-04
312 -7.4994986097343054e-04 6.3335881124826560e-04 9.2637653646536678e-05
313 -8.3687305843522511e-04 -5.0078510966119409e-04 -1.5528168993138801e-04
314 -1.0218355646971342e-04 1.2656330259524996e-04 1.0134437988027969e-03
315 -8.7487377919631389e-04 3.3850056827133200e-04 3.1913354679173985e-04
316 -9.6446968299465879e-04 1.8504025944821278e-04 8.7686913428493339e-05
317 -1.0488357683308914e-04 7.7212601431051570e-04 -6.2854568815979065e-04
318 2.8680504817729630e-04 -4.3578967822308214e-04 -8.7222245553386678e-04
319 -6.8004375481581843e-04 -7.1347994781463227e-04 -5.2036351936852546e-05
320 -5.8273769858772906e-04 -7.9542241747160985e-04 2.9955131277053375e-07
321 -6.6893477904128313e-04 -4.0542371435929256e-04 -6.2616774400797866e-04
322 -9.7226610701654998e-05 -2.3095875254138784e-04 -9.9346539674628103e-04
323 5.0985742830263019e-04 -8.4170430457327424e-04 8.0544761204321343e-05
324 -5.9867426357330207e-04 7.7765878368386333e-04 -9.7010057900008865e-05
325 2.9207654479124803e-04 5.7592229919944547e-04 7.7627935326665795e-04
326 2.8802809357434187e-04 -6.6142650909289079e-04 -7.0121731357665408e-04
327 1.6865318232092854e-04 -6.2733709629601007e-04 -7.7417214254505188e-04
328 4.2682173550435818e-04 5.5713938059040382e-04 7.2150665462661053e-04
329 5.0013575889883003e-04 4.4184151882250368e-04 7.5645509875794123e-04
330 4.8008372543134132e-04 4.6246319550851593e-04 -7.5658969654482800e-04
331 -1.4114944710460304e-05 9.7310192308960224e-04 1.6727550695109581e-04
332 -3.7476424501736177e-05 9.8507909499040056e-04 2.6113403296314186e-05
333 -1.6576514968893788e-04 9.7172634886531696e-04 -2.1451119219548203e-05
334 9.6982745489751813e-05 9.7867525912982765e-04 7.6301028151666708e-05
335 3.8488606701834240e-04 -3.8026581923483933e-04 8.5981584341799332e-04
336 4.7779483449623722e-04 -4.4397423512356756e-04 7.7090966054428264e-04
337 -8.1419889257811247e-04 1.9084563586781661e-04 5.4336986625059440e-04
338 -3.7350596291336709e-04 5.5128023434903835e-04 7.5725666939013402e-04
339 -1.2079715889764044e-04 5.0424084107003272e-04 -8.7340242665853848e-04
340 3.9447596540644731e-04 -3.4088914577223422e-04 -8.7236940200597930e-04
341 2.3442029504439043e-05 -3.2360543403988653e-04 -9.6995849344414019e-04
342 -9.1572496522102651e-04 3.5330626192724027e-04 -1.1385888163307498e-04
343 1.7377874262934498e-05 -4.1662895557139425e-04 9.3205888168941965e-04
344 -5.3328980324902561e-04 6.0650430119475924e-04 5.8985094548820926e-04
345 -5.4282978976166697e-04 7.0173124986867190e-04 4.5234289624263870e-04
346 -6.6216116479969514e-04 6.3799982248633196e-04 3.7150113334571754e-04
347 6.1367471823204202e-04 -3.8221096955090079e-04 -6.9974005160694302e-04
348 7.0859561773759211e-04 -3.8688034029943586e-04 -5.9129034728653944e-04
349 5.4654634937407456e-04 5.2999482397942917e-04 6.5303344856723058e-04
350 6.1699392970966487e-04 4.0763896818477540e-04 6.7996023489769034e-04
351 6.5762068203805335e-04 4.9110228214879076e-04 5.7011156173220566e-04
352 7.2237936412408645e-04 3.6296269465082692e-04 5.8942067044470746e-04
353 7.5475801693282701e-04 4.4299758111583518e-04 4.7533916504441322e-04
354 -6.2772158705129248e-04 -7.2829878751773478e-04 2.3101984796620494e-04
355 2.8027567176169447e-04 5.9280249540406751e-04 -7.6637499328452777e-04
356 1.4147247345394528e-04 6.0794511044587297e-04 -7.9537547585310461e-04
357 -6.9155971487118862e-04 3.2118218447621039e-04 -6.5016089313852255e-04
358 5.1010601933180056e-04 -8.3042014740377854e-04 -1.6225054106459386e-04
359 4.3241119914319537e-04 -8.4442619561626256e-04 -2.8314467787228140e-04
360 -8.1596118958560018e-04 4.6857522364555373e-04 3.0718343995964114e-04
361 -1.4886341475778357e-04 -5.6871962454041534e-04 8.2530239883062020e-04
362 -2.0933947280891364e-04 3.8816633756012347e-04 -9.1860919643815841e-04
363 -2.3852159635918502e-04 5.6792762193671467e-04 8.0137940192710592e-04
364 -5.0237464281582193e-04 8.2934199379932304e-04 -1.8687786372925105e-04
365 1.5459437581811681e-04 5.8396201048398785e-04 8.1192898069238999e-04
366 -3.8488563331640665e-04 -2.5714822247392354e-05 9.4579318399706119e-04
367 -6.9195987892463155e-04 -6.3465785417939698e-04 3.1627142531406741e-04
368 2.0640052015884566e-04 6.7575704654294758e-04 7.1791316620735824e-04
369 8.3334416537844878e-05 6.6548837662242346e-04 7.5301972269299861e-04
370 6.9900242744644792e-04 -2.6780846633739754e-04 -6.6989272776754399e-04
371 -5.6418965055960498e-04 1.7507186598742181e-04 8.2322074707284287e-04
372 -6.9003006959268861e-04 1.3602984348416616e-04 7.2107944457535527e-04
373 5.6421413390150604e-04 8.0795893401290023e-04 -4.1620592955831196e-05
374 -1.5966041886216435e-04 -1.0422551882997922e-04 1.0082476493251697e-03
375 -5.9566199212376750e-05 -2.0698302688714246e-04 1.0027929302933471e-03
376 -2.8959669883699813e-04 -9.1606310666043336e-04 2.3661477547849675e-04
377 -4.2846426178800277e-04 -8.7607190122645671e-04 1.6517884351938093e-04
378 -9.1679003474466332e-04 1.8157632709754612e-04 3.3043728145881816e-04
379 4.4498684946126378e-04 6.6146374583791079e-04 -6.0587865287019737e-04
380 1.6398469113617430e-04 -7.2828124979931134e-04 -6.7180733423443241e-04
381 2.8171546528440105e-04 -7.5193130181912347e-04 -5.9641460906887430e-04
382 -8.8926693727282315e-04 -3.7725005443753909e-04 -2.0753323679635597e-04
383 -8.2272485815060900e-04 -4.6910320732983268e-04 -2.8618983387309265e-04
384 -7.6304571357419697e-04 -5.8184326215480044e-04 -2.3878003050189784e-04
385 -1.6587857840717410e-04 -9.3097252068505948e-04 2.9441508535317192e-04
386 -6.5844094779102388e-04 5.2196119203845029e-04 -5.3742783764444224e-04
387 -7.5425890895540460e-04 4.6953648917612062e-04 -4.4528511585104937e-04
388 8.7512678950282222e-04 2.3973885838550631e-04 -4.0323668564937865e-04
389 -8.9626846178199630e-04 3.2413665969798058e-04 -2.6269320554682521e-04
390 -4.9140548031098433e-04 8.5345708319697617e-04 -5.0148288819279299e-05
391 -3.9311388457824014e-04 8.9515953514131687e-04 -1.3389789545422429e-04
392 -5.9353861848786054e-04 7.8594250210393284e-04 3.3360578134998763e-05
393 -5.8857389390334545e-04 -7.8120526761392395e-04 -1.3356881055366824e-04
394 -4.9891812681125464e-04 -8.4800499462468705e-04 -6.5304535454273948e-05
395 7.2309067353609345e-05 9.8147185584855959e-04 -6.0101340002610938e-05
396 2.0538382344356646e-04 9.6431238970618642e-04 -9.9377622038475058e-06
397 5.5391996233674756e-04 3.4356211495143487e-04 -7.7159317001394129e-04
398 2.7810781014157295e-04 -3.2576031345076667e-04 9.2526966131664461e-04
399 4.0300989266464464e-04 -2.4419679330975959e-04 9.0377802473936241e-04
400 -2.9286236644214910e-04 6.5588798559722532e-04 7.0283238134121774e-04
401 -1.7706982160124111e-04 6.4969656333106632e-04 7.5003443687279609e-04
402 3.2506502395877076e-04 -6.2304097920934409e-04 7.2150546292776751e-04
403 6.7749197659567370e-04 2.7886190908584917e-04 6.8773742203675830e-04
404 6.7763714403251706e-04 5.7738924914461053e-04 4.4494114951006911e-04
405 -3.0623836425250817e-04 -9.3403666454763465e-04 8.9497310886658268e-05
406 2.8210368215667833e-04 -3.2162132625829758e-04 -9.2543382675107648e-04
407 3.8735401145142788e-04 -2.1951412565130571e-04 -9.1672768572820793e-04
408 8.7008080570319721e-05 5.2236997780628436e-04 -8.6616879951057076e-04
409 -8.8061974961638569e-04 4.1990518294691791e-04 1.6082586956572920e-04
410 -4.5368469553342273e-04 8.0512993596599321e-04 3.5840528427331193e-04
411 5.8638706500939929e-04 4.4121983223003366e-04 -6.8587037372752028e-04
412 4.6403883530694081e-04 6.4523526873487016e-04 6.0954616557415723e-04
413 8.1026793599824054e-04 3.1007233375678815e-04 4.9056300665937277e-04
414 8.3533270592186127e-04 3.8586176112386227e-04 3.7020321439359071e-04
415 3.3406850982027302e-05 -1.7496476880320738e-04 -1.0099485559771323e-03
416 -9.6259038432052640e-04 2.0940603799030790e-04 -5.4110856691379446e-05
417 -8.3516876080895347e-05 4.1385646695929072e-04 -9.2767678800465155e-04
418 -1.6827209558662967e-04 2.8881623656644602e-04 -9.6673066899457931e-04
419 1.9566305284317827e-05 1.9450314126868558e-04 -1.0064476844407163e-03
420 -8.2278943700290263e-05 -9.0914535707273494e-05 -1.0191118273327061e-03
421 -9.3345072091326024e-04 3.1514508740294352e-04 4.7648621220311027e-05
422 7.8829022569069994e-04 -2.6771623308200529e-04 -5.5204438957850977e-04
423 7.9141820544556519e-04 -3.8197480329696403e-04 -4.6800145262050738e-04
424 2.2971339145882742e-04 9.5150705280616708e-04 1.2615425931428092e-04
425 3.7657174079974884e-05 -6.9877976881422361e-04 -7.2558381307191190e-04
426 4.5967564451710445e-05 -5.7798879994267014e-04 -8.3213131277220370e-04
427 -7.9795461679706690e-05 -6.2880533215535234e-04 -7.8643870391954850e-04
428 3.8496993359286039e-04 -8.9481864633904828e-04 -1.6161258953047944e-04
429 3.0223887199284970e-04 -9.0074778437892458e-04 -2.7723139690351772e-04
430 3.4807337623437461e-04 -8.4190714506472567e-04 -3.9512745805574470e-04
431 -5.8408664107311738e-04 -7.1367456821039429e-04 3.6397559642849893e-04
432 -6.3077457925658851e-04 -6.1537025287385528e-04 4.6206977712153380e-04
433 1.5784730416628504e-04 -3.9152336529652416e-04 -9.2821144593814369e-04
434 -1.1538666595365188e-05 6.0585497657858586e-04 -8.1167339980954751e-04
435 6.7936591942392382e-05 7.0230568876518819e-04 -7.1766354830107750e-04
436 8.8227581216382064e-04 2.4995959397030947e-04 3.7879994957956681e-04
437 8.9701895664449536e-04 3.2593380981274533e-04 2.5812758518627902e-04
438 8.4399390890614004e-04 4.5149337392307243e-04 2.4526810585971795e-04
439 7.7343078545788143e-04 2.1879729082567391e-04 5.9617483279551678e-04
440 -5.7434496009729362e-04 7.4716533691482215e-04 3.0472477095237863e-04
441 -6.9547673674923952e-04 6.6727107042804088e-04 2.1969541328620805e-04
442 6.9457428360897582e-04 -1.2706053635345302e-04 7.1860912200912279e-04
443 7.2619411666137782e-04 -2.4816882748645181e-04 6.4686284452820431e-04
444 8.0986994865237471e-04 -2.4366847980440018e-04 5.3013956945257396e-04
445 7.3916238845095881e-04 -3.6487486211904825e-04 5.6521150389964470e-04
446 8.1542727972646343e-04 -3.5858664577044584e-04 4.4263236446730235e-04
447 7.3595918188902013e-04 -4.7538327695532452e-04 4.7256410535911810e-04
448 6.5494237249750695e-04 -4.7946864601425596e-04 5.8414389079565520e-04
449 8.0729672639196751e-04 -4.6044430822884453e-04 3.4588780464377876e-04
450 8.7500122698585257e-04 -3.4605336268600962e-04 3.1040527680771085e-04
451 6.4122301143595582e-04 -5.8324917039407557e-04 4.9219734197890710e-04
452 7.0530724565057688e-04 1.3057079298435032e-04 7.0664480775096635e-04
453 -5.5121606651289425e-04 -8.0694590695501271e-04 1.4063328987391755e-04
454 2.6407047905697597e-05 -4.5104818953737452e-04 -9.1379896258646221e-04
455 8.9724003061033002e-04 3.9010421980920112e-04 1.3179183106304862e-04
456 4.9564936298529159e-04 -2.4180119715089325e-04 -8.5219592937640096e-04
457 5.2829238863847045e-04 5.4447721187505182e-04 -6.5548220111290485e-04
458 6.1947702214567386e-04 -2.5518437440584675e-04 7.5549937717370131e-04
459 1.1816931943766943e-04 9.5691328559593871e-04 2.1689491803127348e-04
460 6.3777594201125094e-04 6.7358787343298285e-04 3.4995574647696281e-04
461 4.1004323542222091e-04 5.7621779017270793e-04 -7.1511447020995440e-04
462 -4.3161463509370081e-04 7.0679297330471474e-04 5.5676999798124857e-04
463 7.8194166107727699e-04 -1.3327632329596551e-04 -6.1163555545725747e-04
464 8.6185656254132519e-04 -2.5631666127931438e-04 -4.2367646826696860e-04
465 8.5507383706149903e-04 -3.6761011670224898e-04 -3.4215433257921900e-04
466 9.7004199293116760e-06 8.3092258041580320e-04 -5.5272875311599377e-04
467 9.1192706693001371e-04 -2.4052648742776633e-04 -3.0202836703917962e-04
468 9.0440920466817987e-04 -3.4301040822555838e-04 -2.0468097096565838e-04
469 1.5472617631313995e-04 4.0842662338026124e-04 -9.2071573398502804e-04
470 8.5752213050911013e-04 -4.4667247739091283e-04 2.0873327639020142e-04
471 9.1557350906973508e-04 -3.2740227156632723e-04 1.7505956184970893e-04
472 2.0521264977322543e-04 7.7706001244585109e-04 5.9562954093488963e-04
473 1.3294231159491509e-04 -2.5331316286281852e-04 -9.8282628840729350e-04
474 2.2033285192734779e-04 -8.9255764975148405e-04 -3.7351060372258204e-04
475 5.7042625341788104e-04 7.6102358015405402e-04 -2.7153735312420015e-04
476 3.3168506841308208e-04 7.1839077804991493e-04 6.1260628298053410e-04
477 3.0553827762432593e-04 7.3841267257938447e-04 -6.0222321853350600e-04
478 -2.1268452434708825e-04 -5.7500837790362030e-04 -8.0354063885336598e-04
479 -1.8276320502191124e-04 -6.8564828852007910e-04 -7.1247532654544288e-04
480 -3.8960889391161216e-04 8.2041887539684947e-04 -4.0013812115555458e-04
481 2.1403469367588693e-04 6.9171767348232417e-04 -6.9711556514348615e-04
482 7.7408397103898583e-04 -5.6858265243446310e-04 2.4421825799301344e-04
483 8.9119074828486911e-04 -4.1787833364406848e-04 7.1493713202091218e-05
484 9.3813735500193911e-04 -3.0182612529102234e-04 3.6492320012673345e-05
485 6.0086914580184973e-04 -2.5988967291299563e-04 -7.6915082229435936e-04
486 4.4104758593510607e-04 1.7575863262249154e-04 -8.9928959847517431e-04
487 9.7585123093090300e-04 1.2952239139157263e-04 -7.0862157984919241e-05
488 9.4360446098945084e-04 2.6806333778494647e-04 -1.1752686826166700e-04
489 9.5949987264260319e-04 2.2945294424100480e-04 8.8355507593673552e-06
490 8.9148630158879868e-04 4.1248455585795809e-04 -9.7904172093634349e-05
491 3.4066527216249667e-04 9.2512512444232922e-04 3.2441201796213139e-05
492 3.0065465615160627e-04 9.3275521556271228e-04 -1.1951056340932265e-04
493 4.3753738750576505e-04 8.8177911713361863e-04 -5.7384977476732393e-05
494 9.0876928086756469e-04 -3.7815319003342313e-04 -6.2624646369377905e-05
495 9.4667613246413604e-04 -2.6390970369572918e-04 -8.5269161511754274e-05
496 -3.8354657798651354e-04 9.0852390003022716e-04 4.5998693248061211e-06
497 9.7579065871985539e-04 1.2736657477425202e-04 7.2829050645792129e-05
498 6.7885893346138454e-04 6.7125870157564403e-04 -2.5875548042953513e-04
499 9.7490033987335928e-04 -1.3274952952908989e-04 -8.5684659558720954e-05
500 9.5884752340924528e-04 -1.1349816620923731e-04 2.1174734847374395e-04
501 9.1524444069226594e-04 -1.2640435495137438e-04 -3.6111759636906242e-04
502 8.6409574847880113e-04 1.2721038942543886e-04 -4.7828327738755452e-04
503 8.6441775459335159e-04 -1.2135706957623256e-04 4.7986407996346552e-04
504 4.7244304233902217e-04 1.2681807442682693e-04 8.9237310387644782e-04
505 4.4614732662260807e-04 3.4449547604961948e-04 8.4310157734607336e-04
506 6.5436034053898199e-04 -3.7376734746255715e-04 6.6302468025175370e-04
507 3.2268692708669217e-04 -1.0551965767043416e-04 9.6428494835757122e-04
508 6.8877790170377234e-05 -1.2176192119946014e-04 1.0180879192238830e-03
509 1.4709516720694837e-04 -2.4970847956065975e-04 9.8169615883542940e-04
510 2.5944787067958100e-04 -2.2632361063319349e-04 9.6178274659505965e-04
511 -2.1438206980737635e-04 6.8895811756323078e-04 -7.0001884006836140e-04
512 2.8316448868824929e-04 9.1324949844181927e-04 2.5257383881431832e-04
513 5.7489153588458932e-04 -8.0159224170446011e-04 -3.8063069848539155e-05
514 2.5980033450130309e-04 -9.5127352924567732e-04 4.1698803094117256e-05
515 3.0137787651572027e-04 -9.2515181451183182e-04 1.7340047268649209e-04
516 -5.4868559594097141e-04 5.6356848451068892e-04 -6.1954635716170744e-04
517 7.6044415863132345e-04 -5.7276079078056718e-04 -2.7060433969702222e-04
518 -1.4507338674426426e-04 -9.7402251938018985e-04 -6.3267618461405423e-05
519 -2.8747319042398848e-04 -9.4196644515160994e-04 -7.2409615133358561e-05
520 -3.2952592736641332e-04 -9.0548737319046222e-04 -2.2232144992428513e-04
521 -7.7531771284557497e-04 5.2710147130231714e-04 -3.1879271809235097e-04
522 -9.7253180709746851e-04 9.3540319984868425e-05 -1.3935761848219344e-04
523 7.9076492196571949e-04 5.7467931572553462e-04 1.3453238581973356e-04
524 -7.8587513081826248e-04 -5.3948721068371012e-04 2.6537862836997620e-04
525 7.7274433148562856e-04 5.1068814079637816e-04 3.5226352528968080e-04
526 4.7376533594545983e-04 -7.7562161775126604e-04 -4.0092547797587177e-04
527 -9.3933258882713177e-04 -2.7859401628493581e-04 -1.1981958547017746e-04
528 -9.2978996058857384e-04 -8.3601641801642391e-05 3.3203371612792440e-04
529 -9.0820626868407819e-04 3.9272725391311498e-05 3.9869677460875385e-04
530 -8.4114281453585437e-04 5.4155610802171962e-05 5.3475097334086197e-04
531 -7.6683277683995451e-04 -6.1378156858623602e-04 -1.0140423851694718e-04
532 -9.6571501943827761e-04 -7.3194037220455685e-05 1.9416459028865553e-04
533 -7.3906434185623050e-04 5.2147970707780943e-04 4.0798061093737855e-04
534 -6.8736140319282293e-04 7.0599479290608014e-04 -9.1713640412742162e-06
535 -2.3270118313969420e-04 -9.0604697868867782e-04 -3.2803569160226652e-04
536 6.2964796345842003e-04 7.4542618139726655e-04 -1.5002320036627389e-04
537 -1.3906420073900210e-04 -8.8701295312093825e-04 4.2713276638395574e-04
538 -5.7128425155575553e-05 9.7905486903112856e-04 -1.0321860579188288e-04
539 -1.7231632574829051e-04 9.3598475352763477e-04 -2.6638235760741017e-04
540 4.8944887204719783e-05 9.6553994231301577e-04 -2.0494879438023286e-04
541 -9.2722583645382737e-04 2.7425342178066716e-04 2.0276616906195636e-04
542 -8.6198098829942682e-04 -4.3245266193856548e-04 2.1710947003786819e-04
543 -8.0474430756064517e-04 -8.7489775919708071e-05 5.8746158400543934e-04
544 -7.5964250208096170e-04 3.1161925050310388e-05 6.5367299634949162e-04
545 -6.6294933430622455e-04 -5.2597973761016510e-04 -5.2861276902359342e-04
546 -7.4923542188895520e-04 -4.1652299803947394e-04 -5.0774291111168918e-04
547 -7.5355143629906945e-04 -2.9648194307205081e-04 -5.8646662029796491e-04
548 -6.6979148126694306e-04 -2.8308772467917714e-04 -6.9431394380105890e-04
549 2.6418889922755472e-04 -8.0331540096605070e-04 5.3001374569281335e-04
550 5.8390634187809889e-04 5.9572574249955042e-04 5.4856337225817672e-04
551 8.7137076568840320e-04 3.4888707845641279e-04 -3.1446566220420986e-04
552 8.7754112693623086e-04 -2.3942017679616824e-04 3.9911057894860758e-04
553 1.6411653425411356e-04 -7.6912311830827531e-04 6.2108230687498041e-04
554 -4.5446214450401535e-04 -6.3922978260636605e-04 6.2486274199558271e-04
555 -4.0251844621498264e-04 -5.6108742682830473e-04 7.3350413944664884e-04
556 -8.1814978385528721e-04 -4.3733564396493651e-04 3.4937925758880644e-04
557 -6.0784523633556080e-04 -7.0690410192653682e-04 -3.3394022517722985e-04
558 -7.3500549298789384e-04 2.3981525979342629e-04 6.3755038804012257e-04
559 -6.7346688197851838e-04 -4.3754004120313003e-04 5.9647253610813024e-04
560 -5.8068282305410513e-04 -5.4468258892900333e-04 6.0775009801275546e-04
561 6.4889284888132502e-04 4.9054172005097625e-04 -5.8234856005035809e-04
562 -3.3406340720437634e-04 -6.7430392785369526e-04 -6.6500412255147642e-04
563 -4.9679377310794185e-04 5.2454290252402483e-04 6.9918344630584463e-04
564 7.0799164655928727e-04 -4.9605864688315865e-04 -4.9607291067102694e-04
565 -9.9730326395749345e-05 -3.3078437066093010e-04 9.6287391373946153e-04
566 -1.1550060182047825e-04 -4.5241889416085664e-04 9.0551834967240725e-04
567 -2.3952664042442573e-04 -3.5653650661164312e-04 9.2512894412954342e-04
568 -1.8093683842266339e-04 -6.6538483927872571e-04 7.3530512932587120e-04
569 4.0049935854637571e-04 -6.8263765918731849e-04 -6.1387922209592282e-04
570 -7.1671559296790041e-04 -8.4243926388355919e-05 6.9950450529787872e-04
571 5.7135238158658634e-04 3.2585165115473646e-04 7.6501719783278921e-04
572 5.0640448945473012e-04 -3.6805549570326760e-04 -7.9456887949804899e-04
573 1.5833473791417073e-04 -3.7173640402212078e-04 9.3747108344579969e-04
574 -7.4605269719101497e-04 1.9123248383264626e-04 -6.4101614531028540e-04
575 1.7219198359657222e-04 -5.1460355495957209e-04 -8.5859908339384807e-04
576 -4.7562217296675830e-04 -4.3644074295546800e-04 7.7834333190884386e-04
577 -3.3414817155387862e-04 3.9474279244206521e-04 -8.7448531848681118e-04
578 -2.9441106104918872e-04 2.7489132577810901e-04 -9.3731873663812108e-04
579 -3.5916834967890859e-04 1.5233186981153550e-04 -9.4255914876611969e-04
580 -5.1752411093254017e-04 1.0133444580793903e-05 -8.7426409186242438e-04
581 4.6697396924555283e-04 -5.7509899315721002e-04 6.8061759928786250e-04
582 5.0178082374969948e-04 -3.1785787168323693e-04 8.2006601414468059e-04
583 -4.7325136791116887e-04 1.4039834375664632e-04 -8.8892216845644985e-04
584 -4.4272721715275115e-04 2.0757839435648070e-04 8.9243284511698981e-04
585 -4.8892228057628977e-04 7.2062943605951191e-05 8.8924794361777454e-04
586 -3.5730753220074269e-04 -4.4699186601869381e-04 -8.3645467509746571e-04
587 7.3463229698734994e-06 9.4227682281750752e-04 3.0388810421475362e-04
588 -4.3230770705737206e-04 -8.9649244135666403e-05 -9.1841504203149548e-04
589 -3.1553083598494198e-04 -5.1153555002942539e-05 -9.7160239390397347e-04
590 -2.0559408298220685e-04 -1.4828159485509259e-04 -9.9302067063375865e-04
591 -1.7919496616735208e-04 4.7329867357629130e-04 8.8166455788078865e-04
592 -5.0326503995412066e-04 7.8950881290561833e-04 -3.2253454339227857e-04
593 -2.8381494738014359e-04 1.3467936341327063e-06 9.8350252269193555e-04
594 3.9671249582038439e-04 2.4459170556330754e-04 9.0587665557839410e-04
595 -7.9988745994792685e-04 5.4757867103945833e-04 1.8790709737417070e-04
596 4.3035363796977468e-04 -8.6845653247740145e-04 1.9500460788156922e-04
597 9.9498790162111077e-05 4.8684743895402758e-04 8.8750851305909322e-04
598 3.2283220721763867e-04 8.9677710500248476e-04 -2.6245622413726381e-04
599 1.9373022612601898e-04 -6.7359640805627979e-04 7.2358257575078902e-04
600 -5.1489560437552220e-04 -8.0052670713069924e-04 2.7162865857034864e-04
601 -8.3285957690603155e-04 4.0282088726061808e-04 -3.5516392531248004e-04
602 -8.0307594649012899e-04 3.4039615559120493e-04 -4.7819969538482980e-04
603 -7.4184014960473259e-04 -5.3181086267500160e-04 -3.9136611411469678e-04
604 -9.0146497730624064e-04 1.4045962431656931e-04 -3.8915761561632360e-04
605 -4.0480730831761994e-04 -8.9925114345020050e-04 7.9199369460131554e-06
606 -3.2856575629484691e-04 8.4148752804711724e-04 4.1127473867295916e-04
607 4.0322069497186758e-05 1.3376155579490550e-04 1.0168298771821315e-03
608 -4.8408064810355699e-05 7.8282630210490211e-04 6.2311516448822581e-04
609 -7.5074165646302074e-04 -1.7904167930997869e-04 -6.3987103823856723e-04
610 9.4348008358423005e-04 2.5576168129503863e-04 1.4280626100219025e-04
611 4.7310631431330780e-04 -1.1466336211079244e-04 -8.9402889166209881e-04
612 9.2060980960260812e-04 1.2206207320117313e-04 3.4701379944794168e-04
613 -3.7541817419136216e-04 -8.5357553323103872e-04 -3.3719776199039110e-04
614 5.7950312932051283e-05 -7.9187192655134919e-04 -6.1066120188782620e-04
615 4.5616381003688830e-04 -8.7408560142935763e-04 -4.2992452402778079e-05
616 -6.7534585678548093e-04 -6.9262048482048684e-04 -2.0552745467901273e-04
617 -9.1976978827741716e-04 -2.5616154977595033e-04 -2.5765852648265036e-04
618 -6.2411616404409339e-04 4.4608023579145733e-04 -6.4503540590115163e-04
619 1.8093528430497438e-04 -9.4260960389442401e-04 -2.4143877604074879e-04
620 -3.4831874880095215e-05 -9.3152174562215011e-04 3.3809631695579849e-04
621 3.8233846467621165e-04 -7.7097442480975379e-04 -5.0292936104458501e-04
622 -2.4900533652128833e-04 -4.7901995924799691e-04 8.5935825271294568e-04
623 7.8182315063491509e-04 -4.8454032034399552e-04 -3.7269317035148959e-04
624 9.1970389646681572e-04 1.2518673812905533e-04 -3.4892360793748644e-04
625 -4.1714526917568522e-04 6.3086297416561237e-04 6.5813014325389252e-04
626 -2.7881963074084267e-04 -5.8023634298461373e-04 7.7802039706678248e-04
627 -1.0791913549788687e-04 5.8652521568965555e-04 8.1775516320928081e-04
628 4.7927656484271264e-04 8.6011534985708184e-04 6.3051113299114655e-05
629 -9.5032502828813661e-04 4.6127529617734475e-05 2.6922555701012010e-04
630 -5.9969215608307667e-04 7.6468831213226201e-04 1.7294040612712966e-04
631 -8.2623312440099179e-04 -2.1081715242997665e-04 -5.1617486570398278e-04
632 -3.9741316339273798e-04 8.6592803624429583e-04 -2.6474925639486264e-04
633 9.2011082022948191e-04 2.4532234366269750e-04 -2.6793329786120346e-04
634 -3.7071040222125918e-04 9.7675163495482441e-05 9.4652767498283900e-04
635 3.8761433269488124e-04 -9.0529046261605842e-04 6.8542980157902089e-05
636 -6.7283651923958989e-05 -9.6448356586495475e-04 2.0573798994016947e-04
637 -5.1463660232867648e-04 -5.6732995870220996e-05 8.7459276112934259e-04
638 4.6609706678326767e-04 2.6408603093820715e-04 -8.6116205070655132e-04
639 4.7356981156907992e-04 -1.2084570408757478e-04 8.9260277385813452e-04
640 -7.4026032508140547e-05 6.9616771102832295e-04 -7.2326677895291169e-04
641 -9.4318685806733327e-04 2.2060666185748698e-04 -1.9121131499389178e-04
642 -8.7096995878533669e-04 2.7694288158833252e-04 -3.8460196219192931e-04
643 2.9543518404337037e-04 -7.2106256225858264e-04 6.3010738724458815e-04
644 5.6670560412638458e-04 -4.8132137273364933e-04 6.7503226867354933e-04
645 6.2919057066791208e-04 2.5402776837905053e-04 -7.4574059868936983e-04
646 -2.4028737049632822e-04 1.1555177112232021e-04 9.8857539645021012e-04
647 2.1257096590266337e-05 5.8287706851879988e-04 8.2813331581985236e-04
648 -7.4450489072438032e-04 5.7918883511706492e-04 2.9748642424146045e-04
649 -2.6956595196488137e-04 9.4662131759179935e-04 6.4404986025186754e-05
650 9.2551807998299501e-04 -2.2918646376230445e-04 2.6504735313304312e-04
651 -4.7167775401268263e-04 -8.4299495457082919e-04 -2.1254482788526395e-04
652 -8.6362775270752668e-04 -3.5172516408240532e-04 -3.3287210849769017e-04
653 -2.3961602771746792e-04 1.5163256784046553e-04 -9.8392211317974696e-04
654 8.3655087471220288e-04 -4.6227794420738397e-04 -2.5480762181141368e-04
655 -7.2518967527923975e-04 4.0119559470758783e-04 -5.5536980345907217e-04
656 6.9326677615590691e-04 -1.3360730889919959e-04 -7.1800876425175358e-04
657 -7.3362837106458363e-04 -5.3693730335953999e-04 3.9857504056853949e-04
658 -4.0476116264489653e-04 4.5307615369870429e-05 -9.3472816965669181e-04
659 -1.9593896230363971e-04 -6.6762846613453024e-06 -1.0081578882328948e-03
660 -6.6629393700492727e-05 4.9831927326713103e-05 -1.0238059519153599e-03
661 8.5534908634311976e-04 -4.8994317957284461e-04 -3.6730299912019084e-05
662 2.4832771281098374e-05 -3.0864175377405095e-04 9.7623810317330555e-04
663 5.1372014734004854e-04 8.2676151288452247e-04 -1.6142432996030665e-04
664 -2.8258923491803834e-04 9.4210152955913253e-04 -7.2096076111218126e-05
665 -2.8649098670312635e-04 9.2306880693662080e-04 -2.0236418131914269e-04
666 -1.0324852421910303e-04 1.6398137004691003e-04 -1.0085945998294355e-03
667 2.5634836327800310e-04 -8.2945819879721625e-04 -4.8799827302707362e-04
668 -6.0459213411611485e-04 5.1514898604238066e-05 8.0961910923777489e-04
669 -8.2055382659225668e-04 -3.2518631378993971e-04 -4.5720449948274857e-04
670 -4.9137185117963740e-04 8.5055617760159958e-04 8.9178895795632637e-05
671 -9.5246576434490778e-04 1.5231591441384129e-04 2.1096353561757771e-04
672 5.7036670800048083e-04 -3.6838014133972922e-04 7.4483145757188430e-04
673 -4.4343718131323334e-05 3.0801783435510259e-04 -9.7446433289672893e-04
674 -1.9200330857779789e-04 -9.5602826693610358e-04 1.5536249505397834e-04
675 4.2213763032856441e-04 7.3671985407750343e-04 5.2244721786133888e-04
676 8.1373366566693268e-05 7.4841151413210054e-04 6.6380106538867180e-04
677 5.2346814801424823e-04 2.3802598051417666e-04 8.3422242190248237e-04
678 -4.8484828663184322e-04 -7.7043565258276916e-04 3.9487485407297269e-04
679 3.4584952095481923e-04 -9.8691057327150996e-05 -9.5735736178799143e-04
680 4.0512047202105156e-04 -6.6583180312180916e-04 6.3054587376191388e-04
681 -8.7412610282429891e-04 1.4713356136185604e-04 4.4975475291993426e-04
682 -8.8874599788812492e-04 4.2673331720996239e-04 8.2579484154505420e-06
683 -1.0164381654740513e-04 -3.0782894782283407e-05 1.0212305563513315e-03
684 3.3402253902072444e-04 -9.2638066070564263e-04 -6.0427320590428596e-05
685 4.0805373177259582e-04 8.8117390495674882e-04 -1.7497529705811420e-04
686 1.7620315384274136e-04 -8.0110806695255204e-04 -5.7051433350841744e-04
687 1.6699820428198544e-04 9.6390595270691329e-04 -1.2714823239350868e-04
688 -8.0583892721491001e-04 -4.2149111650766107e-04 -3.9626797428928017e-04
689 -5.3732919675958130e-04 -6.4074927937069403e-04 5.4496535659172079e-04
690 5.8429175956008477e-04 -6.7545243044692972e-04 4.3655048345623258e-04
691 9.5434746973933015e-04 -2.1510555100773222e-04 1.3085684954098595e-04
692 -6.8056340706801007e-04 -5.2036171288197697e-04 5.0885525375835559e-04
693 9.2653766206534055e-04 2.1848327712811053e-04 2.6786914562075716e-04
694 -1.7487376536398170e-04 9.5943799408645817e-04 -1.4764878441354937e-04
695 9.0196070439794160e-04 3.4766965203609818e-04 -2.0317546448691379e-04
696 -5.0389354312733756e-05 6.9614599977849958e-04 7.2720666697676981e-04
697 -3.5465752638940340e-04 -4.9080764301472827e-04 8.1032708112666594e-04
698 9.2433360234956666e-04 3.4558334772017899e-04 1.6755923291194280e-05
699 -5.0349379382151778e-04 -5.2207047475174532e-04 6.9699694127673577e-04
700 -6.8674354932580367e-04 2.1720715207538737e-05 7.3622964582528195e-04
701 5.7329577057435241e-04 -5.6061097613081367e-04 5.9943974086135697e-04
702 -6.9096859211889268e-04 -6.3119158499744601e-04 -3.2400864915561379e-04
703 -7.6767669977820545e-04 2.8243880090053484e-04 -5.7266398734996248e-04
704 2.9128979816753912e-05 4.2389607073248925e-04 -9.2620784458182480e-04
705 3.3110035751329959e-04 6.5453700053822990e-04 -6.8561463518445503e-04
706 -3.3322967588216544e-04 7.0610273866377556e-04 6.2653937640179543e-04
707 1.0752645484892410e-04 -9.1849324565249969e-04 -3.5842217625653129e-04
708 -6.7215346055486387e-04 7.1338850173084103e-04 1.0602809005232315e-04
709 1.0280526805889073e-05 7.6762197157232207e-04 -6.4398658651473688e-04
710 -4.1266253375753882e-04 7.7532497265023681e-04 4.6620781096857740e-04
711 -9.1706128231955765e-04 2.1562428672985628e-04 -3.0058287709992072e-04
712 7.9415792793526550e-04 1.0034583756091040e-04 6.0071538424175260e-04
713 -2.1577129473016634e-04 -7.5351455977115266e-04 -6.2264281493154181e-04
714 6.6650330367785157e-04 3.5706706341615972e-04 -6.5982936618705433e-04
715 -2.1271891088844936e-04 -9.6273274881054037e-04 2.8933185822722822e-05
716 -3.2111927459388878e-04 6.5542165351748898e-05 -9.6813887520180177e-04
717 -3.9616169538668478e-04 -8.9635038753104878e-04 -1.1653905186215723e-04
718 5.2373969884793737e-04 -2.0987366117162430e-04 8.4274265858422617e-04
719 7.3474965471635473e-04 -5.4424211523989674e-04 3.8593739210379522e-04
720 8.4844466685606728e-04 4.8472653957988690e-04 1.3891250279176307e-04
721 2.8208168909222534e-04 -2.0214814747551336e-04 -9.6177927434673539e-04
722 -5.7359701071820065e-04 -7.6680435462262928e-04 -2.4616304463281885e-04
723 3.1729590851727862e-05 1.1180513485996363e-04 -1.0194025544040513e-03
724 -2.0654753320578932e-04 7.2882193215477291e-04 6.5856850125986359e-04
725 8.7140810905923967e-04 -4.3902805346321069e-04 -1.4941325121771239e-04
726 6.2130042063111358e-04 2.2367971401124703e-04 7.6261428457202231e-04
727 7.8602149675540344e-04 5.4595780527134734e-04 2.4486270587411853e-04
728 5.6454418245858702e-04 6.0052866480461806e-04 -5.6353511092056222e-04
729 5.1656104351297980e-04 1.0877857112888351e-04 -8.6662929746060796e-04
730 7.1200850643542894e-04 5.9521001650754792e-04 3.4734587403333864e-04
731 -2.7266432099910744e-04 -6.2585033095503698e-04 -7.3895442002958371e-04
732 3.4568488460431874e-04 6.3360857571759049e-04 6.9953254721083014e-04
733 -8.0099216178820809e-05 9.6107777385273066e-04 -2.1107750927003058e-04
734 -2.6108548995075638e-04 -4.9514919602513087e-04 -8.4497268613632336e-04
735 9.4377423134075502e-04 -2.2305257182966384e-04 -1.8775626004880781e-04
736 9.6583433420933636e-04 -1.9951893873611175e-04 3.0998459063212756e-06
737 -3.3995265322283311e-05 -1.0871943624638402e-04 1.0206779485792911e-03
738 -5.0075055857146903e-04 -8.4787669143695599e-04 5.3967772787185399e-05
739 5.4484113269432928e-04 2.2762665431388197e-04 -8.2189330490212349e-04
740 -7.7536542638478509e-04 1.3240660493689380e-04 6.1892676781587837e-04
741 -1.8407477003692818e-04 2.8297188488954500e-05 1.0081811899268513e-03
742 -5.5399574155959048e-04 -6.8577856540150541e-04 4.5976342589473254e-04
743 -1.6608361956070043e-05 5.1799897325385173e-04 -8.7351580306543918e-04
744 2.8402588918302938e-04 -9.2939565461913533e-04 -1.7611920013384865e-04
745 -6.3898961597457480e-05 -7.0159478624641427e-04 -7.1725787148317513e-04
$EndNodes
$Elements
1486
1 2 2 0 0 410 440 345
2 2 2 0 0 421 541 409
3 2 2 0 0 409 682 421
4 2 2 0 0 545 603 546
5 2 2 0 0 426 427 294
6 2 2 0 0 294 454 426
7 2 2 0 0 265 682 409
8 2 2 0 0 24 41 4
9 2 2 0 0 3 24 4
10 2 2 0 0 238 642 602
11 2 2 0 0 520 651 613
12 2 2 0 0 653 666 659
13 2 2 0 0 404 460 98
14 2 2 0 0 222 482 219
15 2 2 0 0 40 463 9
16 2 2 0 0 608 724 696
17 2 2 0 0 435 709 69
18 2 2 0 0 413 439 29
19 2 2 0 0 345 710 410
20 2 2 0 0 422 463 40
21 2 2 0 0 98 550 404
22 2 2 0 0 95 724 608
23 2 2 0 0 4 41 5
24 2 2 0 0 232 701 581
25 2 2 0 0 490 698 488
26 2 2 0 0 29 436 413
27 2 2 0 0 416 421 342
28 2 2 0 0 312 595 441
29 2 2 0 0 41 486 5
30 2 2 0 0 405 605 519
31 2 2 0 0 409 595 265
32 2 2 0 0 69 481 435
33 2 2 0 0 434 743 339
34 2 2 0 0 342 641 416
35 2 2 0 0 485 656 370
36 2 2 0 0 89 587 90
37 2 2 0 0 108 466 317
38 2 2 0 0 378 629 529
39 2 2 0 0 581 680 232
40 2 2 0 0 281 434 339
41 2 2 0 0 638 739 486
42 2 2 0 0 659 666 660
43 2 2 0 0 345 440 346
44 2 2 0 0 22 44 25
45 2 2 0 0 9 463 8
46 2 2 0 0 44 81 25
47 2 2 0 0 459 587 89
48 2 2 0 0 127 670 630
49 2 2 0 0 508 662 509
50 2 2 0 0 375 662 508
51 2 2 0 0 492 598 103
52 2 2 0 0 604 642 238
53 2 2 0 0 507 510 399
54 2 2 0 0 488 698 489
55 2 2 0 0 34 473 415
56 2 2 0 0 399 639 507
57 2 2 0 0 603 688 546
58 2 2 0 0 316 541 421
59 2 2 0 0 647 696 627
60 2 2 0 0 403 439 352
61 2 2 0 0 221 603 545
62 2 2 0 0 595 648 441
63 2 2 0 0 412 550 98
64 2 2 0 0 411 714 397
65 2 2 0 0 486 739 729
66 2 2 0 0 696 724 401
67 2 2 0 0 247 482 222
68 2 2 0 0 397 714 645
69 2 2 0 0 613 651 212
70 2 2 0 0 207 745 425
71 2 2 0 0 98 675 412
72 2 2 0 0 219 482 230
73 2 2 0 0 560 692 432
74 2 2 0 0 432 689 560
75 2 2 0 0 454 575 426
76 2 2 0 0 352 439 413
77 2 2 0 0 415 420 2
78 2 2 0 0 40 464 422
79 2 2 0 0 89 512 459
80 2 2 0 0 425 614 207
81 2 2 0 0 377 600 453
82 2 2 0 0 89 90 88
83 2 2 0 0 80 466 108
84 2 2 0 0 520 717 651
85 2 2 0 0 602 703 238
86 2 2 0 0 103 687 492
87 2 2 0 0 253 491 424
88 2 2 0 0 69 709 466
89 2 2 0 0 424 512 253
90 2 2 0 0 369 696 647
91 2 2 0 0 581 701 644
92 2 2 0 0 630 670 392
93 2 2 0 0 32 656 485
94 2 2 0 0 459 512 424
95 2 2 0 0 90 91 88
96 2 2 0 0 427 478 294
97 2 2 0 0 488 695 490
98 2 2 0 0 554 699 560
99 2 2 0 0 67 80 79
100 2 2 0 0 252 454 294
101 2 2 0 0 253 628 491
102 2 2 0 0 529 681 378
103 2 2 0 0 519 715 405
104 2 2 0 0 440 441 346
105 2 2 0 0 605 717 519
106 2 2 0 0 403 452 439
107 2 2 0 0 507 639 21
108 2 2 0 0 565 567 566
109 2 2 0 0 433 454 341
110 2 2 0 0 67 466 80
111 2 2 0 0 555 697 576
112 2 2 0 0 491 628 493
113 2 2 0 0 389 641 342
114 2 2 0 0 429 619 474
115 2 2 0 0 40 501 464
116 2 2 0 0 576 699 555
117 2 2 0 0 311 600 377
118 2 2 0 0 567 622 566
119 2 2 0 0 433 575 454
120 2 2 0 0 378 671 629
121 2 2 0 0 79 540 103
122 2 2 0 0 341 473 433
123 2 2 0 0 673 704 68
124 2 2 0 0 462 710 345
125 2 2 0 0 557 722 616
126 2 2 0 0 573 662 343
127 2 2 0 0 370 656 463
128 2 2 0 0 341 454 252
129 2 2 0 0 616 702 557
130 2 2 0 0 6 26 7
131 2 2 0 0 464 501 467
132 2 2 0 0 433 473 406
133 2 2 0 0 8 45 37
134 2 2 0 0 466 709 317
135 2 2 0 0 457 461 379
136 2 2 0 0 84 512 86
137 2 2 0 0 19 452 33
138 2 2 0 0 380 614 425
139 2 2 0 0 83 540 79
140 2 2 0 0 398 510 509
141 2 2 0 0 609 631 137
142 2 2 0 0 18 442 36
143 2 2 0 0 26 45 7
144 2 2 0 0 565 566 343
145 2 2 0 0 80 83 79
146 2 2 0 0 560 689 554
147 2 2 0 0 134 137 136
148 2 2 0 0 68 469 42
149 2 2 0 0 659 716 653
150 2 2 0 0 619 707 474
151 2 2 0 0 497 610 39
152 2 2 0 0 137 138 136
153 2 2 0 0 283 573 343
154 2 2 0 0 506 644 448
155 2 2 0 0 499 735 31
156 2 2 0 0 81 97 25
157 2 2 0 0 45 46 37
158 2 2 0 0 585 668 637
159 2 2 0 0 495 735 499
160 2 2 0 0 399 510 398
161 2 2 0 0 509 573 398
162 2 2 0 0 442 443 36
163 2 2 0 0 1 607 314
164 2 2 0 0 29 612 436
165 2 2 0 0 547 631 609
166 2 2 0 0 360 595 409
167 2 2 0 0 421 682 342
168 2 2 0 0 426 575 327
169 2 2 0 0 123 577 235
170 2 2 0 0 339 743 417
171 2 2 0 0 7 45 8
172 2 2 0 0 3 723 24
173 2 2 0 0 418 666 653
174 2 2 0 0 59 60 58
175 2 2 0 0 620 636 193
176 2 2 0 0 42 469 47
177 2 2 0 0 65 67 66
178 2 2 0 0 509 662 573
179 2 2 0 0 470 482 247
180 2 2 0 0 368 476 472
181 2 2 0 0 530 740 337
182 2 2 0 0 253 512 84
183 2 2 0 0 455 698 282
184 2 2 0 0 61 65 62
185 2 2 0 0 59 61 60
186 2 2 0 0 91 472 88
187 2 2 0 0 90 92 91
188 2 2 0 0 19 442 18
189 2 2 0 0 464 465 423
190 2 2 0 0 706 724 118
191 2 2 0 0 456 611 32
192 2 2 0 0 379 477 61
193 2 2 0 0 417 743 704
194 2 2 0 0 314 683 1
195 2 2 0 0 442 458 443
196 2 2 0 0 11 28 12
197 2 2 0 0 61 62 60
198 2 2 0 0 118 724 95
199 2 2 0 0 22 25 23
200 2 2 0 0 247 483 470
201 2 2 0 0 281 640 434
202 2 2 0 0 197 667 474
203 2 2 0 0 86 512 89
204 2 2 0 0 417 704 673
205 2 2 0 0 451 690 230
206 2 2 0 0 27 442 19
207 2 2 0 0 637 668 229
208 2 2 0 0 60 475 58
209 2 2 0 0 489 610 497
210 2 2 0 0 307 573 283
211 2 2 0 0 61 477 65
212 2 2 0 0 65 66 62
213 2 2 0 0 544 740 530
214 2 2 0 0 230 719 451
215 2 2 0 0 18 452 19
216 2 2 0 0 268 569 269
217 2 2 0 0 32 485 456
218 2 2 0 0 627 696 401
219 2 2 0 0 24 42 41
220 2 2 0 0 20 27 19
221 2 2 0 0 330 461 457
222 2 2 0 0 506 672 644
223 2 2 0 0 472 476 87
224 2 2 0 0 468 495 494
225 2 2 0 0 88 472 87
226 2 2 0 0 121 577 123
227 2 2 0 0 327 575 276
228 2 2 0 0 422 464 423
229 2 2 0 0 47 63 49
230 2 2 0 0 458 506 443
231 2 2 0 0 232 690 451
232 2 2 0 0 28 487 12
233 2 2 0 0 80 107 83
234 2 2 0 0 608 696 676
235 2 2 0 0 356 481 355
236 2 2 0 0 138 238 136
237 2 2 0 0 137 139 138
238 2 2 0 0 729 739 26
239 2 2 0 0 81 99 97
240 2 2 0 0 46 50 37
241 2 2 0 0 463 656 8
242 2 2 0 0 443 444 36
243 2 2 0 0 68 704 469
244 2 2 0 0 24 68 42
245 2 2 0 0 16 503 30
246 2 2 0 0 65 69 67
247 2 2 0 0 67 79 66
248 2 2 0 0 676 696 369
249 2 2 0 0 59 379 61
250 2 2 0 0 90 93 92
251 2 2 0 0 464 467 465
252 2 2 0 0 441 708 312
253 2 2 0 0 483 484 471
254 2 2 0 0 427 479 478
255 2 2 0 0 245 564 244
256 2 2 0 0 470 483 471
257 2 2 0 0 473 721 406
258 2 2 0 0 555 699 554
259 2 2 0 0 47 469 63
260 2 2 0 0 63 355 49
261 2 2 0 0 62 64 60
262 2 2 0 0 80 108 107
263 2 2 0 0 107 539 83
264 2 2 0 0 139 140 138
265 2 2 0 0 99 100 97
266 2 2 0 0 81 236 99
267 2 2 0 0 46 51 50
268 2 2 0 0 443 445 444
269 2 2 0 0 24 419 68
270 2 2 0 0 69 466 67
271 2 2 0 0 79 103 66
272 2 2 0 0 65 477 69
273 2 2 0 0 547 548 321
274 2 2 0 0 93 94 92
275 2 2 0 0 467 468 465
276 2 2 0 0 333 664 649
277 2 2 0 0 55 498 56
278 2 2 0 0 56 498 72
279 2 2 0 0 12 499 31
280 2 2 0 0 63 356 355
281 2 2 0 0 108 110 107
282 2 2 0 0 139 141 140
283 2 2 0 0 100 101 97
284 2 2 0 0 236 248 99
285 2 2 0 0 81 594 236
286 2 2 0 0 51 52 50
287 2 2 0 0 192 515 195
288 2 2 0 0 445 446 444
289 2 2 0 0 477 481 69
290 2 2 0 0 94 95 92
291 2 2 0 0 93 96 94
292 2 2 0 0 63 408 356
293 2 2 0 0 108 111 110
294 2 2 0 0 110 117 107
295 2 2 0 0 139 154 141
296 2 2 0 0 141 142 140
297 2 2 0 0 51 53 52
298 2 2 0 0 100 102 101
299 2 2 0 0 236 250 248
300 2 2 0 0 445 447 446
301 2 2 0 0 52 388 50
302 2 2 0 0 277 622 567
303 2 2 0 0 95 608 92
304 2 2 0 0 94 118 95
305 2 2 0 0 93 104 96
306 2 2 0 0 51 561 53
307 2 2 0 0 408 434 356
308 2 2 0 0 53 54 52
309 2 2 0 0 445 448 447
310 2 2 0 0 108 317 111
311 2 2 0 0 141 143 142
312 2 2 0 0 142 225 140
313 2 2 0 0 102 166 101
314 2 2 0 0 250 325 248
315 2 2 0 0 100 258 102
316 2 2 0 0 53 55 54
317 2 2 0 0 447 449 446
318 2 2 0 0 236 505 250
319 2 2 0 0 104 105 96
320 2 2 0 0 53 57 55
321 2 2 0 0 55 56 54
322 2 2 0 0 448 451 447
323 2 2 0 0 14 39 15
324 2 2 0 0 317 511 111
325 2 2 0 0 10 40 9
326 2 2 0 0 143 144 142
327 2 2 0 0 57 58 55
328 2 2 0 0 8 37 9
329 2 2 0 0 14 38 13
330 2 2 0 0 166 314 101
331 2 2 0 0 18 36 17
332 2 2 0 0 16 29 17
333 2 2 0 0 33 504 20
334 2 2 0 0 325 365 248
335 2 2 0 0 199 202 196
336 2 2 0 0 7 32 6
337 2 2 0 0 434 435 356
338 2 2 0 0 74 75 73
339 2 2 0 0 223 239 234
340 2 2 0 0 74 76 75
341 2 2 0 0 72 74 73
342 2 2 0 0 231 549 201
343 2 2 0 0 202 205 204
344 2 2 0 0 226 227 214
345 2 2 0 0 272 275 271
346 2 2 0 0 276 318 275
347 2 2 0 0 213 214 209
348 2 2 0 0 76 77 75
349 2 2 0 0 210 231 201
350 2 2 0 0 16 30 15
351 2 2 0 0 205 209 208
352 2 2 0 0 202 204 196
353 2 2 0 0 318 406 340
354 2 2 0 0 195 196 193
355 2 2 0 0 322 420 415
356 2 2 0 0 239 240 234
357 2 2 0 0 163 588 168
358 2 2 0 0 12 31 11
359 2 2 0 0 56 72 71
360 2 2 0 0 425 426 327
361 2 2 0 0 19 33 20
362 2 2 0 0 168 224 215
363 2 2 0 0 209 568 216
364 2 2 0 0 318 433 406
365 2 2 0 0 269 271 270
366 2 2 0 0 268 269 245
367 2 2 0 0 21 639 20
368 2 2 0 0 84 85 82
369 2 2 0 0 181 207 183
370 2 2 0 0 269 272 271
371 2 2 0 0 272 276 275
372 2 2 0 0 242 243 240
373 2 2 0 0 102 167 166
374 2 2 0 0 223 234 233
375 2 2 0 0 283 343 227
376 2 2 0 0 205 208 204
377 2 2 0 0 213 226 214
378 2 2 0 0 271 572 347
379 2 2 0 0 243 268 245
380 2 2 0 0 335 398 307
381 2 2 0 0 303 555 554
382 2 2 0 0 226 283 227
383 2 2 0 0 347 485 370
384 2 2 0 0 195 199 196
385 2 2 0 0 205 213 209
386 2 2 0 0 246 322 252
387 2 2 0 0 76 78 77
388 2 2 0 0 133 163 135
389 2 2 0 0 163 168 164
390 2 2 0 0 322 415 341
391 2 2 0 0 227 361 214
392 2 2 0 0 191 198 189
393 2 2 0 0 78 84 82
394 2 2 0 0 209 216 208
395 2 2 0 0 78 82 77
396 2 2 0 0 216 303 266
397 2 2 0 0 417 418 362
398 2 2 0 0 314 607 101
399 2 2 0 0 339 362 280
400 2 2 0 0 243 245 244
401 2 2 0 0 187 291 185
402 2 2 0 0 429 430 359
403 2 2 0 0 143 145 144
404 2 2 0 0 202 553 205
405 2 2 0 0 339 417 362
406 2 2 0 0 131 580 133
407 2 2 0 0 239 242 240
408 2 2 0 0 57 59 58
409 2 2 0 0 224 246 215
410 2 2 0 0 84 86 85
411 2 2 0 0 303 554 266
412 2 2 0 0 72 73 71
413 2 2 0 0 437 438 414
414 2 2 0 0 318 340 275
415 2 2 0 0 269 270 245
416 2 2 0 0 86 87 85
417 2 2 0 0 192 193 191
418 2 2 0 0 123 235 129
419 2 2 0 0 263 374 262
420 2 2 0 0 425 427 426
421 2 2 0 0 149 150 147
422 2 2 0 0 210 232 231
423 2 2 0 0 74 373 76
424 2 2 0 0 168 215 169
425 2 2 0 0 259 262 249
426 2 2 0 0 145 146 144
427 2 2 0 0 367 524 289
428 2 2 0 0 271 347 270
429 2 2 0 0 406 407 340
430 2 2 0 0 334 459 424
431 2 2 0 0 429 474 430
432 2 2 0 0 250 328 325
433 2 2 0 0 431 432 367
434 2 2 0 0 104 278 105
435 2 2 0 0 145 147 146
436 2 2 0 0 151 152 150
437 2 2 0 0 235 583 129
438 2 2 0 0 237 249 228
439 2 2 0 0 149 151 150
440 2 2 0 0 159 161 158
441 2 2 0 0 153 155 152
442 2 2 0 0 156 158 155
443 2 2 0 0 354 367 289
444 2 2 0 0 259 263 262
445 2 2 0 0 190 191 189
446 2 2 0 0 177 221 174
447 2 2 0 0 162 228 161
448 2 2 0 0 124 516 386
449 2 2 0 0 418 653 578
450 2 2 0 0 371 584 295
451 2 2 0 0 151 153 152
452 2 2 0 0 153 156 155
453 2 2 0 0 159 162 161
454 2 2 0 0 374 593 262
455 2 2 0 0 156 159 158
456 2 2 0 0 237 259 249
457 2 2 0 0 146 284 160
458 2 2 0 0 266 309 267
459 2 2 0 0 264 265 257
460 2 2 0 0 86 88 87
461 2 2 0 0 265 312 257
462 2 2 0 0 162 237 228
463 2 2 0 0 21 44 22
464 2 2 0 0 324 392 390
465 2 2 0 0 371 585 584
466 2 2 0 0 262 366 249
467 2 2 0 0 192 195 193
468 2 2 0 0 263 375 374
469 2 2 0 0 216 266 217
470 2 2 0 0 326 327 276
471 2 2 0 0 260 646 166
472 2 2 0 0 220 223 222
473 2 2 0 0 322 341 252
474 2 2 0 0 256 257 255
475 2 2 0 0 78 253 84
476 2 2 0 0 358 359 242
477 2 2 0 0 188 189 187
478 2 2 0 0 281 339 280
479 2 2 0 0 146 160 144
480 2 2 0 0 123 129 128
481 2 2 0 0 255 324 254
482 2 2 0 0 228 229 161
483 2 2 0 0 354 431 367
484 2 2 0 0 163 164 135
485 2 2 0 0 155 157 152
486 2 2 0 0 243 244 240
487 2 2 0 0 256 264 257
488 2 2 0 0 284 316 160
489 2 2 0 0 380 425 327
490 2 2 0 0 148 149 147
491 2 2 0 0 335 399 398
492 2 2 0 0 418 578 362
493 2 2 0 0 334 424 396
494 2 2 0 0 167 260 166
495 2 2 0 0 325 368 365
496 2 2 0 0 428 429 359
497 2 2 0 0 165 255 254
498 2 2 0 0 297 342 264
499 2 2 0 0 298 371 295
500 2 2 0 0 218 323 220
501 2 2 0 0 310 337 302
502 2 2 0 0 165 256 255
503 2 2 0 0 186 187 185
504 2 2 0 0 56 71 70
505 2 2 0 0 165 254 125
506 2 2 0 0 200 201 199
507 2 2 0 0 148 206 149
508 2 2 0 0 324 390 364
509 2 2 0 0 190 192 191
510 2 2 0 0 368 369 365
511 2 2 0 0 353 404 351
512 2 2 0 0 104 331 278
513 2 2 0 0 256 297 264
514 2 2 0 0 316 421 416
515 2 2 0 0 239 358 242
516 2 2 0 0 169 586 171
517 2 2 0 0 286 287 206
518 2 2 0 0 324 364 254
519 2 2 0 0 241 576 162
520 2 2 0 0 168 169 164
521 2 2 0 0 121 123 122
522 2 2 0 0 266 267 217
523 2 2 0 0 129 131 130
524 2 2 0 0 216 217 208
525 2 2 0 0 285 382 313
526 2 2 0 0 172 321 170
527 2 2 0 0 390 391 364
528 2 2 0 0 296 563 300
529 2 2 0 0 246 252 251
530 2 2 0 0 285 286 206
531 2 2 0 0 288 289 287
532 2 2 0 0 298 372 371
533 2 2 0 0 23 35 22
534 2 2 0 0 300 344 304
535 2 2 0 0 344 462 345
536 2 2 0 0 123 128 122
537 2 2 0 0 297 389 342
538 2 2 0 0 237 277 259
539 2 2 0 0 148 285 206
540 2 2 0 0 86 89 88
541 2 2 0 0 306 307 283
542 2 2 0 0 234 279 233
543 2 2 0 0 316 416 160
544 2 2 0 0 188 190 189
545 2 2 0 0 85 98 82
546 2 2 0 0 358 428 359
547 2 2 0 0 437 455 438
548 2 2 0 0 203 210 201
549 2 2 0 0 382 383 313
550 2 2 0 0 153 176 156
551 2 2 0 0 290 354 289
552 2 2 0 0 159 241 162
553 2 2 0 0 386 387 126
554 2 2 0 0 273 363 338
555 2 2 0 0 272 326 276
556 2 2 0 0 171 293 173
557 2 2 0 0 145 148 147
558 2 2 0 0 274 295 261
559 2 2 0 0 285 313 286
560 2 2 0 0 383 384 313
561 2 2 0 0 301 302 299
562 2 2 0 0 131 133 132
563 2 2 0 0 296 298 295
564 2 2 0 0 305 310 302
565 2 2 0 0 349 412 328
566 2 2 0 0 344 345 304
567 2 2 0 0 77 119 75
568 2 2 0 0 315 378 310
569 2 2 0 0 363 401 400
570 2 2 0 0 332 333 278
571 2 2 0 0 223 233 222
572 2 2 0 0 331 334 332
573 2 2 0 0 186 188 187
574 2 2 0 0 178 212 177
575 2 2 0 0 305 360 315
576 2 2 0 0 334 396 395
577 2 2 0 0 246 251 215
578 2 2 0 0 167 261 260
579 2 2 0 0 175 179 178
580 2 2 0 0 345 346 304
581 2 2 0 0 124 386 126
582 2 2 0 0 286 288 287
583 2 2 0 0 331 332 278
584 2 2 0 0 179 181 180
585 2 2 0 0 301 305 302
586 2 2 0 0 300 304 301
587 2 2 0 0 296 300 299
588 2 2 0 0 305 315 310
589 2 2 0 0 296 299 298
590 2 2 0 0 320 453 290
591 2 2 0 0 274 296 295
592 2 2 0 0 313 531 286
593 2 2 0 0 120 281 280
594 2 2 0 0 360 409 315
595 2 2 0 0 363 400 338
596 2 2 0 0 129 130 128
597 2 2 0 0 300 301 299
598 2 2 0 0 1 508 23
599 2 2 0 0 167 273 261
600 2 2 0 0 133 135 134
601 2 2 0 0 173 174 172
602 2 2 0 0 311 377 376
603 2 2 0 0 273 274 261
604 2 2 0 0 273 338 274
605 2 2 0 0 334 395 332
606 2 2 0 0 183 197 184
607 2 2 0 0 319 393 320
608 2 2 0 0 449 450 446
609 2 2 0 0 288 290 289
610 2 2 0 0 226 306 283
611 2 2 0 0 326 380 327
612 2 2 0 0 175 177 174
613 2 2 0 0 181 183 182
614 2 2 0 0 219 230 211
615 2 2 0 0 308 335 307
616 2 2 0 0 267 311 292
617 2 2 0 0 169 170 164
618 2 2 0 0 288 319 290
619 2 2 0 0 126 165 125
620 2 2 0 0 120 280 121
621 2 2 0 0 130 357 128
622 2 2 0 0 195 200 199
623 2 2 0 0 169 171 170
624 2 2 0 0 171 172 170
625 2 2 0 0 184 186 185
626 2 2 0 0 73 282 71
627 2 2 0 0 252 294 251
628 2 2 0 0 319 320 290
629 2 2 0 0 131 132 130
630 2 2 0 0 393 394 320
631 2 2 0 0 171 173 172
632 2 2 0 0 4 34 3
633 2 2 0 0 218 220 219
634 2 2 0 0 267 292 217
635 2 2 0 0 184 185 182
636 2 2 0 0 188 194 190
637 2 2 0 0 56 70 54
638 2 2 0 0 377 405 376
639 2 2 0 0 449 470 450
640 2 2 0 0 179 180 178
641 2 2 0 0 173 175 174
642 2 2 0 0 175 178 177
643 2 2 0 0 250 329 328
644 2 2 0 0 311 376 292
645 2 2 0 0 329 571 350
646 2 2 0 0 347 370 348
647 2 2 0 0 220 222 219
648 2 2 0 0 376 385 292
649 2 2 0 0 133 134 132
650 2 2 0 0 134 136 132
651 2 2 0 0 306 308 307
652 2 2 0 0 200 203 201
653 2 2 0 0 233 247 222
654 2 2 0 0 98 460 82
655 2 2 0 0 329 349 328
656 2 2 0 0 326 381 380
657 2 2 0 0 347 348 270
658 2 2 0 0 181 182 180
659 2 2 0 0 121 122 115
660 2 2 0 0 350 351 349
661 2 2 0 0 308 336 335
662 2 2 0 0 350 403 352
663 2 2 0 0 470 471 450
664 2 2 0 0 203 211 210
665 2 2 0 0 218 219 211
666 2 2 0 0 183 184 182
667 2 2 0 0 370 463 422
668 2 2 0 0 306 402 308
669 2 2 0 0 203 218 211
670 2 2 0 0 71 490 70
671 2 2 0 0 329 350 349
672 2 2 0 0 436 437 414
673 2 2 0 0 124 126 125
674 2 2 0 0 413 414 353
675 2 2 0 0 422 423 348
676 2 2 0 0 352 353 351
677 2 2 0 0 370 422 348
678 2 2 0 0 350 352 351
679 2 2 0 0 413 436 414
680 2 2 0 0 352 413 353
681 2 2 0 0 120 121 115
682 2 2 0 0 110 480 117
683 2 2 0 0 124 125 116
684 2 2 0 0 126 521 165
685 2 2 0 0 113 120 115
686 2 2 0 0 127 440 410
687 2 2 0 0 114 124 116
688 2 2 0 0 543 544 530
689 2 2 0 0 488 489 487
690 2 2 0 0 585 637 366
691 2 2 0 0 543 570 544
692 2 2 0 0 113 115 114
693 2 2 0 0 127 410 106
694 2 2 0 0 114 116 112
695 2 2 0 0 195 515 200
696 2 2 0 0 491 493 492
697 2 2 0 0 12 487 13
698 2 2 0 0 546 547 321
699 2 2 0 0 330 457 411
700 2 2 0 0 157 543 530
701 2 2 0 0 519 520 291
702 2 2 0 0 28 488 487
703 2 2 0 0 111 112 110
704 2 2 0 0 312 534 257
705 2 2 0 0 476 732 412
706 2 2 0 0 27 458 442
707 2 2 0 0 385 636 620
708 2 2 0 0 176 559 156
709 2 2 0 0 593 634 366
710 2 2 0 0 589 590 224
711 2 2 0 0 113 114 112
712 2 2 0 0 109 127 106
713 2 2 0 0 270 564 245
714 2 2 0 0 443 506 445
715 2 2 0 0 491 492 396
716 2 2 0 0 388 624 502
717 2 2 0 0 445 506 448
718 2 2 0 0 30 500 15
719 2 2 0 0 20 504 21
720 2 2 0 0 64 475 60
721 2 2 0 0 287 542 206
722 2 2 0 0 23 508 35
723 2 2 0 0 302 558 299
724 2 2 0 0 70 551 54
725 2 2 0 0 62 598 64
726 2 2 0 0 424 491 396
727 2 2 0 0 407 456 340
728 2 2 0 0 545 546 321
729 2 2 0 0 330 411 397
730 2 2 0 0 72 536 74
731 2 2 0 0 238 574 136
732 2 2 0 0 659 660 420
733 2 2 0 0 395 538 332
734 2 2 0 0 143 527 145
735 2 2 0 0 412 675 476
736 2 2 0 0 239 513 358
737 2 2 0 0 157 530 529
738 2 2 0 0 518 519 291
739 2 2 0 0 449 482 470
740 2 2 0 0 207 713 479
741 2 2 0 0 119 523 75
742 2 2 0 0 109 670 127
743 2 2 0 0 10 501 40
744 2 2 0 0 508 509 35
745 2 2 0 0 96 606 94
746 2 2 0 0 331 459 334
747 2 2 0 0 286 531 288
748 2 2 0 0 290 453 354
749 2 2 0 0 282 490 71
750 2 2 0 0 384 531 313
751 2 2 0 0 289 524 287
752 2 2 0 0 349 550 412
753 2 2 0 0 165 521 256
754 2 2 0 0 82 460 77
755 2 2 0 0 155 543 157
756 2 2 0 0 201 549 199
757 2 2 0 0 273 591 363
758 2 2 0 0 387 521 126
759 2 2 0 0 114 516 124
760 2 2 0 0 53 561 57
761 2 2 0 0 266 554 309
762 2 2 0 0 257 534 255
763 2 2 0 0 205 553 213
764 2 2 0 0 142 522 225
765 2 2 0 0 435 481 356
766 2 2 0 0 216 568 303
767 2 2 0 0 300 563 344
768 2 2 0 0 214 568 209
769 2 2 0 0 112 480 110
770 2 2 0 0 350 571 403
771 2 2 0 0 347 572 485
772 2 2 0 0 275 572 271
773 2 2 0 0 274 563 296
774 2 2 0 0 171 586 293
775 2 2 0 0 162 576 237
776 2 2 0 0 133 580 163
777 2 2 0 0 11 501 10
778 2 2 0 0 295 584 261
779 2 2 0 0 129 583 131
780 2 2 0 0 215 586 169
781 2 2 0 0 250 505 329
782 2 2 0 0 168 588 224
783 2 2 0 0 321 548 170
784 2 2 0 0 262 593 366
785 2 2 0 0 166 646 314
786 2 2 0 0 520 535 291
787 2 2 0 0 373 663 493
788 2 2 0 0 291 535 185
789 2 2 0 0 101 607 97
790 2 2 0 0 130 574 357
791 2 2 0 0 158 570 543
792 2 2 0 0 31 501 11
793 2 2 0 0 444 552 503
794 2 2 0 0 156 559 159
795 2 2 0 0 236 594 505
796 2 2 0 0 206 542 149
797 2 2 0 0 54 551 52
798 2 2 0 0 74 536 373
799 2 2 0 0 337 558 302
800 2 2 0 0 150 532 147
801 2 2 0 0 379 728 457
802 2 2 0 0 299 558 298
803 2 2 0 0 332 538 333
804 2 2 0 0 145 527 148
805 2 2 0 0 514 515 192
806 2 2 0 0 15 500 14
807 2 2 0 0 75 523 73
808 2 2 0 0 467 501 31
809 2 2 0 0 254 592 125
810 2 2 0 0 172 545 321
811 2 2 0 0 144 522 142
812 2 2 0 0 528 532 150
813 2 2 0 0 187 518 291
814 2 2 0 0 553 599 213
815 2 2 0 0 383 603 384
816 2 2 0 0 282 698 490
817 2 2 0 0 244 517 240
818 2 2 0 0 353 525 404
819 2 2 0 0 395 540 538
820 2 2 0 0 94 606 118
821 2 2 0 0 117 539 107
822 2 2 0 0 185 535 182
823 2 2 0 0 388 502 50
824 2 2 0 0 167 591 273
825 2 2 0 0 147 532 146
826 2 2 0 0 92 608 91
827 2 2 0 0 472 676 368
828 2 2 0 0 364 592 254
829 2 2 0 0 21 504 44
830 2 2 0 0 365 597 248
831 2 2 0 0 125 592 116
832 2 2 0 0 588 589 224
833 2 2 0 0 111 113 112
834 2 2 0 0 63 469 408
835 2 2 0 0 105 109 106
836 2 2 0 0 242 526 243
837 2 2 0 0 439 712 29
838 2 2 0 0 240 517 234
839 2 2 0 0 346 533 304
840 2 2 0 0 14 500 38
841 2 2 0 0 494 495 484
842 2 2 0 0 127 630 440
843 2 2 0 0 208 537 204
844 2 2 0 0 175 562 179
845 2 2 0 0 303 626 555
846 2 2 0 0 359 526 242
847 2 2 0 0 243 526 268
848 2 2 0 0 217 537 208
849 2 2 0 0 58 498 55
850 2 2 0 0 503 552 30
851 2 2 0 0 13 499 12
852 2 2 0 0 268 621 569
853 2 2 0 0 489 497 487
854 2 2 0 0 475 498 58
855 2 2 0 0 430 526 359
856 2 2 0 0 248 597 99
857 2 2 0 0 292 537 217
858 2 2 0 0 26 645 45
859 2 2 0 0 234 517 279
860 2 2 0 0 14 497 39
861 2 2 0 0 385 537 292
862 2 2 0 0 305 533 360
863 2 2 0 0 304 533 301
864 2 2 0 0 146 532 284
865 2 2 0 0 483 494 484
866 2 2 0 0 173 562 175
867 2 2 0 0 116 480 112
868 2 2 0 0 224 590 246
869 2 2 0 0 189 518 187
870 2 2 0 0 498 536 72
871 2 2 0 0 414 525 353
872 2 2 0 0 160 522 144
873 2 2 0 0 547 609 548
874 2 2 0 0 182 535 180
875 2 2 0 0 297 601 389
876 2 2 0 0 44 594 81
877 2 2 0 0 301 533 305
878 2 2 0 0 105 106 96
879 2 2 0 0 515 596 200
880 2 2 0 0 293 562 173
881 2 2 0 0 73 523 282
882 2 2 0 0 148 527 285
883 2 2 0 0 174 545 172
884 2 2 0 0 218 596 323
885 2 2 0 0 200 596 203
886 2 2 0 0 149 542 151
887 2 2 0 0 446 552 444
888 2 2 0 0 49 461 330
889 2 2 0 0 330 397 48
890 2 2 0 0 453 738 377
891 2 2 0 0 255 534 324
892 2 2 0 0 52 551 388
893 2 2 0 0 634 646 260
894 2 2 0 0 513 615 358
895 2 2 0 0 438 525 414
896 2 2 0 0 516 618 386
897 2 2 0 0 198 518 189
898 2 2 0 0 227 566 361
899 2 2 0 0 559 560 241
900 2 2 0 0 90 587 93
901 2 2 0 0 416 522 160
902 2 2 0 0 102 591 167
903 2 2 0 0 134 609 137
904 2 2 0 0 298 558 372
905 2 2 0 0 132 574 130
906 2 2 0 0 106 606 96
907 2 2 0 0 159 559 241
908 2 2 0 0 32 611 6
909 2 2 0 0 158 543 155
910 2 2 0 0 223 513 239
911 2 2 0 0 288 531 319
912 2 2 0 0 323 513 220
913 2 2 0 0 115 516 114
914 2 2 0 0 521 601 297
915 2 2 0 0 610 698 455
916 2 2 0 0 354 600 431
917 2 2 0 0 351 550 349
918 2 2 0 0 256 521 297
919 2 2 0 0 140 604 138
920 2 2 0 0 77 460 119
921 2 2 0 0 17 503 16
922 2 2 0 0 9 502 10
923 2 2 0 0 104 587 331
924 2 2 0 0 152 528 150
925 2 2 0 0 315 541 378
926 2 2 0 0 170 548 164
927 2 2 0 0 590 659 420
928 2 2 0 0 11 624 28
929 2 2 0 0 199 549 202
930 2 2 0 0 502 624 10
931 2 2 0 0 453 600 354
932 2 2 0 0 42 43 41
933 2 2 0 0 38 499 13
934 2 2 0 0 285 527 382
935 2 2 0 0 190 514 192
936 2 2 0 0 157 529 528
937 2 2 0 0 231 643 549
938 2 2 0 0 331 587 459
939 2 2 0 0 451 701 232
940 2 2 0 0 99 597 100
941 2 2 0 0 361 568 214
942 2 2 0 0 372 740 544
943 2 2 0 0 221 545 174
944 2 2 0 0 138 604 238
945 2 2 0 0 340 572 275
946 2 2 0 0 338 563 274
947 2 2 0 0 524 542 287
948 2 2 0 0 265 595 312
949 2 2 0 0 111 511 113
950 2 2 0 0 580 658 588
951 2 2 0 0 580 588 163
952 2 2 0 0 237 576 277
953 2 2 0 0 444 503 36
954 2 2 0 0 131 583 580
955 2 2 0 0 505 571 329
956 2 2 0 0 203 596 218
957 2 2 0 0 584 634 260
958 2 2 0 0 261 584 260
959 2 2 0 0 369 647 365
960 2 2 0 0 251 586 215
961 2 2 0 0 348 564 270
962 2 2 0 0 450 552 446
963 2 2 0 0 390 496 391
964 2 2 0 0 66 598 62
965 2 2 0 0 465 623 423
966 2 2 0 0 258 591 102
967 2 2 0 0 343 566 227
968 2 2 0 0 564 623 244
969 2 2 0 0 154 617 141
970 2 2 0 0 324 534 392
971 2 2 0 0 50 502 37
972 2 2 0 0 524 556 542
973 2 2 0 0 544 700 372
974 2 2 0 0 122 516 115
975 2 2 0 0 177 557 221
976 2 2 0 0 489 698 610
977 2 2 0 0 93 587 104
978 2 2 0 0 136 574 132
979 2 2 0 0 593 646 634
980 2 2 0 0 116 592 480
981 2 2 0 0 143 617 527
982 2 2 0 0 225 604 140
983 2 2 0 0 137 631 139
984 2 2 0 0 549 553 202
985 2 2 0 0 164 548 135
986 2 2 0 0 404 550 351
987 2 2 0 0 34 721 473
988 2 2 0 0 220 513 223
989 2 2 0 0 317 640 511
990 2 2 0 0 100 597 258
991 2 2 0 0 588 658 589
992 2 2 0 0 323 615 513
993 2 2 0 0 568 626 303
994 2 2 0 0 377 605 405
995 2 2 0 0 178 613 212
996 2 2 0 0 493 628 373
997 2 2 0 0 157 528 152
998 2 2 0 0 591 627 363
999 2 2 0 0 409 541 315
1000 2 2 0 0 183 614 197
1001 2 2 0 0 103 598 66
1002 2 2 0 0 188 619 194
1003 2 2 0 0 213 599 226
1004 2 2 0 0 306 599 402
1005 2 2 0 0 97 607 25
1006 2 2 0 0 194 514 190
1007 2 2 0 0 373 628 76
1008 2 2 0 0 78 628 253
1009 2 2 0 0 42 47 43
1010 2 2 0 0 39 612 15
1011 2 2 0 0 16 612 29
1012 2 2 0 0 437 610 455
1013 2 2 0 0 487 497 13
1014 2 2 0 0 440 630 441
1015 2 2 0 0 479 713 562
1016 2 2 0 0 196 620 193
1017 2 2 0 0 456 572 340
1018 2 2 0 0 120 511 281
1019 2 2 0 0 577 578 235
1020 2 2 0 0 335 582 399
1021 2 2 0 0 314 741 683
1022 2 2 0 0 520 613 535
1023 2 2 0 0 585 634 584
1024 2 2 0 0 423 564 348
1025 2 2 0 0 457 561 411
1026 2 2 0 0 6 611 5
1027 2 2 0 0 385 620 537
1028 2 2 0 0 228 637 229
1029 2 2 0 0 366 637 249
1030 2 2 0 0 161 570 158
1031 2 2 0 0 434 640 435
1032 2 2 0 0 193 636 191
1033 2 2 0 0 410 606 106
1034 2 2 0 0 37 502 9
1035 2 2 0 0 36 503 17
1036 2 2 0 0 141 617 143
1037 2 2 0 0 363 627 401
1038 2 2 0 0 322 590 420
1039 2 2 0 0 357 618 128
1040 2 2 0 0 430 621 526
1041 2 2 0 0 540 687 103
1042 2 2 0 0 280 577 121
1043 2 2 0 0 276 575 318
1044 2 2 0 0 362 578 577
1045 2 2 0 0 109 649 496
1046 2 2 0 0 246 590 322
1047 2 2 0 0 326 569 381
1048 2 2 0 0 569 621 381
1049 2 2 0 0 269 569 272
1050 2 2 0 0 139 631 154
1051 2 2 0 0 649 664 496
1052 2 2 0 0 537 620 204
1053 2 2 0 0 355 461 49
1054 2 2 0 0 663 685 493
1055 2 2 0 0 479 745 207
1056 2 2 0 0 343 662 565
1057 2 2 0 0 212 557 177
1058 2 2 0 0 45 645 46
1059 2 2 0 0 496 670 109
1060 2 2 0 0 366 634 585
1061 2 2 0 0 384 616 531
1062 2 2 0 0 535 613 180
1063 2 2 0 0 391 632 364
1064 2 2 0 0 308 581 336
1065 2 2 0 0 344 625 462
1066 2 2 0 0 563 625 344
1067 2 2 0 0 13 497 14
1068 2 2 0 0 480 632 117
1069 2 2 0 0 371 668 585
1070 2 2 0 0 333 649 278
1071 2 2 0 0 387 601 521
1072 2 2 0 0 47 49 48
1073 2 2 0 0 358 615 428
1074 2 2 0 0 113 511 120
1075 2 2 0 0 527 617 382
1076 2 2 0 0 105 649 109
1077 2 2 0 0 398 573 307
1078 2 2 0 0 368 676 369
1079 2 2 0 0 180 613 178
1080 2 2 0 0 153 556 176
1081 2 2 0 0 432 657 367
1082 2 2 0 0 458 718 582
1083 2 2 0 0 207 614 183
1084 2 2 0 0 407 611 456
1085 2 2 0 0 244 623 517
1086 2 2 0 0 20 639 27
1087 2 2 0 0 476 675 87
1088 2 2 0 0 319 616 393
1089 2 2 0 0 474 707 197
1090 2 2 0 0 226 599 306
1091 2 2 0 0 47 48 43
1092 2 2 0 0 186 619 188
1093 2 2 0 0 412 732 328
1094 2 2 0 0 316 671 541
1095 2 2 0 0 293 734 478
1096 2 2 0 0 492 685 598
1097 2 2 0 0 528 629 532
1098 2 2 0 0 514 635 515
1099 2 2 0 0 531 616 319
1100 2 2 0 0 8 656 7
1101 2 2 0 0 387 602 601
1102 2 2 0 0 76 628 78
1103 2 2 0 0 122 618 516
1104 2 2 0 0 651 717 394
1105 2 2 0 0 423 623 564
1106 2 2 0 0 546 669 547
1107 2 2 0 0 4 679 34
1108 2 2 0 0 542 556 151
1109 2 2 0 0 548 609 135
1110 2 2 0 0 204 620 196
1111 2 2 0 0 529 629 528
1112 2 2 0 0 482 719 230
1113 2 2 0 0 258 627 591
1114 2 2 0 0 336 582 335
1115 2 2 0 0 197 686 667
1116 2 2 0 0 583 658 580
1117 2 2 0 0 85 675 98
1118 2 2 0 0 59 728 379
1119 2 2 0 0 400 625 338
1120 2 2 0 0 394 717 605
1121 2 2 0 0 471 650 450
1122 2 2 0 0 596 635 323
1123 2 2 0 0 249 637 228
1124 2 2 0 0 515 635 596
1125 2 2 0 0 338 625 563
1126 2 2 0 0 28 633 488
1127 2 2 0 0 566 622 361
1128 2 2 0 0 229 570 161
1129 2 2 0 0 468 654 465
1130 2 2 0 0 118 710 462
1131 2 2 0 0 15 612 16
1132 2 2 0 0 589 659 590
1133 2 2 0 0 526 621 268
1134 2 2 0 0 365 647 597
1135 2 2 0 0 579 583 235
1136 2 2 0 0 22 507 21
1137 2 2 0 0 342 682 264
1138 2 2 0 0 441 648 346
1139 2 2 0 0 191 636 198
1140 2 2 0 0 578 653 579
1141 2 2 0 0 135 609 134
1142 2 2 0 0 128 618 122
1143 2 2 0 0 378 681 310
1144 2 2 0 0 230 690 211
1145 2 2 0 0 210 690 232
1146 2 2 0 0 549 643 553
1147 2 2 0 0 233 661 247
1148 2 2 0 0 10 624 11
1149 2 2 0 0 640 709 435
1150 2 2 0 0 449 719 482
1151 2 2 0 0 452 726 33
1152 2 2 0 0 362 577 280
1153 2 2 0 0 318 575 433
1154 2 2 0 0 492 687 396
1155 2 2 0 0 586 734 293
1156 2 2 0 0 357 655 618
1157 2 2 0 0 277 567 259
1158 2 2 0 0 522 641 225
1159 2 2 0 0 511 640 281
1160 2 2 0 0 247 661 483
1161 2 2 0 0 610 693 39
1162 2 2 0 0 272 569 326
1163 2 2 0 0 490 695 70
1164 2 2 0 0 553 643 599
1165 2 2 0 0 532 629 284
1166 2 2 0 0 29 712 17
1167 2 2 0 0 632 665 117
1168 2 2 0 0 618 655 386
1169 2 2 0 0 241 699 576
1170 2 2 0 0 457 728 561
1171 2 2 0 0 485 572 456
1172 2 2 0 0 430 667 621
1173 2 2 0 0 582 672 458
1174 2 2 0 0 395 687 540
1175 2 2 0 0 504 594 44
1176 2 2 0 0 181 713 207
1177 2 2 0 0 197 707 184
1178 2 2 0 0 524 657 556
1179 2 2 0 0 475 536 498
1180 2 2 0 0 394 738 320
1181 2 2 0 0 51 714 561
1182 2 2 0 0 151 556 153
1183 2 2 0 0 437 693 610
1184 2 2 0 0 361 626 568
1185 2 2 0 0 611 679 5
1186 2 2 0 0 231 680 643
1187 2 2 0 0 462 706 118
1188 2 2 0 0 390 670 496
1189 2 2 0 0 602 642 601
1190 2 2 0 0 49 330 48
1191 2 2 0 0 391 665 632
1192 2 2 0 0 508 737 375
1193 2 2 0 0 450 650 552
1194 2 2 0 0 368 732 476
1195 2 2 0 0 578 579 235
1196 2 2 0 0 402 581 308
1197 2 2 0 0 43 486 41
1198 2 2 0 0 562 713 179
1199 2 2 0 0 592 632 480
1200 2 2 0 0 416 641 522
1201 2 2 0 0 372 668 371
1202 2 2 0 0 452 712 439
1203 2 2 0 0 282 720 455
1204 2 2 0 0 556 657 176
1205 2 2 0 0 364 632 592
1206 2 2 0 0 403 726 452
1207 2 2 0 0 465 654 623
1208 2 2 0 0 278 649 105
1209 2 2 0 0 154 652 617
1210 2 2 0 0 383 688 603
1211 2 2 0 0 451 719 447
1212 2 2 0 0 317 709 640
1213 2 2 0 0 604 711 642
1214 2 2 0 0 382 652 383
1215 2 2 0 0 601 642 389
1216 2 2 0 0 284 671 316
1217 2 2 0 0 599 643 402
1218 2 2 0 0 388 633 624
1219 2 2 0 0 267 678 311
1220 2 2 0 0 337 681 530
1221 2 2 0 0 279 661 233
1222 2 2 0 0 605 738 394
1223 2 2 0 0 33 677 504
1224 2 2 0 0 386 655 387
1225 2 2 0 0 547 669 631
1226 2 2 0 0 562 731 479
1227 2 2 0 0 360 648 595
1228 2 2 0 0 432 692 657
1229 2 2 0 0 367 657 524
1230 2 2 0 0 633 695 488
1231 2 2 0 0 415 473 341
1232 2 2 0 0 644 672 336
1233 2 2 0 0 551 633 388
1234 2 2 0 0 533 648 360
1235 2 2 0 0 407 679 611
1236 2 2 0 0 323 635 615
1237 2 2 0 0 530 681 529
1238 2 2 0 0 393 651 394
1239 2 2 0 0 387 655 602
1240 2 2 0 0 238 703 574
1241 2 2 0 0 594 677 505
1242 2 2 0 0 559 692 560
1243 2 2 0 0 621 667 381
1244 2 2 0 0 405 674 376
1245 2 2 0 0 325 732 368
1246 2 2 0 0 623 654 517
1247 2 2 0 0 581 644 336
1248 2 2 0 0 346 648 533
1249 2 2 0 0 517 654 279
1250 2 2 0 0 477 705 481
1251 2 2 0 0 481 705 355
1252 2 2 0 0 561 728 57
1253 2 2 0 0 379 705 477
1254 2 2 0 0 617 652 382
1255 2 2 0 0 30 650 500
1256 2 2 0 0 376 674 385
1257 2 2 0 0 518 715 519
1258 2 2 0 0 474 667 430
1259 2 2 0 0 478 734 294
1260 2 2 0 0 624 633 28
1261 2 2 0 0 186 707 619
1262 2 2 0 0 64 663 475
1263 2 2 0 0 597 647 258
1264 2 2 0 0 377 738 605
1265 2 2 0 0 31 735 467
1266 2 2 0 0 27 718 458
1267 2 2 0 0 419 673 68
1268 2 2 0 0 616 722 393
1269 2 2 0 0 24 723 419
1270 2 2 0 0 397 638 48
1271 2 2 0 0 404 730 460
1272 2 2 0 0 91 676 472
1273 2 2 0 0 622 626 361
1274 2 2 0 0 7 656 32
1275 2 2 0 0 576 697 277
1276 2 2 0 0 471 691 650
1277 2 2 0 0 536 663 373
1278 2 2 0 0 484 691 471
1279 2 2 0 0 552 650 30
1280 2 2 0 0 311 678 600
1281 2 2 0 0 486 729 5
1282 2 2 0 0 418 673 666
1283 2 2 0 0 232 680 231
1284 2 2 0 0 5 679 4
1285 2 2 0 0 117 665 539
1286 2 2 0 0 384 702 616
1287 2 2 0 0 557 702 221
1288 2 2 0 0 87 675 85
1289 2 2 0 0 225 711 604
1290 2 2 0 0 505 677 571
1291 2 2 0 0 483 661 494
1292 2 2 0 0 263 565 375
1293 2 2 0 0 504 677 594
1294 2 2 0 0 582 718 399
1295 2 2 0 0 645 714 46
1296 2 2 0 0 534 708 392
1297 2 2 0 0 643 680 402
1298 2 2 0 0 18 712 452
1299 2 2 0 0 392 670 390
1300 2 2 0 0 221 702 603
1301 2 2 0 0 496 664 391
1302 2 2 0 0 606 710 118
1303 2 2 0 0 655 703 602
1304 2 2 0 0 608 676 91
1305 2 2 0 0 194 684 514
1306 2 2 0 0 541 671 378
1307 2 2 0 0 154 669 652
1308 2 2 0 0 399 718 639
1309 2 2 0 0 405 715 674
1310 2 2 0 0 33 726 677
1311 2 2 0 0 629 671 284
1312 2 2 0 0 468 735 495
1313 2 2 0 0 469 704 408
1314 2 2 0 0 427 745 479
1315 2 2 0 0 294 734 251
1316 2 2 0 0 461 705 379
1317 2 2 0 0 385 674 636
1318 2 2 0 0 657 692 176
1319 2 2 0 0 561 714 411
1320 2 2 0 0 631 669 154
1321 2 2 0 0 264 682 265
1322 2 2 0 0 43 638 486
1323 2 2 0 0 48 638 43
1324 2 2 0 0 194 744 684
1325 2 2 0 0 381 686 380
1326 2 2 0 0 658 716 589
1327 2 2 0 0 263 567 565
1328 2 2 0 0 310 681 337
1329 2 2 0 0 493 685 492
1330 2 2 0 0 64 685 663
1331 2 2 0 0 309 678 267
1332 2 2 0 0 600 678 431
1333 2 2 0 0 538 694 333
1334 2 2 0 0 598 685 64
1335 2 2 0 0 551 695 633
1336 2 2 0 0 560 699 241
1337 2 2 0 0 211 690 210
1338 2 2 0 0 2 723 3
1339 2 2 0 0 630 708 441
1340 2 2 0 0 467 735 468
1341 2 2 0 0 396 687 395
1342 2 2 0 0 35 507 22
1343 2 2 0 0 259 567 263
1344 2 2 0 0 417 673 418
1345 2 2 0 0 614 686 197
1346 2 2 0 0 392 708 630
1347 2 2 0 0 5 729 6
1348 2 2 0 0 279 725 661
1349 2 2 0 0 6 729 26
1350 2 2 0 0 357 703 655
1351 2 2 0 0 514 684 635
1352 2 2 0 0 540 733 538
1353 2 2 0 0 374 741 593
1354 2 2 0 0 176 692 559
1355 2 2 0 0 650 691 500
1356 2 2 0 0 484 736 691
1357 2 2 0 0 83 733 540
1358 2 2 0 0 558 740 372
1359 2 2 0 0 626 697 555
1360 2 2 0 0 436 693 437
1361 2 2 0 0 375 737 374
1362 2 2 0 0 475 663 536
1363 2 2 0 0 636 674 198
1364 2 2 0 0 674 715 198
1365 2 2 0 0 70 695 551
1366 2 2 0 0 406 721 407
1367 2 2 0 0 677 726 571
1368 2 2 0 0 258 647 627
1369 2 2 0 0 448 701 451
1370 2 2 0 0 458 672 506
1371 2 2 0 0 229 700 570
1372 2 2 0 0 684 744 428
1373 2 2 0 0 570 700 544
1374 2 2 0 0 678 742 431
1375 2 2 0 0 646 741 314
1376 2 2 0 0 603 702 384
1377 2 2 0 0 478 731 293
1378 2 2 0 0 309 742 678
1379 2 2 0 0 380 686 614
1380 2 2 0 0 494 725 468
1381 2 2 0 0 500 691 38
1382 2 2 0 0 635 684 615
1383 2 2 0 0 661 725 494
1384 2 2 0 0 679 721 34
1385 2 2 0 0 509 510 35
1386 2 2 0 0 46 714 51
1387 2 2 0 0 615 684 428
1388 2 2 0 0 432 742 689
1389 2 2 0 0 179 713 181
1390 2 2 0 0 26 739 645
1391 2 2 0 0 35 510 507
1392 2 2 0 0 574 703 357
1393 2 2 0 0 184 707 186
1394 2 2 0 0 39 693 612
1395 2 2 0 0 665 694 539
1396 2 2 0 0 312 708 534
1397 2 2 0 0 554 689 309
1398 2 2 0 0 1 737 508
1399 2 2 0 0 519 717 520
1400 2 2 0 0 277 697 622
1401 2 2 0 0 389 711 641
1402 2 2 0 0 495 736 484
1403 2 2 0 0 17 712 18
1404 2 2 0 0 212 722 557
1405 2 2 0 0 455 720 438
1406 2 2 0 0 622 697 626
1407 2 2 0 0 664 694 665
1408 2 2 0 0 447 719 449
1409 2 2 0 0 669 688 652
1410 2 2 0 0 612 693 436
1411 2 2 0 0 619 744 194
1412 2 2 0 0 57 728 59
1413 2 2 0 0 579 658 583
1414 2 2 0 0 438 727 525
1415 2 2 0 0 539 733 83
1416 2 2 0 0 479 731 478
1417 2 2 0 0 691 736 38
1418 2 2 0 0 401 724 400
1419 2 2 0 0 420 660 2
1420 2 2 0 0 328 732 325
1421 2 2 0 0 320 738 453
1422 2 2 0 0 428 744 429
1423 2 2 0 0 431 742 432
1424 2 2 0 0 425 745 427
1425 2 2 0 0 408 743 434
1426 2 2 0 0 571 726 403
1427 2 2 0 0 119 727 523
1428 2 2 0 0 625 706 462
1429 2 2 0 0 525 730 404
1430 2 2 0 0 499 736 495
1431 2 2 0 0 468 725 654
1432 2 2 0 0 336 672 582
1433 2 2 0 0 198 715 518
1434 2 2 0 0 400 724 706
1435 2 2 0 0 402 680 581
1436 2 2 0 0 589 716 659
1437 2 2 0 0 727 730 525
1438 2 2 0 0 664 665 391
1439 2 2 0 0 337 740 558
1440 2 2 0 0 293 731 562
1441 2 2 0 0 523 720 282
1442 2 2 0 0 460 730 119
1443 2 2 0 0 641 711 225
1444 2 2 0 0 429 744 619
1445 2 2 0 0 119 730 727
1446 2 2 0 0 651 722 212
1447 2 2 0 0 38 736 499
1448 2 2 0 0 667 686 381
1449 2 2 0 0 652 688 383
1450 2 2 0 0 410 710 606
1451 2 2 0 0 644 701 448
1452 2 2 0 0 666 673 419
1453 2 2 0 0 704 743 408
1454 2 2 0 0 251 734 586
1455 2 2 0 0 400 706 625
1456 2 2 0 0 546 688 669
1457 2 2 0 0 668 700 229
1458 2 2 0 0 538 733 694
1459 2 2 0 0 333 694 664
1460 2 2 0 0 565 662 375
1461 2 2 0 0 720 727 438
1462 2 2 0 0 372 700 668
1463 2 2 0 0 579 716 658
1464 2 2 0 0 642 711 389
1465 2 2 0 0 355 705 461
1466 2 2 0 0 407 721 679
1467 2 2 0 0 523 727 720
1468 2 2 0 0 654 725 279
1469 2 2 0 0 639 718 27
1470 2 2 0 0 694 733 539
1471 2 2 0 0 393 722 651
1472 2 2 0 0 645 739 397
1473 2 2 0 0 683 741 374
1474 2 2 0 0 397 739 638
1475 2 2 0 0 653 716 579
1476 2 2 0 0 666 723 660
1477 2 2 0 0 419 723 666
1478 2 2 0 0 374 737 683
1479 2 2 0 0 593 741 646
1480 2 2 0 0 683 737 1
1481 2 2 0 0 689 742 309
1482 2 2 0 0 660 723 2
1483 2 2 0 0 23 25 1
1484 2 2 0 0 25 607 1
1485 2 2 0 0 3 34 2
1486 2 2 0 0 34 415 2
$EndElements
