$MeshFormat
2.2 0 8
$EndMeshFormat
$Nodes
745
1 4.1248999175152490e-05 2.0302989944637897e-05 1.0101434532531022e-03
2 4.9644257940171563e-05 -3.5544713195484343e-05 -1.0081160276883606e-03
3 1.4451068009284140e-04 1.9621102553880102e-05 -9.9869633347450483e-04
4 2.5144758040609609e-04 4.9939539250552338e-06 -9.7811355558880312e-04
5 3.8487246276583344e-04 1.3605199283563934e-05 -9.3293927460254993e-04
6 5.1321739024506668e-04 -2.3920970283322844e-07 -8.6640161997367400e-04
7 6.0988902200856735e-04 2.7573924598074290e-06 -7.9947193496448556e-04
8 7.2756833928785817e-04 -1.7971423393365826e-06 -6.9039207826339280e-04
9 8.1957441232085768e-04 -2.4330968732804552e-06 -5.7382243668102617e-04
10 9.0207611633489888e-04 2.4541139902854845e-06 -4.2644642437405584e-04
11 9.5688594992193352e-04 7.1011633964457516e-06 -2.7556951085183331e-04
12 9.8619546842951180e-04 2.9903132542151946e-06 -1.2998577933092550e-04
13 9.9432223172932948e-04 7.1269861965972963e-06 3.1341269463174827e-06
14 9.8394294473178458e-04 4.1686882719501074e-06 1.4570948923466523e-04
15 9.5190838489254157e-04 -1.8717133633624701e-06 2.9307149312525683e-04
16 8.9759627451673320e-04 6.9158354424697479e-06 4.3662759554167021e-04
17 8.2280069102668991e-04 9.9484907114263189e-07 5.6928947465196156e-04
18 7.3419003644004859e-04 4.5169012421033238e-07 6.8348186387844837e-04
19 6.2525682818338215e-04 5.5466613308074874e-06 7.8767664855600606e-04
20 5.0485695480329061e-04 -4.4174548680492358e-07 8.7209052900352995e-04
21 3.6953202417366448e-04 5.5459785563266215e-06 9.3927733858094114e-04
22 2.4126529087652247e-04 -7.4694069820923039e-06 9.8102732808791251e-04
23 1.4231305361339232e-04 -2.1325135639262293e-05 9.9979665165586605e-04
24 1.5002347371726986e-04 1.2770678792852394e-04 -9.9089449859862655e-04
25 1.6850304444784950e-04 1.0545001504157904e-04 9.9137618561842490e-04
26 5.5678090858696846e-04 1.0986449633874718e-04 -8.3052929236042850e-04
27 5.6397443102052273e-04 -1.0774628184226594e-04 8.2679331974901571e-04
28 9.6571543382457882e-04 1.3529233380564826e-04 -1.9797636363858679e-04
29 8.4776961581047266e-04 1.5187316159340482e-04 5.0863663446924919e-04
30 9.2350802582866123e-04 -1.2181575974402301e-04 3.5506057404354797e-04
31 9.6656300369812279e-04 -1.1840497804369969e-04 -2.0490273669698474e-04
32 5.5625528084329628e-04 -1.0969475452956044e-04 -8.3155995733068938e-04
33 5.5671100747998851e-04 1.0511459766913464e-04 8.3196326300398579e-04
34 1.7758421637182874e-04 -8.2218378696759353e-05 -9.9144138675650987e-04
35 1.9185172035787994e-04 -1.0747204227385306e-04 9.8598017529127934e-04
36 7.8091788842686843e-04 -1.2856849271757661e-04 6.1394016221283897e-04
37 7.7339080722321502e-04 1.2246392860745515e-04 -6.2419268372266093e-04
38 9.8474256872071878e-04 -1.1136656555737027e-04 8.0724169287625146e-05
39 9.6273862910698231e-04 1.2052136039423703e-04 2.2088880864002747e-04
40 8.5884398709023234e-04 -1.3132726956836740e-04 -4.9328376844970400e-04
41 2.8628913025185391e-04 1.2601234644413765e-04 -9.5949240574951997e-04
42 2.2833334182546303e-04 2.2434829042648795e-04 -9.5685892729161545e-04
43 3.2824314795143277e-04 2.3897032908639650e-04 -9.2255974680389172e-04
44 3.0397295638967114e-04 1.0564919748197906e-04 9.5720938257154399e-04
45 6.6714066540476632e-04 1.2271653367721376e-04 -7.4010407917897479e-04
46 7.0328967481578675e-04 2.5066886416122528e-04 -6.6856386563411132e-04
47 2.6463876271365583e-04 3.2739617578758792e-04 -9.1573674388499982e-04
48 3.9011636142956339e-04 3.3222450883922390e-04 -8.6646220974817177e-04
49 3.2964377841150156e-04 4.3087079506690953e-04 -8.4724169662163124e-04
50 7.9903800671396810e-04 2.4789650927114240e-04 -5.4710811078558105e-04
51 7.2388725151147787e-04 3.6617481622654656e-04 -5.8526756949679347e-04
52 8.0548735042875982e-04 3.6659065393828744e-04 -4.6097051708807044e-04
53 7.2643699361039677e-04 4.7535855211944684e-04 -4.9313505202289913e-04
54 7.9708823682236570e-04 4.7529880938330162e-04 -3.6217279002742885e-04
55 7.0667987286721318e-04 5.8522397963418297e-04 -3.8891739737918334e-04
56 7.7013045709799222e-04 5.7562891396272550e-04 -2.5603605396416675e-04
57 6.3031084150117107e-04 5.8642550830864649e-04 -5.0550757468724873e-04
58 5.9805300942875745e-04 6.8747848661026027e-04 -4.0367979319365593e-04
59 5.1079070701576744e-04 6.8097792136642742e-04 -5.2204326753202814e-04
60 4.7860806059452370e-04 7.7101184963667313e-04 -4.1207441496607079e-04
61 3.8307113951113866e-04 7.5265059388727334e-04 -5.3354082006997221e-04
62 3.5308658882760849e-04 8.3770026475589237e-04 -4.0839776465992941e-04
63 1.9674376711725265e-04 4.5370596915783243e-04 -8.7694861767007091e-04
64 4.3915740917740997e-04 8.4178009920937843e-04 -2.9710651089114433e-04
65 2.5357817902384584e-04 8.1466205507439412e-04 -5.1905171733377449e-04
66 2.2927102252053721e-04 8.8840179867651938e-04 -3.8833031605957862e-04
67 1.1901894632659370e-04 8.6213488335811395e-04 -4.8861209744861225e-04
68 1.0793956444482344e-04 2.3507172715575721e-04 -9.7549496765632685e-04
69 1.3808895114759124e-04 7.6713445784192208e-04 -6.2917121780540672e-04
70 8.4947244110274189e-04 4.6431565669461685e-04 -2.2807520548825976e-04
71 8.1972713760034433e-04 5.5109363657832998e-04 -1.1288483192092099e-04
72 7.2831799273272732e-04 6.6168372268241265e-04 -1.4168049271238607e-04
73 7.6648224842625610e-04 6.3278768833474467e-04 -1.0900367288667891e-06
74 6.6907400956145143e-04 7.3421177428201895e-04 -2.7562822272189348e-05
75 6.9166637925007792e-04 7.0627125465329787e-04 1.0323356029668594e-04
76 5.9522654619670041e-04 7.9164575585084112e-04 8.1248250896529551e-05
77 6.0826801711083794e-04 7.5752196208185368e-04 2.1284928522941933e-04
78 5.0394148103851842e-04 8.3802947399749827e-04 1.8000349546268616e-04
79 9.7896188293525221e-05 9.2858392943545760e-04 -3.4586930076661989e-04
80 -1.8903300699012282e-05 8.9694798255578320e-04 -4.3468057167151140e-04
81 2.4214449736208120e-04 2.2008289494280918e-04 9.5524504718671327e-04
82 5.2179389647308793e-04 7.8757609373082888e-04 3.1491051725013303e-04
83 -4.0892010347445693e-05 9.4734766785745908e-04 -3.0095694819687270e-04
84 4.0456149173079243e-04 8.6679075982065289e-04 2.7437995307680096e-04
85 4.1953272504081636e-04 8.0714983659517276e-04 4.0770634227489596e-04
86 3.0038294352840691e-04 8.7250323853943111e-04 3.7569793949692143e-04
87 3.1416348728078290e-04 8.0340864204383740e-04 5.0254805303149967e-04
88 1.8690737490195818e-04 8.5541626444440681e-04 4.7883746918800390e-04
89 1.6099849323125427e-04 9.2084218295134261e-04 3.4304295596653759e-04
90 5.2509331733983533e-05 8.9311383153291399e-04 4.4040408960021899e-04
91 7.0007154136365613e-05 8.1736450338377531e-04 5.7153071296683466e-04
92 -5.5878370538977047e-05 8.4928509494663863e-04 5.2205623694843160e-04
93 -7.7020988385728017e-05 9.1143484149835486e-04 3.9496720863451659e-04
94 -1.8919497371647838e-04 8.5525132320408439e-04 4.7736243090321291e-04
95 -1.4815308704641675e-04 8.0044861441514435e-04 5.7892340872691382e-04
96 -2.1372230120120353e-04 9.0974208161157259e-04 3.4309496499952739e-04
97 1.0909687594435394e-04 2.3155642294146205e-04 9.7710349973292648e-04
98 5.2700082980506973e-04 7.0698848718018050e-04 4.6998029736543761e-04
99 1.8089161511865244e-04 3.2146477991922191e-04 9.3931276142933851e-04
100 5.3546137149063853e-05 3.1689876165339500e-04 9.5697995632204082e-04
101 -2.4951610477370365e-05 2.1845541929541284e-04 9.8583078211501775e-04
102 -7.7026775289044163e-05 3.1297750416747874e-04 9.5657325624869452e-04
103 2.0590467344489260e-04 9.4006018240363023e-04 -2.5116251125142312e-04
104 -1.0735733190891331e-04 9.5383081742421883e-04 2.6050343859235507e-04
105 -2.4436153265848071e-04 9.4277955919326811e-04 1.9856391750904066e-04
106 -3.4998354236509489e-04 8.8612160812646349e-04 2.8618542767860976e-04
107 -1.5398066023963378e-04 9.0780345573679237e-04 -3.7954945186506459e-04
108 -1.3080041308738839e-04 8.4619117103749291e-04 -5.1310331216098423e-04
109 -3.7271739417882370e-04 9.0864130151296007e-04 1.5052608143870336e-04
110 -2.6540678566120540e-04 8.4672601661063584e-04 -4.5500912402220487e-04
111 -2.3868624884320239e-04 7.7035381632164644e-04 -5.9096809023248607e-04
112 -3.6871044394845229e-04 7.6601887840931939e-04 -5.2388616276809522e-04
113 -3.3043328090048407e-04 6.7490879017675692e-04 -6.6225887665308919e-04
114 -4.6320106277010031e-04 6.7055897604940680e-04 -5.7903486561333088e-04
115 -4.1603789499558525e-04 5.7524694201662710e-04 -7.0831431084536793e-04
116 -4.9554582036169016e-04 7.4254252854799141e-04 -4.4413195751702580e-04
117 -2.8038734931809154e-04 8.9918373447729595e-04 -3.2114659111363777e-04
118 -2.8444737089810103e-04 7.7669569203543849e-04 5.6183753642269731e-04
119 7.0718973398864492e-04 6.6539242889248034e-04 2.1426536164969725e-04
120 -2.8088904679954198e-04 5.7098051327766116e-04 -7.7721735468603019e-04
121 -3.6001555821055790e-04 4.6406912857224769e-04 -8.1622045512515467e-04
122 -4.9548976531326285e-04 4.7207074816228120e-04 -7.3375667796250126e-04
123 -4.3857713974998887e-04 3.6469219509833393e-04 -8.2849417933428151e-04
124 -5.8820644993553173e-04 6.3868999990187247e-04 -4.9187823416463295e-04
125 -6.1367679935970458e-04 6.9506828328930496e-04 -3.6308387109399315e-04
126 -6.9601060471505001e-04 5.8773187345372067e-04 -4.0351624177791711e-04
127 -4.7532298923939442e-04 8.4237833715556396e-04 2.3007375757947234e-04
128 -5.6416559116691310e-04 3.5472826821240363e-04 -7.5061496763101560e-04
129 -5.0755068365599169e-04 2.5371936761485708e-04 -8.3058076602448173e-04
130 -6.2884217204442028e-04 2.2140352288439058e-04 -7.5049392367303874e-04
131 -5.6513312208504997e-04 1.2491009828461628e-04 -8.2258303788711250e-04
132 -6.8294188018379212e-04 9.2920590991244859e-05 -7.2934370765878056e-04
133 -6.0334159773416075e-04 -1.1021434082469297e-05 -8.0425997989984170e-04
134 -7.1942923986516034e-04 -3.5680352440463319e-05 -6.9775555547743910e-04
135 -6.2857763955462016e-04 -1.4522823869486567e-04 -7.7028605087694905e-04
136 -7.8961910429771367e-04 7.6497800304953814e-05 -6.1013202537699770e-04
137 -8.1730859309617329e-04 -5.4597144697369178e-05 -5.7359376590152542e-04
138 -8.7349551308192554e-04 4.8503884387865492e-05 -4.8043902443042761e-04
139 -8.9185619503612441e-04 -8.1269473118641890e-05 -4.3892915894057539e-04
140 -9.3273968545392379e-04 1.1424623596635876e-05 -3.4845529921015335e-04
141 -9.4025642007512897e-04 -1.1821283381766389e-04 -3.0424046485955775e-04
142 -9.7077275636958053e-04 -1.4673287463170297e-05 -2.1426845738858611e-04
143 -9.6907180406404392e-04 -1.4537068138261377e-04 -1.6683275370524630e-04
144 -9.8963714520723884e-04 -3.8021213784563688e-05 -7.8489445694966732e-05
145 -9.7870251493557803e-04 -1.6736995307790634e-04 -3.4115011666007937e-05
146 -9.9048124965941844e-04 -5.5981063171310012e-05 5.1742780060680865e-05
147 -9.7107387171360671e-04 -1.8353461580204101e-04 1.0406176399509330e-04
148 -9.4985864330891811e-04 -2.9127010668670965e-04 1.2419173161603435e-05
149 -9.3331385881805472e-04 -3.0609207068074250e-04 1.5314886814219166e-04
150 -9.4455467871090769e-04 -1.8992516684397792e-04 2.4775241856792420e-04
151 -8.9720380403974869e-04 -3.1499805411753292e-04 2.9424453159854815e-04
152 -8.9707260579492492e-04 -1.9873963580547188e-04 3.8606131875437504e-04
153 -8.3791229658191767e-04 -3.2736319586787043e-04 4.3068143071076456e-04
154 -8.9129057235555150e-04 -2.1422871960748770e-04 -3.9072473297881041e-04
155 -8.2872841246693152e-04 -2.1151577162939255e-04 5.1616216017564089e-04
156 -7.5934722082841497e-04 -3.3514528363274730e-04 5.5744368189359315e-04
157 -8.8039421698717785e-04 -7.9533062839391350e-05 4.6317931773757787e-04
158 -7.3805772248836132e-04 -2.1676687377414190e-04 6.4162083738418811e-04
159 -6.6396149622503016e-04 -3.3451395918131645e-04 6.7263189814757837e-04
160 -9.9020411059876686e-04 7.7320467541336794e-05 5.0421441217426283e-06
161 -6.2954598064570854e-04 -2.1146877096433364e-04 7.5359358912136475e-04
162 -5.4577182803611333e-04 -3.2365173488930153e-04 7.7996730059509830e-04
163 -5.1007390829088054e-04 -1.1534272805940029e-04 -8.6056483332202203e-04
164 -5.2823120231976271e-04 -2.4781670714878776e-04 -8.1971042723614151e-04
165 -7.1101848609592773e-04 6.3988899473950292e-04 -2.7238171152417853e-04
166 -1.4983981069465312e-04 2.0404957151196182e-04 9.7768044235746108e-04
167 -2.1143354929232616e-04 3.1627792061765829e-04 9.3436529830924204e-04
168 -4.1214029233994719e-04 -2.0793428377145415e-04 -8.9607301332493246e-04
169 -4.3604202325441292e-04 -3.3877052080056837e-04 -8.4190965693632614e-04
170 -5.5097343165084317e-04 -3.8054390615055954e-04 -7.4861303411437200e-04
171 -4.4868024932914692e-04 -4.7693956740585966e-04 -7.6228884113199269e-04
172 -5.5678926082803248e-04 -5.0725299153310630e-04 -6.6140025479287216e-04
173 -4.4131567910187734e-04 -6.0528016247580227e-04 -6.6658582968408188e-04
174 -5.4799707058708960e-04 -6.2174684916765769e-04 -5.5984242460939524e-04
175 -4.2859073483091754e-04 -7.1301130367692751e-04 -5.5516837618732617e-04
176 -7.6425630169130252e-04 -4.4305636081892069e-04 4.6399823858551021e-04
177 -5.2575010451171554e-04 -7.2184950787082503e-04 -4.4523099723397705e-04
178 -4.0481476867473522e-04 -8.0256765545761929e-04 -4.3312525680876362e-04
179 -3.1152058220724972e-04 -7.8246718462727583e-04 -5.3858272970063739e-04
180 -2.7748582067267023e-04 -8.6294595761816527e-04 -4.1666566549979675e-04
181 -1.7661785306725131e-04 -8.3365014335863498e-04 -5.2229957821787576e-04
182 -1.3999697736500615e-04 -9.0435476807155927e-04 -3.9685321187193408e-04
183 -3.8658999613189622e-05 -8.6083312576758653e-04 -5.0658790127620359e-04
184 2.8471421654058658e-06 -9.2410047011112122e-04 -3.7476875142366080e-04
185 -9.7211990603026367e-05 -9.5333069721193940e-04 -2.7106247733851916e-04
186 4.2982042462036081e-05 -9.6448603141975500e-04 -2.4303198932513042e-04
187 -5.1305433590773079e-05 -9.8325328784999895e-04 -1.4231718170803589e-04
188 8.9892163716109191e-05 -9.8355446636663583e-04 -1.1941596499034220e-04
189 -5.1552417350631062e-06 -9.9426298240464428e-04 -1.6668689781323741e-05
190 1.2667780945485024e-04 -9.8634242964268002e-04 1.1534602326530935e-05
191 3.5980242862116429e-05 -9.8794486245846417e-04 1.0993749468261159e-04
192 1.6736069209659200e-04 -9.7103942073271065e-04 1.3793802302515068e-04
193 6.8196282461960392e-05 -9.6379074964335224e-04 2.4063429404151787e-04
194 2.1401522046312927e-04 -9.6775388155861649e-04 -8.2241867704778757e-05
195 2.0094552694243037e-04 -9.3785623432302446e-04 2.6872786115104437e-04
196 1.0198979755826111e-04 -9.2075335606900139e-04 3.6941431762747953e-04
197 1.0836783406483386e-04 -8.7273218381109490e-04 -4.7513614756295624e-04
198 -9.6682463243363178e-05 -9.8578744934645101e-04 8.6493022284181458e-05
199 2.3220473955463188e-04 -8.8480433501312412e-04 3.9842983046148290e-04
200 3.2869630539074439e-04 -8.9366874976304746e-04 2.9328847989459992e-04
201 3.5987574005138536e-04 -8.3279762588488822e-04 4.1581528485692769e-04
202 1.3254590570644360e-04 -8.5704511938503969e-04 4.9680134157483347e-04
203 4.5449079475266298e-04 -8.3060557699607949e-04 3.1065541695149846e-04
204 8.5745033275366014e-07 -8.8134527841143991e-04 4.7021518329346240e-04
205 3.0131353809576468e-05 -8.0430975201009906e-04 5.9589039224510105e-04
206 -9.0053315624084060e-04 -4.1623475146527702e-04 5.8012387609390317e-05
207 -7.9982452257723805e-05 -7.6704528767001341e-04 -6.4078644783181933e-04
208 -1.0605837460803317e-04 -8.2256776220927786e-04 5.5982570423281758e-04
209 -6.9900275674330008e-05 -7.3199334349913420e-04 6.8271326781780704e-04
210 4.7811933193491613e-04 -7.6021925811212653e-04 4.3572393120935756e-04
211 5.6312775985880074e-04 -7.5461803887849632e-04 3.2618076669081242e-04
212 -4.9415940643808976e-04 -7.9971355266461011e-04 -3.2925616935228956e-04
213 6.3071664350354114e-05 -7.0306870502345135e-04 7.1419757931791381e-04
214 -3.2141323668054472e-05 -6.2108940596128663e-04 7.9078750107150443e-04
215 -3.1618387665770936e-04 -2.8731675361428531e-04 -9.1358809493369731e-04
216 -2.0670142726192470e-04 -7.4755212532532614e-04 6.3472188183600622e-04
217 -2.4310306365251310e-04 -8.2704427354365364e-04 5.0574491695581719e-04
218 5.4136168752559578e-04 -8.0953143169300214e-04 2.0617786514822434e-04
219 6.5143290913599117e-04 -7.1907446078498720e-04 2.2357917448886456e-04
220 6.1843559946013157e-04 -7.7381558280155709e-04 9.1908424541370823e-05
221 -6.3432264606489742e-04 -6.2886882367089308e-04 -4.4441392376131072e-04
222 7.2458192909393923e-04 -6.7315062339161325e-04 1.0901724396951635e-04
223 6.8008906972237516e-04 -7.2540082547694186e-04 -2.4203835070404175e-05
224 -2.9443197590452240e-04 -1.7433012342289912e-04 -9.4944529728876667e-04
225 -9.5380417242730458e-04 1.1366841715582439e-04 -2.5702645801660168e-04
226 9.6044717327267698e-05 -5.8964099693155521e-04 8.1005028940243386e-04
227 -4.6092525081283553e-06 -4.9559077797269990e-04 8.7794664366274311e-04
228 -5.0628365924747047e-04 -1.9129533959017504e-04 8.4919202119823579e-04
229 -5.9714163707089607e-04 -8.9179045074316073e-05 8.0395440144325327e-04
230 6.5682453639856898e-04 -6.6341995993324384e-04 3.4943814777713345e-04
231 3.8067478967593256e-04 -7.5236530434230891e-04 5.3774848675561401e-04
232 4.9882480263628104e-04 -6.6220412874976617e-04 5.6159426177153262e-04
233 7.7611875605708945e-04 -6.2180415931182653e-04 -7.5704534836130957e-06
234 7.3091446025465941e-04 -6.6053762090661139e-04 -1.3919452565023320e-04
235 -3.7245066648728715e-04 2.4708291228387716e-04 -9.0322379383508500e-04
236 3.0263313497695422e-04 3.2044696464861452e-04 9.0698066652279534e-04
237 -4.1466050547777348e-04 -2.8297706274148455e-04 8.7404745336448807e-04
238 -8.3640438982977405e-04 1.9692063943553160e-04 -5.0995505633737431e-04
239 6.2884357267463235e-04 -7.5570010363493895e-04 -1.5399112311128852e-04
240 6.7904678868988910e-04 -6.7800259153482506e-04 -2.6715349828829643e-04
241 -5.7197407872875956e-04 -4.5021214655567988e-04 6.9035413897383028e-04
242 5.7052162073458607e-04 -7.6573231200577005e-04 -2.8399290538952675e-04
243 6.0762651237262989e-04 -6.8440523639614107e-04 -3.9743029698446571e-04
244 7.1393506163956147e-04 -5.8363972658044105e-04 -3.8034702185826298e-04
245 6.2638379975587892e-04 -5.8562776424644317e-04 -5.1404016627527068e-04
246 -1.9529725139930945e-04 -2.4746540297705428e-04 -9.5916833229647608e-04
247 8.1486952180546046e-04 -5.5938606590071982e-04 1.1352368622774415e-04
248 2.2819753015393030e-04 4.3672943294486037e-04 8.7882740175828928e-04
249 -3.8382667627760784e-04 -1.5413212052474350e-04 9.2014574203268999e-04
250 3.5676284754378136e-04 4.4163622273493469e-04 8.3088846561722046e-04
251 -2.0681325032356209e-04 -3.8024601807540829e-04 -9.1093460713724517e-04
252 -8.1028332611479385e-05 -3.3176062362061474e-04 -9.5020482057118344e-04
253 3.8149792818123159e-04 9.0627274804990301e-04 1.4534413971046398e-04
254 -6.2065264854523463e-04 7.4306666930718066e-04 -2.2559436003969182e-04
255 -7.1081178642278583e-04 6.7968800814280448e-04 -1.4008754053350053e-04
256 -7.9308844234029336e-04 5.7053333167242360e-04 -1.8185074565221380e-04
257 -7.8881705046445849e-04 6.0105245855710128e-04 -5.1364604832075040e-05
258 -2.1819987812031431e-05 4.2221235032487007e-04 9.1551102044243695e-04
259 -2.9453136547936542e-04 -2.3925658262960420e-04 9.3514897998709290e-04
260 -2.7978837025289898e-04 2.1012076753521656e-04 9.4648322513448237e-04
261 -3.5351056934994048e-04 3.0679066288888678e-04 8.9250382360534116e-04
262 -2.6233042234493812e-04 -1.1859115816325813e-04 9.6804517905670605e-04
263 -1.7155089205441853e-04 -2.1395614847745275e-04 9.7220943821204600e-04
264 -8.6002554340707785e-04 4.8983033573117541e-04 -8.3171843800033135e-05
265 -8.4491706464264252e-04 5.1988418771846683e-04 4.6249405614501653e-05
266 -3.3998565675829337e-04 -7.4523946407587340e-04 5.7492027154467165e-04
267 -3.6871209132533059e-04 -8.1420762773507405e-04 4.4419902175056147e-04
268 5.1540092346962873e-04 -6.7826832871141138e-04 -5.2367201968683678e-04
269 5.2422395384328071e-04 -5.7303186874155222e-04 -6.3351683622924957e-04
270 6.1919303660218849e-04 -4.7864821988411404e-04 -6.2578800313373064e-04
271 5.0984721811186929e-04 -4.5744340412240181e-04 -7.3479351596986554e-04
272 4.1052527316738310e-04 -5.4624942358066453e-04 -7.3648593659279892e-04
273 -2.7594862395844511e-04 4.1564037999068659e-04 8.7498712208351726e-04
274 -4.1944853691839072e-04 4.0697292285607505e-04 8.1868740997005738e-04
275 3.8680860548626306e-04 -4.2460098022453508e-04 -8.2687570239069132e-04
276 2.8128617034011870e-04 -5.0837487366571976e-04 -8.2224120955708081e-04
277 -3.2732815515413416e-04 -3.5675295836915135e-04 8.8411257302313637e-04
278 -1.3660854405710897e-04 9.7677020695861958e-04 1.1924234395851359e-04
279 8.1600679307433708e-04 -5.5620956877248126e-04 -1.1804703437761773e-04
280 -2.3036624575436119e-04 4.5781887756207084e-04 -8.6652967595141420e-04
281 -1.4997961441511097e-04 5.6875556306295347e-04 -8.1540665140287908e-04
282 8.5616836314721958e-04 5.0558925417117800e-04 2.9105862003815576e-05
283 1.1442939342294050e-04 -4.7036539506525496e-04 8.8458546447917747e-04
284 -9.8216794573818236e-04 5.8375790268496404e-05 1.3759597102689256e-04
285 -9.0668179380287001e-04 -4.0031393935816023e-04 -7.2422542187893410e-05
286 -8.4500130424356866e-04 -5.2231432934376478e-04 -2.7413519450456238e-05
287 -8.2852569316424203e-04 -5.3894227221071419e-04 1.0549666025001628e-04
288 -7.6910211547563093e-04 -6.2915008102242464e-04 1.9957532237732120e-05
289 -7.4320077336998737e-04 -6.4165403850032269e-04 1.5680701767404671e-04
290 -6.7263156860346881e-04 -7.2756476635939499e-04 7.9092734197526717e-05
291 -1.9430545514630544e-04 -9.6250047310329637e-04 -1.6043152106969094e-04
292 -2.7207372180557035e-04 -8.8399877238236140e-04 3.7262730414787030e-04
293 -3.2754869320901589e-04 -5.5151270319858984e-04 -7.7442581762773301e-04
294 -1.0627564406840277e-04 -4.6986975092331375e-04 -8.8627664723612263e-04
295 -4.8407403444071902e-04 2.8236689072147936e-04 8.3602710621253696e-04
296 -5.5026231070384897e-04 3.9151088614955090e-04 7.4292100041252051e-04
297 -8.5954582634083882e-04 4.5341179677818919e-04 -2.0950634894091746e-04
298 -6.0824595899618768e-04 2.6858055211962208e-04 7.5266033817189060e-04
299 -6.6829335105082375e-04 3.7022177603162433e-04 6.4758031344425311e-04
300 -6.0035268841971334e-04 4.9469969964679723e-04 6.3012265218602718e-04
301 -7.0614864340127245e-04 4.6533884425408817e-04 5.3153060938952420e-04
302 -7.6903036773926165e-04 3.3776003593198866e-04 5.4079995218377693e-04
303 -3.0069586845516647e-04 -6.6169471644980465e-04 6.9183324263012193e-04
304 -6.2783836159391196e-04 5.8812784801083866e-04 5.0685050145516124e-04
305 -8.0397781106151861e-04 4.1578925452796832e-04 4.1738458717651507e-04
306 2.3264803084965737e-04 -5.4414790961998440e-04 8.1436943623719319e-04
307 2.4105356728973678e-04 -4.1897329412770147e-04 8.8493869045096023e-04
308 3.5516390107389738e-04 -4.8876467554952185e-04 8.0507236122781263e-04
309 -4.5547994654157592e-04 -7.3135404826576360e-04 5.0519117695820091e-04
310 -8.5245297419078920e-04 2.8722609734256231e-04 4.2963554682358288e-04
311 -3.9947848369505725e-04 -8.5853456748778223e-04 3.0954374753516182e-04
312 -7.6049134185674806e-04 6.3336631265855400e-04 8.1312166296898652e-05
313 -8.4385744538461010e-04 -5.0096982011871456e-04 -1.5924117992262385e-04
314 -6.3017110372700437e-05 9.8294274545380209e-05 1.0041587900164826e-03
315 -8.8115386301449729e-04 3.5371358740550100e-04 2.9841434935352305e-04
316 -9.7103685621776974e-04 1.9062013230633772e-04 8.5338943871656129e-05
317 -1.0823608661477697e-04 7.5819873244259157e-04 -6.4424755929961847e-04
318 2.5866035557731832e-04 -3.8809901298049047e-04 -8.9397922897663782e-04
319 -6.9083441538202249e-04 -7.1226089188306170e-04 -5.8356079175525919e-05
320 -5.9215972110359218e-04 -7.9796665090358190e-04 5.6609501398563547e-07
321 -6.5578532065838980e-04 -4.0634656109379277e-04 -6.3886063994694504e-04
322 -8.9636912129259920e-05 -1.8836964866331617e-04 -9.8848267035839157e-04
323 5.0469086606520471e-04 -8.5388349079986716e-04 7.5238014048495589e-05
324 -6.1399119383299863e-04 7.7520055182097745e-04 -9.1583438911660604e-05
325 2.8447257865417354e-04 5.4591514500181655e-04 7.9472138108992901e-04
326 2.9328889662398247e-04 -6.3236901677108043e-04 -7.2302477043606256e-04
327 1.6049999191849234e-04 -5.9783686094204728e-04 -7.9329581870641154e-04
328 4.0997604940799396e-04 5.4345076893384174e-04 7.3783692841001007e-04
329 4.8221718440146980e-04 4.3275265700919489e-04 7.6783783797914457e-04
330 4.5263347750187287e-04 4.3713633169075090e-04 -7.8276241788829959e-04
331 -2.5539077823543095e-06 9.7932289218585116e-04 1.6923880192216539e-04
332 -2.4328773474167485e-05 9.9210358120010935e-04 3.9052389834421733e-05
333 -1.5684728351806100e-04 9.8056948979186368e-04 -6.9689720161921348e-06
334 1.0988723678989352e-04 9.8454789003004067e-04 7.3571913336871103e-05
335 3.6016207793284038e-04 -3.6273661232798731e-04 8.6864862508436976e-04
336 4.6068446624806527e-04 -4.3146458035248477e-04 7.8294981824901945e-04
337 -8.1080444781759576e-04 2.0556344690534021e-04 5.4609160670240713e-04
338 -3.5000667830615439e-04 5.1324877058881661e-04 7.8984838012423342e-04
339 -1.0219422998430365e-04 4.5703391164010187e-04 -8.9170977239760635e-04
340 3.7057721087464015e-04 -3.1253288021567988e-04 -8.8364613092507772e-04
341 3.8308832927645705e-05 -2.6860668333028044e-04 -9.7299323869964784e-04
342 -9.2340607511891303e-04 3.5587428887773884e-04 -9.5462958406193222e-05
343 2.2524597853409086e-05 -3.7525282352296062e-04 9.3686335974351982e-04
344 -5.2119211815794563e-04 6.1213524834513025e-04 5.9521793591426817e-04
345 -5.3191533797847820e-04 7.1262250566179000e-04 4.5358700956193521e-04
346 -6.5390203390579933e-04 6.5238063414404591e-04 3.7265840632598788e-04
347 6.0328487326386600e-04 -3.6206100384160889e-04 -7.1630727840237885e-04
348 7.1138653238062412e-04 -3.7492442520501226e-04 -5.9671569327549273e-04
349 5.2870968917947817e-04 5.2074790074344859e-04 6.7385782133463868e-04
350 6.0318275471531884e-04 3.9809390615891974e-04 6.9547387342555188e-04
351 6.4630192279344263e-04 4.9049470266575366e-04 5.8549560284372254e-04
352 7.1389276875585177e-04 3.5865522208174166e-04 6.0317638146647676e-04
353 7.4347512671804747e-04 4.5256116998749411e-04 4.8993386991280641e-04
354 -6.4375930452013018e-04 -7.2948073687426865e-04 2.0733410942680764e-04
355 2.5471797482608949e-04 5.4839272528051910e-04 -8.0240687581939951e-04
356 1.2878895588987809e-04 5.6250077703287127e-04 -8.2343238881926728e-04
357 -6.7867874426642426e-04 3.2534996685953780e-04 -6.6038737896160300e-04
358 5.2112846340117652e-04 -8.3073993668887202e-04 -1.6903418680911449e-04
359 4.5048156058794697e-04 -8.4083198115145728e-04 -2.8708174811057074e-04
360 -8.1972606969838281e-04 4.8007940338784316e-04 2.9576368142502388e-04
361 -1.3379537670886262e-04 -5.3509000845322629e-04 8.4268157571510663e-04
362 -1.7326754574172561e-04 3.4504135635270476e-04 -9.3145383282177351e-04
363 -2.1366466342878044e-04 5.2227321256971700e-04 8.3274268688072128e-04
364 -5.1407981928449004e-04 8.3326174839486438e-04 -1.6959482464859601e-04
365 1.5486696109254266e-04 5.4616489335906297e-04 8.3077911909475687e-04
366 -3.4651970323926618e-04 -2.5145944970201211e-05 9.4771474339308819e-04
367 -7.0644746800429192e-04 -6.3733602271061470e-04 2.9305989403257071e-04
368 2.0740270003661085e-04 6.5678933941713195e-04 7.3112527787208331e-04
369 8.6408761178285756e-05 6.3021330359393896e-04 7.7678940686672678e-04
370 6.9392979522192989e-04 -2.5114778815920263e-04 -6.7935350273816484e-04
371 -5.3841400189294584e-04 1.6855565072015593e-04 8.3345686647105441e-04
372 -6.6590972522477629e-04 1.3492206053828998e-04 7.3978922256131945e-04
373 5.6053054236113772e-04 8.1874315279413588e-04 -5.1758885213789038e-05
374 -1.2612060003100648e-04 -8.6821131873999040e-05 9.9913740841563008e-04
375 -5.4013012842041842e-05 -1.7167042023147271e-04 9.9438127359761409e-04
376 -3.0161833447282381e-04 -9.1884143323002401e-04 2.3627474290811095e-04
377 -4.3230465581959172e-04 -8.8183193807754698e-04 1.6223201625166001e-04
378 -9.1962915958676930e-04 2.0136330697245671e-04 3.2566631735032615e-04
379 4.1608940849585609e-04 6.4181137773132544e-04 -6.4707687216419038e-04
380 1.6542242560294804e-04 -7.1055821702095331e-04 -6.8887131097625026e-04
381 2.8776244569391222e-04 -7.3806942684606408e-04 -6.1272816887743883e-04
382 -8.9735289552853232e-04 -3.7749387851172784e-04 -2.0256590457333993e-04
383 -8.2675981225579197e-04 -4.6942659035511397e-04 -2.9432616879888630e-04
384 -7.6953336031362299e-04 -5.7832124249930386e-04 -2.5193334459042643e-04
385 -1.7337353890476838e-04 -9.3420936335008025e-04 2.9932839956780827e-04
386 -6.6288951782861978e-04 5.2686994417502182e-04 -5.2923431191169890e-04
387 -7.6231403136314357e-04 4.7052142215406898e-04 -4.3719113458783032e-04
388 8.7315777215710264e-04 2.4981635241672491e-04 -4.1164068777887938e-04
389 -9.0508642414853383e-04 3.2973333472889138e-04 -2.4614125804292661e-04
390 -5.0392571048106375e-04 8.5485112650556818e-04 -3.7273339728062570e-05
391 -3.9937354933184337e-04 9.0323229741172623e-04 -1.0654125149434490e-04
392 -5.9710306375956065e-04 7.9239300454040382e-04 3.5213884369324920e-05
393 -5.9004501939377172e-04 -7.9000168406109599e-04 -1.2748179096808498e-04
394 -4.9922669194650332e-04 -8.5743678075469283e-04 -5.5962236697771799e-05
395 7.7974340825467142e-05 9.8858970596027245e-04 -5.4832005484867964e-05
396 2.0971323513489353e-04 9.7068752692826938e-04 -2.0330695224825243e-05
397 5.1708270605900540e-04 3.2906738797540923e-04 -7.9681895305183247e-04
398 2.5547938497943090e-04 -2.9991538420131539e-04 9.2913823997669014e-04
399 3.7034107942170993e-04 -2.3167750763393747e-04 9.0985781720453855e-04
400 -2.6682595209361510e-04 6.1991675484289390e-04 7.4248654099030387e-04
401 -1.5784959029450067e-04 6.1161364535806126e-04 7.8026740435173164e-04
402 3.1902446658666698e-04 -6.1208925893555628e-04 7.2973639894135199e-04
403 6.4747219342027140e-04 2.7450882362637443e-04 7.1585392363113633e-04
404 6.6496563400029888e-04 5.9115562295987054e-04 4.5382997890903195e-04
405 -3.1334811838407866e-04 -9.3796676083102821e-04 1.0430144451728763e-04
406 2.6225319048955046e-04 -2.7892476354316479e-04 -9.3343678557777010e-04
407 3.5897773799004138e-04 -1.8614805932850207e-04 -9.2392253573913825e-04
408 8.1331087498434548e-05 4.5532809442562955e-04 -8.9477793990449248e-04
409 -8.8476451892873040e-04 4.2721773499482946e-04 1.5455575099500803e-04
410 -4.4804260925344273e-04 8.1224419936886338e-04 3.6206384638869170e-04
411 5.4992552598582644e-04 4.3551628043752856e-04 -7.1558647439587755e-04
412 4.5319479227178678e-04 6.3644686509042696e-04 6.2732039732938825e-04
413 8.0514984518362590e-04 3.1337104220735540e-04 5.0187764475111032e-04
414 8.3257863293367503e-04 3.9006769874079967e-04 3.8527766092241310e-04
415 3.7254404260165761e-05 -1.5670383047883865e-04 -9.9745410836741839e-04
416 -9.6870538628690409e-04 2.1667449391339817e-04 -3.8005727179773996e-05
417 -7.1573185693588152e-05 3.4327851859909393e-04 -9.4543432853776003e-04
418 -1.3472683326763669e-04 2.4211670861702791e-04 -9.7041226902891821e-04
419 3.0274782166228899e-05 1.5874741285702042e-04 -9.9618926060019526e-04
420 -4.4335476436392124e-05 -7.4076048915410175e-05 -1.0067806383855617e-03
421 -9.3751516567175158e-04 3.2365353633739537e-04 5.5903113664595243e-05
422 7.9593182255911440e-04 -2.5764551020917621e-04 -5.4829235366066654e-04
423 8.0510942184754076e-04 -3.7437570560768798e-04 -4.5707397378570708e-04
424 2.4651359750157628e-04 9.5631587209455912e-04 1.0996639004579820e-04
425 2.5636072042745792e-05 -6.7851373444175595e-04 -7.4156577367471730e-04
426 3.6302601389141813e-05 -5.4473830235817128e-04 -8.4685803813463448e-04
427 -7.7148537273988795e-05 -5.9629183130724601e-04 -8.0618339577877784e-04
428 4.0379474689053945e-04 -8.9355957616830950e-04 -1.6808515291283913e-04
429 3.2147595122258556e-04 -9.0180636299811974e-04 -2.7421147410156509e-04
430 3.5960577947795932e-04 -8.4110364008831596e-04 -3.9816633355652120e-04
431 -6.0276528765264509e-04 -7.2003080001008430e-04 3.3184897587731091e-04
432 -6.4730739377030690e-04 -6.2386569549714754e-04 4.3355092162958666e-04
433 1.4334815809990208e-04 -3.3012366212837728e-04 -9.4306545211144169e-04
434 -2.5172966141416656e-06 5.5525928863120065e-04 -8.3955604073271341e-04
435 6.8879291711481050e-05 6.6368344167767662e-04 -7.4978817686259460e-04
436 8.7983982617741944e-04 2.6468440463986052e-04 3.8710844986408380e-04
437 8.9918997753201800e-04 3.4169427105834713e-04 2.5492380093201158e-04
438 8.4127092311736410e-04 4.5763120238909806e-04 2.6993138537758249e-04
439 7.5199903968130267e-04 2.2432417409001438e-04 6.2249514469192525e-04
440 -5.7032958051373654e-04 7.5565493551246613e-04 3.0715902279388716e-04
441 -6.9063636747188518e-04 6.8268535726565200e-04 2.1578691555807695e-04
442 6.7708834909478428e-04 -1.1800968257025967e-04 7.3249159128270188e-04
443 7.2410302822729412e-04 -2.3988109970633846e-04 6.5050783919910066e-04
444 8.0813914326914550e-04 -2.4377081420702022e-04 5.3616848435079521e-04
445 7.3959420182574567e-04 -3.5967080393953206e-04 5.7007742600675472e-04
446 8.1635376142008814e-04 -3.6084752220820227e-04 4.4729905064247715e-04
447 7.3647778284411552e-04 -4.7807938694453003e-04 4.7601240247558047e-04
448 6.5251512373167844e-04 -4.7665318049272591e-04 5.9078514470919594e-04
449 8.0144236423676106e-04 -4.7865570553640792e-04 3.4993092361901539e-04
450 8.7296726092265815e-04 -3.6059243362755868e-04 3.1756224638014704e-04
451 6.3883587487131399e-04 -5.9282239256570847e-04 4.8987388671478140e-04
452 6.7352509139462734e-04 1.3253712803196489e-04 7.3376559581101494e-04
453 -5.6322604688066960e-04 -8.0943055222300710e-04 1.2718417172247553e-04
454 2.3354813778988105e-05 -3.9862226084387607e-04 -9.2700939285125469e-04
455 8.9540161928911618e-04 4.0978512787306296e-04 1.3781780007811765e-04
456 4.7262155928119839e-04 -2.1226692283097295e-04 -8.6387158820142474e-04
457 5.0083715559453700e-04 5.2579480283811717e-04 -6.9063207500781945e-04
458 6.0954772155519938e-04 -2.3463198051909697e-04 7.6483898651723140e-04
459 1.3508686100571798e-04 9.6301664051627242e-04 2.0699624714664322e-04
460 6.2794687779467245e-04 6.9515124466253380e-04 3.3854214983762625e-04
461 3.8095924819534616e-04 5.3646444055444043e-04 -7.5798548814715874e-04
462 -4.1962289279705956e-04 6.9959564986513101e-04 5.7756887438386640e-04
463 7.6571040444647854e-04 -1.3014890955380281e-04 -6.3285890090613792e-04
464 8.7754083909975594e-04 -2.5545652475931195e-04 -3.9996304009823092e-04
465 8.7106864891763210e-04 -3.6674108021524034e-04 -3.1615983353153843e-04
466 1.2292829816500629e-06 8.2044661399462084e-04 -5.7059123404850623e-04
467 9.2692137376425277e-04 -2.4666985412242614e-04 -2.6760680850236297e-04
468 9.1387252675336915e-04 -3.5616685693626250e-04 -1.7024389113892349e-04
469 1.5716631428263053e-04 3.4507531741991893e-04 -9.3422111354531697e-04
470 8.4809489961791735e-04 -4.7274749325842925e-04 2.2020829863766099e-04
471 9.1211775405805823e-04 -3.5130244757582618e-04 1.8643182209214819e-04
472 1.9658750208027053e-04 7.7184194736341807e-04 6.0590934258144494e-04
473 1.4600957700228761e-04 -2.0727894865875041e-04 -9.7749432127760801e-04
474 2.2722992466247434e-04 -8.9519904717172297e-04 -3.7636555202408782e-04
475 5.5789043814192369e-04 7.7040545058602373e-04 -2.9216738576751008e-04
476 3.2381518212606784e-04 7.1583044971550245e-04 6.2011069745099919e-04
477 2.8324857505999799e-04 7.1897954059748357e-04 -6.3626004719239315e-04
478 -1.8824601260145692e-04 -5.5758862510543522e-04 -8.1548477079010882e-04
479 -1.7326866167337686e-04 -6.6942224863239237e-04 -7.2809357462205878e-04
480 -3.9227442213102351e-04 8.3024849783019082e-04 -3.8610265833034183e-04
481 1.9588825976499100e-04 6.5849935559493566e-04 -7.3085679441897472e-04
482 7.5746720429828202e-04 -5.9877393269763433e-04 2.4723916701972965e-04
483 8.8424782972245123e-04 -4.4606713222741535e-04 9.0952556745063117e-05
484 9.3569594331289248e-04 -3.3104373577282049e-04 5.7009983202960903e-05
485 5.8485067111876683e-04 -2.3535521606415504e-04 -7.8325763223113744e-04
486 3.9336569708991494e-04 1.5913324631020546e-04 -9.1398221450909878e-04
487 9.8364479243869224e-04 1.3176042770904277e-04 -5.9854342040016346e-05
488 9.4997395631488514e-04 2.7106835874094603e-04 -1.1870885948141992e-04
489 9.6649733214107850e-04 2.2909538376399708e-04 6.0635228314853448e-06
490 8.9355165002909470e-04 4.2319059264992181e-04 -1.0409455139452179e-04
491 3.4742343317824135e-04 9.3075028078465957e-04 1.0741808355506678e-05
492 2.9219828120102213e-04 9.4138707393077894e-04 -1.3031291980286955e-04
493 4.3254883094784189e-04 8.9096138006081432e-04 -7.8312747335598399e-05
494 9.0913634095056710e-04 -4.0089949311655179e-04 -3.6564308129851269e-05
495 9.5218134008751942e-04 -2.8115258217837333e-04 -5.3118045581671591e-05
496 -3.8822637251691248e-04 9.1384209900662603e-04 1.8899729490225313e-05
497 9.8311676257215952e-04 1.2426407240467827e-04 8.0969522205961663e-05
498 6.7041032822896514e-04 6.8143262352388936e-04 -2.7642326464492200e-04
499 9.8415311874291067e-04 -1.3196067835489052e-04 -6.3031203538777833e-05
500 9.6496238772713326e-04 -1.1501050438884056e-04 2.1454518424204115e-04
501 9.2809853575788416e-04 -1.2667930334466553e-04 -3.4055859754681105e-04
502 8.5741222716272331e-04 1.2496889068969890e-04 -4.9681081620596076e-04
503 8.6096981608168666e-04 -1.2360183760741765e-04 4.9162881185960518e-04
504 4.3110303133605540e-04 1.0835356543752160e-04 9.0514453349032872e-04
505 4.2337037356341518e-04 3.2935558758261433e-04 8.5206614315908296e-04
506 6.5359993073925882e-04 -3.6104855740838593e-04 6.6930796349463353e-04
507 3.0656201686902356e-04 -8.9532903602346995e-05 9.5791878013395135e-04
508 5.6254965307395121e-05 -1.0925950752856979e-04 1.0038413425630217e-03
509 1.5447676538072867e-04 -2.0463391513616400e-04 9.7711424743389288e-04
510 2.5725059481844742e-04 -1.7439065075849824e-04 9.5993860592037661e-04
511 -2.0056968991321572e-04 6.7381931798290019e-04 -7.1504005814227378e-04
512 2.7186190863263401e-04 9.2553105381057443e-04 2.4258366908008020e-04
513 5.7156801387837745e-04 -8.1304822327401031e-04 -3.9979374718977681e-05
514 2.5439650755064934e-04 -9.6066148203620600e-04 3.9538574091953270e-05
515 2.9583198912510157e-04 -9.3559185283935084e-04 1.6590665198688205e-04
516 -5.4975636219855369e-04 5.6323016761360525e-04 -6.1777395699102219e-04
517 7.7519549576183285e-04 -5.7367195947162063e-04 -2.4810413624366898e-04
518 -1.4289392945295053e-04 -9.8317543702447063e-04 -3.9074853999519524e-05
519 -2.9053571277209663e-04 -9.5032875438471308e-04 -4.6104003849300386e-05
520 -3.3162842861760684e-04 -9.1962295391052277e-04 -1.8505689355672873e-04
521 -7.8497198073238417e-04 5.2647361663945343e-04 -3.1108593598154157e-04
522 -9.8147693596892867e-04 9.4627074448989644e-05 -1.2187007881678685e-04
523 7.8124628246519846e-04 6.0247762976145189e-04 1.2032429885580144e-04
524 -7.9674039405573768e-04 -5.4567462988888661e-04 2.3919079073248876e-04
525 7.6999033621495629e-04 5.1815446303729877e-04 3.6228234071698632e-04
526 4.8843665375214213e-04 -7.6853327472431378e-04 -4.0814721207206741e-04
527 -9.4823546621012375e-04 -2.7274218998674148e-04 -1.1898537966513750e-04
528 -9.3492218746768615e-04 -7.2293364863899694e-05 3.3507054587381444e-04
529 -9.1117292298695989e-04 5.3355993038913327e-05 4.0038506842246036e-04
530 -8.4180084199811096e-04 5.7110143731946477e-05 5.3624145384394237e-04
531 -7.7508409155187686e-04 -6.1152579792734217e-04 -1.1681296905440831e-04
532 -9.7282897933476304e-04 -6.5720626910172362e-05 1.9404782908288474e-04
533 -7.3431341209252558e-04 5.3442299253260374e-04 4.0989348209719749e-04
534 -6.9865304751976181e-04 7.0526584022111399e-04 -1.0412508835220899e-05
535 -2.3468743324539897e-04 -9.2298354185657366e-04 -2.9168696742634057e-04
536 6.2303500536072681e-04 7.5692029640303461e-04 -1.6458660844563943e-04
537 -1.3904790167842276e-04 -8.9010845872374597e-04 4.2971761300345998e-04
538 -4.5514076932565819e-05 9.8797680041765360e-04 -9.0831749067729663e-05
539 -1.6979963668805774e-04 9.4713129804592999e-04 -2.4971109817374611e-04
540 6.1956435973364047e-05 9.7175175156408427e-04 -2.0263394032159383e-04
541 -9.3319072194942676e-04 2.8519797430514931e-04 1.8965998905418817e-04
542 -8.7411133499712770e-04 -4.3125268333863955e-04 1.9725494738479844e-04
543 -8.0454329811460647e-04 -8.7121488122616188e-05 5.8818280219416475e-04
544 -7.5344413060917184e-04 3.3001719826309281e-05 6.5922488267208975e-04
545 -6.5339015217663978e-04 -5.2637250354823782e-04 -5.4356394042625190e-04
546 -7.4256062425187954e-04 -4.2639351942136248e-04 -5.1408732047582880e-04
547 -7.4827445481772943e-04 -3.0489793542490967e-04 -5.8984100380590440e-04
548 -6.4846345813730582e-04 -2.7966063898514668e-04 -7.1282684525160315e-04
549 2.6114827905666666e-04 -8.1280736598591120e-04 5.2042193139843827e-04
550 5.6139644390504069e-04 5.9774945683102913e-04 5.7119789196658107e-04
551 8.6616289516458717e-04 3.6575319382621204e-04 -3.2751303332258176e-04
552 8.7727768250002425e-04 -2.4293169516034023e-04 4.0839318042970162e-04
553 1.5975061706526109e-04 -7.7112037575086101e-04 6.1947887795745708e-04
554 -4.4283055861204086e-04 -6.4522456273315230e-04 6.2635114136145979e-04
555 -3.8092202761721348e-04 -5.6615292943330744e-04 7.3677392155417989e-04
556 -8.2973576829734237e-04 -4.4018387074422729e-04 3.3082244445900924e-04
557 -6.0492147418563446e-04 -7.2032839457234626e-04 -3.2680301619466710e-04
558 -7.2186555661963290e-04 2.4795407962678010e-04 6.4832049337761922e-04
559 -6.7616795057818158e-04 -4.4925347346556703e-04 5.8471938291576261e-04
560 -5.8125575038214436e-04 -5.6563503821738920e-04 5.8737742114109632e-04
561 6.3135712307042248e-04 4.7967463252056373e-04 -6.1134207019608827e-04
562 -3.2052954548959236e-04 -6.8008315728943663e-04 -6.6375698314929650e-04
563 -4.8524704247135956e-04 5.0892831198138763e-04 7.1539855233472766e-04
564 7.1979213025627584e-04 -4.8514120625999533e-04 -4.9529876432836256e-04
565 -7.1487429719287553e-05 -2.8890676311641111e-04 9.6522289832039882e-04
566 -1.0329921572620426e-04 -4.0306234612243533e-04 9.1926353078229444e-04
567 -1.9482707817885863e-04 -3.1536393685958723e-04 9.3894340438163010e-04
568 -1.6479807431308828e-04 -6.4776495727973985e-04 7.5040964089722131e-04
569 4.1122758355543641e-04 -6.6107405852702697e-04 -6.3101507301661854e-04
570 -7.0532615083200383e-04 -9.4998212803173589e-05 7.0662225327169535e-04
571 5.3621484640959467e-04 3.1057965670174123e-04 7.9143374220810056e-04
572 4.8339225949348846e-04 -3.3761010248471572e-04 -8.1553343104889201e-04
573 1.4400995084264007e-04 -3.3903355808942773e-04 9.3998721248235884e-04
574 -7.3903252290114083e-04 2.0085889829234651e-04 -6.4493767808721067e-04
575 1.5080504261054072e-04 -4.6690610202774959e-04 -8.8080063143618475e-04
576 -4.4935707977838128e-04 -4.3304562687147862e-04 7.8949880352310853e-04
577 -3.0056673353103907e-04 3.4735154634234384e-04 -8.9677011222108602e-04
578 -2.4308998095697726e-04 2.3880150856590100e-04 -9.4944908664507186e-04
579 -3.0543096888594633e-04 1.2426166174250481e-04 -9.5338512623995204e-04
580 -4.8095397528092612e-04 1.6594599713101652e-05 -8.8505464755236733e-04
581 4.5576396590119809e-04 -5.6414684499623451e-04 6.9487337894413935e-04
582 4.8128447871386370e-04 -3.0413287737546729e-04 8.3027073401915257e-04
583 -4.3756147793248080e-04 1.3796140586739682e-04 -8.9705370952118137e-04
584 -4.0552727501573738e-04 1.8181641715815804e-04 9.0500594696618002e-04
585 -4.4269401871841548e-04 7.4491367710784675e-05 9.0270153264992103e-04
586 -3.3627460367565472e-04 -4.1305804749510117e-04 -8.5474068701722023e-04
587 2.8666292790331693e-05 9.4789065559216319e-04 3.0161275136609313e-04
588 -3.8322881497315737e-04 -8.9375988999839493e-05 -9.2869142977636428e-04
589 -2.7243592903348829e-04 -5.9377107053442768e-05 -9.7021670414977731e-04
590 -1.8544766915570767e-04 -1.1059277289357221e-04 -9.8684713470069906e-04
591 -1.4315796936008833e-04 4.1682086496397190e-04 9.0663302545121579e-04
592 -5.1528494245811087e-04 7.9318142008799283e-04 -3.0898682234306823e-04
593 -2.3545123360385321e-04 -3.2794933507182860e-06 9.8213434028570691e-04
594 3.6698829448000251e-04 2.2023944864590410e-04 9.1328282457866302e-04
595 -8.0098354167339886e-04 5.6036708672162422e-04 1.7925176308428796e-04
596 4.2261318164097468e-04 -8.8108170872359265e-04 1.8920521183575381e-04
597 1.0103324076770951e-04 4.3489551149371688e-04 9.0393625483960746e-04
598 3.2191755949240180e-04 8.9961958518330843e-04 -2.7680090678318744e-04
599 1.8971207532035266e-04 -6.6353040178275904e-04 7.2997987512428311e-04
600 -5.2740209176485619e-04 -8.0610775496803798e-04 2.5062567115533571e-04
601 -8.4112755110084074e-04 4.0818887238336035e-04 -3.4158830666464223e-04
602 -8.1088159850566295e-04 3.4688475185687043e-04 -4.6550335591017192e-04
603 -7.3820790786608380e-04 -5.3585220817764685e-04 -4.0385460632520059e-04
604 -9.0814370316023331e-04 1.4154035214372830e-04 -3.8386030541463946e-04
605 -4.0815611333516744e-04 -9.0606746624480414e-04 1.8359415547917289e-05
606 -3.2114289407471022e-04 8.4394483752479421e-04 4.2170091543058513e-04
607 5.1604273602460826e-05 1.3492527901435712e-04 9.9951438765283037e-04
608 -4.1312301135427168e-05 7.6645469794441089e-04 6.4316468799037474e-04
609 -7.4158363880419713e-04 -1.7112418205981277e-04 -6.5147694320656169e-04
610 9.5054084745179802e-04 2.5917662199785140e-04 1.4009164053207829e-04
611 4.3094634887579206e-04 -9.4720505749893395e-05 -9.0672246410966606e-04
612 9.1938342492615889e-04 1.3075169522811810e-04 3.6202430632911140e-04
613 -3.6911677995140517e-04 -8.7228694004841270e-04 -3.0847209031377795e-04
614 5.3931940262000383e-05 -7.8817746361905551e-04 -6.1622673169821763e-04
615 4.5904897506481983e-04 -8.8064819448002707e-04 -5.4158099673737565e-05
616 -6.8255243385754278e-04 -6.9499088318446278e-04 -2.0404294147880966e-04
617 -9.2942985096848758e-04 -2.4845786993386734e-04 -2.5291793162626497e-04
618 -6.1675741502154264e-04 4.4974362179144950e-04 -6.4779636388851011e-04
619 1.9018140154415341e-04 -9.4987098298063223e-04 -2.3234616509563467e-04
620 -3.3670923154531166e-05 -9.3756161160728658e-04 3.3681548947430188e-04
621 3.8954284319924777e-04 -7.6193274315588502e-04 -5.1689964286608895e-04
622 -2.3012907342263465e-04 -4.4448185105841329e-04 8.7455817693208324e-04
623 8.0062078243510687e-04 -4.7678908330301225e-04 -3.5482076090508194e-04
624 9.2508939306584488e-04 1.2970157589402292e-04 -3.4685658499681785e-04
625 -3.9880982468401522e-04 6.0983086263166175e-04 6.8789979260658459e-04
626 -2.5674089000346983e-04 -5.6679810766270143e-04 7.8991698341038621e-04
627 -9.3344060619163382e-05 5.3221780577530193e-04 8.4917139742232803e-04
628 4.7916768761447818e-04 8.6894244969991407e-04 5.1023174823509093e-05
629 -9.5469701131416197e-04 5.8117255579651246e-05 2.7338190402136732e-04
630 -5.8716015650823441e-04 7.8323512327893076e-04 1.7000589771858400e-04
631 -8.2928455378812843e-04 -1.9275128018069045e-04 -5.2240985752243418e-04
632 -4.0399021971933015e-04 8.7432426111372949e-04 -2.4710244519102995e-04
633 9.2460395058885326e-04 2.5360948513368856e-04 -2.6698783899986860e-04
634 -3.2073949519789821e-04 8.4032202631134851e-05 9.5330097942536917e-04
635 3.8261447351309688e-04 -9.1608176677506945e-04 6.0947597837813337e-05
636 -6.6160651143462557e-05 -9.7049959552022330e-04 2.1059970168538228e-04
637 -4.7376473888602420e-04 -5.7781125238270920e-05 8.8769861463222144e-04
638 4.3429356561534713e-04 2.5553391649891079e-04 -8.7095643829088513e-04
639 4.3464071041852178e-04 -1.1367334161641747e-04 9.0273426068168824e-04
640 -7.0307074724712762e-05 6.6320348574238979e-04 -7.4981381004773516e-04
641 -9.5263362304120634e-04 2.2636303890042440e-04 -1.6899798930994849e-04
642 -8.7780162605995799e-04 2.7746330586963630e-04 -3.7984871823278478e-04
643 2.8463197444858262e-04 -7.2231862289745053e-04 6.3358367921880951e-04
644 5.5930700207152046e-04 -4.7178448644042716e-04 6.8610170086536644e-04
645 5.9893322442573294e-04 2.2852969568699301e-04 -7.7344532499812042e-04
646 -1.9948718879452283e-04 1.0605342893770469e-04 9.8438586027083542e-04
647 2.6126673806116107e-05 5.4245412026321567e-04 8.4755173950162106e-04
648 -7.4309941194627179e-04 5.8992685778072346e-04 2.9609894348118110e-04
649 -2.6959211013936641e-04 9.5358835835827069e-04 6.7269106419786146e-05
650 9.2871475595875108e-04 -2.3687338886755444e-04 2.7021080245071124e-04
651 -4.7064720409161528e-04 -8.5437413887334086e-04 -1.9827192130604244e-04
652 -8.7402093796745749e-04 -3.4233743962862724e-04 -3.3142618701550655e-04
653 -1.9263557594502954e-04 1.4144256564283049e-04 -9.8073592386441351e-04
654 8.4954889149716254e-04 -4.6878221770309139e-04 -2.2211479839742099e-04
655 -7.2502722479889179e-04 4.0795002615248927e-04 -5.5278664386165842e-04
656 6.6670249354754401e-04 -1.2278733017984550e-04 -7.4094586672104304e-04
657 -7.4771258541020803e-04 -5.4000339932367444e-04 3.7711445474851115e-04
658 -3.4804818076473011e-04 2.5393904760223497e-05 -9.4646587951050724e-04
659 -1.6278645503816773e-04 1.0606970011118351e-05 -9.9723201886170562e-04
660 -3.9810609311495356e-05 -1.8829088710778225e-06 -1.0089302660777420e-03
661 8.5124614675305529e-04 -5.1365453459132043e-04 -4.0764971330052867e-06
662 3.6873008233452275e-05 -2.5760177396896622e-04 9.7632704376009118e-04
663 5.0697132303561382e-04 8.3528875437663961e-04 -1.8161071392452658e-04
664 -2.8058443166437683e-04 9.5145256275695452e-04 -4.7422289870409212e-05
665 -2.8967007479573526e-04 9.3290061544562303e-04 -1.8217018955415555e-04
666 -7.8103589123059818e-05 1.2370189336673558e-04 -9.9977678596023046e-04
667 2.5602267810541672e-04 -8.2782474432287971e-04 -4.9765875635793722e-04
668 -5.6466491670072649e-04 4.6417868735879206e-05 8.3154149169972443e-04
669 -8.2529383871110269e-04 -3.2064562322632075e-04 -4.5944218752578576e-04
670 -4.8821018787428030e-04 8.5974942871619995e-04 9.4589383658601537e-05
671 -9.5798988971531620e-04 1.6064764025270660e-04 2.0707816273100773e-04
672 5.6042978858146433e-04 -3.5725181718541493e-04 7.5232573259706350e-04
673 -1.9620362979275978e-05 2.4772884590705654e-04 -9.7818711551348868e-04
674 -1.9643117989125421e-04 -9.6035772023484302e-04 1.6901070378630924e-04
675 4.1237079008736181e-04 7.3874500336095611e-04 5.2982754466692568e-04
676 7.5900094004017828e-05 7.2497232981396970e-04 6.8843363658013877e-04
677 4.8819833039162510e-04 2.0838809314987697e-04 8.5556850541114004e-04
678 -4.9037962781887955e-04 -7.7917689476369794e-04 3.8185212953628758e-04
679 2.9789859985648794e-04 -7.8696362016302874e-05 -9.6137124383472610e-04
680 3.8807701293341797e-04 -6.6638815822093111e-04 6.3902938488750842e-04
681 -8.7426239730736420e-04 1.6281140892361538e-04 4.4957308783567167e-04
682 -8.9832139440815912e-04 4.2175579102921446e-04 1.4892728767476112e-05
683 -5.6188309774526693e-05 -5.2555166751320257e-06 1.0085246723371927e-03
684 3.3871076212120039e-04 -9.3290342704851277e-04 -6.1488664920377606e-05
685 3.9850262537006472e-04 8.8977073015532088e-04 -1.8914762155809411e-04
686 1.7134939399187746e-04 -7.9753658717295560e-04 -5.7832277268926634e-04
687 1.6860872536523001e-04 9.6972403391517865e-04 -1.3016688652162805e-04
688 -8.0626584501707825e-04 -4.2335175305096136e-04 -4.0298907925357362e-04
689 -5.3839877715688143e-04 -6.5174770215043788e-04 5.3144611079868011e-04
690 5.7129624557586346e-04 -6.9092287220200198e-04 4.3703328149419826e-04
691 9.5719429278151385e-04 -2.2949418942118456e-04 1.4208145082362470e-04
692 -6.8861032726890022e-04 -5.3043694896750529e-04 4.8972989160288988e-04
693 9.3030351011023525e-04 2.2448099499775828e-04 2.7078760581272982e-04
694 -1.7366776707869005e-04 9.7017061906133715e-04 -1.2210607886226530e-04
695 9.0209179879631820e-04 3.6037339806639103e-04 -2.0959672454122537e-04
696 -4.9430748986876107e-05 6.5722350436998845e-04 7.5880859334458432e-04
697 -3.3132304866900314e-04 -4.7588278773782355e-04 8.2137207599273121e-04
698 9.2699686852357318e-04 3.5894549005570581e-04 1.4268780521561821e-05
699 -4.8833260695331970e-04 -5.3750342505291273e-04 6.9108413058404619e-04
700 -6.6134581556541526e-04 8.8061040063663771e-06 7.5432580229031136e-04
701 5.6493716878537169e-04 -5.5910119589864832e-04 6.0812574067180497e-04
702 -6.9220359545359568e-04 -6.3602783677169192e-04 -3.2624018812679007e-04
703 -7.6623605044982997e-04 2.9719936818177754e-04 -5.6693686041011542e-04
704 4.4665987494753537e-05 3.4487637767270581e-04 -9.4645134719218468e-04
705 3.0417507895048949e-04 6.1959270679997258e-04 -7.2655038399193120e-04
706 -3.1278881924412766e-04 6.8494222401440730e-04 6.5900474356726303e-04
707 1.1173091924266596e-04 -9.2714769842020309e-04 -3.4648574386502378e-04
708 -6.6949513115058517e-04 7.2525511626791344e-04 1.0221638059142720e-04
709 8.5124190300822636e-06 7.3551072351416274e-04 -6.7876331158428743e-04
710 -4.0402280726917249e-04 7.7336042194538538e-04 4.8209673306493021e-04
711 -9.2468051391739897e-04 2.1876296679902685e-04 -2.9125416785680860e-04
712 7.7016669767977861e-04 1.0338950475942777e-04 6.3102259662961666e-04
713 -2.1058725307560914e-04 -7.5272230988335730e-04 -6.2481969353916195e-04
714 6.3329979664667445e-04 3.5083424539369019e-04 -6.9360756966417385e-04
715 -2.1317813438548347e-04 -9.6895503956601547e-04 5.0533002822783964e-05
716 -2.6213852945499935e-04 5.1513461521567917e-05 -9.7279653397707735e-04
717 -4.0412461877476418e-04 -9.0266110232723850e-04 -9.4279801018064605e-05
718 4.9668235101807835e-04 -2.0350467152451730e-04 8.5139752447395119e-04
719 7.2573207437305566e-04 -5.6673199298947461e-04 3.8100554940197429e-04
720 8.4126699760381490e-04 5.0670908637079955e-04 1.4907200203103955e-04
721 2.4575573952463219e-04 -1.6847827895434523e-04 -9.6381922231631324e-04
722 -5.7166748366917338e-04 -7.7911404288916783e-04 -2.3384693201271157e-04
723 3.8047622586369012e-05 7.9001200611574659e-05 -1.0060455181212435e-03
724 -1.8352075894522817e-04 7.1138993070004599e-04 6.8261448363026919e-04
725 8.7496637720816805e-04 -4.5867653735363835e-04 -1.0852334391359616e-04
726 5.8590619391976617e-04 2.0101064425571274e-04 7.9086678318936654e-04
727 7.8245728145054599e-04 5.6569531124997172e-04 2.3808765882875235e-04
728 5.4177863200864434e-04 5.8688338921830305e-04 -6.0066017602995703e-04
729 4.7652515337300722e-04 9.6787326398449454e-05 -8.8125538388305171e-04
730 7.0748936387618662e-04 6.1920709380709391e-04 3.2535952104286294e-04
731 -2.4794828732445004e-04 -6.1781124086377804e-04 -7.4987420954889016e-04
732 3.4012624013095982e-04 6.1680253307027147e-04 7.1334452709366448e-04
733 -7.1814367040635367e-05 9.7200758546971393e-04 -1.8960518248178952e-04
734 -2.3572488649901412e-04 -4.7666915294038257e-04 -8.5433996140512052e-04
735 9.5392721941864203e-04 -2.3290175801880147e-04 -1.5453127578715016e-04
736 9.6920799188031956e-04 -2.1607530739642297e-04 2.8785847623606357e-05
737 -2.1061955218388268e-05 -5.4090944897401966e-05 1.0086663977625651e-03
738 -5.0035013009858793e-04 -8.5616761709015265e-04 5.5657252900444848e-05
739 4.8768557036445317e-04 2.0755387885736088e-04 -8.5545122138703372e-04
740 -7.6234510378425646e-04 1.3719382703018167e-04 6.3299546204519097e-04
741 -1.4709136051487153e-04 2.8186067681739022e-05 9.9845482464392277e-04
742 -5.6047051157770997e-04 -6.9897579273821091e-04 4.3644073316728227e-04
743 -1.0234259684387736e-05 4.4114124830109229e-04 -9.0500219418846643e-04
744 2.9696191920753782e-04 -9.3412182186184344e-04 -1.6614794009149907e-04
745 -8.5243524590974606e-05 -6.8162142504492806e-04 -7.3020103244412831e-04
$EndNodes
$Elements
1486
1 2 2 0 0 410 440 345
2 2 2 0 0 421 541 409
3 2 2 0 0 409 682 421
4 2 2 0 0 545 603 546
5 2 2 0 0 426 427 294
6 2 2 0 0 294 454 426
7 2 2 0 0 265 682 409
8 2 2 0 0 24 41 4
9 2 2 0 0 3 24 4
10 2 2 0 0 238 642 602
11 2 2 0 0 520 651 613
12 2 2 0 0 653 666 659
13 2 2 0 0 404 460 98
14 2 2 0 0 222 482 219
15 2 2 0 0 40 463 9
16 2 2 0 0 608 724 696
17 2 2 0 0 435 709 69
18 2 2 0 0 413 439 29
19 2 2 0 0 345 710 410
20 2 2 0 0 422 463 40
21 2 2 0 0 98 550 404
22 2 2 0 0 95 724 608
23 2 2 0 0 4 41 5
24 2 2 0 0 232 701 581
25 2 2 0 0 490 698 488
26 2 2 0 0 29 436 413
27 2 2 0 0 416 421 342
28 2 2 0 0 312 595 441
29 2 2 0 0 41 486 5
30 2 2 0 0 405 605 519
31 2 2 0 0 409 595 265
32 2 2 0 0 69 481 435
33 2 2 0 0 434 743 339
34 2 2 0 0 342 641 416
35 2 2 0 0 485 656 370
36 2 2 0 0 89 587 90
37 2 2 0 0 108 466 317
38 2 2 0 0 378 629 529
39 2 2 0 0 581 680 232
40 2 2 0 0 281 434 339
41 2 2 0 0 638 739 486
42 2 2 0 0 659 666 660
43 2 2 0 0 345 440 346
44 2 2 0 0 22 44 25
45 2 2 0 0 9 463 8
46 2 2 0 0 44 81 25
47 2 2 0 0 459 587 89
48 2 2 0 0 127 670 630
49 2 2 0 0 508 662 509
50 2 2 0 0 375 662 508
51 2 2 0 0 492 598 103
52 2 2 0 0 604 642 238
53 2 2 0 0 507 510 399
54 2 2 0 0 488 698 489
55 2 2 0 0 34 473 415
56 2 2 0 0 399 639 507
57 2 2 0 0 603 688 546
58 2 2 0 0 316 541 421
59 2 2 0 0 647 696 627
60 2 2 0 0 403 439 352
61 2 2 0 0 221 603 545
62 2 2 0 0 595 648 441
63 2 2 0 0 412 550 98
64 2 2 0 0 411 714 397
65 2 2 0 0 486 739 729
66 2 2 0 0 696 724 401
67 2 2 0 0 247 482 222
68 2 2 0 0 397 714 645
69 2 2 0 0 613 651 212
70 2 2 0 0 207 745 425
71 2 2 0 0 98 675 412
72 2 2 0 0 219 482 230
73 2 2 0 0 560 692 432
74 2 2 0 0 432 689 560
75 2 2 0 0 454 575 426
76 2 2 0 0 352 439 413
77 2 2 0 0 415 420 2
78 2 2 0 0 40 464 422
79 2 2 0 0 89 512 459
80 2 2 0 0 425 614 207
81 2 2 0 0 377 600 453
82 2 2 0 0 89 90 88
83 2 2 0 0 80 466 108
84 2 2 0 0 520 717 651
85 2 2 0 0 602 703 238
86 2 2 0 0 103 687 492
87 2 2 0 0 253 491 424
88 2 2 0 0 69 709 466
89 2 2 0 0 424 512 253
90 2 2 0 0 369 696 647
91 2 2 0 0 581 701 644
92 2 2 0 0 630 670 392
93 2 2 0 0 32 656 485
94 2 2 0 0 459 512 424
95 2 2 0 0 90 91 88
96 2 2 0 0 427 478 294
97 2 2 0 0 488 695 490
98 2 2 0 0 554 699 560
99 2 2 0 0 67 80 79
100 2 2 0 0 252 454 294
101 2 2 0 0 253 628 491
102 2 2 0 0 529 681 378
103 2 2 0 0 519 715 405
104 2 2 0 0 440 441 346
105 2 2 0 0 605 717 519
106 2 2 0 0 403 452 439
107 2 2 0 0 507 639 21
108 2 2 0 0 565 567 566
109 2 2 0 0 433 454 341
110 2 2 0 0 67 466 80
111 2 2 0 0 555 697 576
112 2 2 0 0 491 628 493
113 2 2 0 0 389 641 342
114 2 2 0 0 429 619 474
115 2 2 0 0 40 501 464
116 2 2 0 0 576 699 555
117 2 2 0 0 311 600 377
118 2 2 0 0 567 622 566
119 2 2 0 0 433 575 454
120 2 2 0 0 378 671 629
121 2 2 0 0 79 540 103
122 2 2 0 0 341 473 433
123 2 2 0 0 673 704 68
124 2 2 0 0 462 710 345
125 2 2 0 0 557 722 616
126 2 2 0 0 573 662 343
127 2 2 0 0 370 656 463
128 2 2 0 0 341 454 252
129 2 2 0 0 616 702 557
130 2 2 0 0 6 26 7
131 2 2 0 0 464 501 467
132 2 2 0 0 433 473 406
133 2 2 0 0 8 45 37
134 2 2 0 0 466 709 317
135 2 2 0 0 457 461 379
136 2 2 0 0 84 512 86
137 2 2 0 0 19 452 33
138 2 2 0 0 380 614 425
139 2 2 0 0 83 540 79
140 2 2 0 0 398 510 509
141 2 2 0 0 609 631 137
142 2 2 0 0 18 442 36
143 2 2 0 0 26 45 7
144 2 2 0 0 565 566 343
145 2 2 0 0 80 83 79
146 2 2 0 0 560 689 554
147 2 2 0 0 134 137 136
148 2 2 0 0 68 469 42
149 2 2 0 0 659 716 653
150 2 2 0 0 619 707 474
151 2 2 0 0 497 610 39
152 2 2 0 0 137 138 136
153 2 2 0 0 283 573 343
154 2 2 0 0 506 644 448
155 2 2 0 0 499 735 31
156 2 2 0 0 81 97 25
157 2 2 0 0 45 46 37
158 2 2 0 0 585 668 637
159 2 2 0 0 495 735 499
160 2 2 0 0 399 510 398
161 2 2 0 0 509 573 398
162 2 2 0 0 442 443 36
163 2 2 0 0 1 607 314
164 2 2 0 0 29 612 436
165 2 2 0 0 547 631 609
166 2 2 0 0 360 595 409
167 2 2 0 0 421 682 342
168 2 2 0 0 426 575 327
169 2 2 0 0 123 577 235
170 2 2 0 0 339 743 417
171 2 2 0 0 7 45 8
172 2 2 0 0 3 723 24
173 2 2 0 0 418 666 653
174 2 2 0 0 59 60 58
175 2 2 0 0 620 636 193
176 2 2 0 0 42 469 47
177 2 2 0 0 65 67 66
178 2 2 0 0 509 662 573
179 2 2 0 0 470 482 247
180 2 2 0 0 368 476 472
181 2 2 0 0 530 740 337
182 2 2 0 0 253 512 84
183 2 2 0 0 455 698 282
184 2 2 0 0 61 65 62
185 2 2 0 0 59 61 60
186 2 2 0 0 91 472 88
187 2 2 0 0 90 92 91
188 2 2 0 0 19 442 18
189 2 2 0 0 464 465 423
190 2 2 0 0 706 724 118
191 2 2 0 0 456 611 32
192 2 2 0 0 379 477 61
193 2 2 0 0 417 743 704
194 2 2 0 0 314 683 1
195 2 2 0 0 442 458 443
196 2 2 0 0 11 28 12
197 2 2 0 0 61 62 60
198 2 2 0 0 118 724 95
199 2 2 0 0 22 25 23
200 2 2 0 0 247 483 470
201 2 2 0 0 281 640 434
202 2 2 0 0 197 667 474
203 2 2 0 0 86 512 89
204 2 2 0 0 417 704 673
205 2 2 0 0 451 690 230
206 2 2 0 0 27 442 19
207 2 2 0 0 637 668 229
208 2 2 0 0 60 475 58
209 2 2 0 0 489 610 497
210 2 2 0 0 307 573 283
211 2 2 0 0 61 477 65
212 2 2 0 0 65 66 62
213 2 2 0 0 544 740 530
214 2 2 0 0 230 719 451
215 2 2 0 0 18 452 19
216 2 2 0 0 268 569 269
217 2 2 0 0 32 485 456
218 2 2 0 0 627 696 401
219 2 2 0 0 24 42 41
220 2 2 0 0 20 27 19
221 2 2 0 0 330 461 457
222 2 2 0 0 506 672 644
223 2 2 0 0 472 476 87
224 2 2 0 0 468 495 494
225 2 2 0 0 88 472 87
226 2 2 0 0 121 577 123
227 2 2 0 0 327 575 276
228 2 2 0 0 422 464 423
229 2 2 0 0 47 63 49
230 2 2 0 0 458 506 443
231 2 2 0 0 232 690 451
232 2 2 0 0 28 487 12
233 2 2 0 0 80 107 83
234 2 2 0 0 608 696 676
235 2 2 0 0 356 481 355
236 2 2 0 0 138 238 136
237 2 2 0 0 137 139 138
238 2 2 0 0 729 739 26
239 2 2 0 0 81 99 97
240 2 2 0 0 46 50 37
241 2 2 0 0 463 656 8
242 2 2 0 0 443 444 36
243 2 2 0 0 68 704 469
244 2 2 0 0 24 68 42
245 2 2 0 0 16 503 30
246 2 2 0 0 65 69 67
247 2 2 0 0 67 79 66
248 2 2 0 0 676 696 369
249 2 2 0 0 59 379 61
250 2 2 0 0 90 93 92
251 2 2 0 0 464 467 465
252 2 2 0 0 441 708 312
253 2 2 0 0 483 484 471
254 2 2 0 0 427 479 478
255 2 2 0 0 245 564 244
256 2 2 0 0 470 483 471
257 2 2 0 0 473 721 406
258 2 2 0 0 555 699 554
259 2 2 0 0 47 469 63
260 2 2 0 0 63 355 49
261 2 2 0 0 62 64 60
262 2 2 0 0 80 108 107
263 2 2 0 0 107 539 83
264 2 2 0 0 139 140 138
265 2 2 0 0 99 100 97
266 2 2 0 0 81 236 99
267 2 2 0 0 46 51 50
268 2 2 0 0 443 445 444
269 2 2 0 0 24 419 68
270 2 2 0 0 69 466 67
271 2 2 0 0 79 103 66
272 2 2 0 0 65 477 69
273 2 2 0 0 547 548 321
274 2 2 0 0 93 94 92
275 2 2 0 0 467 468 465
276 2 2 0 0 333 664 649
277 2 2 0 0 55 498 56
278 2 2 0 0 56 498 72
279 2 2 0 0 12 499 31
280 2 2 0 0 63 356 355
281 2 2 0 0 108 110 107
282 2 2 0 0 139 141 140
283 2 2 0 0 100 101 97
284 2 2 0 0 236 248 99
285 2 2 0 0 81 594 236
286 2 2 0 0 51 52 50
287 2 2 0 0 192 515 195
288 2 2 0 0 445 446 444
289 2 2 0 0 477 481 69
290 2 2 0 0 94 95 92
291 2 2 0 0 93 96 94
292 2 2 0 0 63 408 356
293 2 2 0 0 108 111 110
294 2 2 0 0 110 117 107
295 2 2 0 0 139 154 141
296 2 2 0 0 141 142 140
297 2 2 0 0 51 53 52
298 2 2 0 0 100 102 101
299 2 2 0 0 236 250 248
300 2 2 0 0 445 447 446
301 2 2 0 0 52 388 50
302 2 2 0 0 277 622 567
303 2 2 0 0 95 608 92
304 2 2 0 0 94 118 95
305 2 2 0 0 93 104 96
306 2 2 0 0 51 561 53
307 2 2 0 0 408 434 356
308 2 2 0 0 53 54 52
309 2 2 0 0 445 448 447
310 2 2 0 0 108 317 111
311 2 2 0 0 141 143 142
312 2 2 0 0 142 225 140
313 2 2 0 0 102 166 101
314 2 2 0 0 250 325 248
315 2 2 0 0 100 258 102
316 2 2 0 0 53 55 54
317 2 2 0 0 447 449 446
318 2 2 0 0 236 505 250
319 2 2 0 0 104 105 96
320 2 2 0 0 53 57 55
321 2 2 0 0 55 56 54
322 2 2 0 0 448 451 447
323 2 2 0 0 14 39 15
324 2 2 0 0 317 511 111
325 2 2 0 0 10 40 9
326 2 2 0 0 143 144 142
327 2 2 0 0 57 58 55
328 2 2 0 0 8 37 9
329 2 2 0 0 14 38 13
330 2 2 0 0 166 314 101
331 2 2 0 0 18 36 17
332 2 2 0 0 16 29 17
333 2 2 0 0 33 504 20
334 2 2 0 0 325 365 248
335 2 2 0 0 199 202 196
336 2 2 0 0 7 32 6
337 2 2 0 0 434 435 356
338 2 2 0 0 74 75 73
339 2 2 0 0 223 239 234
340 2 2 0 0 74 76 75
341 2 2 0 0 72 74 73
342 2 2 0 0 231 549 201
343 2 2 0 0 202 205 204
344 2 2 0 0 226 227 214
345 2 2 0 0 272 275 271
346 2 2 0 0 276 318 275
347 2 2 0 0 213 214 209
348 2 2 0 0 76 77 75
349 2 2 0 0 210 231 201
350 2 2 0 0 16 30 15
351 2 2 0 0 205 209 208
352 2 2 0 0 202 204 196
353 2 2 0 0 318 406 340
354 2 2 0 0 195 196 193
355 2 2 0 0 322 420 415
356 2 2 0 0 239 240 234
357 2 2 0 0 163 588 168
358 2 2 0 0 12 31 11
359 2 2 0 0 56 72 71
360 2 2 0 0 425 426 327
361 2 2 0 0 19 33 20
362 2 2 0 0 168 224 215
363 2 2 0 0 209 568 216
364 2 2 0 0 318 433 406
365 2 2 0 0 269 271 270
366 2 2 0 0 268 269 245
367 2 2 0 0 21 639 20
368 2 2 0 0 84 85 82
369 2 2 0 0 181 207 183
370 2 2 0 0 269 272 271
371 2 2 0 0 272 276 275
372 2 2 0 0 242 243 240
373 2 2 0 0 102 167 166
374 2 2 0 0 223 234 233
375 2 2 0 0 283 343 227
376 2 2 0 0 205 208 204
377 2 2 0 0 213 226 214
378 2 2 0 0 271 572 347
379 2 2 0 0 243 268 245
380 2 2 0 0 335 398 307
381 2 2 0 0 303 555 554
382 2 2 0 0 226 283 227
383 2 2 0 0 347 485 370
384 2 2 0 0 195 199 196
385 2 2 0 0 205 213 209
386 2 2 0 0 246 322 252
387 2 2 0 0 76 78 77
388 2 2 0 0 133 163 135
389 2 2 0 0 163 168 164
390 2 2 0 0 322 415 341
391 2 2 0 0 227 361 214
392 2 2 0 0 191 198 189
393 2 2 0 0 78 84 82
394 2 2 0 0 209 216 208
395 2 2 0 0 78 82 77
396 2 2 0 0 216 303 266
397 2 2 0 0 417 418 362
398 2 2 0 0 314 607 101
399 2 2 0 0 339 362 280
400 2 2 0 0 243 245 244
401 2 2 0 0 187 291 185
402 2 2 0 0 429 430 359
403 2 2 0 0 143 145 144
404 2 2 0 0 202 553 205
405 2 2 0 0 339 417 362
406 2 2 0 0 131 580 133
407 2 2 0 0 239 242 240
408 2 2 0 0 57 59 58
409 2 2 0 0 224 246 215
410 2 2 0 0 84 86 85
411 2 2 0 0 303 554 266
412 2 2 0 0 72 73 71
413 2 2 0 0 437 438 414
414 2 2 0 0 318 340 275
415 2 2 0 0 269 270 245
416 2 2 0 0 86 87 85
417 2 2 0 0 192 193 191
418 2 2 0 0 123 235 129
419 2 2 0 0 263 374 262
420 2 2 0 0 425 427 426
421 2 2 0 0 149 150 147
422 2 2 0 0 210 232 231
423 2 2 0 0 74 373 76
424 2 2 0 0 168 215 169
425 2 2 0 0 259 262 249
426 2 2 0 0 145 146 144
427 2 2 0 0 367 524 289
428 2 2 0 0 271 347 270
429 2 2 0 0 406 407 340
430 2 2 0 0 334 459 424
431 2 2 0 0 429 474 430
432 2 2 0 0 250 328 325
433 2 2 0 0 431 432 367
434 2 2 0 0 104 278 105
435 2 2 0 0 145 147 146
436 2 2 0 0 151 152 150
437 2 2 0 0 235 583 129
438 2 2 0 0 237 249 228
439 2 2 0 0 149 151 150
440 2 2 0 0 159 161 158
441 2 2 0 0 153 155 152
442 2 2 0 0 156 158 155
443 2 2 0 0 354 367 289
444 2 2 0 0 259 263 262
445 2 2 0 0 190 191 189
446 2 2 0 0 177 221 174
447 2 2 0 0 162 228 161
448 2 2 0 0 124 516 386
449 2 2 0 0 418 653 578
450 2 2 0 0 371 584 295
451 2 2 0 0 151 153 152
452 2 2 0 0 153 156 155
453 2 2 0 0 159 162 161
454 2 2 0 0 374 593 262
455 2 2 0 0 156 159 158
456 2 2 0 0 237 259 249
457 2 2 0 0 146 284 160
458 2 2 0 0 266 309 267
459 2 2 0 0 264 265 257
460 2 2 0 0 86 88 87
461 2 2 0 0 265 312 257
462 2 2 0 0 162 237 228
463 2 2 0 0 21 44 22
464 2 2 0 0 324 392 390
465 2 2 0 0 371 585 584
466 2 2 0 0 262 366 249
467 2 2 0 0 192 195 193
468 2 2 0 0 263 375 374
469 2 2 0 0 216 266 217
470 2 2 0 0 326 327 276
471 2 2 0 0 260 646 166
472 2 2 0 0 220 223 222
473 2 2 0 0 322 341 252
474 2 2 0 0 256 257 255
475 2 2 0 0 78 253 84
476 2 2 0 0 358 359 242
477 2 2 0 0 188 189 187
478 2 2 0 0 281 339 280
479 2 2 0 0 146 160 144
480 2 2 0 0 123 129 128
481 2 2 0 0 255 324 254
482 2 2 0 0 228 229 161
483 2 2 0 0 354 431 367
484 2 2 0 0 163 164 135
485 2 2 0 0 155 157 152
486 2 2 0 0 243 244 240
487 2 2 0 0 256 264 257
488 2 2 0 0 284 316 160
489 2 2 0 0 380 425 327
490 2 2 0 0 148 149 147
491 2 2 0 0 335 399 398
492 2 2 0 0 418 578 362
493 2 2 0 0 334 424 396
494 2 2 0 0 167 260 166
495 2 2 0 0 325 368 365
496 2 2 0 0 428 429 359
497 2 2 0 0 165 255 254
498 2 2 0 0 297 342 264
499 2 2 0 0 298 371 295
500 2 2 0 0 218 323 220
501 2 2 0 0 310 337 302
502 2 2 0 0 165 256 255
503 2 2 0 0 186 187 185
504 2 2 0 0 56 71 70
505 2 2 0 0 165 254 125
506 2 2 0 0 200 201 199
507 2 2 0 0 148 206 149
508 2 2 0 0 324 390 364
509 2 2 0 0 190 192 191
510 2 2 0 0 368 369 365
511 2 2 0 0 353 404 351
512 2 2 0 0 104 331 278
513 2 2 0 0 256 297 264
514 2 2 0 0 316 421 416
515 2 2 0 0 239 358 242
516 2 2 0 0 169 586 171
517 2 2 0 0 286 287 206
518 2 2 0 0 324 364 254
519 2 2 0 0 241 576 162
520 2 2 0 0 168 169 164
521 2 2 0 0 121 123 122
522 2 2 0 0 266 267 217
523 2 2 0 0 129 131 130
524 2 2 0 0 216 217 208
525 2 2 0 0 285 382 313
526 2 2 0 0 172 321 170
527 2 2 0 0 390 391 364
528 2 2 0 0 296 563 300
529 2 2 0 0 246 252 251
530 2 2 0 0 285 286 206
531 2 2 0 0 288 289 287
532 2 2 0 0 298 372 371
533 2 2 0 0 23 35 22
534 2 2 0 0 300 344 304
535 2 2 0 0 344 462 345
536 2 2 0 0 123 128 122
537 2 2 0 0 297 389 342
538 2 2 0 0 237 277 259
539 2 2 0 0 148 285 206
540 2 2 0 0 86 89 88
541 2 2 0 0 306 307 283
542 2 2 0 0 234 279 233
543 2 2 0 0 316 416 160
544 2 2 0 0 188 190 189
545 2 2 0 0 85 98 82
546 2 2 0 0 358 428 359
547 2 2 0 0 437 455 438
548 2 2 0 0 203 210 201
549 2 2 0 0 382 383 313
550 2 2 0 0 153 176 156
551 2 2 0 0 290 354 289
552 2 2 0 0 159 241 162
553 2 2 0 0 386 387 126
554 2 2 0 0 273 363 338
555 2 2 0 0 272 326 276
556 2 2 0 0 171 293 173
557 2 2 0 0 145 148 147
558 2 2 0 0 274 295 261
559 2 2 0 0 285 313 286
560 2 2 0 0 383 384 313
561 2 2 0 0 301 302 299
562 2 2 0 0 131 133 132
563 2 2 0 0 296 298 295
564 2 2 0 0 305 310 302
565 2 2 0 0 349 412 328
566 2 2 0 0 344 345 304
567 2 2 0 0 77 119 75
568 2 2 0 0 315 378 310
569 2 2 0 0 363 401 400
570 2 2 0 0 332 333 278
571 2 2 0 0 223 233 222
572 2 2 0 0 331 334 332
573 2 2 0 0 186 188 187
574 2 2 0 0 178 212 177
575 2 2 0 0 305 360 315
576 2 2 0 0 334 396 395
577 2 2 0 0 246 251 215
578 2 2 0 0 167 261 260
579 2 2 0 0 175 179 178
580 2 2 0 0 345 346 304
581 2 2 0 0 124 386 126
582 2 2 0 0 286 288 287
583 2 2 0 0 331 332 278
584 2 2 0 0 179 181 180
585 2 2 0 0 301 305 302
586 2 2 0 0 300 304 301
587 2 2 0 0 296 300 299
588 2 2 0 0 305 315 310
589 2 2 0 0 296 299 298
590 2 2 0 0 320 453 290
591 2 2 0 0 274 296 295
592 2 2 0 0 313 531 286
593 2 2 0 0 120 281 280
594 2 2 0 0 360 409 315
595 2 2 0 0 363 400 338
596 2 2 0 0 129 130 128
597 2 2 0 0 300 301 299
598 2 2 0 0 1 508 23
599 2 2 0 0 167 273 261
600 2 2 0 0 133 135 134
601 2 2 0 0 173 174 172
602 2 2 0 0 311 377 376
603 2 2 0 0 273 274 261
604 2 2 0 0 273 338 274
605 2 2 0 0 334 395 332
606 2 2 0 0 183 197 184
607 2 2 0 0 319 393 320
608 2 2 0 0 449 450 446
609 2 2 0 0 288 290 289
610 2 2 0 0 226 306 283
611 2 2 0 0 326 380 327
612 2 2 0 0 175 177 174
613 2 2 0 0 181 183 182
614 2 2 0 0 219 230 211
615 2 2 0 0 308 335 307
616 2 2 0 0 267 311 292
617 2 2 0 0 169 170 164
618 2 2 0 0 288 319 290
619 2 2 0 0 126 165 125
620 2 2 0 0 120 280 121
621 2 2 0 0 130 357 128
622 2 2 0 0 195 200 199
623 2 2 0 0 169 171 170
624 2 2 0 0 171 172 170
625 2 2 0 0 184 186 185
626 2 2 0 0 73 282 71
627 2 2 0 0 252 294 251
628 2 2 0 0 319 320 290
629 2 2 0 0 131 132 130
630 2 2 0 0 393 394 320
631 2 2 0 0 171 173 172
632 2 2 0 0 4 34 3
633 2 2 0 0 218 220 219
634 2 2 0 0 267 292 217
635 2 2 0 0 184 185 182
636 2 2 0 0 188 194 190
637 2 2 0 0 56 70 54
638 2 2 0 0 377 405 376
639 2 2 0 0 449 470 450
640 2 2 0 0 179 180 178
641 2 2 0 0 173 175 174
642 2 2 0 0 175 178 177
643 2 2 0 0 250 329 328
644 2 2 0 0 311 376 292
645 2 2 0 0 329 571 350
646 2 2 0 0 347 370 348
647 2 2 0 0 220 222 219
648 2 2 0 0 376 385 292
649 2 2 0 0 133 134 132
650 2 2 0 0 134 136 132
651 2 2 0 0 306 308 307
652 2 2 0 0 200 203 201
653 2 2 0 0 233 247 222
654 2 2 0 0 98 460 82
655 2 2 0 0 329 349 328
656 2 2 0 0 326 381 380
657 2 2 0 0 347 348 270
658 2 2 0 0 181 182 180
659 2 2 0 0 121 122 115
660 2 2 0 0 350 351 349
661 2 2 0 0 308 336 335
662 2 2 0 0 350 403 352
663 2 2 0 0 470 471 450
664 2 2 0 0 203 211 210
665 2 2 0 0 218 219 211
666 2 2 0 0 183 184 182
667 2 2 0 0 370 463 422
668 2 2 0 0 306 402 308
669 2 2 0 0 203 218 211
670 2 2 0 0 71 490 70
671 2 2 0 0 329 350 349
672 2 2 0 0 436 437 414
673 2 2 0 0 124 126 125
674 2 2 0 0 413 414 353
675 2 2 0 0 422 423 348
676 2 2 0 0 352 353 351
677 2 2 0 0 370 422 348
678 2 2 0 0 350 352 351
679 2 2 0 0 413 436 414
680 2 2 0 0 352 413 353
681 2 2 0 0 120 121 115
682 2 2 0 0 110 480 117
683 2 2 0 0 124 125 116
684 2 2 0 0 126 521 165
685 2 2 0 0 113 120 115
686 2 2 0 0 127 440 410
687 2 2 0 0 114 124 116
688 2 2 0 0 543 544 530
689 2 2 0 0 488 489 487
690 2 2 0 0 585 637 366
691 2 2 0 0 543 570 544
692 2 2 0 0 113 115 114
693 2 2 0 0 127 410 106
694 2 2 0 0 114 116 112
695 2 2 0 0 195 515 200
696 2 2 0 0 491 493 492
697 2 2 0 0 12 487 13
698 2 2 0 0 546 547 321
699 2 2 0 0 330 457 411
700 2 2 0 0 157 543 530
701 2 2 0 0 519 520 291
702 2 2 0 0 28 488 487
703 2 2 0 0 111 112 110
704 2 2 0 0 312 534 257
705 2 2 0 0 476 732 412
706 2 2 0 0 27 458 442
707 2 2 0 0 385 636 620
708 2 2 0 0 176 559 156
709 2 2 0 0 593 634 366
710 2 2 0 0 589 590 224
711 2 2 0 0 113 114 112
712 2 2 0 0 109 127 106
713 2 2 0 0 270 564 245
714 2 2 0 0 443 506 445
715 2 2 0 0 491 492 396
716 2 2 0 0 388 624 502
717 2 2 0 0 445 506 448
718 2 2 0 0 30 500 15
719 2 2 0 0 20 504 21
720 2 2 0 0 64 475 60
721 2 2 0 0 287 542 206
722 2 2 0 0 23 508 35
723 2 2 0 0 302 558 299
724 2 2 0 0 70 551 54
725 2 2 0 0 62 598 64
726 2 2 0 0 424 491 396
727 2 2 0 0 407 456 340
728 2 2 0 0 545 546 321
729 2 2 0 0 330 411 397
730 2 2 0 0 72 536 74
731 2 2 0 0 238 574 136
732 2 2 0 0 659 660 420
733 2 2 0 0 395 538 332
734 2 2 0 0 143 527 145
735 2 2 0 0 412 675 476
736 2 2 0 0 239 513 358
737 2 2 0 0 157 530 529
738 2 2 0 0 518 519 291
739 2 2 0 0 449 482 470
740 2 2 0 0 207 713 479
741 2 2 0 0 119 523 75
742 2 2 0 0 109 670 127
743 2 2 0 0 10 501 40
744 2 2 0 0 508 509 35
745 2 2 0 0 96 606 94
746 2 2 0 0 331 459 334
747 2 2 0 0 286 531 288
748 2 2 0 0 290 453 354
749 2 2 0 0 282 490 71
750 2 2 0 0 384 531 313
751 2 2 0 0 289 524 287
752 2 2 0 0 349 550 412
753 2 2 0 0 165 521 256
754 2 2 0 0 82 460 77
755 2 2 0 0 155 543 157
756 2 2 0 0 201 549 199
757 2 2 0 0 273 591 363
758 2 2 0 0 387 521 126
759 2 2 0 0 114 516 124
760 2 2 0 0 53 561 57
761 2 2 0 0 266 554 309
762 2 2 0 0 257 534 255
763 2 2 0 0 205 553 213
764 2 2 0 0 142 522 225
765 2 2 0 0 435 481 356
766 2 2 0 0 216 568 303
767 2 2 0 0 300 563 344
768 2 2 0 0 214 568 209
769 2 2 0 0 112 480 110
770 2 2 0 0 350 571 403
771 2 2 0 0 347 572 485
772 2 2 0 0 275 572 271
773 2 2 0 0 274 563 296
774 2 2 0 0 171 586 293
775 2 2 0 0 162 576 237
776 2 2 0 0 133 580 163
777 2 2 0 0 11 501 10
778 2 2 0 0 295 584 261
779 2 2 0 0 129 583 131
780 2 2 0 0 215 586 169
781 2 2 0 0 250 505 329
782 2 2 0 0 168 588 224
783 2 2 0 0 321 548 170
784 2 2 0 0 262 593 366
785 2 2 0 0 166 646 314
786 2 2 0 0 520 535 291
787 2 2 0 0 373 663 493
788 2 2 0 0 291 535 185
789 2 2 0 0 101 607 97
790 2 2 0 0 130 574 357
791 2 2 0 0 158 570 543
792 2 2 0 0 31 501 11
793 2 2 0 0 444 552 503
794 2 2 0 0 156 559 159
795 2 2 0 0 236 594 505
796 2 2 0 0 206 542 149
797 2 2 0 0 54 551 52
798 2 2 0 0 74 536 373
799 2 2 0 0 337 558 302
800 2 2 0 0 150 532 147
801 2 2 0 0 379 728 457
802 2 2 0 0 299 558 298
803 2 2 0 0 332 538 333
804 2 2 0 0 145 527 148
805 2 2 0 0 514 515 192
806 2 2 0 0 15 500 14
807 2 2 0 0 75 523 73
808 2 2 0 0 467 501 31
809 2 2 0 0 254 592 125
810 2 2 0 0 172 545 321
811 2 2 0 0 144 522 142
812 2 2 0 0 528 532 150
813 2 2 0 0 187 518 291
814 2 2 0 0 553 599 213
815 2 2 0 0 383 603 384
816 2 2 0 0 282 698 490
817 2 2 0 0 244 517 240
818 2 2 0 0 353 525 404
819 2 2 0 0 395 540 538
820 2 2 0 0 94 606 118
821 2 2 0 0 117 539 107
822 2 2 0 0 185 535 182
823 2 2 0 0 388 502 50
824 2 2 0 0 167 591 273
825 2 2 0 0 147 532 146
826 2 2 0 0 92 608 91
827 2 2 0 0 472 676 368
828 2 2 0 0 364 592 254
829 2 2 0 0 21 504 44
830 2 2 0 0 365 597 248
831 2 2 0 0 125 592 116
832 2 2 0 0 588 589 224
833 2 2 0 0 111 113 112
834 2 2 0 0 63 469 408
835 2 2 0 0 105 109 106
836 2 2 0 0 242 526 243
837 2 2 0 0 439 712 29
838 2 2 0 0 240 517 234
839 2 2 0 0 346 533 304
840 2 2 0 0 14 500 38
841 2 2 0 0 494 495 484
842 2 2 0 0 127 630 440
843 2 2 0 0 208 537 204
844 2 2 0 0 175 562 179
845 2 2 0 0 303 626 555
846 2 2 0 0 359 526 242
847 2 2 0 0 243 526 268
848 2 2 0 0 217 537 208
849 2 2 0 0 58 498 55
850 2 2 0 0 503 552 30
851 2 2 0 0 13 499 12
852 2 2 0 0 268 621 569
853 2 2 0 0 489 497 487
854 2 2 0 0 475 498 58
855 2 2 0 0 430 526 359
856 2 2 0 0 248 597 99
857 2 2 0 0 292 537 217
858 2 2 0 0 26 645 45
859 2 2 0 0 234 517 279
860 2 2 0 0 14 497 39
861 2 2 0 0 385 537 292
862 2 2 0 0 305 533 360
863 2 2 0 0 304 533 301
864 2 2 0 0 146 532 284
865 2 2 0 0 483 494 484
866 2 2 0 0 173 562 175
867 2 2 0 0 116 480 112
868 2 2 0 0 224 590 246
869 2 2 0 0 189 518 187
870 2 2 0 0 498 536 72
871 2 2 0 0 414 525 353
872 2 2 0 0 160 522 144
873 2 2 0 0 547 609 548
874 2 2 0 0 182 535 180
875 2 2 0 0 297 601 389
876 2 2 0 0 44 594 81
877 2 2 0 0 301 533 305
878 2 2 0 0 105 106 96
879 2 2 0 0 515 596 200
880 2 2 0 0 293 562 173
881 2 2 0 0 73 523 282
882 2 2 0 0 148 527 285
883 2 2 0 0 174 545 172
884 2 2 0 0 218 596 323
885 2 2 0 0 200 596 203
886 2 2 0 0 149 542 151
887 2 2 0 0 446 552 444
888 2 2 0 0 49 461 330
889 2 2 0 0 330 397 48
890 2 2 0 0 453 738 377
891 2 2 0 0 255 534 324
892 2 2 0 0 52 551 388
893 2 2 0 0 634 646 260
894 2 2 0 0 513 615 358
895 2 2 0 0 438 525 414
896 2 2 0 0 516 618 386
897 2 2 0 0 198 518 189
898 2 2 0 0 227 566 361
899 2 2 0 0 559 560 241
900 2 2 0 0 90 587 93
901 2 2 0 0 416 522 160
902 2 2 0 0 102 591 167
903 2 2 0 0 134 609 137
904 2 2 0 0 298 558 372
905 2 2 0 0 132 574 130
906 2 2 0 0 106 606 96
907 2 2 0 0 159 559 241
908 2 2 0 0 32 611 6
909 2 2 0 0 158 543 155
910 2 2 0 0 223 513 239
911 2 2 0 0 288 531 319
912 2 2 0 0 323 513 220
913 2 2 0 0 115 516 114
914 2 2 0 0 521 601 297
915 2 2 0 0 610 698 455
916 2 2 0 0 354 600 431
917 2 2 0 0 351 550 349
918 2 2 0 0 256 521 297
919 2 2 0 0 140 604 138
920 2 2 0 0 77 460 119
921 2 2 0 0 17 503 16
922 2 2 0 0 9 502 10
923 2 2 0 0 104 587 331
924 2 2 0 0 152 528 150
925 2 2 0 0 315 541 378
926 2 2 0 0 170 548 164
927 2 2 0 0 590 659 420
928 2 2 0 0 11 624 28
929 2 2 0 0 199 549 202
930 2 2 0 0 502 624 10
931 2 2 0 0 453 600 354
932 2 2 0 0 42 43 41
933 2 2 0 0 38 499 13
934 2 2 0 0 285 527 382
935 2 2 0 0 190 514 192
936 2 2 0 0 157 529 528
937 2 2 0 0 231 643 549
938 2 2 0 0 331 587 459
939 2 2 0 0 451 701 232
940 2 2 0 0 99 597 100
941 2 2 0 0 361 568 214
942 2 2 0 0 372 740 544
943 2 2 0 0 221 545 174
944 2 2 0 0 138 604 238
945 2 2 0 0 340 572 275
946 2 2 0 0 338 563 274
947 2 2 0 0 524 542 287
948 2 2 0 0 265 595 312
949 2 2 0 0 111 511 113
950 2 2 0 0 580 658 588
951 2 2 0 0 580 588 163
952 2 2 0 0 237 576 277
953 2 2 0 0 444 503 36
954 2 2 0 0 131 583 580
955 2 2 0 0 505 571 329
956 2 2 0 0 203 596 218
957 2 2 0 0 584 634 260
958 2 2 0 0 261 584 260
959 2 2 0 0 369 647 365
960 2 2 0 0 251 586 215
961 2 2 0 0 348 564 270
962 2 2 0 0 450 552 446
963 2 2 0 0 390 496 391
964 2 2 0 0 66 598 62
965 2 2 0 0 465 623 423
966 2 2 0 0 258 591 102
967 2 2 0 0 343 566 227
968 2 2 0 0 564 623 244
969 2 2 0 0 154 617 141
970 2 2 0 0 324 534 392
971 2 2 0 0 50 502 37
972 2 2 0 0 524 556 542
973 2 2 0 0 544 700 372
974 2 2 0 0 122 516 115
975 2 2 0 0 177 557 221
976 2 2 0 0 489 698 610
977 2 2 0 0 93 587 104
978 2 2 0 0 136 574 132
979 2 2 0 0 593 646 634
980 2 2 0 0 116 592 480
981 2 2 0 0 143 617 527
982 2 2 0 0 225 604 140
983 2 2 0 0 137 631 139
984 2 2 0 0 549 553 202
985 2 2 0 0 164 548 135
986 2 2 0 0 404 550 351
987 2 2 0 0 34 721 473
988 2 2 0 0 220 513 223
989 2 2 0 0 317 640 511
990 2 2 0 0 100 597 258
991 2 2 0 0 588 658 589
992 2 2 0 0 323 615 513
993 2 2 0 0 568 626 303
994 2 2 0 0 377 605 405
995 2 2 0 0 178 613 212
996 2 2 0 0 493 628 373
997 2 2 0 0 157 528 152
998 2 2 0 0 591 627 363
999 2 2 0 0 409 541 315
1000 2 2 0 0 183 614 197
1001 2 2 0 0 103 598 66
1002 2 2 0 0 188 619 194
1003 2 2 0 0 213 599 226
1004 2 2 0 0 306 599 402
1005 2 2 0 0 97 607 25
1006 2 2 0 0 194 514 190
1007 2 2 0 0 373 628 76
1008 2 2 0 0 78 628 253
1009 2 2 0 0 42 47 43
1010 2 2 0 0 39 612 15
1011 2 2 0 0 16 612 29
1012 2 2 0 0 437 610 455
1013 2 2 0 0 487 497 13
1014 2 2 0 0 440 630 441
1015 2 2 0 0 479 713 562
1016 2 2 0 0 196 620 193
1017 2 2 0 0 456 572 340
1018 2 2 0 0 120 511 281
1019 2 2 0 0 577 578 235
1020 2 2 0 0 335 582 399
1021 2 2 0 0 314 741 683
1022 2 2 0 0 520 613 535
1023 2 2 0 0 585 634 584
1024 2 2 0 0 423 564 348
1025 2 2 0 0 457 561 411
1026 2 2 0 0 6 611 5
1027 2 2 0 0 385 620 537
1028 2 2 0 0 228 637 229
1029 2 2 0 0 366 637 249
1030 2 2 0 0 161 570 158
1031 2 2 0 0 434 640 435
1032 2 2 0 0 193 636 191
1033 2 2 0 0 410 606 106
1034 2 2 0 0 37 502 9
1035 2 2 0 0 36 503 17
1036 2 2 0 0 141 617 143
1037 2 2 0 0 363 627 401
1038 2 2 0 0 322 590 420
1039 2 2 0 0 357 618 128
1040 2 2 0 0 430 621 526
1041 2 2 0 0 540 687 103
1042 2 2 0 0 280 577 121
1043 2 2 0 0 276 575 318
1044 2 2 0 0 362 578 577
1045 2 2 0 0 109 649 496
1046 2 2 0 0 246 590 322
1047 2 2 0 0 326 569 381
1048 2 2 0 0 569 621 381
1049 2 2 0 0 269 569 272
1050 2 2 0 0 139 631 154
1051 2 2 0 0 649 664 496
1052 2 2 0 0 537 620 204
1053 2 2 0 0 355 461 49
1054 2 2 0 0 663 685 493
1055 2 2 0 0 479 745 207
1056 2 2 0 0 343 662 565
1057 2 2 0 0 212 557 177
1058 2 2 0 0 45 645 46
1059 2 2 0 0 496 670 109
1060 2 2 0 0 366 634 585
1061 2 2 0 0 384 616 531
1062 2 2 0 0 535 613 180
1063 2 2 0 0 391 632 364
1064 2 2 0 0 308 581 336
1065 2 2 0 0 344 625 462
1066 2 2 0 0 563 625 344
1067 2 2 0 0 13 497 14
1068 2 2 0 0 480 632 117
1069 2 2 0 0 371 668 585
1070 2 2 0 0 333 649 278
1071 2 2 0 0 387 601 521
1072 2 2 0 0 47 49 48
1073 2 2 0 0 358 615 428
1074 2 2 0 0 113 511 120
1075 2 2 0 0 527 617 382
1076 2 2 0 0 105 649 109
1077 2 2 0 0 398 573 307
1078 2 2 0 0 368 676 369
1079 2 2 0 0 180 613 178
1080 2 2 0 0 153 556 176
1081 2 2 0 0 432 657 367
1082 2 2 0 0 458 718 582
1083 2 2 0 0 207 614 183
1084 2 2 0 0 407 611 456
1085 2 2 0 0 244 623 517
1086 2 2 0 0 20 639 27
1087 2 2 0 0 476 675 87
1088 2 2 0 0 319 616 393
1089 2 2 0 0 474 707 197
1090 2 2 0 0 226 599 306
1091 2 2 0 0 47 48 43
1092 2 2 0 0 186 619 188
1093 2 2 0 0 412 732 328
1094 2 2 0 0 316 671 541
1095 2 2 0 0 293 734 478
1096 2 2 0 0 492 685 598
1097 2 2 0 0 528 629 532
1098 2 2 0 0 514 635 515
1099 2 2 0 0 531 616 319
1100 2 2 0 0 8 656 7
1101 2 2 0 0 387 602 601
1102 2 2 0 0 76 628 78
1103 2 2 0 0 122 618 516
1104 2 2 0 0 651 717 394
1105 2 2 0 0 423 623 564
1106 2 2 0 0 546 669 547
1107 2 2 0 0 4 679 34
1108 2 2 0 0 542 556 151
1109 2 2 0 0 548 609 135
1110 2 2 0 0 204 620 196
1111 2 2 0 0 529 629 528
1112 2 2 0 0 482 719 230
1113 2 2 0 0 258 627 591
1114 2 2 0 0 336 582 335
1115 2 2 0 0 197 686 667
1116 2 2 0 0 583 658 580
1117 2 2 0 0 85 675 98
1118 2 2 0 0 59 728 379
1119 2 2 0 0 400 625 338
1120 2 2 0 0 394 717 605
1121 2 2 0 0 471 650 450
1122 2 2 0 0 596 635 323
1123 2 2 0 0 249 637 228
1124 2 2 0 0 515 635 596
1125 2 2 0 0 338 625 563
1126 2 2 0 0 28 633 488
1127 2 2 0 0 566 622 361
1128 2 2 0 0 229 570 161
1129 2 2 0 0 468 654 465
1130 2 2 0 0 118 710 462
1131 2 2 0 0 15 612 16
1132 2 2 0 0 589 659 590
1133 2 2 0 0 526 621 268
1134 2 2 0 0 365 647 597
1135 2 2 0 0 579 583 235
1136 2 2 0 0 22 507 21
1137 2 2 0 0 342 682 264
1138 2 2 0 0 441 648 346
1139 2 2 0 0 191 636 198
1140 2 2 0 0 578 653 579
1141 2 2 0 0 135 609 134
1142 2 2 0 0 128 618 122
1143 2 2 0 0 378 681 310
1144 2 2 0 0 230 690 211
1145 2 2 0 0 210 690 232
1146 2 2 0 0 549 643 553
1147 2 2 0 0 233 661 247
1148 2 2 0 0 10 624 11
1149 2 2 0 0 640 709 435
1150 2 2 0 0 449 719 482
1151 2 2 0 0 452 726 33
1152 2 2 0 0 362 577 280
1153 2 2 0 0 318 575 433
1154 2 2 0 0 492 687 396
1155 2 2 0 0 586 734 293
1156 2 2 0 0 357 655 618
1157 2 2 0 0 277 567 259
1158 2 2 0 0 522 641 225
1159 2 2 0 0 511 640 281
1160 2 2 0 0 247 661 483
1161 2 2 0 0 610 693 39
1162 2 2 0 0 272 569 326
1163 2 2 0 0 490 695 70
1164 2 2 0 0 553 643 599
1165 2 2 0 0 532 629 284
1166 2 2 0 0 29 712 17
1167 2 2 0 0 632 665 117
1168 2 2 0 0 618 655 386
1169 2 2 0 0 241 699 576
1170 2 2 0 0 457 728 561
1171 2 2 0 0 485 572 456
1172 2 2 0 0 430 667 621
1173 2 2 0 0 582 672 458
1174 2 2 0 0 395 687 540
1175 2 2 0 0 504 594 44
1176 2 2 0 0 181 713 207
1177 2 2 0 0 197 707 184
1178 2 2 0 0 524 657 556
1179 2 2 0 0 475 536 498
1180 2 2 0 0 394 738 320
1181 2 2 0 0 51 714 561
1182 2 2 0 0 151 556 153
1183 2 2 0 0 437 693 610
1184 2 2 0 0 361 626 568
1185 2 2 0 0 611 679 5
1186 2 2 0 0 231 680 643
1187 2 2 0 0 462 706 118
1188 2 2 0 0 390 670 496
1189 2 2 0 0 602 642 601
1190 2 2 0 0 49 330 48
1191 2 2 0 0 391 665 632
1192 2 2 0 0 508 737 375
1193 2 2 0 0 450 650 552
1194 2 2 0 0 368 732 476
1195 2 2 0 0 578 579 235
1196 2 2 0 0 402 581 308
1197 2 2 0 0 43 486 41
1198 2 2 0 0 562 713 179
1199 2 2 0 0 592 632 480
1200 2 2 0 0 416 641 522
1201 2 2 0 0 372 668 371
1202 2 2 0 0 452 712 439
1203 2 2 0 0 282 720 455
1204 2 2 0 0 556 657 176
1205 2 2 0 0 364 632 592
1206 2 2 0 0 403 726 452
1207 2 2 0 0 465 654 623
1208 2 2 0 0 278 649 105
1209 2 2 0 0 154 652 617
1210 2 2 0 0 383 688 603
1211 2 2 0 0 451 719 447
1212 2 2 0 0 317 709 640
1213 2 2 0 0 604 711 642
1214 2 2 0 0 382 652 383
1215 2 2 0 0 601 642 389
1216 2 2 0 0 284 671 316
1217 2 2 0 0 599 643 402
1218 2 2 0 0 388 633 624
1219 2 2 0 0 267 678 311
1220 2 2 0 0 337 681 530
1221 2 2 0 0 279 661 233
1222 2 2 0 0 605 738 394
1223 2 2 0 0 33 677 504
1224 2 2 0 0 386 655 387
1225 2 2 0 0 547 669 631
1226 2 2 0 0 562 731 479
1227 2 2 0 0 360 648 595
1228 2 2 0 0 432 692 657
1229 2 2 0 0 367 657 524
1230 2 2 0 0 633 695 488
1231 2 2 0 0 415 473 341
1232 2 2 0 0 644 672 336
1233 2 2 0 0 551 633 388
1234 2 2 0 0 533 648 360
1235 2 2 0 0 407 679 611
1236 2 2 0 0 323 635 615
1237 2 2 0 0 530 681 529
1238 2 2 0 0 393 651 394
1239 2 2 0 0 387 655 602
1240 2 2 0 0 238 703 574
1241 2 2 0 0 594 677 505
1242 2 2 0 0 559 692 560
1243 2 2 0 0 621 667 381
1244 2 2 0 0 405 674 376
1245 2 2 0 0 325 732 368
1246 2 2 0 0 623 654 517
1247 2 2 0 0 581 644 336
1248 2 2 0 0 346 648 533
1249 2 2 0 0 517 654 279
1250 2 2 0 0 477 705 481
1251 2 2 0 0 481 705 355
1252 2 2 0 0 561 728 57
1253 2 2 0 0 379 705 477
1254 2 2 0 0 617 652 382
1255 2 2 0 0 30 650 500
1256 2 2 0 0 376 674 385
1257 2 2 0 0 518 715 519
1258 2 2 0 0 474 667 430
1259 2 2 0 0 478 734 294
1260 2 2 0 0 624 633 28
1261 2 2 0 0 186 707 619
1262 2 2 0 0 64 663 475
1263 2 2 0 0 597 647 258
1264 2 2 0 0 377 738 605
1265 2 2 0 0 31 735 467
1266 2 2 0 0 27 718 458
1267 2 2 0 0 419 673 68
1268 2 2 0 0 616 722 393
1269 2 2 0 0 24 723 419
1270 2 2 0 0 397 638 48
1271 2 2 0 0 404 730 460
1272 2 2 0 0 91 676 472
1273 2 2 0 0 622 626 361
1274 2 2 0 0 7 656 32
1275 2 2 0 0 576 697 277
1276 2 2 0 0 471 691 650
1277 2 2 0 0 536 663 373
1278 2 2 0 0 484 691 471
1279 2 2 0 0 552 650 30
1280 2 2 0 0 311 678 600
1281 2 2 0 0 486 729 5
1282 2 2 0 0 418 673 666
1283 2 2 0 0 232 680 231
1284 2 2 0 0 5 679 4
1285 2 2 0 0 117 665 539
1286 2 2 0 0 384 702 616
1287 2 2 0 0 557 702 221
1288 2 2 0 0 87 675 85
1289 2 2 0 0 225 711 604
1290 2 2 0 0 505 677 571
1291 2 2 0 0 483 661 494
1292 2 2 0 0 263 565 375
1293 2 2 0 0 504 677 594
1294 2 2 0 0 582 718 399
1295 2 2 0 0 645 714 46
1296 2 2 0 0 534 708 392
1297 2 2 0 0 643 680 402
1298 2 2 0 0 18 712 452
1299 2 2 0 0 392 670 390
1300 2 2 0 0 221 702 603
1301 2 2 0 0 496 664 391
1302 2 2 0 0 606 710 118
1303 2 2 0 0 655 703 602
1304 2 2 0 0 608 676 91
1305 2 2 0 0 194 684 514
1306 2 2 0 0 541 671 378
1307 2 2 0 0 154 669 652
1308 2 2 0 0 399 718 639
1309 2 2 0 0 405 715 674
1310 2 2 0 0 33 726 677
1311 2 2 0 0 629 671 284
1312 2 2 0 0 468 735 495
1313 2 2 0 0 469 704 408
1314 2 2 0 0 427 745 479
1315 2 2 0 0 294 734 251
1316 2 2 0 0 461 705 379
1317 2 2 0 0 385 674 636
1318 2 2 0 0 657 692 176
1319 2 2 0 0 561 714 411
1320 2 2 0 0 631 669 154
1321 2 2 0 0 264 682 265
1322 2 2 0 0 43 638 486
1323 2 2 0 0 48 638 43
1324 2 2 0 0 194 744 684
1325 2 2 0 0 381 686 380
1326 2 2 0 0 658 716 589
1327 2 2 0 0 263 567 565
1328 2 2 0 0 310 681 337
1329 2 2 0 0 493 685 492
1330 2 2 0 0 64 685 663
1331 2 2 0 0 309 678 267
1332 2 2 0 0 600 678 431
1333 2 2 0 0 538 694 333
1334 2 2 0 0 598 685 64
1335 2 2 0 0 551 695 633
1336 2 2 0 0 560 699 241
1337 2 2 0 0 211 690 210
1338 2 2 0 0 2 723 3
1339 2 2 0 0 630 708 441
1340 2 2 0 0 467 735 468
1341 2 2 0 0 396 687 395
1342 2 2 0 0 35 507 22
1343 2 2 0 0 259 567 263
1344 2 2 0 0 417 673 418
1345 2 2 0 0 614 686 197
1346 2 2 0 0 392 708 630
1347 2 2 0 0 5 729 6
1348 2 2 0 0 279 725 661
1349 2 2 0 0 6 729 26
1350 2 2 0 0 357 703 655
1351 2 2 0 0 514 684 635
1352 2 2 0 0 540 733 538
1353 2 2 0 0 374 741 593
1354 2 2 0 0 176 692 559
1355 2 2 0 0 650 691 500
1356 2 2 0 0 484 736 691
1357 2 2 0 0 83 733 540
1358 2 2 0 0 558 740 372
1359 2 2 0 0 626 697 555
1360 2 2 0 0 436 693 437
1361 2 2 0 0 375 737 374
1362 2 2 0 0 475 663 536
1363 2 2 0 0 636 674 198
1364 2 2 0 0 674 715 198
1365 2 2 0 0 70 695 551
1366 2 2 0 0 406 721 407
1367 2 2 0 0 677 726 571
1368 2 2 0 0 258 647 627
1369 2 2 0 0 448 701 451
1370 2 2 0 0 458 672 506
1371 2 2 0 0 229 700 570
1372 2 2 0 0 684 744 428
1373 2 2 0 0 570 700 544
1374 2 2 0 0 678 742 431
1375 2 2 0 0 646 741 314
1376 2 2 0 0 603 702 384
1377 2 2 0 0 478 731 293
1378 2 2 0 0 309 742 678
1379 2 2 0 0 380 686 614
1380 2 2 0 0 494 725 468
1381 2 2 0 0 500 691 38
1382 2 2 0 0 635 684 615
1383 2 2 0 0 661 725 494
1384 2 2 0 0 679 721 34
1385 2 2 0 0 509 510 35
1386 2 2 0 0 46 714 51
1387 2 2 0 0 615 684 428
1388 2 2 0 0 432 742 689
1389 2 2 0 0 179 713 181
1390 2 2 0 0 26 739 645
1391 2 2 0 0 35 510 507
1392 2 2 0 0 574 703 357
1393 2 2 0 0 184 707 186
1394 2 2 0 0 39 693 612
1395 2 2 0 0 665 694 539
1396 2 2 0 0 312 708 534
1397 2 2 0 0 554 689 309
1398 2 2 0 0 1 737 508
1399 2 2 0 0 519 717 520
1400 2 2 0 0 277 697 622
1401 2 2 0 0 389 711 641
1402 2 2 0 0 495 736 484
1403 2 2 0 0 17 712 18
1404 2 2 0 0 212 722 557
1405 2 2 0 0 455 720 438
1406 2 2 0 0 622 697 626
1407 2 2 0 0 664 694 665
1408 2 2 0 0 447 719 449
1409 2 2 0 0 669 688 652
1410 2 2 0 0 612 693 436
1411 2 2 0 0 619 744 194
1412 2 2 0 0 57 728 59
1413 2 2 0 0 579 658 583
1414 2 2 0 0 438 727 525
1415 2 2 0 0 539 733 83
1416 2 2 0 0 479 731 478
1417 2 2 0 0 691 736 38
1418 2 2 0 0 401 724 400
1419 2 2 0 0 420 660 2
1420 2 2 0 0 328 732 325
1421 2 2 0 0 320 738 453
1422 2 2 0 0 428 744 429
1423 2 2 0 0 431 742 432
1424 2 2 0 0 425 745 427
1425 2 2 0 0 408 743 434
1426 2 2 0 0 571 726 403
1427 2 2 0 0 119 727 523
1428 2 2 0 0 625 706 462
1429 2 2 0 0 525 730 404
1430 2 2 0 0 499 736 495
1431 2 2 0 0 468 725 654
1432 2 2 0 0 336 672 582
1433 2 2 0 0 198 715 518
1434 2 2 0 0 400 724 706
1435 2 2 0 0 402 680 581
1436 2 2 0 0 589 716 659
1437 2 2 0 0 727 730 525
1438 2 2 0 0 664 665 391
1439 2 2 0 0 337 740 558
1440 2 2 0 0 293 731 562
1441 2 2 0 0 523 720 282
1442 2 2 0 0 460 730 119
1443 2 2 0 0 641 711 225
1444 2 2 0 0 429 744 619
1445 2 2 0 0 119 730 727
1446 2 2 0 0 651 722 212
1447 2 2 0 0 38 736 499
1448 2 2 0 0 667 686 381
1449 2 2 0 0 652 688 383
1450 2 2 0 0 410 710 606
1451 2 2 0 0 644 701 448
1452 2 2 0 0 666 673 419
1453 2 2 0 0 704 743 408
1454 2 2 0 0 251 734 586
1455 2 2 0 0 400 706 625
1456 2 2 0 0 546 688 669
1457 2 2 0 0 668 700 229
1458 2 2 0 0 538 733 694
1459 2 2 0 0 333 694 664
1460 2 2 0 0 565 662 375
1461 2 2 0 0 720 727 438
1462 2 2 0 0 372 700 668
1463 2 2 0 0 579 716 658
1464 2 2 0 0 642 711 389
1465 2 2 0 0 355 705 461
1466 2 2 0 0 407 721 679
1467 2 2 0 0 523 727 720
1468 2 2 0 0 654 725 279
1469 2 2 0 0 639 718 27
1470 2 2 0 0 694 733 539
1471 2 2 0 0 393 722 651
1472 2 2 0 0 645 739 397
1473 2 2 0 0 683 741 374
1474 2 2 0 0 397 739 638
1475 2 2 0 0 653 716 579
1476 2 2 0 0 666 723 660
1477 2 2 0 0 419 723 666
1478 2 2 0 0 374 737 683
1479 2 2 0 0 593 741 646
1480 2 2 0 0 683 737 1
1481 2 2 0 0 689 742 309
1482 2 2 0 0 660 723 2
1483 2 2 0 0 23 25 1
1484 2 2 0 0 25 607 1
1485 2 2 0 0 3 34 2
1486 2 2 0 0 34 415 2
$EndElements
