$MeshFormat
2.2 0 8
$EndMeshFormat
$Nodes
745
1 3.6493965776708177e-05 2.0879170826156315e-05 9.7896549691105250e-04
2 3.9030305443882993e-05 -3.7384723292360724e-05 -9.7733000271648047e-04
3 1.3768776973969302e-04 1.7161788378023726e-05 -9.6885858024467215e-04
4 2.3674214061271520e-04 1.0730693193679116e-05 -9.5155278976660914e-04
5 3.7261552170362667e-04 1.8068442729492977e-05 -9.1005117424226606e-04
6 5.1190469208516455e-04 -1.3892756189141862e-06 -8.4361592601083380e-04
7 6.0393922288502929e-04 4.1697457391582411e-06 -7.8473492876868125e-04
8 7.2165174407824945e-04 6.3334962819071261e-07 -6.8568607691093489e-04
9 8.1779593227624650e-04 -2.0151376696964798e-06 -5.7617904737438524e-04
10 9.0479637224778016e-04 1.1390709695258731e-06 -4.3784862371902024e-04
11 9.6876349612555436e-04 4.0159153458561953e-06 -2.8163561132878888e-04
12 1.0026212392648414e-03 3.5455470889459684e-06 -1.2884695083092523e-04
13 1.0112766513631188e-03 3.0426531087545173e-06 5.3467106721602541e-06
14 9.9925198511355848e-04 2.3123154832134724e-06 1.5030870437963590e-04
15 9.6275817908674595e-04 1.0639071043440596e-08 3.0013870540327451e-04
16 9.0152043241442290e-04 7.1578895662925984e-06 4.4446721937350296e-04
17 8.2179297625225884e-04 -1.4883650980437287e-06 5.7098263254527879e-04
18 7.2936992459701267e-04 -2.3286272895733259e-06 6.7822300055384239e-04
19 6.1883414358243204e-04 1.8108448703693134e-06 7.7419163044705928e-04
20 4.9402167876027876e-04 -2.1840449485330609e-06 8.5395001463346048e-04
21 3.5947621426477369e-04 6.0650939640379601e-06 9.1501317520115816e-04
22 2.3625820620643088e-04 -2.1216289281878072e-06 9.5205593254836865e-04
23 1.4004107420763408e-04 -2.0435162984386075e-05 9.6918430160294205e-04
24 1.4800316182977664e-04 1.2024636336653558e-04 -9.6140360476039931e-04
25 1.6590000695946577e-04 9.9419250045777179e-05 9.6183155697819524e-04
26 5.5542411049130849e-04 1.1018271646988235e-04 -8.1004191390211583e-04
27 5.5446526268462305e-04 -1.0824857543980765e-04 8.1176729039116990e-04
28 9.8018727254975922e-04 1.3768335286523767e-04 -2.0134079689246916e-04
29 8.4884749807974315e-04 1.5749652123272825e-04 5.1202843675478380e-04
30 9.3052457825989891e-04 -1.2435333434864990e-04 3.6479032459543124e-04
31 9.8140119313664537e-04 -1.1976965539057696e-04 -2.0581832652689927e-04
32 5.4975214165998488e-04 -1.0679622249643508e-04 -8.1478858667117886e-04
33 5.4593904311849039e-04 1.0176758558406021e-04 8.1770496443657676e-04
34 1.7246976149276302e-04 -8.1019935695177093e-05 -9.6181961900296481e-04
35 1.8639285928331737e-04 -1.0610321236857982e-04 9.5675455517250918e-04
36 7.7690740983263871e-04 -1.2723379477809046e-04 6.1501350486970656e-04
37 7.7129282361562202e-04 1.2344436232634463e-04 -6.2175107826077083e-04
38 1.0012164734979790e-03 -1.1291014238828992e-04 8.1488633486986287e-05
39 9.7642004534758905e-04 1.2233235685395503e-04 2.2518631022142035e-04
40 8.5819604073379718e-04 -1.3240955457652028e-04 -5.0239402657390917e-04
41 2.7682552919943787e-04 1.1909560679320024e-04 -9.3395670563480406e-04
42 2.2308113504809516e-04 2.2146903947607764e-04 -9.2964773662200702e-04
43 3.2330174155866524e-04 2.3711124333097519e-04 -8.9754228232057694e-04
44 2.9626613931813499e-04 1.0270143798743593e-04 9.3088975121699991e-04
45 6.5809433089057364e-04 1.2234722079898635e-04 -7.3324383622021781e-04
46 6.9707452797833835e-04 2.4837083571551446e-04 -6.6678709361473821e-04
47 2.6167204933594376e-04 3.2124508988301987e-04 -8.9192214107400487e-04
48 3.7741159334950876e-04 3.2425539252450012e-04 -8.5098025485935865e-04
49 3.2015342226736294e-04 4.2224795268764692e-04 -8.3233142822358816e-04
50 7.9674623546244867e-04 2.5087386293502724e-04 -5.5176419693859125e-04
51 7.2195121967412066e-04 3.6887728361597813e-04 -5.8481880520993364e-04
52 8.0943702373108294e-04 3.6945462845336575e-04 -4.6484675065770699e-04
53 7.2670631281597899e-04 4.7883748281371340e-04 -4.9813143831718904e-04
54 8.0401692022271786e-04 4.8093640542519207e-04 -3.6759841028792057e-04
55 7.1105490289188314e-04 5.9004922309005320e-04 -3.9678211150706691e-04
56 7.7894016476891172e-04 5.8374064710816449e-04 -2.6377535594380362e-04
57 6.3336179407928381e-04 5.8611900980818233e-04 -5.0920596258495303e-04
58 6.0254462735273313e-04 6.9031198657400282e-04 -4.1262392593451524e-04
59 5.1145951072547810e-04 6.7875886034618211e-04 -5.2912136990228655e-04
60 4.7909904133633141e-04 7.7560426101294807e-04 -4.2182078315781447e-04
61 3.8154674783429619e-04 7.5092645107288788e-04 -5.4054728317222010e-04
62 3.5440097484752941e-04 8.4411608869776398e-04 -4.1384088217683907e-04
63 1.9503640845122078e-04 4.4302982697416580e-04 -8.5807783652615851e-04
64 4.4241825724370418e-04 8.5171767201645235e-04 -3.0462096185199624e-04
65 2.5120080842433847e-04 8.1607469896163062e-04 -5.2323305902316386e-04
66 2.2951618880942659e-04 8.9606827476703039e-04 -3.9343946236160689e-04
67 1.1794859068701574e-04 8.6416878006389110e-04 -4.9394438133934840e-04
68 1.0429151410989738e-04 2.2781275620497348e-04 -9.4765854919511439e-04
69 1.3541126521633931e-04 7.6393638200081097e-04 -6.2777978189730110e-04
70 8.5897806257114525e-04 4.7306664467961136e-04 -2.3693829204884104e-04
71 8.3197855048653898e-04 5.6145538872332391e-04 -1.1686173668790163e-04
72 7.3969229273623566e-04 6.7173136629267193e-04 -1.4722345013919944e-04
73 7.7950955159873268e-04 6.4343274090718737e-04 -6.9896434522100214e-06
74 6.8097942171772168e-04 7.4601924977572701e-04 -2.9684852693419751e-05
75 7.0517645192596091e-04 7.1635904663402180e-04 1.0059056802384184e-04
76 6.0213604898549954e-04 8.0689889703266084e-04 8.3549125629390513e-05
77 6.1813281238741068e-04 7.6810695057107959e-04 2.1496984672824193e-04
78 5.1118901096859203e-04 8.5028960115025604e-04 1.8631082177254579e-04
79 9.8357369029518105e-05 9.3714288533770719e-04 -3.5275683676359919e-04
80 -1.9479162785874428e-05 9.0112144388634040e-04 -4.4139576132818569e-04
81 2.3505873311724666e-04 2.1620918382961180e-04 9.2899315087481798e-04
82 5.2796933692867841e-04 7.9564181195450139e-04 3.2155084598307633e-04
83 -4.0951977882705673e-05 9.5743587725359439e-04 -3.0822817886451133e-04
84 4.0977089958709189e-04 8.7662117540276876e-04 2.8240594213570669e-04
85 4.2007195887752176e-04 8.1371969231639396e-04 4.1407987096644662e-04
86 3.0320073139516649e-04 8.7946339335320399e-04 3.8253878874422133e-04
87 3.1445077867826773e-04 8.0547520630635464e-04 5.0646062248826203e-04
88 1.8585711309269433e-04 8.5843969909834661e-04 4.8417005904749326e-04
89 1.6326140953207803e-04 9.3036087626699850e-04 3.4785735416888067e-04
90 5.2799905675226527e-05 8.9706861641402746e-04 4.4766438098039991e-04
91 7.1229736814093305e-05 8.1568747088693800e-04 5.7360756330424338e-04
92 -5.2481320271979945e-05 8.5057817224174165e-04 5.2554794499203223e-04
93 -7.7309715112965739e-05 9.1813014417960149e-04 4.0161337936716127e-04
94 -1.8881674894227700e-04 8.5951516530796126e-04 4.8058315159195435e-04
95 -1.4639482568717786e-04 7.9761452757942783e-04 5.8225652560458857e-04
96 -2.1618070975517350e-04 9.1847877390744737e-04 3.4977430768048478e-04
97 1.0432080465390441e-04 2.2343919093167179e-04 9.4955117041024969e-04
98 5.3206871310568075e-04 7.0493549931165903e-04 4.7859712244231110e-04
99 1.7253985580452933e-04 3.1382594120410494e-04 9.1536590840366112e-04
100 4.9930830162751860e-05 3.1446406560651184e-04 9.2905529708922304e-04
101 -2.2375033450938991e-05 2.1308082552193771e-04 9.5679318402959229e-04
102 -7.7143175357320356e-05 3.0773452607674856e-04 9.2936434922816474e-04
103 2.0397638225039353e-04 9.5291038026556400e-04 -2.5753426060546713e-04
104 -1.0904999773362730e-04 9.6655819479464001e-04 2.6440881514951543e-04
105 -2.4656350088394970e-04 9.5641005342750253e-04 2.0530258031979816e-04
106 -3.5405502459731083e-04 8.9652597147114779e-04 2.9307700898203358e-04
107 -1.5378793419362451e-04 9.1552192408817120e-04 -3.8487240415033714e-04
108 -1.3289249699964596e-04 8.4524742122665916e-04 -5.1947256818417841e-04
109 -3.7788461324803291e-04 9.2304020482835163e-04 1.5454550162652869e-04
110 -2.6691594767793125e-04 8.4948603049408815e-04 -4.6140649745380811e-04
111 -2.3694223125062471e-04 7.6833124595080445e-04 -5.9164538741684136e-04
112 -3.7159112660265756e-04 7.6363027612769412e-04 -5.2937991076686130e-04
113 -3.3044485083837810e-04 6.6787192478271905e-04 -6.6007013128778990e-04
114 -4.6208050775824270e-04 6.6654119393504889e-04 -5.8281117309800525e-04
115 -4.1050800321001561e-04 5.6425212380986048e-04 -7.0698554108743531e-04
116 -4.9758981724658518e-04 7.4739768443569097e-04 -4.4781048478724234e-04
117 -2.8336165196701113e-04 9.0886670916448141e-04 -3.2604986629667716e-04
118 -2.8364039126258384e-04 7.7658646250064879e-04 5.6351670545158584e-04
119 7.1748876013984599e-04 6.7536540359697456e-04 2.1622317994679621e-04
120 -2.7878058014976336e-04 5.6253462569579450e-04 -7.6590676702539167e-04
121 -3.5503776821521274e-04 4.5136366734082928e-04 -8.0438282076708177e-04
122 -4.8703386611510840e-04 4.6408385342725709e-04 -7.2916150418122117e-04
123 -4.2647617728174252e-04 3.5668830325540150e-04 -8.1633616245018305e-04
124 -5.8896634842558072e-04 6.4252533633034597e-04 -4.9399599124643379e-04
125 -6.1684420751966700e-04 7.0477543961371537e-04 -3.6593687083093940e-04
126 -7.0111026207030796e-04 5.9397776751116420e-04 -4.0586168811664606e-04
127 -4.7882489136795252e-04 8.5605226933801537e-04 2.3431027085802879e-04
128 -5.5781670457399034e-04 3.5002490591882839e-04 -7.4114931875631786e-04
129 -4.9787214018268838e-04 2.4746040775579687e-04 -8.1627822797053864e-04
130 -6.2188295923677370e-04 2.2256953316825200e-04 -7.3963309740560079e-04
131 -5.5695206397428202e-04 1.2266237560760380e-04 -8.0707646338014165e-04
132 -6.7709105358711120e-04 9.3602065246260695e-05 -7.2011081708985589e-04
133 -5.9465606402429286e-04 -9.5934261056004054e-06 -7.9061514535715344e-04
134 -7.1153651805496484e-04 -3.5254684598262016e-05 -6.9374829988378436e-04
135 -6.1922275019819252e-04 -1.4343118753298474e-04 -7.6049573511326771e-04
136 -7.8684004810300793e-04 7.7421972177468359e-05 -6.0923685501932062e-04
137 -8.1482068640138436e-04 -5.7084299590611919e-05 -5.7613997884745831e-04
138 -8.7656988317417334e-04 4.9098764154374912e-05 -4.8460561033320448e-04
139 -8.9622504377649085e-04 -8.2564865356319253e-05 -4.4511063082743280e-04
140 -9.4293586498341421e-04 1.0930214230875632e-05 -3.5142330121733771e-04
141 -9.5117886265274731e-04 -1.2095176170129689e-04 -3.0915584655510524e-04
142 -9.8502699387625339e-04 -1.4131458493582204e-05 -2.1753225673003756e-04
143 -9.8398358016268104e-04 -1.4801151642492418e-04 -1.7101789691975711e-04
144 -1.0063180602121399e-03 -3.7568118870865262e-05 -8.0615633726623329e-05
145 -9.9594683001830164e-04 -1.6745727076524752e-04 -3.6768527338372728e-05
146 -1.0075939319203356e-03 -5.3508352483328499e-05 5.3040934868993837e-05
147 -9.8802867718419040e-04 -1.8323731653435891e-04 1.0515974703308711e-04
148 -9.6721878046425436e-04 -2.9346964155872052e-04 1.0946502497198035e-05
149 -9.4866976371098298e-04 -3.1053335332952150e-04 1.5480799604036078e-04
150 -9.5714522819566143e-04 -1.9256871135388579e-04 2.5375954119670208e-04
151 -9.0760536156177186e-04 -3.2097558079880199e-04 2.9904267926301694e-04
152 -9.0390644270851872e-04 -2.0508455311540489e-04 3.9096117526773663e-04
153 -8.4275352165824819e-04 -3.3139461600221798e-04 4.3531332057679671e-04
154 -8.9809854077509490e-04 -2.1590428964794983e-04 -3.9705561409655632e-04
155 -8.3073895516355787e-04 -2.1377657488510693e-04 5.1810448886068915e-04
156 -7.5981516319724982e-04 -3.3377552627689443e-04 5.5897141310732180e-04
157 -8.8510937281812546e-04 -8.0886924072439171e-05 4.6663964900992141e-04
158 -7.3383356801339644e-04 -2.1383632802378629e-04 6.4044622866867495e-04
159 -6.5832008671755328e-04 -3.3287290613058648e-04 6.6924743881197762e-04
160 -1.0071863768635198e-03 7.9377512200703532e-05 4.6721235127624113e-06
161 -6.2224278779809061e-04 -2.0797128906081821e-04 7.4432740834723030e-04
162 -5.3511774891995100e-04 -3.1993067123076027e-04 7.7052015459674796e-04
163 -4.9881902664768250e-04 -1.1195717422023145e-04 -8.4377142146727828e-04
164 -5.2187682651054718e-04 -2.4280294320071520e-04 -8.0417287493361603e-04
165 -7.1898114752665338e-04 6.4903393029537115e-04 -2.7704964551576489e-04
166 -1.4886696566346070e-04 1.9803955847532808e-04 9.4916512303148807e-04
167 -2.0733514478109340e-04 3.0821831396617930e-04 9.1017594625107418e-04
168 -4.0553311577318246e-04 -2.0320073828402761e-04 -8.7429896448566714e-04
169 -4.2988381102089491e-04 -3.3019343422674717e-04 -8.2586725140998407e-04
170 -5.4552071231213123e-04 -3.7470367657752403e-04 -7.3960045261092973e-04
171 -4.4223920878367761e-04 -4.6896602654720223e-04 -7.5392675104167702e-04
172 -5.5526471701414638e-04 -5.0383097268607289e-04 -6.5668432531775704e-04
173 -4.3950417550516591e-04 -6.0003090271540068e-04 -6.6329694180625870e-04
174 -5.4831730514747791e-04 -6.2204329212378943e-04 -5.6042452432421741e-04
175 -4.3032498871001387e-04 -7.1360939121512933e-04 -5.5493888176675373e-04
176 -7.7008569587884554e-04 -4.4146833223026330e-04 4.6827513646075604e-04
177 -5.3243565940021319e-04 -7.2405927321334061e-04 -4.4893254527698760e-04
178 -4.0547259771763644e-04 -8.0927343292326983e-04 -4.3703177841767428e-04
179 -3.1138441368640138e-04 -7.8259923994033369e-04 -5.4190143498478117e-04
180 -2.7762528004243806e-04 -8.7000320105615507e-04 -4.2130561371851006e-04
181 -1.7480961453758391e-04 -8.3519410377625683e-04 -5.2573112070044604e-04
182 -1.3974586158417720e-04 -9.1264085780679992e-04 -4.0051045278763868e-04
183 -3.8523466707207789e-05 -8.6222359979059942e-04 -5.1126271728861149e-04
184 9.9026427963579986e-07 -9.3263061113090049e-04 -3.7966445892307585e-04
185 -9.6606995121834846e-05 -9.6575333844632931e-04 -2.7645089593323290e-04
186 4.4767967528159553e-05 -9.7767838365382274e-04 -2.4767498080781395e-04
187 -5.3224324294290143e-05 -9.9871818482438648e-04 -1.4683617786432355e-04
188 9.1693338272455272e-05 -9.9935656739757258e-04 -1.2361706070817380e-04
189 -6.6089448014217078e-06 -1.0112610100990050e-03 -1.8416550478263343e-05
190 1.2693856750259683e-04 -1.0034504635858599e-03 1.1279145389181925e-05
191 3.7122223742667678e-05 -1.0040703670579027e-03 1.1271182322849163e-04
192 1.6894513260921806e-04 -9.8632663894480683e-04 1.4337049070560284e-04
193 7.2147619342269702e-05 -9.7639894767735950e-04 2.4644348153103520e-04
194 2.1496583887873705e-04 -9.8454064124725484e-04 -8.3602178900902234e-05
195 2.0376344150965610e-04 -9.4931145466667442e-04 2.7522861628066764e-04
196 1.0368474909775994e-04 -9.2835674868434724e-04 3.7613514672164014e-04
197 1.1069762930981030e-04 -8.7613010809506971e-04 -4.7930322028880769e-04
198 -9.7524085492756493e-05 -1.0022934317433525e-03 8.8586510827995404e-05
199 2.3489204952348942e-04 -8.9147225492419171e-04 4.0345798270978770e-04
200 3.3218221462218579e-04 -9.0471139406993412e-04 2.9799746114108873e-04
201 3.6122068168155359e-04 -8.3866588410239919e-04 4.2163014943673229e-04
202 1.3318682313107191e-04 -8.5885423137950978e-04 5.0129109168305802e-04
203 4.5911793354570563e-04 -8.4001165473709602e-04 3.1694302412941085e-04
204 4.6254919725488325e-07 -8.8532656494618442e-04 4.7398083283737267e-04
205 3.1284275036717035e-05 -8.0062676343804068e-04 5.9775012275528746e-04
206 -9.1549724113083083e-04 -4.2468381909474318e-04 5.8348579364196928e-05
207 -7.8333880642024063e-05 -7.6376289020181946e-04 -6.3803324750583167e-04
208 -1.0781686038382765e-04 -8.2163302144915126e-04 5.6160923596950405e-04
209 -6.9906586406252351e-05 -7.2506834832895329e-04 6.7922406341263460e-04
210 4.7956208103852507e-04 -7.6427152152025218e-04 4.4292070836701502e-04
211 5.6754569361902845e-04 -7.6420492449450655e-04 3.3132971508675869e-04
212 -4.9889125215682288e-04 -8.0853994461713434e-04 -3.3548184167831200e-04
213 6.2937857871097927e-05 -6.9514400237011395e-04 7.0845892652694905e-04
214 -3.1473268183235908e-05 -6.1231911066304476e-04 7.7843006597929244e-04
215 -3.0741041759275149e-04 -2.8714152764874624e-04 -8.8977171877025309e-04
216 -2.0485382532681848e-04 -7.4309118479784183e-04 6.3387991645354690e-04
217 -2.4312067431292783e-04 -8.2952717447231088e-04 5.0853221813396989e-04
218 5.4877791794643790e-04 -8.2135542062009373e-04 2.1170256791198773e-04
219 6.6256513532014674e-04 -7.2730367720469770e-04 2.2901491324912973e-04
220 6.2938809532596439e-04 -7.8603222545815810e-04 9.5256597943487147e-05
221 -6.3762916631691024e-04 -6.3386519524726329e-04 -4.4782470055801295e-04
222 7.3834803453748832e-04 -6.8197983766569938e-04 1.1327346428314887e-04
223 6.9195405279866772e-04 -7.3760534988998071e-04 -2.4493161716101848e-05
224 -2.9046845393322423e-04 -1.7095425581445053e-04 -9.2259208578219793e-04
225 -9.6656150578789801e-04 1.1321382657718845e-04 -2.6195449028801912e-04
226 9.3827057964349650e-05 -5.8073289765633016e-04 7.9617267856500848e-04
227 -2.2259858610488944e-06 -4.8849561703820182e-04 8.5707401140940759e-04
228 -4.9842440681784300e-04 -1.8495848319244326e-04 8.3227718680026447e-04
229 -5.8661340410758468e-04 -8.4908974238697590e-05 7.9217595928808722e-04
230 6.6443469219220870e-04 -6.6889986973294141e-04 3.5516159767693610e-04
231 3.7921486474756235e-04 -7.5355435386077925e-04 5.4027229177490161e-04
232 4.9901230691084045e-04 -6.6501762826819740e-04 5.5912385318466790e-04
233 7.9032096060154531e-04 -6.3127990851537675e-04 -6.1745331739792140e-06
234 7.4355064254413253e-04 -6.7032420750902442e-04 -1.4047593665308358e-04
235 -3.5899831995262567e-04 2.3620594166155184e-04 -8.8511124168091264e-04
236 2.9661792657426458e-04 3.1559936602026120e-04 8.8431888902279130e-04
237 -4.0547591796557349e-04 -2.8009781067966374e-04 8.5471577277185186e-04
238 -8.3941104972478438e-04 1.9615007876156538e-04 -5.1161032043263530e-04
239 6.3837702195354833e-04 -7.6795113344048588e-04 -1.5674164072642267e-04
240 6.8650146539015237e-04 -6.8788480632974672e-04 -2.7221435746069999e-04
241 -5.6794479410736994e-04 -4.4361038150217186e-04 6.8654971049508535e-04
242 5.7700914633678835e-04 -7.7447788032571595e-04 -2.9172770573646355e-04
243 6.1117491399719458e-04 -6.9067341069546488e-04 -4.0277421398250479e-04
244 7.1767811910037867e-04 -5.9081319450820147e-04 -3.8655790402639627e-04
245 6.2565724114233934e-04 -5.9007060418474601e-04 -5.1591781905273120e-04
246 -1.9230451681123443e-04 -2.4237729308913803e-04 -9.3184811857151024e-04
247 8.2866952156627658e-04 -5.6752879687753095e-04 1.1756962587575244e-04
248 2.2560088878649157e-04 4.2765905230036770e-04 8.5925615133023564e-04
249 -3.7566244458274212e-04 -1.4764809929517273e-04 8.9741291864920639e-04
250 3.5083115172836952e-04 4.3657600462142042e-04 8.1442868360722916e-04
251 -2.0282023633278335e-04 -3.7020122307901280e-04 -8.8913732865600543e-04
252 -7.7940825682127626e-05 -3.1639832398286713e-04 -9.2682517432354664e-04
253 3.8793874294699597e-04 9.2071350151041629e-04 1.4619623318627131e-04
254 -6.2748051007440885e-04 7.5510534681151045e-04 -2.2900506165967138e-04
255 -7.2188312205727703e-04 6.9024699711086311e-04 -1.4450992549879066e-04
256 -8.0449942181454843e-04 5.7970056916792421e-04 -1.8596291926501219e-04
257 -8.0274201796938201e-04 6.1058159882421375e-04 -5.1432510804691552e-05
258 -2.2135926919873759e-05 4.1438052724520436e-04 8.9226406514948751e-04
259 -2.8820946013215714e-04 -2.3579848279024391e-04 9.1004061707303523e-04
260 -2.7308009334438716e-04 1.9977001871560425e-04 9.2225975915085018e-04
261 -3.4428343554876624e-04 3.0082633521346703e-04 8.7263576867422472e-04
262 -2.5485776171199203e-04 -1.2229977671618530e-04 9.4004292522873421e-04
263 -1.6862902254036563e-04 -2.1145632620881029e-04 9.4353725558307385e-04
264 -8.7391559283775042e-04 4.9893739145811925e-04 -8.4703264623826410e-05
265 -8.5863241188349423e-04 5.2989703156817189e-04 4.7853437244845857e-05
266 -3.3879717508230418e-04 -7.4364202425847889e-04 5.7681302439281082e-04
267 -3.7133327158335948e-04 -8.1821065774983093e-04 4.4936807087369993e-04
268 5.1651807367435936e-04 -6.8121797819502825e-04 -5.2379119783773232e-04
269 5.2263059601330658e-04 -5.7132054722786659e-04 -6.3024081556671443e-04
270 6.1671836865186049e-04 -4.7697298022111601e-04 -6.2408186349699403e-04
271 5.0486038227946198e-04 -4.5254107328248462e-04 -7.2658739271602702e-04
272 4.0430117735949615e-04 -5.3913324222148128e-04 -7.3012518425895009e-04
273 -2.7061682602861942e-04 4.0652945397127624e-04 8.5652016340443597e-04
274 -4.1349044291989740e-04 3.9967035162126523e-04 8.0449622433440818e-04
275 3.7624017873242308e-04 -4.2176395210948963e-04 -8.1177248188529154e-04
276 2.7340912355805670e-04 -5.0043627092489888e-04 -8.0851701456190672e-04
277 -3.2202652517290034e-04 -3.5086506637498999e-04 8.6328202296396042e-04
278 -1.3725505069293561e-04 9.9269417496806989e-04 1.2218311790679996e-04
279 8.3000943006383257e-04 -5.6428674322950051e-04 -1.1934116849029758e-04
280 -2.2401893056273324e-04 4.4857845789911916e-04 -8.4888436217248205e-04
281 -1.4560086745278247e-04 5.5919428356868237e-04 -8.0199962260801209e-04
282 8.6996578364481798e-04 5.1572149653072812e-04 2.6382385243040718e-05
283 1.1451786715890346e-04 -4.5773729085294226e-04 8.6585980821226411e-04
284 -9.9758704218878857e-04 6.1482563240103014e-05 1.4245439303906682e-04
285 -9.2216477595555009e-04 -4.0701514097586769e-04 -7.4484838733232403e-05
286 -8.6002634591296728e-04 -5.3084410417426583e-04 -2.7910391236503076e-05
287 -8.4209157766289592e-04 -5.4869823614177163e-04 1.0671792998998250e-04
288 -7.8279550458784381e-04 -6.3969597069971529e-04 2.1330588794787998e-05
289 -7.5691916156615433e-04 -6.4991103450618998e-04 1.5925664377968164e-04
290 -6.8208296105710616e-04 -7.4137447703151644e-04 8.3916742258635565e-05
291 -1.9827678889721779e-04 -9.7753827488728570e-04 -1.6358731210156630e-04
292 -2.7522155064773815e-04 -8.9073922909481266e-04 3.7999521439915045e-04
293 -3.2561444224346207e-04 -5.4303465764199692e-04 -7.6327207162973074e-04
294 -9.8749079174887620e-05 -4.6292968433594734e-04 -8.6546711919464577e-04
295 -4.7328656272974893e-04 2.7748836707992922e-04 8.2180264427845324e-04
296 -5.4299060508690249e-04 3.8785144296293492e-04 7.3490508801675198e-04
297 -8.7185600371268073e-04 4.6041316471818458e-04 -2.1324277093027341e-04
298 -6.0209907053396347e-04 2.6327390996022009e-04 7.4344648694968005e-04
299 -6.6269101452018906e-04 3.7086339107010564e-04 6.4572239188744312e-04
300 -5.9572749409294180e-04 4.9242748451653077e-04 6.3061474002287863e-04
301 -7.0737800645040308e-04 4.6557726208002094e-04 5.3424377474322910e-04
302 -7.6827673871762649e-04 3.3961211978330788e-04 5.4408392468673181e-04
303 -2.9923365824073789e-04 -6.5606423184875475e-04 6.8627709029896687e-04
304 -6.3003580858334626e-04 5.8716690767695212e-04 5.1253023178803644e-04
305 -8.0848927446194386e-04 4.1782748819690874e-04 4.2568485733454300e-04
306 2.2773852531302692e-04 -5.3376083541805351e-04 8.0165993140122853e-04
307 2.3336060342671322e-04 -4.1265225200625522e-04 8.6464749999015037e-04
308 3.4960879033543219e-04 -4.8249608259178927e-04 7.9111402897198290e-04
309 -4.5691390130080058e-04 -7.3454588279267172e-04 5.0631827290329497e-04
310 -8.5731093936941896e-04 2.8882172941315919e-04 4.3618424671342741e-04
311 -4.0824370481016940e-04 -8.6602242070733131e-04 3.1589244820963685e-04
312 -7.7319037773906408e-04 6.4415781385175044e-04 8.2530199597796052e-05
313 -8.5864310133293876e-04 -5.0604854886003472e-04 -1.6421770177167045e-04
314 -5.4687644625440450e-05 9.9224572863551393e-05 9.7343340208130337e-04
315 -8.9195214268349328e-04 3.5765250631286579e-04 3.0364414278034852e-04
316 -9.8714158869672199e-04 1.9453589729439698e-04 8.7944967031886015e-05
317 -1.0898410190781063e-04 7.5360197350838459e-04 -6.4207177512109223e-04
318 2.5360284824670770e-04 -3.8755073561905050e-04 -8.7014971005460883e-04
319 -7.0158303619262787e-04 -7.2568578955304816e-04 -5.8960511872514045e-05
320 -6.0154252958494214e-04 -8.1245133295353329e-04 2.6749599618582067e-06
321 -6.4992556711066830e-04 -4.0834948271730142e-04 -6.3683818634295130e-04
322 -8.5487898011704010e-05 -1.8274449281963204e-04 -9.5933919003870875e-04
323 5.1325275561341522e-04 -8.6802890971992696e-04 7.8394712831145844e-05
324 -6.2277139322627071e-04 7.8908707368209401e-04 -9.2313635290910368e-05
325 2.7951672075620217e-04 5.3768978226294544e-04 7.8284185449888663e-04
326 2.9066767807655605e-04 -6.2374010780230746e-04 -7.1751326261213703e-04
327 1.5872728992285157e-04 -5.8912986176021904e-04 -7.8087934728780979e-04
328 4.0284560288440503e-04 5.3522700942632961e-04 7.3258883554792702e-04
329 4.7578119418614567e-04 4.3057734564152578e-04 7.5587808589786345e-04
330 4.4228562401249711e-04 4.2800305149102958e-04 -7.7521725252567293e-04
331 -2.3523795484184585e-06 9.9432431443468639e-04 1.7272096767267377e-04
332 -2.4783796853545476e-05 1.0087373983224696e-03 4.1017123313064435e-05
333 -1.6136305458978921e-04 9.9675666187971131e-04 -9.4075959322441373e-06
334 1.0675639094808318e-04 1.0014542168418905e-03 7.5140347324336489e-05
335 3.5263930385992509e-04 -3.5844846980182535e-04 8.4923528020898790e-04
336 4.5278528934751099e-04 -4.2720571205582918e-04 7.7133982616255548e-04
337 -8.1115600134797029e-04 2.0754553941760336e-04 5.4752263553899767e-04
338 -3.4138787586153734e-04 5.0820130648314540e-04 7.7812038984409069e-04
339 -1.0494448578526488e-04 4.4795160219336791e-04 -8.7049030399625094e-04
340 3.7167213443608892e-04 -3.0860405433171055e-04 -8.5983612475683908e-04
341 3.2607612315859517e-05 -2.6651461495551845e-04 -9.4393338638480554e-04
342 -9.3815699557722471e-04 3.6319502827505528e-04 -9.8741329343541570e-05
343 2.4466791295363580e-05 -3.7446927515974785e-04 9.0907570036467540e-04
344 -5.1788917508362121e-04 6.1152532263883006e-04 5.9650594458767880e-04
345 -5.3630348955212997e-04 7.1420194635358071e-04 4.6006752906905841e-04
346 -6.6049602939258093e-04 6.5687071649266722e-04 3.7972216738435332e-04
347 6.0025510044728477e-04 -3.5672405752791206e-04 -7.0837113182649022e-04
348 7.0882996111984128e-04 -3.7294503498178392e-04 -5.9824582588178057e-04
349 5.2373083594805918e-04 5.1828172630368461e-04 6.6981295464518126e-04
350 5.9660444667119833e-04 3.9719075455405228e-04 6.9000582742905847e-04
351 6.4380900589309901e-04 4.9004640291221895e-04 5.8684307385370189e-04
352 7.0778465453839770e-04 3.6291873452323292e-04 6.0434706739520170e-04
353 7.4365077449522901e-04 4.5707537487991811e-04 4.9419615993837583e-04
354 -6.5275143857734385e-04 -7.4012244425495526e-04 2.1335025143190287e-04
355 2.5183738431762778e-04 5.3652581748390581e-04 -7.9147951742668363e-04
356 1.2891079121505811e-04 5.5167146151340648e-04 -8.0952117293916885e-04
357 -6.7456091660500906e-04 3.2546210532423235e-04 -6.5549873665961972e-04
358 5.2812149148677998e-04 -8.4375125012600986e-04 -1.7459622038309283e-04
359 4.5251072941599873e-04 -8.5179374035053879e-04 -2.9531513716631806e-04
360 -8.2928818153363661e-04 4.8547112631862891e-04 3.0280282292927167e-04
361 -1.3472272263057697e-04 -5.2753812101175935e-04 8.2468281205189348e-04
362 -1.7341614492173837e-04 3.4239388760896384e-04 -9.0469109720191069e-04
363 -2.1069372538391962e-04 5.1363084832673097e-04 8.1713413724404638e-04
364 -5.2200080289571368e-04 8.4634505646366065e-04 -1.7032884161934575e-04
365 1.5310373659864596e-04 5.3633546316233702e-04 8.1582090342109941e-04
366 -3.4001151793338610e-04 -2.4363357403448383e-05 9.2154639646341763e-04
367 -7.1438651757581165e-04 -6.4583239282381161e-04 2.9839576006926650e-04
368 2.0589000913316861e-04 6.5263023680494053e-04 7.2089818812147660e-04
369 8.2108895603452247e-05 6.1856432060818816e-04 7.6859158957839349e-04
370 6.9162190547162011e-04 -2.4661161372743247e-04 -6.7337680414984236e-04
371 -5.2776603923025006e-04 1.6603769560248683e-04 8.1888596077107597e-04
372 -6.5812787816367719e-04 1.3514368578719280e-04 7.3161440347861923e-04
373 5.7072964280547472e-04 8.3191716349892181e-04 -5.2350855090241885e-05
374 -1.2838496446918206e-04 -8.5848881335959761e-05 9.6802580253498873e-04
375 -4.7258616375381908e-05 -1.6606606676918979e-04 9.6495457246751834e-04
376 -3.0786879672969891e-04 -9.3056063956745974e-04 2.4197693541081424e-04
377 -4.3933025042902760e-04 -8.9558279310212598e-04 1.6566982732026654e-04
378 -9.2968794182427840e-04 2.0287307567783112e-04 3.3177450942948331e-04
379 4.1341329662362812e-04 6.3391794435782047e-04 -6.4890248092873859e-04
380 1.6490767045416717e-04 -7.0337430551720267e-04 -6.8509371568308583e-04
381 2.9056040471383139e-04 -7.3404203278712335e-04 -6.1189106550632035e-04
382 -9.1063087734886657e-04 -3.8286518234923258e-04 -2.0744868397639543e-04
383 -8.3614089660678120e-04 -4.7491650569375383e-04 -3.0165709264108083e-04
384 -7.7988703561791459e-04 -5.8670861194092927e-04 -2.5614809399284117e-04
385 -1.7535027851279619e-04 -9.4535664098109921e-04 3.0417649623257475e-04
386 -6.6530817204881864e-04 5.2650764861820413e-04 -5.3030690951433594e-04
387 -7.6754291172844639e-04 4.7473665257634698e-04 -4.3889175260303475e-04
388 8.7989159917935245e-04 2.5051151106529005e-04 -4.1706319020991294e-04
389 -9.1686876955336910e-04 3.3554617348892265e-04 -2.5057740619987564e-04
390 -5.1063396316527521e-04 8.7030994132153341e-04 -3.7188698545263189e-05
391 -4.0644017500911185e-04 9.1757734027182150e-04 -1.0851887939832659e-04
392 -6.0398746094936727e-04 8.0811351324965551e-04 3.8155509146587287e-05
393 -5.9932587015682122e-04 -8.0321555956847286e-04 -1.3025464388783845e-04
394 -5.0819120363916408e-04 -8.7187546815721355e-04 -5.7081743969613045e-05
395 7.6247386772448084e-05 1.0053081885496801e-03 -5.6104586411123053e-05
396 2.1064611566528967e-04 9.8756133971702998e-04 -2.2839705176469206e-05
397 5.0515814885029701e-04 3.2385945356947328e-04 -7.8719551356994327e-04
398 2.5421060748112470e-04 -2.9190858870320084e-04 9.0435913850095450e-04
399 3.6463917785416102e-04 -2.2163596927901122e-04 8.8794754651377753e-04
400 -2.6439998717573397e-04 6.0927773935020321e-04 7.3674711343804850e-04
401 -1.5607580336985530e-04 6.0325622373779298e-04 7.6904772215512175e-04
402 3.1840502138437340e-04 -6.0493930264381114e-04 7.2134310007500823e-04
403 6.4395387081336603e-04 2.7404002570375751e-04 7.0608152713432599e-04
404 6.6778261636725553e-04 5.9150557391153134e-04 4.6227292752616455e-04
405 -3.2033292884493401e-04 -9.5285367190094236e-04 1.0699010199144841e-04
406 2.5767951600015897e-04 -2.7302298944146007e-04 -9.0868521237597597e-04
407 3.5037129083561371e-04 -1.7631418615561212e-04 -9.0198453747046493e-04
408 7.6713819057537650e-05 4.4228196052305242e-04 -8.7599235632941858e-04
409 -8.9906966051842160e-04 4.3262808106329719e-04 1.6034665583728654e-04
410 -4.5172820753040549e-04 8.1978952078978632e-04 3.6858546308241719e-04
411 5.4600800144913645e-04 4.2896514532097570e-04 -7.0937067225275191e-04
412 4.4856846972259734e-04 6.3254264033239035e-04 6.2876925434195022e-04
413 8.0692239262499410e-04 3.1219547599304834e-04 5.0708276053250292e-04
414 8.3861776395356875e-04 3.9444904788643435e-04 3.9125101872808317e-04
415 4.3090500278095387e-05 -1.5120289034658633e-04 -9.6711522613077562e-04
416 -9.8458361391049300e-04 2.2356854397106771e-04 -3.7823687738429411e-05
417 -7.1259995130151313e-05 3.3789291114282710e-04 -9.1896156040890075e-04
418 -1.3215514345212397e-04 2.3797345070723333e-04 -9.4213276503350945e-04
419 3.1327211969945834e-05 1.5013393289973909e-04 -9.6659909300735231e-04
420 -4.7609273975360097e-05 -7.5041001006383577e-05 -9.7520264141693930e-04
421 -9.5403849506411811e-04 3.2750438995791817e-04 5.8696343045969115e-05
422 7.9433258591250647e-04 -2.5763000016102051e-04 -5.5279942130192139e-04
423 8.0679770005058818e-04 -3.7627092997248552e-04 -4.6522411714110853e-04
424 2.4855405907655295e-04 9.7234400997177849e-04 1.1267620418136262e-04
425 2.7773140088731461e-05 -6.6961731280561947e-04 -7.3404436331167002e-04
426 3.5629783946620904e-05 -5.3306133289272243e-04 -8.3130603643796351e-04
427 -7.6447449464932390e-05 -5.8832381799904109e-04 -7.9196871810131018e-04
428 4.0899209359239762e-04 -9.0749354204654024e-04 -1.7312294797136208e-04
429 3.2941447892558906e-04 -9.1111064446797250e-04 -2.8131258853128234e-04
430 3.6129000423633134e-04 -8.4683140802454832e-04 -4.0591992028372209e-04
431 -6.0821942520057929e-04 -7.2875294841650055e-04 3.3676956391290330e-04
432 -6.5109772746318052e-04 -6.2944633492451128e-04 4.3652717692894283e-04
433 1.4509512349774337e-04 -3.2191838600576156e-04 -9.1729983001787420e-04
434 -4.8286518986719112e-06 5.4739747438757613e-04 -8.2242901486641047e-04
435 6.6473099112684868e-05 6.5566374951057504e-04 -7.4108336986182684e-04
436 8.8749347542459384e-04 2.6413225745151392e-04 3.9339799989641195e-04
437 9.1090705308638693e-04 3.4626953169268376e-04 2.6028439921339753e-04
438 8.4902765148994568e-04 4.6702994955294175e-04 2.7755813429762767e-04
439 7.4885044121586507e-04 2.3087557543943405e-04 6.1894382053169147e-04
440 -5.7653616914521704e-04 7.6474606525678355e-04 3.1276076650639631e-04
441 -6.9971582789891821e-04 6.9245870165646000e-04 2.2338100221278926e-04
442 6.7015690736444550e-04 -1.1898872209442330e-04 7.2426200761079214e-04
443 7.1606269166204410e-04 -2.3990197296103275e-04 6.5157647042501108e-04
444 8.0784224465855234e-04 -2.4654062647837916e-04 5.3910539669211244e-04
445 7.3793603798658622e-04 -3.6182221358423535e-04 5.7097494661336118e-04
446 8.1798077146714640e-04 -3.6756707184645827e-04 4.5340470696192089e-04
447 7.3816345693478419e-04 -4.8024383371861844e-04 4.8193013287670469e-04
448 6.5154345182295652e-04 -4.7593587083825863e-04 5.9039012650031857e-04
449 8.0947082648698710e-04 -4.8159188965138551e-04 3.5764771625027177e-04
450 8.8039952448248481e-04 -3.6670982114688481e-04 3.2669484123163577e-04
451 6.3805396330842746e-04 -5.9708469084402359e-04 4.9473012871603531e-04
452 6.6936123766685618e-04 1.2918618936588188e-04 7.2376259737367546e-04
453 -5.7661704001126988e-04 -8.1943337693948706e-04 1.3129878837987515e-04
454 2.4294093492610553e-05 -3.8917649769576939e-04 -9.0335963770200769e-04
455 9.0835819062604236e-04 4.1727967488173123e-04 1.4616488856044840e-04
456 4.6898558160731927e-04 -2.0861709453014280e-04 -8.4306388058161372e-04
457 4.9662377610506267e-04 5.2094822955594199e-04 -6.8616022174760325e-04
458 5.9890692961180893e-04 -2.3368271301749794e-04 7.5637353679319926e-04
459 1.3457995061298523e-04 9.7674624047150199e-04 2.1369314330341106e-04
460 6.3705322946115900e-04 7.0095810013032147e-04 3.4198792538066302e-04
461 3.7486327563421144e-04 5.2544532249900486e-04 -7.5203304295982693e-04
462 -4.1874980927995224e-04 6.9760615046972276e-04 5.8003975125470067e-04
463 7.6322197988204293e-04 -1.2985644044429125e-04 -6.3009219652252618e-04
464 8.8311417423926348e-04 -2.5688285500971575e-04 -4.0778734387929722e-04
465 8.8013545804176922e-04 -3.7153501880143950e-04 -3.2210846824297698e-04
466 2.9784279745297004e-07 8.1934427441126190e-04 -5.7175228424002976e-04
467 9.3902847285938257e-04 -2.4976839258559986e-04 -2.7149243402982886e-04
468 9.2822261094980803e-04 -3.6061564689959352e-04 -1.7359745687372773e-04
469 1.6153798613743802e-04 3.2935014317291760e-04 -9.1121353127940330e-04
470 8.5960800214337574e-04 -4.7890056648897681e-04 2.2775244936511598e-04
471 9.2532970074466695e-04 -3.5671922914878716e-04 1.9208286388519761e-04
472 1.9715628038579575e-04 7.6761197571294454e-04 6.0743803795244627e-04
473 1.4210890135578873e-04 -2.0644927112427412e-04 -9.4832273170050328e-04
474 2.2893959796267441e-04 -9.0344139367214994e-04 -3.8112761551267169e-04
475 5.6376128765196559e-04 7.7917144341410334e-04 -2.9980188286453548e-04
476 3.2081497238743961e-04 7.1231702200188931e-04 6.2064133490366210e-04
477 2.8232045225635354e-04 7.1600934727004994e-04 -6.3358940384490440e-04
478 -1.8368601273074364e-04 -5.5051956254418362e-04 -8.0054911770185272e-04
479 -1.7221698872471730e-04 -6.6536419768764359e-04 -7.1773354418436068e-04
480 -3.9604744866141695e-04 8.3692573761994719e-04 -3.9057456867682598e-04
481 1.9579639145434128e-04 6.5147412123643677e-04 -7.2275907152198680e-04
482 7.6721491207309099e-04 -6.0730518187478318e-04 2.5280572210727577e-04
483 8.9852041609650240e-04 -4.5379495181398954e-04 9.4471481306275119e-05
484 9.5253510790138803e-04 -3.3315451385670562e-04 5.8878229025206590e-05
485 5.8282017315884811e-04 -2.2971546711069435e-04 -7.6837163202293605e-04
486 3.8745512743332570e-04 1.4896109914556919e-04 -8.9147313135489684e-04
487 1.0001985253849813e-03 1.3421913136961534e-04 -6.1649544038639529e-05
488 9.6632835152799662e-04 2.7333315234447276e-04 -1.2004607141143026e-04
489 9.8328289755333551e-04 2.3166711670913871e-04 8.4143825896470998e-06
490 9.0733316862630993e-04 4.3172289167641711e-04 -1.0820301480495622e-04
491 3.5141950563019809e-04 9.4718258438786966e-04 1.2039066402414113e-05
492 2.9809011855634046e-04 9.5588396934509034e-04 -1.3385404481082037e-04
493 4.4110298095172118e-04 9.0499992524318835e-04 -7.9218447225799403e-05
494 9.2497425128409722e-04 -4.0653177943223079e-04 -3.6558373902715109e-05
495 9.6757759414744517e-04 -2.8755306575220925e-04 -5.4611588627671585e-05
496 -3.9655112195857283e-04 9.2857173509436276e-04 1.7596823515765531e-05
497 9.9903966776291046e-04 1.2856654987015160e-04 8.4682258510075176e-05
498 6.7789220220881971e-04 6.8986816377073390e-04 -2.8378535660265289e-04
499 1.0010937588867945e-03 -1.3102603383954606e-04 -6.3974387820267011e-05
500 9.7765123360275797e-04 -1.1923415807437185e-04 2.2229178708880996e-04
501 9.3684224749961825e-04 -1.2587194121153067e-04 -3.4864929952895944e-04
502 8.6128177658575337e-04 1.2320686236973714e-04 -4.9923573590394607e-04
503 8.6252435292988880e-04 -1.2222696408828012e-04 4.9799514569380131e-04
504 4.1956796618290433e-04 1.0792926283559564e-04 8.8430736394966986e-04
505 4.1955455540493465e-04 3.2207303529940731e-04 8.3373674410994994e-04
506 6.4783767986058597e-04 -3.5751627601462364e-04 6.6734496995702794e-04
507 3.0478074895717643e-04 -9.1440262956553943e-05 9.2917783780463177e-04
508 6.0362896854506902e-05 -1.0889830284143509e-04 9.7248290699091249e-04
509 1.4639622436431743e-04 -2.0179821776978993e-04 9.4888881091751353e-04
510 2.5174608369422956e-04 -1.7449728345424146e-04 9.3220654313998696e-04
511 -1.9881591096713910e-04 6.6970216107085727e-04 -7.0607671983739795e-04
512 2.7491587251205016e-04 9.3980715854201727e-04 2.4179126868625067e-04
513 5.8219393703699829e-04 -8.2630321365477987e-04 -4.0206243819838113e-05
514 2.5651212174911218e-04 -9.7742091677927132e-04 4.3277419441325001e-05
515 2.9926925688962791e-04 -9.4994603446457325e-04 1.7173580405497213e-04
516 -5.4502769540298228e-04 5.6079594609014275e-04 -6.1867848915966622e-04
517 7.8459847861574996e-04 -5.8265967701015304e-04 -2.5266397278893467e-04
518 -1.4392588463997034e-04 -1.0001676639521593e-03 -4.0459806826802878e-05
519 -2.9232731765665797e-04 -9.6763816305719887e-04 -4.7189536094282673e-05
520 -3.3459006953997117e-04 -9.3405471718915629e-04 -1.9075781171599556e-04
521 -7.9249095453293400e-04 5.3466641544302855e-04 -3.1568510539397481e-04
522 -9.9686609883206960e-04 1.0030436522701860e-04 -1.2580930659371683e-04
523 7.9266900597121590e-04 6.1360113213985198e-04 1.2327343234981559e-04
524 -8.0851242182700155e-04 -5.5212925573372505e-04 2.4443889679571005e-04
525 7.7634858873059265e-04 5.2234154355738070e-04 3.6996208907615779e-04
526 4.9169331482295598e-04 -7.7332709986633686e-04 -4.1504744895724463e-04
527 -9.6389884436302528e-04 -2.7685176746529791e-04 -1.2199576400843482e-04
528 -9.4467500689124058e-04 -7.2672090980233816e-05 3.4113835369044612e-04
529 -9.1846756678744593e-04 5.4500193522302238e-05 4.0532475032795557e-04
530 -8.4263372663418161e-04 5.5673950928248837e-05 5.3890309691809646e-04
531 -7.8754924074624891e-04 -6.2223212183846967e-04 -1.1940111263136037e-04
532 -9.8680610756933713e-04 -6.5083897540783585e-05 2.0165284631220638e-04
533 -7.3895233374097384e-04 5.3715664266090713e-04 4.1823318302189891e-04
534 -7.1003214022038747e-04 7.1771471362288891e-04 -1.1326000533997754e-05
535 -2.3797170693851531e-04 -9.3441105520331697e-04 -2.9642233018360411e-04
536 6.3160232443765566e-04 7.6923078794035628e-04 -1.6857697540824588e-04
537 -1.4159068658135127e-04 -8.9546922454973143e-04 4.3451577228611875e-04
538 -4.7300655288920983e-05 1.0039126588834494e-03 -9.4122701643126566e-05
539 -1.7055357947647659e-04 9.5899956749850325e-04 -2.5696643793681070e-04
540 6.2459390906383902e-05 9.8587009377076981e-04 -2.0641931613170277e-04
541 -9.4705033540274362e-04 2.8990791245074728e-04 1.9452167319289275e-04
542 -8.8683648260189877e-04 -4.4013159081543365e-04 1.9847481712427113e-04
543 -8.0314084960692435e-04 -8.7793786626199635e-05 5.8823229063424123e-04
544 -7.4973635356161594e-04 2.5099109218806570e-05 6.5537604395412457e-04
545 -6.5360767264749527e-04 -5.2706295956531893e-04 -5.4552974944893694e-04
546 -7.4245727366945675e-04 -4.2736699123770746e-04 -5.1936365611200967e-04
547 -7.4541317998888914e-04 -3.0196021199478874e-04 -5.9268618541183664e-04
548 -6.3862733406645745e-04 -2.7737227000540488e-04 -7.0926052415485274e-04
549 2.5992335979583403e-04 -8.1453318619136158e-04 5.2339084355725648e-04
550 5.6050564061929317e-04 5.9416580938035800e-04 5.7533744667425204e-04
551 8.7489858600344340e-04 3.7057890767892534e-04 -3.3385314560496049e-04
552 8.8231583011830271e-04 -2.4619212921122966e-04 4.1573756400871794e-04
553 1.6111364062950526e-04 -7.6620145641390666e-04 6.1994029032049521e-04
554 -4.3993822380625550e-04 -6.4231673746621015e-04 6.2560298792512740e-04
555 -3.7634230804985401e-04 -5.5812353231346717e-04 7.3001246190708478e-04
556 -8.3855046376244487e-04 -4.4569306461944498e-04 3.3584347702118108e-04
557 -6.1356082004300190e-04 -7.2514229366563122e-04 -3.3523625762535571e-04
558 -7.1703375440812403e-04 2.4485754152371022e-04 6.4734676655892412e-04
559 -6.7537963445501222e-04 -4.4704181719006618e-04 5.8574269754781572e-04
560 -5.8313683636980365e-04 -5.6372631236149297e-04 5.8562916870674253e-04
561 6.2854534951796806e-04 4.7880629214499675e-04 -6.1098759885145780e-04
562 -3.1649344637478180e-04 -6.7695117951994380e-04 -6.5997620308544109e-04
563 -4.7931402755136261e-04 5.0324540797014739e-04 7.1034135259834188e-04
564 7.1942937486449280e-04 -4.8724132902990415e-04 -5.0172431612026587e-04
565 -7.5479533557851737e-05 -2.8664549400730834e-04 9.3619302806069124e-04
566 -1.0041298546455817e-04 -3.9655804583329970e-04 8.9525224247950666e-04
567 -1.8888412421152399e-04 -3.1503535817792387e-04 9.1212893543985796e-04
568 -1.6394714492670124e-04 -6.4271499078304400e-04 7.3881948213400485e-04
569 4.1212740996830332e-04 -6.5890229460700692e-04 -6.2680618943387911e-04
570 -6.9977286997314982e-04 -9.2016535349545152e-05 7.0003253636837231e-04
571 5.3004115209074189e-04 3.0908475645846103e-04 7.7727733025983016e-04
572 4.8142867948345686e-04 -3.3339592822232252e-04 -7.9799780778747520e-04
573 1.4805781547552293e-04 -3.2697182621368239e-04 9.1529213866322636e-04
574 -7.3334879185323065e-04 1.9991562969283702e-04 -6.4395921949549084e-04
575 1.4750591701722266e-04 -4.5397414776239634e-04 -8.6308455092587617e-04
576 -4.4009685752932772e-04 -4.2271864635954807e-04 7.8105383786882172e-04
577 -2.9270592987506539e-04 3.4159075506787109e-04 -8.7559412494597364e-04
578 -2.4158377260613342e-04 2.3626845606131172e-04 -9.2184200220082229e-04
579 -3.0057139670582462e-04 1.2516131043834546e-04 -9.2591701797348105e-04
580 -4.6609835126075819e-04 1.5155967710659979e-05 -8.6764827295030152e-04
581 4.5074465417935814e-04 -5.5896700563945261e-04 6.9054067503852054e-04
582 4.7029358045828148e-04 -3.0134871772532118e-04 8.1575974353418972e-04
583 -4.2475713273722795e-04 1.3097308067702812e-04 -8.7817721515404796e-04
584 -3.9393969845236452e-04 1.7805120071624208e-04 8.8458976423184455e-04
585 -4.3291934996418727e-04 7.1647422064142384e-05 8.8152476459427544e-04
586 -3.2939729843940713e-04 -4.0831587713491279e-04 -8.3627945472920925e-04
587 3.0126860921989110e-05 9.5847615595831233e-04 3.0835482511992307e-04
588 -3.7392073931270917e-04 -8.7771154272738922e-05 -9.0496374892008269e-04
589 -2.7621029957214382e-04 -5.2959589834288967e-05 -9.3987591265431135e-04
590 -1.7844044490612730e-04 -1.1022375098646954e-04 -9.5765986107943532e-04
591 -1.3786141393821487e-04 4.0904271397456738e-04 8.8473305164986306e-04
592 -5.1906858126451604e-04 8.0460559149460700e-04 -3.1092110486675756e-04
593 -2.3155073629742406e-04 -7.3011488104880368e-06 9.5289142933535393e-04
594 3.5936478327439270e-04 2.1261800597463835e-04 8.9138336881216932e-04
595 -8.1143722158518285e-04 5.6937325528960030e-04 1.8934662350635013e-04
596 4.2882581996000080e-04 -8.9420451924046140e-04 1.9372843847895651e-04
597 1.0344144819065702e-04 4.2271827873607230e-04 8.8323513542805951e-04
598 3.2437882916349628e-04 9.1019079734671595e-04 -2.8504734980693344e-04
599 1.9153248996593811e-04 -6.5547155022420000e-04 7.2207725236808585e-04
600 -5.3454794932946586e-04 -8.1652796036568037e-04 2.5659414075539743e-04
601 -8.4954767269433543e-04 4.1246351537865719e-04 -3.4683668688975774e-04
602 -8.1445862450166013e-04 3.4887272145732668e-04 -4.6921840839687397e-04
603 -7.4529753774699387e-04 -5.3892211248208273e-04 -4.0819199755492817e-04
604 -9.1583481285141034e-04 1.4049815609228373e-04 -3.8961147481238754e-04
605 -4.1510329979416795e-04 -9.2171816029487826e-04 1.8466178906954896e-05
606 -3.2580942865264711e-04 8.4838500550833413e-04 4.2754215000002514e-04
607 5.1762357511242510e-05 1.2313164959130716e-04 9.7015042156652965e-04
608 -4.1525363817299854e-05 7.5965198935970296e-04 6.4402034563954132e-04
609 -7.3436980796239850e-04 -1.6798407330905117e-04 -6.5222587419959334e-04
610 9.6519589189338160e-04 2.6566345854291492e-04 1.4209531765372108e-04
611 4.1363987809703572e-04 -1.0082254829436526e-04 -8.8770927483717329e-04
612 9.2751621136975099e-04 1.3364053622858682e-04 3.6816480727856272e-04
613 -3.7266013869463789e-04 -8.8229690976920493e-04 -3.1531041696218479e-04
614 5.7057131625219079e-05 -7.8412168545480060e-04 -6.1642929145877480e-04
615 4.6451869558313664e-04 -8.9673795761455503e-04 -5.5549406544043120e-05
616 -6.9452997984147233e-04 -7.0369754258144666e-04 -2.0813769921948226e-04
617 -9.4170084810176282e-04 -2.5107854036730663e-04 -2.5915151887882082e-04
618 -6.1347992219302919e-04 4.4630863499340928e-04 -6.4519168535607727e-04
619 1.9112507763031708e-04 -9.6398867746567843e-04 -2.3503421356221247e-04
620 -3.5170073732279780e-05 -9.4691030542232624e-04 3.4301851565957440e-04
621 3.9145155600917969e-04 -7.6314368881138270e-04 -5.1933582343417013e-04
622 -2.2288701304031732e-04 -4.3749630089491738e-04 8.5532524314477524e-04
623 8.0615845767036771e-04 -4.8258560540405518e-04 -3.6301749616194056e-04
624 9.3430322461741260e-04 1.3137664657962529e-04 -3.5268194459478789e-04
625 -3.9339632956160930e-04 6.0442605734725241e-04 6.8493097419844678e-04
626 -2.5499450191191907e-04 -5.5930943938644923e-04 7.7678007439419060e-04
627 -8.8539220707689199e-05 5.2051327658510910e-04 8.3404497816305439e-04
628 4.8988202971566729e-04 8.8202346355051710e-04 5.2353805600822201e-05
629 -9.6643858852962750e-04 5.8077086802558217e-05 2.8029096846443559e-04
630 -5.9254371330093596e-04 7.9771712336283837e-04 1.7504738302289197e-04
631 -8.2998175081810596e-04 -1.9189345665354262e-04 -5.2653284368516613e-04
632 -4.0817748756587647e-04 8.8677380038619546e-04 -2.5024759063915845e-04
633 9.3694467985186642e-04 2.5778892502241924e-04 -2.7034639871275349e-04
634 -3.1511771375105789e-04 8.3474250679031699e-05 9.2647838708051662e-04
635 3.8703986897904664e-04 -9.3241334587757397e-04 6.1759055704502740e-05
636 -6.7176543407022690e-05 -9.8439196063856570e-04 2.1539986069752108e-04
637 -4.6328361207992059e-04 -5.3981390100115551e-05 8.6813405909600837e-04
638 4.2299874301313074e-04 2.5716866584931715e-04 -8.5174948396558479e-04
639 4.2270021118781959e-04 -1.0841041423686627e-04 8.8282341771781393e-04
640 -6.8330031958708579e-05 6.5506138418723527e-04 -7.4109809434575304e-04
641 -9.6632504939182329e-04 2.3078571875360647e-04 -1.7653847308550896e-04
642 -8.8580071772271390e-04 2.7794813234541374e-04 -3.8521463074029619e-04
643 2.8275407765779455e-04 -7.1807373604319813e-04 6.3268491956572652e-04
644 5.5372688927418699e-04 -4.6926254666085522e-04 6.8143944773079649e-04
645 5.8918618733737685e-04 2.2712368957658938e-04 -7.6373148951682163e-04
646 -1.8981302807721765e-04 9.9890272055564567e-05 9.5673324819536810e-04
647 2.3865603465274584e-05 5.3384663614653197e-04 8.3035994898321690e-04
648 -7.5248438415519733e-04 5.9620227678343287e-04 3.0206350189430513e-04
649 -2.7552952993227330e-04 9.6916866039814889e-04 6.7329015458513679e-05
650 9.3958315843054431e-04 -2.4071150333620332e-04 2.7768741749423378e-04
651 -4.7782134956387889e-04 -8.6741237173739599e-04 -2.0149711647069805e-04
652 -8.8377901960268971e-04 -3.4618637308842946e-04 -3.3571402759544457e-04
653 -1.8858036918013583e-04 1.4436642387609245e-04 -9.5100344040256214e-04
654 8.6067638884650621e-04 -4.7578359127153078e-04 -2.2824777589386849e-04
655 -7.2550816974630027e-04 4.0691240721823423e-04 -5.5408397299579063e-04
656 6.6294945725452951e-04 -1.2029512393519025e-04 -7.2988100671053419e-04
657 -7.5358026218273484e-04 -5.4624186712084913e-04 3.8204493816845493e-04
658 -3.4304145919893765e-04 2.5722537689287370e-05 -9.1970612159234281e-04
659 -1.5526609026734309e-04 8.3920174959443705e-06 -9.6764418198198681e-04
660 -3.5958181482613480e-05 7.1139107544680183e-06 -9.7767806756134177e-04
661 8.6547190124209965e-04 -5.2277041535960607e-04 -4.4129247140113615e-06
662 3.1674133536140555e-05 -2.4808231204376707e-04 9.4895454875445530e-04
663 5.1618745212737448e-04 8.4652148345974254e-04 -1.8645710777566579e-04
664 -2.8947596358726275e-04 9.6591569300224860e-04 -5.1534480713787405e-05
665 -2.9160070588629103e-04 9.4758461144394833e-04 -1.8514147059553817e-04
666 -7.7182926946414490e-05 1.1788170696708628e-04 -9.6950246754090932e-04
667 2.5761984395550531e-04 -8.3020010763432681e-04 -5.0085359895234301e-04
668 -5.5414259020472177e-04 4.7077695124425784e-05 8.1678305686973924e-04
669 -8.2892315385468818e-04 -3.2315610070440083e-04 -4.6402449299836343e-04
670 -4.9737516200406759e-04 8.7301485666596026e-04 9.8997316725311818e-05
671 -9.7155411454898457e-04 1.6445142519610570e-04 2.1239743814332630e-04
672 5.5441342599026630e-04 -3.5379767306006026e-04 7.4229751429826787e-04
673 -2.0569710773695945e-05 2.4015725337566286e-04 -9.4996752436207548e-04
674 -1.9734442056418391e-04 -9.7588164140798342e-04 1.7110543896274339e-04
675 4.1401505748256515e-04 7.4115494553125578e-04 5.2955396973279622e-04
676 7.8638436488226302e-05 7.1802127361459615e-04 6.8441409061456647e-04
677 4.7944435557117427e-04 2.0648439777382879e-04 8.3770786439143195e-04
678 -4.9260965371287363e-04 -7.8541265269057876e-04 3.9029836868107967e-04
679 2.9773652290097729e-04 -8.2644001415302503e-05 -9.3188483037905546e-04
680 3.8653203262019244e-04 -6.6353346778277335e-04 6.3596967190263174e-04
681 -8.7915732341328724e-04 1.6727335729802806e-04 4.5289491179704457e-04
682 -9.1396920442070231e-04 4.2852927091282438e-04 1.4623787232511582e-05
683 -4.8374938711104516e-05 -8.4994664946611129e-06 9.7768475373177376e-04
684 3.3985335366149770e-04 -9.5018055821420762e-04 -6.4061494136845830e-05
685 4.0053577962371865e-04 9.0371381495274732e-04 -1.9647614675959057e-04
686 1.7458557084782089e-04 -7.9537472053788181e-04 -5.7933543064200897e-04
687 1.6846251329340404e-04 9.8543924136531083e-04 -1.3358334884116328e-04
688 -8.1169022772253322e-04 -4.2820577193659431e-04 -4.0807882565409607e-04
689 -5.3912407676000827e-04 -6.5437070977709141e-04 5.3148877917478610e-04
690 5.7032031985107805e-04 -6.9621813437261630e-04 4.4554544794261013e-04
691 9.7200200343731729e-04 -2.3545736488525236e-04 1.4325789905395199e-04
692 -6.8892531996333215e-04 -5.3403804696089256e-04 4.9418837850913637e-04
693 9.4243584225172370e-04 2.2852797963441798e-04 2.7374384817565895e-04
694 -1.7731886988517839e-04 9.8471556308047260e-04 -1.2980412300326273e-04
695 9.1365123592372578e-04 3.6803844950174751e-04 -2.1624842858668390e-04
696 -4.6166313755322956e-05 6.4817286517879192e-04 7.5016371051813422e-04
697 -3.2796781467117787e-04 -4.6632230397532036e-04 8.0701728430519553e-04
698 9.4120142324324895e-04 3.6928294915050122e-04 1.5547947489224288e-05
699 -4.8705384999134520e-04 -5.3294873158383159e-04 6.8416728826838243e-04
700 -6.5332236714714148e-04 1.0432161801066092e-05 7.4498974221688132e-04
701 5.6314012949353510e-04 -5.5718886838147742e-04 6.0760044970632320e-04
702 -7.0057047467192424e-04 -6.4184388398048095e-04 -3.3241650690190590e-04
703 -7.6445253819297835e-04 2.9419395254633347e-04 -5.7038666326579860e-04
704 4.0318687333423822e-05 3.3672990687322129e-04 -9.2102905835277950e-04
705 3.0412089401055814e-04 6.1266971657334974e-04 -7.1837751773383939e-04
706 -3.1386183306057497e-04 6.8064348424918218e-04 6.5471410178878002e-04
707 1.1437194653555620e-04 -9.3766613486678601e-04 -3.4843300409336496e-04
708 -6.7763234456951328e-04 7.3976542281783421e-04 1.0434030486289678e-04
709 7.4054398133858826e-06 7.3281499612764275e-04 -6.7150687004139840e-04
710 -4.0714628114249339e-04 7.7522300755412390e-04 4.8660822533699860e-04
711 -9.3548806345937485e-04 2.1907040876946923e-04 -2.9874382265333588e-04
712 7.6852518591520201e-04 1.0295683319251141e-04 6.2731042458020884e-04
713 -2.0807600348669842e-04 -7.4997177700280692e-04 -6.2355727193009688e-04
714 6.2728807293457943e-04 3.4999388852124090e-04 -6.8829116831129388e-04
715 -2.1479183737212326e-04 -9.8602091337571382e-04 4.8529725410804412e-05
716 -2.6161566579484410e-04 5.2722848062296347e-05 -9.4310307123542320e-04
717 -4.0924353940308144e-04 -9.1811701386908717e-04 -9.9516892438969459e-05
718 4.8948231746829575e-04 -2.0012828184046556e-04 8.3331180390002857e-04
719 7.3053311832886375e-04 -5.7269378838150362e-04 3.8749478050134763e-04
720 8.5270570949005768e-04 5.1693840205679898e-04 1.5366205722079185e-04
721 2.4346451132699961e-04 -1.6513423280702585e-04 -9.3572979320978068e-04
722 -5.8014116825822316e-04 -7.8953054455240380e-04 -2.3906842796503241e-04
723 4.1491927524316575e-05 6.7302796310730436e-05 -9.7550787115802703e-04
724 -1.7777648047037506e-04 7.0832229388419600e-04 6.7698863860722982e-04
725 8.8877482580722973e-04 -4.6615069669464824e-04 -1.1315476816451788e-04
726 5.8408720268535337e-04 1.9722055162365928e-04 7.7441649823382290e-04
727 7.9071722280308644e-04 5.7523772005032062e-04 2.4569775775133869e-04
728 5.4231469659719487e-04 5.8387953276606134e-04 -6.0009779216173146e-04
729 4.6888692516982401e-04 9.4708748483796713e-05 -8.6078694150055210e-04
730 7.1610480164485191e-04 6.2237649784494290e-04 3.3458954988443995e-04
731 -2.4036213940931416e-04 -6.0982157989831196e-04 -7.4267425767436353e-04
732 3.3679358963443589e-04 6.0998144305460602e-04 7.0768676700990450e-04
733 -7.2966054852409364e-05 9.8527085503517884e-04 -1.9769970924514243e-04
734 -2.3409918478386403e-04 -4.6963748778996355e-04 -8.3535072258763209e-04
735 9.6921815891709323e-04 -2.3539554577688083e-04 -1.5620254628140675e-04
736 9.8640717456449580e-04 -2.1551069541568023e-04 2.9904913554432993e-05
737 -2.8552962223787469e-05 -6.2794615943567305e-05 9.7664127530176434e-04
738 -5.0921433409161702e-04 -8.7033371495590041e-04 5.9419281128686135e-05
739 4.8117911982459570e-04 1.9928993956875741e-04 -8.3783128457848267e-04
740 -7.5953481870316719e-04 1.3546162776720177e-04 6.3064021783254521e-04
741 -1.4205181978754506e-04 2.3379901858584975e-05 9.6852833837825691e-04
742 -5.6065659734415253e-04 -7.0559678247088741e-04 4.4131306657286715e-04
743 -1.3536126099005280e-05 4.2944791102027263e-04 -8.8427637661785791e-04
744 2.9873454486298182e-04 -9.4894644142631899e-04 -1.7190007240595090e-04
745 -7.9023885915473528e-05 -6.7712811589408961e-04 -7.2056355360781965e-04
$EndNodes
$Elements
1486
1 2 2 0 0 410 440 345
2 2 2 0 0 421 541 409
3 2 2 0 0 409 682 421
4 2 2 0 0 545 603 546
5 2 2 0 0 426 427 294
6 2 2 0 0 294 454 426
7 2 2 0 0 265 682 409
8 2 2 0 0 24 41 4
9 2 2 0 0 3 24 4
10 2 2 0 0 238 642 602
11 2 2 0 0 520 651 613
12 2 2 0 0 653 666 659
13 2 2 0 0 404 460 98
14 2 2 0 0 222 482 219
15 2 2 0 0 40 463 9
16 2 2 0 0 608 724 696
17 2 2 0 0 435 709 69
18 2 2 0 0 413 439 29
19 2 2 0 0 345 710 410
20 2 2 0 0 422 463 40
21 2 2 0 0 98 550 404
22 2 2 0 0 95 724 608
23 2 2 0 0 4 41 5
24 2 2 0 0 232 701 581
25 2 2 0 0 490 698 488
26 2 2 0 0 29 436 413
27 2 2 0 0 416 421 342
28 2 2 0 0 312 595 441
29 2 2 0 0 41 486 5
30 2 2 0 0 405 605 519
31 2 2 0 0 409 595 265
32 2 2 0 0 69 481 435
33 2 2 0 0 434 743 339
34 2 2 0 0 342 641 416
35 2 2 0 0 485 656 370
36 2 2 0 0 89 587 90
37 2 2 0 0 108 466 317
38 2 2 0 0 378 629 529
39 2 2 0 0 581 680 232
40 2 2 0 0 281 434 339
41 2 2 0 0 638 739 486
42 2 2 0 0 659 666 660
43 2 2 0 0 345 440 346
44 2 2 0 0 22 44 25
45 2 2 0 0 9 463 8
46 2 2 0 0 44 81 25
47 2 2 0 0 459 587 89
48 2 2 0 0 127 670 630
49 2 2 0 0 508 662 509
50 2 2 0 0 375 662 508
51 2 2 0 0 492 598 103
52 2 2 0 0 604 642 238
53 2 2 0 0 507 510 399
54 2 2 0 0 488 698 489
55 2 2 0 0 34 473 415
56 2 2 0 0 399 639 507
57 2 2 0 0 603 688 546
58 2 2 0 0 316 541 421
59 2 2 0 0 647 696 627
60 2 2 0 0 403 439 352
61 2 2 0 0 221 603 545
62 2 2 0 0 595 648 441
63 2 2 0 0 412 550 98
64 2 2 0 0 411 714 397
65 2 2 0 0 486 739 729
66 2 2 0 0 696 724 401
67 2 2 0 0 247 482 222
68 2 2 0 0 397 714 645
69 2 2 0 0 613 651 212
70 2 2 0 0 207 745 425
71 2 2 0 0 98 675 412
72 2 2 0 0 219 482 230
73 2 2 0 0 560 692 432
74 2 2 0 0 432 689 560
75 2 2 0 0 454 575 426
76 2 2 0 0 352 439 413
77 2 2 0 0 415 420 2
78 2 2 0 0 40 464 422
79 2 2 0 0 89 512 459
80 2 2 0 0 425 614 207
81 2 2 0 0 377 600 453
82 2 2 0 0 89 90 88
83 2 2 0 0 80 466 108
84 2 2 0 0 520 717 651
85 2 2 0 0 602 703 238
86 2 2 0 0 103 687 492
87 2 2 0 0 253 491 424
88 2 2 0 0 69 709 466
89 2 2 0 0 424 512 253
90 2 2 0 0 369 696 647
91 2 2 0 0 581 701 644
92 2 2 0 0 630 670 392
93 2 2 0 0 32 656 485
94 2 2 0 0 459 512 424
95 2 2 0 0 90 91 88
96 2 2 0 0 427 478 294
97 2 2 0 0 488 695 490
98 2 2 0 0 554 699 560
99 2 2 0 0 67 80 79
100 2 2 0 0 252 454 294
101 2 2 0 0 253 628 491
102 2 2 0 0 529 681 378
103 2 2 0 0 519 715 405
104 2 2 0 0 440 441 346
105 2 2 0 0 605 717 519
106 2 2 0 0 403 452 439
107 2 2 0 0 507 639 21
108 2 2 0 0 565 567 566
109 2 2 0 0 433 454 341
110 2 2 0 0 67 466 80
111 2 2 0 0 555 697 576
112 2 2 0 0 491 628 493
113 2 2 0 0 389 641 342
114 2 2 0 0 429 619 474
115 2 2 0 0 40 501 464
116 2 2 0 0 576 699 555
117 2 2 0 0 311 600 377
118 2 2 0 0 567 622 566
119 2 2 0 0 433 575 454
120 2 2 0 0 378 671 629
121 2 2 0 0 79 540 103
122 2 2 0 0 341 473 433
123 2 2 0 0 673 704 68
124 2 2 0 0 462 710 345
125 2 2 0 0 557 722 616
126 2 2 0 0 573 662 343
127 2 2 0 0 370 656 463
128 2 2 0 0 341 454 252
129 2 2 0 0 616 702 557
130 2 2 0 0 6 26 7
131 2 2 0 0 464 501 467
132 2 2 0 0 433 473 406
133 2 2 0 0 8 45 37
134 2 2 0 0 466 709 317
135 2 2 0 0 457 461 379
136 2 2 0 0 84 512 86
137 2 2 0 0 19 452 33
138 2 2 0 0 380 614 425
139 2 2 0 0 83 540 79
140 2 2 0 0 398 510 509
141 2 2 0 0 609 631 137
142 2 2 0 0 18 442 36
143 2 2 0 0 26 45 7
144 2 2 0 0 565 566 343
145 2 2 0 0 80 83 79
146 2 2 0 0 560 689 554
147 2 2 0 0 134 137 136
148 2 2 0 0 68 469 42
149 2 2 0 0 659 716 653
150 2 2 0 0 619 707 474
151 2 2 0 0 497 610 39
152 2 2 0 0 137 138 136
153 2 2 0 0 283 573 343
154 2 2 0 0 506 644 448
155 2 2 0 0 499 735 31
156 2 2 0 0 81 97 25
157 2 2 0 0 45 46 37
158 2 2 0 0 585 668 637
159 2 2 0 0 495 735 499
160 2 2 0 0 399 510 398
161 2 2 0 0 509 573 398
162 2 2 0 0 442 443 36
163 2 2 0 0 1 607 314
164 2 2 0 0 29 612 436
165 2 2 0 0 547 631 609
166 2 2 0 0 360 595 409
167 2 2 0 0 421 682 342
168 2 2 0 0 426 575 327
169 2 2 0 0 123 577 235
170 2 2 0 0 339 743 417
171 2 2 0 0 7 45 8
172 2 2 0 0 3 723 24
173 2 2 0 0 418 666 653
174 2 2 0 0 59 60 58
175 2 2 0 0 620 636 193
176 2 2 0 0 42 469 47
177 2 2 0 0 65 67 66
178 2 2 0 0 509 662 573
179 2 2 0 0 470 482 247
180 2 2 0 0 368 476 472
181 2 2 0 0 530 740 337
182 2 2 0 0 253 512 84
183 2 2 0 0 455 698 282
184 2 2 0 0 61 65 62
185 2 2 0 0 59 61 60
186 2 2 0 0 91 472 88
187 2 2 0 0 90 92 91
188 2 2 0 0 19 442 18
189 2 2 0 0 464 465 423
190 2 2 0 0 706 724 118
191 2 2 0 0 456 611 32
192 2 2 0 0 379 477 61
193 2 2 0 0 417 743 704
194 2 2 0 0 314 683 1
195 2 2 0 0 442 458 443
196 2 2 0 0 11 28 12
197 2 2 0 0 61 62 60
198 2 2 0 0 118 724 95
199 2 2 0 0 22 25 23
200 2 2 0 0 247 483 470
201 2 2 0 0 281 640 434
202 2 2 0 0 197 667 474
203 2 2 0 0 86 512 89
204 2 2 0 0 417 704 673
205 2 2 0 0 451 690 230
206 2 2 0 0 27 442 19
207 2 2 0 0 637 668 229
208 2 2 0 0 60 475 58
209 2 2 0 0 489 610 497
210 2 2 0 0 307 573 283
211 2 2 0 0 61 477 65
212 2 2 0 0 65 66 62
213 2 2 0 0 544 740 530
214 2 2 0 0 230 719 451
215 2 2 0 0 18 452 19
216 2 2 0 0 268 569 269
217 2 2 0 0 32 485 456
218 2 2 0 0 627 696 401
219 2 2 0 0 24 42 41
220 2 2 0 0 20 27 19
221 2 2 0 0 330 461 457
222 2 2 0 0 506 672 644
223 2 2 0 0 472 476 87
224 2 2 0 0 468 495 494
225 2 2 0 0 88 472 87
226 2 2 0 0 121 577 123
227 2 2 0 0 327 575 276
228 2 2 0 0 422 464 423
229 2 2 0 0 47 63 49
230 2 2 0 0 458 506 443
231 2 2 0 0 232 690 451
232 2 2 0 0 28 487 12
233 2 2 0 0 80 107 83
234 2 2 0 0 608 696 676
235 2 2 0 0 356 481 355
236 2 2 0 0 138 238 136
237 2 2 0 0 137 139 138
238 2 2 0 0 729 739 26
239 2 2 0 0 81 99 97
240 2 2 0 0 46 50 37
241 2 2 0 0 463 656 8
242 2 2 0 0 443 444 36
243 2 2 0 0 68 704 469
244 2 2 0 0 24 68 42
245 2 2 0 0 16 503 30
246 2 2 0 0 65 69 67
247 2 2 0 0 67 79 66
248 2 2 0 0 676 696 369
249 2 2 0 0 59 379 61
250 2 2 0 0 90 93 92
251 2 2 0 0 464 467 465
252 2 2 0 0 441 708 312
253 2 2 0 0 483 484 471
254 2 2 0 0 427 479 478
255 2 2 0 0 245 564 244
256 2 2 0 0 470 483 471
257 2 2 0 0 473 721 406
258 2 2 0 0 555 699 554
259 2 2 0 0 47 469 63
260 2 2 0 0 63 355 49
261 2 2 0 0 62 64 60
262 2 2 0 0 80 108 107
263 2 2 0 0 107 539 83
264 2 2 0 0 139 140 138
265 2 2 0 0 99 100 97
266 2 2 0 0 81 236 99
267 2 2 0 0 46 51 50
268 2 2 0 0 443 445 444
269 2 2 0 0 24 419 68
270 2 2 0 0 69 466 67
271 2 2 0 0 79 103 66
272 2 2 0 0 65 477 69
273 2 2 0 0 547 548 321
274 2 2 0 0 93 94 92
275 2 2 0 0 467 468 465
276 2 2 0 0 333 664 649
277 2 2 0 0 55 498 56
278 2 2 0 0 56 498 72
279 2 2 0 0 12 499 31
280 2 2 0 0 63 356 355
281 2 2 0 0 108 110 107
282 2 2 0 0 139 141 140
283 2 2 0 0 100 101 97
284 2 2 0 0 236 248 99
285 2 2 0 0 81 594 236
286 2 2 0 0 51 52 50
287 2 2 0 0 192 515 195
288 2 2 0 0 445 446 444
289 2 2 0 0 477 481 69
290 2 2 0 0 94 95 92
291 2 2 0 0 93 96 94
292 2 2 0 0 63 408 356
293 2 2 0 0 108 111 110
294 2 2 0 0 110 117 107
295 2 2 0 0 139 154 141
296 2 2 0 0 141 142 140
297 2 2 0 0 51 53 52
298 2 2 0 0 100 102 101
299 2 2 0 0 236 250 248
300 2 2 0 0 445 447 446
301 2 2 0 0 52 388 50
302 2 2 0 0 277 622 567
303 2 2 0 0 95 608 92
304 2 2 0 0 94 118 95
305 2 2 0 0 93 104 96
306 2 2 0 0 51 561 53
307 2 2 0 0 408 434 356
308 2 2 0 0 53 54 52
309 2 2 0 0 445 448 447
310 2 2 0 0 108 317 111
311 2 2 0 0 141 143 142
312 2 2 0 0 142 225 140
313 2 2 0 0 102 166 101
314 2 2 0 0 250 325 248
315 2 2 0 0 100 258 102
316 2 2 0 0 53 55 54
317 2 2 0 0 447 449 446
318 2 2 0 0 236 505 250
319 2 2 0 0 104 105 96
320 2 2 0 0 53 57 55
321 2 2 0 0 55 56 54
322 2 2 0 0 448 451 447
323 2 2 0 0 14 39 15
324 2 2 0 0 317 511 111
325 2 2 0 0 10 40 9
326 2 2 0 0 143 144 142
327 2 2 0 0 57 58 55
328 2 2 0 0 8 37 9
329 2 2 0 0 14 38 13
330 2 2 0 0 166 314 101
331 2 2 0 0 18 36 17
332 2 2 0 0 16 29 17
333 2 2 0 0 33 504 20
334 2 2 0 0 325 365 248
335 2 2 0 0 199 202 196
336 2 2 0 0 7 32 6
337 2 2 0 0 434 435 356
338 2 2 0 0 74 75 73
339 2 2 0 0 223 239 234
340 2 2 0 0 74 76 75
341 2 2 0 0 72 74 73
342 2 2 0 0 231 549 201
343 2 2 0 0 202 205 204
344 2 2 0 0 226 227 214
345 2 2 0 0 272 275 271
346 2 2 0 0 276 318 275
347 2 2 0 0 213 214 209
348 2 2 0 0 76 77 75
349 2 2 0 0 210 231 201
350 2 2 0 0 16 30 15
351 2 2 0 0 205 209 208
352 2 2 0 0 202 204 196
353 2 2 0 0 318 406 340
354 2 2 0 0 195 196 193
355 2 2 0 0 322 420 415
356 2 2 0 0 239 240 234
357 2 2 0 0 163 588 168
358 2 2 0 0 12 31 11
359 2 2 0 0 56 72 71
360 2 2 0 0 425 426 327
361 2 2 0 0 19 33 20
362 2 2 0 0 168 224 215
363 2 2 0 0 209 568 216
364 2 2 0 0 318 433 406
365 2 2 0 0 269 271 270
366 2 2 0 0 268 269 245
367 2 2 0 0 21 639 20
368 2 2 0 0 84 85 82
369 2 2 0 0 181 207 183
370 2 2 0 0 269 272 271
371 2 2 0 0 272 276 275
372 2 2 0 0 242 243 240
373 2 2 0 0 102 167 166
374 2 2 0 0 223 234 233
375 2 2 0 0 283 343 227
376 2 2 0 0 205 208 204
377 2 2 0 0 213 226 214
378 2 2 0 0 271 572 347
379 2 2 0 0 243 268 245
380 2 2 0 0 335 398 307
381 2 2 0 0 303 555 554
382 2 2 0 0 226 283 227
383 2 2 0 0 347 485 370
384 2 2 0 0 195 199 196
385 2 2 0 0 205 213 209
386 2 2 0 0 246 322 252
387 2 2 0 0 76 78 77
388 2 2 0 0 133 163 135
389 2 2 0 0 163 168 164
390 2 2 0 0 322 415 341
391 2 2 0 0 227 361 214
392 2 2 0 0 191 198 189
393 2 2 0 0 78 84 82
394 2 2 0 0 209 216 208
395 2 2 0 0 78 82 77
396 2 2 0 0 216 303 266
397 2 2 0 0 417 418 362
398 2 2 0 0 314 607 101
399 2 2 0 0 339 362 280
400 2 2 0 0 243 245 244
401 2 2 0 0 187 291 185
402 2 2 0 0 429 430 359
403 2 2 0 0 143 145 144
404 2 2 0 0 202 553 205
405 2 2 0 0 339 417 362
406 2 2 0 0 131 580 133
407 2 2 0 0 239 242 240
408 2 2 0 0 57 59 58
409 2 2 0 0 224 246 215
410 2 2 0 0 84 86 85
411 2 2 0 0 303 554 266
412 2 2 0 0 72 73 71
413 2 2 0 0 437 438 414
414 2 2 0 0 318 340 275
415 2 2 0 0 269 270 245
416 2 2 0 0 86 87 85
417 2 2 0 0 192 193 191
418 2 2 0 0 123 235 129
419 2 2 0 0 263 374 262
420 2 2 0 0 425 427 426
421 2 2 0 0 149 150 147
422 2 2 0 0 210 232 231
423 2 2 0 0 74 373 76
424 2 2 0 0 168 215 169
425 2 2 0 0 259 262 249
426 2 2 0 0 145 146 144
427 2 2 0 0 367 524 289
428 2 2 0 0 271 347 270
429 2 2 0 0 406 407 340
430 2 2 0 0 334 459 424
431 2 2 0 0 429 474 430
432 2 2 0 0 250 328 325
433 2 2 0 0 431 432 367
434 2 2 0 0 104 278 105
435 2 2 0 0 145 147 146
436 2 2 0 0 151 152 150
437 2 2 0 0 235 583 129
438 2 2 0 0 237 249 228
439 2 2 0 0 149 151 150
440 2 2 0 0 159 161 158
441 2 2 0 0 153 155 152
442 2 2 0 0 156 158 155
443 2 2 0 0 354 367 289
444 2 2 0 0 259 263 262
445 2 2 0 0 190 191 189
446 2 2 0 0 177 221 174
447 2 2 0 0 162 228 161
448 2 2 0 0 124 516 386
449 2 2 0 0 418 653 578
450 2 2 0 0 371 584 295
451 2 2 0 0 151 153 152
452 2 2 0 0 153 156 155
453 2 2 0 0 159 162 161
454 2 2 0 0 374 593 262
455 2 2 0 0 156 159 158
456 2 2 0 0 237 259 249
457 2 2 0 0 146 284 160
458 2 2 0 0 266 309 267
459 2 2 0 0 264 265 257
460 2 2 0 0 86 88 87
461 2 2 0 0 265 312 257
462 2 2 0 0 162 237 228
463 2 2 0 0 21 44 22
464 2 2 0 0 324 392 390
465 2 2 0 0 371 585 584
466 2 2 0 0 262 366 249
467 2 2 0 0 192 195 193
468 2 2 0 0 263 375 374
469 2 2 0 0 216 266 217
470 2 2 0 0 326 327 276
471 2 2 0 0 260 646 166
472 2 2 0 0 220 223 222
473 2 2 0 0 322 341 252
474 2 2 0 0 256 257 255
475 2 2 0 0 78 253 84
476 2 2 0 0 358 359 242
477 2 2 0 0 188 189 187
478 2 2 0 0 281 339 280
479 2 2 0 0 146 160 144
480 2 2 0 0 123 129 128
481 2 2 0 0 255 324 254
482 2 2 0 0 228 229 161
483 2 2 0 0 354 431 367
484 2 2 0 0 163 164 135
485 2 2 0 0 155 157 152
486 2 2 0 0 243 244 240
487 2 2 0 0 256 264 257
488 2 2 0 0 284 316 160
489 2 2 0 0 380 425 327
490 2 2 0 0 148 149 147
491 2 2 0 0 335 399 398
492 2 2 0 0 418 578 362
493 2 2 0 0 334 424 396
494 2 2 0 0 167 260 166
495 2 2 0 0 325 368 365
496 2 2 0 0 428 429 359
497 2 2 0 0 165 255 254
498 2 2 0 0 297 342 264
499 2 2 0 0 298 371 295
500 2 2 0 0 218 323 220
501 2 2 0 0 310 337 302
502 2 2 0 0 165 256 255
503 2 2 0 0 186 187 185
504 2 2 0 0 56 71 70
505 2 2 0 0 165 254 125
506 2 2 0 0 200 201 199
507 2 2 0 0 148 206 149
508 2 2 0 0 324 390 364
509 2 2 0 0 190 192 191
510 2 2 0 0 368 369 365
511 2 2 0 0 353 404 351
512 2 2 0 0 104 331 278
513 2 2 0 0 256 297 264
514 2 2 0 0 316 421 416
515 2 2 0 0 239 358 242
516 2 2 0 0 169 586 171
517 2 2 0 0 286 287 206
518 2 2 0 0 324 364 254
519 2 2 0 0 241 576 162
520 2 2 0 0 168 169 164
521 2 2 0 0 121 123 122
522 2 2 0 0 266 267 217
523 2 2 0 0 129 131 130
524 2 2 0 0 216 217 208
525 2 2 0 0 285 382 313
526 2 2 0 0 172 321 170
527 2 2 0 0 390 391 364
528 2 2 0 0 296 563 300
529 2 2 0 0 246 252 251
530 2 2 0 0 285 286 206
531 2 2 0 0 288 289 287
532 2 2 0 0 298 372 371
533 2 2 0 0 23 35 22
534 2 2 0 0 300 344 304
535 2 2 0 0 344 462 345
536 2 2 0 0 123 128 122
537 2 2 0 0 297 389 342
538 2 2 0 0 237 277 259
539 2 2 0 0 148 285 206
540 2 2 0 0 86 89 88
541 2 2 0 0 306 307 283
542 2 2 0 0 234 279 233
543 2 2 0 0 316 416 160
544 2 2 0 0 188 190 189
545 2 2 0 0 85 98 82
546 2 2 0 0 358 428 359
547 2 2 0 0 437 455 438
548 2 2 0 0 203 210 201
549 2 2 0 0 382 383 313
550 2 2 0 0 153 176 156
551 2 2 0 0 290 354 289
552 2 2 0 0 159 241 162
553 2 2 0 0 386 387 126
554 2 2 0 0 273 363 338
555 2 2 0 0 272 326 276
556 2 2 0 0 171 293 173
557 2 2 0 0 145 148 147
558 2 2 0 0 274 295 261
559 2 2 0 0 285 313 286
560 2 2 0 0 383 384 313
561 2 2 0 0 301 302 299
562 2 2 0 0 131 133 132
563 2 2 0 0 296 298 295
564 2 2 0 0 305 310 302
565 2 2 0 0 349 412 328
566 2 2 0 0 344 345 304
567 2 2 0 0 77 119 75
568 2 2 0 0 315 378 310
569 2 2 0 0 363 401 400
570 2 2 0 0 332 333 278
571 2 2 0 0 223 233 222
572 2 2 0 0 331 334 332
573 2 2 0 0 186 188 187
574 2 2 0 0 178 212 177
575 2 2 0 0 305 360 315
576 2 2 0 0 334 396 395
577 2 2 0 0 246 251 215
578 2 2 0 0 167 261 260
579 2 2 0 0 175 179 178
580 2 2 0 0 345 346 304
581 2 2 0 0 124 386 126
582 2 2 0 0 286 288 287
583 2 2 0 0 331 332 278
584 2 2 0 0 179 181 180
585 2 2 0 0 301 305 302
586 2 2 0 0 300 304 301
587 2 2 0 0 296 300 299
588 2 2 0 0 305 315 310
589 2 2 0 0 296 299 298
590 2 2 0 0 320 453 290
591 2 2 0 0 274 296 295
592 2 2 0 0 313 531 286
593 2 2 0 0 120 281 280
594 2 2 0 0 360 409 315
595 2 2 0 0 363 400 338
596 2 2 0 0 129 130 128
597 2 2 0 0 300 301 299
598 2 2 0 0 1 508 23
599 2 2 0 0 167 273 261
600 2 2 0 0 133 135 134
601 2 2 0 0 173 174 172
602 2 2 0 0 311 377 376
603 2 2 0 0 273 274 261
604 2 2 0 0 273 338 274
605 2 2 0 0 334 395 332
606 2 2 0 0 183 197 184
607 2 2 0 0 319 393 320
608 2 2 0 0 449 450 446
609 2 2 0 0 288 290 289
610 2 2 0 0 226 306 283
611 2 2 0 0 326 380 327
612 2 2 0 0 175 177 174
613 2 2 0 0 181 183 182
614 2 2 0 0 219 230 211
615 2 2 0 0 308 335 307
616 2 2 0 0 267 311 292
617 2 2 0 0 169 170 164
618 2 2 0 0 288 319 290
619 2 2 0 0 126 165 125
620 2 2 0 0 120 280 121
621 2 2 0 0 130 357 128
622 2 2 0 0 195 200 199
623 2 2 0 0 169 171 170
624 2 2 0 0 171 172 170
625 2 2 0 0 184 186 185
626 2 2 0 0 73 282 71
627 2 2 0 0 252 294 251
628 2 2 0 0 319 320 290
629 2 2 0 0 131 132 130
630 2 2 0 0 393 394 320
631 2 2 0 0 171 173 172
632 2 2 0 0 4 34 3
633 2 2 0 0 218 220 219
634 2 2 0 0 267 292 217
635 2 2 0 0 184 185 182
636 2 2 0 0 188 194 190
637 2 2 0 0 56 70 54
638 2 2 0 0 377 405 376
639 2 2 0 0 449 470 450
640 2 2 0 0 179 180 178
641 2 2 0 0 173 175 174
642 2 2 0 0 175 178 177
643 2 2 0 0 250 329 328
644 2 2 0 0 311 376 292
645 2 2 0 0 329 571 350
646 2 2 0 0 347 370 348
647 2 2 0 0 220 222 219
648 2 2 0 0 376 385 292
649 2 2 0 0 133 134 132
650 2 2 0 0 134 136 132
651 2 2 0 0 306 308 307
652 2 2 0 0 200 203 201
653 2 2 0 0 233 247 222
654 2 2 0 0 98 460 82
655 2 2 0 0 329 349 328
656 2 2 0 0 326 381 380
657 2 2 0 0 347 348 270
658 2 2 0 0 181 182 180
659 2 2 0 0 121 122 115
660 2 2 0 0 350 351 349
661 2 2 0 0 308 336 335
662 2 2 0 0 350 403 352
663 2 2 0 0 470 471 450
664 2 2 0 0 203 211 210
665 2 2 0 0 218 219 211
666 2 2 0 0 183 184 182
667 2 2 0 0 370 463 422
668 2 2 0 0 306 402 308
669 2 2 0 0 203 218 211
670 2 2 0 0 71 490 70
671 2 2 0 0 329 350 349
672 2 2 0 0 436 437 414
673 2 2 0 0 124 126 125
674 2 2 0 0 413 414 353
675 2 2 0 0 422 423 348
676 2 2 0 0 352 353 351
677 2 2 0 0 370 422 348
678 2 2 0 0 350 352 351
679 2 2 0 0 413 436 414
680 2 2 0 0 352 413 353
681 2 2 0 0 120 121 115
682 2 2 0 0 110 480 117
683 2 2 0 0 124 125 116
684 2 2 0 0 126 521 165
685 2 2 0 0 113 120 115
686 2 2 0 0 127 440 410
687 2 2 0 0 114 124 116
688 2 2 0 0 543 544 530
689 2 2 0 0 488 489 487
690 2 2 0 0 585 637 366
691 2 2 0 0 543 570 544
692 2 2 0 0 113 115 114
693 2 2 0 0 127 410 106
694 2 2 0 0 114 116 112
695 2 2 0 0 195 515 200
696 2 2 0 0 491 493 492
697 2 2 0 0 12 487 13
698 2 2 0 0 546 547 321
699 2 2 0 0 330 457 411
700 2 2 0 0 157 543 530
701 2 2 0 0 519 520 291
702 2 2 0 0 28 488 487
703 2 2 0 0 111 112 110
704 2 2 0 0 312 534 257
705 2 2 0 0 476 732 412
706 2 2 0 0 27 458 442
707 2 2 0 0 385 636 620
708 2 2 0 0 176 559 156
709 2 2 0 0 593 634 366
710 2 2 0 0 589 590 224
711 2 2 0 0 113 114 112
712 2 2 0 0 109 127 106
713 2 2 0 0 270 564 245
714 2 2 0 0 443 506 445
715 2 2 0 0 491 492 396
716 2 2 0 0 388 624 502
717 2 2 0 0 445 506 448
718 2 2 0 0 30 500 15
719 2 2 0 0 20 504 21
720 2 2 0 0 64 475 60
721 2 2 0 0 287 542 206
722 2 2 0 0 23 508 35
723 2 2 0 0 302 558 299
724 2 2 0 0 70 551 54
725 2 2 0 0 62 598 64
726 2 2 0 0 424 491 396
727 2 2 0 0 407 456 340
728 2 2 0 0 545 546 321
729 2 2 0 0 330 411 397
730 2 2 0 0 72 536 74
731 2 2 0 0 238 574 136
732 2 2 0 0 659 660 420
733 2 2 0 0 395 538 332
734 2 2 0 0 143 527 145
735 2 2 0 0 412 675 476
736 2 2 0 0 239 513 358
737 2 2 0 0 157 530 529
738 2 2 0 0 518 519 291
739 2 2 0 0 449 482 470
740 2 2 0 0 207 713 479
741 2 2 0 0 119 523 75
742 2 2 0 0 109 670 127
743 2 2 0 0 10 501 40
744 2 2 0 0 508 509 35
745 2 2 0 0 96 606 94
746 2 2 0 0 331 459 334
747 2 2 0 0 286 531 288
748 2 2 0 0 290 453 354
749 2 2 0 0 282 490 71
750 2 2 0 0 384 531 313
751 2 2 0 0 289 524 287
752 2 2 0 0 349 550 412
753 2 2 0 0 165 521 256
754 2 2 0 0 82 460 77
755 2 2 0 0 155 543 157
756 2 2 0 0 201 549 199
757 2 2 0 0 273 591 363
758 2 2 0 0 387 521 126
759 2 2 0 0 114 516 124
760 2 2 0 0 53 561 57
761 2 2 0 0 266 554 309
762 2 2 0 0 257 534 255
763 2 2 0 0 205 553 213
764 2 2 0 0 142 522 225
765 2 2 0 0 435 481 356
766 2 2 0 0 216 568 303
767 2 2 0 0 300 563 344
768 2 2 0 0 214 568 209
769 2 2 0 0 112 480 110
770 2 2 0 0 350 571 403
771 2 2 0 0 347 572 485
772 2 2 0 0 275 572 271
773 2 2 0 0 274 563 296
774 2 2 0 0 171 586 293
775 2 2 0 0 162 576 237
776 2 2 0 0 133 580 163
777 2 2 0 0 11 501 10
778 2 2 0 0 295 584 261
779 2 2 0 0 129 583 131
780 2 2 0 0 215 586 169
781 2 2 0 0 250 505 329
782 2 2 0 0 168 588 224
783 2 2 0 0 321 548 170
784 2 2 0 0 262 593 366
785 2 2 0 0 166 646 314
786 2 2 0 0 520 535 291
787 2 2 0 0 373 663 493
788 2 2 0 0 291 535 185
789 2 2 0 0 101 607 97
790 2 2 0 0 130 574 357
791 2 2 0 0 158 570 543
792 2 2 0 0 31 501 11
793 2 2 0 0 444 552 503
794 2 2 0 0 156 559 159
795 2 2 0 0 236 594 505
796 2 2 0 0 206 542 149
797 2 2 0 0 54 551 52
798 2 2 0 0 74 536 373
799 2 2 0 0 337 558 302
800 2 2 0 0 150 532 147
801 2 2 0 0 379 728 457
802 2 2 0 0 299 558 298
803 2 2 0 0 332 538 333
804 2 2 0 0 145 527 148
805 2 2 0 0 514 515 192
806 2 2 0 0 15 500 14
807 2 2 0 0 75 523 73
808 2 2 0 0 467 501 31
809 2 2 0 0 254 592 125
810 2 2 0 0 172 545 321
811 2 2 0 0 144 522 142
812 2 2 0 0 528 532 150
813 2 2 0 0 187 518 291
814 2 2 0 0 553 599 213
815 2 2 0 0 383 603 384
816 2 2 0 0 282 698 490
817 2 2 0 0 244 517 240
818 2 2 0 0 353 525 404
819 2 2 0 0 395 540 538
820 2 2 0 0 94 606 118
821 2 2 0 0 117 539 107
822 2 2 0 0 185 535 182
823 2 2 0 0 388 502 50
824 2 2 0 0 167 591 273
825 2 2 0 0 147 532 146
826 2 2 0 0 92 608 91
827 2 2 0 0 472 676 368
828 2 2 0 0 364 592 254
829 2 2 0 0 21 504 44
830 2 2 0 0 365 597 248
831 2 2 0 0 125 592 116
832 2 2 0 0 588 589 224
833 2 2 0 0 111 113 112
834 2 2 0 0 63 469 408
835 2 2 0 0 105 109 106
836 2 2 0 0 242 526 243
837 2 2 0 0 439 712 29
838 2 2 0 0 240 517 234
839 2 2 0 0 346 533 304
840 2 2 0 0 14 500 38
841 2 2 0 0 494 495 484
842 2 2 0 0 127 630 440
843 2 2 0 0 208 537 204
844 2 2 0 0 175 562 179
845 2 2 0 0 303 626 555
846 2 2 0 0 359 526 242
847 2 2 0 0 243 526 268
848 2 2 0 0 217 537 208
849 2 2 0 0 58 498 55
850 2 2 0 0 503 552 30
851 2 2 0 0 13 499 12
852 2 2 0 0 268 621 569
853 2 2 0 0 489 497 487
854 2 2 0 0 475 498 58
855 2 2 0 0 430 526 359
856 2 2 0 0 248 597 99
857 2 2 0 0 292 537 217
858 2 2 0 0 26 645 45
859 2 2 0 0 234 517 279
860 2 2 0 0 14 497 39
861 2 2 0 0 385 537 292
862 2 2 0 0 305 533 360
863 2 2 0 0 304 533 301
864 2 2 0 0 146 532 284
865 2 2 0 0 483 494 484
866 2 2 0 0 173 562 175
867 2 2 0 0 116 480 112
868 2 2 0 0 224 590 246
869 2 2 0 0 189 518 187
870 2 2 0 0 498 536 72
871 2 2 0 0 414 525 353
872 2 2 0 0 160 522 144
873 2 2 0 0 547 609 548
874 2 2 0 0 182 535 180
875 2 2 0 0 297 601 389
876 2 2 0 0 44 594 81
877 2 2 0 0 301 533 305
878 2 2 0 0 105 106 96
879 2 2 0 0 515 596 200
880 2 2 0 0 293 562 173
881 2 2 0 0 73 523 282
882 2 2 0 0 148 527 285
883 2 2 0 0 174 545 172
884 2 2 0 0 218 596 323
885 2 2 0 0 200 596 203
886 2 2 0 0 149 542 151
887 2 2 0 0 446 552 444
888 2 2 0 0 49 461 330
889 2 2 0 0 330 397 48
890 2 2 0 0 453 738 377
891 2 2 0 0 255 534 324
892 2 2 0 0 52 551 388
893 2 2 0 0 634 646 260
894 2 2 0 0 513 615 358
895 2 2 0 0 438 525 414
896 2 2 0 0 516 618 386
897 2 2 0 0 198 518 189
898 2 2 0 0 227 566 361
899 2 2 0 0 559 560 241
900 2 2 0 0 90 587 93
901 2 2 0 0 416 522 160
902 2 2 0 0 102 591 167
903 2 2 0 0 134 609 137
904 2 2 0 0 298 558 372
905 2 2 0 0 132 574 130
906 2 2 0 0 106 606 96
907 2 2 0 0 159 559 241
908 2 2 0 0 32 611 6
909 2 2 0 0 158 543 155
910 2 2 0 0 223 513 239
911 2 2 0 0 288 531 319
912 2 2 0 0 323 513 220
913 2 2 0 0 115 516 114
914 2 2 0 0 521 601 297
915 2 2 0 0 610 698 455
916 2 2 0 0 354 600 431
917 2 2 0 0 351 550 349
918 2 2 0 0 256 521 297
919 2 2 0 0 140 604 138
920 2 2 0 0 77 460 119
921 2 2 0 0 17 503 16
922 2 2 0 0 9 502 10
923 2 2 0 0 104 587 331
924 2 2 0 0 152 528 150
925 2 2 0 0 315 541 378
926 2 2 0 0 170 548 164
927 2 2 0 0 590 659 420
928 2 2 0 0 11 624 28
929 2 2 0 0 199 549 202
930 2 2 0 0 502 624 10
931 2 2 0 0 453 600 354
932 2 2 0 0 42 43 41
933 2 2 0 0 38 499 13
934 2 2 0 0 285 527 382
935 2 2 0 0 190 514 192
936 2 2 0 0 157 529 528
937 2 2 0 0 231 643 549
938 2 2 0 0 331 587 459
939 2 2 0 0 451 701 232
940 2 2 0 0 99 597 100
941 2 2 0 0 361 568 214
942 2 2 0 0 372 740 544
943 2 2 0 0 221 545 174
944 2 2 0 0 138 604 238
945 2 2 0 0 340 572 275
946 2 2 0 0 338 563 274
947 2 2 0 0 524 542 287
948 2 2 0 0 265 595 312
949 2 2 0 0 111 511 113
950 2 2 0 0 580 658 588
951 2 2 0 0 580 588 163
952 2 2 0 0 237 576 277
953 2 2 0 0 444 503 36
954 2 2 0 0 131 583 580
955 2 2 0 0 505 571 329
956 2 2 0 0 203 596 218
957 2 2 0 0 584 634 260
958 2 2 0 0 261 584 260
959 2 2 0 0 369 647 365
960 2 2 0 0 251 586 215
961 2 2 0 0 348 564 270
962 2 2 0 0 450 552 446
963 2 2 0 0 390 496 391
964 2 2 0 0 66 598 62
965 2 2 0 0 465 623 423
966 2 2 0 0 258 591 102
967 2 2 0 0 343 566 227
968 2 2 0 0 564 623 244
969 2 2 0 0 154 617 141
970 2 2 0 0 324 534 392
971 2 2 0 0 50 502 37
972 2 2 0 0 524 556 542
973 2 2 0 0 544 700 372
974 2 2 0 0 122 516 115
975 2 2 0 0 177 557 221
976 2 2 0 0 489 698 610
977 2 2 0 0 93 587 104
978 2 2 0 0 136 574 132
979 2 2 0 0 593 646 634
980 2 2 0 0 116 592 480
981 2 2 0 0 143 617 527
982 2 2 0 0 225 604 140
983 2 2 0 0 137 631 139
984 2 2 0 0 549 553 202
985 2 2 0 0 164 548 135
986 2 2 0 0 404 550 351
987 2 2 0 0 34 721 473
988 2 2 0 0 220 513 223
989 2 2 0 0 317 640 511
990 2 2 0 0 100 597 258
991 2 2 0 0 588 658 589
992 2 2 0 0 323 615 513
993 2 2 0 0 568 626 303
994 2 2 0 0 377 605 405
995 2 2 0 0 178 613 212
996 2 2 0 0 493 628 373
997 2 2 0 0 157 528 152
998 2 2 0 0 591 627 363
999 2 2 0 0 409 541 315
1000 2 2 0 0 183 614 197
1001 2 2 0 0 103 598 66
1002 2 2 0 0 188 619 194
1003 2 2 0 0 213 599 226
1004 2 2 0 0 306 599 402
1005 2 2 0 0 97 607 25
1006 2 2 0 0 194 514 190
1007 2 2 0 0 373 628 76
1008 2 2 0 0 78 628 253
1009 2 2 0 0 42 47 43
1010 2 2 0 0 39 612 15
1011 2 2 0 0 16 612 29
1012 2 2 0 0 437 610 455
1013 2 2 0 0 487 497 13
1014 2 2 0 0 440 630 441
1015 2 2 0 0 479 713 562
1016 2 2 0 0 196 620 193
1017 2 2 0 0 456 572 340
1018 2 2 0 0 120 511 281
1019 2 2 0 0 577 578 235
1020 2 2 0 0 335 582 399
1021 2 2 0 0 314 741 683
1022 2 2 0 0 520 613 535
1023 2 2 0 0 585 634 584
1024 2 2 0 0 423 564 348
1025 2 2 0 0 457 561 411
1026 2 2 0 0 6 611 5
1027 2 2 0 0 385 620 537
1028 2 2 0 0 228 637 229
1029 2 2 0 0 366 637 249
1030 2 2 0 0 161 570 158
1031 2 2 0 0 434 640 435
1032 2 2 0 0 193 636 191
1033 2 2 0 0 410 606 106
1034 2 2 0 0 37 502 9
1035 2 2 0 0 36 503 17
1036 2 2 0 0 141 617 143
1037 2 2 0 0 363 627 401
1038 2 2 0 0 322 590 420
1039 2 2 0 0 357 618 128
1040 2 2 0 0 430 621 526
1041 2 2 0 0 540 687 103
1042 2 2 0 0 280 577 121
1043 2 2 0 0 276 575 318
1044 2 2 0 0 362 578 577
1045 2 2 0 0 109 649 496
1046 2 2 0 0 246 590 322
1047 2 2 0 0 326 569 381
1048 2 2 0 0 569 621 381
1049 2 2 0 0 269 569 272
1050 2 2 0 0 139 631 154
1051 2 2 0 0 649 664 496
1052 2 2 0 0 537 620 204
1053 2 2 0 0 355 461 49
1054 2 2 0 0 663 685 493
1055 2 2 0 0 479 745 207
1056 2 2 0 0 343 662 565
1057 2 2 0 0 212 557 177
1058 2 2 0 0 45 645 46
1059 2 2 0 0 496 670 109
1060 2 2 0 0 366 634 585
1061 2 2 0 0 384 616 531
1062 2 2 0 0 535 613 180
1063 2 2 0 0 391 632 364
1064 2 2 0 0 308 581 336
1065 2 2 0 0 344 625 462
1066 2 2 0 0 563 625 344
1067 2 2 0 0 13 497 14
1068 2 2 0 0 480 632 117
1069 2 2 0 0 371 668 585
1070 2 2 0 0 333 649 278
1071 2 2 0 0 387 601 521
1072 2 2 0 0 47 49 48
1073 2 2 0 0 358 615 428
1074 2 2 0 0 113 511 120
1075 2 2 0 0 527 617 382
1076 2 2 0 0 105 649 109
1077 2 2 0 0 398 573 307
1078 2 2 0 0 368 676 369
1079 2 2 0 0 180 613 178
1080 2 2 0 0 153 556 176
1081 2 2 0 0 432 657 367
1082 2 2 0 0 458 718 582
1083 2 2 0 0 207 614 183
1084 2 2 0 0 407 611 456
1085 2 2 0 0 244 623 517
1086 2 2 0 0 20 639 27
1087 2 2 0 0 476 675 87
1088 2 2 0 0 319 616 393
1089 2 2 0 0 474 707 197
1090 2 2 0 0 226 599 306
1091 2 2 0 0 47 48 43
1092 2 2 0 0 186 619 188
1093 2 2 0 0 412 732 328
1094 2 2 0 0 316 671 541
1095 2 2 0 0 293 734 478
1096 2 2 0 0 492 685 598
1097 2 2 0 0 528 629 532
1098 2 2 0 0 514 635 515
1099 2 2 0 0 531 616 319
1100 2 2 0 0 8 656 7
1101 2 2 0 0 387 602 601
1102 2 2 0 0 76 628 78
1103 2 2 0 0 122 618 516
1104 2 2 0 0 651 717 394
1105 2 2 0 0 423 623 564
1106 2 2 0 0 546 669 547
1107 2 2 0 0 4 679 34
1108 2 2 0 0 542 556 151
1109 2 2 0 0 548 609 135
1110 2 2 0 0 204 620 196
1111 2 2 0 0 529 629 528
1112 2 2 0 0 482 719 230
1113 2 2 0 0 258 627 591
1114 2 2 0 0 336 582 335
1115 2 2 0 0 197 686 667
1116 2 2 0 0 583 658 580
1117 2 2 0 0 85 675 98
1118 2 2 0 0 59 728 379
1119 2 2 0 0 400 625 338
1120 2 2 0 0 394 717 605
1121 2 2 0 0 471 650 450
1122 2 2 0 0 596 635 323
1123 2 2 0 0 249 637 228
1124 2 2 0 0 515 635 596
1125 2 2 0 0 338 625 563
1126 2 2 0 0 28 633 488
1127 2 2 0 0 566 622 361
1128 2 2 0 0 229 570 161
1129 2 2 0 0 468 654 465
1130 2 2 0 0 118 710 462
1131 2 2 0 0 15 612 16
1132 2 2 0 0 589 659 590
1133 2 2 0 0 526 621 268
1134 2 2 0 0 365 647 597
1135 2 2 0 0 579 583 235
1136 2 2 0 0 22 507 21
1137 2 2 0 0 342 682 264
1138 2 2 0 0 441 648 346
1139 2 2 0 0 191 636 198
1140 2 2 0 0 578 653 579
1141 2 2 0 0 135 609 134
1142 2 2 0 0 128 618 122
1143 2 2 0 0 378 681 310
1144 2 2 0 0 230 690 211
1145 2 2 0 0 210 690 232
1146 2 2 0 0 549 643 553
1147 2 2 0 0 233 661 247
1148 2 2 0 0 10 624 11
1149 2 2 0 0 640 709 435
1150 2 2 0 0 449 719 482
1151 2 2 0 0 452 726 33
1152 2 2 0 0 362 577 280
1153 2 2 0 0 318 575 433
1154 2 2 0 0 492 687 396
1155 2 2 0 0 586 734 293
1156 2 2 0 0 357 655 618
1157 2 2 0 0 277 567 259
1158 2 2 0 0 522 641 225
1159 2 2 0 0 511 640 281
1160 2 2 0 0 247 661 483
1161 2 2 0 0 610 693 39
1162 2 2 0 0 272 569 326
1163 2 2 0 0 490 695 70
1164 2 2 0 0 553 643 599
1165 2 2 0 0 532 629 284
1166 2 2 0 0 29 712 17
1167 2 2 0 0 632 665 117
1168 2 2 0 0 618 655 386
1169 2 2 0 0 241 699 576
1170 2 2 0 0 457 728 561
1171 2 2 0 0 485 572 456
1172 2 2 0 0 430 667 621
1173 2 2 0 0 582 672 458
1174 2 2 0 0 395 687 540
1175 2 2 0 0 504 594 44
1176 2 2 0 0 181 713 207
1177 2 2 0 0 197 707 184
1178 2 2 0 0 524 657 556
1179 2 2 0 0 475 536 498
1180 2 2 0 0 394 738 320
1181 2 2 0 0 51 714 561
1182 2 2 0 0 151 556 153
1183 2 2 0 0 437 693 610
1184 2 2 0 0 361 626 568
1185 2 2 0 0 611 679 5
1186 2 2 0 0 231 680 643
1187 2 2 0 0 462 706 118
1188 2 2 0 0 390 670 496
1189 2 2 0 0 602 642 601
1190 2 2 0 0 49 330 48
1191 2 2 0 0 391 665 632
1192 2 2 0 0 508 737 375
1193 2 2 0 0 450 650 552
1194 2 2 0 0 368 732 476
1195 2 2 0 0 578 579 235
1196 2 2 0 0 402 581 308
1197 2 2 0 0 43 486 41
1198 2 2 0 0 562 713 179
1199 2 2 0 0 592 632 480
1200 2 2 0 0 416 641 522
1201 2 2 0 0 372 668 371
1202 2 2 0 0 452 712 439
1203 2 2 0 0 282 720 455
1204 2 2 0 0 556 657 176
1205 2 2 0 0 364 632 592
1206 2 2 0 0 403 726 452
1207 2 2 0 0 465 654 623
1208 2 2 0 0 278 649 105
1209 2 2 0 0 154 652 617
1210 2 2 0 0 383 688 603
1211 2 2 0 0 451 719 447
1212 2 2 0 0 317 709 640
1213 2 2 0 0 604 711 642
1214 2 2 0 0 382 652 383
1215 2 2 0 0 601 642 389
1216 2 2 0 0 284 671 316
1217 2 2 0 0 599 643 402
1218 2 2 0 0 388 633 624
1219 2 2 0 0 267 678 311
1220 2 2 0 0 337 681 530
1221 2 2 0 0 279 661 233
1222 2 2 0 0 605 738 394
1223 2 2 0 0 33 677 504
1224 2 2 0 0 386 655 387
1225 2 2 0 0 547 669 631
1226 2 2 0 0 562 731 479
1227 2 2 0 0 360 648 595
1228 2 2 0 0 432 692 657
1229 2 2 0 0 367 657 524
1230 2 2 0 0 633 695 488
1231 2 2 0 0 415 473 341
1232 2 2 0 0 644 672 336
1233 2 2 0 0 551 633 388
1234 2 2 0 0 533 648 360
1235 2 2 0 0 407 679 611
1236 2 2 0 0 323 635 615
1237 2 2 0 0 530 681 529
1238 2 2 0 0 393 651 394
1239 2 2 0 0 387 655 602
1240 2 2 0 0 238 703 574
1241 2 2 0 0 594 677 505
1242 2 2 0 0 559 692 560
1243 2 2 0 0 621 667 381
1244 2 2 0 0 405 674 376
1245 2 2 0 0 325 732 368
1246 2 2 0 0 623 654 517
1247 2 2 0 0 581 644 336
1248 2 2 0 0 346 648 533
1249 2 2 0 0 517 654 279
1250 2 2 0 0 477 705 481
1251 2 2 0 0 481 705 355
1252 2 2 0 0 561 728 57
1253 2 2 0 0 379 705 477
1254 2 2 0 0 617 652 382
1255 2 2 0 0 30 650 500
1256 2 2 0 0 376 674 385
1257 2 2 0 0 518 715 519
1258 2 2 0 0 474 667 430
1259 2 2 0 0 478 734 294
1260 2 2 0 0 624 633 28
1261 2 2 0 0 186 707 619
1262 2 2 0 0 64 663 475
1263 2 2 0 0 597 647 258
1264 2 2 0 0 377 738 605
1265 2 2 0 0 31 735 467
1266 2 2 0 0 27 718 458
1267 2 2 0 0 419 673 68
1268 2 2 0 0 616 722 393
1269 2 2 0 0 24 723 419
1270 2 2 0 0 397 638 48
1271 2 2 0 0 404 730 460
1272 2 2 0 0 91 676 472
1273 2 2 0 0 622 626 361
1274 2 2 0 0 7 656 32
1275 2 2 0 0 576 697 277
1276 2 2 0 0 471 691 650
1277 2 2 0 0 536 663 373
1278 2 2 0 0 484 691 471
1279 2 2 0 0 552 650 30
1280 2 2 0 0 311 678 600
1281 2 2 0 0 486 729 5
1282 2 2 0 0 418 673 666
1283 2 2 0 0 232 680 231
1284 2 2 0 0 5 679 4
1285 2 2 0 0 117 665 539
1286 2 2 0 0 384 702 616
1287 2 2 0 0 557 702 221
1288 2 2 0 0 87 675 85
1289 2 2 0 0 225 711 604
1290 2 2 0 0 505 677 571
1291 2 2 0 0 483 661 494
1292 2 2 0 0 263 565 375
1293 2 2 0 0 504 677 594
1294 2 2 0 0 582 718 399
1295 2 2 0 0 645 714 46
1296 2 2 0 0 534 708 392
1297 2 2 0 0 643 680 402
1298 2 2 0 0 18 712 452
1299 2 2 0 0 392 670 390
1300 2 2 0 0 221 702 603
1301 2 2 0 0 496 664 391
1302 2 2 0 0 606 710 118
1303 2 2 0 0 655 703 602
1304 2 2 0 0 608 676 91
1305 2 2 0 0 194 684 514
1306 2 2 0 0 541 671 378
1307 2 2 0 0 154 669 652
1308 2 2 0 0 399 718 639
1309 2 2 0 0 405 715 674
1310 2 2 0 0 33 726 677
1311 2 2 0 0 629 671 284
1312 2 2 0 0 468 735 495
1313 2 2 0 0 469 704 408
1314 2 2 0 0 427 745 479
1315 2 2 0 0 294 734 251
1316 2 2 0 0 461 705 379
1317 2 2 0 0 385 674 636
1318 2 2 0 0 657 692 176
1319 2 2 0 0 561 714 411
1320 2 2 0 0 631 669 154
1321 2 2 0 0 264 682 265
1322 2 2 0 0 43 638 486
1323 2 2 0 0 48 638 43
1324 2 2 0 0 194 744 684
1325 2 2 0 0 381 686 380
1326 2 2 0 0 658 716 589
1327 2 2 0 0 263 567 565
1328 2 2 0 0 310 681 337
1329 2 2 0 0 493 685 492
1330 2 2 0 0 64 685 663
1331 2 2 0 0 309 678 267
1332 2 2 0 0 600 678 431
1333 2 2 0 0 538 694 333
1334 2 2 0 0 598 685 64
1335 2 2 0 0 551 695 633
1336 2 2 0 0 560 699 241
1337 2 2 0 0 211 690 210
1338 2 2 0 0 2 723 3
1339 2 2 0 0 630 708 441
1340 2 2 0 0 467 735 468
1341 2 2 0 0 396 687 395
1342 2 2 0 0 35 507 22
1343 2 2 0 0 259 567 263
1344 2 2 0 0 417 673 418
1345 2 2 0 0 614 686 197
1346 2 2 0 0 392 708 630
1347 2 2 0 0 5 729 6
1348 2 2 0 0 279 725 661
1349 2 2 0 0 6 729 26
1350 2 2 0 0 357 703 655
1351 2 2 0 0 514 684 635
1352 2 2 0 0 540 733 538
1353 2 2 0 0 374 741 593
1354 2 2 0 0 176 692 559
1355 2 2 0 0 650 691 500
1356 2 2 0 0 484 736 691
1357 2 2 0 0 83 733 540
1358 2 2 0 0 558 740 372
1359 2 2 0 0 626 697 555
1360 2 2 0 0 436 693 437
1361 2 2 0 0 375 737 374
1362 2 2 0 0 475 663 536
1363 2 2 0 0 636 674 198
1364 2 2 0 0 674 715 198
1365 2 2 0 0 70 695 551
1366 2 2 0 0 406 721 407
1367 2 2 0 0 677 726 571
1368 2 2 0 0 258 647 627
1369 2 2 0 0 448 701 451
1370 2 2 0 0 458 672 506
1371 2 2 0 0 229 700 570
1372 2 2 0 0 684 744 428
1373 2 2 0 0 570 700 544
1374 2 2 0 0 678 742 431
1375 2 2 0 0 646 741 314
1376 2 2 0 0 603 702 384
1377 2 2 0 0 478 731 293
1378 2 2 0 0 309 742 678
1379 2 2 0 0 380 686 614
1380 2 2 0 0 494 725 468
1381 2 2 0 0 500 691 38
1382 2 2 0 0 635 684 615
1383 2 2 0 0 661 725 494
1384 2 2 0 0 679 721 34
1385 2 2 0 0 509 510 35
1386 2 2 0 0 46 714 51
1387 2 2 0 0 615 684 428
1388 2 2 0 0 432 742 689
1389 2 2 0 0 179 713 181
1390 2 2 0 0 26 739 645
1391 2 2 0 0 35 510 507
1392 2 2 0 0 574 703 357
1393 2 2 0 0 184 707 186
1394 2 2 0 0 39 693 612
1395 2 2 0 0 665 694 539
1396 2 2 0 0 312 708 534
1397 2 2 0 0 554 689 309
1398 2 2 0 0 1 737 508
1399 2 2 0 0 519 717 520
1400 2 2 0 0 277 697 622
1401 2 2 0 0 389 711 641
1402 2 2 0 0 495 736 484
1403 2 2 0 0 17 712 18
1404 2 2 0 0 212 722 557
1405 2 2 0 0 455 720 438
1406 2 2 0 0 622 697 626
1407 2 2 0 0 664 694 665
1408 2 2 0 0 447 719 449
1409 2 2 0 0 669 688 652
1410 2 2 0 0 612 693 436
1411 2 2 0 0 619 744 194
1412 2 2 0 0 57 728 59
1413 2 2 0 0 579 658 583
1414 2 2 0 0 438 727 525
1415 2 2 0 0 539 733 83
1416 2 2 0 0 479 731 478
1417 2 2 0 0 691 736 38
1418 2 2 0 0 401 724 400
1419 2 2 0 0 420 660 2
1420 2 2 0 0 328 732 325
1421 2 2 0 0 320 738 453
1422 2 2 0 0 428 744 429
1423 2 2 0 0 431 742 432
1424 2 2 0 0 425 745 427
1425 2 2 0 0 408 743 434
1426 2 2 0 0 571 726 403
1427 2 2 0 0 119 727 523
1428 2 2 0 0 625 706 462
1429 2 2 0 0 525 730 404
1430 2 2 0 0 499 736 495
1431 2 2 0 0 468 725 654
1432 2 2 0 0 336 672 582
1433 2 2 0 0 198 715 518
1434 2 2 0 0 400 724 706
1435 2 2 0 0 402 680 581
1436 2 2 0 0 589 716 659
1437 2 2 0 0 727 730 525
1438 2 2 0 0 664 665 391
1439 2 2 0 0 337 740 558
1440 2 2 0 0 293 731 562
1441 2 2 0 0 523 720 282
1442 2 2 0 0 460 730 119
1443 2 2 0 0 641 711 225
1444 2 2 0 0 429 744 619
1445 2 2 0 0 119 730 727
1446 2 2 0 0 651 722 212
1447 2 2 0 0 38 736 499
1448 2 2 0 0 667 686 381
1449 2 2 0 0 652 688 383
1450 2 2 0 0 410 710 606
1451 2 2 0 0 644 701 448
1452 2 2 0 0 666 673 419
1453 2 2 0 0 704 743 408
1454 2 2 0 0 251 734 586
1455 2 2 0 0 400 706 625
1456 2 2 0 0 546 688 669
1457 2 2 0 0 668 700 229
1458 2 2 0 0 538 733 694
1459 2 2 0 0 333 694 664
1460 2 2 0 0 565 662 375
1461 2 2 0 0 720 727 438
1462 2 2 0 0 372 700 668
1463 2 2 0 0 579 716 658
1464 2 2 0 0 642 711 389
1465 2 2 0 0 355 705 461
1466 2 2 0 0 407 721 679
1467 2 2 0 0 523 727 720
1468 2 2 0 0 654 725 279
1469 2 2 0 0 639 718 27
1470 2 2 0 0 694 733 539
1471 2 2 0 0 393 722 651
1472 2 2 0 0 645 739 397
1473 2 2 0 0 683 741 374
1474 2 2 0 0 397 739 638
1475 2 2 0 0 653 716 579
1476 2 2 0 0 666 723 660
1477 2 2 0 0 419 723 666
1478 2 2 0 0 374 737 683
1479 2 2 0 0 593 741 646
1480 2 2 0 0 683 737 1
1481 2 2 0 0 689 742 309
1482 2 2 0 0 660 723 2
1483 2 2 0 0 23 25 1
1484 2 2 0 0 25 607 1
1485 2 2 0 0 3 34 2
1486 2 2 0 0 34 415 2
$EndElements
