$MeshFormat
2.2 0 8
$EndMeshFormat
$Nodes
745
1 5.6124886611776307e-06 7.7838386608560106e-06 1.0036074598954276e-03
2 1.0943180535888629e-05 -8.6171092174091499e-06 -1.0022728901021569e-03
3 1.3857951847692559e-04 1.0714441320419653e-05 -9.9046119965902216e-04
4 2.6957305996702381e-04 5.8103496534994196e-06 -9.6522243777652701e-04
5 4.0462872543705963e-04 8.9099620716778072e-06 -9.1721140909814644e-04
6 5.3129347865237832e-04 2.3659295789237716e-06 -8.4879897226871996e-04
7 6.4383976862464473e-04 3.3337944596628228e-06 -7.6667980059319724e-04
8 7.4659971954918296e-04 3.0712871429495590e-06 -6.6685557968008383e-04
9 8.3417111297326245e-04 2.6353779869173174e-06 -5.5231101864833927e-04
10 9.0463646302353347e-04 2.4887557743635826e-06 -4.2580582333141907e-04
11 9.5618250189431157e-04 3.2623876976754902e-06 -2.8994086411647079e-04
12 9.8788511653431408e-04 3.2982668111214093e-06 -1.4753405000018531e-04
13 9.9853397845783062e-04 2.8948466547188212e-06 -1.8092984193198763e-06
14 9.8810451593976428e-04 3.9337493331955734e-06 1.4448056397073486e-04
15 9.5706672366485093e-04 3.5524497422053046e-06 2.8686715570379502e-04
16 9.0571827174888448e-04 3.6170990040427085e-06 4.2338627290967185e-04
17 8.3557674921677508e-04 2.2254209834784350e-06 5.4953911466892348e-04
18 7.4793336783413814e-04 1.7713596541027581e-06 6.6493027524214341e-04
19 6.4607822483832766e-04 3.2909198771980144e-06 7.6531501410358963e-04
20 5.3098917833125248e-04 3.1390200155412530e-06 8.4952978984179149e-04
21 4.0593489998871180e-04 3.6372251445603913e-06 9.1625808205701340e-04
22 2.7285714178605912e-04 3.7405741027487844e-06 9.6456181713536942e-04
23 1.4014051938922924e-04 -1.0733721184672031e-06 9.9174898381556263e-04
24 1.4885354843713431e-04 1.4615921210232760e-04 -9.8021298637272726e-04
25 1.6693699233656190e-04 1.1797021157087522e-04 9.8264194500130618e-04
26 5.7686264058612671e-04 1.3256113541799323e-04 -8.0708860388132209e-04
27 5.8549865744789273e-04 -1.2112641655510946e-04 8.0383697608919324e-04
28 9.6595861861533945e-04 1.3474164829225827e-04 -2.1650342703315910e-04
29 8.6337121536274233e-04 1.3807750690387010e-04 4.8718674450435494e-04
30 9.2825525827022639e-04 -1.1921318314143690e-04 3.5134539671248478e-04
31 9.6446319858572527e-04 -1.1979197571891372e-04 -2.3104819613600284e-04
32 5.7860049208363813e-04 -1.2274896729689433e-04 -8.0822215429843486e-04
33 5.8510519644772987e-04 1.2479146628295928e-04 8.0361035676196433e-04
34 1.9344190765181049e-04 -1.1340325862909370e-04 -9.7787396597700301e-04
35 2.0328739988647085e-04 -1.1672928153434533e-04 9.7468557798551815e-04
36 7.8849564335604254e-04 -1.2401207672857079e-04 6.0312038303422647e-04
37 7.8695773723208259e-04 1.3144755664219558e-04 -6.0358907987301518e-04
38 9.8965895382058418e-04 -1.1471523541599661e-04 7.0640246416745828e-05
39 9.6710684976679710e-04 1.2829315260552397e-04 2.1397079132911350e-04
40 8.5986251431289737e-04 -1.3207244953296590e-04 -4.9350728959418209e-04
41 2.9335705439018263e-04 1.4671970687321165e-04 -9.4611989948623478e-04
42 2.2147243779982917e-04 2.6886464864426943e-04 -9.3919174708613615e-04
43 3.5022183176957450e-04 2.6480523145989255e-04 -8.9955535782565552e-04
44 3.3604516435417994e-04 1.2507340819506758e-04 9.3618906306717380e-04
45 6.8430941929036818e-04 1.3223423305384549e-04 -7.1837563524637421e-04
46 7.2182984139620868e-04 2.5206847663763256e-04 -6.4488117239452469e-04
47 2.8879874076736899e-04 3.8216483907504707e-04 -8.7922145391858199e-04
48 4.1582592064527013e-04 3.6976178147743368e-04 -8.3188285780412855e-04
49 3.5209671154601860e-04 4.8189041109206486e-04 -8.0310014131366049e-04
50 8.0974925499271598e-04 2.4977377010647843e-04 -5.3104169249891455e-04
51 7.4332308907651000e-04 3.6928203982630579e-04 -5.5763555154319979e-04
52 8.1898722999199970e-04 3.6552685269962003e-04 -4.4160026766146840e-04
53 7.3803283790458329e-04 4.8290044938958850e-04 -4.7088896773954853e-04
54 8.0865843895259733e-04 4.7268008733200812e-04 -3.4733310054683395e-04
55 7.2002128112758610e-04 5.8565695975288810e-04 -3.6988622067757305e-04
56 7.8284541707816259e-04 5.7099535855984461e-04 -2.4125659336782332e-04
57 6.4448723876614023e-04 5.9293418492660261e-04 -4.8151389934464090e-04
58 6.1578252817446049e-04 6.8738741762226329e-04 -3.8236216741290778e-04
59 5.3323878670242825e-04 6.8825941917089015e-04 -4.9090062558765357e-04
60 4.9860584376490793e-04 7.7407588289663811e-04 -3.8758707987914101e-04
61 4.0828631989134762e-04 7.6149639336583563e-04 -5.0278600987940781e-04
62 3.7139132780093711e-04 8.4329070925590684e-04 -3.8548659435891868e-04
63 2.1673820928496076e-04 4.9607491445098151e-04 -8.4188066399277009e-04
64 4.5589334843633796e-04 8.4464662091171224e-04 -2.7506127928137700e-04
65 2.7516200521837523e-04 8.2284667916110671e-04 -4.9621136948602010e-04
66 2.3733165861161674e-04 8.9541670204495571e-04 -3.7313195801901082e-04
67 1.3769063457117096e-04 8.6715830744846787e-04 -4.7753169290465857e-04
68 8.4333832746572173e-05 2.8540041641438637e-04 -9.5628629242531149e-04
69 1.5011158822912592e-04 7.8352313955304701e-04 -6.0432727496813766e-04
70 8.6094274815425487e-04 4.5648428984607114e-04 -2.1777673513614395e-04
71 8.3036540839023982e-04 5.4418395771664422e-04 -1.0698923320170808e-04
72 7.4027617036170348e-04 6.5679407599858334e-04 -1.3261358568040566e-04
73 7.7968623625960316e-04 6.2392138913806622e-04 3.5233995302973897e-06
74 6.8124943778243648e-04 7.2961524644092688e-04 -2.1637931063967071e-05
75 7.1185789602520779e-04 6.9038724677301575e-04 1.1459420559342195e-04
76 6.0711367493768327e-04 7.8771374679477185e-04 8.9185670692072634e-05
77 6.3055623655994091e-04 7.4106207792049711e-04 2.2413433678285103e-04
78 5.1896528465475336e-04 8.3029046896361688e-04 1.9657068295370682e-04
79 9.6029935369283938e-05 9.3151589816854242e-04 -3.4739650244559693e-04
80 -1.2066213263936634e-05 8.9674854657856491e-04 -4.4026484962128825e-04
81 2.5979056546947439e-04 2.5192632947901528e-04 9.3473212448340857e-04
82 5.3722945989829020e-04 7.7548699785603601e-04 3.2861749197542325e-04
83 -4.2663567460648452e-05 9.4723825880138352e-04 -3.1353279661742837e-04
84 4.1831514782332796e-04 8.5729110294119196e-04 2.9606671646243495e-04
85 4.3125991190166082e-04 7.9611505856242359e-04 4.2302440435477344e-04
86 3.0912676192782753e-04 8.6635181323857036e-04 3.8979118513257226e-04
87 3.1839912970435481e-04 7.9696402101443102e-04 5.1248379536747543e-04
88 1.9451940748715173e-04 8.5405145131252553e-04 4.8177279992257663e-04
89 1.6776767987087578e-04 9.2046542591647958e-04 3.5045958792063092e-04
90 4.8441711029289407e-05 8.9681800942274152e-04 4.3775005218244618e-04
91 7.1472672917076630e-05 8.2446632214000861e-04 5.6050518433543352e-04
92 -6.4948856626046805e-05 8.5150117688566232e-04 5.1897279570342961e-04
93 -9.6608268215369965e-05 9.1275539068357578e-04 3.9368179158594930e-04
94 -2.0205832495159997e-04 8.5679173975826764e-04 4.7301445485458158e-04
95 -1.6824976063300491e-04 8.0499575462671048e-04 5.6679892240706021e-04
96 -2.3192354813116617e-04 9.0885493487107200e-04 3.4253747871080918e-04
97 1.0853960573108466e-04 2.5282056504189441e-04 9.6362922954183750e-04
98 5.4631648131383951e-04 6.9998926942061552e-04 4.6105837914756992e-04
99 1.7313391955634582e-04 3.6221919590347573e-04 9.1802914744781752e-04
100 3.3016810427249801e-05 3.6317578175017775e-04 9.3329680278146621e-04
101 -3.4426032958414093e-05 2.4593702518550407e-04 9.7112321139673958e-04
102 -1.0725859957225259e-04 3.5836535432126539e-04 9.2991528179743621e-04
103 2.0107120355772348e-04 9.4812333539525675e-04 -2.4041891521150042e-04
104 -1.2516586194947444e-04 9.5645979131124906e-04 2.5773007416795510e-04
105 -2.5866040877915155e-04 9.4203285271555635e-04 2.0501215517688243e-04
106 -3.6096405720974526e-04 8.8532290562755951e-04 2.8690599301900118e-04
107 -1.5324868214547870e-04 9.0650571639307046e-04 -3.9061318925903460e-04
108 -1.2631907614982452e-04 8.4656041534905799e-04 -5.1606017882140033e-04
109 -3.7760041301255955e-04 9.1207835908570635e-04 1.4678781641548605e-04
110 -2.6428419624192949e-04 8.4533625805158729e-04 -4.6320915051454556e-04
111 -2.4030074198612262e-04 7.7395879123977600e-04 -5.8572830841649849e-04
112 -3.6950923595039737e-04 7.6465332333904652e-04 -5.2706526628515382e-04
113 -3.4002257865446196e-04 6.8694864109762740e-04 -6.4254469882950944e-04
114 -4.6500225620934953e-04 6.6969213129818776e-04 -5.7836761542518660e-04
115 -4.2963569084132885e-04 5.8509723746052631e-04 -6.8827708965811497e-04
116 -4.9155380945989499e-04 7.4017700056062214e-04 -4.5615099148078018e-04
117 -2.8333682944809796e-04 8.9703313049579309e-04 -3.3462118484935268e-04
118 -3.0414513375619186e-04 7.8466995371486933e-04 5.4024033399874077e-04
119 7.2566245101239526e-04 6.4057696754928951e-04 2.4412927619751223e-04
120 -3.0068447685607222e-04 5.9480152727210667e-04 -7.4662944301305025e-04
121 -3.8671729429526575e-04 4.8864474381289072e-04 -7.8330559705664261e-04
122 -5.1164100522656665e-04 4.7259245136116094e-04 -7.1842351815586103e-04
123 -4.6363151996012161e-04 3.7207044755278157e-04 -8.0578244546355136e-04
124 -5.8234404362976218e-04 6.3832966518288759e-04 -5.0170292245910522e-04
125 -6.0375008552812799e-04 7.0170720413494005e-04 -3.7397502846706803e-04
126 -6.8907844593427310e-04 5.9236591557468657e-04 -4.1463944961695663e-04
127 -4.8269264164712026e-04 8.4334318225401026e-04 2.2779195186648890e-04
128 -5.8352799889876646e-04 3.5072727936749035e-04 -7.3337696188721581e-04
129 -5.3000199283587774e-04 2.4704524612870291e-04 -8.1321647136237281e-04
130 -6.4376584706238380e-04 2.2192399852543571e-04 -7.3295615958483070e-04
131 -5.8355055219276521e-04 1.1632974102214578e-04 -8.0569650610207405e-04
132 -6.9160094762641669e-04 8.8665787049642289e-05 -7.1740774041494245e-04
133 -6.2400506419229423e-04 -1.7633755484237441e-05 -7.8291598607351778e-04
134 -7.2956566613657911e-04 -4.6651453845987604e-05 -6.8286456094278055e-04
135 -6.5156690740609288e-04 -1.5188422531813668e-04 -7.4458808181315035e-04
136 -7.8900765629570245e-04 6.0494413887119680e-05 -6.1128801216928628e-04
137 -8.1614028546484558e-04 -8.0908308505876192e-05 -5.7186939977875689e-04
138 -8.6863933503778890e-04 3.0782247797391036e-05 -4.9353286627329407e-04
139 -8.8758239190855621e-04 -1.0636416411311749e-04 -4.4663873530938279e-04
140 -9.2887737854384161e-04 4.4841323508248490e-06 -3.6637870087906669e-04
141 -9.3851110347829641e-04 -1.3013604614240873e-04 -3.1612736924522850e-04
142 -9.7122645932576650e-04 -1.7908237779713957e-05 -2.3019241598819216e-04
143 -9.7107926575953484e-04 -1.5146910414008444e-04 -1.7599915830067057e-04
144 -9.9384878377997265e-04 -3.8252002775829262e-05 -8.8072102277293886e-05
145 -9.8274821942338450e-04 -1.7223028929449707e-04 -3.2782401358175535e-05
146 -9.9523289460540796e-04 -5.7124467222412381e-05 5.5199308705659510e-05
147 -9.7400867633660895e-04 -1.8945834651557558e-04 1.1107361833635167e-04
148 -9.5089678897171794e-04 -3.0297917691404975e-04 2.2467622032481377e-05
149 -9.3180952896239615e-04 -3.1786472617082313e-04 1.6650318387229207e-04
150 -9.4469589162989465e-04 -2.0206600896674864e-04 2.5341963709813662e-04
151 -8.9308979461739848e-04 -3.2625369658255356e-04 3.0622267004919943e-04
152 -8.9628406119059893e-04 -2.0859861183819729e-04 3.8927783796739875e-04
153 -8.3470380740998317e-04 -3.2998728542149754e-04 4.3929739525120525e-04
154 -8.8724560481452067e-04 -2.3717679852696503e-04 -3.9285657508209324e-04
155 -8.2904880082248600e-04 -2.0942800277790573e-04 5.1837876008654416e-04
156 -7.5907386049382797e-04 -3.2747003173899360e-04 5.6240738625864205e-04
157 -8.8063545971534549e-04 -8.4809708883016056e-05 4.6544541776181601e-04
158 -7.4522236793394387e-04 -2.0474783907421860e-04 6.3529906128501664e-04
159 -6.6911564046971076e-04 -3.1967641019698881e-04 6.7174025361205951e-04
160 -9.9529644668922565e-04 7.7349544259794819e-05 -4.6384518955071327e-07
161 -6.4904391452338115e-04 -1.9560538009933686e-04 7.3626142144909794e-04
162 -5.6315206635021626e-04 -3.0576718819113859e-04 7.6961221518566099e-04
163 -5.4234571046558769e-04 -1.2202346986474127e-04 -8.3342261252822129e-04
164 -5.6186625648027154e-04 -2.5497788177905698e-04 -7.8874168676330055e-04
165 -7.0427993703601869e-04 6.4868041709478688e-04 -2.8262982464126240e-04
166 -1.7354093901088692e-04 2.3798955182030221e-04 9.5815133128270599e-04
167 -2.4545215783049011e-04 3.4752223305558916e-04 9.0741431415852813e-04
168 -4.4883203348540935e-04 -2.2206027509416668e-04 -8.6790361263432072e-04
169 -4.6234549527488048e-04 -3.5270697803922941e-04 -8.1545940575349031e-04
170 -5.7036262116833556e-04 -3.8321225278268570e-04 -7.2778764104593121e-04
171 -4.6477608345677797e-04 -4.7752879358834734e-04 -7.4730377961180941e-04
172 -5.6823789645800795e-04 -5.0432979611768044e-04 -6.5098506138871939e-04
173 -4.5622661545519273e-04 -5.9377401887309562e-04 -6.6452100602668669e-04
174 -5.5419357463662574e-04 -6.1513377298114840e-04 -5.6070036737132110e-04
175 -4.3674879703999768e-04 -6.9852786559928789e-04 -5.6755763556759508e-04
176 -7.5807008324763926e-04 -4.4154210762137406e-04 4.7916966903861741e-04
177 -5.2959177408478590e-04 -7.1269749253468804e-04 -4.5771189959654447e-04
178 -4.0675111570037979e-04 -7.8930362613783124e-04 -4.5899409367620270e-04
179 -3.1281870376927877e-04 -7.7222422495615544e-04 -5.5340377294161094e-04
180 -2.7436066629938570e-04 -8.5116838642445246e-04 -4.4630427463102047e-04
181 -1.7573483560007929e-04 -8.2434102030074603e-04 -5.3842037129926299e-04
182 -1.3583764214943685e-04 -8.9332309829071228e-04 -4.2679710498556514e-04
183 -3.5438251504023311e-05 -8.5023462256590568e-04 -5.2584192410152662e-04
184 2.7115276112979024e-06 -9.1419031805476325e-04 -4.0408267819741581e-04
185 -9.5951889443583309e-05 -9.4699907892045819e-04 -3.0243162009256717e-04
186 3.8589991235421434e-05 -9.6126997503352056e-04 -2.6925918528910420e-04
187 -5.5004685117267549e-05 -9.8299181279123114e-04 -1.6779820520533496e-04
188 8.5528379828354246e-05 -9.8619386074310094e-04 -1.3409280184095045e-04
189 -1.2637764947596808e-05 -9.9816717287113071e-04 -2.9694023797316227e-05
190 1.2798771816646687e-04 -9.9065144497102698e-04 5.2707871827460894e-06
191 2.8632959525556283e-05 -9.9249229012307529e-04 1.0900632241267455e-04
192 1.6832258547899359e-04 -9.7408117443336295e-04 1.4435785171804059e-04
193 6.6433203861535867e-05 -9.6553853810619117e-04 2.4877770487656558e-04
194 2.1616261623371821e-04 -9.7077273298245095e-04 -9.3265988557365736e-05
195 2.0586199676384941e-04 -9.3664444422176239e-04 2.8085860547123179e-04
196 1.0275573346830919e-04 -9.1842900728748389e-04 3.8130984905430866e-04
197 1.1264638810816020e-04 -8.6915230676921093e-04 -4.8244524723228832e-04
198 -1.0517315395058463e-04 -9.9044615756659397e-04 7.1543978782580650e-05
199 2.3930810056417014e-04 -8.7948785716463265e-04 4.1134548896290703e-04
200 3.4151344839052663e-04 -8.8806931608986035e-04 3.0638176562926853e-04
201 3.7076607089591779e-04 -8.2157815413484779e-04 4.3307554647011948e-04
202 1.3395236042064920e-04 -8.5213068152536445e-04 5.0686217176118423e-04
203 4.6892060227631709e-04 -8.2060416647357077e-04 3.2532011879850763e-04
204 -4.2910020595373450e-06 -8.8049455763939462e-04 4.7431830736485931e-04
205 2.7445480663610743e-05 -8.0498620318728389e-04 5.9412680534762284e-04
206 -8.9857705131739783e-04 -4.2807094663788241e-04 7.7044398302636522e-05
207 -7.4126332528235485e-05 -7.6671137628598306e-04 -6.3953324499745512e-04
208 -1.1064866535423353e-04 -8.2449512948597171e-04 5.5582549608632450e-04
209 -7.7901675844126077e-05 -7.4087687102070718e-04 6.6897943021775909e-04
210 4.9184973297045423e-04 -7.4966007617932714e-04 4.4300551857147185e-04
211 5.8399506900267556e-04 -7.4012882358341116e-04 3.3123157984549256e-04
212 -5.0199370651999144e-04 -7.9064920830393827e-04 -3.4762856595511784e-04
213 5.9409658718589976e-05 -7.1315241980519505e-04 7.0057246889747803e-04
214 -4.4989676947601435e-05 -6.4218707379363213e-04 7.6764562161945390e-04
215 -3.4529089948244550e-04 -3.1596246812978177e-04 -8.8583797759656695e-04
216 -2.1468713856636137e-04 -7.5189894865690095e-04 6.2511831307625494e-04
217 -2.4627286999933588e-04 -8.2703941444985747e-04 5.0558048114912103e-04
218 5.5703441398352669e-04 -8.0279719392862691e-04 2.0891018729629992e-04
219 6.7297791897329780e-04 -7.0466015829793625e-04 2.2063288245003751e-04
220 6.3368475438736413e-04 -7.6701896783378637e-04 8.9865489754009030e-05
221 -6.4117568950892230e-04 -6.2341281511805536e-04 -4.4568510703997050e-04
222 7.4275225416689484e-04 -6.6050067191340941e-04 1.0087220309608111e-04
223 6.9490529875694085e-04 -7.1669068445095292e-04 -3.2217945328243439e-05
224 -3.2808447516706512e-04 -1.8362323399854054e-04 -9.2886516445900844e-04
225 -9.5314177638976857e-04 1.1010795960180192e-04 -2.7443305518506169e-04
226 9.1081548363321281e-05 -6.0714753499810934e-04 7.9159724623865154e-04
227 -1.3101876663581569e-05 -5.3057854033473895e-04 8.5025945817293017e-04
228 -5.3853077092891007e-04 -1.7925313565287710e-04 8.2526226187792657e-04
229 -6.2273821592629828e-04 -7.4675124154095979e-05 7.7999986336290317e-04
230 6.7737600591304343e-04 -6.4373185230544598e-04 3.5458200184943032e-04
231 3.9350821755837847e-04 -7.4210154667534443e-04 5.4347903875750993e-04
232 5.1097380636367328e-04 -6.5538735995596716e-04 5.5923230160886668e-04
233 7.9042634630719147e-04 -6.0949038990293272e-04 -2.6917984940567033e-05
234 7.3904753488569005e-04 -6.5352240381177159e-04 -1.5599876055343853e-04
235 -4.0998391326949794e-04 2.6672354541949409e-04 -8.7392450966999598e-04
236 3.1434446722692684e-04 3.5957186516180964e-04 8.8091487271321409e-04
237 -4.4794079758069791e-04 -2.8700707285872430e-04 8.4910244520370270e-04
238 -8.3599735599439390e-04 1.8916698824991335e-04 -5.1613511039462381e-04
239 6.3465929248284749e-04 -7.5442900575963510e-04 -1.6172896500950298e-04
240 6.7286756824099371e-04 -6.8249026293697472e-04 -2.8287198245283124e-04
241 -5.7835139124374211e-04 -4.2721512155126151e-04 6.9650403320138546e-04
242 5.6093464410690076e-04 -7.7582134384686201e-04 -2.8659027291875729e-04
243 5.9307875455139817e-04 -6.9594492411738460e-04 -4.0422185328287705e-04
244 6.9763461626869312e-04 -5.9561854010427490e-04 -3.9736309766709731e-04
245 6.1127853720366299e-04 -6.0246151573189772e-04 -5.1380327095969431e-04
246 -2.2166654966556673e-04 -2.7433940411865419e-04 -9.3807775635732654e-04
247 8.3313080519697427e-04 -5.4250309973895901e-04 9.7848965291573564e-05
248 2.3416309069068900e-04 4.7055664795588498e-04 8.5262979672964248e-04
249 -4.1615876180804999e-04 -1.5712528160809872e-04 8.9825625939758506e-04
250 3.7031767111550036e-04 4.6161799186162592e-04 8.0811557642505080e-04
251 -2.3561078769464389e-04 -4.0257921253309672e-04 -8.8683545545578018e-04
252 -1.0859232481700495e-04 -3.5945109583193321e-04 -9.2964758401687590e-04
253 3.9347059463393030e-04 9.0311055029012428e-04 1.6340837825563084e-04
254 -6.1174127926538454e-04 7.5173592597879842e-04 -2.3845998204437421e-04
255 -7.0495506961510313e-04 6.9155166100396054e-04 -1.4517109524018627e-04
256 -7.8997794846535907e-04 5.8073368901666355e-04 -1.8712268922684689e-04
257 -7.8267623175562516e-04 6.1699859551203758e-04 -4.7412103553507945e-05
258 -3.9721695005317208e-05 4.7236736565850143e-04 8.8249476775935332e-04
259 -3.2744570258583288e-04 -2.6377763292642230e-04 9.0989436394107168e-04
260 -3.0914520250930553e-04 2.2382116101447695e-04 9.2648604535097484e-04
261 -3.7901547936027274e-04 3.3029652229025965e-04 8.6622303538262137e-04
262 -2.8864732070858485e-04 -1.3193565418331599e-04 9.5076927908198069e-04
263 -1.9273413942718054e-04 -2.3295400636257798e-04 9.5580029294221511e-04
264 -8.5708011719180799e-04 5.0301704207109132e-04 -8.9941226955460473e-05
265 -8.4229611734092460e-04 5.3196740312806017e-04 5.6876342545825413e-05
266 -3.4820859096469989e-04 -7.4594762209796055e-04 5.6845551591915293e-04
267 -3.7326846946530838e-04 -8.1301916206988681e-04 4.4505902248161106e-04
268 5.0237801996086374e-04 -6.9547909015093602e-04 -5.1467149301320293e-04
269 5.1302357116834779e-04 -5.9579366893343084e-04 -6.1967664077591713e-04
270 6.1778702351698877e-04 -4.9702738056409254e-04 -6.1086648373463053e-04
271 5.1327750779479615e-04 -4.8450749311200095e-04 -7.1074707827843903e-04
272 4.0411571549795448e-04 -5.7733434048149173e-04 -7.1185501083162179e-04
273 -3.1159658944947808e-04 4.5104114581480609e-04 8.3798921215757615e-04
274 -4.4246860426362005e-04 4.3004210527238732e-04 7.8837005804645603e-04
275 4.0016397974414501e-04 -4.6113958022069360e-04 -7.9479524111458289e-04
276 2.8739492683631056e-04 -5.4775667025104969e-04 -7.8842826591761549e-04
277 -3.5304811643488253e-04 -3.8477156617825110e-04 8.5497502175391703e-04
278 -1.4765926244728617e-04 9.7985722664085191e-04 1.1850177642286138e-04
279 8.2186389415782150e-04 -5.4720980650030989e-04 -1.5070728452608938e-04
280 -2.5528666143563285e-04 4.9475233748258625e-04 -8.3215989487702129e-04
281 -1.6471459005102236e-04 5.9403148829654184e-04 -7.8900235264722253e-04
282 8.6700018233911173e-04 4.9630808767134685e-04 3.2329002965876359e-05
283 1.2178001124224843e-04 -4.8984168486673708e-04 8.6580372215126864e-04
284 -9.8682960347083932e-04 5.5533048452665537e-05 1.3908665849131669e-04
285 -9.0801908105397466e-04 -4.0947967700590530e-04 -6.6975298013245254e-05
286 -8.4591208694765880e-04 -5.2999688463986627e-04 -1.3149115690470542e-05
287 -8.2787388707852253e-04 -5.4266770818888063e-04 1.3033656634443437e-04
288 -7.6598762347356508e-04 -6.3931206684259641e-04 3.9550715248224532e-05
289 -7.3936553167739674e-04 -6.4624329650899912e-04 1.8260134620948321e-04
290 -6.6855851347505022e-04 -7.3572221881367851e-04 9.1582746565213734e-05
291 -1.9556493008184700e-04 -9.5947842183770479e-04 -1.9751356637581603e-04
292 -2.7184537118238317e-04 -8.8575815961350400e-04 3.7496755349492733e-04
293 -3.4481340587450254e-04 -5.5955805103150436e-04 -7.5538928676335078e-04
294 -1.1830437155184940e-04 -4.8792771183359004e-04 -8.6813901831202223e-04
295 -5.0563067810986966e-04 3.0473255681885957e-04 8.0853191547539561e-04
296 -5.6499716875858721e-04 4.0093004285453261e-04 7.2214844581395318e-04
297 -8.5786448413278384e-04 4.5777630129386943e-04 -2.2622749315824372e-04
298 -6.2351790885163162e-04 2.7124499870612113e-04 7.3469408698513506e-04
299 -6.7660572336511915e-04 3.6448700780756014e-04 6.4049103318999381e-04
300 -6.1198798180277356e-04 4.9055938963334968e-04 6.2099212546709592e-04
301 -7.1736135458787460e-04 4.4931420301486032e-04 5.3223908301840064e-04
302 -7.7447488242569126e-04 3.1882532679868936e-04 5.4569007790355171e-04
303 -3.1305743994467411e-04 -6.6300847879356977e-04 6.8179803329705690e-04
304 -6.4441018255860299e-04 5.7284211096527880e-04 5.0595029848776838e-04
305 -8.0787617845984945e-04 3.9918379549740081e-04 4.3184928128495842e-04
306 2.2547575156991101e-04 -5.6016313925781949e-04 7.9920415266496387e-04
307 2.5355140650987516e-04 -4.3813027718458757e-04 8.6483406337374666e-04
308 3.5628224930210400e-04 -5.0326191011606451e-04 7.8949033120715763e-04
309 -4.6116641263067626e-04 -7.2557142001624417e-04 5.1068327083646139e-04
310 -8.5653882252651858e-04 2.6752116394620086e-04 4.4012838851233501e-04
311 -3.9686723543426938e-04 -8.6048803270470783e-04 3.1772639283321138e-04
312 -7.5980873555956329e-04 6.4067587499287855e-04 9.2867788010534202e-05
313 -8.4622802180346754e-04 -5.0612604241163353e-04 -1.5641697045296730e-04
314 -9.9153427150670457e-05 1.2175513143264804e-04 9.9051213218909109e-04
315 -8.8281625732235659e-04 3.4144192257580845e-04 3.2045543135351859e-04
316 -9.7596280252473138e-04 1.8728808247852843e-04 8.8679643198783455e-05
317 -1.0583750872592235e-04 7.7138144627137111e-04 -6.2733372775773644e-04
318 2.8251835128691811e-04 -4.2938129768599825e-04 -8.6029454523293351e-04
319 -6.8815352518181952e-04 -7.2181742303042940e-04 -5.2815370486350611e-05
320 -5.9086094696342263e-04 -8.0423999827945844e-04 1.0441228758471204e-06
321 -6.6788204478321919e-04 -4.0522612162824145e-04 -6.2474905558144577e-04
322 -9.4552649381387177e-05 -2.2603550543322338e-04 -9.7207959450083575e-04
323 5.1600391675722527e-04 -8.5160895912865682e-04 8.1502696066001868e-05
324 -6.0620969766477461e-04 7.8633201669876275e-04 -9.8519601821245247e-05
325 2.8974703683745553e-04 5.6987287858575159e-04 7.7064045805620772e-04
326 2.8659405648209286e-04 -6.5792709346698870e-04 -6.9798137446417470e-04
327 1.6676048107047128e-04 -6.2199835593032072e-04 -7.6746148152782281e-04
328 4.2437101770214313e-04 5.5315550584101095e-04 7.1829716581551411e-04
329 4.9645279059701958e-04 4.3871680663300975e-04 7.5076428606647759e-04
330 4.7596462117647332e-04 4.5899237894312018e-04 -7.5064571877382419e-04
331 -1.4239237732101060e-05 9.8372277250774877e-04 1.6893069625907611e-04
332 -3.7625121918861522e-05 9.9667336178149756e-04 2.7057225758511818e-05
333 -1.6725182971919663e-04 9.8329890500536261e-04 -2.1133994699149677e-05
334 9.8015029629187154e-05 9.8991626012669533e-04 7.7486127926364783e-05
335 3.7920932728907820e-04 -3.7531640791528716e-04 8.4811136215435698e-04
336 4.7298100995920184e-04 -4.4047955571214462e-04 7.6438709587315723e-04
337 -8.1642243338817878e-04 1.9210419395422593e-04 5.4436375774876246e-04
338 -3.7016041759302864e-04 5.4661635598109572e-04 7.5181829018904393e-04
339 -1.2065581624607456e-04 4.9779685029087515e-04 -8.6051731388225026e-04
340 3.8915827355083353e-04 -3.3668558126459893e-04 -8.5966797321025603e-04
341 2.3085863833739311e-05 -3.1550774195340933e-04 -9.5106736351206560e-04
342 -9.2605430276207056e-04 3.5724990265624892e-04 -1.1482582550453764e-04
343 1.6394264383812998e-05 -4.0878374651182048e-04 9.1528807617936555e-04
344 -5.3319948803706848e-04 6.0717118713574114e-04 5.8905460531312372e-04
345 -5.4555134662199556e-04 7.0447828223742974e-04 4.5460347423935621e-04
346 -6.6644272280496882e-04 6.4343354052776242e-04 3.7395617828063466e-04
347 6.1094755554280439e-04 -3.8044977270889778e-04 -6.9653126469603681e-04
348 7.0900388404984693e-04 -3.8681830192126125e-04 -5.9100387232540472e-04
349 5.4505764353682056e-04 5.2827409126398608e-04 6.5170503909947153e-04
350 6.1470597268429607e-04 4.0629169546969976e-04 6.7687342704529283e-04
351 6.5840903624017350e-04 4.9122977512868621e-04 5.7050082357837980e-04
352 7.2238030216552113e-04 3.6261138658017579e-04 5.8930439977140263e-04
353 7.5776363542097978e-04 4.4531405370832331e-04 4.7711688733925549e-04
354 -6.3435073125603489e-04 -7.3556760381397984e-04 2.3290845384507753e-04
355 2.7772173076370512e-04 5.8730074920080081e-04 -7.6063596551232315e-04
356 1.4003997766931647e-04 6.0183666426966533e-04 -7.8708563808977154e-04
357 -6.8926876214953916e-04 3.2023953738242133e-04 -6.4955567037062610e-04
358 5.1592955146795912e-04 -8.3945590225917169e-04 -1.6413022482770297e-04
359 4.3669435991911351e-04 -8.5215545258210488e-04 -2.8550655776495487e-04
360 -8.2396706137360227e-04 4.7258214487982454e-04 3.0888386403473106e-04
361 -1.4688637721343317e-04 -5.6162682527903475e-04 8.1649574608930089e-04
362 -2.0636378098153266e-04 3.8263444958611608e-04 -9.0205551938801309e-04
363 -2.3715876881943591e-04 5.6165021563204392e-04 7.9382478181780282e-04
364 -5.0802275099852716e-04 8.3800404391000242e-04 -1.8861685414365729e-04
365 1.5382745513088718e-04 5.7698959735711405e-04 8.0366371565990821e-04
366 -3.7920749984676300e-04 -2.5918473647286941e-05 9.2726951844537820e-04
367 -6.9749269048846444e-04 -6.4028589344051546e-04 3.1944482710959127e-04
368 2.0653921487439177e-04 6.7276142365059910e-04 7.1237434235258844e-04
369 8.2385538248371781e-05 6.5952777676712255e-04 7.4729727174074618e-04
370 6.9797998379526308e-04 -2.6600421970640386e-04 -6.6687063205710811e-04
371 -5.5811399044668414e-04 1.7309691933135824e-04 8.1328195822198441e-04
372 -6.8464230520353102e-04 1.3589846895980032e-04 7.1809522149192612e-04
373 5.7051712181099433e-04 8.1797545479695766e-04 -4.1883498875371208e-05
374 -1.5760747817300123e-04 -1.0117641503629635e-04 9.8548714197778647e-04
375 -5.9307090580564039e-05 -2.0251340600303146e-04 9.8069276479007981e-04
376 -2.9393040699964750e-04 -9.2482549245107254e-04 2.3825378823340851e-04
377 -4.3232586897820282e-04 -8.8596456814353465e-04 1.6707424735801528e-04
378 -9.2446530490098409e-04 1.8372872243946166e-04 3.3300182193698660e-04
379 4.4426247232771487e-04 6.6091451285931087e-04 -6.0535218809784500e-04
380 1.6410147085833368e-04 -7.2543849460619499e-04 -6.6980022361827322e-04
381 2.8205746637834594e-04 -7.5174047435793551e-04 -5.9664691418715192e-04
382 -8.9851908252873002e-04 -3.8174134373348900e-04 -2.0885203962890125e-04
383 -8.3060975677644582e-04 -4.7356045860409300e-04 -2.8861402173559919e-04
384 -7.7102037612653961e-04 -5.8728398898563944e-04 -2.4184489446196121e-04
385 -1.6750004821462262e-04 -9.3934996611151676e-04 2.9665169087280871e-04
386 -6.5990310125470394e-04 5.2336192399949635e-04 -5.3811894375210573e-04
387 -7.5816060324071424e-04 4.7202696607493545e-04 -4.4748645122053574e-04
388 8.8089330883990406e-04 2.4211948137815758e-04 -4.0558671471433518e-04
389 -9.0492656818136883e-04 3.2818184459536596e-04 -2.6452471310057813e-04
390 -4.9831564404077486e-04 8.6294570170875745e-04 -5.0430326638875219e-05
391 -3.9785113089878303e-04 9.0517284814857317e-04 -1.3478272955623989e-04
392 -6.0043731895006243e-04 7.9609442407831241e-04 3.3572575907091869e-05
393 -5.9505883550880535e-04 -7.9061938051573405e-04 -1.3472805256497223e-04
394 -5.0457262774143425e-04 -8.5860627048022582e-04 -6.7020228585114235e-05
395 7.2883605552612286e-05 9.9347648453988377e-04 -6.0274461664797143e-05
396 2.0810768034632625e-04 9.7605035366636335e-04 -9.9135240487569798e-06
397 5.4814551357639841e-04 3.4072306326037662e-04 -7.6535116738328144e-04
398 2.7133831542075607e-04 -3.1922788719992805e-04 9.1074272040919473e-04
399 3.9523158955289648e-04 -2.3960163188227994e-04 8.9012248345744728e-04
400 -2.9191277599951998e-04 6.5087413958262255e-04 7.0168059408654720e-04
401 -1.7589775438244735e-04 6.4442550216084504e-04 7.4376426896984656e-04
402 3.2337920825980637e-04 -6.1896210775719490e-04 7.1755904783870868e-04
403 6.7497534472458814e-04 2.7793204317541593e-04 6.8492155867881470e-04
404 6.8007310119957076e-04 5.8083433661981548e-04 4.4801486895091919e-04
405 -3.1070302312821783e-04 -9.4484280999965707e-04 9.0316955040045495e-05
406 2.7548967816097504e-04 -3.1402488519979784e-04 -9.1114377375314044e-04
407 3.7994780129122521e-04 -2.1604315882146284e-04 -9.0192461033532082e-04
408 8.6596441070827318e-05 5.1406343835945154e-04 -8.5497181450244514e-04
409 -8.9022374163407597e-04 4.2403996442248862e-04 1.6353245915538608e-04
410 -4.5771008448649523e-04 8.1079345220647428e-04 3.6118436344914840e-04
411 5.8242302975904504e-04 4.3902058135172878e-04 -6.8295905108760422e-04
412 4.6393498289262433e-04 6.4494791835043768e-04 6.0857110313443201e-04
413 8.1409027572603592e-04 3.0905355605704318e-04 4.9198737084294624e-04
414 8.4166519974182672e-04 3.8865893215789265e-04 3.7291117225231562e-04
415 3.3145980307503259e-05 -1.6978543628091199e-04 -9.8728084997332208e-04
416 -9.7391560127535004e-04 2.1254333792857335e-04 -5.4554819047193464e-05
417 -8.2623219259603120e-05 4.0494295866996095e-04 -9.1162668962411792e-04
418 -1.6400959201671211e-04 2.8240040050881652e-04 -9.4721137619028139e-04
419 2.0173872996840966e-05 1.9125456210157153e-04 -9.8260398981900939e-04
420 -8.1957332925458525e-05 -8.7687383636214460e-05 -9.9488518750341041e-04
421 -9.4444418312377863e-04 3.1863826188737040e-04 4.8487632241069379e-05
422 7.9026762109366932e-04 -2.6721938465970667e-04 -5.5238112566240454e-04
423 7.9518074227728341e-04 -3.8338374534712197e-04 -4.7008235729461363e-04
424 2.3510106643960551e-04 9.6161132698807596e-04 1.2738603955857831e-04
425 3.7974342898721820e-05 -6.9378774269100566e-04 -7.2156728029406769e-04
426 4.2602185195434180e-05 -5.7019973340602208e-04 -8.2288201618471799e-04
427 -7.9120716186041002e-05 -6.2158484893603020e-04 -7.8058023120332039e-04
428 3.9094588271564967e-04 -9.0422766465954156e-04 -1.6442008926824186e-04
429 3.0689733217915889e-04 -9.0884773815297392e-04 -2.7981790821493736e-04
430 3.5065418053591997e-04 -8.4775780525925520e-04 -3.9698743789970230e-04
431 -5.9006433560981734e-04 -7.1878986436627783e-04 3.6508410638977015e-04
432 -6.3477493751452386e-04 -6.1848401253359285e-04 4.6388325799960817e-04
433 1.5456028256896433e-04 -3.8388847299277823e-04 -9.1254624995879799e-04
434 -1.1892410432199043e-05 5.9889113067859376e-04 -8.0322072597838288e-04
435 6.8452202014815847e-05 6.9763189493085489e-04 -7.1411453556229749e-04
436 8.8867113891436412e-04 2.5222174740563804e-04 3.8169604856672703e-04
437 9.0600647843612557e-04 3.3014694564834513e-04 2.6060389596699887e-04
438 8.5344433102636742e-04 4.5448101371217187e-04 2.4930543073590193e-04
439 7.7293154883704810e-04 2.1962439377258723e-04 5.9620817500890828e-04
440 -5.8029990256812380e-04 7.5269986760694561e-04 3.0705540113697274e-04
441 -7.0255690348332593e-04 6.7454963616954302e-04 2.2293137005838790e-04
442 6.9050925965182376e-04 -1.2616640945748705e-04 7.1424492777912778e-04
443 7.2431592711824915e-04 -2.4776858480786516e-04 6.4558296410902353e-04
444 8.1204777784722433e-04 -2.4455085133859934e-04 5.3112348731321072e-04
445 7.4030944035927333e-04 -3.6551510816317792e-04 5.6527979835221921e-04
446 8.1975153919215031e-04 -3.6050290460417213e-04 4.4475603106096915e-04
447 7.3994468598088513e-04 -4.7638335798667468e-04 4.7484880407537724e-04
448 6.5631249844326457e-04 -4.7911519201766859e-04 5.8386411038426663e-04
449 8.1395916578002876e-04 -4.6381744138964195e-04 3.4825667817559356e-04
450 8.8243504865142988e-04 -3.4929172852203512e-04 3.1275737810719902e-04
451 6.4413137366090424e-04 -5.8585662888161773e-04 4.9366213143069691e-04
452 7.0130384167218325e-04 1.3043329494330782e-04 7.0319444410670874e-04
453 -5.5884380403549915e-04 -8.1540245706513597e-04 1.4208967034240030e-04
454 2.6097753259560078e-05 -4.4301602540808174e-04 -8.9887857838799883e-04
455 9.0787829880930367e-04 3.9441631881065157e-04 1.3407011859366334e-04
456 4.8926818588709332e-04 -2.3818802708507481e-04 -8.4109398145729120e-04
457 5.2646806665239659e-04 5.4322834477803271e-04 -6.5386179697460506e-04
458 6.1483100072057598e-04 -2.5276278725432268e-04 7.4946053221729343e-04
459 1.2197951834373575e-04 9.6642394881088826e-04 2.1911831721852244e-04
460 6.4234973573009399e-04 6.7992582692040060e-04 3.5178656182658047e-04
461 4.0759586214976338e-04 5.7190396111406888e-04 -7.1177118497441018e-04
462 -4.3260110947040796e-04 7.0793059906698185e-04 5.5774024777258938e-04
463 7.8086021321104070e-04 -1.3361339229200878e-04 -6.1173932170185128e-04
464 8.6693611738823131e-04 -2.5749639357111452e-04 -4.2624841413493631e-04
465 8.6225066871941053e-04 -3.7012822523542737e-04 -3.4453268678462373e-04
466 9.9344815413454982e-06 8.3233351732570917e-04 -5.5366579176483897e-04
467 9.2036822644194708e-04 -2.4298592935154763e-04 -3.0390744523030539e-04
468 9.1439144291477210e-04 -3.4673673158393010e-04 -2.0660033309882021e-04
469 1.5252532798830032e-04 4.0002145771658514e-04 -9.0497919791808024e-04
470 8.6598002065183617e-04 -4.5172620271410500e-04 2.1083319927717051e-04
471 9.2541706128814306e-04 -3.3148675845519294e-04 1.7652560364483003e-04
472 2.0482654441991027e-04 7.7655505334399638e-04 5.9586788465736877e-04
473 1.3436356354811543e-04 -2.4915722453500638e-04 -9.6182559516015990e-04
474 2.2196516854204026e-04 -8.9894672474580381e-04 -3.7676096313999817e-04
475 5.7585436828100996e-04 7.6849617059397734e-04 -2.7386101107093125e-04
476 3.3058221401355373e-04 7.1776123996762317e-04 6.1337434248836804e-04
477 3.0538544683634069e-04 7.3807749691059358e-04 -6.0161739627328560e-04
478 -2.0922880804250354e-04 -5.7035135653868364e-04 -7.9543224470334797e-04
479 -1.8191704360959185e-04 -6.8201246281671157e-04 -7.0901174651607102e-04
480 -3.9181532381938147e-04 8.2596427292123238e-04 -4.0214015058385262e-04
481 2.1208096766879944e-04 6.8789584655090370e-04 -6.9429160219383319e-04
482 7.8033567202167469e-04 -5.7544852163584758e-04 2.4583809418060875e-04
483 9.0155804346012905e-04 -4.2285106374722556e-04 7.2374921538024867e-05
484 9.4941360343738131e-04 -3.0626626582900575e-04 3.7655172398996023e-05
485 5.9669516349808351e-04 -2.5672757799839507e-04 -7.6269833343278553e-04
486 4.3235713353867629e-04 1.7058429640062628e-04 -8.8628306316974707e-04
487 9.8742787836887539e-04 1.3058641306138962e-04 -7.1761449986441832e-05
488 9.5462376159699579e-04 2.7047894446540670e-04 -1.1915154466849094e-04
489 9.7046974772856077e-04 2.3175615162400560e-04 8.9284430191466055e-06
490 9.0193417408452865e-04 4.1720576254675081e-04 -9.8171602274384979e-05
491 3.4531371283238229e-04 9.3599866771630191e-04 3.2191225744636109e-05
492 3.0444428335266833e-04 9.4371885390141016e-04 -1.2044399170977752e-04
493 4.4287211698289442e-04 8.9271555667338879e-04 -5.8739508812631311e-05
494 9.2012698371302516e-04 -3.8261794409858390e-04 -6.2964822989012512e-05
495 9.5818160982624756e-04 -2.6811195994308013e-04 -8.6785093055437220e-05
496 -3.8883732399769202e-04 9.1899003881954009e-04 5.2302193741171376e-06
497 9.8746436883263367e-04 1.2837990872971398e-04 7.3936782834522607e-05
498 6.8566633346686212e-04 6.7765155640480139e-04 -2.6121425961282609e-04
499 9.8656459656397194e-04 -1.3264893611991923e-04 -8.6056488233218954e-05
500 9.6912030721716758e-04 -1.1428102141384526e-04 2.1368644362243188e-04
501 9.2183154854347130e-04 -1.2698346402971667e-04 -3.6410200257570754e-04
502 8.6760334444260117e-04 1.2753543608147038e-04 -4.8074242628951713e-04
503 8.6776067952354277e-04 -1.2178227548505235e-04 4.8167155497367913e-04
504 4.6477473911199019e-04 1.2436918863464262e-04 8.7886894254623040e-04
505 4.4106223751223410e-04 3.4106794352885587e-04 8.3219984217673161e-04
506 6.5250307885946152e-04 -3.7147191151965263e-04 6.6170022041154989e-04
507 3.1911281286631265e-04 -1.0518437168109431e-04 9.4382755287733815e-04
508 6.6200674395891504e-05 -1.2328140807330655e-04 9.9367355949330828e-04
509 1.4657180847407725e-04 -2.4463551965185366e-04 9.6086211968527226e-04
510 2.5740368854809556e-04 -2.1954446099170297e-04 9.4240278702729073e-04
511 -2.1236065600789184e-04 6.8651170006860899e-04 -6.9612555214867066e-04
512 2.8394933762038410e-04 9.2274945915656590e-04 2.5557450527755596e-04
513 5.8199647898132822e-04 -8.1095338393208285e-04 -3.8556783073367070e-05
514 2.6244547722804168e-04 -9.6258335376946244e-04 4.2138613845876062e-05
515 3.0449410785387979e-04 -9.3521492289894929e-04 1.7530408393366895e-04
516 -5.4831154559527404e-04 5.6270671592601709e-04 -6.1857493767791675e-04
517 7.6755141219884331e-04 -5.7838100392819944e-04 -2.7302883324168640e-04
518 -1.4682078575053059e-04 -9.8589700519215889e-04 -6.4384406706142978e-05
519 -2.9079930301400219e-04 -9.5325578749496818e-04 -7.3181245265857702e-05
520 -3.3272862466332087e-04 -9.1533276550033688e-04 -2.2359619867859227e-04
521 -7.8178194378911744e-04 5.3175351509661851e-04 -3.2141790132904623e-04
522 -9.8375979727253777e-04 9.4672977565082151e-05 -1.4077779029681963e-04
523 7.9901261017348486e-04 5.8341311999687113e-04 1.3474849999997821e-04
524 -7.9318465714273839e-04 -5.4505299142891333e-04 2.6793404408408751e-04
525 7.7989706084168563e-04 5.1281504147552279e-04 3.5649284915809066e-04
526 4.7695286525214586e-04 -7.8086640889345703e-04 -4.0320965042958245e-04
527 -9.5005539089152552e-04 -2.8186077472971320e-04 -1.2100559743167469e-04
528 -9.3747690562408356e-04 -8.3926558217481742e-05 3.3427893065307438e-04
529 -9.1439567410413908e-04 3.9842552407328114e-05 4.0118641542365960e-04
530 -8.4306954975496898e-04 5.2713343583752407e-05 5.3562547486112077e-04
531 -7.7531106048601495e-04 -6.2108267334520231e-04 -1.0306554302803143e-04
532 -9.7618952487188643e-04 -7.3924091047945176e-05 1.9616793656902610e-04
533 -7.4363736764943445e-04 5.2483151485336948e-04 4.1125880953085133e-04
534 -6.9624743409093203e-04 7.1503751827182928e-04 -9.9237084860208709e-06
535 -2.3510929024907797e-04 -9.1327975718900184e-04 -3.2994772532532517e-04
536 6.3663776467660883e-04 7.5401942932945174e-04 -1.5150007151282973e-04
537 -1.3993204050116842e-04 -8.9198028063564711e-04 4.2945356711578451e-04
538 -5.7139917115818045e-05 9.9073571076829640e-04 -1.0406370616423077e-04
539 -1.7427837093247030e-04 9.4513838462275085e-04 -2.6954776276739143e-04
540 5.0452440262501102e-05 9.7580271884594848e-04 -2.0694139286226665e-04
541 -9.3740069597642993e-04 2.7752073410478007e-04 2.0384678897665843e-04
542 -8.7087375641463317e-04 -4.3698259669341970e-04 2.1898845130021729e-04
543 -8.0481908113353242e-04 -8.6817356943125196e-05 5.8748767759042575e-04
544 -7.5841421942570179e-04 3.0390384579917319e-05 6.5192960802151778e-04
545 -6.6427918659301788e-04 -5.2631740411915643e-04 -5.3060075319129275e-04
546 -7.5144864504066622e-04 -4.1932328233936953e-04 -5.0905328908825906e-04
547 -7.5379092627058406e-04 -2.9803859296061771e-04 -5.8569689233388584e-04
548 -6.6627671884467046e-04 -2.8166478697195423e-04 -6.9151959704315247e-04
549 2.6531148837477720e-04 -8.0532466868814528e-04 5.3077897492636965e-04
550 5.8440726924264836e-04 5.9652571434858895e-04 5.4936260521290233e-04
551 8.7879405231394551e-04 3.5330596462931115e-04 -3.1771708708597197e-04
552 8.8329895347517850e-04 -2.4093549906615197e-04 4.0184767845351975e-04
553 1.6373900324661219e-04 -7.6823340494600544e-04 6.2034057118832097e-04
554 -4.5310191296763966e-04 -6.3828457409396424e-04 6.2458303243919213e-04
555 -3.9963180117921375e-04 -5.5791731240107572e-04 7.2939931855173549e-04
556 -8.2444834223476037e-04 -4.4071618011715569e-04 3.5229530212690496e-04
557 -6.1277828156784935e-04 -7.1304292540172790e-04 -3.3789878210121110e-04
558 -7.3270099453150010e-04 2.3975363004101222e-04 6.3736654482069474e-04
559 -6.7373177117822382e-04 -4.3665817954118962e-04 5.9627876640088340e-04
560 -5.8117719449278927e-04 -5.4492228076446776e-04 6.0637554765208962e-04
561 6.4886749308378834e-04 4.8968480868100421e-04 -5.8252367624732901e-04
562 -3.3222078542433336e-04 -6.7301435958602913e-04 -6.6264823035017682e-04
563 -4.9450941973480395e-04 5.2183274368068644e-04 6.9585262366639756e-04
564 7.1051039968834169e-04 -4.9775368209080862e-04 -4.9787443549632339e-04
565 -9.7244984591655269e-05 -3.2449602393677917e-04 9.4366475349331384e-04
566 -1.1468683399360916e-04 -4.4455480429107271e-04 8.9110005040114856e-04
567 -2.3333237133235708e-04 -3.5115430426969630e-04 9.0911950767256079e-04
568 -1.7968136723020385e-04 -6.6131394923332905e-04 7.3044410394360862e-04
569 4.0018866216519529e-04 -6.8206076529531623e-04 -6.1350188504128735e-04
570 -7.1402143647049940e-04 -8.4695453507379709e-05 6.9566924184245177e-04
571 5.6617022584745300e-04 3.2400007283434529e-04 7.5981594872965674e-04
572 5.0191492123195325e-04 -3.6440251441937418e-04 -7.8710568209949512e-04
573 1.5319742888496852e-04 -3.6550371661863920e-04 9.2044005085002603e-04
574 -7.4436991510556266e-04 1.9074225213300510e-04 -6.3991888436917897e-04
575 1.6811218845670572e-04 -5.0687209946732501e-04 -8.4807778750465809e-04
576 -4.7029588406022034e-04 -4.3069904867620775e-04 7.7280829398389413e-04
577 -3.3043905167136193e-04 3.8792674453158387e-04 -8.6207827514829679e-04
578 -2.8831674947504490e-04 2.6991956615952565e-04 -9.2030541377726989e-04
579 -3.5255723305989520e-04 1.5113376747028534e-04 -9.2490387821881259e-04
580 -5.1022058590533101e-04 1.0121156517061251e-05 -8.6205748157950116e-04
581 4.6404158983073015e-04 -5.7155723402196803e-04 6.7959422942078266e-04
582 4.9564088477109882e-04 -3.1444357891066086e-04 8.1182555119354563e-04
583 -4.6624801731757928e-04 1.3860683564205715e-04 -8.7540771641458914e-04
584 -4.3558424821774674e-04 2.0385670085076626e-04 8.7861352091189650e-04
585 -4.8054989760800695e-04 7.1008773215352119e-05 8.7619005749176764e-04
586 -3.5369096318522405e-04 -4.4043804611481013e-04 -8.2690958749007646e-04
587 9.5089639234633647e-06 9.5037738109649548e-04 3.0692267359725491e-04
588 -4.2481555583208727e-04 -8.8246443193157583e-05 -9.0298407983018403e-04
589 -3.0867971405864583e-04 -5.1510658229294604e-05 -9.5199650293720033e-04
590 -2.0160557241924261e-04 -1.4408693299346187e-04 -9.7148135289245794e-04
591 -1.7622854008284765e-04 4.6583729938907243e-04 8.6895053076998803e-04
592 -5.0723371647176262e-04 7.9593692626104878e-04 -3.2491155450177007e-04
593 -2.7622620294000646e-04 -1.1498008806219079e-07 9.6391673847451168e-04
594 3.9023741381542944e-04 2.4047001246981414e-04 8.9112400372940749e-04
595 -8.0826469778248744e-04 5.5447776436244080e-04 1.8997620481642159e-04
596 4.3497823344526766e-04 -8.7786187012595628e-04 1.9705600363031337e-04
597 9.7789380491392538e-05 4.7814611642269233e-04 8.7469205221517537e-04
598 3.2664790350890133e-04 9.0543029497702993e-04 -2.6508726078434714e-04
599 1.9273702602603303e-04 -6.6951431851600693e-04 7.1888930372243230e-04
600 -5.1970624745705473e-04 -8.0807038529807126e-04 2.7352935010206540e-04
601 -8.3913787199818221e-04 4.0607823850224620e-04 -3.5765642581942587e-04
602 -8.0736785300722022e-04 3.4165227985120505e-04 -4.7938850282570547e-04
603 -7.4703534714803445e-04 -5.3516719377564345e-04 -3.9450322830163008e-04
604 -9.0714037173144084e-04 1.4072621902036598e-04 -3.9307648085236705e-04
605 -4.0926965284511589e-04 -9.1056384041889417e-04 8.8963680980234139e-06
606 -3.3031426268788930e-04 8.4683547152864479e-04 4.1375290361207696e-04
607 3.7524401647498032e-05 1.3433290896203848e-04 9.9171988993203199e-04
608 -4.9916642842966102e-05 7.8078596469003878e-04 6.2281225114039660e-04
609 -7.4894910284727567e-04 -1.7868314150314008e-04 -6.3861889707590117e-04
610 9.5437891064229961e-04 2.5865273241512432e-04 1.4361607906517767e-04
611 4.6432564311698872e-04 -1.1258609008202704e-04 -8.8063392035877641e-04
612 9.2803287216774815e-04 1.2282662622692465e-04 3.5002626383255045e-04
613 -3.7794483122507999e-04 -8.6047892622251093e-04 -3.3956924746539856e-04
614 5.8103140185392038e-05 -7.9164801528968027e-04 -6.0996159475875463e-04
615 4.6169924661309549e-04 -8.8443503613518928e-04 -4.3766598008928354e-05
616 -6.8307638202632671e-04 -6.9966093953991370e-04 -2.0664504845842844e-04
617 -9.2887122219014319e-04 -2.5842052617264884e-04 -2.5996701791908484e-04
618 -6.2297882989097544e-04 4.4480070463114751e-04 -6.4335583079329979e-04
619 1.8196185510084407e-04 -9.5221105926003406e-04 -2.4341507254208611e-04
620 -3.5037663254838465e-05 -9.3888161795181691e-04 3.4117980171963035e-04
621 3.8359611060236314e-04 -7.7341891024919525e-04 -5.0498028186466652e-04
622 -2.4525851629098635e-04 -4.7204843241777973e-04 8.4870904599409244e-04
623 7.8746037388931287e-04 -4.8794224536361170e-04 -3.7568771516973619e-04
624 9.2716328252765237e-04 1.2628148430161143e-04 -3.5157536028988985e-04
625 -4.1615631824225166e-04 6.2847427447843397e-04 6.5697503316845015e-04
626 -2.7572035410538225e-04 -5.7509213243962765e-04 7.7184639235088602e-04
627 -1.0663541755742752e-04 5.7859956778236340e-04 8.0983532817101430e-04
628 4.8466882196959070e-04 8.7046775173154863e-04 6.3750153876953271e-05
629 -9.5958549958651300e-04 4.6077090884984359e-05 2.7229133924321829e-04
630 -6.0445567456013458e-04 7.7526615765275309e-04 1.7422208918506528e-04
631 -8.2855245291315151e-04 -2.1046892622010490e-04 -5.1805818106650647e-04
632 -4.0111797488971929e-04 8.7400314932419758e-04 -2.6733487421123008e-04
633 9.2955973056272484e-04 2.4707522312871302e-04 -2.7076518609718103e-04
634 -3.6227841781620698e-04 9.6550109360480702e-05 9.2911616274169275e-04
635 3.9197314017691028e-04 -9.1609696114581575e-04 6.9008784975581837e-05
636 -6.7874594396880221e-05 -9.7466372428288320e-04 2.0761783494565450e-04
637 -5.0722998930340471e-04 -5.5270994660517143e-05 8.6206425215183962e-04
638 4.5949737316475307e-04 2.6362668651539449e-04 -8.4814648095721224e-04
639 4.6473746385798648e-04 -1.1786857877877357e-04 8.8016287721223089e-04
640 -7.3404008348065407e-05 6.9135166958898191e-04 -7.1964607906459266e-04
641 -9.5373325881274848e-04 2.2324697583736577e-04 -1.9229835631094294e-04
642 -8.7687660551958528e-04 2.7808058902583033e-04 -3.8831594206531071e-04
643 2.9408037599885239e-04 -7.1985430041200096e-04 6.2982484288400756e-04
644 5.6520704042493605e-04 -4.7828058921867481e-04 6.7372103467220061e-04
645 6.2489858958805680e-04 2.5046932444189443e-04 -7.4029151703138550e-04
646 -2.3523855913541454e-04 1.1452257022688154e-04 9.6774366155934124e-04
647 2.0642832318115257e-05 5.7676404513713492e-04 8.1798057364706133e-04
648 -7.5158589033253440e-04 5.8339607793929935e-04 3.0024884226500018e-04
649 -2.7274688234573888e-04 9.5765041137432306e-04 6.5119254124740590e-05
650 9.3445048553771558e-04 -2.3134846802731580e-04 2.6764962077765775e-04
651 -4.7623307848219872e-04 -8.5215602370821483e-04 -2.1478178244784888e-04
652 -8.7153724241346325e-04 -3.5438048299301424e-04 -3.3549052976451467e-04
653 -2.3339857524104016e-04 1.4938208801793239e-04 -9.6315443729945492e-04
654 8.4540882107503822e-04 -4.6685786145197940e-04 -2.5720126638974331e-04
655 -7.2580506290294798e-04 4.0227111364832447e-04 -5.5672351375914250e-04
656 6.8825999790431927e-04 -1.3256151622797124e-04 -7.1526260442650899e-04
657 -7.3882811527042067e-04 -5.4085627171838861e-04 4.0061098335005170e-04
658 -3.9763958507795817e-04 4.2962416460405854e-05 -9.1817102996129567e-04
659 -1.9040823522650430e-04 -2.0477549614015848e-06 -9.8527548823797335e-04
660 -6.4704507042081359e-05 4.5069765276277676e-05 -9.9725513144657417e-04
661 8.6558604587550284e-04 -4.9629397080931377e-04 -3.6514277676111884e-05
662 2.6817064160345993e-05 -2.9689452170968605e-04 9.5729615506869742e-04
663 5.2050343173149958e-04 8.3594151238231148e-04 -1.6307173112808712e-04
664 -2.8583942707092477e-04 9.5308492261695352e-04 -7.2902024794780894e-05
665 -2.8969806530024808e-04 9.3256991730656790e-04 -2.0469887869877399e-04
666 -1.0182793750938631e-04 1.5763768881885633e-04 -9.8555216566953169e-04
667 2.5738519205053796e-04 -8.3290142381808928e-04 -4.8974902449505262e-04
668 -5.9707510504809162e-04 5.0372892278575006e-05 8.0233751471600438e-04
669 -8.2477033290224858e-04 -3.2658464460619144e-04 -4.6028086233064589e-04
670 -4.9735520638504978e-04 8.6017812922607522e-04 9.0668370670128360e-05
671 -9.6229111067699978e-04 1.5369990691813803e-04 2.1244436587954219e-04
672 5.6540262801230861e-04 -3.6673537932909513e-04 7.3860363988055198e-04
673 -4.2385579157973398e-05 2.9956801258027509e-04 -9.5470643004124506e-04
674 -1.9423367098337645e-04 -9.6672713841308884e-04 1.5758759942111758e-04
675 4.2318311535166728e-04 7.3750449911579486e-04 5.2386185685971277e-04
676 8.1053247634811526e-05 7.4556280099193745e-04 6.6231209358708770e-04
677 5.1627697674689417e-04 2.3447530117593851e-04 8.2561997218513034e-04
678 -4.8730840152590144e-04 -7.7615903852474091e-04 3.9708789938146889e-04
679 3.3869640096373691e-04 -9.7405033525514091e-05 -9.3832047868916977e-04
680 4.0357213871788618e-04 -6.6417113620177790e-04 6.2924110131902750e-04
681 -8.7815571489359521e-04 1.4767859455137235e-04 4.5184588961245893e-04
682 -8.9927741292767022e-04 4.3135148487430917e-04 9.0400940177205987e-06
683 -9.7798429073846590e-05 -2.5691190738808759e-05 9.9611644238527665e-04
684 3.3824044467198154e-04 -9.3743478352660700e-04 -6.0556465792327690e-05
685 4.1219648767530024e-04 8.9068779708693945e-04 -1.7657473347253478e-04
686 1.7601844452802242e-04 -8.0106985969045615e-04 -5.7092925544341324e-04
687 1.6888256428582643e-04 9.7449816625350149e-04 -1.2882727898589326e-04
688 -8.1059374326196117e-04 -4.2453077054362218e-04 -3.9871201418789566e-04
689 -5.3779891792983981e-04 -6.4147761513417677e-04 5.4476290117936774e-04
690 5.8690580943655682e-04 -6.7864537275178253e-04 4.3915629692471199e-04
691 9.6545115998838472e-04 -2.1792535136610225e-04 1.3235201033814819e-04
692 -6.8151965978647774e-04 -5.2170863584065884e-04 5.1036042456291874e-04
693 9.3496418368350855e-04 2.2033150159748484e-04 2.7032964190276546e-04
694 -1.7748241138610418e-04 9.7044679409502945e-04 -1.4875650425513209e-04
695 9.1108737877756496e-04 3.5086611197465971e-04 -2.0484595690519055e-04
696 -5.0066977339846611e-05 6.9073352247606514e-04 7.2319006093311301e-04
697 -3.5087552943440680e-04 -4.8530913123890598e-04 8.0136754805279107e-04
698 9.3533380565413249e-04 3.5044235276467339e-04 1.6848215011684806e-05
699 -5.0040446247505009e-04 -5.2007359777519839e-04 6.9227288989842780e-04
700 -6.8122699832486901e-04 2.0243915546986134e-05 7.3149646739760130e-04
701 5.7208648596520967e-04 -5.5991986004298266e-04 5.9909864041489543e-04
702 -6.9631530358950388e-04 -6.3605808390950207e-04 -3.2646561989185964e-04
703 -7.6737498318950738e-04 2.8360679922575209e-04 -5.7252400641963472e-04
704 2.9195273644603058e-05 4.1342755559112271e-04 -9.1107752392668019e-04
705 3.2983688442194705e-04 6.5169192244402441e-04 -6.8159320555860636e-04
706 -3.3197877930251518e-04 7.0482953073679893e-04 6.2488807855852599e-04
707 1.0917075947795767e-04 -9.2481598562344327e-04 -3.6005745672184724e-04
708 -6.7929553384069421e-04 7.2221865034198974e-04 1.0665395585934949e-04
709 1.0788395668210209e-05 7.6452606299104268e-04 -6.4311402224373005e-04
710 -4.1526326835870686e-04 7.7791198271523053e-04 4.6783790870440418e-04
711 -9.2464801909810908e-04 2.1752566639433041e-04 -3.0303365663962052e-04
712 7.9279065658191409e-04 1.0030170135363209e-04 6.0071569918047029e-04
713 -2.1561627879648128e-04 -7.5177737594941355e-04 -6.2265865453770659e-04
714 6.6275582444056769e-04 3.5677250897436704e-04 -6.5899705142186669e-04
715 -2.1464081871758409e-04 -9.7355535687927003e-04 3.0182134843544188e-05
716 -3.1106976617098492e-04 6.3303066986353015e-05 -9.4922796208639793e-04
717 -4.0117187295176640e-04 -9.0586358371996215e-04 -1.1757049723356060e-04
718 5.1620354595509029e-04 -2.0780919663603511e-04 8.3209840228152675e-04
719 7.3861203957184551e-04 -5.4881340065447725e-04 3.8799741880550135e-04
720 8.5607026880274808e-04 4.9167896632380630e-04 1.4343656186414978e-04
721 2.7328791190926396e-04 -1.9873406612602875e-04 -9.4272568882099595e-04
722 -5.7873155511996993e-04 -7.7397271862724131e-04 -2.4832151719854525e-04
723 3.1363722901241077e-05 1.0537195903972718e-04 -9.9578235418803693e-04
724 -2.0348119819396104e-04 7.2817164138019158e-04 6.5633110421367666e-04
725 8.8034637929705845e-04 -4.4472356936714827e-04 -1.4994527488418127e-04
726 6.1572796634476424e-04 2.2112489669386215e-04 7.5678569606063843e-04
727 7.9447680943833289e-04 5.5159406186003346e-04 2.4724806001755249e-04
728 5.6429215462446827e-04 6.0012284531825064e-04 -5.6425798036813073e-04
729 5.0570583880890695e-04 1.0914382606819305e-04 -8.5594387341718532e-04
730 7.1914731184738196e-04 5.9876596121553546e-04 3.4671161706034844e-04
731 -2.7059058293597995e-04 -6.2211562619150231e-04 -7.3451416389404701e-04
732 3.4395654238382147e-04 6.3145284674549860e-04 6.9471587657178168e-04
733 -8.0392089943042094e-05 9.7080418249023844e-04 -2.1249970265266516e-04
734 -2.5673374685871933e-04 -4.8976282680218588e-04 -8.3428390701070949e-04
735 9.5382344498278729e-04 -2.2484740746164838e-04 -1.8860709230181802e-04
736 9.7652178690358889e-04 -2.0319579339154564e-04 4.7178095423498602e-06
737 -3.4996288179994131e-05 -1.0393498073679164e-04 9.9565799434433674e-04
738 -5.0523746127440394e-04 -8.5788874897642820e-04 5.4327460468700350e-05
739 5.3602341427456534e-04 2.2194221469737271e-04 -8.1504410113280863e-04
740 -7.7375377007534785e-04 1.3186995094756511e-04 6.1841503643725326e-04
741 -1.7961057743169428e-04 2.6713981323732069e-05 9.8468405000321380e-04
742 -5.5420258358978300e-04 -6.9066554763418044e-04 4.6106198058235796e-04
743 -1.6612634003705631e-05 5.0600964845006759e-04 -8.6258311412476768e-04
744 2.8678786677284961e-04 -9.3916996970938701e-04 -1.7642114685101638e-04
745 -6.5692919870250508e-05 -6.9724647711316354e-04 -7.1377061490371320e-04
$EndNodes
$Elements
1486
1 2 2 0 0 410 440 345
2 2 2 0 0 421 541 409
3 2 2 0 0 409 682 421
4 2 2 0 0 545 603 546
5 2 2 0 0 426 427 294
6 2 2 0 0 294 454 426
7 2 2 0 0 265 682 409
8 2 2 0 0 24 41 4
9 2 2 0 0 3 24 4
10 2 2 0 0 238 642 602
11 2 2 0 0 520 651 613
12 2 2 0 0 653 666 659
13 2 2 0 0 404 460 98
14 2 2 0 0 222 482 219
15 2 2 0 0 40 463 9
16 2 2 0 0 608 724 696
17 2 2 0 0 435 709 69
18 2 2 0 0 413 439 29
19 2 2 0 0 345 710 410
20 2 2 0 0 422 463 40
21 2 2 0 0 98 550 404
22 2 2 0 0 95 724 608
23 2 2 0 0 4 41 5
24 2 2 0 0 232 701 581
25 2 2 0 0 490 698 488
26 2 2 0 0 29 436 413
27 2 2 0 0 416 421 342
28 2 2 0 0 312 595 441
29 2 2 0 0 41 486 5
30 2 2 0 0 405 605 519
31 2 2 0 0 409 595 265
32 2 2 0 0 69 481 435
33 2 2 0 0 434 743 339
34 2 2 0 0 342 641 416
35 2 2 0 0 485 656 370
36 2 2 0 0 89 587 90
37 2 2 0 0 108 466 317
38 2 2 0 0 378 629 529
39 2 2 0 0 581 680 232
40 2 2 0 0 281 434 339
41 2 2 0 0 638 739 486
42 2 2 0 0 659 666 660
43 2 2 0 0 345 440 346
44 2 2 0 0 22 44 25
45 2 2 0 0 9 463 8
46 2 2 0 0 44 81 25
47 2 2 0 0 459 587 89
48 2 2 0 0 127 670 630
49 2 2 0 0 508 662 509
50 2 2 0 0 375 662 508
51 2 2 0 0 492 598 103
52 2 2 0 0 604 642 238
53 2 2 0 0 507 510 399
54 2 2 0 0 488 698 489
55 2 2 0 0 34 473 415
56 2 2 0 0 399 639 507
57 2 2 0 0 603 688 546
58 2 2 0 0 316 541 421
59 2 2 0 0 647 696 627
60 2 2 0 0 403 439 352
61 2 2 0 0 221 603 545
62 2 2 0 0 595 648 441
63 2 2 0 0 412 550 98
64 2 2 0 0 411 714 397
65 2 2 0 0 486 739 729
66 2 2 0 0 696 724 401
67 2 2 0 0 247 482 222
68 2 2 0 0 397 714 645
69 2 2 0 0 613 651 212
70 2 2 0 0 207 745 425
71 2 2 0 0 98 675 412
72 2 2 0 0 219 482 230
73 2 2 0 0 560 692 432
74 2 2 0 0 432 689 560
75 2 2 0 0 454 575 426
76 2 2 0 0 352 439 413
77 2 2 0 0 415 420 2
78 2 2 0 0 40 464 422
79 2 2 0 0 89 512 459
80 2 2 0 0 425 614 207
81 2 2 0 0 377 600 453
82 2 2 0 0 89 90 88
83 2 2 0 0 80 466 108
84 2 2 0 0 520 717 651
85 2 2 0 0 602 703 238
86 2 2 0 0 103 687 492
87 2 2 0 0 253 491 424
88 2 2 0 0 69 709 466
89 2 2 0 0 424 512 253
90 2 2 0 0 369 696 647
91 2 2 0 0 581 701 644
92 2 2 0 0 630 670 392
93 2 2 0 0 32 656 485
94 2 2 0 0 459 512 424
95 2 2 0 0 90 91 88
96 2 2 0 0 427 478 294
97 2 2 0 0 488 695 490
98 2 2 0 0 554 699 560
99 2 2 0 0 67 80 79
100 2 2 0 0 252 454 294
101 2 2 0 0 253 628 491
102 2 2 0 0 529 681 378
103 2 2 0 0 519 715 405
104 2 2 0 0 440 441 346
105 2 2 0 0 605 717 519
106 2 2 0 0 403 452 439
107 2 2 0 0 507 639 21
108 2 2 0 0 565 567 566
109 2 2 0 0 433 454 341
110 2 2 0 0 67 466 80
111 2 2 0 0 555 697 576
112 2 2 0 0 491 628 493
113 2 2 0 0 389 641 342
114 2 2 0 0 429 619 474
115 2 2 0 0 40 501 464
116 2 2 0 0 576 699 555
117 2 2 0 0 311 600 377
118 2 2 0 0 567 622 566
119 2 2 0 0 433 575 454
120 2 2 0 0 378 671 629
121 2 2 0 0 79 540 103
122 2 2 0 0 341 473 433
123 2 2 0 0 673 704 68
124 2 2 0 0 462 710 345
125 2 2 0 0 557 722 616
126 2 2 0 0 573 662 343
127 2 2 0 0 370 656 463
128 2 2 0 0 341 454 252
129 2 2 0 0 616 702 557
130 2 2 0 0 6 26 7
131 2 2 0 0 464 501 467
132 2 2 0 0 433 473 406
133 2 2 0 0 8 45 37
134 2 2 0 0 466 709 317
135 2 2 0 0 457 461 379
136 2 2 0 0 84 512 86
137 2 2 0 0 19 452 33
138 2 2 0 0 380 614 425
139 2 2 0 0 83 540 79
140 2 2 0 0 398 510 509
141 2 2 0 0 609 631 137
142 2 2 0 0 18 442 36
143 2 2 0 0 26 45 7
144 2 2 0 0 565 566 343
145 2 2 0 0 80 83 79
146 2 2 0 0 560 689 554
147 2 2 0 0 134 137 136
148 2 2 0 0 68 469 42
149 2 2 0 0 659 716 653
150 2 2 0 0 619 707 474
151 2 2 0 0 497 610 39
152 2 2 0 0 137 138 136
153 2 2 0 0 283 573 343
154 2 2 0 0 506 644 448
155 2 2 0 0 499 735 31
156 2 2 0 0 81 97 25
157 2 2 0 0 45 46 37
158 2 2 0 0 585 668 637
159 2 2 0 0 495 735 499
160 2 2 0 0 399 510 398
161 2 2 0 0 509 573 398
162 2 2 0 0 442 443 36
163 2 2 0 0 1 607 314
164 2 2 0 0 29 612 436
165 2 2 0 0 547 631 609
166 2 2 0 0 360 595 409
167 2 2 0 0 421 682 342
168 2 2 0 0 426 575 327
169 2 2 0 0 123 577 235
170 2 2 0 0 339 743 417
171 2 2 0 0 7 45 8
172 2 2 0 0 3 723 24
173 2 2 0 0 418 666 653
174 2 2 0 0 59 60 58
175 2 2 0 0 620 636 193
176 2 2 0 0 42 469 47
177 2 2 0 0 65 67 66
178 2 2 0 0 509 662 573
179 2 2 0 0 470 482 247
180 2 2 0 0 368 476 472
181 2 2 0 0 530 740 337
182 2 2 0 0 253 512 84
183 2 2 0 0 455 698 282
184 2 2 0 0 61 65 62
185 2 2 0 0 59 61 60
186 2 2 0 0 91 472 88
187 2 2 0 0 90 92 91
188 2 2 0 0 19 442 18
189 2 2 0 0 464 465 423
190 2 2 0 0 706 724 118
191 2 2 0 0 456 611 32
192 2 2 0 0 379 477 61
193 2 2 0 0 417 743 704
194 2 2 0 0 314 683 1
195 2 2 0 0 442 458 443
196 2 2 0 0 11 28 12
197 2 2 0 0 61 62 60
198 2 2 0 0 118 724 95
199 2 2 0 0 22 25 23
200 2 2 0 0 247 483 470
201 2 2 0 0 281 640 434
202 2 2 0 0 197 667 474
203 2 2 0 0 86 512 89
204 2 2 0 0 417 704 673
205 2 2 0 0 451 690 230
206 2 2 0 0 27 442 19
207 2 2 0 0 637 668 229
208 2 2 0 0 60 475 58
209 2 2 0 0 489 610 497
210 2 2 0 0 307 573 283
211 2 2 0 0 61 477 65
212 2 2 0 0 65 66 62
213 2 2 0 0 544 740 530
214 2 2 0 0 230 719 451
215 2 2 0 0 18 452 19
216 2 2 0 0 268 569 269
217 2 2 0 0 32 485 456
218 2 2 0 0 627 696 401
219 2 2 0 0 24 42 41
220 2 2 0 0 20 27 19
221 2 2 0 0 330 461 457
222 2 2 0 0 506 672 644
223 2 2 0 0 472 476 87
224 2 2 0 0 468 495 494
225 2 2 0 0 88 472 87
226 2 2 0 0 121 577 123
227 2 2 0 0 327 575 276
228 2 2 0 0 422 464 423
229 2 2 0 0 47 63 49
230 2 2 0 0 458 506 443
231 2 2 0 0 232 690 451
232 2 2 0 0 28 487 12
233 2 2 0 0 80 107 83
234 2 2 0 0 608 696 676
235 2 2 0 0 356 481 355
236 2 2 0 0 138 238 136
237 2 2 0 0 137 139 138
238 2 2 0 0 729 739 26
239 2 2 0 0 81 99 97
240 2 2 0 0 46 50 37
241 2 2 0 0 463 656 8
242 2 2 0 0 443 444 36
243 2 2 0 0 68 704 469
244 2 2 0 0 24 68 42
245 2 2 0 0 16 503 30
246 2 2 0 0 65 69 67
247 2 2 0 0 67 79 66
248 2 2 0 0 676 696 369
249 2 2 0 0 59 379 61
250 2 2 0 0 90 93 92
251 2 2 0 0 464 467 465
252 2 2 0 0 441 708 312
253 2 2 0 0 483 484 471
254 2 2 0 0 427 479 478
255 2 2 0 0 245 564 244
256 2 2 0 0 470 483 471
257 2 2 0 0 473 721 406
258 2 2 0 0 555 699 554
259 2 2 0 0 47 469 63
260 2 2 0 0 63 355 49
261 2 2 0 0 62 64 60
262 2 2 0 0 80 108 107
263 2 2 0 0 107 539 83
264 2 2 0 0 139 140 138
265 2 2 0 0 99 100 97
266 2 2 0 0 81 236 99
267 2 2 0 0 46 51 50
268 2 2 0 0 443 445 444
269 2 2 0 0 24 419 68
270 2 2 0 0 69 466 67
271 2 2 0 0 79 103 66
272 2 2 0 0 65 477 69
273 2 2 0 0 547 548 321
274 2 2 0 0 93 94 92
275 2 2 0 0 467 468 465
276 2 2 0 0 333 664 649
277 2 2 0 0 55 498 56
278 2 2 0 0 56 498 72
279 2 2 0 0 12 499 31
280 2 2 0 0 63 356 355
281 2 2 0 0 108 110 107
282 2 2 0 0 139 141 140
283 2 2 0 0 100 101 97
284 2 2 0 0 236 248 99
285 2 2 0 0 81 594 236
286 2 2 0 0 51 52 50
287 2 2 0 0 192 515 195
288 2 2 0 0 445 446 444
289 2 2 0 0 477 481 69
290 2 2 0 0 94 95 92
291 2 2 0 0 93 96 94
292 2 2 0 0 63 408 356
293 2 2 0 0 108 111 110
294 2 2 0 0 110 117 107
295 2 2 0 0 139 154 141
296 2 2 0 0 141 142 140
297 2 2 0 0 51 53 52
298 2 2 0 0 100 102 101
299 2 2 0 0 236 250 248
300 2 2 0 0 445 447 446
301 2 2 0 0 52 388 50
302 2 2 0 0 277 622 567
303 2 2 0 0 95 608 92
304 2 2 0 0 94 118 95
305 2 2 0 0 93 104 96
306 2 2 0 0 51 561 53
307 2 2 0 0 408 434 356
308 2 2 0 0 53 54 52
309 2 2 0 0 445 448 447
310 2 2 0 0 108 317 111
311 2 2 0 0 141 143 142
312 2 2 0 0 142 225 140
313 2 2 0 0 102 166 101
314 2 2 0 0 250 325 248
315 2 2 0 0 100 258 102
316 2 2 0 0 53 55 54
317 2 2 0 0 447 449 446
318 2 2 0 0 236 505 250
319 2 2 0 0 104 105 96
320 2 2 0 0 53 57 55
321 2 2 0 0 55 56 54
322 2 2 0 0 448 451 447
323 2 2 0 0 14 39 15
324 2 2 0 0 317 511 111
325 2 2 0 0 10 40 9
326 2 2 0 0 143 144 142
327 2 2 0 0 57 58 55
328 2 2 0 0 8 37 9
329 2 2 0 0 14 38 13
330 2 2 0 0 166 314 101
331 2 2 0 0 18 36 17
332 2 2 0 0 16 29 17
333 2 2 0 0 33 504 20
334 2 2 0 0 325 365 248
335 2 2 0 0 199 202 196
336 2 2 0 0 7 32 6
337 2 2 0 0 434 435 356
338 2 2 0 0 74 75 73
339 2 2 0 0 223 239 234
340 2 2 0 0 74 76 75
341 2 2 0 0 72 74 73
342 2 2 0 0 231 549 201
343 2 2 0 0 202 205 204
344 2 2 0 0 226 227 214
345 2 2 0 0 272 275 271
346 2 2 0 0 276 318 275
347 2 2 0 0 213 214 209
348 2 2 0 0 76 77 75
349 2 2 0 0 210 231 201
350 2 2 0 0 16 30 15
351 2 2 0 0 205 209 208
352 2 2 0 0 202 204 196
353 2 2 0 0 318 406 340
354 2 2 0 0 195 196 193
355 2 2 0 0 322 420 415
356 2 2 0 0 239 240 234
357 2 2 0 0 163 588 168
358 2 2 0 0 12 31 11
359 2 2 0 0 56 72 71
360 2 2 0 0 425 426 327
361 2 2 0 0 19 33 20
362 2 2 0 0 168 224 215
363 2 2 0 0 209 568 216
364 2 2 0 0 318 433 406
365 2 2 0 0 269 271 270
366 2 2 0 0 268 269 245
367 2 2 0 0 21 639 20
368 2 2 0 0 84 85 82
369 2 2 0 0 181 207 183
370 2 2 0 0 269 272 271
371 2 2 0 0 272 276 275
372 2 2 0 0 242 243 240
373 2 2 0 0 102 167 166
374 2 2 0 0 223 234 233
375 2 2 0 0 283 343 227
376 2 2 0 0 205 208 204
377 2 2 0 0 213 226 214
378 2 2 0 0 271 572 347
379 2 2 0 0 243 268 245
380 2 2 0 0 335 398 307
381 2 2 0 0 303 555 554
382 2 2 0 0 226 283 227
383 2 2 0 0 347 485 370
384 2 2 0 0 195 199 196
385 2 2 0 0 205 213 209
386 2 2 0 0 246 322 252
387 2 2 0 0 76 78 77
388 2 2 0 0 133 163 135
389 2 2 0 0 163 168 164
390 2 2 0 0 322 415 341
391 2 2 0 0 227 361 214
392 2 2 0 0 191 198 189
393 2 2 0 0 78 84 82
394 2 2 0 0 209 216 208
395 2 2 0 0 78 82 77
396 2 2 0 0 216 303 266
397 2 2 0 0 417 418 362
398 2 2 0 0 314 607 101
399 2 2 0 0 339 362 280
400 2 2 0 0 243 245 244
401 2 2 0 0 187 291 185
402 2 2 0 0 429 430 359
403 2 2 0 0 143 145 144
404 2 2 0 0 202 553 205
405 2 2 0 0 339 417 362
406 2 2 0 0 131 580 133
407 2 2 0 0 239 242 240
408 2 2 0 0 57 59 58
409 2 2 0 0 224 246 215
410 2 2 0 0 84 86 85
411 2 2 0 0 303 554 266
412 2 2 0 0 72 73 71
413 2 2 0 0 437 438 414
414 2 2 0 0 318 340 275
415 2 2 0 0 269 270 245
416 2 2 0 0 86 87 85
417 2 2 0 0 192 193 191
418 2 2 0 0 123 235 129
419 2 2 0 0 263 374 262
420 2 2 0 0 425 427 426
421 2 2 0 0 149 150 147
422 2 2 0 0 210 232 231
423 2 2 0 0 74 373 76
424 2 2 0 0 168 215 169
425 2 2 0 0 259 262 249
426 2 2 0 0 145 146 144
427 2 2 0 0 367 524 289
428 2 2 0 0 271 347 270
429 2 2 0 0 406 407 340
430 2 2 0 0 334 459 424
431 2 2 0 0 429 474 430
432 2 2 0 0 250 328 325
433 2 2 0 0 431 432 367
434 2 2 0 0 104 278 105
435 2 2 0 0 145 147 146
436 2 2 0 0 151 152 150
437 2 2 0 0 235 583 129
438 2 2 0 0 237 249 228
439 2 2 0 0 149 151 150
440 2 2 0 0 159 161 158
441 2 2 0 0 153 155 152
442 2 2 0 0 156 158 155
443 2 2 0 0 354 367 289
444 2 2 0 0 259 263 262
445 2 2 0 0 190 191 189
446 2 2 0 0 177 221 174
447 2 2 0 0 162 228 161
448 2 2 0 0 124 516 386
449 2 2 0 0 418 653 578
450 2 2 0 0 371 584 295
451 2 2 0 0 151 153 152
452 2 2 0 0 153 156 155
453 2 2 0 0 159 162 161
454 2 2 0 0 374 593 262
455 2 2 0 0 156 159 158
456 2 2 0 0 237 259 249
457 2 2 0 0 146 284 160
458 2 2 0 0 266 309 267
459 2 2 0 0 264 265 257
460 2 2 0 0 86 88 87
461 2 2 0 0 265 312 257
462 2 2 0 0 162 237 228
463 2 2 0 0 21 44 22
464 2 2 0 0 324 392 390
465 2 2 0 0 371 585 584
466 2 2 0 0 262 366 249
467 2 2 0 0 192 195 193
468 2 2 0 0 263 375 374
469 2 2 0 0 216 266 217
470 2 2 0 0 326 327 276
471 2 2 0 0 260 646 166
472 2 2 0 0 220 223 222
473 2 2 0 0 322 341 252
474 2 2 0 0 256 257 255
475 2 2 0 0 78 253 84
476 2 2 0 0 358 359 242
477 2 2 0 0 188 189 187
478 2 2 0 0 281 339 280
479 2 2 0 0 146 160 144
480 2 2 0 0 123 129 128
481 2 2 0 0 255 324 254
482 2 2 0 0 228 229 161
483 2 2 0 0 354 431 367
484 2 2 0 0 163 164 135
485 2 2 0 0 155 157 152
486 2 2 0 0 243 244 240
487 2 2 0 0 256 264 257
488 2 2 0 0 284 316 160
489 2 2 0 0 380 425 327
490 2 2 0 0 148 149 147
491 2 2 0 0 335 399 398
492 2 2 0 0 418 578 362
493 2 2 0 0 334 424 396
494 2 2 0 0 167 260 166
495 2 2 0 0 325 368 365
496 2 2 0 0 428 429 359
497 2 2 0 0 165 255 254
498 2 2 0 0 297 342 264
499 2 2 0 0 298 371 295
500 2 2 0 0 218 323 220
501 2 2 0 0 310 337 302
502 2 2 0 0 165 256 255
503 2 2 0 0 186 187 185
504 2 2 0 0 56 71 70
505 2 2 0 0 165 254 125
506 2 2 0 0 200 201 199
507 2 2 0 0 148 206 149
508 2 2 0 0 324 390 364
509 2 2 0 0 190 192 191
510 2 2 0 0 368 369 365
511 2 2 0 0 353 404 351
512 2 2 0 0 104 331 278
513 2 2 0 0 256 297 264
514 2 2 0 0 316 421 416
515 2 2 0 0 239 358 242
516 2 2 0 0 169 586 171
517 2 2 0 0 286 287 206
518 2 2 0 0 324 364 254
519 2 2 0 0 241 576 162
520 2 2 0 0 168 169 164
521 2 2 0 0 121 123 122
522 2 2 0 0 266 267 217
523 2 2 0 0 129 131 130
524 2 2 0 0 216 217 208
525 2 2 0 0 285 382 313
526 2 2 0 0 172 321 170
527 2 2 0 0 390 391 364
528 2 2 0 0 296 563 300
529 2 2 0 0 246 252 251
530 2 2 0 0 285 286 206
531 2 2 0 0 288 289 287
532 2 2 0 0 298 372 371
533 2 2 0 0 23 35 22
534 2 2 0 0 300 344 304
535 2 2 0 0 344 462 345
536 2 2 0 0 123 128 122
537 2 2 0 0 297 389 342
538 2 2 0 0 237 277 259
539 2 2 0 0 148 285 206
540 2 2 0 0 86 89 88
541 2 2 0 0 306 307 283
542 2 2 0 0 234 279 233
543 2 2 0 0 316 416 160
544 2 2 0 0 188 190 189
545 2 2 0 0 85 98 82
546 2 2 0 0 358 428 359
547 2 2 0 0 437 455 438
548 2 2 0 0 203 210 201
549 2 2 0 0 382 383 313
550 2 2 0 0 153 176 156
551 2 2 0 0 290 354 289
552 2 2 0 0 159 241 162
553 2 2 0 0 386 387 126
554 2 2 0 0 273 363 338
555 2 2 0 0 272 326 276
556 2 2 0 0 171 293 173
557 2 2 0 0 145 148 147
558 2 2 0 0 274 295 261
559 2 2 0 0 285 313 286
560 2 2 0 0 383 384 313
561 2 2 0 0 301 302 299
562 2 2 0 0 131 133 132
563 2 2 0 0 296 298 295
564 2 2 0 0 305 310 302
565 2 2 0 0 349 412 328
566 2 2 0 0 344 345 304
567 2 2 0 0 77 119 75
568 2 2 0 0 315 378 310
569 2 2 0 0 363 401 400
570 2 2 0 0 332 333 278
571 2 2 0 0 223 233 222
572 2 2 0 0 331 334 332
573 2 2 0 0 186 188 187
574 2 2 0 0 178 212 177
575 2 2 0 0 305 360 315
576 2 2 0 0 334 396 395
577 2 2 0 0 246 251 215
578 2 2 0 0 167 261 260
579 2 2 0 0 175 179 178
580 2 2 0 0 345 346 304
581 2 2 0 0 124 386 126
582 2 2 0 0 286 288 287
583 2 2 0 0 331 332 278
584 2 2 0 0 179 181 180
585 2 2 0 0 301 305 302
586 2 2 0 0 300 304 301
587 2 2 0 0 296 300 299
588 2 2 0 0 305 315 310
589 2 2 0 0 296 299 298
590 2 2 0 0 320 453 290
591 2 2 0 0 274 296 295
592 2 2 0 0 313 531 286
593 2 2 0 0 120 281 280
594 2 2 0 0 360 409 315
595 2 2 0 0 363 400 338
596 2 2 0 0 129 130 128
597 2 2 0 0 300 301 299
598 2 2 0 0 1 508 23
599 2 2 0 0 167 273 261
600 2 2 0 0 133 135 134
601 2 2 0 0 173 174 172
602 2 2 0 0 311 377 376
603 2 2 0 0 273 274 261
604 2 2 0 0 273 338 274
605 2 2 0 0 334 395 332
606 2 2 0 0 183 197 184
607 2 2 0 0 319 393 320
608 2 2 0 0 449 450 446
609 2 2 0 0 288 290 289
610 2 2 0 0 226 306 283
611 2 2 0 0 326 380 327
612 2 2 0 0 175 177 174
613 2 2 0 0 181 183 182
614 2 2 0 0 219 230 211
615 2 2 0 0 308 335 307
616 2 2 0 0 267 311 292
617 2 2 0 0 169 170 164
618 2 2 0 0 288 319 290
619 2 2 0 0 126 165 125
620 2 2 0 0 120 280 121
621 2 2 0 0 130 357 128
622 2 2 0 0 195 200 199
623 2 2 0 0 169 171 170
624 2 2 0 0 171 172 170
625 2 2 0 0 184 186 185
626 2 2 0 0 73 282 71
627 2 2 0 0 252 294 251
628 2 2 0 0 319 320 290
629 2 2 0 0 131 132 130
630 2 2 0 0 393 394 320
631 2 2 0 0 171 173 172
632 2 2 0 0 4 34 3
633 2 2 0 0 218 220 219
634 2 2 0 0 267 292 217
635 2 2 0 0 184 185 182
636 2 2 0 0 188 194 190
637 2 2 0 0 56 70 54
638 2 2 0 0 377 405 376
639 2 2 0 0 449 470 450
640 2 2 0 0 179 180 178
641 2 2 0 0 173 175 174
642 2 2 0 0 175 178 177
643 2 2 0 0 250 329 328
644 2 2 0 0 311 376 292
645 2 2 0 0 329 571 350
646 2 2 0 0 347 370 348
647 2 2 0 0 220 222 219
648 2 2 0 0 376 385 292
649 2 2 0 0 133 134 132
650 2 2 0 0 134 136 132
651 2 2 0 0 306 308 307
652 2 2 0 0 200 203 201
653 2 2 0 0 233 247 222
654 2 2 0 0 98 460 82
655 2 2 0 0 329 349 328
656 2 2 0 0 326 381 380
657 2 2 0 0 347 348 270
658 2 2 0 0 181 182 180
659 2 2 0 0 121 122 115
660 2 2 0 0 350 351 349
661 2 2 0 0 308 336 335
662 2 2 0 0 350 403 352
663 2 2 0 0 470 471 450
664 2 2 0 0 203 211 210
665 2 2 0 0 218 219 211
666 2 2 0 0 183 184 182
667 2 2 0 0 370 463 422
668 2 2 0 0 306 402 308
669 2 2 0 0 203 218 211
670 2 2 0 0 71 490 70
671 2 2 0 0 329 350 349
672 2 2 0 0 436 437 414
673 2 2 0 0 124 126 125
674 2 2 0 0 413 414 353
675 2 2 0 0 422 423 348
676 2 2 0 0 352 353 351
677 2 2 0 0 370 422 348
678 2 2 0 0 350 352 351
679 2 2 0 0 413 436 414
680 2 2 0 0 352 413 353
681 2 2 0 0 120 121 115
682 2 2 0 0 110 480 117
683 2 2 0 0 124 125 116
684 2 2 0 0 126 521 165
685 2 2 0 0 113 120 115
686 2 2 0 0 127 440 410
687 2 2 0 0 114 124 116
688 2 2 0 0 543 544 530
689 2 2 0 0 488 489 487
690 2 2 0 0 585 637 366
691 2 2 0 0 543 570 544
692 2 2 0 0 113 115 114
693 2 2 0 0 127 410 106
694 2 2 0 0 114 116 112
695 2 2 0 0 195 515 200
696 2 2 0 0 491 493 492
697 2 2 0 0 12 487 13
698 2 2 0 0 546 547 321
699 2 2 0 0 330 457 411
700 2 2 0 0 157 543 530
701 2 2 0 0 519 520 291
702 2 2 0 0 28 488 487
703 2 2 0 0 111 112 110
704 2 2 0 0 312 534 257
705 2 2 0 0 476 732 412
706 2 2 0 0 27 458 442
707 2 2 0 0 385 636 620
708 2 2 0 0 176 559 156
709 2 2 0 0 593 634 366
710 2 2 0 0 589 590 224
711 2 2 0 0 113 114 112
712 2 2 0 0 109 127 106
713 2 2 0 0 270 564 245
714 2 2 0 0 443 506 445
715 2 2 0 0 491 492 396
716 2 2 0 0 388 624 502
717 2 2 0 0 445 506 448
718 2 2 0 0 30 500 15
719 2 2 0 0 20 504 21
720 2 2 0 0 64 475 60
721 2 2 0 0 287 542 206
722 2 2 0 0 23 508 35
723 2 2 0 0 302 558 299
724 2 2 0 0 70 551 54
725 2 2 0 0 62 598 64
726 2 2 0 0 424 491 396
727 2 2 0 0 407 456 340
728 2 2 0 0 545 546 321
729 2 2 0 0 330 411 397
730 2 2 0 0 72 536 74
731 2 2 0 0 238 574 136
732 2 2 0 0 659 660 420
733 2 2 0 0 395 538 332
734 2 2 0 0 143 527 145
735 2 2 0 0 412 675 476
736 2 2 0 0 239 513 358
737 2 2 0 0 157 530 529
738 2 2 0 0 518 519 291
739 2 2 0 0 449 482 470
740 2 2 0 0 207 713 479
741 2 2 0 0 119 523 75
742 2 2 0 0 109 670 127
743 2 2 0 0 10 501 40
744 2 2 0 0 508 509 35
745 2 2 0 0 96 606 94
746 2 2 0 0 331 459 334
747 2 2 0 0 286 531 288
748 2 2 0 0 290 453 354
749 2 2 0 0 282 490 71
750 2 2 0 0 384 531 313
751 2 2 0 0 289 524 287
752 2 2 0 0 349 550 412
753 2 2 0 0 165 521 256
754 2 2 0 0 82 460 77
755 2 2 0 0 155 543 157
756 2 2 0 0 201 549 199
757 2 2 0 0 273 591 363
758 2 2 0 0 387 521 126
759 2 2 0 0 114 516 124
760 2 2 0 0 53 561 57
761 2 2 0 0 266 554 309
762 2 2 0 0 257 534 255
763 2 2 0 0 205 553 213
764 2 2 0 0 142 522 225
765 2 2 0 0 435 481 356
766 2 2 0 0 216 568 303
767 2 2 0 0 300 563 344
768 2 2 0 0 214 568 209
769 2 2 0 0 112 480 110
770 2 2 0 0 350 571 403
771 2 2 0 0 347 572 485
772 2 2 0 0 275 572 271
773 2 2 0 0 274 563 296
774 2 2 0 0 171 586 293
775 2 2 0 0 162 576 237
776 2 2 0 0 133 580 163
777 2 2 0 0 11 501 10
778 2 2 0 0 295 584 261
779 2 2 0 0 129 583 131
780 2 2 0 0 215 586 169
781 2 2 0 0 250 505 329
782 2 2 0 0 168 588 224
783 2 2 0 0 321 548 170
784 2 2 0 0 262 593 366
785 2 2 0 0 166 646 314
786 2 2 0 0 520 535 291
787 2 2 0 0 373 663 493
788 2 2 0 0 291 535 185
789 2 2 0 0 101 607 97
790 2 2 0 0 130 574 357
791 2 2 0 0 158 570 543
792 2 2 0 0 31 501 11
793 2 2 0 0 444 552 503
794 2 2 0 0 156 559 159
795 2 2 0 0 236 594 505
796 2 2 0 0 206 542 149
797 2 2 0 0 54 551 52
798 2 2 0 0 74 536 373
799 2 2 0 0 337 558 302
800 2 2 0 0 150 532 147
801 2 2 0 0 379 728 457
802 2 2 0 0 299 558 298
803 2 2 0 0 332 538 333
804 2 2 0 0 145 527 148
805 2 2 0 0 514 515 192
806 2 2 0 0 15 500 14
807 2 2 0 0 75 523 73
808 2 2 0 0 467 501 31
809 2 2 0 0 254 592 125
810 2 2 0 0 172 545 321
811 2 2 0 0 144 522 142
812 2 2 0 0 528 532 150
813 2 2 0 0 187 518 291
814 2 2 0 0 553 599 213
815 2 2 0 0 383 603 384
816 2 2 0 0 282 698 490
817 2 2 0 0 244 517 240
818 2 2 0 0 353 525 404
819 2 2 0 0 395 540 538
820 2 2 0 0 94 606 118
821 2 2 0 0 117 539 107
822 2 2 0 0 185 535 182
823 2 2 0 0 388 502 50
824 2 2 0 0 167 591 273
825 2 2 0 0 147 532 146
826 2 2 0 0 92 608 91
827 2 2 0 0 472 676 368
828 2 2 0 0 364 592 254
829 2 2 0 0 21 504 44
830 2 2 0 0 365 597 248
831 2 2 0 0 125 592 116
832 2 2 0 0 588 589 224
833 2 2 0 0 111 113 112
834 2 2 0 0 63 469 408
835 2 2 0 0 105 109 106
836 2 2 0 0 242 526 243
837 2 2 0 0 439 712 29
838 2 2 0 0 240 517 234
839 2 2 0 0 346 533 304
840 2 2 0 0 14 500 38
841 2 2 0 0 494 495 484
842 2 2 0 0 127 630 440
843 2 2 0 0 208 537 204
844 2 2 0 0 175 562 179
845 2 2 0 0 303 626 555
846 2 2 0 0 359 526 242
847 2 2 0 0 243 526 268
848 2 2 0 0 217 537 208
849 2 2 0 0 58 498 55
850 2 2 0 0 503 552 30
851 2 2 0 0 13 499 12
852 2 2 0 0 268 621 569
853 2 2 0 0 489 497 487
854 2 2 0 0 475 498 58
855 2 2 0 0 430 526 359
856 2 2 0 0 248 597 99
857 2 2 0 0 292 537 217
858 2 2 0 0 26 645 45
859 2 2 0 0 234 517 279
860 2 2 0 0 14 497 39
861 2 2 0 0 385 537 292
862 2 2 0 0 305 533 360
863 2 2 0 0 304 533 301
864 2 2 0 0 146 532 284
865 2 2 0 0 483 494 484
866 2 2 0 0 173 562 175
867 2 2 0 0 116 480 112
868 2 2 0 0 224 590 246
869 2 2 0 0 189 518 187
870 2 2 0 0 498 536 72
871 2 2 0 0 414 525 353
872 2 2 0 0 160 522 144
873 2 2 0 0 547 609 548
874 2 2 0 0 182 535 180
875 2 2 0 0 297 601 389
876 2 2 0 0 44 594 81
877 2 2 0 0 301 533 305
878 2 2 0 0 105 106 96
879 2 2 0 0 515 596 200
880 2 2 0 0 293 562 173
881 2 2 0 0 73 523 282
882 2 2 0 0 148 527 285
883 2 2 0 0 174 545 172
884 2 2 0 0 218 596 323
885 2 2 0 0 200 596 203
886 2 2 0 0 149 542 151
887 2 2 0 0 446 552 444
888 2 2 0 0 49 461 330
889 2 2 0 0 330 397 48
890 2 2 0 0 453 738 377
891 2 2 0 0 255 534 324
892 2 2 0 0 52 551 388
893 2 2 0 0 634 646 260
894 2 2 0 0 513 615 358
895 2 2 0 0 438 525 414
896 2 2 0 0 516 618 386
897 2 2 0 0 198 518 189
898 2 2 0 0 227 566 361
899 2 2 0 0 559 560 241
900 2 2 0 0 90 587 93
901 2 2 0 0 416 522 160
902 2 2 0 0 102 591 167
903 2 2 0 0 134 609 137
904 2 2 0 0 298 558 372
905 2 2 0 0 132 574 130
906 2 2 0 0 106 606 96
907 2 2 0 0 159 559 241
908 2 2 0 0 32 611 6
909 2 2 0 0 158 543 155
910 2 2 0 0 223 513 239
911 2 2 0 0 288 531 319
912 2 2 0 0 323 513 220
913 2 2 0 0 115 516 114
914 2 2 0 0 521 601 297
915 2 2 0 0 610 698 455
916 2 2 0 0 354 600 431
917 2 2 0 0 351 550 349
918 2 2 0 0 256 521 297
919 2 2 0 0 140 604 138
920 2 2 0 0 77 460 119
921 2 2 0 0 17 503 16
922 2 2 0 0 9 502 10
923 2 2 0 0 104 587 331
924 2 2 0 0 152 528 150
925 2 2 0 0 315 541 378
926 2 2 0 0 170 548 164
927 2 2 0 0 590 659 420
928 2 2 0 0 11 624 28
929 2 2 0 0 199 549 202
930 2 2 0 0 502 624 10
931 2 2 0 0 453 600 354
932 2 2 0 0 42 43 41
933 2 2 0 0 38 499 13
934 2 2 0 0 285 527 382
935 2 2 0 0 190 514 192
936 2 2 0 0 157 529 528
937 2 2 0 0 231 643 549
938 2 2 0 0 331 587 459
939 2 2 0 0 451 701 232
940 2 2 0 0 99 597 100
941 2 2 0 0 361 568 214
942 2 2 0 0 372 740 544
943 2 2 0 0 221 545 174
944 2 2 0 0 138 604 238
945 2 2 0 0 340 572 275
946 2 2 0 0 338 563 274
947 2 2 0 0 524 542 287
948 2 2 0 0 265 595 312
949 2 2 0 0 111 511 113
950 2 2 0 0 580 658 588
951 2 2 0 0 580 588 163
952 2 2 0 0 237 576 277
953 2 2 0 0 444 503 36
954 2 2 0 0 131 583 580
955 2 2 0 0 505 571 329
956 2 2 0 0 203 596 218
957 2 2 0 0 584 634 260
958 2 2 0 0 261 584 260
959 2 2 0 0 369 647 365
960 2 2 0 0 251 586 215
961 2 2 0 0 348 564 270
962 2 2 0 0 450 552 446
963 2 2 0 0 390 496 391
964 2 2 0 0 66 598 62
965 2 2 0 0 465 623 423
966 2 2 0 0 258 591 102
967 2 2 0 0 343 566 227
968 2 2 0 0 564 623 244
969 2 2 0 0 154 617 141
970 2 2 0 0 324 534 392
971 2 2 0 0 50 502 37
972 2 2 0 0 524 556 542
973 2 2 0 0 544 700 372
974 2 2 0 0 122 516 115
975 2 2 0 0 177 557 221
976 2 2 0 0 489 698 610
977 2 2 0 0 93 587 104
978 2 2 0 0 136 574 132
979 2 2 0 0 593 646 634
980 2 2 0 0 116 592 480
981 2 2 0 0 143 617 527
982 2 2 0 0 225 604 140
983 2 2 0 0 137 631 139
984 2 2 0 0 549 553 202
985 2 2 0 0 164 548 135
986 2 2 0 0 404 550 351
987 2 2 0 0 34 721 473
988 2 2 0 0 220 513 223
989 2 2 0 0 317 640 511
990 2 2 0 0 100 597 258
991 2 2 0 0 588 658 589
992 2 2 0 0 323 615 513
993 2 2 0 0 568 626 303
994 2 2 0 0 377 605 405
995 2 2 0 0 178 613 212
996 2 2 0 0 493 628 373
997 2 2 0 0 157 528 152
998 2 2 0 0 591 627 363
999 2 2 0 0 409 541 315
1000 2 2 0 0 183 614 197
1001 2 2 0 0 103 598 66
1002 2 2 0 0 188 619 194
1003 2 2 0 0 213 599 226
1004 2 2 0 0 306 599 402
1005 2 2 0 0 97 607 25
1006 2 2 0 0 194 514 190
1007 2 2 0 0 373 628 76
1008 2 2 0 0 78 628 253
1009 2 2 0 0 42 47 43
1010 2 2 0 0 39 612 15
1011 2 2 0 0 16 612 29
1012 2 2 0 0 437 610 455
1013 2 2 0 0 487 497 13
1014 2 2 0 0 440 630 441
1015 2 2 0 0 479 713 562
1016 2 2 0 0 196 620 193
1017 2 2 0 0 456 572 340
1018 2 2 0 0 120 511 281
1019 2 2 0 0 577 578 235
1020 2 2 0 0 335 582 399
1021 2 2 0 0 314 741 683
1022 2 2 0 0 520 613 535
1023 2 2 0 0 585 634 584
1024 2 2 0 0 423 564 348
1025 2 2 0 0 457 561 411
1026 2 2 0 0 6 611 5
1027 2 2 0 0 385 620 537
1028 2 2 0 0 228 637 229
1029 2 2 0 0 366 637 249
1030 2 2 0 0 161 570 158
1031 2 2 0 0 434 640 435
1032 2 2 0 0 193 636 191
1033 2 2 0 0 410 606 106
1034 2 2 0 0 37 502 9
1035 2 2 0 0 36 503 17
1036 2 2 0 0 141 617 143
1037 2 2 0 0 363 627 401
1038 2 2 0 0 322 590 420
1039 2 2 0 0 357 618 128
1040 2 2 0 0 430 621 526
1041 2 2 0 0 540 687 103
1042 2 2 0 0 280 577 121
1043 2 2 0 0 276 575 318
1044 2 2 0 0 362 578 577
1045 2 2 0 0 109 649 496
1046 2 2 0 0 246 590 322
1047 2 2 0 0 326 569 381
1048 2 2 0 0 569 621 381
1049 2 2 0 0 269 569 272
1050 2 2 0 0 139 631 154
1051 2 2 0 0 649 664 496
1052 2 2 0 0 537 620 204
1053 2 2 0 0 355 461 49
1054 2 2 0 0 663 685 493
1055 2 2 0 0 479 745 207
1056 2 2 0 0 343 662 565
1057 2 2 0 0 212 557 177
1058 2 2 0 0 45 645 46
1059 2 2 0 0 496 670 109
1060 2 2 0 0 366 634 585
1061 2 2 0 0 384 616 531
1062 2 2 0 0 535 613 180
1063 2 2 0 0 391 632 364
1064 2 2 0 0 308 581 336
1065 2 2 0 0 344 625 462
1066 2 2 0 0 563 625 344
1067 2 2 0 0 13 497 14
1068 2 2 0 0 480 632 117
1069 2 2 0 0 371 668 585
1070 2 2 0 0 333 649 278
1071 2 2 0 0 387 601 521
1072 2 2 0 0 47 49 48
1073 2 2 0 0 358 615 428
1074 2 2 0 0 113 511 120
1075 2 2 0 0 527 617 382
1076 2 2 0 0 105 649 109
1077 2 2 0 0 398 573 307
1078 2 2 0 0 368 676 369
1079 2 2 0 0 180 613 178
1080 2 2 0 0 153 556 176
1081 2 2 0 0 432 657 367
1082 2 2 0 0 458 718 582
1083 2 2 0 0 207 614 183
1084 2 2 0 0 407 611 456
1085 2 2 0 0 244 623 517
1086 2 2 0 0 20 639 27
1087 2 2 0 0 476 675 87
1088 2 2 0 0 319 616 393
1089 2 2 0 0 474 707 197
1090 2 2 0 0 226 599 306
1091 2 2 0 0 47 48 43
1092 2 2 0 0 186 619 188
1093 2 2 0 0 412 732 328
1094 2 2 0 0 316 671 541
1095 2 2 0 0 293 734 478
1096 2 2 0 0 492 685 598
1097 2 2 0 0 528 629 532
1098 2 2 0 0 514 635 515
1099 2 2 0 0 531 616 319
1100 2 2 0 0 8 656 7
1101 2 2 0 0 387 602 601
1102 2 2 0 0 76 628 78
1103 2 2 0 0 122 618 516
1104 2 2 0 0 651 717 394
1105 2 2 0 0 423 623 564
1106 2 2 0 0 546 669 547
1107 2 2 0 0 4 679 34
1108 2 2 0 0 542 556 151
1109 2 2 0 0 548 609 135
1110 2 2 0 0 204 620 196
1111 2 2 0 0 529 629 528
1112 2 2 0 0 482 719 230
1113 2 2 0 0 258 627 591
1114 2 2 0 0 336 582 335
1115 2 2 0 0 197 686 667
1116 2 2 0 0 583 658 580
1117 2 2 0 0 85 675 98
1118 2 2 0 0 59 728 379
1119 2 2 0 0 400 625 338
1120 2 2 0 0 394 717 605
1121 2 2 0 0 471 650 450
1122 2 2 0 0 596 635 323
1123 2 2 0 0 249 637 228
1124 2 2 0 0 515 635 596
1125 2 2 0 0 338 625 563
1126 2 2 0 0 28 633 488
1127 2 2 0 0 566 622 361
1128 2 2 0 0 229 570 161
1129 2 2 0 0 468 654 465
1130 2 2 0 0 118 710 462
1131 2 2 0 0 15 612 16
1132 2 2 0 0 589 659 590
1133 2 2 0 0 526 621 268
1134 2 2 0 0 365 647 597
1135 2 2 0 0 579 583 235
1136 2 2 0 0 22 507 21
1137 2 2 0 0 342 682 264
1138 2 2 0 0 441 648 346
1139 2 2 0 0 191 636 198
1140 2 2 0 0 578 653 579
1141 2 2 0 0 135 609 134
1142 2 2 0 0 128 618 122
1143 2 2 0 0 378 681 310
1144 2 2 0 0 230 690 211
1145 2 2 0 0 210 690 232
1146 2 2 0 0 549 643 553
1147 2 2 0 0 233 661 247
1148 2 2 0 0 10 624 11
1149 2 2 0 0 640 709 435
1150 2 2 0 0 449 719 482
1151 2 2 0 0 452 726 33
1152 2 2 0 0 362 577 280
1153 2 2 0 0 318 575 433
1154 2 2 0 0 492 687 396
1155 2 2 0 0 586 734 293
1156 2 2 0 0 357 655 618
1157 2 2 0 0 277 567 259
1158 2 2 0 0 522 641 225
1159 2 2 0 0 511 640 281
1160 2 2 0 0 247 661 483
1161 2 2 0 0 610 693 39
1162 2 2 0 0 272 569 326
1163 2 2 0 0 490 695 70
1164 2 2 0 0 553 643 599
1165 2 2 0 0 532 629 284
1166 2 2 0 0 29 712 17
1167 2 2 0 0 632 665 117
1168 2 2 0 0 618 655 386
1169 2 2 0 0 241 699 576
1170 2 2 0 0 457 728 561
1171 2 2 0 0 485 572 456
1172 2 2 0 0 430 667 621
1173 2 2 0 0 582 672 458
1174 2 2 0 0 395 687 540
1175 2 2 0 0 504 594 44
1176 2 2 0 0 181 713 207
1177 2 2 0 0 197 707 184
1178 2 2 0 0 524 657 556
1179 2 2 0 0 475 536 498
1180 2 2 0 0 394 738 320
1181 2 2 0 0 51 714 561
1182 2 2 0 0 151 556 153
1183 2 2 0 0 437 693 610
1184 2 2 0 0 361 626 568
1185 2 2 0 0 611 679 5
1186 2 2 0 0 231 680 643
1187 2 2 0 0 462 706 118
1188 2 2 0 0 390 670 496
1189 2 2 0 0 602 642 601
1190 2 2 0 0 49 330 48
1191 2 2 0 0 391 665 632
1192 2 2 0 0 508 737 375
1193 2 2 0 0 450 650 552
1194 2 2 0 0 368 732 476
1195 2 2 0 0 578 579 235
1196 2 2 0 0 402 581 308
1197 2 2 0 0 43 486 41
1198 2 2 0 0 562 713 179
1199 2 2 0 0 592 632 480
1200 2 2 0 0 416 641 522
1201 2 2 0 0 372 668 371
1202 2 2 0 0 452 712 439
1203 2 2 0 0 282 720 455
1204 2 2 0 0 556 657 176
1205 2 2 0 0 364 632 592
1206 2 2 0 0 403 726 452
1207 2 2 0 0 465 654 623
1208 2 2 0 0 278 649 105
1209 2 2 0 0 154 652 617
1210 2 2 0 0 383 688 603
1211 2 2 0 0 451 719 447
1212 2 2 0 0 317 709 640
1213 2 2 0 0 604 711 642
1214 2 2 0 0 382 652 383
1215 2 2 0 0 601 642 389
1216 2 2 0 0 284 671 316
1217 2 2 0 0 599 643 402
1218 2 2 0 0 388 633 624
1219 2 2 0 0 267 678 311
1220 2 2 0 0 337 681 530
1221 2 2 0 0 279 661 233
1222 2 2 0 0 605 738 394
1223 2 2 0 0 33 677 504
1224 2 2 0 0 386 655 387
1225 2 2 0 0 547 669 631
1226 2 2 0 0 562 731 479
1227 2 2 0 0 360 648 595
1228 2 2 0 0 432 692 657
1229 2 2 0 0 367 657 524
1230 2 2 0 0 633 695 488
1231 2 2 0 0 415 473 341
1232 2 2 0 0 644 672 336
1233 2 2 0 0 551 633 388
1234 2 2 0 0 533 648 360
1235 2 2 0 0 407 679 611
1236 2 2 0 0 323 635 615
1237 2 2 0 0 530 681 529
1238 2 2 0 0 393 651 394
1239 2 2 0 0 387 655 602
1240 2 2 0 0 238 703 574
1241 2 2 0 0 594 677 505
1242 2 2 0 0 559 692 560
1243 2 2 0 0 621 667 381
1244 2 2 0 0 405 674 376
1245 2 2 0 0 325 732 368
1246 2 2 0 0 623 654 517
1247 2 2 0 0 581 644 336
1248 2 2 0 0 346 648 533
1249 2 2 0 0 517 654 279
1250 2 2 0 0 477 705 481
1251 2 2 0 0 481 705 355
1252 2 2 0 0 561 728 57
1253 2 2 0 0 379 705 477
1254 2 2 0 0 617 652 382
1255 2 2 0 0 30 650 500
1256 2 2 0 0 376 674 385
1257 2 2 0 0 518 715 519
1258 2 2 0 0 474 667 430
1259 2 2 0 0 478 734 294
1260 2 2 0 0 624 633 28
1261 2 2 0 0 186 707 619
1262 2 2 0 0 64 663 475
1263 2 2 0 0 597 647 258
1264 2 2 0 0 377 738 605
1265 2 2 0 0 31 735 467
1266 2 2 0 0 27 718 458
1267 2 2 0 0 419 673 68
1268 2 2 0 0 616 722 393
1269 2 2 0 0 24 723 419
1270 2 2 0 0 397 638 48
1271 2 2 0 0 404 730 460
1272 2 2 0 0 91 676 472
1273 2 2 0 0 622 626 361
1274 2 2 0 0 7 656 32
1275 2 2 0 0 576 697 277
1276 2 2 0 0 471 691 650
1277 2 2 0 0 536 663 373
1278 2 2 0 0 484 691 471
1279 2 2 0 0 552 650 30
1280 2 2 0 0 311 678 600
1281 2 2 0 0 486 729 5
1282 2 2 0 0 418 673 666
1283 2 2 0 0 232 680 231
1284 2 2 0 0 5 679 4
1285 2 2 0 0 117 665 539
1286 2 2 0 0 384 702 616
1287 2 2 0 0 557 702 221
1288 2 2 0 0 87 675 85
1289 2 2 0 0 225 711 604
1290 2 2 0 0 505 677 571
1291 2 2 0 0 483 661 494
1292 2 2 0 0 263 565 375
1293 2 2 0 0 504 677 594
1294 2 2 0 0 582 718 399
1295 2 2 0 0 645 714 46
1296 2 2 0 0 534 708 392
1297 2 2 0 0 643 680 402
1298 2 2 0 0 18 712 452
1299 2 2 0 0 392 670 390
1300 2 2 0 0 221 702 603
1301 2 2 0 0 496 664 391
1302 2 2 0 0 606 710 118
1303 2 2 0 0 655 703 602
1304 2 2 0 0 608 676 91
1305 2 2 0 0 194 684 514
1306 2 2 0 0 541 671 378
1307 2 2 0 0 154 669 652
1308 2 2 0 0 399 718 639
1309 2 2 0 0 405 715 674
1310 2 2 0 0 33 726 677
1311 2 2 0 0 629 671 284
1312 2 2 0 0 468 735 495
1313 2 2 0 0 469 704 408
1314 2 2 0 0 427 745 479
1315 2 2 0 0 294 734 251
1316 2 2 0 0 461 705 379
1317 2 2 0 0 385 674 636
1318 2 2 0 0 657 692 176
1319 2 2 0 0 561 714 411
1320 2 2 0 0 631 669 154
1321 2 2 0 0 264 682 265
1322 2 2 0 0 43 638 486
1323 2 2 0 0 48 638 43
1324 2 2 0 0 194 744 684
1325 2 2 0 0 381 686 380
1326 2 2 0 0 658 716 589
1327 2 2 0 0 263 567 565
1328 2 2 0 0 310 681 337
1329 2 2 0 0 493 685 492
1330 2 2 0 0 64 685 663
1331 2 2 0 0 309 678 267
1332 2 2 0 0 600 678 431
1333 2 2 0 0 538 694 333
1334 2 2 0 0 598 685 64
1335 2 2 0 0 551 695 633
1336 2 2 0 0 560 699 241
1337 2 2 0 0 211 690 210
1338 2 2 0 0 2 723 3
1339 2 2 0 0 630 708 441
1340 2 2 0 0 467 735 468
1341 2 2 0 0 396 687 395
1342 2 2 0 0 35 507 22
1343 2 2 0 0 259 567 263
1344 2 2 0 0 417 673 418
1345 2 2 0 0 614 686 197
1346 2 2 0 0 392 708 630
1347 2 2 0 0 5 729 6
1348 2 2 0 0 279 725 661
1349 2 2 0 0 6 729 26
1350 2 2 0 0 357 703 655
1351 2 2 0 0 514 684 635
1352 2 2 0 0 540 733 538
1353 2 2 0 0 374 741 593
1354 2 2 0 0 176 692 559
1355 2 2 0 0 650 691 500
1356 2 2 0 0 484 736 691
1357 2 2 0 0 83 733 540
1358 2 2 0 0 558 740 372
1359 2 2 0 0 626 697 555
1360 2 2 0 0 436 693 437
1361 2 2 0 0 375 737 374
1362 2 2 0 0 475 663 536
1363 2 2 0 0 636 674 198
1364 2 2 0 0 674 715 198
1365 2 2 0 0 70 695 551
1366 2 2 0 0 406 721 407
1367 2 2 0 0 677 726 571
1368 2 2 0 0 258 647 627
1369 2 2 0 0 448 701 451
1370 2 2 0 0 458 672 506
1371 2 2 0 0 229 700 570
1372 2 2 0 0 684 744 428
1373 2 2 0 0 570 700 544
1374 2 2 0 0 678 742 431
1375 2 2 0 0 646 741 314
1376 2 2 0 0 603 702 384
1377 2 2 0 0 478 731 293
1378 2 2 0 0 309 742 678
1379 2 2 0 0 380 686 614
1380 2 2 0 0 494 725 468
1381 2 2 0 0 500 691 38
1382 2 2 0 0 635 684 615
1383 2 2 0 0 661 725 494
1384 2 2 0 0 679 721 34
1385 2 2 0 0 509 510 35
1386 2 2 0 0 46 714 51
1387 2 2 0 0 615 684 428
1388 2 2 0 0 432 742 689
1389 2 2 0 0 179 713 181
1390 2 2 0 0 26 739 645
1391 2 2 0 0 35 510 507
1392 2 2 0 0 574 703 357
1393 2 2 0 0 184 707 186
1394 2 2 0 0 39 693 612
1395 2 2 0 0 665 694 539
1396 2 2 0 0 312 708 534
1397 2 2 0 0 554 689 309
1398 2 2 0 0 1 737 508
1399 2 2 0 0 519 717 520
1400 2 2 0 0 277 697 622
1401 2 2 0 0 389 711 641
1402 2 2 0 0 495 736 484
1403 2 2 0 0 17 712 18
1404 2 2 0 0 212 722 557
1405 2 2 0 0 455 720 438
1406 2 2 0 0 622 697 626
1407 2 2 0 0 664 694 665
1408 2 2 0 0 447 719 449
1409 2 2 0 0 669 688 652
1410 2 2 0 0 612 693 436
1411 2 2 0 0 619 744 194
1412 2 2 0 0 57 728 59
1413 2 2 0 0 579 658 583
1414 2 2 0 0 438 727 525
1415 2 2 0 0 539 733 83
1416 2 2 0 0 479 731 478
1417 2 2 0 0 691 736 38
1418 2 2 0 0 401 724 400
1419 2 2 0 0 420 660 2
1420 2 2 0 0 328 732 325
1421 2 2 0 0 320 738 453
1422 2 2 0 0 428 744 429
1423 2 2 0 0 431 742 432
1424 2 2 0 0 425 745 427
1425 2 2 0 0 408 743 434
1426 2 2 0 0 571 726 403
1427 2 2 0 0 119 727 523
1428 2 2 0 0 625 706 462
1429 2 2 0 0 525 730 404
1430 2 2 0 0 499 736 495
1431 2 2 0 0 468 725 654
1432 2 2 0 0 336 672 582
1433 2 2 0 0 198 715 518
1434 2 2 0 0 400 724 706
1435 2 2 0 0 402 680 581
1436 2 2 0 0 589 716 659
1437 2 2 0 0 727 730 525
1438 2 2 0 0 664 665 391
1439 2 2 0 0 337 740 558
1440 2 2 0 0 293 731 562
1441 2 2 0 0 523 720 282
1442 2 2 0 0 460 730 119
1443 2 2 0 0 641 711 225
1444 2 2 0 0 429 744 619
1445 2 2 0 0 119 730 727
1446 2 2 0 0 651 722 212
1447 2 2 0 0 38 736 499
1448 2 2 0 0 667 686 381
1449 2 2 0 0 652 688 383
1450 2 2 0 0 410 710 606
1451 2 2 0 0 644 701 448
1452 2 2 0 0 666 673 419
1453 2 2 0 0 704 743 408
1454 2 2 0 0 251 734 586
1455 2 2 0 0 400 706 625
1456 2 2 0 0 546 688 669
1457 2 2 0 0 668 700 229
1458 2 2 0 0 538 733 694
1459 2 2 0 0 333 694 664
1460 2 2 0 0 565 662 375
1461 2 2 0 0 720 727 438
1462 2 2 0 0 372 700 668
1463 2 2 0 0 579 716 658
1464 2 2 0 0 642 711 389
1465 2 2 0 0 355 705 461
1466 2 2 0 0 407 721 679
1467 2 2 0 0 523 727 720
1468 2 2 0 0 654 725 279
1469 2 2 0 0 639 718 27
1470 2 2 0 0 694 733 539
1471 2 2 0 0 393 722 651
1472 2 2 0 0 645 739 397
1473 2 2 0 0 683 741 374
1474 2 2 0 0 397 739 638
1475 2 2 0 0 653 716 579
1476 2 2 0 0 666 723 660
1477 2 2 0 0 419 723 666
1478 2 2 0 0 374 737 683
1479 2 2 0 0 593 741 646
1480 2 2 0 0 683 737 1
1481 2 2 0 0 689 742 309
1482 2 2 0 0 660 723 2
1483 2 2 0 0 23 25 1
1484 2 2 0 0 25 607 1
1485 2 2 0 0 3 34 2
1486 2 2 0 0 34 415 2
$EndElements
