$MeshFormat
2.2 0 8
$EndMeshFormat
$Nodes
745
1 2.3716014279093591e-05 2.3022185383932710e-05 9.7498373270822679e-04
2 1.8296897449636980e-05 -3.8264128201599278e-05 -9.7371269380362832e-04
3 1.3121760654864910e-04 1.6449665361570434e-05 -9.6581999962481709e-04
4 2.1922516144893306e-04 3.2655445119464648e-05 -9.5111456193887757e-04
5 3.4491659125056816e-04 4.2948619650663235e-05 -9.1583191108830721e-04
6 4.9167196832073799e-04 -8.7940374974538692e-07 -8.5154400361814482e-04
7 6.1000721974695119e-04 -1.4762448563874469e-05 -7.7710935562055015e-04
8 7.3913652742899614e-04 -1.2730574019291885e-05 -6.6561801604292641e-04
9 8.3681605577328724e-04 -4.2745723701762414e-06 -5.4903862056193621e-04
10 9.1166263735808876e-04 7.7215162668290979e-07 -4.2584681960281489e-04
11 9.6855145384581835e-04 1.5426785714903458e-06 -2.8909360005437552e-04
12 1.0035297104817613e-03 2.7637641195380735e-06 -1.4406874020010077e-04
13 1.0147278784073677e-03 2.0556963351569457e-08 -1.7075813152064571e-06
14 1.0038253442626009e-03 9.0839855694657125e-06 1.4018478437642840e-04
15 9.7160713239475953e-04 1.4171857772859710e-05 2.7870802716952354e-04
16 9.1586723159024265e-04 1.1255718217219509e-05 4.1755305188761842e-04
17 8.3506435467006746e-04 3.2466388923251048e-06 5.5147089164412114e-04
18 7.3391856113325397e-04 1.4213779847433521e-06 6.7100779311484577e-04
19 6.1478274016347676e-04 -6.3296898859431703e-07 7.7405563418978971e-04
20 4.9065593459055761e-04 2.0893331198468922e-07 8.5229689647752947e-04
21 3.6958668221600237e-04 -1.9108467864870728e-06 9.0739088591050186e-04
22 2.5384385008947946e-04 3.6472369074392702e-06 9.4372600661676138e-04
23 1.4588899062875733e-04 -1.3129918348460029e-06 9.6426114974594438e-04
24 1.5328913972057384e-04 1.3210689524999726e-04 -9.5514462859888996e-04
25 1.6242286656194523e-04 9.7573158845219119e-05 9.5846126113319436e-04
26 5.6819462139577083e-04 1.0075860963243686e-04 -7.9974750452240916e-04
27 5.5773024668149878e-04 -1.1313329237386762e-04 8.0574599881279741e-04
28 9.8028175414328249e-04 1.3446811111761137e-04 -2.1479871608725000e-04
29 8.6364497902700519e-04 1.4689813790226167e-04 4.9108856722784487e-04
30 9.4227734174991411e-04 -1.1229656857998878e-04 3.4316288361734026e-04
31 9.8188662701876217e-04 -1.1597968033229143e-04 -2.1777324046871538e-04
32 5.2520912066716865e-04 -1.1799812623653487e-04 -8.2527847137808363e-04
33 5.3587575230883047e-04 1.1348815231032681e-04 8.1920073647402322e-04
34 1.7093467844365512e-04 -7.1433785859874264e-05 -9.5888979634406262e-04
35 1.9791246615149849e-04 -1.0758087708308681e-04 9.5030465808213708e-04
36 7.8739938889365354e-04 -1.1563469013602527e-04 6.0253449518889298e-04
37 7.8841739572383155e-04 1.1183895401277314e-04 -6.0175622952740192e-04
38 1.0053864105135188e-03 -1.1027418870479179e-04 7.5306397895268166e-05
39 9.8235995859241284e-04 1.3148820926016662e-04 2.0640785198327918e-04
40 8.6596872146212274e-04 -1.2705042022607445e-04 -4.9116386031267437e-04
41 2.6426033312763100e-04 1.5261188575274221e-04 -9.2909927132089128e-04
42 2.1036093371713287e-04 2.5342104813348888e-04 -9.2107425279828103e-04
43 3.2342030775443808e-04 2.6318834559418318e-04 -8.8707946847745413e-04
44 2.9486583326596816e-04 1.0132375704391534e-04 9.2761644677513981e-04
45 6.7523795922510524e-04 1.0073968367733618e-04 -7.1885146292441826e-04
46 7.1729566337059474e-04 2.2590151733240728e-04 -6.5189791154011164e-04
47 2.7172987966195673e-04 3.6058375554717922e-04 -8.7122138629755507e-04
48 3.8022696415823925e-04 3.5370328012743825e-04 -8.3526203329361572e-04
49 3.2408699990739079e-04 4.6586796542290098e-04 -8.0548057334077516e-04
50 8.0938411465572590e-04 2.4652720183800445e-04 -5.3530093492095907e-04
51 7.3156223665659834e-04 3.6833285430419192e-04 -5.7269248338546813e-04
52 8.1760102475274190e-04 3.7565874559836469e-04 -4.4743572644710184e-04
53 7.2799628245614762e-04 4.9629122411304252e-04 -4.8043380480549471e-04
54 8.1057093680591435e-04 4.9094070710368044e-04 -3.4502948549940663e-04
55 7.2112593656730362e-04 6.0176209365402273e-04 -3.6536408295717799e-04
56 7.9031317289714762e-04 5.8653245665555491e-04 -2.3384139059625281e-04
57 6.3898942127449062e-04 6.0072021525806811e-04 -4.8653777655415431e-04
58 6.1952925940979471e-04 6.9718864573713852e-04 -3.7994390060035096e-04
59 5.2662380409214718e-04 6.9487533556057918e-04 -4.9452514278871184e-04
60 4.9755116916958030e-04 7.8170733805137007e-04 -3.9287033390109994e-04
61 3.9771360333935439e-04 7.6539644865538910e-04 -5.0952640613194811e-04
62 3.6636437312175679e-04 8.5043170326708976e-04 -3.9410808184621991e-04
63 2.0643720617944864e-04 4.5105897754898935e-04 -8.4831136701128088e-04
64 4.6179423452645909e-04 8.5041045524071048e-04 -2.8749954712955226e-04
65 2.5903447841146046e-04 8.2663230035734544e-04 -5.0391851893719075e-04
66 2.3036041737688854e-04 9.0479100241413731e-04 -3.7725806758024359e-04
67 1.2644890744304535e-04 8.7085467426586852e-04 -4.8139614926200546e-04
68 1.0231064380031941e-04 2.2989778345942612e-04 -9.4348827499659736e-04
69 1.4191631788067449e-04 7.7312835903728860e-04 -6.1416422465788458e-04
70 8.6863302777697013e-04 4.7037535758800769e-04 -2.1889977377385469e-04
71 8.4320841828583633e-04 5.5362141406533022e-04 -1.0258441716175759e-04
72 7.5014184877789645e-04 6.6992269780623206e-04 -1.2502878324540404e-04
73 7.8787531762102134e-04 6.3884155832301826e-04 -4.7152649541512785e-06
74 6.8064385739636287e-04 7.5132385044537821e-04 -2.4321016829637334e-05
75 7.0655707529132593e-04 7.2116213143980036e-04 9.0262786876900333e-05
76 5.8890471034445471e-04 8.2167017328874418e-04 7.4382659208462550e-05
77 6.1859920381666900e-04 7.7495161396338498e-04 2.0217554126629415e-04
78 5.0350546587324429e-04 8.5817298285144577e-04 1.8624062718174364e-04
79 9.3845838780261956e-05 9.4309068460184673e-04 -3.4360787208985200e-04
80 -1.4406392630872122e-05 9.0422126116502513e-04 -4.3728702035149237e-04
81 2.2462981058904443e-04 2.1800505663701171e-04 9.2721377349476463e-04
82 5.2600463922819994e-04 8.0106042534709146e-04 3.1694710131925435e-04
83 -4.3374659037409418e-05 9.6005561594635969e-04 -3.0659492926203856e-04
84 4.0664286041576785e-04 8.7632516897199705e-04 2.9389504849743986e-04
85 4.1525721505068157e-04 8.1549476485733312e-04 4.1730945499066541e-04
86 2.9718302202277820e-04 8.8066229493162875e-04 3.8688776474251051e-04
87 3.0109256043110981e-04 8.1164327762265633e-04 5.0438018426742187e-04
88 1.7709182680413329e-04 8.6582128605258387e-04 4.7505276738381427e-04
89 1.6831927859099134e-04 9.3390104747593454e-04 3.4076279128121399e-04
90 4.8079334583933393e-05 9.0920544296999679e-04 4.2608948988956592e-04
91 6.3654330798411596e-05 8.3043149668611841e-04 5.5323377937253546e-04
92 -6.0091374755441886e-05 8.6426115970544490e-04 5.0324339115127316e-04
93 -8.8053423631109608e-05 9.3001731967565443e-04 3.7587440690995744e-04
94 -1.9405963571226222e-04 8.7491531568166308e-04 4.5257253084798665e-04
95 -1.6065555237162004e-04 8.0789021697844142e-04 5.6396639125274402e-04
96 -2.2552004145540630e-04 9.2570945240792648e-04 3.3031068543921320e-04
97 1.0794612068086860e-04 2.1543059962538571e-04 9.4690592173117506e-04
98 5.4826956350133163e-04 7.0953547750836083e-04 4.5512642680000027e-04
99 1.5689114059769173e-04 3.2527056807472887e-04 9.1052554923941602e-04
100 3.5308096141291835e-05 3.3083916255838850e-04 9.2047416409294681e-04
101 -1.0411410127943789e-05 2.2063713721784574e-04 9.5128917809672012e-04
102 -9.1261174539486846e-05 3.2338546127029641e-04 9.1928585349782400e-04
103 2.0241457734550139e-04 9.5966849201131374e-04 -2.4437764143453401e-04
104 -1.0910352658876028e-04 9.7314025660395482e-04 2.4977780314362936e-04
105 -2.5050318583549192e-04 9.5617883130627286e-04 2.1384952099947553e-04
106 -3.6407912790024731e-04 8.9676153364040057e-04 2.8743314076466519e-04
107 -1.5372685393990216e-04 9.1615450018280855e-04 -3.8664514577572387e-04
108 -1.2672882882451265e-04 8.4828565504353488e-04 -5.1613941271146026e-04
109 -3.8730206354266761e-04 9.2201004950110289e-04 1.5706676010322822e-04
110 -2.6536682301568268e-04 8.5050251793833886e-04 -4.6151961084347359e-04
111 -2.3197638862834725e-04 7.7695632992953766e-04 -5.8168425329122736e-04
112 -3.7203524106378644e-04 7.6889255251990979e-04 -5.2159730382550225e-04
113 -3.3696493767003931e-04 6.8936093656071979e-04 -6.3398635268978982e-04
114 -4.6423364412760757e-04 6.7350464536652542e-04 -5.7254149400230118e-04
115 -4.2253151585506062e-04 5.8516597809061589e-04 -6.8170478243005867e-04
116 -4.9762093282309833e-04 7.4702812983544139e-04 -4.4966740298725024e-04
117 -2.9193777718819871e-04 9.0711386636272383e-04 -3.2882991509428620e-04
118 -2.8603980057228086e-04 7.9000567850451460e-04 5.4375520547656495e-04
119 7.2166755479833092e-04 6.7320326267228208e-04 2.2078751671445631e-04
120 -2.9587907376356235e-04 5.9185349760193225e-04 -7.3605613239748503e-04
121 -3.7839948482041978e-04 4.8403984577910080e-04 -7.7314883269256820e-04
122 -4.9889712904120100e-04 4.6583575702818482e-04 -7.1810416010110241e-04
123 -4.4535672508883202e-04 3.6096103957507713e-04 -8.0196799383993331e-04
124 -5.8618166640980014e-04 6.4407329231220298e-04 -4.9549642506438213e-04
125 -6.1437106768773015e-04 7.0850640925649276e-04 -3.6687471146351196e-04
126 -7.0025034526358619e-04 5.9714725415801464e-04 -4.0533762641433818e-04
127 -4.9118491259202124e-04 8.5400240162046613e-04 2.2771026182840661e-04
128 -5.6535846408972289e-04 3.4004068099088418e-04 -7.3754805877694380e-04
129 -5.0617256655923501e-04 2.3024303805380488e-04 -8.1313424071795108e-04
130 -6.2501727743814273e-04 2.1648351103019327e-04 -7.3620780441110642e-04
131 -5.6045826593440341e-04 1.0585493206941731e-04 -8.0398200317880950e-04
132 -6.7821114007938718e-04 9.0069814261036060e-05 -7.1700587177281826e-04
133 -6.0833040959881550e-04 -1.9375420592384667e-05 -7.7766747263414862e-04
134 -7.2024123658977440e-04 -4.0496223815354006e-05 -6.8262119027820553e-04
135 -6.4073936835432272e-04 -1.4949289773709014e-04 -7.3962298359714265e-04
136 -7.8449515167195523e-04 7.4930977573545404e-05 -6.1068774736900214e-04
137 -8.1735438147825801e-04 -6.6982546417616466e-05 -5.7054394135213282e-04
138 -8.7441708995922708e-04 5.0182348536797922e-05 -4.8832591244637688e-04
139 -8.9760942607542500e-04 -9.0180961947006853e-05 -4.4232923983061499e-04
140 -9.4417353416072171e-04 1.7647966101088877e-05 -3.5220673706729086e-04
141 -9.5482893690018494e-04 -1.1965471075706940e-04 -3.0516732765835044e-04
142 -9.8847720880102007e-04 -1.3881356557821183e-05 -2.1479349953777008e-04
143 -9.8752525589623167e-04 -1.5236557709324904e-04 -1.6520507362077725e-04
144 -1.0096494515799696e-03 -4.3102163999255367e-05 -7.9251467814098620e-05
145 -9.9785427135426420e-04 -1.7868022632679546e-04 -2.8110417388989721e-05
146 -1.0105513656332105e-03 -6.2730175372683298e-05 5.2345542090984739e-05
147 -9.8876189623903622e-04 -1.9517340252971744e-04 1.0780321338792193e-04
148 -9.6505222038774699e-04 -3.1079140410591777e-04 2.6197649397576468e-05
149 -9.4605484716548652e-04 -3.2315963471418686e-04 1.6297610317790186e-04
150 -9.5999762980316316e-04 -2.0204304411455348e-04 2.4547881598181156e-04
151 -9.0892337426755159e-04 -3.2345011834630539e-04 2.9866348498150223e-04
152 -9.1054402022798379e-04 -2.0199686840056461e-04 3.8066510565757088e-04
153 -8.5013121385438305e-04 -3.1969993912974126e-04 4.3118255213022094e-04
154 -9.0193867347845022e-04 -2.2285991928519731e-04 -3.8794706521884544e-04
155 -8.3682547432932541e-04 -2.0149707829661797e-04 5.1296186451490556e-04
156 -7.6702237779408249e-04 -3.2169591822605703e-04 5.5504659728748565e-04
157 -8.8877900907324077e-04 -7.2977012338781651e-05 4.6202470457448866e-04
158 -7.3860437567627776e-04 -2.1116484993308066e-04 6.3384568129287125e-04
159 -6.6043140816709654e-04 -3.2979566106154564e-04 6.6618508725877087e-04
160 -1.0113320712964932e-03 7.1392069379942001e-05 1.7146808376266732e-06
161 -6.3053669707022056e-04 -2.1591073749454063e-04 7.3262786750350167e-04
162 -5.4026053252775842e-04 -3.1879792054589218e-04 7.6443943125768939e-04
163 -5.2003107676380290e-04 -1.1933776258649344e-04 -8.2739034335495342e-04
164 -5.4671137579310634e-04 -2.4854587204931479e-04 -7.8374626402252703e-04
165 -7.2236235259169135e-04 6.4894895680578846e-04 -2.7670267968497229e-04
166 -1.4100165997154088e-04 2.1886912529574395e-04 9.4189446138227384e-04
167 -2.2226957398722042e-04 3.1003899212872916e-04 9.0250225327850007e-04
168 -4.2032035097084490e-04 -2.0848712465342526e-04 -8.6312412877668696e-04
169 -4.3664226357641433e-04 -3.3667575892352595e-04 -8.1682659047169215e-04
170 -5.5544849642870603e-04 -3.7846966938957273e-04 -7.2808879229627861e-04
171 -4.4149757518134966e-04 -4.6639757441883922e-04 -7.5287781514565984e-04
172 -5.5627876344527814e-04 -5.0758188842641729e-04 -6.5099875426621228e-04
173 -4.4293034720589063e-04 -5.9025870313387217e-04 -6.6681544451829236e-04
174 -5.4362436710852190e-04 -6.2629097530970577e-04 -5.5901866116933097e-04
175 -4.3183715216336450e-04 -7.0532609536670850e-04 -5.6226178974153702e-04
176 -7.7711922031209176e-04 -4.2977232485099965e-04 4.6776095603779440e-04
177 -5.2726378563729256e-04 -7.2716424732096393e-04 -4.5065675494815300e-04
178 -4.0710077585145895e-04 -8.0447447037306993e-04 -4.4456938270470779e-04
179 -3.1536267765642795e-04 -7.7755077663202411e-04 -5.4525203460050332e-04
180 -2.8394730377285181e-04 -8.6624752837300074e-04 -4.2564053141621515e-04
181 -1.8317274590320140e-04 -8.3239148223210248e-04 -5.2613983116383948e-04
182 -1.5020392142907785e-04 -9.0942867752885420e-04 -4.0530085120473646e-04
183 -4.7457330618340495e-05 -8.5920624268620799e-04 -5.1429933928207787e-04
184 -1.5240237037166843e-05 -9.2993060239321315e-04 -3.8741987650162607e-04
185 -1.0899712992128020e-04 -9.6540618597063367e-04 -2.7949265215782785e-04
186 3.2262109551399735e-05 -9.7869959874518405e-04 -2.5361384946253772e-04
187 -6.1043720481360612e-05 -1.0005216372479296e-03 -1.5020015400725014e-04
188 8.6240134246227186e-05 -1.0022867079822529e-03 -1.2706513164327705e-04
189 -1.0610400633902250e-05 -1.0142998220524116e-03 -2.1949286591048381e-05
190 1.3019528440912553e-04 -1.0063101977161547e-03 7.4914080926035670e-06
191 3.2953513435635161e-05 -1.0076097676281705e-03 1.0933683085303460e-04
192 1.6924870777059749e-04 -9.8969977116741001e-04 1.4031677594552358e-04
193 6.9015571868321268e-05 -9.8008904414497279e-04 2.4209764424645464e-04
194 2.2252284532549147e-04 -9.8553012888103202e-04 -8.8714907149911075e-05
195 2.0467987339445055e-04 -9.5318775051711632e-04 2.6905173263854480e-04
196 1.0052353196406763e-04 -9.3168042699554065e-04 3.7189942128847153e-04
197 1.1056346205771578e-04 -8.7791936989045074e-04 -4.7619993786386525e-04
198 -9.8787098541486821e-05 -1.0060596292276031e-03 7.9717371189841474e-05
199 2.3729255105981137e-04 -8.9548272306541729e-04 3.9575597832068485e-04
200 3.3923683277612153e-04 -9.0747905961732799e-04 2.8854026824092226e-04
201 3.6634869251220037e-04 -8.3933392312386570e-04 4.1763875283185265e-04
202 1.3147223593918146e-04 -8.6123274012421742e-04 4.9735004754981643e-04
203 4.6576056772629421e-04 -8.4180244027307700e-04 3.0823386239931715e-04
204 -4.6400767764092671e-06 -8.8990613404575387e-04 4.6589989536974843e-04
205 2.8915028252141451e-05 -8.0556935878422727e-04 5.8959930498534406e-04
206 -9.1177770387631510e-04 -4.3693727321370538e-04 7.7110165457652230e-05
207 -8.2969568634111651e-05 -7.6661653710677260e-04 -6.3184500110607174e-04
208 -1.0704400758618984e-04 -8.2656231573880379e-04 5.5342437440126352e-04
209 -7.2763800882612976e-05 -7.3161340174029055e-04 6.6958920696463939e-04
210 4.8910664330396338e-04 -7.6389676688642168e-04 4.3459033886479007e-04
211 5.7921765972314366e-04 -7.6422986752340159e-04 3.1649786221919090e-04
212 -4.9993467895267235e-04 -8.1068758805399280e-04 -3.3345362478138298e-04
213 5.6543421862647467e-05 -7.0347338644025851e-04 6.9832419514532227e-04
214 -4.0595726550156288e-05 -6.2255215656777812e-04 7.6710995333707050e-04
215 -3.0583155220593604e-04 -2.9607492273146330e-04 -8.8401899142738938e-04
216 -2.0307902844240303e-04 -7.4517211478643784e-04 6.2978678170178166e-04
217 -2.3773966093996286e-04 -8.3385994971949266e-04 5.0367544078531946e-04
218 5.5596028533015369e-04 -8.2331960171448822e-04 1.9774911065154705e-04
219 6.7098405248477229e-04 -7.2781041210369542e-04 2.1391980832205268e-04
220 6.3669681143300235e-04 -7.8478688527115000e-04 8.8870651328502710e-05
221 -6.3441253108853697e-04 -6.4147560157436397e-04 -4.4298275806620824e-04
222 7.3903343870951603e-04 -6.8701183103944804e-04 1.0482914541268143e-04
223 6.9960902907810940e-04 -7.3462242935363965e-04 -2.6046737490020066e-05
224 -2.8768006668933337e-04 -1.6205707714998230e-04 -9.2116486644452987e-04
225 -9.7091955306307395e-04 1.1300390845597282e-04 -2.5549623390759286e-04
226 8.0105523938530114e-05 -5.8704541853941093e-04 7.8998434401301326e-04
227 -8.7343794797797374e-06 -4.9946544053890781e-04 8.4748024957707955e-04
228 -5.1475898640877718e-04 -1.9380075232865789e-04 8.1763063375349301e-04
229 -5.8891894420141434e-04 -9.6849009241616364e-05 7.8609081733674107e-04
230 6.7891390843315418e-04 -6.6280253140540567e-04 3.4356879717473317e-04
231 3.9078858454571369e-04 -7.5238477089911542e-04 5.3308845541523789e-04
232 5.1695412514076279e-04 -6.5923669781096450e-04 5.4909537027905556e-04
233 7.8844796466231027e-04 -6.3847772418691251e-04 -1.6530639588786646e-05
234 7.4520619042946841e-04 -6.7173650039146582e-04 -1.4502216258555702e-04
235 -3.8173260772388540e-04 2.5249597149775208e-04 -8.6834416174094036e-04
236 2.8370673924817179e-04 3.2358676446072248e-04 8.8205308619896045e-04
237 -4.2125639610981049e-04 -2.8738309983902013e-04 8.4167060139117729e-04
238 -8.3833516701838529e-04 1.9886262384194466e-04 -5.1203167145357333e-04
239 6.5036313062537699e-04 -7.6234796137521395e-04 -1.5280063366027792e-04
240 6.8428778461172705e-04 -6.9130998453309446e-04 -2.7618781797811412e-04
241 -5.7050935697885974e-04 -4.3259699118365429e-04 6.8847415485791437e-04
242 5.8136249007856267e-04 -7.7794155448743696e-04 -2.8107235399969820e-04
243 6.0636958445614889e-04 -6.9768451940489850e-04 -4.0033018634534802e-04
244 7.0983478493412432e-04 -6.0008779238935369e-04 -3.8927050437630677e-04
245 6.2294707092116727e-04 -5.9870920735737509e-04 -5.0928943869465841e-04
246 -1.8415355750588032e-04 -2.4473473366792468e-04 -9.2897740882770790e-04
247 8.2690815857873999e-04 -5.7817096255468952e-04 1.0403152273667137e-04
248 2.2781585001023294e-04 4.3381184058852526e-04 8.5243883353815979e-04
249 -3.9031632285382845e-04 -1.5384253014449981e-04 8.8681927902645229e-04
250 3.5584741070158462e-04 4.3141514479465981e-04 8.1179414913703596e-04
251 -2.0956335375035755e-04 -3.6233238796009351e-04 -8.8716097645497049e-04
252 -8.5880162715328663e-05 -3.2157389047804516e-04 -9.2068007030083839e-04
253 3.8560939213215832e-04 9.2405728982459829e-04 1.5191813318218963e-04
254 -6.2939539317768587e-04 7.5421953221463237e-04 -2.3736672566649174e-04
255 -7.2513882699431109e-04 6.9026784040937376e-04 -1.4941515547425727e-04
256 -8.1051399417379961e-04 5.7895500411961538e-04 -1.7856914270107511e-04
257 -8.0006978390765704e-04 6.2027899901145227e-04 -4.5277967898933792e-05
258 -3.2211290344882963e-05 4.2790376887553728e-04 8.8239013183158920e-04
259 -3.0319549755659160e-04 -2.3855036122670805e-04 9.0102490501072126e-04
260 -2.6975646782342985e-04 2.0188763891714479e-04 9.1894009374353478e-04
261 -3.5243961260867388e-04 3.0446928236736715e-04 8.6496645922013468e-04
262 -2.7000235232291757e-04 -1.1359679476976432e-04 9.3302218581722092e-04
263 -1.7585991859260603e-04 -1.8787677276386051e-04 9.4294923288953210e-04
264 -8.7573978462155810e-04 5.0417822561981622e-04 -7.6286899549140344e-05
265 -8.5107274354480908e-04 5.4738638367546550e-04 5.7225428286059729e-05
266 -3.3639002768707051e-04 -7.4742464239264353e-04 5.7195950456300870e-04
267 -3.6847295394521525e-04 -8.2494023653504993e-04 4.4085862761809505e-04
268 5.1109136519483160e-04 -6.9203881855167443e-04 -5.1485147773020596e-04
269 5.1852176584745748e-04 -5.8320242462901370e-04 -6.2116846810015072e-04
270 6.3338111516124970e-04 -4.8162771762082668e-04 -6.0305469391569509e-04
271 5.1717266655520089e-04 -4.6218456915302812e-04 -7.0983810428100448e-04
272 3.9348869555046385e-04 -5.5364594271719799e-04 -7.2257209624566247e-04
273 -2.9891661675420747e-04 4.0514099052479995e-04 8.4487427800354338e-04
274 -4.3021853883054968e-04 4.0516674140319116e-04 7.9042044663428469e-04
275 3.8354999400514280e-04 -4.3241778059343569e-04 -8.0002039640701759e-04
276 2.6715956245055628e-04 -5.1620041881291238e-04 -7.9790663553278203e-04
277 -3.2447287225320377e-04 -3.6142887674457989e-04 8.5471473424016445e-04
278 -1.2669393558821775e-04 9.9561742676990898e-04 1.3447796080261375e-04
279 8.2535921064460171e-04 -5.7295892880521854e-04 -1.3334309488335401e-04
280 -2.4343687293312699e-04 4.7546701584793113e-04 -8.2674212513416257e-04
281 -1.4951383051661093e-04 5.7022032237649255e-04 -7.9102170299783598e-04
282 8.8087450722714442e-04 5.0381460491879561e-04 2.9553268509989701e-05
283 1.0811674320182107e-04 -4.5607649317873958e-04 8.6394553576065890e-04
284 -1.0035690792655728e-03 5.1308617051651478e-05 1.2739422425529093e-04
285 -9.2217687670197721e-04 -4.1717012957591756e-04 -6.2931361747219674e-05
286 -8.6076264823364693e-04 -5.3654504067181176e-04 -1.5623573675354832e-05
287 -8.4349565779995544e-04 -5.4843573913692506e-04 1.2321738723975375e-04
288 -7.8320116100982664e-04 -6.4403649828515127e-04 2.9897923404255239e-05
289 -7.6022761651048593e-04 -6.4935342151881082e-04 1.6369308499463955e-04
290 -6.8597716399820677e-04 -7.4291976437000488e-04 7.6986808870000843e-05
291 -2.0318041069692272e-04 -9.7859635147048377e-04 -1.6732394870001198e-04
292 -2.7417780550874701e-04 -8.9534401641765474e-04 3.7322272320778688e-04
293 -3.3145213497596870e-04 -5.4351602462915686e-04 -7.5746459259627631e-04
294 -1.0149514847454940e-04 -4.5934333395240162e-04 -8.6360859063437992e-04
295 -4.7987844586363908e-04 2.9595817880677649e-04 8.0888040105759826e-04
296 -5.5304261578431114e-04 4.0081544019664314e-04 7.1835740173723038e-04
297 -8.7957279295798412e-04 4.5441840529597294e-04 -2.0775089073382292e-04
298 -6.0587686125169711e-04 2.6654498687903738e-04 7.3663104214582488e-04
299 -6.6942719913930531e-04 3.7611573945069582e-04 6.3421102389981515e-04
300 -6.0592139574462125e-04 4.9956758615734437e-04 6.1413779520501106e-04
301 -7.2132674834706205e-04 4.6635765792130086e-04 5.1546695613697853e-04
302 -7.7632820460630191e-04 3.3692645035940226e-04 5.3425066543464023e-04
303 -3.0086092134921211e-04 -6.4967444009211340e-04 6.8852787815801763e-04
304 -6.4412083941447064e-04 5.8875825011950149e-04 4.9411702070597163e-04
305 -8.1569849090832225e-04 4.1910887142593734e-04 4.1352737139720847e-04
306 2.0105024946175120e-04 -5.4091912737074584e-04 8.0059911785595995e-04
307 2.2587160999430097e-04 -4.1524514821405915e-04 8.6193333075847004e-04
308 3.3364933586870534e-04 -4.8999855766490108e-04 7.9010377202863395e-04
309 -4.5460195711497550e-04 -7.4318655155113675e-04 4.9605405853616117e-04
310 -8.6641262653673471e-04 2.8280895681230111e-04 4.2468953751226729e-04
311 -4.0960231500242487e-04 -8.7112295174918803e-04 3.0637357208133183e-04
312 -7.7020038543834765e-04 6.5317939236123285e-04 8.1417606902876706e-05
313 -8.6188883704258509e-04 -5.0882643885864700e-04 -1.5718578031407909e-04
314 -6.0178124032518826e-05 1.2214332116470595e-04 9.6623064477693757e-04
315 -8.9726040411945089e-04 3.5409786712495257e-04 2.9956580091276141e-04
316 -9.9274581780917667e-04 1.8523794048858929e-04 8.4635244415066560e-05
317 -9.9876891583204920e-05 7.6528874155493587e-04 -6.2859591710357854e-04
318 2.5953171033261382e-04 -3.9601408736194172e-04 -8.6138326802575064e-04
319 -7.0127510161120351e-04 -7.3016937194252400e-04 -6.2783814003959749e-05
320 -6.0830018383138825e-04 -8.1144928162715368e-04 -4.9299687329622776e-06
321 -6.5863749818357003e-04 -4.1410050510424520e-04 -6.2295612440912669e-04
322 -5.8085224738263356e-05 -2.0550393376482563e-04 -9.5285138551853604e-04
323 5.2462493658037707e-04 -8.6491622561023879e-04 7.6908360583375485e-05
324 -6.2773358160901247e-04 7.8784325703816905e-04 -1.0421141221741773e-04
325 2.8774030318196584e-04 5.4144517486826905e-04 7.7464034551462608e-04
326 2.7211101184159309e-04 -6.3489434768326119e-04 -7.1231711978644472e-04
327 1.4967613912505757e-04 -5.9412974384412095e-04 -7.7583109502741708e-04
328 4.2085453153006483e-04 5.3364431765671138e-04 7.2146512511278029e-04
329 4.8407673347199772e-04 4.1834998173727724e-04 7.5456282969809285e-04
330 4.3969181350775050e-04 4.4266407654812201e-04 -7.6586996380534713e-04
331 1.3573731316099724e-05 9.9726475988315324e-04 1.7220481076613602e-04
332 -1.0298643992650578e-05 1.0120964471636588e-03 4.8559609810767902e-05
333 -1.5907652519086152e-04 1.0007045693348599e-03 2.1011498842497076e-06
334 1.2305953183096714e-04 1.0022036147532306e-03 8.3928368733967839e-05
335 3.4974252106903129e-04 -3.5812913153605641e-04 8.4718835978546912e-04
336 4.5014533776790891e-04 -4.2247039465695586e-04 7.7211826716630776e-04
337 -8.1623211896217243e-04 2.0869505238929568e-04 5.3922339134937383e-04
338 -3.5630936835695103e-04 5.1334448827205733e-04 7.6558424383394341e-04
339 -1.1626484021862253e-04 4.4732426244987404e-04 -8.6605530498251766e-04
340 3.6206458219377116e-04 -3.0243876678815113e-04 -8.6221091143016536e-04
341 2.0687847856680057e-05 -2.8416399447864986e-04 -9.3541484177372210e-04
342 -9.4366734010054140e-04 3.5817433028292878e-04 -9.8868685027644353e-05
343 1.8784725865338317e-05 -3.7481649363818224e-04 9.0539440456622862e-04
344 -5.2337144397194614e-04 6.1205001884430399e-04 5.8982753882910949e-04
345 -5.4317539192427387e-04 7.1184951114084522e-04 4.5690940389242967e-04
346 -6.6744763183723081e-04 6.6287245592891236e-04 3.6164687469492291e-04
347 6.1720487682556842e-04 -3.6090351099929896e-04 -6.8992765046967835e-04
348 7.2488573640312813e-04 -3.6974852812227550e-04 -5.8045331564557379e-04
349 5.4272304014430135e-04 5.1920586153753447e-04 6.5272552537604285e-04
350 6.0479279504108672e-04 3.9972150444206312e-04 6.7948285742999888e-04
351 6.6054769675285836e-04 4.8795186489699585e-04 5.6967856855035122e-04
352 7.1369931957807856e-04 3.6000829421116778e-04 5.9777370690732598e-04
353 7.5793356707850603e-04 4.4772307969719781e-04 4.8201881585061078e-04
354 -6.5338283989866341e-04 -7.4476146240818556e-04 2.0788411596470006e-04
355 2.6204997458209123e-04 5.5396721095244013e-04 -7.7385522099506204e-04
356 1.4004971281482434e-04 5.5180290106478810e-04 -8.0455422665914997e-04
357 -6.7369346507561826e-04 3.2146910135313000e-04 -6.5611619501992381e-04
358 5.4045659014593747e-04 -8.4294856903803972e-04 -1.5675283080329795e-04
359 4.5947994437159118e-04 -8.5649022043890227e-04 -2.7824319639174928e-04
360 -8.3338709549237507e-04 4.9155575032567482e-04 2.8947356272800677e-04
361 -1.3089455440800559e-04 -5.3158979228555146e-04 8.1929623983185952e-04
362 -1.9497266665716417e-04 3.4960408700026024e-04 -8.9446273430546133e-04
363 -2.3237597198196624e-04 5.1047444507552615e-04 8.1019610333340336e-04
364 -5.2932204091768378e-04 8.4224666956287644e-04 -1.8413590399121087e-04
365 1.6220268586568493e-04 5.4407439421243491e-04 8.0621735231188151e-04
366 -3.6087103220343249e-04 -2.6008042789155634e-05 9.1006523857578884e-04
367 -7.1251107908302874e-04 -6.5100297887004321e-04 2.9803456484837237e-04
368 2.0934405694774939e-04 6.6464206921124948e-04 7.0696269312415985e-04
369 8.3986930545217249e-05 6.2762214697562393e-04 7.5859251624220902e-04
370 6.9864012497663705e-04 -2.4866545268665928e-04 -6.6350611703798489e-04
371 -5.2554718982474166e-04 1.6618556888958269e-04 8.1697955510448908e-04
372 -6.5394789654090260e-04 1.2956313623468097e-04 7.3322384552242646e-04
373 5.6731642129976016e-04 8.3870861357854016e-04 -4.7904908773691513e-05
374 -1.4844573818506497e-04 -6.6467270470053986e-05 9.6243866280726017e-04
375 -3.7990614098115479e-05 -1.5255245026928971e-04 9.6329828401107997e-04
376 -3.0727810423898471e-04 -9.3490525790703403e-04 2.3611515692894576e-04
377 -4.4503229709270492e-04 -8.9694319675502989e-04 1.6087055741211773e-04
378 -9.4050080396301382e-04 1.9268985862407078e-04 3.1396105572083796e-04
379 4.2989004479901540e-04 6.5812931311354207e-04 -6.1358299924104732e-04
380 1.5196672822727757e-04 -7.0676896923517008e-04 -6.8194644216138629e-04
381 2.8229853428306820e-04 -7.4087996028397740e-04 -6.0578798936126988e-04
382 -9.1428943388787277e-04 -3.8374324041649664e-04 -2.0319103502091772e-04
383 -8.4214501313391700e-04 -4.7608832693743936e-04 -2.9040597173886769e-04
384 -7.8080923102423266e-04 -5.9501744800828898e-04 -2.4407833828379069e-04
385 -1.7176935515765418e-04 -9.5216030916319663e-04 2.9155317776760733e-04
386 -6.6126555602682622e-04 5.2636652628796049e-04 -5.3466145004632374e-04
387 -7.6695382425157293e-04 4.7802689370101352e-04 -4.3793315289168846e-04
388 8.8661776822001454e-04 2.4669444035691634e-04 -4.0756215409559521e-04
389 -9.2408993514532067e-04 3.2885845574471715e-04 -2.4336346300210361e-04
390 -5.2119845200062449e-04 8.6759764593380255e-04 -4.7075326582650353e-05
391 -4.1791733935960754e-04 9.1392577786663927e-04 -1.2373956651196089e-04
392 -6.1597536055097173e-04 8.0382775765061641e-04 2.9427858705262168e-05
393 -6.0160615125811061e-04 -8.0490190212296813e-04 -1.3223845594775507e-04
394 -5.0933569482133694e-04 -8.7480959176192575e-04 -5.8333308321941510e-05
395 9.5945035226554194e-05 1.0077243924847558e-03 -4.4736235759475303e-05
396 2.3042234884245656e-04 9.8691584311269760e-04 -1.3046845128391884e-05
397 5.1142170737528071e-04 3.1512255566757785e-04 -7.8395014496205934e-04
398 2.5581091682212899e-04 -2.9274467230722758e-04 9.0001074801747058e-04
399 3.7097719992200379e-04 -2.1647428751925594e-04 8.8300781718302079e-04
400 -2.8293113459499671e-04 6.0622680955892626e-04 7.2985376508425857e-04
401 -1.6863091653087194e-04 6.0288933999990205e-04 7.6379211910938979e-04
402 3.0943165089350911e-04 -6.0898303369212343e-04 7.1897393166948356e-04
403 6.5632668063088763e-04 2.7207559724956522e-04 6.9340733526229161e-04
404 6.8284629911840352e-04 5.8789861859780319e-04 4.4684567047326260e-04
405 -3.1949079260323231e-04 -9.5667773413729942e-04 1.0418423590989751e-04
406 2.3146872579643779e-04 -2.6525663295284298e-04 -9.1363457885768875e-04
407 3.2026433031483772e-04 -1.6734049579431728e-04 -9.1038984861296283e-04
408 8.6103338950089118e-05 4.4337550702143826e-04 -8.7112201254409694e-04
409 -9.0241069004366216e-04 4.3371156574428132e-04 1.5896138986452987e-04
410 -4.6072697504796409e-04 8.2014813772708205e-04 3.6095674868204123e-04
411 5.5015624679573933e-04 4.1991966595677940e-04 -7.0877894989610825e-04
412 4.6311129320306859e-04 6.4585341603054817e-04 6.0427276299299668e-04
413 8.1616551059614489e-04 2.9561086278227674e-04 5.0226184518595350e-04
414 8.4884428497405138e-04 3.8441486246164027e-04 3.8245090935870558e-04
415 4.5439321611943603e-05 -1.4795298106835657e-04 -9.6326975355959894e-04
416 -9.9013565028513439e-04 2.1391948452325542e-04 -4.1839828286804809e-05
417 -6.5597172069986883e-05 3.3439242336443203e-04 -9.1687903381600100e-04
418 -1.2653817655598052e-04 2.2665812167619435e-04 -9.4176070031499982e-04
419 5.6431228839850432e-05 1.4823632642589431e-04 -9.6184083411527223e-04
420 -4.6334326652063485e-05 -9.0996494492913340e-05 -9.6982185166771091e-04
421 -9.6068262855944996e-04 3.1951628285168315e-04 5.4819144786516101e-05
422 8.0087567439472750e-04 -2.5128866946435473e-04 -5.4583120372851636e-04
423 8.1508561346087358e-04 -3.7239201053873084e-04 -4.5551923459122756e-04
424 2.5583458934286165e-04 9.7203938888419878e-04 1.2565434160032518e-04
425 2.7213154163031003e-05 -6.7405475302759015e-04 -7.2727849693916369e-04
426 2.7888224502329909e-05 -5.3801734837723397e-04 -8.2528247288363589e-04
427 -8.4292716694026106e-05 -5.8985985852591375e-04 -7.8703794573460823e-04
428 4.1973322409845902e-04 -9.0832105029611874e-04 -1.5924388793248426e-04
429 3.3418130926273642e-04 -9.1487497672845591e-04 -2.7120330317034628e-04
430 3.6864078442585147e-04 -8.5185401438445151e-04 -3.9165210557339913e-04
431 -6.0452461088212673e-04 -7.3634152166692987e-04 3.3197381990569754e-04
432 -6.4707347218800480e-04 -6.3491448692190805e-04 4.3578950277934763e-04
433 1.3913296836030425e-04 -3.4236303685748504e-04 -9.0741745748714213e-04
434 -6.1271341866940786e-06 5.4824943986572165e-04 -8.1881398782221242e-04
435 7.3241015374051518e-05 6.6119208962584083e-04 -7.3314382347526867e-04
436 8.9523048719370270e-04 2.4400957483891944e-04 3.9139775136475360e-04
437 9.1807158899079918e-04 3.2755063066057044e-04 2.6745441920385216e-04
438 8.6367693017343347e-04 4.5553129065169419e-04 2.6037575262193632e-04
439 7.6166855507004035e-04 2.1931760370771215e-04 6.0642605892229540e-04
440 -5.8853062940057461e-04 7.6257459496697805e-04 3.0275710701861854e-04
441 -7.0912950523678152e-04 6.8997788430566552e-04 2.1377464664287812e-04
442 6.7469886690121590e-04 -1.2030900983979019e-04 7.1712709092729100e-04
443 7.1669561181417641e-04 -2.3893178512159348e-04 6.4878873164533370e-04
444 8.2251864481478864e-04 -2.4208496984688842e-04 5.1914803046933613e-04
445 7.5354967775854282e-04 -3.5781480287628724e-04 5.5251339629007739e-04
446 8.3392327898481678e-04 -3.6964941082916078e-04 4.2494294738102041e-04
447 7.5485917652908983e-04 -4.7486419322148127e-04 4.6260220927271342e-04
448 6.6993191026897675e-04 -4.6278993814158711e-04 5.7913869490839708e-04
449 8.2237518456358683e-04 -4.8214566466034706e-04 3.3243802635365245e-04
450 8.9208770122326875e-04 -3.6709842239981142e-04 3.0084962073347163e-04
451 6.5333626065638647e-04 -5.8838120245360988e-04 4.8551463533302657e-04
452 6.7105888035091314e-04 1.2887365426940094e-04 7.1950586707857122e-04
453 -5.8362921474089282e-04 -8.1924584949676017e-04 1.2516598021093244e-04
454 2.4005719841351933e-05 -4.0607000009783506e-04 -8.9271452059232702e-04
455 9.2173509750706755e-04 3.9507111879033747e-04 1.4505856344122244e-04
456 4.4481590256172842e-04 -2.1073700217090987e-04 -8.5139976290266278e-04
457 4.9679267243896239e-04 5.3548646521557012e-04 -6.7307367783011251e-04
458 5.9203269968970292e-04 -2.3888852647903233e-04 7.5681771875928897e-04
459 1.4623256654887294e-04 9.7611831130933508e-04 2.2048006231453852e-04
460 6.3952338947303685e-04 7.0491013395819393e-04 3.3421767101207895e-04
461 3.8373983288724308e-04 5.5895722651226414e-04 -7.2182871157192984e-04
462 -4.1981184158081878e-04 7.0693295024099772e-04 5.6740555688977322e-04
463 7.7759271898651433e-04 -1.3275005721245426e-04 -6.1111864960344462e-04
464 8.8363609524350550e-04 -2.4805236565973059e-04 -4.1402567320369352e-04
465 8.8385691136677374e-04 -3.6871809925120006e-04 -3.2082962052897739e-04
466 1.0339771134086523e-05 8.3187687731504315e-04 -5.5364802845570004e-04
467 9.4032704597854576e-04 -2.4215805944701328e-04 -2.8124502775524630e-04
468 9.3319694689816845e-04 -3.5553041148354906e-04 -1.7448670822957393e-04
469 1.5782731535502319e-04 3.4008516446216590e-04 -9.0449559519565259e-04
470 8.6517970135623784e-04 -4.8266169493276938e-04 2.1030511268279434e-04
471 9.3134869978251040e-04 -3.5323194795406959e-04 1.8409985485927412e-04
472 1.9213291471465680e-04 7.7702251849817488e-04 5.9590594158448387e-04
473 1.2014879392691442e-04 -2.1655151556565294e-04 -9.4503220952780640e-04
474 2.3236962161071213e-04 -9.0854481044393262e-04 -3.7016622387290714e-04
475 5.8441585782837921e-04 7.7800082774472329e-04 -2.7164507554761850e-04
476 3.1937568300715588e-04 7.2163169311024805e-04 6.0935932144599056e-04
477 2.9218169175161831e-04 7.3415611998273558e-04 -6.0788206985686770e-04
478 -1.8923259294967437e-04 -5.5047260019244998e-04 -7.9623224309487487e-04
479 -1.8044231033445348e-04 -6.7148874755887866e-04 -7.0760995250785459e-04
480 -3.9936155362426149e-04 8.3445735286601769e-04 -3.9520861841844615e-04
481 2.0268655763746405e-04 6.6107050152143499e-04 -7.1009969576908162e-04
482 7.7352316567034195e-04 -6.0933074160063186e-04 2.3801276691601868e-04
483 9.0082237105912040e-04 -4.5697873871686348e-04 9.0772591336691464e-05
484 9.5857565183651676e-04 -3.2475887900902385e-04 6.3464985937743937e-05
485 5.7642371868585145e-04 -2.3862965479376480e-04 -7.6719863268675907e-04
486 3.9499643621412911e-04 1.5989690769437469e-04 -8.8319266783436960e-04
487 1.0032372954318248e-03 1.2842547146319497e-04 -7.5837005232133505e-05
488 9.7165338902937995e-04 2.6647926389660760e-04 -1.1941951762946726e-04
489 9.8724131287316187e-04 2.2976973682452720e-04 8.3968564473928947e-06
490 9.1699966233998000e-04 4.2242427848902228e-04 -9.4384377970698559e-05
491 3.5227665219152447e-04 9.5040323738922378e-04 2.0801989298260380e-05
492 3.2112279107403480e-04 9.5196119004186070e-04 -1.3330114883912671e-04
493 4.4961380271509466e-04 9.0518293059978813e-04 -7.3153727886665461e-05
494 9.2914964874019556e-04 -4.0551269826763497e-04 -3.2330858039228180e-05
495 9.7265613466900513e-04 -2.8144824506707385e-04 -5.7061331042538415e-05
496 -4.0544932703464741e-04 9.2855622169353850e-04 1.7857029109885128e-05
497 1.0030420833060287e-03 1.3304898976537123e-04 7.0217062758007404e-05
498 6.9417524760905479e-04 6.9099876952262527e-04 -2.5077758249889589e-04
499 1.0043075374855522e-03 -1.2735473684091797e-04 -7.2903054075065324e-05
500 9.8327960036382104e-04 -1.1055146605957669e-04 2.1392523292114690e-04
501 9.3563079146611998e-04 -1.2017003423700379e-04 -3.5743675014822900e-04
502 8.7387369967015206e-04 1.1911981941315435e-04 -4.7946289043418976e-04
503 8.7808803979661507e-04 -1.1389414750129336e-04 4.7392590932466075e-04
504 4.1231291514393054e-04 1.0742573997074877e-04 8.8402351155755646e-04
505 4.1129472211080684e-04 3.1163630225574784e-04 8.3807427716209597e-04
506 6.5152572682456963e-04 -3.4848530635878556e-04 6.6571322691632705e-04
507 3.1721357678102219e-04 -1.0896094073236799e-04 9.1960840909641281e-04
508 8.5055726237680553e-05 -1.0735602416796123e-04 9.6652388097994573e-04
509 1.4518406152723914e-04 -2.1659353385254624e-04 9.4187838812379563e-04
510 2.5423125117006858e-04 -2.0386842920801281e-04 9.2212678719479329e-04
511 -1.9839276483465994e-04 6.8396963644853513e-04 -6.9086862926256195e-04
512 2.8272809923134666e-04 9.3871710810851416e-04 2.4650762213313307e-04
513 5.9832646496201381e-04 -8.1887595746878399e-04 -3.3402898164727240e-05
514 2.6755563941111346e-04 -9.7782420965487264e-04 4.2229148221056039e-05
515 3.0544154422446399e-04 -9.5211649568332135e-04 1.6552148433129511e-04
516 -5.4328721124844836e-04 5.6361728112025780e-04 -6.1615896307200789e-04
517 7.7696546787726418e-04 -5.9287393392765369e-04 -2.6041827468434504e-04
518 -1.4470954414675088e-04 -1.0029463837455527e-03 -4.5766422256083542e-05
519 -2.8673310769542903e-04 -9.7260639221501133e-04 -4.6995619046300440e-05
520 -3.3464085304478496e-04 -9.3671452271249910e-04 -1.9125231736000263e-04
521 -7.9895731267938964e-04 5.3285116673394575e-04 -3.0906810529902207e-04
522 -1.0005072440456833e-03 9.5821347910163328e-05 -1.2622936771593127e-04
523 7.9908090031171903e-04 6.1096747005658406e-04 1.2145812037704765e-04
524 -8.1035296250933522e-04 -5.4700823160105710e-04 2.5766119161379976e-04
525 7.9137033171212967e-04 5.1035074114975313e-04 3.5906114474027422e-04
526 4.9489916883023878e-04 -7.8083407902348112e-04 -3.9995378656598502e-04
527 -9.6554999261817787e-04 -2.8720472781004281e-04 -1.1224640501778722e-04
528 -9.5311235099515708e-04 -7.5593379016094015e-05 3.2299790115156038e-04
529 -9.2570351669817562e-04 5.1740907289125661e-05 3.9279143641336993e-04
530 -8.4073308636631577e-04 5.4795672283724065e-05 5.4117005802627465e-04
531 -7.8716091259418942e-04 -6.2960122611332102e-04 -1.1044327707096489e-04
532 -9.9186842662897122e-04 -7.5133094929939723e-05 1.8790971008681402e-04
533 -7.4766785528393746e-04 5.4585067555346567e-04 3.9505431163679990e-04
534 -7.1245810815474060e-04 7.1994242379036239e-04 -2.1604142163242490e-05
535 -2.4922701437202736e-04 -9.3219537327238655e-04 -2.9972034542994161e-04
536 6.4297315991743782e-04 7.6913132874065736e-04 -1.4520508379003554e-04
537 -1.4145934903535406e-04 -9.0129275577784953e-04 4.2422453300525772e-04
538 -4.2620062827099780e-05 1.0087001095329868e-03 -8.0803079097023736e-05
539 -1.7837798443822469e-04 9.5863391097145611e-04 -2.6190913980610295e-04
540 6.1520335106618013e-05 9.9189820338007120e-04 -1.9268137667077513e-04
541 -9.5289091828438198e-04 2.8540677335332798e-04 1.8814779260871667e-04
542 -8.8562101038104201e-04 -4.4136175562277494e-04 2.1249409691015810e-04
543 -7.9866382102960055e-04 -8.6015758694068137e-05 5.9251710520604839e-04
544 -7.4117753590931593e-04 1.0503256920134377e-05 6.6253180488561492e-04
545 -6.5657616449204875e-04 -5.3595433440854724e-04 -5.3321782091321230e-04
546 -7.5056911758201149e-04 -4.2529222965573379e-04 -5.0960434912773603e-04
547 -7.5337395014397359e-04 -2.9645738081781296e-04 -5.8421945697711562e-04
548 -6.5583828885594497e-04 -2.8058796679103650e-04 -6.9055710608259568e-04
549 2.6193276763774117e-04 -8.1661456599327158e-04 5.1858177672171575e-04
550 5.8730254238127373e-04 5.9858112625848386e-04 5.4443031653447272e-04
551 8.8360177944484420e-04 3.6740046487559233e-04 -3.2034740370192097e-04
552 8.9792533083884411e-04 -2.4249620990997588e-04 3.8772523323025261e-04
553 1.6092664984276094e-04 -7.6849047180571639e-04 6.1508073484881597e-04
554 -4.4347871797395158e-04 -6.4039805667669364e-04 6.2310304837105560e-04
555 -3.7793415304075153e-04 -5.4602046279213527e-04 7.3478854189518888e-04
556 -8.4121788206855048e-04 -4.3681489142287892e-04 3.4437053457002983e-04
557 -6.1048791383195569e-04 -7.2761754661307279e-04 -3.3967563799155184e-04
558 -7.1906702526070238e-04 2.4237773666773978e-04 6.4393025212122485e-04
559 -6.8134070209038063e-04 -4.3749167815118574e-04 5.8429991427998292e-04
560 -5.9027386072793412e-04 -5.5572112416403410e-04 5.8440810682374833e-04
561 6.2890596272200490e-04 4.8474552460704793e-04 -6.0480828864147875e-04
562 -3.2323356877689746e-04 -6.7235793263860160e-04 -6.5873018238325179e-04
563 -4.8487551934371008e-04 5.0998163354793087e-04 6.9950996625509586e-04
564 7.2856988550026272e-04 -4.8924178014722272e-04 -4.8751545887458253e-04
565 -8.6279022462897758e-05 -2.7713122790218358e-04 9.3398904617031332e-04
566 -9.8384920812132258e-05 -4.0228341389740249e-04 8.8925916206105424e-04
567 -2.0040640421027265e-04 -3.1559574831367779e-04 9.0569316994066793e-04
568 -1.6654952741062596e-04 -6.4348430429436818e-04 7.3451864274811859e-04
569 3.9952722430393881e-04 -6.7053726730446949e-04 -6.2077045383233931e-04
570 -6.9567733810327423e-04 -1.0343302948052708e-04 6.9965618142684230e-04
571 5.3636914961562195e-04 3.1087706456348974e-04 7.6949912331698823e-04
572 4.8980966007587863e-04 -3.4017047387859141e-04 -7.8728997701283505e-04
573 1.4328396424684344e-04 -3.2884627721665674e-04 9.1161878849873635e-04
574 -7.3202331110723822e-04 1.9532340480314997e-04 -6.4470187037263856e-04
575 1.4856361712384152e-04 -4.6608049444861428e-04 -8.5336034993147394e-04
576 -4.4097636598003462e-04 -4.1648523592729877e-04 7.8046578230584699e-04
577 -3.1920858341375873e-04 3.7367360630355840e-04 -8.5100883326723006e-04
578 -2.6514908671866600e-04 2.5123765953194503e-04 -9.0839421855520364e-04
579 -3.1481459803234713e-04 1.5295311488874611e-04 -9.1378803268636860e-04
580 -4.8058114138844473e-04 5.6663672622632956e-06 -8.5683618237961557e-04
581 4.5373131785511730e-04 -5.5512389126942331e-04 6.8912924306960288e-04
582 4.6310574210702780e-04 -2.9437442078168860e-04 8.1866066471456098e-04
583 -4.3381570660985807e-04 1.2743681349216762e-04 -8.7108803320808527e-04
584 -3.9773238306408542e-04 1.9520888489087110e-04 8.7605206694457336e-04
585 -4.4402771328649719e-04 6.1548464057739312e-05 8.7348487763585494e-04
586 -3.2586283026854354e-04 -4.1910044687888074e-04 -8.2926472242257014e-04
587 3.0718385240751754e-05 9.6396317622194337e-04 2.9795967229702435e-04
588 -3.8989073452772016e-04 -7.8463834568384111e-05 -8.9573211231174475e-04
589 -2.7123492608369413e-04 -3.5845354311581579e-05 -9.3810960447951756e-04
590 -1.5331175925381414e-04 -1.2872086852257406e-04 -9.5557117434329404e-04
591 -1.6306250061446875e-04 4.1749768618590304e-04 8.7338847652340635e-04
592 -5.1896766532641425e-04 8.0425654483157443e-04 -3.1778890171259538e-04
593 -2.5250724804012556e-04 8.3922969300811972e-06 9.4359602349547607e-04
594 3.4193356608756506e-04 2.0891415312331927e-04 8.9499305741329890e-04
595 -8.1321992392600483e-04 5.7435467367903076e-04 1.8271833687039235e-04
596 4.3616283114532154e-04 -8.9609847046623618e-04 1.8266446627480999e-04
597 1.0355631606159394e-04 4.3370481908773842e-04 8.7466806855122665e-04
598 3.3254371216797198e-04 9.1120056918552383e-04 -2.8053903695555266e-04
599 1.8371433353554426e-04 -6.6174603224562257e-04 7.1564277966466058e-04
600 -5.3525490433973697e-04 -8.2062359111095080e-04 2.5128812998524545e-04
601 -8.5435488918745878e-04 4.0789271713713302e-04 -3.4515970380247132e-04
602 -8.1177712611751657e-04 3.5140115881996412e-04 -4.7227369190108953e-04
603 -7.5179242504599204e-04 -5.4226707819608636e-04 -3.9519879351313284e-04
604 -9.1811567762340232e-04 1.4986792490446590e-04 -3.8418909336318264e-04
605 -4.1417201708201487e-04 -9.2565417722358556e-04 1.9683523663278560e-05
606 -3.2709932163603201e-04 8.5928818706423079e-04 4.0768807016296324e-04
607 4.8340811554846675e-05 1.1880626307631533e-04 9.6652796147647538e-04
608 -5.2707230677905158e-05 7.7017177576185986e-04 6.2951655902821954e-04
609 -7.4481366219833055e-04 -1.7031090867637393e-04 -6.3835261641025478e-04
610 9.6905305687877566e-04 2.6319187333902097e-04 1.4136643553115948e-04
611 3.8440325982261455e-04 -9.5238339981570157e-05 -8.9700198627880626e-04
612 9.3840761807543333e-04 1.2707685700687280e-04 3.4766787135480013e-04
613 -3.8222826941390050e-04 -8.7935939641226512e-04 -3.1705613570939014e-04
614 5.0001537864660936e-05 -7.8927275232744485e-04 -6.0859947539846683e-04
615 4.7967761557417119e-04 -8.9307943088936040e-04 -4.0951652680382872e-05
616 -6.9202630060042768e-04 -7.0999180412581876e-04 -2.0799363333071763e-04
617 -9.4579375814840886e-04 -2.5238422207798548e-04 -2.5276477709795244e-04
618 -6.1319379157283424e-04 4.4209097777258058e-04 -6.4625468627611718e-04
619 1.8594463123527172e-04 -9.6800257137205528e-04 -2.3238152852653852e-04
620 -3.7753863372855782e-05 -9.5115035699754199e-04 3.3548227361283027e-04
621 3.9380460218329985e-04 -7.6988847270925329e-04 -5.0763280842472988e-04
622 -2.1106160851668766e-04 -4.3660021517500996e-04 8.5486941350237835e-04
623 8.0469039156541100e-04 -4.9005634564297843e-04 -3.6025172650847867e-04
624 9.3728459656871514e-04 1.2630996323402188e-04 -3.5076296751748839e-04
625 -4.0332123093338667e-04 6.0976386526611086e-04 6.7255396356683385e-04
626 -2.5321472919342952e-04 -5.4866243752215793e-04 7.8109800348650994e-04
627 -9.4239234713940317e-05 5.2701348672922854e-04 8.2642888590496477e-04
628 4.7754233835608931e-04 8.9282204291998553e-04 4.9418680650840073e-05
629 -9.7639002701094886e-04 4.8204580473312891e-05 2.5683261475177804e-04
630 -6.0892451379583330e-04 7.9104501751974280e-04 1.6696730063721043e-04
631 -8.3478765594514209e-04 -1.9592834517865256e-04 -5.1748597267682259e-04
632 -4.1481870960630976e-04 8.8349953600996075e-04 -2.5989333869036316e-04
633 9.4165651001765444e-04 2.4803865298410159e-04 -2.7110178787844553e-04
634 -3.2676073492713997e-04 9.7881902986708891e-05 9.1748405177613848e-04
635 3.9938776140229393e-04 -9.3057313534322802e-04 6.1899136262746690e-05
636 -6.7809037926570102e-05 -9.8896950367689590e-04 2.0611358886633729e-04
637 -4.7729937390222655e-04 -6.5894932073049076e-05 8.5660330123497864e-04
638 4.2308692130731829e-04 2.5828879062045861e-04 -8.4783678545194126e-04
639 4.3269782786992627e-04 -1.0231111853325337e-04 8.7543557366884293e-04
640 -6.1107097246560857e-05 6.6667091892063269e-04 -7.2923743381461919e-04
641 -9.7181186902198268e-04 2.2397435680901782e-04 -1.7240817613562085e-04
642 -8.8917083881045469e-04 2.7884486759860845e-04 -3.8024663382714311e-04
643 2.8538429043822362e-04 -7.2046339585816359e-04 6.2678415879437220e-04
644 5.6169769935695754e-04 -4.5343648965994122e-04 6.8270915397478072e-04
645 6.1161937729919101e-04 2.1651219897118561e-04 -7.4708012202044812e-04
646 -1.9124021331525404e-04 1.1365529944200289e-04 9.5083795914547057e-04
647 2.6368767562008777e-05 5.3708653148778552e-04 8.2510163641686968e-04
648 -7.5776523178385088e-04 6.0351599284307294e-04 2.8269408641417264e-04
649 -2.7363306027724409e-04 9.7181462186818085e-04 8.3785630172373280e-05
650 9.4755118880335732e-04 -2.3495122038265655e-04 2.6390078265327093e-04
651 -4.7772108113968521e-04 -8.7251507537435674e-04 -1.9322080814910102e-04
652 -8.8720010011945850e-04 -3.4793299275663082e-04 -3.3039351264935109e-04
653 -1.8300230250227072e-04 1.3267479044747079e-04 -9.4984226287688118e-04
654 8.5956435920959029e-04 -4.7976242802802487e-04 -2.3440207357896455e-04
655 -7.2057399527008083e-04 4.0661734171966706e-04 -5.5927270142548452e-04
656 6.6346819054943329e-04 -1.3392098374103201e-04 -7.2449374001200913e-04
657 -7.5493031812010893e-04 -5.4591125595574461e-04 3.8254010868792797e-04
658 -3.6362673908151195e-04 4.1502753943695083e-05 -9.0795342572303514e-04
659 -1.2888071963271740e-04 -2.4476316524592588e-06 -9.6719379647861720e-04
660 -2.7992065822056982e-05 3.0406818886393783e-05 -9.7334840678716501e-04
661 8.6415336225742934e-04 -5.3091004550720076e-04 -1.7581071844004223e-05
662 3.5091446859255761e-05 -2.4113596960020320e-04 9.4646184267121146e-04
663 5.3253962041817403e-04 8.4392714806124909e-04 -1.6918504274175228e-04
664 -2.9643135149792321e-04 9.6708109074779595e-04 -5.6806672793472197e-05
665 -2.9965071055002734e-04 9.4657339671934729e-04 -1.9242584815635103e-04
666 -5.1261329445320222e-05 1.1239356904106013e-04 -9.6775590922984565e-04
667 2.6520343562465428e-04 -8.3528928174480567e-04 -4.8869354335281392e-04
668 -5.5846115567796369e-04 3.2349239012215955e-05 8.1143020941018757e-04
669 -8.3289162734694901e-04 -3.1945618612546489e-04 -4.6039573396765293e-04
670 -5.1488953118554936e-04 8.6710101800983462e-04 9.5985050134741366e-05
671 -9.8031174511567227e-04 1.5580381127787635e-04 1.9292586944685301e-04
672 5.4866320450631804e-04 -3.4578501335073760e-04 7.4684765988804950e-04
673 -3.3977584939429615e-06 2.3018594795302621e-04 -9.4860269168092380e-04
674 -1.9470384079951127e-04 -9.8104043609640972e-04 1.6127525841856723e-04
675 4.1445274949739502e-04 7.5164060436147995e-04 5.1472121617504032e-04
676 8.0554220298608770e-05 7.3340448344357781e-04 6.6645332304869534e-04
677 4.6112734369902224e-04 2.1762666186733108e-04 8.4138550045946244e-04
678 -4.8704065022907945e-04 -7.9672653065125524e-04 3.7784554373938178e-04
679 2.8713472242545147e-04 -6.5712700956788189e-05 -9.3248152402515192e-04
680 3.9734878145920405e-04 -6.6271863551332401e-04 6.2824488871303851e-04
681 -8.8770044419073395e-04 1.6183701003022740e-04 4.4027968481332808e-04
682 -9.1364706784596730e-04 4.3721658556206903e-04 1.6144169854342332e-05
683 -6.2186636651283088e-05 3.8377338837326809e-06 9.7243867708308746e-04
684 3.5264341666464704e-04 -9.4926048684393144e-04 -5.7936463013403560e-05
685 4.2034230330946401e-04 8.9859173010876253e-04 -1.9411292377713904e-04
686 1.7348656484321586e-04 -7.9692038702902450e-04 -5.7587776896275440e-04
687 1.8676218337311835e-04 9.8663356607367231e-04 -1.2503506179140149e-04
688 -8.1888994639358736e-04 -4.2618600029219493e-04 -3.9869246518875728e-04
689 -5.3954222304711914e-04 -6.6245236092275805e-04 5.2069422161740513e-04
690 5.8458446874862235e-04 -6.9296088489919239e-04 4.3365422061508334e-04
691 9.7722886146558215e-04 -2.2741596432501458e-04 1.4196457597175760e-04
692 -6.9313468071649943e-04 -5.3020607289026519e-04 4.9218168340184755e-04
693 9.4770447532917929e-04 2.2176310142914033e-04 2.6979364964979511e-04
694 -1.7839159910737075e-04 9.8739765987945370e-04 -1.3251382958767894e-04
695 9.2358604844358205e-04 3.5748979031155253e-04 -2.0475603847870322e-04
696 -4.1159364963966746e-05 6.5657370564526664e-04 7.4095266355094717e-04
697 -3.2097318027628105e-04 -4.5911501762245423e-04 8.1021186980691174e-04
698 9.4969349482872448e-04 3.5652339413004232e-04 2.0905805416556400e-05
699 -4.9317696548094444e-04 -5.2009618560060298e-04 6.8658374294602582e-04
700 -6.4872626765386508e-04 -4.1874192513375295e-06 7.4589936195056095e-04
701 5.7861565472242882e-04 -5.4615911708273766e-04 6.0136409524977092e-04
702 -6.9901428988158984e-04 -6.4817746278567371e-04 -3.2862356575240331e-04
703 -7.5851715799732313e-04 2.9119671870408677e-04 -5.7791941453870163e-04
704 4.4604350767070434e-05 3.3490510425964598e-04 -9.1777791978326262e-04
705 3.1885887411399005e-04 6.3814156655854709e-04 -6.8855164976229630e-04
706 -3.2234650021890850e-04 6.9052371364264277e-04 6.3887169635443749e-04
707 1.0913939636639314e-04 -9.4139576631611954e-04 -3.4382579442739845e-04
708 -6.8864990214849333e-04 7.3585120857440442e-04 9.3248243922253393e-05
709 1.2281657794261038e-05 7.5200150955666701e-04 -6.4919275010884281e-04
710 -4.0992198598585036e-04 7.8533119338451978e-04 4.6950614312882288e-04
711 -9.4233478120603494e-04 2.1970260334201085e-04 -2.8458642820845467e-04
712 7.8066119862308866e-04 1.0652211454998359e-04 6.1067471481867047e-04
713 -2.1873881815141273e-04 -7.5182319239491487e-04 -6.1591785153456010e-04
714 6.3818599268775187e-04 3.3893191291062692e-04 -6.8171733597455176e-04
715 -2.1121188066109436e-04 -9.9026363820901202e-04 4.4431624961049480e-05
716 -2.5981967400176678e-04 6.0747450036499880e-05 -9.3920091553584186e-04
717 -4.0203664082597690e-04 -9.2498605415725771e-04 -9.6408586917430349e-05
718 4.8876785357144972e-04 -1.9493077695953694e-04 8.3158271680249213e-04
719 7.4371941853894775e-04 -5.6713514974450041e-04 3.7402682374187182e-04
720 8.6463966292017335e-04 5.0436192135890436e-04 1.4892656200085421e-04
721 2.2213459465517842e-04 -1.5682887758341373e-04 -9.3812827470610616e-04
722 -5.7997381181768058e-04 -7.9242348490782570e-04 -2.3968614756472129e-04
723 6.6425531766586225e-05 6.4528437379175713e-05 -9.7021425554953222e-04
724 -1.8664468854453521e-04 7.1352252259481201e-04 6.6745160387187688e-04
725 8.8807969632642171e-04 -4.7093195787939284e-04 -1.2379827312379590e-04
726 5.7748960093660694e-04 2.1222952127355411e-04 7.7216966848783124e-04
727 7.9950565568710200e-04 5.6853794845779042e-04 2.4295556984952704e-04
728 5.5067541779012263e-04 6.0210135809813693e-04 -5.7430607783220413e-04
729 4.5243039629310714e-04 9.5917127877923349e-05 -8.6540282614003998e-04
730 7.2543952364375664e-04 6.1441926620834405e-04 3.3399161299842324e-04
731 -2.5743074872707888e-04 -6.0633956981932943e-04 -7.3695660182970107e-04
732 3.4373668113568331e-04 6.2290978094430981e-04 6.9117729955804966e-04
733 -7.4944711279534816e-05 9.8767033529688808e-04 -1.9899265434335827e-04
734 -2.4022432905107868e-04 -4.6821215243254128e-04 -8.3125118854143005e-04
735 9.7340061843551734e-04 -2.2558197879111043e-04 -1.6327339288978805e-04
736 9.9138920644551679e-04 -2.0865965408907840e-04 2.8487544226928588e-05
737 -3.0821313813601456e-05 -7.5422136185423314e-05 9.7121910138494628e-04
738 -5.1918083260046898e-04 -8.6860200215070074e-04 5.3357176781304247e-05
739 5.1020574145279989e-04 1.9022837464428412e-04 -8.2023851784679403e-04
740 -7.5631507260503074e-04 1.3084651176052553e-04 6.3304081807808625e-04
741 -1.5038237243293043e-04 4.4625180346102730e-05 9.6232607307030903e-04
742 -5.4984982311700548e-04 -7.2096524428400389e-04 4.3184816207566092e-04
743 -8.3055213969056896e-06 4.2694739203110485e-04 -8.8183422768174831e-04
744 3.0318247722050051e-04 -9.5078906984353455e-04 -1.6957756496920406e-04
745 -6.8976063546563544e-05 -6.8322258705950120e-04 -7.1319034262228888e-04
$EndNodes
$Elements
1486
1 2 2 0 0 410 440 345
2 2 2 0 0 421 541 409
3 2 2 0 0 409 682 421
4 2 2 0 0 545 603 546
5 2 2 0 0 426 427 294
6 2 2 0 0 294 454 426
7 2 2 0 0 265 682 409
8 2 2 0 0 24 41 4
9 2 2 0 0 3 24 4
10 2 2 0 0 238 642 602
11 2 2 0 0 520 651 613
12 2 2 0 0 653 666 659
13 2 2 0 0 404 460 98
14 2 2 0 0 222 482 219
15 2 2 0 0 40 463 9
16 2 2 0 0 608 724 696
17 2 2 0 0 435 709 69
18 2 2 0 0 413 439 29
19 2 2 0 0 345 710 410
20 2 2 0 0 422 463 40
21 2 2 0 0 98 550 404
22 2 2 0 0 95 724 608
23 2 2 0 0 4 41 5
24 2 2 0 0 232 701 581
25 2 2 0 0 490 698 488
26 2 2 0 0 29 436 413
27 2 2 0 0 416 421 342
28 2 2 0 0 312 595 441
29 2 2 0 0 41 486 5
30 2 2 0 0 405 605 519
31 2 2 0 0 409 595 265
32 2 2 0 0 69 481 435
33 2 2 0 0 434 743 339
34 2 2 0 0 342 641 416
35 2 2 0 0 485 656 370
36 2 2 0 0 89 587 90
37 2 2 0 0 108 466 317
38 2 2 0 0 378 629 529
39 2 2 0 0 581 680 232
40 2 2 0 0 281 434 339
41 2 2 0 0 638 739 486
42 2 2 0 0 659 666 660
43 2 2 0 0 345 440 346
44 2 2 0 0 22 44 25
45 2 2 0 0 9 463 8
46 2 2 0 0 44 81 25
47 2 2 0 0 459 587 89
48 2 2 0 0 127 670 630
49 2 2 0 0 508 662 509
50 2 2 0 0 375 662 508
51 2 2 0 0 492 598 103
52 2 2 0 0 604 642 238
53 2 2 0 0 507 510 399
54 2 2 0 0 488 698 489
55 2 2 0 0 34 473 415
56 2 2 0 0 399 639 507
57 2 2 0 0 603 688 546
58 2 2 0 0 316 541 421
59 2 2 0 0 647 696 627
60 2 2 0 0 403 439 352
61 2 2 0 0 221 603 545
62 2 2 0 0 595 648 441
63 2 2 0 0 412 550 98
64 2 2 0 0 411 714 397
65 2 2 0 0 486 739 729
66 2 2 0 0 696 724 401
67 2 2 0 0 247 482 222
68 2 2 0 0 397 714 645
69 2 2 0 0 613 651 212
70 2 2 0 0 207 745 425
71 2 2 0 0 98 675 412
72 2 2 0 0 219 482 230
73 2 2 0 0 560 692 432
74 2 2 0 0 432 689 560
75 2 2 0 0 454 575 426
76 2 2 0 0 352 439 413
77 2 2 0 0 415 420 2
78 2 2 0 0 40 464 422
79 2 2 0 0 89 512 459
80 2 2 0 0 425 614 207
81 2 2 0 0 377 600 453
82 2 2 0 0 89 90 88
83 2 2 0 0 80 466 108
84 2 2 0 0 520 717 651
85 2 2 0 0 602 703 238
86 2 2 0 0 103 687 492
87 2 2 0 0 253 491 424
88 2 2 0 0 69 709 466
89 2 2 0 0 424 512 253
90 2 2 0 0 369 696 647
91 2 2 0 0 581 701 644
92 2 2 0 0 630 670 392
93 2 2 0 0 32 656 485
94 2 2 0 0 459 512 424
95 2 2 0 0 90 91 88
96 2 2 0 0 427 478 294
97 2 2 0 0 488 695 490
98 2 2 0 0 554 699 560
99 2 2 0 0 67 80 79
100 2 2 0 0 252 454 294
101 2 2 0 0 253 628 491
102 2 2 0 0 529 681 378
103 2 2 0 0 519 715 405
104 2 2 0 0 440 441 346
105 2 2 0 0 605 717 519
106 2 2 0 0 403 452 439
107 2 2 0 0 507 639 21
108 2 2 0 0 565 567 566
109 2 2 0 0 433 454 341
110 2 2 0 0 67 466 80
111 2 2 0 0 555 697 576
112 2 2 0 0 491 628 493
113 2 2 0 0 389 641 342
114 2 2 0 0 429 619 474
115 2 2 0 0 40 501 464
116 2 2 0 0 576 699 555
117 2 2 0 0 311 600 377
118 2 2 0 0 567 622 566
119 2 2 0 0 433 575 454
120 2 2 0 0 378 671 629
121 2 2 0 0 79 540 103
122 2 2 0 0 341 473 433
123 2 2 0 0 673 704 68
124 2 2 0 0 462 710 345
125 2 2 0 0 557 722 616
126 2 2 0 0 573 662 343
127 2 2 0 0 370 656 463
128 2 2 0 0 341 454 252
129 2 2 0 0 616 702 557
130 2 2 0 0 6 26 7
131 2 2 0 0 464 501 467
132 2 2 0 0 433 473 406
133 2 2 0 0 8 45 37
134 2 2 0 0 466 709 317
135 2 2 0 0 457 461 379
136 2 2 0 0 84 512 86
137 2 2 0 0 19 452 33
138 2 2 0 0 380 614 425
139 2 2 0 0 83 540 79
140 2 2 0 0 398 510 509
141 2 2 0 0 609 631 137
142 2 2 0 0 18 442 36
143 2 2 0 0 26 45 7
144 2 2 0 0 565 566 343
145 2 2 0 0 80 83 79
146 2 2 0 0 560 689 554
147 2 2 0 0 134 137 136
148 2 2 0 0 68 469 42
149 2 2 0 0 659 716 653
150 2 2 0 0 619 707 474
151 2 2 0 0 497 610 39
152 2 2 0 0 137 138 136
153 2 2 0 0 283 573 343
154 2 2 0 0 506 644 448
155 2 2 0 0 499 735 31
156 2 2 0 0 81 97 25
157 2 2 0 0 45 46 37
158 2 2 0 0 585 668 637
159 2 2 0 0 495 735 499
160 2 2 0 0 399 510 398
161 2 2 0 0 509 573 398
162 2 2 0 0 442 443 36
163 2 2 0 0 1 607 314
164 2 2 0 0 29 612 436
165 2 2 0 0 547 631 609
166 2 2 0 0 360 595 409
167 2 2 0 0 421 682 342
168 2 2 0 0 426 575 327
169 2 2 0 0 123 577 235
170 2 2 0 0 339 743 417
171 2 2 0 0 7 45 8
172 2 2 0 0 3 723 24
173 2 2 0 0 418 666 653
174 2 2 0 0 59 60 58
175 2 2 0 0 620 636 193
176 2 2 0 0 42 469 47
177 2 2 0 0 65 67 66
178 2 2 0 0 509 662 573
179 2 2 0 0 470 482 247
180 2 2 0 0 368 476 472
181 2 2 0 0 530 740 337
182 2 2 0 0 253 512 84
183 2 2 0 0 455 698 282
184 2 2 0 0 61 65 62
185 2 2 0 0 59 61 60
186 2 2 0 0 91 472 88
187 2 2 0 0 90 92 91
188 2 2 0 0 19 442 18
189 2 2 0 0 464 465 423
190 2 2 0 0 706 724 118
191 2 2 0 0 456 611 32
192 2 2 0 0 379 477 61
193 2 2 0 0 417 743 704
194 2 2 0 0 314 683 1
195 2 2 0 0 442 458 443
196 2 2 0 0 11 28 12
197 2 2 0 0 61 62 60
198 2 2 0 0 118 724 95
199 2 2 0 0 22 25 23
200 2 2 0 0 247 483 470
201 2 2 0 0 281 640 434
202 2 2 0 0 197 667 474
203 2 2 0 0 86 512 89
204 2 2 0 0 417 704 673
205 2 2 0 0 451 690 230
206 2 2 0 0 27 442 19
207 2 2 0 0 637 668 229
208 2 2 0 0 60 475 58
209 2 2 0 0 489 610 497
210 2 2 0 0 307 573 283
211 2 2 0 0 61 477 65
212 2 2 0 0 65 66 62
213 2 2 0 0 544 740 530
214 2 2 0 0 230 719 451
215 2 2 0 0 18 452 19
216 2 2 0 0 268 569 269
217 2 2 0 0 32 485 456
218 2 2 0 0 627 696 401
219 2 2 0 0 24 42 41
220 2 2 0 0 20 27 19
221 2 2 0 0 330 461 457
222 2 2 0 0 506 672 644
223 2 2 0 0 472 476 87
224 2 2 0 0 468 495 494
225 2 2 0 0 88 472 87
226 2 2 0 0 121 577 123
227 2 2 0 0 327 575 276
228 2 2 0 0 422 464 423
229 2 2 0 0 47 63 49
230 2 2 0 0 458 506 443
231 2 2 0 0 232 690 451
232 2 2 0 0 28 487 12
233 2 2 0 0 80 107 83
234 2 2 0 0 608 696 676
235 2 2 0 0 356 481 355
236 2 2 0 0 138 238 136
237 2 2 0 0 137 139 138
238 2 2 0 0 729 739 26
239 2 2 0 0 81 99 97
240 2 2 0 0 46 50 37
241 2 2 0 0 463 656 8
242 2 2 0 0 443 444 36
243 2 2 0 0 68 704 469
244 2 2 0 0 24 68 42
245 2 2 0 0 16 503 30
246 2 2 0 0 65 69 67
247 2 2 0 0 67 79 66
248 2 2 0 0 676 696 369
249 2 2 0 0 59 379 61
250 2 2 0 0 90 93 92
251 2 2 0 0 464 467 465
252 2 2 0 0 441 708 312
253 2 2 0 0 483 484 471
254 2 2 0 0 427 479 478
255 2 2 0 0 245 564 244
256 2 2 0 0 470 483 471
257 2 2 0 0 473 721 406
258 2 2 0 0 555 699 554
259 2 2 0 0 47 469 63
260 2 2 0 0 63 355 49
261 2 2 0 0 62 64 60
262 2 2 0 0 80 108 107
263 2 2 0 0 107 539 83
264 2 2 0 0 139 140 138
265 2 2 0 0 99 100 97
266 2 2 0 0 81 236 99
267 2 2 0 0 46 51 50
268 2 2 0 0 443 445 444
269 2 2 0 0 24 419 68
270 2 2 0 0 69 466 67
271 2 2 0 0 79 103 66
272 2 2 0 0 65 477 69
273 2 2 0 0 547 548 321
274 2 2 0 0 93 94 92
275 2 2 0 0 467 468 465
276 2 2 0 0 333 664 649
277 2 2 0 0 55 498 56
278 2 2 0 0 56 498 72
279 2 2 0 0 12 499 31
280 2 2 0 0 63 356 355
281 2 2 0 0 108 110 107
282 2 2 0 0 139 141 140
283 2 2 0 0 100 101 97
284 2 2 0 0 236 248 99
285 2 2 0 0 81 594 236
286 2 2 0 0 51 52 50
287 2 2 0 0 192 515 195
288 2 2 0 0 445 446 444
289 2 2 0 0 477 481 69
290 2 2 0 0 94 95 92
291 2 2 0 0 93 96 94
292 2 2 0 0 63 408 356
293 2 2 0 0 108 111 110
294 2 2 0 0 110 117 107
295 2 2 0 0 139 154 141
296 2 2 0 0 141 142 140
297 2 2 0 0 51 53 52
298 2 2 0 0 100 102 101
299 2 2 0 0 236 250 248
300 2 2 0 0 445 447 446
301 2 2 0 0 52 388 50
302 2 2 0 0 277 622 567
303 2 2 0 0 95 608 92
304 2 2 0 0 94 118 95
305 2 2 0 0 93 104 96
306 2 2 0 0 51 561 53
307 2 2 0 0 408 434 356
308 2 2 0 0 53 54 52
309 2 2 0 0 445 448 447
310 2 2 0 0 108 317 111
311 2 2 0 0 141 143 142
312 2 2 0 0 142 225 140
313 2 2 0 0 102 166 101
314 2 2 0 0 250 325 248
315 2 2 0 0 100 258 102
316 2 2 0 0 53 55 54
317 2 2 0 0 447 449 446
318 2 2 0 0 236 505 250
319 2 2 0 0 104 105 96
320 2 2 0 0 53 57 55
321 2 2 0 0 55 56 54
322 2 2 0 0 448 451 447
323 2 2 0 0 14 39 15
324 2 2 0 0 317 511 111
325 2 2 0 0 10 40 9
326 2 2 0 0 143 144 142
327 2 2 0 0 57 58 55
328 2 2 0 0 8 37 9
329 2 2 0 0 14 38 13
330 2 2 0 0 166 314 101
331 2 2 0 0 18 36 17
332 2 2 0 0 16 29 17
333 2 2 0 0 33 504 20
334 2 2 0 0 325 365 248
335 2 2 0 0 199 202 196
336 2 2 0 0 7 32 6
337 2 2 0 0 434 435 356
338 2 2 0 0 74 75 73
339 2 2 0 0 223 239 234
340 2 2 0 0 74 76 75
341 2 2 0 0 72 74 73
342 2 2 0 0 231 549 201
343 2 2 0 0 202 205 204
344 2 2 0 0 226 227 214
345 2 2 0 0 272 275 271
346 2 2 0 0 276 318 275
347 2 2 0 0 213 214 209
348 2 2 0 0 76 77 75
349 2 2 0 0 210 231 201
350 2 2 0 0 16 30 15
351 2 2 0 0 205 209 208
352 2 2 0 0 202 204 196
353 2 2 0 0 318 406 340
354 2 2 0 0 195 196 193
355 2 2 0 0 322 420 415
356 2 2 0 0 239 240 234
357 2 2 0 0 163 588 168
358 2 2 0 0 12 31 11
359 2 2 0 0 56 72 71
360 2 2 0 0 425 426 327
361 2 2 0 0 19 33 20
362 2 2 0 0 168 224 215
363 2 2 0 0 209 568 216
364 2 2 0 0 318 433 406
365 2 2 0 0 269 271 270
366 2 2 0 0 268 269 245
367 2 2 0 0 21 639 20
368 2 2 0 0 84 85 82
369 2 2 0 0 181 207 183
370 2 2 0 0 269 272 271
371 2 2 0 0 272 276 275
372 2 2 0 0 242 243 240
373 2 2 0 0 102 167 166
374 2 2 0 0 223 234 233
375 2 2 0 0 283 343 227
376 2 2 0 0 205 208 204
377 2 2 0 0 213 226 214
378 2 2 0 0 271 572 347
379 2 2 0 0 243 268 245
380 2 2 0 0 335 398 307
381 2 2 0 0 303 555 554
382 2 2 0 0 226 283 227
383 2 2 0 0 347 485 370
384 2 2 0 0 195 199 196
385 2 2 0 0 205 213 209
386 2 2 0 0 246 322 252
387 2 2 0 0 76 78 77
388 2 2 0 0 133 163 135
389 2 2 0 0 163 168 164
390 2 2 0 0 322 415 341
391 2 2 0 0 227 361 214
392 2 2 0 0 191 198 189
393 2 2 0 0 78 84 82
394 2 2 0 0 209 216 208
395 2 2 0 0 78 82 77
396 2 2 0 0 216 303 266
397 2 2 0 0 417 418 362
398 2 2 0 0 314 607 101
399 2 2 0 0 339 362 280
400 2 2 0 0 243 245 244
401 2 2 0 0 187 291 185
402 2 2 0 0 429 430 359
403 2 2 0 0 143 145 144
404 2 2 0 0 202 553 205
405 2 2 0 0 339 417 362
406 2 2 0 0 131 580 133
407 2 2 0 0 239 242 240
408 2 2 0 0 57 59 58
409 2 2 0 0 224 246 215
410 2 2 0 0 84 86 85
411 2 2 0 0 303 554 266
412 2 2 0 0 72 73 71
413 2 2 0 0 437 438 414
414 2 2 0 0 318 340 275
415 2 2 0 0 269 270 245
416 2 2 0 0 86 87 85
417 2 2 0 0 192 193 191
418 2 2 0 0 123 235 129
419 2 2 0 0 263 374 262
420 2 2 0 0 425 427 426
421 2 2 0 0 149 150 147
422 2 2 0 0 210 232 231
423 2 2 0 0 74 373 76
424 2 2 0 0 168 215 169
425 2 2 0 0 259 262 249
426 2 2 0 0 145 146 144
427 2 2 0 0 367 524 289
428 2 2 0 0 271 347 270
429 2 2 0 0 406 407 340
430 2 2 0 0 334 459 424
431 2 2 0 0 429 474 430
432 2 2 0 0 250 328 325
433 2 2 0 0 431 432 367
434 2 2 0 0 104 278 105
435 2 2 0 0 145 147 146
436 2 2 0 0 151 152 150
437 2 2 0 0 235 583 129
438 2 2 0 0 237 249 228
439 2 2 0 0 149 151 150
440 2 2 0 0 159 161 158
441 2 2 0 0 153 155 152
442 2 2 0 0 156 158 155
443 2 2 0 0 354 367 289
444 2 2 0 0 259 263 262
445 2 2 0 0 190 191 189
446 2 2 0 0 177 221 174
447 2 2 0 0 162 228 161
448 2 2 0 0 124 516 386
449 2 2 0 0 418 653 578
450 2 2 0 0 371 584 295
451 2 2 0 0 151 153 152
452 2 2 0 0 153 156 155
453 2 2 0 0 159 162 161
454 2 2 0 0 374 593 262
455 2 2 0 0 156 159 158
456 2 2 0 0 237 259 249
457 2 2 0 0 146 284 160
458 2 2 0 0 266 309 267
459 2 2 0 0 264 265 257
460 2 2 0 0 86 88 87
461 2 2 0 0 265 312 257
462 2 2 0 0 162 237 228
463 2 2 0 0 21 44 22
464 2 2 0 0 324 392 390
465 2 2 0 0 371 585 584
466 2 2 0 0 262 366 249
467 2 2 0 0 192 195 193
468 2 2 0 0 263 375 374
469 2 2 0 0 216 266 217
470 2 2 0 0 326 327 276
471 2 2 0 0 260 646 166
472 2 2 0 0 220 223 222
473 2 2 0 0 322 341 252
474 2 2 0 0 256 257 255
475 2 2 0 0 78 253 84
476 2 2 0 0 358 359 242
477 2 2 0 0 188 189 187
478 2 2 0 0 281 339 280
479 2 2 0 0 146 160 144
480 2 2 0 0 123 129 128
481 2 2 0 0 255 324 254
482 2 2 0 0 228 229 161
483 2 2 0 0 354 431 367
484 2 2 0 0 163 164 135
485 2 2 0 0 155 157 152
486 2 2 0 0 243 244 240
487 2 2 0 0 256 264 257
488 2 2 0 0 284 316 160
489 2 2 0 0 380 425 327
490 2 2 0 0 148 149 147
491 2 2 0 0 335 399 398
492 2 2 0 0 418 578 362
493 2 2 0 0 334 424 396
494 2 2 0 0 167 260 166
495 2 2 0 0 325 368 365
496 2 2 0 0 428 429 359
497 2 2 0 0 165 255 254
498 2 2 0 0 297 342 264
499 2 2 0 0 298 371 295
500 2 2 0 0 218 323 220
501 2 2 0 0 310 337 302
502 2 2 0 0 165 256 255
503 2 2 0 0 186 187 185
504 2 2 0 0 56 71 70
505 2 2 0 0 165 254 125
506 2 2 0 0 200 201 199
507 2 2 0 0 148 206 149
508 2 2 0 0 324 390 364
509 2 2 0 0 190 192 191
510 2 2 0 0 368 369 365
511 2 2 0 0 353 404 351
512 2 2 0 0 104 331 278
513 2 2 0 0 256 297 264
514 2 2 0 0 316 421 416
515 2 2 0 0 239 358 242
516 2 2 0 0 169 586 171
517 2 2 0 0 286 287 206
518 2 2 0 0 324 364 254
519 2 2 0 0 241 576 162
520 2 2 0 0 168 169 164
521 2 2 0 0 121 123 122
522 2 2 0 0 266 267 217
523 2 2 0 0 129 131 130
524 2 2 0 0 216 217 208
525 2 2 0 0 285 382 313
526 2 2 0 0 172 321 170
527 2 2 0 0 390 391 364
528 2 2 0 0 296 563 300
529 2 2 0 0 246 252 251
530 2 2 0 0 285 286 206
531 2 2 0 0 288 289 287
532 2 2 0 0 298 372 371
533 2 2 0 0 23 35 22
534 2 2 0 0 300 344 304
535 2 2 0 0 344 462 345
536 2 2 0 0 123 128 122
537 2 2 0 0 297 389 342
538 2 2 0 0 237 277 259
539 2 2 0 0 148 285 206
540 2 2 0 0 86 89 88
541 2 2 0 0 306 307 283
542 2 2 0 0 234 279 233
543 2 2 0 0 316 416 160
544 2 2 0 0 188 190 189
545 2 2 0 0 85 98 82
546 2 2 0 0 358 428 359
547 2 2 0 0 437 455 438
548 2 2 0 0 203 210 201
549 2 2 0 0 382 383 313
550 2 2 0 0 153 176 156
551 2 2 0 0 290 354 289
552 2 2 0 0 159 241 162
553 2 2 0 0 386 387 126
554 2 2 0 0 273 363 338
555 2 2 0 0 272 326 276
556 2 2 0 0 171 293 173
557 2 2 0 0 145 148 147
558 2 2 0 0 274 295 261
559 2 2 0 0 285 313 286
560 2 2 0 0 383 384 313
561 2 2 0 0 301 302 299
562 2 2 0 0 131 133 132
563 2 2 0 0 296 298 295
564 2 2 0 0 305 310 302
565 2 2 0 0 349 412 328
566 2 2 0 0 344 345 304
567 2 2 0 0 77 119 75
568 2 2 0 0 315 378 310
569 2 2 0 0 363 401 400
570 2 2 0 0 332 333 278
571 2 2 0 0 223 233 222
572 2 2 0 0 331 334 332
573 2 2 0 0 186 188 187
574 2 2 0 0 178 212 177
575 2 2 0 0 305 360 315
576 2 2 0 0 334 396 395
577 2 2 0 0 246 251 215
578 2 2 0 0 167 261 260
579 2 2 0 0 175 179 178
580 2 2 0 0 345 346 304
581 2 2 0 0 124 386 126
582 2 2 0 0 286 288 287
583 2 2 0 0 331 332 278
584 2 2 0 0 179 181 180
585 2 2 0 0 301 305 302
586 2 2 0 0 300 304 301
587 2 2 0 0 296 300 299
588 2 2 0 0 305 315 310
589 2 2 0 0 296 299 298
590 2 2 0 0 320 453 290
591 2 2 0 0 274 296 295
592 2 2 0 0 313 531 286
593 2 2 0 0 120 281 280
594 2 2 0 0 360 409 315
595 2 2 0 0 363 400 338
596 2 2 0 0 129 130 128
597 2 2 0 0 300 301 299
598 2 2 0 0 1 508 23
599 2 2 0 0 167 273 261
600 2 2 0 0 133 135 134
601 2 2 0 0 173 174 172
602 2 2 0 0 311 377 376
603 2 2 0 0 273 274 261
604 2 2 0 0 273 338 274
605 2 2 0 0 334 395 332
606 2 2 0 0 183 197 184
607 2 2 0 0 319 393 320
608 2 2 0 0 449 450 446
609 2 2 0 0 288 290 289
610 2 2 0 0 226 306 283
611 2 2 0 0 326 380 327
612 2 2 0 0 175 177 174
613 2 2 0 0 181 183 182
614 2 2 0 0 219 230 211
615 2 2 0 0 308 335 307
616 2 2 0 0 267 311 292
617 2 2 0 0 169 170 164
618 2 2 0 0 288 319 290
619 2 2 0 0 126 165 125
620 2 2 0 0 120 280 121
621 2 2 0 0 130 357 128
622 2 2 0 0 195 200 199
623 2 2 0 0 169 171 170
624 2 2 0 0 171 172 170
625 2 2 0 0 184 186 185
626 2 2 0 0 73 282 71
627 2 2 0 0 252 294 251
628 2 2 0 0 319 320 290
629 2 2 0 0 131 132 130
630 2 2 0 0 393 394 320
631 2 2 0 0 171 173 172
632 2 2 0 0 4 34 3
633 2 2 0 0 218 220 219
634 2 2 0 0 267 292 217
635 2 2 0 0 184 185 182
636 2 2 0 0 188 194 190
637 2 2 0 0 56 70 54
638 2 2 0 0 377 405 376
639 2 2 0 0 449 470 450
640 2 2 0 0 179 180 178
641 2 2 0 0 173 175 174
642 2 2 0 0 175 178 177
643 2 2 0 0 250 329 328
644 2 2 0 0 311 376 292
645 2 2 0 0 329 571 350
646 2 2 0 0 347 370 348
647 2 2 0 0 220 222 219
648 2 2 0 0 376 385 292
649 2 2 0 0 133 134 132
650 2 2 0 0 134 136 132
651 2 2 0 0 306 308 307
652 2 2 0 0 200 203 201
653 2 2 0 0 233 247 222
654 2 2 0 0 98 460 82
655 2 2 0 0 329 349 328
656 2 2 0 0 326 381 380
657 2 2 0 0 347 348 270
658 2 2 0 0 181 182 180
659 2 2 0 0 121 122 115
660 2 2 0 0 350 351 349
661 2 2 0 0 308 336 335
662 2 2 0 0 350 403 352
663 2 2 0 0 470 471 450
664 2 2 0 0 203 211 210
665 2 2 0 0 218 219 211
666 2 2 0 0 183 184 182
667 2 2 0 0 370 463 422
668 2 2 0 0 306 402 308
669 2 2 0 0 203 218 211
670 2 2 0 0 71 490 70
671 2 2 0 0 329 350 349
672 2 2 0 0 436 437 414
673 2 2 0 0 124 126 125
674 2 2 0 0 413 414 353
675 2 2 0 0 422 423 348
676 2 2 0 0 352 353 351
677 2 2 0 0 370 422 348
678 2 2 0 0 350 352 351
679 2 2 0 0 413 436 414
680 2 2 0 0 352 413 353
681 2 2 0 0 120 121 115
682 2 2 0 0 110 480 117
683 2 2 0 0 124 125 116
684 2 2 0 0 126 521 165
685 2 2 0 0 113 120 115
686 2 2 0 0 127 440 410
687 2 2 0 0 114 124 116
688 2 2 0 0 543 544 530
689 2 2 0 0 488 489 487
690 2 2 0 0 585 637 366
691 2 2 0 0 543 570 544
692 2 2 0 0 113 115 114
693 2 2 0 0 127 410 106
694 2 2 0 0 114 116 112
695 2 2 0 0 195 515 200
696 2 2 0 0 491 493 492
697 2 2 0 0 12 487 13
698 2 2 0 0 546 547 321
699 2 2 0 0 330 457 411
700 2 2 0 0 157 543 530
701 2 2 0 0 519 520 291
702 2 2 0 0 28 488 487
703 2 2 0 0 111 112 110
704 2 2 0 0 312 534 257
705 2 2 0 0 476 732 412
706 2 2 0 0 27 458 442
707 2 2 0 0 385 636 620
708 2 2 0 0 176 559 156
709 2 2 0 0 593 634 366
710 2 2 0 0 589 590 224
711 2 2 0 0 113 114 112
712 2 2 0 0 109 127 106
713 2 2 0 0 270 564 245
714 2 2 0 0 443 506 445
715 2 2 0 0 491 492 396
716 2 2 0 0 388 624 502
717 2 2 0 0 445 506 448
718 2 2 0 0 30 500 15
719 2 2 0 0 20 504 21
720 2 2 0 0 64 475 60
721 2 2 0 0 287 542 206
722 2 2 0 0 23 508 35
723 2 2 0 0 302 558 299
724 2 2 0 0 70 551 54
725 2 2 0 0 62 598 64
726 2 2 0 0 424 491 396
727 2 2 0 0 407 456 340
728 2 2 0 0 545 546 321
729 2 2 0 0 330 411 397
730 2 2 0 0 72 536 74
731 2 2 0 0 238 574 136
732 2 2 0 0 659 660 420
733 2 2 0 0 395 538 332
734 2 2 0 0 143 527 145
735 2 2 0 0 412 675 476
736 2 2 0 0 239 513 358
737 2 2 0 0 157 530 529
738 2 2 0 0 518 519 291
739 2 2 0 0 449 482 470
740 2 2 0 0 207 713 479
741 2 2 0 0 119 523 75
742 2 2 0 0 109 670 127
743 2 2 0 0 10 501 40
744 2 2 0 0 508 509 35
745 2 2 0 0 96 606 94
746 2 2 0 0 331 459 334
747 2 2 0 0 286 531 288
748 2 2 0 0 290 453 354
749 2 2 0 0 282 490 71
750 2 2 0 0 384 531 313
751 2 2 0 0 289 524 287
752 2 2 0 0 349 550 412
753 2 2 0 0 165 521 256
754 2 2 0 0 82 460 77
755 2 2 0 0 155 543 157
756 2 2 0 0 201 549 199
757 2 2 0 0 273 591 363
758 2 2 0 0 387 521 126
759 2 2 0 0 114 516 124
760 2 2 0 0 53 561 57
761 2 2 0 0 266 554 309
762 2 2 0 0 257 534 255
763 2 2 0 0 205 553 213
764 2 2 0 0 142 522 225
765 2 2 0 0 435 481 356
766 2 2 0 0 216 568 303
767 2 2 0 0 300 563 344
768 2 2 0 0 214 568 209
769 2 2 0 0 112 480 110
770 2 2 0 0 350 571 403
771 2 2 0 0 347 572 485
772 2 2 0 0 275 572 271
773 2 2 0 0 274 563 296
774 2 2 0 0 171 586 293
775 2 2 0 0 162 576 237
776 2 2 0 0 133 580 163
777 2 2 0 0 11 501 10
778 2 2 0 0 295 584 261
779 2 2 0 0 129 583 131
780 2 2 0 0 215 586 169
781 2 2 0 0 250 505 329
782 2 2 0 0 168 588 224
783 2 2 0 0 321 548 170
784 2 2 0 0 262 593 366
785 2 2 0 0 166 646 314
786 2 2 0 0 520 535 291
787 2 2 0 0 373 663 493
788 2 2 0 0 291 535 185
789 2 2 0 0 101 607 97
790 2 2 0 0 130 574 357
791 2 2 0 0 158 570 543
792 2 2 0 0 31 501 11
793 2 2 0 0 444 552 503
794 2 2 0 0 156 559 159
795 2 2 0 0 236 594 505
796 2 2 0 0 206 542 149
797 2 2 0 0 54 551 52
798 2 2 0 0 74 536 373
799 2 2 0 0 337 558 302
800 2 2 0 0 150 532 147
801 2 2 0 0 379 728 457
802 2 2 0 0 299 558 298
803 2 2 0 0 332 538 333
804 2 2 0 0 145 527 148
805 2 2 0 0 514 515 192
806 2 2 0 0 15 500 14
807 2 2 0 0 75 523 73
808 2 2 0 0 467 501 31
809 2 2 0 0 254 592 125
810 2 2 0 0 172 545 321
811 2 2 0 0 144 522 142
812 2 2 0 0 528 532 150
813 2 2 0 0 187 518 291
814 2 2 0 0 553 599 213
815 2 2 0 0 383 603 384
816 2 2 0 0 282 698 490
817 2 2 0 0 244 517 240
818 2 2 0 0 353 525 404
819 2 2 0 0 395 540 538
820 2 2 0 0 94 606 118
821 2 2 0 0 117 539 107
822 2 2 0 0 185 535 182
823 2 2 0 0 388 502 50
824 2 2 0 0 167 591 273
825 2 2 0 0 147 532 146
826 2 2 0 0 92 608 91
827 2 2 0 0 472 676 368
828 2 2 0 0 364 592 254
829 2 2 0 0 21 504 44
830 2 2 0 0 365 597 248
831 2 2 0 0 125 592 116
832 2 2 0 0 588 589 224
833 2 2 0 0 111 113 112
834 2 2 0 0 63 469 408
835 2 2 0 0 105 109 106
836 2 2 0 0 242 526 243
837 2 2 0 0 439 712 29
838 2 2 0 0 240 517 234
839 2 2 0 0 346 533 304
840 2 2 0 0 14 500 38
841 2 2 0 0 494 495 484
842 2 2 0 0 127 630 440
843 2 2 0 0 208 537 204
844 2 2 0 0 175 562 179
845 2 2 0 0 303 626 555
846 2 2 0 0 359 526 242
847 2 2 0 0 243 526 268
848 2 2 0 0 217 537 208
849 2 2 0 0 58 498 55
850 2 2 0 0 503 552 30
851 2 2 0 0 13 499 12
852 2 2 0 0 268 621 569
853 2 2 0 0 489 497 487
854 2 2 0 0 475 498 58
855 2 2 0 0 430 526 359
856 2 2 0 0 248 597 99
857 2 2 0 0 292 537 217
858 2 2 0 0 26 645 45
859 2 2 0 0 234 517 279
860 2 2 0 0 14 497 39
861 2 2 0 0 385 537 292
862 2 2 0 0 305 533 360
863 2 2 0 0 304 533 301
864 2 2 0 0 146 532 284
865 2 2 0 0 483 494 484
866 2 2 0 0 173 562 175
867 2 2 0 0 116 480 112
868 2 2 0 0 224 590 246
869 2 2 0 0 189 518 187
870 2 2 0 0 498 536 72
871 2 2 0 0 414 525 353
872 2 2 0 0 160 522 144
873 2 2 0 0 547 609 548
874 2 2 0 0 182 535 180
875 2 2 0 0 297 601 389
876 2 2 0 0 44 594 81
877 2 2 0 0 301 533 305
878 2 2 0 0 105 106 96
879 2 2 0 0 515 596 200
880 2 2 0 0 293 562 173
881 2 2 0 0 73 523 282
882 2 2 0 0 148 527 285
883 2 2 0 0 174 545 172
884 2 2 0 0 218 596 323
885 2 2 0 0 200 596 203
886 2 2 0 0 149 542 151
887 2 2 0 0 446 552 444
888 2 2 0 0 49 461 330
889 2 2 0 0 330 397 48
890 2 2 0 0 453 738 377
891 2 2 0 0 255 534 324
892 2 2 0 0 52 551 388
893 2 2 0 0 634 646 260
894 2 2 0 0 513 615 358
895 2 2 0 0 438 525 414
896 2 2 0 0 516 618 386
897 2 2 0 0 198 518 189
898 2 2 0 0 227 566 361
899 2 2 0 0 559 560 241
900 2 2 0 0 90 587 93
901 2 2 0 0 416 522 160
902 2 2 0 0 102 591 167
903 2 2 0 0 134 609 137
904 2 2 0 0 298 558 372
905 2 2 0 0 132 574 130
906 2 2 0 0 106 606 96
907 2 2 0 0 159 559 241
908 2 2 0 0 32 611 6
909 2 2 0 0 158 543 155
910 2 2 0 0 223 513 239
911 2 2 0 0 288 531 319
912 2 2 0 0 323 513 220
913 2 2 0 0 115 516 114
914 2 2 0 0 521 601 297
915 2 2 0 0 610 698 455
916 2 2 0 0 354 600 431
917 2 2 0 0 351 550 349
918 2 2 0 0 256 521 297
919 2 2 0 0 140 604 138
920 2 2 0 0 77 460 119
921 2 2 0 0 17 503 16
922 2 2 0 0 9 502 10
923 2 2 0 0 104 587 331
924 2 2 0 0 152 528 150
925 2 2 0 0 315 541 378
926 2 2 0 0 170 548 164
927 2 2 0 0 590 659 420
928 2 2 0 0 11 624 28
929 2 2 0 0 199 549 202
930 2 2 0 0 502 624 10
931 2 2 0 0 453 600 354
932 2 2 0 0 42 43 41
933 2 2 0 0 38 499 13
934 2 2 0 0 285 527 382
935 2 2 0 0 190 514 192
936 2 2 0 0 157 529 528
937 2 2 0 0 231 643 549
938 2 2 0 0 331 587 459
939 2 2 0 0 451 701 232
940 2 2 0 0 99 597 100
941 2 2 0 0 361 568 214
942 2 2 0 0 372 740 544
943 2 2 0 0 221 545 174
944 2 2 0 0 138 604 238
945 2 2 0 0 340 572 275
946 2 2 0 0 338 563 274
947 2 2 0 0 524 542 287
948 2 2 0 0 265 595 312
949 2 2 0 0 111 511 113
950 2 2 0 0 580 658 588
951 2 2 0 0 580 588 163
952 2 2 0 0 237 576 277
953 2 2 0 0 444 503 36
954 2 2 0 0 131 583 580
955 2 2 0 0 505 571 329
956 2 2 0 0 203 596 218
957 2 2 0 0 584 634 260
958 2 2 0 0 261 584 260
959 2 2 0 0 369 647 365
960 2 2 0 0 251 586 215
961 2 2 0 0 348 564 270
962 2 2 0 0 450 552 446
963 2 2 0 0 390 496 391
964 2 2 0 0 66 598 62
965 2 2 0 0 465 623 423
966 2 2 0 0 258 591 102
967 2 2 0 0 343 566 227
968 2 2 0 0 564 623 244
969 2 2 0 0 154 617 141
970 2 2 0 0 324 534 392
971 2 2 0 0 50 502 37
972 2 2 0 0 524 556 542
973 2 2 0 0 544 700 372
974 2 2 0 0 122 516 115
975 2 2 0 0 177 557 221
976 2 2 0 0 489 698 610
977 2 2 0 0 93 587 104
978 2 2 0 0 136 574 132
979 2 2 0 0 593 646 634
980 2 2 0 0 116 592 480
981 2 2 0 0 143 617 527
982 2 2 0 0 225 604 140
983 2 2 0 0 137 631 139
984 2 2 0 0 549 553 202
985 2 2 0 0 164 548 135
986 2 2 0 0 404 550 351
987 2 2 0 0 34 721 473
988 2 2 0 0 220 513 223
989 2 2 0 0 317 640 511
990 2 2 0 0 100 597 258
991 2 2 0 0 588 658 589
992 2 2 0 0 323 615 513
993 2 2 0 0 568 626 303
994 2 2 0 0 377 605 405
995 2 2 0 0 178 613 212
996 2 2 0 0 493 628 373
997 2 2 0 0 157 528 152
998 2 2 0 0 591 627 363
999 2 2 0 0 409 541 315
1000 2 2 0 0 183 614 197
1001 2 2 0 0 103 598 66
1002 2 2 0 0 188 619 194
1003 2 2 0 0 213 599 226
1004 2 2 0 0 306 599 402
1005 2 2 0 0 97 607 25
1006 2 2 0 0 194 514 190
1007 2 2 0 0 373 628 76
1008 2 2 0 0 78 628 253
1009 2 2 0 0 42 47 43
1010 2 2 0 0 39 612 15
1011 2 2 0 0 16 612 29
1012 2 2 0 0 437 610 455
1013 2 2 0 0 487 497 13
1014 2 2 0 0 440 630 441
1015 2 2 0 0 479 713 562
1016 2 2 0 0 196 620 193
1017 2 2 0 0 456 572 340
1018 2 2 0 0 120 511 281
1019 2 2 0 0 577 578 235
1020 2 2 0 0 335 582 399
1021 2 2 0 0 314 741 683
1022 2 2 0 0 520 613 535
1023 2 2 0 0 585 634 584
1024 2 2 0 0 423 564 348
1025 2 2 0 0 457 561 411
1026 2 2 0 0 6 611 5
1027 2 2 0 0 385 620 537
1028 2 2 0 0 228 637 229
1029 2 2 0 0 366 637 249
1030 2 2 0 0 161 570 158
1031 2 2 0 0 434 640 435
1032 2 2 0 0 193 636 191
1033 2 2 0 0 410 606 106
1034 2 2 0 0 37 502 9
1035 2 2 0 0 36 503 17
1036 2 2 0 0 141 617 143
1037 2 2 0 0 363 627 401
1038 2 2 0 0 322 590 420
1039 2 2 0 0 357 618 128
1040 2 2 0 0 430 621 526
1041 2 2 0 0 540 687 103
1042 2 2 0 0 280 577 121
1043 2 2 0 0 276 575 318
1044 2 2 0 0 362 578 577
1045 2 2 0 0 109 649 496
1046 2 2 0 0 246 590 322
1047 2 2 0 0 326 569 381
1048 2 2 0 0 569 621 381
1049 2 2 0 0 269 569 272
1050 2 2 0 0 139 631 154
1051 2 2 0 0 649 664 496
1052 2 2 0 0 537 620 204
1053 2 2 0 0 355 461 49
1054 2 2 0 0 663 685 493
1055 2 2 0 0 479 745 207
1056 2 2 0 0 343 662 565
1057 2 2 0 0 212 557 177
1058 2 2 0 0 45 645 46
1059 2 2 0 0 496 670 109
1060 2 2 0 0 366 634 585
1061 2 2 0 0 384 616 531
1062 2 2 0 0 535 613 180
1063 2 2 0 0 391 632 364
1064 2 2 0 0 308 581 336
1065 2 2 0 0 344 625 462
1066 2 2 0 0 563 625 344
1067 2 2 0 0 13 497 14
1068 2 2 0 0 480 632 117
1069 2 2 0 0 371 668 585
1070 2 2 0 0 333 649 278
1071 2 2 0 0 387 601 521
1072 2 2 0 0 47 49 48
1073 2 2 0 0 358 615 428
1074 2 2 0 0 113 511 120
1075 2 2 0 0 527 617 382
1076 2 2 0 0 105 649 109
1077 2 2 0 0 398 573 307
1078 2 2 0 0 368 676 369
1079 2 2 0 0 180 613 178
1080 2 2 0 0 153 556 176
1081 2 2 0 0 432 657 367
1082 2 2 0 0 458 718 582
1083 2 2 0 0 207 614 183
1084 2 2 0 0 407 611 456
1085 2 2 0 0 244 623 517
1086 2 2 0 0 20 639 27
1087 2 2 0 0 476 675 87
1088 2 2 0 0 319 616 393
1089 2 2 0 0 474 707 197
1090 2 2 0 0 226 599 306
1091 2 2 0 0 47 48 43
1092 2 2 0 0 186 619 188
1093 2 2 0 0 412 732 328
1094 2 2 0 0 316 671 541
1095 2 2 0 0 293 734 478
1096 2 2 0 0 492 685 598
1097 2 2 0 0 528 629 532
1098 2 2 0 0 514 635 515
1099 2 2 0 0 531 616 319
1100 2 2 0 0 8 656 7
1101 2 2 0 0 387 602 601
1102 2 2 0 0 76 628 78
1103 2 2 0 0 122 618 516
1104 2 2 0 0 651 717 394
1105 2 2 0 0 423 623 564
1106 2 2 0 0 546 669 547
1107 2 2 0 0 4 679 34
1108 2 2 0 0 542 556 151
1109 2 2 0 0 548 609 135
1110 2 2 0 0 204 620 196
1111 2 2 0 0 529 629 528
1112 2 2 0 0 482 719 230
1113 2 2 0 0 258 627 591
1114 2 2 0 0 336 582 335
1115 2 2 0 0 197 686 667
1116 2 2 0 0 583 658 580
1117 2 2 0 0 85 675 98
1118 2 2 0 0 59 728 379
1119 2 2 0 0 400 625 338
1120 2 2 0 0 394 717 605
1121 2 2 0 0 471 650 450
1122 2 2 0 0 596 635 323
1123 2 2 0 0 249 637 228
1124 2 2 0 0 515 635 596
1125 2 2 0 0 338 625 563
1126 2 2 0 0 28 633 488
1127 2 2 0 0 566 622 361
1128 2 2 0 0 229 570 161
1129 2 2 0 0 468 654 465
1130 2 2 0 0 118 710 462
1131 2 2 0 0 15 612 16
1132 2 2 0 0 589 659 590
1133 2 2 0 0 526 621 268
1134 2 2 0 0 365 647 597
1135 2 2 0 0 579 583 235
1136 2 2 0 0 22 507 21
1137 2 2 0 0 342 682 264
1138 2 2 0 0 441 648 346
1139 2 2 0 0 191 636 198
1140 2 2 0 0 578 653 579
1141 2 2 0 0 135 609 134
1142 2 2 0 0 128 618 122
1143 2 2 0 0 378 681 310
1144 2 2 0 0 230 690 211
1145 2 2 0 0 210 690 232
1146 2 2 0 0 549 643 553
1147 2 2 0 0 233 661 247
1148 2 2 0 0 10 624 11
1149 2 2 0 0 640 709 435
1150 2 2 0 0 449 719 482
1151 2 2 0 0 452 726 33
1152 2 2 0 0 362 577 280
1153 2 2 0 0 318 575 433
1154 2 2 0 0 492 687 396
1155 2 2 0 0 586 734 293
1156 2 2 0 0 357 655 618
1157 2 2 0 0 277 567 259
1158 2 2 0 0 522 641 225
1159 2 2 0 0 511 640 281
1160 2 2 0 0 247 661 483
1161 2 2 0 0 610 693 39
1162 2 2 0 0 272 569 326
1163 2 2 0 0 490 695 70
1164 2 2 0 0 553 643 599
1165 2 2 0 0 532 629 284
1166 2 2 0 0 29 712 17
1167 2 2 0 0 632 665 117
1168 2 2 0 0 618 655 386
1169 2 2 0 0 241 699 576
1170 2 2 0 0 457 728 561
1171 2 2 0 0 485 572 456
1172 2 2 0 0 430 667 621
1173 2 2 0 0 582 672 458
1174 2 2 0 0 395 687 540
1175 2 2 0 0 504 594 44
1176 2 2 0 0 181 713 207
1177 2 2 0 0 197 707 184
1178 2 2 0 0 524 657 556
1179 2 2 0 0 475 536 498
1180 2 2 0 0 394 738 320
1181 2 2 0 0 51 714 561
1182 2 2 0 0 151 556 153
1183 2 2 0 0 437 693 610
1184 2 2 0 0 361 626 568
1185 2 2 0 0 611 679 5
1186 2 2 0 0 231 680 643
1187 2 2 0 0 462 706 118
1188 2 2 0 0 390 670 496
1189 2 2 0 0 602 642 601
1190 2 2 0 0 49 330 48
1191 2 2 0 0 391 665 632
1192 2 2 0 0 508 737 375
1193 2 2 0 0 450 650 552
1194 2 2 0 0 368 732 476
1195 2 2 0 0 578 579 235
1196 2 2 0 0 402 581 308
1197 2 2 0 0 43 486 41
1198 2 2 0 0 562 713 179
1199 2 2 0 0 592 632 480
1200 2 2 0 0 416 641 522
1201 2 2 0 0 372 668 371
1202 2 2 0 0 452 712 439
1203 2 2 0 0 282 720 455
1204 2 2 0 0 556 657 176
1205 2 2 0 0 364 632 592
1206 2 2 0 0 403 726 452
1207 2 2 0 0 465 654 623
1208 2 2 0 0 278 649 105
1209 2 2 0 0 154 652 617
1210 2 2 0 0 383 688 603
1211 2 2 0 0 451 719 447
1212 2 2 0 0 317 709 640
1213 2 2 0 0 604 711 642
1214 2 2 0 0 382 652 383
1215 2 2 0 0 601 642 389
1216 2 2 0 0 284 671 316
1217 2 2 0 0 599 643 402
1218 2 2 0 0 388 633 624
1219 2 2 0 0 267 678 311
1220 2 2 0 0 337 681 530
1221 2 2 0 0 279 661 233
1222 2 2 0 0 605 738 394
1223 2 2 0 0 33 677 504
1224 2 2 0 0 386 655 387
1225 2 2 0 0 547 669 631
1226 2 2 0 0 562 731 479
1227 2 2 0 0 360 648 595
1228 2 2 0 0 432 692 657
1229 2 2 0 0 367 657 524
1230 2 2 0 0 633 695 488
1231 2 2 0 0 415 473 341
1232 2 2 0 0 644 672 336
1233 2 2 0 0 551 633 388
1234 2 2 0 0 533 648 360
1235 2 2 0 0 407 679 611
1236 2 2 0 0 323 635 615
1237 2 2 0 0 530 681 529
1238 2 2 0 0 393 651 394
1239 2 2 0 0 387 655 602
1240 2 2 0 0 238 703 574
1241 2 2 0 0 594 677 505
1242 2 2 0 0 559 692 560
1243 2 2 0 0 621 667 381
1244 2 2 0 0 405 674 376
1245 2 2 0 0 325 732 368
1246 2 2 0 0 623 654 517
1247 2 2 0 0 581 644 336
1248 2 2 0 0 346 648 533
1249 2 2 0 0 517 654 279
1250 2 2 0 0 477 705 481
1251 2 2 0 0 481 705 355
1252 2 2 0 0 561 728 57
1253 2 2 0 0 379 705 477
1254 2 2 0 0 617 652 382
1255 2 2 0 0 30 650 500
1256 2 2 0 0 376 674 385
1257 2 2 0 0 518 715 519
1258 2 2 0 0 474 667 430
1259 2 2 0 0 478 734 294
1260 2 2 0 0 624 633 28
1261 2 2 0 0 186 707 619
1262 2 2 0 0 64 663 475
1263 2 2 0 0 597 647 258
1264 2 2 0 0 377 738 605
1265 2 2 0 0 31 735 467
1266 2 2 0 0 27 718 458
1267 2 2 0 0 419 673 68
1268 2 2 0 0 616 722 393
1269 2 2 0 0 24 723 419
1270 2 2 0 0 397 638 48
1271 2 2 0 0 404 730 460
1272 2 2 0 0 91 676 472
1273 2 2 0 0 622 626 361
1274 2 2 0 0 7 656 32
1275 2 2 0 0 576 697 277
1276 2 2 0 0 471 691 650
1277 2 2 0 0 536 663 373
1278 2 2 0 0 484 691 471
1279 2 2 0 0 552 650 30
1280 2 2 0 0 311 678 600
1281 2 2 0 0 486 729 5
1282 2 2 0 0 418 673 666
1283 2 2 0 0 232 680 231
1284 2 2 0 0 5 679 4
1285 2 2 0 0 117 665 539
1286 2 2 0 0 384 702 616
1287 2 2 0 0 557 702 221
1288 2 2 0 0 87 675 85
1289 2 2 0 0 225 711 604
1290 2 2 0 0 505 677 571
1291 2 2 0 0 483 661 494
1292 2 2 0 0 263 565 375
1293 2 2 0 0 504 677 594
1294 2 2 0 0 582 718 399
1295 2 2 0 0 645 714 46
1296 2 2 0 0 534 708 392
1297 2 2 0 0 643 680 402
1298 2 2 0 0 18 712 452
1299 2 2 0 0 392 670 390
1300 2 2 0 0 221 702 603
1301 2 2 0 0 496 664 391
1302 2 2 0 0 606 710 118
1303 2 2 0 0 655 703 602
1304 2 2 0 0 608 676 91
1305 2 2 0 0 194 684 514
1306 2 2 0 0 541 671 378
1307 2 2 0 0 154 669 652
1308 2 2 0 0 399 718 639
1309 2 2 0 0 405 715 674
1310 2 2 0 0 33 726 677
1311 2 2 0 0 629 671 284
1312 2 2 0 0 468 735 495
1313 2 2 0 0 469 704 408
1314 2 2 0 0 427 745 479
1315 2 2 0 0 294 734 251
1316 2 2 0 0 461 705 379
1317 2 2 0 0 385 674 636
1318 2 2 0 0 657 692 176
1319 2 2 0 0 561 714 411
1320 2 2 0 0 631 669 154
1321 2 2 0 0 264 682 265
1322 2 2 0 0 43 638 486
1323 2 2 0 0 48 638 43
1324 2 2 0 0 194 744 684
1325 2 2 0 0 381 686 380
1326 2 2 0 0 658 716 589
1327 2 2 0 0 263 567 565
1328 2 2 0 0 310 681 337
1329 2 2 0 0 493 685 492
1330 2 2 0 0 64 685 663
1331 2 2 0 0 309 678 267
1332 2 2 0 0 600 678 431
1333 2 2 0 0 538 694 333
1334 2 2 0 0 598 685 64
1335 2 2 0 0 551 695 633
1336 2 2 0 0 560 699 241
1337 2 2 0 0 211 690 210
1338 2 2 0 0 2 723 3
1339 2 2 0 0 630 708 441
1340 2 2 0 0 467 735 468
1341 2 2 0 0 396 687 395
1342 2 2 0 0 35 507 22
1343 2 2 0 0 259 567 263
1344 2 2 0 0 417 673 418
1345 2 2 0 0 614 686 197
1346 2 2 0 0 392 708 630
1347 2 2 0 0 5 729 6
1348 2 2 0 0 279 725 661
1349 2 2 0 0 6 729 26
1350 2 2 0 0 357 703 655
1351 2 2 0 0 514 684 635
1352 2 2 0 0 540 733 538
1353 2 2 0 0 374 741 593
1354 2 2 0 0 176 692 559
1355 2 2 0 0 650 691 500
1356 2 2 0 0 484 736 691
1357 2 2 0 0 83 733 540
1358 2 2 0 0 558 740 372
1359 2 2 0 0 626 697 555
1360 2 2 0 0 436 693 437
1361 2 2 0 0 375 737 374
1362 2 2 0 0 475 663 536
1363 2 2 0 0 636 674 198
1364 2 2 0 0 674 715 198
1365 2 2 0 0 70 695 551
1366 2 2 0 0 406 721 407
1367 2 2 0 0 677 726 571
1368 2 2 0 0 258 647 627
1369 2 2 0 0 448 701 451
1370 2 2 0 0 458 672 506
1371 2 2 0 0 229 700 570
1372 2 2 0 0 684 744 428
1373 2 2 0 0 570 700 544
1374 2 2 0 0 678 742 431
1375 2 2 0 0 646 741 314
1376 2 2 0 0 603 702 384
1377 2 2 0 0 478 731 293
1378 2 2 0 0 309 742 678
1379 2 2 0 0 380 686 614
1380 2 2 0 0 494 725 468
1381 2 2 0 0 500 691 38
1382 2 2 0 0 635 684 615
1383 2 2 0 0 661 725 494
1384 2 2 0 0 679 721 34
1385 2 2 0 0 509 510 35
1386 2 2 0 0 46 714 51
1387 2 2 0 0 615 684 428
1388 2 2 0 0 432 742 689
1389 2 2 0 0 179 713 181
1390 2 2 0 0 26 739 645
1391 2 2 0 0 35 510 507
1392 2 2 0 0 574 703 357
1393 2 2 0 0 184 707 186
1394 2 2 0 0 39 693 612
1395 2 2 0 0 665 694 539
1396 2 2 0 0 312 708 534
1397 2 2 0 0 554 689 309
1398 2 2 0 0 1 737 508
1399 2 2 0 0 519 717 520
1400 2 2 0 0 277 697 622
1401 2 2 0 0 389 711 641
1402 2 2 0 0 495 736 484
1403 2 2 0 0 17 712 18
1404 2 2 0 0 212 722 557
1405 2 2 0 0 455 720 438
1406 2 2 0 0 622 697 626
1407 2 2 0 0 664 694 665
1408 2 2 0 0 447 719 449
1409 2 2 0 0 669 688 652
1410 2 2 0 0 612 693 436
1411 2 2 0 0 619 744 194
1412 2 2 0 0 57 728 59
1413 2 2 0 0 579 658 583
1414 2 2 0 0 438 727 525
1415 2 2 0 0 539 733 83
1416 2 2 0 0 479 731 478
1417 2 2 0 0 691 736 38
1418 2 2 0 0 401 724 400
1419 2 2 0 0 420 660 2
1420 2 2 0 0 328 732 325
1421 2 2 0 0 320 738 453
1422 2 2 0 0 428 744 429
1423 2 2 0 0 431 742 432
1424 2 2 0 0 425 745 427
1425 2 2 0 0 408 743 434
1426 2 2 0 0 571 726 403
1427 2 2 0 0 119 727 523
1428 2 2 0 0 625 706 462
1429 2 2 0 0 525 730 404
1430 2 2 0 0 499 736 495
1431 2 2 0 0 468 725 654
1432 2 2 0 0 336 672 582
1433 2 2 0 0 198 715 518
1434 2 2 0 0 400 724 706
1435 2 2 0 0 402 680 581
1436 2 2 0 0 589 716 659
1437 2 2 0 0 727 730 525
1438 2 2 0 0 664 665 391
1439 2 2 0 0 337 740 558
1440 2 2 0 0 293 731 562
1441 2 2 0 0 523 720 282
1442 2 2 0 0 460 730 119
1443 2 2 0 0 641 711 225
1444 2 2 0 0 429 744 619
1445 2 2 0 0 119 730 727
1446 2 2 0 0 651 722 212
1447 2 2 0 0 38 736 499
1448 2 2 0 0 667 686 381
1449 2 2 0 0 652 688 383
1450 2 2 0 0 410 710 606
1451 2 2 0 0 644 701 448
1452 2 2 0 0 666 673 419
1453 2 2 0 0 704 743 408
1454 2 2 0 0 251 734 586
1455 2 2 0 0 400 706 625
1456 2 2 0 0 546 688 669
1457 2 2 0 0 668 700 229
1458 2 2 0 0 538 733 694
1459 2 2 0 0 333 694 664
1460 2 2 0 0 565 662 375
1461 2 2 0 0 720 727 438
1462 2 2 0 0 372 700 668
1463 2 2 0 0 579 716 658
1464 2 2 0 0 642 711 389
1465 2 2 0 0 355 705 461
1466 2 2 0 0 407 721 679
1467 2 2 0 0 523 727 720
1468 2 2 0 0 654 725 279
1469 2 2 0 0 639 718 27
1470 2 2 0 0 694 733 539
1471 2 2 0 0 393 722 651
1472 2 2 0 0 645 739 397
1473 2 2 0 0 683 741 374
1474 2 2 0 0 397 739 638
1475 2 2 0 0 653 716 579
1476 2 2 0 0 666 723 660
1477 2 2 0 0 419 723 666
1478 2 2 0 0 374 737 683
1479 2 2 0 0 593 741 646
1480 2 2 0 0 683 737 1
1481 2 2 0 0 689 742 309
1482 2 2 0 0 660 723 2
1483 2 2 0 0 23 25 1
1484 2 2 0 0 25 607 1
1485 2 2 0 0 3 34 2
1486 2 2 0 0 34 415 2
$EndElements
