$MeshFormat
2.2 0 8
$EndMeshFormat
$Nodes
745
1 5.7591870999710764e-08 4.5281036174194708e-06 1.0247782962064535e-03
2 1.5176692325776619e-06 6.0259069480753437e-08 -1.0240624092086141e-03
3 1.4040245493225859e-04 5.4401687006548441e-06 -1.0122133695439108e-03
4 2.7806933472237816e-04 3.9547381477976459e-06 -9.8296868483815740e-04
5 4.1217640762795883e-04 4.8091362134605558e-06 -9.3146961427739065e-04
6 5.3686116661015560e-04 3.0886637210690389e-06 -8.5971577906612687e-04
7 6.4918248986971596e-04 3.3381202010193333e-06 -7.7186192133530394e-04
8 7.4902187604059358e-04 3.2658450802861868e-06 -6.6843171604833828e-04
9 8.3317343349073592e-04 3.1503409673074952e-06 -5.5146866014174568e-04
10 9.0011691455520084e-04 3.1092218496298704e-06 -4.2360839807246921e-04
11 9.4886145210748714e-04 3.3145497764727608e-06 -2.8755731703646324e-04
12 9.7859967014069069e-04 3.3278262813519910e-06 -1.4591603147023275e-04
13 9.8841226046388476e-04 3.2154457245410762e-06 -1.4434994223361946e-06
14 9.7842805528318248e-04 3.4945303946044881e-06 1.4315801694331364e-04
15 9.4934100222138825e-04 3.3945447685788365e-06 2.8490224742968722e-04
16 9.0130760903977863e-04 3.4097090725717744e-06 4.2146267880554931e-04
17 8.3471011553834247e-04 3.0430842398226899e-06 5.4957498241725328e-04
18 7.5056154773799153e-04 2.9243058426061502e-06 6.6705956731326452e-04
19 6.5098022810443649e-04 3.3243389502979516e-06 7.7098135580733586e-04
20 5.3763110988743618e-04 3.2810772015656867e-06 8.5938281884888345e-04
21 4.1298947152372924e-04 3.4114434320289457e-06 9.3039420045795684e-04
22 2.7941318519028336e-04 3.4258612081782293e-06 9.8247604279496628e-04
23 1.4116274176857922e-04 2.1280308562971065e-06 1.0134013448097796e-03
24 1.5029269611888387e-04 1.4985733539811427e-04 -9.9980889174418265e-04
25 1.7214274517358234e-04 1.2258597602493620e-04 1.0018475472249988e-03
26 5.7942420045606759e-04 1.3695542361106530e-04 -8.1674933557396366e-04
27 5.9133056280340018e-04 -1.2331040691283983e-04 8.1111886992996877e-04
28 9.5706413303594834e-04 1.3362408408214638e-04 -2.1591030462360145e-04
29 8.6078370142879455e-04 1.3544241641562027e-04 4.8555937053577442e-04
30 9.2179763235829921e-04 -1.1863730414688153e-04 3.4920779424894047e-04
31 9.5615980360841011e-04 -1.1905711759724217e-04 -2.2905121137884027e-04
32 5.8479279570274848e-04 -1.2377204294333109e-04 -8.1566973178454029e-04
33 5.9049466955519970e-04 1.2714767679528738e-04 8.1055831526459531e-04
34 2.0546873330056406e-04 -1.1896795103913350e-04 -9.9450301510862387e-04
35 2.0846207984498555e-04 -1.2001439912295006e-04 9.9304951443654238e-04
36 7.8939436766277892e-04 -1.2427842071668438e-04 6.0344623031482407e-04
37 7.8776940177568771e-04 1.3193999604589615e-04 -6.0350708382242988e-04
38 9.7917535480600542e-04 -1.1515559938121180e-04 7.0443851828106319e-05
39 9.5806910722397154e-04 1.2818607858125202e-04 2.1268475108740311e-04
40 8.5728991586391911e-04 -1.3145947006380833e-04 -4.9180326477479060e-04
41 2.9598928360129715e-04 1.5061685173388818e-04 -9.6396067601148673e-04
42 2.2599618442577528e-04 2.7316383741270877e-04 -9.5530333069927765e-04
43 3.5587425034132970e-04 2.6826010459137417e-04 -9.1297536465184106e-04
44 3.4387349032073916e-04 1.2720767607009493e-04 9.5167371019781526e-04
45 6.8702929656512123e-04 1.3339898499967174e-04 -7.2282806197226295e-04
46 7.2303562035942476e-04 2.5313086974645759e-04 -6.4718450241431293e-04
47 2.9329608807429554e-04 3.8749337835370165e-04 -8.9080710750391091e-04
48 4.2043489699858448e-04 3.7417115683065785e-04 -8.4065802924462635e-04
49 3.5590921176456098e-04 4.8653364049021743e-04 -8.1029677094575565e-04
50 8.0799453767006421e-04 2.4921707587160211e-04 -5.3052866786589307e-04
51 7.4313939892156438e-04 3.6882568643692779e-04 -5.5692726479042432e-04
52 8.1508840562293167e-04 3.6386868801243261e-04 -4.3943585934648835e-04
53 7.3515497619733436e-04 4.8088395677195299e-04 -4.6945875048813883e-04
54 8.0313667108588400e-04 4.6915982655041538e-04 -3.4521431271397515e-04
55 7.1537347540745868e-04 5.8181616915646279e-04 -3.6804411498512156e-04
56 7.7629504021734701e-04 5.6606739781115203e-04 -2.3925340406148092e-04
57 6.4232035560438420e-04 5.9081777439644778e-04 -4.8043052477444802e-04
58 6.1198245864320161e-04 6.8312856197269187e-04 -3.8040900485977194e-04
59 5.3155986078645017e-04 6.8597138578913616e-04 -4.8958284627083034e-04
60 4.9562056736075603e-04 7.6935880971353075e-04 -3.8510377189925537e-04
61 4.0700991444002582e-04 7.5924844000488368e-04 -5.0179370566436109e-04
62 3.6925505657765052e-04 8.3840439786291693e-04 -3.8298474363189641e-04
63 2.1891826785532572e-04 5.0183376111611494e-04 -8.5168962114728875e-04
64 4.5208257095757904e-04 8.3768281916423847e-04 -2.7208390070767582e-04
65 2.7526592084094079e-04 8.2075119198071040e-04 -4.9453565816971572e-04
66 2.3615382698248825e-04 8.9011590109336282e-04 -3.7106142619701665e-04
67 1.3859363008991062e-04 8.6404559466874884e-04 -4.7634594332462987e-04
68 8.5187865381829329e-05 2.9068002840799018e-04 -9.7428192852383325e-04
69 1.4942912541588254e-04 7.8388238067817590e-04 -6.0509808290123491e-04
70 8.5379725260569591e-04 4.5192330595771757e-04 -2.1534846086186763e-04
71 8.2224058093246285e-04 5.3900088708226158e-04 -1.0599305389739685e-04
72 7.3303895851137713e-04 6.5056305390833195e-04 -1.3165372346315131e-04
73 7.7147110297464728e-04 6.1775819674673462e-04 3.5201308666856828e-06
74 6.7403488786916112e-04 7.2221971050231081e-04 -2.1696693019324477e-05
75 7.0484252110672256e-04 6.8331814043376242e-04 1.1367983270406548e-04
76 6.0105656856364689e-04 7.7955661451388307e-04 8.8193936511202830e-05
77 6.2502970497045965e-04 7.3443129177062276e-04 2.2244619624643648e-04
78 5.1428176067481372e-04 8.2266736199791430e-04 1.9492297985879966e-04
79 9.5104091018069291e-05 9.2517642586653246e-04 -3.4549732493384172e-04
80 -1.2244859699310276e-05 8.9247124830833281e-04 -4.3853897933988120e-04
81 2.6603571386062173e-04 2.5808031016979468e-04 9.5018934649480176e-04
82 5.3354951217555492e-04 7.7015429992018060e-04 3.2637856040355125e-04
83 -4.2366946290211135e-05 9.4011933482814882e-04 -3.1061915851450408e-04
84 4.1537783253173358e-04 8.5059651457163900e-04 2.9402605665486734e-04
85 4.2916049648807178e-04 7.9194415102535763e-04 4.2150994166753944e-04
86 3.0791714212406897e-04 8.6087846967679695e-04 3.8770264764772269e-04
87 3.1796715445613907e-04 7.9424101494682091e-04 5.1183738493071861e-04
88 1.9488122337996491e-04 8.5018011205787250e-04 4.8050258398819428e-04
89 1.6760203841018634e-04 9.1390842476797172e-04 3.4798097033182272e-04
90 4.8023160767751112e-05 8.9266719095792784e-04 4.3546556787972356e-04
91 7.1337583849675866e-05 8.2350697152952263e-04 5.6058325455005337e-04
92 -6.5365402320940189e-05 8.4896139894450543e-04 5.1895153886298453e-04
93 -9.6311549311241696e-05 9.0751403052403078e-04 3.9145483744961384e-04
94 -2.0143940278706198e-04 8.5275238553230868e-04 4.7233955449752673e-04
95 -1.6762065929518461e-04 8.0494073214544093e-04 5.6625288634720478e-04
96 -2.3057419463539622e-04 9.0245081768844241e-04 3.4046463858136645e-04
97 1.1046930375135136e-04 2.5903691859172648e-04 9.8210836387825108e-04
98 5.4340306604556228e-04 6.9816451995919845e-04 4.5840382404123197e-04
99 1.7578722299158123e-04 3.6788318048615527e-04 9.3315806532104633e-04
100 3.3538151954253308e-05 3.6947451509466793e-04 9.4912988617198415e-04
101 -3.5222679310375166e-05 2.5098816077848265e-04 9.8982787636650560e-04
102 -1.0915264035222374e-04 3.6461926099055138e-04 9.4497302941914778e-04
103 1.9988606013822605e-04 9.3980510268110466e-04 -2.3798634934648279e-04
104 -1.2404167644151066e-04 9.4857166254820710e-04 2.5566762064366412e-04
105 -2.5697860890422207e-04 9.3349119583748127e-04 2.0319169953274895e-04
106 -3.5828811307673559e-04 8.7838329126342413e-04 2.8510925483920890e-04
107 -1.5258175222798167e-04 9.0100188093378969e-04 -3.8771257593944090e-04
108 -1.2525671629165191e-04 8.4424786144950798e-04 -5.1482213192288794e-04
109 -3.7337921107552557e-04 9.0369132605518608e-04 1.4526493025166911e-04
110 -2.6330150674076059e-04 8.4161574968412780e-04 -4.6100839073531287e-04
111 -2.4050191046327767e-04 7.7339781206810742e-04 -5.8573178622081321e-04
112 -3.6878100290586201e-04 7.6297647920501026e-04 -5.2606469974420119e-04
113 -3.4067341791077938e-04 6.8852411930598668e-04 -6.4366218929916091e-04
114 -4.6495875387411273e-04 6.6954247910660473e-04 -5.7836373139458154e-04
115 -4.3155770960270673e-04 5.8756521611365157e-04 -6.9096015304378360e-04
116 -4.8960570629991000e-04 7.3741768870126667e-04 -4.5453684578753898e-04
117 -2.8122464993424380e-04 8.9073377637630818e-04 -3.3196840509986341e-04
118 -3.0407106267868613e-04 7.8312693906005322e-04 5.3855615350526236e-04
119 7.2025213599817063e-04 6.3361706873704660e-04 2.4369516715284329e-04
120 -3.0258449651625070e-04 5.9894991671007958e-04 -7.5147038816278768e-04
121 -3.9022282464970791e-04 4.9289636972701782e-04 -7.8979258926424882e-04
122 -5.1463308095270419e-04 4.7523843442297416e-04 -7.2181079860780145e-04
123 -4.6828426775095977e-04 3.7558676531816634e-04 -8.1304473069090618e-04
124 -5.8076802263837301e-04 6.3663511959454323e-04 -5.0048372742775369e-04
125 -6.0018108407866588e-04 6.9766941033025701e-04 -3.7201960764289202e-04
126 -6.8555074063028794e-04 5.8926263303120906e-04 -4.1258820921050566e-04
127 -4.7817266942872633e-04 8.3638503228530934e-04 2.2592695775983869e-04
128 -5.8720056718889564e-04 3.5295861215981877e-04 -7.3718135325551355e-04
129 -5.3509547007482138e-04 2.4951304125559983e-04 -8.2069029450860934e-04
130 -6.4785260214255086e-04 2.2344602315715079e-04 -7.3699572742335457e-04
131 -5.8906573734471865e-04 1.1749931259767464e-04 -8.1278547940841250e-04
132 -6.9547222822610754e-04 8.9365287622856802e-05 -7.2133096428483021e-04
133 -6.2923617174410291e-04 -1.7714833439924768e-05 -7.8931884471771852e-04
134 -7.3299238337472532e-04 -4.6859910921222018e-05 -6.8522486056478860e-04
135 -6.5595300119849229e-04 -1.5296190734762796e-04 -7.4940640857247814e-04
136 -7.8975629884250583e-04 6.0121860616804630e-05 -6.1263981228221653e-04
137 -8.1577215159252692e-04 -8.1685261876713119e-05 -5.7187233452414576e-04
138 -8.6604571401150581e-04 2.9612870226113477e-05 -4.9246442604426667e-04
139 -8.8365265917462207e-04 -1.0610538911275597e-04 -4.4458973856996783e-04
140 -9.2292173601284480e-04 4.6482801989825857e-06 -3.6461208811556503e-04
141 -9.3126977843309021e-04 -1.2938028856645140e-04 -3.1403673932700469e-04
142 -9.6258178578544388e-04 -1.7461825641603193e-05 -2.2841782191542330e-04
143 -9.6187740353290195e-04 -1.5014515675920928e-04 -1.7442865588273744e-04
144 -9.8354007239182255e-04 -3.7792459498323688e-05 -8.7199765073275203e-05
145 -9.7274266439464896e-04 -1.7052244801153907e-04 -3.2477249599462681e-05
146 -9.8472364970379452e-04 -5.6416387142817339e-05 5.4798741375863274e-05
147 -9.6431364654570332e-04 -1.8744902345749147e-04 1.1003546271857068e-04
148 -9.4136111120440781e-04 -2.9990961433363746e-04 2.2205781738393360e-05
149 -9.2306473208759879e-04 -3.1496795113526249e-04 1.6510813729856202e-04
150 -9.3672602701359701e-04 -2.0026771228909537e-04 2.5152042696673424e-04
151 -8.8632662598998370e-04 -3.2392829079982261e-04 3.0407451125723445e-04
152 -8.9123497329429984e-04 -2.0734643235146579e-04 3.8703866915557170e-04
153 -8.3077279587224898e-04 -3.2865465901810040e-04 4.3743539927506263e-04
154 -8.8158602386816142e-04 -2.3658909307145730e-04 -3.9071887330728653e-04
155 -8.2706075954129413e-04 -2.0886815982647589e-04 5.1726552886022519e-04
156 -7.5836373829679421e-04 -3.2722869207660245e-04 5.6198865087602379e-04
157 -8.7732519487156602e-04 -8.4965236073080406e-05 4.6342263720862946e-04
158 -7.4645848820623106e-04 -2.0480226884671233e-04 6.3639562996467623e-04
159 -6.7165975433755066e-04 -3.2084139307225388e-04 6.7371025814569091e-04
160 -9.8458556396100057e-04 7.6614504479338277e-05 -4.4313245978563094e-07
161 -6.5338330437282653e-04 -1.9634781136205337e-04 7.4055032050323580e-04
162 -5.6789294228503490e-04 -3.0775975453115008e-04 7.7565984087070525e-04
163 -5.4844033846020016e-04 -1.2331606537163234e-04 -8.4215170204200338e-04
164 -5.6682963245049901e-04 -2.5728707708538092e-04 -7.9546688535168985e-04
165 -6.9874327203255950e-04 6.4359435928337241e-04 -2.8051683214572209e-04
166 -1.7697384187517933e-04 2.4271483203568568e-04 9.7542803964410731e-04
167 -2.4944605774249878e-04 3.5307146499408457e-04 9.2088735293517274e-04
168 -4.5488792994260790e-04 -2.2504183893423232e-04 -8.7865998887805079e-04
169 -4.6723564881696639e-04 -3.5639858299977672e-04 -8.2338427087776838e-04
170 -5.7382827873221165e-04 -3.8560388394768066e-04 -7.3202883444850369e-04
171 -4.6814082515272211e-04 -4.8072209264974361e-04 -7.5203055591218878e-04
172 -5.6959166390964768e-04 -5.0564975312952646e-04 -6.5310868190615265e-04
173 -4.5777069379460708e-04 -5.9537339113483237e-04 -6.6614393360333321e-04
174 -5.5386432738832733e-04 -6.1464693370609752e-04 -5.6054986418527643e-04
175 -4.3639907756231727e-04 -6.9782098308721291e-04 -5.6723598104221776e-04
176 -7.5472110180745296e-04 -4.4113542461895344e-04 4.7724356300291504e-04
177 -5.2744481408557994e-04 -7.1023270146268577e-04 -4.5613540550676948e-04
178 -4.0473032428327597e-04 -7.8613069753914494e-04 -4.5768866664670066e-04
179 -3.1245068400900984e-04 -7.7107962446284096e-04 -5.5260450184935076e-04
180 -2.7282475421708924e-04 -8.4754080165985995e-04 -4.4488256373063640e-04
181 -1.7555102792798135e-04 -8.2296485222040636e-04 -5.3721918144004519e-04
182 -1.3523141593577761e-04 -8.8941978062959288e-04 -4.2475980813356574e-04
183 -3.5576397236914572e-05 -8.4821583538386780e-04 -5.2516113679214435e-04
184 3.8345145140791300e-06 -9.0928710978557998e-04 -4.0265693684813752e-04
185 -9.5049307439530964e-05 -9.4035076368239549e-04 -3.0050578049947127e-04
186 3.8521576277591110e-05 -9.5364560716247810e-04 -2.6746142677630145e-04
187 -5.4511203958987497e-05 -9.7389289792633340e-04 -1.6632895498751909e-04
188 8.4913749653362300e-05 -9.7651762121273868e-04 -1.3271337594158387e-04
189 -1.2976659295647494e-05 -9.8785964713200120e-04 -2.9295959580438265e-05
190 1.2710580253978354e-04 -9.8029034152706659e-04 4.9762690137382674e-06
191 2.7963368156124598e-05 -9.8249754232441577e-04 1.0794924795287399e-04
192 1.6689376189829989e-04 -9.6468226423185538e-04 1.4286490971366896e-04
193 6.5453756232775523e-05 -9.5725116169477595e-04 2.4713535318778479e-04
194 2.1470594479687996e-04 -9.6079655913516838e-04 -9.2119136406896361e-05
195 2.0424378323868301e-04 -9.2933087463318751e-04 2.7882329083998386e-04
196 1.0223734248048701e-04 -9.1293849619088609e-04 3.7914576353383805e-04
197 1.1237833191288068e-04 -8.6617458008686487e-04 -4.8056073897022826e-04
198 -1.0520545148698753e-04 -9.8021533762538229e-04 7.1054679067136047e-05
199 2.3795839971227849e-04 -8.7464148307740837e-04 4.0939915560285061e-04
200 3.3898580494699446e-04 -8.8129599171777250e-04 3.0404131650923311e-04
201 3.6903141703738122e-04 -8.1718789242616469e-04 4.3134117523878709e-04
202 1.3370961806199208e-04 -8.4963972292610203e-04 5.0546584771509005e-04
203 4.6560621279617432e-04 -8.1424383717489048e-04 3.2335820405237785e-04
204 -4.4038303113311446e-06 -8.7720273427411958e-04 4.7293374453162183e-04
205 2.7418331028959094e-05 -8.0508567158323833e-04 5.9425005528859971e-04
206 -8.8974413080122991e-04 -4.2392830244852159e-04 7.6363649754711393e-05
207 -7.3533934492090605e-05 -7.6767109352235288e-04 -6.4118592714179439e-04
208 -1.1055935140252953e-04 -8.2361965601079467e-04 5.5538301216341731e-04
209 -7.8154665408258086e-05 -7.4325483881456994e-04 6.7095121408614967e-04
210 4.8990118535905238e-04 -7.4573220398672555e-04 4.4089541478218111e-04
211 5.8020577741467612e-04 -7.3453098730332433e-04 3.2916967756658100e-04
212 -4.9929684355641036e-04 -7.8503494764490048e-04 -3.4530153173496233e-04
213 5.9757512780142028e-05 -7.1639576127540186e-04 7.0348976905548484e-04
214 -4.5483382943131047e-05 -6.4712779009038347e-04 7.7321907908063235e-04
215 -3.5044071289809666e-04 -3.2067351088989348e-04 -8.9791356582726045e-04
216 -2.1492195903793424e-04 -7.5283592141057835e-04 6.2585777055467362e-04
217 -2.4578507205171940e-04 -8.2473339122175575e-04 5.0440821124669139e-04
218 5.5171851715755667e-04 -7.9571535773444104e-04 2.0708042841883096e-04
219 6.6703636338959205e-04 -6.9901479468095112e-04 2.1862188326264901e-04
220 6.2720340530051353e-04 -7.5978162641791944e-04 8.8857391102452514e-05
221 -6.3890813563327055e-04 -6.2003926138497678e-04 -4.4433247495145921e-04
222 7.3564269260061261e-04 -6.5441286248803438e-04 9.9431679132743169e-05
223 6.8806686931314825e-04 -7.0946406719486310e-04 -3.1970848003511358e-05
224 -3.3394068924960055e-04 -1.8667790393483172e-04 -9.4414180005405795e-04
225 -9.4533049352387647e-04 1.0985820464233721e-04 -2.7279259682731424e-04
226 9.1987383395822575e-05 -6.1289569004871784e-04 7.9842289231195687e-04
227 -1.3384223921262780e-05 -5.3718174367614179e-04 8.6019085550137790e-04
228 -5.4459010968796830e-04 -1.8101780583247402e-04 8.3388686638183167e-04
229 -6.2891941791574251e-04 -7.4958934222294884e-05 7.8554055893108104e-04
230 6.7262447261905026e-04 -6.3959656502087306e-04 3.5316165266946578e-04
231 3.9270984322828313e-04 -7.4046590103407997e-04 5.4327260435640067e-04
232 5.0931714491796653e-04 -6.5388873939625487e-04 5.5945884166285029e-04
233 7.8262747028307338e-04 -6.0331254308257755e-04 -2.6567629693023911e-05
234 7.3229358760801961e-04 -6.4688438683254692e-04 -1.5467732670043372e-04
235 -4.1589818156726637e-04 2.7058657359308445e-04 -8.8499522069338432e-04
236 3.1922248679447352e-04 3.6502232722538888e-04 8.9264864998277779e-04
237 -4.5320860735815544e-04 -2.8975375716785138e-04 8.5964915847586880e-04
238 -8.3328459093376904e-04 1.8921508124365404e-04 -5.1481658812692007e-04
239 6.2863539768545044e-04 -7.4724295857759812e-04 -1.6031804723590310e-04
240 6.6764280516998014e-04 -6.7694986957350742e-04 -2.8078891857734529e-04
241 -5.8029715305421775e-04 -4.2937198302751844e-04 7.0018862582701112e-04
242 5.5645881979683406e-04 -7.6968433385111220e-04 -2.8453604978249340e-04
243 5.8974256978252496e-04 -6.9217224842798523e-04 -4.0227476967812168e-04
244 6.9381772249451973e-04 -5.9196219835051323e-04 -3.9550354130846735e-04
245 6.0963326660265060e-04 -6.0095360096919345e-04 -5.1272963408109055e-04
246 -2.2584790439213870e-04 -2.7929588727698619e-04 -9.5414212964419268e-04
247 8.2522935792407809e-04 -5.3705238284620785e-04 9.6800589249598654e-05
248 2.3695333098676380e-04 4.7634064800077344e-04 8.6291392747366654e-04
249 -4.2242493445924861e-04 -1.5940052097515573e-04 9.1137456562077413e-04
250 3.7397479801041508e-04 4.6627622920031639e-04 8.1525484730524090e-04
251 -2.3899435884728847e-04 -4.0972783474667069e-04 -8.9852235931814264e-04
252 -1.1143414718341542e-04 -3.6494573619149008e-04 -9.4509992924629485e-04
253 3.9193912159212640e-04 8.9353310571921969e-04 1.6224425813118619e-04
254 -6.0643131409780586e-04 7.4538641305390803e-04 -2.3664233164550906e-04
255 -6.9776103094336720e-04 6.8474934345482969e-04 -1.4367923162383431e-04
256 -7.8274639187060342e-04 5.7519916822381929e-04 -1.8546005049447788e-04
257 -7.7433475700638857e-04 6.1071600163330447e-04 -4.6976470382487205e-05
258 -4.0106012933740564e-05 4.7905767588206518e-04 8.9444441863250279e-04
259 -3.3325206778094435e-04 -2.6894120951113367e-04 9.2333358082969535e-04
260 -3.1478679342109489e-04 2.2775226543683976e-04 9.4153136249771827e-04
261 -3.8436280529167966e-04 3.3490295570619836e-04 8.7736392827884434e-04
262 -2.9367890127689769e-04 -1.3402059194234030e-04 9.6802819719535456e-04
263 -1.9609387928430641e-04 -2.3806829534889305e-04 9.7327375193532225e-04
264 -8.4849778981373246e-04 4.9859914197970421e-04 -8.9172832660675564e-05
265 -8.3409296871952640e-04 5.2621666837174557e-04 5.6612870212818518e-05
266 -3.4797278981507228e-04 -7.4584258111554981e-04 5.6731329055438606e-04
267 -3.7217069588435585e-04 -8.0971987620638423e-04 4.4274239059439573e-04
268 5.0103590290151608e-04 -6.9359822237199009e-04 -5.1324685897571388e-04
269 5.1341226335129887e-04 -5.9634285572923793e-04 -6.2029806326890631e-04
270 6.1824391184993810e-04 -4.9746477269219385e-04 -6.1124971165085718e-04
271 5.1571135797676799e-04 -4.8682361942565974e-04 -7.1393216893447179e-04
272 4.0603066097979839e-04 -5.8007193639858458e-04 -7.1504724854091421e-04
273 -3.1525295034789583e-04 4.5636299290010640e-04 8.4713767523059841e-04
274 -4.4656457728859235e-04 4.3400631797686708e-04 7.9498555096073104e-04
275 4.0368419047053194e-04 -4.6515976850726096e-04 -8.0140907280270527e-04
276 2.8977932305500282e-04 -5.5241959147710976e-04 -7.9494491011130285e-04
277 -3.5778388149623600e-04 -3.8999702408497918e-04 8.6500173810347884e-04
278 -1.4632142197977711e-04 9.7036152460382229e-04 1.1733217099904279e-04
279 8.1405920910222686e-04 -5.4129533241550714e-04 -1.4930701790850324e-04
280 -2.5853182620454732e-04 5.0043040457548168e-04 -8.4106935934719431e-04
281 -1.6663156365014892e-04 5.9861232985258936e-04 -7.9606537166720752e-04
282 8.5740042363692884e-04 4.9158165428894534e-04 3.2949102806328750e-05
283 1.2339250241415610e-04 -4.9658270481360957e-04 8.7686470857975183e-04
284 -9.7684256298378601e-04 5.5281259420601274e-05 1.3819866662396018e-04
285 -8.9897306596354567e-04 -4.0535051090733306e-04 -6.6317569829423199e-05
286 -8.3753841688766607e-04 -5.2478783713024531e-04 -1.3008165125138028e-05
287 -8.2010779003820113e-04 -5.3743201448826574e-04 1.2930565185619177e-04
288 -7.5844809742553769e-04 -6.3287375481986834e-04 3.9080065688325674e-05
289 -7.3257453080174256e-04 -6.4009827429708361e-04 1.8118560946653455e-04
290 -6.6176152475862790e-04 -7.2864613595845240e-04 9.0623779612407512e-05
291 -1.9360807681320028e-04 -9.5082252948962373e-04 -1.9617334380024718e-04
292 -2.7024482729377835e-04 -8.8047908691308598e-04 3.7263449400512587e-04
293 -3.4647642836308569e-04 -5.6420734594654057e-04 -7.6020412467315071e-04
294 -1.2192169352176835e-04 -4.9228510595781952e-04 -8.7969049294592131e-04
295 -5.1109472212075850e-04 3.0804419234586346e-04 8.1655118858643824e-04
296 -5.6836443609871185e-04 4.0329982540652376e-04 7.2608641443347747e-04
297 -8.5000982077316123e-04 4.5426855128138282e-04 -2.2499128454538830e-04
298 -6.2700699171347907e-04 2.7307024555943188e-04 7.3945339995442325e-04
299 -6.7789891069947690e-04 3.6493001430998545e-04 6.4178195023326763e-04
300 -6.1270277614041606e-04 4.9108377775407383e-04 6.2163893794938026e-04
301 -7.1569995927634248e-04 4.4824599297492326e-04 5.3119726333554691e-04
302 -7.7311626576250111e-04 3.1759041494829672e-04 5.4528705065704994e-04
303 -3.1357591996302039e-04 -6.6529766893701507e-04 6.8435313689065881e-04
304 -6.4325140295195822e-04 5.7015190576013147e-04 5.0526350601840301e-04
305 -8.0372802523974473e-04 3.9706657180968772e-04 4.2983376658197906e-04
306 2.2776265920073418e-04 -5.6583763896980320e-04 8.0644755126232166e-04
307 2.5686849605361696e-04 -4.4365090484825917e-04 8.7596390344147517e-04
308 3.5903029715187861e-04 -5.0731391446197176e-04 7.9692756747477085e-04
309 -4.6073227343184216e-04 -7.2324669749731748e-04 5.0923316257297591e-04
310 -8.5238364386033155e-04 2.6575570736693169e-04 4.3825598296873486e-04
311 -3.9343298286807093e-04 -8.5432744661014610e-04 3.1582677505428931e-04
312 -7.5124904952540402e-04 6.3433262161426000e-04 9.2680293815216731e-05
313 -8.3813810236898025e-04 -5.0150913928793679e-04 -1.5544119761518957e-04
314 -1.0176644888045576e-04 1.2591317807917078e-04 1.0101916640113194e-03
315 -8.7576044225265058e-04 3.3882685641018026e-04 3.1927541103528279e-04
316 -9.6630437834622400e-04 1.8539850667804620e-04 8.7846389930260673e-05
317 -1.0504262246994241e-04 7.7234435847122959e-04 -6.2863831345611907e-04
318 2.8621581477348841e-04 -4.3490247157227329e-04 -8.7059068230487782e-04
319 -6.8101176276355699e-04 -7.1447467371976855e-04 -5.2126928769760023e-05
320 -5.8398778551460259e-04 -7.9685157266107221e-04 3.8982673277766804e-07
321 -6.6883669813435904e-04 -4.0541516026603667e-04 -6.2602396089734224e-04
322 -9.6886285505438702e-05 -2.3032021653071708e-04 -9.9073627626303359e-04
323 5.1066092202200759e-04 -8.4300014524583879e-04 8.0669147602614033e-05
324 -5.9958281875392466e-04 7.7870857946993983e-04 -9.7188254802090443e-05
325 2.9181021126847649e-04 5.7522521432651721e-04 7.7564511323228330e-04
326 2.8784432206183336e-04 -6.6098095452570536e-04 -7.0081029294028082e-04
327 1.6840442685748860e-04 -6.2660679490019009e-04 -7.7327011465367691e-04
328 4.2653744542660749e-04 5.5667584322324206e-04 7.2114415856615788e-04
329 4.9950120853212003e-04 4.4129775867839409e-04 7.5551436276188736e-04
330 4.7949062912726651e-04 4.6195017234739952e-04 -7.5573626638515603e-04
331 -1.4134762292639795e-05 9.7454219014733614e-04 1.6749719154684489e-04
332 -3.7496897742503798e-05 9.8652457447974905e-04 2.6225538629470077e-05
333 -1.6595306629404842e-04 9.7316491941095405e-04 -2.1415023328951757e-05
334 9.7116944507227973e-05 9.8016241147899511e-04 7.6450707650366014e-05
335 3.8400906608295344e-04 -3.7947498380205033e-04 8.5801730232097997e-04
336 4.7727122380959806e-04 -4.4360079346982575e-04 7.7021629482519421e-04
337 -8.1501531749215354e-04 1.9112505992809436e-04 5.4382657720305832e-04
338 -3.7298867523489143e-04 5.5055392065577564e-04 7.5639877649619431e-04
339 -1.2080886803872246e-04 5.0360130860671278e-04 -8.7207842592234945e-04
340 3.9373798311554770e-04 -3.4029830909188517e-04 -8.7066254688060625e-04
341 2.3392976458899099e-05 -3.2258329765770581e-04 -9.6757873398142520e-04
342 -9.1662941622881039e-04 3.5365238192946557e-04 -1.1393591114617520e-04
343 1.7250665785450791e-05 -4.1550861356420984e-04 9.2971275594752243e-04
344 -5.3327877978517273e-04 6.0658447779175968e-04 5.8976173965216141e-04
345 -5.4296754846672960e-04 7.0181895845084202e-04 4.5246255093847382e-04
346 -6.6297962363929739e-04 6.3894926966802086e-04 3.7195196518880375e-04
347 6.1335695250349959e-04 -3.8200674721078950e-04 -6.9937192464724479e-04
348 7.0872230917153989e-04 -3.8691599533939249e-04 -5.9131947747617045e-04
349 5.4646450370222964e-04 5.2988374663756729e-04 6.5298508364320274e-04
350 6.1655248748044124e-04 4.0736754512881048e-04 6.7942911211346158e-04
351 6.5793836478080349e-04 4.9128382803630415e-04 5.7033694939459881e-04
352 7.2235238781623182e-04 3.6290637900150268e-04 5.8938868317818030e-04
353 7.5500241232846288e-04 4.4320996161271683e-04 4.7548224630122312e-04
354 -6.2852712433571277e-04 -7.2918348492193692e-04 2.3124937784414095e-04
355 2.8001634484249902e-04 5.9223853725791939e-04 -7.6580983882322529e-04
356 1.4125875721703732e-04 6.0703037247988758e-04 -7.9416961306824694e-04
357 -6.9148444678387760e-04 3.2116095399603383e-04 -6.5025991742976707e-04
358 5.1082675586767014e-04 -8.3154290229507817e-04 -1.6247949721449347e-04
359 4.3291669390710808e-04 -8.4534230276984426e-04 -2.8342115917738927e-04
360 -8.1722908532071820e-04 4.6923479726353705e-04 3.0749451438447437e-04
361 -1.4858717989904991e-04 -5.6771870093614554e-04 8.2405714961315292e-04
362 -2.0893128037014714e-04 3.8740344872393066e-04 -9.1644395458283657e-04
363 -2.3838733606634991e-04 5.6725071751668912e-04 8.0057489619512275e-04
364 -5.0310777065761783e-04 8.3047501952753433e-04 -1.8710339373302615e-04
365 1.5451129640383160e-04 5.8316006495846818e-04 8.1099176502261530e-04
366 -3.8401225526970846e-04 -2.5721408983845346e-05 9.4316918623455208e-04
367 -6.9248717404342419e-04 -6.3520686853556002e-04 3.1659014354067067e-04
368 2.0631325043724035e-04 6.7506112766037502e-04 7.1692818256639129e-04
369 8.3222867166621439e-05 6.6479701556246349e-04 7.5236091597614800e-04
370 6.9890165883037885e-04 -2.6759985572135688e-04 -6.6955455511282305e-04
371 -5.6333311457751930e-04 1.7479829897811935e-04 8.2187099725077050e-04
372 -6.8908558760156970e-04 1.3595496169570734e-04 7.2043451891986676e-04
373 5.6498507689758915e-04 8.0918333845737117e-04 -4.1652994077965540e-05
374 -1.5937330706153761e-04 -1.0382879390024788e-04 1.0053303382792235e-03
375 -5.9539147396682134e-05 -2.0647764508618737e-04 1.0003331650287959e-03
376 -2.9012852509647483e-04 -9.1715795146190421e-04 2.3682119692948047e-04
377 -4.2872586434820718e-04 -8.7684860514554148e-04 1.6533295074138817e-04
378 -9.1748384960403120e-04 1.8178883228698670e-04 3.3067002289180979e-04
379 4.4471359236863815e-04 6.6112304644321365e-04 -6.0558470952264533e-04
380 1.6404000048128264e-04 -7.2812782832936394e-04 -6.7172918374397807e-04
381 2.8185537902469706e-04 -7.5217157891932008e-04 -5.9663881821390942e-04
382 -8.9041443447577737e-04 -3.7780380931916850e-04 -2.0769902803182075e-04
383 -8.2388051713957544e-04 -4.6975726877702484e-04 -2.8654611796531042e-04
384 -7.6422361328633943e-04 -5.8266514091070444e-04 -2.3920208158050973e-04
385 -1.6609661951475660e-04 -9.3211356835758499e-04 2.9472228428758710e-04
386 -6.5857552730323688e-04 5.2209768538636291e-04 -5.3748129502722815e-04
387 -7.5467668329554083e-04 4.6980463713711167e-04 -4.4551917669649545e-04
388 8.7588494906692602e-04 2.4004324819646032e-04 -4.0354583217260551e-04
389 -8.9763481280887925e-04 3.2474320759670377e-04 -2.6299989590834196e-04
390 -4.9226105097016529e-04 8.5464410180798977e-04 -5.0183016741418633e-05
391 -3.9371016932424546e-04 8.9642825182283169e-04 -1.3401305863893235e-04
392 -5.9454333192837921e-04 7.8739686346413808e-04 3.3394971139089243e-05
393 -5.8944442694767627e-04 -7.8245395686530098e-04 -1.3372540381511929e-04
394 -4.9989947780086782e-04 -8.4979324325806381e-04 -6.5545186958474645e-05
395 7.2402326169436541e-05 9.8325011909528698e-04 -6.0141185401739384e-05
396 2.0578595035896594e-04 9.6607865746164740e-04 -9.9378505750060480e-06
397 5.5285711508479469e-04 3.4298581607229440e-04 -7.7036798078863140e-04
398 2.7729057337744288e-04 -3.2497442102546201e-04 9.2354413363438675e-04
399 4.0169947433736441e-04 -2.4341828275914240e-04 9.0136234724530950e-04
400 -2.9284585930192033e-04 6.5550765936916598e-04 7.0290804291869521e-04
401 -1.7685946226304172e-04 6.4878933277296119e-04 7.4899845827986432e-04
402 3.2494773715987450e-04 -6.2270845654657445e-04 7.2120672888005479e-04
403 6.7728069343127046e-04 2.7878751103917112e-04 6.8749100423346344e-04
404 6.7784907804648454e-04 5.7773573795899709e-04 4.4525411370813743e-04
405 -3.0685404283234733e-04 -9.3557489715211020e-04 8.9620940399167865e-05
406 2.8131792792794407e-04 -3.2071537944585387e-04 -9.2376791551017649e-04
407 3.8655749514376940e-04 -2.1915142742732392e-04 -9.1517723861553725e-04
408 8.6970987277666361e-05 5.2147084482534760e-04 -8.6497473128843672e-04
409 -8.8144492120892273e-04 4.2024731924815000e-04 1.6108974122344130e-04
410 -4.5438944011637507e-04 8.0620727828601270e-04 3.5889895892414117e-04
411 5.8586735693442495e-04 4.4092532653772849e-04 -6.8546835965357944e-04
412 4.6393941941878791e-04 6.4508235167530569e-04 6.0933215328664810e-04
413 8.1068078909491835e-04 3.0993484052167737e-04 4.9070726825934784e-04
414 8.3603035555610418e-04 3.8617190462168739e-04 3.7049964279304150e-04
415 3.3357096102435403e-05 -1.7425491421459415e-04 -1.0067956240996830e-03
416 -9.6390536293418350e-04 2.0977311778207705e-04 -5.4160055289113155e-05
417 -8.3407613334625651e-05 4.1278762064312605e-04 -9.2576887876775181e-04
418 -1.6769056105044567e-04 2.8792388586864319e-04 -9.6401895686033855e-04
419 1.9615728517884105e-05 1.9398735112162392e-04 -1.0029695081378632e-03
420 -8.2220069842573709e-05 -9.0485815472245257e-05 -1.0157928589793815e-03
421 -9.3524972046565261e-04 3.1572329682002501e-04 4.7773932577636417e-05
422 7.8864500173651537e-04 -2.6769613210748402e-04 -5.5216189453528917e-04
423 7.9196644202305364e-04 -3.8218990897629051e-04 -4.6830142752465773e-04
424 2.3041242156170665e-04 9.5291921419731070e-04 1.2632811193432977e-04
425 3.7679686045129820e-05 -6.9802157081390391e-04 -7.2494976520519978e-04
426 4.5559604187059828e-05 -5.7691670526456541e-04 -8.3084505489572163e-04
427 -7.9755483383715580e-05 -6.2826026079108031e-04 -7.8609982752933549e-04
428 3.8584169212103165e-04 -8.9630945592014167e-04 -1.6200811020306965e-04
429 3.0286510029025877e-04 -9.0191946683303148e-04 -2.7759244883978029e-04
430 3.4835294585057767e-04 -8.4253709158768955e-04 -3.9531857801027373e-04
431 -5.8496684957468016e-04 -7.1447714209866902e-04 3.6420553850288870e-04
432 -6.3132907151026811e-04 -6.1581045197601917e-04 4.6234203149205985e-04
433 1.5744443207230471e-04 -3.9058873275508380e-04 -9.2631073952725461e-04
434 -1.1578717929760037e-05 6.0468115303261396e-04 -8.1025915088393937e-04
435 6.8014502454642688e-05 7.0190318618171049e-04 -7.1739367607598695e-04
436 8.8336410002037272e-04 2.5032347284387798e-04 3.7927176644138424e-04
437 8.9829783178913230e-04 3.2651688020111572e-04 2.5847635021069253e-04
438 8.4541397109804284e-04 4.5200175123773966e-04 2.4581973962279225e-04
439 7.7366939240463639e-04 2.1898746211821194e-04 5.9639215296272317e-04
440 -5.7509230286583661e-04 7.4786942918328946e-04 3.0501911261369052e-04
441 -6.9614284457196853e-04 6.6796793197242393e-04 2.2002686839545408e-04
442 6.9401085293363052e-04 -1.2693836009651055e-04 7.1801778236520446e-04
443 7.2584556047661068e-04 -2.4807839802883628e-04 6.4660928192968167e-04
444 8.1017515678678863e-04 -2.4378677844332950e-04 5.3028450197227517e-04
445 7.3920019093970510e-04 -3.6490337198606172e-04 5.6515275328221295e-04
446 8.1597788231667313e-04 -3.5883085589715006e-04 4.4290455095440535e-04
447 7.3659620268451366e-04 -4.7560578021445428e-04 4.7293612206178567e-04
448 6.5515771952535267e-04 -4.7946612728156599e-04 5.8415498343069910e-04
449 8.0850806061548669e-04 -4.6107820179082918e-04 3.4633254049281769e-04
450 8.7602056159710479e-04 -3.4649112923137992e-04 3.1072802081908915e-04
451 6.4148440461089145e-04 -5.8348724115108179e-04 4.9231877070641313e-04
452 7.0453590324164191e-04 1.3050124450289527e-04 7.0596848894375545e-04
453 -5.5234390138568686e-04 -8.0826957543461502e-04 1.4085750605903510e-04
454 2.6365862169628719e-05 -4.5003063209911087e-04 -9.1192914430485693e-04
455 8.9870882934462034e-04 3.9070559758183247e-04 1.3209030894160490e-04
456 4.9482262011360328e-04 -2.4133523340855195e-04 -8.5078053522873360e-04
457 5.2832936930211928e-04 5.4459267514795934e-04 -6.5558424453731180e-04
458 6.1863775379911352e-04 -2.5477713516427179e-04 7.5446924229319540e-04
459 1.1864851983567001e-04 9.5820923001425646e-04 2.1719430298857963e-04
460 6.3856610941711873e-04 6.7460390915992006e-04 3.5029417337746117e-04
461 4.0975697741211148e-04 5.7570977896312988e-04 -7.1472930247069172e-04
462 -4.3199663737816503e-04 7.0736385092371086e-04 5.5720348612811903e-04
463 7.8185714942093239e-04 -1.3332536690292235e-04 -6.1168008150175909e-04
464 8.6259519229073332e-04 -2.5649664150613618e-04 -4.2404116119565660e-04
465 8.5584421226955450e-04 -3.6787213117097164e-04 -3.4240430610693931e-04
466 9.7333224604564061e-06 8.3146840719941387e-04 -5.5306883431026062e-04
467 9.1317495021384792e-04 -2.4088290998934228e-04 -3.0232368252359733e-04
468 9.0538566587879219e-04 -3.4337294676964260e-04 -2.0486398132055355e-04
469 1.5439598603424372e-04 4.0724734112153034e-04 -9.1847949478092547e-04
470 8.5867045723473354e-04 -4.4734508961183323e-04 2.0901332321673479e-04
471 9.1678013145009925e-04 -3.2789941479276512e-04 1.7523983808844786e-04
472 2.0513015875173781e-04 7.7686380437397957e-04 5.9556094679532972e-04
473 1.3307715954436860e-04 -2.5274511575491566e-04 -9.8005402816490547e-04
474 2.2056988718650283e-04 -8.9348186773403611e-04 -3.7395856204136394e-04
475 5.7103955746780138e-04 7.6187104483957629e-04 -2.7179687419477238e-04
476 3.3167760090147826e-04 7.1858572436355763e-04 6.1291702319539519e-04
477 3.0562598348847660e-04 7.3862582736611445e-04 -6.0234242624035460e-04
478 -2.1241058142017980e-04 -5.7483890685722336e-04 -8.0306770498189792e-04
479 -1.8276589829200162e-04 -6.8559147418645241e-04 -7.1243735920616406e-04
480 -3.8992587788065072e-04 8.2119487332195612e-04 -4.0042521341006793e-04
481 2.1385965123228582e-04 6.9146247468350962e-04 -6.9696894446931511e-04
482 7.7463929489686759e-04 -5.6926090637987917e-04 2.4435424945527259e-04
483 8.9245401611412738e-04 -4.1848279363206276e-04 7.1601105562740225e-05
484 9.3973039772730406e-04 -3.0243240889867322e-04 3.6637833276777347e-05
485 6.0029898938510561e-04 -2.5948035560800168e-04 -7.6830509612060014e-04
486 4.4011023219185164e-04 1.7518063396177634e-04 -8.9794213219073805e-04
487 9.7772211936439628e-04 1.2971741096636682e-04 -7.1002988710231629e-05
488 9.4485601459149934e-04 2.6833526451100048e-04 -1.1771012938594419e-04
489 9.6099803611885424e-04 2.2977148833279009e-04 8.8478944745726812e-06
490 8.9301159085059803e-04 4.1317764293410752e-04 -9.7964179566569688e-05
491 3.4125491579423361e-04 9.2652094337818938e-04 3.2418326575386986e-05
492 3.0102416199660455e-04 9.3380654414136448e-04 -1.1958902453158149e-04
493 4.3830589036348449e-04 8.8335131063264839e-04 -5.7559338957839995e-05
494 9.1023856186314331e-04 -3.7873110204333856e-04 -6.2673327193944926e-05
495 9.4846116085541877e-04 -2.6452367970926588e-04 -8.5482228953226785e-05
496 -3.8421364148979694e-04 9.0986188502380119e-04 4.6753152970880133e-06
497 9.7756226139427099e-04 1.2753875054505480e-04 7.2988638932199899e-05
498 6.7972805273277810e-04 6.7207786736813205e-04 -2.5906578274757449e-04
499 9.7611548060022948e-04 -1.3271154576641577e-04 -8.5711837555445294e-05
500 9.6008276725356484e-04 -1.1359219134916258e-04 2.1198094791512122e-04
501 9.1618563863651175e-04 -1.2649382840837557e-04 -3.6152794694085190e-04
502 8.6462384579503895e-04 1.2726685327089140e-04 -4.7862978950765408e-04
503 8.6497957951606490e-04 -1.2142897866900054e-04 4.8016445759628502e-04
504 4.7139275804691745e-04 1.2649144230084613e-04 8.9054129289639595e-04
505 4.4539541920665871e-04 3.4397409685688160e-04 8.4156327622348704e-04
506 6.5424774221573565e-04 -3.7355443498126537e-04 6.6297345568321162e-04
507 3.2211409616078878e-04 -1.0542774933562842e-04 9.6148301930629957e-04
508 6.8473478101968300e-05 -1.2183595542847311e-04 1.0143555688386682e-03
509 1.4701741174355927e-04 -2.4906767659701421e-04 9.7909197958878625e-04
510 2.5915672337732838e-04 -2.2547277324106623e-04 9.5934570422419698e-04
511 -2.1413862372595926e-04 6.8866331522301929e-04 -6.9955668518917758e-04
512 2.8331071632883847e-04 9.1456875446686121e-04 2.5297502623542844e-04
513 5.7583603693635711e-04 -8.0284224389869281e-04 -3.8126520663252097e-05
514 2.6014119215346293e-04 -9.5271012757019730e-04 4.1755542831523657e-05
515 3.0179752217140922e-04 -9.2649739991319498e-04 1.7365172308033230e-04
516 -5.4864234791392565e-04 5.6346814755199950e-04 -6.1943289449642252e-04
517 7.6132818146064970e-04 -5.7345708487508654e-04 -2.7090261009061160e-04
518 -1.4533436787189492e-04 -9.7577526833757689e-04 -6.3419601722313615e-05
519 -2.8782266674578979e-04 -9.4315759356821533e-04 -7.2492171048616389e-05
520 -3.3001558588175090e-04 -9.0695158537584710e-04 -2.2253979626221180e-04
521 -7.7617430433991300e-04 5.2771592566205189e-04 -3.1913479224385857e-04
522 -9.7385941763724812e-04 9.3675850197999852e-05 -1.3952455748895957e-04
523 7.9207083576540802e-04 5.7595884875246035e-04 1.3461154976848974e-04
524 -7.8684514020689817e-04 -5.4021605851722920e-04 2.6571121863452944e-04
525 7.7383465178334652e-04 5.1109816102794811e-04 3.5286384911306721e-04
526 4.7415890352671495e-04 -7.7626855555247912e-04 -4.0120496731351114e-04
527 -9.4075184829247617e-04 -2.7902443012088471e-04 -1.1997540628495589e-04
528 -9.3083047672574016e-04 -8.3649502309615558e-05 3.3234043330118701e-04
529 -9.0916788314363928e-04 3.9350179516444476e-05 3.9908052119076270e-04
530 -8.4110395271380666e-04 5.3967502021835839e-05 5.3469864990434910e-04
531 -7.6793694574484950e-04 -6.1472615137086171e-04 -1.0161047150192156e-04
532 -9.6699286611669644e-04 -7.3281916248636402e-05 1.9440827656639245e-04
533 -7.4000425727725283e-04 5.2215903377500906e-04 4.0857235211446893e-04
534 -6.8859751783745780e-04 7.0725465919251149e-04 -9.2592318171473896e-06
535 -2.3304250349677832e-04 -9.0711677584825242e-04 -3.2833277934567857e-04
536 6.3051716258850509e-04 7.4649650747588003e-04 -1.5020622256227276e-04
537 -1.3919258274003025e-04 -8.8776139647358144e-04 4.2747858483351648e-04
538 -5.7143760067340316e-05 9.8069397885000575e-04 -1.0334224374689494e-04
539 -1.7261019472674977e-04 9.3741033417974243e-04 -2.6684478793975036e-04
540 4.9114254681257838e-05 9.6654871165060175e-04 -2.0514229394022083e-04
541 -9.2883663976496295e-04 2.7476414372271368e-04 2.0297422362349448e-04
542 -8.6321670544213535e-04 -4.3307906995555828e-04 2.1737281573963358e-04
543 -8.0462451730145806e-04 -8.7393788776363285e-05 5.8737872443477828e-04
544 -7.5980640357206479e-04 3.1081704631652373e-05 6.5371637583231496e-04
545 -6.6306126666568015e-04 -5.2598108999460911e-04 -5.2881435745234209e-04
546 -7.4961590501610841e-04 -4.1691970012813876e-04 -5.0797097942489877e-04
547 -7.5355047686347771e-04 -2.9665419404620091e-04 -5.8635572945987943e-04
548 -6.6939030600185608e-04 -2.8292368636819077e-04 -6.9400203017783114e-04
549 2.6431420054893638e-04 -8.0352638879254811e-04 5.3009085015509518e-04
550 5.8413750114795731e-04 5.9599774393674816e-04 5.4880235216611803e-04
551 8.7264755328228169e-04 3.4957387867328154e-04 -3.1498015399584962e-04
552 8.7831642788984928e-04 -2.3962387351671781e-04 3.9947243011820749e-04
553 1.6406341266736389e-04 -7.6897633549448548e-04 6.2096882681990156e-04
554 -4.5415414233040003e-04 -6.3890014551024651e-04 6.2463559508796156e-04
555 -4.0236566556585819e-04 -5.6097678570213370e-04 7.3334287429522411e-04
556 -8.1897863888733382e-04 -4.3777936384583829e-04 3.4975589062148508e-04
557 -6.0896145594904023e-04 -7.0824890945225957e-04 -3.3467799799203479e-04
558 -7.3479441214537554e-04 2.3983018271383344e-04 6.3758199313214805e-04
559 -6.7364592620656907e-04 -4.3753127873564970e-04 5.9657192404992886e-04
560 -5.8079505998306642e-04 -5.4476329091475016e-04 6.0764459486694245e-04
561 6.4877366709866890e-04 4.9034924500830710e-04 -5.8227358735265416e-04
562 -3.3372898547782162e-04 -6.7392725365282211e-04 -6.6453026431793037e-04
563 -4.9646324741154291e-04 5.2415976266984889e-04 6.9871747992891471e-04
564 7.0838614458082667e-04 -4.9632587393520528e-04 -4.9634724425587297e-04
565 -9.9405884357764063e-05 -3.2994775567213070e-04 9.6036318837309847e-04
566 -1.1536845640184824e-04 -4.5134252550878501e-04 9.0356539475955529e-04
567 -2.3871254478533211e-04 -3.5577812847043970e-04 9.2296760331665587e-04
568 -1.8075843045279032e-04 -6.6479485362013889e-04 7.3462820521238731e-04
569 4.0043061264014555e-04 -6.8251419835151236e-04 -6.1379058168366154e-04
570 -7.1650634920742296e-04 -8.4307612709059681e-05 6.9915759764629113e-04
571 5.7072314973403190e-04 3.2562578256462965e-04 7.6439196236036209e-04
572 5.0580469792641718e-04 -3.6757361853610710e-04 -7.9359786813853941e-04
573 1.5768105527852168e-04 -3.7089203848927118e-04 9.3522047229067386e-04
574 -7.4612943285863337e-04 1.9124720840297234e-04 -6.4110801330145937e-04
575 1.7168255781258027e-04 -5.1360680492534036e-04 -8.5724123087229580e-04
576 -4.7481315951072221e-04 -4.3559716990609399e-04 7.7742145754994773e-04
577 -3.3363540336119778e-04 3.9384966400087603e-04 -8.7285522811643857e-04
578 -2.9363818431487145e-04 2.7425567115292024e-04 -9.3517312739814756e-04
579 -3.5844778476598496e-04 1.5221981577295148e-04 -9.4064061923288856e-04
580 -5.1645483655785864e-04 1.0129290827246524e-05 -8.7251566179636980e-04
581 4.6643289411983191e-04 -5.7444232061304402e-04 6.8023163759465188e-04
582 5.0124826789006119e-04 -3.1757734974591402e-04 8.1939549431338948e-04
583 -4.7221093315705931e-04 1.4012385475225530e-04 -8.8697583236581150e-04
584 -4.4181672367350251e-04 2.0710785230871058e-04 8.9069324478508773e-04
585 -4.8780721444638067e-04 7.1919683779190388e-05 8.8751176697996696e-04
586 -3.5686165538435468e-04 -4.4619048354652407e-04 -8.3529546786332339e-04
587 7.6078729541552878e-06 9.4333068209862426e-04 3.0427437718644874e-04
588 -4.3127464072366688e-04 -8.9450210915538905e-05 -9.1632404478999489e-04
589 -3.1469804788546477e-04 -5.1198166903574783e-05 -9.6925252392155966e-04
590 -2.0505160764381698e-04 -1.4773046724050439e-04 -9.9016809646231669e-04
591 -1.7877526625730759e-04 4.7223727091816629e-04 8.7986616473290937e-04
592 -5.0384281098072973e-04 7.9044061532997935e-04 -3.2287728753174901e-04
593 -2.8290837682814481e-04 1.1698520917166925e-06 9.8119919421203760e-04
594 3.9587493871344600e-04 2.4406038110665558e-04 9.0398647450823486e-04
595 -8.0110384535230200e-04 5.4855038143671801e-04 1.8820090222640339e-04
596 4.3095145569150157e-04 -8.6967062826606332e-04 1.9526724636813634e-04
597 9.9264695188298302e-05 4.8566192378532788e-04 8.8574789002392467e-04
598 3.2337405840137886e-04 8.9804553179818230e-04 -2.6283103838951958e-04
599 1.9360405205219670e-04 -6.7307970736693438e-04 7.2300400031574891e-04
600 -5.1546195073343235e-04 -8.0141272840694852e-04 2.7185281969173658e-04
601 -8.3362461531073329e-04 4.0321902600178961e-04 -3.5546548902453556e-04
602 -8.0373925160605179e-04 3.4061199089281962e-04 -4.7842398172506659e-04
603 -7.4223191166459623e-04 -5.3204532020301285e-04 -3.9162540328365077e-04
604 -9.0239496291191930e-04 1.4053197091313911e-04 -3.8972316335745004e-04
605 -4.0556624872691558e-04 -9.0110880307488791e-04 8.0344494591520776e-06
606 -3.2884704977587716e-04 8.4231700543074329e-04 4.1165542504825709e-04
607 3.9975308874916898e-05 1.3381705181565051e-04 1.0136269249049876e-03
608 -4.8597895186100989e-05 7.8261281420092881e-04 6.2310710957587693e-04
609 -7.5055865035537461e-04 -1.7900500341442023e-04 -6.3974867258181109e-04
610 9.4456828073340897e-04 2.5605007596420977e-04 1.4287357680169721e-04
611 4.7199838172313580e-04 -1.1440132377979232e-04 -8.9234126262964421e-04
612 9.2186306143253796e-04 1.2220211202492113e-04 3.4749770771765298e-04
613 -3.7573037296056890e-04 -8.5442585368388868e-04 -3.3748966872886152e-04
614 5.7969712205530066e-05 -7.9186948793962572e-04 -6.1059434212984627e-04
615 4.5685985099570879e-04 -8.7538860382312762e-04 -4.3085558524356821e-05
616 -6.7613522274555227e-04 -6.9332115537178694e-04 -2.0562139586394700e-04
617 -9.2084814709226062e-04 -2.5642826333358509e-04 -2.5792931921205274e-04
618 -6.2388424594462524e-04 4.4585915155318575e-04 -6.4474536170047573e-04
619 1.8102866875590942e-04 -9.4361139567195127e-04 -2.4163865872612233e-04
620 -3.4861169949081836e-05 -9.3252810545865793e-04 3.3850586013950537e-04
621 3.8245869879900913e-04 -7.7120623640950523e-04 -5.0313633813746947e-04
622 -2.4857150751692139e-04 -4.7821057801997251e-04 8.5814706657772507e-04
623 7.8254846619919165e-04 -4.8497829500379115e-04 -3.7306954418316778e-04
624 9.2070593104185729e-04 1.2533528383618117e-04 -3.4927523625482486e-04
625 -4.1712312332407538e-04 6.3072577867857762e-04 6.5814096512244961e-04
626 -2.7848255813507682e-04 -5.7968911541836539e-04 7.7737849898599240e-04
627 -1.0777503295953769e-04 5.8562331753861179e-04 8.1687206722286557e-04
628 4.7995557237570012e-04 8.6141583325433384e-04 6.3138815811763458e-05
629 -9.5169631948036526e-04 4.6133433450154276e-05 2.6966015726849951e-04
630 -6.0045469830240846e-04 7.6620139363237083e-04 1.7314571018041115e-04
631 -8.2649267423878293e-04 -2.1076999144395791e-04 -5.1638780732756980e-04
632 -3.9790245675813858e-04 8.6699560284012956e-04 -2.6508347882342107e-04
633 9.2154319238829999e-04 2.4561311441658053e-04 -2.6835120421345751e-04
634 -3.6957307803672719e-04 9.7505522101981097e-05 9.4416299579718540e-04
635 3.8817035135159877e-04 -9.0666175162806536e-04 6.8604611009857546e-05
636 -6.7361049276909885e-05 -9.6578219310290432e-04 2.0597849769608649e-04
637 -5.1361301574633642e-04 -5.6541905320060149e-05 8.7289509855225343e-04
638 4.6511677327906557e-04 2.6392415692012958e-04 -8.5930023705795835e-04
639 4.7243228939879118e-04 -1.2047298121333131e-04 8.9099909413832968e-04
640 -7.3959116373901538e-05 6.9565185556985664e-04 -7.2289657526661689e-04
641 -9.4477707723497953e-04 2.2099951597112283e-04 -1.9140333127125382e-04
642 -8.7188057766485162e-04 2.7714527393401465e-04 -3.8512297822505186e-04
643 2.9537754173652059e-04 -7.2117262153305111e-04 6.3028428489614362e-04
644 5.6681321454020775e-04 -4.8120212823651089e-04 6.7519329694697269e-04
645 6.2843330201784180e-04 2.5351033805850472e-04 -7.4483321222851978e-04
646 -2.3966014200146695e-04 1.1541686450856796e-04 9.8602399215406674e-04
647 2.1186319090521109e-05 5.8218551986286492e-04 8.2698685645767717e-04
648 -7.4562032052865950e-04 5.7989908889160646e-04 2.9791290904845598e-04
649 -2.6999011269693063e-04 9.4809688551506866e-04 6.4499821074587207e-05
650 9.2662184269234524e-04 -2.2945258585531811e-04 2.6536595714093253e-04
651 -4.7210463708545849e-04 -8.4388004457942596e-04 -2.1275938978787163e-04
652 -8.6488503169175558e-04 -3.5217004043394239e-04 -3.3329350061484973e-04
653 -2.3885693470038517e-04 1.5135300297528407e-04 -9.8139592499625985e-04
654 8.3777156177972524e-04 -4.6291166494306284e-04 -2.5513414204218266e-04
655 -7.2537946741573346e-04 4.0138875572008848e-04 -5.5561320819263928e-04
656 6.9264659506553601e-04 -1.3347779476123679e-04 -7.1766103120611102e-04
657 -7.3431781306272366e-04 -5.3745740838700550e-04 3.9885215285017495e-04
658 -4.0396427935348054e-04 4.5034337560615029e-05 -9.3289256936961076e-04
659 -1.9512403838601276e-04 -6.1144500876878792e-06 -1.0046974881292900e-03
660 -6.6243209371055821e-05 4.9168776394077895e-05 -1.0188721954923756e-03
661 8.5679969986756396e-04 -4.9083065465469660e-04 -3.6714649545435682e-05
662 2.5052938355900865e-05 -3.0707825213377779e-04 9.7351896807847831e-04
663 5.1468289130402768e-04 8.2810254748404469e-04 -1.6166142690935507e-04
664 -2.8299467097541494e-04 9.4347428761885096e-04 -7.2196351152503584e-05
665 -2.8688726903768443e-04 9.2424759742278952e-04 -2.0264885390772547e-04
666 -1.0300092904109457e-04 1.6308815009520176e-04 -1.0051598140312255e-03
667 2.5652725335591659e-04 -8.3004959702209194e-04 -4.8830442022698489e-04
668 -6.0374171227728357e-04 5.1382721151903503e-05 8.0881214081672981e-04
669 -8.2128639122813719e-04 -3.2544325223019010e-04 -4.5768676853361154e-04
670 -4.9212080778410748e-04 8.5176438687285230e-04 8.9363678596845509e-05
671 -9.5386283644720944e-04 1.5251884808929717e-04 2.1118281090815958e-04
672 5.6973668923865101e-04 -3.6816225715262531e-04 7.4405051838908069e-04
673 -4.4101025190608087e-05 3.0696808463964449e-04 -9.7199539090723791e-04
674 -1.9234443775516849e-04 -9.5767729229517850e-04 1.5568319495157631e-04
675 4.2226925246088062e-04 7.3683333774407977e-04 5.2262254176838833e-04
676 8.1358209010899777e-05 7.4826602460021773e-04 6.6377951424856146e-04
677 5.2260828615571060e-04 2.3760301951761354e-04 8.3320573736242270e-04
678 -4.8533357199486213e-04 -7.7142165521792137e-04 3.9528482387152892e-04
679 3.4491111799374058e-04 -9.8509753135075749e-05 -9.5483443001625481e-04
680 4.0483438342902797e-04 -6.6547350000377696e-04 6.3024666191920120e-04
681 -8.7460828316225788e-04 1.4720180634488641e-04 4.5000137388441795e-04
682 -8.9057756769080857e-04 4.2756452179164897e-04 8.3496826069807605e-06
683 -1.0113215997050088e-04 -3.0166413704665515e-05 1.0177923666114734e-03
684 3.3462662227164256e-04 -9.2797880702694059e-04 -6.0458347426563839e-05
685 4.0854643520550897e-04 8.8230263312235994e-04 -1.7516329972159267e-04
686 1.7620224132102052e-04 -8.0119322355695925e-04 -5.7062246209263414e-04
687 1.6723517470014750e-04 9.6524346519260911e-04 -1.2735191144154853e-04
688 -8.0629537841253390e-04 -4.2179061217063586e-04 -3.9650304863589705e-04
689 -5.3710420032817598e-04 -6.4051058906558511e-04 5.4467598953757547e-04
690 5.8452827006487884e-04 -6.7574501208587880e-04 4.3680315946069181e-04
691 9.5587399440137731e-04 -2.1548793311513479e-04 1.3105966258896866e-04
692 -6.8042813323960670e-04 -5.2032778800465090e-04 5.0886254059422749e-04
693 9.2758068522349438e-04 2.1871231533146865e-04 2.6817616585368231e-04
694 -1.7524325712270730e-04 9.6107032575503694e-04 -1.4782456312984255e-04
695 9.0310853660917551e-04 3.4807613362703994e-04 -2.0338723605492080e-04
696 -5.0328362218567786e-05 6.9521350045388610e-04 7.2644919594127947e-04
697 -3.5418030544587134e-04 -4.9011784899720856e-04 8.0921708659884278e-04
698 9.2588708981392888e-04 3.4625810933963143e-04 1.6771313916892981e-05
699 -5.0291483726019187e-04 -5.2160373031823366e-04 6.9616521037825334e-04
700 -6.8581697548362032e-04 2.1537577977470362e-05 7.3540230276296803e-04
701 5.7280329777411167e-04 -5.6018077076142514e-04 5.9905980506300572e-04
702 -6.9163549666164759e-04 -6.3179700294033680e-04 -3.2431164942613036e-04
703 -7.6755990985223621e-04 2.8255257991582493e-04 -5.7259261432283666e-04
704 2.9142917833950823e-05 4.2271402627303245e-04 -9.2454919885061435e-04
705 3.3097841271399357e-04 6.5426144811731241e-04 -6.8520095143935087e-04
706 -3.3289563046486336e-04 7.0554694983726888e-04 6.2601590826408856e-04
707 1.0772575178679955e-04 -9.1930202569091661e-04 -3.5863327539465908e-04
708 -6.7290920516797578e-04 7.1434159347574583e-04 1.0608649770584176e-04
709 1.0340323628040083e-05 7.6741579423688939e-04 -6.4400516439428444e-04
710 -4.1303782232513420e-04 7.7576195402049284e-04 4.6646721976246471e-04
711 -9.1813761242167378e-04 2.1589355472617798e-04 -3.0092219403637206e-04
712 7.9428194736291694e-04 1.0037410031962514e-04 6.0091365713071812e-04
713 -2.1572773407613501e-04 -7.5322022130877467e-04 -6.2257507266751198e-04
714 6.6627477383443719e-04 3.5715142343118161e-04 -6.5992193225081826e-04
715 -2.1293087262332406e-04 -9.6395540234117834e-04 2.9079508309842497e-05
716 -3.1986086307671550e-04 6.5264566004247584e-05 -9.6571367629738473e-04
717 -3.9676541369190223e-04 -8.9749043401156673e-04 -1.1665893415316630e-04
718 5.2269718762970011e-04 -2.0956428536159967e-04 8.4126377503419055e-04
719 7.3537948590548846e-04 -5.4490837947554472e-04 3.8626738362560717e-04
720 8.4892199113543716e-04 4.8531199159939444e-04 1.3937686153521782e-04
721 2.8086354683310349e-04 -2.0162429949763819e-04 -9.5900460310201587e-04
722 -5.7413541357605137e-04 -7.6755845169986360e-04 -2.4638977355345237e-04
723 3.1702673155668952e-05 1.1106851915502848e-04 -1.0169030598813833e-03
724 -2.0610928129516549e-04 7.2851086423573964e-04 6.5810362939848661e-04
725 8.7212380870742203e-04 -4.3953266646851158e-04 -1.4942143061242672e-04
726 6.2042356263436449e-04 2.2330277248426697e-04 7.6168597630899124e-04
727 7.8733273875939726e-04 5.4684135255248607e-04 2.4523436573077091e-04
728 5.6452478346311888e-04 6.0049194109664807e-04 -5.6362614910394893e-04
729 5.1497121517445977e-04 1.0878513711651261e-04 -8.6489202226678295e-04
730 7.1250900232397744e-04 5.9534555943629877e-04 3.4711877329530728e-04
731 -2.7202673613369239e-04 -6.2446579402182989e-04 -7.3741918170302091e-04
732 3.4542979718866297e-04 6.3326614739685769e-04 6.9887672253498808e-04
733 -8.0123396834343481e-05 9.6207429263679744e-04 -2.1121160938245877e-04
734 -2.6054388032952853e-04 -4.9445076277420199e-04 -8.4362947733837752e-04
735 9.4482558594744513e-04 -2.2323432362395898e-04 -1.8783518203455916e-04
736 9.6667614687763991e-04 -1.9986966074492268e-04 3.2867955303427122e-06
737 -3.4066511320057891e-05 -1.0799470993180868e-04 1.0163999268345543e-03
738 -5.0130676497888956e-04 -8.4910403773770537e-04 5.4009247883198096e-05
739 5.4375590830877806e-04 2.2693296937035149e-04 -8.2105624349294317e-04
740 -7.7495074768786176e-04 1.3231026112384635e-04 6.1870015225703968e-04
741 -1.8345069036413759e-04 2.8092846911530073e-05 1.0049104733159875e-03
742 -5.5399218108586929e-04 -6.8633475364728068e-04 4.5990736542718549e-04
743 -1.6585981085348024e-05 5.1613056246350021e-04 -8.7152498139793637e-04
744 2.8428242221312835e-04 -9.3032495348798773e-04 -1.7611392031403601e-04
745 -6.3992547853515083e-05 -6.9991539107890901e-04 -7.1574397343836704e-04
$EndNodes
$Elements
1486
1 2 2 0 0 410 440 345
2 2 2 0 0 421 541 409
3 2 2 0 0 409 682 421
4 2 2 0 0 545 603 546
5 2 2 0 0 426 427 294
6 2 2 0 0 294 454 426
7 2 2 0 0 265 682 409
8 2 2 0 0 24 41 4
9 2 2 0 0 3 24 4
10 2 2 0 0 238 642 602
11 2 2 0 0 520 651 613
12 2 2 0 0 653 666 659
13 2 2 0 0 404 460 98
14 2 2 0 0 222 482 219
15 2 2 0 0 40 463 9
16 2 2 0 0 608 724 696
17 2 2 0 0 435 709 69
18 2 2 0 0 413 439 29
19 2 2 0 0 345 710 410
20 2 2 0 0 422 463 40
21 2 2 0 0 98 550 404
22 2 2 0 0 95 724 608
23 2 2 0 0 4 41 5
24 2 2 0 0 232 701 581
25 2 2 0 0 490 698 488
26 2 2 0 0 29 436 413
27 2 2 0 0 416 421 342
28 2 2 0 0 312 595 441
29 2 2 0 0 41 486 5
30 2 2 0 0 405 605 519
31 2 2 0 0 409 595 265
32 2 2 0 0 69 481 435
33 2 2 0 0 434 743 339
34 2 2 0 0 342 641 416
35 2 2 0 0 485 656 370
36 2 2 0 0 89 587 90
37 2 2 0 0 108 466 317
38 2 2 0 0 378 629 529
39 2 2 0 0 581 680 232
40 2 2 0 0 281 434 339
41 2 2 0 0 638 739 486
42 2 2 0 0 659 666 660
43 2 2 0 0 345 440 346
44 2 2 0 0 22 44 25
45 2 2 0 0 9 463 8
46 2 2 0 0 44 81 25
47 2 2 0 0 459 587 89
48 2 2 0 0 127 670 630
49 2 2 0 0 508 662 509
50 2 2 0 0 375 662 508
51 2 2 0 0 492 598 103
52 2 2 0 0 604 642 238
53 2 2 0 0 507 510 399
54 2 2 0 0 488 698 489
55 2 2 0 0 34 473 415
56 2 2 0 0 399 639 507
57 2 2 0 0 603 688 546
58 2 2 0 0 316 541 421
59 2 2 0 0 647 696 627
60 2 2 0 0 403 439 352
61 2 2 0 0 221 603 545
62 2 2 0 0 595 648 441
63 2 2 0 0 412 550 98
64 2 2 0 0 411 714 397
65 2 2 0 0 486 739 729
66 2 2 0 0 696 724 401
67 2 2 0 0 247 482 222
68 2 2 0 0 397 714 645
69 2 2 0 0 613 651 212
70 2 2 0 0 207 745 425
71 2 2 0 0 98 675 412
72 2 2 0 0 219 482 230
73 2 2 0 0 560 692 432
74 2 2 0 0 432 689 560
75 2 2 0 0 454 575 426
76 2 2 0 0 352 439 413
77 2 2 0 0 415 420 2
78 2 2 0 0 40 464 422
79 2 2 0 0 89 512 459
80 2 2 0 0 425 614 207
81 2 2 0 0 377 600 453
82 2 2 0 0 89 90 88
83 2 2 0 0 80 466 108
84 2 2 0 0 520 717 651
85 2 2 0 0 602 703 238
86 2 2 0 0 103 687 492
87 2 2 0 0 253 491 424
88 2 2 0 0 69 709 466
89 2 2 0 0 424 512 253
90 2 2 0 0 369 696 647
91 2 2 0 0 581 701 644
92 2 2 0 0 630 670 392
93 2 2 0 0 32 656 485
94 2 2 0 0 459 512 424
95 2 2 0 0 90 91 88
96 2 2 0 0 427 478 294
97 2 2 0 0 488 695 490
98 2 2 0 0 554 699 560
99 2 2 0 0 67 80 79
100 2 2 0 0 252 454 294
101 2 2 0 0 253 628 491
102 2 2 0 0 529 681 378
103 2 2 0 0 519 715 405
104 2 2 0 0 440 441 346
105 2 2 0 0 605 717 519
106 2 2 0 0 403 452 439
107 2 2 0 0 507 639 21
108 2 2 0 0 565 567 566
109 2 2 0 0 433 454 341
110 2 2 0 0 67 466 80
111 2 2 0 0 555 697 576
112 2 2 0 0 491 628 493
113 2 2 0 0 389 641 342
114 2 2 0 0 429 619 474
115 2 2 0 0 40 501 464
116 2 2 0 0 576 699 555
117 2 2 0 0 311 600 377
118 2 2 0 0 567 622 566
119 2 2 0 0 433 575 454
120 2 2 0 0 378 671 629
121 2 2 0 0 79 540 103
122 2 2 0 0 341 473 433
123 2 2 0 0 673 704 68
124 2 2 0 0 462 710 345
125 2 2 0 0 557 722 616
126 2 2 0 0 573 662 343
127 2 2 0 0 370 656 463
128 2 2 0 0 341 454 252
129 2 2 0 0 616 702 557
130 2 2 0 0 6 26 7
131 2 2 0 0 464 501 467
132 2 2 0 0 433 473 406
133 2 2 0 0 8 45 37
134 2 2 0 0 466 709 317
135 2 2 0 0 457 461 379
136 2 2 0 0 84 512 86
137 2 2 0 0 19 452 33
138 2 2 0 0 380 614 425
139 2 2 0 0 83 540 79
140 2 2 0 0 398 510 509
141 2 2 0 0 609 631 137
142 2 2 0 0 18 442 36
143 2 2 0 0 26 45 7
144 2 2 0 0 565 566 343
145 2 2 0 0 80 83 79
146 2 2 0 0 560 689 554
147 2 2 0 0 134 137 136
148 2 2 0 0 68 469 42
149 2 2 0 0 659 716 653
150 2 2 0 0 619 707 474
151 2 2 0 0 497 610 39
152 2 2 0 0 137 138 136
153 2 2 0 0 283 573 343
154 2 2 0 0 506 644 448
155 2 2 0 0 499 735 31
156 2 2 0 0 81 97 25
157 2 2 0 0 45 46 37
158 2 2 0 0 585 668 637
159 2 2 0 0 495 735 499
160 2 2 0 0 399 510 398
161 2 2 0 0 509 573 398
162 2 2 0 0 442 443 36
163 2 2 0 0 1 607 314
164 2 2 0 0 29 612 436
165 2 2 0 0 547 631 609
166 2 2 0 0 360 595 409
167 2 2 0 0 421 682 342
168 2 2 0 0 426 575 327
169 2 2 0 0 123 577 235
170 2 2 0 0 339 743 417
171 2 2 0 0 7 45 8
172 2 2 0 0 3 723 24
173 2 2 0 0 418 666 653
174 2 2 0 0 59 60 58
175 2 2 0 0 620 636 193
176 2 2 0 0 42 469 47
177 2 2 0 0 65 67 66
178 2 2 0 0 509 662 573
179 2 2 0 0 470 482 247
180 2 2 0 0 368 476 472
181 2 2 0 0 530 740 337
182 2 2 0 0 253 512 84
183 2 2 0 0 455 698 282
184 2 2 0 0 61 65 62
185 2 2 0 0 59 61 60
186 2 2 0 0 91 472 88
187 2 2 0 0 90 92 91
188 2 2 0 0 19 442 18
189 2 2 0 0 464 465 423
190 2 2 0 0 706 724 118
191 2 2 0 0 456 611 32
192 2 2 0 0 379 477 61
193 2 2 0 0 417 743 704
194 2 2 0 0 314 683 1
195 2 2 0 0 442 458 443
196 2 2 0 0 11 28 12
197 2 2 0 0 61 62 60
198 2 2 0 0 118 724 95
199 2 2 0 0 22 25 23
200 2 2 0 0 247 483 470
201 2 2 0 0 281 640 434
202 2 2 0 0 197 667 474
203 2 2 0 0 86 512 89
204 2 2 0 0 417 704 673
205 2 2 0 0 451 690 230
206 2 2 0 0 27 442 19
207 2 2 0 0 637 668 229
208 2 2 0 0 60 475 58
209 2 2 0 0 489 610 497
210 2 2 0 0 307 573 283
211 2 2 0 0 61 477 65
212 2 2 0 0 65 66 62
213 2 2 0 0 544 740 530
214 2 2 0 0 230 719 451
215 2 2 0 0 18 452 19
216 2 2 0 0 268 569 269
217 2 2 0 0 32 485 456
218 2 2 0 0 627 696 401
219 2 2 0 0 24 42 41
220 2 2 0 0 20 27 19
221 2 2 0 0 330 461 457
222 2 2 0 0 506 672 644
223 2 2 0 0 472 476 87
224 2 2 0 0 468 495 494
225 2 2 0 0 88 472 87
226 2 2 0 0 121 577 123
227 2 2 0 0 327 575 276
228 2 2 0 0 422 464 423
229 2 2 0 0 47 63 49
230 2 2 0 0 458 506 443
231 2 2 0 0 232 690 451
232 2 2 0 0 28 487 12
233 2 2 0 0 80 107 83
234 2 2 0 0 608 696 676
235 2 2 0 0 356 481 355
236 2 2 0 0 138 238 136
237 2 2 0 0 137 139 138
238 2 2 0 0 729 739 26
239 2 2 0 0 81 99 97
240 2 2 0 0 46 50 37
241 2 2 0 0 463 656 8
242 2 2 0 0 443 444 36
243 2 2 0 0 68 704 469
244 2 2 0 0 24 68 42
245 2 2 0 0 16 503 30
246 2 2 0 0 65 69 67
247 2 2 0 0 67 79 66
248 2 2 0 0 676 696 369
249 2 2 0 0 59 379 61
250 2 2 0 0 90 93 92
251 2 2 0 0 464 467 465
252 2 2 0 0 441 708 312
253 2 2 0 0 483 484 471
254 2 2 0 0 427 479 478
255 2 2 0 0 245 564 244
256 2 2 0 0 470 483 471
257 2 2 0 0 473 721 406
258 2 2 0 0 555 699 554
259 2 2 0 0 47 469 63
260 2 2 0 0 63 355 49
261 2 2 0 0 62 64 60
262 2 2 0 0 80 108 107
263 2 2 0 0 107 539 83
264 2 2 0 0 139 140 138
265 2 2 0 0 99 100 97
266 2 2 0 0 81 236 99
267 2 2 0 0 46 51 50
268 2 2 0 0 443 445 444
269 2 2 0 0 24 419 68
270 2 2 0 0 69 466 67
271 2 2 0 0 79 103 66
272 2 2 0 0 65 477 69
273 2 2 0 0 547 548 321
274 2 2 0 0 93 94 92
275 2 2 0 0 467 468 465
276 2 2 0 0 333 664 649
277 2 2 0 0 55 498 56
278 2 2 0 0 56 498 72
279 2 2 0 0 12 499 31
280 2 2 0 0 63 356 355
281 2 2 0 0 108 110 107
282 2 2 0 0 139 141 140
283 2 2 0 0 100 101 97
284 2 2 0 0 236 248 99
285 2 2 0 0 81 594 236
286 2 2 0 0 51 52 50
287 2 2 0 0 192 515 195
288 2 2 0 0 445 446 444
289 2 2 0 0 477 481 69
290 2 2 0 0 94 95 92
291 2 2 0 0 93 96 94
292 2 2 0 0 63 408 356
293 2 2 0 0 108 111 110
294 2 2 0 0 110 117 107
295 2 2 0 0 139 154 141
296 2 2 0 0 141 142 140
297 2 2 0 0 51 53 52
298 2 2 0 0 100 102 101
299 2 2 0 0 236 250 248
300 2 2 0 0 445 447 446
301 2 2 0 0 52 388 50
302 2 2 0 0 277 622 567
303 2 2 0 0 95 608 92
304 2 2 0 0 94 118 95
305 2 2 0 0 93 104 96
306 2 2 0 0 51 561 53
307 2 2 0 0 408 434 356
308 2 2 0 0 53 54 52
309 2 2 0 0 445 448 447
310 2 2 0 0 108 317 111
311 2 2 0 0 141 143 142
312 2 2 0 0 142 225 140
313 2 2 0 0 102 166 101
314 2 2 0 0 250 325 248
315 2 2 0 0 100 258 102
316 2 2 0 0 53 55 54
317 2 2 0 0 447 449 446
318 2 2 0 0 236 505 250
319 2 2 0 0 104 105 96
320 2 2 0 0 53 57 55
321 2 2 0 0 55 56 54
322 2 2 0 0 448 451 447
323 2 2 0 0 14 39 15
324 2 2 0 0 317 511 111
325 2 2 0 0 10 40 9
326 2 2 0 0 143 144 142
327 2 2 0 0 57 58 55
328 2 2 0 0 8 37 9
329 2 2 0 0 14 38 13
330 2 2 0 0 166 314 101
331 2 2 0 0 18 36 17
332 2 2 0 0 16 29 17
333 2 2 0 0 33 504 20
334 2 2 0 0 325 365 248
335 2 2 0 0 199 202 196
336 2 2 0 0 7 32 6
337 2 2 0 0 434 435 356
338 2 2 0 0 74 75 73
339 2 2 0 0 223 239 234
340 2 2 0 0 74 76 75
341 2 2 0 0 72 74 73
342 2 2 0 0 231 549 201
343 2 2 0 0 202 205 204
344 2 2 0 0 226 227 214
345 2 2 0 0 272 275 271
346 2 2 0 0 276 318 275
347 2 2 0 0 213 214 209
348 2 2 0 0 76 77 75
349 2 2 0 0 210 231 201
350 2 2 0 0 16 30 15
351 2 2 0 0 205 209 208
352 2 2 0 0 202 204 196
353 2 2 0 0 318 406 340
354 2 2 0 0 195 196 193
355 2 2 0 0 322 420 415
356 2 2 0 0 239 240 234
357 2 2 0 0 163 588 168
358 2 2 0 0 12 31 11
359 2 2 0 0 56 72 71
360 2 2 0 0 425 426 327
361 2 2 0 0 19 33 20
362 2 2 0 0 168 224 215
363 2 2 0 0 209 568 216
364 2 2 0 0 318 433 406
365 2 2 0 0 269 271 270
366 2 2 0 0 268 269 245
367 2 2 0 0 21 639 20
368 2 2 0 0 84 85 82
369 2 2 0 0 181 207 183
370 2 2 0 0 269 272 271
371 2 2 0 0 272 276 275
372 2 2 0 0 242 243 240
373 2 2 0 0 102 167 166
374 2 2 0 0 223 234 233
375 2 2 0 0 283 343 227
376 2 2 0 0 205 208 204
377 2 2 0 0 213 226 214
378 2 2 0 0 271 572 347
379 2 2 0 0 243 268 245
380 2 2 0 0 335 398 307
381 2 2 0 0 303 555 554
382 2 2 0 0 226 283 227
383 2 2 0 0 347 485 370
384 2 2 0 0 195 199 196
385 2 2 0 0 205 213 209
386 2 2 0 0 246 322 252
387 2 2 0 0 76 78 77
388 2 2 0 0 133 163 135
389 2 2 0 0 163 168 164
390 2 2 0 0 322 415 341
391 2 2 0 0 227 361 214
392 2 2 0 0 191 198 189
393 2 2 0 0 78 84 82
394 2 2 0 0 209 216 208
395 2 2 0 0 78 82 77
396 2 2 0 0 216 303 266
397 2 2 0 0 417 418 362
398 2 2 0 0 314 607 101
399 2 2 0 0 339 362 280
400 2 2 0 0 243 245 244
401 2 2 0 0 187 291 185
402 2 2 0 0 429 430 359
403 2 2 0 0 143 145 144
404 2 2 0 0 202 553 205
405 2 2 0 0 339 417 362
406 2 2 0 0 131 580 133
407 2 2 0 0 239 242 240
408 2 2 0 0 57 59 58
409 2 2 0 0 224 246 215
410 2 2 0 0 84 86 85
411 2 2 0 0 303 554 266
412 2 2 0 0 72 73 71
413 2 2 0 0 437 438 414
414 2 2 0 0 318 340 275
415 2 2 0 0 269 270 245
416 2 2 0 0 86 87 85
417 2 2 0 0 192 193 191
418 2 2 0 0 123 235 129
419 2 2 0 0 263 374 262
420 2 2 0 0 425 427 426
421 2 2 0 0 149 150 147
422 2 2 0 0 210 232 231
423 2 2 0 0 74 373 76
424 2 2 0 0 168 215 169
425 2 2 0 0 259 262 249
426 2 2 0 0 145 146 144
427 2 2 0 0 367 524 289
428 2 2 0 0 271 347 270
429 2 2 0 0 406 407 340
430 2 2 0 0 334 459 424
431 2 2 0 0 429 474 430
432 2 2 0 0 250 328 325
433 2 2 0 0 431 432 367
434 2 2 0 0 104 278 105
435 2 2 0 0 145 147 146
436 2 2 0 0 151 152 150
437 2 2 0 0 235 583 129
438 2 2 0 0 237 249 228
439 2 2 0 0 149 151 150
440 2 2 0 0 159 161 158
441 2 2 0 0 153 155 152
442 2 2 0 0 156 158 155
443 2 2 0 0 354 367 289
444 2 2 0 0 259 263 262
445 2 2 0 0 190 191 189
446 2 2 0 0 177 221 174
447 2 2 0 0 162 228 161
448 2 2 0 0 124 516 386
449 2 2 0 0 418 653 578
450 2 2 0 0 371 584 295
451 2 2 0 0 151 153 152
452 2 2 0 0 153 156 155
453 2 2 0 0 159 162 161
454 2 2 0 0 374 593 262
455 2 2 0 0 156 159 158
456 2 2 0 0 237 259 249
457 2 2 0 0 146 284 160
458 2 2 0 0 266 309 267
459 2 2 0 0 264 265 257
460 2 2 0 0 86 88 87
461 2 2 0 0 265 312 257
462 2 2 0 0 162 237 228
463 2 2 0 0 21 44 22
464 2 2 0 0 324 392 390
465 2 2 0 0 371 585 584
466 2 2 0 0 262 366 249
467 2 2 0 0 192 195 193
468 2 2 0 0 263 375 374
469 2 2 0 0 216 266 217
470 2 2 0 0 326 327 276
471 2 2 0 0 260 646 166
472 2 2 0 0 220 223 222
473 2 2 0 0 322 341 252
474 2 2 0 0 256 257 255
475 2 2 0 0 78 253 84
476 2 2 0 0 358 359 242
477 2 2 0 0 188 189 187
478 2 2 0 0 281 339 280
479 2 2 0 0 146 160 144
480 2 2 0 0 123 129 128
481 2 2 0 0 255 324 254
482 2 2 0 0 228 229 161
483 2 2 0 0 354 431 367
484 2 2 0 0 163 164 135
485 2 2 0 0 155 157 152
486 2 2 0 0 243 244 240
487 2 2 0 0 256 264 257
488 2 2 0 0 284 316 160
489 2 2 0 0 380 425 327
490 2 2 0 0 148 149 147
491 2 2 0 0 335 399 398
492 2 2 0 0 418 578 362
493 2 2 0 0 334 424 396
494 2 2 0 0 167 260 166
495 2 2 0 0 325 368 365
496 2 2 0 0 428 429 359
497 2 2 0 0 165 255 254
498 2 2 0 0 297 342 264
499 2 2 0 0 298 371 295
500 2 2 0 0 218 323 220
501 2 2 0 0 310 337 302
502 2 2 0 0 165 256 255
503 2 2 0 0 186 187 185
504 2 2 0 0 56 71 70
505 2 2 0 0 165 254 125
506 2 2 0 0 200 201 199
507 2 2 0 0 148 206 149
508 2 2 0 0 324 390 364
509 2 2 0 0 190 192 191
510 2 2 0 0 368 369 365
511 2 2 0 0 353 404 351
512 2 2 0 0 104 331 278
513 2 2 0 0 256 297 264
514 2 2 0 0 316 421 416
515 2 2 0 0 239 358 242
516 2 2 0 0 169 586 171
517 2 2 0 0 286 287 206
518 2 2 0 0 324 364 254
519 2 2 0 0 241 576 162
520 2 2 0 0 168 169 164
521 2 2 0 0 121 123 122
522 2 2 0 0 266 267 217
523 2 2 0 0 129 131 130
524 2 2 0 0 216 217 208
525 2 2 0 0 285 382 313
526 2 2 0 0 172 321 170
527 2 2 0 0 390 391 364
528 2 2 0 0 296 563 300
529 2 2 0 0 246 252 251
530 2 2 0 0 285 286 206
531 2 2 0 0 288 289 287
532 2 2 0 0 298 372 371
533 2 2 0 0 23 35 22
534 2 2 0 0 300 344 304
535 2 2 0 0 344 462 345
536 2 2 0 0 123 128 122
537 2 2 0 0 297 389 342
538 2 2 0 0 237 277 259
539 2 2 0 0 148 285 206
540 2 2 0 0 86 89 88
541 2 2 0 0 306 307 283
542 2 2 0 0 234 279 233
543 2 2 0 0 316 416 160
544 2 2 0 0 188 190 189
545 2 2 0 0 85 98 82
546 2 2 0 0 358 428 359
547 2 2 0 0 437 455 438
548 2 2 0 0 203 210 201
549 2 2 0 0 382 383 313
550 2 2 0 0 153 176 156
551 2 2 0 0 290 354 289
552 2 2 0 0 159 241 162
553 2 2 0 0 386 387 126
554 2 2 0 0 273 363 338
555 2 2 0 0 272 326 276
556 2 2 0 0 171 293 173
557 2 2 0 0 145 148 147
558 2 2 0 0 274 295 261
559 2 2 0 0 285 313 286
560 2 2 0 0 383 384 313
561 2 2 0 0 301 302 299
562 2 2 0 0 131 133 132
563 2 2 0 0 296 298 295
564 2 2 0 0 305 310 302
565 2 2 0 0 349 412 328
566 2 2 0 0 344 345 304
567 2 2 0 0 77 119 75
568 2 2 0 0 315 378 310
569 2 2 0 0 363 401 400
570 2 2 0 0 332 333 278
571 2 2 0 0 223 233 222
572 2 2 0 0 331 334 332
573 2 2 0 0 186 188 187
574 2 2 0 0 178 212 177
575 2 2 0 0 305 360 315
576 2 2 0 0 334 396 395
577 2 2 0 0 246 251 215
578 2 2 0 0 167 261 260
579 2 2 0 0 175 179 178
580 2 2 0 0 345 346 304
581 2 2 0 0 124 386 126
582 2 2 0 0 286 288 287
583 2 2 0 0 331 332 278
584 2 2 0 0 179 181 180
585 2 2 0 0 301 305 302
586 2 2 0 0 300 304 301
587 2 2 0 0 296 300 299
588 2 2 0 0 305 315 310
589 2 2 0 0 296 299 298
590 2 2 0 0 320 453 290
591 2 2 0 0 274 296 295
592 2 2 0 0 313 531 286
593 2 2 0 0 120 281 280
594 2 2 0 0 360 409 315
595 2 2 0 0 363 400 338
596 2 2 0 0 129 130 128
597 2 2 0 0 300 301 299
598 2 2 0 0 1 508 23
599 2 2 0 0 167 273 261
600 2 2 0 0 133 135 134
601 2 2 0 0 173 174 172
602 2 2 0 0 311 377 376
603 2 2 0 0 273 274 261
604 2 2 0 0 273 338 274
605 2 2 0 0 334 395 332
606 2 2 0 0 183 197 184
607 2 2 0 0 319 393 320
608 2 2 0 0 449 450 446
609 2 2 0 0 288 290 289
610 2 2 0 0 226 306 283
611 2 2 0 0 326 380 327
612 2 2 0 0 175 177 174
613 2 2 0 0 181 183 182
614 2 2 0 0 219 230 211
615 2 2 0 0 308 335 307
616 2 2 0 0 267 311 292
617 2 2 0 0 169 170 164
618 2 2 0 0 288 319 290
619 2 2 0 0 126 165 125
620 2 2 0 0 120 280 121
621 2 2 0 0 130 357 128
622 2 2 0 0 195 200 199
623 2 2 0 0 169 171 170
624 2 2 0 0 171 172 170
625 2 2 0 0 184 186 185
626 2 2 0 0 73 282 71
627 2 2 0 0 252 294 251
628 2 2 0 0 319 320 290
629 2 2 0 0 131 132 130
630 2 2 0 0 393 394 320
631 2 2 0 0 171 173 172
632 2 2 0 0 4 34 3
633 2 2 0 0 218 220 219
634 2 2 0 0 267 292 217
635 2 2 0 0 184 185 182
636 2 2 0 0 188 194 190
637 2 2 0 0 56 70 54
638 2 2 0 0 377 405 376
639 2 2 0 0 449 470 450
640 2 2 0 0 179 180 178
641 2 2 0 0 173 175 174
642 2 2 0 0 175 178 177
643 2 2 0 0 250 329 328
644 2 2 0 0 311 376 292
645 2 2 0 0 329 571 350
646 2 2 0 0 347 370 348
647 2 2 0 0 220 222 219
648 2 2 0 0 376 385 292
649 2 2 0 0 133 134 132
650 2 2 0 0 134 136 132
651 2 2 0 0 306 308 307
652 2 2 0 0 200 203 201
653 2 2 0 0 233 247 222
654 2 2 0 0 98 460 82
655 2 2 0 0 329 349 328
656 2 2 0 0 326 381 380
657 2 2 0 0 347 348 270
658 2 2 0 0 181 182 180
659 2 2 0 0 121 122 115
660 2 2 0 0 350 351 349
661 2 2 0 0 308 336 335
662 2 2 0 0 350 403 352
663 2 2 0 0 470 471 450
664 2 2 0 0 203 211 210
665 2 2 0 0 218 219 211
666 2 2 0 0 183 184 182
667 2 2 0 0 370 463 422
668 2 2 0 0 306 402 308
669 2 2 0 0 203 218 211
670 2 2 0 0 71 490 70
671 2 2 0 0 329 350 349
672 2 2 0 0 436 437 414
673 2 2 0 0 124 126 125
674 2 2 0 0 413 414 353
675 2 2 0 0 422 423 348
676 2 2 0 0 352 353 351
677 2 2 0 0 370 422 348
678 2 2 0 0 350 352 351
679 2 2 0 0 413 436 414
680 2 2 0 0 352 413 353
681 2 2 0 0 120 121 115
682 2 2 0 0 110 480 117
683 2 2 0 0 124 125 116
684 2 2 0 0 126 521 165
685 2 2 0 0 113 120 115
686 2 2 0 0 127 440 410
687 2 2 0 0 114 124 116
688 2 2 0 0 543 544 530
689 2 2 0 0 488 489 487
690 2 2 0 0 585 637 366
691 2 2 0 0 543 570 544
692 2 2 0 0 113 115 114
693 2 2 0 0 127 410 106
694 2 2 0 0 114 116 112
695 2 2 0 0 195 515 200
696 2 2 0 0 491 493 492
697 2 2 0 0 12 487 13
698 2 2 0 0 546 547 321
699 2 2 0 0 330 457 411
700 2 2 0 0 157 543 530
701 2 2 0 0 519 520 291
702 2 2 0 0 28 488 487
703 2 2 0 0 111 112 110
704 2 2 0 0 312 534 257
705 2 2 0 0 476 732 412
706 2 2 0 0 27 458 442
707 2 2 0 0 385 636 620
708 2 2 0 0 176 559 156
709 2 2 0 0 593 634 366
710 2 2 0 0 589 590 224
711 2 2 0 0 113 114 112
712 2 2 0 0 109 127 106
713 2 2 0 0 270 564 245
714 2 2 0 0 443 506 445
715 2 2 0 0 491 492 396
716 2 2 0 0 388 624 502
717 2 2 0 0 445 506 448
718 2 2 0 0 30 500 15
719 2 2 0 0 20 504 21
720 2 2 0 0 64 475 60
721 2 2 0 0 287 542 206
722 2 2 0 0 23 508 35
723 2 2 0 0 302 558 299
724 2 2 0 0 70 551 54
725 2 2 0 0 62 598 64
726 2 2 0 0 424 491 396
727 2 2 0 0 407 456 340
728 2 2 0 0 545 546 321
729 2 2 0 0 330 411 397
730 2 2 0 0 72 536 74
731 2 2 0 0 238 574 136
732 2 2 0 0 659 660 420
733 2 2 0 0 395 538 332
734 2 2 0 0 143 527 145
735 2 2 0 0 412 675 476
736 2 2 0 0 239 513 358
737 2 2 0 0 157 530 529
738 2 2 0 0 518 519 291
739 2 2 0 0 449 482 470
740 2 2 0 0 207 713 479
741 2 2 0 0 119 523 75
742 2 2 0 0 109 670 127
743 2 2 0 0 10 501 40
744 2 2 0 0 508 509 35
745 2 2 0 0 96 606 94
746 2 2 0 0 331 459 334
747 2 2 0 0 286 531 288
748 2 2 0 0 290 453 354
749 2 2 0 0 282 490 71
750 2 2 0 0 384 531 313
751 2 2 0 0 289 524 287
752 2 2 0 0 349 550 412
753 2 2 0 0 165 521 256
754 2 2 0 0 82 460 77
755 2 2 0 0 155 543 157
756 2 2 0 0 201 549 199
757 2 2 0 0 273 591 363
758 2 2 0 0 387 521 126
759 2 2 0 0 114 516 124
760 2 2 0 0 53 561 57
761 2 2 0 0 266 554 309
762 2 2 0 0 257 534 255
763 2 2 0 0 205 553 213
764 2 2 0 0 142 522 225
765 2 2 0 0 435 481 356
766 2 2 0 0 216 568 303
767 2 2 0 0 300 563 344
768 2 2 0 0 214 568 209
769 2 2 0 0 112 480 110
770 2 2 0 0 350 571 403
771 2 2 0 0 347 572 485
772 2 2 0 0 275 572 271
773 2 2 0 0 274 563 296
774 2 2 0 0 171 586 293
775 2 2 0 0 162 576 237
776 2 2 0 0 133 580 163
777 2 2 0 0 11 501 10
778 2 2 0 0 295 584 261
779 2 2 0 0 129 583 131
780 2 2 0 0 215 586 169
781 2 2 0 0 250 505 329
782 2 2 0 0 168 588 224
783 2 2 0 0 321 548 170
784 2 2 0 0 262 593 366
785 2 2 0 0 166 646 314
786 2 2 0 0 520 535 291
787 2 2 0 0 373 663 493
788 2 2 0 0 291 535 185
789 2 2 0 0 101 607 97
790 2 2 0 0 130 574 357
791 2 2 0 0 158 570 543
792 2 2 0 0 31 501 11
793 2 2 0 0 444 552 503
794 2 2 0 0 156 559 159
795 2 2 0 0 236 594 505
796 2 2 0 0 206 542 149
797 2 2 0 0 54 551 52
798 2 2 0 0 74 536 373
799 2 2 0 0 337 558 302
800 2 2 0 0 150 532 147
801 2 2 0 0 379 728 457
802 2 2 0 0 299 558 298
803 2 2 0 0 332 538 333
804 2 2 0 0 145 527 148
805 2 2 0 0 514 515 192
806 2 2 0 0 15 500 14
807 2 2 0 0 75 523 73
808 2 2 0 0 467 501 31
809 2 2 0 0 254 592 125
810 2 2 0 0 172 545 321
811 2 2 0 0 144 522 142
812 2 2 0 0 528 532 150
813 2 2 0 0 187 518 291
814 2 2 0 0 553 599 213
815 2 2 0 0 383 603 384
816 2 2 0 0 282 698 490
817 2 2 0 0 244 517 240
818 2 2 0 0 353 525 404
819 2 2 0 0 395 540 538
820 2 2 0 0 94 606 118
821 2 2 0 0 117 539 107
822 2 2 0 0 185 535 182
823 2 2 0 0 388 502 50
824 2 2 0 0 167 591 273
825 2 2 0 0 147 532 146
826 2 2 0 0 92 608 91
827 2 2 0 0 472 676 368
828 2 2 0 0 364 592 254
829 2 2 0 0 21 504 44
830 2 2 0 0 365 597 248
831 2 2 0 0 125 592 116
832 2 2 0 0 588 589 224
833 2 2 0 0 111 113 112
834 2 2 0 0 63 469 408
835 2 2 0 0 105 109 106
836 2 2 0 0 242 526 243
837 2 2 0 0 439 712 29
838 2 2 0 0 240 517 234
839 2 2 0 0 346 533 304
840 2 2 0 0 14 500 38
841 2 2 0 0 494 495 484
842 2 2 0 0 127 630 440
843 2 2 0 0 208 537 204
844 2 2 0 0 175 562 179
845 2 2 0 0 303 626 555
846 2 2 0 0 359 526 242
847 2 2 0 0 243 526 268
848 2 2 0 0 217 537 208
849 2 2 0 0 58 498 55
850 2 2 0 0 503 552 30
851 2 2 0 0 13 499 12
852 2 2 0 0 268 621 569
853 2 2 0 0 489 497 487
854 2 2 0 0 475 498 58
855 2 2 0 0 430 526 359
856 2 2 0 0 248 597 99
857 2 2 0 0 292 537 217
858 2 2 0 0 26 645 45
859 2 2 0 0 234 517 279
860 2 2 0 0 14 497 39
861 2 2 0 0 385 537 292
862 2 2 0 0 305 533 360
863 2 2 0 0 304 533 301
864 2 2 0 0 146 532 284
865 2 2 0 0 483 494 484
866 2 2 0 0 173 562 175
867 2 2 0 0 116 480 112
868 2 2 0 0 224 590 246
869 2 2 0 0 189 518 187
870 2 2 0 0 498 536 72
871 2 2 0 0 414 525 353
872 2 2 0 0 160 522 144
873 2 2 0 0 547 609 548
874 2 2 0 0 182 535 180
875 2 2 0 0 297 601 389
876 2 2 0 0 44 594 81
877 2 2 0 0 301 533 305
878 2 2 0 0 105 106 96
879 2 2 0 0 515 596 200
880 2 2 0 0 293 562 173
881 2 2 0 0 73 523 282
882 2 2 0 0 148 527 285
883 2 2 0 0 174 545 172
884 2 2 0 0 218 596 323
885 2 2 0 0 200 596 203
886 2 2 0 0 149 542 151
887 2 2 0 0 446 552 444
888 2 2 0 0 49 461 330
889 2 2 0 0 330 397 48
890 2 2 0 0 453 738 377
891 2 2 0 0 255 534 324
892 2 2 0 0 52 551 388
893 2 2 0 0 634 646 260
894 2 2 0 0 513 615 358
895 2 2 0 0 438 525 414
896 2 2 0 0 516 618 386
897 2 2 0 0 198 518 189
898 2 2 0 0 227 566 361
899 2 2 0 0 559 560 241
900 2 2 0 0 90 587 93
901 2 2 0 0 416 522 160
902 2 2 0 0 102 591 167
903 2 2 0 0 134 609 137
904 2 2 0 0 298 558 372
905 2 2 0 0 132 574 130
906 2 2 0 0 106 606 96
907 2 2 0 0 159 559 241
908 2 2 0 0 32 611 6
909 2 2 0 0 158 543 155
910 2 2 0 0 223 513 239
911 2 2 0 0 288 531 319
912 2 2 0 0 323 513 220
913 2 2 0 0 115 516 114
914 2 2 0 0 521 601 297
915 2 2 0 0 610 698 455
916 2 2 0 0 354 600 431
917 2 2 0 0 351 550 349
918 2 2 0 0 256 521 297
919 2 2 0 0 140 604 138
920 2 2 0 0 77 460 119
921 2 2 0 0 17 503 16
922 2 2 0 0 9 502 10
923 2 2 0 0 104 587 331
924 2 2 0 0 152 528 150
925 2 2 0 0 315 541 378
926 2 2 0 0 170 548 164
927 2 2 0 0 590 659 420
928 2 2 0 0 11 624 28
929 2 2 0 0 199 549 202
930 2 2 0 0 502 624 10
931 2 2 0 0 453 600 354
932 2 2 0 0 42 43 41
933 2 2 0 0 38 499 13
934 2 2 0 0 285 527 382
935 2 2 0 0 190 514 192
936 2 2 0 0 157 529 528
937 2 2 0 0 231 643 549
938 2 2 0 0 331 587 459
939 2 2 0 0 451 701 232
940 2 2 0 0 99 597 100
941 2 2 0 0 361 568 214
942 2 2 0 0 372 740 544
943 2 2 0 0 221 545 174
944 2 2 0 0 138 604 238
945 2 2 0 0 340 572 275
946 2 2 0 0 338 563 274
947 2 2 0 0 524 542 287
948 2 2 0 0 265 595 312
949 2 2 0 0 111 511 113
950 2 2 0 0 580 658 588
951 2 2 0 0 580 588 163
952 2 2 0 0 237 576 277
953 2 2 0 0 444 503 36
954 2 2 0 0 131 583 580
955 2 2 0 0 505 571 329
956 2 2 0 0 203 596 218
957 2 2 0 0 584 634 260
958 2 2 0 0 261 584 260
959 2 2 0 0 369 647 365
960 2 2 0 0 251 586 215
961 2 2 0 0 348 564 270
962 2 2 0 0 450 552 446
963 2 2 0 0 390 496 391
964 2 2 0 0 66 598 62
965 2 2 0 0 465 623 423
966 2 2 0 0 258 591 102
967 2 2 0 0 343 566 227
968 2 2 0 0 564 623 244
969 2 2 0 0 154 617 141
970 2 2 0 0 324 534 392
971 2 2 0 0 50 502 37
972 2 2 0 0 524 556 542
973 2 2 0 0 544 700 372
974 2 2 0 0 122 516 115
975 2 2 0 0 177 557 221
976 2 2 0 0 489 698 610
977 2 2 0 0 93 587 104
978 2 2 0 0 136 574 132
979 2 2 0 0 593 646 634
980 2 2 0 0 116 592 480
981 2 2 0 0 143 617 527
982 2 2 0 0 225 604 140
983 2 2 0 0 137 631 139
984 2 2 0 0 549 553 202
985 2 2 0 0 164 548 135
986 2 2 0 0 404 550 351
987 2 2 0 0 34 721 473
988 2 2 0 0 220 513 223
989 2 2 0 0 317 640 511
990 2 2 0 0 100 597 258
991 2 2 0 0 588 658 589
992 2 2 0 0 323 615 513
993 2 2 0 0 568 626 303
994 2 2 0 0 377 605 405
995 2 2 0 0 178 613 212
996 2 2 0 0 493 628 373
997 2 2 0 0 157 528 152
998 2 2 0 0 591 627 363
999 2 2 0 0 409 541 315
1000 2 2 0 0 183 614 197
1001 2 2 0 0 103 598 66
1002 2 2 0 0 188 619 194
1003 2 2 0 0 213 599 226
1004 2 2 0 0 306 599 402
1005 2 2 0 0 97 607 25
1006 2 2 0 0 194 514 190
1007 2 2 0 0 373 628 76
1008 2 2 0 0 78 628 253
1009 2 2 0 0 42 47 43
1010 2 2 0 0 39 612 15
1011 2 2 0 0 16 612 29
1012 2 2 0 0 437 610 455
1013 2 2 0 0 487 497 13
1014 2 2 0 0 440 630 441
1015 2 2 0 0 479 713 562
1016 2 2 0 0 196 620 193
1017 2 2 0 0 456 572 340
1018 2 2 0 0 120 511 281
1019 2 2 0 0 577 578 235
1020 2 2 0 0 335 582 399
1021 2 2 0 0 314 741 683
1022 2 2 0 0 520 613 535
1023 2 2 0 0 585 634 584
1024 2 2 0 0 423 564 348
1025 2 2 0 0 457 561 411
1026 2 2 0 0 6 611 5
1027 2 2 0 0 385 620 537
1028 2 2 0 0 228 637 229
1029 2 2 0 0 366 637 249
1030 2 2 0 0 161 570 158
1031 2 2 0 0 434 640 435
1032 2 2 0 0 193 636 191
1033 2 2 0 0 410 606 106
1034 2 2 0 0 37 502 9
1035 2 2 0 0 36 503 17
1036 2 2 0 0 141 617 143
1037 2 2 0 0 363 627 401
1038 2 2 0 0 322 590 420
1039 2 2 0 0 357 618 128
1040 2 2 0 0 430 621 526
1041 2 2 0 0 540 687 103
1042 2 2 0 0 280 577 121
1043 2 2 0 0 276 575 318
1044 2 2 0 0 362 578 577
1045 2 2 0 0 109 649 496
1046 2 2 0 0 246 590 322
1047 2 2 0 0 326 569 381
1048 2 2 0 0 569 621 381
1049 2 2 0 0 269 569 272
1050 2 2 0 0 139 631 154
1051 2 2 0 0 649 664 496
1052 2 2 0 0 537 620 204
1053 2 2 0 0 355 461 49
1054 2 2 0 0 663 685 493
1055 2 2 0 0 479 745 207
1056 2 2 0 0 343 662 565
1057 2 2 0 0 212 557 177
1058 2 2 0 0 45 645 46
1059 2 2 0 0 496 670 109
1060 2 2 0 0 366 634 585
1061 2 2 0 0 384 616 531
1062 2 2 0 0 535 613 180
1063 2 2 0 0 391 632 364
1064 2 2 0 0 308 581 336
1065 2 2 0 0 344 625 462
1066 2 2 0 0 563 625 344
1067 2 2 0 0 13 497 14
1068 2 2 0 0 480 632 117
1069 2 2 0 0 371 668 585
1070 2 2 0 0 333 649 278
1071 2 2 0 0 387 601 521
1072 2 2 0 0 47 49 48
1073 2 2 0 0 358 615 428
1074 2 2 0 0 113 511 120
1075 2 2 0 0 527 617 382
1076 2 2 0 0 105 649 109
1077 2 2 0 0 398 573 307
1078 2 2 0 0 368 676 369
1079 2 2 0 0 180 613 178
1080 2 2 0 0 153 556 176
1081 2 2 0 0 432 657 367
1082 2 2 0 0 458 718 582
1083 2 2 0 0 207 614 183
1084 2 2 0 0 407 611 456
1085 2 2 0 0 244 623 517
1086 2 2 0 0 20 639 27
1087 2 2 0 0 476 675 87
1088 2 2 0 0 319 616 393
1089 2 2 0 0 474 707 197
1090 2 2 0 0 226 599 306
1091 2 2 0 0 47 48 43
1092 2 2 0 0 186 619 188
1093 2 2 0 0 412 732 328
1094 2 2 0 0 316 671 541
1095 2 2 0 0 293 734 478
1096 2 2 0 0 492 685 598
1097 2 2 0 0 528 629 532
1098 2 2 0 0 514 635 515
1099 2 2 0 0 531 616 319
1100 2 2 0 0 8 656 7
1101 2 2 0 0 387 602 601
1102 2 2 0 0 76 628 78
1103 2 2 0 0 122 618 516
1104 2 2 0 0 651 717 394
1105 2 2 0 0 423 623 564
1106 2 2 0 0 546 669 547
1107 2 2 0 0 4 679 34
1108 2 2 0 0 542 556 151
1109 2 2 0 0 548 609 135
1110 2 2 0 0 204 620 196
1111 2 2 0 0 529 629 528
1112 2 2 0 0 482 719 230
1113 2 2 0 0 258 627 591
1114 2 2 0 0 336 582 335
1115 2 2 0 0 197 686 667
1116 2 2 0 0 583 658 580
1117 2 2 0 0 85 675 98
1118 2 2 0 0 59 728 379
1119 2 2 0 0 400 625 338
1120 2 2 0 0 394 717 605
1121 2 2 0 0 471 650 450
1122 2 2 0 0 596 635 323
1123 2 2 0 0 249 637 228
1124 2 2 0 0 515 635 596
1125 2 2 0 0 338 625 563
1126 2 2 0 0 28 633 488
1127 2 2 0 0 566 622 361
1128 2 2 0 0 229 570 161
1129 2 2 0 0 468 654 465
1130 2 2 0 0 118 710 462
1131 2 2 0 0 15 612 16
1132 2 2 0 0 589 659 590
1133 2 2 0 0 526 621 268
1134 2 2 0 0 365 647 597
1135 2 2 0 0 579 583 235
1136 2 2 0 0 22 507 21
1137 2 2 0 0 342 682 264
1138 2 2 0 0 441 648 346
1139 2 2 0 0 191 636 198
1140 2 2 0 0 578 653 579
1141 2 2 0 0 135 609 134
1142 2 2 0 0 128 618 122
1143 2 2 0 0 378 681 310
1144 2 2 0 0 230 690 211
1145 2 2 0 0 210 690 232
1146 2 2 0 0 549 643 553
1147 2 2 0 0 233 661 247
1148 2 2 0 0 10 624 11
1149 2 2 0 0 640 709 435
1150 2 2 0 0 449 719 482
1151 2 2 0 0 452 726 33
1152 2 2 0 0 362 577 280
1153 2 2 0 0 318 575 433
1154 2 2 0 0 492 687 396
1155 2 2 0 0 586 734 293
1156 2 2 0 0 357 655 618
1157 2 2 0 0 277 567 259
1158 2 2 0 0 522 641 225
1159 2 2 0 0 511 640 281
1160 2 2 0 0 247 661 483
1161 2 2 0 0 610 693 39
1162 2 2 0 0 272 569 326
1163 2 2 0 0 490 695 70
1164 2 2 0 0 553 643 599
1165 2 2 0 0 532 629 284
1166 2 2 0 0 29 712 17
1167 2 2 0 0 632 665 117
1168 2 2 0 0 618 655 386
1169 2 2 0 0 241 699 576
1170 2 2 0 0 457 728 561
1171 2 2 0 0 485 572 456
1172 2 2 0 0 430 667 621
1173 2 2 0 0 582 672 458
1174 2 2 0 0 395 687 540
1175 2 2 0 0 504 594 44
1176 2 2 0 0 181 713 207
1177 2 2 0 0 197 707 184
1178 2 2 0 0 524 657 556
1179 2 2 0 0 475 536 498
1180 2 2 0 0 394 738 320
1181 2 2 0 0 51 714 561
1182 2 2 0 0 151 556 153
1183 2 2 0 0 437 693 610
1184 2 2 0 0 361 626 568
1185 2 2 0 0 611 679 5
1186 2 2 0 0 231 680 643
1187 2 2 0 0 462 706 118
1188 2 2 0 0 390 670 496
1189 2 2 0 0 602 642 601
1190 2 2 0 0 49 330 48
1191 2 2 0 0 391 665 632
1192 2 2 0 0 508 737 375
1193 2 2 0 0 450 650 552
1194 2 2 0 0 368 732 476
1195 2 2 0 0 578 579 235
1196 2 2 0 0 402 581 308
1197 2 2 0 0 43 486 41
1198 2 2 0 0 562 713 179
1199 2 2 0 0 592 632 480
1200 2 2 0 0 416 641 522
1201 2 2 0 0 372 668 371
1202 2 2 0 0 452 712 439
1203 2 2 0 0 282 720 455
1204 2 2 0 0 556 657 176
1205 2 2 0 0 364 632 592
1206 2 2 0 0 403 726 452
1207 2 2 0 0 465 654 623
1208 2 2 0 0 278 649 105
1209 2 2 0 0 154 652 617
1210 2 2 0 0 383 688 603
1211 2 2 0 0 451 719 447
1212 2 2 0 0 317 709 640
1213 2 2 0 0 604 711 642
1214 2 2 0 0 382 652 383
1215 2 2 0 0 601 642 389
1216 2 2 0 0 284 671 316
1217 2 2 0 0 599 643 402
1218 2 2 0 0 388 633 624
1219 2 2 0 0 267 678 311
1220 2 2 0 0 337 681 530
1221 2 2 0 0 279 661 233
1222 2 2 0 0 605 738 394
1223 2 2 0 0 33 677 504
1224 2 2 0 0 386 655 387
1225 2 2 0 0 547 669 631
1226 2 2 0 0 562 731 479
1227 2 2 0 0 360 648 595
1228 2 2 0 0 432 692 657
1229 2 2 0 0 367 657 524
1230 2 2 0 0 633 695 488
1231 2 2 0 0 415 473 341
1232 2 2 0 0 644 672 336
1233 2 2 0 0 551 633 388
1234 2 2 0 0 533 648 360
1235 2 2 0 0 407 679 611
1236 2 2 0 0 323 635 615
1237 2 2 0 0 530 681 529
1238 2 2 0 0 393 651 394
1239 2 2 0 0 387 655 602
1240 2 2 0 0 238 703 574
1241 2 2 0 0 594 677 505
1242 2 2 0 0 559 692 560
1243 2 2 0 0 621 667 381
1244 2 2 0 0 405 674 376
1245 2 2 0 0 325 732 368
1246 2 2 0 0 623 654 517
1247 2 2 0 0 581 644 336
1248 2 2 0 0 346 648 533
1249 2 2 0 0 517 654 279
1250 2 2 0 0 477 705 481
1251 2 2 0 0 481 705 355
1252 2 2 0 0 561 728 57
1253 2 2 0 0 379 705 477
1254 2 2 0 0 617 652 382
1255 2 2 0 0 30 650 500
1256 2 2 0 0 376 674 385
1257 2 2 0 0 518 715 519
1258 2 2 0 0 474 667 430
1259 2 2 0 0 478 734 294
1260 2 2 0 0 624 633 28
1261 2 2 0 0 186 707 619
1262 2 2 0 0 64 663 475
1263 2 2 0 0 597 647 258
1264 2 2 0 0 377 738 605
1265 2 2 0 0 31 735 467
1266 2 2 0 0 27 718 458
1267 2 2 0 0 419 673 68
1268 2 2 0 0 616 722 393
1269 2 2 0 0 24 723 419
1270 2 2 0 0 397 638 48
1271 2 2 0 0 404 730 460
1272 2 2 0 0 91 676 472
1273 2 2 0 0 622 626 361
1274 2 2 0 0 7 656 32
1275 2 2 0 0 576 697 277
1276 2 2 0 0 471 691 650
1277 2 2 0 0 536 663 373
1278 2 2 0 0 484 691 471
1279 2 2 0 0 552 650 30
1280 2 2 0 0 311 678 600
1281 2 2 0 0 486 729 5
1282 2 2 0 0 418 673 666
1283 2 2 0 0 232 680 231
1284 2 2 0 0 5 679 4
1285 2 2 0 0 117 665 539
1286 2 2 0 0 384 702 616
1287 2 2 0 0 557 702 221
1288 2 2 0 0 87 675 85
1289 2 2 0 0 225 711 604
1290 2 2 0 0 505 677 571
1291 2 2 0 0 483 661 494
1292 2 2 0 0 263 565 375
1293 2 2 0 0 504 677 594
1294 2 2 0 0 582 718 399
1295 2 2 0 0 645 714 46
1296 2 2 0 0 534 708 392
1297 2 2 0 0 643 680 402
1298 2 2 0 0 18 712 452
1299 2 2 0 0 392 670 390
1300 2 2 0 0 221 702 603
1301 2 2 0 0 496 664 391
1302 2 2 0 0 606 710 118
1303 2 2 0 0 655 703 602
1304 2 2 0 0 608 676 91
1305 2 2 0 0 194 684 514
1306 2 2 0 0 541 671 378
1307 2 2 0 0 154 669 652
1308 2 2 0 0 399 718 639
1309 2 2 0 0 405 715 674
1310 2 2 0 0 33 726 677
1311 2 2 0 0 629 671 284
1312 2 2 0 0 468 735 495
1313 2 2 0 0 469 704 408
1314 2 2 0 0 427 745 479
1315 2 2 0 0 294 734 251
1316 2 2 0 0 461 705 379
1317 2 2 0 0 385 674 636
1318 2 2 0 0 657 692 176
1319 2 2 0 0 561 714 411
1320 2 2 0 0 631 669 154
1321 2 2 0 0 264 682 265
1322 2 2 0 0 43 638 486
1323 2 2 0 0 48 638 43
1324 2 2 0 0 194 744 684
1325 2 2 0 0 381 686 380
1326 2 2 0 0 658 716 589
1327 2 2 0 0 263 567 565
1328 2 2 0 0 310 681 337
1329 2 2 0 0 493 685 492
1330 2 2 0 0 64 685 663
1331 2 2 0 0 309 678 267
1332 2 2 0 0 600 678 431
1333 2 2 0 0 538 694 333
1334 2 2 0 0 598 685 64
1335 2 2 0 0 551 695 633
1336 2 2 0 0 560 699 241
1337 2 2 0 0 211 690 210
1338 2 2 0 0 2 723 3
1339 2 2 0 0 630 708 441
1340 2 2 0 0 467 735 468
1341 2 2 0 0 396 687 395
1342 2 2 0 0 35 507 22
1343 2 2 0 0 259 567 263
1344 2 2 0 0 417 673 418
1345 2 2 0 0 614 686 197
1346 2 2 0 0 392 708 630
1347 2 2 0 0 5 729 6
1348 2 2 0 0 279 725 661
1349 2 2 0 0 6 729 26
1350 2 2 0 0 357 703 655
1351 2 2 0 0 514 684 635
1352 2 2 0 0 540 733 538
1353 2 2 0 0 374 741 593
1354 2 2 0 0 176 692 559
1355 2 2 0 0 650 691 500
1356 2 2 0 0 484 736 691
1357 2 2 0 0 83 733 540
1358 2 2 0 0 558 740 372
1359 2 2 0 0 626 697 555
1360 2 2 0 0 436 693 437
1361 2 2 0 0 375 737 374
1362 2 2 0 0 475 663 536
1363 2 2 0 0 636 674 198
1364 2 2 0 0 674 715 198
1365 2 2 0 0 70 695 551
1366 2 2 0 0 406 721 407
1367 2 2 0 0 677 726 571
1368 2 2 0 0 258 647 627
1369 2 2 0 0 448 701 451
1370 2 2 0 0 458 672 506
1371 2 2 0 0 229 700 570
1372 2 2 0 0 684 744 428
1373 2 2 0 0 570 700 544
1374 2 2 0 0 678 742 431
1375 2 2 0 0 646 741 314
1376 2 2 0 0 603 702 384
1377 2 2 0 0 478 731 293
1378 2 2 0 0 309 742 678
1379 2 2 0 0 380 686 614
1380 2 2 0 0 494 725 468
1381 2 2 0 0 500 691 38
1382 2 2 0 0 635 684 615
1383 2 2 0 0 661 725 494
1384 2 2 0 0 679 721 34
1385 2 2 0 0 509 510 35
1386 2 2 0 0 46 714 51
1387 2 2 0 0 615 684 428
1388 2 2 0 0 432 742 689
1389 2 2 0 0 179 713 181
1390 2 2 0 0 26 739 645
1391 2 2 0 0 35 510 507
1392 2 2 0 0 574 703 357
1393 2 2 0 0 184 707 186
1394 2 2 0 0 39 693 612
1395 2 2 0 0 665 694 539
1396 2 2 0 0 312 708 534
1397 2 2 0 0 554 689 309
1398 2 2 0 0 1 737 508
1399 2 2 0 0 519 717 520
1400 2 2 0 0 277 697 622
1401 2 2 0 0 389 711 641
1402 2 2 0 0 495 736 484
1403 2 2 0 0 17 712 18
1404 2 2 0 0 212 722 557
1405 2 2 0 0 455 720 438
1406 2 2 0 0 622 697 626
1407 2 2 0 0 664 694 665
1408 2 2 0 0 447 719 449
1409 2 2 0 0 669 688 652
1410 2 2 0 0 612 693 436
1411 2 2 0 0 619 744 194
1412 2 2 0 0 57 728 59
1413 2 2 0 0 579 658 583
1414 2 2 0 0 438 727 525
1415 2 2 0 0 539 733 83
1416 2 2 0 0 479 731 478
1417 2 2 0 0 691 736 38
1418 2 2 0 0 401 724 400
1419 2 2 0 0 420 660 2
1420 2 2 0 0 328 732 325
1421 2 2 0 0 320 738 453
1422 2 2 0 0 428 744 429
1423 2 2 0 0 431 742 432
1424 2 2 0 0 425 745 427
1425 2 2 0 0 408 743 434
1426 2 2 0 0 571 726 403
1427 2 2 0 0 119 727 523
1428 2 2 0 0 625 706 462
1429 2 2 0 0 525 730 404
1430 2 2 0 0 499 736 495
1431 2 2 0 0 468 725 654
1432 2 2 0 0 336 672 582
1433 2 2 0 0 198 715 518
1434 2 2 0 0 400 724 706
1435 2 2 0 0 402 680 581
1436 2 2 0 0 589 716 659
1437 2 2 0 0 727 730 525
1438 2 2 0 0 664 665 391
1439 2 2 0 0 337 740 558
1440 2 2 0 0 293 731 562
1441 2 2 0 0 523 720 282
1442 2 2 0 0 460 730 119
1443 2 2 0 0 641 711 225
1444 2 2 0 0 429 744 619
1445 2 2 0 0 119 730 727
1446 2 2 0 0 651 722 212
1447 2 2 0 0 38 736 499
1448 2 2 0 0 667 686 381
1449 2 2 0 0 652 688 383
1450 2 2 0 0 410 710 606
1451 2 2 0 0 644 701 448
1452 2 2 0 0 666 673 419
1453 2 2 0 0 704 743 408
1454 2 2 0 0 251 734 586
1455 2 2 0 0 400 706 625
1456 2 2 0 0 546 688 669
1457 2 2 0 0 668 700 229
1458 2 2 0 0 538 733 694
1459 2 2 0 0 333 694 664
1460 2 2 0 0 565 662 375
1461 2 2 0 0 720 727 438
1462 2 2 0 0 372 700 668
1463 2 2 0 0 579 716 658
1464 2 2 0 0 642 711 389
1465 2 2 0 0 355 705 461
1466 2 2 0 0 407 721 679
1467 2 2 0 0 523 727 720
1468 2 2 0 0 654 725 279
1469 2 2 0 0 639 718 27
1470 2 2 0 0 694 733 539
1471 2 2 0 0 393 722 651
1472 2 2 0 0 645 739 397
1473 2 2 0 0 683 741 374
1474 2 2 0 0 397 739 638
1475 2 2 0 0 653 716 579
1476 2 2 0 0 666 723 660
1477 2 2 0 0 419 723 666
1478 2 2 0 0 374 737 683
1479 2 2 0 0 593 741 646
1480 2 2 0 0 683 737 1
1481 2 2 0 0 689 742 309
1482 2 2 0 0 660 723 2
1483 2 2 0 0 23 25 1
1484 2 2 0 0 25 607 1
1485 2 2 0 0 3 34 2
1486 2 2 0 0 34 415 2
$EndElements
