$MeshFormat
2.2 0 8
$EndMeshFormat
$Nodes
745
1 4.0052231906795371e-05 2.0252179328584262e-05 1.0030288506953089e-03
2 4.7444320098570061e-05 -3.5667147772513887e-05 -1.0011308499704057e-03
3 1.4338799294975251e-04 1.9181224689267448e-05 -9.9203033871678734e-04
4 2.4865246272651436e-04 5.5583599828833155e-06 -9.7244961672796179e-04
5 3.8256791084210784e-04 1.4142057984889459e-05 -9.2848986747341201e-04
6 5.1318382212441375e-04 -4.3118152039023171e-07 -8.6220868651073568e-04
7 6.0862836633078889e-04 3.0966382759824538e-06 -7.9731879846817416e-04
8 7.2686611183557623e-04 -1.3728252902362782e-06 -6.8975968837839971e-04
9 8.1943628102515453e-04 -2.3226259642364596e-06 -5.7462516296580897e-04
10 9.0278650206556093e-04 2.2915761976604377e-06 -4.2856723136308877e-04
11 9.5902951638274659e-04 6.5721438409953475e-06 -2.7656298785706660e-04
12 9.8898057529069072e-04 3.0504042625384911e-06 -1.2964457409862367e-04
13 9.9713720269905474e-04 6.4673685982721872e-06 3.4446323508800650e-06
14 9.8654105666258571e-04 3.8238379736644636e-06 1.4638412595247536e-04
15 9.5386931161727797e-04 -1.6566760965739125e-06 2.9430975558911577e-04
16 8.9849973241846028e-04 6.9088328793827998e-06 4.3811389467837312e-04
17 8.2281929469004485e-04 5.1894013526389071e-07 5.6991480991816100e-04
18 7.3368033113318458e-04 3.8382489576425442e-08 6.8274601515128943e-04
19 6.2427420809295527e-04 4.9496835407216689e-06 7.8552495026551711e-04
20 5.0299073770566710e-04 -7.3962548574906299e-07 8.6884256226244167e-04
21 3.6738462590203415e-04 5.7351747084455638e-06 9.3453652312466612e-04
22 2.3988618167678803e-04 -6.7063469162600222e-06 9.7488024441483832e-04
23 1.4180995026556368e-04 -2.1202147824559835e-05 9.9296240749478706e-04
24 1.4917345987594771e-04 1.2637757371181655e-04 -9.8453286605711230e-04
25 1.6790873623274239e-04 1.0430138874072439e-04 9.8487897425249748e-04
26 5.5640643938177875e-04 1.0989204236417804e-04 -8.2714404856247330e-04
27 5.6239864533489336e-04 -1.0780320738746023e-04 8.2429749062205143e-04
28 9.6821511755665725e-04 1.3573267957272880e-04 -1.9848054580671404e-04
29 8.4816628323057270e-04 1.5293583196458968e-04 5.0944475484690022e-04
30 9.2489042117787485e-04 -1.2234239723381071e-04 3.5678859658121545e-04
31 9.6914072047845593e-04 -1.1864201824627963e-04 -2.0496069228774941e-04
32 5.5527272828628435e-04 -1.0912210857555663e-04 -8.2864728276988645e-04
33 5.5486243513105319e-04 1.0453121782535426e-04 8.2963162388763106e-04
34 1.7680647873550949e-04 -8.1697631215867810e-05 -9.8492103715053648e-04
35 1.9069127346502249e-04 -1.0719456051162959e-04 9.7964769151497391e-04
36 7.8056910696718169e-04 -1.2849392786443609e-04 6.1428437559469954e-04
37 7.7337240861821352e-04 1.2262104315173046e-04 -6.2391635672581715e-04
38 9.8749424354186398e-04 -1.1164884655689884e-04 8.0859227600200506e-05
39 9.6508174358428465e-04 1.2076084338828151e-04 2.2172699944983466e-04
40 8.5898692898400599e-04 -1.3159353754996407e-04 -4.9509249828195187e-04
41 2.8430499677913263e-04 1.2475203926823992e-04 -9.5433809287616249e-04
42 2.2753513143030784e-04 2.2352925952821661e-04 -9.5137624748796966e-04
43 3.2720247532481934e-04 2.3868333577650039e-04 -9.1784314858675575e-04
44 3.0236115319474759e-04 1.0494203039672264e-04 9.5184650172612485e-04
45 6.6565065968982962e-04 1.2273104940590325e-04 -7.3927823336830797e-04
46 7.0237263706604569e-04 2.5051736145941509e-04 -6.6857315841363746e-04
47 2.6393844305059759e-04 3.2581838395678538e-04 -9.1148943725085220e-04
48 3.8779467185654285e-04 3.3057832426313700e-04 -8.6399754079109065e-04
49 3.2810828691578857e-04 4.2921291224792249e-04 -8.4485622044666012e-04
50 7.9890647422607925e-04 2.4851889963663633e-04 -5.4814038311570747e-04
51 7.2377290259218634e-04 3.6678791939145141e-04 -5.8540272088066533e-04
52 8.0636749827900909e-04 3.6718692917867967e-04 -4.6177224179270532e-04
53 7.2672524975090475e-04 4.7598466200933205e-04 -4.9420657154954561e-04
54 7.9844824458312404e-04 4.7628849451728514e-04 -3.6312411999257007e-04
55 7.0755497815414437e-04 5.8614073418919780e-04 -3.9041730852228731e-04
56 7.7167401602410573e-04 5.7702790688278841e-04 -2.5744323277554363e-04
57 6.3108487004603366e-04 5.8648781879530978e-04 -5.0628332046008485e-04
58 5.9894702578485815e-04 6.8812170056628389e-04 -4.0533418604684241e-04
59 5.1107550401255418e-04 6.8082357897988996e-04 -5.2346853948015187e-04
60 4.7879681910123782e-04 7.7202082554304928e-04 -4.1381124314042428e-04
61 3.8284362123335665e-04 7.5261527925018980e-04 -5.3501930158289296e-04
62 3.5336378305342168e-04 8.3900774000681181e-04 -4.0934429243697775e-04
63 1.9625875726882766e-04 4.5190643575866198e-04 -8.7361414423791533e-04
64 4.3969968118861972e-04 8.4361350398463961e-04 -2.9837789823578177e-04
65 2.5327026877044497e-04 8.1517213205174657e-04 -5.1988033942653139e-04
66 2.2940299357029331e-04 8.8985250011282106e-04 -3.8926816784632306e-04
67 1.1887127198379259e-04 8.6272424717319884e-04 -4.8967107557202521e-04
68 1.0729831147519594e-04 2.3338519982108195e-04 -9.6967571749554554e-04
69 1.3765151841385189e-04 7.6685782845643639e-04 -6.2912582155457526e-04
70 8.5117382394929312e-04 4.6577679775932653e-04 -2.2960756454376704e-04
71 8.2177661666916080e-04 5.5286663166089563e-04 -1.1348519629631802e-04
72 7.3023867810217415e-04 6.6336880975308881e-04 -1.4263768678896677e-04
73 7.6863686657813982e-04 6.3458015861439976e-04 -2.0523154675755425e-06
74 6.7108848452516947e-04 7.3616112558803730e-04 -2.7855738928599322e-05
75 6.9393732565637431e-04 7.0797087030713488e-04 1.0278765060686935e-04
76 5.9641878577482458e-04 7.9419090524104115e-04 8.1720774802644444e-05
77 6.0988975283078704e-04 7.5940412180955331e-04 2.1329989588978241e-04
78 5.0521546509033565e-04 8.4013872264962106e-04 1.8107723208508273e-04
79 9.8066510335184193e-05 9.3019507135877282e-04 -3.4705081990070295e-04
80 -1.9055516189011436e-05 8.9792960316346481e-04 -4.3587775367980009e-04
81 2.4077278073566532e-04 2.1934694058480423e-04 9.4985348897724765e-04
82 5.2293057817200377e-04 7.8913108999751009e-04 3.1592531470824037e-04
83 -4.0941715719072197e-05 9.4923101188955491e-04 -3.0212250374127676e-04
84 4.0552781751511304e-04 8.6857582969475356e-04 2.7571315224863961e-04
85 4.1965752640206558e-04 8.0852230855759841e-04 4.0884891678630796e-04
86 3.0105948612100001e-04 8.7383850077941939e-04 3.7693563010791410e-04
87 3.1449617882784727e-04 8.0402491731901195e-04 5.0325699896139624e-04
88 1.8679980964699674e-04 8.5617965034296675e-04 4.7995398337047796e-04
89 1.6133224267858568e-04 9.2268198869167634e-04 3.4387564275881665e-04
90 5.2523922585339605e-05 8.9405223822308590e-04 4.4183243404627307e-04
91 7.0202154213351998e-05 8.1735479102414956e-04 5.7218053272066287e-04
92 -5.5334620412134816e-05 8.4981396157505758e-04 5.2286029096847478e-04
93 -7.6994095538497173e-05 9.1282072484672383e-04 3.9623616197479941e-04
94 -1.8920148822478393e-04 8.5619073597229998e-04 4.7817646470026359e-04
95 -1.4779271434716253e-04 8.0036796035436511e-04 5.7967868695642515e-04
96 -2.1411085722872553e-04 9.1142357089171906e-04 3.4432674679849370e-04
97 1.0801701506537562e-04 2.3008975644805743e-04 9.7116775435071817e-04
98 5.2796881883805224e-04 7.0689617960469856e-04 4.7168950659051337e-04
99 1.7938208696569047e-04 3.1969663150221007e-04 9.3461045340699619e-04
100 5.2978249983376386e-05 3.1603482335957640e-04 9.5132847129399535e-04
101 -2.4628008118652511e-05 2.1725206059128711e-04 9.7951765361724524e-04
102 -7.6846732776655736e-05 3.1173555062029556e-04 9.5105503432698800e-04
103 2.0570499206065037e-04 9.4227186955832644e-04 -2.5225948883153581e-04
104 -1.0761895914932423e-04 9.5611492552529539e-04 2.6124356073837948e-04
105 -2.4475159649448502e-04 9.4519810602146901e-04 1.9956460785478135e-04
106 -3.5076438595306372e-04 8.8798389903153646e-04 2.8738734846516401e-04
107 -1.5399092246013259e-04 9.0936677436105834e-04 -3.8042581352965455e-04
108 -1.3119738255720125e-04 8.4638276174558026e-04 -5.1431578301321958e-04
109 -3.7359224044276965e-04 9.1111000124265867e-04 1.5118111428416450e-04
110 -2.6578064374640776e-04 8.4748559472179517e-04 -4.5618953869451355e-04
111 -2.3847847645874000e-04 7.7032554501657189e-04 -5.9130256210703804e-04
112 -3.6937111767445775e-04 7.6592586365967327e-04 -5.2496035586235379e-04
113 -3.3055021514815638e-04 6.7388375830267457e-04 -6.6226055935973336e-04
114 -4.6316565442725731e-04 6.7019385655063839e-04 -5.7988394892492291e-04
115 -4.1515788684009662e-04 5.7355652010985690e-04 -7.0849531637227892e-04
116 -4.9601206100001493e-04 7.4360940613505007e-04 -4.4480079966738837e-04
117 -2.8087917689910213e-04 9.0098930326463708e-04 -3.2204948333303297e-04
118 -2.8441572116893890e-04 7.7696885399978783e-04 5.6234855047077189e-04
119 7.0903914014518470e-04 6.6709375130330213e-04 2.1442083213920197e-04
120 -2.8054063980194013e-04 5.6957433963951735e-04 -7.7552231020078602e-04
121 -3.5909269839695137e-04 4.6181023327286549e-04 -8.1444068881782389e-04
122 -4.9421309612640270e-04 4.7090558743042627e-04 -7.3325638368322522e-04
123 -4.3653706169005532e-04 3.6342214235174966e-04 -8.2649009920398859e-04
124 -5.8856088521086220e-04 6.3955932789742031e-04 -4.9231690733437183e-04
125 -6.1437102495788857e-04 6.9679681815714746e-04 -3.6365438110933217e-04
126 -6.9708526486045514e-04 5.8890954222299359e-04 -4.0396072940393089e-04
127 -4.7592389110943803e-04 8.4476714533936420e-04 2.3076612149151689e-04
128 -5.6322273652420235e-04 3.5407373781040066e-04 -7.4925858933715854e-04
129 -5.0598354908081824e-04 2.5281743722115882e-04 -8.2813949220271162e-04
130 -6.2782735513288574e-04 2.2158909868903704e-04 -7.4891365470339537e-04
131 -5.6383226179172535e-04 1.2465759284074727e-04 -8.1996492587092676e-04
132 -6.8218239368758170e-04 9.3056376034707141e-05 -7.2800358320239942e-04
133 -6.0193246812746660e-04 -1.0758149872812177e-05 -8.0207803076008590e-04
134 -7.1835625242270629e-04 -3.5605264152673749e-05 -6.9736437961604922e-04
135 -6.2703390382554017e-04 -1.4496457114123110e-04 -7.6892493868260358e-04
136 -7.8948678849490473e-04 7.6711072630281920e-05 -6.1019541441660152e-04
137 -8.1721915035499809e-04 -5.4963738419870885e-05 -5.7425884856527373e-04
138 -8.7431917418982535e-04 4.8596635921607921e-05 -4.8122945665677409e-04
139 -8.9287939605247506e-04 -8.1388713486538162e-05 -4.4003274085085178e-04
140 -9.3463122958219852e-04 1.1283641943738567e-05 -3.4894188874004116e-04
141 -9.4222043011737966e-04 -1.1872841256703462e-04 -3.0509122169992790e-04
142 -9.7323414868229056e-04 -1.4579758321303460e-05 -2.1482809354720980e-04
143 -9.7162066872179481e-04 -1.4585096826507819e-04 -1.6750345861885245e-04
144 -9.9245124088636282e-04 -3.7989947261249093e-05 -7.8797331099266519e-05
145 -9.8159104224334638e-04 -1.6738025282600296e-04 -3.4620516706727986e-05
146 -9.9336034477390798e-04 -5.5557230967156950e-05 5.1872000063434278e-05
147 -9.7392861038213664e-04 -1.8349750986545169e-04 1.0418317417173450e-04
148 -9.5278073400752302e-04 -2.9153370566403541e-04 1.2085375285295348e-05
149 -9.3593134218690173e-04 -3.0679545184554861e-04 1.5339302787298220e-04
150 -9.4675553709532457e-04 -1.9033010269808138e-04 2.4882858665839085e-04
151 -8.9908802231900226e-04 -3.1596878385277752e-04 2.9510906618531005e-04
152 -8.9840036907060756e-04 -1.9982983196612986e-04 3.8698889591449656e-04
153 -8.3890939772680992e-04 -3.2813957641050865e-04 4.3163028934497296e-04
154 -8.9263963745223084e-04 -2.1446885677954769e-04 -3.9192379683089410e-04
155 -8.2934051801369436e-04 -2.1201981557506200e-04 5.1661648938411658e-04
156 -7.5969719795534270e-04 -3.3505532990289283e-04 5.5790265463368698e-04
157 -8.8146926601354188e-04 -7.9857886273517809e-05 4.6381637226943639e-04
158 -7.3758659015454723e-04 -2.1637445449092225e-04 6.4174174091807562e-04
159 -6.6334554990061113e-04 -3.3437936660538623e-04 6.7225095591213894e-04
160 -9.9304919499263204e-04 7.7636716776110389e-05 4.9724548536037344e-06
161 -6.2847487113429216e-04 -2.1091265232325436e-04 7.5229778567490911e-04
162 -5.4410247521209816e-04 -3.2311427691059715e-04 7.7858441200337664e-04
163 -5.0803205451432324e-04 -1.1477380597796312e-04 -8.5767758848003764e-04
164 -5.2702198682286672e-04 -2.4696776952305640e-04 -8.1726317805859081e-04
165 -7.1247307557976535e-04 6.4149331237805033e-04 -2.7318702901325652e-04
166 -1.4962538444462752e-04 2.0266252707730573e-04 9.7163290233992982e-04
167 -2.1050460575449984e-04 3.1476144905182040e-04 9.2964756607299655e-04
168 -4.1079786820568439e-04 -2.0697719764290468e-04 -8.9211087613419947e-04
169 -4.3499741610187112e-04 -3.3720934076238699e-04 -8.3923828017689066e-04
170 -5.5020909815885416e-04 -3.7962634417721504e-04 -7.4733625449829042e-04
171 -4.4775486026222747e-04 -4.7576103938596731e-04 -7.6106003627182163e-04
172 -5.5679059955205681e-04 -5.0682361264452918e-04 -6.6084875553803970e-04
173 -4.4119063693180493e-04 -6.0471272195861028e-04 -6.6622348318293200e-04
174 -5.4830754230610599e-04 -6.2198242130815707e-04 -5.6014216487952173e-04
175 -4.2902639030410728e-04 -7.1342481559372899e-04 -5.5527101638157240e-04
176 -7.6545822986829248e-04 -4.4297173249423173e-04 4.6483418238679850e-04
177 -5.2709876432038220e-04 -7.2239274306746474e-04 -4.4591570833379458e-04
178 -4.0497672992346892e-04 -8.0398005870968971e-04 -4.3382633651999823e-04
179 -3.1167902629032455e-04 -7.8279037978977678e-04 -5.3933520071339116e-04
180 -2.7761478580911963e-04 -8.6438964167014369e-04 -4.1749708746648318e-04
181 -1.7641058301328676e-04 -8.3424816936328154e-04 -5.2306158565254145e-04
182 -1.4002425999526418e-04 -9.0602259162975629e-04 -3.9745012074372143e-04
183 -3.8660546851614080e-05 -8.6143253406230477e-04 -5.0752665290373802e-04
184 2.6467141605722005e-06 -9.2578822532040077e-04 -3.7559338364463274e-04
185 -9.7098185074889656e-05 -9.5553918239432104e-04 -2.7203366673333936e-04
186 4.3361827265772616e-05 -9.6681352489050602e-04 -2.4377628141255994e-04
187 -5.1632193196236633e-05 -9.8588861905937763e-04 -1.4307344948257753e-04
188 9.0253462738776921e-05 -9.8622298873869631e-04 -1.2012304096453916e-04
189 -5.3892457815703902e-06 -9.9710724440646198e-04 -1.6976140516606822e-05
190 1.2671757112224031e-04 -9.8920150145169689e-04 1.1475968303518542e-05
191 3.6246179330351294e-05 -9.9066224062381689e-04 1.1032733276568887e-04
192 1.6766612096992878e-04 -9.7362842189254383e-04 1.3880424808526535e-04
193 6.8904279837136959e-05 -9.6598279931828549e-04 2.4163041328594507e-04
194 2.1416335883941553e-04 -9.7059156917477223e-04 -8.2316729660142964e-05
195 2.0144411551198261e-04 -9.3988315109318525e-04 2.6983567340596538e-04
196 1.0233259060331651e-04 -9.2222260797368680e-04 3.7058256657567255e-04
197 1.0882596281348599e-04 -8.7365405144198540e-04 -4.7591795900851427e-04
198 -9.6858338800261771e-05 -9.8854530947474159e-04 8.6946264908291759e-05
199 2.3270286925650743e-04 -8.8610973105440554e-04 3.9937765910124507e-04
200 3.2928044168822987e-04 -8.9566586613463789e-04 2.9408928321897706e-04
201 3.6018171919566331e-04 -8.3402442503937636e-04 4.1683584400093414e-04
202 1.3271442184731319e-04 -8.5765768098223041e-04 4.9764352010452399e-04
203 4.5538442253056921e-04 -8.3232393704953751e-04 3.1169747311965185e-04
204 8.6205223518573360e-07 -8.8227496902698057e-04 4.7099339563724959e-04
205 3.0340897734173686e-05 -8.0401954847795012e-04 5.9643037217513902e-04
206 -9.0304969311684827e-04 -4.1760502395362699e-04 5.7963637389067457e-05
207 -7.9713966468817574e-05 -7.6674576867125576e-04 -6.4071644520272673e-04
208 -1.0644455518730509e-04 -8.2271838438616955e-04 5.6034796655208435e-04
209 -6.9947070542993620e-05 -7.3108021071166605e-04 6.8241836063180909e-04
210 4.7857442579292452e-04 -7.6106751821057475e-04 4.3706441575574312e-04
211 5.6392901204995306e-04 -7.5639243605522127e-04 3.2709429122677804e-04
212 -4.9507179998279521e-04 -8.0130091731068869e-04 -3.3036889585479436e-04
213 6.3076961328986851e-05 -7.0189618962095731e-04 7.1353172512501168e-04
214 -3.1968357408830494e-05 -6.1965224325254923e-04 7.8889342366986052e-04
215 -3.1449026836954681e-04 -2.8700323880558477e-04 -9.0915680150967780e-04
216 -2.0646844996052358e-04 -7.4708540363588967e-04 6.3487456114847969e-04
217 -2.4322358751225297e-04 -8.2777247944850255e-04 5.0630744568104058e-04
218 5.4262841524077500e-04 -8.1157529726598378e-04 2.0721318438981029e-04
219 6.5334326531305887e-04 -7.2052320415796184e-04 2.2455793596704471e-04
220 6.2026902298000549e-04 -7.7589180406689435e-04 9.2467425257136492e-05
221 -6.3507090832784691e-04 -6.2982425305149986e-04 -4.4515492937602342e-04
222 7.2694718254745873e-04 -6.7461647286863775e-04 1.0971925967919549e-04
223 6.8204275735411649e-04 -7.2748861074531921e-04 -2.4297340159188239e-05
224 -2.9350512567398706e-04 -1.7366151867371637e-04 -9.4404871168044999e-04
225 -9.5602224009615048e-04 1.1363049072050822e-04 -2.5793200273011648e-04
226 9.5703196702874544e-05 -5.8818361055026133e-04 8.0778741912356942e-04
227 -4.1460386279589169e-06 -4.9408083983878102e-04 8.7433002483473798e-04
228 -5.0484500663083908e-04 -1.9019603335921470e-04 8.4638977101034153e-04
229 -5.9554324810904234e-04 -8.8487261717419067e-05 8.0207435647446741e-04
230 6.5818600308878471e-04 -6.6452028158391009e-04 3.5044559324285676e-04
231 3.8047616708595183e-04 -7.5280964279223763e-04 5.3840844600446501e-04
232 4.9893887956960583e-04 -6.6293334884861535e-04 5.6135670848311207e-04
233 7.7854400751700562e-04 -6.2335737228620810e-04 -7.2829142171801016e-06
234 7.3304846214828202e-04 -6.6222171910720407e-04 -1.3942240324009425e-04
235 -3.6983887441677742e-04 2.4507754138575509e-04 -8.9989708275015957e-04
236 3.0145523627923718e-04 3.1922283061212441e-04 9.0284925325092604e-04
237 -4.1282641424922822e-04 -2.8230157359106938e-04 8.7077332738866515e-04
238 -8.3721903571094651e-04 1.9686130471890264e-04 -5.1036099287922834e-04
239 6.3040335275920030e-04 -7.5785555952668734e-04 -1.5441999767059004e-04
240 6.8038109320445617e-04 -6.7977308608557383e-04 -2.6797220571212100e-04
241 -5.7147468293404513e-04 -4.4935903746329850e-04 6.8996802718027496e-04
242 5.7173942207491976e-04 -7.6727549761102941e-04 -2.8535747937637055e-04
243 6.0838136068100781e-04 -6.8564607878784977e-04 -3.9835612341120860e-04
244 7.1480706881451965e-04 -5.8491986538432284e-04 -3.8142591726591390e-04
245 6.2646224008681799e-04 -5.8656300415945437e-04 -5.1453688002313705e-04
246 -1.9460867225456075e-04 -2.4632561308838446e-04 -9.5358348330577922e-04
247 8.1726080237041034e-04 -5.6069467963430753e-04 1.1419305539500211e-04
248 2.2764697566574508e-04 4.3502260057776376e-04 8.7536079896756609e-04
249 -3.8215362980590392e-04 -1.5291439912062783e-04 9.1587072070185827e-04
250 3.5575429722504130e-04 4.4090951406152812e-04 8.2808875237740326e-04
251 -2.0596373097420847e-04 -3.7851545181333664e-04 -9.0678590121222281e-04
252 -8.0268343694478732e-05 -3.2877970934469932e-04 -9.4547069106026892e-04
253 3.8265733561824203e-04 9.0871347261279321e-04 1.4544883146234790e-04
254 -6.2187254391182127e-04 7.4514077023187647e-04 -2.2615326108975896e-04
255 -7.1268846562718205e-04 6.8148147088657491e-04 -1.4086072500860432e-04
256 -7.9503675570176337e-04 5.7210166564711576e-04 -1.8261224206640809e-04
257 -7.9121727874872352e-04 6.0253469792058867e-04 -5.1409924886353317e-05
258 -2.1888063336100038e-05 4.2050754757759913e-04 9.1115967797252690e-04
259 -2.9322103834280563e-04 -2.3848700859889539e-04 9.3026898217511613e-04
260 -2.7848047372279092e-04 2.0829493270541421e-04 9.4160880834537081e-04
261 -3.5190575797105692e-04 3.0573410444022301e-04 8.8887176926331923e-04
262 -2.6080573954210927e-04 -1.1910431681304581e-04 9.6225159642314667e-04
263 -1.7090084228624962e-04 -2.1350841990011387e-04 9.6618535238180185e-04
264 -8.6236653253322904e-04 4.9131788016368479e-04 -8.3389720102651279e-05
265 -8.4728715509874532e-04 5.2139137564972461e-04 4.6368363494880938e-05
266 -3.3991718876526082e-04 -7.4524113800151603e-04 5.7548314560746847e-04
267 -3.6925427772617589e-04 -8.1510967684459486e-04 4.4516373570289877e-04
268 5.1576527941731226e-04 -6.7896786026672173e-04 -5.2386716250978462e-04
269 5.2418660369123789e-04 -5.7292194951045962e-04 -6.3317757883674141e-04
270 6.1892252369408381e-04 -4.7851498340464947e-04 -6.2584092112539060e-04
271 5.0917150911273612e-04 -4.5668129296906889e-04 -7.3363789010518691e-04
272 4.0966443404695708e-04 -5.4510957248272561e-04 -7.3567468988042955e-04
273 -2.7478580205137843e-04 4.1395575578131685e-04 8.7182973075989852e-04
274 -4.1848887982514851e-04 4.0571278275679836e-04 8.1640884831530171e-04
275 3.8489757459141897e-04 -4.2403859032493928e-04 -8.2444586885313553e-04
276 2.7994201761362728e-04 -5.0686193893926623e-04 -8.2009793569290227e-04
277 -3.2636464201223585e-04 -3.5550489436148291e-04 8.8041725194610654e-04
278 -1.3669887897763402e-04 9.7951474656065587e-04 1.1966604159789351e-04
279 8.1844238237899951e-04 -5.5752918605384797e-04 -1.1812523229970161e-04
280 -2.2920332160903078e-04 4.5600457716917333e-04 -8.6346132878940384e-04
281 -1.4920961380401754e-04 5.6711744119844075e-04 -8.1321168699883650e-04
282 8.5843883349412333e-04 5.0735839171553833e-04 2.8749786715075740e-05
283 1.1423570273496838e-04 -4.6813974417954466e-04 8.8121498422599883e-04
284 -9.8477357608147548e-04 5.8931773679120595e-05 1.3848617376592255e-04
285 -9.0926452202013948e-04 -4.0141169767707774e-04 -7.2754928987589249e-05
286 -8.4748999689662416e-04 -5.2373995821823767e-04 -2.7485116609352049e-05
287 -8.3075501059331753e-04 -5.4067750077052242e-04 1.0563988953784827e-04
288 -7.7146108236447037e-04 -6.3081087219691429e-04 2.0137149258268377e-05
289 -7.4555343069974359e-04 -6.4304292203509045e-04 1.5716673253147459e-04
290 -6.7412559632341147e-04 -7.2994167306662903e-04 8.0012958525567314e-05
291 -1.9500256457902467e-04 -9.6507707020464706e-04 -1.6089360885645907e-04
292 -2.7262805525887166e-04 -8.8532608906362776e-04 3.7394507086908066e-04
293 -3.2721705046867637e-04 -5.5017657544007416e-04 -7.7281087131051817e-04
294 -1.0508976054520885e-04 -4.6858410939527189e-04 -8.8250908245228021e-04
295 -4.8220713817987955e-04 2.8139355235869655e-04 8.3377669759682812e-04
296 -5.4915876062647186e-04 3.9099810185323747e-04 7.4180087127197062e-04
297 -8.6162411478760343e-04 4.5470599357438034e-04 -2.1014896289038386e-04
298 -6.0729758731948029e-04 2.6769312566798172e-04 7.5139465412759016e-04
299 -6.6758475629221780e-04 3.7047353560143898e-04 6.4748640441331887e-04
300 -5.9974846253602716e-04 4.9451327791759511e-04 6.3045265277288640e-04
301 -7.0652728306284972e-04 4.6560029651381582e-04 5.3214850704054180e-04
302 -7.6915537234324683e-04 3.3821663620194531e-04 5.4152774410551286e-04
303 -3.0052210653140171e-04 -6.6096629133286530e-04 6.9118372387206206e-04
304 -6.2836874766175361e-04 5.8813352027659808e-04 5.0804030637962964e-04
305 -8.0493779745110139e-04 4.1627745833969508e-04 4.1883242619463953e-04
306 2.3205554993686991e-04 -5.4237354271141798e-04 8.1228165290856671e-04
307 2.3951007676501184e-04 -4.1769814280447130e-04 8.8136378378230243e-04
308 3.5435119303609355e-04 -4.8763248050710150e-04 8.0283330310389092e-04
309 -4.5587124093971696e-04 -7.3213867966059150e-04 5.0548062612145882e-04
310 -8.5348814479623155e-04 2.8756664792478002e-04 4.3085441428107379e-04
311 -4.0098331192962123e-04 -8.5990153601654099e-04 3.1068769354760083e-04
312 -7.6262989260294405e-04 6.3514740851483066e-04 8.1434823093826569e-05
313 -8.4634631192795806e-04 -5.0184935880468059e-04 -1.6006391329037239e-04
314 -6.1287832747836669e-05 9.8137166221894687e-05 9.9726575963027145e-04
315 -8.8308689339720338e-04 3.5442450482047968e-04 2.9921740222858421e-04
316 -9.7373677777915402e-04 1.9129316233229318e-04 8.5669581843407814e-05
317 -1.0838819885159890e-04 7.5761203442993412e-04 -6.4421434208852238e-04
318 2.5752353939240542e-04 -3.8784439966621704e-04 -8.8962805950469485e-04
319 -6.9266512701681652e-04 -7.1446330066140932e-04 -5.8407328028021743e-05
320 -5.9362134865281291e-04 -8.0044834028761649e-04 9.4002891721886598e-07
321 -6.5500303938617426e-04 -4.0685184468708716e-04 -6.3882845013063527e-04
322 -8.9110321263105601e-05 -1.8680874706559250e-04 -9.8214700455100698e-04
323 5.0614475216178927e-04 -8.5626068419603811e-04 7.5751942998129588e-05
324 -6.1547342567297252e-04 7.7753212081310393e-04 -9.1666138991831051e-05
325 2.8375521416473018e-04 5.4469148746716010e-04 7.9277983513446014e-04
326 2.9300967879721229e-04 -6.3108213739542732e-04 -7.2235491994928106e-04
327 1.6024923708187416e-04 -5.9649199445106521e-04 -7.9132423938216398e-04
328 4.0882443403597710e-04 5.4235843099226830e-04 7.3717402788876134e-04
329 4.8126195626536661e-04 4.3261935707705247e-04 7.6592243220042523e-04
330 4.5110395884100861e-04 4.3576687213837972e-04 -7.8161152110159675e-04
331 -2.5803257692678685e-06 9.8193595922567087e-04 1.6984463408137068e-04
332 -2.4359254340464043e-05 9.9492140581478690e-04 3.9464038787748160e-05
333 -1.5769588364628409e-04 9.8329358569990816e-04 -7.4448898218533830e-06
334 1.0932207266704681e-04 9.8742984562356180e-04 7.3751921154576423e-05
335 3.5871283643787791e-04 -3.6194039395738472e-04 8.6526152897225606e-04
336 4.5940342889846703e-04 -4.3081394322049216e-04 7.8114574907133026e-04
337 -8.1112820050661450e-04 2.0590840345108589e-04 5.4655933889373161e-04
338 -3.4857241360494902e-04 5.1246579973104900e-04 7.8806398959024545e-04
339 -1.0255793196873564e-04 4.5521108739953261e-04 -8.8783610414710883e-04
340 3.7064229056533928e-04 -3.1188934549699449e-04 -8.7927092356277642e-04
341 3.7491592294698914e-05 -2.6796075117701277e-04 -9.6685641796247321e-04
342 -9.2584971059373790e-04 3.5716903324506372e-04 -9.5930751773632629e-05
343 2.2888018430357804e-05 -3.7485987351625695e-04 9.3147207023408355e-04
344 -5.2087209011246786e-04 6.1227277652957314e-04 5.9558703019440076e-04
345 -5.3281731535593992e-04 7.1317987595742171e-04 4.5465333656854670e-04
346 -6.5517806418836629e-04 6.5319742803288583e-04 3.7398110403373910e-04
347 6.0289287713506353e-04 -3.6129313559509955e-04 -7.1522145550888835e-04
348 7.1113947471134701e-04 -3.7477457442671548e-04 -5.9729636791883253e-04
349 5.2799242924152885e-04 5.2056236335153530e-04 6.7346711085407610e-04
350 6.0232473284300709e-04 3.9801715307565504e-04 6.9480663572767413e-04
351 6.4615050477789858e-04 4.9058292357398209e-04 5.8596052198093304e-04
352 7.1319419665695158e-04 3.5950718574187144e-04 6.0355266477336844e-04
353 7.4366331599219691e-04 4.5355535308708097e-04 4.9086792952835975e-04
354 -6.4531476374285186e-04 -7.3130051467364446e-04 2.0835942689414577e-04
355 2.5426234840135350e-04 5.4650773340852163e-04 -8.0069689287546426e-04
356 1.2876189485070045e-04 5.6068328220289720e-04 -8.2115209724819042e-04
357 -6.7830572470738517e-04 3.2552007444730914e-04 -6.5976254092652139e-04
358 5.2234897182998048e-04 -8.3295284482298368e-04 -1.7004975605549558e-04
359 4.5086991146755314e-04 -8.4282415802292834e-04 -2.8852104595797356e-04
360 -8.2140750327711824e-04 4.8100374065035119e-04 2.9706750600559732e-04
361 -1.3404952240411502e-04 -5.3383740397308080e-04 8.3956955254521962e-04
362 -1.7301420413299635e-04 3.4421451143117006e-04 -9.2629143274736896e-04
363 -2.1309823769858510e-04 5.2092333608284836e-04 8.3010876343789816e-04
364 -5.1543215081308296e-04 8.3550362894607147e-04 -1.6963715220141368e-04
365 1.5447721101517821e-04 5.4450905560440833e-04 8.2830350898667525e-04
366 -3.4487246910233177e-04 -2.4904678050556526e-05 9.4261388072044679e-04
367 -7.0792091947643793e-04 -6.3881510799359317e-04 2.9397974003798270e-04
368 2.0711339839431185e-04 6.5620084621763103e-04 7.2969752012739966e-04
369 8.5730810911523403e-05 6.2832731157303205e-04 7.7565032210000142e-04
370 6.9371026024558208e-04 -2.5043012600306578e-04 -6.7864606020366506e-04
371 -5.3667532196830273e-04 1.6821047581026404e-04 8.3102869158674776e-04
372 -6.6486759964386752e-04 1.3505206003647740e-04 7.3856684613706879e-04
373 5.6232683331841875e-04 8.2089647921479295e-04 -5.1801660498628617e-05
374 -1.2596755827301692e-04 -8.6479179491619860e-05 9.9232749151494624e-04
375 -5.2734865063720947e-05 -1.7042020886483844e-04 9.8791879942119196e-04
376 -3.0266800254433342e-04 -9.2088651106912993e-04 2.3722087149363080e-04
377 -4.3346819787838209e-04 -8.8417228161503068e-04 1.6273796059222638e-04
378 -9.2144876230736681e-04 2.0167357472917092e-04 3.2677330386196834e-04
379 4.1572932496965160e-04 6.4065277748115456e-04 -6.4777264619251911e-04
380 1.6538572884298734e-04 -7.0963208726465966e-04 -6.8852064151782571e-04
381 2.8839781518732923e-04 -7.3768956496307299e-04 -6.1281197314615448e-04
382 -8.9963159320009247e-04 -3.7842146363603450e-04 -2.0333288146527287e-04
383 -8.2838854379773275e-04 -4.7045637274083078e-04 -2.9569738333132077e-04
384 -7.7135107279738279e-04 -5.7977451563888448e-04 -2.5263109646787076e-04
385 -1.7379349520252251e-04 -9.3616914552610347e-04 3.0023447019809246e-04
386 -6.6355873763071982e-04 5.2699734924722280e-04 -5.2957794116936753e-04
387 -7.6345146739566303e-04 4.7132895087645285e-04 -4.3755937067583412e-04
388 8.7452293166827874e-04 2.4999547835806576e-04 -4.1266056294411545e-04
389 -9.0715441297687716e-04 3.3072980323893374e-04 -2.4689712722013947e-04
390 -5.0498569063269546e-04 8.5748060958676939e-04 -3.7250049915968146e-05
391 -4.0054298426733922e-04 9.0569128458003057e-04 -1.0672637443472294e-04
392 -5.9821795744921448e-04 7.9505117326732265e-04 3.5710112476031434e-05
393 -5.9157936577824847e-04 -7.9223977504392772e-04 -1.2797589276073647e-04
394 -5.0069806900883169e-04 -8.5986929526058245e-04 -5.5989456592641661e-05
395 7.7677510487684115e-05 9.9140460594461066e-04 -5.5046770020049759e-05
396 2.0977705801676901e-04 9.7353270903907468e-04 -2.0856911130977589e-05
397 5.1505271067259976e-04 3.2824761702858669e-04 -7.9544436115849717e-04
398 2.5516644103287524e-04 -2.9851398526208522e-04 9.2429294819066819e-04
399 3.6914034947516870e-04 -2.2994251466572303e-04 9.0575332842870711e-04
400 -2.6637204565500670e-04 6.1845500335701721e-04 7.4170034463991771e-04
401 -1.5756983394737557e-04 6.1022412248054028e-04 7.7864111254886959e-04
402 3.1902567915878608e-04 -6.1102632324219763e-04 7.2850738140059306e-04
403 6.4694948153288991e-04 2.7448419562898396e-04 7.1453244279807342e-04
404 6.6575022269134898e-04 5.9136034964098899e-04 4.5534432267690922e-04
405 -3.1453076110299436e-04 -9.4044423262635993e-04 1.0486394099532707e-04
406 2.6142442496825667e-04 -2.7790602140349949e-04 -9.2845901660501659e-04
407 3.5735522656132830e-04 -1.8408646327727879e-04 -9.1968520558743342e-04
408 8.0322395113243319e-05 4.5294789978404072e-04 -8.9135209547402299e-04
409 -8.8718827386280084e-04 4.2809598897117842e-04 1.5539572393613596e-04
410 -4.4869872332258014e-04 8.1372173398697775e-04 3.6319391118235785e-04
411 5.4939665896154642e-04 4.3469633509254284e-04 -7.1469743569574460e-04
412 4.5254101452130581e-04 6.3587519403928523e-04 6.2805439282018411e-04
413 8.0572211487961660e-04 3.1333510295503586e-04 5.0287555041841068e-04
414 8.3378595939328538e-04 3.9085411229647398e-04 3.8642011035121038e-04
415 3.7975768926942709e-05 -1.5574951839838761e-04 -9.9067769631377566e-04
416 -9.7134280923224061e-04 2.1786979183907224e-04 -3.7894641772849463e-05
417 -7.1505918681084697e-05 3.4204401458496454e-04 -9.4012781447654818e-04
418 -1.3426815804364165e-04 2.4120465121304358e-04 -9.6442676185970445e-04
419 3.0200871481455856e-05 1.5693236772815943e-04 -9.8966637072296854e-04
420 -4.4248769379785170e-05 -7.4016447801386701e-05 -9.9967645991115919e-04
421 -9.4021920168311016e-04 3.2436806127114279e-04 5.6472651090749238e-05
422 7.9592247905533123e-04 -2.5777795334825618e-04 -5.4930520778795875e-04
423 8.0565504887107880e-04 -3.7483717086555981e-04 -4.5857383888087697e-04
424 2.4687097781520706e-04 9.5904313378477853e-04 1.1040308288421477e-04
425 2.5854084948283180e-05 -6.7722580460657087e-04 -7.4060562326231207e-04
426 3.6283011659577849e-05 -5.4282126070465413e-04 -8.4418550635225863e-04
427 -7.7017036244649058e-05 -5.9508796456766489e-04 -8.0388611549899326e-04
428 4.0465390596384094e-04 -8.9598306389754463e-04 -1.6888855963188880e-04
429 3.2289216670451816e-04 -9.0351843643315651e-04 -2.7536872745136240e-04
430 3.5996316211158884e-04 -8.4229536543832225e-04 -3.9962833166394616e-04
431 -6.0373417160216854e-04 -7.2163685907139616e-04 3.3273011860430638e-04
432 -6.4820410765671090e-04 -6.2497027284756472e-04 4.3401125192989788e-04
433 1.4355541048342125e-04 -3.2820289434554655e-04 -9.3797928048828725e-04
434 -2.8164640213427386e-06 5.5382288605656388e-04 -8.3664757563810352e-04
435 6.8428461822785474e-05 6.6243328019376395e-04 -7.4853229277694027e-04
436 8.8133949216861606e-04 2.6467906688279274e-04 3.8821930121481880e-04
437 9.0130808112021869e-04 3.4255272531205741e-04 2.5560202645334094e-04
438 8.4257375669016766e-04 4.5933649903199847e-04 2.7150585614368563e-04
439 7.5170175407356077e-04 2.2557599481019271e-04 6.2211463897660383e-04
440 -5.7137740686529815e-04 7.5732772253312233e-04 3.0818164257369942e-04
441 -6.9219000971864502e-04 6.8440807803977501e-04 2.1700645251066672e-04
442 6.7604855895832575e-04 -1.1818425528085763e-04 7.3137381229781008e-04
443 7.2310280596655087e-04 -2.3993216144202985e-04 6.5088468088097477e-04
444 8.0834851532091004e-04 -2.4430240607975343e-04 5.3688203223622847e-04
445 7.3955735197147883e-04 -3.6008588118167711e-04 5.7049354059460460e-04
446 8.1686181862545518e-04 -3.6205202462105256e-04 4.4847435220958721e-04
447 7.3698164890770594e-04 -4.7862464392112419e-04 4.7711758464574170e-04
448 6.5247321981277029e-04 -4.7672312258906040e-04 5.9102013026098292e-04
449 8.0293859573756800e-04 -4.7921284038299856e-04 3.5135675005874823e-04
450 8.7434654652613622e-04 -3.6171011331551155e-04 3.1922189115805199e-04
451 6.3891586159202504e-04 -5.9374194003450332e-04 4.9082032964579351e-04
452 6.7295966523933323e-04 1.3200961597484797e-04 7.3231367466589212e-04
453 -5.6549538999044386e-04 -8.1110458261415721e-04 1.2779291004818481e-04
454 2.3406148387343414e-05 -3.9649398274541991e-04 -9.2253312841553603e-04
455 8.9757075686907023e-04 4.1118332069118717e-04 1.3924415546345245e-04
456 4.7202149260678429e-04 -2.1152073905215995e-04 -8.6015021139821389e-04
457 5.0029669415608278e-04 5.2516870536013522e-04 -6.9009980506073510e-04
458 6.0789307003293581e-04 -2.3437775135270712e-04 7.6366590032181565e-04
459 1.3493508726450414e-04 9.6544983456791158e-04 2.0817097842324724e-04
460 6.2968352513985144e-04 6.9622362755789654e-04 3.3908663070753492e-04
461 3.8000195115437324e-04 5.3471365165817569e-04 -7.5728980311019626e-04
462 -4.1960983732529134e-04 6.9948520427862203e-04 5.7826755495996843e-04
463 7.6544821985239991e-04 -1.3014804592202558e-04 -6.3274656301082525e-04
464 8.7878715344723443e-04 -2.5581733532867496e-04 -4.0117235270770103e-04
465 8.7273653881263680e-04 -3.6762500865409172e-04 -3.1721018948624945e-04
466 1.0314113051171866e-06 8.2048016620812957e-04 -5.7106574567846596e-04
467 9.2907820015964164e-04 -2.4725015483677699e-04 -2.6823931986492429e-04
468 9.1633233040613350e-04 -3.5696837794893055e-04 -1.7075818645741596e-04
469 1.5796293364641879e-04 3.4219335648534544e-04 -9.2973344108577475e-04
470 8.5011180409945626e-04 -4.7381728192794602e-04 2.2149510716992042e-04
471 9.1439431671154633e-04 -3.5225505620339382e-04 1.8740356213758753e-04
472 1.9669551835042163e-04 7.7144679466382906e-04 6.0641111456996089e-04
473 1.4501483544547772e-04 -2.0669442618234435e-04 -9.7134280060808562e-04
474 2.2755137875360762e-04 -8.9678880724810943e-04 -3.7730628351634012e-04
475 5.5891729001738958e-04 7.7201583598447915e-04 -2.9349859302982436e-04
476 3.2353322876718058e-04 7.1557646630936731e-04 6.2031403371383680e-04
477 2.8317734208459385e-04 7.1867917084039278e-04 -6.3605702528850738e-04
478 -1.8747076236159824e-04 -5.5635255927823373e-04 -8.1314213222734419e-04
479 -1.7313774883319174e-04 -6.6887284938120604e-04 -7.2668643532630564e-04
480 -3.9299110978401432e-04 8.3158265275701650e-04 -3.8690577089250597e-04
481 1.9600933552337165e-04 6.5754843958350337e-04 -7.2960132345966289e-04
482 7.5917746547021390e-04 -6.0027094395505179e-04 2.4819262358413870e-04
483 8.8662506179098904e-04 -4.4745064089579786e-04 9.1531866074215899e-05
484 9.3852798515495564e-04 -3.3143430839876282e-04 5.7203577473611221e-05
485 5.8459683783763428e-04 -2.3437330609243822e-04 -7.8085950695391424e-04
486 3.9218927221266320e-04 1.5742419714525905e-04 -9.0977237798384950e-04
487 9.8639956647669563e-04 1.3224566110514946e-04 -6.0100044566060840e-05
488 9.5275863804358319e-04 2.7137151650036685e-04 -1.1894275054210178e-04
489 9.6933110663243122e-04 2.2940771461880808e-04 6.3661348974756130e-06
490 8.9586718033763757e-04 4.2464395367574931e-04 -1.0492634063145650e-04
491 3.4810622983939588e-04 9.3349562284142959e-04 1.0942696953775365e-05
492 2.9302837683234942e-04 9.4387250851887838e-04 -1.3087020218596315e-04
493 4.3397512202406329e-04 8.9331897625619409e-04 -7.8433389461646797e-05
494 9.1179132194374381e-04 -4.0186479850482014e-04 -3.6655172324581851e-05
495 9.5475812184724453e-04 -2.8231013263742445e-04 -5.3216033823529393e-05
496 -3.8957623992195924e-04 9.1634276801762433e-04 1.8611029688838785e-05
497 9.8576258764231030e-04 1.2501394292020241e-04 8.1635260711988606e-05
498 6.7170579392255864e-04 6.8297329443632972e-04 -2.7768520258555061e-04
499 9.8699594263045943e-04 -1.3177199754689839e-04 -6.3180672737677795e-05
500 9.6718540483260273e-04 -1.1572811165219208e-04 2.1583859265596048e-04
501 9.2983320568492669e-04 -1.2659082799170251e-04 -3.4177919528926486e-04
502 8.5829058622471520e-04 1.2466614647100487e-04 -4.9746035705343123e-04
503 8.6149156717665019e-04 -1.2341878414912834e-04 4.9291287959749529e-04
504 4.2886279309869096e-04 1.0827010522522253e-04 9.0129982390965908e-04
505 4.2268492186143576e-04 3.2811048496716696e-04 8.4891918166116089e-04
506 6.5293519652993154e-04 -3.6065682932953500e-04 6.6911615994442010e-04
507 3.0576143426262140e-04 -8.9417143802843820e-05 9.5218975649258785e-04
508 5.6665047919122020e-05 -1.0879470983805861e-04 9.9687291006216126e-04
509 1.5282770011238107e-04 -2.0365120975699384e-04 9.7120341758546124e-04
510 2.5601119680219590e-04 -1.7397334143049489e-04 9.5432814701451195e-04
511 -2.0032795254204471e-04 6.7331518327541987e-04 -7.1373078269582025e-04
512 2.7235385482310377e-04 9.2807645598451882e-04 2.4233418617404805e-04
513 5.7330927713424473e-04 -8.1530382730785446e-04 -4.0044442890014551e-05
514 2.5468022366542252e-04 -9.6348917945539010e-04 4.0191051920471437e-05
515 2.9640476111602259e-04 -9.3804924486638871e-04 1.6690442304278068e-04
516 -5.4923921955239447e-04 5.6305861832325703e-04 -6.1813413320019035e-04
517 7.7691688227868587e-04 -5.7518989973654215e-04 -2.4885082025142072e-04
518 -1.4304410561148434e-04 -9.8603220593229029e-04 -3.9237117083889117e-05
519 -2.9084601805756953e-04 -9.5322522484234964e-04 -4.6271458765173560e-05
520 -3.3216966090677239e-04 -9.2209457491737969e-04 -1.8601062132541502e-04
521 -7.8634520319837114e-04 5.2795813188071352e-04 -3.1194154491685636e-04
522 -9.8408911306032873e-04 9.5570125700714453e-05 -1.2248642810472251e-04
523 7.8316550294936266e-04 6.0434367718091477e-04 1.2091819623799644e-04
524 -7.9881611808431310e-04 -5.4684740403103448e-04 2.4000053258563567e-04
525 7.7126051294662903e-04 5.1901471752434781e-04 3.6352884378201486e-04
526 4.8912729558154048e-04 -7.6949600676117153e-04 -4.0949261316992614e-04
527 -9.5088462244189245e-04 -2.7338822813729910e-04 -1.1945446600501019e-04
528 -9.3668334929931593e-04 -7.2362463291672518e-05 3.3625254242757193e-04
529 -9.1260857057806133e-04 5.3545717306893980e-05 4.0132177053740575e-04
530 -8.4225317702171061e-04 5.6928452090000257e-05 5.3685513781538230e-04
531 -7.7719893122763233e-04 -6.1328306726138445e-04 -1.1727515845159725e-04
532 -9.7523154072536554e-04 -6.5600664445561487e-05 1.9539179728615344e-04
533 -7.3528831127708881e-04 5.3494769865979812e-04 4.1144068933658380e-04
534 -7.0056897439119939e-04 7.0732631068202826e-04 -1.0503046849331658e-05
535 -2.3524370189881023e-04 -9.2504812977689305e-04 -2.9251594921326769e-04
536 6.2447245476053277e-04 7.5902123391451007e-04 -1.6528814706203243e-04
537 -1.3955790165738862e-04 -8.9123516872814765e-04 4.3064716990065245e-04
538 -4.5871903876837542e-05 9.9067463615150602e-04 -9.1414853657060949e-05
539 -1.6985533764499121e-04 9.4928684015705529e-04 -2.5090357068666814e-04
540 6.2079025866507124e-05 9.7417085785229441e-04 -2.0331330906717476e-04
541 -9.3553750228315730e-04 2.8602933715271908e-04 1.9044789369129829e-04
542 -8.7628716834918638e-04 -4.3281770699683667e-04 1.9741867331447073e-04
543 -8.0466298152849546e-04 -8.7280957294958206e-05 5.8833149351977159e-04
544 -7.5316254210016460e-04 3.1708083429616767e-05 6.5874623907564143e-04
545 -6.5363047259354361e-04 -5.2667506965465064e-04 -5.4414630461669528e-04
546 -7.4281153513814876e-04 -4.2672054696688629e-04 -5.1515701840299465e-04
547 -7.4809274180500447e-04 -3.0455663233187029e-04 -5.9056481591089876e-04
548 -6.4698415620844415e-04 -2.7941329978208615e-04 -7.1254792999569331e-04
549 2.6101380109192515e-04 -8.1337039521866032e-04 5.2106571681188050e-04
550 5.6128444366343856e-04 5.9739514304354708e-04 5.7231571773226251e-04
551 8.6779347422496361e-04 3.6666511978847212e-04 -3.2857798447291972e-04
552 8.7833216361341232e-04 -2.4353379626042049e-04 4.0980599768519993e-04
553 1.6004217187339686e-04 -7.7059538011459464e-04 6.1976848998304972e-04
554 -4.4252550130163435e-04 -6.4496641265138698e-04 6.2648978640272965e-04
555 -3.8021739812404498e-04 -5.6506207605191809e-04 7.3583914338966360e-04
556 -8.3136991148369038e-04 -4.4126473728969059e-04 3.3162959177309570e-04
557 -6.0649573187029871e-04 -7.2130499852583296e-04 -3.2814663777155104e-04
558 -7.2137651432637958e-04 2.4747705406008596e-04 6.4836136514332668e-04
559 -6.7627635688310604e-04 -4.4910396310838624e-04 5.8511678459672776e-04
560 -5.8174338202974260e-04 -5.6550690315792487e-04 5.8735347664865207e-04
561 6.3114933301640700e-04 4.7969664865918908e-04 -6.1143749485639983e-04
562 -3.1995407343398356e-04 -6.7983088245312389e-04 -6.6339907699185892e-04
563 -4.8451726477409957e-04 5.0807047809710943e-04 7.1474523949469114e-04
564 7.1994507574443627e-04 -4.8565293918262148e-04 -4.9662371376003260e-04
565 -7.2090024201716080e-05 -2.8818455050701132e-04 9.5930196635355606e-04
566 -1.0273419706466315e-04 -4.0146238525879194e-04 9.1483068604015724e-04
567 -1.9345782069997335e-04 -3.1483279603890051e-04 9.3383426489574404e-04
568 -1.6464975329229524e-04 -6.4702203321459495e-04 7.4871123472586548e-04
569 4.1159664736944410e-04 -6.6094198700012189e-04 -6.3048455953179942e-04
570 -7.0461729706534817e-04 -9.4428071881046035e-05 7.0580033685185991e-04
571 5.3514418847710988e-04 3.1033007956867358e-04 7.8927735275784248e-04
572 4.8287552862174107e-04 -3.3691440221100626e-04 -8.1270260941096570e-04
573 1.4479327495491124e-04 -3.3662486985899581e-04 9.3513854885217222e-04
574 -7.3833337358630673e-04 2.0081921864148215e-04 -6.4510376114878837e-04
575 1.5019968064290470e-04 -4.6450646876043840e-04 -8.7764296479993329e-04
576 -4.4792710504683086e-04 -4.3146015362669030e-04 7.8822061785182771e-04
577 -2.9893653070018310e-04 3.4609256466116678e-04 -8.9293864184283444e-04
578 -2.4249058662937595e-04 2.3807687341758998e-04 -9.4393699197883787e-04
579 -3.0409620663043006e-04 1.2393065623316608e-04 -9.4793703952609967e-04
580 -4.7823568976304874e-04 1.6397778101708742e-05 -8.8193059575110942e-04
581 4.5509436885251664e-04 -5.6345082440678563e-04 6.9434992014574186e-04
582 4.7945120347613036e-04 -3.0371712068541523e-04 8.2782601801663770e-04
583 -4.3520461755934135e-04 1.3675369029323214e-04 -8.9356167761544885e-04
584 -4.0331932629156112e-04 1.8101494352346271e-04 9.0129919019315511e-04
585 -4.4079073328708572e-04 7.4091198492472749e-05 8.9884450640916134e-04
586 -3.3505121895301945e-04 -4.1207934001605978e-04 -8.5163890460444619e-04
587 2.8954541270042839e-05 9.4989311601546876e-04 3.0273692796358874e-04
588 -3.8114024325778135e-04 -8.9137383013782363e-05 -9.2416794626959560e-04
589 -2.7292618698111098e-04 -5.8324695534957190e-05 -9.6389092437552330e-04
590 -1.8416733979674659e-04 -1.1018303452855928e-04 -9.8050486791884583e-04
591 -1.4201783547809207e-04 4.1519107983044269e-04 9.0263630752404741e-04
592 -5.1602830115941248e-04 7.9519986942909687e-04 -3.0931690434984931e-04
593 -2.3448563536731216e-04 -3.9333940292451666e-06 9.7591077517542187e-04
594 3.6549753338745866e-04 2.1886627027734490e-04 9.0914984119362067e-04
595 -8.0275729627055786e-04 5.6188592829925228e-04 1.8102650386585050e-04
596 4.2369217670614514e-04 -8.8332444893210287e-04 1.9003892115300092e-04
597 1.0139861221233316e-04 4.3258787308260308e-04 9.0007838861814798e-04
598 3.2242234000148915e-04 9.0148272844326567e-04 -2.7818997399168307e-04
599 1.9005365152283436e-04 -6.6232326215731217e-04 7.2887963054214431e-04
600 -5.2868141570810729e-04 -8.0790926157101256e-04 2.5159077152374295e-04
601 -8.4268728570251791e-04 4.0905117057478245e-04 -3.4251562200116173e-04
602 -8.1171276196158554e-04 3.4738833783981988e-04 -4.6628994268587917e-04
603 -7.3957181658537989e-04 -5.3650145234279917e-04 -4.0466831599150012e-04
604 -9.0966956384939794e-04 1.4133756565180998e-04 -3.8485096180775812e-04
605 -4.0938449254457576e-04 -9.0864361177125745e-04 1.8227673302261374e-05
606 -3.2216048209852835e-04 8.4487326000256429e-04 4.2279184162313127e-04
607 5.1646625105446274e-05 1.3258962460866203e-04 9.9291909315486022e-04
608 -4.1276500903420226e-05 7.6563853597564117e-04 6.4359148576197784e-04
609 -7.4068383850113160e-04 -1.7065899341174115e-04 -6.5189620156549347e-04
610 9.5303327672782300e-04 2.6022402209435064e-04 1.4042452012891351e-04
611 4.2764958953026721e-04 -9.5811659574358870e-05 -9.0322238470913344e-04
612 9.2091971154688085e-04 1.3138920201546256e-04 3.6312830277997291e-04
613 -3.6968506358187330e-04 -8.7414638414777491e-04 -3.0966154912740292e-04
614 5.4519214276198670e-05 -7.8777568550707255e-04 -6.1664330896512339e-04
615 4.5994191825716524e-04 -8.8336450148783236e-04 -5.4487756374871836e-05
616 -6.8462900553012157e-04 -6.9644619183570214e-04 -2.0477774188468585e-04
617 -9.3158109773074766e-04 -2.4892901643445607e-04 -2.5397402597174176e-04
618 -6.1642310510236643e-04 4.4938236708320039e-04 -6.4763648123226545e-04
619 1.9038519778006639e-04 -9.5232688141749257e-04 -2.3278826533218113e-04
620 -3.3917668708196998e-05 -9.3931481855078413e-04 3.3784464023307333e-04
621 3.8997493922020022e-04 -7.6242739824243792e-04 -5.1747880134754912e-04
622 -2.2891559563666805e-04 -4.4317762938465627e-04 8.7113606687634637e-04
623 8.0180881930395334e-04 -4.7778983890648606e-04 -3.5620130888414070e-04
624 9.2685198216144627e-04 1.3002842274899466e-04 -3.4783509716703836e-04
625 -3.9797086203440012e-04 6.0917489571770702e-04 6.8766571303511821e-04
626 -2.5652216228615968e-04 -5.6573724994522182e-04 7.8775144552775721e-04
627 -9.2626779330103466e-05 5.3015376043798548e-04 8.4662672650817291e-04
628 4.8110847608738393e-04 8.7106205628623655e-04 5.1295297771048192e-05
629 -9.5677457875705028e-04 5.8191621374051584e-05 2.7460326947679542e-04
630 -5.8809016876691851e-04 7.8569654079978701e-04 1.7085696152402993e-04
631 -8.2972763406667822e-04 -1.9267045373030583e-04 -5.2325497539162740e-04
632 -4.0473030922373620e-04 8.7651914615519654e-04 -2.4760763633583787e-04
633 9.2680072563751143e-04 2.5443073765728545e-04 -2.6745303052351776e-04
634 -3.1956222196816527e-04 8.3734864090610799e-05 9.4791059740430717e-04
635 3.8331424255524845e-04 -9.1884460070330257e-04 6.1080072140628003e-05
636 -6.6354359914833297e-05 -9.7288262267138526e-04 2.1144187105332274e-04
637 -4.7175292149139147e-04 -5.7122796491005142e-05 8.8425548449333512e-04
638 4.3247912855955617e-04 2.5592812223331320e-04 -8.6748928376991982e-04
639 4.3230302374481892e-04 -1.1286343634789158e-04 8.9906725340496284e-04
640 -7.0041109201685593e-05 6.6198944409563557e-04 -7.4849696556748108e-04
641 -9.5495991730934005e-04 2.2714073288043196e-04 -1.7030707969693991e-04
642 -8.7935631077490611e-04 2.7758904378144615e-04 -3.8082637320902067e-04
643 2.8445490175993789e-04 -7.2186534873367478e-04 6.3362221945415474e-04
644 5.5849401025071714e-04 -4.7171247475340282e-04 6.8545003406569925e-04
645 5.9736346748733666e-04 2.2828175236595994e-04 -7.7204089123928614e-04
646 -1.9747541603092115e-04 1.0472104641683366e-04 9.7843758019119150e-04
647 2.5745602213051102e-05 5.4100693944697889e-04 8.4457483816057692e-04
648 -7.4473119734304479e-04 5.9109138921699877e-04 2.9712256910355880e-04
649 -2.7070311256343802e-04 9.5620932962654694e-04 6.7125252976325874e-05
650 9.3071015485129960e-04 -2.3749285123898930e-04 2.7143468498314868e-04
651 -4.7192536645288371e-04 -8.5656700305568388e-04 -1.9885790926934039e-04
652 -8.7581850790840901e-04 -3.4303397703845586e-04 -3.3213136480843357e-04
653 -1.9169247169873100e-04 1.4202597006198619e-04 -9.7434741213784249e-04
654 8.5151431058192437e-04 -4.7000591706034331e-04 -2.2311997251432423e-04
655 -7.2548572409203709e-04 4.0787092675342428e-04 -5.5314721323036472e-04
656 6.6628246368208082e-04 -1.2241250770515674e-04 -7.3919414888902880e-04
657 -7.4884822156421650e-04 -5.4114379468791368e-04 3.7811905709637017e-04
658 -3.4650493001072986e-04 2.5281910246203336e-05 -9.4126310596505760e-04
659 -1.6128277896070126e-04 1.0195320642919144e-05 -9.9063339673616008e-04
660 -3.9001735889854541e-05 -7.0823847901775633e-07 -1.0018249459976219e-03
661 8.5364298621264545e-04 -5.1518652512680060e-04 -4.1000946523177471e-06
662 3.5703522125847888e-05 -2.5581916180674770e-04 9.7050352375681456e-04
663 5.0849690108035128e-04 8.3722592492788584e-04 -1.8250141419147442e-04
664 -2.8208502417714955e-04 9.5391014874737193e-04 -4.7973877089883967e-05
665 -2.8997935276716861e-04 9.3546044902328789e-04 -1.8259678741866132e-04
666 -7.7882182832535011e-05 1.2243452242801571e-04 -9.9301837244513921e-04
667 2.5629244865169504e-04 -8.2853108648532625e-04 -4.9841311964141024e-04
668 -5.6287997806632754e-04 4.6573030587426576e-05 8.2915077861395051e-04
669 -8.2618602605217357e-04 -3.2124667229084075e-04 -4.6021500844769733e-04
670 -4.8970028891882976e-04 8.6202059613699590e-04 9.5325402712120513e-05
671 -9.6030747832785864e-04 1.6131029926536207e-04 2.0805553376177999e-04
672 5.5962578116994298e-04 -3.5662736686769821e-04 7.5080948805521621e-04
673 -1.9775427217613966e-05 2.4623894921640781e-04 -9.7213670912645002e-04
674 -1.9657186614174276e-04 -9.6299531193508000e-04 1.6933213101038026e-04
675 4.1275005381639695e-04 7.3941854823288003e-04 5.2994031345237832e-04
676 7.6361003887306732e-05 7.2403479377852731e-04 6.8804975511695132e-04
677 4.8676018933482878e-04 2.0794282408323391e-04 8.5245780960453797e-04
678 -4.9089034323434905e-04 -7.8032278336438374e-04 3.8345899929878124e-04
679 2.9738360318736954e-04 -7.9260029653859727e-05 -9.5544088656688393e-04
680 3.8785742030016666e-04 -6.6610109164781813e-04 6.3880061646205699e-04
681 -8.7532105810347329e-04 1.6370138448133567e-04 4.5021897580553230e-04
682 -9.0094801096710759e-04 4.2279517020794345e-04 1.4783535267765520e-05
683 -5.4470593091172364e-05 -5.9777842024457670e-06 1.0015387175217663e-03
684 3.3884788279610041e-04 -9.3582638872654613e-04 -6.2008768758607804e-05
685 3.9875253076891297e-04 8.9221218606361848e-04 -1.9035223758934902e-04
686 1.7193771395746530e-04 -7.9758459667811712e-04 -5.7863829776581149e-04
687 1.6851375024384271e-04 9.7240169090499025e-04 -1.3064639393794248e-04
688 -8.0735247459941370e-04 -4.2430199650699316e-04 -4.0393549085546962e-04
689 -5.3857355180244226e-04 -6.5244294083477861e-04 5.3169444342231838e-04
690 5.7125104540997889e-04 -6.9203140426424151e-04 4.3864496842053481e-04
691 9.5971374311236586e-04 -2.3055032287763757e-04 1.4219570056501614e-04
692 -6.8889632065726575e-04 -5.3123183489473544e-04 4.9061989564865222e-04
693 9.3246474503792375e-04 2.2519038028405992e-04 2.7122228043081941e-04
694 -1.7427010635997768e-04 9.7267283178555086e-04 -1.2338418588170343e-04
695 9.0405589235667886e-04 3.6179685852648802e-04 -2.1079291002980508e-04
696 -4.8973084567939742e-05 6.5589846059146170e-04 7.5756029442672216e-04
697 -3.3073726035636987e-04 -4.7428314207275914e-04 8.1903355812251635e-04
698 9.2935966541407122e-04 3.6075684598987272e-04 1.4485390288380456e-05
699 -4.8829868210207401e-04 -5.3698024642999463e-04 6.9010746558327563e-04
700 -6.6015122895033156e-04 9.1171695696467924e-06 7.5299728387641601e-04
701 5.6485451752028341e-04 -5.5890243150320145e-04 6.0830155760594037e-04
702 -6.9374568191757585e-04 -6.3708711498180776e-04 -3.2732320605226978e-04
703 -7.6628571017919975e-04 2.9679684780090136e-04 -5.6772976186972540e-04
704 4.3859910162673610e-05 3.4329642978971601e-04 -9.4133495315181057e-04
705 3.0418155422318676e-04 6.1844763660632727e-04 -7.2554489523588884e-04
706 -3.1313945447527500e-04 6.8434157476595140e-04 6.5862743372531408e-04
707 1.1213182756328134e-04 -9.2909141481205694e-04 -3.4691267865784238e-04
708 -6.7076367244217941e-04 7.2777993098685338e-04 1.0258396828787546e-04
709 8.3659186029922501e-06 7.3518528035956051e-04 -6.7781021507632366e-04
710 -4.0467954865536698e-04 7.7387435389612012e-04 4.8306927515754966e-04
711 -9.2660621065260111e-04 2.1881022116474150e-04 -2.9264920920333518e-04
712 7.7009715713043157e-04 1.0331094236667239e-04 6.3067160134473819e-04
713 -2.1017364931780503e-04 -7.5259050574441795e-04 -6.2489775507710871e-04
714 6.3258976111476293e-04 3.5084011316265264e-04 -6.9282184488919771e-04
715 -2.1349550156084807e-04 -9.7180501382082920e-04 5.0064665573952635e-05
716 -2.6199476000824713e-04 5.1723162333232786e-05 -9.6651641006840724e-04
717 -4.0503825807018060e-04 -9.0523596707547320e-04 -9.5180794342218365e-05
718 4.9547680388334239e-04 -2.0290317097179325e-04 8.4823613790460358e-04
719 7.2673088174141510e-04 -5.6785656853596412e-04 3.8211218321775308e-04
720 8.4327755466078998e-04 5.0842394064826992e-04 1.4963842367636643e-04
721 2.4505410870702106e-04 -1.6771968593012537e-04 -9.5802396692963240e-04
722 -5.7308271482476778e-04 -7.8097606607584365e-04 -2.3469498665238043e-04
723 3.8554278413495814e-05 7.7041620192356736e-05 -9.9913161279866934e-04
724 -1.8264753178766921e-04 7.1110850485624471e-04 6.8194415079138456e-04
725 8.7734182838540011e-04 -4.5990106983846116e-04 -1.0930085478527282e-04
726 5.8578208407019652e-04 2.0023026383701571e-04 7.8815244221666983e-04
727 7.8392894696666798e-04 5.6737796513033924e-04 2.3933692872736686e-04
728 5.4210021654495786e-04 5.8653266156282185e-04 -6.0077110356500894e-04
729 4.7531104001758410e-04 9.6448006266535192e-05 -8.7749208434391099e-04
730 7.0895888621515365e-04 6.1997145353669494e-04 3.2702675898218478e-04
731 -2.4655159088884850e-04 -6.1662179826258324e-04 -7.4901477541277457e-04
732 3.3972157696821498e-04 6.1565297022125735e-04 7.1279634501757118e-04
733 -7.1996541616985493e-05 9.7432627504135067e-04 -1.9096228885232859e-04
734 -2.3547769500386955e-04 -4.7542784846810442e-04 -8.5105789096450877e-04
735 9.5650876091376159e-04 -2.3340777139932973e-04 -1.5487215599872879e-04
736 9.7211877228783395e-04 -2.1587050428584342e-04 2.8881285126293866e-05
737 -2.2300192491456040e-05 -5.5096860029414854e-05 1.0014812288993817e-03
738 -5.0178401035852677e-04 -8.5854459432996560e-04 5.6400949934636108e-05
739 4.8629715929574723e-04 2.0612663407792566e-04 -8.5259024622336295e-04
740 -7.6209763659753163e-04 1.3701826396917010e-04 6.3288289400436541e-04
741 -1.4617044889146769e-04 2.7422229970805195e-05 9.9178393341342401e-04
742 -5.6081561082344205e-04 -7.0013017434466596e-04 4.3737758741848248e-04
743 -1.0794095594569507e-05 4.3907212688652531e-04 -9.0103631438555071e-04
744 2.9732578770705651e-04 -9.3664332381196316e-04 -1.6717979901944793e-04
745 -8.4295384421584048e-05 -6.8121494681524857e-04 -7.2871244823312017e-04
$EndNodes
$Elements
1486
1 2 2 0 0 410 440 345
2 2 2 0 0 421 541 409
3 2 2 0 0 409 682 421
4 2 2 0 0 545 603 546
5 2 2 0 0 426 427 294
6 2 2 0 0 294 454 426
7 2 2 0 0 265 682 409
8 2 2 0 0 24 41 4
9 2 2 0 0 3 24 4
10 2 2 0 0 238 642 602
11 2 2 0 0 520 651 613
12 2 2 0 0 653 666 659
13 2 2 0 0 404 460 98
14 2 2 0 0 222 482 219
15 2 2 0 0 40 463 9
16 2 2 0 0 608 724 696
17 2 2 0 0 435 709 69
18 2 2 0 0 413 439 29
19 2 2 0 0 345 710 410
20 2 2 0 0 422 463 40
21 2 2 0 0 98 550 404
22 2 2 0 0 95 724 608
23 2 2 0 0 4 41 5
24 2 2 0 0 232 701 581
25 2 2 0 0 490 698 488
26 2 2 0 0 29 436 413
27 2 2 0 0 416 421 342
28 2 2 0 0 312 595 441
29 2 2 0 0 41 486 5
30 2 2 0 0 405 605 519
31 2 2 0 0 409 595 265
32 2 2 0 0 69 481 435
33 2 2 0 0 434 743 339
34 2 2 0 0 342 641 416
35 2 2 0 0 485 656 370
36 2 2 0 0 89 587 90
37 2 2 0 0 108 466 317
38 2 2 0 0 378 629 529
39 2 2 0 0 581 680 232
40 2 2 0 0 281 434 339
41 2 2 0 0 638 739 486
42 2 2 0 0 659 666 660
43 2 2 0 0 345 440 346
44 2 2 0 0 22 44 25
45 2 2 0 0 9 463 8
46 2 2 0 0 44 81 25
47 2 2 0 0 459 587 89
48 2 2 0 0 127 670 630
49 2 2 0 0 508 662 509
50 2 2 0 0 375 662 508
51 2 2 0 0 492 598 103
52 2 2 0 0 604 642 238
53 2 2 0 0 507 510 399
54 2 2 0 0 488 698 489
55 2 2 0 0 34 473 415
56 2 2 0 0 399 639 507
57 2 2 0 0 603 688 546
58 2 2 0 0 316 541 421
59 2 2 0 0 647 696 627
60 2 2 0 0 403 439 352
61 2 2 0 0 221 603 545
62 2 2 0 0 595 648 441
63 2 2 0 0 412 550 98
64 2 2 0 0 411 714 397
65 2 2 0 0 486 739 729
66 2 2 0 0 696 724 401
67 2 2 0 0 247 482 222
68 2 2 0 0 397 714 645
69 2 2 0 0 613 651 212
70 2 2 0 0 207 745 425
71 2 2 0 0 98 675 412
72 2 2 0 0 219 482 230
73 2 2 0 0 560 692 432
74 2 2 0 0 432 689 560
75 2 2 0 0 454 575 426
76 2 2 0 0 352 439 413
77 2 2 0 0 415 420 2
78 2 2 0 0 40 464 422
79 2 2 0 0 89 512 459
80 2 2 0 0 425 614 207
81 2 2 0 0 377 600 453
82 2 2 0 0 89 90 88
83 2 2 0 0 80 466 108
84 2 2 0 0 520 717 651
85 2 2 0 0 602 703 238
86 2 2 0 0 103 687 492
87 2 2 0 0 253 491 424
88 2 2 0 0 69 709 466
89 2 2 0 0 424 512 253
90 2 2 0 0 369 696 647
91 2 2 0 0 581 701 644
92 2 2 0 0 630 670 392
93 2 2 0 0 32 656 485
94 2 2 0 0 459 512 424
95 2 2 0 0 90 91 88
96 2 2 0 0 427 478 294
97 2 2 0 0 488 695 490
98 2 2 0 0 554 699 560
99 2 2 0 0 67 80 79
100 2 2 0 0 252 454 294
101 2 2 0 0 253 628 491
102 2 2 0 0 529 681 378
103 2 2 0 0 519 715 405
104 2 2 0 0 440 441 346
105 2 2 0 0 605 717 519
106 2 2 0 0 403 452 439
107 2 2 0 0 507 639 21
108 2 2 0 0 565 567 566
109 2 2 0 0 433 454 341
110 2 2 0 0 67 466 80
111 2 2 0 0 555 697 576
112 2 2 0 0 491 628 493
113 2 2 0 0 389 641 342
114 2 2 0 0 429 619 474
115 2 2 0 0 40 501 464
116 2 2 0 0 576 699 555
117 2 2 0 0 311 600 377
118 2 2 0 0 567 622 566
119 2 2 0 0 433 575 454
120 2 2 0 0 378 671 629
121 2 2 0 0 79 540 103
122 2 2 0 0 341 473 433
123 2 2 0 0 673 704 68
124 2 2 0 0 462 710 345
125 2 2 0 0 557 722 616
126 2 2 0 0 573 662 343
127 2 2 0 0 370 656 463
128 2 2 0 0 341 454 252
129 2 2 0 0 616 702 557
130 2 2 0 0 6 26 7
131 2 2 0 0 464 501 467
132 2 2 0 0 433 473 406
133 2 2 0 0 8 45 37
134 2 2 0 0 466 709 317
135 2 2 0 0 457 461 379
136 2 2 0 0 84 512 86
137 2 2 0 0 19 452 33
138 2 2 0 0 380 614 425
139 2 2 0 0 83 540 79
140 2 2 0 0 398 510 509
141 2 2 0 0 609 631 137
142 2 2 0 0 18 442 36
143 2 2 0 0 26 45 7
144 2 2 0 0 565 566 343
145 2 2 0 0 80 83 79
146 2 2 0 0 560 689 554
147 2 2 0 0 134 137 136
148 2 2 0 0 68 469 42
149 2 2 0 0 659 716 653
150 2 2 0 0 619 707 474
151 2 2 0 0 497 610 39
152 2 2 0 0 137 138 136
153 2 2 0 0 283 573 343
154 2 2 0 0 506 644 448
155 2 2 0 0 499 735 31
156 2 2 0 0 81 97 25
157 2 2 0 0 45 46 37
158 2 2 0 0 585 668 637
159 2 2 0 0 495 735 499
160 2 2 0 0 399 510 398
161 2 2 0 0 509 573 398
162 2 2 0 0 442 443 36
163 2 2 0 0 1 607 314
164 2 2 0 0 29 612 436
165 2 2 0 0 547 631 609
166 2 2 0 0 360 595 409
167 2 2 0 0 421 682 342
168 2 2 0 0 426 575 327
169 2 2 0 0 123 577 235
170 2 2 0 0 339 743 417
171 2 2 0 0 7 45 8
172 2 2 0 0 3 723 24
173 2 2 0 0 418 666 653
174 2 2 0 0 59 60 58
175 2 2 0 0 620 636 193
176 2 2 0 0 42 469 47
177 2 2 0 0 65 67 66
178 2 2 0 0 509 662 573
179 2 2 0 0 470 482 247
180 2 2 0 0 368 476 472
181 2 2 0 0 530 740 337
182 2 2 0 0 253 512 84
183 2 2 0 0 455 698 282
184 2 2 0 0 61 65 62
185 2 2 0 0 59 61 60
186 2 2 0 0 91 472 88
187 2 2 0 0 90 92 91
188 2 2 0 0 19 442 18
189 2 2 0 0 464 465 423
190 2 2 0 0 706 724 118
191 2 2 0 0 456 611 32
192 2 2 0 0 379 477 61
193 2 2 0 0 417 743 704
194 2 2 0 0 314 683 1
195 2 2 0 0 442 458 443
196 2 2 0 0 11 28 12
197 2 2 0 0 61 62 60
198 2 2 0 0 118 724 95
199 2 2 0 0 22 25 23
200 2 2 0 0 247 483 470
201 2 2 0 0 281 640 434
202 2 2 0 0 197 667 474
203 2 2 0 0 86 512 89
204 2 2 0 0 417 704 673
205 2 2 0 0 451 690 230
206 2 2 0 0 27 442 19
207 2 2 0 0 637 668 229
208 2 2 0 0 60 475 58
209 2 2 0 0 489 610 497
210 2 2 0 0 307 573 283
211 2 2 0 0 61 477 65
212 2 2 0 0 65 66 62
213 2 2 0 0 544 740 530
214 2 2 0 0 230 719 451
215 2 2 0 0 18 452 19
216 2 2 0 0 268 569 269
217 2 2 0 0 32 485 456
218 2 2 0 0 627 696 401
219 2 2 0 0 24 42 41
220 2 2 0 0 20 27 19
221 2 2 0 0 330 461 457
222 2 2 0 0 506 672 644
223 2 2 0 0 472 476 87
224 2 2 0 0 468 495 494
225 2 2 0 0 88 472 87
226 2 2 0 0 121 577 123
227 2 2 0 0 327 575 276
228 2 2 0 0 422 464 423
229 2 2 0 0 47 63 49
230 2 2 0 0 458 506 443
231 2 2 0 0 232 690 451
232 2 2 0 0 28 487 12
233 2 2 0 0 80 107 83
234 2 2 0 0 608 696 676
235 2 2 0 0 356 481 355
236 2 2 0 0 138 238 136
237 2 2 0 0 137 139 138
238 2 2 0 0 729 739 26
239 2 2 0 0 81 99 97
240 2 2 0 0 46 50 37
241 2 2 0 0 463 656 8
242 2 2 0 0 443 444 36
243 2 2 0 0 68 704 469
244 2 2 0 0 24 68 42
245 2 2 0 0 16 503 30
246 2 2 0 0 65 69 67
247 2 2 0 0 67 79 66
248 2 2 0 0 676 696 369
249 2 2 0 0 59 379 61
250 2 2 0 0 90 93 92
251 2 2 0 0 464 467 465
252 2 2 0 0 441 708 312
253 2 2 0 0 483 484 471
254 2 2 0 0 427 479 478
255 2 2 0 0 245 564 244
256 2 2 0 0 470 483 471
257 2 2 0 0 473 721 406
258 2 2 0 0 555 699 554
259 2 2 0 0 47 469 63
260 2 2 0 0 63 355 49
261 2 2 0 0 62 64 60
262 2 2 0 0 80 108 107
263 2 2 0 0 107 539 83
264 2 2 0 0 139 140 138
265 2 2 0 0 99 100 97
266 2 2 0 0 81 236 99
267 2 2 0 0 46 51 50
268 2 2 0 0 443 445 444
269 2 2 0 0 24 419 68
270 2 2 0 0 69 466 67
271 2 2 0 0 79 103 66
272 2 2 0 0 65 477 69
273 2 2 0 0 547 548 321
274 2 2 0 0 93 94 92
275 2 2 0 0 467 468 465
276 2 2 0 0 333 664 649
277 2 2 0 0 55 498 56
278 2 2 0 0 56 498 72
279 2 2 0 0 12 499 31
280 2 2 0 0 63 356 355
281 2 2 0 0 108 110 107
282 2 2 0 0 139 141 140
283 2 2 0 0 100 101 97
284 2 2 0 0 236 248 99
285 2 2 0 0 81 594 236
286 2 2 0 0 51 52 50
287 2 2 0 0 192 515 195
288 2 2 0 0 445 446 444
289 2 2 0 0 477 481 69
290 2 2 0 0 94 95 92
291 2 2 0 0 93 96 94
292 2 2 0 0 63 408 356
293 2 2 0 0 108 111 110
294 2 2 0 0 110 117 107
295 2 2 0 0 139 154 141
296 2 2 0 0 141 142 140
297 2 2 0 0 51 53 52
298 2 2 0 0 100 102 101
299 2 2 0 0 236 250 248
300 2 2 0 0 445 447 446
301 2 2 0 0 52 388 50
302 2 2 0 0 277 622 567
303 2 2 0 0 95 608 92
304 2 2 0 0 94 118 95
305 2 2 0 0 93 104 96
306 2 2 0 0 51 561 53
307 2 2 0 0 408 434 356
308 2 2 0 0 53 54 52
309 2 2 0 0 445 448 447
310 2 2 0 0 108 317 111
311 2 2 0 0 141 143 142
312 2 2 0 0 142 225 140
313 2 2 0 0 102 166 101
314 2 2 0 0 250 325 248
315 2 2 0 0 100 258 102
316 2 2 0 0 53 55 54
317 2 2 0 0 447 449 446
318 2 2 0 0 236 505 250
319 2 2 0 0 104 105 96
320 2 2 0 0 53 57 55
321 2 2 0 0 55 56 54
322 2 2 0 0 448 451 447
323 2 2 0 0 14 39 15
324 2 2 0 0 317 511 111
325 2 2 0 0 10 40 9
326 2 2 0 0 143 144 142
327 2 2 0 0 57 58 55
328 2 2 0 0 8 37 9
329 2 2 0 0 14 38 13
330 2 2 0 0 166 314 101
331 2 2 0 0 18 36 17
332 2 2 0 0 16 29 17
333 2 2 0 0 33 504 20
334 2 2 0 0 325 365 248
335 2 2 0 0 199 202 196
336 2 2 0 0 7 32 6
337 2 2 0 0 434 435 356
338 2 2 0 0 74 75 73
339 2 2 0 0 223 239 234
340 2 2 0 0 74 76 75
341 2 2 0 0 72 74 73
342 2 2 0 0 231 549 201
343 2 2 0 0 202 205 204
344 2 2 0 0 226 227 214
345 2 2 0 0 272 275 271
346 2 2 0 0 276 318 275
347 2 2 0 0 213 214 209
348 2 2 0 0 76 77 75
349 2 2 0 0 210 231 201
350 2 2 0 0 16 30 15
351 2 2 0 0 205 209 208
352 2 2 0 0 202 204 196
353 2 2 0 0 318 406 340
354 2 2 0 0 195 196 193
355 2 2 0 0 322 420 415
356 2 2 0 0 239 240 234
357 2 2 0 0 163 588 168
358 2 2 0 0 12 31 11
359 2 2 0 0 56 72 71
360 2 2 0 0 425 426 327
361 2 2 0 0 19 33 20
362 2 2 0 0 168 224 215
363 2 2 0 0 209 568 216
364 2 2 0 0 318 433 406
365 2 2 0 0 269 271 270
366 2 2 0 0 268 269 245
367 2 2 0 0 21 639 20
368 2 2 0 0 84 85 82
369 2 2 0 0 181 207 183
370 2 2 0 0 269 272 271
371 2 2 0 0 272 276 275
372 2 2 0 0 242 243 240
373 2 2 0 0 102 167 166
374 2 2 0 0 223 234 233
375 2 2 0 0 283 343 227
376 2 2 0 0 205 208 204
377 2 2 0 0 213 226 214
378 2 2 0 0 271 572 347
379 2 2 0 0 243 268 245
380 2 2 0 0 335 398 307
381 2 2 0 0 303 555 554
382 2 2 0 0 226 283 227
383 2 2 0 0 347 485 370
384 2 2 0 0 195 199 196
385 2 2 0 0 205 213 209
386 2 2 0 0 246 322 252
387 2 2 0 0 76 78 77
388 2 2 0 0 133 163 135
389 2 2 0 0 163 168 164
390 2 2 0 0 322 415 341
391 2 2 0 0 227 361 214
392 2 2 0 0 191 198 189
393 2 2 0 0 78 84 82
394 2 2 0 0 209 216 208
395 2 2 0 0 78 82 77
396 2 2 0 0 216 303 266
397 2 2 0 0 417 418 362
398 2 2 0 0 314 607 101
399 2 2 0 0 339 362 280
400 2 2 0 0 243 245 244
401 2 2 0 0 187 291 185
402 2 2 0 0 429 430 359
403 2 2 0 0 143 145 144
404 2 2 0 0 202 553 205
405 2 2 0 0 339 417 362
406 2 2 0 0 131 580 133
407 2 2 0 0 239 242 240
408 2 2 0 0 57 59 58
409 2 2 0 0 224 246 215
410 2 2 0 0 84 86 85
411 2 2 0 0 303 554 266
412 2 2 0 0 72 73 71
413 2 2 0 0 437 438 414
414 2 2 0 0 318 340 275
415 2 2 0 0 269 270 245
416 2 2 0 0 86 87 85
417 2 2 0 0 192 193 191
418 2 2 0 0 123 235 129
419 2 2 0 0 263 374 262
420 2 2 0 0 425 427 426
421 2 2 0 0 149 150 147
422 2 2 0 0 210 232 231
423 2 2 0 0 74 373 76
424 2 2 0 0 168 215 169
425 2 2 0 0 259 262 249
426 2 2 0 0 145 146 144
427 2 2 0 0 367 524 289
428 2 2 0 0 271 347 270
429 2 2 0 0 406 407 340
430 2 2 0 0 334 459 424
431 2 2 0 0 429 474 430
432 2 2 0 0 250 328 325
433 2 2 0 0 431 432 367
434 2 2 0 0 104 278 105
435 2 2 0 0 145 147 146
436 2 2 0 0 151 152 150
437 2 2 0 0 235 583 129
438 2 2 0 0 237 249 228
439 2 2 0 0 149 151 150
440 2 2 0 0 159 161 158
441 2 2 0 0 153 155 152
442 2 2 0 0 156 158 155
443 2 2 0 0 354 367 289
444 2 2 0 0 259 263 262
445 2 2 0 0 190 191 189
446 2 2 0 0 177 221 174
447 2 2 0 0 162 228 161
448 2 2 0 0 124 516 386
449 2 2 0 0 418 653 578
450 2 2 0 0 371 584 295
451 2 2 0 0 151 153 152
452 2 2 0 0 153 156 155
453 2 2 0 0 159 162 161
454 2 2 0 0 374 593 262
455 2 2 0 0 156 159 158
456 2 2 0 0 237 259 249
457 2 2 0 0 146 284 160
458 2 2 0 0 266 309 267
459 2 2 0 0 264 265 257
460 2 2 0 0 86 88 87
461 2 2 0 0 265 312 257
462 2 2 0 0 162 237 228
463 2 2 0 0 21 44 22
464 2 2 0 0 324 392 390
465 2 2 0 0 371 585 584
466 2 2 0 0 262 366 249
467 2 2 0 0 192 195 193
468 2 2 0 0 263 375 374
469 2 2 0 0 216 266 217
470 2 2 0 0 326 327 276
471 2 2 0 0 260 646 166
472 2 2 0 0 220 223 222
473 2 2 0 0 322 341 252
474 2 2 0 0 256 257 255
475 2 2 0 0 78 253 84
476 2 2 0 0 358 359 242
477 2 2 0 0 188 189 187
478 2 2 0 0 281 339 280
479 2 2 0 0 146 160 144
480 2 2 0 0 123 129 128
481 2 2 0 0 255 324 254
482 2 2 0 0 228 229 161
483 2 2 0 0 354 431 367
484 2 2 0 0 163 164 135
485 2 2 0 0 155 157 152
486 2 2 0 0 243 244 240
487 2 2 0 0 256 264 257
488 2 2 0 0 284 316 160
489 2 2 0 0 380 425 327
490 2 2 0 0 148 149 147
491 2 2 0 0 335 399 398
492 2 2 0 0 418 578 362
493 2 2 0 0 334 424 396
494 2 2 0 0 167 260 166
495 2 2 0 0 325 368 365
496 2 2 0 0 428 429 359
497 2 2 0 0 165 255 254
498 2 2 0 0 297 342 264
499 2 2 0 0 298 371 295
500 2 2 0 0 218 323 220
501 2 2 0 0 310 337 302
502 2 2 0 0 165 256 255
503 2 2 0 0 186 187 185
504 2 2 0 0 56 71 70
505 2 2 0 0 165 254 125
506 2 2 0 0 200 201 199
507 2 2 0 0 148 206 149
508 2 2 0 0 324 390 364
509 2 2 0 0 190 192 191
510 2 2 0 0 368 369 365
511 2 2 0 0 353 404 351
512 2 2 0 0 104 331 278
513 2 2 0 0 256 297 264
514 2 2 0 0 316 421 416
515 2 2 0 0 239 358 242
516 2 2 0 0 169 586 171
517 2 2 0 0 286 287 206
518 2 2 0 0 324 364 254
519 2 2 0 0 241 576 162
520 2 2 0 0 168 169 164
521 2 2 0 0 121 123 122
522 2 2 0 0 266 267 217
523 2 2 0 0 129 131 130
524 2 2 0 0 216 217 208
525 2 2 0 0 285 382 313
526 2 2 0 0 172 321 170
527 2 2 0 0 390 391 364
528 2 2 0 0 296 563 300
529 2 2 0 0 246 252 251
530 2 2 0 0 285 286 206
531 2 2 0 0 288 289 287
532 2 2 0 0 298 372 371
533 2 2 0 0 23 35 22
534 2 2 0 0 300 344 304
535 2 2 0 0 344 462 345
536 2 2 0 0 123 128 122
537 2 2 0 0 297 389 342
538 2 2 0 0 237 277 259
539 2 2 0 0 148 285 206
540 2 2 0 0 86 89 88
541 2 2 0 0 306 307 283
542 2 2 0 0 234 279 233
543 2 2 0 0 316 416 160
544 2 2 0 0 188 190 189
545 2 2 0 0 85 98 82
546 2 2 0 0 358 428 359
547 2 2 0 0 437 455 438
548 2 2 0 0 203 210 201
549 2 2 0 0 382 383 313
550 2 2 0 0 153 176 156
551 2 2 0 0 290 354 289
552 2 2 0 0 159 241 162
553 2 2 0 0 386 387 126
554 2 2 0 0 273 363 338
555 2 2 0 0 272 326 276
556 2 2 0 0 171 293 173
557 2 2 0 0 145 148 147
558 2 2 0 0 274 295 261
559 2 2 0 0 285 313 286
560 2 2 0 0 383 384 313
561 2 2 0 0 301 302 299
562 2 2 0 0 131 133 132
563 2 2 0 0 296 298 295
564 2 2 0 0 305 310 302
565 2 2 0 0 349 412 328
566 2 2 0 0 344 345 304
567 2 2 0 0 77 119 75
568 2 2 0 0 315 378 310
569 2 2 0 0 363 401 400
570 2 2 0 0 332 333 278
571 2 2 0 0 223 233 222
572 2 2 0 0 331 334 332
573 2 2 0 0 186 188 187
574 2 2 0 0 178 212 177
575 2 2 0 0 305 360 315
576 2 2 0 0 334 396 395
577 2 2 0 0 246 251 215
578 2 2 0 0 167 261 260
579 2 2 0 0 175 179 178
580 2 2 0 0 345 346 304
581 2 2 0 0 124 386 126
582 2 2 0 0 286 288 287
583 2 2 0 0 331 332 278
584 2 2 0 0 179 181 180
585 2 2 0 0 301 305 302
586 2 2 0 0 300 304 301
587 2 2 0 0 296 300 299
588 2 2 0 0 305 315 310
589 2 2 0 0 296 299 298
590 2 2 0 0 320 453 290
591 2 2 0 0 274 296 295
592 2 2 0 0 313 531 286
593 2 2 0 0 120 281 280
594 2 2 0 0 360 409 315
595 2 2 0 0 363 400 338
596 2 2 0 0 129 130 128
597 2 2 0 0 300 301 299
598 2 2 0 0 1 508 23
599 2 2 0 0 167 273 261
600 2 2 0 0 133 135 134
601 2 2 0 0 173 174 172
602 2 2 0 0 311 377 376
603 2 2 0 0 273 274 261
604 2 2 0 0 273 338 274
605 2 2 0 0 334 395 332
606 2 2 0 0 183 197 184
607 2 2 0 0 319 393 320
608 2 2 0 0 449 450 446
609 2 2 0 0 288 290 289
610 2 2 0 0 226 306 283
611 2 2 0 0 326 380 327
612 2 2 0 0 175 177 174
613 2 2 0 0 181 183 182
614 2 2 0 0 219 230 211
615 2 2 0 0 308 335 307
616 2 2 0 0 267 311 292
617 2 2 0 0 169 170 164
618 2 2 0 0 288 319 290
619 2 2 0 0 126 165 125
620 2 2 0 0 120 280 121
621 2 2 0 0 130 357 128
622 2 2 0 0 195 200 199
623 2 2 0 0 169 171 170
624 2 2 0 0 171 172 170
625 2 2 0 0 184 186 185
626 2 2 0 0 73 282 71
627 2 2 0 0 252 294 251
628 2 2 0 0 319 320 290
629 2 2 0 0 131 132 130
630 2 2 0 0 393 394 320
631 2 2 0 0 171 173 172
632 2 2 0 0 4 34 3
633 2 2 0 0 218 220 219
634 2 2 0 0 267 292 217
635 2 2 0 0 184 185 182
636 2 2 0 0 188 194 190
637 2 2 0 0 56 70 54
638 2 2 0 0 377 405 376
639 2 2 0 0 449 470 450
640 2 2 0 0 179 180 178
641 2 2 0 0 173 175 174
642 2 2 0 0 175 178 177
643 2 2 0 0 250 329 328
644 2 2 0 0 311 376 292
645 2 2 0 0 329 571 350
646 2 2 0 0 347 370 348
647 2 2 0 0 220 222 219
648 2 2 0 0 376 385 292
649 2 2 0 0 133 134 132
650 2 2 0 0 134 136 132
651 2 2 0 0 306 308 307
652 2 2 0 0 200 203 201
653 2 2 0 0 233 247 222
654 2 2 0 0 98 460 82
655 2 2 0 0 329 349 328
656 2 2 0 0 326 381 380
657 2 2 0 0 347 348 270
658 2 2 0 0 181 182 180
659 2 2 0 0 121 122 115
660 2 2 0 0 350 351 349
661 2 2 0 0 308 336 335
662 2 2 0 0 350 403 352
663 2 2 0 0 470 471 450
664 2 2 0 0 203 211 210
665 2 2 0 0 218 219 211
666 2 2 0 0 183 184 182
667 2 2 0 0 370 463 422
668 2 2 0 0 306 402 308
669 2 2 0 0 203 218 211
670 2 2 0 0 71 490 70
671 2 2 0 0 329 350 349
672 2 2 0 0 436 437 414
673 2 2 0 0 124 126 125
674 2 2 0 0 413 414 353
675 2 2 0 0 422 423 348
676 2 2 0 0 352 353 351
677 2 2 0 0 370 422 348
678 2 2 0 0 350 352 351
679 2 2 0 0 413 436 414
680 2 2 0 0 352 413 353
681 2 2 0 0 120 121 115
682 2 2 0 0 110 480 117
683 2 2 0 0 124 125 116
684 2 2 0 0 126 521 165
685 2 2 0 0 113 120 115
686 2 2 0 0 127 440 410
687 2 2 0 0 114 124 116
688 2 2 0 0 543 544 530
689 2 2 0 0 488 489 487
690 2 2 0 0 585 637 366
691 2 2 0 0 543 570 544
692 2 2 0 0 113 115 114
693 2 2 0 0 127 410 106
694 2 2 0 0 114 116 112
695 2 2 0 0 195 515 200
696 2 2 0 0 491 493 492
697 2 2 0 0 12 487 13
698 2 2 0 0 546 547 321
699 2 2 0 0 330 457 411
700 2 2 0 0 157 543 530
701 2 2 0 0 519 520 291
702 2 2 0 0 28 488 487
703 2 2 0 0 111 112 110
704 2 2 0 0 312 534 257
705 2 2 0 0 476 732 412
706 2 2 0 0 27 458 442
707 2 2 0 0 385 636 620
708 2 2 0 0 176 559 156
709 2 2 0 0 593 634 366
710 2 2 0 0 589 590 224
711 2 2 0 0 113 114 112
712 2 2 0 0 109 127 106
713 2 2 0 0 270 564 245
714 2 2 0 0 443 506 445
715 2 2 0 0 491 492 396
716 2 2 0 0 388 624 502
717 2 2 0 0 445 506 448
718 2 2 0 0 30 500 15
719 2 2 0 0 20 504 21
720 2 2 0 0 64 475 60
721 2 2 0 0 287 542 206
722 2 2 0 0 23 508 35
723 2 2 0 0 302 558 299
724 2 2 0 0 70 551 54
725 2 2 0 0 62 598 64
726 2 2 0 0 424 491 396
727 2 2 0 0 407 456 340
728 2 2 0 0 545 546 321
729 2 2 0 0 330 411 397
730 2 2 0 0 72 536 74
731 2 2 0 0 238 574 136
732 2 2 0 0 659 660 420
733 2 2 0 0 395 538 332
734 2 2 0 0 143 527 145
735 2 2 0 0 412 675 476
736 2 2 0 0 239 513 358
737 2 2 0 0 157 530 529
738 2 2 0 0 518 519 291
739 2 2 0 0 449 482 470
740 2 2 0 0 207 713 479
741 2 2 0 0 119 523 75
742 2 2 0 0 109 670 127
743 2 2 0 0 10 501 40
744 2 2 0 0 508 509 35
745 2 2 0 0 96 606 94
746 2 2 0 0 331 459 334
747 2 2 0 0 286 531 288
748 2 2 0 0 290 453 354
749 2 2 0 0 282 490 71
750 2 2 0 0 384 531 313
751 2 2 0 0 289 524 287
752 2 2 0 0 349 550 412
753 2 2 0 0 165 521 256
754 2 2 0 0 82 460 77
755 2 2 0 0 155 543 157
756 2 2 0 0 201 549 199
757 2 2 0 0 273 591 363
758 2 2 0 0 387 521 126
759 2 2 0 0 114 516 124
760 2 2 0 0 53 561 57
761 2 2 0 0 266 554 309
762 2 2 0 0 257 534 255
763 2 2 0 0 205 553 213
764 2 2 0 0 142 522 225
765 2 2 0 0 435 481 356
766 2 2 0 0 216 568 303
767 2 2 0 0 300 563 344
768 2 2 0 0 214 568 209
769 2 2 0 0 112 480 110
770 2 2 0 0 350 571 403
771 2 2 0 0 347 572 485
772 2 2 0 0 275 572 271
773 2 2 0 0 274 563 296
774 2 2 0 0 171 586 293
775 2 2 0 0 162 576 237
776 2 2 0 0 133 580 163
777 2 2 0 0 11 501 10
778 2 2 0 0 295 584 261
779 2 2 0 0 129 583 131
780 2 2 0 0 215 586 169
781 2 2 0 0 250 505 329
782 2 2 0 0 168 588 224
783 2 2 0 0 321 548 170
784 2 2 0 0 262 593 366
785 2 2 0 0 166 646 314
786 2 2 0 0 520 535 291
787 2 2 0 0 373 663 493
788 2 2 0 0 291 535 185
789 2 2 0 0 101 607 97
790 2 2 0 0 130 574 357
791 2 2 0 0 158 570 543
792 2 2 0 0 31 501 11
793 2 2 0 0 444 552 503
794 2 2 0 0 156 559 159
795 2 2 0 0 236 594 505
796 2 2 0 0 206 542 149
797 2 2 0 0 54 551 52
798 2 2 0 0 74 536 373
799 2 2 0 0 337 558 302
800 2 2 0 0 150 532 147
801 2 2 0 0 379 728 457
802 2 2 0 0 299 558 298
803 2 2 0 0 332 538 333
804 2 2 0 0 145 527 148
805 2 2 0 0 514 515 192
806 2 2 0 0 15 500 14
807 2 2 0 0 75 523 73
808 2 2 0 0 467 501 31
809 2 2 0 0 254 592 125
810 2 2 0 0 172 545 321
811 2 2 0 0 144 522 142
812 2 2 0 0 528 532 150
813 2 2 0 0 187 518 291
814 2 2 0 0 553 599 213
815 2 2 0 0 383 603 384
816 2 2 0 0 282 698 490
817 2 2 0 0 244 517 240
818 2 2 0 0 353 525 404
819 2 2 0 0 395 540 538
820 2 2 0 0 94 606 118
821 2 2 0 0 117 539 107
822 2 2 0 0 185 535 182
823 2 2 0 0 388 502 50
824 2 2 0 0 167 591 273
825 2 2 0 0 147 532 146
826 2 2 0 0 92 608 91
827 2 2 0 0 472 676 368
828 2 2 0 0 364 592 254
829 2 2 0 0 21 504 44
830 2 2 0 0 365 597 248
831 2 2 0 0 125 592 116
832 2 2 0 0 588 589 224
833 2 2 0 0 111 113 112
834 2 2 0 0 63 469 408
835 2 2 0 0 105 109 106
836 2 2 0 0 242 526 243
837 2 2 0 0 439 712 29
838 2 2 0 0 240 517 234
839 2 2 0 0 346 533 304
840 2 2 0 0 14 500 38
841 2 2 0 0 494 495 484
842 2 2 0 0 127 630 440
843 2 2 0 0 208 537 204
844 2 2 0 0 175 562 179
845 2 2 0 0 303 626 555
846 2 2 0 0 359 526 242
847 2 2 0 0 243 526 268
848 2 2 0 0 217 537 208
849 2 2 0 0 58 498 55
850 2 2 0 0 503 552 30
851 2 2 0 0 13 499 12
852 2 2 0 0 268 621 569
853 2 2 0 0 489 497 487
854 2 2 0 0 475 498 58
855 2 2 0 0 430 526 359
856 2 2 0 0 248 597 99
857 2 2 0 0 292 537 217
858 2 2 0 0 26 645 45
859 2 2 0 0 234 517 279
860 2 2 0 0 14 497 39
861 2 2 0 0 385 537 292
862 2 2 0 0 305 533 360
863 2 2 0 0 304 533 301
864 2 2 0 0 146 532 284
865 2 2 0 0 483 494 484
866 2 2 0 0 173 562 175
867 2 2 0 0 116 480 112
868 2 2 0 0 224 590 246
869 2 2 0 0 189 518 187
870 2 2 0 0 498 536 72
871 2 2 0 0 414 525 353
872 2 2 0 0 160 522 144
873 2 2 0 0 547 609 548
874 2 2 0 0 182 535 180
875 2 2 0 0 297 601 389
876 2 2 0 0 44 594 81
877 2 2 0 0 301 533 305
878 2 2 0 0 105 106 96
879 2 2 0 0 515 596 200
880 2 2 0 0 293 562 173
881 2 2 0 0 73 523 282
882 2 2 0 0 148 527 285
883 2 2 0 0 174 545 172
884 2 2 0 0 218 596 323
885 2 2 0 0 200 596 203
886 2 2 0 0 149 542 151
887 2 2 0 0 446 552 444
888 2 2 0 0 49 461 330
889 2 2 0 0 330 397 48
890 2 2 0 0 453 738 377
891 2 2 0 0 255 534 324
892 2 2 0 0 52 551 388
893 2 2 0 0 634 646 260
894 2 2 0 0 513 615 358
895 2 2 0 0 438 525 414
896 2 2 0 0 516 618 386
897 2 2 0 0 198 518 189
898 2 2 0 0 227 566 361
899 2 2 0 0 559 560 241
900 2 2 0 0 90 587 93
901 2 2 0 0 416 522 160
902 2 2 0 0 102 591 167
903 2 2 0 0 134 609 137
904 2 2 0 0 298 558 372
905 2 2 0 0 132 574 130
906 2 2 0 0 106 606 96
907 2 2 0 0 159 559 241
908 2 2 0 0 32 611 6
909 2 2 0 0 158 543 155
910 2 2 0 0 223 513 239
911 2 2 0 0 288 531 319
912 2 2 0 0 323 513 220
913 2 2 0 0 115 516 114
914 2 2 0 0 521 601 297
915 2 2 0 0 610 698 455
916 2 2 0 0 354 600 431
917 2 2 0 0 351 550 349
918 2 2 0 0 256 521 297
919 2 2 0 0 140 604 138
920 2 2 0 0 77 460 119
921 2 2 0 0 17 503 16
922 2 2 0 0 9 502 10
923 2 2 0 0 104 587 331
924 2 2 0 0 152 528 150
925 2 2 0 0 315 541 378
926 2 2 0 0 170 548 164
927 2 2 0 0 590 659 420
928 2 2 0 0 11 624 28
929 2 2 0 0 199 549 202
930 2 2 0 0 502 624 10
931 2 2 0 0 453 600 354
932 2 2 0 0 42 43 41
933 2 2 0 0 38 499 13
934 2 2 0 0 285 527 382
935 2 2 0 0 190 514 192
936 2 2 0 0 157 529 528
937 2 2 0 0 231 643 549
938 2 2 0 0 331 587 459
939 2 2 0 0 451 701 232
940 2 2 0 0 99 597 100
941 2 2 0 0 361 568 214
942 2 2 0 0 372 740 544
943 2 2 0 0 221 545 174
944 2 2 0 0 138 604 238
945 2 2 0 0 340 572 275
946 2 2 0 0 338 563 274
947 2 2 0 0 524 542 287
948 2 2 0 0 265 595 312
949 2 2 0 0 111 511 113
950 2 2 0 0 580 658 588
951 2 2 0 0 580 588 163
952 2 2 0 0 237 576 277
953 2 2 0 0 444 503 36
954 2 2 0 0 131 583 580
955 2 2 0 0 505 571 329
956 2 2 0 0 203 596 218
957 2 2 0 0 584 634 260
958 2 2 0 0 261 584 260
959 2 2 0 0 369 647 365
960 2 2 0 0 251 586 215
961 2 2 0 0 348 564 270
962 2 2 0 0 450 552 446
963 2 2 0 0 390 496 391
964 2 2 0 0 66 598 62
965 2 2 0 0 465 623 423
966 2 2 0 0 258 591 102
967 2 2 0 0 343 566 227
968 2 2 0 0 564 623 244
969 2 2 0 0 154 617 141
970 2 2 0 0 324 534 392
971 2 2 0 0 50 502 37
972 2 2 0 0 524 556 542
973 2 2 0 0 544 700 372
974 2 2 0 0 122 516 115
975 2 2 0 0 177 557 221
976 2 2 0 0 489 698 610
977 2 2 0 0 93 587 104
978 2 2 0 0 136 574 132
979 2 2 0 0 593 646 634
980 2 2 0 0 116 592 480
981 2 2 0 0 143 617 527
982 2 2 0 0 225 604 140
983 2 2 0 0 137 631 139
984 2 2 0 0 549 553 202
985 2 2 0 0 164 548 135
986 2 2 0 0 404 550 351
987 2 2 0 0 34 721 473
988 2 2 0 0 220 513 223
989 2 2 0 0 317 640 511
990 2 2 0 0 100 597 258
991 2 2 0 0 588 658 589
992 2 2 0 0 323 615 513
993 2 2 0 0 568 626 303
994 2 2 0 0 377 605 405
995 2 2 0 0 178 613 212
996 2 2 0 0 493 628 373
997 2 2 0 0 157 528 152
998 2 2 0 0 591 627 363
999 2 2 0 0 409 541 315
1000 2 2 0 0 183 614 197
1001 2 2 0 0 103 598 66
1002 2 2 0 0 188 619 194
1003 2 2 0 0 213 599 226
1004 2 2 0 0 306 599 402
1005 2 2 0 0 97 607 25
1006 2 2 0 0 194 514 190
1007 2 2 0 0 373 628 76
1008 2 2 0 0 78 628 253
1009 2 2 0 0 42 47 43
1010 2 2 0 0 39 612 15
1011 2 2 0 0 16 612 29
1012 2 2 0 0 437 610 455
1013 2 2 0 0 487 497 13
1014 2 2 0 0 440 630 441
1015 2 2 0 0 479 713 562
1016 2 2 0 0 196 620 193
1017 2 2 0 0 456 572 340
1018 2 2 0 0 120 511 281
1019 2 2 0 0 577 578 235
1020 2 2 0 0 335 582 399
1021 2 2 0 0 314 741 683
1022 2 2 0 0 520 613 535
1023 2 2 0 0 585 634 584
1024 2 2 0 0 423 564 348
1025 2 2 0 0 457 561 411
1026 2 2 0 0 6 611 5
1027 2 2 0 0 385 620 537
1028 2 2 0 0 228 637 229
1029 2 2 0 0 366 637 249
1030 2 2 0 0 161 570 158
1031 2 2 0 0 434 640 435
1032 2 2 0 0 193 636 191
1033 2 2 0 0 410 606 106
1034 2 2 0 0 37 502 9
1035 2 2 0 0 36 503 17
1036 2 2 0 0 141 617 143
1037 2 2 0 0 363 627 401
1038 2 2 0 0 322 590 420
1039 2 2 0 0 357 618 128
1040 2 2 0 0 430 621 526
1041 2 2 0 0 540 687 103
1042 2 2 0 0 280 577 121
1043 2 2 0 0 276 575 318
1044 2 2 0 0 362 578 577
1045 2 2 0 0 109 649 496
1046 2 2 0 0 246 590 322
1047 2 2 0 0 326 569 381
1048 2 2 0 0 569 621 381
1049 2 2 0 0 269 569 272
1050 2 2 0 0 139 631 154
1051 2 2 0 0 649 664 496
1052 2 2 0 0 537 620 204
1053 2 2 0 0 355 461 49
1054 2 2 0 0 663 685 493
1055 2 2 0 0 479 745 207
1056 2 2 0 0 343 662 565
1057 2 2 0 0 212 557 177
1058 2 2 0 0 45 645 46
1059 2 2 0 0 496 670 109
1060 2 2 0 0 366 634 585
1061 2 2 0 0 384 616 531
1062 2 2 0 0 535 613 180
1063 2 2 0 0 391 632 364
1064 2 2 0 0 308 581 336
1065 2 2 0 0 344 625 462
1066 2 2 0 0 563 625 344
1067 2 2 0 0 13 497 14
1068 2 2 0 0 480 632 117
1069 2 2 0 0 371 668 585
1070 2 2 0 0 333 649 278
1071 2 2 0 0 387 601 521
1072 2 2 0 0 47 49 48
1073 2 2 0 0 358 615 428
1074 2 2 0 0 113 511 120
1075 2 2 0 0 527 617 382
1076 2 2 0 0 105 649 109
1077 2 2 0 0 398 573 307
1078 2 2 0 0 368 676 369
1079 2 2 0 0 180 613 178
1080 2 2 0 0 153 556 176
1081 2 2 0 0 432 657 367
1082 2 2 0 0 458 718 582
1083 2 2 0 0 207 614 183
1084 2 2 0 0 407 611 456
1085 2 2 0 0 244 623 517
1086 2 2 0 0 20 639 27
1087 2 2 0 0 476 675 87
1088 2 2 0 0 319 616 393
1089 2 2 0 0 474 707 197
1090 2 2 0 0 226 599 306
1091 2 2 0 0 47 48 43
1092 2 2 0 0 186 619 188
1093 2 2 0 0 412 732 328
1094 2 2 0 0 316 671 541
1095 2 2 0 0 293 734 478
1096 2 2 0 0 492 685 598
1097 2 2 0 0 528 629 532
1098 2 2 0 0 514 635 515
1099 2 2 0 0 531 616 319
1100 2 2 0 0 8 656 7
1101 2 2 0 0 387 602 601
1102 2 2 0 0 76 628 78
1103 2 2 0 0 122 618 516
1104 2 2 0 0 651 717 394
1105 2 2 0 0 423 623 564
1106 2 2 0 0 546 669 547
1107 2 2 0 0 4 679 34
1108 2 2 0 0 542 556 151
1109 2 2 0 0 548 609 135
1110 2 2 0 0 204 620 196
1111 2 2 0 0 529 629 528
1112 2 2 0 0 482 719 230
1113 2 2 0 0 258 627 591
1114 2 2 0 0 336 582 335
1115 2 2 0 0 197 686 667
1116 2 2 0 0 583 658 580
1117 2 2 0 0 85 675 98
1118 2 2 0 0 59 728 379
1119 2 2 0 0 400 625 338
1120 2 2 0 0 394 717 605
1121 2 2 0 0 471 650 450
1122 2 2 0 0 596 635 323
1123 2 2 0 0 249 637 228
1124 2 2 0 0 515 635 596
1125 2 2 0 0 338 625 563
1126 2 2 0 0 28 633 488
1127 2 2 0 0 566 622 361
1128 2 2 0 0 229 570 161
1129 2 2 0 0 468 654 465
1130 2 2 0 0 118 710 462
1131 2 2 0 0 15 612 16
1132 2 2 0 0 589 659 590
1133 2 2 0 0 526 621 268
1134 2 2 0 0 365 647 597
1135 2 2 0 0 579 583 235
1136 2 2 0 0 22 507 21
1137 2 2 0 0 342 682 264
1138 2 2 0 0 441 648 346
1139 2 2 0 0 191 636 198
1140 2 2 0 0 578 653 579
1141 2 2 0 0 135 609 134
1142 2 2 0 0 128 618 122
1143 2 2 0 0 378 681 310
1144 2 2 0 0 230 690 211
1145 2 2 0 0 210 690 232
1146 2 2 0 0 549 643 553
1147 2 2 0 0 233 661 247
1148 2 2 0 0 10 624 11
1149 2 2 0 0 640 709 435
1150 2 2 0 0 449 719 482
1151 2 2 0 0 452 726 33
1152 2 2 0 0 362 577 280
1153 2 2 0 0 318 575 433
1154 2 2 0 0 492 687 396
1155 2 2 0 0 586 734 293
1156 2 2 0 0 357 655 618
1157 2 2 0 0 277 567 259
1158 2 2 0 0 522 641 225
1159 2 2 0 0 511 640 281
1160 2 2 0 0 247 661 483
1161 2 2 0 0 610 693 39
1162 2 2 0 0 272 569 326
1163 2 2 0 0 490 695 70
1164 2 2 0 0 553 643 599
1165 2 2 0 0 532 629 284
1166 2 2 0 0 29 712 17
1167 2 2 0 0 632 665 117
1168 2 2 0 0 618 655 386
1169 2 2 0 0 241 699 576
1170 2 2 0 0 457 728 561
1171 2 2 0 0 485 572 456
1172 2 2 0 0 430 667 621
1173 2 2 0 0 582 672 458
1174 2 2 0 0 395 687 540
1175 2 2 0 0 504 594 44
1176 2 2 0 0 181 713 207
1177 2 2 0 0 197 707 184
1178 2 2 0 0 524 657 556
1179 2 2 0 0 475 536 498
1180 2 2 0 0 394 738 320
1181 2 2 0 0 51 714 561
1182 2 2 0 0 151 556 153
1183 2 2 0 0 437 693 610
1184 2 2 0 0 361 626 568
1185 2 2 0 0 611 679 5
1186 2 2 0 0 231 680 643
1187 2 2 0 0 462 706 118
1188 2 2 0 0 390 670 496
1189 2 2 0 0 602 642 601
1190 2 2 0 0 49 330 48
1191 2 2 0 0 391 665 632
1192 2 2 0 0 508 737 375
1193 2 2 0 0 450 650 552
1194 2 2 0 0 368 732 476
1195 2 2 0 0 578 579 235
1196 2 2 0 0 402 581 308
1197 2 2 0 0 43 486 41
1198 2 2 0 0 562 713 179
1199 2 2 0 0 592 632 480
1200 2 2 0 0 416 641 522
1201 2 2 0 0 372 668 371
1202 2 2 0 0 452 712 439
1203 2 2 0 0 282 720 455
1204 2 2 0 0 556 657 176
1205 2 2 0 0 364 632 592
1206 2 2 0 0 403 726 452
1207 2 2 0 0 465 654 623
1208 2 2 0 0 278 649 105
1209 2 2 0 0 154 652 617
1210 2 2 0 0 383 688 603
1211 2 2 0 0 451 719 447
1212 2 2 0 0 317 709 640
1213 2 2 0 0 604 711 642
1214 2 2 0 0 382 652 383
1215 2 2 0 0 601 642 389
1216 2 2 0 0 284 671 316
1217 2 2 0 0 599 643 402
1218 2 2 0 0 388 633 624
1219 2 2 0 0 267 678 311
1220 2 2 0 0 337 681 530
1221 2 2 0 0 279 661 233
1222 2 2 0 0 605 738 394
1223 2 2 0 0 33 677 504
1224 2 2 0 0 386 655 387
1225 2 2 0 0 547 669 631
1226 2 2 0 0 562 731 479
1227 2 2 0 0 360 648 595
1228 2 2 0 0 432 692 657
1229 2 2 0 0 367 657 524
1230 2 2 0 0 633 695 488
1231 2 2 0 0 415 473 341
1232 2 2 0 0 644 672 336
1233 2 2 0 0 551 633 388
1234 2 2 0 0 533 648 360
1235 2 2 0 0 407 679 611
1236 2 2 0 0 323 635 615
1237 2 2 0 0 530 681 529
1238 2 2 0 0 393 651 394
1239 2 2 0 0 387 655 602
1240 2 2 0 0 238 703 574
1241 2 2 0 0 594 677 505
1242 2 2 0 0 559 692 560
1243 2 2 0 0 621 667 381
1244 2 2 0 0 405 674 376
1245 2 2 0 0 325 732 368
1246 2 2 0 0 623 654 517
1247 2 2 0 0 581 644 336
1248 2 2 0 0 346 648 533
1249 2 2 0 0 517 654 279
1250 2 2 0 0 477 705 481
1251 2 2 0 0 481 705 355
1252 2 2 0 0 561 728 57
1253 2 2 0 0 379 705 477
1254 2 2 0 0 617 652 382
1255 2 2 0 0 30 650 500
1256 2 2 0 0 376 674 385
1257 2 2 0 0 518 715 519
1258 2 2 0 0 474 667 430
1259 2 2 0 0 478 734 294
1260 2 2 0 0 624 633 28
1261 2 2 0 0 186 707 619
1262 2 2 0 0 64 663 475
1263 2 2 0 0 597 647 258
1264 2 2 0 0 377 738 605
1265 2 2 0 0 31 735 467
1266 2 2 0 0 27 718 458
1267 2 2 0 0 419 673 68
1268 2 2 0 0 616 722 393
1269 2 2 0 0 24 723 419
1270 2 2 0 0 397 638 48
1271 2 2 0 0 404 730 460
1272 2 2 0 0 91 676 472
1273 2 2 0 0 622 626 361
1274 2 2 0 0 7 656 32
1275 2 2 0 0 576 697 277
1276 2 2 0 0 471 691 650
1277 2 2 0 0 536 663 373
1278 2 2 0 0 484 691 471
1279 2 2 0 0 552 650 30
1280 2 2 0 0 311 678 600
1281 2 2 0 0 486 729 5
1282 2 2 0 0 418 673 666
1283 2 2 0 0 232 680 231
1284 2 2 0 0 5 679 4
1285 2 2 0 0 117 665 539
1286 2 2 0 0 384 702 616
1287 2 2 0 0 557 702 221
1288 2 2 0 0 87 675 85
1289 2 2 0 0 225 711 604
1290 2 2 0 0 505 677 571
1291 2 2 0 0 483 661 494
1292 2 2 0 0 263 565 375
1293 2 2 0 0 504 677 594
1294 2 2 0 0 582 718 399
1295 2 2 0 0 645 714 46
1296 2 2 0 0 534 708 392
1297 2 2 0 0 643 680 402
1298 2 2 0 0 18 712 452
1299 2 2 0 0 392 670 390
1300 2 2 0 0 221 702 603
1301 2 2 0 0 496 664 391
1302 2 2 0 0 606 710 118
1303 2 2 0 0 655 703 602
1304 2 2 0 0 608 676 91
1305 2 2 0 0 194 684 514
1306 2 2 0 0 541 671 378
1307 2 2 0 0 154 669 652
1308 2 2 0 0 399 718 639
1309 2 2 0 0 405 715 674
1310 2 2 0 0 33 726 677
1311 2 2 0 0 629 671 284
1312 2 2 0 0 468 735 495
1313 2 2 0 0 469 704 408
1314 2 2 0 0 427 745 479
1315 2 2 0 0 294 734 251
1316 2 2 0 0 461 705 379
1317 2 2 0 0 385 674 636
1318 2 2 0 0 657 692 176
1319 2 2 0 0 561 714 411
1320 2 2 0 0 631 669 154
1321 2 2 0 0 264 682 265
1322 2 2 0 0 43 638 486
1323 2 2 0 0 48 638 43
1324 2 2 0 0 194 744 684
1325 2 2 0 0 381 686 380
1326 2 2 0 0 658 716 589
1327 2 2 0 0 263 567 565
1328 2 2 0 0 310 681 337
1329 2 2 0 0 493 685 492
1330 2 2 0 0 64 685 663
1331 2 2 0 0 309 678 267
1332 2 2 0 0 600 678 431
1333 2 2 0 0 538 694 333
1334 2 2 0 0 598 685 64
1335 2 2 0 0 551 695 633
1336 2 2 0 0 560 699 241
1337 2 2 0 0 211 690 210
1338 2 2 0 0 2 723 3
1339 2 2 0 0 630 708 441
1340 2 2 0 0 467 735 468
1341 2 2 0 0 396 687 395
1342 2 2 0 0 35 507 22
1343 2 2 0 0 259 567 263
1344 2 2 0 0 417 673 418
1345 2 2 0 0 614 686 197
1346 2 2 0 0 392 708 630
1347 2 2 0 0 5 729 6
1348 2 2 0 0 279 725 661
1349 2 2 0 0 6 729 26
1350 2 2 0 0 357 703 655
1351 2 2 0 0 514 684 635
1352 2 2 0 0 540 733 538
1353 2 2 0 0 374 741 593
1354 2 2 0 0 176 692 559
1355 2 2 0 0 650 691 500
1356 2 2 0 0 484 736 691
1357 2 2 0 0 83 733 540
1358 2 2 0 0 558 740 372
1359 2 2 0 0 626 697 555
1360 2 2 0 0 436 693 437
1361 2 2 0 0 375 737 374
1362 2 2 0 0 475 663 536
1363 2 2 0 0 636 674 198
1364 2 2 0 0 674 715 198
1365 2 2 0 0 70 695 551
1366 2 2 0 0 406 721 407
1367 2 2 0 0 677 726 571
1368 2 2 0 0 258 647 627
1369 2 2 0 0 448 701 451
1370 2 2 0 0 458 672 506
1371 2 2 0 0 229 700 570
1372 2 2 0 0 684 744 428
1373 2 2 0 0 570 700 544
1374 2 2 0 0 678 742 431
1375 2 2 0 0 646 741 314
1376 2 2 0 0 603 702 384
1377 2 2 0 0 478 731 293
1378 2 2 0 0 309 742 678
1379 2 2 0 0 380 686 614
1380 2 2 0 0 494 725 468
1381 2 2 0 0 500 691 38
1382 2 2 0 0 635 684 615
1383 2 2 0 0 661 725 494
1384 2 2 0 0 679 721 34
1385 2 2 0 0 509 510 35
1386 2 2 0 0 46 714 51
1387 2 2 0 0 615 684 428
1388 2 2 0 0 432 742 689
1389 2 2 0 0 179 713 181
1390 2 2 0 0 26 739 645
1391 2 2 0 0 35 510 507
1392 2 2 0 0 574 703 357
1393 2 2 0 0 184 707 186
1394 2 2 0 0 39 693 612
1395 2 2 0 0 665 694 539
1396 2 2 0 0 312 708 534
1397 2 2 0 0 554 689 309
1398 2 2 0 0 1 737 508
1399 2 2 0 0 519 717 520
1400 2 2 0 0 277 697 622
1401 2 2 0 0 389 711 641
1402 2 2 0 0 495 736 484
1403 2 2 0 0 17 712 18
1404 2 2 0 0 212 722 557
1405 2 2 0 0 455 720 438
1406 2 2 0 0 622 697 626
1407 2 2 0 0 664 694 665
1408 2 2 0 0 447 719 449
1409 2 2 0 0 669 688 652
1410 2 2 0 0 612 693 436
1411 2 2 0 0 619 744 194
1412 2 2 0 0 57 728 59
1413 2 2 0 0 579 658 583
1414 2 2 0 0 438 727 525
1415 2 2 0 0 539 733 83
1416 2 2 0 0 479 731 478
1417 2 2 0 0 691 736 38
1418 2 2 0 0 401 724 400
1419 2 2 0 0 420 660 2
1420 2 2 0 0 328 732 325
1421 2 2 0 0 320 738 453
1422 2 2 0 0 428 744 429
1423 2 2 0 0 431 742 432
1424 2 2 0 0 425 745 427
1425 2 2 0 0 408 743 434
1426 2 2 0 0 571 726 403
1427 2 2 0 0 119 727 523
1428 2 2 0 0 625 706 462
1429 2 2 0 0 525 730 404
1430 2 2 0 0 499 736 495
1431 2 2 0 0 468 725 654
1432 2 2 0 0 336 672 582
1433 2 2 0 0 198 715 518
1434 2 2 0 0 400 724 706
1435 2 2 0 0 402 680 581
1436 2 2 0 0 589 716 659
1437 2 2 0 0 727 730 525
1438 2 2 0 0 664 665 391
1439 2 2 0 0 337 740 558
1440 2 2 0 0 293 731 562
1441 2 2 0 0 523 720 282
1442 2 2 0 0 460 730 119
1443 2 2 0 0 641 711 225
1444 2 2 0 0 429 744 619
1445 2 2 0 0 119 730 727
1446 2 2 0 0 651 722 212
1447 2 2 0 0 38 736 499
1448 2 2 0 0 667 686 381
1449 2 2 0 0 652 688 383
1450 2 2 0 0 410 710 606
1451 2 2 0 0 644 701 448
1452 2 2 0 0 666 673 419
1453 2 2 0 0 704 743 408
1454 2 2 0 0 251 734 586
1455 2 2 0 0 400 706 625
1456 2 2 0 0 546 688 669
1457 2 2 0 0 668 700 229
1458 2 2 0 0 538 733 694
1459 2 2 0 0 333 694 664
1460 2 2 0 0 565 662 375
1461 2 2 0 0 720 727 438
1462 2 2 0 0 372 700 668
1463 2 2 0 0 579 716 658
1464 2 2 0 0 642 711 389
1465 2 2 0 0 355 705 461
1466 2 2 0 0 407 721 679
1467 2 2 0 0 523 727 720
1468 2 2 0 0 654 725 279
1469 2 2 0 0 639 718 27
1470 2 2 0 0 694 733 539
1471 2 2 0 0 393 722 651
1472 2 2 0 0 645 739 397
1473 2 2 0 0 683 741 374
1474 2 2 0 0 397 739 638
1475 2 2 0 0 653 716 579
1476 2 2 0 0 666 723 660
1477 2 2 0 0 419 723 666
1478 2 2 0 0 374 737 683
1479 2 2 0 0 593 741 646
1480 2 2 0 0 683 737 1
1481 2 2 0 0 689 742 309
1482 2 2 0 0 660 723 2
1483 2 2 0 0 23 25 1
1484 2 2 0 0 25 607 1
1485 2 2 0 0 3 34 2
1486 2 2 0 0 34 415 2
$EndElements
