$MeshFormat
2.2 0 8
$EndMeshFormat
$Nodes
745
1 6.7191525627352910e-05 3.8753425879530629e-05 1.0295578282360520e-03
2 9.6888813268648875e-05 -8.9785427269261457e-05 -1.0234511478279021e-03
3 1.3866901977907688e-04 5.4176198238645996e-05 -1.0179655370264888e-03
4 2.4284322598105865e-04 3.9918682743106211e-05 -9.9863700009186242e-04
5 4.0012401532436631e-04 5.2295458611883109e-05 -9.4185477404020704e-04
6 5.4022302284578336e-04 -3.0802927832317581e-06 -8.6173008107745367e-04
7 6.4775113800354795e-04 -3.6472203654804228e-06 -7.7666351857336418e-04
8 7.4436807244810700e-04 -3.9184692094342597e-06 -6.7519819286118916e-04
9 8.2967642412413783e-04 -6.5206479570108074e-06 -5.5554839673904429e-04
10 8.9707185895398893e-04 -5.2015046580698385e-06 -4.2553833622516814e-04
11 9.4593910956545916e-04 3.5035414967827878e-06 -2.8857828686736276e-04
12 9.7525761973430586e-04 2.8615735515500142e-06 -1.4823112017340524e-04
13 9.8539830824689672e-04 3.7338564628476832e-06 -5.7973245494501103e-06
14 9.7616425134061614e-04 9.2734244221176705e-06 1.3881799243032014e-04
15 9.4829780435586627e-04 4.8764104318115904e-06 2.7907828804488649e-04
16 9.0020471252660428e-04 9.2368953550377199e-06 4.1884581050015152e-04
17 8.3748364273262003e-04 -3.3609269332644603e-06 5.4276486362493843e-04
18 7.4980401291565441e-04 -1.1068277226450654e-05 6.6828948583988847e-04
19 6.5189021026654541e-04 2.4117104537218506e-06 7.7303704911953436e-04
20 5.3258599668793241e-04 2.3929699777883306e-06 8.6754964321096757e-04
21 4.0183342339354406e-04 8.3819535144310611e-06 9.4157132429774804e-04
22 2.6616391880998841e-04 4.5003815214552916e-06 9.9306724108195088e-04
23 1.5606080368026610e-04 -4.4634226416262597e-05 1.0167966092556216e-03
24 1.7561515821959081e-04 1.5085667054984486e-04 -1.0028361162806793e-03
25 1.6697877511348368e-04 1.0591871136632693e-04 1.0118845229764098e-03
26 6.1602991713957797e-04 9.8792515513817885e-05 -7.9728661410841161e-04
27 5.8699669270246690e-04 -1.0989181865698867e-04 8.2014890486273805e-04
28 9.5832765505865069e-04 1.2879751636820996e-04 -1.9875950322382539e-04
29 8.5533883968514550e-04 1.5754826319669261e-04 4.8610630488368436e-04
30 9.2183122361776365e-04 -1.1412954333675196e-04 3.4386378777338144e-04
31 9.5418707956386754e-04 -1.1393247822965236e-04 -2.2744045379960467e-04
32 5.7717140979749316e-04 -1.2511102411484263e-04 -8.2510848600648860e-04
33 5.8906007341799768e-04 1.0829209063350027e-04 8.1865354650359349e-04
34 1.3335371538950567e-04 -8.9134173951333038e-05 -1.0194018406419489e-03
35 2.0561890451102911e-04 -1.1560172855901134e-04 1.0015061228189706e-03
36 7.8754657388042850e-04 -1.2590780425982765e-04 6.0517299677821385e-04
37 7.8609778311335393e-04 1.2349082177644217e-04 -6.0751564638160925e-04
38 9.7865977991510905e-04 -9.5483068225719799e-05 6.4377776877398428e-05
39 9.5866702087378151e-04 1.1562644527889269e-04 2.0348758446706640e-04
40 8.5433790948989696e-04 -1.3176779124829844e-04 -4.9420754782287428e-04
41 3.2177414916941785e-04 1.4549903715714579e-04 -9.6266096904654619e-04
42 2.2688403790342070e-04 2.7475678118909184e-04 -9.6106787321752695e-04
43 3.5099612010896613e-04 2.7644840520683948e-04 -9.1789262998385557e-04
44 3.1282226997478242e-04 1.2549586914263199e-04 9.6943105769002386e-04
45 7.0485613679626595e-04 1.2049223437877263e-04 -7.0867644104425807e-04
46 7.3230963304762376e-04 2.4724712923713084e-04 -6.3859964117861845e-04
47 2.8670341257096521e-04 3.8790228891152559e-04 -8.9823720252627578e-04
48 4.1779183540897701e-04 3.7582264929297067e-04 -8.4578464589128623e-04
49 3.4938268066975496e-04 4.8434382456609583e-04 -8.1884271114145818e-04
50 8.1096048858802399e-04 2.4970396121951955e-04 -5.2322924093185438e-04
51 7.3735131902412311e-04 3.7174147050802173e-04 -5.6176136657409218e-04
52 8.1185322053305999e-04 3.6576176217223546e-04 -4.4024179099194161e-04
53 7.3496306244850659e-04 4.8329684919540033e-04 -4.6362893798823960e-04
54 7.9877655440637396e-04 4.7436549009302918e-04 -3.4218215329208525e-04
55 7.1546088809632371e-04 5.8363867034034165e-04 -3.5872755608580846e-04
56 7.7292591310082091e-04 5.6708423700754069e-04 -2.3665695780965580e-04
57 6.4316327864011324e-04 5.9215746167416998e-04 -4.7391897229317613e-04
58 6.1204560729693526e-04 6.8398750409316038e-04 -3.7305322168220995e-04
59 5.3020956047750102e-04 6.8674401397566870e-04 -4.8685271710211556e-04
60 4.9387505403979104e-04 7.6742931092013895e-04 -3.8660292642380491e-04
61 4.0650620603549341e-04 7.6118732945202531e-04 -4.9642982279537355e-04
62 3.6531198566520896e-04 8.3548586912810549e-04 -3.8819421253217780e-04
63 2.2349405955670069e-04 5.0245457816471830e-04 -8.5463976528561789e-04
64 4.5155769208299107e-04 8.3207775075651194e-04 -2.8203872415474688e-04
65 2.6249387237851647e-04 8.2174992601349579e-04 -4.9656779172724329e-04
66 2.3137756759494227e-04 8.8913405926880425e-04 -3.7022868554668231e-04
67 1.2048684966975466e-04 8.6796872300473984e-04 -4.6976601057247073e-04
68 1.0549295702828344e-04 2.8696376871517994e-04 -9.7986818280521395e-04
69 1.5606722614464779e-04 7.8445860926911175e-04 -6.0202106889623171e-04
70 8.4600880789168550e-04 4.5826926240365645e-04 -2.1982968325848335e-04
71 8.2090550757987454e-04 5.3505347824450364e-04 -1.0676111503441642e-04
72 7.3254282340134568e-04 6.4732632184400451e-04 -1.2600076129621593e-04
73 7.7060060357074490e-04 6.1360573784662357e-04 2.2540202121269518e-07
74 6.7300205266314123e-04 7.1890281355468781e-04 -1.7319671765946802e-05
75 6.9766133596883904e-04 6.8811746018414613e-04 1.0366862793371113e-04
76 5.9554028623894778e-04 7.7993568053061444e-04 8.8611056592970391e-05
77 6.1927138836825283e-04 7.3827139044239487e-04 2.1349454632223062e-04
78 5.0622211928038013e-04 8.2492834893737590e-04 1.9127545044791047e-04
79 9.7243917309753497e-05 9.2486414900660291e-04 -3.3840682714799476e-04
80 -1.1931046815361998e-05 8.9308518941271929e-04 -4.3300182367085550e-04
81 2.4046074883139044e-04 2.3148804044454042e-04 9.7073219627987872e-04
82 5.3057964850637695e-04 7.6945198234145242e-04 3.2524815271872432e-04
83 -3.9679218319570197e-05 9.3594211929430733e-04 -3.1611519380544875e-04
84 4.0582189822162978e-04 8.5392922604703213e-04 2.8861251192061565e-04
85 4.2874527043937615e-04 7.9385532491413184e-04 4.1297318817161774e-04
86 2.9399769655118793e-04 8.6571207014181763e-04 3.8257090149467816e-04
87 3.0915674720592159e-04 8.0261027416226563e-04 5.0123187921158839e-04
88 1.7824966960850198e-04 8.5726969713152408e-04 4.7095094055219454e-04
89 1.5673511273316357e-04 9.1311620358429954e-04 3.4880715073013196e-04
90 4.9315592336870733e-05 8.9128510449013076e-04 4.3430945696270538e-04
91 6.8218608212297586e-05 8.2683766576587469e-04 5.5469588065326560e-04
92 -6.1065750663523934e-05 8.5732031142338823e-04 5.0192603905629648e-04
93 -8.8697253168491035e-05 9.0858677367236399e-04 3.8531692952534051e-04
94 -1.9867498417429973e-04 8.6128449821352428e-04 4.5321376950607930e-04
95 -1.6577837000010935e-04 8.0462158455341418e-04 5.6580423745054007e-04
96 -2.2569794257192352e-04 9.0389968456841801e-04 3.3283720465692541e-04
97 1.1093412548338011e-04 2.4686036709695202e-04 9.9193281041812069e-04
98 5.4778535168762538e-04 6.8707435670725095e-04 4.6722828966016806e-04
99 1.7854646092523802e-04 3.6847900439051010e-04 9.3808713068938498e-04
100 3.4677175933896121e-05 3.6779538945672986e-04 9.5603369656885220e-04
101 -3.5232392725338941e-05 2.5217037150501042e-04 9.9657430864064870e-04
102 -1.0745689776688900e-04 3.6142247219465374e-04 9.5264194026924002e-04
103 1.9754469135136032e-04 9.3652351135017551e-04 -2.4210131073319381e-04
104 -1.1865124361535886e-04 9.4647461036247746e-04 2.5501413134373262e-04
105 -2.4885034964718724e-04 9.3292098849960558e-04 2.0127869774772396e-04
106 -3.5732901129258295e-04 8.7776933144187897e-04 2.7890153902718272e-04
107 -1.4960732587632850e-04 8.9626823517644427e-04 -3.9572793366846423e-04
108 -1.3267002429162412e-04 8.4418988327977849e-04 -5.1116216560863836e-04
109 -3.8066838264283812e-04 8.9689991939543765e-04 1.4792313131547661e-04
110 -2.6143868400825191e-04 8.3980827830446318e-04 -4.6224258268683061e-04
111 -2.3842692453282592e-04 7.7680295833719491e-04 -5.8132527160025384e-04
112 -3.6754792896305472e-04 7.6379341565149675e-04 -5.2365339193578418e-04
113 -3.3925687404488645e-04 6.8780003152334418e-04 -6.4574304208341125e-04
114 -4.6496379530481266e-04 6.6990395191381504e-04 -5.7702724143816777e-04
115 -4.3065519404363424e-04 5.8698972086108263e-04 -6.9332754298354819e-04
116 -4.8984040263553295e-04 7.3712224742212510e-04 -4.5102749715779746e-04
117 -2.8031373654399715e-04 8.8689439833001789e-04 -3.3673959829266207e-04
118 -2.9626562036986923e-04 7.8212119227591837e-04 5.4391435929349616e-04
119 7.0806462172259724e-04 6.5250508507265102e-04 2.1551204214733711e-04
120 -3.0179510426655372e-04 5.9998210097484794e-04 -7.5328727125934533e-04
121 -3.8819042535456787e-04 4.9218421342971119e-04 -7.9448544613008605e-04
122 -5.1127840389915348e-04 4.7325439964389772e-04 -7.2774043859286325e-04
123 -4.6605207017647542e-04 3.7457329881238467e-04 -8.1877094667702878e-04
124 -5.8105153847589448e-04 6.3690920223200313e-04 -4.9723621662849213e-04
125 -6.0032640281476406e-04 6.9660927533351082e-04 -3.6747600696006300e-04
126 -6.8429159574381177e-04 5.8963556370508438e-04 -4.0935381487375571e-04
127 -4.8274674440474546e-04 8.2992981004407292e-04 2.2785835045535527e-04
128 -5.8184695653240310e-04 3.4997090000893149e-04 -7.4592140081860311e-04
129 -5.3443232730854382e-04 2.4842920289966559e-04 -8.2554956800683175e-04
130 -6.4427242725846145e-04 2.1940708814237813e-04 -7.4433499746783200e-04
131 -5.8895165768405337e-04 1.1597928254168305e-04 -8.1686287592556050e-04
132 -6.9660634086022536e-04 8.6619841743200280e-05 -7.2241563175392967e-04
133 -6.2968334193617308e-04 -1.8771716970652655e-05 -7.9214632102050367e-04
134 -7.2924554715788595e-04 -4.5230023991733302e-05 -6.9062815272371203e-04
135 -6.5540420132189693e-04 -1.5224713802601832e-04 -7.5265901298152442e-04
136 -7.9333309093623176e-04 6.7915067650856423e-05 -6.0606652991770297e-04
137 -8.1745382302922409e-04 -6.6572019916110182e-05 -5.6975664841166782e-04
138 -8.6713904600674286e-04 4.2276015033382674e-05 -4.8577573896132288e-04
139 -8.8279245925674231e-04 -9.7543558687725434e-05 -4.4412462913029940e-04
140 -9.2385869732822040e-04 2.5601447429296607e-06 -3.5577112637665936e-04
141 -9.3139620757741904e-04 -1.2478976875443916e-04 -3.0749264061749208e-04
142 -9.6133823306637084e-04 -2.1367883462163225e-05 -2.2134380142642258e-04
143 -9.5949320472457362e-04 -1.4872851332375903e-04 -1.7111508461384035e-04
144 -9.8045096753829461e-04 -3.8649911618351372e-05 -8.5967199027617153e-05
145 -9.6949024237604929e-04 -1.6994987224745368e-04 -3.2113547919133102e-05
146 -9.8172217100055549e-04 -5.8715375465838707e-05 5.1204994826530019e-05
147 -9.6107699111873510e-04 -1.8830543160901228e-04 1.0804191181365654e-04
148 -9.3804528217732500e-04 -2.9927288678179362e-04 2.2376081790478508e-05
149 -9.2077165638415083e-04 -3.1351600264952932e-04 1.6170815115419538e-04
150 -9.3490614773608476e-04 -2.0039196259323742e-04 2.4713249336712293e-04
151 -8.8551775472667661e-04 -3.2185046566284654e-04 3.0054953938677060e-04
152 -8.8990976189752958e-04 -2.0548901367587133e-04 3.8578791710047023e-04
153 -8.3253188239703062e-04 -3.2330500953939978e-04 4.3429500845413422e-04
154 -8.8434252586724925e-04 -2.2237483480159985e-04 -3.8823760770413445e-04
155 -8.2713138024304944e-04 -2.0754992137500341e-04 5.1504323179101788e-04
156 -7.6007871234700210e-04 -3.2297953109645337e-04 5.6091142701540251e-04
157 -8.7598830614109508e-04 -8.0179630582404997e-05 4.6318218175024899e-04
158 -7.4697218360713150e-04 -2.0955735803534302e-04 6.3442262376966943e-04
159 -6.6985438875895927e-04 -3.1958510577715054e-04 6.7752276588658208e-04
160 -9.8173322579112260e-04 7.5556158466087399e-05 -1.5520233767445809e-06
161 -6.4856925662826464e-04 -2.0493637213002291e-04 7.4551714652458783e-04
162 -5.6609963482932640e-04 -3.1581082173088128e-04 7.7669186883401757e-04
163 -5.4740557284663487e-04 -1.2398820274962672e-04 -8.4712085148233953e-04
164 -5.6650094878647132e-04 -2.5616825649503103e-04 -7.9975575649316333e-04
165 -6.9732594483071448e-04 6.4187395997959066e-04 -2.7810118431836602e-04
166 -1.7158594482028340e-04 2.3918416749720196e-04 9.8435416203158758e-04
167 -2.4574475596306401e-04 3.5040607012573155e-04 9.2861525626000945e-04
168 -4.5199299429953785e-04 -2.2389532780844068e-04 -8.8553855849600200e-04
169 -4.6651469002068562e-04 -3.5294331797094838e-04 -8.2956951255422102e-04
170 -5.7404465001165052e-04 -3.8577754243854565e-04 -7.3399255613556115e-04
171 -4.6794022486692447e-04 -4.7925313056920135e-04 -7.5589660762833766e-04
172 -5.7153707047199207e-04 -5.0760484400123407e-04 -6.4975380283964945e-04
173 -4.5386780229758199e-04 -5.9727206291140583e-04 -6.6802586439119788e-04
174 -5.5382855387066366e-04 -6.1609157002255393e-04 -5.5713294033616983e-04
175 -4.3563776903327532e-04 -7.0023295245776203e-04 -5.6337380296352189e-04
176 -7.6167945509268600e-04 -4.2448333099459894e-04 4.7842336096879035e-04
177 -5.2752302647115991e-04 -7.0887599882202897e-04 -4.5457906993967638e-04
178 -4.0961240814622397e-04 -7.8595471828775323e-04 -4.4920670781906135e-04
179 -3.1178757984745673e-04 -7.7156343201672964e-04 -5.5114287740058352e-04
180 -2.7866166369079100e-04 -8.4742940984217736e-04 -4.3748137086526898e-04
181 -1.7460417321044818e-04 -8.2162789005452955e-04 -5.3819373710501934e-04
182 -1.3878439110842172e-04 -8.8741823980819094e-04 -4.2351891433213654e-04
183 -3.4868994828255716e-05 -8.5176492541561650e-04 -5.1673219267423551e-04
184 -9.9135857982303411e-06 -9.1169814129772543e-04 -3.9045086782700034e-04
185 -1.0168681924339902e-04 -9.3883196746234006e-04 -2.9399985826783389e-04
186 3.3473132366347087e-05 -9.5256198286091840e-04 -2.6099992392732585e-04
187 -5.5266310650795712e-05 -9.7112733620247289e-04 -1.6423230026071169e-04
188 7.9803209237253779e-05 -9.7407966005561670e-04 -1.3201102229290184e-04
189 -6.2110830655899377e-06 -9.8493082428967316e-04 -3.1507991906634162e-05
190 1.2025421401647706e-04 -9.7805022193621621e-04 7.8105918755919080e-06
191 3.4341268537869982e-05 -9.7957761533849991e-04 1.0635307135839631e-04
192 1.6445557554545828e-04 -9.6199707985507635e-04 1.4311554043156240e-04
193 7.0324249403333421e-05 -9.5582101136099671e-04 2.4020893231706226e-04
194 2.0341470831417767e-04 -9.6004633953074531e-04 -9.2434234481410786e-05
195 2.0391462438930155e-04 -9.2758602525483901e-04 2.7540422907916951e-04
196 1.0153116600018128e-04 -9.1221299178627716e-04 3.7543918416468983e-04
197 1.0939041608742619e-04 -8.6526283027467301e-04 -4.8077811413337133e-04
198 -8.9296130319934091e-05 -9.7900054877172018e-04 6.6783085102038752e-05
199 2.3737462180651171e-04 -8.7532317387185323e-04 4.0338527659705719e-04
200 3.3641535556432311e-04 -8.8039655680757984e-04 3.0131168093365876e-04
201 3.6660940226628002e-04 -8.2136449710985132e-04 4.2099562200169485e-04
202 1.3256177709701343e-04 -8.5000948765224388e-04 5.0298998641549596e-04
203 4.6156285516767002e-04 -8.1707539792755430e-04 3.1422317354229580e-04
204 -3.0261425866461267e-06 -8.7789597323743895e-04 4.6806118588021923e-04
205 2.7205488751606506e-05 -8.0555995280330345e-04 5.9311407070318652e-04
206 -8.8704921300903597e-04 -4.2214994779151999e-04 7.4417740847899916e-05
207 -8.2523841047960601e-05 -7.7216704488131224e-04 -6.3469586076327783e-04
208 -1.0974744923216154e-04 -8.2423822751981411e-04 5.5294787206784917e-04
209 -7.7890454546135528e-05 -7.4316999889672566e-04 6.7209567098106687e-04
210 4.8356145016021572e-04 -7.5046615941279523e-04 4.3605583877994386e-04
211 5.7411761077198872e-04 -7.3805309429665871e-04 3.2461445796102986e-04
212 -4.8925130504269912e-04 -7.8881529011418691e-04 -3.4389234268243245e-04
213 5.8845137225525420e-05 -7.1547224998306667e-04 7.0632200925725913e-04
214 -4.3800032985052434e-05 -6.4595508778858568e-04 7.7741777507189130e-04
215 -3.4790842292376059e-04 -3.1435382226973501e-04 -9.0676264719162698e-04
216 -2.1517043928012303e-04 -7.5275316181041478e-04 6.2591886289041130e-04
217 -2.4311647379663038e-04 -8.2475377701355301e-04 5.0323097252404341e-04
218 5.5359518710183938e-04 -7.9142220269263206e-04 2.0476754563665265e-04
219 6.6542619259670778e-04 -6.9634799555401937e-04 2.1916470998073763e-04
220 6.2960272542765679e-04 -7.5350209929603480e-04 9.1373857852796388e-05
221 -6.3321684885020663e-04 -6.2674351546321055e-04 -4.3858996341911421e-04
222 7.3352370559109741e-04 -6.5116741448825982e-04 1.0363850639615716e-04
223 6.8541216195782458e-04 -7.0784964995358485e-04 -2.8833628427342180e-05
224 -3.3072477301187653e-04 -1.8891982101023916e-04 -9.5086136363193934e-04
225 -9.4592579093622246e-04 1.0270290262859511e-04 -2.6407191490228994e-04
226 9.1563373871737081e-05 -6.1039939740687344e-04 8.0411759086336889e-04
227 -1.3365457489863848e-05 -5.3460167292244216e-04 8.6649939203191427e-04
228 -5.4159449494686426e-04 -1.8716532193451153e-04 8.3881284136703700e-04
229 -6.1466733546761078e-04 -8.4060251045598838e-05 8.0037424921479839e-04
230 6.7289464392200952e-04 -6.4138386632398112e-04 3.4179835632790130e-04
231 3.9291799056924995e-04 -7.4623380168088553e-04 5.3292086760906769e-04
232 5.1625661716422563e-04 -6.5600600667674227e-04 5.4893290597209153e-04
233 7.7785784948315772e-04 -6.0458613485011518e-04 -2.6001499364733596e-05
234 7.2528838921652244e-04 -6.5136318859137273e-04 -1.5143734689440332e-04
235 -4.1320763341494042e-04 2.6768747616702190e-04 -8.9292653436224417e-04
236 3.1336335290277665e-04 3.5788052377281942e-04 9.0295752904053189e-04
237 -4.5438341245228163e-04 -2.9633179631459444e-04 8.6135962214405645e-04
238 -8.3377502127330531e-04 1.8369628803736803e-04 -5.1433845698056529e-04
239 6.2679450027484766e-04 -7.4555050409301883e-04 -1.5745164623887390e-04
240 6.6439361980013016e-04 -6.7806675251407813e-04 -2.7646424605506069e-04
241 -5.8987365887440250e-04 -4.2961698879939036e-04 6.9246859696425528e-04
242 5.5690108555467559e-04 -7.6753746240121930e-04 -2.8027957052568798e-04
243 5.8987737140146898e-04 -6.9174683656780583e-04 -3.9711380962832368e-04
244 6.9158801640574084e-04 -5.9502143834845979e-04 -3.8907354386086247e-04
245 6.1110121658881033e-04 -6.0076577916004720e-04 -5.0866190660082023e-04
246 -2.1908722659820862e-04 -2.7631981945230405e-04 -9.6307676380114754e-04
247 8.1861069633018069e-04 -5.4051245126427664e-04 9.8810871623820521e-05
248 2.3896726636725446e-04 4.7396438893344508e-04 8.6837993367762433e-04
249 -4.2715173899285982e-04 -1.6287794022475316e-04 9.1370234945097344e-04
250 3.7248098164897441e-04 4.6066552143541619e-04 8.2345854460418087e-04
251 -2.3036031099380101e-04 -3.9694303507269857e-04 -9.1255978329968658e-04
252 -9.4527766004859001e-05 -3.7181929570053427e-04 -9.5006920114431052e-04
253 3.6896705975842607e-04 9.0053508965312558e-04 1.5879220259532330e-04
254 -6.0718895352428312e-04 7.4193307437070671e-04 -2.3364515679777484e-04
255 -6.9862557662917879e-04 6.7926963712292552e-04 -1.4539849292688058e-04
256 -7.8069284107527793e-04 5.7346334147613878e-04 -1.8322941053610717e-04
257 -7.7465154290143963e-04 6.0555742307958878e-04 -4.9270412893670013e-05
258 -4.1228089166708148e-05 4.7646785443074816e-04 9.0109089946376270e-04
259 -3.2528949477781798e-04 -2.5782651474284233e-04 9.3579384983938504e-04
260 -3.0856640795659507e-04 2.2974404725812324e-04 9.4929756674855010e-04
261 -3.8073952173241471e-04 3.3203594596302341e-04 8.8479973229312471e-04
262 -3.0359341266146886e-04 -1.3620227146216905e-04 9.7111241618095016e-04
263 -2.0149676935985025e-04 -2.3087749702445734e-04 9.8086970700108278e-04
264 -8.4958730764953861e-04 4.9097360202354030e-04 -8.4334585278023186e-05
265 -8.3040156471251463e-04 5.2652823650673668e-04 5.3404062766981803e-05
266 -3.4461550093290501e-04 -7.4016108298789122e-04 5.7705259407878746e-04
267 -3.6351131302094495e-04 -8.0869721975319366e-04 4.4908370893713640e-04
268 5.0078761010281542e-04 -6.9278533834265838e-04 -5.1250462150744696e-04
269 5.1491598928950309e-04 -5.9600751331550074e-04 -6.1954396391554630e-04
270 6.1918326797261516e-04 -4.9576294049682881e-04 -6.1168555644028507e-04
271 5.1636740423075846e-04 -4.8598729764230702e-04 -7.1585463293432434e-04
272 4.0632670214997525e-04 -5.7945316879737523e-04 -7.1751117147165230e-04
273 -3.1424658387479168e-04 4.5157116725732670e-04 8.5464461442167554e-04
274 -4.4436501697278007e-04 4.3126076856158768e-04 8.0105396220447227e-04
275 4.0374101334384729e-04 -4.6552767747549479e-04 -8.0461118461891477e-04
276 2.8627617403894734e-04 -5.5154526336014095e-04 -8.0047532844593260e-04
277 -3.4893361507098265e-04 -3.8114690017532703e-04 8.7837674864322353e-04
278 -1.4312296341598447e-04 9.6756399424224166e-04 1.1866553080713944e-04
279 8.0637162592543535e-04 -5.4841755356791670e-04 -1.4634125409303947e-04
280 -2.5896580875616056e-04 5.0298976280446436e-04 -8.4343242357920358e-04
281 -1.6364209981380908e-04 6.0911589348431900e-04 -7.9115047513915763e-04
282 8.5791218634543838e-04 4.8526798252572782e-04 2.3342943145646513e-05
283 1.2056773567272028e-04 -4.9503164510101704e-04 8.8300040650238307e-04
284 -9.7515899693614513e-04 5.0075058311442024e-05 1.3011586181479770e-04
285 -8.9591370872455314e-04 -4.0458571276234063e-04 -6.3567067459819235e-05
286 -8.3421490644631081e-04 -5.2355213310594309e-04 -1.3331685828473837e-05
287 -8.1654140209808405e-04 -5.3764798277327697e-04 1.2540819560990287e-04
288 -7.5525761868912007e-04 -6.3126410908351921e-04 3.7906763494034507e-05
289 -7.2977160123755480e-04 -6.3950135004247970e-04 1.7711939914109013e-04
290 -6.6576395147089024e-04 -7.2085087320409495e-04 8.9767603663058230e-05
291 -1.9554280416547902e-04 -9.4894065208548186e-04 -1.8723247934682283e-04
292 -2.7132418792293110e-04 -8.7835426298103997e-04 3.7055377118998728e-04
293 -3.5237863940602659e-04 -5.5616073411830487e-04 -7.6713510546212672e-04
294 -9.9489276087559060e-05 -5.1177784377331027e-04 -8.7578447342835002e-04
295 -5.0997561292849308e-04 3.0587566668520893e-04 8.2135705791219163e-04
296 -5.6761879380738429e-04 4.0254987811240358e-04 7.2882943333169524e-04
297 -8.5269173787813960e-04 4.4822449608568880e-04 -2.1268519307458120e-04
298 -6.3019347669487859e-04 2.7422405385248995e-04 7.3780891575311153e-04
299 -6.7747787328357155e-04 3.6995639719698538e-04 6.3937616654430145e-04
300 -6.1187828027993755e-04 4.9462435323003066e-04 6.1918349745702407e-04
301 -7.1389652657739323e-04 4.5287027159125141e-04 5.2749581247875615e-04
302 -7.7281863650518828e-04 3.2910436053037355e-04 5.3693593064117946e-04
303 -3.1820868579227442e-04 -6.6515020850402664e-04 6.8394582713402396e-04
304 -6.3555596994061231e-04 5.8420503827646736e-04 4.9490010993838527e-04
305 -8.0448936369222903e-04 3.9940752452785638e-04 4.2148992723653104e-04
306 2.2662068364183433e-04 -5.6327775285897486e-04 8.1233407048282179e-04
307 2.5420056334400876e-04 -4.4752804401197049e-04 8.7957997000072440e-04
308 3.6144975436654353e-04 -5.1303619862770014e-04 7.9508380831600227e-04
309 -4.4623200422379505e-04 -7.2805804824930783e-04 5.1307339964494253e-04
310 -8.5168669937796943e-04 2.7376061652213609e-04 4.2960715731163126e-04
311 -3.9909519401959274e-04 -8.5120180986607633e-04 3.0830171324046601e-04
312 -7.5239924951689960e-04 6.2970188959055441e-04 8.1977735516121917e-05
313 -8.3709159087046430e-04 -4.9963928708816657e-04 -1.4750007973395846e-04
314 -8.9179890438937151e-05 1.1329832050536175e-04 1.0212366248210111e-03
315 -8.7905923008550627e-04 3.3982018859283331e-04 2.9914007783028918e-04
316 -9.6366413507060805e-04 1.8451419541905040e-04 8.4376552228978494e-05
317 -1.1313987670679387e-04 7.7596423059940380e-04 -6.2224703134889346e-04
318 2.7921587857052701e-04 -4.3127287004392163e-04 -8.8014597077369834e-04
319 -6.8059414809313571e-04 -7.1043376714283017e-04 -5.2670792776893160e-05
320 -5.9243807202263106e-04 -7.8670544743573143e-04 8.7309973664365276e-06
321 -6.6877333849118962e-04 -4.1124108288165408e-04 -6.2185718347146314e-04
322 -9.0230405758171957e-05 -2.2980336809002471e-04 -9.9853520284688799e-04
323 5.1094878377714746e-04 -8.3936964857205182e-04 7.9648053832422563e-05
324 -6.0508450527951504e-04 7.7017347011210156e-04 -1.0298513325133723e-04
325 2.9442609363956716e-04 5.6445944145817688e-04 7.8621373251298074e-04
326 2.8871938365071645e-04 -6.5760765508884812e-04 -7.0594900408757456e-04
327 1.5904030722516951e-04 -6.2585929064505109e-04 -7.7916740892021972e-04
328 4.2682013778498688e-04 5.4944744484535391e-04 7.2916698292284994e-04
329 5.0150395994621316e-04 4.4505276905562304e-04 7.5461097886100729e-04
330 4.7327113797733365e-04 4.6525405419603022e-04 -7.6058153589099594e-04
331 -7.2050979838454302e-06 9.7131764837287749e-04 1.6913221696948771e-04
332 -3.2387059122020187e-05 9.8346550997841951e-04 3.7373138332284317e-05
333 -1.5915102122915996e-04 9.7136812138673932e-04 -1.2090735688325234e-05
334 1.0391398415455995e-04 9.7593839459142397e-04 8.3102740969267556e-05
335 3.7619415432628048e-04 -3.8411759094007347e-04 8.6435990593580531e-04
336 4.6898730899493421e-04 -4.4759918072047772e-04 7.7627749337070911e-04
337 -8.1389522872059978e-04 1.9955611085922608e-04 5.4011792214055554e-04
338 -3.7221212299544821e-04 5.4141472660909314e-04 7.6708650545044034e-04
339 -1.3682384811334212e-04 5.1156166082287234e-04 -8.6857044232913441e-04
340 3.9633894406189657e-04 -3.4628989665242110e-04 -8.7164690247138030e-04
341 3.0658440854215584e-05 -3.0426067662739511e-04 -9.8061512037841600e-04
342 -9.1495219094289443e-04 3.5205747739089767e-04 -1.0444184638455543e-04
343 9.8479572522971323e-06 -4.1385305215943671e-04 9.3654105557136201e-04
344 -5.3225113084876593e-04 6.1517767491513155e-04 5.8010655064726871e-04
345 -5.4499811644276742e-04 6.9798373518066927e-04 4.5177325748719887e-04
346 -6.5607316575182965e-04 6.4408308788835582e-04 3.6819694157525906e-04
347 6.1903554575233458e-04 -3.7824620604427799e-04 -6.9766310125285696e-04
348 7.1543944190287563e-04 -3.8224792914255684e-04 -5.8524644372775787e-04
349 5.4609595888956218e-04 5.2624461657439314e-04 6.5705592839251285e-04
350 6.2009960770703621e-04 4.1210236029535141e-04 6.7425507730937170e-04
351 6.5970443973277764e-04 4.8838906970921007e-04 5.6941407753228644e-04
352 7.2539192819103860e-04 3.6079735458879284e-04 5.8608153286955210e-04
353 7.5446994049443712e-04 4.4170698587159897e-04 4.7509376115191152e-04
354 -6.3290259766352920e-04 -7.2439248386463588e-04 2.2183473855476652e-04
355 2.7721610991818588e-04 5.8639665908376943e-04 -7.7462501643431629e-04
356 1.4265893498816972e-04 6.0766272584943137e-04 -7.9684718119015744e-04
357 -6.8122226036496526e-04 3.1871654456023624e-04 -6.6415952097581674e-04
358 5.1504702439462069e-04 -8.2538734854460216e-04 -1.6366112212509100e-04
359 4.4066106004659163e-04 -8.3947522477923636e-04 -2.8041058849816836e-04
360 -8.2118702198402812e-04 4.6505870428699972e-04 2.9373829507718435e-04
361 -1.4459821894352972e-04 -5.6159842143825361e-04 8.3378668771836618e-04
362 -2.1812122842719840e-04 4.0465856025544031e-04 -9.1153407144823457e-04
363 -2.4891308755886496e-04 5.5444575580481975e-04 8.1026976617649157e-04
364 -5.0666677570907804e-04 8.2582580604562725e-04 -1.8298103658704576e-04
365 1.6663159340720869e-04 5.7671534457206098e-04 8.1681181520270663e-04
366 -4.0610406122025083e-04 -3.5637162264468570e-05 9.3890032568254007e-04
367 -6.8848905996677485e-04 -6.3587824089486307e-04 3.1707192392833807e-04
368 2.2166579876647618e-04 6.8459418641436361e-04 7.0452319779052124e-04
369 8.4915083592573790e-05 6.5962579219616506e-04 7.5867159543770591e-04
370 7.1266941055125096e-04 -2.5572366509622497e-04 -6.5966378515266110e-04
371 -5.6646567780732073e-04 1.7643824274754850e-04 8.2250259419104123e-04
372 -6.7384245820587181e-04 1.3806746637271496e-04 7.3817067649307587e-04
373 5.5891743526693288e-04 8.1016756402705443e-04 -3.7403830391530658e-05
374 -1.8007621869661468e-04 -1.0046340505283619e-04 1.0092399902618507e-03
375 -7.5866947552417628e-05 -2.0296575362142619e-04 1.0065873752529027e-03
376 -3.0570637374148128e-04 -9.1104122298692766e-04 2.2790669343407101e-04
377 -4.2395215833320382e-04 -8.7618007743462127e-04 1.6411434575543587e-04
378 -9.1606968404389676e-04 1.8961189471645905e-04 3.2326243893577385e-04
379 4.4167535725803982e-04 6.6273320724712862e-04 -6.0661705924700492e-04
380 1.7190911858656048e-04 -7.2290984343725579e-04 -6.7672687683154032e-04
381 2.8582621391352165e-04 -7.4835137010354109e-04 -5.9980436428310943e-04
382 -8.8827986560877895e-04 -3.8204706051487116e-04 -1.9545882690711808e-04
383 -8.2365857838249978e-04 -4.6767854662999904e-04 -2.8190980299929060e-04
384 -7.6491811634903507e-04 -5.7353956194599156e-04 -2.4807693945008398e-04
385 -1.6965039025199720e-04 -9.3028286431780368e-04 2.8943613384824701e-04
386 -6.5947309565290101e-04 5.2620734036900024e-04 -5.3057024571623865e-04
387 -7.5393214218728128e-04 4.7032468748809102e-04 -4.4312930334160987e-04
388 8.7360485406000777e-04 2.4888841270255275e-04 -3.9820862900097706e-04
389 -8.9443735766802182e-04 3.3159926146087082e-04 -2.5375757949126743e-04
390 -5.0467368769301307e-04 8.4413806698312047e-04 -4.6082804442116405e-05
391 -3.9889433987256185e-04 8.9218805066125105e-04 -1.2411471001491653e-04
392 -5.8843756019213219e-04 7.8833301336331989e-04 3.0688363716544460e-05
393 -5.8357113708000302e-04 -7.8425373998174998e-04 -1.2670050782915442e-04
394 -4.9317347151232632e-04 -8.4939144880460048e-04 -7.4507344423236483e-05
395 7.0837965877515460e-05 9.8072098599228698e-04 -5.1383860934203756e-05
396 2.0995703976084266e-04 9.6199564032059721e-04 -8.0242130339426574e-06
397 5.4272116169452596e-04 3.4461106902773696e-04 -7.8077133166637100e-04
398 2.6436029537932603e-04 -3.1764785292008715e-04 9.3633188548310675e-04
399 3.9042764281414598e-04 -2.4106378451416692e-04 9.1338164927688757e-04
400 -2.9422818125244594e-04 6.3179379337271492e-04 7.2704330618004098e-04
401 -1.7797550340910355e-04 6.4793022240385890e-04 7.5132426057177265e-04
402 3.2546267678401798e-04 -6.1847460624610360e-04 7.2667431337246130e-04
403 6.7659151329141202e-04 2.8366386466991154e-04 6.8734477175210731e-04
404 6.6953407075966565e-04 5.7977607526309561e-04 4.5247259616761862e-04
405 -3.1274913535224831e-04 -9.3078469163104360e-04 8.5553919167008510e-05
406 2.6506680147832582e-04 -3.0254358449409007e-04 -9.4139042831140919e-04
407 3.7303408981467697e-04 -2.2176143636765079e-04 -9.2573318065863875e-04
408 9.5858536704971633e-05 5.0167533280364742e-04 -8.8080159764842821e-04
409 -8.7878083593622845e-04 4.1616209757648425e-04 1.6865914660268801e-04
410 -4.6286427975470817e-04 7.9876512234790362e-04 3.5783783042246919e-04
411 5.7108698568256666e-04 4.4392841044015681e-04 -6.9737640022849692e-04
412 4.6762189724339020e-04 6.4604874632807343e-04 6.0550531770471149e-04
413 8.1734064852288834e-04 2.9492389401035164e-04 4.8594881996616874e-04
414 8.3572976864404924e-04 3.7799383679405063e-04 3.7536093822571190e-04
415 4.2431139586492661e-05 -1.7242417685553658e-04 -1.0143942862830646e-03
416 -9.5990743884634584e-04 2.1518225933678904e-04 -4.8520872652504399e-05
417 -9.6732548092072834e-05 3.8691917239422319e-04 -9.4215507766998174e-04
418 -1.5721958651317800e-04 2.7913795619275182e-04 -9.7514156692050566e-04
419 3.6750735000745195e-05 2.0321635795914918e-04 -1.0073462003284174e-03
420 -8.7853536311427791e-05 -8.8596520525031081e-05 -1.0234473729187142e-03
421 -9.3226826030665068e-04 3.1406274704034033e-04 5.0569807288786624e-05
422 7.9664368761225629e-04 -2.5553446978219570e-04 -5.4446574214952125e-04
423 7.9434395327519726e-04 -3.7576986789946261e-04 -4.6624966999304066e-04
424 2.5360558184320850e-04 9.4453587529215704e-04 1.2092586793475922e-04
425 3.8817050057775922e-05 -6.9230988048741909e-04 -7.3305654699370038e-04
426 1.9040124160956941e-05 -5.6980068232145885e-04 -8.4132651896885139e-04
427 -8.1363314973626188e-05 -6.1288316874867144e-04 -8.0219099218066232e-04
428 4.0365179890363236e-04 -8.8367410929749508e-04 -1.7077281746420112e-04
429 3.2043894957582979e-04 -8.9403172219904860e-04 -2.7436290172172274e-04
430 3.5266331509926549e-04 -8.4287830057950066e-04 -3.8586909203093545e-04
431 -5.9735562533388595e-04 -7.1240210215785043e-04 3.4020312424868791e-04
432 -6.3611501022321608e-04 -6.1659284229989217e-04 4.5127271474376299e-04
433 1.5057065106291055e-04 -3.7878396151123857e-04 -9.3923739069813118e-04
434 -1.3436548672444029e-05 5.9833106630763952e-04 -8.1925233789167495e-04
435 7.9722068005299370e-05 6.9383566963808724e-04 -7.2617038704659805e-04
436 8.8067751836570589e-04 2.5458463926412539e-04 3.7714825985269909e-04
437 8.9453899103802514e-04 3.3037650153019819e-04 2.5789753063233407e-04
438 8.4757218959640248e-04 4.3143459126805602e-04 2.6682221273592431e-04
439 7.6836949308802156e-04 2.2806357275460172e-04 5.9922639690218420e-04
440 -5.8208831123188122e-04 7.3956609672282743e-04 3.0256696098340780e-04
441 -6.8844375003152436e-04 6.7084681928771309e-04 2.2542427511134964e-04
442 6.9549812795391636e-04 -1.2596858963353930e-04 7.1830349159739766e-04
443 7.2538644401986814e-04 -2.4888042972461770e-04 6.4729371788436996e-04
444 8.1120456446255075e-04 -2.4622452607394810e-04 5.2536283505854339e-04
445 7.4509766158516383e-04 -3.6309843010837758e-04 5.5743538898003016e-04
446 8.1779508626323783e-04 -3.5715467160850193e-04 4.3708721589138497e-04
447 7.4449683522547644e-04 -4.6314595262140915e-04 4.7021331186463034e-04
448 6.6674369620920728e-04 -4.6940146298336501e-04 5.7828396427532427e-04
449 8.0765278470450467e-04 -4.6269365889520518e-04 3.3847813778986797e-04
450 8.7382778573748005e-04 -3.4967299491163537e-04 3.0508861368050910e-04
451 6.4697051249265050e-04 -5.8329931003470745e-04 4.8298291486853983e-04
452 7.0083586451993298e-04 1.3623139433704761e-04 7.1102755801801031e-04
453 -5.6322992815637039e-04 -7.9737893476925154e-04 1.3765780123981954e-04
454 2.5766969591500757e-05 -4.4598113778943120e-04 -9.1954274658203878e-04
455 8.9360993141444770e-04 3.9136665379342194e-04 1.4218259239359807e-04
456 4.9646450540558507e-04 -2.3683253474501845e-04 -8.5531924507982081e-04
457 5.2192403917898037e-04 5.4554173251138713e-04 -6.6076329821108633e-04
458 6.2074718806109333e-04 -2.4930465548556415e-04 7.5785365638520721e-04
459 1.4414973470004214e-04 9.5232510295089473e-04 2.1372071132018473e-04
460 6.3368936297986350e-04 6.8157908720427307e-04 3.3703463300742783e-04
461 4.0771861739854342e-04 5.6647194874740391e-04 -7.2611549522760951e-04
462 -4.3406629873599578e-04 7.0494003754696471e-04 5.5693272021105475e-04
463 7.7599694724580853e-04 -1.3403476888673740e-04 -6.1944386853267266e-04
464 8.6286188995847338e-04 -2.5096270837699029e-04 -4.2285987497218779e-04
465 8.5841112929926011e-04 -3.6131003901595349e-04 -3.3642358713859596e-04
466 1.0649862787947011e-05 8.2992854282110476e-04 -5.5374147920728113e-04
467 9.1423519870126898e-04 -2.4068052008507584e-04 -2.8986077452225473e-04
468 9.0438290406060309e-04 -3.4345190942047799e-04 -1.9694293750479447e-04
469 1.6489211057047571e-04 3.9215202569022040e-04 -9.2943644373429156e-04
470 8.5122567397117807e-04 -4.5554145575597068e-04 2.0672237528964355e-04
471 9.1181219656248484e-04 -3.3508390051214957e-04 1.7144698771350139e-04
472 1.9904666759693238e-04 7.7692536226275899e-04 5.9791360095060009e-04
473 1.7149885249939499e-04 -2.5289627054253825e-04 -9.8074680315401444e-04
474 2.2134712495439857e-04 -8.9045403736625641e-04 -3.7576007232487297e-04
475 5.6966885591796428e-04 7.6119915288886146e-04 -2.6786170208536005e-04
476 3.2339850024470793e-04 7.1756945873329748e-04 6.1910700700533536e-04
477 3.0522620026380822e-04 7.4016309216398809e-04 -5.9943859613817234e-04
478 -1.9754269892435699e-04 -5.8848954624785271e-04 -7.9965837873639302e-04
479 -1.8216689572947634e-04 -6.8364474777260020e-04 -7.1690505325405882e-04
480 -3.8641538688452949e-04 8.2337689632456764e-04 -3.9380936898467822e-04
481 2.0794424245885250e-04 6.8689154717938819e-04 -7.0480972970813878e-04
482 7.6198448964541379e-04 -5.8461712919440642e-04 2.3482484698528704e-04
483 8.8763442976994586e-04 -4.2153094182134149e-04 7.3527789359408095e-05
484 9.3319716002530407e-04 -3.1168692528246147e-04 4.6920996979977495e-05
485 6.1047248973017084e-04 -2.4806498654641958e-04 -7.6635526473473308e-04
486 4.1629250350862983e-04 1.6504452462972683e-04 -9.1797733846485938e-04
487 9.7559089711542939e-04 1.2149967836123960e-04 -6.8712612213472804e-05
488 9.4406797496665031e-04 2.6043559088122199e-04 -1.1905483593952618e-04
489 9.5844147984538042e-04 2.2427152379096027e-04 7.1929349977404881e-06
490 8.9149717337769728e-04 4.1039943696759561e-04 -8.9919856823601020e-05
491 3.4682665222848921e-04 9.2155204393530002e-04 2.1663775841203510e-05
492 3.0160812689623487e-04 9.3105663133242849e-04 -1.1776258188951209e-04
493 4.3648141013127493e-04 8.8022555349709744e-04 -6.7107340683109619e-05
494 9.0761351423356842e-04 -3.7884303161167407e-04 -5.5610109284525708e-05
495 9.4337694785329661e-04 -2.7151245568853743e-04 -8.3091231714568683e-05
496 -3.9389788973266492e-04 9.0220120739790207e-04 1.2780950774879167e-05
497 9.7540727083608768e-04 1.1961673468366268e-04 7.2350048736126148e-05
498 6.7975873099857095e-04 6.6968838435114075e-04 -2.5490350702825549e-04
499 9.7612186993094817e-04 -1.1613731340705304e-04 -7.7399750989527654e-05
500 9.5960572465829386e-04 -1.0731965251492638e-04 2.0499363968878829e-04
501 9.1341570317750764e-04 -1.2280762119348254e-04 -3.6436473746320210e-04
502 8.6100290151222103e-04 1.2326326001184853e-04 -4.8371698782363141e-04
503 8.6451107274263504e-04 -1.2144833672436304e-04 4.7787121528940674e-04
504 4.6314693288476569e-04 1.1911387609173843e-04 9.0162410322394834e-04
505 4.4948308293863164e-04 3.5467823420201009e-04 8.3852129873161318e-04
506 6.5728939160587796e-04 -3.5928980051149753e-04 6.6950939889361073e-04
507 3.5743810369750681e-04 -1.1965679428333184e-04 9.5296291154970813e-04
508 6.3854300108494671e-05 -1.5774850355508452e-04 1.0172475625567891e-03
509 1.7783989441820088e-04 -2.4205777133622138e-04 9.8251311150407417e-04
510 2.9448416578218536e-04 -1.9566343072736046e-04 9.6172651703495954e-04
511 -2.0277163862643700e-04 6.9975925269834206e-04 -6.9266846317333304e-04
512 2.6519406208122846e-04 9.1537049764330882e-04 2.5959731516603474e-04
513 5.7732562781468311e-04 -7.9794694014236078e-04 -3.8006496765804282e-05
514 2.5243678183553949e-04 -9.5176238189117210e-04 4.0746378828253115e-05
515 2.9844942997440341e-04 -9.2463062425067878e-04 1.7253956824605948e-04
516 -5.5283057382216787e-04 5.6165952300120143e-04 -6.1708567886886809e-04
517 7.5778910027840226e-04 -5.7514511839026970e-04 -2.6834546802167146e-04
518 -1.4210188825758269e-04 -9.7283858597710198e-04 -6.5005668447281175e-05
519 -2.8576480010580196e-04 -9.4120745968616153e-04 -6.6820988117777299e-05
520 -3.2569980160448281e-04 -9.0898248608335599e-04 -2.0483784973957496e-04
521 -7.7405464852853571e-04 5.2808954204839709e-04 -3.1561691562036540e-04
522 -9.7175070842783642e-04 9.3797130607217624e-05 -1.3403597113336672e-04
523 7.7855278069391453e-04 5.9301456247809611e-04 1.1452517758614256e-04
524 -7.8164245399105908e-04 -5.4380472666166275e-04 2.6380152574900545e-04
525 7.7832362723870936e-04 4.8890772053977911e-04 3.6976205812278207e-04
526 4.7478587844561229e-04 -7.7582959635244758e-04 -3.9602070325151780e-04
527 -9.3781607935846637e-04 -2.7900810418233721e-04 -1.1636746254489099e-04
528 -9.3036381551141146e-04 -8.0097102958579734e-05 3.2723380244231227e-04
529 -9.0788970106320201e-04 4.3702491572129921e-05 3.9617012155295352e-04
530 -8.4306123424711334e-04 3.9848006084011457e-05 5.3147075827051195e-04
531 -7.6371632545169338e-04 -6.1388941549268058e-04 -1.0711147818903181e-04
532 -9.6472892557317657e-04 -7.3149847451665646e-05 1.9123882107206878e-04
533 -7.3547464901782360e-04 5.2152349271915245e-04 4.1323930393100437e-04
534 -6.8716491754612077e-04 7.0429383524673954e-04 -1.8779350784021927e-05
535 -2.3888926825443824e-04 -9.0710491588210978e-04 -3.1561528458595430e-04
536 6.2890925738872316e-04 7.4505247212559064e-04 -1.4473860578726852e-04
537 -1.3996008146967756e-04 -8.8656221454341821e-04 4.2503119605673137e-04
538 -4.8390832965431997e-05 9.7898034128220644e-04 -9.5287229585697009e-05
539 -1.7431878171812214e-04 9.3285759617189423e-04 -2.7266588543568436e-04
540 5.9403459402129165e-05 9.6428908521049882e-04 -2.0105495735982080e-04
541 -9.2851474841417717e-04 2.7509719649455568e-04 1.8663385851193620e-04
542 -8.6078584268146647e-04 -4.3352891222794588e-04 2.1259791305944286e-04
543 -8.0567169610075494e-04 -8.3865832218242532e-05 5.8570223059148288e-04
544 -7.6134750494146006e-04 2.4168297593651968e-05 6.5265517573598537e-04
545 -6.6073271109978087e-04 -5.1969596341438487e-04 -5.3663220749052541e-04
546 -7.4234964992236788e-04 -4.3266463432602723e-04 -5.0278644400196428e-04
547 -7.5311826609826820e-04 -3.1502764698878205e-04 -5.7597085756818614e-04
548 -6.6643205105788655e-04 -2.8408914674879872e-04 -6.9822287771737065e-04
549 2.6851635078758317e-04 -8.0566295578727274e-04 5.2284008528651429e-04
550 5.8097318056610388e-04 5.9346160334287391e-04 5.5238043911060508e-04
551 8.6328624803857124e-04 3.6279723376933423e-04 -3.1868040809290198e-04
552 8.7696692797776523e-04 -2.3825954615479177e-04 3.9855304097043647e-04
553 1.6134501158133463e-04 -7.7048833015930479e-04 6.2008874267318887e-04
554 -4.4718428279157699e-04 -6.3907026507623781e-04 6.3069546939785827e-04
555 -3.9762822390918500e-04 -5.6107539241169913e-04 7.3843295114554375e-04
556 -8.1730871257448996e-04 -4.3581851350346342e-04 3.5057773725833351e-04
557 -6.0334772307880675e-04 -7.0660442802321301e-04 -3.4103046133200833e-04
558 -7.2428442466092064e-04 2.4522761396079268e-04 6.4867737292693603e-04
559 -6.8136407526555719e-04 -4.2769442838303364e-04 5.9423942813002556e-04
560 -5.9000091886702503e-04 -5.5295041082112644e-04 5.8968567336846770e-04
561 6.4801327107542645e-04 4.8428656715556991e-04 -5.8819670929772931e-04
562 -3.2642757637056440e-04 -6.8157227474254065e-04 -6.6159037493500653e-04
563 -4.9881085639867000e-04 5.2280645496253510e-04 6.9968008680046064e-04
564 7.0817003306408461e-04 -4.9458969087559082e-04 -4.9599739650158349e-04
565 -9.0580606916491175e-05 -3.3010728851259538e-04 9.6775757862071642e-04
566 -1.2452635127899951e-04 -4.4977002101118460e-04 9.0868651811805228e-04
567 -2.1599098376152211e-04 -3.6369872750168631e-04 9.3194674557057588e-04
568 -1.8011030151806673e-04 -6.6782862719373442e-04 7.3418014426108926e-04
569 4.0089872969889247e-04 -6.8065943551489565e-04 -6.1623924766246246e-04
570 -7.2207916890023390e-04 -9.8025388771950543e-05 6.9276736169528240e-04
571 5.6292356118987918e-04 3.3186613213639628e-04 7.7077767687617647e-04
572 5.1340854453275377e-04 -3.6423745797524920e-04 -7.9310437237906908e-04
573 1.3099292680636204e-04 -3.7625265802457508e-04 9.4362533595030492e-04
574 -7.4479632555212306e-04 1.9116888593395898e-04 -6.4300391012030069e-04
575 1.4827235964052157e-04 -5.0522185573320102e-04 -8.7218125382790149e-04
576 -4.6356748071173763e-04 -4.1991513130779318e-04 7.9793802198023674e-04
577 -3.4881494957955493e-04 3.8361667746049713e-04 -8.7631528908703839e-04
578 -2.8470986385627478e-04 2.8118377776394337e-04 -9.4212104996966217e-04
579 -3.5692416333017496e-04 1.7103292424690080e-04 -9.4420552164955270e-04
580 -5.2002308261344158e-04 1.0382204898014825e-05 -8.7530526699415383e-04
581 4.5767470459332957e-04 -5.6304440885082631e-04 6.9860647708478211e-04
582 4.9066441975992401e-04 -3.1925213012890544e-04 8.2949076512013609e-04
583 -4.7724817737027813e-04 1.4488214976411196e-04 -8.8885812597705948e-04
584 -4.4111272664694635e-04 2.0333209135642120e-04 8.9679327679218293e-04
585 -4.7908800532606941e-04 7.6995645210911829e-05 8.9711140259638930e-04
586 -3.6426300147744824e-04 -4.3171267405501987e-04 -8.4455847327573417e-04
587 2.9812648096634761e-05 9.3976337457843894e-04 3.0521068828475936e-04
588 -4.3289501000540501e-04 -9.4949085047221410e-05 -9.2068912657950939e-04
589 -3.0835532686101353e-04 -6.3787578521250427e-05 -9.7696689779573393e-04
590 -2.1029661363654472e-04 -1.3021438640735498e-04 -9.9856221068160859e-04
591 -1.7753588859072207e-04 4.6603811755804918e-04 8.8866915165505464e-04
592 -5.0265288248679926e-04 7.8980418674366227e-04 -3.1860945407685259e-04
593 -2.7026312887046863e-04 -1.2026903039301620e-05 9.9179883642296724e-04
594 3.9006336412923860e-04 2.4172280445206509e-04 9.1237289970068629e-04
595 -7.9358390574170564e-04 5.5517739595083875e-04 1.8567462235925770e-04
596 4.2920005556460811e-04 -8.6789614916833193e-04 1.9235026694457524e-04
597 9.7104431844801371e-05 4.7480659754281339e-04 8.9739005742225681e-04
598 3.2783963414185910e-04 8.9341159956977435e-04 -2.6346621321177610e-04
599 1.9493022396150996e-04 -6.7449879644420425e-04 7.2352287846633590e-04
600 -5.1698330574967530e-04 -8.0102203654539462e-04 2.5996416534218488e-04
601 -8.3282337573436865e-04 4.0436839275406587e-04 -3.4962229164704246e-04
602 -8.0980038909597826e-04 3.3732462685228157e-04 -4.6724376439018380e-04
603 -7.3919927274066226e-04 -5.2969457909052167e-04 -3.9662270911876903e-04
604 -8.9672419016846041e-04 1.3083344471680961e-04 -4.0196203045813548e-04
605 -3.9895715378400313e-04 -9.0038938243478472e-04 2.0288428067575679e-05
606 -3.2685672575774333e-04 8.4199845800137874e-04 4.0929269011498654e-04
607 2.8380961522377580e-05 1.7177737070455857e-04 1.0146577701003053e-03
608 -5.7500585753090307e-05 7.7825600175886525e-04 6.2785860953105596e-04
609 -7.4883063821992095e-04 -1.7971454134843972e-04 -6.4212578810991566e-04
610 9.4388427663109908e-04 2.5467931589764464e-04 1.3236460970013589e-04
611 4.5497771707568075e-04 -1.0446462997332079e-04 -9.0812205406871677e-04
612 9.1919382812460091e-04 1.2162277805712152e-04 3.4783286461835907e-04
613 -3.7064417584587838e-04 -8.5650905085402518e-04 -3.3024470212158894e-04
614 5.9728502681492563e-05 -7.9357238777494788e-04 -6.0754230976681201e-04
615 4.5824041622810055e-04 -8.7110491512912454e-04 -4.7401896884239845e-05
616 -6.7884757455367059e-04 -6.8948399296732779e-04 -1.9629299709863788e-04
617 -9.2052743598801661e-04 -2.5264744481590893e-04 -2.5284159292939353e-04
618 -6.2614833583483388e-04 4.4369542412536230e-04 -6.4486422092577982e-04
619 1.7609857956076547e-04 -9.4353066965473253e-04 -2.3567762217887450e-04
620 -3.4044721140972297e-05 -9.2958965033760645e-04 3.4007614152351153e-04
621 3.8229758789970383e-04 -7.6856012402949712e-04 -5.0601706516002266e-04
622 -2.4260743978283110e-04 -4.7146545374066159e-04 8.6930925356411715e-04
623 7.8079234155728797e-04 -4.8188139382286508e-04 -3.7556089210619137e-04
624 9.1927793679755601e-04 1.2368984736742269e-04 -3.4696796839991234e-04
625 -4.1817780000546470e-04 6.2218650530746671e-04 6.6716018417529164e-04
626 -2.6915065407694615e-04 -5.7812228296020120e-04 7.8578981712971909e-04
627 -1.0918765160614951e-04 5.6990985912603513e-04 8.3234842012304920e-04
628 4.7436805872475783e-04 8.6097736707903402e-04 6.2854594983110176e-05
629 -9.4865303413204066e-04 4.2399237704613790e-05 2.7164015390791817e-04
630 -5.7781278233357512e-04 7.8127847096385835e-04 1.6437776567723852e-04
631 -8.2521174716228274e-04 -1.9832425132023805e-04 -5.2184162893477285e-04
632 -3.9766584948425324e-04 8.6439863366817430e-04 -2.6399106245809717e-04
633 9.2101925950886375e-04 2.3820665653333538e-04 -2.6706740151915420e-04
634 -3.5393480714500749e-04 1.0404005698596007e-04 9.5625920386084129e-04
635 3.8430959378399945e-04 -9.0533303031863023e-04 6.4711170920138744e-05
636 -6.4214645236168564e-05 -9.6399506013129289e-04 2.0224935200510811e-04
637 -5.1527565574424063e-04 -5.2849660479161511e-05 8.7693508076504268e-04
638 4.5760256332833400e-04 2.9159840606091873e-04 -8.5858085956595407e-04
639 4.5994317299286042e-04 -1.0587275883847671e-04 9.0529589412149296e-04
640 -6.9714674082610575e-05 6.8848078917078785e-04 -7.3246808920230722e-04
641 -9.4381317907267297e-04 2.2335204402385795e-04 -1.7706838807166059e-04
642 -8.6883415916317187e-04 2.6823672612626300e-04 -3.9426399785721716e-04
643 2.8566111041382667e-04 -7.2032588157788921e-04 6.3644428575916699e-04
644 5.7047019210715766e-04 -4.6296526821564248e-04 6.8647801974619667e-04
645 6.3521974364416460e-04 2.3151781631494461e-04 -7.4905924973418521e-04
646 -2.3631768270508560e-04 1.3267095653943779e-04 9.9156257334842243e-04
647 1.9263104164524088e-05 5.8645538846564523e-04 8.2741979851491578e-04
648 -7.4804275270400284e-04 5.7016062903068974e-04 3.0090831708694493e-04
649 -2.7092924783688214e-04 9.4439228265064156e-04 6.5493618462148659e-05
650 9.2439318469705900e-04 -2.2880733028231287e-04 2.6463820780482666e-04
651 -4.6462020499477734e-04 -8.4497093520774112e-04 -2.1280170029204867e-04
652 -8.6654181188995422e-04 -3.4504076556248143e-04 -3.2974433439401620e-04
653 -2.2400076307994946e-04 1.6912623514666553e-04 -9.8851396137770932e-04
654 8.3700464228584606e-04 -4.6122346297802156e-04 -2.5024563934435200e-04
655 -7.1841753094084831e-04 4.0764748162202456e-04 -5.5982398525830656e-04
656 6.7966090382791215e-04 -1.2783101102807842e-04 -7.3422339002656204e-04
657 -7.3615524452524982e-04 -5.3690765462181215e-04 3.9099299363253232e-04
658 -4.0601977009138972e-04 2.8072682391080645e-05 -9.3875803516553003e-04
659 -1.8432772812318108e-04 3.7674102969367305e-05 -1.0133969324613954e-03
660 -5.5082783587962331e-05 1.7531459531542021e-06 -1.0293212140046774e-03
661 8.5062632714724814e-04 -4.9617914381024921e-04 -2.5558406670931415e-05
662 5.1145400851399246e-05 -2.6194215015301056e-04 9.9381047920462230e-04
663 5.2062720818475412e-04 8.2141743347477318e-04 -1.6023856407934367e-04
664 -2.8364847302088679e-04 9.4028789948218908e-04 -6.8635101204360060e-05
665 -2.8984507219436859e-04 9.2000871142667803e-04 -2.0465169765041384e-04
666 -1.0067752269596907e-04 1.4411830210431462e-04 -1.0155622659180099e-03
667 2.5736165082446475e-04 -8.2948863633447738e-04 -4.8671704182965460e-04
668 -5.8790445015171494e-04 4.5797831461912357e-05 8.2534467302416070e-04
669 -8.1907013244324602e-04 -3.2102371258481345e-04 -4.6201816181561979e-04
670 -4.9197300580954624e-04 8.4816670433179398e-04 9.1460650974964440e-05
671 -9.5300475605821736e-04 1.4934495841481489e-04 2.0075030669815263e-04
672 5.6450639479496798e-04 -3.7833649450909291e-04 7.4512465025014475e-04
673 -3.2235586583570358e-05 2.7640778665921514e-04 -9.8877781435210976e-04
674 -1.9381955779215591e-04 -9.5346824351790003e-04 1.6127006069914876e-04
675 4.2313407097585733e-04 7.2984272081086962e-04 5.2942468696010655e-04
676 7.8003012653656001e-05 7.4207352955237016e-04 6.7229445608216459e-04
677 5.0910742650871481e-04 2.2752461994390459e-04 8.4963480346174282e-04
678 -4.7494061318505176e-04 -7.7999089690578059e-04 3.8581273559425502e-04
679 3.1551714821916477e-04 -9.7318776694033083e-05 -9.7218223602202444e-04
680 3.9890019363822659e-04 -6.6519600023150585e-04 6.3414605131708874e-04
681 -8.7316019834245118e-04 1.4657596336911395e-04 4.4822141076986772e-04
682 -8.8931800506657287e-04 4.2047228162508395e-04 2.1414772298177289e-05
683 -8.1924568710773024e-05 2.1039805078612848e-05 1.0270049688517813e-03
684 3.3644847337484555e-04 -9.2460632911905061e-04 -5.2801891388207975e-05
685 4.0755998162111056e-04 8.7964614883991401e-04 -1.7447177649038522e-04
686 1.7506939199142099e-04 -7.9775539479963518e-04 -5.7485076075546276e-04
687 1.6744186579609264e-04 9.6173853536187328e-04 -1.2760186237814223e-04
688 -8.0199069693859097e-04 -4.2567093537893420e-04 -3.9617474312869243e-04
689 -5.3772035823512960e-04 -6.4706717551335188e-04 5.3372436146309184e-04
690 5.8275010366534339e-04 -6.7512181410852039e-04 4.3627661011634772e-04
691 9.5221899459647279e-04 -2.1735670079404547e-04 1.3405432077653466e-04
692 -6.8025629180273786e-04 -5.1909237445276878e-04 5.0824478737534096e-04
693 9.2613846611212271e-04 2.1704693586696911e-04 2.6448845726982905e-04
694 -1.8001483344477786e-04 9.5828913658462618e-04 -1.3938525046403819e-04
695 9.0158592742471406e-04 3.4548115311130062e-04 -1.9988290014366671e-04
696 -5.3104698208592395e-05 6.8325936966489816e-04 7.4057219284850951e-04
697 -3.5208704300635109e-04 -4.8830101124814945e-04 8.1522317110484417e-04
698 9.2180146132297372e-04 3.4755559921669833e-04 1.4065947041644994e-05
699 -5.0106499803659538e-04 -5.3107678461402057e-04 6.9089518847733592e-04
700 -6.7728681545940197e-04 2.9671318926547128e-06 7.4658798239741065e-04
701 5.7003796043107301e-04 -5.5869487969562590e-04 6.0283674572071135e-04
702 -6.8927026267574820e-04 -6.3028095101180564e-04 -3.2417944486698929e-04
703 -7.6373635776636644e-04 2.9451333208422480e-04 -5.7044001539880340e-04
704 4.0243254209622490e-05 3.8159008774944498e-04 -9.4899633985149831e-04
705 3.3420803947704501e-04 6.5767062844363639e-04 -6.8053497496941629e-04
706 -3.2377299946829806e-04 7.0778687296137838e-04 6.2874834882620419e-04
707 1.1547361073738025e-04 -9.1885442695115323e-04 -3.4971291267137501e-04
708 -6.6286091366306679e-04 7.2035916797206665e-04 9.8048966397852944e-05
709 1.7490311291832115e-05 7.5580950947976532e-04 -6.5828957282860492e-04
710 -4.2134809175993721e-04 7.6907066556627674e-04 4.6583787813046855e-04
711 -9.1567100671656714e-04 2.1411627912362854e-04 -3.0108588514234926e-04
712 7.8734548457577811e-04 1.0246656894528631e-04 6.0827108944540688e-04
713 -2.1695375793122839e-04 -7.4608818173237156e-04 -6.3191883341454373e-04
714 6.4444064825600826e-04 3.6316756884098513e-04 -6.7986393613966856e-04
715 -2.0631459874563722e-04 -9.6177904145768674e-04 4.1655425223877004e-05
716 -2.8013126145211411e-04 5.9473628436078605e-05 -9.8587737358734749e-04
717 -4.0074495845848182e-04 -8.9285526921230980e-04 -1.0939750312315616e-04
718 5.1270786464706916e-04 -2.1521539865912767e-04 8.5022331361037193e-04
719 7.2839273283717768e-04 -5.5781349521566914e-04 3.7404505450162109e-04
720 8.3091668219896779e-04 5.0081306738820961e-04 1.7262026934185916e-04
721 2.4454973509157365e-04 -1.9921477509166315e-04 -9.7641448945201190e-04
722 -5.6940583380217112e-04 -7.6753622599778307e-04 -2.4566817684188927e-04
723 3.4432098186976594e-05 6.7170568137928151e-05 -1.0282016729142971e-03
724 -1.8201214661999610e-04 7.3805533279302322e-04 6.5548529394736941e-04
725 8.6549170118353780e-04 -4.5113442867069888e-04 -1.3283185255853788e-04
726 6.1307859617055560e-04 2.1499241775474554e-04 7.7345409874262673e-04
727 7.8660039064835886e-04 5.4491499881160305e-04 2.4236958383598638e-04
728 5.6047778338855453e-04 5.9591527246582511e-04 -5.7151028354565918e-04
729 4.8499901538276332e-04 1.0779819852528978e-04 -8.8910260848066300e-04
730 7.3071851096349807e-04 5.8844482278736291e-04 3.1014533808319204e-04
731 -2.6539421413998836e-04 -6.2972660384541296e-04 -7.3943341612326134e-04
732 3.4970274967101691e-04 6.4500398415588743e-04 6.8624301024226494e-04
733 -7.4566904519844134e-05 9.6128552145007733e-04 -2.0268415977372356e-04
734 -2.4522084270266160e-04 -5.0488954458435939e-04 -8.4589625361157494e-04
735 9.4651751917340622e-04 -2.1510781359088490e-04 -1.7094843281158608e-04
736 9.6099247204227238e-04 -2.1166721270773718e-04 2.3049190324028848e-05
737 -5.0219770495754047e-05 -7.5427682078473910e-05 1.0264892333680439e-03
738 -4.8996330813031157e-04 -8.5221819788687753e-04 4.9876435642534811e-05
739 5.2272456283871120e-04 2.0444649535061922e-04 -8.4624294254616967e-04
740 -7.6988641755103434e-04 1.2611085649310861e-04 6.2690115768372883e-04
741 -1.7720416542751983e-04 2.3506157777368788e-05 1.0132016790205679e-03
742 -5.3247488253204453e-04 -7.0939429337122100e-04 4.4528841596754476e-04
743 -2.4055559606890164e-05 4.6723728045718315e-04 -9.0559782485631439e-04
744 2.8610496645019344e-04 -9.2976705935316720e-04 -1.5766794140084148e-04
745 -8.7517368709322916e-05 -6.9133397988651950e-04 -7.2554992951433044e-04
$EndNodes
$Elements
1486
1 2 2 0 0 410 440 345
2 2 2 0 0 421 541 409
3 2 2 0 0 409 682 421
4 2 2 0 0 545 603 546
5 2 2 0 0 426 427 294
6 2 2 0 0 294 454 426
7 2 2 0 0 265 682 409
8 2 2 0 0 24 41 4
9 2 2 0 0 3 24 4
10 2 2 0 0 238 642 602
11 2 2 0 0 520 651 613
12 2 2 0 0 653 666 659
13 2 2 0 0 404 460 98
14 2 2 0 0 222 482 219
15 2 2 0 0 40 463 9
16 2 2 0 0 608 724 696
17 2 2 0 0 435 709 69
18 2 2 0 0 413 439 29
19 2 2 0 0 345 710 410
20 2 2 0 0 422 463 40
21 2 2 0 0 98 550 404
22 2 2 0 0 95 724 608
23 2 2 0 0 4 41 5
24 2 2 0 0 232 701 581
25 2 2 0 0 490 698 488
26 2 2 0 0 29 436 413
27 2 2 0 0 416 421 342
28 2 2 0 0 312 595 441
29 2 2 0 0 41 486 5
30 2 2 0 0 405 605 519
31 2 2 0 0 409 595 265
32 2 2 0 0 69 481 435
33 2 2 0 0 434 743 339
34 2 2 0 0 342 641 416
35 2 2 0 0 485 656 370
36 2 2 0 0 89 587 90
37 2 2 0 0 108 466 317
38 2 2 0 0 378 629 529
39 2 2 0 0 581 680 232
40 2 2 0 0 281 434 339
41 2 2 0 0 638 739 486
42 2 2 0 0 659 666 660
43 2 2 0 0 345 440 346
44 2 2 0 0 22 44 25
45 2 2 0 0 9 463 8
46 2 2 0 0 44 81 25
47 2 2 0 0 459 587 89
48 2 2 0 0 127 670 630
49 2 2 0 0 508 662 509
50 2 2 0 0 375 662 508
51 2 2 0 0 492 598 103
52 2 2 0 0 604 642 238
53 2 2 0 0 507 510 399
54 2 2 0 0 488 698 489
55 2 2 0 0 34 473 415
56 2 2 0 0 399 639 507
57 2 2 0 0 603 688 546
58 2 2 0 0 316 541 421
59 2 2 0 0 647 696 627
60 2 2 0 0 403 439 352
61 2 2 0 0 221 603 545
62 2 2 0 0 595 648 441
63 2 2 0 0 412 550 98
64 2 2 0 0 411 714 397
65 2 2 0 0 486 739 729
66 2 2 0 0 696 724 401
67 2 2 0 0 247 482 222
68 2 2 0 0 397 714 645
69 2 2 0 0 613 651 212
70 2 2 0 0 207 745 425
71 2 2 0 0 98 675 412
72 2 2 0 0 219 482 230
73 2 2 0 0 560 692 432
74 2 2 0 0 432 689 560
75 2 2 0 0 454 575 426
76 2 2 0 0 352 439 413
77 2 2 0 0 415 420 2
78 2 2 0 0 40 464 422
79 2 2 0 0 89 512 459
80 2 2 0 0 425 614 207
81 2 2 0 0 377 600 453
82 2 2 0 0 89 90 88
83 2 2 0 0 80 466 108
84 2 2 0 0 520 717 651
85 2 2 0 0 602 703 238
86 2 2 0 0 103 687 492
87 2 2 0 0 253 491 424
88 2 2 0 0 69 709 466
89 2 2 0 0 424 512 253
90 2 2 0 0 369 696 647
91 2 2 0 0 581 701 644
92 2 2 0 0 630 670 392
93 2 2 0 0 32 656 485
94 2 2 0 0 459 512 424
95 2 2 0 0 90 91 88
96 2 2 0 0 427 478 294
97 2 2 0 0 488 695 490
98 2 2 0 0 554 699 560
99 2 2 0 0 67 80 79
100 2 2 0 0 252 454 294
101 2 2 0 0 253 628 491
102 2 2 0 0 529 681 378
103 2 2 0 0 519 715 405
104 2 2 0 0 440 441 346
105 2 2 0 0 605 717 519
106 2 2 0 0 403 452 439
107 2 2 0 0 507 639 21
108 2 2 0 0 565 567 566
109 2 2 0 0 433 454 341
110 2 2 0 0 67 466 80
111 2 2 0 0 555 697 576
112 2 2 0 0 491 628 493
113 2 2 0 0 389 641 342
114 2 2 0 0 429 619 474
115 2 2 0 0 40 501 464
116 2 2 0 0 576 699 555
117 2 2 0 0 311 600 377
118 2 2 0 0 567 622 566
119 2 2 0 0 433 575 454
120 2 2 0 0 378 671 629
121 2 2 0 0 79 540 103
122 2 2 0 0 341 473 433
123 2 2 0 0 673 704 68
124 2 2 0 0 462 710 345
125 2 2 0 0 557 722 616
126 2 2 0 0 573 662 343
127 2 2 0 0 370 656 463
128 2 2 0 0 341 454 252
129 2 2 0 0 616 702 557
130 2 2 0 0 6 26 7
131 2 2 0 0 464 501 467
132 2 2 0 0 433 473 406
133 2 2 0 0 8 45 37
134 2 2 0 0 466 709 317
135 2 2 0 0 457 461 379
136 2 2 0 0 84 512 86
137 2 2 0 0 19 452 33
138 2 2 0 0 380 614 425
139 2 2 0 0 83 540 79
140 2 2 0 0 398 510 509
141 2 2 0 0 609 631 137
142 2 2 0 0 18 442 36
143 2 2 0 0 26 45 7
144 2 2 0 0 565 566 343
145 2 2 0 0 80 83 79
146 2 2 0 0 560 689 554
147 2 2 0 0 134 137 136
148 2 2 0 0 68 469 42
149 2 2 0 0 659 716 653
150 2 2 0 0 619 707 474
151 2 2 0 0 497 610 39
152 2 2 0 0 137 138 136
153 2 2 0 0 283 573 343
154 2 2 0 0 506 644 448
155 2 2 0 0 499 735 31
156 2 2 0 0 81 97 25
157 2 2 0 0 45 46 37
158 2 2 0 0 585 668 637
159 2 2 0 0 495 735 499
160 2 2 0 0 399 510 398
161 2 2 0 0 509 573 398
162 2 2 0 0 442 443 36
163 2 2 0 0 1 607 314
164 2 2 0 0 29 612 436
165 2 2 0 0 547 631 609
166 2 2 0 0 360 595 409
167 2 2 0 0 421 682 342
168 2 2 0 0 426 575 327
169 2 2 0 0 123 577 235
170 2 2 0 0 339 743 417
171 2 2 0 0 7 45 8
172 2 2 0 0 3 723 24
173 2 2 0 0 418 666 653
174 2 2 0 0 59 60 58
175 2 2 0 0 620 636 193
176 2 2 0 0 42 469 47
177 2 2 0 0 65 67 66
178 2 2 0 0 509 662 573
179 2 2 0 0 470 482 247
180 2 2 0 0 368 476 472
181 2 2 0 0 530 740 337
182 2 2 0 0 253 512 84
183 2 2 0 0 455 698 282
184 2 2 0 0 61 65 62
185 2 2 0 0 59 61 60
186 2 2 0 0 91 472 88
187 2 2 0 0 90 92 91
188 2 2 0 0 19 442 18
189 2 2 0 0 464 465 423
190 2 2 0 0 706 724 118
191 2 2 0 0 456 611 32
192 2 2 0 0 379 477 61
193 2 2 0 0 417 743 704
194 2 2 0 0 314 683 1
195 2 2 0 0 442 458 443
196 2 2 0 0 11 28 12
197 2 2 0 0 61 62 60
198 2 2 0 0 118 724 95
199 2 2 0 0 22 25 23
200 2 2 0 0 247 483 470
201 2 2 0 0 281 640 434
202 2 2 0 0 197 667 474
203 2 2 0 0 86 512 89
204 2 2 0 0 417 704 673
205 2 2 0 0 451 690 230
206 2 2 0 0 27 442 19
207 2 2 0 0 637 668 229
208 2 2 0 0 60 475 58
209 2 2 0 0 489 610 497
210 2 2 0 0 307 573 283
211 2 2 0 0 61 477 65
212 2 2 0 0 65 66 62
213 2 2 0 0 544 740 530
214 2 2 0 0 230 719 451
215 2 2 0 0 18 452 19
216 2 2 0 0 268 569 269
217 2 2 0 0 32 485 456
218 2 2 0 0 627 696 401
219 2 2 0 0 24 42 41
220 2 2 0 0 20 27 19
221 2 2 0 0 330 461 457
222 2 2 0 0 506 672 644
223 2 2 0 0 472 476 87
224 2 2 0 0 468 495 494
225 2 2 0 0 88 472 87
226 2 2 0 0 121 577 123
227 2 2 0 0 327 575 276
228 2 2 0 0 422 464 423
229 2 2 0 0 47 63 49
230 2 2 0 0 458 506 443
231 2 2 0 0 232 690 451
232 2 2 0 0 28 487 12
233 2 2 0 0 80 107 83
234 2 2 0 0 608 696 676
235 2 2 0 0 356 481 355
236 2 2 0 0 138 238 136
237 2 2 0 0 137 139 138
238 2 2 0 0 729 739 26
239 2 2 0 0 81 99 97
240 2 2 0 0 46 50 37
241 2 2 0 0 463 656 8
242 2 2 0 0 443 444 36
243 2 2 0 0 68 704 469
244 2 2 0 0 24 68 42
245 2 2 0 0 16 503 30
246 2 2 0 0 65 69 67
247 2 2 0 0 67 79 66
248 2 2 0 0 676 696 369
249 2 2 0 0 59 379 61
250 2 2 0 0 90 93 92
251 2 2 0 0 464 467 465
252 2 2 0 0 441 708 312
253 2 2 0 0 483 484 471
254 2 2 0 0 427 479 478
255 2 2 0 0 245 564 244
256 2 2 0 0 470 483 471
257 2 2 0 0 473 721 406
258 2 2 0 0 555 699 554
259 2 2 0 0 47 469 63
260 2 2 0 0 63 355 49
261 2 2 0 0 62 64 60
262 2 2 0 0 80 108 107
263 2 2 0 0 107 539 83
264 2 2 0 0 139 140 138
265 2 2 0 0 99 100 97
266 2 2 0 0 81 236 99
267 2 2 0 0 46 51 50
268 2 2 0 0 443 445 444
269 2 2 0 0 24 419 68
270 2 2 0 0 69 466 67
271 2 2 0 0 79 103 66
272 2 2 0 0 65 477 69
273 2 2 0 0 547 548 321
274 2 2 0 0 93 94 92
275 2 2 0 0 467 468 465
276 2 2 0 0 333 664 649
277 2 2 0 0 55 498 56
278 2 2 0 0 56 498 72
279 2 2 0 0 12 499 31
280 2 2 0 0 63 356 355
281 2 2 0 0 108 110 107
282 2 2 0 0 139 141 140
283 2 2 0 0 100 101 97
284 2 2 0 0 236 248 99
285 2 2 0 0 81 594 236
286 2 2 0 0 51 52 50
287 2 2 0 0 192 515 195
288 2 2 0 0 445 446 444
289 2 2 0 0 477 481 69
290 2 2 0 0 94 95 92
291 2 2 0 0 93 96 94
292 2 2 0 0 63 408 356
293 2 2 0 0 108 111 110
294 2 2 0 0 110 117 107
295 2 2 0 0 139 154 141
296 2 2 0 0 141 142 140
297 2 2 0 0 51 53 52
298 2 2 0 0 100 102 101
299 2 2 0 0 236 250 248
300 2 2 0 0 445 447 446
301 2 2 0 0 52 388 50
302 2 2 0 0 277 622 567
303 2 2 0 0 95 608 92
304 2 2 0 0 94 118 95
305 2 2 0 0 93 104 96
306 2 2 0 0 51 561 53
307 2 2 0 0 408 434 356
308 2 2 0 0 53 54 52
309 2 2 0 0 445 448 447
310 2 2 0 0 108 317 111
311 2 2 0 0 141 143 142
312 2 2 0 0 142 225 140
313 2 2 0 0 102 166 101
314 2 2 0 0 250 325 248
315 2 2 0 0 100 258 102
316 2 2 0 0 53 55 54
317 2 2 0 0 447 449 446
318 2 2 0 0 236 505 250
319 2 2 0 0 104 105 96
320 2 2 0 0 53 57 55
321 2 2 0 0 55 56 54
322 2 2 0 0 448 451 447
323 2 2 0 0 14 39 15
324 2 2 0 0 317 511 111
325 2 2 0 0 10 40 9
326 2 2 0 0 143 144 142
327 2 2 0 0 57 58 55
328 2 2 0 0 8 37 9
329 2 2 0 0 14 38 13
330 2 2 0 0 166 314 101
331 2 2 0 0 18 36 17
332 2 2 0 0 16 29 17
333 2 2 0 0 33 504 20
334 2 2 0 0 325 365 248
335 2 2 0 0 199 202 196
336 2 2 0 0 7 32 6
337 2 2 0 0 434 435 356
338 2 2 0 0 74 75 73
339 2 2 0 0 223 239 234
340 2 2 0 0 74 76 75
341 2 2 0 0 72 74 73
342 2 2 0 0 231 549 201
343 2 2 0 0 202 205 204
344 2 2 0 0 226 227 214
345 2 2 0 0 272 275 271
346 2 2 0 0 276 318 275
347 2 2 0 0 213 214 209
348 2 2 0 0 76 77 75
349 2 2 0 0 210 231 201
350 2 2 0 0 16 30 15
351 2 2 0 0 205 209 208
352 2 2 0 0 202 204 196
353 2 2 0 0 318 406 340
354 2 2 0 0 195 196 193
355 2 2 0 0 322 420 415
356 2 2 0 0 239 240 234
357 2 2 0 0 163 588 168
358 2 2 0 0 12 31 11
359 2 2 0 0 56 72 71
360 2 2 0 0 425 426 327
361 2 2 0 0 19 33 20
362 2 2 0 0 168 224 215
363 2 2 0 0 209 568 216
364 2 2 0 0 318 433 406
365 2 2 0 0 269 271 270
366 2 2 0 0 268 269 245
367 2 2 0 0 21 639 20
368 2 2 0 0 84 85 82
369 2 2 0 0 181 207 183
370 2 2 0 0 269 272 271
371 2 2 0 0 272 276 275
372 2 2 0 0 242 243 240
373 2 2 0 0 102 167 166
374 2 2 0 0 223 234 233
375 2 2 0 0 283 343 227
376 2 2 0 0 205 208 204
377 2 2 0 0 213 226 214
378 2 2 0 0 271 572 347
379 2 2 0 0 243 268 245
380 2 2 0 0 335 398 307
381 2 2 0 0 303 555 554
382 2 2 0 0 226 283 227
383 2 2 0 0 347 485 370
384 2 2 0 0 195 199 196
385 2 2 0 0 205 213 209
386 2 2 0 0 246 322 252
387 2 2 0 0 76 78 77
388 2 2 0 0 133 163 135
389 2 2 0 0 163 168 164
390 2 2 0 0 322 415 341
391 2 2 0 0 227 361 214
392 2 2 0 0 191 198 189
393 2 2 0 0 78 84 82
394 2 2 0 0 209 216 208
395 2 2 0 0 78 82 77
396 2 2 0 0 216 303 266
397 2 2 0 0 417 418 362
398 2 2 0 0 314 607 101
399 2 2 0 0 339 362 280
400 2 2 0 0 243 245 244
401 2 2 0 0 187 291 185
402 2 2 0 0 429 430 359
403 2 2 0 0 143 145 144
404 2 2 0 0 202 553 205
405 2 2 0 0 339 417 362
406 2 2 0 0 131 580 133
407 2 2 0 0 239 242 240
408 2 2 0 0 57 59 58
409 2 2 0 0 224 246 215
410 2 2 0 0 84 86 85
411 2 2 0 0 303 554 266
412 2 2 0 0 72 73 71
413 2 2 0 0 437 438 414
414 2 2 0 0 318 340 275
415 2 2 0 0 269 270 245
416 2 2 0 0 86 87 85
417 2 2 0 0 192 193 191
418 2 2 0 0 123 235 129
419 2 2 0 0 263 374 262
420 2 2 0 0 425 427 426
421 2 2 0 0 149 150 147
422 2 2 0 0 210 232 231
423 2 2 0 0 74 373 76
424 2 2 0 0 168 215 169
425 2 2 0 0 259 262 249
426 2 2 0 0 145 146 144
427 2 2 0 0 367 524 289
428 2 2 0 0 271 347 270
429 2 2 0 0 406 407 340
430 2 2 0 0 334 459 424
431 2 2 0 0 429 474 430
432 2 2 0 0 250 328 325
433 2 2 0 0 431 432 367
434 2 2 0 0 104 278 105
435 2 2 0 0 145 147 146
436 2 2 0 0 151 152 150
437 2 2 0 0 235 583 129
438 2 2 0 0 237 249 228
439 2 2 0 0 149 151 150
440 2 2 0 0 159 161 158
441 2 2 0 0 153 155 152
442 2 2 0 0 156 158 155
443 2 2 0 0 354 367 289
444 2 2 0 0 259 263 262
445 2 2 0 0 190 191 189
446 2 2 0 0 177 221 174
447 2 2 0 0 162 228 161
448 2 2 0 0 124 516 386
449 2 2 0 0 418 653 578
450 2 2 0 0 371 584 295
451 2 2 0 0 151 153 152
452 2 2 0 0 153 156 155
453 2 2 0 0 159 162 161
454 2 2 0 0 374 593 262
455 2 2 0 0 156 159 158
456 2 2 0 0 237 259 249
457 2 2 0 0 146 284 160
458 2 2 0 0 266 309 267
459 2 2 0 0 264 265 257
460 2 2 0 0 86 88 87
461 2 2 0 0 265 312 257
462 2 2 0 0 162 237 228
463 2 2 0 0 21 44 22
464 2 2 0 0 324 392 390
465 2 2 0 0 371 585 584
466 2 2 0 0 262 366 249
467 2 2 0 0 192 195 193
468 2 2 0 0 263 375 374
469 2 2 0 0 216 266 217
470 2 2 0 0 326 327 276
471 2 2 0 0 260 646 166
472 2 2 0 0 220 223 222
473 2 2 0 0 322 341 252
474 2 2 0 0 256 257 255
475 2 2 0 0 78 253 84
476 2 2 0 0 358 359 242
477 2 2 0 0 188 189 187
478 2 2 0 0 281 339 280
479 2 2 0 0 146 160 144
480 2 2 0 0 123 129 128
481 2 2 0 0 255 324 254
482 2 2 0 0 228 229 161
483 2 2 0 0 354 431 367
484 2 2 0 0 163 164 135
485 2 2 0 0 155 157 152
486 2 2 0 0 243 244 240
487 2 2 0 0 256 264 257
488 2 2 0 0 284 316 160
489 2 2 0 0 380 425 327
490 2 2 0 0 148 149 147
491 2 2 0 0 335 399 398
492 2 2 0 0 418 578 362
493 2 2 0 0 334 424 396
494 2 2 0 0 167 260 166
495 2 2 0 0 325 368 365
496 2 2 0 0 428 429 359
497 2 2 0 0 165 255 254
498 2 2 0 0 297 342 264
499 2 2 0 0 298 371 295
500 2 2 0 0 218 323 220
501 2 2 0 0 310 337 302
502 2 2 0 0 165 256 255
503 2 2 0 0 186 187 185
504 2 2 0 0 56 71 70
505 2 2 0 0 165 254 125
506 2 2 0 0 200 201 199
507 2 2 0 0 148 206 149
508 2 2 0 0 324 390 364
509 2 2 0 0 190 192 191
510 2 2 0 0 368 369 365
511 2 2 0 0 353 404 351
512 2 2 0 0 104 331 278
513 2 2 0 0 256 297 264
514 2 2 0 0 316 421 416
515 2 2 0 0 239 358 242
516 2 2 0 0 169 586 171
517 2 2 0 0 286 287 206
518 2 2 0 0 324 364 254
519 2 2 0 0 241 576 162
520 2 2 0 0 168 169 164
521 2 2 0 0 121 123 122
522 2 2 0 0 266 267 217
523 2 2 0 0 129 131 130
524 2 2 0 0 216 217 208
525 2 2 0 0 285 382 313
526 2 2 0 0 172 321 170
527 2 2 0 0 390 391 364
528 2 2 0 0 296 563 300
529 2 2 0 0 246 252 251
530 2 2 0 0 285 286 206
531 2 2 0 0 288 289 287
532 2 2 0 0 298 372 371
533 2 2 0 0 23 35 22
534 2 2 0 0 300 344 304
535 2 2 0 0 344 462 345
536 2 2 0 0 123 128 122
537 2 2 0 0 297 389 342
538 2 2 0 0 237 277 259
539 2 2 0 0 148 285 206
540 2 2 0 0 86 89 88
541 2 2 0 0 306 307 283
542 2 2 0 0 234 279 233
543 2 2 0 0 316 416 160
544 2 2 0 0 188 190 189
545 2 2 0 0 85 98 82
546 2 2 0 0 358 428 359
547 2 2 0 0 437 455 438
548 2 2 0 0 203 210 201
549 2 2 0 0 382 383 313
550 2 2 0 0 153 176 156
551 2 2 0 0 290 354 289
552 2 2 0 0 159 241 162
553 2 2 0 0 386 387 126
554 2 2 0 0 273 363 338
555 2 2 0 0 272 326 276
556 2 2 0 0 171 293 173
557 2 2 0 0 145 148 147
558 2 2 0 0 274 295 261
559 2 2 0 0 285 313 286
560 2 2 0 0 383 384 313
561 2 2 0 0 301 302 299
562 2 2 0 0 131 133 132
563 2 2 0 0 296 298 295
564 2 2 0 0 305 310 302
565 2 2 0 0 349 412 328
566 2 2 0 0 344 345 304
567 2 2 0 0 77 119 75
568 2 2 0 0 315 378 310
569 2 2 0 0 363 401 400
570 2 2 0 0 332 333 278
571 2 2 0 0 223 233 222
572 2 2 0 0 331 334 332
573 2 2 0 0 186 188 187
574 2 2 0 0 178 212 177
575 2 2 0 0 305 360 315
576 2 2 0 0 334 396 395
577 2 2 0 0 246 251 215
578 2 2 0 0 167 261 260
579 2 2 0 0 175 179 178
580 2 2 0 0 345 346 304
581 2 2 0 0 124 386 126
582 2 2 0 0 286 288 287
583 2 2 0 0 331 332 278
584 2 2 0 0 179 181 180
585 2 2 0 0 301 305 302
586 2 2 0 0 300 304 301
587 2 2 0 0 296 300 299
588 2 2 0 0 305 315 310
589 2 2 0 0 296 299 298
590 2 2 0 0 320 453 290
591 2 2 0 0 274 296 295
592 2 2 0 0 313 531 286
593 2 2 0 0 120 281 280
594 2 2 0 0 360 409 315
595 2 2 0 0 363 400 338
596 2 2 0 0 129 130 128
597 2 2 0 0 300 301 299
598 2 2 0 0 1 508 23
599 2 2 0 0 167 273 261
600 2 2 0 0 133 135 134
601 2 2 0 0 173 174 172
602 2 2 0 0 311 377 376
603 2 2 0 0 273 274 261
604 2 2 0 0 273 338 274
605 2 2 0 0 334 395 332
606 2 2 0 0 183 197 184
607 2 2 0 0 319 393 320
608 2 2 0 0 449 450 446
609 2 2 0 0 288 290 289
610 2 2 0 0 226 306 283
611 2 2 0 0 326 380 327
612 2 2 0 0 175 177 174
613 2 2 0 0 181 183 182
614 2 2 0 0 219 230 211
615 2 2 0 0 308 335 307
616 2 2 0 0 267 311 292
617 2 2 0 0 169 170 164
618 2 2 0 0 288 319 290
619 2 2 0 0 126 165 125
620 2 2 0 0 120 280 121
621 2 2 0 0 130 357 128
622 2 2 0 0 195 200 199
623 2 2 0 0 169 171 170
624 2 2 0 0 171 172 170
625 2 2 0 0 184 186 185
626 2 2 0 0 73 282 71
627 2 2 0 0 252 294 251
628 2 2 0 0 319 320 290
629 2 2 0 0 131 132 130
630 2 2 0 0 393 394 320
631 2 2 0 0 171 173 172
632 2 2 0 0 4 34 3
633 2 2 0 0 218 220 219
634 2 2 0 0 267 292 217
635 2 2 0 0 184 185 182
636 2 2 0 0 188 194 190
637 2 2 0 0 56 70 54
638 2 2 0 0 377 405 376
639 2 2 0 0 449 470 450
640 2 2 0 0 179 180 178
641 2 2 0 0 173 175 174
642 2 2 0 0 175 178 177
643 2 2 0 0 250 329 328
644 2 2 0 0 311 376 292
645 2 2 0 0 329 571 350
646 2 2 0 0 347 370 348
647 2 2 0 0 220 222 219
648 2 2 0 0 376 385 292
649 2 2 0 0 133 134 132
650 2 2 0 0 134 136 132
651 2 2 0 0 306 308 307
652 2 2 0 0 200 203 201
653 2 2 0 0 233 247 222
654 2 2 0 0 98 460 82
655 2 2 0 0 329 349 328
656 2 2 0 0 326 381 380
657 2 2 0 0 347 348 270
658 2 2 0 0 181 182 180
659 2 2 0 0 121 122 115
660 2 2 0 0 350 351 349
661 2 2 0 0 308 336 335
662 2 2 0 0 350 403 352
663 2 2 0 0 470 471 450
664 2 2 0 0 203 211 210
665 2 2 0 0 218 219 211
666 2 2 0 0 183 184 182
667 2 2 0 0 370 463 422
668 2 2 0 0 306 402 308
669 2 2 0 0 203 218 211
670 2 2 0 0 71 490 70
671 2 2 0 0 329 350 349
672 2 2 0 0 436 437 414
673 2 2 0 0 124 126 125
674 2 2 0 0 413 414 353
675 2 2 0 0 422 423 348
676 2 2 0 0 352 353 351
677 2 2 0 0 370 422 348
678 2 2 0 0 350 352 351
679 2 2 0 0 413 436 414
680 2 2 0 0 352 413 353
681 2 2 0 0 120 121 115
682 2 2 0 0 110 480 117
683 2 2 0 0 124 125 116
684 2 2 0 0 126 521 165
685 2 2 0 0 113 120 115
686 2 2 0 0 127 440 410
687 2 2 0 0 114 124 116
688 2 2 0 0 543 544 530
689 2 2 0 0 488 489 487
690 2 2 0 0 585 637 366
691 2 2 0 0 543 570 544
692 2 2 0 0 113 115 114
693 2 2 0 0 127 410 106
694 2 2 0 0 114 116 112
695 2 2 0 0 195 515 200
696 2 2 0 0 491 493 492
697 2 2 0 0 12 487 13
698 2 2 0 0 546 547 321
699 2 2 0 0 330 457 411
700 2 2 0 0 157 543 530
701 2 2 0 0 519 520 291
702 2 2 0 0 28 488 487
703 2 2 0 0 111 112 110
704 2 2 0 0 312 534 257
705 2 2 0 0 476 732 412
706 2 2 0 0 27 458 442
707 2 2 0 0 385 636 620
708 2 2 0 0 176 559 156
709 2 2 0 0 593 634 366
710 2 2 0 0 589 590 224
711 2 2 0 0 113 114 112
712 2 2 0 0 109 127 106
713 2 2 0 0 270 564 245
714 2 2 0 0 443 506 445
715 2 2 0 0 491 492 396
716 2 2 0 0 388 624 502
717 2 2 0 0 445 506 448
718 2 2 0 0 30 500 15
719 2 2 0 0 20 504 21
720 2 2 0 0 64 475 60
721 2 2 0 0 287 542 206
722 2 2 0 0 23 508 35
723 2 2 0 0 302 558 299
724 2 2 0 0 70 551 54
725 2 2 0 0 62 598 64
726 2 2 0 0 424 491 396
727 2 2 0 0 407 456 340
728 2 2 0 0 545 546 321
729 2 2 0 0 330 411 397
730 2 2 0 0 72 536 74
731 2 2 0 0 238 574 136
732 2 2 0 0 659 660 420
733 2 2 0 0 395 538 332
734 2 2 0 0 143 527 145
735 2 2 0 0 412 675 476
736 2 2 0 0 239 513 358
737 2 2 0 0 157 530 529
738 2 2 0 0 518 519 291
739 2 2 0 0 449 482 470
740 2 2 0 0 207 713 479
741 2 2 0 0 119 523 75
742 2 2 0 0 109 670 127
743 2 2 0 0 10 501 40
744 2 2 0 0 508 509 35
745 2 2 0 0 96 606 94
746 2 2 0 0 331 459 334
747 2 2 0 0 286 531 288
748 2 2 0 0 290 453 354
749 2 2 0 0 282 490 71
750 2 2 0 0 384 531 313
751 2 2 0 0 289 524 287
752 2 2 0 0 349 550 412
753 2 2 0 0 165 521 256
754 2 2 0 0 82 460 77
755 2 2 0 0 155 543 157
756 2 2 0 0 201 549 199
757 2 2 0 0 273 591 363
758 2 2 0 0 387 521 126
759 2 2 0 0 114 516 124
760 2 2 0 0 53 561 57
761 2 2 0 0 266 554 309
762 2 2 0 0 257 534 255
763 2 2 0 0 205 553 213
764 2 2 0 0 142 522 225
765 2 2 0 0 435 481 356
766 2 2 0 0 216 568 303
767 2 2 0 0 300 563 344
768 2 2 0 0 214 568 209
769 2 2 0 0 112 480 110
770 2 2 0 0 350 571 403
771 2 2 0 0 347 572 485
772 2 2 0 0 275 572 271
773 2 2 0 0 274 563 296
774 2 2 0 0 171 586 293
775 2 2 0 0 162 576 237
776 2 2 0 0 133 580 163
777 2 2 0 0 11 501 10
778 2 2 0 0 295 584 261
779 2 2 0 0 129 583 131
780 2 2 0 0 215 586 169
781 2 2 0 0 250 505 329
782 2 2 0 0 168 588 224
783 2 2 0 0 321 548 170
784 2 2 0 0 262 593 366
785 2 2 0 0 166 646 314
786 2 2 0 0 520 535 291
787 2 2 0 0 373 663 493
788 2 2 0 0 291 535 185
789 2 2 0 0 101 607 97
790 2 2 0 0 130 574 357
791 2 2 0 0 158 570 543
792 2 2 0 0 31 501 11
793 2 2 0 0 444 552 503
794 2 2 0 0 156 559 159
795 2 2 0 0 236 594 505
796 2 2 0 0 206 542 149
797 2 2 0 0 54 551 52
798 2 2 0 0 74 536 373
799 2 2 0 0 337 558 302
800 2 2 0 0 150 532 147
801 2 2 0 0 379 728 457
802 2 2 0 0 299 558 298
803 2 2 0 0 332 538 333
804 2 2 0 0 145 527 148
805 2 2 0 0 514 515 192
806 2 2 0 0 15 500 14
807 2 2 0 0 75 523 73
808 2 2 0 0 467 501 31
809 2 2 0 0 254 592 125
810 2 2 0 0 172 545 321
811 2 2 0 0 144 522 142
812 2 2 0 0 528 532 150
813 2 2 0 0 187 518 291
814 2 2 0 0 553 599 213
815 2 2 0 0 383 603 384
816 2 2 0 0 282 698 490
817 2 2 0 0 244 517 240
818 2 2 0 0 353 525 404
819 2 2 0 0 395 540 538
820 2 2 0 0 94 606 118
821 2 2 0 0 117 539 107
822 2 2 0 0 185 535 182
823 2 2 0 0 388 502 50
824 2 2 0 0 167 591 273
825 2 2 0 0 147 532 146
826 2 2 0 0 92 608 91
827 2 2 0 0 472 676 368
828 2 2 0 0 364 592 254
829 2 2 0 0 21 504 44
830 2 2 0 0 365 597 248
831 2 2 0 0 125 592 116
832 2 2 0 0 588 589 224
833 2 2 0 0 111 113 112
834 2 2 0 0 63 469 408
835 2 2 0 0 105 109 106
836 2 2 0 0 242 526 243
837 2 2 0 0 439 712 29
838 2 2 0 0 240 517 234
839 2 2 0 0 346 533 304
840 2 2 0 0 14 500 38
841 2 2 0 0 494 495 484
842 2 2 0 0 127 630 440
843 2 2 0 0 208 537 204
844 2 2 0 0 175 562 179
845 2 2 0 0 303 626 555
846 2 2 0 0 359 526 242
847 2 2 0 0 243 526 268
848 2 2 0 0 217 537 208
849 2 2 0 0 58 498 55
850 2 2 0 0 503 552 30
851 2 2 0 0 13 499 12
852 2 2 0 0 268 621 569
853 2 2 0 0 489 497 487
854 2 2 0 0 475 498 58
855 2 2 0 0 430 526 359
856 2 2 0 0 248 597 99
857 2 2 0 0 292 537 217
858 2 2 0 0 26 645 45
859 2 2 0 0 234 517 279
860 2 2 0 0 14 497 39
861 2 2 0 0 385 537 292
862 2 2 0 0 305 533 360
863 2 2 0 0 304 533 301
864 2 2 0 0 146 532 284
865 2 2 0 0 483 494 484
866 2 2 0 0 173 562 175
867 2 2 0 0 116 480 112
868 2 2 0 0 224 590 246
869 2 2 0 0 189 518 187
870 2 2 0 0 498 536 72
871 2 2 0 0 414 525 353
872 2 2 0 0 160 522 144
873 2 2 0 0 547 609 548
874 2 2 0 0 182 535 180
875 2 2 0 0 297 601 389
876 2 2 0 0 44 594 81
877 2 2 0 0 301 533 305
878 2 2 0 0 105 106 96
879 2 2 0 0 515 596 200
880 2 2 0 0 293 562 173
881 2 2 0 0 73 523 282
882 2 2 0 0 148 527 285
883 2 2 0 0 174 545 172
884 2 2 0 0 218 596 323
885 2 2 0 0 200 596 203
886 2 2 0 0 149 542 151
887 2 2 0 0 446 552 444
888 2 2 0 0 49 461 330
889 2 2 0 0 330 397 48
890 2 2 0 0 453 738 377
891 2 2 0 0 255 534 324
892 2 2 0 0 52 551 388
893 2 2 0 0 634 646 260
894 2 2 0 0 513 615 358
895 2 2 0 0 438 525 414
896 2 2 0 0 516 618 386
897 2 2 0 0 198 518 189
898 2 2 0 0 227 566 361
899 2 2 0 0 559 560 241
900 2 2 0 0 90 587 93
901 2 2 0 0 416 522 160
902 2 2 0 0 102 591 167
903 2 2 0 0 134 609 137
904 2 2 0 0 298 558 372
905 2 2 0 0 132 574 130
906 2 2 0 0 106 606 96
907 2 2 0 0 159 559 241
908 2 2 0 0 32 611 6
909 2 2 0 0 158 543 155
910 2 2 0 0 223 513 239
911 2 2 0 0 288 531 319
912 2 2 0 0 323 513 220
913 2 2 0 0 115 516 114
914 2 2 0 0 521 601 297
915 2 2 0 0 610 698 455
916 2 2 0 0 354 600 431
917 2 2 0 0 351 550 349
918 2 2 0 0 256 521 297
919 2 2 0 0 140 604 138
920 2 2 0 0 77 460 119
921 2 2 0 0 17 503 16
922 2 2 0 0 9 502 10
923 2 2 0 0 104 587 331
924 2 2 0 0 152 528 150
925 2 2 0 0 315 541 378
926 2 2 0 0 170 548 164
927 2 2 0 0 590 659 420
928 2 2 0 0 11 624 28
929 2 2 0 0 199 549 202
930 2 2 0 0 502 624 10
931 2 2 0 0 453 600 354
932 2 2 0 0 42 43 41
933 2 2 0 0 38 499 13
934 2 2 0 0 285 527 382
935 2 2 0 0 190 514 192
936 2 2 0 0 157 529 528
937 2 2 0 0 231 643 549
938 2 2 0 0 331 587 459
939 2 2 0 0 451 701 232
940 2 2 0 0 99 597 100
941 2 2 0 0 361 568 214
942 2 2 0 0 372 740 544
943 2 2 0 0 221 545 174
944 2 2 0 0 138 604 238
945 2 2 0 0 340 572 275
946 2 2 0 0 338 563 274
947 2 2 0 0 524 542 287
948 2 2 0 0 265 595 312
949 2 2 0 0 111 511 113
950 2 2 0 0 580 658 588
951 2 2 0 0 580 588 163
952 2 2 0 0 237 576 277
953 2 2 0 0 444 503 36
954 2 2 0 0 131 583 580
955 2 2 0 0 505 571 329
956 2 2 0 0 203 596 218
957 2 2 0 0 584 634 260
958 2 2 0 0 261 584 260
959 2 2 0 0 369 647 365
960 2 2 0 0 251 586 215
961 2 2 0 0 348 564 270
962 2 2 0 0 450 552 446
963 2 2 0 0 390 496 391
964 2 2 0 0 66 598 62
965 2 2 0 0 465 623 423
966 2 2 0 0 258 591 102
967 2 2 0 0 343 566 227
968 2 2 0 0 564 623 244
969 2 2 0 0 154 617 141
970 2 2 0 0 324 534 392
971 2 2 0 0 50 502 37
972 2 2 0 0 524 556 542
973 2 2 0 0 544 700 372
974 2 2 0 0 122 516 115
975 2 2 0 0 177 557 221
976 2 2 0 0 489 698 610
977 2 2 0 0 93 587 104
978 2 2 0 0 136 574 132
979 2 2 0 0 593 646 634
980 2 2 0 0 116 592 480
981 2 2 0 0 143 617 527
982 2 2 0 0 225 604 140
983 2 2 0 0 137 631 139
984 2 2 0 0 549 553 202
985 2 2 0 0 164 548 135
986 2 2 0 0 404 550 351
987 2 2 0 0 34 721 473
988 2 2 0 0 220 513 223
989 2 2 0 0 317 640 511
990 2 2 0 0 100 597 258
991 2 2 0 0 588 658 589
992 2 2 0 0 323 615 513
993 2 2 0 0 568 626 303
994 2 2 0 0 377 605 405
995 2 2 0 0 178 613 212
996 2 2 0 0 493 628 373
997 2 2 0 0 157 528 152
998 2 2 0 0 591 627 363
999 2 2 0 0 409 541 315
1000 2 2 0 0 183 614 197
1001 2 2 0 0 103 598 66
1002 2 2 0 0 188 619 194
1003 2 2 0 0 213 599 226
1004 2 2 0 0 306 599 402
1005 2 2 0 0 97 607 25
1006 2 2 0 0 194 514 190
1007 2 2 0 0 373 628 76
1008 2 2 0 0 78 628 253
1009 2 2 0 0 42 47 43
1010 2 2 0 0 39 612 15
1011 2 2 0 0 16 612 29
1012 2 2 0 0 437 610 455
1013 2 2 0 0 487 497 13
1014 2 2 0 0 440 630 441
1015 2 2 0 0 479 713 562
1016 2 2 0 0 196 620 193
1017 2 2 0 0 456 572 340
1018 2 2 0 0 120 511 281
1019 2 2 0 0 577 578 235
1020 2 2 0 0 335 582 399
1021 2 2 0 0 314 741 683
1022 2 2 0 0 520 613 535
1023 2 2 0 0 585 634 584
1024 2 2 0 0 423 564 348
1025 2 2 0 0 457 561 411
1026 2 2 0 0 6 611 5
1027 2 2 0 0 385 620 537
1028 2 2 0 0 228 637 229
1029 2 2 0 0 366 637 249
1030 2 2 0 0 161 570 158
1031 2 2 0 0 434 640 435
1032 2 2 0 0 193 636 191
1033 2 2 0 0 410 606 106
1034 2 2 0 0 37 502 9
1035 2 2 0 0 36 503 17
1036 2 2 0 0 141 617 143
1037 2 2 0 0 363 627 401
1038 2 2 0 0 322 590 420
1039 2 2 0 0 357 618 128
1040 2 2 0 0 430 621 526
1041 2 2 0 0 540 687 103
1042 2 2 0 0 280 577 121
1043 2 2 0 0 276 575 318
1044 2 2 0 0 362 578 577
1045 2 2 0 0 109 649 496
1046 2 2 0 0 246 590 322
1047 2 2 0 0 326 569 381
1048 2 2 0 0 569 621 381
1049 2 2 0 0 269 569 272
1050 2 2 0 0 139 631 154
1051 2 2 0 0 649 664 496
1052 2 2 0 0 537 620 204
1053 2 2 0 0 355 461 49
1054 2 2 0 0 663 685 493
1055 2 2 0 0 479 745 207
1056 2 2 0 0 343 662 565
1057 2 2 0 0 212 557 177
1058 2 2 0 0 45 645 46
1059 2 2 0 0 496 670 109
1060 2 2 0 0 366 634 585
1061 2 2 0 0 384 616 531
1062 2 2 0 0 535 613 180
1063 2 2 0 0 391 632 364
1064 2 2 0 0 308 581 336
1065 2 2 0 0 344 625 462
1066 2 2 0 0 563 625 344
1067 2 2 0 0 13 497 14
1068 2 2 0 0 480 632 117
1069 2 2 0 0 371 668 585
1070 2 2 0 0 333 649 278
1071 2 2 0 0 387 601 521
1072 2 2 0 0 47 49 48
1073 2 2 0 0 358 615 428
1074 2 2 0 0 113 511 120
1075 2 2 0 0 527 617 382
1076 2 2 0 0 105 649 109
1077 2 2 0 0 398 573 307
1078 2 2 0 0 368 676 369
1079 2 2 0 0 180 613 178
1080 2 2 0 0 153 556 176
1081 2 2 0 0 432 657 367
1082 2 2 0 0 458 718 582
1083 2 2 0 0 207 614 183
1084 2 2 0 0 407 611 456
1085 2 2 0 0 244 623 517
1086 2 2 0 0 20 639 27
1087 2 2 0 0 476 675 87
1088 2 2 0 0 319 616 393
1089 2 2 0 0 474 707 197
1090 2 2 0 0 226 599 306
1091 2 2 0 0 47 48 43
1092 2 2 0 0 186 619 188
1093 2 2 0 0 412 732 328
1094 2 2 0 0 316 671 541
1095 2 2 0 0 293 734 478
1096 2 2 0 0 492 685 598
1097 2 2 0 0 528 629 532
1098 2 2 0 0 514 635 515
1099 2 2 0 0 531 616 319
1100 2 2 0 0 8 656 7
1101 2 2 0 0 387 602 601
1102 2 2 0 0 76 628 78
1103 2 2 0 0 122 618 516
1104 2 2 0 0 651 717 394
1105 2 2 0 0 423 623 564
1106 2 2 0 0 546 669 547
1107 2 2 0 0 4 679 34
1108 2 2 0 0 542 556 151
1109 2 2 0 0 548 609 135
1110 2 2 0 0 204 620 196
1111 2 2 0 0 529 629 528
1112 2 2 0 0 482 719 230
1113 2 2 0 0 258 627 591
1114 2 2 0 0 336 582 335
1115 2 2 0 0 197 686 667
1116 2 2 0 0 583 658 580
1117 2 2 0 0 85 675 98
1118 2 2 0 0 59 728 379
1119 2 2 0 0 400 625 338
1120 2 2 0 0 394 717 605
1121 2 2 0 0 471 650 450
1122 2 2 0 0 596 635 323
1123 2 2 0 0 249 637 228
1124 2 2 0 0 515 635 596
1125 2 2 0 0 338 625 563
1126 2 2 0 0 28 633 488
1127 2 2 0 0 566 622 361
1128 2 2 0 0 229 570 161
1129 2 2 0 0 468 654 465
1130 2 2 0 0 118 710 462
1131 2 2 0 0 15 612 16
1132 2 2 0 0 589 659 590
1133 2 2 0 0 526 621 268
1134 2 2 0 0 365 647 597
1135 2 2 0 0 579 583 235
1136 2 2 0 0 22 507 21
1137 2 2 0 0 342 682 264
1138 2 2 0 0 441 648 346
1139 2 2 0 0 191 636 198
1140 2 2 0 0 578 653 579
1141 2 2 0 0 135 609 134
1142 2 2 0 0 128 618 122
1143 2 2 0 0 378 681 310
1144 2 2 0 0 230 690 211
1145 2 2 0 0 210 690 232
1146 2 2 0 0 549 643 553
1147 2 2 0 0 233 661 247
1148 2 2 0 0 10 624 11
1149 2 2 0 0 640 709 435
1150 2 2 0 0 449 719 482
1151 2 2 0 0 452 726 33
1152 2 2 0 0 362 577 280
1153 2 2 0 0 318 575 433
1154 2 2 0 0 492 687 396
1155 2 2 0 0 586 734 293
1156 2 2 0 0 357 655 618
1157 2 2 0 0 277 567 259
1158 2 2 0 0 522 641 225
1159 2 2 0 0 511 640 281
1160 2 2 0 0 247 661 483
1161 2 2 0 0 610 693 39
1162 2 2 0 0 272 569 326
1163 2 2 0 0 490 695 70
1164 2 2 0 0 553 643 599
1165 2 2 0 0 532 629 284
1166 2 2 0 0 29 712 17
1167 2 2 0 0 632 665 117
1168 2 2 0 0 618 655 386
1169 2 2 0 0 241 699 576
1170 2 2 0 0 457 728 561
1171 2 2 0 0 485 572 456
1172 2 2 0 0 430 667 621
1173 2 2 0 0 582 672 458
1174 2 2 0 0 395 687 540
1175 2 2 0 0 504 594 44
1176 2 2 0 0 181 713 207
1177 2 2 0 0 197 707 184
1178 2 2 0 0 524 657 556
1179 2 2 0 0 475 536 498
1180 2 2 0 0 394 738 320
1181 2 2 0 0 51 714 561
1182 2 2 0 0 151 556 153
1183 2 2 0 0 437 693 610
1184 2 2 0 0 361 626 568
1185 2 2 0 0 611 679 5
1186 2 2 0 0 231 680 643
1187 2 2 0 0 462 706 118
1188 2 2 0 0 390 670 496
1189 2 2 0 0 602 642 601
1190 2 2 0 0 49 330 48
1191 2 2 0 0 391 665 632
1192 2 2 0 0 508 737 375
1193 2 2 0 0 450 650 552
1194 2 2 0 0 368 732 476
1195 2 2 0 0 578 579 235
1196 2 2 0 0 402 581 308
1197 2 2 0 0 43 486 41
1198 2 2 0 0 562 713 179
1199 2 2 0 0 592 632 480
1200 2 2 0 0 416 641 522
1201 2 2 0 0 372 668 371
1202 2 2 0 0 452 712 439
1203 2 2 0 0 282 720 455
1204 2 2 0 0 556 657 176
1205 2 2 0 0 364 632 592
1206 2 2 0 0 403 726 452
1207 2 2 0 0 465 654 623
1208 2 2 0 0 278 649 105
1209 2 2 0 0 154 652 617
1210 2 2 0 0 383 688 603
1211 2 2 0 0 451 719 447
1212 2 2 0 0 317 709 640
1213 2 2 0 0 604 711 642
1214 2 2 0 0 382 652 383
1215 2 2 0 0 601 642 389
1216 2 2 0 0 284 671 316
1217 2 2 0 0 599 643 402
1218 2 2 0 0 388 633 624
1219 2 2 0 0 267 678 311
1220 2 2 0 0 337 681 530
1221 2 2 0 0 279 661 233
1222 2 2 0 0 605 738 394
1223 2 2 0 0 33 677 504
1224 2 2 0 0 386 655 387
1225 2 2 0 0 547 669 631
1226 2 2 0 0 562 731 479
1227 2 2 0 0 360 648 595
1228 2 2 0 0 432 692 657
1229 2 2 0 0 367 657 524
1230 2 2 0 0 633 695 488
1231 2 2 0 0 415 473 341
1232 2 2 0 0 644 672 336
1233 2 2 0 0 551 633 388
1234 2 2 0 0 533 648 360
1235 2 2 0 0 407 679 611
1236 2 2 0 0 323 635 615
1237 2 2 0 0 530 681 529
1238 2 2 0 0 393 651 394
1239 2 2 0 0 387 655 602
1240 2 2 0 0 238 703 574
1241 2 2 0 0 594 677 505
1242 2 2 0 0 559 692 560
1243 2 2 0 0 621 667 381
1244 2 2 0 0 405 674 376
1245 2 2 0 0 325 732 368
1246 2 2 0 0 623 654 517
1247 2 2 0 0 581 644 336
1248 2 2 0 0 346 648 533
1249 2 2 0 0 517 654 279
1250 2 2 0 0 477 705 481
1251 2 2 0 0 481 705 355
1252 2 2 0 0 561 728 57
1253 2 2 0 0 379 705 477
1254 2 2 0 0 617 652 382
1255 2 2 0 0 30 650 500
1256 2 2 0 0 376 674 385
1257 2 2 0 0 518 715 519
1258 2 2 0 0 474 667 430
1259 2 2 0 0 478 734 294
1260 2 2 0 0 624 633 28
1261 2 2 0 0 186 707 619
1262 2 2 0 0 64 663 475
1263 2 2 0 0 597 647 258
1264 2 2 0 0 377 738 605
1265 2 2 0 0 31 735 467
1266 2 2 0 0 27 718 458
1267 2 2 0 0 419 673 68
1268 2 2 0 0 616 722 393
1269 2 2 0 0 24 723 419
1270 2 2 0 0 397 638 48
1271 2 2 0 0 404 730 460
1272 2 2 0 0 91 676 472
1273 2 2 0 0 622 626 361
1274 2 2 0 0 7 656 32
1275 2 2 0 0 576 697 277
1276 2 2 0 0 471 691 650
1277 2 2 0 0 536 663 373
1278 2 2 0 0 484 691 471
1279 2 2 0 0 552 650 30
1280 2 2 0 0 311 678 600
1281 2 2 0 0 486 729 5
1282 2 2 0 0 418 673 666
1283 2 2 0 0 232 680 231
1284 2 2 0 0 5 679 4
1285 2 2 0 0 117 665 539
1286 2 2 0 0 384 702 616
1287 2 2 0 0 557 702 221
1288 2 2 0 0 87 675 85
1289 2 2 0 0 225 711 604
1290 2 2 0 0 505 677 571
1291 2 2 0 0 483 661 494
1292 2 2 0 0 263 565 375
1293 2 2 0 0 504 677 594
1294 2 2 0 0 582 718 399
1295 2 2 0 0 645 714 46
1296 2 2 0 0 534 708 392
1297 2 2 0 0 643 680 402
1298 2 2 0 0 18 712 452
1299 2 2 0 0 392 670 390
1300 2 2 0 0 221 702 603
1301 2 2 0 0 496 664 391
1302 2 2 0 0 606 710 118
1303 2 2 0 0 655 703 602
1304 2 2 0 0 608 676 91
1305 2 2 0 0 194 684 514
1306 2 2 0 0 541 671 378
1307 2 2 0 0 154 669 652
1308 2 2 0 0 399 718 639
1309 2 2 0 0 405 715 674
1310 2 2 0 0 33 726 677
1311 2 2 0 0 629 671 284
1312 2 2 0 0 468 735 495
1313 2 2 0 0 469 704 408
1314 2 2 0 0 427 745 479
1315 2 2 0 0 294 734 251
1316 2 2 0 0 461 705 379
1317 2 2 0 0 385 674 636
1318 2 2 0 0 657 692 176
1319 2 2 0 0 561 714 411
1320 2 2 0 0 631 669 154
1321 2 2 0 0 264 682 265
1322 2 2 0 0 43 638 486
1323 2 2 0 0 48 638 43
1324 2 2 0 0 194 744 684
1325 2 2 0 0 381 686 380
1326 2 2 0 0 658 716 589
1327 2 2 0 0 263 567 565
1328 2 2 0 0 310 681 337
1329 2 2 0 0 493 685 492
1330 2 2 0 0 64 685 663
1331 2 2 0 0 309 678 267
1332 2 2 0 0 600 678 431
1333 2 2 0 0 538 694 333
1334 2 2 0 0 598 685 64
1335 2 2 0 0 551 695 633
1336 2 2 0 0 560 699 241
1337 2 2 0 0 211 690 210
1338 2 2 0 0 2 723 3
1339 2 2 0 0 630 708 441
1340 2 2 0 0 467 735 468
1341 2 2 0 0 396 687 395
1342 2 2 0 0 35 507 22
1343 2 2 0 0 259 567 263
1344 2 2 0 0 417 673 418
1345 2 2 0 0 614 686 197
1346 2 2 0 0 392 708 630
1347 2 2 0 0 5 729 6
1348 2 2 0 0 279 725 661
1349 2 2 0 0 6 729 26
1350 2 2 0 0 357 703 655
1351 2 2 0 0 514 684 635
1352 2 2 0 0 540 733 538
1353 2 2 0 0 374 741 593
1354 2 2 0 0 176 692 559
1355 2 2 0 0 650 691 500
1356 2 2 0 0 484 736 691
1357 2 2 0 0 83 733 540
1358 2 2 0 0 558 740 372
1359 2 2 0 0 626 697 555
1360 2 2 0 0 436 693 437
1361 2 2 0 0 375 737 374
1362 2 2 0 0 475 663 536
1363 2 2 0 0 636 674 198
1364 2 2 0 0 674 715 198
1365 2 2 0 0 70 695 551
1366 2 2 0 0 406 721 407
1367 2 2 0 0 677 726 571
1368 2 2 0 0 258 647 627
1369 2 2 0 0 448 701 451
1370 2 2 0 0 458 672 506
1371 2 2 0 0 229 700 570
1372 2 2 0 0 684 744 428
1373 2 2 0 0 570 700 544
1374 2 2 0 0 678 742 431
1375 2 2 0 0 646 741 314
1376 2 2 0 0 603 702 384
1377 2 2 0 0 478 731 293
1378 2 2 0 0 309 742 678
1379 2 2 0 0 380 686 614
1380 2 2 0 0 494 725 468
1381 2 2 0 0 500 691 38
1382 2 2 0 0 635 684 615
1383 2 2 0 0 661 725 494
1384 2 2 0 0 679 721 34
1385 2 2 0 0 509 510 35
1386 2 2 0 0 46 714 51
1387 2 2 0 0 615 684 428
1388 2 2 0 0 432 742 689
1389 2 2 0 0 179 713 181
1390 2 2 0 0 26 739 645
1391 2 2 0 0 35 510 507
1392 2 2 0 0 574 703 357
1393 2 2 0 0 184 707 186
1394 2 2 0 0 39 693 612
1395 2 2 0 0 665 694 539
1396 2 2 0 0 312 708 534
1397 2 2 0 0 554 689 309
1398 2 2 0 0 1 737 508
1399 2 2 0 0 519 717 520
1400 2 2 0 0 277 697 622
1401 2 2 0 0 389 711 641
1402 2 2 0 0 495 736 484
1403 2 2 0 0 17 712 18
1404 2 2 0 0 212 722 557
1405 2 2 0 0 455 720 438
1406 2 2 0 0 622 697 626
1407 2 2 0 0 664 694 665
1408 2 2 0 0 447 719 449
1409 2 2 0 0 669 688 652
1410 2 2 0 0 612 693 436
1411 2 2 0 0 619 744 194
1412 2 2 0 0 57 728 59
1413 2 2 0 0 579 658 583
1414 2 2 0 0 438 727 525
1415 2 2 0 0 539 733 83
1416 2 2 0 0 479 731 478
1417 2 2 0 0 691 736 38
1418 2 2 0 0 401 724 400
1419 2 2 0 0 420 660 2
1420 2 2 0 0 328 732 325
1421 2 2 0 0 320 738 453
1422 2 2 0 0 428 744 429
1423 2 2 0 0 431 742 432
1424 2 2 0 0 425 745 427
1425 2 2 0 0 408 743 434
1426 2 2 0 0 571 726 403
1427 2 2 0 0 119 727 523
1428 2 2 0 0 625 706 462
1429 2 2 0 0 525 730 404
1430 2 2 0 0 499 736 495
1431 2 2 0 0 468 725 654
1432 2 2 0 0 336 672 582
1433 2 2 0 0 198 715 518
1434 2 2 0 0 400 724 706
1435 2 2 0 0 402 680 581
1436 2 2 0 0 589 716 659
1437 2 2 0 0 727 730 525
1438 2 2 0 0 664 665 391
1439 2 2 0 0 337 740 558
1440 2 2 0 0 293 731 562
1441 2 2 0 0 523 720 282
1442 2 2 0 0 460 730 119
1443 2 2 0 0 641 711 225
1444 2 2 0 0 429 744 619
1445 2 2 0 0 119 730 727
1446 2 2 0 0 651 722 212
1447 2 2 0 0 38 736 499
1448 2 2 0 0 667 686 381
1449 2 2 0 0 652 688 383
1450 2 2 0 0 410 710 606
1451 2 2 0 0 644 701 448
1452 2 2 0 0 666 673 419
1453 2 2 0 0 704 743 408
1454 2 2 0 0 251 734 586
1455 2 2 0 0 400 706 625
1456 2 2 0 0 546 688 669
1457 2 2 0 0 668 700 229
1458 2 2 0 0 538 733 694
1459 2 2 0 0 333 694 664
1460 2 2 0 0 565 662 375
1461 2 2 0 0 720 727 438
1462 2 2 0 0 372 700 668
1463 2 2 0 0 579 716 658
1464 2 2 0 0 642 711 389
1465 2 2 0 0 355 705 461
1466 2 2 0 0 407 721 679
1467 2 2 0 0 523 727 720
1468 2 2 0 0 654 725 279
1469 2 2 0 0 639 718 27
1470 2 2 0 0 694 733 539
1471 2 2 0 0 393 722 651
1472 2 2 0 0 645 739 397
1473 2 2 0 0 683 741 374
1474 2 2 0 0 397 739 638
1475 2 2 0 0 653 716 579
1476 2 2 0 0 666 723 660
1477 2 2 0 0 419 723 666
1478 2 2 0 0 374 737 683
1479 2 2 0 0 593 741 646
1480 2 2 0 0 683 737 1
1481 2 2 0 0 689 742 309
1482 2 2 0 0 660 723 2
1483 2 2 0 0 23 25 1
1484 2 2 0 0 25 607 1
1485 2 2 0 0 3 34 2
1486 2 2 0 0 34 415 2
$EndElements
