$MeshFormat
2.2 0 8
$EndMeshFormat
$Nodes
745
1 5.0163081148454873e-05 2.1955976573589620e-05 1.0174879655781837e-03
2 6.5126814602352897e-05 -3.4437385517580928e-05 -1.0150632738018129e-03
3 1.4207634286171709e-04 2.2260090174800566e-05 -1.0068400590203268e-03
4 2.5975880045849123e-04 7.5145215270673735e-06 -9.8327484195991533e-04
5 3.8848363437175197e-04 1.4769079825736177e-05 -9.3788671114680071e-04
6 5.0016118102659286e-04 1.0581154935193880e-06 -8.8004395927548885e-04
7 6.1375720455477919e-04 -9.7303590527485643e-07 -8.0074459912142179e-04
8 7.2794358426478921e-04 -4.8895954971255775e-06 -6.9231780773456502e-04
9 8.2427698600183810e-04 -3.6837795632722096e-06 -5.6620282375189333e-04
10 9.0514763441994488e-04 2.6081422824618421e-06 -4.1478152896414806e-04
11 9.5453750954094599e-04 1.0370800837446688e-05 -2.7295781468244883e-04
12 9.8201526248077684e-04 3.0870918269210829e-06 -1.3575406108792939e-04
13 9.9074190984372213e-04 1.0098776855285337e-05 1.6666652283118381e-06
14 9.8068316707777565e-04 6.9912112326905404e-06 1.4432638396954630e-04
15 9.5056350635997421e-04 -1.3043787263489412e-06 2.8764393815919217e-04
16 8.9909396710148332e-04 7.4268199937236149e-06 4.2922758760654785e-04
17 8.2595379444032379e-04 4.2690413033334842e-06 5.6408888360583154e-04
18 7.3343783270477436e-04 2.3749451632654461e-06 6.8658232976546963e-04
19 6.2408996713004172e-04 8.9808682930574652e-06 7.9280986690767792e-04
20 5.0573247320354346e-04 1.3436591206975057e-06 8.7714480696590475e-04
21 3.7450659076109378e-04 2.5617576734031066e-06 9.4382557767623478e-04
22 2.4441786890678043e-04 -9.4016487675814342e-06 9.8755932580046435e-04
23 1.3846397163133389e-04 -2.0367031893233266e-05 1.0080571840308012e-03
24 1.5510602563082262e-04 1.2913741229010327e-04 -9.9763499083626900e-04
25 1.6486550373774370e-04 1.0828594022498591e-04 9.9912621988006893e-04
26 5.5259223781035233e-04 1.0809360337897326e-04 -8.3882871266668967e-04
27 5.6546130717964366e-04 -1.0605079624532779e-04 8.3078935864068786e-04
28 9.6255289852831077e-04 1.3422985450542923e-04 -1.9804044438472847e-04
29 8.5021413642848869e-04 1.4531754634184604e-04 5.0430806214164401e-04
30 9.2441592712828576e-04 -1.1860037440100739e-04 3.4671330358710073e-04
31 9.6249179305360824e-04 -1.1852108930238314e-04 -2.0848520277956254e-04
32 5.5176554773862763e-04 -1.1309775690906817e-04 -8.3905910918242262e-04
33 5.5971164879580826e-04 1.0776275589219141e-04 8.3437915498786239e-04
34 1.7064561729098393e-04 -8.5570747177953646e-05 -9.9991511043516588e-04
35 1.9111898516770923e-04 -1.0393043796549658e-04 9.9394990322657019e-04
36 7.8287012397139550e-04 -1.2681392483009462e-04 6.1242320191131922e-04
37 7.7262031753572234e-04 1.2193488218921126e-04 -6.2631523481519616e-04
38 9.8134064386842649e-04 -1.1050714005070384e-04 8.0322855584489698e-05
39 9.6033247563867118e-04 1.2134661916185907e-04 2.1639831409052672e-04
40 8.6332261921956302e-04 -1.2979598423512842e-04 -4.8258463169233075e-04
41 2.9195221280355321e-04 1.2922576536656622e-04 -9.6443554624339701e-04
42 2.2147745753923949e-04 2.2627085582118065e-04 -9.6532010880424684e-04
43 3.2723187995640829e-04 2.3393638222014574e-04 -9.3098823975899597e-04
44 3.0483691574247432e-04 1.0797986841492103e-04 9.6354526928247154e-04
45 6.7279068371269392e-04 1.2065654968797575e-04 -7.3857086407190509e-04
46 7.0902452948338915e-04 2.4794425145344199e-04 -6.6532493543436009e-04
47 2.6415053863354466e-04 3.3492592159770003e-04 -9.1950772216796537e-04
48 3.9906175565100491e-04 3.3976330702203939e-04 -8.6478589398184295e-04
49 3.3310260463095484e-04 4.3795322155830213e-04 -8.4740835496680130e-04
50 8.0317762415169644e-04 2.4434944903726781e-04 -5.4156001143554138e-04
51 7.2641677668217248e-04 3.6233442576716655e-04 -5.8475357602298845e-04
52 8.0600742632009291e-04 3.6505331787487085e-04 -4.5821562589788418e-04
53 7.2820760313944770e-04 4.7588724703453864e-04 -4.8763700249572066e-04
54 7.9613231669695096e-04 4.7445960405029074e-04 -3.5903288655754657e-04
55 7.0781170368907015e-04 5.8530972674593687e-04 -3.8089327620227556e-04
56 7.6999321363806000e-04 5.7393573836972466e-04 -2.4822773721618914e-04
57 6.2782460316028487e-04 5.9014951696801754e-04 -5.0232049401692221e-04
58 5.9811430434757043e-04 6.8940265236392382e-04 -3.9490535966660496e-04
59 5.1148041154961603e-04 6.8556502507632552e-04 -5.1337352900003477e-04
60 4.8183634874160371e-04 7.7079793351025113e-04 -4.0352826291114446e-04
61 3.8763402375370401e-04 7.5595348937137162e-04 -5.2371109782449151e-04
62 3.5495802292629264e-04 8.3595851060460713e-04 -4.0531563807447732e-04
63 1.9833736085227429e-04 4.5525392420323339e-04 -8.8167291105136403e-04
64 4.4169284974485574e-04 8.3884725675924580e-04 -2.9194025446873306e-04
65 2.5651491486314488e-04 8.1455126782264498e-04 -5.1589038341712842e-04
66 2.2988880001149412e-04 8.8718464905092516e-04 -3.8488501275951861e-04
67 1.2075558622586267e-04 8.6305574736495892e-04 -4.8365575084126556e-04
68 1.0654935996446133e-04 2.4038535998412367e-04 -9.8170829092246036e-04
69 1.4121896647329224e-04 7.6783340030949756e-04 -6.2842590043670171e-04
70 8.4930469502101410e-04 4.6160025618938465e-04 -2.2045499970323681e-04
71 8.1854977823124790e-04 5.4709727973785871e-04 -1.1048218184729809e-04
72 7.2620359089165041e-04 6.5994265302718826e-04 -1.3629565882318905e-04
73 7.6416654389270804e-04 6.2997802702509126e-04 5.0071037875495484e-06
74 6.6556040024759694e-04 7.3252813703045337e-04 -2.6605943663520938e-05
75 6.8714999556828630e-04 7.0502816743770260e-04 1.0769614133553166e-04
76 5.9497829114916285e-04 7.8761336860009050e-04 7.8128189432619325e-05
77 6.0676707401900027e-04 7.5471093281096130e-04 2.1164210084309207e-04
78 5.0211968423344256e-04 8.3601886177686277e-04 1.7515994910498637e-04
79 9.6817676139792123e-05 9.2748592802526810e-04 -3.4153053328155075e-04
80 -1.7218190174447049e-05 8.9698072921271356e-04 -4.3023824910018508e-04
81 2.4254656005403655e-04 2.1636126795481389e-04 9.6281716740003766e-04
82 5.1989571273862109e-04 7.8592845888910887e-04 3.1309972174761442e-04
83 -4.0844405803012223e-05 9.4540866426567015e-04 -2.9758003417191799e-04
84 4.0287020705050537e-04 8.6542232302990428e-04 2.6979190792356453e-04
85 4.2273505632240397e-04 8.0463601190813112e-04 4.0399944848589170e-04
86 2.9717372382873336e-04 8.7266792037366491e-04 3.7120712222114393e-04
87 3.1098101893236593e-04 8.0367307109224209e-04 5.0161497256732848e-04
88 1.8821060356158530e-04 8.5630721171763079e-04 4.7330064566486029e-04
89 1.6170609136461741e-04 9.1839947686386402e-04 3.4150276379631746e-04
90 5.3306796282997995e-05 8.9428190761246535e-04 4.3331796194585084e-04
91 6.9343609524642107e-05 8.2009737617656005e-04 5.6665670698711676e-04
92 -5.9403177303211643e-05 8.5024758926303403e-04 5.1800412428747080e-04
93 -7.9741719789902155e-05 9.1106697441340270e-04 3.8945383287774637e-04
94 -1.9026619070520342e-04 8.5580729305278320e-04 4.7278498787306375e-04
95 -1.5314963651142825e-04 8.0135147934574794e-04 5.7572645092686576e-04
96 -2.1472087848902046e-04 9.0863593554995118e-04 3.3782806991811912e-04
97 1.1352059267664650e-04 2.3032708403982935e-04 9.8406886677006571e-04
98 5.2577657134290901e-04 7.1155296542205714e-04 4.6022861212226534e-04
99 1.8398256088776209e-04 3.2653901365498571e-04 9.4333847420060299e-04
100 5.4460317624293691e-05 3.1422651748594588e-04 9.6466237034076904e-04
101 -2.3648001770887857e-05 2.1786055659449288e-04 9.9340658120466497e-04
102 -7.7436773206890287e-05 3.1166682099267764e-04 9.6382934870833600e-04
103 2.0747464794779261e-04 9.3762123087924858e-04 -2.4649660915905818e-04
104 -1.0807335807394186e-04 9.5133874528400511e-04 2.5773195400396375e-04
105 -2.4513815153072140e-04 9.3953357110951210e-04 1.9688472103064150e-04
106 -3.4870734300263874e-04 8.8493397635714028e-04 2.8135494211685587e-04
107 -1.5510176560427588e-04 9.0571915472247543e-04 -3.7796690237736232e-04
108 -1.2908954331792481e-04 8.4816554203415097e-04 -5.0801433728042244e-04
109 -3.7271832319981643e-04 9.0526375546803482e-04 1.4876278516507039e-04
110 -2.6418655954568151e-04 8.4740270135416846e-04 -4.5062745463679012e-04
111 -2.3965745955903880e-04 7.7138523526159230e-04 -5.8913514628724877e-04
112 -3.6566890305533595e-04 7.6932336242834551e-04 -5.1915961184342851e-04
113 -3.2925927637534973e-04 6.8078537814002390e-04 -6.5802828795766169e-04
114 -4.6433110364182869e-04 6.7354131070403731e-04 -5.7393445790655253e-04
115 -4.2048449239497212e-04 5.8364577511970674e-04 -7.0056847430240870e-04
116 -4.9624879004179828e-04 7.4022584888475476e-04 -4.4338848331418622e-04
117 -2.8144586801545499e-04 8.9694755548046408e-04 -3.1794449166121718e-04
118 -2.8561286849537233e-04 7.7728961166602395e-04 5.5953940555684718e-04
119 7.0310852184191335e-04 6.6363890685540525e-04 2.1846491801005542e-04
120 -2.8099432503264496e-04 5.7493106316512557e-04 -7.7806069884616509e-04
121 -3.6258728562939128e-04 4.7399687928191141e-04 -8.1355297451797114e-04
122 -5.0000218184428913e-04 4.7570134235465751e-04 -7.3093286499251707e-04
123 -4.4500357051805952e-04 3.6683484205495372e-04 -8.2854006260207078e-04
124 -5.8843522601042359e-04 6.3632567853154267e-04 -4.9227885385972551e-04
125 -6.1464985469117535e-04 6.9120893323197587e-04 -3.6246998911494845e-04
126 -6.9472536310700474e-04 5.8531254502017672e-04 -4.0443925698602104e-04
127 -4.7802351071845955e-04 8.3762071431151312e-04 2.2847560239494980e-04
128 -5.6609327793519975e-04 3.5484114001283759e-04 -7.5223759425261326e-04
129 -5.0935019087278285e-04 2.5325006792305797e-04 -8.3424735609202911e-04
130 -6.2987143099765038e-04 2.1923663990954943e-04 -7.5345272557052591e-04
131 -5.6430646194934703e-04 1.2274824470712630e-04 -8.2800775913522231e-04
132 -6.8248738822371149e-04 9.1424967441635900e-05 -7.3274673203779447e-04
133 -6.0471963811118323e-04 -1.3148402671056060e-05 -8.0725017293702193e-04
134 -7.2263329432742916e-04 -3.6521865069326859e-05 -6.9629437422660822e-04
135 -6.3367275415646184e-04 -1.4553346943483133e-04 -7.6926000009430034e-04
136 -7.9024865731486022e-04 7.4981891746263115e-05 -6.0980485687264774e-04
137 -8.1947071470509674e-04 -5.4011782531330318e-05 -5.6982476785710702e-04
138 -8.7280327220365589e-04 4.9069242521180466e-05 -4.7877082779380898e-04
139 -8.9132106646490426e-04 -8.3147133517449628e-05 -4.3550094421380091e-04
140 -9.2990225915542664e-04 1.3630791392983272e-05 -3.4911886846330950e-04
141 -9.3843929585270389e-04 -1.1587488690981933e-04 -3.0185021351868965e-04
142 -9.6784774121771815e-04 -1.5398593692978152e-05 -2.1327416541341512e-04
143 -9.6628417378905550e-04 -1.4407777970403153e-04 -1.6498540673103138e-04
144 -9.8632502147889302e-04 -3.8570289483107832e-05 -7.7935861140348894e-05
145 -9.7492282803957715e-04 -1.7015194088816735e-04 -3.0358776392074376e-05
146 -9.8687152059354620e-04 -5.9811599003354880e-05 5.2662027911273809e-05
147 -9.6698770014682831e-04 -1.8659242103080459e-04 1.0552551391224755e-04
148 -9.4494969934071126e-04 -2.9554185515521711e-04 1.6165117684467418e-05
149 -9.2951209412709627e-04 -3.0678143187381476e-04 1.5437874906950946e-04
150 -9.4252542629550003e-04 -1.9062781339122399e-04 2.4310446137330971e-04
151 -8.9557856148510435e-04 -3.1333698956173263e-04 2.9187638839313221e-04
152 -8.9703018930878604e-04 -1.9397264382388623e-04 3.8296863494376285e-04
153 -8.3871595146945278e-04 -3.2460075850610854e-04 4.2689011238464583e-04
154 -8.9073721448642347e-04 -2.1591272819752793e-04 -3.8529971194836330e-04
155 -8.2863075705786498e-04 -2.0835691959160898e-04 5.1569859224579243e-04
156 -7.5938757421229917e-04 -3.3638148507715321e-04 5.5560405758242832e-04
157 -8.7905831019089971e-04 -7.6587677938474148e-05 4.6299910811369824e-04
158 -7.4052719196140559e-04 -2.1855375792283055e-04 6.3888248554771533e-04
159 -6.6456297519627036e-04 -3.3441666965297172e-04 6.7356344526580325e-04
160 -9.8695178034533936e-04 7.6283664706053601e-05 5.6936397844760210e-06
161 -6.3120901052945934e-04 -2.1370641161326827e-04 7.5465910533497921e-04
162 -5.5038436385912405e-04 -3.2373043028720072e-04 7.8009596663814634e-04
163 -5.1442927109917984e-04 -1.1674210061925269e-04 -8.6269041686273351e-04
164 -5.3076086756719942e-04 -2.4988364497187767e-04 -8.2165305405362474e-04
165 -7.1018512766412624e-04 6.3722180897366691e-04 -2.7038431733450170e-04
166 -1.4450335061487953e-04 2.0751555731917339e-04 9.8496546006112957e-04
167 -2.1297548185399229e-04 3.1633613857299711e-04 9.4040307400578233e-04
168 -4.1192174888437366e-04 -2.1010904766441605e-04 -9.0132050756527187e-04
169 -4.3498492035773346e-04 -3.4429827100283084e-04 -8.4477472736414468e-04
170 -5.5119907042390113e-04 -3.8348699631101182e-04 -7.4985032325287665e-04
171 -4.4925482192474057e-04 -4.7939584300660043e-04 -7.6349004592898026e-04
172 -5.5476368468589631e-04 -5.0916657578781058e-04 -6.6289721799643088e-04
173 -4.4068155485468369e-04 -6.0572672105563480e-04 -6.6798085156829926e-04
174 -5.4652059911801246e-04 -6.2270870550964856e-04 -5.5921076270055113e-04
175 -4.2751569088779820e-04 -7.1167259715070659e-04 -5.5675041558306867e-04
176 -7.6233760688438083e-04 -4.4528128043535247e-04 4.6173872728931829e-04
177 -5.2024758086318150e-04 -7.2389684338992986e-04 -4.4455314824149339e-04
178 -4.0768896314243019e-04 -7.9915200874374566e-04 -4.3261098363905914e-04
179 -3.1112555417542000e-04 -7.8335118678430563e-04 -5.3600023317131767e-04
180 -2.7892856231510833e-04 -8.6087997468167038e-04 -4.1521467270372916e-04
181 -1.7860268418730450e-04 -8.3348037188015725e-04 -5.1988504159569053e-04
182 -1.4073829595586862e-04 -9.0145637701799465e-04 -3.9780108897604028e-04
183 -3.9152514435565727e-05 -8.6105783511749353e-04 -5.0358198313685417e-04
184 1.7064163224950675e-06 -9.2183066257876616e-04 -3.7398446901535417e-04
185 -9.9370169879480172e-05 -9.5093180533117937e-04 -2.6758067458219946e-04
186 4.0087478951581213e-05 -9.6167625137473392e-04 -2.4180902585032156e-04
187 -5.0174308954290222e-05 -9.8027897017264210e-04 -1.3925456879968935e-04
188 8.8302312214350587e-05 -9.8051008909438007e-04 -1.1665296480933481e-04
189 -4.1718920659815733e-06 -9.9076410529040757e-04 -1.4600225126913870e-05
190 1.2842652628583496e-04 -9.8252899124870235e-04 1.2194902222845691e-05
191 3.3646882492504362e-05 -9.8456703663678691e-04 1.0985145056317282e-04
192 1.6710055693778546e-04 -9.6802724371386549e-04 1.3479481457679150e-04
193 6.4185716803025379e-05 -9.6183669879752872e-04 2.3665030602136139e-04
194 2.1663483610511337e-04 -9.6332129453119929e-04 -8.4862091787214902e-05
195 1.9996453560577868e-04 -9.3610403015028114e-04 2.6445005198815180e-04
196 1.0005081240802644e-04 -9.1994389748979472e-04 3.6538970692286663e-04
197 1.0590702595644226e-04 -8.7185465788673980e-04 -4.7393052171955234e-04
198 -9.6681865569337510e-05 -9.8252774003824441e-04 8.3516850310706237e-05
199 2.3111772276379885e-04 -8.8416570948522363e-04 3.9503785737147752e-04
200 3.2936822480593398e-04 -8.9092332086227019e-04 2.9135912998615643e-04
201 3.6103048296633780e-04 -8.3131147871687240e-04 4.1310467996015076e-04
202 1.3172862690068274e-04 -8.5705222154103277e-04 4.9441643287935423e-04
203 4.5343437890003890e-04 -8.2904845027550924e-04 3.0777283073794289e-04
204 -2.8616658951637578e-07 -8.8103818989782024e-04 4.6739827015462588e-04
205 2.8760621969398831e-05 -8.0653047153828061e-04 5.9263635433037278e-04
206 -8.9741499676210593e-04 -4.1459317220467667e-04 6.0935265751785817e-05
207 -8.2580430705435535e-05 -7.6910659262308969e-04 -6.3848156918589567e-04
208 -1.0345973466569744e-04 -8.2383186602676942e-04 5.5734719467203959e-04
209 -6.9185560280669213e-05 -7.3484971714831186e-04 6.8122841950156074e-04
210 4.7807519367680420e-04 -7.6103578107697065e-04 4.3024839199868486e-04
211 5.6467065067538160e-04 -7.5138223446085902e-04 3.2327257308826417e-04
212 -4.9303055866536233e-04 -7.9884598003569199e-04 -3.2508177760584794e-04
213 6.2171201945966241e-05 -7.0674044272234498e-04 7.1286829074194318e-04
214 -3.3716114940262705e-05 -6.2322476438068789e-04 7.9274724605921999e-04
215 -3.1898380551350296e-04 -2.8402806853331696e-04 -9.1954593170086871e-04
216 -2.0771615827454087e-04 -7.4955960291711718e-04 6.3255256748733478e-04
217 -2.4277249556794501e-04 -8.2619469541467293e-04 5.0498729289744245e-04
218 5.4067062190018536e-04 -8.0746917605028189e-04 2.0062578827901109e-04
219 6.4832914268764632e-04 -7.1897804263849907e-04 2.1918099396694670e-04
220 6.1581988167983318e-04 -7.7175364523517640e-04 8.9405868630168257e-05
221 -6.3353615684638449e-04 -6.2880450855693534e-04 -4.4167009528577479e-04
222 7.1938844120670686e-04 -6.7409843724366384e-04 1.0619881038521854e-04
223 6.7806721111982873e-04 -7.2243999068854711e-04 -2.3576977352667397e-05
224 -2.9134809235872600e-04 -1.7223203683128409e-04 -9.5736687984570104e-04
225 -9.5171025033075041e-04 1.1466542853265335e-04 -2.5299024710588163e-04
226 9.5725211652236586e-05 -5.9068611864292555e-04 8.1357690212075558e-04
227 -7.9618636239847163e-06 -4.9734959204011996e-04 8.8233312454017170e-04
228 -5.0802440173334878e-04 -1.9520675572422930e-04 8.5206545470817622e-04
229 -5.9838832207877168e-04 -9.2594261583628254e-05 8.0668290997221441e-04
230 6.5613833114091190e-04 -6.6230012572074284e-04 3.4607810476268143e-04
231 3.8457606825482369e-04 -7.5190861136367022e-04 5.3419831134353184e-04
232 5.0109774049400210e-04 -6.5881388544957494e-04 5.6325726474642406e-04
233 7.7146463881432514e-04 -6.2187227040958978e-04 -1.0431098859513255e-05
234 7.2774166162054531e-04 -6.5876387153823148e-04 -1.3948465972321507e-04
235 -3.8197534446363649e-04 2.5426821005037205e-04 -9.0296933807085993e-04
236 3.0253532601460105e-04 3.2403794457031693e-04 9.1164712195748721e-04
237 -4.2069617114436547e-04 -2.8405177949400510e-04 8.7593879643518922e-04
238 -8.3508314869078757e-04 1.9805657408921695e-04 -5.0968090268218940e-04
239 6.2868974799474284e-04 -7.5136683480211811e-04 -1.5347729534559722e-04
240 6.7866229916551367e-04 -6.7436447208570820e-04 -2.6566925792981580e-04
241 -5.7336319010599997e-04 -4.5181777436423417e-04 6.8989892190669182e-04
242 5.6898411820288522e-04 -7.6511387684236726e-04 -2.7770904687077848e-04
243 6.0780161246016910e-04 -6.8192099427253836e-04 -3.9543478741734743e-04
244 7.1369250434575552e-04 -5.8170859066968895e-04 -3.7715558128511862e-04
245 6.2856416685557988e-04 -5.8244935230274456e-04 -5.1244168720036528e-04
246 -1.9320078764380573e-04 -2.4710808307279908e-04 -9.6646106003937967e-04
247 8.1036130339852094e-04 -5.6037936295681040e-04 1.1064171459065012e-04
248 2.2770288354459142e-04 4.3931791417770163e-04 8.8303672578315181e-04
249 -3.8564083495603007e-04 -1.5813133778157110e-04 9.2474337544808214e-04
250 3.5770507945425149e-04 4.3794648315639243e-04 8.3719412118714363e-04
251 -2.0878809963400963e-04 -3.7911301034029209e-04 -9.1684380476028259e-04
252 -8.5412440074454364e-05 -3.4099524767674069e-04 -9.5294115629220391e-04
253 3.7822625550578863e-04 9.0351728124362870e-04 1.4713657019710697e-04
254 -6.2049608192175888e-04 7.3923940069526954e-04 -2.2518989100624078e-04
255 -7.0892177168282999e-04 6.7750356293760775e-04 -1.3664110971969325e-04
256 -7.9152632842984655e-04 5.6823149083259602e-04 -1.7825397231986280e-04
257 -7.8394479801479906e-04 6.0178525381355478e-04 -5.0949844543430743e-05
258 -2.0907067993404996e-05 4.2425842437134102e-04 9.2062694577020067e-04
259 -2.9512050056300474e-04 -2.3707522466044081e-04 9.4201073389582276e-04
260 -2.7920702310615491e-04 2.1417078655465080e-04 9.5230822332184573e-04
261 -3.5519660779251375e-04 3.0638546741702279e-04 8.9760223645170268e-04
262 -2.6268660033939775e-04 -1.1094210542635240e-04 9.7587496147702186e-04
263 -1.6977307616318450e-04 -2.0595509990553826e-04 9.8139353788060410e-04
264 -8.5725916583988932e-04 4.8780481793497289e-04 -8.3320516651938200e-05
265 -8.4035320676630770e-04 5.2060695855090636e-04 4.7668163673407874e-05
266 -3.4099846811595460e-04 -7.4653812412183991e-04 5.7183377464269309e-04
267 -3.6803949681472919e-04 -8.1412351996622300e-04 4.4080226554624511e-04
268 5.1475364356257634e-04 -6.7681867674155986e-04 -5.2402313661695677e-04
269 5.2307952715992018e-04 -5.7328807709246775e-04 -6.3470092829027438e-04
270 6.2169718388203573e-04 -4.7921569443499395e-04 -6.2295067258624054e-04
271 5.0999615433367212e-04 -4.5946655349145222e-04 -7.3597359707962718e-04
272 4.1138722439218754e-04 -5.5017131958279210e-04 -7.3553068945544085e-04
273 -2.8097790958119532e-04 4.1854720585735689e-04 8.7718544137000266e-04
274 -4.1984878805448875e-04 4.0983886933666503e-04 8.2133709266846676e-04
275 3.9383222119356368e-04 -4.2268714013079893e-04 -8.2881892636046169e-04
276 2.8576044743365125e-04 -5.1251929733986976e-04 -8.2214486515562674e-04
277 -3.2669367990485380e-04 -3.5922125561282866e-04 8.8878375997156634e-04
278 -1.3795184545615800e-04 9.7305962993126391e-04 1.1931093857172748e-04
279 8.1107107978785917e-04 -5.5658273591942177e-04 -1.2094123808282165e-04
280 -2.3334610719373219e-04 4.6202274331307242e-04 -8.6886653457282203e-04
281 -1.5271041352024869e-04 5.7101056519078984e-04 -8.1791806348582646e-04
282 8.5512602657336167e-04 5.0023468169131528e-04 3.0185911531869513e-05
283 1.1531352743489960e-04 -4.7353494820731574e-04 8.8828611454124255e-04
284 -9.7980331088664001e-04 5.5048099408005792e-05 1.3231981190367601e-04
285 -9.0337324006284955e-04 -3.9966200654583393e-04 -7.1303911399383946e-05
286 -8.4196679240309766e-04 -5.2085084304545647e-04 -2.7087755335560310e-05
287 -8.2725654287632599e-04 -5.3452102241803969e-04 1.0713562242339003e-04
288 -7.6473371220806279e-04 -6.2913383133778381e-04 1.9912762967896231e-05
289 -7.3868899399751194e-04 -6.4189385340006192e-04 1.5702115942199614e-04
290 -6.7369543844955659e-04 -7.2262018235055392e-04 7.2881080581485057e-05
291 -1.9266781121247549e-04 -9.5940056121055384e-04 -1.6026379424413065e-04
292 -2.7119960451086868e-04 -8.8369349756392513e-04 3.6746256713960393e-04
293 -3.2767400719049307e-04 -5.5410560098598791e-04 -7.7586123424281685e-04
294 -1.0933058641425174e-04 -4.6818079772923852e-04 -8.9223923212628756e-04
295 -4.8880262964186890e-04 2.8641306403361723e-04 8.3624932430818963e-04
296 -5.5316953189818614e-04 3.9180446750536411e-04 7.4346525678054541e-04
297 -8.5850034978467540e-04 4.4949231683815972e-04 -2.0752642080641484e-04
298 -6.1001328813338614e-04 2.7212997411406726e-04 7.5293552902370292e-04
299 -6.7156197578619207e-04 3.6788119972169363e-04 6.4658642472560331e-04
300 -6.0425568095085912e-04 4.9500565761671875e-04 6.2673236137122143e-04
301 -7.0760433917974009e-04 4.6441330311799219e-04 5.2894067043929207e-04
302 -7.7130326642677960e-04 3.3571703100883881e-04 5.3750952282029273e-04
303 -3.0098833375703408e-04 -6.6319005575444200e-04 6.9204569061129565e-04
304 -6.2837341703585604e-04 5.9136261931736238e-04 5.0003531290212665e-04
305 -8.0444332398305876e-04 4.1568227972382929e-04 4.1189933989286978e-04
306 2.2950033254711492e-04 -5.4825465809357115e-04 8.1685490508598619e-04
307 2.4722947858859000e-04 -4.1925088189176819e-04 8.8874241999128804e-04
308 3.5421784569727717e-04 -4.9109289312463473e-04 8.0832626084432829e-04
309 -4.5530626057116138e-04 -7.2968921769545210e-04 5.0557302117797305e-04
310 -8.5281835215180943e-04 2.8698202963334387e-04 4.2477702230993178e-04
311 -3.9490971703477952e-04 -8.5920824492226550e-04 3.0456368723158294e-04
312 -7.5797618816839758e-04 6.3092357595827102e-04 8.2025104348811521e-05
313 -8.4015230181909233e-04 -5.0187559256903013e-04 -1.5603235000535482e-04
314 -7.4235519506241977e-05 9.7459163758751381e-05 1.0111568761065740e-03
315 -8.7881392979104048e-04 3.5295931762248909e-04 2.9738047013559520e-04
316 -9.6802282643004736e-04 1.8868234396372910e-04 8.5653101605239292e-05
317 -1.0744155729608548e-04 7.6152766383079818e-04 -6.4142704108524303e-04
318 2.6222974605246156e-04 -3.8109256268261261e-04 -9.0172960463743169e-04
319 -6.8882491418978755e-04 -7.0940569625175534e-04 -5.9725531985865023e-05
320 -5.9323938873186838e-04 -7.9283722612559244e-04 -2.3679214954801402e-06
321 -6.6049856741858285e-04 -4.0275962810331500e-04 -6.3692398578700168e-04
322 -8.5494573693178932e-05 -1.9640928910015314e-04 -9.9460867863667866e-04
323 5.0273982087805204e-04 -8.5111365020800541e-04 7.3244605694210396e-05
324 -6.1328032248605903e-04 7.7123576435328390e-04 -9.2938993481424769e-05
325 2.8468015263014473e-04 5.4571651156492184e-04 7.9871996656654775e-04
326 2.9150765579951331e-04 -6.3669141121562329e-04 -7.2207444329964857e-04
327 1.5968517160704540e-04 -5.9898235203376799e-04 -7.9617692651265631e-04
328 4.1534362644631532e-04 5.4396997291289103e-04 7.3712958008342758e-04
329 4.8330962892462431e-04 4.2716834382213500e-04 7.7392814946635401e-04
330 4.5616183850946278e-04 4.4068947567346413e-04 -7.8274884102068267e-04
331 -1.3997694659380378e-06 9.7624181801857018e-04 1.6708144848465024e-04
332 -2.4526070734692347e-05 9.8861249970950971e-04 3.6237731851294450e-05
333 -1.5238477616683006e-04 9.7768803256157864e-04 -2.7035000345563892e-06
334 1.1551624678126804e-04 9.8019052919369703e-04 7.4652538802487167e-05
335 3.6359649125120534e-04 -3.6053735085906171e-04 8.7364825318862142e-04
336 4.6375395907993560e-04 -4.3049891083370232e-04 7.8559271728930976e-04
337 -8.1175030633753376e-04 2.0487593846879278e-04 5.4384197959877611e-04
338 -3.5532975408948100e-04 5.1286500853100613e-04 7.9145297430675615e-04
339 -9.8689611967716021e-05 4.5949019971954533e-04 -8.9682696427387514e-04
340 3.6219774127921160e-04 -3.0773606646516364e-04 -8.9455261612629892e-04
341 3.8770255042481793e-05 -2.6342348326870640e-04 -9.8148495703857764e-04
342 -9.2145971630847739e-04 3.5164074051413630e-04 -9.4940303249372413e-05
343 1.8782337755785817e-05 -3.6746261173541616e-04 9.4680324372810537e-04
344 -5.2331271067634271e-04 6.1175782863485907e-04 5.9369222667829597e-04
345 -5.3010398077145730e-04 7.1293878931305500e-04 4.5172389179176528e-04
346 -6.5158605383173389e-04 6.5467974235676907e-04 3.6634281190585101e-04
347 6.0242109833859986e-04 -3.6434154237894461e-04 -7.1825306439488956e-04
348 7.1477327553136577e-04 -3.7551581410502388e-04 -5.9170660224485891e-04
349 5.3274495582438582e-04 5.1948828747624281e-04 6.7308505477232971e-04
350 6.0515199173982932e-04 3.9717735155396581e-04 6.9638836167667791e-04
351 6.4835447457297528e-04 4.9065159612483747e-04 5.8256317241771967e-04
352 7.1774660985402157e-04 3.5332561861969083e-04 6.0189353032836970e-04
353 7.4747372141718133e-04 4.4796420138911130e-04 4.8519678625326504e-04
354 -6.4205432317941962e-04 -7.2787702137796996e-04 2.0310046973569620e-04
355 2.5469935798217824e-04 5.5299353977475733e-04 -8.0365380840861065e-04
356 1.2806902972147045e-04 5.6584831100221203e-04 -8.2600130879897319e-04
357 -6.7850125227775595e-04 3.2303281430553918e-04 -6.6322262441090871e-04
358 5.2032765175195450e-04 -8.2820948054231286e-04 -1.6335323528844276e-04
359 4.5311147592629237e-04 -8.3807305213866117e-04 -2.8021964610266671e-04
360 -8.1868014412390868e-04 4.8036999947065123e-04 2.8874598927589891e-04
361 -1.2871585433952960e-04 -5.3290728016847913e-04 8.4971491359777686e-04
362 -1.7201799760704784e-04 3.4243029483065784e-04 -9.3942439828909540e-04
363 -2.1568812192565261e-04 5.2151058035131051e-04 8.3731296730351137e-04
364 -5.1262457364311374e-04 8.2964655322398254e-04 -1.7273626334096556e-04
365 1.5618511782431054e-04 5.4777925316355867e-04 8.3394361967319976e-04
366 -3.5025523201421437e-04 -2.7006130423734728e-05 9.5278388784417927e-04
367 -7.0474844940361030e-04 -6.3601698842612761e-04 2.9073310547842845e-04
368 2.0894697986460637e-04 6.5708372165440944e-04 7.3311361241604797e-04
369 8.8771816572592022e-05 6.3588676036412518e-04 7.7512034190574885e-04
370 6.9328989131349473e-04 -2.5525794019686887e-04 -6.8020055773840185e-04
371 -5.4083263409584277e-04 1.6712447380759618e-04 8.3666363628660443e-04
372 -6.6609615789967156e-04 1.3295412348262749e-04 7.4291489201518362e-04
373 5.5554260371218963e-04 8.1765864825829727e-04 -5.2791739335068546e-05
374 -1.2694801374165017e-04 -8.5517913062206058e-05 1.0067118875236650e-03
375 -5.9657145482006340e-05 -1.7239033237313457e-04 1.0014451390737956e-03
376 -2.9910512581031418e-04 -9.1714329032700282e-04 2.3302666446032609e-04
377 -4.3064559649342871e-04 -8.7896341527051076e-04 1.6195293972280550e-04
378 -9.1848718965311174e-04 2.0082369846138531e-04 3.2134025727996256e-04
379 4.1840259050568239e-04 6.4939280124381603e-04 -6.3888634076087955e-04
380 1.6443390289099858e-04 -7.1323935531170687e-04 -6.8774541922862005e-04
381 2.8274207510185334e-04 -7.4047637362609166e-04 -6.1209196861960915e-04
382 -8.9469939595915120e-04 -3.7662890642994808e-04 -2.0067821623504428e-04
383 -8.2682225413326332e-04 -4.6769132517314823e-04 -2.8740826385067374e-04
384 -7.6731388447568696e-04 -5.7698569577367643e-04 -2.5026787320272029e-04
385 -1.7141842599722123e-04 -9.3270166849281511e-04 2.9564589658009899e-04
386 -6.6098330788308120e-04 5.2786837527811037e-04 -5.2918248141032892e-04
387 -7.6019489236780406e-04 4.6938740378273775e-04 -4.3833530637399419e-04
388 8.7226849393030946e-04 2.5072565815705743e-04 -4.0822787740119986e-04
389 -9.0324878159325848e-04 3.2765062362005866e-04 -2.4378872955848417e-04
390 -5.0531620369948839e-04 8.4991264158832921e-04 -3.8270984269169923e-05
391 -3.9799528623310563e-04 8.9980356385492859e-04 -1.0865231566380247e-04
392 -5.9926665543625040e-04 7.8647709757817964e-04 3.2507564061627361e-05
393 -5.8898541916721015e-04 -7.8692978417483576e-04 -1.2567890415713881e-04
394 -4.9776480641254149e-04 -8.5412324594643827e-04 -5.8681043870019240e-05
395 8.1618922920494738e-05 9.8471384567003694e-04 -5.3816194315438429e-05
396 2.1405930798550397e-04 9.6604797702793061e-04 -1.5723902344068855e-05
397 5.2518039500806443e-04 3.3021232669426271e-04 -7.9524958553621006e-04
398 2.4988751066717040e-04 -2.9892964466371761e-04 9.3746441748707263e-04
399 3.6953496624110110e-04 -2.3537949497382354e-04 9.1537291448922069e-04
400 -2.7022419285562438e-04 6.2161640637634682e-04 7.4270309780364967e-04
401 -1.5856573579454806e-04 6.1499271256051967e-04 7.8093666126465521e-04
402 3.1617189583904110e-04 -6.1417487910733726e-04 7.3210320648092774e-04
403 6.4834660375783209e-04 2.7274752415821487e-04 7.1846279994513954e-04
404 6.6327441788196660e-04 5.9476286539597350e-04 4.4744828090652745e-04
405 -3.1050614357357409e-04 -9.3564111394597632e-04 1.0082920704563626e-04
406 2.5711909394697383e-04 -2.7475383762171898e-04 -9.4261991933902939e-04
407 3.5785394065409036e-04 -1.9676399401750681e-04 -9.2845816578212344e-04
408 8.8282712509886750e-05 4.6087195450007253e-04 -8.9719949284238854e-04
409 -8.8119788842811277e-04 4.2763428122334402e-04 1.5294914967711078e-04
410 -4.4895701888076668e-04 8.1043064615359006e-04 3.5845705966591751e-04
411 5.5081542263199913e-04 4.3560338435118278e-04 -7.1785747214826940e-04
412 4.5765841507884955e-04 6.4193006561064959e-04 6.1838344653000201e-04
413 8.0594345914116198e-04 3.1288572544437932e-04 4.9861853767233042e-04
414 8.3244659290086591e-04 3.8949519873008958e-04 3.8005156634477431e-04
415 3.4994397696267435e-05 -1.5270404779229847e-04 -1.0057662755773163e-03
416 -9.6633508229875399e-04 2.1158497790668319e-04 -4.0159422396887297e-05
417 -6.8673303803079127e-05 3.4080187184102055e-04 -9.5358337373425820e-04
418 -1.3109184965504514e-04 2.3816236103260294e-04 -9.7932673335747282e-04
419 3.2706135609797502e-05 1.6591139292945105e-04 -1.0027332422371058e-03
420 -5.1610711648602144e-05 -7.1900517676015579e-05 -1.0143968662299477e-03
421 -9.3469160579077179e-04 3.2215012159856086e-04 5.1847337859879376e-05
422 7.9893328758458575e-04 -2.5701109228057188e-04 -5.4256183184244529e-04
423 8.0709215529275232e-04 -3.7349394174227945e-04 -4.5010718737950199e-04
424 2.4816734739722761e-04 9.5220742792039275e-04 1.0929707599543538e-04
425 2.6204600843434805e-05 -6.8149381861350416e-04 -7.4128192962135396e-04
426 3.3839382628256396e-05 -5.4643805932528633e-04 -8.5046922428813783e-04
427 -7.7492781941430343e-05 -5.9489332985028108e-04 -8.1113439345323031e-04
428 4.0473459192978803e-04 -8.8977358402101900e-04 -1.6548619284360492e-04
429 3.1669237763343975e-04 -9.0127052223822762e-04 -2.7044771791166549e-04
430 3.6084888494448313e-04 -8.4105917970956560e-04 -3.9095732879581706e-04
431 -6.0379025573523582e-04 -7.1687166961550562e-04 3.2910562730701948e-04
432 -6.4572328546274541e-04 -6.2141763687763752e-04 4.3537283923684869e-04
433 1.3727532647166789e-04 -3.3563875588915653e-04 -9.4846665395741027e-04
434 -2.0136095348609071e-06 5.5624247520699851e-04 -8.4408768891686397e-04
435 7.1507467931153560e-05 6.6610593017027626e-04 -7.5080382691282280e-04
436 8.7828347460009489e-04 2.6595035820494676e-04 3.8403518384658804e-04
437 8.9627596682397166e-04 3.3949961872828670e-04 2.5650127333254699e-04
438 8.4468713586459930e-04 4.5095030038603504e-04 2.5884062435564171e-04
439 7.5407475316981328e-04 2.1524561458196310e-04 6.2410214482448874e-04
440 -5.7165007367685026e-04 7.5279835184696730e-04 3.0278834400092038e-04
441 -6.9029693305332402e-04 6.7975295948041585e-04 2.1152293906841527e-04
442 6.7961392578528743e-04 -1.1612542070200702e-04 7.3352069516811262e-04
443 7.2795703668943035e-04 -2.3949400198878393e-04 6.4766546886394795e-04
444 8.1051681091498897e-04 -2.4146562781058280e-04 5.3236810074615162e-04
445 7.4189932695466979e-04 -3.5900145406641740e-04 5.6709745464817211e-04
446 8.1923336380812246e-04 -3.5649245595738733e-04 4.4185965131831331e-04
447 7.3826403366617876e-04 -4.7658920941195102e-04 4.7195777141377401e-04
448 6.5544093047265300e-04 -4.7603719992081846e-04 5.8813680998537896e-04
449 8.0079816880258890e-04 -4.7967874863341989e-04 3.4290318914340936e-04
450 8.7437658355064602e-04 -3.5723061741727838e-04 3.0877695193924127e-04
451 6.4188619057807853e-04 -5.9019310992927047e-04 4.8667683305221663e-04
452 6.7234124916237554e-04 1.3469988869367589e-04 7.3758313446117905e-04
453 -5.5721207966467022e-04 -8.0979352349796563e-04 1.2561473970825539e-04
454 2.3163132747725161e-05 -4.0496530262782506e-04 -9.3027047440788697e-04
455 8.9537190118557609e-04 4.0367406556562435e-04 1.3035807466014459e-04
456 4.6516962425113004e-04 -2.1406021239366225e-04 -8.7299399591506631e-04
457 5.0190180381089872e-04 5.2811724405546576e-04 -6.9043329637686105e-04
458 6.1410158111208720e-04 -2.3585118351653230e-04 7.6435842686990968e-04
459 1.3925314888502398e-04 9.6001871896190399e-04 2.0197428719571122e-04
460 6.2175460540256182e-04 6.9657442345128851e-04 3.3905299602439497e-04
461 3.8411341156993829e-04 5.4396650768830709e-04 -7.5439737730463097e-04
462 -4.2039356743097316e-04 7.0234467940020529e-04 5.7305733777644264e-04
463 7.6826244614235496e-04 -1.3029707864150263e-04 -6.3046282949412577e-04
464 8.7622424665694551e-04 -2.5444409883535759e-04 -3.9793561942419654e-04
465 8.7005712407062447e-04 -3.6483456005508079e-04 -3.1204019730357731e-04
466 3.4825761356301271e-06 8.2245047511210457e-04 -5.6696420968923667e-04
467 9.2415947694841482e-04 -2.4568243977331878e-04 -2.6685053587162378e-04
468 9.1063044181364443e-04 -3.5519593204292726e-04 -1.6967972602555353e-04
469 1.4593944892406051e-04 3.5317927696437078e-04 -9.3982555683089241e-04
470 8.4615727216452491e-04 -4.7223856527290426e-04 2.1434636774029299e-04
471 9.1005853953378315e-04 -3.4958194498157114e-04 1.8211608043180793e-04
472 1.9667167073078522e-04 7.7410083747623919e-04 6.0284849568227258e-04
473 1.4872782976009145e-04 -2.0630803679287031e-04 -9.8451922056736851e-04
474 2.2752080851641304e-04 -8.9371724605545556e-04 -3.7314227044273442e-04
475 5.5854788784693264e-04 7.6856110741462566e-04 -2.8578049828161233e-04
476 3.2369783444819063e-04 7.1615288258455759e-04 6.2014630023854661e-04
477 2.8357541870211280e-04 7.2049647326315170e-04 -6.3548849310340091e-04
478 -1.9090400797164007e-04 -5.5855609406832549e-04 -8.1825210715696353e-04
479 -1.7390782158767634e-04 -6.6957917398559634e-04 -7.3034081415798637e-04
480 -3.9151955250105912e-04 8.2873685291349455e-04 -3.8427566688829584e-04
481 1.9233458645555695e-04 6.5891877642103042e-04 -7.3465257000047068e-04
482 7.5589741842342422e-04 -5.9723094999763603e-04 2.4367289208149579e-04
483 8.8214516939699044e-04 -4.4287292736334689e-04 8.8599123225753071e-05
484 9.3130256497244758e-04 -3.3256915663924699e-04 5.8427665572774772e-05
485 5.7895055496670069e-04 -2.3984770529553065e-04 -7.9030127999151379e-04
486 3.9125626697640651e-04 1.6327381576683819e-04 -9.2064207655359913e-04
487 9.8032636915684887e-04 1.2979562218982509e-04 -6.0702393029006641e-05
488 9.4569732270255501e-04 2.7357826768574192e-04 -1.1873763963631830e-04
489 9.6225323010525944e-04 2.3164284753850664e-04 5.7073439520607422e-06
490 8.9210665019462539e-04 4.1959804257366831e-04 -9.7685912851105711e-05
491 3.4756373788717623e-04 9.2674282553193538e-04 1.0125653548093296e-05
492 2.9385496017418221e-04 9.3734810890330484e-04 -1.2840998285817417e-04
493 4.2964174884240771e-04 8.8829389074009471e-04 -7.8848355468648496e-05
494 9.0559851376806929e-04 -4.0015101647545041e-04 -3.5171532287646773e-05
495 9.4946530669240577e-04 -2.7729574325271908e-04 -5.5424276101686446e-05
496 -3.8617265557200109e-04 9.1081982848919922e-04 2.1670492308079317e-05
497 9.8022547011296954e-04 1.2145496635626016e-04 7.7204490907563204e-05
498 6.7080975836079286e-04 6.7897563052517890e-04 -2.7074378139221503e-04
499 9.8018823184243945e-04 -1.3485195863534771e-04 -6.3170746732994375e-05
500 9.6325793690122394e-04 -1.1180140909495857e-04 2.0901320103174404e-04
501 9.2594409684939780e-04 -1.2773492231075751e-04 -3.3838369673283065e-04
502 8.5747678419813148e-04 1.2798918655683897e-04 -4.9359649042271644e-04
503 8.6321288668579610e-04 -1.2472911980235192e-04 4.8481941211513086e-04
504 4.3634392685709260e-04 1.0604350242865287e-04 9.0890794259793864e-04
505 4.2036477326025048e-04 3.3058567075722786e-04 8.5824082198684884e-04
506 6.5495116626714781e-04 -3.6099167921893626e-04 6.6986112392998975e-04
507 3.0512838427214264e-04 -9.3564101188319294e-05 9.6502588518380765e-04
508 5.4628510960625298e-05 -1.1069124511882190e-04 1.0114133069883621e-03
509 1.5998020411285780e-04 -2.0717213021112545e-04 9.8294264097343979e-04
510 2.5666105732121861e-04 -1.7504430358029606e-04 9.6705992472923734e-04
511 -2.0066427922772319e-04 6.7315738929227037e-04 -7.1842943872291501e-04
512 2.7273987608239747e-04 9.2031825310774033e-04 2.4857420409832976e-04
513 5.6983681364540420e-04 -8.0990648435673993e-04 -3.9615906368062830e-05
514 2.5768392623159867e-04 -9.5624297982819790e-04 3.5500152133137443e-05
515 2.9653143406988648e-04 -9.3259078863060739e-04 1.6134653711244012e-04
516 -5.5175714350875961e-04 5.6422217430279547e-04 -6.1541635664834945e-04
517 7.7284328860170368e-04 -5.7196624187563674e-04 -2.4661682686605551e-04
518 -1.4463855483068811e-04 -9.7934536558071843e-04 -3.9354842621336715e-05
519 -2.9242676819011301e-04 -9.4605742047891941e-04 -4.5782717150260776e-05
520 -3.3233965335983029e-04 -9.1654920440411116e-04 -1.8135957521871714e-04
521 -7.8525658322127078e-04 5.2260750981544704e-04 -3.0838235924881814e-04
522 -9.7880577833301926e-04 9.0089899995916779e-05 -1.2015234337986806e-04
523 7.7971728554882480e-04 5.9933262476113958e-04 1.1709129216175760e-04
524 -7.9406371342923324e-04 -5.4461661832129807e-04 2.3835279670885850e-04
525 7.6924763193019169e-04 5.1683041462290027e-04 3.5874951819574955e-04
526 4.8800783395123965e-04 -7.6926989213147411e-04 -4.0136175044862027e-04
527 -9.4473417097528669e-04 -2.7342805340591889e-04 -1.1770945451567207e-04
528 -9.3438638446358818e-04 -7.2442842027066652e-05 3.2886875247191259e-04
529 -9.1042644865536870e-04 5.2858298760545052e-05 3.9701632896191270e-04
530 -8.4186549064706694e-04 5.7740908037707288e-05 5.3461720905383309e-04
531 -7.7228357253638789e-04 -6.1007109995942085e-04 -1.1503053294179015e-04
532 -9.7084419109029366e-04 -6.7788922015552376e-05 1.8710858682031338e-04
533 -7.3399918323236216e-04 5.3683702130799603e-04 4.0221438546657529e-04
534 -6.9661937145932737e-04 7.0239356888603045e-04 -1.0871168024023250e-05
535 -2.3483257456103810e-04 -9.2054500823433936e-04 -2.8952581060283144e-04
536 6.2233926222308219e-04 7.5371342776510907e-04 -1.6126485191011013e-04
537 -1.3632914864860292e-04 -8.8988928239661037e-04 4.2646332146054332e-04
538 -4.2915607999221456e-05 9.8481619102274397e-04 -8.7670049244188540e-05
539 -1.7299903631764370e-04 9.4440084704688085e-04 -2.4533426940548289e-04
540 6.1873971939303056e-05 9.6891459557129505e-04 -1.9988267915874554e-04
541 -9.3086052986473568e-04 2.8357119902655689e-04 1.8710311596399257e-04
542 -8.7242065388099736e-04 -4.2660949559170320e-04 1.9962289710843847e-04
543 -8.0389689712211056e-04 -8.5555024654916675e-05 5.8916908870133714e-04
544 -7.5240014582980436e-04 3.9734175599056959e-05 6.6152766217015050e-04
545 -6.5452178910410566e-04 -5.2612808627032482e-04 -5.4094675166008644e-04
546 -7.4465928249990287e-04 -4.2603006742265279e-04 -5.0906413787229078e-04
547 -7.5079053408526558e-04 -3.0669401519108671e-04 -5.8518315027673287e-04
548 -6.5467494880337327e-04 -2.7891075422506689e-04 -7.0945766909603003e-04
549 2.6309153399836329e-04 -8.1238326285787822e-04 5.1825340490181952e-04
550 5.6593819057660050e-04 6.0120737237287177e-04 5.6166719037195004e-04
551 8.6539688083077057e-04 3.6340736985472519e-04 -3.2445435596196271e-04
552 8.7886189681609175e-04 -2.4113800396318377e-04 4.0099984517009133e-04
553 1.5775525310424919e-04 -7.7366803288097055e-04 6.1711736067389812e-04
554 -4.4384237472653762e-04 -6.4652019391733145e-04 6.2463614829899453e-04
555 -3.8277786712248232e-04 -5.6716385437231408e-04 7.3769036831606238e-04
556 -8.2868980799469607e-04 -4.3688481704217888e-04 3.3045667930222875e-04
557 -6.0110300328153950e-04 -7.2137416678769921e-04 -3.2365134670710215e-04
558 -7.2262952565774663e-04 2.5078638047219023e-04 6.4749068739499674e-04
559 -6.7667771858757268e-04 -4.5015096467850734e-04 5.8294535255306180e-04
560 -5.7960392132921121e-04 -5.6694205089279765e-04 5.8743201084763240e-04
561 6.3215669681229475e-04 4.7960559622429690e-04 -6.1137883390161333e-04
562 -3.2330895529754524e-04 -6.7998157966582453e-04 -6.6378622154575730e-04
563 -4.8558831886237527e-04 5.1179327684842317e-04 7.1543836457021049e-04
564 7.2316145299171364e-04 -4.8425965968244041e-04 -4.8793467659216205e-04
565 -6.6084821207577064e-05 -2.8430379966270510e-04 9.7403391452052476e-04
566 -1.0459924054653277e-04 -4.0545908687543956e-04 9.2410453817522089e-04
567 -2.0027477051471300e-04 -3.1247297919404123e-04 9.4521009279340755e-04
568 -1.6483889178233607e-04 -6.4738745121143402e-04 7.5379772920698533e-04
569 4.0699289937002302e-04 -6.6144324544107529e-04 -6.3390313969417474e-04
570 -7.0627594516148025e-04 -9.9315924032454048e-05 7.0731066028909678e-04
571 5.3768781392007448e-04 3.0911493132480686e-04 7.9509573505254325e-04
572 4.8171371224194678e-04 -3.3688207471424433e-04 -8.2128788969372947e-04
573 1.3237830565744182e-04 -3.4577441517689007e-04 9.4583539070875161e-04
574 -7.4240200765857622e-04 2.0006273257866265e-04 -6.4215766646108800e-04
575 1.5150907550131511e-04 -4.7303276195408882e-04 -8.8252126949300044e-04
576 -4.5221775748067550e-04 -4.3653127333724003e-04 7.8954962348735144e-04
577 -3.0686552857075446e-04 3.4952936661284225e-04 -8.9966816687734544e-04
578 -2.4136808127417364e-04 2.3661240111992471e-04 -9.5741471844651763e-04
579 -3.0721153081240374e-04 1.2788293594923625e-04 -9.5917964331492043e-04
580 -4.8847032489501548e-04 1.6589009439542508e-05 -8.8623969493661892e-04
581 4.5687649870532047e-04 -5.6511901781320978e-04 6.9560400322718550e-04
582 4.8508292659928983e-04 -3.0115491583832275e-04 8.3397779189898255e-04
583 -4.4276129707452910e-04 1.4198958316706124e-04 -8.9952381906771171e-04
584 -4.1102726270796205e-04 1.8394520852100998e-04 9.0776423038742000e-04
585 -4.4572426348861514e-04 7.3413689729526297e-05 9.0700715824614301e-04
586 -3.3821581794326770e-04 -4.1372455384522519e-04 -8.5849156661174056e-04
587 2.6761298972576385e-05 9.4596316158628696e-04 2.9828069348212833e-04
588 -3.8892003740809464e-04 -8.7019619690092455e-05 -9.3269930349250472e-04
589 -2.5813210298719196e-04 -6.2711379495694990e-05 -9.8119561561084596e-04
590 -1.8407178809384461e-04 -1.1199443160074014e-04 -9.9431970467966837e-04
591 -1.4938226184714655e-04 4.1858780309015069e-04 9.1063694758719864e-04
592 -5.1571095140606120e-04 7.8892844496608464e-04 -3.1062206882316069e-04
593 -2.3296598059995794e-04 9.1239701446050631e-07 9.9001238679347439e-04
594 3.6740453851927371e-04 2.2270098178416370e-04 9.1860092108302723e-04
595 -8.0024159403535979e-04 5.5874811291615079e-04 1.6938601477766596e-04
596 4.2140444239469949e-04 -8.7881726988439418e-04 1.8522016324285922e-04
597 9.6588551800173497e-05 4.3910179328346985e-04 9.0817295787824098e-04
598 3.2213397762548312e-04 8.9791914220882160e-04 -2.7110534591228785e-04
599 1.8623492550865452e-04 -6.6660900282290562e-04 7.3077316930024851e-04
600 -5.2501004178945646e-04 -8.0487827393767059e-04 2.4784734856420494e-04
601 -8.4032338632797224e-04 4.0582794239391951e-04 -3.3919298291015126e-04
602 -8.1123463385177617e-04 3.4519523159765963e-04 -4.6294426313400289e-04
603 -7.3635838152969293e-04 -5.3617126261048501e-04 -4.0169133413617790e-04
604 -9.0616309442425496e-04 1.4527643242752777e-04 -3.8143746426467232e-04
605 -4.0530833785212936e-04 -9.0346087216957064e-04 2.1536090486876681e-05
606 -3.1541833347971567e-04 8.4584872203662597e-04 4.1758591083800289e-04
607 4.7493469041633110e-05 1.4537980628886269e-04 1.0058399454513569e-03
608 -4.3808503743854516e-05 7.7014138764572900e-04 6.3921865245681957e-04
609 -7.4589778519485773e-04 -1.7364651398550529e-04 -6.4667635555873274e-04
610 9.4765182449317988e-04 2.5670359957683273e-04 1.3978930086067985e-04
611 4.4194279857467993e-04 -8.4810180856295241e-05 -9.0845376440723275e-04
612 9.1903190903606230e-04 1.2598110473516081e-04 3.5793906661500875e-04
613 -3.7115502203122886e-04 -8.6975561642244190e-04 -3.0422041574691466e-04
614 4.9456592910154434e-05 -7.9160360148364012e-04 -6.1192855789441683e-04
615 4.6052597694097342e-04 -8.7597998021963206e-04 -5.1171366260709243e-05
616 -6.7837439620470157e-04 -6.9549393136282523e-04 -2.0114635517692688e-04
617 -9.2735006054125763e-04 -2.4831111778337548e-04 -2.4902042893222299e-04
618 -6.1821733656312796e-04 4.5029671693334140e-04 -6.4708654999970036e-04
619 1.9015551225825850e-04 -9.4652689921155206e-04 -2.3237016381218796e-04
620 -3.2903915681871026e-05 -9.3571181925345347e-04 3.3424585642487698e-04
621 3.8880888407363134e-04 -7.6184449952729021e-04 -5.1518484227078862e-04
622 -2.3166751683268596e-04 -4.4346624394242773e-04 8.7999368144333419e-04
623 7.9990755758738163e-04 -4.7611093270788930e-04 -3.4974415957167871e-04
624 9.2326094427901335e-04 1.2898435628757164e-04 -3.4491172102560092e-04
625 -4.0342631226890103e-04 6.1080361580101189e-04 6.8609974149844372e-04
626 -2.5430466561772230e-04 -5.6499072161775884e-04 7.9587695851187420e-04
627 -9.4896666402772070e-05 5.3618818749017079e-04 8.5124612913383693e-04
628 4.7188133451228517e-04 8.6885087757364624e-04 4.9263814203643925e-05
629 -9.5334445567173338e-04 5.6889070244840479e-05 2.6797887540304193e-04
630 -5.8926160663904119e-04 7.7824965077492468e-04 1.6629022047222629e-04
631 -8.2992486074318420e-04 -1.9411321791909115e-04 -5.1893102863774987e-04
632 -4.0450789738162357e-04 8.7048930472435383e-04 -2.4757624569990725e-04
633 9.2201209335305461e-04 2.4999009376945044e-04 -2.6870051962880865e-04
634 -3.1797189379804134e-04 8.5655178000848658e-05 9.6082192601954788e-04
635 3.8456026494396915e-04 -9.1142667751471025e-04 6.0785806041451624e-05
636 -6.5945244352452165e-05 -9.6793008862092493e-04 2.0722165314904432e-04
637 -4.7788067662431530e-04 -6.1068500967625340e-05 8.9067358286895474e-04
638 4.3720120617675987e-04 2.4829775009481788e-04 -8.7741527722350792e-04
639 4.4058716764612364e-04 -1.1429637154833124e-04 9.0578918185355896e-04
640 -7.0470710515405566e-05 6.6441094012103131e-04 -7.5216824936565410e-04
641 -9.5112389625636687e-04 2.2373661841516051e-04 -1.6196242590272507e-04
642 -8.7591280207472539e-04 2.7945516729982272e-04 -3.7691786081623372e-04
643 2.8440053017200496e-04 -7.2385754996173897e-04 6.3273228232287688e-04
644 5.6288748630956313e-04 -4.6722294942473847e-04 6.8851847686617876e-04
645 6.0366774292423819e-04 2.2820077810126356e-04 -7.7380643049823833e-04
646 -2.0623406020643667e-04 1.1303820468946520e-04 9.8930797905148445e-04
647 2.7686191265345622e-05 5.4232597822679196e-04 8.5242514332134836e-04
648 -7.4199655243668177e-04 5.8882841837607815e-04 2.9189792978984711e-04
649 -2.6482452398675750e-04 9.5097140523295288e-04 7.1388481012401149e-05
650 9.2700675429840127e-04 -2.3624640176337009e-04 2.6587582061741072e-04
651 -4.6827566974284201e-04 -8.5248101511828552e-04 -1.9599913913214776e-04
652 -8.7173497588129666e-04 -3.4165902269766294e-04 -3.3063529551395599e-04
653 -1.9146096141176158e-04 1.2929209673021095e-04 -9.9017798326881800e-04
654 8.4772168647010251e-04 -4.6677638871877089e-04 -2.1862350895292590e-04
655 -7.2276271945146309e-04 4.1050009194860710e-04 -5.5299061317619358e-04
656 6.6279430457215718e-04 -1.2460729892198183e-04 -7.4754313118773140e-04
657 -7.4791919415673636e-04 -5.3859870834623437e-04 3.7263785676970807e-04
658 -3.5235250550058372e-04 2.7377992832892206e-05 -9.5144315739466084e-04
659 -1.6465015807869504e-04 1.2529095404751876e-05 -1.0044579383772989e-03
660 -4.3487023061039703e-05 -4.8709392175411377e-06 -1.0166876596050781e-03
661 8.4818471269389585e-04 -5.1179593684088167e-04 -4.5760463377935053e-06
662 4.5928913311683976e-05 -2.5704804632586221e-04 9.8325381102778715e-04
663 5.0515660025428040e-04 8.3338375042982748e-04 -1.7674013956926629e-04
664 -2.7545448404406433e-04 9.4930604306276757e-04 -4.6215219186093907e-05
665 -2.9194291204266047e-04 9.2860153840754417e-04 -1.8244853115530058e-04
666 -7.5741084131951574e-05 1.2739248667831642e-04 -1.0073131447063440e-03
667 2.5678706140394239e-04 -8.2784123806327434e-04 -4.9428503696758211e-04
668 -5.6779413301392913e-04 4.3511203822296386e-05 8.3402012342287802e-04
669 -8.2487862568353908e-04 -3.1773175259886113e-04 -4.5878078679129558e-04
670 -4.8742062970927362e-04 8.5654121009989695e-04 9.1234842606755488e-05
671 -9.5629160286840598e-04 1.5829264324491624e-04 2.0198581112911731e-04
672 5.5955918199415082e-04 -3.5943317862148478e-04 7.5545933917819496e-04
673 -1.7406305818030766e-05 2.4694616460620898e-04 -9.8598868284041109e-04
674 -1.9812947557986291e-04 -9.5650985840412721e-04 1.6949226950905937e-04
675 4.1182659527580381e-04 7.3745114655154507e-04 5.3032803608297477e-04
676 7.3321694682649199e-05 7.2821372841090648e-04 6.8689944250427924e-04
677 4.8646743179730660e-04 2.0920787481621688e-04 8.6163838476311554e-04
678 -4.9083520692635291e-04 -7.7998155618883740e-04 3.7330092253913332e-04
679 2.9523169655003387e-04 -7.3657358511028647e-05 -9.6986752891984826e-04
680 3.9001126425432638e-04 -6.6706522332194177e-04 6.3817708065844441e-04
681 -8.7400094331543108e-04 1.5721605242031939e-04 4.4859632559436766e-04
682 -8.9419141130180481e-04 4.2244213094609569e-04 1.6244289089438097e-05
683 -6.7053449911595091e-05 2.8339713724651636e-06 1.0154252066958947e-03
684 3.4379673502857143e-04 -9.2745916108628705e-04 -5.7660513877332417e-05
685 4.0328707397869698e-04 8.8501026829243415e-04 -1.8378630921391372e-04
686 1.6804780731597560e-04 -7.9777590427677035e-04 -5.7813523987285424e-04
687 1.7275899795498475e-04 9.6544184134538999e-04 -1.2971257557211352e-04
688 -8.0667444538619511e-04 -4.2071081170988651e-04 -3.9973247138449754e-04
689 -5.4098977953002296e-04 -6.4908321738892832e-04 5.3051216428417190e-04
690 5.7656955961830024e-04 -6.8865421072104535e-04 4.2955378870310646e-04
691 9.5435214831649776e-04 -2.2566645945547165e-04 1.4395811501188681e-04
692 -6.8989554886989869e-04 -5.2864386065800762e-04 4.8726997738663411e-04
693 9.2728706188854166e-04 2.2249722830965348e-04 2.7223791980313897e-04
694 -1.7270523345699028e-04 9.6756489445663492e-04 -1.1556791158963299e-04
695 9.0235471429438250e-04 3.5444211566525445e-04 -2.0356972272049848e-04
696 -5.0548522610146698e-05 6.5940219235393748e-04 7.5997222555608339e-04
697 -3.3076214492417082e-04 -4.7896168838599390e-04 8.2404733211066433e-04
698 9.2590013830280823e-04 3.5204117499014134e-04 1.3165245701100794e-05
699 -4.8618493610913858e-04 -5.3797347196376220e-04 6.9419449518353586e-04
700 -6.6322797660993134e-04 5.8967095160270390e-06 7.5583086103037296e-04
701 5.6536356192774570e-04 -5.6106981853688842e-04 6.0640538222839712e-04
702 -6.8958433974817494e-04 -6.3668265158909004e-04 -3.2258306436660236e-04
703 -7.6702758340701236e-04 3.0054394341877703e-04 -5.6333526939857906e-04
704 4.8967244842918774e-05 3.4414194696890613e-04 -9.5361286909103303e-04
705 3.0321678986296174e-04 6.2500017580771779e-04 -7.2518671357425660e-04
706 -3.0961344810324633e-04 6.8881077065802501e-04 6.5770484960597797e-04
707 1.1140407526921361e-04 -9.2455655707328213e-04 -3.4605478207712414e-04
708 -6.7260011368627760e-04 7.1795396228901975e-04 1.0073536788889164e-04
709 9.2010087082341753e-06 7.3569236814513160e-04 -6.8056885867507266e-04
710 -4.0224216809981947e-04 7.7547881513005418e-04 4.7730824141560676e-04
711 -9.2335027466234395e-04 2.2153887529493163e-04 -2.8366483959508588e-04
712 7.7042372663297483e-04 1.0407687018719403e-04 6.3173915680628137e-04
713 -2.1457206670709699e-04 -7.5288150123478605e-04 -6.2363717548967685e-04
714 6.3400242071222856e-04 3.4875454443665982e-04 -6.9662057702073405e-04
715 -2.1358155678868730e-04 -9.6501909213396497e-04 5.5923894858706117e-05
716 -2.5070145832050501e-04 4.6618681128047031e-05 -9.8338568442347778e-04
717 -4.0351312364217325e-04 -8.9966133484672408e-04 -8.9471217212741959e-05
718 4.9493692340362263e-04 -2.0402618607932399e-04 8.5768222812298808e-04
719 7.2577368537104928e-04 -5.6504735431320329e-04 3.7787380962045573e-04
720 8.3940623159130322e-04 5.0293285963235032e-04 1.4979313563622651e-04
721 2.4274769889663696e-04 -1.6733781152916823e-04 -9.7190780839863638e-04
722 -5.7083106654778318e-04 -7.7662125892959772e-04 -2.3140307611874754e-04
723 3.3979860356545116e-05 8.6044637184688345e-05 -1.0135183441409873e-03
724 -1.8742577899781131e-04 7.1115420288334074e-04 6.8355507678806026e-04
725 8.7166332487978644e-04 -4.5809990108262887e-04 -1.0524389957711086e-04
726 5.7804098331233665e-04 2.0566972235377924e-04 7.9990358587774674e-04
727 7.8281747565967863e-04 5.6147180785872460e-04 2.3336221814262273e-04
728 5.3956619999762838e-04 5.9031307010724973e-04 -5.9972495890595837e-04
729 4.7100038758328991e-04 9.7419414145722501e-05 -8.9020358824309410e-04
730 7.0773828018050214e-04 6.1869184967108500e-04 3.1697580728671870e-04
731 -2.5684446688429457e-04 -6.1951612128631885e-04 -7.4818539155031578e-04
732 3.4018978003940781e-04 6.2307888075106485e-04 7.0979553714880248e-04
733 -7.1792918046182538e-05 9.6984553111832087e-04 -1.8296347855848070e-04
734 -2.3288507784000731e-04 -4.7583318181559160e-04 -8.6052943268468871e-04
735 9.5084116392441778e-04 -2.3166346537593043e-04 -1.5375718821187179e-04
736 9.6422521116809330e-04 -2.2200392569500307e-04 3.0095867920855820e-05
737 -1.3742982124771097e-05 -5.2703753376550319e-05 1.0165418482653442e-03
738 -4.9922421543316820e-04 -8.5321437361559412e-04 5.0066706981077432e-05
739 4.9074214861412465e-04 2.1204047836265459e-04 -8.5792131998278863e-04
740 -7.6375123312307533e-04 1.3748004559091740e-04 6.3205701396765559e-04
741 -1.4581290776486669e-04 3.0632511207614083e-05 1.0061361134627539e-03
742 -5.5958738019646465e-04 -6.9895391897847989e-04 4.3343787228068676e-04
743 -6.0355728838968523e-06 4.4162684420141025e-04 -9.1106964282963493e-04
744 2.9804655412933080e-04 -9.3108196609762296e-04 -1.6068719631195461e-04
745 -8.9550273390351219e-05 -6.7779993832608489e-04 -7.3589670101626835e-04
$EndNodes
$Elements
1486
1 2 2 0 0 410 440 345
2 2 2 0 0 421 541 409
3 2 2 0 0 409 682 421
4 2 2 0 0 545 603 546
5 2 2 0 0 426 427 294
6 2 2 0 0 294 454 426
7 2 2 0 0 265 682 409
8 2 2 0 0 24 41 4
9 2 2 0 0 3 24 4
10 2 2 0 0 238 642 602
11 2 2 0 0 520 651 613
12 2 2 0 0 653 666 659
13 2 2 0 0 404 460 98
14 2 2 0 0 222 482 219
15 2 2 0 0 40 463 9
16 2 2 0 0 608 724 696
17 2 2 0 0 435 709 69
18 2 2 0 0 413 439 29
19 2 2 0 0 345 710 410
20 2 2 0 0 422 463 40
21 2 2 0 0 98 550 404
22 2 2 0 0 95 724 608
23 2 2 0 0 4 41 5
24 2 2 0 0 232 701 581
25 2 2 0 0 490 698 488
26 2 2 0 0 29 436 413
27 2 2 0 0 416 421 342
28 2 2 0 0 312 595 441
29 2 2 0 0 41 486 5
30 2 2 0 0 405 605 519
31 2 2 0 0 409 595 265
32 2 2 0 0 69 481 435
33 2 2 0 0 434 743 339
34 2 2 0 0 342 641 416
35 2 2 0 0 485 656 370
36 2 2 0 0 89 587 90
37 2 2 0 0 108 466 317
38 2 2 0 0 378 629 529
39 2 2 0 0 581 680 232
40 2 2 0 0 281 434 339
41 2 2 0 0 638 739 486
42 2 2 0 0 659 666 660
43 2 2 0 0 345 440 346
44 2 2 0 0 22 44 25
45 2 2 0 0 9 463 8
46 2 2 0 0 44 81 25
47 2 2 0 0 459 587 89
48 2 2 0 0 127 670 630
49 2 2 0 0 508 662 509
50 2 2 0 0 375 662 508
51 2 2 0 0 492 598 103
52 2 2 0 0 604 642 238
53 2 2 0 0 507 510 399
54 2 2 0 0 488 698 489
55 2 2 0 0 34 473 415
56 2 2 0 0 399 639 507
57 2 2 0 0 603 688 546
58 2 2 0 0 316 541 421
59 2 2 0 0 647 696 627
60 2 2 0 0 403 439 352
61 2 2 0 0 221 603 545
62 2 2 0 0 595 648 441
63 2 2 0 0 412 550 98
64 2 2 0 0 411 714 397
65 2 2 0 0 486 739 729
66 2 2 0 0 696 724 401
67 2 2 0 0 247 482 222
68 2 2 0 0 397 714 645
69 2 2 0 0 613 651 212
70 2 2 0 0 207 745 425
71 2 2 0 0 98 675 412
72 2 2 0 0 219 482 230
73 2 2 0 0 560 692 432
74 2 2 0 0 432 689 560
75 2 2 0 0 454 575 426
76 2 2 0 0 352 439 413
77 2 2 0 0 415 420 2
78 2 2 0 0 40 464 422
79 2 2 0 0 89 512 459
80 2 2 0 0 425 614 207
81 2 2 0 0 377 600 453
82 2 2 0 0 89 90 88
83 2 2 0 0 80 466 108
84 2 2 0 0 520 717 651
85 2 2 0 0 602 703 238
86 2 2 0 0 103 687 492
87 2 2 0 0 253 491 424
88 2 2 0 0 69 709 466
89 2 2 0 0 424 512 253
90 2 2 0 0 369 696 647
91 2 2 0 0 581 701 644
92 2 2 0 0 630 670 392
93 2 2 0 0 32 656 485
94 2 2 0 0 459 512 424
95 2 2 0 0 90 91 88
96 2 2 0 0 427 478 294
97 2 2 0 0 488 695 490
98 2 2 0 0 554 699 560
99 2 2 0 0 67 80 79
100 2 2 0 0 252 454 294
101 2 2 0 0 253 628 491
102 2 2 0 0 529 681 378
103 2 2 0 0 519 715 405
104 2 2 0 0 440 441 346
105 2 2 0 0 605 717 519
106 2 2 0 0 403 452 439
107 2 2 0 0 507 639 21
108 2 2 0 0 565 567 566
109 2 2 0 0 433 454 341
110 2 2 0 0 67 466 80
111 2 2 0 0 555 697 576
112 2 2 0 0 491 628 493
113 2 2 0 0 389 641 342
114 2 2 0 0 429 619 474
115 2 2 0 0 40 501 464
116 2 2 0 0 576 699 555
117 2 2 0 0 311 600 377
118 2 2 0 0 567 622 566
119 2 2 0 0 433 575 454
120 2 2 0 0 378 671 629
121 2 2 0 0 79 540 103
122 2 2 0 0 341 473 433
123 2 2 0 0 673 704 68
124 2 2 0 0 462 710 345
125 2 2 0 0 557 722 616
126 2 2 0 0 573 662 343
127 2 2 0 0 370 656 463
128 2 2 0 0 341 454 252
129 2 2 0 0 616 702 557
130 2 2 0 0 6 26 7
131 2 2 0 0 464 501 467
132 2 2 0 0 433 473 406
133 2 2 0 0 8 45 37
134 2 2 0 0 466 709 317
135 2 2 0 0 457 461 379
136 2 2 0 0 84 512 86
137 2 2 0 0 19 452 33
138 2 2 0 0 380 614 425
139 2 2 0 0 83 540 79
140 2 2 0 0 398 510 509
141 2 2 0 0 609 631 137
142 2 2 0 0 18 442 36
143 2 2 0 0 26 45 7
144 2 2 0 0 565 566 343
145 2 2 0 0 80 83 79
146 2 2 0 0 560 689 554
147 2 2 0 0 134 137 136
148 2 2 0 0 68 469 42
149 2 2 0 0 659 716 653
150 2 2 0 0 619 707 474
151 2 2 0 0 497 610 39
152 2 2 0 0 137 138 136
153 2 2 0 0 283 573 343
154 2 2 0 0 506 644 448
155 2 2 0 0 499 735 31
156 2 2 0 0 81 97 25
157 2 2 0 0 45 46 37
158 2 2 0 0 585 668 637
159 2 2 0 0 495 735 499
160 2 2 0 0 399 510 398
161 2 2 0 0 509 573 398
162 2 2 0 0 442 443 36
163 2 2 0 0 1 607 314
164 2 2 0 0 29 612 436
165 2 2 0 0 547 631 609
166 2 2 0 0 360 595 409
167 2 2 0 0 421 682 342
168 2 2 0 0 426 575 327
169 2 2 0 0 123 577 235
170 2 2 0 0 339 743 417
171 2 2 0 0 7 45 8
172 2 2 0 0 3 723 24
173 2 2 0 0 418 666 653
174 2 2 0 0 59 60 58
175 2 2 0 0 620 636 193
176 2 2 0 0 42 469 47
177 2 2 0 0 65 67 66
178 2 2 0 0 509 662 573
179 2 2 0 0 470 482 247
180 2 2 0 0 368 476 472
181 2 2 0 0 530 740 337
182 2 2 0 0 253 512 84
183 2 2 0 0 455 698 282
184 2 2 0 0 61 65 62
185 2 2 0 0 59 61 60
186 2 2 0 0 91 472 88
187 2 2 0 0 90 92 91
188 2 2 0 0 19 442 18
189 2 2 0 0 464 465 423
190 2 2 0 0 706 724 118
191 2 2 0 0 456 611 32
192 2 2 0 0 379 477 61
193 2 2 0 0 417 743 704
194 2 2 0 0 314 683 1
195 2 2 0 0 442 458 443
196 2 2 0 0 11 28 12
197 2 2 0 0 61 62 60
198 2 2 0 0 118 724 95
199 2 2 0 0 22 25 23
200 2 2 0 0 247 483 470
201 2 2 0 0 281 640 434
202 2 2 0 0 197 667 474
203 2 2 0 0 86 512 89
204 2 2 0 0 417 704 673
205 2 2 0 0 451 690 230
206 2 2 0 0 27 442 19
207 2 2 0 0 637 668 229
208 2 2 0 0 60 475 58
209 2 2 0 0 489 610 497
210 2 2 0 0 307 573 283
211 2 2 0 0 61 477 65
212 2 2 0 0 65 66 62
213 2 2 0 0 544 740 530
214 2 2 0 0 230 719 451
215 2 2 0 0 18 452 19
216 2 2 0 0 268 569 269
217 2 2 0 0 32 485 456
218 2 2 0 0 627 696 401
219 2 2 0 0 24 42 41
220 2 2 0 0 20 27 19
221 2 2 0 0 330 461 457
222 2 2 0 0 506 672 644
223 2 2 0 0 472 476 87
224 2 2 0 0 468 495 494
225 2 2 0 0 88 472 87
226 2 2 0 0 121 577 123
227 2 2 0 0 327 575 276
228 2 2 0 0 422 464 423
229 2 2 0 0 47 63 49
230 2 2 0 0 458 506 443
231 2 2 0 0 232 690 451
232 2 2 0 0 28 487 12
233 2 2 0 0 80 107 83
234 2 2 0 0 608 696 676
235 2 2 0 0 356 481 355
236 2 2 0 0 138 238 136
237 2 2 0 0 137 139 138
238 2 2 0 0 729 739 26
239 2 2 0 0 81 99 97
240 2 2 0 0 46 50 37
241 2 2 0 0 463 656 8
242 2 2 0 0 443 444 36
243 2 2 0 0 68 704 469
244 2 2 0 0 24 68 42
245 2 2 0 0 16 503 30
246 2 2 0 0 65 69 67
247 2 2 0 0 67 79 66
248 2 2 0 0 676 696 369
249 2 2 0 0 59 379 61
250 2 2 0 0 90 93 92
251 2 2 0 0 464 467 465
252 2 2 0 0 441 708 312
253 2 2 0 0 483 484 471
254 2 2 0 0 427 479 478
255 2 2 0 0 245 564 244
256 2 2 0 0 470 483 471
257 2 2 0 0 473 721 406
258 2 2 0 0 555 699 554
259 2 2 0 0 47 469 63
260 2 2 0 0 63 355 49
261 2 2 0 0 62 64 60
262 2 2 0 0 80 108 107
263 2 2 0 0 107 539 83
264 2 2 0 0 139 140 138
265 2 2 0 0 99 100 97
266 2 2 0 0 81 236 99
267 2 2 0 0 46 51 50
268 2 2 0 0 443 445 444
269 2 2 0 0 24 419 68
270 2 2 0 0 69 466 67
271 2 2 0 0 79 103 66
272 2 2 0 0 65 477 69
273 2 2 0 0 547 548 321
274 2 2 0 0 93 94 92
275 2 2 0 0 467 468 465
276 2 2 0 0 333 664 649
277 2 2 0 0 55 498 56
278 2 2 0 0 56 498 72
279 2 2 0 0 12 499 31
280 2 2 0 0 63 356 355
281 2 2 0 0 108 110 107
282 2 2 0 0 139 141 140
283 2 2 0 0 100 101 97
284 2 2 0 0 236 248 99
285 2 2 0 0 81 594 236
286 2 2 0 0 51 52 50
287 2 2 0 0 192 515 195
288 2 2 0 0 445 446 444
289 2 2 0 0 477 481 69
290 2 2 0 0 94 95 92
291 2 2 0 0 93 96 94
292 2 2 0 0 63 408 356
293 2 2 0 0 108 111 110
294 2 2 0 0 110 117 107
295 2 2 0 0 139 154 141
296 2 2 0 0 141 142 140
297 2 2 0 0 51 53 52
298 2 2 0 0 100 102 101
299 2 2 0 0 236 250 248
300 2 2 0 0 445 447 446
301 2 2 0 0 52 388 50
302 2 2 0 0 277 622 567
303 2 2 0 0 95 608 92
304 2 2 0 0 94 118 95
305 2 2 0 0 93 104 96
306 2 2 0 0 51 561 53
307 2 2 0 0 408 434 356
308 2 2 0 0 53 54 52
309 2 2 0 0 445 448 447
310 2 2 0 0 108 317 111
311 2 2 0 0 141 143 142
312 2 2 0 0 142 225 140
313 2 2 0 0 102 166 101
314 2 2 0 0 250 325 248
315 2 2 0 0 100 258 102
316 2 2 0 0 53 55 54
317 2 2 0 0 447 449 446
318 2 2 0 0 236 505 250
319 2 2 0 0 104 105 96
320 2 2 0 0 53 57 55
321 2 2 0 0 55 56 54
322 2 2 0 0 448 451 447
323 2 2 0 0 14 39 15
324 2 2 0 0 317 511 111
325 2 2 0 0 10 40 9
326 2 2 0 0 143 144 142
327 2 2 0 0 57 58 55
328 2 2 0 0 8 37 9
329 2 2 0 0 14 38 13
330 2 2 0 0 166 314 101
331 2 2 0 0 18 36 17
332 2 2 0 0 16 29 17
333 2 2 0 0 33 504 20
334 2 2 0 0 325 365 248
335 2 2 0 0 199 202 196
336 2 2 0 0 7 32 6
337 2 2 0 0 434 435 356
338 2 2 0 0 74 75 73
339 2 2 0 0 223 239 234
340 2 2 0 0 74 76 75
341 2 2 0 0 72 74 73
342 2 2 0 0 231 549 201
343 2 2 0 0 202 205 204
344 2 2 0 0 226 227 214
345 2 2 0 0 272 275 271
346 2 2 0 0 276 318 275
347 2 2 0 0 213 214 209
348 2 2 0 0 76 77 75
349 2 2 0 0 210 231 201
350 2 2 0 0 16 30 15
351 2 2 0 0 205 209 208
352 2 2 0 0 202 204 196
353 2 2 0 0 318 406 340
354 2 2 0 0 195 196 193
355 2 2 0 0 322 420 415
356 2 2 0 0 239 240 234
357 2 2 0 0 163 588 168
358 2 2 0 0 12 31 11
359 2 2 0 0 56 72 71
360 2 2 0 0 425 426 327
361 2 2 0 0 19 33 20
362 2 2 0 0 168 224 215
363 2 2 0 0 209 568 216
364 2 2 0 0 318 433 406
365 2 2 0 0 269 271 270
366 2 2 0 0 268 269 245
367 2 2 0 0 21 639 20
368 2 2 0 0 84 85 82
369 2 2 0 0 181 207 183
370 2 2 0 0 269 272 271
371 2 2 0 0 272 276 275
372 2 2 0 0 242 243 240
373 2 2 0 0 102 167 166
374 2 2 0 0 223 234 233
375 2 2 0 0 283 343 227
376 2 2 0 0 205 208 204
377 2 2 0 0 213 226 214
378 2 2 0 0 271 572 347
379 2 2 0 0 243 268 245
380 2 2 0 0 335 398 307
381 2 2 0 0 303 555 554
382 2 2 0 0 226 283 227
383 2 2 0 0 347 485 370
384 2 2 0 0 195 199 196
385 2 2 0 0 205 213 209
386 2 2 0 0 246 322 252
387 2 2 0 0 76 78 77
388 2 2 0 0 133 163 135
389 2 2 0 0 163 168 164
390 2 2 0 0 322 415 341
391 2 2 0 0 227 361 214
392 2 2 0 0 191 198 189
393 2 2 0 0 78 84 82
394 2 2 0 0 209 216 208
395 2 2 0 0 78 82 77
396 2 2 0 0 216 303 266
397 2 2 0 0 417 418 362
398 2 2 0 0 314 607 101
399 2 2 0 0 339 362 280
400 2 2 0 0 243 245 244
401 2 2 0 0 187 291 185
402 2 2 0 0 429 430 359
403 2 2 0 0 143 145 144
404 2 2 0 0 202 553 205
405 2 2 0 0 339 417 362
406 2 2 0 0 131 580 133
407 2 2 0 0 239 242 240
408 2 2 0 0 57 59 58
409 2 2 0 0 224 246 215
410 2 2 0 0 84 86 85
411 2 2 0 0 303 554 266
412 2 2 0 0 72 73 71
413 2 2 0 0 437 438 414
414 2 2 0 0 318 340 275
415 2 2 0 0 269 270 245
416 2 2 0 0 86 87 85
417 2 2 0 0 192 193 191
418 2 2 0 0 123 235 129
419 2 2 0 0 263 374 262
420 2 2 0 0 425 427 426
421 2 2 0 0 149 150 147
422 2 2 0 0 210 232 231
423 2 2 0 0 74 373 76
424 2 2 0 0 168 215 169
425 2 2 0 0 259 262 249
426 2 2 0 0 145 146 144
427 2 2 0 0 367 524 289
428 2 2 0 0 271 347 270
429 2 2 0 0 406 407 340
430 2 2 0 0 334 459 424
431 2 2 0 0 429 474 430
432 2 2 0 0 250 328 325
433 2 2 0 0 431 432 367
434 2 2 0 0 104 278 105
435 2 2 0 0 145 147 146
436 2 2 0 0 151 152 150
437 2 2 0 0 235 583 129
438 2 2 0 0 237 249 228
439 2 2 0 0 149 151 150
440 2 2 0 0 159 161 158
441 2 2 0 0 153 155 152
442 2 2 0 0 156 158 155
443 2 2 0 0 354 367 289
444 2 2 0 0 259 263 262
445 2 2 0 0 190 191 189
446 2 2 0 0 177 221 174
447 2 2 0 0 162 228 161
448 2 2 0 0 124 516 386
449 2 2 0 0 418 653 578
450 2 2 0 0 371 584 295
451 2 2 0 0 151 153 152
452 2 2 0 0 153 156 155
453 2 2 0 0 159 162 161
454 2 2 0 0 374 593 262
455 2 2 0 0 156 159 158
456 2 2 0 0 237 259 249
457 2 2 0 0 146 284 160
458 2 2 0 0 266 309 267
459 2 2 0 0 264 265 257
460 2 2 0 0 86 88 87
461 2 2 0 0 265 312 257
462 2 2 0 0 162 237 228
463 2 2 0 0 21 44 22
464 2 2 0 0 324 392 390
465 2 2 0 0 371 585 584
466 2 2 0 0 262 366 249
467 2 2 0 0 192 195 193
468 2 2 0 0 263 375 374
469 2 2 0 0 216 266 217
470 2 2 0 0 326 327 276
471 2 2 0 0 260 646 166
472 2 2 0 0 220 223 222
473 2 2 0 0 322 341 252
474 2 2 0 0 256 257 255
475 2 2 0 0 78 253 84
476 2 2 0 0 358 359 242
477 2 2 0 0 188 189 187
478 2 2 0 0 281 339 280
479 2 2 0 0 146 160 144
480 2 2 0 0 123 129 128
481 2 2 0 0 255 324 254
482 2 2 0 0 228 229 161
483 2 2 0 0 354 431 367
484 2 2 0 0 163 164 135
485 2 2 0 0 155 157 152
486 2 2 0 0 243 244 240
487 2 2 0 0 256 264 257
488 2 2 0 0 284 316 160
489 2 2 0 0 380 425 327
490 2 2 0 0 148 149 147
491 2 2 0 0 335 399 398
492 2 2 0 0 418 578 362
493 2 2 0 0 334 424 396
494 2 2 0 0 167 260 166
495 2 2 0 0 325 368 365
496 2 2 0 0 428 429 359
497 2 2 0 0 165 255 254
498 2 2 0 0 297 342 264
499 2 2 0 0 298 371 295
500 2 2 0 0 218 323 220
501 2 2 0 0 310 337 302
502 2 2 0 0 165 256 255
503 2 2 0 0 186 187 185
504 2 2 0 0 56 71 70
505 2 2 0 0 165 254 125
506 2 2 0 0 200 201 199
507 2 2 0 0 148 206 149
508 2 2 0 0 324 390 364
509 2 2 0 0 190 192 191
510 2 2 0 0 368 369 365
511 2 2 0 0 353 404 351
512 2 2 0 0 104 331 278
513 2 2 0 0 256 297 264
514 2 2 0 0 316 421 416
515 2 2 0 0 239 358 242
516 2 2 0 0 169 586 171
517 2 2 0 0 286 287 206
518 2 2 0 0 324 364 254
519 2 2 0 0 241 576 162
520 2 2 0 0 168 169 164
521 2 2 0 0 121 123 122
522 2 2 0 0 266 267 217
523 2 2 0 0 129 131 130
524 2 2 0 0 216 217 208
525 2 2 0 0 285 382 313
526 2 2 0 0 172 321 170
527 2 2 0 0 390 391 364
528 2 2 0 0 296 563 300
529 2 2 0 0 246 252 251
530 2 2 0 0 285 286 206
531 2 2 0 0 288 289 287
532 2 2 0 0 298 372 371
533 2 2 0 0 23 35 22
534 2 2 0 0 300 344 304
535 2 2 0 0 344 462 345
536 2 2 0 0 123 128 122
537 2 2 0 0 297 389 342
538 2 2 0 0 237 277 259
539 2 2 0 0 148 285 206
540 2 2 0 0 86 89 88
541 2 2 0 0 306 307 283
542 2 2 0 0 234 279 233
543 2 2 0 0 316 416 160
544 2 2 0 0 188 190 189
545 2 2 0 0 85 98 82
546 2 2 0 0 358 428 359
547 2 2 0 0 437 455 438
548 2 2 0 0 203 210 201
549 2 2 0 0 382 383 313
550 2 2 0 0 153 176 156
551 2 2 0 0 290 354 289
552 2 2 0 0 159 241 162
553 2 2 0 0 386 387 126
554 2 2 0 0 273 363 338
555 2 2 0 0 272 326 276
556 2 2 0 0 171 293 173
557 2 2 0 0 145 148 147
558 2 2 0 0 274 295 261
559 2 2 0 0 285 313 286
560 2 2 0 0 383 384 313
561 2 2 0 0 301 302 299
562 2 2 0 0 131 133 132
563 2 2 0 0 296 298 295
564 2 2 0 0 305 310 302
565 2 2 0 0 349 412 328
566 2 2 0 0 344 345 304
567 2 2 0 0 77 119 75
568 2 2 0 0 315 378 310
569 2 2 0 0 363 401 400
570 2 2 0 0 332 333 278
571 2 2 0 0 223 233 222
572 2 2 0 0 331 334 332
573 2 2 0 0 186 188 187
574 2 2 0 0 178 212 177
575 2 2 0 0 305 360 315
576 2 2 0 0 334 396 395
577 2 2 0 0 246 251 215
578 2 2 0 0 167 261 260
579 2 2 0 0 175 179 178
580 2 2 0 0 345 346 304
581 2 2 0 0 124 386 126
582 2 2 0 0 286 288 287
583 2 2 0 0 331 332 278
584 2 2 0 0 179 181 180
585 2 2 0 0 301 305 302
586 2 2 0 0 300 304 301
587 2 2 0 0 296 300 299
588 2 2 0 0 305 315 310
589 2 2 0 0 296 299 298
590 2 2 0 0 320 453 290
591 2 2 0 0 274 296 295
592 2 2 0 0 313 531 286
593 2 2 0 0 120 281 280
594 2 2 0 0 360 409 315
595 2 2 0 0 363 400 338
596 2 2 0 0 129 130 128
597 2 2 0 0 300 301 299
598 2 2 0 0 1 508 23
599 2 2 0 0 167 273 261
600 2 2 0 0 133 135 134
601 2 2 0 0 173 174 172
602 2 2 0 0 311 377 376
603 2 2 0 0 273 274 261
604 2 2 0 0 273 338 274
605 2 2 0 0 334 395 332
606 2 2 0 0 183 197 184
607 2 2 0 0 319 393 320
608 2 2 0 0 449 450 446
609 2 2 0 0 288 290 289
610 2 2 0 0 226 306 283
611 2 2 0 0 326 380 327
612 2 2 0 0 175 177 174
613 2 2 0 0 181 183 182
614 2 2 0 0 219 230 211
615 2 2 0 0 308 335 307
616 2 2 0 0 267 311 292
617 2 2 0 0 169 170 164
618 2 2 0 0 288 319 290
619 2 2 0 0 126 165 125
620 2 2 0 0 120 280 121
621 2 2 0 0 130 357 128
622 2 2 0 0 195 200 199
623 2 2 0 0 169 171 170
624 2 2 0 0 171 172 170
625 2 2 0 0 184 186 185
626 2 2 0 0 73 282 71
627 2 2 0 0 252 294 251
628 2 2 0 0 319 320 290
629 2 2 0 0 131 132 130
630 2 2 0 0 393 394 320
631 2 2 0 0 171 173 172
632 2 2 0 0 4 34 3
633 2 2 0 0 218 220 219
634 2 2 0 0 267 292 217
635 2 2 0 0 184 185 182
636 2 2 0 0 188 194 190
637 2 2 0 0 56 70 54
638 2 2 0 0 377 405 376
639 2 2 0 0 449 470 450
640 2 2 0 0 179 180 178
641 2 2 0 0 173 175 174
642 2 2 0 0 175 178 177
643 2 2 0 0 250 329 328
644 2 2 0 0 311 376 292
645 2 2 0 0 329 571 350
646 2 2 0 0 347 370 348
647 2 2 0 0 220 222 219
648 2 2 0 0 376 385 292
649 2 2 0 0 133 134 132
650 2 2 0 0 134 136 132
651 2 2 0 0 306 308 307
652 2 2 0 0 200 203 201
653 2 2 0 0 233 247 222
654 2 2 0 0 98 460 82
655 2 2 0 0 329 349 328
656 2 2 0 0 326 381 380
657 2 2 0 0 347 348 270
658 2 2 0 0 181 182 180
659 2 2 0 0 121 122 115
660 2 2 0 0 350 351 349
661 2 2 0 0 308 336 335
662 2 2 0 0 350 403 352
663 2 2 0 0 470 471 450
664 2 2 0 0 203 211 210
665 2 2 0 0 218 219 211
666 2 2 0 0 183 184 182
667 2 2 0 0 370 463 422
668 2 2 0 0 306 402 308
669 2 2 0 0 203 218 211
670 2 2 0 0 71 490 70
671 2 2 0 0 329 350 349
672 2 2 0 0 436 437 414
673 2 2 0 0 124 126 125
674 2 2 0 0 413 414 353
675 2 2 0 0 422 423 348
676 2 2 0 0 352 353 351
677 2 2 0 0 370 422 348
678 2 2 0 0 350 352 351
679 2 2 0 0 413 436 414
680 2 2 0 0 352 413 353
681 2 2 0 0 120 121 115
682 2 2 0 0 110 480 117
683 2 2 0 0 124 125 116
684 2 2 0 0 126 521 165
685 2 2 0 0 113 120 115
686 2 2 0 0 127 440 410
687 2 2 0 0 114 124 116
688 2 2 0 0 543 544 530
689 2 2 0 0 488 489 487
690 2 2 0 0 585 637 366
691 2 2 0 0 543 570 544
692 2 2 0 0 113 115 114
693 2 2 0 0 127 410 106
694 2 2 0 0 114 116 112
695 2 2 0 0 195 515 200
696 2 2 0 0 491 493 492
697 2 2 0 0 12 487 13
698 2 2 0 0 546 547 321
699 2 2 0 0 330 457 411
700 2 2 0 0 157 543 530
701 2 2 0 0 519 520 291
702 2 2 0 0 28 488 487
703 2 2 0 0 111 112 110
704 2 2 0 0 312 534 257
705 2 2 0 0 476 732 412
706 2 2 0 0 27 458 442
707 2 2 0 0 385 636 620
708 2 2 0 0 176 559 156
709 2 2 0 0 593 634 366
710 2 2 0 0 589 590 224
711 2 2 0 0 113 114 112
712 2 2 0 0 109 127 106
713 2 2 0 0 270 564 245
714 2 2 0 0 443 506 445
715 2 2 0 0 491 492 396
716 2 2 0 0 388 624 502
717 2 2 0 0 445 506 448
718 2 2 0 0 30 500 15
719 2 2 0 0 20 504 21
720 2 2 0 0 64 475 60
721 2 2 0 0 287 542 206
722 2 2 0 0 23 508 35
723 2 2 0 0 302 558 299
724 2 2 0 0 70 551 54
725 2 2 0 0 62 598 64
726 2 2 0 0 424 491 396
727 2 2 0 0 407 456 340
728 2 2 0 0 545 546 321
729 2 2 0 0 330 411 397
730 2 2 0 0 72 536 74
731 2 2 0 0 238 574 136
732 2 2 0 0 659 660 420
733 2 2 0 0 395 538 332
734 2 2 0 0 143 527 145
735 2 2 0 0 412 675 476
736 2 2 0 0 239 513 358
737 2 2 0 0 157 530 529
738 2 2 0 0 518 519 291
739 2 2 0 0 449 482 470
740 2 2 0 0 207 713 479
741 2 2 0 0 119 523 75
742 2 2 0 0 109 670 127
743 2 2 0 0 10 501 40
744 2 2 0 0 508 509 35
745 2 2 0 0 96 606 94
746 2 2 0 0 331 459 334
747 2 2 0 0 286 531 288
748 2 2 0 0 290 453 354
749 2 2 0 0 282 490 71
750 2 2 0 0 384 531 313
751 2 2 0 0 289 524 287
752 2 2 0 0 349 550 412
753 2 2 0 0 165 521 256
754 2 2 0 0 82 460 77
755 2 2 0 0 155 543 157
756 2 2 0 0 201 549 199
757 2 2 0 0 273 591 363
758 2 2 0 0 387 521 126
759 2 2 0 0 114 516 124
760 2 2 0 0 53 561 57
761 2 2 0 0 266 554 309
762 2 2 0 0 257 534 255
763 2 2 0 0 205 553 213
764 2 2 0 0 142 522 225
765 2 2 0 0 435 481 356
766 2 2 0 0 216 568 303
767 2 2 0 0 300 563 344
768 2 2 0 0 214 568 209
769 2 2 0 0 112 480 110
770 2 2 0 0 350 571 403
771 2 2 0 0 347 572 485
772 2 2 0 0 275 572 271
773 2 2 0 0 274 563 296
774 2 2 0 0 171 586 293
775 2 2 0 0 162 576 237
776 2 2 0 0 133 580 163
777 2 2 0 0 11 501 10
778 2 2 0 0 295 584 261
779 2 2 0 0 129 583 131
780 2 2 0 0 215 586 169
781 2 2 0 0 250 505 329
782 2 2 0 0 168 588 224
783 2 2 0 0 321 548 170
784 2 2 0 0 262 593 366
785 2 2 0 0 166 646 314
786 2 2 0 0 520 535 291
787 2 2 0 0 373 663 493
788 2 2 0 0 291 535 185
789 2 2 0 0 101 607 97
790 2 2 0 0 130 574 357
791 2 2 0 0 158 570 543
792 2 2 0 0 31 501 11
793 2 2 0 0 444 552 503
794 2 2 0 0 156 559 159
795 2 2 0 0 236 594 505
796 2 2 0 0 206 542 149
797 2 2 0 0 54 551 52
798 2 2 0 0 74 536 373
799 2 2 0 0 337 558 302
800 2 2 0 0 150 532 147
801 2 2 0 0 379 728 457
802 2 2 0 0 299 558 298
803 2 2 0 0 332 538 333
804 2 2 0 0 145 527 148
805 2 2 0 0 514 515 192
806 2 2 0 0 15 500 14
807 2 2 0 0 75 523 73
808 2 2 0 0 467 501 31
809 2 2 0 0 254 592 125
810 2 2 0 0 172 545 321
811 2 2 0 0 144 522 142
812 2 2 0 0 528 532 150
813 2 2 0 0 187 518 291
814 2 2 0 0 553 599 213
815 2 2 0 0 383 603 384
816 2 2 0 0 282 698 490
817 2 2 0 0 244 517 240
818 2 2 0 0 353 525 404
819 2 2 0 0 395 540 538
820 2 2 0 0 94 606 118
821 2 2 0 0 117 539 107
822 2 2 0 0 185 535 182
823 2 2 0 0 388 502 50
824 2 2 0 0 167 591 273
825 2 2 0 0 147 532 146
826 2 2 0 0 92 608 91
827 2 2 0 0 472 676 368
828 2 2 0 0 364 592 254
829 2 2 0 0 21 504 44
830 2 2 0 0 365 597 248
831 2 2 0 0 125 592 116
832 2 2 0 0 588 589 224
833 2 2 0 0 111 113 112
834 2 2 0 0 63 469 408
835 2 2 0 0 105 109 106
836 2 2 0 0 242 526 243
837 2 2 0 0 439 712 29
838 2 2 0 0 240 517 234
839 2 2 0 0 346 533 304
840 2 2 0 0 14 500 38
841 2 2 0 0 494 495 484
842 2 2 0 0 127 630 440
843 2 2 0 0 208 537 204
844 2 2 0 0 175 562 179
845 2 2 0 0 303 626 555
846 2 2 0 0 359 526 242
847 2 2 0 0 243 526 268
848 2 2 0 0 217 537 208
849 2 2 0 0 58 498 55
850 2 2 0 0 503 552 30
851 2 2 0 0 13 499 12
852 2 2 0 0 268 621 569
853 2 2 0 0 489 497 487
854 2 2 0 0 475 498 58
855 2 2 0 0 430 526 359
856 2 2 0 0 248 597 99
857 2 2 0 0 292 537 217
858 2 2 0 0 26 645 45
859 2 2 0 0 234 517 279
860 2 2 0 0 14 497 39
861 2 2 0 0 385 537 292
862 2 2 0 0 305 533 360
863 2 2 0 0 304 533 301
864 2 2 0 0 146 532 284
865 2 2 0 0 483 494 484
866 2 2 0 0 173 562 175
867 2 2 0 0 116 480 112
868 2 2 0 0 224 590 246
869 2 2 0 0 189 518 187
870 2 2 0 0 498 536 72
871 2 2 0 0 414 525 353
872 2 2 0 0 160 522 144
873 2 2 0 0 547 609 548
874 2 2 0 0 182 535 180
875 2 2 0 0 297 601 389
876 2 2 0 0 44 594 81
877 2 2 0 0 301 533 305
878 2 2 0 0 105 106 96
879 2 2 0 0 515 596 200
880 2 2 0 0 293 562 173
881 2 2 0 0 73 523 282
882 2 2 0 0 148 527 285
883 2 2 0 0 174 545 172
884 2 2 0 0 218 596 323
885 2 2 0 0 200 596 203
886 2 2 0 0 149 542 151
887 2 2 0 0 446 552 444
888 2 2 0 0 49 461 330
889 2 2 0 0 330 397 48
890 2 2 0 0 453 738 377
891 2 2 0 0 255 534 324
892 2 2 0 0 52 551 388
893 2 2 0 0 634 646 260
894 2 2 0 0 513 615 358
895 2 2 0 0 438 525 414
896 2 2 0 0 516 618 386
897 2 2 0 0 198 518 189
898 2 2 0 0 227 566 361
899 2 2 0 0 559 560 241
900 2 2 0 0 90 587 93
901 2 2 0 0 416 522 160
902 2 2 0 0 102 591 167
903 2 2 0 0 134 609 137
904 2 2 0 0 298 558 372
905 2 2 0 0 132 574 130
906 2 2 0 0 106 606 96
907 2 2 0 0 159 559 241
908 2 2 0 0 32 611 6
909 2 2 0 0 158 543 155
910 2 2 0 0 223 513 239
911 2 2 0 0 288 531 319
912 2 2 0 0 323 513 220
913 2 2 0 0 115 516 114
914 2 2 0 0 521 601 297
915 2 2 0 0 610 698 455
916 2 2 0 0 354 600 431
917 2 2 0 0 351 550 349
918 2 2 0 0 256 521 297
919 2 2 0 0 140 604 138
920 2 2 0 0 77 460 119
921 2 2 0 0 17 503 16
922 2 2 0 0 9 502 10
923 2 2 0 0 104 587 331
924 2 2 0 0 152 528 150
925 2 2 0 0 315 541 378
926 2 2 0 0 170 548 164
927 2 2 0 0 590 659 420
928 2 2 0 0 11 624 28
929 2 2 0 0 199 549 202
930 2 2 0 0 502 624 10
931 2 2 0 0 453 600 354
932 2 2 0 0 42 43 41
933 2 2 0 0 38 499 13
934 2 2 0 0 285 527 382
935 2 2 0 0 190 514 192
936 2 2 0 0 157 529 528
937 2 2 0 0 231 643 549
938 2 2 0 0 331 587 459
939 2 2 0 0 451 701 232
940 2 2 0 0 99 597 100
941 2 2 0 0 361 568 214
942 2 2 0 0 372 740 544
943 2 2 0 0 221 545 174
944 2 2 0 0 138 604 238
945 2 2 0 0 340 572 275
946 2 2 0 0 338 563 274
947 2 2 0 0 524 542 287
948 2 2 0 0 265 595 312
949 2 2 0 0 111 511 113
950 2 2 0 0 580 658 588
951 2 2 0 0 580 588 163
952 2 2 0 0 237 576 277
953 2 2 0 0 444 503 36
954 2 2 0 0 131 583 580
955 2 2 0 0 505 571 329
956 2 2 0 0 203 596 218
957 2 2 0 0 584 634 260
958 2 2 0 0 261 584 260
959 2 2 0 0 369 647 365
960 2 2 0 0 251 586 215
961 2 2 0 0 348 564 270
962 2 2 0 0 450 552 446
963 2 2 0 0 390 496 391
964 2 2 0 0 66 598 62
965 2 2 0 0 465 623 423
966 2 2 0 0 258 591 102
967 2 2 0 0 343 566 227
968 2 2 0 0 564 623 244
969 2 2 0 0 154 617 141
970 2 2 0 0 324 534 392
971 2 2 0 0 50 502 37
972 2 2 0 0 524 556 542
973 2 2 0 0 544 700 372
974 2 2 0 0 122 516 115
975 2 2 0 0 177 557 221
976 2 2 0 0 489 698 610
977 2 2 0 0 93 587 104
978 2 2 0 0 136 574 132
979 2 2 0 0 593 646 634
980 2 2 0 0 116 592 480
981 2 2 0 0 143 617 527
982 2 2 0 0 225 604 140
983 2 2 0 0 137 631 139
984 2 2 0 0 549 553 202
985 2 2 0 0 164 548 135
986 2 2 0 0 404 550 351
987 2 2 0 0 34 721 473
988 2 2 0 0 220 513 223
989 2 2 0 0 317 640 511
990 2 2 0 0 100 597 258
991 2 2 0 0 588 658 589
992 2 2 0 0 323 615 513
993 2 2 0 0 568 626 303
994 2 2 0 0 377 605 405
995 2 2 0 0 178 613 212
996 2 2 0 0 493 628 373
997 2 2 0 0 157 528 152
998 2 2 0 0 591 627 363
999 2 2 0 0 409 541 315
1000 2 2 0 0 183 614 197
1001 2 2 0 0 103 598 66
1002 2 2 0 0 188 619 194
1003 2 2 0 0 213 599 226
1004 2 2 0 0 306 599 402
1005 2 2 0 0 97 607 25
1006 2 2 0 0 194 514 190
1007 2 2 0 0 373 628 76
1008 2 2 0 0 78 628 253
1009 2 2 0 0 42 47 43
1010 2 2 0 0 39 612 15
1011 2 2 0 0 16 612 29
1012 2 2 0 0 437 610 455
1013 2 2 0 0 487 497 13
1014 2 2 0 0 440 630 441
1015 2 2 0 0 479 713 562
1016 2 2 0 0 196 620 193
1017 2 2 0 0 456 572 340
1018 2 2 0 0 120 511 281
1019 2 2 0 0 577 578 235
1020 2 2 0 0 335 582 399
1021 2 2 0 0 314 741 683
1022 2 2 0 0 520 613 535
1023 2 2 0 0 585 634 584
1024 2 2 0 0 423 564 348
1025 2 2 0 0 457 561 411
1026 2 2 0 0 6 611 5
1027 2 2 0 0 385 620 537
1028 2 2 0 0 228 637 229
1029 2 2 0 0 366 637 249
1030 2 2 0 0 161 570 158
1031 2 2 0 0 434 640 435
1032 2 2 0 0 193 636 191
1033 2 2 0 0 410 606 106
1034 2 2 0 0 37 502 9
1035 2 2 0 0 36 503 17
1036 2 2 0 0 141 617 143
1037 2 2 0 0 363 627 401
1038 2 2 0 0 322 590 420
1039 2 2 0 0 357 618 128
1040 2 2 0 0 430 621 526
1041 2 2 0 0 540 687 103
1042 2 2 0 0 280 577 121
1043 2 2 0 0 276 575 318
1044 2 2 0 0 362 578 577
1045 2 2 0 0 109 649 496
1046 2 2 0 0 246 590 322
1047 2 2 0 0 326 569 381
1048 2 2 0 0 569 621 381
1049 2 2 0 0 269 569 272
1050 2 2 0 0 139 631 154
1051 2 2 0 0 649 664 496
1052 2 2 0 0 537 620 204
1053 2 2 0 0 355 461 49
1054 2 2 0 0 663 685 493
1055 2 2 0 0 479 745 207
1056 2 2 0 0 343 662 565
1057 2 2 0 0 212 557 177
1058 2 2 0 0 45 645 46
1059 2 2 0 0 496 670 109
1060 2 2 0 0 366 634 585
1061 2 2 0 0 384 616 531
1062 2 2 0 0 535 613 180
1063 2 2 0 0 391 632 364
1064 2 2 0 0 308 581 336
1065 2 2 0 0 344 625 462
1066 2 2 0 0 563 625 344
1067 2 2 0 0 13 497 14
1068 2 2 0 0 480 632 117
1069 2 2 0 0 371 668 585
1070 2 2 0 0 333 649 278
1071 2 2 0 0 387 601 521
1072 2 2 0 0 47 49 48
1073 2 2 0 0 358 615 428
1074 2 2 0 0 113 511 120
1075 2 2 0 0 527 617 382
1076 2 2 0 0 105 649 109
1077 2 2 0 0 398 573 307
1078 2 2 0 0 368 676 369
1079 2 2 0 0 180 613 178
1080 2 2 0 0 153 556 176
1081 2 2 0 0 432 657 367
1082 2 2 0 0 458 718 582
1083 2 2 0 0 207 614 183
1084 2 2 0 0 407 611 456
1085 2 2 0 0 244 623 517
1086 2 2 0 0 20 639 27
1087 2 2 0 0 476 675 87
1088 2 2 0 0 319 616 393
1089 2 2 0 0 474 707 197
1090 2 2 0 0 226 599 306
1091 2 2 0 0 47 48 43
1092 2 2 0 0 186 619 188
1093 2 2 0 0 412 732 328
1094 2 2 0 0 316 671 541
1095 2 2 0 0 293 734 478
1096 2 2 0 0 492 685 598
1097 2 2 0 0 528 629 532
1098 2 2 0 0 514 635 515
1099 2 2 0 0 531 616 319
1100 2 2 0 0 8 656 7
1101 2 2 0 0 387 602 601
1102 2 2 0 0 76 628 78
1103 2 2 0 0 122 618 516
1104 2 2 0 0 651 717 394
1105 2 2 0 0 423 623 564
1106 2 2 0 0 546 669 547
1107 2 2 0 0 4 679 34
1108 2 2 0 0 542 556 151
1109 2 2 0 0 548 609 135
1110 2 2 0 0 204 620 196
1111 2 2 0 0 529 629 528
1112 2 2 0 0 482 719 230
1113 2 2 0 0 258 627 591
1114 2 2 0 0 336 582 335
1115 2 2 0 0 197 686 667
1116 2 2 0 0 583 658 580
1117 2 2 0 0 85 675 98
1118 2 2 0 0 59 728 379
1119 2 2 0 0 400 625 338
1120 2 2 0 0 394 717 605
1121 2 2 0 0 471 650 450
1122 2 2 0 0 596 635 323
1123 2 2 0 0 249 637 228
1124 2 2 0 0 515 635 596
1125 2 2 0 0 338 625 563
1126 2 2 0 0 28 633 488
1127 2 2 0 0 566 622 361
1128 2 2 0 0 229 570 161
1129 2 2 0 0 468 654 465
1130 2 2 0 0 118 710 462
1131 2 2 0 0 15 612 16
1132 2 2 0 0 589 659 590
1133 2 2 0 0 526 621 268
1134 2 2 0 0 365 647 597
1135 2 2 0 0 579 583 235
1136 2 2 0 0 22 507 21
1137 2 2 0 0 342 682 264
1138 2 2 0 0 441 648 346
1139 2 2 0 0 191 636 198
1140 2 2 0 0 578 653 579
1141 2 2 0 0 135 609 134
1142 2 2 0 0 128 618 122
1143 2 2 0 0 378 681 310
1144 2 2 0 0 230 690 211
1145 2 2 0 0 210 690 232
1146 2 2 0 0 549 643 553
1147 2 2 0 0 233 661 247
1148 2 2 0 0 10 624 11
1149 2 2 0 0 640 709 435
1150 2 2 0 0 449 719 482
1151 2 2 0 0 452 726 33
1152 2 2 0 0 362 577 280
1153 2 2 0 0 318 575 433
1154 2 2 0 0 492 687 396
1155 2 2 0 0 586 734 293
1156 2 2 0 0 357 655 618
1157 2 2 0 0 277 567 259
1158 2 2 0 0 522 641 225
1159 2 2 0 0 511 640 281
1160 2 2 0 0 247 661 483
1161 2 2 0 0 610 693 39
1162 2 2 0 0 272 569 326
1163 2 2 0 0 490 695 70
1164 2 2 0 0 553 643 599
1165 2 2 0 0 532 629 284
1166 2 2 0 0 29 712 17
1167 2 2 0 0 632 665 117
1168 2 2 0 0 618 655 386
1169 2 2 0 0 241 699 576
1170 2 2 0 0 457 728 561
1171 2 2 0 0 485 572 456
1172 2 2 0 0 430 667 621
1173 2 2 0 0 582 672 458
1174 2 2 0 0 395 687 540
1175 2 2 0 0 504 594 44
1176 2 2 0 0 181 713 207
1177 2 2 0 0 197 707 184
1178 2 2 0 0 524 657 556
1179 2 2 0 0 475 536 498
1180 2 2 0 0 394 738 320
1181 2 2 0 0 51 714 561
1182 2 2 0 0 151 556 153
1183 2 2 0 0 437 693 610
1184 2 2 0 0 361 626 568
1185 2 2 0 0 611 679 5
1186 2 2 0 0 231 680 643
1187 2 2 0 0 462 706 118
1188 2 2 0 0 390 670 496
1189 2 2 0 0 602 642 601
1190 2 2 0 0 49 330 48
1191 2 2 0 0 391 665 632
1192 2 2 0 0 508 737 375
1193 2 2 0 0 450 650 552
1194 2 2 0 0 368 732 476
1195 2 2 0 0 578 579 235
1196 2 2 0 0 402 581 308
1197 2 2 0 0 43 486 41
1198 2 2 0 0 562 713 179
1199 2 2 0 0 592 632 480
1200 2 2 0 0 416 641 522
1201 2 2 0 0 372 668 371
1202 2 2 0 0 452 712 439
1203 2 2 0 0 282 720 455
1204 2 2 0 0 556 657 176
1205 2 2 0 0 364 632 592
1206 2 2 0 0 403 726 452
1207 2 2 0 0 465 654 623
1208 2 2 0 0 278 649 105
1209 2 2 0 0 154 652 617
1210 2 2 0 0 383 688 603
1211 2 2 0 0 451 719 447
1212 2 2 0 0 317 709 640
1213 2 2 0 0 604 711 642
1214 2 2 0 0 382 652 383
1215 2 2 0 0 601 642 389
1216 2 2 0 0 284 671 316
1217 2 2 0 0 599 643 402
1218 2 2 0 0 388 633 624
1219 2 2 0 0 267 678 311
1220 2 2 0 0 337 681 530
1221 2 2 0 0 279 661 233
1222 2 2 0 0 605 738 394
1223 2 2 0 0 33 677 504
1224 2 2 0 0 386 655 387
1225 2 2 0 0 547 669 631
1226 2 2 0 0 562 731 479
1227 2 2 0 0 360 648 595
1228 2 2 0 0 432 692 657
1229 2 2 0 0 367 657 524
1230 2 2 0 0 633 695 488
1231 2 2 0 0 415 473 341
1232 2 2 0 0 644 672 336
1233 2 2 0 0 551 633 388
1234 2 2 0 0 533 648 360
1235 2 2 0 0 407 679 611
1236 2 2 0 0 323 635 615
1237 2 2 0 0 530 681 529
1238 2 2 0 0 393 651 394
1239 2 2 0 0 387 655 602
1240 2 2 0 0 238 703 574
1241 2 2 0 0 594 677 505
1242 2 2 0 0 559 692 560
1243 2 2 0 0 621 667 381
1244 2 2 0 0 405 674 376
1245 2 2 0 0 325 732 368
1246 2 2 0 0 623 654 517
1247 2 2 0 0 581 644 336
1248 2 2 0 0 346 648 533
1249 2 2 0 0 517 654 279
1250 2 2 0 0 477 705 481
1251 2 2 0 0 481 705 355
1252 2 2 0 0 561 728 57
1253 2 2 0 0 379 705 477
1254 2 2 0 0 617 652 382
1255 2 2 0 0 30 650 500
1256 2 2 0 0 376 674 385
1257 2 2 0 0 518 715 519
1258 2 2 0 0 474 667 430
1259 2 2 0 0 478 734 294
1260 2 2 0 0 624 633 28
1261 2 2 0 0 186 707 619
1262 2 2 0 0 64 663 475
1263 2 2 0 0 597 647 258
1264 2 2 0 0 377 738 605
1265 2 2 0 0 31 735 467
1266 2 2 0 0 27 718 458
1267 2 2 0 0 419 673 68
1268 2 2 0 0 616 722 393
1269 2 2 0 0 24 723 419
1270 2 2 0 0 397 638 48
1271 2 2 0 0 404 730 460
1272 2 2 0 0 91 676 472
1273 2 2 0 0 622 626 361
1274 2 2 0 0 7 656 32
1275 2 2 0 0 576 697 277
1276 2 2 0 0 471 691 650
1277 2 2 0 0 536 663 373
1278 2 2 0 0 484 691 471
1279 2 2 0 0 552 650 30
1280 2 2 0 0 311 678 600
1281 2 2 0 0 486 729 5
1282 2 2 0 0 418 673 666
1283 2 2 0 0 232 680 231
1284 2 2 0 0 5 679 4
1285 2 2 0 0 117 665 539
1286 2 2 0 0 384 702 616
1287 2 2 0 0 557 702 221
1288 2 2 0 0 87 675 85
1289 2 2 0 0 225 711 604
1290 2 2 0 0 505 677 571
1291 2 2 0 0 483 661 494
1292 2 2 0 0 263 565 375
1293 2 2 0 0 504 677 594
1294 2 2 0 0 582 718 399
1295 2 2 0 0 645 714 46
1296 2 2 0 0 534 708 392
1297 2 2 0 0 643 680 402
1298 2 2 0 0 18 712 452
1299 2 2 0 0 392 670 390
1300 2 2 0 0 221 702 603
1301 2 2 0 0 496 664 391
1302 2 2 0 0 606 710 118
1303 2 2 0 0 655 703 602
1304 2 2 0 0 608 676 91
1305 2 2 0 0 194 684 514
1306 2 2 0 0 541 671 378
1307 2 2 0 0 154 669 652
1308 2 2 0 0 399 718 639
1309 2 2 0 0 405 715 674
1310 2 2 0 0 33 726 677
1311 2 2 0 0 629 671 284
1312 2 2 0 0 468 735 495
1313 2 2 0 0 469 704 408
1314 2 2 0 0 427 745 479
1315 2 2 0 0 294 734 251
1316 2 2 0 0 461 705 379
1317 2 2 0 0 385 674 636
1318 2 2 0 0 657 692 176
1319 2 2 0 0 561 714 411
1320 2 2 0 0 631 669 154
1321 2 2 0 0 264 682 265
1322 2 2 0 0 43 638 486
1323 2 2 0 0 48 638 43
1324 2 2 0 0 194 744 684
1325 2 2 0 0 381 686 380
1326 2 2 0 0 658 716 589
1327 2 2 0 0 263 567 565
1328 2 2 0 0 310 681 337
1329 2 2 0 0 493 685 492
1330 2 2 0 0 64 685 663
1331 2 2 0 0 309 678 267
1332 2 2 0 0 600 678 431
1333 2 2 0 0 538 694 333
1334 2 2 0 0 598 685 64
1335 2 2 0 0 551 695 633
1336 2 2 0 0 560 699 241
1337 2 2 0 0 211 690 210
1338 2 2 0 0 2 723 3
1339 2 2 0 0 630 708 441
1340 2 2 0 0 467 735 468
1341 2 2 0 0 396 687 395
1342 2 2 0 0 35 507 22
1343 2 2 0 0 259 567 263
1344 2 2 0 0 417 673 418
1345 2 2 0 0 614 686 197
1346 2 2 0 0 392 708 630
1347 2 2 0 0 5 729 6
1348 2 2 0 0 279 725 661
1349 2 2 0 0 6 729 26
1350 2 2 0 0 357 703 655
1351 2 2 0 0 514 684 635
1352 2 2 0 0 540 733 538
1353 2 2 0 0 374 741 593
1354 2 2 0 0 176 692 559
1355 2 2 0 0 650 691 500
1356 2 2 0 0 484 736 691
1357 2 2 0 0 83 733 540
1358 2 2 0 0 558 740 372
1359 2 2 0 0 626 697 555
1360 2 2 0 0 436 693 437
1361 2 2 0 0 375 737 374
1362 2 2 0 0 475 663 536
1363 2 2 0 0 636 674 198
1364 2 2 0 0 674 715 198
1365 2 2 0 0 70 695 551
1366 2 2 0 0 406 721 407
1367 2 2 0 0 677 726 571
1368 2 2 0 0 258 647 627
1369 2 2 0 0 448 701 451
1370 2 2 0 0 458 672 506
1371 2 2 0 0 229 700 570
1372 2 2 0 0 684 744 428
1373 2 2 0 0 570 700 544
1374 2 2 0 0 678 742 431
1375 2 2 0 0 646 741 314
1376 2 2 0 0 603 702 384
1377 2 2 0 0 478 731 293
1378 2 2 0 0 309 742 678
1379 2 2 0 0 380 686 614
1380 2 2 0 0 494 725 468
1381 2 2 0 0 500 691 38
1382 2 2 0 0 635 684 615
1383 2 2 0 0 661 725 494
1384 2 2 0 0 679 721 34
1385 2 2 0 0 509 510 35
1386 2 2 0 0 46 714 51
1387 2 2 0 0 615 684 428
1388 2 2 0 0 432 742 689
1389 2 2 0 0 179 713 181
1390 2 2 0 0 26 739 645
1391 2 2 0 0 35 510 507
1392 2 2 0 0 574 703 357
1393 2 2 0 0 184 707 186
1394 2 2 0 0 39 693 612
1395 2 2 0 0 665 694 539
1396 2 2 0 0 312 708 534
1397 2 2 0 0 554 689 309
1398 2 2 0 0 1 737 508
1399 2 2 0 0 519 717 520
1400 2 2 0 0 277 697 622
1401 2 2 0 0 389 711 641
1402 2 2 0 0 495 736 484
1403 2 2 0 0 17 712 18
1404 2 2 0 0 212 722 557
1405 2 2 0 0 455 720 438
1406 2 2 0 0 622 697 626
1407 2 2 0 0 664 694 665
1408 2 2 0 0 447 719 449
1409 2 2 0 0 669 688 652
1410 2 2 0 0 612 693 436
1411 2 2 0 0 619 744 194
1412 2 2 0 0 57 728 59
1413 2 2 0 0 579 658 583
1414 2 2 0 0 438 727 525
1415 2 2 0 0 539 733 83
1416 2 2 0 0 479 731 478
1417 2 2 0 0 691 736 38
1418 2 2 0 0 401 724 400
1419 2 2 0 0 420 660 2
1420 2 2 0 0 328 732 325
1421 2 2 0 0 320 738 453
1422 2 2 0 0 428 744 429
1423 2 2 0 0 431 742 432
1424 2 2 0 0 425 745 427
1425 2 2 0 0 408 743 434
1426 2 2 0 0 571 726 403
1427 2 2 0 0 119 727 523
1428 2 2 0 0 625 706 462
1429 2 2 0 0 525 730 404
1430 2 2 0 0 499 736 495
1431 2 2 0 0 468 725 654
1432 2 2 0 0 336 672 582
1433 2 2 0 0 198 715 518
1434 2 2 0 0 400 724 706
1435 2 2 0 0 402 680 581
1436 2 2 0 0 589 716 659
1437 2 2 0 0 727 730 525
1438 2 2 0 0 664 665 391
1439 2 2 0 0 337 740 558
1440 2 2 0 0 293 731 562
1441 2 2 0 0 523 720 282
1442 2 2 0 0 460 730 119
1443 2 2 0 0 641 711 225
1444 2 2 0 0 429 744 619
1445 2 2 0 0 119 730 727
1446 2 2 0 0 651 722 212
1447 2 2 0 0 38 736 499
1448 2 2 0 0 667 686 381
1449 2 2 0 0 652 688 383
1450 2 2 0 0 410 710 606
1451 2 2 0 0 644 701 448
1452 2 2 0 0 666 673 419
1453 2 2 0 0 704 743 408
1454 2 2 0 0 251 734 586
1455 2 2 0 0 400 706 625
1456 2 2 0 0 546 688 669
1457 2 2 0 0 668 700 229
1458 2 2 0 0 538 733 694
1459 2 2 0 0 333 694 664
1460 2 2 0 0 565 662 375
1461 2 2 0 0 720 727 438
1462 2 2 0 0 372 700 668
1463 2 2 0 0 579 716 658
1464 2 2 0 0 642 711 389
1465 2 2 0 0 355 705 461
1466 2 2 0 0 407 721 679
1467 2 2 0 0 523 727 720
1468 2 2 0 0 654 725 279
1469 2 2 0 0 639 718 27
1470 2 2 0 0 694 733 539
1471 2 2 0 0 393 722 651
1472 2 2 0 0 645 739 397
1473 2 2 0 0 683 741 374
1474 2 2 0 0 397 739 638
1475 2 2 0 0 653 716 579
1476 2 2 0 0 666 723 660
1477 2 2 0 0 419 723 666
1478 2 2 0 0 374 737 683
1479 2 2 0 0 593 741 646
1480 2 2 0 0 683 737 1
1481 2 2 0 0 689 742 309
1482 2 2 0 0 660 723 2
1483 2 2 0 0 23 25 1
1484 2 2 0 0 25 607 1
1485 2 2 0 0 3 34 2
1486 2 2 0 0 34 415 2
$EndElements
