$MeshFormat
2.2 0 8
$EndMeshFormat
$Nodes
745
1 5.2940409986758659e-05 3.0830834248367905e-05 9.7631315098733226e-04
2 7.0781858889759606e-05 -3.3217189188200720e-05 -9.7434736988802676e-04
3 1.2617154162932527e-04 2.5578346681197440e-05 -9.6868974068794133e-04
4 2.4552509782614136e-04 2.6521051725717682e-05 -9.4774562012419619e-04
5 3.6899496551731485e-04 3.5023822603581911e-05 -9.0959777046123057e-04
6 4.7379773656040027e-04 1.0726531410023923e-06 -8.6333824278263997e-04
7 6.0897962491092438e-04 -7.3704727765591759e-06 -7.8031039911506217e-04
8 7.2119883793544395e-04 -7.7859625556866061e-06 -6.8566361683163599e-04
9 8.3537686883388719e-04 -4.4036640014824844e-06 -5.5220660501922013e-04
10 9.1806827736121773e-04 1.1258228334250898e-06 -4.1193546826999265e-04
11 9.7004805977375977e-04 9.4796666472629358e-06 -2.7880802438051802e-04
12 1.0008179095370637e-03 3.7421547319829188e-06 -1.4503681524660324e-04
13 1.0118529672425987e-03 5.1565720347343393e-06 1.3572090677152542e-06
14 1.0001751400211686e-03 9.9119985088595599e-06 1.4748679677827715e-04
15 9.6784280104511263e-04 6.0063030937558631e-06 2.8553001240167521e-04
16 9.1174244390387156e-04 7.9478394135737675e-06 4.2497016904607612e-04
17 8.3326835360414636e-04 4.2685704157137481e-06 5.5525372543387401e-04
18 7.2427665800061942e-04 1.7069097091077550e-06 6.8300033318428432e-04
19 6.1035819208769685e-04 9.0046712083607074e-06 7.7969772108507141e-04
20 4.8795882367369872e-04 1.5202042858040692e-06 8.5618201881672252e-04
21 3.6757553227698998e-04 -3.7343559954195963e-06 9.1062170132239926e-04
22 2.4307245880857888e-04 1.3338355909825789e-06 9.4889066551304114e-04
23 1.2749646324554070e-04 -1.3002050339035917e-05 9.6935172718306325e-04
24 1.6386628405619863e-04 1.1809583875311370e-04 -9.5774315403208651e-04
25 1.5473623843259565e-04 1.0175980063353042e-04 9.6165995623786311e-04
26 5.4653266359928649e-04 1.0459272067562343e-04 -8.1555408006971455e-04
27 5.5326410738089945e-04 -1.0421224474621334e-04 8.1211319627819709e-04
28 9.7993337135587888e-04 1.3773772815797332e-04 -2.0489251114198562e-04
29 8.5958816544330630e-04 1.4408913323101630e-04 4.9891149459654514e-04
30 9.4023438042620700e-04 -1.1565596235584359e-04 3.4434104543074290e-04
31 9.7926298801482995e-04 -1.2077715925269682e-04 -2.1697029246521831e-04
32 5.2847136032852340e-04 -1.1565721639148007e-04 -8.2574036000496013e-04
33 5.4406579165049325e-04 1.0949153034509736e-04 8.1707314323451689e-04
34 1.4754353949927846e-04 -8.8269983657983847e-05 -9.6365926820652932e-04
35 1.7870060833271057e-04 -9.4162713389577891e-05 9.5776696388972452e-04
36 7.8203380381794592e-04 -1.1727863479501729e-04 6.1045649879216219e-04
37 7.7078238679134528e-04 1.2074631958504700e-04 -6.2249027966412461e-04
38 1.0023140214884100e-03 -1.1052698852474401e-04 7.8234011323083716e-05
39 9.7943319637795213e-04 1.2644890608209518e-04 2.1253411428062853e-04
40 8.7347119051816365e-04 -1.2866068648915226e-04 -4.7855534538382828e-04
41 2.8569713972657874e-04 1.2321677373365253e-04 -9.2975210135315173e-04
42 1.9424241258483282e-04 2.3183381530390477e-04 -9.3215922611846597e-04
43 3.1795404566482062e-04 2.2920275619540975e-04 -9.0020072366326807e-04
44 2.9319975878888211e-04 1.0669140355116311e-04 9.2997172799827866e-04
45 6.6719221377159997e-04 1.1377372785999401e-04 -7.2625636919176862e-04
46 7.1252881263512307e-04 2.3462340423860940e-04 -6.5575158548033554e-04
47 2.6043959499778005e-04 3.4203283259342057e-04 -8.8384025858233154e-04
48 3.9185958753052758e-04 3.4058199209683845e-04 -8.3790086293879967e-04
49 3.2410182179387040e-04 4.4419695054850509e-04 -8.1930730511902263e-04
50 8.0893181747572224e-04 2.4290720689044561e-04 -5.3835911438476075e-04
51 7.2947556411569008e-04 3.6008352427604692e-04 -5.8123012863157324e-04
52 8.1554953669281253e-04 3.6733551047516224e-04 -4.5696753651041933e-04
53 7.3177678831648626e-04 4.8620565209628747e-04 -4.8480431293208847e-04
54 8.0804540381381547e-04 4.8348407256750507e-04 -3.5735081685798326e-04
55 7.1886810205135446e-04 5.9616779175590616e-04 -3.7554706968071834e-04
56 7.8642685239791810e-04 5.8468275933576234e-04 -2.4244000009577749e-04
57 6.3010676245259386e-04 5.9899863712984227e-04 -4.9927144517568529e-04
58 6.0947543056646849e-04 6.9910487919727833e-04 -3.8956205118279616e-04
59 5.1679235126266920e-04 6.9442827510081905e-04 -5.0499407707203564e-04
60 4.9135617363635115e-04 7.8068538514931775e-04 -4.0015281176233121e-04
61 3.9644487783000197e-04 7.6283664126958737e-04 -5.1460130851235342e-04
62 3.6315143556681713e-04 8.4589367915516008e-04 -4.0408100764409210e-04
63 1.9983073393507617e-04 4.4208373140579391e-04 -8.5661715535564854e-04
64 4.5424021099129433e-04 8.5080487625131189e-04 -2.9225214009086800e-04
65 2.5928624583479242e-04 8.1911606986810224e-04 -5.1535407707758096e-04
66 2.3225383289374510e-04 9.0009858614734106e-04 -3.8423916105062773e-04
67 1.2401992965422505e-04 8.7026314418286088e-04 -4.8295642959715287e-04
68 9.5140947215672069e-05 2.3849107948276693e-04 -9.4472622055962764e-04
69 1.4356264710662809e-04 7.6624618806258975e-04 -6.2335579343948655e-04
70 8.6608435109232691e-04 4.7055053783390835e-04 -2.1944767850496985e-04
71 8.3761630566583966e-04 5.5623736146750773e-04 -1.0818357560064158e-04
72 7.4280561329345414e-04 6.7287107838758290e-04 -1.3156134177560278e-04
73 7.8237641980172820e-04 6.4129799234695307e-04 6.3936104997403705e-06
74 6.7887231508035716e-04 7.4906363826412927e-04 -2.7192401829325439e-05
75 7.0206715630486381e-04 7.1891428487088065e-04 1.0996121162821116e-04
76 6.0190290176481373e-04 8.0895443976490696e-04 7.4738219881342546e-05
77 6.2028405988511588e-04 7.6827867132116061e-04 2.1165050266212045e-04
78 5.1034217286033911e-04 8.5387893428051805e-04 1.7649479654102327e-04
79 9.5855753738187312e-05 9.4165618286680636e-04 -3.4333833804226573e-04
80 -1.4063135425215898e-05 9.0612742317286617e-04 -4.3273937176776340e-04
81 2.3027494430031181e-04 2.0380141932201614e-04 9.3127647832739091e-04
82 5.2632994985501655e-04 7.9887785522948481e-04 3.1824203657217399e-04
83 -4.2062824017387119e-05 9.5995655237509606e-04 -3.0253629122704753e-04
84 4.0946132132548902e-04 8.7931753671281374e-04 2.7708482371543379e-04
85 4.2726636297775027e-04 8.1377665081076367e-04 4.0836119293021292e-04
86 2.9738119039093700e-04 8.8522333573359498e-04 3.7564758879338731e-04
87 3.0515719832136911e-04 8.0992809718341704e-04 5.0571642340859748e-04
88 1.8745197464901223e-04 8.6613301516847243e-04 4.7134486426903682e-04
89 1.6732389364384605e-04 9.3159152329341745e-04 3.4449276336541288e-04
90 5.4439364827267468e-05 9.0624060357880770e-04 4.3072709039147333e-04
91 7.0158499768522222e-05 8.2721589823644449e-04 5.5829794210497132e-04
92 -6.0082178216531232e-05 8.5853529855233997e-04 5.1291015792737603e-04
93 -8.7593005527550626e-05 9.2414191970154340e-04 3.8752979395722474e-04
94 -1.9241254039693590e-04 8.6800286658685619e-04 4.6531903687994539e-04
95 -1.6300734323746363e-04 7.9956962193623805e-04 5.7563291382069324e-04
96 -2.2187842329657784e-04 9.2291928021773900e-04 3.3653033540686253e-04
97 1.1330282424481760e-04 2.1324961720484988e-04 9.4913760355783681e-04
98 5.3709509368571871e-04 7.1779710103440561e-04 4.5533701012627595e-04
99 1.7196123131726321e-04 3.2484184129949971e-04 9.1042335287178317e-04
100 4.8572712830846903e-05 3.0841651718538577e-04 9.2955413598316556e-04
101 -1.2203122939646388e-05 2.0709669373383734e-04 9.5668498974549451e-04
102 -7.9834704773919354e-05 3.0291032726573224e-04 9.2924658737421155e-04
103 2.0534304306119144e-04 9.5621731627097532e-04 -2.4719235406392307e-04
104 -1.1390403128684155e-04 9.6914548431256968e-04 2.5569126029809146e-04
105 -2.4975299272027220e-04 9.5593058469679501e-04 2.0676548308149010e-04
106 -3.5465807505212862e-04 9.0042506235329782e-04 2.8270754293614606e-04
107 -1.5615284850936122e-04 9.1684264237103436e-04 -3.8227201894129115e-04
108 -1.2965282580138321e-04 8.5191152176221753e-04 -5.1045052775791264e-04
109 -3.8244998375452005e-04 9.2223917917427464e-04 1.5257933160009367e-04
110 -2.6404469618892260e-04 8.5519607428352672e-04 -4.5391853713518311e-04
111 -2.3562219283907671e-04 7.7296682408911220e-04 -5.8679084409199260e-04
112 -3.6675758271916388e-04 7.7342251654344686e-04 -5.1961321465027752e-04
113 -3.3066212943410836e-04 6.8410025528032117e-04 -6.4416450985346979e-04
114 -4.6526927687914394e-04 6.7590028246545999e-04 -5.7046758022239700e-04
115 -4.2147031823077264e-04 5.8620256434703782e-04 -6.8349294303431921e-04
116 -5.0158327742375617e-04 7.4503475190234962e-04 -4.4835010060003679e-04
117 -2.9054044190488366e-04 9.0971535558250318e-04 -3.1963584249720565e-04
118 -2.8642698124447082e-04 7.8163377453937687e-04 5.5580016786129654e-04
119 7.1232276097200605e-04 6.7708582070805914e-04 2.3035377497209597e-04
120 -2.8209865503513019e-04 5.7330884401700572e-04 -7.5671768248211711e-04
121 -3.6369935553637214e-04 4.7636405577991108e-04 -7.8634098503489291e-04
122 -4.9631140120094382e-04 4.7102287522102264e-04 -7.1874725449053449e-04
123 -4.3888868448454366e-04 3.6091288252207751e-04 -8.0749389453778592e-04
124 -5.9025238277589712e-04 6.3971067621234798e-04 -4.9685070252286168e-04
125 -6.2178247687403817e-04 7.0115248603485052e-04 -3.6634150780535750e-04
126 -7.0178706502933396e-04 5.9158975780404098e-04 -4.0947118365472067e-04
127 -4.8955212359896904e-04 8.5188436795789150e-04 2.3003458408477179e-04
128 -5.6199388264687052e-04 3.4611907287573240e-04 -7.3957678326822343e-04
129 -4.9903065313178653e-04 2.3947259868123402e-04 -8.1710295165042686e-04
130 -6.2163404615927825e-04 2.1743578768286442e-04 -7.4101480875797749e-04
131 -5.4997821610969699e-04 1.1266211754371364e-04 -8.1230384064690485e-04
132 -6.7290696122854058e-04 8.9972004050692424e-05 -7.2403634121845817e-04
133 -5.9653735928242636e-04 -1.6164856131294489e-05 -7.8868864011569836e-04
134 -7.1747072356162967e-04 -3.8699281705500083e-05 -6.8777782264565915e-04
135 -6.3268510837624918e-04 -1.4461906504473961e-04 -7.4947505777153624e-04
136 -7.8793870216220736e-04 7.4824942572301826e-05 -6.0862335213601824e-04
137 -8.2157126638868422e-04 -6.0178009318539293e-05 -5.6729829188646524e-04
138 -8.7719391767020704e-04 5.3023591636870480e-05 -4.8397479457663113e-04
139 -8.9878844434080826e-04 -9.0690770596992725e-05 -4.3965352192455064e-04
140 -9.4234689720601493e-04 1.8979406872682246e-05 -3.5393277780651630e-04
141 -9.5392608409786204e-04 -1.1643507013314347e-04 -3.0430220792960762e-04
142 -9.8585592702886871e-04 -1.4916868831914976e-05 -2.1641720439502063e-04
143 -9.8543010741276079e-04 -1.4672531810610157e-04 -1.6722892812760508e-04
144 -1.0069390299520707e-03 -4.0242021094021500e-05 -7.9264663023227065e-05
145 -9.9528430261360858e-04 -1.7676249256124913e-04 -2.6707139179430473e-05
146 -1.0074674881286796e-03 -6.3538330398740187e-05 5.5704138071219152e-05
147 -9.8618113064160434e-04 -1.9336806019832023e-04 1.0963637807232943e-04
148 -9.6290822590837084e-04 -3.0850390456330291e-04 2.2606208659576722e-05
149 -9.4632224133691528e-04 -3.1643278579611905e-04 1.6026054577318293e-04
150 -9.5967568489353870e-04 -1.9732243551955981e-04 2.4312115661002433e-04
151 -9.0991296753080615e-04 -3.1942106320325422e-04 2.9549327288533106e-04
152 -9.0968117786673075e-04 -1.9608142046066617e-04 3.8375199948562083e-04
153 -8.4999016889742199e-04 -3.2512617975483598e-04 4.2733315081011804e-04
154 -9.0272882114024195e-04 -2.2274456362148684e-04 -3.8451046870481201e-04
155 -8.3389341780560516e-04 -2.0518040026150846e-04 5.1719005782790831e-04
156 -7.6285045603048597e-04 -3.3596585884042377e-04 5.5434474863084993e-04
157 -8.8567079343485967e-04 -7.1267270658883727e-05 4.6783549365842620e-04
158 -7.3985093380391301e-04 -2.1676468110108256e-04 6.3318109459477030e-04
159 -6.5746104594496682e-04 -3.3303628254660562e-04 6.6987178828071289e-04
160 -1.0081612023410376e-03 7.5162068963631934e-05 6.0969194958539474e-06
161 -6.2447340621801166e-04 -2.1369396176284017e-04 7.4073210696309823e-04
162 -5.4212773712261576e-04 -3.1973871683895090e-04 7.6537502520187921e-04
163 -5.0664120939442460e-04 -1.1501621547330754e-04 -8.3822526345657942e-04
164 -5.3023551538081604e-04 -2.4672235285296955e-04 -7.9728833458072733e-04
165 -7.2319529952744131e-04 6.4683707276537211e-04 -2.7413897802573077e-04
166 -1.3352260543635181e-04 2.0651761969170174e-04 9.4809564592535968e-04
167 -2.1120704287872996e-04 3.0276740587762422e-04 9.0979289798058212e-04
168 -4.0194809263087092e-04 -2.0618678377299325e-04 -8.7428456892106241e-04
169 -4.2330132476679045e-04 -3.4113447246667146e-04 -8.2409261898496637e-04
170 -5.4498517014552462e-04 -3.7977143190262087e-04 -7.3718509549733585e-04
171 -4.3811608798134303e-04 -4.7144607844010932e-04 -7.5416137438799732e-04
172 -5.5057060861949032e-04 -5.0793117338632991e-04 -6.5726874769389196e-04
173 -4.3694638550823158e-04 -5.9684448635258442e-04 -6.6728873725281905e-04
174 -5.4394424854248041e-04 -6.2693205364677839e-04 -5.5943083084341520e-04
175 -4.2916496327919328e-04 -7.0979332837450523e-04 -5.6034254613853481e-04
176 -7.7149926727427328e-04 -4.4389393048633273e-04 4.6460499940690660e-04
177 -5.2233907658026039e-04 -7.3133949319657821e-04 -4.4942693067453093e-04
178 -4.1351128008556312e-04 -8.0465990855848994e-04 -4.3844830892053865e-04
179 -3.1183794885009168e-04 -7.8486003845082831e-04 -5.3879400050705327e-04
180 -2.8325920496366801e-04 -8.6923644399255172e-04 -4.1983287079901452e-04
181 -1.8028827021524037e-04 -8.3665979782890799e-04 -5.2210075542346603e-04
182 -1.4261109568771966e-04 -9.1025419614778225e-04 -4.0530655220461848e-04
183 -4.2308498460068220e-05 -8.6467242160532349e-04 -5.0744036309700175e-04
184 -7.4780769070581257e-06 -9.3228690885807837e-04 -3.8115370957332123e-04
185 -1.0268941987457407e-04 -9.6722892118914828e-04 -2.7079660502813243e-04
186 3.6882534857700349e-05 -9.7847093048585585e-04 -2.4756690842864666e-04
187 -5.2628637648191537e-05 -1.0001283007180994e-03 -1.4075102308948044e-04
188 8.9255891419646633e-05 -1.0005769220273117e-03 -1.1944443838272818e-04
189 -6.0014997432083757e-06 -1.0117833255125744e-03 -1.3712297071063800e-05
190 1.3278174619498395e-04 -1.0031205859320960e-03 1.2194451655287071e-05
191 3.0664920089142574e-05 -1.0045801795686815e-03 1.1344891890346484e-04
192 1.6890175186666423e-04 -9.8760502531668897e-04 1.3738473303477716e-04
193 6.4149465320778300e-05 -9.7967560162409185e-04 2.3735531317413974e-04
194 2.2461913066781775e-04 -9.8200206124752620e-04 -9.2557365278621602e-05
195 2.0281061838317051e-04 -9.5272218248995287e-04 2.6561778271194739e-04
196 9.8759832940465550e-05 -9.3242927073208229e-04 3.6842958879778216e-04
197 1.0635618246260219e-04 -8.7722520581222211e-04 -4.7886771990882007e-04
198 -9.8855354631412670e-05 -1.0032597419482655e-03 8.0998012082211343e-05
199 2.3454891682482616e-04 -8.9545872670389163e-04 3.9570701327265427e-04
200 3.3712575025924858e-04 -9.0484556505108637e-04 2.9315323502889944e-04
201 3.6610425519088867e-04 -8.3895803318319968e-04 4.1738489536069528e-04
202 1.3097901144024264e-04 -8.6190925838001379e-04 4.9705771583633028e-04
203 4.6057279327964534e-04 -8.4198759136618669e-04 3.1063571473695031e-04
204 -3.3966139434167522e-06 -8.8952968352261168e-04 4.6684819692086461e-04
205 2.8552281338164547e-05 -8.0688123519912110e-04 5.9001041287334659e-04
206 -9.1417585507632478e-04 -4.2694788135730507e-04 6.9385397070594843e-05
207 -8.6614715829501273e-05 -7.7043746924678955e-04 -6.2955713926679123e-04
208 -1.0244690171500201e-04 -8.2696517610178152e-04 5.5541316098978665e-04
209 -6.8557266865213021e-05 -7.3060196949339452e-04 6.7363175575277628e-04
210 4.8346862438916719e-04 -7.6827958366000690e-04 4.3257273583531297e-04
211 5.7553686195616711e-04 -7.6246074588010048e-04 3.2271788579817025e-04
212 -4.9876534793645815e-04 -8.1278297150659659e-04 -3.2678122799438482e-04
213 5.9067698503408355e-05 -7.0269319215875321e-04 7.0154582865419402e-04
214 -3.6010058447870278e-05 -6.1477251227535167e-04 7.7586439452305336e-04
215 -3.0758193728442214e-04 -2.8033786407304366e-04 -8.9065938426877535e-04
216 -2.0561951196528474e-04 -7.4711975855724564e-04 6.2926605118394387e-04
217 -2.4098401396857298e-04 -8.3150517192003069e-04 5.0680300630893298e-04
218 5.5165043906362215e-04 -8.2368897516585577e-04 1.9727670908437360e-04
219 6.6271372028254942e-04 -7.3144324189336322e-04 2.1736271264186202e-04
220 6.2877192059289941e-04 -7.8788279930255942e-04 8.8733801689635744e-05
221 -6.3616353026557291e-04 -6.4071150044969966e-04 -4.4111763487257436e-04
222 7.3203938935323626e-04 -6.9037069799928190e-04 1.0734481304412997e-04
223 6.9362916323246419e-04 -7.3671197204901737e-04 -2.3964372894348855e-05
224 -2.7821775057248772e-04 -1.6033129798043687e-04 -9.2662900744128532e-04
225 -9.6980584580690229e-04 1.1532812890933274e-04 -2.5182147567374654e-04
226 8.7574163713608857e-05 -5.7969594558182082e-04 7.9698913353183187e-04
227 -9.1130242958293227e-06 -4.9009309907579784e-04 8.5536005793526606e-04
228 -5.0119911632367196e-04 -1.9251148000607509e-04 8.2830267316241746e-04
229 -5.8319328761924545e-04 -9.3477495072395147e-05 7.9307166670639789e-04
230 6.7117034153271705e-04 -6.6710045190317960e-04 3.4687720556881343e-04
231 3.9149607355277522e-04 -7.5399361764326173e-04 5.3138539824930451e-04
232 5.1030153585453133e-04 -6.5849233426308726e-04 5.5686333185987855e-04
233 7.8541449213198849e-04 -6.3804965565732738e-04 -1.4912421093137909e-05
234 7.4314185500227883e-04 -6.7113573200756188e-04 -1.4234200400944894e-04
235 -3.7663782399651184e-04 2.4959303843762818e-04 -8.7347091345773436e-04
236 2.8939411388698887e-04 3.2408256162499613e-04 8.8249336634371094e-04
237 -4.1902452127112928e-04 -2.8507271869228319e-04 8.4597411013016572e-04
238 -8.3964934231135974e-04 1.9912293851139388e-04 -5.1091394474604940e-04
239 6.4581743551966550e-04 -7.6260450092630516e-04 -1.5565240773174785e-04
240 6.9058979797233786e-04 -6.8461057145650179e-04 -2.7187649865870390e-04
241 -5.7121951661074451e-04 -4.4198825217315051e-04 6.8480046367144570e-04
242 5.7926993849490786e-04 -7.7890482481546416e-04 -2.7774667236184398e-04
243 6.1477166099099920e-04 -6.8930370659686332e-04 -4.0080226794390379e-04
244 7.1975980819301657e-04 -5.9210444842246115e-04 -3.8209682147727234e-04
245 6.3232257838667964e-04 -5.8669488262099042e-04 -5.1229157008644344e-04
246 -1.8304356866019053e-04 -2.3853691710949359e-04 -9.3324815592723653e-04
247 8.2390803063776634e-04 -5.7694249664708630e-04 1.0961854856622004e-04
248 2.2311375007976771e-04 4.2992489339070179e-04 8.5772852795323992e-04
249 -3.7608831798263502e-04 -1.5343948792818508e-04 8.9509468482987177e-04
250 3.4978561536059475e-04 4.2325307566869566e-04 8.2064467058655529e-04
251 -2.0884674412292593e-04 -3.5549235537368746e-04 -8.9240416543499282e-04
252 -8.8637632802970396e-05 -3.2974642204927672e-04 -9.2011749022689730e-04
253 3.8182871750423497e-04 9.2320522033233860e-04 1.5154776207007697e-04
254 -6.3171719517085805e-04 7.5193676051086059e-04 -2.3105908472089088e-04
255 -7.2410976547892874e-04 6.9038776743932020e-04 -1.3857195167794566e-04
256 -8.0787627274764642e-04 5.7921968114556623e-04 -1.7732859897463766e-04
257 -7.9725910708614066e-04 6.1921436183068682e-04 -4.8050015304712632e-05
258 -2.2029602393577846e-05 4.1635135751077687e-04 8.9017604118032836e-04
259 -2.8727615465925089e-04 -2.2560907531922762e-04 9.1155470577591402e-04
260 -2.6562851020906565e-04 2.0309136692128139e-04 9.2234993875891299e-04
261 -3.4345817142333542e-04 2.9692163930751205e-04 8.7316834913395570e-04
262 -2.5060485916014676e-04 -1.0170347349518261e-04 9.4190154614083653e-04
263 -1.6246477706806646e-04 -1.8085362172572480e-04 9.4898920406709527e-04
264 -8.7433353323487068e-04 4.9966608410719577e-04 -8.4538101787456552e-05
265 -8.5172588350128863e-04 5.4167475984826137e-04 5.1701429992269897e-05
266 -3.4155258341860034e-04 -7.4809159129167132e-04 5.7009863017638883e-04
267 -3.7232907733084200e-04 -8.2260227744464828e-04 4.4143988359495931e-04
268 5.1580597641922969e-04 -6.8171366311401121e-04 -5.2422324395330459e-04
269 5.1964478929529773e-04 -5.7314929314949189e-04 -6.3090413154084305e-04
270 6.2694024490873195e-04 -4.7855109186755417e-04 -6.1320665095541840e-04
271 5.0572205651117400e-04 -4.5620428310375472e-04 -7.2344842034765145e-04
272 4.0158060418706026e-04 -5.4688375808208535e-04 -7.2574324817883213e-04
273 -2.8548930834724405e-04 4.0769388067752417e-04 8.5045287673340671e-04
274 -4.1465569701050698e-04 4.0412209760686202e-04 8.0112965918165233e-04
275 3.8836085687477852e-04 -4.1679391793588550e-04 -8.0807784988370696e-04
276 2.8105463092995534e-04 -5.0851055227114472e-04 -8.0058040398353744e-04
277 -3.2011783728753024e-04 -3.5665813512680139e-04 8.6063077866524787e-04
278 -1.3807804693593656e-04 9.9281476279299290e-04 1.2597811653084921e-04
279 8.2440933989578818e-04 -5.7116520667193661e-04 -1.2913981164511774e-04
280 -2.2817267918930859e-04 4.5590686588579336e-04 -8.4314239331858426e-04
281 -1.4876191629593707e-04 5.5907701847603532e-04 -8.0075195851104911e-04
282 8.7748365296386199e-04 5.0424938177022472e-04 2.6142053974023786e-05
283 1.1538511194816475e-04 -4.5572753315609762e-04 8.6568994412858044e-04
284 -1.0007372192138515e-03 5.3036174334132056e-05 1.2800905044795503e-04
285 -9.2139491230285107e-04 -4.1051959840604876e-04 -7.1387971077267696e-05
286 -8.6018186533146621e-04 -5.3160595768965142e-04 -2.4930138528459544e-05
287 -8.4590681052414856e-04 -5.4204277655768075e-04 1.1403436040145210e-04
288 -7.7906707219421126e-04 -6.4477238121804135e-04 2.3176304697544468e-05
289 -7.5387940445871191e-04 -6.5390221329268076e-04 1.5993411493664343e-04
290 -6.8817930431869538e-04 -7.3789570943596974e-04 6.9013221815452939e-05
291 -1.9784624043621066e-04 -9.7793015103959024e-04 -1.6430854040357876e-04
292 -2.7363739473352269e-04 -8.9580866213472964e-04 3.7044363282686809e-04
293 -3.2767586884506668e-04 -5.4412974753656560e-04 -7.6121848965275620e-04
294 -9.9567605509145689e-05 -4.5512422973073390e-04 -8.6824819647392791e-04
295 -4.7966230816779782e-04 2.8891117205403696e-04 8.1378684729656835e-04
296 -5.4837099548510598e-04 3.8985145636213117e-04 7.2970669333560854e-04
297 -8.7828458486055941e-04 4.5203723287003757e-04 -2.0844942846368349e-04
298 -6.0542625584500149e-04 2.6884116584750622e-04 7.3863745383096814e-04
299 -6.7042856792486104e-04 3.6675360560432330e-04 6.4034836769182361e-04
300 -6.0608357593661252e-04 4.9345099735335928e-04 6.2045690195713260e-04
301 -7.1585235757595019e-04 4.6357329122018268e-04 5.2542607043198073e-04
302 -7.7660126206408910e-04 3.3603512487410578e-04 5.3523843888925225e-04
303 -3.0073574932801408e-04 -6.5694150342869714e-04 6.8473896279550234e-04
304 -6.3640668806838109e-04 5.9678306511526619e-04 4.9467978376700620e-04
305 -8.1367604754788831e-04 4.2005289356621437e-04 4.1476837383941514e-04
306 2.1137865555385262e-04 -5.3879637404642342e-04 8.0205498874059825e-04
307 2.4239998891927402e-04 -4.0984418235438856e-04 8.6263483883034398e-04
308 3.4273773750720491e-04 -4.8658220361708771e-04 7.9083031939476949e-04
309 -4.5906109333519718e-04 -7.3458521489468966e-04 5.0480500008025036e-04
310 -8.6358142790987982e-04 2.8750733957321834e-04 4.2587358125133928e-04
311 -4.0278378389161865e-04 -8.7347389804859257e-04 3.0391063240203049e-04
312 -7.7456286765327823e-04 6.4357775355133710e-04 8.2744725229944491e-05
313 -8.5797382132819561e-04 -5.1036009257430278e-04 -1.5729234826046543e-04
314 -7.9687060844046149e-05 1.0062727528396080e-04 9.6996842403911142e-04
315 -8.9295033409390640e-04 3.5817801879119994e-04 3.0157371503477886e-04
316 -9.8841423909151477e-04 1.9030585614282828e-04 8.9478569814869239e-05
317 -1.0740661847065507e-04 7.6279769124580968e-04 -6.3203362771621814e-04
318 2.6133564186476963e-04 -3.7034965128335896e-04 -8.7399032816064281e-04
319 -7.0145380547785607e-04 -7.2580850223380466e-04 -6.4542776864407364e-05
320 -6.1114663405976457e-04 -8.0565207822553989e-04 -5.7483174154679796e-06
321 -6.6134865534045201e-04 -4.0266867507479859e-04 -6.2917950664681521e-04
322 -6.7164478696311061e-05 -2.0393186755290064e-04 -9.5525879870032632e-04
323 5.1464116079087165e-04 -8.6806289467611473e-04 7.4661185682086821e-05
324 -6.2667186488183475e-04 7.8626609140782346e-04 -9.8208088616703187e-05
325 2.7839170278790232e-04 5.3142667923664435e-04 7.8651194172639201e-04
326 2.8134628364616968e-04 -6.3278083869870239e-04 -7.1320266994285479e-04
327 1.5502557545113532e-04 -5.8931155525462063e-04 -7.8073766179512704e-04
328 4.1582665166757732e-04 5.3043123273063017e-04 7.2869237641320288e-04
329 4.7567252661538141e-04 4.1101058167768547e-04 7.6557404975910676e-04
330 4.4528645074944269e-04 4.3482164493119889e-04 -7.6941972605785558e-04
331 2.8077018796146232e-06 9.9606645857463409e-04 1.6702855695585874e-04
332 -2.1790669586419080e-05 1.0097803181285077e-03 3.6286466135595588e-05
333 -1.5140080620551009e-04 9.9915820858010955e-04 2.8764343781014975e-06
334 1.2086715886920381e-04 1.0002552245171367e-03 7.9630870519887208e-05
335 3.5657937066259468e-04 -3.4860314579966700e-04 8.5066701765857452e-04
336 4.5603991642360924e-04 -4.2119122171274735e-04 7.7187434619038178e-04
337 -8.1613814884641577e-04 2.0851402453828796e-04 5.4059201093169544e-04
338 -3.5101026337165089e-04 5.0679458448186913e-04 7.7425779212806798e-04
339 -9.9322372622690687e-05 4.4736242150656780e-04 -8.7024305682379375e-04
340 3.4842125414118126e-04 -2.8952801205323270e-04 -8.7407552455435729e-04
341 2.5931153247766713e-05 -2.5604488797438719e-04 -9.4543089629471773e-04
342 -9.4179774932282641e-04 3.5501313647787642e-04 -9.9773745371584151e-05
343 1.5991996571901133e-05 -3.5582027063305445e-04 9.1521549991953918e-04
344 -5.2295149699122293e-04 6.1190855523967540e-04 5.9178453761309557e-04
345 -5.3535876892384245e-04 7.1601529482735857e-04 4.5889483575837429e-04
346 -6.5912393913539571e-04 6.6865460562033749e-04 3.6306930128260741e-04
347 5.9835150378763076e-04 -3.6095857591942162e-04 -7.0746413613393051e-04
348 7.2057750614427788e-04 -3.7393224054757952e-04 -5.8440650307954329e-04
349 5.3584434785464412e-04 5.1455517097682459e-04 6.6335591079238088e-04
350 5.9938693221986156e-04 3.9390551325309118e-04 6.8924407928143503e-04
351 6.5278845422917517e-04 4.9064907518315117e-04 5.7717225952616156e-04
352 7.1512552656350639e-04 3.5117846727538598e-04 6.0277125524777408e-04
353 7.5718795108335106e-04 4.4945843497562477e-04 4.8199407455992423e-04
354 -6.5281113790388861e-04 -7.4336524536405292e-04 2.0382945793218874e-04
355 2.5104455977706576e-04 5.4244273554515622e-04 -7.8718775905898186e-04
356 1.2974990370034272e-04 5.5319224434447183e-04 -8.0747203511141025e-04
357 -6.7229863506873576e-04 3.1970989763918157e-04 -6.6040516790656948e-04
358 5.3215880751893456e-04 -8.4502976092744786e-04 -1.5926013432466482e-04
359 4.6055548279672802e-04 -8.5416267048926513e-04 -2.7823613549729964e-04
360 -8.3325369372748447e-04 4.9157434662301387e-04 2.8406689084347421e-04
361 -1.2145377048086687e-04 -5.1573121773129660e-04 8.3285546831038284e-04
362 -1.7224193712055995e-04 3.3521110878724264e-04 -9.0614188119956087e-04
363 -2.1954244232821174e-04 5.0639023273975836e-04 8.1830595982060306e-04
364 -5.2442359830781474e-04 8.4334934251945070e-04 -1.8118556798478892e-04
365 1.5686744802423540e-04 5.3468724752624304e-04 8.1530799580029837e-04
366 -3.4863435763586147e-04 -2.9140669711374816e-05 9.1695573433040660e-04
367 -7.1376007106647163e-04 -6.4841490910845739e-04 2.9578653446553913e-04
368 2.0983091476038592e-04 6.5561510102319612e-04 7.1678973251281376e-04
369 8.4217378661764389e-05 6.2790425417191527e-04 7.6047288102188879e-04
370 6.9046702743528619e-04 -2.5505097016902665e-04 -6.7121483708620900e-04
371 -5.2863487016277554e-04 1.6051046608851264e-04 8.1868238475594970e-04
372 -6.5295025567235006e-04 1.3219925371817849e-04 7.3610074804563981e-04
373 5.6182338029005100e-04 8.3870169415003787e-04 -5.5100708463566598e-05
374 -1.3556523598259396e-04 -7.6490838009477994e-05 9.6612544791819892e-04
375 -5.1494720968454891e-05 -1.6084512852799785e-04 9.6389091186253905e-04
376 -3.0490283275319828e-04 -9.3385580946636268e-04 2.3486450522280418e-04
377 -4.3733082399034757e-04 -8.9690105714643209e-04 1.6563843694857380e-04
378 -9.3467385575393095e-04 2.0054161535993373e-04 3.2106410121005572e-04
379 4.2068978639981877e-04 6.5504821301272636e-04 -6.2423478150184456e-04
380 1.5885915170926390e-04 -7.0840432852356679e-04 -6.8134242356585213e-04
381 2.7788556045675312e-04 -7.4073324097490869e-04 -6.0991346633003255e-04
382 -9.1148827591142024e-04 -3.8396999280840977e-04 -2.0402723449528866e-04
383 -8.4278221725434064e-04 -4.7414938702097987e-04 -2.8628961544873246e-04
384 -7.7931923970447296e-04 -5.9019397164486649e-04 -2.5142117981447602e-04
385 -1.6965103694484222e-04 -9.4989335284485711e-04 2.9479451322568398e-04
386 -6.6237134263836498e-04 5.2915743998306749e-04 -5.3203692959915346e-04
387 -7.6554260480733380e-04 4.7530777840582201e-04 -4.4274476309709226e-04
388 8.8335196862881213e-04 2.5275057374322295e-04 -4.0960308411282426e-04
389 -9.2045816486447589e-04 3.3279379887665635e-04 -2.4430737881591823e-04
390 -5.1883273324693062e-04 8.6613922142648981e-04 -4.1703373956273666e-05
391 -4.0806340786855524e-04 9.1656572764983746e-04 -1.1705083075993416e-04
392 -6.1539455693673589e-04 8.0070872040205422e-04 3.2178974721196066e-05
393 -6.0157512950289888e-04 -8.0255933837307283e-04 -1.2699116139888036e-04
394 -5.0941959174987837e-04 -8.7096495331440594e-04 -6.5422656529462331e-05
395 8.8978809733556737e-05 1.0052394823147331e-03 -5.2494682791628131e-05
396 2.2656720110865957e-04 9.8504760045707118e-04 -1.0903144145984952e-05
397 5.1956044727025530e-04 3.2235067510234984e-04 -7.7828397969984344e-04
398 2.3847880078476383e-04 -2.8336754140778191e-04 9.0963848791358198e-04
399 3.5877531925704932e-04 -2.2247289340147005e-04 8.8872754818853435e-04
400 -2.7666833657848512e-04 6.0422258757824535e-04 7.3588593865519007e-04
401 -1.5990991439269445e-04 6.0828172385099478e-04 7.6384712774258897e-04
402 3.0948825632319435e-04 -6.0713096663893209e-04 7.2280096296176469e-04
403 6.4671140686594611e-04 2.6751116870625541e-04 7.0572024539428525e-04
404 6.6819673241015468e-04 6.0292791319378129e-04 4.4880151631722219e-04
405 -3.1746858251036032e-04 -9.5512295875795474e-04 9.9084001744363784e-05
406 2.3246067483700689e-04 -2.5364736741347645e-04 -9.1894148580833046e-04
407 3.3528498332362238e-04 -1.9158974386348628e-04 -9.0323488355289387e-04
408 9.2541039300142154e-05 4.4899809597874702e-04 -8.7003626116185985e-04
409 -8.9820554694438996e-04 4.3591641612621081e-04 1.5956091962943404e-04
410 -4.5692381403899092e-04 8.2094958928011707e-04 3.6115692939671812e-04
411 5.4781629456149782e-04 4.2230243850882213e-04 -7.1141151403500749e-04
412 4.6212155544663087e-04 6.5017126174303106e-04 6.0246817537205010e-04
413 8.1356434144324837e-04 3.0357706455346600e-04 5.0236769691940260e-04
414 8.4439211920700919e-04 3.9686596004979437e-04 3.7802029065011413e-04
415 4.2180498485725028e-05 -1.3252032504687791e-04 -9.6814444908700813e-04
416 -9.8741514677073614e-04 2.1266269570181779e-04 -4.3685870469146890e-05
417 -5.9788275499942037e-05 3.2554823916760385e-04 -9.2261812795596510e-04
418 -1.1794349531411590e-04 2.1896498395141835e-04 -9.4684579065684575e-04
419 4.3655293197243517e-05 1.6544624432967433e-04 -9.6235886270039156e-04
420 -7.0945890031706883e-05 -7.0574101366031243e-05 -9.7268422146615349e-04
421 -9.5667060000405822e-04 3.2326389480377639e-04 4.8696464709901042e-05
422 8.0417358441379789e-04 -2.5547195404461258e-04 -5.4045416768770053e-04
423 8.1682468353163251e-04 -3.7526200940188402e-04 -4.5013146901966706e-04
424 2.5738475707951159e-04 9.7050971178221871e-04 1.1521246710924041e-04
425 3.1374404059027578e-05 -6.7369130251859223e-04 -7.3004553654706754e-04
426 2.5497850715348115e-05 -5.3111338285704787e-04 -8.3197944822988089e-04
427 -7.8686863155756260e-05 -5.7744049224136337e-04 -7.9858212444553704e-04
428 4.1698330113274298e-04 -9.0562642897128577e-04 -1.6690113093634961e-04
429 3.2558281151124762e-04 -9.1547896604824471e-04 -2.7360700814465665e-04
430 3.6759793332089127e-04 -8.5293088690407688e-04 -3.8915852683052985e-04
431 -6.1551436052817714e-04 -7.2620030750668394e-04 3.3031701284740841e-04
432 -6.5066687913266114e-04 -6.2599106089138840e-04 4.4223757831589859e-04
433 1.2979962714340678e-04 -3.3355633131682173e-04 -9.1418595974305595e-04
434 -5.3630306269966749e-06 5.4623170891071452e-04 -8.2232391586970410e-04
435 7.2018257993850215e-05 6.5761568566413155e-04 -7.3853416278783530e-04
436 8.8988542163075969e-04 2.6271445220464948e-04 3.8992584626563066e-04
437 9.1150756064951747e-04 3.4085011878055133e-04 2.6701016383363170e-04
438 8.6673508130938066e-04 4.5344979818158395e-04 2.4816438564980283e-04
439 7.5567662646308306e-04 2.0887858067564704e-04 6.1847783753564260e-04
440 -5.8679902990560137e-04 7.6234709682801286e-04 3.0168113798667963e-04
441 -7.0652583002716012e-04 6.8881412236738906e-04 2.1571588425923889e-04
442 6.7407168355505147e-04 -1.1394214465702853e-04 7.2105652263592247e-04
443 7.2184699376547751e-04 -2.3839332889558079e-04 6.4570051545963974e-04
444 8.1810361841845385e-04 -2.4147798445647511e-04 5.2662342283338272e-04
445 7.4682423094785523e-04 -3.6171869960175757e-04 5.5992327489634412e-04
446 8.3005892891501007e-04 -3.6171990458567799e-04 4.3726781227835208e-04
447 7.4791158186182877e-04 -4.7554766136784053e-04 4.7218194579704134e-04
448 6.6292633840193927e-04 -4.7218135965845727e-04 5.8105891057979198e-04
449 8.1648386831031721e-04 -4.8402585096706647e-04 3.3986651573589261e-04
450 8.9118279723634218e-04 -3.6227735400346395e-04 3.0408611436779650e-04
451 6.4819800467477077e-04 -5.9251405635744891e-04 4.8740996416112828e-04
452 6.6250791607077133e-04 1.3299950000653524e-04 7.2837031650869739e-04
453 -5.7213651332124965e-04 -8.2381392767011256e-04 1.2643013547657667e-04
454 2.3754753386588171e-05 -4.0237746359842748e-04 -8.9676490790044111e-04
455 9.1943771884912058e-04 3.9934239351941851e-04 1.3103439579160672e-04
456 4.4120599732513184e-04 -2.1108225961214718e-04 -8.5555557677297186e-04
457 4.9631994704351300e-04 5.2835769784634128e-04 -6.8068566469081670e-04
458 6.0422288295159364e-04 -2.3659184829334301e-04 7.5080236214392624e-04
459 1.4809747278026660e-04 9.7732842322915329e-04 2.0589518410028538e-04
460 6.2531801019701557e-04 7.1180689757587045e-04 3.4267858399474825e-04
461 3.8067200048503625e-04 5.4470765215059141e-04 -7.3575600022237730e-04
462 -4.2016214139267732e-04 7.0638652588612526e-04 5.6900239442897135e-04
463 7.7316054645515245e-04 -1.3156049604159552e-04 -6.1821863390826770e-04
464 8.8452431748193281e-04 -2.5381585132118250e-04 -4.0762326592305264e-04
465 8.8511702088308730e-04 -3.6944857822631663e-04 -3.1282721953899810e-04
466 8.3472461056559484e-06 8.2763634764370850e-04 -5.6060189483665094e-04
467 9.3963446779903872e-04 -2.4889209545556670e-04 -2.7212948306087957e-04
468 9.2936517065292617e-04 -3.5947167140556395e-04 -1.7326129316814074e-04
469 1.3386891208728416e-04 3.3879410558402764e-04 -9.1095711517410658e-04
470 8.6248577584662227e-04 -4.8173979858378533e-04 2.1327307426077582e-04
471 9.2894243742324605e-04 -3.5451398310285367e-04 1.8172964093598711e-04
472 1.9757209717364334e-04 7.7270316090846105e-04 6.0127278201340035e-04
473 1.4209467809800453e-04 -2.0410663114600442e-04 -9.4735821419463656e-04
474 2.3073864159006138e-04 -9.0625105618352675e-04 -3.7465303306673465e-04
475 5.7280374083384575e-04 7.8047638321422435e-04 -2.8186041446964110e-04
476 3.1670187374230823e-04 7.1335330013157455e-04 6.2144631093996464e-04
477 2.8469642502895222e-04 7.2216853679406734e-04 -6.2601891407415469e-04
478 -1.8767514969353214e-04 -5.4932977941679715e-04 -7.9971274489853202e-04
479 -1.7672993497806641e-04 -6.6499675329598771e-04 -7.1672667132680946e-04
480 -3.9784285830274434e-04 8.3781091606020385e-04 -3.8835934998542986e-04
481 1.8572803625245245e-04 6.4893548734108091e-04 -7.2689351605226249e-04
482 7.6857201231343155e-04 -6.1037913858367826e-04 2.4304960021657884e-04
483 9.0112571550842618e-04 -4.5086199967380304e-04 8.9695668620350872e-05
484 9.5174400917982728e-04 -3.3606228595861072e-04 6.5108543815826898e-05
485 5.6264100845122985e-04 -2.3894683903274901e-04 -7.7912954930801697e-04
486 3.7799719428221979e-04 1.4730095654076958e-04 -8.9455781621193987e-04
487 1.0007433988158657e-03 1.3089094072474638e-04 -6.8961913548221316e-05
488 9.6523662921706806e-04 2.7888558239657881e-04 -1.2129459152741751e-04
489 9.8219975165288079e-04 2.3899663413880885e-04 9.7821794028832527e-06
490 9.1290549584544737e-04 4.2604560325041008e-04 -8.9697145138946412e-05
491 3.5335726768637323e-04 9.4726666233220307e-04 1.2774483188050452e-05
492 3.1125634624590525e-04 9.5304358297135434e-04 -1.2960025407281612e-04
493 4.3995039392205788e-04 9.0635350313177413e-04 -7.9962763398593571e-05
494 9.2583986237474846e-04 -4.0648126411448456e-04 -3.2054175649623646e-05
495 9.6883688645326468e-04 -2.8365755430530151e-04 -6.2405635595141198e-05
496 -3.9683938919447186e-04 9.2914707791119763e-04 2.3321808006813692e-05
497 1.0008019700412309e-03 1.2635670250558595e-04 7.4774140770276606e-05
498 6.8661654968716886e-04 6.8904939811585892e-04 -2.6753938899340792e-04
499 1.0009832174685755e-03 -1.3526480634852838e-04 -6.6276551312716481e-05
500 9.8166102013386223e-04 -1.1186190031657795e-04 2.1090375653997742e-04
501 9.3776368234844011e-04 -1.2591298315247013e-04 -3.4741982623041196e-04
502 8.6698768892775788e-04 1.2952673587550613e-04 -4.8879196556893907e-04
503 8.7374716955955912e-04 -1.2148289974205735e-04 4.7978043462857588e-04
504 4.2554432295868966e-04 1.0214934678563410e-04 8.8116087928911892e-04
505 4.0803484774584324e-04 3.1742937244148253e-04 8.3987681586389742e-04
506 6.4892236449668632e-04 -3.5303687346953356e-04 6.6799483267856931e-04
507 3.0440385986500891e-04 -1.1079971815453226e-04 9.2598745665091573e-04
508 6.4839035325649409e-05 -1.1452083198315909e-04 9.6983807605739367e-04
509 1.5181261970640997e-04 -2.1060245339880293e-04 9.4490364332472832e-04
510 2.4554136407720241e-04 -1.8056081809351615e-04 9.3149370859707222e-04
511 -1.9675507515241024e-04 6.6904467471807887e-04 -7.0681612074976878e-04
512 2.7976295738471634e-04 9.3505523707645261e-04 2.5613139733974611e-04
513 5.8674303201416262e-04 -8.2377116580389985e-04 -3.8253174196145723e-05
514 2.6948489312917273e-04 -9.7472853046434499e-04 3.4125202705771008e-05
515 3.0429041390718232e-04 -9.5061912394733643e-04 1.6151540391049808e-04
516 -5.4771167477366510e-04 5.6459139755397447e-04 -6.1343714397110467e-04
517 7.8359758972943404e-04 -5.8535205136099003e-04 -2.5167613099879996e-04
518 -1.4962058414053951e-04 -9.9968721701606980e-04 -4.2054642843993024e-05
519 -2.9679783236969011e-04 -9.6665371520516131e-04 -4.6687562391559411e-05
520 -3.3746587214870309e-04 -9.3498456905301828e-04 -1.8339023848169876e-04
521 -7.9912828695430436e-04 5.2936624268862503e-04 -3.1046201317698024e-04
522 -9.9863157032051178e-04 9.1003206373447231e-05 -1.2374191702916167e-04
523 7.9533709940278897e-04 6.1271599327788356e-04 1.1749841310392683e-04
524 -8.0921514964657796e-04 -5.5083800804849731e-04 2.4659369103507798e-04
525 7.8232576839410979e-04 5.2041549124151197e-04 3.6194940394724975e-04
526 4.9505587587209577e-04 -7.8041198233997386e-04 -3.9946607391802428e-04
527 -9.6327472001892433e-04 -2.8262580729954882e-04 -1.1829024725330776e-04
528 -9.5161187347979684e-04 -7.2610490329713570e-05 3.2408614533232529e-04
529 -9.2296101382616496e-04 5.3757413726941399e-05 3.9676037072577898e-04
530 -8.4390485232427575e-04 5.5654401169010825e-05 5.3746703563390861e-04
531 -7.8570719284868393e-04 -6.2602805776684528e-04 -1.1501949621734998e-04
532 -9.9032316555352617e-04 -7.1563551067843842e-05 1.8545316991250925e-04
533 -7.4268197493343750e-04 5.4803207493665459e-04 3.9903946176560705e-04
534 -7.1202780506597391e-04 7.1680313505688648e-04 -1.4467795227579201e-05
535 -2.4299401733210169e-04 -9.3463025533621527e-04 -2.9312459180050993e-04
536 6.3558501317963222e-04 7.6918769218879549e-04 -1.5834401305031616e-04
537 -1.3618410112895547e-04 -9.0028671951898316e-04 4.2727631475671373e-04
538 -3.9866431336046837e-05 1.0058533472869337e-03 -8.5291147496533793e-05
539 -1.8111545628169033e-04 9.6000647705182644e-04 -2.4900659644838213e-04
540 6.3531364528984633e-05 9.8822446563607809e-04 -1.9841169930724252e-04
541 -9.4912424136491837e-04 2.8864879985475217e-04 1.8879304161409483e-04
542 -8.8898176090602596e-04 -4.3267052723933630e-04 2.0692540080305291e-04
543 -8.0002937221878645e-04 -8.1760655400511806e-05 5.9329625511660687e-04
544 -7.4506737243887084e-04 3.3650768872495041e-05 6.6001314679172210e-04
545 -6.5822410238116583e-04 -5.2787699198796891e-04 -5.3983856195001967e-04
546 -7.5093057429018086e-04 -4.2724989217303102e-04 -5.0834922094045545e-04
547 -7.5432895266812068e-04 -3.0363067206421173e-04 -5.8139421951197224e-04
548 -6.5271725916566064e-04 -2.7444188283162280e-04 -6.9799297090413197e-04
549 2.6495156705147205e-04 -8.1620522102938628e-04 5.1861501400830758e-04
550 5.7796160232780655e-04 6.0549415714888813e-04 5.4789567323849995e-04
551 8.7971551622877651e-04 3.6711123451262816e-04 -3.2705956687419292e-04
552 8.9354346373275316e-04 -2.4261649206591023e-04 3.9523341463259046e-04
553 1.5729617319313582e-04 -7.7196336364110667e-04 6.1403305666058220e-04
554 -4.4064582838827332e-04 -6.4557598477729141e-04 6.2193203707694769e-04
555 -3.7822524368148221e-04 -5.5532842849601613e-04 7.3067157236459703e-04
556 -8.4171717194906595e-04 -4.3839646989543546e-04 3.3862922469971165e-04
557 -6.0793743670760597e-04 -7.3090689877629885e-04 -3.3394043720745293e-04
558 -7.1669506293768918e-04 2.4973169657876510e-04 6.4597703779238429e-04
559 -6.7810152414454772e-04 -4.4773279993695657e-04 5.8251469110147652e-04
560 -5.8283757719719326e-04 -5.6525314797409363e-04 5.8466121800608074e-04
561 6.2921123310637260e-04 4.7872702316782500e-04 -6.1042402630067803e-04
562 -3.2205307431087407e-04 -6.7643608002235808e-04 -6.5779139479351333e-04
563 -4.7850347698282685e-04 5.0828743044882259e-04 7.0698062575250424e-04
564 7.3225770767375580e-04 -4.8691800379762734e-04 -4.8485372635173320e-04
565 -6.8376829685825547e-05 -2.7031149769648989e-04 9.3982515381247484e-04
566 -1.0282114168477705e-04 -3.9626741229797550e-04 8.9394051347769642e-04
567 -1.9918890845765122e-04 -3.0679919026671776e-04 9.1134886298037529e-04
568 -1.6369061686100526e-04 -6.3960000861589027e-04 7.4108605811116590e-04
569 3.9955044877985977e-04 -6.6174163434423391e-04 -6.3157548793564750e-04
570 -7.0026071083731216e-04 -1.0213191633895779e-04 6.9815127214824832e-04
571 5.2947062339216686e-04 3.0493669361436626e-04 7.7867724358636654e-04
572 4.7482342157312198e-04 -3.2938896343455795e-04 -8.0264725276865180e-04
573 1.1960190587299375e-04 -3.3517146457138147e-04 9.1515869850669206e-04
574 -7.3944783316010423e-04 1.9657792933548725e-04 -6.3854970458740348e-04
575 1.4826736195608294e-04 -4.6283112469454920e-04 -8.5746964840408512e-04
576 -4.4100507442854819e-04 -4.2312732321335428e-04 7.7971895576241170e-04
577 -3.0997071491275618e-04 3.4952869412888853e-04 -8.6597346135943863e-04
578 -2.3933003316148633e-04 2.2782063059893117e-04 -9.2306171296832509e-04
579 -3.0477414539034750e-04 1.4251737319221456e-04 -9.2083242900824170e-04
580 -4.7760622764452448e-04 1.3013853183517129e-05 -8.6080847325050499e-04
581 4.4998370841672181e-04 -5.5626076121480109e-04 6.9261954141693234e-04
582 4.7117530897490106e-04 -2.8893614471889870e-04 8.1861224217817999e-04
583 -4.3106015520245466e-04 1.3705515641833298e-04 -8.7334167286020833e-04
584 -4.0101581023624068e-04 1.8385684825016754e-04 8.7939696464425896e-04
585 -4.3643555570248397e-04 6.4111868232959943e-05 8.7942401927872690e-04
586 -3.2996073488723247e-04 -4.0940104561758533e-04 -8.3474585030022142e-04
587 2.6843020014101274e-05 9.6165231983252853e-04 3.0114133949550657e-04
588 -3.8301747371735775e-04 -7.7356320432308965e-05 -9.0108674735391991e-04
589 -2.4211669276736039e-04 -5.5609672196610869e-05 -9.4726456811535355e-04
590 -1.6396768409090347e-04 -1.1791087145539762e-04 -9.5783650863176279e-04
591 -1.5350194819724268e-04 4.0931351229272312e-04 8.8101890885776564e-04
592 -5.2285836974839343e-04 8.0020348485995588e-04 -3.1756146180630343e-04
593 -2.2273250936020742e-04 3.6068957730176538e-06 9.5337905330417885e-04
594 3.5345023871635885e-04 2.1198182137552671e-04 8.9247474467092159e-04
595 -8.1477052906056265e-04 5.7251474133171996e-04 1.6876294724378334e-04
596 4.3052309722519375e-04 -8.9608981674693959e-04 1.8339889187180271e-04
597 9.4278322489169193e-05 4.2495932787881886e-04 8.8197160863763753e-04
598 3.2916147010051506e-04 9.1261689047421660e-04 -2.7429373128116252e-04
599 1.8280809607247115e-04 -6.6164225608904617e-04 7.1853253089647080e-04
600 -5.3171534853451981e-04 -8.2047666578122377e-04 2.5151902660917706e-04
601 -8.5376470664746084e-04 4.0821820799345033e-04 -3.4358550021116138e-04
602 -8.1829994395231744e-04 3.4770324252294507e-04 -4.6474786358695710e-04
603 -7.4733907969785538e-04 -5.4155445173238216e-04 -4.0208866092368876e-04
604 -9.1614587520919444e-04 1.5290730141334055e-04 -3.8589098992222666e-04
605 -4.1166419054138211e-04 -9.2341174512283904e-04 2.7952129856724850e-05
606 -3.1347706652873591e-04 8.5896344169640051e-04 4.1709403616949401e-04
607 3.6426285529616877e-05 1.4040111561717421e-04 9.6698816471511905e-04
608 -5.3001844462810886e-05 7.6751412725363868e-04 6.3433374004678096e-04
609 -7.4538214235879874e-04 -1.7254312700153368e-04 -6.3934645451921572e-04
610 9.6655374716490339e-04 2.6289318515400844e-04 1.4200146014956534e-04
611 4.2172257753369445e-04 -7.9462075369937578e-05 -8.8506321170736654e-04
612 9.3388676123005597e-04 1.2140688907799430e-04 3.5787326982283067e-04
613 -3.8228333995284032e-04 -8.8121061410177757e-04 -3.0832800666660143e-04
614 4.5829860389566794e-05 -7.9376967065259070e-04 -6.0565286456258421e-04
615 4.7369769466870426e-04 -8.9303743231989273e-04 -4.5550314896412137e-05
616 -6.9065971048473413e-04 -7.0999487635470791e-04 -2.0164901227266152e-04
617 -9.4431626365362590e-04 -2.5174695695260105e-04 -2.5127088449112872e-04
618 -6.1693170748869494e-04 4.4539660480669640e-04 -6.4285397692929417e-04
619 1.8888908386327849e-04 -9.6479542804518031e-04 -2.3517810206806136e-04
620 -3.4921703302980334e-05 -9.4882233631482548e-04 3.3876292704571574e-04
621 3.9205524799010728e-04 -7.6583188756725159e-04 -5.1556342105234883e-04
622 -2.1835875086915444e-04 -4.2800075479025937e-04 8.5996704914771444e-04
623 8.0952489453296143e-04 -4.8590671477638861e-04 -3.5290315583077310e-04
624 9.3565996521682274e-04 1.3102366179743919e-04 -3.5058091605963447e-04
625 -4.0403144137966259e-04 6.0548992554872627e-04 6.7784425372619927e-04
626 -2.4627452046486635e-04 -5.4787647125709659e-04 7.8642056257070836e-04
627 -8.9015518613304510e-05 5.2236305316193847e-04 8.3198778733816424e-04
628 4.7620497166998637e-04 8.9068582743781781e-04 4.7124608666792279e-05
629 -9.7177172242240734e-04 5.2529518345267335e-05 2.6546825410021064e-04
630 -6.0332483524042904e-04 7.9273557540822587e-04 1.6505133922907513e-04
631 -8.3518214970437841e-04 -1.9559076276233508e-04 -5.1803681875327529e-04
632 -4.1380801634835598e-04 8.8338345853781423e-04 -2.5534593813604034e-04
633 9.3809864836039787e-04 2.4844390943383964e-04 -2.7645927758664475e-04
634 -3.0606988637249657e-04 9.2103397265101575e-05 9.2721794756661982e-04
635 3.9716581338634135e-04 -9.2866174601833544e-04 6.0805634134167009e-05
636 -6.8577382083821685e-05 -9.8650214831351771e-04 2.0720335439540646e-04
637 -4.6964178510162463e-04 -6.2433610262965057e-05 8.6335853526611490e-04
638 4.3131742274358977e-04 2.4837991169879200e-04 -8.4928255828537965e-04
639 4.2955710475414639e-04 -1.0504786631827983e-04 8.7904765945190659e-04
640 -6.6384327628688102e-05 6.5355871362555247e-04 -7.4203568597695573e-04
641 -9.7141835426822688e-04 2.2444580936737809e-04 -1.6078272506952010e-04
642 -8.8689254636192653e-04 2.8391441375955084e-04 -3.8018973518983080e-04
643 2.8098603399111737e-04 -7.2081072606762302e-04 6.3028254490969269e-04
644 5.6110502975453879e-04 -4.5308003535016894e-04 6.8546777959949037e-04
645 5.9958586426187563e-04 2.2370331986735700e-04 -7.5648977864000929e-04
646 -2.0086721639120235e-04 1.1797980193033398e-04 9.5093862769016300e-04
647 2.5593494306207125e-05 5.3139528999216336e-04 8.3080438620019930e-04
648 -7.5700393339519329e-04 5.9880459984800274e-04 2.8789190318592348e-04
649 -2.6522659006007927e-04 9.7166888959381145e-04 8.0964169287236524e-05
650 9.4353915574104004e-04 -2.3940319809543037e-04 2.6734689777193309e-04
651 -4.7622279006410354e-04 -8.7045726117339242e-04 -1.9425309907760959e-04
652 -8.8446619607331772e-04 -3.4696605794270124e-04 -3.3453457353861086e-04
653 -1.8048837420450069e-04 1.1196274197142912e-04 -9.5513628983742835e-04
654 8.6334830436887256e-04 -4.7504781165053127e-04 -2.2256996296167586e-04
655 -7.1968593837734823e-04 4.1353549558200428e-04 -5.5721678103887444e-04
656 6.4790205960160697e-04 -1.2739400832062654e-04 -7.4079135429163290e-04
657 -7.5844393203015436e-04 -5.4775490510612711e-04 3.7163525232071889e-04
658 -3.5435080587157056e-04 3.2666578755507998e-05 -9.1415277003895025e-04
659 -1.4521554231129399e-04 1.1185067042537626e-05 -9.6750297764161357e-04
660 -4.3842003818189530e-05 1.1999982389935010e-05 -9.7570687571001645e-04
661 8.6465976259070721e-04 -5.2519254965632367e-04 -8.0992038678529411e-06
662 5.3202131936205657e-05 -2.3241813302360799e-04 9.5021277246020634e-04
663 5.2090857798243908e-04 8.4750822718653019e-04 -1.7311320377441736e-04
664 -2.8225750876988978e-04 9.6885930003580856e-04 -5.1127204551276891e-05
665 -2.9923141631269342e-04 9.4554756775439106e-04 -1.8712946572855082e-04
666 -6.7087008807486563e-05 1.2069559315193508e-04 -9.6828996649363924e-04
667 2.6229118457027969e-04 -8.3457733959217738e-04 -4.9206602647837439e-04
668 -5.5679917661069587e-04 3.6360450038491049e-05 8.1494514912128354e-04
669 -8.3174443001976213e-04 -3.1611975223651669e-04 -4.6434774699280956e-04
670 -5.0557475857616419e-04 8.6987263683784314e-04 9.2337245266851690e-05
671 -9.7618350175629226e-04 1.5931345774607185e-04 1.9814617380368882e-04
672 5.4860156334060454e-04 -3.5561402319512006e-04 7.4488187453719676e-04
673 -1.1742887469346697e-05 2.3024526578738477e-04 -9.5103451423071434e-04
674 -2.0089161826935341e-04 -9.7532277235742718e-04 1.7220905957978348e-04
675 4.1359750397650899e-04 7.4380351748910291e-04 5.2685900723061809e-04
676 7.5146685155710774e-05 7.2691717299046689e-04 6.7557018924036254e-04
677 4.6356168596213283e-04 2.0981175340340849e-04 8.4436410238264100e-04
678 -4.9441602899174717e-04 -7.9438144591179396e-04 3.7137705729530310e-04
679 2.9629145958753921e-04 -7.2750471061177783e-05 -9.3183067400379486e-04
680 3.9290846802666308e-04 -6.6416894314664122e-04 6.3133421678930222e-04
681 -8.8353015702659137e-04 1.5528886609820830e-04 4.4956883453019480e-04
682 -9.1120826728471069e-04 4.3547436411628859e-04 1.7043843342656667e-05
683 -7.0682470637353266e-05 1.7634377845837518e-05 9.7434106280963704e-04
684 3.5682971739204483e-04 -9.4507654046358078e-04 -5.4174562246693071e-05
685 4.1621806975442109e-04 8.9996620207753915e-04 -1.8566774906649103e-04
686 1.6670920629562399e-04 -7.9692099624276331e-04 -5.7961074442154387e-04
687 1.8282098843375549e-04 9.8374462265575437e-04 -1.3248394389739227e-04
688 -8.1798322614026774e-04 -4.2458567871146209e-04 -4.0039017492493162e-04
689 -5.4714178746912844e-04 -6.5059447778067906e-04 5.2848873716408880e-04
690 5.8534113928251962e-04 -6.9323634402075282e-04 4.3150693402335617e-04
691 9.7332385718714874e-04 -2.2939767886688100e-04 1.4754453426892190e-04
692 -6.9166304521521625e-04 -5.3399357304435803e-04 4.9128660185576549e-04
693 9.4227426474089847e-04 2.2515866844660892e-04 2.7871158581884207e-04
694 -1.7776679427255110e-04 9.8716812756449116e-04 -1.1666389192136869e-04
695 9.2288412266506767e-04 3.5523095397964587e-04 -2.0197361999575554e-04
696 -4.5341824472527859e-05 6.5062727678940734e-04 7.4767650118160193e-04
697 -3.2508118116862905e-04 -4.6837163477576210e-04 8.0627433318996775e-04
698 9.4705068616639417e-04 3.5620697164876245e-04 1.4232033629412464e-05
699 -4.8236372744147558e-04 -5.3218785922841925e-04 6.8753701085542387e-04
700 -6.5360221350065952e-04 1.2346335267068573e-06 7.4449782760276388e-04
701 5.6583437731993677e-04 -5.5980700245253368e-04 6.0269043567234230e-04
702 -6.9806271790774079e-04 -6.4890577742261529e-04 -3.2525033145773020e-04
703 -7.6569163891631632e-04 3.0181082814590890e-04 -5.6561529063032579e-04
704 5.0412443045461420e-05 3.3166067131101996e-04 -9.2121770869312437e-04
705 3.0473790479826064e-04 6.2816664005961424e-04 -7.0497595602720092e-04
706 -3.1005427633221930e-04 6.9116872887199014e-04 6.4572298153125519e-04
707 1.1559460448341324e-04 -9.3863491949343120e-04 -3.4648400349144383e-04
708 -6.9257240323973915e-04 7.2767229179654586e-04 9.9090769974166703e-05
709 9.8759534165958500e-06 7.3569266459592238e-04 -6.6821883902750670e-04
710 -4.0452979537323243e-04 7.8560353547404982e-04 4.7329916094692234e-04
711 -9.4043712352049214e-04 2.2771938466367784e-04 -2.7944344186030354e-04
712 7.6973473374416048e-04 1.0537752774653280e-04 6.2549746973191887e-04
713 -2.1957922037232509e-04 -7.4991229916202711e-04 -6.1993433790105744e-04
714 6.2730722970810954e-04 3.4284717021520973e-04 -6.9115912622235039e-04
715 -2.1665170522801341e-04 -9.8533062960595675e-04 6.0947437237667714e-05
716 -2.2690776312375691e-04 3.7154856408907864e-05 -9.5093273269790705e-04
717 -4.1009577993698286e-04 -9.1926003820619936e-04 -8.9585049986561077e-05
718 4.8231548880613492e-04 -1.9923108498461732e-04 8.3661858482096739e-04
719 7.3522049097297264e-04 -5.7193594235520286e-04 3.8058001444709840e-04
720 8.5627891885640386e-04 5.1155421313942256e-04 1.5637239442356756e-04
721 2.3204295891030886e-04 -1.5707593223783200e-04 -9.3834132466149266e-04
722 -5.8247895449960597e-04 -7.8964845505132171e-04 -2.3465353895317316e-04
723 3.5722144069486519e-05 7.6901467435082802e-05 -9.7345467926260331e-04
724 -1.8406210559640667e-04 7.0931041368728462e-04 6.7417508693992819e-04
725 8.8791117803855982e-04 -4.7024245928615127e-04 -1.0845128747113756e-04
726 5.6040764233927071e-04 2.0876009480799593e-04 7.8729185836928187e-04
727 7.9898744955283682e-04 5.6883213996347648e-04 2.3662980092306374e-04
728 5.3839363603615459e-04 5.9473269438141245e-04 -5.9328565250676133e-04
729 4.4010566129751023e-04 9.9124283383558557e-05 -8.7358072387766559e-04
730 7.2587023580418183e-04 6.2196220958066672e-04 3.1699952992155959e-04
731 -2.6073602431410777e-04 -6.0730797438912100e-04 -7.3769469765162571e-04
732 3.3821851296034211e-04 6.2603213451196071e-04 6.9330449104577116e-04
733 -7.4070121317731062e-05 9.8879919861193316e-04 -1.8357004733221503e-04
734 -2.2893933314339411e-04 -4.6237101451733237e-04 -8.3964122130142501e-04
735 9.7080536081866069e-04 -2.3151437231829704e-04 -1.5618685117187961e-04
736 9.8365591582480548e-04 -2.2981334410958744e-04 3.4836441775114019e-05
737 -1.7699114625358685e-05 -7.1774671805821823e-05 9.7442762787902952e-04
738 -5.1177958274277935e-04 -8.7014270998823928e-04 4.5995255535476211e-05
739 4.8539353656742372e-04 1.9900353802820709e-04 -8.3472120742602337e-04
740 -7.6157109112840295e-04 1.3589523213373988e-04 6.2835462350535685e-04
741 -1.3751399992829112e-04 2.9427486263442037e-05 9.6735903855967823e-04
742 -5.5644296788390105e-04 -7.1289730422652395e-04 4.3568839710116439e-04
743 -1.9262851903165866e-06 4.2047073270290832e-04 -8.8716280337656009e-04
744 3.0341800923408291e-04 -9.5023264975220350e-04 -1.5977981370056689e-04
745 -8.5302563609552655e-05 -6.6712552249803211e-04 -7.2798283600331070e-04
$EndNodes
$Elements
1486
1 2 2 0 0 410 440 345
2 2 2 0 0 421 541 409
3 2 2 0 0 409 682 421
4 2 2 0 0 545 603 546
5 2 2 0 0 426 427 294
6 2 2 0 0 294 454 426
7 2 2 0 0 265 682 409
8 2 2 0 0 24 41 4
9 2 2 0 0 3 24 4
10 2 2 0 0 238 642 602
11 2 2 0 0 520 651 613
12 2 2 0 0 653 666 659
13 2 2 0 0 404 460 98
14 2 2 0 0 222 482 219
15 2 2 0 0 40 463 9
16 2 2 0 0 608 724 696
17 2 2 0 0 435 709 69
18 2 2 0 0 413 439 29
19 2 2 0 0 345 710 410
20 2 2 0 0 422 463 40
21 2 2 0 0 98 550 404
22 2 2 0 0 95 724 608
23 2 2 0 0 4 41 5
24 2 2 0 0 232 701 581
25 2 2 0 0 490 698 488
26 2 2 0 0 29 436 413
27 2 2 0 0 416 421 342
28 2 2 0 0 312 595 441
29 2 2 0 0 41 486 5
30 2 2 0 0 405 605 519
31 2 2 0 0 409 595 265
32 2 2 0 0 69 481 435
33 2 2 0 0 434 743 339
34 2 2 0 0 342 641 416
35 2 2 0 0 485 656 370
36 2 2 0 0 89 587 90
37 2 2 0 0 108 466 317
38 2 2 0 0 378 629 529
39 2 2 0 0 581 680 232
40 2 2 0 0 281 434 339
41 2 2 0 0 638 739 486
42 2 2 0 0 659 666 660
43 2 2 0 0 345 440 346
44 2 2 0 0 22 44 25
45 2 2 0 0 9 463 8
46 2 2 0 0 44 81 25
47 2 2 0 0 459 587 89
48 2 2 0 0 127 670 630
49 2 2 0 0 508 662 509
50 2 2 0 0 375 662 508
51 2 2 0 0 492 598 103
52 2 2 0 0 604 642 238
53 2 2 0 0 507 510 399
54 2 2 0 0 488 698 489
55 2 2 0 0 34 473 415
56 2 2 0 0 399 639 507
57 2 2 0 0 603 688 546
58 2 2 0 0 316 541 421
59 2 2 0 0 647 696 627
60 2 2 0 0 403 439 352
61 2 2 0 0 221 603 545
62 2 2 0 0 595 648 441
63 2 2 0 0 412 550 98
64 2 2 0 0 411 714 397
65 2 2 0 0 486 739 729
66 2 2 0 0 696 724 401
67 2 2 0 0 247 482 222
68 2 2 0 0 397 714 645
69 2 2 0 0 613 651 212
70 2 2 0 0 207 745 425
71 2 2 0 0 98 675 412
72 2 2 0 0 219 482 230
73 2 2 0 0 560 692 432
74 2 2 0 0 432 689 560
75 2 2 0 0 454 575 426
76 2 2 0 0 352 439 413
77 2 2 0 0 415 420 2
78 2 2 0 0 40 464 422
79 2 2 0 0 89 512 459
80 2 2 0 0 425 614 207
81 2 2 0 0 377 600 453
82 2 2 0 0 89 90 88
83 2 2 0 0 80 466 108
84 2 2 0 0 520 717 651
85 2 2 0 0 602 703 238
86 2 2 0 0 103 687 492
87 2 2 0 0 253 491 424
88 2 2 0 0 69 709 466
89 2 2 0 0 424 512 253
90 2 2 0 0 369 696 647
91 2 2 0 0 581 701 644
92 2 2 0 0 630 670 392
93 2 2 0 0 32 656 485
94 2 2 0 0 459 512 424
95 2 2 0 0 90 91 88
96 2 2 0 0 427 478 294
97 2 2 0 0 488 695 490
98 2 2 0 0 554 699 560
99 2 2 0 0 67 80 79
100 2 2 0 0 252 454 294
101 2 2 0 0 253 628 491
102 2 2 0 0 529 681 378
103 2 2 0 0 519 715 405
104 2 2 0 0 440 441 346
105 2 2 0 0 605 717 519
106 2 2 0 0 403 452 439
107 2 2 0 0 507 639 21
108 2 2 0 0 565 567 566
109 2 2 0 0 433 454 341
110 2 2 0 0 67 466 80
111 2 2 0 0 555 697 576
112 2 2 0 0 491 628 493
113 2 2 0 0 389 641 342
114 2 2 0 0 429 619 474
115 2 2 0 0 40 501 464
116 2 2 0 0 576 699 555
117 2 2 0 0 311 600 377
118 2 2 0 0 567 622 566
119 2 2 0 0 433 575 454
120 2 2 0 0 378 671 629
121 2 2 0 0 79 540 103
122 2 2 0 0 341 473 433
123 2 2 0 0 673 704 68
124 2 2 0 0 462 710 345
125 2 2 0 0 557 722 616
126 2 2 0 0 573 662 343
127 2 2 0 0 370 656 463
128 2 2 0 0 341 454 252
129 2 2 0 0 616 702 557
130 2 2 0 0 6 26 7
131 2 2 0 0 464 501 467
132 2 2 0 0 433 473 406
133 2 2 0 0 8 45 37
134 2 2 0 0 466 709 317
135 2 2 0 0 457 461 379
136 2 2 0 0 84 512 86
137 2 2 0 0 19 452 33
138 2 2 0 0 380 614 425
139 2 2 0 0 83 540 79
140 2 2 0 0 398 510 509
141 2 2 0 0 609 631 137
142 2 2 0 0 18 442 36
143 2 2 0 0 26 45 7
144 2 2 0 0 565 566 343
145 2 2 0 0 80 83 79
146 2 2 0 0 560 689 554
147 2 2 0 0 134 137 136
148 2 2 0 0 68 469 42
149 2 2 0 0 659 716 653
150 2 2 0 0 619 707 474
151 2 2 0 0 497 610 39
152 2 2 0 0 137 138 136
153 2 2 0 0 283 573 343
154 2 2 0 0 506 644 448
155 2 2 0 0 499 735 31
156 2 2 0 0 81 97 25
157 2 2 0 0 45 46 37
158 2 2 0 0 585 668 637
159 2 2 0 0 495 735 499
160 2 2 0 0 399 510 398
161 2 2 0 0 509 573 398
162 2 2 0 0 442 443 36
163 2 2 0 0 1 607 314
164 2 2 0 0 29 612 436
165 2 2 0 0 547 631 609
166 2 2 0 0 360 595 409
167 2 2 0 0 421 682 342
168 2 2 0 0 426 575 327
169 2 2 0 0 123 577 235
170 2 2 0 0 339 743 417
171 2 2 0 0 7 45 8
172 2 2 0 0 3 723 24
173 2 2 0 0 418 666 653
174 2 2 0 0 59 60 58
175 2 2 0 0 620 636 193
176 2 2 0 0 42 469 47
177 2 2 0 0 65 67 66
178 2 2 0 0 509 662 573
179 2 2 0 0 470 482 247
180 2 2 0 0 368 476 472
181 2 2 0 0 530 740 337
182 2 2 0 0 253 512 84
183 2 2 0 0 455 698 282
184 2 2 0 0 61 65 62
185 2 2 0 0 59 61 60
186 2 2 0 0 91 472 88
187 2 2 0 0 90 92 91
188 2 2 0 0 19 442 18
189 2 2 0 0 464 465 423
190 2 2 0 0 706 724 118
191 2 2 0 0 456 611 32
192 2 2 0 0 379 477 61
193 2 2 0 0 417 743 704
194 2 2 0 0 314 683 1
195 2 2 0 0 442 458 443
196 2 2 0 0 11 28 12
197 2 2 0 0 61 62 60
198 2 2 0 0 118 724 95
199 2 2 0 0 22 25 23
200 2 2 0 0 247 483 470
201 2 2 0 0 281 640 434
202 2 2 0 0 197 667 474
203 2 2 0 0 86 512 89
204 2 2 0 0 417 704 673
205 2 2 0 0 451 690 230
206 2 2 0 0 27 442 19
207 2 2 0 0 637 668 229
208 2 2 0 0 60 475 58
209 2 2 0 0 489 610 497
210 2 2 0 0 307 573 283
211 2 2 0 0 61 477 65
212 2 2 0 0 65 66 62
213 2 2 0 0 544 740 530
214 2 2 0 0 230 719 451
215 2 2 0 0 18 452 19
216 2 2 0 0 268 569 269
217 2 2 0 0 32 485 456
218 2 2 0 0 627 696 401
219 2 2 0 0 24 42 41
220 2 2 0 0 20 27 19
221 2 2 0 0 330 461 457
222 2 2 0 0 506 672 644
223 2 2 0 0 472 476 87
224 2 2 0 0 468 495 494
225 2 2 0 0 88 472 87
226 2 2 0 0 121 577 123
227 2 2 0 0 327 575 276
228 2 2 0 0 422 464 423
229 2 2 0 0 47 63 49
230 2 2 0 0 458 506 443
231 2 2 0 0 232 690 451
232 2 2 0 0 28 487 12
233 2 2 0 0 80 107 83
234 2 2 0 0 608 696 676
235 2 2 0 0 356 481 355
236 2 2 0 0 138 238 136
237 2 2 0 0 137 139 138
238 2 2 0 0 729 739 26
239 2 2 0 0 81 99 97
240 2 2 0 0 46 50 37
241 2 2 0 0 463 656 8
242 2 2 0 0 443 444 36
243 2 2 0 0 68 704 469
244 2 2 0 0 24 68 42
245 2 2 0 0 16 503 30
246 2 2 0 0 65 69 67
247 2 2 0 0 67 79 66
248 2 2 0 0 676 696 369
249 2 2 0 0 59 379 61
250 2 2 0 0 90 93 92
251 2 2 0 0 464 467 465
252 2 2 0 0 441 708 312
253 2 2 0 0 483 484 471
254 2 2 0 0 427 479 478
255 2 2 0 0 245 564 244
256 2 2 0 0 470 483 471
257 2 2 0 0 473 721 406
258 2 2 0 0 555 699 554
259 2 2 0 0 47 469 63
260 2 2 0 0 63 355 49
261 2 2 0 0 62 64 60
262 2 2 0 0 80 108 107
263 2 2 0 0 107 539 83
264 2 2 0 0 139 140 138
265 2 2 0 0 99 100 97
266 2 2 0 0 81 236 99
267 2 2 0 0 46 51 50
268 2 2 0 0 443 445 444
269 2 2 0 0 24 419 68
270 2 2 0 0 69 466 67
271 2 2 0 0 79 103 66
272 2 2 0 0 65 477 69
273 2 2 0 0 547 548 321
274 2 2 0 0 93 94 92
275 2 2 0 0 467 468 465
276 2 2 0 0 333 664 649
277 2 2 0 0 55 498 56
278 2 2 0 0 56 498 72
279 2 2 0 0 12 499 31
280 2 2 0 0 63 356 355
281 2 2 0 0 108 110 107
282 2 2 0 0 139 141 140
283 2 2 0 0 100 101 97
284 2 2 0 0 236 248 99
285 2 2 0 0 81 594 236
286 2 2 0 0 51 52 50
287 2 2 0 0 192 515 195
288 2 2 0 0 445 446 444
289 2 2 0 0 477 481 69
290 2 2 0 0 94 95 92
291 2 2 0 0 93 96 94
292 2 2 0 0 63 408 356
293 2 2 0 0 108 111 110
294 2 2 0 0 110 117 107
295 2 2 0 0 139 154 141
296 2 2 0 0 141 142 140
297 2 2 0 0 51 53 52
298 2 2 0 0 100 102 101
299 2 2 0 0 236 250 248
300 2 2 0 0 445 447 446
301 2 2 0 0 52 388 50
302 2 2 0 0 277 622 567
303 2 2 0 0 95 608 92
304 2 2 0 0 94 118 95
305 2 2 0 0 93 104 96
306 2 2 0 0 51 561 53
307 2 2 0 0 408 434 356
308 2 2 0 0 53 54 52
309 2 2 0 0 445 448 447
310 2 2 0 0 108 317 111
311 2 2 0 0 141 143 142
312 2 2 0 0 142 225 140
313 2 2 0 0 102 166 101
314 2 2 0 0 250 325 248
315 2 2 0 0 100 258 102
316 2 2 0 0 53 55 54
317 2 2 0 0 447 449 446
318 2 2 0 0 236 505 250
319 2 2 0 0 104 105 96
320 2 2 0 0 53 57 55
321 2 2 0 0 55 56 54
322 2 2 0 0 448 451 447
323 2 2 0 0 14 39 15
324 2 2 0 0 317 511 111
325 2 2 0 0 10 40 9
326 2 2 0 0 143 144 142
327 2 2 0 0 57 58 55
328 2 2 0 0 8 37 9
329 2 2 0 0 14 38 13
330 2 2 0 0 166 314 101
331 2 2 0 0 18 36 17
332 2 2 0 0 16 29 17
333 2 2 0 0 33 504 20
334 2 2 0 0 325 365 248
335 2 2 0 0 199 202 196
336 2 2 0 0 7 32 6
337 2 2 0 0 434 435 356
338 2 2 0 0 74 75 73
339 2 2 0 0 223 239 234
340 2 2 0 0 74 76 75
341 2 2 0 0 72 74 73
342 2 2 0 0 231 549 201
343 2 2 0 0 202 205 204
344 2 2 0 0 226 227 214
345 2 2 0 0 272 275 271
346 2 2 0 0 276 318 275
347 2 2 0 0 213 214 209
348 2 2 0 0 76 77 75
349 2 2 0 0 210 231 201
350 2 2 0 0 16 30 15
351 2 2 0 0 205 209 208
352 2 2 0 0 202 204 196
353 2 2 0 0 318 406 340
354 2 2 0 0 195 196 193
355 2 2 0 0 322 420 415
356 2 2 0 0 239 240 234
357 2 2 0 0 163 588 168
358 2 2 0 0 12 31 11
359 2 2 0 0 56 72 71
360 2 2 0 0 425 426 327
361 2 2 0 0 19 33 20
362 2 2 0 0 168 224 215
363 2 2 0 0 209 568 216
364 2 2 0 0 318 433 406
365 2 2 0 0 269 271 270
366 2 2 0 0 268 269 245
367 2 2 0 0 21 639 20
368 2 2 0 0 84 85 82
369 2 2 0 0 181 207 183
370 2 2 0 0 269 272 271
371 2 2 0 0 272 276 275
372 2 2 0 0 242 243 240
373 2 2 0 0 102 167 166
374 2 2 0 0 223 234 233
375 2 2 0 0 283 343 227
376 2 2 0 0 205 208 204
377 2 2 0 0 213 226 214
378 2 2 0 0 271 572 347
379 2 2 0 0 243 268 245
380 2 2 0 0 335 398 307
381 2 2 0 0 303 555 554
382 2 2 0 0 226 283 227
383 2 2 0 0 347 485 370
384 2 2 0 0 195 199 196
385 2 2 0 0 205 213 209
386 2 2 0 0 246 322 252
387 2 2 0 0 76 78 77
388 2 2 0 0 133 163 135
389 2 2 0 0 163 168 164
390 2 2 0 0 322 415 341
391 2 2 0 0 227 361 214
392 2 2 0 0 191 198 189
393 2 2 0 0 78 84 82
394 2 2 0 0 209 216 208
395 2 2 0 0 78 82 77
396 2 2 0 0 216 303 266
397 2 2 0 0 417 418 362
398 2 2 0 0 314 607 101
399 2 2 0 0 339 362 280
400 2 2 0 0 243 245 244
401 2 2 0 0 187 291 185
402 2 2 0 0 429 430 359
403 2 2 0 0 143 145 144
404 2 2 0 0 202 553 205
405 2 2 0 0 339 417 362
406 2 2 0 0 131 580 133
407 2 2 0 0 239 242 240
408 2 2 0 0 57 59 58
409 2 2 0 0 224 246 215
410 2 2 0 0 84 86 85
411 2 2 0 0 303 554 266
412 2 2 0 0 72 73 71
413 2 2 0 0 437 438 414
414 2 2 0 0 318 340 275
415 2 2 0 0 269 270 245
416 2 2 0 0 86 87 85
417 2 2 0 0 192 193 191
418 2 2 0 0 123 235 129
419 2 2 0 0 263 374 262
420 2 2 0 0 425 427 426
421 2 2 0 0 149 150 147
422 2 2 0 0 210 232 231
423 2 2 0 0 74 373 76
424 2 2 0 0 168 215 169
425 2 2 0 0 259 262 249
426 2 2 0 0 145 146 144
427 2 2 0 0 367 524 289
428 2 2 0 0 271 347 270
429 2 2 0 0 406 407 340
430 2 2 0 0 334 459 424
431 2 2 0 0 429 474 430
432 2 2 0 0 250 328 325
433 2 2 0 0 431 432 367
434 2 2 0 0 104 278 105
435 2 2 0 0 145 147 146
436 2 2 0 0 151 152 150
437 2 2 0 0 235 583 129
438 2 2 0 0 237 249 228
439 2 2 0 0 149 151 150
440 2 2 0 0 159 161 158
441 2 2 0 0 153 155 152
442 2 2 0 0 156 158 155
443 2 2 0 0 354 367 289
444 2 2 0 0 259 263 262
445 2 2 0 0 190 191 189
446 2 2 0 0 177 221 174
447 2 2 0 0 162 228 161
448 2 2 0 0 124 516 386
449 2 2 0 0 418 653 578
450 2 2 0 0 371 584 295
451 2 2 0 0 151 153 152
452 2 2 0 0 153 156 155
453 2 2 0 0 159 162 161
454 2 2 0 0 374 593 262
455 2 2 0 0 156 159 158
456 2 2 0 0 237 259 249
457 2 2 0 0 146 284 160
458 2 2 0 0 266 309 267
459 2 2 0 0 264 265 257
460 2 2 0 0 86 88 87
461 2 2 0 0 265 312 257
462 2 2 0 0 162 237 228
463 2 2 0 0 21 44 22
464 2 2 0 0 324 392 390
465 2 2 0 0 371 585 584
466 2 2 0 0 262 366 249
467 2 2 0 0 192 195 193
468 2 2 0 0 263 375 374
469 2 2 0 0 216 266 217
470 2 2 0 0 326 327 276
471 2 2 0 0 260 646 166
472 2 2 0 0 220 223 222
473 2 2 0 0 322 341 252
474 2 2 0 0 256 257 255
475 2 2 0 0 78 253 84
476 2 2 0 0 358 359 242
477 2 2 0 0 188 189 187
478 2 2 0 0 281 339 280
479 2 2 0 0 146 160 144
480 2 2 0 0 123 129 128
481 2 2 0 0 255 324 254
482 2 2 0 0 228 229 161
483 2 2 0 0 354 431 367
484 2 2 0 0 163 164 135
485 2 2 0 0 155 157 152
486 2 2 0 0 243 244 240
487 2 2 0 0 256 264 257
488 2 2 0 0 284 316 160
489 2 2 0 0 380 425 327
490 2 2 0 0 148 149 147
491 2 2 0 0 335 399 398
492 2 2 0 0 418 578 362
493 2 2 0 0 334 424 396
494 2 2 0 0 167 260 166
495 2 2 0 0 325 368 365
496 2 2 0 0 428 429 359
497 2 2 0 0 165 255 254
498 2 2 0 0 297 342 264
499 2 2 0 0 298 371 295
500 2 2 0 0 218 323 220
501 2 2 0 0 310 337 302
502 2 2 0 0 165 256 255
503 2 2 0 0 186 187 185
504 2 2 0 0 56 71 70
505 2 2 0 0 165 254 125
506 2 2 0 0 200 201 199
507 2 2 0 0 148 206 149
508 2 2 0 0 324 390 364
509 2 2 0 0 190 192 191
510 2 2 0 0 368 369 365
511 2 2 0 0 353 404 351
512 2 2 0 0 104 331 278
513 2 2 0 0 256 297 264
514 2 2 0 0 316 421 416
515 2 2 0 0 239 358 242
516 2 2 0 0 169 586 171
517 2 2 0 0 286 287 206
518 2 2 0 0 324 364 254
519 2 2 0 0 241 576 162
520 2 2 0 0 168 169 164
521 2 2 0 0 121 123 122
522 2 2 0 0 266 267 217
523 2 2 0 0 129 131 130
524 2 2 0 0 216 217 208
525 2 2 0 0 285 382 313
526 2 2 0 0 172 321 170
527 2 2 0 0 390 391 364
528 2 2 0 0 296 563 300
529 2 2 0 0 246 252 251
530 2 2 0 0 285 286 206
531 2 2 0 0 288 289 287
532 2 2 0 0 298 372 371
533 2 2 0 0 23 35 22
534 2 2 0 0 300 344 304
535 2 2 0 0 344 462 345
536 2 2 0 0 123 128 122
537 2 2 0 0 297 389 342
538 2 2 0 0 237 277 259
539 2 2 0 0 148 285 206
540 2 2 0 0 86 89 88
541 2 2 0 0 306 307 283
542 2 2 0 0 234 279 233
543 2 2 0 0 316 416 160
544 2 2 0 0 188 190 189
545 2 2 0 0 85 98 82
546 2 2 0 0 358 428 359
547 2 2 0 0 437 455 438
548 2 2 0 0 203 210 201
549 2 2 0 0 382 383 313
550 2 2 0 0 153 176 156
551 2 2 0 0 290 354 289
552 2 2 0 0 159 241 162
553 2 2 0 0 386 387 126
554 2 2 0 0 273 363 338
555 2 2 0 0 272 326 276
556 2 2 0 0 171 293 173
557 2 2 0 0 145 148 147
558 2 2 0 0 274 295 261
559 2 2 0 0 285 313 286
560 2 2 0 0 383 384 313
561 2 2 0 0 301 302 299
562 2 2 0 0 131 133 132
563 2 2 0 0 296 298 295
564 2 2 0 0 305 310 302
565 2 2 0 0 349 412 328
566 2 2 0 0 344 345 304
567 2 2 0 0 77 119 75
568 2 2 0 0 315 378 310
569 2 2 0 0 363 401 400
570 2 2 0 0 332 333 278
571 2 2 0 0 223 233 222
572 2 2 0 0 331 334 332
573 2 2 0 0 186 188 187
574 2 2 0 0 178 212 177
575 2 2 0 0 305 360 315
576 2 2 0 0 334 396 395
577 2 2 0 0 246 251 215
578 2 2 0 0 167 261 260
579 2 2 0 0 175 179 178
580 2 2 0 0 345 346 304
581 2 2 0 0 124 386 126
582 2 2 0 0 286 288 287
583 2 2 0 0 331 332 278
584 2 2 0 0 179 181 180
585 2 2 0 0 301 305 302
586 2 2 0 0 300 304 301
587 2 2 0 0 296 300 299
588 2 2 0 0 305 315 310
589 2 2 0 0 296 299 298
590 2 2 0 0 320 453 290
591 2 2 0 0 274 296 295
592 2 2 0 0 313 531 286
593 2 2 0 0 120 281 280
594 2 2 0 0 360 409 315
595 2 2 0 0 363 400 338
596 2 2 0 0 129 130 128
597 2 2 0 0 300 301 299
598 2 2 0 0 1 508 23
599 2 2 0 0 167 273 261
600 2 2 0 0 133 135 134
601 2 2 0 0 173 174 172
602 2 2 0 0 311 377 376
603 2 2 0 0 273 274 261
604 2 2 0 0 273 338 274
605 2 2 0 0 334 395 332
606 2 2 0 0 183 197 184
607 2 2 0 0 319 393 320
608 2 2 0 0 449 450 446
609 2 2 0 0 288 290 289
610 2 2 0 0 226 306 283
611 2 2 0 0 326 380 327
612 2 2 0 0 175 177 174
613 2 2 0 0 181 183 182
614 2 2 0 0 219 230 211
615 2 2 0 0 308 335 307
616 2 2 0 0 267 311 292
617 2 2 0 0 169 170 164
618 2 2 0 0 288 319 290
619 2 2 0 0 126 165 125
620 2 2 0 0 120 280 121
621 2 2 0 0 130 357 128
622 2 2 0 0 195 200 199
623 2 2 0 0 169 171 170
624 2 2 0 0 171 172 170
625 2 2 0 0 184 186 185
626 2 2 0 0 73 282 71
627 2 2 0 0 252 294 251
628 2 2 0 0 319 320 290
629 2 2 0 0 131 132 130
630 2 2 0 0 393 394 320
631 2 2 0 0 171 173 172
632 2 2 0 0 4 34 3
633 2 2 0 0 218 220 219
634 2 2 0 0 267 292 217
635 2 2 0 0 184 185 182
636 2 2 0 0 188 194 190
637 2 2 0 0 56 70 54
638 2 2 0 0 377 405 376
639 2 2 0 0 449 470 450
640 2 2 0 0 179 180 178
641 2 2 0 0 173 175 174
642 2 2 0 0 175 178 177
643 2 2 0 0 250 329 328
644 2 2 0 0 311 376 292
645 2 2 0 0 329 571 350
646 2 2 0 0 347 370 348
647 2 2 0 0 220 222 219
648 2 2 0 0 376 385 292
649 2 2 0 0 133 134 132
650 2 2 0 0 134 136 132
651 2 2 0 0 306 308 307
652 2 2 0 0 200 203 201
653 2 2 0 0 233 247 222
654 2 2 0 0 98 460 82
655 2 2 0 0 329 349 328
656 2 2 0 0 326 381 380
657 2 2 0 0 347 348 270
658 2 2 0 0 181 182 180
659 2 2 0 0 121 122 115
660 2 2 0 0 350 351 349
661 2 2 0 0 308 336 335
662 2 2 0 0 350 403 352
663 2 2 0 0 470 471 450
664 2 2 0 0 203 211 210
665 2 2 0 0 218 219 211
666 2 2 0 0 183 184 182
667 2 2 0 0 370 463 422
668 2 2 0 0 306 402 308
669 2 2 0 0 203 218 211
670 2 2 0 0 71 490 70
671 2 2 0 0 329 350 349
672 2 2 0 0 436 437 414
673 2 2 0 0 124 126 125
674 2 2 0 0 413 414 353
675 2 2 0 0 422 423 348
676 2 2 0 0 352 353 351
677 2 2 0 0 370 422 348
678 2 2 0 0 350 352 351
679 2 2 0 0 413 436 414
680 2 2 0 0 352 413 353
681 2 2 0 0 120 121 115
682 2 2 0 0 110 480 117
683 2 2 0 0 124 125 116
684 2 2 0 0 126 521 165
685 2 2 0 0 113 120 115
686 2 2 0 0 127 440 410
687 2 2 0 0 114 124 116
688 2 2 0 0 543 544 530
689 2 2 0 0 488 489 487
690 2 2 0 0 585 637 366
691 2 2 0 0 543 570 544
692 2 2 0 0 113 115 114
693 2 2 0 0 127 410 106
694 2 2 0 0 114 116 112
695 2 2 0 0 195 515 200
696 2 2 0 0 491 493 492
697 2 2 0 0 12 487 13
698 2 2 0 0 546 547 321
699 2 2 0 0 330 457 411
700 2 2 0 0 157 543 530
701 2 2 0 0 519 520 291
702 2 2 0 0 28 488 487
703 2 2 0 0 111 112 110
704 2 2 0 0 312 534 257
705 2 2 0 0 476 732 412
706 2 2 0 0 27 458 442
707 2 2 0 0 385 636 620
708 2 2 0 0 176 559 156
709 2 2 0 0 593 634 366
710 2 2 0 0 589 590 224
711 2 2 0 0 113 114 112
712 2 2 0 0 109 127 106
713 2 2 0 0 270 564 245
714 2 2 0 0 443 506 445
715 2 2 0 0 491 492 396
716 2 2 0 0 388 624 502
717 2 2 0 0 445 506 448
718 2 2 0 0 30 500 15
719 2 2 0 0 20 504 21
720 2 2 0 0 64 475 60
721 2 2 0 0 287 542 206
722 2 2 0 0 23 508 35
723 2 2 0 0 302 558 299
724 2 2 0 0 70 551 54
725 2 2 0 0 62 598 64
726 2 2 0 0 424 491 396
727 2 2 0 0 407 456 340
728 2 2 0 0 545 546 321
729 2 2 0 0 330 411 397
730 2 2 0 0 72 536 74
731 2 2 0 0 238 574 136
732 2 2 0 0 659 660 420
733 2 2 0 0 395 538 332
734 2 2 0 0 143 527 145
735 2 2 0 0 412 675 476
736 2 2 0 0 239 513 358
737 2 2 0 0 157 530 529
738 2 2 0 0 518 519 291
739 2 2 0 0 449 482 470
740 2 2 0 0 207 713 479
741 2 2 0 0 119 523 75
742 2 2 0 0 109 670 127
743 2 2 0 0 10 501 40
744 2 2 0 0 508 509 35
745 2 2 0 0 96 606 94
746 2 2 0 0 331 459 334
747 2 2 0 0 286 531 288
748 2 2 0 0 290 453 354
749 2 2 0 0 282 490 71
750 2 2 0 0 384 531 313
751 2 2 0 0 289 524 287
752 2 2 0 0 349 550 412
753 2 2 0 0 165 521 256
754 2 2 0 0 82 460 77
755 2 2 0 0 155 543 157
756 2 2 0 0 201 549 199
757 2 2 0 0 273 591 363
758 2 2 0 0 387 521 126
759 2 2 0 0 114 516 124
760 2 2 0 0 53 561 57
761 2 2 0 0 266 554 309
762 2 2 0 0 257 534 255
763 2 2 0 0 205 553 213
764 2 2 0 0 142 522 225
765 2 2 0 0 435 481 356
766 2 2 0 0 216 568 303
767 2 2 0 0 300 563 344
768 2 2 0 0 214 568 209
769 2 2 0 0 112 480 110
770 2 2 0 0 350 571 403
771 2 2 0 0 347 572 485
772 2 2 0 0 275 572 271
773 2 2 0 0 274 563 296
774 2 2 0 0 171 586 293
775 2 2 0 0 162 576 237
776 2 2 0 0 133 580 163
777 2 2 0 0 11 501 10
778 2 2 0 0 295 584 261
779 2 2 0 0 129 583 131
780 2 2 0 0 215 586 169
781 2 2 0 0 250 505 329
782 2 2 0 0 168 588 224
783 2 2 0 0 321 548 170
784 2 2 0 0 262 593 366
785 2 2 0 0 166 646 314
786 2 2 0 0 520 535 291
787 2 2 0 0 373 663 493
788 2 2 0 0 291 535 185
789 2 2 0 0 101 607 97
790 2 2 0 0 130 574 357
791 2 2 0 0 158 570 543
792 2 2 0 0 31 501 11
793 2 2 0 0 444 552 503
794 2 2 0 0 156 559 159
795 2 2 0 0 236 594 505
796 2 2 0 0 206 542 149
797 2 2 0 0 54 551 52
798 2 2 0 0 74 536 373
799 2 2 0 0 337 558 302
800 2 2 0 0 150 532 147
801 2 2 0 0 379 728 457
802 2 2 0 0 299 558 298
803 2 2 0 0 332 538 333
804 2 2 0 0 145 527 148
805 2 2 0 0 514 515 192
806 2 2 0 0 15 500 14
807 2 2 0 0 75 523 73
808 2 2 0 0 467 501 31
809 2 2 0 0 254 592 125
810 2 2 0 0 172 545 321
811 2 2 0 0 144 522 142
812 2 2 0 0 528 532 150
813 2 2 0 0 187 518 291
814 2 2 0 0 553 599 213
815 2 2 0 0 383 603 384
816 2 2 0 0 282 698 490
817 2 2 0 0 244 517 240
818 2 2 0 0 353 525 404
819 2 2 0 0 395 540 538
820 2 2 0 0 94 606 118
821 2 2 0 0 117 539 107
822 2 2 0 0 185 535 182
823 2 2 0 0 388 502 50
824 2 2 0 0 167 591 273
825 2 2 0 0 147 532 146
826 2 2 0 0 92 608 91
827 2 2 0 0 472 676 368
828 2 2 0 0 364 592 254
829 2 2 0 0 21 504 44
830 2 2 0 0 365 597 248
831 2 2 0 0 125 592 116
832 2 2 0 0 588 589 224
833 2 2 0 0 111 113 112
834 2 2 0 0 63 469 408
835 2 2 0 0 105 109 106
836 2 2 0 0 242 526 243
837 2 2 0 0 439 712 29
838 2 2 0 0 240 517 234
839 2 2 0 0 346 533 304
840 2 2 0 0 14 500 38
841 2 2 0 0 494 495 484
842 2 2 0 0 127 630 440
843 2 2 0 0 208 537 204
844 2 2 0 0 175 562 179
845 2 2 0 0 303 626 555
846 2 2 0 0 359 526 242
847 2 2 0 0 243 526 268
848 2 2 0 0 217 537 208
849 2 2 0 0 58 498 55
850 2 2 0 0 503 552 30
851 2 2 0 0 13 499 12
852 2 2 0 0 268 621 569
853 2 2 0 0 489 497 487
854 2 2 0 0 475 498 58
855 2 2 0 0 430 526 359
856 2 2 0 0 248 597 99
857 2 2 0 0 292 537 217
858 2 2 0 0 26 645 45
859 2 2 0 0 234 517 279
860 2 2 0 0 14 497 39
861 2 2 0 0 385 537 292
862 2 2 0 0 305 533 360
863 2 2 0 0 304 533 301
864 2 2 0 0 146 532 284
865 2 2 0 0 483 494 484
866 2 2 0 0 173 562 175
867 2 2 0 0 116 480 112
868 2 2 0 0 224 590 246
869 2 2 0 0 189 518 187
870 2 2 0 0 498 536 72
871 2 2 0 0 414 525 353
872 2 2 0 0 160 522 144
873 2 2 0 0 547 609 548
874 2 2 0 0 182 535 180
875 2 2 0 0 297 601 389
876 2 2 0 0 44 594 81
877 2 2 0 0 301 533 305
878 2 2 0 0 105 106 96
879 2 2 0 0 515 596 200
880 2 2 0 0 293 562 173
881 2 2 0 0 73 523 282
882 2 2 0 0 148 527 285
883 2 2 0 0 174 545 172
884 2 2 0 0 218 596 323
885 2 2 0 0 200 596 203
886 2 2 0 0 149 542 151
887 2 2 0 0 446 552 444
888 2 2 0 0 49 461 330
889 2 2 0 0 330 397 48
890 2 2 0 0 453 738 377
891 2 2 0 0 255 534 324
892 2 2 0 0 52 551 388
893 2 2 0 0 634 646 260
894 2 2 0 0 513 615 358
895 2 2 0 0 438 525 414
896 2 2 0 0 516 618 386
897 2 2 0 0 198 518 189
898 2 2 0 0 227 566 361
899 2 2 0 0 559 560 241
900 2 2 0 0 90 587 93
901 2 2 0 0 416 522 160
902 2 2 0 0 102 591 167
903 2 2 0 0 134 609 137
904 2 2 0 0 298 558 372
905 2 2 0 0 132 574 130
906 2 2 0 0 106 606 96
907 2 2 0 0 159 559 241
908 2 2 0 0 32 611 6
909 2 2 0 0 158 543 155
910 2 2 0 0 223 513 239
911 2 2 0 0 288 531 319
912 2 2 0 0 323 513 220
913 2 2 0 0 115 516 114
914 2 2 0 0 521 601 297
915 2 2 0 0 610 698 455
916 2 2 0 0 354 600 431
917 2 2 0 0 351 550 349
918 2 2 0 0 256 521 297
919 2 2 0 0 140 604 138
920 2 2 0 0 77 460 119
921 2 2 0 0 17 503 16
922 2 2 0 0 9 502 10
923 2 2 0 0 104 587 331
924 2 2 0 0 152 528 150
925 2 2 0 0 315 541 378
926 2 2 0 0 170 548 164
927 2 2 0 0 590 659 420
928 2 2 0 0 11 624 28
929 2 2 0 0 199 549 202
930 2 2 0 0 502 624 10
931 2 2 0 0 453 600 354
932 2 2 0 0 42 43 41
933 2 2 0 0 38 499 13
934 2 2 0 0 285 527 382
935 2 2 0 0 190 514 192
936 2 2 0 0 157 529 528
937 2 2 0 0 231 643 549
938 2 2 0 0 331 587 459
939 2 2 0 0 451 701 232
940 2 2 0 0 99 597 100
941 2 2 0 0 361 568 214
942 2 2 0 0 372 740 544
943 2 2 0 0 221 545 174
944 2 2 0 0 138 604 238
945 2 2 0 0 340 572 275
946 2 2 0 0 338 563 274
947 2 2 0 0 524 542 287
948 2 2 0 0 265 595 312
949 2 2 0 0 111 511 113
950 2 2 0 0 580 658 588
951 2 2 0 0 580 588 163
952 2 2 0 0 237 576 277
953 2 2 0 0 444 503 36
954 2 2 0 0 131 583 580
955 2 2 0 0 505 571 329
956 2 2 0 0 203 596 218
957 2 2 0 0 584 634 260
958 2 2 0 0 261 584 260
959 2 2 0 0 369 647 365
960 2 2 0 0 251 586 215
961 2 2 0 0 348 564 270
962 2 2 0 0 450 552 446
963 2 2 0 0 390 496 391
964 2 2 0 0 66 598 62
965 2 2 0 0 465 623 423
966 2 2 0 0 258 591 102
967 2 2 0 0 343 566 227
968 2 2 0 0 564 623 244
969 2 2 0 0 154 617 141
970 2 2 0 0 324 534 392
971 2 2 0 0 50 502 37
972 2 2 0 0 524 556 542
973 2 2 0 0 544 700 372
974 2 2 0 0 122 516 115
975 2 2 0 0 177 557 221
976 2 2 0 0 489 698 610
977 2 2 0 0 93 587 104
978 2 2 0 0 136 574 132
979 2 2 0 0 593 646 634
980 2 2 0 0 116 592 480
981 2 2 0 0 143 617 527
982 2 2 0 0 225 604 140
983 2 2 0 0 137 631 139
984 2 2 0 0 549 553 202
985 2 2 0 0 164 548 135
986 2 2 0 0 404 550 351
987 2 2 0 0 34 721 473
988 2 2 0 0 220 513 223
989 2 2 0 0 317 640 511
990 2 2 0 0 100 597 258
991 2 2 0 0 588 658 589
992 2 2 0 0 323 615 513
993 2 2 0 0 568 626 303
994 2 2 0 0 377 605 405
995 2 2 0 0 178 613 212
996 2 2 0 0 493 628 373
997 2 2 0 0 157 528 152
998 2 2 0 0 591 627 363
999 2 2 0 0 409 541 315
1000 2 2 0 0 183 614 197
1001 2 2 0 0 103 598 66
1002 2 2 0 0 188 619 194
1003 2 2 0 0 213 599 226
1004 2 2 0 0 306 599 402
1005 2 2 0 0 97 607 25
1006 2 2 0 0 194 514 190
1007 2 2 0 0 373 628 76
1008 2 2 0 0 78 628 253
1009 2 2 0 0 42 47 43
1010 2 2 0 0 39 612 15
1011 2 2 0 0 16 612 29
1012 2 2 0 0 437 610 455
1013 2 2 0 0 487 497 13
1014 2 2 0 0 440 630 441
1015 2 2 0 0 479 713 562
1016 2 2 0 0 196 620 193
1017 2 2 0 0 456 572 340
1018 2 2 0 0 120 511 281
1019 2 2 0 0 577 578 235
1020 2 2 0 0 335 582 399
1021 2 2 0 0 314 741 683
1022 2 2 0 0 520 613 535
1023 2 2 0 0 585 634 584
1024 2 2 0 0 423 564 348
1025 2 2 0 0 457 561 411
1026 2 2 0 0 6 611 5
1027 2 2 0 0 385 620 537
1028 2 2 0 0 228 637 229
1029 2 2 0 0 366 637 249
1030 2 2 0 0 161 570 158
1031 2 2 0 0 434 640 435
1032 2 2 0 0 193 636 191
1033 2 2 0 0 410 606 106
1034 2 2 0 0 37 502 9
1035 2 2 0 0 36 503 17
1036 2 2 0 0 141 617 143
1037 2 2 0 0 363 627 401
1038 2 2 0 0 322 590 420
1039 2 2 0 0 357 618 128
1040 2 2 0 0 430 621 526
1041 2 2 0 0 540 687 103
1042 2 2 0 0 280 577 121
1043 2 2 0 0 276 575 318
1044 2 2 0 0 362 578 577
1045 2 2 0 0 109 649 496
1046 2 2 0 0 246 590 322
1047 2 2 0 0 326 569 381
1048 2 2 0 0 569 621 381
1049 2 2 0 0 269 569 272
1050 2 2 0 0 139 631 154
1051 2 2 0 0 649 664 496
1052 2 2 0 0 537 620 204
1053 2 2 0 0 355 461 49
1054 2 2 0 0 663 685 493
1055 2 2 0 0 479 745 207
1056 2 2 0 0 343 662 565
1057 2 2 0 0 212 557 177
1058 2 2 0 0 45 645 46
1059 2 2 0 0 496 670 109
1060 2 2 0 0 366 634 585
1061 2 2 0 0 384 616 531
1062 2 2 0 0 535 613 180
1063 2 2 0 0 391 632 364
1064 2 2 0 0 308 581 336
1065 2 2 0 0 344 625 462
1066 2 2 0 0 563 625 344
1067 2 2 0 0 13 497 14
1068 2 2 0 0 480 632 117
1069 2 2 0 0 371 668 585
1070 2 2 0 0 333 649 278
1071 2 2 0 0 387 601 521
1072 2 2 0 0 47 49 48
1073 2 2 0 0 358 615 428
1074 2 2 0 0 113 511 120
1075 2 2 0 0 527 617 382
1076 2 2 0 0 105 649 109
1077 2 2 0 0 398 573 307
1078 2 2 0 0 368 676 369
1079 2 2 0 0 180 613 178
1080 2 2 0 0 153 556 176
1081 2 2 0 0 432 657 367
1082 2 2 0 0 458 718 582
1083 2 2 0 0 207 614 183
1084 2 2 0 0 407 611 456
1085 2 2 0 0 244 623 517
1086 2 2 0 0 20 639 27
1087 2 2 0 0 476 675 87
1088 2 2 0 0 319 616 393
1089 2 2 0 0 474 707 197
1090 2 2 0 0 226 599 306
1091 2 2 0 0 47 48 43
1092 2 2 0 0 186 619 188
1093 2 2 0 0 412 732 328
1094 2 2 0 0 316 671 541
1095 2 2 0 0 293 734 478
1096 2 2 0 0 492 685 598
1097 2 2 0 0 528 629 532
1098 2 2 0 0 514 635 515
1099 2 2 0 0 531 616 319
1100 2 2 0 0 8 656 7
1101 2 2 0 0 387 602 601
1102 2 2 0 0 76 628 78
1103 2 2 0 0 122 618 516
1104 2 2 0 0 651 717 394
1105 2 2 0 0 423 623 564
1106 2 2 0 0 546 669 547
1107 2 2 0 0 4 679 34
1108 2 2 0 0 542 556 151
1109 2 2 0 0 548 609 135
1110 2 2 0 0 204 620 196
1111 2 2 0 0 529 629 528
1112 2 2 0 0 482 719 230
1113 2 2 0 0 258 627 591
1114 2 2 0 0 336 582 335
1115 2 2 0 0 197 686 667
1116 2 2 0 0 583 658 580
1117 2 2 0 0 85 675 98
1118 2 2 0 0 59 728 379
1119 2 2 0 0 400 625 338
1120 2 2 0 0 394 717 605
1121 2 2 0 0 471 650 450
1122 2 2 0 0 596 635 323
1123 2 2 0 0 249 637 228
1124 2 2 0 0 515 635 596
1125 2 2 0 0 338 625 563
1126 2 2 0 0 28 633 488
1127 2 2 0 0 566 622 361
1128 2 2 0 0 229 570 161
1129 2 2 0 0 468 654 465
1130 2 2 0 0 118 710 462
1131 2 2 0 0 15 612 16
1132 2 2 0 0 589 659 590
1133 2 2 0 0 526 621 268
1134 2 2 0 0 365 647 597
1135 2 2 0 0 579 583 235
1136 2 2 0 0 22 507 21
1137 2 2 0 0 342 682 264
1138 2 2 0 0 441 648 346
1139 2 2 0 0 191 636 198
1140 2 2 0 0 578 653 579
1141 2 2 0 0 135 609 134
1142 2 2 0 0 128 618 122
1143 2 2 0 0 378 681 310
1144 2 2 0 0 230 690 211
1145 2 2 0 0 210 690 232
1146 2 2 0 0 549 643 553
1147 2 2 0 0 233 661 247
1148 2 2 0 0 10 624 11
1149 2 2 0 0 640 709 435
1150 2 2 0 0 449 719 482
1151 2 2 0 0 452 726 33
1152 2 2 0 0 362 577 280
1153 2 2 0 0 318 575 433
1154 2 2 0 0 492 687 396
1155 2 2 0 0 586 734 293
1156 2 2 0 0 357 655 618
1157 2 2 0 0 277 567 259
1158 2 2 0 0 522 641 225
1159 2 2 0 0 511 640 281
1160 2 2 0 0 247 661 483
1161 2 2 0 0 610 693 39
1162 2 2 0 0 272 569 326
1163 2 2 0 0 490 695 70
1164 2 2 0 0 553 643 599
1165 2 2 0 0 532 629 284
1166 2 2 0 0 29 712 17
1167 2 2 0 0 632 665 117
1168 2 2 0 0 618 655 386
1169 2 2 0 0 241 699 576
1170 2 2 0 0 457 728 561
1171 2 2 0 0 485 572 456
1172 2 2 0 0 430 667 621
1173 2 2 0 0 582 672 458
1174 2 2 0 0 395 687 540
1175 2 2 0 0 504 594 44
1176 2 2 0 0 181 713 207
1177 2 2 0 0 197 707 184
1178 2 2 0 0 524 657 556
1179 2 2 0 0 475 536 498
1180 2 2 0 0 394 738 320
1181 2 2 0 0 51 714 561
1182 2 2 0 0 151 556 153
1183 2 2 0 0 437 693 610
1184 2 2 0 0 361 626 568
1185 2 2 0 0 611 679 5
1186 2 2 0 0 231 680 643
1187 2 2 0 0 462 706 118
1188 2 2 0 0 390 670 496
1189 2 2 0 0 602 642 601
1190 2 2 0 0 49 330 48
1191 2 2 0 0 391 665 632
1192 2 2 0 0 508 737 375
1193 2 2 0 0 450 650 552
1194 2 2 0 0 368 732 476
1195 2 2 0 0 578 579 235
1196 2 2 0 0 402 581 308
1197 2 2 0 0 43 486 41
1198 2 2 0 0 562 713 179
1199 2 2 0 0 592 632 480
1200 2 2 0 0 416 641 522
1201 2 2 0 0 372 668 371
1202 2 2 0 0 452 712 439
1203 2 2 0 0 282 720 455
1204 2 2 0 0 556 657 176
1205 2 2 0 0 364 632 592
1206 2 2 0 0 403 726 452
1207 2 2 0 0 465 654 623
1208 2 2 0 0 278 649 105
1209 2 2 0 0 154 652 617
1210 2 2 0 0 383 688 603
1211 2 2 0 0 451 719 447
1212 2 2 0 0 317 709 640
1213 2 2 0 0 604 711 642
1214 2 2 0 0 382 652 383
1215 2 2 0 0 601 642 389
1216 2 2 0 0 284 671 316
1217 2 2 0 0 599 643 402
1218 2 2 0 0 388 633 624
1219 2 2 0 0 267 678 311
1220 2 2 0 0 337 681 530
1221 2 2 0 0 279 661 233
1222 2 2 0 0 605 738 394
1223 2 2 0 0 33 677 504
1224 2 2 0 0 386 655 387
1225 2 2 0 0 547 669 631
1226 2 2 0 0 562 731 479
1227 2 2 0 0 360 648 595
1228 2 2 0 0 432 692 657
1229 2 2 0 0 367 657 524
1230 2 2 0 0 633 695 488
1231 2 2 0 0 415 473 341
1232 2 2 0 0 644 672 336
1233 2 2 0 0 551 633 388
1234 2 2 0 0 533 648 360
1235 2 2 0 0 407 679 611
1236 2 2 0 0 323 635 615
1237 2 2 0 0 530 681 529
1238 2 2 0 0 393 651 394
1239 2 2 0 0 387 655 602
1240 2 2 0 0 238 703 574
1241 2 2 0 0 594 677 505
1242 2 2 0 0 559 692 560
1243 2 2 0 0 621 667 381
1244 2 2 0 0 405 674 376
1245 2 2 0 0 325 732 368
1246 2 2 0 0 623 654 517
1247 2 2 0 0 581 644 336
1248 2 2 0 0 346 648 533
1249 2 2 0 0 517 654 279
1250 2 2 0 0 477 705 481
1251 2 2 0 0 481 705 355
1252 2 2 0 0 561 728 57
1253 2 2 0 0 379 705 477
1254 2 2 0 0 617 652 382
1255 2 2 0 0 30 650 500
1256 2 2 0 0 376 674 385
1257 2 2 0 0 518 715 519
1258 2 2 0 0 474 667 430
1259 2 2 0 0 478 734 294
1260 2 2 0 0 624 633 28
1261 2 2 0 0 186 707 619
1262 2 2 0 0 64 663 475
1263 2 2 0 0 597 647 258
1264 2 2 0 0 377 738 605
1265 2 2 0 0 31 735 467
1266 2 2 0 0 27 718 458
1267 2 2 0 0 419 673 68
1268 2 2 0 0 616 722 393
1269 2 2 0 0 24 723 419
1270 2 2 0 0 397 638 48
1271 2 2 0 0 404 730 460
1272 2 2 0 0 91 676 472
1273 2 2 0 0 622 626 361
1274 2 2 0 0 7 656 32
1275 2 2 0 0 576 697 277
1276 2 2 0 0 471 691 650
1277 2 2 0 0 536 663 373
1278 2 2 0 0 484 691 471
1279 2 2 0 0 552 650 30
1280 2 2 0 0 311 678 600
1281 2 2 0 0 486 729 5
1282 2 2 0 0 418 673 666
1283 2 2 0 0 232 680 231
1284 2 2 0 0 5 679 4
1285 2 2 0 0 117 665 539
1286 2 2 0 0 384 702 616
1287 2 2 0 0 557 702 221
1288 2 2 0 0 87 675 85
1289 2 2 0 0 225 711 604
1290 2 2 0 0 505 677 571
1291 2 2 0 0 483 661 494
1292 2 2 0 0 263 565 375
1293 2 2 0 0 504 677 594
1294 2 2 0 0 582 718 399
1295 2 2 0 0 645 714 46
1296 2 2 0 0 534 708 392
1297 2 2 0 0 643 680 402
1298 2 2 0 0 18 712 452
1299 2 2 0 0 392 670 390
1300 2 2 0 0 221 702 603
1301 2 2 0 0 496 664 391
1302 2 2 0 0 606 710 118
1303 2 2 0 0 655 703 602
1304 2 2 0 0 608 676 91
1305 2 2 0 0 194 684 514
1306 2 2 0 0 541 671 378
1307 2 2 0 0 154 669 652
1308 2 2 0 0 399 718 639
1309 2 2 0 0 405 715 674
1310 2 2 0 0 33 726 677
1311 2 2 0 0 629 671 284
1312 2 2 0 0 468 735 495
1313 2 2 0 0 469 704 408
1314 2 2 0 0 427 745 479
1315 2 2 0 0 294 734 251
1316 2 2 0 0 461 705 379
1317 2 2 0 0 385 674 636
1318 2 2 0 0 657 692 176
1319 2 2 0 0 561 714 411
1320 2 2 0 0 631 669 154
1321 2 2 0 0 264 682 265
1322 2 2 0 0 43 638 486
1323 2 2 0 0 48 638 43
1324 2 2 0 0 194 744 684
1325 2 2 0 0 381 686 380
1326 2 2 0 0 658 716 589
1327 2 2 0 0 263 567 565
1328 2 2 0 0 310 681 337
1329 2 2 0 0 493 685 492
1330 2 2 0 0 64 685 663
1331 2 2 0 0 309 678 267
1332 2 2 0 0 600 678 431
1333 2 2 0 0 538 694 333
1334 2 2 0 0 598 685 64
1335 2 2 0 0 551 695 633
1336 2 2 0 0 560 699 241
1337 2 2 0 0 211 690 210
1338 2 2 0 0 2 723 3
1339 2 2 0 0 630 708 441
1340 2 2 0 0 467 735 468
1341 2 2 0 0 396 687 395
1342 2 2 0 0 35 507 22
1343 2 2 0 0 259 567 263
1344 2 2 0 0 417 673 418
1345 2 2 0 0 614 686 197
1346 2 2 0 0 392 708 630
1347 2 2 0 0 5 729 6
1348 2 2 0 0 279 725 661
1349 2 2 0 0 6 729 26
1350 2 2 0 0 357 703 655
1351 2 2 0 0 514 684 635
1352 2 2 0 0 540 733 538
1353 2 2 0 0 374 741 593
1354 2 2 0 0 176 692 559
1355 2 2 0 0 650 691 500
1356 2 2 0 0 484 736 691
1357 2 2 0 0 83 733 540
1358 2 2 0 0 558 740 372
1359 2 2 0 0 626 697 555
1360 2 2 0 0 436 693 437
1361 2 2 0 0 375 737 374
1362 2 2 0 0 475 663 536
1363 2 2 0 0 636 674 198
1364 2 2 0 0 674 715 198
1365 2 2 0 0 70 695 551
1366 2 2 0 0 406 721 407
1367 2 2 0 0 677 726 571
1368 2 2 0 0 258 647 627
1369 2 2 0 0 448 701 451
1370 2 2 0 0 458 672 506
1371 2 2 0 0 229 700 570
1372 2 2 0 0 684 744 428
1373 2 2 0 0 570 700 544
1374 2 2 0 0 678 742 431
1375 2 2 0 0 646 741 314
1376 2 2 0 0 603 702 384
1377 2 2 0 0 478 731 293
1378 2 2 0 0 309 742 678
1379 2 2 0 0 380 686 614
1380 2 2 0 0 494 725 468
1381 2 2 0 0 500 691 38
1382 2 2 0 0 635 684 615
1383 2 2 0 0 661 725 494
1384 2 2 0 0 679 721 34
1385 2 2 0 0 509 510 35
1386 2 2 0 0 46 714 51
1387 2 2 0 0 615 684 428
1388 2 2 0 0 432 742 689
1389 2 2 0 0 179 713 181
1390 2 2 0 0 26 739 645
1391 2 2 0 0 35 510 507
1392 2 2 0 0 574 703 357
1393 2 2 0 0 184 707 186
1394 2 2 0 0 39 693 612
1395 2 2 0 0 665 694 539
1396 2 2 0 0 312 708 534
1397 2 2 0 0 554 689 309
1398 2 2 0 0 1 737 508
1399 2 2 0 0 519 717 520
1400 2 2 0 0 277 697 622
1401 2 2 0 0 389 711 641
1402 2 2 0 0 495 736 484
1403 2 2 0 0 17 712 18
1404 2 2 0 0 212 722 557
1405 2 2 0 0 455 720 438
1406 2 2 0 0 622 697 626
1407 2 2 0 0 664 694 665
1408 2 2 0 0 447 719 449
1409 2 2 0 0 669 688 652
1410 2 2 0 0 612 693 436
1411 2 2 0 0 619 744 194
1412 2 2 0 0 57 728 59
1413 2 2 0 0 579 658 583
1414 2 2 0 0 438 727 525
1415 2 2 0 0 539 733 83
1416 2 2 0 0 479 731 478
1417 2 2 0 0 691 736 38
1418 2 2 0 0 401 724 400
1419 2 2 0 0 420 660 2
1420 2 2 0 0 328 732 325
1421 2 2 0 0 320 738 453
1422 2 2 0 0 428 744 429
1423 2 2 0 0 431 742 432
1424 2 2 0 0 425 745 427
1425 2 2 0 0 408 743 434
1426 2 2 0 0 571 726 403
1427 2 2 0 0 119 727 523
1428 2 2 0 0 625 706 462
1429 2 2 0 0 525 730 404
1430 2 2 0 0 499 736 495
1431 2 2 0 0 468 725 654
1432 2 2 0 0 336 672 582
1433 2 2 0 0 198 715 518
1434 2 2 0 0 400 724 706
1435 2 2 0 0 402 680 581
1436 2 2 0 0 589 716 659
1437 2 2 0 0 727 730 525
1438 2 2 0 0 664 665 391
1439 2 2 0 0 337 740 558
1440 2 2 0 0 293 731 562
1441 2 2 0 0 523 720 282
1442 2 2 0 0 460 730 119
1443 2 2 0 0 641 711 225
1444 2 2 0 0 429 744 619
1445 2 2 0 0 119 730 727
1446 2 2 0 0 651 722 212
1447 2 2 0 0 38 736 499
1448 2 2 0 0 667 686 381
1449 2 2 0 0 652 688 383
1450 2 2 0 0 410 710 606
1451 2 2 0 0 644 701 448
1452 2 2 0 0 666 673 419
1453 2 2 0 0 704 743 408
1454 2 2 0 0 251 734 586
1455 2 2 0 0 400 706 625
1456 2 2 0 0 546 688 669
1457 2 2 0 0 668 700 229
1458 2 2 0 0 538 733 694
1459 2 2 0 0 333 694 664
1460 2 2 0 0 565 662 375
1461 2 2 0 0 720 727 438
1462 2 2 0 0 372 700 668
1463 2 2 0 0 579 716 658
1464 2 2 0 0 642 711 389
1465 2 2 0 0 355 705 461
1466 2 2 0 0 407 721 679
1467 2 2 0 0 523 727 720
1468 2 2 0 0 654 725 279
1469 2 2 0 0 639 718 27
1470 2 2 0 0 694 733 539
1471 2 2 0 0 393 722 651
1472 2 2 0 0 645 739 397
1473 2 2 0 0 683 741 374
1474 2 2 0 0 397 739 638
1475 2 2 0 0 653 716 579
1476 2 2 0 0 666 723 660
1477 2 2 0 0 419 723 666
1478 2 2 0 0 374 737 683
1479 2 2 0 0 593 741 646
1480 2 2 0 0 683 737 1
1481 2 2 0 0 689 742 309
1482 2 2 0 0 660 723 2
1483 2 2 0 0 23 25 1
1484 2 2 0 0 25 607 1
1485 2 2 0 0 3 34 2
1486 2 2 0 0 34 415 2
$EndElements
