$MeshFormat
2.2 0 8
$EndMeshFormat
$Nodes
745
1 6.4454721987139009e-05 2.3335791025939425e-05 9.6945864657659562e-04
2 9.0466263285278708e-05 -6.9350770616237914e-05 -9.6526897650168521e-04
3 1.2548657115185645e-04 4.2898049924898005e-05 -9.6142566677415360e-04
4 2.2565258635391653e-04 4.3214865259497599e-05 -9.4594109535372833e-04
5 3.6880556038099512e-04 4.3639081759906002e-05 -9.0416506169748974e-04
6 5.0548990638619204e-04 -3.7469438444325919e-06 -8.4178939128456455e-04
7 6.3520995301971845e-04 -1.0606318340534797e-05 -7.5729851688730466e-04
8 7.3561908276466184e-04 -1.1828079124446789e-05 -6.6911192713431974e-04
9 8.2912872025257107e-04 -1.0725377919853228e-05 -5.6042145201241639e-04
10 9.0831172022972164e-04 -5.5393358841409605e-06 -4.3396133462439152e-04
11 9.6751284191899482e-04 4.6919681141576789e-06 -2.9447081340131193e-04
12 1.0030660702290751e-03 3.4879905803451812e-06 -1.5075925375581149e-04
13 1.0153281957522076e-03 9.5644966350850703e-06 -6.9251472495403314e-06
14 1.0049354093564194e-03 1.0698019740877691e-05 1.3843642864536755e-04
15 9.7128751562721002e-04 5.8686422103054321e-06 2.8279814910442961e-04
16 9.1347485259093118e-04 1.4579675250485295e-05 4.2416116246815448e-04
17 8.4095203576327728e-04 2.2393778021263687e-06 5.4428650242216913e-04
18 7.4222264844438343e-04 -9.0614098488932847e-06 6.6249035122053102e-04
19 6.3406074248446821e-04 3.3859164885251358e-07 7.5840353765837859e-04
20 5.0628476494510267e-04 2.6379897796726313e-06 8.4171638953243956e-04
21 3.7477397173898009e-04 9.7862042211888667e-06 9.0246777828779218e-04
22 2.5209579582320695e-04 -5.8934289843213477e-06 9.4068184862932411e-04
23 1.5369747015519752e-04 -4.1721304564993941e-05 9.5869266077372125e-04
24 1.6068721490238567e-04 1.5136556255163737e-04 -9.4792301686153413e-04
25 1.5870309243086976e-04 9.5691838009273101e-05 9.5558191314297296e-04
26 5.9227699549293372e-04 8.7822148005167652e-05 -7.8342969813901652e-04
27 5.6410149996430944e-04 -1.0657319488833449e-04 8.0078504714885777e-04
28 9.8473699996061534e-04 1.2695299067978482e-04 -2.0389844665155669e-04
29 8.6241549069952024e-04 1.5501740227795861e-04 4.9255724429721236e-04
30 9.4113018146310809e-04 -1.1395706132332937e-04 3.4800919521171792e-04
31 9.7969468505160130e-04 -1.1399993895976614e-04 -2.3026483598920610e-04
32 5.5217216577718644e-04 -1.1854553277907118e-04 -8.0679562663522506e-04
33 5.6398784539500807e-04 1.0150521236080286e-04 8.0148519225262788e-04
34 1.2228667990647277e-04 -9.2967519630264347e-05 -9.6090012918666559e-04
35 2.0973277720895395e-04 -1.1248239347788523e-04 9.4407174901781305e-04
36 7.8655731659832461e-04 -1.2968272189807417e-04 6.0164766485415824e-04
37 7.8785607165849248e-04 1.1619419263473472e-04 -6.0216094241088362e-04
38 1.0077670618961112e-03 -9.8742849378429079e-05 6.9412781963040345e-05
39 9.8469643628251204e-04 1.2064761815577190e-04 2.0611200922443119e-04
40 8.6086958073601006e-04 -1.3026364644103727e-04 -4.9973986322366694e-04
41 2.9297975197288637e-04 1.5564561749390661e-04 -9.1747260189738655e-04
42 2.2748984041081387e-04 2.5443828742883860e-04 -9.1394322655663051e-04
43 3.3005956159850349e-04 2.6777398308694232e-04 -8.8095992064063692e-04
44 2.8810041289257756e-04 1.1270493246420510e-04 9.2504181779257209e-04
45 7.0187252156144776e-04 1.0639139110454890e-04 -6.9373803116032861e-04
46 7.2691754811762919e-04 2.4337069741479968e-04 -6.3618771010596109e-04
47 2.7416616640338625e-04 3.6976450171503304e-04 -8.6447825575732278e-04
48 3.9576073574682858e-04 3.6777748271627853e-04 -8.2100544744777781e-04
49 3.3556492934311473e-04 4.6644721229183243e-04 -7.9933417329761396e-04
50 8.1579208889062942e-04 2.5003676640670029e-04 -5.2604567828317685e-04
51 7.3554923150169450e-04 3.7323090507524912e-04 -5.6593452567755144e-04
52 8.1937449617949050e-04 3.7640716340502951e-04 -4.4595209009677672e-04
53 7.4132348737541260e-04 4.9097018441178529e-04 -4.6842836105890788e-04
54 8.1138860908144654e-04 4.8881818668250249e-04 -3.4894844036626398e-04
55 7.2813206023812529e-04 5.9744261779461039e-04 -3.6171887356494539e-04
56 7.9138050773940028e-04 5.8420862577954658e-04 -2.3946444408060543e-04
57 6.4937257588129616e-04 5.9794156208711833e-04 -4.7854393200381039e-04
58 6.2332628369804704e-04 6.9736004277131595e-04 -3.7609028447419131e-04
59 5.3433837424756261e-04 6.9266208006294903e-04 -4.9128683542949280e-04
60 5.0201180826068051e-04 7.7993789020552157e-04 -3.9290099017163230e-04
61 4.0521397764705839e-04 7.6853190280345865e-04 -5.0097109336162183e-04
62 3.6784701701569878e-04 8.4910245087851195e-04 -3.9735949307729483e-04
63 2.1310089244934091e-04 4.7855627863581482e-04 -8.3063721588496069e-04
64 4.6321639207204065e-04 8.4965038005076947e-04 -2.9015576058074943e-04
65 2.6063487687422664e-04 8.3077773395092618e-04 -4.9796758001544982e-04
66 2.3238825642110387e-04 9.0498277865125223e-04 -3.7775597053119010e-04
67 1.1924050834109787e-04 8.7778745282139972e-04 -4.7288027925767028e-04
68 1.1136551081086640e-04 2.5852261314449830e-04 -9.3235859808968573e-04
69 1.5128957318564454e-04 7.8112862947081485e-04 -6.0322996761611976e-04
70 8.6772956701113924e-04 4.7189960063437667e-04 -2.2301007451458672e-04
71 8.4546066417329918e-04 5.4969320039173779e-04 -1.1115212422040620e-04
72 7.5413703780120465e-04 6.6595611480056325e-04 -1.2749350693383346e-04
73 7.9258703311671324e-04 6.3408564023075171e-04 -3.1676419137585056e-06
74 6.9082075139617898e-04 7.4314058515441536e-04 -1.7476179862441476e-05
75 7.1122630857507383e-04 7.1695576213585857e-04 9.5702400950922243e-05
76 6.0709222242079103e-04 8.0777371548413951e-04 8.8775807771611728e-05
77 6.2774687122408863e-04 7.6653500351368722e-04 2.1043564429980109e-04
78 5.0962961118931904e-04 8.5398344868259715e-04 1.9368760033891929e-04
79 9.7632776449060174e-05 9.4371465443740142e-04 -3.4330482940408741e-04
80 -1.5068644202693987e-05 9.0511740040570608e-04 -4.3751438995803235e-04
81 2.2086968468932970e-04 2.1380553890679868e-04 9.2566138063100766e-04
82 5.3729325638781744e-04 7.8947329986646636e-04 3.2939178187443326e-04
83 -3.8562488332420875e-05 9.5638462824553568e-04 -3.2023414513957660e-04
84 4.0708901294876838e-04 8.7796422767295824e-04 2.9249983535217322e-04
85 4.3300109632344084e-04 8.0666705976020249e-04 4.1887940045063374e-04
86 2.9173998339258417e-04 8.8381186096286044e-04 3.8705758463259738e-04
87 3.0572653779283081e-04 8.1193389833887077e-04 5.0332328764996967e-04
88 1.7478459461437587e-04 8.6795473296405012e-04 4.7430628276245323e-04
89 1.6074143008709967e-04 9.3072649216393731e-04 3.5480009076663456e-04
90 4.8173073775823613e-05 9.0593355696155136e-04 4.3462184022113784e-04
91 6.2238918427628270e-05 8.2887594829169329e-04 5.5671791652615518e-04
92 -6.3436141401857786e-05 8.6567454973869194e-04 5.0220664660939694e-04
93 -8.3474477468463862e-05 9.2825395843434901e-04 3.8339865384011911e-04
94 -1.9924739147935051e-04 8.7405740688771419e-04 4.5406766051842576e-04
95 -1.5617282962343567e-04 8.1251937022931578e-04 5.6006719656222475e-04
96 -2.2716018162122350e-04 9.2497389836410191e-04 3.3409765760601939e-04
97 9.9054505000453134e-05 2.3352709138475342e-04 9.4035883030238975e-04
98 5.5112752943525193e-04 6.9811281816953893e-04 4.6973146808951054e-04
99 1.6711876937843266e-04 3.4068995169925589e-04 9.0052552430809456e-04
100 3.3646162423798745e-05 3.4329136538931453e-04 9.1313051113426984e-04
101 -3.1873070962652812e-05 2.3874528536832912e-04 9.4322611390053074e-04
102 -9.9840014403458738e-05 3.3972909038670760e-04 9.0981325402077011e-04
103 2.0730674364788869e-04 9.5886740759143941e-04 -2.4674896958419481e-04
104 -1.1023550775042042e-04 9.7092550789026563e-04 2.6091293318131870e-04
105 -2.5513117688572310e-04 9.5819171263990504e-04 2.0504132331766842e-04
106 -3.6748184192078169e-04 8.9728619182853143e-04 2.8548842749700153e-04
107 -1.5349357288710057e-04 9.0927321496297043e-04 -4.0355779594873728e-04
108 -1.3079319426301641e-04 8.5061737352009790e-04 -5.1309424654125721e-04
109 -3.9236433447117642e-04 9.2143022270284834e-04 1.5466287797760399e-04
110 -2.6589460989494002e-04 8.4848932246261522e-04 -4.6639424323083659e-04
111 -2.4018667553492868e-04 7.7749189249269547e-04 -5.7883093819202788e-04
112 -3.6959200029306431e-04 7.6879741765634472e-04 -5.2482321216225966e-04
113 -3.3414436227296172e-04 6.8509715063498134e-04 -6.3981103723445576e-04
114 -4.6532201405777811e-04 6.7008616895052151e-04 -5.7645760227769305e-04
115 -4.2503568956978385e-04 5.7867143700248151e-04 -6.8498825080217903e-04
116 -4.9517324038773078e-04 7.4767340355231724e-04 -4.5333926648408597e-04
117 -2.8454231185631398e-04 9.0389052016954488e-04 -3.4525339892090988e-04
118 -2.9519411306128893e-04 7.8708911086832476e-04 5.4421134139063371e-04
119 7.2631457683418387e-04 6.7406853951396269e-04 2.0859542689277512e-04
120 -2.9224070942187501e-04 5.9149030790234443e-04 -7.3654762766568608e-04
121 -3.7769002920803613e-04 4.7819782021615945e-04 -7.7532981057926577e-04
122 -5.0165166553600607e-04 4.6376285063522442e-04 -7.1686029255385120e-04
123 -4.5146716277353358e-04 3.5994186905599130e-04 -7.9750975502538863e-04
124 -5.8601394962740766e-04 6.4349058339943914e-04 -4.9830576140500078e-04
125 -6.1155434248307764e-04 7.1002092451450034e-04 -3.7145808422816179e-04
126 -6.9536494260575849e-04 5.9983836999845722e-04 -4.1206371455803769e-04
127 -4.9674855336458157e-04 8.4947760290895167e-04 2.3604236141848818e-04
128 -5.6618906879380326e-04 3.4111193662486275e-04 -7.3574704501794188e-04
129 -5.1506496393063635e-04 2.3917935918274689e-04 -8.0388823449199223e-04
130 -6.2852122033245502e-04 2.1238434852330993e-04 -7.3396090772502923e-04
131 -5.7173529281674988e-04 1.1118338271423927e-04 -7.9449906136429109e-04
132 -6.8470111949104739e-04 8.5114824883275603e-05 -7.1138486350201232e-04
133 -6.1202338987832066e-04 -1.8732204423922495e-05 -7.7382271876989134e-04
134 -7.2113854444795262e-04 -4.1957326467733115e-05 -6.8155310071455833e-04
135 -6.4005671174869520e-04 -1.4930379586720866e-04 -7.3954080964032246e-04
136 -7.9011899633539833e-04 7.0260155095669524e-05 -6.0532588384502113e-04
137 -8.1822871717587462e-04 -5.9430222817543942e-05 -5.7126994220667293e-04
138 -8.7620770898781859e-04 4.3716974748025811e-05 -4.8798222567100443e-04
139 -8.9594376058954931e-04 -8.9578499203549919e-05 -4.4766848379256777e-04
140 -9.4281135869471846e-04 3.4065913440953709e-06 -3.5870348010053359e-04
141 -9.5321552417971980e-04 -1.2454564816546593e-04 -3.1073703507716671e-04
142 -9.8772528551108706e-04 -2.2018018648294187e-05 -2.2099381219218441e-04
143 -9.8677309632302056e-04 -1.5357034885740215e-04 -1.7196111309893177e-04
144 -1.0096971271969654e-03 -4.0719421289175956e-05 -8.6606681664211721e-05
145 -9.9869995968308953e-04 -1.7623863973996931e-04 -3.2757255525511888e-05
146 -1.0113111897172070e-03 -6.2209192833913497e-05 5.0656161747841233e-05
147 -9.8953067844981279e-04 -1.9407081392637445e-04 1.0947498536620907e-04
148 -9.6657521733016819e-04 -3.0841954194360565e-04 2.3049833705469917e-05
149 -9.4672733454230756e-04 -3.2304612189745107e-04 1.6443577172951086e-04
150 -9.5878750771152073e-04 -2.0440183657755395e-04 2.5139986221395060e-04
151 -9.0605986288309849e-04 -3.2854006003056987e-04 3.0484566833318462e-04
152 -9.0675125685041661e-04 -2.0552700427918264e-04 3.8992509885781121e-04
153 -8.4627571166529360e-04 -3.2274150308852486e-04 4.3856187841685268e-04
154 -9.0030000748021646e-04 -2.2033877514096096e-04 -3.9506313296256383e-04
155 -8.3411951177287660e-04 -2.0578562756111833e-04 5.1723620888657678e-04
156 -7.6429738011079098e-04 -3.1799462883505070e-04 5.6183166590398565e-04
157 -8.8747726352231715e-04 -8.2024497345205749e-05 4.6482260797967598e-04
158 -7.4288517891657609e-04 -2.0962948670259716e-04 6.3036511787745294e-04
159 -6.6366725367172745e-04 -3.1639284029269342e-04 6.6919580445070693e-04
160 -1.0115044621807402e-03 7.7534957049262573e-05 -2.7417832910924670e-06
161 -6.3282687778050048e-04 -2.0628799206102227e-04 7.3270417484311268e-04
162 -5.5038386997094250e-04 -3.1071442462328480e-04 7.5965399332199497e-04
163 -5.2820325615578407e-04 -1.2019304255786348e-04 -8.2078145351697151e-04
164 -5.4908362393903858e-04 -2.4831564270204722e-04 -7.8115088472616276e-04
165 -7.1469523457268257e-04 6.5617725088032322e-04 -2.8298071496437287e-04
166 -1.5609112135605974e-04 2.2440187878056415e-04 9.3516651473635193e-04
167 -2.3056747919682576e-04 3.2993868479883602e-04 8.9117565783950034e-04
168 -4.3249799102712923e-04 -2.1402013785681506e-04 -8.5404803480332303e-04
169 -4.5151693406618237e-04 -3.3725521979471868e-04 -8.0745669828434226e-04
170 -5.6289117527709692e-04 -3.7928308459377557e-04 -7.2175564202655532e-04
171 -4.5953873389832683e-04 -4.6621668485609288e-04 -7.4199236957917848e-04
172 -5.6417516495680623e-04 -5.0500440926477580e-04 -6.4655126670037553e-04
173 -4.4860127635044613e-04 -5.9275010438308710e-04 -6.6134798764050471e-04
174 -5.5413549774767953e-04 -6.1875398969228352e-04 -5.5807043111939369e-04
175 -4.3558715568487203e-04 -7.0356429283848138e-04 -5.6252094149753440e-04
176 -7.7171687030262877e-04 -4.2640342063807147e-04 4.8068235121904074e-04
177 -5.3118913608486999e-04 -7.2003764707429636e-04 -4.5835294203357965e-04
178 -4.1382539540248678e-04 -7.9779965656799048e-04 -4.5164759729382953e-04
179 -3.1352062380814909e-04 -7.7551709294671248e-04 -5.5010611441284635e-04
180 -2.8436951408622636e-04 -8.5968218823539858e-04 -4.3960711461586580e-04
181 -1.7849910731319599e-04 -8.2656214987096425e-04 -5.3745563941135605e-04
182 -1.4793018205207109e-04 -9.0182350099476754e-04 -4.2369146137528495e-04
183 -3.8223114812102178e-05 -8.5947268616857943e-04 -5.1636152708629053e-04
184 -1.0684281141821955e-05 -9.2896989168183512e-04 -3.9233239184489942e-04
185 -1.1067930915662001e-04 -9.6137564402865461e-04 -2.9453310592828175e-04
186 3.1487356853888248e-05 -9.7705462780134280e-04 -2.6297887983959260e-04
187 -5.9374755067385343e-05 -9.9858969494259829e-04 -1.6639803807472380e-04
188 7.9097976776926424e-05 -1.0026624577990462e-03 -1.3386517181304168e-04
189 -5.4140713210923469e-06 -1.0145971585520939e-03 -3.2964744364807502e-05
190 1.2295089933306620e-04 -1.0078110242900452e-03 7.8729927264108583e-06
191 3.8244957431696135e-05 -1.0082175104277249e-03 1.0790670911577072e-04
192 1.6986634083470081e-04 -9.8933127744891603e-04 1.4581255986022057e-04
193 7.2306205721276638e-05 -9.7966325895716298e-04 2.4550408485304463e-04
194 2.0858240947919826e-04 -9.8917174056445596e-04 -8.9523423378780741e-05
195 2.0842755291888799e-04 -9.4982376548818318e-04 2.7950148929159984e-04
196 1.0415336819784383e-04 -9.2927196199697065e-04 3.7877372434038856e-04
197 1.0899220479783181e-04 -8.7620132360691336e-04 -4.8124006092288102e-04
198 -8.8739252547100140e-05 -1.0084333783897442e-03 6.9721153482313398e-05
199 2.3965487697423719e-04 -8.9091121765261130e-04 4.0583162962915410e-04
200 3.4205977493829542e-04 -9.0206292239086141e-04 3.0277631759747180e-04
201 3.7065563662900820e-04 -8.3693206996914894e-04 4.2028932508579738e-04
202 1.3429850160015996e-04 -8.5774535613396545e-04 5.0377080315078574e-04
203 4.6973787011091563e-04 -8.3741412262349835e-04 3.1568536245384874e-04
204 -3.1863253257420044e-06 -8.8752152513280438e-04 4.7184528503246961e-04
205 2.6607361182769258e-05 -8.0501138355721659e-04 5.9140176480123729e-04
206 -9.1323398530571858e-04 -4.3570971868606378e-04 7.5785002581588745e-05
207 -8.1336007544182789e-05 -7.6612608272521861e-04 -6.3307729274615740e-04
208 -1.0921321249811788e-04 -8.2702650689489956e-04 5.5357791540634022e-04
209 -7.6583638609900497e-05 -7.3552987059975490e-04 6.6542322944936169e-04
210 4.8850755429030745e-04 -7.6452302595786793e-04 4.3567468722352081e-04
211 5.8445132409744337e-04 -7.5564340878025657e-04 3.2870801056338072e-04
212 -4.9780051103820021e-04 -8.0615715731373870e-04 -3.4826436100082189e-04
213 5.8060989343790529e-05 -7.0438155945854873e-04 6.9746384914373552e-04
214 -4.2726408425294511e-05 -6.2825968026511826e-04 7.6186135934495393e-04
215 -3.2927210517769991e-04 -2.9533407834496275e-04 -8.7385585600190769e-04
216 -2.1242531252750019e-04 -7.4851702684028648e-04 6.2380202425968770e-04
217 -2.4361320869649127e-04 -8.3012829598614604e-04 5.0817047054374411e-04
218 5.6785109087408860e-04 -8.1334881417137982e-04 2.0798157295727918e-04
219 6.7886065298237985e-04 -7.1866611510415545e-04 2.2309124222634369e-04
220 6.4894044172831731e-04 -7.7508131039516980e-04 9.4789977436324170e-05
221 -6.4187848514631691e-04 -6.3302689706890057e-04 -4.4587018459999996e-04
222 7.5246535131279278e-04 -6.7368425509172619e-04 1.0461222720339890e-04
223 7.0619601567018507e-04 -7.2954064364035985e-04 -2.6708794490174264e-05
224 -3.1043192014698693e-04 -1.7855181143623848e-04 -9.0833708382704356e-04
225 -9.6934151142744074e-04 1.0651306243680929e-04 -2.6716457740636189e-04
226 8.8852428734916054e-05 -5.9171569853892346e-04 7.8475390747895191e-04
227 -1.4458846966990431e-05 -5.1116189195893683e-04 8.3904425923764681e-04
228 -5.2044297260040221e-04 -1.8703448670850671e-04 8.1393646033063301e-04
229 -5.9513118957542951e-04 -9.0018180864539943e-05 7.8125732782800448e-04
230 6.8099874952226515e-04 -6.6098092832356237e-04 3.4544552556439609e-04
231 3.9257606442290647e-04 -7.5143593456906868e-04 5.3413020719749187e-04
232 5.1498103174826273e-04 -6.5545159572531417e-04 5.5568928163072628e-04
233 7.9822483452455335e-04 -6.2742033702692151e-04 -2.3298661636061361e-05
234 7.4363643614066752e-04 -6.7285884376958700e-04 -1.5347295323972517e-04
235 -3.9598883530100811e-04 2.5618958592182059e-04 -8.5885829196549453e-04
236 2.9639906273868337e-04 3.3365455583466558e-04 8.7200238197319307e-04
237 -4.3118750666492120e-04 -2.8075496860051764e-04 8.3699436138587682e-04
238 -8.3651698345338539e-04 1.8891722770789083e-04 -5.2000210448703685e-04
239 6.4518763201567490e-04 -7.6663271589790687e-04 -1.5936447436009054e-04
240 6.7943160053453668e-04 -6.9601467021108694e-04 -2.7967640744457040e-04
241 -5.8043420415653153e-04 -4.2858158741714057e-04 6.8291175425736850e-04
242 5.7294389279421445e-04 -7.8396131223251795e-04 -2.8476302601551098e-04
243 5.9961875296818368e-04 -7.0437064252441286e-04 -4.0098377215606152e-04
244 7.0409670106459318e-04 -6.0528947408548697e-04 -3.9355828720315982e-04
245 6.1660747781995865e-04 -6.0525510156112558e-04 -5.1048929267421173e-04
246 -1.9869614899974890e-04 -2.5710855867442625e-04 -9.1987577620546970e-04
247 8.3892964171866343e-04 -5.6234103411295048e-04 1.0318622188786833e-04
248 2.3015999576257113e-04 4.4896364803799916e-04 8.4224011773955396e-04
249 -4.1187402361572565e-04 -1.5864550709962630e-04 8.7423898710073801e-04
250 3.6136315915686349e-04 4.4225277632338244e-04 8.0241703956099493e-04
251 -2.0739345600057481e-04 -3.8414310872324589e-04 -8.7652070662847285e-04
252 -8.3400397940121252e-05 -3.4794438919561913e-04 -9.0880506312235950e-04
253 3.8247640929093565e-04 9.2440891523712474e-04 1.6316830751589431e-04
254 -6.2472713646516366e-04 7.5892454674440606e-04 -2.3938118879182361e-04
255 -7.2115910082582726e-04 6.9542761305758580e-04 -1.5159829218585249e-04
256 -8.0501142310396854e-04 5.8573853187757609e-04 -1.8630666797811920e-04
257 -7.9992194988664394e-04 6.2122370195237856e-04 -5.4016371858927391e-05
258 -3.7686850559243600e-05 4.5026426868327232e-04 8.6913889110435902e-04
259 -3.0744252938165207e-04 -2.4660810659214580e-04 8.9487864082372990e-04
260 -2.8852205884470888e-04 2.2016167329378051e-04 9.0674154554283072e-04
261 -3.6321306216829751e-04 3.1549064902267114e-04 8.5476203645951619e-04
262 -2.9269178589083660e-04 -1.2616470449511644e-04 9.2190592044370031e-04
263 -1.9005395893432824e-04 -2.1725148178741548e-04 9.3109474947789960e-04
264 -8.7684470077107495e-04 5.0299068646980898e-04 -8.1923474475655903e-05
265 -8.5712620548969128e-04 5.3931295886952102e-04 5.8377818290872108e-05
266 -3.3943430627800540e-04 -7.4110627433375878e-04 5.7883391892262956e-04
267 -3.6306089633035836e-04 -8.2068647658484488e-04 4.5368479942055909e-04
268 5.0548400409985061e-04 -6.9744835100545878e-04 -5.1453942966911263e-04
269 5.1403957326923426e-04 -5.9241526556459971e-04 -6.1705973734156193e-04
270 6.2024037336376599e-04 -4.9176780276529027e-04 -6.0854346019526939e-04
271 5.1092841338859897e-04 -4.7616004055259491e-04 -7.0505984834407203e-04
272 3.9956354170564347e-04 -5.6810817462293146e-04 -7.0855177429467663e-04
273 -3.0215213215890635e-04 4.2738430238120899e-04 8.3145209105157892e-04
274 -4.3181015537460010e-04 4.1524925691066215e-04 7.8347905521467171e-04
275 3.9172193619930529e-04 -4.5082282799006028e-04 -7.8536394815161058e-04
276 2.6994911433642023e-04 -5.3217689172803579e-04 -7.8580894752680423e-04
277 -3.2500493376724863e-04 -3.6010227584766259e-04 8.5289815147787521e-04
278 -1.4243145828787907e-04 9.9572498797560749e-04 1.2587523277689407e-04
279 8.2684451731869220e-04 -5.6894042766757137e-04 -1.4605555013722033e-04
280 -2.5622298958794107e-04 4.8931647929780430e-04 -8.1346596588705359e-04
281 -1.6145317800879750e-04 5.9416343149858988e-04 -7.7083696840098235e-04
282 8.8231421602484475e-04 5.0241887741502348e-04 3.0376758095153254e-05
283 1.0983887985612218e-04 -4.7435664470784668e-04 8.5228037697744185e-04
284 -1.0037770303855183e-03 4.9845028803760275e-05 1.3112865167582251e-04
285 -9.2302185146035014e-04 -4.1714271023926542e-04 -6.1553522388525895e-05
286 -8.5884406442712812e-04 -5.4076224556400942e-04 -1.3919693358623818e-05
287 -8.3976094178775992e-04 -5.5423069181674599e-04 1.2725649420222902e-04
288 -7.7945783284459407e-04 -6.4899459006528056e-04 3.5880150751157422e-05
289 -7.5150900326359234e-04 -6.5560985013190176e-04 1.8003449193767869e-04
290 -6.9033165193550892e-04 -7.3792036386827469e-04 9.0064433847983753e-05
291 -2.0105841042855602e-04 -9.7629803845868460e-04 -1.8524980550207117e-04
292 -2.7875070061372884e-04 -8.9447193282365912e-04 3.7378702824468642e-04
293 -3.3788479559602140e-04 -5.4471136171256400e-04 -7.5312573111861378e-04
294 -1.0099208497428635e-04 -4.8388486163027940e-04 -8.4869992811063182e-04
295 -4.9368827273567405e-04 2.9519136134718773e-04 7.9978471277359915e-04
296 -5.5764185806387299e-04 3.9616424402275861e-04 7.1708985307835553e-04
297 -8.7574005061242263e-04 4.6154624800797046e-04 -2.1283034818231125e-04
298 -6.1371895258730761e-04 2.7222901342801155e-04 7.2800364379410306e-04
299 -6.7177047838360110e-04 3.7217084326359004e-04 6.3428682975147236e-04
300 -6.0848428204207466e-04 4.9810418095729936e-04 6.1334031464053106e-04
301 -7.1561137694880214e-04 4.6329266784492630e-04 5.2624072309114835e-04
302 -7.7558157780018998e-04 3.3524737457570221e-04 5.3709797399949298e-04
303 -3.0926678996691408e-04 -6.5490170646069306e-04 6.8043904502788357e-04
304 -6.4065279075390356e-04 5.9075497849537194e-04 4.9718852608089258e-04
305 -8.1859146163491283e-04 4.0928358474517863e-04 4.1897290369545689e-04
306 2.1802984581247738e-04 -5.4645787301602533e-04 7.9150053642142843e-04
307 2.3691161146349349e-04 -4.2800948882510293e-04 8.5099249853953394e-04
308 3.4401276268782569e-04 -4.9663672783081684e-04 7.8059290849919187e-04
309 -4.4296647743295064e-04 -7.3617518883725653e-04 5.1635884702683026e-04
310 -8.6543504176775669e-04 2.8252829875307245e-04 4.2827616310125413e-04
311 -4.0770950046689359e-04 -8.7020006842440417e-04 3.1311449662275764e-04
312 -7.7137731167324132e-04 6.5295331031790837e-04 8.3123695078209084e-05
313 -8.6044160370409115e-04 -5.1489044044074794e-04 -1.5008651853189929e-04
314 -7.1952037859146975e-05 1.1244428596469571e-04 9.6308724603012461e-04
315 -9.0036853143309731e-04 3.4773058167353050e-04 3.0013054428645056e-04
316 -9.9307486865031014e-04 1.8746282443416753e-04 8.3635269673625764e-05
317 -1.0625226502042012e-04 7.7288540459851459e-04 -6.1947811634775079e-04
318 2.6046293725782830e-04 -4.0975661169740334e-04 -8.5288544801139171e-04
319 -7.0250142030294958e-04 -7.3052810524746182e-04 -5.3196829367967814e-05
320 -6.0855092564140512e-04 -8.1186298493010037e-04 8.0646392219417453e-06
321 -6.6406166147132799e-04 -4.1140221132150018e-04 -6.1965791250231819e-04
322 -8.3098081146536535e-05 -2.1076571340735735e-04 -9.4660332282917102e-04
323 5.2778675222793438e-04 -8.6349659929906572e-04 8.0399585671377349e-05
324 -6.2618501039896145e-04 7.8985076178746691e-04 -1.0782978389466415e-04
325 2.8977393049263813e-04 5.5144651718386987e-04 7.6616552831242253e-04
326 2.8340943093200870e-04 -6.4401536106601385e-04 -7.0025691782137013e-04
327 1.4747390617961102e-04 -6.0415099143555271e-04 -7.6777831134356659e-04
328 4.2041232107147675e-04 5.4128567268524558e-04 7.1584704768228665e-04
329 4.9104330247413909e-04 4.3627427378447405e-04 7.3991038119463866e-04
330 4.5494125507280445e-04 4.5394018027081657e-04 -7.5045180984931528e-04
331 4.8766210283766193e-06 9.9711425303291960e-04 1.7905364002508727e-04
332 -2.7061195720022268e-05 1.0128701696868617e-03 4.5834296288262380e-05
333 -1.6241180190786926e-04 1.0010693112199455e-03 -7.2225048386169024e-06
334 1.1973964022080493e-04 1.0030713607391368e-03 8.9562829126561415e-05
335 3.5347589121170807e-04 -3.6951812949358848e-04 8.3892672824143681e-04
336 4.5265692125756330e-04 -4.3355395133076654e-04 7.6374196927646212e-04
337 -8.1605151296617088e-04 1.9993833598997693e-04 5.4369435704314608e-04
338 -3.6697908208184861e-04 5.1865090843727284e-04 7.5652411630433016e-04
339 -1.3030934788136825e-04 4.8386497363401247e-04 -8.4326090829994120e-04
340 3.7615910266859253e-04 -3.2868733714953277e-04 -8.4529298162345286e-04
341 3.6750104744846530e-05 -2.8347761149989691e-04 -9.3187528143841866e-04
342 -9.4284983149648608e-04 3.6269509881251222e-04 -9.9277151732601220e-05
343 9.0044364198269606e-06 -3.8427847061260417e-04 8.9901004724072349e-04
344 -5.3115774220820471e-04 6.1564788297562088e-04 5.8050578675110051e-04
345 -5.5131934946904386e-04 7.0880680435667510e-04 4.5358126529171773e-04
346 -6.6979755894282201e-04 6.5422851888682194e-04 3.7400591468611419e-04
347 6.1819757951989140e-04 -3.6695362958616038e-04 -6.8590863560282986e-04
348 7.2092045532591619e-04 -3.7613308804592348e-04 -5.8192694137812842e-04
349 5.4180761819087289e-04 5.2214081095754465e-04 6.5134976352536724e-04
350 6.1430316085360958e-04 4.0823198296616566e-04 6.6688669044856681e-04
351 6.5997933476954335e-04 4.8830627088911169e-04 5.7093386247414357e-04
352 7.2665166613188981e-04 3.6171099665513299e-04 5.8326182288179836e-04
353 7.6421940257095282e-04 4.3870419889332319e-04 4.8246444721228976e-04
354 -6.5394318057567381e-04 -7.4084944956009761e-04 2.2129104242831854e-04
355 2.7017270703331433e-04 5.7105992666075188e-04 -7.5874790394652087e-04
356 1.3917928176936662e-04 5.8263497545179362e-04 -7.8304698204700537e-04
357 -6.7135622897150421e-04 3.1537123456765106e-04 -6.6141937023883948e-04
358 5.3628041417026209e-04 -8.4441994323929169e-04 -1.6758361725418593e-04
359 4.5971356729512770e-04 -8.5459559278472808e-04 -2.8608321082238409e-04
360 -8.3896804788077632e-04 4.7746337001438352e-04 2.9889701474405798e-04
361 -1.3781133289381904e-04 -5.4228913086050846e-04 8.1023631769737913e-04
362 -2.0888089664866766e-04 3.8154731061127058e-04 -8.7630872024234972e-04
363 -2.3894851353463770e-04 5.2831535743071319e-04 7.9610786787221517e-04
364 -5.2396957741921324e-04 8.4648642896476001e-04 -1.8571280787307609e-04
365 1.6433166351693102e-04 5.5791766874926441e-04 7.9530810270646280e-04
366 -3.8335105788769272e-04 -3.2773388751703930e-05 8.9836033881421503e-04
367 -7.0726110939259225e-04 -6.4949051854978923e-04 3.1449817957977111e-04
368 2.1846062884822403e-04 6.7059293865871512e-04 6.9885621720149982e-04
369 8.9114631331104068e-05 6.4263927189814861e-04 7.4522760769392166e-04
370 7.0742506112410277e-04 -2.4975093178536211e-04 -6.5454719193626311e-04
371 -5.4084376318480230e-04 1.7193643453344560e-04 8.0484762713657707e-04
372 -6.5790636462957261e-04 1.2742953060646483e-04 7.2972355623047904e-04
373 5.7561937135485049e-04 8.3454302516973021e-04 -3.7053566455133924e-05
374 -1.6512837705701436e-04 -8.6655208041527883e-05 9.5480593108563587e-04
375 -7.5128512769444841e-05 -1.7754611347290983e-04 9.5344067732247106e-04
376 -3.1534175393122563e-04 -9.3374662024470602e-04 2.3301128625115438e-04
377 -4.4384320603399507e-04 -8.9709037002988891e-04 1.6597227177045238e-04
378 -9.3764864661160228e-04 1.9515106688889261e-04 3.2245763994745934e-04
379 4.3866543356656614e-04 6.6061331701810263e-04 -6.0602286345536548e-04
380 1.6846373402113249e-04 -7.1234831828565772e-04 -6.7290368632223578e-04
381 2.8650874801833433e-04 -7.4459853189216742e-04 -6.0059689754982440e-04
382 -9.1361309193515379e-04 -3.9075308036974090e-04 -1.9739002135109508e-04
383 -8.4353727354747764e-04 -4.7696444333499867e-04 -2.8818297841327032e-04
384 -7.8457513559756153e-04 -5.8663765966228778e-04 -2.5383717954678209e-04
385 -1.7738798707127938e-04 -9.5093481822564627e-04 2.9453541611077644e-04
386 -6.6264963409115812e-04 5.3012836647229982e-04 -5.3143170819049579e-04
387 -7.6433662866353129e-04 4.7678918433925548e-04 -4.4601743466356105e-04
388 8.8798795464374732e-04 2.5291741293717660e-04 -4.0359485173280723e-04
389 -9.1811950822682652e-04 3.3722164003665336e-04 -2.5735807819009742e-04
390 -5.2425473944539135e-04 8.6693437139383298e-04 -4.6316187513449912e-05
391 -4.1620076533716060e-04 9.1575026038195927e-04 -1.2366818053408257e-04
392 -6.0836452659269536e-04 8.1084505043350875e-04 2.8264533108689029e-05
393 -5.9940591114190597e-04 -8.0762502630568123e-04 -1.3020416480669764e-04
394 -5.0760921063319959e-04 -8.7541320717543329e-04 -7.0648245368110018e-05
395 7.8790232586319815e-05 1.0100253834583693e-03 -4.6689643785983114e-05
396 2.2101736797335418e-04 9.9001033830760973e-04 -8.6748794579148981e-06
397 5.2235726525560599e-04 3.2979384779921055e-04 -7.7024131746311392e-04
398 2.5499612779730362e-04 -3.0213504408143726e-04 8.9433012458858103e-04
399 3.7445954859641569e-04 -2.3247062697007999e-04 8.7530196273068607e-04
400 -2.8319037578921128e-04 6.2161871546052307e-04 7.1705448627705005e-04
401 -1.7116948741213416e-04 6.2438139203459188e-04 7.4605367820872583e-04
402 3.1627118179723067e-04 -6.0714668555989372e-04 7.1704423195956442e-04
403 6.6375796218906590e-04 2.8317947246469193e-04 6.8267973332732600e-04
404 6.8249580703653068e-04 5.8488504417009190e-04 4.5280960178993883e-04
405 -3.2080033766646585e-04 -9.5830652739759090e-04 9.2049155910599087e-05
406 2.5350311924108194e-04 -2.8985352417238428e-04 -8.9824973510180511e-04
407 3.4301800220353033e-04 -2.0468156301957301e-04 -8.9251337333019916e-04
408 9.0764662629380958e-05 4.6511410040960064e-04 -8.5777127724903255e-04
409 -9.0268353757167136e-04 4.3120166747091066e-04 1.6792325776654322e-04
410 -4.7349511719230772e-04 8.1302646021794503e-04 3.6324256471545609e-04
411 5.5352353984803443e-04 4.3830941503636591e-04 -6.9573726384440583e-04
412 4.6477370220013222e-04 6.4130963791548276e-04 6.0797152268112235e-04
413 8.2138099577945144e-04 3.0542092482017654e-04 4.9058043073098041e-04
414 8.5156785156358323e-04 3.7412909157959374e-04 3.8889605463148636e-04
415 5.0501549378785990e-05 -1.7459235774389381e-04 -9.5527388914308747e-04
416 -9.8921801936372789e-04 2.2088687696438853e-04 -4.5507523513563388e-05
417 -9.3889203639522517e-05 3.5298149231614975e-04 -9.0501543988021039e-04
418 -1.4547669710189743e-04 2.5729064798866720e-04 -9.2848310998962734e-04
419 4.3149891788860778e-05 1.7141957521548716e-04 -9.5511733284659567e-04
420 -6.3146236300620382e-05 -8.3861144337087654e-05 -9.6608039466686009e-04
421 -9.5977752454679769e-04 3.2464708875746141e-04 5.5031166347816065e-05
422 8.0160219406674965e-04 -2.5319792352741945e-04 -5.4491647967646283e-04
423 8.0662867468821284e-04 -3.7583477052217245e-04 -4.6813661983204980e-04
424 2.5764218872866441e-04 9.7330742658793812e-04 1.2089535535458555e-04
425 3.0117029988820434e-05 -6.7905918647362883e-04 -7.2211665087137304e-04
426 2.2522071016568666e-05 -5.4850397079859341e-04 -8.1708739791201083e-04
427 -7.9829324786174542e-05 -5.9799749422201397e-04 -7.8040160243838977e-04
428 4.1984953787698533e-04 -9.0669076834966453e-04 -1.7159110726215631e-04
429 3.2849421176664364e-04 -9.1620997188149192e-04 -2.7634428029484233e-04
430 3.6287279303511650e-04 -8.5550239510149640e-04 -3.9159069224530083e-04
431 -6.0528547077569014e-04 -7.3306140667122905e-04 3.3954956888998679e-04
432 -6.4254099372749605e-04 -6.3214743674210581e-04 4.4731747111541656e-04
433 1.4120419535926701e-04 -3.5252597907448454e-04 -9.0066547428138016e-04
434 -9.4159221261463647e-06 5.6791872866341568e-04 -8.0472317402647945e-04
435 7.9895844496135531e-05 6.7755002114256216e-04 -7.1824087170253490e-04
436 8.9759755962491258e-04 2.5755842536890499e-04 3.8091945452099058e-04
437 9.1785399702430301e-04 3.3236050678280737e-04 2.6589527504304681e-04
438 8.6493057275070448e-04 4.4120190866932929e-04 2.8175037271716246e-04
439 7.6424500773073303e-04 2.2886815478635484e-04 6.0078916893426600e-04
440 -5.9195780417921557e-04 7.5822758470813357e-04 3.0905196759541484e-04
441 -7.0285399355789863e-04 6.9419661495020437e-04 2.2414854994682511e-04
442 6.8187001862039613e-04 -1.2471084962447200e-04 7.0965714554017121e-04
443 7.2199236893614386e-04 -2.4462607453238256e-04 6.4180985480330856e-04
444 8.1700071285924626e-04 -2.4665888534926202e-04 5.2653139724682778e-04
445 7.5099867939396048e-04 -3.5790333660948130e-04 5.5684835776460763e-04
446 8.3212485385144349e-04 -3.6095841482433345e-04 4.3693326531373184e-04
447 7.5513231203222508e-04 -4.7041292171161016e-04 4.6820866066587668e-04
448 6.6950984029858374e-04 -4.6396865456313290e-04 5.7953272413860174e-04
449 8.2194197429943136e-04 -4.8053748310889876e-04 3.3818568878675291e-04
450 8.9327309140766647e-04 -3.6007455461318691e-04 3.0811504272647072e-04
451 6.5732218373637540e-04 -5.8562895361303905e-04 4.8510806795171928e-04
452 6.8722121501219187e-04 1.3225822040242527e-04 7.0430094760042655e-04
453 -5.7822542584777059e-04 -8.2123002318658313e-04 1.3899625045915901e-04
454 2.3217424135318892e-05 -4.1934658980148773e-04 -8.8425928696688166e-04
455 9.1633588954774406e-04 4.0745009671047097e-04 1.4949210899492692e-04
456 4.7393047057525510e-04 -2.2576111980527017e-04 -8.3110442082063229e-04
457 5.1285078264287577e-04 5.3897567223482349e-04 -6.5939428065215527e-04
458 6.0157278222880103e-04 -2.4099281204665489e-04 7.4825633785970754e-04
459 1.4884189586345846e-04 9.7770621118129929e-04 2.1713934511385935e-04
460 6.4973856606299093e-04 6.9458521640312085e-04 3.3909666740702124e-04
461 3.9658137543585674e-04 5.5728546442656950e-04 -7.1626518996587203e-04
462 -4.3266431161202940e-04 7.0692177691971173e-04 5.5943130084834861e-04
463 7.7144148332062646e-04 -1.2944358897095176e-04 -6.1922874706301040e-04
464 8.7814507094007628e-04 -2.5133465145563496e-04 -4.2434130474634373e-04
465 8.7773357503569843e-04 -3.6697676972687190e-04 -3.3966747874881580e-04
466 8.7221891567244183e-06 8.3102742401837046e-04 -5.5595434678164777e-04
467 9.3779562878540574e-04 -2.4223981627408407e-04 -2.9102926045625384e-04
468 9.2981264882832063e-04 -3.5447665052567060e-04 -1.9490684723408956e-04
469 1.6410732920481332e-04 3.6526725915309564e-04 -8.9144227699116719e-04
470 8.6993955994790122e-04 -4.7557755726317910e-04 2.1067263722972436e-04
471 9.3471284699206728e-04 -3.4933816734804914e-04 1.7908463718916637e-04
472 1.9376083050777948e-04 7.8003227602048029e-04 5.9275728279212486e-04
473 1.5011177731191432e-04 -2.2343307594437241e-04 -9.3635851130012950e-04
474 2.2986157422611353e-04 -9.0692490665698314e-04 -3.7780483709779210e-04
475 5.8492787881402010e-04 7.7828244923275509e-04 -2.7275487353526073e-04
476 3.2669319632097784e-04 7.1894503379642965e-04 6.0952821627462432e-04
477 3.0243200633044690e-04 7.3879616147308068e-04 -5.9860707686233857e-04
478 -1.9471734512632239e-04 -5.7082096124003450e-04 -7.8028243997511546e-04
479 -1.7636432557044032e-04 -6.7218718646073409e-04 -7.0761108054153549e-04
480 -3.9313788529535585e-04 8.3632646506437457e-04 -3.9960991366857731e-04
481 2.1032771481672277e-04 6.7460535825043279e-04 -6.9601002945308878e-04
482 7.8036612257255356e-04 -6.0183470802908131e-04 2.3847737305194316e-04
483 9.1022381235079009e-04 -4.4196601928504575e-04 7.9651093104549339e-05
484 9.5961433287582349e-04 -3.2569696754308931e-04 5.3195139048831675e-05
485 5.9752122235975295e-04 -2.4091166925309669e-04 -7.5055244144590634e-04
486 3.8977151496148656e-04 1.7708726338092396e-04 -8.7976947551191551e-04
487 1.0053922165024422e-03 1.2183371992459521e-04 -6.8915802598811386e-05
488 9.7248906578394621e-04 2.6628043486528395e-04 -1.1949118795802038e-04
489 9.8857928351520357e-04 2.2727573244884388e-04 4.6049602981379229e-06
490 9.1881963289901767e-04 4.1965756272917097e-04 -9.6121183077294410e-05
491 3.5869000694017331e-04 9.4898680248622447e-04 1.7698202861027631e-05
492 3.1023132345669692e-04 9.5748837903568689e-04 -1.2603736414523630e-04
493 4.5016811045028561e-04 9.0583660321893274e-04 -7.3056479809814127e-05
494 9.3221806728855934e-04 -3.9795164468901676e-04 -5.0652530507461361e-05
495 9.7460119412637000e-04 -2.7275663821942731e-04 -7.3372033315805045e-05
496 -4.1030205751491208e-04 9.2742125021484287e-04 1.6380742649169001e-05
497 1.0051792687967034e-03 1.2137754695532676e-04 7.1475174655336921e-05
498 6.9624216145084945e-04 6.8834734583725972e-04 -2.5524823175646463e-04
499 1.0053724276177260e-03 -1.2192578817210021e-04 -7.6136408700571220e-05
500 9.8606792914807248e-04 -1.0775471347565001e-04 2.0717735676581853e-04
501 9.3079706397815863e-04 -1.2465150799816384e-04 -3.6918449494399637e-04
502 8.6943815463482062e-04 1.2162130507738839e-04 -4.8771387834652856e-04
503 8.7449422118021484e-04 -1.2239659562605318e-04 4.7972951775098550e-04
504 4.2840155061863225e-04 1.1083099287712349e-04 8.7402562984657448e-04
505 4.2886867351495523e-04 3.3954410450598660e-04 8.1768931788170015e-04
506 6.5372653158253914e-04 -3.5202897938674520e-04 6.6210809131674595e-04
507 3.3205054670896778e-04 -1.0057294584135936e-04 9.1259387392533884e-04
508 6.3073020030510993e-05 -1.3096840500422422e-04 9.6177908884417308e-04
509 1.7400066941066305e-04 -2.1952642857852336e-04 9.3337320349797556e-04
510 2.8270513695781196e-04 -1.8267986305090555e-04 9.1544674364025765e-04
511 -1.9970235637399534e-04 6.9198667495519537e-04 -6.8279203649165138e-04
512 2.7460909179944119e-04 9.3658725251172118e-04 2.6604524216463206e-04
513 5.9675045926166109e-04 -8.2091502301401232e-04 -3.7728095650469840e-05
514 2.5691377403101029e-04 -9.8125616925695872e-04 4.2660116921089477e-05
515 3.0529745644432206e-04 -9.5092659491432825e-04 1.7503145695939545e-04
516 -5.5063104883147857e-04 5.5904702554070151e-04 -6.1466165101728225e-04
517 7.7511063189503247e-04 -5.9101684911593033e-04 -2.7254253976490749e-04
518 -1.4347248406562513e-04 -1.0027394816269821e-03 -6.2601159795201816e-05
519 -2.9186909457774504e-04 -9.7080761160518454e-04 -6.1360569551027389e-05
520 -3.3560191640254102e-04 -9.3469739918747242e-04 -2.0199086815875814e-04
521 -7.9274770343806540e-04 5.3867220137054125e-04 -3.1779825458805013e-04
522 -1.0004574986058772e-03 9.6094214955087562e-05 -1.3221996073518064e-04
523 8.0140850570002144e-04 6.1136652613083466e-04 1.1155032042701049e-04
524 -8.0078337957329760e-04 -5.5745554631249827e-04 2.6720944893385859e-04
525 7.9106039621667330e-04 4.9717357157916459e-04 3.7894118918700898e-04
526 4.8502613477866967e-04 -7.8741371529380774e-04 -4.0126358922631976e-04
527 -9.6570169418431476e-04 -2.8710929142494989e-04 -1.1657964414134692e-04
528 -9.4974981760256763e-04 -8.1643390469157568e-05 3.3324060972587965e-04
529 -9.2380177643123455e-04 4.6825954848578595e-05 3.9935273268119681e-04
530 -8.4633028917119216e-04 4.5486471349750569e-05 5.3482310151612301e-04
531 -7.8798528886156482e-04 -6.2925112122670917e-04 -1.1090227044760285e-04
532 -9.9143061831994772e-04 -7.6249914719960958e-05 1.9346867950125135e-04
533 -7.4749384680786331e-04 5.3237198521833618e-04 4.1355737813593489e-04
534 -7.0830874170025270e-04 7.2530222926154935e-04 -2.3062637751967190e-05
535 -2.4576167353921799e-04 -9.2879396282117123e-04 -3.1477271618982576e-04
536 6.4899088254630568e-04 7.6519728290120898e-04 -1.4435154756041240e-04
537 -1.4235452177651682e-04 -8.9972737838424702e-04 4.2874983963418534e-04
538 -4.7480316856551196e-05 1.0083459003313970e-03 -9.1861954000945753e-05
539 -1.7692128092956186e-04 9.5455943561022682e-04 -2.7928805440096175e-04
540 6.2189739335192051e-05 9.9039252898209065e-04 -2.0327334497116631e-04
541 -9.5534077658804848e-04 2.8124863877686062e-04 1.8630587626180530e-04
542 -8.8298434098440842e-04 -4.4621794828788479e-04 2.1700331085626869e-04
543 -8.0601628643767079e-04 -8.9491891173724538e-05 5.8376594261413007e-04
544 -7.4856026393993686e-04 2.1976382107554529e-05 6.5491464659003036e-04
545 -6.6078890302613276e-04 -5.2852689123601584e-04 -5.3620857418720542e-04
546 -7.4702334182754878e-04 -4.3706981854010879e-04 -5.0661283798811903e-04
547 -7.5218272769739247e-04 -3.1624160405439920e-04 -5.7704526098472156e-04
548 -6.5792506179801187e-04 -2.8327367092150082e-04 -6.8759564754916744e-04
549 2.6807332664734456e-04 -8.1262329493810915e-04 5.2280140100069731e-04
550 5.8271788472539154e-04 5.9089126220781153e-04 5.5766801843740751e-04
551 8.8134507569679710e-04 3.7229661337626763e-04 -3.2373882766743753e-04
552 8.9271629657696925e-04 -2.4182533337030449e-04 4.0116909780980246e-04
553 1.5979497345628186e-04 -7.6835121390184059e-04 6.1627992120719360e-04
554 -4.4683880262418095e-04 -6.3535591968647063e-04 6.2596246045329049e-04
555 -3.8793167251895339e-04 -5.4596668063834728e-04 7.2931707022019007e-04
556 -8.3494690821143502e-04 -4.4243850645975496e-04 3.5450871333103927e-04
557 -6.1377457987128986e-04 -7.2455153401975749e-04 -3.4246226324051389e-04
558 -7.1845344341928347e-04 2.4474569196633855e-04 6.4406687539245817e-04
559 -6.8340938665762329e-04 -4.2608787011191830e-04 5.9067929839589522e-04
560 -5.9080625800799012e-04 -5.5572715437664005e-04 5.8477028279907417e-04
561 6.4219712796186252e-04 4.8579303261941893e-04 -5.9161249868783857e-04
562 -3.2419553852020190e-04 -6.7283801220967190e-04 -6.5811749289205730e-04
563 -4.9218108852418316e-04 5.1498537382818632e-04 6.9112380238163810e-04
564 7.1626497169243711e-04 -4.9719028054476667e-04 -4.9805897943640937e-04
565 -7.9402796263267260e-05 -3.0236678196412489e-04 9.2401597092808341e-04
566 -1.1193589216481173e-04 -4.2852587889667481e-04 8.7382962072506500e-04
567 -2.0232686868646373e-04 -3.3779963940796707e-04 8.9508218639321104e-04
568 -1.7538051924047794e-04 -6.5350130577146394e-04 7.2393470900328682e-04
569 4.0053292052080546e-04 -6.7566519463642502e-04 -6.1565046448446503e-04
570 -7.0751970587984284e-04 -1.0395724628178820e-04 6.8850310898870113e-04
571 5.4952809121450218e-04 3.2207430220079894e-04 7.5554718787682333e-04
572 5.0419151293923132e-04 -3.5113805367973012e-04 -7.7310957128363781e-04
573 1.2630728433295988e-04 -3.5056194943508399e-04 9.0335897554209258e-04
574 -7.3799812905976311e-04 1.9275351273756211e-04 -6.3964430694634419e-04
575 1.3724663700246460e-04 -4.8214771323436262e-04 -8.4464027904484161e-04
576 -4.4888579799916072e-04 -4.1237333244779841e-04 7.7705036918490329e-04
577 -3.3437276872480684e-04 3.7130506004821184e-04 -8.4414198558596242e-04
578 -2.6639506908037250e-04 2.7202641145700760e-04 -8.9922875038681808e-04
579 -3.3078494657199162e-04 1.5765760312645772e-04 -9.0470952996087506e-04
580 -4.9948431181067680e-04 7.4224045180055472e-06 -8.4469612365740000e-04
581 4.5450308509442893e-04 -5.5638246632304714e-04 6.8713007969989815e-04
582 4.7014115979393539e-04 -3.0969863344228985e-04 8.0788518016802551e-04
583 -4.5558131186105823e-04 1.3659532876235115e-04 -8.5702270495434645e-04
584 -4.1746815416620817e-04 1.9495788761858600e-04 8.6509118262032632e-04
585 -4.5510432039556149e-04 7.7540654935857249e-05 8.6454982421125647e-04
586 -3.4555486306384151e-04 -4.1403870637196221e-04 -8.2243868483313322e-04
587 3.3413699865491007e-05 9.6164044435940131e-04 3.0784245238590701e-04
588 -4.1146076852480439e-04 -9.3898753459286337e-05 -8.8277260537926634e-04
589 -2.8249375128845818e-04 -5.6041068869816989e-05 -9.3077105796200363e-04
590 -1.9163190965125042e-04 -1.1392407425954250e-04 -9.4736083961013831e-04
591 -1.7101940665300124e-04 4.3886657045798770e-04 8.5967723360759441e-04
592 -5.1456031439810028e-04 8.0650640136809687e-04 -3.2239727191405544e-04
593 -2.6126037159575387e-04 -6.5356534332712249e-06 9.3807465993390972e-04
594 3.5829506867985153e-04 2.2664131189539764e-04 8.8227766414448582e-04
595 -8.1544025506996348e-04 5.7095985007006209e-04 1.8794656747882387e-04
596 4.4021697610315154e-04 -8.9227824436577039e-04 1.9395000378575098e-04
597 9.4047945540714399e-05 4.5393707536213528e-04 8.6354027312033536e-04
598 3.3528291517815299e-04 9.1389996346526788e-04 -2.7238192952662438e-04
599 1.8894823372866593e-04 -6.6107263877936194e-04 7.1462970020423156e-04
600 -5.3398625661795645e-04 -8.1997159026112824e-04 2.5799774148997759e-04
601 -8.5155097552904791e-04 4.1173615391170093e-04 -3.5066522441608560e-04
602 -8.1695554519569291e-04 3.4106054392935226e-04 -4.7368128742832056e-04
603 -7.4793238210040078e-04 -5.4179228241989675e-04 -4.0413874193659025e-04
604 -9.1301569538417373e-04 1.3154723867802332e-04 -4.0394015514284772e-04
605 -4.0999592298005542e-04 -9.2810074054547765e-04 1.9747578017013836e-05
606 -3.3470133621440096e-04 8.5534895739183998e-04 4.1199148131510475e-04
607 4.1174449521457088e-05 1.5725632837784124e-04 9.5799928728266550e-04
608 -4.9678710171594262e-05 7.7713422392079289e-04 6.2226208564829027e-04
609 -7.4317216585511779e-04 -1.7820463900899446e-04 -6.3846953615007986e-04
610 9.7173333719454400e-04 2.5996616059730692e-04 1.3533940774836648e-04
611 4.2015367359259206e-04 -9.0777577686030483e-05 -8.7971272649277387e-04
612 9.3767957802930364e-04 1.2771425938391129e-04 3.5170074613067611e-04
613 -3.7708356781551749e-04 -8.7748116250962321e-04 -3.2997663206774596e-04
614 5.8437927288801296e-05 -7.8950402965902622e-04 -6.0836696163544081e-04
615 4.7635704718321155e-04 -8.9520876764598669e-04 -4.9602344968594140e-05
616 -6.9516391028846803e-04 -7.0890621571144212e-04 -2.0463340671202413e-04
617 -9.4462427559650973e-04 -2.5763984961840855e-04 -2.5499775949430894e-04
618 -6.1802871454594418e-04 4.4099422214064523e-04 -6.4314531899017718e-04
619 1.8589461919228358e-04 -9.6703479644459547e-04 -2.3968351428415257e-04
620 -3.4862297188749080e-05 -9.4927499683880720e-04 3.4285793185851653e-04
621 3.8692279495685451e-04 -7.7416133811427821e-04 -5.0805398641062067e-04
622 -2.2922876700841088e-04 -4.5074035770866747e-04 8.4177009338599342e-04
623 7.9655433050892415e-04 -4.8910917403921202e-04 -3.7970157006085657e-04
624 9.3794466444469546e-04 1.2296875294496266e-04 -3.5279693976456082e-04
625 -4.1180633933754051e-04 6.1383661885034237e-04 6.6434328752101228e-04
626 -2.5916053247466980e-04 -5.6083137476773065e-04 7.7018813633272060e-04
627 -1.0942193446894391e-04 5.4631715864908198e-04 8.1095885193908023e-04
628 4.8528581145642317e-04 8.8860047941475325e-04 6.3896020805169490e-05
629 -9.7215833308061331e-04 4.6403828669068412e-05 2.7402417163324694e-04
630 -5.9670567171151139e-04 8.0099862618775760e-04 1.6916217705126616e-04
631 -8.3010249108391289e-04 -1.9593487932747079e-04 -5.2577954258204189e-04
632 -4.0916968512376992e-04 8.8509314126612964e-04 -2.6668308526985892e-04
633 9.4303720207191473e-04 2.4635855567943971e-04 -2.7136862623217643e-04
634 -3.3137605729129761e-04 9.4945231437829452e-05 9.1322018839806534e-04
635 3.9545735171639032e-04 -9.3261245938248201e-04 6.6453221093056090e-05
636 -6.3240041439049604e-05 -9.8982618099506189e-04 2.0702295759418302e-04
637 -4.9130301218918381e-04 -5.7003036387776692e-05 8.4758506100506036e-04
638 4.2556276782806598e-04 2.6940439980552207e-04 -8.4141423213035852e-04
639 4.4149564577988245e-04 -1.0222649334944405e-04 8.6887769814264449e-04
640 -6.3311214176180349e-05 6.7542968828096820e-04 -7.2100710793017453e-04
641 -9.7032118005772753e-04 2.3037198004815300e-04 -1.7751322552186303e-04
642 -8.8500421889014494e-04 2.7375331752237401e-04 -3.9553049089524617e-04
643 2.8465361966603550e-04 -7.1747567199264368e-04 6.3063808081987335e-04
644 5.6369466264375606e-04 -4.5382973490416849e-04 6.8067050421332612e-04
645 6.2208175855115778e-04 2.1722314270639916e-04 -7.3802443118201251e-04
646 -2.1331224471320048e-04 1.2143027556277925e-04 9.4211523170873303e-04
647 2.3960832576268478e-05 5.5736016948445633e-04 8.1053443477501483e-04
648 -7.6212628360254218e-04 5.8581383966725535e-04 3.0743459633595982e-04
649 -2.8126755593175785e-04 9.7172704570158122e-04 7.0942166427519213e-05
650 9.4696121939489522e-04 -2.3478695627429495e-04 2.6909387356788641e-04
651 -4.7416933178747367e-04 -8.6936003097054493e-04 -2.1616468298095876e-04
652 -8.8605753032181597e-04 -3.4943719988730692e-04 -3.3443151837673845e-04
653 -2.0454392370399872e-04 1.6528232994673995e-04 -9.3735485314739013e-04
654 8.5767125301326687e-04 -4.7539190606106507e-04 -2.5138023034486172e-04
655 -7.1991854881927567e-04 4.0961199554227220e-04 -5.5967146973962185e-04
656 6.6653636134841486e-04 -1.2429446767539993e-04 -7.2281756176212559e-04
657 -7.5016049219846107e-04 -5.4266979262747165e-04 3.9753456326211290e-04
658 -3.7864607623921915e-04 2.9743656310144435e-05 -8.9983566746373238e-04
659 -1.6935597971629918e-04 2.6830880453356387e-05 -9.5737693377388408e-04
660 -2.9838719309138519e-05 -1.8284281436104446e-05 -9.7003861718691377e-04
661 8.7336753410023973e-04 -5.1703063778870068e-04 -2.1037805585299303e-05
662 4.3155650809097425e-05 -2.5216348673385544e-04 9.3992429109664177e-04
663 5.3459742658512686e-04 8.4408409194279381e-04 -1.6671795179314626e-04
664 -2.9596321898577331e-04 9.6757703127123707e-04 -6.5044995645693464e-05
665 -3.0001462078018754e-04 9.4373163247151695e-04 -2.0859064278841850e-04
666 -7.4654590076753458e-05 1.2963822877377353e-04 -9.6075889998738901e-04
667 2.6081043686753942e-04 -8.3599920943644283e-04 -4.9151419783322004e-04
668 -5.6366417207426105e-04 4.2529937775131839e-05 8.0601416784921930e-04
669 -8.2968382467052426e-04 -3.2439557088822883e-04 -4.6440570305701027e-04
670 -5.0523329797386282e-04 8.7418212502563951e-04 9.3152255343981140e-05
671 -9.7976712635692914e-04 1.5241010186948440e-04 2.0092859340329076e-04
672 5.5018779253756796e-04 -3.6251360039262647e-04 7.3756648997345975e-04
673 -2.2642145282224054e-05 2.4651770626571141e-04 -9.4109469768338281e-04
674 -1.9984555313608452e-04 -9.8011619487640284e-04 1.6451379126352375e-04
675 4.2290494378359071e-04 7.3557266985757228e-04 5.3087787611197357e-04
676 7.4030677428749944e-05 7.3180640624240093e-04 6.6873096556261758e-04
677 4.8570347762958793e-04 2.1556748744724054e-04 8.2702181123754822e-04
678 -4.8270126049359792e-04 -7.9657284939133283e-04 3.8520323767808211e-04
679 2.6595603818613494e-04 -7.4171621853822334e-05 -9.3462416324699047e-04
680 3.9560961036657158e-04 -6.6083545945236962e-04 6.3134991294454311e-04
681 -8.8455155481297510e-04 1.5228818299660278e-04 4.5069112632825886e-04
682 -9.1677433387082072e-04 4.3189522456813569e-04 2.5973306344181678e-05
683 -7.3961995853127031e-05 1.9409265292909660e-05 9.6760977776967139e-04
684 3.4654786413202071e-04 -9.5239630135391154e-04 -5.4896696669744331e-05
685 4.2277875672861169e-04 9.0079269785065333e-04 -1.8337915567018893e-04
686 1.7730062789393926e-04 -7.9689611776069535e-04 -5.7605026155567419e-04
687 1.7554816336711135e-04 9.8908967620847297e-04 -1.2826872684789745e-04
688 -8.1507347502143325e-04 -4.3147053475684426e-04 -4.0269146738307056e-04
689 -5.3819514123929445e-04 -6.5861274854114177e-04 5.2785180217049667e-04
690 5.9208833628873975e-04 -6.8762743143053627e-04 4.3356358457426983e-04
691 9.7954486777845407e-04 -2.2176487017693455e-04 1.4061611903113842e-04
692 -6.9330406974944976e-04 -5.1786805702825115e-04 5.0557377033184545e-04
693 9.4961125462292544e-04 2.2124434046640122e-04 2.6701117760387670e-04
694 -1.8293200584448409e-04 9.8633220207230152e-04 -1.4008352397438360e-04
695 9.2445879300035642e-04 3.5647890996009504e-04 -2.0669972844925748e-04
696 -5.2747516958175610e-05 6.6383316856852075e-04 7.3314492526778451e-04
697 -3.3214951970947837e-04 -4.6780833662551149e-04 7.9990855513951433e-04
698 9.5054341713548206e-04 3.5642920560169367e-04 1.4306288859317171e-05
699 -4.9421686610671609e-04 -5.1935001587873498e-04 6.8619277776927007e-04
700 -6.5628707765411130e-04 -3.2100421584423752e-06 7.3914809901710909e-04
701 5.7401022353398951e-04 -5.5144246922556365e-04 6.0148623597680324e-04
702 -7.0375958471596150e-04 -6.4252821105626173e-04 -3.3156553481581986e-04
703 -7.6346309330365444e-04 2.9432602364594683e-04 -5.7190437700569839e-04
704 4.2386786093617721e-05 3.4338262433888472e-04 -9.1200934964969643e-04
705 3.2733500074124473e-04 6.4694745641384870e-04 -6.7720915666482577e-04
706 -3.1642146925430024e-04 6.9910452988804553e-04 6.3327598528810304e-04
707 1.1205414029256020e-04 -9.3802237491473050e-04 -3.5429881954544145e-04
708 -6.7974502880802621e-04 7.4463432850468676e-04 9.7356299095724459e-05
709 1.9349776027892334e-05 7.4676041962379661e-04 -6.5495751522326950e-04
710 -4.2494679399068824e-04 7.7622646060685862e-04 4.7293876574610244e-04
711 -9.3682785524736056e-04 2.1561303926818617e-04 -3.0672806722763371e-04
712 7.8411664453996422e-04 1.0325530599002372e-04 6.0759557683542735e-04
713 -2.1512785924472351e-04 -7.4345631445274377e-04 -6.2701615712523349e-04
714 6.3368226794520411e-04 3.5217181233796109e-04 -6.7911517680662023e-04
715 -2.0989383997347286e-04 -9.9109442895965456e-04 4.3786850462953707e-05
716 -2.5888260473922126e-04 6.6051113396020325e-05 -9.3563071978101724e-04
717 -4.0879878589470542e-04 -9.2147930003516978e-04 -1.0601290462488523e-04
718 4.8779459572008426e-04 -2.0146041382033671e-04 8.2861766809091096e-04
719 7.4478743781590073e-04 -5.6821963848328069e-04 3.7296968922533475e-04
720 8.5447594050037652e-04 5.1401320219945771e-04 1.7576459268309482e-04
721 2.2002982388668059e-04 -1.7459028165784518e-04 -9.3257557523763405e-04
722 -5.8157417464497606e-04 -7.8842929577702624e-04 -2.5029703685098740e-04
723 4.1409330786334504e-05 5.6991712352405094e-05 -9.6834884352352930e-04
724 -1.8425975608121468e-04 7.2418530218877066e-04 6.5721041282996149e-04
725 8.8971427966720834e-04 -4.6753479875052023e-04 -1.3024386522494504e-04
726 5.9153236780040187e-04 2.0862400813439293e-04 7.6215323538833860e-04
727 8.0482948895505002e-04 5.6131619783660383e-04 2.4681253132663699e-04
728 5.5927329583963230e-04 5.9661855995677023e-04 -5.7288232516068075e-04
729 4.7667686724302060e-04 9.2419400596684714e-05 -8.5139914658168079e-04
730 7.4343830602237781e-04 6.0487655777937788e-04 3.1654110533968006e-04
731 -2.5648515281337652e-04 -6.2027873140620311e-04 -7.2595380021166233e-04
732 3.4610771057375946e-04 6.3369063795883215e-04 6.8101530182185330e-04
733 -7.4567321735984757e-05 9.8693451489057643e-04 -2.0629377920647137e-04
734 -2.3136379572921456e-04 -4.8482232591585115e-04 -8.2277636433980008e-04
735 9.7387074632981061e-04 -2.2212321367954467e-04 -1.6870647169492985e-04
736 9.9114680207696934e-04 -2.1325437135995078e-04 2.5964919798839034e-05
737 -3.6810269621830350e-05 -5.5745694665620941e-05 9.6828509726775715e-04
738 -5.0820493083923301e-04 -8.7571308208734167e-04 5.1526754986046352e-05
739 5.0817577073453309e-04 1.9823516158087455e-04 -8.1800685354983750e-04
740 -7.6353144471919736e-04 1.2335808786688766e-04 6.2708180146936433e-04
741 -1.6139906647264255e-04 3.3270337947743843e-05 9.5724793944379288e-04
742 -5.4215086687387350e-04 -7.2256397973382539e-04 4.3998050951558893e-04
743 -2.5432445434125057e-05 4.3543963170990566e-04 -8.7501647875865235e-04
744 2.9975102240156233e-04 -9.5411505988859545e-04 -1.6193187501920955e-04
745 -8.5852434024447991e-05 -6.7543540802645664e-04 -7.1791396488957843e-04
$EndNodes
$Elements
1486
1 2 2 0 0 410 440 345
2 2 2 0 0 421 541 409
3 2 2 0 0 409 682 421
4 2 2 0 0 545 603 546
5 2 2 0 0 426 427 294
6 2 2 0 0 294 454 426
7 2 2 0 0 265 682 409
8 2 2 0 0 24 41 4
9 2 2 0 0 3 24 4
10 2 2 0 0 238 642 602
11 2 2 0 0 520 651 613
12 2 2 0 0 653 666 659
13 2 2 0 0 404 460 98
14 2 2 0 0 222 482 219
15 2 2 0 0 40 463 9
16 2 2 0 0 608 724 696
17 2 2 0 0 435 709 69
18 2 2 0 0 413 439 29
19 2 2 0 0 345 710 410
20 2 2 0 0 422 463 40
21 2 2 0 0 98 550 404
22 2 2 0 0 95 724 608
23 2 2 0 0 4 41 5
24 2 2 0 0 232 701 581
25 2 2 0 0 490 698 488
26 2 2 0 0 29 436 413
27 2 2 0 0 416 421 342
28 2 2 0 0 312 595 441
29 2 2 0 0 41 486 5
30 2 2 0 0 405 605 519
31 2 2 0 0 409 595 265
32 2 2 0 0 69 481 435
33 2 2 0 0 434 743 339
34 2 2 0 0 342 641 416
35 2 2 0 0 485 656 370
36 2 2 0 0 89 587 90
37 2 2 0 0 108 466 317
38 2 2 0 0 378 629 529
39 2 2 0 0 581 680 232
40 2 2 0 0 281 434 339
41 2 2 0 0 638 739 486
42 2 2 0 0 659 666 660
43 2 2 0 0 345 440 346
44 2 2 0 0 22 44 25
45 2 2 0 0 9 463 8
46 2 2 0 0 44 81 25
47 2 2 0 0 459 587 89
48 2 2 0 0 127 670 630
49 2 2 0 0 508 662 509
50 2 2 0 0 375 662 508
51 2 2 0 0 492 598 103
52 2 2 0 0 604 642 238
53 2 2 0 0 507 510 399
54 2 2 0 0 488 698 489
55 2 2 0 0 34 473 415
56 2 2 0 0 399 639 507
57 2 2 0 0 603 688 546
58 2 2 0 0 316 541 421
59 2 2 0 0 647 696 627
60 2 2 0 0 403 439 352
61 2 2 0 0 221 603 545
62 2 2 0 0 595 648 441
63 2 2 0 0 412 550 98
64 2 2 0 0 411 714 397
65 2 2 0 0 486 739 729
66 2 2 0 0 696 724 401
67 2 2 0 0 247 482 222
68 2 2 0 0 397 714 645
69 2 2 0 0 613 651 212
70 2 2 0 0 207 745 425
71 2 2 0 0 98 675 412
72 2 2 0 0 219 482 230
73 2 2 0 0 560 692 432
74 2 2 0 0 432 689 560
75 2 2 0 0 454 575 426
76 2 2 0 0 352 439 413
77 2 2 0 0 415 420 2
78 2 2 0 0 40 464 422
79 2 2 0 0 89 512 459
80 2 2 0 0 425 614 207
81 2 2 0 0 377 600 453
82 2 2 0 0 89 90 88
83 2 2 0 0 80 466 108
84 2 2 0 0 520 717 651
85 2 2 0 0 602 703 238
86 2 2 0 0 103 687 492
87 2 2 0 0 253 491 424
88 2 2 0 0 69 709 466
89 2 2 0 0 424 512 253
90 2 2 0 0 369 696 647
91 2 2 0 0 581 701 644
92 2 2 0 0 630 670 392
93 2 2 0 0 32 656 485
94 2 2 0 0 459 512 424
95 2 2 0 0 90 91 88
96 2 2 0 0 427 478 294
97 2 2 0 0 488 695 490
98 2 2 0 0 554 699 560
99 2 2 0 0 67 80 79
100 2 2 0 0 252 454 294
101 2 2 0 0 253 628 491
102 2 2 0 0 529 681 378
103 2 2 0 0 519 715 405
104 2 2 0 0 440 441 346
105 2 2 0 0 605 717 519
106 2 2 0 0 403 452 439
107 2 2 0 0 507 639 21
108 2 2 0 0 565 567 566
109 2 2 0 0 433 454 341
110 2 2 0 0 67 466 80
111 2 2 0 0 555 697 576
112 2 2 0 0 491 628 493
113 2 2 0 0 389 641 342
114 2 2 0 0 429 619 474
115 2 2 0 0 40 501 464
116 2 2 0 0 576 699 555
117 2 2 0 0 311 600 377
118 2 2 0 0 567 622 566
119 2 2 0 0 433 575 454
120 2 2 0 0 378 671 629
121 2 2 0 0 79 540 103
122 2 2 0 0 341 473 433
123 2 2 0 0 673 704 68
124 2 2 0 0 462 710 345
125 2 2 0 0 557 722 616
126 2 2 0 0 573 662 343
127 2 2 0 0 370 656 463
128 2 2 0 0 341 454 252
129 2 2 0 0 616 702 557
130 2 2 0 0 6 26 7
131 2 2 0 0 464 501 467
132 2 2 0 0 433 473 406
133 2 2 0 0 8 45 37
134 2 2 0 0 466 709 317
135 2 2 0 0 457 461 379
136 2 2 0 0 84 512 86
137 2 2 0 0 19 452 33
138 2 2 0 0 380 614 425
139 2 2 0 0 83 540 79
140 2 2 0 0 398 510 509
141 2 2 0 0 609 631 137
142 2 2 0 0 18 442 36
143 2 2 0 0 26 45 7
144 2 2 0 0 565 566 343
145 2 2 0 0 80 83 79
146 2 2 0 0 560 689 554
147 2 2 0 0 134 137 136
148 2 2 0 0 68 469 42
149 2 2 0 0 659 716 653
150 2 2 0 0 619 707 474
151 2 2 0 0 497 610 39
152 2 2 0 0 137 138 136
153 2 2 0 0 283 573 343
154 2 2 0 0 506 644 448
155 2 2 0 0 499 735 31
156 2 2 0 0 81 97 25
157 2 2 0 0 45 46 37
158 2 2 0 0 585 668 637
159 2 2 0 0 495 735 499
160 2 2 0 0 399 510 398
161 2 2 0 0 509 573 398
162 2 2 0 0 442 443 36
163 2 2 0 0 1 607 314
164 2 2 0 0 29 612 436
165 2 2 0 0 547 631 609
166 2 2 0 0 360 595 409
167 2 2 0 0 421 682 342
168 2 2 0 0 426 575 327
169 2 2 0 0 123 577 235
170 2 2 0 0 339 743 417
171 2 2 0 0 7 45 8
172 2 2 0 0 3 723 24
173 2 2 0 0 418 666 653
174 2 2 0 0 59 60 58
175 2 2 0 0 620 636 193
176 2 2 0 0 42 469 47
177 2 2 0 0 65 67 66
178 2 2 0 0 509 662 573
179 2 2 0 0 470 482 247
180 2 2 0 0 368 476 472
181 2 2 0 0 530 740 337
182 2 2 0 0 253 512 84
183 2 2 0 0 455 698 282
184 2 2 0 0 61 65 62
185 2 2 0 0 59 61 60
186 2 2 0 0 91 472 88
187 2 2 0 0 90 92 91
188 2 2 0 0 19 442 18
189 2 2 0 0 464 465 423
190 2 2 0 0 706 724 118
191 2 2 0 0 456 611 32
192 2 2 0 0 379 477 61
193 2 2 0 0 417 743 704
194 2 2 0 0 314 683 1
195 2 2 0 0 442 458 443
196 2 2 0 0 11 28 12
197 2 2 0 0 61 62 60
198 2 2 0 0 118 724 95
199 2 2 0 0 22 25 23
200 2 2 0 0 247 483 470
201 2 2 0 0 281 640 434
202 2 2 0 0 197 667 474
203 2 2 0 0 86 512 89
204 2 2 0 0 417 704 673
205 2 2 0 0 451 690 230
206 2 2 0 0 27 442 19
207 2 2 0 0 637 668 229
208 2 2 0 0 60 475 58
209 2 2 0 0 489 610 497
210 2 2 0 0 307 573 283
211 2 2 0 0 61 477 65
212 2 2 0 0 65 66 62
213 2 2 0 0 544 740 530
214 2 2 0 0 230 719 451
215 2 2 0 0 18 452 19
216 2 2 0 0 268 569 269
217 2 2 0 0 32 485 456
218 2 2 0 0 627 696 401
219 2 2 0 0 24 42 41
220 2 2 0 0 20 27 19
221 2 2 0 0 330 461 457
222 2 2 0 0 506 672 644
223 2 2 0 0 472 476 87
224 2 2 0 0 468 495 494
225 2 2 0 0 88 472 87
226 2 2 0 0 121 577 123
227 2 2 0 0 327 575 276
228 2 2 0 0 422 464 423
229 2 2 0 0 47 63 49
230 2 2 0 0 458 506 443
231 2 2 0 0 232 690 451
232 2 2 0 0 28 487 12
233 2 2 0 0 80 107 83
234 2 2 0 0 608 696 676
235 2 2 0 0 356 481 355
236 2 2 0 0 138 238 136
237 2 2 0 0 137 139 138
238 2 2 0 0 729 739 26
239 2 2 0 0 81 99 97
240 2 2 0 0 46 50 37
241 2 2 0 0 463 656 8
242 2 2 0 0 443 444 36
243 2 2 0 0 68 704 469
244 2 2 0 0 24 68 42
245 2 2 0 0 16 503 30
246 2 2 0 0 65 69 67
247 2 2 0 0 67 79 66
248 2 2 0 0 676 696 369
249 2 2 0 0 59 379 61
250 2 2 0 0 90 93 92
251 2 2 0 0 464 467 465
252 2 2 0 0 441 708 312
253 2 2 0 0 483 484 471
254 2 2 0 0 427 479 478
255 2 2 0 0 245 564 244
256 2 2 0 0 470 483 471
257 2 2 0 0 473 721 406
258 2 2 0 0 555 699 554
259 2 2 0 0 47 469 63
260 2 2 0 0 63 355 49
261 2 2 0 0 62 64 60
262 2 2 0 0 80 108 107
263 2 2 0 0 107 539 83
264 2 2 0 0 139 140 138
265 2 2 0 0 99 100 97
266 2 2 0 0 81 236 99
267 2 2 0 0 46 51 50
268 2 2 0 0 443 445 444
269 2 2 0 0 24 419 68
270 2 2 0 0 69 466 67
271 2 2 0 0 79 103 66
272 2 2 0 0 65 477 69
273 2 2 0 0 547 548 321
274 2 2 0 0 93 94 92
275 2 2 0 0 467 468 465
276 2 2 0 0 333 664 649
277 2 2 0 0 55 498 56
278 2 2 0 0 56 498 72
279 2 2 0 0 12 499 31
280 2 2 0 0 63 356 355
281 2 2 0 0 108 110 107
282 2 2 0 0 139 141 140
283 2 2 0 0 100 101 97
284 2 2 0 0 236 248 99
285 2 2 0 0 81 594 236
286 2 2 0 0 51 52 50
287 2 2 0 0 192 515 195
288 2 2 0 0 445 446 444
289 2 2 0 0 477 481 69
290 2 2 0 0 94 95 92
291 2 2 0 0 93 96 94
292 2 2 0 0 63 408 356
293 2 2 0 0 108 111 110
294 2 2 0 0 110 117 107
295 2 2 0 0 139 154 141
296 2 2 0 0 141 142 140
297 2 2 0 0 51 53 52
298 2 2 0 0 100 102 101
299 2 2 0 0 236 250 248
300 2 2 0 0 445 447 446
301 2 2 0 0 52 388 50
302 2 2 0 0 277 622 567
303 2 2 0 0 95 608 92
304 2 2 0 0 94 118 95
305 2 2 0 0 93 104 96
306 2 2 0 0 51 561 53
307 2 2 0 0 408 434 356
308 2 2 0 0 53 54 52
309 2 2 0 0 445 448 447
310 2 2 0 0 108 317 111
311 2 2 0 0 141 143 142
312 2 2 0 0 142 225 140
313 2 2 0 0 102 166 101
314 2 2 0 0 250 325 248
315 2 2 0 0 100 258 102
316 2 2 0 0 53 55 54
317 2 2 0 0 447 449 446
318 2 2 0 0 236 505 250
319 2 2 0 0 104 105 96
320 2 2 0 0 53 57 55
321 2 2 0 0 55 56 54
322 2 2 0 0 448 451 447
323 2 2 0 0 14 39 15
324 2 2 0 0 317 511 111
325 2 2 0 0 10 40 9
326 2 2 0 0 143 144 142
327 2 2 0 0 57 58 55
328 2 2 0 0 8 37 9
329 2 2 0 0 14 38 13
330 2 2 0 0 166 314 101
331 2 2 0 0 18 36 17
332 2 2 0 0 16 29 17
333 2 2 0 0 33 504 20
334 2 2 0 0 325 365 248
335 2 2 0 0 199 202 196
336 2 2 0 0 7 32 6
337 2 2 0 0 434 435 356
338 2 2 0 0 74 75 73
339 2 2 0 0 223 239 234
340 2 2 0 0 74 76 75
341 2 2 0 0 72 74 73
342 2 2 0 0 231 549 201
343 2 2 0 0 202 205 204
344 2 2 0 0 226 227 214
345 2 2 0 0 272 275 271
346 2 2 0 0 276 318 275
347 2 2 0 0 213 214 209
348 2 2 0 0 76 77 75
349 2 2 0 0 210 231 201
350 2 2 0 0 16 30 15
351 2 2 0 0 205 209 208
352 2 2 0 0 202 204 196
353 2 2 0 0 318 406 340
354 2 2 0 0 195 196 193
355 2 2 0 0 322 420 415
356 2 2 0 0 239 240 234
357 2 2 0 0 163 588 168
358 2 2 0 0 12 31 11
359 2 2 0 0 56 72 71
360 2 2 0 0 425 426 327
361 2 2 0 0 19 33 20
362 2 2 0 0 168 224 215
363 2 2 0 0 209 568 216
364 2 2 0 0 318 433 406
365 2 2 0 0 269 271 270
366 2 2 0 0 268 269 245
367 2 2 0 0 21 639 20
368 2 2 0 0 84 85 82
369 2 2 0 0 181 207 183
370 2 2 0 0 269 272 271
371 2 2 0 0 272 276 275
372 2 2 0 0 242 243 240
373 2 2 0 0 102 167 166
374 2 2 0 0 223 234 233
375 2 2 0 0 283 343 227
376 2 2 0 0 205 208 204
377 2 2 0 0 213 226 214
378 2 2 0 0 271 572 347
379 2 2 0 0 243 268 245
380 2 2 0 0 335 398 307
381 2 2 0 0 303 555 554
382 2 2 0 0 226 283 227
383 2 2 0 0 347 485 370
384 2 2 0 0 195 199 196
385 2 2 0 0 205 213 209
386 2 2 0 0 246 322 252
387 2 2 0 0 76 78 77
388 2 2 0 0 133 163 135
389 2 2 0 0 163 168 164
390 2 2 0 0 322 415 341
391 2 2 0 0 227 361 214
392 2 2 0 0 191 198 189
393 2 2 0 0 78 84 82
394 2 2 0 0 209 216 208
395 2 2 0 0 78 82 77
396 2 2 0 0 216 303 266
397 2 2 0 0 417 418 362
398 2 2 0 0 314 607 101
399 2 2 0 0 339 362 280
400 2 2 0 0 243 245 244
401 2 2 0 0 187 291 185
402 2 2 0 0 429 430 359
403 2 2 0 0 143 145 144
404 2 2 0 0 202 553 205
405 2 2 0 0 339 417 362
406 2 2 0 0 131 580 133
407 2 2 0 0 239 242 240
408 2 2 0 0 57 59 58
409 2 2 0 0 224 246 215
410 2 2 0 0 84 86 85
411 2 2 0 0 303 554 266
412 2 2 0 0 72 73 71
413 2 2 0 0 437 438 414
414 2 2 0 0 318 340 275
415 2 2 0 0 269 270 245
416 2 2 0 0 86 87 85
417 2 2 0 0 192 193 191
418 2 2 0 0 123 235 129
419 2 2 0 0 263 374 262
420 2 2 0 0 425 427 426
421 2 2 0 0 149 150 147
422 2 2 0 0 210 232 231
423 2 2 0 0 74 373 76
424 2 2 0 0 168 215 169
425 2 2 0 0 259 262 249
426 2 2 0 0 145 146 144
427 2 2 0 0 367 524 289
428 2 2 0 0 271 347 270
429 2 2 0 0 406 407 340
430 2 2 0 0 334 459 424
431 2 2 0 0 429 474 430
432 2 2 0 0 250 328 325
433 2 2 0 0 431 432 367
434 2 2 0 0 104 278 105
435 2 2 0 0 145 147 146
436 2 2 0 0 151 152 150
437 2 2 0 0 235 583 129
438 2 2 0 0 237 249 228
439 2 2 0 0 149 151 150
440 2 2 0 0 159 161 158
441 2 2 0 0 153 155 152
442 2 2 0 0 156 158 155
443 2 2 0 0 354 367 289
444 2 2 0 0 259 263 262
445 2 2 0 0 190 191 189
446 2 2 0 0 177 221 174
447 2 2 0 0 162 228 161
448 2 2 0 0 124 516 386
449 2 2 0 0 418 653 578
450 2 2 0 0 371 584 295
451 2 2 0 0 151 153 152
452 2 2 0 0 153 156 155
453 2 2 0 0 159 162 161
454 2 2 0 0 374 593 262
455 2 2 0 0 156 159 158
456 2 2 0 0 237 259 249
457 2 2 0 0 146 284 160
458 2 2 0 0 266 309 267
459 2 2 0 0 264 265 257
460 2 2 0 0 86 88 87
461 2 2 0 0 265 312 257
462 2 2 0 0 162 237 228
463 2 2 0 0 21 44 22
464 2 2 0 0 324 392 390
465 2 2 0 0 371 585 584
466 2 2 0 0 262 366 249
467 2 2 0 0 192 195 193
468 2 2 0 0 263 375 374
469 2 2 0 0 216 266 217
470 2 2 0 0 326 327 276
471 2 2 0 0 260 646 166
472 2 2 0 0 220 223 222
473 2 2 0 0 322 341 252
474 2 2 0 0 256 257 255
475 2 2 0 0 78 253 84
476 2 2 0 0 358 359 242
477 2 2 0 0 188 189 187
478 2 2 0 0 281 339 280
479 2 2 0 0 146 160 144
480 2 2 0 0 123 129 128
481 2 2 0 0 255 324 254
482 2 2 0 0 228 229 161
483 2 2 0 0 354 431 367
484 2 2 0 0 163 164 135
485 2 2 0 0 155 157 152
486 2 2 0 0 243 244 240
487 2 2 0 0 256 264 257
488 2 2 0 0 284 316 160
489 2 2 0 0 380 425 327
490 2 2 0 0 148 149 147
491 2 2 0 0 335 399 398
492 2 2 0 0 418 578 362
493 2 2 0 0 334 424 396
494 2 2 0 0 167 260 166
495 2 2 0 0 325 368 365
496 2 2 0 0 428 429 359
497 2 2 0 0 165 255 254
498 2 2 0 0 297 342 264
499 2 2 0 0 298 371 295
500 2 2 0 0 218 323 220
501 2 2 0 0 310 337 302
502 2 2 0 0 165 256 255
503 2 2 0 0 186 187 185
504 2 2 0 0 56 71 70
505 2 2 0 0 165 254 125
506 2 2 0 0 200 201 199
507 2 2 0 0 148 206 149
508 2 2 0 0 324 390 364
509 2 2 0 0 190 192 191
510 2 2 0 0 368 369 365
511 2 2 0 0 353 404 351
512 2 2 0 0 104 331 278
513 2 2 0 0 256 297 264
514 2 2 0 0 316 421 416
515 2 2 0 0 239 358 242
516 2 2 0 0 169 586 171
517 2 2 0 0 286 287 206
518 2 2 0 0 324 364 254
519 2 2 0 0 241 576 162
520 2 2 0 0 168 169 164
521 2 2 0 0 121 123 122
522 2 2 0 0 266 267 217
523 2 2 0 0 129 131 130
524 2 2 0 0 216 217 208
525 2 2 0 0 285 382 313
526 2 2 0 0 172 321 170
527 2 2 0 0 390 391 364
528 2 2 0 0 296 563 300
529 2 2 0 0 246 252 251
530 2 2 0 0 285 286 206
531 2 2 0 0 288 289 287
532 2 2 0 0 298 372 371
533 2 2 0 0 23 35 22
534 2 2 0 0 300 344 304
535 2 2 0 0 344 462 345
536 2 2 0 0 123 128 122
537 2 2 0 0 297 389 342
538 2 2 0 0 237 277 259
539 2 2 0 0 148 285 206
540 2 2 0 0 86 89 88
541 2 2 0 0 306 307 283
542 2 2 0 0 234 279 233
543 2 2 0 0 316 416 160
544 2 2 0 0 188 190 189
545 2 2 0 0 85 98 82
546 2 2 0 0 358 428 359
547 2 2 0 0 437 455 438
548 2 2 0 0 203 210 201
549 2 2 0 0 382 383 313
550 2 2 0 0 153 176 156
551 2 2 0 0 290 354 289
552 2 2 0 0 159 241 162
553 2 2 0 0 386 387 126
554 2 2 0 0 273 363 338
555 2 2 0 0 272 326 276
556 2 2 0 0 171 293 173
557 2 2 0 0 145 148 147
558 2 2 0 0 274 295 261
559 2 2 0 0 285 313 286
560 2 2 0 0 383 384 313
561 2 2 0 0 301 302 299
562 2 2 0 0 131 133 132
563 2 2 0 0 296 298 295
564 2 2 0 0 305 310 302
565 2 2 0 0 349 412 328
566 2 2 0 0 344 345 304
567 2 2 0 0 77 119 75
568 2 2 0 0 315 378 310
569 2 2 0 0 363 401 400
570 2 2 0 0 332 333 278
571 2 2 0 0 223 233 222
572 2 2 0 0 331 334 332
573 2 2 0 0 186 188 187
574 2 2 0 0 178 212 177
575 2 2 0 0 305 360 315
576 2 2 0 0 334 396 395
577 2 2 0 0 246 251 215
578 2 2 0 0 167 261 260
579 2 2 0 0 175 179 178
580 2 2 0 0 345 346 304
581 2 2 0 0 124 386 126
582 2 2 0 0 286 288 287
583 2 2 0 0 331 332 278
584 2 2 0 0 179 181 180
585 2 2 0 0 301 305 302
586 2 2 0 0 300 304 301
587 2 2 0 0 296 300 299
588 2 2 0 0 305 315 310
589 2 2 0 0 296 299 298
590 2 2 0 0 320 453 290
591 2 2 0 0 274 296 295
592 2 2 0 0 313 531 286
593 2 2 0 0 120 281 280
594 2 2 0 0 360 409 315
595 2 2 0 0 363 400 338
596 2 2 0 0 129 130 128
597 2 2 0 0 300 301 299
598 2 2 0 0 1 508 23
599 2 2 0 0 167 273 261
600 2 2 0 0 133 135 134
601 2 2 0 0 173 174 172
602 2 2 0 0 311 377 376
603 2 2 0 0 273 274 261
604 2 2 0 0 273 338 274
605 2 2 0 0 334 395 332
606 2 2 0 0 183 197 184
607 2 2 0 0 319 393 320
608 2 2 0 0 449 450 446
609 2 2 0 0 288 290 289
610 2 2 0 0 226 306 283
611 2 2 0 0 326 380 327
612 2 2 0 0 175 177 174
613 2 2 0 0 181 183 182
614 2 2 0 0 219 230 211
615 2 2 0 0 308 335 307
616 2 2 0 0 267 311 292
617 2 2 0 0 169 170 164
618 2 2 0 0 288 319 290
619 2 2 0 0 126 165 125
620 2 2 0 0 120 280 121
621 2 2 0 0 130 357 128
622 2 2 0 0 195 200 199
623 2 2 0 0 169 171 170
624 2 2 0 0 171 172 170
625 2 2 0 0 184 186 185
626 2 2 0 0 73 282 71
627 2 2 0 0 252 294 251
628 2 2 0 0 319 320 290
629 2 2 0 0 131 132 130
630 2 2 0 0 393 394 320
631 2 2 0 0 171 173 172
632 2 2 0 0 4 34 3
633 2 2 0 0 218 220 219
634 2 2 0 0 267 292 217
635 2 2 0 0 184 185 182
636 2 2 0 0 188 194 190
637 2 2 0 0 56 70 54
638 2 2 0 0 377 405 376
639 2 2 0 0 449 470 450
640 2 2 0 0 179 180 178
641 2 2 0 0 173 175 174
642 2 2 0 0 175 178 177
643 2 2 0 0 250 329 328
644 2 2 0 0 311 376 292
645 2 2 0 0 329 571 350
646 2 2 0 0 347 370 348
647 2 2 0 0 220 222 219
648 2 2 0 0 376 385 292
649 2 2 0 0 133 134 132
650 2 2 0 0 134 136 132
651 2 2 0 0 306 308 307
652 2 2 0 0 200 203 201
653 2 2 0 0 233 247 222
654 2 2 0 0 98 460 82
655 2 2 0 0 329 349 328
656 2 2 0 0 326 381 380
657 2 2 0 0 347 348 270
658 2 2 0 0 181 182 180
659 2 2 0 0 121 122 115
660 2 2 0 0 350 351 349
661 2 2 0 0 308 336 335
662 2 2 0 0 350 403 352
663 2 2 0 0 470 471 450
664 2 2 0 0 203 211 210
665 2 2 0 0 218 219 211
666 2 2 0 0 183 184 182
667 2 2 0 0 370 463 422
668 2 2 0 0 306 402 308
669 2 2 0 0 203 218 211
670 2 2 0 0 71 490 70
671 2 2 0 0 329 350 349
672 2 2 0 0 436 437 414
673 2 2 0 0 124 126 125
674 2 2 0 0 413 414 353
675 2 2 0 0 422 423 348
676 2 2 0 0 352 353 351
677 2 2 0 0 370 422 348
678 2 2 0 0 350 352 351
679 2 2 0 0 413 436 414
680 2 2 0 0 352 413 353
681 2 2 0 0 120 121 115
682 2 2 0 0 110 480 117
683 2 2 0 0 124 125 116
684 2 2 0 0 126 521 165
685 2 2 0 0 113 120 115
686 2 2 0 0 127 440 410
687 2 2 0 0 114 124 116
688 2 2 0 0 543 544 530
689 2 2 0 0 488 489 487
690 2 2 0 0 585 637 366
691 2 2 0 0 543 570 544
692 2 2 0 0 113 115 114
693 2 2 0 0 127 410 106
694 2 2 0 0 114 116 112
695 2 2 0 0 195 515 200
696 2 2 0 0 491 493 492
697 2 2 0 0 12 487 13
698 2 2 0 0 546 547 321
699 2 2 0 0 330 457 411
700 2 2 0 0 157 543 530
701 2 2 0 0 519 520 291
702 2 2 0 0 28 488 487
703 2 2 0 0 111 112 110
704 2 2 0 0 312 534 257
705 2 2 0 0 476 732 412
706 2 2 0 0 27 458 442
707 2 2 0 0 385 636 620
708 2 2 0 0 176 559 156
709 2 2 0 0 593 634 366
710 2 2 0 0 589 590 224
711 2 2 0 0 113 114 112
712 2 2 0 0 109 127 106
713 2 2 0 0 270 564 245
714 2 2 0 0 443 506 445
715 2 2 0 0 491 492 396
716 2 2 0 0 388 624 502
717 2 2 0 0 445 506 448
718 2 2 0 0 30 500 15
719 2 2 0 0 20 504 21
720 2 2 0 0 64 475 60
721 2 2 0 0 287 542 206
722 2 2 0 0 23 508 35
723 2 2 0 0 302 558 299
724 2 2 0 0 70 551 54
725 2 2 0 0 62 598 64
726 2 2 0 0 424 491 396
727 2 2 0 0 407 456 340
728 2 2 0 0 545 546 321
729 2 2 0 0 330 411 397
730 2 2 0 0 72 536 74
731 2 2 0 0 238 574 136
732 2 2 0 0 659 660 420
733 2 2 0 0 395 538 332
734 2 2 0 0 143 527 145
735 2 2 0 0 412 675 476
736 2 2 0 0 239 513 358
737 2 2 0 0 157 530 529
738 2 2 0 0 518 519 291
739 2 2 0 0 449 482 470
740 2 2 0 0 207 713 479
741 2 2 0 0 119 523 75
742 2 2 0 0 109 670 127
743 2 2 0 0 10 501 40
744 2 2 0 0 508 509 35
745 2 2 0 0 96 606 94
746 2 2 0 0 331 459 334
747 2 2 0 0 286 531 288
748 2 2 0 0 290 453 354
749 2 2 0 0 282 490 71
750 2 2 0 0 384 531 313
751 2 2 0 0 289 524 287
752 2 2 0 0 349 550 412
753 2 2 0 0 165 521 256
754 2 2 0 0 82 460 77
755 2 2 0 0 155 543 157
756 2 2 0 0 201 549 199
757 2 2 0 0 273 591 363
758 2 2 0 0 387 521 126
759 2 2 0 0 114 516 124
760 2 2 0 0 53 561 57
761 2 2 0 0 266 554 309
762 2 2 0 0 257 534 255
763 2 2 0 0 205 553 213
764 2 2 0 0 142 522 225
765 2 2 0 0 435 481 356
766 2 2 0 0 216 568 303
767 2 2 0 0 300 563 344
768 2 2 0 0 214 568 209
769 2 2 0 0 112 480 110
770 2 2 0 0 350 571 403
771 2 2 0 0 347 572 485
772 2 2 0 0 275 572 271
773 2 2 0 0 274 563 296
774 2 2 0 0 171 586 293
775 2 2 0 0 162 576 237
776 2 2 0 0 133 580 163
777 2 2 0 0 11 501 10
778 2 2 0 0 295 584 261
779 2 2 0 0 129 583 131
780 2 2 0 0 215 586 169
781 2 2 0 0 250 505 329
782 2 2 0 0 168 588 224
783 2 2 0 0 321 548 170
784 2 2 0 0 262 593 366
785 2 2 0 0 166 646 314
786 2 2 0 0 520 535 291
787 2 2 0 0 373 663 493
788 2 2 0 0 291 535 185
789 2 2 0 0 101 607 97
790 2 2 0 0 130 574 357
791 2 2 0 0 158 570 543
792 2 2 0 0 31 501 11
793 2 2 0 0 444 552 503
794 2 2 0 0 156 559 159
795 2 2 0 0 236 594 505
796 2 2 0 0 206 542 149
797 2 2 0 0 54 551 52
798 2 2 0 0 74 536 373
799 2 2 0 0 337 558 302
800 2 2 0 0 150 532 147
801 2 2 0 0 379 728 457
802 2 2 0 0 299 558 298
803 2 2 0 0 332 538 333
804 2 2 0 0 145 527 148
805 2 2 0 0 514 515 192
806 2 2 0 0 15 500 14
807 2 2 0 0 75 523 73
808 2 2 0 0 467 501 31
809 2 2 0 0 254 592 125
810 2 2 0 0 172 545 321
811 2 2 0 0 144 522 142
812 2 2 0 0 528 532 150
813 2 2 0 0 187 518 291
814 2 2 0 0 553 599 213
815 2 2 0 0 383 603 384
816 2 2 0 0 282 698 490
817 2 2 0 0 244 517 240
818 2 2 0 0 353 525 404
819 2 2 0 0 395 540 538
820 2 2 0 0 94 606 118
821 2 2 0 0 117 539 107
822 2 2 0 0 185 535 182
823 2 2 0 0 388 502 50
824 2 2 0 0 167 591 273
825 2 2 0 0 147 532 146
826 2 2 0 0 92 608 91
827 2 2 0 0 472 676 368
828 2 2 0 0 364 592 254
829 2 2 0 0 21 504 44
830 2 2 0 0 365 597 248
831 2 2 0 0 125 592 116
832 2 2 0 0 588 589 224
833 2 2 0 0 111 113 112
834 2 2 0 0 63 469 408
835 2 2 0 0 105 109 106
836 2 2 0 0 242 526 243
837 2 2 0 0 439 712 29
838 2 2 0 0 240 517 234
839 2 2 0 0 346 533 304
840 2 2 0 0 14 500 38
841 2 2 0 0 494 495 484
842 2 2 0 0 127 630 440
843 2 2 0 0 208 537 204
844 2 2 0 0 175 562 179
845 2 2 0 0 303 626 555
846 2 2 0 0 359 526 242
847 2 2 0 0 243 526 268
848 2 2 0 0 217 537 208
849 2 2 0 0 58 498 55
850 2 2 0 0 503 552 30
851 2 2 0 0 13 499 12
852 2 2 0 0 268 621 569
853 2 2 0 0 489 497 487
854 2 2 0 0 475 498 58
855 2 2 0 0 430 526 359
856 2 2 0 0 248 597 99
857 2 2 0 0 292 537 217
858 2 2 0 0 26 645 45
859 2 2 0 0 234 517 279
860 2 2 0 0 14 497 39
861 2 2 0 0 385 537 292
862 2 2 0 0 305 533 360
863 2 2 0 0 304 533 301
864 2 2 0 0 146 532 284
865 2 2 0 0 483 494 484
866 2 2 0 0 173 562 175
867 2 2 0 0 116 480 112
868 2 2 0 0 224 590 246
869 2 2 0 0 189 518 187
870 2 2 0 0 498 536 72
871 2 2 0 0 414 525 353
872 2 2 0 0 160 522 144
873 2 2 0 0 547 609 548
874 2 2 0 0 182 535 180
875 2 2 0 0 297 601 389
876 2 2 0 0 44 594 81
877 2 2 0 0 301 533 305
878 2 2 0 0 105 106 96
879 2 2 0 0 515 596 200
880 2 2 0 0 293 562 173
881 2 2 0 0 73 523 282
882 2 2 0 0 148 527 285
883 2 2 0 0 174 545 172
884 2 2 0 0 218 596 323
885 2 2 0 0 200 596 203
886 2 2 0 0 149 542 151
887 2 2 0 0 446 552 444
888 2 2 0 0 49 461 330
889 2 2 0 0 330 397 48
890 2 2 0 0 453 738 377
891 2 2 0 0 255 534 324
892 2 2 0 0 52 551 388
893 2 2 0 0 634 646 260
894 2 2 0 0 513 615 358
895 2 2 0 0 438 525 414
896 2 2 0 0 516 618 386
897 2 2 0 0 198 518 189
898 2 2 0 0 227 566 361
899 2 2 0 0 559 560 241
900 2 2 0 0 90 587 93
901 2 2 0 0 416 522 160
902 2 2 0 0 102 591 167
903 2 2 0 0 134 609 137
904 2 2 0 0 298 558 372
905 2 2 0 0 132 574 130
906 2 2 0 0 106 606 96
907 2 2 0 0 159 559 241
908 2 2 0 0 32 611 6
909 2 2 0 0 158 543 155
910 2 2 0 0 223 513 239
911 2 2 0 0 288 531 319
912 2 2 0 0 323 513 220
913 2 2 0 0 115 516 114
914 2 2 0 0 521 601 297
915 2 2 0 0 610 698 455
916 2 2 0 0 354 600 431
917 2 2 0 0 351 550 349
918 2 2 0 0 256 521 297
919 2 2 0 0 140 604 138
920 2 2 0 0 77 460 119
921 2 2 0 0 17 503 16
922 2 2 0 0 9 502 10
923 2 2 0 0 104 587 331
924 2 2 0 0 152 528 150
925 2 2 0 0 315 541 378
926 2 2 0 0 170 548 164
927 2 2 0 0 590 659 420
928 2 2 0 0 11 624 28
929 2 2 0 0 199 549 202
930 2 2 0 0 502 624 10
931 2 2 0 0 453 600 354
932 2 2 0 0 42 43 41
933 2 2 0 0 38 499 13
934 2 2 0 0 285 527 382
935 2 2 0 0 190 514 192
936 2 2 0 0 157 529 528
937 2 2 0 0 231 643 549
938 2 2 0 0 331 587 459
939 2 2 0 0 451 701 232
940 2 2 0 0 99 597 100
941 2 2 0 0 361 568 214
942 2 2 0 0 372 740 544
943 2 2 0 0 221 545 174
944 2 2 0 0 138 604 238
945 2 2 0 0 340 572 275
946 2 2 0 0 338 563 274
947 2 2 0 0 524 542 287
948 2 2 0 0 265 595 312
949 2 2 0 0 111 511 113
950 2 2 0 0 580 658 588
951 2 2 0 0 580 588 163
952 2 2 0 0 237 576 277
953 2 2 0 0 444 503 36
954 2 2 0 0 131 583 580
955 2 2 0 0 505 571 329
956 2 2 0 0 203 596 218
957 2 2 0 0 584 634 260
958 2 2 0 0 261 584 260
959 2 2 0 0 369 647 365
960 2 2 0 0 251 586 215
961 2 2 0 0 348 564 270
962 2 2 0 0 450 552 446
963 2 2 0 0 390 496 391
964 2 2 0 0 66 598 62
965 2 2 0 0 465 623 423
966 2 2 0 0 258 591 102
967 2 2 0 0 343 566 227
968 2 2 0 0 564 623 244
969 2 2 0 0 154 617 141
970 2 2 0 0 324 534 392
971 2 2 0 0 50 502 37
972 2 2 0 0 524 556 542
973 2 2 0 0 544 700 372
974 2 2 0 0 122 516 115
975 2 2 0 0 177 557 221
976 2 2 0 0 489 698 610
977 2 2 0 0 93 587 104
978 2 2 0 0 136 574 132
979 2 2 0 0 593 646 634
980 2 2 0 0 116 592 480
981 2 2 0 0 143 617 527
982 2 2 0 0 225 604 140
983 2 2 0 0 137 631 139
984 2 2 0 0 549 553 202
985 2 2 0 0 164 548 135
986 2 2 0 0 404 550 351
987 2 2 0 0 34 721 473
988 2 2 0 0 220 513 223
989 2 2 0 0 317 640 511
990 2 2 0 0 100 597 258
991 2 2 0 0 588 658 589
992 2 2 0 0 323 615 513
993 2 2 0 0 568 626 303
994 2 2 0 0 377 605 405
995 2 2 0 0 178 613 212
996 2 2 0 0 493 628 373
997 2 2 0 0 157 528 152
998 2 2 0 0 591 627 363
999 2 2 0 0 409 541 315
1000 2 2 0 0 183 614 197
1001 2 2 0 0 103 598 66
1002 2 2 0 0 188 619 194
1003 2 2 0 0 213 599 226
1004 2 2 0 0 306 599 402
1005 2 2 0 0 97 607 25
1006 2 2 0 0 194 514 190
1007 2 2 0 0 373 628 76
1008 2 2 0 0 78 628 253
1009 2 2 0 0 42 47 43
1010 2 2 0 0 39 612 15
1011 2 2 0 0 16 612 29
1012 2 2 0 0 437 610 455
1013 2 2 0 0 487 497 13
1014 2 2 0 0 440 630 441
1015 2 2 0 0 479 713 562
1016 2 2 0 0 196 620 193
1017 2 2 0 0 456 572 340
1018 2 2 0 0 120 511 281
1019 2 2 0 0 577 578 235
1020 2 2 0 0 335 582 399
1021 2 2 0 0 314 741 683
1022 2 2 0 0 520 613 535
1023 2 2 0 0 585 634 584
1024 2 2 0 0 423 564 348
1025 2 2 0 0 457 561 411
1026 2 2 0 0 6 611 5
1027 2 2 0 0 385 620 537
1028 2 2 0 0 228 637 229
1029 2 2 0 0 366 637 249
1030 2 2 0 0 161 570 158
1031 2 2 0 0 434 640 435
1032 2 2 0 0 193 636 191
1033 2 2 0 0 410 606 106
1034 2 2 0 0 37 502 9
1035 2 2 0 0 36 503 17
1036 2 2 0 0 141 617 143
1037 2 2 0 0 363 627 401
1038 2 2 0 0 322 590 420
1039 2 2 0 0 357 618 128
1040 2 2 0 0 430 621 526
1041 2 2 0 0 540 687 103
1042 2 2 0 0 280 577 121
1043 2 2 0 0 276 575 318
1044 2 2 0 0 362 578 577
1045 2 2 0 0 109 649 496
1046 2 2 0 0 246 590 322
1047 2 2 0 0 326 569 381
1048 2 2 0 0 569 621 381
1049 2 2 0 0 269 569 272
1050 2 2 0 0 139 631 154
1051 2 2 0 0 649 664 496
1052 2 2 0 0 537 620 204
1053 2 2 0 0 355 461 49
1054 2 2 0 0 663 685 493
1055 2 2 0 0 479 745 207
1056 2 2 0 0 343 662 565
1057 2 2 0 0 212 557 177
1058 2 2 0 0 45 645 46
1059 2 2 0 0 496 670 109
1060 2 2 0 0 366 634 585
1061 2 2 0 0 384 616 531
1062 2 2 0 0 535 613 180
1063 2 2 0 0 391 632 364
1064 2 2 0 0 308 581 336
1065 2 2 0 0 344 625 462
1066 2 2 0 0 563 625 344
1067 2 2 0 0 13 497 14
1068 2 2 0 0 480 632 117
1069 2 2 0 0 371 668 585
1070 2 2 0 0 333 649 278
1071 2 2 0 0 387 601 521
1072 2 2 0 0 47 49 48
1073 2 2 0 0 358 615 428
1074 2 2 0 0 113 511 120
1075 2 2 0 0 527 617 382
1076 2 2 0 0 105 649 109
1077 2 2 0 0 398 573 307
1078 2 2 0 0 368 676 369
1079 2 2 0 0 180 613 178
1080 2 2 0 0 153 556 176
1081 2 2 0 0 432 657 367
1082 2 2 0 0 458 718 582
1083 2 2 0 0 207 614 183
1084 2 2 0 0 407 611 456
1085 2 2 0 0 244 623 517
1086 2 2 0 0 20 639 27
1087 2 2 0 0 476 675 87
1088 2 2 0 0 319 616 393
1089 2 2 0 0 474 707 197
1090 2 2 0 0 226 599 306
1091 2 2 0 0 47 48 43
1092 2 2 0 0 186 619 188
1093 2 2 0 0 412 732 328
1094 2 2 0 0 316 671 541
1095 2 2 0 0 293 734 478
1096 2 2 0 0 492 685 598
1097 2 2 0 0 528 629 532
1098 2 2 0 0 514 635 515
1099 2 2 0 0 531 616 319
1100 2 2 0 0 8 656 7
1101 2 2 0 0 387 602 601
1102 2 2 0 0 76 628 78
1103 2 2 0 0 122 618 516
1104 2 2 0 0 651 717 394
1105 2 2 0 0 423 623 564
1106 2 2 0 0 546 669 547
1107 2 2 0 0 4 679 34
1108 2 2 0 0 542 556 151
1109 2 2 0 0 548 609 135
1110 2 2 0 0 204 620 196
1111 2 2 0 0 529 629 528
1112 2 2 0 0 482 719 230
1113 2 2 0 0 258 627 591
1114 2 2 0 0 336 582 335
1115 2 2 0 0 197 686 667
1116 2 2 0 0 583 658 580
1117 2 2 0 0 85 675 98
1118 2 2 0 0 59 728 379
1119 2 2 0 0 400 625 338
1120 2 2 0 0 394 717 605
1121 2 2 0 0 471 650 450
1122 2 2 0 0 596 635 323
1123 2 2 0 0 249 637 228
1124 2 2 0 0 515 635 596
1125 2 2 0 0 338 625 563
1126 2 2 0 0 28 633 488
1127 2 2 0 0 566 622 361
1128 2 2 0 0 229 570 161
1129 2 2 0 0 468 654 465
1130 2 2 0 0 118 710 462
1131 2 2 0 0 15 612 16
1132 2 2 0 0 589 659 590
1133 2 2 0 0 526 621 268
1134 2 2 0 0 365 647 597
1135 2 2 0 0 579 583 235
1136 2 2 0 0 22 507 21
1137 2 2 0 0 342 682 264
1138 2 2 0 0 441 648 346
1139 2 2 0 0 191 636 198
1140 2 2 0 0 578 653 579
1141 2 2 0 0 135 609 134
1142 2 2 0 0 128 618 122
1143 2 2 0 0 378 681 310
1144 2 2 0 0 230 690 211
1145 2 2 0 0 210 690 232
1146 2 2 0 0 549 643 553
1147 2 2 0 0 233 661 247
1148 2 2 0 0 10 624 11
1149 2 2 0 0 640 709 435
1150 2 2 0 0 449 719 482
1151 2 2 0 0 452 726 33
1152 2 2 0 0 362 577 280
1153 2 2 0 0 318 575 433
1154 2 2 0 0 492 687 396
1155 2 2 0 0 586 734 293
1156 2 2 0 0 357 655 618
1157 2 2 0 0 277 567 259
1158 2 2 0 0 522 641 225
1159 2 2 0 0 511 640 281
1160 2 2 0 0 247 661 483
1161 2 2 0 0 610 693 39
1162 2 2 0 0 272 569 326
1163 2 2 0 0 490 695 70
1164 2 2 0 0 553 643 599
1165 2 2 0 0 532 629 284
1166 2 2 0 0 29 712 17
1167 2 2 0 0 632 665 117
1168 2 2 0 0 618 655 386
1169 2 2 0 0 241 699 576
1170 2 2 0 0 457 728 561
1171 2 2 0 0 485 572 456
1172 2 2 0 0 430 667 621
1173 2 2 0 0 582 672 458
1174 2 2 0 0 395 687 540
1175 2 2 0 0 504 594 44
1176 2 2 0 0 181 713 207
1177 2 2 0 0 197 707 184
1178 2 2 0 0 524 657 556
1179 2 2 0 0 475 536 498
1180 2 2 0 0 394 738 320
1181 2 2 0 0 51 714 561
1182 2 2 0 0 151 556 153
1183 2 2 0 0 437 693 610
1184 2 2 0 0 361 626 568
1185 2 2 0 0 611 679 5
1186 2 2 0 0 231 680 643
1187 2 2 0 0 462 706 118
1188 2 2 0 0 390 670 496
1189 2 2 0 0 602 642 601
1190 2 2 0 0 49 330 48
1191 2 2 0 0 391 665 632
1192 2 2 0 0 508 737 375
1193 2 2 0 0 450 650 552
1194 2 2 0 0 368 732 476
1195 2 2 0 0 578 579 235
1196 2 2 0 0 402 581 308
1197 2 2 0 0 43 486 41
1198 2 2 0 0 562 713 179
1199 2 2 0 0 592 632 480
1200 2 2 0 0 416 641 522
1201 2 2 0 0 372 668 371
1202 2 2 0 0 452 712 439
1203 2 2 0 0 282 720 455
1204 2 2 0 0 556 657 176
1205 2 2 0 0 364 632 592
1206 2 2 0 0 403 726 452
1207 2 2 0 0 465 654 623
1208 2 2 0 0 278 649 105
1209 2 2 0 0 154 652 617
1210 2 2 0 0 383 688 603
1211 2 2 0 0 451 719 447
1212 2 2 0 0 317 709 640
1213 2 2 0 0 604 711 642
1214 2 2 0 0 382 652 383
1215 2 2 0 0 601 642 389
1216 2 2 0 0 284 671 316
1217 2 2 0 0 599 643 402
1218 2 2 0 0 388 633 624
1219 2 2 0 0 267 678 311
1220 2 2 0 0 337 681 530
1221 2 2 0 0 279 661 233
1222 2 2 0 0 605 738 394
1223 2 2 0 0 33 677 504
1224 2 2 0 0 386 655 387
1225 2 2 0 0 547 669 631
1226 2 2 0 0 562 731 479
1227 2 2 0 0 360 648 595
1228 2 2 0 0 432 692 657
1229 2 2 0 0 367 657 524
1230 2 2 0 0 633 695 488
1231 2 2 0 0 415 473 341
1232 2 2 0 0 644 672 336
1233 2 2 0 0 551 633 388
1234 2 2 0 0 533 648 360
1235 2 2 0 0 407 679 611
1236 2 2 0 0 323 635 615
1237 2 2 0 0 530 681 529
1238 2 2 0 0 393 651 394
1239 2 2 0 0 387 655 602
1240 2 2 0 0 238 703 574
1241 2 2 0 0 594 677 505
1242 2 2 0 0 559 692 560
1243 2 2 0 0 621 667 381
1244 2 2 0 0 405 674 376
1245 2 2 0 0 325 732 368
1246 2 2 0 0 623 654 517
1247 2 2 0 0 581 644 336
1248 2 2 0 0 346 648 533
1249 2 2 0 0 517 654 279
1250 2 2 0 0 477 705 481
1251 2 2 0 0 481 705 355
1252 2 2 0 0 561 728 57
1253 2 2 0 0 379 705 477
1254 2 2 0 0 617 652 382
1255 2 2 0 0 30 650 500
1256 2 2 0 0 376 674 385
1257 2 2 0 0 518 715 519
1258 2 2 0 0 474 667 430
1259 2 2 0 0 478 734 294
1260 2 2 0 0 624 633 28
1261 2 2 0 0 186 707 619
1262 2 2 0 0 64 663 475
1263 2 2 0 0 597 647 258
1264 2 2 0 0 377 738 605
1265 2 2 0 0 31 735 467
1266 2 2 0 0 27 718 458
1267 2 2 0 0 419 673 68
1268 2 2 0 0 616 722 393
1269 2 2 0 0 24 723 419
1270 2 2 0 0 397 638 48
1271 2 2 0 0 404 730 460
1272 2 2 0 0 91 676 472
1273 2 2 0 0 622 626 361
1274 2 2 0 0 7 656 32
1275 2 2 0 0 576 697 277
1276 2 2 0 0 471 691 650
1277 2 2 0 0 536 663 373
1278 2 2 0 0 484 691 471
1279 2 2 0 0 552 650 30
1280 2 2 0 0 311 678 600
1281 2 2 0 0 486 729 5
1282 2 2 0 0 418 673 666
1283 2 2 0 0 232 680 231
1284 2 2 0 0 5 679 4
1285 2 2 0 0 117 665 539
1286 2 2 0 0 384 702 616
1287 2 2 0 0 557 702 221
1288 2 2 0 0 87 675 85
1289 2 2 0 0 225 711 604
1290 2 2 0 0 505 677 571
1291 2 2 0 0 483 661 494
1292 2 2 0 0 263 565 375
1293 2 2 0 0 504 677 594
1294 2 2 0 0 582 718 399
1295 2 2 0 0 645 714 46
1296 2 2 0 0 534 708 392
1297 2 2 0 0 643 680 402
1298 2 2 0 0 18 712 452
1299 2 2 0 0 392 670 390
1300 2 2 0 0 221 702 603
1301 2 2 0 0 496 664 391
1302 2 2 0 0 606 710 118
1303 2 2 0 0 655 703 602
1304 2 2 0 0 608 676 91
1305 2 2 0 0 194 684 514
1306 2 2 0 0 541 671 378
1307 2 2 0 0 154 669 652
1308 2 2 0 0 399 718 639
1309 2 2 0 0 405 715 674
1310 2 2 0 0 33 726 677
1311 2 2 0 0 629 671 284
1312 2 2 0 0 468 735 495
1313 2 2 0 0 469 704 408
1314 2 2 0 0 427 745 479
1315 2 2 0 0 294 734 251
1316 2 2 0 0 461 705 379
1317 2 2 0 0 385 674 636
1318 2 2 0 0 657 692 176
1319 2 2 0 0 561 714 411
1320 2 2 0 0 631 669 154
1321 2 2 0 0 264 682 265
1322 2 2 0 0 43 638 486
1323 2 2 0 0 48 638 43
1324 2 2 0 0 194 744 684
1325 2 2 0 0 381 686 380
1326 2 2 0 0 658 716 589
1327 2 2 0 0 263 567 565
1328 2 2 0 0 310 681 337
1329 2 2 0 0 493 685 492
1330 2 2 0 0 64 685 663
1331 2 2 0 0 309 678 267
1332 2 2 0 0 600 678 431
1333 2 2 0 0 538 694 333
1334 2 2 0 0 598 685 64
1335 2 2 0 0 551 695 633
1336 2 2 0 0 560 699 241
1337 2 2 0 0 211 690 210
1338 2 2 0 0 2 723 3
1339 2 2 0 0 630 708 441
1340 2 2 0 0 467 735 468
1341 2 2 0 0 396 687 395
1342 2 2 0 0 35 507 22
1343 2 2 0 0 259 567 263
1344 2 2 0 0 417 673 418
1345 2 2 0 0 614 686 197
1346 2 2 0 0 392 708 630
1347 2 2 0 0 5 729 6
1348 2 2 0 0 279 725 661
1349 2 2 0 0 6 729 26
1350 2 2 0 0 357 703 655
1351 2 2 0 0 514 684 635
1352 2 2 0 0 540 733 538
1353 2 2 0 0 374 741 593
1354 2 2 0 0 176 692 559
1355 2 2 0 0 650 691 500
1356 2 2 0 0 484 736 691
1357 2 2 0 0 83 733 540
1358 2 2 0 0 558 740 372
1359 2 2 0 0 626 697 555
1360 2 2 0 0 436 693 437
1361 2 2 0 0 375 737 374
1362 2 2 0 0 475 663 536
1363 2 2 0 0 636 674 198
1364 2 2 0 0 674 715 198
1365 2 2 0 0 70 695 551
1366 2 2 0 0 406 721 407
1367 2 2 0 0 677 726 571
1368 2 2 0 0 258 647 627
1369 2 2 0 0 448 701 451
1370 2 2 0 0 458 672 506
1371 2 2 0 0 229 700 570
1372 2 2 0 0 684 744 428
1373 2 2 0 0 570 700 544
1374 2 2 0 0 678 742 431
1375 2 2 0 0 646 741 314
1376 2 2 0 0 603 702 384
1377 2 2 0 0 478 731 293
1378 2 2 0 0 309 742 678
1379 2 2 0 0 380 686 614
1380 2 2 0 0 494 725 468
1381 2 2 0 0 500 691 38
1382 2 2 0 0 635 684 615
1383 2 2 0 0 661 725 494
1384 2 2 0 0 679 721 34
1385 2 2 0 0 509 510 35
1386 2 2 0 0 46 714 51
1387 2 2 0 0 615 684 428
1388 2 2 0 0 432 742 689
1389 2 2 0 0 179 713 181
1390 2 2 0 0 26 739 645
1391 2 2 0 0 35 510 507
1392 2 2 0 0 574 703 357
1393 2 2 0 0 184 707 186
1394 2 2 0 0 39 693 612
1395 2 2 0 0 665 694 539
1396 2 2 0 0 312 708 534
1397 2 2 0 0 554 689 309
1398 2 2 0 0 1 737 508
1399 2 2 0 0 519 717 520
1400 2 2 0 0 277 697 622
1401 2 2 0 0 389 711 641
1402 2 2 0 0 495 736 484
1403 2 2 0 0 17 712 18
1404 2 2 0 0 212 722 557
1405 2 2 0 0 455 720 438
1406 2 2 0 0 622 697 626
1407 2 2 0 0 664 694 665
1408 2 2 0 0 447 719 449
1409 2 2 0 0 669 688 652
1410 2 2 0 0 612 693 436
1411 2 2 0 0 619 744 194
1412 2 2 0 0 57 728 59
1413 2 2 0 0 579 658 583
1414 2 2 0 0 438 727 525
1415 2 2 0 0 539 733 83
1416 2 2 0 0 479 731 478
1417 2 2 0 0 691 736 38
1418 2 2 0 0 401 724 400
1419 2 2 0 0 420 660 2
1420 2 2 0 0 328 732 325
1421 2 2 0 0 320 738 453
1422 2 2 0 0 428 744 429
1423 2 2 0 0 431 742 432
1424 2 2 0 0 425 745 427
1425 2 2 0 0 408 743 434
1426 2 2 0 0 571 726 403
1427 2 2 0 0 119 727 523
1428 2 2 0 0 625 706 462
1429 2 2 0 0 525 730 404
1430 2 2 0 0 499 736 495
1431 2 2 0 0 468 725 654
1432 2 2 0 0 336 672 582
1433 2 2 0 0 198 715 518
1434 2 2 0 0 400 724 706
1435 2 2 0 0 402 680 581
1436 2 2 0 0 589 716 659
1437 2 2 0 0 727 730 525
1438 2 2 0 0 664 665 391
1439 2 2 0 0 337 740 558
1440 2 2 0 0 293 731 562
1441 2 2 0 0 523 720 282
1442 2 2 0 0 460 730 119
1443 2 2 0 0 641 711 225
1444 2 2 0 0 429 744 619
1445 2 2 0 0 119 730 727
1446 2 2 0 0 651 722 212
1447 2 2 0 0 38 736 499
1448 2 2 0 0 667 686 381
1449 2 2 0 0 652 688 383
1450 2 2 0 0 410 710 606
1451 2 2 0 0 644 701 448
1452 2 2 0 0 666 673 419
1453 2 2 0 0 704 743 408
1454 2 2 0 0 251 734 586
1455 2 2 0 0 400 706 625
1456 2 2 0 0 546 688 669
1457 2 2 0 0 668 700 229
1458 2 2 0 0 538 733 694
1459 2 2 0 0 333 694 664
1460 2 2 0 0 565 662 375
1461 2 2 0 0 720 727 438
1462 2 2 0 0 372 700 668
1463 2 2 0 0 579 716 658
1464 2 2 0 0 642 711 389
1465 2 2 0 0 355 705 461
1466 2 2 0 0 407 721 679
1467 2 2 0 0 523 727 720
1468 2 2 0 0 654 725 279
1469 2 2 0 0 639 718 27
1470 2 2 0 0 694 733 539
1471 2 2 0 0 393 722 651
1472 2 2 0 0 645 739 397
1473 2 2 0 0 683 741 374
1474 2 2 0 0 397 739 638
1475 2 2 0 0 653 716 579
1476 2 2 0 0 666 723 660
1477 2 2 0 0 419 723 666
1478 2 2 0 0 374 737 683
1479 2 2 0 0 593 741 646
1480 2 2 0 0 683 737 1
1481 2 2 0 0 689 742 309
1482 2 2 0 0 660 723 2
1483 2 2 0 0 23 25 1
1484 2 2 0 0 25 607 1
1485 2 2 0 0 3 34 2
1486 2 2 0 0 34 415 2
$EndElements
