$MeshFormat
2.2 0 8
$EndMeshFormat
$Nodes
98
1 -3.5838584532387152e-04 -3.5838584532387152e-04 -3.5838584532387152e-04
2 3.5838584532387152e-04 3.5838584532387152e-04 3.5838584532387152e-04
3 3.5838584532387152e-04 -3.5838584532387152e-04 -3.5838584532387152e-04
4 -3.5838584532387152e-04 3.5838584532387152e-04 -3.5838584532387152e-04
5 3.5838584532387152e-04 3.5838584532387152e-04 -3.5838584532387152e-04
6 -3.5838584532387152e-04 -3.5838584532387152e-04 3.5838584532387152e-04
7 3.5838584532387152e-04 -3.5838584532387152e-04 3.5838584532387152e-04
8 -3.5838584532387152e-04 3.5838584532387152e-04 3.5838584532387152e-04
9 -8.2920843077999706e-25 -4.3893122516153410e-04 -4.3893122516153410e-04
10 7.0777975318894002e-30 -1.5551078841823412e-24 -6.1995848996369135e-04
11 -4.3893122516153410e-04 2.2372813272716893e-29 -4.3893122516153410e-04
12 4.3893122516153410e-04 -9.9672260322427476e-25 -4.3893122516153410e-04
13 2.3666040776107328e-24 4.3893122516153410e-04 -4.3893122516153410e-04
14 -1.7583759415699539e-29 -1.5551154471483893e-24 6.1995848996369135e-04
15 -4.3893122516153410e-04 -4.3893122516153410e-04 3.3964484517594651e-25
16 4.3893122516153410e-04 -4.3893122516153410e-04 2.1104190638703205e-24
17 -4.3893122516153410e-04 4.3893122516153410e-04 -2.1105368772310450e-24
18 4.3893122516153410e-04 4.3893122516153410e-04 -3.3965419683927985e-25
19 9.0702000234412435e-30 -6.1995848996369135e-04 -3.2116623751314190e-29
20 -6.1995848996369135e-04 -1.5845602186239590e-29 -1.5231552502450197e-24
21 6.1995848996369135e-04 3.8524217785543416e-29 -1.5231441847306514e-24
22 2.7699255527463243e-29 6.1995848996369135e-04 -5.9465012503126428e-30
23 -2.3666103276744919e-24 -4.3893122516153410e-04 4.3893122516153410e-04
24 -4.3893122516153410e-04 9.9668610485449364e-25 4.3893122516153410e-04
25 4.3893122516153410e-04 4.7747211281382401e-30 4.3893122516153410e-04
26 8.2907910818008006e-25 4.3893122516153410e-04 4.3893122516153410e-04
27 2.7807812732889202e-04 -5.5409714400364216e-04 -1.9421514282286301e-25
28 5.5409714400365365e-04 -2.7807812732886931e-04 7.6543104370842687e-24
29 2.5289898365283436e-04 -2.5289898365283463e-04 5.0734949497374378e-04
30 2.9551961673125279e-25 -5.5409714400364216e-04 2.7807812732889202e-04
31 4.1388278330230173e-04 -4.1388278330230466e-04 2.0669615643386396e-04
32 5.5409714400365398e-04 -5.5326625908643087e-24 2.7807812732886849e-04
33 2.5289898365235211e-04 -5.0734949497422484e-04 2.5289898365235211e-04
34 5.0734949497374367e-04 -2.5289898365283474e-04 2.5289898365283447e-04
35 2.0669615643386418e-04 -4.1388278330230455e-04 4.1388278330230162e-04
36 -3.3078069988767389e-24 -2.7807812732886931e-04 5.5409714400365365e-04
37 4.1388278330219033e-04 -2.0669615643431602e-04 4.1388278330219033e-04
38 2.7807812732886849e-04 9.9572761177664094e-24 5.5409714400365398e-04
39 2.7807812732886849e-04 9.9572684504424893e-24 -5.5409714400365398e-04
40 2.5289898365283436e-04 2.5289898365283463e-04 -5.0734949497374378e-04
41 4.1078305464139504e-24 2.7807812732886931e-04 -5.5409714400365365e-04
42 4.1388278330219033e-04 2.0669615643431602e-04 -4.1388278330219033e-04
43 2.0669615643386418e-04 4.1388278330230455e-04 -4.1388278330230162e-04
44 5.5409714400365398e-04 6.0434297782401324e-24 -2.7807812732886849e-04
45 9.9368135992112243e-25 5.5409714400364216e-04 -2.7807812732889202e-04
46 4.1388278330230173e-04 4.1388278330230466e-04 -2.0669615643386396e-04
47 5.0734949497374367e-04 2.5289898365283474e-04 -2.5289898365283447e-04
48 2.5289898365235211e-04 5.0734949497422484e-04 -2.5289898365235211e-04
49 5.5409714400365365e-04 2.7807812732886931e-04 -5.6444670960363243e-24
50 2.7807812732889202e-04 5.5409714400364216e-04 -1.9424241519454434e-25
51 -2.7807812732886849e-04 -8.6330173086067566e-24 -5.5409714400365398e-04
52 -2.5289898365283436e-04 2.5289898365283463e-04 -5.0734949497374378e-04
53 -4.1388278330219033e-04 2.0669615643431602e-04 -4.1388278330219033e-04
54 -2.0669615643386418e-04 4.1388278330230455e-04 -4.1388278330230162e-04
55 -5.5409714400365398e-04 6.0532365524073201e-24 -2.7807812732886849e-04
56 -4.1388278330230173e-04 4.1388278330230466e-04 -2.0669615643386396e-04
57 -5.0734949497374367e-04 2.5289898365283474e-04 -2.5289898365283447e-04
58 -2.5289898365235211e-04 5.0734949497422484e-04 -2.5289898365235211e-04
59 -5.5409714400365365e-04 2.7807812732886931e-04 -5.6444656009890203e-24
60 -2.7807812732889202e-04 5.5409714400364216e-04 -2.4824948524622578e-24
61 -2.0669615643386418e-04 -4.1388278330230455e-04 -4.1388278330230162e-04
62 -2.5289898365283436e-04 -2.5289898365283463e-04 -5.0734949497374378e-04
63 -4.1388278330219033e-04 -2.0669615643431602e-04 -4.1388278330219033e-04
64 -5.5359119902265872e-24 -2.7807812732886931e-04 -5.5409714400365365e-04
65 -4.1388278330230173e-04 -4.1388278330230466e-04 -2.0669615643386396e-04
66 -9.5310840311415924e-25 -5.5409714400364216e-04 -2.7807812732889202e-04
67 -2.5289898365235211e-04 -5.0734949497422484e-04 -2.5289898365235211e-04
68 -5.0734949497374367e-04 -2.5289898365283474e-04 -2.5289898365283447e-04
69 -2.7807812732889202e-04 -5.5409714400364216e-04 -2.4824939865312009e-24
70 -5.5409714400365365e-04 -2.7807812732886931e-04 7.6543386873956469e-24
71 2.0669615643386418e-04 -4.1388278330230455e-04 -4.1388278330230162e-04
72 2.5289898365283436e-04 -2.5289898365283463e-04 -5.0734949497374378e-04
73 4.1388278330219033e-04 -2.0669615643431602e-04 -4.1388278330219033e-04
74 4.1388278330230173e-04 -4.1388278330230466e-04 -2.0669615643386396e-04
75 2.5289898365235211e-04 -5.0734949497422484e-04 -2.5289898365235211e-04
76 5.0734949497374367e-04 -2.5289898365283474e-04 -2.5289898365283447e-04
77 -2.5289898365283436e-04 -2.5289898365283463e-04 5.0734949497374378e-04
78 -4.1388278330230173e-04 -4.1388278330230466e-04 2.0669615643386396e-04
79 -5.5409714400365398e-04 -5.0132948616997352e-24 2.7807812732886849e-04
80 -2.5289898365235211e-04 -5.0734949497422484e-04 2.5289898365235211e-04
81 -5.0734949497374367e-04 -2.5289898365283474e-04 2.5289898365283447e-04
82 -2.0669615643386418e-04 -4.1388278330230455e-04 4.1388278330230162e-04
83 -4.1388278330219033e-04 -2.0669615643431602e-04 4.1388278330219033e-04
84 -2.7807812732886849e-04 -8.6330634381073491e-24 5.5409714400365398e-04
85 2.5289898365283436e-04 2.5289898365283463e-04 5.0734949497374378e-04
86 -5.0803951459448817e-25 5.5409714400364216e-04 2.7807812732889202e-04
87 4.1388278330230173e-04 4.1388278330230466e-04 2.0669615643386396e-04
88 5.0734949497374367e-04 2.5289898365283474e-04 2.5289898365283447e-04
89 2.5289898365235211e-04 5.0734949497422484e-04 2.5289898365235211e-04
90 6.0562624113079033e-24 2.7807812732886931e-04 5.5409714400365365e-04
91 4.1388278330219033e-04 2.0669615643431602e-04 4.1388278330219033e-04
92 2.0669615643386418e-04 4.1388278330230455e-04 4.1388278330230162e-04
93 -2.5289898365283436e-04 2.5289898365283463e-04 5.0734949497374378e-04
94 -4.1388278330230173e-04 4.1388278330230466e-04 2.0669615643386396e-04
95 -5.0734949497374367e-04 2.5289898365283474e-04 2.5289898365283447e-04
96 -2.5289898365235211e-04 5.0734949497422484e-04 2.5289898365235211e-04
97 -4.1388278330219033e-04 2.0669615643431602e-04 4.1388278330219033e-04
98 -2.0669615643386418e-04 4.1388278330230455e-04 4.1388278330230162e-04
$EndNodes
$Elements
192
1 2 2 0 0 63 1 65
2 2 2 0 0 65 68 63
3 2 2 0 0 56 4 53
4 2 2 0 0 53 57 56
5 2 2 0 0 63 68 55
6 2 2 0 0 55 11 63
7 2 2 0 0 55 57 53
8 2 2 0 0 53 11 55
9 2 2 0 0 78 6 83
10 2 2 0 0 83 81 78
11 2 2 0 0 55 68 70
12 2 2 0 0 70 20 55
13 2 2 0 0 70 68 65
14 2 2 0 0 65 15 70
15 2 2 0 0 78 81 70
16 2 2 0 0 70 15 78
17 2 2 0 0 97 8 94
18 2 2 0 0 94 95 97
19 2 2 0 0 55 20 59
20 2 2 0 0 59 57 55
21 2 2 0 0 56 57 59
22 2 2 0 0 59 17 56
23 2 2 0 0 59 95 94
24 2 2 0 0 94 17 59
25 2 2 0 0 70 81 79
26 2 2 0 0 79 20 70
27 2 2 0 0 79 95 59
28 2 2 0 0 59 20 79
29 2 2 0 0 79 81 83
30 2 2 0 0 83 24 79
31 2 2 0 0 97 95 79
32 2 2 0 0 79 24 97
33 2 2 0 0 46 42 5
34 2 2 0 0 42 46 47
35 2 2 0 0 73 74 3
36 2 2 0 0 74 73 76
37 2 2 0 0 44 42 47
38 2 2 0 0 42 44 12
39 2 2 0 0 73 44 76
40 2 2 0 0 44 73 12
41 2 2 0 0 91 87 2
42 2 2 0 0 87 91 88
43 2 2 0 0 49 44 47
44 2 2 0 0 44 49 21
45 2 2 0 0 46 49 47
46 2 2 0 0 49 46 18
47 2 2 0 0 49 87 88
48 2 2 0 0 87 49 18
49 2 2 0 0 31 37 7
50 2 2 0 0 37 31 34
51 2 2 0 0 28 44 21
52 2 2 0 0 44 28 76
53 2 2 0 0 28 74 76
54 2 2 0 0 74 28 16
55 2 2 0 0 31 28 34
56 2 2 0 0 28 31 16
57 2 2 0 0 32 49 88
58 2 2 0 0 49 32 21
59 2 2 0 0 28 32 34
60 2 2 0 0 32 28 21
61 2 2 0 0 91 32 88
62 2 2 0 0 32 91 25
63 2 2 0 0 32 37 34
64 2 2 0 0 37 32 25
65 2 2 0 0 61 65 1
66 2 2 0 0 65 61 67
67 2 2 0 0 74 71 3
68 2 2 0 0 71 74 75
69 2 2 0 0 61 66 67
70 2 2 0 0 66 61 9
71 2 2 0 0 66 71 75
72 2 2 0 0 71 66 9
73 2 2 0 0 78 82 6
74 2 2 0 0 82 78 80
75 2 2 0 0 66 69 67
76 2 2 0 0 69 66 19
77 2 2 0 0 69 65 67
78 2 2 0 0 65 69 15
79 2 2 0 0 78 69 80
80 2 2 0 0 69 78 15
81 2 2 0 0 35 31 7
82 2 2 0 0 31 35 33
83 2 2 0 0 66 27 19
84 2 2 0 0 27 66 75
85 2 2 0 0 74 27 75
86 2 2 0 0 27 74 16
87 2 2 0 0 27 31 33
88 2 2 0 0 31 27 16
89 2 2 0 0 69 30 80
90 2 2 0 0 30 69 19
91 2 2 0 0 30 27 33
92 2 2 0 0 27 30 19
93 2 2 0 0 30 82 80
94 2 2 0 0 82 30 23
95 2 2 0 0 35 30 33
96 2 2 0 0 30 35 23
97 2 2 0 0 46 5 43
98 2 2 0 0 43 48 46
99 2 2 0 0 54 4 56
100 2 2 0 0 56 58 54
101 2 2 0 0 45 48 43
102 2 2 0 0 43 13 45
103 2 2 0 0 54 58 45
104 2 2 0 0 45 13 54
105 2 2 0 0 92 2 87
106 2 2 0 0 87 89 92
107 2 2 0 0 50 48 45
108 2 2 0 0 45 22 50
109 2 2 0 0 46 48 50
110 2 2 0 0 50 18 46
111 2 2 0 0 50 89 87
112 2 2 0 0 87 18 50
113 2 2 0 0 94 8 98
114 2 2 0 0 98 96 94
115 2 2 0 0 60 22 45
116 2 2 0 0 45 58 60
117 2 2 0 0 60 58 56
118 2 2 0 0 56 17 60
119 2 2 0 0 94 96 60
120 2 2 0 0 60 17 94
121 2 2 0 0 86 89 50
122 2 2 0 0 50 22 86
123 2 2 0 0 60 96 86
124 2 2 0 0 86 22 60
125 2 2 0 0 92 89 86
126 2 2 0 0 86 26 92
127 2 2 0 0 86 96 98
128 2 2 0 0 98 26 86
129 2 2 0 0 61 1 63
130 2 2 0 0 63 62 61
131 2 2 0 0 73 3 71
132 2 2 0 0 71 72 73
133 2 2 0 0 61 62 64
134 2 2 0 0 64 9 61
135 2 2 0 0 64 72 71
136 2 2 0 0 71 9 64
137 2 2 0 0 53 4 54
138 2 2 0 0 54 52 53
139 2 2 0 0 64 62 51
140 2 2 0 0 51 10 64
141 2 2 0 0 51 62 63
142 2 2 0 0 63 11 51
143 2 2 0 0 53 52 51
144 2 2 0 0 51 11 53
145 2 2 0 0 43 5 42
146 2 2 0 0 42 40 43
147 2 2 0 0 64 10 39
148 2 2 0 0 39 72 64
149 2 2 0 0 73 72 39
150 2 2 0 0 39 12 73
151 2 2 0 0 39 40 42
152 2 2 0 0 42 12 39
153 2 2 0 0 51 52 41
154 2 2 0 0 41 10 51
155 2 2 0 0 41 40 39
156 2 2 0 0 39 10 41
157 2 2 0 0 41 52 54
158 2 2 0 0 54 13 41
159 2 2 0 0 43 40 41
160 2 2 0 0 41 13 43
161 2 2 0 0 37 35 7
162 2 2 0 0 35 37 29
163 2 2 0 0 82 83 6
164 2 2 0 0 83 82 77
165 2 2 0 0 36 35 29
166 2 2 0 0 35 36 23
167 2 2 0 0 82 36 77
168 2 2 0 0 36 82 23
169 2 2 0 0 92 91 2
170 2 2 0 0 91 92 85
171 2 2 0 0 38 36 29
172 2 2 0 0 36 38 14
173 2 2 0 0 37 38 29
174 2 2 0 0 38 37 25
175 2 2 0 0 38 91 85
176 2 2 0 0 91 38 25
177 2 2 0 0 97 98 8
178 2 2 0 0 98 97 93
179 2 2 0 0 84 36 14
180 2 2 0 0 36 84 77
181 2 2 0 0 84 83 77
182 2 2 0 0 83 84 24
183 2 2 0 0 97 84 93
184 2 2 0 0 84 97 24
185 2 2 0 0 90 38 85
186 2 2 0 0 38 90 14
187 2 2 0 0 84 90 93
188 2 2 0 0 90 84 14
189 2 2 0 0 92 90 85
190 2 2 0 0 90 92 26
191 2 2 0 0 90 98 93
192 2 2 0 0 98 90 26
$EndElements
